<?xml version="1.0" encoding="utf-8"?>
<!-- Generator: Adobe Illustrator 17.0.0, SVG Export Plug-In . SVG Version: 6.00 Build 0)  -->
<!DOCTYPE svg PUBLIC "-//W3C//DTD SVG 1.1//EN" "http://www.w3.org/Graphics/SVG/1.1/DTD/svg11.dtd">
<svg version="1.1" id="Layer_1" xmlns="http://www.w3.org/2000/svg" xmlns:xlink="http://www.w3.org/1999/xlink" x="0px" y="0px"
	 width="130.568px" height="164.895px" viewBox="0 0 130.568 164.895" enable-background="new 0 0 130.568 164.895"
	 xml:space="preserve">
<path fill="#FAB73E" d="M29.756,67.125V25.921c0,0,0-6.874,11.38-15.066c5.193-3.738,12.083-8.891,24.868-8.891
	c12.598,0,19.232,4.262,24.446,7.656c11.193,7.286,11.552,17.028,11.552,17.028l-0.211,40.477l-14.12,0l-0.453-39.846
	c0,0,0-4.199-4.074-7.409c-3.569-2.813-6.566-5.694-16.151-6.018c-9.806-0.331-14.743,3.664-18.129,6.265
	c-4.074,3.128-4.355,6.257-4.355,6.257l-0.601,40.752L29.756,67.125z"/>
<path opacity="0.8" fill="#232323" d="M29.917,67.615V26.411c0,0,0-6.874,11.361-15.066c5.184-3.738,12.065-9.616,24.827-9.385
	c13.794,0.25,19.557,4.5,24.762,7.894c11.174,7.286,11.177,16.591,11.177,16.591l-0.21,41.171H87.737l-0.452-39.846
	c0,0,0-4.199-4.068-7.409c-3.564-2.813-6.555-6.188-16.125-6.512c-9.79-0.331-14.88,3.945-18.261,6.545
	c-4.068,3.128-4.186,6.47-4.186,6.47l-0.6,40.752H29.917z"/>
<path opacity="0.8" fill="#232323" d="M7.425,74.167c2.354-2.552,7.501-2.881,7.501-2.881h11.827h93.74c0,0,5.177,0.773,7.118,2.552
	c2.245,2.058,2.957,5.351,2.957,5.351v80.022c0,0-0.767,2.84-2.902,4.158c-1.736,1.071-5.859,1.523-5.859,1.523H15.803
	c0,0-3.932,0.184-6.79-1.811c-2.3-1.605-3.395-4.158-3.395-4.158L5.29,79.847C5.29,79.847,5.124,76.661,7.425,74.167z"/>
<path fill="#F9A91A" d="M2.138,68.043c2.354-2.552,7.501-2.881,7.501-2.881h11.827h93.74c0,0,5.177,0.773,7.118,2.552
	c2.245,2.058,2.957,5.351,2.957,5.351v80.022c0,0-0.767,2.84-2.902,4.158c-1.736,1.071-5.859,1.523-5.859,1.523H10.516
	c0,0-3.932,0.184-6.79-1.811c-2.3-1.605-3.395-4.158-3.395-4.158L0.003,73.724C0.003,73.724-0.163,70.538,2.138,68.043z"/>
<path fill="#D6D7DD" d="M24.892,65.162V23.957c0,0,0-6.874,11.344-15.066C41.412,5.154,48.28,0,61.024,0
	c12.557,0,19.171,4.262,24.368,7.656c11.157,7.286,11.515,17.028,11.515,17.028l-0.21,40.477H82.623l-0.452-39.846
	c0,0,0-4.199-4.061-7.409c-3.558-2.813-6.545-5.694-16.1-6.018c-9.775-0.331-14.696,3.664-18.071,6.265
	c-4.061,3.128-4.341,6.257-4.341,6.257l-0.599,40.752H24.892z"/>
<path fill="#FFCD0E" d="M7.532,72.922c2.145-2.325,6.833-2.625,6.833-2.625h10.773h85.382c0,0,4.716,0.704,6.483,2.325
	c2.045,1.875,2.693,4.874,2.693,4.874v72.887c0,0-0.698,2.587-2.643,3.787c-1.581,0.975-5.336,1.387-5.336,1.387H15.163
	c0,0-3.581,0.167-6.184-1.65c-2.095-1.462-3.092-3.787-3.092-3.787L5.587,78.096C5.587,78.096,5.436,75.194,7.532,72.922z"/>
<path opacity="0.8" fill="#232323" d="M56.838,125.837c0,0-0.026,0.17,0.19,0.324c0.108,0.077,0.633,0.077,0.633,0.077h10.311
	c0,0,0.448,0,0.664-0.093c0.099-0.042,0.139-0.309,0.139-0.309l-2.192-12.73c0,0,4.342-2.068,4.333-7.43
	c-0.005-2.752-2.357-6.927-8.068-6.926c-5.745,0.001-8.022,3.867-8.014,6.769c0.016,5.652,4.593,7.53,4.593,7.53L56.838,125.837z"/>
<polygon fill="#5D5D5D" points="24.892,65.162 24.892,63.398 39.2,63.398 39.069,65.162 "/>
<polygon fill="#5D5D5D" points="82.518,65.162 82.518,63.398 96.755,63.398 96.698,65.162 "/>
<path fill="#FCDC57" d="M6.432,100.12c0,0-2.823-20.517,4.668-26.636c4.052-3.31,30.774-3.12,30.774-3.12
	s-17.725,0.629-26.525,5.888C6.455,81.567,6.432,100.12,6.432,100.12z"/>
<path fill="#E89524" d="M50.322,155.606c0,0,46.515,0.004,61.992,0.171c1.526,0.016,4.569-0.617,5.789-1.94
	c0.607-0.658,1.595-2.311,1.592-3.206c-0.013-5.31,0-25.562,0-25.562s-8.852,13.189-13.227,15.971
	C94.233,148.823,50.322,155.606,50.322,155.606z"/>
<path fill="#5D5D5D" d="M57.028,126.161l11.105,0.077c0,0,0.412,0.004,0.592-0.139c0.13-0.103-0.015-0.638-0.015-0.638
	l-2.128-12.354c0,0,0.148,6.705-2.322,9.257C61.18,125.547,57.028,126.161,57.028,126.161z"/>
</svg>
