<?xml version="1.0" encoding="utf-8"?>
<!-- Generator: Adobe Illustrator 17.0.0, SVG Export Plug-In . SVG Version: 6.00 Build 0)  -->
<!DOCTYPE svg PUBLIC "-//W3C//DTD SVG 1.1//EN" "http://www.w3.org/Graphics/SVG/1.1/DTD/svg11.dtd">
<svg version="1.1" id="Layer_1" xmlns="http://www.w3.org/2000/svg" xmlns:xlink="http://www.w3.org/1999/xlink" x="0px" y="0px"
	 width="1278.429px" height="818.129px" viewBox="0 0 1278.429 818.129" enable-background="new 0 0 1278.429 818.129"
	 xml:space="preserve">
<path opacity="0.1" fill="#E3D3CE" d="M1243.488,1.174c0,0-73.952,22.669-98.5,40.518c-33.694,24.5-18.913,71.828-32,89.148
	c-22.667,30-57.169,38.996-72.667,38.667c-62.667-1.333-102.667,43.054-65.333,79.361c99.426,96.693,173.786,79.69,230.441,76.306
	c29.977-1.79,72.787,21,72.787,21l0.213-345H1243.488z"/>
<path opacity="0.5" fill="#F4EFED" d="M178.723,734.363c0.398-1.938,14.444-13.526,30.784-13.526c7.696,0,10.935,4.913,10.935,4.913
	l1.659,4.882c0,0,10.767-2.925,14.459-3.032c3.536-0.102,13.993,2.099,13.993,2.099h2.332c0,0-3.478-9.26-2.332-12.127
	c1.117-2.794,9.795-6.996,9.795-6.996s-1.866-14.692,2.798-24.72c11.843-25.463,19.755-29.212,29.851-34.981
	c11.427-6.53,27.985-6.53,27.985-6.53s-1.298-6.746,0-8.396c2.152-2.733,10.07-3.659,13.526-3.265
	c6.477,0.738,23.321,11.66,23.321,11.66s0.233-10.75,7.929-12.935c14.676-4.168,18.791,4.851,19.823,8.738
	c2.168,8.167,2.099,11.194,2.099,11.194s17.333-10.355,39.645-0.466c20.522,9.095,19.123,35.914,19.123,35.914
	s18.84-4.339,29.384,13.06c9.328,15.392,1.941,26.107,0,34.515c-0.498,2.159,0,8.862,0,8.862s24.176-0.793,32.183,0
	c9.467,0.937,28.488,3.911,37.313,7.463c7.442,2.995,27.052,17.257,27.052,17.257s10.261-7.229,30.317,0
	c4.961,1.788,12.924,9.122,17.257,12.127c2.206,1.53,6.395,5.006,8.862,6.063c6.684,2.866,21.949,4.012,27.752,8.396
	c2.041,1.541,5.93,4.657,4.897,6.996c-2.726,6.173-18.989,7.333-25.653,8.396c-7.024,1.12-28.451,0-28.451,0
	s-60.76,13.265-79.291,6.063c-2.384-0.926-4.726-6.286-6.996-7.463c-22.414-11.616-78.025,10.506-100.979,0
	c-1.541-0.705-5.005-3.536-4.431-5.131c2.603-7.233,22.766-3.694,30.317-5.131c6.088-1.159,24.254-5.131,24.254-5.131
	s-4.199-4.448-6.063-5.131c-8.321-3.048-25.5-3.068-34.359-3.265c-47.26-1.05-174.271-4.501-189.365-9.017
	c-8.482-2.538-21.857-12.294-27.674-18.968c-2.721-3.121-8.862-13.992-8.862-13.992s-4.53-0.91-6.063-0.933
	c-4.082-0.062-12.788,1.574-16.325-0.466C179.889,740.418,178.344,736.209,178.723,734.363z"/>
<path opacity="0.8" fill="#E1DBE1" d="M602.674,767.945c-20.056-7.229-30.317,0-30.317,0s-19.61-14.262-27.052-17.257
	c-8.825-3.552-27.847-6.525-37.313-7.463c-8.007-0.793-32.183,0-32.183,0s-0.498-6.703,0-8.862c1.941-8.408,9.328-19.123,0-34.515
	c-10.544-17.398-29.384-13.06-29.384-13.06s1.399-26.819-19.123-35.914c-22.313-9.889-39.645,0.466-39.645,0.466
	s0.069-3.027-2.099-11.194c-1.032-3.886-5.147-12.905-19.823-8.738c-7.696,2.185-7.929,12.935-7.929,12.935
	s-16.844-10.923-23.321-11.66c-3.456-0.394-11.374,0.532-13.526,3.265c0,0,9.469-0.114,12.46,0.777
	c3.77,1.123,10.38,5.635,13.682,7.774c2.427,1.572,14.614,11.194,14.614,11.194s-3.038-9.742,5.597-15.547
	c1.941-1.305,3.983,0.795,5.597,2.488c3.173,3.326,5.244,12.864,5.908,17.413c0.304,2.078-0.311,8.396-0.311,8.396
	s5.438-6.534,7.774-8.085c2.706-1.797,8.891-4.946,12.127-4.664c6.317,0.55,17.708,8.17,21.745,13.06
	c4.479,5.425,8.536,19.486,9.66,26.43c0.423,2.61,1.294,8.471-0.311,10.572c-1.135,1.485-7.152,2.177-7.152,2.177
	s-1.394-4.888-2.198-6.219c-1.78-2.946-4.997-8.771-7.442-11.194c-3.409-3.379-12.698-7.188-17.413-8.085
	c-3.901-0.742-12.291-0.814-15.858,0.933c-0.742,0.363-2.177,2.488-2.177,2.488s5.577,2.975,7.152,4.353
	c3.91,3.423,11.023,11.389,13.06,16.169c1.935,4.542,2.33,14.655,2.488,19.59c0.04,1.246-0.311,4.975-0.311,4.975
	s5.738-3.065,7.152-4.664c2.694-3.047,3.355-13.155,7.152-14.614c1.558-0.599,4.922,1.411,6.198,2.488
	c3.415,2.883,7.843,11.029,9.349,15.236c0.767,2.143,1.164,6.743,1.244,9.017c0.041,1.168-0.311,4.664-0.311,4.664
	s2.711-1.703,3.42-2.488c1.448-1.602,3.598-10.482,4.353-10.883c3.313-1.761,9.655,5.88,12.438,8.396
	c2.252,2.035,5.311,7.553,7.774,9.328c3.115,2.245,10.475,5.888,14.303,5.597c1.702-0.129,4.247-3.028,5.908-3.42
	c8.791-2.079,27.361-0.227,36.07,2.177c4.558,1.258,12.732,6.281,16.791,8.706c5.09,3.042,14.331,10.631,19.59,13.371
	c2.727,1.421,8.48,3.8,11.505,4.353c2.829,0.517,8.629,0,11.505,0c3.343,0,10.074-0.551,13.371,0
	c5.238,0.875,15.064,5.19,20.089,6.908c4.293,1.468,13.493,8.482,17.182,5.84c1.495-1.071,0-7.357,0-7.357L602.674,767.945z"/>
<path opacity="0.2" fill="#E3D3CE" d="M472.302,0c0,0-50.234,76.428-72.787,91.814c-8,5.458-36.913,11.745-36.913,11.745
	s1.708,46.655,0,62.081c-1.372,12.391-7.266,36.735-10.906,48.658c-2.695,8.828-13.423,34.396-13.423,34.396
	s56.934,10.695,72.148,21.812c13.152,9.61,36.913,53.692,36.913,53.692s36.675,19.257,49.497,24.329
	c7.341,2.904,22.611,7.057,30.202,9.228c6.261,1.791,20.243,2.451,25.168,6.711c2.416,2.09,6.432,8.873,5.034,11.745
	c-6.08,12.487-40.397,10.244-53.692,14.262c-22.475,6.793-65.487,28.844-88.927,30.202c-37.455,2.17-127.893-24.206-165.365-26.07
	c-26.059-1.296-60.678,12.462-86.315,7.613C133.351,396.623,0,345.421,0,345.421V0L472.302,0z"/>
<path opacity="0.2" fill="#E1DBE1" d="M533.022,289.17c0,0,14.986-13.531,21.245-15.58c5.048-1.652,21.245,0,21.245,0
	s15.523-4.089,19.121-7.79c2.109-2.169,1.762-9.608,4.249-11.331c4.802-3.328,17.817-1.818,23.37,0
	c3.13,1.025,10.623,7.79,10.623,7.79s2.342-6.658,4.249-7.79c3.502-2.079,12.216,0,16.288,0c4.78,0,19.121,0,19.121,0
	s-2.735-13.745,0-16.996c5.321-6.326,24.341-4.955,32.576-5.665c2.469-0.213,9.915,0,9.915,0s-3.881-18.073,0-21.954
	c3.881-3.881,16.497-0.588,21.954,0c9.909,1.068,29.036,11.803,29.036,11.803s12.899-8.908,17.941-9.442
	c2.465-0.261,13.466,1.12,14.636,3.305c2.108,3.94-10.934,8.242-14.164,11.331c-7.175,6.863-13.097,19.997-22.662,22.662
	c-6.822,1.901-28.327,0-28.327,0l-38.242,9.206c0,0-9.32,5.019-12.747,5.665c-7.663,1.445-23.39-2.071-31.16-1.416
	c-5.865,0.494-16.93,5.04-22.662,6.374c-9.47,2.204-28.664,5.409-38.242,7.082c-6.009,1.05-24.078,3.954-24.078,3.954
	s-22.273,12.135-30.452,13.916c-2.777,0.604-10.61,2.739-11.369,0C523.822,291.894,533.022,289.17,533.022,289.17z"/>
</svg>
