<?xml version="1.0" encoding="utf-8"?>
<!-- Generator: Adobe Illustrator 17.0.0, SVG Export Plug-In . SVG Version: 6.00 Build 0)  -->
<!DOCTYPE svg PUBLIC "-//W3C//DTD SVG 1.1//EN" "http://www.w3.org/Graphics/SVG/1.1/DTD/svg11.dtd">
<svg version="1.1" id="Layer_1" xmlns="http://www.w3.org/2000/svg" xmlns:xlink="http://www.w3.org/1999/xlink" x="0px" y="0px"
	 width="1056.915px" height="646.09px" viewBox="0 0 1056.915 646.09" enable-background="new 0 0 1056.915 646.09"
	 xml:space="preserve">
<path fill="#F4EFED" d="M685.73,639.721c14.145,3.583,43.427,6.306,58.019,6.368c15.823,0.068,47.323-4.026,62.972-6.368
	c30.5-4.564,91.589-14.749,120.991-24.057c12.911-4.087,37.66-15.413,49.528-21.934c3.633-1.996,14.803-9.662,14.803-9.662
	s-0.028-3.945-1.006-4.842c-5.299-4.861-28.656,2.476-28.656,2.476s-2.123-8.491-12.736-10.259
	c-19.382-3.23-28.302-3.891-28.302-3.891s1.769-32.547-38.915-52.359c-8.07-3.93-27.257-6.498-35.731-3.538
	c-8.73,3.05-22.623,17.394-26.533,25.774c-2.555,5.477-4.706,18.827-1.769,24.108c1.019,1.832,7.429,3.891,7.429,3.891
	s-11.464,26.684-13.49,20.822c-2.783-8.049-21.683-7.319-37.453,0.05c-15.624,7.301-18.75,23.703-18.75,23.703
	s-3.385-7.665-18.042-4.245c-10.613,2.476-13.09,17.689-13.09,17.689s-14.11-0.319-18.75,0.354
	c-5.266,0.764-15.679,3.449-20.519,5.66c-2.61,1.193-9.84,3.512-9.552,6.368C676.437,638.396,683.231,639.088,685.73,639.721z"/>
<path opacity="0.3" fill="#FDFDFE" d="M991.038,584.533c0.715-0.317,1.852,0.66,0-5.307c-1.592-5.13-28.656,2.476-28.656,2.476
	s-2.123-8.491-12.736-10.259c-19.382-3.23-28.302-3.891-28.302-3.891s1.769-32.547-38.915-52.359
	c-8.07-3.93-27.257-6.498-35.731-3.538c-8.73,3.05-22.623,17.394-26.533,25.774c0,0,4.808-4.59,6.545-5.962
	c2.646-2.092,7.899-6.685,11.144-7.606c14.328-4.068,21.802,1.162,24.41,3.007c16.673,11.796,39.446,55.189,39.446,55.189
	s10.79-3.826,25.826,0.708c10.561,3.184,21.58,11.321,21.58,11.321s25.841-12.58,31.309-13.443c6.722-1.061,7.607-0.387,8.667,0.177
	C990.018,581.31,991.038,584.533,991.038,584.533z"/>
<path opacity="0.9" fill="#F4EFED" d="M144.239,362.439c0.398-1.939,14.446-13.528,30.788-13.528c7.697,0,10.936,4.914,10.936,4.914
	l1.659,4.882c0,0,10.769-2.925,14.461-3.032c3.536-0.102,13.995,2.099,13.995,2.099h2.332c0,0-3.479-9.262-2.332-12.129
	c1.117-2.795,9.796-6.997,9.796-6.997s-1.866-14.694,2.799-24.724c11.845-25.467,19.758-29.217,29.855-34.987
	c11.429-6.531,27.989-6.531,27.989-6.531s-1.299-6.747,0-8.397c2.152-2.734,10.071-3.659,13.528-3.265
	c6.478,0.738,23.325,11.662,23.325,11.662s0.233-10.752,7.93-12.937c14.679-4.168,18.794,4.852,19.826,8.739
	c2.168,8.168,2.099,11.196,2.099,11.196s17.336-10.357,39.652-0.466c20.526,9.097,19.126,35.92,19.126,35.92
	s18.843-4.339,29.389,13.062c9.33,15.394,1.942,26.111,0,34.52c-0.499,2.159,0,8.863,0,8.863s24.18-0.793,32.188,0
	c9.468,0.938,28.493,3.912,37.319,7.464c7.443,2.996,27.056,17.26,27.056,17.26s10.263-7.231,30.322,0
	c4.961,1.788,12.926,9.124,17.26,12.129c2.206,1.53,6.396,5.006,8.863,6.064c6.685,2.866,21.952,4.013,27.756,8.397
	c2.041,1.542,5.931,4.658,4.898,6.997c-2.726,6.174-18.992,7.334-25.657,8.397c-7.025,1.12-28.456,0-28.456,0
	s-60.77,13.267-79.303,6.064c-2.384-0.926-4.726-6.287-6.997-7.464c-22.417-11.618-78.037,10.508-100.995,0
	c-1.541-0.705-5.006-3.536-4.432-5.131c2.603-7.234,22.769-3.694,30.322-5.131c6.089-1.159,24.257-5.131,24.257-5.131
	s-4.2-4.448-6.064-5.131c-8.323-3.049-25.504-3.069-34.365-3.265c-47.267-1.05-174.298-4.501-189.395-9.019
	c-8.483-2.539-21.86-12.296-27.678-18.971c-2.721-3.122-8.863-13.995-8.863-13.995s-4.531-0.91-6.064-0.933
	c-4.083-0.062-12.79,1.574-16.327-0.466C145.406,368.495,143.86,364.285,144.239,362.439z"/>
<path opacity="0.9" fill="#F4EFED" d="M711.057,245.097c0,0-29.336-8.928-45.492,13.18c-6.496,8.889-9.779,42.941-9.779,42.941
	s-13.285,4.593-16.156,8.078c-1.262,1.533-3.026,5.883-2.126,7.653c1.235,2.428,33.218,25.399,83.02,27.937
	c106.123,5.407,225.118-25.121,273.689-29.637c16.205-1.507,58.144-0.377,62.499-13.605c2.752-8.36-23.364-13.558-31.462-17.006
	c-12.542-5.34-41.477-7.679-54.42-3.401c-4.225,1.397-13.605,11.479-13.605,11.479s-13.067-7.045-17.857-8.078
	c-3.013-0.65-12.33,0-12.33,0s-6.064-24.434-12.33-29.336c-9.236-7.225-46.342-7.228-46.342-7.228s-4.18-15.428-8.078-18.707
	c-3.137-2.639-15.944-3.826-15.944-3.826l-6.165-2.976c0,0,14.455-23.384-5.527-34.438c-5.487-3.036-19.132-1.701-19.132-1.701
	s-14.877-11.97-27.635-15.306c-19.132-5.002-56.971-3.65-71.852,38.69C705.47,234.174,711.057,245.097,711.057,245.097z"/>
<path opacity="0.9" fill="#E1DBE1" d="M568.257,396.027c-20.059-7.231-30.322,0-30.322,0s-19.613-14.265-27.056-17.26
	c-8.827-3.552-27.851-6.526-37.319-7.464c-8.008-0.793-32.188,0-32.188,0s-0.499-6.704,0-8.863c1.942-8.409,9.33-19.126,0-34.52
	c-10.546-17.401-29.389-13.062-29.389-13.062s1.399-26.823-19.126-35.92c-22.316-9.89-39.652,0.466-39.652,0.466
	s0.069-3.028-2.099-11.196c-1.032-3.887-5.147-12.907-19.826-8.739c-7.697,2.186-7.93,12.937-7.93,12.937
	s-16.847-10.925-23.324-11.662c-3.457-0.394-11.376,0.532-13.528,3.265c0,0,9.47-0.114,12.462,0.777
	c3.771,1.123,10.381,5.636,13.684,7.775c2.428,1.572,14.617,11.196,14.617,11.196s-3.039-9.743,5.598-15.55
	c1.941-1.305,3.984,0.796,5.598,2.488c3.173,3.327,5.244,12.866,5.909,17.416c0.304,2.079-0.311,8.397-0.311,8.397
	s5.439-6.535,7.775-8.086c2.707-1.797,8.892-4.947,12.129-4.665c6.318,0.55,17.711,8.171,21.749,13.062
	c4.48,5.426,8.537,19.489,9.662,26.434c0.423,2.611,1.294,8.472-0.311,10.574c-1.135,1.485-7.153,2.177-7.153,2.177
	s-1.394-4.889-2.198-6.22c-1.78-2.947-4.998-8.772-7.443-11.196c-3.409-3.379-12.7-7.189-17.416-8.086
	c-3.902-0.742-12.293-0.814-15.861,0.933c-0.742,0.363-2.177,2.488-2.177,2.488s5.578,2.975,7.153,4.354
	c3.91,3.423,11.024,11.391,13.062,16.172c1.936,4.542,2.33,14.658,2.488,19.593c0.04,1.246-0.311,4.976-0.311,4.976
	s5.739-3.065,7.153-4.665c2.695-3.048,3.356-13.157,7.153-14.617c1.559-0.599,4.923,1.411,6.199,2.488
	c3.416,2.883,7.845,11.03,9.351,15.239c0.767,2.143,1.164,6.744,1.244,9.019c0.041,1.168-0.311,4.665-0.311,4.665
	s2.712-1.703,3.421-2.488c1.449-1.602,3.599-10.483,4.354-10.885c3.313-1.761,9.656,5.881,12.44,8.397
	c2.253,2.036,5.312,7.555,7.775,9.33c3.116,2.246,10.476,5.889,14.306,5.598c1.702-0.129,4.248-3.028,5.909-3.421
	c8.793-2.08,27.366-0.227,36.075,2.177c4.559,1.258,12.734,6.282,16.794,8.708c5.091,3.042,14.333,10.633,19.593,13.373
	c2.728,1.421,8.481,3.801,11.507,4.354c2.83,0.517,8.63,0,11.507,0c3.343,0,10.075-0.551,13.373,0
	c5.239,0.876,15.066,5.191,20.092,6.91c4.293,1.468,13.495,8.483,17.184,5.841c1.495-1.071,0-7.358,0-7.358L568.257,396.027z"/>
<path opacity="0.9" fill="#E1DBE1" d="M970.894,281.235c-4.225,1.397-13.605,11.479-13.605,11.479s-13.131-7.045-17.921-8.078
	c-3.013-0.65-12.266,0-12.266,0s-6.064-24.434-12.33-29.336c-9.236-7.225-46.342-7.228-46.342-7.228s-4.18-15.428-8.078-18.707
	c-3.137-2.639-15.944-3.826-15.944-3.826l-6.165-2.976c0,0,14.455-23.384-5.527-34.438c-5.487-3.036-19.132-1.701-19.132-1.701
	s-14.877-11.97-27.635-15.306c-19.132-5.002-56.972-3.65-71.852,38.69c-8.563,24.365-3.921,32.403-3.921,32.403
	s3.487-18.611,6.301-25.175c2.59-6.038,9.765-17.833,15.306-21.364c9.097-5.799,32.049-10.98,42.41-7.972
	c14.137,4.104,39.381,25.921,43.047,40.178c0.464,1.802-1.276,7.334-1.276,7.334s-10.842-5.102-22.64-2.232
	c-18.114,4.406-22.959,15.625-22.959,15.625s19.451-3.826,36.032,1.275c21.567,6.636,21.364,28.061,21.364,28.061
	s6.878-7.576,16.581-9.566c12.436-2.551,21.364,5.421,21.364,5.421s1.544-11.057,4.464-12.755c5.745-3.34,26.147,4.783,26.147,4.783
	l1.276,5.421c0,0-12.367-2.474-27.104,5.421c-8.928,4.783-11.16,13.711-11.16,13.711s7.866-1.454,10.523-1.594
	c8.493-0.448,25.75,1.16,33.79,3.933c6.891,2.377,24.882,15.199,24.882,15.199l3.189,3.508l0.957-6.377l-2.87-9.188
	c0,0,12.514-0.466,16.581,0.339c3.188,0.631,14.987,5.023,14.987,5.023s1.224-8.573,2.87-11.16
	C965.723,287.727,970.894,281.235,970.894,281.235z"/>
<path opacity="0.9" fill="#F4EFED" d="M539.808,49.026c-8.32,5.188-26.504,12.924-35.83,15.95
	c-10.113,3.282-31.112,7.108-41.607,8.812c-20.455,3.321-61.638,9.305-82.361,9.365c-9.1,0.026-27.258-2.157-36.189-3.902
	c-2.734-0.534-11.452-3.155-11.452-3.155s-0.789-2.531-0.347-3.305c2.397-4.195,18.847-4.28,18.847-4.28s-0.379-5.869,6.052-9.173
	c11.744-6.034,17.318-8.283,17.318-8.283S366.445,30.587,388.43,9.58c4.361-4.167,16.115-9.737,22.145-9.577
	c6.212,0.165,18.039,6.502,22.257,11.066c2.756,2.982,6.865,11.087,6.066,15.068c-0.277,1.381-3.958,4.011-3.958,4.011
	s12.798,14.733,12.896,10.566c0.134-5.721,12.38-9.122,23.981-7.633c11.494,1.476,16.852,11.333,16.852,11.333
	s0.598-5.599,10.679-6.41c7.3-0.587,11.998,8.642,11.998,8.642s8.966-3.092,12.073-3.611c3.527-0.589,10.741-1.001,14.291-0.577
	c1.915,0.229,7.017,0.234,7.417,2.121C545.485,46.275,541.278,48.109,539.808,49.026z"/>
<path opacity="0.9" fill="#E1DBE1" d="M333.108,76.187c-0.523-0.057-1.05,0.802-1.086-3.396c-0.031-3.609,18.847-4.28,18.847-4.28
	s-0.379-5.869,6.052-9.173c11.744-6.034,17.318-8.283,17.318-8.283S366.445,30.587,388.43,9.58
	c4.361-4.167,16.115-9.737,22.145-9.577c6.212,0.165,18.039,6.502,22.257,11.066c0,0-4.017-1.954-5.409-2.477
	c-2.122-0.797-6.424-2.662-8.689-2.587c-10.003,0.328-13.716,5.205-15.008,6.92c-8.257,10.962-13.952,43.395-13.952,43.395
	s-7.689-0.24-16.384,5.738c-6.108,4.2-11.495,11.662-11.495,11.662s-19.114-2.763-22.79-2.196c-4.519,0.696-4.948,1.309-5.511,1.887
	C333.102,73.916,333.108,76.187,333.108,76.187z"/>
<path opacity="0.15" fill="#FDFDFE" d="M482.081,133.544c-18.776,3.265-16.794,13.761-16.794,13.761s-9.019-2.684-12.129-2.799
	c-4.599-0.171-15.197-0.694-18.193,2.799c-1.063,1.239,0,6.531,0,6.531s-18.502-5.344-24.258-3.265
	c-3.726,1.346-10.667,7.701-10.729,11.662c-0.053,3.39,5.781,8.852,8.863,10.263c0,0-4.031-4.505-4.198-6.414
	c-0.116-1.327,1.076-4.045,2.099-4.898c2.527-2.105,5.598-3.849,11.429-4.548c9.771-1.172,20.526,1.283,20.526,1.283
	s-1.386-4.426-0.583-4.898c4.705-2.769,16.228,2.281,21.575,3.382c2.417,0.498,9.563,2.449,9.563,2.449s-1.309-5.571-1.283-7.464
	c0.024-1.784,1.492-6.016,2.799-7.231c3.099-2.881,13.379-3.032,17.61-3.032c12.012,0,19.826,3.499,19.826,3.499
	s-3.448-11.269-6.531-11.779C498.99,132.401,490.531,132.075,482.081,133.544z"/>
<path opacity="0.9" fill="#F4EFED" d="M224.394,115.352c-6.013-6.784-17.388-12.753-34.252-11.9
	c-14.144,0.715-41.786,28.227-41.786,28.227l-4.665,4.198c0,0-4.772-6.204-6.997-7.464c-9.137-5.173-22.12-9.619-41.051-8.863
	c-23.368,0.933-41.984,16.327-41.984,16.327s-10.166-1.347-20.059,5.131c-13.062,8.552-15.394,19.593-15.394,19.593
	s-14.748,5.117-17.26,9.33c-1.254,2.104-1.266,7.7,0,9.796c2.588,4.287,12.783,8.528,17.727,9.33c19.225,3.118,77.904,0,77.904,0
	s-4.33,3.854-4.198,5.598c1.563,20.684,42.016,26.024,55.046,28.456c19.948,3.723,81.169,0,81.169,0s-2.56,7.544,22.392,11.662
	c36.728,6.062,148.81-5.131,148.81-5.131s20.44-3.613,20.992-9.33c0.137-1.417-3.344-2.734-4.665-3.265
	c-3.504-1.411-14.928-2.332-14.928-2.332s-7.53-10.519-11.196-12.595c-5.473-3.1-18.453-5.157-24.724-4.665
	c-1.728,0.136-6.531,2.332-6.531,2.332s2.769-5.558,2.332-7.464c-1.142-4.986-9.414-12.651-13.995-14.928
	c-3.99-1.983-13.281-2.178-17.727-1.866c-1.439,0.101-5.598,1.399-5.598,1.399s1.967-8.759,0-10.496
	c-5.987-5.287-19.219-8.711-26.123-9.097c-2.627-0.147-10.263,2.332-10.263,2.332s-7.853-8.786-13.062-11.662
	c-2.07-1.143-6.064,0-6.064,0s4.323-7.598,3.732-10.263c-0.572-2.576-5.026-6.454-7.464-7.464c-5.711-2.365-24.724,0-24.724,0
	h-6.997C232.791,130.28,227.234,118.556,224.394,115.352z"/>
<path opacity="0.9" fill="#E2E0E2" d="M416.214,217.085c-3.504-1.411-14.928-2.332-14.928-2.332s-7.53-10.519-11.196-12.595
	c-5.473-3.1-18.666-5.188-24.936-4.696c-1.728,0.136-6.267,2.251-6.267,2.251s2.718-5.445,2.281-7.351
	c-1.142-4.986-9.414-12.651-13.995-14.928c-3.99-1.983-13.281-2.178-17.727-1.866c-1.439,0.101-5.531,1.292-5.531,1.292
	s1.9-8.652-0.066-10.389c-5.987-5.287-19.219-8.711-26.123-9.097c-2.627-0.147-10.305,2.259-10.305,2.259s-7.81-8.712-13.019-11.589
	c-2.07-1.143-5.973-0.115-5.973-0.115s4.14-7.48,3.549-10.145c0,0-3.975,7.011-6.111,8.535c-1.757,1.254-5.73,1.71-8.468,1.687
	c-4.103-0.035-10.885,2.724-14.5,4.665c-1.696,0.91-4.669,3.775-5.287,5.598c-0.275,0.81-1.371,7.713-0.716,8.263
	c0,0,2.019-3.428,7.869-6.086c5.164-2.347,9.924-1.629,12.677-1.12c3.393,0.627,8.362,4.238,11.269,6.096
	c3.384,2.163,9.476,7.621,11.818,10.885c1.786,2.489,3.708,6.339,5.442,8.863c0.436,0.634,1.71,4.509,1.71,4.509
	s2.526-2.424,3.11-3.421c1.615-2.758-1.866-14.461,7.464-17.265c2.984-0.897,11.389,2.124,13.839,4.047
	c3.505,2.752,8.541,8.733,10.574,12.698c2.099,4.096,5.442,12.648,5.442,12.648s1.353-2.132,1.866-2.799
	c1.074-1.397,4.615-2.95,6.375-3.032c9.057-0.42,14.023,7.542,15.083,10.496c0.531,1.48-0.933,6.22-0.933,6.22
	s2.992-1.127,4.043-1.244c3.022-0.336,9.248-0.041,12.129,0.933c4.74,1.602,11.798,10.606,16.794,10.885
	c1.215,0.068,4.313,1.991,5.287,2.799c3.111,2.582,12.153,0.441,16.172,0c2.138-0.235,8.301,0.282,8.397-1.866
	c0.08-1.793-5.242-1.362-6.842-2.177l-2.408-1.768c0,0,3.158-0.607,4.226-0.626C410.29,216.171,416.214,217.085,416.214,217.085z"/>
</svg>
