<?xml version="1.0" encoding="utf-8"?>
<!-- Generator: Adobe Illustrator 17.0.0, SVG Export Plug-In . SVG Version: 6.00 Build 0)  -->
<!DOCTYPE svg PUBLIC "-//W3C//DTD SVG 1.1//EN" "http://www.w3.org/Graphics/SVG/1.1/DTD/svg11.dtd">
<svg version="1.1" id="Layer_1" xmlns="http://www.w3.org/2000/svg" xmlns:xlink="http://www.w3.org/1999/xlink" x="0px" y="0px"
	 width="1280px" height="2465px" viewBox="0 0 1280 2465" enable-background="new 0 0 1280 2465" xml:space="preserve">
<path opacity="0.9" fill="#F3EEEC" d="M280.255,261.741c-6.013-6.784-17.388-12.753-34.252-11.9
	c-14.144,0.715-41.786,28.227-41.786,28.227l-4.665,4.198c0,0-4.772-6.204-6.997-7.464c-9.137-5.173-22.12-9.619-41.051-8.863
	c-23.368,0.933-41.984,16.327-41.984,16.327s-10.166-1.347-20.059,5.131c-13.062,8.552-15.394,19.593-15.394,19.593
	s-14.748,5.117-17.26,9.33c-1.254,2.104-1.266,7.7,0,9.796c2.588,4.287,12.783,8.528,17.727,9.33c19.225,3.118,77.904,0,77.904,0
	s-4.33,3.854-4.198,5.598c1.563,20.684,42.016,26.024,55.046,28.456c19.948,3.723,81.169,0,81.169,0s-2.56,7.544,22.392,11.662
	c36.728,6.062,148.81-5.131,148.81-5.131s20.44-3.613,20.992-9.33c0.137-1.417-3.344-2.734-4.665-3.265
	c-3.504-1.411-14.928-2.332-14.928-2.332s-7.53-10.519-11.196-12.595c-5.473-3.1-18.453-5.157-24.724-4.665
	c-1.728,0.136-6.531,2.332-6.531,2.332s2.769-5.558,2.332-7.464c-1.142-4.986-9.414-12.651-13.995-14.928
	c-3.99-1.983-13.281-2.178-17.727-1.866c-1.439,0.101-5.598,1.399-5.598,1.399s1.967-8.759,0-10.496
	c-5.987-5.287-19.219-8.711-26.123-9.097c-2.627-0.147-10.263,2.332-10.263,2.332s-7.853-8.786-13.062-11.662
	c-2.07-1.143-6.064,0-6.064,0s4.323-7.598,3.732-10.263c-0.572-2.576-5.026-6.454-7.464-7.464c-5.71-2.365-24.724,0-24.724,0h-6.997
	C288.652,276.668,283.095,264.945,280.255,261.741z"/>
<path opacity="0.9" fill="#E2E0E1" d="M472.075,363.473c-3.504-1.411-14.928-2.332-14.928-2.332s-7.53-10.519-11.196-12.595
	c-5.473-3.1-18.666-5.188-24.936-4.696c-1.728,0.136-6.267,2.251-6.267,2.251s2.718-5.445,2.281-7.351
	c-1.142-4.986-9.414-12.651-13.995-14.928c-3.99-1.983-13.281-2.178-17.727-1.866c-1.439,0.101-5.531,1.292-5.531,1.292
	s1.9-8.652-0.066-10.389c-5.987-5.287-19.219-8.711-26.123-9.097c-2.627-0.147-10.305,2.259-10.305,2.259s-7.81-8.712-13.019-11.589
	c-2.07-1.143-5.973-0.115-5.973-0.115s4.14-7.48,3.549-10.145c0,0-3.975,7.011-6.111,8.535c-1.757,1.254-5.73,1.71-8.468,1.687
	c-4.103-0.035-10.885,2.724-14.5,4.665c-1.696,0.91-4.669,3.775-5.287,5.598c-0.275,0.81-1.371,7.713-0.716,8.263
	c0,0,2.019-3.428,7.869-6.086c5.164-2.347,9.924-1.629,12.677-1.12c3.393,0.627,8.362,4.238,11.269,6.096
	c3.384,2.163,9.476,7.621,11.818,10.885c1.786,2.489,3.708,6.339,5.442,8.863c0.436,0.634,1.71,4.509,1.71,4.509
	s2.526-2.424,3.11-3.421c1.615-2.758-1.866-14.461,7.464-17.265c2.984-0.897,11.389,2.124,13.839,4.047
	c3.505,2.752,8.541,8.733,10.574,12.698c2.099,4.096,5.442,12.648,5.442,12.648s1.353-2.132,1.866-2.799
	c1.074-1.397,4.615-2.95,6.375-3.032c9.057-0.42,14.023,7.542,15.083,10.496c0.531,1.48-0.933,6.22-0.933,6.22
	s2.992-1.127,4.043-1.244c3.022-0.336,9.248-0.041,12.129,0.933c4.74,1.602,11.798,10.606,16.794,10.885
	c1.215,0.068,4.313,1.991,5.287,2.799c3.111,2.582,12.153,0.441,16.172,0c2.138-0.235,8.301,0.282,8.397-1.866
	c0.08-1.793-5.242-1.362-6.842-2.177l-2.408-1.768c0,0,3.158-0.607,4.226-0.626C466.15,362.559,472.075,363.473,472.075,363.473z"/>
<path opacity="0.9" fill="#F3EEEC" d="M200.1,508.828c0.398-1.939,14.446-13.528,30.788-13.528c7.697,0,10.936,4.914,10.936,4.914
	l1.659,4.882c0,0,10.769-2.925,14.461-3.032c3.536-0.102,13.995,2.099,13.995,2.099h2.332c0,0-3.479-9.262-2.332-12.129
	c1.117-2.795,9.796-6.997,9.796-6.997s-1.866-14.694,2.799-24.724c11.845-25.467,19.758-29.217,29.855-34.987
	c11.429-6.531,27.989-6.531,27.989-6.531s-1.299-6.747,0-8.397c2.152-2.734,10.071-3.659,13.528-3.265
	c6.478,0.738,23.325,11.662,23.325,11.662s0.233-10.752,7.93-12.937c14.679-4.168,18.794,4.852,19.826,8.739
	c2.168,8.168,2.099,11.196,2.099,11.196s17.336-10.357,39.652-0.466c20.526,9.097,19.126,35.92,19.126,35.92
	s18.843-4.339,29.389,13.062c9.33,15.394,1.942,26.111,0,34.52c-0.499,2.159,0,8.863,0,8.863s24.18-0.793,32.188,0
	c9.468,0.938,28.493,3.912,37.319,7.464c7.443,2.995,27.056,17.26,27.056,17.26s10.263-7.231,30.322,0
	c4.961,1.788,12.926,9.124,17.26,12.129c2.206,1.53,6.396,5.006,8.863,6.064c6.685,2.866,21.952,4.013,27.756,8.397
	c2.041,1.542,5.931,4.658,4.898,6.997c-2.726,6.174-18.992,7.334-25.657,8.397c-7.025,1.12-28.456,0-28.456,0
	s-60.77,13.267-79.303,6.064c-2.384-0.927-4.726-6.287-6.997-7.464c-22.417-11.617-78.037,10.508-100.995,0
	c-1.541-0.705-5.006-3.536-4.432-5.131c2.603-7.234,22.769-3.694,30.322-5.131c6.089-1.159,24.258-5.131,24.258-5.131
	s-4.2-4.448-6.064-5.131c-8.323-3.049-25.504-3.069-34.365-3.265c-47.267-1.05-174.298-4.501-189.395-9.019
	c-8.483-2.539-21.86-12.296-27.678-18.971c-2.721-3.122-8.863-13.995-8.863-13.995s-4.531-0.91-6.064-0.933
	c-4.083-0.062-12.79,1.574-16.327-0.466C201.267,514.884,199.721,510.673,200.1,508.828z"/>
<path opacity="0.9" fill="#F3EEEC" d="M771.134,383.052c0,0-29.336-8.928-45.492,13.18c-6.496,8.889-9.779,42.941-9.779,42.941
	s-13.285,4.593-16.156,8.078c-1.262,1.533-3.026,5.883-2.126,7.653c1.235,2.428,33.218,25.399,83.02,27.937
	c106.123,5.407,225.118-25.121,273.689-29.637c16.205-1.507,58.144-0.377,62.499-13.605c2.752-8.36-23.364-13.558-31.462-17.006
	c-12.542-5.34-41.478-7.679-54.421-3.401c-4.225,1.397-13.605,11.479-13.605,11.479s-13.067-7.045-17.857-8.078
	c-3.013-0.65-12.33,0-12.33,0s-6.064-24.434-12.33-29.336c-9.236-7.225-46.342-7.228-46.342-7.228s-4.18-15.428-8.078-18.707
	c-3.137-2.639-15.944-3.826-15.944-3.826l-6.165-2.976c0,0,14.455-23.384-5.527-34.438c-5.487-3.036-19.132-1.701-19.132-1.701
	s-14.877-11.97-27.635-15.306c-19.132-5.002-56.971-3.65-71.852,38.69C765.547,372.129,771.134,383.052,771.134,383.052z"/>
<path opacity="0.9" fill="#E0DAE0" d="M624.118,542.415c-20.059-7.231-30.322,0-30.322,0s-19.613-14.265-27.056-17.26
	c-8.827-3.552-27.851-6.526-37.319-7.464c-8.008-0.793-32.188,0-32.188,0s-0.499-6.704,0-8.863c1.942-8.409,9.33-19.126,0-34.52
	c-10.546-17.401-29.389-13.062-29.389-13.062s1.399-26.823-19.126-35.92c-22.316-9.89-39.652,0.466-39.652,0.466
	s0.069-3.028-2.099-11.196c-1.032-3.887-5.147-12.907-19.826-8.739c-7.697,2.186-7.93,12.937-7.93,12.937
	s-16.847-10.925-23.325-11.662c-3.457-0.394-11.376,0.532-13.528,3.265c0,0,9.47-0.114,12.462,0.777
	c3.771,1.123,10.381,5.636,13.684,7.775c2.428,1.572,14.617,11.196,14.617,11.196s-3.039-9.743,5.598-15.55
	c1.941-1.305,3.984,0.796,5.598,2.488c3.173,3.327,5.244,12.866,5.909,17.416c0.304,2.079-0.311,8.397-0.311,8.397
	s5.439-6.535,7.775-8.086c2.707-1.797,8.892-4.947,12.129-4.665c6.318,0.55,17.711,8.171,21.749,13.062
	c4.48,5.426,8.537,19.489,9.662,26.434c0.423,2.611,1.294,8.472-0.311,10.574c-1.135,1.485-7.153,2.177-7.153,2.177
	s-1.394-4.889-2.198-6.22c-1.78-2.947-4.998-8.772-7.443-11.196c-3.409-3.379-12.7-7.189-17.416-8.086
	c-3.902-0.742-12.293-0.814-15.861,0.933c-0.742,0.363-2.177,2.488-2.177,2.488s5.578,2.975,7.153,4.354
	c3.91,3.423,11.024,11.391,13.062,16.172c1.936,4.542,2.33,14.658,2.488,19.593c0.04,1.246-0.311,4.976-0.311,4.976
	s5.739-3.066,7.153-4.665c2.695-3.048,3.356-13.157,7.153-14.617c1.559-0.599,4.923,1.411,6.199,2.488
	c3.416,2.883,7.845,11.03,9.351,15.239c0.767,2.143,1.164,6.744,1.244,9.019c0.041,1.168-0.311,4.665-0.311,4.665
	s2.712-1.703,3.421-2.488c1.449-1.602,3.599-10.483,4.354-10.885c3.313-1.761,9.656,5.881,12.44,8.397
	c2.253,2.036,5.312,7.555,7.775,9.33c3.116,2.246,10.476,5.889,14.306,5.598c1.702-0.129,4.248-3.028,5.909-3.421
	c8.793-2.08,27.366-0.227,36.075,2.177c4.559,1.258,12.734,6.282,16.794,8.708c5.091,3.042,14.333,10.633,19.593,13.373
	c2.728,1.421,8.481,3.801,11.507,4.354c2.83,0.517,8.63,0,11.507,0c3.343,0,10.075-0.551,13.373,0
	c5.239,0.876,15.066,5.191,20.092,6.91c4.293,1.468,13.495,8.483,17.184,5.841c1.495-1.071,0-7.358,0-7.358L624.118,542.415z"/>
<path opacity="0.9" fill="#E0DAE0" d="M1030.971,419.191c-4.225,1.397-13.605,11.479-13.605,11.479s-13.131-7.045-17.921-8.078
	c-3.013-0.65-12.266,0-12.266,0s-6.064-24.434-12.33-29.336c-9.236-7.225-46.342-7.228-46.342-7.228s-4.18-15.428-8.078-18.707
	c-3.137-2.639-15.944-3.826-15.944-3.826l-6.165-2.976c0,0,14.455-23.384-5.527-34.438c-5.487-3.036-19.132-1.701-19.132-1.701
	s-14.877-11.97-27.635-15.306c-19.132-5.002-56.972-3.65-71.852,38.69c-8.563,24.366-3.921,32.403-3.921,32.403
	s3.487-18.611,6.301-25.175c2.59-6.038,9.765-17.833,15.306-21.364c9.097-5.799,32.049-10.98,42.41-7.972
	c14.137,4.104,39.381,25.921,43.047,40.178c0.464,1.802-1.276,7.334-1.276,7.334s-10.842-5.102-22.64-2.232
	c-18.114,4.406-22.959,15.625-22.959,15.625s19.451-3.826,36.032,1.275c21.567,6.636,21.364,28.061,21.364,28.061
	s6.878-7.576,16.581-9.566c12.436-2.551,21.364,5.421,21.364,5.421s1.544-11.057,4.464-12.755c5.745-3.34,26.147,4.783,26.147,4.783
	l1.276,5.421c0,0-12.367-2.474-27.104,5.421c-8.928,4.783-11.16,13.711-11.16,13.711s7.866-1.454,10.523-1.594
	c8.493-0.448,25.75,1.16,33.79,3.933c6.891,2.377,24.882,15.199,24.882,15.199l3.189,3.508l0.957-6.377l-2.87-9.188
	c0,0,12.514-0.466,16.581,0.339c3.188,0.631,14.987,5.023,14.987,5.023s1.224-8.573,2.87-11.16
	C1025.8,425.682,1030.971,419.191,1030.971,419.191z"/>
<radialGradient id="SVGID_1_" cx="1182.0217" cy="295.2235" r="7.0158" gradientUnits="userSpaceOnUse">
	<stop  offset="0.1174" style="stop-color:#DDDABF"/>
	<stop  offset="1" style="stop-color:#FFFFFF;stop-opacity:0"/>
</radialGradient>
<path fill="url(#SVGID_1_)" d="M1181.85,287.563c0,0-0.917,4.609-1.761,5.423c-1.078,1.041-4.374,2.019-4.374,2.019
	s3.415,1.121,4.484,2.335c0.896,1.018,2.055,5.543,2.055,5.543s1.023-4.599,1.9-5.664c0.881-1.07,4.172-2.588,4.172-2.588
	s-3.397-0.789-4.391-1.744C1183.048,292.035,1181.85,287.563,1181.85,287.563z"/>
<linearGradient id="SVGID_2_" gradientUnits="userSpaceOnUse" x1="10445.7139" y1="272.6404" x2="10531.6172" y2="272.6404" gradientTransform="matrix(-1 0 0 1 10758.5527 0)">
	<stop  offset="0" style="stop-color:#EBF7FD"/>
	<stop  offset="1" style="stop-color:#FFF25D"/>
</linearGradient>
<path opacity="0.2" fill="url(#SVGID_2_)" d="M284.083,272.618c0,0,0.006,0.011,0.011,0.021c0.015,0.008,0.029,0.016,0.043,0.025
	C284.12,272.648,284.1,272.633,284.083,272.618z"/>
<path opacity="0.9" fill="#F3EEEC" d="M1076.898,370.963c0,0-4.308-12.751-7.93-14.928c-3.698-2.223-13.242-1.573-17.26,0
	c-7.839,3.068-29.78,9.419-30.181,17.828c-0.536,11.258,7.093,15.247,8.935,16.619c6.601,4.917,20.25,4.855,28.235,2.859
	c5.004-1.251,10.271-5.118,10.271-5.118s3.719,2.702,5.131,3.265c19.444,7.75,33.204-0.292,33.204-0.292s5.342,3.628,15.726,2.144
	c3.753-0.536,7.497-3.974,7.982-5.585c0.71-2.356-3.005-7.159-5.131-8.397c-3.126-1.82-14.461-0.466-14.461-0.466
	s-5.092-10.253-8.397-11.662C1091.756,362.426,1076.898,370.963,1076.898,370.963z"/>
<path opacity="0.9" fill="#F3EEEC" d="M595.669,195.414c-8.32,5.188-26.504,12.924-35.831,15.95
	c-10.113,3.282-31.112,7.108-41.607,8.812c-20.455,3.321-61.638,9.305-82.361,9.365c-9.1,0.026-27.258-2.157-36.189-3.902
	c-2.734-0.534-11.452-3.155-11.452-3.155s-0.789-2.531-0.347-3.305c2.397-4.195,18.847-4.28,18.847-4.28s-0.379-5.869,6.052-9.173
	c11.744-6.034,17.318-8.283,17.318-8.283s-7.793-20.469,14.191-41.475c4.361-4.167,16.115-9.737,22.145-9.577
	c6.212,0.165,18.039,6.502,22.257,11.066c2.756,2.982,6.865,11.087,6.066,15.068c-0.277,1.381-3.958,4.011-3.958,4.011
	s12.798,14.733,12.896,10.566c0.134-5.721,12.38-9.122,23.981-7.633c11.494,1.476,16.852,11.333,16.852,11.333
	s0.598-5.599,10.679-6.41c7.3-0.587,11.998,8.642,11.998,8.642s8.966-3.092,12.073-3.611c3.527-0.589,10.741-1.001,14.291-0.577
	c1.915,0.229,7.017,0.234,7.417,2.121C601.345,192.664,597.139,194.498,595.669,195.414z"/>
<path opacity="0.9" fill="#E0DAE0" d="M388.969,222.576c-0.523-0.057-1.05,0.802-1.086-3.396c-0.031-3.609,18.847-4.28,18.847-4.28
	s-0.379-5.869,6.052-9.173c11.744-6.034,17.318-8.283,17.318-8.283s-7.793-20.469,14.191-41.475
	c4.361-4.167,16.115-9.737,22.145-9.577c6.212,0.165,18.039,6.502,22.257,11.066c0,0-4.017-1.954-5.409-2.477
	c-2.122-0.797-6.424-2.662-8.689-2.587c-10.003,0.328-13.716,5.205-15.008,6.92c-8.257,10.962-13.952,43.395-13.952,43.395
	s-7.689-0.24-16.384,5.738c-6.108,4.2-11.495,11.662-11.495,11.662s-19.114-2.763-22.79-2.196c-4.519,0.696-4.948,1.309-5.511,1.887
	C388.963,220.305,388.969,222.576,388.969,222.576z"/>
<path fill="#E0DAE0" d="M1131.011,387.541c1.085-2.208-3.005-7.159-5.131-8.397c-3.126-1.82-14.461-0.466-14.461-0.466
	s-5.091-10.255-8.397-11.662c-6.07-2.584-26.123,3.732-26.123,3.732s-4.308-12.751-7.93-14.928
	c-3.698-2.223-15.871-0.43-19.889,1.143c0,0,15.472,2.117,17.868,4.36c2.086,1.953,4.602,6.097,3.887,8.863
	c-0.886,3.432-1.399,6.686-1.399,6.686s5.376-2.74,7.308-3.254c2.983-0.795,9.255-1.849,12.284-1.255
	c2.679,0.525,7.652,3.261,9.641,5.131c1.462,1.375,2.488,6.22,2.488,6.22s6.058-1.594,7.619-2.021
	c1.321-0.362,4.076-0.712,5.442-0.622c1.919,0.126,8.288,0.279,9.952,1.244c1.118,0.649,2.82,2.006,3.11,3.265
	c0.257,1.114-0.609,5.442-0.609,5.442S1129.301,391.022,1131.011,387.541z"/>
<path opacity="0.3" fill="#FCFDFF" d="M802.391,809.85c0,0,42.429-12.913,65.795,19.062c9.395,12.857,8.442,44.552,8.442,44.552
	s19.214,6.642,23.367,11.683c1.826,2.217,4.377,8.509,3.075,11.068c-1.786,3.512-48.043,36.735-120.072,40.405
	c-153.485,7.82-315.074-4.636-385.323-11.169c-23.437-2.18-88.906-14.687-95.204-33.819c-3.98-12.091,33.791-19.609,45.503-24.596
	c18.139-7.724,59.989-11.106,78.708-4.919c6.111,2.02,19.677,16.603,19.677,16.603s18.899-10.189,25.826-11.683
	c4.358-0.94,17.832,0,17.832,0s8.77-35.34,17.832-42.429c13.358-10.449,67.025-10.453,67.025-10.453s6.045-22.313,11.683-27.056
	c4.537-3.816,23.059-5.534,23.059-5.534l8.916-4.304c0,0-20.907-33.82,7.994-49.808c7.936-4.39,27.671-2.46,27.671-2.46
	s21.517-17.313,39.969-22.137c27.671-7.234,82.398-5.279,103.92,55.957C810.472,794.052,802.391,809.85,802.391,809.85z"/>
<path opacity="0.3" fill="#FCFDFF" d="M426.589,862.117c6.111,2.02,19.677,16.603,19.677,16.603s18.992-10.189,25.919-11.683
	c4.358-0.94,17.74,0,17.74,0s8.77-35.34,17.832-42.429c13.358-10.449,67.025-10.453,67.025-10.453s6.045-22.313,11.683-27.056
	c4.537-3.816,23.059-5.534,23.059-5.534l8.916-4.304c0,0-20.907-33.82,7.994-49.808c7.936-4.39,27.671-2.46,27.671-2.46
	s21.517-17.313,39.969-22.137c27.671-7.234,82.398-5.279,103.92,55.957c12.385,35.24,5.671,46.864,5.671,46.864
	s-5.043-26.918-9.114-36.411c-3.745-8.733-14.123-25.792-22.137-30.899c-13.157-8.387-46.353-15.88-61.337-11.53
	c-20.447,5.936-56.957,37.489-62.26,58.109c-0.67,2.607,1.845,10.607,1.845,10.607s15.68-7.379,32.744-3.228
	c26.198,6.373,33.205,22.598,33.205,22.598s-28.132-5.534-52.114,1.845c-31.192,9.598-30.899,40.584-30.899,40.584
	s-9.947-10.957-23.981-13.835c-17.986-3.689-30.899,7.84-30.899,7.84s-2.232-15.992-6.457-18.447
	c-8.309-4.83-37.817,6.918-37.817,6.918l-1.845,7.84c0,0,17.886-3.578,39.2,7.84c12.913,6.918,16.141,19.831,16.141,19.831
	s-11.376-2.103-15.219-2.306c-12.283-0.648-37.243,1.677-48.871,5.688c-9.966,3.437-35.987,21.983-35.987,21.983l-4.612,5.073
	l-1.384-9.224l4.151-13.289c0,0-18.099-0.674-23.981,0.49c-4.61,0.912-21.676,7.264-21.676,7.264s-1.77-12.399-4.151-16.141
	C434.068,871.505,426.589,862.117,426.589,862.117z"/>
<path fill="#F3EEEC" d="M722.565,774.669c14.145,3.583,43.427,6.306,58.019,6.368c15.823,0.068,47.323-4.026,62.972-6.368
	c30.5-4.564,91.589-14.749,120.991-24.057c12.911-4.087,37.66-15.413,49.528-21.934c3.633-1.996,14.803-9.662,14.803-9.662
	s-0.028-3.945-1.006-4.842c-5.299-4.861-28.656,2.476-28.656,2.476s-2.123-8.491-12.736-10.259
	c-19.382-3.23-28.302-3.892-28.302-3.892s1.769-32.547-38.915-52.359c-8.07-3.93-27.257-6.498-35.731-3.538
	c-8.73,3.05-22.623,17.394-26.533,25.774c-2.555,5.476-4.706,18.827-1.769,24.108c1.019,1.832,7.429,3.892,7.429,3.892
	s-11.464,26.684-13.49,20.822c-2.783-8.049-21.683-7.319-37.453,0.05c-15.624,7.301-18.75,23.703-18.75,23.703
	s-3.385-7.665-18.042-4.245c-10.613,2.476-13.09,17.689-13.09,17.689s-14.11-0.319-18.75,0.354
	c-5.266,0.764-15.679,3.449-20.519,5.66c-2.61,1.193-9.84,3.512-9.552,6.368C713.271,773.343,720.065,774.036,722.565,774.669z"/>
<path fill="#E0DAE0" d="M1027.872,719.48c0.715-0.317,1.852,0.66,0-5.307c-1.592-5.13-28.656,2.476-28.656,2.476
	s-2.123-8.491-12.736-10.259c-19.382-3.23-28.302-3.892-28.302-3.892s1.769-32.547-38.915-52.359
	c-8.07-3.93-27.257-6.498-35.731-3.538c-8.73,3.05-22.623,17.394-26.533,25.774c0,0,4.808-4.59,6.545-5.962
	c2.646-2.092,7.899-6.685,11.144-7.606c14.328-4.068,21.802,1.162,24.41,3.007c16.673,11.796,39.446,55.189,39.446,55.189
	s10.79-3.826,25.826,0.708c10.561,3.184,21.58,11.321,21.58,11.321s25.841-12.58,31.309-13.443c6.722-1.061,7.607-0.387,8.667,0.177
	C1026.852,716.258,1027.872,719.48,1027.872,719.48z"/>
<path opacity="0.87" fill="#F3EEEC" d="M1238.592,284.574c0,0,16.354-4.977,25.361,7.348c3.621,4.956,5.451,23.939,5.451,23.939
	s7.406,2.56,9.007,4.503c0.704,0.854,1.687,3.28,1.185,4.266c-0.688,1.354-18.518,14.16-46.282,15.574
	c-59.161,3.014-125.499-14.004-152.577-16.522c-9.034-0.84-32.414-0.21-34.842-7.585c-1.534-4.661,13.025-7.558,17.539-9.481
	c6.992-2.977,23.123-4.281,30.338-1.896c2.356,0.779,7.585,6.4,7.585,6.4s7.285-3.928,9.955-4.503c1.68-0.362,6.874,0,6.874,0
	s3.38-13.622,6.874-16.354c5.149-4.028,25.835-4.029,25.835-4.029s2.33-8.601,4.503-10.429c1.749-1.471,8.888-2.133,8.888-2.133
	l3.437-1.659c0,0-8.059-13.036,3.081-19.199c3.059-1.692,10.666-0.948,10.666-0.948s8.294-6.673,15.406-8.533
	c10.666-2.788,31.761-2.035,40.056,21.569C1241.707,278.484,1238.592,284.574,1238.592,284.574z"/>
<path opacity="0.9" fill="#E0DAE0" d="M1093.327,304.72c2.356,0.779,7.585,6.4,7.585,6.4s7.32-3.928,9.99-4.503
	c1.68-0.362,6.838,0,6.838,0s3.38-13.622,6.874-16.354c5.149-4.028,25.835-4.029,25.835-4.029s2.33-8.601,4.503-10.429
	c1.749-1.471,8.888-2.133,8.888-2.133l3.437-1.659c0,0-8.059-13.036,3.081-19.199c3.059-1.692,10.666-0.948,10.666-0.948
	s8.294-6.673,15.406-8.533c10.666-2.788,32.048-2.248,40.462,21.314c4.939,13.832,1.707,19.905,1.707,19.905
	s-1.87-11.961-3.44-15.621c-1.444-3.366-5.444-9.941-8.533-11.91c-5.072-3.233-17.867-6.121-23.643-4.444
	c-7.881,2.288-21.954,14.45-23.998,22.398c-0.258,1.005,0.711,4.089,0.711,4.089s6.044-2.844,12.621-1.244
	c10.098,2.456,12.799,8.71,12.799,8.71s-10.844-2.133-20.087,0.711c-12.023,3.699-11.91,15.643-11.91,15.643
	s-3.834-4.223-9.244-5.333c-6.933-1.422-11.91,3.022-11.91,3.022s-0.86-6.164-2.489-7.111c-3.203-1.862-14.577,2.666-14.577,2.666
	l-0.711,3.022c0,0,6.894-1.379,15.11,3.022c4.977,2.666,6.222,7.644,6.222,7.644s-4.385-0.811-5.866-0.889
	c-4.735-0.25-14.355,0.647-18.837,2.192c-3.842,1.325-13.871,8.473-13.871,8.473l-1.778,1.955l-0.533-3.555l1.6-5.122
	c0,0-6.976-0.26-9.244,0.189c-1.777,0.352-8.355,2.8-8.355,2.8s-0.682-4.779-1.6-6.222
	C1096.21,308.339,1093.327,304.72,1093.327,304.72z"/>
</svg>
