<?xml version="1.0" encoding="utf-8"?>
<!-- Generator: Adobe Illustrator 17.0.0, SVG Export Plug-In . SVG Version: 6.00 Build 0)  -->
<!DOCTYPE svg PUBLIC "-//W3C//DTD SVG 1.1//EN" "http://www.w3.org/Graphics/SVG/1.1/DTD/svg11.dtd">
<svg version="1.1" id="Layer_1" xmlns="http://www.w3.org/2000/svg" xmlns:xlink="http://www.w3.org/1999/xlink" x="0px" y="0px"
	 width="1280px" height="652.2px" viewBox="0 0 1280 652.2" enable-background="new 0 0 1280 652.2" xml:space="preserve">
<linearGradient id="SVGID_1_" gradientUnits="userSpaceOnUse" x1="640" y1="653" x2="640" y2="3.493837e-05">
	<stop  offset="0" style="stop-color:#43BEAD"/>
	<stop  offset="0.3305" style="stop-color:#53C2B8"/>
	<stop  offset="0.482" style="stop-color:#5BC4BF"/>
	<stop  offset="0.8395" style="stop-color:#9BD9E2"/>
	<stop  offset="0.9842" style="stop-color:#D4ECE4"/>
</linearGradient>
<path fill="url(#SVGID_1_)" d="M-1,91.4c0,0,75.9-2.7,115.6-24c3.4-1.8,10.3-6.3,11.9-9.7c1-2.2-1.7-8,0-9.7c2.5-2.5,10.7-1,14.1,0
	c4.3,1.3,12.1,6.4,15.2,9.7c1.6,1.7,2.8,6.4,4.3,8.1c3.7,3.9,13.2,9.9,18.4,11.4c2.3,0.7,7.3,0.1,9.7,0c3.3-0.1,9.8-0.6,13-1.1
	c5.8-0.9,16.9-4.7,22.7-5.4c4.8-0.6,15.1,2,19.5,0c1.5-0.7,2.7-4.5,4.3-4.9c3.1-0.7,10.1,2.2,11.9,4.9c0.5,0.7-0.9,19.4-0.6,9.3
	c0.1-2.5,8.8-6.3,10.4-8.2c0.9-1.2-0.8-4.7,0-6c2.4-3.9,11.8-7.1,16.2-8.1c4.2-1,13.1,0.8,17.3,0c3.1-0.5,9.1-2.9,11.9-4.3
	c2.3-1.1,6.7-3.8,8.7-5.4c3.3-2.6,8.8-9.1,11.9-11.9c2.3-2,7.6-5.4,9.7-7.6c1.9-2,4.5-7.2,6.5-9.1c2.8-2.6,11.1-4.8,13-8.2
	c1.2-2.1-1.7-8,0-9.7c1.9-1.9,8.7-1.6,10.8,0c3.1,2.3,4.5,22.8,4.5,22.8s8.7-5.3,11.7-4.9c1.9,0.2,6.2-1.3,7.6,0
	c2.2,2.2-1.8,9.9,0,12.4c2.2,3,10.4,3.8,14.1,4.3c2.4,0.4,7.4-0.7,9.7,0c3,0.8,8.2,4.7,10.8,6.5c5.1,3.5,14.5,11.6,19.5,15.2
	c3.2,2.3,9.3,7.3,13,8.7c2.3,0.8,7.4,0.3,9.7,1.1c5.3,1.7,14.4,8.5,19.5,10.8c3.4,1.6,10.4,4.7,14.1,5.4c2.7,0.5,8.3-0.9,10.8,0
	c5.5,1.9,12.9,12.2,18.4,14.1c2.8,1,8.9,0,11.9,0c4.6,0,14.1,1.6,18.4,0c2.7-1,6.7-5.5,8.7-7.6c4.9-5.2,11.5-18.6,17.3-22.7
	c4.9-3.5,17.3-5,22.7-7.6c2.3-1.1,6.1-5.8,8.7-5.4c2.8,0.4,5.3,6.9,7.6,8.7c3.6,2.7,12.1,5.8,16.2,7.6c2.1,0.9,6.5,2.4,8.7,3.2
	c3.6,1.5,10.5,5.1,14.1,6.5c2.6,1,8.3,2,10.8,3.2c3.3,1.6,8.7,6.9,11.9,8.7c3.3,1.8,10.3,5.9,14.1,5.4c6-0.8,14.1-11.4,19.5-14.1
	c2.5-1.3,8-3.5,10.8-3.2c3,0.3,7.9,4.9,10.8,5.4c2.7,0.5,8.2-0.5,10.8-1.1c3.9-0.9,11.3-4.3,15.2-5.4c3.7-1.1,11.7-1.6,15.2-3.2
	c5-2.4,13.1-10.4,17.3-14.1c3.4-3,8.6-11.6,13-12.5c3.8-0.7,10.7,4.2,14.1,6c2.8,1.4,7.9,5.3,10.8,6.5c2.3,0.9,7.3,2.2,9.7,2.2
	c2.2,0,6.4-2.2,8.7-2.2c3.3,0,9.8,2.3,13,3.2c2.5,0.7,7.4,2.3,9.7,3.2c1.7,0.7,4.7,3.2,6.5,3.2c3.3,0.1,9.3-3.4,11.9-5.4
	c4.2-3.3,8.6-13.8,13-16.8c6.5-4.5,22.5-8,30.3-9.2c4-0.6,12.3-1.1,16.2,0c4.3,1.2,10.9,8,15.2,9.2c1.6,0.4,5,0.5,6.5,0
	c1.9-0.6,4.7-4,6.5-4.9c1.8-0.9,5.8-1.4,7.6-2.2c4.1-1.9,11.7-6.9,15.2-9.7c2.4-1.9,6.2-6.8,8.7-8.7c3.2-2.5,10.2-7,14.1-8
	c1.8-0.5,5.7-0.5,7.6,0c4.2,1,11,7,15.2,8c1.8,0.5,5.7-0.1,7.6,0c4.1,0.1,12.3,0.1,16.2,1.1c3.2,0.8,8.9,4.2,11.9,5.4
	c4.2,1.6,13.1,3.8,17.3,5.4c1.9,0.7,5.8,2.3,7.6,3.2c4.3,2.2,11.6,9,16.2,10.3c1,0.3,3.3,0.3,4.3,0c4-1.2,10.8-6.6,14.1-9.2
	c4.1-3.2,10.9-11.2,15.2-14.1c5-3.3,17-6.5,21.7-10.2c3.7-2.9,14.1-11.6,18.8-11.4c16.5,0.7,15,43.7,34.5,70
	c13.4,18,32,16.8,32,16.8V653H-1V91.4z"/>
</svg>
