<?xml version="1.0" encoding="utf-8"?>
<!-- Generator: Adobe Illustrator 17.0.0, SVG Export Plug-In . SVG Version: 6.00 Build 0)  -->
<!DOCTYPE svg PUBLIC "-//W3C//DTD SVG 1.1//EN" "http://www.w3.org/Graphics/SVG/1.1/DTD/svg11.dtd">
<svg version="1.1" id="Layer_1" xmlns="http://www.w3.org/2000/svg" xmlns:xlink="http://www.w3.org/1999/xlink" x="0px" y="0px"
	 width="1181.6px" height="251.2px" viewBox="0 0 1181.6 251.2" enable-background="new 0 0 1181.6 251.2" xml:space="preserve">
<path opacity="0.9" fill="#F4EFED" enable-background="new    " d="M978.8,128.8c0,0-4.3-12.8-7.9-14.9c-3.7-2.2-13.2-1.6-17.3,0
	c-7.8,3.1-29.8,9.4-30.2,17.8c-0.5,11.3,7.1,15.2,8.9,16.6c6.6,4.9,20.2,4.9,28.2,2.9c5-1.3,10.3-5.1,10.3-5.1s3.7,2.7,5.1,3.3
	c19.4,7.7,33.2-0.3,33.2-0.3s5.3,3.6,15.7,2.1c3.8-0.5,7.5-4,8-5.6c0.7-2.4-3-7.2-5.1-8.4c-3.1-1.8-14.5-0.5-14.5-0.5
	s-5.1-10.3-8.4-11.7C993.6,120.3,978.8,128.8,978.8,128.8z"/>
<path fill="#E1DBE1" d="M1033,145.6c0.8-2.3-3.1-7.4-5.2-8.6c-3.1-1.8-14.5-0.5-14.5-0.5s-5-10.4-8.4-11.7
	c-11.3-4.1-26.1,3.7-26.1,3.7s-4.3-12.8-7.9-14.9c-5.8-3.4-15.9-0.4-19.9,1.1c0,0,15.5,2.1,17.9,4.4c2.1,2,4.6,6.1,3.9,8.9
	c-0.9,3.4-1.4,6.7-1.4,6.7s5.4-2.7,7.3-3.3c3-0.8,9.3-1.8,12.3-1.3c2.7,0.5,7.7,3.3,9.6,5.1c1.5,1.4,2.5,6.2,2.5,6.2s6.1-1.6,7.6-2
	c1.3-0.4,4.1-0.7,5.4-0.6c1.9,0.1,8.3,0.3,10,1.2c1.1,0.6,2.8,2,3.1,3.3c0.9,3.9,0.4,3.4-0.2,6.2
	C1028.9,149.6,1032.1,148.2,1033,145.6z"/>
<path opacity="0.87" fill="#F4EFED" enable-background="new    " d="M1140.5,42.4c0,0,16.4-5,25.4,7.3c3.6,5,5.5,23.9,5.5,23.9
	s7.4,2.6,9,4.5c0.7,0.9,1.7,3.3,1.2,4.3c-0.7,1.4-18.5,14.2-46.3,15.6c-59.2,3-125.5-14-152.6-16.5c-9-0.8-32.4-0.2-34.8-7.6
	c-1.5-4.7,13-7.6,17.5-9.5c7-3,23.1-4.3,30.3-1.9c2.4,0.8,7.6,6.4,7.6,6.4s7.3-3.9,10-4.5c1.7-0.4,6.9,0,6.9,0s3.4-13.6,6.9-16.4
	c5.1-4,25.8-4,25.8-4s2.3-8.6,4.5-10.4c1.7-1.5,8.9-2.1,8.9-2.1l3.4-1.7c0,0-8.1-13,3.1-19.2c3.1-1.7,10.7-0.9,10.7-0.9
	s8.3-6.7,15.4-8.5c10.7-2.8,31.8-2,40.1,21.6C1143.6,36.3,1140.5,42.4,1140.5,42.4z"/>
<path opacity="0.9" fill="#E1DBE1" enable-background="new    " d="M995.7,62.6c2.4,0.8,7.5,6.1,7.5,6.1s6.9-3.7,9.6-4.3
	c1.7-0.4,6.8,0,6.8,0s3.4-13.6,6.9-16.4c5.1-4,25.8-4,25.8-4s2.3-8.6,4.5-10.4c1.7-1.5,8.9-2.1,8.9-2.1l3.4-1.7c0,0-8.1-13,3.1-19.2
	c3.1-1.7,10.7-0.9,10.7-0.9s8.3-6.7,15.4-8.5c10.7-2.8,32-2.2,40.5,21.3c4.9,13.8,1.7,19.9,1.7,19.9s-1.9-12-3.4-15.6
	c-1.4-3.4-5.4-9.9-8.5-11.9c-5.1-3.2-17.9-6.1-23.6-4.4c-7.9,2.3-22,14.5-24,22.4c-0.3,1,0.7,4.1,0.7,4.1s6-2.8,12.6-1.2
	c10.1,2.5,12.8,8.7,12.8,8.7s-10.8-2.1-20.1,0.7c-12,3.7-11.9,15.6-11.9,15.6s-3.8-4.2-9.2-5.3c-6.9-1.4-11.9,3-11.9,3
	s-0.9-6.2-2.5-7.1c-3.2-1.9-14.6,2.7-14.6,2.7l-0.7,3c0,0,6.9-1.4,15.1,3c5,2.7,6.2,7.6,6.2,7.6s-4.4-0.8-5.9-0.9
	c-4.7-0.2-14.4,0.6-18.8,2.2c-3.8,1.3-13.9,8.5-13.9,8.5l-1.8,2l-0.5-3.6l1.6-5.1c0,0-7-0.3-9.2,0.2c-1.8,0.4-8.4,2.8-8.4,2.8
	s-0.7-4.8-1.6-6.2C998.1,66.2,995.7,62.6,995.7,62.6z"/>
<path opacity="0.9" fill="#F4EFED" enable-background="new    " d="M27.5,136.8c0,0-6.8,1-10.8-1.1c-1-0.5-2.6-0.7-3.2-4.4
	c-0.1-0.5,1.8-0.9,1.8-0.9s-2.9-1.4-4.7-5.1c-2.4-5,1.1-6.8,1.1-6.8s-8.2-5.3-9.9-8c-1-1.6-2.5-4.4-1.5-6.1c0.8-1.4,6.1-1.6,6.1-1.6
	s-2.3-9-1.5-11.5c0.9-2.7,5.4-6.3,8-7.3c4.2-1.7,13,0.1,17.4,1.2c3.8,1,11.2,3,13.7,6c0.9,1.1,2.3,6.1,2.3,6.1s5.4-2.6,8.7,0.9
	c1.1,1.1,1.4,6,1.4,6s4.2,0.5,5.3,0c1.9-1,4.8-4.1,6.8-5c3.2-1.3,9-2.5,12.4-1.9c4.1,0.7,15.3,7.2,15.3,7.2s2.2-2.4,6.8-1.7
	c1.2,0.2,4.6,1.1,5.2,2.2c0.7,1.2,0.6,4.1-0.1,5.3c-1.2,1.9-6.8,2.4-7.8,4.4c-0.5,1-2.5,2.9-2.5,2.9s4.1-2.8,5.1-3.2
	c2.4-1,3.6,0.3,4.4-0.3c1.8-1.4,4.9-2.1,7.1-1.5c0.8,0.2,3.4,2.4,3.4,2.4s3.2-1.5,6.9-1.5c7.3,0,7,3.3,7,3.3s2.9-1.7,4-2
	c1.6-0.5,5.2-1.6,6.5-0.6c0.5,0.3,0.6,2.3,0.6,2.3s5.9-3.5,8.1-3.2c1.4,0.1,4.4,1.7,4.7,3.1c0.3,1.2-1.2,3.6-2.2,4.3
	c-2,1.6-7.8,1.3-10,2.5c-0.8,0.4-4.4,2.3-4.4,2.3s3,2.1,2.7,2.7c-0.7,1.7-4.8,2.8-6.5,3.4c-5.6,1.8-23.4,3.1-23.4,3.1
	s1.3,4.1,0.6,5.2c-1.8,3.1-13.3,5.4-13.3,5.4s-9.3,2-18.1,0.6c-5.8-0.9-28.3-8.7-42.1-7.7C32.6,138.5,27.5,136.8,27.5,136.8z"/>
<path fill="#E1DBE1" d="M46.3,97.3c0,0,5.4-2.6,8.7,0.9c1.1,1.1,1.4,6,1.4,6s4.2,0.5,5.3,0c1.9-1,4.8-4.1,6.8-5
	c3.2-1.3,9-2.5,12.4-1.9c4.1,0.7,15.3,7.2,15.3,7.2s2.2-2.4,6.8-1.7c0,0-4.5,1.3-5.8,2.1c-0.4,0.2-1.3,1.3-1.3,1.3s-1-1.2-5.6-2.4
	c-3-0.8-6.1,0.4-6.1,0.4s-3.8-3.8-5.5-4c-2.3-0.3-7.5,1.2-9.7,2.1c-1.4,0.6-4.8,4.4-6.4,4.9c-1,0.3-4.4,1.6-5.5,1.9
	c-0.7,0.2-4.6,2.5-4.6,2.5s1.8-4,2.1-5.4c0.3-1.1,0.4-3.3,0.2-4.4c-0.3-1-0.4-2.1-3-3.2c-4.7-1.9-6.9,0.1-6.9,0.1L46.3,97.3
	L46.3,97.3z"/>
<path opacity="0.9" fill="#F4EFED" enable-background="new    " d="M124.3,168.2c7.2,10.4,51.4,5.2,51.4,5.2s7.1,0.8,18.1-1
	c0.6-0.1,20.1-3.8,20.1-3.8s-2.7,0.9-3.6,1.3c-4.3,1.7-15.5,5-15.5,5s-6,2.3-6.5,4.1c-0.3,1.1,1.4,3.2,2.4,3.8
	c8.7,4.9,29.9,1.5,39.8,0.7c9.2-0.7,28-2.7,36.4-6.6c3.9-1.8,12.6-6.6,13.4-10.8c0.1-0.7-0.8-2-1.4-2.3c-3.7-1.8-16.3,2.3-16.3,2.3
	s9.6-8.6,10.9-12.5c0.9-2.8,1.2-11-1.4-12.3c-10.6-5.4-18.9-2.9-22.7,1.5c-0.6,0.8-3.5-8.1-5.8-9.8c-2.5-1.8-7-3.3-9.8-1.9
	c-1.3,0.6-5.5,3.4-5.5,3.4s-5.2-3.4-8.5-3.9c-9.5-1.5-12.2,0.9-16.6,2.7c-4.6,1.9-16.7,11-16.7,11s-7.4-1.3-14.3-0.6
	c-17.5,1.8-14.9,9.8-14.9,9.8s-9.7-1-12.9-0.7c-10.3,1-14.1,3.8-17.3,7.2C125.6,161.6,123.1,166.4,124.3,168.2z"/>
<path opacity="0.9" fill="#E1DBE1" enable-background="new    " d="M270.2,140.4c-8.8-4.4-17.1-2.1-20.9,2.3
	c-0.6,0.8-3.5-8.1-5.8-9.8c-2.5-1.8-7-3.3-9.8-1.9c-1.3,0.6-5.5,3.4-5.5,3.4s-5.2-3.4-8.5-3.9c-9.5-1.5-12.2,0.9-16.6,2.7
	c-4.6,1.9-16.7,11-16.7,11s-7.4-1.3-14.3-0.6c-17.5,1.8-14.9,9.8-14.9,9.8s-9.7-1-12.9-0.7c-10.3,1-14.1,3.8-17.3,7.2
	c-1.5,1.6-4,6.5-2.7,8.2c0,0,4.8-10.6,13.5-12c5.3-0.9,15.5,0.2,20.7,1.4c0.7,0.2,2.4,1.3,2.4,1.3s-0.4-2.4,0-3.1
	c1.3-2.2,6.4-4,8.8-5c4.1-1.7,12.7-4.7,17.2-4.5c0.8,0,2.9,1,2.9,1s2.8-3.5,4-4.5c4.3-3.4,13.9-9.7,19.4-10.5
	c3.5-0.5,10.9,0.9,13.7,2.9c0.6,0.4,1.5,2.6,1.5,2.6s3.1-3.6,4.6-4c1.8-0.4,5.8,0.9,7,2.2c1.9,2.2,2.2,11.3,2.2,11.3
	s5.2-2.4,6.9-3.3c1.8-1,5-3.8,7-4.3C260.1,139.1,270.2,140.4,270.2,140.4z"/>
<path opacity="0.9" fill="#F4EFED" enable-background="new    " d="M779.9,187.7c-0.2-1-7.4-7-15.9-7c-4,0-5.6,2.5-5.6,2.5l-0.9,2.5
	c0,0-5.5-1.5-7.4-1.6c-1.8-0.1-7.2,1.1-7.2,1.1h-1.2c0,0,1.8-4.8,1.2-6.2s-5-3.6-5-3.6s1-7.6-1.4-12.7c-6.1-13.1-10.2-15-15.4-18
	c-5.9-3.4-14.4-3.4-14.4-3.4s0.7-3.5,0-4.3c-1.1-1.4-5.2-1.9-7-1.7c-3.3,0.4-12,6-12,6s-0.1-5.5-4.1-6.7c-7.6-2.1-9.7,2.5-10.2,4.5
	c-1.1,4.2-1.1,5.8-1.1,5.8s-8.9-5.3-20.4-0.2c-10.6,4.7-9.8,18.5-9.8,18.5s-9.7-2.2-15.1,6.7c-4.8,7.9-1,13.4,0,17.8
	c0.3,1.1,0,4.6,0,4.6s-12.4-0.4-16.6,0c-4.9,0.5-14.7,2-19.2,3.8c-3.8,1.5-13.9,8.9-13.9,8.9s-5.3-3.7-15.6,0
	c-2.6,0.9-6.7,4.7-8.9,6.2c-1.1,0.8-3.3,2.6-4.6,3.1c-3.4,1.5-11.3,2.1-14.3,4.3c-1.1,0.8-3.1,2.4-2.5,3.6c1.4,3.2,9.8,3.8,13.2,4.3
	c3.6,0.6,14.6,0,14.6,0s31.3,6.8,40.8,3.1c1.2-0.5,2.4-3.2,3.6-3.8c11.5-6,40.2,5.4,52,0c0.8-0.4,2.6-1.8,2.3-2.6
	c-1.3-3.7-11.7-1.9-15.6-2.6c-3.1-0.6-12.5-2.6-12.5-2.6s2.2-2.3,3.1-2.6c4.3-1.6,13.1-1.6,17.7-1.7c24.3-0.5,89.7-2.3,97.5-4.6
	c4.4-1.3,11.3-6.3,14.2-9.8c1.4-1.6,4.6-7.2,4.6-7.2s2.3-0.5,3.1-0.5c2.1,0,6.6,0.8,8.4-0.2C779.3,190.9,780.1,188.7,779.9,187.7z"
	/>
<path opacity="0.9" fill="#E1DBE1" enable-background="new    " d="M561.6,205c10.3-3.7,15.6,0,15.6,0s10.1-7.3,13.9-8.9
	c4.5-1.8,14.3-3.4,19.2-3.8c4.1-0.4,16.6,0,16.6,0s0.3-3.5,0-4.6c-1-4.3-4.8-9.8,0-17.8c5.4-9,15.1-6.7,15.1-6.7s-0.7-13.8,9.8-18.5
	c11.5-5.1,20.4,0.2,20.4,0.2s0-1.6,1.1-5.8c0.5-2,2.6-6.6,10.2-4.5c4,1.1,4.1,6.7,4.1,6.7s8.7-5.6,12-6c1.8-0.2,5.9,0.3,7,1.7
	c0,0-4.9-0.1-6.4,0.4c-1.9,0.6-5.3,2.9-7,4c-1.2,0.8-7.5,5.8-7.5,5.8s1.6-5-2.9-8c-1-0.7-2.1,0.4-2.9,1.3c-1.6,1.7-2.7,6.6-3,9
	c-0.2,1.1,0.2,4.3,0.2,4.3s-2.8-3.4-4-4.2c-1.4-0.9-4.6-2.5-6.2-2.4c-3.3,0.3-9.1,4.2-11.2,6.7c-2.3,2.8-4.4,10-5,13.6
	c-0.2,1.3-0.7,4.4,0.2,5.4c0.6,0.8,3.7,1.1,3.7,1.1s0.7-2.5,1.1-3.2c0.9-1.5,2.6-4.5,3.8-5.8c1.8-1.7,6.5-3.7,9-4.2
	c2-0.4,6.3-0.4,8.2,0.5c0.4,0.2,1.1,1.3,1.1,1.3s-2.9,1.5-3.7,2.2c-2,1.8-5.7,5.9-6.7,8.3c-1,2.3-1.2,7.5-1.3,10.1
	c0,0.6,0.2,2.6,0.2,2.6s-3-1.6-3.7-2.4c-1.4-1.6-1.7-6.8-3.7-7.5c-0.8-0.3-2.5,0.7-3.2,1.3c-1.8,1.5-4,5.7-4.8,7.8
	c-0.4,1.1-0.6,3.5-0.6,4.6c0,0.6,0.2,2.4,0.2,2.4s-1.4-0.9-1.8-1.3c-0.7-0.8-1.9-5.4-2.2-5.6c-1.7-0.9-5,3-6.4,4.3
	c-1.2,1-2.7,3.9-4,4.8c-1.6,1.2-5.4,3-7.4,2.9c-0.9-0.1-2.2-1.6-3-1.8c-4.5-1.1-14.1-0.1-18.6,1.1c-2.3,0.6-6.6,3.2-8.6,4.5
	c-2.6,1.6-7.4,5.5-10.1,6.9c-1.4,0.7-4.4,2-5.9,2.2c-1.5,0.3-4.4,0-5.9,0c-1.7,0-5.2-0.3-6.9,0c-2.7,0.5-7.8,2.7-10.3,3.6
	c-2.2,0.8-6.9,4.4-8.8,3c-0.8-0.6,0-3.8,0-3.8L561.6,205z"/>
</svg>
