<?xml version="1.0" encoding="utf-8"?>
<!-- Generator: Adobe Illustrator 17.0.0, SVG Export Plug-In . SVG Version: 6.00 Build 0)  -->
<!DOCTYPE svg PUBLIC "-//W3C//DTD SVG 1.1//EN" "http://www.w3.org/Graphics/SVG/1.1/DTD/svg11.dtd">
<svg version="1.1" id="Layer_1" xmlns="http://www.w3.org/2000/svg" xmlns:xlink="http://www.w3.org/1999/xlink" x="0px" y="0px"
	 width="1280px" height="553.736px" viewBox="0 0 1280 553.736" enable-background="new 0 0 1280 553.736" xml:space="preserve">
<g>
	<g opacity="0.2">
		
			<linearGradient id="SVGID_1_" gradientUnits="userSpaceOnUse" x1="-881.6477" y1="1367.0702" x2="-723.6521" y2="1367.0702" gradientTransform="matrix(0.9551 -0.2963 0.2963 0.9551 603.3198 -1322.5618)">
			<stop  offset="0.615" style="stop-color:#007C74"/>
			<stop  offset="0.6952" style="stop-color:#00867F"/>
			<stop  offset="0.8519" style="stop-color:#34A39C"/>
			<stop  offset="1" style="stop-color:#5BC4BF"/>
		</linearGradient>
		<path fill="url(#SVGID_1_)" d="M198.069,133.449c8.148,75.266-0.525,153.962,4.923,229.171c9.592-6.552,6.672-47.673,6.392-60.104
			c0.649-18.085-0.586-36.479-1.822-54.874c-1.938-23.542-6.519-49.84,9.262-68.148c22.476-28.433,48.834-61.646,61.186-96.774
			c0.563-1.069,1.941-2.39,2.504-3.459c-29.255,29.641-41.13,80.717-74.04,104.339c-4.808-15.498,2.17-39.123-9.725-51.528"/>
	</g>
	<g>
		
			<linearGradient id="SVGID_2_" gradientUnits="userSpaceOnUse" x1="-882.879" y1="1362.1309" x2="-724.8835" y2="1362.1309" gradientTransform="matrix(0.9551 -0.2963 0.2963 0.9551 603.3198 -1322.5618)">
			<stop  offset="0.8659" style="stop-color:#00A89A"/>
			<stop  offset="0.9278" style="stop-color:#2FB2A7"/>
			<stop  offset="1" style="stop-color:#5BC4BF"/>
		</linearGradient>
		<path fill="url(#SVGID_2_)" d="M195.43,129.096c8.148,75.266-0.525,153.962,4.923,229.171c9.592-6.552,6.672-47.673,6.392-60.104
			c0.649-18.085-0.586-36.479-1.822-54.874c-1.938-23.542-6.519-49.84,9.262-68.148c22.476-28.433,48.834-61.646,61.186-96.774
			c0.563-1.069,1.941-2.39,2.504-3.459c-29.255,29.641-41.13,80.717-74.04,104.339c-4.808-15.498,2.17-39.123-9.725-51.528"/>
	</g>
	<g opacity="0.2">
		
			<linearGradient id="SVGID_3_" gradientUnits="userSpaceOnUse" x1="-770.8969" y1="1244.5387" x2="-801.2224" y2="1342.2952" gradientTransform="matrix(0.9551 -0.2963 0.2963 0.9551 603.3198 -1322.5618)">
			<stop  offset="0.615" style="stop-color:#007C74"/>
			<stop  offset="0.6952" style="stop-color:#00867F"/>
			<stop  offset="0.8519" style="stop-color:#34A39C"/>
			<stop  offset="1" style="stop-color:#5BC4BF"/>
		</linearGradient>
		<path fill="url(#SVGID_3_)" d="M224.449,152.353c7.424,6.639,16.79,10.887,24.524,15.641c0.563-1.069,1.941-2.39,1.998-5.091
			c4.528,3.066,7.931,8.27,10.011,12.095c0.057-2.7,0.929-5.653,0.732-9.169c11.756,6.189,8.21,20.702,6.915,30.939
			c23.991,2.394,19.609-46.321,15.561-59.372c-5.82-18.761-21.484-31.785-41.144-34.628c0.506,1.631-0.057,2.7,0.45,4.331
			c-10.378-7.511-24.89-11.056-36.759-11.845c-12.122-1.605-29.138-1.691-19.943,10.657c4.724,6.582,13.893,7.314,19.49,10.943
			c4.528,3.066,2.277,7.341,10.321,10.211c10.181,3.995,21.91-1.432,32.091,2.563c-9.169-0.732-19.463,0.673-23.964,9.222
			c-9.252-9.648-13.867,4.302-7.145,5.793"/>
	</g>
	<g opacity="0.2">
		
			<linearGradient id="SVGID_4_" gradientUnits="userSpaceOnUse" x1="-784.0984" y1="1277.2809" x2="-758.5555" y2="1194.941" gradientTransform="matrix(0.9551 -0.2963 0.2963 0.9551 603.3198 -1322.5618)">
			<stop  offset="0.615" style="stop-color:#007C74"/>
			<stop  offset="0.6952" style="stop-color:#00867F"/>
			<stop  offset="0.8519" style="stop-color:#34A39C"/>
			<stop  offset="1" style="stop-color:#5BC4BF"/>
		</linearGradient>
		<path fill="url(#SVGID_4_)" d="M225.716,94.355c-18.168-9.565-34.732-31.252-41.367-49.76c6.582-4.724,15.525,6.808,21.937,10.184
			c-7.255-14.739,13.727-10.517,17.579-0.982c5.177-15.019,18.674,11.196,20.446,16.906c-0.956-5.963-10.291-24.527-3.513-25.736
			c11.11-1.658,18.391,24.697,18.784,31.728c1.015-22.669,11.955-16.227,19.716,0.143c3.093,7.088,4.552,40.614-8.919,26.015
			c5.483,9.029-4.727,19.35-8.666,26.831c-9.562-7.764-19.6-31.475-31.722-33.08"/>
	</g>
	<g opacity="0.4">
		<linearGradient id="SVGID_5_" gradientUnits="userSpaceOnUse" x1="164.6266" y1="152.4805" x2="164.6266" y2="90.7873">
			<stop  offset="0.615" style="stop-color:#007C74"/>
			<stop  offset="0.6952" style="stop-color:#00867F"/>
			<stop  offset="0.8519" style="stop-color:#34A39C"/>
			<stop  offset="1" style="stop-color:#5BC4BF"/>
		</linearGradient>
		<path fill="url(#SVGID_5_)" d="M194.689,119.492c-7.058-11.223-19.996-13.781-31.498-19.154
			c-7.228-3.123-16.284-9.255-24.384-9.425c-7.538-1.238-25.539,7.028-10.717,8.69c1.405,10.294,16.087,5.74,23.062,8.047
			c-24.724,6.775-6.386,8.24,2.051,18.142c-0.506-1.631-0.167-7.127-1.18-10.39c10.238,1.295,15.918,3.135,25.537,8.199
			c-5.457,2.587-19.773,2.557-20.758,10.91c-1.295,10.238,19.124,15.528,26.661,16.766c20.419,5.29,33.386-7.674,13.447-22.949"/>
	</g>
	<g>
		
			<linearGradient id="SVGID_6_" gradientUnits="userSpaceOnUse" x1="-855.9688" y1="1276.4689" x2="-837.6899" y2="1217.5458" gradientTransform="matrix(0.9551 -0.2963 0.2963 0.9551 603.3198 -1322.5618)">
			<stop  offset="0.5134" style="stop-color:#43BEAD"/>
			<stop  offset="0.651" style="stop-color:#53C2B8"/>
			<stop  offset="0.714" style="stop-color:#5BC4BF"/>
		</linearGradient>
		<path fill="url(#SVGID_6_)" d="M196.944,119.582c-7.058-11.223-22.893-16.147-34.396-21.52
			c-7.228-3.123-16.284-9.255-24.384-9.425c-7.538-1.238-25.539,7.028-10.717,8.69c1.405,10.294,16.087,5.74,23.062,8.047
			c-24.724,6.775-6.386,8.24,2.051,18.142c-0.506-1.631,0.366-4.584-0.646-7.847c10.238,1.295,15.385,0.592,25.003,5.656
			c-5.457,2.587-19.773,2.557-20.758,10.91c-1.295,10.238,19.124,15.528,26.661,16.766c20.419,5.29,33.386-7.674,13.447-22.949"/>
	</g>
	<g>
		
			<linearGradient id="SVGID_7_" gradientUnits="userSpaceOnUse" x1="-771.2194" y1="1240.3162" x2="-801.5448" y2="1338.0726" gradientTransform="matrix(0.9551 -0.2963 0.2963 0.9551 603.3198 -1322.5618)">
			<stop  offset="0.0406" style="stop-color:#3DAFA0"/>
			<stop  offset="0.8603" style="stop-color:#43BEAD"/>
			<stop  offset="0.9561" style="stop-color:#53C2B8"/>
			<stop  offset="1" style="stop-color:#5BC4BF"/>
		</linearGradient>
		<path fill="url(#SVGID_7_)" d="M222.89,148.415c7.424,6.639,16.79,10.887,24.524,15.641c0.563-1.069,1.941-2.39,1.998-5.091
			c4.528,3.066,7.931,8.27,10.011,12.095c0.057-2.7,0.929-5.653,0.732-9.169c11.756,6.189,8.21,20.702,6.915,30.939
			c23.991,2.394,19.609-46.321,15.561-59.372c-5.82-18.761-21.484-31.785-41.144-34.628c0.506,1.631-0.057,2.7,0.449,4.331
			c-10.378-7.511-24.89-11.056-36.759-11.845c-12.122-1.605-29.138-1.691-19.943,10.657c4.724,6.582,13.893,7.314,19.49,10.943
			c4.528,3.066,2.277,7.341,10.321,10.211c10.181,3.995,21.91-1.432,32.091,2.563c-9.169-0.732-19.463,0.673-23.964,9.222
			c-9.252-9.648-13.867,4.302-7.145,5.793"/>
	</g>
	<g>
		
			<linearGradient id="SVGID_8_" gradientUnits="userSpaceOnUse" x1="-783.1714" y1="1275.1271" x2="-757.6284" y2="1192.7871" gradientTransform="matrix(0.9551 -0.2963 0.2963 0.9551 603.3198 -1322.5618)">
			<stop  offset="0.5134" style="stop-color:#43BEAD"/>
			<stop  offset="0.651" style="stop-color:#53C2B8"/>
			<stop  offset="0.714" style="stop-color:#5BC4BF"/>
		</linearGradient>
		<path fill="url(#SVGID_8_)" d="M225.963,92.023c-18.168-9.565-34.732-31.252-41.367-49.76c6.582-4.724,15.525,6.808,21.937,10.184
			c-7.255-14.739,13.727-10.517,17.579-0.982c5.177-15.019,18.674,11.196,20.446,16.906c-0.956-5.963-10.291-24.527-3.513-25.736
			c11.11-1.658,18.391,24.697,18.784,31.728c1.015-22.669,11.955-16.227,19.716,0.143c3.093,7.088,4.552,40.614-8.919,26.015
			c5.484,9.029-4.727,19.35-8.666,26.831c-9.562-7.764-19.6-31.475-31.722-33.08"/>
	</g>
	<g opacity="0.2">
		
			<linearGradient id="SVGID_9_" gradientUnits="userSpaceOnUse" x1="-730.6053" y1="1333.1407" x2="-706.9025" y2="1256.7329" gradientTransform="matrix(0.9551 -0.2963 0.2963 0.9551 603.3198 -1322.5618)">
			<stop  offset="0.615" style="stop-color:#007C74"/>
			<stop  offset="0.6952" style="stop-color:#00867F"/>
			<stop  offset="0.8519" style="stop-color:#34A39C"/>
			<stop  offset="1" style="stop-color:#5BC4BF"/>
		</linearGradient>
		<path fill="url(#SVGID_9_)" d="M284.918,118.016c-0.393-7.032,2.843-19.66,9.086-8.184c-4.218-4.951-6.073-19.576,2.9-22.36
			c7.341-2.277,11.952,9.705,15.355,14.909c9.678-23.568,15.974,11.14,15.242,20.309c0.083,8.916-1.804,34.538-14.685,30.487
			c3.599,8.719-5.29,20.419-11.28,9.758c-3.15-4.388-1.039-14.879-3.626-20.336c-2.673,11.559-37.632-8.892-19.011-20.928"/>
	</g>
	<g>
		
			<linearGradient id="SVGID_10_" gradientUnits="userSpaceOnUse" x1="-739.3663" y1="1305.611" x2="-684.5255" y2="1276.7391" gradientTransform="matrix(0.9551 -0.2963 0.2963 0.9551 603.3198 -1322.5618)">
			<stop  offset="0" style="stop-color:#58C3BC"/>
			<stop  offset="0.5134" style="stop-color:#43BEAD"/>
			<stop  offset="0.847" style="stop-color:#53C2B8"/>
			<stop  offset="1" style="stop-color:#5BC4BF"/>
		</linearGradient>
		<path fill="url(#SVGID_10_)" d="M285.165,115.684c-0.393-7.032,2.843-19.66,9.086-8.184c-4.218-4.951-6.073-19.576,2.9-22.36
			c7.341-2.277,11.952,9.705,15.355,14.909c9.678-23.568,15.974,11.14,15.242,20.309c0.083,8.916-1.804,34.538-14.685,30.487
			c3.599,8.719-5.29,20.419-11.28,9.758c-3.15-4.388-1.039-14.879-3.626-20.336c-2.673,11.559-37.632-8.892-19.011-20.928"/>
	</g>
</g>
<g>
	<g>
		<linearGradient id="SVGID_11_" gradientUnits="userSpaceOnUse" x1="46.0179" y1="206.6844" x2="63.4437" y2="206.6844">
			<stop  offset="0.8659" style="stop-color:#00A89A"/>
			<stop  offset="0.9278" style="stop-color:#2FB2A7"/>
			<stop  offset="1" style="stop-color:#5BC4BF"/>
		</linearGradient>
		<path fill="url(#SVGID_11_)" d="M46.69,116.011c13.433,18.806,9.403,49.703,10.747,71.867c1.343,24.851,0.672,48.359-0.672,73.211
			c-1.343,18.806-8.06,47.016,1.343,64.479c-2.687-28.21,3.358-59.106,4.702-87.316c1.343-38.285-4.03-75.897-4.03-113.51
			c0-11.418,6.717-26.866,4.03-36.941c-6.717,6.045-5.373,22.836-8.732,32.24c-1.343-4.702-5.373-10.747-8.06-8.06"/>
	</g>
	<g opacity="0.2">
		<linearGradient id="SVGID_12_" gradientUnits="userSpaceOnUse" x1="84.3109" y1="204.1665" x2="127.0271" y2="204.1665">
			<stop  offset="0.615" style="stop-color:#007C74"/>
			<stop  offset="0.6952" style="stop-color:#00867F"/>
			<stop  offset="0.8519" style="stop-color:#34A39C"/>
			<stop  offset="1" style="stop-color:#5BC4BF"/>
		</linearGradient>
		<path fill="url(#SVGID_12_)" d="M87.399,89.649c-3.358,17.463,2.015,36.941,5.373,54.404c4.03,20.821,1.343,45.001-0.672,65.151
			c-2.015,26.866-2.015,54.404-4.702,81.271c-1.343,14.776-5.373,34.255-1.343,49.031c0-33.583,9.403-66.494,12.762-99.405
			c1.343-15.448,2.015-30.225,1.343-45.673c-1.343-18.806,2.687-33.583,8.732-52.389c4.702-16.12,8.732-35.598,18.135-50.374
			c-9.403-2.015-12.762,19.478-14.105,26.195c-6.717-14.776-6.045-33.583-12.762-48.359c-4.03,15.448,4.03,30.225,6.717,45.001
			c2.687,12.09-4.702,32.24-8.06,45.001c-2.015-17.463-4.03-34.926-6.717-52.389c-2.015-12.09-1.343-28.21-5.373-38.285"/>
	</g>
	<g>
		<linearGradient id="SVGID_13_" gradientUnits="userSpaceOnUse" x1="81.8857" y1="197.6171" x2="124.6019" y2="197.6171">
			<stop  offset="0.8659" style="stop-color:#00A89A"/>
			<stop  offset="0.9278" style="stop-color:#2FB2A7"/>
			<stop  offset="1" style="stop-color:#5BC4BF"/>
		</linearGradient>
		<path fill="url(#SVGID_13_)" d="M84.974,83.099c-3.358,17.463,2.015,36.941,5.373,54.404c4.03,20.821,1.343,45.001-0.672,65.151
			c-2.015,26.866-2.015,54.404-4.702,81.271c-1.343,14.776-5.373,34.255-1.343,49.031c0-33.583,9.403-66.494,12.762-99.406
			c1.343-15.448,2.015-30.225,1.343-45.673c-1.343-18.806,2.687-33.583,8.732-52.389c4.702-16.12,8.732-35.598,18.135-50.374
			c-9.403-2.015-12.762,19.478-14.105,26.195c-6.717-14.776-6.045-33.583-12.762-48.359c-4.03,15.448,4.03,30.225,6.717,45.001
			c2.687,12.09-4.702,32.24-8.06,45.001c-2.015-17.463-4.03-34.926-6.717-52.389c-2.015-12.09-1.343-28.21-5.373-38.285"/>
	</g>
	<g>
		<linearGradient id="SVGID_14_" gradientUnits="userSpaceOnUse" x1="37.0501" y1="126.2332" x2="37.0501" y2="9.5633">
			<stop  offset="0.5134" style="stop-color:#43BEAD"/>
			<stop  offset="0.847" style="stop-color:#53C2B8"/>
			<stop  offset="1" style="stop-color:#5BC4BF"/>
		</linearGradient>
		<path fill="url(#SVGID_14_)" d="M61.466,21.978C54.749,9.217,43.331,3.172,35.943,19.292c-8.06,18.135,2.687,28.21,6.045,45.001
			c-5.373-8.06-14.105-18.135-17.463-27.538c-5.373,3.358-7.388,10.075-6.045,16.12c-16.791-2.687,7.388,34.255,12.762,37.613
			c-2.687-4.03-11.418-12.09-16.791-7.388c-4.03,2.687,0.672,14.105,2.015,18.135c1.343,6.045,9.403,33.583,19.478,22.165
			c10.747,15.448,22.165-36.941,22.165-44.329c0.672-15.448-4.03-36.27,0-50.374"/>
	</g>
	<g opacity="0.2">
		<linearGradient id="SVGID_15_" gradientUnits="userSpaceOnUse" x1="64.717" y1="112.4283" x2="64.717" y2="1.1569">
			<stop  offset="0.615" style="stop-color:#007C74"/>
			<stop  offset="0.6952" style="stop-color:#00867F"/>
			<stop  offset="0.8519" style="stop-color:#34A39C"/>
			<stop  offset="1" style="stop-color:#5BC4BF"/>
		</linearGradient>
		<path fill="url(#SVGID_15_)" d="M50.719,104.592c2.015,6.045,11.418,13.433,10.747,1.343c6.717,14.776,22.836-24.18,25.523-30.896
			c4.702-14.776,13.433-31.568,6.717-47.016C86.317,11.903,72.213,2.5,55.421,1.157c-5.373,0-12.762,0-16.791,2.687
			c-11.418,6.717-2.015,10.075,4.702,16.791C25.868,10.56,35.943,34.74,38.63,41.456c4.03,14.105,8.06,19.478,18.806,29.553
			c-12.762,6.045-5.373,17.463-6.045,26.866"/>
	</g>
	<g opacity="0.2">
		<linearGradient id="SVGID_16_" gradientUnits="userSpaceOnUse" x1="52.1821" y1="182.5192" x2="69.6079" y2="182.5192">
			<stop  offset="0.615" style="stop-color:#007C74"/>
			<stop  offset="0.6952" style="stop-color:#00867F"/>
			<stop  offset="0.8519" style="stop-color:#34A39C"/>
			<stop  offset="1" style="stop-color:#5BC4BF"/>
		</linearGradient>
		<path fill="url(#SVGID_16_)" d="M52.854,91.845c13.433,18.806,9.403,49.703,10.747,71.867c1.343,24.851,0.672,48.359-0.672,73.211
			c-1.343,18.806-8.06,47.016,1.343,64.479c-2.687-28.21,3.358-59.106,4.702-87.316c1.343-38.285-4.03-75.897-4.03-113.51
			c0-11.418,6.717-26.866,4.03-36.941c-6.717,6.045-5.373,22.836-8.732,32.24c-1.343-4.702-5.373-10.747-8.06-8.06"/>
	</g>
	<g>
		<linearGradient id="SVGID_17_" gradientUnits="userSpaceOnUse" x1="61.9743" y1="111.2714" x2="61.9743" y2="4.174581e-10">
			<stop  offset="0.5134" style="stop-color:#43BEAD"/>
			<stop  offset="0.847" style="stop-color:#53C2B8"/>
			<stop  offset="1" style="stop-color:#5BC4BF"/>
		</linearGradient>
		<path fill="url(#SVGID_17_)" d="M47.977,103.435c2.015,6.045,11.418,13.433,10.747,1.343c6.717,14.776,22.836-24.18,25.523-30.896
			c4.702-14.776,13.433-31.568,6.717-47.016C83.575,10.747,69.47,1.343,52.678,0c-5.373,0-12.762,0-16.791,2.687
			c-11.418,6.717-2.015,10.075,4.702,16.791C23.125,9.403,33.2,33.583,35.887,40.3c4.03,14.105,8.06,19.478,18.806,29.553
			c-12.762,6.045-5.373,17.463-6.045,26.866"/>
	</g>
	<g opacity="0.2">
		<linearGradient id="SVGID_18_" gradientUnits="userSpaceOnUse" x1="149.5002" y1="44.9157" x2="72.8957" y2="44.9157">
			<stop  offset="0.615" style="stop-color:#007C74"/>
			<stop  offset="0.6952" style="stop-color:#00867F"/>
			<stop  offset="0.8519" style="stop-color:#34A39C"/>
			<stop  offset="1" style="stop-color:#5BC4BF"/>
		</linearGradient>
		<path fill="url(#SVGID_18_)" d="M112.191,61.941c4.03,2.015,8.06,4.03,11.418,6.045c0-2.015,2.015-4.03,2.015-6.045
			c2.015,0,5.373,0,6.717,0c3.358,6.717,5.373,24.851,14.105,15.448c4.03-5.373,3.358-21.493,2.015-28.21
			c-2.015-12.09-16.791-47.688-34.926-37.613c12.09,5.373,25.523,24.851,23.508,38.285c-4.03-10.747-14.776-22.165-22.836-30.225
			c-4.03-4.702-10.075-11.418-16.12-9.403c-7.388,2.687-7.388,14.105-2.687,18.135c-3.358-10.747-33.583-12.09-18.135,8.732
			c8.732,12.09,21.493,17.463,34.255,24.851"/>
	</g>
	<g>
		<linearGradient id="SVGID_19_" gradientUnits="userSpaceOnUse" x1="73.3588" y1="43.4881" x2="149.9633" y2="43.4881">
			<stop  offset="0.5134" style="stop-color:#43BEAD"/>
			<stop  offset="0.651" style="stop-color:#53C2B8"/>
			<stop  offset="0.714" style="stop-color:#5BC4BF"/>
		</linearGradient>
		<path fill="url(#SVGID_19_)" d="M112.654,60.514c4.03,2.015,8.06,4.03,11.418,6.045c0-2.015,2.015-4.03,2.015-6.045
			c2.015,0,5.373,0,6.717,0c3.358,6.717,5.373,24.851,14.105,15.448c4.03-5.373,3.358-21.493,2.015-28.21
			c-2.015-12.09-16.791-47.688-34.926-37.613c12.09,5.373,25.523,24.851,23.508,38.285c-4.03-10.747-14.776-22.165-22.836-30.225
			c-4.03-4.702-10.075-11.418-16.12-9.403c-7.388,2.687-7.388,14.105-2.687,18.135c-3.358-10.747-33.583-12.09-18.135,8.732
			c8.732,12.09,21.493,17.463,34.255,24.851"/>
	</g>
	<g opacity="0.2">
		<linearGradient id="SVGID_20_" gradientUnits="userSpaceOnUse" x1="98.7074" y1="99.6102" x2="98.7074" y2="34.3294">
			<stop  offset="0.615" style="stop-color:#007C74"/>
			<stop  offset="0.6952" style="stop-color:#00867F"/>
			<stop  offset="0.8519" style="stop-color:#34A39C"/>
			<stop  offset="1" style="stop-color:#5BC4BF"/>
		</linearGradient>
		<path fill="url(#SVGID_20_)" d="M93.623,35.541c-18.806-5.373-32.24,18.806-26.195,34.255c16.12-3.358,34.255-0.672,44.329,14.105
			c0.672-1.343,1.343-2.687,1.343-4.03c2.687,3.358,8.06,22.165,15.448,19.478c4.03-2.015,2.687-19.478,2.687-23.508
			c-0.672-10.075-14.776-46.344-28.881-40.971"/>
	</g>
	<g>
		<linearGradient id="SVGID_21_" gradientUnits="userSpaceOnUse" x1="98.1182" y1="96.7941" x2="98.1182" y2="31.5134">
			<stop  offset="0.5134" style="stop-color:#43BEAD"/>
			<stop  offset="0.847" style="stop-color:#53C2B8"/>
			<stop  offset="1" style="stop-color:#5BC4BF"/>
		</linearGradient>
		<path fill="url(#SVGID_21_)" d="M93.034,32.725c-18.806-5.373-32.24,18.806-26.195,34.255c16.12-3.358,34.255-0.672,44.329,14.105
			c0.672-1.343,1.343-2.687,1.343-4.03c2.687,3.358,8.06,22.165,15.448,19.478c4.03-2.015,2.687-19.478,2.687-23.508
			c-0.672-10.075-14.776-46.344-28.881-40.971"/>
	</g>
</g>
<linearGradient id="SVGID_22_" gradientUnits="userSpaceOnUse" x1="640.0001" y1="553.7355" x2="640.0001" y2="232.1708">
	<stop  offset="0" style="stop-color:#00A9D6"/>
	<stop  offset="0.0071" style="stop-color:#00A9D3"/>
	<stop  offset="0.1133" style="stop-color:#00A4BC"/>
	<stop  offset="0.2266" style="stop-color:#00A0A9"/>
	<stop  offset="0.3476" style="stop-color:#009C9B"/>
	<stop  offset="0.4799" style="stop-color:#009A92"/>
	<stop  offset="0.6318" style="stop-color:#00998C"/>
	<stop  offset="0.8481" style="stop-color:#00988A"/>
</linearGradient>
<path fill="url(#SVGID_22_)" d="M0,261.725c0,0,132.148-12.957,184.687-16.936c59.398-4.498,161.16,14.225,217.314-4.91
	c11.127-3.791,49.353-6.384,61.101-7.502c14.976-1.425,39.164,4.817,53.563,9.02c35.511,10.367,108.627,7.446,145.611,10.423
	c58.351,4.697,175.848-4.433,234.221,0c20.318,1.543,60.564,8.297,80.513,12.305c33.776,6.787,81.618-15.232,115.846-11.023
	c30.856,3.794,84.619,2.424,115.642,4.626c16.308,1.157,71.5,4.008,71.5,4.008v291.922L0,553.736V261.725z"/>
<g>
	<g opacity="0.2">
		
			<linearGradient id="SVGID_23_" gradientUnits="userSpaceOnUse" x1="761.1681" y1="-3933.4436" x2="812.2454" y2="-3890.0981" gradientTransform="matrix(0.647 0.7625 -0.7625 0.647 -3421.2209 2166.9612)">
			<stop  offset="0.615" style="stop-color:#007C74"/>
			<stop  offset="0.6952" style="stop-color:#00867F"/>
			<stop  offset="0.8519" style="stop-color:#34A39C"/>
			<stop  offset="1" style="stop-color:#5BC4BF"/>
		</linearGradient>
		<path fill="url(#SVGID_23_)" d="M90.695,202.66c-5.098-2.745-18.731,8.339-23.855,11.792c6.432-13.513-14.759-8.954-19.883-5.501
			c-12.849,9.114-3.026,13.308-5.375,24.25c-1.42-12.219-10.391-9.081-17.517-4.823c-7.647,4.699-10.043,10.312-14.078,18.212
			c-5.234,10.706-7.11,15.878,5.993,15.498c6.811-0.41,17.549-1.468,23.114-4.401c12.41,19.897,52.063,8.62,70.211,5.749
			c4.446-1.088,23.918-2.398,25.195-6.167c1.955-6.133-9.919-14.852-14.806-14.284c1.749-9.539-8.611-24.911-16.432-29.909
			c-2.033,7.095-6.353,12.551-11.635,17.928C92.824,228.199,103.652,209.636,90.695,202.66z"/>
	</g>
	<g opacity="0.2">
		
			<linearGradient id="SVGID_24_" gradientUnits="userSpaceOnUse" x1="862.3261" y1="-4010.2874" x2="880.9317" y2="-3994.498" gradientTransform="matrix(0.647 0.7625 -0.7625 0.647 -3421.2209 2166.9612)">
			<stop  offset="0.615" style="stop-color:#007C74"/>
			<stop  offset="0.6952" style="stop-color:#00867F"/>
			<stop  offset="0.8519" style="stop-color:#34A39C"/>
			<stop  offset="1" style="stop-color:#5BC4BF"/>
		</linearGradient>
		<path fill="url(#SVGID_24_)" d="M171.309,233.462c8.372-1.735,16.224-3.029,24.439-2.84c0.442,0.52-8.773,11.228-7.89,12.269
			c23.412-22.611,53.41-12.415,56.596,1.886c-24.911,8.611-49.035,7.604-75.287,3.033c4.367-0.126,7.616,1.592,9.823,4.193
			c-6.243,5.298-27.009-1.243-34.624-2.835c4.919-6.859,8.277-12.393,15.324-15.689"/>
	</g>
	<g>
		
			<linearGradient id="SVGID_25_" gradientUnits="userSpaceOnUse" x1="759.6779" y1="-3929.8245" x2="810.7551" y2="-3886.479" gradientTransform="matrix(0.647 0.7625 -0.7625 0.647 -3421.2209 2166.9612)">
			<stop  offset="0" style="stop-color:#009D8E"/>
			<stop  offset="0.2771" style="stop-color:#009E8E"/>
			<stop  offset="0.5472" style="stop-color:#00A091"/>
			<stop  offset="0.8135" style="stop-color:#00A494"/>
			<stop  offset="1" style="stop-color:#00A798"/>
		</linearGradient>
		<path fill="url(#SVGID_25_)" d="M86.971,203.866c-5.098-2.745-18.731,8.339-23.855,11.792c6.432-13.513-14.759-8.954-19.883-5.501
			c-12.849,9.114-3.026,13.308-5.375,24.25c-1.42-12.219-10.391-9.081-17.517-4.823c-7.647,4.699-10.043,10.312-14.078,18.212
			c-5.234,10.706-7.11,15.878,5.993,15.498c6.811-0.41,17.549-1.468,23.114-4.401c12.41,19.897,52.063,8.62,70.211,5.749
			c4.446-1.088,23.918-2.398,25.195-6.167c1.955-6.134-9.919-14.852-14.806-14.284c1.749-9.539-8.611-24.911-16.432-29.909
			c-2.033,7.095-6.353,12.551-11.635,17.928C89.101,229.404,99.928,210.841,86.971,203.866z"/>
	</g>
	<g opacity="0.2">
		
			<linearGradient id="SVGID_26_" gradientUnits="userSpaceOnUse" x1="776.7757" y1="-3915.4719" x2="827.8657" y2="-3906.1702" gradientTransform="matrix(0.647 0.7625 -0.7625 0.647 -3421.2209 2166.9612)">
			<stop  offset="0.615" style="stop-color:#007C74"/>
			<stop  offset="0.6952" style="stop-color:#00867F"/>
			<stop  offset="0.8519" style="stop-color:#34A39C"/>
			<stop  offset="1" style="stop-color:#5BC4BF"/>
		</linearGradient>
		<path fill="url(#SVGID_26_)" d="M106.476,262.791c4.398-6.418,4.208-27.734-7.806-22.909c0.897-16.871-24.03-19.88-35.319-12.09
			c0.931,6.37,6.024,9.207,11.716,10.642c-3.926,0.647-12.661,0.9-16.224,3.029c-5.566,2.933-8.324,7.064,0.852,7.332
			c-2.964,0.726-5.124,3.453-7.647,4.699c9.382,3.673,25.89,3.088,35.901-0.933c-0.473,5.771,5.582,8.687,11.353,9.16"/>
	</g>
	<g>
		
			<linearGradient id="SVGID_27_" gradientUnits="userSpaceOnUse" x1="859.3593" y1="-4006.3323" x2="877.9649" y2="-3990.5432" gradientTransform="matrix(0.647 0.7625 -0.7625 0.647 -3421.2209 2166.9612)">
			<stop  offset="0" style="stop-color:#009D8E"/>
			<stop  offset="0.2771" style="stop-color:#009E8E"/>
			<stop  offset="0.5472" style="stop-color:#00A091"/>
			<stop  offset="0.8135" style="stop-color:#00A494"/>
			<stop  offset="1" style="stop-color:#00A798"/>
		</linearGradient>
		<path fill="url(#SVGID_27_)" d="M166.374,233.759c8.372-1.735,16.224-3.029,24.439-2.84c0.442,0.52-8.773,11.228-7.89,12.269
			c23.412-22.611,53.41-12.415,56.596,1.886c-24.911,8.611-49.035,7.604-75.287,3.033c4.367-0.126,7.616,1.592,9.823,4.193
			c-6.243,5.298-27.009-1.243-34.624-2.835c4.919-6.859,8.277-12.393,15.324-15.689"/>
	</g>
	<g>
		
			<linearGradient id="SVGID_28_" gradientUnits="userSpaceOnUse" x1="809.9708" y1="-3892.1934" x2="795.5837" y2="-3932.4165" gradientTransform="matrix(0.647 0.7625 -0.7625 0.647 -3421.2209 2166.9612)">
			<stop  offset="0" style="stop-color:#009D8E"/>
			<stop  offset="0.0459" style="stop-color:#00A091"/>
			<stop  offset="0.1093" style="stop-color:#00A495"/>
			<stop  offset="0.174" style="stop-color:#00A797"/>
			<stop  offset="0.2415" style="stop-color:#00A798"/>
			<stop  offset="0.6283" style="stop-color:#00A99A"/>
			<stop  offset="0.8306" style="stop-color:#00ADA2"/>
			<stop  offset="0.9851" style="stop-color:#00B6B0"/>
		</linearGradient>
		<path fill="url(#SVGID_28_)" d="M103.812,263.24c4.398-6.417,4.208-27.734-7.806-22.909c0.897-16.871-24.03-19.88-35.319-12.09
			c0.931,6.37,6.024,9.207,11.716,10.642c-3.926,0.647-12.661,0.9-16.224,3.029c-5.566,2.933-8.324,7.064,0.852,7.332
			c-2.964,0.726-5.124,3.453-7.647,4.699c9.382,3.673,25.89,3.088,35.901-0.933c-0.473,5.771,5.582,8.687,11.353,9.16"/>
	</g>
</g>
<g>
	<g opacity="0.2">
		
			<linearGradient id="SVGID_29_" gradientUnits="userSpaceOnUse" x1="620.6362" y1="988.6641" x2="640.1505" y2="859.1014" gradientTransform="matrix(0.9888 -0.1489 0.1489 0.9888 369.8772 -641.6669)">
			<stop  offset="0.615" style="stop-color:#007C74"/>
			<stop  offset="0.6952" style="stop-color:#00867F"/>
			<stop  offset="0.8519" style="stop-color:#34A39C"/>
			<stop  offset="1" style="stop-color:#5BC4BF"/>
		</linearGradient>
		<path fill="url(#SVGID_29_)" d="M1112.947,147.845c5.357,4.535,11.449,7.291,12.906,14.751c0.443,2.938-0.698,6.449-0.909,9.486
			c-0.501,7.755-0.023,15.362,0.455,22.97c0.576,8.26,0.124,16.342-0.605,24.799c-0.309,2.384-3.74,23.936-1.455,23.591
			c0.049,0.326,0.999-0.315,0.999-0.315c0.403-8.408,0.528-15.895,2.237-24.5c1.807-7.952,2.763-15.154,3.167-23.562
			c-0.116-2.988,0.144-5.698,0.354-8.734c-0.281-6.302-2.486-7.639,3.225-11.838c8.176-5.572,13.901-14.114,21.701-19.963
			c-3.886-1.418-19.581,16.305-24.51,19.05c-1.391-4.799-1.9-10.398-3.34-15.524c-1.292-4.146-2.352-2.317,0.975-6.825
			c2.822-3.43,5.694-6.534,8.892-9.686c1.99-2.303,5.286-4.803,6.95-7.057c2.397-4.034,1.27-4.866-3.005-2.218
			c-4.227,2.974-6.964,11.399-11.37,15.402c-0.281-6.302-0.285-12.979-0.942-19.557c-0.706-6.905,1.316-11.216-5.021-15.604
			c-0.161,3.363,2.012,6.709,2.553,10.3c0.541,3.591,1.082,7.183,1.672,11.1c0.608,6.252,2.016,13.386-4.022,17.634
			c-4.002-4.405-10.992-8.695-17.196-7.761c0.098,0.653,0.801,0.881,0.751,0.555"/>
	</g>
	<g opacity="0.2">
		
			<linearGradient id="SVGID_30_" gradientUnits="userSpaceOnUse" x1="594.0997" y1="893.7062" x2="600.7852" y2="849.3193" gradientTransform="matrix(0.9888 -0.1489 0.1489 0.9888 369.8772 -641.6669)">
			<stop  offset="0.615" style="stop-color:#007C74"/>
			<stop  offset="0.6952" style="stop-color:#00867F"/>
			<stop  offset="0.8519" style="stop-color:#34A39C"/>
			<stop  offset="1" style="stop-color:#5BC4BF"/>
		</linearGradient>
		<path fill="url(#SVGID_30_)" d="M1102.616,148.083c-5.55,0.836-10.774,1.623-16.065-0.252c-5.34-2.201-17.276-6.079-19.973-10.681
			c0.277-0.376,0.555-0.751,0.881-0.8c-2.714-6.937-6.815-11.995,4.303-11.333c0.34-4.392-4.355-20.045,5.345-15.496
			c4.687,2.299,13.671,10.963,13.854,16.611c3.998-2.272,16.493,7.532,19.042,11.155c2.451,2.97,2.518,5.631,3.662,8.797
			c1.096,2.84,3.202,3.524,2.763,7.263c-3.869,0.917-6.498-1.025-9.96-1.839"/>
	</g>
	<g opacity="0.2">
		
			<linearGradient id="SVGID_31_" gradientUnits="userSpaceOnUse" x1="620.6312" y1="892.983" x2="630.9454" y2="824.5034" gradientTransform="matrix(0.9888 -0.1489 0.1489 0.9888 369.8772 -641.6669)">
			<stop  offset="0.615" style="stop-color:#007C74"/>
			<stop  offset="0.6952" style="stop-color:#00867F"/>
			<stop  offset="0.8519" style="stop-color:#34A39C"/>
			<stop  offset="1" style="stop-color:#5BC4BF"/>
		</linearGradient>
		<path fill="url(#SVGID_31_)" d="M1120.044,128.69c-11.235,2.441-3.664-6.934-11.059-8.814c2.421,8.618-6.654,12.98-14.69,9.324
			c-1.168,4.667-9.33,5.148-13.211,4.236c-6.919-1.204-18.85-12.55-15.541-17.914c3.986-5.84,9.457-16.648,17.804-13.414
			c-4.963-5.615,6.769-4.762,9.075-4.361c0.692-5.344-5.952-14.224,6.052-17.834c6.507-1.957,13.621,8.429,14.959,12.344
			c5.906-8.001,11.857-3.283,18.229,1.746c3.845,3.164,14.96,12.344,12.182,18.751c8.012-6.447,33.248,21.941,21.1,28.263
			c1.85,2.341,1.559,5.38-1.149,7.285c-3.439,2.015-5.821-1.369-8.713-3.179c-8.257-5.119-17.702-8.188-22.429-17.208
			c-5.816,6.116-12.854-10.79-14.247-15.072c0.441,2.928,0.516,5.911,0.591,8.894"/>
	</g>
	<g>
		
			<linearGradient id="SVGID_32_" gradientUnits="userSpaceOnUse" x1="619.67" y1="990.3987" x2="639.1844" y2="860.8361" gradientTransform="matrix(0.9888 -0.1489 0.1489 0.9888 369.8772 -641.6669)">
			<stop  offset="0.8659" style="stop-color:#00998C"/>
			<stop  offset="0.915" style="stop-color:#23A59A"/>
			<stop  offset="1" style="stop-color:#5BC4BF"/>
		</linearGradient>
		<path fill="url(#SVGID_32_)" d="M1112.25,149.705c5.358,4.535,11.449,7.291,12.906,14.751c0.443,2.938-0.698,6.449-0.908,9.486
			c-0.501,7.755-0.023,15.362,0.455,22.97c0.576,8.26,0.124,16.342-0.605,24.799c-0.309,2.384-3.74,23.936-1.455,23.591
			c0.049,0.326,0.999-0.315,0.999-0.315c0.403-8.408,0.528-15.895,2.237-24.5c1.807-7.952,2.763-15.154,3.167-23.562
			c-0.116-2.988,0.144-5.698,0.354-8.734c-0.281-6.301-2.486-7.639,3.225-11.838c8.176-5.572,13.901-14.114,21.701-19.963
			c-3.886-1.418-19.581,16.305-24.51,19.05c-1.391-4.799-1.9-10.398-3.34-15.524c-1.292-4.146-2.352-2.317,0.975-6.825
			c2.822-3.43,5.694-6.534,8.892-9.686c1.99-2.303,5.287-4.803,6.95-7.057c2.397-4.034,1.271-4.866-3.005-2.218
			c-4.226,2.974-6.964,11.399-11.37,15.402c-0.281-6.301-0.285-12.979-0.942-19.557c-0.706-6.905,1.316-11.216-5.021-15.604
			c-0.161,3.363,2.012,6.709,2.553,10.3s1.082,7.183,1.672,11.1c0.608,6.252,2.016,13.386-4.022,17.634
			c-4.002-4.406-10.992-8.695-17.196-7.761c0.098,0.653,0.8,0.881,0.751,0.555"/>
	</g>
	<g>
		
			<linearGradient id="SVGID_33_" gradientUnits="userSpaceOnUse" x1="593.1335" y1="895.4409" x2="599.819" y2="851.0538" gradientTransform="matrix(0.9888 -0.1489 0.1489 0.9888 369.8772 -641.6669)">
			<stop  offset="0" style="stop-color:#39B0A9"/>
			<stop  offset="0.7497" style="stop-color:#51BDB7"/>
			<stop  offset="1" style="stop-color:#5BC4BF"/>
		</linearGradient>
		<path fill="url(#SVGID_33_)" d="M1101.919,149.942c-5.55,0.836-10.774,1.623-16.065-0.252c-5.34-2.201-17.276-6.079-19.973-10.681
			c0.277-0.376,0.555-0.751,0.881-0.8c-2.714-6.937-6.815-11.995,4.303-11.333c0.34-4.392-4.355-20.045,5.345-15.496
			c4.687,2.299,13.671,10.963,13.854,16.611c3.998-2.272,16.493,7.532,19.042,11.155c2.451,2.97,2.518,5.631,3.662,8.797
			c1.096,2.84,3.202,3.524,2.763,7.263c-3.869,0.917-6.498-1.025-9.96-1.839"/>
	</g>
	<g>
		
			<linearGradient id="SVGID_34_" gradientUnits="userSpaceOnUse" x1="619.665" y1="894.7177" x2="629.9792" y2="826.238" gradientTransform="matrix(0.9888 -0.1489 0.1489 0.9888 369.8772 -641.6669)">
			<stop  offset="0" style="stop-color:#39B0A9"/>
			<stop  offset="0.7497" style="stop-color:#51BDB7"/>
			<stop  offset="1" style="stop-color:#5BC4BF"/>
		</linearGradient>
		<path fill="url(#SVGID_34_)" d="M1119.347,130.549c-11.235,2.441-3.664-6.934-11.059-8.814c2.421,8.618-6.654,12.98-14.69,9.324
			c-1.168,4.668-9.331,5.148-13.211,4.236c-6.919-1.204-18.85-12.55-15.541-17.914c3.986-5.84,9.457-16.648,17.804-13.414
			c-4.963-5.615,6.769-4.762,9.075-4.361c0.692-5.344-5.952-14.224,6.052-17.834c6.507-1.957,13.621,8.429,14.96,12.344
			c5.906-8.001,11.857-3.283,18.229,1.746c3.845,3.164,14.959,12.344,12.182,18.751c8.012-6.447,33.248,21.941,21.1,28.263
			c1.85,2.341,1.559,5.38-1.149,7.285c-3.439,2.015-5.821-1.369-8.713-3.179c-8.257-5.119-17.702-8.188-22.429-17.208
			c-5.816,6.116-12.854-10.79-14.247-15.072c0.441,2.928,0.516,5.911,0.591,8.894"/>
	</g>
</g>
<g>
	<g opacity="0.2">
		<linearGradient id="SVGID_35_" gradientUnits="userSpaceOnUse" x1="1229.7656" y1="153.2525" x2="1229.7656" y2="126.9912">
			<stop  offset="0.615" style="stop-color:#007C74"/>
			<stop  offset="0.6952" style="stop-color:#00867F"/>
			<stop  offset="0.8519" style="stop-color:#34A39C"/>
			<stop  offset="1" style="stop-color:#5BC4BF"/>
		</linearGradient>
		<path fill="url(#SVGID_35_)" d="M1236.434,128.109c-10.057,4.47-21.233,14.528-22.35,25.144c4.47-2.235,9.499-5.029,13.41-7.264
			c5.029,7.823,24.585-16.763,15.645-18.998"/>
	</g>
	<g>
		<g opacity="0.2">
			
				<linearGradient id="SVGID_36_" gradientUnits="userSpaceOnUse" x1="666.082" y1="921.6673" x2="668.9699" y2="902.4932" gradientTransform="matrix(0.9888 -0.1489 0.1489 0.9888 369.8772 -641.6669)">
				<stop  offset="0.615" style="stop-color:#007C74"/>
				<stop  offset="0.6952" style="stop-color:#00867F"/>
				<stop  offset="0.8519" style="stop-color:#34A39C"/>
				<stop  offset="1" style="stop-color:#5BC4BF"/>
			</linearGradient>
			<path fill="url(#SVGID_36_)" d="M1162.897,168.104c2.401,2.643,5.912,3.784,7.33-0.102c3.707,2.447,11.297-0.366,13.842-3.42
				c3.328-4.508-1.833-7.737-5.867-10.135c-9.423-4.925-23.381-4.492-31.736,2.109c2.173,3.345,4.901,5.94,9.391,6.933"/>
		</g>
		<g opacity="0.2">
			<linearGradient id="SVGID_37_" gradientUnits="userSpaceOnUse" x1="1189.806" y1="264.436" x2="1189.806" y2="121.0958">
				<stop  offset="0.615" style="stop-color:#007C74"/>
				<stop  offset="0.6952" style="stop-color:#00867F"/>
				<stop  offset="0.8519" style="stop-color:#34A39C"/>
				<stop  offset="1" style="stop-color:#5BC4BF"/>
			</linearGradient>
			<path fill="url(#SVGID_37_)" d="M1161.603,176.186c3.209,5.081,6.151,10.162,9.093,15.243c2.942,5.349,9.36,11.232,10.964,17.115
				c1.337,5.081,1.07,12.034,1.337,17.383c0.535,8.29,1.337,16.58,1.605,24.871c0,4.546,0,9.092,0,13.639
				c3.477-2.407,1.337-13.371,1.07-17.65c0-7.22-0.535-14.441-0.802-21.661c-0.535-11.232-0.802-24.068,5.081-34.23
				c5.883-9.895,10.162-20.859,16.58-30.754c4.814-7.488,11.499-12.034,16.848-18.72c-7.22-1.07-15.778,16.58-20.324,21.127
				c3.744-10.964,9.092-21.661,12.034-32.893c-6.151,0.802-8.558,18.452-10.43,23.533c-1.604,4.546-4.011,9.627-6.418,13.639
				c-3.209,4.814-4.814,10.697-8.023,15.511c-2.407-8.825,3.209-21.661,4.011-30.754c0.802-8.023,1.337-22.999-2.407-30.487
				c-2.407,4.011-1.872,12.302-1.872,16.848c-0.267,6.418-0.267,12.836-0.802,19.255c-0.267,6.418-1.07,13.104-2.139,19.255
				c-0.535,3.477-0.267,6.953-0.802,10.162c-0.802,4.011-3.209,7.22-3.744,11.232c-4.279-8.29-13.639-14.174-17.917-22.464
				c-4.279-8.29-2.674-20.324-7.755-28.615c-2.674,8.023,5.081,20.324,6.686,27.812c-1.605-1.605-3.477-2.942-5.616-3.744
				c0.267,0.802,0.535,1.07,0.802,1.605"/>
		</g>
		<g opacity="0.2">
			<linearGradient id="SVGID_38_" gradientUnits="userSpaceOnUse" x1="1154.0956" y1="186.869" x2="1154.0956" y2="120.3709">
				<stop  offset="0.615" style="stop-color:#007C74"/>
				<stop  offset="0.6952" style="stop-color:#00867F"/>
				<stop  offset="0.8519" style="stop-color:#34A39C"/>
				<stop  offset="1" style="stop-color:#5BC4BF"/>
			</linearGradient>
			<path fill="url(#SVGID_38_)" d="M1162.82,120.371c-7.7,5.6-17.449,11.367-18.2,20.299c-0.603,7.181,4.9,14.7,7.7,22.399
				c-4.2-5.6-7-11.9-12.6-16.1c-9.1,14,9.1,38.499,23.799,39.899c2.8-6.3-4.2-7-7.7-11.2c6.3,0,7.7-4.9,5.6-10.5
				c11.9-2.1,11.2-38.499,5.6-44.099"/>
		</g>
		<g opacity="0.2">
			<linearGradient id="SVGID_39_" gradientUnits="userSpaceOnUse" x1="1191.124" y1="149.9821" x2="1191.124" y2="69.1198">
				<stop  offset="0.615" style="stop-color:#007C74"/>
				<stop  offset="0.6952" style="stop-color:#00867F"/>
				<stop  offset="0.8519" style="stop-color:#34A39C"/>
				<stop  offset="1" style="stop-color:#5BC4BF"/>
			</linearGradient>
			<path fill="url(#SVGID_39_)" d="M1174.77,97.542c-9.8-2.8-7.7,13.3-8.4,19.599c-0.7,7,0,48.299,11.2,26.599
				c12.6,7,24.499-25.199,27.999-34.299c2.8-7.7,2.8-30.099,10.5-29.399c-6.3-16.8-21.699-13.3-25.899,4.2
				c-9.1-4.2-9.8,35.699-8.4,43.399c-2.1-7-4.9-14.7-4.9-21.699"/>
		</g>
		<g opacity="0.2">
			<linearGradient id="SVGID_40_" gradientUnits="userSpaceOnUse" x1="1222.589" y1="149.4493" x2="1222.589" y2="103.2573">
				<stop  offset="0.615" style="stop-color:#007C74"/>
				<stop  offset="0.6952" style="stop-color:#00867F"/>
				<stop  offset="0.8519" style="stop-color:#34A39C"/>
				<stop  offset="1" style="stop-color:#5BC4BF"/>
			</linearGradient>
			<path fill="url(#SVGID_40_)" d="M1226.199,103.632c-8.381-3.353-11.734,16.763-12.851,22.35
				c-11.175-3.911-7.823,17.88-5.588,23.468c8.381-6.705,33.525-26.261,31.849-38.554c-7.264,1.676-12.851,10.058-16.204,16.204
				c0-4.47,1.117-8.94,2.235-13.41"/>
		</g>
		<g>
			
				<linearGradient id="SVGID_41_" gradientUnits="userSpaceOnUse" x1="660.5701" y1="925.3727" x2="663.4581" y2="906.1987" gradientTransform="matrix(0.9888 -0.1489 0.1489 0.9888 369.8772 -641.6669)">
				<stop  offset="0.5134" style="stop-color:#43BEAD"/>
				<stop  offset="0.847" style="stop-color:#53C2B8"/>
				<stop  offset="1" style="stop-color:#5BC4BF"/>
			</linearGradient>
			<path fill="url(#SVGID_41_)" d="M1157.998,172.589c2.401,2.643,5.912,3.784,7.33-0.102c3.707,2.447,11.297-0.366,13.842-3.42
				c3.328-4.508-1.833-7.737-5.867-10.135c-9.423-4.925-23.381-4.492-31.736,2.109c2.173,3.345,4.901,5.94,9.391,6.933"/>
		</g>
		<g>
			<linearGradient id="SVGID_42_" gradientUnits="userSpaceOnUse" x1="1188.0935" y1="268.1245" x2="1188.0935" y2="124.7844">
				<stop  offset="0.8659" style="stop-color:#00A89A"/>
				<stop  offset="0.9278" style="stop-color:#2FB2A7"/>
				<stop  offset="1" style="stop-color:#5BC4BF"/>
			</linearGradient>
			<path fill="url(#SVGID_42_)" d="M1159.891,179.874c3.209,5.081,6.151,10.162,9.093,15.243c2.942,5.349,9.36,11.232,10.964,17.115
				c1.337,5.081,1.07,12.034,1.337,17.383c0.535,8.29,1.337,16.58,1.605,24.871c0,4.546,0,9.092,0,13.639
				c3.476-2.407,1.337-13.371,1.07-17.65c0-7.221-0.535-14.441-0.802-21.661c-0.535-11.232-0.802-24.068,5.081-34.23
				c5.883-9.895,10.162-20.859,16.58-30.754c4.814-7.488,11.499-12.034,16.848-18.72c-7.221-1.07-15.778,16.58-20.324,21.127
				c3.744-10.964,9.092-21.661,12.034-32.893c-6.151,0.802-8.558,18.452-10.43,23.533c-1.604,4.546-4.011,9.627-6.418,13.639
				c-3.209,4.814-4.814,10.697-8.023,15.511c-2.407-8.825,3.209-21.661,4.011-30.754c0.802-8.023,1.337-22.999-2.407-30.487
				c-2.407,4.011-1.872,12.302-1.872,16.848c-0.267,6.418-0.267,12.836-0.802,19.255c-0.267,6.418-1.07,13.104-2.139,19.255
				c-0.535,3.477-0.267,6.953-0.802,10.162c-0.802,4.011-3.209,7.221-3.744,11.232c-4.279-8.29-13.639-14.174-17.918-22.464
				s-2.674-20.324-7.755-28.615c-2.674,8.023,5.081,20.324,6.686,27.812c-1.604-1.605-3.476-2.942-5.616-3.744
				c0.267,0.802,0.535,1.07,0.802,1.605"/>
		</g>
		<g>
			<linearGradient id="SVGID_43_" gradientUnits="userSpaceOnUse" x1="1149.1971" y1="191.354" x2="1149.1971" y2="124.8559">
				<stop  offset="0.5134" style="stop-color:#43BEAD"/>
				<stop  offset="0.847" style="stop-color:#53C2B8"/>
				<stop  offset="1" style="stop-color:#5BC4BF"/>
			</linearGradient>
			<path fill="url(#SVGID_43_)" d="M1157.921,124.856c-7.7,5.6-17.449,11.367-18.199,20.299c-0.603,7.181,4.9,14.7,7.7,22.399
				c-4.2-5.6-7-11.9-12.6-16.1c-9.1,14,9.1,38.499,23.799,39.899c2.8-6.3-4.2-7-7.7-11.2c6.3,0,7.7-4.9,5.6-10.5
				c11.9-2.1,11.2-38.499,5.6-44.099"/>
		</g>
		<g>
			<linearGradient id="SVGID_44_" gradientUnits="userSpaceOnUse" x1="1186.2256" y1="154.4671" x2="1186.2256" y2="73.6048">
				<stop  offset="0.5134" style="stop-color:#43BEAD"/>
				<stop  offset="0.847" style="stop-color:#53C2B8"/>
				<stop  offset="1" style="stop-color:#5BC4BF"/>
			</linearGradient>
			<path fill="url(#SVGID_44_)" d="M1169.872,102.027c-9.8-2.8-7.7,13.3-8.4,19.599c-0.7,7,0,48.299,11.2,26.599
				c12.6,7,24.499-25.199,27.999-34.299c2.8-7.7,2.8-30.099,10.5-29.399c-6.3-16.8-21.699-13.3-25.899,4.2
				c-9.1-4.2-9.8,35.699-8.4,43.399c-2.1-7-4.9-14.7-4.9-21.699"/>
		</g>
		<g>
			<linearGradient id="SVGID_45_" gradientUnits="userSpaceOnUse" x1="1217.6906" y1="153.9343" x2="1217.6906" y2="107.7423">
				<stop  offset="0.5134" style="stop-color:#43BEAD"/>
				<stop  offset="0.847" style="stop-color:#53C2B8"/>
				<stop  offset="1" style="stop-color:#5BC4BF"/>
			</linearGradient>
			<path fill="url(#SVGID_45_)" d="M1221.301,108.117c-8.381-3.353-11.734,16.763-12.851,22.35
				c-11.175-3.911-7.823,17.88-5.588,23.468c8.381-6.705,33.525-26.261,31.849-38.554c-7.264,1.676-12.851,10.058-16.204,16.204
				c0-4.47,1.118-8.94,2.235-13.41"/>
		</g>
	</g>
	<g>
		<linearGradient id="SVGID_46_" gradientUnits="userSpaceOnUse" x1="1224.8672" y1="157.7375" x2="1224.8672" y2="131.4762">
			<stop  offset="0.5134" style="stop-color:#43BEAD"/>
			<stop  offset="0.847" style="stop-color:#53C2B8"/>
			<stop  offset="1" style="stop-color:#5BC4BF"/>
		</linearGradient>
		<path fill="url(#SVGID_46_)" d="M1231.535,132.594c-10.058,4.47-21.233,14.528-22.35,25.144c4.47-2.235,9.499-5.029,13.41-7.264
			c5.029,7.823,24.585-16.763,15.645-18.998"/>
	</g>
</g>
<g>
	<g opacity="0.2">
		<g>
			
				<linearGradient id="SVGID_47_" gradientUnits="userSpaceOnUse" x1="-3215.3445" y1="2756.5286" x2="-3268.5222" y2="2789.666" gradientTransform="matrix(0.5289 -0.8487 0.8487 0.5289 541.2953 -3970.0193)">
				<stop  offset="0.615" style="stop-color:#007C74"/>
				<stop  offset="0.6952" style="stop-color:#00867F"/>
				<stop  offset="0.8519" style="stop-color:#34A39C"/>
				<stop  offset="1" style="stop-color:#5BC4BF"/>
			</linearGradient>
			<path fill="url(#SVGID_47_)" d="M1178.952,274.64c9.958,0.168,19.822-2.742,28.782-4.203c-0.273-1.176-0.095-3.078-1.817-5.158
				c5.431-0.641,11.408,1.071,15.484,2.605c-1.723-2.08-2.994-4.884-5.442-7.416c12.941-3.005,19.749,10.294,25.463,18.886
				c19.716-13.877-15.453-47.868-27.051-55.095c-16.671-10.388-37.039-9.999-53.772,0.705c1.45,0.903,1.723,2.08,3.172,2.983
				c-12.763,1.103-26.061,7.911-35.557,15.075c-10.221,6.713-23.151,17.774-8.119,21.104c7.878,1.891,15.294-3.551,21.902-4.465
				c5.431-0.641,6.523,4.065,14.486,0.977c10.315-3.635,15.641-15.41,25.956-19.045c-7.416,5.441-14.286,13.236-12.1,22.648
				c-13.309-1.25-7.678,12.322-1.617,9.055"/>
		</g>
		<g>
			
				<linearGradient id="SVGID_48_" gradientUnits="userSpaceOnUse" x1="-1594.3235" y1="2450.675" x2="-1639.5391" y2="2506.5225" gradientTransform="matrix(0.7772 -0.6292 0.6292 0.7772 790.9725 -2696.7898)">
				<stop  offset="0.615" style="stop-color:#007C74"/>
				<stop  offset="0.6952" style="stop-color:#00867F"/>
				<stop  offset="0.8519" style="stop-color:#34A39C"/>
				<stop  offset="1" style="stop-color:#5BC4BF"/>
			</linearGradient>
			<path fill="url(#SVGID_48_)" d="M1095.601,263.5c-20.42-2.148-43.843-16.15-56.867-30.879c4.362-6.828,16.943,0.568,24.149,1.326
				c-12.202-10.999,8.85-14.857,15.962-7.429c-0.76-15.868,21.494,3.476,25.256,8.122c-3.098-5.184-18.651-18.964-12.803-22.6
				c9.704-5.659,26.237,16.119,29.208,22.504c-7.461-21.43,5.088-19.503,18.364-7.176c5.5,5.436,19.284,36.033,1.361,27.468
				c8.44,6.353,2.783,19.724,1.898,28.132c-11.759-3.666-29.872-21.966-41.725-18.963"/>
		</g>
		<g>
			
				<linearGradient id="SVGID_49_" gradientUnits="userSpaceOnUse" x1="-5385.9707" y1="1976.7076" x2="-5385.9707" y2="1913.4943" gradientTransform="matrix(-0.8708 0.4917 0.4917 0.8708 -4569.3491 1195.9711)">
				<stop  offset="0.615" style="stop-color:#007C74"/>
				<stop  offset="0.6952" style="stop-color:#00867F"/>
				<stop  offset="0.8519" style="stop-color:#34A39C"/>
				<stop  offset="1" style="stop-color:#5BC4BF"/>
			</linearGradient>
			<path fill="url(#SVGID_49_)" d="M1083.51,227.086c5.595-5.673,10.353,6.094,13.251,10.113c3.167,4.496,18.564,32.878,2.6,22.411
				c-5.886,9.608-26.363-7.737-32.243-12.586c-4.865-4.165-13.475-19.413-18.447-15.977c-2.169-13.857,9.659-17.394,19.244-7.096
				c4.58-6.357,20.392,20.534,22.399,26.314c-1.261-5.572-2.315-11.89-5.005-16.655"/>
		</g>
		<g>
			
				<linearGradient id="SVGID_50_" gradientUnits="userSpaceOnUse" x1="-1781.5332" y1="2162.1008" x2="-1816.3518" y2="2202.387" gradientTransform="matrix(0.7566 -0.6539 0.6539 0.7566 949.6592 -2574.8835)">
				<stop  offset="0.615" style="stop-color:#007C74"/>
				<stop  offset="0.6952" style="stop-color:#00867F"/>
				<stop  offset="0.8519" style="stop-color:#34A39C"/>
				<stop  offset="1" style="stop-color:#5BC4BF"/>
			</linearGradient>
			<path fill="url(#SVGID_50_)" d="M1024.562,273.798c4.367-1.111,8.733-2.221,12.592-2.893c-1.318-1.524-1.111-4.367-2.428-5.891
				c1.525-1.318,4.065-3.514,5.082-4.392c6.933,2.886,20.316,15.288,20.773,2.465c-0.465-6.701-11.514-18.457-16.922-22.66
				c-9.43-7.829-43.887-25.1-51.02-5.619c12.661-3.84,35.561,2.113,42.82,13.593c-10.076-5.495-25.673-7.107-37.042-7.935
				c-6.123-0.922-15.089-2.051-18.345,3.426c-3.833,6.864,3.633,15.503,9.826,15.477c-9.568-5.935-33.314,12.813-8.011,18.464
				c14.512,3.437,27.68-0.842,42.167-3.597"/>
		</g>
	</g>
	<g>
		<g>
			
				<linearGradient id="SVGID_51_" gradientUnits="userSpaceOnUse" x1="-3219.1919" y1="2752.5596" x2="-3272.3694" y2="2785.697" gradientTransform="matrix(0.5289 -0.8487 0.8487 0.5289 541.2953 -3970.0193)">
				<stop  offset="0" style="stop-color:#009D8E"/>
				<stop  offset="0.2771" style="stop-color:#009E8E"/>
				<stop  offset="0.5472" style="stop-color:#00A091"/>
				<stop  offset="0.8135" style="stop-color:#00A494"/>
				<stop  offset="1" style="stop-color:#00A798"/>
			</linearGradient>
			<path fill="url(#SVGID_51_)" d="M1173.549,275.806c9.958,0.168,19.822-2.742,28.782-4.203c-0.273-1.177-0.095-3.078-1.818-5.158
				c5.431-0.641,11.408,1.071,15.484,2.605c-1.723-2.08-2.994-4.884-5.442-7.416c12.941-3.005,19.749,10.294,25.463,18.886
				c19.716-13.877-15.453-47.868-27.05-55.095c-16.671-10.388-37.039-9.999-53.772,0.705c1.45,0.903,1.723,2.08,3.172,2.983
				c-12.763,1.103-26.061,7.911-35.557,15.075c-10.221,6.713-23.151,17.774-8.119,21.104c7.878,1.891,15.294-3.551,21.902-4.465
				c5.431-0.641,6.523,4.065,14.486,0.977c10.315-3.635,15.641-15.41,25.956-19.045c-7.416,5.442-14.286,13.236-12.1,22.648
				c-13.309-1.25-7.678,12.322-1.617,9.055"/>
		</g>
		<g>
			
				<linearGradient id="SVGID_52_" gradientUnits="userSpaceOnUse" x1="-1595.8973" y1="2448.2012" x2="-1641.1129" y2="2504.0486" gradientTransform="matrix(0.7772 -0.6292 0.6292 0.7772 790.9725 -2696.7898)">
				<stop  offset="0" style="stop-color:#009D8E"/>
				<stop  offset="0.2771" style="stop-color:#009E8E"/>
				<stop  offset="0.5472" style="stop-color:#00A091"/>
				<stop  offset="0.8135" style="stop-color:#00A494"/>
				<stop  offset="1" style="stop-color:#00A798"/>
			</linearGradient>
			<path fill="url(#SVGID_52_)" d="M1092.821,262.568c-20.42-2.148-43.843-16.15-56.867-30.879
				c4.362-6.828,16.943,0.568,24.149,1.326c-12.202-10.999,8.85-14.857,15.962-7.429c-0.76-15.868,21.494,3.476,25.256,8.122
				c-3.098-5.184-18.651-18.964-12.803-22.6c9.704-5.659,26.237,16.119,29.208,22.504c-7.461-21.43,5.088-19.503,18.364-7.176
				c5.5,5.436,19.284,36.033,1.361,27.468c8.44,6.353,2.783,19.724,1.898,28.132c-11.759-3.666-29.872-21.966-41.725-18.963"/>
		</g>
		<g>
			
				<linearGradient id="SVGID_53_" gradientUnits="userSpaceOnUse" x1="-5383.1167" y1="1978.2427" x2="-5383.1167" y2="1915.0293" gradientTransform="matrix(-0.8708 0.4917 0.4917 0.8708 -4569.3491 1195.9711)">
				<stop  offset="0" style="stop-color:#009D8E"/>
				<stop  offset="0.0459" style="stop-color:#00A091"/>
				<stop  offset="0.1093" style="stop-color:#00A495"/>
				<stop  offset="0.174" style="stop-color:#00A797"/>
				<stop  offset="0.2415" style="stop-color:#00A798"/>
				<stop  offset="0.6283" style="stop-color:#00A99A"/>
				<stop  offset="0.8306" style="stop-color:#00ADA2"/>
				<stop  offset="0.9851" style="stop-color:#00B6B0"/>
			</linearGradient>
			<path fill="url(#SVGID_53_)" d="M1081.779,229.826c5.595-5.673,10.353,6.094,13.251,10.113c3.167,4.496,18.564,32.878,2.6,22.411
				c-5.886,9.608-26.363-7.737-32.243-12.586c-4.865-4.165-13.475-19.413-18.447-15.977c-2.169-13.857,9.659-17.394,19.245-7.096
				c4.58-6.357,20.392,20.534,22.399,26.314c-1.261-5.572-2.315-11.89-5.005-16.655"/>
		</g>
		<g>
			
				<linearGradient id="SVGID_54_" gradientUnits="userSpaceOnUse" x1="-1784.6344" y1="2163.0422" x2="-1819.453" y2="2203.3284" gradientTransform="matrix(0.7566 -0.6539 0.6539 0.7566 949.6592 -2574.8835)">
				<stop  offset="0" style="stop-color:#009D8E"/>
				<stop  offset="0.2771" style="stop-color:#009E8E"/>
				<stop  offset="0.5472" style="stop-color:#00A091"/>
				<stop  offset="0.8135" style="stop-color:#00A494"/>
				<stop  offset="1" style="stop-color:#00A798"/>
			</linearGradient>
			<path fill="url(#SVGID_54_)" d="M1022.832,276.538c4.367-1.111,8.733-2.221,12.592-2.893c-1.318-1.524-1.111-4.367-2.428-5.891
				c1.525-1.318,4.065-3.514,5.082-4.392c6.933,2.886,20.316,15.288,20.773,2.465c-0.465-6.701-11.514-18.457-16.922-22.66
				c-9.43-7.829-43.887-25.1-51.02-5.619c12.661-3.84,35.56,2.113,42.82,13.593c-10.076-5.495-25.673-7.107-37.042-7.935
				c-6.123-0.922-15.089-2.051-18.345,3.426c-3.833,6.864,3.633,15.503,9.826,15.477c-9.568-5.935-33.314,12.813-8.011,18.464
				c14.512,3.437,27.68-0.842,42.167-3.597"/>
		</g>
	</g>
</g>
<g opacity="0.1">
	<g opacity="0.2">
		<g>
			
				<linearGradient id="SVGID_55_" gradientUnits="userSpaceOnUse" x1="1366.543" y1="-914.1099" x2="1366.543" y2="-914.1099" gradientTransform="matrix(0.9302 0.3672 -0.3672 0.9302 -1077.9197 760.5792)">
				<stop  offset="0.615" style="stop-color:#007C74"/>
				<stop  offset="0.6952" style="stop-color:#00867F"/>
				<stop  offset="0.8519" style="stop-color:#34A39C"/>
				<stop  offset="1" style="stop-color:#5BC4BF"/>
			</linearGradient>
			<path fill="url(#SVGID_55_)" d="M528.807,412.058"/>
		</g>
	</g>
	<g>
		<g>
			
				<linearGradient id="SVGID_56_" gradientUnits="userSpaceOnUse" x1="876.9635" y1="-819.1546" x2="978.2284" y2="-819.1546" gradientTransform="matrix(0.9302 0.3672 -0.3672 0.9302 -1077.9197 760.5792)">
				<stop  offset="0.5134" style="stop-color:#43BEAD"/>
				<stop  offset="0.7379" style="stop-color:#58BCAE"/>
				<stop  offset="1" style="stop-color:#70BDB2"/>
			</linearGradient>
			<path fill="url(#SVGID_56_)" d="M93.714,318.125c-17.153-3.67-40.94,5.541-45.14,24.035
				c-4.659-23.541-25.976-0.953-19.729,18.564c6.529,22.729,20.717,22.129,41.575,16.411c30.493-6.565,77.221-34.623,80.009-69.175
				c-10.976,0.318-22.729,6.529-31.27,12.459"/>
		</g>
		<g>
			
				<linearGradient id="SVGID_57_" gradientUnits="userSpaceOnUse" x1="1052.0496" y1="-876.8839" x2="1243.5193" y2="-876.8839" gradientTransform="matrix(0.9302 0.3672 -0.3672 0.9302 -1077.9197 760.5792)">
				<stop  offset="0.5134" style="stop-color:#43BEAD"/>
				<stop  offset="0.7379" style="stop-color:#58BCAE"/>
				<stop  offset="1" style="stop-color:#70BDB2"/>
			</linearGradient>
			<path fill="url(#SVGID_57_)" d="M262.425,323.488c-21.491,2.665-49.665,17.556-50.849,39.385c1.608,0.635,3.215,1.269,6.43,2.538
				c-6.388,6.769-13.41,15.145-14.976,23.817c38.497-3.384,70.352-55.842,115.448-19.46c-1.269,3.215-3.511,4.188-4.78,7.403
				c28.598,7.572,74.075-13.495,103.264-16.837c-11.084-37.82-65.656-40.781-96.411-28.766
				c-7.784-17.937-28.64-16.879-44.335-10.068"/>
		</g>
		<g>
			
				<linearGradient id="SVGID_58_" gradientUnits="userSpaceOnUse" x1="1162.2906" y1="-888.3605" x2="1357.5851" y2="-888.3605" gradientTransform="matrix(0.9302 0.3672 -0.3672 0.9302 -1077.9197 760.5792)">
				<stop  offset="0.5134" style="stop-color:#43BEAD"/>
				<stop  offset="0.7379" style="stop-color:#58BCAE"/>
				<stop  offset="1" style="stop-color:#70BDB2"/>
			</linearGradient>
			<path fill="url(#SVGID_58_)" d="M328.843,390.582c-9.265,9.349-16.922,19.333-22.336,28.344
				c21.829,1.184,38.497-3.384,58.718-2.835c23.098-2.031,48.1-8.884,72.805-10.28c13.157-0.381,34.351,2.411,48.142,0.423
				c12.818-4.23,33.928-20.052,47.677-31.348c-18.656-9.222-29.782,14.257-47.761,12.734c-16.372-0.888-20.645-23.013-43.362-7.826
				c-14.299-39.089-71.579-2.242-92.392,8.123"/>
		</g>
		<g>
			
				<linearGradient id="SVGID_59_" gradientUnits="userSpaceOnUse" x1="1343.7589" y1="-918.5321" x2="1611.6406" y2="-918.5321" gradientTransform="matrix(0.9302 0.3672 -0.3672 0.9302 -1077.9197 760.5792)">
				<stop  offset="0.5134" style="stop-color:#43BEAD"/>
				<stop  offset="0.7379" style="stop-color:#58BCAE"/>
				<stop  offset="1" style="stop-color:#70BDB2"/>
			</linearGradient>
			<path fill="url(#SVGID_59_)" d="M494.972,435.72c8.715,10.872,13.58,22.083,13.961,35.239
				c13.157-0.381,11.549-1.015,14.172,11.168c21.152-6.515,113.037-55.715,125.389-21.11c31.728-9.772,47.423-16.583,81.478-8.715
				c13.495,3.469,28.936,11.422,42.093,11.041c8.757-50.427-56.984-39.216-90.362-39.385c33.758-57.28-144.765-75.724-165.959-7.91"
				/>
		</g>
		<g>
			
				<linearGradient id="SVGID_60_" gradientUnits="userSpaceOnUse" x1="1384.2097" y1="-1046.0298" x2="1618.5537" y2="-1046.0298" gradientTransform="matrix(0.9302 0.3672 -0.3672 0.9302 -1077.9197 760.5792)">
				<stop  offset="0.5134" style="stop-color:#43BEAD"/>
				<stop  offset="0.7379" style="stop-color:#58BCAE"/>
				<stop  offset="1" style="stop-color:#70BDB2"/>
			</linearGradient>
			<path fill="url(#SVGID_60_)" d="M677.979,311.006c7.361-4.527,17.26-15.483,17.218-24.79
				c-2.031-23.098-15.103-4.103-29.867-4.357c-9.307,0.042-9.349-9.265-23.775-5.669c-13.791,1.988-30.078,19.714-39.343,29.063
				c-21.406,21.279-33.801,47.973-39.766,77.205c30.417-15.864,132.877-68.322,155.595-12.903
				c41.585-30.036,79.659-55.884,127.081-72.467c-15.779-11.803-38.835-0.465-56.138,5.711
				c20.898-62.356-92.688,13.58-105.464,27.117c7.995-6.134-0.042-9.307,0.254-14.764"/>
		</g>
	</g>
</g>
</svg>
