<?xml version="1.0" encoding="utf-8"?>
<!-- Generator: Adobe Illustrator 17.0.0, SVG Export Plug-In . SVG Version: 6.00 Build 0)  -->
<!DOCTYPE svg PUBLIC "-//W3C//DTD SVG 1.1//EN" "http://www.w3.org/Graphics/SVG/1.1/DTD/svg11.dtd">
<svg version="1.1" id="Layer_1" xmlns="http://www.w3.org/2000/svg" xmlns:xlink="http://www.w3.org/1999/xlink" x="0px" y="0px"
	 width="1280px" height="130.648px" viewBox="0 0 1280 130.648" enable-background="new 0 0 1280 130.648" xml:space="preserve">
<linearGradient id="SVGID_1_" gradientUnits="userSpaceOnUse" x1="640.0002" y1="130.4098" x2="640.0002" y2="4.491318e-05">
	<stop  offset="0" style="stop-color:#00A9D6"/>
	<stop  offset="0.1843" style="stop-color:#009CB4"/>
	<stop  offset="0.4194" style="stop-color:#008D95"/>
	<stop  offset="0.6407" style="stop-color:#00837F"/>
	<stop  offset="0.8405" style="stop-color:#007C73"/>
	<stop  offset="1" style="stop-color:#007A6F"/>
</linearGradient>
<path fill="url(#SVGID_1_)" d="M1280,22.213c0,0-88.763-20.772-117.633-21.541c-25.918-0.69-67.694-3.091-103.341,8.715
	c-104.115,34.485-374.096-9.835-463.624,9.68c-38.065,8.297-181.177-3.871-185.041-7.676c-5.422-5.339-76.143,9.137-97.463,12.183
	C209.173,38.391,186.589,22.759,148.88,34.289C96.741,50.23,0,22.217,0,22.217v108.085l1280,0.108V22.213z"/>
<g opacity="0.05">
	<g>
		<g>
			
				<linearGradient id="SVGID_2_" gradientUnits="userSpaceOnUse" x1="2133.5769" y1="1355.1266" x2="2037.5543" y2="1248.2549" gradientTransform="matrix(0.7322 -0.0353 0.0326 0.6756 -553.2169 -709.0745)">
				<stop  offset="0.0711" style="stop-color:#43BEAD"/>
				<stop  offset="0.4997" style="stop-color:#58BCAE"/>
				<stop  offset="1" style="stop-color:#70BDB2"/>
			</linearGradient>
			<path fill="url(#SVGID_2_)" d="M1098.125,66.79c-17.147-23.364-49.631-32.549-78.435-25.786
				c-43.269,8.804-52.084,37.451-63.547,71.6c-16.663-20.867-19.269,17.985-19.269,17.985l40.551-0.16
				c0,0,16.787-17.093,29.446-22.957c21.473-7.754,74.366,1.792,85.344-12.176"/>
		</g>
		<g>
			
				<linearGradient id="SVGID_3_" gradientUnits="userSpaceOnUse" x1="1975.5868" y1="1317.8347" x2="1920.9087" y2="1256.9788" gradientTransform="matrix(0.7322 -0.0353 0.0326 0.6756 -553.2169 -709.0745)">
				<stop  offset="0.0711" style="stop-color:#43BEAD"/>
				<stop  offset="0.4997" style="stop-color:#58BCAE"/>
				<stop  offset="1" style="stop-color:#70BDB2"/>
			</linearGradient>
			<path fill="url(#SVGID_3_)" d="M976.227,45.787c-45.126,8.175-72.417,84.787-72.417,84.787l-4.569,0.012
				c0,0,0.482-34.46-1.576-52.792c-14.272,6.063-17.856,22.363-23.087,34.709c-8.17-18.421-20.666-5.724-25.962,5.283
				c-1.775,3.689-2.71,12.615-2.71,12.615l69.727,0.004c0,0,35.084-44.679,52.038-50.609"/>
		</g>
		<g>
			
				<linearGradient id="SVGID_4_" gradientUnits="userSpaceOnUse" x1="1829.202" y1="1279.2548" x2="1770.489" y2="1213.9081" gradientTransform="matrix(0.7322 -0.0353 0.0326 0.6756 -553.2169 -709.0745)">
				<stop  offset="0.0711" style="stop-color:#43BEAD"/>
				<stop  offset="0.4997" style="stop-color:#58BCAE"/>
				<stop  offset="1" style="stop-color:#70BDB2"/>
			</linearGradient>
			<path fill="url(#SVGID_4_)" d="M873.736,34.599c-47.855-25.915-156.835,39.811-118.118,87.668
				c7.072-4.372,12.69-8.675,12.302-16.719c0.485,40.293,42.946-15.508,48.306-25.174c8.137-12.487,12.238-18.06,28.028-22.853
				c10.042-3.172,20.666,5.724,24.444-6.553"/>
		</g>
		<g>
			
				<linearGradient id="SVGID_5_" gradientUnits="userSpaceOnUse" x1="1708.3011" y1="1229.3481" x2="1684.5303" y2="1202.8915" gradientTransform="matrix(0.7322 -0.0353 0.0326 0.6756 -553.2169 -709.0745)">
				<stop  offset="0.0711" style="stop-color:#43BEAD"/>
				<stop  offset="0.4997" style="stop-color:#58BCAE"/>
				<stop  offset="1" style="stop-color:#70BDB2"/>
			</linearGradient>
			<path fill="url(#SVGID_5_)" d="M774.087,21.93c-24.573,3.872-100.036,39.761-79.531,72.37
				c16.985-10.226,35.293-23.203,46.207-38.511"/>
		</g>
		<g>
			
				<linearGradient id="SVGID_6_" gradientUnits="userSpaceOnUse" x1="1819.5162" y1="1339.9315" x2="1722.1869" y2="1231.6055" gradientTransform="matrix(0.7322 -0.0353 0.0326 0.6756 -553.2169 -709.0745)">
				<stop  offset="0.0711" style="stop-color:#43BEAD"/>
				<stop  offset="0.4997" style="stop-color:#58BCAE"/>
				<stop  offset="1" style="stop-color:#70BDB2"/>
			</linearGradient>
			<path fill="url(#SVGID_6_)" d="M719.84,105.177c-6.184,7.689-0.068,25.033-0.068,25.033l104.402,0.438
				c0,0,0.92-17.149-0.778-22.398c28.997-2.741,16.564-49.178,5.682-63.436c-21.894-31.198-50.018,19.881-60.544,43.234
				c-9.623-18.351-26.318-32.329-36.715-6.294"/>
		</g>
	</g>
</g>
</svg>
