<?xml version="1.0" encoding="utf-8"?>
<!-- Generator: Adobe Illustrator 17.0.0, SVG Export Plug-In . SVG Version: 6.00 Build 0)  -->
<!DOCTYPE svg PUBLIC "-//W3C//DTD SVG 1.1//EN" "http://www.w3.org/Graphics/SVG/1.1/DTD/svg11.dtd">
<svg version="1.1" id="Layer_1" xmlns="http://www.w3.org/2000/svg" xmlns:xlink="http://www.w3.org/1999/xlink" x="0px" y="0px"
	 width="1280px" height="2465px" viewBox="0 0 1280 2465" enable-background="new 0 0 1280 2465" xml:space="preserve">
<radialGradient id="SVGID_1_" cx="958.0135" cy="2028.915" r="5.8225" gradientTransform="matrix(1 0 0 -1 -285.5 2057)" gradientUnits="userSpaceOnUse">
	<stop  offset="0.1174" style="stop-color:#DEDBC0"/>
	<stop  offset="1" style="stop-color:#FFFFFF;stop-opacity:0"/>
</radialGradient>
<path fill="url(#SVGID_1_)" d="M679.605,31.85c0,0-3.82-0.887-4.938-1.961c-0.999-0.96-2.346-5.989-2.346-5.989
	s-1.032,5.184-1.98,6.099c-1.213,1.171-4.919,2.271-4.919,2.271"/>
<radialGradient id="SVGID_2_" cx="98.6931" cy="409.7933" r="7.0158" gradientUnits="userSpaceOnUse">
	<stop  offset="0.1174" style="stop-color:#DDDABF"/>
	<stop  offset="1" style="stop-color:#FFFFFF;stop-opacity:0"/>
</radialGradient>
<path fill="url(#SVGID_2_)" d="M98.522,402.133c0,0-0.917,4.609-1.761,5.423c-1.078,1.041-4.374,2.019-4.374,2.019
	s3.415,1.121,4.484,2.335c0.896,1.018,2.055,5.543,2.055,5.543s1.023-4.599,1.9-5.664c0.881-1.07,4.172-2.588,4.172-2.588
	s-3.397-0.789-4.391-1.744C99.72,406.604,98.522,402.133,98.522,402.133z"/>
<radialGradient id="SVGID_3_" cx="61.4367" cy="382.0291" r="7.0158" gradientUnits="userSpaceOnUse">
	<stop  offset="0.1174" style="stop-color:#DDDABF"/>
	<stop  offset="1" style="stop-color:#FFFFFF;stop-opacity:0"/>
</radialGradient>
<path fill="url(#SVGID_3_)" d="M61.265,374.369c0,0-0.917,4.609-1.761,5.423c-1.078,1.041-4.374,2.019-4.374,2.019
	s3.415,1.121,4.484,2.335c0.896,1.018,2.055,5.543,2.055,5.543s1.023-4.599,1.9-5.664c0.881-1.07,4.172-2.588,4.172-2.588
	s-3.397-0.789-4.391-1.744C62.464,378.84,61.265,374.369,61.265,374.369z"/>
<radialGradient id="SVGID_4_" cx="50.0076" cy="461.8884" r="7.0158" gradientUnits="userSpaceOnUse">
	<stop  offset="0.1174" style="stop-color:#DDDABF"/>
	<stop  offset="1" style="stop-color:#FFFFFF;stop-opacity:0"/>
</radialGradient>
<path fill="url(#SVGID_4_)" d="M49.836,454.228c0,0-0.917,4.609-1.761,5.423c-1.078,1.041-4.374,2.019-4.374,2.019
	s3.415,1.121,4.484,2.335c0.896,1.018,2.055,5.543,2.055,5.543s1.023-4.599,1.9-5.664c0.881-1.07,4.172-2.588,4.172-2.588
	s-3.397-0.789-4.391-1.744C51.034,458.699,49.836,454.228,49.836,454.228z"/>
<radialGradient id="SVGID_5_" cx="92.669" cy="374.3688" r="11.0123" gradientUnits="userSpaceOnUse">
	<stop  offset="0.1174" style="stop-color:#DDDABF"/>
	<stop  offset="1" style="stop-color:#FFFFFF;stop-opacity:0"/>
</radialGradient>
<path fill="url(#SVGID_5_)" d="M92.4,362.345c0,0-1.44,7.234-2.763,8.512c-1.693,1.634-6.866,3.169-6.866,3.169
	s5.361,1.76,7.038,3.666c1.406,1.598,3.226,8.7,3.226,8.7s1.606-7.219,2.982-8.89c1.383-1.679,6.549-4.063,6.549-4.063
	s-5.331-1.238-6.892-2.737C94.281,369.363,92.4,362.345,92.4,362.345z"/>
<radialGradient id="SVGID_6_" cx="1224.162" cy="386.9567" r="7.0158" gradientUnits="userSpaceOnUse">
	<stop  offset="0.1174" style="stop-color:#DDDABF"/>
	<stop  offset="1" style="stop-color:#FFFFFF;stop-opacity:0"/>
</radialGradient>
<path fill="url(#SVGID_6_)" d="M1223.991,379.296c0,0-0.917,4.609-1.76,5.423c-1.078,1.041-4.374,2.019-4.374,2.019
	s3.415,1.121,4.484,2.335c0.896,1.018,2.055,5.543,2.055,5.543s1.023-4.599,1.9-5.664c0.881-1.07,4.172-2.588,4.172-2.588
	s-3.397-0.789-4.391-1.744C1225.189,383.768,1223.991,379.296,1223.991,379.296z"/>
<radialGradient id="SVGID_7_" cx="1186.9056" cy="359.1925" r="7.0158" gradientUnits="userSpaceOnUse">
	<stop  offset="0.1174" style="stop-color:#DDDABF"/>
	<stop  offset="1" style="stop-color:#FFFFFF;stop-opacity:0"/>
</radialGradient>
<path fill="url(#SVGID_7_)" d="M1186.734,351.532c0,0-0.917,4.609-1.76,5.423c-1.078,1.041-4.374,2.019-4.374,2.019
	s3.415,1.121,4.484,2.335c0.896,1.018,2.055,5.543,2.055,5.543s1.023-4.599,1.9-5.664c0.881-1.07,4.172-2.588,4.172-2.588
	s-3.397-0.789-4.391-1.744C1187.932,356.004,1186.734,351.532,1186.734,351.532z"/>
<radialGradient id="SVGID_8_" cx="985.8427" cy="305.4539" r="7.0158" gradientUnits="userSpaceOnUse">
	<stop  offset="0.1174" style="stop-color:#DDDABF"/>
	<stop  offset="1" style="stop-color:#FFFFFF;stop-opacity:0"/>
</radialGradient>
<path fill="url(#SVGID_8_)" d="M985.671,297.794c0,0-0.917,4.609-1.76,5.423c-1.078,1.041-4.374,2.019-4.374,2.019
	s3.415,1.121,4.484,2.335c0.896,1.018,2.055,5.543,2.055,5.543s1.023-4.599,1.9-5.664c0.881-1.07,4.172-2.588,4.172-2.588
	s-3.397-0.789-4.391-1.744C986.869,302.265,985.671,297.794,985.671,297.794z"/>
<radialGradient id="SVGID_9_" cx="1218.1378" cy="351.5322" r="11.0123" gradientUnits="userSpaceOnUse">
	<stop  offset="0.1174" style="stop-color:#DDDABF"/>
	<stop  offset="1" style="stop-color:#FFFFFF;stop-opacity:0"/>
</radialGradient>
<path fill="url(#SVGID_9_)" d="M1217.869,339.508c0,0-1.44,7.234-2.763,8.512c-1.693,1.634-6.865,3.17-6.865,3.17
	s5.361,1.76,7.038,3.666c1.406,1.598,3.226,8.7,3.226,8.7s1.606-7.219,2.983-8.89c1.383-1.679,6.549-4.063,6.549-4.063
	s-5.331-1.238-6.892-2.737C1219.75,346.527,1217.869,339.508,1217.869,339.508z"/>
<radialGradient id="SVGID_10_" cx="1182.0217" cy="295.2235" r="7.0158" gradientUnits="userSpaceOnUse">
	<stop  offset="0.1174" style="stop-color:#DDDABF"/>
	<stop  offset="1" style="stop-color:#FFFFFF;stop-opacity:0"/>
</radialGradient>
<path fill="url(#SVGID_10_)" d="M1181.85,287.563c0,0-0.917,4.609-1.761,5.423c-1.078,1.041-4.374,2.019-4.374,2.019
	s3.415,1.121,4.484,2.335c0.896,1.018,2.055,5.543,2.055,5.543s1.023-4.599,1.9-5.664c0.881-1.07,4.172-2.588,4.172-2.588
	s-3.397-0.789-4.391-1.744C1183.048,292.035,1181.85,287.563,1181.85,287.563z"/>
<radialGradient id="SVGID_11_" cx="541.3587" cy="440.9077" r="7.0158" gradientUnits="userSpaceOnUse">
	<stop  offset="0.1174" style="stop-color:#DDDABF"/>
	<stop  offset="1" style="stop-color:#FFFFFF;stop-opacity:0"/>
</radialGradient>
<path fill="url(#SVGID_11_)" d="M541.187,433.247c0,0-0.917,4.609-1.761,5.423c-1.078,1.041-4.374,2.019-4.374,2.019
	s3.415,1.121,4.484,2.335c0.896,1.018,2.055,5.543,2.055,5.543s1.023-4.599,1.9-5.664c0.881-1.07,4.172-2.588,4.172-2.588
	s-3.397-0.789-4.391-1.744C542.385,437.719,541.187,433.247,541.187,433.247z"/>
<radialGradient id="SVGID_12_" cx="1144.9056" cy="445.7752" r="11.0123" gradientUnits="userSpaceOnUse">
	<stop  offset="0.1174" style="stop-color:#DDDABF"/>
	<stop  offset="1" style="stop-color:#FFFFFF;stop-opacity:0"/>
</radialGradient>
<path fill="url(#SVGID_12_)" d="M1144.637,433.751c0,0-1.44,7.234-2.763,8.512c-1.693,1.634-6.865,3.169-6.865,3.169
	s5.361,1.76,7.038,3.666c1.406,1.598,3.226,8.7,3.226,8.7s1.606-7.219,2.982-8.89c1.383-1.679,6.549-4.063,6.549-4.063
	s-5.331-1.238-6.892-2.737C1146.517,440.77,1144.637,433.751,1144.637,433.751z"/>
<linearGradient id="SVGID_13_" gradientUnits="userSpaceOnUse" x1="10445.7139" y1="272.6404" x2="10531.6172" y2="272.6404" gradientTransform="matrix(-1 0 0 1 10758.5527 0)">
	<stop  offset="0" style="stop-color:#EBF7FD"/>
	<stop  offset="1" style="stop-color:#FFF25D"/>
</linearGradient>
<path opacity="0.2" fill="url(#SVGID_13_)" d="M284.083,272.618c0,0,0.006,0.011,0.011,0.021c0.015,0.008,0.029,0.016,0.043,0.025
	C284.12,272.648,284.1,272.633,284.083,272.618z"/>
<radialGradient id="SVGID_14_" cx="1127.5702" cy="108.5848" r="11.0123" gradientUnits="userSpaceOnUse">
	<stop  offset="0.1174" style="stop-color:#DDDABF"/>
	<stop  offset="1" style="stop-color:#FFFFFF;stop-opacity:0"/>
</radialGradient>
<path fill="url(#SVGID_14_)" d="M1127.301,96.561c0,0-1.44,7.234-2.763,8.512c-1.693,1.634-6.866,3.17-6.866,3.17
	s5.361,1.76,7.038,3.666c1.406,1.598,3.226,8.7,3.226,8.7s1.606-7.219,2.982-8.89c1.383-1.679,6.549-4.063,6.549-4.063
	s-5.331-1.238-6.892-2.737C1129.182,103.579,1127.301,96.561,1127.301,96.561z"/>
<radialGradient id="SVGID_15_" cx="790.5892" cy="71.6083" r="7.8047" gradientUnits="userSpaceOnUse">
	<stop  offset="0.1174" style="stop-color:#DDDABF"/>
	<stop  offset="1" style="stop-color:#FFFFFF;stop-opacity:0"/>
</radialGradient>
<path fill="url(#SVGID_15_)" d="M790.399,63.087c0,0-1.02,5.127-1.958,6.033c-1.2,1.158-4.866,2.246-4.866,2.246
	s3.799,1.247,4.988,2.598c0.997,1.132,2.286,6.166,2.286,6.166s1.138-5.116,2.114-6.3c0.98-1.19,4.641-2.879,4.641-2.879
	s-3.778-0.877-4.884-1.94C791.731,68.061,790.399,63.087,790.399,63.087z"/>
<radialGradient id="SVGID_16_" cx="747.7202" cy="131.1628" r="7.1875" gradientUnits="userSpaceOnUse">
	<stop  offset="0.1174" style="stop-color:#DDDABF"/>
	<stop  offset="1" style="stop-color:#FFFFFF;stop-opacity:0"/>
</radialGradient>
<path fill="url(#SVGID_16_)" d="M747.545,123.315c0,0-0.94,4.722-1.804,5.556c-1.105,1.067-4.481,2.069-4.481,2.069
	s3.499,1.149,4.594,2.393c0.918,1.043,2.105,5.678,2.105,5.678s1.048-4.711,1.947-5.802c0.903-1.096,4.274-2.652,4.274-2.652
	s-3.48-0.808-4.498-1.786C748.772,127.896,747.545,123.315,747.545,123.315z"/>
<radialGradient id="SVGID_17_" cx="672.5128" cy="33.5151" r="7.8908" gradientUnits="userSpaceOnUse">
	<stop  offset="0.1174" style="stop-color:#DDDABF"/>
	<stop  offset="1" style="stop-color:#FFFFFF;stop-opacity:0"/>
</radialGradient>
<path fill="url(#SVGID_17_)" d="M672.32,24.899c0,0-1.032,5.184-1.98,6.099c-1.213,1.171-4.919,2.271-4.919,2.271
	s3.841,1.261,5.043,2.627c1.008,1.145,2.312,6.234,2.312,6.234s1.151-5.172,2.137-6.37c0.991-1.203,4.692-2.911,4.692-2.911
	s-3.82-0.887-4.938-1.961C673.668,29.928,672.32,24.899,672.32,24.899z"/>
<radialGradient id="SVGID_18_" cx="1104.5687" cy="52.9574" r="8.8533" gradientUnits="userSpaceOnUse">
	<stop  offset="0.1174" style="stop-color:#DDDABF"/>
	<stop  offset="1" style="stop-color:#FFFFFF;stop-opacity:0"/>
</radialGradient>
<path fill="url(#SVGID_18_)" d="M1104.353,43.291c0,0-1.157,5.816-2.222,6.843c-1.361,1.314-5.52,2.548-5.52,2.548
	s4.31,1.415,5.659,2.947c1.131,1.284,2.593,6.995,2.593,6.995s1.291-5.803,2.398-7.147c1.112-1.35,5.265-3.266,5.265-3.266
	s-4.286-0.995-5.541-2.201C1105.864,48.933,1104.353,43.291,1104.353,43.291z"/>
<radialGradient id="SVGID_19_" cx="129.4215" cy="79.4515" r="7.8047" gradientUnits="userSpaceOnUse">
	<stop  offset="0.1174" style="stop-color:#DDDABF"/>
	<stop  offset="1" style="stop-color:#FFFFFF;stop-opacity:0"/>
</radialGradient>
<path fill="url(#SVGID_19_)" d="M129.231,70.93c0,0-1.02,5.127-1.958,6.033c-1.2,1.158-4.866,2.246-4.866,2.246
	s3.799,1.247,4.988,2.598c0.997,1.132,2.286,6.166,2.286,6.166s1.138-5.116,2.114-6.3c0.98-1.19,4.641-2.879,4.641-2.879
	s-3.778-0.877-4.884-1.94C130.564,75.904,129.231,70.93,129.231,70.93z"/>
<radialGradient id="SVGID_20_" cx="155.2556" cy="116.1056" r="7.8047" gradientUnits="userSpaceOnUse">
	<stop  offset="0.1174" style="stop-color:#DDDABF"/>
	<stop  offset="1" style="stop-color:#FFFFFF;stop-opacity:0"/>
</radialGradient>
<path fill="url(#SVGID_20_)" d="M155.065,107.584c0,0-1.02,5.127-1.958,6.033c-1.2,1.158-4.866,2.246-4.866,2.246
	s3.799,1.247,4.988,2.598c0.997,1.132,2.286,6.166,2.286,6.166s1.138-5.116,2.114-6.3c0.98-1.19,4.641-2.879,4.641-2.879
	s-3.778-0.877-4.884-1.94C156.398,112.558,155.065,107.584,155.065,107.584z"/>
<radialGradient id="SVGID_21_" cx="398.2564" cy="237.0152" r="3.4765" gradientUnits="userSpaceOnUse">
	<stop  offset="0.1174" style="stop-color:#DDDABF"/>
	<stop  offset="1" style="stop-color:#FFFFFF;stop-opacity:0"/>
</radialGradient>
<path fill="url(#SVGID_21_)" d="M398.172,233.219c0,0-0.455,2.284-0.872,2.687c-0.534,0.516-2.167,1.001-2.167,1.001
	s1.692,0.556,2.222,1.157c0.444,0.504,1.018,2.747,1.018,2.747s0.507-2.279,0.942-2.807c0.437-0.53,2.067-1.283,2.067-1.283
	s-1.683-0.391-2.176-0.864C398.765,235.435,398.172,233.219,398.172,233.219z"/>
<radialGradient id="SVGID_22_" cx="409.764" cy="253.3425" r="3.4765" gradientUnits="userSpaceOnUse">
	<stop  offset="0.1174" style="stop-color:#DDDABF"/>
	<stop  offset="1" style="stop-color:#FFFFFF;stop-opacity:0"/>
</radialGradient>
<path fill="url(#SVGID_22_)" d="M409.679,249.547c0,0-0.455,2.284-0.872,2.687c-0.534,0.516-2.167,1.001-2.167,1.001
	s1.692,0.556,2.222,1.157c0.444,0.504,1.018,2.747,1.018,2.747s0.507-2.279,0.942-2.806c0.437-0.53,2.067-1.283,2.067-1.283
	s-1.683-0.391-2.176-0.864C410.273,251.762,409.679,249.547,409.679,249.547z"/>
<radialGradient id="SVGID_23_" cx="94.0915" cy="100.567" r="4.043" gradientUnits="userSpaceOnUse">
	<stop  offset="0.1174" style="stop-color:#DDDABF"/>
	<stop  offset="1" style="stop-color:#FFFFFF;stop-opacity:0"/>
</radialGradient>
<path fill="url(#SVGID_23_)" d="M93.993,96.153c0,0-0.529,2.656-1.015,3.125c-0.621,0.6-2.521,1.164-2.521,1.164
	s1.968,0.646,2.584,1.346c0.516,0.587,1.184,3.194,1.184,3.194s0.59-2.65,1.095-3.264c0.508-0.616,2.404-1.492,2.404-1.492
	s-1.957-0.454-2.53-1.005C94.683,98.729,93.993,96.153,93.993,96.153z"/>
<radialGradient id="SVGID_24_" cx="38.9175" cy="262.0509" r="4.043" gradientUnits="userSpaceOnUse">
	<stop  offset="0.1174" style="stop-color:#DDDABF"/>
	<stop  offset="1" style="stop-color:#FFFFFF;stop-opacity:0"/>
</radialGradient>
<path fill="url(#SVGID_24_)" d="M38.819,257.637c0,0-0.529,2.656-1.015,3.125c-0.621,0.6-2.521,1.164-2.521,1.164
	s1.968,0.646,2.584,1.346c0.516,0.587,1.184,3.194,1.184,3.194s0.59-2.65,1.095-3.264c0.508-0.616,2.404-1.492,2.404-1.492
	s-1.957-0.454-2.53-1.005C39.509,260.213,38.819,257.637,38.819,257.637z"/>
<radialGradient id="SVGID_25_" cx="1033.6162" cy="203.7617" r="7.0158" gradientUnits="userSpaceOnUse">
	<stop  offset="0.1174" style="stop-color:#DDDABF"/>
	<stop  offset="1" style="stop-color:#FFFFFF;stop-opacity:0"/>
</radialGradient>
<path fill="url(#SVGID_25_)" d="M1033.445,196.101c0,0-0.917,4.609-1.76,5.423c-1.078,1.041-4.374,2.019-4.374,2.019
	s3.415,1.121,4.484,2.335c0.896,1.018,2.055,5.543,2.055,5.543s1.023-4.599,1.9-5.664c0.881-1.07,4.172-2.588,4.172-2.588
	s-3.397-0.789-4.391-1.744C1034.643,200.573,1033.445,196.101,1033.445,196.101z"/>
</svg>
