<?xml version="1.0" encoding="utf-8"?>
<!-- Generator: Adobe Illustrator 17.0.0, SVG Export Plug-In . SVG Version: 6.00 Build 0)  -->
<!DOCTYPE svg PUBLIC "-//W3C//DTD SVG 1.1//EN" "http://www.w3.org/Graphics/SVG/1.1/DTD/svg11.dtd">
<svg version="1.1" id="Layer_1" xmlns="http://www.w3.org/2000/svg" xmlns:xlink="http://www.w3.org/1999/xlink" x="0px" y="0px"
	 width="1154.893px" height="1165.381px" viewBox="0 0 1154.893 1165.381" enable-background="new 0 0 1154.893 1165.381"
	 xml:space="preserve">
<path fill="#F4EFED" d="M0.963,791.281c3.1,8.294,19.618,18.053,27.056,22.858c7.274,4.698,31.255,14.928,31.255,14.928
	s-5.585,2.824-7.464,3.732c-1.738,0.84-6.098,1.557-6.997,3.265c-1.322,2.511,6.064,18.193,1.866,11.196
	c-2.13-3.55-13.633-2.927-16.56,0c-1.649,1.649-1.411,7.473,0,9.33c6.848,9.012,32.403,10.599,43.617,12.129
	c13.751,1.876,34.52,0,48.049-1.399c1.392-0.144,8.349-3.114,7.464-4.198c-3.312-4.058-16.434-0.928-20.526-4.198
	c-1.799-1.438-3.79-8.397-3.79-8.397s4.441-2.876,6.122-2.799c5.888,0.269,15.413,8.829,20.992,10.729
	c9.657,3.289,29.944,6.722,40.118,7.464c21.185,1.544,84.901-3.265,84.901-3.265s-2.302,5.005-3.732,6.064
	c-4.068,3.014-15.287,2.467-19.593,5.131c-3.163,1.957-7.417,8.337-9.796,11.196c-2.284,2.744-10.418,7.982-8.863,11.196
	c0.965,1.995,6.647,0,8.863,0c30.628,0,93.964,11.097,122.511,0c2.414-0.938,8.075-4.444,7.64-6.997
	c-0.349-2.048-7.64-3.265-7.64-3.265s-19.266,0.14-24.575-3.046c-1.385-0.831-3.717-5.282-3.717-5.282l30.801,5.528
	c0,0,22.457-0.355,29.855-1.399c2.493-0.352,9.459,0.162,9.796-2.332c0.357-2.638-7.054-3.75-9.33-5.131
	c-2.157-1.309-5.982-4.867-8.397-5.598c-4.465-1.352-14.44,1.989-18.66,0c-2.052-0.967-3.689-6.105-5.774-6.997
	c-4.474-1.915-14.607,0.654-19.416,1.399c-2.963,0.459-11.662,2.799-11.662,2.799s8.811-13.646,13.528-15.861
	c8.024-3.767,26.606,0.08,35.453-0.466c13.234-0.817,45.833,5.502,52.713-5.831c1.006-1.657-1.2-6.135-2.799-7.231
	c-3.271-2.241-15.861,0-15.861,0s-10.814-6.961-14.928-7.93c-4.429-1.043-14.046-1.405-18.193,0.466
	c-2.031,0.917-6.064,6.531-6.064,6.531s-3.172-6.612-5.131-7.93c-4.137-2.784-14.748-4.912-19.593-3.732
	c-2.017,0.491-6.997,4.957-6.997,4.957s-15.142-13.264-21.459-15.686c-5.147-1.973-16.562-3.606-21.925-2.332
	c-6.074,1.443-17.594,8.291-20.992,13.528c-0.835,1.287-1.399,5.89-1.399,5.89s-14.884-19.181-21.925-23.15
	c-5.102-2.876-17.029-5.695-22.858-5.131c-5.198,0.503-19.126,8.397-19.126,8.397s-12.446-18.351-18.193-22.858
	c-6.365-4.991-21.335-14.268-29.389-13.528c-2.417,0.222-7.93,5.598-7.93,5.598s-4.778-15.681-8.397-19.593
	c-1.878-2.029-7.046-4.85-9.796-5.131c-3.378-0.346-13.062,3.732-13.062,3.732s-5.762-11.226-9.33-13.062
	c-3.111-1.601-13.995,0-13.995,0s-4.794-14.091-8.397-17.26c-1.571-1.382-5.839-2.695-7.93-2.67
	c-4.343,0.052-13.521,2.621-16.327,5.935c-2.069,2.444-3.324,9.55-2.332,12.595c0.592,1.819,4.665,6.064,4.665,6.064
	s-8.38-5.902-11.662-6.064c-2.509-0.124-8.062,1.563-9.33,3.732c-1.781,3.047,1.866,13.995,1.866,13.995l1.399,5.131l-9.796-1.399
	c0,0-13.185-4.535-17.727-4.198c-1.879,0.139-5.824,1.325-6.997,2.799C0.899,769.58-1.434,784.869,0.963,791.281z"/>
<path fill="#E1DBE1" d="M364.825,828.892c-2.146,0.598-6.064,6.531-6.064,6.531s-3.172-6.612-5.131-7.93
	c-4.137-2.784-14.748-4.912-19.593-3.732c-2.017,0.491-6.531,5.131-6.531,5.131s-15.608-13.439-21.925-15.861
	c-5.147-1.973-16.562-3.607-21.925-2.332c-6.074,1.443-17.594,8.29-20.992,13.528c-0.835,1.287-0.933,6.064-0.933,6.064
	s-15.35-19.355-22.392-23.325c-5.102-2.876-17.029-5.695-22.858-5.131c-5.198,0.503-19.126,8.397-19.126,8.397
	s-12.446-18.351-18.193-22.858c-6.365-4.991-21.335-14.268-29.389-13.528c-2.417,0.222-6.23,5.148-6.23,5.148
	s3.035-1.446,4.131-1.475c2.859-0.076,8.635,1.604,10.963,3.265c3.674,2.623,7.578,11.25,10.496,14.694
	c3.358,3.964,10.366,11.821,14.694,14.694c1.783,1.184,5.897,2.562,7.93,3.23c2.515,0.826,10.263,2.601,10.263,2.601
	s-6.422,1.029-7.464,1.516c-2.356,1.102-4.8,2.189-6.298,4.315c-0.806,1.144,0,5.598,0,5.598s4.873-1.211,6.531-1.166
	c3.562,0.097,10.614,1.825,13.874,3.265c3.396,1.501,12.25,8.397,12.25,8.397s0.051-2.498-0.233-3.265
	c-0.68-1.838-4.665-6.298-4.665-6.298s7.951,2.645,10.03,4.432c1.73,1.487,7.93,7.697,7.93,7.697s-0.753-5.768-1.633-7.464
	c-2.107-4.059-5.526-12.192-9.913-13.485c-2.916-0.86-6.647,0-6.647,0s3.853-2.71,5.365-2.842
	c4.152-0.363,12.095,3.346,15.861,5.131c4.764,2.259,13.525,8.243,17.727,11.429c2.172,1.647,8.164,7.231,8.164,7.231l2.332,3.732
	c0,0-0.578-7.937,0-10.496c0.299-1.323,1.256-4.073,2.332-4.898c3.058-2.346,11.311-2.989,15.161-2.799
	c2.728,0.135,8.005,1.912,10.496,3.032c3.084,1.387,8.321,5.9,11.429,7.231c2.21,0.946,6.927,2.261,9.33,2.332
	c2.846,0.085,11.196-2.099,11.196-2.099s0.382-3.014,1.166-3.499c0.701-0.434,3.265,0.466,3.265,0.466s1.184-0.942,1.633-1.166
	c1.204-0.603,3.788-1.543,5.131-1.633c3.013-0.201,9.309,0.541,11.896,2.099c1.708,1.029,3.969,4.533,4.898,6.298
	c0.627,1.191,1.633,5.131,1.633,5.131s2.974-1.535,3.732-2.332c0.827-0.871,1.58-3.263,2.332-4.198
	c0.829-1.03,2.869-2.76,3.965-3.499c1.297-0.875,4.101-2.343,5.598-2.799c1.743-0.532,5.417-1.109,7.231-0.933
	c2.386,0.232,6.977,1.913,9.097,3.032c1.619,0.855,4.843,2.89,5.831,4.432c0.87,1.358,1.399,6.298,1.399,6.298
	s5.048,1.664,6.764,2.099c2.529,0.641,10.235,2.031,10.235,2.031s5.569-2.762,6.092-4.597c0.531-1.864-1.2-6.135-2.799-7.231
	c-3.271-2.241-15.861,0-15.861,0s-10.057-6.376-13.807-7.577c-2.449-0.785-7.644-1.214-10.216-1.212
	C371.981,827.743,367.145,828.245,364.825,828.892z"/>
<path fill="#F4EFED" d="M664.877,937.112c14.145,3.583,43.427,6.306,58.019,6.368c15.823,0.068,47.323-4.026,62.972-6.368
	c30.5-4.564,91.589-14.749,120.991-24.057c12.911-4.087,37.66-15.413,49.528-21.934c3.633-1.996,14.803-9.662,14.803-9.662
	s-0.028-3.945-1.006-4.842c-5.299-4.861-28.656,2.476-28.656,2.476s-2.123-8.491-12.736-10.259
	c-19.382-3.23-28.302-3.892-28.302-3.892s1.769-32.547-38.915-52.359c-8.07-3.93-27.257-6.498-35.731-3.538
	c-8.73,3.05-22.623,17.394-26.533,25.774c-2.555,5.476-4.706,18.827-1.769,24.108c1.019,1.832,7.429,3.892,7.429,3.892
	s-11.464,26.684-13.49,20.822c-2.783-8.049-21.683-7.319-37.453,0.05c-15.624,7.301-18.75,23.703-18.75,23.703
	s-3.385-7.665-18.042-4.245c-10.613,2.476-13.09,17.689-13.09,17.689s-14.11-0.319-18.75,0.354
	c-5.266,0.764-15.679,3.449-20.519,5.66c-2.61,1.193-9.84,3.512-9.552,6.368C655.584,935.786,662.377,936.479,664.877,937.112z"/>
<path fill="#E1DBE1" d="M970.184,881.923c0.715-0.317,1.852,0.66,0-5.307c-1.592-5.13-28.656,2.476-28.656,2.476
	s-2.123-8.491-12.736-10.259c-19.382-3.23-28.302-3.892-28.302-3.892s1.769-32.547-38.915-52.359
	c-8.07-3.93-27.257-6.498-35.731-3.538c-8.73,3.05-22.623,17.394-26.533,25.774c0,0,4.808-4.59,6.545-5.962
	c2.646-2.092,7.899-6.685,11.144-7.606c14.328-4.068,21.802,1.162,24.41,3.007c16.673,11.796,39.446,55.189,39.446,55.189
	s10.79-3.826,25.826,0.708c10.561,3.184,21.58,11.321,21.58,11.321s25.841-12.58,31.309-13.443c6.722-1.061,7.607-0.387,8.667,0.177
	C969.164,878.701,970.184,881.923,970.184,881.923z"/>
<path fill="#F4EFED" d="M288.979,381.721c0,0-19.654-12.517-27.056-12.129c-14.142,0.742-48.981,28.456-48.981,28.456l-4.665,4.198
	c0,0-4.772-6.204-6.997-7.464c-9.137-5.173-30.585-9.693-41.051-8.863c-11.227,0.89-41.984,16.327-41.984,16.327
	s-10.166-1.347-20.059,5.131C85.123,415.93,82.79,426.97,82.79,426.97s-14.748,5.117-17.26,9.33c-1.254,2.104-1.266,7.7,0,9.796
	c2.588,4.287,12.783,8.528,17.727,9.33c19.225,3.118,77.904,0,77.904,0s-4.016,3.858-4.198,5.598
	c-0.284,2.705,3.517,7.578,5.598,9.33c10.14,8.536,36.419,16.694,49.448,19.126c19.948,3.723,81.169,0,81.169,0
	s2.105,5.587,3.732,6.531c3.228,1.873,18.66,5.131,18.66,5.131l148.81-5.131c0,0,20.44-3.613,20.992-9.33
	c0.137-1.417-3.344-2.734-4.665-3.265c-3.504-1.411-14.928-2.332-14.928-2.332s-7.53-10.519-11.196-12.595
	c-5.473-3.1-18.453-5.157-24.724-4.665c-1.728,0.136-6.531,2.332-6.531,2.332s2.769-5.558,2.332-7.464
	c-1.142-4.986-9.414-12.651-13.995-14.928c-3.99-1.983-13.281-2.178-17.727-1.866c-1.439,0.101-5.598,1.399-5.598,1.399
	s1.967-8.759,0-10.496c-5.987-5.287-19.219-8.711-26.123-9.097c-2.627-0.147-10.263,2.332-10.263,2.332s-7.853-8.786-13.062-11.662
	c-2.07-1.143-6.064,0-6.064,0s4.323-7.598,3.732-10.263c-0.572-2.576-5.026-6.454-7.464-7.464c-5.711-2.365-24.724,0-24.724,0
	h-6.997L288.979,381.721z"/>
<path fill="#F4EFED" d="M157.429,501.142c0,0-4.308-12.751-7.93-14.928c-3.698-2.223-13.242-1.573-17.26,0
	c-7.839,3.068-23.515,14.527-24.724,22.858c-0.33,2.273,1.89,7.025,3.732,8.397c6.601,4.917,24.588,5.834,32.654,4.198
	c1.588-0.322,5.598-3.265,5.598-3.265s3.671,2.84,5.131,3.265c8.846,2.576,27.64,0,36.853,0c3.615,0,11.001,1.048,14.461,0
	c1.61-0.487,5.113-2.121,5.598-3.732c0.71-2.356-3.005-7.159-5.131-8.397c-3.126-1.82-14.461-0.466-14.461-0.466
	s-5.091-10.255-8.397-11.662C177.482,494.826,157.429,501.142,157.429,501.142z"/>
<path fill="#F4EFED" d="M574.938,724.125c0,0-21.459-6.531-33.276,9.641c-4.752,6.502-7.153,31.41-7.153,31.41
	s-9.718,3.359-11.818,5.909c-0.923,1.121-2.213,4.303-1.555,5.598c0.904,1.776,5.52,2.358,7.464,2.799
	c6.926,1.572,21.203,2.22,28.3,2.488c77.671,2.928,189.631-3.227,225.159-6.531c11.853-1.102,42.531-0.275,45.716-9.952
	c2.013-6.115-17.09-9.917-23.013-12.44c-9.174-3.906-30.34-5.617-39.807-2.488c-3.091,1.022-9.952,8.397-9.952,8.397
	s-9.558-5.153-13.062-5.909c-2.204-0.475-9.019,0-9.019,0s-4.435-17.873-9.019-21.459c-6.756-5.285-33.898-5.287-33.898-5.287
	s-3.057-11.285-5.909-13.684c-2.294-1.93-11.662-2.799-11.662-2.799l-4.509-2.177c0,0,10.574-17.105-4.043-25.19
	c-4.014-2.22-13.995-1.244-13.995-1.244s-10.882-8.756-20.215-11.196c-13.995-3.659-41.673-2.67-52.558,28.3
	C570.851,716.135,574.938,724.125,574.938,724.125z"/>
<path fill="#F4EFED" d="M973.126,525.623c0,0,19.126-1.866,28.456-10.263c2.275-2.048,6.531-3.732,5.598-13.995
	c-0.119-1.314-5.598-1.166-5.598-1.166s6.997-5.831,9.33-17.027c3.188-15.301-7.464-17.727-7.464-17.727s18.63-20.007,21.459-28.456
	c1.703-5.087,3.793-13.7,0-17.493c-3.216-3.216-17.727-0.233-17.727-0.233s0.039-26.101-3.732-32.188
	c-4.174-6.737-18.973-13.377-26.823-14.461c-12.46-1.721-35.325,8.994-46.416,14.928c-9.796,5.241-28.341,15.627-33.121,25.657
	c-1.756,3.685-2.099,18.193-2.099,18.193s-16.327-3.499-23.091,8.397c-2.133,3.751,0.156,17.26,0.156,17.26
	s-11.049,4.273-14.461,3.499c-5.799-1.315-15.812-7.972-21.692-8.863c-9.556-1.448-26.174-0.704-34.987,3.265
	c-10.715,4.826-36.62,29.831-36.62,29.831s-7.619-5.131-19.515,0c-3.033,1.308-11.694,6.177-12.595,9.354
	c-1.027,3.622,1.277,11.592,3.965,14.228c4.484,4.397,20.081,1.84,24.258,6.531c2.117,2.377,1.467,4.421,1.467,4.421
	s-6.149-2.073-8.698-3.488c-2.533-1.406-9.591,3.238-12.25,2.09c-5.79-2.501-14.727-2.4-20.156,0.81
	c-1.894,1.12-7.478,8.763-7.478,8.763s-9.563-1.866-19.593,0.7c-19.809,5.068-16.794,13.761-16.794,13.761
	s-9.019-2.684-12.129-2.799c-4.599-0.171-15.197-0.694-18.193,2.799c-1.063,1.239,0,6.531,0,6.531s-18.502-5.344-24.258-3.265
	c-3.726,1.346-10.667,7.701-10.729,11.662c-0.053,3.39,5.781,8.852,8.863,10.263c6.575,3.009,21.923-1.814,28.922,0
	c2.325,0.602,13.528,3.265,13.528,3.265s-6.787,7.739-5.598,9.33c3.082,4.124,14.919,4.368,20.059,4.665
	c16.522,0.955,65.775-7.464,65.775-7.464s-0.696,11.868,1.866,14.461c7.037,7.121,39.652,5.598,39.652,5.598
	s26.705-1.019,49.448-10.729c15.178-6.48,70.907-42.917,109.159-49.448C960.27,533.916,973.126,525.623,973.126,525.623z"/>
<path fill="#F4EFED" d="M867.271,710.13c13.071,18.866,92.987,9.33,92.987,9.33s12.828,1.399,32.725-1.866
	c1.029-0.169,36.369-6.95,36.369-6.95s-4.843,1.576-6.585,2.285c-7.737,3.15-27.989,9.019-27.989,9.019s-10.799,4.121-11.818,7.464
	c-0.591,1.939,2.585,5.851,4.354,6.842c15.739,8.817,54.169,2.693,72.15,1.244c16.693-1.345,50.695-4.91,65.931-11.863
	c7.085-3.234,22.856-11.886,24.258-19.547c0.221-1.209-1.381-3.706-2.488-4.239c-6.723-3.237-29.544,4.239-29.544,4.239
	s17.423-15.608,19.67-22.547c1.629-5.03,2.148-19.841-2.566-22.236c-19.126-9.719-34.287-5.287-41.051,2.643
	c-1.161,1.361-6.286-14.605-10.496-17.727c-4.507-3.342-12.68-5.953-17.727-3.499c-2.366,1.151-10.03,6.142-10.03,6.142
	s-9.33-6.142-15.394-7.075c-17.185-2.644-22.091,1.665-30.011,4.898c-8.365,3.415-30.166,19.904-30.166,19.904
	s-13.327-2.304-25.89-1.011c-31.721,3.265-26.979,17.804-26.979,17.804s-17.514-1.823-23.325-1.244
	c-18.737,1.866-25.618,6.835-31.41,13.062C869.568,698.083,865.031,706.896,867.271,710.13z"/>
<path opacity="0.8" fill="#F4EFED" d="M674.471,179.529c2.187-0.959,23.105-0.898,25.097-2.214c3.614-2.387,7.79-2.361,11.937-3.61
	c2.109-0.635,16.884-1.111,17.958-3.034c1.126-2.015,10.004-5.108,8.372-6.741c-2.448-2.449-10.388,0-13.851,0
	c-5.194,0-20.776,0-20.776,0s-6.046-6.324-8.657-7.503c-6.9-3.114-28.938-21.096-43.332-16.391
	c-3.783,1.237-17.993-22.059-35.801-10.703c-4.473,2.852-3.767,16.421-8.581,1.015c-6.92-22.145-21.641-33.103-27.71-36.25
	c-8.993-4.663-29.795-8.952-39.821-7.503c-6.578,0.951-19.529,3.054-25.384,6.199c-7,3.76-17.716,8.858-25.979,21.503
	c-11.905,18.218-12.697,31.165-12.697,31.165c0.931,1.184-3.584,27.316-3.584,27.316s-1.305-15.721-3.919-19.236
	c-4.775-6.423-18.654-16.57-26.548-17.891c-10.459-1.75-33.373,3.573-40.976,10.965c-5.073,4.933-8.194,20.05-8.08,27.125
	c0.044,2.737,1.395,8.595,3.463,10.388c1.219,1.057,6.348,1.154,6.348,1.154s-5.462,3.269-7.503,3.751
	c-3.651,0.862-11.262-0.252-15.005,0c-6.973,0.47-21.008,1.744-27.702,3.751c-7.974,2.391-22.597,10.641-30.01,14.428
	c-3.507,1.792-12.404,3.84-13.851,7.503c-0.335,0.849,0.358,3.016,1.154,3.463c13.431,7.533,44.966-10.609,60.021-13.851
	c11.507-2.478,34.561-7.284,46.17-9.234c15.796-2.654,47.655-6.2,63.483-8.657c19.103-2.966,32.396,4.836,68.061-1.742
	c29.528-5.446,49.088-9.264,62.743-8.489C625.748,177.129,659.579,186.059,674.471,179.529z"/>
<path fill="#F4EFED" d="M462.549,343.692c8.482-1.674,25.606-4.192,34.05-6.047c11.656-2.56,34.334-10.592,46.17-12.12
	c5.581-0.72,18.529,3.979,22.508,0c1.122-1.122-0.204-4.774,0-6.348c0.364-2.811,0.808-9.037,2.886-10.965
	c2.903-2.696,11.637-2.523,15.582-2.886c1.724-0.158,6.925,0,6.925,0s-3.018-5.042-3.463-6.925c-0.398-1.685,0-6.925,0-6.925
	s-6.493,0-8.657,0c-4.04,0-12.469,1.644-16.159,0c-1.773-0.79-4.618-3.918-5.194-5.771c-0.994-3.196,0.354-10.224,1.731-13.274
	c1.263-2.795,5.286-7.966,8.08-9.234c2.628-1.192,8.657,0,11.542,0c1.587,0,6.348,0,6.348,0s0.216-3.885,1.154-4.617
	c1.933-1.509,7.737-1.31,9.811,0c2.838,1.792,5.032,8.846,5.771,12.12c0.254,1.126,0,4.617,0,4.617s2.801,0.558,3.463,0
	c3.247-2.735,1.432-12.747,2.886-16.737c1.372-3.767,5.005-11.278,8.08-13.851c4.831-4.042,17.445-7.643,23.662-8.657
	c17.842-2.911,26.823,6.694,29.433,9.811c1.553,1.854,2.521,6.843,2.886,9.234c0.305,1.997,0,8.08,0,8.08s7.911-3.28,15.582,7.503
	c5.217,7.333,0.889,18.299,0.889,18.299s17.988-0.358,22.196,2.478c1.795,1.21,3.84,5.237,5.194,6.925
	c0.832,1.038,3.463,4.04,3.463,4.04s13.851,0,18.468,0c3.607,0,11.188-1.585,14.428,0c1.478,0.723,4.47,3.606,4.04,5.194
	c-0.61,2.25-6.471,2.654-8.657,3.463c-6.718,2.485-20.078,7.948-27.125,9.234c-8.663,1.58-26.399,1.08-35.204,1.154
	c-9.09,0.077-27.484-2.55-36.359-0.577c-6.11,1.358-16.528,9.117-22.508,10.965c-13.237,4.092-41.056,6.554-54.826,8.08
	c-12.511,1.386-37.631,3.271-50.209,3.739c-5.623,0.209-16.908-0.551-22.508,0c-9.223,0.908-27.312,5.217-36.359,7.226
	c-8.267,1.836-24.572,9.637-32.896,8.08c-1.731-0.324-5.852-2.281-5.771-4.04c0.106-2.324,5.908-3.783,8.08-4.617
	C439.267,347.536,454.872,345.207,462.549,343.692z"/>
<path opacity="0.8" fill="#F4EFED" d="M1059.856,75.7c0,0,8.008-12.985-0.518-22.755c-10.192-11.679-22.768-11.457-29.732-11.342
	c-7.769,0.129-24.086,3.053-30.01,8.08c-3.988,3.384-8.72,13.815-8.657,19.045c0.06,4.968,4.447,15.251,8.657,17.891
	c0.856,0.537,8.968,2.716,8.968,2.716s-9.95,3.086-11.854,4.786c-2.002,1.788-6.106,5.513-8.657,6.348
	c-1.234,0.404-3.957,0.394-5.194,0c-4.044-1.287-9.829-8.459-13.851-9.811c-4.242-1.426-14.003-2.793-17.891-0.577
	c-9.369,5.339-12.068,31.442-20.776,37.801c-2.731,1.994-9.986,1.807-13.274,2.597c-7.149,1.717-21.074,6.615-28.279,8.08
	c-10.4,2.113-31.594,3.925-42.13,5.194c-7.356,0.886-23.055-0.307-29.433,3.463c-2.137,1.263-6.907,5.873-5.771,8.08
	c1.584,3.079,10.396,0.231,13.851,0c9.732-0.651,29.071-3.446,38.667-5.194c3.788-0.69,11.19-2.948,15.005-3.463
	c6.869-0.928,20.829-0.255,27.702-1.154c2.638-0.345,10.388-2.308,10.388-2.308s-5.319,5.221-7.503,6.348
	c-5.162,2.665-17.174,3.471-22.508,5.771c-2.977,1.284-11.866,3.811-10.965,6.925c1.083,3.742,11.687,0,15.582,0
	c6.637,0,19.994,1.048,26.548,0c9.596-1.534,28.097-8.079,36.936-12.12c6.886-3.148,19.655-11.115,27.003-12.938
	c5.189-1.287,14.992-1.053,20.32-1.49c8.984-0.737,26.244-6.811,35.204-7.791c6.741-0.737,20.744,2.296,27.125,0
	c4.58-1.648,14.246-7.6,15.005-12.408c0.293-1.858-13.251-6.229-13.251-6.229s12.117-0.397,14.067-1.082
	c3.084-1.083,13.456,1.107,16.664,1.731c6.09,1.186,21.101-1.716,27.269-2.381c5.726-0.617,11.707-2.254,16.881-4.783
	c4.556-2.227,14.244-8.805,13.395-13.804c-0.4-2.355-8.657-4.04-8.657-4.04s-13.39,2.019-17.891,2.308
	c-4.176,0.268-12.611,0.701-16.736,0c-3.014-0.512-11.542-4.04-11.542-4.04s4.383-2.13,5.194-3.463
	c0.679-1.116,1.382-4.165,0.577-5.194c-1.345-1.72-6.489-0.896-8.657-1.154c-5.474-0.653-16.427-2.635-21.931-2.308
	C1071.949,71.228,1059.856,75.7,1059.856,75.7z"/>
<path fill="#F4EFED" d="M938.674,223.374c-4.284,1.926-10.197,9.745-13.851,12.697c-4.266,3.447-17.891,12.697-17.891,12.697
	s-5.337-7.542-8.08-8.657c-5.62-2.285-18.552-0.959-24.239,1.154c-3.95,1.468-11.428,6.6-13.274,10.388
	c-1.896,3.891-1.656,13.315,0,17.314c1.015,2.451,7.503,7.503,7.503,7.503s-17.833,4.848-23.951,5.194
	c-8.614,0.487-25.81-2.158-34.339-3.463c-4.951-0.757-14.701-4.969-19.622-4.04c-3.382,0.639-10.235,4.319-11.542,7.503
	c-1.543,3.756,0.3,13.324,3.463,15.871c1.798,1.448,9.234,0,9.234,0s-2.684,4.453-4.04,5.483
	c-3.565,2.705-12.546,4.778-16.737,6.348c-7.78,2.916-11.878,4.393-20.465,11.229c-1.355,1.078-11.924,6.015-10.7,7.239
	c1.836,1.836,7.819,0.38,10.388,0c6.412-0.948,18.675-5.43,24.816-7.503c12.112-4.088,35.705-14.059,47.901-17.891
	c10.516-3.304,32.102-7.96,42.707-10.965c16.86-4.778,50.521-14.669,66.946-20.776c11.507-4.279,35.116-12.361,45.015-19.622
	c8.329-6.109,31.664-21.887,27.125-31.165c-3.614-7.387-24.683-0.424-32.896,0C963.745,220.345,946.347,219.925,938.674,223.374z"/>
<path fill="#F4EFED" d="M23.882,287.77c-1.639,3.439,3.019,12.001,6.348,13.851c6.992,3.886,31.742-4.04,31.742-4.04
	s8.268,5.995,11.542,6.348c4.04,0.436,12.02-2.662,15.582-4.617c3.855-2.116,9.31-9.638,13.274-11.542
	c5.816-2.794,19.889-1.25,25.393-4.617c2.634-1.611,6.24-6.993,7.503-9.811c1.563-3.486,4.168-8.61,6.083-11.915
	c2.386-4.118,5.926-8.384,10.388-10.04c1.623-0.602,7-3.918,7.768-5.47c0.843-1.705-9.121,2.036-10.966,1.574
	c-5.387-1.347-18.876,4.761-18.876,4.761s-7.48-15.663-23.806-9.522c-6.543,2.461-19.561,16.781-22.531,23.11
	c-1.232,2.625-1.154,11.542-1.154,11.542s-7.48-15.955-24.816-4.04c-3.331,2.29-9.067,10.075-9.067,10.075
	S26.125,283.063,23.882,287.77z"/>
<path fill="#E1DBE1" d="M765.001,750.559c-3.091,1.022-9.952,8.397-9.952,8.397s-9.605-5.153-13.109-5.909
	c-2.204-0.475-8.972,0-8.972,0s-4.435-17.873-9.019-21.459c-6.756-5.285-33.898-5.287-33.898-5.287s-3.057-11.285-5.909-13.684
	c-2.294-1.93-11.662-2.799-11.662-2.799l-4.509-2.177c0,0,10.574-17.105-4.043-25.19c-4.014-2.22-13.995-1.244-13.995-1.244
	s-10.882-8.756-20.215-11.196c-13.995-3.659-41.673-2.67-52.558,28.3c-6.264,17.823-2.868,23.702-2.868,23.702
	s2.55-13.614,4.609-18.415c1.894-4.417,7.143-13.044,11.196-15.627c6.654-4.242,23.443-8.031,31.022-5.831
	c10.341,3.002,28.806,18.96,31.488,29.389c0.339,1.318-0.933,5.365-0.933,5.365s-7.93-3.732-16.56-1.633
	c-13.25,3.223-16.794,11.429-16.794,11.429s14.228-2.799,26.357,0.933c15.776,4.854,15.627,20.526,15.627,20.526
	s5.031-5.541,12.129-6.997c9.097-1.866,15.627,3.965,15.627,3.965s1.129-8.088,3.265-9.33c4.202-2.443,19.126,3.499,19.126,3.499
	l0.933,3.965c0,0-9.046-1.81-19.826,3.965c-6.531,3.499-8.164,10.03-8.164,10.03s5.754-1.064,7.697-1.166
	c6.212-0.328,18.836,0.848,24.717,2.877c5.041,1.738,18.201,11.118,18.201,11.118l2.332,2.566l0.7-4.665l-2.099-6.721
	c0,0,9.154-0.341,12.129,0.248c2.332,0.461,10.963,3.674,10.963,3.674s0.895-6.271,2.099-8.164
	C761.219,755.307,765.001,750.559,765.001,750.559z"/>
<path fill="#E1DBE1" d="M1131.436,659.756c-15.992-7.938-30.997-3.739-37.761,4.191c-1.161,1.361-6.286-14.605-10.496-17.727
	c-4.507-3.342-12.68-5.953-17.727-3.499c-2.366,1.151-10.03,6.142-10.03,6.142s-9.33-6.142-15.394-7.075
	c-17.185-2.644-22.091,1.665-30.011,4.898c-8.365,3.415-30.166,19.904-30.166,19.904s-13.327-2.304-25.89-1.011
	c-31.721,3.265-26.979,17.804-26.979,17.804s-17.514-1.823-23.325-1.244c-18.737,1.866-25.618,6.835-31.41,13.062
	c-2.679,2.88-7.216,11.694-4.976,14.928c0,0,8.708-19.126,24.413-21.77c9.514-1.601,28.086,0.36,37.475,2.582
	c1.209,0.286,4.354,2.393,4.354,2.393s-0.704-4.388,0-5.598c2.294-3.943,11.634-7.303,15.861-9.019
	c7.443-3.022,23.073-8.427,31.099-8.086c1.4,0.06,5.287,1.866,5.287,1.866s5.097-6.405,7.224-8.086
	c7.821-6.18,25.205-17.548,35.071-18.971c6.294-0.908,19.704,1.593,24.88,5.287c1.107,0.79,2.799,4.665,2.799,4.665
	s5.694-6.607,8.397-7.153c3.278-0.662,10.523,1.549,12.751,4.043c3.484,3.9,4.043,20.526,4.043,20.526s9.411-4.272,12.44-5.909
	c3.285-1.775,9.121-6.903,12.751-7.775C1113.09,657.451,1131.436,659.756,1131.436,659.756z"/>
<path fill="#F4EFED" d="M376.271,49.026c-8.32,5.188-26.504,12.924-35.831,15.95c-10.113,3.282-31.112,7.108-41.607,8.812
	c-20.455,3.321-61.638,9.305-82.361,9.365c-9.1,0.026-27.258-2.157-36.189-3.902c-2.734-0.534-11.452-3.155-11.452-3.155
	s-0.789-2.531-0.347-3.305c2.397-4.195,18.847-4.28,18.847-4.28s-0.379-5.869,6.052-9.173c11.744-6.034,17.318-8.283,17.318-8.283
	s-7.793-20.469,14.191-41.475c4.361-4.167,16.115-9.737,22.145-9.577c6.212,0.165,18.039,6.502,22.257,11.066
	c2.756,2.982,6.865,11.087,6.066,15.068c-0.277,1.381-3.958,4.011-3.958,4.011s12.798,14.733,12.896,10.566
	c0.134-5.721,12.38-9.122,23.981-7.633c11.494,1.476,16.852,11.333,16.852,11.333s0.598-5.599,10.679-6.41
	c7.3-0.587,11.998,8.642,11.998,8.642s8.966-3.092,12.073-3.611c3.527-0.589,10.741-1.001,14.291-0.577
	c1.915,0.229,7.017,0.234,7.417,2.121C381.947,46.275,377.741,48.109,376.271,49.026z"/>
<path fill="#E1DBE1" d="M169.571,76.187c-0.523-0.057-1.05,0.802-1.086-3.396c-0.031-3.609,18.847-4.28,18.847-4.28
	s-0.379-5.869,6.052-9.173c11.744-6.034,17.318-8.283,17.318-8.283s-7.793-20.469,14.191-41.475
	c4.361-4.167,16.115-9.737,22.145-9.577c6.212,0.165,18.039,6.502,22.257,11.066c0,0-4.017-1.954-5.409-2.477
	c-2.122-0.797-6.424-2.662-8.689-2.587c-10.003,0.328-13.716,5.205-15.008,6.92c-8.257,10.962-13.952,43.395-13.952,43.395
	s-7.689-0.24-16.384,5.738c-6.108,4.2-11.495,11.662-11.495,11.662s-19.114-2.763-22.79-2.196c-4.519,0.696-4.948,1.309-5.511,1.887
	C169.565,73.916,169.571,76.187,169.571,76.187z"/>
<path fill="#E1DBE1" d="M135.846,270c-9.55,7.059-31.036,13.054-33.494,14.117c-4.623,1.999-5.675-3.045-5.675-3.045
	s-12.008,7.832-13.702,8.996c-4.429,3.045-10.24,4.367-12.733,4.983c-1.891,0.467-7.394-1.621-9.273-1.107
	c-3.273,0.895-33.003,7.588-29.653,8.132c11.661,1.895,30.656-4.495,30.656-4.495s8.391,6.337,11.542,6.348
	c7.523,0.028,11.648-2.864,14.055-3.839c4.469-1.81,6.468-3.499,11.184-8.084c2.374-2.308,1.474-3.801,4.67-4.664
	c3.865-1.044,21.011-1.965,24.34-4.189c2.04-1.363,6.955-8.222,7.823-10.516C135.893,271.827,136.542,269.485,135.846,270z"/>
<path fill="#E1DBE1" d="M617.529,279.041c0,0,3.461,1.181,4.545,1.731c2.301,1.169,6.156,4.989,8.657,5.627
	c3.129,0.798,9.769-0.753,12.769-1.948c2.203-0.878,3.933-0.976,5.843-2.381c1.491-1.096,4.344-4.865,4.344-4.865
	s1.686,1.855,1.283,2.918c-1.099,2.904-3.559,6.384-6.06,8.224c-2.555,1.88-7.439,3.044-10.605,3.246
	c-3.357,0.215-8.466-0.213-11.037-2.381c-1.202-1.014-5.627-5.194-5.627-5.194L617.529,279.041z"/>
<path fill="#E1DBE1" d="M394.045,441.922c-1.439,0.101-5.598,1.399-5.598,1.399s1.967-8.759,0-10.496
	c-5.987-5.287-19.219-8.711-26.123-9.097c-2.627-0.147-10.263,2.332-10.263,2.332s-7.853-8.786-13.062-11.662
	c-2.07-1.143-6.87,0.675-6.87,0.675s-7.408-0.677-10.146-0.7c-4.103-0.035-10.885,2.724-14.5,4.665
	c-1.696,0.91-4.669,3.775-5.287,5.598c-0.275,0.81-0.655,2.87,0,3.421c1.389,1.168,5.347-1.063,7.153-1.244
	c2.786-0.279,8.442-0.82,11.196-0.311c3.393,0.627,9.843,3.429,12.751,5.287c3.384,2.163,9.476,7.621,11.818,10.885
	c1.786,2.489,3.708,6.339,5.442,8.863c0.436,0.634,1.71,4.509,1.71,4.509s2.526-2.424,3.11-3.421
	c1.615-2.758-1.866-14.461,7.464-17.265c2.984-0.897,11.389,2.124,13.839,4.047c3.505,2.752,8.541,8.733,10.574,12.698
	c2.099,4.096,5.442,12.648,5.442,12.648s1.353-2.132,1.866-2.799c1.074-1.397,4.635-2.752,6.375-3.032
	c2.133-0.344,4.008,0.826,5.753,2.099c2.535,1.85,8.27,5.443,9.33,8.397c0.531,1.48-0.933,6.22-0.933,6.22s2.992-1.127,4.043-1.244
	c3.022-0.336,9.248-0.041,12.129,0.933c4.74,1.602,11.798,10.606,16.794,10.885c1.215,0.068,4.313,1.991,5.287,2.799
	c3.111,2.582,12.153,0.441,16.172,0c2.138-0.235,8.301,0.282,8.397-1.866c0.08-1.793-5.242-1.362-6.842-2.177l-5.637-3.771
	c0,0-7.149-10.596-10.74-12.687c-5.435-3.166-18.453-5.157-24.724-4.665c-1.728,0.136-6.531,2.332-6.531,2.332
	s2.801-5.566,2.332-7.464c-1.317-5.34-10.577-13.24-15.574-15.537C406.513,441.488,394.045,441.922,394.045,441.922
	c4.445-0.312,13.736-0.117,17.727,1.866c4.581,2.277,12.853,9.941,13.995,14.928c0.436,1.906-2.332,7.464-2.332,7.464
	s4.802-2.197,6.531-2.332c6.271-0.492,19.251,1.565,24.724,4.665c3.666,2.076,11.196,12.595,11.196,12.595
	s11.424,0.921,14.928,2.332"/>
<path fill="#E1DBE1" d="M211.542,517.72c1.085-2.208-3.005-7.159-5.131-8.397c-3.126-1.82-14.461-0.466-14.461-0.466
	s-5.091-10.255-8.397-11.662c-6.07-2.584-26.123,3.732-26.123,3.732s-4.308-12.751-7.93-14.928c-3.698-2.223-13.242-1.573-17.26,0
	c0,0,12.843,3.26,15.239,5.503c2.086,1.953,4.602,6.097,3.887,8.863c-0.886,3.432-1.399,6.686-1.399,6.686s5.376-2.74,7.308-3.254
	c2.983-0.795,9.255-1.849,12.284-1.255c2.679,0.525,7.652,3.261,9.641,5.131c1.462,1.375,2.488,6.22,2.488,6.22
	s6.058-1.594,7.619-2.021c1.321-0.362,4.076-0.712,5.442-0.622c1.919,0.126,8.288,0.279,9.952,1.244
	c1.118,0.649,2.82,2.006,3.11,3.265c0.257,1.114-0.61,5.442-0.61,5.442S209.831,521.201,211.542,517.72z"/>
<path fill="#E1DBE1" d="M693.698,528.188c-18.776,3.265-16.794,13.761-16.794,13.761s-9.019-2.684-12.129-2.799
	c-4.599-0.171-15.197-0.694-18.193,2.799c-1.063,1.239,0,6.531,0,6.531s-18.502-5.344-24.258-3.265
	c-3.726,1.346-10.667,7.701-10.729,11.662c-0.053,3.39,5.781,8.852,8.863,10.263c0,0-4.031-4.505-4.198-6.414
	c-0.116-1.327,1.076-4.045,2.099-4.898c2.527-2.105,5.598-3.849,11.429-4.548c9.771-1.172,20.526,1.283,20.526,1.283
	s-1.386-4.426-0.583-4.898c4.705-2.769,16.228,2.281,21.575,3.382c2.417,0.498,9.563,2.449,9.563,2.449s-1.309-5.571-1.283-7.464
	c0.024-1.784,1.492-6.016,2.799-7.231c3.099-2.881,13.379-3.032,17.61-3.032c12.012,0,19.826,3.499,19.826,3.499
	s-3.448-11.269-6.531-11.779C710.608,527.045,702.149,526.719,693.698,528.188z"/>
<path fill="#E1DBE1" d="M895.175,431.392c0,0-16.327-3.499-23.091,8.397c-2.133,3.751,0.156,17.26,0.156,17.26
	s-11.049,4.273-14.461,3.499c-5.799-1.315-15.812-7.972-21.692-8.863c-9.556-1.448-26.174-0.704-34.987,3.265
	c-10.715,4.826-36.62,29.831-36.62,29.831s-7.619-5.131-19.515,0c0,0,13.157,0.509,17.307,1.812
	c1.228,0.386,4.509,2.488,4.509,2.488s1.907-3.929,13.684-10.418c7.619-4.198,16.794-3.11,16.794-3.11s7.856-12.835,12.284-14.617
	c6.093-2.452,21.197-1.841,27.678-0.777c4.244,0.697,16.148,8.776,20.681,9.019c3.032,0.163,13.137,1.457,16.172,1.555
	c2.143,0.069,14.306,3.732,14.306,3.732s-7.607-9.61-9.485-13.217c-1.409-2.704-3.448-8.769-3.421-11.818
	c0.026-2.903-0.311-6.064,6.064-10.729c11.568-8.464,18.815-4.509,18.815-4.509L895.175,431.392L895.175,431.392z"/>
<path fill="#F4EFED" d="M714.127,1133.927c-13.41-4.42-40.655-11.944-53.967-16.648c-18.375-6.493-53.514-24.071-72.387-28.926
	c-8.899-2.29-30.829,2.722-36.477-4.526c-1.593-2.044,1.29-7.697,1.277-10.288c-0.024-4.629,0.507-14.808-2.471-18.351
	c-4.163-4.952-18.352-6.43-24.673-7.81c-2.762-0.603-11.224-1.393-11.224-1.393s5.905-7.563,7.005-10.527
	c0.984-2.651,1.393-11.224,1.393-11.224s10.522,1.306,14.03,1.741c6.547,0.812,19.877,5.171,26.189,3.25
	c3.033-0.923,8.271-5.421,9.578-8.309c2.253-4.979,1.483-16.641-0.137-21.86c-1.484-4.784-6.965-13.974-11.237-16.59
	c-4.019-2.461-14.03-1.741-18.706-2.321c-2.572-0.319-10.288-1.277-10.288-1.277s0.43-6.339-0.942-7.715
	c-2.83-2.835-12.276-3.678-15.9-1.973c-4.959,2.333-9.933,13.325-11.79,18.481c-0.639,1.773-0.928,7.482-0.928,7.482
	s-4.651,0.341-5.612-0.696c-4.713-5.086,0.243-20.947-1.311-27.704c-1.467-6.38-5.843-19.285-10.309-24.072
	c-7.016-7.522-26.736-15.894-36.607-18.788c-28.33-8.305-44.817,5.454-49.674,9.981c-2.889,2.693-5.461,10.583-6.534,14.385
	c-0.895,3.175-1.625,13.094-1.625,13.094s-12.162-6.906-26.762,9.025c-9.93,10.835-5.12,29.477-5.12,29.477
	s-29.08-4.198-36.47-0.448c-3.152,1.599-7.276,7.716-9.81,10.179c-1.558,1.514-6.424,5.851-6.424,5.851s-22.447-2.785-29.93-3.714
	c-5.846-0.725-17.813-4.818-23.383-2.901c-2.54,0.874-7.97,4.946-7.592,7.605c0.536,3.769,9.953,5.602,13.333,7.353
	c10.388,5.379,30.94,16.919,42.103,20.42c13.722,4.303,42.566,7.059,56.822,8.95c14.717,1.953,39.617,11.457,53.602,16.439
	c9.629,3.43,30.391,8.036,39.71,12.235c20.629,9.294,65.219,18.879,87.229,24.12c19.997,4.762,60.329,12.869,80.62,16.157
	c9.071,1.47,27.512,2.507,36.477,4.526c14.764,3.326,43.213,13.948,57.471,19.023c13.029,4.638,37.884,20.559,51.688,19.71
	c2.871-0.177,9.942-2.519,10.166-5.387c0.295-3.788-8.814-7.319-12.166-9.107C751.086,1144.839,726.264,1137.927,714.127,1133.927z"
	/>
<path fill="#E1DBE1" d="M475.961,997.985c0,0-5.846,1.217-7.714,1.892c-3.964,1.432-10.979,6.847-15.161,7.378
	c-5.231,0.664-15.681-3.184-20.302-5.724c-3.394-1.866-6.177-2.372-8.991-5.033c-2.196-2.077-6.061-8.758-6.061-8.758
	s-3.105,2.667-2.667,4.47c1.197,4.927,4.484,11.062,8.167,14.547c3.763,3.561,11.443,6.428,16.533,7.394
	c5.396,1.023,13.763,1.358,18.366-1.638c2.153-1.401,10.164-7.286,10.164-7.286L475.961,997.985z"/>
<path fill="#E1DBE1" d="M461.948,159.265c-3.861,1.299-11.998,2.332-16.015,3.008c-2.829,0.476-8.975,0.077-11.35,1.686
	c-2.573,1.743-6.253,10.744-6.253,10.744l-9.234,5.771c0,0,1.237,4.136,2.164,5.194c0.71,0.81,2.665,1.982,3.727,2.164
	c4.601,0.789,13.78-2.501,18.348-3.463c4.675-0.984,15.031-1.167,18.612-4.328c1.643-1.45,2.319-6.151,3.03-8.224
	c0.812-2.368,3.03-9.545,3.03-9.545v-6.038C468.008,156.235,463.553,158.725,461.948,159.265z"/>
<path fill="#E1DBE1" d="M918.125,148.754c1.896-2.004,4.869-7.008,7.388-8.134c2.371-1.06,5.015,0.927,7.545,0.343
	c2.581-0.596,7.183-3.405,9.523-4.647c3.308-1.756,9.415-6.34,12.985-7.47c4.558-1.442,4.204-1.196,8.945-0.58
	c1.256,0.163,7.549-1.266,7.503,0c-0.092,2.531-6.523,2.662-8.873,3.607c-5.708,2.296-10.465,4.485-16.015,7.142
	c-3.405,1.63-10.287,6.263-13.634,8.008c-4.121,2.148-13.202,7.791-13.202,7.791s-10.086,2.031-11.121-0.468
	C907.997,151.518,916.022,150.978,918.125,148.754z"/>
</svg>
