<?xml version="1.0" encoding="utf-8"?>
<!-- Generator: Adobe Illustrator 17.0.0, SVG Export Plug-In . SVG Version: 6.00 Build 0)  -->
<!DOCTYPE svg PUBLIC "-//W3C//DTD SVG 1.1//EN" "http://www.w3.org/Graphics/SVG/1.1/DTD/svg11.dtd">
<svg version="1.1" id="Layer_1" xmlns="http://www.w3.org/2000/svg" xmlns:xlink="http://www.w3.org/1999/xlink" x="0px" y="0px"
	 width="1280px" height="823.784px" viewBox="0 0 1280 823.784" enable-background="new 0 0 1280 823.784" xml:space="preserve">
<path opacity="0.3" fill="#FDFDFE" d="M22.782,569.16c3.1,8.294,19.618,18.053,27.056,22.858
	c7.274,4.698,31.255,14.928,31.255,14.928s-5.585,2.824-7.464,3.732c-1.738,0.84-6.098,1.557-6.997,3.265
	c-1.322,2.511,6.064,18.193,1.866,11.196c-2.13-3.55-13.633-2.927-16.56,0c-1.649,1.649-1.411,7.473,0,9.33
	c6.848,9.011,32.403,10.599,43.617,12.129c13.751,1.876,34.52,0,48.049-1.399c1.392-0.144,8.349-3.114,7.464-4.198
	c-3.312-4.058-16.434-0.928-20.526-4.198c-1.799-1.438-3.79-8.397-3.79-8.397s4.441-2.876,6.122-2.799
	c5.888,0.269,15.413,8.829,20.992,10.729c9.657,3.289,29.944,6.722,40.118,7.464c21.185,1.544,84.901-3.265,84.901-3.265
	s-2.302,5.005-3.732,6.064c-4.068,3.014-15.287,2.467-19.593,5.131c-3.163,1.957-7.417,8.337-9.796,11.196
	c-2.284,2.744-10.418,7.982-8.863,11.196c0.965,1.995,6.647,0,8.863,0c30.628,0,93.964,11.097,122.511,0
	c2.414-0.938,8.075-4.444,7.64-6.997c-0.349-2.048-7.64-3.265-7.64-3.265s-19.266,0.14-24.575-3.046
	c-1.385-0.831-3.717-5.282-3.717-5.282l30.801,5.528c0,0,22.457-0.355,29.855-1.399c2.493-0.352,9.459,0.162,9.796-2.332
	c0.357-2.638-7.054-3.75-9.33-5.131c-2.157-1.309-5.982-4.867-8.397-5.598c-4.465-1.352-14.44,1.989-18.66,0
	c-2.052-0.967-3.689-6.105-5.774-6.997c-4.474-1.915-14.607,0.654-19.416,1.399c-2.963,0.459-11.662,2.799-11.662,2.799
	s8.811-13.646,13.528-15.861c8.024-3.767,26.606,0.08,35.453-0.466c13.234-0.817,45.833,5.502,52.713-5.831
	c1.006-1.657-1.2-6.135-2.799-7.231c-3.271-2.241-15.861,0-15.861,0s-10.814-6.961-14.928-7.93
	c-4.429-1.043-14.046-1.405-18.193,0.466c-2.031,0.917-6.064,6.531-6.064,6.531s-3.172-6.612-5.131-7.93
	c-4.137-2.784-14.748-4.912-19.593-3.732c-2.017,0.491-6.997,4.957-6.997,4.957s-15.142-13.264-21.459-15.686
	c-5.147-1.973-16.562-3.607-21.925-2.332c-6.074,1.443-17.594,8.29-20.992,13.528c-0.835,1.287-1.399,5.89-1.399,5.89
	s-14.884-19.181-21.925-23.15c-5.102-2.876-17.029-5.695-22.858-5.131c-5.198,0.503-19.126,8.397-19.126,8.397
	s-12.446-18.351-18.193-22.858c-6.365-4.991-21.335-14.268-29.389-13.528c-2.417,0.222-7.93,5.598-7.93,5.598
	s-4.778-15.681-8.397-19.593c-1.878-2.029-7.046-4.85-9.796-5.131c-3.378-0.346-13.062,3.732-13.062,3.732
	s-5.762-11.225-9.33-13.062c-3.111-1.601-13.995,0-13.995,0s-4.794-14.091-8.397-17.26c-1.571-1.382-5.839-2.695-7.93-2.67
	c-4.343,0.052-13.521,2.621-16.327,5.935c-2.069,2.444-3.324,9.55-2.332,12.595c0.592,1.819,4.665,6.064,4.665,6.064
	s-8.38-5.902-11.662-6.064c-2.509-0.124-8.062,1.563-9.33,3.732c-1.781,3.047,1.866,13.995,1.866,13.995l1.399,5.131l-9.796-1.399
	c0,0-13.185-4.535-17.727-4.198c-1.879,0.139-5.824,1.325-6.997,2.799C22.719,547.46,20.386,562.748,22.782,569.16z"/>
<path opacity="0.3" fill="#FDFDFE" d="M802.102,694.516c0,0,42.429-12.913,65.795,19.062c9.395,12.857,8.442,44.552,8.442,44.552
	s19.214,6.642,23.367,11.683c1.826,2.217,4.377,8.509,3.075,11.068c-1.786,3.512-48.043,36.735-120.072,40.405
	c-153.485,7.82-315.074-4.636-385.323-11.169c-23.437-2.18-88.906-14.687-95.204-33.819c-3.98-12.091,33.791-19.609,45.503-24.596
	c18.139-7.724,59.989-11.106,78.708-4.919c6.111,2.02,19.677,16.603,19.677,16.603s18.899-10.189,25.826-11.683
	c4.358-0.94,17.832,0,17.832,0s8.77-35.34,17.832-42.429c13.358-10.449,67.025-10.453,67.025-10.453s6.045-22.313,11.683-27.056
	c4.537-3.816,23.059-5.534,23.059-5.534l8.916-4.304c0,0-20.907-33.82,7.994-49.808c7.936-4.39,27.671-2.46,27.671-2.46
	s21.517-17.313,39.969-22.137c27.671-7.234,82.398-5.279,103.92,55.957C810.183,678.718,802.102,694.516,802.102,694.516z"/>
<path opacity="0.3" fill="#FDFDFE" d="M426.3,746.783c6.111,2.02,19.677,16.603,19.677,16.603s18.992-10.189,25.919-11.683
	c4.358-0.94,17.74,0,17.74,0s8.77-35.34,17.832-42.429c13.358-10.449,67.025-10.453,67.025-10.453s6.045-22.313,11.683-27.056
	c4.537-3.816,23.059-5.534,23.059-5.534l8.916-4.304c0,0-20.907-33.82,7.994-49.808c7.936-4.39,27.671-2.46,27.671-2.46
	s21.517-17.313,39.969-22.137c27.671-7.234,82.398-5.279,103.92,55.957c12.385,35.24,5.671,46.864,5.671,46.864
	s-5.042-26.918-9.114-36.411c-3.745-8.733-14.124-25.792-22.137-30.899c-13.157-8.387-46.353-15.88-61.337-11.53
	c-20.447,5.936-56.957,37.489-62.26,58.109c-0.67,2.607,1.845,10.607,1.845,10.607s15.68-7.379,32.744-3.228
	c26.198,6.373,33.205,22.598,33.205,22.598s-28.132-5.534-52.114,1.845c-31.192,9.598-30.899,40.584-30.899,40.584
	s-9.947-10.957-23.981-13.835c-17.986-3.689-30.899,7.84-30.899,7.84s-2.232-15.992-6.457-18.447
	c-8.309-4.83-37.817,6.918-37.817,6.918l-1.845,7.84c0,0,17.886-3.578,39.2,7.84c12.913,6.918,16.141,19.831,16.141,19.831
	s-11.376-2.103-15.219-2.306c-12.283-0.648-37.243,1.678-48.871,5.688c-9.966,3.437-35.987,21.983-35.987,21.983l-4.612,5.073
	l-1.384-9.224l4.151-13.289c0,0-18.099-0.674-23.981,0.49c-4.61,0.912-21.676,7.264-21.676,7.264s-1.77-12.399-4.151-16.141
	C433.779,756.171,426.3,746.783,426.3,746.783z"/>
<path opacity="0.3" fill="#FDFDFE" d="M1280,212.408c-2.966-0.062-7.209-0.841-9.533-0.892c-68.425-1.52-252.318,5.519-274.172-1.02
	c-12.28-3.675-31.645-17.799-40.068-27.462c-3.939-4.519-12.831-20.259-12.831-20.259s-6.559-1.317-8.779-1.351
	c-5.911-0.089-18.515,2.279-23.635-0.675c-2.362-1.363-4.6-7.458-4.052-10.13c0.576-2.807,20.913-19.584,44.57-19.584
	c11.142,0,15.832,7.114,15.832,7.114l2.401,7.068c0,0,15.589-4.235,20.934-4.389c5.119-0.148,20.259,3.039,20.259,3.039h3.377
	c0,0-5.036-13.407-3.377-17.558c1.617-4.046,14.181-10.13,14.181-10.13s-2.701-21.272,4.052-35.791
	c17.148-36.867,28.602-42.295,43.219-50.648c16.545-9.454,40.518-9.454,40.518-9.454s-1.88-9.768,0-12.155
	c3.116-3.957,14.58-5.297,19.584-4.727c9.377,1.068,33.765,16.883,33.765,16.883s0.338-15.564,11.48-18.728
	c21.249-6.034,27.207,7.024,28.7,12.651c3.139,11.824,3.039,16.207,3.039,16.207s25.095-28.197,57.401-13.88
	c5.19,2.3,9.701,6.319,13.134,9.842V212.408z"/>
<path opacity="0.3" fill="#FDFDFE" d="M386.645,606.771c-2.146,0.598-6.064,6.531-6.064,6.531s-3.172-6.612-5.131-7.93
	c-4.137-2.784-14.748-4.912-19.593-3.732c-2.017,0.491-6.531,5.131-6.531,5.131s-15.608-13.439-21.925-15.861
	c-5.147-1.973-16.562-3.606-21.925-2.332c-6.074,1.443-17.594,8.29-20.992,13.528c-0.835,1.287-0.933,6.064-0.933,6.064
	s-15.35-19.355-22.392-23.325c-5.102-2.876-17.029-5.695-22.858-5.131c-5.198,0.503-19.126,8.397-19.126,8.397
	s-12.446-18.351-18.193-22.858c-6.365-4.991-21.335-14.268-29.389-13.528c-2.417,0.222-6.23,5.148-6.23,5.148
	s3.035-1.446,4.131-1.475c2.859-0.076,8.635,1.604,10.963,3.265c3.674,2.623,7.578,11.25,10.496,14.694
	c3.358,3.964,10.366,11.821,14.694,14.694c1.783,1.184,5.897,2.562,7.93,3.23c2.515,0.826,10.263,2.601,10.263,2.601
	s-6.422,1.029-7.464,1.516c-2.356,1.102-4.8,2.189-6.298,4.315c-0.806,1.144,0,5.598,0,5.598s4.873-1.211,6.531-1.166
	c3.562,0.097,10.614,1.825,13.874,3.265c3.396,1.5,12.25,8.397,12.25,8.397s0.051-2.498-0.233-3.265
	c-0.68-1.838-4.665-6.298-4.665-6.298s7.951,2.645,10.03,4.432c1.73,1.487,7.93,7.697,7.93,7.697s-0.753-5.768-1.633-7.464
	c-2.107-4.059-5.526-12.192-9.913-13.485c-2.916-0.86-6.647,0-6.647,0s3.853-2.71,5.365-2.842
	c4.152-0.363,12.095,3.346,15.861,5.131c4.764,2.259,13.525,8.243,17.727,11.429c2.172,1.647,8.164,7.231,8.164,7.231l2.332,3.732
	c0,0-0.578-7.937,0-10.496c0.299-1.323,1.256-4.073,2.332-4.898c3.058-2.346,11.311-2.989,15.161-2.799
	c2.728,0.135,8.005,1.912,10.496,3.032c3.084,1.387,8.321,5.9,11.429,7.231c2.21,0.946,6.927,2.261,9.33,2.332
	c2.846,0.085,11.196-2.099,11.196-2.099s0.382-3.014,1.166-3.499c0.701-0.434,3.265,0.466,3.265,0.466s1.184-0.942,1.633-1.166
	c1.204-0.603,3.788-1.543,5.131-1.633c3.013-0.201,9.309,0.541,11.896,2.099c1.708,1.029,3.969,4.533,4.898,6.298
	c0.627,1.191,1.633,5.131,1.633,5.131s2.974-1.535,3.732-2.332c0.827-0.871,1.58-3.263,2.332-4.198
	c0.829-1.03,2.869-2.76,3.965-3.499c1.297-0.875,4.101-2.343,5.598-2.799c1.743-0.532,5.416-1.109,7.231-0.933
	c2.386,0.232,6.977,1.913,9.097,3.032c1.619,0.855,4.843,2.89,5.831,4.432c0.87,1.358,1.399,6.298,1.399,6.298
	s5.048,1.664,6.764,2.099c2.529,0.641,10.235,2.031,10.235,2.031s5.569-2.762,6.092-4.597c0.531-1.864-1.2-6.135-2.799-7.231
	c-3.271-2.241-15.861,0-15.861,0s-10.057-6.376-13.807-7.577c-2.449-0.785-7.644-1.214-10.216-1.212
	C393.801,605.622,388.965,606.124,386.645,606.771z"/>
<path opacity="0.3" fill="#FDFDFE" d="M767.414,510.642c13.071,18.866,92.987,9.33,92.987,9.33s12.828,1.399,32.725-1.866
	c1.029-0.169,36.369-6.95,36.369-6.95s-4.843,1.576-6.585,2.285c-7.737,3.15-27.989,9.019-27.989,9.019s-10.799,4.121-11.818,7.464
	c-0.591,1.939,2.585,5.851,4.354,6.842c15.739,8.817,54.168,2.693,72.151,1.244c16.693-1.345,50.695-4.91,65.931-11.863
	c7.085-3.234,22.856-11.886,24.258-19.547c0.221-1.209-1.381-3.706-2.488-4.239c-6.723-3.237-29.544,4.239-29.544,4.239
	s17.423-15.608,19.67-22.547c1.629-5.03,2.148-19.841-2.566-22.236c-19.126-9.719-34.287-5.287-41.051,2.643
	c-1.16,1.361-6.286-14.605-10.496-17.727c-4.507-3.342-12.68-5.953-17.727-3.499c-2.366,1.151-10.03,6.142-10.03,6.142
	s-9.33-6.142-15.394-7.075c-17.185-2.644-22.091,1.665-30.011,4.898c-8.365,3.415-30.166,19.904-30.166,19.904
	s-13.327-2.304-25.89-1.011c-31.721,3.265-26.979,17.804-26.979,17.804s-17.514-1.823-23.325-1.244
	c-18.737,1.866-25.618,6.835-31.41,13.062C769.711,498.595,765.174,507.409,767.414,510.642z"/>
<path opacity="0.15" fill="#FDFDFE" d="M1031.579,460.269c-15.992-7.938-30.997-3.739-37.761,4.191
	c-1.16,1.361-6.286-14.605-10.496-17.727c-4.507-3.342-12.68-5.953-17.727-3.499c-2.366,1.151-10.03,6.142-10.03,6.142
	s-9.33-6.142-15.394-7.075c-17.185-2.644-22.091,1.665-30.011,4.898c-8.365,3.415-30.166,19.904-30.166,19.904
	s-13.327-2.304-25.89-1.011c-31.721,3.265-26.979,17.804-26.979,17.804s-17.514-1.823-23.325-1.244
	c-18.737,1.866-25.618,6.835-31.41,13.062c-2.679,2.88-7.216,11.694-4.976,14.928c0,0,8.708-19.126,24.413-21.77
	c9.514-1.601,28.086,0.361,37.475,2.582c1.209,0.286,4.354,2.393,4.354,2.393s-0.704-4.388,0-5.598
	c2.294-3.943,11.634-7.303,15.861-9.019c7.443-3.022,23.073-8.427,31.099-8.086c1.4,0.059,5.287,1.866,5.287,1.866
	s5.097-6.405,7.224-8.086c7.821-6.18,25.205-17.548,35.071-18.971c6.294-0.908,19.704,1.593,24.88,5.287
	c1.107,0.79,2.799,4.665,2.799,4.665s5.694-6.607,8.397-7.153c3.278-0.662,10.523,1.549,12.751,4.043
	c3.484,3.9,4.043,20.526,4.043,20.526s9.411-4.272,12.44-5.909c3.285-1.775,9.121-6.903,12.751-7.775
	C1013.232,457.963,1031.579,460.269,1031.579,460.269z"/>
<path opacity="0.3" fill="#FDFDFE" d="M817.08,204.668c0,0,19.126-1.866,28.456-10.263c2.275-2.048,6.531-3.732,5.598-13.995
	c-0.119-1.314-5.598-1.166-5.598-1.166s6.997-5.831,9.33-17.027c3.188-15.301-7.464-17.727-7.464-17.727s18.63-20.007,21.459-28.456
	c1.703-5.087,3.793-13.7,0-17.493c-3.216-3.216-17.727-0.233-17.727-0.233s0.039-26.101-3.732-32.188
	c-4.174-6.737-18.973-13.377-26.823-14.461c-12.46-1.721-35.325,8.994-46.416,14.928c-9.797,5.241-28.341,15.627-33.121,25.657
	c-1.756,3.685-2.099,18.193-2.099,18.193s-16.327-3.499-23.091,8.397c-2.133,3.751,0.155,17.26,0.155,17.26
	s-11.049,4.273-14.461,3.499c-5.799-1.315-15.812-7.972-21.692-8.863c-9.556-1.448-26.174-0.704-34.987,3.265
	c-10.715,4.826-36.62,29.831-36.62,29.831s-7.619-5.131-19.515,0c-3.033,1.308-11.694,6.176-12.595,9.354
	c-1.027,3.622,1.277,11.592,3.965,14.228c4.484,4.397,20.081,1.84,24.258,6.531c2.117,2.377,8.757,6.066,8.757,6.066
	s-13.104-4.702-15.988-5.133c-7.292-1.089-9.591,3.238-12.25,2.09c-5.79-2.501-14.727-2.4-20.156,0.81
	c-1.894,1.12-7.478,8.763-7.478,8.763s-9.563-1.866-19.593,0.7c-19.809,5.068-16.794,13.761-16.794,13.761
	s-9.019-2.684-12.129-2.799c-4.599-0.171-15.197-0.694-18.193,2.799c-1.063,1.239,0,6.531,0,6.531s-18.502-5.344-24.258-3.265
	c-3.726,1.346-10.667,7.701-10.729,11.662c-0.053,3.39,5.781,8.852,8.863,10.263c6.575,3.009,21.923-1.814,28.922,0
	c2.325,0.602,13.528,3.265,13.528,3.265s-6.787,7.739-5.598,9.33c3.082,4.124,14.919,4.368,20.059,4.665
	c16.522,0.955,65.775-7.464,65.775-7.464s-0.696,11.868,1.866,14.461c7.037,7.121,39.652,5.598,39.652,5.598
	s26.705-1.019,49.448-10.729c15.178-6.48,70.907-42.917,109.159-49.448C804.224,212.961,817.08,204.668,817.08,204.668z"/>
<path opacity="0.15" fill="#FDFDFE" d="M537.653,207.234c-18.776,3.265-16.794,13.761-16.794,13.761s-9.019-2.684-12.129-2.799
	c-4.599-0.171-15.197-0.694-18.193,2.799c-1.063,1.239,0,6.531,0,6.531s-18.502-5.344-24.258-3.265
	c-3.726,1.346-10.667,7.701-10.729,11.662c-0.053,3.39,5.781,8.852,8.863,10.263c0,0-4.031-4.505-4.198-6.414
	c-0.116-1.327,1.076-4.045,2.099-4.898c2.527-2.105,5.598-3.849,11.429-4.548c9.771-1.172,20.526,1.283,20.526,1.283
	s-1.386-4.426-0.583-4.898c4.705-2.769,16.228,2.281,21.575,3.382c2.417,0.498,9.563,2.449,9.563,2.449s-1.309-5.571-1.283-7.464
	c0.024-1.784,1.492-6.016,2.799-7.231c3.099-2.881,13.379-3.032,17.61-3.032c12.012,0,19.826,3.499,19.826,3.499
	s-3.448-11.269-6.531-11.779C554.562,206.09,546.103,205.764,537.653,207.234z"/>
<path opacity="0.15" fill="#FDFDFE" d="M739.129,110.437c0,0-16.327-3.499-23.091,8.397c-2.133,3.751,0.155,17.26,0.155,17.26
	s-11.049,4.273-14.461,3.499c-5.799-1.315-15.812-7.972-21.692-8.863c-9.556-1.448-26.174-0.704-34.987,3.265
	c-10.715,4.826-36.62,29.831-36.62,29.831s-7.619-5.131-19.515,0c0,0,13.157,0.509,17.307,1.812
	c1.228,0.386,4.509,2.488,4.509,2.488s1.907-3.929,13.684-10.418c7.619-4.198,16.794-3.11,16.794-3.11s7.856-12.835,12.284-14.617
	c6.093-2.452,21.197-1.841,27.678-0.777c4.244,0.697,16.148,8.776,20.681,9.019c3.032,0.163,13.137,1.457,16.172,1.555
	c2.143,0.069,14.306,3.732,14.306,3.732s-7.607-9.61-9.485-13.217c-1.408-2.704-3.448-8.769-3.421-11.818
	c0.026-2.903-0.311-6.064,6.064-10.729c11.568-8.464,18.815-4.509,18.815-4.509L739.129,110.437L739.129,110.437z"/>
<path opacity="0.3" fill="#FDFDFE" d="M0,26.35c16.222,16.643,15.788,44.084,15.788,44.084s27.277-6.281,42.544,18.908
	c13.506,22.285,2.811,37.799,0,49.972c-0.722,3.125,0,12.831,0,12.831s35.004-1.148,46.596,0
	c13.706,1.357,41.247,5.662,54.024,10.805c10.775,4.336,39.167,24.986,39.167,24.986s14.857-10.467,43.895,0
	c7.182,2.589,18.712,13.207,24.986,17.558c3.194,2.215,9.259,7.247,12.831,8.779c9.678,4.149,31.778,5.809,40.18,12.155
	c2.955,2.232,8.586,6.742,7.091,10.13c-3.947,8.937-27.493,10.617-37.142,12.155c-10.17,1.622-41.193,0-41.193,0
	s-87.972,19.205-114.801,8.779c-3.451-1.341-6.842-9.101-10.13-10.805c-32.452-16.818-76.699,23.378-88.801-11.112
	c-4.753-13.545,15.193-11.173,15.193-11.173s-6.079-6.439-8.779-7.428c-9.865-3.614-28.041-4.28-41.449-4.562V26.35z"/>
</svg>
