<?xml version="1.0" encoding="utf-8"?>
<!-- Generator: Adobe Illustrator 17.0.0, SVG Export Plug-In . SVG Version: 6.00 Build 0)  -->
<!DOCTYPE svg PUBLIC "-//W3C//DTD SVG 1.1//EN" "http://www.w3.org/Graphics/SVG/1.1/DTD/svg11.dtd">
<svg version="1.1" id="Layer_1" xmlns="http://www.w3.org/2000/svg" xmlns:xlink="http://www.w3.org/1999/xlink" x="0px" y="0px"
	 width="138.5px" height="136px" viewBox="0 0 138.5 136" enable-background="new 0 0 138.5 136" xml:space="preserve">
<linearGradient id="SVGID_1_" gradientUnits="userSpaceOnUse" x1="138.6353" y1="188.2247" x2="35.0636" y2="8.8333">
	<stop  offset="0" style="stop-color:#A1A4AB"/>
	<stop  offset="0.4199" style="stop-color:#FBC2B0"/>
	<stop  offset="0.4947" style="stop-color:#FDCD97"/>
	<stop  offset="0.5744" style="stop-color:#FFD77E"/>
	<stop  offset="0.6559" style="stop-color:#FFE063"/>
	<stop  offset="0.7384" style="stop-color:#FFE645"/>
	<stop  offset="0.8223" style="stop-color:#FFEB29"/>
	<stop  offset="0.9083" style="stop-color:#FFEF07"/>
	<stop  offset="1" style="stop-color:#FFF100"/>
</linearGradient>
<ellipse fill="url(#SVGID_1_)" cx="69.2" cy="68" rx="69.2" ry="68"/>
<linearGradient id="SVGID_2_" gradientUnits="userSpaceOnUse" x1="10068.5498" y1="68.6095" x2="10192.4727" y2="68.6095" gradientTransform="matrix(-1 0 0 1 10207.0801 0)">
	<stop  offset="0" style="stop-color:#ECF8FE"/>
	<stop  offset="1" style="stop-color:#FFF25D"/>
</linearGradient>
<path opacity="0.2" fill="url(#SVGID_2_)" d="M57.4,135.3c0,0,51,8.9,74.4-37.6c16.7-33.2-1-69.6-16.1-80.2
	C104.7,9.9,103.8,6.3,82.3,1.2c0,0,22.2,43.7,6,78c-15.8,33.4-72.9,30.6-73.7,30.6C33.2,132.4,57.4,135.3,57.4,135.3z"/>
<linearGradient id="SVGID_3_" gradientUnits="userSpaceOnUse" x1="10068.6367" y1="72.846" x2="10168.8232" y2="72.846" gradientTransform="matrix(-1 0 0 1 10207.0801 0)">
	<stop  offset="0" style="stop-color:#ECF8FE"/>
	<stop  offset="1" style="stop-color:#FFF25D"/>
</linearGradient>
<path opacity="0.2" fill="url(#SVGID_3_)" d="M112.6,91c-23.4,46.5-74.4,37.6-74.4,37.6s7.5,7.1,32,7.3c33.7,0.4,68-29.8,68.2-66.6
	c-0.1-16.1-5.8-32.2-15.3-43.8c-8.8-10.7-13.5-12.3-18.2-15.6c0,0,0,0-0.1,0C105.5,10.8,129.3,57.7,112.6,91z"/>
</svg>
