<?xml version="1.0" encoding="utf-8"?>
<!-- Generator: Adobe Illustrator 17.0.0, SVG Export Plug-In . SVG Version: 6.00 Build 0)  -->
<!DOCTYPE svg PUBLIC "-//W3C//DTD SVG 1.1//EN" "http://www.w3.org/Graphics/SVG/1.1/DTD/svg11.dtd">
<svg version="1.1" id="Layer_1" xmlns="http://www.w3.org/2000/svg" xmlns:xlink="http://www.w3.org/1999/xlink" x="0px" y="0px"
	 width="1178.1px" height="1012.9px" viewBox="0 0 1178.1 1012.9" enable-background="new 0 0 1178.1 1012.9" xml:space="preserve">
<radialGradient id="SVGID_1_" cx="51.32" cy="384.8939" r="1.4335" gradientUnits="userSpaceOnUse">
	<stop  offset="0.1174" style="stop-color:#DEDBC0"/>
	<stop  offset="1" style="stop-color:#FFFFFF;stop-opacity:0"/>
</radialGradient>
<path fill="url(#SVGID_1_)" d="M51.3,383.3c0,0-0.2,0.9-0.4,1.1c-0.2,0.2-0.9,0.4-0.9,0.4s0.7,0.2,0.9,0.5c0.2,0.2,0.4,1.1,0.4,1.1
	s0.2-0.9,0.4-1.2c0.2-0.2,0.9-0.5,0.9-0.5s-0.7-0.2-0.9-0.4C51.5,384.2,51.3,383.3,51.3,383.3z"/>
<radialGradient id="SVGID_2_" cx="14.0637" cy="357.1297" r="2.0538" gradientUnits="userSpaceOnUse">
	<stop  offset="0.1174" style="stop-color:#DEDBC0"/>
	<stop  offset="1" style="stop-color:#FFFFFF;stop-opacity:0"/>
</radialGradient>
<path fill="url(#SVGID_2_)" d="M14,354.9c0,0-0.3,1.3-0.5,1.6c-0.3,0.3-1.3,0.6-1.3,0.6s1,0.3,1.3,0.7c0.3,0.3,0.6,1.6,0.6,1.6
	s0.3-1.3,0.6-1.7c0.3-0.3,1.2-0.8,1.2-0.8s-1-0.2-1.3-0.5C14.4,356.2,14,354.9,14,354.9z"/>
<radialGradient id="SVGID_3_" cx="2.6345" cy="436.989" r="2.9312" gradientUnits="userSpaceOnUse">
	<stop  offset="0.1174" style="stop-color:#DEDBC0"/>
	<stop  offset="1" style="stop-color:#FFFFFF;stop-opacity:0"/>
</radialGradient>
<path fill="url(#SVGID_3_)" d="M2.6,433.8c0,0-0.4,1.9-0.7,2.3c-0.5,0.4-1.8,0.8-1.8,0.8s1.4,0.5,1.9,1c0.4,0.4,0.9,2.3,0.9,2.3
	s0.4-1.9,0.8-2.4c0.4-0.4,1.7-1.1,1.7-1.1s-1.4-0.3-1.8-0.7C3.1,435.7,2.6,433.8,2.6,433.8z"/>
<radialGradient id="SVGID_4_" cx="45.2959" cy="349.4694" r="4.3748" gradientUnits="userSpaceOnUse">
	<stop  offset="0.1174" style="stop-color:#DEDBC0"/>
	<stop  offset="1" style="stop-color:#FFFFFF;stop-opacity:0"/>
</radialGradient>
<path fill="url(#SVGID_4_)" d="M45.2,344.7c0,0-0.6,2.9-1.1,3.4c-0.7,0.6-2.7,1.3-2.7,1.3s2.1,0.7,2.8,1.5c0.6,0.6,1.3,3.5,1.3,3.5
	s0.6-2.9,1.2-3.5c0.5-0.7,2.6-1.6,2.6-1.6s-2.1-0.5-2.7-1.1C45.9,347.5,45.2,344.7,45.2,344.7z"/>
<radialGradient id="SVGID_5_" cx="1176.7889" cy="362.0573" r="1.4335" gradientUnits="userSpaceOnUse">
	<stop  offset="0.1174" style="stop-color:#DEDBC0"/>
	<stop  offset="1" style="stop-color:#FFFFFF;stop-opacity:0"/>
</radialGradient>
<path fill="url(#SVGID_5_)" d="M1176.8,360.5c0,0-0.2,0.9-0.4,1.1c-0.2,0.2-0.9,0.4-0.9,0.4s0.7,0.2,0.9,0.5
	c0.2,0.2,0.4,1.1,0.4,1.1s0.2-0.9,0.4-1.2c0.2-0.2,0.9-0.5,0.9-0.5s-0.7-0.2-0.9-0.4C1177,361.4,1176.8,360.5,1176.8,360.5z"/>
<radialGradient id="SVGID_6_" cx="1139.5326" cy="334.2931" r="1.9101" gradientUnits="userSpaceOnUse">
	<stop  offset="0.1174" style="stop-color:#DEDBC0"/>
	<stop  offset="1" style="stop-color:#FFFFFF;stop-opacity:0"/>
</radialGradient>
<path fill="url(#SVGID_6_)" d="M1139.5,332.2c0,0-0.2,1.3-0.5,1.5c-0.3,0.3-1.2,0.5-1.2,0.5s0.9,0.3,1.2,0.6
	c0.2,0.3,0.6,1.5,0.6,1.5s0.3-1.3,0.5-1.5c0.2-0.3,1.1-0.7,1.1-0.7s-0.9-0.2-1.2-0.5C1139.8,333.4,1139.5,332.2,1139.5,332.2z"/>
<radialGradient id="SVGID_7_" cx="934.0515" cy="275.1874" r="2.1003" gradientUnits="userSpaceOnUse">
	<stop  offset="0.1174" style="stop-color:#DEDBC0"/>
	<stop  offset="1" style="stop-color:#FFFFFF;stop-opacity:0"/>
</radialGradient>
<path fill="url(#SVGID_7_)" d="M934,272.9c0,0-0.3,1.4-0.5,1.6c-0.3,0.3-1.3,0.6-1.3,0.6s1,0.3,1.3,0.7c0.3,0.3,0.6,1.7,0.6,1.7
	s0.3-1.4,0.6-1.7c0.3-0.3,1.2-0.8,1.2-0.8s-1-0.2-1.3-0.5C934.4,274.2,934,272.9,934,272.9z"/>
<radialGradient id="SVGID_8_" cx="1170.7648" cy="326.6328" r="2.8981" gradientUnits="userSpaceOnUse">
	<stop  offset="0.1174" style="stop-color:#DEDBC0"/>
	<stop  offset="1" style="stop-color:#FFFFFF;stop-opacity:0"/>
</radialGradient>
<path fill="url(#SVGID_8_)" d="M1170.7,323.5c0,0-0.4,1.9-0.7,2.2c-0.4,0.4-1.8,0.8-1.8,0.8s1.4,0.5,1.9,1c0.4,0.4,0.8,2.3,0.8,2.3
	s0.4-1.9,0.8-2.3c0.4-0.4,1.7-1.1,1.7-1.1s-1.4-0.3-1.8-0.7C1171.2,325.3,1170.7,323.5,1170.7,323.5z"/>
<radialGradient id="SVGID_9_" cx="489.6583" cy="421.2652" r="2.2013" gradientUnits="userSpaceOnUse">
	<stop  offset="0.1174" style="stop-color:#DEDBC0"/>
	<stop  offset="1" style="stop-color:#FFFFFF;stop-opacity:0"/>
</radialGradient>
<path fill="url(#SVGID_9_)" d="M489.6,418.9c0,0-0.3,1.4-0.6,1.7c-0.3,0.3-1.4,0.6-1.4,0.6s1.1,0.4,1.4,0.7c0.3,0.3,0.6,1.7,0.6,1.7
	s0.3-1.4,0.6-1.8c0.3-0.3,1.3-0.8,1.3-0.8s-1.1-0.2-1.4-0.5C490,420.3,489.6,418.9,489.6,418.9z"/>
<radialGradient id="SVGID_10_" cx="1097.5326" cy="420.8759" r="2.3287" gradientUnits="userSpaceOnUse">
	<stop  offset="0.1174" style="stop-color:#DEDBC0"/>
	<stop  offset="1" style="stop-color:#FFFFFF;stop-opacity:0"/>
</radialGradient>
<path fill="url(#SVGID_10_)" d="M1097.5,418.3c0,0-0.3,1.5-0.6,1.8c-0.4,0.3-1.5,0.7-1.5,0.7s1.1,0.4,1.5,0.8
	c0.3,0.3,0.7,1.8,0.7,1.8s0.3-1.5,0.6-1.9c0.3-0.4,1.4-0.9,1.4-0.9s-1.1-0.3-1.5-0.6C1097.9,419.8,1097.5,418.3,1097.5,418.3z"/>
<radialGradient id="SVGID_11_" cx="1025.3353" cy="61.8604" r="2.0249" gradientUnits="userSpaceOnUse">
	<stop  offset="0.1174" style="stop-color:#DEDBC0"/>
	<stop  offset="1" style="stop-color:#FFFFFF;stop-opacity:0"/>
</radialGradient>
<path fill="url(#SVGID_11_)" d="M1025.3,59.6c0,0-0.3,1.3-0.5,1.6c-0.3,0.3-1.3,0.6-1.3,0.6s1,0.3,1.3,0.7c0.3,0.3,0.6,1.6,0.6,1.6
	s0.3-1.3,0.5-1.6c0.3-0.3,1.2-0.7,1.2-0.7s-1-0.2-1.3-0.5C1025.6,60.9,1025.3,59.6,1025.3,59.6z"/>
<radialGradient id="SVGID_12_" cx="747.7292" cy="41.2264" r="2.7834" gradientUnits="userSpaceOnUse">
	<stop  offset="0.1174" style="stop-color:#DEDBC0"/>
	<stop  offset="1" style="stop-color:#FFFFFF;stop-opacity:0"/>
</radialGradient>
<path fill="url(#SVGID_12_)" d="M747.7,38.2c0,0-0.4,1.8-0.7,2.2c-0.4,0.4-1.7,0.8-1.7,0.8s1.4,0.4,1.8,0.9c0.4,0.4,0.8,2.2,0.8,2.2
	s0.4-1.8,0.8-2.2c0.3-0.4,1.7-1,1.7-1s-1.3-0.3-1.7-0.7C748.1,40,747.7,38.2,747.7,38.2z"/>
<radialGradient id="SVGID_13_" cx="732.4409" cy="62.4653" r="2.5633" gradientUnits="userSpaceOnUse">
	<stop  offset="0.1174" style="stop-color:#DEDBC0"/>
	<stop  offset="1" style="stop-color:#FFFFFF;stop-opacity:0"/>
</radialGradient>
<path fill="url(#SVGID_13_)" d="M732.4,59.7c0,0-0.3,1.7-0.6,2c-0.4,0.4-1.6,0.7-1.6,0.7s1.2,0.4,1.6,0.9c0.3,0.4,0.8,2,0.8,2
	s0.4-1.7,0.7-2.1c0.3-0.4,1.5-0.9,1.5-0.9s-1.2-0.3-1.6-0.6C732.8,61.3,732.4,59.7,732.4,59.7z"/>
<radialGradient id="SVGID_14_" cx="619.9539" cy="2.3159" r="2.121" gradientUnits="userSpaceOnUse">
	<stop  offset="0.1174" style="stop-color:#DEDBC0"/>
	<stop  offset="1" style="stop-color:#FFFFFF;stop-opacity:0"/>
</radialGradient>
<path fill="url(#SVGID_14_)" d="M619.9,0c0,0-0.3,1.4-0.5,1.6C619,2,618,2.2,618,2.2s1,0.3,1.4,0.7c0.3,0.3,0.6,1.7,0.6,1.7
	s0.3-1.4,0.6-1.7c0.3-0.3,1.3-0.8,1.3-0.8s-1-0.2-1.3-0.5C620.3,1.4,619.9,0,619.9,0z"/>
<radialGradient id="SVGID_15_" cx="1051.1003" cy="35.4627" r="2.0716" gradientUnits="userSpaceOnUse">
	<stop  offset="0.1174" style="stop-color:#DEDBC0"/>
	<stop  offset="1" style="stop-color:#FFFFFF;stop-opacity:0"/>
</radialGradient>
<path fill="url(#SVGID_15_)" d="M1051,33.2c0,0-0.3,1.4-0.5,1.6c-0.3,0.3-1.3,0.6-1.3,0.6s1,0.3,1.3,0.7c0.3,0.3,0.6,1.6,0.6,1.6
	s0.3-1.4,0.6-1.7c0.3-0.3,1.2-0.8,1.2-0.8s-1-0.2-1.3-0.5C1051.4,34.5,1051,33.2,1051,33.2z"/>
<radialGradient id="SVGID_16_" cx="77.2208" cy="48.6874" r="2.4334" gradientUnits="userSpaceOnUse">
	<stop  offset="0.1174" style="stop-color:#DEDBC0"/>
	<stop  offset="1" style="stop-color:#FFFFFF;stop-opacity:0"/>
</radialGradient>
<path fill="url(#SVGID_16_)" d="M77.2,46c0,0-0.3,1.6-0.6,1.9c-0.4,0.4-1.5,0.7-1.5,0.7s1.2,0.4,1.6,0.8c0.3,0.4,0.7,1.9,0.7,1.9
	s0.4-1.6,0.7-2c0.3-0.4,1.4-0.9,1.4-0.9s-1.2-0.3-1.5-0.6C77.6,47.6,77.2,46,77.2,46z"/>
<radialGradient id="SVGID_17_" cx="85.2754" cy="60.1156" r="2.4334" gradientUnits="userSpaceOnUse">
	<stop  offset="0.1174" style="stop-color:#DEDBC0"/>
	<stop  offset="1" style="stop-color:#FFFFFF;stop-opacity:0"/>
</radialGradient>
<path fill="url(#SVGID_17_)" d="M85.2,57.5c0,0-0.3,1.6-0.6,1.9c-0.4,0.4-1.5,0.7-1.5,0.7s1.2,0.4,1.6,0.8c0.3,0.4,0.7,1.9,0.7,1.9
	s0.4-1.6,0.7-2c0.3-0.4,1.4-0.9,1.4-0.9s-1.2-0.3-1.5-0.6C85.6,59,85.2,57.5,85.2,57.5z"/>
<radialGradient id="SVGID_18_" cx="348.9749" cy="209.7973" r="1.3532" gradientUnits="userSpaceOnUse">
	<stop  offset="0.1174" style="stop-color:#DEDBC0"/>
	<stop  offset="1" style="stop-color:#FFFFFF;stop-opacity:0"/>
</radialGradient>
<path fill="url(#SVGID_18_)" d="M348.9,208.3c0,0-0.2,0.9-0.3,1c-0.2,0.2-0.8,0.4-0.8,0.4s0.7,0.2,0.9,0.5c0.2,0.2,0.4,1.1,0.4,1.1
	s0.2-0.9,0.4-1.1c0.2-0.2,0.8-0.5,0.8-0.5s-0.7-0.2-0.8-0.3C349.2,209.2,348.9,208.3,348.9,208.3z"/>
<radialGradient id="SVGID_19_" cx="353.4539" cy="216.1523" r="1.3532" gradientUnits="userSpaceOnUse">
	<stop  offset="0.1174" style="stop-color:#DEDBC0"/>
	<stop  offset="1" style="stop-color:#FFFFFF;stop-opacity:0"/>
</radialGradient>
<path fill="url(#SVGID_19_)" d="M353.4,214.7c0,0-0.2,0.9-0.3,1c-0.2,0.2-0.8,0.4-0.8,0.4s0.7,0.2,0.9,0.5c0.2,0.2,0.4,1.1,0.4,1.1
	s0.2-0.9,0.4-1.1c0.2-0.2,0.8-0.5,0.8-0.5s-0.7-0.2-0.8-0.3C353.7,215.5,353.4,214.7,353.4,214.7z"/>
<radialGradient id="SVGID_20_" cx="45.882" cy="74.6515" r="3.1124" gradientUnits="userSpaceOnUse">
	<stop  offset="0.1174" style="stop-color:#DEDBC0"/>
	<stop  offset="1" style="stop-color:#FFFFFF;stop-opacity:0"/>
</radialGradient>
<path fill="url(#SVGID_20_)" d="M45.8,71.3c0,0-0.4,2-0.8,2.4c-0.5,0.5-1.9,0.9-1.9,0.9s1.5,0.5,2,1C45.5,76,46,78,46,78
	s0.5-2,0.8-2.5c0.4-0.5,1.9-1.1,1.9-1.1s-1.5-0.3-1.9-0.8C46.3,73.2,45.8,71.3,45.8,71.3z"/>
<radialGradient id="SVGID_21_" cx="40.2551" cy="164.6405" r="1.6051" gradientUnits="userSpaceOnUse">
	<stop  offset="0.1174" style="stop-color:#DEDBC0"/>
	<stop  offset="1" style="stop-color:#FFFFFF;stop-opacity:0"/>
</radialGradient>
<path fill="url(#SVGID_21_)" d="M40.2,162.9c0,0-0.2,1.1-0.4,1.2c-0.2,0.2-1,0.5-1,0.5s0.8,0.3,1,0.5c0.2,0.2,0.5,1.3,0.5,1.3
	s0.2-1.1,0.4-1.3c0.2-0.2,1-0.6,1-0.6s-0.8-0.2-1-0.4C40.5,163.9,40.2,162.9,40.2,162.9z"/>
<radialGradient id="SVGID_22_" cx="962.6942" cy="155.5831" r="1.8452" gradientUnits="userSpaceOnUse">
	<stop  offset="0.1174" style="stop-color:#DEDBC0"/>
	<stop  offset="1" style="stop-color:#FFFFFF;stop-opacity:0"/>
</radialGradient>
<path fill="url(#SVGID_22_)" d="M962.6,153.6c0,0-0.2,1.2-0.5,1.4c-0.3,0.3-1.2,0.5-1.2,0.5s0.9,0.3,1.2,0.6
	c0.2,0.3,0.5,1.5,0.5,1.5s0.3-1.2,0.5-1.5c0.2-0.3,1.1-0.7,1.1-0.7s-0.9-0.2-1.2-0.5C963,154.7,962.6,153.6,962.6,153.6z"/>
<radialGradient id="SVGID_23_" cx="189.9209" cy="120.5525" r="2.4334" gradientUnits="userSpaceOnUse">
	<stop  offset="0.1174" style="stop-color:#DEDBC0"/>
	<stop  offset="1" style="stop-color:#FFFFFF;stop-opacity:0"/>
</radialGradient>
<path fill="url(#SVGID_23_)" d="M189.9,117.9c0,0-0.3,1.6-0.6,1.9c-0.4,0.4-1.5,0.7-1.5,0.7s1.2,0.4,1.6,0.8
	c0.3,0.4,0.7,1.9,0.7,1.9s0.4-1.6,0.7-2c0.3-0.4,1.4-0.9,1.4-0.9s-1.2-0.3-1.5-0.6C190.3,119.4,189.9,117.9,189.9,117.9z"/>
<radialGradient id="SVGID_24_" cx="197.3034" cy="136.4175" r="2.4334" gradientUnits="userSpaceOnUse">
	<stop  offset="0.1174" style="stop-color:#DEDBC0"/>
	<stop  offset="1" style="stop-color:#FFFFFF;stop-opacity:0"/>
</radialGradient>
<path fill="url(#SVGID_24_)" d="M197.2,133.8c0,0-0.3,1.6-0.6,1.9c-0.4,0.4-1.5,0.7-1.5,0.7s1.2,0.4,1.6,0.8
	c0.3,0.4,0.7,1.9,0.7,1.9s0.4-1.6,0.7-2c0.3-0.4,1.4-0.9,1.4-0.9s-1.2-0.3-1.5-0.6C197.7,135.3,197.2,133.8,197.2,133.8z"/>
<radialGradient id="SVGID_25_" cx="386.9749" cy="13.7974" r="1.3532" gradientUnits="userSpaceOnUse">
	<stop  offset="0.1174" style="stop-color:#DEDBC0"/>
	<stop  offset="1" style="stop-color:#FFFFFF;stop-opacity:0"/>
</radialGradient>
<path fill="url(#SVGID_25_)" d="M386.9,12.3c0,0-0.2,0.9-0.3,1c-0.2,0.2-0.8,0.4-0.8,0.4s0.7,0.2,0.9,0.5c0.2,0.2,0.4,1.1,0.4,1.1
	s0.2-0.9,0.4-1.1c0.2-0.2,0.8-0.5,0.8-0.5s-0.7-0.2-0.8-0.3C387.2,13.2,386.9,12.3,386.9,12.3z"/>
<radialGradient id="SVGID_26_" cx="531.9749" cy="57.7974" r="1.3532" gradientUnits="userSpaceOnUse">
	<stop  offset="0.1174" style="stop-color:#DEDBC0"/>
	<stop  offset="1" style="stop-color:#FFFFFF;stop-opacity:0"/>
</radialGradient>
<path fill="url(#SVGID_26_)" d="M531.9,56.3c0,0-0.2,0.9-0.3,1c-0.2,0.2-0.8,0.4-0.8,0.4s0.7,0.2,0.9,0.5c0.2,0.2,0.4,1.1,0.4,1.1
	s0.2-0.9,0.4-1.1c0.2-0.2,0.8-0.5,0.8-0.5s-0.7-0.2-0.8-0.3C532.2,57.2,531.9,56.3,531.9,56.3z"/>
<radialGradient id="SVGID_27_" cx="535.5947" cy="49.5928" r="1.7069" gradientUnits="userSpaceOnUse">
	<stop  offset="0.1174" style="stop-color:#DEDBC0"/>
	<stop  offset="1" style="stop-color:#FFFFFF;stop-opacity:0"/>
</radialGradient>
<path fill="url(#SVGID_27_)" d="M535.6,47.7c0,0-0.2,1.1-0.4,1.3c-0.3,0.3-1.1,0.5-1.1,0.5s0.8,0.3,1.1,0.6c0.2,0.2,0.5,1.3,0.5,1.3
	s0.2-1.1,0.5-1.4c0.2-0.3,1-0.6,1-0.6s-0.8-0.2-1.1-0.4C535.8,48.8,535.6,47.7,535.6,47.7z"/>
<radialGradient id="SVGID_28_" cx="501.3124" cy="397.126" r="2.2013" gradientUnits="userSpaceOnUse">
	<stop  offset="0.1174" style="stop-color:#DEDBC0"/>
	<stop  offset="1" style="stop-color:#FFFFFF;stop-opacity:0"/>
</radialGradient>
<path fill="url(#SVGID_28_)" d="M501.3,394.7c0,0-0.3,1.4-0.6,1.7c-0.3,0.3-1.4,0.6-1.4,0.6s1.1,0.4,1.4,0.7
	c0.3,0.3,0.6,1.7,0.6,1.7s0.3-1.4,0.6-1.8c0.3-0.3,1.3-0.8,1.3-0.8s-1.1-0.2-1.4-0.5C501.6,396.1,501.3,394.7,501.3,394.7z"/>
<radialGradient id="SVGID_29_" cx="503.7669" cy="401.968" r="1.651" gradientUnits="userSpaceOnUse">
	<stop  offset="0.1174" style="stop-color:#DEDBC0"/>
	<stop  offset="1" style="stop-color:#FFFFFF;stop-opacity:0"/>
</radialGradient>
<path fill="url(#SVGID_29_)" d="M503.7,400.2c0,0-0.2,1.1-0.4,1.3c-0.3,0.2-1,0.5-1,0.5s0.8,0.3,1.1,0.5c0.2,0.2,0.5,1.3,0.5,1.3
	s0.2-1.1,0.4-1.3c0.2-0.3,1-0.6,1-0.6s-0.8-0.2-1-0.4C504,401.2,503.7,400.2,503.7,400.2z"/>
<radialGradient id="SVGID_30_" cx="264.5266" cy="685.6268" r="1.4335" gradientUnits="userSpaceOnUse">
	<stop  offset="0.1174" style="stop-color:#DEDBC0"/>
	<stop  offset="1" style="stop-color:#FFFFFF;stop-opacity:0"/>
</radialGradient>
<path fill="url(#SVGID_30_)" d="M264.5,684.1c0,0-0.2,0.9-0.4,1.1c-0.2,0.2-0.9,0.4-0.9,0.4s0.7,0.2,0.9,0.5
	c0.2,0.2,0.4,1.1,0.4,1.1s0.2-0.9,0.4-1.2c0.2-0.2,0.9-0.5,0.9-0.5s-0.7-0.2-0.9-0.4C264.7,685,264.5,684.1,264.5,684.1z"/>
<radialGradient id="SVGID_31_" cx="227.2702" cy="657.8626" r="2.0538" gradientUnits="userSpaceOnUse">
	<stop  offset="0.1174" style="stop-color:#DEDBC0"/>
	<stop  offset="1" style="stop-color:#FFFFFF;stop-opacity:0"/>
</radialGradient>
<path fill="url(#SVGID_31_)" d="M227.2,655.6c0,0-0.3,1.3-0.5,1.6c-0.3,0.3-1.3,0.6-1.3,0.6s1,0.3,1.3,0.7c0.3,0.3,0.6,1.6,0.6,1.6
	s0.3-1.3,0.6-1.7c0.3-0.3,1.2-0.8,1.2-0.8s-1-0.2-1.3-0.5C227.6,656.9,227.2,655.6,227.2,655.6z"/>
<radialGradient id="SVGID_32_" cx="215.8411" cy="737.7219" r="2.9312" gradientUnits="userSpaceOnUse">
	<stop  offset="0.1174" style="stop-color:#DEDBC0"/>
	<stop  offset="1" style="stop-color:#FFFFFF;stop-opacity:0"/>
</radialGradient>
<path fill="url(#SVGID_32_)" d="M215.8,734.5c0,0-0.4,1.9-0.7,2.3c-0.5,0.4-1.8,0.8-1.8,0.8s1.4,0.5,1.9,1c0.4,0.4,0.9,2.3,0.9,2.3
	s0.4-1.9,0.8-2.4c0.4-0.4,1.7-1.1,1.7-1.1s-1.4-0.3-1.8-0.7C216.3,736.4,215.8,734.5,215.8,734.5z"/>
<radialGradient id="SVGID_33_" cx="258.5024" cy="650.2023" r="4.3748" gradientUnits="userSpaceOnUse">
	<stop  offset="0.1174" style="stop-color:#DEDBC0"/>
	<stop  offset="1" style="stop-color:#FFFFFF;stop-opacity:0"/>
</radialGradient>
<path fill="url(#SVGID_33_)" d="M258.4,645.4c0,0-0.6,2.9-1.1,3.4c-0.7,0.6-2.7,1.3-2.7,1.3s2.1,0.7,2.8,1.5
	c0.6,0.6,1.3,3.5,1.3,3.5s0.6-2.9,1.2-3.5c0.5-0.7,2.6-1.6,2.6-1.6s-2.1-0.5-2.7-1.1C259.1,648.2,258.4,645.4,258.4,645.4z"/>
<radialGradient id="SVGID_34_" cx="188.2763" cy="787.9782" r="1.4335" gradientUnits="userSpaceOnUse">
	<stop  offset="0.1174" style="stop-color:#DEDBC0"/>
	<stop  offset="1" style="stop-color:#FFFFFF;stop-opacity:0"/>
</radialGradient>
<path fill="url(#SVGID_34_)" d="M188.2,786.4c0,0-0.2,0.9-0.4,1.1c-0.2,0.2-0.9,0.4-0.9,0.4s0.7,0.2,0.9,0.5
	c0.2,0.2,0.4,1.1,0.4,1.1s0.2-0.9,0.4-1.2c0.2-0.2,0.9-0.5,0.9-0.5s-0.7-0.2-0.9-0.4C188.5,787.3,188.2,786.4,188.2,786.4z"/>
<radialGradient id="SVGID_35_" cx="151.02" cy="760.214" r="1.9101" gradientUnits="userSpaceOnUse">
	<stop  offset="0.1174" style="stop-color:#DEDBC0"/>
	<stop  offset="1" style="stop-color:#FFFFFF;stop-opacity:0"/>
</radialGradient>
<path fill="url(#SVGID_35_)" d="M151,758.1c0,0-0.2,1.3-0.5,1.5c-0.3,0.3-1.2,0.5-1.2,0.5s0.9,0.3,1.2,0.6c0.2,0.3,0.6,1.5,0.6,1.5
	s0.3-1.3,0.5-1.5c0.2-0.3,1.1-0.7,1.1-0.7s-0.9-0.2-1.2-0.5C151.3,759.3,151,758.1,151,758.1z"/>
<radialGradient id="SVGID_36_" cx="1147.2581" cy="575.9203" r="2.1003" gradientUnits="userSpaceOnUse">
	<stop  offset="0.1174" style="stop-color:#DEDBC0"/>
	<stop  offset="1" style="stop-color:#FFFFFF;stop-opacity:0"/>
</radialGradient>
<path fill="url(#SVGID_36_)" d="M1147.2,573.6c0,0-0.3,1.4-0.5,1.6c-0.3,0.3-1.3,0.6-1.3,0.6s1,0.3,1.3,0.7c0.3,0.3,0.6,1.7,0.6,1.7
	s0.3-1.4,0.6-1.7c0.3-0.3,1.2-0.8,1.2-0.8s-1-0.2-1.3-0.5C1147.6,575,1147.2,573.6,1147.2,573.6z"/>
<radialGradient id="SVGID_37_" cx="182.2522" cy="752.5537" r="2.8981" gradientUnits="userSpaceOnUse">
	<stop  offset="0.1174" style="stop-color:#DEDBC0"/>
	<stop  offset="1" style="stop-color:#FFFFFF;stop-opacity:0"/>
</radialGradient>
<path fill="url(#SVGID_37_)" d="M182.2,749.4c0,0-0.4,1.9-0.7,2.2c-0.4,0.4-1.8,0.8-1.8,0.8s1.4,0.5,1.9,1c0.4,0.4,0.8,2.3,0.8,2.3
	s0.4-1.9,0.8-2.3c0.4-0.4,1.7-1.1,1.7-1.1s-1.4-0.3-1.8-0.7C182.7,751.2,182.2,749.4,182.2,749.4z"/>
<radialGradient id="SVGID_38_" cx="702.8649" cy="721.998" r="2.2013" gradientUnits="userSpaceOnUse">
	<stop  offset="0.1174" style="stop-color:#DEDBC0"/>
	<stop  offset="1" style="stop-color:#FFFFFF;stop-opacity:0"/>
</radialGradient>
<path fill="url(#SVGID_38_)" d="M702.8,719.6c0,0-0.3,1.4-0.6,1.7c-0.3,0.3-1.4,0.6-1.4,0.6s1.1,0.4,1.4,0.7
	c0.3,0.3,0.6,1.7,0.6,1.7s0.3-1.4,0.6-1.8c0.3-0.3,1.3-0.8,1.3-0.8s-1.1-0.2-1.4-0.5C703.2,721,702.8,719.6,702.8,719.6z"/>
<radialGradient id="SVGID_39_" cx="109.02" cy="846.7968" r="2.3287" gradientUnits="userSpaceOnUse">
	<stop  offset="0.1174" style="stop-color:#DEDBC0"/>
	<stop  offset="1" style="stop-color:#FFFFFF;stop-opacity:0"/>
</radialGradient>
<path fill="url(#SVGID_39_)" d="M109,844.3c0,0-0.3,1.5-0.6,1.8c-0.4,0.3-1.5,0.7-1.5,0.7s1.1,0.4,1.5,0.8c0.3,0.3,0.7,1.8,0.7,1.8
	s0.3-1.5,0.6-1.9c0.3-0.4,1.4-0.9,1.4-0.9s-1.1-0.3-1.5-0.6C109.4,845.7,109,844.3,109,844.3z"/>
<radialGradient id="SVGID_40_" cx="36.8227" cy="487.7813" r="2.0249" gradientUnits="userSpaceOnUse">
	<stop  offset="0.1174" style="stop-color:#DEDBC0"/>
	<stop  offset="1" style="stop-color:#FFFFFF;stop-opacity:0"/>
</radialGradient>
<path fill="url(#SVGID_40_)" d="M36.8,485.6c0,0-0.3,1.3-0.5,1.6c-0.3,0.3-1.3,0.6-1.3,0.6s1,0.3,1.3,0.7c0.3,0.3,0.6,1.6,0.6,1.6
	s0.3-1.3,0.5-1.6c0.3-0.3,1.2-0.7,1.2-0.7s-1-0.2-1.3-0.5C37.1,486.9,36.8,485.6,36.8,485.6z"/>
<radialGradient id="SVGID_41_" cx="960.9358" cy="341.9593" r="2.7834" gradientUnits="userSpaceOnUse">
	<stop  offset="0.1174" style="stop-color:#DEDBC0"/>
	<stop  offset="1" style="stop-color:#FFFFFF;stop-opacity:0"/>
</radialGradient>
<path fill="url(#SVGID_41_)" d="M960.9,338.9c0,0-0.4,1.8-0.7,2.2c-0.4,0.4-1.7,0.8-1.7,0.8s1.4,0.4,1.8,0.9
	c0.4,0.4,0.8,2.2,0.8,2.2s0.4-1.8,0.8-2.2c0.3-0.4,1.7-1,1.7-1s-1.3-0.3-1.7-0.7C961.3,340.7,960.9,338.9,960.9,338.9z"/>
<radialGradient id="SVGID_42_" cx="945.6474" cy="363.1982" r="2.5633" gradientUnits="userSpaceOnUse">
	<stop  offset="0.1174" style="stop-color:#DEDBC0"/>
	<stop  offset="1" style="stop-color:#FFFFFF;stop-opacity:0"/>
</radialGradient>
<path fill="url(#SVGID_42_)" d="M945.6,360.4c0,0-0.3,1.7-0.6,2c-0.4,0.4-1.6,0.7-1.6,0.7s1.2,0.4,1.6,0.9c0.3,0.4,0.8,2,0.8,2
	s0.4-1.7,0.7-2.1c0.3-0.4,1.5-0.9,1.5-0.9s-1.2-0.3-1.6-0.6C946,362,945.6,360.4,945.6,360.4z"/>
<radialGradient id="SVGID_43_" cx="833.1605" cy="303.0487" r="2.121" gradientUnits="userSpaceOnUse">
	<stop  offset="0.1174" style="stop-color:#DEDBC0"/>
	<stop  offset="1" style="stop-color:#FFFFFF;stop-opacity:0"/>
</radialGradient>
<path fill="url(#SVGID_43_)" d="M833.1,300.7c0,0-0.3,1.4-0.5,1.6c-0.3,0.3-1.3,0.6-1.3,0.6s1,0.3,1.4,0.7c0.3,0.3,0.6,1.7,0.6,1.7
	s0.3-1.4,0.6-1.7c0.3-0.3,1.3-0.8,1.3-0.8s-1-0.2-1.3-0.5C833.5,302.1,833.1,300.7,833.1,300.7z"/>
<radialGradient id="SVGID_44_" cx="62.5878" cy="461.3836" r="2.0716" gradientUnits="userSpaceOnUse">
	<stop  offset="0.1174" style="stop-color:#DEDBC0"/>
	<stop  offset="1" style="stop-color:#FFFFFF;stop-opacity:0"/>
</radialGradient>
<path fill="url(#SVGID_44_)" d="M62.5,459.1c0,0-0.3,1.4-0.5,1.6c-0.3,0.3-1.3,0.6-1.3,0.6s1,0.3,1.3,0.7c0.3,0.3,0.6,1.6,0.6,1.6
	s0.3-1.4,0.6-1.7c0.3-0.3,1.2-0.8,1.2-0.8s-1-0.2-1.3-0.5C62.9,460.4,62.5,459.1,62.5,459.1z"/>
<radialGradient id="SVGID_45_" cx="290.4273" cy="349.4203" r="2.4334" gradientUnits="userSpaceOnUse">
	<stop  offset="0.1174" style="stop-color:#DEDBC0"/>
	<stop  offset="1" style="stop-color:#FFFFFF;stop-opacity:0"/>
</radialGradient>
<path fill="url(#SVGID_45_)" d="M290.4,346.8c0,0-0.3,1.6-0.6,1.9c-0.4,0.4-1.5,0.7-1.5,0.7s1.2,0.4,1.6,0.8
	c0.3,0.4,0.7,1.9,0.7,1.9s0.4-1.6,0.7-2c0.3-0.4,1.4-0.9,1.4-0.9s-1.2-0.3-1.5-0.6C290.8,348.3,290.4,346.8,290.4,346.8z"/>
<radialGradient id="SVGID_46_" cx="298.482" cy="360.8485" r="2.4334" gradientUnits="userSpaceOnUse">
	<stop  offset="0.1174" style="stop-color:#DEDBC0"/>
	<stop  offset="1" style="stop-color:#FFFFFF;stop-opacity:0"/>
</radialGradient>
<path fill="url(#SVGID_46_)" d="M298.4,358.2c0,0-0.3,1.6-0.6,1.9c-0.4,0.4-1.5,0.7-1.5,0.7s1.2,0.4,1.6,0.8
	c0.3,0.4,0.7,1.9,0.7,1.9s0.4-1.6,0.7-2c0.3-0.4,1.4-0.9,1.4-0.9s-1.2-0.3-1.5-0.6C298.8,359.7,298.4,358.2,298.4,358.2z"/>
<radialGradient id="SVGID_47_" cx="562.1814" cy="510.5302" r="1.3532" gradientUnits="userSpaceOnUse">
	<stop  offset="0.1174" style="stop-color:#DEDBC0"/>
	<stop  offset="1" style="stop-color:#FFFFFF;stop-opacity:0"/>
</radialGradient>
<path fill="url(#SVGID_47_)" d="M562.1,509.1c0,0-0.2,0.9-0.3,1c-0.2,0.2-0.8,0.4-0.8,0.4s0.7,0.2,0.9,0.5c0.2,0.2,0.4,1.1,0.4,1.1
	s0.2-0.9,0.4-1.1c0.2-0.2,0.8-0.5,0.8-0.5s-0.7-0.2-0.8-0.3C562.4,509.9,562.1,509.1,562.1,509.1z"/>
<radialGradient id="SVGID_48_" cx="566.6604" cy="516.8852" r="1.3532" gradientUnits="userSpaceOnUse">
	<stop  offset="0.1174" style="stop-color:#DEDBC0"/>
	<stop  offset="1" style="stop-color:#FFFFFF;stop-opacity:0"/>
</radialGradient>
<path fill="url(#SVGID_48_)" d="M566.6,515.4c0,0-0.2,0.9-0.3,1c-0.2,0.2-0.8,0.4-0.8,0.4s0.7,0.2,0.9,0.5c0.2,0.2,0.4,1.1,0.4,1.1
	s0.2-0.9,0.4-1.1c0.2-0.2,0.8-0.5,0.8-0.5s-0.7-0.2-0.8-0.3C566.9,516.3,566.6,515.4,566.6,515.4z"/>
<radialGradient id="SVGID_49_" cx="259.0885" cy="375.3844" r="3.1124" gradientUnits="userSpaceOnUse">
	<stop  offset="0.1174" style="stop-color:#DEDBC0"/>
	<stop  offset="1" style="stop-color:#FFFFFF;stop-opacity:0"/>
</radialGradient>
<path fill="url(#SVGID_49_)" d="M259,372c0,0-0.4,2-0.8,2.4c-0.5,0.5-1.9,0.9-1.9,0.9s1.5,0.5,2,1c0.4,0.5,0.9,2.5,0.9,2.5
	s0.5-2,0.8-2.5c0.4-0.5,1.9-1.1,1.9-1.1s-1.5-0.3-1.9-0.8C259.5,374,259,372,259,372z"/>
<radialGradient id="SVGID_50_" cx="253.4616" cy="465.3734" r="1.6051" gradientUnits="userSpaceOnUse">
	<stop  offset="0.1174" style="stop-color:#DEDBC0"/>
	<stop  offset="1" style="stop-color:#FFFFFF;stop-opacity:0"/>
</radialGradient>
<path fill="url(#SVGID_50_)" d="M253.4,463.6c0,0-0.2,1.1-0.4,1.2c-0.2,0.2-1,0.5-1,0.5s0.8,0.3,1,0.5c0.2,0.2,0.5,1.3,0.5,1.3
	s0.2-1.1,0.4-1.3c0.2-0.2,1-0.6,1-0.6s-0.8-0.2-1-0.4C253.7,464.6,253.4,463.6,253.4,463.6z"/>
<radialGradient id="SVGID_51_" cx="1175.9008" cy="456.3159" r="1.8452" gradientUnits="userSpaceOnUse">
	<stop  offset="0.1174" style="stop-color:#DEDBC0"/>
	<stop  offset="1" style="stop-color:#FFFFFF;stop-opacity:0"/>
</radialGradient>
<path fill="url(#SVGID_51_)" d="M1175.9,454.3c0,0-0.2,1.2-0.5,1.4c-0.3,0.3-1.2,0.5-1.2,0.5s0.9,0.3,1.2,0.6
	c0.2,0.3,0.5,1.5,0.5,1.5s0.3-1.2,0.5-1.5c0.2-0.3,1.1-0.7,1.1-0.7s-0.9-0.2-1.2-0.5C1176.2,455.5,1175.9,454.3,1175.9,454.3z"/>
<radialGradient id="SVGID_52_" cx="403.1275" cy="421.2854" r="2.4334" gradientUnits="userSpaceOnUse">
	<stop  offset="0.1174" style="stop-color:#DEDBC0"/>
	<stop  offset="1" style="stop-color:#FFFFFF;stop-opacity:0"/>
</radialGradient>
<path fill="url(#SVGID_52_)" d="M403.1,418.6c0,0-0.3,1.6-0.6,1.9c-0.4,0.4-1.5,0.7-1.5,0.7s1.2,0.4,1.6,0.8
	c0.3,0.4,0.7,1.9,0.7,1.9s0.4-1.6,0.7-2c0.3-0.4,1.4-0.9,1.4-0.9s-1.2-0.3-1.5-0.6C403.5,420.2,403.1,418.6,403.1,418.6z"/>
<radialGradient id="SVGID_53_" cx="410.5099" cy="437.1504" r="2.4334" gradientUnits="userSpaceOnUse">
	<stop  offset="0.1174" style="stop-color:#DEDBC0"/>
	<stop  offset="1" style="stop-color:#FFFFFF;stop-opacity:0"/>
</radialGradient>
<path fill="url(#SVGID_53_)" d="M410.5,434.5c0,0-0.3,1.6-0.6,1.9c-0.4,0.4-1.5,0.7-1.5,0.7s1.2,0.4,1.6,0.8
	c0.3,0.4,0.7,1.9,0.7,1.9s0.4-1.6,0.7-2c0.3-0.4,1.4-0.9,1.4-0.9s-1.2-0.3-1.5-0.6C410.9,436,410.5,434.5,410.5,434.5z"/>
<radialGradient id="SVGID_54_" cx="600.1814" cy="314.5302" r="1.3532" gradientUnits="userSpaceOnUse">
	<stop  offset="0.1174" style="stop-color:#DEDBC0"/>
	<stop  offset="1" style="stop-color:#FFFFFF;stop-opacity:0"/>
</radialGradient>
<path fill="url(#SVGID_54_)" d="M600.1,313.1c0,0-0.2,0.9-0.3,1c-0.2,0.2-0.8,0.4-0.8,0.4s0.7,0.2,0.9,0.5c0.2,0.2,0.4,1.1,0.4,1.1
	s0.2-0.9,0.4-1.1c0.2-0.2,0.8-0.5,0.8-0.5s-0.7-0.2-0.8-0.3C600.4,313.9,600.1,313.1,600.1,313.1z"/>
<radialGradient id="SVGID_55_" cx="745.1814" cy="358.5302" r="1.3532" gradientUnits="userSpaceOnUse">
	<stop  offset="0.1174" style="stop-color:#DEDBC0"/>
	<stop  offset="1" style="stop-color:#FFFFFF;stop-opacity:0"/>
</radialGradient>
<path fill="url(#SVGID_55_)" d="M745.1,357.1c0,0-0.2,0.9-0.3,1c-0.2,0.2-0.8,0.4-0.8,0.4s0.7,0.2,0.9,0.5c0.2,0.2,0.4,1.1,0.4,1.1
	s0.2-0.9,0.4-1.1c0.2-0.2,0.8-0.5,0.8-0.5s-0.7-0.2-0.8-0.3C745.4,357.9,745.1,357.1,745.1,357.1z"/>
<radialGradient id="SVGID_56_" cx="748.8013" cy="350.3257" r="1.7069" gradientUnits="userSpaceOnUse">
	<stop  offset="0.1174" style="stop-color:#DEDBC0"/>
	<stop  offset="1" style="stop-color:#FFFFFF;stop-opacity:0"/>
</radialGradient>
<path fill="url(#SVGID_56_)" d="M748.8,348.5c0,0-0.2,1.1-0.4,1.3c-0.3,0.3-1.1,0.5-1.1,0.5s0.8,0.3,1.1,0.6
	c0.2,0.2,0.5,1.3,0.5,1.3s0.2-1.1,0.5-1.4c0.2-0.3,1-0.6,1-0.6s-0.8-0.2-1.1-0.4C749.1,349.5,748.8,348.5,748.8,348.5z"/>
<radialGradient id="SVGID_57_" cx="714.5189" cy="697.8589" r="2.2013" gradientUnits="userSpaceOnUse">
	<stop  offset="0.1174" style="stop-color:#DEDBC0"/>
	<stop  offset="1" style="stop-color:#FFFFFF;stop-opacity:0"/>
</radialGradient>
<path fill="url(#SVGID_57_)" d="M714.5,695.5c0,0-0.3,1.4-0.6,1.7c-0.3,0.3-1.4,0.6-1.4,0.6s1.1,0.4,1.4,0.7
	c0.3,0.3,0.6,1.7,0.6,1.7s0.3-1.4,0.6-1.8c0.3-0.3,1.3-0.8,1.3-0.8s-1.1-0.2-1.4-0.5C714.8,696.9,714.5,695.5,714.5,695.5z"/>
<radialGradient id="SVGID_58_" cx="716.9734" cy="702.7009" r="1.651" gradientUnits="userSpaceOnUse">
	<stop  offset="0.1174" style="stop-color:#DEDBC0"/>
	<stop  offset="1" style="stop-color:#FFFFFF;stop-opacity:0"/>
</radialGradient>
<path fill="url(#SVGID_58_)" d="M716.9,700.9c0,0-0.2,1.1-0.4,1.3c-0.3,0.2-1,0.5-1,0.5s0.8,0.3,1.1,0.5c0.2,0.2,0.5,1.3,0.5,1.3
	s0.2-1.1,0.4-1.3c0.2-0.3,1-0.6,1-0.6s-0.8-0.2-1-0.4C717.2,702,716.9,700.9,716.9,700.9z"/>
<radialGradient id="SVGID_59_" cx="544.303" cy="951.5246" r="1.4335" gradientUnits="userSpaceOnUse">
	<stop  offset="0.1174" style="stop-color:#DEDBC0"/>
	<stop  offset="1" style="stop-color:#FFFFFF;stop-opacity:0"/>
</radialGradient>
<path fill="url(#SVGID_59_)" d="M544.3,950c0,0-0.2,0.9-0.4,1.1c-0.2,0.2-0.9,0.4-0.9,0.4s0.7,0.2,0.9,0.5c0.2,0.2,0.4,1.1,0.4,1.1
	s0.2-0.9,0.4-1.2c0.2-0.2,0.9-0.5,0.9-0.5s-0.7-0.2-0.9-0.4C544.5,950.9,544.3,950,544.3,950z"/>
<radialGradient id="SVGID_60_" cx="507.0467" cy="923.7604" r="1.9101" gradientUnits="userSpaceOnUse">
	<stop  offset="0.1174" style="stop-color:#DEDBC0"/>
	<stop  offset="1" style="stop-color:#FFFFFF;stop-opacity:0"/>
</radialGradient>
<path fill="url(#SVGID_60_)" d="M507,921.7c0,0-0.2,1.3-0.5,1.5c-0.3,0.3-1.2,0.5-1.2,0.5s0.9,0.3,1.2,0.6c0.2,0.3,0.6,1.5,0.6,1.5
	s0.3-1.3,0.5-1.5c0.2-0.3,1.1-0.7,1.1-0.7s-0.9-0.2-1.2-0.5C507.3,922.9,507,921.7,507,921.7z"/>
<radialGradient id="SVGID_61_" cx="538.2789" cy="916.1" r="2.8981" gradientUnits="userSpaceOnUse">
	<stop  offset="0.1174" style="stop-color:#DEDBC0"/>
	<stop  offset="1" style="stop-color:#FFFFFF;stop-opacity:0"/>
</radialGradient>
<path fill="url(#SVGID_61_)" d="M538.2,912.9c0,0-0.4,1.9-0.7,2.2c-0.4,0.4-1.8,0.8-1.8,0.8s1.4,0.5,1.9,1c0.4,0.4,0.8,2.3,0.8,2.3
	s0.4-1.9,0.8-2.3c0.4-0.4,1.7-1.1,1.7-1.1s-1.4-0.3-1.8-0.7C538.7,914.8,538.2,912.9,538.2,912.9z"/>
<radialGradient id="SVGID_62_" cx="502.1628" cy="859.7914" r="7.0158" gradientUnits="userSpaceOnUse">
	<stop  offset="0.1174" style="stop-color:#DEDBC0"/>
	<stop  offset="1" style="stop-color:#FFFFFF;stop-opacity:0"/>
</radialGradient>
<path fill="url(#SVGID_62_)" d="M502,852.1c0,0-0.9,4.6-1.8,5.4c-1.1,1-4.4,2-4.4,2s3.4,1.1,4.5,2.3c0.9,1,2.1,5.5,2.1,5.5
	s1-4.6,1.9-5.7c0.9-1.1,4.2-2.6,4.2-2.6s-3.4-0.8-4.4-1.7C503.2,856.6,502,852.1,502,852.1z"/>
<radialGradient id="SVGID_63_" cx="465.0467" cy="1010.3431" r="2.3287" gradientUnits="userSpaceOnUse">
	<stop  offset="0.1174" style="stop-color:#DEDBC0"/>
	<stop  offset="1" style="stop-color:#FFFFFF;stop-opacity:0"/>
</radialGradient>
<path fill="url(#SVGID_63_)" d="M465,1007.8c0,0-0.3,1.5-0.6,1.8c-0.4,0.3-1.5,0.7-1.5,0.7s1.1,0.4,1.5,0.8c0.3,0.3,0.7,1.8,0.7,1.8
	s0.3-1.5,0.6-1.9c0.3-0.4,1.4-0.9,1.4-0.9s-1.1-0.3-1.5-0.6C465.4,1009.3,465,1007.8,465,1007.8z"/>
<radialGradient id="SVGID_64_" cx="392.8495" cy="651.3276" r="2.0249" gradientUnits="userSpaceOnUse">
	<stop  offset="0.1174" style="stop-color:#DEDBC0"/>
	<stop  offset="1" style="stop-color:#FFFFFF;stop-opacity:0"/>
</radialGradient>
<path fill="url(#SVGID_64_)" d="M392.8,649.1c0,0-0.3,1.3-0.5,1.6c-0.3,0.3-1.3,0.6-1.3,0.6s1,0.3,1.3,0.7c0.3,0.3,0.6,1.6,0.6,1.6
	s0.3-1.3,0.5-1.6c0.3-0.3,1.2-0.7,1.2-0.7s-1-0.2-1.3-0.5C393.1,650.4,392.8,649.1,392.8,649.1z"/>
<radialGradient id="SVGID_65_" cx="418.6145" cy="624.9299" r="2.0716" gradientUnits="userSpaceOnUse">
	<stop  offset="0.1174" style="stop-color:#DEDBC0"/>
	<stop  offset="1" style="stop-color:#FFFFFF;stop-opacity:0"/>
</radialGradient>
<path fill="url(#SVGID_65_)" d="M418.6,622.7c0,0-0.3,1.4-0.5,1.6c-0.3,0.3-1.3,0.6-1.3,0.6s1,0.3,1.3,0.7c0.3,0.3,0.6,1.6,0.6,1.6
	s0.3-1.4,0.6-1.7c0.3-0.3,1.2-0.8,1.2-0.8s-1-0.2-1.3-0.5C418.9,624,418.6,622.7,418.6,622.7z"/>
<radialGradient id="SVGID_66_" cx="346.9749" cy="72.7974" r="1.3532" gradientUnits="userSpaceOnUse">
	<stop  offset="0.1174" style="stop-color:#DEDBC0"/>
	<stop  offset="1" style="stop-color:#FFFFFF;stop-opacity:0"/>
</radialGradient>
<path fill="url(#SVGID_66_)" d="M346.9,71.3c0,0-0.2,0.9-0.3,1c-0.2,0.2-0.8,0.4-0.8,0.4s0.7,0.2,0.9,0.5c0.2,0.2,0.4,1.1,0.4,1.1
	s0.2-0.9,0.4-1.1c0.2-0.2,0.8-0.5,0.8-0.5s-0.7-0.2-0.8-0.3C347.2,72.2,346.9,71.3,346.9,71.3z"/>
<radialGradient id="SVGID_67_" cx="351.4539" cy="79.1523" r="1.3532" gradientUnits="userSpaceOnUse">
	<stop  offset="0.1174" style="stop-color:#DEDBC0"/>
	<stop  offset="1" style="stop-color:#FFFFFF;stop-opacity:0"/>
</radialGradient>
<path fill="url(#SVGID_67_)" d="M351.4,77.7c0,0-0.2,0.9-0.3,1c-0.2,0.2-0.8,0.4-0.8,0.4s0.7,0.2,0.9,0.5c0.2,0.2,0.4,1.1,0.4,1.1
	s0.2-0.9,0.4-1.1c0.2-0.2,0.8-0.5,0.8-0.5s-0.7-0.2-0.8-0.3C351.7,78.5,351.4,77.7,351.4,77.7z"/>
<radialGradient id="SVGID_68_" cx="271.4636" cy="12.7356" r="1.8821" gradientUnits="userSpaceOnUse">
	<stop  offset="0.1174" style="stop-color:#DEDBC0"/>
	<stop  offset="1" style="stop-color:#FFFFFF;stop-opacity:0"/>
</radialGradient>
<path fill="url(#SVGID_68_)" d="M271.4,10.7c0,0-0.2,1.2-0.5,1.5c-0.3,0.3-1.2,0.5-1.2,0.5s0.9,0.3,1.2,0.6c0.2,0.3,0.6,1.5,0.6,1.5
	s0.3-1.2,0.5-1.5c0.2-0.3,1.1-0.7,1.1-0.7s-0.9-0.2-1.2-0.5C271.7,11.9,271.4,10.7,271.4,10.7z"/>
<radialGradient id="SVGID_69_" cx="277.6936" cy="21.5748" r="1.8821" gradientUnits="userSpaceOnUse">
	<stop  offset="0.1174" style="stop-color:#DEDBC0"/>
	<stop  offset="1" style="stop-color:#FFFFFF;stop-opacity:0"/>
</radialGradient>
<path fill="url(#SVGID_69_)" d="M277.6,19.5c0,0-0.2,1.2-0.5,1.5c-0.3,0.3-1.2,0.5-1.2,0.5s0.9,0.3,1.2,0.6c0.2,0.3,0.6,1.5,0.6,1.5
	s0.3-1.2,0.5-1.5c0.2-0.3,1.1-0.7,1.1-0.7s-0.9-0.2-1.2-0.5C278,20.7,277.6,19.5,277.6,19.5z"/>
<radialGradient id="SVGID_70_" cx="647.0145" cy="81.4669" r="1.3532" gradientUnits="userSpaceOnUse">
	<stop  offset="0.1174" style="stop-color:#DEDBC0"/>
	<stop  offset="1" style="stop-color:#FFFFFF;stop-opacity:0"/>
</radialGradient>
<path fill="url(#SVGID_70_)" d="M647,80c0,0-0.2,0.9-0.3,1c-0.2,0.2-0.8,0.4-0.8,0.4s0.7,0.2,0.9,0.5c0.2,0.2,0.4,1.1,0.4,1.1
	s0.2-0.9,0.4-1.1c0.2-0.2,0.8-0.5,0.8-0.5s-0.7-0.2-0.8-0.3C647.2,80.9,647,80,647,80z"/>
<radialGradient id="SVGID_71_" cx="651.4936" cy="87.8219" r="1.3532" gradientUnits="userSpaceOnUse">
	<stop  offset="0.1174" style="stop-color:#DEDBC0"/>
	<stop  offset="1" style="stop-color:#FFFFFF;stop-opacity:0"/>
</radialGradient>
<path fill="url(#SVGID_71_)" d="M651.5,86.3c0,0-0.2,0.9-0.3,1c-0.2,0.2-0.8,0.4-0.8,0.4s0.7,0.2,0.9,0.5c0.2,0.2,0.4,1.1,0.4,1.1
	s0.2-0.9,0.4-1.1c0.2-0.2,0.8-0.5,0.8-0.5s-0.7-0.2-0.8-0.3C651.7,87.2,651.5,86.3,651.5,86.3z"/>
<radialGradient id="SVGID_72_" cx="942.4556" cy="36.2873" r="2.3051" gradientUnits="userSpaceOnUse">
	<stop  offset="0.1174" style="stop-color:#DEDBC0"/>
	<stop  offset="1" style="stop-color:#FFFFFF;stop-opacity:0"/>
</radialGradient>
<path fill="url(#SVGID_72_)" d="M942.4,33.8c0,0-0.3,1.5-0.6,1.8c-0.4,0.3-1.4,0.7-1.4,0.7s1.1,0.4,1.5,0.8c0.3,0.3,0.7,1.8,0.7,1.8
	s0.3-1.5,0.6-1.9c0.3-0.4,1.4-0.9,1.4-0.9s-1.1-0.3-1.4-0.6C942.8,35.2,942.4,33.8,942.4,33.8z"/>
<radialGradient id="SVGID_73_" cx="950.0856" cy="47.113" r="2.3051" gradientUnits="userSpaceOnUse">
	<stop  offset="0.1174" style="stop-color:#DEDBC0"/>
	<stop  offset="1" style="stop-color:#FFFFFF;stop-opacity:0"/>
</radialGradient>
<path fill="url(#SVGID_73_)" d="M950,44.6c0,0-0.3,1.5-0.6,1.8c-0.4,0.3-1.4,0.7-1.4,0.7s1.1,0.4,1.5,0.8c0.3,0.3,0.7,1.8,0.7,1.8
	s0.3-1.5,0.6-1.9c0.3-0.4,1.4-0.9,1.4-0.9s-1.1-0.3-1.4-0.6C950.4,46.1,950,44.6,950,44.6z"/>
<radialGradient id="SVGID_74_" cx="1148.9749" cy="409.7974" r="1.3532" gradientUnits="userSpaceOnUse">
	<stop  offset="0.1174" style="stop-color:#DEDBC0"/>
	<stop  offset="1" style="stop-color:#FFFFFF;stop-opacity:0"/>
</radialGradient>
<path fill="url(#SVGID_74_)" d="M1148.9,408.3c0,0-0.2,0.9-0.3,1c-0.2,0.2-0.8,0.4-0.8,0.4s0.7,0.2,0.9,0.5c0.2,0.2,0.4,1.1,0.4,1.1
	s0.2-0.9,0.4-1.1c0.2-0.2,0.8-0.5,0.8-0.5s-0.7-0.2-0.8-0.3C1149.2,409.2,1148.9,408.3,1148.9,408.3z"/>
<radialGradient id="SVGID_75_" cx="1153.4539" cy="416.1523" r="1.3532" gradientUnits="userSpaceOnUse">
	<stop  offset="0.1174" style="stop-color:#DEDBC0"/>
	<stop  offset="1" style="stop-color:#FFFFFF;stop-opacity:0"/>
</radialGradient>
<path fill="url(#SVGID_75_)" d="M1153.4,414.7c0,0-0.2,0.9-0.3,1c-0.2,0.2-0.8,0.4-0.8,0.4s0.7,0.2,0.9,0.5c0.2,0.2,0.4,1.1,0.4,1.1
	s0.2-0.9,0.4-1.1c0.2-0.2,0.8-0.5,0.8-0.5s-0.7-0.2-0.8-0.3C1153.7,415.5,1153.4,414.7,1153.4,414.7z"/>
<radialGradient id="SVGID_76_" cx="1111.9749" cy="612.7974" r="1.3532" gradientUnits="userSpaceOnUse">
	<stop  offset="0.1174" style="stop-color:#DEDBC0"/>
	<stop  offset="1" style="stop-color:#FFFFFF;stop-opacity:0"/>
</radialGradient>
<path fill="url(#SVGID_76_)" d="M1111.9,611.3c0,0-0.2,0.9-0.3,1c-0.2,0.2-0.8,0.4-0.8,0.4s0.7,0.2,0.9,0.5c0.2,0.2,0.4,1.1,0.4,1.1
	s0.2-0.9,0.4-1.1c0.2-0.2,0.8-0.5,0.8-0.5s-0.7-0.2-0.8-0.3C1112.2,612.2,1111.9,611.3,1111.9,611.3z"/>
<radialGradient id="SVGID_77_" cx="1116.4539" cy="619.1523" r="1.3532" gradientUnits="userSpaceOnUse">
	<stop  offset="0.1174" style="stop-color:#DEDBC0"/>
	<stop  offset="1" style="stop-color:#FFFFFF;stop-opacity:0"/>
</radialGradient>
<path fill="url(#SVGID_77_)" d="M1116.4,617.7c0,0-0.2,0.9-0.3,1c-0.2,0.2-0.8,0.4-0.8,0.4s0.7,0.2,0.9,0.5c0.2,0.2,0.4,1.1,0.4,1.1
	s0.2-0.9,0.4-1.1c0.2-0.2,0.8-0.5,0.8-0.5s-0.7-0.2-0.8-0.3C1116.7,618.5,1116.4,617.7,1116.4,617.7z"/>
<radialGradient id="SVGID_78_" cx="732.9749" cy="628.7974" r="1.3532" gradientUnits="userSpaceOnUse">
	<stop  offset="0.1174" style="stop-color:#DEDBC0"/>
	<stop  offset="1" style="stop-color:#FFFFFF;stop-opacity:0"/>
</radialGradient>
<path fill="url(#SVGID_78_)" d="M732.9,627.3c0,0-0.2,0.9-0.3,1c-0.2,0.2-0.8,0.4-0.8,0.4s0.7,0.2,0.9,0.5c0.2,0.2,0.4,1.1,0.4,1.1
	s0.2-0.9,0.4-1.1c0.2-0.2,0.8-0.5,0.8-0.5s-0.7-0.2-0.8-0.3C733.2,628.2,732.9,627.3,732.9,627.3z"/>
<radialGradient id="SVGID_79_" cx="737.4539" cy="635.1523" r="1.3532" gradientUnits="userSpaceOnUse">
	<stop  offset="0.1174" style="stop-color:#DEDBC0"/>
	<stop  offset="1" style="stop-color:#FFFFFF;stop-opacity:0"/>
</radialGradient>
<path fill="url(#SVGID_79_)" d="M737.4,633.7c0,0-0.2,0.9-0.3,1c-0.2,0.2-0.8,0.4-0.8,0.4s0.7,0.2,0.9,0.5c0.2,0.2,0.4,1.1,0.4,1.1
	s0.2-0.9,0.4-1.1c0.2-0.2,0.8-0.5,0.8-0.5s-0.7-0.2-0.8-0.3C737.7,634.5,737.4,633.7,737.4,633.7z"/>
<radialGradient id="SVGID_80_" cx="451.9749" cy="704.7974" r="1.3532" gradientUnits="userSpaceOnUse">
	<stop  offset="0.1174" style="stop-color:#DEDBC0"/>
	<stop  offset="1" style="stop-color:#FFFFFF;stop-opacity:0"/>
</radialGradient>
<path fill="url(#SVGID_80_)" d="M451.9,703.3c0,0-0.2,0.9-0.3,1c-0.2,0.2-0.8,0.4-0.8,0.4s0.7,0.2,0.9,0.5c0.2,0.2,0.4,1.1,0.4,1.1
	s0.2-0.9,0.4-1.1c0.2-0.2,0.8-0.5,0.8-0.5s-0.7-0.2-0.8-0.3C452.2,704.2,451.9,703.3,451.9,703.3z"/>
<radialGradient id="SVGID_81_" cx="456.4539" cy="711.1523" r="1.3532" gradientUnits="userSpaceOnUse">
	<stop  offset="0.1174" style="stop-color:#DEDBC0"/>
	<stop  offset="1" style="stop-color:#FFFFFF;stop-opacity:0"/>
</radialGradient>
<path fill="url(#SVGID_81_)" d="M456.4,709.7c0,0-0.2,0.9-0.3,1c-0.2,0.2-0.8,0.4-0.8,0.4s0.7,0.2,0.9,0.5c0.2,0.2,0.4,1.1,0.4,1.1
	s0.2-0.9,0.4-1.1c0.2-0.2,0.8-0.5,0.8-0.5s-0.7-0.2-0.8-0.3C456.7,710.5,456.4,709.7,456.4,709.7z"/>
<radialGradient id="SVGID_82_" cx="152.9748" cy="745.7974" r="1.3532" gradientUnits="userSpaceOnUse">
	<stop  offset="0.1174" style="stop-color:#DEDBC0"/>
	<stop  offset="1" style="stop-color:#FFFFFF;stop-opacity:0"/>
</radialGradient>
<path fill="url(#SVGID_82_)" d="M152.9,744.3c0,0-0.2,0.9-0.3,1c-0.2,0.2-0.8,0.4-0.8,0.4s0.7,0.2,0.9,0.5c0.2,0.2,0.4,1.1,0.4,1.1
	s0.2-0.9,0.4-1.1c0.2-0.2,0.8-0.5,0.8-0.5s-0.7-0.2-0.8-0.3C153.2,745.2,152.9,744.3,152.9,744.3z"/>
<radialGradient id="SVGID_83_" cx="157.4539" cy="752.1523" r="1.3532" gradientUnits="userSpaceOnUse">
	<stop  offset="0.1174" style="stop-color:#DEDBC0"/>
	<stop  offset="1" style="stop-color:#FFFFFF;stop-opacity:0"/>
</radialGradient>
<path fill="url(#SVGID_83_)" d="M157.4,750.7c0,0-0.2,0.9-0.3,1c-0.2,0.2-0.8,0.4-0.8,0.4s0.7,0.2,0.9,0.5c0.2,0.2,0.4,1.1,0.4,1.1
	s0.2-0.9,0.4-1.1c0.2-0.2,0.8-0.5,0.8-0.5s-0.7-0.2-0.8-0.3C157.7,751.5,157.4,750.7,157.4,750.7z"/>
</svg>
