<?xml version="1.0" encoding="utf-8"?>
<!-- Generator: Adobe Illustrator 17.0.0, SVG Export Plug-In . SVG Version: 6.00 Build 0)  -->
<!DOCTYPE svg PUBLIC "-//W3C//DTD SVG 1.1//EN" "http://www.w3.org/Graphics/SVG/1.1/DTD/svg11.dtd">
<svg version="1.1" id="Layer_1" xmlns="http://www.w3.org/2000/svg" xmlns:xlink="http://www.w3.org/1999/xlink" x="0px" y="0px"
	 width="1280px" height="917.988px" viewBox="0 0 1280 917.988" enable-background="new 0 0 1280 917.988" xml:space="preserve">
<g>
	<linearGradient id="SVGID_1_" gradientUnits="userSpaceOnUse" x1="639.9998" y1="917.988" x2="639.9998" y2="5.131461e-05">
		<stop  offset="0.1443" style="stop-color:#43BEAD"/>
		<stop  offset="0.2994" style="stop-color:#53C2B8"/>
		<stop  offset="0.3705" style="stop-color:#5BC4BF"/>
		<stop  offset="0.9881" style="stop-color:#9BD9E2"/>
	</linearGradient>
	<path fill="url(#SVGID_1_)" d="M0,91.102c0,0,17.418,3.005,30.98,0.004c15.57-3.445,47.341-17.113,70.872-5.156
		c8.141,4.137,15.661,22.51,20.192,30.437c6.999,12.244,18.901,37.864,24.679,50.729c4.216,9.387,8.63,30.574,15.705,38.047
		c11.114,11.739,45.428,18.165,58.332,27.901c9.461,7.138,24.787,25.681,31.41,35.51c6.332,9.398,14.134,31.006,20.192,40.583
		c5.133,8.116-3.638,65.397,5.207,76.155c3.022,3.675,13.3-13.068,22.057-22.763c0.09-0.1,9.098-4.261,10.373-3.236
		c2.831,2.275,5.343,0.823,7.729,2.442c36.92,25.037,60.61,71.372,90.882,95.5c36.324,28.951,91.952,53.218,135.208,57.053
		c34.174,3.03,188.483-46.23,222.124-52.962c29.559-5.915,10.658-33.085,35.413-50.287c14.701-10.215,45.831-33.407,55.558-48.435
		c12.075-18.656-0.33-40.141,9.972-59.832c6.599-12.613,42.692-112.987,50.575-124.84c5.425-8.157,15.836-26.223,24.679-30.437
		c4.557-2.172,16.622-3.569,20.192,0c1.794,1.794,0,10.146,0,10.146s20.837-24.243,26.923-32.974
		c3.789-5.435,18.907-0.404,22.937-5.663c3.779-4.931,3.908-30.169,7.912-34.92c7.561-8.973,19.435-29.508,27.483-38.047
		c8.94-9.485,28.106-28.598,40.384-32.974c5.283-1.883,17.322,2.304,22.435,0c3.859-1.739,8.413-9.512,11.218-12.682
		c5.048-5.707,91.764,51.431,99.381,51.224c14.641-0.397,27.872,23.05,41.757,31.88c8.131,5.171,17.242,7.578,17.242,7.578v826.844
		L0,917.988V91.102z"/>
	<linearGradient id="SVGID_2_" gradientUnits="userSpaceOnUse" x1="899.847" y1="321.573" x2="1086.1748" y2="-1.1562">
		<stop  offset="0" style="stop-color:#5BC4BF"/>
		<stop  offset="0.9881" style="stop-color:#9BD9E2"/>
	</linearGradient>
	<path fill="url(#SVGID_2_)" d="M866.439,302.285c6.599-12.613,42.692-112.987,50.575-124.84
		c5.425-8.157,15.836-26.223,24.679-30.437c4.557-2.172,16.622-3.569,20.192,0c1.794,1.794,0,10.146,0,10.146
		s20.837-24.243,26.923-32.974c3.789-5.435,18.907-0.404,22.937-5.663c3.779-4.931,3.908-30.169,7.912-34.92
		c7.561-8.973,19.435-29.508,27.483-38.047c8.94-9.485,28.106-28.598,40.384-32.974c5.283-1.883,17.322,2.304,22.435,0
		l-17.803,21.078l-8.614,44.299c0,0,8.099,25.389,7.383,27.071c-1.403,3.297-22.028,28.064-28.302,38.146
		c-7.936,12.753-32.47,47.035-34.455,49.221c-2.377,2.619-32.747-1.562-41.838,3.692c-6.502,3.758-17.227,24.61-17.227,24.61
		l-39.377,55.373l-29.532,13.536h-17.227L866.439,302.285z"/>
	<linearGradient id="SVGID_3_" gradientUnits="userSpaceOnUse" x1="1106.796" y1="212.6405" x2="1205.0692" y2="42.4264">
		<stop  offset="0" style="stop-color:#5BC4BF"/>
		<stop  offset="0.9881" style="stop-color:#9BD9E2"/>
	</linearGradient>
	<path fill="url(#SVGID_3_)" d="M1221.001,51.625l-38.905,3.543l-25.57,40.611l-37.602,49.635c0,0,6.088,35.719,4.512,39.107
		c-1.614,3.469-21.057,25.57-21.057,25.57s5.522-0.162,10.73-3.648c12.827-8.586,34.117-26.788,41.913-35.459
		c11.384-12.66,27.309-43.272,34.594-58.66c5.141-10.86,10.2-34.92,16.545-45.123C1209.002,62.634,1221.001,51.625,1221.001,51.625z
		"/>
	<linearGradient id="SVGID_4_" gradientUnits="userSpaceOnUse" x1="1235.7922" y1="145.6188" x2="1268.0153" y2="89.8071">
		<stop  offset="0" style="stop-color:#5BC4BF"/>
		<stop  offset="0.9881" style="stop-color:#9BD9E2"/>
	</linearGradient>
	<path fill="url(#SVGID_4_)" d="M1278.359,95.779c0,0-37.795,17.931-40.611,21.057c-4.459,4.952-7.521,25.57-7.521,25.57
		s33.617-23.943,42.115-34.594C1274.44,105.183,1278.359,95.779,1278.359,95.779z"/>
	<linearGradient id="SVGID_5_" gradientUnits="userSpaceOnUse" x1="38.9768" y1="456.0558" x2="178.5202" y2="214.3596">
		<stop  offset="0" style="stop-color:#5BC4BF"/>
		<stop  offset="0.2522" style="stop-color:#61C6C1"/>
		<stop  offset="0.5161" style="stop-color:#6FCAC8"/>
		<stop  offset="0.7843" style="stop-color:#86D1D5"/>
		<stop  offset="0.9881" style="stop-color:#9BD9E2"/>
	</linearGradient>
	<path fill="url(#SVGID_5_)" d="M157.937,216.644c0,0-27.216-2.511-30.469-4.022c-4.097-1.903-20.636,32.046-24.627,42.793
		c-8.439,22.725-14.284,95.908-14.284,95.908l-8.162,73.462c0,0-4.863,46.707-4.519,51.762c0.316,4.649,9.987-4.742,13.408-12.946
		c10.844-26.006,26.076-81.444,29.411-86.634c4.643-7.225,24.959-23.604,24.959-23.604l24.487-97.949l-6.122-18.365l20.334-20.478
		l-10.021-4.504L157.937,216.644z"/>
	<linearGradient id="SVGID_6_" gradientUnits="userSpaceOnUse" x1="1038.6494" y1="490.6729" x2="1038.6494" y2="236.7682">
		<stop  offset="0.3574" style="stop-color:#5DC5BF"/>
		<stop  offset="1" style="stop-color:#7DCECF"/>
	</linearGradient>
	<path fill="url(#SVGID_6_)" d="M1087.277,236.768c0,0-28.655,34.933-34.071,48.486c-5.761,14.418-7.058,57.718-7.058,57.718
		l-11.816,28.063L1010.7,484.765l-20.678,5.908l5.908-44.31l32.494-73.85l7.385-33.971c0,0,1.31-41.138,7.058-54.764
		c2.742-6.5,15.097-24.994,15.097-24.994L1087.277,236.768z"/>
	<linearGradient id="SVGID_7_" gradientUnits="userSpaceOnUse" x1="295.127" y1="488.9655" x2="295.127" y2="357.4283">
		<stop  offset="0" style="stop-color:#51C2B7"/>
		<stop  offset="0.6219" style="stop-color:#5BC4BF"/>
		<stop  offset="0.9881" style="stop-color:#9BD9E2"/>
	</linearGradient>
	<path fill="url(#SVGID_7_)" d="M296.26,364.935c0,0,9.424-8.433,10.58-7.422c1.047,0.916,3.147,1.676,3.147,1.676l-4.769,19.862
		l7.923,36.138l-22.305,20.589l-8.579,53.188l-5.147-49.757v-53.188c0,0,6.665-5.225,8.802-7.439
		C288.82,375.573,296.26,364.935,296.26,364.935z"/>
</g>
</svg>
