<?xml version="1.0" encoding="utf-8"?>
<!-- Generator: Adobe Illustrator 17.0.0, SVG Export Plug-In . SVG Version: 6.00 Build 0)  -->
<!DOCTYPE svg PUBLIC "-//W3C//DTD SVG 1.1//EN" "http://www.w3.org/Graphics/SVG/1.1/DTD/svg11.dtd">
<svg version="1.1" id="Layer_1" xmlns="http://www.w3.org/2000/svg" xmlns:xlink="http://www.w3.org/1999/xlink" x="0px" y="0px"
	 width="1280px" height="918px" viewBox="0 0 1280 918" enable-background="new 0 0 1280 918" xml:space="preserve">
<g>
	
		<linearGradient id="SVGID_1_" gradientUnits="userSpaceOnUse" x1="925.55" y1="-409" x2="925.55" y2="510" gradientTransform="matrix(1 0 0 -1 -285.5 510)">
		<stop  offset="0.1443" style="stop-color:#43BEAD"/>
		<stop  offset="0.2994" style="stop-color:#53C2B8"/>
		<stop  offset="0.3705" style="stop-color:#5BC4BF"/>
		<stop  offset="0.9881" style="stop-color:#9BD9E2"/>
	</linearGradient>
	<path fill="url(#SVGID_1_)" d="M-1,91.1c0,0,18.4,3,32,0C46.5,87.7,78.3,74,101.9,86c8.1,4.1,15.7,22.5,20.2,30.4
		c7,12.2,18.9,37.9,24.7,50.7c4.2,9.4,8.6,30.6,15.7,38c11.1,11.7,45.4,18.2,58.3,27.9c9.5,7.1,24.8,25.7,31.4,35.5
		c6.3,9.4,14.1,31,20.2,40.6c5.1,8.1-3.6,65.4,5.2,76.2c3,3.7,13.3-13.1,22.1-22.8c0.1-0.1,9.1-4.3,10.4-3.2
		c2.8,2.3,5.3,0.8,7.7,2.4c36.9,25,60.6,71.4,90.9,95.5c36.3,29,92,53.2,135.2,57.1c34.2,3,188.5-46.2,222.1-53
		c29.6-5.9,10.7-33.1,35.4-50.3c14.7-10.2,45.8-33.4,55.6-48.4c12.1-18.7-0.3-40.1,10-59.8c6.6-12.6,42.7-113,50.6-124.8
		c5.4-8.2,15.8-26.2,24.7-30.4c4.6-2.2,16.6-3.6,20.2,0c1.8,1.8,0,10.1,0,10.1s20.8-24.2,26.9-33c3.8-5.4,18.9-0.4,22.9-5.7
		c3.8-4.9,3.9-30.2,7.9-34.9c7.6-9,19.4-29.5,27.5-38c8.9-9.5,28.1-28.6,40.4-33c5.3-1.9,17.3,2.3,22.4,0c3.9-1.7,8.4-9.5,11.2-12.7
		c5-5.7,91.8,51.4,99.4,51.2c14.6-0.4,27.9,23,41.8,31.9c8.1,5.2,18.2,7.6,18.2,7.6V919H-1V91.1z"/>
	
		<linearGradient id="SVGID_2_" gradientUnits="userSpaceOnUse" x1="1185.3436" y1="188.3913" x2="1371.6625" y2="511.105" gradientTransform="matrix(1 0 0 -1 -285.5 510)">
		<stop  offset="0" style="stop-color:#5BC4BF"/>
		<stop  offset="0.9881" style="stop-color:#9BD9E2"/>
	</linearGradient>
	<path fill="url(#SVGID_2_)" d="M866.4,302.3c6.6-12.6,42.7-113,50.6-124.8c5.4-8.2,15.8-26.2,24.7-30.4c4.6-2.2,16.6-3.6,20.2,0
		c1.8,1.8,0,10.1,0,10.1s20.8-24.2,26.9-33c3.8-5.4,18.9-0.4,22.9-5.7c3.8-4.9,3.9-30.2,7.9-34.9c7.6-9,19.4-29.5,27.5-38
		c8.9-9.5,28.1-28.6,40.4-33c5.3-1.9,17.3,2.3,22.4,0l-17.8,21.1l-8.6,44.3c0,0,8.1,25.4,7.4,27.1c-1.4,3.3-22,28.1-28.3,38.1
		c-7.9,12.8-32.5,47-34.5,49.2c-2.4,2.6-32.7-1.6-41.8,3.7c-6.5,3.8-17.2,24.6-17.2,24.6l-39.4,55.4l-29.5,13.5H883L866.4,302.3z"/>
	
		<linearGradient id="SVGID_3_" gradientUnits="userSpaceOnUse" x1="1392.2122" y1="297.4526" x2="1490.4764" y2="467.6512" gradientTransform="matrix(1 0 0 -1 -285.5 510)">
		<stop  offset="0" style="stop-color:#5BC4BF"/>
		<stop  offset="0.9881" style="stop-color:#9BD9E2"/>
	</linearGradient>
	<path fill="url(#SVGID_3_)" d="M1221,51.6l-38.9,3.5l-25.6,40.6l-37.6,49.6c0,0,6.1,35.7,4.5,39.1c-1.6,3.5-21.1,25.6-21.1,25.6
		s5.5-0.2,10.7-3.6c12.8-8.6,34.1-26.8,41.9-35.5c11.4-12.7,27.3-43.3,34.6-58.7c5.1-10.9,10.2-34.9,16.5-45.1
		C1209,62.6,1221,51.6,1221,51.6z"/>
	
		<linearGradient id="SVGID_4_" gradientUnits="userSpaceOnUse" x1="1521.3247" y1="364.3103" x2="1553.5714" y2="420.1632" gradientTransform="matrix(1 0 0 -1 -285.5 510)">
		<stop  offset="0" style="stop-color:#5BC4BF"/>
		<stop  offset="0.9881" style="stop-color:#9BD9E2"/>
	</linearGradient>
	<path fill="url(#SVGID_4_)" d="M1278.4,95.8c0,0-37.8,17.9-40.6,21.1c-4.5,5-7.5,25.6-7.5,25.6s33.6-23.9,42.1-34.6
		C1274.4,105.2,1278.4,95.8,1278.4,95.8z"/>
	
		<linearGradient id="SVGID_5_" gradientUnits="userSpaceOnUse" x1="324.4019" y1="53.902" x2="463.9138" y2="295.5437" gradientTransform="matrix(1 0 0 -1 -285.5 510)">
		<stop  offset="0" style="stop-color:#5BC4BF"/>
		<stop  offset="0.2522" style="stop-color:#61C6C1"/>
		<stop  offset="0.5161" style="stop-color:#6FCAC8"/>
		<stop  offset="1" style="stop-color:#86D1D5"/>
	</linearGradient>
	<path fill="url(#SVGID_5_)" d="M157.9,216.6c0,0-27.2-2.5-30.5-4c-4.1-1.9-20.6,32-24.6,42.8c-8.4,22.7-14.3,95.9-14.3,95.9
		l-8.2,73.5c0,0-4.9,46.7-4.5,51.8c0.3,4.6,10-4.7,13.4-12.9c10.8-26,26.1-81.4,29.4-86.6c4.6-7.2,25-23.6,25-23.6l24.5-97.9
		l-6.1-18.4l20.3-20.5l-10-4.5L157.9,216.6z"/>
	
		<linearGradient id="SVGID_6_" gradientUnits="userSpaceOnUse" x1="1324.15" y1="19.3" x2="1324.15" y2="273.2" gradientTransform="matrix(1 0 0 -1 -285.5 510)">
		<stop  offset="0.3574" style="stop-color:#5DC5BF"/>
		<stop  offset="1" style="stop-color:#7DCECF"/>
	</linearGradient>
	<path fill="url(#SVGID_6_)" d="M1087.3,236.8c0,0-28.7,34.9-34.1,48.5c-5.8,14.4-7.1,57.7-7.1,57.7l-11.8,28.1l-23.6,113.7
		l-20.7,5.9l5.9-44.3l32.5-73.9l7.4-34c0,0,1.3-41.1,7.1-54.8c2.7-6.5,15.1-25,15.1-25L1087.3,236.8z"/>
	
		<linearGradient id="SVGID_7_" gradientUnits="userSpaceOnUse" x1="580.6" y1="21" x2="580.6" y2="152.5827" gradientTransform="matrix(1 0 0 -1 -285.5 510)">
		<stop  offset="0" style="stop-color:#51C2B7"/>
		<stop  offset="0.6219" style="stop-color:#5BC4BF"/>
		<stop  offset="0.7975" style="stop-color:#7ACED0"/>
	</linearGradient>
	<path fill="url(#SVGID_7_)" d="M296.3,364.9c0,0,9.4-8.4,10.6-7.4c1,0.9,3.1,1.7,3.1,1.7l-4.8,19.9l7.9,36.1l-22.3,20.6l-8.6,53.2
		l-5.1-49.8V386c0,0,6.7-5.2,8.8-7.4C288.8,375.6,296.3,364.9,296.3,364.9z"/>
</g>
</svg>
