<?xml version="1.0" encoding="utf-8"?>
<!-- Generator: Adobe Illustrator 17.0.0, SVG Export Plug-In . SVG Version: 6.00 Build 0)  -->
<!DOCTYPE svg PUBLIC "-//W3C//DTD SVG 1.1//EN" "http://www.w3.org/Graphics/SVG/1.1/DTD/svg11.dtd">
<svg version="1.1" id="Layer_1" xmlns="http://www.w3.org/2000/svg" xmlns:xlink="http://www.w3.org/1999/xlink" x="0px" y="0px"
	 width="1280.462px" height="1253.171px" viewBox="0 0 1280.462 1253.171" enable-background="new 0 0 1280.462 1253.171"
	 xml:space="preserve">
<linearGradient id="SVGID_1_" gradientUnits="userSpaceOnUse" x1="640.231" y1="1253.1707" x2="640.231" y2="2.985739e-05">
	<stop  offset="0" style="stop-color:#00A9D6"/>
	<stop  offset="0.9248" style="stop-color:#00988A"/>
	<stop  offset="0.9674" style="stop-color:#00988A"/>
	<stop  offset="0.9747" style="stop-color:#00988A"/>
</linearGradient>
<path fill="url(#SVGID_1_)" d="M0,42.942c0,0,134.845-13.035,187.384-17.014c59.398-4.498,181.726,5.072,237.88-14.063
	c11.127-3.791,28.011-10.54,39.759-11.657c14.976-1.425,39.164,4.817,53.563,9.02c35.511,10.367,109.403,20.755,146.388,23.732
	c58.351,4.697,175.848-4.433,234.221,0c20.318,1.543,60.564,8.297,80.513,12.305c33.776,6.787,81.618-15.232,115.846-11.023
	c30.856,3.794,84.619,2.424,115.642,4.626c16.308,1.157,68.785,6.933,68.785,6.933l0.48,1207.371l-1280,0L0,42.942z"/>
</svg>
