<?xml version="1.0" encoding="utf-8"?>
<!-- Generator: Adobe Illustrator 17.0.0, SVG Export Plug-In . SVG Version: 6.00 Build 0)  -->
<!DOCTYPE svg PUBLIC "-//W3C//DTD SVG 1.1//EN" "http://www.w3.org/Graphics/SVG/1.1/DTD/svg11.dtd">
<svg version="1.1" id="Layer_1" xmlns="http://www.w3.org/2000/svg" xmlns:xlink="http://www.w3.org/1999/xlink" x="0px" y="0px"
	 width="1280px" height="2465px" viewBox="0 0 1280 2465" enable-background="new 0 0 1280 2465" xml:space="preserve">
<linearGradient id="SVGID_1_" gradientUnits="userSpaceOnUse" x1="639.9884" y1="2465" x2="639.9884" y2="238.4375">
	<stop  offset="0.6933" style="stop-color:#00272E"/>
	<stop  offset="0.7236" style="stop-color:#052C36"/>
	<stop  offset="0.7715" style="stop-color:#14394D"/>
	<stop  offset="0.8309" style="stop-color:#2D4F72"/>
	<stop  offset="0.8528" style="stop-color:#375882"/>
	<stop  offset="0.879" style="stop-color:#3C5F86"/>
	<stop  offset="0.9163" style="stop-color:#4C7190"/>
	<stop  offset="0.9599" style="stop-color:#6490A1"/>
	<stop  offset="1" style="stop-color:#80B2B4"/>
</linearGradient>
<path fill="url(#SVGID_1_)" d="M-0.015,329.557c0,0,17.477,2.987,31.038-0.013c15.57-3.445,47.341-17.113,70.872-5.156
	c8.141,4.137,15.661,22.51,20.192,30.438c6.999,12.244,18.901,37.864,24.679,50.729c4.216,9.387,8.63,30.574,15.705,38.047
	c11.114,11.739,45.428,18.165,58.332,27.901c9.461,7.138,24.787,25.681,31.41,35.51c6.332,9.398,14.134,31.006,20.192,40.583
	c7.762,12.271,24.578,36.562,35.897,45.656c33.007,26.522,112.787,59.036,152.561,73.557c40.792,14.893,125.01,39.285,168.266,43.12
	c34.174,3.03,103.215-3.414,136.856-10.146c29.559-5.915,10.658-33.085,35.413-50.287c14.701-10.215,45.831-33.407,55.558-48.435
	c12.075-18.656-0.33-40.141,9.972-59.832c6.599-12.613,42.692-112.987,50.575-124.84c5.425-8.157,15.836-26.223,24.679-30.437
	c4.557-2.172,16.622-3.569,20.192,0c1.794,1.794,0,10.146,0,10.146s20.837-24.243,26.923-32.974
	c3.789-5.435,18.907-0.404,22.937-5.663c3.779-4.931,3.908-30.169,7.912-34.92c7.561-8.973,19.435-29.508,27.483-38.047
	c8.94-9.485,28.106-28.598,40.384-32.974c5.283-1.883,17.322,2.304,22.435,0c3.859-1.739,8.413-9.512,11.218-12.682
	c5.048-5.707,91.764,51.431,99.381,51.224c14.641-0.397,27.872,23.05,41.757,31.88c8.131,5.171,17.197,7.629,17.197,7.629
	L1279.977,2465h-1280L-0.015,329.557z"/>
</svg>
