<?xml version="1.0" encoding="utf-8"?>
<!-- Generator: Adobe Illustrator 17.0.0, SVG Export Plug-In . SVG Version: 6.00 Build 0)  -->
<!DOCTYPE svg PUBLIC "-//W3C//DTD SVG 1.1//EN" "http://www.w3.org/Graphics/SVG/1.1/DTD/svg11.dtd">
<svg version="1.1" id="Layer_1" xmlns="http://www.w3.org/2000/svg" xmlns:xlink="http://www.w3.org/1999/xlink" x="0px" y="0px"
	 width="1280px" height="823.8px" viewBox="0 0 1280 823.8" enable-background="new 0 0 1280 823.8" xml:space="preserve">
<path opacity="0.3" fill="#FDFDFE" d="M22.8,569.2c3.1,8.3,19.6,18.1,27.1,22.9c7.3,4.7,31.3,14.9,31.3,14.9s-5.6,2.8-7.5,3.7
	c-1.7,0.8-6.1,1.6-7,3.3c-1.3,2.5,6.1,18.2,1.9,11.2c-2.1-3.6-13.6-2.9-16.6,0c-1.6,1.6-1.4,7.5,0,9.3c6.8,9,32.4,10.6,43.6,12.1
	c13.8,1.9,34.5,0,48-1.4c1.4-0.1,8.3-3.1,7.5-4.2c-3.3-4.1-16.4-0.9-20.5-4.2c-1.8-1.4-3.8-8.4-3.8-8.4s4.4-2.9,6.1-2.8
	c5.9,0.3,15.4,8.8,21,10.7c9.7,3.3,29.9,6.7,40.1,7.5c21.2,1.5,84.9-3.3,84.9-3.3s-2.3,5-3.7,6.1c-4.1,3-15.3,2.5-19.6,5.1
	c-3.2,2-7.4,8.3-9.8,11.2c-2.3,2.7-10.4,8-8.9,11.2c1,2,6.6,0,8.9,0c30.6,0,94,11.1,122.5,0c2.4-0.9,8.1-4.4,7.6-7
	c-0.3-2-7.6-3.3-7.6-3.3s-19.3,0.1-24.6-3c-1.4-0.8-3.7-5.3-3.7-5.3l30.8,5.5c0,0,22.5-0.4,29.9-1.4c2.5-0.4,9.5,0.2,9.8-2.3
	c0.4-2.6-7.1-3.8-9.3-5.1c-2.2-1.3-6-4.9-8.4-5.6c-4.5-1.4-14.4,2-18.7,0c-2.1-1-3.7-6.1-5.8-7c-4.5-1.9-14.6,0.7-19.4,1.4
	c-3,0.5-11.7,2.8-11.7,2.8s8.8-13.6,13.5-15.9c8-3.8,26.6,0.1,35.5-0.5c13.2-0.8,45.8,5.5,52.7-5.8c1-1.7-1.2-6.1-2.8-7.2
	c-3.3-2.2-15.9,0-15.9,0s-10.8-7-14.9-7.9c-4.4-1-14-1.4-18.2,0.5c-2,0.9-6.1,6.5-6.1,6.5s-3.2-6.6-5.1-7.9
	c-4.1-2.8-14.7-4.9-19.6-3.7c-2,0.5-7,5-7,5s-15.1-13.3-21.5-15.7c-5.1-2-16.6-3.6-21.9-2.3c-6.1,1.4-17.6,8.3-21,13.5
	c-0.8,1.3-1.4,5.9-1.4,5.9S268.7,589,261.6,585c-5.1-2.9-17-5.7-22.9-5.1c-5.2,0.5-19.1,8.4-19.1,8.4s-12.4-18.4-18.2-22.9
	c-6.4-5-21.3-14.3-29.4-13.5c-2.4,0.2-7.9,5.6-7.9,5.6s-4.8-15.7-8.4-19.6c-1.9-2-7-4.8-9.8-5.1c-3.4-0.3-13.1,3.7-13.1,3.7
	s-5.8-11.2-9.3-13.1c-3.1-1.6-14,0-14,0s-4.8-14.1-8.4-17.3c-1.6-1.4-5.8-2.7-7.9-2.7c-4.3,0.1-13.5,2.6-16.3,5.9
	c-2.1,2.4-3.3,9.6-2.3,12.6c0.6,1.8,4.7,6.1,4.7,6.1s-8.4-5.9-11.7-6.1c-2.5-0.1-8.1,1.6-9.3,3.7c-1.8,3,1.9,14,1.9,14l1.4,5.1
	l-9.8-1.4c0,0-13.2-4.5-17.7-4.2c-1.9,0.1-5.8,1.3-7,2.8C22.7,547.5,20.4,562.7,22.8,569.2z"/>
<path opacity="0.3" fill="#FDFDFE" d="M802.1,694.5c0,0,42.4-12.9,65.8,19.1c9.4,12.9,8.4,44.6,8.4,44.6s19.2,6.6,23.4,11.7
	c1.8,2.2,4.4,8.5,3.1,11.1c-1.8,3.5-48,36.7-120.1,40.4c-153.5,7.8-315.1-4.6-385.3-11.2c-23.4-2.2-88.9-14.7-95.2-33.8
	c-4-12.1,33.8-19.6,45.5-24.6c18.1-7.7,60-11.1,78.7-4.9c6.1,2,19.7,16.6,19.7,16.6s18.9-10.2,25.8-11.7c4.4-0.9,17.8,0,17.8,0
	s8.8-35.3,17.8-42.4c13.4-10.4,67-10.5,67-10.5s6-22.3,11.7-27.1c4.5-3.8,23.1-5.5,23.1-5.5l8.9-4.3c0,0-20.9-33.8,8-49.8
	c7.9-4.4,27.7-2.5,27.7-2.5s21.5-17.3,40-22.1c27.7-7.2,82.4-5.3,103.9,56C810.2,678.7,802.1,694.5,802.1,694.5z"/>
<path opacity="0.3" fill="#FDFDFE" d="M426.3,746.8c6.1,2,19.7,16.6,19.7,16.6s19-10.2,25.9-11.7c4.4-0.9,17.7,0,17.7,0
	s8.8-35.3,17.8-42.4c13.4-10.4,67-10.5,67-10.5s6-22.3,11.7-27.1c4.5-3.8,23.1-5.5,23.1-5.5l8.9-4.3c0,0-20.9-33.8,8-49.8
	c7.9-4.4,27.7-2.5,27.7-2.5s21.5-17.3,40-22.1c27.7-7.2,82.4-5.3,103.9,56c12.4,35.2,5.7,46.9,5.7,46.9s-5-26.9-9.1-36.4
	c-3.7-8.7-14.1-25.8-22.1-30.9c-13.2-8.4-46.4-15.9-61.3-11.5c-20.4,5.9-57,37.5-62.3,58.1c-0.7,2.6,1.8,10.6,1.8,10.6
	s15.7-7.4,32.7-3.2c26.2,6.4,33.2,22.6,33.2,22.6s-28.1-5.5-52.1,1.8C633,711,633.3,742,633.3,742s-9.9-11-24-13.8
	c-18-3.7-30.9,7.8-30.9,7.8s-2.2-16-6.5-18.4c-8.3-4.8-37.8,6.9-37.8,6.9l-1.8,7.8c0,0,17.9-3.6,39.2,7.8
	c12.9,6.9,16.1,19.8,16.1,19.8s-11.4-2.1-15.2-2.3c-12.3-0.6-37.2,1.7-48.9,5.7c-10,3.4-36,22-36,22l-4.6,5.1l-1.4-9.2l4.2-13.3
	c0,0-18.1-0.7-24,0.5c-4.6,0.9-21.7,7.3-21.7,7.3s-1.8-12.4-4.2-16.1C433.8,756.2,426.3,746.8,426.3,746.8z"/>
<path opacity="0.3" fill="#FDFDFE" d="M1281,212.4c-3-0.1-8.2-0.8-10.5-0.9c-68.4-1.5-252.3,5.5-274.2-1
	c-12.3-3.7-31.6-17.8-40.1-27.5c-3.9-4.5-12.8-20.3-12.8-20.3s-6.6-1.3-8.8-1.4c-5.9-0.1-18.5,2.3-23.6-0.7
	c-2.4-1.4-4.6-7.5-4.1-10.1c0.6-2.8,20.9-19.6,44.6-19.6c11.1,0,15.8,7.1,15.8,7.1l2.4,7.1c0,0,15.6-4.2,20.9-4.4
	c5.1-0.1,20.3,3,20.3,3h3.4c0,0-5-13.4-3.4-17.6c1.6-4,14.2-10.1,14.2-10.1s-2.7-21.3,4.1-35.8c17.1-36.9,28.6-42.3,43.2-50.6
	c16.5-9.5,40.5-9.5,40.5-9.5s-1.9-9.8,0-12.2c3.1-4,14.6-5.3,19.6-4.7c9.4,1.1,33.8,16.9,33.8,16.9s0.3-15.6,11.5-18.7
	c21.2-6,27.2,7,28.7,12.7c3.1,11.8,3,16.2,3,16.2s25.1-28.2,57.4-13.9c5.2,2.3,10.7,6.3,14.1,9.8V212.4z"/>
<path opacity="0.3" fill="#FDFDFE" d="M386.6,606.8c-2.1,0.6-6.1,6.5-6.1,6.5s-3.2-6.6-5.1-7.9c-4.1-2.8-14.7-4.9-19.6-3.7
	c-2,0.5-6.5,5.1-6.5,5.1s-15.6-13.4-21.9-15.9c-5.1-2-16.6-3.6-21.9-2.3c-6.1,1.4-17.6,8.3-21,13.5c-0.8,1.3-0.9,6.1-0.9,6.1
	s-15.4-19.4-22.4-23.3c-5.1-2.9-17-5.7-22.9-5.1c-5.2,0.5-19.1,8.4-19.1,8.4s-12.4-18.4-18.2-22.9c-6.4-5-21.3-14.3-29.4-13.5
	c-2.4,0.2-6.2,5.1-6.2,5.1s3-1.4,4.1-1.5c2.9-0.1,8.6,1.6,11,3.3c3.7,2.6,7.6,11.2,10.5,14.7c3.4,4,10.4,11.8,14.7,14.7
	c1.8,1.2,5.9,2.6,7.9,3.2c2.5,0.8,10.3,2.6,10.3,2.6s-6.4,1-7.5,1.5c-2.4,1.1-4.8,2.2-6.3,4.3c-0.8,1.1,0,5.6,0,5.6s4.9-1.2,6.5-1.2
	c3.6,0.1,10.6,1.8,13.9,3.3c3.4,1.5,12.2,8.4,12.2,8.4s0.1-2.5-0.2-3.3c-0.7-1.8-4.7-6.3-4.7-6.3s8,2.6,10,4.4
	c1.7,1.5,7.9,7.7,7.9,7.7s-0.8-5.8-1.6-7.5c-2.1-4.1-5.5-12.2-9.9-13.5c-2.9-0.9-6.6,0-6.6,0s3.9-2.7,5.4-2.8
	c4.2-0.4,12.1,3.3,15.9,5.1c4.8,2.3,13.5,8.2,17.7,11.4c2.2,1.6,8.2,7.2,8.2,7.2l2.3,3.7c0,0-0.6-7.9,0-10.5
	c0.3-1.3,1.3-4.1,2.3-4.9c3.1-2.3,11.3-3,15.2-2.8c2.7,0.1,8,1.9,10.5,3c3.1,1.4,8.3,5.9,11.4,7.2c2.2,0.9,6.9,2.3,9.3,2.3
	c2.8,0.1,11.2-2.1,11.2-2.1s0.4-3,1.2-3.5c0.7-0.4,3.3,0.5,3.3,0.5s1.2-0.9,1.6-1.2c1.2-0.6,3.8-1.5,5.1-1.6c3-0.2,9.3,0.5,11.9,2.1
	c1.7,1,4,4.5,4.9,6.3c0.6,1.2,1.6,5.1,1.6,5.1s3-1.5,3.7-2.3c0.8-0.9,1.6-3.3,2.3-4.2c0.8-1,2.9-2.8,4-3.5c1.3-0.9,4.1-2.3,5.6-2.8
	c1.7-0.5,5.4-1.1,7.2-0.9c2.4,0.2,7,1.9,9.1,3c1.6,0.9,4.8,2.9,5.8,4.4c0.9,1.4,1.4,6.3,1.4,6.3s5,1.7,6.8,2.1
	c2.5,0.6,10.2,2,10.2,2s5.6-2.8,6.1-4.6c0.5-1.9-1.2-6.1-2.8-7.2c-3.3-2.2-15.9,0-15.9,0s-10.1-6.4-13.8-7.6
	c-2.4-0.8-7.6-1.2-10.2-1.2C393.8,605.6,389,606.1,386.6,606.8z"/>
<path opacity="0.3" fill="#FDFDFE" d="M767.4,510.6c13.1,18.9,93,9.3,93,9.3s12.8,1.4,32.7-1.9c1-0.2,36.4-6.9,36.4-6.9
	s-4.8,1.6-6.6,2.3c-7.7,3.1-28,9-28,9s-10.8,4.1-11.8,7.5c-0.6,1.9,2.6,5.9,4.4,6.8c15.7,8.8,54.2,2.7,72.2,1.2
	c16.7-1.3,50.7-4.9,65.9-11.9c7.1-3.2,22.9-11.9,24.3-19.5c0.2-1.2-1.4-3.7-2.5-4.2c-6.7-3.2-29.5,4.2-29.5,4.2s17.4-15.6,19.7-22.5
	c1.6-5,2.1-19.8-2.6-22.2c-19.1-9.7-34.3-5.3-41.1,2.6c-1.2,1.4-6.3-14.6-10.5-17.7c-4.5-3.3-12.7-6-17.7-3.5
	c-2.4,1.2-10,6.1-10,6.1s-9.3-6.1-15.4-7.1c-17.2-2.6-22.1,1.7-30,4.9c-8.4,3.4-30.2,19.9-30.2,19.9s-13.3-2.3-25.9-1
	c-31.7,3.3-27,17.8-27,17.8s-17.5-1.8-23.3-1.2c-18.7,1.9-25.6,6.8-31.4,13.1C769.7,498.6,765.2,507.4,767.4,510.6z"/>
<path opacity="0.15" fill="#FDFDFE" d="M1031.6,460.3c-16-7.9-31-3.7-37.8,4.2c-1.2,1.4-6.3-14.6-10.5-17.7
	c-4.5-3.3-12.7-6-17.7-3.5c-2.4,1.2-10,6.1-10,6.1s-9.3-6.1-15.4-7.1c-17.2-2.6-22.1,1.7-30,4.9c-8.4,3.4-30.2,19.9-30.2,19.9
	s-13.3-2.3-25.9-1c-31.7,3.3-27,17.8-27,17.8s-17.5-1.8-23.3-1.2c-18.7,1.9-25.6,6.8-31.4,13.1c-2.7,2.9-7.2,11.7-5,14.9
	c0,0,8.7-19.1,24.4-21.8c9.5-1.6,28.1,0.4,37.5,2.6c1.2,0.3,4.4,2.4,4.4,2.4s-0.7-4.4,0-5.6c2.3-3.9,11.6-7.3,15.9-9
	c7.4-3,23.1-8.4,31.1-8.1c1.4,0.1,5.3,1.9,5.3,1.9s5.1-6.4,7.2-8.1c7.8-6.2,25.2-17.5,35.1-19c6.3-0.9,19.7,1.6,24.9,5.3
	c1.1,0.8,2.8,4.7,2.8,4.7s5.7-6.6,8.4-7.2c3.3-0.7,10.5,1.5,12.8,4c3.5,3.9,4,20.5,4,20.5s9.4-4.3,12.4-5.9
	c3.3-1.8,9.1-6.9,12.8-7.8C1013.2,458,1031.6,460.3,1031.6,460.3z"/>
<path opacity="0.3" fill="#FDFDFE" d="M817.1,204.7c0,0,19.1-1.9,28.5-10.3c2.3-2,6.5-3.7,5.6-14c-0.1-1.3-5.6-1.2-5.6-1.2
	s7-5.8,9.3-17c3.2-15.3-7.5-17.7-7.5-17.7s18.6-20,21.5-28.5c1.7-5.1,3.8-13.7,0-17.5c-3.2-3.2-17.7-0.2-17.7-0.2s0-26.1-3.7-32.2
	c-4.2-6.7-19-13.4-26.8-14.5c-12.5-1.7-35.3,9-46.4,14.9c-9.8,5.2-28.3,15.6-33.1,25.7c-1.8,3.7-2.1,18.2-2.1,18.2
	s-16.3-3.5-23.1,8.4c-2.1,3.8,0.2,17.3,0.2,17.3s-11,4.3-14.5,3.5c-5.8-1.3-15.8-8-21.7-8.9c-9.6-1.4-26.2-0.7-35,3.3
	c-10.7,4.8-36.6,29.8-36.6,29.8s-7.6-5.1-19.5,0c-3,1.3-11.7,6.2-12.6,9.4c-1,3.6,1.3,11.6,4,14.2c4.5,4.4,20.1,1.8,24.3,6.5
	c2.1,2.4,8.8,6.1,8.8,6.1s-13.1-4.7-16-5.1c-7.3-1.1-9.6,3.2-12.3,2.1c-5.8-2.5-14.7-2.4-20.2,0.8c-1.9,1.1-7.5,8.8-7.5,8.8
	s-9.6-1.9-19.6,0.7c-19.8,5.1-16.8,13.8-16.8,13.8s-9-2.7-12.1-2.8c-4.6-0.2-15.2-0.7-18.2,2.8c-1.1,1.2,0,6.5,0,6.5
	s-18.5-5.3-24.3-3.3c-3.7,1.3-10.7,7.7-10.7,11.7c-0.1,3.4,5.8,8.9,8.9,10.3c6.6,3,21.9-1.8,28.9,0c2.3,0.6,13.5,3.3,13.5,3.3
	s-6.8,7.7-5.6,9.3c3.1,4.1,14.9,4.4,20.1,4.7c16.5,1,65.8-7.5,65.8-7.5s-0.7,11.9,1.9,14.5c7,7.1,39.7,5.6,39.7,5.6
	s26.7-1,49.4-10.7c15.2-6.5,70.9-42.9,109.2-49.4C804.2,213,817.1,204.7,817.1,204.7z"/>
<path opacity="0.15" fill="#FDFDFE" d="M537.7,207.2c-18.8,3.3-16.8,13.8-16.8,13.8s-9-2.7-12.1-2.8c-4.6-0.2-15.2-0.7-18.2,2.8
	c-1.1,1.2,0,6.5,0,6.5s-18.5-5.3-24.3-3.3c-3.7,1.3-10.7,7.7-10.7,11.7c-0.1,3.4,5.8,8.9,8.9,10.3c0,0-4-4.5-4.2-6.4
	c-0.1-1.3,1.1-4,2.1-4.9c2.5-2.1,5.6-3.8,11.4-4.5c9.8-1.2,20.5,1.3,20.5,1.3s-1.4-4.4-0.6-4.9c4.7-2.8,16.2,2.3,21.6,3.4
	c2.4,0.5,9.6,2.4,9.6,2.4s-1.3-5.6-1.3-7.5c0-1.8,1.5-6,2.8-7.2c3.1-2.9,13.4-3,17.6-3c12,0,19.8,3.5,19.8,3.5s-3.4-11.3-6.5-11.8
	C554.6,206.1,546.1,205.8,537.7,207.2z"/>
<path opacity="0.15" fill="#FDFDFE" d="M739.1,110.4c0,0-16.3-3.5-23.1,8.4c-2.1,3.8,0.2,17.3,0.2,17.3s-11,4.3-14.5,3.5
	c-5.8-1.3-15.8-8-21.7-8.9c-9.6-1.4-26.2-0.7-35,3.3c-10.7,4.8-36.6,29.8-36.6,29.8s-7.6-5.1-19.5,0c0,0,13.2,0.5,17.3,1.8
	c1.2,0.4,4.5,2.5,4.5,2.5s1.9-3.9,13.7-10.4c7.6-4.2,16.8-3.1,16.8-3.1s7.9-12.8,12.3-14.6c6.1-2.5,21.2-1.8,27.7-0.8
	c4.2,0.7,16.1,8.8,20.7,9c3,0.2,13.1,1.5,16.2,1.6c2.1,0.1,14.3,3.7,14.3,3.7s-7.6-9.6-9.5-13.2c-1.4-2.7-3.4-8.8-3.4-11.8
	c0-2.9-0.3-6.1,6.1-10.7c11.6-8.5,18.8-4.5,18.8-4.5L739.1,110.4L739.1,110.4z"/>
<path opacity="0.3" fill="#FDFDFE" d="M-1,26.3C15.2,43,15.8,70.4,15.8,70.4s27.3-6.3,42.5,18.9c13.5,22.3,2.8,37.8,0,50
	c-0.7,3.1,0,12.8,0,12.8s35-1.1,46.6,0c13.7,1.4,41.2,5.7,54,10.8c10.8,4.3,39.2,25,39.2,25s14.9-10.5,43.9,0
	c7.2,2.6,18.7,13.2,25,17.6c3.2,2.2,9.3,7.2,12.8,8.8c9.7,4.1,31.8,5.8,40.2,12.2c3,2.2,8.6,6.7,7.1,10.1
	c-3.9,8.9-27.5,10.6-37.1,12.2c-10.2,1.6-41.2,0-41.2,0s-88,19.2-114.8,8.8c-3.5-1.3-6.8-9.1-10.1-10.8
	c-32.5-16.8-76.7,23.4-88.8-11.1c-4.8-13.5,15.2-11.2,15.2-11.2s-6.1-6.4-8.8-7.4c-9.9-3.6-29-4.3-42.4-4.6V26.3z"/>
</svg>
