<?xml version="1.0" encoding="utf-8"?>
<!-- Generator: Adobe Illustrator 17.0.0, SVG Export Plug-In . SVG Version: 6.00 Build 0)  -->
<!DOCTYPE svg PUBLIC "-//W3C//DTD SVG 1.1//EN" "http://www.w3.org/Graphics/SVG/1.1/DTD/svg11.dtd">
<svg version="1.1" id="Layer_1" xmlns="http://www.w3.org/2000/svg" xmlns:xlink="http://www.w3.org/1999/xlink" x="0px" y="0px"
	 width="1280px" height="1720.524px" viewBox="0 0 1280 1720.524" enable-background="new 0 0 1280 1720.524" xml:space="preserve">
<linearGradient id="SVGID_1_" gradientUnits="userSpaceOnUse" x1="640" y1="1720.5239" x2="640" y2="-6.846783e-06">
	<stop  offset="0.7626" style="stop-color:#BD6EAD"/>
	<stop  offset="0.7774" style="stop-color:#BE76B1"/>
	<stop  offset="0.8529" style="stop-color:#C89EC9"/>
	<stop  offset="0.9179" style="stop-color:#CFBDDC"/>
	<stop  offset="0.969" style="stop-color:#D4D0E8"/>
	<stop  offset="1" style="stop-color:#D6D7ED"/>
</linearGradient>
<path fill="url(#SVGID_1_)" d="M0.031,39.5c0,0,17.477,2.987,31.038-0.013c15.57-3.445,47.341-17.113,70.872-5.156
	c8.141,4.137,15.661,22.51,20.192,30.437c6.999,12.244,18.901,37.864,24.679,50.729c4.216,9.387,8.63,30.574,15.705,38.047
	c11.114,11.739,45.428,18.165,58.332,27.901c9.461,7.138,24.787,25.681,31.41,35.51c6.332,9.398,14.134,31.006,20.192,40.583
	c7.762,12.271,24.578,36.562,35.897,45.656c33.007,26.522,112.787,59.036,152.561,73.557c40.792,14.893,125.01,39.285,168.266,43.12
	c34.174,3.03,103.215-3.414,136.856-10.146c29.559-5.915,89.666-20.845,114.421-38.047c14.701-10.215,35.144-40.774,44.871-55.802
	c12.075-18.656,30.081-59.497,40.384-79.187c6.599-12.613,19.04-38.319,26.923-50.172c5.425-8.157,15.836-26.223,24.679-30.437
	c4.557-2.172,16.622-3.569,20.192,0c1.794,1.794,0,10.146,0,10.146s20.837-24.243,26.923-32.974
	c3.789-5.435,9.431-17.569,13.461-22.828c3.779-4.931,13.384-13.004,17.388-17.755c7.561-8.973,19.435-29.508,27.483-38.047
	c8.94-9.485,28.106-28.598,40.384-32.974c5.283-1.883,17.322,2.304,22.435,0c3.859-1.739,8.413-9.512,11.218-12.682
	c5.048-5.707,16.684-8.754,24.301-8.961c14.641-0.397,28.867,21.652,41.757,31.88c7.952,6.31,17.152,7.642,17.152,7.642v1680.997H0
	L0.031,39.5z"/>
</svg>
