<?xml version="1.0" encoding="utf-8"?>
<!-- Generator: Adobe Illustrator 17.0.0, SVG Export Plug-In . SVG Version: 6.00 Build 0)  -->
<!DOCTYPE svg PUBLIC "-//W3C//DTD SVG 1.1//EN" "http://www.w3.org/Graphics/SVG/1.1/DTD/svg11.dtd">
<svg version="1.1" id="Layer_1" xmlns="http://www.w3.org/2000/svg" xmlns:xlink="http://www.w3.org/1999/xlink" x="0px" y="0px"
	 width="1282.437px" height="1857.691px" viewBox="0 0 1282.437 1857.691" enable-background="new 0 0 1282.437 1857.691"
	 xml:space="preserve">
<g>
	<linearGradient id="SVGID_1_" gradientUnits="userSpaceOnUse" x1="641.2184" y1="1857.6913" x2="641.2184" y2="2.351404e-05">
		<stop  offset="0.5134" style="stop-color:#43BEAD"/>
		<stop  offset="0.651" style="stop-color:#53C2B8"/>
		<stop  offset="0.714" style="stop-color:#5BC4BF"/>
		<stop  offset="0.9881" style="stop-color:#9BD9E2"/>
	</linearGradient>
	<path fill="url(#SVGID_1_)" d="M2.422,91.119c0,0,17.477,2.987,31.038-0.013c15.57-3.445,47.341-17.113,70.872-5.156
		c8.141,4.137,15.661,22.51,20.192,30.437c6.999,12.244,18.901,37.864,24.679,50.729c4.216,9.387,8.63,30.574,15.705,38.047
		c11.114,11.739,45.428,18.165,58.332,27.901c9.461,7.138,24.787,25.681,31.41,35.51c6.332,9.398,14.134,31.006,20.192,40.583
		c5.133,8.116-3.638,65.397,5.207,76.155c3.022,3.675,13.3-13.068,22.057-22.763c0.09-0.1,5.253-2.625,6.528-1.6
		c2.831,2.275,9.188-0.813,11.574,0.806c36.92,25.037,106.728,53.34,143.091,66.616c40.792,14.893,125.01,39.285,168.266,43.12
		c34.174,3.03,103.215-3.414,136.856-10.146c29.559-5.915,10.658-33.085,35.413-50.287c14.7-10.215,45.831-33.407,55.558-48.435
		c12.075-18.656-0.33-40.141,9.972-59.832c6.599-12.613,42.692-112.987,50.575-124.84c5.425-8.157,15.836-26.223,24.679-30.437
		c4.557-2.172,16.622-3.569,20.192,0c1.794,1.794,0,10.146,0,10.146s20.837-24.243,26.923-32.974
		c3.789-5.435,18.907-0.404,22.937-5.663c3.779-4.931,3.908-30.169,7.912-34.92c7.561-8.973,19.435-29.508,27.483-38.047
		c8.94-9.485,28.106-28.598,40.384-32.974c5.283-1.883,17.322,2.304,22.435,0c3.859-1.739,8.413-9.512,11.218-12.682
		c5.048-5.707,91.764,51.431,99.381,51.224c14.641-0.397,27.872,23.05,41.757,31.88c8.131,5.171,17.197,7.629,17.197,7.629
		l-1.293,1765.312L0,1857.691L2.422,91.119z"/>
	<linearGradient id="SVGID_2_" gradientUnits="userSpaceOnUse" x1="902.3282" y1="321.573" x2="1088.656" y2="-1.1563">
		<stop  offset="0" style="stop-color:#5BC4BF"/>
		<stop  offset="0.9881" style="stop-color:#9BD9E2"/>
	</linearGradient>
	<path fill="url(#SVGID_2_)" d="M868.92,302.285c6.599-12.613,42.692-112.987,50.575-124.84
		c5.425-8.157,15.836-26.223,24.679-30.437c4.557-2.172,16.622-3.569,20.192,0c1.794,1.794,0,10.146,0,10.146
		s20.837-24.243,26.923-32.974c3.789-5.435,18.907-0.404,22.937-5.663c3.779-4.931,3.908-30.169,7.912-34.92
		c7.561-8.973,19.435-29.508,27.483-38.047c8.94-9.485,28.106-28.598,40.384-32.974c5.283-1.883,17.322,2.304,22.435,0
		l-17.803,21.078l-8.614,44.299c0,0,8.099,25.389,7.383,27.071c-1.403,3.297-22.028,28.064-28.302,38.146
		c-7.936,12.753-32.47,47.035-34.455,49.221c-2.377,2.619-32.747-1.562-41.838,3.692c-6.502,3.758-17.227,24.61-17.227,24.61
		l-39.377,55.373l-29.533,13.536h-17.227L868.92,302.285z"/>
	<linearGradient id="SVGID_3_" gradientUnits="userSpaceOnUse" x1="1109.2772" y1="212.6405" x2="1207.5504" y2="42.4264">
		<stop  offset="0" style="stop-color:#5BC4BF"/>
		<stop  offset="0.9881" style="stop-color:#9BD9E2"/>
	</linearGradient>
	<path fill="url(#SVGID_3_)" d="M1223.483,51.625l-38.905,3.543l-25.57,40.611l-37.602,49.635c0,0,6.088,35.719,4.512,39.107
		c-1.614,3.469-21.057,25.57-21.057,25.57s5.522-0.162,10.73-3.648c12.827-8.586,34.117-26.788,41.913-35.459
		c11.384-12.66,27.31-43.272,34.594-58.66c5.141-10.86,10.2-34.92,16.545-45.123C1211.484,62.634,1223.483,51.625,1223.483,51.625z"
		/>
	<linearGradient id="SVGID_4_" gradientUnits="userSpaceOnUse" x1="1238.2736" y1="145.6188" x2="1270.4965" y2="89.8071">
		<stop  offset="0" style="stop-color:#5BC4BF"/>
		<stop  offset="0.9881" style="stop-color:#9BD9E2"/>
	</linearGradient>
	<path fill="url(#SVGID_4_)" d="M1280.84,95.779c0,0-37.795,17.931-40.611,21.057c-4.459,4.952-7.521,25.57-7.521,25.57
		s33.617-23.943,42.115-34.594C1276.921,105.183,1280.84,95.779,1280.84,95.779z"/>
	<linearGradient id="SVGID_5_" gradientUnits="userSpaceOnUse" x1="41.4581" y1="456.0558" x2="181.0014" y2="214.3596">
		<stop  offset="0" style="stop-color:#5BC4BF"/>
		<stop  offset="0.2522" style="stop-color:#61C6C1"/>
		<stop  offset="0.5161" style="stop-color:#6FCAC8"/>
		<stop  offset="0.7843" style="stop-color:#86D1D5"/>
		<stop  offset="0.9881" style="stop-color:#9BD9E2"/>
	</linearGradient>
	<path fill="url(#SVGID_5_)" d="M160.419,216.644c0,0-27.217-2.511-30.469-4.022c-4.097-1.903-20.636,32.046-24.627,42.793
		c-8.439,22.725-14.284,95.908-14.284,95.908l-8.162,73.462c0,0-4.863,46.707-4.519,51.762c0.316,4.649,9.987-4.742,13.408-12.946
		c10.844-26.006,26.076-81.444,29.411-86.634c4.643-7.225,24.959-23.604,24.959-23.604l24.487-97.949L164.5,237.05l20.334-20.478
		l-10.021-4.504L160.419,216.644z"/>
	<linearGradient id="SVGID_6_" gradientUnits="userSpaceOnUse" x1="1041.1306" y1="490.6728" x2="1041.1306" y2="236.7682">
		<stop  offset="0.3574" style="stop-color:#5DC5BF"/>
		<stop  offset="1" style="stop-color:#7DCECF"/>
	</linearGradient>
	<path fill="url(#SVGID_6_)" d="M1089.758,236.768c0,0-28.656,34.933-34.071,48.486c-5.761,14.418-7.058,57.718-7.058,57.718
		l-11.816,28.063l-23.632,113.729l-20.678,5.908l5.908-44.31l32.494-73.85l7.385-33.971c0,0,1.31-41.138,7.058-54.764
		c2.742-6.5,15.097-24.994,15.097-24.994L1089.758,236.768z"/>
	<linearGradient id="SVGID_7_" gradientUnits="userSpaceOnUse" x1="300.0846" y1="488.9655" x2="300.0846" y2="357.4283">
		<stop  offset="0" style="stop-color:#51C2B7"/>
		<stop  offset="0.6219" style="stop-color:#5BC4BF"/>
		<stop  offset="0.9881" style="stop-color:#9BD9E2"/>
	</linearGradient>
	<path fill="url(#SVGID_7_)" d="M298.741,364.935c0,0,9.424-8.433,10.58-7.422c1.047,0.916,11.255,4.299,11.255,4.299l-8.384,17.346
		l3.431,36.031l-22.305,20.589l-8.579,53.188l-5.147-49.757v-53.188c0,0,6.665-5.225,8.802-7.439
		C291.301,375.573,298.741,364.935,298.741,364.935z"/>
</g>
</svg>
