<?xml version="1.0" encoding="utf-8"?>
<!-- Generator: Adobe Illustrator 17.0.0, SVG Export Plug-In . SVG Version: 6.00 Build 0)  -->
<!DOCTYPE svg PUBLIC "-//W3C//DTD SVG 1.1//EN" "http://www.w3.org/Graphics/SVG/1.1/DTD/svg11.dtd">
<svg version="1.1" id="Layer_1" xmlns="http://www.w3.org/2000/svg" xmlns:xlink="http://www.w3.org/1999/xlink" x="0px" y="0px"
	 width="1056.9px" height="646.1px" viewBox="0 0 1056.9 646.1" enable-background="new 0 0 1056.9 646.1" xml:space="preserve">
<path fill="#F4EFED" d="M685.7,639.7c14.1,3.6,43.4,6.3,58,6.4c15.8,0.1,47.3-4,63-6.4c30.5-4.6,91.6-14.7,121-24.1
	c12.9-4.1,37.7-15.4,49.5-21.9c3.6-2,14.8-9.7,14.8-9.7s0-3.9-1-4.8c-5.3-4.9-28.7,2.5-28.7,2.5s-2.1-8.5-12.7-10.3
	c-19.4-3.2-28.3-3.9-28.3-3.9s1.8-32.5-38.9-52.4c-8.1-3.9-27.3-6.5-35.7-3.5c-8.7,3-22.6,17.4-26.5,25.8
	c-2.6,5.5-4.7,18.8-1.8,24.1c1,1.8,7.4,3.9,7.4,3.9s-11.5,26.7-13.5,20.8c-2.8-8-21.7-7.3-37.5,0.1c-15.6,7.3-18.8,23.7-18.8,23.7
	s-3.4-7.7-18-4.2c-10.6,2.5-13.1,17.7-13.1,17.7s-14.1-0.3-18.8,0.4c-5.3,0.8-15.7,3.4-20.5,5.7c-2.6,1.2-9.8,3.5-9.6,6.4
	C676.4,638.4,683.2,639.1,685.7,639.7z"/>
<path opacity="0.3" fill="#FDFDFE" d="M991,584.5c0.7-0.3,1.9,0.7,0-5.3c-1.6-5.1-28.7,2.5-28.7,2.5s-2.1-8.5-12.7-10.3
	c-19.4-3.2-28.3-3.9-28.3-3.9s1.8-32.5-38.9-52.4c-8.1-3.9-27.3-6.5-35.7-3.5c-8.7,3-22.6,17.4-26.5,25.8c0,0,4.8-4.6,6.5-6
	c2.6-2.1,7.9-6.7,11.1-7.6c14.3-4.1,21.8,1.2,24.4,3c16.7,11.8,39.4,55.2,39.4,55.2s10.8-3.8,25.8,0.7c10.6,3.2,21.6,11.3,21.6,11.3
	s25.8-12.6,31.3-13.4c6.7-1.1,7.6-0.4,8.7,0.2C990,581.3,991,584.5,991,584.5z"/>
<path opacity="0.9" fill="#F4EFED" d="M144.2,362.4c0.4-1.9,14.4-13.5,30.8-13.5c7.7,0,10.9,4.9,10.9,4.9l1.7,4.9
	c0,0,10.8-2.9,14.5-3c3.5-0.1,14,2.1,14,2.1h2.3c0,0-3.5-9.3-2.3-12.1c1.1-2.8,9.8-7,9.8-7s-1.9-14.7,2.8-24.7
	c11.8-25.5,19.8-29.2,29.9-35c11.4-6.5,28-6.5,28-6.5s-1.3-6.7,0-8.4c2.2-2.7,10.1-3.7,13.5-3.3c6.5,0.7,23.3,11.7,23.3,11.7
	s0.2-10.8,7.9-12.9c14.7-4.2,18.8,4.9,19.8,8.7c2.2,8.2,2.1,11.2,2.1,11.2s17.3-10.4,39.7-0.5c20.5,9.1,19.1,35.9,19.1,35.9
	s18.8-4.3,29.4,13.1c9.3,15.4,1.9,26.1,0,34.5c-0.5,2.2,0,8.9,0,8.9s24.2-0.8,32.2,0c9.5,0.9,28.5,3.9,37.3,7.5
	c7.4,3,27.1,17.3,27.1,17.3s10.3-7.2,30.3,0c5,1.8,12.9,9.1,17.3,12.1c2.2,1.5,6.4,5,8.9,6.1c6.7,2.9,22,4,27.8,8.4
	c2,1.5,5.9,4.7,4.9,7c-2.7,6.2-19,7.3-25.7,8.4c-7,1.1-28.5,0-28.5,0s-60.8,13.3-79.3,6.1c-2.4-0.9-4.7-6.3-7-7.5
	c-22.4-11.6-78,10.5-101,0c-1.5-0.7-5-3.5-4.4-5.1c2.6-7.2,22.8-3.7,30.3-5.1c6.1-1.2,24.3-5.1,24.3-5.1s-4.2-4.4-6.1-5.1
	c-8.3-3-25.5-3.1-34.4-3.3c-47.3-1-174.3-4.5-189.4-9c-8.5-2.5-21.9-12.3-27.7-19c-2.7-3.1-8.9-14-8.9-14s-4.5-0.9-6.1-0.9
	c-4.1-0.1-12.8,1.6-16.3-0.5C145.4,368.5,143.9,364.3,144.2,362.4z"/>
<path opacity="0.9" fill="#F4EFED" d="M711.1,245.1c0,0-29.3-8.9-45.5,13.2c-6.5,8.9-9.8,42.9-9.8,42.9s-13.3,4.6-16.2,8.1
	c-1.3,1.5-3,5.9-2.1,7.7c1.2,2.4,33.2,25.4,83,27.9c106.1,5.4,225.1-25.1,273.7-29.6c16.2-1.5,58.1-0.4,62.5-13.6
	c2.8-8.4-23.4-13.6-31.5-17c-12.5-5.3-41.5-7.7-54.4-3.4c-4.2,1.4-13.6,11.5-13.6,11.5s-13.1-7-17.9-8.1c-3-0.6-12.3,0-12.3,0
	s-6.1-24.4-12.3-29.3c-9.2-7.2-46.3-7.2-46.3-7.2s-4.2-15.4-8.1-18.7c-3.1-2.6-15.9-3.8-15.9-3.8l-6.2-3c0,0,14.5-23.4-5.5-34.4
	c-5.5-3-19.1-1.7-19.1-1.7s-14.9-12-27.6-15.3c-19.1-5-57-3.7-71.9,38.7C705.5,234.2,711.1,245.1,711.1,245.1z"/>
<path opacity="0.9" fill="#E1DBE1" d="M568.3,396c-20.1-7.2-30.3,0-30.3,0s-19.6-14.3-27.1-17.3c-8.8-3.6-27.9-6.5-37.3-7.5
	c-8-0.8-32.2,0-32.2,0s-0.5-6.7,0-8.9c1.9-8.4,9.3-19.1,0-34.5c-10.5-17.4-29.4-13.1-29.4-13.1s1.4-26.8-19.1-35.9
	c-22.3-9.9-39.7,0.5-39.7,0.5s0.1-3-2.1-11.2c-1-3.9-5.1-12.9-19.8-8.7c-7.7,2.2-7.9,12.9-7.9,12.9s-16.8-10.9-23.3-11.7
	c-3.5-0.4-11.4,0.5-13.5,3.3c0,0,9.5-0.1,12.5,0.8c3.8,1.1,10.4,5.6,13.7,7.8c2.4,1.6,14.6,11.2,14.6,11.2s-3-9.7,5.6-15.5
	c1.9-1.3,4,0.8,5.6,2.5c3.2,3.3,5.2,12.9,5.9,17.4c0.3,2.1-0.3,8.4-0.3,8.4s5.4-6.5,7.8-8.1c2.7-1.8,8.9-4.9,12.1-4.7
	c6.3,0.6,17.7,8.2,21.7,13.1c4.5,5.4,8.5,19.5,9.7,26.4c0.4,2.6,1.3,8.5-0.3,10.6c-1.1,1.5-7.2,2.2-7.2,2.2s-1.4-4.9-2.2-6.2
	c-1.8-2.9-5-8.8-7.4-11.2c-3.4-3.4-12.7-7.2-17.4-8.1c-3.9-0.7-12.3-0.8-15.9,0.9c-0.7,0.4-2.2,2.5-2.2,2.5s5.6,3,7.2,4.4
	c3.9,3.4,11,11.4,13.1,16.2c1.9,4.5,2.3,14.7,2.5,19.6c0,1.2-0.3,5-0.3,5s5.7-3.1,7.2-4.7c2.7-3,3.4-13.2,7.2-14.6
	c1.6-0.6,4.9,1.4,6.2,2.5c3.4,2.9,7.8,11,9.4,15.2c0.8,2.1,1.2,6.7,1.2,9c0,1.2-0.3,4.7-0.3,4.7s2.7-1.7,3.4-2.5
	c1.4-1.6,3.6-10.5,4.4-10.9c3.3-1.8,9.7,5.9,12.4,8.4c2.3,2,5.3,7.6,7.8,9.3c3.1,2.2,10.5,5.9,14.3,5.6c1.7-0.1,4.2-3,5.9-3.4
	c8.8-2.1,27.4-0.2,36.1,2.2c4.6,1.3,12.7,6.3,16.8,8.7c5.1,3,14.3,10.6,19.6,13.4c2.7,1.4,8.5,3.8,11.5,4.4c2.8,0.5,8.6,0,11.5,0
	c3.3,0,10.1-0.6,13.4,0c5.2,0.9,15.1,5.2,20.1,6.9c4.3,1.5,13.5,8.5,17.2,5.8c1.5-1.1,0-7.4,0-7.4L568.3,396z"/>
<path opacity="0.9" fill="#E1DBE1" d="M970.9,281.2c-4.2,1.4-13.6,11.5-13.6,11.5s-13.1-7-17.9-8.1c-3-0.6-12.3,0-12.3,0
	s-6.1-24.4-12.3-29.3c-9.2-7.2-46.3-7.2-46.3-7.2s-4.2-15.4-8.1-18.7c-3.1-2.6-15.9-3.8-15.9-3.8l-6.2-3c0,0,14.5-23.4-5.5-34.4
	c-5.5-3-19.1-1.7-19.1-1.7s-14.9-12-27.6-15.3c-19.1-5-57-3.7-71.9,38.7c-8.6,24.4-3.9,32.4-3.9,32.4s3.5-18.6,6.3-25.2
	c2.6-6,9.8-17.8,15.3-21.4c9.1-5.8,32-11,42.4-8c14.1,4.1,39.4,25.9,43,40.2c0.5,1.8-1.3,7.3-1.3,7.3s-10.8-5.1-22.6-2.2
	c-18.1,4.4-23,15.6-23,15.6s19.5-3.8,36,1.3c21.6,6.6,21.4,28.1,21.4,28.1s6.9-7.6,16.6-9.6c12.4-2.6,21.4,5.4,21.4,5.4
	s1.5-11.1,4.5-12.8c5.7-3.3,26.1,4.8,26.1,4.8l1.3,5.4c0,0-12.4-2.5-27.1,5.4c-8.9,4.8-11.2,13.7-11.2,13.7s7.9-1.5,10.5-1.6
	c8.5-0.4,25.8,1.2,33.8,3.9c6.9,2.4,24.9,15.2,24.9,15.2l3.2,3.5l1-6.4l-2.9-9.2c0,0,12.5-0.5,16.6,0.3c3.2,0.6,15,5,15,5
	s1.2-8.6,2.9-11.2C965.7,287.7,970.9,281.2,970.9,281.2z"/>
<path opacity="0.9" fill="#F4EFED" d="M539.8,49c-8.3,5.2-26.5,12.9-35.8,15.9c-10.1,3.3-31.1,7.1-41.6,8.8
	c-20.5,3.3-61.6,9.3-82.4,9.4c-9.1,0-27.3-2.2-36.2-3.9c-2.7-0.5-11.5-3.2-11.5-3.2s-0.8-2.5-0.3-3.3c2.4-4.2,18.8-4.3,18.8-4.3
	s-0.4-5.9,6.1-9.2c11.7-6,17.3-8.3,17.3-8.3s-7.8-20.5,14.2-41.5c4.4-4.2,16.1-9.7,22.1-9.6c6.2,0.2,18,6.5,22.3,11.1
	c2.8,3,6.9,11.1,6.1,15.1c-0.3,1.4-4,4-4,4s12.8,14.7,12.9,10.6c0.1-5.7,12.4-9.1,24-7.6c11.5,1.5,16.9,11.3,16.9,11.3
	s0.6-5.6,10.7-6.4c7.3-0.6,12,8.6,12,8.6s9-3.1,12.1-3.6c3.5-0.6,10.7-1,14.3-0.6c1.9,0.2,7,0.2,7.4,2.1
	C545.5,46.3,541.3,48.1,539.8,49z"/>
<path opacity="0.9" fill="#E1DBE1" d="M333.1,76.2c-0.5-0.1-1.1,0.8-1.1-3.4c0-3.6,18.8-4.3,18.8-4.3s-0.4-5.9,6.1-9.2
	c11.7-6,17.3-8.3,17.3-8.3s-7.8-20.5,14.2-41.5c4.4-4.2,16.1-9.7,22.1-9.6c6.2,0.2,18,6.5,22.3,11.1c0,0-4-2-5.4-2.5
	c-2.1-0.8-6.4-2.7-8.7-2.6c-10,0.3-13.7,5.2-15,6.9c-8.3,11-14,43.4-14,43.4s-7.7-0.2-16.4,5.7c-6.1,4.2-11.5,11.7-11.5,11.7
	s-19.1-2.8-22.8-2.2c-4.5,0.7-4.9,1.3-5.5,1.9C333.1,73.9,333.1,76.2,333.1,76.2z"/>
<path opacity="0.9" fill="#F4EFED" d="M224.4,115.4c-6-6.8-17.4-12.8-34.3-11.9c-14.1,0.7-41.8,28.2-41.8,28.2l-4.7,4.2
	c0,0-4.8-6.2-7-7.5c-9.1-5.2-22.1-9.6-41.1-8.9c-23.4,0.9-42,16.3-42,16.3s-10.2-1.3-20.1,5.1c-13.1,8.6-15.4,19.6-15.4,19.6
	s-14.7,5.1-17.3,9.3c-1.3,2.1-1.3,7.7,0,9.8c2.6,4.3,12.8,8.5,17.7,9.3c19.2,3.1,77.9,0,77.9,0s-4.3,3.9-4.2,5.6
	c1.6,20.7,42,26,55,28.5c19.9,3.7,81.2,0,81.2,0s-2.6,7.5,22.4,11.7c36.7,6.1,148.8-5.1,148.8-5.1s20.4-3.6,21-9.3
	c0.1-1.4-3.3-2.7-4.7-3.3c-3.5-1.4-14.9-2.3-14.9-2.3s-7.5-10.5-11.2-12.6c-5.5-3.1-18.5-5.2-24.7-4.7c-1.7,0.1-6.5,2.3-6.5,2.3
	s2.8-5.6,2.3-7.5c-1.1-5-9.4-12.7-14-14.9c-4-2-13.3-2.2-17.7-1.9c-1.4,0.1-5.6,1.4-5.6,1.4s2-8.8,0-10.5c-6-5.3-19.2-8.7-26.1-9.1
	c-2.6-0.1-10.3,2.3-10.3,2.3s-7.9-8.8-13.1-11.7c-2.1-1.1-6.1,0-6.1,0s4.3-7.6,3.7-10.3c-0.6-2.6-5-6.5-7.5-7.5
	c-5.7-2.4-24.7,0-24.7,0h-7C232.8,130.3,227.2,118.6,224.4,115.4z"/>
<path opacity="0.9" fill="#E2E0E2" d="M416.2,217.1c-3.5-1.4-14.9-2.3-14.9-2.3s-7.5-10.5-11.2-12.6c-5.5-3.1-18.7-5.2-24.9-4.7
	c-1.7,0.1-6.3,2.3-6.3,2.3s2.7-5.4,2.3-7.4c-1.1-5-9.4-12.7-14-14.9c-4-2-13.3-2.2-17.7-1.9c-1.4,0.1-5.5,1.3-5.5,1.3
	s1.9-8.7-0.1-10.4c-6-5.3-19.2-8.7-26.1-9.1c-2.6-0.1-10.3,2.3-10.3,2.3s-7.8-8.7-13-11.6c-2.1-1.1-6-0.1-6-0.1s4.1-7.5,3.5-10.1
	c0,0-4,7-6.1,8.5c-1.8,1.3-5.7,1.7-8.5,1.7c-4.1,0-10.9,2.7-14.5,4.7c-1.7,0.9-4.7,3.8-5.3,5.6c-0.3,0.8-1.4,7.7-0.7,8.3
	c0,0,2-3.4,7.9-6.1c5.2-2.3,9.9-1.6,12.7-1.1c3.4,0.6,8.4,4.2,11.3,6.1c3.4,2.2,9.5,7.6,11.8,10.9c1.8,2.5,3.7,6.3,5.4,8.9
	c0.4,0.6,1.7,4.5,1.7,4.5s2.5-2.4,3.1-3.4c1.6-2.8-1.9-14.5,7.5-17.3c3-0.9,11.4,2.1,13.8,4c3.5,2.8,8.5,8.7,10.6,12.7
	c2.1,4.1,5.4,12.6,5.4,12.6s1.4-2.1,1.9-2.8c1.1-1.4,4.6-3,6.4-3c9.1-0.4,14,7.5,15.1,10.5c0.5,1.5-0.9,6.2-0.9,6.2s3-1.1,4-1.2
	c3-0.3,9.2,0,12.1,0.9c4.7,1.6,11.8,10.6,16.8,10.9c1.2,0.1,4.3,2,5.3,2.8c3.1,2.6,12.2,0.4,16.2,0c2.1-0.2,8.3,0.3,8.4-1.9
	c0.1-1.8-5.2-1.4-6.8-2.2l-2.4-1.8c0,0,3.2-0.6,4.2-0.6C410.3,216.2,416.2,217.1,416.2,217.1z"/>
</svg>
