<?xml version="1.0" encoding="utf-8"?>
<!-- Generator: Adobe Illustrator 17.0.0, SVG Export Plug-In . SVG Version: 6.00 Build 0)  -->
<!DOCTYPE svg PUBLIC "-//W3C//DTD SVG 1.1//EN" "http://www.w3.org/Graphics/SVG/1.1/DTD/svg11.dtd">
<svg version="1.1" id="Layer_1" xmlns="http://www.w3.org/2000/svg" xmlns:xlink="http://www.w3.org/1999/xlink" x="0px" y="0px"
	 width="1280px" height="540.637px" viewBox="0 0 1280 540.637" enable-background="new 0 0 1280 540.637" xml:space="preserve">
<linearGradient id="SVGID_1_" gradientUnits="userSpaceOnUse" x1="639.9999" y1="540.6373" x2="639.9999" y2="80.0457">
	<stop  offset="0.5874" style="stop-color:#00A89A"/>
	<stop  offset="0.7778" style="stop-color:#2FB2A7"/>
	<stop  offset="1" style="stop-color:#5BC4BF"/>
</linearGradient>
<path fill="url(#SVGID_1_)" d="M0,130.521c0,0,23.236-7.797,38.794-9.455c12.927-1.378,39.636,0.197,51.848-4.102
	c3.695-1.301,8.935-8.128,12.81-8.79c6.229-1.064,18.273,4.928,24.399,6.446c12.607,3.124,37.932,8.951,50.628,11.72
	c9.275,2.023,28.505,3.933,37.209,7.618c2.401,1.016,6.072,5.003,8.54,5.86c15.675,5.441,49.822,4.86,66.488,4.688
	c49.935-0.517,149.608-10.205,198.854-18.166c22.905-3.703,68.065-14.57,90.277-21.096c18.041-5.301,70.758-25.198,70.758-25.198
	h69.538l17.079,4.102l11.59-4.102l17.689,8.79l52.458,13.478l69.538,9.962l20.739-7.618l21.349,0.586l46.358,11.134
	c0,0,53.197-1.796,79.9,2.622c13.198,2.184,62.546,10.962,75.907,11.843c16.431,1.083,44.729,4.666,61.198,4.666
	c5.032,0,23.318,1.147,28.342,1.436c19.369,1.114,57.709-6.412,57.709-6.412v410.078L0,540.637V130.521z"/>
<g>
	<g opacity="0.2">
		<g>
			
				<linearGradient id="SVGID_2_" gradientUnits="userSpaceOnUse" x1="1326.7072" y1="-2340.7134" x2="1307.3546" y2="-2362.2524" gradientTransform="matrix(0.8596 0.511 -0.511 0.8596 -1979.1637 1530.1099)">
				<stop  offset="0.615" style="stop-color:#007C74"/>
				<stop  offset="0.6952" style="stop-color:#00867F"/>
				<stop  offset="0.8519" style="stop-color:#34A39C"/>
				<stop  offset="1" style="stop-color:#5BC4BF"/>
			</linearGradient>
			<path fill="url(#SVGID_2_)" d="M379.745,171.907c-7.791-10.739-23.346,4.021-31.165,12.033c2.615-5.867,6.459-10.13,9.396-15.806
				c-3.993-0.627-7.262,2.668-10.278,4.804c1.072-5.475-3.557-4.298-6.382-2.484c-2.824,1.814-4.864,6.713-6.398,9.294
				c-2.615,5.867-6.825,15.152-3.581,21.446c4.977-10.575,30.344-21.807,41.355-22.565
				C380.235,178.11,381.175,173.879,379.745,171.907z"/>
		</g>
		<g>
			
				<linearGradient id="SVGID_3_" gradientUnits="userSpaceOnUse" x1="824.0527" y1="-648.0136" x2="802.3116" y2="-672.2111" gradientTransform="matrix(0.9784 0.2069 -0.2069 0.9784 -611.6177 646.7968)">
				<stop  offset="0.615" style="stop-color:#007C74"/>
				<stop  offset="0.6952" style="stop-color:#00867F"/>
				<stop  offset="0.8519" style="stop-color:#34A39C"/>
				<stop  offset="1" style="stop-color:#5BC4BF"/>
			</linearGradient>
			<path fill="url(#SVGID_3_)" d="M306.148,162.696c-4.158,3.34-0.995,10.146,1.321,13.704c-1.603-1.49-5.698-3.89-7.922-2.442
				c-3.848,1.871,2.14,6.206,4.767,8.296c2.259,2.012,17.56,9.466,11.904,1.75c6.659,10.23,15.758-7.408,15.532-13.593
				c7.421,1.186,7.568-12.208,5.852-16.79c-3.277-9.898-13.859,2.056-18.116,7.676c-1.116-5.606-4.301-10.498-8.713-4.144"/>
		</g>
	</g>
	<g>
		<g>
			
				<linearGradient id="SVGID_4_" gradientUnits="userSpaceOnUse" x1="1326.8119" y1="-2338.4507" x2="1307.4594" y2="-2359.9897" gradientTransform="matrix(0.8596 0.511 -0.511 0.8596 -1979.1637 1530.1099)">
				<stop  offset="0.5134" style="stop-color:#43BEAD"/>
				<stop  offset="0.7379" style="stop-color:#58BCAE"/>
				<stop  offset="1" style="stop-color:#70BDB2"/>
			</linearGradient>
			<path fill="url(#SVGID_4_)" d="M378.679,173.906c-7.791-10.739-23.346,4.021-31.165,12.033c2.615-5.867,6.459-10.13,9.396-15.806
				c-3.993-0.627-7.262,2.668-10.278,4.804c1.072-5.475-3.557-4.298-6.382-2.484c-2.824,1.814-4.864,6.713-6.398,9.294
				c-2.615,5.867-6.825,15.152-3.581,21.446c4.977-10.575,30.344-21.807,41.355-22.565
				C379.169,180.109,380.109,175.877,378.679,173.906z"/>
		</g>
		<g>
			
				<linearGradient id="SVGID_5_" gradientUnits="userSpaceOnUse" x1="823.423" y1="-645.8378" x2="801.682" y2="-670.0353" gradientTransform="matrix(0.9784 0.2069 -0.2069 0.9784 -611.6177 646.7968)">
				<stop  offset="0.5134" style="stop-color:#43BEAD"/>
				<stop  offset="0.7379" style="stop-color:#58BCAE"/>
				<stop  offset="1" style="stop-color:#70BDB2"/>
			</linearGradient>
			<path fill="url(#SVGID_5_)" d="M305.081,164.694c-4.158,3.34-0.995,10.146,1.321,13.704c-1.603-1.49-5.698-3.89-7.922-2.442
				c-3.848,1.871,2.14,6.206,4.767,8.296c2.259,2.012,17.56,9.466,11.904,1.75c6.659,10.23,15.758-7.408,15.532-13.593
				c7.421,1.186,7.568-12.208,5.852-16.79c-3.277-9.898-13.859,2.056-18.116,7.676c-1.116-5.606-4.301-10.498-8.713-4.144"/>
		</g>
	</g>
</g>
<g>
	<g opacity="0.2">
		<g>
			<linearGradient id="SVGID_6_" gradientUnits="userSpaceOnUse" x1="696.7595" y1="198.5753" x2="723.1155" y2="198.5753">
				<stop  offset="0.615" style="stop-color:#007C74"/>
				<stop  offset="0.6952" style="stop-color:#00867F"/>
				<stop  offset="0.8519" style="stop-color:#34A39C"/>
				<stop  offset="1" style="stop-color:#5BC4BF"/>
			</linearGradient>
			<path fill="url(#SVGID_6_)" d="M709.873,192.699c-4.503,0.751-9.382,5.254-8.631,10.132c-3.377-5.254-6.38,2.252-3.002,6.38
				c3.753,4.878,7.13,3.377,11.633,0c6.755-4.503,15.386-15.761,12.759-24.392c-2.627,1.126-4.878,3.753-6.38,6.004"/>
		</g>
		<g>
			<linearGradient id="SVGID_7_" gradientUnits="userSpaceOnUse" x1="742.3287" y1="183.5503" x2="792.1621" y2="183.5503">
				<stop  offset="0.615" style="stop-color:#007C74"/>
				<stop  offset="0.6952" style="stop-color:#00867F"/>
				<stop  offset="0.8519" style="stop-color:#34A39C"/>
				<stop  offset="1" style="stop-color:#5BC4BF"/>
			</linearGradient>
			<path fill="url(#SVGID_7_)" d="M751.229,177.875c-4.948,2.699-10.346,8.996-8.546,14.394c0.45,0,0.9,0,1.799,0
				c-0.9,2.249-1.799,4.948-1.349,7.197c8.996-4.498,11.695-20.242,26.089-15.743c0,0.9-0.45,1.349-0.45,2.249
				c7.647-0.9,16.643-10.346,23.39-13.944c-6.297-8.097-19.792-3.598-26.089,2.249c-3.599-3.598-8.546-1.349-11.695,1.799"/>
		</g>
		<g>
			<linearGradient id="SVGID_8_" gradientUnits="userSpaceOnUse" x1="771.0209" y1="180.5633" x2="821.8497" y2="180.5633">
				<stop  offset="0.615" style="stop-color:#007C74"/>
				<stop  offset="0.6952" style="stop-color:#00867F"/>
				<stop  offset="0.8519" style="stop-color:#34A39C"/>
				<stop  offset="1" style="stop-color:#5BC4BF"/>
			</linearGradient>
			<path fill="url(#SVGID_8_)" d="M773.72,187.771c-1.349,3.149-2.249,6.297-2.699,8.996c5.398-1.799,8.996-4.498,13.944-6.297
				c5.398-2.699,10.795-6.747,16.643-9.446c3.149-1.349,8.546-2.699,11.695-4.498c2.699-2.249,6.297-8.097,8.546-12.145
				c-5.398-0.45-5.848,6.297-10.346,7.647c-4.048,1.349-7.197-3.598-11.245,2.249c-7.197-8.097-17.543,6.297-21.591,10.796"/>
		</g>
		<g>
			<linearGradient id="SVGID_9_" gradientUnits="userSpaceOnUse" x1="818.2512" y1="172.7106" x2="887.9722" y2="172.7106">
				<stop  offset="0.615" style="stop-color:#007C74"/>
				<stop  offset="0.6952" style="stop-color:#00867F"/>
				<stop  offset="0.8519" style="stop-color:#34A39C"/>
				<stop  offset="1" style="stop-color:#5BC4BF"/>
			</linearGradient>
			<path fill="url(#SVGID_9_)" d="M818.251,182.823c3.149,1.799,5.398,4.048,6.747,7.197c3.149-1.349,2.699-1.349,4.498,1.349
				c4.498-3.599,22.041-24.29,28.338-17.093c6.747-5.398,9.896-8.546,18.892-9.896c3.599-0.45,8.097,0,11.245-1.349
				c-2.699-13.045-17.543-4.048-25.639-0.9c2.699-17.093-42.282-4.498-40.933,13.944"/>
		</g>
		<g>
			<linearGradient id="SVGID_10_" gradientUnits="userSpaceOnUse" x1="828.7793" y1="139.5271" x2="889.7714" y2="139.5271">
				<stop  offset="0.615" style="stop-color:#007C74"/>
				<stop  offset="0.6952" style="stop-color:#00867F"/>
				<stop  offset="0.8519" style="stop-color:#34A39C"/>
				<stop  offset="1" style="stop-color:#5BC4BF"/>
			</linearGradient>
			<path fill="url(#SVGID_10_)" d="M850.638,135.143c1.349-1.799,2.699-5.398,1.799-7.647c-2.699-5.398-4.048,0.45-7.647,1.799
				c-2.249,0.9-3.149-1.349-6.297,0.9c-3.149,1.799-5.398,7.647-6.747,10.796c-3.149,7.197-3.599,14.844-2.249,22.491
				c5.848-6.747,25.639-29.238,36.435-17.992c7.197-11.245,13.944-21.141,23.84-29.688c-4.948-1.349-9.446,3.598-13.045,6.747
				c-0.9-17.093-21.141,12.145-22.94,16.643c1.349-2.249-0.9-2.249-1.349-3.598"/>
		</g>
	</g>
	<g>
		<g>
			<linearGradient id="SVGID_11_" gradientUnits="userSpaceOnUse" x1="693.9783" y1="200.7897" x2="720.3342" y2="200.7897">
				<stop  offset="0.5134" style="stop-color:#43BEAD"/>
				<stop  offset="0.7379" style="stop-color:#58BCAE"/>
				<stop  offset="1" style="stop-color:#70BDB2"/>
			</linearGradient>
			<path fill="url(#SVGID_11_)" d="M707.092,194.914c-4.503,0.751-9.382,5.254-8.631,10.132c-3.377-5.254-6.38,2.252-3.002,6.38
				c3.753,4.878,7.13,3.377,11.633,0c6.755-4.503,15.386-15.761,12.759-24.392c-2.627,1.126-4.878,3.753-6.38,6.004"/>
		</g>
		<g>
			<linearGradient id="SVGID_12_" gradientUnits="userSpaceOnUse" x1="739.5475" y1="185.7646" x2="789.3809" y2="185.7646">
				<stop  offset="0.5134" style="stop-color:#43BEAD"/>
				<stop  offset="0.7379" style="stop-color:#58BCAE"/>
				<stop  offset="1" style="stop-color:#70BDB2"/>
			</linearGradient>
			<path fill="url(#SVGID_12_)" d="M748.448,180.089c-4.948,2.699-10.346,8.996-8.546,14.394c0.45,0,0.9,0,1.799,0
				c-0.9,2.249-1.799,4.948-1.349,7.197c8.996-4.498,11.695-20.242,26.089-15.743c0,0.9-0.45,1.349-0.45,2.249
				c7.647-0.9,16.643-10.346,23.39-13.944c-6.297-8.097-19.792-3.598-26.089,2.249c-3.599-3.598-8.546-1.349-11.695,1.799"/>
		</g>
		<g>
			<linearGradient id="SVGID_13_" gradientUnits="userSpaceOnUse" x1="768.2397" y1="182.7776" x2="819.0685" y2="182.7776">
				<stop  offset="0.5134" style="stop-color:#43BEAD"/>
				<stop  offset="0.7379" style="stop-color:#58BCAE"/>
				<stop  offset="1" style="stop-color:#70BDB2"/>
			</linearGradient>
			<path fill="url(#SVGID_13_)" d="M770.939,189.985c-1.349,3.149-2.249,6.297-2.699,8.996c5.398-1.799,8.996-4.498,13.944-6.297
				c5.398-2.699,10.796-6.747,16.643-9.446c3.149-1.349,8.546-2.699,11.695-4.498c2.699-2.249,6.297-8.097,8.546-12.145
				c-5.398-0.45-5.848,6.297-10.346,7.647c-4.048,1.349-7.197-3.598-11.245,2.249c-7.197-8.097-17.543,6.297-21.591,10.796"/>
		</g>
		<g>
			<linearGradient id="SVGID_14_" gradientUnits="userSpaceOnUse" x1="815.47" y1="174.9249" x2="885.1909" y2="174.9249">
				<stop  offset="0.5134" style="stop-color:#43BEAD"/>
				<stop  offset="0.7379" style="stop-color:#58BCAE"/>
				<stop  offset="1" style="stop-color:#70BDB2"/>
			</linearGradient>
			<path fill="url(#SVGID_14_)" d="M815.47,185.037c3.149,1.799,5.398,4.048,6.747,7.197c3.149-1.349,2.699-1.349,4.498,1.349
				c4.498-3.598,22.041-24.29,28.338-17.093c6.747-5.398,9.896-8.546,18.892-9.896c3.599-0.45,8.097,0,11.245-1.349
				c-2.699-13.045-17.543-4.048-25.639-0.9c2.699-17.093-42.282-4.498-40.933,13.944"/>
		</g>
		<g>
			<linearGradient id="SVGID_15_" gradientUnits="userSpaceOnUse" x1="825.998" y1="141.7414" x2="886.9901" y2="141.7414">
				<stop  offset="0.5134" style="stop-color:#43BEAD"/>
				<stop  offset="0.7379" style="stop-color:#58BCAE"/>
				<stop  offset="1" style="stop-color:#70BDB2"/>
			</linearGradient>
			<path fill="url(#SVGID_15_)" d="M847.856,137.357c1.349-1.799,2.699-5.398,1.799-7.647c-2.699-5.398-4.048,0.45-7.647,1.799
				c-2.249,0.9-3.149-1.349-6.297,0.9c-3.149,1.799-5.398,7.647-6.747,10.795c-3.149,7.197-3.598,14.844-2.249,22.491
				c5.848-6.747,25.639-29.238,36.435-17.992c7.197-11.245,13.944-21.141,23.84-29.688c-4.948-1.349-9.446,3.598-13.045,6.747
				c-0.9-17.093-21.141,12.145-22.94,16.643c1.349-2.249-0.9-2.249-1.349-3.598"/>
		</g>
	</g>
</g>
<g>
	<g opacity="0.2">
		<g>
			
				<linearGradient id="SVGID_16_" gradientUnits="userSpaceOnUse" x1="1497.3094" y1="-815.6171" x2="1479.1517" y2="-835.8264" gradientTransform="matrix(0.9784 0.2069 -0.2069 0.9784 -611.6177 646.7968)">
				<stop  offset="0.615" style="stop-color:#007C74"/>
				<stop  offset="0.6952" style="stop-color:#00867F"/>
				<stop  offset="0.8519" style="stop-color:#34A39C"/>
				<stop  offset="1" style="stop-color:#5BC4BF"/>
			</linearGradient>
			<path fill="url(#SVGID_16_)" d="M1041.547,141.945c-2.641-7.463-10.097-12.108-17.751-12.192
				c-11.403-0.493-15.603,6.673-20.848,15.153c-3.51-8.797-6.149,3.686-6.848,6.99c-0.932,4.406-2.463,9.835,0.298,13.104
				c4.723-7.823,9.523-16.014,19.556-18.112c5.895-0.671,18.414,5.428,22.128,2.377"/>
		</g>
		<g>
			
				<linearGradient id="SVGID_17_" gradientUnits="userSpaceOnUse" x1="1474.8049" y1="-811.1624" x2="1455.4524" y2="-832.7015" gradientTransform="matrix(0.9784 0.2069 -0.2069 0.9784 -611.6177 646.7968)">
				<stop  offset="0.615" style="stop-color:#007C74"/>
				<stop  offset="0.6952" style="stop-color:#00867F"/>
				<stop  offset="0.8519" style="stop-color:#34A39C"/>
				<stop  offset="1" style="stop-color:#5BC4BF"/>
			</linearGradient>
			<path fill="url(#SVGID_17_)" d="M1012.626,128.159c-13.238-0.881-20.806,11.327-25.627,21.431
				c0.585-6.397,2.851-11.671,3.804-17.99c-3.982,0.692-6.015,4.865-8.182,7.859c-0.749-5.528-4.752-2.923-6.842-0.296
				c-2.09,2.627-2.442,7.922-3.063,10.859c-0.586,6.397-1.58,16.543,3.518,21.456c1.305-11.614,20.903-33.553,31.882-34.684"/>
		</g>
		<g>
			
				<linearGradient id="SVGID_18_" gradientUnits="userSpaceOnUse" x1="1443.0145" y1="-832.8951" x2="1431.912" y2="-845.252" gradientTransform="matrix(0.9784 0.2069 -0.2069 0.9784 -611.6177 646.7968)">
				<stop  offset="0.615" style="stop-color:#007C74"/>
				<stop  offset="0.6952" style="stop-color:#00867F"/>
				<stop  offset="0.8519" style="stop-color:#34A39C"/>
				<stop  offset="1" style="stop-color:#5BC4BF"/>
			</linearGradient>
			<path fill="url(#SVGID_18_)" d="M987.857,118.319c-10.118-10.194-41.882,0.35-35.576,15.875c2.069-0.713,3.77-1.504,4.236-3.707
				c-2.696,10.937,11.791-1.342,13.803-3.602c2.902-2.839,4.314-4.074,8.585-4.322c2.725-0.191,4.752,2.923,6.552-0.149"/>
		</g>
		<g>
			
				<linearGradient id="SVGID_19_" gradientUnits="userSpaceOnUse" x1="1420.1523" y1="-842.3323" x2="1415.6573" y2="-847.3353" gradientTransform="matrix(0.9784 0.2069 -0.2069 0.9784 -611.6177 646.7968)">
				<stop  offset="0.615" style="stop-color:#007C74"/>
				<stop  offset="0.6952" style="stop-color:#00867F"/>
				<stop  offset="0.8519" style="stop-color:#34A39C"/>
				<stop  offset="1" style="stop-color:#5BC4BF"/>
			</linearGradient>
			<path fill="url(#SVGID_19_)" d="M963.9,108.267c-6.397-0.585-27.719,4.112-24.887,14.299c4.949-1.638,10.421-3.934,14.212-7.351"
				/>
		</g>
		<g>
			
				<linearGradient id="SVGID_20_" gradientUnits="userSpaceOnUse" x1="1441.3062" y1="-814.8211" x2="1419.5651" y2="-839.0186" gradientTransform="matrix(0.9784 0.2069 -0.2069 0.9784 -611.6177 646.7968)">
				<stop  offset="0.615" style="stop-color:#007C74"/>
				<stop  offset="0.6952" style="stop-color:#00867F"/>
				<stop  offset="0.8519" style="stop-color:#34A39C"/>
				<stop  offset="1" style="stop-color:#5BC4BF"/>
			</linearGradient>
			<path fill="url(#SVGID_20_)" d="M944.556,127.19c-4.158,3.34-0.995,10.146,1.321,13.704c-1.603-1.49-5.698-3.89-7.922-2.442
				c-3.848,1.871,2.14,6.206,4.767,8.296c2.259,2.012,17.56,9.466,11.904,1.75c6.659,10.23,15.758-7.408,15.532-13.593
				c7.421,1.186,7.568-12.208,5.852-16.79c-3.277-9.898-13.859,2.056-18.116,7.676c-1.116-5.606-4.301-10.498-8.713-4.144"/>
		</g>
	</g>
	<g>
		<g>
			
				<linearGradient id="SVGID_21_" gradientUnits="userSpaceOnUse" x1="1496.9723" y1="-814.3632" x2="1478.8146" y2="-834.5724" gradientTransform="matrix(0.9784 0.2069 -0.2069 0.9784 -611.6177 646.7968)">
				<stop  offset="0.0711" style="stop-color:#43BEAD"/>
				<stop  offset="0.4997" style="stop-color:#58BCAE"/>
				<stop  offset="1" style="stop-color:#70BDB2"/>
			</linearGradient>
			<path fill="url(#SVGID_21_)" d="M1040.957,143.102c-2.641-7.463-10.097-12.108-17.751-12.192
				c-11.403-0.493-15.603,6.673-20.848,15.153c-3.51-8.797-6.149,3.686-6.848,6.99c-0.932,4.406-2.463,9.835,0.298,13.104
				c4.723-7.823,9.523-16.014,19.556-18.112c5.895-0.671,18.414,5.428,22.128,2.377"/>
		</g>
		<g>
			
				<linearGradient id="SVGID_22_" gradientUnits="userSpaceOnUse" x1="1474.4677" y1="-809.9084" x2="1455.1151" y2="-831.4476" gradientTransform="matrix(0.9784 0.2069 -0.2069 0.9784 -611.6177 646.7968)">
				<stop  offset="0.0711" style="stop-color:#43BEAD"/>
				<stop  offset="0.4997" style="stop-color:#58BCAE"/>
				<stop  offset="1" style="stop-color:#70BDB2"/>
			</linearGradient>
			<path fill="url(#SVGID_22_)" d="M1012.036,129.316c-13.238-0.881-20.806,11.327-25.627,21.431
				c0.585-6.397,2.851-11.671,3.804-17.99c-3.982,0.692-6.015,4.865-8.182,7.859c-0.749-5.528-4.752-2.923-6.842-0.296
				c-2.09,2.627-2.442,7.922-3.063,10.859c-0.585,6.397-1.58,16.543,3.518,21.456c1.305-11.615,20.903-33.553,31.882-34.684"/>
		</g>
		<g>
			
				<linearGradient id="SVGID_23_" gradientUnits="userSpaceOnUse" x1="1442.6774" y1="-831.6412" x2="1431.5748" y2="-843.9981" gradientTransform="matrix(0.9784 0.2069 -0.2069 0.9784 -611.6177 646.7968)">
				<stop  offset="0.0711" style="stop-color:#43BEAD"/>
				<stop  offset="0.4997" style="stop-color:#58BCAE"/>
				<stop  offset="1" style="stop-color:#70BDB2"/>
			</linearGradient>
			<path fill="url(#SVGID_23_)" d="M987.268,119.476c-10.118-10.194-41.882,0.35-35.576,15.875c2.069-0.713,3.77-1.504,4.236-3.707
				c-2.696,10.937,11.791-1.342,13.803-3.602c2.902-2.839,4.314-4.074,8.585-4.322c2.725-0.191,4.752,2.923,6.552-0.149"/>
		</g>
		<g>
			
				<linearGradient id="SVGID_24_" gradientUnits="userSpaceOnUse" x1="1419.8152" y1="-841.0784" x2="1415.3201" y2="-846.0814" gradientTransform="matrix(0.9784 0.2069 -0.2069 0.9784 -611.6177 646.7968)">
				<stop  offset="0.0711" style="stop-color:#43BEAD"/>
				<stop  offset="0.4997" style="stop-color:#58BCAE"/>
				<stop  offset="1" style="stop-color:#70BDB2"/>
			</linearGradient>
			<path fill="url(#SVGID_24_)" d="M963.311,109.424c-6.397-0.585-27.719,4.112-24.887,14.299
				c4.949-1.638,10.421-3.934,14.212-7.351"/>
		</g>
		<g>
			
				<linearGradient id="SVGID_25_" gradientUnits="userSpaceOnUse" x1="1440.9689" y1="-813.5672" x2="1419.2278" y2="-837.7646" gradientTransform="matrix(0.9784 0.2069 -0.2069 0.9784 -611.6177 646.7968)">
				<stop  offset="0.0711" style="stop-color:#43BEAD"/>
				<stop  offset="0.4997" style="stop-color:#58BCAE"/>
				<stop  offset="1" style="stop-color:#70BDB2"/>
			</linearGradient>
			<path fill="url(#SVGID_25_)" d="M943.967,128.347c-4.158,3.34-0.995,10.146,1.321,13.704c-1.603-1.49-5.698-3.89-7.922-2.442
				c-3.848,1.871,2.14,6.206,4.766,8.296c2.26,2.012,17.56,9.466,11.904,1.75c6.659,10.23,15.758-7.408,15.532-13.593
				c7.421,1.186,7.568-12.208,5.852-16.79c-3.277-9.898-13.859,2.056-18.116,7.676c-1.116-5.606-4.301-10.498-8.713-4.144"/>
		</g>
	</g>
</g>
<g>
	<g opacity="0.2">
		
			<linearGradient id="SVGID_26_" gradientUnits="userSpaceOnUse" x1="-8183.4624" y1="-3517.2151" x2="-8205.6924" y2="-3491.4949" gradientTransform="matrix(-0.7566 -0.6539 -0.6539 0.7566 -7413.3726 -2578.4756)">
			<stop  offset="0.615" style="stop-color:#007C74"/>
			<stop  offset="0.6952" style="stop-color:#00867F"/>
			<stop  offset="0.8519" style="stop-color:#34A39C"/>
			<stop  offset="1" style="stop-color:#5BC4BF"/>
		</linearGradient>
		<path fill="url(#SVGID_26_)" d="M1072.253,142.24c-2.788-0.709-5.576-1.418-8.039-1.847c0.841-0.973,0.709-2.788,1.55-3.761
			c-0.973-0.841-2.595-2.243-3.244-2.804c-4.426,1.842-12.97,9.761-13.262,1.574c0.297-4.278,7.351-11.784,10.804-14.467
			c6.021-4.999,28.019-16.025,32.573-3.587c-8.083-2.452-22.703,1.349-27.338,8.679c6.433-3.509,16.391-4.537,23.649-5.066
			c3.909-0.589,9.633-1.309,11.712,2.188c2.447,4.382-2.32,9.898-6.273,9.881c6.109-3.789,21.269,8.18,5.115,11.789
			c-9.265,2.195-17.672-0.538-26.921-2.296"/>
	</g>
	<g>
		
			<linearGradient id="SVGID_27_" gradientUnits="userSpaceOnUse" x1="-8182.3462" y1="-3514.2024" x2="-8204.5762" y2="-3488.4819" gradientTransform="matrix(-0.7566 -0.6539 -0.6539 0.7566 -7413.3726 -2578.4756)">
			<stop  offset="0.0711" style="stop-color:#43BEAD"/>
			<stop  offset="0.4997" style="stop-color:#58BCAE"/>
			<stop  offset="1" style="stop-color:#70BDB2"/>
		</linearGradient>
		<path fill="url(#SVGID_27_)" d="M1069.438,143.79c-2.788-0.709-5.576-1.418-8.039-1.847c0.841-0.973,0.709-2.788,1.55-3.761
			c-0.973-0.841-2.595-2.243-3.244-2.804c-4.426,1.842-12.97,9.761-13.262,1.574c0.297-4.278,7.351-11.784,10.804-14.467
			c6.021-4.999,28.02-16.025,32.573-3.587c-8.083-2.452-22.703,1.349-27.338,8.679c6.433-3.509,16.391-4.537,23.649-5.066
			c3.909-0.589,9.633-1.309,11.712,2.188c2.447,4.382-2.32,9.898-6.273,9.881c6.109-3.789,21.269,8.18,5.115,11.789
			c-9.265,2.195-17.672-0.538-26.921-2.297"/>
	</g>
</g>
<g>
	<g opacity="0.2">
		
			<linearGradient id="SVGID_28_" gradientUnits="userSpaceOnUse" x1="759.6603" y1="-3946.9209" x2="810.7375" y2="-3903.5754" gradientTransform="matrix(0.647 0.7625 -0.7625 0.647 -3430.5212 2163.7212)">
			<stop  offset="0.615" style="stop-color:#007C74"/>
			<stop  offset="0.6952" style="stop-color:#00867F"/>
			<stop  offset="0.8519" style="stop-color:#34A39C"/>
			<stop  offset="1" style="stop-color:#5BC4BF"/>
		</linearGradient>
		<path fill="url(#SVGID_28_)" d="M90.695,189.55c-5.098-2.745-18.731,8.339-23.855,11.792c6.432-13.513-14.759-8.954-19.883-5.501
			c-12.849,9.114-3.026,13.308-5.375,24.25c-1.42-12.219-10.391-9.081-17.517-4.823c-7.647,4.699-10.043,10.312-14.078,18.212
			c-5.234,10.706-7.11,15.878,5.993,15.498c6.811-0.41,17.549-1.468,23.114-4.401c12.41,19.897,52.063,8.62,70.211,5.749
			c4.446-1.088,23.918-2.399,25.195-6.167c1.955-6.133-9.919-14.852-14.806-14.284c1.749-9.539-8.611-24.911-16.432-29.909
			c-2.033,7.095-6.353,12.551-11.635,17.928C92.824,215.089,103.652,196.525,90.695,189.55z"/>
	</g>
	<g opacity="0.2">
		
			<linearGradient id="SVGID_29_" gradientUnits="userSpaceOnUse" x1="860.8183" y1="-4023.7646" x2="879.4239" y2="-4007.9753" gradientTransform="matrix(0.647 0.7625 -0.7625 0.647 -3430.5212 2163.7212)">
			<stop  offset="0.615" style="stop-color:#007C74"/>
			<stop  offset="0.6952" style="stop-color:#00867F"/>
			<stop  offset="0.8519" style="stop-color:#34A39C"/>
			<stop  offset="1" style="stop-color:#5BC4BF"/>
		</linearGradient>
		<path fill="url(#SVGID_29_)" d="M171.309,220.352c8.372-1.735,16.224-3.029,24.439-2.84c0.442,0.52-8.773,11.228-7.89,12.269
			c23.412-22.611,53.41-12.415,56.596,1.886c-24.911,8.611-49.035,7.604-75.287,3.033c4.367-0.126,7.616,1.592,9.823,4.193
			c-6.243,5.298-27.009-1.243-34.624-2.835c4.919-6.859,8.277-12.393,15.324-15.689"/>
	</g>
	<g>
		
			<linearGradient id="SVGID_30_" gradientUnits="userSpaceOnUse" x1="758.17" y1="-3943.3018" x2="809.2473" y2="-3899.9563" gradientTransform="matrix(0.647 0.7625 -0.7625 0.647 -3430.5212 2163.7212)">
			<stop  offset="0" style="stop-color:#009D8E"/>
			<stop  offset="0.2771" style="stop-color:#009E8E"/>
			<stop  offset="0.5472" style="stop-color:#00A091"/>
			<stop  offset="0.8135" style="stop-color:#00A494"/>
			<stop  offset="1" style="stop-color:#00A798"/>
		</linearGradient>
		<path fill="url(#SVGID_30_)" d="M86.971,190.756c-5.098-2.745-18.731,8.339-23.855,11.792c6.432-13.513-14.759-8.954-19.883-5.501
			c-12.849,9.114-3.026,13.308-5.375,24.25c-1.42-12.219-10.391-9.081-17.517-4.823c-7.647,4.699-10.043,10.312-14.078,18.212
			c-5.234,10.706-7.11,15.878,5.993,15.498c6.811-0.41,17.549-1.468,23.114-4.401c12.41,19.897,52.063,8.62,70.211,5.749
			c4.446-1.088,23.918-2.398,25.195-6.167c1.955-6.133-9.919-14.852-14.806-14.284c1.749-9.539-8.611-24.911-16.432-29.909
			c-2.033,7.095-6.353,12.551-11.635,17.928C89.101,216.294,99.928,197.731,86.971,190.756z"/>
	</g>
	<g opacity="0.2">
		
			<linearGradient id="SVGID_31_" gradientUnits="userSpaceOnUse" x1="775.2678" y1="-3928.9492" x2="826.3578" y2="-3919.6475" gradientTransform="matrix(0.647 0.7625 -0.7625 0.647 -3430.5212 2163.7212)">
			<stop  offset="0.615" style="stop-color:#007C74"/>
			<stop  offset="0.6952" style="stop-color:#00867F"/>
			<stop  offset="0.8519" style="stop-color:#34A39C"/>
			<stop  offset="1" style="stop-color:#5BC4BF"/>
		</linearGradient>
		<path fill="url(#SVGID_31_)" d="M106.475,249.681c4.398-6.418,4.208-27.734-7.806-22.909c0.897-16.871-24.03-19.88-35.319-12.09
			c0.931,6.37,6.024,9.207,11.716,10.642c-3.926,0.647-12.661,0.9-16.224,3.029c-5.566,2.933-8.324,7.064,0.852,7.332
			c-2.964,0.726-5.124,3.453-7.647,4.699c9.382,3.673,25.89,3.088,35.901-0.933c-0.473,5.771,5.582,8.687,11.353,9.16"/>
	</g>
	<g>
		
			<linearGradient id="SVGID_32_" gradientUnits="userSpaceOnUse" x1="857.8514" y1="-4019.8096" x2="876.457" y2="-4004.0205" gradientTransform="matrix(0.647 0.7625 -0.7625 0.647 -3430.5212 2163.7212)">
			<stop  offset="0" style="stop-color:#009D8E"/>
			<stop  offset="0.2771" style="stop-color:#009E8E"/>
			<stop  offset="0.5472" style="stop-color:#00A091"/>
			<stop  offset="0.8135" style="stop-color:#00A494"/>
			<stop  offset="1" style="stop-color:#00A798"/>
		</linearGradient>
		<path fill="url(#SVGID_32_)" d="M166.374,220.649c8.372-1.735,16.224-3.029,24.439-2.84c0.442,0.52-8.773,11.228-7.89,12.269
			c23.412-22.611,53.41-12.415,56.596,1.886c-24.911,8.611-49.035,7.604-75.287,3.033c4.367-0.126,7.616,1.592,9.823,4.193
			c-6.243,5.298-27.009-1.243-34.624-2.835c4.919-6.859,8.277-12.394,15.324-15.689"/>
	</g>
	<g>
		
			<linearGradient id="SVGID_33_" gradientUnits="userSpaceOnUse" x1="808.463" y1="-3905.6707" x2="794.0759" y2="-3945.8938" gradientTransform="matrix(0.647 0.7625 -0.7625 0.647 -3430.5212 2163.7212)">
			<stop  offset="0" style="stop-color:#009D8E"/>
			<stop  offset="0.0459" style="stop-color:#00A091"/>
			<stop  offset="0.1093" style="stop-color:#00A495"/>
			<stop  offset="0.174" style="stop-color:#00A797"/>
			<stop  offset="0.2415" style="stop-color:#00A798"/>
			<stop  offset="0.6283" style="stop-color:#00A99A"/>
			<stop  offset="0.8306" style="stop-color:#00ADA2"/>
			<stop  offset="0.9851" style="stop-color:#00B6B0"/>
		</linearGradient>
		<path fill="url(#SVGID_33_)" d="M103.812,250.13c4.398-6.418,4.208-27.734-7.806-22.909c0.897-16.871-24.03-19.88-35.319-12.09
			c0.931,6.37,6.024,9.207,11.716,10.642c-3.926,0.647-12.661,0.9-16.224,3.029c-5.566,2.933-8.324,7.064,0.852,7.332
			c-2.964,0.726-5.124,3.453-7.647,4.699c9.382,3.673,25.89,3.088,35.901-0.933c-0.473,5.771,5.582,8.687,11.353,9.16"/>
	</g>
</g>
<g>
	<g opacity="0.2">
		<linearGradient id="SVGID_34_" gradientUnits="userSpaceOnUse" x1="725.9405" y1="89.69" x2="725.9405" y2="173.375">
			<stop  offset="0.615" style="stop-color:#007C74"/>
			<stop  offset="0.6952" style="stop-color:#00867F"/>
			<stop  offset="0.8519" style="stop-color:#34A39C"/>
			<stop  offset="1" style="stop-color:#5BC4BF"/>
		</linearGradient>
		<path fill="url(#SVGID_34_)" d="M716.921,115.246c4.51,6.514,9.521,12.027,13.53,18.541c0.501-14.031-0.501-34.576-12.027-44.097
			c5.512,4.009,13.029,16.035,14.031,22.55c3.007-6.013,5.512-14.031,9.521-19.543c0,8.519-4.51,12.027-7.016,20.044
			c-2.506,7.517-0.501,16.035,1.002,24.053c1.503,7.016,7.016,32.071-1.503,36.581c1.002-9.521,0-23.552-3.007-33.073
			c-3.508-10.523-15.033-18.541-21.548-27.561c0.501,0,1.503,0.501,2.004,1.002"/>
	</g>
	<g opacity="0.2">
		<linearGradient id="SVGID_35_" gradientUnits="userSpaceOnUse" x1="720.4276" y1="112.6787" x2="720.4276" y2="35.5203">
			<stop  offset="0.615" style="stop-color:#007C74"/>
			<stop  offset="0.6952" style="stop-color:#00867F"/>
			<stop  offset="0.8519" style="stop-color:#34A39C"/>
			<stop  offset="1" style="stop-color:#5BC4BF"/>
		</linearGradient>
		<path fill="url(#SVGID_35_)" d="M718.216,42.381c-6.013-4.51-8.519-7.016-13.53-1.503c-3.007,3.007-5.512,12.027-6.013,16.537
			c-4.51-10.022-12.027,4.009-12.528,8.519c-1.002,11.525,6.013,8.018,11.024,14.532c-7.517-5.011-10.022,1.503-11.024,7.517
			c-1.002,6.514,1.002,10.523,3.508,16.537c3.508,8.018,5.512,11.525,11.525,4.009c3.007-4.009,7.517-10.523,8.519-15.033
			c17.038,2.506,29.565-25.055,36.581-36.581c1.503-3.007,10.022-14.532,8.519-17.038c-2.506-4.009-13.029-1.503-15.033,1.503
			c-4.51-5.512-18.04-7.016-24.554-5.011c3.007,4.51,4.009,9.521,4.51,15.033c-1.002-2.004-2.506-3.508-3.508-5.011"/>
	</g>
	<g opacity="0.2">
		<linearGradient id="SVGID_36_" gradientUnits="userSpaceOnUse" x1="757.4495" y1="105.7255" x2="757.4495" y2="46.6719">
			<stop  offset="0.615" style="stop-color:#007C74"/>
			<stop  offset="0.6952" style="stop-color:#00867F"/>
			<stop  offset="0.8519" style="stop-color:#34A39C"/>
			<stop  offset="1" style="stop-color:#5BC4BF"/>
		</linearGradient>
		<path fill="url(#SVGID_36_)" d="M739.971,83.176c3.007-5.512,6.013-10.523,10.022-15.033c0.501,0,0.501,0.501,1.503,0.501
			c0.501-9.521,20.044-26.058,29.565-21.047c-7.016,18.04-19.042,31.069-34.075,43.596c2.004-2.506,4.51-3.508,7.016-3.508
			c0,6.013-13.53,14.532-18.04,18.04c-1.503-6.013-3.007-10.523-1.503-16.035"/>
	</g>
	<g opacity="0.2">
		<linearGradient id="SVGID_37_" gradientUnits="userSpaceOnUse" x1="702.9631" y1="135.6943" x2="702.9631" y2="90.9143">
			<stop  offset="0.615" style="stop-color:#007C74"/>
			<stop  offset="0.6952" style="stop-color:#00867F"/>
			<stop  offset="0.8519" style="stop-color:#34A39C"/>
			<stop  offset="1" style="stop-color:#5BC4BF"/>
		</linearGradient>
		<path fill="url(#SVGID_37_)" d="M727.765,103.451c-1.86-6.821-16.742-19.222-20.462-8.061
			c-11.161-10.541-27.903,4.96-29.143,17.362c4.961,3.1,9.921,1.24,14.261-1.86c-1.86,3.1-6.821,9.301-7.441,13.021
			c-1.24,5.581,0,9.921,5.581,3.72c-1.24,2.48-0.62,5.581-1.24,8.061c8.061-4.34,17.362-16.122,20.462-25.422
			c3.72,3.72,9.301,1.24,13.021-2.48"/>
	</g>
	<g>
		<linearGradient id="SVGID_38_" gradientUnits="userSpaceOnUse" x1="721.0421" y1="94.175" x2="721.0421" y2="177.86">
			<stop  offset="0.7191" style="stop-color:#00A89A"/>
			<stop  offset="0.8098" style="stop-color:#21AEA2"/>
		</linearGradient>
		<path fill="url(#SVGID_38_)" d="M712.022,119.732c4.51,6.514,9.521,12.027,13.53,18.541c0.501-14.031-0.501-34.576-12.027-44.097
			c5.512,4.009,13.029,16.035,14.031,22.55c3.007-6.013,5.512-14.031,9.521-19.543c0,8.519-4.51,12.027-7.016,20.044
			c-2.505,7.517-0.501,16.035,1.002,24.053c1.503,7.016,7.016,32.071-1.503,36.581c1.002-9.521,0-23.552-3.007-33.073
			c-3.508-10.523-15.033-18.541-21.548-27.561c0.501,0,1.503,0.501,2.004,1.002"/>
	</g>
	<g>
		<linearGradient id="SVGID_39_" gradientUnits="userSpaceOnUse" x1="716.736" y1="115.3535" x2="716.736" y2="38.1951">
			<stop  offset="0.5134" style="stop-color:#43BEAD"/>
			<stop  offset="0.847" style="stop-color:#53C2B8"/>
			<stop  offset="1" style="stop-color:#5BC4BF"/>
		</linearGradient>
		<path fill="url(#SVGID_39_)" d="M714.524,45.056c-6.013-4.51-8.519-7.016-13.53-1.503c-3.007,3.007-5.512,12.027-6.013,16.537
			c-4.51-10.022-12.027,4.009-12.528,8.519c-1.002,11.525,6.013,8.018,11.024,14.532c-7.517-5.011-10.022,1.503-11.024,7.517
			c-1.002,6.514,1.002,10.523,3.508,16.537c3.508,8.018,5.512,11.525,11.525,4.009c3.007-4.009,7.517-10.523,8.519-15.033
			c17.038,2.506,29.565-25.055,36.581-36.581c1.503-3.007,10.022-14.532,8.519-17.038c-2.506-4.009-13.029-1.503-15.033,1.503
			c-4.51-5.512-18.04-7.016-24.554-5.011c3.007,4.51,4.009,9.521,4.51,15.033c-1.002-2.004-2.506-3.508-3.508-5.011"/>
	</g>
	<g>
		<linearGradient id="SVGID_40_" gradientUnits="userSpaceOnUse" x1="752.551" y1="110.2105" x2="752.551" y2="51.1569">
			<stop  offset="0.5134" style="stop-color:#43BEAD"/>
			<stop  offset="0.847" style="stop-color:#53C2B8"/>
			<stop  offset="1" style="stop-color:#5BC4BF"/>
		</linearGradient>
		<path fill="url(#SVGID_40_)" d="M735.073,87.661c3.007-5.512,6.013-10.523,10.022-15.033c0.501,0,0.501,0.501,1.503,0.501
			c0.501-9.521,20.044-26.058,29.565-21.047c-7.016,18.04-19.042,31.069-34.075,43.596c2.004-2.506,4.51-3.508,7.016-3.508
			c0,6.013-13.53,14.532-18.04,18.04c-1.503-6.013-3.007-10.523-1.503-16.035"/>
	</g>
	<g>
		<linearGradient id="SVGID_41_" gradientUnits="userSpaceOnUse" x1="697.8635" y1="137.7658" x2="697.8635" y2="92.9857">
			<stop  offset="0.5134" style="stop-color:#43BEAD"/>
			<stop  offset="0.847" style="stop-color:#53C2B8"/>
			<stop  offset="1" style="stop-color:#5BC4BF"/>
		</linearGradient>
		<path fill="url(#SVGID_41_)" d="M722.666,105.523c-1.86-6.821-16.742-19.222-20.462-8.061
			c-11.161-10.541-27.903,4.96-29.143,17.362c4.96,3.1,9.921,1.24,14.261-1.86c-1.86,3.1-6.821,9.301-7.441,13.021
			c-1.24,5.581,0,9.921,5.581,3.72c-1.24,2.48-0.62,5.581-1.24,8.061c8.061-4.34,17.362-16.122,20.462-25.422
			c3.72,3.72,9.301,1.24,13.021-2.48"/>
	</g>
</g>
<g>
	<g opacity="0.2">
		<linearGradient id="SVGID_42_" gradientUnits="userSpaceOnUse" x1="832.0018" y1="168.9227" x2="832.0018" y2="72.154">
			<stop  offset="0.615" style="stop-color:#007C74"/>
			<stop  offset="0.6952" style="stop-color:#00867F"/>
			<stop  offset="0.8519" style="stop-color:#34A39C"/>
			<stop  offset="1" style="stop-color:#5BC4BF"/>
		</linearGradient>
		<path fill="url(#SVGID_42_)" d="M811.642,92.274c3.353,5.749,10.539,9.581,13.413,15.33c1.916,4.311,1.916,11.976,2.874,16.767
			c2.395,14.851-0.958,30.18,0.958,44.552c4.311-4.791,2.874-21.078,2.874-28.264c-0.479-9.581,0-19.641-0.479-29.222
			c9.581-4.791,18.683-19.162,22.515-28.743c-6.707,3.832-12.934,13.413-18.683,19.162c3.353-10.539,3.353-20.599-2.395-29.701
			c-1.437,11.018,2.874,27.306-3.353,37.366c-6.228-7.665-11.497-13.893-19.162-20.12"/>
	</g>
	<g opacity="0.2">
		<linearGradient id="SVGID_43_" gradientUnits="userSpaceOnUse" x1="792.9473" y1="40.7384" x2="861.752" y2="40.7384">
			<stop  offset="0.615" style="stop-color:#007C74"/>
			<stop  offset="0.6952" style="stop-color:#00867F"/>
			<stop  offset="0.8519" style="stop-color:#34A39C"/>
			<stop  offset="1" style="stop-color:#5BC4BF"/>
		</linearGradient>
		<path fill="url(#SVGID_43_)" d="M837.067,15.847c-1.437-8.623-18.204-25.869-19.641-8.144c-6.707-5.27-16.767-0.958-19.162,6.707
			c-0.958,2.874-0.479,7.665-1.437,11.018c-0.958,4.311-4.311,9.581-3.832,14.372c1.437,9.102,14.372,15.809,20.599,21.078
			c6.707,5.27,14.372,11.976,18.683,19.162c0.958-2.395,1.437-5.27,2.395-7.665c2.395,2.874,4.791,5.27,5.27,9.102
			c15.809-2.874,19.162-32.576,21.078-45.031c2.395-16.288-0.479-30.18-17.725-36.408c-2.874,6.228,2.874,17.246,1.916,24.911
			c-0.958,6.707-3.832,12.455-7.665,17.725c1.916-5.749,2.395-15.33-1.437-20.12"/>
	</g>
	<g opacity="0.2">
		<linearGradient id="SVGID_44_" gradientUnits="userSpaceOnUse" x1="779.584" y1="64.1012" x2="815.1777" y2="64.1012">
			<stop  offset="0.615" style="stop-color:#007C74"/>
			<stop  offset="0.6952" style="stop-color:#00867F"/>
			<stop  offset="0.8519" style="stop-color:#34A39C"/>
			<stop  offset="1" style="stop-color:#5BC4BF"/>
		</linearGradient>
		<path fill="url(#SVGID_44_)" d="M808.146,45.599c-2.874-2.395-12.455-9.581-12.934-2.874c-2.874-1.916-10.539-7.186-13.893-4.311
			c-4.311,2.874,0.479,10.06,2.874,13.413c5.27,7.665,15.33,11.018,18.204,20.599c-3.353-5.27-23.953-18.204-21.078-4.791
			c3.353,14.372,21.078,16.767,31.138,22.995c5.27-7.186,1.916-18.683-1.916-25.869c0.479,0,0.958,0.479,1.916,0.958
			c0.479-5.27,0-12.455-3.832-16.288"/>
	</g>
	<g opacity="0.2">
		<linearGradient id="SVGID_45_" gradientUnits="userSpaceOnUse" x1="851.7307" y1="65.8707" x2="879.7389" y2="65.8707">
			<stop  offset="0.615" style="stop-color:#007C74"/>
			<stop  offset="0.6952" style="stop-color:#00867F"/>
			<stop  offset="0.8519" style="stop-color:#34A39C"/>
			<stop  offset="1" style="stop-color:#5BC4BF"/>
		</linearGradient>
		<path fill="url(#SVGID_45_)" d="M859.098,69.943c5.749-7.665,12.934-31.617,8.623-40.719c3.353,0,4.791,2.874,5.27,6.707
			c6.228-5.27,5.749,6.707,5.749,10.539c0,2.395-0.958,5.27-0.958,7.186c0,3.353,1.916,4.791,1.916,7.186
			c0.958,13.893-14.851,36.887-27.785,41.678c-1.437-6.707,6.228-26.348,2.874-29.701"/>
	</g>
	<g>
		<linearGradient id="SVGID_46_" gradientUnits="userSpaceOnUse" x1="830.3215" y1="169.5862" x2="830.3215" y2="72.8175">
			<stop  offset="0.8659" style="stop-color:#00A89A"/>
			<stop  offset="0.9278" style="stop-color:#2FB2A7"/>
			<stop  offset="1" style="stop-color:#5BC4BF"/>
		</linearGradient>
		<path fill="url(#SVGID_46_)" d="M809.962,92.938c3.353,5.749,10.539,9.581,13.413,15.33c1.916,4.311,1.916,11.976,2.874,16.767
			c2.395,14.851-0.958,30.18,0.958,44.552c4.311-4.791,2.874-21.078,2.874-28.264c-0.479-9.581,0-19.641-0.479-29.222
			c9.581-4.791,18.683-19.162,22.515-28.743c-6.707,3.832-12.934,13.413-18.683,19.162c3.353-10.539,3.353-20.599-2.395-29.701
			c-1.437,11.018,2.874,27.306-3.353,37.366c-6.228-7.665-11.497-13.893-19.162-20.12"/>
	</g>
	<g>
		<linearGradient id="SVGID_47_" gradientUnits="userSpaceOnUse" x1="791.0659" y1="42.2064" x2="859.8705" y2="42.2064">
			<stop  offset="0.5134" style="stop-color:#43BEAD"/>
			<stop  offset="0.847" style="stop-color:#53C2B8"/>
			<stop  offset="1" style="stop-color:#5BC4BF"/>
		</linearGradient>
		<path fill="url(#SVGID_47_)" d="M835.185,17.315c-1.437-8.623-18.204-25.869-19.641-8.144c-6.707-5.27-16.767-0.958-19.162,6.707
			c-0.958,2.874-0.479,7.665-1.437,11.018c-0.958,4.311-4.311,9.581-3.832,14.372c1.437,9.102,14.372,15.809,20.599,21.078
			c6.707,5.27,14.372,11.976,18.683,19.162c0.958-2.395,1.437-5.27,2.395-7.665c2.395,2.874,4.791,5.27,5.27,9.102
			c15.809-2.874,19.162-32.576,21.078-45.031c2.395-16.288-0.479-30.18-17.725-36.408c-2.874,6.228,2.874,17.246,1.916,24.911
			c-0.958,6.707-3.832,12.455-7.665,17.725c1.916-5.749,2.395-15.33-1.437-20.12"/>
	</g>
	<g>
		<linearGradient id="SVGID_48_" gradientUnits="userSpaceOnUse" x1="779.915" y1="66.3738" x2="815.5087" y2="66.3738">
			<stop  offset="0.0281" style="stop-color:#43BEAD"/>
			<stop  offset="0.6945" style="stop-color:#53C2B8"/>
			<stop  offset="1" style="stop-color:#5BC4BF"/>
		</linearGradient>
		<path fill="url(#SVGID_48_)" d="M808.477,47.871c-2.874-2.395-12.455-9.581-12.934-2.874c-2.874-1.916-10.539-7.186-13.893-4.311
			c-4.312,2.874,0.479,10.06,2.874,13.413c5.27,7.665,15.33,11.018,18.204,20.599c-3.353-5.27-23.953-18.204-21.078-4.791
			c3.353,14.372,21.078,16.767,31.138,22.995c5.27-7.186,1.916-18.683-1.916-25.869c0.479,0,0.958,0.479,1.916,0.958
			c0.479-5.27,0-12.455-3.832-16.288"/>
	</g>
	<g>
		<linearGradient id="SVGID_49_" gradientUnits="userSpaceOnUse" x1="846.8322" y1="70.3558" x2="874.8405" y2="70.3558">
			<stop  offset="0.5134" style="stop-color:#43BEAD"/>
			<stop  offset="0.847" style="stop-color:#53C2B8"/>
			<stop  offset="1" style="stop-color:#5BC4BF"/>
		</linearGradient>
		<path fill="url(#SVGID_49_)" d="M854.2,74.428c5.749-7.665,12.934-31.617,8.623-40.719c3.353,0,4.791,2.874,5.27,6.707
			c6.228-5.27,5.749,6.707,5.749,10.539c0,2.395-0.958,5.27-0.958,7.186c0,3.353,1.916,4.791,1.916,7.186
			c0.958,13.893-14.851,36.887-27.785,41.678c-1.437-6.707,6.228-26.348,2.874-29.701"/>
	</g>
</g>
</svg>
