<?xml version="1.0" encoding="utf-8"?>
<!-- Generator: Adobe Illustrator 17.0.0, SVG Export Plug-In . SVG Version: 6.00 Build 0)  -->
<!DOCTYPE svg PUBLIC "-//W3C//DTD SVG 1.1//EN" "http://www.w3.org/Graphics/SVG/1.1/DTD/svg11.dtd">
<svg version="1.1" id="Layer_1" xmlns="http://www.w3.org/2000/svg" xmlns:xlink="http://www.w3.org/1999/xlink" x="0px" y="0px"
	 width="258.233px" height="152.687px" viewBox="0 0 258.233 152.687" enable-background="new 0 0 258.233 152.687"
	 xml:space="preserve">
<path opacity="0.9" fill="#F4EFED" d="M55.398,128.791c0,0-4.308-12.751-7.93-14.928c-3.698-2.223-13.242-1.573-17.26,0
	c-7.839,3.068-29.78,9.419-30.181,17.828c-0.536,11.258,7.093,15.247,8.935,16.619c6.601,4.917,20.25,4.855,28.235,2.859
	c5.004-1.251,10.271-5.118,10.271-5.118s3.719,2.702,5.131,3.265c19.444,7.75,33.204-0.292,33.204-0.292s5.342,3.628,15.726,2.144
	c3.753-0.536,7.497-3.974,7.982-5.585c0.71-2.356-3.005-7.159-5.131-8.397c-3.126-1.82-14.461-0.466-14.461-0.466
	s-5.092-10.253-8.397-11.662C70.256,120.254,55.398,128.791,55.398,128.791z"/>
<path fill="#E1DBE1" d="M109.619,145.572c0.814-2.322-3.114-7.362-5.24-8.6c-3.126-1.82-14.461-0.466-14.461-0.466
	s-5.023-10.426-8.397-11.662c-11.259-4.125-26.123,3.732-26.123,3.732s-4.277-12.804-7.93-14.928
	c-5.834-3.392-15.871-0.43-19.889,1.143c0,0,15.472,2.117,17.868,4.36c2.086,1.953,4.602,6.097,3.887,8.863
	c-0.886,3.432-1.399,6.686-1.399,6.686s5.376-2.74,7.308-3.254c2.983-0.795,9.255-1.849,12.284-1.255
	c2.679,0.525,7.652,3.261,9.641,5.131c1.462,1.375,2.488,6.22,2.488,6.22s6.058-1.594,7.619-2.021
	c1.321-0.362,4.076-0.712,5.442-0.622c1.919,0.126,8.288,0.279,9.952,1.244c1.118,0.649,2.82,2.006,3.11,3.265
	c0.889,3.858,0.356,3.354-0.218,6.222C105.562,149.63,108.713,148.157,109.619,145.572z"/>
<path opacity="0.87" fill="#F4EFED" d="M217.092,42.402c0,0,16.354-4.977,25.361,7.348c3.621,4.956,5.451,23.939,5.451,23.939
	s7.406,2.56,9.007,4.503c0.704,0.854,1.687,3.28,1.185,4.266c-0.689,1.354-18.518,14.16-46.282,15.574
	C152.652,101.047,86.315,84.028,59.237,81.51c-9.034-0.84-32.414-0.21-34.842-7.585c-1.534-4.661,13.025-7.558,17.539-9.481
	c6.992-2.977,23.123-4.281,30.338-1.896c2.356,0.779,7.585,6.4,7.585,6.4s7.285-3.927,9.955-4.503c1.68-0.362,6.874,0,6.874,0
	s3.38-13.622,6.874-16.354c5.149-4.028,25.835-4.029,25.835-4.029s2.33-8.601,4.503-10.429c1.749-1.471,8.888-2.133,8.888-2.133
	l3.437-1.659c0,0-8.059-13.036,3.081-19.199c3.059-1.692,10.666-0.948,10.666-0.948s8.294-6.673,15.406-8.533
	c10.666-2.788,31.761-2.035,40.056,21.569C220.207,36.313,217.092,42.402,217.092,42.402z"/>
<path opacity="0.9" fill="#E1DBE1" d="M72.334,62.605c2.356,0.779,7.496,6.099,7.496,6.099s6.902-3.684,9.572-4.259
	c1.68-0.362,6.838,0,6.838,0s3.38-13.622,6.874-16.354c5.149-4.028,25.835-4.029,25.835-4.029s2.33-8.601,4.503-10.429
	c1.749-1.471,8.888-2.133,8.888-2.133l3.437-1.659c0,0-8.059-13.036,3.081-19.199c3.059-1.692,10.666-0.948,10.666-0.948
	s8.294-6.673,15.406-8.533c10.666-2.788,32.048-2.248,40.462,21.314c4.939,13.832,1.707,19.905,1.707,19.905
	s-1.87-11.961-3.44-15.621c-1.444-3.366-5.444-9.941-8.533-11.91c-5.072-3.233-17.867-6.121-23.643-4.444
	c-7.881,2.288-21.954,14.45-23.998,22.398c-0.258,1.005,0.711,4.089,0.711,4.089s6.044-2.844,12.621-1.244
	c10.098,2.456,12.799,8.71,12.799,8.71s-10.844-2.133-20.087,0.711c-12.023,3.699-11.91,15.643-11.91,15.643
	s-3.834-4.223-9.244-5.333c-6.933-1.422-11.91,3.022-11.91,3.022s-0.86-6.164-2.489-7.111c-3.203-1.862-14.577,2.666-14.577,2.666
	l-0.711,3.022c0,0,6.894-1.379,15.11,3.022c4.977,2.666,6.222,7.644,6.222,7.644s-4.385-0.811-5.866-0.889
	c-4.735-0.25-14.355,0.647-18.837,2.192c-3.842,1.325-13.871,8.473-13.871,8.473l-1.778,1.955l-0.533-3.555l1.6-5.122
	c0,0-6.976-0.26-9.244,0.189c-1.777,0.352-8.355,2.8-8.355,2.8s-0.682-4.779-1.6-6.222C74.71,66.167,72.334,62.605,72.334,62.605z"
	/>
</svg>
