<?xml version="1.0" encoding="utf-8"?>
<!-- Generator: Adobe Illustrator 17.0.0, SVG Export Plug-In . SVG Version: 6.00 Build 0)  -->
<!DOCTYPE svg PUBLIC "-//W3C//DTD SVG 1.1//EN" "http://www.w3.org/Graphics/SVG/1.1/DTD/svg11.dtd">
<svg version="1.1" id="Layer_1" xmlns="http://www.w3.org/2000/svg" xmlns:xlink="http://www.w3.org/1999/xlink" x="0px" y="0px"
	 width="1279.962px" height="817.082px" viewBox="0 0 1279.962 817.082" enable-background="new 0 0 1279.962 817.082"
	 xml:space="preserve">
<path opacity="0.1" fill="#E3D3CE" d="M471.721,0c0,0-50.181,76.347-72.71,91.716c-7.991,5.452-36.874,11.733-36.874,11.733
	s1.706,46.605,0,62.015c-1.37,12.377-7.259,36.696-10.895,48.606c-2.692,8.819-13.409,34.36-13.409,34.36
	s56.873,10.683,72.071,21.789c13.138,9.6,36.874,53.635,36.874,53.635s36.637,19.237,49.444,24.303
	c7.334,2.901,22.587,7.05,30.169,9.218c6.254,1.789,20.222,2.448,25.141,6.704c2.413,2.088,6.425,8.863,5.028,11.733
	c-6.074,12.473-40.354,10.233-53.635,14.247c-22.451,6.786-65.418,28.813-88.832,30.169
	c-37.416,2.167-127.757-24.181-165.189-26.042c-26.031-1.295-60.614,12.449-86.223,7.605C133.13,396.202,0,344.976,0,344.976L0,0
	L471.721,0z"/>
<path opacity="0.1" fill="#E3D3CE" d="M1245.175,0c0,0-73.964,22.672-98.515,40.525c-33.699,24.504-18.916,71.839-32.005,89.162
	c-22.67,30.005-57.178,39.003-72.678,38.673c-62.676-1.334-102.683,43.061-65.344,79.374
	c99.442,96.708,173.813,79.702,230.477,76.317c29.981-1.791,72.798,21.003,72.798,21.003L1279.962,0H1245.175z"/>
<path opacity="0.5" fill="#F4EFED" d="M180.243,733.304c0.398-1.939,14.446-13.528,30.788-13.528c7.697,0,10.936,4.914,10.936,4.914
	l1.659,4.882c0,0,10.769-2.925,14.461-3.032c3.536-0.102,13.995,2.099,13.995,2.099h2.332c0,0-3.479-9.262-2.332-12.129
	c1.117-2.795,9.796-6.997,9.796-6.997s-1.866-14.694,2.799-24.724c11.845-25.467,19.758-29.217,29.855-34.987
	c11.429-6.531,27.989-6.531,27.989-6.531s-1.299-6.747,0-8.397c2.152-2.734,10.071-3.659,13.528-3.265
	c6.478,0.738,23.325,11.662,23.325,11.662s0.233-10.752,7.93-12.937c14.679-4.168,18.794,4.852,19.826,8.739
	c2.168,8.168,2.099,11.196,2.099,11.196s17.336-10.357,39.652-0.466c20.526,9.097,19.126,35.92,19.126,35.92
	s18.843-4.339,29.389,13.062c9.33,15.394,1.942,26.111,0,34.52c-0.499,2.159,0,8.863,0,8.863s24.18-0.793,32.188,0
	c9.468,0.938,28.493,3.912,37.319,7.464c7.443,2.996,27.056,17.26,27.056,17.26s10.263-7.231,30.322,0
	c4.961,1.788,12.926,9.124,17.26,12.129c2.206,1.53,6.396,5.006,8.863,6.064c6.685,2.866,21.952,4.013,27.756,8.397
	c2.041,1.542,5.931,4.658,4.898,6.997c-2.726,6.174-18.992,7.334-25.657,8.397c-7.025,1.12-28.456,0-28.456,0
	s-60.77,13.267-79.303,6.064c-2.384-0.926-4.726-6.287-6.997-7.464c-22.417-11.618-78.037,10.508-100.995,0
	c-1.541-0.705-5.006-3.536-4.432-5.131c2.603-7.234,22.769-3.694,30.322-5.131c6.089-1.159,24.258-5.131,24.258-5.131
	s-4.2-4.448-6.064-5.131c-8.323-3.049-25.504-3.069-34.365-3.265c-47.267-1.05-174.298-4.501-189.395-9.019
	c-8.483-2.539-21.86-12.296-27.678-18.971c-2.721-3.122-8.863-13.995-8.863-13.995s-4.531-0.91-6.064-0.933
	c-4.083-0.062-12.79,1.574-16.327-0.466C181.41,739.36,179.865,735.149,180.243,733.304z"/>
<path opacity="0.8" fill="#E1DBE1" d="M604.261,766.891c-20.059-7.231-30.322,0-30.322,0s-19.613-14.265-27.056-17.26
	c-8.827-3.552-27.851-6.526-37.319-7.464c-8.008-0.793-32.188,0-32.188,0s-0.499-6.704,0-8.863c1.942-8.409,9.33-19.126,0-34.52
	c-10.546-17.401-29.389-13.062-29.389-13.062s1.399-26.823-19.126-35.92c-22.316-9.89-39.652,0.466-39.652,0.466
	s0.069-3.028-2.099-11.196c-1.032-3.887-5.147-12.907-19.826-8.739c-7.697,2.186-7.93,12.937-7.93,12.937
	s-16.847-10.924-23.325-11.662c-3.457-0.394-11.376,0.532-13.528,3.265c0,0,9.47-0.114,12.462,0.777
	c3.771,1.123,10.381,5.636,13.684,7.775c2.428,1.572,14.617,11.196,14.617,11.196s-3.039-9.743,5.598-15.55
	c1.941-1.305,3.984,0.795,5.598,2.488c3.173,3.327,5.244,12.866,5.909,17.416c0.304,2.079-0.311,8.397-0.311,8.397
	s5.439-6.535,7.775-8.086c2.707-1.797,8.892-4.947,12.129-4.665c6.318,0.55,17.711,8.171,21.749,13.062
	c4.48,5.426,8.537,19.489,9.662,26.434c0.423,2.611,1.294,8.472-0.311,10.574c-1.135,1.485-7.153,2.177-7.153,2.177
	s-1.394-4.889-2.198-6.22c-1.78-2.947-4.998-8.772-7.443-11.196c-3.409-3.379-12.7-7.189-17.416-8.086
	c-3.902-0.742-12.293-0.814-15.861,0.933c-0.742,0.363-2.177,2.488-2.177,2.488s5.578,2.975,7.153,4.354
	c3.91,3.423,11.024,11.391,13.062,16.172c1.936,4.542,2.33,14.658,2.488,19.593c0.04,1.246-0.311,4.976-0.311,4.976
	s5.739-3.066,7.153-4.665c2.695-3.048,3.356-13.157,7.153-14.617c1.559-0.599,4.923,1.411,6.199,2.488
	c3.416,2.883,7.844,11.03,9.351,15.239c0.767,2.143,1.164,6.744,1.244,9.019c0.041,1.168-0.311,4.665-0.311,4.665
	s2.712-1.703,3.421-2.488c1.449-1.602,3.599-10.483,4.354-10.885c3.313-1.761,9.656,5.881,12.44,8.397
	c2.253,2.036,5.312,7.555,7.775,9.33c3.116,2.246,10.476,5.889,14.306,5.598c1.702-0.129,4.248-3.028,5.909-3.421
	c8.793-2.08,27.366-0.227,36.075,2.177c4.559,1.258,12.734,6.282,16.794,8.708c5.091,3.042,14.333,10.633,19.593,13.373
	c2.728,1.421,8.481,3.801,11.507,4.354c2.83,0.517,8.63,0,11.507,0c3.343,0,10.075-0.551,13.373,0
	c5.239,0.876,15.066,5.191,20.092,6.91c4.293,1.468,13.495,8.483,17.184,5.841c1.495-1.071,0-7.358,0-7.358L604.261,766.891z"/>
<path opacity="0.1" fill="#E1DBE1" d="M574.912,281.595c0,0,9.159-8.27,12.985-9.522c3.085-1.01,12.985,0,12.985,0
	s9.487-2.499,11.687-4.761c1.289-1.326,1.077-5.872,2.597-6.925c2.935-2.034,10.89-1.111,14.284,0
	c1.913,0.626,6.493,4.761,6.493,4.761s1.431-4.069,2.597-4.761c2.14-1.27,7.466,0,9.955,0c2.922,0,11.687,0,11.687,0
	s-1.672-8.401,0-10.388c3.252-3.867,14.877-3.028,19.911-3.463c1.509-0.13,6.06,0,6.06,0s-2.372-11.046,0-13.418
	s10.083-0.36,13.418,0c6.056,0.653,17.746,7.214,17.746,7.214s7.884-5.445,10.965-5.771c1.507-0.16,8.231,0.684,8.945,2.02
	c1.289,2.408-6.683,5.038-8.657,6.925c-4.385,4.194-8.005,12.222-13.851,13.851c-4.17,1.162-17.314,0-17.314,0l-23.373,5.627
	c0,0-5.697,3.068-7.791,3.463c-4.684,0.883-14.296-1.266-19.045-0.866c-3.584,0.302-10.347,3.08-13.851,3.896
	c-5.788,1.347-17.519,3.306-23.373,4.328c-3.673,0.642-14.717,2.417-14.717,2.417s-13.613,7.417-18.612,8.505
	c-1.697,0.369-6.485,1.674-6.948,0C569.288,283.26,574.912,281.595,574.912,281.595z"/>
</svg>
