<?xml version="1.0" encoding="utf-8"?>
<!-- Generator: Adobe Illustrator 17.0.0, SVG Export Plug-In . SVG Version: 6.00 Build 0)  -->
<!DOCTYPE svg PUBLIC "-//W3C//DTD SVG 1.1//EN" "http://www.w3.org/Graphics/SVG/1.1/DTD/svg11.dtd">
<svg version="1.1" id="Layer_1" xmlns="http://www.w3.org/2000/svg" xmlns:xlink="http://www.w3.org/1999/xlink" x="0px" y="0px"
	 width="1280px" height="539.1px" viewBox="0 0 1280 539.1" enable-background="new 0 0 1280 539.1" xml:space="preserve">
<linearGradient id="SVGID_1_" gradientUnits="userSpaceOnUse" x1="640" y1="540" x2="640" y2="78.5274">
	<stop  offset="0.5874" style="stop-color:#00A89A"/>
	<stop  offset="0.7778" style="stop-color:#2FB2A7"/>
	<stop  offset="1" style="stop-color:#5BC4BF"/>
</linearGradient>
<path fill="url(#SVGID_1_)" d="M-1,129c0,0,24.2-7.8,39.8-9.5c12.9-1.4,39.6,0.2,51.8-4.1c3.7-1.3,8.9-8.1,12.8-8.8
	c6.2-1.1,18.3,4.9,24.4,6.4c12.6,3.1,37.9,9,50.6,11.7c9.3,2,28.5,3.9,37.2,7.6c2.4,1,6.1,5,8.5,5.9c15.7,5.4,49.8,4.9,66.5,4.7
	c49.9-0.5,149.6-10.2,198.9-18.2c22.9-3.7,68.1-14.6,90.3-21.1c18-5.3,70.8-25.2,70.8-25.2h69.5l17.1,4.1l11.6-4.1l17.7,8.8
	l52.5,13.5l69.5,10l20.7-7.6l21.3,0.6l46.4,11.1c0,0,53.2-1.8,79.9,2.6c13.2,2.2,62.5,11,75.9,11.8c16.4,1.1,44.7,4.7,61.2,4.7
	c5,0,23.3,1.1,28.3,1.4c19.4,1.1,58.7-6.4,58.7-6.4v411H-1V129z"/>
<g opacity="0.2">
	
		<linearGradient id="SVGID_2_" gradientUnits="userSpaceOnUse" x1="-7818.6045" y1="-3379.9614" x2="-7840.8345" y2="-3354.241" gradientTransform="matrix(-0.7566 -0.6539 -0.6539 0.7566 -7050.3721 -2443.3459)">
		<stop  offset="0.615" style="stop-color:#007C74"/>
		<stop  offset="0.6952" style="stop-color:#00867F"/>
		<stop  offset="0.8519" style="stop-color:#34A39C"/>
		<stop  offset="1" style="stop-color:#5BC4BF"/>
	</linearGradient>
	<path fill="url(#SVGID_2_)" d="M1069.5,142.6c-2.8-0.7-5.6-1.4-8-1.8c0.8-1,0.7-2.8,1.6-3.8c-1-0.8-2.6-2.2-3.2-2.8
		c-4.4,1.8-13,9.8-13.3,1.6c0.3-4.3,7.4-11.8,10.8-14.5c6-5,28-16,32.6-3.6c-8.1-2.5-22.7,1.3-27.3,8.7c6.4-3.5,16.4-4.5,23.6-5.1
		c3.9-0.6,9.6-1.3,11.7,2.2c2.4,4.4-2.3,9.9-6.3,9.9c6.1-3.8,21.3,8.2,5.1,11.8c-9.3,2.2-17.7-0.5-26.9-2.3"/>
</g>
<g>
	<g opacity="0.2">
		<g>
			
				<linearGradient id="SVGID_3_" gradientUnits="userSpaceOnUse" x1="984.4059" y1="-2267.6104" x2="965.0534" y2="-2289.1494" gradientTransform="matrix(0.8596 0.511 -0.511 0.8596 -1648.1422 1642.1896)">
				<stop  offset="0.615" style="stop-color:#007C74"/>
				<stop  offset="0.6952" style="stop-color:#00867F"/>
				<stop  offset="0.8519" style="stop-color:#34A39C"/>
				<stop  offset="1" style="stop-color:#5BC4BF"/>
			</linearGradient>
			<path fill="url(#SVGID_3_)" d="M379.2,171.9c-7.8-10.7-23.3,4-31.2,12c2.6-5.9,6.5-10.1,9.4-15.8c-4-0.6-7.3,2.7-10.3,4.8
				c1.1-5.5-3.6-4.3-6.4-2.5c-2.8,1.8-4.9,6.7-6.4,9.3c-2.6,5.9-6.8,15.2-3.6,21.4c5-10.6,30.3-21.8,41.4-22.6
				C379.7,178.1,380.6,173.9,379.2,171.9z"/>
		</g>
		<g>
			
				<linearGradient id="SVGID_4_" gradientUnits="userSpaceOnUse" x1="686.4708" y1="-641.6028" x2="664.7297" y2="-665.8004" gradientTransform="matrix(0.9784 0.2069 -0.2069 0.9784 -476.2548 668.9868)">
				<stop  offset="0.615" style="stop-color:#007C74"/>
				<stop  offset="0.6952" style="stop-color:#00867F"/>
				<stop  offset="0.8519" style="stop-color:#34A39C"/>
				<stop  offset="1" style="stop-color:#5BC4BF"/>
			</linearGradient>
			<path fill="url(#SVGID_4_)" d="M305.6,162.7c-4.2,3.3-1,10.1,1.3,13.7c-1.6-1.5-5.7-3.9-7.9-2.4c-3.8,1.9,2.1,6.2,4.8,8.3
				c2.3,2,17.6,9.5,11.9,1.7c6.7,10.2,15.8-7.4,15.5-13.6c7.4,1.2,7.6-12.2,5.9-16.8c-3.3-9.9-13.9,2.1-18.1,7.7
				c-1.1-5.6-4.3-10.5-8.7-4.1"/>
		</g>
	</g>
	<g>
		<g>
			
				<linearGradient id="SVGID_5_" gradientUnits="userSpaceOnUse" x1="984.5107" y1="-2265.3477" x2="965.1581" y2="-2286.8867" gradientTransform="matrix(0.8596 0.511 -0.511 0.8596 -1648.1422 1642.1896)">
				<stop  offset="0.5134" style="stop-color:#43BEAD"/>
				<stop  offset="0.7379" style="stop-color:#58BCAE"/>
				<stop  offset="1" style="stop-color:#70BDB2"/>
			</linearGradient>
			<path fill="url(#SVGID_5_)" d="M378.1,173.9c-7.8-10.7-23.3,4-31.2,12c2.6-5.9,6.5-10.1,9.4-15.8c-4-0.6-7.3,2.7-10.3,4.8
				c1.1-5.5-3.6-4.3-6.4-2.5c-2.8,1.8-4.9,6.7-6.4,9.3c-2.6,5.9-6.8,15.2-3.6,21.4c5-10.6,30.3-21.8,41.4-22.6
				C378.6,180.1,379.5,175.9,378.1,173.9z"/>
		</g>
		<g>
			
				<linearGradient id="SVGID_6_" gradientUnits="userSpaceOnUse" x1="685.8411" y1="-639.427" x2="664.1001" y2="-663.6245" gradientTransform="matrix(0.9784 0.2069 -0.2069 0.9784 -476.2548 668.9868)">
				<stop  offset="0.5134" style="stop-color:#43BEAD"/>
				<stop  offset="0.7379" style="stop-color:#58BCAE"/>
				<stop  offset="1" style="stop-color:#70BDB2"/>
			</linearGradient>
			<path fill="url(#SVGID_6_)" d="M304.5,164.7c-4.2,3.3-1,10.1,1.3,13.7c-1.6-1.5-5.7-3.9-7.9-2.4c-3.8,1.9,2.1,6.2,4.8,8.3
				c2.3,2,17.6,9.5,11.9,1.7c6.7,10.2,15.8-7.4,15.5-13.6c7.4,1.2,7.6-12.2,5.9-16.8c-3.3-9.9-13.9,2.1-18.1,7.7
				c-1.1-5.6-4.3-10.5-8.7-4.1"/>
		</g>
	</g>
</g>
<g>
	<g opacity="0.2">
		<g>
			<linearGradient id="SVGID_7_" gradientUnits="userSpaceOnUse" x1="696.1905" y1="198.5753" x2="722.5464" y2="198.5753">
				<stop  offset="0.615" style="stop-color:#007C74"/>
				<stop  offset="0.6952" style="stop-color:#00867F"/>
				<stop  offset="0.8519" style="stop-color:#34A39C"/>
				<stop  offset="1" style="stop-color:#5BC4BF"/>
			</linearGradient>
			<path fill="url(#SVGID_7_)" d="M709.3,192.7c-4.5,0.8-9.4,5.3-8.6,10.1c-3.4-5.3-6.4,2.3-3,6.4c3.8,4.9,7.1,3.4,11.6,0
				c6.8-4.5,15.4-15.8,12.8-24.4c-2.6,1.1-4.9,3.8-6.4,6"/>
		</g>
		<g>
			<linearGradient id="SVGID_8_" gradientUnits="userSpaceOnUse" x1="741.7597" y1="183.5503" x2="791.5931" y2="183.5503">
				<stop  offset="0.615" style="stop-color:#007C74"/>
				<stop  offset="0.6952" style="stop-color:#00867F"/>
				<stop  offset="0.8519" style="stop-color:#34A39C"/>
				<stop  offset="1" style="stop-color:#5BC4BF"/>
			</linearGradient>
			<path fill="url(#SVGID_8_)" d="M750.7,177.9c-4.9,2.7-10.3,9-8.5,14.4c0.4,0,0.9,0,1.8,0c-0.9,2.2-1.8,4.9-1.3,7.2
				c9-4.5,11.7-20.2,26.1-15.7c0,0.9-0.4,1.3-0.4,2.2c7.6-0.9,16.6-10.3,23.4-13.9c-6.3-8.1-19.8-3.6-26.1,2.2
				c-3.6-3.6-8.5-1.3-11.7,1.8"/>
		</g>
		<g>
			<linearGradient id="SVGID_9_" gradientUnits="userSpaceOnUse" x1="770.4519" y1="180.5633" x2="821.2807" y2="180.5633">
				<stop  offset="0.615" style="stop-color:#007C74"/>
				<stop  offset="0.6952" style="stop-color:#00867F"/>
				<stop  offset="0.8519" style="stop-color:#34A39C"/>
				<stop  offset="1" style="stop-color:#5BC4BF"/>
			</linearGradient>
			<path fill="url(#SVGID_9_)" d="M773.2,187.8c-1.3,3.1-2.2,6.3-2.7,9c5.4-1.8,9-4.5,13.9-6.3c5.4-2.7,10.8-6.7,16.6-9.4
				c3.1-1.3,8.5-2.7,11.7-4.5c2.7-2.2,6.3-8.1,8.5-12.1c-5.4-0.4-5.8,6.3-10.3,7.6c-4,1.3-7.2-3.6-11.2,2.2
				c-7.2-8.1-17.5,6.3-21.6,10.8"/>
		</g>
		<g>
			<linearGradient id="SVGID_10_" gradientUnits="userSpaceOnUse" x1="828.2103" y1="139.5271" x2="889.2023" y2="139.5271">
				<stop  offset="0.615" style="stop-color:#007C74"/>
				<stop  offset="0.6952" style="stop-color:#00867F"/>
				<stop  offset="0.8519" style="stop-color:#34A39C"/>
				<stop  offset="1" style="stop-color:#5BC4BF"/>
			</linearGradient>
			<path fill="url(#SVGID_10_)" d="M850.1,135.1c1.3-1.8,2.7-5.4,1.8-7.6c-2.7-5.4-4,0.4-7.6,1.8c-2.2,0.9-3.1-1.3-6.3,0.9
				c-3.1,1.8-5.4,7.6-6.7,10.8c-3.1,7.2-3.6,14.8-2.2,22.5c5.8-6.7,25.6-29.2,36.4-18c7.2-11.2,13.9-21.1,23.8-29.7
				c-4.9-1.3-9.4,3.6-13,6.7c-0.9-17.1-21.1,12.1-22.9,16.6c1.3-2.2-0.9-2.2-1.3-3.6"/>
		</g>
	</g>
	<g>
		<g>
			<linearGradient id="SVGID_11_" gradientUnits="userSpaceOnUse" x1="693.4092" y1="200.7897" x2="719.7652" y2="200.7897">
				<stop  offset="0.5134" style="stop-color:#43BEAD"/>
				<stop  offset="0.7379" style="stop-color:#58BCAE"/>
				<stop  offset="1" style="stop-color:#70BDB2"/>
			</linearGradient>
			<path fill="url(#SVGID_11_)" d="M706.5,194.9c-4.5,0.8-9.4,5.3-8.6,10.1c-3.4-5.3-6.4,2.3-3,6.4c3.8,4.9,7.1,3.4,11.6,0
				c6.8-4.5,15.4-15.8,12.8-24.4c-2.6,1.1-4.9,3.8-6.4,6"/>
		</g>
		<g>
			<linearGradient id="SVGID_12_" gradientUnits="userSpaceOnUse" x1="738.9785" y1="185.7646" x2="788.8118" y2="185.7646">
				<stop  offset="0.5134" style="stop-color:#43BEAD"/>
				<stop  offset="0.7379" style="stop-color:#58BCAE"/>
				<stop  offset="1" style="stop-color:#70BDB2"/>
			</linearGradient>
			<path fill="url(#SVGID_12_)" d="M747.9,180.1c-4.9,2.7-10.3,9-8.5,14.4c0.4,0,0.9,0,1.8,0c-0.9,2.2-1.8,4.9-1.3,7.2
				c9-4.5,11.7-20.2,26.1-15.7c0,0.9-0.4,1.3-0.4,2.2c7.6-0.9,16.6-10.3,23.4-13.9c-6.3-8.1-19.8-3.6-26.1,2.2
				c-3.6-3.6-8.5-1.3-11.7,1.8"/>
		</g>
		<g>
			<linearGradient id="SVGID_13_" gradientUnits="userSpaceOnUse" x1="767.6707" y1="182.7776" x2="818.4995" y2="182.7776">
				<stop  offset="0.5134" style="stop-color:#43BEAD"/>
				<stop  offset="0.7379" style="stop-color:#58BCAE"/>
				<stop  offset="1" style="stop-color:#70BDB2"/>
			</linearGradient>
			<path fill="url(#SVGID_13_)" d="M770.4,190c-1.3,3.1-2.2,6.3-2.7,9c5.4-1.8,9-4.5,13.9-6.3c5.4-2.7,10.8-6.7,16.6-9.4
				c3.1-1.3,8.5-2.7,11.7-4.5c2.7-2.2,6.3-8.1,8.5-12.1c-5.4-0.4-5.8,6.3-10.3,7.6c-4,1.3-7.2-3.6-11.2,2.2
				c-7.2-8.1-17.5,6.3-21.6,10.8"/>
		</g>
		<g>
			<linearGradient id="SVGID_14_" gradientUnits="userSpaceOnUse" x1="825.429" y1="141.7414" x2="886.4211" y2="141.7414">
				<stop  offset="0.5134" style="stop-color:#43BEAD"/>
				<stop  offset="0.7379" style="stop-color:#58BCAE"/>
				<stop  offset="1" style="stop-color:#70BDB2"/>
			</linearGradient>
			<path fill="url(#SVGID_14_)" d="M847.3,137.4c1.3-1.8,2.7-5.4,1.8-7.6c-2.7-5.4-4,0.4-7.6,1.8c-2.2,0.9-3.1-1.3-6.3,0.9
				c-3.1,1.8-5.4,7.6-6.7,10.8c-3.1,7.2-3.6,14.8-2.2,22.5c5.8-6.7,25.6-29.2,36.4-18c7.2-11.2,13.9-21.1,23.8-29.7
				c-4.9-1.3-9.4,3.6-13,6.7c-0.9-17.1-21.1,12.1-22.9,16.6c1.3-2.2-0.9-2.2-1.3-3.6"/>
		</g>
	</g>
</g>
<g>
	<g opacity="0.2">
		<g>
			
				<linearGradient id="SVGID_15_" gradientUnits="userSpaceOnUse" x1="1359.7275" y1="-809.2063" x2="1341.5698" y2="-829.4155" gradientTransform="matrix(0.9784 0.2069 -0.2069 0.9784 -476.2548 668.9868)">
				<stop  offset="0.615" style="stop-color:#007C74"/>
				<stop  offset="0.6952" style="stop-color:#00867F"/>
				<stop  offset="0.8519" style="stop-color:#34A39C"/>
				<stop  offset="1" style="stop-color:#5BC4BF"/>
			</linearGradient>
			<path fill="url(#SVGID_15_)" d="M1041,141.9c-2.6-7.5-10.1-12.1-17.8-12.2c-11.4-0.5-15.6,6.7-20.8,15.2c-3.5-8.8-6.1,3.7-6.8,7
				c-0.9,4.4-2.5,9.8,0.3,13.1c4.7-7.8,9.5-16,19.6-18.1c5.9-0.7,18.4,5.4,22.1,2.4"/>
		</g>
		<g>
			
				<linearGradient id="SVGID_16_" gradientUnits="userSpaceOnUse" x1="1337.223" y1="-804.7516" x2="1317.8705" y2="-826.2906" gradientTransform="matrix(0.9784 0.2069 -0.2069 0.9784 -476.2548 668.9868)">
				<stop  offset="0.615" style="stop-color:#007C74"/>
				<stop  offset="0.6952" style="stop-color:#00867F"/>
				<stop  offset="0.8519" style="stop-color:#34A39C"/>
				<stop  offset="1" style="stop-color:#5BC4BF"/>
			</linearGradient>
			<path fill="url(#SVGID_16_)" d="M1012.1,128.2c-13.2-0.9-20.8,11.3-25.6,21.4c0.6-6.4,2.9-11.7,3.8-18c-4,0.7-6,4.9-8.2,7.9
				c-0.7-5.5-4.8-2.9-6.8-0.3c-2.1,2.6-2.4,7.9-3.1,10.9c-0.6,6.4-1.6,16.5,3.5,21.5c1.3-11.6,20.9-33.6,31.9-34.7"/>
		</g>
		<g>
			
				<linearGradient id="SVGID_17_" gradientUnits="userSpaceOnUse" x1="1305.4326" y1="-826.4843" x2="1294.3301" y2="-838.8412" gradientTransform="matrix(0.9784 0.2069 -0.2069 0.9784 -476.2548 668.9868)">
				<stop  offset="0.615" style="stop-color:#007C74"/>
				<stop  offset="0.6952" style="stop-color:#00867F"/>
				<stop  offset="0.8519" style="stop-color:#34A39C"/>
				<stop  offset="1" style="stop-color:#5BC4BF"/>
			</linearGradient>
			<path fill="url(#SVGID_17_)" d="M987.3,118.3c-10.1-10.2-41.9,0.3-35.6,15.9c2.1-0.7,3.8-1.5,4.2-3.7
				c-2.7,10.9,11.8-1.3,13.8-3.6c2.9-2.8,4.3-4.1,8.6-4.3c2.7-0.2,4.8,2.9,6.6-0.1"/>
		</g>
		<g>
			
				<linearGradient id="SVGID_18_" gradientUnits="userSpaceOnUse" x1="1282.5704" y1="-835.9216" x2="1278.0754" y2="-840.9245" gradientTransform="matrix(0.9784 0.2069 -0.2069 0.9784 -476.2548 668.9868)">
				<stop  offset="0.615" style="stop-color:#007C74"/>
				<stop  offset="0.6952" style="stop-color:#00867F"/>
				<stop  offset="0.8519" style="stop-color:#34A39C"/>
				<stop  offset="1" style="stop-color:#5BC4BF"/>
			</linearGradient>
			<path fill="url(#SVGID_18_)" d="M963.3,108.3c-6.4-0.6-27.7,4.1-24.9,14.3c4.9-1.6,10.4-3.9,14.2-7.4"/>
		</g>
		<g>
			
				<linearGradient id="SVGID_19_" gradientUnits="userSpaceOnUse" x1="1303.7242" y1="-808.4103" x2="1281.9832" y2="-832.6078" gradientTransform="matrix(0.9784 0.2069 -0.2069 0.9784 -476.2548 668.9868)">
				<stop  offset="0.615" style="stop-color:#007C74"/>
				<stop  offset="0.6952" style="stop-color:#00867F"/>
				<stop  offset="0.8519" style="stop-color:#34A39C"/>
				<stop  offset="1" style="stop-color:#5BC4BF"/>
			</linearGradient>
			<path fill="url(#SVGID_19_)" d="M944,127.2c-4.2,3.3-1,10.1,1.3,13.7c-1.6-1.5-5.7-3.9-7.9-2.4c-3.8,1.9,2.1,6.2,4.8,8.3
				c2.3,2,17.6,9.5,11.9,1.7c6.7,10.2,15.8-7.4,15.5-13.6c7.4,1.2,7.6-12.2,5.9-16.8c-3.3-9.9-13.9,2.1-18.1,7.7
				c-1.1-5.6-4.3-10.5-8.7-4.1"/>
		</g>
	</g>
	<g>
		<g>
			
				<linearGradient id="SVGID_20_" gradientUnits="userSpaceOnUse" x1="1359.3904" y1="-807.9524" x2="1341.2325" y2="-828.1616" gradientTransform="matrix(0.9784 0.2069 -0.2069 0.9784 -476.2548 668.9868)">
				<stop  offset="7.108977e-02" style="stop-color:#43BEAD"/>
				<stop  offset="0.4997" style="stop-color:#58BCAE"/>
				<stop  offset="1" style="stop-color:#70BDB2"/>
			</linearGradient>
			<path fill="url(#SVGID_20_)" d="M1040.4,143.1c-2.6-7.5-10.1-12.1-17.8-12.2c-11.4-0.5-15.6,6.7-20.8,15.2
				c-3.5-8.8-6.1,3.7-6.8,7c-0.9,4.4-2.5,9.8,0.3,13.1c4.7-7.8,9.5-16,19.6-18.1c5.9-0.7,18.4,5.4,22.1,2.4"/>
		</g>
		<g>
			
				<linearGradient id="SVGID_21_" gradientUnits="userSpaceOnUse" x1="1336.8857" y1="-803.4977" x2="1317.5332" y2="-825.0367" gradientTransform="matrix(0.9784 0.2069 -0.2069 0.9784 -476.2548 668.9868)">
				<stop  offset="7.108977e-02" style="stop-color:#43BEAD"/>
				<stop  offset="0.4997" style="stop-color:#58BCAE"/>
				<stop  offset="1" style="stop-color:#70BDB2"/>
			</linearGradient>
			<path fill="url(#SVGID_21_)" d="M1011.5,129.3c-13.2-0.9-20.8,11.3-25.6,21.4c0.6-6.4,2.9-11.7,3.8-18c-4,0.7-6,4.9-8.2,7.9
				c-0.7-5.5-4.8-2.9-6.8-0.3c-2.1,2.6-2.4,7.9-3.1,10.9c-0.6,6.4-1.6,16.5,3.5,21.5c1.3-11.6,20.9-33.6,31.9-34.7"/>
		</g>
		<g>
			
				<linearGradient id="SVGID_22_" gradientUnits="userSpaceOnUse" x1="1305.0955" y1="-825.2304" x2="1293.9929" y2="-837.5873" gradientTransform="matrix(0.9784 0.2069 -0.2069 0.9784 -476.2548 668.9868)">
				<stop  offset="7.108977e-02" style="stop-color:#43BEAD"/>
				<stop  offset="0.4997" style="stop-color:#58BCAE"/>
				<stop  offset="1" style="stop-color:#70BDB2"/>
			</linearGradient>
			<path fill="url(#SVGID_22_)" d="M986.7,119.5c-10.1-10.2-41.9,0.3-35.6,15.9c2.1-0.7,3.8-1.5,4.2-3.7
				c-2.7,10.9,11.8-1.3,13.8-3.6c2.9-2.8,4.3-4.1,8.6-4.3c2.7-0.2,4.8,2.9,6.6-0.1"/>
		</g>
		<g>
			
				<linearGradient id="SVGID_23_" gradientUnits="userSpaceOnUse" x1="1282.2333" y1="-834.6677" x2="1277.7382" y2="-839.6706" gradientTransform="matrix(0.9784 0.2069 -0.2069 0.9784 -476.2548 668.9868)">
				<stop  offset="7.108977e-02" style="stop-color:#43BEAD"/>
				<stop  offset="0.4997" style="stop-color:#58BCAE"/>
				<stop  offset="1" style="stop-color:#70BDB2"/>
			</linearGradient>
			<path fill="url(#SVGID_23_)" d="M962.7,109.4c-6.4-0.6-27.7,4.1-24.9,14.3c4.9-1.6,10.4-3.9,14.2-7.4"/>
		</g>
		<g>
			
				<linearGradient id="SVGID_24_" gradientUnits="userSpaceOnUse" x1="1303.387" y1="-807.1564" x2="1281.6459" y2="-831.3539" gradientTransform="matrix(0.9784 0.2069 -0.2069 0.9784 -476.2548 668.9868)">
				<stop  offset="7.108977e-02" style="stop-color:#43BEAD"/>
				<stop  offset="0.4997" style="stop-color:#58BCAE"/>
				<stop  offset="1" style="stop-color:#70BDB2"/>
			</linearGradient>
			<path fill="url(#SVGID_24_)" d="M943.4,128.3c-4.2,3.3-1,10.1,1.3,13.7c-1.6-1.5-5.7-3.9-7.9-2.4c-3.8,1.9,2.1,6.2,4.8,8.3
				c2.3,2,17.6,9.5,11.9,1.7c6.7,10.2,15.8-7.4,15.5-13.6c7.4,1.2,7.6-12.2,5.9-16.8c-3.3-9.9-13.9,2.1-18.1,7.7
				c-1.1-5.6-4.3-10.5-8.7-4.1"/>
		</g>
	</g>
</g>
<g>
	
		<linearGradient id="SVGID_25_" gradientUnits="userSpaceOnUse" x1="-7818.9155" y1="-3378.7007" x2="-7841.145" y2="-3352.9802" gradientTransform="matrix(-0.7566 -0.6539 -0.6539 0.7566 -7050.3721 -2443.3459)">
		<stop  offset="7.108977e-02" style="stop-color:#43BEAD"/>
		<stop  offset="0.4997" style="stop-color:#58BCAE"/>
		<stop  offset="1" style="stop-color:#70BDB2"/>
	</linearGradient>
	<path fill="url(#SVGID_25_)" d="M1068.9,143.8c-2.8-0.7-5.6-1.4-8-1.8c0.8-1,0.7-2.8,1.6-3.8c-1-0.8-2.6-2.2-3.2-2.8
		c-4.4,1.8-13,9.8-13.3,1.6c0.3-4.3,7.4-11.8,10.8-14.5c6-5,28-16,32.6-3.6c2.8,0.1,5.9,2.3,8,5.8c2.4,4.4-2.3,9.9-6.3,9.9
		c6.1-3.8,21.3,8.2,5.1,11.8c-9.3,2.2-17.7-0.5-26.9-2.3"/>
</g>
<g>
	<g opacity="0.2">
		<linearGradient id="SVGID_26_" gradientUnits="userSpaceOnUse" x1="722.0112" y1="90.8979" x2="722.0112" y2="176.7352">
			<stop  offset="0.615" style="stop-color:#007C74"/>
			<stop  offset="0.6952" style="stop-color:#00867F"/>
			<stop  offset="0.8519" style="stop-color:#34A39C"/>
			<stop  offset="1" style="stop-color:#5BC4BF"/>
		</linearGradient>
		<path fill="url(#SVGID_26_)" d="M713,118.6c4.5,6.5,9.5,12,13.5,18.5c0.5-14-0.5-34.6-12-44.1c2.5,1.8,0.5-4.8,3.1-0.9
			c3,4.6,10.4,19.9,11,23.4c3-6,5.5-14,9.5-19.5c0,8.5-4.5,12-7,20c-2.5,7.5-0.5,16,1,24.1c1.5,7,7,32.1-1.5,36.6
			c1-9.5,0-23.6-3-33.1c-3.5-10.5-15-18.5-21.5-27.6c0.5,0,1.5,0.5,2,1"/>
	</g>
	<g opacity="0.2">
		<linearGradient id="SVGID_27_" gradientUnits="userSpaceOnUse" x1="719.8585" y1="112.6787" x2="719.8585" y2="35.5203">
			<stop  offset="0.615" style="stop-color:#007C74"/>
			<stop  offset="0.6952" style="stop-color:#00867F"/>
			<stop  offset="0.8519" style="stop-color:#34A39C"/>
			<stop  offset="1" style="stop-color:#5BC4BF"/>
		</linearGradient>
		<path fill="url(#SVGID_27_)" d="M717.6,42.4c-6-4.5-8.5-7-13.5-1.5c-3,3-5.5,12-6,16.5c-4.5-10-12,4-12.5,8.5c-1,11.5,6,8,11,14.5
			c-7.5-5-10,1.5-11,7.5c-1,6.5,1,10.5,3.5,16.5c3.5,8,5.5,11.5,11.5,4c3-4,7.5-10.5,8.5-15c17,2.5,29.6-25.1,36.6-36.6
			c1.5-3,10-14.5,8.5-17c-2.5-4-13-1.5-15,1.5c-4.5-5.5-18-7-24.6-5c3,4.5,4,9.5,4.5,15c-1-2-2.5-3.5-3.5-5"/>
	</g>
	<g opacity="0.2">
		<linearGradient id="SVGID_28_" gradientUnits="userSpaceOnUse" x1="756.8804" y1="105.7255" x2="756.8804" y2="46.6719">
			<stop  offset="0.615" style="stop-color:#007C74"/>
			<stop  offset="0.6952" style="stop-color:#00867F"/>
			<stop  offset="0.8519" style="stop-color:#34A39C"/>
			<stop  offset="1" style="stop-color:#5BC4BF"/>
		</linearGradient>
		<path fill="url(#SVGID_28_)" d="M739.4,83.2c3-5.5,6-10.5,10-15c0.5,0,0.5,0.5,1.5,0.5c0.5-9.5,20-26.1,29.6-21
			c-7,18-19,31.1-34.1,43.6c2-2.5,4.5-3.5,7-3.5c0,6-13.5,14.5-18,18c-1.5-6-3-10.5-1.5-16"/>
	</g>
	<g opacity="0.2">
		<linearGradient id="SVGID_29_" gradientUnits="userSpaceOnUse" x1="702.394" y1="135.6943" x2="702.394" y2="90.9143">
			<stop  offset="0.615" style="stop-color:#007C74"/>
			<stop  offset="0.6952" style="stop-color:#00867F"/>
			<stop  offset="0.8519" style="stop-color:#34A39C"/>
			<stop  offset="1" style="stop-color:#5BC4BF"/>
		</linearGradient>
		<path fill="url(#SVGID_29_)" d="M727.2,103.5c-1.9-6.8-16.7-19.2-20.5-8.1c-11.2-10.5-27.9,5-29.1,17.4c5,3.1,9.9,1.2,14.3-1.9
			c-1.9,3.1-6.8,9.3-7.4,13c-1.2,5.6,0,9.9,5.6,3.7c-1.2,2.5-0.6,5.6-1.2,8.1c8.1-4.3,17.4-16.1,20.5-25.4c3.7,3.7,9.3,1.2,13-2.5"
			/>
	</g>
	<g>
		<linearGradient id="SVGID_30_" gradientUnits="userSpaceOnUse" x1="720.473" y1="92.0885" x2="720.473" y2="177.86">
			<stop  offset="0.7191" style="stop-color:#00A89A"/>
			<stop  offset="0.8098" style="stop-color:#21AEA2"/>
		</linearGradient>
		<path fill="url(#SVGID_30_)" d="M711.5,119.7c4.5,6.5,9.5,12,13.5,18.5c0.5-14-0.5-34.6-12-44.1c1.8,1.3,1-3.9,3-1.4
			c4,5.2,10.4,19.5,11.1,23.9c3-6,5.5-14,9.5-19.5c0,8.5-4.5,12-7,20c-2.5,7.5-0.5,16,1,24.1c1.5,7,7,32.1-1.5,36.6
			c1-9.5,0-23.6-3-33.1c-3.5-10.5-15-18.5-21.5-27.6c0.5,0,1.5,0.5,2,1"/>
	</g>
	<g>
		<linearGradient id="SVGID_31_" gradientUnits="userSpaceOnUse" x1="716.1669" y1="115.3535" x2="716.1669" y2="38.1951">
			<stop  offset="0.5134" style="stop-color:#43BEAD"/>
			<stop  offset="0.847" style="stop-color:#53C2B8"/>
			<stop  offset="1" style="stop-color:#5BC4BF"/>
		</linearGradient>
		<path fill="url(#SVGID_31_)" d="M714,45.1c-6-4.5-8.5-7-13.5-1.5c-3,3-5.5,12-6,16.5c-4.5-10-12,4-12.5,8.5c-1,11.5,6,8,11,14.5
			c-7.5-5-10,1.5-11,7.5c-1,6.5,1,10.5,3.5,16.5c3.5,8,5.5,11.5,11.5,4c3-4,7.5-10.5,8.5-15c17,2.5,29.6-25.1,36.6-36.6
			c1.5-3,10-14.5,8.5-17c-2.5-4-13-1.5-15,1.5c-4.5-5.5-18-7-24.6-5c3,4.5,4,9.5,4.5,15c-1-2-2.5-3.5-3.5-5"/>
	</g>
	<g>
		<linearGradient id="SVGID_32_" gradientUnits="userSpaceOnUse" x1="751.982" y1="110.2105" x2="751.982" y2="51.1569">
			<stop  offset="0.5134" style="stop-color:#43BEAD"/>
			<stop  offset="0.847" style="stop-color:#53C2B8"/>
			<stop  offset="1" style="stop-color:#5BC4BF"/>
		</linearGradient>
		<path fill="url(#SVGID_32_)" d="M734.5,87.7c3-5.5,6-10.5,10-15c0.5,0,0.5,0.5,1.5,0.5c0.5-9.5,20-26.1,29.6-21
			c-7,18-19,31.1-34.1,43.6c2-2.5,4.5-3.5,7-3.5c0,6-13.5,14.5-18,18c-1.5-6-3-10.5-1.5-16"/>
	</g>
	<g>
		<linearGradient id="SVGID_33_" gradientUnits="userSpaceOnUse" x1="697.2944" y1="137.7658" x2="697.2944" y2="92.9857">
			<stop  offset="0.5134" style="stop-color:#43BEAD"/>
			<stop  offset="0.847" style="stop-color:#53C2B8"/>
			<stop  offset="1" style="stop-color:#5BC4BF"/>
		</linearGradient>
		<path fill="url(#SVGID_33_)" d="M722.1,105.5c-1.9-6.8-16.7-19.2-20.5-8.1c-11.2-10.5-27.9,5-29.1,17.4c5,3.1,9.9,1.2,14.3-1.9
			c-1.9,3.1-6.8,9.3-7.4,13c-1.2,5.6,0,9.9,5.6,3.7c-1.2,2.5-0.6,5.6-1.2,8.1c8.1-4.3,17.4-16.1,20.5-25.4c3.7,3.7,9.3,1.2,13-2.5"
			/>
	</g>
</g>
<g>
	<g opacity="0.2">
		<linearGradient id="SVGID_34_" gradientUnits="userSpaceOnUse" x1="832.4327" y1="168.9227" x2="832.4327" y2="72.154">
			<stop  offset="0.615" style="stop-color:#007C74"/>
			<stop  offset="0.6952" style="stop-color:#00867F"/>
			<stop  offset="0.8519" style="stop-color:#34A39C"/>
			<stop  offset="1" style="stop-color:#5BC4BF"/>
		</linearGradient>
		<path fill="url(#SVGID_34_)" d="M812.1,92.3c3.4,5.7,10.5,9.6,13.4,15.3c1.9,4.3,1.9,12,2.9,16.8c2.4,14.9-1,30.2,1,44.6
			c4.3-4.8,2.9-21.1,2.9-28.3c-0.5-9.6,0-19.6-0.5-29.2c9.6-4.8,18.7-19.2,22.5-28.7c-6.7,3.8-12.9,13.4-18.7,19.2
			c3.4-10.5,3.4-20.6-2.4-29.7c-1.4,11,2.9,27.3-3.4,37.4c-6.2-7.7-11.5-13.9-19.2-20.1"/>
	</g>
	<g opacity="0.2">
		<linearGradient id="SVGID_35_" gradientUnits="userSpaceOnUse" x1="792.3782" y1="40.7384" x2="861.1829" y2="40.7384">
			<stop  offset="0.615" style="stop-color:#007C74"/>
			<stop  offset="0.6952" style="stop-color:#00867F"/>
			<stop  offset="0.8519" style="stop-color:#34A39C"/>
			<stop  offset="1" style="stop-color:#5BC4BF"/>
		</linearGradient>
		<path fill="url(#SVGID_35_)" d="M836.5,15.8c-1.4-8.6-18.2-25.9-19.6-8.1c-6.7-5.3-16.8-1-19.2,6.7c-1,2.9-0.5,7.7-1.4,11
			c-1,4.3-4.3,9.6-3.8,14.4c1.4,9.1,14.4,15.8,20.6,21.1c6.7,5.3,14.4,12,18.7,19.2c1-2.4,1.4-5.3,2.4-7.7c2.4,2.9,4.8,5.3,5.3,9.1
			c15.8-2.9,19.2-32.6,21.1-45C862.8,20.2,860,6.3,842.7,0c-2.9,6.2,2.9,17.2,1.9,24.9c-1,6.7-3.8,12.5-7.7,17.7
			c1.9-5.7,2.4-15.3-1.4-20.1"/>
	</g>
	<g opacity="0.2">
		<linearGradient id="SVGID_36_" gradientUnits="userSpaceOnUse" x1="779.015" y1="64.1012" x2="814.6086" y2="64.1012">
			<stop  offset="0.615" style="stop-color:#007C74"/>
			<stop  offset="0.6952" style="stop-color:#00867F"/>
			<stop  offset="0.8519" style="stop-color:#34A39C"/>
			<stop  offset="1" style="stop-color:#5BC4BF"/>
		</linearGradient>
		<path fill="url(#SVGID_36_)" d="M807.6,45.6c-2.9-2.4-12.5-9.6-12.9-2.9c-2.9-1.9-10.5-7.2-13.9-4.3c-4.3,2.9,0.5,10.1,2.9,13.4
			c5.3,7.7,15.3,11,18.2,20.6c-3.4-5.3-24-18.2-21.1-4.8c3.4,14.4,21.1,16.8,31.1,23c5.3-7.2,1.9-18.7-1.9-25.9c0.5,0,1,0.5,1.9,1
			c0.5-5.3,0-12.5-3.8-16.3"/>
	</g>
	<g opacity="0.2">
		<linearGradient id="SVGID_37_" gradientUnits="userSpaceOnUse" x1="851.1616" y1="65.8707" x2="879.1699" y2="65.8707">
			<stop  offset="0.615" style="stop-color:#007C74"/>
			<stop  offset="0.6952" style="stop-color:#00867F"/>
			<stop  offset="0.8519" style="stop-color:#34A39C"/>
			<stop  offset="1" style="stop-color:#5BC4BF"/>
		</linearGradient>
		<path fill="url(#SVGID_37_)" d="M858.5,69.9c5.7-7.7,12.9-31.6,8.6-40.7c3.4,0,4.8,2.9,5.3,6.7c6.2-5.3,5.7,6.7,5.7,10.5
			c0,2.4-1,5.3-1,7.2c0,3.4,1.9,4.8,1.9,7.2c1,13.9-14.9,36.9-27.8,41.7c-1.4-6.7,6.2-26.3,2.9-29.7"/>
	</g>
	<g>
		<linearGradient id="SVGID_38_" gradientUnits="userSpaceOnUse" x1="829.7524" y1="169.5862" x2="829.7524" y2="72.8175">
			<stop  offset="0.8659" style="stop-color:#00A89A"/>
			<stop  offset="0.9278" style="stop-color:#2FB2A7"/>
			<stop  offset="1" style="stop-color:#5BC4BF"/>
		</linearGradient>
		<path fill="url(#SVGID_38_)" d="M809.4,92.9c3.4,5.7,10.5,9.6,13.4,15.3c1.9,4.3,1.9,12,2.9,16.8c2.4,14.9-1,30.2,1,44.6
			c4.3-4.8,2.9-21.1,2.9-28.3c-0.5-9.6,0-19.6-0.5-29.2c9.6-4.8,18.7-19.2,22.5-28.7c-6.7,3.8-12.9,13.4-18.7,19.2
			c3.4-10.5,3.4-20.6-2.4-29.7c-1.4,11,2.9,27.3-3.4,37.4c-6.2-7.7-11.5-13.9-19.2-20.1"/>
	</g>
	<g>
		<linearGradient id="SVGID_39_" gradientUnits="userSpaceOnUse" x1="790.4968" y1="42.2064" x2="859.3015" y2="42.2064">
			<stop  offset="0.5134" style="stop-color:#43BEAD"/>
			<stop  offset="0.847" style="stop-color:#53C2B8"/>
			<stop  offset="1" style="stop-color:#5BC4BF"/>
		</linearGradient>
		<path fill="url(#SVGID_39_)" d="M834.6,17.3c-1.4-8.6-18.2-25.9-19.6-8.1c-6.7-5.3-16.8-1-19.2,6.7c-1,2.9-0.5,7.7-1.4,11
			c-1,4.3-4.3,9.6-3.8,14.4c1.4,9.1,14.4,15.8,20.6,21.1c6.7,5.3,14.4,12,18.7,19.2c1-2.4,1.4-5.3,2.4-7.7c2.4,2.9,4.8,5.3,5.3,9.1
			c15.8-2.9,19.2-32.6,21.1-45c2.4-16.3-0.5-30.2-17.7-36.4c-2.9,6.2,2.9,17.2,1.9,24.9c-1,6.7-3.8,12.5-7.7,17.7
			c1.9-5.7,2.4-15.3-1.4-20.1"/>
	</g>
	<g>
		<linearGradient id="SVGID_40_" gradientUnits="userSpaceOnUse" x1="779.346" y1="66.3738" x2="814.9397" y2="66.3738">
			<stop  offset="2.808115e-02" style="stop-color:#43BEAD"/>
			<stop  offset="0.6945" style="stop-color:#53C2B8"/>
			<stop  offset="1" style="stop-color:#5BC4BF"/>
		</linearGradient>
		<path fill="url(#SVGID_40_)" d="M807.9,47.9c-2.9-2.4-12.5-9.6-12.9-2.9c-2.9-1.9-10.5-7.2-13.9-4.3c-4.3,2.9,0.5,10.1,2.9,13.4
			c5.3,7.7,15.3,11,18.2,20.6c-3.4-5.3-24-18.2-21.1-4.8c3.4,14.4,21.1,16.8,31.1,23c5.3-7.2,1.9-18.7-1.9-25.9c0.5,0,1,0.5,1.9,1
			c0.5-5.3,0-12.5-3.8-16.3"/>
	</g>
	<g>
		<linearGradient id="SVGID_41_" gradientUnits="userSpaceOnUse" x1="846.2632" y1="70.3558" x2="874.2714" y2="70.3558">
			<stop  offset="0.5134" style="stop-color:#43BEAD"/>
			<stop  offset="0.847" style="stop-color:#53C2B8"/>
			<stop  offset="1" style="stop-color:#5BC4BF"/>
		</linearGradient>
		<path fill="url(#SVGID_41_)" d="M853.6,74.4c5.7-7.7,12.9-31.6,8.6-40.7c3.4,0,4.8,2.9,5.3,6.7c6.2-5.3,5.7,6.7,5.7,10.5
			c0,2.4-1,5.3-1,7.2c0,3.4,1.9,4.8,1.9,7.2c1,13.9-14.9,36.9-27.8,41.7c-1.4-6.7,6.2-26.3,2.9-29.7"/>
	</g>
</g>
<g opacity="0.2">
	<linearGradient id="SVGID_42_" gradientUnits="userSpaceOnUse" x1="818.2628" y1="169.5597" x2="887.9837" y2="169.5597">
		<stop  offset="0.615" style="stop-color:#007C74"/>
		<stop  offset="0.6952" style="stop-color:#00867F"/>
		<stop  offset="0.8519" style="stop-color:#34A39C"/>
		<stop  offset="1" style="stop-color:#5BC4BF"/>
	</linearGradient>
	<path fill="url(#SVGID_42_)" d="M818.3,179.7c3.1,1.8,5.4,4,6.7,7.2c3.1-1.3,2.7-1.3,4.5,1.3c4.5-3.6,22-24.3,28.3-17.1
		c6.7-5.4,9.9-8.5,18.9-9.9c3.6-0.4,8.1,0,11.2-1.3c-2.7-13-17.5-4-25.6-0.9c2.7-17.1-42.3-4.5-40.9,13.9"/>
</g>
<g>
	<linearGradient id="SVGID_43_" gradientUnits="userSpaceOnUse" x1="815.9666" y1="172.4209" x2="885.6875" y2="172.4209">
		<stop  offset="0.5134" style="stop-color:#43BEAD"/>
		<stop  offset="0.7379" style="stop-color:#58BCAE"/>
		<stop  offset="1" style="stop-color:#70BDB2"/>
	</linearGradient>
	<path fill="url(#SVGID_43_)" d="M816,182.5c3.1,1.8,5.4,4,6.7,7.2c3.1-1.3,2.7-1.3,4.5,1.3c4.5-3.6,22-24.3,28.3-17.1
		c6.7-5.4,9.9-8.5,18.9-9.9c3.6-0.4,8.1,0,11.2-1.3c-2.7-13-17.5-4-25.6-0.9c2.7-17.1-42.3-4.5-40.9,13.9"/>
</g>
</svg>
