<?xml version="1.0" encoding="utf-8"?>
<!-- Generator: Adobe Illustrator 17.0.0, SVG Export Plug-In . SVG Version: 6.00 Build 0)  -->
<!DOCTYPE svg PUBLIC "-//W3C//DTD SVG 1.1//EN" "http://www.w3.org/Graphics/SVG/1.1/DTD/svg11.dtd">
<svg version="1.1" id="Layer_1" xmlns="http://www.w3.org/2000/svg" xmlns:xlink="http://www.w3.org/1999/xlink" x="0px" y="0px"
	 width="1280px" height="130.6px" viewBox="0 0 1280 130.6" enable-background="new 0 0 1280 130.6" xml:space="preserve">
<linearGradient id="SVGID_1_" gradientUnits="userSpaceOnUse" x1="640" y1="132" x2="640" y2="6.985513e-05">
	<stop  offset="0" style="stop-color:#00A9D6"/>
	<stop  offset="0.1843" style="stop-color:#009CB4"/>
	<stop  offset="0.4194" style="stop-color:#008D95"/>
	<stop  offset="0.6407" style="stop-color:#00837F"/>
	<stop  offset="0.8405" style="stop-color:#007C73"/>
	<stop  offset="1" style="stop-color:#007A6F"/>
</linearGradient>
<path fill="url(#SVGID_1_)" d="M1281,22.2c0,0-89.8-20.8-118.6-21.5c-25.9-0.7-67.7-3.1-103.3,8.7c-104.1,34.5-374.1-9.8-463.6,9.7
	c-38.1,8.3-181.2-3.9-185-7.7c-5.4-5.3-76.1,9.1-97.5,12.2c-103.7,14.8-126.3-0.8-164,10.7C96.7,50.2-1,22.2-1,22.2V132h1282V22.2z"
	/>
<g opacity="5.000000e-02">
	<g>
		<g>
			
				<linearGradient id="SVGID_2_" gradientUnits="userSpaceOnUse" x1="2239.3047" y1="1094.1884" x2="2143.2822" y2="987.3167" gradientTransform="matrix(0.7322 -3.528363e-02 3.255641e-02 0.6756 -622.1373 -529.0494)">
				<stop  offset="7.108977e-02" style="stop-color:#43BEAD"/>
				<stop  offset="0.4997" style="stop-color:#58BCAE"/>
				<stop  offset="1" style="stop-color:#70BDB2"/>
			</linearGradient>
			<path fill="url(#SVGID_2_)" d="M1098.1,66.8c-17.1-23.4-49.6-32.5-78.4-25.8c-43.3,8.8-52.1,37.5-63.5,71.6
				c-16.7-20.9-19.3,18-19.3,18l40.6-0.2c0,0,16.8-17.1,29.4-23c21.5-7.8,74.4,1.8,85.3-12.2"/>
		</g>
		<g>
			
				<linearGradient id="SVGID_3_" gradientUnits="userSpaceOnUse" x1="2081.3147" y1="1056.8966" x2="2026.6366" y2="996.0406" gradientTransform="matrix(0.7322 -3.528363e-02 3.255641e-02 0.6756 -622.1373 -529.0494)">
				<stop  offset="7.108977e-02" style="stop-color:#43BEAD"/>
				<stop  offset="0.4997" style="stop-color:#58BCAE"/>
				<stop  offset="1" style="stop-color:#70BDB2"/>
			</linearGradient>
			<path fill="url(#SVGID_3_)" d="M976.2,45.8c-45.1,8.2-72.4,84.8-72.4,84.8l-4.6,0c0,0,0.5-34.5-1.6-52.8
				c-14.3,6.1-17.9,22.4-23.1,34.7c-8.2-18.4-20.7-5.7-26,5.3c-1.8,3.7-2.7,12.6-2.7,12.6l69.7,0c0,0,35.1-44.7,52-50.6"/>
		</g>
		<g>
			
				<linearGradient id="SVGID_4_" gradientUnits="userSpaceOnUse" x1="1934.9299" y1="1018.3167" x2="1876.2169" y2="952.97" gradientTransform="matrix(0.7322 -3.528363e-02 3.255641e-02 0.6756 -622.1373 -529.0494)">
				<stop  offset="7.108977e-02" style="stop-color:#43BEAD"/>
				<stop  offset="0.4997" style="stop-color:#58BCAE"/>
				<stop  offset="1" style="stop-color:#70BDB2"/>
			</linearGradient>
			<path fill="url(#SVGID_4_)" d="M873.7,34.6c-47.9-25.9-156.8,39.8-118.1,87.7c7.1-4.4,12.7-8.7,12.3-16.7
				c0.5,40.3,42.9-15.5,48.3-25.2c8.1-12.5,12.2-18.1,28-22.9c10-3.2,20.7,5.7,24.4-6.6"/>
		</g>
		<g>
			
				<linearGradient id="SVGID_5_" gradientUnits="userSpaceOnUse" x1="1814.0291" y1="968.41" x2="1790.2582" y2="941.9533" gradientTransform="matrix(0.7322 -3.528363e-02 3.255641e-02 0.6756 -622.1373 -529.0494)">
				<stop  offset="7.108977e-02" style="stop-color:#43BEAD"/>
				<stop  offset="0.4997" style="stop-color:#58BCAE"/>
				<stop  offset="1" style="stop-color:#70BDB2"/>
			</linearGradient>
			<path fill="url(#SVGID_5_)" d="M774.1,21.9c-24.6,3.9-100,39.8-79.5,72.4c17-10.2,35.3-23.2,46.2-38.5"/>
		</g>
		<g>
			
				<linearGradient id="SVGID_6_" gradientUnits="userSpaceOnUse" x1="1925.2441" y1="1078.9934" x2="1827.9148" y2="970.6672" gradientTransform="matrix(0.7322 -3.528363e-02 3.255641e-02 0.6756 -622.1373 -529.0494)">
				<stop  offset="7.108977e-02" style="stop-color:#43BEAD"/>
				<stop  offset="0.4997" style="stop-color:#58BCAE"/>
				<stop  offset="1" style="stop-color:#70BDB2"/>
			</linearGradient>
			<path fill="url(#SVGID_6_)" d="M719.8,105.2c-6.2,7.7-0.1,25-0.1,25l104.4,0.4c0,0,0.9-17.1-0.8-22.4c29-2.7,16.6-49.2,5.7-63.4
				c-21.9-31.2-50,19.9-60.5,43.2c-9.6-18.4-26.3-32.3-36.7-6.3"/>
		</g>
	</g>
</g>
</svg>
