<?xml version="1.0" encoding="utf-8"?>
<!-- Generator: Adobe Illustrator 17.0.0, SVG Export Plug-In . SVG Version: 6.00 Build 0)  -->
<!DOCTYPE svg PUBLIC "-//W3C//DTD SVG 1.1//EN" "http://www.w3.org/Graphics/SVG/1.1/DTD/svg11.dtd">
<svg version="1.1" id="Layer_1" xmlns="http://www.w3.org/2000/svg" xmlns:xlink="http://www.w3.org/1999/xlink" x="0px" y="0px"
	 width="1280px" height="553.8px" viewBox="0 0 1280 553.8" enable-background="new 0 0 1280 553.8" xml:space="preserve">
<g>
	<g opacity="0.2">
		
			<linearGradient id="SVGID_1_" gradientUnits="userSpaceOnUse" x1="-707.8636" y1="1423.4764" x2="-549.868" y2="1423.4764" gradientTransform="matrix(0.9551 -0.2963 0.2963 0.9551 422.206 -1324.9456)">
			<stop  offset="0.615" style="stop-color:#007C74"/>
			<stop  offset="0.6952" style="stop-color:#00867F"/>
			<stop  offset="0.8519" style="stop-color:#34A39C"/>
			<stop  offset="1" style="stop-color:#5BC4BF"/>
		</linearGradient>
		<path fill="url(#SVGID_1_)" d="M199.6,133.4c8.1,75.3-0.5,154,4.9,229.2c9.6-6.6,6.7-47.7,6.4-60.1c0.6-18.1-0.6-36.5-1.8-54.9
			c-1.9-23.5-6.5-49.8,9.3-68.1c22.5-28.4,48.8-61.6,61.2-96.8c0.6-1.1,1.9-2.4,2.5-3.5c-29.3,29.6-41.1,80.7-74,104.3
			c-4.8-15.5,2.2-39.1-9.7-51.5"/>
	</g>
	<g>
		
			<linearGradient id="SVGID_2_" gradientUnits="userSpaceOnUse" x1="-707.9307" y1="1418.8982" x2="-549.9351" y2="1418.8982" gradientTransform="matrix(0.9551 -0.2963 0.2963 0.9551 422.206 -1324.9456)">
			<stop  offset="0.8659" style="stop-color:#00A89A"/>
			<stop  offset="0.9278" style="stop-color:#2FB2A7"/>
			<stop  offset="1" style="stop-color:#5BC4BF"/>
		</linearGradient>
		<path fill="url(#SVGID_2_)" d="M198.2,129.1c8.1,75.3-0.5,154,4.9,229.2c9.6-6.6,6.7-47.7,6.4-60.1c0.6-18.1-0.6-36.5-1.8-54.9
			c-1.9-23.5-6.5-49.8,9.3-68.1c22.5-28.4,48.8-61.6,61.2-96.8c0.6-1.1,1.9-2.4,2.5-3.5c-29.3,29.6-41.1,80.7-74,104.3
			c-4.8-15.5,2.2-39.1-9.7-51.5"/>
	</g>
	<g opacity="0.2">
		
			<linearGradient id="SVGID_3_" gradientUnits="userSpaceOnUse" x1="-595.9485" y1="1301.306" x2="-626.274" y2="1399.0625" gradientTransform="matrix(0.9551 -0.2963 0.2963 0.9551 422.206 -1324.9456)">
			<stop  offset="0.615" style="stop-color:#007C74"/>
			<stop  offset="0.6952" style="stop-color:#00867F"/>
			<stop  offset="0.8519" style="stop-color:#34A39C"/>
			<stop  offset="1" style="stop-color:#5BC4BF"/>
		</linearGradient>
		<path fill="url(#SVGID_3_)" d="M227.2,152.4c7.4,6.6,16.8,10.9,24.5,15.6c0.6-1.1,1.9-2.4,2-5.1c4.5,3.1,7.9,8.3,10,12.1
			c0.1-2.7,0.9-5.7,0.7-9.2c11.8,6.2,8.2,20.7,6.9,30.9c24,2.4,19.6-46.3,15.6-59.4c-5.8-18.8-21.5-31.8-41.1-34.6
			c0.5,1.6-0.1,2.7,0.4,4.3c-10.4-7.5-24.9-11.1-36.8-11.8c-12.1-1.6-29.1-1.7-19.9,10.7c4.7,6.6,13.9,7.3,19.5,10.9
			c4.5,3.1,2.3,7.3,10.3,10.2c10.2,4,21.9-1.4,32.1,2.6c-9.2-0.7-19.5,0.7-24,9.2c-9.3-9.6-13.9,4.3-7.1,5.8"/>
	</g>
	<g opacity="0.2">
		
			<linearGradient id="SVGID_4_" gradientUnits="userSpaceOnUse" x1="-609.1501" y1="1334.0482" x2="-583.6071" y2="1251.7084" gradientTransform="matrix(0.9551 -0.2963 0.2963 0.9551 422.206 -1324.9456)">
			<stop  offset="0.615" style="stop-color:#007C74"/>
			<stop  offset="0.6952" style="stop-color:#00867F"/>
			<stop  offset="0.8519" style="stop-color:#34A39C"/>
			<stop  offset="1" style="stop-color:#5BC4BF"/>
		</linearGradient>
		<path fill="url(#SVGID_4_)" d="M228.5,94.4c-18.2-9.6-34.7-31.3-41.4-49.8c6.6-4.7,15.5,6.8,21.9,10.2c-7.3-14.7,13.7-10.5,17.6-1
			c5.2-15,18.7,11.2,20.4,16.9c-1-6-10.3-24.5-3.5-25.7c11.1-1.7,18.4,24.7,18.8,31.7c1-22.7,12-16.2,19.7,0.1
			c3.1,7.1,4.6,40.6-8.9,26c5.5,9-4.7,19.4-8.7,26.8c-9.6-7.8-19.6-31.5-31.7-33.1"/>
	</g>
	<g opacity="0.4">
		<linearGradient id="SVGID_5_" gradientUnits="userSpaceOnUse" x1="167.4253" y1="152.4805" x2="167.4253" y2="90.7873">
			<stop  offset="0.615" style="stop-color:#007C74"/>
			<stop  offset="0.6952" style="stop-color:#00867F"/>
			<stop  offset="0.8519" style="stop-color:#34A39C"/>
			<stop  offset="1" style="stop-color:#5BC4BF"/>
		</linearGradient>
		<path fill="url(#SVGID_5_)" d="M197.5,119.5c-7.1-11.2-20-13.8-31.5-19.2c-7.2-3.1-16.3-9.3-24.4-9.4c-7.5-1.2-25.5,7-10.7,8.7
			c1.4,10.3,16.1,5.7,23.1,8c-24.7,6.8-6.4,8.2,2.1,18.1c-0.5-1.6-0.2-7.1-1.2-10.4c10.2,1.3,15.9,3.1,25.5,8.2
			c-5.5,2.6-19.8,2.6-20.8,10.9c-1.3,10.2,19.1,15.5,26.7,16.8c20.4,5.3,33.4-7.7,13.4-22.9"/>
	</g>
	<g>
		
			<linearGradient id="SVGID_6_" gradientUnits="userSpaceOnUse" x1="-681.0204" y1="1333.2362" x2="-662.7416" y2="1274.3131" gradientTransform="matrix(0.9551 -0.2963 0.2963 0.9551 422.206 -1324.9456)">
			<stop  offset="0.5134" style="stop-color:#43BEAD"/>
			<stop  offset="0.651" style="stop-color:#53C2B8"/>
			<stop  offset="0.714" style="stop-color:#5BC4BF"/>
		</linearGradient>
		<path fill="url(#SVGID_6_)" d="M199.7,119.6c-7.1-11.2-22.9-16.1-34.4-21.5c-7.2-3.1-16.3-9.3-24.4-9.4c-7.5-1.2-25.5,7-10.7,8.7
			c1.4,10.3,16.1,5.7,23.1,8c-24.7,6.8-6.4,8.2,2.1,18.1c-0.5-1.6,0.4-4.6-0.6-7.8c10.2,1.3,15.4,0.6,25,5.7
			c-5.5,2.6-19.8,2.6-20.8,10.9c-1.3,10.2,19.1,15.5,26.7,16.8c20.4,5.3,33.4-7.7,13.4-22.9"/>
	</g>
	<g>
		
			<linearGradient id="SVGID_7_" gradientUnits="userSpaceOnUse" x1="-596.2709" y1="1297.0836" x2="-626.5964" y2="1394.8401" gradientTransform="matrix(0.9551 -0.2963 0.2963 0.9551 422.206 -1324.9456)">
			<stop  offset="4.061703e-02" style="stop-color:#3DAFA0"/>
			<stop  offset="0.8603" style="stop-color:#43BEAD"/>
			<stop  offset="0.9561" style="stop-color:#53C2B8"/>
			<stop  offset="1" style="stop-color:#5BC4BF"/>
		</linearGradient>
		<path fill="url(#SVGID_7_)" d="M225.7,148.4c7.4,6.6,16.8,10.9,24.5,15.6c0.6-1.1,1.9-2.4,2-5.1c4.5,3.1,7.9,8.3,10,12.1
			c0.1-2.7,0.9-5.7,0.7-9.2c11.8,6.2,8.2,20.7,6.9,30.9c24,2.4,19.6-46.3,15.6-59.4c-5.8-18.8-21.5-31.8-41.1-34.6
			c0.5,1.6-0.1,2.7,0.4,4.3c-10.4-7.5-24.9-11.1-36.8-11.8c-12.1-1.6-29.1-1.7-19.9,10.7c4.7,6.6,13.9,7.3,19.5,10.9
			c4.5,3.1,2.3,7.3,10.3,10.2c10.2,4,21.9-1.4,32.1,2.6c-9.2-0.7-19.5,0.7-24,9.2c-9.3-9.6-13.9,4.3-7.1,5.8"/>
	</g>
	<g>
		
			<linearGradient id="SVGID_8_" gradientUnits="userSpaceOnUse" x1="-608.223" y1="1331.8944" x2="-582.6801" y2="1249.5544" gradientTransform="matrix(0.9551 -0.2963 0.2963 0.9551 422.206 -1324.9456)">
			<stop  offset="0.5134" style="stop-color:#43BEAD"/>
			<stop  offset="0.651" style="stop-color:#53C2B8"/>
			<stop  offset="0.714" style="stop-color:#5BC4BF"/>
		</linearGradient>
		<path fill="url(#SVGID_8_)" d="M228.8,92c-18.2-9.6-34.7-31.3-41.4-49.8c6.6-4.7,15.5,6.8,21.9,10.2c-7.3-14.7,13.7-10.5,17.6-1
			c5.2-15,18.7,11.2,20.4,16.9c-1-6-10.3-24.5-3.5-25.7c11.1-1.7,18.4,24.7,18.8,31.7c1-22.7,12-16.2,19.7,0.1
			c3.1,7.1,4.6,40.6-8.9,26c5.5,9-4.7,19.4-8.7,26.8c-9.6-7.8-19.6-31.5-31.7-33.1"/>
	</g>
	<g opacity="0.2">
		
			<linearGradient id="SVGID_9_" gradientUnits="userSpaceOnUse" x1="-555.6569" y1="1389.9081" x2="-531.954" y2="1313.5002" gradientTransform="matrix(0.9551 -0.2963 0.2963 0.9551 422.206 -1324.9456)">
			<stop  offset="0.615" style="stop-color:#007C74"/>
			<stop  offset="0.6952" style="stop-color:#00867F"/>
			<stop  offset="0.8519" style="stop-color:#34A39C"/>
			<stop  offset="1" style="stop-color:#5BC4BF"/>
		</linearGradient>
		<path fill="url(#SVGID_9_)" d="M287.7,118c-0.4-7,2.8-19.7,9.1-8.2c-4.2-5-6.1-19.6,2.9-22.4c7.3-2.3,12,9.7,15.4,14.9
			c9.7-23.6,16,11.1,15.2,20.3c0.1,8.9-1.8,34.5-14.7,30.5c3.6,8.7-5.3,20.4-11.3,9.8c-3.1-4.4-1-14.9-3.6-20.3
			c-2.7,11.6-37.6-8.9-19-20.9"/>
	</g>
	<g>
		
			<linearGradient id="SVGID_10_" gradientUnits="userSpaceOnUse" x1="-564.418" y1="1362.3784" x2="-509.5771" y2="1333.5065" gradientTransform="matrix(0.9551 -0.2963 0.2963 0.9551 422.206 -1324.9456)">
			<stop  offset="0" style="stop-color:#58C3BC"/>
			<stop  offset="0.5134" style="stop-color:#43BEAD"/>
			<stop  offset="0.847" style="stop-color:#53C2B8"/>
			<stop  offset="1" style="stop-color:#5BC4BF"/>
		</linearGradient>
		<path fill="url(#SVGID_10_)" d="M288,115.7c-0.4-7,2.8-19.7,9.1-8.2c-4.2-5-6.1-19.6,2.9-22.4c7.3-2.3,12,9.7,15.4,14.9
			c9.7-23.6,16,11.1,15.2,20.3c0.1,8.9-1.8,34.5-14.7,30.5c3.6,8.7-5.3,20.4-11.3,9.8c-3.1-4.4-1-14.9-3.6-20.3
			c-2.7,11.6-37.6-8.9-19-20.9"/>
	</g>
</g>
<g>
	<g opacity="0.2">
		<linearGradient id="SVGID_11_" gradientUnits="userSpaceOnUse" x1="50.3079" y1="202.0235" x2="67.7337" y2="202.0235">
			<stop  offset="0.615" style="stop-color:#007C74"/>
			<stop  offset="0.6952" style="stop-color:#00867F"/>
			<stop  offset="0.8519" style="stop-color:#34A39C"/>
			<stop  offset="1" style="stop-color:#5BC4BF"/>
		</linearGradient>
		<path fill="url(#SVGID_11_)" d="M51,111.3c13.4,18.8,9.4,49.7,10.7,71.9c1.3,24.9,0.7,48.4-0.7,73.2c-1.3,18.8-8.1,47,1.3,64.5
			c-2.7-28.2,3.4-59.1,4.7-87.3c1.3-38.3-4-75.9-4-113.5c0-11.4,6.7-26.9,4-36.9c-6.7,6-5.4,22.8-8.7,32.2
			c-1.3-4.7-5.4-10.7-8.1-8.1"/>
	</g>
	<g>
		<linearGradient id="SVGID_12_" gradientUnits="userSpaceOnUse" x1="48.8166" y1="206.6844" x2="66.2424" y2="206.6844">
			<stop  offset="0.8659" style="stop-color:#00A89A"/>
			<stop  offset="0.9278" style="stop-color:#2FB2A7"/>
			<stop  offset="1" style="stop-color:#5BC4BF"/>
		</linearGradient>
		<path fill="url(#SVGID_12_)" d="M49.5,116c13.4,18.8,9.4,49.7,10.7,71.9c1.3,24.9,0.7,48.4-0.7,73.2c-1.3,18.8-8.1,47,1.3,64.5
			c-2.7-28.2,3.4-59.1,4.7-87.3c1.3-38.3-4-75.9-4-113.5c0-11.4,6.7-26.9,4-36.9c-6.7,6-5.4,22.8-8.7,32.2
			c-1.3-4.7-5.4-10.7-8.1-8.1"/>
	</g>
	<g opacity="0.2">
		<linearGradient id="SVGID_13_" gradientUnits="userSpaceOnUse" x1="87.1096" y1="204.1665" x2="129.8258" y2="204.1665">
			<stop  offset="0.615" style="stop-color:#007C74"/>
			<stop  offset="0.6952" style="stop-color:#00867F"/>
			<stop  offset="0.8519" style="stop-color:#34A39C"/>
			<stop  offset="1" style="stop-color:#5BC4BF"/>
		</linearGradient>
		<path fill="url(#SVGID_13_)" d="M90.2,89.6c-3.4,17.5,2,36.9,5.4,54.4c4,20.8,1.3,45-0.7,65.2c-2,26.9-2,54.4-4.7,81.3
			c-1.3,14.8-5.4,34.3-1.3,49c0-33.6,9.4-66.5,12.8-99.4c1.3-15.4,2-30.2,1.3-45.7c-1.3-18.8,2.7-33.6,8.7-52.4
			c4.7-16.1,8.7-35.6,18.1-50.4c-9.4-2-12.8,19.5-14.1,26.2c-6.7-14.8-6-33.6-12.8-48.4c-4,15.4,4,30.2,6.7,45
			c2.7,12.1-4.7,32.2-8.1,45c-2-17.5-4-34.9-6.7-52.4c-2-12.1-1.3-28.2-5.4-38.3"/>
	</g>
	<g>
		<linearGradient id="SVGID_14_" gradientUnits="userSpaceOnUse" x1="84.6844" y1="197.6171" x2="127.4006" y2="197.6171">
			<stop  offset="0.8659" style="stop-color:#00A89A"/>
			<stop  offset="0.9278" style="stop-color:#2FB2A7"/>
			<stop  offset="1" style="stop-color:#5BC4BF"/>
		</linearGradient>
		<path fill="url(#SVGID_14_)" d="M87.8,83.1c-3.4,17.5,2,36.9,5.4,54.4c4,20.8,1.3,45-0.7,65.2c-2,26.9-2,54.4-4.7,81.3
			c-1.3,14.8-5.4,34.3-1.3,49c0-33.6,9.4-66.5,12.8-99.4c1.3-15.4,2-30.2,1.3-45.7c-1.3-18.8,2.7-33.6,8.7-52.4
			c4.7-16.1,8.7-35.6,18.1-50.4c-9.4-2-12.8,19.5-14.1,26.2c-6.7-14.8-6-33.6-12.8-48.4c-4,15.4,4,30.2,6.7,45
			c2.7,12.1-4.7,32.2-8.1,45c-2-17.5-4-34.9-6.7-52.4c-2-12.1-1.3-28.2-5.4-38.3"/>
	</g>
	<g>
		<linearGradient id="SVGID_15_" gradientUnits="userSpaceOnUse" x1="39.8488" y1="126.2332" x2="39.8488" y2="9.5633">
			<stop  offset="0.5134" style="stop-color:#43BEAD"/>
			<stop  offset="0.847" style="stop-color:#53C2B8"/>
			<stop  offset="1" style="stop-color:#5BC4BF"/>
		</linearGradient>
		<path fill="url(#SVGID_15_)" d="M64.3,22C57.5,9.2,46.1,3.2,38.7,19.3c-8.1,18.1,2.7,28.2,6,45c-5.4-8.1-14.1-18.1-17.5-27.5
			c-5.4,3.4-7.4,10.1-6,16.1C4.5,50.2,28.7,87.1,34,90.5c-2.7-4-11.4-12.1-16.8-7.4c-4,2.7,0.7,14.1,2,18.1
			c1.3,6,9.4,33.6,19.5,22.2c10.7,15.4,22.2-36.9,22.2-44.3c0.7-15.4-4-36.3,0-50.4"/>
	</g>
	<g opacity="0.2">
		<linearGradient id="SVGID_16_" gradientUnits="userSpaceOnUse" x1="67.5157" y1="112.4283" x2="67.5157" y2="1.1569">
			<stop  offset="0.615" style="stop-color:#007C74"/>
			<stop  offset="0.6952" style="stop-color:#00867F"/>
			<stop  offset="0.8519" style="stop-color:#34A39C"/>
			<stop  offset="1" style="stop-color:#5BC4BF"/>
		</linearGradient>
		<path fill="url(#SVGID_16_)" d="M53.5,104.6c2,6,11.4,13.4,10.7,1.3C71,120.7,87.1,81.8,89.8,75c4.7-14.8,13.4-31.6,6.7-47
			C89.1,11.9,75,2.5,58.2,1.2c-5.4,0-12.8,0-16.8,2.7c-11.4,6.7-2,10.1,4.7,16.8c-17.5-10.1-7.4,14.1-4.7,20.8
			c4,14.1,8.1,19.5,18.8,29.6c-12.8,6-5.4,17.5-6,26.9"/>
	</g>
	<g>
		<linearGradient id="SVGID_17_" gradientUnits="userSpaceOnUse" x1="64.773" y1="111.2714" x2="64.773" y2="4.174581e-10">
			<stop  offset="0.5134" style="stop-color:#43BEAD"/>
			<stop  offset="0.847" style="stop-color:#53C2B8"/>
			<stop  offset="1" style="stop-color:#5BC4BF"/>
		</linearGradient>
		<path fill="url(#SVGID_17_)" d="M50.8,103.4c2,6,11.4,13.4,10.7,1.3c6.7,14.8,22.8-24.2,25.5-30.9c4.7-14.8,13.4-31.6,6.7-47
			C86.4,10.7,72.3,1.3,55.5,0c-5.4,0-12.8,0-16.8,2.7c-11.4,6.7-2,10.1,4.7,16.8C25.9,9.4,36,33.6,38.7,40.3
			c4,14.1,8.1,19.5,18.8,29.6c-12.8,6-5.4,17.5-6,26.9"/>
	</g>
	<g opacity="0.2">
		<linearGradient id="SVGID_18_" gradientUnits="userSpaceOnUse" x1="152.2989" y1="44.9157" x2="75.6944" y2="44.9157">
			<stop  offset="0.615" style="stop-color:#007C74"/>
			<stop  offset="0.6952" style="stop-color:#00867F"/>
			<stop  offset="0.8519" style="stop-color:#34A39C"/>
			<stop  offset="1" style="stop-color:#5BC4BF"/>
		</linearGradient>
		<path fill="url(#SVGID_18_)" d="M115,61.9c4,2,8.1,4,11.4,6c0-2,2-4,2-6c2,0,5.4,0,6.7,0c3.4,6.7,5.4,24.9,14.1,15.4
			c4-5.4,3.4-21.5,2-28.2c-2-12.1-16.8-47.7-34.9-37.6c12.1,5.4,25.5,24.9,23.5,38.3c-4-10.7-14.8-22.2-22.8-30.2
			c-4-4.7-10.1-11.4-16.1-9.4c-7.4,2.7-7.4,14.1-2.7,18.1c-3.4-10.7-33.6-12.1-18.1,8.7c8.7,12.1,21.5,17.5,34.3,24.9"/>
	</g>
	<g>
		<linearGradient id="SVGID_19_" gradientUnits="userSpaceOnUse" x1="76.1575" y1="43.4881" x2="152.762" y2="43.4881">
			<stop  offset="0.5134" style="stop-color:#43BEAD"/>
			<stop  offset="0.651" style="stop-color:#53C2B8"/>
			<stop  offset="0.714" style="stop-color:#5BC4BF"/>
		</linearGradient>
		<path fill="url(#SVGID_19_)" d="M115.5,60.5c4,2,8.1,4,11.4,6c0-2,2-4,2-6c2,0,5.4,0,6.7,0c3.4,6.7,5.4,24.9,14.1,15.4
			c4-5.4,3.4-21.5,2-28.2c-2-12.1-16.8-47.7-34.9-37.6c12.1,5.4,25.5,24.9,23.5,38.3c-4-10.7-14.8-22.2-22.8-30.2
			c-4-4.7-10.1-11.4-16.1-9.4C94,11.5,94,22.9,98.7,26.9c-3.4-10.7-33.6-12.1-18.1,8.7c8.7,12.1,21.5,17.5,34.3,24.9"/>
	</g>
	<g opacity="0.2">
		<linearGradient id="SVGID_20_" gradientUnits="userSpaceOnUse" x1="101.5061" y1="99.6102" x2="101.5061" y2="34.3294">
			<stop  offset="0.615" style="stop-color:#007C74"/>
			<stop  offset="0.6952" style="stop-color:#00867F"/>
			<stop  offset="0.8519" style="stop-color:#34A39C"/>
			<stop  offset="1" style="stop-color:#5BC4BF"/>
		</linearGradient>
		<path fill="url(#SVGID_20_)" d="M96.4,35.5c-18.8-5.4-32.2,18.8-26.2,34.3c16.1-3.4,34.3-0.7,44.3,14.1c0.7-1.3,1.3-2.7,1.3-4
			c2.7,3.4,8.1,22.2,15.4,19.5c4-2,2.7-19.5,2.7-23.5c-0.7-10.1-14.8-46.3-28.9-41"/>
	</g>
	<g>
		<linearGradient id="SVGID_21_" gradientUnits="userSpaceOnUse" x1="100.9169" y1="96.7941" x2="100.9169" y2="31.5134">
			<stop  offset="0.5134" style="stop-color:#43BEAD"/>
			<stop  offset="0.847" style="stop-color:#53C2B8"/>
			<stop  offset="1" style="stop-color:#5BC4BF"/>
		</linearGradient>
		<path fill="url(#SVGID_21_)" d="M95.8,32.7C77,27.4,63.6,51.5,69.6,67c16.1-3.4,34.3-0.7,44.3,14.1c0.7-1.3,1.3-2.7,1.3-4
			c2.7,3.4,8.1,22.2,15.4,19.5c4-2,2.7-19.5,2.7-23.5c-0.7-10.1-14.8-46.3-28.9-41"/>
	</g>
</g>
<linearGradient id="SVGID_22_" gradientUnits="userSpaceOnUse" x1="640" y1="555" x2="640" y2="232.1929">
	<stop  offset="0" style="stop-color:#00A9D6"/>
	<stop  offset="7.080512e-03" style="stop-color:#00A9D3"/>
	<stop  offset="0.1133" style="stop-color:#00A4BC"/>
	<stop  offset="0.2266" style="stop-color:#00A0A9"/>
	<stop  offset="0.3476" style="stop-color:#009C9B"/>
	<stop  offset="0.4799" style="stop-color:#009A92"/>
	<stop  offset="0.6318" style="stop-color:#00998C"/>
	<stop  offset="0.8481" style="stop-color:#00988A"/>
</linearGradient>
<path fill="url(#SVGID_22_)" d="M-1,261.7c0,0,133.1-13,185.7-16.9c59.4-4.5,161.2,14.2,217.3-4.9c11.1-3.8,49.4-6.4,61.1-7.5
	c15-1.4,39.2,4.8,53.6,9c35.5,10.4,108.6,7.4,145.6,10.4c58.4,4.7,175.8-4.4,234.2,0c20.3,1.5,60.6,8.3,80.5,12.3
	c33.8,6.8,81.6-15.2,115.8-11c30.9,3.8,84.6,2.4,115.6,4.6c16.3,1.2,72.5,4,72.5,4V555H-1V261.7z"/>
<g>
	<linearGradient id="SVGID_23_" gradientUnits="userSpaceOnUse" x1="41.4283" y1="102.5774" x2="41.4283" y2="102.5774">
		<stop  offset="0.5134" style="stop-color:#43BEAD"/>
		<stop  offset="0.651" style="stop-color:#53C2B8"/>
		<stop  offset="0.714" style="stop-color:#5BC4BF"/>
	</linearGradient>
	<path fill="url(#SVGID_23_)" d="M41.4,102.6"/>
</g>
<g opacity="0.2">
	<linearGradient id="SVGID_24_" gradientUnits="userSpaceOnUse" x1="1232.5643" y1="153.2525" x2="1232.5643" y2="126.9912">
		<stop  offset="0.615" style="stop-color:#007C74"/>
		<stop  offset="0.6952" style="stop-color:#00867F"/>
		<stop  offset="0.8519" style="stop-color:#34A39C"/>
		<stop  offset="1" style="stop-color:#5BC4BF"/>
	</linearGradient>
	<path fill="url(#SVGID_24_)" d="M1239.2,128.1c-10.1,4.5-21.2,14.5-22.4,25.1c4.5-2.2,9.5-5,13.4-7.3c5,7.8,24.6-16.8,15.6-19"/>
</g>
<g>
	<g opacity="0.2">
		
			<linearGradient id="SVGID_25_" gradientUnits="userSpaceOnUse" x1="273.5366" y1="-3800.126" x2="324.6139" y2="-3756.7805" gradientTransform="matrix(0.647 0.7625 -0.7625 0.647 -3001.2566 2452.4976)">
			<stop  offset="0.615" style="stop-color:#007C74"/>
			<stop  offset="0.6952" style="stop-color:#00867F"/>
			<stop  offset="0.8519" style="stop-color:#34A39C"/>
			<stop  offset="1" style="stop-color:#5BC4BF"/>
		</linearGradient>
		<path fill="url(#SVGID_25_)" d="M93.5,202.7c-5.1-2.7-18.7,8.3-23.9,11.8c6.4-13.5-14.8-9-19.9-5.5c-12.8,9.1-3,13.3-5.4,24.3
			C43,221,34,224.1,26.9,228.4c-7.6,4.7-10,10.3-14.1,18.2c-5.2,10.7-7.1,15.9,6,15.5c6.8-0.4,17.5-1.5,23.1-4.4
			c12.4,19.9,52.1,8.6,70.2,5.7c4.4-1.1,23.9-2.4,25.2-6.2c2-6.1-9.9-14.9-14.8-14.3c1.7-9.5-8.6-24.9-16.4-29.9
			c-2,7.1-6.4,12.6-11.6,17.9C95.6,228.2,106.5,209.6,93.5,202.7z"/>
	</g>
	<g opacity="0.2">
		
			<linearGradient id="SVGID_26_" gradientUnits="userSpaceOnUse" x1="374.6946" y1="-3876.9697" x2="393.3002" y2="-3861.1804" gradientTransform="matrix(0.647 0.7625 -0.7625 0.647 -3001.2566 2452.4976)">
			<stop  offset="0.615" style="stop-color:#007C74"/>
			<stop  offset="0.6952" style="stop-color:#00867F"/>
			<stop  offset="0.8519" style="stop-color:#34A39C"/>
			<stop  offset="1" style="stop-color:#5BC4BF"/>
		</linearGradient>
		<path fill="url(#SVGID_26_)" d="M174.1,233.5c8.4-1.7,16.2-3,24.4-2.8c0.4,0.5-8.8,11.2-7.9,12.3c23.4-22.6,53.4-12.4,56.6,1.9
			c-24.9,8.6-49,7.6-75.3,3c4.4-0.1,7.6,1.6,9.8,4.2c-6.2,5.3-27-1.2-34.6-2.8c4.9-6.9,8.3-12.4,15.3-15.7"/>
	</g>
	<g>
		
			<linearGradient id="SVGID_27_" gradientUnits="userSpaceOnUse" x1="272.0464" y1="-3796.5068" x2="323.1236" y2="-3753.1614" gradientTransform="matrix(0.647 0.7625 -0.7625 0.647 -3001.2566 2452.4976)">
			<stop  offset="0" style="stop-color:#009D8E"/>
			<stop  offset="0.2771" style="stop-color:#009E8E"/>
			<stop  offset="0.5472" style="stop-color:#00A091"/>
			<stop  offset="0.8135" style="stop-color:#00A494"/>
			<stop  offset="1" style="stop-color:#00A798"/>
		</linearGradient>
		<path fill="url(#SVGID_27_)" d="M89.8,203.9c-5.1-2.7-18.7,8.3-23.9,11.8c6.4-13.5-14.8-9-19.9-5.5c-12.8,9.1-3,13.3-5.4,24.3
			c-1.4-12.2-10.4-9.1-17.5-4.8c-7.6,4.7-10,10.3-14.1,18.2c-5.2,10.7-7.1,15.9,6,15.5c6.8-0.4,17.5-1.5,23.1-4.4
			c12.4,19.9,52.1,8.6,70.2,5.7c4.4-1.1,23.9-2.4,25.2-6.2c2-6.1-9.9-14.9-14.8-14.3c1.7-9.5-8.6-24.9-16.4-29.9
			c-2,7.1-6.4,12.6-11.6,17.9C91.9,229.4,102.7,210.8,89.8,203.9z"/>
	</g>
	<g opacity="0.2">
		
			<linearGradient id="SVGID_28_" gradientUnits="userSpaceOnUse" x1="289.1442" y1="-3782.1543" x2="340.2342" y2="-3772.8525" gradientTransform="matrix(0.647 0.7625 -0.7625 0.647 -3001.2566 2452.4976)">
			<stop  offset="0.615" style="stop-color:#007C74"/>
			<stop  offset="0.6952" style="stop-color:#00867F"/>
			<stop  offset="0.8519" style="stop-color:#34A39C"/>
			<stop  offset="1" style="stop-color:#5BC4BF"/>
		</linearGradient>
		<path fill="url(#SVGID_28_)" d="M109.3,262.8c4.4-6.4,4.2-27.7-7.8-22.9c0.9-16.9-24-19.9-35.3-12.1c0.9,6.4,6,9.2,11.7,10.6
			c-3.9,0.6-12.7,0.9-16.2,3c-5.6,2.9-8.3,7.1,0.9,7.3c-3,0.7-5.1,3.5-7.6,4.7c9.4,3.7,25.9,3.1,35.9-0.9c-0.5,5.8,5.6,8.7,11.4,9.2
			"/>
	</g>
	<g>
		
			<linearGradient id="SVGID_29_" gradientUnits="userSpaceOnUse" x1="371.7278" y1="-3873.0146" x2="390.3334" y2="-3857.2256" gradientTransform="matrix(0.647 0.7625 -0.7625 0.647 -3001.2566 2452.4976)">
			<stop  offset="0" style="stop-color:#009D8E"/>
			<stop  offset="0.2771" style="stop-color:#009E8E"/>
			<stop  offset="0.5472" style="stop-color:#00A091"/>
			<stop  offset="0.8135" style="stop-color:#00A494"/>
			<stop  offset="1" style="stop-color:#00A798"/>
		</linearGradient>
		<path fill="url(#SVGID_29_)" d="M169.2,233.8c8.4-1.7,16.2-3,24.4-2.8c0.4,0.5-8.8,11.2-7.9,12.3c23.4-22.6,53.4-12.4,56.6,1.9
			c-24.9,8.6-49,7.6-75.3,3c4.4-0.1,7.6,1.6,9.8,4.2c-6.2,5.3-27-1.2-34.6-2.8c4.9-6.9,8.3-12.4,15.3-15.7"/>
	</g>
	<g>
		
			<linearGradient id="SVGID_30_" gradientUnits="userSpaceOnUse" x1="322.3393" y1="-3758.8757" x2="307.9522" y2="-3799.0989" gradientTransform="matrix(0.647 0.7625 -0.7625 0.647 -3001.2566 2452.4976)">
			<stop  offset="0" style="stop-color:#009D8E"/>
			<stop  offset="4.585733e-02" style="stop-color:#00A091"/>
			<stop  offset="0.1093" style="stop-color:#00A495"/>
			<stop  offset="0.174" style="stop-color:#00A797"/>
			<stop  offset="0.2415" style="stop-color:#00A798"/>
			<stop  offset="0.6283" style="stop-color:#00A99A"/>
			<stop  offset="0.8306" style="stop-color:#00ADA2"/>
			<stop  offset="0.9851" style="stop-color:#00B6B0"/>
		</linearGradient>
		<path fill="url(#SVGID_30_)" d="M106.6,263.2c4.4-6.4,4.2-27.7-7.8-22.9c0.9-16.9-24-19.9-35.3-12.1c0.9,6.4,6,9.2,11.7,10.6
			c-3.9,0.6-12.7,0.9-16.2,3c-5.6,2.9-8.3,7.1,0.9,7.3c-3,0.7-5.1,3.5-7.6,4.7c9.4,3.7,25.9,3.1,35.9-0.9c-0.5,5.8,5.6,8.7,11.4,9.2
			"/>
	</g>
</g>
<g>
	<g opacity="0.2">
		
			<linearGradient id="SVGID_31_" gradientUnits="userSpaceOnUse" x1="712.0236" y1="1011.9699" x2="731.538" y2="882.4072" gradientTransform="matrix(0.9888 -0.1489 0.1489 0.9888 279.9583 -649.6741)">
			<stop  offset="0.615" style="stop-color:#007C74"/>
			<stop  offset="0.6952" style="stop-color:#00867F"/>
			<stop  offset="0.8519" style="stop-color:#34A39C"/>
			<stop  offset="1" style="stop-color:#5BC4BF"/>
		</linearGradient>
		<path fill="url(#SVGID_31_)" d="M1116.9,149.3c5.4,4.5,11.4,7.3,12.9,14.8c0.4,2.9-0.7,6.4-0.9,9.5c-0.5,7.8,0,15.4,0.5,23
			c0.6,8.3,0.1,16.3-0.6,24.8c-0.3,2.4-3.7,23.9-1.5,23.6c0,0.3,1-0.3,1-0.3c0.4-8.4,0.5-15.9,2.2-24.5c1.8-8,2.8-15.2,3.2-23.6
			c-0.1-3,0.1-5.7,0.4-8.7c-0.3-6.3-2.5-7.6,3.2-11.8c8.2-5.6,13.9-14.1,21.7-20c-3.9-1.4-19.6,16.3-24.5,19.1
			c-1.4-4.8-1.9-10.4-3.3-15.5c-1.3-4.1-2.4-2.3,1-6.8c2.8-3.4,5.7-6.5,8.9-9.7c2-2.3,5.3-4.8,7-7.1c2.4-4,1.3-4.9-3-2.2
			c-4.2,3-7,11.4-11.4,15.4c-0.3-6.3-0.3-13-0.9-19.6c-0.7-6.9,1.3-11.2-5-15.6c-0.2,3.4,2,6.7,2.6,10.3s1.1,7.2,1.7,11.1
			c0.6,6.3,2,13.4-4,17.6c-4-4.4-11-8.7-17.2-7.8c0.1,0.7,0.8,0.9,0.8,0.6"/>
	</g>
	<g opacity="0.2">
		
			<linearGradient id="SVGID_32_" gradientUnits="userSpaceOnUse" x1="684.5906" y1="915.4333" x2="691.2761" y2="871.0463" gradientTransform="matrix(0.9888 -0.1489 0.1489 0.9888 279.9583 -649.6741)">
			<stop  offset="0.615" style="stop-color:#007C74"/>
			<stop  offset="0.6952" style="stop-color:#00867F"/>
			<stop  offset="0.8519" style="stop-color:#34A39C"/>
			<stop  offset="1" style="stop-color:#5BC4BF"/>
		</linearGradient>
		<path fill="url(#SVGID_32_)" d="M1105.4,148.1c-5.6,0.8-10.8,1.6-16.1-0.3c-5.3-2.2-17.3-6.1-20-10.7c0.3-0.4,0.6-0.8,0.9-0.8
			c-2.7-6.9-6.8-12,4.3-11.3c0.3-4.4-4.4-20,5.3-15.5c4.7,2.3,13.7,11,13.9,16.6c4-2.3,16.5,7.5,19,11.2c2.5,3,2.5,5.6,3.7,8.8
			c1.1,2.8,3.2,3.5,2.8,7.3c-3.9,0.9-6.5-1-10-1.8"/>
	</g>
	<g opacity="0.2">
		
			<linearGradient id="SVGID_33_" gradientUnits="userSpaceOnUse" x1="711.1221" y1="914.7101" x2="721.4363" y2="846.2303" gradientTransform="matrix(0.9888 -0.1489 0.1489 0.9888 279.9583 -649.6741)">
			<stop  offset="0.615" style="stop-color:#007C74"/>
			<stop  offset="0.6952" style="stop-color:#00867F"/>
			<stop  offset="0.8519" style="stop-color:#34A39C"/>
			<stop  offset="1" style="stop-color:#5BC4BF"/>
		</linearGradient>
		<path fill="url(#SVGID_33_)" d="M1122.8,128.7c-11.2,2.4-3.7-6.9-11.1-8.8c2.4,8.6-6.7,13-14.7,9.3c-1.2,4.7-9.3,5.1-13.2,4.2
			c-6.9-1.2-18.9-12.6-15.5-17.9c4-5.8,9.5-16.6,17.8-13.4c-5-5.6,6.8-4.8,9.1-4.4c0.7-5.3-6-14.2,6.1-17.8c6.5-2,13.6,8.4,15,12.3
			c5.9-8,11.9-3.3,18.2,1.7c3.8,3.2,15,12.3,12.2,18.8c8-6.4,33.2,21.9,21.1,28.3c1.8,2.3,1.6,5.4-1.1,7.3c-3.4,2-5.8-1.4-8.7-3.2
			c-8.3-5.1-17.7-8.2-22.4-17.2c-5.8,6.1-12.9-10.8-14.2-15.1c0.4,2.9,0.5,5.9,0.6,8.9"/>
	</g>
	<g>
		
			<linearGradient id="SVGID_34_" gradientUnits="userSpaceOnUse" x1="710.1609" y1="1012.1257" x2="729.6753" y2="882.563" gradientTransform="matrix(0.9888 -0.1489 0.1489 0.9888 279.9583 -649.6741)">
			<stop  offset="0.8659" style="stop-color:#00998C"/>
			<stop  offset="0.915" style="stop-color:#23A59A"/>
			<stop  offset="1" style="stop-color:#5BC4BF"/>
		</linearGradient>
		<path fill="url(#SVGID_34_)" d="M1115,149.7c5.4,4.5,11.4,7.3,12.9,14.8c0.4,2.9-0.7,6.4-0.9,9.5c-0.5,7.8,0,15.4,0.5,23
			c0.6,8.3,0.1,16.3-0.6,24.8c-0.3,2.4-3.7,23.9-1.5,23.6c0,0.3,1-0.3,1-0.3c0.4-8.4,0.5-15.9,2.2-24.5c1.8-8,2.8-15.2,3.2-23.6
			c-0.1-3,0.1-5.7,0.4-8.7c-0.3-6.3-2.5-7.6,3.2-11.8c8.2-5.6,13.9-14.1,21.7-20c-3.9-1.4-19.6,16.3-24.5,19.1
			c-1.4-4.8-1.9-10.4-3.3-15.5c-1.3-4.1-2.4-2.3,1-6.8c2.8-3.4,5.7-6.5,8.9-9.7c2-2.3,5.3-4.8,7-7.1c2.4-4,1.3-4.9-3-2.2
			c-4.2,3-7,11.4-11.4,15.4c-0.3-6.3-0.3-13-0.9-19.6c-0.7-6.9,1.3-11.2-5-15.6c-0.2,3.4,2,6.7,2.6,10.3c0.5,3.6,1.1,7.2,1.7,11.1
			c0.6,6.3,2,13.4-4,17.6c-4-4.4-11-8.7-17.2-7.8c0.1,0.7,0.8,0.9,0.8,0.6"/>
	</g>
	<g>
		
			<linearGradient id="SVGID_35_" gradientUnits="userSpaceOnUse" x1="683.6245" y1="917.1678" x2="690.3099" y2="872.7809" gradientTransform="matrix(0.9888 -0.1489 0.1489 0.9888 279.9583 -649.6741)">
			<stop  offset="0" style="stop-color:#39B0A9"/>
			<stop  offset="0.7497" style="stop-color:#51BDB7"/>
			<stop  offset="1" style="stop-color:#5BC4BF"/>
		</linearGradient>
		<path fill="url(#SVGID_35_)" d="M1104.7,149.9c-5.6,0.8-10.8,1.6-16.1-0.3c-5.3-2.2-17.3-6.1-20-10.7c0.3-0.4,0.6-0.8,0.9-0.8
			c-2.7-6.9-6.8-12,4.3-11.3c0.3-4.4-4.4-20,5.3-15.5c4.7,2.3,13.7,11,13.9,16.6c4-2.3,16.5,7.5,19,11.2c2.5,3,2.5,5.6,3.7,8.8
			c1.1,2.8,3.2,3.5,2.8,7.3c-3.9,0.9-6.5-1-10-1.8"/>
	</g>
	<g>
		
			<linearGradient id="SVGID_36_" gradientUnits="userSpaceOnUse" x1="710.1559" y1="916.4446" x2="720.4702" y2="847.965" gradientTransform="matrix(0.9888 -0.1489 0.1489 0.9888 279.9583 -649.6741)">
			<stop  offset="0" style="stop-color:#39B0A9"/>
			<stop  offset="0.7497" style="stop-color:#51BDB7"/>
			<stop  offset="1" style="stop-color:#5BC4BF"/>
		</linearGradient>
		<path fill="url(#SVGID_36_)" d="M1122.1,130.5c-11.2,2.4-3.7-6.9-11.1-8.8c2.4,8.6-6.7,13-14.7,9.3c-1.2,4.7-9.3,5.1-13.2,4.2
			c-6.9-1.2-18.9-12.6-15.5-17.9c4-5.8,9.5-16.6,17.8-13.4c-5-5.6,6.8-4.8,9.1-4.4c0.7-5.3-6-14.2,6.1-17.8c6.5-2,13.6,8.4,15,12.3
			c5.9-8,11.9-3.3,18.2,1.7c3.8,3.2,15,12.3,12.2,18.8c8-6.4,33.2,21.9,21.1,28.3c1.8,2.3,1.6,5.4-1.1,7.3c-3.4,2-5.8-1.4-8.7-3.2
			c-8.3-5.1-17.7-8.2-22.4-17.2c-5.8,6.1-12.9-10.8-14.2-15.1c0.4,2.9,0.5,5.9,0.6,8.9"/>
	</g>
</g>
<g>
	<g opacity="0.2">
		
			<linearGradient id="SVGID_37_" gradientUnits="userSpaceOnUse" x1="756.5729" y1="943.3943" x2="759.4608" y2="924.2202" gradientTransform="matrix(0.9888 -0.1489 0.1489 0.9888 279.9583 -649.6741)">
			<stop  offset="0.615" style="stop-color:#007C74"/>
			<stop  offset="0.6952" style="stop-color:#00867F"/>
			<stop  offset="0.8519" style="stop-color:#34A39C"/>
			<stop  offset="1" style="stop-color:#5BC4BF"/>
		</linearGradient>
		<path fill="url(#SVGID_37_)" d="M1165.7,168.1c2.4,2.6,5.9,3.8,7.3-0.1c3.7,2.4,11.3-0.4,13.8-3.4c3.3-4.5-1.8-7.7-5.9-10.1
			c-9.4-4.9-23.4-4.5-31.7,2.1c2.2,3.3,4.9,5.9,9.4,6.9"/>
	</g>
	<g opacity="0.2">
		<linearGradient id="SVGID_38_" gradientUnits="userSpaceOnUse" x1="1191.9952" y1="264.8423" x2="1191.9952" y2="121.5022">
			<stop  offset="0.615" style="stop-color:#007C74"/>
			<stop  offset="0.6952" style="stop-color:#00867F"/>
			<stop  offset="0.8519" style="stop-color:#34A39C"/>
			<stop  offset="1" style="stop-color:#5BC4BF"/>
		</linearGradient>
		<path fill="url(#SVGID_38_)" d="M1163.8,176.6c3.2,5.1,6.2,10.2,9.1,15.2c2.9,5.3,9.4,11.2,11,17.1c1.3,5.1,1.1,12,1.3,17.4
			c0.5,8.3,1.3,16.6,1.6,24.9c0,4.5,0,9.1,0,13.6c3.5-2.4,1.3-13.4,1.1-17.7c0-7.2-0.5-14.4-0.8-21.7c-0.5-11.2-0.8-24.1,5.1-34.2
			c5.9-9.9,10.2-20.9,16.6-30.8c4.8-7.5,11.5-12,16.8-18.7c-7.2-1.1-15.8,16.6-20.3,21.1c3.7-11,9.1-21.7,12-32.9
			c-6.2,0.8-8.6,18.5-10.4,23.5c-1.6,4.5-4,9.6-6.4,13.6c-3.2,4.8-4.8,10.7-8,15.5c-2.4-8.8,3.2-21.7,4-30.8c0.8-8,1.3-23-2.4-30.5
			c-2.4,4-1.9,12.3-1.9,16.8c-0.3,6.4-0.3,12.8-0.8,19.3c-0.3,6.4-1.1,13.1-2.1,19.3c-0.5,3.5-0.3,7-0.8,10.2
			c-0.8,4-3.2,7.2-3.7,11.2c-4.3-8.3-13.6-14.2-17.9-22.5c-4.3-8.3-2.7-20.3-7.8-28.6c-2.7,8,5.1,20.3,6.7,27.8
			c-1.6-1.6-3.5-2.9-5.6-3.7c0.3,0.8,0.5,1.1,0.8,1.6"/>
	</g>
	<g opacity="0.2">
		<linearGradient id="SVGID_39_" gradientUnits="userSpaceOnUse" x1="1156.8943" y1="186.869" x2="1156.8943" y2="120.3709">
			<stop  offset="0.615" style="stop-color:#007C74"/>
			<stop  offset="0.6952" style="stop-color:#00867F"/>
			<stop  offset="0.8519" style="stop-color:#34A39C"/>
			<stop  offset="1" style="stop-color:#5BC4BF"/>
		</linearGradient>
		<path fill="url(#SVGID_39_)" d="M1165.6,120.4c-7.7,5.6-17.4,11.4-18.2,20.3c-0.6,7.2,4.9,14.7,7.7,22.4
			c-4.2-5.6-7-11.9-12.6-16.1c-9.1,14,9.1,38.5,23.8,39.9c2.8-6.3-4.2-7-7.7-11.2c6.3,0,7.7-4.9,5.6-10.5
			c11.9-2.1,11.2-38.5,5.6-44.1"/>
	</g>
	<g opacity="0.2">
		<linearGradient id="SVGID_40_" gradientUnits="userSpaceOnUse" x1="1193.9227" y1="149.9821" x2="1193.9227" y2="69.1198">
			<stop  offset="0.615" style="stop-color:#007C74"/>
			<stop  offset="0.6952" style="stop-color:#00867F"/>
			<stop  offset="0.8519" style="stop-color:#34A39C"/>
			<stop  offset="1" style="stop-color:#5BC4BF"/>
		</linearGradient>
		<path fill="url(#SVGID_40_)" d="M1177.6,97.5c-9.8-2.8-7.7,13.3-8.4,19.6c-0.7,7,0,48.3,11.2,26.6c12.6,7,24.5-25.2,28-34.3
			c2.8-7.7,2.8-30.1,10.5-29.4c-6.3-16.8-21.7-13.3-25.9,4.2c-9.1-4.2-9.8,35.7-8.4,43.4c-2.1-7-4.9-14.7-4.9-21.7"/>
	</g>
	<g opacity="0.2">
		<linearGradient id="SVGID_41_" gradientUnits="userSpaceOnUse" x1="1225.3877" y1="149.4493" x2="1225.3877" y2="103.2573">
			<stop  offset="0.615" style="stop-color:#007C74"/>
			<stop  offset="0.6952" style="stop-color:#00867F"/>
			<stop  offset="0.8519" style="stop-color:#34A39C"/>
			<stop  offset="1" style="stop-color:#5BC4BF"/>
		</linearGradient>
		<path fill="url(#SVGID_41_)" d="M1229,103.6c-8.4-3.4-11.7,16.8-12.9,22.4c-11.2-3.9-7.8,17.9-5.6,23.5
			c8.4-6.7,33.5-26.3,31.8-38.6c-7.3,1.7-12.9,10.1-16.2,16.2c0-4.5,1.1-8.9,2.2-13.4"/>
	</g>
	<g>
		
			<linearGradient id="SVGID_42_" gradientUnits="userSpaceOnUse" x1="751.061" y1="947.0998" x2="753.949" y2="927.9257" gradientTransform="matrix(0.9888 -0.1489 0.1489 0.9888 279.9583 -649.6741)">
			<stop  offset="0.5134" style="stop-color:#43BEAD"/>
			<stop  offset="0.847" style="stop-color:#53C2B8"/>
			<stop  offset="1" style="stop-color:#5BC4BF"/>
		</linearGradient>
		<path fill="url(#SVGID_42_)" d="M1160.8,172.6c2.4,2.6,5.9,3.8,7.3-0.1c3.7,2.4,11.3-0.4,13.8-3.4c3.3-4.5-1.8-7.7-5.9-10.1
			c-9.4-4.9-23.4-4.5-31.7,2.1c2.2,3.3,4.9,5.9,9.4,6.9"/>
	</g>
	<g>
		<linearGradient id="SVGID_43_" gradientUnits="userSpaceOnUse" x1="1190.8922" y1="268.1245" x2="1190.8922" y2="124.7844">
			<stop  offset="0.8659" style="stop-color:#00A89A"/>
			<stop  offset="0.9278" style="stop-color:#2FB2A7"/>
			<stop  offset="1" style="stop-color:#5BC4BF"/>
		</linearGradient>
		<path fill="url(#SVGID_43_)" d="M1162.7,179.9c3.2,5.1,6.2,10.2,9.1,15.2c2.9,5.3,9.4,11.2,11,17.1c1.3,5.1,1.1,12,1.3,17.4
			c0.5,8.3,1.3,16.6,1.6,24.9c0,4.5,0,9.1,0,13.6c3.5-2.4,1.3-13.4,1.1-17.7c0-7.2-0.5-14.4-0.8-21.7c-0.5-11.2-0.8-24.1,5.1-34.2
			c5.9-9.9,10.2-20.9,16.6-30.8c4.8-7.5,11.5-12,16.8-18.7c-7.2-1.1-15.8,16.6-20.3,21.1c3.7-11,9.1-21.7,12-32.9
			c-6.2,0.8-8.6,18.5-10.4,23.5c-1.6,4.5-4,9.6-6.4,13.6c-3.2,4.8-4.8,10.7-8,15.5c-2.4-8.8,3.2-21.7,4-30.8c0.8-8,1.3-23-2.4-30.5
			c-2.4,4-1.9,12.3-1.9,16.8c-0.3,6.4-0.3,12.8-0.8,19.3c-0.3,6.4-1.1,13.1-2.1,19.3c-0.5,3.5-0.3,7-0.8,10.2
			c-0.8,4-3.2,7.2-3.7,11.2c-4.3-8.3-13.6-14.2-17.9-22.5s-2.7-20.3-7.8-28.6c-2.7,8,5.1,20.3,6.7,27.8c-1.6-1.6-3.5-2.9-5.6-3.7
			c0.3,0.8,0.5,1.1,0.8,1.6"/>
	</g>
	<g>
		<linearGradient id="SVGID_44_" gradientUnits="userSpaceOnUse" x1="1151.9958" y1="191.354" x2="1151.9958" y2="124.8559">
			<stop  offset="0.5134" style="stop-color:#43BEAD"/>
			<stop  offset="0.847" style="stop-color:#53C2B8"/>
			<stop  offset="1" style="stop-color:#5BC4BF"/>
		</linearGradient>
		<path fill="url(#SVGID_44_)" d="M1160.7,124.9c-7.7,5.6-17.4,11.4-18.2,20.3c-0.6,7.2,4.9,14.7,7.7,22.4
			c-4.2-5.6-7-11.9-12.6-16.1c-9.1,14,9.1,38.5,23.8,39.9c2.8-6.3-4.2-7-7.7-11.2c6.3,0,7.7-4.9,5.6-10.5
			c11.9-2.1,11.2-38.5,5.6-44.1"/>
	</g>
	<g>
		<linearGradient id="SVGID_45_" gradientUnits="userSpaceOnUse" x1="1189.0243" y1="154.4671" x2="1189.0243" y2="73.6048">
			<stop  offset="0.5134" style="stop-color:#43BEAD"/>
			<stop  offset="0.847" style="stop-color:#53C2B8"/>
			<stop  offset="1" style="stop-color:#5BC4BF"/>
		</linearGradient>
		<path fill="url(#SVGID_45_)" d="M1172.7,102c-9.8-2.8-7.7,13.3-8.4,19.6c-0.7,7,0,48.3,11.2,26.6c12.6,7,24.5-25.2,28-34.3
			c2.8-7.7,2.8-30.1,10.5-29.4c-6.3-16.8-21.7-13.3-25.9,4.2c-9.1-4.2-9.8,35.7-8.4,43.4c-2.1-7-4.9-14.7-4.9-21.7"/>
	</g>
	<g>
		<linearGradient id="SVGID_46_" gradientUnits="userSpaceOnUse" x1="1220.4893" y1="153.9343" x2="1220.4893" y2="107.7423">
			<stop  offset="0.5134" style="stop-color:#43BEAD"/>
			<stop  offset="0.847" style="stop-color:#53C2B8"/>
			<stop  offset="1" style="stop-color:#5BC4BF"/>
		</linearGradient>
		<path fill="url(#SVGID_46_)" d="M1224.1,108.1c-8.4-3.4-11.7,16.8-12.9,22.4c-11.2-3.9-7.8,17.9-5.6,23.5
			c8.4-6.7,33.5-26.3,31.8-38.6c-7.3,1.7-12.9,10.1-16.2,16.2c0-4.5,1.1-8.9,2.2-13.4"/>
	</g>
</g>
<g>
	<linearGradient id="SVGID_47_" gradientUnits="userSpaceOnUse" x1="1227.6659" y1="157.7375" x2="1227.6659" y2="131.4762">
		<stop  offset="0.5134" style="stop-color:#43BEAD"/>
		<stop  offset="0.847" style="stop-color:#53C2B8"/>
		<stop  offset="1" style="stop-color:#5BC4BF"/>
	</linearGradient>
	<path fill="url(#SVGID_47_)" d="M1234.3,132.6c-10.1,4.5-21.2,14.5-22.4,25.1c4.5-2.2,9.5-5,13.4-7.3c5,7.8,24.6-16.8,15.6-19"/>
</g>
<g>
	<g opacity="0.2">
		<g>
			
				<linearGradient id="SVGID_48_" gradientUnits="userSpaceOnUse" x1="-2754.0959" y1="3123.4016" x2="-2807.2737" y2="3156.5391" gradientTransform="matrix(0.5289 -0.8487 0.8487 0.5289 -11.2123 -3772.5835)">
				<stop  offset="0.615" style="stop-color:#007C74"/>
				<stop  offset="0.6952" style="stop-color:#00867F"/>
				<stop  offset="0.8519" style="stop-color:#34A39C"/>
				<stop  offset="1" style="stop-color:#5BC4BF"/>
			</linearGradient>
			<path fill="url(#SVGID_48_)" d="M1181.8,274.6c10,0.2,19.8-2.7,28.8-4.2c-0.3-1.2-0.1-3.1-1.8-5.2c5.4-0.6,11.4,1.1,15.5,2.6
				c-1.7-2.1-3-4.9-5.4-7.4c12.9-3,19.7,10.3,25.5,18.9c19.7-13.9-15.5-47.9-27.1-55.1c-16.7-10.4-37-10-53.8,0.7
				c1.4,0.9,1.7,2.1,3.2,3c-12.8,1.1-26.1,7.9-35.6,15.1c-10.2,6.7-23.2,17.8-8.1,21.1c7.9,1.9,15.3-3.6,21.9-4.5
				c5.4-0.6,6.5,4.1,14.5,1c10.3-3.6,15.6-15.4,26-19c-7.4,5.4-14.3,13.2-12.1,22.6c-13.3-1.2-7.7,12.3-1.6,9.1"/>
		</g>
		<g>
			
				<linearGradient id="SVGID_49_" gradientUnits="userSpaceOnUse" x1="-1238.8152" y1="2647.2344" x2="-1284.0308" y2="2703.0818" gradientTransform="matrix(0.7772 -0.6292 0.6292 0.7772 393.7838 -2625.8547)">
				<stop  offset="0.615" style="stop-color:#007C74"/>
				<stop  offset="0.6952" style="stop-color:#00867F"/>
				<stop  offset="0.8519" style="stop-color:#34A39C"/>
				<stop  offset="1" style="stop-color:#5BC4BF"/>
			</linearGradient>
			<path fill="url(#SVGID_49_)" d="M1098.4,263.5c-20.4-2.1-43.8-16.1-56.9-30.9c4.4-6.8,16.9,0.6,24.1,1.3
				c-12.2-11,8.8-14.9,16-7.4c-0.8-15.9,21.5,3.5,25.3,8.1c-3.1-5.2-18.7-19-12.8-22.6c9.7-5.7,26.2,16.1,29.2,22.5
				c-7.5-21.4,5.1-19.5,18.4-7.2c5.5,5.4,19.3,36,1.4,27.5c8.4,6.4,2.8,19.7,1.9,28.1c-11.8-3.7-29.9-22-41.7-19"/>
		</g>
		<g>
			
				<linearGradient id="SVGID_50_" gradientUnits="userSpaceOnUse" x1="-5865.7539" y1="2103.5403" x2="-5865.7539" y2="2040.327" gradientTransform="matrix(-0.8708 0.4917 0.4917 0.8708 -5046.6953 1321.4277)">
				<stop  offset="0.615" style="stop-color:#007C74"/>
				<stop  offset="0.6952" style="stop-color:#00867F"/>
				<stop  offset="0.8519" style="stop-color:#34A39C"/>
				<stop  offset="1" style="stop-color:#5BC4BF"/>
			</linearGradient>
			<path fill="url(#SVGID_50_)" d="M1086.3,227.1c5.6-5.7,10.4,6.1,13.3,10.1c3.2,4.5,18.6,32.9,2.6,22.4
				c-5.9,9.6-26.4-7.7-32.2-12.6c-4.9-4.2-13.5-19.4-18.4-16c-2.2-13.9,9.7-17.4,19.2-7.1c4.6-6.4,20.4,20.5,22.4,26.3
				c-1.3-5.6-2.3-11.9-5-16.7"/>
		</g>
		<g>
			
				<linearGradient id="SVGID_51_" gradientUnits="userSpaceOnUse" x1="-1413.4097" y1="2373.4561" x2="-1448.2283" y2="2413.7422" gradientTransform="matrix(0.7566 -0.6539 0.6539 0.7566 535.7374 -2494.0747)">
				<stop  offset="0.615" style="stop-color:#007C74"/>
				<stop  offset="0.6952" style="stop-color:#00867F"/>
				<stop  offset="0.8519" style="stop-color:#34A39C"/>
				<stop  offset="1" style="stop-color:#5BC4BF"/>
			</linearGradient>
			<path fill="url(#SVGID_51_)" d="M1027.4,273.8c4.4-1.1,8.7-2.2,12.6-2.9c-1.3-1.5-1.1-4.4-2.4-5.9c1.5-1.3,4.1-3.5,5.1-4.4
				c6.9,2.9,20.3,15.3,20.8,2.5c-0.5-6.7-11.5-18.5-16.9-22.7c-9.4-7.8-43.9-25.1-51-5.6c12.7-3.8,35.6,2.1,42.8,13.6
				c-10.1-5.5-25.7-7.1-37-7.9c-6.1-0.9-15.1-2.1-18.3,3.4c-3.8,6.9,3.6,15.5,9.8,15.5c-9.6-5.9-33.3,12.8-8,18.5
				c14.5,3.4,27.7-0.8,42.2-3.6"/>
		</g>
	</g>
	<g>
		<g>
			
				<linearGradient id="SVGID_52_" gradientUnits="userSpaceOnUse" x1="-2757.9434" y1="3119.4326" x2="-2811.1211" y2="3152.5701" gradientTransform="matrix(0.5289 -0.8487 0.8487 0.5289 -11.2123 -3772.5835)">
				<stop  offset="0" style="stop-color:#009D8E"/>
				<stop  offset="0.2771" style="stop-color:#009E8E"/>
				<stop  offset="0.5472" style="stop-color:#00A091"/>
				<stop  offset="0.8135" style="stop-color:#00A494"/>
				<stop  offset="1" style="stop-color:#00A798"/>
			</linearGradient>
			<path fill="url(#SVGID_52_)" d="M1176.3,275.8c10,0.2,19.8-2.7,28.8-4.2c-0.3-1.2-0.1-3.1-1.8-5.2c5.4-0.6,11.4,1.1,15.5,2.6
				c-1.7-2.1-3-4.9-5.4-7.4c12.9-3,19.7,10.3,25.5,18.9c19.7-13.9-15.5-47.9-27.1-55.1c-16.7-10.4-37-10-53.8,0.7
				c1.4,0.9,1.7,2.1,3.2,3c-12.8,1.1-26.1,7.9-35.6,15.1c-10.2,6.7-23.2,17.8-8.1,21.1c7.9,1.9,15.3-3.6,21.9-4.5
				c5.4-0.6,6.5,4.1,14.5,1c10.3-3.6,15.6-15.4,26-19c-7.4,5.4-14.3,13.2-12.1,22.6c-13.3-1.2-7.7,12.3-1.6,9.1"/>
		</g>
		<g>
			
				<linearGradient id="SVGID_53_" gradientUnits="userSpaceOnUse" x1="-1240.3892" y1="2644.7603" x2="-1285.6046" y2="2700.6079" gradientTransform="matrix(0.7772 -0.6292 0.6292 0.7772 393.7838 -2625.8547)">
				<stop  offset="0" style="stop-color:#009D8E"/>
				<stop  offset="0.2771" style="stop-color:#009E8E"/>
				<stop  offset="0.5472" style="stop-color:#00A091"/>
				<stop  offset="0.8135" style="stop-color:#00A494"/>
				<stop  offset="1" style="stop-color:#00A798"/>
			</linearGradient>
			<path fill="url(#SVGID_53_)" d="M1095.6,262.6c-20.4-2.1-43.8-16.1-56.9-30.9c4.4-6.8,16.9,0.6,24.1,1.3
				c-12.2-11,8.8-14.9,16-7.4c-0.8-15.9,21.5,3.5,25.3,8.1c-3.1-5.2-18.7-19-12.8-22.6c9.7-5.7,26.2,16.1,29.2,22.5
				c-7.5-21.4,5.1-19.5,18.4-7.2c5.5,5.4,19.3,36,1.4,27.5c8.4,6.4,2.8,19.7,1.9,28.1c-11.8-3.7-29.9-22-41.7-19"/>
		</g>
		<g>
			
				<linearGradient id="SVGID_54_" gradientUnits="userSpaceOnUse" x1="-5862.8999" y1="2105.0754" x2="-5862.8999" y2="2041.8621" gradientTransform="matrix(-0.8708 0.4917 0.4917 0.8708 -5046.6953 1321.4277)">
				<stop  offset="0" style="stop-color:#009D8E"/>
				<stop  offset="4.585733e-02" style="stop-color:#00A091"/>
				<stop  offset="0.1093" style="stop-color:#00A495"/>
				<stop  offset="0.174" style="stop-color:#00A797"/>
				<stop  offset="0.2415" style="stop-color:#00A798"/>
				<stop  offset="0.6283" style="stop-color:#00A99A"/>
				<stop  offset="0.8306" style="stop-color:#00ADA2"/>
				<stop  offset="0.9851" style="stop-color:#00B6B0"/>
			</linearGradient>
			<path fill="url(#SVGID_54_)" d="M1084.6,229.8c5.6-5.7,10.4,6.1,13.3,10.1c3.2,4.5,18.6,32.9,2.6,22.4
				c-5.9,9.6-26.4-7.7-32.2-12.6c-4.9-4.2-13.5-19.4-18.4-16c-2.2-13.9,9.7-17.4,19.2-7.1c4.6-6.4,20.4,20.5,22.4,26.3
				c-1.3-5.6-2.3-11.9-5-16.7"/>
		</g>
		<g>
			
				<linearGradient id="SVGID_55_" gradientUnits="userSpaceOnUse" x1="-1416.5107" y1="2374.3975" x2="-1451.3293" y2="2414.6836" gradientTransform="matrix(0.7566 -0.6539 0.6539 0.7566 535.7374 -2494.0747)">
				<stop  offset="0" style="stop-color:#009D8E"/>
				<stop  offset="0.2771" style="stop-color:#009E8E"/>
				<stop  offset="0.5472" style="stop-color:#00A091"/>
				<stop  offset="0.8135" style="stop-color:#00A494"/>
				<stop  offset="1" style="stop-color:#00A798"/>
			</linearGradient>
			<path fill="url(#SVGID_55_)" d="M1025.6,276.5c4.4-1.1,8.7-2.2,12.6-2.9c-1.3-1.5-1.1-4.4-2.4-5.9c1.5-1.3,4.1-3.5,5.1-4.4
				c6.9,2.9,20.3,15.3,20.8,2.5c-0.5-6.7-11.5-18.5-16.9-22.7c-9.4-7.8-43.9-25.1-51-5.6c12.7-3.8,35.6,2.1,42.8,13.6
				c-10.1-5.5-25.7-7.1-37-7.9c-6.1-0.9-15.1-2.1-18.3,3.4c-3.8,6.9,3.6,15.5,9.8,15.5c-9.6-5.9-33.3,12.8-8,18.5
				c14.5,3.4,27.7-0.8,42.2-3.6"/>
		</g>
	</g>
</g>
<g opacity="0.1">
	<g opacity="0.2">
		<g>
			
				<linearGradient id="SVGID_56_" gradientUnits="userSpaceOnUse" x1="1122.4895" y1="-914.9709" x2="1122.4895" y2="-914.9709" gradientTransform="matrix(0.9302 0.3672 -0.3672 0.9302 -865.8303 838.3683)">
				<stop  offset="0.615" style="stop-color:#007C74"/>
				<stop  offset="0.6952" style="stop-color:#00867F"/>
				<stop  offset="0.8519" style="stop-color:#34A39C"/>
				<stop  offset="1" style="stop-color:#5BC4BF"/>
			</linearGradient>
			<path fill="url(#SVGID_56_)" d="M514.2,399.4"/>
		</g>
	</g>
	<g>
		<g>
			
				<linearGradient id="SVGID_57_" gradientUnits="userSpaceOnUse" x1="632.91" y1="-820.0156" x2="734.1749" y2="-820.0156" gradientTransform="matrix(0.9302 0.3672 -0.3672 0.9302 -865.8303 838.3683)">
				<stop  offset="0.5134" style="stop-color:#43BEAD"/>
				<stop  offset="0.7379" style="stop-color:#58BCAE"/>
				<stop  offset="1" style="stop-color:#70BDB2"/>
			</linearGradient>
			<path fill="url(#SVGID_57_)" d="M79.1,305.5c-17.2-3.7-40.9,5.5-45.1,24c-4.7-23.5-26-1-19.7,18.6c6.5,22.7,20.7,22.1,41.6,16.4
				c30.5-6.6,77.2-34.6,80-69.2c-11,0.3-22.7,6.5-31.3,12.5"/>
		</g>
		<g>
			
				<linearGradient id="SVGID_58_" gradientUnits="userSpaceOnUse" x1="807.996" y1="-877.7449" x2="999.4658" y2="-877.7449" gradientTransform="matrix(0.9302 0.3672 -0.3672 0.9302 -865.8303 838.3683)">
				<stop  offset="0.5134" style="stop-color:#43BEAD"/>
				<stop  offset="0.7379" style="stop-color:#58BCAE"/>
				<stop  offset="1" style="stop-color:#70BDB2"/>
			</linearGradient>
			<path fill="url(#SVGID_58_)" d="M247.8,310.9c-21.5,2.7-49.7,17.6-50.8,39.4c1.6,0.6,3.2,1.3,6.4,2.5c-6.4,6.8-13.4,15.1-15,23.8
				c38.5-3.4,70.4-55.8,115.4-19.5c-1.3,3.2-3.5,4.2-4.8,7.4c28.6,7.6,74.1-13.5,103.3-16.8c-11.1-37.8-65.7-40.8-96.4-28.8
				c-7.8-17.9-28.6-16.9-44.3-10.1"/>
		</g>
		<g>
			
				<linearGradient id="SVGID_59_" gradientUnits="userSpaceOnUse" x1="918.2371" y1="-889.2216" x2="1113.5315" y2="-889.2216" gradientTransform="matrix(0.9302 0.3672 -0.3672 0.9302 -865.8303 838.3683)">
				<stop  offset="0.5134" style="stop-color:#43BEAD"/>
				<stop  offset="0.7379" style="stop-color:#58BCAE"/>
				<stop  offset="1" style="stop-color:#70BDB2"/>
			</linearGradient>
			<path fill="url(#SVGID_59_)" d="M314.2,378c-9.3,9.3-16.9,19.3-22.3,28.3c21.8,1.2,38.5-3.4,58.7-2.8c23.1-2,48.1-8.9,72.8-10.3
				c13.2-0.4,34.4,2.4,48.1,0.4c12.8-4.2,33.9-20.1,47.7-31.3c-18.7-9.2-29.8,14.3-47.8,12.7c-16.4-0.9-20.6-23-43.4-7.8
				c-14.3-39.1-71.6-2.2-92.4,8.1"/>
		</g>
		<g>
			
				<linearGradient id="SVGID_60_" gradientUnits="userSpaceOnUse" x1="1099.7054" y1="-919.3931" x2="1367.587" y2="-919.3931" gradientTransform="matrix(0.9302 0.3672 -0.3672 0.9302 -865.8303 838.3683)">
				<stop  offset="0.5134" style="stop-color:#43BEAD"/>
				<stop  offset="0.7379" style="stop-color:#58BCAE"/>
				<stop  offset="1" style="stop-color:#70BDB2"/>
			</linearGradient>
			<path fill="url(#SVGID_60_)" d="M480.4,423.1c8.7,10.9,13.6,22.1,14,35.2c13.2-0.4,11.5-1,14.2,11.2
				c21.2-6.5,113-55.7,125.4-21.1c31.7-9.8,47.4-16.6,81.5-8.7c13.5,3.5,28.9,11.4,42.1,11c8.8-50.4-57-39.2-90.4-39.4
				c33.8-57.3-144.8-75.7-166-7.9"/>
		</g>
		<g>
			
				<linearGradient id="SVGID_61_" gradientUnits="userSpaceOnUse" x1="1140.1562" y1="-1046.8909" x2="1374.5001" y2="-1046.8909" gradientTransform="matrix(0.9302 0.3672 -0.3672 0.9302 -865.8303 838.3683)">
				<stop  offset="0.5134" style="stop-color:#43BEAD"/>
				<stop  offset="0.7379" style="stop-color:#58BCAE"/>
				<stop  offset="1" style="stop-color:#70BDB2"/>
			</linearGradient>
			<path fill="url(#SVGID_61_)" d="M663.4,298.4c7.4-4.5,17.3-15.5,17.2-24.8c-2-23.1-15.1-4.1-29.9-4.4c-9.3,0-9.3-9.3-23.8-5.7
				c-13.8,2-30.1,19.7-39.3,29.1c-21.4,21.3-33.8,48-39.8,77.2c30.4-15.9,132.9-68.3,155.6-12.9c41.6-30,79.7-55.9,127.1-72.5
				c-15.8-11.8-38.8-0.5-56.1,5.7c20.9-62.4-92.7,13.6-105.5,27.1c8-6.1,0-9.3,0.3-14.8"/>
		</g>
	</g>
</g>
</svg>
