<?xml version="1.0" encoding="utf-8"?>
<!-- Generator: Adobe Illustrator 17.0.0, SVG Export Plug-In . SVG Version: 6.00 Build 0)  -->
<!DOCTYPE svg PUBLIC "-//W3C//DTD SVG 1.1//EN" "http://www.w3.org/Graphics/SVG/1.1/DTD/svg11.dtd">
<svg version="1.1" id="Layer_1" xmlns="http://www.w3.org/2000/svg" xmlns:xlink="http://www.w3.org/1999/xlink" x="0px" y="0px"
	 width="1279.999px" height="1408.715px" viewBox="0 0 1279.999 1408.715" enable-background="new 0 0 1279.999 1408.715"
	 xml:space="preserve">
<linearGradient id="SVGID_1_" gradientUnits="userSpaceOnUse" x1="639.9995" y1="1408.715" x2="639.9995" y2="1.212356e-08">
	<stop  offset="0" style="stop-color:#005558"/>
	<stop  offset="0.0837" style="stop-color:#00575B"/>
	<stop  offset="0.2138" style="stop-color:#005F61"/>
	<stop  offset="0.3739" style="stop-color:#266D6C"/>
	<stop  offset="0.5579" style="stop-color:#667F7A"/>
	<stop  offset="0.7596" style="stop-color:#AF9488"/>
	<stop  offset="0.8048" style="stop-color:#C49A8C"/>
	<stop  offset="0.9794" style="stop-color:#FFDD9A"/>
</linearGradient>
<path fill="url(#SVGID_1_)" d="M0,92.027c0,0,75.059-3.333,114.74-24.633c3.391-1.82,10.266-6.27,11.914-9.747
	c1.044-2.202-1.723-8.024,0-9.747c2.489-2.489,10.702-0.992,14.08,0c4.324,1.27,12.108,6.434,15.163,9.747
	c1.56,1.692,2.757,6.445,4.332,8.123c3.703,3.945,13.207,9.894,18.412,11.372c2.344,0.666,7.313,0.101,9.747,0
	c3.258-0.135,9.777-0.569,12.997-1.083c5.772-0.922,16.939-4.734,22.744-5.415c4.84-0.568,15.049,1.997,19.495,0
	c1.487-0.668,2.744-4.505,4.332-4.874c3.135-0.727,10.12,2.202,11.914,4.874c0.453,0.674-0.86,19.4-0.626,9.311
	c0.058-2.496,8.811-6.281,10.373-8.228c0.932-1.162-0.783-4.69,0-5.957c2.387-3.863,11.826-7.08,16.246-8.123
	c4.216-0.995,13.062,0.752,17.329,0c3.121-0.55,9.065-2.943,11.914-4.332c2.296-1.12,6.665-3.825,8.664-5.415
	c3.296-2.622,8.756-9.126,11.914-11.914c2.314-2.043,7.612-5.352,9.747-7.581c1.939-2.025,4.461-7.214,6.498-9.14
	c2.79-2.639,11.141-4.826,12.997-8.188c1.177-2.134-1.723-8.024,0-9.747c1.915-1.915,8.662-1.622,10.83,0
	c3.072,2.299,4.513,22.82,4.513,22.82s8.675-5.289,11.733-4.884c1.879,0.249,6.241-1.34,7.581,0c2.19,2.19-1.84,9.898,0,12.389
	c2.188,2.962,10.438,3.785,14.08,4.332c2.41,0.362,7.399-0.65,9.747,0c3.043,0.843,8.226,4.713,10.83,6.498
	c5.093,3.49,14.486,11.552,19.495,15.163c3.168,2.283,9.327,7.328,12.997,8.664c2.304,0.839,7.412,0.338,9.747,1.083
	c5.311,1.695,14.444,8.47,19.495,10.83c3.417,1.597,10.372,4.727,14.08,5.415c2.662,0.494,8.266-0.868,10.83,0
	c5.489,1.858,12.923,12.222,18.412,14.08c2.821,0.955,8.935,0,11.914,0c4.603,0,14.103,1.619,18.412,0
	c2.694-1.012,6.699-5.478,8.664-7.581c4.88-5.223,11.514-18.586,17.329-22.744c4.875-3.486,17.322-5.027,22.744-7.581
	c2.311-1.088,6.137-5.789,8.664-5.415c2.847,0.421,5.28,6.936,7.581,8.664c3.583,2.692,12.114,5.845,16.246,7.581
	c2.133,0.896,6.53,2.358,8.664,3.249c3.577,1.494,10.454,5.126,14.08,6.498c2.644,1.001,8.298,1.994,10.83,3.249
	c3.3,1.635,8.678,6.905,11.914,8.664c3.313,1.801,10.34,5.901,14.08,5.415c5.962-0.774,14.104-11.419,19.495-14.08
	c2.535-1.251,8.014-3.492,10.83-3.249c3.016,0.26,7.853,4.867,10.831,5.415c2.676,0.492,8.176-0.486,10.83-1.083
	c3.927-0.884,11.291-4.314,15.163-5.415c3.729-1.06,11.666-1.574,15.163-3.249c5.034-2.411,13.144-10.385,17.329-14.08
	c3.374-2.978,8.571-11.641,12.997-12.455c3.759-0.692,10.673,4.225,14.08,5.957c2.815,1.431,7.898,5.328,10.83,6.498
	c2.319,0.925,7.251,2.199,9.747,2.166c2.233-0.029,6.432-2.166,8.664-2.166c3.349,0,9.781,2.313,12.997,3.249
	c2.466,0.718,7.374,2.266,9.747,3.249c1.678,0.695,4.682,3.216,6.498,3.249c3.271,0.061,9.348-3.385,11.913-5.415
	c4.162-3.293,8.626-13.776,12.997-16.787c6.524-4.496,22.488-8.043,30.325-9.206c4.017-0.596,12.335-1.094,16.246,0
	c4.271,1.195,10.892,8.011,15.163,9.206c1.564,0.438,4.957,0.514,6.498,0c1.927-0.642,4.68-3.971,6.498-4.874
	c1.766-0.877,5.785-1.354,7.581-2.166c4.106-1.857,11.654-6.92,15.163-9.747c2.385-1.922,6.229-6.807,8.664-8.664
	c3.221-2.457,10.164-6.983,14.08-8.02c1.832-0.485,5.742-0.457,7.581,0c4.162,1.033,11.001,6.987,15.163,8.02
	c1.84,0.457,5.687-0.063,7.581,0c4.068,0.135,12.298,0.089,16.246,1.083c3.173,0.799,8.857,4.248,11.913,5.415
	c4.24,1.619,13.071,3.842,17.329,5.415c1.934,0.715,5.757,2.288,7.581,3.249c4.254,2.24,11.628,8.95,16.246,10.289
	c1.04,0.302,3.294,0.309,4.332,0c4.03-1.201,10.767-6.615,14.08-9.206c4.075-3.187,10.876-11.185,15.163-14.08
	c4.959-3.349,16.952-6.493,21.661-10.186c3.726-2.922,14.116-11.591,18.846-11.384c16.529,0.724,14.97,43.699,34.533,69.996
	c13.368,17.97,31,17.364,31,17.364l-1.52,1315.108L0,1408.715V92.027z"/>
</svg>
