<?xml version="1.0" encoding="utf-8"?>
<!-- Generator: Adobe Illustrator 17.0.0, SVG Export Plug-In . SVG Version: 6.00 Build 0)  -->
<!DOCTYPE svg PUBLIC "-//W3C//DTD SVG 1.1//EN" "http://www.w3.org/Graphics/SVG/1.1/DTD/svg11.dtd">
<svg version="1.1" id="Layer_1" xmlns="http://www.w3.org/2000/svg" xmlns:xlink="http://www.w3.org/1999/xlink" x="0px" y="0px"
	 width="1279.961px" height="1408.935px" viewBox="0 0 1279.961 1408.935" enable-background="new 0 0 1279.961 1408.935"
	 xml:space="preserve">
<linearGradient id="SVGID_1_" gradientUnits="userSpaceOnUse" x1="639.9805" y1="1408.9352" x2="639.9805" y2="3.235193e-05">
	<stop  offset="0" style="stop-color:#005558"/>
	<stop  offset="0.0705" style="stop-color:#00575B"/>
	<stop  offset="0.18" style="stop-color:#005F61"/>
	<stop  offset="0.3148" style="stop-color:#266D6C"/>
	<stop  offset="0.4697" style="stop-color:#667F7A"/>
	<stop  offset="0.6396" style="stop-color:#AF9488"/>
	<stop  offset="0.6777" style="stop-color:#C49A8C"/>
	<stop  offset="0.9794" style="stop-color:#FFDD9A"/>
</linearGradient>
<path fill="url(#SVGID_1_)" d="M0.004,91.423c0,0,74.926-2.715,114.613-24.018c3.391-1.82,10.267-6.271,11.915-9.749
	c1.044-2.202-1.723-8.026,0-9.749c2.489-2.489,10.704-0.992,14.082,0c4.324,1.27,12.11,6.435,15.165,9.749
	c1.56,1.693,2.758,6.446,4.333,8.124c3.703,3.945,13.209,9.896,18.415,11.374c2.345,0.666,7.314,0.101,9.749,0
	c3.258-0.136,9.779-0.569,12.999-1.083c5.773-0.922,16.942-4.734,22.748-5.416c4.841-0.568,15.051,1.997,19.498,0
	c1.487-0.668,2.745-4.506,4.333-4.874c3.135-0.727,10.121,2.202,11.915,4.874c0.453,0.674-0.86,19.403-0.626,9.313
	c0.058-2.496,8.812-6.282,10.375-8.23c0.932-1.162-0.783-4.691,0-5.958c2.388-3.863,11.828-7.081,16.248-8.124
	c4.217-0.995,13.064,0.752,17.331,0c3.122-0.55,9.066-2.944,11.915-4.333c2.296-1.12,6.666-3.826,8.666-5.416
	c3.297-2.623,8.757-9.127,11.915-11.915c2.315-2.043,7.613-5.353,9.749-7.583c1.94-2.025,4.462-7.215,6.499-9.142
	c2.791-2.639,11.143-4.827,12.999-8.19c1.178-2.134-1.723-8.026,0-9.749c1.915-1.915,8.664-1.622,10.832,0
	c3.073,2.299,4.513,22.823,4.513,22.823s8.676-5.29,11.735-4.884c1.879,0.249,6.242-1.34,7.582,0c2.191,2.191-1.84,9.899,0,12.391
	c2.188,2.963,10.439,3.785,14.082,4.333c2.41,0.362,7.4-0.651,9.749,0c3.043,0.843,8.227,4.714,10.832,6.499
	c5.094,3.491,14.488,11.554,19.498,15.165c3.168,2.284,9.329,7.329,12.999,8.666c2.304,0.839,7.413,0.338,9.749,1.083
	c5.312,1.695,14.446,8.471,19.498,10.832c3.417,1.597,10.373,4.727,14.082,5.416c2.663,0.494,8.267-0.868,10.832,0
	c5.489,1.858,12.925,12.223,18.415,14.082c2.822,0.955,8.937,0,11.915,0c4.604,0,14.105,1.619,18.415,0
	c2.695-1.013,6.7-5.479,8.666-7.583c4.881-5.224,11.516-18.589,17.331-22.748c4.876-3.487,17.324-5.028,22.747-7.583
	c2.311-1.089,6.138-5.789,8.666-5.416c2.848,0.421,5.281,6.937,7.583,8.666c3.584,2.692,12.115,5.846,16.248,7.583
	c2.133,0.896,6.531,2.358,8.666,3.25c3.578,1.494,10.456,5.126,14.082,6.499c2.644,1.001,8.299,1.994,10.832,3.25
	c3.3,1.636,8.679,6.906,11.915,8.666c3.314,1.802,10.341,5.902,14.082,5.416c5.963-0.774,14.106-11.421,19.498-14.082
	c2.535-1.251,8.015-3.493,10.832-3.25c3.016,0.26,7.854,4.868,10.832,5.416c2.677,0.493,8.177-0.486,10.832-1.083
	c3.928-0.884,11.293-4.315,15.165-5.416c3.729-1.061,11.668-1.575,15.165-3.25c5.035-2.412,13.146-10.387,17.331-14.082
	c3.374-2.979,8.572-11.643,12.999-12.457c3.759-0.692,10.674,4.225,14.082,5.958c2.815,1.431,7.899,5.329,10.832,6.499
	c2.319,0.925,7.252,2.199,9.749,2.166c2.233-0.029,6.433-2.166,8.666-2.166c3.35,0,9.782,2.313,12.999,3.25
	c2.467,0.718,7.375,2.267,9.749,3.25c1.678,0.695,4.683,3.216,6.499,3.25c3.272,0.061,9.349-3.386,11.915-5.416
	c4.163-3.294,8.628-13.778,12.999-16.79c6.525-4.496,22.492-8.044,30.33-9.207c4.018-0.596,12.336-1.095,16.248,0
	c4.271,1.195,10.894,8.012,15.165,9.207c1.565,0.438,4.958,0.514,6.499,0c1.927-0.642,4.68-3.971,6.499-4.874
	c1.766-0.877,5.786-1.354,7.583-2.166c4.106-1.858,11.656-6.921,15.165-9.749c2.385-1.923,6.23-6.808,8.666-8.666
	c3.221-2.457,10.165-6.984,14.082-8.021c1.832-0.485,5.743-0.457,7.583,0c4.163,1.033,11.002,6.988,15.165,8.021
	c1.84,0.457,5.688-0.063,7.582,0c4.069,0.135,12.3,0.089,16.248,1.083c3.173,0.799,8.859,4.249,11.915,5.416
	c4.241,1.619,13.073,3.843,17.331,5.416c1.935,0.715,5.758,2.289,7.583,3.25c4.254,2.24,11.63,8.951,16.248,10.291
	c1.04,0.302,3.295,0.309,4.333,0c4.031-1.201,10.769-6.616,14.082-9.207c4.075-3.187,10.877-11.186,15.165-14.082
	c4.96-3.35,16.955-6.494,21.664-10.188c3.727-2.922,14.118-11.593,18.849-11.386c16.532,0.724,14.973,43.706,34.539,70.007
	c13.37,17.972,30.907,16.666,30.907,16.666l-0.001,1315.835L0,1408.935L0.004,91.423z"/>
</svg>
