<?xml version="1.0" encoding="utf-8"?>
<!-- Generator: Adobe Illustrator 17.0.0, SVG Export Plug-In . SVG Version: 6.00 Build 0)  -->
<!DOCTYPE svg PUBLIC "-//W3C//DTD SVG 1.1//EN" "http://www.w3.org/Graphics/SVG/1.1/DTD/svg11.dtd">
<svg version="1.1" id="Layer_1" xmlns="http://www.w3.org/2000/svg" xmlns:xlink="http://www.w3.org/1999/xlink" x="0px" y="0px"
	 width="1279.97px" height="832.605px" viewBox="0 0 1279.97 832.605" enable-background="new 0 0 1279.97 832.605"
	 xml:space="preserve">
<linearGradient id="SVGID_1_" gradientUnits="userSpaceOnUse" x1="639.9854" y1="832.6053" x2="639.9854" y2="-5.090133e-06">
	<stop  offset="0" style="stop-color:#006A65"/>
	<stop  offset="0.3546" style="stop-color:#35B66C"/>
	<stop  offset="0.7222" style="stop-color:#68BD45"/>
	<stop  offset="1" style="stop-color:#9ACA3C"/>
</linearGradient>
<path fill="url(#SVGID_1_)" d="M0,125.182c0,0,36.177,2.642,44.233,1.959c23.286-1.974,60.752-6.446,84.581-3.036
	c6.952,0.995,22.043,10.183,27.494,5.755c3.011-2.446-2.743-12.776,0-15.519c1.266-1.266,5.428,0.442,7.163,0
	c1.812-0.462,4.715-3.848,6.566-3.581c1.462,0.211,3.613,2.813,4.178,4.178c0.742,1.792-1.372,6.388,0,7.76
	c1.899,1.899,8.845,1.899,10.744,0c1.161-1.161-0.234-4.941,0-6.566c0.377-2.617,1.086-8.307,2.984-10.147
	c2.547-2.469,10.414-4.844,13.729-3.581c1.508,0.574,3.114,3.827,3.581,5.372c0.778,2.571,0,8.058,0,10.744s0.43,8.093,0,10.744
	c-0.136,0.838-0.806,2.418-1.074,3.223c-0.776,2.328-3.104,9.311-3.104,9.311s3.367,0.658,4.178,0
	c3.911-3.169,2.001-15.159,4.178-19.698c0.917-1.912,3.492-5.585,5.372-6.566c1.725-0.9,6.067-1.556,7.76-0.597
	c1.742,0.986,1.594,6.918,3.581,7.163c1.365,0.168,2.698-3.124,3.581-4.178c1.362-1.626,3.571-5.447,5.372-6.566
	c1.691-1.051,5.77-1.855,7.76-1.791c1.557,0.05,5.039,0.541,5.969,1.791c0.534,0.718-0.234,2.717,0,3.581
	c0.541,2.001,2.381,6.13,4.178,7.163c1.165,0.669,4.422,0.95,5.372,0s-0.84-4.324,0-5.372c1.722-2.146,7.993-2.399,10.744-2.388
	c1.991,0.008,6.52,0.233,7.76,1.791c1.393,1.752,0,6.715,0,8.953c0,2.089-1.383,6.79,0,8.357c0.796,0.902,7.193,9.503,8.095,8.707
	c1.007-0.889-3.319-12.139-3.319-13.482c0-1.045-0.359-3.197,0-4.178c0.874-2.386,4.63-6.114,6.566-7.76
	c1.989-1.691,6.361-5.063,8.953-5.372c2.484-0.296,8.069,0.969,9.55,2.984c1.149,1.563-1.372,6.388,0,7.76
	c0.95,0.95,4.297-0.805,5.372,0c2.117,1.584,0.803,8.652,2.984,10.147c1.482,1.016,7.24,7.284,8.457,5.962
	c0.909-0.988-1.645-10.635-1.294-11.931c0.541-2.001,2.666-5.745,4.178-7.163c1.461-1.369,6.11-1.878,7.163-3.581
	c0.863-1.396-1.223-5.471,0-6.566c1.007-0.901,4.178-0.035,5.372,0.597c1.216,0.643,2.789,3.054,3.581,4.178
	c1.386,1.967,2.694,7.149,4.775,8.357c1.033,0.599,3.931,0.844,4.775,0c1.266-1.266-0.791-5.556,0-7.163
	c1.081-2.196,6.052-4.215,7.76-5.969c1.416-1.454,2.966-5.645,4.775-6.566c1.596-0.813,5.413-0.379,7.163,0
	c1.762,0.382,5.59,1.468,6.566,2.984c0.646,1.004-0.844,3.931,0,4.775c1.266,1.266,5.372,0,7.163,0c1.045,0,3.44,0.739,4.178,0
	c0.844-0.844-0.579-3.731,0-4.775c0.682-1.231,3.422-2.596,4.775-2.984c2.152-0.617,7.371-1.583,8.953,0
	c0.633,0.633-0.343,2.754,0,3.581c0.485,1.17,3.213,8.374,4.433,8.712c1.186,0.328,3.166-5.354,3.923-6.324
	c0.918-1.176-0.633-4.618,0-5.969c0.494-1.055,2.486-2.588,3.581-2.984c1.964-0.711,6.267,0,8.357,0c0.895,0,2.948-0.633,3.581,0
	c0.95,0.95-0.851,4.333,0,5.372c0.965,1.177,4.518,6.339,5.935,5.786c1.891-0.738,3-10.237,4.809-11.158
	c1.197-0.609,4.029,0,5.372,0c1.194,0,3.707-0.534,4.775,0c1.335,0.667,2.19,4.236,3.581,4.775
	c5.949,2.304,9.845-7.451,16.136-8.508c7.138-1.2,31.699,3.768,37.584-0.445c5.861-4.196,9.101-19.691,13.132-25.666
	c1.657-2.455,5.317-7.278,7.76-8.953c3.27-2.242,11.143-6.571,14.922-5.372c1.387,0.44,2.503,3.576,3.338,4.768
	c0.21,0.3,0.477,1.243,0.841,1.201c1.597-0.185,2.084-4.391,2.388-5.969c0.339-1.758-0.46-5.432,0-7.163
	c0.618-2.326,2.694-7.149,4.775-8.357c1.162-0.674,4.422,0.95,5.372,0c1.372-1.372-1.372-6.388,0-7.76
	c1.583-1.583,7.371-1.583,8.953,0c2.005,2.005-1.085,8.722,0,11.341c0.565,1.365,2.813,3.613,4.178,4.178
	c1.517,0.628,9.408,3.006,10.569,1.845c0.739-0.739-4.295-5.021-4.003-6.024c1.166-4.004,6.513-10.692,8.953-14.074
	c2.074-2.875,5.752-9.473,8.953-10.995c1.348-0.641,4.477,0,5.969,0c1.343,0,4.215-0.681,5.372,0
	c1.324,0.779,2.97,3.836,2.984,5.372c0.015,1.591-3.805,4.259-2.984,5.623c0.385,0.639,2.271,0.218,2.984,0
	c1.893-0.579,4.799-3.536,6.566-4.429c1.98-1.001,6.139-3.026,8.357-2.984c0.803,0.015,2.534,0.528,2.984,1.194
	c0.418,0.618,0,2.238,0,2.984c0,1.641-1.161,5.405,0,6.566c0.633,0.633,2.688-0.056,3.581,0c1.201,0.075,3.62,0.262,4.775,0.597
	c2.693,0.78,7.853,3.163,10.147,4.775c1.554,1.092,4.645,3.617,5.372,5.372c0.685,1.654-1.036,5.702,0,7.163
	c1.83,2.579,8.963,3.105,11.938,4.178c5.241,1.89,15.687,5.771,20.891,7.76c4.193,1.602,12.245,6.13,16.713,6.566
	c1.661,0.162,8.793,4.515,9.862,3.234c1.434-1.718-4.763-11.69-3.296-13.381c1.383-1.594,6.762-2.576,8.357-1.194
	c0.451,0.391-0.401,1.945,0,2.388c1.006,1.112,4.857,1.603,5.969,0.597c0.885-0.801-0.457-3.672,0-4.775
	c0.565-1.365,2.813-3.613,4.178-4.178c1.103-0.457,3.672-0.457,4.775,0c0.975,0.404,2.581,2.01,2.984,2.984
	c0.343,0.827-0.741,3.079,0,3.581c0.665,0.451,2.334-0.721,2.984-1.194c0.943-0.685,1.929-3.087,2.984-3.581
	c1.081-0.506,3.694-0.506,4.775,0c2.111,0.989,4.693,5.212,5.969,7.163c1.279,1.955,3.065,11.48,5.346,11.981
	c0.933,0.205,1.403-5.151,1.817-6.012c0.452-0.941-0.586-3.313,0-4.178c1.352-1.996,6.973-2.207,8.953-3.581
	c1.822-1.265,4.378-5.02,5.969-6.566c0.987-0.959,2.847-3.234,4.178-3.581c0.736-0.192,2.502,0.008,2.984,0.597
	c0.568,0.692-0.183,2.705,0,3.581c0.534,2.551,2.592,7.482,4.178,9.55c0.581,0.758,2.123,2.801,2.984,2.388
	c0.672-0.323-0.251-2.282,0-2.984c0.713-1.997,3.352-5.92,5.372-6.566c1.621-0.518,5.094,0.937,6.566,1.791
	c1.825,1.059,5.161,4.019,5.969,5.969c0.4,0.965,0,3.134,0,4.178c0,1.492-0.813,4.718,0,5.969c0.801,1.232,3.948,2.023,5.372,2.388
	c1.741,0.446,5.548-0.192,7.163,0.597c1.186,0.579,2.806,2.812,3.581,3.88c1.256,1.73,2.8,5.827,4.178,7.461
	c2.599,3.083,8.885,8.434,12.535,10.147c2.755,1.294,8.985,1.651,11.938,2.388c4.535,1.131,13.238,5.152,17.907,5.372
	c5.32,0.25,15.951-2.188,20.891-4.178c5.913-2.382,15.99-10.503,21.488-13.729c5.989-3.513,18.24-10.072,24.473-13.132
	c6.896-3.385,21.601-8.367,28.054-12.535c3.019-1.95,8.597-6.669,10.744-9.55c1.476-1.981,2.569-7.08,4.178-8.953
	c1.402-1.633,4.418-4.044,6.534-4.439c1.352-0.253,4.511,0.121,5.372,1.194c1.027,1.28-1.161,5.405,0,6.566
	c1.161,1.161,6.034,0.824,7.195-0.336c0.739-0.739-0.24-3.162,0-4.178c0.383-1.624,2.346-4.428,2.984-5.969
	c1.445-3.488,2.085-11.677,4.775-14.325c2.119-2.086,8.943-5.339,11.341-3.581c1.083,0.794-1.059,4.546,0,5.372
	c0.97,0.757,5.664,7.736,6.421,6.766c0.643-0.823-1.834-11.111-1.646-12.138c0.834-4.553,2.757-14.681,6.566-17.31
	c1.597-1.102,6.388-1.372,7.76,0c0.844,0.844-1.103,4.318,0,4.775c1.56,0.646,3.215-4.129,4.775-4.775c2.206-0.914,7.163,0,9.55,0
	c2.089,0,6.879-1.477,8.357,0c1.794,1.794,0,7.61,0,10.147c0,2.388,0.468,7.209,0,9.55c-0.457,2.286-4.186,6.357-3.581,8.608
	c0.292,1.088,5.009,11.06,6.13,10.948c0.903-0.091-0.654-10.186-0.161-10.948c1.554-2.402,2.695-8.435,4.775-10.398
	c2.68-2.53,10.047-5.539,13.729-5.372c1.333,0.06,4.073,1.252,4.775,2.388c0.549,0.889-0.739,3.44,0,4.178
	c0.528,0.528,2.457,0.528,2.984,0c0.633-0.633-0.195-2.708,0-3.581c0.612-2.736,2.506-8.501,4.775-10.147
	c1.948-1.413,7.179-1.6,9.55-1.194c1.973,0.338,6.11,1.878,7.163,3.581c1.255,2.031,0,7.163,0,9.55c0,4.178,0,12.535,0,16.713
	c0,1.343-0.596,4.169,0,5.372c1.749,3.53,8.984,7.844,12.535,9.55c2.773,1.333,9.474,1.142,11.938,2.984
	c2.357,1.762,0.234,14.117,3.103,14.775c1.573,0.361,7.291-6.902,8.238-8.209c1.635-2.258,2.608-7.982,2.984-10.744
	c0.242-1.774-0.809-5.565,0-7.163c1.255-2.476,7.237-4.385,8.953-6.566c0.958-1.217,1.417-4.511,2.388-5.718
	c1.371-1.705,5.024-5.486,7.163-5.026c1.429,0.307,1.575,5.413,2.984,5.026c1.212-0.333-0.704-3.986,0-5.026
	c0.901-1.331,4.363-2.454,5.969-2.388c1,0.042,3.055,0.939,3.581,1.791c0.739,1.196-0.994,4.629,0,5.623
	c0.527,0.528,2.457,0.528,2.984,0c0.466-0.466-0.311-2.057,0-2.639c0.508-0.949,2.633-2.895,3.581-2.388c1.108,0.593,0,3.77,0,5.026
	c0,0.833-0.487,2.655,0,3.33c0.552,0.766,2.816,1.746,3.581,1.194c0.917-0.661-0.557-3.539,0-4.524
	c0.771-1.365,3.841-2.9,5.372-3.236c1.32-0.289,4.471-0.41,5.372,0.597c1.493,1.668-1.401,7.207,0,8.953
	c0.861,1.073,4.299,2.055,5.372,1.194c0.931-0.747-0.24-3.606,0-4.775c0.457-2.226,1.618-7.212,3.581-8.357
	c1.167-0.68,4.037,0.39,5.372,0.597c0.752,0.117,2.502,0.008,2.984,0.597c0.702,0.856-0.579,3.486,0,4.429
	c0.963,1.568,4.727,3.255,6.566,3.33c1.75,0.072,25.621,72.447,35.908,80.64c15.469,12.321,21.66,11.957,21.66,11.957l0.04,707.443
	H0V125.182z"/>
</svg>
