<?xml version="1.0" encoding="utf-8"?>
<!-- Generator: Adobe Illustrator 17.0.0, SVG Export Plug-In . SVG Version: 6.00 Build 0)  -->
<!DOCTYPE svg PUBLIC "-//W3C//DTD SVG 1.1//EN" "http://www.w3.org/Graphics/SVG/1.1/DTD/svg11.dtd">
<svg version="1.1" id="Layer_1" xmlns="http://www.w3.org/2000/svg" xmlns:xlink="http://www.w3.org/1999/xlink" x="0px" y="0px"
	 width="1280.009px" height="1324.605px" viewBox="0 0 1280.009 1324.605" enable-background="new 0 0 1280.009 1324.605"
	 xml:space="preserve">
<linearGradient id="SVGID_1_" gradientUnits="userSpaceOnUse" x1="640.0042" y1="1324.6047" x2="640.0042" y2="9.558509e-06">
	<stop  offset="0.7494" style="stop-color:#2D792C"/>
	<stop  offset="0.7995" style="stop-color:#328231"/>
	<stop  offset="0.8981" style="stop-color:#3E9A3C"/>
	<stop  offset="1" style="stop-color:#48B749"/>
</linearGradient>
<path fill="url(#SVGID_1_)" d="M0.007,17.021c0,0,58.824-0.894,71.622-0.225c8.271,0.433,30.546,3.657,33.073,1.944
	c0.936-0.635-0.8-3.724,0-4.524c1.161-1.161,5.405-1.161,6.566,0c0.4,0.4-0.4,1.862,0,2.262c0.422,0.422,1.966,0.422,2.388,0
	c0.972-0.972-0.972-4.526,0-5.498c0.95-0.95,4.422-0.95,5.372,0c0.686,0.686-0.686,3.194,0,3.88c0.95,0.95,4.422,0.95,5.372,0
	c0.686-0.686-0.371-2.984,0-3.88c0.485-1.17,2.412-3.097,3.581-3.581c1.103-0.457,3.931-0.844,4.775,0
	c1.002,1.002-0.836,4.525,0,5.671c0.554,0.759,2.822,1.701,3.581,1.146c0.894-0.653,0-3.322,0-4.429c0-1.492-1.421-5.514,0-5.969
	c1.222-0.392,2.178,3.179,2.984,4.178c0.697,0.863,1.97,2.834,2.984,3.283c0.819,0.362,2.948-0.633,3.581,0
	c0.519,0.519,0,2.203,0,2.937c0,1.131-1.098,4.252,0,4.524c1.241,0.307,2.08-3.283,2.388-4.524c0.517-2.089-1.324-6.911,0-8.608
	c1.136-1.455,5.708-2.927,7.163-1.791c1.059,0.827,0,4.029,0,5.372c0,1.257-0.361,3.823,0,5.026
	c0.389,1.298,1.687,4.914,2.984,4.524c1.083-0.325-0.437-3.481,0-4.524c0.404-0.966,2.016-2.54,2.984-2.937
	c0.967-0.396,3.44-0.739,4.178,0c1.319,1.319,0,5.596,0,7.461c0,0.746-0.528,2.457,0,2.984s2.382,0.44,2.984,0
	c1.59-1.163,0.798-6.346,2.388-7.509c0.843-0.617,3.44-0.739,4.178,0c0.589,0.589-0.254,2.537,0,3.33
	c0.392,1.222,2.593,2.956,2.984,4.178c0.319,0.995,0.443,3.232,0,4.178c-0.494,1.055-3.978,1.889-3.581,2.984
	c0.305,0.842,2.792,0.422,3.581,0c1.423-0.762,2.208-4.523,3.581-5.372c1.023-0.632,3.873-1.393,4.775-0.597
	c0.336,0.296-0.115,1.358,0,1.791c0.309,1.163,2.079,3.015,2.388,4.178c0.306,1.154-1.136,4.409,0,4.775
	c0.972,0.314,2.074-2.345,2.388-3.317c0.249-0.773-0.51-2.617,0-3.249c0.615-0.763,2.912-1.172,3.831-0.83
	c1.049,0.391,2.049,2.661,2.686,3.581c0.645,0.93,1.603,3.05,2.437,3.815c1.252,1.148,4.427,2.557,6.019,3.149
	c2.286,0.85,7.083,2.55,9.5,2.223c1.853-0.251,4.915-2.704,6.566-3.581c4.303-2.286,13.485-5.936,17.31-8.953
	c3.182-2.51,6.757-10.97,10.595-12.271c1.155-0.391,3.872,0.176,4.775,0.995c1.203,1.091,1.694,4.596,1.939,6.202
	c0.101,0.664-0.663,2.582,0,2.686c1.48,0.233,1.413-4.268,1.841-5.705c0.31-1.041,0.924-3.128,1.144-4.191
	c0.233-1.128,0.027-3.592,0.647-4.563c0.542-0.849,2.405-1.946,3.382-2.189c1.114-0.277,3.665-0.301,4.576,0.398
	c0.924,0.709,1.356,3.237,1.592,4.377c0.171,0.83-0.127,2.601,0.199,3.382c0.361,0.865,1.639,3.148,2.505,2.79
	c1.131-0.468-0.312-3.665-0.26-4.887c0.042-0.976,0.165-2.969,0.54-3.872c0.695-1.672,2.76-4.955,4.377-5.77
	c1.277-0.643,4.703-1.071,5.72-0.065c0.743,0.734-0.187,3.15,0,4.178c0.107,0.592,0.631,1.692,0.846,2.254
	c0.38,0.994,1.345,2.921,1.541,3.966c0.208,1.112,0,3.393,0,4.524c0,1.343-1.282,4.972,0,5.372c1.251,0.391,2.594-3.061,2.984-4.312
	c0.416-1.333-0.595-4.321,0-5.584c0.997-2.115,4.885-5.737,7.213-5.956c1.13-0.106,3.234,1.332,3.979,2.189
	c1.189,1.365,2.148,5.008,2.587,6.765c0.389,1.556-0.189,5.101,0.796,6.367c0.754,0.97,3.364,1.988,4.576,1.791
	c2.094-0.341,5.616-3.516,6.516-5.437c0.606-1.295-0.767-4.511,0-5.718c0.707-1.113,3.508-1.874,4.775-2.241
	c0.385-0.111,1.239-0.39,1.592-0.199c0.597,0.323,0.904,1.826,1.194,2.44c0.461,0.976,1.562,2.873,1.791,3.927
	c0.174,0.802,0.244,2.499,0,3.283c-0.26,0.837-1.97,2.009-1.99,2.885c-0.021,0.938,1.373,2.476,1.99,3.183
	c0.255,0.293,0.811,1.064,1.194,0.995c0.789-0.142,1.386-2.01,1.592-2.786c0.275-1.034-0.516-3.341,0-4.278
	c0.426-0.774,2.427-1.205,2.984-1.89c0.536-0.66,0.734-2.469,1.194-3.183c0.609-0.946,2.525-2.27,3.183-3.183
	c0.975-1.353,1.99-4.63,2.984-5.969c0.734-0.989,2.437-2.927,3.581-3.382c0.601-0.239,1.948,0.104,2.587,0
	c2.484-0.403,3.299-1.306,4.377-1.791c1.222-0.549,3.673-2.306,4.974-1.99c0.96,0.233,1.921,2.255,2.587,2.984
	c1.21,1.325,3.939,3.707,4.974,5.173c0.641,0.909,1.591,2.941,1.99,3.979c0.536,1.397,0.707,4.563,1.592,5.77
	c0.99,1.351,4.122,2.9,5.621,3.647c2.085,1.038,6.61,2.276,8.754,3.183c3.565,1.509,10.536,4.9,13.928,6.765
	c3.484,1.915,9.762,7.088,13.53,8.357c2.936,0.989,9.364,0.316,12.336,1.194c5.466,1.614,14.707,9.132,20.244,10.48
	c4.64,1.13,14.332,0.249,19.101,0c12.886-0.672,38.46-4.492,51.333-5.372c13.853-0.947,41.903-4.55,55.511-1.791
	c4.188,0.849,11.782,5.091,15.519,7.163c4.525,2.508,12.747,8.903,17.31,11.341c9.436,5.041,29.535,12.561,39.395,16.713
	c9.987,4.205,29.882,12.814,39.992,16.713c7.09,2.734,21.465,7.677,28.651,10.147c7.14,2.454,21.198,8.341,28.651,9.55
	c6.776,1.1,20.593,0,27.457,0c4.775,0,14.336,0.314,19.101,0c12.467-0.823,37.791-2.323,49.542-6.566
	c11.605-4.19,32.504-18.132,41.783-26.263c6.15-5.39,16.951-18.004,20.891-25.169c2.103-3.825,3.316-12.763,5.372-16.614
	c1.702-3.186,5.777-9.62,8.953-11.341c1.449-0.785,5.349-1.708,6.566-0.597c0.882,0.805-0.274,3.613,0,4.775
	c0.345,1.461,1.216,5.065,2.686,5.372c0.57,0.119,1.544-0.965,1.791-1.492c0.348-0.743,0-2.462,0-3.283c0-0.522-0.241-1.626,0-2.089
	c0.421-0.808,2.095-1.894,2.984-2.089c0.815-0.178,2.748-0.044,3.283,0.597c0.717,0.859-0.354,3.415,0,4.477
	c0.236,0.708,1.083,2.624,1.791,2.388c0.92-0.307,0-2.91,0-3.88c0-0.895-0.254-2.723,0-3.581c0.428-1.449,2.11-4.121,3.283-5.074
	c0.807-0.655,2.858-1.303,3.88-1.492c0.587-0.109,1.965-0.422,2.388,0c0.369,0.369,0,1.567,0,2.089c0,0.224,0,0.672,0,0.895
	c0,1.119-0.342,3.411,0,4.477c0.196,0.611,0.881,2.285,1.492,2.089c0.64-0.205-0.344-2.11,0-2.686
	c0.565-0.946,2.778-2.092,3.88-2.089c0.935,0.003,2.806,0.987,3.283,1.791c0.457,0.77,0.259,2.724,0,3.581
	c-0.312,1.03-2.076,2.551-2.388,3.581c-0.173,0.571-0.448,1.993,0,2.388c0.451,0.398,1.884,0.03,2.388-0.298
	c0.729-0.475,1.021-2.58,1.791-2.984c1.059-0.557,3.62-0.013,4.775,0.298c0.483,0.13,1.528,0.47,1.791,0.895
	c0.432,0.698,0,2.462,0,3.283c0,0.448,0.117,1.359,0,1.791c-0.271,1.001-1.982,2.55-2.089,3.581
	c-0.049,0.469,0.138,1.682,0.597,1.791c0.513,0.121,1.005-1.29,1.492-1.492c0.827-0.343,2.768-0.374,3.581,0
	c0.625,0.287,1.552,1.444,1.791,2.089c0.285,0.77-0.58,2.703,0,3.283c0.686,0.686,2.912,0.063,3.88,0
	c6.908-0.449,20.775-1.774,27.457-3.581c1.485-0.402,4.534-1.351,5.671-2.388c0.937-0.855,1.378-3.709,2.388-4.477
	c0.548-0.416,2.091-0.941,2.686-0.597c1.083,0.626,0.242,4.735,1.492,4.775c2.077,0.067,1.271-6.583,2.984-7.76
	c0.369-0.253,1.355-0.103,1.791,0c0.649,0.153,2.037,0.626,2.388,1.194c0.392,0.635-0.645,2.61,0,2.984
	c0.52,0.302,1.787-0.674,2.089-1.194c0.262-0.452-0.358-1.708,0-2.089c0.819-0.872,3.629-0.641,4.775-0.298
	c0.715,0.214,1.66,1.626,2.388,1.791c0.371,0.084,1.251-0.004,1.492-0.298c0.426-0.519,0-2.015,0-2.686c0-0.672,0-2.015,0-2.686
	c0-1.045-0.689-3.393,0-4.178c1.142-1.3,5.134-0.926,6.864-0.895c0.908,0.016,2.995-0.096,3.581,0.597
	c0.434,0.512-0.3,2.085,0,2.686c0.334,0.667,1.72,2.124,2.388,1.791c0.4-0.2,0-1.343,0-1.791c0-0.373-0.264-1.228,0-1.492
	c0.791-0.791,3.685-0.791,4.477,0c0.422,0.422-0.344,1.9,0,2.388c0.639,0.907,3.272,2.131,4.178,1.492
	c0.549-0.387-0.212-2.049,0-2.686c0.236-0.708,1.104-2.096,1.791-2.388c0.554-0.235,1.99-0.153,2.388,0.298
	c0.494,0.559-0.528,2.457,0,2.984c0.528,0.528,2.262,0.187,2.984,0c0.744-0.193,2.297-0.83,2.686-1.492
	c0.265-0.45-0.084-1.574,0-2.089c0.189-1.164,1.303-3.312,1.492-4.477c0.143-0.884,0-2.686,0-3.581c0-0.522-0.283-1.65,0-2.089
	c0.488-0.758,2.389-1.375,3.283-1.492c0.9-0.118,2.995-0.096,3.581,0.597c0.482,0.569-0.645,2.61,0,2.984
	c0.52,0.302,1.787-0.674,2.089-1.194c0.375-0.645-0.528-2.457,0-2.984c0.686-0.686,2.91,0,3.88,0c0.597,0,1.965-0.422,2.388,0
	c0.475,0.475-0.285,2.078,0,2.686c0.247,0.528,1.208,1.471,1.791,1.492c0.641,0.024,1.49-1.263,2.089-1.492
	c0.631-0.241,2.036-0.482,2.686-0.298c0.819,0.231,1.849,1.936,2.686,2.089c0.998,0.183,3.063-1.797,3.88-1.194
	c0.24,0.177-0.129,0.925,0,1.194c0.207,0.431,1.041,1.036,1.492,1.194c0.563,0.198,1.791,0,2.388,0c0.672,0,2.211-0.475,2.686,0
	c0.317,0.317-0.414,1.619,0,1.791c0.877,0.363,2.118-1.925,2.686-2.686c1.218-1.632,2.261-5.926,3.88-7.163
	c1.34-1.023,4.891-1.346,6.566-1.54c1.112-0.129,3.458-0.463,4.477,0c0.826,0.375,2.069,1.884,2.388,2.733
	c0.288,0.768,0,2.462,0,3.283c0,0.597-0.422,1.966,0,2.388c0.739,0.739,3.139,0.103,4.178,0c1.136-0.112,3.753-0.013,4.477-0.895
	c0.662-0.808-0.668-3.375,0-4.178c1.31-1.575,6.013-1.617,8.058-1.492c2.732,0.166,8.826,1.076,10.446,3.283
	c0.486,0.662-0.387,2.559,0,3.283c0.889,1.66,4.645,3.223,6.267,4.178c2.243,1.321,6.756,4.036,9.252,4.775
	c6.47,1.917,52.234-9.951,61.792-11.169c13.919-1.774,68.926-3.39,68.926-3.39l0.022,1307.59L0,1324.005L0.007,17.021z"/>
</svg>
