<?xml version="1.0" encoding="utf-8"?>
<!-- Generator: Adobe Illustrator 17.0.0, SVG Export Plug-In . SVG Version: 6.00 Build 0)  -->
<!DOCTYPE svg PUBLIC "-//W3C//DTD SVG 1.1//EN" "http://www.w3.org/Graphics/SVG/1.1/DTD/svg11.dtd">
<svg version="1.1" id="Layer_1" xmlns="http://www.w3.org/2000/svg" xmlns:xlink="http://www.w3.org/1999/xlink" x="0px" y="0px"
	 width="1280.395px" height="2463.103px" viewBox="0 0 1280.395 2463.103" enable-background="new 0 0 1280.395 2463.103"
	 xml:space="preserve">
<linearGradient id="SVGID_1_" gradientUnits="userSpaceOnUse" x1="10444.5469" y1="264.1372" x2="10530.4502" y2="264.1372" gradientTransform="matrix(-1 0 0 1 10759.9609 0)">
	<stop  offset="0" style="stop-color:#ECF8FE"/>
	<stop  offset="1" style="stop-color:#FFF25D"/>
</linearGradient>
<path opacity="0.2" fill="url(#SVGID_1_)" d="M286.659,264.115c0,0,0.006,0.011,0.011,0.021c0.015,0.008,0.029,0.016,0.043,0.025
	C286.695,264.145,286.676,264.129,286.659,264.115z"/>
<linearGradient id="SVGID_2_" gradientUnits="userSpaceOnUse" x1="341.1638" y1="400.1667" x2="247.4341" y2="237.8222">
	<stop  offset="0" style="stop-color:#A1A4AB"/>
	<stop  offset="0.4199" style="stop-color:#FBC2B0"/>
	<stop  offset="0.4947" style="stop-color:#FDCD97"/>
	<stop  offset="0.5744" style="stop-color:#FFD77E"/>
	<stop  offset="0.6559" style="stop-color:#FFE063"/>
	<stop  offset="0.7384" style="stop-color:#FFE645"/>
	<stop  offset="0.8223" style="stop-color:#FFEB29"/>
	<stop  offset="0.9083" style="stop-color:#FFEF07"/>
	<stop  offset="1" style="stop-color:#FFF100"/>
</linearGradient>
<ellipse fill="url(#SVGID_2_)" cx="278.346" cy="291.363" rx="62.644" ry="61.535"/>
<linearGradient id="SVGID_3_" gradientUnits="userSpaceOnUse" x1="10418.8926" y1="291.9181" x2="10531.04" y2="291.9181" gradientTransform="matrix(-1 0 0 1 10759.9609 0)">
	<stop  offset="0" style="stop-color:#ECF8FE"/>
	<stop  offset="1" style="stop-color:#FFF25D"/>
</linearGradient>
<path opacity="0.2" fill="url(#SVGID_3_)" d="M267.656,352.279c0,0,46.114,8.06,67.287-33.993
	c15.146-30.082-0.899-62.961-14.611-72.591c-9.869-6.931-10.685-10.197-30.107-14.757c0,0,20.11,39.554,5.431,70.544
	c-14.314,30.22-65.982,27.695-66.735,27.693C245.734,349.606,267.656,352.279,267.656,352.279z"/>
<linearGradient id="SVGID_4_" gradientUnits="userSpaceOnUse" x1="10418.9717" y1="295.752" x2="10509.6377" y2="295.752" gradientTransform="matrix(-1 0 0 1 10759.9609 0)">
	<stop  offset="0" style="stop-color:#ECF8FE"/>
	<stop  offset="1" style="stop-color:#FFF25D"/>
</linearGradient>
<path opacity="0.2" fill="url(#SVGID_4_)" d="M317.611,312.151c-21.173,42.053-67.287,33.993-67.287,33.993
	s6.822,6.396,28.926,6.645c30.464,0.343,61.532-26.934,61.74-60.271c-0.09-14.581-5.224-29.17-13.812-39.671
	c-7.944-9.655-12.227-11.116-16.432-14.108c-0.015-0.009-0.03-0.017-0.045-0.026C311.19,239.639,332.757,282.068,317.611,312.151z"
	/>
</svg>
