<?xml version="1.0" encoding="utf-8"?>
<!-- Generator: Adobe Illustrator 17.0.0, SVG Export Plug-In . SVG Version: 6.00 Build 0)  -->
<!DOCTYPE svg PUBLIC "-//W3C//DTD SVG 1.1//EN" "http://www.w3.org/Graphics/SVG/1.1/DTD/svg11.dtd">
<svg version="1.1" id="Layer_1" xmlns="http://www.w3.org/2000/svg" xmlns:xlink="http://www.w3.org/1999/xlink" x="0px" y="0px"
	 width="1282.4px" height="1530.175px" viewBox="0 0 1282.4 1530.175" enable-background="new 0 0 1282.4 1530.175"
	 xml:space="preserve">
<linearGradient id="SVGID_1_" gradientUnits="userSpaceOnUse" x1="641.1998" y1="1530.1752" x2="641.1998" y2="121.1621">
	<stop  offset="0.8659" style="stop-color:#00A89A"/>
	<stop  offset="0.9278" style="stop-color:#2FB2A7"/>
	<stop  offset="1" style="stop-color:#5BC4BF"/>
</linearGradient>
<path fill="url(#SVGID_1_)" d="M2.377,171.733c0,0,24.425-7.892,39.984-9.551c12.927-1.378,39.636,0.197,51.848-4.102
	c3.695-1.301,8.935-8.128,12.81-8.79c6.229-1.064,18.273,4.928,24.399,6.446c12.607,3.124,37.932,8.951,50.628,11.72
	c9.275,2.023,28.505,3.933,37.209,7.618c2.401,1.016,6.072,5.003,8.54,5.86c15.675,5.441,49.822,4.86,66.488,4.688
	c49.935-0.517,149.608-10.205,198.854-18.166c22.905-3.703,68.065-14.57,90.277-21.096c18.041-5.301,70.758-25.198,70.758-25.198
	h69.538l17.079,4.102l11.59-4.102l17.689,8.79l52.458,13.478l69.538,9.962l20.739-7.618l21.349,0.586l46.359,11.134
	c0,0,53.197-1.796,79.9,2.622c13.198,2.184,62.546,10.962,75.907,11.843c16.431,1.083,44.729,4.666,61.198,4.666
	c5.032,0,23.318,1.147,28.342,1.436c19.369,1.114,56.542-6.321,56.542-6.321l-2.4,1358.435H0L2.377,171.733z"/>
<g>
	<g>
		
			<linearGradient id="SVGID_2_" gradientUnits="userSpaceOnUse" x1="-1069.4646" y1="1272.9718" x2="-911.469" y2="1272.9718" gradientTransform="matrix(0.9551 -0.2963 0.2963 0.9551 811.5673 -1291.4451)">
			<stop  offset="0.8659" style="stop-color:#00A89A"/>
			<stop  offset="0.9278" style="stop-color:#2FB2A7"/>
			<stop  offset="1" style="stop-color:#5BC4BF"/>
		</linearGradient>
		<path fill="url(#SVGID_2_)" d="M199.053,130.339c8.148,75.266-0.525,153.962,4.923,229.171c9.592-6.552,6.672-47.673,6.392-60.104
			c0.649-18.085-0.586-36.479-1.822-54.874c-1.938-23.542-6.519-49.84,9.262-68.148c22.476-28.433,48.834-61.646,61.186-96.774
			c0.563-1.069,1.941-2.39,2.504-3.459c-29.255,29.641-41.13,80.717-74.04,104.339c-4.808-15.498,2.17-39.123-9.725-51.528"/>
	</g>
	<g>
		
			<linearGradient id="SVGID_3_" gradientUnits="userSpaceOnUse" x1="-958.7319" y1="1153.311" x2="-989.0574" y2="1251.0675" gradientTransform="matrix(0.9551 -0.2963 0.2963 0.9551 811.5673 -1291.4451)">
			<stop  offset="0.0406" style="stop-color:#3DAFA0"/>
			<stop  offset="0.8603" style="stop-color:#43BEAD"/>
			<stop  offset="0.9561" style="stop-color:#53C2B8"/>
			<stop  offset="1" style="stop-color:#5BC4BF"/>
		</linearGradient>
		<path fill="url(#SVGID_3_)" d="M226.266,151.991c7.424,6.639,16.79,10.887,24.524,15.641c0.563-1.069,1.941-2.39,1.998-5.091
			c4.528,3.066,7.931,8.27,10.011,12.095c0.057-2.7,0.929-5.653,0.732-9.169c11.756,6.189,8.21,20.702,6.915,30.939
			c23.991,2.394,19.609-46.321,15.561-59.372c-5.82-18.761-21.484-31.785-41.144-34.628c0.506,1.631-0.057,2.7,0.449,4.331
			c-10.378-7.511-24.89-11.056-36.759-11.845c-12.122-1.605-29.138-1.691-19.943,10.657c4.724,6.582,13.893,7.314,19.49,10.943
			c4.528,3.066,2.277,7.341,10.321,10.211c10.181,3.995,21.91-1.432,32.091,2.563c-9.169-0.732-19.463,0.673-23.964,9.222
			c-9.252-9.648-13.867,4.302-7.145,5.793"/>
	</g>
	<g>
		
			<linearGradient id="SVGID_4_" gradientUnits="userSpaceOnUse" x1="-1042.6147" y1="1189.6746" x2="-1024.3359" y2="1130.7515" gradientTransform="matrix(0.9551 -0.2963 0.2963 0.9551 811.5673 -1291.4451)">
			<stop  offset="0.5134" style="stop-color:#43BEAD"/>
			<stop  offset="0.651" style="stop-color:#53C2B8"/>
			<stop  offset="0.714" style="stop-color:#5BC4BF"/>
		</linearGradient>
		<path fill="url(#SVGID_4_)" d="M201.21,123.102c-7.058-11.223-22.893-16.147-34.396-21.52c-7.228-3.123-16.284-9.255-24.384-9.425
			c-7.538-1.238-25.539,7.028-10.717,8.69c1.405,10.294,16.087,5.74,23.062,8.047c-24.724,6.775-6.386,8.24,2.051,18.142
			c-0.506-1.631,0.366-4.584-0.646-7.847c10.238,1.295,15.385,0.592,25.003,5.656c-5.457,2.587-19.773,2.557-20.758,10.91
			c-1.295,10.238,19.124,15.528,26.661,16.766c20.419,5.29,33.386-7.674,13.447-22.949"/>
	</g>
	<g>
		
			<linearGradient id="SVGID_5_" gradientUnits="userSpaceOnUse" x1="-970.684" y1="1188.1218" x2="-945.141" y2="1105.782" gradientTransform="matrix(0.9551 -0.2963 0.2963 0.9551 811.5673 -1291.4451)">
			<stop  offset="0.5134" style="stop-color:#43BEAD"/>
			<stop  offset="0.651" style="stop-color:#53C2B8"/>
			<stop  offset="0.714" style="stop-color:#5BC4BF"/>
		</linearGradient>
		<path fill="url(#SVGID_5_)" d="M229.339,95.598c-18.168-9.565-34.732-31.252-41.367-49.76c6.582-4.724,15.525,6.808,21.937,10.184
			c-7.255-14.739,13.727-10.517,17.579-0.982c5.177-15.019,18.674,11.196,20.446,16.906c-0.956-5.963-10.291-24.527-3.513-25.736
			c11.11-1.658,18.391,24.697,18.784,31.728c1.015-22.669,11.955-16.227,19.716,0.143c3.093,7.088,4.552,40.614-8.919,26.015
			c5.483,9.029-4.727,19.35-8.666,26.831c-9.562-7.764-19.6-31.475-31.722-33.08"/>
	</g>
	<g>
		
			<linearGradient id="SVGID_6_" gradientUnits="userSpaceOnUse" x1="-917.1908" y1="1243.9817" x2="-893.488" y2="1167.5737" gradientTransform="matrix(0.9551 -0.2963 0.2963 0.9551 811.5673 -1291.4451)">
			<stop  offset="0.5134" style="stop-color:#43BEAD"/>
			<stop  offset="0.651" style="stop-color:#53C2B8"/>
			<stop  offset="0.714" style="stop-color:#5BC4BF"/>
		</linearGradient>
		<path fill="url(#SVGID_6_)" d="M288.541,119.259c-0.393-7.032,2.843-19.66,9.086-8.184c-4.218-4.951-6.073-19.576,2.9-22.36
			c7.341-2.277,11.952,9.705,15.355,14.909c9.678-23.568,15.974,11.14,15.242,20.309c0.083,8.916-1.804,34.538-14.685,30.487
			c3.599,8.719-5.29,20.419-11.28,9.758c-3.15-4.388-1.039-14.879-3.626-20.336c-2.673,11.559-37.632-8.892-19.011-20.928"/>
	</g>
</g>
<g>
	<g>
		<linearGradient id="SVGID_7_" gradientUnits="userSpaceOnUse" x1="49.161" y1="205.5276" x2="66.5869" y2="205.5276">
			<stop  offset="0.8659" style="stop-color:#00A89A"/>
			<stop  offset="0.9278" style="stop-color:#2FB2A7"/>
			<stop  offset="1" style="stop-color:#5BC4BF"/>
		</linearGradient>
		<path fill="url(#SVGID_7_)" d="M49.833,114.854c13.433,18.806,9.403,49.703,10.747,71.867c1.343,24.851,0.672,48.359-0.672,73.211
			c-1.343,18.806-8.06,47.016,1.343,64.479c-2.687-28.21,3.358-59.106,4.702-87.316c1.343-38.285-4.03-75.897-4.03-113.51
			c0-11.418,6.717-26.866,4.03-36.941c-6.717,6.045-5.373,22.836-8.732,32.24c-1.343-4.702-5.373-10.747-8.06-8.06"/>
	</g>
	<g>
		<linearGradient id="SVGID_8_" gradientUnits="userSpaceOnUse" x1="41.7728" y1="101.4205" x2="41.7728" y2="101.4205">
			<stop  offset="0.5134" style="stop-color:#43BEAD"/>
			<stop  offset="0.651" style="stop-color:#53C2B8"/>
			<stop  offset="0.714" style="stop-color:#5BC4BF"/>
		</linearGradient>
		<path fill="url(#SVGID_8_)" d="M41.773,101.42"/>
	</g>
	<g>
		<linearGradient id="SVGID_9_" gradientUnits="userSpaceOnUse" x1="85.0289" y1="196.4602" x2="127.7451" y2="196.4602">
			<stop  offset="0.8659" style="stop-color:#00A89A"/>
			<stop  offset="0.9278" style="stop-color:#2FB2A7"/>
			<stop  offset="1" style="stop-color:#5BC4BF"/>
		</linearGradient>
		<path fill="url(#SVGID_9_)" d="M88.117,81.942c-3.358,17.463,2.015,36.941,5.373,54.404c4.03,20.821,1.343,45.001-0.672,65.151
			c-2.015,26.866-2.015,54.404-4.702,81.271c-1.343,14.776-5.373,34.255-1.343,49.031c0-33.583,9.403-66.494,12.762-99.405
			c1.343-15.448,2.015-30.225,1.343-45.673c-1.343-18.806,2.687-33.583,8.732-52.389c4.702-16.12,8.732-35.598,18.135-50.374
			c-9.403-2.015-12.762,19.478-14.105,26.195c-6.717-14.776-6.045-33.583-12.762-48.359c-4.03,15.448,4.03,30.225,6.717,45.001
			c2.687,12.09-4.702,32.24-8.06,45.001c-2.015-17.463-4.03-34.926-6.717-52.389c-2.015-12.09-1.343-28.21-5.373-38.285"/>
	</g>
	<g>
		<linearGradient id="SVGID_10_" gradientUnits="userSpaceOnUse" x1="99.1968" y1="40.0656" x2="175.8013" y2="40.0656">
			<stop  offset="0.5134" style="stop-color:#43BEAD"/>
			<stop  offset="0.651" style="stop-color:#53C2B8"/>
			<stop  offset="0.714" style="stop-color:#5BC4BF"/>
		</linearGradient>
		<path fill="url(#SVGID_10_)" d="M138.492,57.091c4.03,2.015,8.06,4.03,11.418,6.045c0-2.015,2.015-4.03,2.015-6.045
			c2.015,0,5.373,0,6.717,0c3.358,6.717,5.373,24.851,14.105,15.448c4.03-5.373,3.358-21.493,2.015-28.21
			c-2.015-12.09-16.791-47.688-34.926-37.613c12.09,5.373,25.523,24.851,23.508,38.285c-4.03-10.747-14.776-22.165-22.836-30.225
			c-4.03-4.702-10.075-11.418-16.12-9.403c-7.388,2.687-7.388,14.105-2.687,18.135c-3.358-10.747-33.583-12.09-18.135,8.732
			c8.732,12.09,21.493,17.463,34.255,24.851"/>
	</g>
	<g>
		<linearGradient id="SVGID_11_" gradientUnits="userSpaceOnUse" x1="101.2614" y1="95.6372" x2="101.2614" y2="30.3565">
			<stop  offset="0.5134" style="stop-color:#43BEAD"/>
			<stop  offset="0.847" style="stop-color:#53C2B8"/>
			<stop  offset="1" style="stop-color:#5BC4BF"/>
		</linearGradient>
		<path fill="url(#SVGID_11_)" d="M96.177,31.568c-18.806-5.373-32.24,18.806-26.195,34.255c16.12-3.358,34.255-0.672,44.329,14.105
			c0.672-1.343,1.343-2.687,1.343-4.03c2.687,3.358,8.06,22.165,15.448,19.478c4.03-2.015,2.687-19.478,2.687-23.508
			c-0.672-10.075-14.776-46.344-28.881-40.971"/>
	</g>
	<g>
		<linearGradient id="SVGID_12_" gradientUnits="userSpaceOnUse" x1="40.1933" y1="125.0763" x2="40.1933" y2="8.4064">
			<stop  offset="0.5134" style="stop-color:#43BEAD"/>
			<stop  offset="0.847" style="stop-color:#53C2B8"/>
			<stop  offset="1" style="stop-color:#5BC4BF"/>
		</linearGradient>
		<path fill="url(#SVGID_12_)" d="M64.609,20.821C57.893,8.06,46.474,2.015,39.086,18.135c-8.06,18.135,2.687,28.21,6.045,45.001
			c-5.373-8.06-14.105-18.135-17.463-27.538c-5.373,3.358-7.388,10.075-6.045,16.12c-16.791-2.687,7.388,34.255,12.762,37.613
			c-2.687-4.03-11.418-12.09-16.791-7.388c-4.03,2.687,0.672,14.105,2.015,18.135c1.343,6.045,9.403,33.583,19.478,22.165
			c10.747,15.448,22.165-36.941,22.165-44.329c0.672-15.448-4.03-36.27,0-50.374"/>
	</g>
	<g>
		<linearGradient id="SVGID_13_" gradientUnits="userSpaceOnUse" x1="67.8602" y1="111.2714" x2="67.8602" y2="-1.386675e-06">
			<stop  offset="0.5134" style="stop-color:#43BEAD"/>
			<stop  offset="0.847" style="stop-color:#53C2B8"/>
			<stop  offset="1" style="stop-color:#5BC4BF"/>
		</linearGradient>
		<path fill="url(#SVGID_13_)" d="M53.863,103.435c2.015,6.045,11.418,13.433,10.747,1.343c6.717,14.776,22.836-24.18,25.523-30.896
			c4.702-14.776,13.433-31.568,6.717-47.016C89.461,10.747,75.356,1.343,58.564,0c-5.373,0-12.762,0-16.791,2.687
			c-11.418,6.717-2.015,10.075,4.702,16.791C29.011,9.403,39.086,33.583,41.773,40.3c4.03,14.105,8.06,19.478,18.806,29.553
			c-12.762,6.045-5.373,17.463-6.045,26.866"/>
	</g>
</g>
<g>
	<g>
		<linearGradient id="SVGID_14_" gradientUnits="userSpaceOnUse" x1="729.5639" y1="131.0436" x2="729.5639" y2="214.7286">
			<stop  offset="0.7191" style="stop-color:#00A89A"/>
			<stop  offset="0.8098" style="stop-color:#21AEA2"/>
		</linearGradient>
		<path fill="url(#SVGID_14_)" d="M720.544,156.6c4.51,6.514,9.521,12.027,13.53,18.541c0.501-14.031-0.501-34.576-12.027-44.097
			c5.512,4.009,13.029,16.035,14.031,22.55c3.007-6.013,5.512-14.031,9.521-19.543c0,8.519-4.51,12.027-7.016,20.044
			c-2.505,7.517-0.501,16.035,1.002,24.053c1.503,7.016,7.016,32.071-1.503,36.581c1.002-9.521,0-23.552-3.007-33.073
			c-3.508-10.523-15.033-18.541-21.548-27.561c0.501,0,1.503,0.501,2.004,1.002"/>
	</g>
	<g>
		<linearGradient id="SVGID_15_" gradientUnits="userSpaceOnUse" x1="726.2635" y1="155.2391" x2="726.2635" y2="78.0807">
			<stop  offset="0.5134" style="stop-color:#43BEAD"/>
			<stop  offset="0.847" style="stop-color:#53C2B8"/>
			<stop  offset="1" style="stop-color:#5BC4BF"/>
		</linearGradient>
		<path fill="url(#SVGID_15_)" d="M724.052,84.942c-6.013-4.51-8.519-7.016-13.53-1.503c-3.007,3.007-5.512,12.027-6.013,16.537
			c-4.51-10.022-12.027,4.009-12.528,8.519c-1.002,11.525,6.013,8.018,11.024,14.532c-7.517-5.011-10.022,1.503-11.024,7.517
			c-1.002,6.514,1.002,10.523,3.508,16.537c3.508,8.018,5.512,11.525,11.525,4.009c3.007-4.009,7.517-10.523,8.519-15.033
			c17.038,2.506,29.565-25.055,36.581-36.581c1.503-3.007,10.022-14.532,8.519-17.038c-2.506-4.009-13.029-1.503-15.033,1.503
			c-4.51-5.512-18.04-7.016-24.554-5.011c3.007,4.51,4.009,9.521,4.51,15.033c-1.002-2.004-2.506-3.508-3.508-5.011"/>
	</g>
	<g>
		<linearGradient id="SVGID_16_" gradientUnits="userSpaceOnUse" x1="761.0729" y1="147.079" x2="761.0729" y2="88.0254">
			<stop  offset="0.5134" style="stop-color:#43BEAD"/>
			<stop  offset="0.847" style="stop-color:#53C2B8"/>
			<stop  offset="1" style="stop-color:#5BC4BF"/>
		</linearGradient>
		<path fill="url(#SVGID_16_)" d="M743.595,124.529c3.007-5.512,6.013-10.523,10.022-15.033c0.501,0,0.501,0.501,1.503,0.501
			c0.501-9.521,20.044-26.058,29.565-21.047c-7.016,18.04-19.042,31.069-34.075,43.596c2.004-2.506,4.51-3.508,7.016-3.508
			c0,6.013-13.53,14.532-18.04,18.04c-1.503-6.013-3.007-10.523-1.503-16.035"/>
	</g>
	<g>
		<linearGradient id="SVGID_17_" gradientUnits="userSpaceOnUse" x1="703.5695" y1="170.4105" x2="703.5695" y2="125.6304">
			<stop  offset="0.0426" style="stop-color:#359E90"/>
			<stop  offset="0.6394" style="stop-color:#43BEAD"/>
			<stop  offset="0.8866" style="stop-color:#53C2B8"/>
			<stop  offset="1" style="stop-color:#5BC4BF"/>
		</linearGradient>
		<path fill="url(#SVGID_17_)" d="M728.372,138.167c-1.86-6.821-16.742-19.222-20.462-8.061
			c-11.161-10.541-27.903,4.96-29.143,17.362c4.96,3.1,9.921,1.24,14.261-1.86c-1.86,3.1-6.821,9.301-7.441,13.021
			c-1.24,5.581,0,9.921,5.581,3.72c-1.24,2.48-0.62,5.581-1.24,8.061c8.061-4.34,17.362-16.122,20.462-25.422
			c3.72,3.72,9.301,1.24,13.021-2.48"/>
	</g>
</g>
<g>
	<g>
		
			<linearGradient id="SVGID_18_" gradientUnits="userSpaceOnUse" x1="1686.1343" y1="-731.1956" x2="1667.9766" y2="-751.4048" gradientTransform="matrix(0.9784 0.2069 -0.2069 0.9784 -743.6267 589.5054)">
			<stop  offset="0.5134" style="stop-color:#43BEAD"/>
			<stop  offset="0.7379" style="stop-color:#58BCAE"/>
			<stop  offset="1" style="stop-color:#70BDB2"/>
		</linearGradient>
		<path fill="url(#SVGID_18_)" d="M1076.813,206.312c-2.641-7.463-10.098-12.108-17.751-12.192
			c-11.403-0.493-15.603,6.673-20.848,15.153c-3.51-8.797-6.149,3.686-6.848,6.99c-0.932,4.406-2.463,9.835,0.298,13.104
			c4.723-7.823,9.523-16.014,19.556-18.112c5.895-0.671,18.414,5.428,22.128,2.377"/>
	</g>
	<g>
		
			<linearGradient id="SVGID_19_" gradientUnits="userSpaceOnUse" x1="1663.6296" y1="-726.7408" x2="1644.2771" y2="-748.28" gradientTransform="matrix(0.9784 0.2069 -0.2069 0.9784 -743.6267 589.5054)">
			<stop  offset="0.5134" style="stop-color:#43BEAD"/>
			<stop  offset="0.7379" style="stop-color:#58BCAE"/>
			<stop  offset="1" style="stop-color:#70BDB2"/>
		</linearGradient>
		<path fill="url(#SVGID_19_)" d="M1047.892,192.525c-13.238-0.881-20.806,11.327-25.627,21.431
			c0.585-6.397,2.851-11.671,3.804-17.99c-3.982,0.692-6.015,4.865-8.182,7.859c-0.749-5.528-4.752-2.923-6.842-0.296
			c-2.09,2.627-2.442,7.922-3.063,10.859c-0.585,6.397-1.58,16.543,3.518,21.456c1.305-11.615,20.903-33.553,31.882-34.684"/>
	</g>
	<g>
		
			<linearGradient id="SVGID_20_" gradientUnits="userSpaceOnUse" x1="1631.8394" y1="-748.4736" x2="1620.7368" y2="-760.8305" gradientTransform="matrix(0.9784 0.2069 -0.2069 0.9784 -743.6267 589.5054)">
			<stop  offset="0.5134" style="stop-color:#43BEAD"/>
			<stop  offset="0.7379" style="stop-color:#58BCAE"/>
			<stop  offset="1" style="stop-color:#70BDB2"/>
		</linearGradient>
		<path fill="url(#SVGID_20_)" d="M1023.124,182.685c-10.118-10.194-41.882,0.35-35.576,15.875c2.069-0.713,3.77-1.504,4.236-3.707
			c-2.696,10.937,11.791-1.342,13.803-3.602c2.902-2.839,4.314-4.074,8.585-4.322c2.725-0.191,4.752,2.923,6.552-0.149"/>
	</g>
	<g>
		
			<linearGradient id="SVGID_21_" gradientUnits="userSpaceOnUse" x1="1608.9772" y1="-757.9108" x2="1604.4821" y2="-762.9138" gradientTransform="matrix(0.9784 0.2069 -0.2069 0.9784 -743.6267 589.5054)">
			<stop  offset="0.5134" style="stop-color:#43BEAD"/>
			<stop  offset="0.7379" style="stop-color:#58BCAE"/>
			<stop  offset="1" style="stop-color:#70BDB2"/>
		</linearGradient>
		<path fill="url(#SVGID_21_)" d="M999.167,172.633c-6.397-0.585-27.719,4.112-24.887,14.299c4.949-1.638,10.421-3.934,14.212-7.351
			"/>
	</g>
	<g>
		
			<linearGradient id="SVGID_22_" gradientUnits="userSpaceOnUse" x1="1630.1309" y1="-730.3996" x2="1608.3899" y2="-754.597" gradientTransform="matrix(0.9784 0.2069 -0.2069 0.9784 -743.6267 589.5054)">
			<stop  offset="0.5134" style="stop-color:#43BEAD"/>
			<stop  offset="0.7379" style="stop-color:#58BCAE"/>
			<stop  offset="1" style="stop-color:#70BDB2"/>
		</linearGradient>
		<path fill="url(#SVGID_22_)" d="M979.823,191.557c-4.158,3.34-0.995,10.146,1.321,13.704c-1.603-1.49-5.698-3.89-7.922-2.442
			c-3.848,1.871,2.14,6.206,4.766,8.296c2.26,2.012,17.56,9.466,11.904,1.75c6.659,10.23,15.758-7.408,15.532-13.593
			c7.421,1.186,7.568-12.208,5.852-16.79c-3.277-9.898-13.859,2.056-18.116,7.676c-1.116-5.606-4.301-10.498-8.713-4.144"/>
	</g>
</g>
<g>
	<g>
		<linearGradient id="SVGID_23_" gradientUnits="userSpaceOnUse" x1="442.9906" y1="197.1991" x2="442.9906" y2="85.1442">
			<stop  offset="0" style="stop-color:#43BEAD"/>
			<stop  offset="0.3129" style="stop-color:#53C2B8"/>
			<stop  offset="0.4564" style="stop-color:#5BC4BF"/>
			<stop  offset="0.9881" style="stop-color:#75CBC4"/>
		</linearGradient>
		<path fill="url(#SVGID_23_)" d="M420.943,128.21c2.509,3.972,4.808,7.944,7.108,11.916c2.3,4.181,7.317,8.78,8.571,13.38
			c1.045,3.972,0.836,9.408,1.045,13.589c0.418,6.481,1.045,12.962,1.254,19.442c0,3.554,0,7.108,0,10.662
			c2.718-1.882,1.045-10.453,0.836-13.798c0-5.645-0.418-11.289-0.627-16.934c-0.418-8.78-0.627-18.815,3.972-26.759
			c4.599-7.735,7.944-16.306,12.962-24.042c3.763-5.854,8.989-9.408,13.171-14.634c-5.645-0.836-12.334,12.962-15.888,16.516
			c2.927-8.571,7.108-16.934,9.408-25.714c-4.808,0.627-6.69,14.425-8.153,18.397c-1.254,3.554-3.136,7.526-5.017,10.662
			c-2.509,3.763-3.763,8.362-6.272,12.125c-1.882-6.899,2.509-16.934,3.136-24.042c0.627-6.272,1.045-17.979-1.882-23.833
			c-1.882,3.136-1.463,9.617-1.463,13.171c-0.209,5.017-0.209,10.035-0.627,15.052c-0.209,5.017-0.836,10.244-1.672,15.052
			c-0.418,2.718-0.209,5.436-0.627,7.944c-0.627,3.136-2.509,5.645-2.927,8.78c-3.345-6.481-10.662-11.08-14.007-17.561
			c-3.345-6.481-2.091-15.888-6.063-22.369c-2.091,6.272,3.972,15.888,5.226,21.742c-1.254-1.254-2.718-2.3-4.39-2.927
			c0.209,0.627,0.418,0.836,0.627,1.254"/>
	</g>
	<g>
		<linearGradient id="SVGID_24_" gradientUnits="userSpaceOnUse" x1="412.5837" y1="137.1845" x2="412.5837" y2="85.2001">
			<stop  offset="0" style="stop-color:#43BEAD"/>
			<stop  offset="0.3129" style="stop-color:#53C2B8"/>
			<stop  offset="0.4564" style="stop-color:#5BC4BF"/>
			<stop  offset="0.9881" style="stop-color:#75CBC4"/>
		</linearGradient>
		<path fill="url(#SVGID_24_)" d="M419.404,85.2c-6.019,4.378-9.85,10.397-14.227,15.869c2.736,4.925,3.83,11.491,6.019,17.511
			c-3.283-4.378-5.472-9.302-9.85-12.586c-7.114,10.944,7.114,30.096,18.605,31.191c2.189-4.925-3.283-5.472-6.019-8.755
			c4.925,0,6.019-3.83,4.378-8.208c9.302-1.642,8.755-30.096,4.378-34.474"/>
	</g>
	<g>
		<linearGradient id="SVGID_25_" gradientUnits="userSpaceOnUse" x1="441.5304" y1="108.3484" x2="441.5304" y2="45.1351">
			<stop  offset="0" style="stop-color:#43BEAD"/>
			<stop  offset="0.3129" style="stop-color:#53C2B8"/>
			<stop  offset="0.4564" style="stop-color:#5BC4BF"/>
			<stop  offset="0.9881" style="stop-color:#75CBC4"/>
		</linearGradient>
		<path fill="url(#SVGID_25_)" d="M428.746,67.354c-7.661-2.189-6.019,10.397-6.566,15.322c-0.547,5.472,0,37.757,8.755,20.794
			c9.85,5.472,19.152-19.699,21.888-26.813c2.189-6.019,2.189-23.53,8.208-22.983c-4.925-13.133-16.963-10.397-20.247,3.283
			c-7.114-3.283-7.661,27.907-6.566,33.927c-1.642-5.472-3.83-11.491-3.83-16.963"/>
	</g>
	<g>
		<linearGradient id="SVGID_26_" gradientUnits="userSpaceOnUse" x1="466.1278" y1="107.932" x2="466.1278" y2="71.8218">
			<stop  offset="0" style="stop-color:#43BEAD"/>
			<stop  offset="0.3129" style="stop-color:#53C2B8"/>
			<stop  offset="0.4564" style="stop-color:#5BC4BF"/>
			<stop  offset="0.9881" style="stop-color:#75CBC4"/>
		</linearGradient>
		<path fill="url(#SVGID_26_)" d="M468.95,72.114c-6.552-2.621-9.173,13.104-10.046,17.472c-8.736-3.058-6.115,13.978-4.368,18.346
			c6.552-5.242,26.208-20.53,24.898-30.139c-5.678,1.31-10.046,7.862-12.667,12.667c0-3.494,0.874-6.989,1.747-10.483"/>
	</g>
	<g>
		<linearGradient id="SVGID_27_" gradientUnits="userSpaceOnUse" x1="471.7381" y1="110.9051" x2="471.7381" y2="90.3755">
			<stop  offset="0" style="stop-color:#43BEAD"/>
			<stop  offset="0.3129" style="stop-color:#53C2B8"/>
			<stop  offset="0.4564" style="stop-color:#5BC4BF"/>
			<stop  offset="0.9881" style="stop-color:#75CBC4"/>
		</linearGradient>
		<path fill="url(#SVGID_27_)" d="M476.951,91.249c-7.862,3.494-16.598,11.357-17.472,19.656c3.494-1.747,7.426-3.931,10.483-5.678
			c3.931,6.115,19.219-13.104,12.23-14.851"/>
	</g>
</g>
<g>
	<g>
		<linearGradient id="SVGID_28_" gradientUnits="userSpaceOnUse" x1="697.2902" y1="246.4333" x2="723.6461" y2="246.4333">
			<stop  offset="0.5134" style="stop-color:#43BEAD"/>
			<stop  offset="0.7379" style="stop-color:#58BCAE"/>
			<stop  offset="1" style="stop-color:#70BDB2"/>
		</linearGradient>
		<path fill="url(#SVGID_28_)" d="M710.404,240.557c-4.503,0.751-9.382,5.254-8.631,10.132c-3.377-5.254-6.38,2.252-3.002,6.38
			c3.753,4.878,7.13,3.377,11.633,0c6.755-4.503,15.386-15.761,12.759-24.392c-2.627,1.126-4.878,3.753-6.38,6.004"/>
	</g>
	<g>
		<linearGradient id="SVGID_29_" gradientUnits="userSpaceOnUse" x1="745.9521" y1="221.6881" x2="795.7855" y2="221.6881">
			<stop  offset="0.5134" style="stop-color:#43BEAD"/>
			<stop  offset="0.7379" style="stop-color:#58BCAE"/>
			<stop  offset="1" style="stop-color:#70BDB2"/>
		</linearGradient>
		<path fill="url(#SVGID_29_)" d="M754.853,216.013c-4.948,2.699-10.346,8.996-8.546,14.394c0.45,0,0.9,0,1.799,0
			c-0.9,2.249-1.799,4.948-1.349,7.197c8.996-4.498,11.695-20.242,26.089-15.743c0,0.9-0.45,1.349-0.45,2.249
			c7.647-0.9,16.643-10.346,23.39-13.944c-6.297-8.097-19.792-3.598-26.089,2.249c-3.599-3.598-8.546-1.349-11.695,1.799"/>
	</g>
	<g>
		<linearGradient id="SVGID_30_" gradientUnits="userSpaceOnUse" x1="774.6443" y1="218.7011" x2="825.4731" y2="218.7011">
			<stop  offset="0.5134" style="stop-color:#43BEAD"/>
			<stop  offset="0.7379" style="stop-color:#58BCAE"/>
			<stop  offset="1" style="stop-color:#70BDB2"/>
		</linearGradient>
		<path fill="url(#SVGID_30_)" d="M777.343,225.909c-1.349,3.149-2.249,6.297-2.699,8.996c5.398-1.799,8.996-4.498,13.944-6.297
			c5.398-2.699,10.796-6.747,16.643-9.446c3.149-1.349,8.546-2.699,11.695-4.498c2.699-2.249,6.297-8.097,8.546-12.145
			c-5.398-0.45-5.848,6.297-10.346,7.647c-4.048,1.349-7.197-3.598-11.245,2.249c-7.197-8.097-17.543,6.297-21.591,10.795"/>
	</g>
	<g>
		<linearGradient id="SVGID_31_" gradientUnits="userSpaceOnUse" x1="821.8746" y1="210.8484" x2="891.5955" y2="210.8484">
			<stop  offset="0.5134" style="stop-color:#43BEAD"/>
			<stop  offset="0.7379" style="stop-color:#58BCAE"/>
			<stop  offset="1" style="stop-color:#70BDB2"/>
		</linearGradient>
		<path fill="url(#SVGID_31_)" d="M821.875,220.961c3.149,1.799,5.398,4.048,6.747,7.197c3.149-1.349,2.699-1.349,4.498,1.349
			c4.498-3.598,22.041-24.29,28.338-17.093c6.747-5.398,9.896-8.546,18.892-9.896c3.599-0.45,8.097,0,11.245-1.349
			c-2.699-13.045-17.543-4.048-25.639-0.9c2.699-17.093-42.282-4.498-40.933,13.944"/>
	</g>
	<g>
		<linearGradient id="SVGID_32_" gradientUnits="userSpaceOnUse" x1="832.4026" y1="177.6649" x2="893.3948" y2="177.6649">
			<stop  offset="0.5134" style="stop-color:#43BEAD"/>
			<stop  offset="0.7379" style="stop-color:#58BCAE"/>
			<stop  offset="1" style="stop-color:#70BDB2"/>
		</linearGradient>
		<path fill="url(#SVGID_32_)" d="M854.261,173.281c1.349-1.799,2.699-5.398,1.799-7.647c-2.699-5.398-4.048,0.45-7.647,1.799
			c-2.249,0.9-3.149-1.349-6.297,0.9c-3.149,1.799-5.398,7.647-6.747,10.795c-3.149,7.197-3.599,14.844-2.249,22.491
			c5.848-6.747,25.639-29.238,36.435-17.992c7.197-11.245,13.944-21.141,23.84-29.688c-4.948-1.349-9.446,3.598-13.045,6.747
			c-0.9-17.093-21.141,12.145-22.94,16.643c1.349-2.249-0.9-2.249-1.349-3.599"/>
	</g>
</g>
<g>
	<g>
		<linearGradient id="SVGID_33_" gradientUnits="userSpaceOnUse" x1="857.104" y1="194.8419" x2="857.104" y2="119.7059">
			<stop  offset="0.8659" style="stop-color:#00A89A"/>
			<stop  offset="0.9278" style="stop-color:#2FB2A7"/>
			<stop  offset="1" style="stop-color:#5BC4BF"/>
		</linearGradient>
		<path fill="url(#SVGID_33_)" d="M841.296,135.328c2.604,4.464,8.183,7.439,10.415,11.903c1.488,3.348,1.488,9.299,2.232,13.019
			c1.86,11.531-0.744,23.434,0.744,34.592c3.348-3.72,2.232-16.366,2.232-21.946c-0.372-7.439,0-15.25-0.372-22.69
			c7.439-3.72,14.506-14.878,17.482-22.318c-5.207,2.976-10.043,10.415-14.506,14.878c2.604-8.183,2.604-15.994-1.86-23.062
			c-1.116,8.555,2.232,21.202-2.604,29.013c-4.836-5.951-8.927-10.787-14.878-15.622"/>
	</g>
	<g>
		<linearGradient id="SVGID_34_" gradientUnits="userSpaceOnUse" x1="826.624" y1="95.9379" x2="880.0474" y2="95.9379">
			<stop  offset="0.5134" style="stop-color:#43BEAD"/>
			<stop  offset="0.847" style="stop-color:#53C2B8"/>
			<stop  offset="1" style="stop-color:#5BC4BF"/>
		</linearGradient>
		<path fill="url(#SVGID_34_)" d="M860.88,76.611c-1.116-6.695-14.135-20.086-15.25-6.323c-5.207-4.092-13.019-0.744-14.878,5.207
			c-0.744,2.232-0.372,5.951-1.116,8.555c-0.744,3.348-3.348,7.439-2.976,11.159c1.116,7.067,11.159,12.275,15.994,16.366
			c5.207,4.092,11.159,9.299,14.506,14.878c0.744-1.86,1.116-4.092,1.86-5.951c1.86,2.232,3.72,4.092,4.092,7.067
			c12.275-2.232,14.878-25.293,16.366-34.964c1.86-12.647-0.372-23.434-13.763-28.269c-2.232,4.835,2.232,13.391,1.488,19.342
			c-0.744,5.207-2.976,9.671-5.951,13.763c1.488-4.464,1.86-11.903-1.116-15.622"/>
	</g>
	<g>
		<linearGradient id="SVGID_35_" gradientUnits="userSpaceOnUse" x1="817.9659" y1="114.7027" x2="845.6027" y2="114.7027">
			<stop  offset="0.0281" style="stop-color:#43BEAD"/>
			<stop  offset="0.6945" style="stop-color:#53C2B8"/>
			<stop  offset="1" style="stop-color:#5BC4BF"/>
		</linearGradient>
		<path fill="url(#SVGID_35_)" d="M840.143,100.336c-2.232-1.86-9.671-7.439-10.043-2.232c-2.232-1.488-8.183-5.579-10.787-3.348
			c-3.348,2.232,0.372,7.811,2.232,10.415c4.092,5.951,11.903,8.555,14.134,15.994c-2.604-4.092-18.598-14.135-16.366-3.72
			c2.604,11.159,16.366,13.019,24.177,17.854c4.092-5.579,1.488-14.506-1.488-20.086c0.372,0,0.744,0.372,1.488,0.744
			c0.372-4.092,0-9.671-2.976-12.647"/>
	</g>
	<g>
		<linearGradient id="SVGID_36_" gradientUnits="userSpaceOnUse" x1="869.9238" y1="117.7945" x2="891.6708" y2="117.7945">
			<stop  offset="0.5134" style="stop-color:#43BEAD"/>
			<stop  offset="0.847" style="stop-color:#53C2B8"/>
			<stop  offset="1" style="stop-color:#5BC4BF"/>
		</linearGradient>
		<path fill="url(#SVGID_36_)" d="M875.644,120.956c4.464-5.951,10.043-24.549,6.695-31.617c2.604,0,3.72,2.232,4.092,5.207
			c4.835-4.092,4.464,5.207,4.464,8.183c0,1.86-0.744,4.092-0.744,5.579c0,2.604,1.488,3.72,1.488,5.579
			c0.744,10.787-11.531,28.641-21.574,32.361c-1.116-5.207,4.835-20.458,2.232-23.062"/>
	</g>
</g>
<g>
	<g>
		
			<linearGradient id="SVGID_37_" gradientUnits="userSpaceOnUse" x1="-198.756" y1="799.8748" x2="-183.5008" y2="698.5903" gradientTransform="matrix(0.9888 -0.1489 0.1489 0.9888 472.1985 -618.358)">
			<stop  offset="0" style="stop-color:#37A294"/>
			<stop  offset="0.4177" style="stop-color:#44ADA2"/>
			<stop  offset="1" style="stop-color:#5BC4BF"/>
		</linearGradient>
		<path fill="url(#SVGID_37_)" d="M380.802,127.394c4.188,3.545,8.95,5.699,10.089,11.531c0.346,2.297-0.546,5.041-0.71,7.415
			c-0.392,6.062-0.018,12.009,0.355,17.956c0.451,6.457,0.097,12.775-0.473,19.386c-0.241,1.863-2.924,18.711-1.137,18.442
			c0.038,0.255,0.781-0.246,0.781-0.246c0.315-6.573,0.413-12.426,1.749-19.152c1.413-6.216,2.16-11.847,2.475-18.42
			c-0.091-2.335,0.112-4.454,0.277-6.828c-0.22-4.926-1.943-5.972,2.521-9.254c6.391-4.356,10.867-11.033,16.965-15.606
			c-3.038-1.108-15.307,12.746-19.16,14.893c-1.087-3.751-1.485-8.129-2.611-12.135c-1.01-3.241-1.839-1.811,0.763-5.335
			c2.206-2.681,4.451-5.108,6.951-7.572c1.556-1.8,4.133-3.755,5.433-5.517c1.874-3.153,0.993-3.804-2.349-1.734
			c-3.304,2.325-5.444,8.911-8.888,12.04c-0.22-4.926-0.223-10.146-0.737-15.289c-0.552-5.398,1.028-8.768-3.925-12.198
			c-0.126,2.629,1.573,5.244,1.996,8.052s0.846,5.615,1.307,8.678c0.475,4.888,1.576,10.464-3.144,13.785
			c-3.129-3.444-8.593-6.797-13.442-6.067c0.077,0.51,0.626,0.689,0.587,0.434"/>
	</g>
	<g>
		
			<linearGradient id="SVGID_38_" gradientUnits="userSpaceOnUse" x1="-163.6356" y1="745.9809" x2="-161.378" y2="730.9918" gradientTransform="matrix(0.9888 -0.1489 0.1489 0.9888 472.1985 -618.358)">
			<stop  offset="0" style="stop-color:#37A294"/>
			<stop  offset="0.4177" style="stop-color:#44ADA2"/>
			<stop  offset="1" style="stop-color:#5BC4BF"/>
		</linearGradient>
		<path fill="url(#SVGID_38_)" d="M419.222,141.788c1.877,2.066,4.622,2.958,5.73-0.08c2.898,1.913,8.831-0.286,10.821-2.674
			c2.601-3.524-1.433-6.049-4.586-7.923c-7.366-3.85-18.278-3.511-24.809,1.649c1.699,2.615,3.832,4.643,7.342,5.42"/>
	</g>
	<g>
		
			<linearGradient id="SVGID_39_" gradientUnits="userSpaceOnUse" x1="-219.5006" y1="725.6423" x2="-214.2743" y2="690.9432" gradientTransform="matrix(0.9888 -0.1489 0.1489 0.9888 472.1985 -618.358)">
			<stop  offset="0" style="stop-color:#37A294"/>
			<stop  offset="0.4177" style="stop-color:#44ADA2"/>
			<stop  offset="1" style="stop-color:#5BC4BF"/>
		</linearGradient>
		<path fill="url(#SVGID_39_)" d="M372.727,127.579c-4.339,0.653-8.422,1.269-12.558-0.197c-4.174-1.72-13.505-4.752-15.613-8.35
			c0.217-0.294,0.434-0.587,0.689-0.626c-2.122-5.423-5.328-9.377,3.364-8.859c0.266-3.433-3.404-15.67,4.179-12.114
			c3.664,1.797,10.687,8.57,10.83,12.986c3.126-1.776,12.894,5.888,14.886,8.72c1.916,2.322,1.968,4.402,2.863,6.877
			c0.856,2.22,2.503,2.755,2.16,5.678c-3.024,0.717-5.08-0.801-7.786-1.437"/>
	</g>
	<g>
		
			<linearGradient id="SVGID_40_" gradientUnits="userSpaceOnUse" x1="-195.244" y1="725.6065" x2="-187.1118" y2="671.6139" gradientTransform="matrix(0.9888 -0.1489 0.1489 0.9888 472.1985 -618.358)">
			<stop  offset="0" style="stop-color:#37A294"/>
			<stop  offset="0.4177" style="stop-color:#44ADA2"/>
			<stop  offset="1" style="stop-color:#5BC4BF"/>
		</linearGradient>
		<path fill="url(#SVGID_40_)" d="M386.351,112.419c-8.783,1.908-2.865-5.421-8.645-6.891c1.893,6.737-5.202,10.147-11.484,7.289
			c-0.913,3.649-7.294,4.025-10.327,3.311c-5.409-0.941-6.812-2.485-4.225-6.679c3.116-4.566,7.69-11.107,14.216-8.578
			c-3.88-4.39,5.291-3.723,7.094-3.409c0.541-4.178,0.969-7.168-0.536-11.331c-0.874-1.917-5.6-9.983-2.954-11.844
			c4.19-3.264,10.648,6.589,11.694,9.65c4.617-6.255,9.269-2.567,14.25,1.365c3.006,2.473,11.694,9.65,9.523,14.659
			c6.263-5.04,25.991,17.152,16.495,22.094c1.446,1.83,1.219,4.205-0.898,5.695c-2.689,1.575-4.55-1.07-6.812-2.485
			c-6.455-4.002-13.839-6.401-17.534-13.452c-4.547,4.781-10.048-8.435-11.138-11.782c0.345,2.289,0.403,4.621,0.462,6.953"/>
	</g>
</g>
<g>
	<g>
		
			<linearGradient id="SVGID_41_" gradientUnits="userSpaceOnUse" x1="1344.292" y1="-4015.365" x2="1395.3691" y2="-3972.0195" gradientTransform="matrix(0.647 0.7625 -0.7625 0.647 -3860.24 1772.2722)">
			<stop  offset="0" style="stop-color:#009D8E"/>
			<stop  offset="0.2771" style="stop-color:#009E8E"/>
			<stop  offset="0.5472" style="stop-color:#00A091"/>
			<stop  offset="0.8135" style="stop-color:#00A494"/>
			<stop  offset="1" style="stop-color:#00A798"/>
		</linearGradient>
		<path fill="url(#SVGID_41_)" d="M91.441,199.572c-5.098-2.745-18.731,8.339-23.855,11.792c6.432-13.513-14.759-8.954-19.883-5.501
			c-12.849,9.114-3.026,13.308-5.375,24.25c-1.42-12.219-10.391-9.081-17.517-4.823c-7.647,4.699-10.043,10.312-14.078,18.212
			c-5.234,10.706-7.11,15.878,5.993,15.498c6.811-0.41,17.549-1.468,23.114-4.401c12.41,19.897,52.063,8.62,70.211,5.749
			c4.446-1.088,23.918-2.398,25.195-6.167c1.955-6.133-9.919-14.852-14.806-14.284c1.749-9.539-8.611-24.911-16.432-29.909
			c-2.033,7.095-6.353,12.551-11.635,17.928C93.571,225.111,104.398,206.547,91.441,199.572z"/>
	</g>
	<g>
		
			<linearGradient id="SVGID_42_" gradientUnits="userSpaceOnUse" x1="1445.5444" y1="-4090.5396" x2="1464.15" y2="-4074.7505" gradientTransform="matrix(0.647 0.7625 -0.7625 0.647 -3860.24 1772.2722)">
			<stop  offset="0" style="stop-color:#009D8E"/>
			<stop  offset="0.2771" style="stop-color:#009E8E"/>
			<stop  offset="0.5472" style="stop-color:#00A091"/>
			<stop  offset="0.8135" style="stop-color:#00A494"/>
			<stop  offset="1" style="stop-color:#00A798"/>
		</linearGradient>
		<path fill="url(#SVGID_42_)" d="M170.844,231.526c8.372-1.735,16.224-3.029,24.439-2.84c0.442,0.52-8.773,11.228-7.89,12.269
			c23.412-22.611,53.41-12.415,56.596,1.886c-24.911,8.611-49.035,7.604-75.287,3.033c4.367-0.126,7.616,1.592,9.823,4.193
			c-6.243,5.298-27.009-1.243-34.624-2.835c4.919-6.859,8.277-12.393,15.324-15.689"/>
	</g>
	<g>
		
			<linearGradient id="SVGID_43_" gradientUnits="userSpaceOnUse" x1="1399.1514" y1="-3978.7725" x2="1384.7642" y2="-4018.9954" gradientTransform="matrix(0.647 0.7625 -0.7625 0.647 -3860.24 1772.2722)">
			<stop  offset="0" style="stop-color:#009D8E"/>
			<stop  offset="0.0459" style="stop-color:#00A091"/>
			<stop  offset="0.1093" style="stop-color:#00A495"/>
			<stop  offset="0.174" style="stop-color:#00A797"/>
			<stop  offset="0.2415" style="stop-color:#00A798"/>
			<stop  offset="0.6283" style="stop-color:#00A99A"/>
			<stop  offset="0.8306" style="stop-color:#00ADA2"/>
			<stop  offset="0.9851" style="stop-color:#00B6B0"/>
		</linearGradient>
		<path fill="url(#SVGID_43_)" d="M112.028,261.755c4.398-6.418,4.208-27.734-7.806-22.909c0.897-16.871-24.03-19.88-35.319-12.09
			c0.931,6.37,6.024,9.207,11.716,10.642c-3.926,0.647-12.661,0.9-16.224,3.029c-5.565,2.933-8.324,7.064,0.852,7.332
			c-2.964,0.726-5.124,3.453-7.647,4.699c9.382,3.673,25.89,3.088,35.901-0.933c-0.473,5.771,5.582,8.687,11.353,9.16"/>
	</g>
</g>
<g>
	<g>
		
			<linearGradient id="SVGID_44_" gradientUnits="userSpaceOnUse" x1="-3687.5898" y1="2264.4338" x2="-3740.7673" y2="2297.5713" gradientTransform="matrix(0.5289 -0.8487 0.8487 0.5289 1208.6443 -4110.8926)">
			<stop  offset="0" style="stop-color:#009D8E"/>
			<stop  offset="0.2771" style="stop-color:#009E8E"/>
			<stop  offset="0.5472" style="stop-color:#00A091"/>
			<stop  offset="0.8135" style="stop-color:#00A494"/>
			<stop  offset="1" style="stop-color:#00A798"/>
		</linearGradient>
		<path fill="url(#SVGID_44_)" d="M1178.903,274.309c9.958,0.168,19.822-2.742,28.782-4.203c-0.273-1.176-0.095-3.078-1.817-5.158
			c5.431-0.641,11.408,1.071,15.484,2.605c-1.723-2.08-2.994-4.884-5.442-7.416c12.941-3.005,19.749,10.294,25.463,18.886
			c19.716-13.877-15.453-47.868-27.051-55.095c-16.671-10.388-37.039-9.999-53.772,0.705c1.45,0.903,1.723,2.08,3.172,2.983
			c-12.763,1.103-26.061,7.911-35.557,15.075c-10.221,6.713-23.151,17.774-8.119,21.104c7.878,1.891,15.294-3.551,21.902-4.465
			c5.431-0.641,6.523,4.065,14.486,0.977c10.315-3.635,15.641-15.41,25.956-19.045c-7.416,5.442-14.286,13.236-12.1,22.648
			c-13.309-1.25-7.678,12.322-1.617,9.055"/>
	</g>
	<g>
		
			<linearGradient id="SVGID_45_" gradientUnits="userSpaceOnUse" x1="-1967.2766" y1="2170.6746" x2="-2012.4922" y2="2226.522" gradientTransform="matrix(0.7772 -0.6292 0.6292 0.7772 1259.597 -2716.28)">
			<stop  offset="0" style="stop-color:#009D8E"/>
			<stop  offset="0.2771" style="stop-color:#009E8E"/>
			<stop  offset="0.5472" style="stop-color:#00A091"/>
			<stop  offset="0.8135" style="stop-color:#00A494"/>
			<stop  offset="1" style="stop-color:#00A798"/>
		</linearGradient>
		<path fill="url(#SVGID_45_)" d="M1098.175,261.071c-20.42-2.148-43.843-16.15-56.867-30.879
			c4.362-6.828,16.943,0.568,24.149,1.326c-12.202-10.999,8.85-14.857,15.962-7.429c-0.76-15.868,21.494,3.476,25.256,8.122
			c-3.098-5.184-18.651-18.964-12.803-22.6c9.704-5.659,26.237,16.119,29.208,22.504c-7.461-21.43,5.088-19.503,18.364-7.176
			c5.5,5.436,19.284,36.033,1.361,27.468c8.44,6.353,2.783,19.724,1.898,28.132c-11.759-3.666-29.872-21.966-41.725-18.963"/>
	</g>
	<g>
		
			<linearGradient id="SVGID_46_" gradientUnits="userSpaceOnUse" x1="-4671.4849" y1="1791.1213" x2="-4671.4849" y2="1727.908" gradientTransform="matrix(-0.8708 0.4917 0.4917 0.8708 -3852.3193 1007.5205)">
			<stop  offset="0" style="stop-color:#009D8E"/>
			<stop  offset="0.0459" style="stop-color:#00A091"/>
			<stop  offset="0.1093" style="stop-color:#00A495"/>
			<stop  offset="0.174" style="stop-color:#00A797"/>
			<stop  offset="0.2415" style="stop-color:#00A798"/>
			<stop  offset="0.6283" style="stop-color:#00A99A"/>
			<stop  offset="0.8306" style="stop-color:#00ADA2"/>
			<stop  offset="0.9851" style="stop-color:#00B6B0"/>
		</linearGradient>
		<path fill="url(#SVGID_46_)" d="M1087.133,228.329c5.595-5.673,10.353,6.094,13.251,10.113c3.167,4.496,18.564,32.878,2.6,22.411
			c-5.886,9.608-26.363-7.737-32.243-12.586c-4.866-4.165-13.475-19.413-18.448-15.977c-2.169-13.857,9.659-17.394,19.245-7.096
			c4.58-6.357,20.392,20.534,22.399,26.314c-1.261-5.572-2.315-11.89-5.005-16.655"/>
	</g>
	<g>
		
			<linearGradient id="SVGID_47_" gradientUnits="userSpaceOnUse" x1="-2168.3779" y1="1866.7299" x2="-2203.1965" y2="1907.016" gradientTransform="matrix(0.7566 -0.6539 0.6539 0.7566 1439.1049 -2603.1262)">
			<stop  offset="0" style="stop-color:#009D8E"/>
			<stop  offset="0.2771" style="stop-color:#009E8E"/>
			<stop  offset="0.5472" style="stop-color:#00A091"/>
			<stop  offset="0.8135" style="stop-color:#00A494"/>
			<stop  offset="1" style="stop-color:#00A798"/>
		</linearGradient>
		<path fill="url(#SVGID_47_)" d="M1028.186,275.041c4.367-1.111,8.733-2.221,12.592-2.893c-1.318-1.525-1.111-4.367-2.428-5.891
			c1.524-1.318,4.065-3.514,5.082-4.392c6.933,2.886,20.316,15.288,20.773,2.465c-0.465-6.701-11.514-18.457-16.922-22.66
			c-9.43-7.829-43.887-25.1-51.02-5.619c12.661-3.84,35.561,2.113,42.82,13.593c-10.076-5.495-25.673-7.107-37.041-7.935
			c-6.123-0.922-15.089-2.051-18.345,3.426c-3.833,6.864,3.633,15.503,9.826,15.477c-9.568-5.935-33.314,12.813-8.011,18.464
			c14.512,3.437,27.68-0.842,42.167-3.597"/>
	</g>
</g>
</svg>
