<?xml version="1.0" encoding="utf-8"?>
<!-- Generator: Adobe Illustrator 17.0.0, SVG Export Plug-In . SVG Version: 6.00 Build 0)  -->
<!DOCTYPE svg PUBLIC "-//W3C//DTD SVG 1.1//EN" "http://www.w3.org/Graphics/SVG/1.1/DTD/svg11.dtd">
<svg version="1.1" id="Layer_1" xmlns="http://www.w3.org/2000/svg" xmlns:xlink="http://www.w3.org/1999/xlink" x="0px" y="0px"
	 width="1280px" height="2465px" viewBox="0 0 1280 2465" enable-background="new 0 0 1280 2465" xml:space="preserve">
<linearGradient id="SVGID_1_" gradientUnits="userSpaceOnUse" x1="254.3584" y1="507.2449" x2="150.7867" y2="327.8534">
	<stop  offset="0" style="stop-color:#A1A4AB"/>
	<stop  offset="0.4199" style="stop-color:#FBC2B0"/>
	<stop  offset="0.4947" style="stop-color:#FDCD97"/>
	<stop  offset="0.5744" style="stop-color:#FFD77E"/>
	<stop  offset="0.6559" style="stop-color:#FFE063"/>
	<stop  offset="0.7384" style="stop-color:#FFE645"/>
	<stop  offset="0.8223" style="stop-color:#FFEB29"/>
	<stop  offset="0.9083" style="stop-color:#FFEF07"/>
	<stop  offset="1" style="stop-color:#FFF100"/>
</linearGradient>
<ellipse fill="url(#SVGID_1_)" cx="184.945" cy="387.017" rx="69.222" ry="67.996"/>
<linearGradient id="SVGID_2_" gradientUnits="userSpaceOnUse" x1="14059.0479" y1="387.6297" x2="14182.9707" y2="387.6297" gradientTransform="matrix(-1 0 0 1 14313.3018 0)">
	<stop  offset="0" style="stop-color:#ECF8FE"/>
	<stop  offset="1" style="stop-color:#FFF25D"/>
</linearGradient>
<path opacity="0.2" fill="url(#SVGID_2_)" d="M173.132,454.329c0,0,50.956,8.906,74.353-37.562
	c16.736-33.241-0.993-69.572-16.145-80.214c-10.905-7.659-11.807-11.268-33.268-16.307c0,0,22.222,43.708,6.002,77.951
	c-15.818,33.393-72.91,30.603-73.742,30.601C148.909,451.376,173.132,454.329,173.132,454.329z"/>
<linearGradient id="SVGID_3_" gradientUnits="userSpaceOnUse" x1="14059.1357" y1="391.8661" x2="14159.3223" y2="391.8661" gradientTransform="matrix(-1 0 0 1 14313.3018 0)">
	<stop  offset="0" style="stop-color:#ECF8FE"/>
	<stop  offset="1" style="stop-color:#FFF25D"/>
</linearGradient>
<path opacity="0.2" fill="url(#SVGID_3_)" d="M228.332,409.987c-23.396,46.469-74.353,37.562-74.353,37.562
	s7.538,7.068,31.964,7.343c33.663,0.379,67.993-29.762,68.223-66.6c-0.099-16.113-5.773-32.233-15.262-43.837
	c-8.779-10.669-13.511-12.284-18.158-15.59c-0.017-0.01-0.033-0.019-0.05-0.029C221.238,329.861,245.068,376.746,228.332,409.987z"
	/>
</svg>
