<?xml version="1.0" encoding="utf-8"?>
<!-- Generator: Adobe Illustrator 17.0.0, SVG Export Plug-In . SVG Version: 6.00 Build 0)  -->
<!DOCTYPE svg PUBLIC "-//W3C//DTD SVG 1.1//EN" "http://www.w3.org/Graphics/SVG/1.1/DTD/svg11.dtd">
<svg version="1.1" id="Layer_1" xmlns="http://www.w3.org/2000/svg" xmlns:xlink="http://www.w3.org/1999/xlink" x="0px" y="0px"
	 width="1178.077px" height="1012.886px" viewBox="0 0 1178.077 1012.886" enable-background="new 0 0 1178.077 1012.886"
	 xml:space="preserve">
<radialGradient id="SVGID_1_" cx="51.32" cy="384.8939" r="1.4335" gradientUnits="userSpaceOnUse">
	<stop  offset="0.1174" style="stop-color:#DEDBC0"/>
	<stop  offset="1" style="stop-color:#FFFFFF;stop-opacity:0"/>
</radialGradient>
<path fill="url(#SVGID_1_)" d="M51.285,383.329c0,0-0.187,0.942-0.36,1.108c-0.22,0.213-0.894,0.413-0.894,0.413
	s0.698,0.229,0.916,0.477c0.183,0.208,0.42,1.133,0.42,1.133s0.209-0.94,0.388-1.157c0.18-0.219,0.852-0.529,0.852-0.529
	s-0.694-0.161-0.897-0.356C51.53,384.242,51.285,383.329,51.285,383.329z"/>
<radialGradient id="SVGID_2_" cx="14.0637" cy="357.1297" r="2.0538" gradientUnits="userSpaceOnUse">
	<stop  offset="0.1174" style="stop-color:#DEDBC0"/>
	<stop  offset="1" style="stop-color:#FFFFFF;stop-opacity:0"/>
</radialGradient>
<path fill="url(#SVGID_2_)" d="M14.014,354.887c0,0-0.269,1.349-0.515,1.588c-0.316,0.305-1.28,0.591-1.28,0.591
	s1,0.328,1.313,0.684c0.262,0.298,0.602,1.623,0.602,1.623s0.299-1.346,0.556-1.658c0.258-0.313,1.221-0.758,1.221-0.758
	s-0.994-0.231-1.285-0.51C14.364,356.196,14.014,354.887,14.014,354.887z"/>
<radialGradient id="SVGID_3_" cx="2.6345" cy="436.989" r="2.9312" gradientUnits="userSpaceOnUse">
	<stop  offset="0.1174" style="stop-color:#DEDBC0"/>
	<stop  offset="1" style="stop-color:#FFFFFF;stop-opacity:0"/>
</radialGradient>
<path fill="url(#SVGID_3_)" d="M2.563,433.788c0,0-0.383,1.926-0.736,2.266C1.377,436.489,0,436.898,0,436.898
	s1.427,0.468,1.873,0.976c0.374,0.425,0.859,2.316,0.859,2.316s0.427-1.921,0.794-2.366c0.368-0.447,1.743-1.081,1.743-1.081
	s-1.419-0.33-1.834-0.729C3.064,435.657,2.563,433.788,2.563,433.788z"/>
<radialGradient id="SVGID_4_" cx="45.2959" cy="349.4694" r="4.3748" gradientUnits="userSpaceOnUse">
	<stop  offset="0.1174" style="stop-color:#DEDBC0"/>
	<stop  offset="1" style="stop-color:#FFFFFF;stop-opacity:0"/>
</radialGradient>
<path fill="url(#SVGID_4_)" d="M45.189,344.693c0,0-0.572,2.874-1.098,3.382c-0.672,0.649-2.727,1.259-2.727,1.259
	s2.13,0.699,2.796,1.456c0.559,0.635,1.282,3.456,1.282,3.456s0.638-2.868,1.185-3.532c0.549-0.667,2.602-1.614,2.602-1.614
	s-2.118-0.492-2.738-1.087C45.936,347.481,45.189,344.693,45.189,344.693z"/>
<radialGradient id="SVGID_5_" cx="1176.7889" cy="362.0573" r="1.4335" gradientUnits="userSpaceOnUse">
	<stop  offset="0.1174" style="stop-color:#DEDBC0"/>
	<stop  offset="1" style="stop-color:#FFFFFF;stop-opacity:0"/>
</radialGradient>
<path fill="url(#SVGID_5_)" d="M1176.754,360.492c0,0-0.187,0.942-0.36,1.108c-0.22,0.213-0.894,0.413-0.894,0.413
	s0.698,0.229,0.916,0.477c0.183,0.208,0.42,1.133,0.42,1.133s0.209-0.94,0.388-1.157c0.18-0.219,0.853-0.529,0.853-0.529
	s-0.694-0.161-0.897-0.356C1176.999,361.406,1176.754,360.492,1176.754,360.492z"/>
<radialGradient id="SVGID_6_" cx="1139.5326" cy="334.2931" r="1.9101" gradientUnits="userSpaceOnUse">
	<stop  offset="0.1174" style="stop-color:#DEDBC0"/>
	<stop  offset="1" style="stop-color:#FFFFFF;stop-opacity:0"/>
</radialGradient>
<path fill="url(#SVGID_6_)" d="M1139.486,332.208c0,0-0.25,1.255-0.479,1.476c-0.294,0.283-1.191,0.55-1.191,0.55
	s0.93,0.305,1.221,0.636c0.244,0.277,0.559,1.509,0.559,1.509s0.279-1.252,0.517-1.542c0.24-0.291,1.136-0.705,1.136-0.705
	s-0.925-0.215-1.195-0.475C1139.812,333.425,1139.486,332.208,1139.486,332.208z"/>
<radialGradient id="SVGID_7_" cx="934.0515" cy="275.1874" r="2.1003" gradientUnits="userSpaceOnUse">
	<stop  offset="0.1174" style="stop-color:#DEDBC0"/>
	<stop  offset="1" style="stop-color:#FFFFFF;stop-opacity:0"/>
</radialGradient>
<path fill="url(#SVGID_7_)" d="M934,272.894c0,0-0.275,1.38-0.527,1.624c-0.323,0.312-1.309,0.604-1.309,0.604
	s1.022,0.336,1.342,0.699c0.268,0.305,0.615,1.659,0.615,1.659s0.306-1.377,0.569-1.695c0.264-0.32,1.249-0.775,1.249-0.775
	s-1.017-0.236-1.314-0.522C934.359,274.233,934,272.894,934,272.894z"/>
<radialGradient id="SVGID_8_" cx="1170.7648" cy="326.6328" r="2.8981" gradientUnits="userSpaceOnUse">
	<stop  offset="0.1174" style="stop-color:#DEDBC0"/>
	<stop  offset="1" style="stop-color:#FFFFFF;stop-opacity:0"/>
</radialGradient>
<path fill="url(#SVGID_8_)" d="M1170.694,323.468c0,0-0.379,1.904-0.727,2.24c-0.445,0.43-1.807,0.834-1.807,0.834
	s1.411,0.463,1.852,0.965c0.37,0.42,0.849,2.29,0.849,2.29s0.423-1.9,0.785-2.34c0.364-0.442,1.724-1.069,1.724-1.069
	s-1.403-0.326-1.814-0.72C1171.189,325.315,1170.694,323.468,1170.694,323.468z"/>
<radialGradient id="SVGID_9_" cx="489.6583" cy="421.2651" r="2.2013" gradientUnits="userSpaceOnUse">
	<stop  offset="0.1174" style="stop-color:#DEDBC0"/>
	<stop  offset="1" style="stop-color:#FFFFFF;stop-opacity:0"/>
</radialGradient>
<path fill="url(#SVGID_9_)" d="M489.605,418.862c0,0-0.288,1.446-0.552,1.702c-0.338,0.327-1.372,0.634-1.372,0.634
	s1.072,0.352,1.407,0.733c0.281,0.319,0.645,1.739,0.645,1.739s0.321-1.443,0.596-1.777c0.276-0.336,1.309-0.812,1.309-0.812
	s-1.066-0.247-1.378-0.547C489.98,420.265,489.605,418.862,489.605,418.862z"/>
<radialGradient id="SVGID_10_" cx="1097.5326" cy="420.8758" r="2.3287" gradientUnits="userSpaceOnUse">
	<stop  offset="0.1174" style="stop-color:#DEDBC0"/>
	<stop  offset="1" style="stop-color:#FFFFFF;stop-opacity:0"/>
</radialGradient>
<path fill="url(#SVGID_10_)" d="M1097.476,418.333c0,0-0.304,1.53-0.584,1.8c-0.358,0.346-1.452,0.67-1.452,0.67
	s1.134,0.372,1.488,0.775c0.297,0.338,0.682,1.84,0.682,1.84s0.339-1.526,0.631-1.88c0.292-0.355,1.385-0.859,1.385-0.859
	s-1.127-0.262-1.457-0.579C1097.873,419.817,1097.476,418.333,1097.476,418.333z"/>
<radialGradient id="SVGID_11_" cx="1025.3353" cy="61.8604" r="2.0249" gradientUnits="userSpaceOnUse">
	<stop  offset="0.1174" style="stop-color:#DEDBC0"/>
	<stop  offset="1" style="stop-color:#FFFFFF;stop-opacity:0"/>
</radialGradient>
<path fill="url(#SVGID_11_)" d="M1025.286,59.649c0,0-0.265,1.33-0.508,1.565c-0.311,0.3-1.262,0.583-1.262,0.583
	s0.986,0.324,1.294,0.674c0.259,0.294,0.593,1.6,0.593,1.6s0.295-1.327,0.548-1.635c0.254-0.309,1.204-0.747,1.204-0.747
	s-0.98-0.228-1.267-0.503C1025.632,60.94,1025.286,59.649,1025.286,59.649z"/>
<radialGradient id="SVGID_12_" cx="747.7292" cy="41.2264" r="2.7834" gradientUnits="userSpaceOnUse">
	<stop  offset="0.1174" style="stop-color:#DEDBC0"/>
	<stop  offset="1" style="stop-color:#FFFFFF;stop-opacity:0"/>
</radialGradient>
<path fill="url(#SVGID_12_)" d="M747.661,38.187c0,0-0.364,1.828-0.698,2.151c-0.428,0.413-1.735,0.801-1.735,0.801
	s1.355,0.445,1.779,0.927c0.355,0.404,0.815,2.199,0.815,2.199s0.406-1.825,0.754-2.247c0.35-0.424,1.655-1.027,1.655-1.027
	s-1.348-0.313-1.742-0.692C748.137,39.961,747.661,38.187,747.661,38.187z"/>
<radialGradient id="SVGID_13_" cx="732.4409" cy="62.4653" r="2.5633" gradientUnits="userSpaceOnUse">
	<stop  offset="0.1174" style="stop-color:#DEDBC0"/>
	<stop  offset="1" style="stop-color:#FFFFFF;stop-opacity:0"/>
</radialGradient>
<path fill="url(#SVGID_13_)" d="M732.378,59.667c0,0-0.335,1.684-0.643,1.981c-0.394,0.38-1.598,0.738-1.598,0.738
	s1.248,0.41,1.638,0.853c0.327,0.372,0.751,2.025,0.751,2.025s0.374-1.68,0.694-2.069c0.322-0.391,1.524-0.946,1.524-0.946
	s-1.241-0.288-1.604-0.637C732.816,61.3,732.378,59.667,732.378,59.667z"/>
<radialGradient id="SVGID_14_" cx="619.9539" cy="2.3158" r="2.121" gradientUnits="userSpaceOnUse">
	<stop  offset="0.1174" style="stop-color:#DEDBC0"/>
	<stop  offset="1" style="stop-color:#FFFFFF;stop-opacity:0"/>
</radialGradient>
<path fill="url(#SVGID_14_)" d="M619.902,0c0,0-0.277,1.393-0.532,1.639c-0.326,0.315-1.322,0.61-1.322,0.61
	s1.033,0.339,1.356,0.706c0.271,0.308,0.621,1.676,0.621,1.676s0.309-1.39,0.574-1.712c0.266-0.323,1.261-0.782,1.261-0.782
	s-1.027-0.238-1.327-0.527C620.264,1.352,619.902,0,619.902,0z"/>
<radialGradient id="SVGID_15_" cx="1051.1003" cy="35.4627" r="2.0716" gradientUnits="userSpaceOnUse">
	<stop  offset="0.1174" style="stop-color:#DEDBC0"/>
	<stop  offset="1" style="stop-color:#FFFFFF;stop-opacity:0"/>
</radialGradient>
<path fill="url(#SVGID_15_)" d="M1051.05,33.201c0,0-0.271,1.361-0.52,1.601c-0.318,0.307-1.292,0.596-1.292,0.596
	s1.008,0.331,1.324,0.69c0.265,0.301,0.607,1.637,0.607,1.637s0.302-1.358,0.561-1.672c0.26-0.316,1.232-0.764,1.232-0.764
	s-1.003-0.233-1.297-0.515C1051.404,34.521,1051.05,33.201,1051.05,33.201z"/>
<radialGradient id="SVGID_16_" cx="77.2208" cy="48.6874" r="2.4334" gradientUnits="userSpaceOnUse">
	<stop  offset="0.1174" style="stop-color:#DEDBC0"/>
	<stop  offset="1" style="stop-color:#FFFFFF;stop-opacity:0"/>
</radialGradient>
<path fill="url(#SVGID_16_)" d="M77.161,46.03c0,0-0.318,1.599-0.611,1.881c-0.374,0.361-1.517,0.7-1.517,0.7
	s1.185,0.389,1.555,0.81c0.311,0.353,0.713,1.922,0.713,1.922s0.355-1.595,0.659-1.964c0.306-0.371,1.447-0.898,1.447-0.898
	s-1.178-0.274-1.523-0.605C77.577,47.581,77.161,46.03,77.161,46.03z"/>
<radialGradient id="SVGID_17_" cx="85.2754" cy="60.1156" r="2.4334" gradientUnits="userSpaceOnUse">
	<stop  offset="0.1174" style="stop-color:#DEDBC0"/>
	<stop  offset="1" style="stop-color:#FFFFFF;stop-opacity:0"/>
</radialGradient>
<path fill="url(#SVGID_17_)" d="M85.216,57.459c0,0-0.318,1.599-0.611,1.881c-0.374,0.361-1.517,0.7-1.517,0.7
	s1.185,0.389,1.555,0.81c0.311,0.353,0.713,1.922,0.713,1.922s0.355-1.595,0.659-1.964c0.306-0.371,1.447-0.898,1.447-0.898
	s-1.178-0.274-1.523-0.605C85.632,59.01,85.216,57.459,85.216,57.459z"/>
<radialGradient id="SVGID_18_" cx="348.9749" cy="209.7973" r="1.3532" gradientUnits="userSpaceOnUse">
	<stop  offset="0.1174" style="stop-color:#DEDBC0"/>
	<stop  offset="1" style="stop-color:#FFFFFF;stop-opacity:0"/>
</radialGradient>
<path fill="url(#SVGID_18_)" d="M348.942,208.32c0,0-0.177,0.889-0.34,1.046c-0.208,0.201-0.844,0.389-0.844,0.389
	s0.659,0.216,0.865,0.45c0.173,0.196,0.396,1.069,0.396,1.069s0.197-0.887,0.366-1.092c0.17-0.206,0.805-0.499,0.805-0.499
	s-0.655-0.152-0.847-0.336C349.173,209.182,348.942,208.32,348.942,208.32z"/>
<radialGradient id="SVGID_19_" cx="353.4539" cy="216.1523" r="1.3532" gradientUnits="userSpaceOnUse">
	<stop  offset="0.1174" style="stop-color:#DEDBC0"/>
	<stop  offset="1" style="stop-color:#FFFFFF;stop-opacity:0"/>
</radialGradient>
<path fill="url(#SVGID_19_)" d="M353.421,214.675c0,0-0.177,0.889-0.34,1.046c-0.208,0.201-0.844,0.389-0.844,0.389
	s0.659,0.216,0.865,0.45c0.173,0.196,0.396,1.069,0.396,1.069s0.197-0.887,0.366-1.092c0.17-0.206,0.805-0.499,0.805-0.499
	s-0.655-0.152-0.847-0.336C353.652,215.537,353.421,214.675,353.421,214.675z"/>
<radialGradient id="SVGID_20_" cx="45.882" cy="74.6515" r="3.1124" gradientUnits="userSpaceOnUse">
	<stop  offset="0.1174" style="stop-color:#DEDBC0"/>
	<stop  offset="1" style="stop-color:#FFFFFF;stop-opacity:0"/>
</radialGradient>
<path fill="url(#SVGID_20_)" d="M45.806,71.253c0,0-0.407,2.045-0.781,2.406c-0.478,0.462-1.94,0.896-1.94,0.896
	s1.515,0.497,1.989,1.036c0.397,0.452,0.912,2.459,0.912,2.459s0.454-2.04,0.843-2.513c0.391-0.475,1.851-1.148,1.851-1.148
	s-1.507-0.35-1.948-0.774C46.337,73.237,45.806,71.253,45.806,71.253z"/>
<radialGradient id="SVGID_21_" cx="40.2551" cy="164.6405" r="1.6051" gradientUnits="userSpaceOnUse">
	<stop  offset="0.1174" style="stop-color:#DEDBC0"/>
	<stop  offset="1" style="stop-color:#FFFFFF;stop-opacity:0"/>
</radialGradient>
<path fill="url(#SVGID_21_)" d="M40.216,162.888c0,0-0.21,1.054-0.403,1.241c-0.247,0.238-1.001,0.462-1.001,0.462
	s0.781,0.257,1.026,0.534c0.205,0.233,0.47,1.268,0.47,1.268s0.234-1.052,0.435-1.296c0.202-0.245,0.955-0.592,0.955-0.592
	s-0.777-0.18-1.005-0.399C40.49,163.911,40.216,162.888,40.216,162.888z"/>
<radialGradient id="SVGID_22_" cx="962.6942" cy="155.5831" r="1.8452" gradientUnits="userSpaceOnUse">
	<stop  offset="0.1174" style="stop-color:#DEDBC0"/>
	<stop  offset="1" style="stop-color:#FFFFFF;stop-opacity:0"/>
</radialGradient>
<path fill="url(#SVGID_22_)" d="M962.649,153.568c0,0-0.241,1.212-0.463,1.426c-0.284,0.274-1.15,0.531-1.15,0.531
	s0.898,0.295,1.179,0.614c0.236,0.268,0.541,1.458,0.541,1.458s0.269-1.21,0.5-1.49c0.232-0.281,1.097-0.681,1.097-0.681
	s-0.893-0.207-1.155-0.459C962.964,154.744,962.649,153.568,962.649,153.568z"/>
<radialGradient id="SVGID_23_" cx="189.9209" cy="120.5525" r="2.4334" gradientUnits="userSpaceOnUse">
	<stop  offset="0.1174" style="stop-color:#DEDBC0"/>
	<stop  offset="1" style="stop-color:#FFFFFF;stop-opacity:0"/>
</radialGradient>
<path fill="url(#SVGID_23_)" d="M189.862,117.896c0,0-0.318,1.599-0.611,1.881c-0.374,0.361-1.517,0.7-1.517,0.7
	s1.185,0.389,1.555,0.81c0.311,0.353,0.713,1.922,0.713,1.922s0.355-1.595,0.659-1.964c0.306-0.371,1.447-0.898,1.447-0.898
	s-1.178-0.274-1.523-0.605C190.277,119.446,189.862,117.896,189.862,117.896z"/>
<radialGradient id="SVGID_24_" cx="197.3034" cy="136.4175" r="2.4334" gradientUnits="userSpaceOnUse">
	<stop  offset="0.1174" style="stop-color:#DEDBC0"/>
	<stop  offset="1" style="stop-color:#FFFFFF;stop-opacity:0"/>
</radialGradient>
<path fill="url(#SVGID_24_)" d="M197.244,133.761c0,0-0.318,1.599-0.611,1.881c-0.374,0.361-1.517,0.7-1.517,0.7
	s1.185,0.389,1.555,0.81c0.311,0.353,0.713,1.922,0.713,1.922s0.355-1.595,0.659-1.964c0.306-0.371,1.447-0.898,1.447-0.898
	s-1.178-0.274-1.523-0.605C197.66,135.311,197.244,133.761,197.244,133.761z"/>
<radialGradient id="SVGID_25_" cx="386.9749" cy="13.7973" r="1.3532" gradientUnits="userSpaceOnUse">
	<stop  offset="0.1174" style="stop-color:#DEDBC0"/>
	<stop  offset="1" style="stop-color:#FFFFFF;stop-opacity:0"/>
</radialGradient>
<path fill="url(#SVGID_25_)" d="M386.942,12.32c0,0-0.177,0.889-0.34,1.046c-0.208,0.201-0.844,0.389-0.844,0.389
	s0.659,0.216,0.865,0.45c0.173,0.196,0.396,1.069,0.396,1.069s0.197-0.887,0.366-1.092c0.17-0.206,0.805-0.499,0.805-0.499
	s-0.655-0.152-0.847-0.336C387.173,13.182,386.942,12.32,386.942,12.32z"/>
<radialGradient id="SVGID_26_" cx="531.9749" cy="57.7973" r="1.3532" gradientUnits="userSpaceOnUse">
	<stop  offset="0.1174" style="stop-color:#DEDBC0"/>
	<stop  offset="1" style="stop-color:#FFFFFF;stop-opacity:0"/>
</radialGradient>
<path fill="url(#SVGID_26_)" d="M531.942,56.32c0,0-0.177,0.889-0.34,1.046c-0.208,0.201-0.844,0.389-0.844,0.389
	s0.659,0.216,0.865,0.45c0.173,0.196,0.396,1.069,0.396,1.069s0.197-0.887,0.366-1.092c0.17-0.206,0.805-0.499,0.805-0.499
	s-0.655-0.152-0.847-0.336C532.173,57.182,531.942,56.32,531.942,56.32z"/>
<radialGradient id="SVGID_27_" cx="535.5947" cy="49.5928" r="1.7069" gradientUnits="userSpaceOnUse">
	<stop  offset="0.1174" style="stop-color:#DEDBC0"/>
	<stop  offset="1" style="stop-color:#FFFFFF;stop-opacity:0"/>
</radialGradient>
<path fill="url(#SVGID_27_)" d="M535.553,47.729c0,0-0.223,1.121-0.428,1.319c-0.262,0.253-1.064,0.491-1.064,0.491
	s0.831,0.273,1.091,0.568c0.218,0.248,0.5,1.349,0.5,1.349s0.249-1.119,0.462-1.378c0.214-0.26,1.015-0.63,1.015-0.63
	s-0.826-0.192-1.068-0.424C535.844,48.817,535.553,47.729,535.553,47.729z"/>
<radialGradient id="SVGID_28_" cx="501.3124" cy="397.1259" r="2.2013" gradientUnits="userSpaceOnUse">
	<stop  offset="0.1174" style="stop-color:#DEDBC0"/>
	<stop  offset="1" style="stop-color:#FFFFFF;stop-opacity:0"/>
</radialGradient>
<path fill="url(#SVGID_28_)" d="M501.259,394.722c0,0-0.288,1.446-0.552,1.702c-0.338,0.327-1.372,0.634-1.372,0.634
	s1.072,0.352,1.407,0.733c0.281,0.319,0.645,1.739,0.645,1.739s0.321-1.443,0.596-1.777c0.276-0.336,1.309-0.812,1.309-0.812
	s-1.066-0.247-1.378-0.547C501.635,396.125,501.259,394.722,501.259,394.722z"/>
<radialGradient id="SVGID_29_" cx="503.7669" cy="401.968" r="1.651" gradientUnits="userSpaceOnUse">
	<stop  offset="0.1174" style="stop-color:#DEDBC0"/>
	<stop  offset="1" style="stop-color:#FFFFFF;stop-opacity:0"/>
</radialGradient>
<path fill="url(#SVGID_29_)" d="M503.727,400.165c0,0-0.216,1.085-0.414,1.276c-0.254,0.245-1.029,0.475-1.029,0.475
	s0.804,0.264,1.055,0.55c0.211,0.24,0.484,1.304,0.484,1.304s0.241-1.082,0.447-1.333c0.207-0.252,0.982-0.609,0.982-0.609
	s-0.799-0.186-1.033-0.41C504.009,401.218,503.727,400.165,503.727,400.165z"/>
<radialGradient id="SVGID_30_" cx="264.5266" cy="685.6268" r="1.4335" gradientUnits="userSpaceOnUse">
	<stop  offset="0.1174" style="stop-color:#DEDBC0"/>
	<stop  offset="1" style="stop-color:#FFFFFF;stop-opacity:0"/>
</radialGradient>
<path fill="url(#SVGID_30_)" d="M264.492,684.062c0,0-0.187,0.942-0.36,1.108c-0.22,0.213-0.894,0.413-0.894,0.413
	s0.698,0.229,0.916,0.477c0.183,0.208,0.42,1.133,0.42,1.133s0.209-0.94,0.388-1.157c0.18-0.219,0.852-0.529,0.852-0.529
	s-0.694-0.161-0.897-0.356C264.736,684.975,264.492,684.062,264.492,684.062z"/>
<radialGradient id="SVGID_31_" cx="227.2702" cy="657.8626" r="2.0538" gradientUnits="userSpaceOnUse">
	<stop  offset="0.1174" style="stop-color:#DEDBC0"/>
	<stop  offset="1" style="stop-color:#FFFFFF;stop-opacity:0"/>
</radialGradient>
<path fill="url(#SVGID_31_)" d="M227.22,655.62c0,0-0.268,1.349-0.515,1.588c-0.316,0.305-1.28,0.591-1.28,0.591
	s1,0.328,1.313,0.684c0.262,0.298,0.602,1.623,0.602,1.623s0.299-1.346,0.556-1.658c0.258-0.313,1.221-0.758,1.221-0.758
	s-0.994-0.231-1.285-0.51C227.571,656.929,227.22,655.62,227.22,655.62z"/>
<radialGradient id="SVGID_32_" cx="215.8411" cy="737.7219" r="2.9312" gradientUnits="userSpaceOnUse">
	<stop  offset="0.1174" style="stop-color:#DEDBC0"/>
	<stop  offset="1" style="stop-color:#FFFFFF;stop-opacity:0"/>
</radialGradient>
<path fill="url(#SVGID_32_)" d="M215.77,734.521c0,0-0.383,1.926-0.736,2.266c-0.451,0.435-1.827,0.844-1.827,0.844
	s1.427,0.468,1.873,0.976c0.374,0.425,0.859,2.316,0.859,2.316s0.427-1.921,0.794-2.366c0.368-0.447,1.743-1.081,1.743-1.081
	s-1.419-0.33-1.834-0.729C216.27,736.39,215.77,734.521,215.77,734.521z"/>
<radialGradient id="SVGID_33_" cx="258.5024" cy="650.2023" r="4.3748" gradientUnits="userSpaceOnUse">
	<stop  offset="0.1174" style="stop-color:#DEDBC0"/>
	<stop  offset="1" style="stop-color:#FFFFFF;stop-opacity:0"/>
</radialGradient>
<path fill="url(#SVGID_33_)" d="M258.396,645.426c0,0-0.572,2.874-1.098,3.382c-0.672,0.649-2.727,1.259-2.727,1.259
	s2.13,0.699,2.796,1.456c0.559,0.635,1.282,3.456,1.282,3.456s0.638-2.868,1.185-3.532c0.549-0.667,2.602-1.614,2.602-1.614
	s-2.118-0.492-2.738-1.087C259.143,648.214,258.396,645.426,258.396,645.426z"/>
<radialGradient id="SVGID_34_" cx="188.2763" cy="787.9782" r="1.4335" gradientUnits="userSpaceOnUse">
	<stop  offset="0.1174" style="stop-color:#DEDBC0"/>
	<stop  offset="1" style="stop-color:#FFFFFF;stop-opacity:0"/>
</radialGradient>
<path fill="url(#SVGID_34_)" d="M188.241,786.413c0,0-0.187,0.942-0.36,1.108c-0.22,0.213-0.894,0.413-0.894,0.413
	s0.698,0.229,0.916,0.477c0.183,0.208,0.42,1.133,0.42,1.133s0.209-0.94,0.388-1.157c0.18-0.219,0.852-0.529,0.852-0.529
	s-0.694-0.161-0.897-0.356C188.486,787.327,188.241,786.413,188.241,786.413z"/>
<radialGradient id="SVGID_35_" cx="151.02" cy="760.214" r="1.9101" gradientUnits="userSpaceOnUse">
	<stop  offset="0.1174" style="stop-color:#DEDBC0"/>
	<stop  offset="1" style="stop-color:#FFFFFF;stop-opacity:0"/>
</radialGradient>
<path fill="url(#SVGID_35_)" d="M150.973,758.128c0,0-0.25,1.255-0.479,1.476c-0.294,0.283-1.191,0.55-1.191,0.55
	s0.93,0.305,1.221,0.636c0.244,0.277,0.56,1.509,0.56,1.509s0.279-1.252,0.517-1.542c0.24-0.291,1.136-0.705,1.136-0.705
	s-0.925-0.215-1.195-0.475C151.3,759.346,150.973,758.128,150.973,758.128z"/>
<radialGradient id="SVGID_36_" cx="1147.2581" cy="575.9203" r="2.1003" gradientUnits="userSpaceOnUse">
	<stop  offset="0.1174" style="stop-color:#DEDBC0"/>
	<stop  offset="1" style="stop-color:#FFFFFF;stop-opacity:0"/>
</radialGradient>
<path fill="url(#SVGID_36_)" d="M1147.207,573.627c0,0-0.275,1.38-0.527,1.623c-0.323,0.312-1.309,0.604-1.309,0.604
	s1.022,0.336,1.342,0.699c0.268,0.305,0.615,1.659,0.615,1.659s0.306-1.377,0.569-1.695c0.264-0.32,1.249-0.775,1.249-0.775
	s-1.017-0.236-1.314-0.522C1147.565,574.966,1147.207,573.627,1147.207,573.627z"/>
<radialGradient id="SVGID_37_" cx="182.2522" cy="752.5536" r="2.8981" gradientUnits="userSpaceOnUse">
	<stop  offset="0.1174" style="stop-color:#DEDBC0"/>
	<stop  offset="1" style="stop-color:#FFFFFF;stop-opacity:0"/>
</radialGradient>
<path fill="url(#SVGID_37_)" d="M182.181,749.389c0,0-0.379,1.904-0.727,2.24c-0.445,0.43-1.807,0.834-1.807,0.834
	s1.411,0.463,1.852,0.965c0.37,0.42,0.849,2.29,0.849,2.29s0.423-1.9,0.785-2.34c0.364-0.442,1.723-1.069,1.723-1.069
	s-1.403-0.326-1.814-0.72C182.676,751.236,182.181,749.389,182.181,749.389z"/>
<radialGradient id="SVGID_38_" cx="702.8649" cy="721.998" r="2.2013" gradientUnits="userSpaceOnUse">
	<stop  offset="0.1174" style="stop-color:#DEDBC0"/>
	<stop  offset="1" style="stop-color:#FFFFFF;stop-opacity:0"/>
</radialGradient>
<path fill="url(#SVGID_38_)" d="M702.811,719.594c0,0-0.288,1.446-0.552,1.702c-0.338,0.327-1.372,0.634-1.372,0.634
	s1.072,0.352,1.407,0.733c0.281,0.319,0.645,1.739,0.645,1.739s0.321-1.443,0.596-1.777c0.276-0.336,1.309-0.812,1.309-0.812
	s-1.066-0.247-1.378-0.547C703.187,720.997,702.811,719.594,702.811,719.594z"/>
<radialGradient id="SVGID_39_" cx="109.02" cy="846.7967" r="2.3287" gradientUnits="userSpaceOnUse">
	<stop  offset="0.1174" style="stop-color:#DEDBC0"/>
	<stop  offset="1" style="stop-color:#FFFFFF;stop-opacity:0"/>
</radialGradient>
<path fill="url(#SVGID_39_)" d="M108.963,844.254c0,0-0.304,1.53-0.584,1.8c-0.358,0.346-1.452,0.67-1.452,0.67
	s1.134,0.372,1.488,0.775c0.297,0.338,0.682,1.84,0.682,1.84s0.34-1.526,0.631-1.88c0.292-0.355,1.385-0.859,1.385-0.859
	s-1.127-0.262-1.457-0.579C109.361,845.738,108.963,844.254,108.963,844.254z"/>
<radialGradient id="SVGID_40_" cx="36.8227" cy="487.7812" r="2.0249" gradientUnits="userSpaceOnUse">
	<stop  offset="0.1174" style="stop-color:#DEDBC0"/>
	<stop  offset="1" style="stop-color:#FFFFFF;stop-opacity:0"/>
</radialGradient>
<path fill="url(#SVGID_40_)" d="M36.773,485.57c0,0-0.265,1.33-0.508,1.565c-0.311,0.3-1.262,0.583-1.262,0.583
	s0.986,0.324,1.294,0.674c0.259,0.294,0.593,1.6,0.593,1.6s0.295-1.327,0.548-1.635c0.254-0.309,1.204-0.747,1.204-0.747
	s-0.98-0.228-1.267-0.503C37.119,486.861,36.773,485.57,36.773,485.57z"/>
<radialGradient id="SVGID_41_" cx="960.9358" cy="341.9593" r="2.7834" gradientUnits="userSpaceOnUse">
	<stop  offset="0.1174" style="stop-color:#DEDBC0"/>
	<stop  offset="1" style="stop-color:#FFFFFF;stop-opacity:0"/>
</radialGradient>
<path fill="url(#SVGID_41_)" d="M960.868,338.92c0,0-0.364,1.828-0.698,2.152c-0.428,0.413-1.735,0.801-1.735,0.801
	s1.355,0.445,1.779,0.927c0.355,0.404,0.815,2.199,0.815,2.199s0.406-1.825,0.754-2.247c0.35-0.424,1.655-1.027,1.655-1.027
	s-1.348-0.313-1.742-0.692C961.343,340.694,960.868,338.92,960.868,338.92z"/>
<radialGradient id="SVGID_42_" cx="945.6474" cy="363.1982" r="2.5633" gradientUnits="userSpaceOnUse">
	<stop  offset="0.1174" style="stop-color:#DEDBC0"/>
	<stop  offset="1" style="stop-color:#FFFFFF;stop-opacity:0"/>
</radialGradient>
<path fill="url(#SVGID_42_)" d="M945.585,360.399c0,0-0.335,1.684-0.643,1.981c-0.394,0.38-1.598,0.738-1.598,0.738
	s1.248,0.41,1.638,0.853c0.327,0.372,0.751,2.025,0.751,2.025s0.374-1.68,0.694-2.069c0.322-0.391,1.524-0.946,1.524-0.946
	s-1.241-0.288-1.604-0.637C946.023,362.033,945.585,360.399,945.585,360.399z"/>
<radialGradient id="SVGID_43_" cx="833.1605" cy="303.0487" r="2.121" gradientUnits="userSpaceOnUse">
	<stop  offset="0.1174" style="stop-color:#DEDBC0"/>
	<stop  offset="1" style="stop-color:#FFFFFF;stop-opacity:0"/>
</radialGradient>
<path fill="url(#SVGID_43_)" d="M833.109,300.733c0,0-0.277,1.393-0.532,1.639c-0.326,0.315-1.322,0.61-1.322,0.61
	s1.033,0.339,1.356,0.706c0.271,0.308,0.621,1.676,0.621,1.676s0.309-1.39,0.574-1.712c0.266-0.323,1.261-0.783,1.261-0.783
	s-1.027-0.238-1.327-0.527C833.471,302.085,833.109,300.733,833.109,300.733z"/>
<radialGradient id="SVGID_44_" cx="62.5878" cy="461.3836" r="2.0716" gradientUnits="userSpaceOnUse">
	<stop  offset="0.1174" style="stop-color:#DEDBC0"/>
	<stop  offset="1" style="stop-color:#FFFFFF;stop-opacity:0"/>
</radialGradient>
<path fill="url(#SVGID_44_)" d="M62.537,459.122c0,0-0.271,1.361-0.52,1.601c-0.318,0.307-1.292,0.596-1.292,0.596
	s1.008,0.331,1.324,0.69c0.265,0.301,0.607,1.637,0.607,1.637s0.302-1.358,0.561-1.672c0.26-0.316,1.232-0.764,1.232-0.764
	s-1.003-0.233-1.296-0.515C62.891,460.442,62.537,459.122,62.537,459.122z"/>
<radialGradient id="SVGID_45_" cx="290.4273" cy="349.4203" r="2.4334" gradientUnits="userSpaceOnUse">
	<stop  offset="0.1174" style="stop-color:#DEDBC0"/>
	<stop  offset="1" style="stop-color:#FFFFFF;stop-opacity:0"/>
</radialGradient>
<path fill="url(#SVGID_45_)" d="M290.368,346.763c0,0-0.318,1.599-0.611,1.881c-0.374,0.361-1.517,0.7-1.517,0.7
	s1.185,0.389,1.555,0.81c0.311,0.353,0.713,1.923,0.713,1.923s0.355-1.595,0.659-1.964c0.306-0.371,1.447-0.898,1.447-0.898
	s-1.178-0.274-1.523-0.605C290.783,348.314,290.368,346.763,290.368,346.763z"/>
<radialGradient id="SVGID_46_" cx="298.482" cy="360.8485" r="2.4334" gradientUnits="userSpaceOnUse">
	<stop  offset="0.1174" style="stop-color:#DEDBC0"/>
	<stop  offset="1" style="stop-color:#FFFFFF;stop-opacity:0"/>
</radialGradient>
<path fill="url(#SVGID_46_)" d="M298.423,358.192c0,0-0.318,1.599-0.611,1.881c-0.374,0.361-1.517,0.7-1.517,0.7
	s1.185,0.389,1.555,0.81c0.311,0.353,0.713,1.922,0.713,1.922s0.355-1.595,0.659-1.964c0.306-0.371,1.447-0.898,1.447-0.898
	s-1.178-0.274-1.523-0.605C298.838,359.742,298.423,358.192,298.423,358.192z"/>
<radialGradient id="SVGID_47_" cx="562.1814" cy="510.5302" r="1.3532" gradientUnits="userSpaceOnUse">
	<stop  offset="0.1174" style="stop-color:#DEDBC0"/>
	<stop  offset="1" style="stop-color:#FFFFFF;stop-opacity:0"/>
</radialGradient>
<path fill="url(#SVGID_47_)" d="M562.148,509.053c0,0-0.177,0.889-0.34,1.046c-0.208,0.201-0.844,0.389-0.844,0.389
	s0.659,0.216,0.865,0.45c0.173,0.196,0.396,1.069,0.396,1.069s0.197-0.887,0.366-1.092c0.17-0.206,0.805-0.499,0.805-0.499
	s-0.655-0.152-0.847-0.336C562.379,509.915,562.148,509.053,562.148,509.053z"/>
<radialGradient id="SVGID_48_" cx="566.6604" cy="516.8852" r="1.3532" gradientUnits="userSpaceOnUse">
	<stop  offset="0.1174" style="stop-color:#DEDBC0"/>
	<stop  offset="1" style="stop-color:#FFFFFF;stop-opacity:0"/>
</radialGradient>
<path fill="url(#SVGID_48_)" d="M566.627,515.408c0,0-0.177,0.889-0.34,1.046c-0.208,0.201-0.844,0.389-0.844,0.389
	s0.659,0.216,0.865,0.45c0.173,0.196,0.396,1.069,0.396,1.069s0.197-0.887,0.366-1.092c0.17-0.206,0.805-0.499,0.805-0.499
	s-0.655-0.152-0.847-0.336C566.858,516.27,566.627,515.408,566.627,515.408z"/>
<radialGradient id="SVGID_49_" cx="259.0885" cy="375.3844" r="3.1124" gradientUnits="userSpaceOnUse">
	<stop  offset="0.1174" style="stop-color:#DEDBC0"/>
	<stop  offset="1" style="stop-color:#FFFFFF;stop-opacity:0"/>
</radialGradient>
<path fill="url(#SVGID_49_)" d="M259.013,371.986c0,0-0.407,2.045-0.781,2.406c-0.478,0.462-1.94,0.896-1.94,0.896
	s1.515,0.497,1.989,1.036c0.397,0.452,0.912,2.459,0.912,2.459s0.454-2.04,0.843-2.513c0.391-0.475,1.851-1.148,1.851-1.148
	s-1.507-0.35-1.948-0.774C259.544,373.97,259.013,371.986,259.013,371.986z"/>
<radialGradient id="SVGID_50_" cx="253.4616" cy="465.3734" r="1.6051" gradientUnits="userSpaceOnUse">
	<stop  offset="0.1174" style="stop-color:#DEDBC0"/>
	<stop  offset="1" style="stop-color:#FFFFFF;stop-opacity:0"/>
</radialGradient>
<path fill="url(#SVGID_50_)" d="M253.422,463.621c0,0-0.21,1.054-0.403,1.241c-0.247,0.238-1.001,0.462-1.001,0.462
	s0.781,0.257,1.026,0.534c0.205,0.233,0.47,1.268,0.47,1.268s0.234-1.052,0.435-1.296c0.202-0.245,0.955-0.592,0.955-0.592
	s-0.777-0.18-1.005-0.399C253.697,464.644,253.422,463.621,253.422,463.621z"/>
<radialGradient id="SVGID_51_" cx="1175.9008" cy="456.3159" r="1.8452" gradientUnits="userSpaceOnUse">
	<stop  offset="0.1174" style="stop-color:#DEDBC0"/>
	<stop  offset="1" style="stop-color:#FFFFFF;stop-opacity:0"/>
</radialGradient>
<path fill="url(#SVGID_51_)" d="M1175.856,454.301c0,0-0.241,1.212-0.463,1.426c-0.284,0.274-1.15,0.531-1.15,0.531
	s0.898,0.295,1.179,0.614c0.236,0.268,0.541,1.458,0.541,1.458s0.269-1.21,0.5-1.49c0.232-0.281,1.097-0.681,1.097-0.681
	s-0.893-0.207-1.155-0.459C1176.171,455.477,1175.856,454.301,1175.856,454.301z"/>
<radialGradient id="SVGID_52_" cx="403.1275" cy="421.2853" r="2.4334" gradientUnits="userSpaceOnUse">
	<stop  offset="0.1174" style="stop-color:#DEDBC0"/>
	<stop  offset="1" style="stop-color:#FFFFFF;stop-opacity:0"/>
</radialGradient>
<path fill="url(#SVGID_52_)" d="M403.068,418.628c0,0-0.318,1.599-0.611,1.881c-0.374,0.361-1.517,0.7-1.517,0.7
	s1.185,0.389,1.555,0.81c0.311,0.353,0.713,1.922,0.713,1.922s0.355-1.595,0.659-1.964c0.306-0.371,1.447-0.898,1.447-0.898
	s-1.178-0.274-1.523-0.605C403.484,420.179,403.068,418.628,403.068,418.628z"/>
<radialGradient id="SVGID_53_" cx="410.5099" cy="437.1503" r="2.4334" gradientUnits="userSpaceOnUse">
	<stop  offset="0.1174" style="stop-color:#DEDBC0"/>
	<stop  offset="1" style="stop-color:#FFFFFF;stop-opacity:0"/>
</radialGradient>
<path fill="url(#SVGID_53_)" d="M410.451,434.493c0,0-0.318,1.599-0.611,1.881c-0.374,0.361-1.517,0.7-1.517,0.7
	s1.185,0.389,1.555,0.81c0.311,0.353,0.713,1.923,0.713,1.923s0.355-1.595,0.659-1.964c0.306-0.371,1.447-0.898,1.447-0.898
	s-1.178-0.274-1.523-0.605C410.866,436.044,410.451,434.493,410.451,434.493z"/>
<radialGradient id="SVGID_54_" cx="600.1814" cy="314.5302" r="1.3532" gradientUnits="userSpaceOnUse">
	<stop  offset="0.1174" style="stop-color:#DEDBC0"/>
	<stop  offset="1" style="stop-color:#FFFFFF;stop-opacity:0"/>
</radialGradient>
<path fill="url(#SVGID_54_)" d="M600.148,313.053c0,0-0.177,0.889-0.34,1.046c-0.208,0.201-0.844,0.389-0.844,0.389
	s0.659,0.216,0.865,0.45c0.173,0.196,0.396,1.069,0.396,1.069s0.197-0.887,0.366-1.092c0.17-0.206,0.805-0.499,0.805-0.499
	s-0.655-0.152-0.847-0.336C600.379,313.915,600.148,313.053,600.148,313.053z"/>
<radialGradient id="SVGID_55_" cx="745.1814" cy="358.5302" r="1.3532" gradientUnits="userSpaceOnUse">
	<stop  offset="0.1174" style="stop-color:#DEDBC0"/>
	<stop  offset="1" style="stop-color:#FFFFFF;stop-opacity:0"/>
</radialGradient>
<path fill="url(#SVGID_55_)" d="M745.148,357.053c0,0-0.177,0.889-0.34,1.046c-0.208,0.201-0.844,0.389-0.844,0.389
	s0.659,0.216,0.865,0.45c0.173,0.196,0.396,1.069,0.396,1.069s0.197-0.887,0.366-1.092c0.17-0.206,0.805-0.499,0.805-0.499
	s-0.655-0.152-0.847-0.336C745.379,357.915,745.148,357.053,745.148,357.053z"/>
<radialGradient id="SVGID_56_" cx="748.8013" cy="350.3257" r="1.7069" gradientUnits="userSpaceOnUse">
	<stop  offset="0.1174" style="stop-color:#DEDBC0"/>
	<stop  offset="1" style="stop-color:#FFFFFF;stop-opacity:0"/>
</radialGradient>
<path fill="url(#SVGID_56_)" d="M748.76,348.462c0,0-0.223,1.121-0.428,1.319c-0.262,0.253-1.064,0.491-1.064,0.491
	s0.831,0.273,1.091,0.568c0.218,0.248,0.5,1.349,0.5,1.349s0.249-1.119,0.462-1.378c0.214-0.26,1.015-0.63,1.015-0.63
	s-0.826-0.192-1.068-0.424C749.051,349.55,748.76,348.462,748.76,348.462z"/>
<radialGradient id="SVGID_57_" cx="714.5189" cy="697.8588" r="2.2013" gradientUnits="userSpaceOnUse">
	<stop  offset="0.1174" style="stop-color:#DEDBC0"/>
	<stop  offset="1" style="stop-color:#FFFFFF;stop-opacity:0"/>
</radialGradient>
<path fill="url(#SVGID_57_)" d="M714.465,695.455c0,0-0.288,1.446-0.552,1.702c-0.338,0.327-1.372,0.634-1.372,0.634
	s1.072,0.352,1.407,0.733c0.281,0.319,0.645,1.739,0.645,1.739s0.321-1.443,0.596-1.777c0.276-0.336,1.309-0.812,1.309-0.812
	s-1.066-0.247-1.378-0.547C714.841,696.858,714.465,695.455,714.465,695.455z"/>
<radialGradient id="SVGID_58_" cx="716.9734" cy="702.7009" r="1.651" gradientUnits="userSpaceOnUse">
	<stop  offset="0.1174" style="stop-color:#DEDBC0"/>
	<stop  offset="1" style="stop-color:#FFFFFF;stop-opacity:0"/>
</radialGradient>
<path fill="url(#SVGID_58_)" d="M716.933,700.898c0,0-0.216,1.085-0.414,1.276c-0.254,0.245-1.029,0.475-1.029,0.475
	s0.804,0.264,1.055,0.55c0.211,0.24,0.484,1.304,0.484,1.304s0.241-1.082,0.447-1.333c0.207-0.252,0.982-0.609,0.982-0.609
	s-0.799-0.186-1.033-0.41C717.215,701.95,716.933,700.898,716.933,700.898z"/>
<radialGradient id="SVGID_59_" cx="544.303" cy="951.5245" r="1.4335" gradientUnits="userSpaceOnUse">
	<stop  offset="0.1174" style="stop-color:#DEDBC0"/>
	<stop  offset="1" style="stop-color:#FFFFFF;stop-opacity:0"/>
</radialGradient>
<path fill="url(#SVGID_59_)" d="M544.268,949.959c0,0-0.187,0.942-0.36,1.108c-0.22,0.213-0.894,0.413-0.894,0.413
	s0.698,0.229,0.916,0.477c0.183,0.208,0.42,1.133,0.42,1.133s0.209-0.94,0.388-1.157c0.18-0.219,0.852-0.529,0.852-0.529
	s-0.694-0.161-0.897-0.356C544.513,950.873,544.268,949.959,544.268,949.959z"/>
<radialGradient id="SVGID_60_" cx="507.0467" cy="923.7604" r="1.9101" gradientUnits="userSpaceOnUse">
	<stop  offset="0.1174" style="stop-color:#DEDBC0"/>
	<stop  offset="1" style="stop-color:#FFFFFF;stop-opacity:0"/>
</radialGradient>
<path fill="url(#SVGID_60_)" d="M507,921.675c0,0-0.25,1.255-0.479,1.476c-0.294,0.283-1.191,0.55-1.191,0.55
	s0.93,0.305,1.221,0.636c0.244,0.277,0.56,1.509,0.56,1.509s0.279-1.252,0.517-1.542c0.24-0.291,1.136-0.705,1.136-0.705
	s-0.925-0.215-1.195-0.475C507.326,922.892,507,921.675,507,921.675z"/>
<radialGradient id="SVGID_61_" cx="538.2789" cy="916.1" r="2.8981" gradientUnits="userSpaceOnUse">
	<stop  offset="0.1174" style="stop-color:#DEDBC0"/>
	<stop  offset="1" style="stop-color:#FFFFFF;stop-opacity:0"/>
</radialGradient>
<path fill="url(#SVGID_61_)" d="M538.208,912.936c0,0-0.379,1.904-0.727,2.24c-0.445,0.43-1.807,0.834-1.807,0.834
	s1.411,0.463,1.852,0.965c0.37,0.42,0.849,2.29,0.849,2.29s0.423-1.9,0.785-2.34c0.364-0.442,1.723-1.069,1.723-1.069
	s-1.403-0.326-1.814-0.72C538.703,914.783,538.208,912.936,538.208,912.936z"/>
<radialGradient id="SVGID_62_" cx="502.1628" cy="859.7914" r="7.0158" gradientUnits="userSpaceOnUse">
	<stop  offset="0.1174" style="stop-color:#DEDBC0"/>
	<stop  offset="1" style="stop-color:#FFFFFF;stop-opacity:0"/>
</radialGradient>
<path fill="url(#SVGID_62_)" d="M501.992,852.131c0,0-0.917,4.609-1.761,5.423c-1.078,1.041-4.374,2.019-4.374,2.019
	s3.415,1.121,4.484,2.335c0.896,1.018,2.055,5.543,2.055,5.543s1.023-4.599,1.9-5.664c0.881-1.07,4.172-2.588,4.172-2.588
	s-3.397-0.789-4.391-1.744C503.19,856.602,501.992,852.131,501.992,852.131z"/>
<radialGradient id="SVGID_63_" cx="465.0467" cy="1010.3431" r="2.3287" gradientUnits="userSpaceOnUse">
	<stop  offset="0.1174" style="stop-color:#DEDBC0"/>
	<stop  offset="1" style="stop-color:#FFFFFF;stop-opacity:0"/>
</radialGradient>
<path fill="url(#SVGID_63_)" d="M464.99,1007.8c0,0-0.304,1.53-0.584,1.8c-0.358,0.346-1.452,0.67-1.452,0.67
	s1.134,0.372,1.488,0.775c0.297,0.338,0.682,1.84,0.682,1.84s0.34-1.526,0.631-1.88c0.292-0.355,1.385-0.859,1.385-0.859
	s-1.127-0.262-1.457-0.579C465.388,1009.285,464.99,1007.8,464.99,1007.8z"/>
<radialGradient id="SVGID_64_" cx="392.8495" cy="651.3276" r="2.0249" gradientUnits="userSpaceOnUse">
	<stop  offset="0.1174" style="stop-color:#DEDBC0"/>
	<stop  offset="1" style="stop-color:#FFFFFF;stop-opacity:0"/>
</radialGradient>
<path fill="url(#SVGID_64_)" d="M392.8,649.117c0,0-0.265,1.33-0.508,1.565c-0.311,0.3-1.262,0.583-1.262,0.583
	s0.986,0.324,1.294,0.674c0.259,0.294,0.593,1.6,0.593,1.6s0.295-1.327,0.548-1.635c0.254-0.309,1.204-0.747,1.204-0.747
	s-0.98-0.228-1.267-0.503C393.146,650.407,392.8,649.117,392.8,649.117z"/>
<radialGradient id="SVGID_65_" cx="418.6145" cy="624.9299" r="2.0716" gradientUnits="userSpaceOnUse">
	<stop  offset="0.1174" style="stop-color:#DEDBC0"/>
	<stop  offset="1" style="stop-color:#FFFFFF;stop-opacity:0"/>
</radialGradient>
<path fill="url(#SVGID_65_)" d="M418.564,622.668c0,0-0.271,1.361-0.52,1.601c-0.318,0.307-1.292,0.596-1.292,0.596
	s1.008,0.331,1.324,0.69c0.265,0.301,0.607,1.637,0.607,1.637s0.302-1.358,0.561-1.672c0.26-0.316,1.232-0.764,1.232-0.764
	s-1.003-0.233-1.296-0.515C418.918,623.988,418.564,622.668,418.564,622.668z"/>
<radialGradient id="SVGID_66_" cx="346.9749" cy="72.7973" r="1.3532" gradientUnits="userSpaceOnUse">
	<stop  offset="0.1174" style="stop-color:#DEDBC0"/>
	<stop  offset="1" style="stop-color:#FFFFFF;stop-opacity:0"/>
</radialGradient>
<path fill="url(#SVGID_66_)" d="M346.942,71.32c0,0-0.177,0.889-0.34,1.046c-0.208,0.201-0.844,0.389-0.844,0.389
	s0.659,0.216,0.865,0.45c0.173,0.196,0.396,1.069,0.396,1.069s0.197-0.887,0.366-1.092c0.17-0.206,0.805-0.499,0.805-0.499
	s-0.655-0.152-0.847-0.336C347.173,72.182,346.942,71.32,346.942,71.32z"/>
<radialGradient id="SVGID_67_" cx="351.4539" cy="79.1523" r="1.3532" gradientUnits="userSpaceOnUse">
	<stop  offset="0.1174" style="stop-color:#DEDBC0"/>
	<stop  offset="1" style="stop-color:#FFFFFF;stop-opacity:0"/>
</radialGradient>
<path fill="url(#SVGID_67_)" d="M351.421,77.675c0,0-0.177,0.889-0.34,1.046c-0.208,0.201-0.844,0.389-0.844,0.389
	s0.659,0.216,0.865,0.45c0.173,0.196,0.396,1.069,0.396,1.069s0.197-0.887,0.366-1.092c0.17-0.206,0.805-0.499,0.805-0.499
	s-0.655-0.152-0.847-0.336C351.652,78.537,351.421,77.675,351.421,77.675z"/>
<radialGradient id="SVGID_68_" cx="271.4636" cy="12.7356" r="1.8821" gradientUnits="userSpaceOnUse">
	<stop  offset="0.1174" style="stop-color:#DEDBC0"/>
	<stop  offset="1" style="stop-color:#FFFFFF;stop-opacity:0"/>
</radialGradient>
<path fill="url(#SVGID_68_)" d="M271.418,10.681c0,0-0.246,1.236-0.472,1.455c-0.289,0.279-1.173,0.542-1.173,0.542
	s0.916,0.301,1.203,0.627c0.24,0.273,0.551,1.487,0.551,1.487s0.274-1.234,0.51-1.519c0.236-0.287,1.119-0.694,1.119-0.694
	s-0.911-0.212-1.178-0.468C271.739,11.88,271.418,10.681,271.418,10.681z"/>
<radialGradient id="SVGID_69_" cx="277.6936" cy="21.5748" r="1.8821" gradientUnits="userSpaceOnUse">
	<stop  offset="0.1174" style="stop-color:#DEDBC0"/>
	<stop  offset="1" style="stop-color:#FFFFFF;stop-opacity:0"/>
</radialGradient>
<path fill="url(#SVGID_69_)" d="M277.648,19.52c0,0-0.246,1.236-0.472,1.455c-0.289,0.279-1.173,0.542-1.173,0.542
	s0.916,0.301,1.203,0.627c0.24,0.273,0.551,1.487,0.551,1.487s0.274-1.234,0.51-1.519c0.236-0.287,1.119-0.694,1.119-0.694
	s-0.911-0.212-1.178-0.468C277.969,20.719,277.648,19.52,277.648,19.52z"/>
<radialGradient id="SVGID_70_" cx="647.0145" cy="81.4669" r="1.3532" gradientUnits="userSpaceOnUse">
	<stop  offset="0.1174" style="stop-color:#DEDBC0"/>
	<stop  offset="1" style="stop-color:#FFFFFF;stop-opacity:0"/>
</radialGradient>
<path fill="url(#SVGID_70_)" d="M646.982,79.989c0,0-0.177,0.889-0.34,1.046c-0.208,0.201-0.844,0.389-0.844,0.389
	s0.659,0.216,0.865,0.45c0.173,0.196,0.396,1.069,0.396,1.069s0.197-0.887,0.367-1.092c0.17-0.206,0.805-0.499,0.805-0.499
	s-0.655-0.152-0.847-0.336C647.213,80.852,646.982,79.989,646.982,79.989z"/>
<radialGradient id="SVGID_71_" cx="651.4936" cy="87.8218" r="1.3532" gradientUnits="userSpaceOnUse">
	<stop  offset="0.1174" style="stop-color:#DEDBC0"/>
	<stop  offset="1" style="stop-color:#FFFFFF;stop-opacity:0"/>
</radialGradient>
<path fill="url(#SVGID_71_)" d="M651.461,86.344c0,0-0.177,0.889-0.34,1.046c-0.208,0.201-0.844,0.389-0.844,0.389
	s0.659,0.216,0.865,0.45c0.173,0.196,0.396,1.069,0.396,1.069s0.197-0.887,0.366-1.092c0.17-0.206,0.805-0.499,0.805-0.499
	s-0.655-0.152-0.847-0.336C651.692,87.207,651.461,86.344,651.461,86.344z"/>
<radialGradient id="SVGID_72_" cx="942.4556" cy="36.2873" r="2.3051" gradientUnits="userSpaceOnUse">
	<stop  offset="0.1174" style="stop-color:#DEDBC0"/>
	<stop  offset="1" style="stop-color:#FFFFFF;stop-opacity:0"/>
</radialGradient>
<path fill="url(#SVGID_72_)" d="M942.399,33.77c0,0-0.301,1.514-0.578,1.782c-0.354,0.342-1.437,0.663-1.437,0.663
	s1.122,0.368,1.473,0.767c0.294,0.334,0.675,1.821,0.675,1.821s0.336-1.511,0.624-1.861c0.289-0.351,1.371-0.85,1.371-0.85
	s-1.116-0.259-1.443-0.573C942.793,35.24,942.399,33.77,942.399,33.77z"/>
<radialGradient id="SVGID_73_" cx="950.0856" cy="47.113" r="2.3051" gradientUnits="userSpaceOnUse">
	<stop  offset="0.1174" style="stop-color:#DEDBC0"/>
	<stop  offset="1" style="stop-color:#FFFFFF;stop-opacity:0"/>
</radialGradient>
<path fill="url(#SVGID_73_)" d="M950.029,44.596c0,0-0.301,1.514-0.578,1.782c-0.354,0.342-1.437,0.663-1.437,0.663
	s1.122,0.368,1.473,0.767c0.294,0.334,0.675,1.821,0.675,1.821s0.336-1.511,0.624-1.861c0.289-0.351,1.371-0.85,1.371-0.85
	s-1.116-0.259-1.443-0.573C950.423,46.065,950.029,44.596,950.029,44.596z"/>
<radialGradient id="SVGID_74_" cx="1148.9749" cy="409.7973" r="1.3532" gradientUnits="userSpaceOnUse">
	<stop  offset="0.1174" style="stop-color:#DEDBC0"/>
	<stop  offset="1" style="stop-color:#FFFFFF;stop-opacity:0"/>
</radialGradient>
<path fill="url(#SVGID_74_)" d="M1148.942,408.32c0,0-0.177,0.889-0.339,1.046c-0.208,0.201-0.844,0.389-0.844,0.389
	s0.659,0.216,0.865,0.45c0.173,0.196,0.396,1.069,0.396,1.069s0.197-0.887,0.366-1.092c0.17-0.206,0.805-0.499,0.805-0.499
	s-0.655-0.152-0.847-0.336C1149.173,409.182,1148.942,408.32,1148.942,408.32z"/>
<radialGradient id="SVGID_75_" cx="1153.4539" cy="416.1523" r="1.3532" gradientUnits="userSpaceOnUse">
	<stop  offset="0.1174" style="stop-color:#DEDBC0"/>
	<stop  offset="1" style="stop-color:#FFFFFF;stop-opacity:0"/>
</radialGradient>
<path fill="url(#SVGID_75_)" d="M1153.421,414.675c0,0-0.177,0.889-0.34,1.046c-0.208,0.201-0.844,0.389-0.844,0.389
	s0.659,0.216,0.865,0.45c0.173,0.196,0.396,1.069,0.396,1.069s0.197-0.887,0.366-1.092c0.17-0.206,0.805-0.499,0.805-0.499
	s-0.655-0.152-0.847-0.336C1153.652,415.537,1153.421,414.675,1153.421,414.675z"/>
<radialGradient id="SVGID_76_" cx="1111.9749" cy="612.7973" r="1.3532" gradientUnits="userSpaceOnUse">
	<stop  offset="0.1174" style="stop-color:#DEDBC0"/>
	<stop  offset="1" style="stop-color:#FFFFFF;stop-opacity:0"/>
</radialGradient>
<path fill="url(#SVGID_76_)" d="M1111.942,611.32c0,0-0.177,0.889-0.339,1.046c-0.208,0.201-0.844,0.389-0.844,0.389
	s0.659,0.216,0.865,0.45c0.173,0.196,0.396,1.069,0.396,1.069s0.197-0.887,0.366-1.092c0.17-0.206,0.805-0.499,0.805-0.499
	s-0.655-0.152-0.847-0.336C1112.173,612.182,1111.942,611.32,1111.942,611.32z"/>
<radialGradient id="SVGID_77_" cx="1116.4539" cy="619.1523" r="1.3532" gradientUnits="userSpaceOnUse">
	<stop  offset="0.1174" style="stop-color:#DEDBC0"/>
	<stop  offset="1" style="stop-color:#FFFFFF;stop-opacity:0"/>
</radialGradient>
<path fill="url(#SVGID_77_)" d="M1116.421,617.675c0,0-0.177,0.889-0.34,1.046c-0.208,0.201-0.844,0.389-0.844,0.389
	s0.659,0.216,0.865,0.45c0.173,0.196,0.396,1.069,0.396,1.069s0.197-0.887,0.366-1.092c0.17-0.206,0.805-0.499,0.805-0.499
	s-0.655-0.152-0.847-0.336C1116.652,618.537,1116.421,617.675,1116.421,617.675z"/>
<radialGradient id="SVGID_78_" cx="732.9749" cy="628.7973" r="1.3532" gradientUnits="userSpaceOnUse">
	<stop  offset="0.1174" style="stop-color:#DEDBC0"/>
	<stop  offset="1" style="stop-color:#FFFFFF;stop-opacity:0"/>
</radialGradient>
<path fill="url(#SVGID_78_)" d="M732.942,627.32c0,0-0.177,0.889-0.34,1.046c-0.208,0.201-0.844,0.389-0.844,0.389
	s0.659,0.216,0.865,0.45c0.173,0.196,0.396,1.069,0.396,1.069s0.197-0.887,0.366-1.092c0.17-0.206,0.805-0.499,0.805-0.499
	s-0.655-0.152-0.847-0.336C733.173,628.182,732.942,627.32,732.942,627.32z"/>
<radialGradient id="SVGID_79_" cx="737.4539" cy="635.1523" r="1.3532" gradientUnits="userSpaceOnUse">
	<stop  offset="0.1174" style="stop-color:#DEDBC0"/>
	<stop  offset="1" style="stop-color:#FFFFFF;stop-opacity:0"/>
</radialGradient>
<path fill="url(#SVGID_79_)" d="M737.421,633.675c0,0-0.177,0.889-0.34,1.046c-0.208,0.201-0.844,0.389-0.844,0.389
	s0.659,0.216,0.865,0.45c0.173,0.196,0.396,1.069,0.396,1.069s0.197-0.887,0.366-1.092c0.17-0.206,0.805-0.499,0.805-0.499
	s-0.655-0.152-0.847-0.336C737.652,634.537,737.421,633.675,737.421,633.675z"/>
<radialGradient id="SVGID_80_" cx="451.9749" cy="704.7973" r="1.3532" gradientUnits="userSpaceOnUse">
	<stop  offset="0.1174" style="stop-color:#DEDBC0"/>
	<stop  offset="1" style="stop-color:#FFFFFF;stop-opacity:0"/>
</radialGradient>
<path fill="url(#SVGID_80_)" d="M451.942,703.32c0,0-0.177,0.889-0.34,1.046c-0.208,0.201-0.844,0.389-0.844,0.389
	s0.659,0.216,0.865,0.45c0.173,0.196,0.396,1.069,0.396,1.069s0.197-0.887,0.366-1.092c0.17-0.206,0.805-0.499,0.805-0.499
	s-0.655-0.152-0.847-0.336C452.173,704.182,451.942,703.32,451.942,703.32z"/>
<radialGradient id="SVGID_81_" cx="456.4539" cy="711.1523" r="1.3532" gradientUnits="userSpaceOnUse">
	<stop  offset="0.1174" style="stop-color:#DEDBC0"/>
	<stop  offset="1" style="stop-color:#FFFFFF;stop-opacity:0"/>
</radialGradient>
<path fill="url(#SVGID_81_)" d="M456.421,709.675c0,0-0.177,0.889-0.34,1.046c-0.208,0.201-0.844,0.389-0.844,0.389
	s0.659,0.216,0.865,0.45c0.173,0.196,0.396,1.069,0.396,1.069s0.197-0.887,0.366-1.092c0.17-0.206,0.805-0.499,0.805-0.499
	s-0.655-0.152-0.847-0.336C456.652,710.537,456.421,709.675,456.421,709.675z"/>
<radialGradient id="SVGID_82_" cx="152.9748" cy="745.7973" r="1.3532" gradientUnits="userSpaceOnUse">
	<stop  offset="0.1174" style="stop-color:#DEDBC0"/>
	<stop  offset="1" style="stop-color:#FFFFFF;stop-opacity:0"/>
</radialGradient>
<path fill="url(#SVGID_82_)" d="M152.942,744.32c0,0-0.177,0.889-0.34,1.046c-0.208,0.201-0.844,0.389-0.844,0.389
	s0.659,0.216,0.865,0.45c0.173,0.196,0.396,1.069,0.396,1.069s0.197-0.887,0.366-1.092c0.17-0.206,0.805-0.499,0.805-0.499
	s-0.655-0.152-0.847-0.336C153.173,745.182,152.942,744.32,152.942,744.32z"/>
<radialGradient id="SVGID_83_" cx="157.4539" cy="752.1523" r="1.3532" gradientUnits="userSpaceOnUse">
	<stop  offset="0.1174" style="stop-color:#DEDBC0"/>
	<stop  offset="1" style="stop-color:#FFFFFF;stop-opacity:0"/>
</radialGradient>
<path fill="url(#SVGID_83_)" d="M157.421,750.675c0,0-0.177,0.889-0.34,1.046c-0.208,0.201-0.844,0.389-0.844,0.389
	s0.659,0.216,0.865,0.45c0.173,0.196,0.396,1.069,0.396,1.069s0.197-0.887,0.366-1.092c0.17-0.206,0.805-0.499,0.805-0.499
	s-0.655-0.152-0.847-0.336C157.652,751.537,157.421,750.675,157.421,750.675z"/>
</svg>
