<?xml version="1.0" encoding="utf-8"?>
<!-- Generator: Adobe Illustrator 17.0.0, SVG Export Plug-In . SVG Version: 6.00 Build 0)  -->
<!DOCTYPE svg PUBLIC "-//W3C//DTD SVG 1.1//EN" "http://www.w3.org/Graphics/SVG/1.1/DTD/svg11.dtd">
<svg version="1.1" id="Layer_1" xmlns="http://www.w3.org/2000/svg" xmlns:xlink="http://www.w3.org/1999/xlink" x="0px" y="0px"
	 width="1280.395px" height="671.308px" viewBox="0 0 1280.395 671.308" enable-background="new 0 0 1280.395 671.308"
	 xml:space="preserve">
<linearGradient id="SVGID_1_" gradientUnits="userSpaceOnUse" x1="4.419616e-05" y1="335.6542" x2="1280.3945" y2="335.6542">
	<stop  offset="0" style="stop-color:#D6A87D"/>
	<stop  offset="0.2222" style="stop-color:#DDA05F"/>
	<stop  offset="0.48" style="stop-color:#DAA470"/>
	<stop  offset="0.7108" style="stop-color:#D7A77A"/>
	<stop  offset="0.882" style="stop-color:#D6A87D"/>
</linearGradient>
<path fill="url(#SVGID_1_)" d="M1280.395,671.308V37.256c0,0-62.332,11.387-91.588,10.123c-39.143-1.69-65.867-3.915-91.426,2.859
	c-20.717,5.49-64.607-9.261-86.742-8.415c-33.451,1.278-87.098-13.848-136.377-15.568c-27.954-0.976-50.119-5.705-69.133-5.801
	c-29.965-0.152-95.631,20.709-125.33,18.337c-15.799-1.262-75.031-0.786-90.871-1.851c-59.627-4.007-150.038,2.693-209.863-0.082
	c-24.816-1.151-71.21-10.715-94.837-18.142c-16.494-5.185-38.935-18.164-52.212-18.698c-16.578-0.667-61.708,17.871-77.897,20.098
	c-26.455,3.639-76.198,6.931-99.522,11.415c-15.854,3.048-23.186,1.438-29.858,2.611C14.336,35.969,0,37.297,0,37.297v634.011
	H1280.395z"/>
</svg>
