<?xml version="1.0" encoding="utf-8"?>
<!-- Generator: Adobe Illustrator 17.0.0, SVG Export Plug-In . SVG Version: 6.00 Build 0)  -->
<!DOCTYPE svg PUBLIC "-//W3C//DTD SVG 1.1//EN" "http://www.w3.org/Graphics/SVG/1.1/DTD/svg11.dtd" [
	<!ENTITY ns_flows "http://ns.adobe.com/Flows/1.0/">
	<!ENTITY ns_extend "http://ns.adobe.com/Extensibility/1.0/">
	<!ENTITY ns_ai "http://ns.adobe.com/AdobeIllustrator/10.0/">
	<!ENTITY ns_graphs "http://ns.adobe.com/Graphs/1.0/">
]>
<svg version="1.1" id="Layer_1" xmlns:x="&ns_extend;" xmlns:i="&ns_ai;" xmlns:graph="&ns_graphs;"
	 xmlns="http://www.w3.org/2000/svg" xmlns:xlink="http://www.w3.org/1999/xlink" xmlns:a="http://ns.adobe.com/AdobeSVGViewerExtensions/3.0/"
	 x="0px" y="0px" width="1280px" height="2465px" viewBox="0 0 1280 2465" enable-background="new 0 0 1280 2465"
	 xml:space="preserve">
<radialGradient id="SVGID_1_" cx="1129.7714" cy="100.0817" r="11.0123" gradientUnits="userSpaceOnUse">
	<stop  offset="0.1174" style="stop-color:#DEDBC0"/>
	<stop  offset="1" style="stop-color:#FFFFFF;stop-opacity:0"/>
	<a:midPointStop  offset="0.1174" style="stop-color:#DEDBC0"/>
	<a:midPointStop  offset="0.5" style="stop-color:#DEDBC0"/>
	<a:midPointStop  offset="1" style="stop-color:#FFFFFF;stop-opacity:0"/>
</radialGradient>
<path fill="url(#SVGID_1_)" d="M1129.5,88.1c0,0-1.4,7.2-2.8,8.5c-1.7,1.6-6.9,3.2-6.9,3.2s5.4,1.8,7,3.7c1.4,1.6,3.2,8.7,3.2,8.7
	s1.6-7.2,3-8.9c1.4-1.7,6.5-4.1,6.5-4.1s-5.3-1.2-6.9-2.7C1131.4,95.1,1129.5,88.1,1129.5,88.1z"/>
<radialGradient id="SVGID_2_" cx="1226.3632" cy="378.4536" r="7.0158" gradientUnits="userSpaceOnUse">
	<stop  offset="0.1174" style="stop-color:#DEDBC0"/>
	<stop  offset="1" style="stop-color:#FFFFFF;stop-opacity:0"/>
	<a:midPointStop  offset="0.1174" style="stop-color:#DEDBC0"/>
	<a:midPointStop  offset="0.5" style="stop-color:#DEDBC0"/>
	<a:midPointStop  offset="1" style="stop-color:#FFFFFF;stop-opacity:0"/>
</radialGradient>
<path fill="url(#SVGID_2_)" d="M1226.2,370.8c0,0-0.9,4.6-1.8,5.4c-1.1,1-4.4,2-4.4,2s3.4,1.1,4.5,2.3c0.9,1,2.1,5.5,2.1,5.5
	s1-4.6,1.9-5.7c0.9-1.1,4.2-2.6,4.2-2.6s-3.4-0.8-4.4-1.7C1227.4,375.3,1226.2,370.8,1226.2,370.8z"/>
<radialGradient id="SVGID_3_" cx="1189.1068" cy="350.6894" r="7.0158" gradientUnits="userSpaceOnUse">
	<stop  offset="0.1174" style="stop-color:#DEDBC0"/>
	<stop  offset="1" style="stop-color:#FFFFFF;stop-opacity:0"/>
	<a:midPointStop  offset="0.1174" style="stop-color:#DEDBC0"/>
	<a:midPointStop  offset="0.5" style="stop-color:#DEDBC0"/>
	<a:midPointStop  offset="1" style="stop-color:#FFFFFF;stop-opacity:0"/>
</radialGradient>
<path fill="url(#SVGID_3_)" d="M1188.9,343c0,0-0.9,4.6-1.8,5.4c-1.1,1-4.4,2-4.4,2s3.4,1.1,4.5,2.3c0.9,1,2.1,5.5,2.1,5.5
	s1-4.6,1.9-5.7c0.9-1.1,4.2-2.6,4.2-2.6s-3.4-0.8-4.4-1.7C1190.1,347.5,1188.9,343,1188.9,343z"/>
<radialGradient id="SVGID_4_" cx="889.6965" cy="395.1815" r="7.0158" gradientUnits="userSpaceOnUse">
	<stop  offset="0.1174" style="stop-color:#DEDBC0"/>
	<stop  offset="1" style="stop-color:#FFFFFF;stop-opacity:0"/>
	<a:midPointStop  offset="0.1174" style="stop-color:#DEDBC0"/>
	<a:midPointStop  offset="0.5" style="stop-color:#DEDBC0"/>
	<a:midPointStop  offset="1" style="stop-color:#FFFFFF;stop-opacity:0"/>
</radialGradient>
<path fill="url(#SVGID_4_)" d="M889.5,387.5c0,0-0.9,4.6-1.8,5.4c-1.1,1-4.4,2-4.4,2s3.4,1.1,4.5,2.3c0.9,1,2.1,5.5,2.1,5.5
	s1-4.6,1.9-5.7c0.9-1.1,4.2-2.6,4.2-2.6s-3.4-0.8-4.4-1.7C890.7,392,889.5,387.5,889.5,387.5z"/>
<radialGradient id="SVGID_5_" cx="1220.339" cy="343.0291" r="11.0123" gradientUnits="userSpaceOnUse">
	<stop  offset="0.1174" style="stop-color:#DEDBC0"/>
	<stop  offset="1" style="stop-color:#FFFFFF;stop-opacity:0"/>
	<a:midPointStop  offset="0.1174" style="stop-color:#DEDBC0"/>
	<a:midPointStop  offset="0.5" style="stop-color:#DEDBC0"/>
	<a:midPointStop  offset="1" style="stop-color:#FFFFFF;stop-opacity:0"/>
</radialGradient>
<path fill="url(#SVGID_5_)" d="M1220.1,331c0,0-1.4,7.2-2.8,8.5c-1.7,1.6-6.9,3.2-6.9,3.2s5.4,1.8,7,3.7c1.4,1.6,3.2,8.7,3.2,8.7
	s1.6-7.2,3-8.9c1.4-1.7,6.5-4.1,6.5-4.1s-5.3-1.2-6.9-2.7C1222,338,1220.1,331,1220.1,331z"/>
<radialGradient id="SVGID_6_" cx="792.7904" cy="63.1052" r="7.8047" gradientUnits="userSpaceOnUse">
	<stop  offset="0.1174" style="stop-color:#DEDBC0"/>
	<stop  offset="1" style="stop-color:#FFFFFF;stop-opacity:0"/>
	<a:midPointStop  offset="0.1174" style="stop-color:#DEDBC0"/>
	<a:midPointStop  offset="0.5" style="stop-color:#DEDBC0"/>
	<a:midPointStop  offset="1" style="stop-color:#FFFFFF;stop-opacity:0"/>
</radialGradient>
<path fill="url(#SVGID_6_)" d="M792.6,54.6c0,0-1,5.1-2,6c-1.2,1.2-4.9,2.2-4.9,2.2s3.8,1.2,5,2.6c1,1.1,2.3,6.2,2.3,6.2
	s1.1-5.1,2.1-6.3c1-1.2,4.6-2.9,4.6-2.9s-3.8-0.9-4.9-1.9C793.9,59.6,792.6,54.6,792.6,54.6z"/>
<radialGradient id="SVGID_7_" cx="749.9213" cy="122.6597" r="7.1875" gradientUnits="userSpaceOnUse">
	<stop  offset="0.1174" style="stop-color:#DEDBC0"/>
	<stop  offset="1" style="stop-color:#FFFFFF;stop-opacity:0"/>
	<a:midPointStop  offset="0.1174" style="stop-color:#DEDBC0"/>
	<a:midPointStop  offset="0.5" style="stop-color:#DEDBC0"/>
	<a:midPointStop  offset="1" style="stop-color:#FFFFFF;stop-opacity:0"/>
</radialGradient>
<path fill="url(#SVGID_7_)" d="M749.7,114.8c0,0-0.9,4.7-1.8,5.6c-1.1,1.1-4.5,2.1-4.5,2.1s3.5,1.1,4.6,2.4c0.9,1,2.1,5.7,2.1,5.7
	s1-4.7,1.9-5.8c0.9-1.1,4.3-2.7,4.3-2.7s-3.5-0.8-4.5-1.8C751,119.4,749.7,114.8,749.7,114.8z"/>
<radialGradient id="SVGID_8_" cx="674.7139" cy="25.0119" r="7.8908" gradientUnits="userSpaceOnUse">
	<stop  offset="0.1174" style="stop-color:#DEDBC0"/>
	<stop  offset="1" style="stop-color:#FFFFFF;stop-opacity:0"/>
	<a:midPointStop  offset="0.1174" style="stop-color:#DEDBC0"/>
	<a:midPointStop  offset="0.5" style="stop-color:#DEDBC0"/>
	<a:midPointStop  offset="1" style="stop-color:#FFFFFF;stop-opacity:0"/>
</radialGradient>
<path fill="url(#SVGID_8_)" d="M674.5,16.4c0,0-1,5.2-2,6.1c-1.2,1.2-4.9,2.3-4.9,2.3s3.8,1.3,5,2.6c1,1.1,2.3,6.2,2.3,6.2
	s1.2-5.2,2.1-6.4c1-1.2,4.7-2.9,4.7-2.9s-3.8-0.9-4.9-2C675.9,21.4,674.5,16.4,674.5,16.4z"/>
<radialGradient id="SVGID_9_" cx="1106.7699" cy="44.4543" r="8.8533" gradientUnits="userSpaceOnUse">
	<stop  offset="0.1174" style="stop-color:#DEDBC0"/>
	<stop  offset="1" style="stop-color:#FFFFFF;stop-opacity:0"/>
	<a:midPointStop  offset="0.1174" style="stop-color:#DEDBC0"/>
	<a:midPointStop  offset="0.5" style="stop-color:#DEDBC0"/>
	<a:midPointStop  offset="1" style="stop-color:#FFFFFF;stop-opacity:0"/>
</radialGradient>
<path fill="url(#SVGID_9_)" d="M1106.6,34.8c0,0-1.2,5.8-2.2,6.8c-1.4,1.3-5.5,2.5-5.5,2.5s4.3,1.4,5.7,2.9c1.1,1.3,2.6,7,2.6,7
	s1.3-5.8,2.4-7.1c1.1-1.3,5.3-3.3,5.3-3.3s-4.3-1-5.5-2.2C1108.1,40.4,1106.6,34.8,1106.6,34.8z"/>
<radialGradient id="SVGID_10_" cx="64.2537" cy="241.1268" r="7.8047" gradientUnits="userSpaceOnUse">
	<stop  offset="0.1174" style="stop-color:#DEDBC0"/>
	<stop  offset="1" style="stop-color:#FFFFFF;stop-opacity:0"/>
	<a:midPointStop  offset="0.1174" style="stop-color:#DEDBC0"/>
	<a:midPointStop  offset="0.5" style="stop-color:#DEDBC0"/>
	<a:midPointStop  offset="1" style="stop-color:#FFFFFF;stop-opacity:0"/>
</radialGradient>
<path fill="url(#SVGID_10_)" d="M64.1,232.6c0,0-1,5.1-2,6c-1.2,1.2-4.9,2.2-4.9,2.2s3.8,1.2,5,2.6c1,1.1,2.3,6.2,2.3,6.2
	s1.1-5.1,2.1-6.3c1-1.2,4.6-2.9,4.6-2.9s-3.8-0.9-4.9-1.9C65.4,237.6,64.1,232.6,64.1,232.6z"/>
<radialGradient id="SVGID_11_" cx="38.4239" cy="262.206" r="4.9414" gradientUnits="userSpaceOnUse">
	<stop  offset="0.1174" style="stop-color:#DEDBC0"/>
	<stop  offset="1" style="stop-color:#FFFFFF;stop-opacity:0"/>
	<a:midPointStop  offset="0.1174" style="stop-color:#DEDBC0"/>
	<a:midPointStop  offset="0.5" style="stop-color:#DEDBC0"/>
	<a:midPointStop  offset="1" style="stop-color:#FFFFFF;stop-opacity:0"/>
</radialGradient>
<path fill="url(#SVGID_11_)" d="M38.3,256.8c0,0-0.6,3.2-1.2,3.8c-0.8,0.7-3.1,1.4-3.1,1.4s2.4,0.8,3.2,1.6c0.6,0.7,1.4,3.9,1.4,3.9
	s0.7-3.2,1.3-4c0.6-0.8,2.9-1.8,2.9-1.8s-2.4-0.6-3.1-1.2C39.1,260,38.3,256.8,38.3,256.8z"/>
<radialGradient id="SVGID_12_" cx="51.7457" cy="41.5039" r="4.9414" gradientUnits="userSpaceOnUse">
	<stop  offset="0.1174" style="stop-color:#DEDBC0"/>
	<stop  offset="1" style="stop-color:#FFFFFF;stop-opacity:0"/>
	<a:midPointStop  offset="0.1174" style="stop-color:#DEDBC0"/>
	<a:midPointStop  offset="0.5" style="stop-color:#DEDBC0"/>
	<a:midPointStop  offset="1" style="stop-color:#FFFFFF;stop-opacity:0"/>
</radialGradient>
<path fill="url(#SVGID_12_)" d="M51.6,36.1c0,0-0.6,3.2-1.2,3.8c-0.8,0.7-3.1,1.4-3.1,1.4s2.4,0.8,3.2,1.6c0.6,0.7,1.4,3.9,1.4,3.9
	s0.7-3.2,1.3-4c0.6-0.8,2.9-1.8,2.9-1.8s-2.4-0.6-3.1-1.2C52.5,39.3,51.6,36.1,51.6,36.1z"/>
<radialGradient id="SVGID_13_" cx="218.576" cy="378.5791" r="4.9414" gradientUnits="userSpaceOnUse">
	<stop  offset="0.1174" style="stop-color:#DEDBC0"/>
	<stop  offset="1" style="stop-color:#FFFFFF;stop-opacity:0"/>
	<a:midPointStop  offset="0.1174" style="stop-color:#DEDBC0"/>
	<a:midPointStop  offset="0.5" style="stop-color:#DEDBC0"/>
	<a:midPointStop  offset="1" style="stop-color:#FFFFFF;stop-opacity:0"/>
</radialGradient>
<path fill="url(#SVGID_13_)" d="M218.5,373.2c0,0-0.6,3.2-1.2,3.8c-0.8,0.7-3.1,1.4-3.1,1.4s2.4,0.8,3.2,1.6
	c0.6,0.7,1.4,3.9,1.4,3.9s0.7-3.2,1.3-4c0.6-0.8,2.9-1.8,2.9-1.8s-2.4-0.6-3.1-1.2C219.3,376.3,218.5,373.2,218.5,373.2z"/>
<radialGradient id="SVGID_14_" cx="235.4016" cy="363.9237" r="3.3066" gradientUnits="userSpaceOnUse">
	<stop  offset="0.1174" style="stop-color:#DEDBC0"/>
	<stop  offset="1" style="stop-color:#FFFFFF;stop-opacity:0"/>
	<a:midPointStop  offset="0.1174" style="stop-color:#DEDBC0"/>
	<a:midPointStop  offset="0.5" style="stop-color:#DEDBC0"/>
	<a:midPointStop  offset="1" style="stop-color:#FFFFFF;stop-opacity:0"/>
</radialGradient>
<path fill="url(#SVGID_14_)" d="M235.3,360.3c0,0-0.4,2.2-0.8,2.6c-0.5,0.5-2.1,1-2.1,1s1.6,0.5,2.1,1.1c0.4,0.5,1,2.6,1,2.6
	s0.5-2.2,0.9-2.7c0.4-0.5,2-1.2,2-1.2s-1.6-0.4-2.1-0.8C235.9,362.4,235.3,360.3,235.3,360.3z"/>
<radialGradient id="SVGID_15_" cx="92.9929" cy="507.6166" r="3.3066" gradientUnits="userSpaceOnUse">
	<stop  offset="0.1174" style="stop-color:#DEDBC0"/>
	<stop  offset="1" style="stop-color:#FFFFFF;stop-opacity:0"/>
	<a:midPointStop  offset="0.1174" style="stop-color:#DEDBC0"/>
	<a:midPointStop  offset="0.5" style="stop-color:#DEDBC0"/>
	<a:midPointStop  offset="1" style="stop-color:#FFFFFF;stop-opacity:0"/>
</radialGradient>
<path fill="url(#SVGID_15_)" d="M92.9,504c0,0-0.4,2.2-0.8,2.6c-0.5,0.5-2.1,1-2.1,1s1.6,0.5,2.1,1.1c0.4,0.5,1,2.6,1,2.6
	s0.5-2.2,0.9-2.7c0.4-0.5,2-1.2,2-1.2s-1.6-0.4-2.1-0.8C93.5,506.1,92.9,504,92.9,504z"/>
</svg>
