<?xml version="1.0" encoding="utf-8"?>
<!-- Generator: Adobe Illustrator 17.0.0, SVG Export Plug-In . SVG Version: 6.00 Build 0)  -->
<!DOCTYPE svg PUBLIC "-//W3C//DTD SVG 1.1//EN" "http://www.w3.org/Graphics/SVG/1.1/DTD/svg11.dtd">
<svg version="1.1" id="Layer_1" xmlns="http://www.w3.org/2000/svg" xmlns:xlink="http://www.w3.org/1999/xlink" x="0px" y="0px"
	 width="1280.394px" height="440.142px" viewBox="63.796 -873.2 1280.394 440.142"
	 enable-background="new 63.796 -873.2 1280.394 440.142" xml:space="preserve">
<radialGradient id="SVGID_1_" cx="1136.8231" cy="-747.8724" r="11.0123" gradientUnits="userSpaceOnUse">
	<stop  offset="0.1174" style="stop-color:#DDDABF"/>
	<stop  offset="1" style="stop-color:#FFFFFF;stop-opacity:0"/>
</radialGradient>
<path fill="url(#SVGID_1_)" d="M1136.554-759.896c0,0-1.44,7.234-2.763,8.512c-1.693,1.634-6.865,3.169-6.865,3.169
	s5.361,1.76,7.038,3.666c1.406,1.598,3.226,8.7,3.226,8.7s1.606-7.219,2.982-8.89c1.383-1.679,6.549-4.063,6.549-4.063
	s-5.331-1.238-6.892-2.737C1138.435-752.878,1136.554-759.896,1136.554-759.896z"/>
<radialGradient id="SVGID_2_" cx="1233.4149" cy="-469.5005" r="7.0158" gradientUnits="userSpaceOnUse">
	<stop  offset="0.1174" style="stop-color:#DDDABF"/>
	<stop  offset="1" style="stop-color:#FFFFFF;stop-opacity:0"/>
</radialGradient>
<path fill="url(#SVGID_2_)" d="M1233.244-477.161c0,0-0.917,4.609-1.76,5.423c-1.078,1.041-4.374,2.019-4.374,2.019
	s3.415,1.121,4.484,2.335c0.896,1.018,2.055,5.543,2.055,5.543s1.023-4.599,1.9-5.664c0.881-1.07,4.172-2.588,4.172-2.588
	s-3.397-0.789-4.391-1.744C1234.442-472.689,1233.244-477.161,1233.244-477.161z"/>
<radialGradient id="SVGID_3_" cx="1196.1586" cy="-497.2647" r="7.0158" gradientUnits="userSpaceOnUse">
	<stop  offset="0.1174" style="stop-color:#DDDABF"/>
	<stop  offset="1" style="stop-color:#FFFFFF;stop-opacity:0"/>
</radialGradient>
<path fill="url(#SVGID_3_)" d="M1195.987-504.925c0,0-0.917,4.609-1.76,5.423c-1.078,1.041-4.374,2.019-4.374,2.019
	s3.415,1.121,4.484,2.335c0.896,1.018,2.055,5.543,2.055,5.543s1.023-4.599,1.9-5.664c0.881-1.07,4.172-2.588,4.172-2.588
	s-3.397-0.789-4.391-1.744C1197.185-500.454,1195.987-504.925,1195.987-504.925z"/>
<radialGradient id="SVGID_4_" cx="1040.2313" cy="-547.8905" r="7.0158" gradientUnits="userSpaceOnUse">
	<stop  offset="0.1174" style="stop-color:#DDDABF"/>
	<stop  offset="1" style="stop-color:#FFFFFF;stop-opacity:0"/>
</radialGradient>
<path fill="url(#SVGID_4_)" d="M1040.06-555.551c0,0-0.917,4.609-1.76,5.423c-1.078,1.041-4.374,2.019-4.374,2.019
	s3.415,1.121,4.484,2.335c0.896,1.018,2.055,5.543,2.055,5.543s1.023-4.599,1.9-5.664c0.881-1.07,4.172-2.588,4.172-2.588
	s-3.397-0.789-4.391-1.744C1041.258-551.079,1040.06-555.551,1040.06-555.551z"/>
<radialGradient id="SVGID_5_" cx="1227.3909" cy="-504.925" r="11.0123" gradientUnits="userSpaceOnUse">
	<stop  offset="0.1174" style="stop-color:#DDDABF"/>
	<stop  offset="1" style="stop-color:#FFFFFF;stop-opacity:0"/>
</radialGradient>
<path fill="url(#SVGID_5_)" d="M1227.122-516.949c0,0-1.44,7.234-2.763,8.512c-1.693,1.634-6.866,3.169-6.866,3.169
	s5.361,1.76,7.038,3.666c1.406,1.598,3.226,8.7,3.226,8.7s1.606-7.219,2.982-8.89c1.383-1.679,6.549-4.063,6.549-4.063
	s-5.331-1.238-6.892-2.737C1229.002-509.931,1227.122-516.949,1227.122-516.949z"/>
<radialGradient id="SVGID_6_" cx="799.8422" cy="-784.8489" r="7.8047" gradientUnits="userSpaceOnUse">
	<stop  offset="0.1174" style="stop-color:#DDDABF"/>
	<stop  offset="1" style="stop-color:#FFFFFF;stop-opacity:0"/>
</radialGradient>
<path fill="url(#SVGID_6_)" d="M799.652-793.371c0,0-1.02,5.127-1.958,6.033c-1.2,1.158-4.866,2.246-4.866,2.246
	s3.799,1.247,4.988,2.598c0.997,1.132,2.286,6.166,2.286,6.166s1.138-5.116,2.114-6.3c0.98-1.19,4.641-2.879,4.641-2.879
	s-3.778-0.877-4.884-1.94C800.984-788.396,799.652-793.371,799.652-793.371z"/>
<radialGradient id="SVGID_7_" cx="756.9731" cy="-725.2944" r="7.1875" gradientUnits="userSpaceOnUse">
	<stop  offset="0.1174" style="stop-color:#DDDABF"/>
	<stop  offset="1" style="stop-color:#FFFFFF;stop-opacity:0"/>
</radialGradient>
<path fill="url(#SVGID_7_)" d="M756.798-733.142c0,0-0.94,4.722-1.804,5.556c-1.105,1.067-4.481,2.069-4.481,2.069
	s3.499,1.149,4.594,2.393c0.918,1.043,2.106,5.678,2.106,5.678s1.048-4.711,1.947-5.802c0.903-1.096,4.274-2.652,4.274-2.652
	s-3.48-0.808-4.498-1.786C758.025-728.561,756.798-733.142,756.798-733.142z"/>
<radialGradient id="SVGID_8_" cx="681.7657" cy="-822.9421" r="7.8908" gradientUnits="userSpaceOnUse">
	<stop  offset="0.1174" style="stop-color:#DDDABF"/>
	<stop  offset="1" style="stop-color:#FFFFFF;stop-opacity:0"/>
</radialGradient>
<path fill="url(#SVGID_8_)" d="M681.573-831.558c0,0-1.032,5.184-1.98,6.099c-1.213,1.171-4.919,2.271-4.919,2.271
	s3.841,1.261,5.043,2.627c1.008,1.145,2.311,6.234,2.311,6.234s1.151-5.172,2.137-6.37c0.991-1.203,4.692-2.911,4.692-2.911
	s-3.82-0.887-4.938-1.961C682.921-826.529,681.573-831.558,681.573-831.558z"/>
<radialGradient id="SVGID_9_" cx="1113.8217" cy="-803.4998" r="8.8533" gradientUnits="userSpaceOnUse">
	<stop  offset="0.1174" style="stop-color:#DDDABF"/>
	<stop  offset="1" style="stop-color:#FFFFFF;stop-opacity:0"/>
</radialGradient>
<path fill="url(#SVGID_9_)" d="M1113.606-813.166c0,0-1.157,5.816-2.222,6.843c-1.361,1.314-5.52,2.548-5.52,2.548
	s4.31,1.415,5.659,2.947c1.131,1.284,2.594,6.995,2.594,6.995s1.291-5.803,2.398-7.147c1.112-1.35,5.265-3.266,5.265-3.266
	s-4.286-0.995-5.541-2.201C1115.117-807.524,1113.606-813.166,1113.606-813.166z"/>
</svg>
