<?xml version="1.0" encoding="utf-8"?>
<!-- Generator: Adobe Illustrator 17.0.0, SVG Export Plug-In . SVG Version: 6.00 Build 0)  -->
<!DOCTYPE svg PUBLIC "-//W3C//DTD SVG 1.1//EN" "http://www.w3.org/Graphics/SVG/1.1/DTD/svg11.dtd" [
	<!ENTITY ns_flows "http://ns.adobe.com/Flows/1.0/">
	<!ENTITY ns_extend "http://ns.adobe.com/Extensibility/1.0/">
	<!ENTITY ns_ai "http://ns.adobe.com/AdobeIllustrator/10.0/">
	<!ENTITY ns_graphs "http://ns.adobe.com/Graphs/1.0/">
]>
<svg version="1.1" xmlns:x="&ns_extend;" xmlns:i="&ns_ai;" xmlns:graph="&ns_graphs;"
	 xmlns="http://www.w3.org/2000/svg" xmlns:xlink="http://www.w3.org/1999/xlink" xmlns:a="http://ns.adobe.com/AdobeSVGViewerExtensions/3.0/"
	 x="0px" y="0px" width="1280px" height="1591.4px" viewBox="0 0 1280 1591.4" enable-background="new 0 0 1280 1591.4"
	 xml:space="preserve">
<g id="Layer_2">
</g>
<g id="Layer_1">
	<linearGradient id="SVGID_1_" gradientUnits="userSpaceOnUse" x1="5.853271e-06" y1="795.6953" x2="1280" y2="795.6953">
		<stop  offset="0" style="stop-color:#E3CD9A"/>
		<stop  offset="0.5183" style="stop-color:#BB8658"/>
		<stop  offset="0.706" style="stop-color:#CF9769"/>
		<stop  offset="0.8741" style="stop-color:#DFBA93"/>
		<stop  offset="1" style="stop-color:#E3CD9A"/>
		<a:midPointStop  offset="0" style="stop-color:#E3CD9A"/>
		<a:midPointStop  offset="0.5" style="stop-color:#E3CD9A"/>
		<a:midPointStop  offset="0.5183" style="stop-color:#BB8658"/>
		<a:midPointStop  offset="0.5" style="stop-color:#BB8658"/>
		<a:midPointStop  offset="0.706" style="stop-color:#CF9769"/>
		<a:midPointStop  offset="0.5" style="stop-color:#CF9769"/>
		<a:midPointStop  offset="0.8741" style="stop-color:#DFBA93"/>
		<a:midPointStop  offset="0.5" style="stop-color:#DFBA93"/>
		<a:midPointStop  offset="1" style="stop-color:#E3CD9A"/>
	</linearGradient>
	<path fill="url(#SVGID_1_)" d="M0,50.6c0,0,24.4-7.9,40-9.6c12.9-1.4,39.6,0.2,51.8-4.1c3.7-1.3,8.9-8.1,12.8-8.8
		c6.2-1.1,18.3,4.9,24.4,6.4c12.6,3.1,37.9,9,50.6,11.7c9.3,2,28.5,3.9,37.2,7.6c2.4,1,6.1,5,8.5,5.9c15.7,5.4,49.8,4.9,66.5,4.7
		c49.9-0.5,149.6-10.2,198.9-18.2c22.9-3.7,68.1-14.6,90.3-21.1c18-5.3,70.8-25.2,70.8-25.2h69.5l17.1,4.1L750,0l17.7,8.8l52.5,13.5
		l69.5,10l20.7-7.6l21.3,0.6l46.4,11.1c0,0,53.2-1.8,79.9,2.6c13.2,2.2,62.5,11,75.9,11.8c16.4,1.1,44.7,4.7,61.2,4.7
		c5,0,23.3,1.1,28.3,1.4c19.4,1.1,56.5-6.3,56.5-6.3l0,1540.8l-1280,0V50.6z"/>
</g>
</svg>
