<?xml version="1.0" encoding="utf-8"?>
<!-- Generator: Adobe Illustrator 17.0.0, SVG Export Plug-In . SVG Version: 6.00 Build 0)  -->
<!DOCTYPE svg PUBLIC "-//W3C//DTD SVG 1.1//EN" "http://www.w3.org/Graphics/SVG/1.1/DTD/svg11.dtd">
<svg version="1.1" id="Layer_1" xmlns="http://www.w3.org/2000/svg" xmlns:xlink="http://www.w3.org/1999/xlink" x="0px" y="0px"
	 width="1280.395px" height="1701.502px" viewBox="0 0 1280.395 1701.502" enable-background="new 0 0 1280.395 1701.502"
	 xml:space="preserve">
<linearGradient id="SVGID_1_" gradientUnits="userSpaceOnUse" x1="-2.678852e-05" y1="926.673" x2="1280.3945" y2="926.673">
	<stop  offset="0" style="stop-color:#E08536"/>
	<stop  offset="0.4652" style="stop-color:#E3A156"/>
	<stop  offset="0.8697" style="stop-color:#D4A977"/>
	<stop  offset="0.9348" style="stop-color:#D2AB7C"/>
	<stop  offset="1" style="stop-color:#E18838"/>
</linearGradient>
<path fill="url(#SVGID_1_)" d="M0,219.966c0,0,49.261-20.935,72.131-33.227c14.474-7.779,40.185-29.566,56.118-33.988
	c6.446-1.789,20.147-0.462,26.839,0c27.663,1.909,82.337,11.496,109.796,15.236c35.061,4.776,162.044-0.78,197.448-0.044
	c19.297,0.401,38.461,6.638,57.501,3.599c20.725-3.309,12.523-6.367,33.003-10.868c9.739-2.14,12.625-7.454,22.604-6.982
	c11.849,0.56,58.186-0.586,69.641,2.377c15.365,3.975,63.996,4.217,79.866,5.337c27.74,1.957,68.783,15.54,96.24,11.269
	c14.313-2.226,41.656-13.074,56.118-14.064c29.698-2.033,88.886,8.687,118.336,12.892c11.657,1.664,34.623,7.174,46.358,8.204
	c13.971,1.226,42.089,0,56.118,0c11.895,0,35.756-1.257,47.578,0c18.018,1.916,58.397,45.803,76.462,47.254
	c20.976,1.685,58.236-7.174,58.236-7.174v1481.715H0V219.966z"/>
<g opacity="0.1">
	<path fill="#00211E" d="M166.935,218.714c3.268,2.263,11.314,2.263,15.588,2.766c7.04,1.006,13.828,2.011,20.365,4.023
		c7.04,2.263,14.833,2.263,21.119,5.783c1.76,1.006,1.508,1.257,3.268,1.76c1.257,0.251,3.771,1.006,4.777,1.257
		c4.274,0.503,8.297-2.011,12.068-3.52c5.783-1.76,12.822-1.76,19.108-2.514c5.531-0.754,11.062,2.011,16.845,1.76
		c9.302-0.251,18.353,0.503,27.404,1.76c4.274,0.754,5.028-0.503,9.051-2.011c3.771-1.508,8.297-1.508,12.319-2.263
		c14.331-2.766,27.656-8.297,42.238-10.559c6.285-1.006,12.319-1.76,18.605-2.263c5.028-0.503,9.805-1.006,14.833-1.508
		c2.766-0.251,7.291,0.503,9.302-1.006c-3.771-2.011-8.8-1.76-13.074-2.011c-7.291-0.503-14.582-1.006-21.622-1.508
		c-13.828-0.503-28.158-2.263-41.483,1.508c-28.41,8.297-57.071,7.04-86.235,6.034c-15.336-0.503-30.17,1.76-45.506,1.257
		c-11.314-0.251-22.627-1.508-33.941-0.503"/>
</g>
<g opacity="0.1">
	<path fill="#00211E" d="M433.933,216.411c8.297,2.011,17.096-0.251,25.393,0.503c3.771,0.251,11.062,3.52,14.079,2.011
		c0.251-6.034,11.816-3.771,16.091-4.023c14.833-1.006,29.918,1.508,45.003,1.508c21.622,0,41.986-4.274,63.105-7.794
		c4.525-0.754,13.325-0.754,17.096-3.52c-2.011-4.525-11.816-1.76-15.336-1.508c-10.057,1.006-20.365,1.257-30.421,2.011
		c-15.588,1.257-31.175,2.011-46.763,2.011c-16.091,0-31.175-3.017-46.763-4.525c-6.788-0.754-11.816,1.76-17.599,4.777
		c-6.537,3.268-13.576,4.023-20.365,5.531"/>
</g>
<g opacity="0.1">
	<path fill="#00211E" d="M575.986,221.509c4.777,1.006,9.554,0.251,14.331,1.006c12.822,2.011,25.644,2.011,38.215,6.034
		c3.268,1.006,7.04,2.514,10.559,2.011c3.017-0.503,6.285-2.011,9.554-2.514c11.062-1.257,22.125-1.257,33.187-1.76
		c20.365-0.754,40.981-4.274,61.345-1.006c6.788,1.006,12.319-1.508,19.107-1.257c6.285,0.251,11.565,0.503,17.599-1.006
		c3.52-0.754,5.531-2.263,8.548-4.023c-22.376-9.554-49.529-7.794-73.413-6.285c-33.438,2.011-67.128,4.023-100.817,6.285
		c-8.297,0.754-15.839,1.006-24.136,1.006"/>
</g>
<g opacity="0.1">
	<path fill="#00211E" d="M743.696,191.986c10.811-3.52,21.622-4.023,32.935-3.52c13.828,0.251,27.153-1.257,40.981-2.514
		c11.565-1.006,22.376-2.514,33.941-4.777c4.777-1.006,9.554,0.251,13.325-3.52c-6.537,0.503-13.074-3.268-19.61-3.52
		c-7.291-0.251-15.588,3.268-23.13,4.023c-23.633,2.514-47.769,3.52-71.653,4.023c-4.023,0-10.559-0.754-13.828,1.76
		c0.754,2.766,3.771,3.52,4.274,6.034"/>
</g>
<linearGradient id="SVGID_2_" gradientUnits="userSpaceOnUse" x1="527.2021" y1="10.1387" x2="714.105" y2="10.1387" gradientTransform="matrix(0.9996 -0.0297 0.0297 0.9996 -15.63 114.0072)">
	<stop  offset="0" style="stop-color:#983809"/>
	<stop  offset="0.0285" style="stop-color:#9A3A0B"/>
	<stop  offset="0.048" style="stop-color:#A14011"/>
	<stop  offset="0.2601" style="stop-color:#A54414"/>
	<stop  offset="0.5349" style="stop-color:#B3501F"/>
	<stop  offset="0.8428" style="stop-color:#C8632F"/>
	<stop  offset="1" style="stop-color:#D6703A"/>
</linearGradient>
<polygon fill="url(#SVGID_2_)" points="514.062,189.885 519.835,186.092 524.59,181.876 526.046,180.688 528.964,177.923 
	532.589,173.489 539.226,168.311 542.697,163.228 548.017,159.448 550.57,153.939 552.154,151.354 554.067,149.761 558.496,146.46 
	560.141,144.443 562.444,141.832 566.423,138.98 567.82,136.303 571.237,133.405 574.255,128.335 576.113,125.86 579.11,124.116 
	583.06,119.924 585.174,116.952 586.503,113.936 589.602,111.58 593.113,107.854 598.488,105.883 599.918,102.055 603.207,97.141 
	608.089,93.826 612.012,88.73 615.975,84.99 620.35,79.88 624.03,76.56 628.743,72.839 632.24,68.661 633.705,65.196 
	636.521,60.384 640.91,55.726 644.874,51.987 647.067,50.145 648.371,47.808 652.294,42.711 655.353,38.999 657.05,36.322 
	660.167,33.423 665.474,29.19 668.08,25.491 670.686,21.792 673.799,19.888 678.626,14.764 683.906,9.627 700.339,166.039 
	599.011,199.582 "/>
<linearGradient id="SVGID_3_" gradientUnits="userSpaceOnUse" x1="601.2727" y1="104.5711" x2="856.5419" y2="104.5711">
	<stop  offset="0.3171" style="stop-color:#E08637"/>
	<stop  offset="1" style="stop-color:#E2A164"/>
</linearGradient>
<polygon fill="url(#SVGID_3_)" points="683.906,9.627 686.286,13.197 688.645,16.73 692.485,19.912 696.445,24.216 699.851,28.168 
	704.428,29.842 708.152,33.341 710.044,36.014 715.606,40.375 719.171,44.188 721.263,47.904 727.703,51.334 730.19,54.518 
	731.949,57.093 736.128,60.59 738.627,62.611 740.347,65.445 743.634,69.422 746.719,72.597 748.359,76.072 752.072,79.131 
	755.328,81.549 756.705,85.95 759.166,89.332 762.214,92.913 765.248,95.943 772.181,100.716 777.251,103.735 785.089,108.481 
	787.978,114.281 793.952,117.272 798.211,123.484 798.333,127.555 803.76,127.393 808.006,133.153 810.403,137.609 813.663,140.681 
	820.063,142.754 823.377,147.635 827.65,154.299 831.815,157.344 834.225,162.253 839.294,165.271 844.27,165.123 846.254,170.949 
	852.762,176.641 856.542,181.962 843.877,182.338 838.395,180.69 833.021,182.661 828.498,182.796 822.617,182.971 805.429,183.482 
	778.742,184.276 771.504,184.491 743.541,188.039 718.291,191.507 686.628,192.449 662.202,193.175 656.774,193.337 
	647.168,190.001 642.752,193.754 630.539,194.117 610.718,197.423 601.273,199.515 605.075,190.347 608.639,188.43 608.971,184.346 
	609.523,182.173 609.741,179.796 612.347,176.096 614.474,171.506 615.258,167.408 615.258,167.408 617.439,164.627 620.005,159.57 
	624.339,153.103 624.644,148.114 626.798,144.428 628.979,141.647 635.042,132.412 637.554,125.546 639.216,120.517 642.22,114.995 
	646.555,108.528 648.696,104.389 649.532,99.767 650.25,95.741 652.404,92.056 653.504,89.175 655.395,86.081 655.699,81.092 
	658.252,75.583 660.352,70.088 663.343,64.114 665.963,60.867 666.367,57.52 668.036,54.467 669.245,49.451 671.838,45.299 
	672.987,41.885 674.803,38.42 675.586,34.322 677.149,30.913 678.112,27.909 678.882,23.359 680.996,18.316 681.313,13.779 "/>
<linearGradient id="SVGID_4_" gradientUnits="userSpaceOnUse" x1="306.5097" y1="88.0165" x2="523.3024" y2="88.0165" gradientTransform="matrix(1 -0.0075 0.0075 1 -5.1276 24.4687)">
	<stop  offset="0" style="stop-color:#983809"/>
	<stop  offset="0.0285" style="stop-color:#9A3A0B"/>
	<stop  offset="0.048" style="stop-color:#A14011"/>
	<stop  offset="0.2601" style="stop-color:#A54414"/>
	<stop  offset="0.5349" style="stop-color:#B3501F"/>
	<stop  offset="0.8428" style="stop-color:#C8632F"/>
	<stop  offset="1" style="stop-color:#D6703A"/>
</linearGradient>
<polygon fill="url(#SVGID_4_)" points="302.746,204.657 309.538,200.406 315.16,195.64 316.879,194.3 320.334,191.169 
	324.653,186.12 332.482,180.287 336.638,174.482 342.905,170.235 346.007,163.913 347.911,160.956 350.171,159.158 355.392,155.444 
	357.35,153.147 360.089,150.179 364.776,146.975 366.465,143.906 370.503,140.633 374.134,134.832 376.351,132.009 379.872,130.064 
	384.56,125.305 387.089,121.913 388.708,118.45 392.362,115.798 396.53,111.567 402.813,109.42 404.57,105.018 408.511,99.404 
	414.257,95.686 418.938,89.877 423.63,85.643 428.836,79.829 433.188,76.075 438.749,71.881 442.913,67.126 444.701,63.145 
	448.091,57.638 453.3,52.35 457.992,48.115 460.583,46.036 462.156,43.36 466.836,37.551 470.479,33.324 472.516,30.264 
	476.205,26.982 482.468,22.211 485.586,17.988 488.704,13.765 492.362,11.638 498.092,5.821 504.348,0 519.373,181.804 
	401.005,218.09 "/>
<linearGradient id="SVGID_5_" gradientUnits="userSpaceOnUse" x1="403.6296" y1="109.0353" x2="700.1011" y2="109.0353">
	<stop  offset="0" style="stop-color:#E08536"/>
	<stop  offset="0.9105" style="stop-color:#E3A156"/>
</linearGradient>
<polygon fill="url(#SVGID_5_)" points="504.348,0 507.016,4.201 509.66,8.359 514.03,12.147 518.511,17.241 522.359,21.911 
	527.624,23.971 531.853,28.124 533.978,31.272 540.316,36.473 544.352,40.986 546.682,45.349 554.061,49.493 556.863,53.25 
	558.837,56.281 563.592,60.444 566.438,62.851 568.36,66.182 572.069,70.879 575.565,74.64 577.377,78.712 581.604,82.355 
	585.317,85.244 586.801,90.383 589.568,94.368 593.01,98.599 596.451,102.19 604.367,107.905 610.169,111.535 619.135,117.242 
	622.336,124.042 629.187,127.665 633.966,134.977 634.001,139.701 640.3,139.654 645.075,146.442 647.739,151.671 651.441,155.318 
	658.809,157.887 662.527,163.633 667.31,171.47 672.061,175.109 674.729,180.863 680.531,184.494 686.304,184.45 688.455,191.258 
	695.855,198.026 700.101,204.293 685.404,204.404 679.09,202.352 672.807,204.499 667.558,204.538 660.735,204.589 640.789,204.739 
	609.821,204.972 601.423,205.035 568.904,208.429 539.535,211.8 502.793,212.076 474.449,212.289 468.151,212.336 457.097,208.22 
	451.879,212.459 437.707,212.565 414.636,215.888 403.63,218.071 408.275,207.538 412.458,205.406 412.947,200.679 413.644,198.173 
	413.958,195.422 417.075,191.199 419.66,185.931 420.674,181.199 420.674,181.199 423.275,178.03 426.381,172.232 431.575,164.845 
	432.056,159.067 434.649,154.848 437.25,151.679 444.519,141.126 447.609,133.229 449.665,127.44 453.292,121.114 458.486,113.726 
	461.075,108.982 462.163,103.644 463.099,98.993 465.692,94.775 467.042,91.462 469.315,87.924 469.796,82.146 472.898,75.824 
	475.475,69.505 479.098,62.654 482.22,58.956 482.774,55.086 484.789,51.588 486.32,45.803 489.434,41.055 490.854,37.125 
	493.049,33.154 494.063,28.422 495.963,24.51 497.157,21.05 498.167,15.794 500.748,10 501.234,4.748 "/>
<linearGradient id="SVGID_6_" gradientUnits="userSpaceOnUse" x1="174.8652" y1="44.9014" x2="334.7359" y2="44.9014" gradientTransform="matrix(0.9996 -0.0297 0.0297 0.9996 -15.63 114.0072)">
	<stop  offset="0" style="stop-color:#983809"/>
	<stop  offset="0.0285" style="stop-color:#9A3A0B"/>
	<stop  offset="0.048" style="stop-color:#A14011"/>
	<stop  offset="0.2601" style="stop-color:#A54414"/>
	<stop  offset="0.5349" style="stop-color:#B3501F"/>
	<stop  offset="0.8428" style="stop-color:#C8632F"/>
	<stop  offset="1" style="stop-color:#D6703A"/>
</linearGradient>
<polygon fill="url(#SVGID_6_)" points="162.565,223.333 167.502,220.088 171.569,216.482 172.815,215.465 175.311,213.101 
	178.412,209.308 184.089,204.879 187.057,200.531 191.608,197.298 193.792,192.586 195.147,190.374 196.783,189.011 
	200.572,186.188 201.978,184.463 203.949,182.229 207.352,179.79 208.547,177.5 211.47,175.021 214.052,170.684 215.641,168.567 
	218.204,167.076 221.583,163.49 223.391,160.948 224.528,158.368 227.179,156.353 230.182,153.166 234.779,151.48 236.002,148.205 
	238.816,144.002 242.992,141.167 246.347,136.808 249.737,133.609 253.48,129.238 256.627,126.398 260.658,123.215 263.65,119.641 
	264.903,116.677 267.312,112.562 271.066,108.578 274.456,105.379 276.332,103.803 277.448,101.804 280.803,97.445 283.42,94.269 
	284.871,91.98 287.538,89.5 292.077,85.879 294.306,82.715 296.536,79.551 299.198,77.923 303.327,73.54 307.844,69.146 
	321.899,202.936 235.227,231.627 "/>
<linearGradient id="SVGID_7_" gradientUnits="userSpaceOnUse" x1="237.1614" y1="150.3577" x2="455.5105" y2="150.3577">
	<stop  offset="0.0218" style="stop-color:#E08536"/>
	<stop  offset="0.5784" style="stop-color:#E3A156"/>
	<stop  offset="0.907" style="stop-color:#D4A977"/>
	<stop  offset="1" style="stop-color:#D0AC80"/>
</linearGradient>
<polygon fill="url(#SVGID_7_)" points="307.844,69.146 309.879,72.199 311.897,75.221 315.181,77.943 318.568,81.625 
	321.482,85.005 325.397,86.437 328.583,89.43 330.201,91.716 334.959,95.447 338.008,98.708 339.797,101.886 345.306,104.82 
	347.433,107.544 348.938,109.746 352.512,112.738 354.65,114.466 356.121,116.891 358.933,120.292 361.571,123.008 362.974,125.981 
	366.15,128.597 368.935,130.666 370.113,134.43 372.219,137.323 374.826,140.386 377.421,142.977 383.351,147.06 387.688,149.642 
	394.392,153.702 396.863,158.663 401.973,161.222 405.616,166.535 405.72,170.017 410.363,169.879 413.995,174.805 416.044,178.617 
	418.833,181.245 424.307,183.018 427.142,187.193 430.797,192.893 434.36,195.498 436.421,199.697 440.758,202.278 445.014,202.152 
	446.711,207.136 452.277,212.004 455.51,216.555 444.677,216.877 439.988,215.468 435.391,217.154 431.522,217.269 426.492,217.418 
	411.79,217.856 388.963,218.535 382.772,218.719 358.853,221.754 337.255,224.72 310.172,225.525 289.279,226.147 284.636,226.285 
	276.419,223.431 272.642,226.642 262.195,226.952 245.24,229.78 237.161,231.57 240.413,223.728 243.463,222.088 243.746,218.594 
	244.219,216.736 244.405,214.702 246.634,211.538 248.453,207.611 249.124,204.106 249.124,204.106 250.989,201.727 
	253.184,197.402 256.892,191.87 257.152,187.603 258.995,184.45 260.86,182.071 266.047,174.172 268.196,168.299 269.617,163.997 
	272.187,159.274 275.895,153.742 277.726,150.202 278.441,146.249 279.055,142.805 280.897,139.652 281.838,137.188 
	283.456,134.542 283.716,130.274 285.9,125.563 287.696,120.862 290.255,115.752 292.496,112.974 292.841,110.112 294.269,107.5 
	295.303,103.21 297.521,99.658 298.504,96.738 300.057,93.774 300.727,90.269 302.064,87.353 302.887,84.783 303.546,80.891 
	305.354,76.578 305.626,72.697 "/>
<linearGradient id="SVGID_8_" gradientUnits="userSpaceOnUse" x1="586.1447" y1="79.4305" x2="696.7375" y2="79.4305" gradientTransform="matrix(0.9996 -0.0297 0.0297 0.9996 -15.63 114.0072)">
	<stop  offset="0" style="stop-color:#A14011"/>
	<stop  offset="0.1593" style="stop-color:#B45120"/>
	<stop  offset="0.3597" style="stop-color:#C7622E"/>
	<stop  offset="0.5493" style="stop-color:#D26C37"/>
	<stop  offset="0.7153" style="stop-color:#D6703A"/>
	<stop  offset="0.9631" style="stop-color:#D6703A"/>
</linearGradient>
<polygon fill="url(#SVGID_8_)" points="574.05,224.152 577.466,221.907 580.28,219.412 581.141,218.709 582.868,217.074 
	585.013,214.45 588.94,211.386 590.994,208.378 594.142,206.141 595.652,202.882 596.59,201.352 597.722,200.409 600.342,198.456 
	601.315,197.263 602.678,195.718 605.033,194.031 605.859,192.446 607.881,190.731 609.667,187.731 610.766,186.267 612.54,185.235 
	614.877,182.754 616.128,180.996 616.915,179.211 618.748,177.817 620.826,175.612 624.006,174.446 624.852,172.181 
	626.799,169.273 629.687,167.312 632.008,164.297 634.353,162.084 636.942,159.06 639.119,157.096 641.908,154.894 643.978,152.421 
	644.845,150.371 646.511,147.524 649.108,144.768 651.453,142.555 652.751,141.465 653.522,140.083 655.844,137.067 657.654,134.87 
	658.658,133.287 660.502,131.571 663.642,129.066 665.184,126.877 666.727,124.688 668.568,123.562 671.425,120.53 674.549,117.491 
	684.272,210.042 624.315,229.889 "/>
<linearGradient id="SVGID_9_" gradientUnits="userSpaceOnUse" x1="625.6537" y1="173.6701" x2="776.6998" y2="173.6701">
	<stop  offset="0.0218" style="stop-color:#E08536"/>
	<stop  offset="0.4548" style="stop-color:#E2A158"/>
	<stop  offset="1" style="stop-color:#D0AC80"/>
</linearGradient>
<polygon fill="url(#SVGID_9_)" points="674.549,117.491 675.957,119.603 677.353,121.693 679.625,123.576 681.968,126.123 
	683.984,128.461 686.692,129.452 688.896,131.522 690.015,133.104 693.307,135.685 695.416,137.941 696.654,140.139 
	700.464,142.169 701.936,144.053 702.977,145.577 705.449,147.646 706.928,148.841 707.946,150.519 709.891,152.872 711.716,154.75 
	712.687,156.807 714.884,158.617 716.81,160.048 717.625,162.652 719.081,164.653 720.885,166.772 722.68,168.564 726.783,171.389 
	729.783,173.175 734.42,175.984 736.13,179.416 739.665,181.186 742.185,184.861 742.257,187.27 745.468,187.174 747.981,190.582 
	749.399,193.219 751.328,195.037 755.115,196.263 757.076,199.152 759.604,203.095 762.069,204.897 763.494,207.801 
	766.494,209.587 769.438,209.499 770.613,212.947 774.463,216.315 776.7,219.463 769.206,219.686 765.962,218.711 762.782,219.877 
	760.106,219.957 756.626,220.06 746.456,220.363 730.664,220.832 726.382,220.96 709.836,223.059 694.895,225.111 676.16,225.668 
	661.707,226.098 658.495,226.194 652.811,224.22 650.198,226.441 642.971,226.656 631.242,228.612 625.654,229.85 627.903,224.425 
	630.013,223.291 630.209,220.874 630.536,219.588 630.664,218.181 632.207,215.992 633.465,213.276 633.929,210.851 
	633.929,210.851 635.219,209.206 636.738,206.214 639.303,202.387 639.483,199.435 640.757,197.254 642.048,195.608 
	645.636,190.144 647.122,186.081 648.105,183.105 649.883,179.838 652.448,176.011 653.715,173.563 654.209,170.828 
	654.634,168.445 655.909,166.264 656.56,164.56 657.679,162.729 657.859,159.777 659.369,156.518 660.612,153.266 662.382,149.731 
	663.932,147.81 664.171,145.83 665.159,144.023 665.874,141.055 667.408,138.598 668.088,136.578 669.162,134.528 669.626,132.103 
	670.551,130.086 671.12,128.308 671.576,125.616 672.827,122.632 673.015,119.947 "/>
<linearGradient id="SVGID_10_" gradientUnits="userSpaceOnUse" x1="10106.7422" y1="104.6048" x2="10123.2021" y2="104.6048" gradientTransform="matrix(-1 0 0 1 10436.8711 0)">
	<stop  offset="0.016" style="stop-color:#932C12"/>
	<stop  offset="0.3364" style="stop-color:#D24427"/>
	<stop  offset="0.4077" style="stop-color:#CD5237"/>
	<stop  offset="0.5142" style="stop-color:#C56250"/>
	<stop  offset="0.5966" style="stop-color:#C16A5F"/>
	<stop  offset="0.6445" style="stop-color:#BF6D65"/>
	<stop  offset="0.9815" style="stop-color:#460012"/>
</linearGradient>
<path opacity="0.03" fill="url(#SVGID_10_)" d="M330.129,100.139c0,0-2.656-2.252-3.068-3.301c-0.213-0.543,0.258-1.811,0-2.334
	c-0.23-0.467-1.135-1.191-1.65-1.269c-0.349-0.053-1.208,0.158-1.324,0.491c-0.098,0.28,0.512,0.736,0.61,1.016
	c0.245,0.698,0.22,2.213,0.397,2.931c0.201,0.82,1.003,2.346,1.149,3.178c0.046,0.264,0.241,0.956,0,1.074
	c-0.689,0.338-1.901-1.303-2.498-1.786c-0.355-0.288-0.975-0.969-1.349-1.233c-0.899-0.635-2.828-1.769-3.887-2.068
	c-0.669-0.189-2.103-0.344-2.777-0.171c-0.591,0.152-2.089,0.697-2.063,1.307c0.021,0.504,1.301,0.812,1.791,0.932
	c0.627,0.153,1.983-0.238,2.584,0c0.606,0.24,1.74,1.154,1.9,1.786c0.103,0.405-0.254,1.269-0.526,1.587
	c-0.369,0.431-1.87,0.488-2.02,1.036c-0.149,0.54,0.88,1.431,1.19,1.898c0.606,0.913,1.892,2.688,2.52,3.587
	c1.04,1.488,2.653,4.927,4.144,5.963c1.011,0.702,4.77,1.221,4.77,1.221L330.129,100.139z"/>
<linearGradient id="SVGID_11_" gradientUnits="userSpaceOnUse" x1="10173.7852" y1="146.5664" x2="10186.1289" y2="146.5664" gradientTransform="matrix(-1 0 0 1 10436.8711 0)">
	<stop  offset="0.016" style="stop-color:#932C12"/>
	<stop  offset="0.3364" style="stop-color:#D24427"/>
	<stop  offset="0.4077" style="stop-color:#CD5237"/>
	<stop  offset="0.5142" style="stop-color:#C56250"/>
	<stop  offset="0.5966" style="stop-color:#C16A5F"/>
	<stop  offset="0.6445" style="stop-color:#BF6D65"/>
	<stop  offset="0.9815" style="stop-color:#460012"/>
</linearGradient>
<path opacity="0.05" fill="url(#SVGID_11_)" d="M261.5,142.174c-0.691,0.011-2.014,0.454-2.484,0.961
	c-0.55,0.594-1.223,1.728-1.602,2.443c-0.494,0.933-2.246,2.553-3.004,3.101c-0.768,0.555-2.188,0.884-3.565,2.046
	c-0.64,0.54,1.883,0.285,2.583,0c0.682-0.277,2.062-0.806,2.703-1.168c1.706-0.961,5.313-2.9,6.38-4.541
	c0.355-0.545,0.719-1.931,0.519-2.55C262.836,141.863,262.134,142.164,261.5,142.174z"/>
<linearGradient id="SVGID_12_" gradientUnits="userSpaceOnUse" x1="10073.2969" y1="143.7014" x2="10099.3447" y2="143.7014" gradientTransform="matrix(-1 0 0 1 10436.8711 0)">
	<stop  offset="0.016" style="stop-color:#932C12"/>
	<stop  offset="0.3364" style="stop-color:#D24427"/>
	<stop  offset="0.4077" style="stop-color:#CD5237"/>
	<stop  offset="0.5142" style="stop-color:#C56250"/>
	<stop  offset="0.5966" style="stop-color:#C16A5F"/>
	<stop  offset="0.6445" style="stop-color:#BF6D65"/>
	<stop  offset="0.9815" style="stop-color:#460012"/>
</linearGradient>
<path opacity="0.03" fill="url(#SVGID_12_)" d="M363.488,139.608c-0.374-0.584-2.034-0.454-2.725-0.519
	c-1.001-0.094-3.07,0.322-4.022,0c-1.315-0.445-3.017-1.124-3.632-2.369c-0.316-0.64-3.571-0.147-4.227,0.132
	c-1.77,0.754-2.354,0.754-11.215,7.427c-0.568,0.428,0.741,2.026,1.168,2.595c1.049,1.399,1.965,2.07,3.606,2.675
	c2.648,0.976,6.894,2.44,8.916,0.471c0.883-0.86,6.551-2.432,7.104-3.534c0.989-1.97,3.228-3.009,4.509-4.803
	C363.28,141.249,363.776,140.059,363.488,139.608z"/>
<linearGradient id="SVGID_13_" gradientUnits="userSpaceOnUse" x1="10172.6289" y1="197.2345" x2="10268.96" y2="197.2345" gradientTransform="matrix(-1 0 0 1 10436.8711 0)">
	<stop  offset="0.016" style="stop-color:#932C12"/>
	<stop  offset="0.3364" style="stop-color:#D24427"/>
	<stop  offset="0.4077" style="stop-color:#CD5237"/>
	<stop  offset="0.5142" style="stop-color:#C56250"/>
	<stop  offset="0.5966" style="stop-color:#C16A5F"/>
	<stop  offset="0.6445" style="stop-color:#BF6D65"/>
	<stop  offset="0.9815" style="stop-color:#460012"/>
</linearGradient>
<path opacity="0.05" fill="url(#SVGID_13_)" d="M264.219,180.37c-1.262-1.469-9.667-0.606-11.498-1.238
	c-3.062-1.056-8.308-5.09-11.289-6.358c-0.935-0.398-2.882-1.268-3.893-1.168c-2.303,0.228-3.992,4.375-6.012,5.505
	c-4.499,2.516-17.229,4.902-19.939,9.287c-1.761,2.848,1.412,10.95-0.908,13.365c-2.509,2.611-10.523,3.454-14.034,2.568
	c-0.611-0.154-1.817-2.382-2.444-2.438c-2.588-0.231-7.259,2.92-9.472,4.282c-1.1,0.677-3.796,1.972-4.022,3.244
	c-0.165,0.931,1.807,2.308,1.946,3.244c0.098,0.66-1.512,2.678-1.841,3.259c-0.656,1.158-12.808,2.871-12.902,4.199
	c-0.046,0.647,2.386,2.973,2.967,3.263c1.596,0.798,9.302,1.653,11.076,1.458c2.378-0.261,14.14-2.567,16.322-3.549
	c4.639-2.087,9.911-11.976,14.481-14.209c2.094-1.023,7.953-0.49,8.953-2.595c0.499-1.05-2.939-3.978-1.817-4.282
	c8.97-2.426,18.744-0.722,26.989-4.671c1.62-0.776-2.028-5.005-2.465-6.747c-0.224-0.89-0.998-2.85-0.519-3.633
	c0.573-0.936,3.056-1.378,4.152-1.427c2.036-0.092,5.877,1.964,7.915,1.946c1.141-0.01,3.716-0.264,4.412-1.168
	C260.713,182.069,264.578,180.789,264.219,180.37z"/>
<linearGradient id="SVGID_14_" gradientUnits="userSpaceOnUse" x1="10094.5029" y1="199.8039" x2="10152.7021" y2="233.4049" gradientTransform="matrix(-1 0 0 1 10436.8711 0)">
	<stop  offset="0.016" style="stop-color:#932C12"/>
	<stop  offset="0.3364" style="stop-color:#D24427"/>
	<stop  offset="0.4077" style="stop-color:#CD5237"/>
	<stop  offset="0.5142" style="stop-color:#C56250"/>
	<stop  offset="0.5966" style="stop-color:#C16A5F"/>
	<stop  offset="0.6445" style="stop-color:#BF6D65"/>
	<stop  offset="0.9815" style="stop-color:#460012"/>
</linearGradient>
<path opacity="0.03" fill="url(#SVGID_14_)" d="M327.573,196.786c2.131-0.469,6.819,4.599,8.865,5.359
	c1.471,0.546,5.035-0.578,6.263,0.398c0.406,0.323,0.658,1.473,0.597,1.988c-0.041,0.343-0.762,0.854-0.696,1.193
	c0.12,0.617,1.435,1.241,1.988,1.539c0.578,0.311,1.986,0.421,2.485,0.847c0.321,0.274,0.59,1.12,0.79,1.491
	c0.321,0.598,1.412,1.717,1.298,2.386c-0.118,0.694-0.532,2.328-1.019,2.837c-0.512,0.536-0.476,5.068-1.93,3.378
	c-0.957-1.111-2.44-4.408-3.016-5.121c-0.508-0.629-1.502-2.093-2.287-2.287c-0.405-0.1-1.176,0.459-1.591,0.497
	c-1.022,0.093-3.089-0.216-4.076-0.497c-0.342-0.097-1.039-0.846-1.292-0.597c-0.349,0.344,0.532,1.377,0.795,1.79
	c0.284,0.445,1.165,1.114,1.392,1.591c0.379,0.797,5.467,7.36,5.467,7.36s-8.808-0.008-10.894,0.026
	c-0.821,0.013-3.282,0.123-3.282,0.123s-3.318-1.957-3.931-2.131c-0.795-0.226-2.755-0.983-3.576-0.894
	c-1.291,0.14-1.464-0.932-2.674-1.403c-0.312-0.121-0.871-0.661-0.895-0.994c-0.039-0.536,0.852-1.374,1.193-1.79
	c0.29-0.353,1.292-0.835,1.292-1.292c0-1.547-2.977-3.712-4.374-4.374c-0.226-0.107-0.76-0.187-0.994-0.099
	c-0.988,0.371-2.072,2.407-2.883,3.082c-1.134,0.944-3.607,2.62-4.971,3.181c-3.456,1.422-12.101,0.91-12.101,0.91l-9.733,1.027
	l-8.126,2.353c0,0,5.637-5.236,7.943-6.282c0.901-0.409,1.599-0.406,4.468-0.906c2.579-0.449,5.954,1.239,8.402,0.313
	c1.593-0.603,4.613-2.263,6.263-2.684c0.508-0.13,1.735,0.189,2.088-0.199c0.276-0.304,0.144-1.258,0-1.643
	c-0.319-0.849-4.227-0.584-4.155-1.488c0.031-0.387,2.395-1.247,2.775-1.327c0.885-0.187,2.763,0.036,3.667,0.083
	c1.008,0.053,3.049-0.298,3.977-0.696c0.882-0.379,2.723-1.397,3.082-2.287c0.226-0.561-0.139-1.839-0.398-2.386
	c-0.226-0.478-0.999-1.238-1.392-1.591c-0.226-0.203-1.041-0.396-0.994-0.696c0.064-0.412,1.175-0.521,1.591-0.497
	c0.733,0.042,2.132,0.709,2.684,1.193c0.394,0.346,0.941,1.288,1.094,1.79c0.167,0.547-0.218,1.811,0.099,2.287
	c0.228,0.342,1.177,0.431,1.491,0.696c0.601,0.507,1.176,2.094,1.79,2.585c1.069,0.856,4.006,1.233,5.369,1.094
	c0.942-0.096,2.674-0.995,3.48-1.491c0.526-0.324,1.776-0.984,1.889-1.591c0.104-0.558-0.744-1.542-1.094-1.988
	c-0.271-0.346-1.145-0.779-1.292-1.193c-0.118-0.331-0.172-0.932-0.368-1.223C327.485,197.599,327.16,196.876,327.573,196.786z"/>
<linearGradient id="SVGID_15_" gradientUnits="userSpaceOnUse" x1="10152.874" y1="136.4071" x2="10156.7197" y2="136.4071" gradientTransform="matrix(-1 0 0 1 10436.8711 0)">
	<stop  offset="0.016" style="stop-color:#932C12"/>
	<stop  offset="0.3364" style="stop-color:#D24427"/>
	<stop  offset="0.4077" style="stop-color:#CD5237"/>
	<stop  offset="0.5142" style="stop-color:#C56250"/>
	<stop  offset="0.5966" style="stop-color:#C16A5F"/>
	<stop  offset="0.6445" style="stop-color:#BF6D65"/>
	<stop  offset="0.9815" style="stop-color:#460012"/>
</linearGradient>
<path opacity="0.05" fill="url(#SVGID_15_)" d="M281.564,133.079c0.305-0.185,0.634,0.648,0.987,0.698
	c0.275,0.039,0.61-0.141,0.846,0.005c0.244,0.15,0.448,0.745,0.514,1.023c0.066,0.279,0.155,0.906,0,1.147
	c-0.165,0.258-0.814,0.447-1.113,0.512c-0.209,0.046-0.55,0.217-0.724,0.342c-0.342,0.245-0.452,0.879-0.561,1.285
	c-0.063,0.237-0.062,0.797-0.257,0.945c-0.17,0.13-0.917,0.854-1.068,0.703c-0.152-0.152,0.212-1.348,0.212-1.563
	c0-0.556-0.055-1.671,0-2.225C280.465,135.301,281.003,133.419,281.564,133.079z"/>
<linearGradient id="SVGID_16_" gradientUnits="userSpaceOnUse" x1="10135.7949" y1="112.0138" x2="10141.6094" y2="112.0138" gradientTransform="matrix(-1 0 0 1 10436.8711 0)">
	<stop  offset="0.016" style="stop-color:#932C12"/>
	<stop  offset="0.3364" style="stop-color:#D24427"/>
	<stop  offset="0.4077" style="stop-color:#CD5237"/>
	<stop  offset="0.5142" style="stop-color:#C56250"/>
	<stop  offset="0.5966" style="stop-color:#C16A5F"/>
	<stop  offset="0.6445" style="stop-color:#BF6D65"/>
	<stop  offset="0.9815" style="stop-color:#460012"/>
</linearGradient>
<path opacity="0.05" fill="url(#SVGID_16_)" d="M296.634,109.13c0.343,0.102,0.93,0.342,1.288,0.327
	c0.323-0.013,0.632-0.223,0.939-0.327c0.243-0.082,0.796-0.111,1.028,0c0.4,0.192,0.966,0.965,1.113,1.384
	c0.092,0.262,0.11,0.858,0,1.113c-0.297,0.688-1.572,1.622-2.184,2.055c-0.266,0.188-1.647,1.342-1.97,1.299
	c-0.345-0.046-0.274-1.422-0.499-1.688c-0.395-0.467-0.921-1.409-1.042-2.009c-0.108-0.536-0.034-1.803,0.385-2.154
	C295.872,108.979,296.408,109.063,296.634,109.13z"/>
<linearGradient id="SVGID_17_" gradientUnits="userSpaceOnUse" x1="10138.7021" y1="104.1729" x2="10141.6914" y2="104.1729" gradientTransform="matrix(-1 0 0 1 10436.8711 0)">
	<stop  offset="0.016" style="stop-color:#932C12"/>
	<stop  offset="0.3364" style="stop-color:#D24427"/>
	<stop  offset="0.4077" style="stop-color:#CD5237"/>
	<stop  offset="0.5142" style="stop-color:#C56250"/>
	<stop  offset="0.5966" style="stop-color:#C16A5F"/>
	<stop  offset="0.6445" style="stop-color:#BF6D65"/>
	<stop  offset="0.9815" style="stop-color:#460012"/>
</linearGradient>
<path opacity="0.05" fill="url(#SVGID_17_)" d="M297.942,101.644c0.473-0.143,0.072,1.487,0,1.976
	c-0.065,0.442-0.217,1.378-0.514,1.713c-0.248,0.28-1.068,0.38-1.37,0.599c-0.209,0.152-0.444,0.862-0.685,0.771
	c-0.401-0.152-0.065-1.292,0-1.716c0.065-0.421,0.277-1.27,0.514-1.624C296.26,102.807,297.172,101.876,297.942,101.644z"/>
<linearGradient id="SVGID_18_" gradientUnits="userSpaceOnUse" x1="10158.9971" y1="126.2638" x2="10163.9941" y2="126.2638" gradientTransform="matrix(-1 0 0 1 10436.8711 0)">
	<stop  offset="0.016" style="stop-color:#932C12"/>
	<stop  offset="0.3364" style="stop-color:#D24427"/>
	<stop  offset="0.4077" style="stop-color:#CD5237"/>
	<stop  offset="0.5142" style="stop-color:#C56250"/>
	<stop  offset="0.5966" style="stop-color:#C16A5F"/>
	<stop  offset="0.6445" style="stop-color:#BF6D65"/>
	<stop  offset="0.9815" style="stop-color:#460012"/>
</linearGradient>
<path opacity="0.05" fill="url(#SVGID_18_)" d="M277.642,124.727c0.378,0.378,0.234,1.659,0,2.141
	c-0.167,0.343-0.901,0.703-1.199,0.942c-0.237,0.19-1.7,0.13-1.82-0.15c-0.23-0.537,0.508-0.802,0.022-1.006
	c-0.253-0.106-1.372,0.412-1.629,0.315c-0.296-0.111-0.029-0.729,0.002-1.043c0.037-0.386,0.608-1.1,0.983-1.199
	c0.344-0.091,1.088,0.207,1.444,0.209c0.287,0.002,0.633-0.143,0.912-0.209C276.67,124.653,277.415,124.5,277.642,124.727z"/>
<linearGradient id="SVGID_19_" gradientUnits="userSpaceOnUse" x1="10057.7031" y1="152.4934" x2="10057.7031" y2="172.7537" gradientTransform="matrix(-1 0 0 1 10436.8711 0)">
	<stop  offset="0.016" style="stop-color:#932C12"/>
	<stop  offset="0.3364" style="stop-color:#D24427"/>
	<stop  offset="0.4077" style="stop-color:#CD5237"/>
	<stop  offset="0.5142" style="stop-color:#C56250"/>
	<stop  offset="0.5966" style="stop-color:#C16A5F"/>
	<stop  offset="0.6445" style="stop-color:#BF6D65"/>
	<stop  offset="0.9815" style="stop-color:#460012"/>
</linearGradient>
<path opacity="0.03" fill="url(#SVGID_19_)" d="M360.227,152.493c2.303,0,4.04,0.007,5.715,0.174
	c1.244,0.124,6.18,0.401,7.336,0.877c1.08,0.444,3.141,1.567,4.119,2.206c1.273,0.831,3.503,2.933,4.783,3.753
	c1.226,0.785,3.788,2.238,5.182,2.657c1.44,0.433,4.736-0.181,5.979,0.664c0.528,0.359,1.385,1.649,1.196,2.259
	c-0.233,0.752-2.211,0.929-2.79,1.462c-0.319,0.293-1.016,1.037-0.93,1.462c0.177,0.87,5.676,2.501,6.524,2.764
	c0.19,0.059,0.711-0.179,0.797,0c0.255,0.529-0.933,1.584-1.462,1.84c-0.598,0.289-4.936,0.051-5.6,0.051
	c-0.864,0-3.292-0.53-4.112-0.801c-1.217-0.402-3.172-2.192-4.119-3.056c-0.626-0.571-1.887-1.764-2.259-2.525
	c-0.326-0.667-0.135-2.295-0.531-2.923c-0.312-0.494-1.412-1.037-1.894-1.367c-1.397-0.956-4.232-2.806-5.679-3.682
	c-1.142-0.691-3.452-2.035-4.65-2.623c-0.712-0.349-2.157-1.025-2.923-1.231c-0.76-0.204-3.11-0.534-3.699-1.056
	C360.959,153.178,359.895,152.493,360.227,152.493z"/>
<linearGradient id="SVGID_20_" gradientUnits="userSpaceOnUse" x1="10019.5488" y1="184.7721" x2="10019.5488" y2="203.7342" gradientTransform="matrix(-1 0 0 1 10436.8711 0)">
	<stop  offset="0.016" style="stop-color:#932C12"/>
	<stop  offset="0.3364" style="stop-color:#D24427"/>
	<stop  offset="0.4077" style="stop-color:#CD5237"/>
	<stop  offset="0.5142" style="stop-color:#C56250"/>
	<stop  offset="0.5966" style="stop-color:#C16A5F"/>
	<stop  offset="0.6445" style="stop-color:#BF6D65"/>
	<stop  offset="0.9815" style="stop-color:#460012"/>
</linearGradient>
<path opacity="0.03" fill="url(#SVGID_20_)" d="M403.764,185.239c0.741,0.678,3.812,3.239,4.568,3.901
	c0.783,0.685,2.735,1.529,3.72,1.86c1.89,0.635,5.099,1.179,6.373,2.713c0.552,0.664,0.802,1.784,0.802,2.648
	c0,0.664,0.502,1.569,0.665,2.214c0.12,0.476,0.544,1.425,0.93,1.727c0.729,0.572,9.193,3.457,10.12,3.434v-2.921
	c0.458-1.432-1.291-2.463-2.379-4.123c-1.176-1.796-1.772-3.709-2.16-4.096c-0.542-0.542-2.229-0.603-2.923-0.93
	c-1.609-0.758-3.315-3.347-4.825-4.286c-0.558-0.348-2.782-0.724-3.409-0.922C413.052,185.765,402.314,183.913,403.764,185.239z"/>
<linearGradient id="SVGID_21_" gradientUnits="userSpaceOnUse" x1="10132.793" y1="180.5588" x2="10132.793" y2="188.3671" gradientTransform="matrix(-1 0 0 1 10436.8711 0)">
	<stop  offset="0.016" style="stop-color:#932C12"/>
	<stop  offset="0.3364" style="stop-color:#D24427"/>
	<stop  offset="0.4077" style="stop-color:#CD5237"/>
	<stop  offset="0.5142" style="stop-color:#C56250"/>
	<stop  offset="0.5966" style="stop-color:#C16A5F"/>
	<stop  offset="0.6445" style="stop-color:#BF6D65"/>
	<stop  offset="0.9815" style="stop-color:#460012"/>
</linearGradient>
<path opacity="0.03" fill="url(#SVGID_21_)" d="M298.388,180.616c-1.57,0.383,5.792,4.008,7.097,4.961
	c1.07,0.781,4.503,2.79,4.503,2.79v-5.183c0,0-4.323-1.574-5.832-1.802C303.269,181.248,299.595,180.322,298.388,180.616z"/>
<linearGradient id="SVGID_22_" gradientUnits="userSpaceOnUse" x1="10194.8262" y1="159.5188" x2="10208.7178" y2="159.5188" gradientTransform="matrix(-1 0 0 1 10436.8711 0)">
	<stop  offset="0.016" style="stop-color:#932C12"/>
	<stop  offset="0.3364" style="stop-color:#D24427"/>
	<stop  offset="0.4077" style="stop-color:#CD5237"/>
	<stop  offset="0.5142" style="stop-color:#C56250"/>
	<stop  offset="0.5966" style="stop-color:#C16A5F"/>
	<stop  offset="0.6445" style="stop-color:#BF6D65"/>
	<stop  offset="0.9815" style="stop-color:#460012"/>
</linearGradient>
<path opacity="0.05" fill="url(#SVGID_22_)" d="M241.889,154.189c0.409,0.129-0.108,1.567-0.174,1.991
	c-0.144,0.927-0.839,1.924-1.562,2.521c-2.048,1.69-6.985,3.833-9.372,4.998c-0.614,0.3-1.926,1.483-2.499,1.111
	c-0.218-0.142-0.119-0.81,0-1.041c0.371-0.719,1.959-1.435,2.638-1.874c1.267-0.82,4.029-2.11,5.206-3.054
	c0.622-0.499,1.608-1.78,2.221-2.291C239.166,155.869,240.875,153.87,241.889,154.189z"/>
<linearGradient id="SVGID_23_" gradientUnits="userSpaceOnUse" x1="10180.6094" y1="157.5095" x2="10184.4551" y2="157.5095" gradientTransform="matrix(-1 0 0 1 10436.8711 0)">
	<stop  offset="0.016" style="stop-color:#932C12"/>
	<stop  offset="0.3364" style="stop-color:#D24427"/>
	<stop  offset="0.4077" style="stop-color:#CD5237"/>
	<stop  offset="0.5142" style="stop-color:#C56250"/>
	<stop  offset="0.5966" style="stop-color:#C16A5F"/>
	<stop  offset="0.6445" style="stop-color:#BF6D65"/>
	<stop  offset="0.9815" style="stop-color:#460012"/>
</linearGradient>
<path opacity="0.05" fill="url(#SVGID_23_)" d="M253.829,154.182c0.305-0.185,0.634,0.648,0.987,0.698
	c0.275,0.039,0.61-0.141,0.846,0.005c0.244,0.15,0.448,0.745,0.514,1.023c0.066,0.279,0.155,0.906,0,1.147
	c-0.165,0.258-0.814,0.447-1.113,0.512c-0.209,0.046-0.55,0.217-0.724,0.342c-0.342,0.245-0.452,0.879-0.561,1.285
	c-0.063,0.237-0.062,0.797-0.257,0.945c-0.17,0.13-0.917,0.854-1.068,0.703c-0.152-0.152,0.212-1.348,0.212-1.563
	c0-0.556-0.055-1.671,0-2.225C252.73,156.404,253.268,154.521,253.829,154.182z"/>
<linearGradient id="SVGID_24_" gradientUnits="userSpaceOnUse" x1="10140.3945" y1="155.3568" x2="10150.624" y2="145.1271" gradientTransform="matrix(-1 0 0 1 10436.8711 0)">
	<stop  offset="0.016" style="stop-color:#932C12"/>
	<stop  offset="0.3364" style="stop-color:#D24427"/>
	<stop  offset="0.4077" style="stop-color:#CD5237"/>
	<stop  offset="0.5142" style="stop-color:#C56250"/>
	<stop  offset="0.5966" style="stop-color:#C16A5F"/>
	<stop  offset="0.6445" style="stop-color:#BF6D65"/>
	<stop  offset="0.9815" style="stop-color:#460012"/>
</linearGradient>
<path opacity="0.03" fill="url(#SVGID_24_)" d="M307.954,134.25c0,0-1.183,0.9-1.761,1.142c-1.614,0.676-3.491,2.553-5.16,2.821
	c-1.076,0.173-1.311,0.605-2.379,2.04c-0.268,0.36-2.643,2.091-2.678,1.045c-0.046-1.377,0.46-2.636-0.532-1.616
	c-0.588,0.605-1.523,2.881,0.517,3.816c0.894,0.41,4.157,0.262,4.888,0.92c0.455,0.409,1.194,1.659,1.118,3.172
	c-0.051,1.013-1.935-1.764-2.931-1.954c-0.672-0.129-3.126-0.549-3.801-0.437c-0.712,0.118-2.532,0.857-3.191,1.506
	c-0.462,0.454,3.039,0.508,3.542,0.916c0.709,0.575,0.652,1.037,0.894,1.917c0.284,1.033-0.856,1.457-1.426,4.727
	c-0.154,0.884-0.227,2.584-1.1,3.613c-0.658,0.775-0.784-4.027-1.25-3.124c-0.766,1.486-2.605,5.797-3.674,6.547
	c-0.595,0.417-2.228-0.264-2.904,0c-0.864,0.337-2.032,1.902-2.733,2.509c-1.432,1.241-6.597,6.549-5.87,4.798
	c0.784-1.89,1.788-2.642,2.053-3.656c0.569-2.176-0.403-6.783,0-8.996c0.251-1.38,1.103-4.154,1.794-5.374
	c0.477-0.844,1.718-2.493,2.591-2.915c0.751-0.363,2.743-0.514,3.464-0.934c1.133-0.659,3.072-4.713,3.841-5.774
	c1.086-1.5,2.46-3.708,3.558-4.188c0.497-0.217,2.386,1.001,3.15,0.862c0.991-0.18,2.829-1.089,3.628-1.701
	c1.32-1.011,2.521-2.903,3.036-2.902C304.982,133.033,307.375,133.672,307.954,134.25z"/>
<linearGradient id="SVGID_25_" gradientUnits="userSpaceOnUse" x1="10106.6816" y1="170.0106" x2="10144.2188" y2="148.3383" gradientTransform="matrix(-1 0 0 1 10436.8711 0)">
	<stop  offset="0.016" style="stop-color:#932C12"/>
	<stop  offset="0.3364" style="stop-color:#D24427"/>
	<stop  offset="0.4077" style="stop-color:#CD5237"/>
	<stop  offset="0.5142" style="stop-color:#C56250"/>
	<stop  offset="0.5966" style="stop-color:#C16A5F"/>
	<stop  offset="0.6445" style="stop-color:#BF6D65"/>
	<stop  offset="0.9815" style="stop-color:#460012"/>
</linearGradient>
<path opacity="0.03" fill="url(#SVGID_25_)" d="M344.651,144.667c-1.647-0.399-5.296-0.517-6.438-0.087
	c-2.151,0.81-5.803,3.739-7.836,4.813c-1.339,0.707-4.38,1.49-5.53,2.476c-0.953,0.817-1.649,3.574-2.73,4.213
	c-0.737,0.436-1.717,0.032-2.566,0.14c-1.326,0.168-4.814,0.737-6.11,1.064c-1.888,0.476-5.874,1.206-7.405,2.408
	c-0.836,0.656-1.438,2.914-2.24,3.611c-0.843,0.733-3.18,1.157-4.089,1.806c-1.252,0.894-2.821,3.798-4.183,4.514
	c-1.701,0.894-5.718,0.748-7.605,1.108c-1.249,0.238-6.435,1.445-9.753,2.807c-1.114,0.457,7.082-0.219,9.316,0.049
	c1.274,0.153,5.516,1.186,6.799,1.139c1.322-0.048,1.508-1.678,2.825-1.552c0.589,0.057,1.617,0.048,2.195,0.172
	c0.685,0.147,2.074,0.135,2.677-0.223c0.461-0.275,2.929-0.17,2.732-0.669c-0.203-0.516-4.213-0.069-3.755-0.38
	c2.2-1.495,5.594-1.607,7.32-2.475c2.157-1.085,5.972-4.1,7.94-5.499c1.283-0.912,3.539-3.423,5.087-3.712
	c0.524-0.098,0.818,0.417,1.352,0.397c3.178-0.122,6.556-1.79,6.839-3.559c0.122-0.76-3.515-1.124-2.855-1.52
	c1.41-0.846,2.245-2.684,2.855-3.154c1.556-1.201,5.652-2.076,7.07-3.437c0.732-0.703,0.254-2.023,1.15-2.499
	c0.61-0.324,2.882-0.545,3.524-0.8C341.872,145.565,345.472,144.866,344.651,144.667z"/>
<linearGradient id="SVGID_26_" gradientUnits="userSpaceOnUse" x1="1050.5499" y1="4163.7368" x2="1070.1088" y2="4163.7368" gradientTransform="matrix(0.0023 1 -1 0.0023 4531.8086 -885.4725)">
	<stop  offset="0.016" style="stop-color:#932C12"/>
	<stop  offset="0.3364" style="stop-color:#D24427"/>
	<stop  offset="0.4077" style="stop-color:#CD5237"/>
	<stop  offset="0.5142" style="stop-color:#C56250"/>
	<stop  offset="0.5966" style="stop-color:#C16A5F"/>
	<stop  offset="0.6445" style="stop-color:#BF6D65"/>
	<stop  offset="0.9815" style="stop-color:#460012"/>
</linearGradient>
<path opacity="0.03" fill="url(#SVGID_26_)" d="M375.526,181.114c-0.479,0.516-1.211,1.987-0.963,2.646
	c0.144,0.383,1.025,0.759,1.432,0.79c0.279,0.021,0.82-0.548,1.05-0.389c0.237,0.164,0.157,0.909,0.003,1.153
	c-0.474,0.747-2.331,1.352-3.203,1.499c-0.785,0.132-2.375-0.259-3.168-0.332c-1.139-0.104-3.503-0.789-4.562-0.357
	c-0.405,0.165-1.224,0.888-1.15,1.319c0.089,0.518,1.561,0.583,1.833,1.033c0.345,0.572-0.023,2.009,0.074,2.67
	c0.095,0.645,0.999,1.946,0.684,2.517c-0.231,0.419-1.369,0.687-1.829,0.559c-0.416-0.116-0.831-1-1.156-1.285
	c-0.372-0.326-1.137-1.08-1.63-1.122c-0.428-0.036-1.151,0.584-1.558,0.722c-0.296,0.101-1.22,0.274-1.22,0.274l0.156-11.661
	c0,0,1.628,0.847,2.168,0.673c0.649-0.208,1.207-1.652,1.646-2.173c0.479-0.569,1.445-1.713,2.029-2.174
	c0.703-0.555,2.271-1.47,3.115-1.77c1.473-0.523,4.604-1.054,6.167-1.031c0.865,0.013,2.598,0.332,3.394,0.67
	c0.571,0.243,2.085,0.801,2.035,1.419c-0.035,0.431-1.129,0.695-1.558,0.749c-0.844,0.106-2.489-0.738-3.337-0.67
	c-1.456,0.116-4.388,1.068-5.473,2.046c-0.422,0.381-1.1,1.475-1.012,2.036c0.044,0.28,0.508,0.779,0.789,0.812
	c0.407,0.047,0.975-0.826,1.38-0.885c0.297-0.043,0.855,0.373,1.153,0.336c0.5-0.062,1.247-0.915,1.74-1.021
	c0.61-0.131,2.383-0.351,2.482,0.265C377.102,180.841,375.808,180.81,375.526,181.114z"/>
<linearGradient id="SVGID_27_" gradientUnits="userSpaceOnUse" x1="537.9999" y1="103.6964" x2="551.9221" y2="103.6964">
	<stop  offset="0.016" style="stop-color:#932C12"/>
	<stop  offset="0.3364" style="stop-color:#D24427"/>
	<stop  offset="0.4077" style="stop-color:#CD5237"/>
	<stop  offset="0.5142" style="stop-color:#C56250"/>
	<stop  offset="0.5966" style="stop-color:#C16A5F"/>
	<stop  offset="0.6445" style="stop-color:#BF6D65"/>
	<stop  offset="0.9815" style="stop-color:#460012"/>
</linearGradient>
<path opacity="0.05" fill="url(#SVGID_27_)" d="M540.878,101.035c-0.29,0.164-0.312,1.016-0.595,1.191
	c-0.38,0.235-1.152-1.03-2.102-1.438c-0.479-0.206,0.122,3.038,0.315,3.522c0.24,0.603,1.225,1.56,1.786,1.886
	c0.817,0.474,2.785,0.568,3.672,0.893c0.573,0.21,1.589,0.951,2.183,1.092c1.135,0.268,4.152,0.313,5.689,0.023
	c0.724-0.137-2.852-1.271-3.505-1.611c-0.523-0.272-1.792-0.451-2.183-0.893c-0.187-0.212-0.423-0.838-0.298-1.092
	c0.228-0.463,1.356-0.795,1.687-1.191c0.263-0.315,0.634-1.082,0.695-1.489c0.105-0.702,0.139-2.344-0.397-2.809
	c-0.393-0.342-0.851,0.087-1.311,0.331c-0.431,0.229-0.879,0.804-1.261,1.108c-0.27,0.215-1.565,0.753-1.907,0.803
	C542.729,101.45,541.42,100.729,540.878,101.035z"/>
<linearGradient id="SVGID_28_" gradientUnits="userSpaceOnUse" x1="524.3167" y1="57.3917" x2="540.2808" y2="57.3917">
	<stop  offset="0.016" style="stop-color:#932C12"/>
	<stop  offset="0.3364" style="stop-color:#D24427"/>
	<stop  offset="0.4077" style="stop-color:#CD5237"/>
	<stop  offset="0.5142" style="stop-color:#C56250"/>
	<stop  offset="0.5966" style="stop-color:#C16A5F"/>
	<stop  offset="0.6445" style="stop-color:#BF6D65"/>
	<stop  offset="0.9815" style="stop-color:#460012"/>
</linearGradient>
<path opacity="0.05" fill="url(#SVGID_28_)" d="M526.368,51.711c0.893,0.014,2.605,0.588,3.212,1.243
	c0.711,0.768,1.582,2.235,2.072,3.16c0.639,1.207,2.905,3.301,3.885,4.01c0.993,0.718,2.83,1.143,4.61,2.646
	c0.828,0.699-2.435,0.368-3.34,0c-0.882-0.359-2.666-1.043-3.495-1.51c-2.206-1.243-6.871-3.75-8.251-5.873
	c-0.459-0.705-0.929-2.497-0.671-3.298C524.641,51.309,525.549,51.698,526.368,51.711z"/>
<linearGradient id="SVGID_29_" gradientUnits="userSpaceOnUse" x1="657.2177" y1="48.3435" x2="679.9031" y2="48.3435">
	<stop  offset="0.016" style="stop-color:#932C12"/>
	<stop  offset="0.3364" style="stop-color:#D24427"/>
	<stop  offset="0.4077" style="stop-color:#CD5237"/>
	<stop  offset="0.5142" style="stop-color:#C56250"/>
	<stop  offset="0.5966" style="stop-color:#C16A5F"/>
	<stop  offset="0.6445" style="stop-color:#BF6D65"/>
	<stop  offset="0.9815" style="stop-color:#460012"/>
</linearGradient>
<path opacity="0.03" fill="url(#SVGID_29_)" d="M657.293,44.779c0.325-0.509,1.772-0.395,2.373-0.452
	c0.872-0.082,2.674,0.281,3.503,0c1.145-0.388,2.627-0.979,3.163-2.063c0.275-0.557,3.11-0.128,3.682,0.115
	c1.541,0.656,2.05,0.656,9.767,6.468c0.495,0.373-0.645,1.764-1.017,2.26c-0.914,1.218-1.711,1.803-3.14,2.33
	c-2.306,0.85-6.004,2.125-7.765,0.41c-0.769-0.749-5.705-2.118-6.187-3.078c-0.862-1.716-2.811-2.62-3.926-4.183
	C657.474,46.208,657.042,45.171,657.293,44.779z"/>
<linearGradient id="SVGID_30_" gradientUnits="userSpaceOnUse" x1="659.9685" y1="39.9748" x2="705.9691" y2="39.9748">
	<stop  offset="0.016" style="stop-color:#932C12"/>
	<stop  offset="0.3364" style="stop-color:#D24427"/>
	<stop  offset="0.4077" style="stop-color:#CD5237"/>
	<stop  offset="0.5142" style="stop-color:#C56250"/>
	<stop  offset="0.5966" style="stop-color:#C16A5F"/>
	<stop  offset="0.6445" style="stop-color:#BF6D65"/>
	<stop  offset="0.9815" style="stop-color:#460012"/>
</linearGradient>
<polygon opacity="0.05" fill="url(#SVGID_30_)" points="659.969,31.545 664.256,30.891 670.578,27.33 672.759,26.676 
	677.337,29.111 687.293,34.961 687.801,42.446 695.868,43.318 697.031,42.518 702.336,44.916 704.588,46.733 703.498,48.55 
	703.862,50.001 705.969,52.111 705.097,53.274 701.1,53.274 695.868,52.111 686.639,45.425 681.624,43.972 682.642,41.574 
	667.526,38.957 668.907,35.179 669.198,33.144 666.872,32.344 662.439,33.434 659.969,32.78 "/>
<linearGradient id="SVGID_31_" gradientUnits="userSpaceOnUse" x1="757.2245" y1="122.444" x2="761.0908" y2="122.444">
	<stop  offset="0.016" style="stop-color:#932C12"/>
	<stop  offset="0.3364" style="stop-color:#D24427"/>
	<stop  offset="0.4077" style="stop-color:#CD5237"/>
	<stop  offset="0.5142" style="stop-color:#C56250"/>
	<stop  offset="0.5966" style="stop-color:#C16A5F"/>
	<stop  offset="0.6445" style="stop-color:#BF6D65"/>
	<stop  offset="0.9815" style="stop-color:#460012"/>
</linearGradient>
<path opacity="0.05" fill="url(#SVGID_31_)" d="M757.518,119.173c-0.612-0.185-0.093,1.924,0,2.556
	c0.084,0.572,0.281,1.782,0.664,2.215c0.321,0.362,1.381,0.491,1.772,0.775c0.27,0.196,0.574,1.115,0.886,0.997
	c0.519-0.197,0.085-1.671,0-2.219c-0.084-0.544-0.358-1.642-0.664-2.1C759.694,120.677,758.515,119.474,757.518,119.173z"/>
<linearGradient id="SVGID_32_" gradientUnits="userSpaceOnUse" x1="743.7341" y1="103.6964" x2="750.1959" y2="103.6964">
	<stop  offset="0.016" style="stop-color:#932C12"/>
	<stop  offset="0.3364" style="stop-color:#D24427"/>
	<stop  offset="0.4077" style="stop-color:#CD5237"/>
	<stop  offset="0.5142" style="stop-color:#C56250"/>
	<stop  offset="0.5966" style="stop-color:#C16A5F"/>
	<stop  offset="0.6445" style="stop-color:#BF6D65"/>
	<stop  offset="0.9815" style="stop-color:#460012"/>
</linearGradient>
<path opacity="0.05" fill="url(#SVGID_32_)" d="M744.035,101.709c-0.489,0.489-0.303,2.146,0,2.768
	c0.215,0.443,1.166,0.91,1.55,1.218c0.307,0.246,2.199,0.168,2.354-0.194c0.298-0.695-0.657-1.037-0.028-1.301
	c0.327-0.137,1.774,0.532,2.107,0.408c0.383-0.144,0.037-0.942-0.003-1.349c-0.048-0.499-0.787-1.423-1.271-1.55
	c-0.445-0.117-1.407,0.267-1.868,0.27c-0.371,0.002-0.818-0.184-1.18-0.27C745.292,101.614,744.329,101.416,744.035,101.709z"/>
<linearGradient id="SVGID_33_" gradientUnits="userSpaceOnUse" x1="9909.8936" y1="39.9748" x2="9931.1797" y2="39.9748" gradientTransform="matrix(-1 0 0 1 10436.8711 0)">
	<stop  offset="0.016" style="stop-color:#932C12"/>
	<stop  offset="0.3364" style="stop-color:#D24427"/>
	<stop  offset="0.4077" style="stop-color:#CD5237"/>
	<stop  offset="0.5142" style="stop-color:#C56250"/>
	<stop  offset="0.5966" style="stop-color:#C16A5F"/>
	<stop  offset="0.6445" style="stop-color:#BF6D65"/>
	<stop  offset="0.9815" style="stop-color:#460012"/>
</linearGradient>
<path opacity="0.03" fill="url(#SVGID_33_)" d="M526.978,34.2c0,0-3.435-2.913-3.967-4.269c-0.276-0.702,0.333-2.341,0-3.018
	c-0.297-0.604-1.468-1.541-2.134-1.642c-0.452-0.068-1.562,0.205-1.713,0.636c-0.127,0.362,0.662,0.952,0.789,1.314
	c0.317,0.902,0.285,2.862,0.513,3.79c0.26,1.061,1.297,3.034,1.486,4.11c0.06,0.342,0.312,1.236,0,1.389
	c-0.891,0.437-2.458-1.685-3.23-2.31c-0.459-0.372-1.262-1.254-1.744-1.595c-1.163-0.821-3.657-2.287-5.027-2.674
	c-0.866-0.244-2.72-0.445-3.591-0.221c-0.765,0.197-2.701,0.901-2.668,1.69c0.028,0.652,1.682,1.05,2.316,1.205
	c0.811,0.198,2.565-0.308,3.341,0c0.784,0.311,2.251,1.493,2.458,2.31c0.133,0.524-0.329,1.642-0.681,2.052
	c-0.478,0.557-2.418,0.632-2.612,1.339c-0.192,0.698,1.138,1.851,1.539,2.454c0.784,1.181,2.447,3.477,3.259,4.638
	c1.345,1.924,3.431,6.372,5.359,7.711c1.308,0.908,6.169,1.579,6.169,1.579L526.978,34.2z"/>
<linearGradient id="SVGID_34_" gradientUnits="userSpaceOnUse" x1="9904.5732" y1="101.5548" x2="9920.5371" y2="101.5548" gradientTransform="matrix(-1 0 0 1 10436.8711 0)">
	<stop  offset="0.016" style="stop-color:#932C12"/>
	<stop  offset="0.3364" style="stop-color:#D24427"/>
	<stop  offset="0.4077" style="stop-color:#CD5237"/>
	<stop  offset="0.5142" style="stop-color:#C56250"/>
	<stop  offset="0.5966" style="stop-color:#C16A5F"/>
	<stop  offset="0.6445" style="stop-color:#BF6D65"/>
	<stop  offset="0.9815" style="stop-color:#460012"/>
</linearGradient>
<path opacity="0.05" fill="url(#SVGID_34_)" d="M530.247,95.874c-0.893,0.014-2.605,0.588-3.212,1.243
	c-0.711,0.768-1.582,2.235-2.072,3.16c-0.639,1.207-2.905,3.301-3.885,4.01c-0.993,0.718-2.83,1.143-4.61,2.646
	c-0.828,0.699,2.435,0.368,3.34,0c0.882-0.359,2.666-1.043,3.495-1.51c2.206-1.243,6.871-3.75,8.251-5.873
	c0.459-0.705,0.929-2.497,0.671-3.298C531.974,95.472,531.067,95.862,530.247,95.874z"/>
<linearGradient id="SVGID_35_" gradientUnits="userSpaceOnUse" x1="9762.8105" y1="113.1297" x2="9796.4971" y2="113.1297" gradientTransform="matrix(-1 0 0 1 10436.8711 0)">
	<stop  offset="0.016" style="stop-color:#932C12"/>
	<stop  offset="0.3364" style="stop-color:#D24427"/>
	<stop  offset="0.4077" style="stop-color:#CD5237"/>
	<stop  offset="0.5142" style="stop-color:#C56250"/>
	<stop  offset="0.5966" style="stop-color:#C16A5F"/>
	<stop  offset="0.6445" style="stop-color:#BF6D65"/>
	<stop  offset="0.9815" style="stop-color:#460012"/>
</linearGradient>
<path opacity="0.05" fill="url(#SVGID_35_)" d="M673.949,107.836c-0.483-0.756-2.631-0.587-3.524-0.671
	c-1.295-0.122-3.97,0.417-5.202,0c-1.701-0.576-3.901-1.453-4.697-3.063c-0.409-0.827-4.618-0.191-5.467,0.171
	c-2.288,0.975-3.045,0.975-14.503,9.604c-0.735,0.553,0.958,2.62,1.51,3.356c1.357,1.809,2.541,2.677,4.663,3.46
	c3.424,1.263,8.915,3.156,11.53,0.609c1.142-1.113,8.472-3.145,9.188-4.57c1.279-2.548,4.174-3.891,5.831-6.211
	C673.68,109.958,674.321,108.419,673.949,107.836z"/>
<linearGradient id="SVGID_36_" gradientUnits="userSpaceOnUse" x1="9870.0322" y1="168.9597" x2="9994.6113" y2="168.9597" gradientTransform="matrix(-1 0 0 1 10436.8711 0)">
	<stop  offset="0.016" style="stop-color:#932C12"/>
	<stop  offset="0.3364" style="stop-color:#D24427"/>
	<stop  offset="0.4077" style="stop-color:#CD5237"/>
	<stop  offset="0.5142" style="stop-color:#C56250"/>
	<stop  offset="0.5966" style="stop-color:#C16A5F"/>
	<stop  offset="0.6445" style="stop-color:#BF6D65"/>
	<stop  offset="0.9815" style="stop-color:#460012"/>
</linearGradient>
<path opacity="0.03" fill="url(#SVGID_36_)" d="M566.809,147.15c-1.631-1.899-12.502-0.784-14.869-1.6
	c-3.96-1.366-10.744-6.583-14.599-8.222c-1.209-0.514-3.727-1.64-5.034-1.51c-2.979,0.295-5.162,5.658-7.774,7.12
	c-5.818,3.254-22.281,6.34-25.786,12.01c-2.277,3.684,1.826,14.161-1.175,17.284c-3.245,3.377-13.609,4.467-18.15,3.321
	c-0.79-0.199-2.35-3.081-3.161-3.153c-3.347-0.298-9.387,3.776-12.249,5.537c-1.423,0.876-4.91,2.55-5.202,4.195
	c-0.214,1.204,2.337,2.985,2.517,4.195c0.127,0.854-1.956,3.464-2.381,4.215c-0.848,1.498-16.563,3.713-16.685,5.43
	c-0.059,0.837,3.086,3.844,3.836,4.219c2.064,1.032,12.03,2.138,14.324,1.886c3.076-0.338,18.286-3.32,21.108-4.59
	c5.999-2.699,12.817-15.488,18.728-18.376c2.708-1.323,10.284-0.634,11.578-3.356c0.646-1.358-3.801-5.145-2.349-5.537
	c11.601-3.137,24.241-0.933,34.903-6.041c2.095-1.003-2.622-6.473-3.188-8.726c-0.289-1.151-1.29-3.686-0.671-4.698
	c0.741-1.211,3.952-1.782,5.37-1.846c2.633-0.119,7.601,2.54,10.236,2.517c1.475-0.013,4.805-0.341,5.705-1.51
	C562.275,149.348,567.273,147.691,566.809,147.15z"/>
<linearGradient id="SVGID_37_" gradientUnits="userSpaceOnUse" x1="9810.4883" y1="151.835" x2="9885.7529" y2="195.289" gradientTransform="matrix(-1 0 0 1 10436.8711 0)">
	<stop  offset="0.016" style="stop-color:#932C12"/>
	<stop  offset="0.3364" style="stop-color:#D24427"/>
	<stop  offset="0.4077" style="stop-color:#CD5237"/>
	<stop  offset="0.5142" style="stop-color:#C56250"/>
	<stop  offset="0.5966" style="stop-color:#C16A5F"/>
	<stop  offset="0.6445" style="stop-color:#BF6D65"/>
	<stop  offset="0.9815" style="stop-color:#460012"/>
</linearGradient>
<path opacity="0.03" fill="url(#SVGID_37_)" d="M607.249,147.932c2.756-0.606,8.819,5.947,11.464,6.93
	c1.902,0.707,6.511-0.748,8.1,0.514c0.526,0.418,0.851,1.905,0.771,2.571c-0.053,0.443-0.985,1.105-0.9,1.543
	c0.155,0.798,1.856,1.605,2.571,1.99c0.748,0.402,2.568,0.545,3.214,1.096c0.415,0.354,0.763,1.448,1.021,1.929
	c0.415,0.774,1.826,2.22,1.679,3.086c-0.153,0.897-0.689,3.011-1.318,3.669c-0.663,0.693-0.616,6.553-2.497,4.369
	c-1.237-1.437-3.155-5.701-3.9-6.623c-0.657-0.814-1.942-2.707-2.957-2.957c-0.523-0.129-1.521,0.594-2.057,0.643
	c-1.322,0.12-3.994-0.28-5.272-0.643c-0.443-0.126-1.344-1.095-1.671-0.771c-0.451,0.445,0.688,1.781,1.029,2.314
	c0.368,0.576,1.506,1.44,1.8,2.057c0.491,1.031,7.07,9.519,7.07,9.519s-11.391-0.01-14.088,0.034
	c-1.062,0.017-4.245,0.159-4.245,0.159s-4.292-2.531-5.083-2.756c-1.028-0.292-3.562-1.272-4.625-1.156
	c-1.669,0.181-1.893-1.206-3.458-1.815c-0.403-0.157-1.126-0.854-1.157-1.286c-0.05-0.694,1.102-1.777,1.543-2.314
	c0.375-0.457,1.671-1.081,1.671-1.671c0-2-3.85-4.801-5.657-5.657c-0.292-0.138-0.983-0.242-1.286-0.129
	c-1.277,0.48-2.68,3.113-3.729,3.986c-1.467,1.221-4.664,3.388-6.429,4.114c-4.469,1.839-15.649,1.177-15.649,1.177l-12.587,1.328
	l-10.509,3.043c0,0,7.29-6.771,10.272-8.124c1.165-0.529,2.067-0.525,5.778-1.171c3.335-0.58,7.7,1.603,10.866,0.405
	c2.061-0.78,5.965-2.927,8.1-3.471c0.657-0.168,2.244,0.245,2.7-0.257c0.357-0.393,0.187-1.627,0-2.124
	c-0.412-1.098-5.467-0.755-5.374-1.924c0.04-0.501,3.098-1.613,3.589-1.716c1.145-0.242,3.574,0.046,4.742,0.108
	c1.303,0.069,3.944-0.385,5.143-0.9c1.14-0.49,3.521-1.807,3.986-2.957c0.293-0.725-0.18-2.379-0.514-3.086
	c-0.292-0.618-1.291-1.601-1.8-2.057c-0.292-0.262-1.346-0.512-1.286-0.9c0.083-0.532,1.519-0.674,2.057-0.643
	c0.948,0.055,2.758,0.916,3.471,1.543c0.51,0.447,1.216,1.666,1.414,2.314c0.216,0.708-0.282,2.342,0.129,2.957
	c0.296,0.442,1.522,0.557,1.929,0.9c0.777,0.656,1.521,2.708,2.314,3.343c1.383,1.107,5.181,1.595,6.943,1.414
	c1.218-0.125,3.458-1.286,4.5-1.929c0.68-0.419,2.297-1.272,2.443-2.057c0.134-0.721-0.962-1.994-1.414-2.571
	c-0.351-0.448-1.481-1.007-1.671-1.543c-0.152-0.428-0.222-1.205-0.476-1.582C607.135,148.983,606.716,148.049,607.249,147.932z"/>
<linearGradient id="SVGID_38_" gradientUnits="userSpaceOnUse" x1="9877.5303" y1="88.4163" x2="9882.5039" y2="88.4163" gradientTransform="matrix(-1 0 0 1 10436.8711 0)">
	<stop  offset="0.016" style="stop-color:#932C12"/>
	<stop  offset="0.3364" style="stop-color:#D24427"/>
	<stop  offset="0.4077" style="stop-color:#CD5237"/>
	<stop  offset="0.5142" style="stop-color:#C56250"/>
	<stop  offset="0.5966" style="stop-color:#C16A5F"/>
	<stop  offset="0.6445" style="stop-color:#BF6D65"/>
	<stop  offset="0.9815" style="stop-color:#460012"/>
</linearGradient>
<path opacity="0.05" fill="url(#SVGID_38_)" d="M556.194,84.113c0.395-0.239,0.82,0.838,1.277,0.903
	c0.356,0.051,0.788-0.182,1.095,0.006c0.315,0.194,0.579,0.963,0.664,1.324c0.086,0.361,0.2,1.171,0,1.484
	c-0.214,0.334-1.053,0.578-1.44,0.662c-0.27,0.059-0.711,0.281-0.936,0.442c-0.442,0.317-0.585,1.137-0.725,1.662
	c-0.082,0.306-0.081,1.03-0.332,1.222c-0.22,0.168-1.186,1.105-1.381,0.909c-0.197-0.197,0.274-1.743,0.274-2.021
	c0-0.719-0.071-2.161,0-2.877C554.773,86.986,555.469,84.552,556.194,84.113z"/>
<linearGradient id="SVGID_39_" gradientUnits="userSpaceOnUse" x1="9931.7842" y1="69.1459" x2="9939.3047" y2="69.1459" gradientTransform="matrix(-1 0 0 1 10436.8711 0)">
	<stop  offset="0.016" style="stop-color:#932C12"/>
	<stop  offset="0.3364" style="stop-color:#D24427"/>
	<stop  offset="0.4077" style="stop-color:#CD5237"/>
	<stop  offset="0.5142" style="stop-color:#C56250"/>
	<stop  offset="0.5966" style="stop-color:#C16A5F"/>
	<stop  offset="0.6445" style="stop-color:#BF6D65"/>
	<stop  offset="0.9815" style="stop-color:#460012"/>
</linearGradient>
<path opacity="0.05" fill="url(#SVGID_39_)" d="M499.341,65.416c0.444,0.132,1.203,0.442,1.665,0.422
	c0.418-0.017,0.818-0.289,1.214-0.422c0.315-0.106,1.029-0.144,1.329,0c0.518,0.248,1.249,1.248,1.44,1.79
	c0.12,0.339,0.143,1.109,0,1.44c-0.384,0.89-2.033,2.097-2.824,2.658c-0.343,0.243-2.13,1.736-2.548,1.68
	c-0.447-0.059-0.354-1.839-0.645-2.183c-0.51-0.604-1.192-1.822-1.347-2.598c-0.139-0.694-0.044-2.332,0.498-2.786
	C498.356,65.221,499.049,65.329,499.341,65.416z"/>
<linearGradient id="SVGID_40_" gradientUnits="userSpaceOnUse" x1="9896.7598" y1="60.6738" x2="9900.626" y2="60.6738" gradientTransform="matrix(-1 0 0 1 10436.8711 0)">
	<stop  offset="0.016" style="stop-color:#932C12"/>
	<stop  offset="0.3364" style="stop-color:#D24427"/>
	<stop  offset="0.4077" style="stop-color:#CD5237"/>
	<stop  offset="0.5142" style="stop-color:#C56250"/>
	<stop  offset="0.5966" style="stop-color:#C16A5F"/>
	<stop  offset="0.6445" style="stop-color:#BF6D65"/>
	<stop  offset="0.9815" style="stop-color:#460012"/>
</linearGradient>
<path opacity="0.05" fill="url(#SVGID_40_)" d="M539.818,57.403c0.612-0.185,0.093,1.924,0,2.556
	c-0.084,0.572-0.281,1.782-0.664,2.215c-0.321,0.362-1.381,0.491-1.772,0.775c-0.27,0.196-0.574,1.115-0.886,0.997
	c-0.519-0.197-0.085-1.671,0-2.219c0.084-0.544,0.358-1.642,0.664-2.1C537.642,58.907,538.821,57.704,539.818,57.403z"/>
<linearGradient id="SVGID_41_" gradientUnits="userSpaceOnUse" x1="9885.4492" y1="75.2987" x2="9891.9102" y2="75.2987" gradientTransform="matrix(-1 0 0 1 10436.8711 0)">
	<stop  offset="0.016" style="stop-color:#932C12"/>
	<stop  offset="0.3364" style="stop-color:#D24427"/>
	<stop  offset="0.4077" style="stop-color:#CD5237"/>
	<stop  offset="0.5142" style="stop-color:#C56250"/>
	<stop  offset="0.5966" style="stop-color:#C16A5F"/>
	<stop  offset="0.6445" style="stop-color:#BF6D65"/>
	<stop  offset="0.9815" style="stop-color:#460012"/>
</linearGradient>
<path opacity="0.05" fill="url(#SVGID_41_)" d="M551.122,73.311c0.489,0.489,0.303,2.146,0,2.768
	c-0.215,0.443-1.166,0.91-1.55,1.218c-0.307,0.246-2.199,0.168-2.354-0.194c-0.298-0.695,0.657-1.037,0.028-1.301
	c-0.327-0.137-1.774,0.532-2.107,0.408c-0.383-0.144-0.037-0.942,0.003-1.349c0.048-0.499,0.787-1.423,1.271-1.55
	c0.445-0.117,1.407,0.267,1.868,0.27c0.371,0.002,0.818-0.184,1.18-0.27C549.865,73.216,550.828,73.018,551.122,73.311z"/>
<linearGradient id="SVGID_42_" gradientUnits="userSpaceOnUse" x1="9699.7334" y1="147.4004" x2="9699.7334" y2="173.6018" gradientTransform="matrix(-1 0 0 1 10436.8711 0)">
	<stop  offset="0.016" style="stop-color:#932C12"/>
	<stop  offset="0.3364" style="stop-color:#D24427"/>
	<stop  offset="0.4077" style="stop-color:#CD5237"/>
	<stop  offset="0.5142" style="stop-color:#C56250"/>
	<stop  offset="0.5966" style="stop-color:#C16A5F"/>
	<stop  offset="0.6445" style="stop-color:#BF6D65"/>
	<stop  offset="0.9815" style="stop-color:#460012"/>
</linearGradient>
<path opacity="0.03" fill="url(#SVGID_42_)" d="M712.643,147.4c2.978,0,5.225,0.009,7.391,0.225c1.608,0.16,7.992,0.519,9.487,1.134
	c1.397,0.575,4.062,2.027,5.327,2.853c1.646,1.075,4.531,3.794,6.186,4.854c1.586,1.015,4.898,2.894,6.702,3.437
	c1.863,0.56,6.124-0.235,7.732,0.859c0.683,0.465,1.791,2.132,1.547,2.921c-0.302,0.973-2.859,1.201-3.608,1.89
	c-0.412,0.379-1.314,1.341-1.203,1.89c0.229,1.125,7.341,3.234,8.437,3.575c0.246,0.077,0.919-0.232,1.031,0
	c0.33,0.684-1.206,2.049-1.89,2.379c-0.774,0.373-6.383,0.066-7.243,0.066c-1.117,0-4.258-0.686-5.318-1.036
	c-1.575-0.52-4.102-2.835-5.327-3.952c-0.809-0.738-2.44-2.281-2.921-3.265c-0.422-0.863-0.175-2.968-0.687-3.78
	c-0.403-0.639-1.826-1.341-2.45-1.767c-1.806-1.236-5.473-3.629-7.345-4.762c-1.477-0.894-4.464-2.632-6.014-3.392
	c-0.921-0.452-2.79-1.325-3.78-1.592c-0.983-0.264-4.022-0.69-4.784-1.365C713.589,148.286,712.213,147.4,712.643,147.4z"/>
<linearGradient id="SVGID_43_" gradientUnits="userSpaceOnUse" x1="9636.1045" y1="149.1675" x2="9636.1045" y2="173.69" gradientTransform="matrix(-1 0 0 1 10436.8711 0)">
	<stop  offset="0.016" style="stop-color:#932C12"/>
	<stop  offset="0.3364" style="stop-color:#D24427"/>
	<stop  offset="0.4077" style="stop-color:#CD5237"/>
	<stop  offset="0.5142" style="stop-color:#C56250"/>
	<stop  offset="0.5966" style="stop-color:#C16A5F"/>
	<stop  offset="0.6445" style="stop-color:#BF6D65"/>
	<stop  offset="0.9815" style="stop-color:#460012"/>
</linearGradient>
<path opacity="0.03" fill="url(#SVGID_43_)" d="M783.232,149.771c0.958,0.876,4.93,4.189,5.907,5.044
	c1.012,0.885,3.537,1.978,4.811,2.406c2.444,0.821,6.594,1.525,8.242,3.508c0.714,0.859,1.037,2.307,1.037,3.424
	c0,0.859,0.65,2.029,0.86,2.863c0.155,0.615,0.704,1.842,1.203,2.234c0.943,0.74,11.889,4.47,13.087,4.441v-3.777
	c0.593-1.852-1.67-3.185-3.077-5.333c-1.521-2.322-2.292-4.796-2.793-5.297c-0.701-0.701-2.883-0.78-3.78-1.203
	c-2.081-0.98-4.287-4.328-6.24-5.543c-0.722-0.449-3.598-0.937-4.409-1.192C795.244,150.451,781.357,148.056,783.232,149.771z"/>
<linearGradient id="SVGID_44_" gradientUnits="userSpaceOnUse" x1="9931.7842" y1="118.3053" x2="9949.749" y2="118.3053" gradientTransform="matrix(-1 0 0 1 10436.8711 0)">
	<stop  offset="0.016" style="stop-color:#932C12"/>
	<stop  offset="0.3364" style="stop-color:#D24427"/>
	<stop  offset="0.4077" style="stop-color:#CD5237"/>
	<stop  offset="0.5142" style="stop-color:#C56250"/>
	<stop  offset="0.5966" style="stop-color:#C16A5F"/>
	<stop  offset="0.6445" style="stop-color:#BF6D65"/>
	<stop  offset="0.9815" style="stop-color:#460012"/>
</linearGradient>
<path opacity="0.05" fill="url(#SVGID_44_)" d="M504.885,111.413c0.529,0.166-0.139,2.027-0.224,2.575
	c-0.186,1.199-1.085,2.489-2.02,3.261c-2.648,2.186-9.034,4.958-12.12,6.464c-0.795,0.388-2.491,1.918-3.232,1.436
	c-0.282-0.183-0.154-1.047,0-1.347c0.48-0.93,2.533-1.856,3.412-2.424c1.639-1.06,5.211-2.729,6.733-3.95
	c0.805-0.646,2.08-2.302,2.873-2.963C501.364,113.585,503.573,111,504.885,111.413z"/>
<linearGradient id="SVGID_45_" gradientUnits="userSpaceOnUse" x1="9913.3984" y1="115.7067" x2="9918.3721" y2="115.7067" gradientTransform="matrix(-1 0 0 1 10436.8711 0)">
	<stop  offset="0.016" style="stop-color:#932C12"/>
	<stop  offset="0.3364" style="stop-color:#D24427"/>
	<stop  offset="0.4077" style="stop-color:#CD5237"/>
	<stop  offset="0.5142" style="stop-color:#C56250"/>
	<stop  offset="0.5966" style="stop-color:#C16A5F"/>
	<stop  offset="0.6445" style="stop-color:#BF6D65"/>
	<stop  offset="0.9815" style="stop-color:#460012"/>
</linearGradient>
<path opacity="0.05" fill="url(#SVGID_45_)" d="M520.326,111.403c0.395-0.239,0.82,0.838,1.277,0.903
	c0.356,0.051,0.788-0.182,1.095,0.006c0.315,0.194,0.579,0.963,0.664,1.324c0.086,0.361,0.2,1.171,0,1.484
	c-0.214,0.334-1.053,0.578-1.44,0.662c-0.27,0.059-0.711,0.281-0.936,0.442c-0.442,0.317-0.585,1.137-0.725,1.662
	c-0.082,0.306-0.081,1.03-0.332,1.222c-0.22,0.168-1.186,1.105-1.381,0.909c-0.197-0.197,0.274-1.743,0.274-2.021
	c0-0.719-0.071-2.161,0-2.877C518.906,114.277,519.601,111.843,520.326,111.403z"/>
<linearGradient id="SVGID_46_" gradientUnits="userSpaceOnUse" x1="9726.0215" y1="89.7183" x2="9739.251" y2="76.4888" gradientTransform="matrix(-1 0 0 1 10436.8711 0)">
	<stop  offset="0.016" style="stop-color:#932C12"/>
	<stop  offset="0.3364" style="stop-color:#D24427"/>
	<stop  offset="0.4077" style="stop-color:#CD5237"/>
	<stop  offset="0.5142" style="stop-color:#C56250"/>
	<stop  offset="0.5966" style="stop-color:#C16A5F"/>
	<stop  offset="0.6445" style="stop-color:#BF6D65"/>
	<stop  offset="0.9815" style="stop-color:#460012"/>
</linearGradient>
<path opacity="0.03" fill="url(#SVGID_46_)" d="M725.692,62.422c0,0-1.53,1.164-2.277,1.477c-2.087,0.874-4.515,3.301-6.673,3.648
	c-1.391,0.224-1.695,0.783-3.077,2.639c-0.347,0.466-3.418,2.704-3.463,1.351c-0.06-1.781,0.595-3.409-0.688-2.09
	c-0.761,0.783-1.97,3.726,0.669,4.935c1.156,0.53,5.376,0.339,6.321,1.19c0.588,0.529,1.544,2.146,1.445,4.102
	c-0.066,1.31-2.503-2.281-3.791-2.527c-0.869-0.166-4.042-0.71-4.915-0.565c-0.921,0.153-3.275,1.109-4.127,1.947
	c-0.597,0.588,3.93,0.657,4.581,1.185c0.917,0.743,0.843,1.341,1.156,2.479c0.368,1.337-1.107,1.884-1.845,6.113
	c-0.2,1.143-0.294,3.342-1.423,4.672c-0.851,1.002-1.014-5.208-1.617-4.04c-0.991,1.922-3.369,7.497-4.751,8.467
	c-0.769,0.539-2.881-0.341-3.756,0c-1.118,0.435-2.628,2.46-3.535,3.245c-1.852,1.605-8.531,8.469-7.592,6.205
	c1.015-2.444,2.312-3.417,2.655-4.728c0.736-2.814-0.522-8.772,0-11.634c0.325-1.784,1.427-5.372,2.32-6.95
	c0.617-1.091,2.222-3.224,3.351-3.769c0.971-0.469,3.548-0.665,4.48-1.207c1.465-0.853,3.973-6.095,4.967-7.468
	c1.405-1.939,3.181-4.795,4.601-5.416c0.643-0.281,3.085,1.295,4.073,1.115c1.281-0.232,3.658-1.408,4.692-2.2
	c1.708-1.307,3.261-3.755,3.926-3.752C721.849,60.848,724.944,61.674,725.692,62.422z"/>
<linearGradient id="SVGID_47_" gradientUnits="userSpaceOnUse" x1="9817.792" y1="120.9118" x2="9866.3369" y2="92.8845" gradientTransform="matrix(-1 0 0 1 10436.8711 0)">
	<stop  offset="0.016" style="stop-color:#932C12"/>
	<stop  offset="0.3364" style="stop-color:#D24427"/>
	<stop  offset="0.4077" style="stop-color:#CD5237"/>
	<stop  offset="0.5142" style="stop-color:#C56250"/>
	<stop  offset="0.5966" style="stop-color:#C16A5F"/>
	<stop  offset="0.6445" style="stop-color:#BF6D65"/>
	<stop  offset="0.9815" style="stop-color:#460012"/>
</linearGradient>
<path opacity="0.03" fill="url(#SVGID_47_)" d="M637.781,88.137c-2.129-0.517-6.849-0.669-8.326-0.113
	c-2.782,1.048-7.505,4.836-10.134,6.224c-1.732,0.915-5.664,1.927-7.151,3.202c-1.233,1.056-2.133,4.623-3.53,5.449
	c-0.953,0.564-2.22,0.042-3.318,0.181c-1.715,0.217-6.225,0.953-7.901,1.376c-2.441,0.616-7.596,1.56-9.577,3.114
	c-1.081,0.848-1.86,3.769-2.896,4.671c-1.091,0.948-4.112,1.496-5.288,2.335c-1.62,1.156-3.648,4.912-5.409,5.838
	c-2.199,1.156-7.394,0.967-9.835,1.432c-1.615,0.308-8.321,1.869-12.613,3.63c-1.441,0.591,9.159-0.283,12.048,0.063
	c1.648,0.198,7.134,1.534,8.792,1.474c1.709-0.063,1.951-2.171,3.653-2.007c0.761,0.073,2.091,0.063,2.839,0.223
	c0.886,0.19,2.682,0.175,3.461-0.288c0.597-0.355,3.788-0.22,3.534-0.865c-0.263-0.667-5.448-0.089-4.856-0.492
	c2.845-1.934,7.235-2.078,9.467-3.2c2.79-1.403,7.723-5.302,10.268-7.112c1.659-1.18,4.577-4.426,6.578-4.8
	c0.678-0.127,1.058,0.54,1.748,0.513c4.111-0.158,8.479-2.315,8.845-4.602c0.157-0.983-4.545-1.454-3.692-1.966
	c1.824-1.094,2.904-3.471,3.692-4.079c2.012-1.553,7.309-2.685,9.143-4.445c0.947-0.909,0.328-2.616,1.487-3.232
	c0.789-0.419,3.728-0.705,4.558-1.035C634.187,89.298,638.842,88.394,637.781,88.137z"/>
<linearGradient id="SVGID_48_" gradientUnits="userSpaceOnUse" x1="9797.5732" y1="179.5548" x2="9813.5371" y2="179.5548" gradientTransform="matrix(-1 0 0 1 10436.8711 0)">
	<stop  offset="0.016" style="stop-color:#932C12"/>
	<stop  offset="0.3364" style="stop-color:#D24427"/>
	<stop  offset="0.4077" style="stop-color:#CD5237"/>
	<stop  offset="0.5142" style="stop-color:#C56250"/>
	<stop  offset="0.5966" style="stop-color:#C16A5F"/>
	<stop  offset="0.6445" style="stop-color:#BF6D65"/>
	<stop  offset="0.9815" style="stop-color:#460012"/>
</linearGradient>
<path opacity="0.05" fill="url(#SVGID_48_)" d="M637.247,173.874c-0.893,0.014-2.605,0.588-3.212,1.243
	c-0.711,0.768-1.582,2.235-2.072,3.16c-0.639,1.207-2.905,3.301-3.885,4.01c-0.993,0.718-2.83,1.143-4.61,2.646
	c-0.828,0.699,2.435,0.368,3.34,0c0.882-0.359,2.666-1.043,3.495-1.51c2.206-1.243,6.871-3.75,8.251-5.873
	c0.459-0.705,0.929-2.497,0.671-3.298C638.974,173.472,638.067,173.862,637.247,173.874z"/>
<linearGradient id="SVGID_49_" gradientUnits="userSpaceOnUse" x1="9757.8369" y1="168.9597" x2="9762.8105" y2="168.9597" gradientTransform="matrix(-1 0 0 1 10436.8711 0)">
	<stop  offset="0.016" style="stop-color:#932C12"/>
	<stop  offset="0.3364" style="stop-color:#D24427"/>
	<stop  offset="0.4077" style="stop-color:#CD5237"/>
	<stop  offset="0.5142" style="stop-color:#C56250"/>
	<stop  offset="0.5966" style="stop-color:#C16A5F"/>
	<stop  offset="0.6445" style="stop-color:#BF6D65"/>
	<stop  offset="0.9815" style="stop-color:#460012"/>
</linearGradient>
<path opacity="0.05" fill="url(#SVGID_49_)" d="M675.887,164.656c0.395-0.239,0.82,0.838,1.277,0.903
	c0.356,0.051,0.788-0.182,1.095,0.006c0.315,0.194,0.579,0.963,0.664,1.324c0.085,0.361,0.2,1.171,0,1.484
	c-0.214,0.334-1.053,0.578-1.44,0.662c-0.27,0.059-0.711,0.281-0.936,0.442c-0.442,0.317-0.585,1.137-0.725,1.662
	c-0.082,0.306-0.081,1.03-0.332,1.222c-0.22,0.168-1.186,1.105-1.381,0.909c-0.197-0.197,0.274-1.743,0.274-2.021
	c0-0.719-0.071-2.161,0-2.877C674.466,167.53,675.162,165.096,675.887,164.656z"/>
<linearGradient id="SVGID_50_" gradientUnits="userSpaceOnUse" x1="9822.1514" y1="138.6738" x2="9829.6709" y2="138.6738" gradientTransform="matrix(-1 0 0 1 10436.8711 0)">
	<stop  offset="0.016" style="stop-color:#932C12"/>
	<stop  offset="0.3364" style="stop-color:#D24427"/>
	<stop  offset="0.4077" style="stop-color:#CD5237"/>
	<stop  offset="0.5142" style="stop-color:#C56250"/>
	<stop  offset="0.5966" style="stop-color:#C16A5F"/>
	<stop  offset="0.6445" style="stop-color:#BF6D65"/>
	<stop  offset="0.9815" style="stop-color:#460012"/>
</linearGradient>
<path opacity="0.05" fill="url(#SVGID_50_)" d="M608.974,134.944c0.444,0.132,1.203,0.442,1.665,0.422
	c0.418-0.017,0.818-0.289,1.214-0.422c0.315-0.106,1.029-0.144,1.329,0c0.518,0.248,1.249,1.248,1.44,1.79
	c0.12,0.339,0.143,1.109,0,1.44c-0.385,0.89-2.033,2.097-2.824,2.658c-0.343,0.243-2.13,1.736-2.548,1.68
	c-0.447-0.059-0.354-1.839-0.645-2.183c-0.51-0.604-1.192-1.822-1.347-2.598c-0.139-0.694-0.044-2.332,0.498-2.786
	C607.99,134.749,608.683,134.857,608.974,134.944z"/>
<linearGradient id="SVGID_51_" gradientUnits="userSpaceOnUse" x1="9789.7598" y1="138.6738" x2="9793.626" y2="138.6738" gradientTransform="matrix(-1 0 0 1 10436.8711 0)">
	<stop  offset="0.016" style="stop-color:#932C12"/>
	<stop  offset="0.3364" style="stop-color:#D24427"/>
	<stop  offset="0.4077" style="stop-color:#CD5237"/>
	<stop  offset="0.5142" style="stop-color:#C56250"/>
	<stop  offset="0.5966" style="stop-color:#C16A5F"/>
	<stop  offset="0.6445" style="stop-color:#BF6D65"/>
	<stop  offset="0.9815" style="stop-color:#460012"/>
</linearGradient>
<path opacity="0.05" fill="url(#SVGID_51_)" d="M646.818,135.403c0.612-0.185,0.093,1.924,0,2.556
	c-0.084,0.572-0.281,1.782-0.664,2.215c-0.321,0.362-1.381,0.491-1.772,0.775c-0.27,0.196-0.574,1.115-0.886,0.997
	c-0.519-0.197-0.085-1.671,0-2.219c0.084-0.544,0.358-1.642,0.664-2.1C644.642,136.907,645.821,135.704,646.818,135.403z"/>
<linearGradient id="SVGID_52_" gradientUnits="userSpaceOnUse" x1="9778.4492" y1="153.2987" x2="9784.9102" y2="153.2987" gradientTransform="matrix(-1 0 0 1 10436.8711 0)">
	<stop  offset="0.016" style="stop-color:#932C12"/>
	<stop  offset="0.3364" style="stop-color:#D24427"/>
	<stop  offset="0.4077" style="stop-color:#CD5237"/>
	<stop  offset="0.5142" style="stop-color:#C56250"/>
	<stop  offset="0.5966" style="stop-color:#C16A5F"/>
	<stop  offset="0.6445" style="stop-color:#BF6D65"/>
	<stop  offset="0.9815" style="stop-color:#460012"/>
</linearGradient>
<path opacity="0.05" fill="url(#SVGID_52_)" d="M658.122,151.311c0.489,0.489,0.303,2.146,0,2.768
	c-0.215,0.443-1.166,0.91-1.55,1.218c-0.307,0.246-2.199,0.168-2.354-0.194c-0.298-0.695,0.657-1.037,0.028-1.301
	c-0.327-0.137-1.774,0.532-2.107,0.408c-0.383-0.144-0.037-0.942,0.003-1.349c0.048-0.499,0.787-1.423,1.271-1.55
	c0.445-0.117,1.407,0.267,1.868,0.27c0.371,0.002,0.818-0.184,1.18-0.27C656.865,151.216,657.828,151.018,658.122,151.311z"/>
<linearGradient id="SVGID_53_" gradientUnits="userSpaceOnUse" x1="9824.7842" y1="196.3053" x2="9842.749" y2="196.3053" gradientTransform="matrix(-1 0 0 1 10436.8711 0)">
	<stop  offset="0.016" style="stop-color:#932C12"/>
	<stop  offset="0.3364" style="stop-color:#D24427"/>
	<stop  offset="0.4077" style="stop-color:#CD5237"/>
	<stop  offset="0.5142" style="stop-color:#C56250"/>
	<stop  offset="0.5966" style="stop-color:#C16A5F"/>
	<stop  offset="0.6445" style="stop-color:#BF6D65"/>
	<stop  offset="0.9815" style="stop-color:#460012"/>
</linearGradient>
<path opacity="0.05" fill="url(#SVGID_53_)" d="M611.885,189.413c0.529,0.166-0.14,2.027-0.224,2.575
	c-0.186,1.199-1.085,2.489-2.02,3.261c-2.648,2.186-9.034,4.958-12.12,6.464c-0.795,0.388-2.491,1.918-3.232,1.436
	c-0.282-0.183-0.154-1.047,0-1.347c0.48-0.93,2.533-1.856,3.411-2.424c1.639-1.06,5.211-2.729,6.733-3.95
	c0.805-0.646,2.08-2.302,2.873-2.963C608.364,191.585,610.573,189,611.885,189.413z"/>
<linearGradient id="SVGID_54_" gradientUnits="userSpaceOnUse" x1="9806.3984" y1="193.7067" x2="9811.3721" y2="193.7067" gradientTransform="matrix(-1 0 0 1 10436.8711 0)">
	<stop  offset="0.016" style="stop-color:#932C12"/>
	<stop  offset="0.3364" style="stop-color:#D24427"/>
	<stop  offset="0.4077" style="stop-color:#CD5237"/>
	<stop  offset="0.5142" style="stop-color:#C56250"/>
	<stop  offset="0.5966" style="stop-color:#C16A5F"/>
	<stop  offset="0.6445" style="stop-color:#BF6D65"/>
	<stop  offset="0.9815" style="stop-color:#460012"/>
</linearGradient>
<path opacity="0.05" fill="url(#SVGID_54_)" d="M627.326,189.403c0.395-0.239,0.82,0.838,1.277,0.903
	c0.356,0.051,0.788-0.182,1.095,0.007c0.315,0.194,0.579,0.963,0.664,1.324c0.086,0.361,0.2,1.171,0,1.484
	c-0.214,0.334-1.053,0.578-1.44,0.662c-0.27,0.059-0.711,0.281-0.936,0.442c-0.442,0.317-0.585,1.137-0.725,1.662
	c-0.082,0.306-0.081,1.03-0.332,1.222c-0.22,0.168-1.186,1.105-1.381,0.909c-0.197-0.197,0.274-1.743,0.274-2.021
	c0-0.719-0.071-2.161,0-2.877C625.906,192.277,626.601,189.843,627.326,189.403z"/>
<linearGradient id="SVGID_55_" gradientUnits="userSpaceOnUse" x1="2716.7764" y1="3774.1072" x2="2742.0706" y2="3774.1072" gradientTransform="matrix(-0.4399 0.8981 -0.8981 -0.4399 5247.3726 -597.1782)">
	<stop  offset="0.016" style="stop-color:#932C12"/>
	<stop  offset="0.3364" style="stop-color:#D24427"/>
	<stop  offset="0.4077" style="stop-color:#CD5237"/>
	<stop  offset="0.5142" style="stop-color:#C56250"/>
	<stop  offset="0.5966" style="stop-color:#C16A5F"/>
	<stop  offset="0.6445" style="stop-color:#BF6D65"/>
	<stop  offset="0.9815" style="stop-color:#460012"/>
</linearGradient>
<path opacity="0.03" fill="url(#SVGID_55_)" d="M665.126,192.949c-0.851,0.325-2.54,1.613-2.63,2.519
	c-0.052,0.526,0.755,1.466,1.21,1.735c0.312,0.184,1.265-0.167,1.44,0.149c0.181,0.326-0.337,1.145-0.656,1.339
	c-0.976,0.595-3.477,0.236-4.573-0.092c-0.987-0.296-2.607-1.658-3.486-2.195c-1.262-0.772-3.613-2.918-5.089-3.021
	c-0.564-0.039-1.927,0.331-2.087,0.873c-0.193,0.652,1.478,1.568,1.536,2.246c0.073,0.86-1.175,2.317-1.44,3.139
	c-0.258,0.803,0.047,2.828-0.645,3.31c-0.507,0.353-1.98,0.014-2.441-0.397c-0.417-0.372-0.392-1.635-0.606-2.152
	c-0.245-0.591-0.702-1.903-1.25-2.233c-0.476-0.286-1.669,0.02-2.22-0.052c-0.401-0.052-1.572-0.379-1.572-0.379l6.846-13.439
	c0,0,1.404,1.912,2.13,2.02c0.872,0.129,2.344-1.227,3.151-1.581c0.88-0.386,2.656-1.162,3.596-1.363
	c1.133-0.242,3.474-0.408,4.625-0.273c2.008,0.235,5.944,1.408,7.744,2.328c0.996,0.509,2.824,1.87,3.554,2.717
	c0.523,0.608,1.961,2.12,1.55,2.809c-0.286,0.48-1.707,0.162-2.235-0.021c-1.04-0.359-2.466-2.279-3.488-2.685
	c-1.756-0.697-5.701-1.268-7.519-0.754c-0.707,0.2-2.119,1.082-2.338,1.784c-0.109,0.349,0.144,1.194,0.451,1.393
	c0.445,0.287,1.603-0.401,2.107-0.237c0.369,0.12,0.779,0.922,1.146,1.049c0.616,0.214,1.969-0.349,2.602-0.19
	c0.783,0.196,2.965,0.955,2.728,1.726C667.11,193.534,665.627,192.758,665.126,192.949z"/>
<linearGradient id="SVGID_56_" gradientUnits="userSpaceOnUse" x1="9736.7705" y1="153.2987" x2="9741.7441" y2="153.2987" gradientTransform="matrix(-1 0 0 1 10436.8711 0)">
	<stop  offset="0.016" style="stop-color:#932C12"/>
	<stop  offset="0.3364" style="stop-color:#D24427"/>
	<stop  offset="0.4077" style="stop-color:#CD5237"/>
	<stop  offset="0.5142" style="stop-color:#C56250"/>
	<stop  offset="0.5966" style="stop-color:#C16A5F"/>
	<stop  offset="0.6445" style="stop-color:#BF6D65"/>
	<stop  offset="0.9815" style="stop-color:#460012"/>
</linearGradient>
<path opacity="0.05" fill="url(#SVGID_56_)" d="M696.954,148.995c0.395-0.239,0.82,0.838,1.277,0.903
	c0.356,0.051,0.788-0.182,1.095,0.006c0.315,0.194,0.579,0.963,0.664,1.324c0.086,0.361,0.2,1.171,0,1.484
	c-0.214,0.334-1.053,0.578-1.44,0.662c-0.27,0.059-0.711,0.281-0.936,0.442c-0.442,0.317-0.584,1.137-0.725,1.662
	c-0.082,0.306-0.081,1.03-0.332,1.222c-0.22,0.168-1.186,1.105-1.381,0.909c-0.197-0.197,0.274-1.743,0.274-2.021
	c0-0.719-0.071-2.161,0-2.877C695.533,151.869,696.229,149.434,696.954,148.995z"/>
<linearGradient id="SVGID_57_" gradientUnits="userSpaceOnUse" x1="9734.0459" y1="202.1123" x2="9739.0195" y2="202.1123" gradientTransform="matrix(-1 0 0 1 10436.8711 0)">
	<stop  offset="0.016" style="stop-color:#932C12"/>
	<stop  offset="0.3364" style="stop-color:#D24427"/>
	<stop  offset="0.4077" style="stop-color:#CD5237"/>
	<stop  offset="0.5142" style="stop-color:#C56250"/>
	<stop  offset="0.5966" style="stop-color:#C16A5F"/>
	<stop  offset="0.6445" style="stop-color:#BF6D65"/>
	<stop  offset="0.9815" style="stop-color:#460012"/>
</linearGradient>
<path opacity="0.05" fill="url(#SVGID_57_)" d="M699.678,197.809c0.395-0.239,0.82,0.838,1.277,0.903
	c0.356,0.051,0.788-0.182,1.095,0.006c0.315,0.194,0.579,0.963,0.664,1.324c0.086,0.361,0.2,1.171,0,1.484
	c-0.214,0.334-1.053,0.578-1.44,0.662c-0.27,0.059-0.711,0.281-0.936,0.442c-0.442,0.317-0.584,1.137-0.725,1.662
	c-0.082,0.306-0.081,1.03-0.332,1.222c-0.22,0.168-1.186,1.105-1.381,0.909c-0.197-0.197,0.274-1.743,0.274-2.021
	c0-0.719-0.071-2.161,0-2.877C698.258,200.682,698.953,198.248,699.678,197.809z"/>
<linearGradient id="SVGID_58_" gradientUnits="userSpaceOnUse" x1="9707.3877" y1="207.6402" x2="9711.2539" y2="207.6402" gradientTransform="matrix(-1 0 0 1 10436.8711 0)">
	<stop  offset="0.016" style="stop-color:#932C12"/>
	<stop  offset="0.3364" style="stop-color:#D24427"/>
	<stop  offset="0.4077" style="stop-color:#CD5237"/>
	<stop  offset="0.5142" style="stop-color:#C56250"/>
	<stop  offset="0.5966" style="stop-color:#C16A5F"/>
	<stop  offset="0.6445" style="stop-color:#BF6D65"/>
	<stop  offset="0.9815" style="stop-color:#460012"/>
</linearGradient>
<path opacity="0.05" fill="url(#SVGID_58_)" d="M729.19,204.369c0.612-0.185,0.093,1.924,0,2.556
	c-0.084,0.572-0.281,1.782-0.664,2.215c-0.321,0.362-1.381,0.491-1.772,0.775c-0.27,0.196-0.574,1.115-0.886,0.997
	c-0.519-0.197-0.085-1.671,0-2.219c0.084-0.544,0.358-1.642,0.664-2.1C727.015,205.873,728.194,204.67,729.19,204.369z"/>
</svg>
