<?xml version="1.0" encoding="utf-8"?>
<!-- Generator: Adobe Illustrator 17.0.0, SVG Export Plug-In . SVG Version: 6.00 Build 0)  -->
<!DOCTYPE svg PUBLIC "-//W3C//DTD SVG 1.1//EN" "http://www.w3.org/Graphics/SVG/1.1/DTD/svg11.dtd">
<svg version="1.1" id="Layer_1" xmlns="http://www.w3.org/2000/svg" xmlns:xlink="http://www.w3.org/1999/xlink" x="0px" y="0px"
	 width="1280px" height="1522px" viewBox="0 0 1280 1522" enable-background="new 0 0 1280 1522" xml:space="preserve">
<g id="Layer_2">
</g>
<linearGradient id="SVGID_1_" gradientUnits="userSpaceOnUse" x1="-189" y1="1956.9016" x2="-189" y2="487.5" gradientTransform="matrix(1 0 0 -1 829 2009.5)">
	<stop  offset="0" style="stop-color:#CF8346"/>
	<stop  offset="0.6803" style="stop-color:#976530"/>
	<stop  offset="1" style="stop-color:#CA8044"/>
</linearGradient>
<path fill="url(#SVGID_1_)" d="M0,95.6c0,0,134.8-13,187.4-17c59.4-4.5,181.7,5.1,237.9-14.1c11.1-3.8,28-10.5,39.8-11.7
	c15-1.4,39.2,4.8,53.6,9c35.4,10.4,84.797,20.09,120.61,29.857c61.647,16.813,72.099,25.222,130.499,29.622
	c20.3,1.5,60.299,10.321,80.5,12.3c61.457,6.02,364.199-42.514,395.196-40.273C1261.807,94.486,1280,98.4,1280,98.4V1522H0V95.6z"/>
<linearGradient id="SVGID_2_" gradientUnits="userSpaceOnUse" x1="-189.4501" y1="1956.9016" x2="-189.4501" y2="487.5" gradientTransform="matrix(1 0 0 -1 829 2009.5)">
	<stop  offset="0" style="stop-color:#EF9651"/>
	<stop  offset="0.1112" style="stop-color:#F1A354"/>
	<stop  offset="0.1356" style="stop-color:#EA9E51"/>
	<stop  offset="0.2796" style="stop-color:#C68242"/>
	<stop  offset="0.4145" style="stop-color:#AC6E38"/>
	<stop  offset="0.5356" style="stop-color:#9C6231"/>
	<stop  offset="0.6309" style="stop-color:#975E2F"/>
</linearGradient>
<path fill="url(#SVGID_2_)" d="M-1,1522V95.5c0,0,135.6-13,188.2-16.9c59.4-4.5,181.7,5.1,237.9-14.1c11.1-3.8,28-10.5,39.8-11.7
	c15-1.4,39.2,4.8,53.6,9C554,72.2,744.8,166.3,781.8,169.3l498.3,61.2V1522H-1z"/>
<g opacity="0.4">
	<path fill="#00211E" d="M420.5,135.7c-9.3-2.2-17.1-4.2-26.3-5.8c-6-1.1-10.8-1.3-16.6,1.1c-3.2,1.6-5.8,2.6-9.5,2.9
		c-2.6,0.3-7.4-0.8-9.5,0.5c3.9,0.8,7.4,1.4,11.4,2c5.5,0.3,7.4,3.4,13,3.7c4.5,0.3,11.5,1.9,16,2.2c4.2,0.3,10.8,0.9,15.1,0.6
		c4-0.3,10.4,0.8,14.4,1c16.6,0.8,34.3-4.4,51.1-4.7c7.1,0,14.5,0,21.5,0c13.1,0,26.3,3.9,39.2,2.4c6-0.8,14.2-0.8,20-2.6
		c-5.8-2.4-14.7-1.1-20.8-1.8c-7.9-0.8-15.5-0.8-23.4-1.6c-9.2-1.1-18.4-2.1-27.6-2.6c-3.7-0.3-7.9,0.8-11-0.5
		c-4.5-1.3-4.5-3.7-9.7-1.8c-9.5,3.4-20.7,8.4-31.3,6.8C432.6,136.6,424.4,136.6,420.5,135.7z"/>
</g>
<g opacity="0.4">
	<path fill="#00211E" d="M288.8,94.4c8.1,2.1,18.2,2.8,26.3,3.6c8.7,0.8,17.7-1,26.2-3.4c14.5-3.7,27.2-8.9,42.1-9.9
		c14.2-0.8,28.4-0.3,42.6-0.3c12.4,0,11.9-0.1,15.9-1.4c0.9-0.3,10.3-1.7,8.2-2.7c-1.7-0.9-20.1,0.2-36.2,0.2
		c-7.6,0-14.7,0.3-22.1,0.5c-8.4,0.5-16.8-0.8-25.2,0.3c-13.9,1.8-25.8,9.7-40.2,9.7c-11.6,0-22.1,1.3-33.6,2.4
		c-1.6,0-2.9,0-4.5,0.3L288.8,94.4z"/>
</g>
<path fill="#153F69" d="M378.1,44.5c0,0-0.9,0.2-1.1,0.4c-1.4,1.1-4.1,5.8-4.1,5.8l-1,1.8c0,0,0.8,0.8,1.1,0.4
	c0.3-0.3,0.8-0.5,0.8-0.5l0.9,0.6l1.4,1.3l0.6-1l0.9-3.2l0.4-4v-1.6H378.1z"/>
<path fill="#0E634E" d="M375,56.4c0,0-0.9-0.6-1.2-0.6c-0.5,0.1-1.5,1.3-1.5,1.3l-3.6,4.2l1.1,0.5c0,0,1.5,0.6,1.9,0.4
	c0.5-0.2,1.2-1.7,1.2-1.7L375,56.4z"/>
<path fill="#153F69" d="M373.3,64.3c0,0-1.1,0.5-1.4,0.6c-1.8,1.1-3.7,7.1-3.7,7.1l1,0.3l0.7-1l0.9,1l1.1-0.4l1.1-4.5l0.4-2.1v-1
	H373.3z"/>
<linearGradient id="SVGID_3_" gradientUnits="userSpaceOnUse" x1="-495.3916" y1="1941.2446" x2="-483.3742" y2="1941.2446" gradientTransform="matrix(1 0 0 -1 829 2009.5)">
	<stop  offset="0.0039" style="stop-color:#A45333"/>
	<stop  offset="0.3128" style="stop-color:#AB6633"/>
	<stop  offset="0.718" style="stop-color:#B27934"/>
	<stop  offset="1" style="stop-color:#B58034"/>
</linearGradient>
<path fill="url(#SVGID_3_)" d="M345.5,42.4c0,0.9,0.2,2.7,0,3.6c-0.4,1.4-2.2,3.6-2.8,4.9c-0.7,1.8-1.5,5.6-2,7.5
	c-0.2,0.7-0.7,2-0.8,2.7c-0.2,1.2,0.2,3.6,0,4.8c-0.1,0.3-0.5,0.9-0.5,1.3c0,0.3,0.4,0.7,0.4,0.9c0,0.5-0.3,1.3-0.4,1.8
	c-0.2,0.6-0.8,1.6-0.9,2.2c-0.2,0.6-0.2,1.8-0.2,2.5c-0.1,2.6-0.4,7.9,0.2,10.5c0.1,0.6,0.9,1.5,1,2.1c0.2,0.7-0.3,2.3,0,3
	c0.3,0.6,1.7,1.4,2.4,1.6c0.4,0.1,1.2-0.2,1.5,0c0.2,0.2,0.3,0.8,0.2,1.1c-0.1,0.3-0.5,0.8-0.8,1c-0.7,0.4-2.4,0.5-3.2,0.6
	c-0.6,0.1-1.8,0.4-2.5,0.4c-0.7-0.1-2.3-0.3-2.7-0.9c-0.2-0.2-0.2-0.9,0-1.2c0.1-0.2,0.7-0.2,0.9-0.4c0.3-0.5,0.1-1.7,0-2.2
	s-0.9-1.3-1.1-1.8c-1-3.8,0.6-11.8,0.2-15.7c-0.1-0.8-0.6-2.4-0.7-3.2c-0.3-3.2-0.2-9.8,0.3-13c0.1-0.7,0.7-2,0.9-2.7
	c0.3-1.4-0.1-4.3,0.4-5.6c0.4-1,1.8-2.5,2.5-3.2c0.3-0.3,0.8-0.9,1.2-1c0.6-0.2,2,0.3,2.6,0c0.7-0.3,1.5-1.9,2.2-2.2
	c0.4-0.2,1.5-0.3,1.8,0C345.6,41.9,345.5,42.2,345.5,42.4z"/>
<path opacity="0.4" fill="#604148" enable-background="new    " d="M340.2,44.1c0.8,0.1-0.7,7.3-0.6,8.1c0.2,1.4-1.4,3.9-1.9,5.2
	c-0.2,0.5-1,1.6-0.7,2c0.4,0.5,2.3-0.6,2.6,0c0.7,1.1-1.8,3.4-2.2,4.6c-0.3,0.9-0.9,2.7-0.9,3.6c0,0.6,0.4,1.8,0.3,2.4
	c-0.1,0.4-1.2,3-1.3,2.5c-0.5-1.5-0.8-4.7-0.8-5.8c0-1.9,0.1-5.3,0.2-7.2c0-0.9,0.3-2.9,0.5-3.8c0.2-0.7,0.5-1.8,0.6-2.5
	c0.1-0.8-0.1-3.6,0.4-5C336.9,47.3,340.1,44.1,340.2,44.1z"/>
<linearGradient id="SVGID_4_" gradientUnits="userSpaceOnUse" x1="-446.7296" y1="1908.5396" x2="-431.5702" y2="1908.5396" gradientTransform="matrix(1 0 0 -1 829 2009.5)">
	<stop  offset="0.0039" style="stop-color:#A45333"/>
	<stop  offset="0.3128" style="stop-color:#AB6633"/>
	<stop  offset="0.718" style="stop-color:#B27934"/>
	<stop  offset="1" style="stop-color:#B58034"/>
</linearGradient>
<path fill="url(#SVGID_4_)" d="M385.1,73.2c-0.4,2.1-0.3,5.3-0.3,7.1c0.1,1.5,1,4.4,0.9,5.9c-0.1,2.7-1.4,7.9-2.3,10.5
	c-0.2,0.6-0.8,1.6-1,2.1c-0.1,0.3-0.3,1-0.2,1.4c0.2,2,2.5,5.5,3,7.4c1.2,3.8,3.2,11.5,3.2,15.5c0,1-1.3,3-0.7,3.8
	c0.3,0.4,1.6,0,2,0.4c0.3,0.2,0.3,1,0.5,1.2c0.5,0.3,1.6-0.1,2.2-0.1c1.2-0.1,4.3,0.9,4.8-0.2c0.3-0.5-1-1.5-1.4-1.9
	c-0.5-0.5-1.8-1-2.1-1.5c-0.3-0.4-0.3-1.4-0.5-1.8c-0.4-1-1.8-2.7-2.2-3.7c-0.5-1.1-1.2-3.4-1.3-4.6c-0.5-3.3,0.2-10.1-0.6-13.3
	c-0.1-0.6-0.8-1.5-0.9-2.1c-0.1-1,0.4-2.9,0.7-3.8c0.3-0.6,1.3-1.5,1.5-2.1c1.6-3.9,1.8-14.7,3.2-16.1L385.1,73.2z"/>
<linearGradient id="SVGID_5_" gradientUnits="userSpaceOnUse" x1="-539.2641" y1="1960.9824" x2="-446.985" y2="1960.9824" gradientTransform="matrix(1 0 0 -1 829 2009.5)">
	<stop  offset="0.0039" style="stop-color:#A45333"/>
	<stop  offset="0.3128" style="stop-color:#AB6633"/>
	<stop  offset="0.718" style="stop-color:#B27934"/>
	<stop  offset="1" style="stop-color:#B58034"/>
</linearGradient>
<path fill="url(#SVGID_5_)" d="M361.2,7.4c0-0.5-0.8-1.2-0.9-1.6c-0.1-0.4,0.1-1.2,0-1.6s-1.1-0.9-0.9-1.2c0.4-0.9,2.9-0.1,3.8-0.4
	c1.2-0.3,3.3-2.1,4.5-2.1c1.3,0.1,3.3,2.1,4.5,2.7c0.5,0.2,1.6,0.4,2.1,0.7c0.3,0.2,0.6,1.1,1,1.3c0.7,0.5,2.7,0.3,3.5,0.7
	c0.8,0.5,2.2,1.8,2.6,2.7c0.1,0.3,0.1,1,0,1.3c-0.1,0.1-0.4,0.2-0.4,0.4c0,0.4,0.9,0.9,1,1.3c0.1,0.3,0.2,0.9,0,1.1
	c-0.3,0.3-1.4-0.3-1.7,0c-0.2,0.2,0.4,0.8,0.3,1c-0.3,0.5-1.9,0.4-2.5,0.4c-0.4,0-1.1-0.5-1.5-0.3c-0.2,0.1-0.2,0.6-0.4,0.6
	c-0.3,0.2-1.2-0.2-1.5,0c-1.2,0.6-2.6,3-3.2,4.2c-1.1,2.3-1.8,7.5-2.5,9.9c-0.3,1-0.7,3.1-1.2,4c-0.3,0.6-1.4,1.4-1.8,1.9
	c-0.1,0.3-0.2,0.9-0.3,1.2c-0.4,0.7-1.6,1.7-2.1,2.4c-0.2,0.3-0.5,0.9-0.8,1.1c-0.3,0.3-1.2,0.4-1.6,0.6c-1.2,0.6-3.2,2.7-4.5,3
	c-2.4,0.7-7.5-0.6-9.9-0.7c-0.4,0-1.3-0.2-1.6,0c-0.7,0.3-1.5,1.9-2.2,2.2c-0.6,0.3-2-0.2-2.6,0c-0.4,0.1-0.9,0.7-1.2,1
	c-0.7,0.7-2.1,2.3-2.5,3.2c-0.5,1.3-0.1,4.2-0.4,5.6c-0.1,0.7-0.7,2-0.9,2.7c-0.4,2.4-0.3,7.4-0.3,9.9c0,0.8,0.1,2.3,0,3.1
	c-0.1,0.4-0.4,1.1-0.5,1.5c-0.1,0.5-0.2,1.7-0.4,2.2c-0.2,0.5-1,1.3-1.2,1.8c-0.5,1.3-0.6,4.1-0.7,5.5c-0.1,1.6-0.5,5-0.2,6.6
	c0.1,0.7,1,1.9,0.9,2.6c0,0.4-0.7,1-0.6,1.3c0.1,1,2.1,2.2,2.6,3.1c0.2,0.3,0.6,0.9,0.4,1.1c-0.3,0.6-1.8,0.4-2.4,0.6
	c-0.3,0.1-1,0.3-1.3,0.3c-1.4,0.2-4.7,0.8-5.7-0.3c-0.3-0.3-0.1-1.2,0-1.6c0.1-0.5,0.9-1.2,1.1-1.6s0.2-1.4,0.2-1.9
	c-0.1-0.5-0.8-1.3-0.8-1.8s0.7-1.3,0.8-1.8c0.2-0.6,0.2-2,0.3-2.6c0.3-2.4,1.3-7.1,1.4-9.6c0-0.5,0-1.6-0.1-2.2
	c-0.1-1-0.6-2.9-0.7-3.9c-0.1-1.4,0.5-4.2,0.5-5.5c0.1-2.4-0.3-7.3-0.3-9.7c0-1.6,1-5.2-0.1-6.5c-0.5-0.6-2.5-0.2-3.3-0.5
	c-0.6-0.2-1.4-1.2-2-1.4c-1.9-0.6-6.1,0.1-8-0.5c-1.8-0.5-5.3-2.1-6.7-3.3c-1.7-1.4-4.3-5.1-5.5-7c-0.9-1.5-1.9-4.4-2.8-6.3
	c-0.8-1.6,1.5,5.3,2.4,6.9c1.1,1.9,3.7,5.2,5.6,6.9c0.7,0.7-5.2,6.6-6.6,9c-0.5,0.9-1.3,2.7-1.6,3.7c-0.4,1.6-0.6,5-0.8,6.7
	c-0.1,1.3-0.3,4-0.2,5.3c0,0.5,0.3,1.4,0.3,1.8c0.1,1.8-0.5,5.4-0.3,7.2c0.1,1.2,0.9,3.5,1.2,4.7c0.4,1.5,1.2,4.5,1.9,5.8
	c0.2,0.4,0.9,1,1,1.4c0.4,0.8,0.3,2.7,0.9,3.4c0.6,0.8,2.7,1.2,3.4,1.9c0.2,0.2,0.4,0.8,0.5,1.1c0.1,0.3,0.2,0.9,0,1.1
	c-1.5,1.5-7,1.5-8.4-0.1c-0.2-0.2,0-0.9,0.1-1.2c0.1-0.2,0.3-0.6,0.3-0.8c0-0.4-0.1-1.1-0.3-1.4c-0.2-0.5-1.1-1.3-1.3-1.8
	c-0.3-1.1,0.2-3.4,0-4.5c-0.5-3.3-3-9.7-4.3-12.9c-0.6-1.4-2.4-4.1-2.8-5.6c-0.1-0.3-0.1-0.9,0-1.2c0.2-0.4,1-1,1.2-1.4
	c0.7-1.9,0.4-6.1,0.3-8.1c-0.1-1.8-0.6-5.5-0.8-7.3c-0.3-2.9-0.3-8.8-0.7-11.7c-0.2-1.7-1.6-5-1.5-6.7s1.7-4.8,2.4-6.3
	c1.3-2.7,4-8,5.9-10.2c1.1-1.3,4.1-2.9,5.2-4.1c0.6-0.8,1.2-2.7,1.9-3.5c1.2-1.4,4.1-3.9,5.8-4.4c0.6-0.2,2,0.3,2.6,0.1
	c0.9-0.2,2.3-1.4,3.2-1.5c3.2-0.5,10.5-0.2,13,2c0.4,0.4,0.3,1.8,0.7,2.3c1.3,1.6,5.3,3.2,7.1,4.3c2.2,1.3,7.4,3,8.7,5.2
	c1,1.7,0,6.2,1,8c0.7,1.4,3.3,3.7,4.7,4.3c0.7,0.3,2.3,0.4,3,0.2c0.5-0.1,1.4-0.8,1.7-1.2c1.2-1.6,2.3-5.5,2.6-7.5
	c0.3-1.6-0.3-4.9,0.1-6.5C359.6,10.8,361.3,8.6,361.2,7.4z"/>
<linearGradient id="SVGID_6_" gradientUnits="userSpaceOnUse" x1="-542.6327" y1="1936.33" x2="-530.5584" y2="1936.33" gradientTransform="matrix(1 0 0 -1 829 2009.5)">
	<stop  offset="0.0039" style="stop-color:#A45333"/>
	<stop  offset="0.3128" style="stop-color:#AB6633"/>
	<stop  offset="0.718" style="stop-color:#B27934"/>
	<stop  offset="1" style="stop-color:#B58034"/>
</linearGradient>
<path fill="url(#SVGID_6_)" d="M290.9,54.2c-1.4,1.9-2.5,6.6-3.7,8.6c-0.2,0.3-0.7,0.7-0.8,1c-0.1,0.3-0.1,0.9,0,1.2
	c0.3,1.3,1.8,3.7,2.3,5c0.9,3,1.8,9.1,2.3,12.2c0.2,1.5,0.6,4.5,0.7,6c0,0.2-0.1,0.5,0,0.6c0.2,0.6,1.2,1.3,1.4,1.9
	c0.1,0.2,0.1,0.8,0,1s-0.4,0.5-0.5,0.7c-0.1,0.3-0.2,1.2,0.1,1.4c0.1,0.1,0.5,0,0.7,0c0.7,0,2-0.2,2.6-0.2c0.5,0,1.7,0.4,2.1,0.1
	c0.2-0.1,0.3-0.7,0.4-1c0-0.4-0.1-1.1-0.3-1.4c-0.4-0.5-1.9-0.6-2.2-1.1c-0.2-0.4,0.3-1.5,0.2-2c-0.1-1.2-1.4-3.2-1.6-4.4
	c-0.4-1.8-0.2-5.6-0.5-7.4c-0.2-1.1-1-3.2-1.4-4.2c-0.6-1.4-2.5-4.1-2.8-5.6c-0.1-0.3-0.1-0.9,0.1-1.2c0.2-0.4,2.8-2.6,3-3
	c0.7-1.9,0-4.2-0.1-6.2c0-0.5-0.3-3.3-0.4-3.7C292.4,52.4,291,54.1,290.9,54.2z"/>
<linearGradient id="SVGID_7_" gradientUnits="userSpaceOnUse" x1="-439.1681" y1="1937.54" x2="-372.4748" y2="1937.54" gradientTransform="matrix(1 0 0 -1 829 2009.5)">
	<stop  offset="0.0039" style="stop-color:#A45333"/>
	<stop  offset="0.3128" style="stop-color:#AB6633"/>
	<stop  offset="0.718" style="stop-color:#B27934"/>
	<stop  offset="1" style="stop-color:#B58034"/>
</linearGradient>
<path fill="url(#SVGID_7_)" d="M429.8,3.3c0.2-0.2,0.7-0.3,0.8-0.1c0.5,0.8,1.4,1.7,1.9,2.2c0.1,0.1,0.4,0.4,0.5,0.4
	c0.6-0.1,0.8-1.6,1.3-1.9c0.3-0.2,1.2,0.2,1.6,0c0.4-0.2,0.3-1.4,0.7-1.6c0.8-0.5,2.8,0.2,3.7,0.2c0.9,0,2.7-0.4,3.6-0.2
	c0.5,0.1,1.4,0.7,1.9,0.8s1.5-0.1,2,0c1.2,0.2,3.7,0.7,4.7,1.4c0.7,0.5,1.7,2.1,2.1,2.8c0.2,0.4,0.6,1.3,0.7,1.7
	c0,0.2-0.1,0.6,0,0.8c0.1,0.4,0.7,1,0.8,1.3c0.2,0.5,0.3,1.7,0.3,2.2c0,0.3,0.2,0.8,0,1s-0.8-0.2-1,0c-0.3,0.3,0.2,1.3-0.1,1.6
	c-0.3,0.3-1.2,0.2-1.6,0.3s-1,0.4-1.4,0.4c-0.5,0-1.5-0.6-2-0.4c-0.3,0.1-0.7,0.7-0.9,0.9c-0.8,0.7-2.8,1.5-3.6,2.2
	c-1,0.8-2.8,2.7-3.2,3.9c-0.2,0.6,0,1.9-0.2,2.5s-1.3,1.5-1.6,2.2c-1.8,4.1-2.5,13.1-3.5,17.4c-0.6,2.6-1.5,7.9-2.5,10.3
	c-0.7,1.6-2.5,4.7-3.6,6c-1.4,1.7-5.5,3.9-6.5,5.8c-0.5,1-0.4,3.4-0.6,4.5c-0.2,0.8-1,2.5-0.9,3.3c0.1,0.5,0.8,1.3,0.9,1.8
	c0.3,1.3,0.1,4-0.1,5.3c-0.5,2.8-2.8,8-3.5,10.8c-0.5,2-1.7,6.1-1.7,8.2c0,0.8,0.7,2.4,0.8,3.3c0.2,1.4,0.4,4.2,0.2,5.6
	c-0.1,1.2-0.9,3.5-1.1,4.7c-0.1,0.7-0.4,2-0.4,2.7c0,1.8,0.6,5.3,1,7c0.4,1.8,2.1,5,2.4,6.8c0.1,0.8-0.4,2.4-0.2,3.1
	c0.4,1.5,2.4,4.1,3.4,5.3c0.2,0.2,0.8,0.5,0.8,0.8c-0.1,0.6-1.3,1.2-1.9,1.2c-0.8,0-1.9-1.4-2.7-1.7c-0.6-0.3-2.2,0-2.7-0.5
	c-0.2-0.2-0.3-0.9-0.6-1.1c-0.3-0.2,0.6,1.3,0.3,1.6c-0.3,0.3-1.2,0.1-1.6,0.1c-0.8,0-2.5,0.1-3-0.5c-0.2-0.2-0.1-0.9,0-1.1
	c0.3-0.5,1.5-0.7,1.8-1.2c0.3-0.4,0.4-1.5,0.4-2c0-0.7-0.8-1.9-0.9-2.6c-0.1-1.4,0.9-4.1,0.9-5.5c0.1-2.5-0.7-7.5-0.9-10.1
	c0-0.5,0-1.6-0.1-2.1c-0.3-1.4-2.1-3.8-2.4-5.1c-0.1-0.7-0.2-2,0-2.7c0.2-1.1,1.6-2.9,1.9-4c0.3-1,0.4-3,0.4-4
	c0.1-2.6-0.3-7.9-0.1-10.5c0.1-1.2,0.9-3.5,0.7-4.7c0-0.3-0.4-0.8-0.5-1.1c-0.1-0.5,0.2-1.4,0.2-1.8c0-0.8-0.1-2.6-0.6-3.2
	c-0.4-0.4-1.5-0.6-2.1-0.6c-1,0-2.9,0.4-3.7,0.9c-1.4,0.7-4,2.8-4.9,4.2c-0.6,1-0.9,3.2-1,4.3c-0.4,3.3-0.4,10.1,0,13.4
	c0.2,1.4,1.4,4,1.5,5.5c0.1,0.7,0,2-0.2,2.7c-0.4,1.6-2.6,4.3-3,5.9c-0.7,2.4-1,7.5-1,10.1c0,1.5,0.8,4.4,0.7,5.9
	c0,1-0.9,2.8-0.7,3.8c0.2,0.9,1.6,2.2,1.8,3.1c0.1,0.5,0.2,1.5-0.2,1.9c-0.5,0.5-2.4-0.2-3,0.2c-0.3,0.2-0.5,1.1-0.8,1.1
	c-0.5,0.1-1.2-0.8-1.7-1c-0.3-0.1-1-0.2-1.3-0.2c-0.6-0.1-1.8-0.1-2.4-0.1c-0.5,0.1-1.6,0.8-2.1,0.5c-0.4-0.2-0.5-1.2-0.5-1.7
	c0-0.3,0-1,0.2-1.3c0.3-0.4,1.4-0.6,1.8-0.9c0.6-0.4,1.7-1.5,1.9-2.1c0.2-0.5-0.1-1.6-0.2-2.1c0-0.4-0.1-1.1,0.1-1.5
	c0.2-0.5,1.2-1.3,1.5-1.8c0.6-1.2,1.1-3.9,1.3-5.3c0.3-1.9,0.7-5.8,0.6-7.8c-0.1-1.7-0.9-4.9-1-6.6c-0.1-1.1,0-3.3,0.2-4.3
	c0.2-0.9,1-2.7,1.1-3.7c0.1-1.1-0.2-3.5-0.3-4.6c-0.4-3.2-2-9.4-2.4-12.6c-0.2-2-0.3-6.1-0.4-8.2c-0.2-3-1.2-8.9-1-11.8
	c0.3-2.7,1.9-8.1,2.9-10.6c0.7-1.7,2-5.6,3.6-6.4c1.3-0.6,4.5,0.5,5.9,1c0.8,0.3,2.1,2.1,3,2c2.1-0.2,4.3-5,6.3-5.8
	c1.3-0.5,4.3-0.5,5.5,0.1c0.3,0.2,0.5,1.1,0.9,1.1c2.2-0.1,3.8-5.6,4.6-7.7c1.1-2.8,1.9-8.7,2.5-11.7c0.5-2.1,2-6.3,1.9-8.5
	c0-0.7-0.9-1.9-0.9-2.6c0-0.6,0.6-1.6,0.8-2.1c0.3-0.8,1.7-2.4,1.5-3.3c-0.2-0.7-1.9-1-2.3-1.6c-0.3-0.4-0.4-1.4-0.4-1.9
	C429.2,5.3,429.2,3.8,429.8,3.3z"/>
<linearGradient id="SVGID_8_" gradientUnits="userSpaceOnUse" x1="-466.2704" y1="1933.0978" x2="-408.2318" y2="1933.0978" gradientTransform="matrix(1 0 0 -1 829 2009.5)">
	<stop  offset="0.0039" style="stop-color:#A45333"/>
	<stop  offset="0.3128" style="stop-color:#AB6633"/>
	<stop  offset="0.718" style="stop-color:#B27934"/>
	<stop  offset="1" style="stop-color:#B58034"/>
</linearGradient>
<path fill="url(#SVGID_8_)" d="M380.7,71.6c0.3-0.3,1.2,0.1,1.6,0.2c3.2,0.9,9.4,7.1,12.1,5.2c2.6-1.9-1.2-9.6-0.9-12.8
	c0.3-2.8,1.8-8.3,2.9-10.8c0.7-1.7,2-5.6,3.6-6.4c1.4-0.6,4.6,0.6,6.1,1.1c0.8,0.3,2,2,2.9,1.9c2-0.2,4.5-5.3,6.5-5.9
	c0.9-0.2,4.5-0.5,5.3,0.2c0.6,0.5-1-2-1.3-2.7c-1-2.6-1.6-8.4-3-10.9c-1.5-2.6-6.8-6.1-8.3-8.7c-0.6-1-0.3-3.7-1.3-4.3
	c-1-0.6-3.7,0.3-4.7,1.1c-1.1,0.8-1.5,4-2.7,4.7c-1.1,0.6-3.7-0.4-4.9-0.5c-1.4-0.2-4.3-1.1-5.6-0.6c-1.9,0.7-4.3,4.4-5.3,6.2
	c-0.9,1.5-2.1,4.9-2.5,6.6c-0.2,1-0.2,3.1-0.5,4.1c-0.4,1.3-1.9,3.7-2.4,5c-0.5,1.5-1.1,4.6-1.6,6.2c-0.3,0.9-0.8,2.7-1.1,3.6
	c-0.7,1.9-2.7,5.4-3.2,7.3c-0.3,1.1-0.2,3.3-0.5,4.4c-0.2,0.8-1.2,2.3-1.4,3.1c-0.3,1.3-0.5,4-0.5,5.3c0,2.4,1,7.3,1.1,9.7
	c0.1,2.3-0.3,7-0.1,9.3c0.1,1.7,1.1,5.1,0.9,6.8c-0.2,1.6-2,4.5-2.4,6.1c-0.1,0.7-0.2,2.2-0.1,2.9c0.1,0.8,0.7,2.2,0.7,3
	c0.1,3.2-1.2,9.6-2.3,12.6c-0.4,1-1.7,2.7-2.2,3.6c-0.2,0.4-0.6,1.1-0.6,1.5c0,0.3,0.3,0.9,0.3,1.2c-0.2,0.9-2.5,2.1-2.3,3
	c0.1,0.4,1,0.7,1.4,0.8c0.7,0.1,2-0.3,2.7-0.2c0.5,0.1,1.3,0.8,1.8,0.8c0.4,0,1.1-0.8,1.5-1s1.4,0,1.6-0.4c0.3-0.5-0.5-1.6-0.7-2.1
	c-0.1-0.4-0.5-1.1-0.5-1.4c0-0.4,0.4-1.2,0.4-1.6c0-0.7-0.6-1.9-0.6-2.6c-0.1-3.3,1.2-9.8,2.2-13c0.3-1.1,1.7-3,1.9-4.1
	c0.1-0.3-0.1-0.8,0-1.1c0.1-0.6,0.9-1.7,1-2.4c0.1-1.2-0.9-3.7-0.9-4.9c0-1.7,0.8-5.2,1.2-6.9c0.4-1.7,1.3-4.9,1.7-6.6
	c0.4-1.5,1-4.5,1.3-6c0.5-1.9,1.8-5.8,2.1-7.8C380.8,72.8,380.4,71.8,380.7,71.6z"/>
<path fill="#462E32" d="M377.9,81.2c0.1,0.4-0.1,1.2,0,1.6s0.3,1.7,0.7,1.6c0.5-0.1-0.1-1.7,0.4-1.9c0.1-0.1,0.4,0.2,0.5,0.3
	c0.2,0.5-0.3,1.6-0.3,2.2c0.1,0.8,0.9,2.4,1.3,3.1c0.2,0.4,0.4,1.5,0.8,1.6c0.6,0,1.1-1.5,1.3-2c0.4-0.9,1-2.7,1.2-3.6
	c0.1-0.9,0-2.6,0-3.4c0-1.6,0-4.9,0-6.5c0-0.5,0.4-1.6,0-1.8c-0.5-0.3-1.1-0.4-1.4-0.5c-0.4-0.1-1.2-0.4-1.6-0.2
	c-2,1.3-1.8,6.8-2.8,8.9c0,0.1-0.2,0.3-0.2,0.4C377.7,80.9,377.9,81.1,377.9,81.2z"/>
<path fill="#462E32" d="M365.1,4.9c-0.2-0.3-0.2-0.1-0.5-0.3c-0.4-0.3-0.2-1.6-0.6-1.9c-0.4-0.4-0.5,0-1.1,0c-0.5,0-2.1-0.2-3-0.2
	c-0.3,0-2,1.1-2,1.3c0,0.4,0.5,0.9,1.4,1.2c0.3,0.1,0.9,0.5,1,0.8c0.1,0.5,1,1,1.2,1.3s0.1,1.1,0.3,1.4c0.6,1.2,2.2,3.7,3.5,4
	c0.2,0,0.5-0.1,0.6-0.3c0.2-0.3-0.4-1.2-0.6-1.5c-0.2-0.6-0.8-1.7-1.2-2.3c-0.3-0.3-1.1-0.7-1.2-1.1c-0.1-0.6,0.7-1.7,1.2-2
	C364.5,5.1,365.1,5,365.1,4.9z"/>
<path fill="#1D1618" d="M365.4,7.7c0.4-0.2,2.2,0.2,2.6,0c0.3-0.1,0.6-0.7,0.9-0.9c0.5-0.2,2.1,0.2,2.3,0.3c0.6,0.2-0.5,0.5-0.8,0.8
	c-0.2,0.2-0.5,0.9-0.8,1.1c-0.6,0.3-1.9,0.6-2.5,0.3c-0.3-0.1-0.7-0.8-1-0.9C365.8,8.3,365.2,7.8,365.4,7.7z"/>
<path fill="#462E32" d="M376.7,8.9c-0.1-0.1-0.2-0.5-0.6-0.4c-0.2,0.1-0.3,1.1-0.3,1.3c0.1,0.3,0.6,0.7,0.9,0.8
	c0.6,0.3,2.7,0.4,3.1,0.1c0.1-0.1-0.7-0.3-0.8-0.3c-0.4-0.1-1.4,0-1.8-0.3C376.9,9.9,377,9.4,376.7,8.9z"/>
<path fill="#462E32" d="M373.1,9.1c0.4,0.4,1.2,1.6,1.5,1.8c0.8,0.6,2.4,1.7,3.3,2.1c0.4,0.2,1.2,0.2,1.5,0.4c0.3,0.1,1,0.1,1,0.4
	c0,0.3-0.9,0.4-1.1,0.4c-0.3,0.1-0.7-0.1-1.1-0.2c-0.9-0.4-2.7-1.4-3.5-2c-0.4-0.3-1-1-1.2-1.5C373.5,10.4,372.7,8.8,373.1,9.1z"/>
<path fill="#462E32" d="M377.1,8.6c0.6,0,1.9,0.9,2.3,1.2c0.2,0.1,0.3,0.4,0.5,0.7c0.1,0.3-0.6-0.6-0.9-0.7
	c-0.3-0.2-1.2-0.1-1.4-0.4C377.6,9.3,377,8.6,377.1,8.6z"/>
<path opacity="0.4" fill="#604148" enable-background="new    " d="M373.4,15.5c-0.7-1.2-4.2,0.1-5.4-0.3c-0.2-0.1-0.6-0.8-0.8-0.6
	c-0.4,0.3,0.3,1.5,0.6,2c0.6,0.9,2.4,2.6,3.5,2.4c0,0,0.9-1.7,1.3-2.2C372.8,16.4,373.4,15.5,373.4,15.5z"/>
<path opacity="0.4" fill="#604148" enable-background="new    " d="M370.1,22.9c-0.3,1.2-1.9,4-2.1,5.2c-0.1,0.6,0.5,2.2,0,2.5
	c-0.4,0.2-1.3-0.5-1.6-0.9c-0.4-0.6-0.1-2.5-0.8-2.7c-0.4-0.1-0.9,1-1.3,1c-0.4-0.1-0.9-1-1.1-1.4c-0.4-0.7-0.8-2.4-0.9-3.2
	c-0.1-1.4,0-5.5,0.4-5.7c0.9-0.5,2.1,2,3,2.5c0.8,0.4,3,1.6,3.4,0.9s-2.5-1.4-2.3-2.1c0.1-0.3,0.9-0.3,1.2-0.3
	c0.8,0.1,2.6,0.6,2.8,1.3C370.9,19.9,370.4,21.8,370.1,22.9z"/>
<path opacity="0.4" fill="#604148" enable-background="new    " d="M346.8,21.2c0-0.8,0-2.1-0.8-2.4c-2.6-1.3-5.5,1.5-6.2,2.7
	c-0.3,0.6,0.2,2.1,0,2.8c-0.1,0.5-0.9,1.2-0.9,1.7c-0.1,0.5,0.6,1.4,0.5,1.9c-0.1,0.8-1.9,1.9-1.7,2.6c0.2,0.5,1.7,0.4,2.2,0.8
	c0.9,0.8,1.1,3.8,2.1,4.4c0.9,0.6,3.4,0.5,4.3,0c2.2-1.2,4.9-7.8,5.4-8.8c0,0-2.6-1.8-3.4-2.6C347.8,23.5,346.8,22.4,346.8,21.2z"/>
<path opacity="0.4" fill="#604148" enable-background="new    " d="M340.2,92.1c0.5-0.3,1.9,1.1,1.9,1.7c0,0.2-0.3,0.4-0.4,0.5
	c-0.5,0.2-1.8,0.7-2.1,0.3c-0.2-0.3,0.8-0.8,0.9-1.2C340.6,93,339.9,92.3,340.2,92.1z"/>
<path opacity="0.4" fill="#604148" enable-background="new    " d="M342.6,91.3c0.4-0.3,1.4,0.8,1.3,1.2c0,0.2-0.5,0.4-0.7,0.4
	c-0.2-0.1-0.3-0.6-0.4-0.8C342.8,91.9,342.4,91.4,342.6,91.3z"/>
<path opacity="0.4" fill="#604148" enable-background="new    " d="M334.4,94.1c0.3,0.3,1.2,1.1,1,1.5c-0.2,0.3-1.2,0.3-1.4,0
	c-0.1-0.2,0.2-0.5,0.2-0.7c0-0.3-0.7-0.9-0.5-1.1C333.8,93.6,334.2,94,334.4,94.1z"/>
<path opacity="0.4" fill="#604148" enable-background="new    " d="M330.9,94.3c0.5-0.1,1.3,1,1.5,1.5c0,0.1,0.1,0.4,0,0.5
	c-0.2,0.2-0.8,0.3-1,0.3c-0.4,0.1-1.6,0.4-1.8,0C329.2,96,330.2,94.4,330.9,94.3z"/>
<path opacity="0.4" fill="#604148" enable-background="new    " d="M305.3,93.4c0.4,0.3,1.4,0.7,1.4,1.2c0,0.2-0.5,0.6-0.7,0.7
	c-0.9,0.4-3,0-4.1,0c-0.6,0-2.1,0.4-2.5,0c-0.1-0.1-0.1-0.5,0-0.7c0.3-0.5,1.7-0.4,2.1-0.8s0.2-2.2,0.8-2.4
	C303.2,91.1,304.6,92.9,305.3,93.4z"/>
<path opacity="0.4" fill="#604148" enable-background="new    " d="M307.5,94c0.3,0.1,0.4,1,0.3,1.2c-0.1,0.1-0.7,0.6-1,0.6
	s0.1-0.8,0.2-1S307.3,94,307.5,94z"/>
<path opacity="0.4" fill="#604148" enable-background="new    " d="M298.4,91.8c-0.2-0.6-1.7-0.8-2.2-1s-1.8-0.2-2.1-0.7
	c-0.3-0.4,0.1-1.5,0-2c-0.2-0.8-1.3-2.1-1.7-2.9c-0.3-0.6-0.6-1.8-0.9-2.6c-0.1-0.2-0.2,0.7-0.3,1c-0.1,0.8,0.6,2.3,0.7,3.1
	c0,0.5,0.3,1.8,0.5,2.3c0.2,0.6,1,1.5,1.2,2.2s-0.8,0.9-0.9,1.8c0,0.1-0.1,1,0.4,0.9c3.8-0.7,4.1,0.1,5-0.2c0.2-0.1,0.4-0.4,0.4-0.6
	C298.5,92.7,298.4,92.1,298.4,91.8z"/>
<path opacity="0.4" fill="#604148" enable-background="new    " d="M292,63.3c0.6-0.5,0.7-0.5,0.9-1.1c0.6-1.9,0-4.9-0.2-6.3
	c-0.1-0.7-0.4-3.5-0.4-3.5c-0.9,0.2-0.5,3.1-0.5,4c0,1.1,0.5,3.3,0.3,4.4C292.1,61.5,291.5,63.7,292,63.3z"/>
<path opacity="0.4" fill="#604148" enable-background="new    " d="M298.1,31.2c-0.3,1.6-0.4,2.6-0.1,4.1c0.3,1.4,0.9,4.2,1.8,5.3
	c0.7,1,6.1,4.9,6.8,3.9c0.3-0.3,1.6-2,1.4-2.4c-0.4-0.8-3-2.8-3.9-4.3c-0.7-1.1-2.2-3.2-2.5-4.4c-0.3-1.1-1.5-4.1-1.7-5.3
	C299.6,26.8,298.4,29.8,298.1,31.2z"/>
<path opacity="0.4" fill="#604148" enable-background="new    " d="M298.4,15.9c-0.1,0.9,0.9,2.6,1.4,3.3c0.4,0.6,1.2,2.2,1.8,1.9
	c0.5-0.2-0.1-1.5,0-2c0.1-0.8,0.3-2.7,1-3.2c0.7-0.5,2.5,0.7,3.3,0.4c0.4-0.1,0.9-0.8,1-1.2c0.2-0.8-0.4-2.4-0.2-3.2
	c0.3-0.8,1.8-1.7,2.2-2.4c0.4-0.9,0.8-2.8,0.7-3.8c0-0.3-0.2-0.9-0.4-0.9c-1.3-0.4-3.7,2.2-4.5,3.3c-0.4,0.7-0.2,2.5-0.7,3.2
	c-0.7,0.9-3.1,1.4-3.9,2.1C299.6,13.9,298.5,15.2,298.4,15.9z"/>
<path opacity="0.4" fill="#604148" enable-background="new    " d="M321.3,3.5"/>
<path fill="#462E32" d="M432.6,5.6c-0.2-0.5-1-1.2-1.3-1.5s-0.8-1.2-1.2-1.2c-0.3,0-0.7,0.6-0.8,0.9c-0.4,0.9-0.3,2.9,0,3.8
	c0.1,0.4,0.7,1.1,1,1.4c0.4,0.4,1.5,0.6,1.8,1.1c0.1,0.2-0.2,0.6,0,0.7c0.2,0.1,0.7-0.3,0.9-0.5c0.4-0.4,1-1.4,1-2
	c-0.1-0.4-1-0.8-1.2-1.2C432.6,6.7,432.8,5.9,432.6,5.6z"/>
<path fill="#1D1618" d="M435.2,8.6c0.1-0.1,1.6,0.4,2.1,0.2c0.4-0.2,0.7-1.2,1.2-1.3c0.5-0.2,1.5,0.1,1.9,0.3c0.2,0.1,1,0.8,0.9,1
	c0,0.1-0.4-0.2-0.7-0.3c-0.2-0.1-0.4-0.2-0.6-0.1c-0.3,0.1-0.3,0.6-0.5,1.2c-0.4,1-0.9,1.3-1.4,1.4c-0.4,0.1-1.4-0.3-1.8-0.6
	C436,10.1,435.1,8.8,435.2,8.6z"/>
<path fill="#462E32" d="M449.7,8.1c0.5,0.1,1.4,0.2,1.8,0.5c0.3,0.2,1.2,1.2,1.2,1.4c0,0.1-0.5-0.2-0.7-0.3
	c-0.3-0.1-0.6-0.5-0.9-0.6c-0.3-0.2-1.1-0.2-1.4-0.4s-0.5-0.6-0.6-0.8C449.1,7.7,449.6,8.1,449.7,8.1z"/>
<path fill="#462E32" d="M448.8,8.4c0.1-0.1,0.4,1,0.7,1.2c1.3,0.8,1.9,0.4,2.3,0.5c0.1,0.1,0.6,0.3,0.6,0.4c0,0.2-1.7,0.2-2.2,0
	c-0.3-0.1-0.8-0.5-0.9-0.8C449.1,9.4,448.7,8.4,448.8,8.4z"/>
<path fill="#462E32" d="M446.4,12.4c0.6,0.2,0.6,0.8,0.9,1.1c0.2,0.2,0.4,0.7,0.6,0.8c0.6,0.3,2.1-0.1,2.8,0
	c0.5,0.1,1.4,0.9,1.9,0.9c1.2,0,1.7-1,1.8-0.9c0.1,0,0.1,0.6,0.2,0.7c0.2,0.1,0.7-0.1,0.8,0.1v0.4c-0.3,0.1-1.2-0.5-1.3-0.4
	c-0.1,0.2-1.2,0.4-1.4,0.4c-0.4,0-1.2-0.1-1.6-0.3c-0.2-0.1-0.4-0.5-0.6-0.6c-0.4-0.1-1.3,0.2-1.7,0.2c-0.3,0-0.9,0-1.2-0.2
	c-0.3-0.1-0.7-0.6-0.8-0.8c-0.1-0.2-0.4-0.8-0.6-0.9c-0.3-0.2-0.6-0.3-0.8-0.3C445.3,12.5,446,12.2,446.4,12.4z"/>
<path opacity="0.4" fill="#604148" enable-background="new    " d="M448.5,17.6c-0.6-0.7-2.6,0.7-3.5,0.7c-0.4,0-1.1-0.4-1.5-0.3
	c-0.5,0.1-1.3,1.1-1.8,1.3c-0.9,0.4-2.8,0.9-3.8,0.7c-0.8-0.1-2.3-1-2.9-1.5c-0.3-0.3-0.8-1.5-1.2-1.3c-0.5,0.2-0.1,1.6,0,2.1
	c0.2,1.2,1.3,3.6,1.5,4.8c0.3,1.8-0.2,5.3,0,7.1c0.2,1.4,0.7,4.3,1.3,5.6c0.1,0.2,0.4,0.9,0.6,0.9c0.7-0.1,0.5-2.2,0.8-2.9
	c0.4-1,1.5-2.7,1.9-3.7c0.3-0.8,0.7-2.5,1.1-3.2c0.3-0.5,1.2-1.3,1.5-1.9c0.2-0.5-0.1-1.7,0.1-2.3c0.2-0.6,1.1-2,1.7-2.6
	c0.3-0.3,1.3-1.5,2.3-2.1C446.9,18.8,448.7,17.8,448.5,17.6z"/>
<path opacity="0.4" fill="#604148" enable-background="new    " d="M431.6,55.7c-0.9,1.1-3.1,3-4.1,4c-1.2,1.2-3.5,3.7-4.7,4.7
	c-0.9,0.8-2.7,2.4-3.8,2.8c-0.8,0.2-2.5,0.4-3.2,0c-1.2-0.7-2.4-3.6-2.8-5c-0.3-1,1-4,0-4.3c-1.7-0.5-2.8,4.7-3.7,6.2
	c-0.4,0.6-1.4,1.8-1.6,2.5c-0.3,0.9,0.2,3-0.3,3.9c-0.4,0.5-1.7,0.8-2.3,1.1c-1,0.7-2.3,2.9-3.4,3.3c-0.6,0.2-2-0.4-2.7-0.3
	c-0.4,0.1-1.5,0.4-1.6,0.9c-0.1,0.6,1.6,1.1,1.8,1.7c0.1,0.3,0,1,0.1,1.3c0.5,1.8,2.1,4.9,2.5,6.8c0.1,0.5,0.3,2,0.8,2.1
	c0,0,0.1-1.2,0.2-1.5c0.3-0.9,0.7-2.8,1-3.7c0.6-1.5,2.1-5,3.7-5.5c0.5-0.2,1.4,0.6,2,0.8c1,0.2,3,0.3,4,0.4c0.4,0,1.4-0.1,1.7,0.2
	c0.6,0.6,0.4,2.6,0.5,3.4c0.1,1.5-0.1,4.5-0.2,6c-0.1,2.4-0.6,7.1-0.6,9.5c0,0.6-0.2,2-0.2,2.6c-0.1,1,1.1-1.5,1.2-1.9
	c0.4-1.2,0-3.8,0.4-5c1-4,6.5-10.9,6.8-15c0-0.5-0.6-1.3-0.5-1.8c0.1-0.8,1.5-2.9,1.7-3.7c0.2-0.8,0.1-2.2,0.3-3.2
	c0.1-0.4,0.6-1.5,0.6-1.5c-0.4-0.3-1.9,1-2.1,0.5c-0.1-0.2,0.5-0.6,0.8-0.8c0.5-0.3,1.6-0.3,2.1-0.6c1.5-1,4.1-3.2,5.2-4.6
	c1.1-1.4,3.6-4.3,3.7-6.1c0-0.4-0.9-1.1-0.8-1.6c0.1-1,2-2.3,2.4-3.2s0.7-3.8,0.7-3.8c-1.5-0.6-2.6,4.1-3.4,5.5
	C433,53.4,432.2,55,431.6,55.7z"/>
<path opacity="0.4" fill="#604148" enable-background="new    " d="M396.5,106.3c0.4-0.5,1.7-0.8,2.3-0.8c0.7,0.1,2,0.9,2.5,1.5
	c0.3,0.4,0.7,1.3,0.8,1.8c0,0.2,0.2,0.8,0,0.9c-0.7,0.2-0.8-1.9-1.3-2.4c-0.5-0.4-1.7-0.7-2.3-0.7c-0.5,0-1.6,1-2,0.7
	C396.3,107.2,396.4,106.5,396.5,106.3z"/>
<path opacity="0.4" fill="#604148" enable-background="new    " d="M397.5,111.9c0.5-0.2,1.1,1.6,1.7,1.7c0.7,0,1.7-1.2,2.2-1.7
	c0.2-0.2,0.5-1,0.8-0.8c0.4,0.3-0.5,1.5-0.8,1.8c-0.4,0.5-1.6,1-2.2,1.2c-0.4,0.1-1.3,0.3-1.6,0C397.1,113.7,397,112.1,397.5,111.9z
	"/>
<path opacity="0.4" fill="#604148" enable-background="new    " d="M414.2,112.1c0.6-0.4,1.3,1.8,2,2c0.5,0.1,1.6-0.2,2.1-0.4
	c0.2-0.1,0.4-0.6,0.5-0.6c0.3,0.1,0.2,1,0,1.2c-0.3,0.4-1.4,0.7-1.9,0.8c-0.3,0.1-1,0.2-1.2,0C415,114.7,413.5,112.6,414.2,112.1z"
	/>
<path opacity="0.4" fill="#604148" enable-background="new    " d="M413,109.7c0.2,0.3,1-0.1,1.4-0.3c0.8-0.4,2-2,2.8-2.3
	c0.4-0.2,1.7,0.4,1.8,0c0.1-0.2-0.6-0.5-0.8-0.5c-0.9-0.2-2.8,0.4-3.7,0.5c-0.2,0-0.8,0.1-0.9,0.2
	C413.1,107.8,412.5,109.3,413,109.7z"/>
<path opacity="0.4" fill="#604148" enable-background="new    " d="M416.4,127.2c-0.8,0-1.1,2.5-1.3,3.4c-0.1,0.5-0.4,1.9-0.4,2.4
	c0,0.7,0.5,1.7,0.7,2.3c0.2,0.4,0.5-1.6,0.9-1.6s0.9,2.2,1.4,2.3c0.1,0,0.2-0.8,0.2-0.9c0.2-0.4,0-1.2,0-1.6c0-0.4-0.1-1.3-0.1-1.7
	c-0.1-0.6-0.6-1.6-0.8-2.2C416.9,129,416.9,127.3,416.4,127.2z"/>
<path opacity="0.4" fill="#604148" enable-background="new    " d="M423.1,138.6c0.4,0.2,1.2,1.1,1.8,1.7c0.5,0.4,0.8,0.6,0.8,0.8
	c-0.1,0.5-1.1,1.1-1.9,1.2c-0.4,0-0.8-0.3-1.2-0.6c-0.2-0.2-0.5-0.4-0.3-0.6C422.6,140.6,422.8,138.4,423.1,138.6z"/>
<path opacity="0.4" fill="#604148" enable-background="new    " d="M417.2,138.9c0.4,0,0.6,0.5,0.8,1c0.1,0.2,0.2,0.5,0.1,0.7
	c-0.2,0.3-2.1,0.2-2.2-0.3C415.7,139.8,416.7,138.9,417.2,138.9z"/>
<path opacity="0.4" fill="#604148" enable-background="new    " d="M397.6,138.1c0.1,0,0.3,0,0.4,0c0.6,0.2,1.5,0.8,1.4,1.5
	c0,0.2-0.6,0.1-0.7,0.2c-0.4,0.2-0.6,1.2-1,1.2s-1.2-0.9-1.5-1c-0.2,0-0.6-0.1-0.8-0.2c-0.2,0,1-0.8,1.1-0.9
	C396.8,138.3,397,138.3,397.6,138.1z"/>
<path opacity="0.4" fill="#604148" enable-background="new    " d="M392.5,135.9c0.6,0.3,0.8,2.8,0.5,3.3c-0.2,0.2-0.3,0.4-0.6,0.5
	c-0.5,0.1-1.5,0.8-1.9,0.6c-0.5-0.3-0.6-2.4-0.4-2.8c0.2-0.4,0.9-0.7,1.4-0.8C391.7,136.5,392.4,135.8,392.5,135.9z"/>
<path opacity="0.4" fill="#604148" enable-background="new    " d="M368.8,132.1c0.5,0,1.3,0.9,1.3,1.4c0,0.2-0.3,0.6-0.4,0.8
	c-0.2,0.2-0.8,0.7-1.1,0.7c-0.2,0-0.7-0.3-0.9-0.4c-0.4-0.1-1.1-0.6-1-1C366.7,133,368.1,132,368.8,132.1z"/>
<path opacity="0.4" fill="#604148" enable-background="new    " d="M390.5,127.1c0.3-0.1,0.9,0.2,1.2,0.4c0.2,0.1,0.6,0.4,0.5,0.5
	c-0.1,0.4-1.4,0.7-1.8,0.4c-0.2-0.1-0.3-0.7-0.2-1C390.2,127.3,390.4,127.1,390.5,127.1z"/>
<path opacity="0.4" fill="#604148" enable-background="new    " d="M385.7,77c-1.2,2.5,1.1,8.3,0.8,11.1c-0.2,2.6-2.8,7.5-2.6,10.1
	c0.1,1.7,1,6.4,2.6,6.1c1.5-0.3-0.1-4.6,0-6.1c0.2-2.2,1.5-6.5,1.7-8.6c0.2-2.2,0-6.5,0-8.6c0-1.4,1.3-5.1,0-5.7
	C387.5,74.8,386,76.3,385.7,77z"/>
<path opacity="0.4" fill="#604148" enable-background="new    " d="M371.3,76.1c0.8,0,0,2.7,0.5,3.4c0.4,0.5,1.7,0.9,2.3,1.1
	c0.3,0.1,0.9-0.2,1.1,0c0.5,0.6-0.9,2.2-0.5,2.8c0.2,0.4,1.1,0.7,1.5,0.7c0.2,0,0.6-0.5,0.7-0.4c0.6,0.5-0.5,2.3-0.7,3.1
	c-0.2,0.9,0.1,3.4-0.8,3.4c-1.2,0.1-1.3-3.5-1.9-4.6c-0.5-1-2.3-2.7-2.6-3.8C370.6,80.4,369.8,76.2,371.3,76.1z"/>
<path opacity="0.4" fill="#604148" enable-background="new    " d="M374.7,103.8c-0.2,0.4-1.2-0.7-1.6-0.6c-0.7,0.1-1.5,1.4-1.8,2
	c-0.3,0.4-0.7,1.4-0.9,1.8c-0.2,0.4-0.3,1.7-0.7,1.6c-0.4-0.1-0.1-1.2,0-1.6c0.1-0.7,0.4-2.1,0.8-2.7s1.4-1.6,2.1-1.7
	c0.3-0.1,1,0.2,1.3,0.3C374.1,103,374.9,103.5,374.7,103.8z"/>
<path opacity="0.4" fill="#604148" enable-background="new    " d="M370.5,108.1c0.3-0.6,1.5-1.2,2-1.6c0.4-0.4,1.1-1.4,1.6-1.6
	c0.1,0,0.4-0.1,0.4,0c-0.3,1-0.4,1.8-0.7,2.5c-0.3,0.7-1.3,1.9-1.8,2.6c-0.3,0.3-0.7,2.8-1,2.4c-0.2-0.3-0.4-2.2-0.4-2.6
	C370.4,109.4,370.3,108.5,370.5,108.1z"/>
<path opacity="0.4" fill="#604148" enable-background="new    " d="M383.2,98.9c-0.1,0.2,0.5,0.6,0.8,0.7c0.4,0.1,1.4,0,1.7-0.3
	c0.1-0.1,0.1-0.5,0-0.6c-0.2-0.1-0.5,0.4-0.8,0.5C384.5,99.2,383.3,98.5,383.2,98.9z"/>
<path fill="#462E32" d="M289.1,33.2c-0.3,1.6,0,4.8-0.3,6.3c-0.1,0.7-0.6,2.1-0.7,2.9c-0.1,0.7,0.1,2.2,0,2.9c0,0.3-0.3,0.9-0.4,1.2
	c-0.1,0.4-0.1,1.1,0,1.5c0,0.1,0.1,0.3,0.2,0.4c0.1,0.4,0.4,1.1,0.3,1.5c0,0.3-0.3,0.8-0.5,1.1c-0.1,0.2-0.7,0.5-0.7,0.8
	c0,0.1,0.4,0.2,0.5,0.2c0.3,0,0.9-0.5,1.2-0.7c0.3-0.2,0.9-0.6,1.1-0.8s0.7-0.6,0.8-0.9c0.3-0.9-0.7-2.9-0.4-3.8
	c0.9-3.1,0.6-12.9-0.5-13.7C289.7,31.8,289.2,33,289.1,33.2z"/>
<path opacity="0.4" fill="#604148" enable-background="new    " d="M373,63.1c-0.2,1.2-0.3,2,0,3.2c0.2,1,0.7,3.2,1.3,4
	c0.5,0.7,4.6,3.7,5.2,3c0.2-0.2,0.4-0.8,1.1-1.6c0.5-0.5-2.3-2.4-3-3.6c-0.5-0.8-1.7-2.4-1.9-3.4c-0.2-0.9-1.1-3.1-1.3-4
	C374.2,59.7,373.2,62,373,63.1z"/>
<path fill="#604148" d="M364,131.9c-0.5,0-1.4,1.1-1.3,1.6s1.5,1.2,1.9,0.9c0.2-0.2,0.2-1.1,0.2-1.1S364.4,131.9,364,131.9z"/>
<path opacity="0.4" fill="#604148" enable-background="new    " d="M387.9,125.4c0.1-0.1,0.3,0.2,0.3,0.3c0.1,0.3,0.8,1.2,0.5,1.4
	c-0.1,0-0.8,0-0.9-0.2C387.6,126.6,387.8,125.5,387.9,125.4z"/>
<path fill="#461919" d="M407.3,48.4l-7.9-2.1c0,0,0.2,0.9-0.2,1.5c-0.7,1.2-0.9,2.1-2.6,4.3c-1.1,1.5,2.2,5.1,3.1,6.7
	c0.7,1.3,2.6,3.8,3.1,5.2c0.2,0.7,0.4,2.8,0.4,2.8s3.1,0.3,4-0.2c1.5-0.9,3.1-4.4,3.6-6.1c0.2-0.7,0-3,0-3l4.6-6.3l-0.6-5.4
	l-4.2-1.2l-1.8,3.4L407.3,48.4z"/>
<path opacity="0.8" fill="#651A13" enable-background="new    " d="M419.9,43c-0.2,0.1-0.5-0.5-0.6-0.7c-1.2-2-3.8-6.5-5.2-8.4
	c-0.9-1.2-1.8-3.4-3.2-3.7c-1.2-0.2-4,0.5-4.8,1.5c-0.3,0.4,0.2,1.5,0,2c-0.5,1-2.8,1.9-3.7,2.4c-0.6,0.3-2.2,0.6-2.6,1.1
	c-0.7,0.8-1,2.9-1,3.9c-0.1,1.5,1.1,4.5,0.8,6c-0.4,1.9-3.2,5-3.4,6.7c-0.2,1.6-1.6,5.2-1.9,6.8c-0.5,2.6,0.9,7.9-0.8,9.9
	c-0.6,0.7-2.7,0.9-3.6,0.7c-1.1-0.3-2.5-2.5-3.6-2.8c-1.5-0.4-4.7,0.5-6.2,1.1c-0.7,0.3-1.8,1.6-2.6,1.7c-0.7,0.1-2-0.6-2.5-1.1
	c-0.6-0.6-1.2-2.4-1.3-3.3c-0.2-1.5,0.7-4.4,0.7-5.9c0.1-1.3-1.2-2.4-0.6-3.5c0.6-1.3,2.1-5.1,2.6-6.3c0.6-1.5,1.4-5.7,1.9-7.2
	c0.6-2,2.9-3.8,3.3-10.8c0.1-1.4,2.1-5.1,4.1-7.8c0.4-0.6,1-1.9,3.3-3.2c1.5-0.8,9.5,1.8,10.5,1.1c1.2-0.8,1.6-3.5,2.3-4.2
	c0.4-0.4,2-2,4.7-1.6c1.7,0.3,0.7,4,2.6,5.7c2.8,2.4,5.6,4.5,7.1,6.9c1,1.6,1.4,3.3,1.8,5.1c0.3,1.5,2,5,2,6.6
	C419.9,42.1,420.1,42.9,419.9,43z"/>
<path fill="#211C57" d="M403.3,48.1c-0.4,0.2-0.9,0.9-1.1,1.2s-0.8,0.7-0.9,1s0.4,1.1,0.4,1.1s0.8,0.4,1,0.4c0.4,0,1.1-0.1,1.4-0.3
	c0.1-0.1,0.3-0.4,0.3-0.6c0.1-0.2,0.1-0.8,0-1c0-0.2-0.3-0.6-0.3-0.8c-0.1-0.3,0-1-0.2-1.1C403.8,48,403.5,48,403.3,48.1z"/>
<path fill="#211C57" d="M417.8,43.7c-0.3,0.3-0.4,1.1-0.2,1.4c0.2,0.3,1,0.7,1.3,0.7c0.4,0.1,1.2-0.1,1.5-0.3
	c0.2-0.2,0.6-0.7,0.6-0.9c0-0.3-0.2-0.9-0.4-1c-0.3-0.2-1.2,0-1.6,0C418.7,43.5,418,43.5,417.8,43.7z"/>
<path fill="#211C57" d="M411.9,56.7c-0.3-0.3-1.3-0.7-1.7-0.6c-0.5,0.1-1.2,0.9-1.4,1.3c-0.2,0.5-0.3,1.6,0,2
	c0.2,0.3,1.2,0.6,1.6,0.6s1.6-0.7,1.6-0.7s0.3-1.1,0.2-1.5C412.1,57.5,412,56.9,411.9,56.7z"/>
<path fill="#211C57" d="M404.9,57c-0.6,0-1.8,0.8-2,1.3c-0.2,0.6,0.2,2,0.6,2.4c0.4,0.5,2.2,1.1,2.2,1.1s1.2-1.1,1.3-1.6
	c0.1-0.5,0-1.7-0.3-2.2C406.4,57.6,405.4,57,404.9,57z"/>
<path fill="#CE3327" d="M410.8,53.6c-0.4,0.2-1,1-1,1.4c0,0.3,0.4,1,0.6,1.2c0.4,0.4,2,1,2,1s1.2-0.7,1.4-1.1c0.3-0.6,0.9-2,0.5-2.5
	c-0.2-0.4-1.3-0.5-1.7-0.3c-0.2,0.1-0.3,0.5-0.5,0.5C411.8,53.9,411.1,53.4,410.8,53.6z"/>
<path fill="#871B1A" d="M412.4,45.4c-0.3,0.2-0.6,0.8-0.8,1.1c-0.3,0.5-0.8,1.6-0.7,2.2c0,0.4,0.4,1,0.7,1.2c0.3,0.1,0.9-0.2,1.2,0
	c0.2,0.2,0.3,0.9,0.5,1c0.4,0.3,1.4,0,1.9,0c0.2,0,0.6,0.1,0.8,0c0.7-0.4,1.4-2.1,1.8-2.8c0.2-0.3,0.8-1,0.9-1.3s0-0.8-0.1-1
	c-0.2-0.3-0.9-0.5-1.1-0.7c-0.2-0.3-0.2-1.1-0.5-1.3c-0.3-0.3-1.2-0.4-1.6-0.3C414.5,43.6,413,44.8,412.4,45.4z"/>
<path fill="#871B1A" d="M408.4,50c0.5,0,1.2,1.7,1.2,1.7s-0.4,1.3-0.6,1.7c-0.4,0.9-1.7,3.3-1.7,3.3l0.8,1.1c0,0,0.5,1,0.4,1.3
	s-0.4,0.7-0.6,0.9c-0.2,0.1-0.9,0.4-0.8,0.2c0.3-0.9-0.3-1.9-0.5-2.3c-0.2-0.5-1.1-1-1.6-1c-0.3,0-0.7,0.8-1,0.7
	c-0.4-0.2-0.4-1.2-0.2-1.5c0.3-0.5,1.9-0.5,2.2-1c0.2-0.4-0.2-1.3,0-1.7C406.1,52.4,407.3,50,408.4,50z"/>
<path fill="#5D0C0E" d="M400,49c-0.4-0.1-1.3,0.6-1.5,1c-0.3,0.6-0.2,2,0,2.6c0.1,0.3,0.4,1.1,0.8,1.2c0.4,0.1,1.1-0.9,1.1-0.9
	l-0.5,1.6c0,0,0.2,1.2,0.5,1.4s1.1,0.2,1.4,0c0.6-0.6,0.5-2.6,0.3-3.4c-0.1-0.6-0.8-1.5-1.1-2C400.7,50.1,400.4,49.1,400,49z"/>
<path fill="#CE3327" d="M402.9,46.8c-0.5,0-1.6-0.1-2,0.2s-0.6,1.5-0.6,2s0.3,1.6,0.8,1.6c0.9,0.2,2.1-1.6,2.6-2.4
	c0.2-0.3,0.6-1.2,0.3-1.5C403.8,46.6,403.2,46.8,402.9,46.8z"/>
<path fill="#5D0C0E" d="M407.4,48.7c-0.7-0.1-2,0.7-2.5,1.3c-0.3,0.3-0.4,1.3-0.4,1.7c0,0.6,0.4,2.4,0.4,2.4s1.6-0.5,1.8-0.7
	c0.7-0.8,1.7-2.4,1.7-3.4C408.4,49.6,407.8,48.8,407.4,48.7z"/>
<path fill="#9BC688" d="M411.3,49.4c-0.1,0-1.3,0.9-1.5,1.3c-0.2,0.5-0.2,1.6,0,2.1s0.9,1.6,1.5,1.7c0.5,0.1,1.2-1.2,1.7-1.2
	c0.3-0.1,0.9,0.3,1.2,0.3c0.2,0,2.1-2.4,1.9-2.5s-2.3,0.1-2.9-0.4c0,0-0.3-1.2-0.6-1.3c-0.3-0.1-0.6,0.7-0.9,0.6
	C411.5,50,411.5,49.4,411.3,49.4z"/>
<path fill="#9BC688" d="M399,53.5c0,0-0.8-0.7-1.1-0.6c-0.7,0.3-0.7,2.1-0.6,2.8c0.1,0.8,1.3,2.8,1.3,2.8s1.4-0.9,1.6-1.3
	c0.2-0.6-0.3-2.4-0.3-2.4L399,53.5z"/>
<path fill="#9BC688" d="M405,54.8c0,0-2.9,0-3.4,0.7c-0.3,0.4,0.3,1.3,0.2,1.7c0,0.6-0.9,1.8-0.5,2.2c0.3,0.3,1.3,0.2,1.6,0
	c0.4-0.3,0.9-1.3,1-1.8c0.1-0.4-0.1-1.2,0.1-1.5c0.2-0.4,1.3-0.7,1.3-0.7L405,54.8z"/>
<path fill="#9BC688" d="M408.7,59.5c0,0-1.2,0.5-1.4,0.8c-0.2,0.4-0.1,1.3,0,1.6c0.2,0.7,1.1,2.2,1.8,2.2c0.6,0,1.3-1.9,1.3-1.9
	s0.3-1.5,0-1.9C410.2,59.9,408.7,59.5,408.7,59.5z"/>
<path fill="#9BC688" d="M402.7,60.3c-0.6,0.1-2,0.5-2.2,1.1c-0.2,0.7,1.6,2.5,1.6,2.5l0.3-0.1c0.4-0.1,1.2-0.1,1.5-0.4
	c0.3-0.2,0.5-1,0.5-1.3c0-0.5-0.4-1.5-0.8-1.8C403.5,60.1,403,60.2,402.7,60.3z"/>
<path fill="#438940" d="M400.5,65.9c-0.2,0.4-0.4,1.2-0.2,1.6c0.1,0.3,0.6,0.9,1,0.9c0.3,0.1,0.9-0.6,1.2-0.6c0.2,0,0.6,0.1,0.8,0
	c0.3-0.2,0.7-1.1,0.7-1.1l-1.1-2.5c0,0-0.5-0.3-0.7-0.2C401.5,64,400.8,65.3,400.5,65.9z"/>
<path fill="#A22065" d="M402.9,68.2c0.1,0.3,0.2,0.9,0.4,1.1c0.1,0.1,0.6,0.2,0.7,0.3c0.3,0.5,0,1.8-0.3,2.2
	c-0.3,0.3-1.5,0.7-1.5,0.7s-1.4-0.4-1.6-0.8c-0.2-0.2-0.3-0.9-0.2-1.1c0.1-0.5,0.7-1.2,1-1.6c0.2-0.2,0.4-0.7,0.4-0.7l0.8-0.5
	C402.5,67.8,402.9,68.1,402.9,68.2z"/>
<path opacity="0.4" fill="#461919" enable-background="new    " d="M446.6,2.8h-1.1c0,0-1.7,1.1-2.1,1.6c-0.6,0.7-1.6,2.3-2,3.2
	c-0.4,0.9-0.7,2.9-0.8,3.9c0,0.3,0.1,0.9,0,1.2s-0.5,1-0.5,1.3c0,0.4,0.4,1.3,0.8,1.4c0.4,0.1,1.3-0.5,1.5-0.8
	c0.7-0.9,0.6-3.4,0.8-4.5c0.2-0.9,0.4-2.7,0.8-3.5c0.3-0.8,1.4-2.2,1.9-2.9C446.2,3.4,446.6,2.8,446.6,2.8z"/>
<path fill="#871B1A" d="M446.6,2.8c0.2-0.5,0.3-1.7,0-2.1c-0.3-0.5-1.7-0.8-2.2-0.5c-0.3,0.2-0.5,1.1-0.4,1.5c0,0.4,0.4,1.2,0.7,1.4
	c0.3,0.2,1.1,0.4,1.5,0.3C446.3,3.3,446.5,3,446.6,2.8z"/>
<path fill="#063C4C" d="M440.6,12.6c0,0-3-0.4-3.8-0.6c-1-0.3-2.8-1.5-3.8-1.9c-0.2-0.1-1-0.3-1-0.3l-0.5,1.3c0,0,1.2,0.2,1.6,0.3
	c1,0.3,2.8,1.4,3.8,1.7c0.8,0.2,3.5,0.3,3.5,0.3L440.6,12.6z"/>
<path fill="#063C4C" d="M434.5,23.2c-0.2,0-0.3,0.3-0.3,0.5c-0.1,0.2,0.2,0.7,0.2,0.9c-0.1,0.3-0.7,0.5-0.9,0.7
	c-0.2,0.2-0.7,0.6-0.8,0.9c-0.2,0.5-0.3,1.8,0.2,2c0.3,0.1,0.6-0.9,0.8-1.2c0.3-0.4,0.9-1.1,1-1.5c0.1-0.2-0.1-0.6,0-0.8
	c0.1-0.2,0.1-0.5,0.1-0.6C434.8,23.8,434.8,23.2,434.5,23.2z"/>
<path fill="#063C4C" d="M435.9,26c-0.3-0.1-0.6,0.3-0.8,0.5c-0.2,0.3-0.2,0.8-0.3,1.1c-0.1,0.3-0.9,0.7-0.9,1
	c-0.1,0.4,0.3,1.1,0.5,1.3c0.2,0.3,0.8,1.1,1.2,1c0.5-0.2,0.7-1.6,0.7-2.1c0-0.4-0.7-1.3-0.7-1.6c0-0.2,0.6-0.4,0.6-0.6
	C436.2,26.4,436.1,26,435.9,26z"/>
<path fill="#051A19" d="M433.1,11.5c0,0,0,3.5,0.2,4.7c0.2,1.7,0.8,5.1,1.3,6.8c0.3,0.8,0.9,2.4,1.5,3s2,1.4,2.8,1.5
	c0.8,0,2.4-0.5,2.9-1.1c0.5-0.5,0.7-3.2,0.8-2.6c0,0.3,0.2,0.6,0.2,0.8c0,0.6-0.4,1.8-0.8,2.3c-0.6,0.7-2.3,1.5-3.2,1.6
	c-0.7,0.1-2.1-0.2-2.7-0.6c-0.5-0.3-1.1-1.4-1.3-1.9c-0.6-1.4-1-4.5-1.3-6c-0.2-0.9-0.7-2.8-0.8-3.7c-0.1-1.2,0-4.8,0-4.8
	L433.1,11.5z"/>
<path fill="#A22065" d="M426.1,68c0.3,0.1,0.4,1,0.6,1.2c0.1,0.2,0.6,0.3,0.7,0.5c0.2,0.4,0,1.7,0,1.7l-2,0.9c0,0-0.9-0.6-1.1-0.9
	c-0.1-0.4,0.1-1.2,0.3-1.6c0.1-0.4,0.4-1.1,0.7-1.4C425.5,68.3,425.9,68,426.1,68z"/>
<path fill="#438940" d="M426.6,65.7c0,0,0.5,0.7,0.5,0.9c0,0.4-0.5,1.4-0.5,1.4s-0.7,0.3-0.9,0.3c-0.1,0-0.4-0.1-0.5-0.3
	c-0.1-0.2-0.1-0.9,0-1.1C425.4,66.5,426.6,65.7,426.6,65.7z"/>
<path fill="#461919" d="M374.7,70.2c0,0-0.3,1.4-0.3,1.9c0.1,0.7,1,2,1.1,2.8c0.2,1,0,3,0,4c0,0.8,0.2,3.2,0.2,3.2l0.8,1.2
	c0,0,0-1.4,0-1.8c-0.1-0.5-0.4-1.5-0.4-2c-0.1-0.7,0.1-2.1,0.1-2.8c0-0.7,0-2.1,0-2.8c0-0.4-0.1-1.4-0.1-1.4l0.4,0.6
	c0,0,0.3,1.6,0.3,1.8c0,0.2,0.5,2.1,0.5,2.7c0,0.4-0.5,1.7-0.4,2.1c0.1,0.3,1-0.4,1-0.4c0.3-0.4,0.1-2.9,0.1-2.9s0.4,0.6,0.4,0.8
	c0.1,0.3,0,1,0,1.4c0.1,0.9,0.8,2.6,0.9,3.5c0.1,0.7-0.2,2.1,0,2.7s1.5,2.2,1.5,2.2s0-2.1,0-2.8c0-0.6,0.1-1.9,0.4-2.5
	c0.1-0.2,0.6-0.5,0.7-0.7c0.2-0.5,0-1.7,0-2.3c0-0.5-0.1-1.6,0-2.1c0.1-0.6,0.7-2.2,0.7-2.2s0.6,0.4,0.8,0.3C384,74.2,384,73,384,73
	s1.3,0.2,1.7,0.5c0.4,0.3,0.5,1.4,0.6,1.9c0.2,0.6,0.7,2.4,0.7,2.4s0.5-1.3,0.6-1.8c0.1-0.3,0.2-1.2,0.2-1.2s0.4,0.7,0.5,0.9
	c0.2,0.5,0.1,1.6,0.2,2.1c0.2,0.9,0.6,2.7,1,3.5c0.1,0.3,0.7,0.9,0.7,0.9s0-2.1,0-2.8c0-0.6-0.2-1.9,0-2.5c0.1-0.3,0.7-1,0.7-1
	s0.2,1,0.3,1.3c0.2,0.6,0.5,1.9,0.9,2.4c0.2,0.3,0.2,2,0.2,2.2c0.1,0.4,1.4,0.5,1.4,0.5s-0.1-0.7,0-0.9c0.1-0.2,0.4-0.5,0.5-0.7
	c0.1-0.6-0.3-1.7-0.4-2.2c-0.1-0.6-0.3-2,0-2.6c0.1-0.1,0.4-0.2,0.4-0.3c0.5-1.1-0.7-5-0.8-4.9c-0.2,0.1-2.1,1.3-3.6,0.7
	c-1.1-0.4-2.5-2.5-3.6-2.8c-1.6-0.4-4.9,0.4-6.3,1.1c-0.6,0.3-1.9,1.5-2.5,1.7C376.4,71.6,374.7,70.2,374.7,70.2z"/>
<path opacity="0.4" fill="#461919" enable-background="new    " d="M375.2,5.1h-0.8c0,0-1.3,0.9-1.7,1.3c-0.5,0.5-1.3,1.8-1.5,2.5
	c-0.3,0.7-0.6,2.3-0.7,3c0,0.2,0,0.7,0,0.9c0,0.3-0.4,0.8-0.4,1c0,0.3,0.4,1,0.7,1.1c0.3,0.1,1-0.4,1.2-0.7c0.5-0.7,0.5-2.6,0.7-3.5
	c0.1-0.7,0.3-2.1,0.6-2.7c0.3-0.6,1.1-1.7,1.5-2.3C374.9,5.6,375.2,5.1,375.2,5.1z"/>
<path fill="#871B1A" d="M375.4,4.8c0.1-0.4,0.2-1.5,0-1.8s-1.5-0.7-1.8-0.5c-0.3,0.1-0.4,0.7-0.4,1s0.8,1.4,1,1.6
	c0.2,0.2,0.6,0.2,0.8,0.1C375.2,5.2,375.3,5,375.4,4.8z"/>
<path fill="#063C4C" d="M370.5,12.8c0,0-1.6,0.8-3,0.6c-0.8-0.1-2.4-0.9-3-1.4c-1.1-0.9-3.4-4.2-3.4-4.2l-0.4,1c0,0,2.6,3.4,3.7,4.2
	c0.7,0.5,2.2,1.2,3,1.3c1.2,0.1,2.7-0.8,2.7-0.8L370.5,12.8z"/>
<path fill="#063C4C" d="M364.5,20.3c0,0-0.4,0.3-0.5,0.5c0,0.2,0.3,0.5,0.2,0.7c-0.1,0.2-0.5,0.4-0.7,0.6s-1,0.1-1,0.3
	c-0.2,0.4,0.3,2,0.5,2c0.3,0,0.5-0.7,0.6-0.9c0.2-0.3,0.7-0.9,0.8-1.2c0-0.2-0.1-0.5,0-0.7c0.1-0.1,0.4-0.4,0.4-0.4L364.5,20.3z"/>
<path fill="#063C4C" d="M365.7,22.2c0,0-0.7,0.1-0.8,0.3c-0.1,0.2,0.1,0.8,0,1s-0.7,0.6-0.7,0.8c-0.1,0.2,0.3,0.8,0.4,1.1
	c0.2,0.2,0.8,0.9,1,0.8c0.1-0.1,0.5-1.2,0.5-1.7c0-0.3-0.3-0.8-0.3-1.1C365.7,23.1,365.7,22.2,365.7,22.2z"/>
<path fill="#051A19" d="M363.6,11c0,0,0,2.6,0.1,3.5c0.1,1.3,0.6,4,1.1,5.3c0.2,0.6,0.7,1.9,1.1,2.3c0.4,0.5,1.6,1.1,2.2,1.2
	c0.6,0,1.5-0.3,1.9-0.7c0.4-0.4,0.7-1.8,0.7-1.8l0.3-1c0,0-0.1,2.9-0.5,3.2c-0.5,0.5-1.8,1-2.5,1.1c-0.5,0.1-1.7-0.2-2.1-0.5
	s-0.9-1.1-1.1-1.5c-0.5-1.1-0.7-3.6-1-4.7c-0.2-0.7-0.5-2.2-0.6-2.9c-0.1-1,0-4.1,0-4.1L363.6,11z"/>
<path opacity="0.8" fill="#651A13" enable-background="new    " d="M306,5.1c-2.5,2.3-0.5,3.7-6.2,7.2c-1.2,0.7,0.2,21.1,0,27.9
	c-0.1,3-1.6,6.4,0.3,8.8c1.2,1.5,5,5.8,6.6,4.7c1.4-0.9,0-5.5,1.3-6.6c2.2-1.8,8.7-0.8,11.5,0c1.8,0.5,5.9,5.5,6.3,3.7
	c1.1-5.9,1.4-10.5,2-14c0.8-5.2,0.4-18.2,3.6-20.5c1.8-1.3,9.8-5.4,7.6-6.8c-1.3-0.8-4.2-2-5.6-2.9c-0.7-0.5-2.5-1.5-2.9-2.2
	c-0.3-0.5-0.2-1.9-0.7-2.3c-1.6-1.5-6.3-2-8.5-2.2c-1.2-0.1-3.7,0-4.9,0.3c-0.8,0.2-2,1.3-2.8,1.4c-0.6,0.1-2-0.3-2.6-0.1
	C309.1,2.1,307.4,3.8,306,5.1z"/>
<path fill="#651A13" d="M300.1,13.4c0.4-3.9-9.1,11-10.2,14.8c-1.2,4.3,1.6,12.6,1.7,15.4c0,0.8,8.2-5.7,8.2-6.5
	c0-1.6-0.3-6.4-0.3-9C299.6,24.5,300.1,13.9,300.1,13.4z"/>
<path fill="#651A13" d="M299.2,6.2c-0.2,0.2,1.1,5.1,2.2,5.5c0.6,0.2,1.6-0.6,1.5-1.3c-0.2-1.4,0.3-5.1,0.1-5.3
	C302.4,4.4,299.7,5.7,299.2,6.2z"/>
<path fill="#651A13" d="M339.2,5.5c-0.6,0.5,0,4.4,0.4,5.1c0.2,0.4,0.7,0.4,1.1,0.3c1-0.4,2.5-4,1.9-5C342.3,5.3,339.8,5,339.2,5.5z
	"/>
<path fill="#651A13" d="M410.3,26.5c0.6,0.6,2.5,1,3.2,0.6c1.3-0.7,1.6-3.9,2.3-5.6c0.4-1-2.4-2.3-3.4-2.4c-0.8-0.1-3.2,0.4-3.1,1.3
	C409.5,22.5,409.3,25.4,410.3,26.5z"/>
<path fill="#651A13" d="M389.8,24.1c-1.1-0.6-2-3.6-2.5-4.8c-0.4-1.1,3.1-2.9,4.1-2.3c0.4,0.2,0,1.3,0,1.8c0,1.2,0.7,3.8,0,4.7
	C391,24,390.3,24.4,389.8,24.1z"/>
<path fill="#651A13" d="M412.9,40.1c-1.3,0.2-1.7,3.4-2.3,4.6c-0.4,0.9-1.5,3.5-1.9,3.9s-9.5-2.1-9.5-2.3c0.1-2.1-1.8-6.8-0.5-8.5
	c0.4-0.4,5.5-2.5,6.7-3.7c0.8-0.9-0.3-1.6,0.7-2.4c1.1-0.9,4.2-2,5.2-1.6c1.7,0.7,4.8,2.9,5.9,4.4c1.2,1.6,3.1,8.3,2.8,8.6
	c-0.2,0.2-1.6,2.2-2.5,2.1C417.4,45.1,414.6,39.9,412.9,40.1z"/>
<path fill="#651A13" d="M387.8,25.9c-0.3-0.2-3.5,1.6-4.3,2.6c-1.5,1.9-3,7.8-2.7,9C381.6,40.8,388.1,26.1,387.8,25.9z"/>
<path fill="#651A13" d="M374.2,61.8c-0.3,2.1-3.4,7.3-3.9,7.5c-0.3,0.1-0.3-4.8,0.1-6.3c0.4-1.4,3.1-5.1,3.1-5.1
	S374.4,60.8,374.2,61.8z"/>
<path opacity="0.4" fill="#2C1A15" enable-background="new    " d="M301.5,30.9c-0.2,0-2.6,1.4-2.7,1.7c-0.1,0.4,1.5,3,1.9,3.1
	c0.3,0.1,2.9-2.4,2.9-2.8C303.4,32.6,301.8,30.9,301.5,30.9z"/>
<path opacity="0.4" fill="#2C1A15" enable-background="new    " d="M308.6,32.1c-0.7,0-4.3,1.4-4.3,1.7c0,0.2,2,3.5,2.5,3.6
	c0.3,0.1,4.4-2.3,4.4-2.7C311.2,34.5,308.9,32.1,308.6,32.1z"/>
<path opacity="0.4" fill="#2C1A15" enable-background="new    " d="M316.4,33.5c-0.6,0-4.5,2-4.5,2.4s3.2,3.4,3.6,3.4
	c0.3,0,3.9-3.2,3.9-3.6C319.4,35.3,316.9,33.5,316.4,33.5z"/>
<path opacity="0.4" fill="#2C1A15" enable-background="new    " d="M324.7,33.4c-0.7,0-4.4,2.5-4.4,2.9s3.7,2.9,4.1,2.9
	c0.2,0,3.5-2.2,3.3-3.1c-0.1-0.2-0.3-1.3-0.6-1.7C326.7,33.7,325,33.4,324.7,33.4z"/>
<polygon fill="#D6CAA2" points="300.6,31.9 302,32.1 301.3,32.8 302.6,33 300.6,34.3 299.4,32.8 300.7,32.9 "/>
<polygon fill="#D6CAA2" points="307,33.1 309.1,33.5 308,34.2 310.3,34.8 307,36.6 305.4,34 307.2,34.3 "/>
<polygon fill="#D6CAA2" points="314.9,34.5 317.2,34.7 316.5,35.5 318.5,35.7 315.8,38.1 313.2,35.9 315.5,35.7 "/>
<polygon fill="#D6CAA2" points="323.4,34.6 325.7,34.4 325.2,35.3 327.1,35.3 324.3,38 321.7,36.2 323.8,35.8 "/>
<path opacity="0.4" fill="#2C1A15" enable-background="new    " d="M325.1,11c0-0.2,3.3-3.1,4.7-3c1.1,0.1,3.5,2.9,3.5,2.9l-2,1.7
	c0,0-1.9,1.3-2.6,1.2C327.5,13.7,325.2,12.2,325.1,11z"/>
<path opacity="0.4" fill="#2C1A15" enable-background="new    " d="M324.2,10.9c0-0.4-2.8-1.6-3.2-1.6c-0.5,0-3.9,1.7-3.9,2.3
	c0,0.4,2.3,2.6,2.7,2.6C320.6,14.2,324.2,11.6,324.2,10.9z"/>
<path opacity="0.4" fill="#2C1A15" enable-background="new    " d="M314.5,11.2c0-0.3-1.9-2.1-2.3-2.1c-0.7,0-4.1,1.6-4.1,2.1
	c0,0.4,2.2,2.7,2.7,2.7C311.3,13.8,314.5,11.8,314.5,11.2z"/>
<path opacity="0.4" fill="#2C1A15" enable-background="new    " d="M306.6,10.9c0-0.2-1.5-1.9-1.7-1.9c-0.3,0-2.1,0.8-2,1
	c0.1,0.7-0.2,1-0.5,1.3c-0.1,0.1,0.9,1.8,1,1.8C303.7,13.2,306.6,11.1,306.6,10.9z"/>
<path opacity="0.4" fill="#2C1A15" enable-background="new    " d="M310.9,19.9c0.3,0,2.7,3.2,2.6,3.6c-0.2,0.4-3.9,3-4.2,2.9
	c-0.3-0.1-2.7-3.4-2.7-3.8C306.6,22.1,310.5,19.9,310.9,19.9z"/>
<path opacity="0.4" fill="#2C1A15" enable-background="new    " d="M318.5,19.9c-0.5,0-4.4,3.2-4.4,3.6c0,0.3,3.3,3.4,3.7,3.4
	c0.5,0,4.7-2.9,4.7-3.5C322.4,22.8,318.8,19.8,318.5,19.9z"/>
<path opacity="0.4" fill="#2C1A15" enable-background="new    " d="M327,19.9c-0.5,0-4,3-4,3.5c0,0.4,3.5,3.5,3.8,3.4
	s2.1-2.1,2.4-3.1c0.1-0.3,0.1-1.1,0-1.4C329,21.6,327.4,19.9,327,19.9z"/>
<path opacity="0.4" fill="#2C1A15" enable-background="new    " d="M302.1,18.6c0.4,0,2,3.1,2,3.4c-0.1,0.3-2.9,2.9-3.1,2.9
	c-0.5,0-1.4-1.2-1.4-1.2l0.2-3C299.8,20.7,301.8,18.6,302.1,18.6z"/>
<polygon fill="#D6CAA2" points="327.1,10.6 329,12.4 331.6,10.1 329.7,10.1 330.9,9.4 328.3,9.4 328.7,10.1 "/>
<polygon fill="#D6CAA2" points="320,10.5 322.1,10.5 321.2,11.1 323,11.1 320,13.2 318.3,11.4 319.8,11.4 "/>
<polygon fill="#D6CAA2" points="311,10 312.7,10 311.8,10.9 313.7,10.9 311.2,12.8 309.5,10.9 310.9,10.9 "/>
<polygon fill="#D6CAA2" points="303.9,9.6 305.2,10 304.6,10.9 305.7,10.9 303.9,12.2 302.8,10.9 304,10.9 "/>
<path fill="#D6CAA2" stroke="#2C130E" stroke-miterlimit="10" d="M310.2,21.7c-0.1,0.2-1.8,1-1.8,1l1.5,1.4l1.6-1L310.2,21.7z"/>
<polygon fill="#D6CAA2" stroke="#2C130E" stroke-miterlimit="10" points="318.3,21.9 316,23.3 317.7,24.9 319.9,23.1 "/>
<polygon fill="#D6CAA2" stroke="#2C130E" stroke-miterlimit="10" points="326.7,21.5 324.8,23.1 326.6,24.1 328.4,22.6 "/>
<polygon fill="#D6CAA2" stroke="#2C130E" stroke-miterlimit="10" points="301.5,20.5 302.5,21.7 300.8,23.1 300.8,21 "/>
<path fill="#153F69" d="M304.2,12c0,0-0.9,0.2-1.1,0.4c-1.4,1.1-4.2,5.9-4.2,5.9l-1,1.8c0,0,0.8,0.8,1.1,0.4s0.8-0.5,0.8-0.5
	l0.9,0.6l1.5,1.3l0.6-1l0.9-3.3l0.4-4.1V12H304.2z"/>
<path fill="#0E634E" d="M301.4,23.5c0,0-1.1-0.2-1.4,0c-0.4,0.3-0.8,1.9-0.8,1.9l-1.4,5.5h1.3c0,0,1.6-0.1,2-0.5s0.3-2.1,0.3-2.1
	V23.5z"/>
<path fill="#153F69" d="M301,35.1c0,0-1.1,0.5-1.4,0.6c-1.9,1.2-3.8,7.2-3.8,7.2l1,0.3l0.7-1l0.9,1l1.1-0.4l1.1-4.6l0.4-2.1
	L301,35.1L301,35.1z"/>
<path fill="#CE3327" d="M311.2,12.8c0,0-1.6,0.6-2,0.8c-0.5,0.3-1.5,1-1.8,1.5c-0.5,0.8-0.8,3.6-0.8,3.6l-0.6,1.7l1.3,0.7h1.7h0.9
	l0.3-0.6l1-3.6c0,0,1-2.7,0.7-3.5C311.8,13.2,311.2,12.8,311.2,12.8z"/>
<path fill="#651A13" d="M319.7,12.7l0.9-0.3c0,0,0.6,1,0.8,1.4c0.4,1.3,0.8,5.5,0.8,5.5l-1.2,1.6l-1.7,0.7l-0.3-1l-1,0.6h-1.4v-1
	c0,0,1-5.2,2-6.6C318.7,13.2,319.7,12.7,319.7,12.7z"/>
<path fill="#CE3327" d="M329.4,11.8c0,0-1.3,0.2-1.6,0.6c-0.9,1-1.3,5.5-1.3,5.5l1.4,0.6l0.7,0.9l0.8-1V11.8z"/>
<path fill="#0E634E" d="M326.6,24c0,0-1.1,0.1-1.4,0.3c-1.2,1.1-2,6.2-2,6.2l1.7,1.1l0.5,1.5l0.8-0.6c0,0,0.7-2.8,0.8-3.7
	C327.1,27.7,326.6,24,326.6,24z"/>
<path fill="#153F69" d="M317.7,25.2l-1.3,0.6c0,0-0.7,0.5-0.9,0.7c-0.9,1.3-1.8,6-1.8,6l1.8,0.6l0.2-0.5c0,0,0.4,1.1,0.7,1.3
	c0.3,0.2,1.3,0,1.3,0h1c0,0,0.4-1.2,0.4-1.7c0.1-1.3-0.7-5.2-0.7-5.2v-1.3L317.7,25.2z"/>
<path fill="#651A13" d="M309,24.5c0,0-1.6,0.8-2,1.2c-0.7,0.8-1.9,4-1.9,4l-1,3.1h2.2l1.1,0.8L309,34l0.9-1.2v-7.1L309,24.5z"/>
<path fill="#CE3327" d="M307.4,35.1c0,0-1.3,1-1.6,1.3c-1.3,1.4-2.9,6.5-2.9,6.5l0.5,2.2h2l0.6,1.1l0.8-1.1c0,0,1.3-4.2,1.5-5.7
	c0.1-1,0-3.8,0-3.8L307.4,35.1z"/>
<path fill="#651A13" d="M315.6,37.2c0.2-0.2,1.1,0,1.1,0s-0.4,2.6-0.4,3.5c-0.1,1.8,0.2,7.2,0.2,7.2l-1.9,0.3l-1.1,0.8l-0.5-1.1
	l-0.7-0.8C312.3,47.1,313.5,38.7,315.6,37.2z"/>
<path fill="#CE3327" d="M323.2,37.3c0.5-0.3,2.4,0,2.4,0s1.2,7.6,0,9.7c-0.3,0.4-1.7,1-1.7,1s0.2-3.6,0.2-3c0,0.5-2.2,3-2.2,3
	l-1.3-0.3l-0.8-0.5l1-2.2c0,0,0.1-2.4,0.2-3.2C321.3,40.5,322.1,38,323.2,37.3z"/>
<path fill="#461919" d="M299.7,48c0,0-1.7,0.9-2,1.4c-0.7,1-1.1,3.5-1.3,4.7c-0.2,1.3,0.3,3.9,0,5.1c-0.2,0.9-1.7,3.5-1.7,3.5h1.1
	l0.6-0.9c0,0,0.6,0.3,0.7,0.4c0.2,0.1,0.9,0.4,0.9,0.4l1.2-1.2l1.5,1.2c0,0-0.2-2.9-0.2-3.8c0-0.9,0.1-3.6,0.1-3.6l0.8,0.5
	c0,0,0.3,2,0.4,2.6c0.2,0.8,0.7,2.3,0.8,3c0.1,0.7,0,2.7,0,2.7l1.7-1.5c0,0,1.1,1.1,1.4,1.5c0.4,0.5,1.6,2.1,1.6,2.1s0.6-2,0.6-2.7
	c0.1-1.4-0.2-4.3-0.4-5.7c-0.2-0.8-0.8-2.4-1-3.2c-0.2-0.7-0.5-2.7-0.5-2.7s0.9-1.2,0.9-1.7c0-0.6-0.4-2.2-1-2.4
	c-0.5-0.1-1.2,0.9-1.5,1.3c-0.3,0.4-0.5,1.3-0.6,1.7c-0.3,0.7-0.1,2.1-0.9,2.1c-0.4,0-0.5-0.4-0.6-0.6c-0.2-0.5-0.4-1.4-0.9-1.7
	c-0.3-0.2-1.4,0.3-1.4,0.3l0.3-2L299.7,48z"/>
<path fill="#461919" d="M312.3,45c-0.7,0.2-1.5,1.8-1.5,2.5c0,0.6,1.1,2.5,0.7,3.1c-0.3,0.4-1.4,0.5-1.7,0.8
	c-0.7,0.7-1.7,2.6-1.9,3.6c-0.3,1.6,0.6,5,1,6.6c0.4,1.4,2.3,5.4,2.3,5.4l0.4-3.5l1.4,1.2l0.4-1.9c0,0,0.8,2.7,1.6,3.2
	c0.5,0.3,2.4,0.1,2.4,0.1s-0.6-3.4-0.5-4.5c0.1-0.7,0.6-2,0.9-2.6c0.2-0.5,0.2-1.5,0.2-2.1c0-0.7,0.2-2.1-0.2-2.7
	c-0.5-0.9-2.2-2.1-2.8-3c-0.3-0.5-1-1.6-1-2.2c0-0.4,0.5-1.2,0.4-1.6C314.3,46.8,313,44.9,312.3,45z"/>
<path fill="#461919" d="M318.6,46.1c1-0.1,2.2,2,2.4,3c0.3,1-0.5,3.1-0.4,4.1c0.1,1.2,0.8,3.4,1,4.5c0.2,1.9,0,7.8,0,7.8l-0.6,2.7
	l-1.5-2.8h-0.9c0,0-0.6-3.5-0.6-4.6c0-1.2,0.9-3.6,1-4.8c0-1.1-0.3-3.2-0.4-4.2c-0.1-0.7-1.2-2.4-1.2-3.2
	C317.4,47.8,318,46.2,318.6,46.1z"/>
<path fill="#461919" d="M324.1,48.4c-0.8,0-1.3,2.1-1.4,2.9c-0.1,0.6,0.9,1.9,1,2.5c0.2,1.5-0.2,4.6-0.3,6.1c-0.1,1-0.7,3.9-0.7,3.9
	l1.8,4.6c0,0,0.4-1,0.5-1.4c0.2-0.5,0.7-1.6,0.9-2.1c0.4-1.1,0.9-3.4,1-4.5c0.2-2-0.4-5.2-1.1-7.1c-0.2-0.5,0.6-2.4,0.3-2.8
	C325.6,49.9,324.8,48.4,324.1,48.4z"/>
<path fill="#701345" d="M406.1,53.5c0.3,0.1,0.4,1,0.6,1.2c0.1,0.2,0.6,0.3,0.7,0.5c0.2,0.4,0,1.7,0,1.7l-2,0.9c0,0-0.9-0.6-1.1-0.9
	c-0.1-0.4,0.1-1.2,0.3-1.6c0.1-0.4,0.4-1.1,0.7-1.4C405.5,53.7,405.9,53.4,406.1,53.5z"/>
<path fill="#999A36" d="M404.6,51.1c0,0,0.5,0.7,0.5,0.9c0,0.4-0.5,1.4-0.5,1.4s-0.7,0.3-0.9,0.3c-0.1,0-0.4-0.1-0.5-0.3
	s-0.1-0.9,0-1.1C403.3,51.9,404.6,51.1,404.6,51.1z"/>
<path fill="#CE3327" d="M404.8,61.5c-0.4,0.2-1,1-1,1.4c0,0.3,0.4,1,0.6,1.2c0.4,0.4,2,1,2,1s1.2-0.7,1.4-1.1c0.3-0.6,0.9-2,0.5-2.5
	c-0.2-0.4-1.3-0.5-1.7-0.3c-0.2,0.1-0.3,0.5-0.5,0.5C405.7,61.8,405.1,61.3,404.8,61.5z"/>
<path fill="#438940" d="M330.3,41c-0.2,0.5-0.4,1.5-0.3,2c0.1,0.4,0.8,1.1,1.2,1.2c0.4,0.1,1.1-0.7,1.5-0.8c0.2-0.1,0.8,0.1,1,0
	c0.4-0.2,0.9-1.4,0.9-1.4l-1.4-3.2c0,0-0.7-0.4-0.9-0.3C331.6,38.7,330.6,40.2,330.3,41z"/>
<path fill="#A22065" d="M333.3,43.9c0.1,0.4,0.3,1.1,0.5,1.4c0.2,0.2,0.8,0.2,0.9,0.4c0.3,0.6,0,2.2-0.4,2.7
	c-0.3,0.4-1.9,0.9-1.9,0.9s-1.7-0.5-2-1c-0.2-0.3-0.3-1.1-0.3-1.4c0.1-0.6,0.8-1.5,1.2-2c0.2-0.3,0.5-0.9,0.5-0.9l1-0.6
	C332.7,43.4,333.2,43.7,333.3,43.9z"/>
<path fill="#461919" d="M336.9,28.3l-8.6,2c0,0,0.2,0.3,0,0.8c-0.6,1-0.1,2.1-0.3,3.8c-0.1,1.4,2.3,0.3,3,1.6c0.6,1.1,2,3,2.4,4.1
	c0.2,0.5,0.3,2.2,0.3,2.2s2.5,0.2,3.1-0.2c1.2-0.7,2.5-3.4,2.8-4.8c0.2-0.6,0-2.4,0-2.4l12.2-8.7l-3.5-2.7l-8.9,1.3L338,28
	L336.9,28.3z"/>
<path fill="#651A13" d="M346.7,18.8c0,2.3-1.8,0.9-1.3,3.2c0.3,1.5-0.6,4.9-1.5,5.2c-5.5,2.2-14.2,4.1-15.2,3.7
	c-0.9-0.3-1.8-1.6-1.2-3.5c0.5-1.7,0.4-8.7,3.8-11.2s5.1-6,7.7-6.1c2.1-0.2,6.2,2.6,7.2,4.5C346.7,15.5,346.7,17.8,346.7,18.8z"/>
<path fill="#211C57" d="M341.9,35.9c-0.3-0.4-1.2-0.9-1.6-0.9c-0.5,0-1.3,0.7-1.6,1.1c-0.3,0.4-0.5,1.5-0.3,2
	c0.2,0.4,1.1,0.8,1.5,0.8s1.7-0.5,1.7-0.5s0.4-1.1,0.5-1.4C342,36.7,342,36.1,341.9,35.9z"/>
<path fill="#211C57" d="M335,35.1c-0.6-0.1-1.9,0.5-2.2,1c-0.3,0.6-0.1,2,0.3,2.5c0.3,0.5,2,1.5,2,1.5s1.3-1,1.5-1.4
	c0.2-0.5,0.3-1.7,0-2.2C336.4,36,335.5,35.2,335,35.1z"/>
<path fill="#CE3327" d="M341.3,32.6c-0.4,0.1-1.1,0.9-1.2,1.3c-0.1,0.3,0.2,1,0.4,1.3c0.3,0.5,1.9,1.3,1.9,1.3s1.3-0.5,1.5-0.9
	c0.4-0.5,1.1-1.9,0.9-2.5c-0.2-0.4-1.2-0.7-1.7-0.6c-0.2,0-0.4,0.4-0.6,0.5C342.2,33,341.6,32.5,341.3,32.6z"/>
<path fill="#871B1A" d="M344.1,24.8c-0.3,0.2-0.8,0.7-1,1c-0.3,0.5-1,1.5-1,2.1c0,0.4,0.3,1.1,0.6,1.3c0.2,0.2,1,0,1.2,0.2
	s0.1,0.9,0.3,1.1c0.4,0.3,1.4,0.2,1.9,0.3c0.2,0,0.6,0.2,0.8,0.1c0.8-0.3,1.7-1.9,2.2-2.5c0.3-0.3,0.9-0.8,1.1-1.2
	c0.1-0.2,0.1-0.8,0-1.1c-0.1-0.3-0.8-0.6-1-0.9s-0.1-1.1-0.3-1.3c-0.3-0.3-1.2-0.6-1.6-0.6C346.4,23.3,344.8,24.2,344.1,24.8z"/>
<path fill="#871B1A" d="M339.4,28.7c0.5,0.1,0.9,1.8,0.9,1.8s-0.6,1.2-0.8,1.6c-0.5,0.8-2.2,3.1-2.2,3.1l0.7,1.2c0,0,0.3,1,0.2,1.4
	c-0.1,0.2-0.5,0.7-0.7,0.8s-1,0.3-0.9,0.1c0.4-0.9-0.1-2-0.1-2.3c-0.1-0.5-1-1.2-1.5-1.2c-0.3,0-0.8,0.7-1.1,0.5
	c-0.3-0.2-0.3-1.2,0-1.5c0.4-0.5,1.9-0.2,2.3-0.7c0.3-0.3,0-1.3,0.2-1.7C336.8,30.8,338.4,28.5,339.4,28.7z"/>
<path fill="#5D0C0E" d="M331.3,26.5c-0.4-0.2-1.4,0.4-1.7,0.7c-0.4,0.5-0.5,1.9-0.4,2.6c0,0.4,0.3,1.2,0.6,1.3
	c0.3,0.1,1.2-0.7,1.2-0.7l-0.7,1.5c0,0,0,1.2,0.3,1.5c0.3,0.2,1.1,0.4,1.4,0.2c0.7-0.5,0.9-2.5,0.9-3.4c0-0.6-0.6-1.6-0.8-2.1
	C331.8,27.7,331.7,26.7,331.3,26.5z"/>
<path fill="#5D0C0E" d="M338.6,27.3c-0.6-0.2-2.1,0.4-2.6,0.9c-0.3,0.3-0.6,1.2-0.7,1.6c-0.1,0.6,0.1,2.5,0.1,2.5s1.7-0.3,1.9-0.5
	c0.8-0.7,2-2.1,2.2-3.2C339.5,28.3,339,27.4,338.6,27.3z"/>
<path fill="#9BC688" d="M342.4,28.5c-0.1,0-1.4,0.7-1.6,1.1c-0.3,0.4-0.4,1.6-0.3,2.1s0.7,1.8,1.2,1.9c0.5,0.1,1.3-1,1.9-1
	c0.3,0,0.9,0.4,1.1,0.5s2.4-2.1,2.3-2.2c-0.2-0.2-2.3-0.3-2.8-0.8c0,0-0.1-1.2-0.4-1.4c-0.3-0.1-0.7,0.6-1,0.5
	C342.5,29.1,342.6,28.5,342.4,28.5z"/>
<path fill="#9BC688" d="M329.6,30.8c0,0-0.7-0.8-1-0.7c-0.7,0.2-1,2-1.1,2.7c0,0.8,0.9,3,0.9,3s1.5-0.6,1.8-1.1s0-2.4,0-2.4
	L329.6,30.8z"/>
<path fill="#9BC688" d="M335.3,32.9c0,0-2.9-0.4-3.5,0.2c-0.3,0.3,0.1,1.3,0,1.8c-0.1,0.6-1.1,1.6-0.8,2.1c0.2,0.4,1.2,0.4,1.6,0.2
	c0.5-0.2,1.1-1.2,1.3-1.6c0.2-0.3,0.1-1.2,0.3-1.5c0.3-0.3,1.4-0.5,1.4-0.5L335.3,32.9z"/>
<path fill="#9BC688" d="M338.4,38.1c0,0-1.3,0.3-1.5,0.6c-0.3,0.3-0.3,1.2-0.2,1.6c0.1,0.7,0.8,2.4,1.5,2.4c0.6,0.1,1.6-1.7,1.6-1.7
	s0.5-1.5,0.3-1.9C339.7,38.7,338.4,38.1,338.4,38.1z"/>
<path fill="#9BC688" d="M332.3,38c-0.6,0.1-2.1,0.2-2.3,0.8c-0.3,0.7,1.3,2.7,1.3,2.7s0.3,0,0.4,0c0.4,0,1.2,0.1,1.6-0.1
	c0.3-0.2,0.7-0.9,0.7-1.3c0.1-0.5-0.2-1.6-0.6-1.9C333.1,38,332.5,38,332.3,38z"/>
<path fill="#CE3327" d="M334.1,39.5c-0.4,0.1-1.1,0.9-1.2,1.3c-0.1,0.3,0.2,1,0.4,1.3c0.3,0.5,1.9,1.3,1.9,1.3s1.3-0.5,1.5-0.9
	c0.4-0.5,1.1-1.9,0.9-2.5c-0.2-0.4-1.2-0.7-1.7-0.6c-0.2,0-0.4,0.4-0.6,0.5C335.1,40,334.5,39.5,334.1,39.5z"/>
<path opacity="0.4" fill="#2C1A15" enable-background="new    " d="M377.5,56.3c-0.4-0.1-3.3,0.2-3.5,0.4c-0.1,0.1-0.5,1-0.6,1.1
	c0,0.1,0.5,2.7,0.9,3c0.2,0.2,4.7-0.9,4.8-1.3C379.3,59.2,377.8,56.4,377.5,56.3z"/>
<path opacity="0.4" fill="#2C1A15" enable-background="new    " d="M384.9,59.6c-0.5-0.2-4.7,0.7-4.8,1.1c-0.1,0.3,2.1,4,2.5,4.1
	c0.3,0.1,4.5-2,4.6-2.3C387.2,62.1,385.3,59.8,384.9,59.6z"/>
<path opacity="0.4" fill="#2C1A15" enable-background="new    " d="M392.7,61.5c-0.6-0.2-4.7,1.2-4.8,1.5c-0.1,0.4,2.7,3.7,3.1,3.8
	c0.2,0.1,3.9-1.1,3.9-2.1c0-0.2,0-1.3-0.1-1.8C394.5,62.3,393,61.5,392.7,61.5z"/>
<polygon fill="#D6CAA2" points="375.8,56.9 377.7,57.8 376.5,58.2 378.4,59.3 374.9,60.1 374.1,57.3 375.6,58 "/>
<polygon fill="#D6CAA2" points="383.2,60.2 385.3,61 384.4,61.5 386.2,62.3 383,63.7 381.2,61 383.4,61.4 "/>
<polygon fill="#D6CAA2" points="391.2,62.2 393.5,62.6 392.7,63.3 394.4,63.8 391.2,65.6 389.2,63.2 391.3,63.4 "/>
<path opacity="0.4" fill="#2C1A15" enable-background="new    " d="M398.6,42.1c0.1-0.4-2.2-2.2-2.6-2.3c-0.5-0.1-4.1,0.6-4.3,1.1
	c-0.1,0.4,1.4,3,1.9,3.1C394.4,44.2,398.4,42.7,398.6,42.1z"/>
<path opacity="0.4" fill="#2C1A15" enable-background="new    " d="M391,41c0.1-0.3-1.2-2.5-1.6-2.6c-0.7-0.2-4.2,0.4-4.4,0.9
	c-0.1,0.4,1.3,3,1.8,3.2C387.3,42.6,390.9,41.6,391,41z"/>
<path opacity="0.4" fill="#2C1A15" enable-background="new    " d="M384.4,39.1c0-0.2-1.5-1.8-1.7-1.8s-2.1,0.8-2.1,1
	c-0.1,0.4-0.4,0.9-0.4,1.3c0,0.1,1,1.7,1.2,1.7C381.7,41.3,384.4,39.3,384.4,39.1z"/>
<path opacity="0.4" fill="#2C1A15" enable-background="new    " d="M386.9,46.9c-0.5-0.1-4.9,1.8-5,2.2c-0.1,0.3,2.2,4,2.5,4.1
	c0.5,0.1,5.1-1.5,5.2-2C389.8,50.6,387.2,46.9,386.9,46.9z"/>
<path opacity="0.4" fill="#2C1A15" enable-background="new    " d="M395,49.3c-0.4-0.1-4.5,1.8-4.6,2.2s2.3,4.2,2.7,4.2
	c0.3,0,2.5-1.4,3.1-2.2c0.2-0.3,0.4-0.9,0.4-1.3C396.4,51.5,395.3,49.4,395,49.3z"/>
<path opacity="0.4" fill="#2C1A15" enable-background="new    " d="M380.3,44.6c0.4,0.1,1.5,3.6,1.4,3.9c-0.1,0.3-3.5,2.5-3.8,2.5
	c-0.5-0.1-1.2-1.5-1.2-1.5l0.7-3.1C377.5,46.4,380,44.6,380.3,44.6z"/>
<polygon fill="#D6CAA2" points="394.8,40.6 396.8,41.2 395.8,41.5 397.5,42 394.1,43.1 393,41.1 394.4,41.5 "/>
<polygon fill="#D6CAA2" points="388,39 389.6,39.4 388.6,40 390.3,40.6 387.5,41.6 386.4,39.4 387.8,39.8 "/>
<polygon fill="#D6CAA2" points="381.9,37.9 383.1,38.3 382.5,39.1 383.6,39.1 381.9,40.4 380.8,39.1 381.9,39.1 "/>
<polygon fill="#D6CAA2" stroke="#2C130E" stroke-miterlimit="10" points="386.2,48.7 383.7,49.4 384.9,51.3 387.4,50.3 "/>
<polygon fill="#D6CAA2" stroke="#2C130E" stroke-miterlimit="10" points="394.2,50.8 392,51.8 393.4,53.2 395.5,52.2 "/>
<polygon fill="#D6CAA2" stroke="#2C130E" stroke-miterlimit="10" points="379.3,46.5 380.2,47.9 378.1,49.1 378.5,46.8 "/>
<path fill="#CE3327" d="M381.5,39.9c0,0-1.5,0.5-2,0.8s-1.5,1-1.8,1.5c-0.5,0.8-0.8,3.6-0.8,3.6l-0.6,1.7l1.2,0.7h1.7h0.9l0.3-0.6
	l1-3.5c0,0,0.9-2.6,0.7-3.5C382.1,40.3,381.5,39.9,381.5,39.9z"/>
<path fill="#651A13" d="M387.5,41.2l0.9-0.3c0,0,0.6,1,0.8,1.4c0.4,1.3,0.8,5.4,0.8,5.4l-1.2,1.6l-1.7,0.7l-0.3-1l-1,0.5h-1.4v-1
	c0,0,1-5.1,2-6.5C386.5,41.7,387.5,41.2,387.5,41.2z"/>
<path fill="#CE3327" d="M395.1,43.1c0,0-1.3,0.2-1.6,0.5c-0.9,1-1.2,5.4-1.2,5.4l1.4,0.5l0.7,0.9l0.8-1v-6.3H395.1z"/>
<path fill="#0E634E" d="M393,52.3c0,0-1.1,0.1-1.4,0.3c-1.2,1.1-2,6.1-2,6.1l1.7,1.1l0.4,1.5l0.8-0.5c0,0,0.7-2.7,0.8-3.6
	C393.5,55.9,393,52.3,393,52.3z"/>
<path fill="#153F69" d="M385.5,50.4l-1.2,0.5c0,0-0.7,0.5-0.9,0.7c-0.9,1.3-1.8,5.9-1.8,5.9l1.8,0.6l0.2-0.5c0,0,0.4,1.1,0.7,1.3
	c0.3,0.2,1.2,0,1.2,0h1c0,0,0.4-1.2,0.4-1.6c0.1-1.3-0.7-5.1-0.7-5.1V51L385.5,50.4z"/>
<path fill="#651A13" d="M378.2,49.1c0,0-1.6,0.7-2,1.2c-0.7,0.8-1.9,3.9-1.9,3.9l-1,3h2.1l1.1,0.8l1.6,0.3l0.9-1.2v-7L378.2,49.1z"
	/>
<path fill="#CE3327" d="M375.1,59.3c0,0-1.2,0.9-1.5,1.3c-1.2,1.4-2.9,6.4-2.9,6.4l0.5,2.2h1.9l0.6,1.1l0.8-1.1c0,0,1.3-4.1,1.4-5.6
	c0.1-0.9,0-3.8,0-3.8L375.1,59.3z"/>
<linearGradient id="SVGID_9_" gradientUnits="userSpaceOnUse" x1="639.5" y1="95.5" x2="639.5" y2="1522">
	<stop  offset="0" style="stop-color:#EF9651"/>
	<stop  offset="0.0641" style="stop-color:#F1A354"/>
	<stop  offset="0.2478" style="stop-color:#C68242"/>
	<stop  offset="0.3949" style="stop-color:#AC6E38"/>
	<stop  offset="0.5469" style="stop-color:#9C6231"/>
	<stop  offset="0.665" style="stop-color:#975E2F"/>
</linearGradient>
<path fill="url(#SVGID_9_)" d="M-1,95.5c0,0,52.99,12.214,90.681,29.847c41.628,19.475,182.543,90.756,224.323,109.903
	c107.668,49.344,458.297,120.003,458.297,120.003L1280,418.521V1522H-1V95.5z"/>
<path fill="#651A13" d="M382.3,63.2c0.2-0.2,1.1,0,1.1,0s-0.4,2.6-0.4,3.4c-0.1,1.8,0.2,7.1,0.2,7.1l-1.9,0.3l-1.1,0.8l-0.5-1.1
	l-0.7-0.8C379.1,72.9,380.2,64.7,382.3,63.2z"/>
<path fill="#CE3327" d="M389.6,65.4c0.5-0.3,2.3,0,2.3,0s1.2,7.4,0,9.5c-0.2,0.4-1.7,1-1.7,1s0.2-3.5,0.2-2.9c0,0.5-2.1,2.9-2.1,2.9
	l-1.2-0.3l-0.8-0.5l1-2.2c0,0,0.1-2.4,0.2-3.2C387.7,68.5,388.6,66,389.6,65.4z"/>
<linearGradient id="SVGID_10_" gradientUnits="userSpaceOnUse" x1="-4424.5889" y1="1916.2247" x2="-4424.5884" y2="486.5" gradientTransform="matrix(-1 0 0 -1 -3784.5886 2009.5)">
	<stop  offset="0" style="stop-color:#EF9651"/>
	<stop  offset="0.0641" style="stop-color:#F1A354"/>
	<stop  offset="0.2478" style="stop-color:#C68242"/>
	<stop  offset="0.3949" style="stop-color:#AC6E38"/>
	<stop  offset="0.5469" style="stop-color:#9C6231"/>
	<stop  offset="0.665" style="stop-color:#975E2F"/>
</linearGradient>
<path fill="url(#SVGID_10_)" d="M1281,1523V95.5c0,0-2,0-3.5-0.2c-7.6-0.9-30.1-3.5-34.9-0.9c-42.3,22.3-113.2,82.3-152,79.4
	c-59.4-4.5-387.5,105.5-424.5,108.5L-1,352.9V1523H1281z"/>
</svg>
