<?xml version="1.0" encoding="utf-8"?>
<!-- Generator: Adobe Illustrator 17.0.0, SVG Export Plug-In . SVG Version: 6.00 Build 0)  -->
<!DOCTYPE svg PUBLIC "-//W3C//DTD SVG 1.1//EN" "http://www.w3.org/Graphics/SVG/1.1/DTD/svg11.dtd">
<svg version="1.1" id="Layer_1" xmlns="http://www.w3.org/2000/svg" xmlns:xlink="http://www.w3.org/1999/xlink" x="0px" y="0px"
	 width="1198.7px" height="494.9px" viewBox="31 17.4 1198.7 494.9" enable-background="new 31 17.4 1198.7 494.9"
	 xml:space="preserve">
<linearGradient id="SVGID_1_" gradientUnits="userSpaceOnUse" x1="10819.7529" y1="3011.3777" x2="10819.7529" y2="3011.3777" gradientTransform="matrix(-1 0 0 -1 11103.0527 3276.5)">
	<stop  offset="0" style="stop-color:#ECF8FE"/>
	<stop  offset="1" style="stop-color:#FFF25D"/>
</linearGradient>
<path opacity="0.2" fill="url(#SVGID_1_)" enable-background="new    " d="M283.3,265.1L283.3,265.1
	C283.3,265.1,283.3,265.2,283.3,265.1L283.3,265.1z"/>
<radialGradient id="SVGID_2_" cx="784.2511" cy="3175.4182" r="11.0123" gradientTransform="matrix(1 0 0 -1 342.5 3276.5)" gradientUnits="userSpaceOnUse">
	<stop  offset="0.1174" style="stop-color:#DEDBC0"/>
	<stop  offset="1" style="stop-color:#FFFFFF;stop-opacity:0"/>
</radialGradient>
<path fill="url(#SVGID_2_)" d="M1126.5,89.1c0,0-1.4,7.2-2.8,8.5c-1.7,1.6-6.9,3.2-6.9,3.2s5.4,1.8,7,3.7c1.4,1.6,3.2,8.7,3.2,8.7
	s1.6-7.2,3-8.9c1.4-1.7,6.5-4.1,6.5-4.1s-5.3-1.2-6.9-2.7C1128.4,96.1,1126.5,89.1,1126.5,89.1z"/>
<radialGradient id="SVGID_3_" cx="880.8499" cy="2897.0464" r="7.0127" gradientTransform="matrix(1 0 0 -1 342.5 3276.5)" gradientUnits="userSpaceOnUse">
	<stop  offset="0.1174" style="stop-color:#DEDBC0"/>
	<stop  offset="1" style="stop-color:#FFFFFF;stop-opacity:0"/>
</radialGradient>
<path fill="url(#SVGID_3_)" d="M1223.2,371.8c0,0-0.9,4.6-1.8,5.4c-1.1,1-4.4,2-4.4,2s3.4,1.1,4.5,2.3c0.9,1,2.1,5.5,2.1,5.5
	s1-4.6,1.9-5.7s4.2-2.6,4.2-2.6s-3.4-0.8-4.4-1.7C1224.4,376.3,1223.2,371.8,1223.2,371.8z"/>
<radialGradient id="SVGID_4_" cx="843.5867" cy="2924.8105" r="7.0158" gradientTransform="matrix(1 0 0 -1 342.5 3276.5)" gradientUnits="userSpaceOnUse">
	<stop  offset="0.1174" style="stop-color:#DEDBC0"/>
	<stop  offset="1" style="stop-color:#FFFFFF;stop-opacity:0"/>
</radialGradient>
<path fill="url(#SVGID_4_)" d="M1185.9,344c0,0-0.9,4.6-1.8,5.4c-1.1,1-4.4,2-4.4,2s3.4,1.1,4.5,2.3c0.9,1,2.1,5.5,2.1,5.5
	s1-4.6,1.9-5.7s4.2-2.6,4.2-2.6s-3.4-0.8-4.4-1.7C1187.1,348.5,1185.9,344,1185.9,344z"/>
<radialGradient id="SVGID_5_" cx="544.1764" cy="2880.3186" r="7.0158" gradientTransform="matrix(1 0 0 -1 342.5 3276.5)" gradientUnits="userSpaceOnUse">
	<stop  offset="0.1174" style="stop-color:#DEDBC0"/>
	<stop  offset="1" style="stop-color:#FFFFFF;stop-opacity:0"/>
</radialGradient>
<path fill="url(#SVGID_5_)" d="M886.5,388.5c0,0-0.9,4.6-1.8,5.4c-1.1,1-4.4,2-4.4,2s3.4,1.1,4.5,2.3c0.9,1,2.1,5.5,2.1,5.5
	s1-4.6,1.9-5.7s4.2-2.6,4.2-2.6s-3.4-0.8-4.4-1.7C887.7,393,886.5,388.5,886.5,388.5z"/>
<radialGradient id="SVGID_6_" cx="874.8188" cy="2932.45" r="11.0238" gradientTransform="matrix(1 0 0 -1 342.5 3276.5)" gradientUnits="userSpaceOnUse">
	<stop  offset="0.1174" style="stop-color:#DEDBC0"/>
	<stop  offset="1" style="stop-color:#FFFFFF;stop-opacity:0"/>
</radialGradient>
<path fill="url(#SVGID_6_)" d="M1217.1,332c0,0-1.4,7.2-2.8,8.5c-1.7,1.6-6.9,3.2-6.9,3.2s5.4,1.8,7,3.7c1.4,1.6,3.2,8.7,3.2,8.7
	s1.6-7.2,3-8.9c1.4-1.7,6.5-4.1,6.5-4.1s-5.3-1.2-6.9-2.7C1218.9,339,1217.1,332,1217.1,332z"/>
<radialGradient id="SVGID_7_" cx="447.2702" cy="3212.3999" r="7.8018" gradientTransform="matrix(1 0 0 -1 342.5 3276.5)" gradientUnits="userSpaceOnUse">
	<stop  offset="0.1174" style="stop-color:#DEDBC0"/>
	<stop  offset="1" style="stop-color:#FFFFFF;stop-opacity:0"/>
</radialGradient>
<path fill="url(#SVGID_7_)" d="M789.6,55.6c0,0-1,5.1-2,6c-1.2,1.2-4.9,2.2-4.9,2.2s3.8,1.2,5,2.6c1,1.1,2.3,6.2,2.3,6.2
	s1.1-5.1,2.1-6.3c1-1.2,4.6-2.9,4.6-2.9s-3.8-0.9-4.9-1.9C790.9,60.6,789.6,55.6,789.6,55.6z"/>
<radialGradient id="SVGID_8_" cx="404.4012" cy="3152.8403" r="7.1875" gradientTransform="matrix(1 0 0 -1 342.5 3276.5)" gradientUnits="userSpaceOnUse">
	<stop  offset="0.1174" style="stop-color:#DEDBC0"/>
	<stop  offset="1" style="stop-color:#FFFFFF;stop-opacity:0"/>
</radialGradient>
<path fill="url(#SVGID_8_)" d="M746.7,115.8c0,0-0.9,4.7-1.8,5.6c-1.1,1.1-4.5,2.1-4.5,2.1s3.5,1.1,4.6,2.4c0.9,1,2.1,5.7,2.1,5.7
	s1-4.7,1.9-5.8c0.9-1.1,4.3-2.7,4.3-2.7s-3.5-0.8-4.5-1.8C748,120.4,746.7,115.8,746.7,115.8z"/>
<radialGradient id="SVGID_9_" cx="329.1938" cy="3250.5" r="7.8842" gradientTransform="matrix(1 0 0 -1 342.5 3276.5)" gradientUnits="userSpaceOnUse">
	<stop  offset="0.1174" style="stop-color:#DEDBC0"/>
	<stop  offset="1" style="stop-color:#FFFFFF;stop-opacity:0"/>
</radialGradient>
<path fill="url(#SVGID_9_)" d="M671.5,17.4c0,0-1,5.2-2,6.1c-1.2,1.2-4.9,2.3-4.9,2.3s3.8,1.3,5,2.6c1,1.1,2.3,6.2,2.3,6.2
	s1.2-5.2,2.1-6.4c1-1.2,4.7-2.9,4.7-2.9s-3.8-0.9-4.9-2C672.8,22.4,671.5,17.4,671.5,17.4z"/>
<radialGradient id="SVGID_10_" cx="761.2498" cy="3231.0457" r="8.8533" gradientTransform="matrix(1 0 0 -1 342.5 3276.5)" gradientUnits="userSpaceOnUse">
	<stop  offset="0.1174" style="stop-color:#DEDBC0"/>
	<stop  offset="1" style="stop-color:#FFFFFF;stop-opacity:0"/>
</radialGradient>
<path fill="url(#SVGID_10_)" d="M1103.5,35.8c0,0-1.2,5.8-2.2,6.8c-1.4,1.3-5.5,2.5-5.5,2.5s4.3,1.4,5.7,2.9c1.1,1.3,2.6,7,2.6,7
	s1.3-5.8,2.4-7.1s5.3-3.3,5.3-3.3s-4.3-1-5.5-2.2C1105,41.4,1103.5,35.8,1103.5,35.8z"/>
<radialGradient id="SVGID_11_" cx="-281.2664" cy="3034.3733" r="7.8047" gradientTransform="matrix(1 0 0 -1 342.5 3276.5)" gradientUnits="userSpaceOnUse">
	<stop  offset="0.1174" style="stop-color:#DEDBC0"/>
	<stop  offset="1" style="stop-color:#FFFFFF;stop-opacity:0"/>
</radialGradient>
<path fill="url(#SVGID_11_)" d="M61,233.6c0,0-1,5.1-2,6c-1.2,1.2-4.9,2.2-4.9,2.2s3.8,1.2,5,2.6c1,1.1,2.3,6.2,2.3,6.2
	s1.1-5.1,2.1-6.3c1-1.2,4.6-2.9,4.6-2.9s-3.8-0.9-4.9-1.9C62.4,238.6,61,233.6,61,233.6z"/>
<radialGradient id="SVGID_12_" cx="-307.1" cy="3013.2939" r="4.9431" gradientTransform="matrix(1 0 0 -1 342.5 3276.5)" gradientUnits="userSpaceOnUse">
	<stop  offset="0.1174" style="stop-color:#DEDBC0"/>
	<stop  offset="1" style="stop-color:#FFFFFF;stop-opacity:0"/>
</radialGradient>
<path fill="url(#SVGID_12_)" d="M35.3,257.8c0,0-0.6,3.2-1.2,3.8c-0.8,0.7-3.1,1.4-3.1,1.4s2.4,0.8,3.2,1.6c0.6,0.7,1.4,3.9,1.4,3.9
	s0.7-3.2,1.3-4s2.9-1.8,2.9-1.8s-2.4-0.6-3.1-1.2C36.1,261,35.3,257.8,35.3,257.8z"/>
<radialGradient id="SVGID_13_" cx="-293.7745" cy="3233.9961" r="4.9414" gradientTransform="matrix(1 0 0 -1 342.5 3276.5)" gradientUnits="userSpaceOnUse">
	<stop  offset="0.1174" style="stop-color:#DEDBC0"/>
	<stop  offset="1" style="stop-color:#FFFFFF;stop-opacity:0"/>
</radialGradient>
<path fill="url(#SVGID_13_)" d="M48.6,37.1c0,0-0.6,3.2-1.2,3.8c-0.8,0.7-3.1,1.4-3.1,1.4s2.4,0.8,3.2,1.6c0.6,0.7,1.4,3.9,1.4,3.9
	s0.7-3.2,1.3-4s2.9-1.8,2.9-1.8s-2.4-0.6-3.1-1.2C49.4,40.3,48.6,37.1,48.6,37.1z"/>
<radialGradient id="SVGID_14_" cx="-126.9442" cy="2896.9209" r="4.9414" gradientTransform="matrix(1 0 0 -1 342.5 3276.5)" gradientUnits="userSpaceOnUse">
	<stop  offset="0.1174" style="stop-color:#DEDBC0"/>
	<stop  offset="1" style="stop-color:#FFFFFF;stop-opacity:0"/>
</radialGradient>
<path fill="url(#SVGID_14_)" d="M215.4,374.2c0,0-0.6,3.2-1.2,3.8c-0.8,0.7-3.1,1.4-3.1,1.4s2.4,0.8,3.2,1.6
	c0.6,0.7,1.4,3.9,1.4,3.9s0.7-3.2,1.3-4s2.9-1.8,2.9-1.8s-2.4-0.6-3.1-1.2C216.3,377.3,215.4,374.2,215.4,374.2z"/>
<radialGradient id="SVGID_15_" cx="-110.1185" cy="2911.5762" r="3.3066" gradientTransform="matrix(1 0 0 -1 342.5 3276.5)" gradientUnits="userSpaceOnUse">
	<stop  offset="0.1174" style="stop-color:#DEDBC0"/>
	<stop  offset="1" style="stop-color:#FFFFFF;stop-opacity:0"/>
</radialGradient>
<path fill="url(#SVGID_15_)" d="M232.3,361.3c0,0-0.4,2.2-0.8,2.6c-0.5,0.5-2.1,1-2.1,1s1.6,0.5,2.1,1.1c0.4,0.5,1,2.6,1,2.6
	s0.5-2.2,0.9-2.7s2-1.2,2-1.2s-1.6-0.4-2.1-0.8C232.9,363.4,232.3,361.3,232.3,361.3z"/>
<radialGradient id="SVGID_16_" cx="-252.5272" cy="2767.8833" r="3.3066" gradientTransform="matrix(1 0 0 -1 342.5 3276.5)" gradientUnits="userSpaceOnUse">
	<stop  offset="0.1174" style="stop-color:#DEDBC0"/>
	<stop  offset="1" style="stop-color:#FFFFFF;stop-opacity:0"/>
</radialGradient>
<path fill="url(#SVGID_16_)" d="M89.9,505c0,0-0.4,2.2-0.8,2.6c-0.5,0.5-2.1,1-2.1,1s1.6,0.5,2.1,1.1c0.4,0.5,1,2.6,1,2.6
	s0.5-2.2,0.9-2.7s2-1.2,2-1.2s-1.6-0.4-2.1-0.8C90.5,507.1,89.9,505,89.9,505z"/>
</svg>
