<?xml version="1.0" encoding="utf-8"?>
<!-- Generator: Adobe Illustrator 17.0.0, SVG Export Plug-In . SVG Version: 6.00 Build 0)  -->
<!DOCTYPE svg PUBLIC "-//W3C//DTD SVG 1.1//EN" "http://www.w3.org/Graphics/SVG/1.1/DTD/svg11.dtd">
<svg version="1.1" id="Layer_1" xmlns="http://www.w3.org/2000/svg" xmlns:xlink="http://www.w3.org/1999/xlink" x="0px" y="0px"
	 width="1280.395px" height="476.578px" viewBox="0 0 1280.395 476.578" enable-background="new 0 0 1280.395 476.578"
	 xml:space="preserve">
<path opacity="0.6" fill="#FFFBFD" d="M595.316,126.073c-8.648-4.022-17.97-5.409-40.559-9.666
	c-46.649-8.79-90.779,6.864-105.757,12.075c-16.587,5.771-84.645-1.917-85.42-20.423c-0.186-4.438,9.759-11.39,8.654-15.704
	c-1.219-4.758-11.955-9.634-16.827-11.085c-5.74-1.709-60.805-7.684-73.078-10.161C251.107,64.808,70.73,49.43,39.054,56.791
	C33.93,57.982,6.02,62.068,0,64.827v24.531c8.668-1.591,62.616-4.798,70.109-4.979c10.726-0.258,91.727,8.072,108.852,10.748
	c7.107,1.11,20.184,7.256,26.108,11.188c4.115,2.732,9.495,8.342,13.316,11.444c7.432,6.034,110.432,38.477,138.464,42.031
	c10.725,1.36,40.866,0,43.27,0s78.477-2.747,127.768-17.248c20.297-5.971,39.948-0.972,45.906-0.142
	c6.838,0.953,41.054,13.803,47.003,14.619c7.258,0.996,33.256,3.351,46.388-1.956c9.88-3.993,27.953-14.972,27.877-20.329
	c-0.045-3.182-21.217,6.557-29.382,7.705C627.859,147.754,602.523,129.424,595.316,126.073z"/>
<path opacity="0.6" fill="#FFFBFD" d="M389.543,98.36c3.654-3.356,15.057-5.151,17.789-9.238c1.976-2.955-0.232-11.031-2.404-13.856
	c-5.429-7.062-23.982-13.052-32.693-15.704c-9.966-3.033-30.938-5.077-41.347-6.004c-20.598-1.835-62.011-2.425-82.694-2.771
	c-14.301-0.24-42.91,0-57.213,0c-9.616,0-28.854,0.359-38.462,0c-9.276-0.347-28.002-0.656-37.02-2.771
	c-4.186-0.982-14.919-2.428-15.866-6.466c-0.318-1.356,2.526-3.587,3.846-4.157c2.412-1.041,7.934-0.075,10.577,0
	c12.276,0.347,36.759,2.642,49.04,2.771c19.604,0.207,58.765-2.425,78.367-2.771c17.305-0.306,51.924,0,69.232,0
	c16.467,0,49.501-1.751,65.867,0c12.491,1.336,37.335,6.263,49.04,10.623c18.317,6.823,17.624,21.907,16.827,25.403
	c-6.396,28.086-20.929,30.539-25.36,31.87c-4.962,1.49-15.596,0-20.795,0c-2.764,0-9.696,2.311-11.058,0
	C384.18,103.531,388.023,99.756,389.543,98.36z"/>
<path opacity="0.5" fill="#E1DBE1" d="M449.042,128.482c-16.587,5.771-84.645-1.917-85.42-20.423
	c-0.186-4.438,9.76-11.39,8.654-15.704c-1.219-4.758-11.955-9.634-16.827-11.085c-5.74-1.709-60.805-7.684-73.078-10.161
	C251.148,64.808,70.771,49.43,39.096,56.791c-5.124,1.191,27.823-1.952,164.469,14.674c28.329,3.447,86.806,15.212,112.279,28.079
	c7.327,3.701,16.522,19.068,24.039,22.365c25.066,10.994,64.041,14.158,85.51,11.926
	C431.422,133.208,449.042,128.482,449.042,128.482z"/>
<path opacity="0.5" fill="#E1DBE1" d="M114.056,37.215c12.276,0.347,36.759,2.642,49.039,2.771
	c19.604,0.207,58.765-2.425,78.367-2.771c17.305-0.306,51.924,0,69.232,0c16.467,0,49.501-1.751,65.867,0
	c12.49,1.336,37.335,6.263,49.039,10.623c18.317,6.823,20.109,22.674,13.858,35.553c0,0,0.419-19.047-14.831-27.233
	c-13.278-7.127-49.337-9.457-64.357-10.679c-17.537-1.426-52.787-0.064-70.377-0.451c-15.007-0.33-45.004-1.614-60.001-2.256
	C200.927,41.533,114.056,37.215,114.056,37.215z"/>
<path opacity="0.6" fill="#FFFBFD" d="M1033.697,248.591c-9.249-2.157-13.13-5.653-17.629-6.931
	c-8.948-2.542-32.542-4.322-46.241-2.425c-10.246,1.419-27.208,5.396-37.56,5.396c-11.664,0-30.002-1.709-41.593-2.971
	c-13.305-1.449-52.244-17.29-51.973-10.258c0.114,2.955,29.032,21.098,37.976,23.986c6.358,2.053,37.747,7.005,41.972,7.412
	c19.16,1.846,37.324-9.46,43.778-10.618c5.733-1.028,13.789-3.589,25.408-4.675c8.018-0.749,18.556,0,31.148,6.201
	c3.783,1.863,11.512,5.809,15.747,6.163c11.093,0.929,15.782-0.234,18.318-1.305c2.173-0.918,29.797-10.51,29.294-12.738
	c-0.336-1.487-24.059,3.482-28.71,3.634C1045.282,249.732,1043.03,250.768,1033.697,248.591z"/>
<path opacity="0.5" fill="#E1DBE1" d="M1016.068,241.66c-8.948-2.542-32.542-4.322-46.241-2.425
	c-10.246,1.419-27.208,5.396-37.56,5.396c-11.664,0-30.002-1.709-41.593-2.971c0,0,10.112,3.359,13.585,4.077
	c9.71,2.006,29.487,5.009,39.392,4.587c8.769-0.374,33.216-8.47,41.96-9.226C993.814,240.388,1020.567,242.938,1016.068,241.66z"/>
<radialGradient id="SVGID_1_" cx="1130.1459" cy="83.6852" r="11.0123" gradientUnits="userSpaceOnUse">
	<stop  offset="0.1174" style="stop-color:#DEDBC0"/>
	<stop  offset="1" style="stop-color:#FFFFFF;stop-opacity:0"/>
</radialGradient>
<path fill="url(#SVGID_1_)" d="M1129.877,71.661c0,0-1.44,7.234-2.763,8.512c-1.693,1.634-6.866,3.17-6.866,3.17
	s5.361,1.76,7.038,3.666c1.406,1.598,3.226,8.7,3.226,8.7s1.606-7.219,2.982-8.89c1.383-1.679,6.549-4.063,6.549-4.063
	s-5.331-1.238-6.892-2.737C1131.757,78.68,1129.877,71.661,1129.877,71.661z"/>
<radialGradient id="SVGID_2_" cx="1226.7377" cy="362.057" r="7.0158" gradientUnits="userSpaceOnUse">
	<stop  offset="0.1174" style="stop-color:#DEDBC0"/>
	<stop  offset="1" style="stop-color:#FFFFFF;stop-opacity:0"/>
</radialGradient>
<path fill="url(#SVGID_2_)" d="M1226.566,354.397c0,0-0.917,4.609-1.76,5.423c-1.078,1.041-4.374,2.019-4.374,2.019
	s3.415,1.121,4.484,2.335c0.896,1.018,2.055,5.543,2.055,5.543s1.023-4.599,1.9-5.664c0.881-1.07,4.172-2.588,4.172-2.588
	s-3.397-0.789-4.391-1.744C1227.764,358.868,1226.566,354.397,1226.566,354.397z"/>
<radialGradient id="SVGID_3_" cx="1189.4813" cy="334.2928" r="7.0158" gradientUnits="userSpaceOnUse">
	<stop  offset="0.1174" style="stop-color:#DEDBC0"/>
	<stop  offset="1" style="stop-color:#FFFFFF;stop-opacity:0"/>
</radialGradient>
<path fill="url(#SVGID_3_)" d="M1189.31,326.633c0,0-0.917,4.609-1.761,5.423c-1.078,1.041-4.374,2.019-4.374,2.019
	s3.415,1.121,4.484,2.335c0.896,1.018,2.055,5.543,2.055,5.543s1.023-4.599,1.9-5.664c0.881-1.07,4.172-2.588,4.172-2.588
	s-3.397-0.789-4.391-1.744C1190.508,331.104,1189.31,326.633,1189.31,326.633z"/>
<radialGradient id="SVGID_4_" cx="1033.5541" cy="283.6671" r="7.0158" gradientUnits="userSpaceOnUse">
	<stop  offset="0.1174" style="stop-color:#DEDBC0"/>
	<stop  offset="1" style="stop-color:#FFFFFF;stop-opacity:0"/>
</radialGradient>
<path fill="url(#SVGID_4_)" d="M1033.383,276.007c0,0-0.917,4.609-1.761,5.423c-1.078,1.041-4.374,2.019-4.374,2.019
	s3.415,1.121,4.484,2.335c0.896,1.018,2.055,5.543,2.055,5.543s1.023-4.599,1.9-5.664c0.881-1.07,4.172-2.588,4.172-2.588
	s-3.396-0.789-4.391-1.744C1034.581,280.478,1033.383,276.007,1033.383,276.007z"/>
<radialGradient id="SVGID_5_" cx="1220.7135" cy="326.6325" r="11.0123" gradientUnits="userSpaceOnUse">
	<stop  offset="0.1174" style="stop-color:#DEDBC0"/>
	<stop  offset="1" style="stop-color:#FFFFFF;stop-opacity:0"/>
</radialGradient>
<path fill="url(#SVGID_5_)" d="M1220.445,314.609c0,0-1.44,7.234-2.763,8.512c-1.693,1.634-6.865,3.17-6.865,3.17
	s5.361,1.76,7.038,3.666c1.406,1.598,3.226,8.7,3.226,8.7s1.606-7.219,2.982-8.89c1.383-1.679,6.549-4.063,6.549-4.063
	s-5.331-1.238-6.892-2.737C1222.325,321.627,1220.445,314.609,1220.445,314.609z"/>
<radialGradient id="SVGID_6_" cx="793.1649" cy="46.7087" r="7.8047" gradientUnits="userSpaceOnUse">
	<stop  offset="0.1174" style="stop-color:#DEDBC0"/>
	<stop  offset="1" style="stop-color:#FFFFFF;stop-opacity:0"/>
</radialGradient>
<path fill="url(#SVGID_6_)" d="M792.974,38.187c0,0-1.02,5.127-1.958,6.033c-1.2,1.158-4.866,2.246-4.866,2.246
	s3.799,1.247,4.988,2.598c0.997,1.132,2.286,6.166,2.286,6.166s1.138-5.116,2.114-6.3c0.98-1.19,4.641-2.879,4.641-2.879
	s-3.779-0.877-4.884-1.94C794.307,43.161,792.974,38.187,792.974,38.187z"/>
<radialGradient id="SVGID_7_" cx="750.2958" cy="106.2632" r="7.1875" gradientUnits="userSpaceOnUse">
	<stop  offset="0.1174" style="stop-color:#DEDBC0"/>
	<stop  offset="1" style="stop-color:#FFFFFF;stop-opacity:0"/>
</radialGradient>
<path fill="url(#SVGID_7_)" d="M750.12,98.415c0,0-0.94,4.722-1.804,5.556c-1.105,1.067-4.481,2.069-4.481,2.069
	s3.499,1.149,4.594,2.393c0.918,1.043,2.106,5.678,2.106,5.678s1.048-4.711,1.947-5.802c0.903-1.096,4.274-2.652,4.274-2.652
	s-3.48-0.808-4.498-1.786C751.348,102.996,750.12,98.415,750.12,98.415z"/>
<radialGradient id="SVGID_8_" cx="675.0884" cy="8.6154" r="7.8908" gradientUnits="userSpaceOnUse">
	<stop  offset="0.1174" style="stop-color:#DEDBC0"/>
	<stop  offset="1" style="stop-color:#FFFFFF;stop-opacity:0"/>
</radialGradient>
<path fill="url(#SVGID_8_)" d="M674.896,0c0,0-1.032,5.184-1.98,6.099c-1.213,1.171-4.919,2.271-4.919,2.271
	s3.841,1.261,5.043,2.627c1.008,1.145,2.312,6.234,2.312,6.234s1.151-5.172,2.137-6.37c0.991-1.203,4.692-2.911,4.692-2.911
	s-3.82-0.887-4.938-1.961C676.243,5.029,674.896,0,674.896,0z"/>
<radialGradient id="SVGID_9_" cx="1107.1444" cy="28.0578" r="8.8533" gradientUnits="userSpaceOnUse">
	<stop  offset="0.1174" style="stop-color:#DEDBC0"/>
	<stop  offset="1" style="stop-color:#FFFFFF;stop-opacity:0"/>
</radialGradient>
<path fill="url(#SVGID_9_)" d="M1106.928,18.391c0,0-1.157,5.816-2.222,6.843c-1.361,1.314-5.52,2.548-5.52,2.548
	s4.31,1.415,5.658,2.947c1.131,1.284,2.594,6.995,2.594,6.995s1.291-5.803,2.398-7.147c1.112-1.35,5.265-3.266,5.265-3.266
	s-4.286-0.995-5.541-2.201C1108.44,24.034,1106.928,18.391,1106.928,18.391z"/>
<path opacity="0.6" fill="#FFFBFD" d="M946.609,274.934c-11.496-0.688-34.565,3.885-46.075,3.46
	c-9.498-0.35-29.01,0.406-37.91-2.801c-4.894-1.764-12.966-9.05-18.08-10.085c-5.168-1.046-15.723,1.961-20.996,2.241
	c-10.045,0.534-30.203,0.056-40.242,0c-9.345-0.052-23.372-6.566-23.77-4.248c-1.045,6.09,27.28,23.384,33.101,25.995
	c9.81,4.401,30.638,4.723,41.456,5.156c11.217,0.45,19.826,5.589,42.888,2.022c18.146-2.807,39.239-6.122,51.251-8.814
	c6.175-1.384,26.057-6.03,25.375-12.086C953.417,274.09,948.368,275.039,946.609,274.934z"/>
<path opacity="0.5" fill="#E1DBE1" d="M953.624,275.774c-0.19-1.684-5.239-0.735-6.999-0.84c-11.496-0.688-34.565,3.885-46.075,3.46
	c-9.498-0.35-29.01,0.406-37.91-2.801c-4.894-1.764-12.966-9.05-18.08-10.085c-5.168-1.046-15.723,1.961-20.996,2.241
	c-10.045,0.534-30.451-2.221-40.242,0c0,0,25.443,3.281,33.954,4.106c5.461,0.529,16.607,0.109,21.888,1.597
	c5.335,1.504,14.313,8.863,19.699,10.171c8.414,2.044,25.989,0.473,34.634,0c10.023-0.548,39.913-4.378,39.913-4.378
	L953.624,275.774z"/>
<path opacity="0.6" fill="#FFFBFD" d="M1280.395,64.663c0,0-27.485,7.629-39.133,9.34c-10.088,1.481-28.125,11.172-37.172,15.874
	c-23.278,12.095-49.37,9.696-61.367,18.693c-6.133,4.6,42.288,4.799,58.903,0.639c10.672-2.672,31.204-10.864,41.886-13.499
	c9.081-2.24,36.863-6.422,36.863-6.422L1280.395,64.663z"/>
<path opacity="0.4" fill="#FFFBFD" d="M0,397.608c0,0,51.812-10.727,69.228-10.591c21.231,0.165,62.568,12.448,83.725,14.233
	c15.486,1.307,46.708,1.626,62.164,0c27.143-2.855,79.639-19.859,106.783-22.714c23.087-2.428,69.834-2.962,92.858,0
	c35.141,4.52,142.968,57.801,198.157,72.625c9.673,2.598,73.331,6.382,70.054,11.263c-4.595,6.844-45.589,8.352-53.787,9.212
	c-48.179,5.055-161.721-46.994-191.812-49.617c-77.164-6.724-145.439,20.137-174.315,24.442
	c-21.68,3.232-65.176,10.038-87.095,10.089c-19.784,0.046-58.875-9.218-78.653-8.739C72.771,448.405,0,463.327,0,463.327V397.608z"
	/>
<path opacity="0.5" fill="#E1DBE1" d="M516.402,414.699c-30.01-9.682-74.669-33.047-101.644-36.601
	c-23.016-3.032-69.771-2.428-92.858,0c-27.143,2.855-79.639,19.859-106.783,22.714c-15.456,1.626-46.678,1.307-62.164,0
	c-21.156-1.785-62.494-14.068-83.725-14.233C51.812,386.443,0,397.186,0,397.186v23.789c0,0,37.02-7.572,68.424-9.643
	c35.532-2.343,119.612,18.899,159.734,4.738c23.371-8.248,48.903-14.751,87.256-25.077c20.895-5.625,53.059-8.021,96.836-2.065
	C455.618,394.828,516.402,414.699,516.402,414.699z"/>
<path opacity="0.4" fill="#FFFBFD" d="M1280.374,397.522c-87.275,25.613-97.867,31.155-127.576,34.838
	c-30.132,3.736-111.721,6.518-143.417,0.392c-19.768-3.821-114.953-38.06-130.833-25.683c-3.878,3.022,42.294,20.232,52.736,25.683
	c24.718,12.904,78.798,29.093,106.271,33.857c33.042,5.729,101.432,10.524,134.961,9.917
	c27.255-0.494,107.857-13.301,107.857-13.301L1280.374,397.522z"/>
<path opacity="0.5" fill="#E1DBE1" d="M1070.211,436.128c23.192,0.139,69.756-1.221,92.635-5.027
	c30.393-5.056,117.529-34.001,117.529-34.001l0,23.766c0,0-81.186,20.508-108.76,24.066c-21.114,2.724-60.833,1.332-82.043-0.491
	c-17.432-1.498-80.19-11.689-80.19-11.689S1032.24,435.9,1070.211,436.128z"/>
</svg>
