<?xml version="1.0" encoding="utf-8"?>
<!-- Generator: Adobe Illustrator 17.0.0, SVG Export Plug-In . SVG Version: 6.00 Build 0)  -->
<!DOCTYPE svg PUBLIC "-//W3C//DTD SVG 1.1//EN" "http://www.w3.org/Graphics/SVG/1.1/DTD/svg11.dtd">
<svg version="1.1" id="Layer_1" xmlns="http://www.w3.org/2000/svg" xmlns:xlink="http://www.w3.org/1999/xlink" x="0px" y="0px"
	 width="125.4px" height="123.1px" viewBox="0 0 125.4 123.1" enable-background="new 0 0 125.4 123.1" xml:space="preserve">
<linearGradient id="SVGID_1_" gradientUnits="userSpaceOnUse" x1="125.4614" y1="170.3384" x2="31.7317" y2="7.9939">
	<stop  offset="0" style="stop-color:#A1A4AB"/>
	<stop  offset="0.4199" style="stop-color:#FBC2B0"/>
	<stop  offset="0.4947" style="stop-color:#FDCD97"/>
	<stop  offset="0.5744" style="stop-color:#FFD77E"/>
	<stop  offset="0.6559" style="stop-color:#FFE063"/>
	<stop  offset="0.7384" style="stop-color:#FFE645"/>
	<stop  offset="0.8223" style="stop-color:#FFEB29"/>
	<stop  offset="0.9083" style="stop-color:#FFEF07"/>
	<stop  offset="1" style="stop-color:#FFF100"/>
</linearGradient>
<ellipse fill="url(#SVGID_1_)" cx="62.6" cy="61.5" rx="62.6" ry="61.5"/>
<linearGradient id="SVGID_2_" gradientUnits="userSpaceOnUse" x1="10751.8242" y1="62.0898" x2="10863.9707" y2="62.0898" gradientTransform="matrix(-1 0 0 1 10877.1904 0)">
	<stop  offset="0" style="stop-color:#ECF8FE"/>
	<stop  offset="1" style="stop-color:#FFF25D"/>
</linearGradient>
<path opacity="0.2" fill="url(#SVGID_2_)" d="M52,122.5c0,0,46.1,8.1,67.3-34c15.1-30.1-0.9-63-14.6-72.6
	C94.8,8.9,93.9,5.7,74.5,1.1c0,0,20.1,39.6,5.4,70.5c-14.3,30.2-66,27.7-66.7,27.7C30,119.8,52,122.5,52,122.5z"/>
<linearGradient id="SVGID_3_" gradientUnits="userSpaceOnUse" x1="10751.9033" y1="65.9237" x2="10842.5693" y2="65.9237" gradientTransform="matrix(-1 0 0 1 10877.1904 0)">
	<stop  offset="0" style="stop-color:#ECF8FE"/>
	<stop  offset="1" style="stop-color:#FFF25D"/>
</linearGradient>
<path opacity="0.2" fill="url(#SVGID_3_)" d="M101.9,82.3c-21.2,42.1-67.3,34-67.3,34s6.8,6.4,28.9,6.6
	c30.5,0.3,61.5-26.9,61.7-60.3c-0.1-14.6-5.2-29.2-13.8-39.7C103.5,13.4,99.2,11.9,95,8.9c0,0,0,0,0,0
	C95.5,9.8,117.1,52.2,101.9,82.3z"/>
</svg>
