<?xml version="1.0" encoding="utf-8"?>
<!-- Generator: Adobe Illustrator 17.0.0, SVG Export Plug-In . SVG Version: 6.00 Build 0)  -->
<!DOCTYPE svg PUBLIC "-//W3C//DTD SVG 1.1//EN" "http://www.w3.org/Graphics/SVG/1.1/DTD/svg11.dtd">
<svg version="1.1" id="Layer_1" xmlns="http://www.w3.org/2000/svg" xmlns:xlink="http://www.w3.org/1999/xlink" x="0px" y="0px"
	 width="1280.395px" height="1591.391px" viewBox="0 0 1280.395 1591.391" enable-background="new 0 0 1280.395 1591.391"
	 xml:space="preserve">
<linearGradient id="SVGID_1_" gradientUnits="userSpaceOnUse" x1="-2.057555e-06" y1="795.6954" x2="1280.3945" y2="795.6954">
	<stop  offset="0" style="stop-color:#A55333"/>
	<stop  offset="0.9028" style="stop-color:#BC8665"/>
	<stop  offset="0.9495" style="stop-color:#B37050"/>
	<stop  offset="1" style="stop-color:#A65636"/>
</linearGradient>
<path fill="url(#SVGID_1_)" d="M0,50.729c0,0,24.798-8.051,40.357-9.709c12.927-1.378,39.636,0.197,51.848-4.102
	c3.695-1.301,8.935-8.128,12.81-8.79c6.229-1.064,18.273,4.928,24.399,6.446c12.607,3.124,37.932,8.951,50.628,11.72
	c9.275,2.023,28.505,3.933,37.209,7.618c2.401,1.016,6.072,5.003,8.54,5.86c15.675,5.441,49.822,4.86,66.488,4.688
	c49.935-0.517,149.608-10.205,198.854-18.166c22.905-3.703,68.065-14.57,90.277-21.096C599.45,19.897,652.167,0,652.167,0h69.538
	l17.079,4.102L750.374,0l17.689,8.79l52.458,13.478l69.538,9.962l20.739-7.618l21.349,0.586l46.358,11.134
	c0,0,53.197-1.796,79.9,2.622c13.198,2.184,62.546,10.962,75.907,11.843c16.431,1.083,44.729,4.666,61.198,4.666
	c5.032,0,23.318,1.147,28.342,1.436c19.369,1.114,56.541-6.302,56.541-6.302l0,1540.793H0V50.729z"/>
</svg>
