<?xml version="1.0" encoding="utf-8"?>
<!-- Generator: Adobe Illustrator 17.0.0, SVG Export Plug-In . SVG Version: 6.00 Build 0)  -->
<!DOCTYPE svg PUBLIC "-//W3C//DTD SVG 1.1//EN" "http://www.w3.org/Graphics/SVG/1.1/DTD/svg11.dtd">
<svg version="1.1" id="Layer_1" xmlns="http://www.w3.org/2000/svg" xmlns:xlink="http://www.w3.org/1999/xlink" x="0px" y="0px"
	 width="117px" height="116.592px" viewBox="0 0 117 116.592" enable-background="new 0 0 117 116.592" xml:space="preserve">
<g>
	
		<linearGradient id="SVGID_1_" gradientUnits="userSpaceOnUse" x1="8686.499" y1="116.1298" x2="8744.8555" y2="15.0532" gradientTransform="matrix(-1 0 0 1 8761.54 0)">
		<stop  offset="0" style="stop-color:#A1A4AB"/>
		<stop  offset="0.0721" style="stop-color:#FBC2B0"/>
		<stop  offset="0.1918" style="stop-color:#FDCD97"/>
		<stop  offset="0.3192" style="stop-color:#FFD77E"/>
		<stop  offset="0.4496" style="stop-color:#FFE063"/>
		<stop  offset="0.5816" style="stop-color:#FFE645"/>
		<stop  offset="0.7157" style="stop-color:#FFEB29"/>
		<stop  offset="0.8534" style="stop-color:#FFEF07"/>
		<stop  offset="1" style="stop-color:#FFF100"/>
	</linearGradient>
	<path fill="url(#SVGID_1_)" d="M69.009,65.374C82.915,36.016,58.5,0,58.5,0C26.192,0,0,26.1,0,58.296
		c0,13.462,4.591,25.848,12.282,35.716C12.995,94.014,55.448,94.003,69.009,65.374z"/>
	
		<linearGradient id="SVGID_2_" gradientUnits="userSpaceOnUse" x1="8644.54" y1="105.3018" x2="8749.2754" y2="105.3018" gradientTransform="matrix(-1 0 0 1 8761.54 0)">
		<stop  offset="0" style="stop-color:#ECF8FE"/>
		<stop  offset="1" style="stop-color:#FFF25D"/>
	</linearGradient>
	<path opacity="0.2" fill="url(#SVGID_2_)" d="M12.282,94.012l-0.017,0c0,0,13.926,22.58,46.235,22.58
		C39.7,116.592,22.985,107.745,12.282,94.012z"/>
	
		<linearGradient id="SVGID_3_" gradientUnits="userSpaceOnUse" x1="8626.8477" y1="81.6904" x2="8685.2051" y2="-19.3862" gradientTransform="matrix(-1 0 0 1 8761.54 0)">
		<stop  offset="0" style="stop-color:#A1A4AB"/>
		<stop  offset="0.0721" style="stop-color:#FBC2B0"/>
		<stop  offset="0.1918" style="stop-color:#FDCD97"/>
		<stop  offset="0.3192" style="stop-color:#FFD77E"/>
		<stop  offset="0.4496" style="stop-color:#FFE063"/>
		<stop  offset="0.5816" style="stop-color:#FFE645"/>
		<stop  offset="0.7157" style="stop-color:#FFEB29"/>
		<stop  offset="0.8534" style="stop-color:#FFEF07"/>
		<stop  offset="1" style="stop-color:#FFF100"/>
	</linearGradient>
	<path fill="url(#SVGID_3_)" d="M103.865,21.498c-4.348-5.316-9.618-9.849-15.567-13.366C91.974,11.306,98.168,15.24,103.865,21.498
		z"/>
	
		<linearGradient id="SVGID_4_" gradientUnits="userSpaceOnUse" x1="8644.54" y1="14.8151" x2="8749.2754" y2="14.8151" gradientTransform="matrix(-1 0 0 1 8761.54 0)">
		<stop  offset="0" style="stop-color:#ECF8FE"/>
		<stop  offset="1" style="stop-color:#FFF25D"/>
	</linearGradient>
	<path opacity="0.2" fill="url(#SVGID_4_)" d="M103.865,21.498c-4.348-5.316-9.618-9.849-15.567-13.366
		C91.974,11.306,98.168,15.24,103.865,21.498z"/>
	
		<linearGradient id="SVGID_5_" gradientUnits="userSpaceOnUse" x1="8676.9023" y1="110.5894" x2="8735.2588" y2="9.5128" gradientTransform="matrix(-1 0 0 1 8761.54 0)">
		<stop  offset="0" style="stop-color:#A1A4AB"/>
		<stop  offset="0.0721" style="stop-color:#FBC2B0"/>
		<stop  offset="0.1918" style="stop-color:#FDCD97"/>
		<stop  offset="0.3192" style="stop-color:#FFD77E"/>
		<stop  offset="0.4496" style="stop-color:#FFE063"/>
		<stop  offset="0.5816" style="stop-color:#FFE645"/>
		<stop  offset="0.7157" style="stop-color:#FFEB29"/>
		<stop  offset="0.8534" style="stop-color:#FFEF07"/>
		<stop  offset="1" style="stop-color:#FFF100"/>
	</linearGradient>
	<path fill="url(#SVGID_5_)" d="M58.5,115.03c-19.351-1.211-27.404-6.295-27.404-6.295s43.687,7.636,63.746-32.204
		c14.349-28.499-6.123-67.546-6.587-68.424C79.536,2.963,69.367,0,58.5,0c0,0,24.415,36.016,10.509,65.374
		c-13.561,28.629-56.014,28.64-56.727,28.638C22.985,107.745,39.7,116.592,58.5,116.592c32.309,0,58.5-26.1,58.5-58.296
		c0-0.122-0.008-0.242-0.009-0.364C116.793,89.514,90.622,117.041,58.5,115.03z"/>
	
		<linearGradient id="SVGID_6_" gradientUnits="userSpaceOnUse" x1="8644.541" y1="58.2956" x2="8749.2588" y2="58.2956" gradientTransform="matrix(-1 0 0 1 8761.54 0)">
		<stop  offset="0" style="stop-color:#ECF8FE"/>
		<stop  offset="1" style="stop-color:#FFF25D"/>
	</linearGradient>
	<path opacity="0.2" fill="url(#SVGID_6_)" d="M58.5,115.03c-19.351-1.211-27.404-6.295-27.404-6.295s43.687,7.636,63.746-32.204
		c14.349-28.499-6.123-67.546-6.587-68.424C79.536,2.963,69.367,0,58.5,0c0,0,24.415,36.016,10.509,65.374
		c-13.561,28.629-56.014,28.64-56.727,28.638C22.985,107.745,39.7,116.592,58.5,116.592c32.309,0,58.5-26.1,58.5-58.296
		c0-0.122-0.008-0.242-0.009-0.364C116.793,89.514,90.622,117.041,58.5,115.03z"/>
	
		<linearGradient id="SVGID_7_" gradientUnits="userSpaceOnUse" x1="8644.54" y1="8.1095" x2="8730.4434" y2="8.1095" gradientTransform="matrix(-1 0 0 1 8761.54 0)">
		<stop  offset="0" style="stop-color:#ECF8FE"/>
		<stop  offset="1" style="stop-color:#FFF25D"/>
	</linearGradient>
	<path opacity="0.2" fill="url(#SVGID_7_)" d="M88.244,8.087c0,0,0.006,0.011,0.011,0.021c0.015,0.008,0.029,0.016,0.043,0.025
		C88.281,8.117,88.261,8.102,88.244,8.087z"/>
	
		<linearGradient id="SVGID_8_" gradientUnits="userSpaceOnUse" x1="8644.541" y1="39.7148" x2="8730.4443" y2="39.7148" gradientTransform="matrix(-1 0 0 1 8761.54 0)">
		<stop  offset="0" style="stop-color:#ECF8FE"/>
		<stop  offset="1" style="stop-color:#FFF25D"/>
	</linearGradient>
	<path opacity="0.2" fill="url(#SVGID_8_)" d="M117,57.573c0-17.387-6.197-28.455-13.134-36.075
		c8.136,9.948,13.04,22.62,13.125,36.434C116.991,57.812,117,57.693,117,57.573z"/>
	
		<linearGradient id="SVGID_9_" gradientUnits="userSpaceOnUse" x1="8669.749" y1="106.4591" x2="8728.1055" y2="5.3824" gradientTransform="matrix(-1 0 0 1 8761.54 0)">
		<stop  offset="0" style="stop-color:#A1A4AB"/>
		<stop  offset="0.0721" style="stop-color:#FBC2B0"/>
		<stop  offset="0.1918" style="stop-color:#FDCD97"/>
		<stop  offset="0.3192" style="stop-color:#FFD77E"/>
		<stop  offset="0.4496" style="stop-color:#FFE063"/>
		<stop  offset="0.5816" style="stop-color:#FFE645"/>
		<stop  offset="0.7157" style="stop-color:#FFEB29"/>
		<stop  offset="0.8534" style="stop-color:#FFEF07"/>
		<stop  offset="1" style="stop-color:#FFF100"/>
	</linearGradient>
	<path fill="url(#SVGID_9_)" d="M94.842,76.531c-20.059,39.839-63.746,32.204-63.746,32.204s8.053,5.084,27.404,6.295
		c32.122,2.011,58.293-25.516,58.49-57.099c-0.085-13.814-4.989-26.486-13.125-36.434C98.168,15.24,91.974,11.306,88.298,8.132
		c-0.014-0.008-0.028-0.016-0.043-0.025C88.719,8.986,109.191,48.032,94.842,76.531z"/>
	
		<linearGradient id="SVGID_10_" gradientUnits="userSpaceOnUse" x1="8644.5498" y1="61.6208" x2="8749.2842" y2="61.6208" gradientTransform="matrix(-1 0 0 1 8761.54 0)">
		<stop  offset="0" style="stop-color:#ECF8FE"/>
		<stop  offset="1" style="stop-color:#FFF25D"/>
	</linearGradient>
	<path opacity="0.2" fill="url(#SVGID_10_)" d="M94.842,76.531c-20.059,39.839-63.746,32.204-63.746,32.204
		s8.053,5.084,27.404,6.295c32.122,2.011,58.293-25.516,58.49-57.099c-0.085-13.814-4.989-26.486-13.125-36.434
		C98.168,15.24,91.974,11.306,88.298,8.132c-0.014-0.008-0.028-0.016-0.043-0.025C88.719,8.986,109.191,48.032,94.842,76.531z"/>
	
		<linearGradient id="SVGID_11_" gradientUnits="userSpaceOnUse" x1="8644.5498" y1="61.6208" x2="8730.4443" y2="61.6208" gradientTransform="matrix(-1 0 0 1 8761.54 0)">
		<stop  offset="0" style="stop-color:#ECF8FE"/>
		<stop  offset="1" style="stop-color:#FFF25D"/>
	</linearGradient>
	<path opacity="0.2" fill="url(#SVGID_11_)" d="M94.842,76.531c-20.059,39.839-63.746,32.204-63.746,32.204
		s8.053,5.084,27.404,6.295c32.122,2.011,58.293-25.516,58.49-57.099c-0.085-13.814-4.989-26.486-13.125-36.434
		C98.168,15.24,91.974,11.306,88.298,8.132c-0.014-0.008-0.028-0.016-0.043-0.025C88.719,8.986,109.191,48.032,94.842,76.531z"/>
</g>
</svg>
