<?xml version="1.0" encoding="utf-8"?>
<!-- Generator: Adobe Illustrator 17.0.0, SVG Export Plug-In . SVG Version: 6.00 Build 0)  -->
<!DOCTYPE svg PUBLIC "-//W3C//DTD SVG 1.1//EN" "http://www.w3.org/Graphics/SVG/1.1/DTD/svg11.dtd">
<svg version="1.1" id="Layer_1" xmlns="http://www.w3.org/2000/svg" xmlns:xlink="http://www.w3.org/1999/xlink" x="0px" y="0px"
	 width="1280.395px" height="965.285px" viewBox="0 0 1280.395 965.285" enable-background="new 0 0 1280.395 965.285"
	 xml:space="preserve">
<linearGradient id="SVGID_1_" gradientUnits="userSpaceOnUse" x1="144.8329" y1="882.5078" x2="1135.6515" y2="-108.3109">
	<stop  offset="0" style="stop-color:#7C5952"/>
	<stop  offset="0.2976" style="stop-color:#AB763C"/>
	<stop  offset="0.8408" style="stop-color:#CC916E"/>
	<stop  offset="0.8972" style="stop-color:#C0885F"/>
	<stop  offset="1" style="stop-color:#A37140"/>
</linearGradient>
<path fill="url(#SVGID_1_)" d="M0,36.249c0,0,15.03-0.48,22.036-3.905c10.948-5.353,22.022-14.504,35.941-16.095
	c8.438-0.964,57.17,40.82,159.405,24.531c103.736-16.528,228.719-21.008,266.254-15.463c29.907,4.419,91.803,7.191,104.409,8.698
	c23.62,2.823,70.694,3.333,94.682,2.001C704.621,34.801,818.094,0.86,819.283,2.332c0.483,0.598,85.09,105.772,180.167,105.443
	c85.8-0.298,87.618-36.127,111.273-33.315c32.084,3.813,169.651-38.047,169.651-38.047l0.004,701.641h-1280L0,36.249z"/>
<linearGradient id="SVGID_2_" gradientUnits="userSpaceOnUse" x1="1085.8954" y1="290.9596" x2="1310.5049" y2="66.3501">
	<stop  offset="0" style="stop-color:#CC916E"/>
	<stop  offset="0.2311" style="stop-color:#C0885F"/>
	<stop  offset="0.6523" style="stop-color:#A37140"/>
	<stop  offset="0.9422" style="stop-color:#B27B46"/>
</linearGradient>
<polygon fill="url(#SVGID_2_)" points="1280.395,36.24 1122.707,74.19 1015.3,220.364 1280.386,276.427 "/>
<linearGradient id="SVGID_3_" gradientUnits="userSpaceOnUse" x1="112.1488" y1="1077.4342" x2="1168.2542" y2="21.3288">
	<stop  offset="0" style="stop-color:#837467"/>
	<stop  offset="0.0416" style="stop-color:#9A7A5F"/>
	<stop  offset="0.0899" style="stop-color:#B08055"/>
	<stop  offset="0.1376" style="stop-color:#BF844D"/>
	<stop  offset="0.1838" style="stop-color:#C98648"/>
	<stop  offset="0.2267" style="stop-color:#CD8846"/>
	<stop  offset="0.5662" style="stop-color:#D49861"/>
	<stop  offset="1" style="stop-color:#DCAD80"/>
</linearGradient>
<path fill="url(#SVGID_3_)" d="M0,133.486c0,0,46.655-7.995,60.575-9.586c8.438-0.964,58.113,71.19,160.347,54.902
	c103.736-16.528,214.378-33.115,270.151-56.644c27.854-11.751,140.304-29.583,189.105-53.113
	c19.752-9.523,104.057-50.605,139.105-66.712c39.992-18.38,248.711,77.965,330.606,76.223
	c32.302-0.687,130.485,54.894,130.485,54.894l0.02,831.836H0V133.486z"/>
<linearGradient id="SVGID_4_" gradientUnits="userSpaceOnUse" x1="218.0901" y1="1183.3755" x2="1274.24" y2="127.2257">
	<stop  offset="0" style="stop-color:#837467"/>
	<stop  offset="0.1166" style="stop-color:#9D846F"/>
	<stop  offset="0.2523" style="stop-color:#B69476"/>
	<stop  offset="0.386" style="stop-color:#CAA17C"/>
	<stop  offset="0.5155" style="stop-color:#D6A97F"/>
	<stop  offset="0.636" style="stop-color:#DCAD80"/>
	<stop  offset="0.7744" style="stop-color:#CD8846"/>
	<stop  offset="1" style="stop-color:#D3925C"/>
</linearGradient>
<path fill="url(#SVGID_4_)" d="M1280.395,965.285H0V557.251l735.382-195.099c0,0,109.537,19.261,157.735-27.792
	c20.803-20.309,165.37-62.376,187.641-69.922c23.422-7.936,67.979-37.74,104.8-73.027c26.083-24.996,94.836-58.032,94.836-58.032
	L1280.395,965.285z"/>
</svg>
