<?xml version="1.0" encoding="utf-8"?>
<!-- Generator: Adobe Illustrator 17.0.0, SVG Export Plug-In . SVG Version: 6.00 Build 0)  -->
<!DOCTYPE svg PUBLIC "-//W3C//DTD SVG 1.1//EN" "http://www.w3.org/Graphics/SVG/1.1/DTD/svg11.dtd">
<svg version="1.1" id="Layer_1" xmlns="http://www.w3.org/2000/svg" xmlns:xlink="http://www.w3.org/1999/xlink" x="0px" y="0px"
	 width="1280px" height="1591.391px" viewBox="0 0 1280 1591.391" enable-background="new 0 0 1280 1591.391" xml:space="preserve">
<g id="Layer_2">
</g>
<linearGradient id="SVGID_1_" gradientUnits="userSpaceOnUse" x1="-1659" y1="-200.4126" x2="-377" y2="-200.4126" gradientTransform="matrix(1 0 0 1 1658 997.3911)">
	<stop  offset="0" style="stop-color:#E3CD9A"/>
	<stop  offset="0.5183" style="stop-color:#BB8658"/>
	<stop  offset="0.706" style="stop-color:#CF9769"/>
	<stop  offset="0.8741" style="stop-color:#DFBA93"/>
	<stop  offset="1" style="stop-color:#E3CD9A"/>
</linearGradient>
<path fill="url(#SVGID_1_)" d="M-1,52.564c0,0,26.403-7.929,41.962-9.587c12.927-1.378,39.636,0.197,51.848-4.102
	c3.695-1.301,8.935-8.128,12.81-8.79c6.229-1.064,18.273,4.928,24.399,6.446c12.607,3.124,37.932,8.951,50.628,11.72
	c9.275,2.023,28.505,3.934,37.209,7.618c2.401,1.016,6.072,5.003,8.54,5.86c15.675,5.442,49.822,4.86,66.488,4.688
	c49.935-0.516,149.608-10.205,198.854-18.166c22.905-3.703,68.065-14.57,90.277-21.096c18.041-5.301,52.285-21.828,70.758-25.198
	c17.102-3.12,52.274-2.044,69.538,0c4.361,0.516,12.694,4.331,17.079,4.102c3.069-0.16,8.522-4.288,11.59-4.102
	c4.929,0.299,13.061,7.067,17.689,8.79c12.69,4.723,39.179,10.829,52.458,13.478c17.223,3.435,52.073,11.8,69.538,9.962
	c5.493-0.578,15.288-6.726,20.739-7.618c5.269-0.863,16.056-0.114,21.349,0.586c11.816,1.564,34.5,9.932,46.359,11.134
	c19.884,2.015,53.197-1.796,79.9,2.622c13.198,2.184,62.546,10.962,75.907,11.843c16.431,1.083,44.729,4.666,61.198,4.666
	c5.032,0,23.318,1.147,28.342,1.436c19.369,1.114,56.541-6.302,56.541-6.302v1541.403H-1V52.564z"/>
</svg>
