<?xml version="1.0" encoding="utf-8"?>
<!-- Generator: Adobe Illustrator 17.0.0, SVG Export Plug-In . SVG Version: 6.00 Build 0)  -->
<!DOCTYPE svg PUBLIC "-//W3C//DTD SVG 1.1//EN" "http://www.w3.org/Graphics/SVG/1.1/DTD/svg11.dtd">
<svg version="1.1" id="Layer_1" xmlns="http://www.w3.org/2000/svg" xmlns:xlink="http://www.w3.org/1999/xlink" x="0px" y="0px"
	 width="1280px" height="57px" viewBox="0 0 1280 57" enable-background="new 0 0 1280 57" xml:space="preserve">
<g>
	<g>
		<linearGradient id="SVGID_1_" gradientUnits="userSpaceOnUse" x1="640" y1="56.3583" x2="640" y2="0.4907">
			<stop  offset="0" style="stop-color:#464248"/>
			<stop  offset="0.0273" style="stop-color:#524848"/>
			<stop  offset="0.1653" style="stop-color:#906843"/>
			<stop  offset="0.2297" style="stop-color:#AF763A"/>
			<stop  offset="0.3284" style="stop-color:#C58A36"/>
			<stop  offset="0.4558" style="stop-color:#DDA02D"/>
			<stop  offset="0.5849" style="stop-color:#EEB020"/>
			<stop  offset="0.7152" style="stop-color:#F9BB14"/>
			<stop  offset="0.8487" style="stop-color:#FEC00F"/>
			<stop  offset="0.9669" style="stop-color:#FEC260"/>
		</linearGradient>
		<rect x="-1" y="0.491" fill="url(#SVGID_1_)" width="1282" height="55.868"/>
	</g>
	<linearGradient id="SVGID_2_" gradientUnits="userSpaceOnUse" x1="640" y1="46.931" x2="640" y2="0.5415">
		<stop  offset="0" style="stop-color:#AF763A"/>
		<stop  offset="0.0015" style="stop-color:#B2793B"/>
		<stop  offset="0.0141" style="stop-color:#C88D40"/>
		<stop  offset="0.0284" style="stop-color:#DB9E43"/>
		<stop  offset="0.0454" style="stop-color:#E9AC44"/>
		<stop  offset="0.0663" style="stop-color:#F3B645"/>
		<stop  offset="0.0957" style="stop-color:#FBBC45"/>
		<stop  offset="0.1772" style="stop-color:#FEBF46"/>
		<stop  offset="1" style="stop-color:#FFCA56"/>
	</linearGradient>
	<path fill="url(#SVGID_2_)" d="M1050.557,10.502c27.863,0.66,83.257,8.033,111.104,9.182c20.872,0.861,62.783,2.193,83.557,0
		c8.875-0.937,35.782-6.852,35.782-6.852v22.625c0,0-79.424,9.195-105.566,7.182c-23.03-1.773-67.676-6.684-90.528-10.047
		c-14.17-2.086-45.617,1.498-59.935,1.131c-28.231-0.725-100.898,4.79-136.683,6.789c-26.236,1.466-52.612,7.097-97.538,6.351
		c-54.565-0.906-163.977-0.692-218.174-7.084c-28.007-3.303-110.448-14.757-110.448-14.757S356.884,13.748,321.817,14.279
		c-35.104,0.531-105.218,4.84-140.255,7.084C136.117,24.273-1,35.457-1,35.457V12.789c0,0,44.737-4.028,59.308-5.594
		c14.895-1.6,58.044-6.075,58.044-6.075l567.852-0.579c0,0,41.497,10.088,55.544,12.321c28.057,4.459,75.777,4.411,98.634,5.594
		C849.198,19.016,1037.468,10.191,1050.557,10.502z"/>
	<path opacity="0.2" fill="#FFCE2E" d="M1050.46,6.645c27.863,0.66,83.224,0.13,111.071,1.279c20.872,0.861,62.783,2.193,83.557,0
		C1253.964,6.988,1281,0.47,1281,0.47v27.666c0,0-79.553,4.757-105.696,2.744c-23.03-1.773-78.182,9.982-101.034,6.618
		c-14.17-2.086-66.942-3.347-81.26-3.715c-28.231-0.725-69.067-7.03-104.852-5.03c-26.236,1.466-52.612,7.097-97.538,6.351
		c-54.565-0.906-163.977-0.692-218.174-7.084c-28.007-3.303-110.448-14.757-110.448-14.757s-106.32-5.86-141.387-5.33
		c-35.104,0.531-104.142-0.574-139.178,1.669C135.988,12.514-1,23.698-1,23.698V1.03c0,0,43.234,4.498,57.805,2.933
		C71.7,2.362,116.6,1.049,116.6,1.049l534.666-0.035c0,0,39.024,16.027,86.979,17.369c28.398,0.794,77.151-12.869,100.007-11.686
		C849.069,7.257,1037.371,6.335,1050.46,6.645z"/>
</g>
<g>
	<g>
		<g>
			<linearGradient id="SVGID_3_" gradientUnits="userSpaceOnUse" x1="538.6071" y1="22.991" x2="616.9557" y2="22.991">
				<stop  offset="0" style="stop-color:#FBD297"/>
				<stop  offset="0.032" style="stop-color:#FCD290"/>
				<stop  offset="0.1171" style="stop-color:#FDD281"/>
				<stop  offset="0.2175" style="stop-color:#FFD376"/>
				<stop  offset="0.3418" style="stop-color:#FFD36C"/>
				<stop  offset="0.5161" style="stop-color:#FFD367"/>
				<stop  offset="1" style="stop-color:#FFD365"/>
			</linearGradient>
			<path fill="url(#SVGID_3_)" d="M616.956,15.732c-13.978,2.575-27.588-3.007-41.933-2.271c-7.357,0.368-16.92-0.736-23.909,2.943
				c-4.414,2.575-11.771,11.403-12.506,16.185c12.506-5.15,27.955-1.104,40.094-7.357c6.621-3.678,8.828-5.885,16.553-5.885
				c6.621,0,10.714,0.52,16.6-1.319L616.956,15.732z"/>
		</g>
		<g>
			<linearGradient id="SVGID_4_" gradientUnits="userSpaceOnUse" x1="547.8029" y1="21.6555" x2="581.2759" y2="21.6555">
				<stop  offset="0.4237" style="stop-color:#FEBF46"/>
				<stop  offset="0.518" style="stop-color:#FEC24A"/>
			</linearGradient>
			<path fill="url(#SVGID_4_)" d="M552.217,20.082c-2.404,1.572-4.046,4.046-4.414,6.621c9.196,1.104,30.162,2.207,33.473-9.564
				c-8.46-1.839-16.185-1.471-24.645,0.736C556.631,17.875,553.25,19.407,552.217,20.082z"/>
		</g>
		<g>
			<linearGradient id="SVGID_5_" gradientUnits="userSpaceOnUse" x1="556.9988" y1="20.632" x2="573.6022" y2="20.632">
				<stop  offset="0" style="stop-color:#FBD297"/>
				<stop  offset="0.032" style="stop-color:#FCD290"/>
				<stop  offset="0.1171" style="stop-color:#FDD281"/>
				<stop  offset="0.2175" style="stop-color:#FFD376"/>
				<stop  offset="0.3418" style="stop-color:#FFD36C"/>
				<stop  offset="0.5161" style="stop-color:#FFD367"/>
				<stop  offset="1" style="stop-color:#FFD365"/>
			</linearGradient>
			<path fill="url(#SVGID_5_)" d="M556.999,17.875c3.678,4.782,6.253,10.299,12.874,6.253c4.046-2.943,5.518-6.253,0.736-8.092
				C567.298,14.932,560.309,17.139,556.999,17.875L556.999,17.875z"/>
		</g>
	</g>
	<g>
		<linearGradient id="SVGID_6_" gradientUnits="userSpaceOnUse" x1="835.4933" y1="23.5651" x2="883.5898" y2="23.5651">
			<stop  offset="0" style="stop-color:#FBD297"/>
			<stop  offset="0.032" style="stop-color:#FCD290"/>
			<stop  offset="0.1171" style="stop-color:#FDD281"/>
			<stop  offset="0.2175" style="stop-color:#FFD376"/>
			<stop  offset="0.3418" style="stop-color:#FFD36C"/>
			<stop  offset="0.5161" style="stop-color:#FFD367"/>
			<stop  offset="1" style="stop-color:#FFD365"/>
		</linearGradient>
		<path fill="url(#SVGID_6_)" d="M883.59,14.329c-4.139-1.084-2.784-6.258-8.032-5.643c-7.121,1.01-3.238,6.451-0.892,10.161
			c-6.633-0.853-13.448,0.68-19.958,2.735c-3.178,1.158-6.268,3.666-9.491,4.149c-2.602,0.646-8.693-2.277-9.723,1.656
			c1.948-1.063,4.054-0.791,6.375,0.48c-2.578,0.048-4.853,0.085-5.315,2.23c4.125-2.237,8.363-0.685,12.665-0.222
			c3.627,0.508,7.362,0.601,10.999,0.227c0.296,1.404-0.33,6.327,0.335,7.165c1.178,1.414,5.642,1.257,7.461,1.069
			c4.627-0.779,9.136-0.261,14.114,0.158c0.108-0.414,0.217-0.828,0.325-1.242c-3.932-1.03-9.005-0.866-12.655-0.66
			c-0.368,0.021-5.564,0.976-6.904,0.182c-1.493-1.055-1.094-4.268-0.813-6.185c1.404-0.296,3.799-0.995,4.933-0.256
			c1.286,1,1.498,5.258,2.784,6.258l1.223-0.107c-0.289-1.808-2.285-6.285-2.8-7.384c3.287-1.572,18.164-0.108,13.69-8.358
			c-1.015-2.035-7.062-4.282-6.825-6.874c0.345-3.006,6.372,1.005,8.451,0.665"/>
	</g>
	<linearGradient id="SVGID_7_" gradientUnits="userSpaceOnUse" x1="775.7159" y1="17.2624" x2="796.6356" y2="17.2624">
		<stop  offset="0" style="stop-color:#FBD297"/>
		<stop  offset="0.032" style="stop-color:#FCD290"/>
		<stop  offset="0.1171" style="stop-color:#FDD281"/>
		<stop  offset="0.2175" style="stop-color:#FFD376"/>
		<stop  offset="0.3418" style="stop-color:#FFD36C"/>
		<stop  offset="0.5161" style="stop-color:#FFD367"/>
		<stop  offset="1" style="stop-color:#FFD365"/>
	</linearGradient>
	<polygon fill="url(#SVGID_7_)" points="775.791,14.315 795.844,14.584 796.636,15.397 796.571,20.209 775.716,19.93 	"/>
	<linearGradient id="SVGID_8_" gradientUnits="userSpaceOnUse" x1="275.1625" y1="27.4483" x2="318.9244" y2="27.4483">
		<stop  offset="0" style="stop-color:#FBD297"/>
		<stop  offset="0.032" style="stop-color:#FCD290"/>
		<stop  offset="0.1171" style="stop-color:#FDD281"/>
		<stop  offset="0.2175" style="stop-color:#FFD376"/>
		<stop  offset="0.3418" style="stop-color:#FFD36C"/>
		<stop  offset="0.5161" style="stop-color:#FFD367"/>
		<stop  offset="1" style="stop-color:#FFD365"/>
	</linearGradient>
	<path fill="url(#SVGID_8_)" d="M275.926,20.916l0.117-1.932c0,0,4.682,0.165,6.099-0.407c0.867-0.35,2.221-1.729,2.86-2.412
		c0.446-0.477,1.549-2.104,1.549-2.104l1.03,0.062c0,0-0.295,2.802-0.226,3.735c0.072,0.968,0.298,2.969,0.804,3.797
		c0.29,0.473,1.364,0.976,1.725,1.397c1.136,1.324,3.513,6.029,3.513,6.029s2.637-1.042,3.563-1.206
		c2.614-0.464,8-0.722,10.614-0.263c1.035,0.182,3.078,0.894,3.914,1.529c1.309,0.994,3.06,3.873,3.947,5.256
		c0.988,1.541,3.488,6.438,3.488,6.438l-1.674-0.101c0,0-1.94-1.373-2.467-1.959c-0.773-0.858-1.423-3.429-2.479-3.898
		c-1.301-0.578-4.645,0.637-4.645,0.637l-9.857-0.221c0,0,1.635-1.525,2.307-1.823c1.694-0.75,2.994-1.842,5.731-1.745
		c0.26,0.009,1.343-0.27,1.12-0.403c-1.34-0.793-4.731-0.182-6.22,0.27c-1.353,0.411-3.486,2.502-4.831,2.939
		c-0.868,0.282-2.757,0.537-3.637,0.297c-0.841-0.229-2.851-2.005-2.851-2.005s-3.026,0.834-4.064,0.941
		c-2.536,0.261-10.197-0.229-10.197-0.229l0.739-1.53c0,0,6.961,0.219,9.196-0.325c0.715-0.174,2.661-1.261,2.661-1.261
		s0.297-3.935-0.075-5.175c-0.252-0.84-1.2-2.414-1.889-2.958c-0.657-0.519-2.342-0.94-3.165-1.096
		C280.982,20.879,275.926,20.916,275.926,20.916z"/>
	<linearGradient id="SVGID_9_" gradientUnits="userSpaceOnUse" x1="175.5096" y1="22.7304" x2="181.7422" y2="22.7304">
		<stop  offset="0" style="stop-color:#FBD297"/>
		<stop  offset="0.032" style="stop-color:#FCD290"/>
		<stop  offset="0.1171" style="stop-color:#FDD281"/>
		<stop  offset="0.2175" style="stop-color:#FFD376"/>
		<stop  offset="0.3418" style="stop-color:#FFD36C"/>
		<stop  offset="0.5161" style="stop-color:#FFD367"/>
		<stop  offset="1" style="stop-color:#FFD365"/>
	</linearGradient>
	<path fill="url(#SVGID_9_)" d="M178.34,12.413c0.6-0.494,2.066,1.123,2.636,1.652c0.237,0.22,0.766,1.041,0.766,1.041l-0.523,16.88
		c0,0-0.354,0.65-0.546,0.796c-0.214,0.163-0.752,0.404-1.016,0.353c-0.167-0.032-0.475-0.28-0.512-0.445
		c-0.111-0.495,0.79-1.351,0.817-1.857c0.026-0.487-0.4-1.411-0.592-1.86c-0.375-0.876-1.064-2.775-1.829-3.344
		c-0.336-0.25-1.314-0.082-1.637-0.348c-0.179-0.147-0.496-0.662-0.363-0.851c0.131-0.186,0.688,0.001,0.909,0.055
		c0.343,0.084,0.994,0.384,1.292,0.575c0.338,0.218,0.945,0.761,1.205,1.068c0.314,0.369,0.556,1.711,1.035,1.638
		c0.417-0.064,0.372-1.214,0.43-1.632c0.349-2.502,0.716-7.63,0.196-10.102c-0.063-0.299-0.346-0.853-0.513-1.109
		c-0.288-0.441-1.124-1.126-1.397-1.577C178.569,13.132,178.147,12.571,178.34,12.413z"/>
	<linearGradient id="SVGID_10_" gradientUnits="userSpaceOnUse" x1="745.6689" y1="23.2727" x2="749.101" y2="23.2727">
		<stop  offset="0" style="stop-color:#FBD297"/>
		<stop  offset="0.032" style="stop-color:#FCD290"/>
		<stop  offset="0.1171" style="stop-color:#FDD281"/>
		<stop  offset="0.2175" style="stop-color:#FFD376"/>
		<stop  offset="0.3418" style="stop-color:#FFD36C"/>
		<stop  offset="0.5161" style="stop-color:#FFD367"/>
		<stop  offset="1" style="stop-color:#FFD365"/>
	</linearGradient>
	<path fill="url(#SVGID_10_)" d="M748.94,21.557c-0.351-0.376-1.604-0.243-2.058,0c-0.481,0.257-1.161,1.272-1.21,1.816
		c-0.042,0.459,0.341,1.441,0.726,1.695c0.328,0.217,1.235,0.2,1.573,0c0.432-0.255,0.843-1.27,0.968-1.755
		C749.049,22.887,749.24,21.877,748.94,21.557z"/>
	<linearGradient id="SVGID_11_" gradientUnits="userSpaceOnUse" x1="745.295" y1="32.5466" x2="749.5546" y2="32.5466">
		<stop  offset="0" style="stop-color:#FBD297"/>
		<stop  offset="0.032" style="stop-color:#FCD290"/>
		<stop  offset="0.1171" style="stop-color:#FDD281"/>
		<stop  offset="0.2175" style="stop-color:#FFD376"/>
		<stop  offset="0.3418" style="stop-color:#FFD36C"/>
		<stop  offset="0.5161" style="stop-color:#FFD367"/>
		<stop  offset="1" style="stop-color:#FFD365"/>
	</linearGradient>
	<path fill="url(#SVGID_11_)" d="M746.277,30.272c0.5-0.439,2.126-0.394,2.663,0c0.409,0.3,0.668,1.433,0.605,1.937
		c-0.096,0.775-0.952,2.281-1.634,2.663c-0.488,0.273-1.87,0.421-2.239,0C744.907,33.999,745.405,31.036,746.277,30.272z"/>
	<linearGradient id="SVGID_12_" gradientUnits="userSpaceOnUse" x1="728.0965" y1="24.2757" x2="762.595" y2="24.2757">
		<stop  offset="0" style="stop-color:#FBD297"/>
		<stop  offset="0.032" style="stop-color:#FCD290"/>
		<stop  offset="0.1171" style="stop-color:#FDD281"/>
		<stop  offset="0.2175" style="stop-color:#FFD376"/>
		<stop  offset="0.3418" style="stop-color:#FFD36C"/>
		<stop  offset="0.5161" style="stop-color:#FFD367"/>
		<stop  offset="1" style="stop-color:#FFD365"/>
	</linearGradient>
	<path fill="url(#SVGID_12_)" d="M728.106,6.512c0.132-0.372,1.228,0.183,1.578,0c0.447-0.234,0.702-1.425,1.149-1.659
		c0.594-0.311,2.095-0.326,2.68,0c0.688,0.384,1.588,1.896,1.659,2.68c0.06,0.667-0.498,2.232,0,2.68
		c1.382,1.246,5.544-0.684,7.403-0.766c2.104-0.093,6.355-0.266,8.424,0.128c1.776,0.338,5.267,1.542,6.765,2.553
		c1.367,0.922,3.868,3.315,4.467,4.85c0.592,1.516,0.362,4.923,0,6.51c-0.442,1.934-3.188,5.181-3.446,7.148
		c-0.178,1.353,0.785,4.017,1.021,5.361c0.174,0.987,0.624,2.955,0.638,3.957c0.013,0.966,0.216,3.193-0.511,3.829
		c-0.216,0.189-0.968,0.223-1.149,0c-0.574-0.711,0.752-2.66,0.766-3.574c0.017-1.07-0.565-3.161-0.766-4.212
		c-0.275-1.438-1.297-4.287-1.149-5.744c0.208-2.034,2.76-5.532,3.191-7.531c0.276-1.279,0.633-4.026,0.128-5.233
		c-0.557-1.333-3.005-3.163-4.212-3.957c-1.337-0.88-4.304-2.227-5.872-2.553c-2.062-0.429-6.327-0.189-8.424,0
		c-1.777,0.16-5.401,0.528-7.02,1.276c-0.412,0.19-0.972,1.288-1.404,1.149c-0.471-0.152-0.495-1.419-0.511-1.915
		c-0.021-0.651,0.521-1.902,0.511-2.553c-0.009-0.557-0.158-1.739-0.511-2.17c-0.267-0.326-1.113-0.749-1.532-0.704
		c-0.397,0.043-0.909,0.804-1.276,0.959c-0.387,0.163-1.254,0.365-1.659,0.255C728.753,7.198,728.004,6.797,728.106,6.512z"/>
	<linearGradient id="SVGID_13_" gradientUnits="userSpaceOnUse" x1="216.9984" y1="25.4167" x2="252.2914" y2="25.4167">
		<stop  offset="0" style="stop-color:#FBD297"/>
		<stop  offset="0.032" style="stop-color:#FCD290"/>
		<stop  offset="0.1171" style="stop-color:#FDD281"/>
		<stop  offset="0.2175" style="stop-color:#FFD376"/>
		<stop  offset="0.3418" style="stop-color:#FFD36C"/>
		<stop  offset="0.5161" style="stop-color:#FFD367"/>
		<stop  offset="1" style="stop-color:#FFD365"/>
	</linearGradient>
	<path fill="url(#SVGID_13_)" d="M217.018,23.048c0.29-0.224,8.051-0.167,9.976-0.243c2.877-0.113,8.611-1.138,11.48-0.906
		c1.899,0.154,5.579,1.258,7.402,1.813c1.577,0.48,5.249,0.915,6.193,2.266c0.216,0.31,0.368,1.597,0,1.511
		c-2.114-0.497-2.946,0-3.927,0c-0.604,0-1.824-0.114-2.417,0c-0.799,0.154-2.219,1.074-3.021,1.208
		c-3.841,0.643-11.747,0.041-15.559-0.755c-1.819-0.38-6.991-2.401-6.949-2.643c0.038-0.22,6.495,0,6.495,0
		c0.514,0.147,1.81,0.674,2.32,0.832c3.43,1.062,10.388,1.885,13.842,0.905c0.746-0.211,2.843-1.619,2.568-1.737
		c-0.214-0.092-5.187-1.146-6.949-1.284c-2.9-0.228-8.874,1.246-11.782,1.284h-6.495C219.929,25.031,216.719,23.279,217.018,23.048z
		"/>
	<linearGradient id="SVGID_14_" gradientUnits="userSpaceOnUse" x1="685.2404" y1="22.0186" x2="704.5097" y2="22.0186">
		<stop  offset="0" style="stop-color:#FBD297"/>
		<stop  offset="0.032" style="stop-color:#FCD290"/>
		<stop  offset="0.1171" style="stop-color:#FDD281"/>
		<stop  offset="0.2175" style="stop-color:#FFD376"/>
		<stop  offset="0.3418" style="stop-color:#FFD36C"/>
		<stop  offset="0.5161" style="stop-color:#FFD367"/>
		<stop  offset="1" style="stop-color:#FFD365"/>
	</linearGradient>
	<ellipse fill="url(#SVGID_14_)" cx="694.875" cy="22.019" rx="9.635" ry="8.734"/>
	<linearGradient id="SVGID_15_" gradientUnits="userSpaceOnUse" x1="903.4547" y1="31.359" x2="917.5856" y2="31.359">
		<stop  offset="0" style="stop-color:#FBD297"/>
		<stop  offset="0.032" style="stop-color:#FCD290"/>
		<stop  offset="0.1171" style="stop-color:#FDD281"/>
		<stop  offset="0.2175" style="stop-color:#FFD376"/>
		<stop  offset="0.3418" style="stop-color:#FFD36C"/>
		<stop  offset="0.5161" style="stop-color:#FFD367"/>
		<stop  offset="1" style="stop-color:#FFD365"/>
	</linearGradient>
	<path fill="url(#SVGID_15_)" d="M903.457,34.996c-0.057-0.286,1.169-6.581,6.55-7.208c5.406-0.629,7.579,3.375,7.579,3.375v1.201
		L903.457,34.996z"/>
	<linearGradient id="SVGID_16_" gradientUnits="userSpaceOnUse" x1="777.1934" y1="31.4925" x2="795.6936" y2="31.4925">
		<stop  offset="0" style="stop-color:#FBD297"/>
		<stop  offset="0.032" style="stop-color:#FCD290"/>
		<stop  offset="0.1171" style="stop-color:#FDD281"/>
		<stop  offset="0.2175" style="stop-color:#FFD376"/>
		<stop  offset="0.3418" style="stop-color:#FFD36C"/>
		<stop  offset="0.5161" style="stop-color:#FFD367"/>
		<stop  offset="1" style="stop-color:#FFD365"/>
	</linearGradient>
	<polygon fill="url(#SVGID_16_)" points="777.193,29.002 794.982,29.002 795.694,29.714 795.694,33.983 777.193,33.983 	"/>
	<g>
		<g>
			<linearGradient id="SVGID_17_" gradientUnits="userSpaceOnUse" x1="625.9412" y1="17.9679" x2="662.3523" y2="17.9679">
				<stop  offset="0" style="stop-color:#FBD297"/>
				<stop  offset="0.032" style="stop-color:#FCD290"/>
				<stop  offset="0.1171" style="stop-color:#FDD281"/>
				<stop  offset="0.2175" style="stop-color:#FFD376"/>
				<stop  offset="0.3418" style="stop-color:#FFD36C"/>
				<stop  offset="0.5161" style="stop-color:#FFD367"/>
				<stop  offset="1" style="stop-color:#FFD365"/>
			</linearGradient>
			<path fill="url(#SVGID_17_)" d="M625.941,17.121c3.454-2.015,5.829-5.757,10.218-3.958c3.958,1.511,7.124,4.965,11.297,6.045
				c2.015,0.504,4.318,0.864,6.332,0.504c2.015-0.36,6.045-0.792,7.412-2.447c0.36,0.216,0.72,0.504,1.151,0.648
				c-1.367,1.367-3.526,2.231-5.109,3.238c-1.871,1.151-3.238,1.871-5.469,2.015c-3.022,0.216-6.117,0-9.139-0.576
				c-2.375-0.432-4.677-1.799-7.052-1.439c0.36-1.007,0.216-2.878-0.288-3.31c-0.576-0.432-0.792-1.079-1.151-1.655
				c-1.727-2.591-4.677-0.648-6.692,0.792L625.941,17.121z"/>
		</g>
		<g>
			<g>
				<linearGradient id="SVGID_18_" gradientUnits="userSpaceOnUse" x1="627.6656" y1="20.5158" x2="650.9667" y2="20.5158">
					<stop  offset="0" style="stop-color:#FBD297"/>
					<stop  offset="0.032" style="stop-color:#FCD290"/>
					<stop  offset="0.1171" style="stop-color:#FDD281"/>
					<stop  offset="0.2175" style="stop-color:#FFD376"/>
					<stop  offset="0.3418" style="stop-color:#FFD36C"/>
					<stop  offset="0.5161" style="stop-color:#FFD367"/>
					<stop  offset="1" style="stop-color:#FFD365"/>
				</linearGradient>
				<path fill="url(#SVGID_18_)" d="M627.419,17.13c3.174,3.076,6.037,6.983,10.381,8.473c4.227,1.451,10.06,2.146,13.408-1.42
					c0.327-0.348,0.18-0.903-0.276-1.045c-2.632-0.815-5.396-0.312-8.091-0.861c-2.705-0.551-4.583-2.605-7.352-1.802
					c0.256,0.256,0.513,0.513,0.769,0.769c1.059-2.698-0.501-4.903-2.784-6.424c-2.195-1.463-4.114,0.2-5.929,1.328
					c-0.683,0.425-0.056,1.506,0.631,1.079c2.81-1.747,8.673-0.89,6.876,3.685c-0.178,0.454,0.346,0.892,0.769,0.769
					c2.085-0.605,6.007,1.663,8.087,2.087c2.243,0.457,4.447-0.12,6.692,0.576c-0.092-0.348-0.184-0.696-0.276-1.045
					c-3.659,3.898-10.485,2.1-14.542-0.09c-2.78-1.5-5.192-4.747-7.48-6.963C627.724,15.686,626.839,16.569,627.419,17.13z"/>
			</g>
		</g>
		<g>
			<g>
				<linearGradient id="SVGID_19_" gradientUnits="userSpaceOnUse" x1="648.8992" y1="24.2096" x2="664.1389" y2="24.2096">
					<stop  offset="0" style="stop-color:#FBD297"/>
					<stop  offset="0.032" style="stop-color:#FCD290"/>
					<stop  offset="0.1171" style="stop-color:#FDD281"/>
					<stop  offset="0.2175" style="stop-color:#FFD376"/>
					<stop  offset="0.3418" style="stop-color:#FFD36C"/>
					<stop  offset="0.5161" style="stop-color:#FFD367"/>
					<stop  offset="1" style="stop-color:#FFD365"/>
				</linearGradient>
				<path fill="url(#SVGID_19_)" d="M649.329,25.89c2.112-0.244,4.02,0.536,6.096,0.659c2.672,0.159,5.893-1.601,8.416-0.91
					c0.38,0.104,0.808-0.194,0.791-0.603c-0.132-3.156-4.104-3.207-6.477-3.171c-2.092,0.032-4.173,0.384-6.209,0.848
					c-1.32,0.301-2.067,1.223-3.06,2.11c-0.602,0.538,0.285,1.419,0.884,0.884c1.984-1.772,3.4-2.075,6.123-2.439
					c1.713-0.229,7.377-0.866,7.488,1.769c0.264-0.201,0.527-0.402,0.791-0.603c-2.327-0.638-4.569,0.533-6.901,0.832
					c-2.687,0.345-5.243-0.938-7.943-0.626C648.538,24.731,648.529,25.982,649.329,25.89z"/>
			</g>
		</g>
		<g>
			<g>
				<linearGradient id="SVGID_20_" gradientUnits="userSpaceOnUse" x1="655.4288" y1="20.0463" x2="665.0931" y2="20.0463">
					<stop  offset="0" style="stop-color:#FBD297"/>
					<stop  offset="0.032" style="stop-color:#FCD290"/>
					<stop  offset="0.1171" style="stop-color:#FDD281"/>
					<stop  offset="0.2175" style="stop-color:#FFD376"/>
					<stop  offset="0.3418" style="stop-color:#FFD36C"/>
					<stop  offset="0.5161" style="stop-color:#FFD367"/>
					<stop  offset="1" style="stop-color:#FFD365"/>
				</linearGradient>
				<path fill="url(#SVGID_20_)" d="M660.408,23.086c2.29-0.49,4.092-3.148,5.003-5.145c0.203-0.446-0.135-1.125-0.706-0.918
					c-3.2,1.159-5.955,3.336-9.044,4.738c-0.604,0.274-0.254,1.14,0.315,1.165c1.422,0.061,2.844,0.122,4.266,0.183
					c0.806,0.035,0.803-1.216,0-1.25c-1.422-0.061-2.844-0.122-4.266-0.183c0.105,0.388,0.21,0.776,0.315,1.165
					c2.987-1.356,5.654-3.492,8.745-4.612c-0.235-0.306-0.471-0.612-0.706-0.918c-0.775,1.701-2.3,4.152-4.255,4.571
					C659.288,22.049,659.622,23.254,660.408,23.086z"/>
			</g>
		</g>
		<g>
			<g>
				<linearGradient id="SVGID_21_" gradientUnits="userSpaceOnUse" x1="640.1912" y1="29.0285" x2="649.4544" y2="29.0285">
					<stop  offset="0" style="stop-color:#FBD297"/>
					<stop  offset="0.032" style="stop-color:#FCD290"/>
					<stop  offset="0.1171" style="stop-color:#FDD281"/>
					<stop  offset="0.2175" style="stop-color:#FFD376"/>
					<stop  offset="0.3418" style="stop-color:#FFD36C"/>
					<stop  offset="0.5161" style="stop-color:#FFD367"/>
					<stop  offset="1" style="stop-color:#FFD365"/>
				</linearGradient>
				<path fill="url(#SVGID_21_)" d="M646.773,25.441c-0.729,1.289-1.222,2.763-2.187,3.905c-0.465,0.55-1.389,0.87-2.023,1.18
					c-0.785,0.383-1.491,0.856-2.186,1.383c-0.52,0.395-0.246,1.389,0.482,1.142c1.125-0.381,2.181-0.945,3.311-1.345
					c1.757-0.622,3.528-0.133,5.324-0.454c0.314-0.056,0.549-0.471,0.437-0.769c-0.505-1.332-3.494-0.486-4.574-0.794
					c0.125,0.306,0.249,0.612,0.374,0.918c1.028-1.501,2.104-3.049,2.871-4.704c0.23-0.497-0.141-1.045-0.706-0.918
					c-0.249,0.056-0.499,0.112-0.748,0.168c-0.786,0.176-0.453,1.381,0.332,1.205c0.249-0.056,0.499-0.112,0.748-0.168
					c-0.235-0.306-0.471-0.612-0.706-0.918c-0.767,1.655-1.843,3.202-2.871,4.704c-0.232,0.339,0.007,0.814,0.374,0.918
					c0.584,0.166,1.213,0.153,1.815,0.163c0.475,0.008,2.069,0.241,1.886-0.242c0.146-0.256,0.291-0.513,0.437-0.769
					c-1.618,0.289-3.225-0.166-4.828,0.288c-1.339,0.379-2.515,1.073-3.807,1.511c0.161,0.381,0.321,0.762,0.482,1.142
					c1.39-1.054,3.182-1.586,4.462-2.758c1.143-1.047,1.636-2.838,2.383-4.158C648.25,25.369,647.17,24.739,646.773,25.441z"/>
			</g>
		</g>
		<g>
			<g>
				<linearGradient id="SVGID_22_" gradientUnits="userSpaceOnUse" x1="633.0741" y1="29.2076" x2="642.9677" y2="29.2076">
					<stop  offset="0" style="stop-color:#FBD297"/>
					<stop  offset="0.032" style="stop-color:#FCD290"/>
					<stop  offset="0.1171" style="stop-color:#FDD281"/>
					<stop  offset="0.2175" style="stop-color:#FFD376"/>
					<stop  offset="0.3418" style="stop-color:#FFD36C"/>
					<stop  offset="0.5161" style="stop-color:#FFD367"/>
					<stop  offset="1" style="stop-color:#FFD365"/>
				</linearGradient>
				<path fill="url(#SVGID_22_)" d="M641.459,25.788c-0.507,0.828-0.864,1.732-1.27,2.612c-0.703,1.52-1.384,2.171-3.105,2.153
					c-1.834-0.019-3.294-0.455-4.198,1.436c-0.26,0.543,0.281,1.191,0.855,0.855c1.309-0.766,4.091-1.323,5.486-0.576
					c0.323,0.173,0.852,0.043,0.918-0.374c0.308-1.938,2.01-3.91,3.12-5.476c0.282-0.397-0.098-0.94-0.54-0.94
					c-0.242,0-0.484,0-0.726,0c-0.806,0-0.806,1.25,0,1.25c0.242,0,0.484,0,0.726,0c-0.18-0.313-0.36-0.627-0.54-0.94
					c-1.18,1.663-2.918,3.707-3.246,5.774c0.306-0.125,0.612-0.249,0.918-0.374c-1.809-0.97-5.035-0.427-6.747,0.576
					c0.285,0.285,0.57,0.57,0.855,0.855c0.864-1.807,4.125-0.25,5.708-1.344c1.54-1.064,1.937-3.34,2.866-4.857
					C642.96,25.73,641.879,25.102,641.459,25.788z"/>
			</g>
		</g>
	</g>
	<linearGradient id="SVGID_23_" gradientUnits="userSpaceOnUse" x1="952.5431" y1="23.278" x2="975.0714" y2="23.278">
		<stop  offset="0" style="stop-color:#FBD297"/>
		<stop  offset="0.032" style="stop-color:#FCD290"/>
		<stop  offset="0.1171" style="stop-color:#FDD281"/>
		<stop  offset="0.2175" style="stop-color:#FFD376"/>
		<stop  offset="0.3418" style="stop-color:#FFD36C"/>
		<stop  offset="0.5161" style="stop-color:#FFD367"/>
		<stop  offset="1" style="stop-color:#FFD365"/>
	</linearGradient>
	<path fill="url(#SVGID_23_)" d="M952.543,30.228c0,0,0.934-6.304,2.202-7.922c1.206-1.539,6.815-3.838,6.815-3.838l0.218-3.601
		l6.13,0.371l-0.227,3.755c0,0,4.836,3.584,5.817,5.288c0.933,1.62,1.573,7.311,1.573,7.311l-1.839-0.111
		c0,0-0.609-5.203-1.499-6.751c-0.708-1.232-4.478-4.06-4.478-4.06l-0.721,11.022l-1.259-0.076l0.649-10.728l-1.094-0.066
		l-0.524,10.735l-1.379-0.083l0.8-10.578l-1.033-0.172l-0.687,10.694l-1.073-0.065l0.351-10.9c0,0-4.361,1.554-5.248,2.739
		c-1.187,1.585-1.54,7.772-1.54,7.772L952.543,30.228z"/>
	<linearGradient id="SVGID_24_" gradientUnits="userSpaceOnUse" x1="929.4053" y1="21.7437" x2="943.3088" y2="21.7437">
		<stop  offset="0" style="stop-color:#FBD297"/>
		<stop  offset="0.032" style="stop-color:#FCD290"/>
		<stop  offset="0.1171" style="stop-color:#FDD281"/>
		<stop  offset="0.2175" style="stop-color:#FFD376"/>
		<stop  offset="0.3418" style="stop-color:#FFD36C"/>
		<stop  offset="0.5161" style="stop-color:#FFD367"/>
		<stop  offset="1" style="stop-color:#FFD365"/>
	</linearGradient>
	<path fill="url(#SVGID_24_)" d="M929.405,11.916c0,0,3.089-3.314,4.475-3.276c1.291,0.035,3.462,2.1,3.995,3.276
		c1.28,2.821-0.4,12.385-0.4,12.385s2.412-2.193,3.436-2.237c0.679-0.03,2.397,1.278,2.397,1.278v0.959c0,0-1.764-0.959-2.397-0.879
		c-1.011,0.129-3.356,2.317-3.356,2.317v0.799c0,0,2.258-0.698,3.036-0.799c0.436-0.056,1.535,0.59,1.535,0.59l-0.396,1.05
		c0,0-1.206-0.16-1.655-0.12c-0.758,0.069-2.281,0.797-2.281,0.797l-0.08,6.233l-1.358,0.559l-1.279-1.039l0.08-3.995
		c0,0-1.837-1.95-2.837-2.157c-0.674-0.14-2.347,0.066-2.347,0.066l-0.103-1.116c0,0,1.577-0.9,2.329-0.868
		c0.669,0.028,2.397,1.199,2.397,1.199l-0.08-1.199c0,0-1.006-1.455-2.557-1.598c-0.777-0.072-2.072,1.105-2.072,1.105l-0.259-1.675
		c0,0,1.294-1.402,1.932-1.508c0.926-0.153,1.651,0.154,2.115,0.43c0.58,0.346,2.2,1.567,2.2,1.567s1.386-9.1,0-11.666
		c-0.329-0.609-1.627-1.461-2.317-1.518c-1.038-0.086-3.815,1.678-3.815,1.678L929.405,11.916z"/>
	<linearGradient id="SVGID_25_" gradientUnits="userSpaceOnUse" x1="423.5507" y1="26.5426" x2="436.9773" y2="26.5426">
		<stop  offset="0" style="stop-color:#FBD297"/>
		<stop  offset="0.032" style="stop-color:#FCD290"/>
		<stop  offset="0.1171" style="stop-color:#FDD281"/>
		<stop  offset="0.2175" style="stop-color:#FFD376"/>
		<stop  offset="0.3418" style="stop-color:#FFD36C"/>
		<stop  offset="0.5161" style="stop-color:#FFD367"/>
		<stop  offset="1" style="stop-color:#FFD365"/>
	</linearGradient>
	<polygon fill="url(#SVGID_25_)" points="423.551,24.735 436.461,24.735 436.977,25.252 436.977,28.35 423.551,28.35 	"/>
	<linearGradient id="SVGID_26_" gradientUnits="userSpaceOnUse" x1="423.5172" y1="19.0234" x2="436.9437" y2="19.0234">
		<stop  offset="0" style="stop-color:#FBD297"/>
		<stop  offset="0.032" style="stop-color:#FCD290"/>
		<stop  offset="0.1171" style="stop-color:#FDD281"/>
		<stop  offset="0.2175" style="stop-color:#FFD376"/>
		<stop  offset="0.3418" style="stop-color:#FFD36C"/>
		<stop  offset="0.5161" style="stop-color:#FFD367"/>
		<stop  offset="1" style="stop-color:#FFD365"/>
	</linearGradient>
	<polygon fill="url(#SVGID_26_)" points="423.517,17.216 436.427,17.216 436.944,17.732 436.944,20.831 423.517,20.831 	"/>
	<g>
		<linearGradient id="SVGID_27_" gradientUnits="userSpaceOnUse" x1="474.116" y1="21.9841" x2="516.7007" y2="21.9841">
			<stop  offset="0" style="stop-color:#FBD297"/>
			<stop  offset="0.032" style="stop-color:#FCD290"/>
			<stop  offset="0.1171" style="stop-color:#FDD281"/>
			<stop  offset="0.2175" style="stop-color:#FFD376"/>
			<stop  offset="0.3418" style="stop-color:#FFD36C"/>
			<stop  offset="0.5161" style="stop-color:#FFD367"/>
			<stop  offset="1" style="stop-color:#FFD365"/>
		</linearGradient>
		<path fill="url(#SVGID_27_)" d="M474.116,23.34c2.762-0.548,3.282-2.91,5.134-3.823c0.406,1.905,2.699,2.74,2.781,0.117
			c1.905-0.406,0.86,1.345,2.119,1.622c1.609,0.189,0.926-0.457,2.167-0.844c1.433-0.51,0.139-0.63,1.713-0.283
			c1.102,0.243,0.387,1.241,2.135,0.8c1.206-0.23,0.189-1.609,1.956-1.386c0.979,0.05,1.017,1.379,2.504,1.376
			c0.507-0.054,0.277-1.26,0.942-1.279c0.63,0.139,0.718,0.488,1.19,0.592c1.068,0.4,0.564,1.94,2.154,1.465
			c1.241-0.387-0.249-1.871,1.43-1.997c0.822,0.016,1.228,1.921,2.4,1.849c1.014-0.107,0.539-1.697,1.868-1.735
			c0.822,0.016,0.756,1.817,1.927,1.745c1.329-0.038,0.923-1.943,2.06-1.858c0.822,0.016,0.441,1.748,1.351,2.113
			c2.73,1.096,1.392-3.326,3.723-1.162c0.438,0.261,0.633,1.625,1.001,2.201c0.403,0.419,1.436,0.976,2.031,1.272
			c-1.606,1.297-2.941-1.638-3.486-2.913c-2.06,1.858-2.809,3.014-4.563,0.482c-2.183,1.666-2.34,1.631-4.198-0.429
			c-0.384,0.246-1.257,1.209-1.921,1.228c-0.857,0.142-1.505-0.661-1.82-0.731c-0.699,0.176-1.257,1.209-1.921,1.228
			c-0.787-0.173-2.426-1.354-2.898-1.458c-1.329,0.038-1.492,1.153-2.786,1.033c-0.665,0.019-0.929-1.03-1.786-0.888
			c-0.822-0.016-1.414,1.175-2.271,1.316c-0.665,0.019-0.79-1.66-1.297-1.606c-0.857,0.142-1.222,1.052-1.764,1.263
			c-2.063,0.372-1.89-0.416-3.499-0.605c-0.315-0.069-1.852,0.913-2.044,1.036c-0.157-0.035-1.19-0.592-1.697-0.539
			c-1.679,0.126-2.513,2.419-4.318,0.866"/>
	</g>
	<linearGradient id="SVGID_28_" gradientUnits="userSpaceOnUse" x1="365.5623" y1="21.5006" x2="380.5081" y2="21.5006">
		<stop  offset="0" style="stop-color:#FBD297"/>
		<stop  offset="0.032" style="stop-color:#FCD290"/>
		<stop  offset="0.1171" style="stop-color:#FDD281"/>
		<stop  offset="0.2175" style="stop-color:#FFD376"/>
		<stop  offset="0.3418" style="stop-color:#FFD36C"/>
		<stop  offset="0.5161" style="stop-color:#FFD367"/>
		<stop  offset="1" style="stop-color:#FFD365"/>
	</linearGradient>
	<path fill="url(#SVGID_28_)" d="M365.562,25.936l14.946-1.639v-1.929c0,0-1.346-5.308-7.473-5.303
		c-5.854,0.005-7.473,5.496-7.473,5.496V25.936z"/>
	<linearGradient id="SVGID_29_" gradientUnits="userSpaceOnUse" x1="407.9932" y1="22.2919" x2="409.9061" y2="22.2919">
		<stop  offset="0" style="stop-color:#FBD297"/>
		<stop  offset="0.032" style="stop-color:#FCD290"/>
		<stop  offset="0.1171" style="stop-color:#FDD281"/>
		<stop  offset="0.2175" style="stop-color:#FFD376"/>
		<stop  offset="0.3418" style="stop-color:#FFD36C"/>
		<stop  offset="0.5161" style="stop-color:#FFD367"/>
		<stop  offset="1" style="stop-color:#FFD365"/>
	</linearGradient>
	<path fill="url(#SVGID_29_)" d="M409.069,6.574c-0.359-0.083-0.359-0.083-0.359-0.083l-0.717,1.83l0.538,17.881v0.915l-0.538,0.749
		l0.538,0.832v8.483v0.913h1.375v-1.162L408.95,8.404L409.069,6.574z"/>
	<g>
		<linearGradient id="SVGID_30_" gradientUnits="userSpaceOnUse" x1="804.1309" y1="28.7111" x2="820.0225" y2="28.7111">
			<stop  offset="0" style="stop-color:#FBD297"/>
			<stop  offset="0.032" style="stop-color:#FCD290"/>
			<stop  offset="0.1171" style="stop-color:#FDD281"/>
			<stop  offset="0.2175" style="stop-color:#FFD376"/>
			<stop  offset="0.3418" style="stop-color:#FFD36C"/>
			<stop  offset="0.5161" style="stop-color:#FFD367"/>
			<stop  offset="1" style="stop-color:#FFD365"/>
		</linearGradient>
		<path fill="url(#SVGID_30_)" d="M804.131,33.282c2.109-1.969,4.219-3.797,6.469-5.625c1.547-1.266,3.094-2.531,4.641-4.078
			c0.844-0.703,3.516-3.094,0.563-2.672c0.563-1.125,2.813,0,4.219-0.984c-0.281,1.547-1.266,2.672-1.406,4.782
			c-0.141,1.828-0.281,3.656-0.844,5.625c-0.703,2.25-1.547,6.047-3.797,7.172c-0.422-0.984,1.828-4.5,2.25-5.907
			c0.844-2.672,1.969-5.485,1.406-8.297c-4.219,2.813-8.86,6.891-12.376,10.548c-0.281-0.141-0.703-0.281-0.844-0.563"/>
	</g>
	<linearGradient id="SVGID_31_" gradientUnits="userSpaceOnUse" x1="341.7247" y1="22.557" x2="353.0132" y2="22.557">
		<stop  offset="0" style="stop-color:#FBD297"/>
		<stop  offset="0.032" style="stop-color:#FCD290"/>
		<stop  offset="0.1171" style="stop-color:#FDD281"/>
		<stop  offset="0.2175" style="stop-color:#FFD376"/>
		<stop  offset="0.3418" style="stop-color:#FFD36C"/>
		<stop  offset="0.5161" style="stop-color:#FFD367"/>
		<stop  offset="1" style="stop-color:#FFD365"/>
	</linearGradient>
	<path fill="url(#SVGID_31_)" d="M341.725,17.69h1.881v2.699h3.599v-3.19h0.908v0.982l0.891,0.164v2.045h2.372v-1.595l-0.736-0.532
		l-0.082-1.063h1.963l0.491,7.444c0,0-1.142,3.309-4.899,3.272c-4.924-0.049-5.898-4.008-5.898-4.008L341.725,17.69z"/>
	<linearGradient id="SVGID_32_" gradientUnits="userSpaceOnUse" x1="400.3235" y1="15.05" x2="402.5734" y2="15.05">
		<stop  offset="0" style="stop-color:#FBD297"/>
		<stop  offset="0.032" style="stop-color:#FCD290"/>
		<stop  offset="0.1171" style="stop-color:#FDD281"/>
		<stop  offset="0.2175" style="stop-color:#FFD376"/>
		<stop  offset="0.3418" style="stop-color:#FFD36C"/>
		<stop  offset="0.5161" style="stop-color:#FFD367"/>
		<stop  offset="1" style="stop-color:#FFD365"/>
	</linearGradient>
	<path fill="url(#SVGID_32_)" d="M402.468,13.925c-0.23-0.246-1.052-0.159-1.349,0c-0.315,0.169-0.761,0.834-0.793,1.19
		c-0.028,0.301,0.224,0.945,0.476,1.111c0.215,0.142,0.809,0.131,1.032,0c0.283-0.167,0.553-0.832,0.635-1.151
		C402.54,14.797,402.664,14.135,402.468,13.925z"/>
	<linearGradient id="SVGID_33_" gradientUnits="userSpaceOnUse" x1="400.0784" y1="21.1295" x2="402.8708" y2="21.1295">
		<stop  offset="0" style="stop-color:#FBD297"/>
		<stop  offset="0.032" style="stop-color:#FCD290"/>
		<stop  offset="0.1171" style="stop-color:#FDD281"/>
		<stop  offset="0.2175" style="stop-color:#FFD376"/>
		<stop  offset="0.3418" style="stop-color:#FFD36C"/>
		<stop  offset="0.5161" style="stop-color:#FFD367"/>
		<stop  offset="1" style="stop-color:#FFD365"/>
	</linearGradient>
	<path fill="url(#SVGID_33_)" d="M400.722,19.638c0.328-0.288,1.394-0.258,1.746,0c0.268,0.197,0.438,0.94,0.397,1.27
		c-0.063,0.508-0.624,1.496-1.071,1.746c-0.32,0.179-1.226,0.276-1.468,0C399.824,22.082,400.151,20.139,400.722,19.638z"/>
	<linearGradient id="SVGID_34_" gradientUnits="userSpaceOnUse" x1="400.7476" y1="28.1365" x2="404.0601" y2="28.1365">
		<stop  offset="0" style="stop-color:#FBD297"/>
		<stop  offset="0.032" style="stop-color:#FCD290"/>
		<stop  offset="0.1171" style="stop-color:#FDD281"/>
		<stop  offset="0.2175" style="stop-color:#FFD376"/>
		<stop  offset="0.3418" style="stop-color:#FFD36C"/>
		<stop  offset="0.5161" style="stop-color:#FFD367"/>
		<stop  offset="1" style="stop-color:#FFD365"/>
	</linearGradient>
	<path fill="url(#SVGID_34_)" d="M400.881,26.541c0.252-0.322,1.19-0.495,1.587-0.397c0.518,0.129,1.513,0.9,1.587,1.428
		c0.078,0.556-0.741,1.568-1.19,1.904c-0.412,0.309-1.65,0.948-1.984,0.555c-0.198-0.233,0.534-0.805,0.516-1.111
		c-0.015-0.245-0.449-0.598-0.516-0.833C400.775,27.716,400.643,26.846,400.881,26.541z"/>
	<g>
		<linearGradient id="SVGID_35_" gradientUnits="userSpaceOnUse" x1="990.4476" y1="23.4757" x2="1034.1129" y2="23.4757">
			<stop  offset="0" style="stop-color:#FBD297"/>
			<stop  offset="0.032" style="stop-color:#FCD290"/>
			<stop  offset="0.1171" style="stop-color:#FDD281"/>
			<stop  offset="0.2175" style="stop-color:#FFD376"/>
			<stop  offset="0.3418" style="stop-color:#FFD36C"/>
			<stop  offset="0.5161" style="stop-color:#FFD367"/>
			<stop  offset="1" style="stop-color:#FFD365"/>
		</linearGradient>
		<path fill="url(#SVGID_35_)" d="M992.276,26.761c0.416-0.105,1.731-0.931,2.083-1.177c1.773-1.242,3.626-4.097,5.464-5.24
			c0.602-0.374,1.969-0.836,2.667-0.957c5.255-0.915,16.072-0.854,21.338,0c0.641,0.104,1.882,0.236,2.5,0.432
			c0.851,0.269,2.554,1.08,3.381,1.415c1.056,0.427,2.579,0.953,3.985,0.125c0.457-0.269,0.574,0.423,0.182,0.708
			c-0.731,0.534-2.699,0.682-3.564,0.952c-1.275,0.399-3.318,2.399-4.57,2.865c-2.778,1.034-8.667,2.155-11.626,2.325
			c-2.278,0.131-6.845-0.38-9.096-0.752c-0.765-0.126-3.583-0.534-4.352-0.635c-1.068-0.14-1.889-0.213-2.966-0.186
			c-0.771,0.02-2.158,0.079-2.86,0.397c-0.308,0.14-1.152,0.69-1.447,0.857c-0.476,0.27-2.477,0.181-2.87-0.2
			c-0.11-0.107-0.095-0.495,0-0.616C990.617,26.958,992.132,26.797,992.276,26.761z"/>
		<linearGradient id="SVGID_36_" gradientUnits="userSpaceOnUse" x1="996.5396" y1="23.7918" x2="1028.2047" y2="23.7918">
			<stop  offset="0.4237" style="stop-color:#FEBF46"/>
			<stop  offset="1" style="stop-color:#FFD365"/>
		</linearGradient>
		<path fill="url(#SVGID_36_)" d="M996.54,25.541c0,0,3.551-3.491,5.061-4.103c0.891-0.361,2.87-0.299,3.83-0.342
			c2.972-0.132,8.926-0.072,11.9,0c2.105,0.051,6.348-0.003,8.412,0.41c0.642,0.128,2.462,0.889,2.462,0.889
			s-2.975,1.702-4.035,2.12c-1.682,0.664-5.18,1.705-6.976,1.915c-3.382,0.395-10.22-0.163-13.61-0.479
			c-1.136-0.106-3.373-0.66-4.514-0.684C998.434,25.254,996.54,25.541,996.54,25.541z"/>
		<linearGradient id="SVGID_37_" gradientUnits="userSpaceOnUse" x1="1004.7466" y1="23.797" x2="1017.2621" y2="23.797">
			<stop  offset="0.4237" style="stop-color:#FEBF46"/>
			<stop  offset="0.518" style="stop-color:#FEC24A"/>
		</linearGradient>
		<polygon fill="url(#SVGID_37_)" points="1017.262,20.412 1005.43,20.412 1004.747,22.327 1006.388,25.951 1011.38,27.182 
			1014.116,26.84 1016.92,24.31 		"/>
		<linearGradient id="SVGID_38_" gradientUnits="userSpaceOnUse" x1="1009.8075" y1="23.2157" x2="1012.3721" y2="23.2157">
			<stop  offset="0" style="stop-color:#FBD297"/>
			<stop  offset="0.032" style="stop-color:#FCD290"/>
			<stop  offset="0.1171" style="stop-color:#FDD281"/>
			<stop  offset="0.2175" style="stop-color:#FFD376"/>
			<stop  offset="0.3418" style="stop-color:#FFD36C"/>
			<stop  offset="0.5161" style="stop-color:#FFD367"/>
			<stop  offset="1" style="stop-color:#FFD365"/>
		</linearGradient>
		<ellipse fill="url(#SVGID_38_)" cx="1011.09" cy="23.216" rx="1.282" ry="1.299"/>
		<linearGradient id="SVGID_39_" gradientUnits="userSpaceOnUse" x1="1004.3901" y1="23.8186" x2="1018.4667" y2="23.8186">
			<stop  offset="0" style="stop-color:#FBD297"/>
			<stop  offset="0.032" style="stop-color:#FCD290"/>
			<stop  offset="0.1171" style="stop-color:#FDD281"/>
			<stop  offset="0.2175" style="stop-color:#FFD376"/>
			<stop  offset="0.3418" style="stop-color:#FFD36C"/>
			<stop  offset="0.5161" style="stop-color:#FFD367"/>
			<stop  offset="1" style="stop-color:#FFD365"/>
		</linearGradient>
		<path fill="url(#SVGID_39_)" d="M1004.439,20.142c0,0-0.11,1.85,0,2.453c0.166,0.914,0.603,2.874,1.308,3.48
			c1.103,0.948,4.244,1.057,5.691,1.21c0.915,0.096,2.862,0.421,3.68,0c0.828-0.426,1.759-2.192,2.164-3.03
			c0.466-0.963,1.186-4.112,1.186-4.112h-1.33c0,0-0.611,2.707-1.01,3.535c-0.337,0.699-1.355,1.801-2.026,2.19
			c-0.624,0.362-1.953,0.467-2.672,0.408c-1.364-0.114-3.937-0.074-4.946-0.999c-0.538-0.494-1.07-2.24-1.102-2.969
			c-0.025-0.56,0.367-2.165,0.367-2.165H1004.439z"/>
	</g>
	<linearGradient id="SVGID_40_" gradientUnits="userSpaceOnUse" x1="1054.0355" y1="21.4336" x2="1058.7051" y2="21.4336">
		<stop  offset="0" style="stop-color:#FBD297"/>
		<stop  offset="0.032" style="stop-color:#FCD290"/>
		<stop  offset="0.1171" style="stop-color:#FDD281"/>
		<stop  offset="0.2175" style="stop-color:#FFD376"/>
		<stop  offset="0.3418" style="stop-color:#FFD36C"/>
		<stop  offset="0.5161" style="stop-color:#FFD367"/>
		<stop  offset="1" style="stop-color:#FFD365"/>
	</linearGradient>
	<path fill="url(#SVGID_40_)" d="M1054.036,15.05h2.946c0,0,1.37,2.439,1.571,3.339c0.214,0.958,0.19,2.965,0,3.928
		c-0.288,1.458-2.259,5.5-2.259,5.5h-2.259V15.05z"/>
	<linearGradient id="SVGID_41_" gradientUnits="userSpaceOnUse" x1="1063.259" y1="21.8264" x2="1069.567" y2="21.8264">
		<stop  offset="0" style="stop-color:#FBD297"/>
		<stop  offset="0.032" style="stop-color:#FCD290"/>
		<stop  offset="0.1171" style="stop-color:#FDD281"/>
		<stop  offset="0.2175" style="stop-color:#FFD376"/>
		<stop  offset="0.3418" style="stop-color:#FFD36C"/>
		<stop  offset="0.5161" style="stop-color:#FFD367"/>
		<stop  offset="1" style="stop-color:#FFD365"/>
	</linearGradient>
	<path fill="url(#SVGID_41_)" d="M1064.839,15.835h2.946c0,0,1.668,2.247,1.768,3.143c0.226,2.038-2.357,7.857-2.357,7.857
		l-2.357,0.982c0,0-1.714-5.711-1.571-7.661C1063.352,19.01,1064.839,15.835,1064.839,15.835z"/>
	<linearGradient id="SVGID_42_" gradientUnits="userSpaceOnUse" x1="1075.6031" y1="22.2433" x2="1080.9546" y2="22.2433">
		<stop  offset="0" style="stop-color:#FBD297"/>
		<stop  offset="0.032" style="stop-color:#FCD290"/>
		<stop  offset="0.1171" style="stop-color:#FDD281"/>
		<stop  offset="0.2175" style="stop-color:#FFD376"/>
		<stop  offset="0.3418" style="stop-color:#FFD36C"/>
		<stop  offset="0.5161" style="stop-color:#FFD367"/>
		<stop  offset="1" style="stop-color:#FFD365"/>
	</linearGradient>
	<path fill="url(#SVGID_42_)" d="M1076.821,15.835c0,0,1.871-0.334,2.357,0c0.564,0.387,0.859,1.881,0.982,2.554
		c0.207,1.128,0.88,3.375,0.786,4.518c-0.128,1.556-2.062,5.893-2.062,5.893h-2.062c0,0-1.474-7.366-1.179-9.821
		C1075.742,18.145,1076.821,15.835,1076.821,15.835z"/>
	<linearGradient id="SVGID_43_" gradientUnits="userSpaceOnUse" x1="1199.7258" y1="21.973" x2="1210.5804" y2="21.973">
		<stop  offset="0" style="stop-color:#FBD297"/>
		<stop  offset="0.032" style="stop-color:#FCD290"/>
		<stop  offset="0.1171" style="stop-color:#FDD281"/>
		<stop  offset="0.2175" style="stop-color:#FFD376"/>
		<stop  offset="0.3418" style="stop-color:#FFD36C"/>
		<stop  offset="0.5161" style="stop-color:#FFD367"/>
		<stop  offset="1" style="stop-color:#FFD365"/>
	</linearGradient>
	<polygon fill="url(#SVGID_43_)" points="1202.464,5.03 1199.726,30.457 1210.58,40.089 1209.31,6.986 1203.442,3.857 	"/>
	<linearGradient id="SVGID_44_" gradientUnits="userSpaceOnUse" x1="1140.5981" y1="27.2058" x2="1171.2404" y2="27.2058">
		<stop  offset="0" style="stop-color:#FBD297"/>
		<stop  offset="0.032" style="stop-color:#FCD290"/>
		<stop  offset="0.1171" style="stop-color:#FDD281"/>
		<stop  offset="0.2175" style="stop-color:#FFD376"/>
		<stop  offset="0.3418" style="stop-color:#FFD36C"/>
		<stop  offset="0.5161" style="stop-color:#FFD367"/>
		<stop  offset="1" style="stop-color:#FFD365"/>
	</linearGradient>
	<polygon fill="url(#SVGID_44_)" points="1140.598,23.081 1170.062,23.081 1171.24,24.259 1171.24,31.331 1140.598,31.331 	"/>
	<linearGradient id="SVGID_45_" gradientUnits="userSpaceOnUse" x1="1236.1378" y1="22.4693" x2="1253.6583" y2="22.4693">
		<stop  offset="0" style="stop-color:#FBD297"/>
		<stop  offset="0.032" style="stop-color:#FCD290"/>
		<stop  offset="0.1171" style="stop-color:#FDD281"/>
		<stop  offset="0.2175" style="stop-color:#FFD376"/>
		<stop  offset="0.3418" style="stop-color:#FFD36C"/>
		<stop  offset="0.5161" style="stop-color:#FFD367"/>
		<stop  offset="1" style="stop-color:#FFD365"/>
	</linearGradient>
	<path fill="url(#SVGID_45_)" d="M1236.138,10.084c0,0,3.892-4.176,5.639-4.128c1.627,0.045,4.362,2.646,5.035,4.128
		c1.613,3.555-0.503,15.607-0.503,15.607s3.039-2.763,4.33-2.819c0.855-0.037,3.021,1.611,3.021,1.611v1.208
		c0,0-2.223-1.209-3.021-1.108c-1.275,0.162-4.229,2.92-4.229,2.92v1.007c0,0,2.845-0.88,3.826-1.007
		c0.549-0.071,1.935,0.743,1.935,0.743l-0.499,1.323c0,0-1.519-0.202-2.085-0.151c-0.955,0.087-2.875,1.005-2.875,1.005
		l-0.101,7.854l-1.712,0.705l-1.611-1.309l0.101-5.035c0,0-2.315-2.457-3.574-2.718c-0.85-0.176-2.957,0.083-2.957,0.083
		l-0.129-1.406c0,0,1.987-1.134,2.935-1.094c0.844,0.035,3.021,1.51,3.021,1.51l-0.101-1.51c0,0-1.268-1.834-3.222-2.014
		c-0.979-0.09-2.611,1.392-2.611,1.392l-0.327-2.11c0,0,1.631-1.767,2.435-1.9c1.166-0.193,2.081,0.194,2.665,0.542
		c0.731,0.436,2.772,1.975,2.772,1.975s1.747-11.468,0-14.701c-0.415-0.768-2.05-1.841-2.92-1.913
		c-1.308-0.109-4.807,2.115-4.807,2.115L1236.138,10.084z"/>
	<g>
		<linearGradient id="SVGID_46_" gradientUnits="userSpaceOnUse" x1="1094.0503" y1="23.1699" x2="1129.2314" y2="23.1699">
			<stop  offset="0" style="stop-color:#FBD297"/>
			<stop  offset="0.032" style="stop-color:#FCD290"/>
			<stop  offset="0.1171" style="stop-color:#FDD281"/>
			<stop  offset="0.2175" style="stop-color:#FFD376"/>
			<stop  offset="0.3418" style="stop-color:#FFD36C"/>
			<stop  offset="0.5161" style="stop-color:#FFD367"/>
			<stop  offset="1" style="stop-color:#FFD365"/>
		</linearGradient>
		<path fill="url(#SVGID_46_)" d="M1129.231,16.716c-2.932-0.96-1.731-4.625-5.535-4.41c-5.169,0.417-2.611,4.501-1.084,7.274
			c-4.736-0.902-9.708-0.096-14.482,1.1c-2.338,0.695-4.671,2.366-7.011,2.573c-1.901,0.351-6.157-2.017-7.069,0.768
			c1.448-0.68,2.952-0.393,4.567,0.623c-1.857-0.077-3.496-0.15-3.922,1.374c3.066-1.431,6.048-0.129,9.124,0.392
			c2.588,0.523,5.272,0.753,7.906,0.642c0.152,1.024-0.513,4.539-0.071,5.171c0.786,1.069,4.006,1.15,5.323,1.094
			c3.364-0.359,6.586,0.21,10.15,0.728c0.096-0.293,0.192-0.586,0.288-0.88c-2.785-0.912-6.443-1.015-9.078-1.026
			c-0.266-0.001-4.046,0.46-4.976-0.169c-1.029-0.824-0.602-3.119-0.316-4.486c1.024-0.152,2.778-0.551,3.561,0.03
			c0.882,0.776,0.849,3.849,1.731,4.625l0.885-0.023c-0.129-1.314-1.371-4.622-1.694-5.436c2.434-0.988,13.077,0.712,10.216-5.419
			c-0.642-1.509-4.896-3.389-4.613-5.244c0.379-2.148,4.542,1.001,6.053,0.847"/>
	</g>
	<linearGradient id="SVGID_47_" gradientUnits="userSpaceOnUse" x1="1260.4159" y1="21.8287" x2="1274.3193" y2="21.8287">
		<stop  offset="0" style="stop-color:#FBD297"/>
		<stop  offset="0.032" style="stop-color:#FCD290"/>
		<stop  offset="0.1171" style="stop-color:#FDD281"/>
		<stop  offset="0.2175" style="stop-color:#FFD376"/>
		<stop  offset="0.3418" style="stop-color:#FFD36C"/>
		<stop  offset="0.5161" style="stop-color:#FFD367"/>
		<stop  offset="1" style="stop-color:#FFD365"/>
	</linearGradient>
	<path fill="url(#SVGID_47_)" d="M1260.416,12.001c0,0,3.089-3.314,4.475-3.276c1.291,0.035,3.462,2.1,3.995,3.276
		c1.28,2.821-0.4,12.385-0.4,12.385s2.412-2.193,3.436-2.237c0.678-0.03,2.397,1.278,2.397,1.278v0.959c0,0-1.764-0.959-2.397-0.879
		c-1.011,0.129-3.356,2.317-3.356,2.317v0.799c0,0,2.258-0.698,3.036-0.799c0.436-0.056,1.535,0.59,1.535,0.59l-0.396,1.05
		c0,0-1.206-0.16-1.655-0.12c-0.758,0.069-2.281,0.797-2.281,0.797l-0.08,6.233l-1.358,0.559l-1.279-1.039l0.08-3.995
		c0,0-1.837-1.95-2.837-2.157c-0.674-0.14-2.347,0.066-2.347,0.066l-0.103-1.116c0,0,1.577-0.9,2.329-0.868
		c0.669,0.028,2.397,1.199,2.397,1.199l-0.08-1.199c0,0-1.006-1.455-2.557-1.598c-0.777-0.072-2.072,1.105-2.072,1.105l-0.259-1.675
		c0,0,1.295-1.402,1.932-1.508c0.925-0.153,1.651,0.154,2.115,0.43c0.58,0.346,2.2,1.567,2.2,1.567s1.386-9.1,0-11.666
		c-0.329-0.609-1.627-1.461-2.317-1.518c-1.038-0.086-3.815,1.678-3.815,1.678L1260.416,12.001z"/>
	<linearGradient id="SVGID_48_" gradientUnits="userSpaceOnUse" x1="30.7006" y1="22.3554" x2="35.0186" y2="22.3554">
		<stop  offset="0" style="stop-color:#FBD297"/>
		<stop  offset="0.032" style="stop-color:#FCD290"/>
		<stop  offset="0.1171" style="stop-color:#FDD281"/>
		<stop  offset="0.2175" style="stop-color:#FFD376"/>
		<stop  offset="0.3418" style="stop-color:#FFD36C"/>
		<stop  offset="0.5161" style="stop-color:#FFD367"/>
		<stop  offset="1" style="stop-color:#FFD365"/>
	</linearGradient>
	<polygon fill="url(#SVGID_48_)" points="30.701,13.069 30.701,29.737 32.185,31.642 35.019,30.689 34.344,15.212 33.669,14.339 
		33.669,13.069 	"/>
	<linearGradient id="SVGID_49_" gradientUnits="userSpaceOnUse" x1="30.7006" y1="12.3942" x2="33.6692" y2="12.3942">
		<stop  offset="0" style="stop-color:#FBD297"/>
		<stop  offset="0.032" style="stop-color:#FCD290"/>
		<stop  offset="0.1171" style="stop-color:#FDD281"/>
		<stop  offset="0.2175" style="stop-color:#FFD376"/>
		<stop  offset="0.3418" style="stop-color:#FFD36C"/>
		<stop  offset="0.5161" style="stop-color:#FFD367"/>
		<stop  offset="1" style="stop-color:#FFD365"/>
	</linearGradient>
	<rect x="30.701" y="11.72" fill="url(#SVGID_49_)" width="2.969" height="1.349"/>
	<linearGradient id="SVGID_50_" gradientUnits="userSpaceOnUse" x1="14.4864" y1="25.8733" x2="18.8044" y2="25.8733">
		<stop  offset="0" style="stop-color:#FBD297"/>
		<stop  offset="0.032" style="stop-color:#FCD290"/>
		<stop  offset="0.1171" style="stop-color:#FDD281"/>
		<stop  offset="0.2175" style="stop-color:#FFD376"/>
		<stop  offset="0.3418" style="stop-color:#FFD36C"/>
		<stop  offset="0.5161" style="stop-color:#FFD367"/>
		<stop  offset="1" style="stop-color:#FFD365"/>
	</linearGradient>
	<path fill="url(#SVGID_50_)" d="M14.486,25.738c0,0.675,0,2.699,0,2.699l1.484,1.754l2.834-1.528v-1.012
		c0,0-2.087,0.513-2.496,0.313c-0.289-0.141-0.777-0.691-0.791-1.012c-0.016-0.362,0.964-0.896,0.791-1.214
		c-0.094-0.174-0.651,0.14-0.791,0c-0.334-0.334,0.099-1.427,0-1.889c-0.132-0.615-1.031-2.294-1.031-2.294
		S14.486,24.693,14.486,25.738z"/>
	<linearGradient id="SVGID_51_" gradientUnits="userSpaceOnUse" x1="46.2146" y1="26.6085" x2="82.8173" y2="26.6085">
		<stop  offset="0" style="stop-color:#FBD297"/>
		<stop  offset="0.032" style="stop-color:#FCD290"/>
		<stop  offset="0.1171" style="stop-color:#FDD281"/>
		<stop  offset="0.2175" style="stop-color:#FFD376"/>
		<stop  offset="0.3418" style="stop-color:#FFD36C"/>
		<stop  offset="0.5161" style="stop-color:#FFD367"/>
		<stop  offset="1" style="stop-color:#FFD365"/>
	</linearGradient>
	<path fill="url(#SVGID_51_)" d="M46.219,36.03c-0.148-0.741,3.029-17.047,16.965-18.669c14.002-1.63,19.632,8.742,19.632,8.742
		v3.112L46.219,36.03z"/>
	<linearGradient id="SVGID_52_" gradientUnits="userSpaceOnUse" x1="138.2995" y1="15.5769" x2="153.4108" y2="15.5769">
		<stop  offset="0" style="stop-color:#FBD297"/>
		<stop  offset="0.032" style="stop-color:#FCD290"/>
		<stop  offset="0.1171" style="stop-color:#FDD281"/>
		<stop  offset="0.2175" style="stop-color:#FFD376"/>
		<stop  offset="0.3418" style="stop-color:#FFD36C"/>
		<stop  offset="0.5161" style="stop-color:#FFD367"/>
		<stop  offset="1" style="stop-color:#FFD365"/>
	</linearGradient>
	<path fill="url(#SVGID_52_)" d="M138.3,20.691c0,0,0.37-4.251,1.151-5.383c0.744-1.078,4.4-2.84,4.4-2.84v-2.416h4.112v2.519
		c0,0,3.377,2.2,4.102,3.299c0.689,1.045,1.347,4.822,1.347,4.822h-1.234c0,0-0.617-3.453-1.274-4.451
		c-0.523-0.795-3.157-2.533-3.157-2.533l-0.037,7.395h-0.844v-7.196h-0.734l0.084,7.196h-0.925l0.107-7.102l-0.697-0.073
		l-0.027,7.175h-0.72l-0.206-7.299c0,0-2.852,1.215-3.397,2.042c-0.729,1.108-0.715,5.256-0.715,5.256L138.3,20.691z"/>
	<linearGradient id="SVGID_53_" gradientUnits="userSpaceOnUse" x1="109.1005" y1="16.5073" x2="120.389" y2="16.5073">
		<stop  offset="0" style="stop-color:#FBD297"/>
		<stop  offset="0.032" style="stop-color:#FCD290"/>
		<stop  offset="0.1171" style="stop-color:#FDD281"/>
		<stop  offset="0.2175" style="stop-color:#FFD376"/>
		<stop  offset="0.3418" style="stop-color:#FFD36C"/>
		<stop  offset="0.5161" style="stop-color:#FFD367"/>
		<stop  offset="1" style="stop-color:#FFD365"/>
	</linearGradient>
	<path fill="url(#SVGID_53_)" d="M109.101,11.64h1.881v2.699h3.599v-3.19h0.908v0.982l0.891,0.164v2.045h2.372v-1.595l-0.736-0.532
		l-0.082-1.063h1.963l0.491,7.444c0,0-1.142,3.309-4.899,3.272c-4.924-0.049-5.898-4.008-5.898-4.008L109.101,11.64z"/>
	<linearGradient id="SVGID_54_" gradientUnits="userSpaceOnUse" x1="108.0887" y1="32.5852" x2="120.7678" y2="32.5852">
		<stop  offset="0" style="stop-color:#FBD297"/>
		<stop  offset="0.032" style="stop-color:#FCD290"/>
		<stop  offset="0.1171" style="stop-color:#FDD281"/>
		<stop  offset="0.2175" style="stop-color:#FFD376"/>
		<stop  offset="0.3418" style="stop-color:#FFD36C"/>
		<stop  offset="0.5161" style="stop-color:#FFD367"/>
		<stop  offset="1" style="stop-color:#FFD365"/>
	</linearGradient>
	<path fill="url(#SVGID_54_)" d="M108.089,35.634l12.679,0.015v-1.636c0,0-1.433-4.495-6.631-4.491
		c-4.966,0.004-6.048,4.655-6.048,4.655V35.634z"/>
</g>
</svg>
