<?xml version="1.0" encoding="utf-8"?>
<!-- Generator: Adobe Illustrator 17.0.0, SVG Export Plug-In . SVG Version: 6.00 Build 0)  -->
<!DOCTYPE svg PUBLIC "-//W3C//DTD SVG 1.1//EN" "http://www.w3.org/Graphics/SVG/1.1/DTD/svg11.dtd">
<svg version="1.1" id="Layer_1" xmlns="http://www.w3.org/2000/svg" xmlns:xlink="http://www.w3.org/1999/xlink" x="0px" y="0px"
	 width="1280.395px" height="440.142px" viewBox="217.592 -1825.399 1280.395 440.142"
	 enable-background="new 217.592 -1825.399 1280.395 440.142" xml:space="preserve">
<path opacity="0.6" fill="#FFFAFC" d="M812.908-1735.763c-8.648-4.022-17.97-5.409-40.559-9.666
	c-46.649-8.79-90.779,6.864-105.757,12.075c-16.587,5.771-84.645-1.917-85.42-20.423c-0.186-4.438,9.76-11.391,8.654-15.704
	c-1.219-4.758-11.955-9.634-16.827-11.085c-5.74-1.709-60.805-7.684-73.078-10.161c-31.222-6.301-211.599-21.68-243.274-14.318
	c-5.124,1.191-33.034,5.277-39.054,8.035v24.531c8.668-1.591,62.616-4.798,70.109-4.979c10.726-0.258,91.727,8.072,108.852,10.748
	c7.107,1.11,20.184,7.256,26.108,11.188c4.115,2.732,9.495,8.342,13.316,11.443c7.432,6.034,110.432,38.477,138.464,42.031
	c10.725,1.36,40.866,0,43.27,0c2.404,0,78.477-2.747,127.768-17.248c20.297-5.971,39.948-0.972,45.906-0.142
	c6.838,0.953,41.054,13.802,47.003,14.619c7.258,0.996,33.256,3.351,46.388-1.956c9.88-3.993,27.953-14.972,27.877-20.329
	c-0.045-3.182-21.217,6.557-29.382,7.705C845.451-1714.082,820.115-1732.411,812.908-1735.763z"/>
<path opacity="0.6" fill="#FFFAFC" d="M607.135-1763.476c3.654-3.356,15.057-5.151,17.789-9.238
	c1.976-2.955-0.232-11.031-2.404-13.856c-5.429-7.062-23.982-13.052-32.693-15.704c-9.966-3.033-30.938-5.077-41.347-6.004
	c-20.598-1.835-62.011-2.425-82.694-2.771c-14.301-0.24-42.91,0-57.213,0c-9.616,0-28.854,0.359-38.462,0
	c-9.276-0.347-28.002-0.656-37.02-2.771c-4.186-0.982-14.919-2.428-15.866-6.466c-0.318-1.357,2.526-3.587,3.846-4.157
	c2.412-1.041,7.934-0.075,10.577,0c12.276,0.347,36.759,2.642,49.039,2.771c19.604,0.207,58.765-2.425,78.367-2.771
	c17.305-0.306,51.924,0,69.232,0c16.467,0,49.501-1.751,65.867,0c12.49,1.336,37.335,6.263,49.039,10.623
	c18.317,6.823,17.624,21.907,16.827,25.403c-6.396,28.086-20.929,30.539-25.36,31.87c-4.962,1.49-15.596,0-20.795,0
	c-2.764,0-9.696,2.311-11.058,0C601.772-1758.305,605.615-1762.08,607.135-1763.476z"/>
<path opacity="0.5" fill="#E0DAE0" d="M666.634-1733.353c-16.587,5.771-84.645-1.917-85.42-20.423
	c-0.186-4.438,9.759-11.391,8.654-15.704c-1.219-4.758-11.955-9.634-16.827-11.085c-5.74-1.709-60.805-7.684-73.078-10.161
	c-31.222-6.301-211.599-21.68-243.274-14.318c-5.124,1.191,27.823-1.952,164.469,14.674c28.329,3.447,86.806,15.212,112.279,28.079
	c7.327,3.701,16.522,19.068,24.039,22.365c25.066,10.994,64.041,14.158,85.51,11.926
	C649.014-1728.627,666.634-1733.353,666.634-1733.353z"/>
<path opacity="0.5" fill="#E0DAE0" d="M331.648-1824.621c12.276,0.347,36.759,2.642,49.039,2.771
	c19.604,0.207,58.765-2.425,78.367-2.771c17.305-0.306,51.924,0,69.232,0c16.467,0,49.501-1.751,65.867,0
	c12.49,1.336,37.335,6.263,49.039,10.623c18.318,6.823,20.109,22.674,13.859,35.553c0,0,0.419-19.047-14.831-27.233
	c-13.278-7.127-49.337-9.457-64.357-10.679c-17.537-1.426-52.787-0.064-70.377-0.451c-15.007-0.33-45.004-1.614-60.001-2.256
	C418.519-1820.303,331.648-1824.621,331.648-1824.621z"/>
<path opacity="0.6" fill="#FFFAFC" d="M1251.289-1613.245c-9.249-2.157-13.13-5.653-17.629-6.931
	c-8.948-2.542-32.542-4.322-46.241-2.425c-10.246,1.419-27.208,5.396-37.56,5.396c-11.665,0-30.002-1.709-41.593-2.971
	c-13.305-1.449-52.244-17.29-51.973-10.259c0.114,2.955,29.032,21.098,37.976,23.986c6.358,2.053,37.747,7.005,41.972,7.411
	c19.16,1.846,37.324-9.46,43.778-10.618c5.733-1.028,13.789-3.589,25.408-4.675c8.018-0.749,18.556,0,31.148,6.201
	c3.783,1.863,11.512,5.809,15.747,6.163c11.093,0.929,15.782-0.234,18.318-1.305c2.173-0.918,29.797-10.51,29.294-12.739
	c-0.336-1.487-24.059,3.482-28.711,3.634C1262.874-1612.104,1260.622-1611.068,1251.289-1613.245z"/>
<path opacity="0.5" fill="#E0DAE0" d="M1233.66-1620.176c-8.948-2.542-32.542-4.322-46.241-2.425
	c-10.246,1.419-27.208,5.396-37.56,5.396c-11.665,0-30.002-1.709-41.593-2.971c0,0,10.112,3.359,13.585,4.077
	c9.71,2.006,29.487,5.009,39.392,4.587c8.769-0.374,33.216-8.47,41.96-9.226C1211.406-1621.448,1238.159-1618.898,1233.66-1620.176z
	"/>
<path opacity="0.6" fill="#FFFAFC" d="M1164.2-1586.902c-11.496-0.688-34.565,3.885-46.075,3.46
	c-9.498-0.35-29.01,0.406-37.91-2.802c-4.894-1.764-12.966-9.05-18.08-10.085c-5.168-1.046-15.723,1.961-20.996,2.241
	c-10.045,0.535-30.203,0.056-40.243,0c-9.345-0.052-23.372-6.566-23.77-4.248c-1.045,6.09,27.28,23.384,33.101,25.995
	c9.81,4.401,30.638,4.723,41.456,5.156c11.217,0.45,19.826,5.589,42.888,2.022c18.146-2.807,39.239-6.122,51.251-8.814
	c6.175-1.384,26.057-6.03,25.375-12.086C1171.009-1587.745,1165.96-1586.796,1164.2-1586.902z"/>
<path opacity="0.5" fill="#E0DAE0" d="M1171.216-1586.061c-0.19-1.684-5.239-0.735-6.999-0.84
	c-11.496-0.688-34.564,3.885-46.075,3.46c-9.498-0.35-29.01,0.406-37.91-2.802c-4.894-1.764-12.966-9.05-18.08-10.085
	c-5.168-1.046-15.723,1.961-20.996,2.241c-10.045,0.535-30.451-2.221-40.242,0c0,0,25.443,3.281,33.954,4.106
	c5.461,0.529,16.607,0.109,21.888,1.597c5.335,1.504,14.313,8.863,19.699,10.171c8.414,2.044,25.989,0.473,34.634,0
	c10.023-0.548,39.913-4.378,39.913-4.378L1171.216-1586.061z"/>
<path opacity="0.6" fill="#FFFAFC" d="M1497.987-1797.173c0,0-27.485,7.629-39.133,9.34c-10.088,1.481-28.124,11.172-37.172,15.874
	c-23.278,12.095-49.37,9.696-61.367,18.693c-6.133,4.6,42.288,4.799,58.903,0.639c10.672-2.672,31.204-10.864,41.886-13.499
	c9.081-2.24,36.863-6.422,36.863-6.422L1497.987-1797.173z"/>
<path opacity="0.4" fill="#FFFAFC" d="M217.592-1464.228c0,0,51.812-10.727,69.228-10.591c21.231,0.165,62.568,12.448,83.725,14.233
	c15.486,1.307,46.708,1.626,62.164,0c27.143-2.855,79.639-19.859,106.783-22.714c23.087-2.428,69.833-2.961,92.858,0
	c35.141,4.52,142.968,57.801,198.157,72.625c9.673,2.598,73.331,6.382,70.054,11.263c-4.595,6.844-45.589,8.352-53.787,9.212
	c-48.18,5.055-161.721-46.994-191.812-49.617c-77.164-6.724-145.439,20.137-174.315,24.442
	c-21.68,3.232-65.176,10.038-87.095,10.089c-19.784,0.046-58.875-9.218-78.653-8.739c-24.536,0.594-97.307,15.516-97.307,15.516
	V-1464.228z"/>
<path opacity="0.5" fill="#E0DAE0" d="M733.994-1447.137c-30.01-9.682-74.669-33.047-101.644-36.601
	c-23.016-3.032-69.771-2.428-92.858,0c-27.143,2.855-79.639,19.859-106.783,22.714c-15.456,1.626-46.678,1.307-62.164,0
	c-21.156-1.785-62.494-14.068-83.725-14.233c-17.416-0.136-69.228,10.607-69.228,10.607v23.789c0,0,37.02-7.572,68.424-9.643
	c35.532-2.343,119.612,18.899,159.734,4.738c23.371-8.248,48.903-14.751,87.256-25.077c20.895-5.625,53.059-8.021,96.836-2.065
	C673.21-1467.008,733.994-1447.137,733.994-1447.137z"/>
<path opacity="0.4" fill="#FFFAFC" d="M1497.966-1464.313c-87.275,25.613-97.867,31.155-127.576,34.838
	c-30.131,3.736-111.721,6.518-143.417,0.392c-19.768-3.821-114.953-38.06-130.833-25.683c-3.878,3.022,42.294,20.232,52.736,25.683
	c24.718,12.904,78.797,29.093,106.271,33.857c33.042,5.729,101.432,10.524,134.961,9.917
	c27.255-0.494,107.857-13.301,107.857-13.301L1497.966-1464.313z"/>
<path opacity="0.5" fill="#E0DAE0" d="M1287.803-1425.707c23.192,0.14,69.756-1.221,92.635-5.027
	c30.393-5.056,117.529-34.001,117.529-34.001l0,23.766c0,0-81.186,20.508-108.76,24.066c-21.114,2.724-60.833,1.332-82.043-0.491
	c-17.432-1.498-80.19-11.689-80.19-11.689S1249.832-1425.936,1287.803-1425.707z"/>
</svg>
