<?xml version="1.0" encoding="utf-8"?>
<!-- Generator: Adobe Illustrator 17.0.0, SVG Export Plug-In . SVG Version: 6.00 Build 0)  -->
<!DOCTYPE svg PUBLIC "-//W3C//DTD SVG 1.1//EN" "http://www.w3.org/Graphics/SVG/1.1/DTD/svg11.dtd" [
	<!ENTITY ns_flows "http://ns.adobe.com/Flows/1.0/">
	<!ENTITY ns_extend "http://ns.adobe.com/Extensibility/1.0/">
	<!ENTITY ns_ai "http://ns.adobe.com/AdobeIllustrator/10.0/">
	<!ENTITY ns_graphs "http://ns.adobe.com/Graphs/1.0/">
]>
<svg version="1.1" xmlns:x="&ns_extend;" xmlns:i="&ns_ai;" xmlns:graph="&ns_graphs;"
	 xmlns="http://www.w3.org/2000/svg" xmlns:xlink="http://www.w3.org/1999/xlink" xmlns:a="http://ns.adobe.com/AdobeSVGViewerExtensions/3.0/"
	 x="0px" y="0px" width="1280px" height="2465px" viewBox="0 0 1280 2465" enable-background="new 0 0 1280 2465"
	 xml:space="preserve">
<g id="Layer_2">
</g>
<g id="Layer_1">
	
		<linearGradient id="SVGID_1_" gradientUnits="userSpaceOnUse" x1="9938.5732" y1="264.1372" x2="10024.4766" y2="264.1372" gradientTransform="matrix(-1 0 0 1 10253.5938 0)">
		<stop  offset="0" style="stop-color:#ECF8FE"/>
		<stop  offset="1" style="stop-color:#FFF25D"/>
		<a:midPointStop  offset="0" style="stop-color:#ECF8FE"/>
		<a:midPointStop  offset="0.4956" style="stop-color:#ECF8FE"/>
		<a:midPointStop  offset="1" style="stop-color:#FFF25D"/>
	</linearGradient>
	<path opacity="0.2" fill="url(#SVGID_1_)" d="M286.3,264.1C286.3,264.1,286.3,264.1,286.3,264.1
		C286.3,264.1,286.3,264.2,286.3,264.1C286.3,264.1,286.3,264.1,286.3,264.1z"/>
	<path opacity="0.6" fill="#FFFBFD" d="M593.8,194.6c-8.6-4-18-5.4-40.6-9.7c-46.6-8.8-90.8,6.9-105.8,12.1
		c-16.6,5.8-84.6-1.9-85.4-20.4c-0.2-4.4,9.8-11.4,8.7-15.7c-1.2-4.8-12-9.6-16.8-11.1c-5.7-1.7-60.8-7.7-73.1-10.2
		c-31.2-6.3-211.6-21.7-243.3-14.3C32.5,126.5,6,130,0,132.8v24.9c8.7-1.6,61.1-4.6,68.6-4.7c10.7-0.3,91.7,8.1,108.9,10.7
		c7.1,1.1,20.2,7.3,26.1,11.2c4.1,2.7,9.5,8.3,13.3,11.4c7.4,6,110.4,38.5,138.5,42c10.7,1.4,40.9,0,43.3,0s78.5-2.7,127.8-17.2
		c20.3-6,39.9-1,45.9-0.1c6.8,1,41.1,13.8,47,14.6c7.3,1,33.3,3.4,46.4-2c9.9-4,28-15,27.9-20.3c0-3.2-21.2,6.6-29.4,7.7
		C626.4,216.3,601,198,593.8,194.6z"/>
	<path opacity="0.6" fill="#FFFBFD" d="M388.1,166.9c3.7-3.4,15.1-5.2,17.8-9.2c2-3-0.2-11-2.4-13.9c-5.4-7.1-24-13.1-32.7-15.7
		c-10-3-30.9-5.1-41.3-6c-20.6-1.8-62-2.4-82.7-2.8c-14.3-0.2-42.9,0-57.2,0c-9.6,0-28.9,0.4-38.5,0c-9.3-0.3-28-0.7-37-2.8
		c-4.2-1-14.9-2.4-15.9-6.5c-0.3-1.4,2.5-3.6,3.8-4.2c2.4-1,7.9-0.1,10.6,0c12.3,0.3,36.8,2.6,49,2.8c19.6,0.2,58.8-2.4,78.4-2.8
		c17.3-0.3,51.9,0,69.2,0c16.5,0,49.5-1.8,65.9,0c12.5,1.3,37.3,6.3,49,10.6c18.3,6.8,17.6,21.9,16.8,25.4
		c-6.4,28.1-20.9,30.5-25.4,31.9c-5,1.5-15.6,0-20.8,0c-2.8,0-9.7,2.3-11.1,0C382.7,172.1,386.5,168.3,388.1,166.9z"/>
	<path opacity="0.3" fill="#E1DBE1" d="M447.6,197c-16.6,5.8-84.6-1.9-85.4-20.4c-0.2-4.4,9.8-11.4,8.7-15.7
		c-1.2-4.8-12-9.6-16.8-11.1c-5.7-1.7-60.8-7.7-73.1-10.2c-31.2-6.3-211.6-21.7-243.3-14.3c-5.1,1.2,27.8-2,164.5,14.7
		c28.3,3.4,86.8,15.2,112.3,28.1c7.3,3.7,16.5,19.1,24,22.4c25.1,11,64,14.2,85.5,11.9C429.9,201.8,447.6,197,447.6,197z"/>
	<path opacity="0.3" fill="#E1DBE1" d="M112.6,105.8c12.3,0.3,36.8,2.6,49,2.8c19.6,0.2,58.8-2.4,78.4-2.8c17.3-0.3,51.9,0,69.2,0
		c16.5,0,49.5-1.8,65.9,0c12.5,1.3,37.3,6.3,49,10.6c18.3,6.8,20.1,22.7,13.9,35.6c0,0,0.4-19-14.8-27.2
		c-13.3-7.1-49.3-9.5-64.4-10.7c-17.5-1.4-52.8-0.1-70.4-0.5c-15-0.3-45-1.6-60-2.3C199.4,110.1,112.6,105.8,112.6,105.8z"/>
	<path opacity="0.4" fill="#FFFBFD" d="M889.8,360.1c-9.2-2.2-13.1-5.7-17.6-6.9c-8.9-2.5-32.5-4.3-46.2-2.4
		c-10.2,1.4-27.2,5.4-37.6,5.4c-11.7,0-30-1.7-41.6-3c-13.3-1.4-52.2-17.3-52-10.3c0.1,3,29,21.1,38,24c6.4,2.1,37.7,7,42,7.4
		c19.2,1.8,37.3-9.5,43.8-10.6c5.7-1,13.8-3.6,25.4-4.7c8-0.7,18.6,0,31.1,6.2c3.8,1.9,11.5,5.8,15.7,6.2
		c11.1,0.9,15.8-0.2,18.3-1.3c2.2-0.9,29.8-10.5,29.3-12.7c-0.3-1.5-24.1,3.5-28.7,3.6C901.4,361.2,899.2,362.3,889.8,360.1z"/>
	<path opacity="0.5" fill="#E1DBE1" d="M872.2,353.2c-8.9-2.5-32.5-4.3-46.2-2.4c-10.2,1.4-27.2,5.4-37.6,5.4c-11.7,0-30-1.7-41.6-3
		c0,0,10.1,3.4,13.6,4.1c9.7,2,29.5,5,39.4,4.6c8.8-0.4,33.2-8.5,42-9.2C849.9,351.9,876.7,354.5,872.2,353.2z"/>
	<path opacity="0.4" fill="#FFFBFD" d="M802.7,386.4c-11.5-0.7-34.6,3.9-46.1,3.5c-9.5-0.4-29,0.4-37.9-2.8c-4.9-1.8-13-9-18.1-10.1
		c-5.2-1-15.7,2-21,2.2c-10,0.5-30.2,0.1-40.2,0c-9.3-0.1-23.4-6.6-23.8-4.2c-1,6.1,27.3,23.4,33.1,26c9.8,4.4,30.6,4.7,41.5,5.2
		c11.2,0.4,19.8,5.6,42.9,2c18.1-2.8,39.2-6.1,51.3-8.8c6.2-1.4,26.1-6,25.4-12.1C809.5,385.6,804.5,386.6,802.7,386.4z"/>
	<path opacity="0.5" fill="#E1DBE1" d="M809.7,387.3c-0.2-1.7-5.2-0.7-7-0.8c-11.5-0.7-34.6,3.9-46.1,3.5c-9.5-0.4-29,0.4-37.9-2.8
		c-4.9-1.8-13-9-18.1-10.1c-5.2-1-15.7,2-21,2.2c-10,0.5-30.5-2.2-40.2,0c0,0,25.4,3.3,34,4.1c5.5,0.5,16.6,0.1,21.9,1.6
		c5.3,1.5,14.3,8.9,19.7,10.2c8.4,2,26,0.5,34.6,0c10-0.5,39.9-4.4,39.9-4.4L809.7,387.3z"/>
	<path opacity="0.6" fill="#FFFBFD" d="M1280,132.8c0,0-27.5,7.9-39.1,9.6c-10.1,1.5-28.1,11.2-37.2,15.9
		c-23.3,12.1-49.4,9.7-61.4,18.7c-6.1,4.6,42.3,4.8,58.9,0.6c10.7-2.7,31.2-10.9,41.9-13.5c9.1-2.2,36.9-6.5,36.9-6.5V132.8z"/>
	<path opacity="0.4" fill="#FFFBFD" d="M0,413.9c0,0,51.4-10.7,68.8-10.5c21.2,0.2,62.6,12.4,83.7,14.2c15.5,1.3,46.7,1.6,62.2,0
		c27.1-2.9,79.6-19.9,106.8-22.7c23.1-2.4,69.8-3,92.9,0c35.1,4.5,143,57.8,198.2,72.6c9.7,2.6,73.3,6.4,70.1,11.3
		c-4.6,6.8-45.6,8.4-53.8,9.2c-48.2,5.1-161.7-47-191.8-49.6c-77.2-6.7-145.4,20.1-174.3,24.4c-21.7,3.2-65.2,10-87.1,10.1
		c-19.8,0-58.9-9.2-78.7-8.7C72.4,464.8,0,479.7,0,479.7V413.9z"/>
	<path opacity="0.5" fill="#E1DBE1" d="M516,431.1c-30-9.7-74.7-33-101.6-36.6c-23-3-69.8-2.4-92.9,0
		c-27.1,2.9-79.6,19.9-106.8,22.7c-15.5,1.6-46.7,1.3-62.2,0c-21.2-1.8-62.5-14.1-83.7-14.2c-17.4-0.1-68.8,11-68.8,11v23.4
		c0,0,36.6-7.5,68-9.6c35.5-2.3,119.6,18.9,159.7,4.7c23.4-8.2,48.9-14.8,87.3-25.1c20.9-5.6,53.1-8,96.8-2.1
		C455.2,411.2,516,431.1,516,431.1z"/>
	<path opacity="0.4" fill="#FFFBFD" d="M1280,413.9c-87.3,25.6-97.9,31.1-127.6,34.8c-30.1,3.7-111.7,6.5-143.4,0.4
		c-19.8-3.8-115-38.1-130.8-25.7c-3.9,3,42.3,20.2,52.7,25.7c24.7,12.9,78.8,29.1,106.3,33.9c33,5.7,101.4,10.5,135,9.9
		c27.3-0.5,107.9-13.3,107.9-13.3V413.9z"/>
	<path opacity="0.5" fill="#E1DBE1" d="M1069.8,452.5c23.2,0.1,69.8-1.2,92.6-5c30.4-5.1,117.5-33.5,117.5-33.5l0,23.3
		c0,0-81.2,20.5-108.8,24.1c-21.1,2.7-60.8,1.3-82-0.5c-17.4-1.5-80.2-11.7-80.2-11.7S1031.8,452.3,1069.8,452.5z"/>
</g>
</svg>
