<?xml version="1.0" encoding="utf-8"?>
<!-- Generator: Adobe Illustrator 17.0.0, SVG Export Plug-In . SVG Version: 6.00 Build 0)  -->
<!DOCTYPE svg PUBLIC "-//W3C//DTD SVG 1.1//EN" "http://www.w3.org/Graphics/SVG/1.1/DTD/svg11.dtd">
<svg version="1.1" id="Layer_1" xmlns="http://www.w3.org/2000/svg" xmlns:xlink="http://www.w3.org/1999/xlink" x="0px" y="0px"
	 width="1280px" height="406.2px" viewBox="0 0 1280 406.2" enable-background="new 0 0 1280 406.2" xml:space="preserve">
<linearGradient id="SVGID_1_" gradientUnits="userSpaceOnUse" x1="11370.7529" y1="1058.5625" x2="11370.7529" y2="1058.5625" gradientTransform="matrix(-1 0 0 -1 11657.0527 1217.7)">
	<stop  offset="0" style="stop-color:#ECF8FE"/>
	<stop  offset="1" style="stop-color:#FFF25D"/>
</linearGradient>
<path opacity="0.2" fill="url(#SVGID_1_)" enable-background="new    " d="M286.3,159.1L286.3,159.1
	C286.3,159.2,286.3,159.2,286.3,159.1C286.3,159.2,286.3,159.1,286.3,159.1z"/>
<path opacity="0.6" fill="#FFFBFD" enable-background="new    " d="M593.8,89.6c-8.6-4-18-5.4-40.6-9.7
	c-46.6-8.8-90.8,6.9-105.8,12.1c-16.6,5.8-84.6-1.9-85.4-20.4c-0.2-4.4,9.8-11.4,8.7-15.7c-1.2-4.8-12-9.6-16.8-11.1
	c-5.7-1.7-60.8-7.7-73.1-10.2C249.6,28.4,69.3,13,37.6,20.4C32.5,21.5,5,25.1-1,27.8v24.9c8.7-1.6,62.1-4.6,69.6-4.7
	c10.7-0.3,91.7,8.1,108.9,10.7c7.1,1.1,20.2,7.3,26.1,11.2c4.1,2.7,9.5,8.3,13.3,11.4c7.4,6,110.4,38.5,138.5,42
	c10.7,1.4,40.9,0,43.3,0s78.5-2.7,127.8-17.2c20.3-6,39.9-1,45.9-0.1c6.8,1,41.1,13.8,47,14.6c7.3,1,33.3,3.4,46.4-2
	c9.9-4,28-15,27.9-20.3c0-3.2-21.2,6.6-29.4,7.7C626.4,111.3,601,93,593.8,89.6z"/>
<path opacity="0.6" fill="#FFFBFD" enable-background="new    " d="M388.1,61.9c3.7-3.4,15.1-5.2,17.8-9.2c2-3-0.2-11-2.4-13.9
	c-5.4-7.1-24-13.1-32.7-15.7c-10-3-30.9-5.1-41.3-6c-20.6-1.8-62-2.4-82.7-2.8c-14.3-0.2-42.9,0-57.2,0c-9.6,0-28.9,0.4-38.5,0
	c-9.3-0.3-28-0.7-37-2.8c-4.2-1-14.9-2.4-15.9-6.5c-0.3-1.4,2.5-3.6,3.8-4.2c2.4-1,7.9-0.1,10.6,0c12.3,0.3,36.8,2.6,49,2.8
	C181.2,3.9,220.4,1.3,240,1c17.3-0.3,51.9,0,69.2,0c16.5,0,49.5-1.8,65.9,0c12.5,1.3,37.3,6.3,49,10.6c18.3,6.8,17.6,21.9,16.8,25.4
	c-6.4,28.1-20.9,30.5-25.4,31.9c-5,1.5-15.6,0-20.8,0c-2.8,0-9.7,2.3-11.1,0C382.7,67.1,386.5,63.3,388.1,61.9z"/>
<path opacity="0.3" fill="#E1DBE1" enable-background="new    " d="M447.6,92c-16.6,5.8-84.6-1.9-85.4-20.4
	c-0.2-4.4,9.8-11.4,8.7-15.7c-1.2-4.8-12-9.6-16.8-11.1c-5.7-1.7-60.8-7.7-73.1-10.2C249.7,28.4,69.3,13,37.6,20.4
	c-5.1,1.2,27.8-2,164.5,14.7c28.3,3.4,86.8,15.2,112.3,28.1c7.3,3.7,16.5,19.1,24,22.4c25.1,11,64,14.2,85.5,11.9
	C429.9,96.8,447.6,92,447.6,92z"/>
<path opacity="0.3" fill="#E1DBE1" enable-background="new    " d="M112.6,0.8c12.3,0.3,36.8,2.6,49,2.8c19.6,0.2,58.8-2.4,78.4-2.8
	c17.3-0.3,51.9,0,69.2,0c16.5,0,49.5-1.8,65.9,0c12.5,1.3,37.3,6.3,49,10.6c18.3,6.8,20.1,22.7,13.9,35.6c0,0,0.4-19-14.8-27.2
	c-13.3-7.1-49.3-9.5-64.4-10.7C341.3,7.6,306,9,288.4,8.6c-15-0.3-45-1.6-60-2.3C199.4,5.1,112.6,0.8,112.6,0.8z"/>
<path opacity="0.4" fill="#FFFBFD" enable-background="new    " d="M889.8,255.1c-9.2-2.2-13.1-5.7-17.6-6.9
	c-8.9-2.5-32.5-4.3-46.2-2.4c-10.2,1.4-27.2,5.4-37.6,5.4c-11.7,0-30-1.7-41.6-3c-13.3-1.4-52.2-17.3-52-10.3c0.1,3,29,21.1,38,24
	c6.4,2.1,37.7,7,42,7.4c19.2,1.8,37.3-9.5,43.8-10.6c5.7-1,13.8-3.6,25.4-4.7c8-0.7,18.6,0,31.1,6.2c3.8,1.9,11.5,5.8,15.7,6.2
	c11.1,0.9,15.8-0.2,18.3-1.3c2.2-0.9,29.8-10.5,29.3-12.7c-0.3-1.5-24.1,3.5-28.7,3.6C901.4,256.3,899.2,257.3,889.8,255.1z"/>
<path opacity="0.5" fill="#E1DBE1" enable-background="new    " d="M872.2,248.2c-8.9-2.5-32.5-4.3-46.2-2.4
	c-10.2,1.4-27.2,5.4-37.6,5.4c-11.7,0-30-1.7-41.6-3c0,0,10.1,3.4,13.6,4.1c9.7,2,29.5,5,39.4,4.6c8.8-0.4,33.2-8.5,42-9.2
	C849.9,246.9,876.7,249.5,872.2,248.2z"/>
<path opacity="0.4" fill="#FFFBFD" enable-background="new    " d="M802.7,281.5c-11.5-0.7-34.6,3.9-46.1,3.5
	c-9.5-0.4-29,0.4-37.9-2.8c-4.9-1.8-13-9-18.1-10.1c-5.2-1-15.7,2-21,2.2c-10,0.5-30.2,0.1-40.2,0c-9.3-0.1-23.4-6.6-23.8-4.2
	c-1,6.1,27.3,23.4,33.1,26c9.8,4.4,30.6,4.7,41.5,5.2c11.2,0.4,19.8,5.6,42.9,2c18.1-2.8,39.2-6.1,51.3-8.8
	c6.2-1.4,26.1-6,25.4-12.1C809.5,280.6,804.5,281.6,802.7,281.5z"/>
<path opacity="0.5" fill="#E1DBE1" enable-background="new    " d="M809.7,282.3c-0.2-1.7-5.2-0.7-7-0.8
	c-11.5-0.7-34.6,3.9-46.1,3.5c-9.5-0.4-29,0.4-37.9-2.8c-4.9-1.8-13-9-18.1-10.1c-5.2-1-15.7,2-21,2.2c-10,0.5-30.5-2.2-40.2,0
	c0,0,25.4,3.3,34,4.1c5.5,0.5,16.6,0.1,21.9,1.6c5.3,1.5,14.3,8.9,19.7,10.2c8.4,2,26,0.5,34.6,0c10-0.5,39.9-4.4,39.9-4.4
	L809.7,282.3z"/>
<path opacity="0.6" fill="#FFFBFD" enable-background="new    " d="M1280,27.8c0,0-27.5,7.9-39.1,9.6c-10.1,1.5-28.1,11.2-37.2,15.9
	c-23.3,12.1-49.4,9.7-61.4,18.7c-6.1,4.6,42.3,4.8,58.9,0.6c10.7-2.7,31.2-10.9,41.9-13.5c9.1-2.2,36.9-6.5,36.9-6.5L1280,27.8
	L1280,27.8z"/>
<path opacity="0.4" fill="#FFFBFD" enable-background="new    " d="M-1,309c0,0,52.4-10.7,69.8-10.5c21.2,0.2,62.6,12.4,83.7,14.2
	c15.5,1.3,46.7,1.6,62.2,0c27.1-2.9,79.6-19.9,106.8-22.7c23.1-2.4,69.8-3,92.9,0c35.1,4.5,143,57.8,198.2,72.6
	c9.7,2.6,73.3,6.4,70.1,11.3c-4.6,6.8-45.6,8.4-53.8,9.2c-48.2,5.1-161.7-47-191.8-49.6c-77.2-6.7-145.4,20.1-174.3,24.4
	c-21.7,3.2-65.2,10-87.1,10.1c-19.8,0-58.9-9.2-78.7-8.7c-24.6,0.5-98,15.4-98,15.4V309z"/>
<path opacity="0.5" fill="#E1DBE1" enable-background="new    " d="M516,326.1c-30-9.7-74.7-33-101.6-36.6c-23-3-69.8-2.4-92.9,0
	c-27.1,2.9-79.6,19.9-106.8,22.7c-15.5,1.6-46.7,1.3-62.2,0c-21.2-1.8-62.5-14.1-83.7-14.2C51.4,297.9-1,309-1,309v23.4
	c0,0,37.6-7.5,69-9.6c35.5-2.3,119.6,18.9,159.7,4.7c23.4-8.2,48.9-14.8,87.3-25.1c20.9-5.6,53.1-8,96.8-2.1
	C455.2,306.2,516,326.1,516,326.1z"/>
<path opacity="0.4" fill="#FFFBFD" enable-background="new    " d="M1281,309c-87.3,25.6-98.9,31.1-128.6,34.8
	c-30.1,3.7-111.7,6.5-143.4,0.4c-19.8-3.8-115-38.1-130.8-25.7c-3.9,3,42.3,20.2,52.7,25.7c24.7,12.9,78.8,29.1,106.3,33.9
	c33,5.7,101.4,10.5,135,9.9c27.3-0.5,108.8-13.3,108.8-13.3l-0.9-65.7H1281z"/>
<path opacity="0.3" fill="#E1DBE1" enable-background="new    " d="M1069.8,347.5c23.2,0.1,69.8-1.2,92.6-5
	c30.4-5.1,118.6-33.5,118.6-33.5v23.3c0,0-82.3,20.5-109.9,24.1c-21.1,2.7-60.8,1.3-82-0.5c-17.4-1.5-80.2-11.7-80.2-11.7
	S1031.8,347.3,1069.8,347.5z"/>
<radialGradient id="SVGID_2_" cx="-249.5272" cy="815.0638" r="3.3066" gradientTransform="matrix(1 0 0 -1 342.5 1217.7)" gradientUnits="userSpaceOnUse">
	<stop  offset="0.1174" style="stop-color:#DEDBC0"/>
	<stop  offset="1" style="stop-color:#FFFFFF;stop-opacity:0"/>
</radialGradient>
<path fill="url(#SVGID_2_)" d="M92.9,399c0,0-0.4,2.2-0.8,2.6c-0.5,0.5-2.1,1-2.1,1s1.6,0.5,2.1,1.1c0.4,0.5,1,2.6,1,2.6
	s0.5-2.2,0.9-2.7s2-1.2,2-1.2s-1.6-0.4-2.1-0.8C93.5,401.1,92.9,399,92.9,399z"/>
</svg>
