<?xml version="1.0" encoding="utf-8"?>
<!-- Generator: Adobe Illustrator 17.0.0, SVG Export Plug-In . SVG Version: 6.00 Build 0)  -->
<!DOCTYPE svg PUBLIC "-//W3C//DTD SVG 1.1//EN" "http://www.w3.org/Graphics/SVG/1.1/DTD/svg11.dtd">
<svg version="1.1" id="Layer_1" xmlns="http://www.w3.org/2000/svg" xmlns:xlink="http://www.w3.org/1999/xlink" x="0px" y="0px"
	 width="1280px" height="1713.5px" viewBox="0 0 1280 1713.5" enable-background="new 0 0 1280 1713.5" xml:space="preserve">
<linearGradient id="SVGID_1_" gradientUnits="userSpaceOnUse" x1="-686" y1="47" x2="596" y2="47" gradientTransform="matrix(1 0 0 1 685 871.5)">
	<stop  offset="0" style="stop-color:#E3CD9A"/>
	<stop  offset="0.6056" style="stop-color:#BC8658"/>
	<stop  offset="0.6511" style="stop-color:#C7956A"/>
	<stop  offset="0.7299" style="stop-color:#E0BB93"/>
	<stop  offset="1" style="stop-color:#E3CD9A"/>
</linearGradient>
<path fill="url(#SVGID_1_)" d="M-1,172.7c0,0,25.4-7.9,41-9.6c12.9-1.4,39.6,0.2,51.8-4.1c3.7-1.3,8.9-8.1,12.8-8.8
	c6.2-1.1,18.3,4.9,24.4,6.4c12.6,3.1,37.9,9,50.6,11.7c9.3,2,28.5,3.9,37.2,7.6c2.4,1,6.1,5,8.5,5.9c15.7,5.4,49.8,4.9,66.5,4.7
	c49.9-0.5,149.6-10.2,198.9-18.2c22.9-3.7,68.1-14.6,90.3-21.1c18-5.3,70.8-25.2,70.8-25.2h69.5l17.1,4.1L750,122l17.7,8.8
	l52.5,13.5l69.5,10l20.7-7.6l21.3,0.6l46.4,11.1c0,0,53.2-1.8,79.9,2.6c13.2,2.2,62.5,11,75.9,11.8c16.4,1.1,44.7,4.7,61.2,4.7
	c5,0,23.3,1.1,28.3,1.4c19.4,1.1,57.6-6.3,57.6-6.3l-1.1,1540.8L-1,1715V172.7L-1,172.7z"/>
<linearGradient id="SVGID_2_" gradientUnits="userSpaceOnUse" x1="-686" y1="67.8885" x2="595.9999" y2="67.8885" gradientTransform="matrix(1 0 0 1 685 871.5)">
	<stop  offset="0" style="stop-color:#E5B674"/>
	<stop  offset="0.4652" style="stop-color:#E3A156"/>
	<stop  offset="0.5116" style="stop-color:#E1A25A"/>
	<stop  offset="0.5651" style="stop-color:#DCA566"/>
	<stop  offset="0.6219" style="stop-color:#D5A977"/>
	<stop  offset="0.6385" style="stop-color:#D2AB7C"/>
	<stop  offset="1" style="stop-color:#E5B674"/>
</linearGradient>
<path fill="url(#SVGID_2_)" d="M0,231.8c0,0,48.9-20.8,71.7-33.1c14.5-7.8,40.2-29.6,56.1-34c6.4-1.8,20.1-0.5,26.8,0
	c27.7,1.9,82.3,11.5,109.8,15.2c35.1,4.8,162-0.8,197.4,0c19.3,0.4,38.5,6.6,57.5,3.6c20.7-3.3,12.5-6.4,33-10.9
	c9.7-2.1,12.6-7.5,22.6-7c11.8,0.6,58.2-0.6,69.6,2.4c15.4,4,64,4.2,79.9,5.3c27.7,2,68.8,15.5,96.2,11.3
	c14.3-2.2,41.7-13.1,56.1-14.1c29.7-2,88.9,8.7,118.3,12.9c11.7,1.7,34.6,7.2,46.4,8.2c14,1.2,42.1,0,56.1,0c11.9,0,35.8-1.3,47.6,0
	c18,1.9,58.4,45.8,76.5,47.3c21,1.7,59.4-7.1,59.4-7.1V1715H-1V231.8H0z"/>
<g opacity="0.1">
	<path fill="#00211E" d="M166.5,230.7c3.3,2.3,11.3,2.3,15.6,2.8c7,1,13.8,2,20.4,4c7,2.3,14.8,2.3,21.1,5.8c1.8,1,1.5,1.3,3.3,1.8
		c1.3,0.3,3.8,1,4.8,1.3c4.3,0.5,8.3-2,12.1-3.5c5.8-1.8,12.8-1.8,19.1-2.5c5.5-0.8,11.1,2,16.8,1.8c9.3-0.3,18.4,0.5,27.4,1.8
		c4.3,0.8,5-0.5,9.1-2c3.8-1.5,8.3-1.5,12.3-2.3c14.3-2.8,27.7-8.3,42.2-10.6c6.3-1,12.3-1.8,18.6-2.3c5-0.5,9.8-1,14.8-1.5
		c2.8-0.3,7.3,0.5,9.3-1c-3.8-2-8.8-1.8-13.1-2c-7.3-0.5-14.6-1-21.6-1.5c-13.8-0.5-28.2-2.3-41.5,1.5c-28.4,8.3-57.1,7-86.2,6
		c-15.3-0.5-30.2,1.8-45.5,1.3c-11.3-0.3-22.6-1.5-33.9-0.5"/>
</g>
<g opacity="0.1">
	<path fill="#00211E" d="M433.5,228.4c8.3,2,17.1-0.3,25.4,0.5c3.8,0.3,11.1,3.5,14.1,2c0.3-6,11.8-3.8,16.1-4
		c14.8-1,29.9,1.5,45,1.5c21.6,0,42-4.3,63.1-7.8c4.5-0.8,13.3-0.8,17.1-3.5c-2-4.5-11.8-1.8-15.3-1.5c-10.1,1-20.4,1.3-30.4,2
		c-15.6,1.3-31.2,2-46.8,2c-16.1,0-31.2-3-46.8-4.5c-6.8-0.8-11.8,1.8-17.6,4.8c-6.5,3.3-13.6,4-20.4,5.5"/>
</g>
<g opacity="0.1">
	<path fill="#00211E" d="M575.6,233.5c4.8,1,9.6,0.3,14.3,1c12.8,2,25.6,2,38.2,6c3.3,1,7,2.5,10.6,2c3-0.5,6.3-2,9.6-2.5
		c11.1-1.3,22.1-1.3,33.2-1.8c20.4-0.8,41-4.3,61.3-1c6.8,1,12.3-1.5,19.1-1.3c6.3,0.3,11.6,0.5,17.6-1c3.5-0.8,5.5-2.3,8.5-4
		c-22.4-9.6-49.5-7.8-73.4-6.3c-33.4,2-67.1,4-100.8,6.3c-8.3,0.8-15.8,1-24.1,1"/>
</g>
<g opacity="0.1">
	<path fill="#00211E" d="M743.3,204c10.8-3.5,21.6-4,32.9-3.5c13.8,0.3,27.2-1.3,41-2.5c11.6-1,22.4-2.5,33.9-4.8
		c4.8-1,9.6,0.3,13.3-3.5c-6.5,0.5-13.1-3.3-19.6-3.5c-7.3-0.3-15.6,3.3-23.1,4c-23.6,2.5-47.8,3.5-71.7,4c-4,0-10.6-0.8-13.8,1.8
		c0.8,2.8,3.8,3.5,4.3,6"/>
</g>
<linearGradient id="SVGID_3_" gradientUnits="userSpaceOnUse" x1="-45.9828" y1="-931.0129" x2="140.8376" y2="-931.0129" gradientTransform="matrix(0.9996 -2.973270e-02 2.973270e-02 0.9996 584.9235 1049.7334)">
	<stop  offset="0" style="stop-color:#8C7C68"/>
	<stop  offset="1.855622e-02" style="stop-color:#8E7D69"/>
	<stop  offset="3.158294e-02" style="stop-color:#95806E"/>
	<stop  offset="4.288072e-02" style="stop-color:#A08475"/>
	<stop  offset="4.795121e-02" style="stop-color:#A7877A"/>
	<stop  offset="0.2524" style="stop-color:#AC8A7A"/>
	<stop  offset="0.5172" style="stop-color:#B8927A"/>
	<stop  offset="0.8139" style="stop-color:#CC9F77"/>
	<stop  offset="1" style="stop-color:#DCA873"/>
</linearGradient>
<polygon fill="url(#SVGID_3_)" points="513.7,201.9 519.4,198.1 524.2,193.8 525.7,192.7 528.6,189.9 532.2,185.5 538.8,180.3 
	542.3,175.2 547.6,171.4 550.2,165.9 551.8,163.3 553.7,161.7 558.1,158.4 559.7,156.4 562,153.8 566,151 567.4,148.3 570.8,145.4 
	573.9,140.3 575.7,137.8 578.7,136.1 582.7,131.9 584.8,128.9 586.1,125.9 589.2,123.6 592.7,119.8 598.1,117.9 599.5,114 
	602.8,109.1 607.7,105.8 611.6,100.7 615.6,97 620,91.9 623.6,88.5 628.3,84.8 631.8,80.6 633.3,77.2 636.1,72.4 640.5,67.7 
	644.5,64 646.7,62.1 648,59.8 651.9,54.7 655,51 656.7,48.3 659.8,45.4 665.1,41.2 667.7,37.5 670.3,33.8 673.4,31.9 678.2,26.7 
	683.5,21.6 699.9,178 598.6,211.6 "/>
<linearGradient id="SVGID_4_" gradientUnits="userSpaceOnUse" x1="-84.1" y1="-754.95" x2="171.1" y2="-754.95" gradientTransform="matrix(1 0 0 1 685 871.5)">
	<stop  offset="2.178332e-02" style="stop-color:#CCB480"/>
	<stop  offset="0.5784" style="stop-color:#E3A156"/>
	<stop  offset="0.907" style="stop-color:#D4A977"/>
	<stop  offset="1" style="stop-color:#D0AC80"/>
</linearGradient>
<polygon fill="url(#SVGID_4_)" points="683.5,21.6 685.9,25.2 688.3,28.7 692.1,31.9 696,36.2 699.5,40.1 704,41.8 707.8,45.3 
	709.6,48 715.2,52.3 718.8,56.2 720.9,59.9 727.3,63.3 729.8,66.5 731.6,69.1 735.7,72.6 738.2,74.6 740,77.4 743.2,81.4 
	746.3,84.6 748,88 751.7,91.1 754.9,93.5 756.3,97.9 758.8,101.3 761.8,104.9 764.9,107.9 771.8,112.7 776.9,115.7 784.7,120.5 
	787.6,126.3 793.6,129.2 797.8,135.5 797.9,139.5 803.4,139.4 807.6,145.1 810,149.6 813.3,152.7 819.7,154.7 823,159.6 
	827.3,166.3 831.4,169.3 833.8,174.2 838.9,177.2 843.9,177.1 845.9,182.9 852.4,188.6 856.1,193.9 843.5,194.3 838,192.7 
	832.6,194.6 828.1,194.8 822.2,194.9 805,195.5 778.3,196.2 771.1,196.5 743.1,200 717.9,203.5 686.2,204.4 661.8,205.1 
	656.4,205.3 646.8,202 642.4,205.7 630.1,206.1 610.3,209.4 600.9,211.5 604.7,202.3 608.2,200.4 608.6,196.3 609.1,194.1 
	609.3,191.8 612,188.1 614.1,183.5 614.9,179.4 614.9,179.4 617,176.6 619.6,171.5 623.9,165.1 624.2,160.1 626.4,156.4 
	628.6,153.6 634.6,144.4 637.2,137.5 638.8,132.5 641.8,127 646.2,120.5 648.3,116.4 649.1,111.7 649.9,107.7 652,104 653.1,101.1 
	655,98.1 655.3,93.1 657.9,87.6 660,82.1 662.9,76.1 665.6,72.8 666,69.5 667.6,66.4 668.9,61.4 671.4,57.3 672.6,53.9 674.4,50.4 
	675.2,46.3 676.8,42.9 677.7,39.9 678.5,35.3 680.6,30.3 680.9,25.8 "/>
<linearGradient id="SVGID_5_" gradientUnits="userSpaceOnUse" x1="-350.6906" y1="-792.426" x2="-133.9314" y2="-792.426" gradientTransform="matrix(1 -7.519310e-03 7.519310e-03 1 658.3392 911.9716)">
	<stop  offset="0" style="stop-color:#8C7C68"/>
	<stop  offset="1.855622e-02" style="stop-color:#8E7D69"/>
	<stop  offset="3.158294e-02" style="stop-color:#95806E"/>
	<stop  offset="4.288072e-02" style="stop-color:#A08475"/>
	<stop  offset="4.795121e-02" style="stop-color:#A7877A"/>
	<stop  offset="0.2524" style="stop-color:#AC8A7A"/>
	<stop  offset="0.5172" style="stop-color:#B8927A"/>
	<stop  offset="0.8139" style="stop-color:#CC9F77"/>
	<stop  offset="1" style="stop-color:#DCA873"/>
</linearGradient>
<polygon fill="url(#SVGID_5_)" points="302.4,216.6 309.1,212.4 314.8,207.6 316.5,206.3 319.9,203.1 324.3,198.1 332.1,192.3 
	336.2,186.5 342.5,182.2 345.6,175.9 347.5,172.9 349.8,171.1 355,167.4 357,165.1 359.7,162.2 364.4,158.9 366.1,155.9 
	370.1,152.6 373.7,146.8 376,144 379.5,142 384.2,137.3 386.7,133.9 388.3,130.4 392,127.8 396.1,123.5 402.4,121.4 404.2,117 
	408.1,111.4 413.9,107.7 418.5,101.9 423.2,97.6 428.4,91.8 432.8,88 438.4,83.9 442.5,79.1 444.3,75.1 447.7,69.6 452.9,64.3 
	457.6,60.1 460.2,58 461.8,55.3 466.4,49.5 470.1,45.3 472.1,42.2 475.8,39 482.1,34.2 485.2,30 488.3,25.7 492,23.6 497.7,17.8 
	504,12 519,193.8 400.6,230.1 "/>
<linearGradient id="SVGID_6_" gradientUnits="userSpaceOnUse" x1="-281.8" y1="-750.5" x2="14.7" y2="-750.5" gradientTransform="matrix(1 0 0 1 685 871.5)">
	<stop  offset="2.178332e-02" style="stop-color:#CCB480"/>
	<stop  offset="0.5784" style="stop-color:#E3A156"/>
	<stop  offset="0.907" style="stop-color:#D4A977"/>
	<stop  offset="1" style="stop-color:#D0AC80"/>
</linearGradient>
<polygon fill="url(#SVGID_6_)" points="504,12 506.6,16.2 509.3,20.3 513.6,24.1 518.1,29.2 522,33.9 527.2,35.9 531.5,40.1 
	533.6,43.2 539.9,48.4 544,53 546.3,57.3 553.7,61.5 556.5,65.2 558.4,68.3 563.2,72.4 566,74.8 568,78.2 571.7,82.9 575.2,86.6 
	577,90.7 581.2,94.3 584.9,97.2 586.4,102.4 589.2,106.3 592.6,110.6 596.1,114.2 604,119.9 609.8,123.5 618.7,129.2 621.9,136 
	628.8,139.6 633.6,147 633.6,151.7 639.9,151.6 644.7,158.4 647.3,163.6 651,167.3 658.4,169.9 662.1,175.6 666.9,183.4 
	671.7,187.1 674.3,192.8 680.1,196.5 685.9,196.4 688.1,203.2 695.5,210 699.7,216.3 685,216.4 678.7,214.3 672.4,216.5 
	667.2,216.5 660.3,216.6 640.4,216.7 609.4,216.9 601,217 568.5,220.4 539.1,223.8 502.4,224 474.1,224.3 467.8,224.3 456.7,220.2 
	451.5,224.4 437.3,224.5 414.2,227.9 403.2,230 407.9,219.5 412.1,217.4 412.6,212.7 413.2,210.1 413.6,207.4 416.7,203.2 
	419.3,197.9 420.3,193.2 420.3,193.2 422.9,190 426,184.2 431.2,176.8 431.7,171 434.3,166.8 436.9,163.7 444.1,153.1 447.2,145.2 
	449.3,139.4 452.9,133.1 458.1,125.7 460.7,121 461.8,115.6 462.7,111 465.3,106.7 466.6,103.4 468.9,99.9 469.4,94.1 472.5,87.8 
	475.1,81.5 478.7,74.6 481.8,70.9 482.4,67.1 484.4,63.6 485.9,57.8 489,53 490.5,49.1 492.7,45.1 493.7,40.4 495.6,36.5 496.8,33 
	497.8,27.8 500.4,22 500.8,16.7 "/>
<linearGradient id="SVGID_7_" gradientUnits="userSpaceOnUse" x1="-398.3056" y1="-896.2838" x2="-238.4762" y2="-896.2838" gradientTransform="matrix(0.9996 -2.973270e-02 2.973270e-02 0.9996 584.9235 1049.7334)">
	<stop  offset="0" style="stop-color:#8C7C68"/>
	<stop  offset="1.855622e-02" style="stop-color:#8E7D69"/>
	<stop  offset="3.158294e-02" style="stop-color:#95806E"/>
	<stop  offset="4.288072e-02" style="stop-color:#A08475"/>
	<stop  offset="4.795121e-02" style="stop-color:#A7877A"/>
	<stop  offset="0.2524" style="stop-color:#AC8A7A"/>
	<stop  offset="0.5172" style="stop-color:#B8927A"/>
	<stop  offset="0.8139" style="stop-color:#CC9F77"/>
	<stop  offset="1" style="stop-color:#DCA873"/>
</linearGradient>
<polygon fill="url(#SVGID_7_)" points="162.2,235.3 167.1,232.1 171.2,228.5 172.4,227.4 174.9,225.1 178,221.3 183.7,216.9 
	186.7,212.5 191.2,209.3 193.4,204.6 194.8,202.3 196.4,201 200.2,198.2 201.6,196.4 203.6,194.2 207,191.8 208.2,189.5 211.1,187 
	213.7,182.7 215.2,180.5 217.8,179 221.2,175.5 223,172.9 224.1,170.3 226.8,168.3 229.8,165.1 234.4,163.5 235.6,160.2 238.4,156 
	242.6,153.1 246,148.8 249.3,145.6 253.1,141.2 256.2,138.4 260.3,135.2 263.3,131.6 264.5,128.7 266.9,124.5 270.7,120.6 
	274.1,117.4 275.9,115.8 277.1,113.8 280.4,109.4 283,106.2 284.5,104 287.1,101.5 291.7,97.9 293.9,94.7 296.1,91.5 298.8,89.9 
	302.9,85.5 307.4,81.1 321.5,214.9 234.8,243.6 "/>
<linearGradient id="SVGID_8_" gradientUnits="userSpaceOnUse" x1="-448.2" y1="-709.2" x2="-229.9" y2="-709.2" gradientTransform="matrix(1 0 0 1 685 871.5)">
	<stop  offset="2.178332e-02" style="stop-color:#CCB480"/>
	<stop  offset="0.5784" style="stop-color:#E3A156"/>
	<stop  offset="0.907" style="stop-color:#D4A977"/>
	<stop  offset="1" style="stop-color:#D0AC80"/>
</linearGradient>
<polygon fill="url(#SVGID_8_)" points="307.4,81.1 309.5,84.2 311.5,87.2 314.8,89.9 318.2,93.6 321.1,97 325,98.4 328.2,101.4 
	329.8,103.7 334.6,107.4 337.6,110.7 339.4,113.9 344.9,116.8 347,119.5 348.5,121.7 352.1,124.7 354.3,126.4 355.7,128.9 
	358.5,132.3 361.2,135 362.6,138 365.8,140.6 368.5,142.6 369.7,146.4 371.8,149.3 374.4,152.4 377,155 383,159 387.3,161.6 
	394,165.7 396.5,170.6 401.6,173.2 405.2,178.5 405.3,182 410,181.9 413.6,186.8 415.6,190.6 418.4,193.2 423.9,195 426.7,199.2 
	430.4,204.9 434,207.5 436,211.7 440.4,214.3 444.6,214.1 446.3,219.1 451.9,224 455.1,228.5 444.3,228.9 439.6,227.4 435,229.1 
	431.1,229.2 426.1,229.4 411.4,229.8 388.6,230.5 382.4,230.7 358.5,233.7 336.9,236.7 309.8,237.5 288.9,238.1 284.2,238.3 
	276,235.4 272.2,238.6 261.8,238.9 244.8,241.8 236.8,243.5 240,235.7 243.1,234.1 243.4,230.6 243.8,228.7 244,226.7 246.2,223.5 
	248.1,219.6 248.7,216.1 248.7,216.1 250.6,213.7 252.8,209.4 256.5,203.8 256.8,199.6 258.6,196.4 260.5,194 265.7,186.1 
	267.8,180.3 269.2,176 271.8,171.2 275.5,165.7 277.3,162.2 278,158.2 278.7,154.8 280.5,151.6 281.4,149.2 283.1,146.5 
	283.3,142.2 285.5,137.5 287.3,132.8 289.9,127.7 292.1,124.9 292.4,122.1 293.9,119.5 294.9,115.2 297.1,111.6 298.1,108.7 
	299.7,105.7 300.3,102.2 301.7,99.3 302.5,96.8 303.2,92.9 305,88.6 305.2,84.7 "/>
<linearGradient id="SVGID_9_" gradientUnits="userSpaceOnUse" x1="12.9714" y1="-861.7086" x2="123.5372" y2="-861.7086" gradientTransform="matrix(0.9996 -2.973270e-02 2.973270e-02 0.9996 584.9235 1049.7334)">
	<stop  offset="0" style="stop-color:#8C7C68"/>
	<stop  offset="1.855622e-02" style="stop-color:#8E7D69"/>
	<stop  offset="3.158294e-02" style="stop-color:#95806E"/>
	<stop  offset="4.288072e-02" style="stop-color:#A08475"/>
	<stop  offset="4.795121e-02" style="stop-color:#A7877A"/>
	<stop  offset="0.2524" style="stop-color:#AC8A7A"/>
	<stop  offset="0.5172" style="stop-color:#B8927A"/>
	<stop  offset="0.8139" style="stop-color:#CC9F77"/>
	<stop  offset="1" style="stop-color:#DCA873"/>
</linearGradient>
<polygon fill="url(#SVGID_9_)" points="573.7,236.1 577.1,233.9 579.9,231.4 580.7,230.7 582.5,229 584.6,226.4 588.5,223.4 
	590.6,220.4 593.7,218.1 595.3,214.9 596.2,213.3 597.3,212.4 599.9,210.4 600.9,209.2 602.3,207.7 604.6,206 605.5,204.4 
	607.5,202.7 609.3,199.7 610.4,198.2 612.1,197.2 614.5,194.7 615.7,193 616.5,191.2 618.4,189.8 620.4,187.6 623.6,186.4 
	624.5,184.2 626.4,181.2 629.3,179.3 631.6,176.3 634,174.1 636.5,171 638.7,169.1 641.5,166.9 643.6,164.4 644.5,162.3 
	646.1,159.5 648.7,156.7 651.1,154.5 652.4,153.4 653.1,152.1 655.4,149 657.3,146.8 658.3,145.3 660.1,143.5 663.2,141 
	664.8,138.9 666.3,136.7 668.2,135.5 671,132.5 674.2,129.5 683.9,222 623.9,241.9 "/>
<linearGradient id="SVGID_10_" gradientUnits="userSpaceOnUse" x1="-59.7" y1="-685.85" x2="91.3" y2="-685.85" gradientTransform="matrix(1 0 0 1 685 871.5)">
	<stop  offset="2.178332e-02" style="stop-color:#E08536"/>
	<stop  offset="0.4548" style="stop-color:#E2A158"/>
	<stop  offset="1" style="stop-color:#D0AC80"/>
</linearGradient>
<polygon fill="url(#SVGID_10_)" points="674.2,129.5 675.6,131.6 677,133.7 679.2,135.5 681.6,138.1 683.6,140.4 686.3,141.4 
	688.5,143.5 689.6,145.1 692.9,147.7 695,149.9 696.3,152.1 700.1,154.1 701.5,156 702.6,157.5 705.1,159.6 706.5,160.8 
	707.6,162.5 709.5,164.8 711.3,166.7 712.3,168.8 714.5,170.6 716.4,172 717.2,174.6 718.7,176.6 720.5,178.7 722.3,180.5 
	726.4,183.4 729.4,185.1 734,188 735.7,191.4 739.3,193.2 741.8,196.8 741.9,199.2 745.1,199.1 747.6,202.6 749,205.2 750.9,207 
	754.7,208.2 756.7,211.1 759.2,215.1 761.7,216.9 763.1,219.8 766.1,221.6 769,221.5 770.2,224.9 774.1,228.3 776.3,231.4 
	768.8,231.7 765.6,230.7 762.4,231.9 759.7,231.9 756.2,232 746.1,232.3 730.3,232.8 726,232.9 709.4,235 694.5,237.1 675.8,237.6 
	661.3,238.1 658.1,238.2 652.4,236.2 649.8,238.4 642.6,238.6 630.8,240.6 625.3,241.8 627.5,236.4 629.6,235.3 629.8,232.8 
	630.1,231.6 630.3,230.2 631.8,228 633.1,225.2 633.5,222.8 633.5,222.8 634.8,221.2 636.3,218.2 638.9,214.4 639.1,211.4 
	640.4,209.2 641.7,207.6 645.2,202.1 646.7,198.1 647.7,195.1 649.5,191.8 652.1,188 653.3,185.5 653.8,182.8 654.2,180.4 
	655.5,178.2 656.2,176.5 657.3,174.7 657.5,171.8 659,168.5 660.2,165.2 662,161.7 663.5,159.8 663.8,157.8 664.8,156 665.5,153 
	667,150.6 667.7,148.6 668.8,146.5 669.2,144.1 670.2,142.1 670.7,140.3 671.2,137.6 672.4,134.6 672.6,131.9 "/>
<linearGradient id="SVGID_11_" gradientUnits="userSpaceOnUse" x1="15026.9707" y1="-754.9598" x2="15043.4307" y2="-754.9598" gradientTransform="matrix(-1 0 0 1 15356.7051 871.5)">
	<stop  offset="1.596381e-02" style="stop-color:#932C12"/>
	<stop  offset="0.3364" style="stop-color:#D24427"/>
	<stop  offset="0.4077" style="stop-color:#CD5237"/>
	<stop  offset="0.5142" style="stop-color:#C56250"/>
	<stop  offset="0.5966" style="stop-color:#C16A5F"/>
	<stop  offset="0.6445" style="stop-color:#BF6D65"/>
	<stop  offset="0.9815" style="stop-color:#460012"/>
</linearGradient>
<path opacity="3.000000e-02" fill="url(#SVGID_11_)" enable-background="new    " d="M329.7,112.1c0,0-2.7-2.3-3.1-3.3
	c-0.2-0.5,0.3-1.8,0-2.3c-0.2-0.5-1.1-1.2-1.6-1.3c-0.3-0.1-1.2,0.2-1.3,0.5c-0.1,0.3,0.5,0.7,0.6,1c0.2,0.7,0.2,2.2,0.4,2.9
	c0.2,0.8,1,2.3,1.1,3.2c0,0.3,0.2,1,0,1.1c-0.7,0.3-1.9-1.3-2.5-1.8c-0.4-0.3-1-1-1.3-1.2c-0.9-0.6-2.8-1.8-3.9-2.1
	c-0.7-0.2-2.1-0.3-2.8-0.2c-0.6,0.2-2.1,0.7-2.1,1.3c0,0.5,1.3,0.8,1.8,0.9c0.6,0.2,2-0.2,2.6,0s1.7,1.2,1.9,1.8
	c0.1,0.4-0.3,1.3-0.5,1.6c-0.4,0.4-1.9,0.5-2,1s0.9,1.4,1.2,1.9c0.6,0.9,1.9,2.7,2.5,3.6c1,1.5,2.7,4.9,4.1,6c1,0.7,4.8,1.2,4.8,1.2
	L329.7,112.1z"/>
<linearGradient id="SVGID_12_" gradientUnits="userSpaceOnUse" x1="15094.0137" y1="-713.0424" x2="15106.3691" y2="-713.0424" gradientTransform="matrix(-1 0 0 1 15356.7051 871.5)">
	<stop  offset="1.596381e-02" style="stop-color:#932C12"/>
	<stop  offset="0.3364" style="stop-color:#D24427"/>
	<stop  offset="0.4077" style="stop-color:#CD5237"/>
	<stop  offset="0.5142" style="stop-color:#C56250"/>
	<stop  offset="0.5966" style="stop-color:#C16A5F"/>
	<stop  offset="0.6445" style="stop-color:#BF6D65"/>
	<stop  offset="0.9815" style="stop-color:#460012"/>
</linearGradient>
<path opacity="5.000000e-02" fill="url(#SVGID_12_)" enable-background="new    " d="M261.1,154.1c-0.7,0-2,0.5-2.5,1
	c-0.5,0.6-1.2,1.7-1.6,2.4c-0.5,0.9-2.2,2.6-3,3.1c-0.8,0.6-2.2,0.9-3.6,2c-0.6,0.5,1.9,0.3,2.6,0c0.7-0.3,2.1-0.8,2.7-1.2
	c1.7-1,5.3-2.9,6.4-4.5c0.4-0.5,0.7-1.9,0.5-2.6C262.4,153.8,261.7,154.1,261.1,154.1z"/>
<linearGradient id="SVGID_13_" gradientUnits="userSpaceOnUse" x1="14993.5117" y1="-715.8221" x2="15019.5596" y2="-715.8221" gradientTransform="matrix(-1 0 0 1 15356.7051 871.5)">
	<stop  offset="1.596381e-02" style="stop-color:#932C12"/>
	<stop  offset="0.3364" style="stop-color:#D24427"/>
	<stop  offset="0.4077" style="stop-color:#CD5237"/>
	<stop  offset="0.5142" style="stop-color:#C56250"/>
	<stop  offset="0.5966" style="stop-color:#C16A5F"/>
	<stop  offset="0.6445" style="stop-color:#BF6D65"/>
	<stop  offset="0.9815" style="stop-color:#460012"/>
</linearGradient>
<path opacity="3.000000e-02" fill="url(#SVGID_13_)" enable-background="new    " d="M363.1,151.6c-0.4-0.6-2-0.5-2.7-0.5
	c-1-0.1-3.1,0.3-4,0c-1.3-0.4-3-1.1-3.6-2.4c-0.3-0.6-3.6-0.1-4.2,0.1c-1.8,0.8-2.4,0.8-11.2,7.4c-0.6,0.4,0.7,2,1.2,2.6
	c1,1.4,2,2.1,3.6,2.7c2.6,1,6.9,2.4,8.9,0.5c0.9-0.9,6.6-2.4,7.1-3.5c1-2,3.2-3,4.5-4.8C362.9,153.2,363.4,152,363.1,151.6z"/>
<linearGradient id="SVGID_14_" gradientUnits="userSpaceOnUse" x1="15092.876" y1="-662.2897" x2="15189.207" y2="-662.2897" gradientTransform="matrix(-1 0 0 1 15356.7051 871.5)">
	<stop  offset="1.596381e-02" style="stop-color:#932C12"/>
	<stop  offset="0.3364" style="stop-color:#D24427"/>
	<stop  offset="0.4077" style="stop-color:#CD5237"/>
	<stop  offset="0.5142" style="stop-color:#C56250"/>
	<stop  offset="0.5966" style="stop-color:#C16A5F"/>
	<stop  offset="0.6445" style="stop-color:#BF6D65"/>
	<stop  offset="0.9815" style="stop-color:#460012"/>
</linearGradient>
<path opacity="5.000000e-02" fill="url(#SVGID_14_)" enable-background="new    " d="M263.8,192.3c-1.3-1.5-9.7-0.6-11.5-1.2
	c-3.1-1.1-8.3-5.1-11.3-6.4c-0.9-0.4-2.9-1.3-3.9-1.2c-2.3,0.2-4,4.4-6,5.5c-4.5,2.5-17.2,4.9-19.9,9.3c-1.8,2.8,1.4,10.9-0.9,13.4
	c-2.5,2.6-10.5,3.5-14,2.6c-0.6-0.2-1.8-2.4-2.4-2.4c-2.6-0.2-7.3,2.9-9.5,4.3c-1.1,0.7-3.8,2-4,3.2c-0.2,0.9,1.8,2.3,1.9,3.2
	c0.1,0.7-1.5,2.7-1.8,3.3c-0.7,1.2-12.8,2.9-12.9,4.2c0,0.6,2.4,3,3,3.3c1.6,0.8,9.3,1.7,11.1,1.5c2.4-0.3,14.1-2.6,16.3-3.5
	c4.6-2.1,9.9-12,14.5-14.2c2.1-1,8-0.5,9-2.6c0.5-1.1-2.9-4-1.8-4.3c9-2.4,18.7-0.7,27-4.7c1.6-0.8-2-5-2.5-6.7
	c-0.2-0.9-1-2.9-0.5-3.6c0.6-0.9,3.1-1.4,4.2-1.4c2-0.1,5.9,2,7.9,1.9c1.1,0,3.7-0.3,4.4-1.2C260.3,194,264.2,192.8,263.8,192.3z"/>
<linearGradient id="SVGID_15_" gradientUnits="userSpaceOnUse" x1="15014.6826" y1="-659.6395" x2="15072.8867" y2="-626.0355" gradientTransform="matrix(-1 0 0 1 15356.7051 871.5)">
	<stop  offset="1.596381e-02" style="stop-color:#932C12"/>
	<stop  offset="0.3364" style="stop-color:#D24427"/>
	<stop  offset="0.4077" style="stop-color:#CD5237"/>
	<stop  offset="0.5142" style="stop-color:#C56250"/>
	<stop  offset="0.5966" style="stop-color:#C16A5F"/>
	<stop  offset="0.6445" style="stop-color:#BF6D65"/>
	<stop  offset="0.9815" style="stop-color:#460012"/>
</linearGradient>
<path opacity="3.000000e-02" fill="url(#SVGID_15_)" enable-background="new    " d="M327.2,208.8c2.1-0.5,6.8,4.6,8.9,5.4
	c1.5,0.5,5-0.6,6.3,0.4c0.4,0.3,0.7,1.5,0.6,2c0,0.3-0.8,0.9-0.7,1.2c0.1,0.6,1.4,1.2,2,1.5s2,0.4,2.5,0.8c0.3,0.3,0.6,1.1,0.8,1.5
	c0.3,0.6,1.4,1.7,1.3,2.4s-0.5,2.3-1,2.8s-0.5,5.1-1.9,3.4c-1-1.1-2.4-4.4-3-5.1c-0.5-0.6-1.5-2.1-2.3-2.3c-0.4-0.1-1.2,0.5-1.6,0.5
	c-1,0.1-3.1-0.2-4.1-0.5c-0.3-0.1-1-0.8-1.3-0.6c-0.3,0.3,0.5,1.4,0.8,1.8c0.3,0.4,1.2,1.1,1.4,1.6c0.4,0.8,5.5,7.4,5.5,7.4
	s-8.8,0-10.9,0c-0.8,0-3.3,0.1-3.3,0.1s-3.3-2-3.9-2.1c-0.8-0.2-2.8-1-3.6-0.9c-1.3,0.1-1.5-0.9-2.7-1.4c-0.3-0.1-0.9-0.7-0.9-1
	c0-0.5,0.9-1.4,1.2-1.8c0.3-0.4,1.3-0.8,1.3-1.3c0-1.5-3-3.7-4.4-4.4c-0.2-0.1-0.8-0.2-1-0.1c-1,0.4-2.1,2.4-2.9,3.1
	c-1.1,0.9-3.6,2.6-5,3.2c-3.5,1.4-12.1,0.9-12.1,0.9l-9.7,1l-8.1,2.4c0,0,5.6-5.2,7.9-6.3c0.9-0.4,1.6-0.4,4.5-0.9
	c2.6-0.4,6,1.2,8.4,0.3c1.6-0.6,4.6-2.3,6.3-2.7c0.5-0.1,1.7,0.2,2.1-0.2c0.3-0.3,0.1-1.3,0-1.6c-0.3-0.8-4.2-0.6-4.2-1.5
	c0-0.4,2.4-1.2,2.8-1.3c0.9-0.2,2.8,0,3.7,0.1c1,0.1,3-0.3,4-0.7c0.9-0.4,2.7-1.4,3.1-2.3c0.2-0.6-0.1-1.8-0.4-2.4
	c-0.2-0.5-1-1.2-1.4-1.6c-0.2-0.2-1-0.4-1-0.7c0.1-0.4,1.2-0.5,1.6-0.5c0.7,0,2.1,0.7,2.7,1.2c0.4,0.3,0.9,1.3,1.1,1.8
	s-0.2,1.8,0.1,2.3c0.2,0.3,1.2,0.4,1.5,0.7c0.6,0.5,1.2,2.1,1.8,2.6c1.1,0.9,4,1.2,5.4,1.1c0.9-0.1,2.7-1,3.5-1.5
	c0.5-0.3,1.8-1,1.9-1.6s-0.7-1.5-1.1-2c-0.3-0.3-1.1-0.8-1.3-1.2c-0.1-0.3-0.2-0.9-0.4-1.2C327.1,209.6,326.8,208.8,327.2,208.8z"/>
<linearGradient id="SVGID_16_" gradientUnits="userSpaceOnUse" x1="15073.1025" y1="-723.15" x2="15076.9482" y2="-723.15" gradientTransform="matrix(-1 0 0 1 15356.7051 871.5)">
	<stop  offset="1.596381e-02" style="stop-color:#932C12"/>
	<stop  offset="0.3364" style="stop-color:#D24427"/>
	<stop  offset="0.4077" style="stop-color:#CD5237"/>
	<stop  offset="0.5142" style="stop-color:#C56250"/>
	<stop  offset="0.5966" style="stop-color:#C16A5F"/>
	<stop  offset="0.6445" style="stop-color:#BF6D65"/>
	<stop  offset="0.9815" style="stop-color:#460012"/>
</linearGradient>
<path opacity="5.000000e-02" fill="url(#SVGID_16_)" enable-background="new    " d="M281.2,145.1c0.3-0.2,0.6,0.6,1,0.7
	c0.3,0,0.6-0.1,0.8,0c0.2,0.2,0.4,0.7,0.5,1s0.2,0.9,0,1.1c-0.2,0.3-0.8,0.4-1.1,0.5c-0.2,0-0.5,0.2-0.7,0.3
	c-0.3,0.2-0.5,0.9-0.6,1.3c-0.1,0.2-0.1,0.8-0.3,0.9c-0.2,0.1-0.9,0.9-1.1,0.7s0.2-1.3,0.2-1.6c0-0.6-0.1-1.7,0-2.2
	C280.1,147.3,280.6,145.4,281.2,145.1z"/>
<linearGradient id="SVGID_17_" gradientUnits="userSpaceOnUse" x1="15056.0234" y1="-747.4875" x2="15061.835" y2="-747.4875" gradientTransform="matrix(-1 0 0 1 15356.7051 871.5)">
	<stop  offset="1.596381e-02" style="stop-color:#932C12"/>
	<stop  offset="0.3364" style="stop-color:#D24427"/>
	<stop  offset="0.4077" style="stop-color:#CD5237"/>
	<stop  offset="0.5142" style="stop-color:#C56250"/>
	<stop  offset="0.5966" style="stop-color:#C16A5F"/>
	<stop  offset="0.6445" style="stop-color:#BF6D65"/>
	<stop  offset="0.9815" style="stop-color:#460012"/>
</linearGradient>
<path opacity="5.000000e-02" fill="url(#SVGID_17_)" enable-background="new    " d="M296.2,121.1c0.3,0.1,0.9,0.3,1.3,0.3
	c0.3,0,0.6-0.2,0.9-0.3c0.2-0.1,0.8-0.1,1,0c0.4,0.2,1,1,1.1,1.4c0.1,0.3,0.1,0.9,0,1.1c-0.3,0.7-1.6,1.6-2.2,2.1
	c-0.3,0.2-1.6,1.3-2,1.3c-0.3,0-0.3-1.4-0.5-1.7c-0.4-0.5-0.9-1.4-1-2c-0.1-0.5,0-1.8,0.4-2.2C295.5,121,296,121,296.2,121.1z"/>
<linearGradient id="SVGID_18_" gradientUnits="userSpaceOnUse" x1="15058.9307" y1="-755.3474" x2="15061.9199" y2="-755.3474" gradientTransform="matrix(-1 0 0 1 15356.7051 871.5)">
	<stop  offset="1.596381e-02" style="stop-color:#932C12"/>
	<stop  offset="0.3364" style="stop-color:#D24427"/>
	<stop  offset="0.4077" style="stop-color:#CD5237"/>
	<stop  offset="0.5142" style="stop-color:#C56250"/>
	<stop  offset="0.5966" style="stop-color:#C16A5F"/>
	<stop  offset="0.6445" style="stop-color:#BF6D65"/>
	<stop  offset="0.9815" style="stop-color:#460012"/>
</linearGradient>
<path opacity="5.000000e-02" fill="url(#SVGID_18_)" enable-background="new    " d="M297.5,113.6c0.5-0.1,0.1,1.5,0,2
	c-0.1,0.4-0.2,1.4-0.5,1.7c-0.2,0.3-1.1,0.4-1.4,0.6c-0.2,0.2-0.4,0.9-0.7,0.8c-0.4-0.2-0.1-1.3,0-1.7c0.1-0.4,0.3-1.3,0.5-1.6
	C295.9,114.8,296.8,113.8,297.5,113.6z"/>
<linearGradient id="SVGID_19_" gradientUnits="userSpaceOnUse" x1="15079.2256" y1="-733.3105" x2="15084.2217" y2="-733.3105" gradientTransform="matrix(-1 0 0 1 15356.7051 871.5)">
	<stop  offset="1.596381e-02" style="stop-color:#932C12"/>
	<stop  offset="0.3364" style="stop-color:#D24427"/>
	<stop  offset="0.4077" style="stop-color:#CD5237"/>
	<stop  offset="0.5142" style="stop-color:#C56250"/>
	<stop  offset="0.5966" style="stop-color:#C16A5F"/>
	<stop  offset="0.6445" style="stop-color:#BF6D65"/>
	<stop  offset="0.9815" style="stop-color:#460012"/>
</linearGradient>
<path opacity="5.000000e-02" fill="url(#SVGID_19_)" enable-background="new    " d="M277.2,136.7c0.4,0.4,0.2,1.7,0,2.1
	c-0.2,0.3-0.9,0.7-1.2,0.9c-0.2,0.2-1.7,0.1-1.8-0.2c-0.2-0.5,0.5-0.8,0-1c-0.3-0.1-1.4,0.4-1.6,0.3c-0.3-0.1,0-0.7,0-1
	c0-0.4,0.6-1.1,1-1.2c0.3-0.1,1.1,0.2,1.4,0.2s0.6-0.1,0.9-0.2C276.3,136.6,277,136.5,277.2,136.7z"/>
<linearGradient id="SVGID_20_" gradientUnits="userSpaceOnUse" x1="14977.957" y1="-707.0337" x2="14977.957" y2="-686.7732" gradientTransform="matrix(-1 0 0 1 15356.7051 871.5)">
	<stop  offset="1.596381e-02" style="stop-color:#932C12"/>
	<stop  offset="0.3364" style="stop-color:#D24427"/>
	<stop  offset="0.4077" style="stop-color:#CD5237"/>
	<stop  offset="0.5142" style="stop-color:#C56250"/>
	<stop  offset="0.5966" style="stop-color:#C16A5F"/>
	<stop  offset="0.6445" style="stop-color:#BF6D65"/>
	<stop  offset="0.9815" style="stop-color:#460012"/>
</linearGradient>
<path opacity="3.000000e-02" fill="url(#SVGID_20_)" enable-background="new    " d="M359.8,164.5c2.3,0,4,0,5.7,0.2
	c1.2,0.1,6.2,0.4,7.3,0.9c1.1,0.4,3.1,1.6,4.1,2.2c1.3,0.8,3.5,2.9,4.8,3.8c1.2,0.8,3.8,2.2,5.2,2.7c1.4,0.4,4.7-0.2,6,0.7
	c0.5,0.4,1.4,1.6,1.2,2.3c-0.2,0.8-2.2,0.9-2.8,1.5c-0.3,0.3-1,1-0.9,1.5c0.2,0.9,5.7,2.5,6.5,2.8c0.2,0.1,0.7-0.2,0.8,0
	c0.3,0.5-0.9,1.6-1.5,1.8c-0.6,0.3-4.9,0.1-5.6,0.1c-0.9,0-3.3-0.5-4.1-0.8c-1.2-0.4-3.2-2.2-4.1-3.1c-0.6-0.6-1.9-1.8-2.3-2.5
	c-0.3-0.7-0.1-2.3-0.5-2.9c-0.3-0.5-1.4-1-1.9-1.4c-1.4-1-4.2-2.8-5.7-3.7c-1.1-0.7-3.5-2-4.7-2.6c-0.7-0.3-2.2-1-2.9-1.2
	c-0.8-0.2-3.1-0.5-3.7-1.1C360.6,165.2,359.5,164.5,359.8,164.5z"/>
<linearGradient id="SVGID_21_" gradientUnits="userSpaceOnUse" x1="14939.7334" y1="-674.7595" x2="14939.7334" y2="-655.7973" gradientTransform="matrix(-1 0 0 1 15356.7051 871.5)">
	<stop  offset="1.596381e-02" style="stop-color:#932C12"/>
	<stop  offset="0.3364" style="stop-color:#D24427"/>
	<stop  offset="0.4077" style="stop-color:#CD5237"/>
	<stop  offset="0.5142" style="stop-color:#C56250"/>
	<stop  offset="0.5966" style="stop-color:#C16A5F"/>
	<stop  offset="0.6445" style="stop-color:#BF6D65"/>
	<stop  offset="0.9815" style="stop-color:#460012"/>
</linearGradient>
<path opacity="3.000000e-02" fill="url(#SVGID_21_)" enable-background="new    " d="M403.4,197.2c0.7,0.7,3.8,3.2,4.6,3.9
	c0.8,0.7,2.7,1.5,3.7,1.9c1.9,0.6,5.1,1.2,6.4,2.7c0.6,0.7,0.8,1.8,0.8,2.6c0,0.7,0.5,1.6,0.7,2.2c0.1,0.5,0.5,1.4,0.9,1.7
	c0.7,0.6,9.2,3.5,10.1,3.4v-2.9c0.5-1.4-1.3-2.5-2.4-4.1c-1.2-1.8-1.8-3.7-2.2-4.1c-0.5-0.5-2.2-0.6-2.9-0.9
	c-1.6-0.8-3.3-3.3-4.8-4.3c-0.6-0.3-2.8-0.7-3.4-0.9C412.7,197.7,401.9,195.9,403.4,197.2z"/>
<linearGradient id="SVGID_22_" gradientUnits="userSpaceOnUse" x1="15053.0176" y1="-678.9606" x2="15053.0176" y2="-671.1523" gradientTransform="matrix(-1 0 0 1 15356.7051 871.5)">
	<stop  offset="1.596381e-02" style="stop-color:#932C12"/>
	<stop  offset="0.3364" style="stop-color:#D24427"/>
	<stop  offset="0.4077" style="stop-color:#CD5237"/>
	<stop  offset="0.5142" style="stop-color:#C56250"/>
	<stop  offset="0.5966" style="stop-color:#C16A5F"/>
	<stop  offset="0.6445" style="stop-color:#BF6D65"/>
	<stop  offset="0.9815" style="stop-color:#460012"/>
</linearGradient>
<path opacity="3.000000e-02" fill="url(#SVGID_22_)" enable-background="new    " d="M298,192.6c-1.6,0.4,5.8,4,7.1,5
	c1.1,0.8,4.5,2.8,4.5,2.8v-5.2c0,0-4.3-1.6-5.8-1.8C302.9,193.2,299.2,192.3,298,192.6z"/>
<linearGradient id="SVGID_23_" gradientUnits="userSpaceOnUse" x1="15115.0518" y1="-699.9858" x2="15128.9434" y2="-699.9858" gradientTransform="matrix(-1 0 0 1 15356.7051 871.5)">
	<stop  offset="1.596381e-02" style="stop-color:#932C12"/>
	<stop  offset="0.3364" style="stop-color:#D24427"/>
	<stop  offset="0.4077" style="stop-color:#CD5237"/>
	<stop  offset="0.5142" style="stop-color:#C56250"/>
	<stop  offset="0.5966" style="stop-color:#C16A5F"/>
	<stop  offset="0.6445" style="stop-color:#BF6D65"/>
	<stop  offset="0.9815" style="stop-color:#460012"/>
</linearGradient>
<path opacity="5.000000e-02" fill="url(#SVGID_23_)" enable-background="new    " d="M241.5,166.2c0.4,0.1-0.1,1.6-0.2,2
	c-0.1,0.9-0.8,1.9-1.6,2.5c-2,1.7-7,3.8-9.4,5c-0.6,0.3-1.9,1.5-2.5,1.1c-0.2-0.1-0.1-0.8,0-1c0.4-0.7,2-1.4,2.6-1.9
	c1.3-0.8,4-2.1,5.2-3.1c0.6-0.5,1.6-1.8,2.2-2.3C238.8,167.8,240.5,165.8,241.5,166.2z"/>
<linearGradient id="SVGID_24_" gradientUnits="userSpaceOnUse" x1="15100.8379" y1="-702.05" x2="15104.6836" y2="-702.05" gradientTransform="matrix(-1 0 0 1 15356.7051 871.5)">
	<stop  offset="1.596381e-02" style="stop-color:#932C12"/>
	<stop  offset="0.3364" style="stop-color:#D24427"/>
	<stop  offset="0.4077" style="stop-color:#CD5237"/>
	<stop  offset="0.5142" style="stop-color:#C56250"/>
	<stop  offset="0.5966" style="stop-color:#C16A5F"/>
	<stop  offset="0.6445" style="stop-color:#BF6D65"/>
	<stop  offset="0.9815" style="stop-color:#460012"/>
</linearGradient>
<path opacity="5.000000e-02" fill="url(#SVGID_24_)" enable-background="new    " d="M253.4,166.2c0.3-0.2,0.6,0.6,1,0.7
	c0.3,0,0.6-0.1,0.8,0c0.2,0.2,0.4,0.7,0.5,1s0.2,0.9,0,1.1c-0.2,0.3-0.8,0.4-1.1,0.5c-0.2,0-0.5,0.2-0.7,0.3
	c-0.3,0.2-0.5,0.9-0.6,1.3c-0.1,0.2-0.1,0.8-0.3,0.9c-0.2,0.1-0.9,0.9-1.1,0.7c-0.2-0.2,0.2-1.3,0.2-1.6c0-0.6-0.1-1.7,0-2.2
	C252.3,168.4,252.9,166.5,253.4,166.2z"/>
<linearGradient id="SVGID_25_" gradientUnits="userSpaceOnUse" x1="15060.5625" y1="-704.2304" x2="15070.792" y2="-714.4604" gradientTransform="matrix(-1 0 0 1 15356.7051 871.5)">
	<stop  offset="1.596381e-02" style="stop-color:#932C12"/>
	<stop  offset="0.3364" style="stop-color:#D24427"/>
	<stop  offset="0.4077" style="stop-color:#CD5237"/>
	<stop  offset="0.5142" style="stop-color:#C56250"/>
	<stop  offset="0.5966" style="stop-color:#C16A5F"/>
	<stop  offset="0.6445" style="stop-color:#BF6D65"/>
	<stop  offset="0.9815" style="stop-color:#460012"/>
</linearGradient>
<path opacity="3.000000e-02" fill="url(#SVGID_25_)" enable-background="new    " d="M307.6,146.2c0,0-1.2,0.9-1.8,1.1
	c-1.6,0.7-3.5,2.6-5.2,2.8c-1.1,0.2-1.3,0.6-2.4,2c-0.3,0.4-2.6,2.1-2.7,1c0-1.4,0.5-2.6-0.5-1.6c-0.6,0.6-1.5,2.9,0.5,3.8
	c0.9,0.4,4.2,0.3,4.9,0.9c0.5,0.4,1.2,1.7,1.1,3.2c-0.1,1-1.9-1.8-2.9-2c-0.7-0.1-3.1-0.5-3.8-0.4c-0.7,0.1-2.5,0.9-3.2,1.5
	c-0.5,0.5,3,0.5,3.5,0.9c0.7,0.6,0.7,1,0.9,1.9c0.3,1-0.9,1.5-1.4,4.7c-0.2,0.9-0.2,2.6-1.1,3.6c-0.7,0.8-0.8-4-1.3-3.1
	c-0.8,1.5-2.6,5.8-3.7,6.5c-0.6,0.4-2.2-0.3-2.9,0c-0.9,0.3-2,1.9-2.7,2.5c-1.4,1.2-6.6,6.5-5.9,4.8c0.8-1.9,1.8-2.6,2.1-3.7
	c0.6-2.2-0.4-6.8,0-9c0.3-1.4,1.1-4.2,1.8-5.4c0.5-0.8,1.7-2.5,2.6-2.9c0.8-0.4,2.7-0.5,3.5-0.9c1.1-0.7,3.1-4.7,3.8-5.8
	c1.1-1.5,2.5-3.7,3.6-4.2c0.5-0.2,2.4,1,3.1,0.9c1-0.2,2.8-1.1,3.6-1.7c1.3-1,2.5-2.9,3-2.9C304.6,145,307,145.6,307.6,146.2z"/>
<linearGradient id="SVGID_26_" gradientUnits="userSpaceOnUse" x1="15026.8477" y1="-689.6014" x2="15064.3848" y2="-711.2738" gradientTransform="matrix(-1 0 0 1 15356.7051 871.5)">
	<stop  offset="1.596381e-02" style="stop-color:#932C12"/>
	<stop  offset="0.3364" style="stop-color:#D24427"/>
	<stop  offset="0.4077" style="stop-color:#CD5237"/>
	<stop  offset="0.5142" style="stop-color:#C56250"/>
	<stop  offset="0.5966" style="stop-color:#C16A5F"/>
	<stop  offset="0.6445" style="stop-color:#BF6D65"/>
	<stop  offset="0.9815" style="stop-color:#460012"/>
</linearGradient>
<path opacity="3.000000e-02" fill="url(#SVGID_26_)" enable-background="new    " d="M344.3,156.6c-1.6-0.4-5.3-0.5-6.4-0.1
	c-2.2,0.8-5.8,3.7-7.8,4.8c-1.3,0.7-4.4,1.5-5.5,2.5c-1,0.8-1.6,3.6-2.7,4.2c-0.7,0.4-1.7,0-2.6,0.1c-1.3,0.2-4.8,0.7-6.1,1.1
	c-1.9,0.5-5.9,1.2-7.4,2.4c-0.8,0.7-1.4,2.9-2.2,3.6c-0.8,0.7-3.2,1.2-4.1,1.8c-1.3,0.9-2.8,3.8-4.2,4.5c-1.7,0.9-5.7,0.7-7.6,1.1
	c-1.2,0.2-6.4,1.4-9.8,2.8c-1.1,0.5,7.1-0.2,9.3,0c1.3,0.2,5.5,1.2,6.8,1.1c1.3,0,1.5-1.7,2.8-1.6c0.6,0.1,1.6,0,2.2,0.2
	c0.7,0.1,2.1,0.1,2.7-0.2c0.5-0.3,2.9-0.2,2.7-0.7c-0.2-0.5-4.2-0.1-3.8-0.4c2.2-1.5,5.6-1.6,7.3-2.5c2.2-1.1,6-4.1,7.9-5.5
	c1.3-0.9,3.5-3.4,5.1-3.7c0.5-0.1,0.8,0.4,1.4,0.4c3.2-0.1,6.6-1.8,6.8-3.6c0.1-0.8-3.5-1.1-2.9-1.5c1.4-0.8,2.2-2.7,2.9-3.2
	c1.6-1.2,5.7-2.1,7.1-3.4c0.7-0.7,0.3-2,1.2-2.5c0.6-0.3,2.9-0.5,3.5-0.8C341.5,157.5,345.1,156.8,344.3,156.6z"/>
<linearGradient id="SVGID_27_" gradientUnits="userSpaceOnUse" x1="-569.6782" y1="9829.7676" x2="-550.1193" y2="9829.7676" gradientTransform="matrix(2.307170e-03 1 -1 2.307170e-03 10201.0117 733.6564)">
	<stop  offset="1.596381e-02" style="stop-color:#932C12"/>
	<stop  offset="0.3364" style="stop-color:#D24427"/>
	<stop  offset="0.4077" style="stop-color:#CD5237"/>
	<stop  offset="0.5142" style="stop-color:#C56250"/>
	<stop  offset="0.5966" style="stop-color:#C16A5F"/>
	<stop  offset="0.6445" style="stop-color:#BF6D65"/>
	<stop  offset="0.9815" style="stop-color:#460012"/>
</linearGradient>
<path opacity="3.000000e-02" fill="url(#SVGID_27_)" enable-background="new    " d="M375.1,193.1c-0.5,0.5-1.2,2-1,2.6
	c0.1,0.4,1,0.8,1.4,0.8c0.3,0,0.8-0.5,1-0.4c0.2,0.2,0.2,0.9,0,1.2c-0.5,0.7-2.3,1.4-3.2,1.5c-0.8,0.1-2.4-0.3-3.2-0.3
	c-1.1-0.1-3.5-0.8-4.6-0.4c-0.4,0.2-1.2,0.9-1.1,1.3c0.1,0.5,1.6,0.6,1.8,1c0.3,0.6,0,2,0.1,2.7c0.1,0.6,1,1.9,0.7,2.5
	c-0.2,0.4-1.4,0.7-1.8,0.6c-0.4-0.1-0.8-1-1.2-1.3c-0.4-0.3-1.1-1.1-1.6-1.1c-0.4,0-1.2,0.6-1.6,0.7c-0.3,0.1-1.2,0.3-1.2,0.3
	l0.2-11.7c0,0,1.6,0.8,2.2,0.7c0.6-0.2,1.2-1.7,1.6-2.2c0.5-0.6,1.4-1.7,2-2.2c0.7-0.6,2.3-1.5,3.1-1.8c1.5-0.5,4.6-1.1,6.2-1
	c0.9,0,2.6,0.3,3.4,0.7c0.6,0.2,2.1,0.8,2,1.4c0,0.4-1.1,0.7-1.6,0.7c-0.8,0.1-2.5-0.7-3.3-0.7c-1.5,0.1-4.4,1.1-5.5,2
	c-0.4,0.4-1.1,1.5-1,2c0,0.3,0.5,0.8,0.8,0.8c0.4,0,1-0.8,1.4-0.9c0.3,0,0.9,0.4,1.2,0.3c0.5-0.1,1.2-0.9,1.7-1
	c0.6-0.1,2.4-0.4,2.5,0.3C376.7,192.8,375.4,192.8,375.1,193.1z"/>
<linearGradient id="SVGID_28_" gradientUnits="userSpaceOnUse" x1="-147.3942" y1="-755.7914" x2="-133.4719" y2="-755.7914" gradientTransform="matrix(1 0 0 1 685 871.5)">
	<stop  offset="1.596381e-02" style="stop-color:#932C12"/>
	<stop  offset="0.3364" style="stop-color:#D24427"/>
	<stop  offset="0.4077" style="stop-color:#CD5237"/>
	<stop  offset="0.5142" style="stop-color:#C56250"/>
	<stop  offset="0.5966" style="stop-color:#C16A5F"/>
	<stop  offset="0.6445" style="stop-color:#BF6D65"/>
	<stop  offset="0.9815" style="stop-color:#460012"/>
</linearGradient>
<path opacity="5.000000e-02" fill="url(#SVGID_28_)" enable-background="new    " d="M540.5,113c-0.3,0.2-0.3,1-0.6,1.2
	c-0.4,0.2-1.2-1-2.1-1.4c-0.5-0.2,0.1,3,0.3,3.5c0.2,0.6,1.2,1.6,1.8,1.9c0.8,0.5,2.8,0.6,3.7,0.9c0.6,0.2,1.6,1,2.2,1.1
	c1.1,0.3,4.2,0.3,5.7,0c0.7-0.1-2.9-1.3-3.5-1.6c-0.5-0.3-1.8-0.5-2.2-0.9c-0.2-0.2-0.4-0.8-0.3-1.1c0.2-0.5,1.4-0.8,1.7-1.2
	c0.3-0.3,0.6-1.1,0.7-1.5c0.1-0.7,0.1-2.3-0.4-2.8c-0.4-0.3-0.9,0.1-1.3,0.3c-0.4,0.2-0.9,0.8-1.3,1.1c-0.3,0.2-1.6,0.8-1.9,0.8
	C542.3,113.4,541,112.7,540.5,113z"/>
<linearGradient id="SVGID_29_" gradientUnits="userSpaceOnUse" x1="-161.0779" y1="-802.1469" x2="-145.0981" y2="-802.1469" gradientTransform="matrix(1 0 0 1 685 871.5)">
	<stop  offset="1.596381e-02" style="stop-color:#932C12"/>
	<stop  offset="0.3364" style="stop-color:#D24427"/>
	<stop  offset="0.4077" style="stop-color:#CD5237"/>
	<stop  offset="0.5142" style="stop-color:#C56250"/>
	<stop  offset="0.5966" style="stop-color:#C16A5F"/>
	<stop  offset="0.6445" style="stop-color:#BF6D65"/>
	<stop  offset="0.9815" style="stop-color:#460012"/>
</linearGradient>
<path opacity="5.000000e-02" fill="url(#SVGID_29_)" enable-background="new    " d="M526,63.7c0.9,0,2.6,0.6,3.2,1.2
	c0.7,0.8,1.6,2.2,2.1,3.2c0.6,1.2,2.9,3.3,3.9,4s2.8,1.1,4.6,2.6c0.8,0.7-2.4,0.4-3.3,0c-0.9-0.4-2.7-1-3.5-1.5
	c-2.2-1.2-6.9-3.8-8.3-5.9c-0.5-0.7-0.9-2.5-0.7-3.3C524.2,63.3,525.2,63.7,526,63.7z"/>
<linearGradient id="SVGID_30_" gradientUnits="userSpaceOnUse" x1="-28.1915" y1="-811.2139" x2="-5.5061" y2="-811.2139" gradientTransform="matrix(1 0 0 1 685 871.5)">
	<stop  offset="1.596381e-02" style="stop-color:#932C12"/>
	<stop  offset="0.3364" style="stop-color:#D24427"/>
	<stop  offset="0.4077" style="stop-color:#CD5237"/>
	<stop  offset="0.5142" style="stop-color:#C56250"/>
	<stop  offset="0.5966" style="stop-color:#C16A5F"/>
	<stop  offset="0.6445" style="stop-color:#BF6D65"/>
	<stop  offset="0.9815" style="stop-color:#460012"/>
</linearGradient>
<path opacity="3.000000e-02" fill="url(#SVGID_30_)" enable-background="new    " d="M656.9,56.8c0.3-0.5,1.8-0.4,2.4-0.5
	c0.9-0.1,2.7,0.3,3.5,0c1.1-0.4,2.6-1,3.2-2.1c0.3-0.6,3.1-0.1,3.7,0.1c1.5,0.7,2.1,0.7,9.8,6.5c0.5,0.4-0.6,1.8-1,2.3
	c-0.9,1.2-1.7,1.8-3.1,2.3c-2.3,0.9-6,2.1-7.8,0.4c-0.8-0.7-5.7-2.1-6.2-3.1c-0.9-1.7-2.8-2.6-3.9-4.2
	C657.1,58.2,656.6,57.1,656.9,56.8z"/>
<linearGradient id="SVGID_31_" gradientUnits="userSpaceOnUse" x1="-25.4" y1="-819.6" x2="20.6" y2="-819.6" gradientTransform="matrix(1 0 0 1 685 871.5)">
	<stop  offset="1.596381e-02" style="stop-color:#932C12"/>
	<stop  offset="0.3364" style="stop-color:#D24427"/>
	<stop  offset="0.4077" style="stop-color:#CD5237"/>
	<stop  offset="0.5142" style="stop-color:#C56250"/>
	<stop  offset="0.5966" style="stop-color:#C16A5F"/>
	<stop  offset="0.6445" style="stop-color:#BF6D65"/>
	<stop  offset="0.9815" style="stop-color:#460012"/>
</linearGradient>
<polygon opacity="5.000000e-02" fill="url(#SVGID_31_)" enable-background="new    " points="659.6,43.5 663.9,42.9 670.2,39.3 
	672.4,38.6 676.9,41.1 686.9,46.9 687.4,54.4 695.5,55.3 696.6,54.5 701.9,56.9 704.2,58.7 703.1,60.5 703.5,62 705.6,64.1 
	704.7,65.2 700.7,65.2 695.5,64.1 686.2,57.4 681.2,55.9 682.2,53.5 667.1,50.9 668.5,47.2 668.8,45.1 666.5,44.3 662,45.4 
	659.6,44.8 "/>
<linearGradient id="SVGID_32_" gradientUnits="userSpaceOnUse" x1="71.83" y1="-737.1028" x2="75.6962" y2="-737.1028" gradientTransform="matrix(1 0 0 1 685 871.5)">
	<stop  offset="1.596381e-02" style="stop-color:#932C12"/>
	<stop  offset="0.3364" style="stop-color:#D24427"/>
	<stop  offset="0.4077" style="stop-color:#CD5237"/>
	<stop  offset="0.5142" style="stop-color:#C56250"/>
	<stop  offset="0.5966" style="stop-color:#C16A5F"/>
	<stop  offset="0.6445" style="stop-color:#BF6D65"/>
	<stop  offset="0.9815" style="stop-color:#460012"/>
</linearGradient>
<path opacity="5.000000e-02" fill="url(#SVGID_32_)" enable-background="new    " d="M757.1,131.1c-0.6-0.2-0.1,1.9,0,2.6
	c0.1,0.6,0.3,1.8,0.7,2.2c0.3,0.4,1.4,0.5,1.8,0.8c0.3,0.2,0.6,1.1,0.9,1c0.5-0.2,0.1-1.7,0-2.2s-0.4-1.6-0.7-2.1
	C759.3,132.7,758.1,131.4,757.1,131.1z"/>
<linearGradient id="SVGID_33_" gradientUnits="userSpaceOnUse" x1="58.3395" y1="-755.8135" x2="64.8013" y2="-755.8135" gradientTransform="matrix(1 0 0 1 685 871.5)">
	<stop  offset="1.596381e-02" style="stop-color:#932C12"/>
	<stop  offset="0.3364" style="stop-color:#D24427"/>
	<stop  offset="0.4077" style="stop-color:#CD5237"/>
	<stop  offset="0.5142" style="stop-color:#C56250"/>
	<stop  offset="0.5966" style="stop-color:#C16A5F"/>
	<stop  offset="0.6445" style="stop-color:#BF6D65"/>
	<stop  offset="0.9815" style="stop-color:#460012"/>
</linearGradient>
<path opacity="5.000000e-02" fill="url(#SVGID_33_)" enable-background="new    " d="M743.6,113.7c-0.5,0.5-0.3,2.1,0,2.8
	c0.2,0.4,1.2,0.9,1.6,1.2c0.3,0.2,2.2,0.2,2.4-0.2c0.3-0.7-0.7-1,0-1.3c0.3-0.1,1.8,0.5,2.1,0.4c0.4-0.1,0-0.9,0-1.3
	c0-0.5-0.8-1.4-1.3-1.6c-0.4-0.1-1.4,0.3-1.9,0.3c-0.4,0-0.8-0.2-1.2-0.3C744.9,113.6,743.9,113.4,743.6,113.7z"/>
<linearGradient id="SVGID_34_" gradientUnits="userSpaceOnUse" x1="14830.1055" y1="-819.5097" x2="14851.3916" y2="-819.5097" gradientTransform="matrix(-1 0 0 1 15356.7051 871.5)">
	<stop  offset="1.596381e-02" style="stop-color:#932C12"/>
	<stop  offset="0.3364" style="stop-color:#D24427"/>
	<stop  offset="0.4077" style="stop-color:#CD5237"/>
	<stop  offset="0.5142" style="stop-color:#C56250"/>
	<stop  offset="0.5966" style="stop-color:#C16A5F"/>
	<stop  offset="0.6445" style="stop-color:#BF6D65"/>
	<stop  offset="0.9815" style="stop-color:#460012"/>
</linearGradient>
<path opacity="3.000000e-02" fill="url(#SVGID_34_)" enable-background="new    " d="M526.6,46.2c0,0-3.4-2.9-4-4.3
	c-0.3-0.7,0.3-2.3,0-3c-0.3-0.6-1.5-1.5-2.1-1.6c-0.5-0.1-1.6,0.2-1.7,0.6c-0.1,0.4,0.7,1,0.8,1.3c0.3,0.9,0.3,2.9,0.5,3.8
	c0.3,1.1,1.3,3,1.5,4.1c0.1,0.3,0.3,1.2,0,1.4c-0.9,0.4-2.5-1.7-3.2-2.3c-0.5-0.4-1.3-1.3-1.7-1.6c-1.2-0.8-3.7-2.3-5-2.7
	c-0.9-0.2-2.7-0.4-3.6-0.2c-0.8,0.2-2.7,0.9-2.7,1.7c0,0.7,1.7,1.1,2.3,1.2c0.8,0.2,2.6-0.3,3.3,0c0.8,0.3,2.3,1.5,2.5,2.3
	c0.1,0.5-0.3,1.6-0.7,2.1c-0.5,0.6-2.4,0.6-2.6,1.3s1.1,1.9,1.5,2.5c0.8,1.2,2.4,3.5,3.3,4.6c1.3,1.9,3.4,6.4,5.4,7.7
	c1.3,0.9,6.2,1.6,6.2,1.6L526.6,46.2z"/>
<linearGradient id="SVGID_35_" gradientUnits="userSpaceOnUse" x1="14824.8008" y1="-758.0469" x2="14840.7803" y2="-758.0469" gradientTransform="matrix(-1 0 0 1 15356.7051 871.5)">
	<stop  offset="1.596381e-02" style="stop-color:#932C12"/>
	<stop  offset="0.3364" style="stop-color:#D24427"/>
	<stop  offset="0.4077" style="stop-color:#CD5237"/>
	<stop  offset="0.5142" style="stop-color:#C56250"/>
	<stop  offset="0.5966" style="stop-color:#C16A5F"/>
	<stop  offset="0.6445" style="stop-color:#BF6D65"/>
	<stop  offset="0.9815" style="stop-color:#460012"/>
</linearGradient>
<path opacity="5.000000e-02" fill="url(#SVGID_35_)" enable-background="new    " d="M529.9,107.8c-0.9,0-2.6,0.6-3.2,1.2
	c-0.7,0.8-1.6,2.2-2.1,3.2c-0.6,1.2-2.9,3.3-3.9,4s-2.8,1.1-4.6,2.6c-0.8,0.7,2.4,0.4,3.3,0c0.9-0.4,2.7-1,3.5-1.5
	c2.2-1.2,6.9-3.8,8.3-5.9c0.5-0.7,0.9-2.5,0.7-3.3C531.6,107.4,530.7,107.8,529.9,107.8z"/>
<linearGradient id="SVGID_36_" gradientUnits="userSpaceOnUse" x1="14683.0244" y1="-746.3989" x2="14716.7109" y2="-746.3989" gradientTransform="matrix(-1 0 0 1 15356.7051 871.5)">
	<stop  offset="1.596381e-02" style="stop-color:#932C12"/>
	<stop  offset="0.3364" style="stop-color:#D24427"/>
	<stop  offset="0.4077" style="stop-color:#CD5237"/>
	<stop  offset="0.5142" style="stop-color:#C56250"/>
	<stop  offset="0.5966" style="stop-color:#C16A5F"/>
	<stop  offset="0.6445" style="stop-color:#BF6D65"/>
	<stop  offset="0.9815" style="stop-color:#460012"/>
</linearGradient>
<path opacity="5.000000e-02" fill="url(#SVGID_36_)" enable-background="new    " d="M673.6,119.8c-0.5-0.8-2.6-0.6-3.5-0.7
	c-1.3-0.1-4,0.4-5.2,0c-1.7-0.6-3.9-1.5-4.7-3.1c-0.4-0.8-4.6-0.2-5.5,0.2c-2.3,1-3,1-14.5,9.6c-0.7,0.6,1,2.6,1.5,3.4
	c1.4,1.8,2.5,2.7,4.7,3.5c3.4,1.3,8.9,3.2,11.5,0.6c1.1-1.1,8.5-3.1,9.2-4.6c1.3-2.5,4.2-3.9,5.8-6.2
	C673.3,121.9,673.9,120.4,673.6,119.8z"/>
<linearGradient id="SVGID_37_" gradientUnits="userSpaceOnUse" x1="14790.2695" y1="-690.6413" x2="14914.9072" y2="-690.6413" gradientTransform="matrix(-1 0 0 1 15356.7051 871.5)">
	<stop  offset="1.596381e-02" style="stop-color:#932C12"/>
	<stop  offset="0.3364" style="stop-color:#D24427"/>
	<stop  offset="0.4077" style="stop-color:#CD5237"/>
	<stop  offset="0.5142" style="stop-color:#C56250"/>
	<stop  offset="0.5966" style="stop-color:#C16A5F"/>
	<stop  offset="0.6445" style="stop-color:#BF6D65"/>
	<stop  offset="0.9815" style="stop-color:#460012"/>
</linearGradient>
<path opacity="3.000000e-02" fill="url(#SVGID_37_)" enable-background="new    " d="M566.4,159.1c-1.6-1.9-12.5-0.8-14.9-1.6
	c-4-1.4-10.7-6.6-14.6-8.2c-1.2-0.5-3.7-1.6-5-1.5c-3,0.3-5.2,5.7-7.8,7.1c-5.8,3.3-22.3,6.3-25.8,12c-2.3,3.7,1.8,14.2-1.2,17.3
	c-3.2,3.4-13.6,4.5-18.1,3.3c-0.8-0.2-2.3-3.1-3.2-3.2c-3.3-0.3-9.4,3.8-12.2,5.5c-1.4,0.9-4.9,2.6-5.2,4.2c-0.2,1.2,2.3,3,2.5,4.2
	c0.1,0.9-2,3.5-2.4,4.2c-0.8,1.5-16.6,3.7-16.7,5.4c-0.1,0.8,3.1,3.8,3.8,4.2c2.1,1,12,2.1,14.3,1.9c3.1-0.3,18.3-3.3,21.1-4.6
	c6-2.7,12.8-15.5,18.7-18.4c2.7-1.3,10.3-0.6,11.6-3.4c0.6-1.4-3.8-5.1-2.3-5.5c11.6-3.1,24.2-0.9,34.9-6c2.1-1-2.6-6.5-3.2-8.7
	c-0.3-1.2-1.3-3.7-0.7-4.7c0.7-1.2,4-1.8,5.4-1.8c2.6-0.1,7.6,2.5,10.2,2.5c1.5,0,4.8-0.3,5.7-1.5
	C561.9,161.3,566.9,159.7,566.4,159.1z"/>
<linearGradient id="SVGID_38_" gradientUnits="userSpaceOnUse" x1="14730.7373" y1="-707.7271" x2="14806.0322" y2="-664.2558" gradientTransform="matrix(-1 0 0 1 15356.7051 871.5)">
	<stop  offset="1.596381e-02" style="stop-color:#932C12"/>
	<stop  offset="0.3364" style="stop-color:#D24427"/>
	<stop  offset="0.4077" style="stop-color:#CD5237"/>
	<stop  offset="0.5142" style="stop-color:#C56250"/>
	<stop  offset="0.5966" style="stop-color:#C16A5F"/>
	<stop  offset="0.6445" style="stop-color:#BF6D65"/>
	<stop  offset="0.9815" style="stop-color:#460012"/>
</linearGradient>
<path opacity="3.000000e-02" fill="url(#SVGID_38_)" enable-background="new    " d="M606.9,159.9c2.8-0.6,8.8,5.9,11.5,6.9
	c1.9,0.7,6.5-0.7,8.1,0.5c0.5,0.4,0.9,1.9,0.8,2.6c-0.1,0.4-1,1.1-0.9,1.5c0.2,0.8,1.9,1.6,2.6,2c0.7,0.4,2.6,0.5,3.2,1.1
	c0.4,0.4,0.8,1.4,1,1.9c0.4,0.8,1.8,2.2,1.7,3.1c-0.2,0.9-0.7,3-1.3,3.7c-0.7,0.7-0.6,6.6-2.5,4.4c-1.2-1.4-3.2-5.7-3.9-6.6
	c-0.7-0.8-1.9-2.7-3-3c-0.5-0.1-1.5,0.6-2.1,0.6c-1.3,0.1-4-0.3-5.3-0.6c-0.4-0.1-1.3-1.1-1.7-0.8c-0.5,0.4,0.7,1.8,1,2.3
	c0.4,0.6,1.5,1.4,1.8,2.1c0.5,1,7.1,9.5,7.1,9.5s-11.4,0-14.1,0c-1.1,0-4.2,0.2-4.2,0.2s-4.3-2.5-5.1-2.8c-1-0.3-3.6-1.3-4.6-1.2
	c-1.7,0.2-1.9-1.2-3.5-1.8c-0.4-0.2-1.1-0.9-1.2-1.3c-0.1-0.7,1.1-1.8,1.5-2.3s1.7-1.1,1.7-1.7c0-2-3.8-4.8-5.7-5.7
	c-0.3-0.1-1-0.2-1.3-0.1c-1.3,0.5-2.7,3.1-3.7,4c-1.5,1.2-4.7,3.4-6.4,4.1c-4.5,1.8-15.6,1.2-15.6,1.2l-12.6,1.3l-10.5,3
	c0,0,7.3-6.8,10.3-8.1c1.2-0.5,2.1-0.5,5.8-1.2c3.3-0.6,7.7,1.6,10.9,0.4c2.1-0.8,6-2.9,8.1-3.5c0.7-0.2,2.2,0.2,2.7-0.3
	c0.4-0.4,0.2-1.6,0-2.1c-0.4-1.1-5.5-0.8-5.4-1.9c0-0.5,3.1-1.6,3.6-1.7c1.1-0.2,3.6,0,4.7,0.1c1.3,0.1,3.9-0.4,5.1-0.9
	c1.1-0.5,3.5-1.8,4-3c0.3-0.7-0.2-2.4-0.5-3.1c-0.3-0.6-1.3-1.6-1.8-2.1c-0.3-0.3-1.3-0.5-1.3-0.9c0.1-0.5,1.5-0.7,2.1-0.6
	c0.9,0.1,2.8,0.9,3.5,1.5c0.5,0.4,1.2,1.7,1.4,2.3c0.2,0.7-0.3,2.3,0.1,3c0.3,0.4,1.5,0.6,1.9,0.9c0.8,0.7,1.5,2.7,2.3,3.3
	c1.4,1.1,5.2,1.6,6.9,1.4c1.2-0.1,3.5-1.3,4.5-1.9c0.7-0.4,2.3-1.3,2.4-2.1c0.1-0.7-1-2-1.4-2.6c-0.4-0.4-1.5-1-1.7-1.5
	c-0.2-0.4-0.2-1.2-0.5-1.6C606.7,161,606.3,160,606.9,159.9z"/>
<linearGradient id="SVGID_39_" gradientUnits="userSpaceOnUse" x1="14797.7588" y1="-771.0988" x2="14802.7324" y2="-771.0988" gradientTransform="matrix(-1 0 0 1 15356.7051 871.5)">
	<stop  offset="1.596381e-02" style="stop-color:#932C12"/>
	<stop  offset="0.3364" style="stop-color:#D24427"/>
	<stop  offset="0.4077" style="stop-color:#CD5237"/>
	<stop  offset="0.5142" style="stop-color:#C56250"/>
	<stop  offset="0.5966" style="stop-color:#C16A5F"/>
	<stop  offset="0.6445" style="stop-color:#BF6D65"/>
	<stop  offset="0.9815" style="stop-color:#460012"/>
</linearGradient>
<path opacity="5.000000e-02" fill="url(#SVGID_39_)" enable-background="new    " d="M555.8,96.1c0.4-0.2,0.8,0.8,1.3,0.9
	c0.4,0.1,0.8-0.2,1.1,0s0.6,1,0.7,1.3c0.1,0.4,0.2,1.2,0,1.5s-1.1,0.6-1.4,0.7c-0.3,0.1-0.7,0.3-0.9,0.4c-0.4,0.3-0.6,1.1-0.7,1.7
	c-0.1,0.3-0.1,1-0.3,1.2s-1.2,1.1-1.4,0.9s0.3-1.7,0.3-2c0-0.7-0.1-2.2,0-2.9C554.4,99,555.1,96.5,555.8,96.1z"/>
<linearGradient id="SVGID_40_" gradientUnits="userSpaceOnUse" x1="14852.0127" y1="-790.3577" x2="14859.5332" y2="-790.3577" gradientTransform="matrix(-1 0 0 1 15356.7051 871.5)">
	<stop  offset="1.596381e-02" style="stop-color:#932C12"/>
	<stop  offset="0.3364" style="stop-color:#D24427"/>
	<stop  offset="0.4077" style="stop-color:#CD5237"/>
	<stop  offset="0.5142" style="stop-color:#C56250"/>
	<stop  offset="0.5966" style="stop-color:#C16A5F"/>
	<stop  offset="0.6445" style="stop-color:#BF6D65"/>
	<stop  offset="0.9815" style="stop-color:#460012"/>
</linearGradient>
<path opacity="5.000000e-02" fill="url(#SVGID_40_)" enable-background="new    " d="M498.9,77.4c0.4,0.1,1.2,0.4,1.7,0.4
	c0.4,0,0.8-0.3,1.2-0.4c0.3-0.1,1-0.1,1.3,0c0.5,0.2,1.2,1.2,1.4,1.8c0.1,0.3,0.1,1.1,0,1.4c-0.4,0.9-2,2.1-2.8,2.7
	c-0.3,0.2-2.1,1.7-2.5,1.7c-0.4-0.1-0.4-1.8-0.6-2.2c-0.5-0.6-1.2-1.8-1.3-2.6c-0.1-0.7,0-2.3,0.5-2.8
	C498,77.2,498.7,77.3,498.9,77.4z"/>
<linearGradient id="SVGID_41_" gradientUnits="userSpaceOnUse" x1="14816.9883" y1="-798.8028" x2="14820.8545" y2="-798.8028" gradientTransform="matrix(-1 0 0 1 15356.7051 871.5)">
	<stop  offset="1.596381e-02" style="stop-color:#932C12"/>
	<stop  offset="0.3364" style="stop-color:#D24427"/>
	<stop  offset="0.4077" style="stop-color:#CD5237"/>
	<stop  offset="0.5142" style="stop-color:#C56250"/>
	<stop  offset="0.5966" style="stop-color:#C16A5F"/>
	<stop  offset="0.6445" style="stop-color:#BF6D65"/>
	<stop  offset="0.9815" style="stop-color:#460012"/>
</linearGradient>
<path opacity="5.000000e-02" fill="url(#SVGID_41_)" enable-background="new    " d="M539.4,69.4c0.6-0.2,0.1,1.9,0,2.6
	c-0.1,0.6-0.3,1.8-0.7,2.2c-0.3,0.4-1.4,0.5-1.8,0.8c-0.3,0.2-0.6,1.1-0.9,1c-0.5-0.2-0.1-1.7,0-2.2s0.4-1.6,0.7-2.1
	C537.2,70.9,538.4,69.7,539.4,69.4z"/>
<linearGradient id="SVGID_42_" gradientUnits="userSpaceOnUse" x1="14805.6768" y1="-784.2136" x2="14812.1387" y2="-784.2136" gradientTransform="matrix(-1 0 0 1 15356.7051 871.5)">
	<stop  offset="1.596381e-02" style="stop-color:#932C12"/>
	<stop  offset="0.3364" style="stop-color:#D24427"/>
	<stop  offset="0.4077" style="stop-color:#CD5237"/>
	<stop  offset="0.5142" style="stop-color:#C56250"/>
	<stop  offset="0.5966" style="stop-color:#C16A5F"/>
	<stop  offset="0.6445" style="stop-color:#BF6D65"/>
	<stop  offset="0.9815" style="stop-color:#460012"/>
</linearGradient>
<path opacity="5.000000e-02" fill="url(#SVGID_42_)" enable-background="new    " d="M550.7,85.3c0.5,0.5,0.3,2.1,0,2.8
	c-0.2,0.4-1.2,0.9-1.6,1.2c-0.3,0.2-2.2,0.2-2.4-0.2c-0.3-0.7,0.7-1,0-1.3c-0.3-0.1-1.8,0.5-2.1,0.4c-0.4-0.1,0-0.9,0-1.3
	c0-0.5,0.8-1.4,1.3-1.6c0.4-0.1,1.4,0.3,1.9,0.3c0.4,0,0.8-0.2,1.2-0.3C549.5,85.2,550.4,85,550.7,85.3z"/>
<linearGradient id="SVGID_43_" gradientUnits="userSpaceOnUse" x1="14620.0713" y1="-712.1267" x2="14620.0713" y2="-685.9253" gradientTransform="matrix(-1 0 0 1 15356.7051 871.5)">
	<stop  offset="1.596381e-02" style="stop-color:#932C12"/>
	<stop  offset="0.3364" style="stop-color:#D24427"/>
	<stop  offset="0.4077" style="stop-color:#CD5237"/>
	<stop  offset="0.5142" style="stop-color:#C56250"/>
	<stop  offset="0.5966" style="stop-color:#C16A5F"/>
	<stop  offset="0.6445" style="stop-color:#BF6D65"/>
	<stop  offset="0.9815" style="stop-color:#460012"/>
</linearGradient>
<path opacity="3.000000e-02" fill="url(#SVGID_43_)" enable-background="new    " d="M712.2,159.4c3,0,5.2,0,7.4,0.2
	c1.6,0.2,8,0.5,9.5,1.1c1.4,0.6,4.1,2,5.3,2.9c1.6,1.1,4.5,3.8,6.2,4.9c1.6,1,4.9,2.9,6.7,3.4c1.9,0.6,6.1-0.2,7.7,0.9
	c0.7,0.5,1.8,2.1,1.5,2.9c-0.3,1-2.9,1.2-3.6,1.9c-0.4,0.4-1.3,1.3-1.2,1.9c0.2,1.1,7.3,3.2,8.4,3.6c0.2,0.1,0.9-0.2,1,0
	c0.3,0.7-1.2,2-1.9,2.4c-0.8,0.4-6.4,0.1-7.2,0.1c-1.1,0-4.3-0.7-5.3-1c-1.6-0.5-4.1-2.8-5.3-4c-0.8-0.7-2.4-2.3-2.9-3.3
	c-0.4-0.9-0.2-3-0.7-3.8c-0.4-0.6-1.8-1.3-2.4-1.8c-1.8-1.2-5.5-3.6-7.3-4.8c-1.5-0.9-4.5-2.6-6-3.4c-0.9-0.5-2.8-1.3-3.8-1.6
	s-4-0.7-4.8-1.4C713.2,160.3,711.8,159.4,712.2,159.4z"/>
<linearGradient id="SVGID_44_" gradientUnits="userSpaceOnUse" x1="14556.3867" y1="-710.3594" x2="14556.3867" y2="-685.8369" gradientTransform="matrix(-1 0 0 1 15356.7051 871.5)">
	<stop  offset="1.596381e-02" style="stop-color:#932C12"/>
	<stop  offset="0.3364" style="stop-color:#D24427"/>
	<stop  offset="0.4077" style="stop-color:#CD5237"/>
	<stop  offset="0.5142" style="stop-color:#C56250"/>
	<stop  offset="0.5966" style="stop-color:#C16A5F"/>
	<stop  offset="0.6445" style="stop-color:#BF6D65"/>
	<stop  offset="0.9815" style="stop-color:#460012"/>
</linearGradient>
<path opacity="3.000000e-02" fill="url(#SVGID_44_)" enable-background="new    " d="M782.8,161.7c1,0.9,4.9,4.2,5.9,5
	c1,0.9,3.5,2,4.8,2.4c2.4,0.8,6.6,1.5,8.2,3.5c0.7,0.9,1,2.3,1,3.4c0,0.9,0.6,2,0.9,2.9c0.2,0.6,0.7,1.8,1.2,2.2
	c0.9,0.7,11.9,4.5,13.1,4.4v-3.8c0.6-1.9-1.7-3.2-3.1-5.3c-1.5-2.3-2.3-4.8-2.8-5.3c-0.7-0.7-2.9-0.8-3.8-1.2
	c-2.1-1-4.3-4.3-6.2-5.5c-0.7-0.4-3.6-0.9-4.4-1.2C794.8,162.4,781,160,782.8,161.7z"/>
<linearGradient id="SVGID_45_" gradientUnits="userSpaceOnUse" x1="14852.0088" y1="-741.1703" x2="14869.9736" y2="-741.1703" gradientTransform="matrix(-1 0 0 1 15356.7051 871.5)">
	<stop  offset="1.596381e-02" style="stop-color:#932C12"/>
	<stop  offset="0.3364" style="stop-color:#D24427"/>
	<stop  offset="0.4077" style="stop-color:#CD5237"/>
	<stop  offset="0.5142" style="stop-color:#C56250"/>
	<stop  offset="0.5966" style="stop-color:#C16A5F"/>
	<stop  offset="0.6445" style="stop-color:#BF6D65"/>
	<stop  offset="0.9815" style="stop-color:#460012"/>
</linearGradient>
<path opacity="5.000000e-02" fill="url(#SVGID_45_)" enable-background="new    " d="M504.5,123.4c0.5,0.2-0.1,2-0.2,2.6
	c-0.2,1.2-1.1,2.5-2,3.3c-2.6,2.2-9,5-12.1,6.5c-0.8,0.4-2.5,1.9-3.2,1.4c-0.3-0.2-0.2-1,0-1.3c0.5-0.9,2.5-1.9,3.4-2.4
	c1.6-1.1,5.2-2.7,6.7-4c0.8-0.6,2.1-2.3,2.9-3C501,125.6,503.2,123,504.5,123.4z"/>
<linearGradient id="SVGID_46_" gradientUnits="userSpaceOnUse" x1="14833.627" y1="-743.7988" x2="14838.5996" y2="-743.7988" gradientTransform="matrix(-1 0 0 1 15356.7051 871.5)">
	<stop  offset="1.596381e-02" style="stop-color:#932C12"/>
	<stop  offset="0.3364" style="stop-color:#D24427"/>
	<stop  offset="0.4077" style="stop-color:#CD5237"/>
	<stop  offset="0.5142" style="stop-color:#C56250"/>
	<stop  offset="0.5966" style="stop-color:#C16A5F"/>
	<stop  offset="0.6445" style="stop-color:#BF6D65"/>
	<stop  offset="0.9815" style="stop-color:#460012"/>
</linearGradient>
<path opacity="5.000000e-02" fill="url(#SVGID_46_)" enable-background="new    " d="M519.9,123.4c0.4-0.2,0.8,0.8,1.3,0.9
	c0.4,0.1,0.8-0.2,1.1,0s0.6,1,0.7,1.3c0.1,0.4,0.2,1.2,0,1.5s-1.1,0.6-1.4,0.7c-0.3,0.1-0.7,0.3-0.9,0.4c-0.4,0.3-0.6,1.1-0.7,1.7
	c-0.1,0.3-0.1,1-0.3,1.2s-1.2,1.1-1.4,0.9c-0.2-0.2,0.3-1.7,0.3-2c0-0.7-0.1-2.2,0-2.9C518.5,126.2,519.2,123.8,519.9,123.4z"/>
<linearGradient id="SVGID_47_" gradientUnits="userSpaceOnUse" x1="14646.2539" y1="-769.8054" x2="14659.4834" y2="-783.0349" gradientTransform="matrix(-1 0 0 1 15356.7051 871.5)">
	<stop  offset="1.596381e-02" style="stop-color:#932C12"/>
	<stop  offset="0.3364" style="stop-color:#D24427"/>
	<stop  offset="0.4077" style="stop-color:#CD5237"/>
	<stop  offset="0.5142" style="stop-color:#C56250"/>
	<stop  offset="0.5966" style="stop-color:#C16A5F"/>
	<stop  offset="0.6445" style="stop-color:#BF6D65"/>
	<stop  offset="0.9815" style="stop-color:#460012"/>
</linearGradient>
<path opacity="3.000000e-02" fill="url(#SVGID_47_)" enable-background="new    " d="M725.3,74.4c0,0-1.5,1.2-2.3,1.5
	c-2.1,0.9-4.5,3.3-6.7,3.6c-1.4,0.2-1.7,0.8-3.1,2.6c-0.3,0.5-3.4,2.7-3.5,1.4c-0.1-1.8,0.6-3.4-0.7-2.1c-0.8,0.8-2,3.7,0.7,4.9
	c1.2,0.5,5.4,0.3,6.3,1.2c0.6,0.5,1.5,2.1,1.4,4.1c-0.1,1.3-2.5-2.3-3.8-2.5c-0.9-0.2-4-0.7-4.9-0.6c-0.9,0.2-3.3,1.1-4.1,1.9
	c-0.6,0.6,3.9,0.7,4.6,1.2c0.9,0.7,0.8,1.3,1.2,2.5c0.4,1.3-1.1,1.9-1.8,6.1c-0.2,1.1-0.3,3.3-1.4,4.7c-0.9,1-1-5.2-1.6-4
	c-1,1.9-3.4,7.5-4.8,8.5c-0.8,0.5-2.9-0.3-3.8,0c-1.1,0.4-2.6,2.5-3.5,3.2c-1.9,1.6-8.5,8.5-7.6,6.2c1-2.4,2.3-3.4,2.7-4.7
	c0.7-2.8-0.5-8.8,0-11.6c0.3-1.8,1.4-5.4,2.3-7c0.6-1.1,2.2-3.2,3.4-3.8c1-0.5,3.5-0.7,4.5-1.2c1.5-0.9,4-6.1,5-7.5
	c1.4-1.9,3.2-4.8,4.6-5.4c0.6-0.3,3.1,1.3,4.1,1.1c1.3-0.2,3.7-1.4,4.7-2.2c1.7-1.3,3.3-3.8,3.9-3.8
	C721.5,72.8,724.5,73.6,725.3,74.4z"/>
<linearGradient id="SVGID_48_" gradientUnits="userSpaceOnUse" x1="14737.9756" y1="-738.697" x2="14786.5078" y2="-766.7173" gradientTransform="matrix(-1 0 0 1 15356.7051 871.5)">
	<stop  offset="1.596381e-02" style="stop-color:#932C12"/>
	<stop  offset="0.3364" style="stop-color:#D24427"/>
	<stop  offset="0.4077" style="stop-color:#CD5237"/>
	<stop  offset="0.5142" style="stop-color:#C56250"/>
	<stop  offset="0.5966" style="stop-color:#C16A5F"/>
	<stop  offset="0.6445" style="stop-color:#BF6D65"/>
	<stop  offset="0.9815" style="stop-color:#460012"/>
</linearGradient>
<path opacity="3.000000e-02" fill="url(#SVGID_48_)" enable-background="new    " d="M637.4,100.1c-2.1-0.5-6.8-0.7-8.3-0.1
	c-2.8,1-7.5,4.8-10.1,6.2c-1.7,0.9-5.7,1.9-7.2,3.2c-1.2,1.1-2.1,4.6-3.5,5.4c-1,0.6-2.2,0-3.3,0.2c-1.7,0.2-6.2,1-7.9,1.4
	c-2.4,0.6-7.6,1.6-9.6,3.1c-1.1,0.8-1.9,3.8-2.9,4.7c-1.1,0.9-4.1,1.5-5.3,2.3c-1.6,1.2-3.6,4.9-5.4,5.8c-2.2,1.2-7.4,1-9.8,1.4
	c-1.6,0.3-8.3,1.9-12.6,3.6c-1.4,0.6,9.2-0.3,12,0.1c1.6,0.2,7.1,1.5,8.8,1.5c1.7-0.1,2-2.2,3.7-2c0.8,0.1,2.1,0.1,2.8,0.2
	c0.9,0.2,2.7,0.2,3.5-0.3c0.6-0.4,3.8-0.2,3.5-0.9s-5.4-0.1-4.9-0.5c2.8-1.9,7.2-2.1,9.5-3.2c2.8-1.4,7.7-5.3,10.3-7.1
	c1.7-1.2,4.6-4.4,6.6-4.8c0.7-0.1,1.1,0.5,1.7,0.5c4.1-0.2,8.5-2.3,8.8-4.6c0.2-1-4.5-1.5-3.7-2c1.8-1.1,2.9-3.5,3.7-4.1
	c2-1.6,7.3-2.7,9.1-4.4c0.9-0.9,0.3-2.6,1.5-3.2c0.8-0.4,3.7-0.7,4.6-1C633.8,101.3,638.4,100.4,637.4,100.1z"/>
<linearGradient id="SVGID_49_" gradientUnits="userSpaceOnUse" x1="14717.8008" y1="-680.0469" x2="14733.7803" y2="-680.0469" gradientTransform="matrix(-1 0 0 1 15356.7051 871.5)">
	<stop  offset="1.596381e-02" style="stop-color:#932C12"/>
	<stop  offset="0.3364" style="stop-color:#D24427"/>
	<stop  offset="0.4077" style="stop-color:#CD5237"/>
	<stop  offset="0.5142" style="stop-color:#C56250"/>
	<stop  offset="0.5966" style="stop-color:#C16A5F"/>
	<stop  offset="0.6445" style="stop-color:#BF6D65"/>
	<stop  offset="0.9815" style="stop-color:#460012"/>
</linearGradient>
<path opacity="5.000000e-02" fill="url(#SVGID_49_)" enable-background="new    " d="M636.9,185.8c-0.9,0-2.6,0.6-3.2,1.2
	c-0.7,0.8-1.6,2.2-2.1,3.2c-0.6,1.2-2.9,3.3-3.9,4s-2.8,1.1-4.6,2.6c-0.8,0.7,2.4,0.4,3.3,0c0.9-0.4,2.7-1,3.5-1.5
	c2.2-1.2,6.9-3.8,8.3-5.9c0.5-0.7,0.9-2.5,0.7-3.3C638.6,185.4,637.7,185.8,636.9,185.8z"/>
<linearGradient id="SVGID_50_" gradientUnits="userSpaceOnUse" x1="14678.0654" y1="-690.5988" x2="14683.0391" y2="-690.5988" gradientTransform="matrix(-1 0 0 1 15356.7051 871.5)">
	<stop  offset="1.596381e-02" style="stop-color:#932C12"/>
	<stop  offset="0.3364" style="stop-color:#D24427"/>
	<stop  offset="0.4077" style="stop-color:#CD5237"/>
	<stop  offset="0.5142" style="stop-color:#C56250"/>
	<stop  offset="0.5966" style="stop-color:#C16A5F"/>
	<stop  offset="0.6445" style="stop-color:#BF6D65"/>
	<stop  offset="0.9815" style="stop-color:#460012"/>
</linearGradient>
<path opacity="5.000000e-02" fill="url(#SVGID_50_)" enable-background="new    " d="M675.5,176.6c0.4-0.2,0.8,0.8,1.3,0.9
	c0.4,0.1,0.8-0.2,1.1,0s0.6,1,0.7,1.3c0.1,0.4,0.2,1.2,0,1.5s-1.1,0.6-1.4,0.7c-0.3,0.1-0.7,0.3-0.9,0.4c-0.4,0.3-0.6,1.1-0.7,1.7
	c-0.1,0.3-0.1,1-0.3,1.2s-1.2,1.1-1.4,0.9c-0.2-0.2,0.3-1.7,0.3-2c0-0.7-0.1-2.2,0-2.9C674.1,179.5,674.8,177.1,675.5,176.6z"/>
<linearGradient id="SVGID_51_" gradientUnits="userSpaceOnUse" x1="14742.3789" y1="-720.8577" x2="14749.8994" y2="-720.8577" gradientTransform="matrix(-1 0 0 1 15356.7051 871.5)">
	<stop  offset="1.596381e-02" style="stop-color:#932C12"/>
	<stop  offset="0.3364" style="stop-color:#D24427"/>
	<stop  offset="0.4077" style="stop-color:#CD5237"/>
	<stop  offset="0.5142" style="stop-color:#C56250"/>
	<stop  offset="0.5966" style="stop-color:#C16A5F"/>
	<stop  offset="0.6445" style="stop-color:#BF6D65"/>
	<stop  offset="0.9815" style="stop-color:#460012"/>
</linearGradient>
<path opacity="5.000000e-02" fill="url(#SVGID_51_)" enable-background="new    " d="M608.6,146.9c0.4,0.1,1.2,0.4,1.7,0.4
	c0.4,0,0.8-0.3,1.2-0.4c0.3-0.1,1-0.1,1.3,0c0.5,0.2,1.2,1.2,1.4,1.8c0.1,0.3,0.1,1.1,0,1.4c-0.4,0.9-2,2.1-2.8,2.7
	c-0.3,0.2-2.1,1.7-2.5,1.7c-0.4-0.1-0.4-1.8-0.6-2.2c-0.5-0.6-1.2-1.8-1.3-2.6c-0.1-0.7,0-2.3,0.5-2.8
	C607.6,146.7,608.3,146.8,608.6,146.9z"/>
<linearGradient id="SVGID_52_" gradientUnits="userSpaceOnUse" x1="14709.9883" y1="-720.8028" x2="14713.8545" y2="-720.8028" gradientTransform="matrix(-1 0 0 1 15356.7051 871.5)">
	<stop  offset="1.596381e-02" style="stop-color:#932C12"/>
	<stop  offset="0.3364" style="stop-color:#D24427"/>
	<stop  offset="0.4077" style="stop-color:#CD5237"/>
	<stop  offset="0.5142" style="stop-color:#C56250"/>
	<stop  offset="0.5966" style="stop-color:#C16A5F"/>
	<stop  offset="0.6445" style="stop-color:#BF6D65"/>
	<stop  offset="0.9815" style="stop-color:#460012"/>
</linearGradient>
<path opacity="5.000000e-02" fill="url(#SVGID_52_)" enable-background="new    " d="M646.4,147.4c0.6-0.2,0.1,1.9,0,2.6
	c-0.1,0.6-0.3,1.8-0.7,2.2c-0.3,0.4-1.4,0.5-1.8,0.8c-0.3,0.2-0.6,1.1-0.9,1c-0.5-0.2-0.1-1.7,0-2.2s0.4-1.6,0.7-2.1
	C644.2,148.9,645.4,147.7,646.4,147.4z"/>
<linearGradient id="SVGID_53_" gradientUnits="userSpaceOnUse" x1="14698.6768" y1="-706.2136" x2="14705.1387" y2="-706.2136" gradientTransform="matrix(-1 0 0 1 15356.7051 871.5)">
	<stop  offset="1.596381e-02" style="stop-color:#932C12"/>
	<stop  offset="0.3364" style="stop-color:#D24427"/>
	<stop  offset="0.4077" style="stop-color:#CD5237"/>
	<stop  offset="0.5142" style="stop-color:#C56250"/>
	<stop  offset="0.5966" style="stop-color:#C16A5F"/>
	<stop  offset="0.6445" style="stop-color:#BF6D65"/>
	<stop  offset="0.9815" style="stop-color:#460012"/>
</linearGradient>
<path opacity="5.000000e-02" fill="url(#SVGID_53_)" enable-background="new    " d="M657.7,163.3c0.5,0.5,0.3,2.1,0,2.8
	c-0.2,0.4-1.2,0.9-1.6,1.2c-0.3,0.2-2.2,0.2-2.4-0.2c-0.3-0.7,0.7-1,0-1.3c-0.3-0.1-1.8,0.5-2.1,0.4c-0.4-0.1,0-0.9,0-1.3
	c0-0.5,0.8-1.4,1.3-1.6c0.4-0.1,1.4,0.3,1.9,0.3c0.4,0,0.8-0.2,1.2-0.3C656.5,163.2,657.4,163,657.7,163.3z"/>
<linearGradient id="SVGID_54_" gradientUnits="userSpaceOnUse" x1="14745.0088" y1="-663.1703" x2="14762.9736" y2="-663.1703" gradientTransform="matrix(-1 0 0 1 15356.7051 871.5)">
	<stop  offset="1.596381e-02" style="stop-color:#932C12"/>
	<stop  offset="0.3364" style="stop-color:#D24427"/>
	<stop  offset="0.4077" style="stop-color:#CD5237"/>
	<stop  offset="0.5142" style="stop-color:#C56250"/>
	<stop  offset="0.5966" style="stop-color:#C16A5F"/>
	<stop  offset="0.6445" style="stop-color:#BF6D65"/>
	<stop  offset="0.9815" style="stop-color:#460012"/>
</linearGradient>
<path opacity="5.000000e-02" fill="url(#SVGID_54_)" enable-background="new    " d="M611.5,201.4c0.5,0.2-0.1,2-0.2,2.6
	c-0.2,1.2-1.1,2.5-2,3.3c-2.6,2.2-9,5-12.1,6.5c-0.8,0.4-2.5,1.9-3.2,1.4c-0.3-0.2-0.2-1,0-1.3c0.5-0.9,2.5-1.9,3.4-2.4
	c1.6-1.1,5.2-2.7,6.7-4c0.8-0.6,2.1-2.3,2.9-3C608,203.6,610.2,201,611.5,201.4z"/>
<linearGradient id="SVGID_55_" gradientUnits="userSpaceOnUse" x1="14726.627" y1="-665.7988" x2="14731.5996" y2="-665.7988" gradientTransform="matrix(-1 0 0 1 15356.7051 871.5)">
	<stop  offset="1.596381e-02" style="stop-color:#932C12"/>
	<stop  offset="0.3364" style="stop-color:#D24427"/>
	<stop  offset="0.4077" style="stop-color:#CD5237"/>
	<stop  offset="0.5142" style="stop-color:#C56250"/>
	<stop  offset="0.5966" style="stop-color:#C16A5F"/>
	<stop  offset="0.6445" style="stop-color:#BF6D65"/>
	<stop  offset="0.9815" style="stop-color:#460012"/>
</linearGradient>
<path opacity="5.000000e-02" fill="url(#SVGID_55_)" enable-background="new    " d="M626.9,201.4c0.4-0.2,0.8,0.8,1.3,0.9
	c0.4,0.1,0.8-0.2,1.1,0s0.6,1,0.7,1.3c0.1,0.4,0.2,1.2,0,1.5s-1.1,0.6-1.4,0.7c-0.3,0.1-0.7,0.3-0.9,0.4c-0.4,0.3-0.6,1.1-0.7,1.7
	c-0.1,0.3-0.1,1-0.3,1.2s-1.2,1.1-1.4,0.9c-0.2-0.2,0.3-1.7,0.3-2c0-0.7-0.1-2.2,0-2.9C625.5,204.2,626.2,201.8,626.9,201.4z"/>
<linearGradient id="SVGID_56_" gradientUnits="userSpaceOnUse" x1="2716.2061" y1="10803.7373" x2="2741.5002" y2="10803.7373" gradientTransform="matrix(-0.4399 0.8981 -0.8981 -0.4399 11560.1133 2507.5254)">
	<stop  offset="1.596381e-02" style="stop-color:#932C12"/>
	<stop  offset="0.3364" style="stop-color:#D24427"/>
	<stop  offset="0.4077" style="stop-color:#CD5237"/>
	<stop  offset="0.5142" style="stop-color:#C56250"/>
	<stop  offset="0.5966" style="stop-color:#C16A5F"/>
	<stop  offset="0.6445" style="stop-color:#BF6D65"/>
	<stop  offset="0.9815" style="stop-color:#460012"/>
</linearGradient>
<path opacity="3.000000e-02" fill="url(#SVGID_56_)" enable-background="new    " d="M664.7,204.9c-0.9,0.3-2.5,1.6-2.6,2.5
	c-0.1,0.5,0.8,1.5,1.2,1.7c0.3,0.2,1.3-0.2,1.4,0.1c0.2,0.3-0.3,1.1-0.7,1.3c-1,0.6-3.5,0.2-4.6-0.1c-1-0.3-2.6-1.7-3.5-2.2
	c-1.3-0.8-3.6-2.9-5.1-3c-0.6,0-1.9,0.3-2.1,0.9c-0.2,0.7,1.5,1.6,1.5,2.2c0.1,0.9-1.2,2.3-1.4,3.1c-0.3,0.8,0,2.8-0.6,3.3
	c-0.5,0.4-2,0-2.4-0.4s-0.4-1.6-0.6-2.2c-0.2-0.6-0.7-1.9-1.2-2.2s-1.7,0-2.2-0.1c-0.4-0.1-1.6-0.4-1.6-0.4L647,196
	c0,0,1.4,1.9,2.1,2c0.9,0.1,2.3-1.2,3.2-1.6c0.9-0.4,2.7-1.2,3.6-1.4c1.1-0.2,3.5-0.4,4.6-0.3c2,0.2,5.9,1.4,7.7,2.3
	c1,0.5,2.8,1.9,3.6,2.7c0.5,0.6,2,2.1,1.5,2.8c-0.3,0.5-1.7,0.2-2.2,0c-1-0.4-2.5-2.3-3.5-2.7c-1.8-0.7-5.7-1.3-7.5-0.8
	c-0.7,0.2-2.1,1.1-2.3,1.8c-0.1,0.3,0.1,1.2,0.5,1.4c0.4,0.3,1.6-0.4,2.1-0.2c0.4,0.1,0.8,0.9,1.1,1c0.6,0.2,2-0.3,2.6-0.2
	c0.8,0.2,3,1,2.7,1.7C666.7,205.5,665.2,204.7,664.7,204.9z"/>
<linearGradient id="SVGID_57_" gradientUnits="userSpaceOnUse" x1="14656.999" y1="-706.1988" x2="14661.9727" y2="-706.1988" gradientTransform="matrix(-1 0 0 1 15356.7051 871.5)">
	<stop  offset="1.596381e-02" style="stop-color:#932C12"/>
	<stop  offset="0.3364" style="stop-color:#D24427"/>
	<stop  offset="0.4077" style="stop-color:#CD5237"/>
	<stop  offset="0.5142" style="stop-color:#C56250"/>
	<stop  offset="0.5966" style="stop-color:#C16A5F"/>
	<stop  offset="0.6445" style="stop-color:#BF6D65"/>
	<stop  offset="0.9815" style="stop-color:#460012"/>
</linearGradient>
<path opacity="5.000000e-02" fill="url(#SVGID_57_)" enable-background="new    " d="M696.6,161c0.4-0.2,0.8,0.8,1.3,0.9
	c0.4,0.1,0.8-0.2,1.1,0s0.6,1,0.7,1.3c0.1,0.4,0.2,1.2,0,1.5s-1.1,0.6-1.4,0.7c-0.3,0.1-0.7,0.3-0.9,0.4c-0.4,0.3-0.6,1.1-0.7,1.7
	c-0.1,0.3-0.1,1-0.3,1.2s-1.2,1.1-1.4,0.9c-0.2-0.2,0.3-1.7,0.3-2c0-0.7-0.1-2.2,0-2.9C695.1,163.8,695.8,161.4,696.6,161z"/>
<linearGradient id="SVGID_58_" gradientUnits="userSpaceOnUse" x1="14654.2744" y1="-657.3988" x2="14659.248" y2="-657.3988" gradientTransform="matrix(-1 0 0 1 15356.7051 871.5)">
	<stop  offset="1.596381e-02" style="stop-color:#932C12"/>
	<stop  offset="0.3364" style="stop-color:#D24427"/>
	<stop  offset="0.4077" style="stop-color:#CD5237"/>
	<stop  offset="0.5142" style="stop-color:#C56250"/>
	<stop  offset="0.5966" style="stop-color:#C16A5F"/>
	<stop  offset="0.6445" style="stop-color:#BF6D65"/>
	<stop  offset="0.9815" style="stop-color:#460012"/>
</linearGradient>
<path opacity="5.000000e-02" fill="url(#SVGID_58_)" enable-background="new    " d="M699.3,209.8c0.4-0.2,0.8,0.8,1.3,0.9
	c0.4,0.1,0.8-0.2,1.1,0s0.6,1,0.7,1.3c0.1,0.4,0.2,1.2,0,1.5s-1.1,0.6-1.4,0.7c-0.3,0.1-0.7,0.3-0.9,0.4c-0.4,0.3-0.6,1.1-0.7,1.7
	c-0.1,0.3-0.1,1-0.3,1.2s-1.2,1.1-1.4,0.9c-0.2-0.2,0.3-1.7,0.3-2c0-0.7-0.1-2.2,0-2.9C697.9,212.7,698.6,210.2,699.3,209.8z"/>
<linearGradient id="SVGID_59_" gradientUnits="userSpaceOnUse" x1="14627.6152" y1="-651.9028" x2="14631.4814" y2="-651.9028" gradientTransform="matrix(-1 0 0 1 15356.7051 871.5)">
	<stop  offset="1.596381e-02" style="stop-color:#932C12"/>
	<stop  offset="0.3364" style="stop-color:#D24427"/>
	<stop  offset="0.4077" style="stop-color:#CD5237"/>
	<stop  offset="0.5142" style="stop-color:#C56250"/>
	<stop  offset="0.5966" style="stop-color:#C16A5F"/>
	<stop  offset="0.6445" style="stop-color:#BF6D65"/>
	<stop  offset="0.9815" style="stop-color:#460012"/>
</linearGradient>
<path opacity="5.000000e-02" fill="url(#SVGID_59_)" enable-background="new    " d="M728.8,216.3c0.6-0.2,0.1,1.9,0,2.6
	c-0.1,0.6-0.3,1.8-0.7,2.2c-0.3,0.4-1.4,0.5-1.8,0.8c-0.3,0.2-0.6,1.1-0.9,1c-0.5-0.2-0.1-1.7,0-2.2s0.4-1.6,0.7-2.1
	C726.6,217.8,727.8,216.6,728.8,216.3z"/>
<radialGradient id="SVGID_60_" cx="-592.0273" cy="-867.8896" r="3.3066" gradientTransform="matrix(1 0 0 1 685 871.5)" gradientUnits="userSpaceOnUse">
	<stop  offset="0.1174" style="stop-color:#DEDBC0"/>
	<stop  offset="1" style="stop-color:#FFFFFF;stop-opacity:0"/>
</radialGradient>
<path fill="url(#SVGID_60_)" d="M92.9,0c0,0-0.4,2.2-0.8,2.6c-0.5,0.5-2.1,1-2.1,1s1.6,0.5,2.1,1.1c0.4,0.5,1,2.6,1,2.6
	s0.5-2.2,0.9-2.7s2-1.2,2-1.2S94.3,3,93.9,2.5C93.5,2.1,92.9,0,92.9,0z"/>
</svg>
