<?xml version="1.0" encoding="utf-8"?>
<!-- Generator: Adobe Illustrator 17.0.0, SVG Export Plug-In . SVG Version: 6.00 Build 0)  -->
<!DOCTYPE svg PUBLIC "-//W3C//DTD SVG 1.1//EN" "http://www.w3.org/Graphics/SVG/1.1/DTD/svg11.dtd">
<svg version="1.1" id="Layer_1" xmlns="http://www.w3.org/2000/svg" xmlns:xlink="http://www.w3.org/1999/xlink" x="0px" y="0px"
	 width="1280.395px" height="1701.503px" viewBox="-1343.144 3.054 1280.395 1701.503"
	 enable-background="new -1343.144 3.054 1280.395 1701.503" xml:space="preserve">
<linearGradient id="SVGID_1_" gradientUnits="userSpaceOnUse" x1="-1343.1444" y1="929.7272" x2="-62.7498" y2="929.7272">
	<stop  offset="0" style="stop-color:#DF8436"/>
	<stop  offset="0.4652" style="stop-color:#E29F56"/>
	<stop  offset="0.7895" style="stop-color:#D1AA7C"/>
	<stop  offset="0.8444" style="stop-color:#D2A878"/>
	<stop  offset="0.8935" style="stop-color:#D4A36E"/>
	<stop  offset="0.9403" style="stop-color:#D8995B"/>
	<stop  offset="0.9855" style="stop-color:#DE8C42"/>
	<stop  offset="1" style="stop-color:#E08738"/>
</linearGradient>
<path fill="url(#SVGID_1_)" d="M-1343.144,223.02c0,0,49.261-20.935,72.131-33.227c14.474-7.779,40.185-29.566,56.118-33.988
	c6.446-1.789,20.147-0.462,26.839,0c27.663,1.909,82.337,11.496,109.796,15.236c35.061,4.776,162.044-0.78,197.448-0.044
	c19.297,0.401,38.461,6.638,57.501,3.599c20.725-3.309,12.523-6.367,33.003-10.868c9.739-2.14,12.625-7.454,22.604-6.982
	c11.849,0.56,58.185-0.586,69.641,2.377c15.365,3.975,63.996,4.217,79.866,5.337c27.74,1.957,68.783,15.54,96.24,11.269
	c14.313-2.226,41.656-13.074,56.118-14.064c29.698-2.033,88.886,8.687,118.336,12.892c11.657,1.664,34.623,7.174,46.359,8.204
	c13.971,1.226,42.089,0,56.118,0c11.895,0,35.756-1.257,47.578,0c18.018,1.916,58.397,45.803,76.462,47.254
	c20.976,1.685,58.236-7.174,58.236-7.174v1481.715h-1280.395V223.02z"/>
<g opacity="0.1">
	<path fill="#00211E" d="M-1176.21,221.769c3.268,2.263,11.314,2.263,15.588,2.766c7.04,1.006,13.828,2.011,20.365,4.023
		c7.04,2.263,14.833,2.263,21.119,5.783c1.76,1.006,1.508,1.257,3.268,1.76c1.257,0.251,3.771,1.006,4.777,1.257
		c4.274,0.503,8.297-2.011,12.068-3.52c5.782-1.76,12.822-1.76,19.107-2.514c5.531-0.754,11.062,2.011,16.845,1.76
		c9.302-0.251,18.353,0.503,27.404,1.76c4.274,0.754,5.028-0.503,9.051-2.011c3.771-1.508,8.297-1.508,12.319-2.263
		c14.331-2.766,27.656-8.297,42.238-10.559c6.285-1.006,12.319-1.76,18.605-2.263c5.028-0.503,9.805-1.006,14.833-1.508
		c2.766-0.251,7.291,0.503,9.302-1.006c-3.771-2.011-8.799-1.76-13.074-2.011c-7.291-0.503-14.582-1.006-21.622-1.508
		c-13.828-0.503-28.158-2.263-41.483,1.508c-28.41,8.297-57.071,7.04-86.235,6.034c-15.336-0.503-30.17,1.76-45.506,1.257
		c-11.314-0.251-22.627-1.508-33.941-0.503"/>
</g>
<g opacity="0.1">
	<path fill="#00211E" d="M-909.211,219.465c8.297,2.011,17.096-0.251,25.393,0.503c3.771,0.251,11.062,3.52,14.079,2.011
		c0.251-6.034,11.816-3.771,16.091-4.023c14.833-1.006,29.918,1.508,45.003,1.508c21.622,0,41.986-4.274,63.105-7.794
		c4.526-0.754,13.325-0.754,17.096-3.52c-2.011-4.525-11.817-1.76-15.336-1.508c-10.057,1.006-20.365,1.257-30.421,2.011
		c-15.588,1.257-31.175,2.011-46.763,2.011c-16.091,0-31.175-3.017-46.763-4.525c-6.788-0.754-11.816,1.76-17.599,4.777
		c-6.537,3.268-13.576,4.023-20.365,5.531"/>
</g>
<g opacity="0.1">
	<path fill="#00211E" d="M-767.158,224.563c4.777,1.006,9.554,0.251,14.331,1.006c12.822,2.011,25.644,2.011,38.215,6.034
		c3.268,1.006,7.04,2.514,10.559,2.011c3.017-0.503,6.285-2.011,9.554-2.514c11.062-1.257,22.125-1.257,33.187-1.76
		c20.365-0.754,40.981-4.274,61.345-1.006c6.788,1.006,12.319-1.508,19.108-1.257c6.285,0.251,11.565,0.503,17.599-1.006
		c3.52-0.754,5.531-2.263,8.548-4.023c-22.376-9.554-49.529-7.794-73.413-6.285c-33.438,2.011-67.128,4.023-100.817,6.285
		c-8.297,0.754-15.839,1.006-24.136,1.006"/>
</g>
<g opacity="0.1">
	<path fill="#00211E" d="M-599.449,195.04c10.811-3.52,21.622-4.023,32.935-3.52c13.828,0.251,27.153-1.257,40.981-2.514
		c11.565-1.006,22.376-2.514,33.941-4.777c4.777-1.006,9.554,0.251,13.325-3.52c-6.537,0.503-13.074-3.268-19.61-3.52
		c-7.291-0.251-15.588,3.268-23.13,4.023c-23.633,2.514-47.769,3.52-71.653,4.023c-4.023,0-10.559-0.754-13.828,1.76
		c0.754,2.766,3.771,3.52,4.274,6.034"/>
</g>
<linearGradient id="SVGID_2_" gradientUnits="userSpaceOnUse" x1="-787.1141" y1="-55.9219" x2="-600.2112" y2="-55.9219" gradientTransform="matrix(0.9996 -0.0297 0.0297 0.9996 -43.075 144.0146)">
	<stop  offset="0" style="stop-color:#973709"/>
	<stop  offset="0.0313" style="stop-color:#9A3A0C"/>
	<stop  offset="0.048" style="stop-color:#A04011"/>
	<stop  offset="0.2882" style="stop-color:#A64515"/>
	<stop  offset="0.5993" style="stop-color:#B65422"/>
	<stop  offset="0.9481" style="stop-color:#D06C36"/>
	<stop  offset="1" style="stop-color:#D5703A"/>
</linearGradient>
<polygon fill="url(#SVGID_2_)" points="-829.082,192.939 -823.309,189.146 -818.554,184.93 -817.099,183.742 -814.181,180.977 
	-810.555,176.543 -803.918,171.365 -800.448,166.282 -795.127,162.502 -792.575,156.993 -790.99,154.408 -789.077,152.815 
	-784.648,149.514 -783.004,147.497 -780.7,144.886 -776.721,142.035 -775.325,139.357 -771.907,136.459 -768.889,131.389 
	-767.031,128.914 -764.035,127.17 -760.085,122.978 -757.97,120.006 -756.641,116.99 -753.542,114.634 -750.031,110.908 
	-744.657,108.937 -743.227,105.109 -739.937,100.195 -735.055,96.881 -731.133,91.784 -727.169,88.044 -722.794,82.934 
	-719.115,79.615 -714.402,75.893 -710.904,71.715 -709.439,68.25 -706.623,63.438 -702.234,58.781 -698.271,55.041 -696.078,53.199 
	-694.773,50.862 -690.85,45.766 -687.792,42.053 -686.095,39.377 -682.978,36.477 -677.671,32.244 -675.064,28.545 -672.458,24.846 
	-669.346,22.942 -664.518,17.819 -659.238,12.682 -642.806,169.094 -744.133,202.636 "/>
<linearGradient id="SVGID_3_" gradientUnits="userSpaceOnUse" x1="-741.8717" y1="107.6253" x2="-486.6025" y2="107.6253">
	<stop  offset="0.3171" style="stop-color:#DF8537"/>
	<stop  offset="1" style="stop-color:#E1A064"/>
</linearGradient>
<polygon fill="url(#SVGID_3_)" points="-659.238,12.682 -656.858,16.251 -654.5,19.784 -650.66,22.966 -646.7,27.27 
	-643.294,31.222 -638.717,32.897 -634.992,36.395 -633.1,39.068 -627.538,43.43 -623.973,47.242 -621.881,50.958 -615.441,54.388 
	-612.954,57.573 -611.195,60.147 -607.017,63.645 -604.518,65.665 -602.798,68.499 -599.51,72.476 -596.425,75.651 -594.785,79.126 
	-591.072,82.185 -587.817,84.604 -586.44,89.005 -583.978,92.387 -580.93,95.967 -577.896,98.997 -570.963,103.77 -565.893,106.789 
	-558.056,111.536 -555.167,117.335 -549.192,120.327 -544.933,126.538 -544.812,130.609 -539.384,130.448 -535.138,136.207 
	-532.742,140.663 -529.481,143.735 -523.082,145.808 -519.767,150.69 -515.494,157.353 -511.329,160.399 -508.92,165.307 
	-503.85,168.325 -498.874,168.177 -496.89,174.004 -490.383,179.695 -486.602,185.016 -499.268,185.393 -504.749,183.745 
	-510.124,185.715 -514.647,185.85 -520.527,186.025 -537.716,186.536 -564.403,187.33 -571.64,187.545 -599.604,191.093 
	-624.853,194.561 -656.516,195.503 -680.942,196.229 -686.37,196.391 -695.976,193.055 -700.392,196.808 -712.605,197.171 
	-732.427,200.477 -741.872,202.569 -738.07,193.401 -734.505,191.484 -734.174,187.4 -733.621,185.227 -733.404,182.85 
	-730.797,179.15 -728.67,174.56 -727.887,170.462 -727.887,170.462 -725.706,167.681 -723.14,162.624 -718.805,156.157 
	-718.501,151.168 -716.347,147.482 -714.166,144.701 -708.102,135.466 -705.59,128.601 -703.929,123.571 -700.924,118.049 
	-696.589,111.582 -694.448,107.444 -693.613,102.822 -692.895,98.796 -690.741,95.11 -689.64,92.229 -687.749,89.135 
	-687.445,84.146 -684.893,78.638 -682.792,73.142 -679.801,67.168 -677.181,63.921 -676.778,60.575 -675.108,57.521 
	-673.899,52.505 -671.306,48.353 -670.157,44.939 -668.342,41.474 -667.558,37.376 -665.995,33.968 -665.032,30.963 
	-664.262,26.413 -662.149,21.37 -661.831,16.833 "/>
<linearGradient id="SVGID_4_" gradientUnits="userSpaceOnUse" x1="-1029.5396" y1="73.5136" x2="-812.7468" y2="73.5136" gradientTransform="matrix(1 -0.0075 0.0075 1 -12.1515 31.9791)">
	<stop  offset="0" style="stop-color:#973709"/>
	<stop  offset="0.0313" style="stop-color:#9A3A0C"/>
	<stop  offset="0.048" style="stop-color:#A04011"/>
	<stop  offset="0.2882" style="stop-color:#A64515"/>
	<stop  offset="0.5993" style="stop-color:#B65422"/>
	<stop  offset="0.9481" style="stop-color:#D06C36"/>
	<stop  offset="1" style="stop-color:#D5703A"/>
</linearGradient>
<polygon fill="url(#SVGID_4_)" points="-1040.399,207.711 -1033.607,203.461 -1027.984,198.694 -1026.265,197.354 -1022.81,194.223 
	-1018.492,189.174 -1010.662,183.341 -1006.506,177.536 -1000.239,173.29 -997.137,166.967 -995.233,164.01 -992.974,162.212 
	-987.753,158.498 -985.794,156.202 -983.055,153.233 -978.368,150.029 -976.679,146.96 -972.642,143.687 -969.011,137.886 
	-966.793,135.063 -963.273,133.118 -958.584,128.359 -956.056,124.967 -954.437,121.504 -950.782,118.852 -946.615,114.621 
	-940.332,112.474 -938.575,108.072 -934.633,102.458 -928.887,98.741 -924.206,92.931 -919.514,88.697 -914.309,82.884 
	-909.956,79.129 -904.395,74.935 -900.232,70.18 -898.443,66.199 -895.054,60.693 -889.844,55.404 -885.152,51.17 -882.561,49.09 
	-880.989,46.414 -876.308,40.605 -872.665,36.378 -870.629,33.319 -866.939,30.036 -860.676,25.265 -857.558,21.042 
	-854.441,16.819 -850.782,14.692 -845.052,8.875 -838.797,3.054 -823.772,184.858 -942.139,221.145 "/>
<linearGradient id="SVGID_5_" gradientUnits="userSpaceOnUse" x1="-939.5148" y1="112.0895" x2="-643.0432" y2="112.0895">
	<stop  offset="0" style="stop-color:#DF8436"/>
	<stop  offset="0.9105" style="stop-color:#E29F56"/>
</linearGradient>
<polygon fill="url(#SVGID_5_)" points="-838.797,3.054 -836.129,7.255 -833.485,11.413 -829.114,15.201 -824.633,20.295 
	-820.785,24.965 -815.52,27.025 -811.291,31.178 -809.167,34.326 -802.828,39.527 -798.793,44.041 -796.463,48.403 -789.083,52.547 
	-786.281,56.304 -784.308,59.335 -779.552,63.498 -776.706,65.905 -774.785,69.237 -771.075,73.933 -767.58,77.694 -765.767,81.767 
	-761.54,85.409 -757.828,88.298 -756.344,93.437 -753.576,97.422 -750.134,101.653 -746.694,105.244 -738.777,110.959 
	-732.976,114.589 -724.009,120.296 -720.809,127.096 -713.958,130.719 -709.178,138.032 -709.143,142.756 -702.844,142.708 
	-698.069,149.496 -695.405,154.725 -691.703,158.372 -684.335,160.941 -680.618,166.687 -675.835,174.525 -671.083,178.163 
	-668.415,183.917 -662.614,187.548 -656.84,187.505 -654.689,194.312 -647.29,201.081 -643.043,207.348 -657.74,207.458 
	-664.054,205.406 -670.337,207.553 -675.586,207.592 -682.409,207.644 -702.355,207.794 -733.323,208.026 -741.721,208.09 
	-774.24,211.484 -803.61,214.854 -840.352,215.13 -868.695,215.343 -874.994,215.391 -886.048,211.274 -891.265,215.513 
	-905.437,215.62 -928.508,218.943 -939.515,221.125 -934.87,210.592 -930.687,208.461 -930.197,203.733 -929.5,201.227 
	-929.187,198.476 -926.069,194.253 -923.484,188.985 -922.47,184.253 -922.47,184.253 -919.869,181.084 -916.763,175.287 
	-911.57,167.899 -911.088,162.121 -908.495,157.902 -905.895,154.733 -898.625,144.18 -895.535,136.283 -893.479,130.494 
	-889.852,124.168 -884.659,116.78 -882.07,112.036 -880.982,106.698 -880.045,102.048 -877.453,97.829 -876.102,94.516 
	-873.83,90.978 -873.348,85.2 -870.246,78.878 -867.669,72.56 -864.046,65.708 -860.925,62.011 -860.37,58.141 -858.355,54.643 
	-856.824,48.857 -853.711,44.109 -852.29,40.179 -850.096,36.209 -849.081,31.477 -847.181,27.564 -845.987,24.105 -844.977,18.848 
	-842.396,13.054 -841.911,7.802 "/>
<linearGradient id="SVGID_6_" gradientUnits="userSpaceOnUse" x1="-1139.451" y1="-21.1592" x2="-979.5804" y2="-21.1592" gradientTransform="matrix(0.9996 -0.0297 0.0297 0.9996 -43.075 144.0146)">
	<stop  offset="0" style="stop-color:#973709"/>
	<stop  offset="0.0313" style="stop-color:#9A3A0C"/>
	<stop  offset="0.048" style="stop-color:#A04011"/>
	<stop  offset="0.2882" style="stop-color:#A64515"/>
	<stop  offset="0.5993" style="stop-color:#B65422"/>
	<stop  offset="0.9481" style="stop-color:#D06C36"/>
	<stop  offset="1" style="stop-color:#D5703A"/>
</linearGradient>
<polygon fill="url(#SVGID_6_)" points="-1180.58,226.387 -1175.642,223.142 -1171.575,219.536 -1170.33,218.52 -1167.834,216.155 
	-1164.733,212.362 -1159.056,207.933 -1156.087,203.585 -1151.536,200.352 -1149.353,195.64 -1147.997,193.428 -1146.361,192.066 
	-1142.573,189.242 -1141.166,187.517 -1139.196,185.284 -1135.792,182.845 -1134.598,180.554 -1131.675,178.075 -1129.093,173.739 
	-1127.504,171.621 -1124.94,170.13 -1121.562,166.544 -1119.753,164.002 -1118.616,161.422 -1115.965,159.407 -1112.962,156.22 
	-1108.365,154.534 -1107.142,151.259 -1104.328,147.056 -1100.153,144.221 -1096.797,139.862 -1093.407,136.663 -1089.665,132.292 
	-1086.517,129.452 -1082.486,126.27 -1079.494,122.695 -1078.241,119.731 -1075.832,115.616 -1072.078,111.632 -1068.688,108.433 
	-1066.812,106.857 -1065.697,104.859 -1062.341,100.499 -1059.725,97.323 -1058.273,95.034 -1055.607,92.554 -1051.068,88.934 
	-1048.838,85.769 -1046.609,82.605 -1043.947,80.977 -1039.817,76.594 -1035.301,72.2 -1021.245,205.99 -1107.917,234.681 "/>
<linearGradient id="SVGID_7_" gradientUnits="userSpaceOnUse" x1="-1105.983" y1="153.4119" x2="-887.6339" y2="153.4119">
	<stop  offset="0.0218" style="stop-color:#DF8436"/>
	<stop  offset="0.5784" style="stop-color:#E29F56"/>
	<stop  offset="1" style="stop-color:#CFAB80"/>
</linearGradient>
<polygon fill="url(#SVGID_7_)" points="-1035.301,72.2 -1033.265,75.253 -1031.248,78.276 -1027.963,80.997 -1024.576,84.679 
	-1021.663,88.059 -1017.748,89.491 -1014.562,92.484 -1012.944,94.77 -1008.186,98.501 -1005.136,101.762 -1003.347,104.94 
	-997.838,107.874 -995.711,110.598 -994.207,112.801 -990.632,115.792 -988.495,117.52 -987.023,119.945 -984.212,123.346 
	-981.573,126.062 -980.17,129.035 -976.994,131.651 -974.209,133.72 -973.031,137.484 -970.926,140.377 -968.319,143.44 
	-965.723,146.031 -959.793,150.115 -955.457,152.696 -948.753,156.757 -946.282,161.717 -941.171,164.276 -937.528,169.589 
	-937.424,173.071 -932.781,172.933 -929.15,177.86 -927.1,181.671 -924.311,184.299 -918.837,186.072 -916.002,190.248 
	-912.347,195.948 -908.784,198.552 -906.723,202.751 -902.387,205.333 -898.131,205.206 -896.434,210.19 -890.867,215.058 
	-887.634,219.609 -898.467,219.932 -903.156,218.522 -907.753,220.208 -911.622,220.323 -916.652,220.472 -931.354,220.91 
	-954.182,221.589 -960.372,221.773 -984.292,224.808 -1005.889,227.774 -1032.973,228.579 -1053.866,229.201 -1058.509,229.339 
	-1066.726,226.485 -1070.503,229.696 -1080.949,230.007 -1097.904,232.834 -1105.983,234.624 -1102.731,226.782 -1099.682,225.142 
	-1099.398,221.649 -1098.926,219.79 -1098.74,217.757 -1096.51,214.592 -1094.691,210.666 -1094.021,207.16 -1094.021,207.16 
	-1092.155,204.781 -1089.96,200.456 -1086.252,194.925 -1085.992,190.657 -1084.15,187.504 -1082.284,185.125 -1077.098,177.226 
	-1074.949,171.353 -1073.528,167.051 -1070.958,162.328 -1067.25,156.796 -1065.419,153.257 -1064.704,149.303 -1064.09,145.859 
	-1062.247,142.706 -1061.306,140.242 -1059.688,137.596 -1059.428,133.329 -1057.245,128.617 -1055.448,123.916 -1052.89,118.806 
	-1050.649,116.029 -1050.303,113.166 -1048.875,110.554 -1047.841,106.264 -1045.623,102.713 -1044.641,99.792 -1043.088,96.828 
	-1042.417,93.323 -1041.081,90.408 -1040.257,87.838 -1039.599,83.945 -1037.791,79.632 -1037.519,75.751 "/>
<linearGradient id="SVGID_8_" gradientUnits="userSpaceOnUse" x1="-728.1716" y1="13.3699" x2="-617.5787" y2="13.3699" gradientTransform="matrix(0.9996 -0.0297 0.0297 0.9996 -43.075 144.0146)">
	<stop  offset="0" style="stop-color:#A04011"/>
	<stop  offset="0.0931" style="stop-color:#AC4B1A"/>
	<stop  offset="0.3174" style="stop-color:#C25F2C"/>
	<stop  offset="0.5295" style="stop-color:#D06C36"/>
	<stop  offset="0.7153" style="stop-color:#D5703A"/>
	<stop  offset="0.9631" style="stop-color:#D5703A"/>
</linearGradient>
<polygon fill="url(#SVGID_8_)" points="-769.094,227.206 -765.678,224.961 -762.865,222.466 -762.003,221.763 -760.277,220.128 
	-758.131,217.504 -754.204,214.44 -752.151,211.432 -749.003,209.196 -747.492,205.936 -746.555,204.406 -745.423,203.464 
	-742.802,201.51 -741.829,200.317 -740.466,198.772 -738.112,197.085 -737.285,195.501 -735.263,193.785 -733.477,190.786 
	-732.378,189.321 -730.605,188.289 -728.268,185.809 -727.016,184.05 -726.23,182.266 -724.396,180.872 -722.319,178.667 
	-719.139,177.501 -718.292,175.235 -716.346,172.328 -713.457,170.367 -711.136,167.351 -708.791,165.138 -706.202,162.114 
	-704.025,160.15 -701.236,157.948 -699.167,155.476 -698.3,153.425 -696.633,150.578 -694.037,147.822 -691.691,145.609 
	-690.394,144.519 -689.622,143.137 -687.301,140.121 -685.491,137.924 -684.487,136.341 -682.642,134.625 -679.502,132.12 
	-677.96,129.932 -676.418,127.743 -674.576,126.616 -671.719,123.585 -668.595,120.545 -658.872,213.096 -718.829,232.944 "/>
<linearGradient id="SVGID_9_" gradientUnits="userSpaceOnUse" x1="-717.4906" y1="176.7243" x2="-566.4445" y2="176.7243">
	<stop  offset="0.0218" style="stop-color:#DF8436"/>
	<stop  offset="0.4548" style="stop-color:#E1A058"/>
	<stop  offset="1" style="stop-color:#CFAB80"/>
</linearGradient>
<polygon fill="url(#SVGID_9_)" points="-668.595,120.545 -667.187,122.657 -665.791,124.748 -663.519,126.63 -661.176,129.177 
	-659.161,131.515 -656.453,132.506 -654.249,134.577 -653.129,136.158 -649.838,138.739 -647.729,140.995 -646.491,143.193 
	-642.68,145.223 -641.208,147.107 -640.168,148.631 -637.695,150.7 -636.216,151.896 -635.199,153.573 -633.254,155.926 
	-631.428,157.805 -630.458,159.861 -628.261,161.671 -626.334,163.102 -625.519,165.706 -624.063,167.707 -622.259,169.826 
	-620.464,171.619 -616.362,174.443 -613.362,176.229 -608.724,179.038 -607.015,182.47 -603.48,184.24 -600.959,187.915 
	-600.888,190.324 -597.676,190.229 -595.164,193.636 -593.746,196.273 -591.817,198.091 -588.03,199.318 -586.069,202.206 
	-583.54,206.149 -581.076,207.951 -579.65,210.855 -576.65,212.641 -573.706,212.554 -572.532,216.001 -568.681,219.369 
	-566.445,222.517 -573.939,222.74 -577.182,221.765 -580.362,222.931 -583.039,223.011 -586.518,223.114 -596.689,223.417 
	-612.48,223.887 -616.762,224.014 -633.309,226.113 -648.249,228.165 -666.985,228.723 -681.438,229.152 -684.65,229.248 
	-690.334,227.274 -692.947,229.495 -700.173,229.71 -711.902,231.666 -717.491,232.904 -715.241,227.479 -713.132,226.345 
	-712.936,223.928 -712.609,222.642 -712.48,221.236 -710.938,219.047 -709.679,216.33 -709.216,213.906 -709.216,213.906 
	-707.925,212.26 -706.407,209.268 -703.842,205.441 -703.662,202.489 -702.387,200.308 -701.097,198.663 -697.509,193.198 
	-696.022,189.136 -695.039,186.16 -693.261,182.892 -690.696,179.065 -689.43,176.617 -688.935,173.882 -688.51,171.5 
	-687.236,169.319 -686.585,167.614 -685.466,165.784 -685.286,162.831 -683.775,159.572 -682.533,156.32 -680.763,152.785 
	-679.212,150.864 -678.974,148.884 -677.986,147.077 -677.27,144.109 -675.736,141.652 -675.056,139.632 -673.982,137.582 
	-673.518,135.157 -672.594,133.14 -672.024,131.362 -671.568,128.67 -670.318,125.686 -670.13,123.001 "/>
<linearGradient id="SVGID_10_" gradientUnits="userSpaceOnUse" x1="13440.4785" y1="107.6589" x2="13456.9375" y2="107.6589" gradientTransform="matrix(-1 0 0 1 12427.4629 0)">
	<stop  offset="0.016" style="stop-color:#932C12"/>
	<stop  offset="0.3364" style="stop-color:#D14427"/>
	<stop  offset="0.4324" style="stop-color:#CA543F"/>
	<stop  offset="0.5665" style="stop-color:#C1665B"/>
	<stop  offset="0.6445" style="stop-color:#BE6D65"/>
	<stop  offset="0.9815" style="stop-color:#460012"/>
</linearGradient>
<path opacity="0.03" fill="url(#SVGID_10_)" d="M-1013.015,103.193c0,0-2.656-2.252-3.068-3.301c-0.213-0.543,0.258-1.811,0-2.334
	c-0.23-0.467-1.135-1.191-1.65-1.269c-0.349-0.053-1.208,0.158-1.324,0.491c-0.098,0.28,0.512,0.736,0.61,1.016
	c0.245,0.698,0.22,2.213,0.397,2.931c0.201,0.82,1.003,2.346,1.149,3.178c0.046,0.264,0.241,0.956,0,1.074
	c-0.689,0.338-1.901-1.303-2.498-1.786c-0.355-0.288-0.975-0.969-1.349-1.233c-0.899-0.635-2.828-1.769-3.887-2.068
	c-0.669-0.189-2.103-0.344-2.777-0.171c-0.591,0.152-2.089,0.697-2.063,1.307c0.021,0.504,1.301,0.812,1.791,0.932
	c0.627,0.153,1.983-0.238,2.584,0c0.606,0.24,1.74,1.154,1.9,1.786c0.103,0.405-0.254,1.269-0.526,1.587
	c-0.369,0.431-1.87,0.488-2.02,1.036c-0.149,0.54,0.88,1.431,1.19,1.898c0.606,0.913,1.892,2.688,2.52,3.587
	c1.04,1.488,2.653,4.927,4.144,5.963c1.011,0.702,4.77,1.221,4.77,1.221L-1013.015,103.193z"/>
<linearGradient id="SVGID_11_" gradientUnits="userSpaceOnUse" x1="13507.5205" y1="149.6206" x2="13519.8652" y2="149.6206" gradientTransform="matrix(-1 0 0 1 12427.4629 0)">
	<stop  offset="0.016" style="stop-color:#932C12"/>
	<stop  offset="0.3364" style="stop-color:#D14427"/>
	<stop  offset="0.4324" style="stop-color:#CA543F"/>
	<stop  offset="0.5665" style="stop-color:#C1665B"/>
	<stop  offset="0.6445" style="stop-color:#BE6D65"/>
	<stop  offset="0.9815" style="stop-color:#460012"/>
</linearGradient>
<path opacity="0.05" fill="url(#SVGID_11_)" d="M-1081.644,145.228c-0.691,0.011-2.014,0.454-2.484,0.961
	c-0.55,0.594-1.223,1.728-1.602,2.443c-0.494,0.933-2.246,2.553-3.004,3.101c-0.768,0.555-2.188,0.884-3.565,2.046
	c-0.64,0.54,1.883,0.285,2.583,0c0.682-0.277,2.062-0.806,2.703-1.168c1.706-0.961,5.313-2.9,6.38-4.541
	c0.355-0.545,0.719-1.931,0.519-2.55C-1080.309,144.917-1081.01,145.218-1081.644,145.228z"/>
<linearGradient id="SVGID_12_" gradientUnits="userSpaceOnUse" x1="13407.0322" y1="146.7556" x2="13433.0811" y2="146.7556" gradientTransform="matrix(-1 0 0 1 12427.4629 0)">
	<stop  offset="0.016" style="stop-color:#932C12"/>
	<stop  offset="0.3364" style="stop-color:#D14427"/>
	<stop  offset="0.4324" style="stop-color:#CA543F"/>
	<stop  offset="0.5665" style="stop-color:#C1665B"/>
	<stop  offset="0.6445" style="stop-color:#BE6D65"/>
	<stop  offset="0.9815" style="stop-color:#460012"/>
</linearGradient>
<path opacity="0.03" fill="url(#SVGID_12_)" d="M-979.656,142.662c-0.373-0.584-2.034-0.454-2.725-0.519
	c-1.001-0.094-3.07,0.322-4.022,0c-1.315-0.445-3.017-1.124-3.632-2.369c-0.316-0.64-3.571-0.147-4.227,0.132
	c-1.77,0.754-2.354,0.754-11.215,7.427c-0.568,0.428,0.741,2.026,1.168,2.595c1.049,1.399,1.965,2.07,3.606,2.675
	c2.648,0.976,6.894,2.44,8.916,0.471c0.883-0.86,6.551-2.432,7.104-3.534c0.989-1.97,3.228-3.009,4.508-4.803
	C-979.864,144.303-979.368,143.113-979.656,142.662z"/>
<linearGradient id="SVGID_13_" gradientUnits="userSpaceOnUse" x1="13506.3652" y1="200.2887" x2="13602.6963" y2="200.2887" gradientTransform="matrix(-1 0 0 1 12427.4629 0)">
	<stop  offset="0.016" style="stop-color:#932C12"/>
	<stop  offset="0.3364" style="stop-color:#D14427"/>
	<stop  offset="0.4324" style="stop-color:#CA543F"/>
	<stop  offset="0.5665" style="stop-color:#C1665B"/>
	<stop  offset="0.6445" style="stop-color:#BE6D65"/>
	<stop  offset="0.9815" style="stop-color:#460012"/>
</linearGradient>
<path opacity="0.05" fill="url(#SVGID_13_)" d="M-1078.926,183.424c-1.262-1.469-9.667-0.606-11.498-1.238
	c-3.062-1.056-8.308-5.09-11.289-6.358c-0.935-0.398-2.881-1.268-3.893-1.168c-2.303,0.228-3.992,4.375-6.012,5.505
	c-4.499,2.516-17.229,4.902-19.939,9.287c-1.761,2.848,1.412,10.95-0.908,13.365c-2.509,2.611-10.523,3.454-14.034,2.568
	c-0.611-0.154-1.817-2.382-2.444-2.438c-2.588-0.231-7.259,2.92-9.472,4.282c-1.1,0.677-3.796,1.972-4.022,3.244
	c-0.165,0.931,1.807,2.308,1.946,3.244c0.098,0.66-1.512,2.678-1.841,3.259c-0.656,1.158-12.808,2.871-12.902,4.199
	c-0.046,0.647,2.386,2.973,2.967,3.263c1.596,0.798,9.302,1.653,11.076,1.458c2.378-0.261,14.14-2.567,16.322-3.549
	c4.639-2.087,9.911-11.976,14.481-14.209c2.094-1.023,7.953-0.49,8.953-2.595c0.499-1.05-2.939-3.978-1.817-4.282
	c8.97-2.426,18.744-0.722,26.989-4.671c1.62-0.776-2.028-5.005-2.465-6.747c-0.224-0.89-0.998-2.85-0.519-3.633
	c0.573-0.936,3.056-1.378,4.152-1.427c2.036-0.092,5.877,1.964,7.915,1.946c1.141-0.01,3.716-0.264,4.412-1.168
	C-1082.431,185.124-1078.566,183.843-1078.926,183.424z"/>
<linearGradient id="SVGID_14_" gradientUnits="userSpaceOnUse" x1="13428.2393" y1="202.8581" x2="13486.4375" y2="236.4591" gradientTransform="matrix(-1 0 0 1 12427.4629 0)">
	<stop  offset="0.016" style="stop-color:#932C12"/>
	<stop  offset="0.3364" style="stop-color:#D14427"/>
	<stop  offset="0.4324" style="stop-color:#CA543F"/>
	<stop  offset="0.5665" style="stop-color:#C1665B"/>
	<stop  offset="0.6445" style="stop-color:#BE6D65"/>
	<stop  offset="0.9815" style="stop-color:#460012"/>
</linearGradient>
<path opacity="0.03" fill="url(#SVGID_14_)" d="M-1015.571,199.84c2.131-0.469,6.819,4.599,8.865,5.359
	c1.471,0.546,5.035-0.578,6.263,0.398c0.406,0.323,0.658,1.473,0.597,1.988c-0.041,0.343-0.762,0.854-0.696,1.193
	c0.12,0.617,1.435,1.241,1.988,1.539c0.578,0.311,1.986,0.421,2.486,0.847c0.321,0.274,0.59,1.12,0.789,1.491
	c0.321,0.598,1.412,1.717,1.298,2.386c-0.118,0.694-0.532,2.328-1.019,2.837c-0.512,0.536-0.476,5.068-1.93,3.378
	c-0.957-1.111-2.44-4.408-3.016-5.121c-0.508-0.629-1.502-2.093-2.287-2.287c-0.405-0.1-1.176,0.459-1.591,0.497
	c-1.022,0.093-3.089-0.216-4.076-0.497c-0.342-0.097-1.039-0.846-1.292-0.597c-0.349,0.344,0.532,1.377,0.795,1.79
	c0.284,0.445,1.165,1.114,1.392,1.591c0.379,0.797,5.467,7.36,5.467,7.36s-8.808-0.008-10.894,0.026
	c-0.821,0.013-3.282,0.123-3.282,0.123s-3.318-1.957-3.931-2.131c-0.795-0.226-2.755-0.983-3.576-0.894
	c-1.291,0.14-1.464-0.932-2.674-1.403c-0.312-0.121-0.871-0.661-0.895-0.994c-0.039-0.536,0.852-1.374,1.193-1.79
	c0.29-0.353,1.292-0.836,1.292-1.292c0-1.547-2.977-3.712-4.375-4.374c-0.226-0.107-0.76-0.187-0.994-0.099
	c-0.988,0.371-2.072,2.407-2.883,3.082c-1.134,0.944-3.607,2.62-4.971,3.181c-3.456,1.422-12.101,0.91-12.101,0.91l-9.733,1.027
	l-8.126,2.353c0,0,5.637-5.236,7.943-6.282c0.901-0.409,1.599-0.406,4.468-0.906c2.579-0.449,5.954,1.239,8.402,0.313
	c1.593-0.603,4.613-2.263,6.263-2.684c0.508-0.13,1.735,0.189,2.088-0.199c0.276-0.304,0.144-1.258,0-1.643
	c-0.319-0.849-4.227-0.584-4.155-1.488c0.031-0.387,2.395-1.247,2.775-1.327c0.885-0.187,2.763,0.036,3.667,0.083
	c1.008,0.053,3.049-0.298,3.977-0.696c0.881-0.379,2.723-1.397,3.082-2.287c0.226-0.561-0.139-1.839-0.398-2.386
	c-0.226-0.478-0.999-1.238-1.392-1.591c-0.226-0.203-1.041-0.396-0.994-0.696c0.064-0.412,1.175-0.521,1.591-0.497
	c0.733,0.042,2.132,0.709,2.684,1.193c0.394,0.346,0.941,1.288,1.094,1.79c0.167,0.547-0.218,1.811,0.099,2.287
	c0.229,0.342,1.177,0.431,1.491,0.696c0.601,0.507,1.176,2.094,1.789,2.585c1.07,0.856,4.006,1.233,5.369,1.094
	c0.942-0.096,2.674-0.995,3.48-1.491c0.526-0.324,1.776-0.984,1.889-1.591c0.104-0.558-0.744-1.542-1.094-1.988
	c-0.271-0.346-1.145-0.779-1.292-1.193c-0.118-0.331-0.172-0.932-0.368-1.223C-1015.66,200.653-1015.984,199.931-1015.571,199.84z"
	/>
<linearGradient id="SVGID_15_" gradientUnits="userSpaceOnUse" x1="13486.6104" y1="139.4612" x2="13490.4561" y2="139.4612" gradientTransform="matrix(-1 0 0 1 12427.4629 0)">
	<stop  offset="0.016" style="stop-color:#932C12"/>
	<stop  offset="0.3364" style="stop-color:#D14427"/>
	<stop  offset="0.4324" style="stop-color:#CA543F"/>
	<stop  offset="0.5665" style="stop-color:#C1665B"/>
	<stop  offset="0.6445" style="stop-color:#BE6D65"/>
	<stop  offset="0.9815" style="stop-color:#460012"/>
</linearGradient>
<path opacity="0.05" fill="url(#SVGID_15_)" d="M-1061.581,136.134c0.305-0.185,0.634,0.648,0.987,0.698
	c0.276,0.039,0.61-0.141,0.847,0.005c0.244,0.15,0.448,0.745,0.514,1.023c0.066,0.279,0.155,0.906,0,1.147
	c-0.165,0.258-0.814,0.447-1.113,0.512c-0.209,0.046-0.55,0.217-0.724,0.342c-0.342,0.245-0.452,0.879-0.561,1.285
	c-0.063,0.237-0.062,0.797-0.257,0.945c-0.17,0.13-0.917,0.854-1.068,0.703c-0.152-0.152,0.212-1.348,0.212-1.563
	c0-0.556-0.055-1.671,0-2.225C-1062.679,138.355-1062.141,136.473-1061.581,136.134z"/>
<linearGradient id="SVGID_16_" gradientUnits="userSpaceOnUse" x1="13469.5303" y1="115.068" x2="13475.3457" y2="115.068" gradientTransform="matrix(-1 0 0 1 12427.4629 0)">
	<stop  offset="0.016" style="stop-color:#932C12"/>
	<stop  offset="0.3364" style="stop-color:#D14427"/>
	<stop  offset="0.4324" style="stop-color:#CA543F"/>
	<stop  offset="0.5665" style="stop-color:#C1665B"/>
	<stop  offset="0.6445" style="stop-color:#BE6D65"/>
	<stop  offset="0.9815" style="stop-color:#460012"/>
</linearGradient>
<path opacity="0.05" fill="url(#SVGID_16_)" d="M-1046.511,112.184c0.343,0.102,0.93,0.342,1.288,0.327
	c0.323-0.013,0.632-0.223,0.939-0.327c0.243-0.082,0.796-0.111,1.027,0c0.401,0.192,0.966,0.965,1.113,1.384
	c0.093,0.262,0.11,0.858,0,1.113c-0.297,0.688-1.572,1.622-2.183,2.055c-0.266,0.188-1.647,1.342-1.97,1.299
	c-0.345-0.046-0.274-1.422-0.499-1.688c-0.395-0.467-0.921-1.409-1.042-2.009c-0.108-0.536-0.034-1.803,0.385-2.154
	C-1047.272,112.033-1046.736,112.117-1046.511,112.184z"/>
<linearGradient id="SVGID_17_" gradientUnits="userSpaceOnUse" x1="13472.4375" y1="107.2271" x2="13475.4277" y2="107.2271" gradientTransform="matrix(-1 0 0 1 12427.4629 0)">
	<stop  offset="0.016" style="stop-color:#932C12"/>
	<stop  offset="0.3364" style="stop-color:#D14427"/>
	<stop  offset="0.4324" style="stop-color:#CA543F"/>
	<stop  offset="0.5665" style="stop-color:#C1665B"/>
	<stop  offset="0.6445" style="stop-color:#BE6D65"/>
	<stop  offset="0.9815" style="stop-color:#460012"/>
</linearGradient>
<path opacity="0.05" fill="url(#SVGID_17_)" d="M-1045.202,104.698c0.473-0.143,0.072,1.487,0,1.976
	c-0.065,0.442-0.217,1.378-0.514,1.713c-0.248,0.28-1.068,0.38-1.37,0.599c-0.208,0.152-0.444,0.862-0.685,0.771
	c-0.401-0.152-0.066-1.292,0-1.716c0.065-0.421,0.277-1.27,0.514-1.624C-1046.884,105.861-1045.973,104.931-1045.202,104.698z"/>
<linearGradient id="SVGID_18_" gradientUnits="userSpaceOnUse" x1="13492.7334" y1="129.318" x2="13497.7295" y2="129.318" gradientTransform="matrix(-1 0 0 1 12427.4629 0)">
	<stop  offset="0.016" style="stop-color:#932C12"/>
	<stop  offset="0.3364" style="stop-color:#D14427"/>
	<stop  offset="0.4324" style="stop-color:#CA543F"/>
	<stop  offset="0.5665" style="stop-color:#C1665B"/>
	<stop  offset="0.6445" style="stop-color:#BE6D65"/>
	<stop  offset="0.9815" style="stop-color:#460012"/>
</linearGradient>
<path opacity="0.05" fill="url(#SVGID_18_)" d="M-1065.503,127.781c0.378,0.378,0.234,1.659,0,2.141
	c-0.167,0.343-0.901,0.703-1.199,0.942c-0.237,0.19-1.7,0.13-1.82-0.15c-0.23-0.537,0.508-0.802,0.022-1.006
	c-0.253-0.106-1.372,0.412-1.629,0.315c-0.296-0.111-0.028-0.729,0.002-1.043c0.037-0.386,0.608-1.1,0.983-1.199
	c0.344-0.091,1.088,0.207,1.444,0.209c0.287,0.002,0.633-0.143,0.912-0.209C-1066.475,127.708-1065.73,127.554-1065.503,127.781z"/>
<linearGradient id="SVGID_19_" gradientUnits="userSpaceOnUse" x1="13391.4385" y1="155.5475" x2="13391.4385" y2="175.8079" gradientTransform="matrix(-1 0 0 1 12427.4629 0)">
	<stop  offset="0.016" style="stop-color:#932C12"/>
	<stop  offset="0.3364" style="stop-color:#D14427"/>
	<stop  offset="0.4324" style="stop-color:#CA543F"/>
	<stop  offset="0.5665" style="stop-color:#C1665B"/>
	<stop  offset="0.6445" style="stop-color:#BE6D65"/>
	<stop  offset="0.9815" style="stop-color:#460012"/>
</linearGradient>
<path opacity="0.03" fill="url(#SVGID_19_)" d="M-982.917,155.548c2.303,0,4.04,0.007,5.715,0.174
	c1.244,0.124,6.18,0.401,7.336,0.877c1.08,0.445,3.141,1.567,4.119,2.206c1.273,0.831,3.503,2.933,4.783,3.753
	c1.226,0.785,3.788,2.238,5.182,2.657c1.44,0.433,4.736-0.181,5.979,0.664c0.528,0.359,1.385,1.649,1.196,2.259
	c-0.233,0.752-2.211,0.929-2.79,1.462c-0.319,0.293-1.016,1.037-0.93,1.462c0.177,0.87,5.676,2.501,6.524,2.764
	c0.19,0.059,0.711-0.179,0.797,0c0.255,0.529-0.933,1.584-1.462,1.84c-0.598,0.289-4.936,0.051-5.6,0.051
	c-0.864,0-3.292-0.53-4.112-0.801c-1.217-0.402-3.172-2.192-4.119-3.056c-0.626-0.571-1.887-1.764-2.259-2.525
	c-0.326-0.667-0.135-2.295-0.531-2.923c-0.312-0.494-1.412-1.037-1.894-1.367c-1.397-0.956-4.232-2.806-5.679-3.682
	c-1.142-0.691-3.452-2.035-4.651-2.623c-0.712-0.349-2.157-1.025-2.923-1.231c-0.76-0.204-3.11-0.534-3.699-1.056
	C-982.185,156.233-983.249,155.548-982.917,155.548z"/>
<linearGradient id="SVGID_20_" gradientUnits="userSpaceOnUse" x1="13353.2842" y1="187.8263" x2="13353.2842" y2="206.7884" gradientTransform="matrix(-1 0 0 1 12427.4629 0)">
	<stop  offset="0.016" style="stop-color:#932C12"/>
	<stop  offset="0.3364" style="stop-color:#D14427"/>
	<stop  offset="0.4324" style="stop-color:#CA543F"/>
	<stop  offset="0.5665" style="stop-color:#C1665B"/>
	<stop  offset="0.6445" style="stop-color:#BE6D65"/>
	<stop  offset="0.9815" style="stop-color:#460012"/>
</linearGradient>
<path opacity="0.03" fill="url(#SVGID_20_)" d="M-939.381,188.293c0.741,0.678,3.812,3.239,4.568,3.901
	c0.783,0.685,2.735,1.529,3.72,1.86c1.89,0.635,5.099,1.179,6.373,2.713c0.552,0.664,0.802,1.784,0.802,2.648
	c0,0.664,0.502,1.569,0.665,2.214c0.12,0.476,0.544,1.425,0.93,1.727c0.729,0.572,9.193,3.457,10.12,3.434v-2.921
	c0.458-1.432-1.291-2.463-2.379-4.123c-1.176-1.796-1.772-3.709-2.16-4.096c-0.542-0.542-2.229-0.603-2.923-0.93
	c-1.609-0.758-3.315-3.347-4.825-4.286c-0.558-0.348-2.782-0.724-3.409-0.922C-930.092,188.819-940.831,186.967-939.381,188.293z"/>
<linearGradient id="SVGID_21_" gradientUnits="userSpaceOnUse" x1="13466.5283" y1="183.6129" x2="13466.5283" y2="191.4213" gradientTransform="matrix(-1 0 0 1 12427.4629 0)">
	<stop  offset="0.016" style="stop-color:#932C12"/>
	<stop  offset="0.3364" style="stop-color:#D14427"/>
	<stop  offset="0.4324" style="stop-color:#CA543F"/>
	<stop  offset="0.5665" style="stop-color:#C1665B"/>
	<stop  offset="0.6445" style="stop-color:#BE6D65"/>
	<stop  offset="0.9815" style="stop-color:#460012"/>
</linearGradient>
<path opacity="0.03" fill="url(#SVGID_21_)" d="M-1044.756,183.67c-1.57,0.383,5.792,4.008,7.097,4.961
	c1.07,0.781,4.503,2.79,4.503,2.79v-5.183c0,0-4.323-1.574-5.832-1.802C-1039.875,184.302-1043.55,183.376-1044.756,183.67z"/>
<linearGradient id="SVGID_22_" gradientUnits="userSpaceOnUse" x1="13528.5625" y1="162.573" x2="13542.4541" y2="162.573" gradientTransform="matrix(-1 0 0 1 12427.4629 0)">
	<stop  offset="0.016" style="stop-color:#932C12"/>
	<stop  offset="0.3364" style="stop-color:#D14427"/>
	<stop  offset="0.4324" style="stop-color:#CA543F"/>
	<stop  offset="0.5665" style="stop-color:#C1665B"/>
	<stop  offset="0.6445" style="stop-color:#BE6D65"/>
	<stop  offset="0.9815" style="stop-color:#460012"/>
</linearGradient>
<path opacity="0.05" fill="url(#SVGID_22_)" d="M-1101.255,157.244c0.409,0.129-0.108,1.567-0.174,1.991
	c-0.144,0.927-0.839,1.924-1.562,2.521c-2.048,1.69-6.985,3.833-9.372,4.998c-0.614,0.3-1.926,1.483-2.499,1.111
	c-0.218-0.142-0.12-0.81,0-1.041c0.371-0.719,1.959-1.435,2.638-1.874c1.267-0.82,4.029-2.11,5.206-3.054
	c0.622-0.499,1.608-1.78,2.221-2.291C-1103.978,158.923-1102.27,156.924-1101.255,157.244z"/>
<linearGradient id="SVGID_23_" gradientUnits="userSpaceOnUse" x1="13514.3447" y1="160.5637" x2="13518.1904" y2="160.5637" gradientTransform="matrix(-1 0 0 1 12427.4629 0)">
	<stop  offset="0.016" style="stop-color:#932C12"/>
	<stop  offset="0.3364" style="stop-color:#D14427"/>
	<stop  offset="0.4324" style="stop-color:#CA543F"/>
	<stop  offset="0.5665" style="stop-color:#C1665B"/>
	<stop  offset="0.6445" style="stop-color:#BE6D65"/>
	<stop  offset="0.9815" style="stop-color:#460012"/>
</linearGradient>
<path opacity="0.05" fill="url(#SVGID_23_)" d="M-1089.316,157.236c0.305-0.185,0.634,0.648,0.987,0.698
	c0.276,0.039,0.61-0.141,0.846,0.005c0.244,0.15,0.448,0.745,0.514,1.023c0.066,0.279,0.155,0.906,0,1.147
	c-0.165,0.258-0.814,0.447-1.113,0.512c-0.209,0.046-0.55,0.217-0.724,0.342c-0.342,0.245-0.452,0.879-0.561,1.285
	c-0.063,0.237-0.062,0.797-0.257,0.945c-0.17,0.13-0.917,0.854-1.068,0.703c-0.152-0.152,0.212-1.348,0.212-1.563
	c0-0.556-0.055-1.671,0-2.225C-1090.414,159.458-1089.876,157.576-1089.316,157.236z"/>
<linearGradient id="SVGID_24_" gradientUnits="userSpaceOnUse" x1="13474.1309" y1="158.411" x2="13484.3604" y2="148.1812" gradientTransform="matrix(-1 0 0 1 12427.4629 0)">
	<stop  offset="0.016" style="stop-color:#932C12"/>
	<stop  offset="0.3364" style="stop-color:#D14427"/>
	<stop  offset="0.4324" style="stop-color:#CA543F"/>
	<stop  offset="0.5665" style="stop-color:#C1665B"/>
	<stop  offset="0.6445" style="stop-color:#BE6D65"/>
	<stop  offset="0.9815" style="stop-color:#460012"/>
</linearGradient>
<path opacity="0.03" fill="url(#SVGID_24_)" d="M-1035.191,137.304c0,0-1.183,0.9-1.761,1.142c-1.614,0.676-3.491,2.553-5.16,2.821
	c-1.076,0.173-1.311,0.605-2.379,2.04c-0.268,0.36-2.643,2.091-2.678,1.045c-0.046-1.377,0.46-2.636-0.532-1.616
	c-0.588,0.605-1.523,2.881,0.517,3.816c0.894,0.41,4.157,0.262,4.888,0.92c0.455,0.409,1.194,1.659,1.118,3.172
	c-0.051,1.013-1.935-1.764-2.931-1.954c-0.672-0.129-3.126-0.549-3.801-0.437c-0.712,0.118-2.532,0.857-3.191,1.506
	c-0.462,0.454,3.039,0.508,3.542,0.916c0.709,0.575,0.652,1.037,0.894,1.917c0.284,1.033-0.856,1.457-1.426,4.727
	c-0.154,0.884-0.227,2.584-1.1,3.613c-0.658,0.775-0.784-4.027-1.25-3.124c-0.766,1.486-2.605,5.797-3.674,6.547
	c-0.595,0.417-2.228-0.264-2.904,0c-0.864,0.337-2.032,1.902-2.733,2.509c-1.432,1.241-6.597,6.549-5.87,4.798
	c0.785-1.89,1.788-2.642,2.053-3.656c0.569-2.176-0.403-6.783,0-8.996c0.251-1.38,1.103-4.154,1.794-5.374
	c0.477-0.844,1.718-2.493,2.591-2.915c0.751-0.363,2.744-0.514,3.464-0.934c1.133-0.659,3.072-4.713,3.841-5.774
	c1.086-1.5,2.46-3.708,3.558-4.188c0.497-0.217,2.386,1.001,3.15,0.862c0.991-0.18,2.828-1.089,3.628-1.701
	c1.32-1.011,2.521-2.903,3.036-2.902C-1038.163,136.087-1035.769,136.726-1035.191,137.304z"/>
<linearGradient id="SVGID_25_" gradientUnits="userSpaceOnUse" x1="13440.417" y1="173.0648" x2="13477.9551" y2="151.3925" gradientTransform="matrix(-1 0 0 1 12427.4629 0)">
	<stop  offset="0.016" style="stop-color:#932C12"/>
	<stop  offset="0.3364" style="stop-color:#D14427"/>
	<stop  offset="0.4324" style="stop-color:#CA543F"/>
	<stop  offset="0.5665" style="stop-color:#C1665B"/>
	<stop  offset="0.6445" style="stop-color:#BE6D65"/>
	<stop  offset="0.9815" style="stop-color:#460012"/>
</linearGradient>
<path opacity="0.03" fill="url(#SVGID_25_)" d="M-998.493,147.722c-1.647-0.399-5.296-0.517-6.438-0.087
	c-2.151,0.81-5.803,3.739-7.836,4.813c-1.339,0.707-4.38,1.49-5.53,2.476c-0.953,0.817-1.649,3.574-2.73,4.213
	c-0.737,0.436-1.717,0.032-2.566,0.14c-1.326,0.168-4.814,0.737-6.11,1.064c-1.888,0.476-5.874,1.206-7.406,2.408
	c-0.836,0.656-1.438,2.914-2.24,3.611c-0.843,0.733-3.179,1.157-4.089,1.806c-1.252,0.894-2.821,3.798-4.183,4.514
	c-1.701,0.894-5.718,0.748-7.605,1.108c-1.249,0.238-6.435,1.445-9.753,2.807c-1.114,0.457,7.083-0.219,9.316,0.049
	c1.274,0.153,5.516,1.186,6.799,1.139c1.322-0.048,1.508-1.678,2.825-1.552c0.589,0.057,1.617,0.048,2.195,0.172
	c0.685,0.147,2.074,0.135,2.677-0.223c0.461-0.275,2.929-0.17,2.732-0.669c-0.203-0.516-4.213-0.069-3.755-0.38
	c2.2-1.495,5.594-1.607,7.32-2.475c2.157-1.085,5.972-4.1,7.94-5.499c1.283-0.912,3.539-3.423,5.087-3.712
	c0.524-0.098,0.818,0.417,1.352,0.397c3.178-0.122,6.556-1.79,6.839-3.559c0.122-0.76-3.515-1.124-2.855-1.52
	c1.41-0.846,2.245-2.684,2.855-3.154c1.556-1.201,5.651-2.076,7.07-3.437c0.732-0.703,0.254-2.023,1.15-2.499
	c0.61-0.324,2.882-0.545,3.524-0.8C-1001.273,148.62-997.673,147.921-998.493,147.722z"/>
<linearGradient id="SVGID_26_" gradientUnits="userSpaceOnUse" x1="1105.6516" y1="7437.8657" x2="1125.2104" y2="7437.8657" gradientTransform="matrix(0.0023 1 -1 0.0023 6462.666 -945.074)">
	<stop  offset="0.016" style="stop-color:#932C12"/>
	<stop  offset="0.3364" style="stop-color:#D14427"/>
	<stop  offset="0.4324" style="stop-color:#CA543F"/>
	<stop  offset="0.5665" style="stop-color:#C1665B"/>
	<stop  offset="0.6445" style="stop-color:#BE6D65"/>
	<stop  offset="0.9815" style="stop-color:#460012"/>
</linearGradient>
<path opacity="0.03" fill="url(#SVGID_26_)" d="M-967.618,184.168c-0.479,0.516-1.211,1.987-0.963,2.646
	c0.144,0.383,1.025,0.759,1.432,0.79c0.279,0.021,0.82-0.548,1.05-0.389c0.237,0.164,0.157,0.909,0.003,1.153
	c-0.474,0.747-2.331,1.352-3.203,1.499c-0.785,0.132-2.375-0.259-3.168-0.332c-1.139-0.104-3.503-0.789-4.562-0.357
	c-0.405,0.165-1.224,0.888-1.149,1.319c0.089,0.518,1.561,0.583,1.833,1.033c0.345,0.572-0.023,2.009,0.074,2.67
	c0.095,0.645,0.999,1.946,0.684,2.517c-0.231,0.419-1.369,0.687-1.829,0.559c-0.416-0.116-0.831-1-1.156-1.285
	c-0.372-0.326-1.137-1.08-1.63-1.122c-0.428-0.036-1.151,0.584-1.558,0.722c-0.296,0.101-1.22,0.274-1.22,0.274l0.156-11.661
	c0,0,1.628,0.847,2.168,0.673c0.649-0.208,1.207-1.652,1.646-2.173c0.479-0.569,1.445-1.713,2.029-2.174
	c0.703-0.555,2.271-1.47,3.115-1.77c1.473-0.523,4.604-1.054,6.167-1.031c0.865,0.013,2.598,0.332,3.394,0.67
	c0.571,0.243,2.085,0.801,2.035,1.419c-0.035,0.431-1.129,0.695-1.558,0.749c-0.844,0.106-2.489-0.738-3.337-0.67
	c-1.456,0.116-4.388,1.068-5.473,2.047c-0.422,0.381-1.1,1.475-1.012,2.036c0.044,0.28,0.508,0.779,0.789,0.812
	c0.407,0.047,0.975-0.826,1.38-0.885c0.297-0.043,0.855,0.373,1.153,0.336c0.5-0.062,1.247-0.915,1.74-1.021
	c0.61-0.131,2.383-0.351,2.482,0.265C-966.042,183.896-967.336,183.864-967.618,184.168z"/>
<linearGradient id="SVGID_27_" gradientUnits="userSpaceOnUse" x1="-805.1445" y1="106.7506" x2="-791.2224" y2="106.7506">
	<stop  offset="0.016" style="stop-color:#932C12"/>
	<stop  offset="0.3364" style="stop-color:#D14427"/>
	<stop  offset="0.4324" style="stop-color:#CA543F"/>
	<stop  offset="0.5665" style="stop-color:#C1665B"/>
	<stop  offset="0.6445" style="stop-color:#BE6D65"/>
	<stop  offset="0.9815" style="stop-color:#460012"/>
</linearGradient>
<path opacity="0.05" fill="url(#SVGID_27_)" d="M-802.267,104.089c-0.29,0.164-0.312,1.016-0.595,1.191
	c-0.38,0.235-1.152-1.03-2.102-1.438c-0.479-0.206,0.122,3.038,0.315,3.522c0.24,0.603,1.225,1.56,1.786,1.886
	c0.817,0.474,2.785,0.568,3.672,0.893c0.573,0.21,1.589,0.951,2.183,1.092c1.135,0.268,4.152,0.313,5.689,0.023
	c0.724-0.137-2.852-1.271-3.505-1.611c-0.523-0.272-1.792-0.451-2.183-0.893c-0.188-0.212-0.423-0.838-0.298-1.092
	c0.228-0.463,1.356-0.795,1.687-1.191c0.263-0.315,0.634-1.082,0.695-1.489c0.105-0.702,0.139-2.344-0.397-2.809
	c-0.393-0.342-0.851,0.087-1.311,0.331c-0.431,0.229-0.879,0.804-1.261,1.108c-0.27,0.215-1.565,0.753-1.907,0.803
	C-800.415,104.504-801.725,103.783-802.267,104.089z"/>
<linearGradient id="SVGID_28_" gradientUnits="userSpaceOnUse" x1="-818.8278" y1="60.4459" x2="-802.8636" y2="60.4459">
	<stop  offset="0.016" style="stop-color:#932C12"/>
	<stop  offset="0.3364" style="stop-color:#D14427"/>
	<stop  offset="0.4324" style="stop-color:#CA543F"/>
	<stop  offset="0.5665" style="stop-color:#C1665B"/>
	<stop  offset="0.6445" style="stop-color:#BE6D65"/>
	<stop  offset="0.9815" style="stop-color:#460012"/>
</linearGradient>
<path opacity="0.05" fill="url(#SVGID_28_)" d="M-816.776,54.765c0.893,0.014,2.605,0.588,3.212,1.243
	c0.711,0.768,1.582,2.235,2.072,3.16c0.639,1.207,2.905,3.301,3.885,4.01c0.993,0.718,2.83,1.143,4.61,2.646
	c0.828,0.699-2.435,0.368-3.34,0c-0.882-0.359-2.666-1.043-3.495-1.51c-2.206-1.243-6.871-3.75-8.251-5.873
	c-0.459-0.705-0.929-2.497-0.671-3.298C-818.503,54.363-817.596,54.753-816.776,54.765z"/>
<linearGradient id="SVGID_29_" gradientUnits="userSpaceOnUse" x1="-685.9268" y1="51.3977" x2="-663.2413" y2="51.3977">
	<stop  offset="0.016" style="stop-color:#932C12"/>
	<stop  offset="0.3364" style="stop-color:#D14427"/>
	<stop  offset="0.4324" style="stop-color:#CA543F"/>
	<stop  offset="0.5665" style="stop-color:#C1665B"/>
	<stop  offset="0.6445" style="stop-color:#BE6D65"/>
	<stop  offset="0.9815" style="stop-color:#460012"/>
</linearGradient>
<path opacity="0.03" fill="url(#SVGID_29_)" d="M-685.851,47.833c0.325-0.509,1.772-0.395,2.373-0.452
	c0.872-0.082,2.674,0.281,3.503,0c1.145-0.388,2.627-0.979,3.163-2.063c0.275-0.557,3.11-0.128,3.682,0.115
	c1.541,0.656,2.05,0.656,9.767,6.468c0.495,0.373-0.645,1.764-1.017,2.26c-0.914,1.218-1.711,1.803-3.14,2.33
	c-2.306,0.85-6.004,2.125-7.765,0.41c-0.769-0.749-5.705-2.118-6.187-3.078c-0.862-1.716-2.811-2.62-3.927-4.183
	C-685.67,49.262-686.102,48.226-685.851,47.833z"/>
<linearGradient id="SVGID_30_" gradientUnits="userSpaceOnUse" x1="-683.1758" y1="43.029" x2="-637.1754" y2="43.029">
	<stop  offset="0.016" style="stop-color:#932C12"/>
	<stop  offset="0.3364" style="stop-color:#D14427"/>
	<stop  offset="0.4324" style="stop-color:#CA543F"/>
	<stop  offset="0.5665" style="stop-color:#C1665B"/>
	<stop  offset="0.6445" style="stop-color:#BE6D65"/>
	<stop  offset="0.9815" style="stop-color:#460012"/>
</linearGradient>
<polygon opacity="0.05" fill="url(#SVGID_30_)" points="-683.176,34.599 -678.888,33.945 -672.566,30.384 -670.386,29.73 
	-665.808,32.165 -655.852,38.015 -655.343,45.5 -647.277,46.372 -646.114,45.572 -640.809,47.971 -638.556,49.787 -639.646,51.604 
	-639.283,53.055 -637.175,55.165 -638.047,56.328 -642.044,56.328 -647.277,55.165 -656.506,48.479 -661.52,47.026 -660.503,44.628 
	-675.618,42.012 -674.237,38.233 -673.947,36.198 -676.272,35.399 -680.705,36.489 -683.176,35.835 "/>
<linearGradient id="SVGID_31_" gradientUnits="userSpaceOnUse" x1="-585.9199" y1="125.4982" x2="-582.0536" y2="125.4982">
	<stop  offset="0.016" style="stop-color:#932C12"/>
	<stop  offset="0.3364" style="stop-color:#D14427"/>
	<stop  offset="0.4324" style="stop-color:#CA543F"/>
	<stop  offset="0.5665" style="stop-color:#C1665B"/>
	<stop  offset="0.6445" style="stop-color:#BE6D65"/>
	<stop  offset="0.9815" style="stop-color:#460012"/>
</linearGradient>
<path opacity="0.05" fill="url(#SVGID_31_)" d="M-585.626,122.227c-0.612-0.185-0.093,1.924,0,2.556
	c0.084,0.572,0.281,1.782,0.664,2.215c0.321,0.362,1.381,0.491,1.772,0.775c0.27,0.196,0.574,1.115,0.886,0.997
	c0.519-0.197,0.085-1.671,0-2.219c-0.084-0.544-0.358-1.642-0.664-2.1C-583.451,123.731-584.63,122.528-585.626,122.227z"/>
<linearGradient id="SVGID_32_" gradientUnits="userSpaceOnUse" x1="-599.4103" y1="106.7506" x2="-592.9485" y2="106.7506">
	<stop  offset="0.016" style="stop-color:#932C12"/>
	<stop  offset="0.3364" style="stop-color:#D14427"/>
	<stop  offset="0.4324" style="stop-color:#CA543F"/>
	<stop  offset="0.5665" style="stop-color:#C1665B"/>
	<stop  offset="0.6445" style="stop-color:#BE6D65"/>
	<stop  offset="0.9815" style="stop-color:#460012"/>
</linearGradient>
<path opacity="0.05" fill="url(#SVGID_32_)" d="M-599.109,104.763c-0.489,0.489-0.303,2.146,0,2.768
	c0.215,0.443,1.166,0.91,1.55,1.218c0.307,0.246,2.199,0.168,2.354-0.194c0.298-0.695-0.657-1.037-0.028-1.301
	c0.327-0.137,1.774,0.532,2.107,0.408c0.383-0.144,0.037-0.942-0.003-1.349c-0.048-0.499-0.787-1.423-1.271-1.55
	c-0.445-0.117-1.407,0.267-1.868,0.27c-0.371,0.002-0.818-0.184-1.18-0.27C-597.852,104.668-598.816,104.47-599.109,104.763z"/>
<linearGradient id="SVGID_33_" gradientUnits="userSpaceOnUse" x1="13243.6299" y1="43.029" x2="13264.916" y2="43.029" gradientTransform="matrix(-1 0 0 1 12427.4629 0)">
	<stop  offset="0.016" style="stop-color:#932C12"/>
	<stop  offset="0.3364" style="stop-color:#D14427"/>
	<stop  offset="0.4324" style="stop-color:#CA543F"/>
	<stop  offset="0.5665" style="stop-color:#C1665B"/>
	<stop  offset="0.6445" style="stop-color:#BE6D65"/>
	<stop  offset="0.9815" style="stop-color:#460012"/>
</linearGradient>
<path opacity="0.03" fill="url(#SVGID_33_)" d="M-816.167,37.254c0,0-3.435-2.913-3.967-4.269c-0.276-0.702,0.333-2.341,0-3.018
	c-0.297-0.604-1.468-1.541-2.134-1.642c-0.452-0.068-1.562,0.205-1.713,0.636c-0.127,0.362,0.662,0.952,0.789,1.314
	c0.317,0.902,0.285,2.862,0.513,3.79c0.26,1.061,1.297,3.034,1.486,4.11c0.06,0.342,0.312,1.236,0,1.389
	c-0.891,0.437-2.458-1.685-3.23-2.31c-0.459-0.372-1.261-1.254-1.744-1.595c-1.163-0.821-3.657-2.287-5.027-2.674
	c-0.866-0.244-2.72-0.445-3.591-0.221c-0.765,0.197-2.701,0.901-2.667,1.69c0.028,0.652,1.682,1.05,2.316,1.205
	c0.811,0.198,2.565-0.308,3.341,0c0.784,0.311,2.251,1.493,2.458,2.31c0.133,0.524-0.329,1.642-0.681,2.052
	c-0.478,0.557-2.418,0.632-2.612,1.339c-0.192,0.698,1.138,1.851,1.539,2.454c0.784,1.181,2.447,3.477,3.259,4.638
	c1.345,1.924,3.431,6.372,5.359,7.711c1.308,0.908,6.169,1.579,6.169,1.579L-816.167,37.254z"/>
<linearGradient id="SVGID_34_" gradientUnits="userSpaceOnUse" x1="13238.3086" y1="104.6089" x2="13254.2725" y2="104.6089" gradientTransform="matrix(-1 0 0 1 12427.4629 0)">
	<stop  offset="0.016" style="stop-color:#932C12"/>
	<stop  offset="0.3364" style="stop-color:#D14427"/>
	<stop  offset="0.4324" style="stop-color:#CA543F"/>
	<stop  offset="0.5665" style="stop-color:#C1665B"/>
	<stop  offset="0.6445" style="stop-color:#BE6D65"/>
	<stop  offset="0.9815" style="stop-color:#460012"/>
</linearGradient>
<path opacity="0.05" fill="url(#SVGID_34_)" d="M-812.897,98.929c-0.893,0.014-2.605,0.588-3.212,1.243
	c-0.711,0.768-1.582,2.235-2.072,3.16c-0.639,1.207-2.905,3.301-3.885,4.01c-0.993,0.718-2.83,1.143-4.61,2.646
	c-0.828,0.699,2.435,0.368,3.34,0c0.882-0.359,2.666-1.043,3.495-1.51c2.206-1.243,6.871-3.75,8.251-5.873
	c0.459-0.705,0.929-2.497,0.671-3.298C-811.17,98.527-812.078,98.916-812.897,98.929z"/>
<linearGradient id="SVGID_35_" gradientUnits="userSpaceOnUse" x1="13096.5469" y1="116.1839" x2="13130.2334" y2="116.1839" gradientTransform="matrix(-1 0 0 1 12427.4629 0)">
	<stop  offset="0.016" style="stop-color:#932C12"/>
	<stop  offset="0.3364" style="stop-color:#D14427"/>
	<stop  offset="0.4324" style="stop-color:#CA543F"/>
	<stop  offset="0.5665" style="stop-color:#C1665B"/>
	<stop  offset="0.6445" style="stop-color:#BE6D65"/>
	<stop  offset="0.9815" style="stop-color:#460012"/>
</linearGradient>
<path opacity="0.05" fill="url(#SVGID_35_)" d="M-669.196,110.89c-0.483-0.756-2.631-0.587-3.524-0.671
	c-1.295-0.122-3.97,0.417-5.202,0c-1.701-0.576-3.901-1.454-4.697-3.063c-0.409-0.827-4.618-0.191-5.467,0.171
	c-2.288,0.975-3.045,0.975-14.503,9.604c-0.735,0.554,0.958,2.62,1.51,3.356c1.357,1.809,2.541,2.677,4.663,3.46
	c3.424,1.263,8.915,3.156,11.53,0.609c1.142-1.113,8.472-3.145,9.188-4.57c1.279-2.548,4.174-3.891,5.831-6.211
	C-669.465,113.012-668.823,111.473-669.196,110.89z"/>
<linearGradient id="SVGID_36_" gradientUnits="userSpaceOnUse" x1="13203.7686" y1="172.0139" x2="13328.3467" y2="172.0139" gradientTransform="matrix(-1 0 0 1 12427.4629 0)">
	<stop  offset="0.016" style="stop-color:#932C12"/>
	<stop  offset="0.3364" style="stop-color:#D14427"/>
	<stop  offset="0.4324" style="stop-color:#CA543F"/>
	<stop  offset="0.5665" style="stop-color:#C1665B"/>
	<stop  offset="0.6445" style="stop-color:#BE6D65"/>
	<stop  offset="0.9815" style="stop-color:#460012"/>
</linearGradient>
<path opacity="0.03" fill="url(#SVGID_36_)" d="M-776.336,150.205c-1.631-1.899-12.502-0.784-14.869-1.6
	c-3.96-1.366-10.744-6.583-14.599-8.222c-1.209-0.514-3.727-1.64-5.034-1.51c-2.979,0.295-5.162,5.658-7.774,7.12
	c-5.818,3.254-22.281,6.34-25.786,12.01c-2.277,3.684,1.826,14.161-1.175,17.284c-3.245,3.377-13.609,4.467-18.15,3.321
	c-0.79-0.199-2.35-3.081-3.161-3.153c-3.348-0.298-9.387,3.776-12.25,5.537c-1.423,0.876-4.91,2.55-5.202,4.195
	c-0.214,1.204,2.337,2.985,2.517,4.195c0.127,0.854-1.956,3.464-2.381,4.215c-0.848,1.498-16.563,3.713-16.685,5.43
	c-0.059,0.837,3.086,3.844,3.836,4.219c2.064,1.032,12.03,2.138,14.324,1.886c3.076-0.338,18.286-3.32,21.108-4.59
	c5.999-2.699,12.817-15.488,18.728-18.376c2.708-1.323,10.284-0.634,11.578-3.356c0.646-1.358-3.801-5.145-2.349-5.537
	c11.601-3.137,24.241-0.933,34.903-6.041c2.095-1.003-2.622-6.473-3.188-8.726c-0.289-1.151-1.29-3.686-0.671-4.698
	c0.741-1.211,3.952-1.782,5.37-1.846c2.633-0.119,7.601,2.54,10.236,2.517c1.475-0.013,4.805-0.341,5.705-1.51
	C-780.869,152.402-775.871,150.746-776.336,150.205z"/>
<linearGradient id="SVGID_37_" gradientUnits="userSpaceOnUse" x1="13144.2246" y1="154.8892" x2="13219.4883" y2="198.3432" gradientTransform="matrix(-1 0 0 1 12427.4629 0)">
	<stop  offset="0.016" style="stop-color:#932C12"/>
	<stop  offset="0.3364" style="stop-color:#D14427"/>
	<stop  offset="0.4324" style="stop-color:#CA543F"/>
	<stop  offset="0.5665" style="stop-color:#C1665B"/>
	<stop  offset="0.6445" style="stop-color:#BE6D65"/>
	<stop  offset="0.9815" style="stop-color:#460012"/>
</linearGradient>
<path opacity="0.03" fill="url(#SVGID_37_)" d="M-735.895,150.986c2.756-0.606,8.819,5.947,11.464,6.93
	c1.902,0.707,6.511-0.748,8.1,0.514c0.526,0.418,0.851,1.905,0.771,2.571c-0.053,0.443-0.985,1.105-0.9,1.543
	c0.155,0.798,1.856,1.605,2.571,1.99c0.748,0.402,2.568,0.545,3.214,1.096c0.415,0.354,0.763,1.448,1.021,1.929
	c0.415,0.774,1.826,2.22,1.679,3.086c-0.153,0.897-0.689,3.011-1.318,3.669c-0.663,0.693-0.616,6.553-2.497,4.369
	c-1.237-1.437-3.155-5.701-3.9-6.623c-0.657-0.814-1.942-2.707-2.957-2.957c-0.523-0.129-1.521,0.594-2.057,0.643
	c-1.322,0.12-3.994-0.28-5.271-0.643c-0.443-0.126-1.344-1.095-1.671-0.771c-0.451,0.445,0.688,1.781,1.029,2.314
	c0.368,0.576,1.506,1.44,1.8,2.057c0.491,1.031,7.07,9.519,7.07,9.519s-11.391-0.01-14.088,0.034
	c-1.062,0.017-4.245,0.159-4.245,0.159s-4.292-2.531-5.083-2.756c-1.028-0.292-3.562-1.272-4.625-1.156
	c-1.669,0.181-1.893-1.206-3.458-1.815c-0.403-0.157-1.126-0.854-1.157-1.286c-0.05-0.694,1.102-1.777,1.543-2.314
	c0.375-0.457,1.671-1.081,1.671-1.671c0-2-3.85-4.801-5.657-5.657c-0.292-0.138-0.983-0.242-1.286-0.129
	c-1.277,0.48-2.68,3.113-3.729,3.986c-1.467,1.22-4.664,3.388-6.429,4.114c-4.469,1.839-15.649,1.177-15.649,1.177l-12.587,1.328
	l-10.509,3.043c0,0,7.29-6.771,10.272-8.124c1.165-0.529,2.067-0.525,5.778-1.171c3.335-0.58,7.7,1.603,10.866,0.405
	c2.06-0.78,5.965-2.927,8.1-3.471c0.657-0.168,2.244,0.245,2.7-0.257c0.357-0.393,0.187-1.627,0-2.124
	c-0.412-1.098-5.466-0.755-5.374-1.924c0.04-0.501,3.098-1.613,3.589-1.716c1.145-0.242,3.574,0.046,4.742,0.108
	c1.303,0.069,3.944-0.385,5.143-0.9c1.14-0.49,3.521-1.807,3.986-2.957c0.293-0.725-0.18-2.379-0.514-3.086
	c-0.292-0.618-1.291-1.601-1.8-2.057c-0.292-0.262-1.346-0.512-1.286-0.9c0.083-0.532,1.519-0.674,2.057-0.643
	c0.948,0.055,2.758,0.916,3.471,1.543c0.51,0.447,1.217,1.666,1.414,2.314c0.216,0.708-0.282,2.342,0.129,2.957
	c0.295,0.442,1.522,0.557,1.929,0.9c0.777,0.656,1.521,2.708,2.314,3.343c1.383,1.107,5.181,1.595,6.943,1.414
	c1.218-0.125,3.458-1.286,4.5-1.929c0.68-0.419,2.297-1.272,2.443-2.057c0.134-0.721-0.962-1.994-1.414-2.571
	c-0.351-0.448-1.481-1.007-1.671-1.543c-0.152-0.428-0.222-1.205-0.476-1.582C-736.009,152.038-736.429,151.103-735.895,150.986z"/>
<linearGradient id="SVGID_38_" gradientUnits="userSpaceOnUse" x1="13211.2666" y1="91.4705" x2="13216.2402" y2="91.4705" gradientTransform="matrix(-1 0 0 1 12427.4629 0)">
	<stop  offset="0.016" style="stop-color:#932C12"/>
	<stop  offset="0.3364" style="stop-color:#D14427"/>
	<stop  offset="0.4324" style="stop-color:#CA543F"/>
	<stop  offset="0.5665" style="stop-color:#C1665B"/>
	<stop  offset="0.6445" style="stop-color:#BE6D65"/>
	<stop  offset="0.9815" style="stop-color:#460012"/>
</linearGradient>
<path opacity="0.05" fill="url(#SVGID_38_)" d="M-786.951,87.167c0.395-0.239,0.82,0.838,1.277,0.903
	c0.356,0.051,0.788-0.182,1.095,0.006c0.315,0.194,0.579,0.963,0.664,1.324c0.086,0.361,0.2,1.171,0,1.484
	c-0.214,0.334-1.053,0.578-1.44,0.662c-0.27,0.059-0.711,0.281-0.936,0.442c-0.442,0.317-0.584,1.137-0.725,1.662
	c-0.082,0.306-0.081,1.03-0.332,1.222c-0.22,0.168-1.186,1.105-1.381,0.909c-0.197-0.197,0.274-1.743,0.274-2.021
	c0-0.719-0.071-2.161,0-2.877C-788.371,90.04-787.675,87.606-786.951,87.167z"/>
<linearGradient id="SVGID_39_" gradientUnits="userSpaceOnUse" x1="13265.5205" y1="72.2001" x2="13273.04" y2="72.2001" gradientTransform="matrix(-1 0 0 1 12427.4629 0)">
	<stop  offset="0.016" style="stop-color:#932C12"/>
	<stop  offset="0.3364" style="stop-color:#D14427"/>
	<stop  offset="0.4324" style="stop-color:#CA543F"/>
	<stop  offset="0.5665" style="stop-color:#C1665B"/>
	<stop  offset="0.6445" style="stop-color:#BE6D65"/>
	<stop  offset="0.9815" style="stop-color:#460012"/>
</linearGradient>
<path opacity="0.05" fill="url(#SVGID_39_)" d="M-843.803,68.471c0.444,0.132,1.203,0.442,1.665,0.422
	c0.418-0.017,0.818-0.289,1.214-0.422c0.315-0.106,1.029-0.144,1.329,0c0.518,0.248,1.249,1.248,1.44,1.79
	c0.12,0.339,0.143,1.109,0,1.44c-0.385,0.89-2.033,2.097-2.824,2.658c-0.343,0.243-2.13,1.736-2.548,1.68
	c-0.447-0.059-0.354-1.839-0.645-2.183c-0.51-0.604-1.192-1.822-1.347-2.598c-0.139-0.694-0.044-2.332,0.498-2.786
	C-844.788,68.275-844.095,68.384-843.803,68.471z"/>
<linearGradient id="SVGID_40_" gradientUnits="userSpaceOnUse" x1="13230.4961" y1="63.728" x2="13234.3623" y2="63.728" gradientTransform="matrix(-1 0 0 1 12427.4629 0)">
	<stop  offset="0.016" style="stop-color:#932C12"/>
	<stop  offset="0.3364" style="stop-color:#D14427"/>
	<stop  offset="0.4324" style="stop-color:#CA543F"/>
	<stop  offset="0.5665" style="stop-color:#C1665B"/>
	<stop  offset="0.6445" style="stop-color:#BE6D65"/>
	<stop  offset="0.9815" style="stop-color:#460012"/>
</linearGradient>
<path opacity="0.05" fill="url(#SVGID_40_)" d="M-803.327,60.457c0.612-0.185,0.093,1.924,0,2.556
	c-0.084,0.572-0.281,1.782-0.664,2.215c-0.321,0.362-1.381,0.491-1.772,0.775c-0.27,0.196-0.574,1.115-0.886,0.997
	c-0.519-0.197-0.085-1.671,0-2.219c0.084-0.544,0.358-1.642,0.664-2.1C-805.502,61.961-804.323,60.758-803.327,60.457z"/>
<linearGradient id="SVGID_41_" gradientUnits="userSpaceOnUse" x1="13219.1846" y1="78.3529" x2="13225.6465" y2="78.3529" gradientTransform="matrix(-1 0 0 1 12427.4629 0)">
	<stop  offset="0.016" style="stop-color:#932C12"/>
	<stop  offset="0.3364" style="stop-color:#D14427"/>
	<stop  offset="0.4324" style="stop-color:#CA543F"/>
	<stop  offset="0.5665" style="stop-color:#C1665B"/>
	<stop  offset="0.6445" style="stop-color:#BE6D65"/>
	<stop  offset="0.9815" style="stop-color:#460012"/>
</linearGradient>
<path opacity="0.05" fill="url(#SVGID_41_)" d="M-792.023,76.366c0.489,0.489,0.303,2.146,0,2.768
	c-0.216,0.443-1.166,0.91-1.55,1.218c-0.307,0.246-2.199,0.168-2.354-0.194c-0.298-0.695,0.657-1.037,0.028-1.301
	c-0.327-0.137-1.774,0.532-2.107,0.408c-0.383-0.144-0.037-0.942,0.003-1.349c0.048-0.499,0.787-1.423,1.271-1.55
	c0.445-0.117,1.407,0.267,1.868,0.27c0.371,0.002,0.818-0.184,1.18-0.27C-793.28,76.27-792.316,76.072-792.023,76.366z"/>
<linearGradient id="SVGID_42_" gradientUnits="userSpaceOnUse" x1="13033.4688" y1="150.4546" x2="13033.4688" y2="176.656" gradientTransform="matrix(-1 0 0 1 12427.4629 0)">
	<stop  offset="0.016" style="stop-color:#932C12"/>
	<stop  offset="0.3364" style="stop-color:#D14427"/>
	<stop  offset="0.4324" style="stop-color:#CA543F"/>
	<stop  offset="0.5665" style="stop-color:#C1665B"/>
	<stop  offset="0.6445" style="stop-color:#BE6D65"/>
	<stop  offset="0.9815" style="stop-color:#460012"/>
</linearGradient>
<path opacity="0.03" fill="url(#SVGID_42_)" d="M-630.502,150.455c2.978,0,5.225,0.009,7.391,0.225
	c1.608,0.16,7.992,0.519,9.487,1.134c1.397,0.575,4.062,2.027,5.327,2.853c1.646,1.075,4.531,3.794,6.186,4.854
	c1.586,1.015,4.899,2.894,6.702,3.437c1.863,0.56,6.124-0.235,7.733,0.859c0.683,0.465,1.791,2.132,1.547,2.921
	c-0.302,0.973-2.859,1.201-3.609,1.89c-0.412,0.379-1.314,1.341-1.203,1.89c0.228,1.125,7.341,3.234,8.437,3.575
	c0.246,0.077,0.919-0.232,1.031,0c0.33,0.684-1.206,2.049-1.89,2.379c-0.774,0.373-6.383,0.066-7.243,0.066
	c-1.117,0-4.258-0.686-5.318-1.036c-1.574-0.52-4.102-2.835-5.327-3.952c-0.809-0.738-2.44-2.281-2.921-3.265
	c-0.422-0.863-0.175-2.968-0.687-3.78c-0.403-0.639-1.826-1.341-2.45-1.767c-1.806-1.236-5.473-3.629-7.345-4.762
	c-1.477-0.894-4.464-2.632-6.014-3.392c-0.921-0.452-2.79-1.325-3.78-1.592c-0.983-0.264-4.022-0.69-4.784-1.365
	C-629.555,151.34-630.931,150.455-630.502,150.455z"/>
<linearGradient id="SVGID_43_" gradientUnits="userSpaceOnUse" x1="12969.8408" y1="152.2217" x2="12969.8408" y2="176.7442" gradientTransform="matrix(-1 0 0 1 12427.4629 0)">
	<stop  offset="0.016" style="stop-color:#932C12"/>
	<stop  offset="0.3364" style="stop-color:#D14427"/>
	<stop  offset="0.4324" style="stop-color:#CA543F"/>
	<stop  offset="0.5665" style="stop-color:#C1665B"/>
	<stop  offset="0.6445" style="stop-color:#BE6D65"/>
	<stop  offset="0.9815" style="stop-color:#460012"/>
</linearGradient>
<path opacity="0.03" fill="url(#SVGID_43_)" d="M-559.913,152.825c0.958,0.876,4.93,4.189,5.907,5.044
	c1.012,0.885,3.536,1.978,4.811,2.406c2.444,0.821,6.594,1.525,8.242,3.508c0.714,0.859,1.037,2.307,1.037,3.424
	c0,0.859,0.65,2.029,0.86,2.863c0.155,0.615,0.704,1.842,1.203,2.234c0.943,0.74,11.889,4.47,13.087,4.441v-3.777
	c0.592-1.852-1.67-3.185-3.077-5.333c-1.521-2.322-2.292-4.796-2.793-5.297c-0.701-0.701-2.883-0.78-3.78-1.203
	c-2.08-0.98-4.287-4.328-6.24-5.543c-0.722-0.449-3.598-0.937-4.409-1.192C-547.9,153.505-561.788,151.11-559.913,152.825z"/>
<linearGradient id="SVGID_44_" gradientUnits="userSpaceOnUse" x1="13265.5205" y1="121.3595" x2="13283.4854" y2="121.3595" gradientTransform="matrix(-1 0 0 1 12427.4629 0)">
	<stop  offset="0.016" style="stop-color:#932C12"/>
	<stop  offset="0.3364" style="stop-color:#D14427"/>
	<stop  offset="0.4324" style="stop-color:#CA543F"/>
	<stop  offset="0.5665" style="stop-color:#C1665B"/>
	<stop  offset="0.6445" style="stop-color:#BE6D65"/>
	<stop  offset="0.9815" style="stop-color:#460012"/>
</linearGradient>
<path opacity="0.05" fill="url(#SVGID_44_)" d="M-838.259,114.467c0.529,0.166-0.139,2.027-0.224,2.575
	c-0.186,1.199-1.085,2.489-2.02,3.261c-2.648,2.186-9.034,4.958-12.12,6.464c-0.795,0.388-2.491,1.918-3.232,1.436
	c-0.282-0.183-0.154-1.047,0-1.347c0.48-0.93,2.533-1.856,3.411-2.424c1.639-1.06,5.211-2.729,6.733-3.95
	c0.805-0.646,2.08-2.302,2.873-2.963C-841.78,116.639-839.571,114.054-838.259,114.467z"/>
<linearGradient id="SVGID_45_" gradientUnits="userSpaceOnUse" x1="13247.1338" y1="118.7609" x2="13252.1074" y2="118.7609" gradientTransform="matrix(-1 0 0 1 12427.4629 0)">
	<stop  offset="0.016" style="stop-color:#932C12"/>
	<stop  offset="0.3364" style="stop-color:#D14427"/>
	<stop  offset="0.4324" style="stop-color:#CA543F"/>
	<stop  offset="0.5665" style="stop-color:#C1665B"/>
	<stop  offset="0.6445" style="stop-color:#BE6D65"/>
	<stop  offset="0.9815" style="stop-color:#460012"/>
</linearGradient>
<path opacity="0.05" fill="url(#SVGID_45_)" d="M-822.818,114.458c0.395-0.239,0.82,0.838,1.277,0.903
	c0.356,0.051,0.788-0.182,1.095,0.006c0.315,0.194,0.579,0.963,0.664,1.324c0.086,0.361,0.2,1.171,0,1.484
	c-0.214,0.334-1.053,0.578-1.44,0.662c-0.27,0.059-0.711,0.281-0.936,0.442c-0.442,0.317-0.584,1.137-0.725,1.662
	c-0.082,0.306-0.081,1.03-0.332,1.222c-0.22,0.168-1.186,1.105-1.381,0.909c-0.197-0.197,0.274-1.743,0.274-2.021
	c0-0.719-0.071-2.161,0-2.877C-824.239,117.331-823.543,114.897-822.818,114.458z"/>
<linearGradient id="SVGID_46_" gradientUnits="userSpaceOnUse" x1="13059.7578" y1="92.7725" x2="13072.9873" y2="79.543" gradientTransform="matrix(-1 0 0 1 12427.4629 0)">
	<stop  offset="0.016" style="stop-color:#932C12"/>
	<stop  offset="0.3364" style="stop-color:#D14427"/>
	<stop  offset="0.4324" style="stop-color:#CA543F"/>
	<stop  offset="0.5665" style="stop-color:#C1665B"/>
	<stop  offset="0.6445" style="stop-color:#BE6D65"/>
	<stop  offset="0.9815" style="stop-color:#460012"/>
</linearGradient>
<path opacity="0.03" fill="url(#SVGID_46_)" d="M-617.452,65.476c0,0-1.53,1.164-2.277,1.477c-2.087,0.874-4.515,3.301-6.673,3.648
	c-1.391,0.224-1.695,0.783-3.077,2.639c-0.347,0.466-3.418,2.704-3.463,1.351c-0.06-1.781,0.595-3.409-0.688-2.09
	c-0.761,0.783-1.97,3.726,0.669,4.935c1.156,0.53,5.376,0.339,6.322,1.19c0.588,0.529,1.544,2.146,1.445,4.102
	c-0.066,1.31-2.503-2.281-3.791-2.527c-0.869-0.166-4.042-0.71-4.915-0.565c-0.921,0.153-3.275,1.108-4.127,1.947
	c-0.597,0.588,3.93,0.657,4.581,1.185c0.917,0.743,0.843,1.341,1.156,2.479c0.368,1.336-1.107,1.884-1.845,6.113
	c-0.199,1.143-0.294,3.342-1.423,4.672c-0.851,1.002-1.014-5.208-1.617-4.04c-0.991,1.922-3.368,7.497-4.751,8.467
	c-0.769,0.539-2.881-0.341-3.756,0c-1.118,0.435-2.628,2.46-3.535,3.245c-1.853,1.605-8.531,8.469-7.592,6.205
	c1.015-2.444,2.312-3.417,2.655-4.728c0.736-2.814-0.522-8.772,0-11.634c0.325-1.784,1.427-5.372,2.32-6.95
	c0.617-1.091,2.222-3.224,3.351-3.769c0.971-0.469,3.548-0.665,4.48-1.207c1.465-0.853,3.973-6.095,4.967-7.468
	c1.405-1.939,3.181-4.795,4.601-5.416c0.643-0.281,3.085,1.295,4.073,1.115c1.281-0.232,3.658-1.408,4.692-2.2
	c1.708-1.307,3.261-3.755,3.926-3.752C-621.296,63.902-618.2,64.728-617.452,65.476z"/>
<linearGradient id="SVGID_47_" gradientUnits="userSpaceOnUse" x1="13151.5283" y1="123.966" x2="13200.0732" y2="95.9386" gradientTransform="matrix(-1 0 0 1 12427.4629 0)">
	<stop  offset="0.016" style="stop-color:#932C12"/>
	<stop  offset="0.3364" style="stop-color:#D14427"/>
	<stop  offset="0.4324" style="stop-color:#CA543F"/>
	<stop  offset="0.5665" style="stop-color:#C1665B"/>
	<stop  offset="0.6445" style="stop-color:#BE6D65"/>
	<stop  offset="0.9815" style="stop-color:#460012"/>
</linearGradient>
<path opacity="0.03" fill="url(#SVGID_47_)" d="M-705.363,91.191c-2.129-0.517-6.849-0.669-8.326-0.113
	c-2.782,1.048-7.505,4.836-10.134,6.224c-1.732,0.915-5.664,1.927-7.151,3.202c-1.233,1.056-2.133,4.623-3.53,5.449
	c-0.953,0.564-2.22,0.042-3.318,0.181c-1.715,0.217-6.225,0.953-7.901,1.376c-2.441,0.616-7.596,1.56-9.577,3.114
	c-1.081,0.848-1.86,3.769-2.896,4.671c-1.091,0.948-4.112,1.496-5.288,2.335c-1.62,1.156-3.648,4.912-5.409,5.838
	c-2.199,1.156-7.395,0.967-9.835,1.432c-1.615,0.308-8.321,1.869-12.613,3.63c-1.441,0.591,9.159-0.283,12.048,0.063
	c1.648,0.198,7.134,1.534,8.792,1.474c1.709-0.063,1.951-2.171,3.653-2.007c0.761,0.073,2.091,0.062,2.839,0.223
	c0.886,0.19,2.682,0.175,3.461-0.288c0.597-0.355,3.789-0.22,3.534-0.865c-0.263-0.667-5.448-0.089-4.856-0.492
	c2.845-1.934,7.235-2.078,9.467-3.2c2.79-1.403,7.723-5.302,10.268-7.112c1.659-1.18,4.577-4.426,6.578-4.8
	c0.678-0.127,1.058,0.54,1.748,0.513c4.111-0.158,8.479-2.315,8.845-4.602c0.157-0.983-4.545-1.454-3.692-1.966
	c1.824-1.094,2.904-3.471,3.692-4.079c2.012-1.553,7.309-2.685,9.143-4.445c0.947-0.909,0.328-2.616,1.487-3.232
	c0.789-0.419,3.728-0.705,4.558-1.035C-708.958,92.353-704.302,91.449-705.363,91.191z"/>
<linearGradient id="SVGID_48_" gradientUnits="userSpaceOnUse" x1="13131.3086" y1="182.6089" x2="13147.2725" y2="182.6089" gradientTransform="matrix(-1 0 0 1 12427.4629 0)">
	<stop  offset="0.016" style="stop-color:#932C12"/>
	<stop  offset="0.3364" style="stop-color:#D14427"/>
	<stop  offset="0.4324" style="stop-color:#CA543F"/>
	<stop  offset="0.5665" style="stop-color:#C1665B"/>
	<stop  offset="0.6445" style="stop-color:#BE6D65"/>
	<stop  offset="0.9815" style="stop-color:#460012"/>
</linearGradient>
<path opacity="0.05" fill="url(#SVGID_48_)" d="M-705.897,176.929c-0.893,0.014-2.605,0.588-3.212,1.243
	c-0.711,0.768-1.582,2.235-2.072,3.16c-0.639,1.207-2.905,3.301-3.885,4.01c-0.993,0.718-2.83,1.143-4.61,2.646
	c-0.828,0.699,2.435,0.368,3.34,0c0.882-0.359,2.666-1.043,3.495-1.51c2.206-1.243,6.871-3.75,8.251-5.873
	c0.459-0.705,0.929-2.497,0.671-3.298C-704.17,176.527-705.078,176.916-705.897,176.929z"/>
<linearGradient id="SVGID_49_" gradientUnits="userSpaceOnUse" x1="13091.5732" y1="172.0139" x2="13096.5469" y2="172.0139" gradientTransform="matrix(-1 0 0 1 12427.4629 0)">
	<stop  offset="0.016" style="stop-color:#932C12"/>
	<stop  offset="0.3364" style="stop-color:#D14427"/>
	<stop  offset="0.4324" style="stop-color:#CA543F"/>
	<stop  offset="0.5665" style="stop-color:#C1665B"/>
	<stop  offset="0.6445" style="stop-color:#BE6D65"/>
	<stop  offset="0.9815" style="stop-color:#460012"/>
</linearGradient>
<path opacity="0.05" fill="url(#SVGID_49_)" d="M-667.257,167.711c0.395-0.239,0.82,0.838,1.277,0.903
	c0.356,0.051,0.788-0.182,1.095,0.007c0.315,0.194,0.579,0.963,0.664,1.324c0.086,0.361,0.2,1.171,0,1.484
	c-0.214,0.334-1.053,0.578-1.44,0.662c-0.27,0.059-0.711,0.281-0.936,0.442c-0.442,0.317-0.584,1.137-0.725,1.662
	c-0.082,0.306-0.081,1.03-0.332,1.222c-0.22,0.168-1.186,1.105-1.381,0.909c-0.197-0.197,0.274-1.743,0.274-2.021
	c0-0.719-0.071-2.161,0-2.877C-668.678,170.584-667.982,168.15-667.257,167.711z"/>
<linearGradient id="SVGID_50_" gradientUnits="userSpaceOnUse" x1="13155.8867" y1="141.728" x2="13163.4072" y2="141.728" gradientTransform="matrix(-1 0 0 1 12427.4629 0)">
	<stop  offset="0.016" style="stop-color:#932C12"/>
	<stop  offset="0.3364" style="stop-color:#D14427"/>
	<stop  offset="0.4324" style="stop-color:#CA543F"/>
	<stop  offset="0.5665" style="stop-color:#C1665B"/>
	<stop  offset="0.6445" style="stop-color:#BE6D65"/>
	<stop  offset="0.9815" style="stop-color:#460012"/>
</linearGradient>
<path opacity="0.05" fill="url(#SVGID_50_)" d="M-734.17,137.998c0.444,0.132,1.203,0.442,1.665,0.422
	c0.418-0.017,0.818-0.289,1.214-0.422c0.315-0.106,1.029-0.144,1.329,0c0.518,0.248,1.249,1.248,1.44,1.79
	c0.12,0.339,0.143,1.109,0,1.44c-0.385,0.89-2.033,2.097-2.824,2.658c-0.343,0.243-2.13,1.736-2.548,1.68
	c-0.447-0.059-0.354-1.839-0.645-2.183c-0.51-0.604-1.192-1.822-1.347-2.598c-0.139-0.694-0.044-2.332,0.498-2.786
	C-735.155,137.803-734.462,137.911-734.17,137.998z"/>
<linearGradient id="SVGID_51_" gradientUnits="userSpaceOnUse" x1="13123.4961" y1="141.728" x2="13127.3623" y2="141.728" gradientTransform="matrix(-1 0 0 1 12427.4629 0)">
	<stop  offset="0.016" style="stop-color:#932C12"/>
	<stop  offset="0.3364" style="stop-color:#D14427"/>
	<stop  offset="0.4324" style="stop-color:#CA543F"/>
	<stop  offset="0.5665" style="stop-color:#C1665B"/>
	<stop  offset="0.6445" style="stop-color:#BE6D65"/>
	<stop  offset="0.9815" style="stop-color:#460012"/>
</linearGradient>
<path opacity="0.05" fill="url(#SVGID_51_)" d="M-696.327,138.457c0.612-0.185,0.093,1.924,0,2.556
	c-0.084,0.572-0.281,1.782-0.664,2.215c-0.321,0.362-1.381,0.491-1.772,0.775c-0.27,0.196-0.574,1.115-0.886,0.997
	c-0.519-0.197-0.085-1.671,0-2.219c0.084-0.544,0.358-1.642,0.664-2.1C-698.502,139.961-697.323,138.758-696.327,138.457z"/>
<linearGradient id="SVGID_52_" gradientUnits="userSpaceOnUse" x1="13112.1846" y1="156.3529" x2="13118.6465" y2="156.3529" gradientTransform="matrix(-1 0 0 1 12427.4629 0)">
	<stop  offset="0.016" style="stop-color:#932C12"/>
	<stop  offset="0.3364" style="stop-color:#D14427"/>
	<stop  offset="0.4324" style="stop-color:#CA543F"/>
	<stop  offset="0.5665" style="stop-color:#C1665B"/>
	<stop  offset="0.6445" style="stop-color:#BE6D65"/>
	<stop  offset="0.9815" style="stop-color:#460012"/>
</linearGradient>
<path opacity="0.05" fill="url(#SVGID_52_)" d="M-685.023,154.366c0.489,0.489,0.303,2.146,0,2.768
	c-0.216,0.443-1.166,0.91-1.55,1.218c-0.307,0.246-2.199,0.168-2.354-0.194c-0.298-0.695,0.657-1.037,0.028-1.301
	c-0.327-0.137-1.774,0.532-2.107,0.408c-0.383-0.144-0.037-0.942,0.003-1.349c0.048-0.499,0.787-1.423,1.271-1.55
	c0.445-0.117,1.407,0.267,1.868,0.27c0.371,0.002,0.818-0.184,1.18-0.27C-686.28,154.27-685.316,154.072-685.023,154.366z"/>
<linearGradient id="SVGID_53_" gradientUnits="userSpaceOnUse" x1="13158.5205" y1="199.3595" x2="13176.4854" y2="199.3595" gradientTransform="matrix(-1 0 0 1 12427.4629 0)">
	<stop  offset="0.016" style="stop-color:#932C12"/>
	<stop  offset="0.3364" style="stop-color:#D14427"/>
	<stop  offset="0.4324" style="stop-color:#CA543F"/>
	<stop  offset="0.5665" style="stop-color:#C1665B"/>
	<stop  offset="0.6445" style="stop-color:#BE6D65"/>
	<stop  offset="0.9815" style="stop-color:#460012"/>
</linearGradient>
<path opacity="0.05" fill="url(#SVGID_53_)" d="M-731.259,192.467c0.529,0.166-0.139,2.027-0.224,2.575
	c-0.186,1.199-1.085,2.489-2.02,3.261c-2.648,2.186-9.034,4.958-12.12,6.464c-0.795,0.388-2.491,1.918-3.232,1.436
	c-0.282-0.183-0.154-1.047,0-1.347c0.48-0.93,2.533-1.856,3.411-2.424c1.639-1.06,5.211-2.729,6.733-3.95
	c0.805-0.646,2.08-2.302,2.873-2.963C-734.78,194.639-732.571,192.054-731.259,192.467z"/>
<linearGradient id="SVGID_54_" gradientUnits="userSpaceOnUse" x1="13140.1338" y1="196.7609" x2="13145.1074" y2="196.7609" gradientTransform="matrix(-1 0 0 1 12427.4629 0)">
	<stop  offset="0.016" style="stop-color:#932C12"/>
	<stop  offset="0.3364" style="stop-color:#D14427"/>
	<stop  offset="0.4324" style="stop-color:#CA543F"/>
	<stop  offset="0.5665" style="stop-color:#C1665B"/>
	<stop  offset="0.6445" style="stop-color:#BE6D65"/>
	<stop  offset="0.9815" style="stop-color:#460012"/>
</linearGradient>
<path opacity="0.05" fill="url(#SVGID_54_)" d="M-715.818,192.458c0.395-0.239,0.82,0.838,1.277,0.903
	c0.356,0.051,0.788-0.182,1.095,0.007c0.315,0.194,0.579,0.963,0.664,1.324c0.086,0.361,0.2,1.171,0,1.484
	c-0.214,0.334-1.053,0.578-1.44,0.662c-0.27,0.059-0.711,0.281-0.936,0.442c-0.442,0.317-0.584,1.137-0.725,1.662
	c-0.082,0.306-0.081,1.03-0.332,1.222c-0.22,0.168-1.186,1.105-1.381,0.909c-0.197-0.197,0.274-1.743,0.274-2.021
	c0-0.719-0.071-2.161,0-2.877C-717.239,195.331-716.543,192.897-715.818,192.458z"/>
<linearGradient id="SVGID_55_" gradientUnits="userSpaceOnUse" x1="3901.1289" y1="7223.2168" x2="3926.4231" y2="7223.2168" gradientTransform="matrix(-0.4399 0.8981 -0.8981 -0.4399 7522.7188 -140.6435)">
	<stop  offset="0.016" style="stop-color:#932C12"/>
	<stop  offset="0.3364" style="stop-color:#D14427"/>
	<stop  offset="0.4324" style="stop-color:#CA543F"/>
	<stop  offset="0.5665" style="stop-color:#C1665B"/>
	<stop  offset="0.6445" style="stop-color:#BE6D65"/>
	<stop  offset="0.9815" style="stop-color:#460012"/>
</linearGradient>
<path opacity="0.03" fill="url(#SVGID_55_)" d="M-678.018,196.004c-0.851,0.325-2.54,1.613-2.63,2.519
	c-0.052,0.526,0.755,1.466,1.21,1.735c0.312,0.184,1.265-0.167,1.44,0.149c0.181,0.326-0.337,1.145-0.656,1.339
	c-0.976,0.595-3.477,0.236-4.573-0.092c-0.987-0.296-2.607-1.658-3.486-2.195c-1.262-0.772-3.613-2.918-5.089-3.021
	c-0.564-0.039-1.927,0.331-2.087,0.873c-0.193,0.652,1.478,1.568,1.536,2.246c0.073,0.86-1.175,2.317-1.44,3.139
	c-0.258,0.803,0.047,2.828-0.645,3.31c-0.507,0.353-1.98,0.014-2.441-0.397c-0.417-0.372-0.392-1.635-0.606-2.152
	c-0.245-0.591-0.702-1.903-1.25-2.233c-0.475-0.286-1.669,0.02-2.22-0.052c-0.401-0.052-1.572-0.379-1.572-0.379l6.846-13.439
	c0,0,1.404,1.912,2.13,2.02c0.872,0.129,2.344-1.227,3.151-1.581c0.88-0.386,2.656-1.162,3.596-1.363
	c1.133-0.242,3.474-0.408,4.625-0.273c2.008,0.235,5.944,1.408,7.744,2.328c0.996,0.509,2.824,1.87,3.554,2.717
	c0.523,0.608,1.961,2.12,1.55,2.809c-0.286,0.48-1.707,0.162-2.235-0.021c-1.04-0.359-2.466-2.279-3.488-2.685
	c-1.756-0.697-5.701-1.268-7.519-0.754c-0.707,0.2-2.119,1.082-2.338,1.784c-0.109,0.349,0.144,1.194,0.451,1.393
	c0.445,0.287,1.603-0.401,2.107-0.237c0.369,0.12,0.779,0.922,1.146,1.049c0.616,0.214,1.969-0.349,2.602-0.19
	c0.783,0.196,2.965,0.955,2.728,1.726C-676.034,196.588-677.518,195.812-678.018,196.004z"/>
<linearGradient id="SVGID_56_" gradientUnits="userSpaceOnUse" x1="13070.5059" y1="156.3529" x2="13075.4795" y2="156.3529" gradientTransform="matrix(-1 0 0 1 12427.4629 0)">
	<stop  offset="0.016" style="stop-color:#932C12"/>
	<stop  offset="0.3364" style="stop-color:#D14427"/>
	<stop  offset="0.4324" style="stop-color:#CA543F"/>
	<stop  offset="0.5665" style="stop-color:#C1665B"/>
	<stop  offset="0.6445" style="stop-color:#BE6D65"/>
	<stop  offset="0.9815" style="stop-color:#460012"/>
</linearGradient>
<path opacity="0.05" fill="url(#SVGID_56_)" d="M-646.19,152.049c0.395-0.239,0.82,0.838,1.277,0.903
	c0.356,0.051,0.788-0.182,1.095,0.006c0.315,0.194,0.579,0.963,0.664,1.324c0.086,0.361,0.2,1.171,0,1.484
	c-0.214,0.334-1.053,0.578-1.44,0.662c-0.27,0.059-0.711,0.281-0.936,0.442c-0.442,0.317-0.585,1.137-0.725,1.662
	c-0.082,0.306-0.081,1.03-0.332,1.222c-0.22,0.168-1.186,1.105-1.381,0.909c-0.197-0.197,0.274-1.743,0.274-2.021
	c0-0.719-0.071-2.161,0-2.877C-647.611,154.923-646.915,152.489-646.19,152.049z"/>
<linearGradient id="SVGID_57_" gradientUnits="userSpaceOnUse" x1="13067.7822" y1="205.1665" x2="13072.7559" y2="205.1665" gradientTransform="matrix(-1 0 0 1 12427.4629 0)">
	<stop  offset="0.016" style="stop-color:#932C12"/>
	<stop  offset="0.3364" style="stop-color:#D14427"/>
	<stop  offset="0.4324" style="stop-color:#CA543F"/>
	<stop  offset="0.5665" style="stop-color:#C1665B"/>
	<stop  offset="0.6445" style="stop-color:#BE6D65"/>
	<stop  offset="0.9815" style="stop-color:#460012"/>
</linearGradient>
<path opacity="0.05" fill="url(#SVGID_57_)" d="M-643.466,200.863c0.395-0.239,0.82,0.838,1.277,0.903
	c0.356,0.051,0.788-0.182,1.095,0.007c0.315,0.194,0.579,0.963,0.664,1.324c0.086,0.361,0.2,1.171,0,1.484
	c-0.214,0.334-1.053,0.578-1.44,0.662c-0.27,0.059-0.711,0.281-0.936,0.442c-0.442,0.317-0.585,1.137-0.725,1.662
	c-0.082,0.306-0.081,1.03-0.332,1.222c-0.22,0.168-1.186,1.105-1.381,0.909c-0.197-0.197,0.274-1.743,0.274-2.021
	c0-0.719-0.071-2.161,0-2.877C-644.887,203.736-644.191,201.302-643.466,200.863z"/>
<linearGradient id="SVGID_58_" gradientUnits="userSpaceOnUse" x1="13041.123" y1="210.6944" x2="13044.9893" y2="210.6944" gradientTransform="matrix(-1 0 0 1 12427.4629 0)">
	<stop  offset="0.016" style="stop-color:#932C12"/>
	<stop  offset="0.3364" style="stop-color:#D14427"/>
	<stop  offset="0.4324" style="stop-color:#CA543F"/>
	<stop  offset="0.5665" style="stop-color:#C1665B"/>
	<stop  offset="0.6445" style="stop-color:#BE6D65"/>
	<stop  offset="0.9815" style="stop-color:#460012"/>
</linearGradient>
<path opacity="0.05" fill="url(#SVGID_58_)" d="M-613.954,207.424c0.612-0.185,0.093,1.924,0,2.556
	c-0.084,0.572-0.281,1.782-0.664,2.215c-0.321,0.362-1.381,0.491-1.772,0.775c-0.27,0.196-0.574,1.115-0.886,0.997
	c-0.519-0.197-0.085-1.671,0-2.219c0.084-0.544,0.358-1.642,0.664-2.1C-616.13,208.928-614.951,207.724-613.954,207.424z"/>
</svg>
