<?xml version="1.0" encoding="utf-8"?>
<!-- Generator: Adobe Illustrator 17.0.0, SVG Export Plug-In . SVG Version: 6.00 Build 0)  -->
<!DOCTYPE svg PUBLIC "-//W3C//DTD SVG 1.1//EN" "http://www.w3.org/Graphics/SVG/1.1/DTD/svg11.dtd">
<svg version="1.1" id="Layer_1" xmlns="http://www.w3.org/2000/svg" xmlns:xlink="http://www.w3.org/1999/xlink" x="0px" y="0px"
	 width="1280px" height="1850.674px" viewBox="0 0 1280 1850.674" enable-background="new 0 0 1280 1850.674" xml:space="preserve">
<path opacity="0.1" fill="#CFDEF2" d="M287.895,618.171c76.406,15.784,231.275,36.397,308.827,44.92
	c11.719,1.288,35.349,1.889,47.026,3.509c26.076,3.619,76.984,18.411,103.176,21.056c4.19,0.423,15.878,4.099,16.845,0
	c4.237-17.948-47.949-29.104-65.977-32.988c-17.51-3.773-53.971-0.408-71.592,2.807c-1.092,0.199-4.211,1.404-4.211,1.404
	s-12.157-12.194-17.547-13.336c-6.704-1.419-20.543,3.253-26.671,6.317c-1.226,0.613-4.211,3.509-4.211,3.509
	s-33.505-9.312-44.92-11.23c-11.813-1.985-35.823-2.885-47.728-4.211c-40.472-4.511-121.1-16.13-161.432-21.758
	c-17.032-2.377-68.082-9.826-68.082-9.826S278.641,616.259,287.895,618.171z"/>
<path opacity="0.1" fill="#CFDEF2" d="M970.68,683.306c5.846,3.643,20.627,1.422,27.452,2.35c9.442,1.283,28.021,5.742,37.466,7.002
	c10.993,1.467,33.127,3.602,44.218,3.571c6.64-0.019,32.833-0.423,26.46-2.288c-8.352-2.445-15.629-0.774-20.819-1.284
	c-6.961-0.683-20.782-2.905-27.727-3.738c-2.612-0.313-10.464-1.1-10.464-1.1s2.969-3.029,3.033-4.353
	c0.091-1.878-2.067-5.594-3.681-6.558c-2.658-1.587-17.759-7.372-19.602,1.578c-0.229,1.11,1.964,4.084,1.964,4.084
	s-1.9-0.36-2.386-0.753c-3.047-2.462-4.844-10.991-7.751-13.616c-4.507-4.07-16.283-8.537-22.22-9.809
	c-5.952-1.275-18.896-2.862-24.346-0.151c-3.455,1.718-13.702,1.376-16.112,6.761C950.686,677.244,967.535,681.346,970.68,683.306z"
	/>
<g opacity="0.02">
	<path fill="#CFDEF2" d="M301.887,314.156c13.068,2.128,21.603,9.167,34.753,11.924c5.905,1.146,23.451,5.279,11.501-7.866
		c2.326,8.009,34.911,10.713,29.823,1.147c3.555,2.733,13.899,8.45,17.56,2.216c5.683-10.335-17.227-14.374-22.504-15.602
		c-7.327-2.239-44.803-7.109-42.665,9.238c-0.904-6.916-17.527-11.776-17.88-4.696c-14.466-12.816-23.492-11.457-40.086-11.206
		c-15.336,0.087-32.97-2.723-48.553-4.522c-35.731-4.28-69.335-21.628-104.302-29.844c-6.698-2.321-27.079-6.184-20.859-3.027
		c3.987,2.024,13.157,3.729,20.484,5.969c9.296,2.621,25.892,7.209,34.787,11.835C176.36,291.376,275.287,311.24,301.887,314.156z"
		/>
</g>
</svg>
