<?xml version="1.0" encoding="utf-8"?>
<!-- Generator: Adobe Illustrator 17.0.0, SVG Export Plug-In . SVG Version: 6.00 Build 0)  -->
<!DOCTYPE svg PUBLIC "-//W3C//DTD SVG 1.1//EN" "http://www.w3.org/Graphics/SVG/1.1/DTD/svg11.dtd">
<svg version="1.1" id="Layer_1" xmlns="http://www.w3.org/2000/svg" xmlns:xlink="http://www.w3.org/1999/xlink" x="0px" y="0px"
	 width="1280px" height="1614.213px" viewBox="0 0 1280 1614.213" enable-background="new 0 0 1280 1614.213" xml:space="preserve">
<g opacity="0.4">
	<linearGradient id="SVGID_1_" gradientUnits="userSpaceOnUse" x1="468.9862" y1="389.425" x2="468.9862" y2="19.3978">
		<stop  offset="0.2448" style="stop-color:#2B0010"/>
		<stop  offset="0.3266" style="stop-color:#330016"/>
		<stop  offset="0.4385" style="stop-color:#421127"/>
		<stop  offset="0.5678" style="stop-color:#542D3E"/>
		<stop  offset="0.71" style="stop-color:#684E5E"/>
		<stop  offset="0.861" style="stop-color:#7C7B8A"/>
		<stop  offset="1" style="stop-color:#8BB2C5"/>
	</linearGradient>
	<path fill="url(#SVGID_1_)" d="M28.869,164.708c-13.053,14.037,3.927,31.937,23.845,41.646c10.503,5.12,29.76,9.546,41.543,5.677
		c10.669-3.504,25.294-6.489,26.061-18.062c-2.688,9.747,16.555,15.432,16.428,13.178c0.556,9.929,7.425,10.457,16.234,9.145
		c5.626-0.838,16.57-2.109,17.955-9.045c-1.065,9.706,7.505,8.514,11.571,2.337c-5.601,5.657-2.475,18.011,3.999,21.299
		c5.986,3.041,17.872,2.26,21.488-4.094c2.65,2.589,8.928,9.16,11.732,3.42c-3.774,10.79-2.089,17.204,6.035,24.762
		c8.833,8.217,14.449,3.075,23.032-2.783c-3.987,2.171-3.963,10.445,0.031,13.041c4.947,3.215,17.654-0.226,22.522-2.444
		c4.049-1.845,7.798-4.281,11.685-6.429c1.812-1.001,9.884-3.549,10.667-5.022c-20.624,38.775,47.851,37.125,66.001,29.7
		c-9.9,5.775-6.6,12.375,2.475,14.025c5.775,0.825,18.15-3.3,23.1-4.95c10.725-2.475,23.713-12.776,32.788-18.551l6.589,9.439
		c5,6.5,17,10,25,12c3,0.5,15,1,9-5c2,2.5,6,4.5,9,2c7,13,41-1,31-17.5c2.5,0.5,2,0,4.5-0.5c9.5,8,28.5,4.5,29-10
		c15,9,46.5,3.5,51.5-14.5c1,3.5,4,5.5,6.5,2.5c3,7.5,30,15,33,4c19.5,5,53.5-9,45.5-33.5c2.5,4.5,10.5,9.5,13.5,3
		c4.5,6.5,21,8,27.5,9.5c10.5,3,25.466,2.789,29.466-12.711c9.5,2.5,14.534-4.289,14.534-10.289l10.5-34c1,7.5,14,19,22,16
		c0,3.5,1,4.5,3,7c-7-3.5-22.5,0.5-16,10.5c-2,2.5-2,6,0.5,8.5c-10.5,0.5-4.5,15,4.5,12c-0.5,4.5,2.5,7,7,7.5c-5.5,0.5-9.5,5.5-5,10
		c-1.5,2.5,0,3,2.5,4l11.5,0.5c-7,0.5-13.5,10-6.5,14c-5.5,1-5.5,6.5-4,10.5c-6.5-2-10.5,9-9,14c-4.5-2-24.5-1-19,8c3.5-1,3,0,5.5,1
		c-4,0.5-6.5,2.5-5.5,6.5c-17,0.5-7,17.5,1,9c0.415,9.123,13.503,2.223,14.798-5.218c0.161-0.927-0.598-3.714-0.598-3.714
		s2.576,1.296,5.256,1.016c3.38-0.353,6.262-2.354,9.544-3.084c-3.5,3.5-10,6.5-7.5,12c-4.5,1-12,8-5.5,11c-5,6,3,9,7.5,5
		c1,5.5,8,5,11,2l-0.5-0.5c0,4.5,0,11.5-5,13c2.5,0.5,1.5,1.5,5,1c0,6.5-1.5,9.5,3,15.5s20.444-9.552,17.664-18.126
		c-1.807-5.573,8.133-8.585,5.422-9.941c-5.955-2.978-4.597-3.334-5.724-11.598c-0.465-3.411,5.375-15.223,4.953-14.093
		c-1.209,3.241-2.203,10.231-2.034,13.686c0.223,4.57,9.869,23.227,22.659,11.267c3.049-2.851,7.428-7.49,7.428-7.49
		c-2.159,5.861,8.102,13.901,7.602,9.901l3.085,2.468c2,2,4.091,8.853,6.091,11.353c-4-1.5-8.5,2.5-9.5,6.5c-5-2.5-13.5,2-8.5,7
		c-3.5,1-4,4.5-0.5,6.5c-1.5,2-1,3.5-1.5,6c5-1,13.5,1,6.5,7c4.5,2,4,2.5,9.5,3c4,0,8.5-3,10.5,3c3-1,11.445-6.242,12.945-9.242
		s4.033-11.364,9.533-14.864c5.5-4,10.711-2.757,12.711,1.743c-0.615-6.458-1.743-10.148,4.203-8.406
		c0-10-15.392-6.231-19.392-8.231c4-3,14.5-12,9-16.5c1-5-3.5-11-8.5-11c5.5-4,10.5-0.5,15.5-3.5c3,3,4.5,2,4-2
		c0,0-0.74-6.718-2.318-10.071l7.251-5.77c6.21-7.643-9.076-20.062-14.807-23.405c2.866-7.165-6.21-10.031-11.464-6.21
		c4.777-3.821,9.195-15.796,1.075-14.841c0.478-7.643-12.539-6.176-17.316-3.31c2.866-2.866,3.344-7.643,1.911-11.464
		c-11.458-6.852-37.857,7.817-39.744,8.555c-2.462,0.962-6.734,2.087-6.734,2.087c0-8.5-9-6.5-13-10.5c-4-3.5-2-10-9-11.5
		c1-3,0.5-3,0.5-6.5c3.5,0.5,8,0,11-2.5c4.5,5,9,12.5,16.5,9c0,14.5,17,13.5,25.5,8c1.5-1,2.5-4,3.5-4.5c1.5-1,2.5,0.5,3.5,0.5
		c3-1.5,6-0.5,9-4c6.5-6.5,1.5-13-7-13.5c9-6.5-14.5-9-17.5-9c-6.5,0-13.5-0.5-20.5,1c-1.5-5-7-7.5-11-3.5c-0.5-5-2.5-10.5-8.5-10.5
		c4.5-4,14.5-11.5,15-17.5c7,1,14.5-7,14-14l0.5-9.5c4-3,3.5-8-0.5-10.5c4-4.5,6.5-16-1.5-16c0-0.5,1-1,0-1.5c-5-1.5-8,2.5-11,6
		c6.5-8.5,0.5-19-9.5-13.5c-5-8-17.5-1.5-12,4c-6,0.5-6,6.5-6.5,11.5c-2.5-2.5-6.5-3.5-9,0c-5.5-10-27-13.5-34.5-5
		c-3.5-3.5-11-1.5-15,0.5c4.5-5,10.5-8.5,16-13c7-6.5,7.5-13,11.5-19.5c-3,8,7.5,25,13.5,12.5c7,3.5,21.5-4,25-10.5
		c11,8,47.5-26.5,38.5-34c7.5-9.5-2.19-16.718-12.69-16.718c0,0-0.764-4.404-1.31-5.782c-3.633-9.168-18.219-5.16-26.719-4.66
		c0-6-3.781-7.34-7.281-9.34c-2.5-1-7.5-4-10.5-5c-7.5-1.5-16,5.5-19,11.5c-7.5-7-9.5,3-9.5,8.5c-7-15-13.5,14.5-14.5,16.5
		c-1.5-6.5-1.5-14-10.5-15c2.5-5.5,1.5-14.5-6.5-15.5c-6.5-1-11,7.5-14,12c-3.5-1.5-6.5,0.5-8.5,4c-4.5-12-31.5-21-42.5-14.5
		c-5-13-33,13-13.5,22c-3,6,3,8.5,5.5,13c-8.5-2-20-0.5-27,4.5c-3.5-3.5-8-4-12.5-3.5c-0.5,0-2.5-2.5-2.5-3c4.5-4.5,7-9,5.5-15.5
		c8.5,1,10.5-10,2-11.5c4.5-4.5,0-17-5.5-18c-8.5-1.5-15,14.5-14,21c-21.5-4.5-16.5,24-8.5,21c-3,5,3,8.5,6,11.5
		c-2,2.5-0.5,3.5,1,5.5l3.5,9c-2.5,2,0.5,5-0.5,9c-2-5-8-10-11.5-4c-7-1-4.5,7.5-3,11.5c-4-6.5-6.5,3-9,7c-3.5,5.5-8,9-6,16
		c-8.5-2-9.5,6.5-6,11.5c-9.5,1,0,11,1.5,15c1,4-1.5,12.5,5.5,13.5c0,5.5,3,12,6.5,16c1.5,1.5,6,5.5,8.5,5.5c5.5,0,2.5-1.5,2.5-4.5
		c0-2.5-3-5.5-3-8c0.5-4,3-2.5,4-6c2-4.5,3.5-10.5-2.5-13.5c4.5,0.5,5.5-3,6-6.5c4,1.5,9,0,12.5,2c3,2.5,2.5,7,7.5,8
		c-3,9.5,8,7,11,11.5c-5.5,2-8,7.5-3,12c-2.5,3,0,6.5,1.5,9.5c-5.5-0.5-30,6-20,15c-8-6.5-12.5,6-14,12c-3-8-10.5-6.5-17-5.5
		c-0.5-6-6.5-9-11.5-8.5c1-1.5,1-4,2-5.5c-10.5-0.5-13,10-18,15.5c1-4.5,1.5-10.5-3-13.5c11.5-7-1.5-15-10-11.5
		c5.5-12.5-8-12-15-9.5c0-10.5,9-13.5,17-16.5c-5.5-4.5-21-4.5-27.5-4c-6,1-10.5,3.5-14.5,8c-1.5,1.5-4,4.5-4.5,5.5
		c-1.5,2-4,3-4.5,6c-8.5-20.5-38.5,7-23.5,14c-1.5,2-2,4.5,0.5,7c-6-4.5-14.5,4.5-13,10.5c-4-5.5-11.5-4.5-13.5,2c-2-8-7.5-2.5-9,2
		c0,0-9.575-2.709-12.627-1.788c-9.511,2.869-42.9,10.725-56.101,16.5c-28.875-30.525-106.426-22.275-143.552-17.325
		c8.25-4.95,28.875-16.5,28.05-28.875c0-8.25-17.325-16.5-23.925-14.025c6.6-4.125,9.9-16.5-1.65-15.675
		c1.65-10.725-47.889,4.327-47.889,4.327s6.967-23.481-14.708-22.191c-31.821,1.894-46.728,25.399-75.603,36.124
		c9.075-7.425-14.427-5.06-24.327,3.19C72.595,163.058,35.976,157.066,28.869,164.708z"/>
</g>
<g opacity="0.2">
	<linearGradient id="SVGID_2_" gradientUnits="userSpaceOnUse" x1="821.8883" y1="72.8402" x2="1058.5714" y2="72.8402">
		<stop  offset="0.0386" style="stop-color:#FEC673"/>
		<stop  offset="0.3337" style="stop-color:#FFC40C"/>
		<stop  offset="0.7296" style="stop-color:#F58231"/>
		<stop  offset="0.7743" style="stop-color:#F38731"/>
		<stop  offset="0.8436" style="stop-color:#F0952E"/>
		<stop  offset="0.9283" style="stop-color:#ECAC27"/>
		<stop  offset="1" style="stop-color:#E7C21F"/>
	</linearGradient>
	<path fill="url(#SVGID_2_)" d="M1042.606,51.425c-6.868,0.299-15.23,1.493-19.112,8.063c-1.195-3.882-5.077-4.181-8.362-2.389
		c-1.493-6.271-11.049-3.285-15.23-4.181c1.792-3.583-3.285-5.077-5.972-5.077c4.181-1.792,13.737,0.896,14.633-5.375
		c11.945-0.896,2.986-11.049-5.077-10.452c-5.077,0.299-8.959,2.688-13.14,4.479c-2.986,1.195-6.271,1.195-8.362,3.882
		c-3.583-2.389-7.466,0.597-11.348,0.597c1.493-2.389,7.466-6.271,5.973-9.258c-1.493-2.688-6.868-0.896-8.959-1.195
		c2.389-8.959-18.216,0.597-20.307,2.389c0-4.181-3.584-3.882-6.271-2.389c0.597-6.868-7.466-11.049-11.646-5.077
		c0.299-7.764-13.14,2.09-14.932,4.181l-6.271,3.285c-10.452,7.167-15.827,12.841-21.501,23.89c-0.026,0.051-0.055,0.099-0.082,0.15
		c-7.305-4.03-9.792,10.188-13.252,15.132c-4.5,6-8.5,11-16,15c3.5-3,9-11.5,4-14.5c4.5-6,12.5-16,3.5-22.5c-4.5-2.5-11-1-15.5,1
		l2.5,10.5c6.5,17.5-18.5,37-30,45c6,1,14,4.5,19.5,0.5c0,5.5,5,8,9.5,5c-6.5,10.5,15.5,7.5,19.5,6.5
		c5.3-1.514,10.471-4.556,15.581-7.456l7.024,3.01c-0.299,0.597,11.348,1.493,17.619,0c4.778-1.195,8.66-5.674,13.737-6.271
		c-0.299,6.57,6.271,8.66,10.75,4.181c0.299,8.362,18.216,8.959,23.592,7.764c2.688-0.597,5.973-3.882,8.66-3.584
		c3.285,0.299,4.181,5.375,8.362,2.688c-1.792,13.14,23.592-8.063,25.384-11.049c5.375,3.285,22.099-10.452,13.438-14.334
		c6.57-0.299,1.195-6.868,0.597-9.855l2.09-7.764c3.882-6.868,14.334-4.778,16.723,2.09c1.493-5.077,6.869-10.153,11.945-11.945
		l10.75-5.375C1064.406,55.905,1046.488,51.127,1042.606,51.425z"/>
</g>
<linearGradient id="SVGID_3_" gradientUnits="userSpaceOnUse" x1="832.0186" y1="451.3549" x2="1006.3069" y2="451.3549">
	<stop  offset="0" style="stop-color:#822034"/>
	<stop  offset="0.081" style="stop-color:#7C1D36"/>
	<stop  offset="0.2422" style="stop-color:#721737"/>
	<stop  offset="0.3923" style="stop-color:#6C1338"/>
	<stop  offset="0.5192" style="stop-color:#6A1138"/>
	<stop  offset="0.5383" style="stop-color:#6C1338"/>
	<stop  offset="0.6945" style="stop-color:#7E1E37"/>
	<stop  offset="0.8204" style="stop-color:#8A2435"/>
	<stop  offset="0.8995" style="stop-color:#8E2634"/>
</linearGradient>
<path fill="url(#SVGID_3_)" d="M832.215,373.275c-2.685-2.375,23.019,31.724,23.019,31.724s19.266,44.26,26.56,49.845
	c3.433,2.629,8.206,5.119,13.317,7.333c4.559,1.975,9.382,3.601,13.843,6.949c7.647,5.74,5.136,15.916,12.562,22.349
	c11.009,9.537,16.199,11.604,24.719,16.449c3.644,2.072,10.527,5.488,19.63,8.997c18.222,7.024,40.441,12.632,40.441,12.632
	s-28.057-29.076-39.499-37.552c-12.587-9.324-43.537-20.451-55.991-31.01c-11.108-9.418-27.61-33.879-36.179-45.654
	c-5.528-7.596-19.009-27.597-29.27-35.292C843.822,378.884,836.196,376.796,832.215,373.275z"/>
<linearGradient id="SVGID_4_" gradientUnits="userSpaceOnUse" x1="402.7393" y1="699.5334" x2="408.58" y2="699.5334">
	<stop  offset="0" style="stop-color:#210008"/>
	<stop  offset="0.513" style="stop-color:#391022"/>
	<stop  offset="0.562" style="stop-color:#3D1023"/>
	<stop  offset="0.6265" style="stop-color:#4A0D28"/>
	<stop  offset="0.6742" style="stop-color:#57042C"/>
	<stop  offset="0.7116" style="stop-color:#661030"/>
	<stop  offset="0.7638" style="stop-color:#771B33"/>
	<stop  offset="0.8139" style="stop-color:#842134"/>
	<stop  offset="0.8603" style="stop-color:#8B2534"/>
	<stop  offset="0.8995" style="stop-color:#8E2634"/>
</linearGradient>
<path opacity="0.1" fill="url(#SVGID_4_)" d="M403.183,694.592c-0.924-0.279-0.14,2.906,0,3.861
	c0.127,0.864,0.425,2.692,1.004,3.346c0.484,0.547,2.086,0.742,2.677,1.171c0.407,0.296,0.868,1.685,1.338,1.506
	c0.783-0.298,0.128-2.524,0-3.352c-0.127-0.822-0.541-2.481-1.004-3.172C406.469,696.864,404.689,695.047,403.183,694.592z"/>
<linearGradient id="SVGID_5_" gradientUnits="userSpaceOnUse" x1="590.4127" y1="685.0936" x2="776.8427" y2="577.4582">
	<stop  offset="0" style="stop-color:#210008"/>
	<stop  offset="0.513" style="stop-color:#391022"/>
	<stop  offset="0.562" style="stop-color:#3D1023"/>
	<stop  offset="0.6265" style="stop-color:#4A0D28"/>
	<stop  offset="0.6742" style="stop-color:#57042C"/>
	<stop  offset="0.7116" style="stop-color:#661030"/>
	<stop  offset="0.7638" style="stop-color:#771B33"/>
	<stop  offset="0.8139" style="stop-color:#842134"/>
	<stop  offset="0.8603" style="stop-color:#8B2534"/>
	<stop  offset="0.8995" style="stop-color:#8E2634"/>
</linearGradient>
<path fill="url(#SVGID_5_)" d="M535.217,589.154c1.043-3.35,21.454,3.55,29.593,5.222c3.997,0.821,86.181,6.093,91.307,6.302
	c17.757,0.725,25.209,16.128,40.993,24.297c18.626,9.639,27.794-6.636,46.612,2.623c4.861,2.392,23.353-9.489,28.19-7.047
	c4.004,2.022,19.999,6.552,23.022,9.867c10.78,11.82,10.382,25.038,13.155,27.25c4.275,3.409,12.994,7.86,21.143,12.216
	c11.426,6.108-26.286,14.697-31.224,13.911c-16.39-2.607-28.174-10.702-43.01-18.14c-9.344-4.685-28.72,3.154-37.746-2.118
	c-12.265-7.166-36.785-21.754-47.791-30.734c-4.375-3.57-5.773-13.69-10.724-16.406c-3.938-2.16-18.15-3.525-22.64-3.432
	c-7.225,0.15-21.993-6.538-23.991-6.523C607.11,606.48,533.732,593.925,535.217,589.154z"/>
<linearGradient id="SVGID_6_" gradientUnits="userSpaceOnUse" x1="640" y1="1615" x2="640" y2="346.1557">
	<stop  offset="0" style="stop-color:#210008"/>
	<stop  offset="0.3982" style="stop-color:#391022"/>
	<stop  offset="0.5156" style="stop-color:#4B0C28"/>
	<stop  offset="0.6225" style="stop-color:#57042C"/>
	<stop  offset="0.656" style="stop-color:#610D2F"/>
	<stop  offset="0.7274" style="stop-color:#741933"/>
	<stop  offset="0.794" style="stop-color:#832134"/>
	<stop  offset="0.8534" style="stop-color:#8B2434"/>
	<stop  offset="0.8995" style="stop-color:#8E2634"/>
</linearGradient>
<path fill="url(#SVGID_6_)" d="M-1,630.528c0,0,36.58,15.02,74.64,15.02c13.446,0,80.637,34.652,135.179,54.335
	c14.73,5.316,29.017,29.894,40.498,27.98c17.946-2.991,16.936,90.568,24.299,83.205c19.394-19.394,86.87-121.976,115.132-130.343
	c28.818-8.531,30.709-25.601,54.347-33.345c31.191-10.218,44.348-51.025,58.776-56.002
	c23.665-8.164,169.407-106.339,191.731-117.667c15.127-7.676,14.589-39.133,25.684-51.964c5.282-6.109,30.349-27.989,32.254-35.838
	c1.481-6.104-2.812-15.616-1.136-21.669c0.78-2.818,4.513-7.522,6.017-10.029c1.188-1.979,2.523-7.311,4.75-7.917
	c5.424-1.475,14.336,9.219,19.74,10.767c7.344,2.104,22.878,2.201,30.507,1.795c5.45-0.29,17.37-7.117,21.535-3.589
	c3.423,2.9-2.252,14.065,0,17.946c1.815,3.128,9.74,4.915,12.562,7.178c5.203,4.173,13.649,14.639,17.946,19.74
	c12.458,14.793,32.823,48.487,47.556,61.015c11.003,9.357,37.379,22.113,50.684,27.733c14.813,6.257,25.552,31.024,39.922,38.24
	c22.509,11.303,92.125,59.662,98.806,66.761c21.364,22.699,86.541,24.406,97.222,19.065c8.538-4.269,83.348,17.547,83.348,17.547
	V1615H-1V630.528z"/>
<linearGradient id="SVGID_7_" gradientUnits="userSpaceOnUse" x1="496.2794" y1="475.5141" x2="770.6043" y2="475.5141">
	<stop  offset="0.2462" style="stop-color:#57042C"/>
	<stop  offset="0.3713" style="stop-color:#661030"/>
	<stop  offset="0.5462" style="stop-color:#771B33"/>
	<stop  offset="0.7136" style="stop-color:#842134"/>
	<stop  offset="0.8688" style="stop-color:#8B2534"/>
	<stop  offset="1" style="stop-color:#8E2634"/>
</linearGradient>
<path fill="url(#SVGID_7_)" d="M496.279,595.716c0,0,136.155-89.76,198.903-122.752c3.849-2.024,14.78-36.837,21.811-47.981
	c6.914-10.958,29.112-27.428,33.352-39.672c1.516-4.376-1.642-14.004-0.597-18.516c0.733-3.166,6.089-11.484,6.089-11.484
	s-1.526,15.337-0.01,20.138c0.728,2.306,2.195,8.351,3.791,10.168c1.656,1.885,9.502,11.011,10.574,13.279
	c2.409,5.094-6.474,10.634-7.132,16.23c-1.438,12.236,1.017,49.46-3.935,60.741c-4.762,10.851-40.319,14.436-58.528,30.494
	c-20.954,18.479-28.219,33.403-37.871,43.035c-8.658,8.64-22.665,10.677-24.838,12.788c-2.515,2.443-19.435-9.582-22.232-9.502
	C587.643,553.482,496.279,595.716,496.279,595.716z"/>
<linearGradient id="SVGID_8_" gradientUnits="userSpaceOnUse" x1="784.8283" y1="897.8049" x2="784.8283" y2="483.9809">
	<stop  offset="0" style="stop-color:#430024"/>
	<stop  offset="0.4227" style="stop-color:#660F32"/>
	<stop  offset="0.5455" style="stop-color:#6B1333"/>
	<stop  offset="0.7547" style="stop-color:#791C35"/>
	<stop  offset="1" style="stop-color:#8E2634"/>
</linearGradient>
<path fill="url(#SVGID_8_)" d="M680.813,849.584c3.065-9.891,6.661-131.998,16.302-135.778c5.317-2.084,17.771-2.596,21.879-6.564
	c9.414-9.093,15.721-36.546,16.774-49.591c0.713-8.843-2.613-26.739-5.834-35.006c-1.869-4.795-10.875-12.109-11.247-17.242
	c-0.485-6.683,7.973-18.481,11.247-24.327c5.782-10.324,17.309-31.636,26.254-39.381c3.206-2.776,11.601-9.339,15.315-7.293
	c4.021,2.215,2.188,18.232,2.188,18.232s11.048-8.065,14.586-10.939c6.217-5.05,19.727-14.417,24.066-21.149
	c5.176-8.031,11.119-36.565,11.119-36.565l7.674,16.965c0,0-9.731,29.205-9.312,39.291c0.389,9.39,8.283,26.968,11.669,35.735
	c2.087,5.405,6.654,16.091,9.481,21.149c5.057,9.05,17.987,25.397,23.337,34.276c3.62,6.008,12.362,17.823,13.127,24.796
	c0.825,7.518,32.358,35.751,24.808,36.21c-11.017,0.669-41.502-40.383-49.604-47.878c-4.359-4.033-22.608-7.293-22.608-7.293
	s-1.871,5.968-2.188,8.022c-1.391,9.017,0.49,27.552-1.459,36.464c-2.864,13.098-11.505,39.577-20.42,49.591
	c-21.49,24.138-112.622,136.899-134.812,160.395C651.457,914.678,675.546,866.584,680.813,849.584z"/>
<linearGradient id="SVGID_9_" gradientUnits="userSpaceOnUse" x1="857.8317" y1="515.0826" x2="857.8317" y2="433.7249">
	<stop  offset="0" style="stop-color:#741933"/>
	<stop  offset="0.0374" style="stop-color:#771B33"/>
	<stop  offset="0.2182" style="stop-color:#842134"/>
	<stop  offset="0.3863" style="stop-color:#8B2534"/>
	<stop  offset="0.5285" style="stop-color:#8E2634"/>
</linearGradient>
<path fill="url(#SVGID_9_)" d="M836.387,438.338c0,0-1.973,16.336-2.02,21.812c-0.046,5.367,0.211,16.228,1.616,21.408
	c1.265,4.664,5.379,13.664,8.482,17.368c2.97,3.545,11.715,7.595,14.945,10.906c1.115,1.143,3.635,5.251,3.635,5.251
	s-3.267-17.6-2.424-23.427c0.532-3.675,2.34-12.06,5.655-13.733c3.345-1.689,12.425,6.728,14.541,3.635
	c2.864-4.185-7.78-13.36-11.714-16.561c-3.332-2.712-12.62-3.927-15.753-6.867c-2.899-2.719-5.679-10.495-7.271-14.137
	c-1.061-2.429-3.231-8.886-3.231-10.098S836.387,438.338,836.387,438.338z"/>
<linearGradient id="SVGID_10_" gradientUnits="userSpaceOnUse" x1="895.3577" y1="538.3431" x2="895.3577" y2="499.462">
	<stop  offset="0" style="stop-color:#822034"/>
	<stop  offset="0.1447" style="stop-color:#811F36"/>
	<stop  offset="0.3648" style="stop-color:#7D1D3B"/>
	<stop  offset="0.5192" style="stop-color:#7A1A3F"/>
	<stop  offset="0.6483" style="stop-color:#7B1B3F"/>
	<stop  offset="0.7637" style="stop-color:#7E1D3D"/>
	<stop  offset="0.8739" style="stop-color:#84213A"/>
	<stop  offset="0.9802" style="stop-color:#8C2535"/>
	<stop  offset="1" style="stop-color:#8E2634"/>
</linearGradient>
<path fill="url(#SVGID_10_)" d="M885.208,499.495c-1.061,0.302-2.739,2.289-2.824,3.388c-0.095,1.231,1.654,3.377,2.541,4.235
	c0.522,0.505,2.401,0.699,2.541,1.412c0.175,0.887-2.198,1.922-2.259,2.824c-0.138,2.053,3.169,5.299,4.235,7.059
	c1.543,2.548,4.37,7.825,6.212,10.165c0.865,1.098,3.059,2.879,3.953,3.953c0.877,1.054,1.947,3.787,3.106,4.518
	c1.149,0.724,4.59,1.962,5.365,0.847c1.479-2.128-3.92-6.719-5.083-9.036c-1.872-3.728-4.802-11.573-6.777-15.248
	c-1.863-3.467-5.367-10.851-8.471-13.271C887.221,499.93,885.852,499.312,885.208,499.495z"/>
<linearGradient id="SVGID_11_" gradientUnits="userSpaceOnUse" x1="959.1017" y1="630.2083" x2="959.1017" y2="457.1199">
	<stop  offset="0" style="stop-color:#822034"/>
	<stop  offset="0.1713" style="stop-color:#801F35"/>
	<stop  offset="0.4319" style="stop-color:#791B39"/>
	<stop  offset="0.5192" style="stop-color:#771A3A"/>
	<stop  offset="0.659" style="stop-color:#781B3A"/>
	<stop  offset="0.7839" style="stop-color:#7D1D39"/>
	<stop  offset="0.9028" style="stop-color:#852137"/>
	<stop  offset="1" style="stop-color:#8E2634"/>
</linearGradient>
<path fill="url(#SVGID_11_)" d="M889.238,459.115c2.052,1.676,5.286,5.938,7.059,7.906c1.405,1.559,3.728,5.363,5.647,6.212
	c1.485,0.657,5.158-0.921,6.494,0c1.306,0.9,2.668,4.397,2.259,5.93c-0.258,0.969-2.809,1.583-3.106,2.541
	c-0.523,1.686,1.214,5.185,1.977,6.777c7.296,15.223,25.537,42.372,37.75,54.026c1.148,1.095,4.765,4.304,6.299,4.706
	c2.667,0.698,8.477-1.646,11.012-0.565c10.818,4.614,22.888,26.856,30.778,35.578c5.996,6.629,18.733,19.205,24.566,25.978
	c3.511,4.077,11.516,11.856,13.271,16.942c0.391,1.134,0.954,4.072,0,4.8c-1.279,0.977-4.738-1.047-6.212-1.694
	c-2.062-0.906-5.46-4.176-7.624-4.8c-1.017-0.294-3.18,0.087-4.235,0c-1.712-0.142-5.28-0.286-6.777-1.129
	c-13.781-7.766-29.847-37.013-41.225-48.002c-1.626-1.57-4.866-5.102-7.059-5.647c-2.58-0.642-7.981,2.967-10.448,1.977
	c-1.127-0.452-2.136-2.952-2.824-3.953c-2.25-3.277-4.842-13.975-8.753-13.271c-0.927,0.167-0.767,2.732-0.847,3.671
	c-0.109,1.268,1.055,4.071,0.282,5.083c-0.613,0.803-2.97,1.084-3.953,0.847c-2.39-0.576-6.138-4.253-7.624-6.212
	c-8.654-11.41-16.808-39.546-22.872-52.52c-2.339-5.005-8.614-14.389-9.883-19.766c-0.568-2.405,0.653-7.5,0-9.883
	c-0.586-2.137-3.43-5.694-4.518-7.624c-1.101-1.953-4.379-5.669-4.236-7.906c0.039-0.606,0.818-1.849,1.412-1.977
	C886.809,456.933,888.479,458.494,889.238,459.115z"/>
<linearGradient id="SVGID_12_" gradientUnits="userSpaceOnUse" x1="738.5705" y1="452.0391" x2="738.5705" y2="376.7349">
	<stop  offset="0" style="stop-color:#822034"/>
	<stop  offset="0.4671" style="stop-color:#862234"/>
	<stop  offset="1" style="stop-color:#8E2634"/>
</linearGradient>
<path fill="url(#SVGID_12_)" d="M750.17,386.403c-0.898,3.259-4.926,8.865-6.494,11.859c-1.318,2.517-3.984,7.545-5.083,10.165
	c-2.02,4.818-6.371,14.558-6.777,19.766c-0.095,1.215,1.25,3.65,0.847,4.8c-0.778,2.218-5.929,4.151-7.059,6.212
	c-1.546,2.819-4.718,11.027-1.977,12.706c1.336,0.819,3.983-2.554,5.083-3.671c3.2-3.252,8.54-10.82,10.448-14.965
	c2.591-5.63,3.922-18.242,6.212-24.001c1.459-3.67,6.43-10.071,7.624-13.836c0.773-2.437,1.073-7.609,1.129-10.165
	c0.047-2.122,1.329-7.512-0.565-8.471c-0.821-0.416-2.648,1.178-3.106,1.977C749.504,380.434,750.677,384.565,750.17,386.403z"/>
<linearGradient id="SVGID_13_" gradientUnits="userSpaceOnUse" x1="935.4758" y1="696.9797" x2="935.4758" y2="600.5803">
	<stop  offset="0" style="stop-color:#6C1628"/>
	<stop  offset="0.1713" style="stop-color:#6D162B"/>
	<stop  offset="0.4319" style="stop-color:#6E1532"/>
	<stop  offset="0.5192" style="stop-color:#6F1535"/>
	<stop  offset="0.659" style="stop-color:#6F1635"/>
	<stop  offset="0.7839" style="stop-color:#711733"/>
	<stop  offset="0.9028" style="stop-color:#751A2E"/>
	<stop  offset="1" style="stop-color:#791C29"/>
</linearGradient>
<path fill="url(#SVGID_13_)" d="M913.022,609.656c-0.735,6.101,0.321,18.443,0.847,24.566c0.354,4.118,0.419,12.676,2.259,16.377
	c1.688,3.397,7.664,8.496,10.73,10.73c2.501,1.822,9.132,3.19,11.012,5.647c1.447,1.891,0.893,7.197,1.977,9.318
	c1.819,3.561,8.194,8.768,10.73,11.859c1.728,2.107,3.919,9.644,6.494,8.753c2.403-0.831,0.233-7.676-0.282-10.165
	c-1.233-5.956-5.514-17.63-9.036-22.589c-2.926-4.12-12.271-9.187-15.248-13.271c-2.533-3.476-5.882-11.606-6.777-15.812
	c-1.028-4.834,1.194-15.049-0.282-19.766c-1.322-4.223-5.53-15.477-9.883-14.683C913.255,601.041,913.303,607.326,913.022,609.656z"
	/>
<g>
	<linearGradient id="SVGID_14_" gradientUnits="userSpaceOnUse" x1="804.0115" y1="379.2792" x2="822.9586" y2="379.2792">
		<stop  offset="0" style="stop-color:#822034"/>
		<stop  offset="0.1713" style="stop-color:#801F35"/>
		<stop  offset="0.4319" style="stop-color:#791B39"/>
		<stop  offset="0.5192" style="stop-color:#771A3A"/>
		<stop  offset="0.659" style="stop-color:#781B3A"/>
		<stop  offset="0.7839" style="stop-color:#7D1D39"/>
		<stop  offset="0.9028" style="stop-color:#852137"/>
		<stop  offset="1" style="stop-color:#8E2634"/>
	</linearGradient>
	<path fill="url(#SVGID_14_)" d="M804.011,365.98c1.009,0.314,1.45,0.926,0.992,1.89c0.387,0.279,0.685,0.846,0.928,1.08
		c6.375,1.355,7.82,6.864,8.643,12.337c4.727,0.051,3.429,11.819,5.448,14.978c0.818-2.116,0.554-5.834,0.985-8.23
		c0.286-2.44,2.04-5.529,1.948-7.771c-0.082-1.765-1.551-3.645-2.444-5.346c-0.902-2.178-1.525-4.744-2.661-6.679
		c-1.334-2.313-5.262-5.434-8.422-5.945c-0.125,0.909-0.782,1.495-1.781,1.658L804.011,365.98z"/>
</g>
<g>
	<linearGradient id="SVGID_15_" gradientUnits="userSpaceOnUse" x1="824.4501" y1="404.7868" x2="882.2882" y2="404.7868">
		<stop  offset="0" style="stop-color:#822034"/>
		<stop  offset="0.1713" style="stop-color:#801F35"/>
		<stop  offset="0.4319" style="stop-color:#791B39"/>
		<stop  offset="0.5192" style="stop-color:#771A3A"/>
		<stop  offset="0.659" style="stop-color:#781B3A"/>
		<stop  offset="0.7839" style="stop-color:#7D1D39"/>
		<stop  offset="0.9028" style="stop-color:#852137"/>
		<stop  offset="1" style="stop-color:#8E2634"/>
	</linearGradient>
	<path fill="url(#SVGID_15_)" d="M880.386,425.397c-1.007-3.227-3.411-5.701-4.691-7.681c-1.776-2.925-3.785-5.606-5.75-8.432
		c-3.379-4.373-6.614-8.702-10.083-12.787c-3.811-4.508-8.469-8.331-12.235-12.983c-2.983-3.617-6.729-4.785-11.25-6.511
		c-1.972-0.773-3.188-1.943-4.566-1.581c-2.143,0.281-2.925,1.776-5.339,0.391c-0.135,0.432-0.702,0.73-0.981,1.117l-1.042,2.837
		c5.088,1.428,7.514,8.35,7.797,13.022c2.917,0.277,1.884,3.591,3.677,4.94c0.874,0.747,2.161,0.674,3.215,0.844
		c1.486,0.305,1.873,0.584,3.458,1.078c3.026,0.943,4.815-2.767,7.068,0.148c1.667,2.259,2.597,5.868,2.176,8.741
		c4.105,0.015,5.726-0.112,8.555,2.983c2.631,2.717,4.073,5.696,7.172,7.927c4.161,2.878,7.522,6.297,11.171,9.806
		c2.477,2.195,2.3,1.924,3.265,4.912c0.631,0.57,0.026-3.965-0.028-4.298L880.386,425.397z"/>
</g>
<g opacity="0.4">
	<linearGradient id="SVGID_16_" gradientUnits="userSpaceOnUse" x1="884.7086" y1="165.682" x2="1214.5182" y2="165.682">
		<stop  offset="0" style="stop-color:#2B0010"/>
		<stop  offset="0.1722" style="stop-color:#2E0013"/>
		<stop  offset="0.2658" style="stop-color:#39001A"/>
		<stop  offset="0.3154" style="stop-color:#3F0922"/>
		<stop  offset="0.5587" style="stop-color:#400D24"/>
		<stop  offset="0.7076" style="stop-color:#46172C"/>
		<stop  offset="0.8312" style="stop-color:#4F2537"/>
		<stop  offset="0.9403" style="stop-color:#5A3647"/>
		<stop  offset="1" style="stop-color:#614253"/>
	</linearGradient>
	<path fill="url(#SVGID_16_)" d="M1021.36,139.376c6.518-3.802,13.58-1.086,19.555,0.543c7.605,1.63,16.296,0,24.987-0.543
		c20.641-1.086,46.715-3.259,62.468,9.778c7.605-2.716,19.012,0,27.16,1.63c5.432,1.63,5.003,2.784,9.891,6.043
		c3.259,2.173,4.433,14.454,4.433,14.454s15.802-7.607,33.516-2.898c11.561,3.074,18.664,9.056-2.073,17.393
		c-14.678,1.838-18.571-3.117-18.865-3.827c-0.208-0.502-4.433,5.249-15.271,11.823c-15.025,9.113-33.866,6.759-47.144,11.955
		c-8.802,3.444-53.572-2.796-41.078-10.944c-7.605-1.086-19.555-4.346-15.21-13.58c-11.407,5.975-15.753,7.062-27.703,3.802
		c0-0.543,0.543-1.63,0.543-2.716c-10.321,1.086-41.826-2.716-27.703-18.469c-4.346-0.543-10.864-3.802-13.037-7.605
		c-2.173-2.716-0.543-5.975-2.173-9.234c-1.086-2.173-3.802-2.716-4.346-5.432c-7.062,5.975-24.987,14.123-30.962,3.259
		c-5.432,6.518-14.144,6.809-22.271,7.605c-10.977,1.075-23.685-17.157-24.514-12.461c-5.432,3.259-21.272-1.934-26.52-5.525
		c-2.136-1.462,6.63-4.973,6.63-4.973c5.432-1.63,9.172-2.679,12.431,2.21c9.234-1.63,33.602-15.102,30.886,1.737
		c4.346-1.63,8.691-1.086,10.864,3.259c6.518-2.173,13.037-2.173,19.012-3.259c5.432-1.086,10.864-3.259,16.296-4.889
		c5.975-1.086,38.024-9.778,35.308,3.259c2.173,1.086,1.086,2.173,1.63,4.346"/>
</g>
<g opacity="0.2">
	
		<linearGradient id="SVGID_17_" gradientUnits="userSpaceOnUse" x1="970.7719" y1="1197.9617" x2="970.7719" y2="1168.3904" gradientTransform="matrix(0.8581 0.5135 -0.5135 0.8581 686.5972 -1144.7062)">
		<stop  offset="0.0386" style="stop-color:#FEC673"/>
		<stop  offset="0.2424" style="stop-color:#FFC40C"/>
		<stop  offset="0.2636" style="stop-color:#FDB818"/>
		<stop  offset="0.3095" style="stop-color:#FAA425"/>
		<stop  offset="0.3593" style="stop-color:#F8952C"/>
		<stop  offset="0.4141" style="stop-color:#F68B2F"/>
		<stop  offset="0.4777" style="stop-color:#F58431"/>
		<stop  offset="0.5708" style="stop-color:#F58231"/>
		<stop  offset="0.6417" style="stop-color:#F38731"/>
		<stop  offset="0.7517" style="stop-color:#F0952E"/>
		<stop  offset="0.8863" style="stop-color:#ECAC27"/>
		<stop  offset="1" style="stop-color:#E7C21F"/>
	</linearGradient>
	<path fill="url(#SVGID_17_)" d="M900.945,379.623c-0.78-3.103,2.428-13.309,3.753-8.035c0.345-3.22-1.331-10.55,3.75-10.672
		c0.267-3.53,3.289-7.258,7.091-6.564c2.211,0.269,8.773,4.722,3.965,6.59c1.785,0.541,4.194,3.564,4.041,5.581
		c-0.229,3.026-1.938,1.476-4.498,1.79c-3.18,0.469-10.93,7.694-11.901,7.113L900.945,379.623z"/>
</g>
<g opacity="0.3">
	<linearGradient id="SVGID_18_" gradientUnits="userSpaceOnUse" x1="860.8576" y1="209.6095" x2="860.8576" y2="124.5858">
		<stop  offset="0" style="stop-color:#2D0012"/>
		<stop  offset="0.2738" style="stop-color:#310014"/>
		<stop  offset="0.4459" style="stop-color:#3A011C"/>
		<stop  offset="0.5899" style="stop-color:#45152A"/>
		<stop  offset="0.7185" style="stop-color:#51293B"/>
		<stop  offset="0.8368" style="stop-color:#5F3F50"/>
		<stop  offset="0.9461" style="stop-color:#6E5A6A"/>
		<stop  offset="1" style="stop-color:#756B7B"/>
	</linearGradient>
	<path fill="url(#SVGID_18_)" d="M869.608,124.586c1.433,1.433,2.866,1.433,0.478,4.299c3.821,1.433,4.777,6.21,1.433,9.553
		c5.254-0.478,7.165,6.21,5.254,10.509c1.911-5.254,17.196-11.464,15.285-1.911c4.299,2.388,8.598,6.21,4.299,10.986
		c7.643,2.388,5.732,11.464-0.955,13.375c3.821,4.299,3.821,10.509-0.478,14.807c8.12,7.165-11.464,16.718-18.629,7.165
		c3.821,5.254,4.777,10.986,1.433,16.24c-3.821-9.553-19.584-8.12-27.704-8.598c-3.344,0-7.165,0.955-10.509,0.478
		s-14.697-2.944-18.996-1.033c-0.955-0.955,4.667-5.177,4.667-6.132c2.866-2.866,2.866-6.21,5.254-9.076
		c2.388-2.866,3.344-1.911,6.687-4.299c7.643-5.732,6.687-12.419,8.598-21.017c0.478-2.866,1.911-4.777,2.388-7.165
		c1.433-3.344,0.478-6.687,0.955-9.553c1.433-6.21,7.643-10.509,13.375-14.33L869.608,124.586z"/>
</g>
<g opacity="0.2">
	<linearGradient id="SVGID_19_" gradientUnits="userSpaceOnUse" x1="814.0957" y1="46.2255" x2="814.0957" y2="4.320100e-10">
		<stop  offset="0.0386" style="stop-color:#FEC673"/>
		<stop  offset="0.3337" style="stop-color:#FFC40C"/>
		<stop  offset="0.7296" style="stop-color:#F58231"/>
		<stop  offset="0.7743" style="stop-color:#F38731"/>
		<stop  offset="0.8436" style="stop-color:#F0952E"/>
		<stop  offset="0.9283" style="stop-color:#ECAC27"/>
		<stop  offset="1" style="stop-color:#E7C21F"/>
	</linearGradient>
	<path fill="url(#SVGID_19_)" d="M780.553,10.426c2.643-5.526,10.091-8.89,15.377-5.046c3.844-7.208,13.246-7.096,17.091-0.128
		c3.844-2.643,12.974-1.201,13.695,4.085c8.409,0.481,12.222,21.272,11.261,26.557c1.201-5.766,1.442-11.293,2.162-17.059
		c0.961-7.448,9.611-5.766,9.611,0.961c5.046-0.24,6.968,2.403,8.169,7.208c1.201,4.085,0.481,5.286-3.364,7.448
		c1.201,5.286-5.286,7.929-9.13,9.37c-1.682,0.721-3.604,1.922-5.286,2.162c-2.162,0.24-4.085-0.721-6.247,0.24
		c-3.364-11.533-20.6-14.012-30.211-10.408c6.065-10.916-20.245-18.184-33.94-10.015c2.162-4.805,5.766-8.65,10.332-11.533"/>
</g>
<g opacity="0.2">
	<linearGradient id="SVGID_20_" gradientUnits="userSpaceOnUse" x1="685.4595" y1="128.6473" x2="685.4595" y2="53.69">
		<stop  offset="0.0386" style="stop-color:#FEC673"/>
		<stop  offset="0.2424" style="stop-color:#FFC40C"/>
		<stop  offset="0.2636" style="stop-color:#FDB818"/>
		<stop  offset="0.3095" style="stop-color:#FAA425"/>
		<stop  offset="0.3593" style="stop-color:#F8952C"/>
		<stop  offset="0.4141" style="stop-color:#F68B2F"/>
		<stop  offset="0.4777" style="stop-color:#F58431"/>
		<stop  offset="0.5708" style="stop-color:#F58231"/>
		<stop  offset="0.6417" style="stop-color:#F38731"/>
		<stop  offset="0.7517" style="stop-color:#F0952E"/>
		<stop  offset="0.8863" style="stop-color:#ECAC27"/>
		<stop  offset="1" style="stop-color:#E7C21F"/>
	</linearGradient>
	<path fill="url(#SVGID_20_)" d="M693.2,61.842c2.374-0.678,4.069,0.678,4.069,3.052c1.696-3.052,8.478-7.121,11.53-4.069
		c10.852-7.46,25.773,4.748,10.852,11.53c4.069-1.017,10.852-3.052,14.582-0.339c2.035-6.443,8.139-6.443,13.225-3.052
		c4.408,2.713,6.104,7.8,5.765,13.225c-0.678,8.478-11.869,15.599-18.99,19.669c-1.017-5.087-11.869-11.869-16.617-13.564
		c-7.46-2.374-15.599,1.017-22.042,0.339c-1.696-0.339-3.052-1.696-5.087-2.035c-1.696,0-4.408,1.696-6.104,2.374
		c-3.052,1.356-6.104,2.713-8.478,5.426c-5.087,5.087-6.104,14.921,1.356,18.651c-1.356,2.713,0,7.46,2.374,9.495
		c-8.478-3.73-14.921,0-21.364,6.104c-3.391-2.035-7.121-0.678-10.852-1.017c1.017-2.713,3.052-5.087,3.391-8.478
		c0-1.356-1.356-3.73-1.017-5.087c0.339-2.374,0.678-1.356,1.696-3.052c1.696-3.73,3.73-4.408,2.035-9.156
		c-0.678-1.696-2.713-1.696-3.052-3.052c-0.339-1.017,0.339-4.069,0.339-5.426c-0.678-7.46-6.104-14.243-13.225-7.8
		c-3.73,3.73-6.782,11.869-7.8,17.295c-1.356-1.356-3.391-2.035-5.087-1.356l-6.443-3.052c-1.356-3.73-0.678-10.512,4.748-7.8
		c1.017-5.426,6.782-9.834,11.191-12.208c6.782-3.73,9.156-2.713,15.938-1.356c0-8.478-1.017-11.869,8.478-11.869
		C658.61,65.233,669.243,41.696,693.2,61.842z"/>
</g>
<g opacity="0.2">
	<linearGradient id="SVGID_21_" gradientUnits="userSpaceOnUse" x1="955.9506" y1="105.349" x2="955.9506" y2="54.4602">
		<stop  offset="0.0386" style="stop-color:#FEC673"/>
		<stop  offset="0.2424" style="stop-color:#FFC40C"/>
		<stop  offset="0.2636" style="stop-color:#FDB818"/>
		<stop  offset="0.3095" style="stop-color:#FAA425"/>
		<stop  offset="0.3593" style="stop-color:#F8952C"/>
		<stop  offset="0.4141" style="stop-color:#F68B2F"/>
		<stop  offset="0.4777" style="stop-color:#F58431"/>
		<stop  offset="0.5708" style="stop-color:#F58231"/>
		<stop  offset="0.6417" style="stop-color:#F38731"/>
		<stop  offset="0.7517" style="stop-color:#F0952E"/>
		<stop  offset="0.8863" style="stop-color:#ECAC27"/>
		<stop  offset="1" style="stop-color:#E7C21F"/>
	</linearGradient>
	<path fill="url(#SVGID_21_)" d="M948.124,58.46c2.5-0.5,3-2.5,5,0c2-5,12-6,9.5,1c9.5,2,2.5,12-4,13c5-0.5,9.5-4.5,13.5-6
		c9.5,5.5,3,14.5-6.5,15.5c14,3.5,5,18-3,11.5c-3,7.5-21,13.5-27.5,11.5c1-3,3-5,6-6c-2.5,0-3-1.5-5-2c3-4.5,9.5-7,12-11
		c1.5-2,3.5-11.5,2-15L948.124,58.46z"/>
</g>
<g opacity="0.3">
	
		<linearGradient id="SVGID_22_" gradientUnits="userSpaceOnUse" x1="1069.244" y1="-376.7633" x2="1069.244" y2="-395.4323" gradientTransform="matrix(0.9559 -0.2937 0.2937 0.9559 11.7623 724.8733)">
		<stop  offset="0.2375" style="stop-color:#5F3E4E"/>
		<stop  offset="0.2444" style="stop-color:#5F3F50"/>
		<stop  offset="0.4156" style="stop-color:#726474"/>
		<stop  offset="0.5811" style="stop-color:#7F8393"/>
		<stop  offset="0.7376" style="stop-color:#879BAC"/>
		<stop  offset="0.8812" style="stop-color:#8AABBD"/>
		<stop  offset="1" style="stop-color:#8BB2C5"/>
	</linearGradient>
	<path fill="url(#SVGID_22_)" d="M910.064,52.952c-7.127-3.626,3.446-18.248,9.179-13.21c0.478-0.147,1.13,1.795,1.607,1.648
		c-1.906-13.014,14.536-15.5,11.775-5.76c-1.693,4.705-17.824,12.412-21.135,18.66L910.064,52.952z"/>
</g>
<g opacity="0.2">
	<linearGradient id="SVGID_23_" gradientUnits="userSpaceOnUse" x1="865.2964" y1="389.4253" x2="865.2964" y2="292.4517">
		<stop  offset="0.0386" style="stop-color:#FEC673"/>
		<stop  offset="0.2424" style="stop-color:#FFC40C"/>
		<stop  offset="0.2636" style="stop-color:#FDB818"/>
		<stop  offset="0.3095" style="stop-color:#FAA425"/>
		<stop  offset="0.3593" style="stop-color:#F8952C"/>
		<stop  offset="0.4141" style="stop-color:#F68B2F"/>
		<stop  offset="0.4777" style="stop-color:#F58431"/>
		<stop  offset="0.5708" style="stop-color:#F58231"/>
		<stop  offset="0.6417" style="stop-color:#F38731"/>
		<stop  offset="0.7517" style="stop-color:#F0952E"/>
		<stop  offset="0.8863" style="stop-color:#ECAC27"/>
		<stop  offset="1" style="stop-color:#E7C21F"/>
	</linearGradient>
	<path fill="url(#SVGID_23_)" d="M907.294,317.425c0.5,4-1,5-4,2c-5,3-10-0.5-15.5,3.5c5,0,9.5,6,8.5,11c5.5,4.5-5,13.5-9,16.5
		c4,2,19.392-1.769,19.392,8.231c-5.945-1.743-4.818,1.948-4.203,8.406c-2-4.5-7.211-5.743-12.711-1.743
		c-5.5,3.5-8.033,11.864-9.533,14.864s-9.945,8.243-12.945,9.243c-2-6-6.5-3-10.5-3c-5.5-0.5-5-1-9.5-3c7-6-1.5-8-6.5-7
		c0.5-2.5,0-4,1.5-6c-3.5-2-3-5.5,0.5-6.5c-5-5,3.5-9.5,8.5-7c1-4,5.5-8,9.5-6.5c-2-2.5-3.33-7.93-4.817-9.928
		c0.5-3.5-1.882-6.189-3.881-7.265c-9,0-3.303-9.807-12.303-8.807c1-8-11-3-15-7s0-12.5,7-10c3.5-7.5,12.5-6.5,15.5,1
		c4.5-2.5,7.5,2.5,8,6.5c5.5-2.5,14,1,11,8c0.5-0.5,3.5-1.5,3.5-1.5c1-3,2.5-4,5-5.5c-2-7.5-16-15-23.5-13c1-0.5,1.5-2,3-2.5
		c-3.5-7,14-12,17.5-3.5c4.5-5,11-2.5,13.5,3c6-2,17.289,2.624,20,8C906.386,310.092,907.294,317.425,907.294,317.425z"/>
</g>
<g opacity="0.2">
	<linearGradient id="SVGID_24_" gradientUnits="userSpaceOnUse" x1="743.5716" y1="51.2178" x2="743.5716" y2="5.4776">
		<stop  offset="0.0386" style="stop-color:#FEC673"/>
		<stop  offset="0.3337" style="stop-color:#FFC40C"/>
		<stop  offset="0.7296" style="stop-color:#F58231"/>
		<stop  offset="0.7743" style="stop-color:#F38731"/>
		<stop  offset="0.8436" style="stop-color:#F0952E"/>
		<stop  offset="0.9283" style="stop-color:#ECAC27"/>
		<stop  offset="1" style="stop-color:#E7C21F"/>
	</linearGradient>
	<path fill="url(#SVGID_24_)" d="M723.808,21.308c0.961-4.805,8.409-15.858,13.936-12.013c4.805-7.208,18.741-3.604,14.416,5.766
		c1.682,0.481,2.643,1.682,2.403,3.364c1.922-0.24,9.851,1.922,8.65,5.526c-0.24,0.961-3.844,1.201-4.805,2.162
		c-1.201,1.201-1.442,3.364-1.682,5.046c-8.409-9.13-13.213,15.974-14.655,20.059c-2.162-6.728-1.195-9.69-8.474-10.868
		c2.042-15.652-5.464-14.957-7.626-16.159"/>
</g>
<g opacity="0.2">
	<linearGradient id="SVGID_25_" gradientUnits="userSpaceOnUse" x1="880.1271" y1="63.2845" x2="880.1271" y2="40.178">
		<stop  offset="0.0386" style="stop-color:#FEC673"/>
		<stop  offset="0.3337" style="stop-color:#FFC40C"/>
		<stop  offset="0.7296" style="stop-color:#F58231"/>
		<stop  offset="0.7743" style="stop-color:#F38731"/>
		<stop  offset="0.8436" style="stop-color:#F0952E"/>
		<stop  offset="0.9283" style="stop-color:#ECAC27"/>
		<stop  offset="1" style="stop-color:#E7C21F"/>
	</linearGradient>
	<path fill="url(#SVGID_25_)" d="M868.011,47.427c1.682-1.682,4.085-2.883,5.766-0.721c1.442-1.682,11.052-10.091,12.494-4.805
		c2.643-1.682,6.968-1.442,5.766,2.883c-0.481,2.162-4.325,3.123-6.728,4.565c-6.007,3.604-10.091,8.169-13.455,13.936
		c0-3.123,0.961-7.208-0.24-10.332L868.011,47.427z"/>
</g>
<g opacity="0.2">
	<linearGradient id="SVGID_26_" gradientUnits="userSpaceOnUse" x1="872.778" y1="301.5312" x2="872.778" y2="240.6546">
		<stop  offset="0.0386" style="stop-color:#FEC673"/>
		<stop  offset="0.2424" style="stop-color:#FFC40C"/>
		<stop  offset="0.2636" style="stop-color:#FDB818"/>
		<stop  offset="0.3095" style="stop-color:#FAA425"/>
		<stop  offset="0.3593" style="stop-color:#F8952C"/>
		<stop  offset="0.4141" style="stop-color:#F68B2F"/>
		<stop  offset="0.4777" style="stop-color:#F58431"/>
		<stop  offset="0.5708" style="stop-color:#F58231"/>
		<stop  offset="0.6417" style="stop-color:#F38731"/>
		<stop  offset="0.7517" style="stop-color:#F0952E"/>
		<stop  offset="0.8863" style="stop-color:#ECAC27"/>
		<stop  offset="1" style="stop-color:#E7C21F"/>
	</linearGradient>
	<path fill="url(#SVGID_26_)" d="M831.901,250.857c-1.433,1.433,28.286-15.407,39.744-8.555c1.433,3.821,0.955,8.598-1.911,11.464
		c4.777-2.866,17.793-4.333,17.316,3.31c8.12-0.955,3.701,11.02-1.075,14.841c5.254-3.821,14.33-0.955,11.464,6.21
		c5.732,3.344,21.017,15.763,14.807,23.405c-4.777-5.254-10.031-3.821-16.24-6.687c-5.254-2.388-10.031-10.986-17.673-6.21
		c-4.299-3.344-11.942-4.777-16.718-2.388c-4.777,1.911-13.073-13.953-17.372-13.953c-4.777-0.478-0.815-2.93-12.279-6.274
		c4.898-3.314,12.833-10.1,7.825-13.893C837.647,250.505,831.901,250.857,831.901,250.857z"/>
</g>
<g opacity="0.3">
	<linearGradient id="SVGID_27_" gradientUnits="userSpaceOnUse" x1="940.3152" y1="256.7006" x2="907.7651" y2="200.3222">
		<stop  offset="0" style="stop-color:#2D0012"/>
		<stop  offset="0.2738" style="stop-color:#310014"/>
		<stop  offset="0.4459" style="stop-color:#3A011C"/>
		<stop  offset="0.5899" style="stop-color:#45152A"/>
		<stop  offset="0.7185" style="stop-color:#51293B"/>
		<stop  offset="0.8368" style="stop-color:#5F3F50"/>
		<stop  offset="0.9461" style="stop-color:#6E5A6A"/>
		<stop  offset="1" style="stop-color:#756B7B"/>
	</linearGradient>
	<path fill="url(#SVGID_27_)" d="M881.318,218.274c3.623-5.435,9.058-9.964,14.493-5.435c4.529-7.246,19.021-16.304,20.833-2.717
		c12.681-6.34,46.195,0,24.456,13.587c3.623-3.623,11.775-4.529,12.681-3.623l7.498,0.845c3.374-2.249,7.498-0.375,5.623,3.749
		c10.497-5.248,3.374,10.497,0.75,13.496c-7.123,8.622-17.994,12.746-27.741,17.245c-8.247,3.374-21.368,11.621-30.741,8.997
		c-7.873-2.249-8.997-11.996-18.369-11.247c3.749-10.497,0.375-11.996-9.372-11.247c0.75-3.749,2.624-7.873,0.75-11.621
		L881.318,218.274z"/>
</g>
<g opacity="0.2">
	<linearGradient id="SVGID_28_" gradientUnits="userSpaceOnUse" x1="924.5825" y1="313.5871" x2="924.5825" y2="276.2697">
		<stop  offset="0.0386" style="stop-color:#FEC673"/>
		<stop  offset="0.2424" style="stop-color:#FFC40C"/>
		<stop  offset="0.2636" style="stop-color:#FDB818"/>
		<stop  offset="0.3095" style="stop-color:#FAA425"/>
		<stop  offset="0.3593" style="stop-color:#F8952C"/>
		<stop  offset="0.4141" style="stop-color:#F68B2F"/>
		<stop  offset="0.4777" style="stop-color:#F58431"/>
		<stop  offset="0.5708" style="stop-color:#F58231"/>
		<stop  offset="0.6417" style="stop-color:#F38731"/>
		<stop  offset="0.7517" style="stop-color:#F0952E"/>
		<stop  offset="0.8863" style="stop-color:#ECAC27"/>
		<stop  offset="1" style="stop-color:#E7C21F"/>
	</linearGradient>
	<path fill="url(#SVGID_28_)" d="M933.95,311.513c3.221-1.342,4.027-5.369,1.074-7.785c8.59,11.275,16.643-16.107,2.953-10.469
		c0-6.443-6.711-9.664-12.348-8.053c3.221-5.906-7.785-7.785-11.543-6.174c0-3.758-7.298-2.85-10.251-2.045
		c0,0,10.438,7.043,12.372,10.482c3.093,5.499,3.659,7.367,3.265,10.31c-0.301,2.25-2.425,7.809-2.425,7.809
		s4.487-0.077,7.752-4.544c0.909-1.243,1.811-7.076,1.811-7.076s2.811,3.233,3,9.826c0.077,2.687-1.718,9.795-1.718,9.795
		L933.95,311.513z"/>
</g>
<g opacity="0.2">
	<linearGradient id="SVGID_29_" gradientUnits="userSpaceOnUse" x1="592.8556" y1="132.1441" x2="592.8556" y2="106.4536">
		<stop  offset="0.0386" style="stop-color:#FEC673"/>
		<stop  offset="0.3337" style="stop-color:#FFC40C"/>
		<stop  offset="0.7296" style="stop-color:#F58231"/>
		<stop  offset="0.7743" style="stop-color:#F38731"/>
		<stop  offset="0.8436" style="stop-color:#F0952E"/>
		<stop  offset="0.9283" style="stop-color:#ECAC27"/>
		<stop  offset="1" style="stop-color:#E7C21F"/>
	</linearGradient>
	<path fill="url(#SVGID_29_)" d="M590.415,106.642c3.758-1.074,3.758,2.684,2.416,5.1c7.785-6.443,8.59,6.174,8.322,10.469
		c4.564,0.805,4.564,6.443,3.49,9.932c-2.684-5.369-7.516-8.859-13.691-7.516c0-4.027-6.979-10.201-10.469-5.637
		c0.268-3.49,0.805-8.053,4.564-9.396"/>
</g>
<g opacity="0.3">
	<linearGradient id="SVGID_30_" gradientUnits="userSpaceOnUse" x1="881.7513" y1="119.7295" x2="881.7513" y2="48.7494">
		<stop  offset="0" style="stop-color:#2B0010"/>
		<stop  offset="0.1165" style="stop-color:#320015"/>
		<stop  offset="0.2608" style="stop-color:#400D24"/>
		<stop  offset="0.4197" style="stop-color:#502739"/>
		<stop  offset="0.5892" style="stop-color:#624455"/>
		<stop  offset="0.7671" style="stop-color:#756B7A"/>
		<stop  offset="0.9494" style="stop-color:#889FB0"/>
		<stop  offset="1" style="stop-color:#8BB2C5"/>
	</linearGradient>
	<path fill="url(#SVGID_30_)" d="M849.387,51.059c4.5-2,11-3.5,15.5-1c9,6.5,1,16.5-3.5,22.5c5,3-0.5,11.5-4,14.5
		c7.5-4,11.5-9,16-15c3.5-5,6-19.5,13.5-15c6.5-12.5,28,0,16.5,9.5c4-3,9-9.5,13.5-4c8-9,18.5-1.5,16.5,8.5c7.5-5,9.5,3,7.5,9
		c-1,5-5,10-9,13.5c-10.5,9.5-18.5,8.5-31,11c-10,2-20,11-30.5,14c-4,1-26,4-19.5-6.5c-4.5,3-9.5,0.5-9.5-5
		c-5.5,4-13.5,0.5-19.5-0.5c11.5-8,36.5-27.5,30-45L849.387,51.059z"/>
</g>
<g opacity="0.3">
	
		<linearGradient id="SVGID_31_" gradientUnits="userSpaceOnUse" x1="741.3961" y1="-648.6345" x2="741.3961" y2="-661.2487" gradientTransform="matrix(0.7725 -0.635 0.635 0.7725 84.8659 1216.1263)">
		<stop  offset="0" style="stop-color:#A93B23"/>
		<stop  offset="0.0268" style="stop-color:#BA4A24"/>
		<stop  offset="0.0856" style="stop-color:#DD6822"/>
		<stop  offset="0.1186" style="stop-color:#ED7420"/>
		<stop  offset="0.7539" style="stop-color:#AA5175"/>
		<stop  offset="1" style="stop-color:#5A1C39"/>
	</linearGradient>
	<path fill="url(#SVGID_31_)" d="M229.557,243.181c-0.451,3.515,5.778,4.878,5.823,1.108c0.998,1.931,2.874,0.389,3.757-0.927
		c1.782,3.841,7.519,0.303,9.416-1.453c2.366-2.141,2.935-5.753,6.244-6.508c-3.397-0.548-5.336,1.636-8.249-1.669
		c-2.215,2.803-6.408,4.874-9.278,1.143c-1.16,1.936-1.796,4.03-4.016,4.676"/>
</g>
<g opacity="0.3">
	
		<linearGradient id="SVGID_32_" gradientUnits="userSpaceOnUse" x1="2927.3657" y1="-467.1723" x2="2927.3657" y2="-486.4625" gradientTransform="matrix(-0.8646 0.5024 0.5024 0.8646 3045.0183 -811.5621)">
		<stop  offset="0" style="stop-color:#A93B23"/>
		<stop  offset="0.0268" style="stop-color:#BA4A24"/>
		<stop  offset="0.0856" style="stop-color:#DD6822"/>
		<stop  offset="0.1186" style="stop-color:#ED7420"/>
		<stop  offset="0.7539" style="stop-color:#AA5175"/>
		<stop  offset="1" style="stop-color:#5A1C39"/>
	</linearGradient>
	<path fill="url(#SVGID_32_)" d="M292.736,235.735c2.287,1.184,2.806,5.222-0.676,4.733c-0.362,4.093-3.748,13.598-9.655,9.721
		c1.454-2.215,2.428-6.435,0.967-8.556c-1.041,1.747-5.402,8.392-8.13,7.236c-2.054,3.934-9.749,6.807-13.183,2.863
		c-4.154,1.5-7.746-0.753-11.553-2.195c2.192-1.73,7.382-2.233,10.054-1.959c-0.337-2.545,2.098-4.645,4.555-3.56
		c-1.426,2.656,3.791,2.594,5.356,2.142c1.906-0.651,4.539-2.409,6.048-3.742c2.093-1.901,5.462-10.254,6.272-10.04"/>
</g>
<g opacity="0.2">
	<linearGradient id="SVGID_33_" gradientUnits="userSpaceOnUse" x1="414.848" y1="284.6765" x2="414.848" y2="235.7929">
		<stop  offset="0" style="stop-color:#A93B23"/>
		<stop  offset="0.0268" style="stop-color:#BA4A24"/>
		<stop  offset="0.0856" style="stop-color:#DD6822"/>
		<stop  offset="0.1186" style="stop-color:#ED7420"/>
		<stop  offset="0.7539" style="stop-color:#AA5175"/>
		<stop  offset="1" style="stop-color:#5A1C39"/>
	</linearGradient>
	<path fill="url(#SVGID_33_)" d="M417.817,253.653c1.58,3.555,8.727,4.251,11.294,0.498c1.975,0.79,17.459-4.732,19.039-5.522
		c0.395,3.752,5.727,0.79,7.702,0.197c0.592,3.752,0.395,5.332,4.937,5.925c2.567,0.395,7.11,0,9.282-1.58
		c4.74,2.37,15.997,0.197,13.627-7.307c5.135,1.382,10.664-6.122,12.837-10.072c-1.185,5.332-1.58,10.862-3.16,16.194
		c-1.975,6.912-6.122,10.862-12.047,14.812c-8.69,5.727-24.094,13.824-33.968,6.517c5.332,0.197,11.454-5.332,12.244-10.269
		c-5.727,1.975-9.874,5.135-16.194,5.925c-1.975,0.395-19.946-0.395-14.417-5.727c-4.542,0.592-12.931,1.617-12.339-4.11
		c0,0-4.061,7.847-19.946,18.63c-6.307,4.282-13.824,6.912-21.131,6.912c-2.765,0-7.11,0-9.282-1.58
		c-3.752-2.962-0.592-3.357,1.58-4.74c1.58-0.987,2.567-2.765,3.16-4.345c-2.172,0.592-4.74,1.382-7.307,1.185
		c-2.567-0.395-6.912-2.962-4.74-6.122c-4.147,0.197-14.35,2.635-22.514-6.517c-2.603-2.918-3.752-6.122-3.16-9.677
		c0.592-2.765,4.057-9.614,7.11-7.505c1.81,1.251,0.871,9.676,15.207,12.244c3.774,0.676,6.912-0.79,9.282-3.555
		c-1.777,2.567,0.592,6.715,3.752,5.53c-1.382,4.542,6.32,2.765,8.097,0.592c-2.37,5.925,6.32,4.937,9.085,1.777
		c-0.592,2.37,9.464-1.045,11.043-1.835c-1.58,2.765,4.122,3.926,6.976,2.657C417.874,256.561,417.817,253.653,417.817,253.653z"/>
</g>
<g opacity="0.3">
	<linearGradient id="SVGID_34_" gradientUnits="userSpaceOnUse" x1="944.6881" y1="100.02" x2="1019.8436" y2="230.193">
		<stop  offset="0" style="stop-color:#ED7420"/>
		<stop  offset="0.0142" style="stop-color:#E36F30"/>
		<stop  offset="0.0414" style="stop-color:#D56847"/>
		<stop  offset="0.0716" style="stop-color:#C96256"/>
		<stop  offset="0.1046" style="stop-color:#BF5D61"/>
		<stop  offset="0.1413" style="stop-color:#B75868"/>
		<stop  offset="0.1834" style="stop-color:#B1556E"/>
		<stop  offset="0.2341" style="stop-color:#AD5372"/>
		<stop  offset="0.3022" style="stop-color:#AB5174"/>
		<stop  offset="0.4617" style="stop-color:#AA5175"/>
		<stop  offset="1" style="stop-color:#803756"/>
	</linearGradient>
	<path fill="url(#SVGID_34_)" d="M1078.94,194.811c-7.605-1.086-19.555-4.346-15.21-13.58c-11.407,5.975-15.753,7.062-27.703,3.802
		c0-0.543,0.543-1.63,0.543-2.716c-10.321,1.086-41.826-2.716-27.703-18.469c-4.346-0.543-10.864-3.802-13.037-7.605
		c-2.173-2.716-0.543-5.975-2.173-9.234c-1.086-2.173-3.802-2.716-4.346-5.432c-7.062,5.975-24.987,14.123-30.962,3.259
		c-5.432,6.518-14.144,6.809-22.271,7.605c-10.977,1.075-23.685-17.157-24.514-12.461c-5.432,3.259-21.272-1.934-26.52-5.525
		l21.026,10.816c6.889,1.148,8.42,3.444,13.395,8.802c4.21,4.593,17.988,14.16,22.963,5.358c1.531,1.914,3.444,1.914,5.358,0
		c0,8.42,11.099,2.679,11.099-3.444c5.741,4.21,18.753,1.148,24.111-3.827c-5.741,10.333-0.383,23.728,11.481,14.16
		c-3.062,2.296-12.247,19.901-1.914,15.691c-0.765,6.123,10.333,8.037,14.16,4.593c4.975,6.123,18.37,12.247,24.876,3.062
		c1.148,3.444,4.593,4.593,8.42,3.444c-0.383,8.037,14.543,1.914,17.988-1.148c-1.148,3.062,1.148,4.593,4.21,3.827
		c-0.765,3.062,0,7.272,4.21,6.506C1073.397,200.137,1070.914,200.444,1078.94,194.811z"/>
</g>
<g opacity="0.2">
	<linearGradient id="SVGID_35_" gradientUnits="userSpaceOnUse" x1="777.6071" y1="362.8899" x2="777.6071" y2="303.8899">
		<stop  offset="0" style="stop-color:#A93B23"/>
		<stop  offset="0.0268" style="stop-color:#BA4A24"/>
		<stop  offset="0.0856" style="stop-color:#DD6822"/>
		<stop  offset="0.1186" style="stop-color:#ED7420"/>
		<stop  offset="0.7539" style="stop-color:#AA5175"/>
		<stop  offset="1" style="stop-color:#5A1C39"/>
	</linearGradient>
	<path fill="url(#SVGID_35_)" d="M793.632,362.89c-4.5-6-3-9-3-15.5c-3.5,0.5-2.5-0.5-5-1c5-1.5,5-8.5,5-13l0.5,0.5
		c-3,3-10,3.5-11-2c-4.5,4-12.5,1-7.5-5c-6.5-3,1-10,5.5-11c-2.5-5.5,4-8.5,7.5-12c-3.282,0.729-6.165,2.731-9.544,3.084
		c-2.68,0.28-5.256-1.016-5.256-1.016s0.76,2.788,0.599,3.714l-1.492,3.791c-1.848,2.259-4.928,3.08-6.776,4.928
		c-2.259,2.464-2.669,10.472,2.669,7.187c-3.491,2.259-4.517,8.214-3.696,11.91c0.821,3.491,8.008,10.472,9.651,4.107
		c-1.437,5.339,2.875,9.24,8.008,7.598c-0.411,3.491,6.16,11.499,9.446,12.731L793.632,362.89z"/>
</g>
<g opacity="0.2">
	<linearGradient id="SVGID_36_" gradientUnits="userSpaceOnUse" x1="548.2906" y1="308.9091" x2="548.2906" y2="209.8259">
		<stop  offset="0" style="stop-color:#A93B23"/>
		<stop  offset="0.0268" style="stop-color:#BA4A24"/>
		<stop  offset="0.0856" style="stop-color:#DD6822"/>
		<stop  offset="0.1186" style="stop-color:#ED7420"/>
		<stop  offset="0.7539" style="stop-color:#AA5175"/>
		<stop  offset="1" style="stop-color:#5A1C39"/>
	</linearGradient>
	<path fill="url(#SVGID_36_)" d="M753.595,209.897c0,6-5.156,13.067-14.656,10.567c-4,15.5-18.808,15.595-29.308,12.595
		c-6.5-1.5-23-3-27.5-9.5c-3,6.5-11,1.5-13.5-3c8,24.5-26,38.5-45.5,33.5c-3,11-30,3.5-33-4c-2.5,3-5.5,1-6.5-2.5
		c-5,18-36.5,23.5-51.5,14.5c-0.5,14.5-19.5,18-29,10c-2.5,0.5-2,1-4.5,0.5c10,16.5-24,30.5-31,17.5c-3,2.5-5.841,0.483-9-2
		c6,6-6,5.5-9,5c-8-2-20-5.5-25-12l-6.589-9.439c-9.075,5.775-22.063,16.076-32.788,18.551c-4.95,1.65-17.325,5.775-23.1,4.95
		c-9.075-1.65-12.375-8.25-2.475-14.025c-18.15,7.425-23.212,19.185-15.644,16.158c10.595,16.649,55.881,13.842,64.206,1.733
		l9.082,2.27c4.541,9.838,28.941,10.811,37.266-2.811c21.19,7.568,52.502,5.948,47.205-20.54
		c6.054-0.757,23.751,10.485,29.805,7.458c8.325,10.595,22.434,0.974,20.921-16.433c-0.757,11.352,25.895-4.505,30.436-11.316
		c6.811,22.704,30.423,27.185,42.532,10.535c0.757,0,24.477,6.529,33.559-10.121c17.714,5.792,19.052-20.17,23.593-29.251
		c1.514,10.595,11.314,13.786,28.035,15.148c11.619,0.946,31.183-2.984,31.94-12.822c3.027,2.27,7.423,1.471,10.638-2.023
		c5.859-10.284,0.313-19.256,0.313-19.256L753.595,209.897z"/>
</g>
<g opacity="0.2">
	<linearGradient id="SVGID_37_" gradientUnits="userSpaceOnUse" x1="776.0927" y1="290.4391" x2="776.0927" y2="175.9391">
		<stop  offset="0" style="stop-color:#A93B23"/>
		<stop  offset="0.0268" style="stop-color:#BA4A24"/>
		<stop  offset="0.0856" style="stop-color:#DD6822"/>
		<stop  offset="0.1186" style="stop-color:#ED7420"/>
		<stop  offset="0.7539" style="stop-color:#AA5175"/>
		<stop  offset="1" style="stop-color:#5A1C39"/>
	</linearGradient>
	<path fill="url(#SVGID_37_)" d="M759.403,191.642c0,3.452,3.434,21.485,7.872,22.718c-1.973,1.479-6.59,14.827,3.212,20.251
		c-5.178,1.479-10.714,2.89-12.194,8.314c-1.479,5.424,3.945,10.849,9.123,7.644c-4.438,4.192,4.192,5.918,6.657,5.671
		c-4.438,3.452,2.792,18.05,2.792,18.05s-6.251,2.676-5.516,8.188c0.285,2.135,3.29,7.961,3.29,7.961c-1.5-5,2.5-16,9-14
		c-1.5-4-1.5-9.5,4-10.5c-7-4-0.5-13.5,6.5-14l-11.5-0.5c-2.5-1-4-1.5-2.5-4c-4.5-4.5-0.5-9.5,5-10c-4.5-0.5-7.5-3-7-7.5
		c-9,3-15-11.5-4.5-12c-2.5-2.5-2.5-6-0.5-8.5c-6.5-10,9-14,16-10.5c-2-2.5-3-3.5-3-7c-8,3-21-8.5-22-16L759.403,191.642z"/>
</g>
<linearGradient id="SVGID_38_" gradientUnits="userSpaceOnUse" x1="115.9874" y1="719.2182" x2="115.9874" y2="647.8105">
	<stop  offset="0" style="stop-color:#6C1628"/>
	<stop  offset="0.1713" style="stop-color:#6D162B"/>
	<stop  offset="0.4319" style="stop-color:#6E1532"/>
	<stop  offset="0.5192" style="stop-color:#6F1535"/>
	<stop  offset="0.659" style="stop-color:#6F1635"/>
	<stop  offset="0.7839" style="stop-color:#711733"/>
	<stop  offset="0.9028" style="stop-color:#751A2E"/>
	<stop  offset="1" style="stop-color:#791C29"/>
</linearGradient>
<path fill="url(#SVGID_38_)" d="M149.417,684.519c-1.554,6.667-3.314,1.856-8.653,5.669c-6.609,4.721-4.774,3.282-12.533,5.67
	c-5.014,1.543-5.67,5.073-8.952,9.847c-5.152,7.493-3.156,0.454-8.655,7.406c-4.341,5.488-6.568,3.027-10.319,5.659
	c-4.948,3.472,3.405-14.192,4.494-20.138c1.506-8.228-0.832-2.33-2.829-9.487c-0.505-1.81-1.831-7.656-6.736-14.259
	c-4.659-6.272-14.153-10.425-12.408-11.067c7.084-2.604-1.119-16.009-1.119-16.009s16.919,5.181,27.365,9.25
	c3.391,1.321,28.277,12.479,31.693,13.733c4.258,1.562,9.505,5.322,9.505,5.322S150.267,680.872,149.417,684.519z"/>
<linearGradient id="SVGID_39_" gradientUnits="userSpaceOnUse" x1="46.7679" y1="670.113" x2="46.7679" y2="630.9194">
	<stop  offset="0.2462" style="stop-color:#57042C"/>
	<stop  offset="0.7409" style="stop-color:#6B1431"/>
	<stop  offset="1" style="stop-color:#731832"/>
</linearGradient>
<path fill="url(#SVGID_39_)" d="M91.917,651.069c0,0-0.011,1.326,1.536,4.329c0.59,1.145-2.141,2.845-3.368,5.734
	c-1.854,4.367-2.765,9.979-3.368,8.829c-2.521-4.812-19.19-9.504-21.667-9.386c-4.488,0.214-13.022-3.522-17.437-4.359
	c-7.096-1.345-9.493-7.596-15.851-11.021C25.375,641.753,0,630.919,0,630.919s37.965,11.013,50.998,12.992
	c6.096,0.926,18.62-0.238,24.64,1.095C79.311,645.819,91.917,651.069,91.917,651.069z"/>
<linearGradient id="SVGID_40_" gradientUnits="userSpaceOnUse" x1="359.9032" y1="767.9433" x2="359.9032" y2="679.5218">
	<stop  offset="0" style="stop-color:#6C1628"/>
	<stop  offset="0.1713" style="stop-color:#6A1429"/>
	<stop  offset="0.4319" style="stop-color:#640F2C"/>
	<stop  offset="0.5192" style="stop-color:#620D2D"/>
	<stop  offset="0.659" style="stop-color:#620E2D"/>
	<stop  offset="0.7839" style="stop-color:#65102B"/>
	<stop  offset="0.9028" style="stop-color:#691428"/>
	<stop  offset="1" style="stop-color:#6E1723"/>
</linearGradient>
<path fill="url(#SVGID_40_)" d="M307.437,767.943c0,0,21.957-14.228,28.543-19.914c8.975-7.748,22.091-28.886,32.526-34.517
	c2.521-1.361,8.462-2.482,11.284-1.991c3.954,0.688,11.305,4.938,13.94,7.965c1.173,1.348,0.89,6.358,2.655,6.638
	c1.28,0.203,2.47-3.003,3.319-3.983c1.462-1.688,5.077-4.594,5.974-6.638c1.265-2.882,0.121-9.572,1.186-12.534
	c0.822-2.286,6.097-5.701,5.452-8.044c-1.151-4.182-13.017-3.959-15.711-7.358c-1.189-1.501,0.065-6.512-1.578-7.495
	c-3.615-2.164-12.544,2.596-16.174,4.734c-10.636,6.264-26.997,25.413-35.11,34.716
	C333.797,730.925,307.437,767.943,307.437,767.943z"/>
</svg>
