<?xml version="1.0" encoding="utf-8"?>
<!-- Generator: Adobe Illustrator 17.0.0, SVG Export Plug-In . SVG Version: 6.00 Build 0)  -->
<!DOCTYPE svg PUBLIC "-//W3C//DTD SVG 1.1//EN" "http://www.w3.org/Graphics/SVG/1.1/DTD/svg11.dtd">
<svg version="1.1" id="Layer_1" xmlns="http://www.w3.org/2000/svg" xmlns:xlink="http://www.w3.org/1999/xlink" x="0px" y="0px"
	 width="1280px" height="57.443px" viewBox="0 0 1280 57.443" enable-background="new 0 0 1280 57.443" xml:space="preserve">
<g>
	<g>
		<linearGradient id="SVGID_1_" gradientUnits="userSpaceOnUse" x1="640" y1="58" x2="640" y2="-1">
			<stop  offset="0" style="stop-color:#2E2231"/>
			<stop  offset="0.0206" style="stop-color:#302331"/>
			<stop  offset="0.1464" style="stop-color:#3E272E"/>
			<stop  offset="0.2667" style="stop-color:#47292A"/>
			<stop  offset="0.3782" style="stop-color:#4D2A27"/>
			<stop  offset="0.4723" style="stop-color:#4F2A26"/>
		</linearGradient>
		<rect x="-1" y="-1" fill="url(#SVGID_1_)" width="1282" height="59"/>
		<path opacity="0.5" fill="#49392C" d="M684.86,19.793c-5.712,2.621-15.532,8.567-16.426,11.833
			c-1.134,4.143,10.767,11.966,12.32,16.094c0.795,2.112-6.132,8.318,0,8.52c9.02,0.297,5.639-9.202,6.844-12.307
			c1.187-3.058,1.726-9.241,2.738-12.307c1.294-3.924,16.883-13.736,6.844-15.62C693.558,15.326,687.341,18.655,684.86,19.793z"/>
		<path opacity="0.5" fill="#49392C" d="M704.231,20.242c-4.086,4.574,9.714,14.503,11.123,19.602
			c0.891,3.225,5.565,17.583,5.565,17.583h24.016c0,0,1.299-13.156,2.198-17.583c1.424-7.013,15.47-23.397,6.356-28.003
			C743.768,6.929,710.189,13.572,704.231,20.242z"/>
		<path opacity="0.5" fill="#49392C" d="M1031.047,21.017c-20.402,2.415,2.924,12.851,6.003,17.397
			c3.135,4.629-5.7,17.953,18.416,18.701c11.439,0.355,12.815-5.91,14.671-8.095c4.5-5.298,11.61-16.581,0-21.469
			C1064.771,25.292,1042.086,19.711,1031.047,21.017z"/>
		<path opacity="0.5" fill="#49392C" d="M859.53,24.522c-12.464,0.03-11.474,15.944-12.585,21.469
			c-0.609,3.031,2.03,11.409,2.03,11.409l10.71,0.028c0,0,5.402-20.496,4.624-25.095C863.967,30.315,864.078,24.511,859.53,24.522z"
			/>
		<path opacity="0.5" fill="#49392C" d="M1082.51,25.068c-4.659,0.687-0.578,6.062-0.106,8.071
			c1.133,4.821-2.594,18.695,9.275,18.999c3.617,0.093,3.929-4.149,4.585-5.601c1.57-3.475,4.264-10.776,1.46-14.119
			C1095.817,30.144,1088.059,24.25,1082.51,25.068z"/>
		<path opacity="0.5" fill="#49392C" d="M1240.862,30.211c-2.176,2.615-3.483,9.68-3.745,13.068c-0.145,1.876-0.9,7.035,0.936,7.467
			c2.464,0.58,4.663-6.063,5.617-8.401c1.437-3.518,5.85-12.647,2.809-14.935C1245.226,26.468,1241.865,29.007,1240.862,30.211z"/>
		<path opacity="0.5" fill="#49392C" d="M361.532,20.839c-9.207,1.465-10.516,11.238-11.534,15.185
			c-1.306,5.065-0.884,14.247,4.543,20.285c3.019,3.359,4.57-10.566,6.991-14.002c3.206-4.547,20.351-13.296,16.313-17.735
			C376.238,22.805,365.897,20.145,361.532,20.839z"/>
		<path opacity="0.5" fill="#49392C" d="M496.3,23.003c1.348,2.544-4.207,7.923-6.7,9.374c-3.862,2.247-15.081-1.681-17.788,1.867
			c-0.862,1.13,1.008,4.183,0.936,5.601c-0.135,2.657-0.165,9.904-2.809,10.268c-2.704,0.372-4.192-7.014-5.617-9.334
			c-1.153-1.877-2.487-7.218-4.681-7.467c-1.315-0.149-3.238,2.514-3.745,3.734c-0.985,2.372,0.231,7.711,0,10.268
			c-0.235,2.598-1.883,10.132-1.883,10.132h-21.529c0,0,0.895-9.097,0.007-11.998c-1.694-5.537-15.491-14-12.965-19.212
			c3.151-6.501,21.647-1.901,28.881-2.257C460.367,23.388,490.706,12.446,496.3,23.003z"/>
		<path opacity="0.5" fill="#49392C" d="M281.508,15.734c0.639,5.293-16.717,3.95-19.66,8.401c-1.16,1.753,1.792,7.297,0,8.401
			c-2.671,1.646-8.097-5.471-11.235-5.601c-2.519-0.104-7.704,1.84-9.362,3.734c-2.538,2.899-3.003,11.158-3.745,14.935
			c-0.318,1.619,0.674,6.151-0.936,6.534c-2.779,0.662-5.242-6.804-6.553-9.334c-1.597-3.082-1.718-11.25-4.681-13.068
			c-3.214-1.972-12.482-0.954-14.979,1.867c-1.239,1.4,0.253,5.618,0,7.467c-0.591,4.32-0.329,16.382-4.681,16.802
			c-2.605,0.251-4.042-6.804-4.681-9.334c-1.943-7.698-6.345-25.912-0.936-31.737c10.029-10.8,44.245-3.665,58.981-2.8
			C264.724,12.334,280.827,10.097,281.508,15.734z"/>
		<path opacity="0.5" fill="#49392C" d="M48.77,20.028c2.595,4.329-12.327,11.579-14.554,15.994
			c-2.248,4.457,4.057,17.369-2.869,18.669c-3.929,0.737-8.714-5.884-10.04-8.401c-1.862-3.532-3.585-11.443-4.546-15.124
			c-1.273-4.875-10.747-14.906-5.495-18.48C18.034,8.081,45.212,14.092,48.77,20.028z"/>
		<linearGradient id="SVGID_2_" gradientUnits="userSpaceOnUse" x1="565.8956" y1="46.65" x2="577.4675" y2="46.65">
			<stop  offset="0.2229" style="stop-color:#0B142A"/>
			<stop  offset="0.2403" style="stop-color:#0A1429"/>
			<stop  offset="1" style="stop-color:#00000F"/>
		</linearGradient>
		<polygon fill="url(#SVGID_2_)" points="568.974,47.499 575.092,42.206 577.468,43.51 574.907,48.199 569.901,51.094 
			566.389,48.508 565.896,46.073 		"/>
		<g>
			<polygon fill="none" points="328.047,49.195 328.627,49.279 328.019,49.164 			"/>
			<linearGradient id="SVGID_3_" gradientUnits="userSpaceOnUse" x1="322.3048" y1="43.6089" x2="345.2383" y2="43.6089">
				<stop  offset="0" style="stop-color:#7A4230"/>
				<stop  offset="0.3975" style="stop-color:#794330"/>
				<stop  offset="0.5992" style="stop-color:#794630"/>
				<stop  offset="0.7569" style="stop-color:#784A30"/>
				<stop  offset="0.8909" style="stop-color:#764F30"/>
				<stop  offset="1" style="stop-color:#745530"/>
			</linearGradient>
			<polygon opacity="0.5" fill="url(#SVGID_3_)" points="328.019,49.164 328.627,49.279 337.508,50.566 340.592,47.618 
				344.089,42.819 345.238,36.652 343.746,36.652 342.992,37.198 334.323,42.476 326.539,45.493 322.305,45.914 326.054,47.016 			
				"/>
			<polygon fill="#875C5B" points="346.341,42.827 345.238,36.652 346.26,42.375 			"/>
			<polygon opacity="0.5" fill="#B05B3A" points="334.323,42.476 342.992,37.198 343.746,36.652 337.741,36.652 322.305,45.914 
				326.539,45.493 			"/>
			<polygon fill="#341F12" points="346.26,42.375 344.089,42.819 340.592,47.618 337.508,50.566 338.536,51.206 338.843,51.206 
				340.387,51.206 346.341,42.827 			"/>
			<polygon opacity="0.5" fill="#D46F4C" points="346.26,42.375 345.238,36.652 344.089,42.819 			"/>
			<polygon opacity="0.5" fill="#512E17" points="337.508,50.566 328.627,49.279 328.047,49.195 328.019,49.164 326.054,47.016 
				322.305,45.914 324.208,48.029 327.43,49.88 338.536,51.206 			"/>
		</g>
		<g>
			<linearGradient id="SVGID_4_" gradientUnits="userSpaceOnUse" x1="563.6981" y1="39.905" x2="574.9919" y2="39.905">
				<stop  offset="0" style="stop-color:#7A4230"/>
				<stop  offset="0.3975" style="stop-color:#794330"/>
				<stop  offset="0.5992" style="stop-color:#794630"/>
				<stop  offset="0.7569" style="stop-color:#784A30"/>
				<stop  offset="0.8909" style="stop-color:#764F30"/>
				<stop  offset="1" style="stop-color:#745530"/>
			</linearGradient>
			<polygon opacity="0.5" fill="url(#SVGID_4_)" points="568.242,46.342 569.206,45.449 574.992,41.199 573.858,42.032 
				573.92,40.127 573.313,36.734 571.885,35.591 571.16,34.687 571.16,34.687 568.868,33.468 569.672,33.896 568.956,34.674 
				566.134,36.199 565.456,38.77 564.634,40.377 564.416,40.965 563.698,35.881 565.077,45.646 567.813,45.735 			"/>
			<polygon opacity="0.5" fill="#512E17" points="575.023,39.298 574.992,41.199 569.206,45.449 568.242,46.342 567.813,45.735 
				565.077,45.646 568.983,47.599 575.647,41.74 			"/>
			<polygon opacity="0.5" fill="#B05B3A" points="564.634,40.377 565.456,38.77 566.134,36.199 568.956,34.674 569.672,33.896 
				568.868,33.468 563.698,35.881 564.416,40.965 			"/>
			<polygon opacity="0.5" fill="#D46F4C" points="571.885,35.591 573.313,36.734 573.92,40.127 573.858,42.032 574.992,41.199 
				575.023,39.298 574.206,36.056 571.16,34.687 571.16,34.687 			"/>
		</g>
		<g>
			<polygon fill="none" points="879.937,50.746 880.516,50.83 879.909,50.715 			"/>
			<linearGradient id="SVGID_5_" gradientUnits="userSpaceOnUse" x1="874.1945" y1="45.1602" x2="897.1279" y2="45.1602">
				<stop  offset="0" style="stop-color:#7A4230"/>
				<stop  offset="0.3975" style="stop-color:#794330"/>
				<stop  offset="0.5992" style="stop-color:#794630"/>
				<stop  offset="0.7569" style="stop-color:#784A30"/>
				<stop  offset="0.8909" style="stop-color:#764F30"/>
				<stop  offset="1" style="stop-color:#745530"/>
			</linearGradient>
			<polygon opacity="0.5" fill="url(#SVGID_5_)" points="879.909,50.715 880.516,50.83 889.397,52.117 892.482,49.169 
				895.978,44.371 897.128,38.204 895.635,38.204 894.881,38.749 886.213,44.028 878.429,47.044 874.194,47.465 877.943,48.568 			
				"/>
			<polygon fill="#875C5B" points="898.231,44.378 897.128,38.204 898.15,43.926 			"/>
			<polygon opacity="0.5" fill="#B05B3A" points="886.213,44.028 894.881,38.749 895.635,38.204 889.63,38.204 874.194,47.465 
				878.429,47.044 			"/>
			<polygon opacity="0.5" fill="#351A12" points="898.15,43.926 895.978,44.371 892.482,49.169 889.397,52.117 890.425,52.757 
				890.733,52.757 892.277,52.757 898.231,44.378 			"/>
			<polygon opacity="0.5" fill="#D46F4C" points="898.15,43.926 897.128,38.204 895.978,44.371 			"/>
			<polygon opacity="0.5" fill="#512E17" points="889.397,52.117 880.516,50.83 879.937,50.746 879.909,50.715 877.943,48.568 
				874.194,47.465 876.098,49.58 879.32,51.431 890.425,52.757 			"/>
		</g>
		<g>
			<linearGradient id="SVGID_6_" gradientUnits="userSpaceOnUse" x1="1167.0295" y1="41.2821" x2="1175.8344" y2="41.2821">
				<stop  offset="0" style="stop-color:#7A4230"/>
				<stop  offset="0.3975" style="stop-color:#794330"/>
				<stop  offset="0.5992" style="stop-color:#794630"/>
				<stop  offset="0.7569" style="stop-color:#784A30"/>
				<stop  offset="0.8909" style="stop-color:#764F30"/>
				<stop  offset="1" style="stop-color:#745530"/>
			</linearGradient>
			<polygon opacity="0.5" fill="url(#SVGID_6_)" points="1171.639,46.18 1175.834,40.498 1175.447,36.906 1169.845,34.505 
				1167.03,36.382 1167.819,35.856 1168.719,36.906 1168.719,40.073 1169.143,42.728 1168.512,44.455 1168.906,46.6 1171.2,48.059 
				1170.105,47.362 			"/>
			<polygon fill="#391212" points="1177.873,37.946 1175.447,36.906 1175.447,36.906 1175.834,40.498 1171.639,46.18 
				1170.105,47.362 1171.2,48.059 1178.603,39.093 			"/>
			<polygon opacity="0.5" fill="#B05B3A" points="1168.719,40.073 1168.719,36.906 1167.819,35.856 1167.03,36.382 1168.512,44.455 
				1168.512,44.455 1169.143,42.728 			"/>
		</g>
		<g>
			<polygon fill="#875C5B" points="386.176,44.252 386.144,46.291 386.144,47.115 386.176,46.743 			"/>
			<linearGradient id="SVGID_7_" gradientUnits="userSpaceOnUse" x1="377.4487" y1="47.2696" x2="386.1443" y2="47.2696">
				<stop  offset="0" style="stop-color:#7A4230"/>
				<stop  offset="0.3975" style="stop-color:#794330"/>
				<stop  offset="0.5992" style="stop-color:#794630"/>
				<stop  offset="0.7569" style="stop-color:#784A30"/>
				<stop  offset="0.8909" style="stop-color:#764F30"/>
				<stop  offset="1" style="stop-color:#745530"/>
			</linearGradient>
			<polygon opacity="0.5" fill="url(#SVGID_7_)" points="384.802,47.228 386.144,46.291 385.379,46.124 383.281,44.139 
				383.196,42.624 379.257,45.644 379.028,46.59 378.504,48.015 377.449,47.796 380.418,51.915 383.281,49.027 			"/>
			<polygon opacity="0.5" fill="#512E17" points="384.802,47.228 383.281,49.027 380.418,51.915 383.483,52.969 385.686,52.49 
				386.144,47.115 386.144,47.115 386.144,46.291 			"/>
			<polygon opacity="0.5" fill="#D46F4C" points="379.028,46.59 379.257,45.644 379.257,45.644 377.449,47.03 377.449,47.796 
				378.504,48.015 			"/>
			<polygon opacity="0.5" fill="#B05B3A" points="385.379,46.124 386.144,46.291 386.176,44.252 383.916,42.398 383.196,42.624 
				383.281,44.139 			"/>
		</g>
		<g>
			
				<linearGradient id="SVGID_8_" gradientUnits="userSpaceOnUse" x1="457.9236" y1="1116.6522" x2="467.357" y2="1116.6522" gradientTransform="matrix(0.6647 0.7471 -0.7471 0.6647 775.1729 -1043.9935)">
				<stop  offset="0" style="stop-color:#7A4230"/>
				<stop  offset="0.3975" style="stop-color:#794330"/>
				<stop  offset="0.5992" style="stop-color:#794630"/>
				<stop  offset="0.7569" style="stop-color:#784A30"/>
				<stop  offset="0.8909" style="stop-color:#764F30"/>
				<stop  offset="1" style="stop-color:#745530"/>
			</linearGradient>
			<polygon opacity="0.5" fill="url(#SVGID_8_)" points="243.847,46.798 244.939,46.904 250.804,48.154 249.655,47.909 
				250.878,46.891 252.658,44.628 252.578,43.102 252.74,42.147 252.74,42.147 252.228,40.041 252.408,40.78 251.524,40.765 
				249.007,39.851 247.025,40.855 245.566,41.235 245.078,41.425 247.852,38.154 242.524,44.437 243.988,46.193 			"/>
			<polygon opacity="0.5" fill="#512E17" points="252.008,47.118 250.804,48.154 244.939,46.904 243.847,46.798 243.988,46.193 
				242.524,44.437 243.474,47.959 250.83,48.863 			"/>
			<polygon opacity="0.5" fill="#B05B3A" points="245.566,41.235 247.025,40.855 249.007,39.851 251.524,40.765 252.408,40.78 
				252.228,40.041 247.852,38.154 245.078,41.425 			"/>
			<polygon opacity="0.5" fill="#D46F4C" points="252.578,43.102 252.658,44.628 250.878,46.891 249.655,47.909 250.804,48.154 
				252.008,47.118 253.577,44.808 252.74,42.147 252.74,42.147 			"/>
		</g>
		<g>
			<polygon opacity="0.5" fill="#D46F4C" points="1159.319,40.528 1162.825,41.994 1165.074,44.699 1161.653,39.055 
				1153.197,41.804 1154.312,41.809 			"/>
			<polygon opacity="0.5" fill="#512E17" points="1166.284,49.723 1165.467,48.554 1163.629,50.184 1155.872,48.098 1155.142,48.53 
				1164.504,53.384 1167.313,48.393 			"/>
			<polygon fill="#391212" points="1155.57,43.729 1154.312,41.809 1153.197,41.804 1155.142,48.53 1155.872,48.098 			"/>
			<polygon opacity="0.5" fill="#28130E" points="1164.509,46.495 1165.467,48.554 1166.284,49.723 1167.313,48.393 
				1165.074,44.699 			"/>
			<linearGradient id="SVGID_9_" gradientUnits="userSpaceOnUse" x1="1154.3124" y1="45.3556" x2="1165.4668" y2="45.3556">
				<stop  offset="0" style="stop-color:#7A4230"/>
				<stop  offset="0.3975" style="stop-color:#794330"/>
				<stop  offset="0.5992" style="stop-color:#794630"/>
				<stop  offset="0.7569" style="stop-color:#784A30"/>
				<stop  offset="0.8909" style="stop-color:#764F30"/>
				<stop  offset="1" style="stop-color:#745530"/>
			</linearGradient>
			<polygon opacity="0.5" fill="url(#SVGID_9_)" points="1159.319,40.528 1154.312,41.809 1155.57,43.729 1155.872,48.098 
				1163.629,50.184 1165.467,48.554 1164.509,46.495 1165.074,44.699 1165.074,44.699 1162.825,41.994 			"/>
		</g>
		<linearGradient id="SVGID_10_" gradientUnits="userSpaceOnUse" x1="381.3794" y1="50.0356" x2="388.1854" y2="50.0356">
			<stop  offset="0.2229" style="stop-color:#0B142A"/>
			<stop  offset="0.2403" style="stop-color:#0A1429"/>
			<stop  offset="1" style="stop-color:#00000F"/>
		</linearGradient>
		<polygon fill="url(#SVGID_10_)" points="381.379,52.322 383.628,54.267 387.699,54.328 388.185,46.914 386.452,45.744 
			386.176,46.743 385.636,52.449 383.341,52.959 		"/>
		<linearGradient id="SVGID_11_" gradientUnits="userSpaceOnUse" x1="327.8879" y1="46.7053" x2="348.0737" y2="46.7053">
			<stop  offset="0.2229" style="stop-color:#0B142A"/>
			<stop  offset="0.2403" style="stop-color:#0A1429"/>
			<stop  offset="1" style="stop-color:#00000F"/>
		</linearGradient>
		<polygon fill="url(#SVGID_11_)" points="327.888,49.943 339.68,52.68 343.379,52.894 348.074,45.425 346.865,40.517 
			346.082,40.73 346.305,42.694 340.318,51.231 		"/>
		<linearGradient id="SVGID_12_" gradientUnits="userSpaceOnUse" x1="244.2385" y1="46.9468" x2="254.9137" y2="46.9468">
			<stop  offset="0.2229" style="stop-color:#0B142A"/>
			<stop  offset="0.2403" style="stop-color:#0A1429"/>
			<stop  offset="1" style="stop-color:#00000F"/>
		</linearGradient>
		<polygon fill="url(#SVGID_12_)" points="244.239,48.072 251.485,50.915 254.914,46.24 253.02,42.979 253.605,44.816 
			250.852,48.911 		"/>
		<linearGradient id="SVGID_13_" gradientUnits="userSpaceOnUse" x1="881.5204" y1="50.173" x2="900.5148" y2="50.173">
			<stop  offset="0.2229" style="stop-color:#0B142A"/>
			<stop  offset="0.2403" style="stop-color:#0A1429"/>
			<stop  offset="1" style="stop-color:#00000F"/>
		</linearGradient>
		<polygon fill="url(#SVGID_13_)" points="881.52,51.77 889.991,55.648 897.88,55.227 900.515,44.698 897.76,44.986 892.251,52.798 
					"/>
		<linearGradient id="SVGID_14_" gradientUnits="userSpaceOnUse" x1="1160.9091" y1="50.199" x2="1172.7631" y2="50.199">
			<stop  offset="0.2229" style="stop-color:#0B142A"/>
			<stop  offset="0.2403" style="stop-color:#0A1429"/>
			<stop  offset="1" style="stop-color:#00000F"/>
		</linearGradient>
		<polygon fill="url(#SVGID_14_)" points="1160.909,51.699 1165.936,54.851 1172.763,50.949 1170.137,48.323 1165.561,45.547 
			1167.313,48.393 1164.905,52.868 		"/>
		<linearGradient id="SVGID_15_" gradientUnits="userSpaceOnUse" x1="1170.36" y1="44.1947" x2="1179.8962" y2="44.1947">
			<stop  offset="0.2229" style="stop-color:#0B142A"/>
			<stop  offset="0.2403" style="stop-color:#0A1429"/>
			<stop  offset="1" style="stop-color:#00000F"/>
		</linearGradient>
		<polygon fill="url(#SVGID_15_)" points="1178.104,39.717 1179.896,41.459 1172.098,48.672 1170.36,47.593 1171.079,47.833 		"/>
		<g>
			<path fill="#0F1129" d="M1281,31.875c-11.305,2.502-17.987,15.909-31.586,8.883c-12.552-6.485-42.185-9.501-41.404-5.736
				c0.561,2.705-5.387,10.806-5.966,9.467c-3.096-7.172-25.789-13.981-38.817-13.981c-12.316,0-26.736,13.553-37.821,9.858
				c0-7.39-2.463-13.548-9.853-16.011c3.695,9.853-1.232,18.474-8.621,23.401c-8.621-24.632-16.011-13.548-33.253-8.621
				c-14.779,3.695-39.387,1.438-54.166,2.67c-14.779,1.232-47.507,12.15-38.255,1.353c1.751-2.043-7.536-13.348-12.463-12.117
				c-3.695,1.232-6.03,9.67-9.725,10.902c-7.39,2.463-11.085,6.158-19.706,3.695c0-2.463-8.13-13.527-8.13-17.222
				c-3.695,1.232-2.885,14.414-6.579,15.645c-3.695-22.169-54.191-2.463-71.433-2.463c-8.621,0-17.242-1.232-25.864,0
				c-7.39,1.232-8.701,9.041-13.388,5.834c-6.099-4.173-22.329-4.602-28.487-4.602c-4.926,0-12.316,6.158-18.474,6.158
				c0-2.463-1.232-4.926-2.463-6.158c0.156,8.689-7.389,9.733-7.87,7.025c-1.126-6.345-18.716-12.929-24.152-15.646
				c-12.316-6.158-47.171,2.294-59.711,7.568c-15.542,6.538-39.189,11.411-31.542,1.666c3.123-3.98-4.813-8.003-14.666-9.235
				c-7.39-1.232,1.088,19.984-8.961,8.349c-4.784-5.54-10.594-9.66-21.678-8.429c0,1.232-3.086,10.731-4.317,10.731
				c-3.695-1.232-21.839-19.984-25.533-21.216c-4.248,28.886-48.863,28.248-36.538,18.421c6.712-5.351-25.291-8.112-37.201-2.819
				c-25.137,11.172-27.731-6.113-55.037-10.25c-9.234-1.399-8.882,10.39-12.381,10.228c-30.221-1.399-72.043-7.415-97.907-6.183
				c-14.779,0-29.286,6.094-44.065,7.325c-16.011,2.463-32.022,0-48.033-1.232c-33.253,0-50.561,7.036-85.046,2.11
				c-14.779-2.463-16.637-7.534-20.176-1.602c-9.653,16.179-20.878,9.422-51.193-7.897c-2.463,2.463,4.614,13.944,3.382,16.407
				c-3.695-3.695-19.393-13.944-21.856-16.407c11.084,22.169-19.706,9.853-28.327,7.39C18.189,35.44,12.548,30.627-1,31.859V-1h1282
				V31.875z"/>
		</g>
		<g>
			<g>
				
					<linearGradient id="SVGID_16_" gradientUnits="userSpaceOnUse" x1="640" y1="2009.8339" x2="640" y2="1961.0653" gradientTransform="matrix(1 0 0 1 0 -1962.0653)">
					<stop  offset="0.2444" style="stop-color:#BA2F19"/>
					<stop  offset="0.6411" style="stop-color:#D95C21"/>
					<stop  offset="0.8624" style="stop-color:#EA7125"/>
					<stop  offset="0.9569" style="stop-color:#F18222"/>
					<stop  offset="1" style="stop-color:#F68B20"/>
				</linearGradient>
				<path fill="url(#SVGID_16_)" d="M1281,27.938c-12.171-1.106-17.895,16.128-31.494,9.102
					c-12.552-6.485-42.185-9.501-41.404-5.736c0.561,2.705-5.387,10.806-5.966,9.467c-3.096-7.172-25.789-13.981-38.817-13.981
					c-12.316,0-26.736,13.553-37.821,9.858c0-7.39-2.463-13.548-9.853-16.011c3.695,9.853-1.232,18.474-8.621,23.401
					c-8.621-24.632-16.011-13.548-33.253-8.621c-14.779,3.695-39.387,1.438-54.166,2.67c-14.779,1.232-47.507,12.15-38.255,1.353
					c1.751-2.043-7.536-13.348-12.463-12.117c-3.695,1.232-6.03,9.67-9.725,10.902c-7.39,2.463-11.084,6.158-19.706,3.695
					c0-2.463-8.13-13.527-8.13-17.222c-3.695,1.232-2.885,14.414-6.579,15.645c-3.695-22.169-54.191-2.463-71.433-2.463
					c-8.621,0-17.242-1.232-25.864,0c-7.39,1.232-9.139,10.133-13.827,6.926c-6.099-4.173-21.89-5.694-28.048-5.694
					c-4.926,0-12.316,6.158-18.474,6.158c0-2.463-1.232-4.926-2.463-6.158c0.156,8.689-6.443,10.132-6.924,7.425
					c-1.126-6.345-19.662-13.328-25.098-16.046c-12.316-6.158-47.171,2.294-59.711,7.568c-15.542,6.538-38.936,13.542-31.288,3.797
					c3.123-3.98-5.067-10.134-14.92-11.365c-7.39-1.232,1.088,19.984-8.961,8.349c-4.784-5.54-10.594-9.66-21.678-8.429
					c0,1.232-3.086,10.731-4.317,10.731c-3.695-1.232-21.839-19.984-25.533-21.216c-4.248,28.886-47.051,30.552-34.727,20.725
					c6.711-5.351-27.103-10.416-39.012-5.123c-25.137,11.172-27.731-6.113-55.037-10.25c-9.234-1.399-8.882,10.39-12.381,10.228
					c-30.221-1.399-72.043-7.415-97.907-6.183c-14.779,0-29.286,6.094-44.065,7.325c-16.011,2.463-32.022,0-48.033-1.232
					c-33.253,0-50.561,7.036-85.046,2.11c-14.779-2.463-16.73-8.519-20.268-2.587c-9.653,16.179-20.785,10.407-51.1-6.912
					c-2.463,2.463,4.614,13.944,3.382,16.407c-3.695-3.695-19.393-13.944-21.856-16.407c11.084,22.169-19.706,9.853-28.327,7.39
					c-7.597-2.072-7.682-5.553-32.83-7.475V-1h1282V27.938z"/>
			</g>
			
				<linearGradient id="SVGID_17_" gradientUnits="userSpaceOnUse" x1="613.6514" y1="1949.116" x2="613.6514" y2="1908.4034" gradientTransform="matrix(1 0 0 1 0 -1907.8116)">
				<stop  offset="0.2444" style="stop-color:#EF3E23"/>
				<stop  offset="0.3226" style="stop-color:#EF4C23"/>
				<stop  offset="0.4718" style="stop-color:#EF5F24"/>
				<stop  offset="0.59" style="stop-color:#EE6124"/>
				<stop  offset="0.6967" style="stop-color:#EC6A24"/>
				<stop  offset="0.7989" style="stop-color:#E97725"/>
				<stop  offset="0.8978" style="stop-color:#E58725"/>
				<stop  offset="0.9227" style="stop-color:#E38C26"/>
			</linearGradient>
			<path fill="url(#SVGID_17_)" d="M432.888,18.259c3.663,0.71,14.813-4.509,32.316-0.846c8.139,1.703,4.394,22.316,11.518,15.969
				c8.599-7.661,28.645-5.565,35.831-5.136c25.58,1.526,23.075,8.18,23.701,12.35c0.819,5.459,25.859-22.449,31.826-23.107
				c9.191-1.014,16.545,15.732,22.174,13.308c3.638-1.566,20.84-7.468,26.237-8.465c2.596-0.48,9.138,0.152,12.163,0.057
				c4.65-0.145,14.06-0.611,18.244-1.243c7.274-1.098,17.449-5.317,24.793-6.372c5.265-0.756,15.177-2.092,20.434-1.331
				c3.316,0.48,7.413,2.777,8.187,4.132c3.68,6.447-6.235,9.161-3.939,10.309c1.536,0.768,28.266-4.33,31.071-5.684
				c2.955-1.427,10.486-2.95,15.671-3.556c5.278-0.617,20.819,3.443,32.427,0.926c10.27-2.226,20.197,4.78,23.315,0.383
				c2.656-3.745-4.592-19.203-4.592-19.203L432.839,0.592C432.839,0.592,421.601,16.071,432.888,18.259z"/>
			
				<linearGradient id="SVGID_18_" gradientUnits="userSpaceOnUse" x1="340.2852" y1="1935.9038" x2="340.2852" y2="1909.995" gradientTransform="matrix(1 0 0 1 0 -1907.8116)">
				<stop  offset="0.2444" style="stop-color:#EF3E23"/>
				<stop  offset="0.3226" style="stop-color:#EF4C23"/>
				<stop  offset="0.4718" style="stop-color:#EF5F24"/>
				<stop  offset="0.5643" style="stop-color:#EE6124"/>
				<stop  offset="0.6477" style="stop-color:#EC6A24"/>
				<stop  offset="0.6939" style="stop-color:#EA7125"/>
				<stop  offset="0.8226" style="stop-color:#EC8124"/>
			</linearGradient>
			<path fill="url(#SVGID_18_)" d="M418.283,6.201c2.934,0.757,4.303,3.72,2.075,6.415c-4.395,5.313-27.382,12.513-36.276,14.913
				c-8.969,2.42-32.446-3.823-41.981-2.436c-7.092,1.031-20.018,1.091-26.841,2.662c-7.165,1.65-31.494-10.645-39.065-3.822
				c-3.648,3.287-8.843,4.762-16.165-10.465c-7.722-16.057,35.412-0.041,41.978,0.087c9.503,0.185,13.882-5.267,18.263-6.816
				C331.158,2.887,390.51-0.966,418.283,6.201z"/>
			
				<linearGradient id="SVGID_19_" gradientUnits="userSpaceOnUse" x1="317.6258" y1="1944.7206" x2="291.7797" y2="1899.9539" gradientTransform="matrix(1 0 0 1 0 -1907.8116)">
				<stop  offset="0" style="stop-color:#EF3E23"/>
				<stop  offset="0.2142" style="stop-color:#F05523"/>
				<stop  offset="0.5664" style="stop-color:#F26E22"/>
				<stop  offset="0.7645" style="stop-color:#F37722"/>
			</linearGradient>
			<path fill="url(#SVGID_19_)" d="M305.756,19.281c15.226-9.338,21.502,4.48,34.8,3.518c3.433-0.248,13.882-6.959,12.505-10.864
				c-5.527-15.675-52.696-7.423-68.986-4.121c-3.979,0.806-27.925,0.095-27.773,6.451c0.275,11.511,15.41,15.768,19.056,18.214
				C280.291,35.788,288.19,30.053,305.756,19.281z"/>
			
				<linearGradient id="SVGID_20_" gradientUnits="userSpaceOnUse" x1="522.1981" y1="452.4207" x2="534.7828" y2="474.2182" gradientTransform="matrix(1 0 0 -1 0 482.8801)">
				<stop  offset="0.2233" style="stop-color:#F05023"/>
				<stop  offset="0.7168" style="stop-color:#F26D22"/>
				<stop  offset="1" style="stop-color:#F37722"/>
			</linearGradient>
			<path fill="url(#SVGID_20_)" d="M548.741,21.272c4.414-0.126-3.963,8.723-8.878,8.721c-5.398-0.002-12.08-4.036-17.135-5.196
				c-4.797-1.101-7.227-0.066-11.859-1.406c-5.412-1.566-5.121-3.664-4.971-4.836c0.238-1.856,5.65-2.537,8.162-3.148
				c9.799-2.384,30.7-3.137,33.205,0.771c1.303,2.033-6.987,3.241-5.309,4.836C544.215,23.161,546.187,21.345,548.741,21.272z"/>
			
				<linearGradient id="SVGID_21_" gradientUnits="userSpaceOnUse" x1="593.9507" y1="455.2532" x2="579.147" y2="480.8942" gradientTransform="matrix(1 0 0 -1 0 482.8801)">
				<stop  offset="0.0719" style="stop-color:#EF4A23"/>
				<stop  offset="0.0784" style="stop-color:#EF4C23"/>
				<stop  offset="0.2282" style="stop-color:#EF5F24"/>
				<stop  offset="0.714" style="stop-color:#EA7425"/>
				<stop  offset="1" style="stop-color:#E87B25"/>
			</linearGradient>
			<path fill="url(#SVGID_21_)" d="M599.93,7.746c-1.589-5.51-22.195-3.261-27.574-1.276c-2.168,0.8-6.302,2.303-5.723,4.167
				c0.561,1.803,6.5,3.064,8.809,4.233c2.277,1.152,13.135,6.624,16.025,6.995c3.247,0.417,26.062,1.818,6.201-7.05
				C590.994,11.835,600.857,10.961,599.93,7.746z"/>
			<g>
				
					<linearGradient id="SVGID_22_" gradientUnits="userSpaceOnUse" x1="148.5157" y1="1945.7614" x2="148.5157" y2="1911.0792" gradientTransform="matrix(1 0 0 1 0 -1907.8116)">
					<stop  offset="0" style="stop-color:#BA2F19"/>
					<stop  offset="0.3028" style="stop-color:#DD4F21"/>
					<stop  offset="0.4718" style="stop-color:#EF5F24"/>
					<stop  offset="0.5802" style="stop-color:#EF6224"/>
					<stop  offset="0.6779" style="stop-color:#EE6A24"/>
					<stop  offset="0.7713" style="stop-color:#ED7824"/>
					<stop  offset="0.8226" style="stop-color:#EC8124"/>
				</linearGradient>
				<path fill="url(#SVGID_22_)" d="M111.521,9.606c-8.565,2.866-3.125,18.011,9.862,26.668c6.184,4.329,3.203-0.518,11.665-5.599
					c10.603-6.367,39.499,2.645,48.157-5.395c3.71-3.71,17.564-20.815-1.057-21.767C162.677,2.62,128.111,4.054,111.521,9.606z"/>
			</g>
			<g>
				
					<linearGradient id="SVGID_23_" gradientUnits="userSpaceOnUse" x1="983.6387" y1="1947.9905" x2="983.6387" y2="1910.2767" gradientTransform="matrix(1 0 0 1 0 -1907.8116)">
					<stop  offset="0.2444" style="stop-color:#EF3E23"/>
					<stop  offset="0.3226" style="stop-color:#EF4C23"/>
					<stop  offset="0.4718" style="stop-color:#EF5F24"/>
					<stop  offset="0.59" style="stop-color:#EE6124"/>
					<stop  offset="0.6965" style="stop-color:#EC6A24"/>
					<stop  offset="0.7515" style="stop-color:#EA7125"/>
				</linearGradient>
				<path fill="url(#SVGID_23_)" d="M961.209,19.102c7.484,5.131,22.595,6.305,31.252,7.542c9.276,1.237,4.156,19.162,10.34,11.741
					c3.71-3.71,29.905-11.345,31.156-15.878c1.01-3.662,6.427-13.34,2.867-15.051c-8.488-4.08-100.18-12.436-107.51,9.676
					C927.767,21.8,957.454,16.528,961.209,19.102z"/>
			</g>
			<g>
				
					<linearGradient id="SVGID_24_" gradientUnits="userSpaceOnUse" x1="1201.4882" y1="1935.6212" x2="1201.4882" y2="1908.766" gradientTransform="matrix(1 0 0 1 0 -1907.8116)">
					<stop  offset="0" style="stop-color:#EF3E23"/>
					<stop  offset="0.2142" style="stop-color:#F05523"/>
					<stop  offset="0.5664" style="stop-color:#F26E22"/>
					<stop  offset="0.7645" style="stop-color:#F37722"/>
				</linearGradient>
				<path fill="url(#SVGID_24_)" d="M1277.468,6.739c10.822,5.591-20.287,19.175-31.403,19.765
					c-17.666,0.938-14.673-0.283-27.554,1.294c-4.794,0.587,9.564-20.943,4.617-21.561c-4.329-0.618-9.931,15.906-14.259,17.761
					c-14.223,6.184-30.884,0.172-46.963,0.172c-10.513,0-50.63-14.545-35.13-17.432C1145.051,3.334,1255.966-4.371,1277.468,6.739z"
					/>
			</g>
			<g>
				
					<linearGradient id="SVGID_25_" gradientUnits="userSpaceOnUse" x1="51.4845" y1="1939.5419" x2="51.4845" y2="1912.161" gradientTransform="matrix(1 0 0 1 0 -1907.8116)">
					<stop  offset="0" style="stop-color:#BA2F19"/>
					<stop  offset="0.0352" style="stop-color:#BD341A"/>
					<stop  offset="0.2758" style="stop-color:#D3531E"/>
					<stop  offset="0.5175" style="stop-color:#E26820"/>
					<stop  offset="0.7589" style="stop-color:#ED7522"/>
					<stop  offset="1" style="stop-color:#F27A22"/>
				</linearGradient>
				<path fill="url(#SVGID_25_)" d="M100.08,10.972c8.569,32.765-14.748,6.56-20.837,6.56c-5.751,0-3.153,18.326-6.478,13.338
					c-3.661-5.492-74.869-8.464-71.641-19.446c1.272-4.328,36.294-0.321,55.595-2.879C69.258,6.884,96.881-1.264,100.08,10.972z"/>
			</g>
			<g>
				
					<linearGradient id="SVGID_26_" gradientUnits="userSpaceOnUse" x1="147.3356" y1="1936.2377" x2="147.3356" y2="1913.517" gradientTransform="matrix(1 0 0 1 0 -1907.8116)">
					<stop  offset="0.2546" style="stop-color:#F05823"/>
					<stop  offset="0.5665" style="stop-color:#F26E22"/>
					<stop  offset="0.7645" style="stop-color:#F37722"/>
				</linearGradient>
				<path fill="url(#SVGID_26_)" d="M137.414,11.103c-11.724,5.06-22.663-2.03-22.325,3.721
					c1.015,11.163,23.313,15.913,30.755,12.531c7.78-4.059,15.222-6.765,20.973-13.531c4.059-4.736,17.484-6.513,11.057-7.867
					C172.463,4.943,146.791,7.056,137.414,11.103z"/>
			</g>
			<g>
				
					<linearGradient id="SVGID_27_" gradientUnits="userSpaceOnUse" x1="1242.4225" y1="1936.1583" x2="1255.2762" y2="1913.8949" gradientTransform="matrix(1 0 0 1 0 -1907.8116)">
					<stop  offset="0" style="stop-color:#EF3E23"/>
					<stop  offset="0.2142" style="stop-color:#F05523"/>
					<stop  offset="0.5664" style="stop-color:#F26E22"/>
					<stop  offset="0.7645" style="stop-color:#F37722"/>
				</linearGradient>
				<path fill="url(#SVGID_27_)" d="M1236.411,9.729c-3.583,4.751-2.683,19.122,2.651,14.322c3.951-3.556,31.743-5.78,27.692-10.699
					C1261.968,7.542,1240.943,3.719,1236.411,9.729z"/>
			</g>
			<g>
				
					<linearGradient id="SVGID_28_" gradientUnits="userSpaceOnUse" x1="1216.126" y1="1612.0099" x2="1157.5983" y2="1612.0099" gradientTransform="matrix(0.9688 -0.2477 0.2477 0.9688 -476.2227 -1247.6377)">
					<stop  offset="0" style="stop-color:#BA2F19"/>
					<stop  offset="0.2313" style="stop-color:#CD4A1D"/>
					<stop  offset="0.5725" style="stop-color:#E66A20"/>
					<stop  offset="0.7645" style="stop-color:#F37722"/>
				</linearGradient>
				<path fill="url(#SVGID_28_)" d="M1057.387,8.683c-5.967-2.66-21.051,6.43-12.813,12.703c6.013,4.398,17.086,4.011,24.235,6.024
					c8.299,2.417,13.322-1.255,21.279-1.544c7.545-0.533,23.979,9.844,9.207-4.854c-10.202-10.151-25.56,2.478-36.962-8.007
					C1061.124,11.894,1058.886,9.352,1057.387,8.683z"/>
			</g>
			
				<linearGradient id="SVGID_29_" gradientUnits="userSpaceOnUse" x1="1182.0542" y1="457.8122" x2="1196.8752" y2="483.483" gradientTransform="matrix(1 0 0 -1 0 482.8801)">
				<stop  offset="0" style="stop-color:#EF3E23"/>
				<stop  offset="0.2142" style="stop-color:#F05523"/>
				<stop  offset="0.5664" style="stop-color:#F26E22"/>
				<stop  offset="0.7645" style="stop-color:#F37722"/>
			</linearGradient>
			<path fill="url(#SVGID_29_)" d="M1179.064,21.176c2.725,1.428,22.466,17.219,23,14.19c1.876-10.631,5.751-14.127,7.059-18.817
				c0.537-1.926,2.199-9.242-3.142-11.877c-8.225-4.058-33.75-0.381-38.747,1.731C1162.876,8.245,1174.873,18.98,1179.064,21.176z"
				/>
			
				<linearGradient id="SVGID_30_" gradientUnits="userSpaceOnUse" x1="999.9787" y1="451.5091" x2="999.9787" y2="473.1475" gradientTransform="matrix(1 0 0 -1 0 482.8801)">
				<stop  offset="0.2283" style="stop-color:#F05623"/>
				<stop  offset="0.5665" style="stop-color:#F26E22"/>
				<stop  offset="0.7645" style="stop-color:#F37722"/>
			</linearGradient>
			<path fill="url(#SVGID_30_)" d="M987.706,16.93c-0.205,4.376,13.669,6.179,17.946,13.816c2.17,3.875,7.423-11.359,6.492-15.702
				c-0.964-4.497-11.623-5.733-16.19-5.193C992.847,10.219,987.852,13.805,987.706,16.93z"/>
			
				<linearGradient id="SVGID_31_" gradientUnits="userSpaceOnUse" x1="367.5689" y1="456.8386" x2="381.0038" y2="480.1086" gradientTransform="matrix(1 0 0 -1 0 482.8801)">
				<stop  offset="0" style="stop-color:#EF3E23"/>
				<stop  offset="0.2142" style="stop-color:#F05523"/>
				<stop  offset="0.5664" style="stop-color:#F26E22"/>
				<stop  offset="0.7645" style="stop-color:#F37722"/>
			</linearGradient>
			<path fill="url(#SVGID_31_)" d="M381.977,4.155c8.707,2.622,16.158,10.177,16.985,14.648c0.385,2.081-9.86-3.559-10.983-4.077
				c-12.814-5.908-25.045,22.132-21.55,4.909c0.622-3.064-16.664-15.079-12.231-17.307C354.675,2.088,373.198,1.511,381.977,4.155z"
				/>
			
				<linearGradient id="SVGID_32_" gradientUnits="userSpaceOnUse" x1="919.3522" y1="462.2282" x2="758.9032" y2="462.2282" gradientTransform="matrix(1 0 0 -1 0 482.8801)">
				<stop  offset="0" style="stop-color:#EF3E23"/>
				<stop  offset="0.2142" style="stop-color:#F05523"/>
				<stop  offset="0.5664" style="stop-color:#F26E22"/>
				<stop  offset="0.7645" style="stop-color:#F37722"/>
			</linearGradient>
			<path fill="url(#SVGID_32_)" d="M918.936,24.833c-2.934-0.847-36.057,5.666-41.227,6.068c-2.492,0.194-7.862,0.257-10.292,0
				c-4.794-0.507-12.515-2.682-15.905-3.827c-6.002-2.027-12.107-7.533-19.18-9.213c-2.328-0.553-8.287-1.234-11.227-1.134
				c-5.03,0.171-13.825,2.069-17.309,3.182c-7.998,2.555-12.62,10.326-21.987,12.41c-3.359,0.747-11.378,2.303-15.322,1.895
				c-2.171-0.224-6.839,2.857-7.365,2.18c-2.28-2.932,13.941-11.655,15.989-14.602c2.807-4.04-8.498-3.213-0.786-8.609
				c3.978-2.783,19.033-8.096,29.004-8.363c8.239-0.221,20.816,4.094,27.6,5.528c8.096,1.711,22.778,5.881,31.81,7.087
				c4.801,0.641,9.399-9.489,17.398-11.127C903.108,1.607,922.46,25.85,918.936,24.833z"/>
			<g>
				
					<linearGradient id="SVGID_33_" gradientUnits="userSpaceOnUse" x1="226.7193" y1="440.8405" x2="205.764" y2="477.1361" gradientTransform="matrix(1 0 0 -1 0 482.8801)">
					<stop  offset="0" style="stop-color:#BA2F19"/>
					<stop  offset="0.2313" style="stop-color:#CD4A1D"/>
					<stop  offset="0.5725" style="stop-color:#E66A20"/>
					<stop  offset="0.7645" style="stop-color:#F37722"/>
				</linearGradient>
				<path fill="url(#SVGID_33_)" d="M222.34,29.8c-6.6-2.062-24.588,8.075-24.307,1.816c0.147-3.276,10.513-1.855,9.276-9.276
					c-0.618-4.947-39.822,8.011-26.676-1.808c10.878-8.124,54.65-26.036,62.071-16.142c6.802,8.039,0.597,7.927,0.288,27.789
					C242.94,35.46,225.47,30.778,222.34,29.8z"/>
			</g>
			<g>
				
					<linearGradient id="SVGID_34_" gradientUnits="userSpaceOnUse" x1="912.4789" y1="1935.6771" x2="912.4789" y2="1913.848" gradientTransform="matrix(1 0 0 1 0 -1907.8116)">
					<stop  offset="0" style="stop-color:#EF3E23"/>
					<stop  offset="0.2652" style="stop-color:#EF4B23"/>
					<stop  offset="0.7439" style="stop-color:#F16822"/>
					<stop  offset="1" style="stop-color:#F37722"/>
				</linearGradient>
				<path fill="url(#SVGID_34_)" d="M897.248,9.454c-5.994,5.489,32.852,27.672,24.953,14.062
					c-1.663-2.866,8.346-11.904,5.687-13.923C922.114,5.208,902.595,4.557,897.248,9.454z"/>
			</g>
		</g>
	</g>
	<g>
		
			<linearGradient id="SVGID_35_" gradientUnits="userSpaceOnUse" x1="657.9803" y1="1947.4133" x2="657.9803" y2="1911.0039" gradientTransform="matrix(1 0 0 1 0 -1907.8116)">
			<stop  offset="0.2444" style="stop-color:#EF3E23"/>
			<stop  offset="0.6786" style="stop-color:#F16B23"/>
			<stop  offset="0.9092" style="stop-color:#F27A22"/>
		</linearGradient>
		<path fill="url(#SVGID_35_)" d="M689.564,11.807c3.213,12.287-8.472,18.854-9.317,16.386c-1.826-5.337-4.481-12.36-8.287-12.36
			c-5.751,0-16.232,28.639-18.383,23.044c-3.649-9.487-30.7-16.295-27.472-27.276c1.272-4.328,9.459-4.715,13.86-5.701
			C652.307,3.134,686.364-0.429,689.564,11.807z"/>
	</g>
</g>
</svg>
