<?xml version="1.0" encoding="utf-8"?>
<!-- Generator: Adobe Illustrator 17.0.0, SVG Export Plug-In . SVG Version: 6.00 Build 0)  -->
<!DOCTYPE svg PUBLIC "-//W3C//DTD SVG 1.1//EN" "http://www.w3.org/Graphics/SVG/1.1/DTD/svg11.dtd">
<svg version="1.1" xmlns="http://www.w3.org/2000/svg" xmlns:xlink="http://www.w3.org/1999/xlink" x="0px" y="0px" width="1280px"
	 height="530.772px" viewBox="0 0 1280 530.772" enable-background="new 0 0 1280 530.772" xml:space="preserve">
<pattern  x="-499.5" y="1190.886" width="1280" height="1061.544" patternUnits="userSpaceOnUse" id="New_Pattern" viewBox="0 -1326.93 1280 1061.544" overflow="visible">
	<g>
		<polygon fill="none" points="0,-1326.93 1280,-1326.93 1280,-265.386 0,-265.386 		"/>
		<g>
			
				<linearGradient id="SVGID_1_" gradientUnits="userSpaceOnUse" x1="445.5" y1="-18278.5" x2="445.5" y2="-17747.7285" gradientTransform="matrix(1 0 0 -1 194.5 -18278.5)">
				<stop  offset="0.1773" style="stop-color:#000E1E"/>
				<stop  offset="0.5273" style="stop-color:#0B142A"/>
				<stop  offset="0.6994" style="stop-color:#23162C"/>
				<stop  offset="0.8332" style="stop-color:#38182E"/>
			</linearGradient>
			<path fill="url(#SVGID_1_)" d="M1054.568-502.828c-2.54,11.432-15.242,11.432-24.133,10.161
				c-31.755-3.811-63.509-20.323-92.723-10.161c-33.025,11.432-64.779,24.133-97.804,31.754
				c-35.565,8.891-71.13,13.972-106.695,7.621c-17.782-2.54-35.565-2.54-53.347-3.811c-7.621-1.27-13.972-7.621-20.323-5.081
				l-10.161,1.27c-1.27-2.54-5.081-3.811-5.081-7.621c-34.295,6.351-66.049,13.972-101.614,16.512
				c-64.779,3.811-118.127-49.537-179.095-41.916c-1.849,0.154-3.543-1.811-5.422-1.522c-13.615,2.101-28.027,9.605-40.304,12.953
				c-17.783,3.811-34.295,3.811-53.348,5.081c-24.133,1.27-83.832,21.593-93.993-11.432c-19.053,5.081-31.754,5.081-49.537,0
				c-8.891-1.27-19.053-1.27-26.674-2.54c-3.811-1.27-10.161,1.27-13.972,0c-3.811,0-1.27-7.621-5.081-7.621
				c-7.621,0-11.432,6.351-20.323,5.081c-5.081-1.27-13.972-8.891-19.053-12.702c-7.621-3.811-17.783-6.351-22.863-13.972
				c-5.081,3.811-7.941,4.71-13.021,8.52V0h1280v-498.622c-14.569,4.521-46.337-16.908-57.769-19.449
				c-6.351-1.27-7.621,5.081-13.972,3.811c-5.081-1.27-10.161-7.621-12.702-7.621c-11.432-1.27-16.512,11.432-30.484-1.27
				c-8.891,8.891-38.105,29.214-44.456,11.432c-5.081,0-6.351,0-11.432,0c-2.54,6.351-5.081,12.702-11.432,15.242
				c-5.081-12.702-22.863-10.161-34.295-7.621L1054.568-502.828z"/>
			
				<linearGradient id="SVGID_2_" gradientUnits="userSpaceOnUse" x1="-193.1807" y1="-17769.7734" x2="-153.4171" y2="-17769.7734" gradientTransform="matrix(1 0 0 -1 194.5 -18278.5)">
				<stop  offset="0" style="stop-color:#31182E"/>
				<stop  offset="0.1269" style="stop-color:#39172E"/>
				<stop  offset="0.3579" style="stop-color:#40162E"/>
				<stop  offset="1" style="stop-color:#42162E"/>
			</linearGradient>
			<path fill="url(#SVGID_2_)" d="M3.974-514.251c1.164,1.94,2.717,3.493,3.493,5.433c5.433-2.717,23.285,17.464,26.777,22.121
				c2.717-4.657,5.045-9.314,6.597-14.747c1.164-6.209-1.94-11.642-8.15-15.523c-4.269-3.105-17.155-8.762-19.64-13.731
				c-0.301-0.602-7.905,3.884-11.733,7.57"/>
			
				<linearGradient id="SVGID_3_" gradientUnits="userSpaceOnUse" x1="-63.4207" y1="-17789.3574" x2="-34.906" y2="-17789.3574" gradientTransform="matrix(1 0 0 -1 194.5 -18278.5)">
				<stop  offset="0" style="stop-color:#31182E"/>
				<stop  offset="0.1269" style="stop-color:#39172E"/>
				<stop  offset="0.3579" style="stop-color:#40162E"/>
				<stop  offset="1" style="stop-color:#42162E"/>
			</linearGradient>
			<path fill="url(#SVGID_3_)" d="M131.264-492.131c1.94,6.209,8.926,3.881,13.583,4.657c5.045,0.776,9.702,3.493,13.583,6.209
				c-0.388-1.552,0-3.105-0.776-5.045c0.776-0.388,1.552-1.552,1.94-1.94c-2.328-1.94-6.209-2.717-8.926-4.269
				c0.776-0.776,1.552-2.717,1.94-3.105c-5.821-0.776-16.096-2.102-21.529-0.938"/>
			
				<linearGradient id="SVGID_4_" gradientUnits="userSpaceOnUse" x1="-6.1881" y1="-17808.2695" x2="57.845" y2="-17808.2695" gradientTransform="matrix(1 0 0 -1 194.5 -18278.5)">
				<stop  offset="0" style="stop-color:#31182E"/>
				<stop  offset="0.1269" style="stop-color:#39172E"/>
				<stop  offset="0.3579" style="stop-color:#40162E"/>
				<stop  offset="1" style="stop-color:#42162E"/>
			</linearGradient>
			<path fill="url(#SVGID_4_)" d="M188.312-478.548c3.105,3.105,7.374,3.881,9.314,7.374c0.388-0.776,1.164-1.552,1.552-1.94
				c4.269,1.552,7.374,6.209,11.642,6.597c0-1.94,0-4.269,0.388-6.209c4.657,3.493,9.314,7.374,14.359,10.478
				c1.552-7.762,2.717-6.209,9.314-2.328c5.045,3.105,11.642,5.045,17.464,6.209c-0.388-5.821-7.762-6.985-12.03-10.09
				c-3.493-2.717-8.411-13.3-12.078-13.634c-0.524-0.048-13.503,1.232-17.772,1.62c-6.597,0.776-9.18-0.041-15.39-0.429"/>
			
				<linearGradient id="SVGID_5_" gradientUnits="userSpaceOnUse" x1="35.5947" y1="-17797.2617" x2="152.4408" y2="-17797.2617" gradientTransform="matrix(1 0 0 -1 194.5 -18278.5)">
				<stop  offset="0" style="stop-color:#31182E"/>
				<stop  offset="0.1269" style="stop-color:#39172E"/>
				<stop  offset="0.3579" style="stop-color:#40162E"/>
				<stop  offset="1" style="stop-color:#42162E"/>
			</linearGradient>
			<path fill="url(#SVGID_5_)" d="M230.095-482.33c5.821,3.105,16.041,4.17,21.862,8.439c3.493,2.328,6.985,4.657,10.478,7.762
				c2.328,2.328,8.15,4.269,8.538,6.597c1.94-3.881,0-8.15,1.552-11.642c1.552-3.493,8.926-5.433,12.807-6.209
				c-1.94,3.881-2.328,8.926-1.94,12.807c17.076-12.419,52.295-18.187,63.549-38.367c-8.435,3.025-24.353,6.932-32.115,8.485
				c-8.926,1.552-17.852,3.105-26.777,4.657c-6.985,1.552-13.583,1.164-20.568,0.388c-10.478-0.388-18.328,2.916-27.856,5.083
				C237.492-483.846,230.095-482.33,230.095-482.33z"/>
			
				<linearGradient id="SVGID_6_" gradientUnits="userSpaceOnUse" x1="189.2517" y1="-17825.9375" x2="469.597" y2="-17825.9375" gradientTransform="matrix(1 0 0 -1 194.5 -18278.5)">
				<stop  offset="0" style="stop-color:#26172D"/>
				<stop  offset="0.5117" style="stop-color:#39172E"/>
				<stop  offset="1" style="stop-color:#29172D"/>
			</linearGradient>
			<path fill="url(#SVGID_6_)" d="M591.526-437.412c-7.374,1.164-15.523,4.269-22.121,7.374c8.15,3.493,19.016-1.164,27.166-2.717
				c2.328,3.881,20.568,3.881,26.001,5.433c0,4.657,17.464,9.314,20.568,11.642c3.493,2.717,6.597,6.209,10.09,8.926
				c3.105,2.328,7.762,3.493,10.866,6.209c-26.777-2.328-52.391-8.538-78.392-13.195c-10.478-1.94-21.732-6.209-31.434-10.478
				c-4.657-2.328-8.15-6.209-11.642-8.538c-3.881-2.328-8.926-2.328-13.583-2.717c-10.866-0.388-20.18,0.388-30.658,1.552
				c-1.552-6.209-10.09-16.299-15.135-19.792c-6.597-4.657-12.419-6.597-17.464-12.807c-2.717-3.881-5.045-5.045-8.538-7.762
				c-1.164-0.776-1.552-3.881-3.493-4.269c-3.493-1.164-1.552,1.164-5.045,2.717c-6.597,2.328-14.747,3.493-22.121,5.821
				c-1.164-2.328-0.776-5.433-1.94-7.762c-2.328-3.881-7.762-5.821-11.642-8.538c-6.597-3.881-13.971-3.493-20.18-8.15
				l-9.078-10.121c3.716,0.286,5.098,0.435,10.863,1.382c13.179,2.164,25.11,5.972,37.799,10.292
				c19.404,6.597,38.42,14.747,57.824,21.344c16.687,5.821,30.122,10.36,48.362,9.196c13.583-0.776,30.796,0.423,43.215-4.622
				l6.607,0.082c3.493,0,6.985-0.388,10.09,0.776c-3.881,2.717-9.702,3.105-13.583,6.597c1.164,0,2.717,0.388,3.493,0.388
				c-1.164,1.164-2.328,2.717-3.493,3.493c6.597-1.552,21.732-8.926,28.33-5.433c-5.821,3.493-13.971,4.657-17.852,10.478
				c2.328,0.776,1.94,1.552,2.717,3.105c-7.762,1.94-12.03,2.328-18.24,7.762c6.597-0.388,13.195-1.552,20.18-1.94"/>
			
				<linearGradient id="SVGID_7_" gradientUnits="userSpaceOnUse" x1="582.1409" y1="-17913.9023" x2="499.4294" y2="-17770.6426" gradientTransform="matrix(1 0 0 -1 194.5 -18278.5)">
				<stop  offset="0" style="stop-color:#26172D"/>
				<stop  offset="0.6991" style="stop-color:#42162E"/>
				<stop  offset="1" style="stop-color:#2B182D"/>
			</linearGradient>
			<path fill="url(#SVGID_7_)" d="M652.752-470.051c7.762,5.045,21.732,5.045,27.554,12.03c-9.702,5.821-39.196-7.374-40.748-18.24
				c-6.985,1.94,2.717,10.866,5.045,13.971c5.821,6.985,10.866,7.374,19.404,8.538c6.209,0.776,12.419,2.717,19.016,3.105
				c1.94,0,5.045-0.776,6.597-0.776c2.717,0.388,5.821,2.328,8.538,2.717c-0.776,0.776-0.776,2.717-1.552,3.881
				c2.328,4.657,12.807,9.314,17.852,8.926c2.717,0,6.985-1.552,9.314-2.328c1.552-0.388,4.657-1.164,5.821-2.328
				c0.776-1.164,0.776-3.881,1.552-4.269c3.881-3.881,0.776-2.328,6.209,0.388c1.552,0.776,3.493,0,5.045,0.776
				c1.94,1.164,0.776,2.717,2.717,3.493c3.881,1.94,8.926,2.328,12.807,4.269c3.105,1.94,6.209,4.269,9.702,5.045
				c0,0.388-0.388,1.164-0.388,1.552c4.269,3.881,11.254,7.762,16.687,10.09c5.821,2.717,11.254,1.164,17.076,4.269
				c10.866,5.433,22.121,11.642,32.599,17.464c0.388-0.388,0.776-0.776,0.776-1.164c-6.597-8.15-14.747-10.478-23.673-15.135
				c-7.762-4.269-14.359-13.195-0.776-13.583c-3.493-1.552-8.15-3.493-2.717-6.985c-3.493-0.776-8.926,1.552-13.195,1.164
				c-3.493-0.388-15.523-3.881-6.597-6.597c-2.717-0.776-11.642-1.164-5.433-5.433c-10.866-1.552-25.613,8.538-30.658-5.433
				c3.493-3.105,14.359-3.105,19.016-2.328c-1.552-3.105-4.269-4.269-7.373-5.433c-3.881-1.552-6.985-4.269-9.702-5.433
				c-3.881-1.552-14.699-0.138-19.355,0.25c1.94,1.94,6.937,1.691,8.489,4.407c-0.776,0-2.717,0.776-3.493,0.776
				c2.717,1.552,6.985,1.94,8.538,4.657c-6.209,3.105-17.464-4.269-23.673-6.597c-6.597-1.94-12.419-5.821-18.628-6.597
				c-8.538-1.164-17.076,0.388-25.613-1.552c-7.373-1.94-14.747-6.597-22.12-3.493L652.752-470.051z"/>
			
				<linearGradient id="SVGID_8_" gradientUnits="userSpaceOnUse" x1="759.198" y1="-17790.25" x2="850.3028" y2="-17790.25" gradientTransform="matrix(1 0 0 -1 194.5 -18278.5)">
				<stop  offset="0" style="stop-color:#31182E"/>
				<stop  offset="0.1269" style="stop-color:#39172E"/>
				<stop  offset="0.3579" style="stop-color:#40162E"/>
				<stop  offset="1" style="stop-color:#42162E"/>
			</linearGradient>
			<path fill="url(#SVGID_8_)" d="M953.698-505.993c5.045,4.269,18.534,4.936,23.967,7.653c5.433,3.105,8.926,6.209,15.135,8.15
				c6.209,1.94,10.866,3.105,15.523,6.985c5.821,4.657,11.254,10.09,17.464,13.971c-1.552-3.105-6.209-7.374-6.209-10.478
				c7.373,3.493,16.687,6.985,25.225,8.926c-2.717-2.717-6.597-4.657-8.926-7.762c2.328,0,4.657,0.776,6.597,0.388
				c-7.762-8.538-27.166-10.09-38.032-13.971c-6.597-2.328-13.195-3.881-19.792-7.374c-5.821-3.493-12.03-6.985-18.628-7.762"/>
			
				<linearGradient id="SVGID_9_" gradientUnits="userSpaceOnUse" x1="881.9052" y1="-17782.4785" x2="897.5804" y2="-17782.4785" gradientTransform="matrix(1 0 0 -1 194.5 -18278.5)">
				<stop  offset="0" style="stop-color:#31182E"/>
				<stop  offset="0.1269" style="stop-color:#39172E"/>
				<stop  offset="0.3579" style="stop-color:#40162E"/>
				<stop  offset="1" style="stop-color:#42162E"/>
			</linearGradient>
			<path fill="url(#SVGID_9_)" d="M1076.405-506.162c2.328,1.552,6.041,5.105,6.041,7.434c0,1.552-1.94,5.045-1.94,6.597
				c-0.388,1.552,0,4.657,0,6.597c3.105-6.209,5.753-14.318,11.574-17.811c-2.766-1.178-5.267-3.799-8.76-3.022"/>
			
				<linearGradient id="SVGID_10_" gradientUnits="userSpaceOnUse" x1="929.9015" y1="-17776.8789" x2="938.0511" y2="-17776.8789" gradientTransform="matrix(1 0 0 -1 194.5 -18278.5)">
				<stop  offset="0" style="stop-color:#31182E"/>
				<stop  offset="0.1269" style="stop-color:#39172E"/>
				<stop  offset="0.3579" style="stop-color:#40162E"/>
				<stop  offset="1" style="stop-color:#42162E"/>
			</linearGradient>
			<path fill="url(#SVGID_10_)" d="M1124.401-506.278c0.776,2.328,0.776,5.045,0,7.374c0,0.776,0.388,1.164,0.388,2.717
				c2.717-2.717,4.657-5.821,7.762-8.15c-0.388-1.164-1.552-2.328-2.717-2.717"/>
			
				<linearGradient id="SVGID_11_" gradientUnits="userSpaceOnUse" x1="979.5967" y1="-17779.0938" x2="1009.4788" y2="-17779.0938" gradientTransform="matrix(1 0 0 -1 194.5 -18278.5)">
				<stop  offset="0" style="stop-color:#31182E"/>
				<stop  offset="0.1269" style="stop-color:#39172E"/>
				<stop  offset="0.3579" style="stop-color:#40162E"/>
				<stop  offset="1" style="stop-color:#42162E"/>
			</linearGradient>
			<path fill="url(#SVGID_11_)" d="M1174.097-518.033c8.538,5.045,19.792,16.299,29.882,15.135c0,4.657-3.493,5.433-5.821,8.538
				c0-0.388-2.328,4.657-2.717,5.045c-1.164,2.717-1.94,5.821-3.105,8.538c-0.388-2.717-2.328-7.762-2.328-10.478
				c0.388-3.881,3.493-4.657,0.388-8.15c-1.94-2.328-6.597-2.328-8.926-4.657c-3.105-3.493-2.717-6.597-7.374-9.314"/>
			
				<linearGradient id="SVGID_12_" gradientUnits="userSpaceOnUse" x1="1005.0844" y1="-17767.0742" x2="1058.994" y2="-17767.0742" gradientTransform="matrix(1 0 0 -1 194.5 -18278.5)">
				<stop  offset="0" style="stop-color:#31182E"/>
				<stop  offset="0.1269" style="stop-color:#39172E"/>
				<stop  offset="0.3579" style="stop-color:#40162E"/>
				<stop  offset="1" style="stop-color:#42162E"/>
			</linearGradient>
			<path fill="url(#SVGID_12_)" d="M1199.584-519.58c5.045,5.433,14.026,7.869,10.145,17.183c6.985-4.657,13.131-9.907,22.057-7.967
				c4.948,0.873,10.195,2.257,15.736,3.906c1.847,0.55,4.225,2.345,5.971,2.539c-4.721-4.629-12.005-6.833-17.827-9.161
				c-6.209-2.717-12.419-5.433-19.016-7.374c-1.94,3.105-5.821,2.328-8.538,0.776c0,0-3.776,1.64-5.11,1.567
				C1202.075-518.16,1199.584-519.58,1199.584-519.58z"/>
			
				<linearGradient id="SVGID_13_" gradientUnits="userSpaceOnUse" x1="883.2896" y1="-17833.1328" x2="1050.1637" y2="-17833.1328" gradientTransform="matrix(1 0 0 -1 194.5 -18278.5)">
				<stop  offset="0" style="stop-color:#26172D"/>
				<stop  offset="0.4366" style="stop-color:#32182E"/>
			</linearGradient>
			<path fill="url(#SVGID_13_)" d="M1077.79-469.622c8.15,0.388,17.075-1.94,24.837-2.717c5.433-0.388,11.642,0,17.076-1.552
				c-1.164,7.374,6.597,9.702,13.195,11.254c3.493,1.164,7.373,1.94,10.866,3.105c3.493,1.164,5.045,1.94,8.538,3.493
				c5.433,2.717,13.583,5.433,19.404,6.209c6.985,0.776,14.747-1.164,20.956,0.388c-5.821,4.657,2.328,7.762,5.821,10.09
				c5.045,3.105,5.821,6.985,12.031,8.15c6.597,1.94,8.926,1.164,14.359,5.821c5.821,5.045,12.031,8.538,19.792,8.538
				c-8.15-2.717-19.404-5.433-27.942-3.493c-10.09,1.94-19.404,6.209-27.554-1.164c-4.269-3.881-6.597-7.762-12.031-9.702
				c-6.597-2.328-14.359-2.328-20.956-4.269c-7.761-1.552-16.299-3.493-23.285-6.209c-7.374-2.328-4.657-4.657-8.15-9.314
				c-3.881-4.269-14.747-5.821-20.18-7.762c-7.762-3.493-16.299-6.597-24.837-7.762"/>
			
				<linearGradient id="SVGID_14_" gradientUnits="userSpaceOnUse" x1="755.7384" y1="-17852.0723" x2="833.3542" y2="-17852.0723" gradientTransform="matrix(1 0 0 -1 194.5 -18278.5)">
				<stop  offset="0" style="stop-color:#26172D"/>
				<stop  offset="1" style="stop-color:#30182D"/>
			</linearGradient>
			<path fill="url(#SVGID_14_)" d="M966.538-456.319c4.657,9.314,13.583,14.747,23.673,16.687c-1.94,1.94-4.657,3.493-5.821,5.821
				c5.821,3.881,13.583,8.15,20.18,10.09c7.762,1.94,15.135-0.776,23.285-0.388c-3.493,5.433-11.642,10.09-17.464,13.195
				c-6.597,3.881-12.807,2.328-19.792,5.821c-6.597,3.493-13.583,8.15-21.344,8.538c-7.373,0.388-13.583-6.209-19.016-11.254
				c0.776,0,1.552-0.776,2.328-0.776c3.105-3.493-1.164-9.314,5.821-11.642c2.717-0.776,7.762,3.105,6.597-3.493
				c-0.776-3.493-6.597-3.493-8.926-5.433c6.597-2.328,5.433-17.076,6.209-23.285"/>
			
				<linearGradient id="SVGID_15_" gradientUnits="userSpaceOnUse" x1="669.4579" y1="-17808.7383" x2="714.4751" y2="-17808.7383" gradientTransform="matrix(1 0 0 -1 194.5 -18278.5)">
				<stop  offset="0" style="stop-color:#31182E"/>
				<stop  offset="0.1269" style="stop-color:#39172E"/>
				<stop  offset="0.3579" style="stop-color:#40162E"/>
				<stop  offset="1" style="stop-color:#42162E"/>
			</linearGradient>
			<path fill="url(#SVGID_15_)" d="M863.958-472.727c1.164,2.328,0.776,5.045,0,7.374c4.657,0.388,9.702-2.328,14.359-1.552
				c1.552,0.388,1.552,2.717,3.493,2.717c1.552,0.388,3.493-0.388,4.657-0.388c7.373,0,16.299,0.388,22.509-3.881
				c-6.597-3.493-16.687-1.552-23.673-1.94c-3.105,0-6.985,0.388-10.09,0c-4.657-0.776-5.821-3.493-10.09-5.045"/>
		</g>
		<g>
			
				<linearGradient id="SVGID_16_" gradientUnits="userSpaceOnUse" x1="445.5" y1="-17747.7285" x2="445.5" y2="-17216.9551" gradientTransform="matrix(1 0 0 -1 194.5 -18278.5)">
				<stop  offset="0.1773" style="stop-color:#000E1E"/>
				<stop  offset="0.5273" style="stop-color:#0B142A"/>
				<stop  offset="0.6994" style="stop-color:#23162C"/>
				<stop  offset="0.8332" style="stop-color:#38182E"/>
			</linearGradient>
			<path fill="url(#SVGID_16_)" d="M1054.568-1033.6c-2.54,11.432-15.242,11.432-24.133,10.161
				c-31.755-3.811-63.509-20.323-92.723-10.161c-33.025,11.432-64.779,24.133-97.804,31.754
				c-35.565,8.891-71.13,13.972-106.695,7.621c-17.782-2.54-35.565-2.54-53.347-3.811c-7.621-1.27-13.972-7.621-20.323-5.081
				l-10.161,1.27c-1.27-2.54-5.081-3.81-5.081-7.621c-34.295,6.351-66.049,13.972-101.614,16.512
				c-64.779,3.811-118.127-49.537-179.095-41.916c-1.849,0.154-3.543-1.811-5.422-1.521c-13.615,2.101-28.027,9.605-40.304,12.953
				c-17.783,3.811-34.295,3.811-53.348,5.081c-24.133,1.27-83.832,21.593-93.993-11.432c-19.053,5.081-31.754,5.081-49.537,0
				c-8.891-1.27-19.053-1.27-26.674-2.54c-3.811-1.27-10.161,1.27-13.972,0c-3.811,0-1.27-7.621-5.081-7.621
				c-7.621,0-11.432,6.351-20.323,5.081c-5.081-1.27-13.972-8.891-19.053-12.702c-7.621-3.811-17.783-6.351-22.863-13.972
				c-5.081,3.811-7.941,4.71-13.021,8.52v522.252h1280v-498.622c-14.569,4.521-46.337-16.908-57.769-19.449
				c-6.351-1.27-7.621,5.081-13.972,3.811c-5.081-1.27-10.161-7.621-12.702-7.621c-11.432-1.27-16.512,11.432-30.484-1.27
				c-8.891,8.891-38.105,29.214-44.456,11.432c-5.081,0-6.351,0-11.432,0c-2.54,6.351-5.081,12.702-11.432,15.242
				c-5.081-12.702-22.863-10.161-34.295-7.621L1054.568-1033.6z"/>
			
				<linearGradient id="SVGID_17_" gradientUnits="userSpaceOnUse" x1="-193.1807" y1="-17239.002" x2="-153.4171" y2="-17239.002" gradientTransform="matrix(1 0 0 -1 194.5 -18278.5)">
				<stop  offset="0" style="stop-color:#31182E"/>
				<stop  offset="0.1269" style="stop-color:#39172E"/>
				<stop  offset="0.3579" style="stop-color:#40162E"/>
				<stop  offset="1" style="stop-color:#42162E"/>
			</linearGradient>
			<path fill="url(#SVGID_17_)" d="M3.974-1045.023c1.164,1.94,2.717,3.493,3.493,5.433c5.433-2.717,23.285,17.464,26.777,22.12
				c2.717-4.657,5.045-9.314,6.597-14.747c1.164-6.209-1.94-11.642-8.15-15.523c-4.269-3.105-17.155-8.762-19.64-13.731
				c-0.301-0.602-7.905,3.884-11.733,7.57"/>
			
				<linearGradient id="SVGID_18_" gradientUnits="userSpaceOnUse" x1="-63.4207" y1="-17258.5859" x2="-34.906" y2="-17258.5859" gradientTransform="matrix(1 0 0 -1 194.5 -18278.5)">
				<stop  offset="0" style="stop-color:#31182E"/>
				<stop  offset="0.1269" style="stop-color:#39172E"/>
				<stop  offset="0.3579" style="stop-color:#40162E"/>
				<stop  offset="1" style="stop-color:#42162E"/>
			</linearGradient>
			<path fill="url(#SVGID_18_)" d="M131.264-1022.903c1.94,6.209,8.926,3.881,13.583,4.657c5.045,0.776,9.702,3.493,13.583,6.209
				c-0.388-1.552,0-3.105-0.776-5.045c0.776-0.388,1.552-1.552,1.94-1.94c-2.328-1.94-6.209-2.717-8.926-4.269
				c0.776-0.776,1.552-2.716,1.94-3.105c-5.821-0.776-16.096-2.102-21.529-0.938"/>
			
				<linearGradient id="SVGID_19_" gradientUnits="userSpaceOnUse" x1="-6.1881" y1="-17277.498" x2="57.845" y2="-17277.498" gradientTransform="matrix(1 0 0 -1 194.5 -18278.5)">
				<stop  offset="0" style="stop-color:#31182E"/>
				<stop  offset="0.1269" style="stop-color:#39172E"/>
				<stop  offset="0.3579" style="stop-color:#40162E"/>
				<stop  offset="1" style="stop-color:#42162E"/>
			</linearGradient>
			<path fill="url(#SVGID_19_)" d="M188.312-1009.32c3.105,3.105,7.374,3.881,9.314,7.373c0.388-0.776,1.164-1.552,1.552-1.94
				c4.269,1.552,7.374,6.209,11.642,6.597c0-1.94,0-4.269,0.388-6.209c4.657,3.493,9.314,7.374,14.359,10.478
				c1.552-7.762,2.717-6.209,9.314-2.328c5.045,3.105,11.642,5.045,17.464,6.209c-0.388-5.821-7.762-6.985-12.03-10.09
				c-3.493-2.717-8.411-13.3-12.078-13.634c-0.524-0.048-13.503,1.232-17.772,1.62c-6.597,0.776-9.18-0.041-15.39-0.429"/>
			
				<linearGradient id="SVGID_20_" gradientUnits="userSpaceOnUse" x1="35.5947" y1="-17266.4902" x2="152.4408" y2="-17266.4902" gradientTransform="matrix(1 0 0 -1 194.5 -18278.5)">
				<stop  offset="0" style="stop-color:#31182E"/>
				<stop  offset="0.1269" style="stop-color:#39172E"/>
				<stop  offset="0.3579" style="stop-color:#40162E"/>
				<stop  offset="1" style="stop-color:#42162E"/>
			</linearGradient>
			<path fill="url(#SVGID_20_)" d="M230.095-1013.102c5.821,3.105,16.041,4.17,21.862,8.439c3.493,2.328,6.985,4.657,10.478,7.762
				c2.328,2.328,8.15,4.269,8.538,6.597c1.94-3.881,0-8.15,1.552-11.642c1.552-3.493,8.926-5.433,12.807-6.209
				c-1.94,3.881-2.328,8.926-1.94,12.807c17.076-12.419,52.295-18.187,63.549-38.367c-8.435,3.025-24.353,6.932-32.115,8.485
				c-8.926,1.552-17.852,3.105-26.777,4.657c-6.985,1.552-13.583,1.164-20.568,0.388c-10.478-0.388-18.328,2.916-27.856,5.083
				C237.492-1014.618,230.095-1013.102,230.095-1013.102z"/>
			
				<linearGradient id="SVGID_21_" gradientUnits="userSpaceOnUse" x1="189.2517" y1="-17295.166" x2="469.597" y2="-17295.166" gradientTransform="matrix(1 0 0 -1 194.5 -18278.5)">
				<stop  offset="0" style="stop-color:#26172D"/>
				<stop  offset="0.5117" style="stop-color:#39172E"/>
				<stop  offset="1" style="stop-color:#29172D"/>
			</linearGradient>
			<path fill="url(#SVGID_21_)" d="M591.526-968.184c-7.374,1.164-15.523,4.269-22.121,7.373c8.15,3.493,19.016-1.164,27.166-2.717
				c2.328,3.881,20.568,3.881,26.001,5.433c0,4.657,17.464,9.314,20.568,11.642c3.493,2.717,6.597,6.209,10.09,8.926
				c3.105,2.328,7.762,3.493,10.866,6.209c-26.777-2.328-52.391-8.538-78.392-13.195c-10.478-1.94-21.732-6.209-31.434-10.478
				c-4.657-2.328-8.15-6.209-11.642-8.538c-3.881-2.328-8.926-2.328-13.583-2.717c-10.866-0.388-20.18,0.388-30.658,1.552
				c-1.552-6.209-10.09-16.299-15.135-19.792c-6.597-4.657-12.419-6.597-17.464-12.807c-2.717-3.881-5.045-5.045-8.538-7.762
				c-1.164-0.776-1.552-3.881-3.493-4.269c-3.493-1.164-1.552,1.164-5.045,2.717c-6.597,2.328-14.747,3.493-22.121,5.821
				c-1.164-2.328-0.776-5.433-1.94-7.762c-2.328-3.881-7.762-5.821-11.642-8.538c-6.597-3.881-13.971-3.493-20.18-8.15
				l-9.078-10.121c3.716,0.286,5.098,0.435,10.863,1.382c13.179,2.164,25.11,5.972,37.799,10.292
				c19.404,6.597,38.42,14.747,57.824,21.344c16.687,5.821,30.122,10.36,48.362,9.196c13.583-0.776,30.796,0.423,43.215-4.622
				l6.607,0.082c3.493,0,6.985-0.388,10.09,0.776c-3.881,2.717-9.702,3.105-13.583,6.597c1.164,0,2.717,0.388,3.493,0.388
				c-1.164,1.164-2.328,2.717-3.493,3.493c6.597-1.552,21.732-8.926,28.33-5.433c-5.821,3.493-13.971,4.657-17.852,10.478
				c2.328,0.776,1.94,1.552,2.717,3.105c-7.762,1.94-12.03,2.328-18.24,7.762c6.597-0.388,13.195-1.552,20.18-1.94"/>
			
				<linearGradient id="SVGID_22_" gradientUnits="userSpaceOnUse" x1="582.1409" y1="-17383.1309" x2="499.4294" y2="-17239.8711" gradientTransform="matrix(1 0 0 -1 194.5 -18278.5)">
				<stop  offset="0" style="stop-color:#26172D"/>
				<stop  offset="0.6991" style="stop-color:#42162E"/>
				<stop  offset="1" style="stop-color:#2B182D"/>
			</linearGradient>
			<path fill="url(#SVGID_22_)" d="M652.752-1000.823c7.762,5.045,21.732,5.045,27.554,12.03
				c-9.702,5.821-39.196-7.373-40.748-18.24c-6.985,1.94,2.717,10.866,5.045,13.971c5.821,6.985,10.866,7.374,19.404,8.538
				c6.209,0.776,12.419,2.717,19.016,3.105c1.94,0,5.045-0.776,6.597-0.776c2.717,0.388,5.821,2.328,8.538,2.717
				c-0.776,0.776-0.776,2.717-1.552,3.881c2.328,4.657,12.807,9.314,17.852,8.926c2.717,0,6.985-1.552,9.314-2.328
				c1.552-0.388,4.657-1.164,5.821-2.328c0.776-1.164,0.776-3.881,1.552-4.269c3.881-3.881,0.776-2.328,6.209,0.388
				c1.552,0.776,3.493,0,5.045,0.776c1.94,1.164,0.776,2.717,2.717,3.493c3.881,1.94,8.926,2.328,12.807,4.269
				c3.105,1.94,6.209,4.269,9.702,5.045c0,0.388-0.388,1.164-0.388,1.552c4.269,3.881,11.254,7.762,16.687,10.09
				c5.821,2.717,11.254,1.164,17.076,4.269c10.866,5.433,22.121,11.642,32.599,17.464c0.388-0.388,0.776-0.776,0.776-1.164
				c-6.597-8.15-14.747-10.478-23.673-15.135c-7.762-4.269-14.359-13.195-0.776-13.583c-3.493-1.552-8.15-3.493-2.717-6.985
				c-3.493-0.776-8.926,1.552-13.195,1.164c-3.493-0.388-15.523-3.881-6.597-6.597c-2.717-0.776-11.642-1.164-5.433-5.433
				c-10.866-1.552-25.613,8.538-30.658-5.433c3.493-3.105,14.359-3.105,19.016-2.328c-1.552-3.105-4.269-4.269-7.373-5.433
				c-3.881-1.552-6.985-4.269-9.702-5.433c-3.881-1.552-14.699-0.138-19.355,0.25c1.94,1.94,6.937,1.691,8.489,4.407
				c-0.776,0-2.717,0.776-3.493,0.776c2.717,1.552,6.985,1.94,8.538,4.657c-6.209,3.105-17.464-4.269-23.673-6.597
				c-6.597-1.94-12.419-5.821-18.628-6.597c-8.538-1.164-17.076,0.388-25.613-1.552c-7.373-1.94-14.747-6.597-22.12-3.493
				L652.752-1000.823z"/>
			
				<linearGradient id="SVGID_23_" gradientUnits="userSpaceOnUse" x1="759.198" y1="-17259.4785" x2="850.3028" y2="-17259.4785" gradientTransform="matrix(1 0 0 -1 194.5 -18278.5)">
				<stop  offset="0" style="stop-color:#31182E"/>
				<stop  offset="0.1269" style="stop-color:#39172E"/>
				<stop  offset="0.3579" style="stop-color:#40162E"/>
				<stop  offset="1" style="stop-color:#42162E"/>
			</linearGradient>
			<path fill="url(#SVGID_23_)" d="M953.698-1036.765c5.045,4.269,18.534,4.936,23.967,7.653c5.433,3.105,8.926,6.209,15.135,8.15
				c6.209,1.94,10.866,3.105,15.523,6.985c5.821,4.657,11.254,10.09,17.464,13.971c-1.552-3.105-6.209-7.374-6.209-10.478
				c7.373,3.493,16.687,6.985,25.225,8.926c-2.717-2.717-6.597-4.657-8.926-7.762c2.328,0,4.657,0.776,6.597,0.388
				c-7.762-8.538-27.166-10.09-38.032-13.971c-6.597-2.328-13.195-3.881-19.792-7.374c-5.821-3.493-12.03-6.985-18.628-7.762"/>
			
				<linearGradient id="SVGID_24_" gradientUnits="userSpaceOnUse" x1="881.9052" y1="-17251.707" x2="897.5804" y2="-17251.707" gradientTransform="matrix(1 0 0 -1 194.5 -18278.5)">
				<stop  offset="0" style="stop-color:#31182E"/>
				<stop  offset="0.1269" style="stop-color:#39172E"/>
				<stop  offset="0.3579" style="stop-color:#40162E"/>
				<stop  offset="1" style="stop-color:#42162E"/>
			</linearGradient>
			<path fill="url(#SVGID_24_)" d="M1076.405-1036.934c2.328,1.552,6.041,5.105,6.041,7.434c0,1.552-1.94,5.045-1.94,6.597
				c-0.388,1.552,0,4.657,0,6.597c3.105-6.209,5.753-14.318,11.574-17.811c-2.766-1.178-5.267-3.799-8.76-3.022"/>
			
				<linearGradient id="SVGID_25_" gradientUnits="userSpaceOnUse" x1="929.9015" y1="-17246.1074" x2="938.0511" y2="-17246.1074" gradientTransform="matrix(1 0 0 -1 194.5 -18278.5)">
				<stop  offset="0" style="stop-color:#31182E"/>
				<stop  offset="0.1269" style="stop-color:#39172E"/>
				<stop  offset="0.3579" style="stop-color:#40162E"/>
				<stop  offset="1" style="stop-color:#42162E"/>
			</linearGradient>
			<path fill="url(#SVGID_25_)" d="M1124.401-1037.05c0.776,2.328,0.776,5.045,0,7.374c0,0.776,0.388,1.164,0.388,2.717
				c2.717-2.717,4.657-5.821,7.762-8.15c-0.388-1.164-1.552-2.328-2.717-2.717"/>
			
				<linearGradient id="SVGID_26_" gradientUnits="userSpaceOnUse" x1="979.5967" y1="-17248.3223" x2="1009.4788" y2="-17248.3223" gradientTransform="matrix(1 0 0 -1 194.5 -18278.5)">
				<stop  offset="0" style="stop-color:#31182E"/>
				<stop  offset="0.1269" style="stop-color:#39172E"/>
				<stop  offset="0.3579" style="stop-color:#40162E"/>
				<stop  offset="1" style="stop-color:#42162E"/>
			</linearGradient>
			<path fill="url(#SVGID_26_)" d="M1174.097-1048.805c8.538,5.045,19.792,16.299,29.882,15.135c0,4.657-3.493,5.433-5.821,8.538
				c0-0.388-2.328,4.657-2.717,5.045c-1.164,2.717-1.94,5.821-3.105,8.538c-0.388-2.717-2.328-7.762-2.328-10.478
				c0.388-3.881,3.493-4.657,0.388-8.15c-1.94-2.328-6.597-2.328-8.926-4.657c-3.105-3.493-2.717-6.597-7.374-9.314"/>
			
				<linearGradient id="SVGID_27_" gradientUnits="userSpaceOnUse" x1="1005.0844" y1="-17236.3027" x2="1058.994" y2="-17236.3027" gradientTransform="matrix(1 0 0 -1 194.5 -18278.5)">
				<stop  offset="0" style="stop-color:#31182E"/>
				<stop  offset="0.1269" style="stop-color:#39172E"/>
				<stop  offset="0.3579" style="stop-color:#40162E"/>
				<stop  offset="1" style="stop-color:#42162E"/>
			</linearGradient>
			<path fill="url(#SVGID_27_)" d="M1199.584-1050.352c5.045,5.433,14.026,7.869,10.145,17.183
				c6.985-4.657,13.131-9.907,22.057-7.967c4.948,0.873,10.195,2.257,15.736,3.906c1.847,0.55,4.225,2.345,5.971,2.539
				c-4.721-4.629-12.005-6.833-17.827-9.161c-6.209-2.717-12.419-5.433-19.016-7.373c-1.94,3.105-5.821,2.328-8.538,0.776
				c0,0-3.776,1.64-5.11,1.567C1202.075-1048.932,1199.584-1050.352,1199.584-1050.352z"/>
			
				<linearGradient id="SVGID_28_" gradientUnits="userSpaceOnUse" x1="883.2896" y1="-17302.3613" x2="1050.1637" y2="-17302.3613" gradientTransform="matrix(1 0 0 -1 194.5 -18278.5)">
				<stop  offset="0" style="stop-color:#26172D"/>
				<stop  offset="0.4366" style="stop-color:#32182E"/>
			</linearGradient>
			<path fill="url(#SVGID_28_)" d="M1077.79-1000.394c8.15,0.388,17.075-1.94,24.837-2.717c5.433-0.388,11.642,0,17.076-1.552
				c-1.164,7.374,6.597,9.702,13.195,11.254c3.493,1.164,7.373,1.94,10.866,3.105c3.493,1.164,5.045,1.94,8.538,3.493
				c5.433,2.717,13.583,5.433,19.404,6.209c6.985,0.776,14.747-1.164,20.956,0.388c-5.821,4.657,2.328,7.762,5.821,10.09
				c5.045,3.105,5.821,6.985,12.031,8.15c6.597,1.94,8.926,1.164,14.359,5.821c5.821,5.045,12.031,8.538,19.792,8.538
				c-8.15-2.717-19.404-5.433-27.942-3.493c-10.09,1.94-19.404,6.209-27.554-1.164c-4.269-3.881-6.597-7.762-12.031-9.702
				c-6.597-2.328-14.359-2.328-20.956-4.269c-7.761-1.552-16.299-3.493-23.285-6.209c-7.374-2.328-4.657-4.657-8.15-9.314
				c-3.881-4.269-14.747-5.821-20.18-7.762c-7.762-3.493-16.299-6.597-24.837-7.762"/>
			
				<linearGradient id="SVGID_29_" gradientUnits="userSpaceOnUse" x1="755.7384" y1="-17321.3008" x2="833.3542" y2="-17321.3008" gradientTransform="matrix(1 0 0 -1 194.5 -18278.5)">
				<stop  offset="0" style="stop-color:#26172D"/>
				<stop  offset="1" style="stop-color:#30182D"/>
			</linearGradient>
			<path fill="url(#SVGID_29_)" d="M966.538-987.09c4.657,9.314,13.583,14.747,23.673,16.687c-1.94,1.94-4.657,3.493-5.821,5.821
				c5.821,3.881,13.583,8.15,20.18,10.09c7.762,1.94,15.135-0.776,23.285-0.388c-3.493,5.433-11.642,10.09-17.464,13.195
				c-6.597,3.881-12.807,2.328-19.792,5.821c-6.597,3.493-13.583,8.15-21.344,8.538c-7.373,0.388-13.583-6.209-19.016-11.254
				c0.776,0,1.552-0.776,2.328-0.776c3.105-3.493-1.164-9.314,5.821-11.642c2.717-0.776,7.762,3.105,6.597-3.493
				c-0.776-3.493-6.597-3.493-8.926-5.433c6.597-2.328,5.433-17.076,6.209-23.285"/>
			
				<linearGradient id="SVGID_30_" gradientUnits="userSpaceOnUse" x1="669.4579" y1="-17277.9668" x2="714.4751" y2="-17277.9668" gradientTransform="matrix(1 0 0 -1 194.5 -18278.5)">
				<stop  offset="0" style="stop-color:#31182E"/>
				<stop  offset="0.1269" style="stop-color:#39172E"/>
				<stop  offset="0.3579" style="stop-color:#40162E"/>
				<stop  offset="1" style="stop-color:#42162E"/>
			</linearGradient>
			<path fill="url(#SVGID_30_)" d="M863.958-1003.499c1.164,2.328,0.776,5.045,0,7.374c4.657,0.388,9.702-2.328,14.359-1.552
				c1.552,0.388,1.552,2.717,3.493,2.717c1.552,0.388,3.493-0.388,4.657-0.388c7.373,0,16.299,0.388,22.509-3.881
				c-6.597-3.493-16.687-1.552-23.673-1.94c-3.105,0-6.985,0.388-10.09,0c-4.657-0.776-5.821-3.493-10.09-5.045"/>
		</g>
		<g>
			
				<linearGradient id="SVGID_31_" gradientUnits="userSpaceOnUse" x1="445.5" y1="-17216.9551" x2="445.5" y2="-16686.1836" gradientTransform="matrix(1 0 0 -1 194.5 -18278.5)">
				<stop  offset="0.1773" style="stop-color:#000E1E"/>
				<stop  offset="0.5273" style="stop-color:#0B142A"/>
				<stop  offset="0.6994" style="stop-color:#23162C"/>
				<stop  offset="0.8332" style="stop-color:#38182E"/>
			</linearGradient>
			<path fill="url(#SVGID_31_)" d="M1054.568-1564.372c-2.54,11.432-15.242,11.432-24.133,10.161
				c-31.755-3.811-63.509-20.323-92.723-10.161c-33.025,11.432-64.779,24.133-97.804,31.754
				c-35.565,8.891-71.13,13.972-106.695,7.621c-17.782-2.54-35.565-2.54-53.347-3.811c-7.621-1.27-13.972-7.621-20.323-5.081
				l-10.161,1.27c-1.27-2.54-5.081-3.811-5.081-7.621c-34.295,6.351-66.049,13.972-101.614,16.512
				c-64.779,3.811-118.127-49.537-179.095-41.916c-1.849,0.154-3.543-1.811-5.422-1.521c-13.615,2.101-28.027,9.605-40.304,12.953
				c-17.783,3.811-34.295,3.811-53.348,5.081c-24.133,1.27-83.832,21.593-93.993-11.432c-19.053,5.081-31.754,5.081-49.537,0
				c-8.891-1.27-19.053-1.27-26.674-2.54c-3.811-1.27-10.161,1.27-13.972,0c-3.811,0-1.27-7.621-5.081-7.621
				c-7.621,0-11.432,6.351-20.323,5.081c-5.081-1.27-13.972-8.891-19.053-12.702c-7.621-3.811-17.783-6.351-22.863-13.972
				c-5.081,3.811-7.941,4.71-13.021,8.52v522.252h1280v-498.622c-14.569,4.521-46.337-16.908-57.769-19.449
				c-6.351-1.27-7.621,5.081-13.972,3.811c-5.081-1.27-10.161-7.621-12.702-7.621c-11.432-1.27-16.512,11.432-30.484-1.27
				c-8.891,8.891-38.105,29.214-44.456,11.432c-5.081,0-6.351,0-11.432,0c-2.54,6.351-5.081,12.702-11.432,15.242
				c-5.081-12.702-22.863-10.161-34.295-7.621L1054.568-1564.372z"/>
		</g>
	</g>
</pattern>
<g id="Layer_2" display="none">
	<rect x="1688.603" y="-180.066" display="inline" fill="url(#New_Pattern)" width="1968.561" height="865.617"/>
</g>
<g id="Layer_1">
	<g>
		<g>
			<linearGradient id="SVGID_32_" gradientUnits="userSpaceOnUse" x1="640" y1="532" x2="640" y2="2.814977e-08">
				<stop  offset="0.1773" style="stop-color:#000E1E"/>
				<stop  offset="0.5273" style="stop-color:#0B142A"/>
				<stop  offset="0.6994" style="stop-color:#23162C"/>
				<stop  offset="0.8332" style="stop-color:#38182E"/>
			</linearGradient>
			<path fill="url(#SVGID_32_)" d="M1054.568,27.944c-2.54,11.432-15.242,11.432-24.133,10.161
				c-31.755-3.811-63.509-20.323-92.723-10.161c-33.025,11.432-64.779,24.133-97.804,31.754
				c-35.565,8.891-71.13,13.972-106.695,7.621c-17.782-2.54-35.565-2.54-53.347-3.811c-7.621-1.27-13.972-7.621-20.323-5.081
				l-10.161,1.27c-1.27-2.54-5.081-3.811-5.081-7.621c-34.295,6.351-66.049,13.972-101.614,16.512
				C477.907,72.4,424.559,19.053,363.591,26.674c-1.849,0.154-3.543-1.811-5.422-1.522c-13.615,2.101-28.027,9.605-40.304,12.953
				c-17.783,3.811-34.295,3.811-53.348,5.081c-24.133,1.27-83.832,21.593-93.993-11.432c-19.053,5.081-31.754,5.081-49.537,0
				c-8.891-1.27-19.053-1.27-26.674-2.54c-3.811-1.27-10.161,1.27-13.972,0c-3.811,0-1.27-7.621-5.081-7.621
				c-7.621,0-11.432,6.351-20.323,5.081c-5.081-1.27-13.972-8.891-19.053-12.702C28.263,10.161,18.102,7.621,13.021,0
				C7.941,3.811,4.081,4.71-1,8.52V532h1282V8.441c-2.656,2.516-12.736,13.19-14.407,13.9c-3.228,1.371-11.075,5.199-13.485,4.149
				c-12.282-5.355-24.623-12.398-30.877-13.788c-6.351-1.27-7.621,5.081-13.972,3.811c-5.081-1.27-10.161-7.621-12.702-7.621
				c-11.432-1.27-16.512,11.432-30.484-1.27c-8.891,8.891-38.105,29.214-44.456,11.432c-5.081,0-6.351,0-11.432,0
				c-2.54,6.351-5.081,12.702-11.432,15.242c-5.081-12.702-22.863-10.161-34.295-7.621L1054.568,27.944z"/>
		</g>
		<g>
			<linearGradient id="SVGID_33_" gradientUnits="userSpaceOnUse" x1="1.3193" y1="22.0464" x2="41.0829" y2="22.0464">
				<stop  offset="0" style="stop-color:#31182E"/>
				<stop  offset="0.1269" style="stop-color:#39172E"/>
				<stop  offset="0.3579" style="stop-color:#40162E"/>
				<stop  offset="1" style="stop-color:#42162E"/>
			</linearGradient>
			<path fill="url(#SVGID_33_)" d="M3.974,16.521c1.164,1.94,2.717,3.493,3.493,5.433c5.433-2.717,23.285,17.464,26.777,22.121
				c2.717-4.657,5.045-9.314,6.597-14.747c1.164-6.209-1.94-11.642-8.15-15.523C28.423,10.7,15.537,5.043,13.052,0.073
				c-0.301-0.602-7.905,3.884-11.733,7.57"/>
		</g>
		<g>
			<linearGradient id="SVGID_34_" gradientUnits="userSpaceOnUse" x1="131.0793" y1="41.6298" x2="159.594" y2="41.6298">
				<stop  offset="0" style="stop-color:#31182E"/>
				<stop  offset="0.1269" style="stop-color:#39172E"/>
				<stop  offset="0.3579" style="stop-color:#40162E"/>
				<stop  offset="1" style="stop-color:#42162E"/>
			</linearGradient>
			<path fill="url(#SVGID_34_)" d="M131.264,38.641c1.94,6.209,8.926,3.881,13.583,4.657c5.045,0.776,9.702,3.493,13.583,6.209
				c-0.388-1.552,0-3.105-0.776-5.045c0.776-0.388,1.552-1.552,1.94-1.94c-2.328-1.94-6.209-2.717-8.926-4.269
				c0.776-0.776,1.552-2.717,1.94-3.105c-5.821-0.776-16.096-2.102-21.529-0.938"/>
		</g>
		<g>
			<linearGradient id="SVGID_35_" gradientUnits="userSpaceOnUse" x1="188.3119" y1="60.5418" x2="252.345" y2="60.5418">
				<stop  offset="0" style="stop-color:#31182E"/>
				<stop  offset="0.1269" style="stop-color:#39172E"/>
				<stop  offset="0.3579" style="stop-color:#40162E"/>
				<stop  offset="1" style="stop-color:#42162E"/>
			</linearGradient>
			<path fill="url(#SVGID_35_)" d="M188.312,52.224c3.105,3.105,7.374,3.881,9.314,7.374c0.388-0.776,1.164-1.552,1.552-1.94
				c4.269,1.552,7.374,6.209,11.642,6.597c0-1.94,0-4.269,0.388-6.209c4.657,3.493,9.314,7.374,14.359,10.478
				c1.552-7.762,2.717-6.209,9.314-2.328c5.045,3.105,11.642,5.045,17.464,6.209c-0.388-5.821-7.762-6.985-12.03-10.09
				c-3.493-2.717-8.411-13.3-12.078-13.634c-0.524-0.048-13.503,1.232-17.772,1.62c-6.597,0.776-9.18-0.041-15.39-0.429"/>
		</g>
		<g>
			<linearGradient id="SVGID_36_" gradientUnits="userSpaceOnUse" x1="230.0947" y1="49.5342" x2="346.9408" y2="49.5342">
				<stop  offset="0" style="stop-color:#31182E"/>
				<stop  offset="0.1269" style="stop-color:#39172E"/>
				<stop  offset="0.3579" style="stop-color:#40162E"/>
				<stop  offset="1" style="stop-color:#42162E"/>
			</linearGradient>
			<path fill="url(#SVGID_36_)" d="M230.095,48.442c5.821,3.105,16.041,4.17,21.862,8.439c3.493,2.328,6.985,4.657,10.478,7.762
				c2.328,2.328,8.15,4.269,8.538,6.597c1.94-3.881,0-8.15,1.552-11.642c1.552-3.493,8.926-5.433,12.807-6.209
				c-1.94,3.881-2.328,8.926-1.94,12.807c17.076-12.419,52.295-18.187,63.549-38.367c-8.435,3.025-24.353,6.932-32.115,8.485
				c-8.926,1.552-17.852,3.105-26.777,4.657c-6.985,1.552-13.583,1.164-20.568,0.388c-10.478-0.388-18.328,2.916-27.856,5.083
				C237.492,46.926,230.095,48.442,230.095,48.442z"/>
		</g>
		<g>
			<linearGradient id="SVGID_37_" gradientUnits="userSpaceOnUse" x1="383.7517" y1="78.21" x2="664.097" y2="78.21">
				<stop  offset="0" style="stop-color:#26172D"/>
				<stop  offset="0.5117" style="stop-color:#39172E"/>
				<stop  offset="1" style="stop-color:#29172D"/>
			</linearGradient>
			<path fill="url(#SVGID_37_)" d="M591.526,93.361c-7.374,1.164-15.523,4.269-22.121,7.374c8.15,3.493,19.016-1.164,27.166-2.717
				c2.328,3.881,20.568,3.881,26.001,5.433c0,4.657,17.464,9.314,20.568,11.642c3.493,2.717,6.597,6.209,10.09,8.926
				c3.105,2.328,7.762,3.493,10.866,6.209c-26.777-2.328-52.391-8.538-78.392-13.195c-10.478-1.94-21.732-6.209-31.434-10.478
				c-4.657-2.328-8.15-6.209-11.642-8.538c-3.881-2.328-8.926-2.328-13.583-2.717c-10.866-0.388-20.18,0.388-30.658,1.552
				c-1.552-6.209-10.09-16.299-15.135-19.792c-6.597-4.657-12.419-6.597-17.464-12.807c-2.717-3.881-5.045-5.045-8.538-7.762
				c-1.164-0.776-1.552-3.881-3.493-4.269c-3.493-1.164-1.552,1.164-5.045,2.717c-6.597,2.328-14.747,3.493-22.121,5.821
				c-1.164-2.328-0.776-5.433-1.94-7.762c-2.328-3.881-7.762-5.821-11.642-8.538c-6.597-3.881-13.971-3.493-20.18-8.15
				l-9.078-10.121c3.716,0.286,5.098,0.435,10.863,1.382c13.179,2.164,25.11,5.972,37.799,10.292
				c19.404,6.597,38.42,14.747,57.824,21.344c16.687,5.821,30.122,10.36,48.362,9.196c13.583-0.776,30.796,0.423,43.215-4.622
				l6.607,0.082c3.493,0,6.985-0.388,10.09,0.776c-3.881,2.717-9.702,3.105-13.583,6.597c1.164,0,2.717,0.388,3.493,0.388
				c-1.164,1.164-2.328,2.717-3.493,3.493c6.597-1.552,21.732-8.926,28.33-5.433c-5.821,3.493-13.971,4.657-17.852,10.478
				c2.328,0.776,1.94,1.552,2.717,3.105c-7.762,1.94-12.03,2.328-18.24,7.762c6.597-0.388,13.195-1.552,20.18-1.94"/>
		</g>
		<g>
			<linearGradient id="SVGID_38_" gradientUnits="userSpaceOnUse" x1="776.6409" y1="166.1753" x2="693.9294" y2="22.915">
				<stop  offset="0" style="stop-color:#26172D"/>
				<stop  offset="0.6991" style="stop-color:#42162E"/>
				<stop  offset="1" style="stop-color:#2B182D"/>
			</linearGradient>
			<path fill="url(#SVGID_38_)" d="M652.752,60.721c7.762,5.045,21.732,5.045,27.554,12.03c-9.702,5.821-39.196-7.374-40.748-18.24
				c-6.985,1.94,2.717,10.866,5.045,13.971c5.821,6.985,10.866,7.374,19.404,8.538c6.209,0.776,12.419,2.717,19.016,3.105
				c1.94,0,5.045-0.776,6.597-0.776c2.717,0.388,5.821,2.328,8.538,2.717c-0.776,0.776-0.776,2.717-1.552,3.881
				c2.328,4.657,12.807,9.314,17.852,8.926c2.717,0,6.985-1.552,9.314-2.328c1.552-0.388,4.657-1.164,5.821-2.328
				c0.776-1.164,0.776-3.881,1.552-4.269c3.881-3.881,0.776-2.328,6.209,0.388c1.552,0.776,3.493,0,5.045,0.776
				c1.94,1.164,0.776,2.717,2.717,3.493c3.881,1.94,8.926,2.328,12.807,4.269c3.105,1.94,6.209,4.269,9.702,5.045
				c0,0.388-0.388,1.164-0.388,1.552c4.269,3.881,11.254,7.762,16.687,10.09c5.821,2.717,11.254,1.164,17.076,4.269
				c10.866,5.433,22.121,11.642,32.599,17.464c0.388-0.388,0.776-0.776,0.776-1.164c-6.597-8.15-14.747-10.478-23.673-15.135
				c-7.762-4.269-14.359-13.195-0.776-13.583c-3.493-1.552-8.15-3.493-2.717-6.985c-3.493-0.776-8.926,1.552-13.195,1.164
				c-3.493-0.388-15.523-3.881-6.597-6.597c-2.717-0.776-11.642-1.164-5.433-5.433c-10.866-1.552-25.613,8.538-30.658-5.433
				c3.493-3.105,14.359-3.105,19.016-2.328c-1.552-3.105-4.269-4.269-7.373-5.433c-3.881-1.552-6.985-4.269-9.702-5.433
				c-3.881-1.552-14.699-0.138-19.355,0.25c1.94,1.94,6.937,1.691,8.489,4.407c-0.776,0-2.717,0.776-3.493,0.776
				c2.717,1.552,6.985,1.94,8.538,4.657c-6.209,3.105-17.464-4.269-23.673-6.597c-6.597-1.94-12.419-5.821-18.628-6.597
				c-8.538-1.164-17.076,0.388-25.613-1.552c-7.373-1.94-14.747-6.597-22.12-3.493L652.752,60.721z"/>
		</g>
		<g>
			<linearGradient id="SVGID_39_" gradientUnits="userSpaceOnUse" x1="953.698" y1="42.5223" x2="1044.8029" y2="42.5223">
				<stop  offset="0" style="stop-color:#31182E"/>
				<stop  offset="0.1269" style="stop-color:#39172E"/>
				<stop  offset="0.3579" style="stop-color:#40162E"/>
				<stop  offset="1" style="stop-color:#42162E"/>
			</linearGradient>
			<path fill="url(#SVGID_39_)" d="M953.698,24.779c5.045,4.269,18.534,4.936,23.967,7.653c5.433,3.105,8.926,6.209,15.135,8.15
				c6.209,1.94,10.866,3.105,15.523,6.985c5.821,4.657,11.254,10.09,17.464,13.971c-1.552-3.105-6.209-7.374-6.209-10.478
				c7.373,3.493,16.687,6.985,25.225,8.926c-2.717-2.717-6.597-4.657-8.926-7.762c2.328,0,4.657,0.776,6.597,0.388
				c-7.762-8.538-27.166-10.09-38.032-13.971c-6.597-2.328-13.195-3.881-19.792-7.374c-5.821-3.493-12.03-6.985-18.628-7.762"/>
		</g>
		<g>
			<linearGradient id="SVGID_40_" gradientUnits="userSpaceOnUse" x1="1076.4052" y1="34.7514" x2="1092.0804" y2="34.7514">
				<stop  offset="0" style="stop-color:#31182E"/>
				<stop  offset="0.1269" style="stop-color:#39172E"/>
				<stop  offset="0.3579" style="stop-color:#40162E"/>
				<stop  offset="1" style="stop-color:#42162E"/>
			</linearGradient>
			<path fill="url(#SVGID_40_)" d="M1076.405,24.61c2.328,1.552,6.041,5.105,6.041,7.434c0,1.552-1.94,5.045-1.94,6.597
				c-0.388,1.552,0,4.657,0,6.597c3.105-6.209,5.753-14.318,11.574-17.811c-2.766-1.178-5.267-3.799-8.76-3.022"/>
		</g>
		<g>
			<linearGradient id="SVGID_41_" gradientUnits="userSpaceOnUse" x1="1124.4015" y1="29.1511" x2="1132.5511" y2="29.1511">
				<stop  offset="0" style="stop-color:#31182E"/>
				<stop  offset="0.1269" style="stop-color:#39172E"/>
				<stop  offset="0.3579" style="stop-color:#40162E"/>
				<stop  offset="1" style="stop-color:#42162E"/>
			</linearGradient>
			<path fill="url(#SVGID_41_)" d="M1124.401,24.494c0.776,2.328,0.776,5.045,0,7.374c0,0.776,0.388,1.164,0.388,2.717
				c2.717-2.717,4.657-5.821,7.762-8.15c-0.388-1.164-1.552-2.328-2.717-2.717"/>
		</g>
		<g>
			<linearGradient id="SVGID_42_" gradientUnits="userSpaceOnUse" x1="1174.0967" y1="31.3667" x2="1203.9789" y2="31.3667">
				<stop  offset="0" style="stop-color:#31182E"/>
				<stop  offset="0.1269" style="stop-color:#39172E"/>
				<stop  offset="0.3579" style="stop-color:#40162E"/>
				<stop  offset="1" style="stop-color:#42162E"/>
			</linearGradient>
			<path fill="url(#SVGID_42_)" d="M1174.097,12.739c8.538,5.045,19.792,16.299,29.882,15.135c0,4.657-3.493,5.433-5.821,8.538
				c0-0.388-2.328,4.657-2.717,5.045c-1.164,2.717-1.94,5.821-3.105,8.538c-0.388-2.717-2.328-7.762-2.328-10.478
				c0.388-3.881,3.493-4.657,0.388-8.15c-1.94-2.328-6.597-2.328-8.926-4.657c-3.105-3.493-2.717-6.597-7.374-9.314"/>
		</g>
		<g>
			<linearGradient id="SVGID_43_" gradientUnits="userSpaceOnUse" x1="1199.5845" y1="19.3471" x2="1253.494" y2="19.3471">
				<stop  offset="0" style="stop-color:#31182E"/>
				<stop  offset="0.1269" style="stop-color:#39172E"/>
				<stop  offset="0.3579" style="stop-color:#40162E"/>
				<stop  offset="1" style="stop-color:#42162E"/>
			</linearGradient>
			<path fill="url(#SVGID_43_)" d="M1199.584,11.193c5.045,5.433,14.026,7.869,10.145,17.183c6.985-4.657,13.131-9.907,22.057-7.967
				c4.948,0.873,10.195,2.257,15.736,3.906c1.847,0.55,4.225,2.345,5.971,2.539c-4.721-4.629-12.005-6.833-17.827-9.161
				c-6.209-2.717-12.419-5.433-19.016-7.374c-1.94,3.105-5.821,2.328-8.538,0.776c0,0-3.776,1.64-5.11,1.567
				C1202.075,12.612,1199.584,11.193,1199.584,11.193z"/>
		</g>
		<g>
			<linearGradient id="SVGID_44_" gradientUnits="userSpaceOnUse" x1="1077.7896" y1="85.405" x2="1244.6637" y2="85.405">
				<stop  offset="0" style="stop-color:#26172D"/>
				<stop  offset="0.4366" style="stop-color:#32182E"/>
			</linearGradient>
			<path fill="url(#SVGID_44_)" d="M1077.79,61.15c8.15,0.388,17.075-1.94,24.837-2.717c5.433-0.388,11.642,0,17.076-1.552
				c-1.164,7.374,6.597,9.702,13.195,11.254c3.493,1.164,7.373,1.94,10.866,3.105c3.493,1.164,5.045,1.94,8.538,3.493
				c5.433,2.717,13.583,5.433,19.404,6.209c6.985,0.776,14.747-1.164,20.956,0.388c-5.821,4.657,2.328,7.762,5.821,10.09
				c5.045,3.105,5.821,6.985,12.031,8.15c6.597,1.94,8.926,1.164,14.359,5.821c5.821,5.045,12.031,8.538,19.792,8.538
				c-8.15-2.717-19.404-5.433-27.942-3.493c-10.09,1.94-19.404,6.209-27.554-1.164c-4.269-3.881-6.597-7.762-12.031-9.702
				c-6.597-2.328-14.359-2.328-20.956-4.269c-7.761-1.552-16.299-3.493-23.285-6.209c-7.374-2.328-4.657-4.657-8.15-9.314
				c-3.881-4.269-14.747-5.821-20.18-7.762c-7.762-3.493-16.299-6.597-24.837-7.762"/>
		</g>
		<g>
			<linearGradient id="SVGID_45_" gradientUnits="userSpaceOnUse" x1="950.2384" y1="104.344" x2="1027.8542" y2="104.344">
				<stop  offset="0" style="stop-color:#26172D"/>
				<stop  offset="1" style="stop-color:#30182D"/>
			</linearGradient>
			<path fill="url(#SVGID_45_)" d="M966.538,74.454c4.657,9.314,13.583,14.747,23.673,16.687c-1.94,1.94-4.657,3.493-5.821,5.821
				c5.821,3.881,13.583,8.15,20.18,10.09c7.762,1.94,15.135-0.776,23.285-0.388c-3.493,5.433-11.642,10.09-17.464,13.195
				c-6.597,3.881-12.807,2.328-19.792,5.821c-6.597,3.493-13.583,8.15-21.344,8.538c-7.373,0.388-13.583-6.209-19.016-11.254
				c0.776,0,1.552-0.776,2.328-0.776c3.105-3.493-1.164-9.314,5.821-11.642c2.717-0.776,7.762,3.105,6.597-3.493
				c-0.776-3.493-6.597-3.493-8.926-5.433c6.597-2.328,5.433-17.075,6.209-23.285"/>
		</g>
		<g>
			<linearGradient id="SVGID_46_" gradientUnits="userSpaceOnUse" x1="863.9579" y1="61.0104" x2="908.9751" y2="61.0104">
				<stop  offset="0" style="stop-color:#31182E"/>
				<stop  offset="0.1269" style="stop-color:#39172E"/>
				<stop  offset="0.3579" style="stop-color:#40162E"/>
				<stop  offset="1" style="stop-color:#42162E"/>
			</linearGradient>
			<path fill="url(#SVGID_46_)" d="M863.958,58.045c1.164,2.328,0.776,5.045,0,7.374c4.657,0.388,9.702-2.328,14.359-1.552
				c1.552,0.388,1.552,2.717,3.493,2.717c1.552,0.388,3.493-0.388,4.657-0.388c7.373,0,16.299,0.388,22.509-3.881
				c-6.597-3.493-16.687-1.552-23.673-1.94c-3.105,0-6.985,0.388-10.09,0c-4.657-0.776-5.821-3.493-10.09-5.045"/>
		</g>
	</g>
</g>
</svg>
