<?xml version="1.0" encoding="utf-8"?>
<!-- Generator: Adobe Illustrator 17.0.0, SVG Export Plug-In . SVG Version: 6.00 Build 0)  -->
<!DOCTYPE svg PUBLIC "-//W3C//DTD SVG 1.1//EN" "http://www.w3.org/Graphics/SVG/1.1/DTD/svg11.dtd">
<svg version="1.1" id="Layer_1" xmlns="http://www.w3.org/2000/svg" xmlns:xlink="http://www.w3.org/1999/xlink" x="0px" y="0px"
	 width="1280px" height="537.848px" viewBox="0 0 1280 537.848" enable-background="new 0 0 1280 537.848" xml:space="preserve">
<linearGradient id="SVGID_1_" gradientUnits="userSpaceOnUse" x1="640" y1="539" x2="640" y2="-7.960776e-06">
	<stop  offset="0" style="stop-color:#000E1E"/>
	<stop  offset="0.3321" style="stop-color:#000000"/>
	<stop  offset="1" style="stop-color:#3E0420"/>
</linearGradient>
<path fill="url(#SVGID_1_)" d="M-1,32.874c0,0,8.638-6.976,29.598-6.913c10.399,0.031,24.477,21.414,36.972,26.62
	c17.747,7.394,69.956,77.235,119.79,76.902c22.008-0.147,62.658,24.542,102.021,2.653c13.408-7.456,40.962-26.428,56.194-28.259
	c9.662-1.161,29.219-0.583,38.925,0.113c27.091,1.943,85.141-23.453,111.948-19.085c9.475,1.544,35.316-15.713,47.882-15.358
	c8.957,0.253,25.541,13.005,33.895,11.652c7.911-1.282,24.071,0.78,32.056,0.093c15.354-1.32,35.446-26.745,50.8-28.066
	c4.563-0.392,13.771-0.493,18.318,0.053c11.683,1.403,26.625,6.56,38.231,8.496c13.892,2.317,59.909-26.871,73.992-26.887
	c12.944-0.015,38.714-3.209,51.534-5.003c14.705-2.058,23.578,32.729,36.735,25.848c1.793-0.938,19.929-36.687,27.425-42.262
	c5.742-4.27,21.466,0.062,28.621,0.083c18.318,0.053,32.461,21.8,49.577,28.327c9.052,3.452,40.9,14.085,53.795,12.549
	c3.979-0.474,23.334,18.114,40.693,15.492c3.849-0.582,38.107-39.154,52.538-50.185c9.463-7.234,33.163-7.471,44.229-15.65
	c16.254-12.014,31.972,6.424,55.712,5.033c6.618-0.388,27.257,21.674,34.302,23.992c11.054,3.636,16.217-0.199,16.217-0.199V539H-1
	V32.874z"/>
</svg>
