<?xml version="1.0" encoding="utf-8"?>
<!-- Generator: Adobe Illustrator 17.0.0, SVG Export Plug-In . SVG Version: 6.00 Build 0)  -->
<!DOCTYPE svg PUBLIC "-//W3C//DTD SVG 1.1//EN" "http://www.w3.org/Graphics/SVG/1.1/DTD/svg11.dtd">
<svg version="1.1" id="Layer_1" xmlns="http://www.w3.org/2000/svg" xmlns:xlink="http://www.w3.org/1999/xlink" x="0px" y="0px"
	 width="1280px" height="636.068px" viewBox="0 0 1280 636.068" enable-background="new 0 0 1280 636.068" xml:space="preserve">
<g>
	<linearGradient id="SVGID_1_" gradientUnits="userSpaceOnUse" x1="640" y1="637" x2="640" y2="318.0167">
		<stop  offset="0" style="stop-color:#000000"/>
		<stop  offset="1" style="stop-color:#000010"/>
	</linearGradient>
	<path fill="url(#SVGID_1_)" d="M1281,637H-1V322.045l450.546,7.898l24.123-9.216l259.935-2.711l21.395,12.461
		c0,0,30.97,2.745,40.481,2.381c12.707-0.486,47.628-4.001,47.628-4.001l356.97-0.813l14.908-6.234l66.015,0.233V637z"/>
	<g>
		<linearGradient id="SVGID_2_" gradientUnits="userSpaceOnUse" x1="103.9884" y1="392.056" x2="258.1758" y2="124.9957">
			<stop  offset="0" style="stop-color:#000000"/>
			<stop  offset="0.1691" style="stop-color:#000005"/>
			<stop  offset="0.513" style="stop-color:#00031B"/>
			<stop  offset="0.8023" style="stop-color:#080E25"/>
			<stop  offset="1" style="stop-color:#0D1128"/>
		</linearGradient>
		<path fill="url(#SVGID_2_)" d="M-1,32.212c5.004-5.091,19.63-1.072,26.691-0.023c7.553,1.122,22.802,5.019,29.062,9.392
			c4.101,2.865,7.356,15.203,12.327,15.76c4.945,0.554,10.738-10.907,15.425-12.576c3.868-1.377,12.469-1.1,16.425,0
			c5.411,1.504,14.182,9.153,19.239,11.595c3.471,1.676,10.65,4.709,14.443,5.394c3.836,0.693,11.897-1.24,15.593,0
			c3.905,1.31,10.305,6.95,13.14,9.936c7.392,7.787,15.373,29.287,24.09,35.556c3.691,2.654,13.658,2.479,17.52,4.878
			c3.473,2.157,8.791,8.685,10.913,12.18c4.081,6.722,9.689,21.694,11.1,29.43c2.025,11.106-2.857,34.236,0,45.158
			c1.332,5.091,8.072,14.09,10.456,18.98c2.042,4.188-18.309,16.373-18.302,21.032c0.009,6.03,18.598-8.062,23.177-4.139
			c3.468,2.971,5.919,13.149,9.931,15.33c1.642,0.893,5.614-0.168,7.476,0c6.097,0.55,18.155,2.883,24.09,4.38
			c6.868,1.732,21.37,4.389,26.944,8.76c3.042,2.385,5.232,10.604,8.149,13.14c3.068,2.668,11.568,4.209,14.879,6.57
			c4.557,3.251,10.264,13.82,15.218,16.425c6.725,3.536,22.621,2.909,30.076,4.38c6.644,1.311,19.88,4.357,26.28,6.57
			c5.701,1.971,16.637,7.141,22.024,9.855c3.988,2.009,28.01,6.038,26.885,10.359L-1,331.441V32.212z"/>
		<linearGradient id="SVGID_3_" gradientUnits="userSpaceOnUse" x1="898.7667" y1="395.4346" x2="1199.4243" y2="94.777">
			<stop  offset="0" style="stop-color:#000000"/>
			<stop  offset="0.1691" style="stop-color:#000005"/>
			<stop  offset="0.513" style="stop-color:#00031B"/>
			<stop  offset="0.8023" style="stop-color:#080E25"/>
			<stop  offset="1" style="stop-color:#0D1128"/>
		</linearGradient>
		<path fill="url(#SVGID_3_)" d="M1198.683,334.51c0,0,10.587-45.661,8.607-60.913c-0.875-6.741-6.075-19.943-10.552-25.059
			c-3.291-3.761-12.409-8.823-17.232-10.136c-1.712-0.466-7.095,0-7.095,0s1.124-10.874,2.534-14.191
			c2.449-5.761,12.569-14.385,14.698-20.272c3.886-10.748,5.412-34.433,3.041-45.613c-1.129-5.323-6.747-15.002-10.136-19.259
			c-4.477-5.623-15.276-15.722-21.793-18.752c-3.608-1.677-12.454-0.249-15.711-2.534c-1.068-0.749-2.534-4.561-2.534-4.561
			s2.611-1.643,3.041-2.534c2.53-5.252,2.382-17.793,0.507-23.313c-1.324-3.896-6.238-12.224-10.308-12.833
			c-2.798-0.418-6.644,7.165-9.357,6.363c-1.85-0.547-3.136-5.187-2.994-7.111c0.225-3.057,6.151-7.422,6.363-10.48
			c0.309-4.474-6.147-12.088-7.111-16.468c-1.569-7.13,3.278-23.103-0.749-29.193c-5.842-8.837-28.035-16.308-38.55-17.591
			c-3.024-0.369-9.162,1.08-11.977,2.246c-1.99,0.824-5.797,3.159-7.111,4.866c-2.726,3.541-5.988,16.842-5.988,16.842l-8.234-0.374
			c0,0-4.728-6.256-7.111-6.363c-5.478-0.246-14.183,8.804-17.591,13.1c-5.391,6.796-12.59,23.231-13.848,31.813
			c-0.342,2.331,0.982,7.005,1.123,9.357c0.123,2.055,0.221,6.187,0,8.234c-0.329,3.047-2.62,11.977-2.62,11.977l4.117,2.62
			c0,0-2.11,8.032-3.368,10.48c-1.866,3.628-7.447,9.72-9.731,13.1c-1.905,2.819-7.47,8.219-7.111,11.602
			c0.286,2.698,5.648,5.863,7.485,7.86c1.526,1.658,5.988,6.737,5.988,6.737s0.237,5.629,0,7.485
			c-0.33,2.589-2.398,7.505-2.62,10.105c-0.192,2.245,0.655,6.731,0.749,8.983c0.097,2.337,0,9.357,0,9.357
			s-9.398,5.775-10.854,8.983c-1.432,3.153,0.327,10.385,0.374,13.848c0.028,2.058,0,8.234,0,8.234s-17.33-1.524-22.831,0
			c-4.206,1.165-11.11,6.946-14.971,8.983c-8.924,4.708-36.679,16.842-36.679,16.842l-2.994,16.094c0,0-18.638,13.854-24.328,19.088
			c-15.328,14.1-56.703,61.03-56.703,61.03L1198.683,334.51z"/>
		<linearGradient id="SVGID_4_" gradientUnits="userSpaceOnUse" x1="507.5516" y1="370.4228" x2="663.2081" y2="214.7663">
			<stop  offset="0" style="stop-color:#000000"/>
			<stop  offset="0.1691" style="stop-color:#000005"/>
			<stop  offset="0.513" style="stop-color:#00031B"/>
			<stop  offset="0.8023" style="stop-color:#080E25"/>
			<stop  offset="1" style="stop-color:#0D1128"/>
		</linearGradient>
		<path fill="url(#SVGID_4_)" d="M511.645,181.699c3.714,2.662,6.036,12.31,7.975,16.448c2.437,5.201,5.488,16.794,9.47,20.934
			c2.704,2.811,13.956,6.978,13.956,6.978s6.105-6.924,8.971-7.476c5.146-0.991,14.704,6.194,19.937,6.479
			c3.05,0.166,9.008-3.27,11.962-2.492c6.574,1.732,20.435,17.943,20.435,17.943s12.034,2.026,14.454,4.984
			c1.194,1.459-0.022,5.89,0.997,7.476c2.784,4.334,17.445,10.965,17.445,10.965s24.365-8.406,32.397-6.479
			c2.933,0.704,9.47,7.476,9.47,7.476s11.587,0.436,15.451,0.498c4.734,0.076,14.695-2.098,18.94,0
			c2.391,1.181,5.27,6.097,6.479,8.473c7.092,13.932,17.817,59.941,17.817,59.941l-265.5,1.324c0,0,5.482-76.366,8.941-101.637
			c1.014-7.409-0.49-24.906,5.483-29.407c2.099-1.582,10.467,0.997,10.467,0.997s2.232-8.601,2.991-11.464
			c0.86-3.243,0.704-11.087,3.489-12.959C505.338,179.582,510.012,180.529,511.645,181.699z"/>
	</g>
</g>
<linearGradient id="SVGID_5_" gradientUnits="userSpaceOnUse" x1="1246.4333" y1="333.53" x2="1246.4333" y2="31.2436">
	<stop  offset="0" style="stop-color:#000000"/>
	<stop  offset="0.3131" style="stop-color:#000005"/>
	<stop  offset="0.9542" style="stop-color:#0A0F27"/>
	<stop  offset="1" style="stop-color:#0D1128"/>
</linearGradient>
<path fill="url(#SVGID_5_)" d="M1281,31.244c0,0-19.142,1.31-23.233,5.299c-16.496,16.084-23.065,23.793-21.67,46.79
	c0.613,10.101,2.942,55.128,3.791,65.212c1.829,21.71-4.463,78.556-9.09,99.846c-4.767,21.931-18.932,85.14-18.932,85.14
	l69.133-6.601V31.244z"/>
</svg>
