<?xml version="1.0" encoding="utf-8"?>
<!-- Generator: Adobe Illustrator 17.0.0, SVG Export Plug-In . SVG Version: 6.00 Build 0)  -->
<!DOCTYPE svg PUBLIC "-//W3C//DTD SVG 1.1//EN" "http://www.w3.org/Graphics/SVG/1.1/DTD/svg11.dtd">
<svg version="1.1" id="Layer_1" xmlns="http://www.w3.org/2000/svg" xmlns:xlink="http://www.w3.org/1999/xlink" x="0px" y="0px"
	 width="1280px" height="530px" viewBox="0 0 1280 530" enable-background="new 0 0 1280 530" xml:space="preserve">
<g>
	<g>
		<g>
			<linearGradient id="SVGID_1_" gradientUnits="userSpaceOnUse" x1="640" y1="531" x2="640" y2="-3.791047e-08">
				<stop  offset="0" style="stop-color:#000E1E"/>
				<stop  offset="0.3321" style="stop-color:#000000"/>
				<stop  offset="0.4632" style="stop-color:#050004"/>
				<stop  offset="0.626" style="stop-color:#15010E"/>
				<stop  offset="0.8048" style="stop-color:#2E011E"/>
				<stop  offset="0.8991" style="stop-color:#3E0229"/>
			</linearGradient>
			<path fill="url(#SVGID_1_)" d="M1281,18.071c-10.845,0-26.096-6.062-36.941-9.677c-3.926,6.02-9.103,9.652-15.024,11.563
				c-21.339,6.888-52.347-8.576-69.325-15.178c-14.46-4.82-19.28-7.23-34.945-1.205c-10.845,3.615-24.1,15.665-28.92,0
				c-13.255,3.615-49.405,12.05-57.84-1.205c-15.665,0-30.125,7.23-45.79,7.23c-3.615-20.485-34.945,0-48.2,3.615h-9.64
				c-7.23,12.05-36.15,10.845-49.405,14.46c-8.435,2.41-19.28,8.435-27.715,7.23c-6.025-1.205-30.744,2.953-30.744,2.953
				s-7.43,8.905-18.275,10.11c-13.255,1.205-20.219-2.722-20.219-2.722s-18.38,10.885-40.081,25.908
				c-7.23-2.41-17.206-0.099-17.206-0.099s-12.05,10.845-16.87,12.05c-8.435,2.41-31.33-7.23-39.765-9.64
				c-20.485-6.025-28.92-15.665-45.79-28.92c-9.64-8.435-8.435-8.435-19.28-13.255c-9.64-3.615-16.87-1.205-22.895-9.64
				c-12.05,14.46-18.075-3.615-27.715-7.23c-13.255-4.82-16.87,3.615-28.92-10.845c-13.255,9.64-27.715,19.28-42.175,26.51
				c-9.64,3.615-18.075,6.025-27.715,10.845c-9.64,3.615-20.485,14.46-30.125,16.87c-14.46,4.82-33.74-2.41-46.995-7.23
				c-7.23-2.41-15.665-4.82-22.895-7.23c-4.82-2.41-10.845-12.05-14.46-12.05c-8.435,1.205-32.535,21.69-40.97,26.51
				c-18.075,9.64-20.485,12.05-40.97,10.845c-16.87-1.205-30.125,2.41-46.995,8.435c-16.87,4.82-24.1,4.82-39.765,14.46
				c-5.147,3.241-19.79,2.853-19.79,2.853S87.32,53.704,57.904,54.718c-19.485,0-42.401-38.978-42.401-38.978S2.419,17.921-1,18.042
				V531h1282V18.071z"/>
		</g>
		<g>
			
				<linearGradient id="SVGID_2_" gradientUnits="userSpaceOnUse" x1="255.9591" y1="854.8754" x2="376.221" y2="854.8754" gradientTransform="matrix(0.9496 0.3136 -0.3136 0.9496 69.6521 -836.8365)">
				<stop  offset="0" style="stop-color:#340120"/>
				<stop  offset="0.8991" style="stop-color:#3E0229"/>
			</linearGradient>
			<path fill="url(#SVGID_2_)" d="M46.112,50.709c2.649,0.5,6.425,2.267,10.248,2.861c3.508,0.546,7.086-0.093,9.26,0.624
				c5.084,2.039,23.216,8.984,28.085,11.672c9.739,5.375,49.013,28.777,64.151,29.979c-4.533,1.741-48.888-14.21-53.32-14.954
				c-3.783-0.53-13.921-1.83-17.168-3.982c-2.381-1.506-4.548-3.661-7.036-4.842c-3.354-1.827-5.622-1.497-8.974-2.244
				c-6.596-1.818-9.925-4.942-14.073-9.684C56.011,58.681,46.112,50.709,46.112,50.709z"/>
		</g>
		<g>
			<linearGradient id="SVGID_3_" gradientUnits="userSpaceOnUse" x1="262.8585" y1="93.9395" x2="284.1081" y2="57.1342">
				<stop  offset="0" style="stop-color:#260012"/>
				<stop  offset="0.5575" style="stop-color:#350121"/>
			</linearGradient>
			<path fill="url(#SVGID_3_)" d="M237.474,70.522c9.771-2.584,22.417-2.406,29.934-2.406c6.15,0,19.354-0.46,25.15-4.257
				c-2.733,5.467-12.85,8.357-16.95,12.115c6.491,3.417,11.275,3.075,18.449,3.075c2.733,0,4.783,0,7.175-0.683
				c3.758-0.683,8.541-5.125,11.958-4.442c-1.025,3.758-8.2,4.442-11.275,6.491c-2.733,1.708-4.442,4.442-6.833,6.15
				c-5.467,3.758-10.25,6.833-15.033,11.275c-4.783,4.783-5.467,4.1-8.541-1.708c-2.392-4.1-1.708-5.467-2.392-9.908
				c-0.683-4.442-1.367-4.442-5.125-7.175c-5.808-3.758-11.563-3.511-16.855-8.045C246.177,70.183,237.474,70.522,237.474,70.522z"
				/>
		</g>
		<g>
			<linearGradient id="SVGID_4_" gradientUnits="userSpaceOnUse" x1="211.5338" y1="91.6363" x2="211.5338" y2="80.506">
				<stop  offset="0.4466" style="stop-color:#390125"/>
				<stop  offset="0.8991" style="stop-color:#3E0229"/>
			</linearGradient>
			<path fill="url(#SVGID_4_)" d="M199.554,81.38c4.442,0.342,6.143-0.533,10.243-0.874c2.392,2.05,10.642,8,13.717,10.733
				c-6.833,1.708-13.666-2.733-19.816-1.367"/>
		</g>
		<g>
			<linearGradient id="SVGID_5_" gradientUnits="userSpaceOnUse" x1="345.6287" y1="152.7097" x2="345.6287" y2="101.4611">
				<stop  offset="0.2447" style="stop-color:#2B0013"/>
				<stop  offset="1" style="stop-color:#330012"/>
			</linearGradient>
			<path fill="url(#SVGID_5_)" d="M302.751,113.761c4.783,6.15,11.616,11.275,17.083,16.4c2.733,2.392,9.566,11.275,10.25,5.125
				c0-0.342-2.05-4.783-2.05-5.467c-0.683-1.708-1.367-3.417-2.05-5.125c3.417,1.708,7.858,4.1,10.591,0
				c4.783,5.467,5.808,4.442,11.616,7.175c4.442,2.392,7.858,6.15,12.641,8.2c9.225,4.1,19.816,6.15,27.674,12.641
				c-0.683-9.225-20.841-18.791-28.699-22.891c-0.342-0.683-1.025-3.075-1.367-4.1c4.442-1.025,8.541,1.367,12.641,2.733
				c-0.683-2.392-3.075-4.442-4.442-6.491c4.442-3.075,11.275,1.025,16.058,0.683c-6.833-4.783-19.133-5.808-26.991-7.516
				c-10.591-2.392-19.816-9.225-29.382-13.666c-0.342,3.075,9.225,6.15,10.25,11.275c-2.05,0.342-4.1-0.683-6.15-0.342
				c-2.733,0.342-4.783,3.075-7.516,3.417c-4.442,0.342-10.25-4.442-15.033-4.442"/>
		</g>
		<g>
			<linearGradient id="SVGID_6_" gradientUnits="userSpaceOnUse" x1="407.4317" y1="105.3915" x2="407.4317" y2="42.8577">
				<stop  offset="0.4466" style="stop-color:#390125"/>
				<stop  offset="0.8991" style="stop-color:#3E0229"/>
			</linearGradient>
			<path fill="url(#SVGID_6_)" d="M358.751,42.858c14.008,8.541,26.639,21.877,37.231,34.176
				c13.325,15.375,36.557,19.474,54.665,25.966c2.392,0.683,3.758,0,5.467,2.392c-1.708-9.566-13.325-9.566-21.183-12.641
				c-9.908-3.758-16.058-7.858-22.549-16.058c-5.467-6.833-12.983-8.2-18.791-14.008c-5.466-5.125-7.776-7.58-13.242-12.704"/>
		</g>
		<g>
			<linearGradient id="SVGID_7_" gradientUnits="userSpaceOnUse" x1="362.2041" y1="87.1593" x2="362.2041" y2="42.6422">
				<stop  offset="0" style="stop-color:#340120"/>
				<stop  offset="0.8991" style="stop-color:#3E0229"/>
			</linearGradient>
			<path fill="url(#SVGID_7_)" d="M332.628,44.672c4.442,4.1,9.953,11.738,14.736,14.813c2.05,1.025,4.783,2.05,6.15,3.758
				c1.708,2.05,1.025,4.442,3.758,5.808c1.367,0.683,3.417-0.683,4.442-0.342c1.367,1.025,1.367,2.392,2.05,2.733
				c2.05,1.708,4.1,3.417,6.833,4.783c6.833,3.758,13.666,8.883,21.183,10.933c0-4.783-8.541-6.833-4.783-11.275
				c-3.417-0.342-6.491-1.708-7.858-5.125c0.683-0.342,1.367-1.367,2.05-1.708c-3.075-3.417-12.641-6.15-9.225-11.958
				c-8.541-2.733-19.708-13.426-28.933-14.451"/>
		</g>
		<g>
			<linearGradient id="SVGID_8_" gradientUnits="userSpaceOnUse" x1="553.431" y1="35.1424" x2="553.431" y2="13.9799">
				<stop  offset="0" style="stop-color:#260012"/>
				<stop  offset="0.8991" style="stop-color:#3E0229"/>
			</linearGradient>
			<path fill="url(#SVGID_8_)" d="M546.598,19.426c-4.783,1.708-6.492,11.616-7.516,15.716c4.442-1.708,8.541-6.491,13.325-8.883
				c4.442-2.392,10.591-4.442,15.375-4.1c-3.758-5.467-6.833-9.908-13.666-7.516"/>
		</g>
		<g>
			<linearGradient id="SVGID_9_" gradientUnits="userSpaceOnUse" x1="518.5191" y1="96.3618" x2="518.5191" y2="3.6486">
				<stop  offset="0" style="stop-color:#260012"/>
				<stop  offset="0.8991" style="stop-color:#3E0229"/>
			</linearGradient>
			<path fill="url(#SVGID_9_)" d="M529.299,3.649c-6.293,5.578-15.036,9.239-19.879,12.871c-1.144,0.858-1.813,9.802-4.204,13.902
				c-1.367,2.05-2.392,2.392-2.733,5.467c-0.683,4.1,1.025,7.858-0.342,11.958c-1.025,2.733-2.733,4.442-4.1,6.833
				c-2.05,3.417-3.417,7.175-3.417,10.933c5.125-5.467,9.225-11.616,13.325-18.108c2.05-3.417,5.466-11.958,9.566-12.641
				c-0.342,1.367,0,3.075-0.683,4.783c0.683-0.342,2.733,0,3.417-0.342c-1.367,16.741-18.791,29.041-14.008,47.149
				c0.683-0.683,1.708-1.367,2.392-2.05c1.367,3.417,1.025,8.2,2.392,11.958c1.367-3.758,1.025-8.541,2.392-12.641
				c1.708-5.125,4.783-10.25,6.833-15.716c2.392-6.833,6.15-12.983,9.225-19.816c1.179-2.162,4.29-18.101,7.691-27.092
				c2.51-6.635,5.874-6.84,5.148-8.581c0,0-6.08-2.38-7.437-3.432C533.339,7.889,529.299,3.649,529.299,3.649z"/>
		</g>
		<g>
			<linearGradient id="SVGID_10_" gradientUnits="userSpaceOnUse" x1="595.9778" y1="98.6425" x2="564.3746" y2="67.0392">
				<stop  offset="0.4466" style="stop-color:#390125"/>
				<stop  offset="0.8991" style="stop-color:#3E0229"/>
			</linearGradient>
			<path fill="url(#SVGID_10_)" d="M582.226,49.188c-2.05,2.733,0.342,8.2-3.758,7.516c-0.342,3.417-0.342,4.442-2.392,7.516
				c-2.733,4.1-6.491,4.1-5.125,9.566c0.342,1.708,2.392,2.392,2.733,4.442c0,1.367-2.733,3.758-2.733,5.467
				c-4.442-1.708-4.783,2.733-5.125,5.808c-0.342,0.683-1.367,2.733-1.025,3.417c1.025,2.733,1.708,0.342,3.075,1.367
				c5.466,5.125,13.325,12.641,9.566,21.524l1.025,0.342c3.075-4.442,1.708-10.25,1.367-15.375
				c-0.342-6.15,0.683-11.616,1.708-17.425c1.025-4.783,5.125-17.766,2.733-20.499"/>
		</g>
		<g>
			<linearGradient id="SVGID_11_" gradientUnits="userSpaceOnUse" x1="543.9865" y1="121.9675" x2="543.9865" y2="87.0064">
				<stop  offset="0.4466" style="stop-color:#350021"/>
				<stop  offset="1" style="stop-color:#3A0025"/>
			</linearGradient>
			<path fill="url(#SVGID_11_)" d="M521.608,98.735c0.683-1.708,2.05-2.392,3.075-3.075c0.342-0.342,4.783-3.758,5.808-4.1
				c2.05-1.025,3.075,0.342,4.1,0c2.392-0.683,4.1-1.708,6.833-2.733c6.833-2.733,9.908-2.733,14.691,2.392
				c3.075,3.075,7.858,7.175,10.25,11.275c-4.1,0.683-7.516,2.733-10.933,3.758c1.367,4.442,3.075,11.616-0.683,15.716
				c-3.075-4.783-6.15-13.666-10.591-17.083c-4.783-4.442-8.541-0.342-12.983-0.342"/>
		</g>
		<g>
			<linearGradient id="SVGID_12_" gradientUnits="userSpaceOnUse" x1="688.6603" y1="105.0635" x2="688.6603" y2="79.7362">
				<stop  offset="0.4466" style="stop-color:#31001D"/>
				<stop  offset="0.8991" style="stop-color:#380024"/>
			</linearGradient>
			<path fill="url(#SVGID_12_)" d="M657.57,81.831c4.1-0.683,10.25-2.392,13.666-2.05c1.367,0,3.758,1.708,4.1,1.708
				c3.758,0,7.175-2.05,11.275-1.708c4.442,0.342,9.566,1.367,14.008,2.05c2.05,0.342,4.442,0.683,6.833,0.683
				c1.708,0.342,5.466,1.367,7.175,0.342c-3.075,5.467-4.442,4.783-1.025,10.25c2.05,3.758,4.1,7.516,6.15,11.958
				c-4.442-5.125-11.958-5.467-17.766-7.175c-4.783-1.708-7.516-5.467-12.3-6.833c-6.15-1.708-12.983-2.392-19.133-1.708"/>
		</g>
		<g>
			<linearGradient id="SVGID_13_" gradientUnits="userSpaceOnUse" x1="732.0427" y1="98.053" x2="732.0427" y2="87.4468">
				<stop  offset="0" style="stop-color:#2F001B"/>
				<stop  offset="0.697" style="stop-color:#3B0126"/>
			</linearGradient>
			<path fill="url(#SVGID_13_)" d="M723.33,93.945c5.125-7.175,10.591-8.2,16.741-4.1c0,0.342-0.683,1.367-1.025,1.708
				c0.683,0.683,1.367,1.025,1.708,1.708c-2.733,0.342-5.466-2.05-8.541-1.025c1.025,3.417-1.708,7.858-5.125,4.783"/>
		</g>
		<g>
			<linearGradient id="SVGID_14_" gradientUnits="userSpaceOnUse" x1="751.1836" y1="77.0409" x2="751.1836" y2="65.7663">
				<stop  offset="0" style="stop-color:#2F001B"/>
				<stop  offset="0.697" style="stop-color:#3B0126"/>
			</linearGradient>
			<path fill="url(#SVGID_14_)" d="M729.356,72.298c1.126-2.971,18.713-5.848,27.596-6.531c1.025,4.1,12.641,7.175,16.058,11.275
				c-6.833-1.708-11.616-4.1-19.133-3.075c-4.442,0.683-9.908-0.683-14.008,0.342"/>
		</g>
		<g>
			<linearGradient id="SVGID_15_" gradientUnits="userSpaceOnUse" x1="789.613" y1="58.113" x2="789.613" y2="49.5714">
				<stop  offset="0" style="stop-color:#340120"/>
				<stop  offset="0.8991" style="stop-color:#3E0229"/>
			</linearGradient>
			<path fill="url(#SVGID_15_)" d="M782.951,52.164c3.417-2.05,8.883-4.1,11.958-1.025c-3.075,2.392-0.683,4.783,1.367,6.833
				c-3.758,0.683-7.175-1.367-10.933-1.025"/>
		</g>
		<g>
			<linearGradient id="SVGID_16_" gradientUnits="userSpaceOnUse" x1="898.5899" y1="55.8125" x2="969.179" y2="-14.7766">
				<stop  offset="0" style="stop-color:#340120"/>
				<stop  offset="0.8991" style="stop-color:#3E0229"/>
			</linearGradient>
			<path fill="url(#SVGID_16_)" d="M874.385,31.608c6.419-0.856,7.157-0.425,12.624,1.284c2.392,0.342,5.546-2.029,7.596-0.321
				c4.442,4.783,1.407,3.165,9.948,3.165c4.1,0,9.566,2.733,13.325,1.708c4.1-0.683,6.833-4.783,10.591-5.467
				c3.758-0.683,8.2-0.342,11.958-0.342c5.808-0.342,8.541,0,12.641-3.417c3.758-3.417,4.783-2.733,9.566-3.417
				c10.591-2.05,20.499-11.616,30.749-15.375c-11.275,2.733-23.916,2.05-34.849,6.15c-10.25,3.758-19.816,6.833-30.749,8.2
				c-14.008,2.392-29.464,7.675-43.13,4.942c-0.683,0-4.131,0.642-4.814,0.642"/>
		</g>
		<g>
			<linearGradient id="SVGID_17_" gradientUnits="userSpaceOnUse" x1="1120.925" y1="80.6201" x2="1120.925" y2="21.9473">
				<stop  offset="0.4466" style="stop-color:#390125"/>
				<stop  offset="0.8991" style="stop-color:#3E0229"/>
			</linearGradient>
			<path fill="url(#SVGID_17_)" d="M1236.499,44.746c8.541-3.758,3.354,0.28,12.237-2.112c4.783-1.025,12.516-5.498,12.516-5.498
				s-4.211,5.732-10.878,10.176c-1.449,0.966-13.191,16.224-14.9,15.883c-4.1-1.025-0.342-2.392-2.392-4.1
				c-1.367-1.025-9.908-1.708-12.3-1.708l-12.641-3.075c0.342,0.342,0.683,0.683,1.025,1.367
				c-5.808-2.392-17.766,9.908-21.183,3.758c-2.733,0.683-6.833-2.05-8.883-1.708c-2.392,0.342-4.783,3.758-7.175,5.125
				c-4.783,2.392-17.083,5.808-22.208,3.417c5.125-3.075-0.683-7.516-4.783-7.516c-4.1-0.342-5.808,2.392-9.566,4.1
				c-6.15,3.075-23.916,10.25-30.066,7.175c2.392-4.1,15.375-7.858,13.325-13.325c-3.075,0.342-6.15,1.367-9.566,1.708
				c-1.708,0.342-3.075,0.683-4.783,0.683c-3.417,0.342-4.783-1.025-6.833-1.708c-1.708-0.342-5.467-0.683-6.833-1.367
				c-2.733-1.708-1.367-4.1-3.075-5.467c-2.392-2.05-6.15-1.025-9.225,0c-17.766,4.1-35.191,12.641-52.957,16.058
				c0-0.342,0.342-0.683,0.342-1.025c-10.591-5.467-23.574,11.275-33.482,15.033c1.025-1.708,2.05-3.758,2.05-5.808
				c-4.1-3.075-9.225,1.025-13.666,0c2.05-2.392,6.15-4.1,9.225-6.491l4.783-2.733c8.541-2.05,17.424-4.1,25.966-5.808
				c9.908-2.05,19.474-7.175,28.699-9.566c8.883-2.05,19.133-3.075,28.358-5.125c7.858-1.708,14.691-6.491,22.549-8.883
				c4.1-1.025,6.833-2.05,10.933-4.1c5.125-2.392,8.2-1.708,14.008-1.025c-2.392,4.783,5.466,2.392,6.833,5.125
				c1.708,4.1-9.566,7.516,1.367,7.516c4.442,0,8.2-1.708,12.641-1.708c5.125-0.342,8.883-0.342,14.008-1.708
				c8.541-2.392,17.766-5.808,26.307-9.225c8.883-3.075,16.4-10.591,26.308-8.883c0.342,0,1.367,1.708,1.367,2.05
				c-3.075,2.392-7.175,4.1-9.908,6.833c1.708,1.367,3.758,2.392,5.125,3.758c-1.025,1.708-3.417,3.417-4.783,4.783
				c6.15,2.05,22.891,10.933,28.016,5.808L1236.499,44.746z"/>
		</g>
		<g>
			<linearGradient id="SVGID_18_" gradientUnits="userSpaceOnUse" x1="1169.5344" y1="110.3442" x2="1169.5344" y2="75.0644">
				<stop  offset="0" style="stop-color:#2F001B"/>
				<stop  offset="0.697" style="stop-color:#3B0126"/>
			</linearGradient>
			<path fill="url(#SVGID_18_)" d="M1214.633,85.062c-3.758-1.708-7.858-2.392-11.616-3.758c-3.758-1.367-7.516-5.808-11.616-6.15
				c-3.417-0.683-7.175,2.733-10.933,4.442c-4.783,1.708-9.566,3.417-14.008,5.467c-6.15,2.733-11.958,5.808-17.766,8.883
				c-7.516,3.758-19.133,9.908-24.258,16.4c6.15-2.05,12.3-2.733,18.449-5.808c6.833-3.417,14.691-9.566,22.891-9.908
				c-0.342,1.708-1.367,3.417-2.05,5.125c12.3-4.1,20.499-14.008,33.482-12.3"/>
		</g>
		<g>
			<linearGradient id="SVGID_19_" gradientUnits="userSpaceOnUse" x1="1229.2212" y1="113.4191" x2="1229.2212" y2="85.7729">
				<stop  offset="0" style="stop-color:#2F001B"/>
				<stop  offset="0.697" style="stop-color:#3B0126"/>
			</linearGradient>
			<path fill="url(#SVGID_19_)" d="M1233.083,93.603c-19.816-4.442-38.607,9.566-53.64,19.816c6.833-2.392,14.008-4.1,21.183-6.491
				c2.733-1.025,4.442-2.392,7.858-2.05c1.025,0.342,3.758,2.733,3.417,2.733c6.492,0.342,20.841-10.591,18.791,4.442
				c5.808,0.342,14.008-6.15,18.791-9.225c3.758-2.392,5.125-2.05,8.883-3.417c4.1-1.708,6.833-5.808,11.616-7.516
				c4.1-1.708,5.26-4.755,9.018-6.122c-7.175,1.025-14.485,3.389-22.001,3.047c-6.15,0-8.883,2.05-15.033,4.1"/>
		</g>
		<g>
			<linearGradient id="SVGID_20_" gradientUnits="userSpaceOnUse" x1="1032.5299" y1="121.6189" x2="1032.5299" y2="98.0006">
				<stop  offset="0" style="stop-color:#2F001B"/>
				<stop  offset="0.697" style="stop-color:#3B0126"/>
			</linearGradient>
			<path fill="url(#SVGID_20_)" d="M1039.705,98.045c-5.125-0.342-6.15,1.367-9.908,3.075c-6.15,3.417-12.983,5.467-19.474,8.2
				c-5.125,2.733-10.25,4.442-16.058,5.808c-3.075,0.683-13.325,2.733-14.35,6.491c5.466-2.05,8.541-4.783,14.35-4.783
				c3.075,0,12.641-2.733,12.983,1.367c6.15-2.392,11.275-7.516,17.425-9.566c2.733-1.025,12.3-4.442,9.225,1.367
				c9.225,2.05,15.716,6.491,25.624,5.808c4.442-0.342,9.225-2.733,13.666-2.392c2.392,0.342,4.442,2.392,6.15,2.733
				c2.05,0.342,3.417-1.025,5.808-0.683c-3.417-3.417-7.175-4.442-10.933-6.833c-4.442-2.733-3.758-2.05-8.883-1.708
				c-5.125,0.342-12.3,1.708-15.375-2.733"/>
		</g>
		<g>
			<linearGradient id="SVGID_21_" gradientUnits="userSpaceOnUse" x1="305.4191" y1="118.3427" x2="218.5241" y2="118.3427">
				<stop  offset="0.4466" style="stop-color:#30001C"/>
				<stop  offset="0.8991" style="stop-color:#3E0229"/>
			</linearGradient>
			<path fill="url(#SVGID_21_)" d="M218.524,102.855c10.057,7.241,21.321,10.057,31.781,16.896
				c16.092,10.057,35.804,19.31,53.505,26.551c0.402-0.805,1.207-2.011,1.609-2.414c-10.057-10.862-23.333-15.689-32.988-24.942
				c-4.023-3.621-4.023-8.85-8.046-13.276c-4.828-6.034-12.069-12.069-18.908-15.287c-0.805,13.276-9.655,11.264-20.115,11.264"/>
		</g>
		<g>
			<linearGradient id="SVGID_22_" gradientUnits="userSpaceOnUse" x1="306.7119" y1="57.6618" x2="372.3612" y2="57.6618">
				<stop  offset="0" style="stop-color:#340120"/>
				<stop  offset="0.8991" style="stop-color:#3E0229"/>
			</linearGradient>
			<path fill="url(#SVGID_22_)" d="M306.712,56.183c7.241-2.011,23.409,7.37,29.041,10.991c5.632,3.621,10.057,8.046,16.896,9.655
				c6.437,1.609,13.276,2.011,19.712,3.218c-0.805-4.827-6.437-5.23-10.057-7.241c-5.632-3.218-9.655-8.448-13.678-12.471
				c-8.046-8.046-1.523-25.454-12.787-25.052"/>
		</g>
		<g>
			<linearGradient id="SVGID_23_" gradientUnits="userSpaceOnUse" x1="379.6152" y1="46.5531" x2="335.7245" y2="46.5531">
				<stop  offset="0" style="stop-color:#340120"/>
				<stop  offset="0.8991" style="stop-color:#3E0229"/>
			</linearGradient>
			<path fill="url(#SVGID_23_)" d="M352.621,34.357c-4.827-1.207-3.206-3.365-8.034-3.768c0.805,0.805-5.644,2.158-4.84,2.963
				c-1.207,0.402-2.816,1.609-4.023,1.609c1.609,9.655,12.471,13.276,21.321,16.896c5.23,2.011,21.724,4.425,22.126,10.46
				c0.402,0,0.402,0,0.402,0c0.805-8.046-10.46-15.689-16.494-19.31"/>
		</g>
		<g>
			<linearGradient id="SVGID_24_" gradientUnits="userSpaceOnUse" x1="584.207" y1="93.1995" x2="604.8344" y2="93.1995">
				<stop  offset="0.4466" style="stop-color:#350021"/>
				<stop  offset="1" style="stop-color:#3A0025"/>
			</linearGradient>
			<path fill="url(#SVGID_24_)" d="M593.46,85.556c-1.609,3.621-3.621,4.425-5.632,6.839c-3.218,3.621-3.218,4.425-3.621,10.057
				c2.816-0.805,5.23-2.011,8.046-2.816c2.011-0.402,5.23,0.402,7.241-0.402c3.621-2.414,8.046-12.471,3.218-15.287"/>
		</g>
		<g>
			<linearGradient id="SVGID_25_" gradientUnits="userSpaceOnUse" x1="667.3364" y1="102.2888" x2="711.1954" y2="102.2888">
				<stop  offset="0.4466" style="stop-color:#31001D"/>
				<stop  offset="0.8991" style="stop-color:#380024"/>
			</linearGradient>
			<path fill="url(#SVGID_25_)" d="M667.336,87.84c5.632,7.644,8.728,4.686,16.372,8.306c11.264,5.23,16.223,15.362,27.487,20.592
				c-1.207-6.034-5.632-8.85-9.253-13.678c-2.414-3.218-4.425-7.644-8.85-10.46c-3.621-2.414-7.889-2.873-11.912-3.678
				c-4.023-0.805-6.491-0.805-10.112,0L667.336,87.84z"/>
		</g>
		<g>
			<linearGradient id="SVGID_26_" gradientUnits="userSpaceOnUse" x1="790.9847" y1="112.2495" x2="733.0548" y2="112.2495">
				<stop  offset="0.4466" style="stop-color:#30001C"/>
				<stop  offset="0.8991" style="stop-color:#3E0229"/>
			</linearGradient>
			<path fill="url(#SVGID_26_)" d="M733.055,98.832c7.643,7.644,18.505,8.046,26.149,15.287c2.011,2.011,3.621,4.425,6.034,6.437
				c4.023,2.816,5.632,1.207,9.253,1.609c6.034,0.805,10.46,6.034,16.494,6.437c-5.23-7.241-14.08-13.276-21.321-17.701
				c-5.632-3.218-14.08-6.034-16.092-13.276c-6.034,2.011-8.531-2.499-13.276-1.609C738.387,96.374,733.055,98.832,733.055,98.832z"
				/>
		</g>
		<g>
			<linearGradient id="SVGID_27_" gradientUnits="userSpaceOnUse" x1="747.819" y1="80.1641" x2="792.0753" y2="80.1641">
				<stop  offset="0" style="stop-color:#2F001B"/>
				<stop  offset="0.697" style="stop-color:#3B0126"/>
			</linearGradient>
			<path fill="url(#SVGID_27_)" d="M747.819,75.109c8.046,0.805,15.689,3.621,21.724,5.632c7.241,2.011,18.103,0.402,22.528,7.644
				c0.402-11.264-27.356-18.103-36.206-16.092"/>
		</g>
		<g>
			<linearGradient id="SVGID_28_" gradientUnits="userSpaceOnUse" x1="776.2335" y1="50.4732" x2="798.4614" y2="50.4732">
				<stop  offset="0" style="stop-color:#340120"/>
				<stop  offset="0.8991" style="stop-color:#3E0229"/>
			</linearGradient>
			<path fill="url(#SVGID_28_)" d="M781.866,52.471c-1.609,1.207-4.023,2.414-5.632,3.218c0-2.011,11.788-10.432,11.788-10.432
				s7.015,0.72,10.44,2.703c-2.011-0.402-6.136,1.695-8.148,2.499"/>
		</g>
		<g>
			<linearGradient id="SVGID_29_" gradientUnits="userSpaceOnUse" x1="799.8034" y1="65.5742" x2="843.2509" y2="65.5742">
				<stop  offset="0" style="stop-color:#2F001B"/>
				<stop  offset="0.697" style="stop-color:#3B0126"/>
			</linearGradient>
			<path fill="url(#SVGID_29_)" d="M799.887,48.156c5.428,0.251,13.277-1.169,13.277-1.169s7.961,2.981,9.57,4.187
				c3.218,2.414,0.402,5.632,3.218,9.253c-0.402,0.402-1.207,0.805-1.609,1.207c5.632,8.046,13.276,14.08,18.908,22.528
				c-6.839-4.827-22.126-7.644-26.551-14.885c-0.402-0.402,0-4.425-0.402-5.632c-0.805-2.414-1.207-2.414-3.621-4.425
				c-2.011-1.609-5.23-2.011-7.241-4.023c-2.414-2.011-2.414-4.827-5.632-6.034"/>
		</g>
		<g>
			<linearGradient id="SVGID_30_" gradientUnits="userSpaceOnUse" x1="970.8412" y1="21.3159" x2="1067.7935" y2="21.3159">
				<stop  offset="0" style="stop-color:#340120"/>
				<stop  offset="0.8991" style="stop-color:#3E0229"/>
			</linearGradient>
			<path fill="url(#SVGID_30_)" d="M971.243,33.537c5.632,2.011,12.471,2.011,18.505,1.609c6.034,0,15.689-3.621,20.517,0.402
				c0.805-5.632,2.414-4.827,7.644-6.034c4.828-1.207,8.85-3.218,14.08-4.023c-0.805,2.011-1.207,4.425-2.011,6.034
				c2.414-0.402,5.23-1.207,8.046-1.609c-0.805,2.011-1.207,4.023-2.414,6.034c10.46-2.816,26.953-12.873,32.183-22.126
				c-4.023-0.402-18.908,5.632-14.08-4.425c-3.621,2.414-13.678,6.034-12.069-1.609c-9.253-4.425-28.563,5.632-38.218,8.448
				c-6.034,1.609-12.471,3.218-18.103,6.034c-5.23,2.414-9.253,6.839-14.482,8.85"/>
		</g>
		<g>
			<linearGradient id="SVGID_31_" gradientUnits="userSpaceOnUse" x1="1094.3125" y1="99.1966" x2="1185.0557" y2="99.1966">
				<stop  offset="0" style="stop-color:#2F001B"/>
				<stop  offset="0.697" style="stop-color:#3B0126"/>
			</linearGradient>
			<path fill="url(#SVGID_31_)" d="M1151.036,85.556c-8.85,3.621-20.115,6.034-28.16,10.862c8.85,7.644-24.137,20.115-28.563,24.942
				c7.643-3.218,15.287-6.839,22.931-9.253c7.644-2.011,12.873-7.644,19.712-12.069c13.678-8.046,35.227-13.35,48.1-23.005
				c-6.034,0.805-17.526,2.086-23.158,3.293"/>
		</g>
		<g>
			<linearGradient id="SVGID_32_" gradientUnits="userSpaceOnUse" x1="1264.7393" y1="93.5023" x2="1277.6125" y2="93.5023">
				<stop  offset="0" style="stop-color:#2F001B"/>
				<stop  offset="0.697" style="stop-color:#3B0126"/>
			</linearGradient>
			<path fill="url(#SVGID_32_)" d="M1277.21,89.956c-3.621,2.816-9.253,3.218-12.471,6.034c5.23-1.207,9.253,4.023,12.873-1.609"/>
		</g>
		<g>
			<linearGradient id="SVGID_33_" gradientUnits="userSpaceOnUse" x1="1228.9103" y1="107.6276" x2="1263.5073" y2="107.6276">
				<stop  offset="0.2447" style="stop-color:#2B0013"/>
				<stop  offset="1" style="stop-color:#330012"/>
			</linearGradient>
			<path fill="url(#SVGID_33_)" d="M1263.507,100.554c-7.644,0-10.057-0.805-16.092,3.218c-6.034,4.023-13.678,6.437-18.505,10.862
				c6.034,1.207,28.16-6.034,32.988-10.862"/>
		</g>
		<g>
			<linearGradient id="SVGID_34_" gradientUnits="userSpaceOnUse" x1="1169.9432" y1="122.1645" x2="1212.5861" y2="122.1645">
				<stop  offset="0.2447" style="stop-color:#2B0013"/>
				<stop  offset="1" style="stop-color:#330012"/>
			</linearGradient>
			<path fill="url(#SVGID_34_)" d="M1206.552,104.866c-5.632,2.816-12.873,5.23-18.103,8.448c-4.023,2.414-4.023,5.632-7.241,9.253
				c-2.414,2.414-6.839,4.425-9.655,6.437c6.437,2.011,0,6.839-1.609,10.46c7.644-4.827,14.885-11.264,21.724-17.299
				c5.632-4.827,13.276-14.885,20.919-15.689c0-0.402-0.402-0.805-0.805-1.207"/>
		</g>
		<g>
			
				<linearGradient id="SVGID_35_" gradientUnits="userSpaceOnUse" x1="55.3586" y1="1216.5391" x2="74.2663" y2="1216.5391" gradientTransform="matrix(0.3053 -0.9523 0.9523 0.3053 -81.8183 -292.052)">
				<stop  offset="0" style="stop-color:#340120"/>
				<stop  offset="0.8991" style="stop-color:#3E0229"/>
			</linearGradient>
			<path fill="url(#SVGID_35_)" d="M1094.444,12.513c-1.979,4.857-1.032,9.808,0.805,14.621c2.869-4.995,5.174-10.533,6.893-15.896
				c-1.026-0.751-3.42-2.846-4.186-3.092"/>
		</g>
		<linearGradient id="SVGID_36_" gradientUnits="userSpaceOnUse" x1="5.3126" y1="45.555" x2="55.6137" y2="62.1659">
			<stop  offset="0" style="stop-color:#340120"/>
			<stop  offset="0.8991" style="stop-color:#3E0229"/>
		</linearGradient>
		<path fill="url(#SVGID_36_)" d="M15.242,15.486c0,0,1.343,13.283,2.573,18.008c3.314,12.739,18.189,34.826,23.796,46.735
			c1.35,2.867,4.073,12.005,4.073,12.005s1.415-10.761,1.286-14.363c-0.275-7.705-7.224-31.903-7.224-31.903
			s-7.919-8.369-10.998-11.83C24.855,29.761,15.242,15.486,15.242,15.486z"/>
		<g>
			<linearGradient id="SVGID_37_" gradientUnits="userSpaceOnUse" x1="60.7654" y1="149.9233" x2="60.7654" y2="75.2482">
				<stop  offset="0" style="stop-color:#260012"/>
				<stop  offset="0.8991" style="stop-color:#3E0229"/>
			</linearGradient>
			<path fill="url(#SVGID_37_)" d="M73.207,90.821c7.625-3.588,10.531-16.012,11.465-15.561c9.776,4.727,6.668,13.997,8.727,13.138
				c1.581-0.66-1.842,11.915-7.673,15.952c-17.043,11.213-40.041,35.706-57.981,45.573c1.346-3.14,4.037-4.485,6.728-6.279
				c3.588-2.691,33.373-39.745,36.513-43.333c6.279-7.625,8.645-6.322,10.519-12.777c-5.772,3.274-5.214,5.157-10.721,7.123
				L73.207,90.821z"/>
		</g>
		<g>
			<linearGradient id="SVGID_38_" gradientUnits="userSpaceOnUse" x1="35.1548" y1="123.9099" x2="35.1548" y2="53.4945">
				<stop  offset="0.4466" style="stop-color:#390125"/>
				<stop  offset="0.8991" style="stop-color:#3E0229"/>
			</linearGradient>
			<path fill="url(#SVGID_38_)" d="M54.429,100.917c-4.917,3.54-5.155,12.677-5.603,11.78c-11.661,3.14-23.322,10.764-35.88,11.213
				c0.897-0.897,1.346-2.691,1.794-3.588c-0.449-0.449-1.346,0-1.794-0.449c2.243-3.588,7.176-3.588,8.522-7.625
				c-5.382-2.243-10.316-4.485-15.249-6.728c0.897-2.243,2.691-4.037,4.934-5.382l4.485-8.97c2.243-4.037,6.728-6.279,8.522-9.867
				c2.691-5.382,2.691-14.352,2.691-20.631c4.037,1.346,6.728,8.073,8.97,11.213c4.037,4.485,8.073,8.97,7.176,15.249
				c0.897,0,1.794-0.449,2.243-0.897c0.449,3.14-0.449,6.728,0,9.867c8.522-9.867,2.243-33.638-3.588-42.608
				c4.934,2.691,6.728,7.176,9.867,11.213c4.037,4.485,12.11,6.279,6.279,13.007c1.346-0.449,2.691-0.449,4.037-0.897
				c-0.449,0.897-0.897,2.691-1.346,3.588c8.073,1.794,0.449,10.316-2.243,14.352L54.429,100.917z"/>
		</g>
	</g>
	<linearGradient id="SVGID_39_" gradientUnits="userSpaceOnUse" x1="1221.4221" y1="35.9667" x2="1221.4221" y2="19.2101">
		<stop  offset="0" style="stop-color:#340120"/>
		<stop  offset="0.8991" style="stop-color:#3E0229"/>
	</linearGradient>
	<path fill="url(#SVGID_39_)" d="M1223.673,25.459c-1.493,1.037-2.26,3.122-3.951,3.788c-1.849,0.728-8.32,6.72-8.32,6.72
		s2.225-8.378,3.037-9.271c1.252-1.375,3.629-4.68,3.629-4.68s4.619-0.431,6.122-0.726c1.874-0.367,7.25-2.08,7.25-2.08
		S1225.721,24.037,1223.673,25.459z"/>
</g>
</svg>
