<?xml version="1.0" encoding="utf-8"?>
<!-- Generator: Adobe Illustrator 17.0.0, SVG Export Plug-In . SVG Version: 6.00 Build 0)  -->
<!DOCTYPE svg PUBLIC "-//W3C//DTD SVG 1.1//EN" "http://www.w3.org/Graphics/SVG/1.1/DTD/svg11.dtd">
<svg version="1.1" id="Layer_1" xmlns="http://www.w3.org/2000/svg" xmlns:xlink="http://www.w3.org/1999/xlink" x="0px" y="0px"
	 width="1280px" height="530.772px" viewBox="0 0 1280 530.772" enable-background="new 0 0 1280 530.772" xml:space="preserve">
<linearGradient id="SVGID_1_" gradientUnits="userSpaceOnUse" x1="640" y1="532" x2="640" y2="-1.836725e-05">
	<stop  offset="0.1773" style="stop-color:#000E1E"/>
	<stop  offset="0.5273" style="stop-color:#0B142A"/>
	<stop  offset="0.7" style="stop-color:#26172C"/>
	<stop  offset="1" style="stop-color:#50142F"/>
</linearGradient>
<path fill="url(#SVGID_1_)" d="M-1,2.231c0,0,15.865-2.415,25.307-2.22c6.032,0.125,6.822,2.411,9.985,3.496
	c13.716,4.705,50.754,171.079,54.436,170.469c4.531-0.751,88.308-26.703,92.115-29.411c13.235-9.412,48.205-1.446,63.497-6.217
	c5.628-1.756,15.259-9.476,20.808-11.495c8.008-2.914,24.664-0.532,33.097-1.343c5.804-0.558,18.676-0.57,24.396-1.751
	c10.381-2.144,45.572,55.119,55.185,50.448c33.847-16.447,68.588-30.88,103.404-44.874c14.692-5.905,45.522-36.206,61.034-33.542
	c7.099,1.219,18.156,12.347,24.192,16.487c8.679,5.952,27.826,15.688,34.65,23.914c2.688,3.24,3.004,15.204,7.063,15.548
	c4.779,0.404,7.194-13.517,10.951-16.67c3.797-3.186,13.176-7.816,18.014-7.559c7.446,0.394,19.794,11.036,26.491,14.507
	c7.602,3.941,23.272,10.81,30.73,15.049c10.417,5.921,29.864,20.311,40.267,26.261c11.947,6.833,38.612,26.648,38.612,26.648
	s82.936-43.505,102.713-41.254c16.332,1.858,48.261-31.528,64.687-31.613c9.805-0.051,23.769,0.65,38.125,6.45
	c4.273,1.726,9.46,11.144,13.775,12.747c5.755,2.138,18.401,0.192,24.372-1.122c7.501-1.651,21.176-9.666,28.611-11.625
	c16.305-4.296,55.056-13.162,89.582-24.497c28.537-9.369,52.993-45.537,60.697-57.093c5.432-8.149,26.366-20.168,37.072-41.855
	c12.86-26.054,14.754-16.251,21.755-15.684C1267.828,5.498,1281,2.244,1281,2.244V532H-1V2.231z"/>
</svg>
