<?xml version="1.0" encoding="utf-8"?>
<!-- Generator: Adobe Illustrator 17.0.0, SVG Export Plug-In . SVG Version: 6.00 Build 0)  -->
<!DOCTYPE svg PUBLIC "-//W3C//DTD SVG 1.1//EN" "http://www.w3.org/Graphics/SVG/1.1/DTD/svg11.dtd">
<svg version="1.1" id="Layer_1" xmlns="http://www.w3.org/2000/svg" xmlns:xlink="http://www.w3.org/1999/xlink" x="0px" y="0px"
	 width="1280px" height="543.619px" viewBox="0 0 1280 543.619" enable-background="new 0 0 1280 543.619" xml:space="preserve">
<linearGradient id="SVGID_1_" gradientUnits="userSpaceOnUse" x1="-421.5004" y1="411.381" x2="-421.5004" y2="-132.6204" gradientTransform="matrix(1 0 0 1 1061.5 132.6189)">
	<stop  offset="0" style="stop-color:#210008"/>
	<stop  offset="0.513" style="stop-color:#391022"/>
	<stop  offset="0.562" style="stop-color:#3D1023"/>
	<stop  offset="0.6265" style="stop-color:#4A0D28"/>
	<stop  offset="0.6742" style="stop-color:#57042C"/>
	<stop  offset="0.7116" style="stop-color:#661030"/>
	<stop  offset="0.7638" style="stop-color:#771B33"/>
	<stop  offset="0.8139" style="stop-color:#842134"/>
	<stop  offset="0.8603" style="stop-color:#8B2534"/>
	<stop  offset="0.8995" style="stop-color:#8E2634"/>
</linearGradient>
<path fill="url(#SVGID_1_)" d="M-1,83.563c0,0,22.285-8.123,32.86-7.051c5.307,0.538,20.889-4.352,20.889-4.352
	s15.479-2.578,19.063-6.681c6.044-6.918,6.007-13.528,15.064-15.064c5.836-0.99,14.619-4.743,20.472-3.863
	c3.873,0.582,20.966-5.568,23.736-8.338s15.579-6.483,17.3-10.002c2.18-4.457,10.019-16.994,14.937-17.653
	c5.607-0.751,5.117-12.203,10.465-10.36c12.377,4.267,12.994-4.367,23.176,3.863c4.394,3.552,20.428,34.076,23.176,39.013
	c3.319,5.963,23.301,19.764,23.301,19.764s8.063,19.529,14.591,19.529c3.917,0,37.344,10.989,42.551,17.064
	c7.11,8.295,19.568,15.869,26.301,20.886c6.451,4.807,18.924,15.943,27.2,17.2c20.871,3.169,29.3-3.168,29.3-3.168
	s12.235-11.206,21.073-12.689c7.409-1.243,23.398-8.974,30.834-7.906c7.802,1.121,30.769,9.826,38.598,10.739
	c17.854,2.081,165.962-31.33,182.914-25.353c8.218,2.897,29.593,18.414,29.593,18.414s52.088-10.713,69.631-13.191
	c13.85-1.957,41.801-3.702,55.705-5.222c10.464-1.144,31.432-3.29,41.779-5.222c14.111-2.636,41.483-11.98,55.705-13.926
	c15.959-2.184,48.347-0.523,64.409-1.741c6.997-0.531,93.334,37.547,93.334,37.547s8.606-8.869,12.186-10.812
	c19.837-10.771,61.465-6.299,83.779-9.699c12.914-1.968,7.409-15.92,19.779-11.721c9.6,3.259,24.019-2.099,24.019-2.099
	s18.573-1.872,24.371,0c5.106,1.649,21.899,3.111,21.899,3.111s2.742,1.524,5.951-0.999c2.266-1.782,9.361-1.114,13.537-0.772
	c3.208,0.263,2.903,0.876,4.047,1.002c0.738,0.081,4.474-0.275,4.474-0.275V544H-1V83.563z"/>
<g>
	
		<linearGradient id="SVGID_2_" gradientUnits="userSpaceOnUse" x1="-970.397" y1="-3.1835" x2="-957.0381" y2="-92.4069" gradientTransform="matrix(1 0 0 1 1061.5 132.6189)">
		<stop  offset="0" style="stop-color:#57042C"/>
		<stop  offset="0.166" style="stop-color:#661030"/>
		<stop  offset="0.3979" style="stop-color:#771B33"/>
		<stop  offset="0.62" style="stop-color:#842134"/>
		<stop  offset="0.826" style="stop-color:#8B2534"/>
		<stop  offset="1" style="stop-color:#8E2634"/>
	</linearGradient>
	<path fill="url(#SVGID_2_)" d="M60.346,72.019c3.991-2.603,9.488-4.581,14.536-6.226c6.73-2.193,15.886-7.224,22.714-7.402
		c-0.509,0.724-0.626,1.507-0.743,2.289c2.681,0.801,5.83-1.528,8.178-1.176c-1.8,1.331-4.049,2.995-5.184,5.226
		c10.585-1.216,20.326-10.16,29.149-15.641c-3.911,7.417-10.543,11.625-16.509,16.733c1.624-0.157,4.089-0.588,5.772-1.136
		c-0.567,1.115-0.352,2.348-0.86,3.072c1.624-0.157,2.798,0.019,4.148-0.979c-0.117,0.783-0.293,1.957-0.352,2.348
		c5.362,1.603,13.714-8.75,18.154-11.686c-5.788,11.937-16.744,18.299-28.521,22.137c2.564,1.584,1.371,4.206-1.212,5.42
		c2.974-1.155,5.556-2.369,8.53-3.524c-1.701,3.346-4.635,6.908-7.393,9.296c15.593-5.267,26.056-21.706,34.427-34.857
		c4.305,0.645,10.721-4.797,15.827-6.833c-2.425,2.838-4.46,5.734-7.218,8.122c0.647,3.698-6.161,9.08-8.586,11.918
		c8.178-1.176,13.264-8.417,18.506-14.034c-1.877,4.52-4.537,8.923-8.645,12.309c0.841-0.274,1.624-0.157,2.074-0.49
		c-0.722,7.494-10.445,13.64-15.902,18.025c0.841-0.274,2.465-0.431,3.698-0.647c-1.251,3.014-3.794,6.634-6.161,9.08
		c8.844-0.276,14.789-10.589,19.307-16.715c5.477-7.182,9.055-15.049,13.749-22.348c0.098,2.015,0.979,4.148,0.686,6.104
		c3.15-2.329,4.577-6.517,7.726-8.846c-1.289,8.609-6.023,13.502-3.79,22.639c1.743,7.063,4.778,13.519,8.262,19.642
		c1.584-2.564,0.82-5.479,0.839-8.277c4.129,1.819,5.265,7.59,9.336,9.8c-4.968,6.458-6.962,11.761-7.801,20.038
		c-0.546,6.32,1.727,17.863-2.557,22.423c-2.603-3.991-5.031-9.156-8.101-2.013c-0.237-6.437-1.647-13.05-4.407-18.665
		c-3.384,3.895-3.871,9.823-8.821,13.483c-4.167,3.777-9.664,5.755-15.103,7.341c-0.49-2.074-1.586-5.439-2.585-6.789
		c-1.605-2.641-0.412-5.263-5.226-5.184c1.251-3.014,5.594-7.965,5.338-11.604c-1-9.352-7.925-3.187-11.583-0.134
		c0.115-8.785-9.022-6.552-11.466-0.917c-3.838-11.778-16.553-1.678-23.225,0.124c-0.982-12.15-34.867,0.381-40.756,2.3
		c3.618-5.46,11.033-9.551,14.318-15.461c3.677-5.851-1.626-7.846-7.632-5.144c0.512-3.419-1.974-4.443-4.918-4.064
		c1.311-9.005-2.868-11.998-11.514-9.393c-9.469,2.854-18.285,6.774-27.225,10.968C13.108,96.672-1,96.631-1,96.631V85.485
		c0,0,3.839-2.544,8.155-3.327c4.549-0.825,9.183-1.669,13.597-2.786c7.205-1.824,14.437-3.632,21.855-4.575
		c3.888-0.494,10.187-0.334,13.365-2.582c-0.27,0.172,1.558,0.642,1.327,0.866L60.346,72.019z"/>
</g>
<g>
	
		<linearGradient id="SVGID_3_" gradientUnits="userSpaceOnUse" x1="-866.146" y1="-61.6522" x2="-857.5963" y2="-118.7555" gradientTransform="matrix(1 0 0 1 1061.5 132.6189)">
		<stop  offset="0" style="stop-color:#751A33"/>
		<stop  offset="0.0236" style="stop-color:#771B33"/>
		<stop  offset="0.2126" style="stop-color:#842134"/>
		<stop  offset="0.3886" style="stop-color:#8B2534"/>
		<stop  offset="0.5373" style="stop-color:#8E2634"/>
	</linearGradient>
	<path fill="url(#SVGID_3_)" d="M178.467,10.055c0.197,4.031,2.292,8.745,3.545,13.734c2.135,7.121,2.02,15.907,7.519,21.932
		c0.509-0.724,0.958-1.057,1.467-1.781c1.097,3.365,3.053,3.658,5.167,5.575c2.446,2.367,3.503,3.325,5.832,6.475
		c2.995,4.049,10.118,9.917,10.922,15.239c3.131,0.469,4.501,4.675,7.984,2.796c-2.585-6.789-9.043-11.757-12.918-17.939
		c-2.545-4.382-6.716-16.61-13.113-13.967c-3.152-5.673-5.129-11.171-7.498-16.727c-1.214-2.582-2.936-4.441-3.759-6.965
		c-0.607-1.291,1.701-3.346-1.645-5.048"/>
</g>
<g>
	
		<linearGradient id="SVGID_4_" gradientUnits="userSpaceOnUse" x1="-832.7987" y1="-9.4175" x2="-826.4753" y2="-51.6504" gradientTransform="matrix(1 0 0 1 1061.5 132.6189)">
		<stop  offset="0" style="stop-color:#57042C"/>
		<stop  offset="0.166" style="stop-color:#661030"/>
		<stop  offset="0.3979" style="stop-color:#771B33"/>
		<stop  offset="0.62" style="stop-color:#842134"/>
		<stop  offset="0.826" style="stop-color:#8B2534"/>
		<stop  offset="1" style="stop-color:#8E2634"/>
	</linearGradient>
	<path fill="url(#SVGID_4_)" d="M215.917,84.508c-4.755-0.312-0.096,5.987,1.626,7.846c0.804,5.322,3.154,13.676,8.672,16.903
		c1.877-4.52-2.683-8.804-2.43-13.167c5.343,4.401,27.88,36.456,24.642,28.968c-4.944-11.433-20.318-31.122-20.771-38.791
		c-2.564-1.584-4.619-3.892-6.791-5.418c0.274,0.841-0.41,2.739-0.136,3.581c-1.722-1.858-3.386-4.108-5.05-6.358
		c-0.117,0.783,0.216,1.233,0.157,1.624"/>
</g>
<g>
	
		<linearGradient id="SVGID_5_" gradientUnits="userSpaceOnUse" x1="-817.6958" y1="-26.7107" x2="-811.4753" y2="-68.2576" gradientTransform="matrix(1 0 0 1 1061.5 132.6189)">
		<stop  offset="0" style="stop-color:#57042C"/>
		<stop  offset="0.166" style="stop-color:#661030"/>
		<stop  offset="0.3979" style="stop-color:#771B33"/>
		<stop  offset="0.62" style="stop-color:#842134"/>
		<stop  offset="0.826" style="stop-color:#8B2534"/>
		<stop  offset="1" style="stop-color:#8E2634"/>
	</linearGradient>
	<path fill="url(#SVGID_5_)" d="M230.407,61.933c5.01,3.951,5.365,4.364,9.534,8.589c-0.157-1.624,1.585-5.432,0.704-7.565
		c3.346,1.701,3.085,8.345,5.981,10.379c2.505,1.976,7.833,7.001,9.555,8.86c3.112,3.267,1.373,16.721,8.486,25.791
		c5.033,6.417-20.693-16.415-25.077-21.873c-3.66-4.949-11.117-11.267-12.136-17.821c2.289,0.743,3.503,3.325,5.617,5.242
		c-0.49-2.074-2.153-4.324-2.976-6.847"/>
</g>
<linearGradient id="SVGID_6_" gradientUnits="userSpaceOnUse" x1="194.0774" y1="-40.4417" x2="194.0774" y2="-48.088" gradientTransform="matrix(1 0 0 1 1061.5 132.6189)">
	<stop  offset="0.2462" style="stop-color:#57042C"/>
	<stop  offset="0.7409" style="stop-color:#6B1431"/>
	<stop  offset="1" style="stop-color:#731832"/>
</linearGradient>
<path fill="url(#SVGID_6_)" d="M1253.053,84.531c0,0,2.162,3.566,2.466,4.904c0.149,0.657-0.57,3.123-0.053,2.692
	c0.464-0.386,2.348-1.09,2.583-1.849c0.445-1.439-2.063-5.661-2.063-5.661s-1.059,0.409-1.43,0.402
	C1254.161,85.012,1253.053,84.531,1253.053,84.531z"/>
<linearGradient id="SVGID_7_" gradientUnits="userSpaceOnUse" x1="215.5016" y1="-32.9989" x2="215.5016" y2="-49.0934" gradientTransform="matrix(1 0 0 1 1061.5 132.6189)">
	<stop  offset="0.2462" style="stop-color:#57042C"/>
	<stop  offset="0.7409" style="stop-color:#6B1431"/>
	<stop  offset="1" style="stop-color:#731832"/>
</linearGradient>
<path fill="url(#SVGID_7_)" d="M1277.736,86.046c-1.218-0.429-2.556-2.227-4.285-2.515c-1.352-0.225,0.768,6.617,0.988,7.66
	c0.423,2.009,0.21,10.134,0.542,8.107c0.449-2.747,6.019-2.667,6.019-2.667V85.518C1281,85.518,1278.507,86.318,1277.736,86.046z"/>
<linearGradient id="SVGID_8_" gradientUnits="userSpaceOnUse" x1="436.493" y1="1024.0055" x2="436.493" y2="1079.8289" gradientTransform="matrix(1 0 0 -1 719 1172.1189)">
	<stop  offset="0" style="stop-color:#6C1628"/>
	<stop  offset="0.2567" style="stop-color:#711830"/>
	<stop  offset="0.5192" style="stop-color:#7B1C3D"/>
	<stop  offset="0.6455" style="stop-color:#7F1F39"/>
	<stop  offset="1" style="stop-color:#882431"/>
</linearGradient>
<path fill="url(#SVGID_8_)" d="M1151.01,96.745c0,0,3.604-1.407,4.625-2.176c0.577-0.435,1.221-1.94,1.904-2.176
	c1.569-0.543,4.868,1.24,6.529,1.224c1.007-0.009,3.945-0.816,3.945-0.816l0.952-0.408l-2.584,10.201l4.761,10.745l-2.176,15.098
	c0,0-0.203,1.147-0.438,1.442c-1.338,1.68-6.805,2.224-7.452,4.271c-0.362,1.146,1.907,3.158,2.04,4.353
	c0.124,1.107-0.445,3.361-0.952,4.353c-0.395,0.772-3.151,5.38-4.009,5.255c-2.123-0.307,1.306-5.476-0.359-6.828
	c-2.036-1.653-9.334-5.202-11.818-6.044c-1.586-0.538-5.884-1.063-6.121-2.72c-0.328-2.293,5.627-4.176,7.073-5.985
	c1.149-1.438,0.805-4.297,1.14-6.107c0.38-2.053,1.308-8.72,1.308-8.72l1.632-3.673l-5.985-8.705L1151.01,96.745z"/>
<linearGradient id="SVGID_9_" gradientUnits="userSpaceOnUse" x1="424.2514" y1="1051.4567" x2="424.2514" y2="1076.0278" gradientTransform="matrix(1 0 0 -1 719 1172.1189)">
	<stop  offset="0.2462" style="stop-color:#630D33"/>
	<stop  offset="0.4944" style="stop-color:#6C1335"/>
	<stop  offset="1" style="stop-color:#7B1C37"/>
</linearGradient>
<path fill="url(#SVGID_9_)" d="M1133.779,96.971c0,0,7.429,6.176,10.061,8.651c1.888,1.776,2.178,3.475,3.553,5.671
	c0.935,1.494,0.051,10.72,0.945,9.201c0.772-1.313,2.693-7.55,2.704-8.807c0.016-1.792,2.312-1.088,1.513-2.692
	c-0.953-1.913-3.179-5.591-3.936-7.59c-0.41-1.084-0.332-2.065,0.054-2.582c0.708-0.948,3.94-2.627,3.94-2.627
	s-7.765-0.17-10.352-0.077C1139.768,96.209,1133.779,96.971,1133.779,96.971z"/>
<linearGradient id="SVGID_10_" gradientUnits="userSpaceOnUse" x1="449.9939" y1="1041.7897" x2="449.9939" y2="1083.9259" gradientTransform="matrix(1 0 0 -1 719 1172.1189)">
	<stop  offset="0.2462" style="stop-color:#691037"/>
	<stop  offset="0.5802" style="stop-color:#78193B"/>
	<stop  offset="1" style="stop-color:#87223E"/>
</linearGradient>
<path fill="url(#SVGID_10_)" d="M1169.454,92.025c-0.712,1.119-2.305,4.233-2.844,5.445c-0.832,1.87-1.475,4.737-1.173,6.761
	c0.21,1.407,3.365,5.655,3.785,7.648c0.931,4.406,0.835,10.33-1.194,18.118c-0.595,2.282,4.169-7.848,4.485-10.319
	c0.562-4.394-1.148-14.107-1.128-18.537c0.016-3.446,1.128-12.948,1.128-12.948S1170.218,90.824,1169.454,92.025z"/>
</svg>
