<?xml version="1.0" encoding="UTF-8" standalone="no"?>
<svg
   xmlns:dc="http://purl.org/dc/elements/1.1/"
   xmlns:cc="http://creativecommons.org/ns#"
   xmlns:rdf="http://www.w3.org/1999/02/22-rdf-syntax-ns#"
   xmlns:svg="http://www.w3.org/2000/svg"
   xmlns="http://www.w3.org/2000/svg"
   xml:space="preserve"
   enable-background="new 0 0 1280 57.443"
   viewBox="0 0 1282.001 58.999999"
   height="59"
   width="1282.001"
   y="0px"
   x="0px"
   id="Layer_1"
   version="1.1"><metadata
   id="metadata552"><rdf:RDF><cc:Work
       rdf:about=""><dc:format>image/svg+xml</dc:format><dc:type
         rdf:resource="http://purl.org/dc/dcmitype/StillImage" /></cc:Work></rdf:RDF></metadata><defs
   id="defs550" />
<g
   transform="translate(1,1)"
   id="g545">
	<g
   id="g532">
		<linearGradient
   y2="-1"
   x2="640"
   y1="58"
   x1="640"
   gradientUnits="userSpaceOnUse"
   id="SVGID_1_">
			<stop
   id="stop2"
   style="stop-color:#2E2231"
   offset="0" />
			<stop
   id="stop4"
   style="stop-color:#302331"
   offset="0.0206" />
			<stop
   id="stop6"
   style="stop-color:#3E272E"
   offset="0.1464" />
			<stop
   id="stop8"
   style="stop-color:#47292A"
   offset="0.2667" />
			<stop
   id="stop10"
   style="stop-color:#4D2A27"
   offset="0.3782" />
			<stop
   id="stop12"
   style="stop-color:#4F2A26"
   offset="0.4723" />
		</linearGradient>
		<rect
   style="fill:url(#SVGID_1_)"
   id="rect15"
   height="59"
   width="1282"
   y="-1"
   x="-1" />
		<path
   style="opacity:0.5;fill:#49392c"
   id="path17"
   d="m 684.86,19.793 c -5.712,2.621 -15.532,8.567 -16.426,11.833 -1.134,4.143 10.767,11.966 12.32,16.094 0.795,2.112 -6.132,8.318 0,8.52 9.02,0.297 5.639,-9.202 6.844,-12.307 1.187,-3.058 1.726,-9.241 2.738,-12.307 1.294,-3.924 16.883,-13.736 6.844,-15.62 -3.622,-0.68 -9.839,2.649 -12.32,3.787 z" />
		<path
   style="opacity:0.5;fill:#49392c"
   id="path19"
   d="m 704.231,20.242 c -4.086,4.574 9.714,14.503 11.123,19.602 0.891,3.225 5.565,17.583 5.565,17.583 h 24.016 c 0,0 1.299,-13.156 2.198,-17.583 1.424,-7.013 15.47,-23.397 6.356,-28.003 -9.721,-4.912 -43.3,1.731 -49.258,8.401 z" />
		<path
   style="opacity:0.5;fill:#49392c"
   id="path21"
   d="m 1031.047,21.017 c -20.402,2.415 2.924,12.851 6.003,17.397 3.135,4.629 -5.7,17.953 18.416,18.701 11.439,0.355 12.815,-5.91 14.671,-8.095 4.5,-5.298 11.61,-16.581 0,-21.469 -5.366,-2.259 -28.051,-7.84 -39.09,-6.534 z" />
		<path
   style="opacity:0.5;fill:#49392c"
   id="path23"
   d="m 859.53,24.522 c -12.464,0.03 -11.474,15.944 -12.585,21.469 -0.609,3.031 2.03,11.409 2.03,11.409 l 10.71,0.028 c 0,0 5.402,-20.496 4.624,-25.095 -0.342,-2.018 -0.231,-7.822 -4.779,-7.811 z" />
		<path
   style="opacity:0.5;fill:#49392c"
   id="path25"
   d="m 1082.51,25.068 c -4.659,0.687 -0.578,6.062 -0.106,8.071 1.133,4.821 -2.594,18.695 9.275,18.999 3.617,0.093 3.929,-4.149 4.585,-5.601 1.57,-3.475 4.264,-10.776 1.46,-14.119 -1.907,-2.274 -9.665,-8.168 -15.214,-7.35 z" />
		<path
   style="opacity:0.5;fill:#49392c"
   id="path27"
   d="m 1240.862,30.211 c -2.176,2.615 -3.483,9.68 -3.745,13.068 -0.145,1.876 -0.9,7.035 0.936,7.467 2.464,0.58 4.663,-6.063 5.617,-8.401 1.437,-3.518 5.85,-12.647 2.809,-14.935 -1.253,-0.942 -4.614,1.597 -5.617,2.801 z" />
		<path
   style="opacity:0.5;fill:#49392c"
   id="path29"
   d="m 361.532,20.839 c -9.207,1.465 -10.516,11.238 -11.534,15.185 -1.306,5.065 -0.884,14.247 4.543,20.285 3.019,3.359 4.57,-10.566 6.991,-14.002 3.206,-4.547 20.351,-13.296 16.313,-17.735 -1.607,-1.767 -11.948,-4.427 -16.313,-3.733 z" />
		<path
   style="opacity:0.5;fill:#49392c"
   id="path31"
   d="m 496.3,23.003 c 1.348,2.544 -4.207,7.923 -6.7,9.374 -3.862,2.247 -15.081,-1.681 -17.788,1.867 -0.862,1.13 1.008,4.183 0.936,5.601 -0.135,2.657 -0.165,9.904 -2.809,10.268 -2.704,0.372 -4.192,-7.014 -5.617,-9.334 -1.153,-1.877 -2.487,-7.218 -4.681,-7.467 -1.315,-0.149 -3.238,2.514 -3.745,3.734 -0.985,2.372 0.231,7.711 0,10.268 -0.235,2.598 -1.883,10.132 -1.883,10.132 h -21.529 c 0,0 0.895,-9.097 0.007,-11.998 -1.694,-5.537 -15.491,-14 -12.965,-19.212 3.151,-6.501 21.647,-1.901 28.881,-2.257 11.96,-0.591 42.299,-11.533 47.893,-0.976 z" />
		<path
   style="opacity:0.5;fill:#49392c"
   id="path33"
   d="m 281.508,15.734 c 0.639,5.293 -16.717,3.95 -19.66,8.401 -1.16,1.753 1.792,7.297 0,8.401 -2.671,1.646 -8.097,-5.471 -11.235,-5.601 -2.519,-0.104 -7.704,1.84 -9.362,3.734 -2.538,2.899 -3.003,11.158 -3.745,14.935 -0.318,1.619 0.674,6.151 -0.936,6.534 -2.779,0.662 -5.242,-6.804 -6.553,-9.334 -1.597,-3.082 -1.718,-11.25 -4.681,-13.068 -3.214,-1.972 -12.482,-0.954 -14.979,1.867 -1.239,1.4 0.253,5.618 0,7.467 -0.591,4.32 -0.329,16.382 -4.681,16.802 -2.605,0.251 -4.042,-6.804 -4.681,-9.334 -1.943,-7.698 -6.345,-25.912 -0.936,-31.737 10.029,-10.8 44.245,-3.665 58.981,-2.8 5.684,0.333 21.787,-1.904 22.468,3.733 z" />
		<path
   style="opacity:0.5;fill:#49392c"
   id="path35"
   d="M 48.77,20.028 C 51.365,24.357 36.443,31.607 34.216,36.022 31.968,40.479 38.273,53.391 31.347,54.691 27.418,55.428 22.633,48.807 21.307,46.29 19.445,42.758 17.722,34.847 16.761,31.166 15.488,26.291 6.014,16.26 11.266,12.686 18.034,8.081 45.212,14.092 48.77,20.028 Z" />
		<linearGradient
   y2="46.650002"
   x2="577.46753"
   y1="46.650002"
   x1="565.89563"
   gradientUnits="userSpaceOnUse"
   id="SVGID_2_">
			<stop
   id="stop37"
   style="stop-color:#0B142A"
   offset="0.2229" />
			<stop
   id="stop39"
   style="stop-color:#0A1429"
   offset="0.2403" />
			<stop
   id="stop41"
   style="stop-color:#00000F"
   offset="1" />
		</linearGradient>
		<polygon
   style="fill:url(#SVGID_2_)"
   id="polygon44"
   points="577.468,43.51 574.907,48.199 569.901,51.094 566.389,48.508 565.896,46.073 568.974,47.499 575.092,42.206 " />
		<g
   id="g71">
			
			<linearGradient
   y2="43.608898"
   x2="345.23831"
   y1="43.608898"
   x1="322.30481"
   gradientUnits="userSpaceOnUse"
   id="SVGID_3_">
				<stop
   id="stop46"
   style="stop-color:#7A4230"
   offset="0" />
				<stop
   id="stop48"
   style="stop-color:#794330"
   offset="0.3975" />
				<stop
   id="stop50"
   style="stop-color:#794630"
   offset="0.5992" />
				<stop
   id="stop52"
   style="stop-color:#784A30"
   offset="0.7569" />
				<stop
   id="stop54"
   style="stop-color:#764F30"
   offset="0.8909" />
				<stop
   id="stop56"
   style="stop-color:#745530"
   offset="1" />
			</linearGradient>
			<polygon
   style="opacity:0.5;fill:url(#SVGID_3_)"
   id="polygon59"
   points="337.508,50.566 340.592,47.618 344.089,42.819 345.238,36.652 343.746,36.652 342.992,37.198 334.323,42.476 326.539,45.493 322.305,45.914 326.054,47.016 328.019,49.164 328.627,49.279 " />
			<polygon
   style="fill:#875c5b"
   id="polygon61"
   points="346.26,42.375 346.341,42.827 345.238,36.652 " />
			<polygon
   style="opacity:0.5;fill:#b05b3a"
   id="polygon63"
   points="343.746,36.652 337.741,36.652 322.305,45.914 326.539,45.493 334.323,42.476 342.992,37.198 " />
			<polygon
   style="fill:#341f12"
   id="polygon65"
   points="340.592,47.618 337.508,50.566 338.536,51.206 338.843,51.206 340.387,51.206 346.341,42.827 346.26,42.375 344.089,42.819 " />
			<polygon
   style="opacity:0.5;fill:#d46f4c"
   id="polygon67"
   points="344.089,42.819 346.26,42.375 345.238,36.652 " />
			<polygon
   style="opacity:0.5;fill:#512e17"
   id="polygon69"
   points="328.047,49.195 328.019,49.164 326.054,47.016 322.305,45.914 324.208,48.029 327.43,49.88 338.536,51.206 337.508,50.566 328.627,49.279 " />
		</g>
		<g
   id="g94">
			<linearGradient
   y2="39.904999"
   x2="574.99188"
   y1="39.904999"
   x1="563.69812"
   gradientUnits="userSpaceOnUse"
   id="SVGID_4_">
				<stop
   id="stop73"
   style="stop-color:#7A4230"
   offset="0" />
				<stop
   id="stop75"
   style="stop-color:#794330"
   offset="0.3975" />
				<stop
   id="stop77"
   style="stop-color:#794630"
   offset="0.5992" />
				<stop
   id="stop79"
   style="stop-color:#784A30"
   offset="0.7569" />
				<stop
   id="stop81"
   style="stop-color:#764F30"
   offset="0.8909" />
				<stop
   id="stop83"
   style="stop-color:#745530"
   offset="1" />
			</linearGradient>
			<polygon
   style="opacity:0.5;fill:url(#SVGID_4_)"
   id="polygon86"
   points="574.992,41.199 573.858,42.032 573.92,40.127 573.313,36.734 571.885,35.591 571.16,34.687 571.16,34.687 568.868,33.468 569.672,33.896 568.956,34.674 566.134,36.199 565.456,38.77 564.634,40.377 564.416,40.965 563.698,35.881 565.077,45.646 567.813,45.735 568.242,46.342 569.206,45.449 " />
			<polygon
   style="opacity:0.5;fill:#512e17"
   id="polygon88"
   points="569.206,45.449 568.242,46.342 567.813,45.735 565.077,45.646 568.983,47.599 575.647,41.74 575.023,39.298 574.992,41.199 " />
			<polygon
   style="opacity:0.5;fill:#b05b3a"
   id="polygon90"
   points="566.134,36.199 568.956,34.674 569.672,33.896 568.868,33.468 563.698,35.881 564.416,40.965 564.634,40.377 565.456,38.77 " />
			<polygon
   style="opacity:0.5;fill:#d46f4c"
   id="polygon92"
   points="573.92,40.127 573.858,42.032 574.992,41.199 575.023,39.298 574.206,36.056 571.16,34.687 571.16,34.687 571.885,35.591 573.313,36.734 " />
		</g>
		<g
   id="g121">
			
			<linearGradient
   y2="45.160198"
   x2="897.12793"
   y1="45.160198"
   x1="874.19452"
   gradientUnits="userSpaceOnUse"
   id="SVGID_5_">
				<stop
   id="stop96"
   style="stop-color:#7A4230"
   offset="0" />
				<stop
   id="stop98"
   style="stop-color:#794330"
   offset="0.3975" />
				<stop
   id="stop100"
   style="stop-color:#794630"
   offset="0.5992" />
				<stop
   id="stop102"
   style="stop-color:#784A30"
   offset="0.7569" />
				<stop
   id="stop104"
   style="stop-color:#764F30"
   offset="0.8909" />
				<stop
   id="stop106"
   style="stop-color:#745530"
   offset="1" />
			</linearGradient>
			<polygon
   style="opacity:0.5;fill:url(#SVGID_5_)"
   id="polygon109"
   points="889.397,52.117 892.482,49.169 895.978,44.371 897.128,38.204 895.635,38.204 894.881,38.749 886.213,44.028 878.429,47.044 874.194,47.465 877.943,48.568 879.909,50.715 880.516,50.83 " />
			<polygon
   style="fill:#875c5b"
   id="polygon111"
   points="898.15,43.926 898.231,44.378 897.128,38.204 " />
			<polygon
   style="opacity:0.5;fill:#b05b3a"
   id="polygon113"
   points="895.635,38.204 889.63,38.204 874.194,47.465 878.429,47.044 886.213,44.028 894.881,38.749 " />
			<polygon
   style="opacity:0.5;fill:#351a12"
   id="polygon115"
   points="892.482,49.169 889.397,52.117 890.425,52.757 890.733,52.757 892.277,52.757 898.231,44.378 898.15,43.926 895.978,44.371 " />
			<polygon
   style="opacity:0.5;fill:#d46f4c"
   id="polygon117"
   points="895.978,44.371 898.15,43.926 897.128,38.204 " />
			<polygon
   style="opacity:0.5;fill:#512e17"
   id="polygon119"
   points="879.937,50.746 879.909,50.715 877.943,48.568 874.194,47.465 876.098,49.58 879.32,51.431 890.425,52.757 889.397,52.117 880.516,50.83 " />
		</g>
		<g
   id="g142">
			<linearGradient
   y2="41.282101"
   x2="1175.8344"
   y1="41.282101"
   x1="1167.0295"
   gradientUnits="userSpaceOnUse"
   id="SVGID_6_">
				<stop
   id="stop123"
   style="stop-color:#7A4230"
   offset="0" />
				<stop
   id="stop125"
   style="stop-color:#794330"
   offset="0.3975" />
				<stop
   id="stop127"
   style="stop-color:#794630"
   offset="0.5992" />
				<stop
   id="stop129"
   style="stop-color:#784A30"
   offset="0.7569" />
				<stop
   id="stop131"
   style="stop-color:#764F30"
   offset="0.8909" />
				<stop
   id="stop133"
   style="stop-color:#745530"
   offset="1" />
			</linearGradient>
			<polygon
   style="opacity:0.5;fill:url(#SVGID_6_)"
   id="polygon136"
   points="1175.447,36.906 1169.845,34.505 1167.03,36.382 1167.819,35.856 1168.719,36.906 1168.719,40.073 1169.143,42.728 1168.512,44.455 1168.906,46.6 1171.2,48.059 1170.105,47.362 1171.639,46.18 1175.834,40.498 " />
			<polygon
   style="fill:#391212"
   id="polygon138"
   points="1175.447,36.906 1175.834,40.498 1171.639,46.18 1170.105,47.362 1171.2,48.059 1178.603,39.093 1177.873,37.946 1175.447,36.906 " />
			<polygon
   style="opacity:0.5;fill:#b05b3a"
   id="polygon140"
   points="1167.819,35.856 1167.03,36.382 1168.512,44.455 1168.512,44.455 1169.143,42.728 1168.719,40.073 1168.719,36.906 " />
		</g>
		<g
   id="g167">
			<polygon
   style="fill:#875c5b"
   id="polygon144"
   points="386.144,47.115 386.176,46.743 386.176,44.252 386.144,46.291 " />
			<linearGradient
   y2="47.2696"
   x2="386.14429"
   y1="47.2696"
   x1="377.4487"
   gradientUnits="userSpaceOnUse"
   id="SVGID_7_">
				<stop
   id="stop146"
   style="stop-color:#7A4230"
   offset="0" />
				<stop
   id="stop148"
   style="stop-color:#794330"
   offset="0.3975" />
				<stop
   id="stop150"
   style="stop-color:#794630"
   offset="0.5992" />
				<stop
   id="stop152"
   style="stop-color:#784A30"
   offset="0.7569" />
				<stop
   id="stop154"
   style="stop-color:#764F30"
   offset="0.8909" />
				<stop
   id="stop156"
   style="stop-color:#745530"
   offset="1" />
			</linearGradient>
			<polygon
   style="opacity:0.5;fill:url(#SVGID_7_)"
   id="polygon159"
   points="385.379,46.124 383.281,44.139 383.196,42.624 379.257,45.644 379.028,46.59 378.504,48.015 377.449,47.796 380.418,51.915 383.281,49.027 384.802,47.228 386.144,46.291 " />
			<polygon
   style="opacity:0.5;fill:#512e17"
   id="polygon161"
   points="380.418,51.915 383.483,52.969 385.686,52.49 386.144,47.115 386.144,47.115 386.144,46.291 384.802,47.228 383.281,49.027 " />
			<polygon
   style="opacity:0.5;fill:#d46f4c"
   id="polygon163"
   points="379.257,45.644 377.449,47.03 377.449,47.796 378.504,48.015 379.028,46.59 379.257,45.644 " />
			<polygon
   style="opacity:0.5;fill:#b05b3a"
   id="polygon165"
   points="386.176,44.252 383.916,42.398 383.196,42.624 383.281,44.139 385.379,46.124 386.144,46.291 " />
		</g>
		<g
   id="g190">
			
				<linearGradient
   gradientTransform="matrix(0.6647,0.7471,-0.7471,0.6647,775.1729,-1043.9935)"
   y2="1116.6522"
   x2="467.35699"
   y1="1116.6522"
   x1="457.92361"
   gradientUnits="userSpaceOnUse"
   id="SVGID_8_">
				<stop
   id="stop169"
   style="stop-color:#7A4230"
   offset="0" />
				<stop
   id="stop171"
   style="stop-color:#794330"
   offset="0.3975" />
				<stop
   id="stop173"
   style="stop-color:#794630"
   offset="0.5992" />
				<stop
   id="stop175"
   style="stop-color:#784A30"
   offset="0.7569" />
				<stop
   id="stop177"
   style="stop-color:#764F30"
   offset="0.8909" />
				<stop
   id="stop179"
   style="stop-color:#745530"
   offset="1" />
			</linearGradient>
			<polygon
   style="opacity:0.5;fill:url(#SVGID_8_)"
   id="polygon182"
   points="250.804,48.154 249.655,47.909 250.878,46.891 252.658,44.628 252.578,43.102 252.74,42.147 252.74,42.147 252.228,40.041 252.408,40.78 251.524,40.765 249.007,39.851 247.025,40.855 245.566,41.235 245.078,41.425 247.852,38.154 242.524,44.437 243.988,46.193 243.847,46.798 244.939,46.904 " />
			<polygon
   style="opacity:0.5;fill:#512e17"
   id="polygon184"
   points="244.939,46.904 243.847,46.798 243.988,46.193 242.524,44.437 243.474,47.959 250.83,48.863 252.008,47.118 250.804,48.154 " />
			<polygon
   style="opacity:0.5;fill:#b05b3a"
   id="polygon186"
   points="249.007,39.851 251.524,40.765 252.408,40.78 252.228,40.041 247.852,38.154 245.078,41.425 245.566,41.235 247.025,40.855 " />
			<polygon
   style="opacity:0.5;fill:#d46f4c"
   id="polygon188"
   points="250.878,46.891 249.655,47.909 250.804,48.154 252.008,47.118 253.577,44.808 252.74,42.147 252.74,42.147 252.578,43.102 252.658,44.628 " />
		</g>
		<g
   id="g215">
			<polygon
   style="opacity:0.5;fill:#d46f4c"
   id="polygon192"
   points="1165.074,44.699 1161.653,39.055 1153.197,41.804 1154.312,41.809 1159.319,40.528 1162.825,41.994 " />
			<polygon
   style="opacity:0.5;fill:#512e17"
   id="polygon194"
   points="1163.629,50.184 1155.872,48.098 1155.142,48.53 1164.504,53.384 1167.313,48.393 1166.284,49.723 1165.467,48.554 " />
			<polygon
   style="fill:#391212"
   id="polygon196"
   points="1153.197,41.804 1155.142,48.53 1155.872,48.098 1155.57,43.729 1154.312,41.809 " />
			<polygon
   style="opacity:0.5;fill:#28130e"
   id="polygon198"
   points="1166.284,49.723 1167.313,48.393 1165.074,44.699 1164.509,46.495 1165.467,48.554 " />
			<linearGradient
   y2="45.355598"
   x2="1165.4668"
   y1="45.355598"
   x1="1154.3124"
   gradientUnits="userSpaceOnUse"
   id="SVGID_9_">
				<stop
   id="stop200"
   style="stop-color:#7A4230"
   offset="0" />
				<stop
   id="stop202"
   style="stop-color:#794330"
   offset="0.3975" />
				<stop
   id="stop204"
   style="stop-color:#794630"
   offset="0.5992" />
				<stop
   id="stop206"
   style="stop-color:#784A30"
   offset="0.7569" />
				<stop
   id="stop208"
   style="stop-color:#764F30"
   offset="0.8909" />
				<stop
   id="stop210"
   style="stop-color:#745530"
   offset="1" />
			</linearGradient>
			<polygon
   style="opacity:0.5;fill:url(#SVGID_9_)"
   id="polygon213"
   points="1155.57,43.729 1155.872,48.098 1163.629,50.184 1165.467,48.554 1164.509,46.495 1165.074,44.699 1165.074,44.699 1162.825,41.994 1159.319,40.528 1154.312,41.809 " />
		</g>
		<linearGradient
   y2="50.035599"
   x2="388.18539"
   y1="50.035599"
   x1="381.37939"
   gradientUnits="userSpaceOnUse"
   id="SVGID_10_">
			<stop
   id="stop217"
   style="stop-color:#0B142A"
   offset="0.2229" />
			<stop
   id="stop219"
   style="stop-color:#0A1429"
   offset="0.2403" />
			<stop
   id="stop221"
   style="stop-color:#00000F"
   offset="1" />
		</linearGradient>
		<polygon
   style="fill:url(#SVGID_10_)"
   id="polygon224"
   points="387.699,54.328 388.185,46.914 386.452,45.744 386.176,46.743 385.636,52.449 383.341,52.959 381.379,52.322 383.628,54.267 " />
		<linearGradient
   y2="46.705299"
   x2="348.0737"
   y1="46.705299"
   x1="327.88791"
   gradientUnits="userSpaceOnUse"
   id="SVGID_11_">
			<stop
   id="stop226"
   style="stop-color:#0B142A"
   offset="0.2229" />
			<stop
   id="stop228"
   style="stop-color:#0A1429"
   offset="0.2403" />
			<stop
   id="stop230"
   style="stop-color:#00000F"
   offset="1" />
		</linearGradient>
		<polygon
   style="fill:url(#SVGID_11_)"
   id="polygon233"
   points="343.379,52.894 348.074,45.425 346.865,40.517 346.082,40.73 346.305,42.694 340.318,51.231 327.888,49.943 339.68,52.68 " />
		<linearGradient
   y2="46.9468"
   x2="254.9137"
   y1="46.9468"
   x1="244.23849"
   gradientUnits="userSpaceOnUse"
   id="SVGID_12_">
			<stop
   id="stop235"
   style="stop-color:#0B142A"
   offset="0.2229" />
			<stop
   id="stop237"
   style="stop-color:#0A1429"
   offset="0.2403" />
			<stop
   id="stop239"
   style="stop-color:#00000F"
   offset="1" />
		</linearGradient>
		<polygon
   style="fill:url(#SVGID_12_)"
   id="polygon242"
   points="254.914,46.24 253.02,42.979 253.605,44.816 250.852,48.911 244.239,48.072 251.485,50.915 " />
		<linearGradient
   y2="50.173"
   x2="900.51477"
   y1="50.173"
   x1="881.52039"
   gradientUnits="userSpaceOnUse"
   id="SVGID_13_">
			<stop
   id="stop244"
   style="stop-color:#0B142A"
   offset="0.2229" />
			<stop
   id="stop246"
   style="stop-color:#0A1429"
   offset="0.2403" />
			<stop
   id="stop248"
   style="stop-color:#00000F"
   offset="1" />
		</linearGradient>
		<polygon
   style="fill:url(#SVGID_13_)"
   id="polygon251"
   points="897.88,55.227 900.515,44.698 897.76,44.986 892.251,52.798 881.52,51.77 889.991,55.648 " />
		<linearGradient
   y2="50.199001"
   x2="1172.7631"
   y1="50.199001"
   x1="1160.9091"
   gradientUnits="userSpaceOnUse"
   id="SVGID_14_">
			<stop
   id="stop253"
   style="stop-color:#0B142A"
   offset="0.2229" />
			<stop
   id="stop255"
   style="stop-color:#0A1429"
   offset="0.2403" />
			<stop
   id="stop257"
   style="stop-color:#00000F"
   offset="1" />
		</linearGradient>
		<polygon
   style="fill:url(#SVGID_14_)"
   id="polygon260"
   points="1172.763,50.949 1170.137,48.323 1165.561,45.547 1167.313,48.393 1164.905,52.868 1160.909,51.699 1165.936,54.851 " />
		<linearGradient
   y2="44.194698"
   x2="1179.8962"
   y1="44.194698"
   x1="1170.36"
   gradientUnits="userSpaceOnUse"
   id="SVGID_15_">
			<stop
   id="stop262"
   style="stop-color:#0B142A"
   offset="0.2229" />
			<stop
   id="stop264"
   style="stop-color:#0A1429"
   offset="0.2403" />
			<stop
   id="stop266"
   style="stop-color:#00000F"
   offset="1" />
		</linearGradient>
		<polygon
   style="fill:url(#SVGID_15_)"
   id="polygon269"
   points="1172.098,48.672 1170.36,47.593 1171.079,47.833 1178.104,39.717 1179.896,41.459 " />
		<g
   id="g273">
			<path
   style="fill:#0f1129"
   id="path271"
   d="m 1281,31.875 c -11.305,2.502 -17.987,15.909 -31.586,8.883 -12.552,-6.485 -42.185,-9.501 -41.404,-5.736 0.561,2.705 -5.387,10.806 -5.966,9.467 -3.096,-7.172 -25.789,-13.981 -38.817,-13.981 -12.316,0 -26.736,13.553 -37.821,9.858 0,-7.39 -2.463,-13.548 -9.853,-16.011 3.695,9.853 -1.232,18.474 -8.621,23.401 -8.621,-24.632 -16.011,-13.548 -33.253,-8.621 -14.779,3.695 -39.387,1.438 -54.166,2.67 -14.779,1.232 -47.507,12.15 -38.255,1.353 1.751,-2.043 -7.536,-13.348 -12.463,-12.117 -3.695,1.232 -6.03,9.67 -9.725,10.902 -7.39,2.463 -11.085,6.158 -19.706,3.695 0,-2.463 -8.13,-13.527 -8.13,-17.222 -3.695,1.232 -2.885,14.414 -6.579,15.645 -3.695,-22.169 -54.191,-2.463 -71.433,-2.463 -8.621,0 -17.242,-1.232 -25.864,0 -7.39,1.232 -8.701,9.041 -13.388,5.834 -6.099,-4.173 -22.329,-4.602 -28.487,-4.602 -4.926,0 -12.316,6.158 -18.474,6.158 0,-2.463 -1.232,-4.926 -2.463,-6.158 0.156,8.689 -7.389,9.733 -7.87,7.025 -1.126,-6.345 -18.716,-12.929 -24.152,-15.646 -12.316,-6.158 -47.171,2.294 -59.711,7.568 -15.542,6.538 -39.189,11.411 -31.542,1.666 3.123,-3.98 -4.813,-8.003 -14.666,-9.235 -7.39,-1.232 1.088,19.984 -8.961,8.349 -4.784,-5.54 -10.594,-9.66 -21.678,-8.429 0,1.232 -3.086,10.731 -4.317,10.731 -3.695,-1.232 -21.839,-19.984 -25.533,-21.216 -4.248,28.886 -48.863,28.248 -36.538,18.421 6.712,-5.351 -25.291,-8.112 -37.201,-2.819 -25.137,11.172 -27.731,-6.113 -55.037,-10.25 -9.234,-1.399 -8.882,10.39 -12.381,10.228 -30.221,-1.399 -72.043,-7.415 -97.907,-6.183 -14.779,0 -29.286,6.094 -44.065,7.325 -16.011,2.463 -32.022,0 -48.033,-1.232 -33.253,0 -50.561,7.036 -85.046,2.11 -14.779,-2.463 -16.637,-7.534 -20.176,-1.602 -9.653,16.179 -20.878,9.422 -51.193,-7.897 -2.463,2.463 4.614,13.944 3.382,16.407 C 78.226,44.456 62.528,34.207 60.065,31.744 71.149,53.913 40.359,41.597 31.738,39.134 18.189,35.44 12.548,30.627 -1,31.859 V -1 h 1282 z" />
		</g>
		<g
   id="g530">
			<g
   id="g288">
				
					<linearGradient
   gradientTransform="translate(0,-1962.0653)"
   y2="1961.0653"
   x2="640"
   y1="2009.8339"
   x1="640"
   gradientUnits="userSpaceOnUse"
   id="SVGID_16_">
					<stop
   id="stop275"
   style="stop-color:#BA2F19"
   offset="0.2444" />
					<stop
   id="stop277"
   style="stop-color:#D95C21"
   offset="0.6411" />
					<stop
   id="stop279"
   style="stop-color:#EA7125"
   offset="0.8624" />
					<stop
   id="stop281"
   style="stop-color:#F18222"
   offset="0.9569" />
					<stop
   id="stop283"
   style="stop-color:#F68B20"
   offset="1" />
				</linearGradient>
				<path
   style="fill:url(#SVGID_16_)"
   id="path286"
   d="m 1281,27.938 c -12.171,-1.106 -17.895,16.128 -31.494,9.102 -12.552,-6.485 -42.185,-9.501 -41.404,-5.736 0.561,2.705 -5.387,10.806 -5.966,9.467 -3.096,-7.172 -25.789,-13.981 -38.817,-13.981 -12.316,0 -26.736,13.553 -37.821,9.858 0,-7.39 -2.463,-13.548 -9.853,-16.011 3.695,9.853 -1.232,18.474 -8.621,23.401 -8.621,-24.632 -16.011,-13.548 -33.253,-8.621 -14.779,3.695 -39.387,1.438 -54.166,2.67 -14.779,1.232 -47.507,12.15 -38.255,1.353 1.751,-2.043 -7.536,-13.348 -12.463,-12.117 -3.695,1.232 -6.03,9.67 -9.725,10.902 -7.39,2.463 -11.084,6.158 -19.706,3.695 0,-2.463 -8.13,-13.527 -8.13,-17.222 -3.695,1.232 -2.885,14.414 -6.579,15.645 -3.695,-22.169 -54.191,-2.463 -71.433,-2.463 -8.621,0 -17.242,-1.232 -25.864,0 -7.39,1.232 -9.139,10.133 -13.827,6.926 -6.099,-4.173 -21.89,-5.694 -28.048,-5.694 -4.926,0 -12.316,6.158 -18.474,6.158 0,-2.463 -1.232,-4.926 -2.463,-6.158 0.156,8.689 -6.443,10.132 -6.924,7.425 -1.126,-6.345 -19.662,-13.328 -25.098,-16.046 -12.316,-6.158 -47.171,2.294 -59.711,7.568 -15.542,6.538 -38.936,13.542 -31.288,3.797 3.123,-3.98 -5.067,-10.134 -14.92,-11.365 -7.39,-1.232 1.088,19.984 -8.961,8.349 -4.784,-5.54 -10.594,-9.66 -21.678,-8.429 0,1.232 -3.086,10.731 -4.317,10.731 C 588.046,39.91 569.902,21.158 566.208,19.926 561.96,48.812 519.157,50.478 531.481,40.651 538.192,35.3 504.378,30.235 492.469,35.528 467.332,46.7 464.738,29.415 437.432,25.278 c -9.234,-1.399 -8.882,10.39 -12.381,10.228 -30.221,-1.399 -72.043,-7.415 -97.907,-6.183 -14.779,0 -29.286,6.094 -44.065,7.325 -16.011,2.463 -32.022,0 -48.033,-1.232 -33.253,0 -50.561,7.036 -85.046,2.11 -14.779,-2.463 -16.73,-8.519 -20.268,-2.587 -9.653,16.179 -20.785,10.407 -51.1,-6.912 -2.463,2.463 4.614,13.944 3.382,16.407 C 78.319,40.739 62.621,30.49 60.158,28.027 71.242,50.196 40.452,37.88 31.831,35.417 24.234,33.345 24.149,29.864 -0.999,27.942 V -1 h 1282 v 28.938 z" />
			</g>
			
				<linearGradient
   gradientTransform="translate(0,-1907.8116)"
   y2="1908.4034"
   x2="613.65143"
   y1="1949.116"
   x1="613.65143"
   gradientUnits="userSpaceOnUse"
   id="SVGID_17_">
				<stop
   id="stop290"
   style="stop-color:#EF3E23"
   offset="0.2444" />
				<stop
   id="stop292"
   style="stop-color:#EF4C23"
   offset="0.3226" />
				<stop
   id="stop294"
   style="stop-color:#EF5F24"
   offset="0.4718" />
				<stop
   id="stop296"
   style="stop-color:#EE6124"
   offset="0.59" />
				<stop
   id="stop298"
   style="stop-color:#EC6A24"
   offset="0.6967" />
				<stop
   id="stop300"
   style="stop-color:#E97725"
   offset="0.7989" />
				<stop
   id="stop302"
   style="stop-color:#E58725"
   offset="0.8978" />
				<stop
   id="stop304"
   style="stop-color:#E38C26"
   offset="0.9227" />
			</linearGradient>
			<path
   style="fill:url(#SVGID_17_)"
   id="path307"
   d="m 432.888,18.259 c 3.663,0.71 14.813,-4.509 32.316,-0.846 8.139,1.703 4.394,22.316 11.518,15.969 8.599,-7.661 28.645,-5.565 35.831,-5.136 25.58,1.526 23.075,8.18 23.701,12.35 0.819,5.459 25.859,-22.449 31.826,-23.107 9.191,-1.014 16.545,15.732 22.174,13.308 3.638,-1.566 20.84,-7.468 26.237,-8.465 2.596,-0.48 9.138,0.152 12.163,0.057 4.65,-0.145 14.06,-0.611 18.244,-1.243 7.274,-1.098 17.449,-5.317 24.793,-6.372 5.265,-0.756 15.177,-2.092 20.434,-1.331 3.316,0.48 7.413,2.777 8.187,4.132 3.68,6.447 -6.235,9.161 -3.939,10.309 1.536,0.768 28.266,-4.33 31.071,-5.684 2.955,-1.427 10.486,-2.95 15.671,-3.556 5.278,-0.617 20.819,3.443 32.427,0.926 10.27,-2.226 20.197,4.78 23.315,0.383 C 801.513,16.208 794.265,0.75 794.265,0.75 L 432.839,0.592 c 0,0 -11.238,15.479 0.049,17.667 z" />
			
				<linearGradient
   gradientTransform="translate(0,-1907.8116)"
   y2="1909.995"
   x2="340.28519"
   y1="1935.9038"
   x1="340.28519"
   gradientUnits="userSpaceOnUse"
   id="SVGID_18_">
				<stop
   id="stop309"
   style="stop-color:#EF3E23"
   offset="0.2444" />
				<stop
   id="stop311"
   style="stop-color:#EF4C23"
   offset="0.3226" />
				<stop
   id="stop313"
   style="stop-color:#EF5F24"
   offset="0.4718" />
				<stop
   id="stop315"
   style="stop-color:#EE6124"
   offset="0.5643" />
				<stop
   id="stop317"
   style="stop-color:#EC6A24"
   offset="0.6477" />
				<stop
   id="stop319"
   style="stop-color:#EA7125"
   offset="0.6939" />
				<stop
   id="stop321"
   style="stop-color:#EC8124"
   offset="0.8226" />
			</linearGradient>
			<path
   style="fill:url(#SVGID_18_)"
   id="path324"
   d="m 418.283,6.201 c 2.934,0.757 4.303,3.72 2.075,6.415 -4.395,5.313 -27.382,12.513 -36.276,14.913 -8.969,2.42 -32.446,-3.823 -41.981,-2.436 -7.092,1.031 -20.018,1.091 -26.841,2.662 -7.165,1.65 -31.494,-10.645 -39.065,-3.822 -3.648,3.287 -8.843,4.762 -16.165,-10.465 -7.722,-16.057 35.412,-0.041 41.978,0.087 9.503,0.185 13.882,-5.267 18.263,-6.816 10.887,-3.852 70.239,-7.705 98.012,-0.538 z" />
			
				<linearGradient
   gradientTransform="translate(0,-1907.8116)"
   y2="1899.9539"
   x2="291.77969"
   y1="1944.7206"
   x1="317.62579"
   gradientUnits="userSpaceOnUse"
   id="SVGID_19_">
				<stop
   id="stop326"
   style="stop-color:#EF3E23"
   offset="0" />
				<stop
   id="stop328"
   style="stop-color:#F05523"
   offset="0.2142" />
				<stop
   id="stop330"
   style="stop-color:#F26E22"
   offset="0.5664" />
				<stop
   id="stop332"
   style="stop-color:#F37722"
   offset="0.7645" />
			</linearGradient>
			<path
   style="fill:url(#SVGID_19_)"
   id="path335"
   d="m 305.756,19.281 c 15.226,-9.338 21.502,4.48 34.8,3.518 3.433,-0.248 13.882,-6.959 12.505,-10.864 -5.527,-15.675 -52.696,-7.423 -68.986,-4.121 -3.979,0.806 -27.925,0.095 -27.773,6.451 0.275,11.511 15.41,15.768 19.056,18.214 4.933,3.309 12.832,-2.426 30.398,-13.198 z" />
			
				<linearGradient
   gradientTransform="matrix(1,0,0,-1,0,482.8801)"
   y2="474.2182"
   x2="534.78278"
   y1="452.42068"
   x1="522.19812"
   gradientUnits="userSpaceOnUse"
   id="SVGID_20_">
				<stop
   id="stop337"
   style="stop-color:#F05023"
   offset="0.2233" />
				<stop
   id="stop339"
   style="stop-color:#F26D22"
   offset="0.7168" />
				<stop
   id="stop341"
   style="stop-color:#F37722"
   offset="1" />
			</linearGradient>
			<path
   style="fill:url(#SVGID_20_)"
   id="path344"
   d="m 548.741,21.272 c 4.414,-0.126 -3.963,8.723 -8.878,8.721 -5.398,-0.002 -12.08,-4.036 -17.135,-5.196 -4.797,-1.101 -7.227,-0.066 -11.859,-1.406 -5.412,-1.566 -5.121,-3.664 -4.971,-4.836 0.238,-1.856 5.65,-2.537 8.162,-3.148 9.799,-2.384 30.7,-3.137 33.205,0.771 1.303,2.033 -6.987,3.241 -5.309,4.836 2.259,2.147 4.231,0.331 6.785,0.258 z" />
			
				<linearGradient
   gradientTransform="matrix(1,0,0,-1,0,482.8801)"
   y2="480.8942"
   x2="579.14697"
   y1="455.2532"
   x1="593.95068"
   gradientUnits="userSpaceOnUse"
   id="SVGID_21_">
				<stop
   id="stop346"
   style="stop-color:#EF4A23"
   offset="0.0719" />
				<stop
   id="stop348"
   style="stop-color:#EF4C23"
   offset="0.0784" />
				<stop
   id="stop350"
   style="stop-color:#EF5F24"
   offset="0.2282" />
				<stop
   id="stop352"
   style="stop-color:#EA7425"
   offset="0.714" />
				<stop
   id="stop354"
   style="stop-color:#E87B25"
   offset="1" />
			</linearGradient>
			<path
   style="fill:url(#SVGID_21_)"
   id="path357"
   d="m 599.93,7.746 c -1.589,-5.51 -22.195,-3.261 -27.574,-1.276 -2.168,0.8 -6.302,2.303 -5.723,4.167 0.561,1.803 6.5,3.064 8.809,4.233 2.277,1.152 13.135,6.624 16.025,6.995 3.247,0.417 26.062,1.818 6.201,-7.05 -6.674,-2.98 3.189,-3.854 2.262,-7.069 z" />
			<g
   id="g376">
				
					<linearGradient
   gradientTransform="translate(0,-1907.8116)"
   y2="1911.0792"
   x2="148.5157"
   y1="1945.7614"
   x1="148.5157"
   gradientUnits="userSpaceOnUse"
   id="SVGID_22_">
					<stop
   id="stop359"
   style="stop-color:#BA2F19"
   offset="0" />
					<stop
   id="stop361"
   style="stop-color:#DD4F21"
   offset="0.3028" />
					<stop
   id="stop363"
   style="stop-color:#EF5F24"
   offset="0.4718" />
					<stop
   id="stop365"
   style="stop-color:#EF6224"
   offset="0.5802" />
					<stop
   id="stop367"
   style="stop-color:#EE6A24"
   offset="0.6779" />
					<stop
   id="stop369"
   style="stop-color:#ED7824"
   offset="0.7713" />
					<stop
   id="stop371"
   style="stop-color:#EC8124"
   offset="0.8226" />
				</linearGradient>
				<path
   style="fill:url(#SVGID_22_)"
   id="path374"
   d="m 111.521,9.606 c -8.565,2.866 -3.125,18.011 9.862,26.668 6.184,4.329 3.203,-0.518 11.665,-5.599 10.603,-6.367 39.499,2.645 48.157,-5.395 3.71,-3.71 17.564,-20.815 -1.057,-21.767 -17.471,-0.893 -52.037,0.541 -68.627,6.093 z" />
			</g>
			<g
   id="g393">
				
					<linearGradient
   gradientTransform="translate(0,-1907.8116)"
   y2="1910.2767"
   x2="983.63867"
   y1="1947.9905"
   x1="983.63867"
   gradientUnits="userSpaceOnUse"
   id="SVGID_23_">
					<stop
   id="stop378"
   style="stop-color:#EF3E23"
   offset="0.2444" />
					<stop
   id="stop380"
   style="stop-color:#EF4C23"
   offset="0.3226" />
					<stop
   id="stop382"
   style="stop-color:#EF5F24"
   offset="0.4718" />
					<stop
   id="stop384"
   style="stop-color:#EE6124"
   offset="0.59" />
					<stop
   id="stop386"
   style="stop-color:#EC6A24"
   offset="0.6965" />
					<stop
   id="stop388"
   style="stop-color:#EA7125"
   offset="0.7515" />
				</linearGradient>
				<path
   style="fill:url(#SVGID_23_)"
   id="path391"
   d="m 961.209,19.102 c 7.484,5.131 22.595,6.305 31.252,7.542 9.276,1.237 4.156,19.162 10.34,11.741 3.71,-3.71 29.905,-11.345 31.156,-15.878 1.01,-3.662 6.427,-13.34 2.867,-15.051 -8.488,-4.08 -100.18,-12.436 -107.51,9.676 -1.547,4.668 28.14,-0.604 31.895,1.97 z" />
			</g>
			<g
   id="g406">
				
					<linearGradient
   gradientTransform="translate(0,-1907.8116)"
   y2="1908.766"
   x2="1201.4882"
   y1="1935.6212"
   x1="1201.4882"
   gradientUnits="userSpaceOnUse"
   id="SVGID_24_">
					<stop
   id="stop395"
   style="stop-color:#EF3E23"
   offset="0" />
					<stop
   id="stop397"
   style="stop-color:#F05523"
   offset="0.2142" />
					<stop
   id="stop399"
   style="stop-color:#F26E22"
   offset="0.5664" />
					<stop
   id="stop401"
   style="stop-color:#F37722"
   offset="0.7645" />
				</linearGradient>
				<path
   style="fill:url(#SVGID_24_)"
   id="path404"
   d="m 1277.468,6.739 c 10.822,5.591 -20.287,19.175 -31.403,19.765 -17.666,0.938 -14.673,-0.283 -27.554,1.294 -4.794,0.587 9.564,-20.943 4.617,-21.561 -4.329,-0.618 -9.931,15.906 -14.259,17.761 -14.223,6.184 -30.884,0.172 -46.963,0.172 -10.513,0 -50.63,-14.545 -35.13,-17.432 18.275,-3.404 129.19,-11.109 150.692,10e-4 z" />
			</g>
			<g
   id="g423">
				
					<linearGradient
   gradientTransform="translate(0,-1907.8116)"
   y2="1912.161"
   x2="51.484501"
   y1="1939.5419"
   x1="51.484501"
   gradientUnits="userSpaceOnUse"
   id="SVGID_25_">
					<stop
   id="stop408"
   style="stop-color:#BA2F19"
   offset="0" />
					<stop
   id="stop410"
   style="stop-color:#BD341A"
   offset="0.0352" />
					<stop
   id="stop412"
   style="stop-color:#D3531E"
   offset="0.2758" />
					<stop
   id="stop414"
   style="stop-color:#E26820"
   offset="0.5175" />
					<stop
   id="stop416"
   style="stop-color:#ED7522"
   offset="0.7589" />
					<stop
   id="stop418"
   style="stop-color:#F27A22"
   offset="1" />
				</linearGradient>
				<path
   style="fill:url(#SVGID_25_)"
   id="path421"
   d="m 100.08,10.972 c 8.569,32.765 -14.748,6.56 -20.837,6.56 -5.751,0 -3.153,18.326 -6.478,13.338 C 69.104,25.378 -2.104,22.406 1.124,11.424 2.396,7.096 37.418,11.103 56.719,8.545 69.258,6.884 96.881,-1.264 100.08,10.972 Z" />
			</g>
			<g
   id="g434">
				
					<linearGradient
   gradientTransform="translate(0,-1907.8116)"
   y2="1913.517"
   x2="147.3356"
   y1="1936.2377"
   x1="147.3356"
   gradientUnits="userSpaceOnUse"
   id="SVGID_26_">
					<stop
   id="stop425"
   style="stop-color:#F05823"
   offset="0.2546" />
					<stop
   id="stop427"
   style="stop-color:#F26E22"
   offset="0.5665" />
					<stop
   id="stop429"
   style="stop-color:#F37722"
   offset="0.7645" />
				</linearGradient>
				<path
   style="fill:url(#SVGID_26_)"
   id="path432"
   d="m 137.414,11.103 c -11.724,5.06 -22.663,-2.03 -22.325,3.721 1.015,11.163 23.313,15.913 30.755,12.531 7.78,-4.059 15.222,-6.765 20.973,-13.531 4.059,-4.736 17.484,-6.513 11.057,-7.867 -5.411,-1.014 -31.083,1.099 -40.46,5.146 z" />
			</g>
			<g
   id="g447">
				
					<linearGradient
   gradientTransform="translate(0,-1907.8116)"
   y2="1913.8949"
   x2="1255.2762"
   y1="1936.1583"
   x1="1242.4225"
   gradientUnits="userSpaceOnUse"
   id="SVGID_27_">
					<stop
   id="stop436"
   style="stop-color:#EF3E23"
   offset="0" />
					<stop
   id="stop438"
   style="stop-color:#F05523"
   offset="0.2142" />
					<stop
   id="stop440"
   style="stop-color:#F26E22"
   offset="0.5664" />
					<stop
   id="stop442"
   style="stop-color:#F37722"
   offset="0.7645" />
				</linearGradient>
				<path
   style="fill:url(#SVGID_27_)"
   id="path445"
   d="m 1236.411,9.729 c -3.583,4.751 -2.683,19.122 2.651,14.322 3.951,-3.556 31.743,-5.78 27.692,-10.699 -4.786,-5.81 -25.811,-9.633 -30.343,-3.623 z" />
			</g>
			<g
   id="g460">
				
					<linearGradient
   gradientTransform="matrix(0.9688,-0.2477,0.2477,0.9688,-476.2227,-1247.6377)"
   y2="1612.0099"
   x2="1157.5983"
   y1="1612.0099"
   x1="1216.126"
   gradientUnits="userSpaceOnUse"
   id="SVGID_28_">
					<stop
   id="stop449"
   style="stop-color:#BA2F19"
   offset="0" />
					<stop
   id="stop451"
   style="stop-color:#CD4A1D"
   offset="0.2313" />
					<stop
   id="stop453"
   style="stop-color:#E66A20"
   offset="0.5725" />
					<stop
   id="stop455"
   style="stop-color:#F37722"
   offset="0.7645" />
				</linearGradient>
				<path
   style="fill:url(#SVGID_28_)"
   id="path458"
   d="m 1057.387,8.683 c -5.967,-2.66 -21.051,6.43 -12.813,12.703 6.013,4.398 17.086,4.011 24.235,6.024 8.299,2.417 13.322,-1.255 21.279,-1.544 7.545,-0.533 23.979,9.844 9.207,-4.854 -10.202,-10.151 -25.56,2.478 -36.962,-8.007 -1.209,-1.111 -3.447,-3.653 -4.946,-4.322 z" />
			</g>
			
				<linearGradient
   gradientTransform="matrix(1,0,0,-1,0,482.8801)"
   y2="483.483"
   x2="1196.8752"
   y1="457.81219"
   x1="1182.0542"
   gradientUnits="userSpaceOnUse"
   id="SVGID_29_">
				<stop
   id="stop462"
   style="stop-color:#EF3E23"
   offset="0" />
				<stop
   id="stop464"
   style="stop-color:#F05523"
   offset="0.2142" />
				<stop
   id="stop466"
   style="stop-color:#F26E22"
   offset="0.5664" />
				<stop
   id="stop468"
   style="stop-color:#F37722"
   offset="0.7645" />
			</linearGradient>
			<path
   style="fill:url(#SVGID_29_)"
   id="path471"
   d="m 1179.064,21.176 c 2.725,1.428 22.466,17.219 23,14.19 1.876,-10.631 5.751,-14.127 7.059,-18.817 0.537,-1.926 2.199,-9.242 -3.142,-11.877 -8.225,-4.058 -33.75,-0.381 -38.747,1.731 -4.358,1.842 7.639,12.577 11.83,14.773 z" />
			
				<linearGradient
   gradientTransform="matrix(1,0,0,-1,0,482.8801)"
   y2="473.14749"
   x2="999.9787"
   y1="451.50909"
   x1="999.9787"
   gradientUnits="userSpaceOnUse"
   id="SVGID_30_">
				<stop
   id="stop473"
   style="stop-color:#F05623"
   offset="0.2283" />
				<stop
   id="stop475"
   style="stop-color:#F26E22"
   offset="0.5665" />
				<stop
   id="stop477"
   style="stop-color:#F37722"
   offset="0.7645" />
			</linearGradient>
			<path
   style="fill:url(#SVGID_30_)"
   id="path480"
   d="m 987.706,16.93 c -0.205,4.376 13.669,6.179 17.946,13.816 2.17,3.875 7.423,-11.359 6.492,-15.702 -0.964,-4.497 -11.623,-5.733 -16.19,-5.193 -3.107,0.368 -8.102,3.954 -8.248,7.079 z" />
			
				<linearGradient
   gradientTransform="matrix(1,0,0,-1,0,482.8801)"
   y2="480.10861"
   x2="381.00381"
   y1="456.83859"
   x1="367.56891"
   gradientUnits="userSpaceOnUse"
   id="SVGID_31_">
				<stop
   id="stop482"
   style="stop-color:#EF3E23"
   offset="0" />
				<stop
   id="stop484"
   style="stop-color:#F05523"
   offset="0.2142" />
				<stop
   id="stop486"
   style="stop-color:#F26E22"
   offset="0.5664" />
				<stop
   id="stop488"
   style="stop-color:#F37722"
   offset="0.7645" />
			</linearGradient>
			<path
   style="fill:url(#SVGID_31_)"
   id="path491"
   d="m 381.977,4.155 c 8.707,2.622 16.158,10.177 16.985,14.648 0.385,2.081 -9.86,-3.559 -10.983,-4.077 -12.814,-5.908 -25.045,22.132 -21.55,4.909 0.622,-3.064 -16.664,-15.079 -12.231,-17.307 0.477,-0.24 19,-0.817 27.779,1.827 z" />
			
				<linearGradient
   gradientTransform="matrix(1,0,0,-1,0,482.8801)"
   y2="462.22821"
   x2="758.9032"
   y1="462.22821"
   x1="919.35217"
   gradientUnits="userSpaceOnUse"
   id="SVGID_32_">
				<stop
   id="stop493"
   style="stop-color:#EF3E23"
   offset="0" />
				<stop
   id="stop495"
   style="stop-color:#F05523"
   offset="0.2142" />
				<stop
   id="stop497"
   style="stop-color:#F26E22"
   offset="0.5664" />
				<stop
   id="stop499"
   style="stop-color:#F37722"
   offset="0.7645" />
			</linearGradient>
			<path
   style="fill:url(#SVGID_32_)"
   id="path502"
   d="m 918.936,24.833 c -2.934,-0.847 -36.057,5.666 -41.227,6.068 -2.492,0.194 -7.862,0.257 -10.292,0 -4.794,-0.507 -12.515,-2.682 -15.905,-3.827 -6.002,-2.027 -12.107,-7.533 -19.18,-9.213 -2.328,-0.553 -8.287,-1.234 -11.227,-1.134 -5.03,0.171 -13.825,2.069 -17.309,3.182 -7.998,2.555 -12.62,10.326 -21.987,12.41 -3.359,0.747 -11.378,2.303 -15.322,1.895 -2.171,-0.224 -6.839,2.857 -7.365,2.18 -2.28,-2.932 13.941,-11.655 15.989,-14.602 2.807,-4.04 -8.498,-3.213 -0.786,-8.609 3.978,-2.783 19.033,-8.096 29.004,-8.363 8.239,-0.221 20.816,4.094 27.6,5.528 8.096,1.711 22.778,5.881 31.81,7.087 4.801,0.641 9.399,-9.489 17.398,-11.127 22.971,-4.701 42.323,19.542 38.799,18.525 z" />
			<g
   id="g515">
				
					<linearGradient
   gradientTransform="matrix(1,0,0,-1,0,482.8801)"
   y2="477.13611"
   x2="205.76401"
   y1="440.84052"
   x1="226.7193"
   gradientUnits="userSpaceOnUse"
   id="SVGID_33_">
					<stop
   id="stop504"
   style="stop-color:#BA2F19"
   offset="0" />
					<stop
   id="stop506"
   style="stop-color:#CD4A1D"
   offset="0.2313" />
					<stop
   id="stop508"
   style="stop-color:#E66A20"
   offset="0.5725" />
					<stop
   id="stop510"
   style="stop-color:#F37722"
   offset="0.7645" />
				</linearGradient>
				<path
   style="fill:url(#SVGID_33_)"
   id="path513"
   d="m 222.34,29.8 c -6.6,-2.062 -24.588,8.075 -24.307,1.816 0.147,-3.276 10.513,-1.855 9.276,-9.276 -0.618,-4.947 -39.822,8.011 -26.676,-1.808 10.878,-8.124 54.65,-26.036 62.071,-16.142 6.802,8.039 0.597,7.927 0.288,27.789 C 242.94,35.46 225.47,30.778 222.34,29.8 Z" />
			</g>
			<g
   id="g528">
				
					<linearGradient
   gradientTransform="translate(0,-1907.8116)"
   y2="1913.848"
   x2="912.47888"
   y1="1935.6771"
   x1="912.47888"
   gradientUnits="userSpaceOnUse"
   id="SVGID_34_">
					<stop
   id="stop517"
   style="stop-color:#EF3E23"
   offset="0" />
					<stop
   id="stop519"
   style="stop-color:#EF4B23"
   offset="0.2652" />
					<stop
   id="stop521"
   style="stop-color:#F16822"
   offset="0.7439" />
					<stop
   id="stop523"
   style="stop-color:#F37722"
   offset="1" />
				</linearGradient>
				<path
   style="fill:url(#SVGID_34_)"
   id="path526"
   d="m 897.248,9.454 c -5.994,5.489 32.852,27.672 24.953,14.062 -1.663,-2.866 8.346,-11.904 5.687,-13.923 -5.774,-4.385 -25.293,-5.036 -30.64,-0.139 z" />
			</g>
		</g>
	</g>
	<g
   id="g543">
		
			<linearGradient
   gradientTransform="translate(0,-1907.8116)"
   y2="1911.0039"
   x2="657.98029"
   y1="1947.4133"
   x1="657.98029"
   gradientUnits="userSpaceOnUse"
   id="SVGID_35_">
			<stop
   id="stop534"
   style="stop-color:#EF3E23"
   offset="0.2444" />
			<stop
   id="stop536"
   style="stop-color:#F16B23"
   offset="0.6786" />
			<stop
   id="stop538"
   style="stop-color:#F27A22"
   offset="0.9092" />
		</linearGradient>
		<path
   style="fill:url(#SVGID_35_)"
   id="path541"
   d="m 689.564,11.807 c 3.213,12.287 -8.472,18.854 -9.317,16.386 -1.826,-5.337 -4.481,-12.36 -8.287,-12.36 -5.751,0 -16.232,28.639 -18.383,23.044 -3.649,-9.487 -30.7,-16.295 -27.472,-27.276 1.272,-4.328 9.459,-4.715 13.86,-5.701 12.342,-2.766 46.399,-6.329 49.599,5.907 z" />
	</g>
</g>
</svg>