<?xml version="1.0" encoding="utf-8"?>
<!-- Generator: Adobe Illustrator 17.0.0, SVG Export Plug-In . SVG Version: 6.00 Build 0)  -->
<!DOCTYPE svg PUBLIC "-//W3C//DTD SVG 1.1//EN" "http://www.w3.org/Graphics/SVG/1.1/DTD/svg11.dtd">
<svg version="1.1" id="Layer_1" xmlns="http://www.w3.org/2000/svg" xmlns:xlink="http://www.w3.org/1999/xlink" x="0px" y="0px"
	 width="1280.041px" height="1850.674px" viewBox="0 0 1280.041 1850.674" enable-background="new 0 0 1280.041 1850.674"
	 xml:space="preserve">
<path opacity="0.02" fill="#CFDEF2" d="M210.432,598.678c35.488,5.281,109.389,0,145.852,0c20.395,0,61.23,0.863,81.578,0
	c23.022-0.976,68.396-7.526,91.466-7.792c31.665-0.365,94.443,6.817,126.075,7.792c40.123,1.237,120.513,0,160.684,0
	c58.094,0,174.371,2.043,232.374,0c39.506-1.392,164.512-62.809,203.629-66.561c21.857-2.096,28.909-1.032,28.909-1.032v-50.589
	c0,0-19.927-2.857-85.692,0.516c-43.25,2.218-293.99,80.836-337.195,83.379c-58.569,3.448-176.528-1.637-235.294,0
	c-31.499,0.878-94.486,3.901-125.627,7.013c-31.317,3.129-91.902,7.738-123.487,9.497c-37.097,2.067-112.475-1.146-148.898,3.75
	c-8.009,1.076-133.678,11.211-133.652,16.374C91.168,603.639,206.397,598.077,210.432,598.678z"/>
<path opacity="0.02" fill="#CFDEF2" d="M424.204,528.866c-24.528-1.609-93.002-7.977-117.56-8.971
	c-20.265-0.82-111.057-2.59-132.775-6.082C127.936,506.428-1,479.038-1,479.038v51.964c0,0,65.023,8.763,77.442,14.875
	c20.93,10.301,56.995,13.622,80.075,14.637c23.933,1.052,92.166,10.413,141.371,2.065c38.715-6.569,102.939,3.245,128.566-3.056
	c13.175-3.239,55.594-14.112,54.139-28.287C480.189,527.295,427.959,529.112,424.204,528.866z"/>
<path opacity="0.01" fill="#CFDEF2" d="M1099.245-1c0,0-56.27,19.551-74.267,27.596C996.941,39.13,932.75,58.877,917.055,85.275
	c-4.979,8.375,4.999,30.61,0,38.974c-12.675,21.205-64.006,37.85-87.034,46.793c-43.96,17.072-136.724,36.571-182.886,46.22
	c-30.63,6.402-92.351,17.278-123.476,20.505C194.277,271.925,21.849,173.121-1,164.962v63.966
	c12.401,21.68,207.498,57.746,290.33,79.219c33.384,8.654,231.252,30.009,265.661,32.33c64.137,4.327,189.864-40.012,254.141-39.101
	c31.849,0.451,93.531,21.07,125.33,22.936c26.066,1.529,83.553-5.338,104.441,0c20.888,5.338,114.497-24.731,156.252-42.793
	c11.154-4.825,44.075-34.717,62.253-49.864c9.621-8.017,23.591-3.02,23.591-3.02V-1H1099.245z"/>
<path opacity="0.02" fill="#CFDEF2" d="M1096.312,261.219c-35.488,8.377-109.389,0-145.852,0c-20.395,0-61.23,1.369-81.578,0
	c-23.022-1.549-68.396-11.938-91.466-12.36c-31.665-0.579-94.443,10.813-126.075,12.36c-40.123,1.962-120.513,0-160.684,0
	c-58.094,0-174.371,3.241-232.374,0c-39.506-2.207-118.166-11.68-157.284-17.631C79.141,240.263-1,225.815-1,225.815V-1h130.61
	c0,0,236.977,148.849,296.439,159.342c57.928,10.223,199.109,45.894,257.875,48.491c31.499,1.392,94.486,6.188,125.627,11.124
	c31.317,4.964,91.902,12.274,123.487,15.065c37.097,3.278,112.475-1.817,148.898,5.948c8.01,1.708,133.678,17.783,133.652,25.972
	C1215.576,269.088,1100.346,260.266,1096.312,261.219z"/>
<path opacity="0.02" fill="#CFDEF2" d="M861.535,154.184c24.528-2.553,93.002-12.653,117.56-14.229
	c20.265-1.301,210.206,1.232,232.208,5.501C1269.768,156.8,1281,165.001,1281,165.001v60.858c0,0-84.388-19.956-106.64-19.084
	c-26.533,1.04-31.664,0.913-54.745,2.523c-23.933,1.669-82.56,11.604-131.765-1.638c-38.715-10.42-102.939,5.148-128.566-4.847
	c-13.175-5.138-55.594-22.385-54.139-44.869C805.55,151.693,857.78,154.575,861.535,154.184z"/>
</svg>
