<?xml version="1.0" encoding="utf-8"?>
<!-- Generator: Adobe Illustrator 17.0.0, SVG Export Plug-In . SVG Version: 6.00 Build 0)  -->
<!DOCTYPE svg PUBLIC "-//W3C//DTD SVG 1.1//EN" "http://www.w3.org/Graphics/SVG/1.1/DTD/svg11.dtd">
<svg version="1.1" id="Layer_1" xmlns="http://www.w3.org/2000/svg" xmlns:xlink="http://www.w3.org/1999/xlink" x="0px" y="0px"
	 width="1280px" height="772.563px" viewBox="0 0 1280 772.563" enable-background="new 0 0 1280 772.563" xml:space="preserve">
<g>
	<linearGradient id="SVGID_1_" gradientUnits="userSpaceOnUse" x1="640" y1="773" x2="640" y2="1.577700e-08">
		<stop  offset="0" style="stop-color:#A93B23"/>
		<stop  offset="0.2504" style="stop-color:#A2332D"/>
		<stop  offset="0.7167" style="stop-color:#96233C"/>
		<stop  offset="1" style="stop-color:#AB302D"/>
	</linearGradient>
	<path opacity="0.8" fill="url(#SVGID_1_)" d="M-1,121.447c0,0,17.548-13.255,24.217-17.89c7.399-5.143,21.377-18.369,30.318-19.49
		c5.096-0.639,19.49,6.497,19.49,6.497s10.851-2.554,14.076-4.331c8.744-4.817,22.144-20.255,30.318-25.987
		c5.856-4.106,18.314-11.297,24.904-14.076c18.706-7.89,58.636-16.515,77.96-22.738c4.645-1.496,13.743-5.062,18.407-6.497
		c10.167-3.126,31.595-6.145,41.146-10.828c2.229-1.093,5.425-5.666,7.878-6.043c6.149-0.947,17.197,9.134,23.386,8.504
		c2.69-0.274,6.532-6.028,9.213-5.669c3.851,0.515,8.923,7.848,10.63,11.339c1.497,3.061,2.126,13.465,2.126,13.465l-3.543,17.008
		c0,0,6.83-2.476,9.213-2.835c5.431-0.817,16.676,1.466,21.969,0c1.991-0.552,5.036-4.504,7.087-4.252
		c1.989,0.245,5.702,3.665,5.669,5.669c-0.063,3.885-9.131,7.432-11.339,10.63c-1.85,2.681-4.749,8.797-4.961,12.047
		c-0.179,2.745,2.835,10.63,2.835,10.63s3.246-4.891,4.961-5.669c1.613-0.732,5.834-1.253,7.087,0c1.253,1.253,0,7.087,0,7.087
		s10.299-1.146,13.465,0c3.903,1.413,9.236,8.429,12.756,10.63c9.841,6.153,31.009,16.526,42.338,19.052
		c16.273,3.628,50.175-1.286,66.682,1.058c41.819,5.938,120.89,47.741,163,44.455c14.17-1.106,40.95-14.181,51.864-23.286
		c7.891-6.582,22.149-23.658,23.286-33.87c0.631-5.665-11.757-16.514-8.468-21.169c3.82-5.407,19.882,0.314,26.461,1.058
		c8.56,0.969,25.262,6.004,33.87,6.351c10.103,0.407,30.321-6.29,40.221-4.234c27.379,5.687,72.214,42.841,97.377,55.039
		c11.32,5.487,34.192,21.286,46.571,19.052c9.214-1.663,19.11-21.286,27.519-25.403c24.575-12.032,76.169-7.125,76.169-7.125
		s15.532-44.26,14.857-56.381c-0.243-4.357,10.534,0.378,13.471-2.849c3.21-3.528,29.063,3.311,29.063,3.311
		s12.695-8.563,14.716-12.876c1.753-3.743,24.93-9.892,29.063-9.933c6.777-0.068,20.307-2.38,26.12,1.104
		c6.915,4.143,37.998,66.258,45.534,69.12c22.163,8.419,23.02,10.312,23.02,10.312V773H-1V121.447z"/>
	<linearGradient id="SVGID_2_" gradientUnits="userSpaceOnUse" x1="230.9848" y1="42.59" x2="230.9848" y2="4.5689">
		<stop  offset="0" style="stop-color:#A93B23"/>
		<stop  offset="0.2504" style="stop-color:#A2332D"/>
		<stop  offset="0.7167" style="stop-color:#96233C"/>
		<stop  offset="1" style="stop-color:#AB302D"/>
	</linearGradient>
	<path opacity="0.8" fill="url(#SVGID_2_)" d="M151.483,42.59c0,0,31.789,0.011,41.688-1.647
		c10.057-1.684,30.269-4.708,40.122-7.334c14.371-3.83,56.084-19.845,56.084-19.845l21.109-5.197c0,0-6.935-2.273-7.897-2.925
		c-1.518-1.028-2.473-1.226-4.289-0.975c-7.881,1.089-9.354,3.491-17.12,5.214c-5.868,1.302-17.744,3.31-23.728,3.883
		c-3.759,0.36-11.451-0.544-15.1,0.431c-4.615,1.234-13.146,5.408-17.559,7.24c-6.555,2.721-20.837,5.613-27.589,7.799
		C185.912,32.89,151.483,42.59,151.483,42.59z"/>
	<linearGradient id="SVGID_3_" gradientUnits="userSpaceOnUse" x1="247.9052" y1="102.7803" x2="247.9052" y2="31.8663">
		<stop  offset="0" style="stop-color:#A93B23"/>
		<stop  offset="0.2504" style="stop-color:#A2332D"/>
		<stop  offset="0.7167" style="stop-color:#96233C"/>
		<stop  offset="1" style="stop-color:#AB302D"/>
	</linearGradient>
	<path opacity="0.8" fill="url(#SVGID_3_)" d="M326.796,38.94c-8.176,2.653-24.634,7.633-32.788,10.354
		c-15.726,5.247-47.155,15.865-62.555,22.002c-10.315,4.111-30.292,13.876-40.553,18.12c-6.719,2.778-29.276,3.392-27.179,10.354
		c2.837,9.42,28.904-6.041,38.396-8.628c12.571-3.427,37.373-11.496,49.613-15.962c16.312-5.953,47.78-20.907,64.281-26.316
		c3.803-1.247,14.558-5.492,14.558-5.492l1.657-11.504C332.227,31.866,327.77,38.624,326.796,38.94z"/>
	<linearGradient id="SVGID_4_" gradientUnits="userSpaceOnUse" x1="362.7182" y1="72.4215" x2="362.7182" y2="39.6129">
		<stop  offset="0" style="stop-color:#A93B23"/>
		<stop  offset="0.2504" style="stop-color:#A2332D"/>
		<stop  offset="0.7167" style="stop-color:#96233C"/>
		<stop  offset="1" style="stop-color:#AB302D"/>
	</linearGradient>
	<path opacity="0.8" fill="url(#SVGID_4_)" d="M364.444,39.649c2.081-0.477,6.007,3.905,6.04,6.04
		c0.038,2.518-5.39,5.321-6.903,7.334c-1.656,2.203-4.676,6.898-5.608,9.491c-0.702,1.952,0.673,9.907,0.673,9.907
		s-3.697-7.813-3.693-9.907c0.006-3.088,0.442-9.859,2.589-12.08c0.618-0.639,2.795-0.263,3.451-0.863
		C362.931,47.8,361.884,40.236,364.444,39.649z"/>
	<linearGradient id="SVGID_5_" gradientUnits="userSpaceOnUse" x1="350.6125" y1="67.7505" x2="350.6125" y2="44.443">
		<stop  offset="0" style="stop-color:#A93B23"/>
		<stop  offset="0.2504" style="stop-color:#A2332D"/>
		<stop  offset="0.7167" style="stop-color:#96233C"/>
		<stop  offset="1" style="stop-color:#AB302D"/>
	</linearGradient>
	<path opacity="0.8" fill="url(#SVGID_5_)" d="M347.187,50.434c0.873-0.956,5.864-6.81,6.779-5.895
		c1.297,1.296-1.407,11.406-1.602,13.229c-0.271,2.524,0.133,8.826-2.157,9.923c-0.653,0.312-2.208-0.679-2.589-1.294
		c-0.794-1.284,0-4.53,0-6.04c0-1.294,0.059-3.884,0-5.177C347.565,53.99,346.384,51.314,347.187,50.434z"/>
	<linearGradient id="SVGID_6_" gradientUnits="userSpaceOnUse" x1="98.7565" y1="105.2746" x2="98.7565" y2="52.2619">
		<stop  offset="0" style="stop-color:#A93B23"/>
		<stop  offset="0.2504" style="stop-color:#A2332D"/>
		<stop  offset="0.7167" style="stop-color:#96233C"/>
		<stop  offset="1" style="stop-color:#AB302D"/>
	</linearGradient>
	<path opacity="0.8" fill="url(#SVGID_6_)" d="M68.196,99.008c2.664,2.075,10.463,7.34,11.633,6.072
		c3.881-4.205,19.274-15.942,22.517-20.281c3.022-4.044,7.852-13.052,11.315-16.726c3.189-3.384,14.815-11.542,16.765-15.637
		c0.531-1.116-5.742,3.475-6.926,3.83c-4.857,1.456-11.977,9.394-15.742,12.791c-4.004,3.611-14.549,11.282-18.082,15.355
		c-1.612,1.858-4.369,2.345-6.629,3.315c-1.935,0.83-7.55,1.913-9.651,2.047c-3.036,0.194-4.009-1.472-6.218-2.151
		C66.692,87.474,67.796,98.696,68.196,99.008z"/>
</g>
<linearGradient id="SVGID_7_" gradientUnits="userSpaceOnUse" x1="1137.6628" y1="95.6817" x2="1137.6628" y2="63.7047">
	<stop  offset="0" style="stop-color:#A93B23"/>
	<stop  offset="0.2504" style="stop-color:#A2332D"/>
	<stop  offset="0.7167" style="stop-color:#96233C"/>
	<stop  offset="1" style="stop-color:#AB302D"/>
</linearGradient>
<polygon opacity="0.8" fill="url(#SVGID_7_)" points="1142.547,63.705 1141.439,70.784 1140.898,82.692 1140.356,95.682 
	1136.568,84.586 1136.568,74.302 1132.779,66.725 1134.403,64.83 1137.921,66.725 1139.815,65.101 "/>
<linearGradient id="SVGID_8_" gradientUnits="userSpaceOnUse" x1="1096.1093" y1="106.236" x2="1096.1093" y2="69.7017">
	<stop  offset="0" style="stop-color:#A93B23"/>
	<stop  offset="0.2504" style="stop-color:#A2332D"/>
	<stop  offset="0.7167" style="stop-color:#96233C"/>
	<stop  offset="1" style="stop-color:#AB302D"/>
</linearGradient>
<polygon opacity="0.8" fill="url(#SVGID_8_)" points="1099.763,69.702 1100.845,79.985 1096.786,89.999 1091.373,106.236 
	1092.997,95.411 1097.327,79.715 "/>
</svg>
