<?xml version="1.0" encoding="utf-8"?>
<!-- Generator: Adobe Illustrator 17.0.0, SVG Export Plug-In . SVG Version: 6.00 Build 0)  -->
<!DOCTYPE svg PUBLIC "-//W3C//DTD SVG 1.1//EN" "http://www.w3.org/Graphics/SVG/1.1/DTD/svg11.dtd">
<svg version="1.1" id="Layer_1" xmlns="http://www.w3.org/2000/svg" xmlns:xlink="http://www.w3.org/1999/xlink" x="0px" y="0px"
	 width="50px" height="50px" viewBox="0 0 50 50" enable-background="new 0 0 50 50" xml:space="preserve">
<linearGradient id="SVGID_1_" gradientUnits="userSpaceOnUse" x1="25.0012" y1="50" x2="25.0012" y2="42.8319">
	<stop  offset="0" style="stop-color:#FFFFFC"/>
	<stop  offset="0.1627" style="stop-color:#E4F5FB"/>
	<stop  offset="0.3624" style="stop-color:#C9EBFA"/>
	<stop  offset="0.5668" style="stop-color:#B6E4F9"/>
	<stop  offset="0.7765" style="stop-color:#ABE0F8"/>
	<stop  offset="1" style="stop-color:#A7DFF8"/>
</linearGradient>
<polygon fill="url(#SVGID_1_)" points="50,42.852 0.002,42.832 0.002,49.92 50,50 "/>
<linearGradient id="SVGID_2_" gradientUnits="userSpaceOnUse" x1="5.5084" y1="29.8536" x2="13.6269" y2="29.8536">
	<stop  offset="0" style="stop-color:#FFFFFC"/>
	<stop  offset="0.1627" style="stop-color:#E4F5FB"/>
	<stop  offset="0.3624" style="stop-color:#C9EBFA"/>
	<stop  offset="0.5668" style="stop-color:#B6E4F9"/>
	<stop  offset="0.7765" style="stop-color:#ABE0F8"/>
	<stop  offset="1" style="stop-color:#A7DFF8"/>
</linearGradient>
<path fill="url(#SVGID_2_)" d="M13.562,42.718c0.229,1.412-0.221,1.843-0.221,1.843s-1.143,1.043-3.823,1.123
	c-2.266,0.068-3.568-1.037-3.568-1.037s-0.588-0.415-0.407-1.722C5.645,42.193,9.034,14.02,9.034,14.02S13.46,42.089,13.562,42.718z
	"/>
<linearGradient id="SVGID_3_" gradientUnits="userSpaceOnUse" x1="0.0189" y1="25.0195" x2="10.9352" y2="25.0195">
	<stop  offset="0" style="stop-color:#FFFFFC"/>
	<stop  offset="0.1627" style="stop-color:#E4F5FB"/>
	<stop  offset="0.3624" style="stop-color:#C9EBFA"/>
	<stop  offset="0.5668" style="stop-color:#B6E4F9"/>
	<stop  offset="0.7765" style="stop-color:#ABE0F8"/>
	<stop  offset="1" style="stop-color:#A7DFF8"/>
</linearGradient>
<path fill="url(#SVGID_3_)" d="M10.848,44.647c0.307,2.154-0.298,2.813-0.298,2.813s-1.537,1.591-5.14,1.713
	c-3.047,0.103-4.798-1.582-4.798-1.582s-0.791-0.633-0.547-2.627C0.202,43.847,4.76,0.861,4.76,0.861S10.711,43.688,10.848,44.647z"
	/>
<linearGradient id="SVGID_4_" gradientUnits="userSpaceOnUse" x1="19.2673" y1="25.8522" x2="27.3858" y2="25.8522">
	<stop  offset="0" style="stop-color:#FFFFFC"/>
	<stop  offset="0.1627" style="stop-color:#E4F5FB"/>
	<stop  offset="0.3624" style="stop-color:#C9EBFA"/>
	<stop  offset="0.5668" style="stop-color:#B6E4F9"/>
	<stop  offset="0.7765" style="stop-color:#ABE0F8"/>
	<stop  offset="1" style="stop-color:#A7DFF8"/>
</linearGradient>
<path fill="url(#SVGID_4_)" d="M27.321,42.236c0.229,1.798-0.221,2.348-0.221,2.348s-1.143,1.328-3.823,1.43
	c-2.266,0.086-3.568-1.32-3.568-1.32s-0.588-0.528-0.407-2.193c0.102-0.933,3.491-36.815,3.491-36.815S27.219,41.435,27.321,42.236z
	"/>
<linearGradient id="SVGID_5_" gradientUnits="userSpaceOnUse" x1="13.5419" y1="32.3213" x2="21.6604" y2="32.3213">
	<stop  offset="0" style="stop-color:#FFFFFC"/>
	<stop  offset="0.1627" style="stop-color:#E4F5FB"/>
	<stop  offset="0.3624" style="stop-color:#C9EBFA"/>
	<stop  offset="0.5668" style="stop-color:#B6E4F9"/>
	<stop  offset="0.7765" style="stop-color:#ABE0F8"/>
	<stop  offset="1" style="stop-color:#A7DFF8"/>
</linearGradient>
<path fill="url(#SVGID_5_)" d="M21.596,45.186c0.229,1.412-0.221,1.843-0.221,1.843s-1.143,1.043-3.823,1.123
	c-2.266,0.068-3.568-1.037-3.568-1.037s-0.588-0.415-0.407-1.722c0.102-0.733,3.491-28.906,3.491-28.906
	S21.494,44.557,21.596,45.186z"/>
<linearGradient id="SVGID_6_" gradientUnits="userSpaceOnUse" x1="30.0109" y1="26.0527" x2="38.1294" y2="26.0527">
	<stop  offset="0" style="stop-color:#FFFFFC"/>
	<stop  offset="0.1627" style="stop-color:#E4F5FB"/>
	<stop  offset="0.3624" style="stop-color:#C9EBFA"/>
	<stop  offset="0.5668" style="stop-color:#B6E4F9"/>
	<stop  offset="0.7765" style="stop-color:#ABE0F8"/>
	<stop  offset="1" style="stop-color:#A7DFF8"/>
</linearGradient>
<path fill="url(#SVGID_6_)" d="M38.065,42.437c0.229,1.798-0.221,2.348-0.221,2.348s-1.143,1.328-3.823,1.43
	c-2.266,0.086-3.568-1.32-3.568-1.32s-0.588-0.528-0.407-2.193c0.102-0.933,3.491-36.815,3.491-36.815S37.963,41.636,38.065,42.437z
	"/>
<linearGradient id="SVGID_7_" gradientUnits="userSpaceOnUse" x1="41.6714" y1="24.4895" x2="49.7899" y2="24.4895">
	<stop  offset="0" style="stop-color:#FFFFFC"/>
	<stop  offset="0.1627" style="stop-color:#E4F5FB"/>
	<stop  offset="0.3624" style="stop-color:#C9EBFA"/>
	<stop  offset="0.5668" style="stop-color:#B6E4F9"/>
	<stop  offset="0.7765" style="stop-color:#ABE0F8"/>
	<stop  offset="1" style="stop-color:#A7DFF8"/>
</linearGradient>
<path fill="url(#SVGID_7_)" d="M49.725,42.148c0.229,1.938-0.221,2.53-0.221,2.53s-1.143,1.432-3.823,1.542
	c-2.266,0.093-3.568-1.423-3.568-1.423s-0.588-0.569-0.407-2.363c0.102-1.006,3.491-39.68,3.491-39.68S49.623,41.285,49.725,42.148z
	"/>
<linearGradient id="SVGID_8_" gradientUnits="userSpaceOnUse" x1="39.5336" y1="32.2238" x2="47.6521" y2="32.2238">
	<stop  offset="0" style="stop-color:#FFFFFC"/>
	<stop  offset="0.1627" style="stop-color:#E4F5FB"/>
	<stop  offset="0.3624" style="stop-color:#C9EBFA"/>
	<stop  offset="0.5668" style="stop-color:#B6E4F9"/>
	<stop  offset="0.7765" style="stop-color:#ABE0F8"/>
	<stop  offset="1" style="stop-color:#A7DFF8"/>
</linearGradient>
<path fill="url(#SVGID_8_)" d="M47.587,45.088c0.229,1.412-0.221,1.843-0.221,1.843s-1.143,1.043-3.823,1.123
	c-2.266,0.068-3.568-1.037-3.568-1.037s-0.588-0.415-0.407-1.722c0.102-0.733,3.491-28.906,3.491-28.906
	S47.486,44.459,47.587,45.088z"/>
<linearGradient id="SVGID_9_" gradientUnits="userSpaceOnUse" x1="18.6465" y1="25.3821" x2="29.5629" y2="25.3821">
	<stop  offset="0" style="stop-color:#FFFFFC"/>
	<stop  offset="0.1627" style="stop-color:#E4F5FB"/>
	<stop  offset="0.3624" style="stop-color:#C9EBFA"/>
	<stop  offset="0.5668" style="stop-color:#B6E4F9"/>
	<stop  offset="0.7765" style="stop-color:#ABE0F8"/>
	<stop  offset="1" style="stop-color:#A7DFF8"/>
</linearGradient>
<path fill="url(#SVGID_9_)" d="M29.476,45.01c0.307,2.154-0.298,2.813-0.298,2.813s-1.537,1.591-5.14,1.713
	c-3.047,0.103-4.798-1.582-4.798-1.582s-0.791-0.633-0.547-2.627c0.137-1.118,4.694-44.104,4.694-44.104S29.339,44.05,29.476,45.01z
	"/>
<linearGradient id="SVGID_10_" gradientUnits="userSpaceOnUse" x1="32.167" y1="25.0195" x2="43.0834" y2="25.0195">
	<stop  offset="0" style="stop-color:#FFFFFC"/>
	<stop  offset="0.1627" style="stop-color:#E4F5FB"/>
	<stop  offset="0.3624" style="stop-color:#C9EBFA"/>
	<stop  offset="0.5668" style="stop-color:#B6E4F9"/>
	<stop  offset="0.7765" style="stop-color:#ABE0F8"/>
	<stop  offset="1" style="stop-color:#A7DFF8"/>
</linearGradient>
<path fill="url(#SVGID_10_)" d="M42.996,44.647c0.307,2.154-0.298,2.813-0.298,2.813s-1.537,1.591-5.14,1.713
	c-3.047,0.103-4.798-1.582-4.798-1.582s-0.791-0.633-0.547-2.627c0.137-1.118,4.694-44.104,4.694-44.104
	S42.859,43.688,42.996,44.647z"/>
</svg>
