<?xml version="1.0" encoding="utf-8"?>
<!-- Generator: Adobe Illustrator 17.0.0, SVG Export Plug-In . SVG Version: 6.00 Build 0)  -->
<!DOCTYPE svg PUBLIC "-//W3C//DTD SVG 1.1//EN" "http://www.w3.org/Graphics/SVG/1.1/DTD/svg11.dtd">
<svg version="1.1" id="Layer_1" xmlns="http://www.w3.org/2000/svg" xmlns:xlink="http://www.w3.org/1999/xlink" x="0px" y="0px"
	 width="221.334px" height="224.648px" viewBox="-116.782 -396.515 221.334 224.648"
	 enable-background="new -116.782 -396.515 221.334 224.648" xml:space="preserve">
<g>
	
		<linearGradient id="SVGID_1_" gradientUnits="userSpaceOnUse" x1="595.1525" y1="-2004.6272" x2="483.5399" y2="-1811.3086" gradientTransform="matrix(1 0 0 1 -545 1624)">
		<stop  offset="0.0593" style="stop-color:#17A5B8"/>
		<stop  offset="0.407" style="stop-color:#1490A1"/>
		<stop  offset="0.5728" style="stop-color:#22798C"/>
		<stop  offset="0.9267" style="stop-color:#26495F"/>
		<stop  offset="1" style="stop-color:#253F56"/>
	</linearGradient>
	<path fill="url(#SVGID_1_)" d="M-6.744-396.515c61.467,0,111.295,50.775,111.295,113.41S57.091-171.959-4.376-171.959
		s-112.272-48.793-112.272-111.428S-68.21-396.515-6.744-396.515z"/>
	<path opacity="0.1" fill="#F7F7F6" enable-background="new    " d="M88.896-227.23c0,0-15.61,41.764-77.033,54.294
		c-62.369,7.803-118.844-32.942-127.211-95.017c-10.188-63.632,38.112-123.12,97.085-127.838c0,0-37.16,76.024-2.719,129.014
		C12.89-214.664,88.896-227.23,88.896-227.23z"/>
	<path opacity="0.1" fill="#F7F7F6" enable-background="new    " d="M63.156-195.173c0,0-11.022,13.899-48.013,21.263
		c-61.642,12.27-122.156-32.14-130.678-95.433c-8.238-61.183,26.521-87.178,40.343-102.858c0,0-28.168,81.849,7.304,133.65
		C-18.861-166.953,63.156-195.173,63.156-195.173z"/>
	<path opacity="0.05" fill="#CEDDF0" enable-background="new    " d="M44.801-233.154c0,0,20.266-10.118,26.931-13.66
		c3.951-2.101,12.233-5.797,15.637-8.701c3.208-2.735,8.723-9.395,10.426-13.251c2.68-6.078,4.524-19.572,4.343-26.213
		c-0.162-6.011-3.583-17.691-5.212-23.477c-1.996-7.087-9.557-27.851-9.557-27.851s2.608,20.235,2.606,27.024
		c-0.002,9.002-0.312,27.416-3.475,35.846c-3.015,8.037-14.479,21.338-19.983,27.925C61.525-249.535,44.801-233.154,44.801-233.154z
		"/>
	<path opacity="0.05" fill="#CEDDF0" enable-background="new    " d="M45.357-340.87c3.156,6.569,15.223,15.851,19.114,22.013
		c1.739,2.754,5.212,11.943,5.212,11.943s3.797-14.82,4.343-19.876c0.622-5.764,2.629-18.021,0-23.188
		c-3.29-6.466-17.982-12.325-23.457-17.085c-3.343-2.906-12.323-12.73-12.323-12.73S41.074-349.786,45.357-340.87z"/>
	<path opacity="0.05" fill="#CEDDF0" enable-background="new    " d="M40.382-361.302c0,0-19.619,13.483-25.693,19.196
		c-6.265,5.893-24.326,34.189-24.326,34.189s-5.323-17.149-4.343-22.892c1.674-9.822,13.112-27.268,19.983-34.486
		c5.781-6.072,28.155-18.221,28.155-18.221l-15.785,24.81L40.382-361.302z"/>
	<path opacity="0.05" fill="#CEDDF0" enable-background="new    " d="M31.197-316.139c-0.189,7.136-5.795,20.868-9.653,26.872
		c-3.236,5.037-17.134,16.734-17.134,16.734l24.161-5.93c0,0-13.888,33.232-25.621,42.359c-5.947,4.626-38.879,16.553-38.879,16.553
		s17.537-0.522,23.381-0.382c24.024,0.577,61.635-28.305,67.17-36.967c5.415-8.477,5.949-30.238,3.776-40.059
		c-6.417-28.995-33.425-47.31-33.425-47.31S31.388-323.339,31.197-316.139z"/>
	<path opacity="0.05" fill="#CEDDF0" enable-background="new    " d="M-91.614-259.496c0,0-14.138-16.331-15.428-23.17
		c-0.938-4.98,2.694-15.003,4.321-19.804c8.694-25.681,21.853-39.875,21.853-39.875s-10.953,25.743-11.364,29.166
		c-0.575,4.807-2.848,21.061-2.668,25.899C-94.582-278.655-91.614-259.496-91.614-259.496z"/>
	<path opacity="0.05" fill="#CEDDF0" enable-background="new    " d="M-57.516-280.435c0,0-7.089,22.404-5.374,26.771
		c1.739,4.433,17.701,23.566,17.701,23.566s-0.862-14.116,0.193-15.791c1.507-2.392,4.713-7.36,4.937-10.179
		c0.339-4.261-4.099-12.177-4.937-16.368c-0.598-2.988-1.22-18.034-1.22-18.034S-50-275.39-51.475-272.437
		c-0.906,1.813-2.006,6.75-4.01,7.046C-58.013-265.014-57.516-280.435-57.516-280.435z"/>
	<path opacity="0.05" fill="#CEDDF0" enable-background="new    " d="M-59.12-377.358c-3.528,3.982-7,14.485-8.021,19.705
		c-0.99,5.06-0.639,15.506,0,20.621c0.505,4.047,3.015,11.863,4.01,15.818c1.01,4.01,12.389,24.167,12.389,24.167
		s-3.429-24.167-1.222-39.357c0.823-5.666,2.696-20.321,11.033-29.295c4.657-5.015,29.334-22.465,29.334-22.465
		s-15.849-2.3-30.862,1.548C-47.074-385.43-55.96-380.923-59.12-377.358z"/>
</g>
</svg>
