<?xml version="1.0" encoding="utf-8"?>
<!-- Generator: Adobe Illustrator 17.0.0, SVG Export Plug-In . SVG Version: 6.00 Build 0)  -->
<!DOCTYPE svg PUBLIC "-//W3C//DTD SVG 1.1//EN" "http://www.w3.org/Graphics/SVG/1.1/DTD/svg11.dtd">
<svg version="1.1" id="Layer_1" xmlns="http://www.w3.org/2000/svg" xmlns:xlink="http://www.w3.org/1999/xlink" x="0px" y="0px"
	 width="1280px" height="1133.136px" viewBox="0 98.056 1280 1133.136" enable-background="new 0 98.056 1280 1133.136"
	 xml:space="preserve">
<linearGradient id="SVGID_1_" gradientUnits="userSpaceOnUse" x1="10994.3691" y1="690.347" x2="10994.3691" y2="-383.4225" gradientTransform="matrix(-1 0 0 1 11634.3691 540.845)">
	<stop  offset="0" style="stop-color:#042633"/>
	<stop  offset="0.1444" style="stop-color:#081E2E"/>
	<stop  offset="0.5699" style="stop-color:#0E162B"/>
	<stop  offset="1" style="stop-color:#0F152E"/>
</linearGradient>
<path fill="url(#SVGID_1_)" d="M-1,178.308c0,0,82.491-19.446,111.361-20.214c25.918-0.69,67.694-3.091,103.341,8.716
	c104.115,34.485,347.358,9.908,436.887,29.423c38.065,8.297,216.497-32.454,220.362-36.26c5.422-5.339,67.56,17.977,88.88,21.023
	c103.725,14.818,126.309-0.814,164.018,10.715c52.138,15.942,157.151-21.12,157.151-21.12v1060.601H-1V178.308z"/>
<g>
	<g>
		
			<linearGradient id="SVGID_2_" gradientUnits="userSpaceOnUse" x1="1749.4705" y1="-442.789" x2="1749.4705" y2="-220.859" gradientTransform="matrix(1 0 0 1 -545 540.845)">
			<stop  offset="0" style="stop-color:#042633"/>
			<stop  offset="0.1444" style="stop-color:#081E2E"/>
			<stop  offset="0.5699" style="stop-color:#0E162B"/>
			<stop  offset="1" style="stop-color:#0F152E"/>
		</linearGradient>
		<path fill="url(#SVGID_2_)" d="M1281,98.056c0,0-4.349,1.005-8.055,1.932c-3.463,0.866-5.193,3.184-7.222,3.297
			c-6.14,0.341-5.524,5.752-12.412,9.816c-3.743,2.208-8.441,5.683-10.399,8.419c-1.391,1.941-3.499,5.541-5.076,9.78
			c-1.912,5.142-3.283,11.28-4.735,17.251c-3.609,14.849-19.099,26.401-24.981,33.931c-1.446,6.67-10.531,25.619-9.253,32.301
			c1.863,9.741,32.785,35.69,32.785,35.69s-18.221,9.125-24.113,9.119c-12.675-0.013-34.896-7.983-44.124-2.835
			c-7.766,4.332-15.468,16.659-19.126,22.594c-6.013,9.758-16.348,40.216-16.348,40.216l153.059,0.42V98.056z"/>
		
			<linearGradient id="SVGID_3_" gradientUnits="userSpaceOnUse" x1="1701.0586" y1="-251.5532" x2="1792.2452" y2="-251.5532" gradientTransform="matrix(1 0 0 1 -545 540.845)">
			<stop  offset="0.2384" style="stop-color:#0E162B"/>
			<stop  offset="0.5433" style="stop-color:#0F1228"/>
			<stop  offset="1" style="stop-color:#0F1026"/>
		</linearGradient>
		<path opacity="0.5" fill="url(#SVGID_3_)" enable-background="new    " d="M1186.088,273.888
			c2.401,1.326,9.251,3.356,12.327,2.678c1.786-0.394,3.55-2.825,3.697-3.951c0.1-0.771-2.547-2.268-1.8-2.902
			c0.769-0.653,4.241-0.428,5.373,0c3.475,1.313,6.279,6.447,6.954,8.856c0.608,2.17-1.234,6.558-1.58,8.748
			c-0.498,3.145-3.718,9.67-1.711,12.597c0.767,1.119,4.126,3.385,6.136,3.183c2.418-0.243,2.734-4.308,4.837-5.055
			c2.669-0.948,9.366,0.078,12.447-0.187c3.008-0.259,9.083-2.747,11.74-1.872c1.949,0.641,3.186,3.784,2.584,5.055
			c-0.544,1.149-4.672,2.288-6.005,3.183c-1.526,1.024-5.047,3.133-5.247,4.494c-0.173,1.181,2.711,3.183,3.35,4.307
			c0.466,0.818,3.612,6.467,3.612,6.467l-57.204-0.059c0,0,4.456-8.033,3.652-9.526c-0.965-1.794-7.688-3.343-10.114-4.559
			c-2.647-1.326-7.973-4.003-10.114-5.617c-2.58-1.945-6.83-6.28-8.218-8.613c-2.423-4.072-4.865-12.722-4.741-17.038
			c0.068-2.388,1.575-7.172,3.161-9.368c1.137-1.575,3.756-5.752,6.638-5.611c2.008,0.098,3.23,3.122,3.477,4.307
			c0.486,2.332-3.468,6.869-3.161,9.212c0.527,4.022,4.934,12.126,9.482,15.129c1.77,1.168,6.863,3.047,9.482,2.809
			c1.304-0.119,3.639-1.398,3.793-2.174c0.223-1.124-3.841-2.697-4.109-3.818c-0.196-0.821,1.75-2.36,1.58-3.183
			c-0.284-1.383-4.252-3.449-4.741-4.812c-0.606-1.686-1.609-6.584,1.264-6.853C1184.835,269.535,1184.675,273.108,1186.088,273.888
			z"/>
		
			<linearGradient id="SVGID_4_" gradientUnits="userSpaceOnUse" x1="-317.8483" y1="-2005.254" x2="-280.0375" y2="-2043.0648" gradientTransform="matrix(0.8047 0.5937 -0.5937 0.8047 290.9771 2039.53)">
			<stop  offset="0.2229" style="stop-color:#0E162B"/>
			<stop  offset="1" style="stop-color:#042635"/>
		</linearGradient>
		<path opacity="0.5" fill="url(#SVGID_4_)" enable-background="new    " d="M1231.479,165.998c0,0,1.328,2.689,2.351,3.702
			c2.856,2.831,4.116,7.777,7.881,10.051c2.427,1.466,2.212,2.384,2.237,5.756c0.006,0.847,2.816,6.128,4.883,4.581
			c2.719-2.036,3.801-4.512,4.413-1.856c0.363,1.576-1.543,6.073-8.532,5.209c-3.062-0.378-11.138-4.253-14.251-4.074
			c-1.937,0.111-6.19,1.181-8.852,3.56c-1.782,1.593,8.285-0.51,11.195,0.316c1.963,0.557,9.039,2.664,10.556,3.589
			c1.6,0.976,4.864,4.133,5.326,5.854c0.324,1.205-8.739-2.629-10.797-2.574c-2.901,0.078-3.627,0.843-5.91,1.907
			c-2.68,1.249-0.561,3.167-5.277,8.765c-1.275,1.513-4.299,4.174-4.007,6.71c0.22,1.911,9.614-5.23,9.101-3.339
			c-0.845,3.111-4.281,11.706-2.96,14.038c0.735,1.297-1.857,7.411-0.623,8.568c1.577,1.478,3.201,12.22,3.848,13.925
			c1.323,3.485,36.483,53.49,37.928,50.022c-17.407-45.258-1.712-45.138-2.199-48.189c-0.808-5.068-9.214-25.341-6.068-29.148
			c1.962-2.374,16.046,7.739,16.583,5.116c0.371-1.813-3.428-13.983-4.866-15.599c-1.237-1.391-8.12-7.17-9.173-8.613
			c-1.654-2.267-2.772-6.962-2.736-9.432c0.051-3.49,0.706-8.375-1.197-10.332c-0.862-0.886-7.998-1.151-9.692-2.216
			c-2.196-1.381-5.184-4.816-6.075-6.638c-1.471-3.011-0.972-7.224-2.292-7.797C1241.387,167.477,1234.053,165.768,1231.479,165.998
			z"/>
	</g>
</g>
<g>
	<g>
		
			<linearGradient id="SVGID_5_" gradientUnits="userSpaceOnUse" x1="808.077" y1="-442.789" x2="808.077" y2="-222.605" gradientTransform="matrix(1 0 0 1 -545 540.845)">
			<stop  offset="0" style="stop-color:#042633"/>
			<stop  offset="0.1444" style="stop-color:#081E2E"/>
			<stop  offset="0.5699" style="stop-color:#0E162B"/>
			<stop  offset="1" style="stop-color:#0F152E"/>
		</linearGradient>
		<path fill="url(#SVGID_5_)" d="M-1,98.056c6.619,0,10.705,1.027,19.132,1.769c9.014,0.793,27.214,3.549,34.684,6.64
			c4.894,2.025,8.779,10.749,14.712,11.142c5.901,0.392,12.815-7.711,18.409-8.891c4.617-0.973,14.881-0.778,19.603,0
			c6.457,1.063,16.926,6.471,22.962,8.198c4.142,1.185,12.711,3.329,17.238,3.814c4.578,0.49,14.199-0.877,18.61,0
			c4.66,0.926,12.298,4.913,15.682,7.025c8.823,5.505,18.347,20.705,28.751,25.138c4.405,1.876,16.3,1.752,20.91,3.449
			c4.145,1.525,10.492,6.141,13.024,8.611c4.87,4.752,11.564,15.338,13.247,20.807c2.417,7.852-3.41,24.204,0,31.926
			c1.589,3.599-4.406,7.762-1.561,11.219c2.438,2.961-6.423,3.881-6.415,7.176c0.01,4.263,20.808,4.194,26.272,6.967
			c4.139,2.101,7.065,9.296,11.853,10.838c1.96,0.631,6.7-0.119,8.922,0c7.276,0.389,21.667,2.038,28.751,3.097
			c8.197,1.225,25.505,3.103,32.157,6.193c3.63,1.686,6.244,7.497,9.726,9.29c3.662,1.887,13.807,2.976,17.757,4.645
			c5.439,2.298,12.249,9.771,18.163,11.612c8.026,2.5,26.998,2.057,35.895,3.097c7.93,0.927,23.726,3.08,31.365,4.645
			c6.804,1.394,19.856,5.049,26.285,6.967c4.759,1.42,33.318,11.755,31.974,14.81L-1,318.213V98.056z"/>
		
			<linearGradient id="SVGID_6_" gradientUnits="userSpaceOnUse" x1="566.7536" y1="-395.8627" x2="606.4424" y2="-418.7772" gradientTransform="matrix(1 0 0 1 -545 540.845)">
			<stop  offset="0.2229" style="stop-color:#0E162B"/>
			<stop  offset="1" style="stop-color:#042635"/>
		</linearGradient>
		<path opacity="0.5" fill="url(#SVGID_6_)" enable-background="new    " d="M1.726,102.114c-1.575,2.114-1.594,6.732,0.586,8.854
			c1.89,1.839,10.258,13.802,24.296,19.358s3.759,13.617,15.869,18.73c9.037,3.815,15.908,26.614,17.486,27.916
			c12.366,10.203,2.622-46.115,0.102-47.817c-3.775-2.549-4.56-20.251-7.732-22.414c-2.878-1.963-24.328-0.548-33.33-1.388
			c-2.605-0.244-12.307-6.041-16.213-6.041C0.117,99.314,3.355,99.929,1.726,102.114z"/>
		
			<linearGradient id="SVGID_7_" gradientUnits="userSpaceOnUse" x1="696.2978" y1="-354.247" x2="752.796" y2="-410.7451" gradientTransform="matrix(1 0 0 1 -545 540.845)">
			<stop  offset="0.2229" style="stop-color:#0E162B"/>
			<stop  offset="1" style="stop-color:#042635"/>
		</linearGradient>
		<path opacity="0.5" fill="url(#SVGID_7_)" enable-background="new    " d="M88.838,113.125c0,0,6.601,2.976,9.824,3.775
			c9.006,2.233,19.477,8.436,28.788,9.324c6.003,0.572,7.313,2.001,13.275,6.744c1.497,1.191,14.746,6.912,14.942,3.453
			c0.259-4.551-2.566-8.711,2.967-5.34c3.283,2,8.498,9.523-2.885,12.613c-4.987,1.354-23.194,0.867-27.273,3.04
			c-2.537,1.352-6.661,5.484-6.236,10.485c0.285,3.347,10.797-5.829,16.354-6.459c3.75-0.425,17.44-1.815,21.206-1.445
			c3.974,0.39,24.778,11.992,28.455,14.136c2.575,1.501-17.561-3.761-20.369-2.413c-3.957,1.9-13.679-0.291-15.031,2.618
			c-1.587,3.415,4.775,4.816,7.958,15.624c0.861,2.923,1.268,8.542,6.139,11.941c3.67,2.561,4.376-13.311,6.976-10.325
			c4.276,4.912,18.886,12.656,24.85,15.133c3.317,1.378,8.446-2.279,12.221-1.408c4.823,1.113,21.21,14.08,25.121,16.088
			c7.992,4.102,21.117,9.943,19.637,6.591c-3.175-7.191,2.495-23.37,0.244-30.683c-1.403-4.559-8.273-16.395-12.127-20.428
			c-2.664-2.788-9.336-8.584-14.206-9.978c-4.19-1.199-22.267-0.436-26.289-1.822c-6.319-2.179-17.141-15.577-21.431-19.085
			c-6.061-4.956-10.654-12.898-16.78-14.486c-2.773-0.719-16.38,3.951-20.643,3.493c-5.527-0.594-15.781-3.6-20.241-5.622
			c-7.367-3.342-14.068-9.595-16.94-9.59C105.421,109.103,92.065,111.214,88.838,113.125z"/>
		
			<linearGradient id="SVGID_8_" gradientUnits="userSpaceOnUse" x1="785.0546" y1="-225.352" x2="970.1642" y2="-332.2252" gradientTransform="matrix(1 0 0 1 -545 540.845)">
			<stop  offset="0.2229" style="stop-color:#0E162B"/>
			<stop  offset="1" style="stop-color:#042635"/>
		</linearGradient>
		<path opacity="0.5" fill="url(#SVGID_8_)" enable-background="new    " d="M188.302,224.737c7.15-1.028,22.997-1.331,27.957-0.224
			c9.342,2.085,25.782,11.308,34.61,14.07c5.816,1.819,18.435,2.143,23.43,4.678c4.139,2.101,7.162,9.195,11.853,10.838
			c3.2,1.121,7.455,0.083,11.143,0.359c5.758,0.432,20.902,1.896,26.53,2.737c8.197,1.225,25.505,3.103,32.157,6.193
			c3.63,1.686,6.244,7.497,9.726,9.29c3.662,1.887,13.807,2.976,17.757,4.645c5.439,2.298,12.249,9.771,18.162,11.612
			c7.385,2.3,24.829,1.924,33.025,2.849c5.423,0.612,27.941,3.717,42.351,7.221c4.838,1.177-30.755-0.563-40.453,0.126
			c-5.533,0.393-28.145,35.864-33.713,35.743c-5.74-0.125-2.785,4.401-8.502,4.726c-2.556,0.145-6.204,3.821-8.715,4.14
			c-2.976,0.379-13.589-12.066-16.205-12.989c-2.004-0.706-12.721-0.437-11.865-1.721c0.883-1.326,18.294-0.176,16.304-0.978
			c-9.553-3.846-20.102-36.946-27.597-39.178c-9.368-2.79-25.933-10.547-34.478-14.146c-5.571-2.347-15.369-8.804-22.089-9.548
			c-2.277-0.252-3.554,1.073-5.869,1.02c-13.802-0.315-28.469-4.605-29.698-9.154c-0.528-1.955,15.262-2.891,12.396-3.91
			c-6.124-2.177-9.75-6.905-12.396-8.114c-6.756-3.088-24.541-5.341-30.699-8.841c-3.18-1.807-1.103-5.203-4.994-6.429
			c-2.649-0.834-12.516-1.403-15.304-2.059C200.372,227.046,184.74,225.249,188.302,224.737z"/>
		
			<linearGradient id="SVGID_9_" gradientUnits="userSpaceOnUse" x1="545.5471" y1="-347.2626" x2="645.6469" y2="-347.2626" gradientTransform="matrix(1 0 0 1 -545 540.845)">
			<stop  offset="0" style="stop-color:#0E0F22"/>
			<stop  offset="0.0065" style="stop-color:#0E1023"/>
			<stop  offset="0.1187" style="stop-color:#0E1429"/>
			<stop  offset="0.2384" style="stop-color:#0E162B"/>
			<stop  offset="0.5387" style="stop-color:#0F1328"/>
			<stop  offset="1" style="stop-color:#0F1026"/>
		</linearGradient>
		<path opacity="0.2" fill="url(#SVGID_9_)" enable-background="new    " d="M1.484,176.777c0,0-1.7-17.581-0.52-18.443
			c0.779-5.715,2.378-7.837,4.17-9.993c1.598-1.923,7.893-4.907,11.471-5.227c2.428-0.218,8.395,0.651,9.208,2.024
			c0.681,1.152-3.561,3.032-4.244,4.184c-1.704,2.873-1.532,9.113-2.758,12.07c-1.4,3.379-6.974,9.661-7.988,13.088
			c-0.322,1.089-1.676,3.936,0,4.423c4.791,1.393,13.217-5.366,17.364-7.356c2.468-1.184,6.782-3.993,9.376-5.078
			c6.252-2.614,19.661-7.284,27.026-8.515c4.653-0.778,14.621-1.418,19.304-0.705c4.11,0.626,16.932,8.556,16.752,11.068
			c-0.149,2.077-11.455-2.341-14.864-1.847c-4.362,0.632-13.788-0.98-17.962,0c-4.214,0.989-12.099,4.754-13.211,7.357
			c-0.713,1.668,1.768,5.228,3.659,6.535c2.568,1.774,12.997,2.011,14.044,4.265c1.033,2.224-6.119,5.894-8.273,7.816
			c-4.215,3.759-13.155,11.072-17.519,14.771c-7.229,6.128-15.419,31.777-25.786,36.041c-7.028,2.891-11.36-2.453-12.496-5.692
			C1.097,217.194,1.484,176.777,1.484,176.777z"/>
		
			<linearGradient id="SVGID_10_" gradientUnits="userSpaceOnUse" x1="591.2102" y1="-262.6367" x2="785.9875" y2="-262.6367" gradientTransform="matrix(1 0 0 1 -545 540.845)">
			<stop  offset="0.2384" style="stop-color:#0E162B"/>
			<stop  offset="0.5433" style="stop-color:#0F1228"/>
			<stop  offset="1" style="stop-color:#0F1026"/>
		</linearGradient>
		<path opacity="0.5" fill="url(#SVGID_10_)" enable-background="new    " d="M98.239,214.572
			c4.159,2.297,16.026,5.815,21.355,4.639c3.095-0.683,6.15-4.894,6.404-6.844c0.174-1.335-4.412-3.93-3.119-5.028
			c1.332-1.131,7.347-0.741,9.309,0c6.021,2.275,10.878,11.169,12.046,15.342c1.053,3.759-2.138,11.361-2.738,15.155
			c-0.862,5.45-6.441,16.752-2.965,21.824c1.329,1.939,7.148,5.864,10.631,5.514c4.189-0.421,4.736-7.463,8.379-8.758
			c4.624-1.643,16.226,0.135,21.562-0.324c5.211-0.448,16.249,1.295,20.853,2.809c3.376,1.11,11.047,11.552,10.004,13.755
			c-0.942,1.991-14.572-1.55-16.881,0c-2.643,1.774-13.409,5.145-13.755,7.503c-0.3,2.046,12.022,23.063,13.13,25.009
			c0.807,1.417,30.636,38.139,46.892,58.146c15.606,19.207-84.88-33.127-97.535-54.394c-2.302-3.868-17.506-28.76-30.636-36.888
			c-1.672-3.107-13.13-1.25-24.984-2.964c-4.586-2.296-13.812-6.935-17.522-9.731c-4.469-3.369-11.832-10.88-14.237-14.921
			c-4.197-7.054-8.428-22.04-8.214-29.518c0.118-4.137,2.728-12.425,5.476-16.229c1.97-2.728,6.507-9.965,11.499-9.721
			c3.478,0.17,5.596,5.409,6.023,7.46c0.842,4.041-6.008,11.9-5.476,15.96c0.913,6.968,8.547,21.006,16.427,26.209
			c3.066,2.024,11.889,5.279,16.427,4.866c2.259-0.206,6.304-2.422,6.571-3.767c0.387-1.947-6.654-4.672-7.118-6.613
			c-0.34-1.423,3.031-4.088,2.738-5.514c-0.492-2.396-7.365-5.976-8.214-8.336c-1.049-2.92-2.788-11.407,2.19-11.872
			C96.068,207.03,95.792,213.22,98.239,214.572z"/>
	</g>
	
		<linearGradient id="SVGID_11_" gradientUnits="userSpaceOnUse" x1="546.5235" y1="-366.83" x2="574.8907" y2="-366.83" gradientTransform="matrix(1 0 0 1 -545 540.845)">
		<stop  offset="0.2384" style="stop-color:#0E162B"/>
		<stop  offset="0.5433" style="stop-color:#0F1228"/>
		<stop  offset="1" style="stop-color:#0F1026"/>
	</linearGradient>
	<path fill="url(#SVGID_11_)" d="M1.605,128.17c-1.036-3.124,8.092,7.464,8.838,10.278c1.405,5.3-2.547,16.074-2.013,21.43
		c0.221,2.216,0.725,6.822,2.589,8.744c1.737,1.791,9.52,3.357,10.642,5.314c2.07,3.612,7.321,9.98,6.319,13.75
		c-2.046,7.7,0.708,11.259-1.299,18.963c-0.372,1.429,4.541,12.727,2.857,13.767c-0.955,0.589-13.516-16.416-14.287-17.924
		C-1.893,168.984,6.946,144.275,1.605,128.17z"/>
</g>
<linearGradient id="SVGID_12_" gradientUnits="userSpaceOnUse" x1="11443.5225" y1="-358.7932" x2="11478.5703" y2="-358.7932" gradientTransform="matrix(1 0 0 1 -11221.958 540.845)">
	<stop  offset="0" style="stop-color:#D14627"/>
	<stop  offset="0.177" style="stop-color:#CC5235"/>
	<stop  offset="0.2946" style="stop-color:#C56250"/>
	<stop  offset="0.7629" style="stop-color:#C06B60"/>
	<stop  offset="0.8177" style="stop-color:#BE6E66"/>
	<stop  offset="1" style="stop-color:#E6BCA1"/>
</linearGradient>
<path opacity="0.07" fill="url(#SVGID_12_)" d="M228.713,156.139c-1.795-0.257-7.06,1.272-7.06,1.272s0.218,3.122-0.081,8.396
	c-0.296,5.236,8.352,22.402,8.352,22.402s16.436,6.7,20.556,13.078c2.089,3.234,3.947,9.097,4.56,5.662
	c0.521-4.611,1.405-12.593,1.524-15.878c0.762-7.137-7.658-18.965-12.43-24.619C240.937,162.73,231.943,156.601,228.713,156.139z"/>
<g opacity="0.04">
	
		<linearGradient id="SVGID_13_" gradientUnits="userSpaceOnUse" x1="11183.5947" y1="-234.844" x2="11183.5947" y2="-322.891" gradientTransform="matrix(-1 0 0 1 11452.8398 540.845)">
		<stop  offset="0" style="stop-color:#D14627"/>
		<stop  offset="0.177" style="stop-color:#CC5235"/>
		<stop  offset="0.2946" style="stop-color:#C56250"/>
		<stop  offset="0.7629" style="stop-color:#C06B60"/>
		<stop  offset="0.8177" style="stop-color:#BE6E66"/>
		<stop  offset="1" style="stop-color:#E6BCA1"/>
	</linearGradient>
	<path fill="url(#SVGID_13_)" d="M253.52,219.129c8.959,1.493,18.928,2.266,22.075,4.784c1.144,0.858,3.072,12.048,5.463,16.148
		c1.367,2.05,2.392,2.392,2.733,5.467c0.683,4.1-1.025,7.858,0.342,11.958c1.025,2.733,2.733,4.442,4.1,6.833
		c2.05,3.417,3.417,7.175,3.417,10.933c-5.125-5.467-9.225-11.616-13.325-18.108c-2.05-3.417-5.466-11.958-9.566-12.641
		c0.342,1.367,0,3.075,0.683,4.783c-0.683-0.342-2.733,0-3.417-0.342c1.367,16.741,18.791,29.041,14.008,47.149
		c-0.683-0.683-1.708-1.367-2.392-2.05c-1.367,3.417-1.025,8.2-2.392,11.958c-1.367-3.758-1.025-8.541-2.392-12.641
		c-1.708-5.125-4.783-10.25-6.833-15.716c-2.392-6.833-6.15-12.983-9.225-19.816c-1.18-2.162-4.29-18.101-7.691-27.092
		c-2.51-6.635-2.598-4.784-1.872-6.525c0,0,1.318-5.204,2.674-6.257C250.583,218.583,253.52,219.129,253.52,219.129z"/>
</g>
<g opacity="0.15">
	
		<linearGradient id="SVGID_14_" gradientUnits="userSpaceOnUse" x1="11344.2227" y1="-429.334" x2="11344.2227" y2="-299.3931" gradientTransform="matrix(-1 0 0 1 11452.8398 540.845)">
		<stop  offset="0" style="stop-color:#A94024"/>
		<stop  offset="0.2428" style="stop-color:#176171"/>
		<stop  offset="0.5856" style="stop-color:#164152"/>
		<stop  offset="0.8492" style="stop-color:#112E41"/>
		<stop  offset="1" style="stop-color:#0F273B"/>
	</linearGradient>
	<path fill="url(#SVGID_14_)" d="M58.955,111.511c-7.401,2.733,16.848,32.251,20.02,37.034c3.171,5.808,17.176,4.528,16.118,10.678
		c-1.055,5.125,6.686,12.686,15.649,18.155c7.512,4.584,44.937,59.547,47.01,62.562c8.291,12.06-12.642-51.491-16.487-68.023
		c4.23-1.025-13.664-11.073-10.493-13.806c1.058-0.684-2.113-2.734-3.171-3.417c-1.058-3.075-2.113-7.516-15.857-5.808
		c0-1.709-8.456-4.1-8.456-5.467c1.055-2.05,7.398-2.734,8.456-4.442c4.226-5.466-7.401-5.466-15.857-9.566
		c-6.343-3.074-6.343-4.099-7.401-7.516c-12.686,0.684-7.041-4.287-13.383-7.02c0,0-3.649,2.657-6.806,2.639
		c-1.421-0.008-2.656-0.348-3.959-1.139C61.418,114.603,58.955,111.511,58.955,111.511z"/>
</g>
<linearGradient id="SVGID_15_" gradientUnits="userSpaceOnUse" x1="473.7917" y1="683.6929" x2="416.252" y2="683.6929" gradientTransform="matrix(1 0 0 -1 -272.5 836.192)">
	<stop  offset="0.016" style="stop-color:#932F1F"/>
	<stop  offset="0.4752" style="stop-color:#D14627"/>
	<stop  offset="0.5461" style="stop-color:#CC5235"/>
	<stop  offset="0.6683" style="stop-color:#C56250"/>
	<stop  offset="0.7629" style="stop-color:#C06B60"/>
	<stop  offset="0.8177" style="stop-color:#BE6E66"/>
	<stop  offset="1" style="stop-color:#E6BCA1"/>
</linearGradient>
<path opacity="0.1" fill="url(#SVGID_15_)" enable-background="new    " d="M146.025,120.809c4.685,0.502,13.673-0.898,17.568-0.335
	c3.194,0.462,7.457,2.465,10.373,3.848c2.58,1.223,7.471,4.244,9.704,6.023c4.742,3.779,12.984,12.749,17.066,17.233
	c2.239,2.46-2.739,44.576-6.899,35.909c-3.265-6.802-9.268-28.385-15.948-31.895C167.948,146.368,134.858,119.612,146.025,120.809z"
	/>
<g opacity="0.9" enable-background="new    ">
	
		<linearGradient id="SVGID_16_" gradientUnits="userSpaceOnUse" x1="10220.3926" y1="-252.1819" x2="10220.3926" y2="-290.4019" gradientTransform="matrix(-1 0 0 1 11452.8398 540.845)">
		<stop  offset="0.2384" style="stop-color:#0E162B"/>
		<stop  offset="0.5433" style="stop-color:#0F1228"/>
		<stop  offset="1" style="stop-color:#0F1026"/>
	</linearGradient>
	<path fill="url(#SVGID_16_)" d="M1211.94,258.977c1.085,4.933,12.431,8.654,16.872,11.045c4.783,2.392,19.7,16.933,24.142,18.641
		c-0.643-2.574-10.153-14.243-15.978-24.531c-3.454-6.101-3.566-13.053-5.347-13.689"/>
</g>
<linearGradient id="SVGID_17_" gradientUnits="userSpaceOnUse" x1="1671.3601" y1="-115.2919" x2="1671.3601" y2="-143.393" gradientTransform="matrix(0.8753 0.4835 -0.4835 0.8753 -322.6598 -489.0457)">
	<stop  offset="0.2384" style="stop-color:#0E162B"/>
	<stop  offset="0.5433" style="stop-color:#0F1228"/>
	<stop  offset="1" style="stop-color:#0F1026"/>
</linearGradient>
<path fill="url(#SVGID_17_)" d="M1203.671,212.504c-0.415,1.789-3.273,7.999-3.273,7.999s-1.406-4.462-1.58-5.68
	c-0.4-2.807,0.88-8.495,1.673-11.219c0.901-3.097,4.795-12.503,4.795-12.503l-1.108,13.587
	C1204.178,204.69,1204.113,210.597,1203.671,212.504z"/>
<linearGradient id="SVGID_18_" gradientUnits="userSpaceOnUse" x1="1313.4636" y1="-298.7737" x2="1313.4636" y2="-358.75" gradientTransform="matrix(1 0 0 1 -545 540.845)">
	<stop  offset="0.016" style="stop-color:#932F1F"/>
	<stop  offset="0.4752" style="stop-color:#D14627"/>
	<stop  offset="0.5461" style="stop-color:#CC5235"/>
	<stop  offset="0.6683" style="stop-color:#C56250"/>
	<stop  offset="0.7629" style="stop-color:#C06B60"/>
	<stop  offset="0.8177" style="stop-color:#BE6E66"/>
	<stop  offset="1" style="stop-color:#E6BCA1"/>
</linearGradient>
<path opacity="0.07" fill="url(#SVGID_18_)" enable-background="new    " d="M776.625,182.095c0,0-41.191,7.404-44.843,8.239
	c1.392,2.966,41.204,9.11,42.291,12.201c1.264,3.597,12.026,12.084,13.846,15.434c1.739,3.203,18.876,29.302,17.097,23.174
	c-2.555-8.8-6.956-24.236-6.606-27.818c0.197-2.017,1.761-7.911,1.761-7.911l-11.698-12.82c0,0-3.349-4.655-4.789-5.989
	c-0.776-0.719-2.388-1.8-3.406-2.09C779.702,184.352,776.625,182.095,776.625,182.095z"/>
<g opacity="0.07" enable-background="new    ">
	
		<linearGradient id="SVGID_19_" gradientUnits="userSpaceOnUse" x1="10030.9062" y1="-230.2109" x2="10030.9062" y2="-353.5309" gradientTransform="matrix(1 0 0 1 -8893.6826 540.845)">
		<stop  offset="0.016" style="stop-color:#932F1F"/>
		<stop  offset="0.4752" style="stop-color:#D14627"/>
		<stop  offset="0.5461" style="stop-color:#CC5235"/>
		<stop  offset="0.6683" style="stop-color:#C56250"/>
		<stop  offset="0.7629" style="stop-color:#C06B60"/>
		<stop  offset="0.8177" style="stop-color:#BE6E66"/>
		<stop  offset="1" style="stop-color:#E6BCA1"/>
	</linearGradient>
	<path fill="url(#SVGID_19_)" d="M1084.931,187.314c8.136,0,35.014,21.738,42.57,21.156c4.649-0.582,12.87,5.996,17.519,5.414
		c3.487-0.58,6.975,1.164,10.462,0.582c-1.744-8.718-18.018-13.949-17.436-19.18c16.275,7.555,31.967,19.178,49.984,23.247
		c13.367,2.905,26.368,17.606,37.992,25.743c-8.136,0.582-19.76-6.393-27.316-1.162c2.325,3.486,6.395,6.973,7.556,11.042
		c-6.974-2.324-13.947-6.393-21.504-4.649c0.582,1.744,6.066,5.96,6.648,7.122c13.367,6.975,38.772,38.313,39.933,54.005
		c-13.367-11.042-26.82-29.742-42.513-36.716c-8.136-3.487-13.444-19.685-21.001-23.754c-9.88-4.649-4.204-6.057-12.34-15.357
		c-4.649,6.975-12.204,2.905-18.016,0c1.162,2.905,2.325,5.813,3.487,8.718c0,1.164,8.733,11.901,12.861,16.029
		c9.03,10.32-47.568-39.596-52.217-43.665c-29.944-15.506-50.356-17.548-58.492-28.01"/>
</g>
<g opacity="0.07" enable-background="new    ">
	
		<linearGradient id="SVGID_20_" gradientUnits="userSpaceOnUse" x1="11026.3486" y1="-229.0717" x2="11026.3486" y2="-350.9727" gradientTransform="matrix(-1 0 0 1 11715.6025 540.845)">
		<stop  offset="0" style="stop-color:#D14627"/>
		<stop  offset="0.177" style="stop-color:#CC5235"/>
		<stop  offset="0.2946" style="stop-color:#C56250"/>
		<stop  offset="0.7629" style="stop-color:#C06B60"/>
		<stop  offset="0.8177" style="stop-color:#BE6E66"/>
		<stop  offset="1" style="stop-color:#E6BCA1"/>
	</linearGradient>
	<path fill="url(#SVGID_20_)" d="M578.665,213.686c-8.541-3.758-3.354,0.28-12.237-2.112c-4.783-1.025-12.516-5.498-12.516-5.498
		s4.211,5.732,10.878,10.176c1.45,0.966,13.191,16.224,14.9,15.883c4.1-1.025,0.342-2.392,2.392-4.1
		c1.367-1.025,9.908-1.708,12.3-1.708l12.641-3.075c-0.342,0.342-0.683,0.683-1.025,1.367c5.808-2.392,17.766,9.908,21.183,3.758
		c2.733,0.683,6.833-2.05,8.883-1.708c2.392,0.342,4.783,3.758,7.175,5.125c4.783,2.392,17.083,5.808,22.208,3.417
		c-5.125-3.075,0.683-7.516,4.783-7.516c4.1-0.342,5.808,2.392,9.566,4.1c6.15,3.075,23.916,10.25,30.066,7.175
		c-2.392-4.1-15.375-7.858-13.325-13.325c3.075,0.342,6.15,1.367,9.566,1.708c1.708,0.342,3.075,0.683,4.783,0.683
		c3.417,0.342,4.783-1.025,6.833-1.708c1.708-0.342,5.467-0.683,6.833-1.367c2.733-1.708,1.367-4.1,3.075-5.467
		c2.392-2.05,14.665,16.683,17.74,17.708c12.31,20.143,19.337,22.231,25.535,29.848c4.709,5.788,8.872,19.437,18.78,23.195
		c-1.025-1.708,10.295,9.66,10.295,7.61c4.1-3.075,20.178,14.901,24.619,13.876c-2.05-2.392-23.775-28.56-26.41-31.334
		c-6.05-6.368-16.665-13.714-22.503-20.18c-7.04-7.797-9.054-14.064-15.321-27.716c-9.176-10.519-13.603-16.423-22.828-18.473
		c-7.858-1.708-14.691-6.491-22.549-8.883c-4.1-1.025-6.833-2.05-10.933-4.1c-5.125-2.392-8.2-1.708-14.008-1.025
		c2.392,4.783-5.467,2.392-6.833,5.125c-1.708,4.1,9.566,7.516-1.367,7.516c-4.442,0-8.2-1.708-12.641-1.708
		c-5.125-0.342-8.883-0.342-14.008-1.708c-8.541-2.392-17.766-5.808-26.308-9.225c-8.883-3.075-17.747-9.315-25.64-9.717
		c-0.342,0-5.752-0.676-5.752-0.334c3.075,2.392,10.892,7.318,13.625,10.051c-1.708,1.367-3.758,2.392-5.125,3.758
		c1.025,1.708,3.417,3.417,4.783,4.783c-6.15,2.05-22.891,10.933-28.016,5.808L578.665,213.686z"/>
</g>
<g opacity="0.2">
	
		<linearGradient id="SVGID_21_" gradientUnits="userSpaceOnUse" x1="10914.8623" y1="-141.3747" x2="10855.3506" y2="-200.8869" gradientTransform="matrix(-0.9271 -0.3747 -0.3747 0.9271 10960.6719 4437.5029)">
		<stop  offset="0" style="stop-color:#087D8C"/>
		<stop  offset="0.1064" style="stop-color:#146E7E"/>
		<stop  offset="0.3909" style="stop-color:#184E5F"/>
		<stop  offset="0.645" style="stop-color:#14394B"/>
		<stop  offset="0.8567" style="stop-color:#102C3F"/>
		<stop  offset="1" style="stop-color:#0F273B"/>
	</linearGradient>
	<path fill="url(#SVGID_21_)" d="M993.384,240.642c-7.456-0.307-15.368-3.505-22.161-6.792c-6.981-2.822-16.458-11.526-23.925-9.129
		c1.702-6.892-0.536-6.713-6.022-10.555c-5.02-3.654-8.734-7.862-14.408-11.239c-0.009,2.703-0.673,5.684-0.495,7.921
		c-2.605-1.594-5.486-3.842-8.556-5.624c-0.009,2.703-0.485,5.219-0.029,8.11c-10.785-8.149-44.913-39.628-46.636-52.779
		c4.842,1.416,28.395,17.619,27.513,3.726c3.06,4.486,18.815,15.354,20.528,5.759c9.744,2.006,26.879,22.312,36.732,30.085
		c6.228,4.683,22.292,10.447,27.491,16.339c4.922,5.239,6.453,16.801,11.564,21.573"/>
</g>
<g>
	
		<linearGradient id="SVGID_22_" gradientUnits="userSpaceOnUse" x1="11146.6572" y1="-204.5965" x2="11198.4805" y2="-294.3558" gradientTransform="matrix(-1 0 0 1 11715.6025 540.845)">
		<stop  offset="0.2384" style="stop-color:#0E162B"/>
		<stop  offset="0.5433" style="stop-color:#0F1228"/>
		<stop  offset="1" style="stop-color:#0F1026"/>
	</linearGradient>
	<path fill="url(#SVGID_22_)" d="M637.784,274.365c-12.488-3.302-28.293-5.639-43.426-5.97c-14.782-0.323-31.88,1.468-39.745,1.574
		c-15.535,0.207-41.357-3.201-56-12.794c6.904,13.812,32.474,21.472,42.832,30.966c-16.401,8.633-28.485,7.769-46.609,7.769
		c-6.905,0-12.084,0-18.127-1.725c-9.494-1.726-29.161-3.764-37.793-2.038c10.596,2.505,28.299,2.038,36.068,7.215
		c6.904,4.315,11.222,11.222,17.263,15.537c13.809,9.494,25.895,17.263,37.979,28.485c12.084,12.084,13.809,10.358,21.578-4.315
		c6.043-10.358,4.315-13.812,6.043-25.031c1.725-11.222,3.454-11.222,12.948-18.127c14.673-9.494,29.212-8.87,42.582-20.325
		C615.797,273.507,637.784,274.365,637.784,274.365z"/>
</g>
<g>
	
		<linearGradient id="SVGID_23_" gradientUnits="userSpaceOnUse" x1="11730.6582" y1="-203.3122" x2="11648.9434" y2="-285.0283" gradientTransform="matrix(-1 0 0 1 11715.6025 540.845)">
		<stop  offset="0.2384" style="stop-color:#0E162B"/>
		<stop  offset="0.5433" style="stop-color:#0F1228"/>
		<stop  offset="1" style="stop-color:#0F1026"/>
	</linearGradient>
	<path fill="url(#SVGID_23_)" d="M13.778,206.684c5.179,6.905-0.864,20.716,9.494,18.988c0.864,8.633,28.234,12.606,33.413,20.372
		c6.904,10.358,16.399,10.358,12.948,24.167c-0.864,4.315-6.043,6.043-6.904,11.222c0,3.454-0.223,10.702-0.223,15.019
		c11.222-4.315,19.211,5.697,20.075,13.466c0.864,1.725,17.619,12.571,16.755,14.299c-2.59,6.905-18.645,11.009-22.098,13.599
		c-13.809,12.948-60.869,14.74-51.373,37.182l-2.59,0.864c-7.769-11.222-4.315-25.895-3.454-38.843
		c0.864-15.537-1.725-29.346-4.315-44.022c-2.59-12.084-12.948-44.883-6.904-51.788"/>
</g>
<g>
	
		<linearGradient id="SVGID_24_" gradientUnits="userSpaceOnUse" x1="10525.1807" y1="-180.0669" x2="10525.1807" y2="-268.3915" gradientTransform="matrix(-1 0 0 1 11715.6025 540.845)">
		<stop  offset="0.2384" style="stop-color:#0E162B"/>
		<stop  offset="0.5433" style="stop-color:#0F1228"/>
		<stop  offset="1" style="stop-color:#0F1026"/>
	</linearGradient>
	<path fill="url(#SVGID_24_)" d="M1230.475,308.731c-1.131-4.315-11.026-9.01-12.723-10.735c-0.566-0.864-5.857-7.486-7.554-8.35
		c-3.394-2.59-5.522-4.824-7.219-5.689c-3.961-1.725-6.789-4.315-11.314-6.905c-11.314-6.905-16.406-6.905-24.325,6.043
		c-5.092,7.769-13.011,18.127-16.972,28.485c6.789,1.725,12.445,6.905,18.103,9.494c-2.263,11.222-5.092,29.346,1.131,39.704
		c5.092-12.084,10.183-34.525,17.536-43.158c7.92-11.222,14.142-0.864,21.497-0.864"/>
</g>
<g opacity="0.5" enable-background="new    ">
	
		<linearGradient id="SVGID_25_" gradientUnits="userSpaceOnUse" x1="11337.5674" y1="-256.265" x2="11337.5674" y2="-308.6939" gradientTransform="matrix(-1 0 0 1 11715.6025 540.845)">
		<stop  offset="0.2384" style="stop-color:#0E162B"/>
		<stop  offset="0.5433" style="stop-color:#0F1228"/>
		<stop  offset="1" style="stop-color:#0F1026"/>
	</linearGradient>
	<path fill="url(#SVGID_25_)" d="M363.143,245.413c39.167-8.78,76.308,18.907,106.021,39.167
		c-13.506-4.728-27.687-8.104-41.869-12.83c-5.402-2.026-8.78-4.728-15.532-4.052c-2.026,0.676-7.428,5.402-6.754,5.402
		c-12.83,0.676-41.193-20.933-37.141,8.78c-11.48,0.676-27.687-12.156-37.141-18.233c-7.428-4.728-10.13-4.052-17.558-6.754
		c-8.104-3.376-22.863-18.16-22.863-18.16l-3.4-6.582c14.182,2.026,14.108,4.485,28.964,3.809c12.156,0,17.557,4.052,29.713,8.104"
		/>
</g>
<g opacity="0.5" enable-background="new    ">
	
		<linearGradient id="SVGID_26_" gradientUnits="userSpaceOnUse" x1="10790.4434" y1="-256.6979" x2="10790.4434" y2="-303.381" gradientTransform="matrix(-1 0 0 1 11715.6025 540.845)">
		<stop  offset="0.2384" style="stop-color:#0E162B"/>
		<stop  offset="0.5433" style="stop-color:#0F1228"/>
		<stop  offset="1" style="stop-color:#0F1026"/>
	</linearGradient>
	<path fill="url(#SVGID_26_)" d="M910.979,237.551c10.13-0.676,12.156,2.702,19.583,6.078c12.156,6.754,25.661,10.806,38.491,16.208
		c10.13,5.402,20.259,8.78,31.739,11.48c6.078,1.35,26.337,5.402,28.363,12.83c-10.804-4.052-16.882-9.454-28.363-9.454
		c-6.078,0-24.985-5.402-25.661,2.702c-12.156-4.728-22.285-14.856-34.439-18.907c-5.402-2.026-24.311-8.78-18.234,2.702
		c-18.233,4.052-31.063,12.83-50.647,11.48c-8.78-0.676-18.233-5.402-27.011-4.728c-4.728,0.676-8.78,4.728-12.156,5.402
		c-4.052,0.676-6.754-2.026-11.48-1.35c6.754-6.754,14.182-8.78,21.609-13.506c8.78-5.402,7.428-4.052,17.557-3.376
		c10.13,0.676,24.311,3.376,30.389-5.402"/>
</g>
<g>
	
		<linearGradient id="SVGID_27_" gradientUnits="userSpaceOnUse" x1="11598.2402" y1="-377.0404" x2="11651.4961" y2="-377.0404" gradientTransform="matrix(-1 0 0 1 11715.6025 540.845)">
		<stop  offset="0.2384" style="stop-color:#0E162B"/>
		<stop  offset="0.5433" style="stop-color:#0F1228"/>
		<stop  offset="1" style="stop-color:#0F1026"/>
	</linearGradient>
	<path fill="url(#SVGID_27_)" d="M81.167,150.069c2.872,2.388,12.818,6.624,12.818,6.624c4.065,9.148,9.148,11.179,14.229,17.278
		c8.13,9.148,8.13,11.179,9.148,25.408c-7.114-2.034-13.213-5.081-20.327-7.114c-5.08-1.016-9.313-22.687-14.394-24.718
		c-9.148-6.099-15.037-6.671-18.535-39.317C64.105,128.23,73.558,143.742,81.167,150.069z"/>
</g>
<g opacity="0.5" enable-background="new    ">
	<g>
		
			<linearGradient id="SVGID_28_" gradientUnits="userSpaceOnUse" x1="11078.5977" y1="-280.4337" x2="11316.4131" y2="-280.4337" gradientTransform="matrix(-1 0 0 1 11715.6025 540.845)">
			<stop  offset="0.2384" style="stop-color:#0E162B"/>
			<stop  offset="0.5433" style="stop-color:#0F1228"/>
			<stop  offset="1" style="stop-color:#0F1026"/>
		</linearGradient>
		<path fill="url(#SVGID_28_)" d="M399.189,234.418l34.439,4.728c25.661-3.376,41.869,16.208,66.178,24.311
			c-1.35-3.376-3.376-6.754-4.052-10.13c16.208,0.676,31.739,12.83,45.245,19.583c12.156,6.078,24.311,7.428,36.465,11.48
			c-2.603-3.297-6.062-6.548-10.003-9.687c7.501,5.613,14.966,10.737,24.22,13.172c15.109,4.771,30.215,11.926,45.324,18.289
			c-8.746-9.543-73.948-34.19-56.456-49.299c-15.903-9.543-38.167-14.312-55.659-21.469l-21.469-10.337
			c-11.132-2.386-33.846-4.918-45.772-6.509c0.038,0.028,0.079,0.053,0.117,0.081c-4.364-2.522-8.632-4.601-12.658-3.797
			c-8.104,0.676-15.532,9.454-22.959,12.156C414.721,229.692,406.617,231.042,399.189,234.418z M540.116,257.44
			c4.451,2.111,8.703,4.285,12.606,6.58c3.672,2.378,7.11,4.929,10.472,7.467C555.978,266.293,547.72,261.5,540.116,257.44z"/>
	</g>
</g>
<g opacity="0.5" enable-background="new    ">
	
		<linearGradient id="SVGID_29_" gradientUnits="userSpaceOnUse" x1="11554.4902" y1="-146.5533" x2="11622.8711" y2="-146.5533" gradientTransform="matrix(-0.8545 -0.2632 -0.5064 1.6441 10046.0811 3539.2891)">
		<stop  offset="0.2384" style="stop-color:#0E162B"/>
		<stop  offset="0.5433" style="stop-color:#0F1228"/>
		<stop  offset="1" style="stop-color:#0F1026"/>
	</linearGradient>
	<path fill="url(#SVGID_29_)" d="M195.848,216.28c12.91,3.976,17.791,2.615,23.957,18.828c6.164,16.212,16.659,28.033,20.382,44.924
		c-11.399,0.784-41.521-34.256-44.843-52.457"/>
</g>
<g opacity="0.5" enable-background="new    ">
	
		<linearGradient id="SVGID_30_" gradientUnits="userSpaceOnUse" x1="11184.2969" y1="-206.4052" x2="11279.9619" y2="-206.4052" gradientTransform="matrix(-1 0 0 1 11715.6025 540.845)">
		<stop  offset="0.2384" style="stop-color:#0E162B"/>
		<stop  offset="0.5433" style="stop-color:#0F1228"/>
		<stop  offset="1" style="stop-color:#0F1026"/>
	</linearGradient>
	<path fill="url(#SVGID_30_)" d="M459.145,299.276c11.132,5.566,21.259,13.868,31.596,20.229
		c7.952,4.771,11.941,10.123,18.301,17.28c4.771,4.771,13.517,8.746,19.083,12.723c-12.723,3.975,0,13.517,3.18,20.674
		c-15.109-9.541-32.056-20.832-45.573-32.76c-11.132-9.541-34.984-36.557-50.091-38.146c0-0.795,11.534,0.217,12.33-0.578"/>
</g>
<g>
	
		<linearGradient id="SVGID_31_" gradientUnits="userSpaceOnUse" x1="10157.9854" y1="553.0678" x2="10157.9854" y2="425.6839" gradientTransform="matrix(0.91 -0.4146 -0.4146 -0.91 -7968.0361 4933.356)">
		<stop  offset="0.2384" style="stop-color:#0E162B"/>
		<stop  offset="0.5433" style="stop-color:#0F1228"/>
		<stop  offset="1" style="stop-color:#0F1026"/>
	</linearGradient>
	<path fill="url(#SVGID_31_)" d="M1095.162,241.555c-10.734-2.136-17.97-16.978-18.034-15.168
		c-21.521,3.573-46.401-0.226-67.38,8.443c2.146,0.803,4.227,3.416,5.637,4.554c-0.402,1.074-2.213,1.008-2.613,2.082
		c6.375,4.218,14.484,0.523,19.72,6.151c-7.167,7.718-13.599,15.1-20.028,22.482c3.155,3.015,7.448,4.621,12.142,5.152
		l14.092,11.386c6.711,4.956,15.763,5.282,21.4,9.837c8.455,6.832,15.174,21.577,19.877,31.899
		c5.626-5.236,5.013-18.31,6.346-25.151c3.275-10.396,6.552-20.792,0.374-30.442c1.474-0.672,3.285-0.606,4.357-0.205
		c-1.614-5.498-5.776-10.724-7.391-16.22c21.4,9.837,33.549,51.687,30.685,70.801c6.095-8.119,2.651-15.555,4.788-24.542
		c3.275-10.396,13.569-18.745-1.055-25.436c2.547-0.269,4.76-1.278,7.307-1.549c-1.408-1.139-3.49-3.752-4.899-4.891
		c11.927-8.996-6.99-17.294-14.437-21.913L1095.162,241.555z"/>
</g>
<linearGradient id="SVGID_32_" gradientUnits="userSpaceOnUse" x1="1545.6152" y1="702.6772" x2="1508.458" y2="702.6772" gradientTransform="matrix(1 0 0 -1 -272.5 836.192)">
	<stop  offset="0.016" style="stop-color:#932F1F"/>
	<stop  offset="0.4752" style="stop-color:#D14627"/>
	<stop  offset="0.5461" style="stop-color:#CC5235"/>
	<stop  offset="0.6683" style="stop-color:#C56250"/>
	<stop  offset="0.7629" style="stop-color:#C06B60"/>
	<stop  offset="0.8177" style="stop-color:#BE6E66"/>
	<stop  offset="1" style="stop-color:#E6BCA1"/>
</linearGradient>
<path opacity="0.1" fill="url(#SVGID_32_)" enable-background="new    " d="M1243.406,120.157c1.255-2.281,8.078-5.538,10.276-6.933
	c0.696-0.442,1.995-1.278,3.585-2.275c4.202-2.636,3.851-6.645,6.413-7.255c2.522-0.6,8.302,9.368,9.052,11.85
	c1.491,4.933-1.883,26.733-1.387,33.123c0.294,3.79-6.58-25.017-10.046-26.577c-1.777-0.8-6.437-3.598-6.437-3.598
	s-2.398,1.531-2.49,3.55c-0.167,3.668-1.898,7.463,1.029,19.692c0.262,1.096-6.76-9.993-6.76-9.993s-0.192,13.931,0.519,16.525
	c0.729,2.661,11.102,18.997,6.657,14.229c-1.496-1.605-10.179-4.825-11.502-6.575c-1.632-2.158-4.343-11.984-5.484-14.436
	c-1.236-2.658-1.014-3.892-0.234-6.718c0.294-1.066,1.609-6.438,2.6-8.79C1240.187,122.014,1241.749,123.169,1243.406,120.157z"/>
<g opacity="0.8">
	
		<linearGradient id="SVGID_33_" gradientUnits="userSpaceOnUse" x1="10148.6494" y1="923.0797" x2="10148.6494" y2="820.5944" gradientTransform="matrix(0.4205 -0.3633 -0.4022 -0.4655 -2665.5496 4275.1079)">
		<stop  offset="0.2384" style="stop-color:#0E162B"/>
		<stop  offset="0.5433" style="stop-color:#0F1228"/>
		<stop  offset="1" style="stop-color:#0F1026"/>
	</linearGradient>
	<path fill="url(#SVGID_33_)" d="M1230.656,180.777c2.211,1.598,14.99,13.209,16.398,13.395c0.586,0.197,7.946,5.757,9.007,5.543
		c2.469-0.028,10.256,7.143,11.317,6.929c2.36-0.636,4.677-2.333,7.622-2.771c1.386-6.467-1.588-10.957-3.464-19.862
		c-0.983-5.466-14.651-14.851-17.151-21.112c-2.161-0.997-4.487-3.324-9.307-4.986c-5.152-4.653-1.33-1.33-5.817-6.482
		c2.718,7.475,6.078,23.02,6.458,29.71c1.182,8.101-15.664-6.5-18.757-3.828"/>
</g>
<linearGradient id="SVGID_34_" gradientUnits="userSpaceOnUse" x1="1248.0422" y1="602.2715" x2="1360.3364" y2="649.918" gradientTransform="matrix(1 0 0 -1 -272.5 836.192)">
	<stop  offset="0" style="stop-color:#087D8C"/>
	<stop  offset="0.1064" style="stop-color:#146E7E"/>
	<stop  offset="0.3909" style="stop-color:#184E5F"/>
	<stop  offset="0.645" style="stop-color:#14394B"/>
	<stop  offset="0.8567" style="stop-color:#102C3F"/>
	<stop  offset="1" style="stop-color:#0F273B"/>
</linearGradient>
<path opacity="0.1" fill="url(#SVGID_34_)" enable-background="new    " d="M952.621,179.899c0,0,23.572,16.958,32.059,21.572
	c7.37,4.007,23.6,8.979,30.86,13.183c4.952,2.868,20.208,16.623,30.622,16.623c1.334,0-12.933-15.116-12.933-15.116
	s14,6.486,16.628,7.054c7.323,1.584,19.619,9.093,27.104,9.416c5.876,0.254,37.189,11.341,33.362,6.876
	c-7.054-8.23-22.106-22.806-26.399-25.482c-6.725-4.192-20.967-7.16-27.037-12.254c-3.849-3.23-14.588-13.828-14.588-13.828
	s-32.149-1.188-42.998-2.183C987.588,184.685,952.621,179.899,952.621,179.899z"/>
</svg>
