<?xml version="1.0" encoding="utf-8"?>
<!-- Generator: Adobe Illustrator 17.0.0, SVG Export Plug-In . SVG Version: 6.00 Build 0)  -->
<!DOCTYPE svg PUBLIC "-//W3C//DTD SVG 1.1//EN" "http://www.w3.org/Graphics/SVG/1.1/DTD/svg11.dtd">
<svg version="1.1" id="Layer_1" xmlns="http://www.w3.org/2000/svg" xmlns:xlink="http://www.w3.org/1999/xlink" x="0px" y="0px"
	 width="189.052px" height="188.39px" viewBox="92.354 108.404 189.052 188.39"
	 enable-background="new 92.354 108.404 189.052 188.39" xml:space="preserve">
<g>
	
		<linearGradient id="SVGID_1_" gradientUnits="userSpaceOnUse" x1="813.684" y1="-1468.6309" x2="650.0762" y2="-1374.171" gradientTransform="matrix(1 0 0 1 -545 1624)">
		<stop  offset="0.0897" style="stop-color:#5194B0"/>
		<stop  offset="1" style="stop-color:#184787"/>
	</linearGradient>
	<ellipse fill="url(#SVGID_1_)" cx="186.88" cy="202.599" rx="94.526" ry="94.195"/>
	<path opacity="0.1" fill="#F7F7F6" enable-background="new    " d="M261.588,260.311c0,0-22.501,36.483-74.708,36.483
		s-94.526-42.174-94.526-94.195s42.319-94.195,94.526-94.195c0,0-18.985,51.588,3.487,99.028
		C212.465,254.082,261.588,260.311,261.588,260.311z"/>
	<path opacity="0.1" fill="#F7F7F6" enable-background="new    " d="M231.159,284.1c0,0-13.011,8.214-44.279,10.171
		c-52.101,3.262-94.526-41.567-94.526-92.839c0-51.276,33.349-68.588,46.465-79.962c0,0-34.112,64.017-10.662,110.595
		C160.571,296.438,231.159,284.1,231.159,284.1z"/>
</g>
</svg>
