<?xml version="1.0" encoding="utf-8"?>
<!-- Generator: Adobe Illustrator 17.0.0, SVG Export Plug-In . SVG Version: 6.00 Build 0)  -->
<!DOCTYPE svg PUBLIC "-//W3C//DTD SVG 1.1//EN" "http://www.w3.org/Graphics/SVG/1.1/DTD/svg11.dtd">
<svg version="1.1" id="Layer_1" xmlns="http://www.w3.org/2000/svg" xmlns:xlink="http://www.w3.org/1999/xlink" x="0px" y="0px"
	 width="27.728px" height="27.632px" viewBox="1167.755 768.161 27.728 27.632"
	 enable-background="new 1167.755 768.161 27.728 27.632" xml:space="preserve">
<g>
	
		<linearGradient id="SVGID_1_" gradientUnits="userSpaceOnUse" x1="1466.1172" y1="1294.9502" x2="1442.1208" y2="1281.0958" gradientTransform="matrix(1 0 0 -1 -272.5 2070)">
		<stop  offset="0.0897" style="stop-color:#5194B0"/>
		<stop  offset="0.5124" style="stop-color:#494988"/>
		<stop  offset="0.588" style="stop-color:#4D4987"/>
		<stop  offset="0.6708" style="stop-color:#5A4786"/>
		<stop  offset="0.7569" style="stop-color:#6C4483"/>
		<stop  offset="0.8454" style="stop-color:#833F7F"/>
		<stop  offset="0.9347" style="stop-color:#9E367A"/>
		<stop  offset="1" style="stop-color:#B62975"/>
	</linearGradient>
	<ellipse fill="url(#SVGID_1_)" cx="1181.619" cy="781.977" rx="13.864" ry="13.816"/>
	<path opacity="0.1" fill="#F7F7F6" enable-background="new    " d="M1192.576,790.442c0,0-3.3,5.351-10.957,5.351
		s-13.864-6.185-13.864-13.816c0-7.63,6.207-13.816,13.864-13.816c0,0-2.784,7.567,0.511,14.524
		C1185.372,789.528,1192.576,790.442,1192.576,790.442z"/>
	<path opacity="0.1" fill="#F7F7F6" enable-background="new    " d="M1188.114,793.931c0,0-1.908,1.205-6.494,1.492
		c-7.641,0.478-13.864-6.096-13.864-13.617c0-7.52,4.891-10.06,6.815-11.728c0,0-5.003,9.39-1.564,16.221
		C1177.76,795.741,1188.114,793.931,1188.114,793.931z"/>
</g>
</svg>
