<?xml version="1.0" encoding="utf-8"?>
<!-- Generator: Adobe Illustrator 17.0.0, SVG Export Plug-In . SVG Version: 6.00 Build 0)  -->
<!DOCTYPE svg PUBLIC "-//W3C//DTD SVG 1.1//EN" "http://www.w3.org/Graphics/SVG/1.1/DTD/svg11.dtd">
<svg version="1.1" id="Layer_1" xmlns="http://www.w3.org/2000/svg" xmlns:xlink="http://www.w3.org/1999/xlink" x="0px" y="0px"
	 width="1280px" height="1010.471px" viewBox="0 0 1280 1010.471" enable-background="new 0 0 1280 1010.471" xml:space="preserve">
<g>
	<polygon opacity="0.05" fill="#CEDDF0" points="843.741,139.632 824.13,121.235 827.807,139.632 824.13,169.11 843.741,193.062 
		845.176,180.179 	"/>
	<path opacity="0.05" fill="#CEDDF0" d="M754.884,114.095c-3.042,3.042-1.165,13.067,0,17.208
		c1.857,6.599,11.122,17.324,14.3,23.399c6.957,13.298,15.379,42.803,24.228,54.925c7.43,10.179,38.74,45.992,37.728,33.431
		c-3.297-40.923-17.673-84.971-32.112-108.615c-4.239-6.942-15.403-10.439-23.051-13.208
		C769.623,118.935,759.662,109.317,754.884,114.095z"/>
	<polygon opacity="0.05" fill="#CEDDF0" points="512.542,143.977 478.56,147.246 466.303,170.494 458.131,185.57 472.023,180.869 
		478.56,167.826 497.354,158.604 512.542,154.177 	"/>
	
		<linearGradient id="SVGID_1_" gradientUnits="userSpaceOnUse" x1="-8577.8955" y1="-3143.6597" x2="-8547.9697" y2="-3143.6597" gradientTransform="matrix(0.9406 -0.3394 0.3394 0.9406 10339.0166 138.2737)">
		<stop  offset="0.016" style="stop-color:#932F1F"/>
		<stop  offset="0.4752" style="stop-color:#D14627"/>
		<stop  offset="0.5461" style="stop-color:#CC5235"/>
		<stop  offset="0.6683" style="stop-color:#C56250"/>
		<stop  offset="0.7629" style="stop-color:#C06B60"/>
		<stop  offset="0.8177" style="stop-color:#BE6E66"/>
		<stop  offset="1" style="stop-color:#E6BCA1"/>
	</linearGradient>
	<path opacity="0.2" fill="url(#SVGID_1_)" d="M1224.043,76.072c0,0-10.731-0.802-13.477,2.934
		c-2.114,2.876-1.463,10.607-1.977,14.138c-0.336,2.304-3.412,8.044-1.396,9.21c1.724,0.997,5.262-3.223,6.231-4.963
		c0.964-1.731,0.086-6.08,0.936-7.87c1.22-2.568,5.758-6.31,7.903-8.177c1.621-1.41,6.315-3.008,6.944-5.062
		C1229.613,74.958,1224.043,76.072,1224.043,76.072z"/>
	<linearGradient id="SVGID_2_" gradientUnits="userSpaceOnUse" x1="640" y1="0.564" x2="640" y2="1010.4706">
		<stop  offset="0.7075" style="stop-color:#0E162B"/>
		<stop  offset="0.7464" style="stop-color:#10162F"/>
		<stop  offset="0.8118" style="stop-color:#13123B"/>
		<stop  offset="0.8285" style="stop-color:#15113E"/>
		<stop  offset="0.9787" style="stop-color:#2B3175"/>
	</linearGradient>
	<path fill="url(#SVGID_2_)" d="M1238.721,73.352c-2.624,0.926-16.084-7.37-17.623-6.142c-7.792,6.221-22.8,18.042-26.66,24.217
		c-2.521,4.032-20.686-2.571-22.178-4.889c-1.617-2.512-9.427-10.955-10.443-9.329c-2.425,3.88-3.76,3.811-5.488,8.08
		c-1.996,4.932-16.503,3.104-21.389,4.35c-13.154,3.355-13.613,0.598-27.184,0.938c-9.74,0.244-29.381-4.064-38.015-8.579
		c-3.314-1.733-8.321-7.836-11.809-9.187c-3.349-1.298-10.782-0.207-14.358-0.557c-3.781-0.37-27.928,5.485-31.715,5.782
		c-6.641,0.521-6.694-2.55-8.648,0.057c-2.75,3.669-5.498,13.014-5.197,17.589c0.091,1.377,2.047,4.598-2.846,4.729
		c-5.444,0.146-15.789-4.289-20.856-6.284c-5.431-2.139-15.157-9.571-20.947-10.319c-3.928-0.508-12.419,1.015-15.434,3.584
		c-1.605,1.368-1.418,3.476,1.369,8.323c3.126,5.438,2.525,10.481,2.525,10.481l-2.337-3.169c0,0-14.148,0.545-15.825-1.775
		c-4.456-6.167-30.137-4.862-30.137-4.862s-3.75-3.714-4.528-5.267c-2.671-5.336-4.012-18.106-8.101-22.452
		c-2.502-2.66-13.412-5.785-13.412-5.785s-11.295-12.009-14.445-16.495c-4.067-5.791-8.729-5.084-8.729-5.084
		s-4.667,3.083-5.894,4.467c-2.111,2.382-5.706,7.894-6.414,10.997c-1.872,8.203-45.129,29.829-47.639,37.86
		c-0.219,0.699,0.088,0.622,0.282,0.514c-0.418,0.324-1.923,1.606-6.187,5.79c-4.086,4.01-41.792-53.075-43.649-50.18
		c-2.043,3.186-22.808,42.176-25.011,47.443c-2.109,5.042-82.076,22.652-97.604,30.744c-0.953-6.09-2.061-9.83-3.344-10.814
		c-9.139-7.01-25.018-54.858-26.974-57.435c-5.086-6.703-24.981-42.678-29.526-49.759c-1.719-2.678-6.971-6.643-9.765-8.167
		c-1.623-0.885-7.06-2.201-7.06-2.201s-4.625,0.918-6.485,7.745c-1.441,5.289-7.99,20.418-7.99,20.418s-9.202,6.643-10.653,9.993
		c-2.371,5.476,0.701,17.943,0,23.869c-0.204,1.724-2.471,6.491-2.471,6.491l-5.435-19.976c0,0-6.271-10.331-9.848-10.384
		c-5.79-0.085-12.418,12.342-15.38,17.318c-3.892,6.539-6.167,13.989-8.266,21.303c-0.789,2.751-2.052,13.581-2.052,13.581
		l-1.123,3.774c0,0-2.277-4.54-1.182-10.716c0.976-5.505,0.436-7.552-1.538-8.294c-3.708-1.394-12.211,0.056-15.735,1.866
		c-5.192,2.668-11.818,12.96-16.201,16.815c-4.089,3.597-12.315,11.279-17.485,12.99c-4.647,1.537-3.9-2.157-4.282-3.483
		c-1.269-4.406-6.813-12.622-10.858-14.781c-5.877-3.137-20.208-0.876-26.632,0.888c-3.663,1.006-9.885,5.688-13.316,7.319
		c-3.244,1.542-10.606,3.039-13.316,5.397c-2.822,2.455-5.46,9.894-7.99,12.65c-6.589,7.177-23.602,17.896-32.846,20.972
		c-12.881,4.286-35.933,7.022-48.626,2.208c-4.976-1.887-17.643-8.782-20.618-13.193c-2.559-3.794-4.008-2.99-7.595-5.832
		c-2.099-1.662-9.426-1.507-11.949,0.092c-0.691,0.438,0.093,1.591-3.646-1.346c-5.726-4.498-25.295-17.61-34.736-20.818
		c-1.864-0.633-4.987-0.537-7.768-0.476c-0.357,0.008,0.469,1.375-4.089-2.268c-2.111-1.687-19.618-5.554-33.626-11.271
		c-8.274-3.377-13.085-8.65-18.92-11.021c-17.572-7.139-87.098,76.446-91.358,78.534C5.248,158.902-1,157.64-1,157.64v852
		l539.919,0.83H663.92l617.08-0.83v-852C1281,157.64,1240.012,72.896,1238.721,73.352z"/>
	
		<linearGradient id="SVGID_3_" gradientUnits="userSpaceOnUse" x1="10014.7148" y1="43.9826" x2="10041.5889" y2="43.9826" gradientTransform="matrix(-1 0 0 1 10567.0713 0)">
		<stop  offset="0.016" style="stop-color:#932F1F"/>
		<stop  offset="0.4752" style="stop-color:#D14627"/>
		<stop  offset="0.5461" style="stop-color:#CC5235"/>
		<stop  offset="0.6683" style="stop-color:#C56250"/>
		<stop  offset="0.7629" style="stop-color:#C06B60"/>
		<stop  offset="0.8177" style="stop-color:#BE6E66"/>
		<stop  offset="1" style="stop-color:#E6BCA1"/>
	</linearGradient>
	<path opacity="0.1" fill="url(#SVGID_3_)" d="M535.448,0.05c1.795-0.444,7.06,2.201,7.06,2.201s9.543,5.25,9.842,14.376
		c0.296,9.061-9.411,35.02-9.411,35.02s-5.62,24.511-9.74,35.549c-2.089,5.597-6.868-21.022-7.481-26.965
		c-0.584-5.655,0.119-17.057,0-22.741c-0.14-6.654-0.865-20.578,2.094-26.539C531.009,4.509,532.218,0.85,535.448,0.05z"/>
	
		<linearGradient id="SVGID_4_" gradientUnits="userSpaceOnUse" x1="10378.5908" y1="106.6447" x2="10401.9287" y2="106.6447" gradientTransform="matrix(-1 0 0 1 10567.0713 0)">
		<stop  offset="0.016" style="stop-color:#932F1F"/>
		<stop  offset="0.4752" style="stop-color:#D14627"/>
		<stop  offset="0.5461" style="stop-color:#CC5235"/>
		<stop  offset="0.6683" style="stop-color:#C56250"/>
		<stop  offset="0.7629" style="stop-color:#C06B60"/>
		<stop  offset="0.8177" style="stop-color:#BE6E66"/>
		<stop  offset="1" style="stop-color:#E6BCA1"/>
	</linearGradient>
	<path opacity="0.1" fill="url(#SVGID_4_)" d="M169.512,96.957c0,0,6.659-0.266,7.765,0.474c2.966,1.986,4.975,9.481,6.658,12.628
		c1.098,2.054,2.275,4.733,4.439,8.189c1.057,1.688-6.044-1.246-7.546-2.553c-1.494-1.301-2.144-5.69-3.551-7.085
		c-2.019-2.002-7.104-6.526-9.081-8.569c-1.097-1.134-2.702-3.386-3.054-5.505c-0.023-0.139,3.483,2.729,3.914,2.688
		C169.297,97.202,169.512,96.957,169.512,96.957z"/>
	
		<linearGradient id="SVGID_5_" gradientUnits="userSpaceOnUse" x1="10424.7051" y1="93.0423" x2="10451.2461" y2="93.0423" gradientTransform="matrix(-1 0 0 1 10567.0713 0)">
		<stop  offset="0.016" style="stop-color:#932F1F"/>
		<stop  offset="0.4752" style="stop-color:#D14627"/>
		<stop  offset="0.5461" style="stop-color:#CC5235"/>
		<stop  offset="0.6683" style="stop-color:#C56250"/>
		<stop  offset="0.7629" style="stop-color:#C06B60"/>
		<stop  offset="0.8177" style="stop-color:#BE6E66"/>
		<stop  offset="1" style="stop-color:#E6BCA1"/>
	</linearGradient>
	<path opacity="0.1" fill="url(#SVGID_5_)" d="M118.001,78.48c0,0-2.87-5.097-2.019-4.649c1.965,1.034,5.444,3.907,8.499,5.789
		c3.967,2.444,7.369,3.845,7.369,3.845s0.247,3.332,2.908,5.907c2.66,2.574,1.335,5.4,1.335,6.487c0,1.087,8.134,17.67,5.876,16.347
		c-4.372-2.561-10.997-5.986-11.589-8.069c-0.8-2.82-7.458-5.37-8.89-7.928c-2.341-4.18-3.847-8.906-3.251-10.694
		C119.127,82.853,118.001,78.48,118.001,78.48z"/>
	
		<linearGradient id="SVGID_6_" gradientUnits="userSpaceOnUse" x1="-1141.6895" y1="2227.0977" x2="-1115.9371" y2="2227.0977" gradientTransform="matrix(-0.9406 0.3394 -0.3394 -0.9406 445.9447 2562.7617)">
		<stop  offset="0.016" style="stop-color:#932F1F"/>
		<stop  offset="0.4752" style="stop-color:#D14627"/>
		<stop  offset="0.5461" style="stop-color:#CC5235"/>
		<stop  offset="0.6683" style="stop-color:#C56250"/>
		<stop  offset="0.7629" style="stop-color:#C06B60"/>
		<stop  offset="0.8177" style="stop-color:#BE6E66"/>
		<stop  offset="1" style="stop-color:#E6BCA1"/>
	</linearGradient>
	<path opacity="0.1" fill="url(#SVGID_6_)" d="M760.86,121.478c1.839-0.191,5.894-4.467,5.894-4.467s7.195-8.178,4.378-16.863
		c-2.797-8.624-13.917-18.739-13.917-18.739S743.61,60.26,735.988,51.275c-3.865-4.556,0.675,22.105,2.115,27.904
		c1.37,5.518,5.901,16.004,7.718,21.391c2.127,6.306-0.651,8.642,4.156,13.245C755.172,118.791,757.55,121.822,760.86,121.478z"/>
	<g opacity="0.2">
		
			<linearGradient id="SVGID_7_" gradientUnits="userSpaceOnUse" x1="8735.5479" y1="182.8872" x2="8735.5479" y2="90.1739" gradientTransform="matrix(-1 0 0 1 9535.5137 0)">
			<stop  offset="0" style="stop-color:#087D8C"/>
			<stop  offset="0.1064" style="stop-color:#146E7E"/>
			<stop  offset="0.3909" style="stop-color:#184E5F"/>
			<stop  offset="0.645" style="stop-color:#14394B"/>
			<stop  offset="0.8567" style="stop-color:#102C3F"/>
			<stop  offset="1" style="stop-color:#0F273B"/>
		</linearGradient>
		<path fill="url(#SVGID_7_)" d="M787.695,90.174c6.293,5.578,15.036,9.239,19.879,12.871c1.144,0.858,1.813,9.802,4.204,13.902
			c1.367,2.05,2.392,2.392,2.733,5.467c0.683,4.1-1.025,7.858,0.342,11.958c1.025,2.733,2.733,4.442,4.1,6.833
			c2.05,3.417,3.417,7.175,3.417,10.933c-5.125-5.467-9.225-11.616-13.325-18.108c-2.05-3.417-5.466-11.958-9.566-12.641
			c0.342,1.367,0,3.075,0.683,4.783c-0.683-0.342-2.733,0-3.417-0.342c1.367,16.741,18.791,29.041,14.008,47.149
			c-0.683-0.683-1.708-1.367-2.392-2.05c-1.367,3.417-1.025,8.2-2.392,11.958c-1.367-3.758-1.025-8.541-2.392-12.641
			c-1.708-5.125-4.783-10.25-6.833-15.716c-2.392-6.833-6.15-12.983-9.225-19.816c-1.18-2.162-4.29-18.101-7.691-27.092
			c-2.51-6.635-2.598-4.784-1.872-6.525c0,0,2.196-2.795,3.552-3.848C783.047,96.055,787.695,90.174,787.695,90.174z"/>
	</g>
	<g opacity="0.2">
		
			<linearGradient id="SVGID_8_" gradientUnits="userSpaceOnUse" x1="9081.6494" y1="129.4588" x2="9050.0459" y2="97.8555" gradientTransform="matrix(-1 0 0 1 9535.5137 0)">
			<stop  offset="0" style="stop-color:#087D8C"/>
			<stop  offset="0.2428" style="stop-color:#176171"/>
			<stop  offset="0.5856" style="stop-color:#164152"/>
			<stop  offset="0.8492" style="stop-color:#112E41"/>
			<stop  offset="1" style="stop-color:#0F273B"/>
		</linearGradient>
		<path fill="url(#SVGID_8_)" d="M467.616,80.004c2.05,2.733-0.342,8.2,3.758,7.516c0.342,3.417,0.342,4.442,2.392,7.516
			c2.733,4.1,6.491,4.1,5.125,9.566c-0.342,1.708-2.392,2.392-2.733,4.442c0,1.367,2.733,3.758,2.733,5.467
			c4.442-1.708,4.783,2.733,5.125,5.808c0.342,0.683,1.367,2.733,1.025,3.417c-1.025,2.733-1.708,0.342-3.075,1.367
			c-5.467,5.125-13.325,12.641-9.566,21.524l-1.025,0.342c-3.075-4.442-1.708-10.25-1.367-15.375
			c0.342-6.15-0.683-11.616-1.708-17.424c-1.025-4.783-5.125-17.766-2.733-20.499"/>
	</g>
	<g opacity="0.1">
		
			<linearGradient id="SVGID_9_" gradientUnits="userSpaceOnUse" x1="8062.2798" y1="1307.1086" x2="7965.3276" y2="1307.1086" gradientTransform="matrix(-0.8389 -0.5443 -0.5443 0.8389 7715.0635 3434.9209)">
			<stop  offset="0" style="stop-color:#087D8C"/>
			<stop  offset="0.0809" style="stop-color:#146E7E"/>
			<stop  offset="0.2705" style="stop-color:#185464"/>
			<stop  offset="0.4596" style="stop-color:#164051"/>
			<stop  offset="0.6457" style="stop-color:#123245"/>
			<stop  offset="0.8275" style="stop-color:#102A3D"/>
			<stop  offset="1" style="stop-color:#0F273B"/>
		</linearGradient>
		<path fill="url(#SVGID_9_)" d="M314.411,206.326c-5.82-1.378-11.557-5.1-16.4-8.722c-5.062-3.284-11.192-11.576-17.431-10.829
			c2.39-5.163,0.602-5.364-3.128-9.222c-3.393-3.64-5.673-7.517-9.623-11.038c-0.42,2.125-1.396,4.369-1.597,6.157
			c-1.806-1.651-3.731-3.859-5.874-5.729c-0.42,2.125-1.177,4.032-1.259,6.376c-7.242-8.055-15.605-25.469-14.957-36.078
			c3.594,1.852,12.797,15.016,14.221,3.951c1.724,3.995,8.19,12.507,11,5.219c10.171,1.323,20.896,20.27,27.464,27.888
			c4.187,4.634,8.711,9.487,11.903,14.915c3.074,4.871,4.04,10.773,7.333,15.307"/>
	</g>
	
		<linearGradient id="SVGID_10_" gradientUnits="userSpaceOnUse" x1="7829.665" y1="-3480.4053" x2="7819.6001" y2="-3471.8931" gradientTransform="matrix(-0.213 0.9771 0.9771 0.213 6303.7153 -6779.3149)">
		<stop  offset="0.1687" style="stop-color:#1A5D6F"/>
		<stop  offset="0.1867" style="stop-color:#1A5A6C"/>
		<stop  offset="0.326" style="stop-color:#184759"/>
		<stop  offset="0.4721" style="stop-color:#15394B"/>
		<stop  offset="0.6264" style="stop-color:#122F42"/>
		<stop  offset="0.794" style="stop-color:#10293D"/>
		<stop  offset="1" style="stop-color:#0F273B"/>
	</linearGradient>
	<path opacity="0.2" fill="url(#SVGID_10_)" d="M1228.168,105.903c0,0,6.289,1.553,8.215,3.231
		c5.192,4.524,12.25,21.286,16.57,27.966c1.04,1.608,4.691,5.191,4.691,5.191s-5.283,0.296-6.924-0.193
		c-3.509-1.046-13.232-10.278-13.232-10.278s-2.188-8.582-3.135-11.94C1233.155,115.636,1228.168,105.903,1228.168,105.903z"/>
	<g opacity="0.2">
		
			<linearGradient id="SVGID_11_" gradientUnits="userSpaceOnUse" x1="7549.5625" y1="1131.9921" x2="7549.5625" y2="1057.317" gradientTransform="matrix(-0.8855 -0.4646 -0.4646 0.8855 8194.9648 2682.4495)">
			<stop  offset="0.3822" style="stop-color:#184355"/>
			<stop  offset="0.4978" style="stop-color:#15384B"/>
			<stop  offset="0.6451" style="stop-color:#122F42"/>
			<stop  offset="0.8052" style="stop-color:#10293C"/>
			<stop  offset="1" style="stop-color:#0F273B"/>
		</linearGradient>
		<path fill="url(#SVGID_11_)" d="M1000.156,119.299c-5.085-6.72-1.887-19.072-2.923-19.106
			c-10.853-0.356-12.408,9.297-13.832,7.579c-1.094-1.318-3.904,11.407-0.616,17.691c9.883,17.847,18.868,50.221,30.171,67.294
			c0.267-3.405-1.491-5.847-3.04-8.686c-1.927-4.05-11.088-50.7-12.201-55.336c-2.018-9.669-4.718-9.615-3.379-16.202
			c3.59,5.581,2.222,6.989,6.184,11.289L1000.156,119.299z"/>
	</g>
	<linearGradient id="SVGID_12_" gradientUnits="userSpaceOnUse" x1="414.4321" y1="106.0848" x2="402.6663" y2="116.0354">
		<stop  offset="0.1687" style="stop-color:#1A5D6F"/>
		<stop  offset="0.1867" style="stop-color:#1A5A6C"/>
		<stop  offset="0.326" style="stop-color:#184759"/>
		<stop  offset="0.4721" style="stop-color:#15394B"/>
		<stop  offset="0.6264" style="stop-color:#122F42"/>
		<stop  offset="0.794" style="stop-color:#10293D"/>
		<stop  offset="1" style="stop-color:#0F273B"/>
	</linearGradient>
	<polygon opacity="0.2" fill="url(#SVGID_12_)" points="398.548,89.094 399.953,94.385 401.829,106.264 412.249,118.768 
		417.668,133.773 417.459,121.061 410.79,109.181 409.331,103.138 402.246,91.675 	"/>
	<linearGradient id="SVGID_13_" gradientUnits="userSpaceOnUse" x1="513.3958" y1="63.4604" x2="498.6668" y2="75.917">
		<stop  offset="0.1687" style="stop-color:#1A5D6F"/>
		<stop  offset="0.1867" style="stop-color:#1A5A6C"/>
		<stop  offset="0.326" style="stop-color:#184759"/>
		<stop  offset="0.4721" style="stop-color:#15394B"/>
		<stop  offset="0.6264" style="stop-color:#122F42"/>
		<stop  offset="0.794" style="stop-color:#10293D"/>
		<stop  offset="1" style="stop-color:#0F273B"/>
	</linearGradient>
	<polygon opacity="0.2" fill="url(#SVGID_13_)" points="501.655,49.578 500.404,52.287 501.863,56.455 504.364,73.961 510.408,89.8 
		510.616,82.089 513.951,78.546 509.366,68.334 507.49,68.334 503.322,51.87 	"/>
	<linearGradient id="SVGID_14_" gradientUnits="userSpaceOnUse" x1="950.7373" y1="116.772" x2="944.8798" y2="121.7259">
		<stop  offset="0.1687" style="stop-color:#1A5D6F"/>
		<stop  offset="0.1867" style="stop-color:#1A5A6C"/>
		<stop  offset="0.326" style="stop-color:#184759"/>
		<stop  offset="0.4721" style="stop-color:#15394B"/>
		<stop  offset="0.6264" style="stop-color:#122F42"/>
		<stop  offset="0.794" style="stop-color:#10293D"/>
		<stop  offset="1" style="stop-color:#0F273B"/>
	</linearGradient>
	<path opacity="0.2" fill="url(#SVGID_14_)" d="M941.267,105.574l5.627,8.545l5.65,9.936c0,0,3.368,4.667,4.536,10.185
		c0.252,1.19-2.633-1.998-3.115-3.115c-0.661-1.53-3.575-2.142-4.12-3.718c-0.606-1.753-1.257-4.647-2.534-5.994
		c-1.143-1.206-4.135-2.959-5.002-4.377c-1.344-2.2-1.964-7.482-2.501-10.003c-0.187-0.88-0.625-3.543-0.625-3.543L941.267,105.574z
		"/>
	<g opacity="0.1">
		
			<linearGradient id="SVGID_15_" gradientUnits="userSpaceOnUse" x1="8635.167" y1="120.213" x2="8635.167" y2="93.4498" gradientTransform="matrix(-1 0 0 1 9535.5137 0)">
			<stop  offset="0.451" style="stop-color:#1B5464"/>
			<stop  offset="0.664" style="stop-color:#184153"/>
			<stop  offset="1" style="stop-color:#0F273B"/>
		</linearGradient>
		<path fill="url(#SVGID_15_)" d="M890.109,93.45l2.501,6.044l3.506,3.665c-4.243-4.835-2.96-3.947-4.933-5.624
			c1.085,4.933,1.637,11.404,6.078,13.795c4.783,2.392,8.883,7.175,13.325,8.883c-1.025-4.1-9.686-21.167-14.469-22.876"/>
	</g>
	<linearGradient id="SVGID_16_" gradientUnits="userSpaceOnUse" x1="890.3981" y1="107.7226" x2="890.3981" y2="81.3255">
		<stop  offset="0.451" style="stop-color:#1B5464"/>
		<stop  offset="0.664" style="stop-color:#184153"/>
		<stop  offset="1" style="stop-color:#0F273B"/>
	</linearGradient>
	<path opacity="0.2" fill="url(#SVGID_16_)" d="M894.081,100.428c0.502,1.766,0.834,7.294,0.834,7.294s-3.219-1.936-3.96-2.918
		c-1.707-2.264-3.337-7.862-3.96-10.629c-0.709-3.146-1.114-12.851-1.114-12.851l4.865,12.017
		C890.747,93.343,893.546,98.545,894.081,100.428z"/>
	<linearGradient id="SVGID_17_" gradientUnits="userSpaceOnUse" x1="1213.7711" y1="129.4205" x2="1213.7711" y2="80.9254">
		<stop  offset="0.3822" style="stop-color:#184355"/>
		<stop  offset="0.4978" style="stop-color:#15384B"/>
		<stop  offset="0.6451" style="stop-color:#122F42"/>
		<stop  offset="0.8052" style="stop-color:#10293C"/>
		<stop  offset="1" style="stop-color:#0F273B"/>
	</linearGradient>
	<path opacity="0.4" fill="url(#SVGID_17_)" d="M1199.811,85.006c-1.07,1.082-4.229,4.651-4.229,4.651s2.173,3.594,2.77,4.728
		c1.74,3.299,6.252,11.254,6.252,13.546c0,2.292,1.06-3.882,1.042-5.21c-0.03-2.218-1.459-8.753-1.459-8.753
		s4.722,4.022,5.627,5.835c1.178,2.361,1.258,7.814,1.667,10.42c0.744,4.739,2.34,12.665,2.918,18.965
		c0.129,1.411,1.47-4.015,1.667-5.419c0.377-2.683,0.054-8.14-0.208-10.837c-0.348-3.581-2.501-14.172-2.501-14.172
		s4.889,4.645,6.46,6.252c1.341,1.37,4.06,4.093,5.21,5.627c2.005,2.673,7.542,14.737,6.877,11.462
		c-1.282-6.315-2.642-9.124-3.751-12.087c-0.679-1.813-2.998-5.154-3.126-7.086c-0.112-1.678,2.263-4.824,1.876-6.461
		c-0.671-2.834-5.847-6.498-7.919-8.545c-1.549-1.529-6.46-5.835-6.46-5.835s-2.289-1.912-2.501-0.834
		c-0.316,1.605,1.042,6.461,1.042,6.461s-3.419-1.849-4.377-2.709c-0.442-0.397-1.241-1.323-1.459-1.876
		c-0.211-0.535-0.972-1.993-0.972-1.993S1200.984,83.821,1199.811,85.006z"/>
	<linearGradient id="SVGID_18_" gradientUnits="userSpaceOnUse" x1="1237.5219" y1="101.537" x2="1237.5219" y2="68.431">
		<stop  offset="0.451" style="stop-color:#1B5464"/>
		<stop  offset="0.664" style="stop-color:#184153"/>
		<stop  offset="1" style="stop-color:#0F273B"/>
	</linearGradient>
	<path opacity="0.2" fill="url(#SVGID_18_)" d="M1221.873,68.431c0,0,3.522,7.157,5.418,8.961c2.229,2.121,8.106,4.418,10.837,5.835
		c4.963,2.576,12.313,13.217,14.944,18.151c0.858,1.608-4.152-9.51-5.682-11.258c-1.628-1.859-3.563-7.967-5.146-9.864
		c-0.944-1.131-1.432-3.934-2.68-4.718c-1.463-0.918-2.908-2.922-4.622-3.132c-1.075-0.131-3.25,0.6-4.315,0.4
		C1228.221,72.356,1221.873,68.431,1221.873,68.431z"/>
	<g opacity="0.2">
		<linearGradient id="SVGID_19_" gradientUnits="userSpaceOnUse" x1="1022.5372" y1="112.7806" x2="1022.5372" y2="81.9847">
			<stop  offset="0.3822" style="stop-color:#184355"/>
			<stop  offset="0.4978" style="stop-color:#15384B"/>
			<stop  offset="0.6451" style="stop-color:#122F42"/>
			<stop  offset="0.8052" style="stop-color:#10293C"/>
			<stop  offset="1" style="stop-color:#0F273B"/>
		</linearGradient>
		<path fill="url(#SVGID_19_)" d="M1000.756,89.548c0.683-1.708,2.05-2.392,3.075-3.075c0.342-0.342,4.783-3.758,5.808-4.1
			c2.05-1.025,3.075,0.342,4.1,0c2.392-0.683,4.792,0.193,7.497,1.288c9.504,3.847,6.532,0.759,11.315,5.884
			c3.075,3.075,9.376,5.631,11.767,9.731c-4.1,0.683-6.322-3.236-9.739-2.211c1.367,4.442,3.075,11.616-0.683,15.716
			c-3.075-4.783-6.15-13.666-10.591-17.083c-4.783-4.442-8.541-0.342-12.983-0.342"/>
	</g>
	<g opacity="0.1">
		
			<linearGradient id="SVGID_20_" gradientUnits="userSpaceOnUse" x1="1736.9583" y1="1382.9137" x2="1802.4686" y2="1382.9137" gradientTransform="matrix(0.7915 0.6112 -0.6112 0.7915 -242.2707 -2022.4609)">
			<stop  offset="0.1687" style="stop-color:#1A5D6F"/>
			<stop  offset="0.1867" style="stop-color:#1A5A6C"/>
			<stop  offset="0.326" style="stop-color:#184759"/>
			<stop  offset="0.4721" style="stop-color:#15394B"/>
			<stop  offset="0.6264" style="stop-color:#122F42"/>
			<stop  offset="0.794" style="stop-color:#10293D"/>
			<stop  offset="1" style="stop-color:#0F273B"/>
		</linearGradient>
		<path fill="url(#SVGID_20_)" d="M281.951,140.7c6.961,2.833,14.083,19.836,16.328,26.143c2.245,6.308,3.043,12.515,7.473,17.968
			c4.111,5.207,9.278,9.706,13.636,14.595c2.314-4.313-1.898-8.073-3.535-11.878c-2.491-5.989-2.479-12.587-3.204-18.23
			c-1.451-11.286,23.942-39.116,14.78-45.682c0,0-14.415,9.288-19.487,11.282c-3.374,1.327-9.564,3.246-15.736,4.356
			C286.713,140.242,281.951,140.7,281.951,140.7z"/>
	</g>
	<g opacity="0.2">
		<linearGradient id="SVGID_21_" gradientUnits="userSpaceOnUse" x1="1029.9109" y1="86.1846" x2="1066.5249" y2="86.1846">
			<stop  offset="0.1687" style="stop-color:#1A5D6F"/>
			<stop  offset="0.1867" style="stop-color:#1A5A6C"/>
			<stop  offset="0.326" style="stop-color:#184759"/>
			<stop  offset="0.4721" style="stop-color:#15394B"/>
			<stop  offset="0.6264" style="stop-color:#122F42"/>
			<stop  offset="0.794" style="stop-color:#10293D"/>
			<stop  offset="1" style="stop-color:#0F273B"/>
		</linearGradient>
		<path fill="url(#SVGID_21_)" d="M1029.911,74.479c5.632,7.644,8.141,1.124,15.784,4.745c11.264,5.23,24.512,29.453,19.881,17.929
			c-3.629-9.03-3.3-13.318-6.921-18.145c-2.414-3.218-2.858-5.098-7.834-6.757c-1.013-0.338-3.992,0.248-8.203,0
			c-0.861-0.051-4.911,0.861-6.228,0.962L1029.911,74.479z"/>
	</g>
	<g opacity="0.2">
		
			<linearGradient id="SVGID_22_" gradientUnits="userSpaceOnUse" x1="1720.1333" y1="830.5375" x2="1664.1075" y2="830.5375" gradientTransform="matrix(0.949 0.3153 -0.3153 0.949 -257.7493 -1215.5881)">
			<stop  offset="0.3822" style="stop-color:#184355"/>
			<stop  offset="0.4978" style="stop-color:#15384B"/>
			<stop  offset="0.6451" style="stop-color:#122F42"/>
			<stop  offset="0.8052" style="stop-color:#10293C"/>
			<stop  offset="1" style="stop-color:#0F273B"/>
		</linearGradient>
		<path fill="url(#SVGID_22_)" d="M1064.641,82.105c4.844,9.664,12.087,16.272,17.057,25.554c1.275,2.543,2.041,5.341,3.697,8.011
			c2.93,3.941,4.964,2.921,8.273,4.445c5.473,2.666,8.023,9.025,13.623,11.309c-2.68-8.521-6.317-17.266-11.793-23.748
			c-4.33-4.83-9.899-12.402-9.524-19.908c-6.361,0.006-8.788-3.303-13.571-3.954C1070.478,83.551,1064.641,82.105,1064.641,82.105z"
			/>
	</g>
	<g opacity="0.2">
		
			<linearGradient id="SVGID_23_" gradientUnits="userSpaceOnUse" x1="1481.9086" y1="939.4064" x2="1453.2533" y2="948.9273" gradientTransform="matrix(0.949 0.3153 -0.3153 0.949 -257.7493 -1215.5881)">
			<stop  offset="0.1687" style="stop-color:#1A5D6F"/>
			<stop  offset="0.1867" style="stop-color:#1A5A6C"/>
			<stop  offset="0.326" style="stop-color:#184759"/>
			<stop  offset="0.4721" style="stop-color:#15394B"/>
			<stop  offset="0.6264" style="stop-color:#122F42"/>
			<stop  offset="0.794" style="stop-color:#10293D"/>
			<stop  offset="1" style="stop-color:#0F273B"/>
		</linearGradient>
		<path fill="url(#SVGID_23_)" d="M822.565,119.235c5.072,1.949,12.968,3.077,12.968,3.077s6.615,5.339,7.761,6.991
			c2.293,3.305-1.394,5.472,0.137,9.795c-0.509,0.255-1.399,0.383-1.908,0.638c2.808,9.411,8.159,17.548,10.84,27.341
			c-4.968-6.738-18.587-14.23-20.504-22.497c-0.255-0.509,1.395-4.199,1.394-5.472c-0.002-2.544-0.384-2.671-2.041-5.341
			c-1.401-2.161-4.329-3.558-5.603-6.101c-1.656-2.67-0.768-5.342-3.442-7.502"/>
	</g>
	<linearGradient id="SVGID_24_" gradientUnits="userSpaceOnUse" x1="1165.6383" y1="91.9799" x2="1165.6383" y2="76.9055">
		<stop  offset="0.016" style="stop-color:#932F1F"/>
		<stop  offset="0.4752" style="stop-color:#D14627"/>
		<stop  offset="0.5461" style="stop-color:#CC5235"/>
		<stop  offset="0.6683" style="stop-color:#C56250"/>
		<stop  offset="0.7629" style="stop-color:#C06B60"/>
		<stop  offset="0.8177" style="stop-color:#BE6E66"/>
		<stop  offset="1" style="stop-color:#E6BCA1"/>
	</linearGradient>
	<path opacity="0.15" fill="url(#SVGID_24_)" d="M1161.919,76.906c0,0,1.784,0.498,2.271,0.861c1.243,0.927,3.219,3.48,3.759,4.934
		c0.676,1.82,2.428,6.421,2.349,9.162c-0.023,0.819-1.997-2.908-2.271-3.681c-0.354-0.996-1.085-3.567-1.645-4.464
		c-0.343-0.55-1.808-0.74-2.349-1.096c-0.614-0.404-1.773-1.355-2.193-1.958c-0.337-0.483-0.91-1.606-0.861-2.193
		C1161.017,78.017,1161.919,76.906,1161.919,76.906z"/>
	<linearGradient id="SVGID_25_" gradientUnits="userSpaceOnUse" x1="856.2996" y1="85.1065" x2="856.2996" y2="41.4176">
		<stop  offset="0.016" style="stop-color:#932F1F"/>
		<stop  offset="0.4752" style="stop-color:#D14627"/>
		<stop  offset="0.5461" style="stop-color:#CC5235"/>
		<stop  offset="0.6683" style="stop-color:#C56250"/>
		<stop  offset="0.7629" style="stop-color:#C06B60"/>
		<stop  offset="0.8177" style="stop-color:#BE6E66"/>
		<stop  offset="1" style="stop-color:#E6BCA1"/>
	</linearGradient>
	<path opacity="0.1" fill="url(#SVGID_25_)" d="M845.14,41.418c0,0,3.455,3.225,4.112,4.626c1.392,2.966,1.483,9.759,2.57,12.85
		c1.264,3.597,5.205,10.185,7.025,13.535c1.739,3.203,7.196,12.678,7.196,12.678s-0.693-10.81-0.343-14.392
		c0.197-2.017,1.761-7.911,1.761-7.911l-11.698-12.82c0,0-3.349-4.655-4.789-5.989c-0.776-0.719-2.388-1.8-3.406-2.09
		C846.991,41.742,845.14,41.418,845.14,41.418z"/>
	<linearGradient id="SVGID_26_" gradientUnits="userSpaceOnUse" x1="877.5338" y1="88.019" x2="877.5338" y2="64.2495">
		<stop  offset="0.016" style="stop-color:#932F1F"/>
		<stop  offset="0.4752" style="stop-color:#D14627"/>
		<stop  offset="0.5461" style="stop-color:#CC5235"/>
		<stop  offset="0.6683" style="stop-color:#C56250"/>
		<stop  offset="0.7629" style="stop-color:#C06B60"/>
		<stop  offset="0.8177" style="stop-color:#BE6E66"/>
		<stop  offset="1" style="stop-color:#E6BCA1"/>
	</linearGradient>
	<path opacity="0.1" fill="url(#SVGID_26_)" d="M877.713,66.66c1.313,0.617,3.188,2.011,3.188,2.011s1.293,1.572,1.492,2.208
		c0.576,1.841,0.096,7.717,0.096,7.717l0.857,9.423l-4.283-9.252l-2.399-6.853l-4.942-7.665
		C871.722,64.25,876.715,66.191,877.713,66.66z"/>
	<linearGradient id="SVGID_27_" gradientUnits="userSpaceOnUse" x1="953.9739" y1="100.3547" x2="953.9739" y2="83.7351">
		<stop  offset="0.016" style="stop-color:#932F1F"/>
		<stop  offset="0.4752" style="stop-color:#D14627"/>
		<stop  offset="0.5461" style="stop-color:#CC5235"/>
		<stop  offset="0.6683" style="stop-color:#C56250"/>
		<stop  offset="0.7629" style="stop-color:#C06B60"/>
		<stop  offset="0.8177" style="stop-color:#BE6E66"/>
		<stop  offset="1" style="stop-color:#E6BCA1"/>
	</linearGradient>
	<path opacity="0.1" fill="url(#SVGID_27_)" d="M950.678,83.736c3.766-0.031,5.741,0.933,5.741,0.933s4.634,3.089,5.738,4.549
		c0.705,0.932,1.795,4.316,1.795,4.316s-1.437,1.266-1.623,1.852c-0.379,1.19,0.514,4.969,0.514,4.969s-3.607-6.383-5.483-7.881
		c-1.336-1.067-4.852-1.726-6.339-2.57c-1.915-1.087-7.024-5.311-7.024-5.311S948.994,83.75,950.678,83.736z"/>
	<linearGradient id="SVGID_28_" gradientUnits="userSpaceOnUse" x1="1174.6022" y1="114.2122" x2="1174.6022" y2="85.9614">
		<stop  offset="0.016" style="stop-color:#932F1F"/>
		<stop  offset="0.4752" style="stop-color:#D14627"/>
		<stop  offset="0.5461" style="stop-color:#CC5235"/>
		<stop  offset="0.6683" style="stop-color:#C56250"/>
		<stop  offset="0.7629" style="stop-color:#C06B60"/>
		<stop  offset="0.8177" style="stop-color:#BE6E66"/>
		<stop  offset="1" style="stop-color:#E6BCA1"/>
	</linearGradient>
	<path opacity="0.15" fill="url(#SVGID_28_)" d="M1174.852,90.308c0.299,0.464,0.744,2.345,0.744,2.345l2.021,12.831l-0.338,8.728
		c0,0-1.301-12.091-3.427-15.42c-0.493-0.773-1.376-2.013-1.743-2.853c-0.723-1.656-0.484-6.57-0.484-6.57l-0.005-3.408
		C1171.621,85.961,1174.023,89.021,1174.852,90.308z"/>
</g>
</svg>
