<?xml version="1.0" encoding="utf-8"?>
<!-- Generator: Adobe Illustrator 17.0.0, SVG Export Plug-In . SVG Version: 6.00 Build 0)  -->
<!DOCTYPE svg PUBLIC "-//W3C//DTD SVG 1.1//EN" "http://www.w3.org/Graphics/SVG/1.1/DTD/svg11.dtd">
<svg version="1.1" id="Layer_1" xmlns="http://www.w3.org/2000/svg" xmlns:xlink="http://www.w3.org/1999/xlink" x="0px" y="0px"
	 width="1280px" height="462.653px" viewBox="0 0 1280 462.653" enable-background="new 0 0 1280 462.653" xml:space="preserve">
<g>
	<linearGradient id="SVGID_1_" gradientUnits="userSpaceOnUse" x1="60.2289" y1="166.8581" x2="60.2289" y2="71.6874">
		<stop  offset="0.3806" style="stop-color:#31154E"/>
		<stop  offset="0.6015" style="stop-color:#32164F"/>
		<stop  offset="0.7669" style="stop-color:#351953"/>
		<stop  offset="0.9138" style="stop-color:#3A1E5A"/>
		<stop  offset="0.9992" style="stop-color:#3E225F"/>
	</linearGradient>
	<polygon fill="url(#SVGID_1_)" points="-1,71.687 69.848,107.296 93.264,133.906 121.458,142.187 90.636,152.005 69.994,138.285 
		38.286,150.968 -1,166.858 	"/>
	<linearGradient id="SVGID_2_" gradientUnits="userSpaceOnUse" x1="640" y1="462.6528" x2="640" y2="1.861437e-05">
		<stop  offset="0.0897" style="stop-color:#30499B"/>
		<stop  offset="0.2879" style="stop-color:#4469B0"/>
		<stop  offset="0.4656" style="stop-color:#5B5EA9"/>
		<stop  offset="0.4965" style="stop-color:#6359A5"/>
		<stop  offset="0.59" style="stop-color:#73489C"/>
		<stop  offset="0.6445" style="stop-color:#794098"/>
		<stop  offset="0.9815" style="stop-color:#381D58"/>
	</linearGradient>
	<path fill="url(#SVGID_2_)" d="M1274.698,69.993l-19.468-3.62l-9.734,3.62l-45.02-11.464l-32.853-13.878l-10.342-0.603l0.608,7.241
		l-14.601-4.224l-28.594-6.034l-19.468-9.654l-12.167,3.62l-7.301-7.844l-14.601-4.827L1020.396,0l-41.37,30.169l-56.91,26.673
		l-26.438-9.175l-10.343-0.603l-3.042-5.431l-59.34,18.585c0,0-130.863,66.372-177.545,80.3
		c-44.753,13.354-184.566,28.876-184.566,28.876l-70.517,1.328l-32.134-5.754l-24.993-5.312l-14.728-5.312l-28.117-2.213
		l-9.372-6.197c0,0-11.684-2.217-15.621-2.656c-4.109-0.458-12.408-1.371-16.513-0.885c-2.279,0.27-8.799,2.618-8.799,2.618
		s-5.508-7.507-7.886-9.464c-7.966-6.552-36.193-19.804-36.193-19.804l-11.268-9.56l-2.39,6.487l-11.268,5.805
		c0,0-5.693-4.213-7.853-5.122c-4.352-1.831-18.438-4.097-18.438-4.097l-3.073-3.756l-4.78,0.683l-11.175-7.052l-0.399,5.052
		L97.542,115.35l-13.566-0.972l-11.56,11.341l-16.75,2.659l-8.508-6.381l-17.129,14.916c0,0-13.909,15.489-18.724,17.587
		C7.856,156.002-1,152.314-1,152.314v310.225l1282,0.114V73.202L1274.698,69.993z"/>
	<g>
		<linearGradient id="SVGID_3_" gradientUnits="userSpaceOnUse" x1="865.0708" y1="58.2956" x2="932.2278" y2="58.2956">
			<stop  offset="0.3806" style="stop-color:#31154E"/>
			<stop  offset="0.7766" style="stop-color:#46276A"/>
			<stop  offset="0.8912" style="stop-color:#5C2E79"/>
			<stop  offset="1" style="stop-color:#8A4D9E"/>
		</linearGradient>
		<path fill="url(#SVGID_3_)" d="M881.397,42.977c-0.467,1.096-1.308,3.499-1.02,4.655c0.305,1.224,2.453,2.88,3.265,3.846
			c0.975,1.159,4.715,3.394,3.878,4.655c-1.535,2.311-7.875-2.787-10.612-3.238c-1.612-0.266-6.531-0.202-6.531-0.202l-5.306,3.643
			c0,0,7.834,0.01,10.408,0.405c2.666,0.409,7.972,1.678,10.408,2.834c1.416,0.672,5.59,2.154,5.102,3.643
			c-1.223,3.734-15.714-0.202-15.714-0.202s6.417,3.877,8.775,4.655c2.891,0.955,9.275,0.549,12.041,1.822
			c1.899,0.874,4.236,5.475,6.326,5.465c5.438-0.025,11.614-11.658,16.326-14.371c3.73-2.148,13.484-8.485,13.484-8.485
			l-10.111,4.741c0,0-19.632-7.554-26.438-9.174c-2.653-0.632-10.813-1.452-10.813-1.452l-2.571-4.582
			C882.295,41.634,881.555,42.606,881.397,42.977z"/>
		<linearGradient id="SVGID_4_" gradientUnits="userSpaceOnUse" x1="1141.7745" y1="176.3642" x2="1141.7745" y2="5.449692e-09">
			<stop  offset="0.3806" style="stop-color:#31154E"/>
			<stop  offset="0.6899" style="stop-color:#46276A"/>
			<stop  offset="0.8544" style="stop-color:#5C2E79"/>
			<stop  offset="1" style="stop-color:#8A4D9E"/>
		</linearGradient>
		<path fill="url(#SVGID_4_)" d="M1020.397,0c0,0-3.704,4.711-4.782,6.391c-1.271,1.981-4.505,8.266-4.505,8.266
			s-1.593,10.114-2.478,13.405c-1.001,3.722-3.983,10.858-5.181,14.522c-0.27,0.825-0.901,3.351-0.901,3.351
			s2.366,3.727,2.703,5.138c0.816,3.423-0.054,10.56-0.225,14.075c-0.057,1.172,0,4.692,0,4.692s4.517-1.047,5.857-1.787
			c6.581-3.633,22.751-19.66,22.751-19.66l2.027,0.447v4.245c0,0-5.063,8.896-6.307,12.064c-2.031,5.174-4.018,16.202-5.857,21.448
			c-0.564,1.608-2.703,6.256-2.703,6.256v5.362c0,0,24.392-12.297,32.973-13.86c4.823-0.878,7.568-4.076,12.116-2.246
			c7.998,3.217,24.824,22.27,32.4,26.383c1.128,0.612,4.956,1.34,4.956,1.34l-2.027,5.809c0,0-3.68,3.755-4.28,5.362
			c-0.958,2.566-1.229,8.321-0.451,10.947c1.435,4.845,8.646,12.455,11.696,16.484c4.142,5.472,17.236,21.369,17.236,21.369
			s50.442,8.612,67.098,6.105c9.541-1.436,26.88-10.749,35.703-14.653c7.479-3.309,21.404-13.289,29.548-14.042
			c7.659-0.709,23.236,5.176,23.236,5.176v-80.7c0,0-15.981-4.695-19.113-6.118c-3.537-1.608-12.782,2.139-15.374,2.278
			c-11.598,0.619-35.115-6.831-46.123-10.534c-8.45-2.843-23.662-10.744-32.319-12.876c-2.515-0.619-11.132-0.484-11.132-0.484
			l0.952,7.335c0,0-4.514-1.952-10.051-3.366c-9.007-2.3-21.558-4.786-28.022-7.122c-5.109-1.846-24.589-9.424-24.589-9.424
			l-12.167,3.62l-7.876-8.004L1020.397,0z"/>
		<linearGradient id="SVGID_5_" gradientUnits="userSpaceOnUse" x1="1042.9723" y1="188.7145" x2="1042.9723" y2="131.1862">
			<stop  offset="0.2223" style="stop-color:#31154E"/>
			<stop  offset="0.505" style="stop-color:#46276A"/>
			<stop  offset="0.6966" style="stop-color:#5C2E79"/>
			<stop  offset="0.849" style="stop-color:#743E8A"/>
			<stop  offset="1" style="stop-color:#8A4D9E"/>
		</linearGradient>
		<path fill="url(#SVGID_5_)" d="M960.462,187.138c0,0,7.432-5.489,11.163-8.732c0.99-0.86,8.276-3.966,9.486-4.472
			c1.082-0.452,3.523,0.391,4.619,0.808c1.792,0.683,6.521,4.042,6.521,4.042s17.339-1.666,23.095-2.425
			c7.228-0.954,21.533-4.007,28.8-4.581c7.245-0.573,29.072,0,29.072,0s1.254-3.619,1.087-4.851
			c-0.175-1.286-2.166-3.313-2.445-4.581c-0.523-2.372-0.472-7.494,0.543-9.701c1.18-2.565,5.241-6.116,6.686-8.541
			c1.18-1.981,7.167-10.889,8.797-12.519c2.672-2.672-2.143,8.797,2.992,12.976c5.433,4.421,17.167,12.593,21.193,18.324
			c0.871,1.24,1.732,4.209,2.174,5.659c0.444,1.454,1.359,5.928,1.359,5.928s2.793-3.043,3.26-4.312
			c0.705-1.916,0.474-8.152,0.474-8.152l6.141,7.698c0,0,0.175,5.828-2.048,7.501c-1.845,1.389-10.273,3.192-10.273,3.192
			s-2.39,1.788-3.407,2.28c-2.552,1.235-5.822-1.232-8.548-2.01c-3.061-0.874-9.316-2.456-12.498-2.425
			c-2.57,0.025-7.493,1.92-10.053,2.156c-7.308,0.673-22.008-1.005-29.344-0.808c-4.156,0.111-12.441,0.896-16.574,1.347
			c-4.43,0.484-17.661,2.425-17.661,2.425s-2.257,2.509-3.26,2.964c-3.238,1.469-10.583,1.359-14.129,1.617
			c-4.27,0.311-12.884,1.177-17.117,0.539c-1.846-0.278-7.064-2.425-7.064-2.425L960.462,187.138z"/>
		<linearGradient id="SVGID_6_" gradientUnits="userSpaceOnUse" x1="943.7647" y1="175.5839" x2="943.7647" y2="107.1363">
			<stop  offset="0.2223" style="stop-color:#31154E"/>
			<stop  offset="0.505" style="stop-color:#46276A"/>
			<stop  offset="0.6966" style="stop-color:#5C2E79"/>
			<stop  offset="0.849" style="stop-color:#743E8A"/>
			<stop  offset="1" style="stop-color:#8A4D9E"/>
		</linearGradient>
		<path fill="url(#SVGID_6_)" d="M872.827,170.96c6.89,4.742,20.004,5.46,28.69,3.844c4.782-0.889,13.386-5.816,17.932-7.545
			c6.68-2.541,20.501-7.657,27.17-8.893c5.402-1.001,20.884,0.44,27.442-1.617c5.69-1.784,16.2-8.141,20.378-12.396
			c3.115-3.172,19.378-12.501,21.02-17.444c0.671-2.019-11.154,2.452-12.912,3.649c-1.355,0.923-18.245,11.509-18.245,11.509
			s6.541-6.543,6.605-7.146c0.102-0.959,0.241-2.997,0.815-3.773c1.481-2,6.717-3.339,8.694-4.851
			c2.546-1.946,4.667-7.13,5.49-10.227c0.482-1.817,5.575-7.756,4.013-8.803c-1.253-0.839-7.171,2.55-8.416,3.401
			c-1.272,0.869-4.627,4.421-5.695,5.532c-3.965,4.121-11.795,9.053-16.857,11.715c-5.826,3.064-14.212,8.61-19.391,11.458
			c-1.744,0.959,0,4.401,0,4.401s-6.688,0.805-9.681,1.387c-2.17,0.422-6.579,0.975-8.695,1.617
			c-5.234,1.588-15.649,5.453-20.106,8.623c-1.561,1.11-3.494,4.718-5.162,5.659c-2.685,1.515-9.177,1.163-12.227,1.617
			c-2.86,0.425-8.818,0.607-11.411,1.886c-1.502,0.741-3.411,2.247-4.953,2.901c-1.188,0.504-3.822,1.501-5.1,1.68
			C878.098,169.724,869.394,168.597,872.827,170.96z"/>
		<linearGradient id="SVGID_7_" gradientUnits="userSpaceOnUse" x1="799.0303" y1="187.9878" x2="799.0303" y2="166.4423">
			<stop  offset="0.1981" style="stop-color:#31154E"/>
			<stop  offset="0.6129" style="stop-color:#46276A"/>
			<stop  offset="0.8165" style="stop-color:#5C2E79"/>
		</linearGradient>
		<path fill="url(#SVGID_7_)" d="M752.868,187.762c6.669,1.126,25.949-2.315,31.887-2.498c4.955-0.153,15.631-5.064,20.461-6.182
			c6.632-1.535,18.814-2.469,25.185-4.867c3.29-1.238,10.617-4.626,14.957-7.474c1.758-1.153-8.478,1.392-10.578,1.492
			c-2.453,0.116-7.325,0.803-9.764,1.085c-4.022,0.465-12.131,1.038-16.079,1.933c-2.867,0.651-8.219,3.434-11.14,3.773
			c-2.101,0.244-6.382-1.364-8.423-0.808c-2.105,0.573-5.039,4.31-7.064,5.12c-2.337,0.935-12.445,3.287-14.931,3.68
			C764.532,183.466,750.026,187.282,752.868,187.762z"/>
		<path fill="#9B55A1" d="M1057.69,84.418c1.351-2.207-1.815,7.034,0.755,9.189c1.538,1.29,5.257,2.277,6.779,3.585
			c1.69,1.452,0.64,8.89,0.64,8.89s2.628,0.685,3.521,0.635c0.834-0.046,2.428-1.266,3.201-0.952
			c1.517,0.616,3.113,4.08,3.201,5.715c0.21,3.876-4.058,10.975-6.082,14.287c-1.239,2.027-4.703,5.368-6.082,7.302
			c-1.615,2.266-4.618,6.988-5.762,9.525c-0.992,2.199-2.881,9.207-2.881,9.207s-1.01-2.472-0.978-4.853
			c0.04-3.017,0.301-13.889,1.298-16.736c0.79-2.254,5.338-5.27,5.762-7.62c0.369-2.048-0.767-6.668-2.386-7.977
			c-0.684-0.553-2.946,0.398-3.509-0.278c-1.498-1.803,1.45-7.029,0.982-9.326c-0.159-0.78-0.973-2.23-1.544-2.784
			c-0.708-0.687-2.875-1.053-3.509-1.81c-0.913-1.089-2.01-4.046-1.684-5.429C1051.18,87.493,1055.802,87.502,1057.69,84.418z"/>
		<path fill="#9B55A1" d="M1041.375,88.375c1.333-0.412,7.162-2.571,5.925-1.927c-2.08,1.082-4.652,6.813-6.025,7.566
			c-1.653,0.907-4.714,3.175-6.456,3.898c-1.736,0.72-6.121,0.344-7.298,1.81c-0.85,1.058,0.832,4.481-0.14,5.429
			c-0.302,0.294-1.263,0-1.684,0c-1.193,0-3.579,0.008-4.772,0c-2.632-0.017-7.93-0.568-10.526-0.139
			c-1.028,0.17-2.922,1.127-3.93,1.392c-1.55,0.408-4.83,0.512-6.316,1.114c-2.474,1.002-6.311,5.136-8.842,5.985
			c-2.498,0.839-7.943,0.037-10.526,0.557c-5.262,1.058-15.217,5.271-20.21,7.238c-12.44,4.901-36.768,16.041-49.122,21.158
			c-6.175,2.558-18.413,8.053-24.842,9.883c-7.373,2.099-37.32,8.19-30.189,5.374c24.015-9.484,43.396-15.752,57.669-21.497
			c16.139-6.495,47.137-22.851,63.862-27.639c3.104-0.889,9.608-1.278,12.772-1.919c6.069-1.229,17.978-4.685,23.997-6.142
			c2.077-0.503,6.12-2.422,6.12-2.422s5.453-2.037,6.638-2.731C1030.881,93.373,1037.449,89.589,1041.375,88.375z"/>
		<path fill="#873592" d="M390.053,170.593c0,0,12.906,0.32,19.672-0.291c11.181-1.009,39.136-0.246,50.345-0.858
			c11.04-0.603,56.745-6.869,56.745-6.869s-19.877,7.984-18.379,9.486c5.365,5.384,20.557,0.495,28.089,1.518
			c25.45,3.457,66.279,3.274,90.946-3.884c14.378-4.172,37.04-8.924,51.461-12.946c3.265-0.91,44.34-16.83,32.445-7.965
			c-17.643,13.149-71.521,36.343-56.395,31.915c9.278-2.716,69.099-16.548,78.689-17.768c8.525-1.085,24.593-8.239,33.141-9.13
			c9.938-1.037,29.933,3.246,39.892,2.435c11.962-0.975,35.306-7.227,46.811-10.642c18.486-5.487,55.117-18.079,72.363-26.706
			c7.803-3.904,18.78-11.007,29.305-18.955c3.997-3.018-7.799,13.017-11.467,16.428c-6.786,6.31-23.315,15.355-31.853,18.955
			c-34.939,14.732-109.524,30.886-146.524,39.174c-48.043,10.761-144.539,34.932-193.773,35.154
			c-31.325,0.141-92.92-14.391-123.484-21.254C423.215,185.053,390.053,170.593,390.053,170.593z"/>
	</g>
	<linearGradient id="SVGID_8_" gradientUnits="userSpaceOnUse" x1="107.4819" y1="174.3444" x2="49.025" y2="115.8876">
		<stop  offset="0.3806" style="stop-color:#31154E"/>
		<stop  offset="0.7766" style="stop-color:#46276A"/>
		<stop  offset="0.8912" style="stop-color:#5C2E79"/>
		<stop  offset="1" style="stop-color:#8A4D9E"/>
	</linearGradient>
	<path fill="url(#SVGID_8_)" d="M7.728,158.276c4.146-6.513,14.103-14.433,22.301-21.362c2.73-2.307,8.51-6.585,10.926-9.219
		c1.201-1.309,5.396-6.203,6.841-7.235c2.338-1.67,4.852,4.754,7.499,5.528c4.117,1.204,13.126-0.025,17.072-1.707
		c3.509-1.496,8.03-8.583,11.609-9.902c2.483-0.915,7.947,0.207,10.585,0c4.844-0.381,14.129-3.901,18.438-6.146
		c3.301-1.72,12.528-5.201,11.951-8.878c-0.655-4.172,10.843,5.005,12.975,8.195c1.396,2.089,1.559,7.394,1.707,9.902
		c0.096,1.621,1.154,5.854-0.341,6.487c-3.231,1.369-10.585-9.219-10.585-9.219s3.718,19.408,4.439,25.95
		c0.187,1.699,1.651,5.73,0.341,6.829c-2.348,1.97-11.951-2.732-11.951-2.732s3.76,10.415,2.049,13.316
		c-1.872,3.173-10.196,4.497-13.834,5.08c-7.048,1.129-21.424-1.573-28.537-0.976c-10.916,0.917-33.884,9.595-40.569,12.953
		c-4.015,2.017,3.251-21.245,3.251-21.245s-6.137,0.303-8.049,0.976c-4.469,1.572-11.714,8.204-16.098,10
		c-4.107,1.682-15.797,3.44-15.797,3.44S6.288,160.537,7.728,158.276z"/>
	<linearGradient id="SVGID_9_" gradientUnits="userSpaceOnUse" x1="174.0823" y1="167.6077" x2="134.1719" y2="127.6973">
		<stop  offset="0" style="stop-color:#31154E"/>
		<stop  offset="0.6757" style="stop-color:#46276A"/>
		<stop  offset="0.8912" style="stop-color:#5C2E79"/>
	</linearGradient>
	<path fill="url(#SVGID_9_)" d="M144.754,117.793c4.002,5.209,6.251,10.965,7.17,15.024c0.792,3.497-0.827,10.852,0,14.341
		c0.987,4.163,6.601,11.053,8.195,15.024c1.219,3.036,5.415,7.41,5.835,13.312c0.15,2.103-8.263-3.48-9.591-5.117
		c-2.689-3.313-4.372-12.029-5.805-16.048c-1.124-3.153-3.876-9.333-4.439-12.633c-0.56-3.282,0.213-9.994,0-13.316
		C145.948,125.715,143.128,115.677,144.754,117.793z"/>
	<linearGradient id="SVGID_10_" gradientUnits="userSpaceOnUse" x1="184.1544" y1="122.9568" x2="175.8471" y2="114.6494">
		<stop  offset="0.3806" style="stop-color:#31154E"/>
		<stop  offset="0.6757" style="stop-color:#46276A"/>
		<stop  offset="0.8912" style="stop-color:#5C2E79"/>
	</linearGradient>
	<path fill="url(#SVGID_10_)" d="M173.769,119.586c-0.423,1.584,0.915,2.435,1.658,3.897c0.89,1.752-0.915,9.364,0.341,7.853
		c2.298-2.765,5.304-7.961,7.512-10.243c1.057-1.092,4.199-2.352,4.78-3.756c0.94-2.269-2.603-7.775-2.884-9.392
		c-1.016-5.86-1.997,3.892-3.203,5.469c-0.58,0.758-2.073,3.977-2.79,4.606C177.494,119.5,174.348,117.416,173.769,119.586z"/>
	<path fill="#A1469A" d="M190.374,115.155c1.087,2.186,3.697,6.62,5.805,7.853c2.376,1.39,8.34,0.424,10.926,1.366
		c1.624,0.592,4.468,2.66,5.805,3.756c3.22,2.642,8.832,8.846,11.609,11.951c1.254,1.401,8.966,12.058,9.07,10.181
		c0.174-3.126-4.382-12.372-5.656-14.62c-2.904-5.127-13.272-11.848-18.438-14.682c-2.532-1.389-8.392-2.369-10.926-3.756
		c-2.771-1.517-9.902-7.853-9.902-7.853S189.701,113.8,190.374,115.155z"/>
	<path fill="#A1469A" d="M141.034,107.435c0.438,3.265,4.978,8.543,6.829,11.268c1.986,2.923,6,8.807,8.536,11.268
		c3.383,3.282,21.725,18.53,19.095,14.618c-3.926-5.84-7.858-13.433-10.218-15.984c-1.303-1.408-5.799-5.815-5.799-5.815
		s-0.159-1.316,0.678-1.697c1.646-0.749,7.827,3.899,6.829,2.39c-1.803-2.725-3.377-4.318-4.439-5.805
		c-0.895-1.252-2.145-4.252-3.414-5.122c-1.948-1.335-7.047-1.122-9.219-2.049c-2.265-0.966-6.608-3.736-8.195-5.463
		C141.296,104.587,140.951,106.819,141.034,107.435z"/>
	<path fill="#A1469A" d="M130.754,117.11c3.274,3.473,5.34,5.043,6.487,7.17c1.13,2.096,1.803,6.912,2.39,9.219
		c0.521,2.046,4.219,10.657,2.049,8.195c-1.55-1.758-3.716-5.978-5.122-7.853c-0.944-1.259-4.002-5.778-4.425-7.294
		c-0.279-1,0.836-1.147,1.01-1.583C133.906,123.057,129.347,115.616,130.754,117.11z"/>
</g>
</svg>
