<?xml version="1.0" encoding="utf-8"?>
<!-- Generator: Adobe Illustrator 17.0.0, SVG Export Plug-In . SVG Version: 6.00 Build 0)  -->
<!DOCTYPE svg PUBLIC "-//W3C//DTD SVG 1.1//EN" "http://www.w3.org/Graphics/SVG/1.1/DTD/svg11.dtd">
<svg version="1.1" id="Layer_1" xmlns="http://www.w3.org/2000/svg" xmlns:xlink="http://www.w3.org/1999/xlink" x="0px" y="0px"
	 width="1280px" height="700.2px" viewBox="0 0 1280 700.2" enable-background="new 0 0 1280 700.2" xml:space="preserve">
<g>
	<g>
		<linearGradient id="SVGID_1_" gradientUnits="userSpaceOnUse" x1="640" y1="700.1998" x2="640" y2="5.416950e-09">
			<stop  offset="0.7075" style="stop-color:#0E162B"/>
			<stop  offset="0.7464" style="stop-color:#10162F"/>
			<stop  offset="0.8118" style="stop-color:#13123B"/>
			<stop  offset="0.8285" style="stop-color:#15113E"/>
			<stop  offset="0.9787" style="stop-color:#2B3175"/>
		</linearGradient>
		<path fill="url(#SVGID_1_)" d="M-1,141.2c0,0,22.287,13.185,62.246,20.982c9.379,1.83,91.474-8.934,95.272-9.525
			c4.675-0.727,4.818-14.059,8.746-16.681c13.655-9.112,49.732-1.399,65.509-6.019c5.806-1.7,15.743-9.174,21.467-11.129
			c8.262-2.821,25.446-0.515,34.146-1.3c5.988-0.54,19.268-0.552,25.169-1.695c10.71-2.076,29.64-15.034,39.557-19.557
			c34.919-15.922,100.734-56.322,136.653-69.87c15.157-5.717,28.062-27.211,31.807-26.384c7.243,1.6,16.245,13.363,22.473,17.371
			c8.954,5.762,62.213,24.2,69.254,32.164c2.773,3.137,6.909,44.618,8.154,40.63c1.699-5.443,18.597-27.968,22.473-31.02
			c3.917-3.085,18.941-17.661,20.282-16.026c3.47,4.232,6.683,8.696,13.592,12.056c7.843,3.815,18.106,9.928,20.534,7.863
			c3.651-3.103,55.74,38.718,66.472,44.478c12.325,6.615,23.671,6.924,36.972,11.29c19.486,6.396,62.303,37.122,65.632,35.054
			c2.688-1.669,73.344-35.369,77.408-44.255c2.081-4.55,17.235,10.102,32.045,15.717c4.408,1.671,33.612,29.566,35.375,33.915
			c2.985,7.369,11.421-11.732,17.581-13.005c7.738-1.598,90.828-3.674,98.498-5.57c30.727-7.597,48.706-20.606,56.74-20.919
			c13.263-0.516,39.385,4.551,52.62,5.557C1249.304,126.358,1281,141.2,1281,141.2v559H-1V141.2z"/>
		<linearGradient id="SVGID_2_" gradientUnits="userSpaceOnUse" x1="385.4312" y1="147.2903" x2="505.5303" y2="147.2903">
			<stop  offset="0.2384" style="stop-color:#0E162B"/>
			<stop  offset="0.3252" style="stop-color:#10162F"/>
			<stop  offset="0.541" style="stop-color:#121438"/>
			<stop  offset="0.7632" style="stop-color:#14123C"/>
			<stop  offset="1" style="stop-color:#15113E"/>
		</linearGradient>
		<path opacity="0.2" fill="url(#SVGID_2_)" d="M393.94,74.086c-11.621,6.794-6.82,12.978-8.192,19.34
			c-2.222,10.302,7.817,34.226,12.705,43.575c4.823,9.224,16.526,26.541,21.419,35.728c3.83,7.191,26.926,47.817,26.926,47.817
			l58.732,0.053c0,0-26.413-43.797-30.648-50.396c-6.408-9.985-20.465-24.584-24.333-34.511c-2.554-6.553-5.011-20.974-3.605-27.879
			c0.484-2.377-7.324,1.973-9.012,3.724c-2.491,2.583-5.189,9.865-4.957,13.435c0.44,6.769,16.681,34.456,21.77,47.083
			c1.379,3.421-20.71-24.139-23.572-26.482c-4.592-3.758-7.599-16.05-9.914-21.496c-2.491-5.862-19.463-24.687-20.639-30.942
			C399.406,86.68,396.409,72.643,393.94,74.086z"/>
		<linearGradient id="SVGID_3_" gradientUnits="userSpaceOnUse" x1="471.5492" y1="169.0786" x2="638.1923" y2="72.8671">
			<stop  offset="0.2384" style="stop-color:#0E162B"/>
			<stop  offset="0.3252" style="stop-color:#10162F"/>
			<stop  offset="0.541" style="stop-color:#121438"/>
			<stop  offset="0.7632" style="stop-color:#14123C"/>
			<stop  offset="1" style="stop-color:#15113E"/>
		</linearGradient>
		<path opacity="0.2" fill="url(#SVGID_3_)" d="M412.946,63.79c-10.222,5.978,36.192-7.886,47.496-11.453
			c4.373-1.38,17.431-9.518,20.982-12.405c3.239-2.634,5.198,2.914,7.656,3.219c4.359,0.541,25.416,7.833,28,4.302
			c2.084-2.847,7.6-21.054,5.772-29.837c-0.499-2.398,15.223,26.758,17.15,28.284c3.642,2.883,16.595,19.826,21.016,21.278
			c2.613,0.858,7.484,3.567,9.662,5.238c2.029,1.557,4.538,6.813,7.027,7.42c5.53,1.35,15.97-8.687,21.521-7.42
			c2.573,0.587,5.669,5.499,7.466,7.42c3.062,3.274,8.442,10.514,11.761,13.531c6.109,5.552,58.796,62.654,63.849,69.172
			c2.439,3.146,13.013,22.743,12.549,18.798c-1.507-12.812-6.285-19.702-8.705-25.291c-4.739-10.943-56.118-53.731-62.192-64.002
			c-2.129-3.6-9.878-39.351-12.655-42.485c-11.954-13.49-50.48-39.047-49.975-36.286c0.283,1.549-17.359-1.708-28.72-5.969
			c-9.408-3.529-12.755-8.227-13.792-7.135c-25.317,26.662-27.417,24.16-32.899,26.239C467.04,33.565,430.43,53.565,412.946,63.79z"
			/>
		<linearGradient id="SVGID_4_" gradientUnits="userSpaceOnUse" x1="589.9214" y1="195.8264" x2="589.9214" y2="44.6619">
			<stop  offset="0" style="stop-color:#0E162B"/>
			<stop  offset="0.7549" style="stop-color:#16193C"/>
		</linearGradient>
		<path fill="url(#SVGID_4_)" d="M494.424,44.667c5.522,0.368,21.196,3.819,22.314,4.005c7.39,1.232,20.956,16.792,26.237,22.097
			c3.48,3.495,15.666,7.894,18.283,12.067c2.169,3.457,1.634,12.676,4.374,15.707c1.869,2.068,5.318,1.772,7.858,2.933
			c3.967,1.813,14.276,6.973,17.993,9.248c5.415,3.314,17.118,9.459,20.714,14.671c1.962,2.845,1.623,10.426,3.438,13.366
			c1.909,3.093,8.773,6.68,10.971,9.576c3.026,3.987,5.065,14.511,8.606,18.055c4.422,4.426,17.082,7.888,22.611,10.84
			c3.658,1.953,18.632,10.745,27.636,18.196c3.023,2.502-21.853-7.579-29.075-8.926c-4.12-0.768-18.351-1.701-22.301-3.096
			c-4.071-1.438-3.054-6.667-7.281-7.558c-1.889-0.399-5.085-1.426-7.008-1.605c-2.28-0.212-6.596-1.602-8.121-3.299
			c-1.168-1.3-8.961-3.38-7.858-4.735c1.139-1.398,13.194,3.893,12.071,2.482c-5.388-6.774-15.856-10.427-20.383-14.796
			c-5.658-5.461-14.588-18.515-19.348-24.766c-3.103-4.075-7.672-14.047-12.21-16.451c-1.538-0.815-2.959,0.495-4.6-0.088
			c-9.784-3.476-18.673-11.931-17.82-17.684c0.366-2.472,12.053-0.056,10.385-1.925c-3.565-3.995-4.365-10.5-5.802-12.55
			c-3.67-5.234-15.573-11.937-18.658-17.532c-1.593-2.889-6.687-6.139-9.012-8.488c-1.583-1.599-5.907-2.412-7.657-3.828
			C509.054,49.185,491.673,44.484,494.424,44.667z"/>
		<path opacity="0.7" fill="#0D162E" d="M730.176,221.159c0,0,2.681-8.8,4.673-11.279c2.55-3.172,11.494-5.723,13.379-9.325
			c1.464-2.798,1.752-9.987,0-12.617c-1.366-2.05-7.744-1.79-9.11-3.84c-2.825-4.241,0-15.259,0-20.345
			c0-4.154-4.552-29.686-0.877-31.666c2.39-1.287,7.878,19.243,9.988,20.946c4.505,3.636,14.175,11.005,16.392,16.335
			c2.005,4.82,1.047,15.751,0,20.862c-0.563,2.748-3.442,7.693-4.416,10.326c-0.798,2.158-4.057,6.874-2.76,8.777
			c1.009,1.48,5.4,0.841,7.175,0.549c2.074-0.341,6.57-1.547,7.727-3.291c0.532-0.801-0.612-3.097,0-3.84
			c2.23-2.704,10.305-2.338,13.799-2.743c3.977-0.46,12.006-0.718,16.007-0.549c3.471,0.147,10.523,2.798,13.799,1.646
			c3.547-1.247,8.145-7.799,10.487-10.725c1.743-2.178,5.318-2.616,7.777-3.948c2.06-1.116,5.743-6.725,7.678-5.407
			c2.049,1.395,1.816,7.475,3.586,9.206c1.94,1.897,2.151-2.289,2.344,0.408c0.206,2.877-0.278,6.795-2.344,8.82
			c-1.913,1.875-6.147,6.811-5.242,9.325c1.398,3.885,11.337,5.514,15.455,6.034c5.654,0.715,16.937-2.474,22.63-2.743
			c5.24-0.248,15.762-0.039,20.974,0.549c7.554,0.851,22.328,7.354,29.806,5.99c4.814-0.878,12.068-8.445,16.559-10.379
			c3.01-1.296,9.435-2.936,12.695-3.291c3.749-0.409,11.533,1.832,15.076,0.549c2.319-0.84,4.971-5.826,7.319-6.583
			c1.212-0.39,4.215-0.394,5.065,0.549c1.106,1.225,0.767,5.124,0,6.583c-1.23,2.341-6.548,4.52-8.725,6.034
			c-2.342,1.629-10.215,3.83-9.352,6.539c1.364,4.282,13.558,0,18.077,0c6.106,0,18.401,1.002,24.423,0
			c7.485-1.246,21.196-10.946,28.702-9.83c1.856,0.276,5.899,2.531,6.072,4.388c0.331,3.574-6.394,8.009-6.394,8.009
			L730.176,221.159z"/>
		<linearGradient id="SVGID_5_" gradientUnits="userSpaceOnUse" x1="519.3122" y1="71.8573" x2="632.7419" y2="71.8573">
			<stop  offset="0.2384" style="stop-color:#0E162B"/>
			<stop  offset="0.4993" style="stop-color:#101431"/>
			<stop  offset="0.7549" style="stop-color:#121335"/>
		</linearGradient>
		<path fill="url(#SVGID_5_)" d="M559.614,13.101c2.218-2.59,32.26,18.841,41.733,26.833c3.481,2.937,9.745,9.664,12.28,13.438
			c2.052,3.056,6.296,13.297,6.296,13.297s10.207,64.314,12.803,76.643c0.555,2.635-14.359-45.874-16.444-47.593
			c-3.826-3.153-12.929-23.768-16.725-27.648c-4.676-4.779-17.448-9.179-21.753-14.292c-3.53-4.193-20.842-21.048-21.515-25.391
			c-0.652-4.209,0.654,20.683-2.406,12.759c-3.22-8.338-12.473-12.33-21.126-14.739c-6.118-1.703-13.446-26.109-13.446-26.109
			s3.057,0.436,7.517,3.891C532.481,8.569,558.752,14.108,559.614,13.101z"/>
		
			<linearGradient id="SVGID_6_" gradientUnits="userSpaceOnUse" x1="1213.6202" y1="480.0407" x2="1302.2095" y2="480.0407" gradientTransform="matrix(0.8633 0.5048 -0.5048 0.8633 -325.735 -964.4753)">
			<stop  offset="0.2384" style="stop-color:#0E162B"/>
			<stop  offset="0.3252" style="stop-color:#10162F"/>
			<stop  offset="0.541" style="stop-color:#121438"/>
			<stop  offset="0.7632" style="stop-color:#14123C"/>
			<stop  offset="1" style="stop-color:#15113E"/>
		</linearGradient>
		<polygon opacity="0.2" fill="url(#SVGID_6_)" points="487.736,48.654 495.52,51.723 509.531,51.949 513.802,52.977 
			519.061,61.445 529.956,80.781 523.508,93.675 536.104,102.933 538.822,102.735 545.328,111.847 547.312,117.039 543.724,118.993 
			542.916,121.749 544.372,127.286 541.785,128.368 535.122,124.496 527.533,117.501 518.665,97.484 511.723,90.219 515.757,87.232 
			493.109,68.255 499.094,63.332 501.562,60.243 498.465,56.666 490.013,54.177 486.531,50.7 		"/>
	</g>
	<linearGradient id="SVGID_7_" gradientUnits="userSpaceOnUse" x1="656.7927" y1="51.9759" x2="752.5928" y2="107.9925">
		<stop  offset="0.2384" style="stop-color:#0E162B"/>
		<stop  offset="0.3252" style="stop-color:#10162F"/>
		<stop  offset="0.541" style="stop-color:#121438"/>
		<stop  offset="0.7632" style="stop-color:#14123C"/>
		<stop  offset="1" style="stop-color:#15113E"/>
	</linearGradient>
	<path opacity="0.2" fill="url(#SVGID_7_)" d="M662.101,42.897c0,0-0.024,18.97,2.99,24.147
		c2.866,4.924,13.109,11.095,18.092,13.858c8.629,4.784,27.492,11.059,36.953,13.858c8.598,2.543,35.415,8.173,35.415,8.173
		s-55.102-41.606-58.174-40.024c-3.934,2.026-14.059-3.807-22.711-8.191C667.686,51.181,662.101,42.897,662.101,42.897z"/>
	<linearGradient id="SVGID_8_" gradientUnits="userSpaceOnUse" x1="672.1588" y1="98.6236" x2="706.8175" y2="98.6236">
		<stop  offset="0" style="stop-color:#0E162B"/>
		<stop  offset="0.7549" style="stop-color:#16193C"/>
	</linearGradient>
	<path opacity="0.5" fill="url(#SVGID_8_)" d="M672.185,84.833c0.892,10.473,13.557,16.333,15.526,18.986
		c3.248,4.376,11.827,11.953,18.524,9.53c4.036-1.46-14.143-11.39-16.6-13.861c-1.517-1.526-7.817-2.766-9.174-4.348
		c-0.67-0.782-3.208-5.873-3.893-6.65C674.992,86.704,671.838,80.751,672.185,84.833z"/>
	<linearGradient id="SVGID_9_" gradientUnits="userSpaceOnUse" x1="946.3177" y1="134.2468" x2="986.8641" y2="134.2468">
		<stop  offset="0.2384" style="stop-color:#0E162B"/>
		<stop  offset="0.3252" style="stop-color:#10162F"/>
		<stop  offset="0.541" style="stop-color:#121438"/>
		<stop  offset="0.7632" style="stop-color:#14123C"/>
		<stop  offset="1" style="stop-color:#15113E"/>
	</linearGradient>
	<path opacity="0.2" fill="url(#SVGID_9_)" d="M946.318,110.148c0,0,9.968,13.854,12.744,18.438
		c4.097,6.766,26.105,36.227,27.657,28.47c1.356-6.779-7.175-15.741-7.863-19.794c-0.673-3.967-8.677-13.557-8.677-13.557
		s-11.901-8.652-16.269-10.846C952.109,111.954,946.318,110.148,946.318,110.148z"/>
</g>
</svg>
