<?xml version="1.0" encoding="utf-8"?>
<!-- Generator: Adobe Illustrator 17.0.0, SVG Export Plug-In . SVG Version: 6.00 Build 0)  -->
<!DOCTYPE svg PUBLIC "-//W3C//DTD SVG 1.1//EN" "http://www.w3.org/Graphics/SVG/1.1/DTD/svg11.dtd">
<svg version="1.1" id="Layer_1" xmlns="http://www.w3.org/2000/svg" xmlns:xlink="http://www.w3.org/1999/xlink" x="0px" y="0px"
	 width="1280.113px" height="530.544px" viewBox="0 0 1280.113 530.544" enable-background="new 0 0 1280.113 530.544"
	 xml:space="preserve">
<g>
	<g>
		<g>
			<g>
				
					<linearGradient id="SVGID_1_" gradientUnits="userSpaceOnUse" x1="9158.2764" y1="530.5442" x2="9158.2764" y2="7.656872e-07" gradientTransform="matrix(-1 0 0 1 9798.2764 0)">
					<stop  offset="0.54" style="stop-color:#31154E"/>
					<stop  offset="0.6065" style="stop-color:#46276A"/>
					<stop  offset="0.6697" style="stop-color:#5C2E79"/>
					<stop  offset="1" style="stop-color:#D75264"/>
				</linearGradient>
				<path fill="url(#SVGID_1_)" d="M-1,18.544c10.845,0,17.536-6.535,28.381-10.15c3.926,6.02,9.103,9.652,15.024,11.563
					c21.339,6.888,52.347-8.576,69.325-15.178c14.46-4.82,19.28-7.23,34.945-1.205c10.845,3.615,24.1,15.665,28.92,0
					c13.255,3.615,49.405,12.05,57.84-1.205c15.665,0,30.125,7.23,45.79,7.23c3.615-20.485,34.945,0,48.2,3.615h9.64
					c7.23,12.05,36.15,10.845,49.405,14.46c8.435,2.41,19.28,8.435,27.715,7.23c6.025-1.205,30.744,2.953,30.744,2.953
					s7.43,8.905,18.275,10.11c13.255,1.205,20.219-2.722,20.219-2.722s18.38,10.885,40.081,25.908
					c7.23-2.41,17.206-0.099,17.206-0.099s12.05,10.845,16.87,12.05c8.435,2.41,31.33-7.23,39.765-9.64
					c20.485-6.025,28.92-15.665,45.79-28.92c9.64-8.435,8.435-8.435,19.28-13.255c9.64-3.615,16.87-1.205,22.895-9.64
					c12.05,14.46,18.075-3.615,27.715-7.23c13.255-4.82,16.87,3.615,28.92-10.845c13.255,9.64,27.715,19.28,42.175,26.51
					c9.64,3.615,18.075,6.025,27.715,10.845c9.64,3.615,20.485,14.46,30.125,16.87c14.46,4.82,33.74-2.41,46.995-7.23
					c7.23-2.41,15.665-4.82,22.895-7.23c4.82-2.41,10.845-12.05,14.46-12.05c8.435,1.205,32.535,21.69,40.97,26.51
					c18.075,9.64,20.485,12.05,40.97,10.845c16.87-1.205,30.125,2.41,46.995,8.435c16.87,4.82,24.1,4.82,39.765,14.46
					c5.147,3.241,19.79,2.853,19.79,2.853s69.326-40.688,98.742-39.674c19.485,0,42.401-38.978,42.401-38.978L1281,18.544v512H-1
					V18.544z"/>
			</g>
			<g opacity="0.4">
				
					<linearGradient id="SVGID_2_" gradientUnits="userSpaceOnUse" x1="8144.7676" y1="-1894.6366" x2="8265.0293" y2="-1894.6366" gradientTransform="matrix(-0.9496 0.3136 0.3136 0.9496 9553.2324 -697.7902)">
					<stop  offset="0" style="stop-color:#381D58"/>
					<stop  offset="1" style="stop-color:#5C2E79"/>
				</linearGradient>
				<path fill="url(#SVGID_2_)" d="M1223.67,52.648c-2.65,0.5-6.425,2.267-10.248,2.861c-3.509,0.546-7.086-0.093-9.26,0.624
					c-5.084,2.039-23.216,8.984-28.085,11.672c-9.739,5.375-49.013,28.777-64.151,29.979c4.533,1.741,48.888-14.21,53.32-14.954
					c3.783-0.53,13.921-1.83,17.168-3.982c2.381-1.506,4.548-3.661,7.036-4.842c3.354-1.827,5.622-1.497,8.974-2.244
					c6.596-1.818,9.925-4.942,14.073-9.684C1213.771,60.62,1223.67,52.648,1223.67,52.648z"/>
			</g>
			<g opacity="0.4">
				
					<linearGradient id="SVGID_3_" gradientUnits="userSpaceOnUse" x1="8789.6943" y1="94.221" x2="8810.9443" y2="57.4157" gradientTransform="matrix(-1 0 0 1 9798.2764 0)">
					<stop  offset="0.4211" style="stop-color:#381D58"/>
					<stop  offset="1" style="stop-color:#5C2E79"/>
				</linearGradient>
				<path fill="url(#SVGID_3_)" d="M1033.966,70.804c-4.943-1.307-11.199-2.232-17.189-2.363
					c-5.851-0.128-12.619,0.581-15.732,0.623c-6.149,0.082-16.37-1.267-22.166-5.064c2.733,5.467,12.854,8.499,16.954,12.257
					c-6.492,3.417-11.275,3.075-18.449,3.075c-2.733,0-4.783,0-7.175-0.683c-3.758-0.683-8.541-5.125-11.958-4.442
					c1.025,3.758,8.2,4.442,11.275,6.491c2.733,1.708,4.442,4.442,6.833,6.15c5.466,3.758,10.25,6.833,15.033,11.275
					c4.783,4.783,5.466,4.1,8.541-1.708c2.392-4.1,1.708-5.467,2.392-9.908c0.683-4.442,1.367-4.442,5.125-7.175
					c5.808-3.758,11.563-3.511,16.855-8.045C1025.263,70.464,1033.966,70.804,1033.966,70.804z"/>
			</g>
			<g opacity="0.4">
				
					<linearGradient id="SVGID_4_" gradientUnits="userSpaceOnUse" x1="8738.3701" y1="91.9178" x2="8738.3701" y2="80.7875" gradientTransform="matrix(-1 0 0 1 9798.2764 0)">
					<stop  offset="0.4211" style="stop-color:#381D58"/>
					<stop  offset="1" style="stop-color:#5C2E79"/>
				</linearGradient>
				<path fill="url(#SVGID_4_)" d="M1071.886,81.662c-4.442,0.342-6.143-0.533-10.243-0.874c-2.392,2.05-10.642,8-13.717,10.733
					c6.833,1.708,13.666-2.733,19.816-1.367"/>
			</g>
			<g opacity="0.4">
				
					<linearGradient id="SVGID_5_" gradientUnits="userSpaceOnUse" x1="8872.4648" y1="152.9912" x2="8872.4648" y2="101.7427" gradientTransform="matrix(-1 0 0 1 9798.2764 0)">
					<stop  offset="0" style="stop-color:#381D58"/>
					<stop  offset="1" style="stop-color:#5C2E79"/>
				</linearGradient>
				<path fill="url(#SVGID_5_)" d="M968.689,114.042c-4.783,6.15-11.616,11.275-17.083,16.4c-2.733,2.392-9.566,11.275-10.25,5.125
					c0-0.342,2.05-4.783,2.05-5.467c0.683-1.708,1.367-3.417,2.05-5.125c-3.417,1.708-7.858,4.1-10.591,0
					c-4.783,5.467-5.808,4.442-11.616,7.175c-4.442,2.392-7.858,6.15-12.641,8.2c-9.225,4.1-19.816,6.15-27.674,12.641
					c0.683-9.225,20.841-18.791,28.699-22.891c0.342-0.683,1.025-3.075,1.367-4.1c-4.442-1.025-8.541,1.367-12.641,2.733
					c0.683-2.392,3.075-4.442,4.442-6.491c-4.442-3.075-11.275,1.025-16.058,0.683c6.833-4.783,19.133-5.808,26.991-7.516
					c10.591-2.392,19.816-9.225,29.383-13.666c0.342,3.075-9.225,6.15-10.25,11.275c2.05,0.342,4.1-0.683,6.15-0.342
					c2.733,0.342,4.783,3.075,7.516,3.417c4.442,0.342,10.25-4.442,15.033-4.442"/>
			</g>
			<g opacity="0.4">
				
					<linearGradient id="SVGID_6_" gradientUnits="userSpaceOnUse" x1="8934.6445" y1="105.673" x2="8934.6445" y2="43.3091" gradientTransform="matrix(-1 0 0 1 9798.2764 0)">
					<stop  offset="0" style="stop-color:#381D58"/>
					<stop  offset="1" style="stop-color:#5C2E79"/>
				</linearGradient>
				<path fill="url(#SVGID_6_)" d="M911.937,43.309c-14.008,8.541-25.887,21.707-36.478,34.006
					c-13.325,15.375-36.557,19.474-54.665,25.966c-2.392,0.683-3.758,0-5.466,2.392c1.708-9.566,13.325-9.566,21.183-12.641
					c9.908-3.758,16.058-7.858,22.549-16.058c5.466-6.833,12.983-8.2,18.791-14.008c5.466-5.125,7.693-7.95,13.159-13.075"/>
			</g>
			<g opacity="0.4">
				
					<linearGradient id="SVGID_7_" gradientUnits="userSpaceOnUse" x1="8900.8818" y1="97.3828" x2="8900.8818" y2="49.9206" gradientTransform="matrix(-1 0 0 1 9798.2764 0)">
					<stop  offset="0" style="stop-color:#381D58"/>
					<stop  offset="1" style="stop-color:#5C2E79"/>
				</linearGradient>
				<path fill="url(#SVGID_7_)" d="M927.232,49.921c-4.442,4.1-8.761,16.377-13.544,19.452c-2.05,1.025-6.499,2.386-7.866,4.095
					c-1.708,2.05-0.928,2.752-3.661,4.118c-1.367,0.683-3.513,1.006-4.538,1.348c-1.367,1.025-1.367,2.392-2.05,2.733
					c-2.05,1.708-4.1,3.417-6.833,4.783c-6.833,3.758-13.666,8.883-21.183,10.933c0-4.783,8.541-6.833,4.783-11.275
					c3.417-0.342,6.492-1.708,7.858-5.125c-0.683-0.342-1.367-1.367-2.05-1.708c3.075-3.417,12.641-6.15,9.225-11.958
					c8.541-2.733,19.708-13.426,28.933-14.451"/>
			</g>
			<g opacity="0.4">
				
					<linearGradient id="SVGID_8_" gradientUnits="userSpaceOnUse" x1="9079.1631" y1="35.6604" x2="9079.1631" y2="14.4979" gradientTransform="matrix(-1 0 0 1 9798.2764 0)">
					<stop  offset="0" style="stop-color:#381D58"/>
					<stop  offset="1" style="stop-color:#5C2E79"/>
				</linearGradient>
				<path fill="url(#SVGID_8_)" d="M725.946,19.944c4.783,1.708,6.492,11.616,7.516,15.716c-4.442-1.708-8.541-6.491-13.325-8.883
					c-4.442-2.392-10.591-4.442-15.375-4.1c3.758-5.467,6.833-9.908,13.666-7.516"/>
			</g>
			<g opacity="0.4">
				
					<linearGradient id="SVGID_9_" gradientUnits="userSpaceOnUse" x1="9044.2451" y1="96.6433" x2="9044.2451" y2="3.5437" gradientTransform="matrix(-1 0 0 1 9798.2764 0)">
					<stop  offset="0" style="stop-color:#381D58"/>
					<stop  offset="1" style="stop-color:#5C2E79"/>
				</linearGradient>
				<path fill="url(#SVGID_9_)" d="M741.998,3.544c6.749,5.288,15.383,10.684,20.198,14.047c1.173,0.819,1.636,9.013,4.028,13.113
					c1.367,2.05,2.392,2.392,2.733,5.467c0.683,4.1-1.025,7.858,0.342,11.958c1.025,2.733,2.733,4.442,4.1,6.833
					c2.05,3.417,3.417,7.175,3.417,10.933c-5.125-5.467-9.225-11.616-13.325-18.108c-2.05-3.417-5.466-11.958-9.566-12.641
					c0.342,1.367,0,3.075,0.683,4.783c-0.683-0.342-2.733,0-3.417-0.342c1.367,16.741,18.791,29.041,14.008,47.149
					c-0.683-0.683-1.708-1.367-2.392-2.05c-1.367,3.417-1.025,8.2-2.392,11.958c-1.367-3.758-1.025-8.541-2.392-12.641
					c-1.708-5.125-4.783-10.25-6.833-15.716c-2.392-6.833-6.15-12.983-9.225-19.816c-1.18-2.162-4.29-18.101-7.691-27.092
					c-2.51-6.635-3.525-7.699-2.8-9.44c0,0,2.601-0.946,4.532-2.404C737.561,8.361,741.998,3.544,741.998,3.544z"/>
			</g>
			<g opacity="0.4">
				
					<linearGradient id="SVGID_10_" gradientUnits="userSpaceOnUse" x1="9122.8135" y1="98.924" x2="9091.2109" y2="67.3207" gradientTransform="matrix(-1 0 0 1 9798.2764 0)">
					<stop  offset="0.5398" style="stop-color:#381D58"/>
					<stop  offset="1" style="stop-color:#5C2E79"/>
				</linearGradient>
				<path fill="url(#SVGID_10_)" d="M689.214,49.469c2.05,2.733-0.342,8.2,3.758,7.516c0.342,3.417,0.342,4.442,2.392,7.516
					c2.733,4.1,6.491,4.1,5.125,9.566c-0.342,1.708-2.392,2.392-2.733,4.442c0,1.367,2.733,3.758,2.733,5.467
					c4.442-1.708,4.783,2.733,5.125,5.808c0.342,0.683,1.367,2.733,1.025,3.417c-1.025,2.733-1.708,0.342-3.075,1.367
					c-5.466,5.125-13.325,12.641-9.566,21.524l-1.025,0.342c-3.075-4.442-1.708-10.25-1.367-15.375
					c0.342-6.15-0.683-11.616-1.708-17.425c-1.025-4.783-5.125-17.766-2.733-20.499"/>
			</g>
			<g opacity="0.4">
				
					<linearGradient id="SVGID_11_" gradientUnits="userSpaceOnUse" x1="9070.8223" y1="122.249" x2="9070.8223" y2="87.2879" gradientTransform="matrix(-1 0 0 1 9798.2764 0)">
					<stop  offset="0" style="stop-color:#381D58"/>
					<stop  offset="1" style="stop-color:#5C2E79"/>
				</linearGradient>
				<path fill="url(#SVGID_11_)" d="M749.832,99.016c-0.683-1.708-2.05-2.392-3.075-3.075c-0.342-0.342-4.783-3.758-5.808-4.1
					c-2.05-1.025-3.075,0.342-4.1,0c-2.392-0.683-4.1-1.708-6.833-2.733c-6.833-2.733-9.908-2.733-14.691,2.392
					c-3.075,3.075-7.858,7.175-10.25,11.275c4.1,0.683,7.516,2.733,10.933,3.758c-1.367,4.442-3.075,11.616,0.683,15.716
					c3.075-4.783,6.15-13.666,10.591-17.083c4.783-4.442,8.541-0.342,12.983-0.342"/>
			</g>
			<g opacity="0.5">
				
					<linearGradient id="SVGID_12_" gradientUnits="userSpaceOnUse" x1="9215.4961" y1="105.345" x2="9215.4961" y2="80.0177" gradientTransform="matrix(-1 0 0 1 9798.2764 0)">
					<stop  offset="0" style="stop-color:#572262"/>
					<stop  offset="1" style="stop-color:#5A4090"/>
				</linearGradient>
				<path fill="url(#SVGID_12_)" d="M613.87,82.112c-4.1-0.683-10.25-2.392-13.666-2.05c-1.367,0-3.758,1.708-4.1,1.708
					c-3.758,0-7.175-2.05-11.275-1.708c-4.442,0.342-9.623,1.853-14.065,2.536c-2.05,0.342-4.382,1.384-6.774,1.384
					c-1.708,0.342-5.469,0.18-7.177-0.845c3.075,5.467,4.442,4.783,1.025,10.25c-2.05,3.758-4.1,7.516-6.15,11.958
					c4.442-5.125,11.958-5.467,17.766-7.175c4.783-1.708,7.516-5.467,12.3-6.833c6.15-1.708,12.983-2.392,19.133-1.708"/>
			</g>
			<g opacity="0.4">
				
					<linearGradient id="SVGID_13_" gradientUnits="userSpaceOnUse" x1="9258.8789" y1="98.3345" x2="9258.8789" y2="87.7283" gradientTransform="matrix(-1 0 0 1 9798.2764 0)">
					<stop  offset="0" style="stop-color:#381D58"/>
					<stop  offset="1" style="stop-color:#5C2E79"/>
				</linearGradient>
				<path fill="url(#SVGID_13_)" d="M548.11,94.226c-5.125-7.175-10.591-8.2-16.741-4.1c0,0.342,0.683,1.367,1.025,1.708
					c-0.683,0.683-1.367,1.025-1.708,1.708c2.733,0.342,5.466-2.05,8.541-1.025c-1.025,3.417,1.708,7.858,5.125,4.783"/>
			</g>
			<g opacity="0.4">
				
					<linearGradient id="SVGID_14_" gradientUnits="userSpaceOnUse" x1="9314.5205" y1="59.9693" x2="9314.5205" y2="52.0968" gradientTransform="matrix(-1 0 0 1 9798.2764 0)">
					<stop  offset="0.5398" style="stop-color:#381D58"/>
					<stop  offset="1" style="stop-color:#5C2E79"/>
				</linearGradient>
				<path fill="url(#SVGID_14_)" d="M493.211,57.606c-3.417-2.05-14.468-7.685-17.543-4.61c3.075,2.392,0.683,4.783-1.367,6.833
					c3.758,0.683,7.175-1.367,10.933-1.025"/>
			</g>
			<g opacity="0.4">
				
					<linearGradient id="SVGID_15_" gradientUnits="userSpaceOnUse" x1="9424.002" y1="56.2113" x2="9494.8086" y2="-14.5959" gradientTransform="matrix(-1 0 0 1 9798.2764 0)">
					<stop  offset="0" style="stop-color:#381D58"/>
					<stop  offset="1" style="stop-color:#5C2E79"/>
				</linearGradient>
				<path fill="url(#SVGID_15_)" d="M398.495,31.991c-6.419-0.856-7.407-0.611-12.874,1.097c-2.392,0.342-5.546-2.029-7.596-0.321
					c-4.442,4.783-1.407,3.165-9.948,3.165c-4.1,0-9.566,2.733-13.325,1.708c-4.1-0.683-6.833-4.783-10.591-5.467
					c-3.758-0.683-8.2-0.342-11.958-0.342c-5.808-0.342-8.541,0-12.641-3.417c-3.758-3.417-4.783-2.733-9.566-3.417
					c-10.591-2.05-20.499-11.616-30.749-15.375c11.275,2.733,23.916,2.05,34.849,6.15c10.25,3.758,19.816,6.833,30.749,8.2
					c14.008,2.392,29.464,7.675,43.13,4.942c0.683,0,3.423,0.662,4.106,0.662"/>
			</g>
			<g opacity="0.5">
				
					<linearGradient id="SVGID_16_" gradientUnits="userSpaceOnUse" x1="9647.7607" y1="80.9016" x2="9647.7607" y2="22.2288" gradientTransform="matrix(-1 0 0 1 9798.2764 0)">
					<stop  offset="0.3376" style="stop-color:#572262"/>
					<stop  offset="1" style="stop-color:#5A4090"/>
				</linearGradient>
				<path fill="url(#SVGID_16_)" d="M34.941,45.028c-8.541-3.758-3.354,0.28-12.237-2.112c-4.783-1.025-12.516-5.498-12.516-5.498
					s4.211,5.732,10.878,10.176c1.45,0.966,13.191,16.224,14.9,15.883c4.1-1.025,0.342-2.392,2.392-4.1
					c1.367-1.025,9.908-1.708,12.3-1.708l12.641-3.075c-0.342,0.342-0.683,0.683-1.025,1.367c5.808-2.392,17.766,9.908,21.183,3.758
					c2.733,0.683,6.833-2.05,8.883-1.708c2.392,0.342,4.783,3.758,7.175,5.125c4.783,2.392,17.083,5.808,22.208,3.417
					c-5.125-3.075,0.683-7.516,4.783-7.516c4.1-0.342,5.808,2.392,9.566,4.1c6.15,3.075,23.916,10.25,30.066,7.175
					c-2.392-4.1-15.375-7.858-13.325-13.325c3.075,0.342,6.15,1.367,9.566,1.708c1.708,0.342,3.075,0.683,4.783,0.683
					c3.417,0.342,4.783-1.025,6.833-1.708c1.708-0.342,5.467-0.683,6.833-1.367c2.733-1.708,1.367-4.1,3.075-5.467
					c2.392-2.05,6.15-1.025,9.225,0c17.766,4.1,35.191,12.641,52.957,16.058c0-0.342-0.342-0.683-0.342-1.025
					c10.591-5.467,23.574,11.275,33.482,15.033c-1.025-1.708-2.05-3.758-2.05-5.808c4.1-3.075,9.225,1.025,13.666,0
					c-2.05-2.392-6.15-4.1-9.225-6.491l-4.783-2.733c-8.541-2.05-17.424-4.1-25.966-5.808c-9.908-2.05-19.474-7.175-28.699-9.566
					c-8.883-2.05-19.133-3.075-28.358-5.125c-7.858-1.708-14.691-6.491-22.549-8.883c-4.1-1.025-6.833-2.05-10.933-4.1
					c-5.125-2.392-8.2-1.708-14.008-1.025c2.392,4.783-5.467,2.392-6.833,5.125c-1.708,4.1,9.566,7.516-1.367,7.516
					c-4.442,0-8.2-1.708-12.641-1.708c-5.125-0.342-8.883-0.342-14.008-1.708c-8.541-2.392-17.766-5.808-26.308-9.225
					c-8.883-3.075-16.4-10.591-26.308-8.883c-0.342,0-1.367,1.708-1.367,2.05c3.075,2.392,7.175,4.1,9.908,6.833
					c-1.708,1.367-3.758,2.392-5.125,3.758c1.025,1.708,3.417,3.417,4.783,4.783c-6.15,2.05-22.891,10.933-28.016,5.808
					L34.941,45.028z"/>
			</g>
			<g opacity="0.4">
				
					<linearGradient id="SVGID_17_" gradientUnits="userSpaceOnUse" x1="9752.1709" y1="110.7223" x2="9752.1709" y2="84.1957" gradientTransform="matrix(-1 0 0 1 9798.2764 0)">
					<stop  offset="0" style="stop-color:#381D58"/>
					<stop  offset="1" style="stop-color:#5C2E79"/>
				</linearGradient>
				<path fill="url(#SVGID_17_)" d="M38.57,90.906c19.816-4.442,38.607,9.566,53.64,19.816c-6.833-2.392-14.008-4.1-21.183-6.491
					c-2.733-1.025-4.442-2.392-7.858-2.05c-1.025,0.342-3.758,2.733-3.417,2.733c-6.491,0.342-20.841-10.591-18.791,4.442
					c-5.808,0.342-14.008-6.15-18.791-9.225c-3.758-2.392-5.125-2.05-8.883-3.417c-4.1-1.708-11.567-9.188-11.567-9.188L0,84.196
					c7.175,1.025,7.138,2.269,14.654,1.927c6.15,0,8.883,2.05,15.033,4.1"/>
			</g>
			<g opacity="0.4">
				
					<linearGradient id="SVGID_18_" gradientUnits="userSpaceOnUse" x1="9559.3662" y1="121.9004" x2="9559.3662" y2="98.2821" gradientTransform="matrix(-1 0 0 1 9798.2764 0)">
					<stop  offset="0" style="stop-color:#381D58"/>
					<stop  offset="1" style="stop-color:#5C2E79"/>
				</linearGradient>
				<path fill="url(#SVGID_18_)" d="M231.735,98.326c5.125-0.342,6.15,1.367,9.908,3.075c6.15,3.417,12.983,5.467,19.474,8.2
					c5.125,2.733,10.25,4.442,16.058,5.808c3.075,0.683,13.325,2.733,14.35,6.491c-5.466-2.05-8.541-4.783-14.35-4.783
					c-3.075,0-12.641-2.733-12.983,1.367c-6.15-2.392-11.275-7.516-17.424-9.566c-2.733-1.025-12.3-4.442-9.225,1.367
					c-9.225,2.05-15.716,6.491-25.624,5.808c-4.442-0.342-9.225-2.733-13.666-2.392c-2.392,0.342-4.442,2.392-6.15,2.733
					c-2.05,0.342-3.417-1.025-5.808-0.683c3.417-3.417,7.175-4.442,10.933-6.833c4.442-2.733,3.758-2.05,8.883-1.708
					c5.125,0.342,12.3,1.708,15.375-2.733"/>
			</g>
			<g opacity="0.2">
				
					<linearGradient id="SVGID_19_" gradientUnits="userSpaceOnUse" x1="8832.2549" y1="117.4254" x2="8745.3604" y2="117.4254" gradientTransform="matrix(-1 0 0 1 9798.2764 0)">
					<stop  offset="0.3376" style="stop-color:#572262"/>
					<stop  offset="1" style="stop-color:#5A4090"/>
				</linearGradient>
				<path fill="url(#SVGID_19_)" d="M1052.916,103.136c-10.057,7.241-21.321,10.057-31.781,16.896
					c-16.092,10.057-18.166,10.832-35.867,18.073c-0.402-0.805-18.845,6.467-19.247,6.064
					c10.057-10.862,23.333-15.689,32.988-24.942c4.023-3.621,4.023-8.85,8.046-13.276c4.827-6.034,12.069-12.069,18.908-15.287
					c0.805,13.276,9.655,11.264,20.115,11.264"/>
			</g>
			<g opacity="0.5">
				
					<linearGradient id="SVGID_20_" gradientUnits="userSpaceOnUse" x1="8905.2539" y1="56.8005" x2="8831.3105" y2="56.8005" gradientTransform="matrix(-1 0 0 1 9798.2764 0)">
					<stop  offset="0" style="stop-color:#572262"/>
					<stop  offset="1" style="stop-color:#5A4090"/>
				</linearGradient>
				<path fill="url(#SVGID_20_)" d="M913.21,42.538l7.054-5.947c4.828-1.207,2.95-4.117,7.778-4.519
					c-0.805,0.805,8.494,4.904,9.701,4.904c-0.01,0.061,29.223,20.672,29.223,20.672c-7.241-2.011-24.458,7.388-30.09,11.009
					s-10.057,8.046-16.896,9.655c-6.437,1.609-13.276,2.011-19.712,3.218c0.805-4.828,6.437-5.23,10.057-7.241
					c5.632-3.218,9.655-8.448,13.678-12.471c3.727-3.727,4.328-9.461,5.019-14.505c-4.035,2.586-11.035,1.648-15.484,3.468
					c-5.23,2.011-19.679,7.185-20.081,13.22c-0.402,0-0.402,0-0.402,0C892.249,55.954,907.175,46.159,913.21,42.538z"/>
			</g>
			<g opacity="0.4">
				
					<linearGradient id="SVGID_21_" gradientUnits="userSpaceOnUse" x1="9111.043" y1="93.481" x2="9131.6709" y2="93.481" gradientTransform="matrix(-1 0 0 1 9798.2764 0)">
					<stop  offset="0.5398" style="stop-color:#381D58"/>
					<stop  offset="1" style="stop-color:#462564"/>
				</linearGradient>
				<path fill="url(#SVGID_21_)" d="M677.98,85.837c1.609,3.621,3.621,4.425,5.632,6.839c3.218,3.621,3.218,4.425,3.621,10.057
					c-2.816-0.805-5.23-2.011-8.046-2.816c-2.011-0.402-5.23,0.402-7.241-0.402c-3.621-2.414-8.046-12.471-3.218-15.287"/>
			</g>
			<g opacity="0.4">
				
					<linearGradient id="SVGID_22_" gradientUnits="userSpaceOnUse" x1="9194.1729" y1="104.485" x2="9238.0312" y2="104.485" gradientTransform="matrix(-1 0 0 1 9798.2764 0)">
					<stop  offset="0.5398" style="stop-color:#381D58"/>
					<stop  offset="1" style="stop-color:#5C2E79"/>
				</linearGradient>
				<path fill="url(#SVGID_22_)" d="M604.104,90.036c-5.632,7.644-8.728,4.686-16.372,8.306
					c-11.264,5.23-16.223,15.362-27.487,20.592c1.207-6.034,5.632-8.85,9.253-13.678c2.414-3.218,4.425-7.644,8.85-10.46
					c3.621-2.414,7.889-2.873,11.912-3.678c4.023-0.805,6.491-0.805,10.112,0L604.104,90.036z"/>
			</g>
			<g opacity="0.2">
				
					<linearGradient id="SVGID_23_" gradientUnits="userSpaceOnUse" x1="9317.8213" y1="112.531" x2="9259.8906" y2="112.531" gradientTransform="matrix(-1 0 0 1 9798.2764 0)">
					<stop  offset="0" style="stop-color:#572262"/>
					<stop  offset="1" style="stop-color:#5A4090"/>
				</linearGradient>
				<path fill="url(#SVGID_23_)" d="M538.385,99.113c-7.643,7.644-18.505,8.046-26.149,15.287c-2.011,2.011-3.621,4.425-6.034,6.437
					c-4.023,2.816-5.632,1.207-9.253,1.609c-6.034,0.805-10.46,6.034-16.494,6.437c5.23-7.241,14.08-13.276,21.321-17.701
					c5.632-3.218,14.08-6.034,16.092-13.276c6.034,2.011,8.531-2.499,13.276-1.609C533.053,96.655,538.385,99.113,538.385,99.113z"
					/>
			</g>
			<g opacity="0.4">
				
					<linearGradient id="SVGID_24_" gradientUnits="userSpaceOnUse" x1="9257.6191" y1="77.391" x2="9318.9111" y2="77.391" gradientTransform="matrix(-1 0 0 1 9798.2764 0)">
					<stop  offset="0.5398" style="stop-color:#381D58"/>
					<stop  offset="1" style="stop-color:#5C2E79"/>
				</linearGradient>
				<path fill="url(#SVGID_24_)" d="M505.195,72.799c4.202-2.177,10.353-4.21,10.971-6.683c4.493,3.032,3.922,2.836,7.306,4.981
					c0,0,3.125-0.929,5.968-0.995c7.443-0.173,8.662,0.561,11.218,0.87c0,0-4.957,3.041-6.736,3.532
					c-7.795,2.15-25.989,4.507-32.023,6.519c-7.241,2.011-18.103,0.402-22.528,7.644C479.075,80.443,493.785,74.584,505.195,72.799z
					"/>
			</g>
			<g opacity="0.4">
				
					<linearGradient id="SVGID_25_" gradientUnits="userSpaceOnUse" x1="9301.4541" y1="51.2737" x2="9323.6816" y2="51.2737" gradientTransform="matrix(-1 0 0 1 9798.2764 0)">
					<stop  offset="0" style="stop-color:#381D58"/>
					<stop  offset="1" style="stop-color:#5C2E79"/>
				</linearGradient>
				<path fill="url(#SVGID_25_)" d="M491.19,53.263c1.609,1.207,4.023,2.414,5.632,3.218c0-2.011-12.951-10.415-12.951-10.415
					s-5.852,0.703-9.277,2.686c2.011-0.402,6.136,1.695,8.148,2.499"/>
			</g>
			<g opacity="0.5">
				
					<linearGradient id="SVGID_26_" gradientUnits="userSpaceOnUse" x1="9326.6396" y1="65.7408" x2="9370.0869" y2="65.7408" gradientTransform="matrix(-1 0 0 1 9798.2764 0)">
					<stop  offset="0.2573" style="stop-color:#572262"/>
					<stop  offset="0.6092" style="stop-color:#5D2E79"/>
				</linearGradient>
				<path fill="url(#SVGID_26_)" d="M471.46,48.1c-9.217,0.401-12.604-1.062-12.604-1.062s-8.541,3.21-10.15,4.417
					c-3.218,2.414-0.402,5.632-3.218,9.253c0.402,0.402,1.207,0.805,1.609,1.207c-5.632,8.046-13.276,14.08-18.908,22.528
					c6.839-4.827,22.126-7.644,26.551-14.885c0.402-0.402,0-4.425,0.402-5.632c0.805-2.414,1.207-2.414,3.621-4.425
					c2.011-1.609,5.23-2.011,7.241-4.023c2.414-2.011,2.414-4.827,5.632-6.034"/>
			</g>
			<g opacity="0.4">
				
					<linearGradient id="SVGID_27_" gradientUnits="userSpaceOnUse" x1="9497.6777" y1="21.5974" x2="9594.6299" y2="21.5974" gradientTransform="matrix(-1 0 0 1 9798.2764 0)">
					<stop  offset="0" style="stop-color:#381D58"/>
					<stop  offset="1" style="stop-color:#5C2E79"/>
				</linearGradient>
				<path fill="url(#SVGID_27_)" d="M300.197,33.818c-5.632,2.011-12.471,2.011-18.505,1.609c-6.034,0-15.689-3.621-20.517,0.402
					c-0.805-5.632-2.414-4.827-7.644-6.034c-4.827-1.207-8.85-3.218-14.08-4.023c0.805,2.011,1.207,4.425,2.011,6.034
					c-2.414-0.402-5.23-1.207-8.046-1.609c0.805,2.011,1.207,4.023,2.414,6.034c-10.46-2.816-26.954-12.873-32.183-22.126
					c4.023-0.402,18.908,5.632,14.08-4.425c3.621,2.414,13.678,6.034,12.069-1.609c9.253-4.425,28.563,5.632,38.218,8.448
					c6.034,1.609,12.471,3.218,18.103,6.034c5.23,2.414,9.253,6.839,14.483,8.85"/>
			</g>
			<g opacity="0.4">
				<g>
					
						<linearGradient id="SVGID_28_" gradientUnits="userSpaceOnUse" x1="9621.1484" y1="98.4937" x2="9741.4688" y2="98.4937" gradientTransform="matrix(-1 0 0 1 9798.2764 0)">
						<stop  offset="0" style="stop-color:#381D58"/>
						<stop  offset="1" style="stop-color:#5C2E79"/>
					</linearGradient>
					<path fill="url(#SVGID_28_)" d="M56.807,85.343l17.424,2.392c12.983-1.708,21.183,8.2,33.482,12.3
						c-0.683-1.708-1.708-3.417-2.05-5.125c8.2,0.342,16.058,6.491,22.891,9.908c6.15,3.075,12.3,3.758,18.449,5.808
						c-1.317-1.668-3.067-3.313-5.061-4.901c3.795,2.84,7.572,5.432,12.254,6.664c7.644,2.414,15.287,6.034,22.931,9.253
						c-4.425-4.828-37.413-17.298-28.563-24.942c-8.046-4.828-19.31-7.241-28.16-10.862l-10.862-5.23
						c-5.632-1.207-17.124-2.488-23.158-3.293c0.019,0.014,0.04,0.027,0.059,0.041c-2.208-1.276-4.367-2.328-6.404-1.921
						c-4.1,0.342-7.858,4.783-11.616,6.15S60.565,83.635,56.807,85.343z M128.107,96.991c2.252,1.068,4.403,2.168,6.378,3.329
						c1.858,1.203,3.597,2.494,5.298,3.778C136.132,101.47,131.954,99.045,128.107,96.991z"/>
				</g>
			</g>
			<g opacity="0.4">
				
					<linearGradient id="SVGID_29_" gradientUnits="userSpaceOnUse" x1="9784.46" y1="97.5033" x2="9797.1289" y2="97.5033" gradientTransform="matrix(-1 0 0 1 9798.2764 0)">
					<stop  offset="0" style="stop-color:#381D58"/>
					<stop  offset="1" style="stop-color:#5C2E79"/>
				</linearGradient>
				<path fill="url(#SVGID_29_)" d="M1.345,94.486c3.621,2.816,9.253,3.218,12.471,6.034c-5.23-1.207-9.048,1.61-12.669-4.022"/>
			</g>
			<g opacity="0.4">
				
					<linearGradient id="SVGID_30_" gradientUnits="userSpaceOnUse" x1="9756.4688" y1="109.0643" x2="9791.0654" y2="109.0643" gradientTransform="matrix(-1 0 0 1 9798.2764 0)">
					<stop  offset="0" style="stop-color:#381D58"/>
					<stop  offset="1" style="stop-color:#5C2E79"/>
				</linearGradient>
				<path fill="url(#SVGID_30_)" d="M7.211,101.99c7.644,0,10.057-0.805,16.092,3.218c6.034,4.023,13.678,6.437,18.505,10.862
					c-6.034,1.207-28.16-6.034-32.988-10.862"/>
			</g>
			<g opacity="0.4">
				
					<linearGradient id="SVGID_31_" gradientUnits="userSpaceOnUse" x1="9696.7793" y1="122.446" x2="9739.4219" y2="122.446" gradientTransform="matrix(-1 0 0 1 9798.2764 0)">
					<stop  offset="0" style="stop-color:#381D58"/>
					<stop  offset="1" style="stop-color:#5C2E79"/>
				</linearGradient>
				<path fill="url(#SVGID_31_)" d="M64.888,105.147c5.632,2.816,12.873,5.23,18.103,8.448c4.023,2.414,4.023,5.632,7.241,9.253
					c2.414,2.414,6.839,4.425,9.655,6.437c-6.437,2.011,0,6.839,1.609,10.46c-7.644-4.827-14.885-11.264-21.724-17.299
					c-5.632-4.827-13.276-14.885-20.919-15.689c0-0.402,0.402-0.805,0.805-1.207"/>
			</g>
			<g opacity="0.4">
				
					<linearGradient id="SVGID_32_" gradientUnits="userSpaceOnUse" x1="3004.0137" y1="10094.0273" x2="3023.3972" y2="10094.0273" gradientTransform="matrix(-0.3053 -0.9523 -0.9523 0.3053 10704.8691 -193.0624)">
					<stop  offset="0" style="stop-color:#381D58"/>
					<stop  offset="1" style="stop-color:#5C2E79"/>
				</linearGradient>
				<path fill="url(#SVGID_32_)" d="M176.996,12.794c1.98,4.857,1.032,9.808-0.805,14.621c-2.869-4.995-10.255-10.886-11.974-16.249
					c1.258-0.351,4.94,2.076,9.414-3.285"/>
			</g>
			
				<linearGradient id="SVGID_33_" gradientUnits="userSpaceOnUse" x1="8532.1484" y1="45.8365" x2="8582.4502" y2="62.4474" gradientTransform="matrix(-1 0 0 1 9798.2764 0)">
				<stop  offset="0" style="stop-color:#572262"/>
				<stop  offset="1" style="stop-color:#5A4090"/>
			</linearGradient>
			<path opacity="0.5" fill="url(#SVGID_33_)" d="M1256.198,15.768c0,0-1.343,13.283-2.573,18.008
				c-3.314,12.739-18.189,34.826-23.796,46.735c-1.35,2.867-4.073,12.005-4.073,12.005s-1.415-10.761-1.286-14.363
				c0.275-7.705,7.224-31.903,7.224-31.903s7.919-8.369,10.998-11.83C1246.585,30.043,1256.198,15.768,1256.198,15.768z"/>
			<g opacity="0.4">
				
					<linearGradient id="SVGID_34_" gradientUnits="userSpaceOnUse" x1="8587.3457" y1="151.4813" x2="8587.3457" y2="76.8063" gradientTransform="matrix(-1 0 0 1 9798.2764 0)">
					<stop  offset="0.716" style="stop-color:#381D58"/>
					<stop  offset="1" style="stop-color:#5C2E79"/>
				</linearGradient>
				<path fill="url(#SVGID_34_)" d="M1198.488,92.379c-7.625-3.588-10.531-16.012-11.465-15.561
					c-9.776,4.727-6.668,13.997-8.727,13.138c-1.581-0.66,1.842,11.915,7.673,15.952c17.043,11.213,40.041,35.706,57.981,45.573
					c-1.346-3.14-4.037-4.485-6.728-6.279c-3.588-2.691-33.373-39.745-36.513-43.333c-6.279-7.625-8.645-6.322-10.519-12.777
					c5.772,3.274,5.214,5.157,10.721,7.123L1198.488,92.379z"/>
			</g>
			<g opacity="0.4">
				
					<linearGradient id="SVGID_35_" gradientUnits="userSpaceOnUse" x1="8561.2803" y1="127.033" x2="8561.2803" y2="56.518" gradientTransform="matrix(-1 0 0 1 9798.2764 0)">
					<stop  offset="0.6222" style="stop-color:#391E5A"/>
					<stop  offset="1" style="stop-color:#5C2E79"/>
				</linearGradient>
				<path fill="url(#SVGID_35_)" d="M1217.722,104.04c4.917,3.54,5.155,12.677,5.603,11.78c11.661,3.14,23.322,10.764,35.88,11.213
					c-0.897-0.897-1.345-2.691-1.794-3.588c0.449-0.449,1.346,0,1.794-0.449c-2.243-3.588-7.176-3.588-8.522-7.625
					c5.382-2.243,10.316-4.485,15.249-6.728c-0.897-2.243-2.691-4.037-4.934-5.382l-4.485-8.97
					c-2.243-4.037-6.728-6.279-8.522-9.867c-2.691-5.382-2.691-14.352-2.691-20.631c-4.036,1.346-6.728,8.073-8.97,11.213
					c-4.036,4.485-8.073,8.97-7.176,15.249c-0.897,0-1.794-0.449-2.242-0.897c-0.449,3.14,0.448,6.728,0,9.867
					c-8.522-9.867-5.036-33.737,0.794-42.708c-4.934,2.691-4.906,7.227-8.045,11.264c-4.036,4.485-11.138,6.328-5.307,13.055
					c-1.345-0.449-2.691-0.449-4.036-0.897c0.448,0.897,0.897,2.691,1.345,3.588c-8.073,1.794-0.448,10.316,2.243,14.352
					L1217.722,104.04z"/>
			</g>
		</g>
		
			<linearGradient id="SVGID_36_" gradientUnits="userSpaceOnUse" x1="9748.9961" y1="36.2482" x2="9748.9961" y2="18.379" gradientTransform="matrix(-1 0 0 1 9798.2764 0)">
			<stop  offset="0.66" style="stop-color:#572262"/>
			<stop  offset="1" style="stop-color:#5A4090"/>
		</linearGradient>
		<path opacity="0.5" fill="url(#SVGID_36_)" d="M47.767,25.74c1.493,1.037,2.26,3.122,3.951,3.788c1.849,0.728,8.32,6.72,8.32,6.72
			S57.813,27.87,57,26.977c-1.252-1.375-4.123-5.345-4.123-5.345s-1.63,0.005-4.992-0.469c-1.675-0.236-3.512-0.593-5.098-1.094
			c-2.412-0.763-4.265-1.69-4.265-1.69S45.719,24.319,47.767,25.74z"/>
	</g>
	<path opacity="0.03" fill="#CEDDF0" d="M1095.214,206.31c-15.994-14.344-37.952-10.181-73.028-24.969
		c-10.272-4.331-37.606-16.216-49.602-14.946c-19.167,2.03-58.223,0.313-77.623,0c-32.834-0.53-98.385-4.715-131.22-4.236
		c-19.02,0.278-56.82,3.585-75.775,4.672c-18.934,1.085-56.842,2.923-75.775,4.016c-19.885,1.149-106.872-16.032-99.898-3.536
		c1.213,2.173-1.231,11.511-3.421,12.823c-3.221,1.928-8.317,0.357-12.639,0.444c-28.743,0.579-217.686-12.57-254.954-14.731
		c-13.95-0.809,144.529,24.386,158.214,26.369c20.036,2.903,111.47,3.007,130.981,1.906c13.126-0.74,40.581-3.137,52.431-1.818
		c11.562,1.287,33.479,3.573,44.072,6.926c9.334,2.955,34.903,7.647,35.115,14.547c0.092,2.984-10.568,5.72-14.785,6.703
		c-23.187,5.406-73.396,5.012-97.953,4.935c-7.393-0.023-22.242-0.649-29.571,0c-22.085,1.955-63.115,8.495-85.048,11.107
		c-65.417,7.791-259.779,10.187-259.779,10.187l0.017,3.846c0,0,58.58-2.513,80.002-2.659
		c122.515-0.834,367.621,12.063,489.301,21.641c48.734,3.836,144.536,18.859,193.133,23.41
		c34.283,3.211,99.745-6.826,151.349-11.151c36.21-3.035,60.023-9.86,66.608-19.634c2.556-3.794,1.629-7.802,4.503-10.262
		c0.643-0.551,3.605-1.358,3.605-1.358l-0.024-3.85c0,0-0.575,0.023-1.053-0.151c-8.179-2.987-15.627-14.342-25.137-28.376
		C1127.817,204.228,1104.685,214.804,1095.214,206.31z"/>
	<path opacity="0.08" fill="#86D1E4" d="M677.479,228.666c0.169-0.501-2.844-0.648-3.847-0.787
		c-2.76-0.384-8.469-0.835-11.339-0.886c-3.504-0.062-10.471,0.491-13.971,0.591c-3.337,0.095-10.029,0.312-13.363,0.197
		c-2.357-0.081-6.959-0.689-9.314-0.787c-3.278-0.138-9.885-0.148-13.161,0c-1.641,0.074-4.844,0.492-6.479,0.591
		c-4.035,0.244-12.264,0.066-16.235,0.492c-1.901,0.204-5.306,1.402-7.252,1.378c-1.721-0.022-4.563-1.297-6.277-1.378
		c-3.52-0.166-10.419,1.024-13.768,1.575c-1.524,0.251-4.284,1.155-5.872,1.28c-3.466,0.272-12.792,0.259-16.283,0.441
		c-2.117,0.11-9.902,0.034-12.992,0.683c-1.432,0.301,5.744,0.24,8.989,0.649c0.343,0.043,4.98-0.504,3.933,0.068
		c-1.582,0.864-6.78,0.128-9.159,0.128c-1.822,0-5.498,0.163-7.289,0c-1.922-0.175-3.804-0.144-5.725-0.319
		c-3.98-0.363-10.21-0.494-15.741-0.299c-0.869,0.031-12.698-0.779-12.447-0.373c0.658,1.059,4.764,1.867,16.905,2.566
		c2.111,0.121,7.914-0.993,8.504,0c0.448,0.754-3.915,1.456-5.467,1.673c-2.772,0.389-8.69-0.215-11.541,0
		c-1.155,0.087-4.708-0.003-6.711,0.317c-1.19,0.19,5.666,1.534,5.699,2.143c0.035,0.646-5.6,0.645-6.928,0.621
		c-2.697-0.049-7.289-0.763-7.837-0.075c-0.543,0.682,8.299,3.127,9.703,3.391c3.022,0.568,9.756-0.237,12.958,0
		c2.358,0.174,7.703,0.811,8.72,1.86c0.513,0.529-7.063,1.865-7.117,2.45c-0.031,0.334,5.21,0.7,6.62,0.921
		c2.118,0.332,2.81,0.762,4.844,1.202c2.261,0.489,9.851,1.569,12.04,2.13c3.306,0.847,10.142,2.324,13.566,3.051
		c2.558,0.543,7.137,2.782,9.875,3.045c1.539,0.148,3.819,0.146,5.327,0.358c1.093,0.154,3.788,0.567,4.797,0.823
		c1.85,0.469,5.674,1.319,7.694,1.575c8.428,1.066,23.826,2.314,32.522,2.548c7.531,0.203,15.973-1.383,23.384-0.701
		c2.992,0.275,17.647,1.049,20.675,1.209c1.936,0.103,6.311,0.076,7.694-0.591c0.656-0.316-0.129-1.5,0.607-1.772
		c1.866-0.688,6.977,0.57,9.314,0.492c0.833-0.028,10.785,1.084,10.148,0.821c-2-0.826-12.921-1.842-14.763-2.15
		c-3.936-0.658-15.761,0.641-19.888,0.378c-5.322-0.34-11.317-1.491-16.682-1.416c-4.723,0.066-21.607,1.136-26.316,0.944
		c-9.274-0.378-26.364-1.035-35.063-2.643c-4.147-0.767-16.817-3.705-20.875-4.577c-4.747-1.02-13.397-3.7-17.808-6.493
		c-1.518-0.961-0.509-4.141,3.982-5.316c2.016-0.527,2.733-0.549,4.756-1.321c3.748-1.431,13.806-5.629,18.516-5.984
		c2.36-0.178,7.183,0.641,9.516,0.394c1.307-0.139,3.356-1.13,4.657-1.28c2.022-0.233,6.24,0.325,8.301,0.197
		c2.183-0.136,8.786-0.401,10.904-0.694c1.775-0.245,2.739-1.131,4.581-1.177c1.746-0.044,5.244,0.244,6.99,0.198
		c1.41-0.037,4.087-0.544,5.467-0.689c2.31-0.243,6.957-0.703,9.314-0.787c1.969-0.07,5.922,0.121,7.896,0.098
		c4.921-0.056,15.308-1.235,19.631-0.089c3.18,0.843,3.442,1.374,8.254,1.338C652.075,230.862,676.699,230.98,677.479,228.666z"/>
	<path opacity="0.08" fill="#86D1E4" d="M699.254,227.836c4.135-0.395,12.098-1.797,16.083-2.469
		c2.476-0.417,7.232-1.575,9.808-1.804c2.629-0.234,9.41-1.155,10.687,0c0.667,0.603-1.891,1.911-3.032,2.307
		c-1.764,0.612-7.79,0.906-7.655,1.966c0.064,0.507,2.836,0.727,3.867,0.708c2.012-0.036,5.919-0.619,7.925-0.708
		c1.824-0.081,5.496-0.05,7.324,0c3.261,0.089,9.772,0.417,12.984,0.708c4.077,0.37,11.923,1.861,16.051,2.051
		c2.069,0.095,6.216-0.244,8.292-0.279c1.523-0.026,4.697-0.297,6.097,0c0.904,0.192,2.873,0.931,2.705,1.408
		c-0.277,0.783-4.232,1.184-5.762,1.438c-1.73,0.288-6.459-0.173-7.183,0.652c-0.568,0.647,1.846,2.031,3.103,2.368
		c1.786,0.479,6.652-0.684,8.138,0c0.716,0.33,0.931,1.574,0.26,1.926c-0.738,0.388-3.774-0.459-4.319,0
		c-0.609,0.514,1.523,1.651,2.378,2.071c0.687,0.337,2.75,0.575,3.384,0.936c1.286,0.734,3.581,2.639,3.497,3.607
		c-0.078,0.9-0.342,3.093-2.023,3.45c-0.758,0.161-3.453,0.593-4.226,0.736c-1.79,0.332-4.948,0.87-4.732,1.806
		c0.122,0.529,2.725,1.016,3.013,1.529c0.378,0.672-0.535,2.127-1.292,2.716c-1.227,0.956-5.291,2.18-7.183,2.821
		c-3.472,1.177-10.776,3.269-14.524,4.219c-3.388,0.859-10.239,2.581-13.93,3.046c-3.935,0.496-12.133,0.584-16.191,0.668
		c-2.036,0.042-6.113,0-8.15,0c-4.229,0-12.816,0.507-16.918,0c-3.87-0.479-10.509-0.098-14.443-0.427
		c-4.334-0.362-12.222-1.473-16.991-1.94c-3.181-0.312-15.337-0.696-17.375-1.938c-1.563-0.952,5.706-1.66,6.542-2.812
		c2.362-3.254,12.071-8.886,12.702-12.327c0.53-2.893-4.106-8.536-6.737-11.137c-1.315-1.3-7.879-3.291-6.997-4.676
		c0.759-1.192,7.127-1.36,9.613-1.614C680.237,228.208,693.047,228.429,699.254,227.836z"/>
	<linearGradient id="SVGID_37_" gradientUnits="userSpaceOnUse" x1="655.6954" y1="237.3802" x2="655.6954" y2="261.4384">
		<stop  offset="0.0486" style="stop-color:#200E32"/>
		<stop  offset="0.5632" style="stop-color:#381D58"/>
		<stop  offset="1" style="stop-color:#39174E"/>
	</linearGradient>
	<path fill="url(#SVGID_37_)" d="M765.62,242.094c-1.31-0.087-19.733-0.847-22.442-0.346c-1.746,0.323-5.469,2.059-6.657,2.036
		c-1.822-0.034-2.02,1.656-3.839,1.719c-2.258,0.079-1.437,1.483-3.67,1.31c-0.966-0.075-0.311,2.083-1.252,1.96
		c-1.002-0.131-3.025-0.405-4.067-0.421c-1.496-0.023-4.437,0.526-5.916,0.421c-1.532-0.109-4.232-0.889-5.547-1.264
		c-1.678-0.477-4.426-1.883-6.286-2.19c-1.044-0.172-3.33-0.123-4.437-0.084c-2.16,0.075-6.545,0.337-8.505,0.758
		c-0.92,0.198-2.198,1.008-3.143,1.179c-2.453,0.446-7.932,0.531-10.538,0.337c-1.186-0.089-3.302-0.663-4.437-0.842
		c-1.134-0.179-3.51-0.384-4.622-0.59c-0.536-0.099-1.455-0.497-2.034-0.505c-0.661-0.01-1.75,0.457-2.404,0.505
		c-2.066,0.153-6.369-0.076-8.32-0.421c-2.774-0.492-6.87-2.675-9.614-3.201c-1.037-0.199-3.383-0.159-4.437-0.337
		c-1.419-0.24-3.745-1.208-5.177-1.432c-0.748-0.117-2.798-0.493-3.143-0.168c-0.456,0.429,2.219,1.011,2.958,1.348
		c0.786,0.358,3.458,0.946,3.143,1.432c-0.187,0.289-1.958,0.161-2.588,0.253c-0.671,0.097-2.021,0.316-2.588,0.505
		c-0.687,0.23-1.406,1.062-2.219,1.179c-4.03,0.58-15.9-1.853-16.455-1.769c-0.555,0.084-14.858-2.753-19.598-3.875
		c-1.379-0.326-3.925-1.162-5.362-1.432c-1.368-0.257-4.526-1.065-5.731-0.674c-0.944,0.307,0.057,1.615-0.37,2.106
		c-0.327,0.376-1.418,1.088-2.219,1.264c-1.333,0.292-4.437,0-5.916,0c-0.924,0-2.78,0.051-3.698,0
		c-0.757-0.042-2.27-0.188-2.958-0.337c-0.626-0.136-1.765-0.519-2.219-0.758c-0.379-0.2-0.639-0.773-1.109-0.927
		c-0.648-0.212-2.357-0.315-3.143-0.253c-0.734,0.058-1.89,0.556-2.588,0.674c-1.368,0.231-4.279,0.442-5.731,0.505
		c-1.334,0.058-4.065,0.155-5.362,0c-0.821-0.098-2.159-0.628-2.958-0.758c-1.016-0.165-3.198-0.441-4.252-0.337
		c-1.04,0.103-2.496,0.952-3.513,1.095c-0.662,0.093-2.092,0.059-2.773,0c-1.122-0.096-3.43-0.397-4.252-0.758
		c-0.566-0.248-0.47-1.317-1.255-1.312c-0.492,0.003-0.462,0.646-0.741,0.83c-1.262,0.833-5.419,1.874-6.509,2.756
		c-0.787,0.637-1.648,2.151-1.294,2.864c0.423,0.85,3.228,2.183,4.622,2.78c2.373,1.016,8.021,2.551,10.851,3.285
		c3.875,1.006,11.997,2.702,16.071,3.528c1.924,0.39,5.801,1.145,7.794,1.454c4.527,0.701,13.709,2.009,18.448,2.299
		c1.992,0.122,6.043-0.1,8.042,0c1.445,0.072,4.266,0.414,5.676,0.575c1.429,0.163,5.676,0.718,5.676,0.718s2.887-0.732,3.942-0.862
		c2.329-0.288,7.21-0.423,9.618-0.359c1.605,0.042,4.78,0.345,6.307,0.575c1.49,0.224,4.145,1.065,5.676,1.221
		c1.923,0.197,5.922-0.084,7.884,0c2.317,0.099,6.824,0.862,9.145,0.79c1.736-0.054,5.026-0.669,6.601-1.006
		c0.677-0.145,1.822-0.63,2.544-0.718c2.779-0.342,8.661-0.042,11.51,0.144c3.389,0.22,9.9,1.249,13.245,1.581
		c1.798,0.178,5.434,0.448,7.253,0.575c2.987,0.208,8.962,0.735,11.984,0.718c2.035-0.011,6.025-0.452,8.042-0.575
		c3.538-0.216,10.645-0.532,14.191-0.718c1.972-0.104,5.901-0.393,7.884-0.431c3.389-0.065,6.822-0.143,10.191,0.036
		c1.996,0.106,7.858-2.756,9.817-2.551c2.739,0.287,12.41-0.799,17.092-2.428c6.012-2.092,20.123-5.65,21.564-8.725
		c2.401-5.126,2.124-5.024,2.124-5.024S767.907,242.246,765.62,242.094z"/>
	<linearGradient id="SVGID_38_" gradientUnits="userSpaceOnUse" x1="660.7422" y1="248.7868" x2="660.7422" y2="227.8448">
		<stop  offset="0.0486" style="stop-color:#200E32"/>
		<stop  offset="0.2816" style="stop-color:#210F34"/>
		<stop  offset="0.4843" style="stop-color:#251239"/>
		<stop  offset="0.6757" style="stop-color:#2A1641"/>
		<stop  offset="0.859" style="stop-color:#311A4D"/>
		<stop  offset="1" style="stop-color:#381D58"/>
	</linearGradient>
	<path fill="url(#SVGID_38_)" d="M783.229,237.947c-5.394-2.663-22.102-7.955-23.673-7.897c-2.279,0.083-4.771-0.756-7.021-0.943
		c-6.869-0.57-20.957-0.634-27.917-0.382c-2.533,0.092-7.443,0.855-9.984,0.867c-2.859,0.014-8.443-0.698-11.278-0.867
		c-5.109-0.305-15.369-0.871-20.522-0.88c-3.99-0.007-11.914,0.548-15.9,0.627c-2.54,0.05-7.82-0.443-10.169,0
		c-0.845,0.16-1.78,0.984-2.588,1.179c-2.079,0.502-6.919,0.972-9.244,0.807c-1.872-0.133-4.835-1.412-6.656-1.65
		c-2.226-0.291-6.941-0.358-9.244-0.253c-2.142,0.098-6.17,0.958-8.32,1.011c-1.494,0.037-4.435-0.317-5.916-0.415
		c-1.708-0.113-5.126-0.516-6.841-0.427c-1.424,0.074-3.979,0.755-5.362,0.927c-1.312,0.163-4.038,0.278-5.362,0.421
		c-0.705,0.076-2.056,0.337-2.773,0.386c-0.82,0.056-2.486,0-3.314,0c-0.849,0-2.59-0.123-3.395,0
		c-0.754,0.116-1.885,0.323-2.655,0.415c-1.359,0.163-4.024,0.002-5.427,0.041c-0.818,0.023-2.359,0.313-3.143,0.421
		c-1.483,0.205-4.384,0.736-5.916,0.842c-0.914,0.064-2.773,0-3.698,0c-1.156,0-3.501-0.128-4.622,0
		c-0.762,0.087-2.011,0.587-2.773,0.674c-1.076,0.123-3.328,0-4.437,0c-0.971,0-2.94-0.106-3.883,0
		c-1.927,0.217-5.237,1.293-7.026,1.685c-0.727,0.159-2.154,0.559-2.958,0.59c-0.76,0.029-2.231-0.441-2.958-0.337
		c-0.469,0.067-1.025,0.487-1.294,0.674c-0.475,0.331-0.997,1.103-1.479,1.432c-0.382,0.26-1.601,0.635-1.849,0.927
		c-0.233,0.275-0.48,0.476-0.406,0.769c0.226,0.894,3.537,1.072,4.658,1.168c0.681,0.059,2.111,0.093,2.773,0
		c1.017-0.143,2.473-0.992,3.513-1.095c1.054-0.104,3.236,0.172,4.252,0.337c0.799,0.13,2.137,0.66,2.958,0.758
		c1.297,0.155,4.027,0.058,5.362,0c1.453-0.063,4.363-0.274,5.731-0.505c0.699-0.118,1.854-0.616,2.588-0.674
		c0.786-0.062,2.495,0.041,3.143,0.253c0.47,0.154,0.73,0.727,1.109,0.927c0.454,0.239,1.593,0.622,2.219,0.758
		c0.688,0.149,2.202,0.295,2.958,0.337c0.917,0.051,2.773,0,3.698,0c1.479,0,4.583,0.292,5.916,0c0.8-0.175,1.892-0.887,2.219-1.264
		c0.427-0.491-0.574-1.799,0.37-2.106c1.205-0.391,4.363,0.417,5.731,0.674c1.436,0.27,3.983,1.106,5.362,1.432
		c4.739,1.122,19.043,3.959,19.598,3.875c0.555-0.084,12.424,2.349,16.455,1.769c0.813-0.117,1.532-0.949,2.219-1.179
		c0.567-0.19,1.917-0.408,2.588-0.505c0.631-0.091,2.401,0.036,2.588-0.253c0.315-0.486-2.357-1.074-3.143-1.432
		c-0.74-0.337-3.414-0.919-2.958-1.348c0.345-0.324,2.395,0.051,3.143,0.168c1.432,0.224,3.757,1.192,5.177,1.432
		c1.054,0.178,3.401,0.138,4.437,0.337c2.744,0.526,6.839,2.71,9.614,3.201c1.951,0.346,6.254,0.574,8.32,0.421
		c0.653-0.048,1.742-0.516,2.404-0.505c0.579,0.009,1.497,0.406,2.034,0.505c1.112,0.206,3.488,0.41,4.622,0.59
		c1.135,0.179,3.251,0.754,4.437,0.842c2.606,0.195,8.085,0.109,10.538-0.337c0.945-0.172,2.223-0.981,3.143-1.179
		c1.959-0.421,6.344-0.683,8.505-0.758c1.107-0.038,3.393-0.088,4.437,0.084c1.86,0.307,4.608,1.713,6.286,2.19
		c1.315,0.374,4.015,1.155,5.547,1.264c1.479,0.105,4.42-0.445,5.916-0.421c1.042,0.016,3.065,0.29,4.067,0.421
		c0.941,0.123,3.534-2.384,5.793-2.462c1.819-0.063,1.146-2.561,2.968-2.527c1.187,0.022,6.191-1.546,7.35-1.426
		c1.291,0.134,20.439-0.352,21.748-0.265c2.288,0.153,22.009-1.072,22.009-1.072S790.75,241.66,783.229,237.947z"/>
	<path opacity="0.08" fill="#86D1E4" d="M897.282,197.248c-1.926-1.273-5.863-3.11-10.888-3.375
		c-2.803-0.147-11.004-0.552-12.642-0.102c-1.169,0.321,2.621,0.655,3.474,1.165c0.869,0.519,4.836,0.857,4.509,1.512
		c-0.541,1.085-6.767,0.06-9.019,0c-9.225-0.247-27.529-1.607-36.737-1.972c-6.387-0.253-20.562-2.622-25.597-0.657
		c-0.848,0.331-1.302,1.631-0.796,2.104c0.509,0.475,4.138,0.323,3.979,0.855c-0.343,1.145-6.972,0.358-9.284,0.526
		c-4.466,0.324-13.268,1.723-17.772,1.578c-2.187-0.071-6.19-1.148-8.355-1.315c-1.9-0.146-7.101-0.907-7.692,0
		c-0.54,0.829,4.123,1.656,5.703,2.038c2.669,0.645,8.466,1.436,11.406,1.644c2.199,0.155,7.752-0.947,8.886,0
		c0.424,0.354-0.877,1.236-1.592,1.446c-1.169,0.344-4.777-0.589-5.438,0c-0.671,0.599,1.934,1.846,2.918,2.327
		c2.177,1.065,7.573,2.655,10.477,3.13c4.998,0.817,15.698,0.863,20.955,0.986c5.961,0.14,23.077,0,23.873,0
		c0.796,0,13.62-0.597,18.17-0.723c3.577-0.099,10.764-0.397,14.324-0.197c1.838,0.103,5.324,1.023,7.162,0.92
		c2.792-0.156,8.209-1.482,9.977-2.564c2.523-1.544,4.474-3.825,4.563-5.13C901.945,199.977,899.057,198.421,897.282,197.248z"/>
	<linearGradient id="SVGID_39_" gradientUnits="userSpaceOnUse" x1="848.1948" y1="202.3256" x2="848.1948" y2="196.9057">
		<stop  offset="0.0486" style="stop-color:#200E32"/>
		<stop  offset="0.2657" style="stop-color:#28143F"/>
		<stop  offset="0.5639" style="stop-color:#311A4D"/>
		<stop  offset="0.8192" style="stop-color:#371D55"/>
		<stop  offset="1" style="stop-color:#381D58"/>
	</linearGradient>
	<path fill="url(#SVGID_39_)" d="M800.46,201.441c-0.627-0.198-1.504-0.96-1.33-1.319c0.459-0.946,4.51-1.932,6.319-2.308
		c2.174-0.452,6.962-0.649,9.313-0.742c8.579-0.34,25.819-0.063,34.424,0c6.987,0.052,21.036-0.129,27.938,0.412
		c3.337,0.262,9.869,1.215,12.971,1.878c1.903,0.407,7.694,1.087,7.151,2.078c-0.261,0.477-2.993,0-3.991,0
		c-1.954,0-5.877-0.121-7.816,0c-1.661,0.104-4.82,0.743-6.486,0.824c-6.091,0.298-18.327-0.594-24.446-0.659
		c-7.316-0.078-21.951,0.193-29.269,0.165C819.042,201.747,805.688,203.09,800.46,201.441z"/>
	<linearGradient id="SVGID_40_" gradientUnits="userSpaceOnUse" x1="812.5155" y1="180.4453" x2="885.5811" y2="222.6298">
		<stop  offset="0.0486" style="stop-color:#200E32"/>
		<stop  offset="0.5632" style="stop-color:#381D58"/>
		<stop  offset="1" style="stop-color:#39174E"/>
	</linearGradient>
	<path fill="url(#SVGID_40_)" d="M801.284,201.992c0.942,0.476,3.013,1.381,4.262,1.63c8.743,1.739,27.973,2.124,37.382,2.354
		c7.635,0.186,22.943-0.123,30.563-0.423c5.142-0.202,16.157,0.084,20.457-1.328c1.358-0.446,4.925-2.82,3.298-2.785
		c-5.033,0.109-8.879-0.183-11.807,0c-1.661,0.104-4.82,0.743-6.486,0.824c-6.091,0.298-18.327-0.591-24.446-0.659
		c-7.683-0.085-23.054,0.178-30.739,0.145c-5.829-0.025-15.027,0.385-23.308-0.31C800.119,201.412,801.042,201.87,801.284,201.992z"
		/>
	<linearGradient id="SVGID_41_" gradientUnits="userSpaceOnUse" x1="1022.7695" y1="216.4227" x2="1069.7711" y2="243.559">
		<stop  offset="0.0486" style="stop-color:#200E32"/>
		<stop  offset="0.5632" style="stop-color:#381D58"/>
		<stop  offset="1" style="stop-color:#39174E"/>
	</linearGradient>
	<path fill="url(#SVGID_41_)" d="M1015.377,229.227c0,0,0.009,2.149,3.956,3.26c3.877,1.092,14.926,0.838,19.825,0.87
		c4.292,0.028,12.884,0.015,17.165-0.195c4.388-0.216,13.373-0.407,17.453-1.522c1.098-0.3,4.27-1.176,3.802-1.912
		c-0.556-0.874-4.139,0.532-5.53,0.664c-2.953,0.279-8.972,0.333-11.866,0.82c-0.317,0.053-0.889,0.29-1.21,0.332
		c-0.353,0.047-1.324,0.231-1.44,0c-0.088-0.175,0.676-0.315,0.864-0.449c0.157-0.112,0.575-0.358,0.518-0.507
		c-0.04-0.106-0.416-0.181-0.576-0.195c-0.364-0.033-1.079,0.151-1.44,0.195c-0.962,0.119-2.884,0.384-3.859,0.429
		c-1.078,0.05-3.365-0.42-4.32-0.078c-0.235,0.084-0.348,0.512-0.576,0.605c-0.656,0.267-2.287,0.186-3.053,0.176
		c-0.522-0.007-1.571-0.079-2.074-0.176c-0.548-0.106-2.074-0.644-2.074-0.644s-1.597-0.122-2.131-0.117
		c-1.072,0.01-3.229,0.119-4.262,0.312c-0.382,0.071-1.044,0.437-1.44,0.449c-0.321,0.01-0.929-0.187-1.21-0.293
		c-0.161-0.061-0.398-0.281-0.576-0.312c-0.607-0.108-1.851,0.301-2.477,0.273c-0.991-0.045-2.845-0.6-3.802-0.781
		c-0.673-0.127-2.014-0.529-2.707-0.468c-0.294,0.026-0.749,0.342-1.037,0.39C1020.602,230.47,1015.707,229.411,1015.377,229.227z"
		/>
	<path opacity="0.2" fill="#86D1E4" d="M1020.977,226.967l24.495,0.306l30.888,1.528c0,0-0.818-0.709-1.462-0.852
		c-1.431-0.318-3.875-0.822-5.375-0.909c-1.578-0.092-4.949-0.274-6.334-0.073c-0.329,0.048,0.749-0.581,0.727-0.809
		c-0.019-0.195-1.064-0.434-1.352-0.44c-1.719-0.038-3.464,0.447-4.843,0.486c-0.588,0.017-1.77-0.1-2.332-0.218
		c-0.472-0.099-1.279-0.556-1.769-0.599c-0.977-0.086-2.874,0.534-3.859,0.545c-1.163,0.013-3.424-0.476-4.583-0.545
		c-1.202-0.071-3.63-0.116-4.824,0c-0.85,0.083-2.44,0.617-3.297,0.654c-0.772,0.034-2.283-0.308-3.055-0.327
		c-0.726-0.018-2.175,0.096-2.895,0.163c-0.629,0.059-1.86,0.361-2.493,0.327c-0.875-0.047-2.69-0.387-3.297-0.817
		c-0.277-0.196-0.145-0.889-0.482-1.035c-1.499-0.648-6.223,0.717-7.351,1.319c-1.325,0.708-2.015,2.878-2.015,2.878
		L1020.977,226.967z"/>
	<linearGradient id="SVGID_42_" gradientUnits="userSpaceOnUse" x1="1046.4547" y1="231.7376" x2="1046.4547" y2="226.2585">
		<stop  offset="0.0486" style="stop-color:#200E32"/>
		<stop  offset="0.4258" style="stop-color:#210F33"/>
		<stop  offset="0.6005" style="stop-color:#231137"/>
		<stop  offset="0.7335" style="stop-color:#27143D"/>
		<stop  offset="0.8454" style="stop-color:#2D1745"/>
		<stop  offset="0.9429" style="stop-color:#341B50"/>
		<stop  offset="1" style="stop-color:#381D58"/>
	</linearGradient>
	<path fill="url(#SVGID_42_)" d="M1077.576,229.727c-0.473,0.896-4.139,0.532-5.53,0.664c-2.953,0.279-8.972,0.333-11.866,0.82
		c-0.317,0.053-0.889,0.29-1.21,0.332c-0.353,0.047-1.324,0.231-1.44,0c-0.088-0.175,0.676-0.315,0.864-0.449
		c0.157-0.112,0.575-0.358,0.518-0.507c-0.04-0.106-0.416-0.181-0.576-0.195c-0.364-0.033-1.079,0.151-1.44,0.195
		c-0.962,0.119-2.884,0.384-3.859,0.429c-1.078,0.05-3.365-0.42-4.32-0.078c-0.235,0.084-0.348,0.512-0.576,0.605
		c-0.656,0.267-2.287,0.186-3.053,0.176c-0.522-0.007-1.571-0.079-2.074-0.176c-0.548-0.106-1.522-0.546-2.074-0.644
		c-0.517-0.091-1.597-0.122-2.131-0.117c-1.072,0.01-3.229,0.119-4.262,0.312c-0.382,0.071-1.044,0.437-1.44,0.449
		c-0.321,0.01-0.929-0.187-1.21-0.293c-0.161-0.061-0.398-0.281-0.576-0.312c-0.607-0.108-1.851,0.301-2.477,0.273
		c-0.991-0.045-2.845-0.6-3.802-0.781c-0.673-0.127-2.014-0.529-2.707-0.468c-0.294,0.026-0.749,0.342-1.037,0.39
		c-0.699,0.118-6.226,0.198-5.963-1.486c0.141-0.903,2.562-2.029,3.779-2.231c1.887-0.314,5.928,0.049,7.771,0.049
		c3.053,0,9.503-0.955,12.211,0c0.156,0.055,0.403,0.39,0.403,0.39s0.434-0.338,0.634-0.39c1.424-0.373,4.579-0.019,6.106,0
		c2.795,0.034,8.388,0.124,11.174,0.273c1.302,0.07,3.996,0.063,5.184,0.429c0.176,0.054,0.383,0.361,0.576,0.351
		c0.112-0.005,0.186-0.202,0.288-0.234c1.34-0.431,4.456-0.133,5.933-0.039c0.658,0.042,2.015,0.133,2.592,0.351
		c0.24,0.091,0.566,0.407,0.749,0.546c0.088,0.067,0.222,0.241,0.346,0.273c0.217,0.057,0.69-0.066,0.922-0.078
		c0.431-0.023,1.314-0.124,1.728-0.039c0.237,0.049,0.624,0.277,0.806,0.39c0.196,0.121,0.518,0.41,0.691,0.546
		C1077.317,229.523,1077.621,229.643,1077.576,229.727z"/>
</g>
</svg>
