<?xml version="1.0" encoding="utf-8"?>
<!-- Generator: Adobe Illustrator 17.0.0, SVG Export Plug-In . SVG Version: 6.00 Build 0)  -->
<!DOCTYPE svg PUBLIC "-//W3C//DTD SVG 1.1//EN" "http://www.w3.org/Graphics/SVG/1.1/DTD/svg11.dtd">
<svg version="1.1" id="Layer_1" xmlns="http://www.w3.org/2000/svg" xmlns:xlink="http://www.w3.org/1999/xlink" x="0px" y="0px"
	 width="1280px" height="790.047px" viewBox="0 0 1280 790.047" enable-background="new 0 0 1280 790.047" xml:space="preserve">
<g>
	<path opacity="0.2" fill="#010101" d="M-1,26.698c0,0,147.083,19.83,195.611,23.768c44.502,3.612,126.761,45.902,170.923,52.541
		c43.541,6.546,132.073,1.595,176.061,0c65.027-2.358,196.01-4.893,259.611-18.856c55.97-12.288,205.425-69.116,261.402-81.084
		c64.74-13.84,218.392,23.63,218.392,23.63v193.009c-43.537-37.457-226.513-17.365-264.969,5.446
		c-51.921,30.799-154.328,94.856-205.412,127.067c-27.402,17.278-79.097,57.851-109.024,70.06
		c-65.168,26.587-205.793,46.562-275.317,56.616c-65.927,9.534-198.189-65.416-261.033-87.751C93.215,365.546-1,219.698-1,219.698
		V26.698z"/>
	<path opacity="0.2" fill="#010101" d="M1029.047,749.151c-39.964-7.754-136.108-51.879-275.983-33.627
		c-44.193,5.767-117.711,15.795-162.298,19.395C379.489,751.979,105.017,648.546-1,636.698v43c0,0,451.498,118.958,577.564,109.851
		c82.84-5.985,204.106-40.397,254.314-44.299c34.646-2.693,80.181,0,134.594,22.287c16.346,6.695,56.376,11.778,74.675,13.053
		c47.934,3.34,66.247-0.668,85.459-6.2c34.922-10.054,90.661-31.491,84.998-37.558c-6.726-7.206-61.124,10.87-95.417,15.442
		C1079.408,757.043,1069.376,756.976,1029.047,749.151z"/>
	<path opacity="0.2" fill="#010101" d="M1281,542.698c0,0-33.602-16.038-68.199-7.934c-43.972,10.301-190.763,24.038-235.873,26.727
		c-46.757,2.787-392.73,33.387-452.578,5.264c-44.644-20.978-3.238,15.95,0.695,18.057c82.119,44.002,247.969,18.066,276.784,16.334
		c37.308-2.242,110.759,16.655,147.96,20.101c60.073,5.565,221.53-16.3,281.851-18.643c22.309-0.867,49.36,6.093,49.36,6.093
		V542.698z"/>
	<path opacity="0.2" fill="#010101" d="M-1,542.698c0,0,23.329,14.669,32.307,18.882c11.872,5.572,43.965,16.94,67.878,17.1
		c17.502,0.118,38.889,0.851,68.105-6.108c15.925-3.794,0.132,9.417-4.145,13.334c-4.726,4.327-26.377,12.72-32.354,15.029
		c-19.882,7.68-54.654,12.396-75.955,13.131C23.343,615.153-1,608.698-1,608.698V542.698z"/>
	<path opacity="0.2" fill="#010101" d="M1281,636.698c0,0-40.349-6.045-53.478-5.835c-25.769,0.413-76.262,13.551-101.995,14.97
		c-2.764,0.153-10.35-0.814-10.91,1.897c-0.744,3.608,8.862,6.829,12.333,8.063c25.725,9.151,81.776,6.397,108.62,11.384
		c11.234,2.087,45.429,12.52,45.429,12.52V636.698z"/>
</g>
</svg>
