<?xml version="1.0" encoding="utf-8"?>
<!-- Generator: Adobe Illustrator 17.0.0, SVG Export Plug-In . SVG Version: 6.00 Build 0)  -->
<!DOCTYPE svg PUBLIC "-//W3C//DTD SVG 1.1//EN" "http://www.w3.org/Graphics/SVG/1.1/DTD/svg11.dtd">
<svg version="1.1" id="Layer_1" xmlns="http://www.w3.org/2000/svg" xmlns:xlink="http://www.w3.org/1999/xlink" x="0px" y="0px"
	 width="108.396px" height="110.456px" viewBox="894.115 653.096 108.396 110.456"
	 enable-background="new 894.115 653.096 108.396 110.456" xml:space="preserve">
<g>
	
		<linearGradient id="SVGID_1_" gradientUnits="userSpaceOnUse" x1="1248.304" y1="1409.2917" x2="1193.322" y2="1314.0603" gradientTransform="matrix(1 0 0 -1 -272.5 2070)">
		<stop  offset="0.0593" style="stop-color:#17A5B8"/>
		<stop  offset="0.407" style="stop-color:#1490A1"/>
		<stop  offset="0.5728" style="stop-color:#22798C"/>
		<stop  offset="0.9267" style="stop-color:#26495F"/>
		<stop  offset="1" style="stop-color:#253F56"/>
	</linearGradient>
	<ellipse fill="url(#SVGID_1_)" cx="948.313" cy="708.324" rx="54.198" ry="55.228"/>
	<path opacity="0.1" fill="#F7F7F6" enable-background="new    " d="M994.887,735.534c0,0-14.591,23.572-37.513,26.44
		c-30.372,3.8-57.874-16.042-61.949-46.271c-4.074-30.229,17.214-58.049,47.548-62.137c0,0-18.366,36.905-1.594,62.71
		C957.874,741.653,994.887,735.534,994.887,735.534z"/>
	<path opacity="0.1" fill="#F7F7F6" enable-background="new    " d="M982.463,752.19c0,0-6.918,5.793-24.932,9.379
		c-30.018,5.975-58.181-16.749-62.197-46.543s14.005-42.466,20.736-50.102c0,0-14.807,39.871,2.467,65.097
		C942.412,764.887,982.463,752.19,982.463,752.19z"/>
	<path opacity="0.05" fill="#CEDDF0" enable-background="new    " d="M973.414,732.649c0,0,9.869-4.927,13.115-6.652
		c1.924-1.023,5.957-2.823,7.615-4.237c1.562-1.332,4.248-4.575,5.077-6.453c1.305-2.96,2.203-9.531,2.115-12.765
		c-0.079-2.927-1.745-8.615-2.538-11.433c-0.972-3.451-4.654-13.563-4.654-13.563s1.27,9.854,1.269,13.16
		c-0.001,4.384-0.152,13.351-1.692,17.456c-1.468,3.914-7.051,10.391-9.731,13.599C981.558,724.672,973.414,732.649,973.414,732.649
		z"/>
	<path opacity="0.05" fill="#CEDDF0" enable-background="new    " d="M973.685,680.194c1.537,3.199,7.413,7.719,9.308,10.72
		c0.847,1.341,2.538,5.816,2.538,5.816s1.849-7.217,2.115-9.679c0.303-2.807,1.28-8.776,0-11.292
		c-1.602-3.149-8.757-6.002-11.423-8.32c-1.628-1.415-6.001-6.199-6.001-6.199S971.599,675.852,973.685,680.194z"/>
	<path opacity="0.05" fill="#CEDDF0" enable-background="new    " d="M971.262,670.244c0,0-9.554,6.566-12.512,9.348
		c-3.051,2.87-11.846,16.649-11.846,16.649s-2.592-8.351-2.115-11.148c0.815-4.783,6.385-13.279,9.731-16.794
		c2.815-2.957,13.711-8.873,13.711-8.873l-7.687,12.082L971.262,670.244z"/>
	<path opacity="0.05" fill="#CEDDF0" enable-background="new    " d="M966.789,692.237c-0.092,3.475-2.822,10.162-4.701,13.086
		c-1.576,2.453-8.344,8.149-8.344,8.149l11.766-2.888c0,0-6.763,16.183-12.477,20.628c-2.896,2.253-18.933,8.061-18.933,8.061
		s8.54-0.254,11.386-0.186c11.699,0.281,30.015-13.784,32.71-18.002c2.637-4.128,2.897-14.725,1.839-19.508
		c-3.125-14.12-16.277-23.039-16.277-23.039S966.882,688.731,966.789,692.237z"/>
	<path opacity="0.05" fill="#CEDDF0" enable-background="new    " d="M906.983,719.821c0,0-6.885-7.953-7.513-11.283
		c-0.457-2.425,1.312-7.306,2.104-9.644c4.234-12.506,10.642-19.418,10.642-19.418s-5.334,12.536-5.534,14.203
		c-0.28,2.341-1.387,10.256-1.299,12.612C905.538,710.491,906.983,719.821,906.983,719.821z"/>
	<path opacity="0.05" fill="#CEDDF0" enable-background="new    " d="M923.588,709.624c0,0-3.452,10.91-2.617,13.037
		c0.847,2.159,8.62,11.476,8.62,11.476s-0.42-6.874,0.094-7.69c0.734-1.165,2.295-3.584,2.404-4.957
		c0.165-2.075-1.996-5.93-2.404-7.971c-0.291-1.455-0.594-8.782-0.594-8.782s-1.843,7.344-2.561,8.782
		c-0.441,0.883-0.977,3.287-1.953,3.431C923.346,717.134,923.588,709.624,923.588,709.624z"/>
	<path opacity="0.05" fill="#CEDDF0" enable-background="new    " d="M922.807,662.425c-1.718,1.939-3.409,7.054-3.906,9.596
		c-0.482,2.464-0.311,7.551,0,10.042c0.246,1.971,1.468,5.777,1.953,7.703c0.492,1.953,6.033,11.769,6.033,11.769
		s-1.67-11.769-0.595-19.166c0.401-2.759,1.313-9.896,5.373-14.266c2.268-2.442,14.285-10.94,14.285-10.94s-7.718-1.12-15.029,0.754
		C928.673,658.494,924.346,660.689,922.807,662.425z"/>
</g>
</svg>
