<?xml version="1.0" encoding="utf-8"?>
<!-- Generator: Adobe Illustrator 17.0.0, SVG Export Plug-In . SVG Version: 6.00 Build 0)  -->
<!DOCTYPE svg PUBLIC "-//W3C//DTD SVG 1.1//EN" "http://www.w3.org/Graphics/SVG/1.1/DTD/svg11.dtd">
<svg version="1.1" id="Layer_1" xmlns="http://www.w3.org/2000/svg" xmlns:xlink="http://www.w3.org/1999/xlink" x="0px" y="0px"
	 width="1674.355px" height="248.184px" viewBox="0 0 1674.355 248.184" enable-background="new 0 0 1674.355 248.184"
	 xml:space="preserve">
<g>
	<g opacity="0.1">
		<linearGradient id="SVGID_1_" gradientUnits="userSpaceOnUse" x1="0" y1="175.3707" x2="844.7734" y2="175.3707">
			<stop  offset="0" style="stop-color:#572262"/>
			<stop  offset="1" style="stop-color:#5A4090"/>
		</linearGradient>
		<path fill="url(#SVGID_1_)" d="M350.019,144.431c16.696-4.472,34.784-1.278,50.089,0.639c19.479,1.917,41.74,0,64.002-0.639
			c52.871-1.278,119.656-3.833,160.005,11.5c19.479-3.194,48.697,0,69.567,1.917c13.914,1.917,12.814,3.274,25.336,7.108
			c8.348,2.556,11.353,17,11.353,17s40.474-8.947,85.848-3.408c29.613,3.615,47.806,10.651-5.31,20.457
			c-37.597,2.162-47.569-3.666-48.322-4.501c-0.532-0.59-11.355,6.174-39.115,13.905c-38.484,10.719-86.744,7.95-120.754,14.061
			c-22.547,4.051-137.218-3.288-105.217-12.871c-19.479-1.278-50.089-5.111-38.958-15.972c-29.218,7.028-40.349,8.306-70.959,4.472
			c0-0.639,1.391-1.917,1.391-3.194c-26.436,1.278-107.134-3.194-70.959-21.722c-11.131-0.639-27.827-4.472-33.392-8.944
			c-5.565-3.194-1.391-7.028-5.565-10.861c-2.783-2.556-9.739-3.194-11.131-6.389c-18.088,7.028-64.002,16.611-79.307,3.833
			c-13.913,7.667-36.228,8.008-57.045,8.944c-28.117,1.265-60.667-20.18-62.789-14.656c-13.913,3.833-54.485-2.274-67.929-6.498
			c-5.472-1.719,16.982-5.849,16.982-5.849c13.913-1.917,23.494-3.151,31.842,2.599c23.653-1.917,86.068-17.763,79.112,2.043
			c11.131-1.917,22.262-1.278,27.827,3.833c16.696-2.556,33.392-2.556,48.697-3.833c13.913-1.278,27.827-3.833,41.74-5.75
			c15.305-1.278,97.394-11.5,90.438,3.833c5.565,1.278,2.783,2.556,4.174,5.111"/>
	</g>
	<g opacity="0.1">
		<linearGradient id="SVGID_2_" gradientUnits="userSpaceOnUse" x1="171.7329" y1="39.99" x2="326.6324" y2="308.2837">
			<stop  offset="0" style="stop-color:#572262"/>
			<stop  offset="0.0814" style="stop-color:#5A2C71"/>
			<stop  offset="0.1854" style="stop-color:#5A357E"/>
			<stop  offset="0.3149" style="stop-color:#5A3B88"/>
			<stop  offset="0.4965" style="stop-color:#5A3F8E"/>
			<stop  offset="1" style="stop-color:#5A4090"/>
		</linearGradient>
		<path fill="url(#SVGID_2_)" d="M497.504,209.631c-19.479-1.278-50.089-5.111-38.958-15.972
			c-29.218,7.028-40.349,8.306-70.959,4.472c0-0.639,1.391-1.917,1.391-3.194c-26.436,1.278-107.134-3.194-70.959-21.722
			c-11.131-0.639-27.827-4.472-33.392-8.944c-5.565-3.194-1.391-7.028-5.565-10.861c-2.783-2.556-9.739-3.194-11.131-6.389
			c-18.088,7.028-64.002,16.611-79.307,3.833c-13.913,7.667-36.228,8.008-57.045,8.944c-28.117,1.265-60.667-20.18-62.789-14.656
			c-13.913,3.833-54.485-2.274-67.929-6.498l53.857,12.721c17.645,1.35,21.566,4.051,34.31,10.353
			c10.783,5.402,46.073,16.655,58.817,6.302c3.921,2.251,8.823,2.251,13.724,0c0,9.903,28.428,3.151,28.428-4.051
			c14.704,4.951,48.034,1.35,61.758-4.501c-14.704,12.154-0.98,27.908,29.408,16.655c-7.842,2.701-31.369,23.407-4.901,18.455
			c-1.961,7.202,26.468,9.453,36.27,5.402c12.744,7.202,47.054,14.404,63.718,3.601c2.941,4.051,11.763,5.402,21.566,4.051
			c-0.98,9.453,37.251,2.251,46.073-1.35c-2.941,3.601,2.941,5.402,10.783,4.501c-1.961,3.601,0,8.553,10.783,7.652
			C483.305,215.896,476.945,216.256,497.504,209.631z"/>
	</g>
	<g opacity="0.1">
		<linearGradient id="SVGID_3_" gradientUnits="userSpaceOnUse" x1="1229.6541" y1="248.1842" x2="1229.6541" y2="-1.198077e-08">
			<stop  offset="0" style="stop-color:#572262"/>
			<stop  offset="1" style="stop-color:#5A4090"/>
		</linearGradient>
		<path fill="url(#SVGID_3_)" d="M789.537,65.309c-13.053,14.037,3.927,31.937,23.845,41.646c10.503,5.12,29.76,9.546,41.543,5.677
			c10.669-3.504,25.294-6.489,26.061-18.062c-2.688,9.747,16.555,15.432,16.428,13.178c0.556,9.929,7.425,10.457,16.234,9.145
			c5.626-0.838,16.57-2.109,17.955-9.045c-1.065,9.706,7.505,8.514,11.571,2.337c-5.601,5.657-2.475,18.011,3.999,21.299
			c5.986,3.041,17.872,2.26,21.488-4.094c2.65,2.589,8.928,9.16,11.732,3.42c-3.774,10.79-2.089,17.204,6.035,24.762
			c8.833,8.217,14.449,3.075,23.032-2.783c-3.987,2.171-3.963,10.445,0.031,13.041c4.947,3.215,17.654-0.226,22.522-2.444
			c4.049-1.845,7.798-4.281,11.685-6.429c1.812-1.001,9.884-3.549,10.667-5.022c-20.624,38.775,47.851,37.125,66.001,29.7
			c-9.9,5.775-6.6,12.375,2.475,14.025c5.775,0.825,18.15-3.3,23.1-4.95c10.725-2.475,23.713-12.776,32.788-18.551l6.589,9.439
			c5,6.5,17,10,25,12c3,0.5,15,1,9-5c2,2.5,6,4.5,9,2c7,13,41-1,31-17.5c2.5,0.5,2,0,4.5-0.5c9.5,8,28.5,4.5,29-10
			c15,9,46.5,3.5,51.5-14.5c1,3.5,4,5.5,6.5,2.5c3,7.5,30,15,33,4c19.5,5,53.5-9,45.5-33.5c2.5,4.5,10.5,9.5,13.5,3
			c4.5,6.5,21,8,27.5,9.5c10.5,3,25.466,2.789,29.466-12.711c9.5,2.5,21.413-10.325,21.762-16.315
			c0.41-7.029,3.272-27.974,3.272-27.974c1,7.5,14,19,22,16c0,3.5,1,4.5,3,7c-7-3.5-22.5,0.5-16,10.5c-2,2.5-2,6,0.5,8.5
			c-10.5,0.5-4.5,15,4.5,12c-0.5,4.5,2.5,7,7,7.5c-5.5,0.5-9.5,5.5-5,10c-1.5,2.5,0,3,2.5,4l11.5,0.5c-7,0.5-13.5,10-6.5,14
			c-5.5,1-5.5,6.5-4,10.5c-6.5-2-10.5,9-9,14c-4.5-2-24.5-1-19,8c3.5-1,3,0,5.5,1c-4,0.5-6.5,2.5-5.5,6.5c-17,0.5-7,17.5,1,9
			c0.415,9.123,13.502,2.223,14.798-5.218c0.161-0.927-0.599-3.714-0.599-3.714s2.577,1.296,5.256,1.016
			c3.38-0.353,6.262-2.354,9.544-3.084c-3.5,3.5-10,6.5-7.5,12c-4.5,1-12,8-5.5,11c-5,6,3,9,7.5,5c1,5.5,10.5,1.5,10.5,1.5
			c0,8.094,9.16,12.44,16.592,13.453c15.49,2.112,16.558-0.797,29.348-12.757c3.049-2.851,7.428-7.49,7.428-7.49
			c-2.159,5.861,8.101,13.901,7.601,9.901l3.085,2.468c2,2,15.631,3.651,24.356,0.837c10.914-3.521,13.735-16.983,8.735-16.983
			c5.5-4,5.479,2.734,10.479-0.266c3,3,9.521-1.234,9.021-5.234c0,0-0.74-6.718-2.318-10.071l7.251-5.77
			c6.21-7.643-9.076-20.062-14.807-23.405c2.866-7.165-6.21-10.031-11.464-6.21c4.777-3.821,9.195-15.796,1.075-14.841
			c0.478-7.643-12.539-6.176-17.316-3.31c2.866-2.866,3.344-7.643,1.911-11.464c-11.458-6.852-37.857,7.817-39.744,8.555
			c-2.462,0.962-6.734,2.087-6.734,2.087c0-8.5-9-6.5-13-10.5c-4-3.5-2-10-9-11.5c1-3,0.5-3,0.5-6.5c3.5,0.5,8,0,11-2.5
			c4.5,5,9,12.5,16.5,9c0,14.5,17,13.5,25.5,8c1.5-1,2.5-4,3.5-4.5c1.5-1,2.5,0.5,3.5,0.5c3-1.5,6-0.5,9-4c6.5-6.5,1.5-13-7-13.5
			c9-6.5-14.5-9-17.5-9c-6.5,0-13.5-0.5-20.5,1c-1.5-5-7-7.5-11-3.5c-0.5-5-2.5-10.5-8.5-10.5c4.5-4,14.5-11.5,15-17.5
			c7,1,14.5-7,14-14l0.5-9.5c4-3,3.5-8-0.5-10.5c4-4.5,6.5-16-1.5-16c0-0.5,1-1,0-1.5c-5-1.5-8,2.5-11,6c6.5-8.5,0.5-19-9.5-13.5
			c-5-8-17.5-1.5-12,4c-6,0.5-6,6.5-6.5,11.5c-2.5-2.5-6.5-3.5-9,0c-5.5-10-27-13.5-34.5-5c-3.5-3.5-11-1.5-15,0.5
			c4.5-5,26.084-16.553,17.584-16.053c0-6-3.781-7.34-7.281-9.34c-2.5-1-7.5-4-10.5-5c-7.5-1.5-16,5.5-19,11.5c-7.5-7-9.5,3-9.5,8.5
			c-7-15-13.5,14.5-14.5,16.5c-1.5-6.5-1.5-14-10.5-15c2.5-5.5,1.5-14.5-6.5-15.5c-6.5-1-11,7.5-14,12c-3.5-1.5-6.5,0.5-8.5,4
			c-4.5-12-31.5-21-42.5-14.5c-5-13-33,13-13.5,22c-3,6,3,8.5,5.5,13c-8.5-2-7.324-1.078-14.324,3.922
			c-16.568-1.465-22.993,26.814-4.24,25.08c17.943-1.659,20.762-12.11,25.762-11.11c-3,9.5,8,7,11,11.5c-5.5,2-8,7.5-3,12
			c-2.5,3,0,6.5,1.5,9.5c-5.5-0.5-30,6-20,15c-8-6.5-12.5,6-14,12c-3-8-10.5-6.5-17-5.5c-0.5-6-6.5-9-11.5-8.5c1-1.5,1-4,2-5.5
			c-10.5-0.5-13,10-18,15.5c1-4.5,1.5-10.5-3-13.5c11.5-7-1.5-15-10-11.5c5.5-12.5-8-12-15-9.5c0-10.5,9-13.5,17-16.5
			c-5.5-4.5-21-4.5-27.5-4c-6,1-10.5,3.5-14.5,8c-1.5,1.5-4,4.5-4.5,5.5c-1.5,2-4,3-4.5,6c-8.5-20.5-38.5,7-23.5,14
			c-1.5,2-2,4.5,0.5,7c-6-4.5-14.5,4.5-13,10.5c-4-5.5-11.5-4.5-13.5,2c-2-8-7.5-2.5-9,2c0,0-9.575-2.709-12.627-1.788
			c-9.511,2.869-42.9,10.725-56.101,16.5c-28.875-30.525-106.426-22.275-143.551-17.325c8.25-4.95,28.875-16.5,28.05-28.875
			c0-8.25-17.325-16.5-23.925-14.025c6.6-4.125,9.9-16.5-1.65-15.675c1.65-10.725-47.889,4.327-47.889,4.327
			s6.967-23.481-14.708-22.191c-31.821,1.894-46.728,25.399-75.603,36.124c9.075-7.425-14.427-5.06-24.327,3.19
			C833.263,63.659,796.644,57.667,789.537,65.309z"/>
	</g>
	<g opacity="0.1">
		<linearGradient id="SVGID_4_" gradientUnits="userSpaceOnUse" x1="1307.4594" y1="216.6311" x2="1307.4594" y2="117.548">
			<stop  offset="0" style="stop-color:#572262"/>
			<stop  offset="0.0814" style="stop-color:#5A2C71"/>
			<stop  offset="0.1854" style="stop-color:#5A357E"/>
			<stop  offset="0.3149" style="stop-color:#5A3B88"/>
			<stop  offset="0.4965" style="stop-color:#5A3F8E"/>
			<stop  offset="1" style="stop-color:#5A4090"/>
		</linearGradient>
		<path fill="url(#SVGID_4_)" d="M1512.764,117.619c0,6-5.156,13.067-14.656,10.567c-4,15.5-18.808,15.595-29.308,12.595
			c-6.5-1.5-23-3-27.5-9.5c-3,6.5-11,1.5-13.5-3c8,24.5-26,38.5-45.5,33.5c-3,11-30,3.5-33-4c-2.5,3-5.5,1-6.5-2.5
			c-5,18-36.5,23.5-51.5,14.5c-0.5,14.5-19.5,18-29,10c-2.5,0.5-2,1-4.5,0.5c10,16.5-24,30.5-31,17.5c-3,2.5-5.841,0.483-9-2
			c6,6-6,5.5-9,5c-8-2-20-5.5-25-12l-6.589-9.439c-9.075,5.775-22.063,16.076-32.788,18.551c-4.95,1.65-17.325,5.775-23.1,4.95
			c-9.075-1.65-12.375-8.25-2.475-14.025c-18.15,7.425-23.212,19.185-15.644,16.158c10.595,16.649,55.881,13.842,64.206,1.733
			l9.082,2.27c4.541,9.838,28.941,10.812,37.266-2.811c21.19,7.568,52.502,5.948,47.205-20.54
			c6.054-0.757,23.751,10.485,29.805,7.458c8.325,10.595,22.434,0.974,20.921-16.433c-0.757,11.352,25.895-4.505,30.436-11.316
			c6.811,22.704,30.423,27.185,42.532,10.535c0.757,0,24.477,6.529,33.559-10.121c17.715,5.792,19.052-20.17,23.593-29.251
			c1.514,10.595,11.314,13.786,28.035,15.148c11.619,0.946,31.183-2.984,31.94-12.822c3.027,2.27,7.423,1.471,10.638-2.023
			c5.859-10.284,0.313-19.256,0.313-19.256L1512.764,117.619z"/>
	</g>
</g>
</svg>
