<?xml version="1.0" encoding="utf-8"?>
<!-- Generator: Adobe Illustrator 17.0.0, SVG Export Plug-In . SVG Version: 6.00 Build 0)  -->
<!DOCTYPE svg PUBLIC "-//W3C//DTD SVG 1.1//EN" "http://www.w3.org/Graphics/SVG/1.1/DTD/svg11.dtd">
<svg version="1.1" id="Layer_1" xmlns="http://www.w3.org/2000/svg" xmlns:xlink="http://www.w3.org/1999/xlink" x="0px" y="0px"
	 width="1280.005px" height="56.04px" viewBox="0 0 1280.005 56.04" enable-background="new 0 0 1280.005 56.04"
	 xml:space="preserve">
<g>
	<linearGradient id="SVGID_1_" gradientUnits="userSpaceOnUse" x1="640" y1="56.0402" x2="640" y2="-2.877914e-08">
		<stop  offset="0" style="stop-color:#181334"/>
		<stop  offset="0.073" style="stop-color:#1B1838"/>
		<stop  offset="0.1798" style="stop-color:#212643"/>
		<stop  offset="0.3074" style="stop-color:#2A3C58"/>
		<stop  offset="0.4511" style="stop-color:#375B79"/>
		<stop  offset="0.6063" style="stop-color:#4589AC"/>
		<stop  offset="0.696" style="stop-color:#4BADD5"/>
	</linearGradient>
	<rect x="-1" y="0" fill="url(#SVGID_1_)" width="1282" height="56.04"/>
	<path fill="#12142A" d="M-1,0.197l1282,1.639c0,0,0.009,35.153,0,35.157c-1.275,0.599-32.405,10.998-69.847,7.067
		c-29.076-3.052-62.809-10.203-113.699-12.371c-69.891-2.978-160.941,2.138-213.57,4.94c-37.19,1.98-69.449,6.671-97.814,5.964
		c-33.678-0.839-67.08-4.779-108.55-8.35c-55.816-4.807-121.699-4.388-166.958-1.635c-32.544,1.98-111.371-12.259-178.564-7.152
		c-44.876,3.411-111.199,5.07-168.306,7.232c-34.875,1.32-69.344-6.846-86.827-6.948C36.372,25.504-1,37-1,37V0.197z"/>
	<linearGradient id="SVGID_2_" gradientUnits="userSpaceOnUse" x1="640.0024" y1="42.8607" x2="640.0024" y2="-2.877914e-08">
		<stop  offset="0" style="stop-color:#05807C"/>
		<stop  offset="0.1012" style="stop-color:#378F8C"/>
		<stop  offset="0.3217" style="stop-color:#6BAFB1"/>
		<stop  offset="0.4894" style="stop-color:#88C8CD"/>
		<stop  offset="0.5833" style="stop-color:#94D4DA"/>
		<stop  offset="0.6679" style="stop-color:#99D7DD"/>
		<stop  offset="0.7761" style="stop-color:#AADDE4"/>
		<stop  offset="0.8967" style="stop-color:#C4E7F0"/>
		<stop  offset="0.9754" style="stop-color:#D9F1FD"/>
	</linearGradient>
	<path fill="url(#SVGID_2_)" d="M-1,0h1282c0,0,0.011,34.997,0,35c-0.527,0.165-33.214,10.821-69.858,7.056
		c-29.083-2.988-62.809-10.203-113.699-12.371c-69.891-2.978-160.941,2.138-213.57,4.94c-37.19,1.98-69.449,6.671-97.814,5.964
		c-33.678-0.839-67.08-4.779-108.55-8.35c-55.816-4.807-121.699-4.388-166.958-1.635c-32.544,1.98-111.371-12.259-178.564-7.152
		c-44.876,3.411-111.199,5.07-168.306,7.232c-34.875,1.32-69.344-6.846-86.827-6.948C36.361,23.5-1,35-1,35V0z"/>
	
		<linearGradient id="SVGID_3_" gradientUnits="userSpaceOnUse" x1="611.2156" y1="1935.1361" x2="611.2156" y2="1907.8116" gradientTransform="matrix(1 0 0 1 0 -1907.8116)">
		<stop  offset="0.5833" style="stop-color:#94D4DA"/>
		<stop  offset="0.6679" style="stop-color:#99D7DD"/>
		<stop  offset="0.7761" style="stop-color:#AADDE4"/>
		<stop  offset="0.8967" style="stop-color:#C4E7F0"/>
		<stop  offset="0.9754" style="stop-color:#D9F1FD"/>
	</linearGradient>
	<path fill="url(#SVGID_3_)" d="M438.391,17.176c3.663,0.71,12.953,2.899,30.456,6.562c8.139,1.703,42.024,2.996,49.21,3.425
		c25.58,1.526,40.491-8.287,46.458-8.946c9.191-1.014,24.547,5.279,30.629,6.039c16.86,2.107,35.989-2.855,39.014-2.95
		c4.65-0.145,35.693-6.56,43.038-7.615c5.265-0.756,39.856,13.09,69.905,7.865c12.423-2.16,24.704-1.325,35.901-7.941
		C798.71,4.334,778.956,0,778.956,0H438.342C438.342,0,427.104,14.988,438.391,17.176z"/>
	
		<linearGradient id="SVGID_4_" gradientUnits="userSpaceOnUse" x1="344.9908" y1="1926.9784" x2="344.9908" y2="1908.5635" gradientTransform="matrix(1 0 0 1 0 -1907.8116)">
		<stop  offset="0.5833" style="stop-color:#94D4DA"/>
		<stop  offset="0.6679" style="stop-color:#99D7DD"/>
		<stop  offset="0.7761" style="stop-color:#AADDE4"/>
		<stop  offset="0.8967" style="stop-color:#C4E7F0"/>
		<stop  offset="0.9754" style="stop-color:#D9F1FD"/>
	</linearGradient>
	<path fill="url(#SVGID_4_)" d="M423.786,4.77c2.934,0.757,4.303,3.72,2.075,6.415c-4.395,5.313-27.137,4.716-36.031,7.116
		c-8.969,2.42-32.639-1.144-42.174,0.242c-7.092,1.031-43.813-8.762-51.385-1.939c-3.648,3.287-23.345,1.134-30.739-4.567
		c-14.11-10.88,35.412-0.041,41.978,0.087c9.503,0.185,13.882-5.267,18.263-6.816C336.661,1.456,396.013-2.398,423.786,4.77z"/>
	
		<linearGradient id="SVGID_5_" gradientUnits="userSpaceOnUse" x1="492.9249" y1="1603.4872" x2="492.9249" y2="1619.5811" gradientTransform="matrix(1 0 0 -1 0 1624.6412)">
		<stop  offset="0" style="stop-color:#94D4DA"/>
		<stop  offset="0.2044" style="stop-color:#99D7DD"/>
		<stop  offset="0.4655" style="stop-color:#AADDE4"/>
		<stop  offset="0.5815" style="stop-color:#B3E1E9"/>
	</linearGradient>
	<path fill="url(#SVGID_5_)" d="M520.06,12.679c5.75-0.123-5.163,8.477-11.565,8.475c-7.032-0.002-15.736-3.922-22.322-5.05
		c-6.249-1.07-9.414-0.064-15.448-1.366c-7.05-1.522-6.671-3.561-6.475-4.699c0.31-1.804,7.36-2.465,10.632-3.059
		c12.765-2.317,39.992-3.049,43.255,0.749c1.697,1.975-9.102,3.15-6.916,4.7C514.163,14.515,516.732,12.75,520.06,12.679z"/>
	<g>
		
			<linearGradient id="SVGID_6_" gradientUnits="userSpaceOnUse" x1="991.2685" y1="1931.7776" x2="991.2685" y2="1909.1603" gradientTransform="matrix(1 0 0 1 0 -1907.8116)">
			<stop  offset="0.5833" style="stop-color:#94D4DA"/>
			<stop  offset="0.6679" style="stop-color:#99D7DD"/>
			<stop  offset="0.7761" style="stop-color:#AADDE4"/>
			<stop  offset="0.8967" style="stop-color:#C4E7F0"/>
			<stop  offset="0.9754" style="stop-color:#D9F1FD"/>
		</linearGradient>
		<path fill="url(#SVGID_6_)" d="M961.091,16.412c8.568,2.989,22.512,7.828,31.252,7.542c23.904-0.784,72.35-10.592,58.678-16.239
			c-8.705-3.595-114.495-15.386-121.825,6.726C927.649,19.109,952.347,13.362,961.091,16.412z"/>
	</g>
	<g>
		
			<linearGradient id="SVGID_7_" gradientUnits="userSpaceOnUse" x1="1187.366" y1="1937.7815" x2="1187.366" y2="1911.5638" gradientTransform="matrix(1 0 0 1 0 -1907.8116)">
			<stop  offset="0.5833" style="stop-color:#94D4DA"/>
			<stop  offset="0.6679" style="stop-color:#99D7DD"/>
			<stop  offset="0.7761" style="stop-color:#AADDE4"/>
			<stop  offset="0.8967" style="stop-color:#C4E7F0"/>
			<stop  offset="0.9754" style="stop-color:#D9F1FD"/>
		</linearGradient>
		<path fill="url(#SVGID_7_)" d="M1273.731,9.916c10.822,5.591-20.288,19.175-31.403,19.765
			c-17.666,0.938-32.868-4.361-37.197-2.505c-14.223,6.184-30.884,0.172-46.963,0.172c-10.513,0-72.443-15.62-56.943-18.507
			C1119.501,5.437,1252.229-1.193,1273.731,9.916z"/>
	</g>
	<g>
		
			<linearGradient id="SVGID_8_" gradientUnits="userSpaceOnUse" x1="57.1125" y1="1931.6821" x2="57.1125" y2="1911.7203" gradientTransform="matrix(1 0 0 1 0 -1907.8116)">
			<stop  offset="0.5833" style="stop-color:#94D4DA"/>
			<stop  offset="0.6679" style="stop-color:#99D7DD"/>
			<stop  offset="0.7761" style="stop-color:#AADDE4"/>
			<stop  offset="0.8967" style="stop-color:#C4E7F0"/>
			<stop  offset="0.9754" style="stop-color:#D9F1FD"/>
		</linearGradient>
		<path fill="url(#SVGID_8_)" d="M105.584,9.54c10.84,13.607-21.367,10.941-27.456,10.941c-5.751,0-14.722-1.066-20.36,0.97
			C40.316,27.753,3.4,20.974,6.628,9.993C7.9,5.665,42.922,9.672,62.224,7.114C74.761,5.452,97.703-0.351,105.584,9.54z"/>
	</g>
	<g>
		
			<linearGradient id="SVGID_9_" gradientUnits="userSpaceOnUse" x1="151.9874" y1="1932.7629" x2="151.9874" y2="1910.0422" gradientTransform="matrix(1 0 0 1 0 -1907.8116)">
			<stop  offset="0" style="stop-color:#94D4DA"/>
			<stop  offset="0.2243" style="stop-color:#99D7DD"/>
			<stop  offset="0.5114" style="stop-color:#AADDE4"/>
			<stop  offset="0.8317" style="stop-color:#C4E8F0"/>
			<stop  offset="0.8441" style="stop-color:#C5E8F0"/>
		</linearGradient>
		<path fill="url(#SVGID_9_)" d="M142.066,7.629c-11.724,5.06-22.663-2.03-22.325,3.721c1.015,11.163,23.313,15.913,30.755,12.531
			c7.78-4.059,15.222-6.765,20.973-13.531c4.059-4.736,17.484-6.513,11.057-7.867C177.114,1.468,151.443,3.582,142.066,7.629z"/>
	</g>
	
		<linearGradient id="SVGID_10_" gradientUnits="userSpaceOnUse" x1="1077.6658" y1="1603.2941" x2="1077.6658" y2="1619.9672" gradientTransform="matrix(1 0 0 -1 0 1624.6412)">
		<stop  offset="0.1504" style="stop-color:#94D4DA"/>
		<stop  offset="0.3176" style="stop-color:#99D7DD"/>
		<stop  offset="0.4434" style="stop-color:#A2DBE0"/>
	</linearGradient>
	<path fill="url(#SVGID_10_)" d="M1065.37,11.872c-0.205,4.376,5.14,5.603,17.845,9.345c4.26,1.255,7.524-6.889,6.593-11.232
		c-0.964-4.497-11.623-5.733-16.19-5.193C1070.51,5.16,1065.516,8.746,1065.37,11.872z"/>
	
		<linearGradient id="SVGID_11_" gradientUnits="userSpaceOnUse" x1="7192.9912" y1="1817.4552" x2="7190.9561" y2="1846.1349" gradientTransform="matrix(-0.9975 0.0708 -0.0708 -0.9975 8145.9526 1335.9941)">
		<stop  offset="0.5833" style="stop-color:#94D4DA"/>
		<stop  offset="0.6679" style="stop-color:#99D7DD"/>
		<stop  offset="0.7761" style="stop-color:#AADDE4"/>
		<stop  offset="0.8967" style="stop-color:#C4E7F0"/>
		<stop  offset="0.9754" style="stop-color:#D9F1FD"/>
	</linearGradient>
	<path fill="url(#SVGID_11_)" d="M765.319,29.04c11.688,3.878,36.368,3.1,41.553,3.135c2.5,0.017,7.861-0.3,10.266-0.728
		c4.746-0.845,12.293-3.561,15.594-4.943c5.843-2.447,11.543-8.371,18.479-10.548c2.283-0.717,8.179-1.817,11.119-1.926
		c5.029-0.185,13.937,1.086,17.49,1.949c8.159,1.982,6.646,4.679,16.137,6.095c3.403,0.508,14.862-3.452,12.61-6.247
		c-3.086-3.831,21.123-2.87,13.048-7.707c-4.165-2.495-36.573-5.044-46.537-4.605c-8.234,0.363-16.333,2.937-22.998,4.848
		c-7.955,2.28-21.667,1.906-30.591,3.749c-4.743,0.979-10.685-3.228-18.779-4.295C779.463,4.751,750.977,24.281,765.319,29.04z"/>
	<g>
		<linearGradient id="SVGID_12_" gradientUnits="userSpaceOnUse" x1="318.588" y1="-35.2875" x2="261.3033" y2="63.9327">
			<stop  offset="0" style="stop-color:#97D6DB"/>
			<stop  offset="0.4725" style="stop-color:#A5DAE1"/>
			<stop  offset="1" style="stop-color:#B9E2EA"/>
		</linearGradient>
		<path fill="url(#SVGID_12_)" d="M397.775,12.045C392.248-3.63,288.537,0.152,272.248,3.454c-2.722,0.552-25.339,4.302-33.359,2.93
			c-16.705-2.857-43.505-0.439-54.383,7.685c-13.146,9.818,22.784,1.212,30.54,6.302c6.29,4.128,38.489-0.274,46.215-1.746
			c4.432-0.844,13.698-2.544,15.748-1.169c4.934,3.31,23.103,9.437,34.968,3.138c15.776-8.375,28.36-2.771,41.658-3.733
			C357.068,16.613,399.153,15.95,397.775,12.045z"/>
	</g>
	<g>
		<linearGradient id="SVGID_13_" gradientUnits="userSpaceOnUse" x1="721.8806" y1="18.6077" x2="866.1984" y2="18.6077">
			<stop  offset="0" style="stop-color:#61BCCE"/>
			<stop  offset="0.0629" style="stop-color:#67BECF"/>
			<stop  offset="0.5121" style="stop-color:#88CDD7"/>
			<stop  offset="0.7645" style="stop-color:#94D4DA"/>
		</linearGradient>
		<path fill="url(#SVGID_13_)" d="M864.577,17.055c-0.294-0.168-1.25-0.278-1.568-0.434c-0.396-0.195-1.385-0.722-1.102-0.96
			c0.252-0.213,1.66,0.18,2.001,0c0.311-0.163,0.211-0.74-0.121-0.893c-0.688-0.317-2.943,0.222-3.771,0
			c-0.583-0.156-1.701-0.798-1.438-1.097c0.336-0.382,2.527-0.169,3.329-0.302c0.709-0.118,2.542-0.304,2.67-0.667
			c0.078-0.221-0.834-0.564-1.253-0.653c-0.649-0.138-2.12-0.012-2.826,0c-0.962,0.016-2.884,0.173-3.843,0.129
			c-1.913-0.088-5.549-0.779-7.439-0.95c-1.488-0.135-4.506-0.287-6.017-0.328c-0.848-0.023-2.549-0.037-3.395,0
			c-0.93,0.041-2.74,0.312-3.673,0.328c-0.478,0.008-1.762-0.093-1.792-0.328c-0.062-0.491,2.73-0.627,3.548-0.911
			c0.528-0.184,1.714-0.79,1.405-1.069c-0.592-0.535-3.735-0.108-4.953,0c-1.194,0.106-3.398,0.643-4.545,0.836
			c-1.847,0.311-5.537,0.961-7.454,1.144c-2.42,0.231-7.002,0.196-10.105,0.354c-0.056-0.206-1.327-0.272-1.769-0.334
			c-1.279-0.178-3.925-0.387-5.255-0.411c-1.624-0.029-4.853,0.227-6.475,0.274c-1.546,0.044-4.648,0.145-6.193,0.091
			c-1.092-0.038-3.225-0.319-4.316-0.365c-1.519-0.064-4.581-0.069-6.099,0c-0.761,0.034-2.245,0.228-3.003,0.274
			c-1.87,0.113-5.684,0.03-7.524,0.228c-0.881,0.095-2.459,0.65-3.361,0.639c-0.798-0.01-2.115-0.601-2.909-0.639
			c-1.631-0.077-4.829,0.475-6.381,0.73c-0.706,0.116-1.985,0.535-2.721,0.593c-1.606,0.126-5.928,0.12-7.546,0.204
			c-0.981,0.051-4.589,0.016-6.021,0.316c-0.664,0.139,2.662,0.111,4.166,0.301c0.159,0.02,2.308-0.233,1.823,0.032
			c-0.733,0.4-3.142,0.059-4.245,0.059c-0.845,0-2.548,0.076-3.378,0c-0.891-0.081-1.763-0.067-2.653-0.148
			c-1.845-0.168-4.732-0.229-7.295-0.138c-0.402,0.014-5.885-0.361-5.769-0.173c0.305,0.491,2.208,0.865,7.835,1.189
			c0.979,0.056,3.668-0.46,3.941,0c0.208,0.35-1.814,0.675-2.533,0.776c-1.285,0.18-4.027-0.1-5.349,0
			c-0.535,0.04-2.182-0.001-3.11,0.147c-0.552,0.088,2.626,0.711,2.641,0.993c0.016,0.299-2.596,0.299-3.211,0.288
			c-1.25-0.023-3.378-0.354-3.632-0.035c-0.251,0.316,3.846,1.449,4.497,1.572c1.4,0.263,4.521-0.11,6.006,0
			c1.093,0.081,3.569,0.376,4.041,0.862c0.237,0.245-3.273,0.865-3.299,1.135c-0.014,0.155,2.415,0.324,3.068,0.427
			c0.981,0.154,1.303,0.353,2.245,0.557c1.047,0.227,4.565,0.727,5.58,0.987c1.532,0.393,4.7,1.077,6.287,1.414
			c1.186,0.252,3.308,1.289,4.577,1.411c0.713,0.069,1.77,0.068,2.469,0.166c0.506,0.071,1.756,0.263,2.223,0.381
			c0.857,0.218,2.63,0.611,3.566,0.73c3.906,0.494,11.042,1.073,15.072,1.181c3.49,0.094,7.403-0.641,10.837-0.325
			c1.387,0.128,8.179,0.486,9.582,0.561c0.897,0.048,2.925,0.035,3.565-0.274c0.304-0.146-0.06-0.695,0.282-0.821
			c0.332-0.122,0.885-0.111,1.502-0.054c-0.381,0.13-0.577,0.26-0.343,0.403c0.944,0.575,6.578,0.753,8.052,0.898
			c2.21,0.217,5.866,0.732,7.875,0.899c1.823,0.152,4.9-0.024,6.693,0.198c1.901,0.235,5.88,0,7.84,0c0.944,0,2.833,0.019,3.777,0
			c1.881-0.039,5.68-0.08,7.503-0.309c1.711-0.216,4.886-1.014,6.456-1.412c1.737-0.44,5.122-1.41,6.731-1.955
			c0.877-0.297,2.76-0.865,3.329-1.308c0.351-0.273,0.774-0.947,0.599-1.259c-0.134-0.238-1.339-0.463-1.396-0.708
			c-0.1-0.434,1.363-0.683,2.193-0.837c0.358-0.066,1.607-0.267,1.958-0.341c0.779-0.165,0.901-1.182,0.938-1.599
			C866.236,18.278,865.172,17.395,864.577,17.055z M806.681,25.156c-0.172,0.237-0.929,0.433-1.657,0.617
			c-0.148-0.019-0.276-0.036-0.357-0.05c-1.824-0.305-7.304,0.297-9.217,0.175c-2.466-0.158-5.245-0.691-7.731-0.656
			c-2.189,0.031-10.014,0.526-12.196,0.437c-4.298-0.175-12.218-0.48-16.25-1.225c-1.922-0.355-7.794-1.717-9.675-2.121
			c-2.2-0.473-6.208-1.715-8.253-3.009c-0.703-0.445-0.236-1.919,1.846-2.463c0.934-0.244,1.267-0.254,2.204-0.612
			c1.737-0.663,6.398-2.609,8.581-2.773c1.093-0.082,3.329,0.297,4.41,0.182c0.605-0.064,1.555-0.523,2.158-0.593
			c0.937-0.108,2.892,0.151,3.847,0.091c1.012-0.063,4.072-0.186,5.053-0.321c0.823-0.114,1.27-0.524,2.123-0.546
			c0.81-0.021,2.431,0.113,3.24,0.092c0.653-0.017,1.894-0.252,2.534-0.319c1.07-0.113,3.224-0.326,4.316-0.365
			c0.913-0.033,2.745,0.056,3.66,0.046c2.281-0.026,7.094-0.572,9.098-0.041c1.474,0.391,1.595,0.637,3.825,0.62
			c1.145-0.009,4.697,0.001,7.939-0.131c-0.152,0.637,2.679,1.513,3.265,2.093c1.22,1.205,3.368,3.82,3.123,5.161
			C812.275,21.038,807.776,23.648,806.681,25.156z"/>
		<linearGradient id="SVGID_14_" gradientUnits="userSpaceOnUse" x1="801.5778" y1="27.0963" x2="801.5778" y2="15.9466">
			<stop  offset="0" style="stop-color:#02A9A4"/>
			<stop  offset="1" style="stop-color:#7EAFC4"/>
		</linearGradient>
		<path fill="url(#SVGID_14_)" d="M852.522,18.131c-0.607-0.041-9.145-0.393-10.401-0.16c-0.809,0.15-2.535,0.954-3.085,0.944
			c-0.845-0.016-0.936,0.767-1.779,0.797c-1.047,0.036-0.666,0.687-1.701,0.607c-0.448-0.035-0.144,0.966-0.58,0.908
			c-0.464-0.061-1.402-0.188-1.885-0.195c-0.693-0.011-2.056,0.244-2.742,0.195c-0.71-0.05-1.961-0.412-2.571-0.586
			c-0.778-0.221-2.051-0.873-2.913-1.015c-0.484-0.08-1.543-0.057-2.056-0.039c-1.001,0.035-3.033,0.156-3.941,0.351
			c-0.427,0.092-1.018,0.467-1.457,0.547c-1.137,0.207-3.676,0.246-4.884,0.156c-0.55-0.041-1.53-0.307-2.056-0.39
			c-0.525-0.083-1.627-0.178-2.142-0.273c-0.249-0.046-0.674-0.23-0.943-0.234c-0.307-0.005-0.811,0.212-1.114,0.234
			c-0.957,0.071-2.952-0.035-3.856-0.195c-1.286-0.228-3.184-1.24-4.456-1.484c-0.48-0.092-1.568-0.074-2.056-0.156
			c-0.658-0.111-1.736-0.56-2.399-0.664c-0.347-0.054-1.297-0.228-1.457-0.078c-0.211,0.199,1.028,0.468,1.371,0.625
			c0.364,0.166,1.603,0.439,1.457,0.664c-0.087,0.134-0.907,0.075-1.2,0.117c-0.311,0.045-0.937,0.146-1.2,0.234
			c-0.318,0.107-0.652,0.492-1.028,0.547c-1.868,0.269-7.369-0.859-7.626-0.82c-0.257,0.039-6.886-1.276-9.082-1.796
			c-0.639-0.151-1.819-0.539-2.485-0.664c-0.634-0.119-2.098-0.494-2.656-0.312c-0.438,0.142,0.027,0.748-0.171,0.976
			c-0.152,0.174-0.657,0.504-1.028,0.586c-0.618,0.135-2.056,0-2.742,0c-0.428,0-1.288,0.024-1.714,0
			c-0.351-0.02-1.052-0.087-1.371-0.156c-0.29-0.063-0.818-0.241-1.028-0.351c-0.176-0.092-0.296-0.358-0.514-0.429
			c-0.3-0.098-1.092-0.146-1.457-0.117c-0.34,0.027-0.876,0.258-1.2,0.312c-0.634,0.107-1.983,0.205-2.656,0.234
			c-0.618,0.027-1.884,0.072-2.485,0c-0.38-0.045-1-0.291-1.371-0.351c-0.471-0.076-1.482-0.205-1.971-0.156
			c-0.482,0.048-1.157,0.441-1.628,0.508c-0.307,0.043-0.969,0.027-1.285,0c-0.52-0.045-1.59-0.184-1.971-0.351
			c-0.262-0.115-0.218-0.61-0.582-0.608c-0.228,0.001-0.214,0.299-0.343,0.385c-0.585,0.386-2.512,0.869-3.016,1.277
			c-0.365,0.295-0.764,0.997-0.6,1.327c0.196,0.394,1.496,1.012,2.142,1.288c1.1,0.471,3.717,1.182,5.029,1.523
			c1.796,0.466,5.56,1.252,7.448,1.635c0.891,0.181,2.688,0.531,3.612,0.674c2.098,0.325,6.354,0.931,8.55,1.065
			c0.923,0.057,2.801-0.046,3.727,0c0.67,0.033,1.977,0.192,2.631,0.266c0.662,0.075,2.631,0.333,2.631,0.333s1.338-0.339,1.827-0.4
			c1.079-0.133,3.341-0.196,4.458-0.166c0.744,0.02,2.215,0.16,2.923,0.266c0.691,0.104,1.921,0.494,2.631,0.566
			c0.891,0.091,2.744-0.039,3.654,0c1.074,0.046,3.162,0.399,4.238,0.366c0.805-0.025,2.329-0.31,3.059-0.466
			c0.314-0.067,0.844-0.292,1.179-0.333c1.288-0.158,4.014-0.019,5.334,0.067c1.57,0.102,4.588,0.579,6.138,0.733
			c0.833,0.083,2.518,0.208,3.362,0.266c1.384,0.096,4.153,0.341,5.554,0.333c0.943-0.005,2.792-0.209,3.727-0.266
			c1.64-0.1,4.933-0.246,6.577-0.333c0.914-0.048,2.735-0.182,3.654-0.2c1.571-0.03,3.161-0.066,4.723,0.017
			c0.925,0.049,3.642-1.277,4.55-1.182c1.27,0.133,5.751-0.37,7.921-1.125c2.786-0.97,9.326-2.618,9.994-4.044
			c1.113-2.376,0.984-2.328,0.984-2.328S853.582,18.202,852.522,18.131z"/>
		<linearGradient id="SVGID_15_" gradientUnits="userSpaceOnUse" x1="803.9167" y1="21.2329" x2="803.9167" y2="11.5274">
			<stop  offset="0" style="stop-color:#02A9A4"/>
			<stop  offset="1" style="stop-color:#7EAFC4"/>
		</linearGradient>
		<path fill="url(#SVGID_15_)" d="M860.683,16.209c-2.5-1.234-10.243-3.687-10.971-3.66c-1.056,0.039-2.211-0.35-3.254-0.437
			c-3.184-0.264-9.712-0.294-12.938-0.177c-1.174,0.042-3.449,0.396-4.627,0.402c-1.325,0.006-3.913-0.323-5.227-0.402
			c-2.368-0.142-7.123-0.404-9.511-0.408c-1.849-0.003-5.521,0.254-7.369,0.291c-1.177,0.023-3.624-0.205-4.713,0
			c-0.392,0.074-0.825,0.456-1.2,0.547c-0.964,0.233-3.207,0.451-4.284,0.374c-0.867-0.062-2.241-0.654-3.085-0.765
			c-1.031-0.135-3.217-0.166-4.284-0.117c-0.993,0.046-2.86,0.444-3.856,0.468c-0.693,0.017-2.056-0.147-2.742-0.192
			c-0.792-0.052-2.375-0.239-3.17-0.198c-0.66,0.034-1.844,0.35-2.485,0.429c-0.608,0.076-1.872,0.129-2.485,0.195
			c-0.327,0.035-0.953,0.156-1.285,0.179c-0.38,0.026-1.152,0-1.536,0c-0.393,0-1.201-0.057-1.573,0
			c-0.35,0.054-0.874,0.15-1.23,0.192c-0.63,0.076-1.865,0.001-2.515,0.019c-0.379,0.01-1.093,0.145-1.457,0.195
			c-0.687,0.095-2.032,0.341-2.742,0.39c-0.424,0.029-1.285,0-1.714,0c-0.536,0-1.623-0.059-2.142,0
			c-0.353,0.04-0.932,0.272-1.285,0.312c-0.499,0.057-1.542,0-2.056,0c-0.45,0-1.363-0.049-1.799,0
			c-0.893,0.101-2.427,0.599-3.256,0.781c-0.337,0.074-0.998,0.259-1.371,0.273c-0.352,0.013-1.034-0.204-1.371-0.156
			c-0.217,0.031-0.475,0.226-0.6,0.312c-0.22,0.153-0.462,0.511-0.685,0.664c-0.177,0.121-0.742,0.294-0.857,0.429
			c-0.108,0.127-0.223,0.221-0.188,0.356c0.105,0.414,1.639,0.497,2.159,0.541c0.316,0.027,0.978,0.043,1.285,0
			c0.471-0.066,1.146-0.46,1.628-0.508c0.489-0.048,1.5,0.08,1.971,0.156c0.37,0.06,0.991,0.306,1.371,0.351
			c0.601,0.072,1.866,0.027,2.485,0c0.673-0.029,2.022-0.127,2.656-0.234c0.324-0.055,0.859-0.285,1.2-0.312
			c0.364-0.029,1.156,0.019,1.457,0.117c0.218,0.071,0.339,0.337,0.514,0.429c0.21,0.111,0.738,0.288,1.028,0.351
			c0.319,0.069,1.02,0.136,1.371,0.156c0.425,0.024,1.285,0,1.714,0c0.685,0,2.124,0.135,2.742,0
			c0.371-0.081,0.877-0.411,1.028-0.586c0.198-0.228-0.266-0.834,0.171-0.976c0.558-0.181,2.022,0.193,2.656,0.312
			c0.666,0.125,1.846,0.512,2.485,0.664c2.196,0.52,8.825,1.835,9.082,1.796c0.257-0.039,5.758,1.089,7.626,0.82
			c0.377-0.054,0.71-0.44,1.028-0.547c0.263-0.088,0.889-0.189,1.2-0.234c0.292-0.042,1.113,0.017,1.2-0.117
			c0.146-0.225-1.092-0.498-1.457-0.664c-0.343-0.156-1.582-0.426-1.371-0.625c0.16-0.15,1.11,0.024,1.457,0.078
			c0.664,0.104,1.741,0.552,2.399,0.664c0.489,0.083,1.576,0.064,2.056,0.156c1.272,0.244,3.17,1.256,4.456,1.484
			c0.904,0.16,2.898,0.266,3.856,0.195c0.303-0.022,0.807-0.239,1.114-0.234c0.268,0.004,0.694,0.188,0.943,0.234
			c0.515,0.095,1.617,0.19,2.142,0.273c0.526,0.083,1.507,0.349,2.056,0.39c1.208,0.09,3.747,0.05,4.884-0.156
			c0.438-0.08,1.03-0.455,1.457-0.547c0.908-0.195,2.94-0.317,3.941-0.351c0.513-0.018,1.573-0.041,2.056,0.039
			c0.862,0.142,2.136,0.794,2.913,1.015c0.609,0.173,1.861,0.535,2.571,0.586c0.685,0.049,2.048-0.206,2.742-0.195
			c0.483,0.008,1.421,0.134,1.885,0.195c0.436,0.057,1.638-1.105,2.685-1.141c0.843-0.029,0.531-1.187,1.375-1.171
			c0.55,0.01,2.869-0.716,3.406-0.661c0.598,0.062,9.472-0.163,10.079-0.123c1.06,0.071,10.2-0.497,10.2-0.497
			S864.169,17.93,860.683,16.209z"/>
	</g>
	<g>
		<linearGradient id="SVGID_16_" gradientUnits="userSpaceOnUse" x1="577.1152" y1="15.6998" x2="681.7845" y2="15.6998">
			<stop  offset="0" style="stop-color:#6BC0D0"/>
			<stop  offset="0.0942" style="stop-color:#79C6D3"/>
			<stop  offset="0.2526" style="stop-color:#88CED7"/>
			<stop  offset="0.4451" style="stop-color:#91D3DA"/>
			<stop  offset="0.7645" style="stop-color:#94D4DA"/>
		</linearGradient>
		<path fill="url(#SVGID_16_)" d="M678.148,12.614c-1.534-1.014-4.669-2.477-8.671-2.688c-2.232-0.117-8.763-0.44-10.068-0.081
			c-0.931,0.256,2.087,0.522,2.766,0.928c0.692,0.414,3.851,0.683,3.591,1.204c-0.431,0.864-5.389,0.048-7.182,0
			c-7.346-0.197-21.924-1.28-29.257-1.571c-5.087-0.202-16.375-2.088-20.385-0.524c-0.676,0.264-1.037,1.299-0.634,1.675
			c0.405,0.378,3.296,0.257,3.169,0.681c-0.274,0.912-5.553,0.285-7.394,0.419c-3.557,0.258-10.566,1.372-14.153,1.257
			c-1.742-0.056-4.929-0.915-6.654-1.047c-1.513-0.116-5.655-0.722-6.126,0c-0.43,0.66,3.284,1.319,4.542,1.623
			c2.126,0.514,6.742,1.144,9.083,1.309c1.752,0.124,6.174-0.754,7.077,0c0.338,0.282-0.699,0.984-1.267,1.151
			c-0.931,0.274-3.805-0.469-4.331,0c-0.535,0.477,1.54,1.47,2.324,1.853c1.734,0.848,6.031,2.115,8.344,2.493
			c3.98,0.651,12.502,0.687,16.688,0.785c4.748,0.111,18.378,0,19.012,0s10.847-0.476,14.47-0.576
			c2.848-0.079,8.572-0.316,11.407-0.157c1.464,0.082,4.24,0.815,5.704,0.733c2.223-0.124,6.538-1.18,7.946-2.042
			c2.009-1.23,3.563-3.046,3.634-4.086C681.862,14.788,679.562,13.548,678.148,12.614z"/>
		<linearGradient id="SVGID_17_" gradientUnits="userSpaceOnUse" x1="639.0558" y1="16.6581" x2="639.0558" y2="12.3418">
			<stop  offset="0" style="stop-color:#02A9A4"/>
			<stop  offset="1" style="stop-color:#7EAFC4"/>
		</linearGradient>
		<path fill="url(#SVGID_17_)" d="M601.041,15.953c-0.5-0.158-1.198-0.765-1.06-1.05c0.365-0.753,3.591-1.538,5.033-1.838
			c1.732-0.36,5.545-0.517,7.417-0.591c6.832-0.27,20.562-0.051,27.415,0c5.564,0.041,16.753-0.103,22.25,0.328
			c2.657,0.209,7.86,0.968,10.33,1.496c1.515,0.324,6.127,0.866,5.695,1.655c-0.208,0.38-2.384,0-3.179,0
			c-1.556,0-4.681-0.097-6.225,0c-1.323,0.083-3.839,0.592-5.165,0.656c-4.851,0.237-14.595-0.473-19.468-0.525
			c-5.826-0.062-17.482,0.154-23.309,0.131C615.839,16.197,605.203,17.267,601.041,15.953z"/>
		<linearGradient id="SVGID_18_" gradientUnits="userSpaceOnUse" x1="610.6412" y1="-0.7671" x2="668.8299" y2="32.8282">
			<stop  offset="0" style="stop-color:#02A9A4"/>
			<stop  offset="1" style="stop-color:#7EAFC4"/>
		</linearGradient>
		<path fill="url(#SVGID_18_)" d="M601.697,16.393c0.75,0.379,2.4,1.1,3.394,1.298c6.963,1.385,22.277,1.692,29.771,1.875
			c6.08,0.149,18.272-0.098,24.34-0.336c4.095-0.161,12.867,0.067,16.292-1.057c1.081-0.355,3.922-2.246,2.626-2.218
			c-4.008,0.087-7.071-0.146-9.403,0c-1.323,0.083-3.839,0.592-5.165,0.656c-4.851,0.237-14.595-0.471-19.468-0.525
			c-6.119-0.068-18.36,0.142-24.48,0.116c-4.642-0.02-11.968,0.307-18.562-0.247C600.769,15.931,601.504,16.295,601.697,16.393z"/>
	</g>
	<g>
		<linearGradient id="SVGID_19_" gradientUnits="userSpaceOnUse" x1="287.9025" y1="-1.1632" x2="334.904" y2="25.9732">
			<stop  offset="0" style="stop-color:#02A9A4"/>
			<stop  offset="1" style="stop-color:#7EAFC4"/>
		</linearGradient>
		<path fill="url(#SVGID_19_)" d="M280.51,11.641c0,0,0.009,2.149,3.956,3.26c3.877,1.092,14.926,0.838,19.825,0.87
			c4.292,0.028,12.884,0.015,17.165-0.195c4.388-0.216,13.373-0.407,17.453-1.522c1.098-0.3,4.27-1.176,3.802-1.912
			c-0.556-0.874-4.139,0.532-5.53,0.664c-2.953,0.279-8.971,0.333-11.866,0.82c-0.317,0.053-0.889,0.29-1.21,0.332
			c-0.353,0.047-1.324,0.231-1.44,0c-0.087-0.175,0.676-0.315,0.864-0.449c0.157-0.112,0.575-0.358,0.518-0.507
			c-0.04-0.106-0.416-0.181-0.576-0.195c-0.364-0.033-1.079,0.151-1.44,0.195c-0.962,0.119-2.884,0.384-3.859,0.429
			c-1.078,0.05-3.365-0.42-4.32-0.078c-0.235,0.084-0.348,0.512-0.576,0.605c-0.656,0.267-2.287,0.186-3.053,0.176
			c-0.522-0.007-1.571-0.079-2.074-0.176c-0.549-0.106-2.074-0.644-2.074-0.644s-1.597-0.122-2.131-0.117
			c-1.072,0.01-3.229,0.119-4.262,0.312c-0.382,0.071-1.044,0.437-1.44,0.449c-0.321,0.01-0.929-0.187-1.21-0.293
			c-0.161-0.061-0.398-0.281-0.576-0.312c-0.607-0.108-1.851,0.301-2.477,0.273c-0.991-0.045-2.845-0.6-3.802-0.781
			c-0.673-0.127-2.014-0.529-2.707-0.468c-0.294,0.026-0.749,0.342-1.037,0.39C285.735,12.884,280.84,11.825,280.51,11.641z"/>
		<linearGradient id="SVGID_20_" gradientUnits="userSpaceOnUse" x1="280.6048" y1="8.9051" x2="341.4939" y2="8.9051">
			<stop  offset="0.2332" style="stop-color:#83CBD6"/>
			<stop  offset="0.2977" style="stop-color:#8ACFD7"/>
			<stop  offset="0.4412" style="stop-color:#91D3DA"/>
			<stop  offset="0.7645" style="stop-color:#94D4DA"/>
		</linearGradient>
		<path fill="url(#SVGID_20_)" d="M286.11,9.381l24.495,0.306l30.888,1.528c0,0-0.817-0.709-1.462-0.852
			c-1.431-0.318-3.875-0.822-5.375-0.909c-1.578-0.092-4.949-0.274-6.334-0.073c-0.329,0.048,0.749-0.581,0.727-0.809
			c-0.019-0.195-1.064-0.434-1.352-0.44c-1.719-0.038-3.464,0.447-4.843,0.486c-0.588,0.017-1.77-0.1-2.332-0.218
			c-0.472-0.099-1.279-0.556-1.769-0.599c-0.977-0.086-2.874,0.534-3.859,0.545c-1.163,0.013-3.424-0.476-4.583-0.545
			c-1.202-0.071-3.63-0.116-4.824,0c-0.85,0.083-2.44,0.617-3.297,0.654c-0.772,0.034-2.283-0.308-3.055-0.327
			c-0.726-0.018-2.175,0.096-2.895,0.163c-0.629,0.059-1.86,0.361-2.493,0.327c-0.875-0.047-2.69-0.387-3.297-0.817
			c-0.277-0.196-0.145-0.889-0.482-1.035c-1.499-0.648-6.223,0.717-7.351,1.319c-1.325,0.708-2.014,2.878-2.014,2.878L286.11,9.381z
			"/>
		<linearGradient id="SVGID_21_" gradientUnits="userSpaceOnUse" x1="311.5876" y1="14.1517" x2="311.5876" y2="8.6727">
			<stop  offset="0" style="stop-color:#02A9A4"/>
			<stop  offset="1" style="stop-color:#7EAFC4"/>
		</linearGradient>
		<path fill="url(#SVGID_21_)" d="M342.709,12.142c-0.473,0.896-4.139,0.532-5.53,0.664c-2.953,0.279-8.971,0.333-11.866,0.82
			c-0.317,0.053-0.889,0.29-1.21,0.332c-0.353,0.047-1.324,0.231-1.44,0c-0.087-0.175,0.676-0.315,0.864-0.449
			c0.157-0.112,0.575-0.358,0.518-0.507c-0.04-0.106-0.416-0.181-0.576-0.195c-0.364-0.033-1.079,0.151-1.44,0.195
			c-0.962,0.119-2.884,0.384-3.859,0.429c-1.078,0.05-3.365-0.42-4.32-0.078c-0.235,0.084-0.348,0.512-0.576,0.605
			c-0.656,0.267-2.287,0.186-3.053,0.176c-0.522-0.007-1.571-0.079-2.074-0.176c-0.549-0.106-1.522-0.546-2.074-0.644
			c-0.517-0.091-1.597-0.122-2.131-0.117c-1.072,0.01-3.229,0.119-4.262,0.312c-0.382,0.071-1.044,0.437-1.44,0.449
			c-0.321,0.01-0.929-0.187-1.21-0.293c-0.161-0.061-0.398-0.281-0.576-0.312c-0.607-0.108-1.851,0.301-2.477,0.273
			c-0.991-0.045-2.845-0.6-3.802-0.781c-0.673-0.127-2.014-0.529-2.707-0.468c-0.294,0.026-0.749,0.342-1.037,0.39
			c-0.699,0.118-6.225,0.198-5.963-1.486c0.141-0.903,2.562-2.029,3.779-2.231c1.887-0.314,5.928,0.049,7.771,0.049
			c3.053,0,9.503-0.955,12.211,0c0.156,0.055,0.403,0.39,0.403,0.39s0.434-0.338,0.634-0.39c1.424-0.373,4.579-0.019,6.106,0
			c2.795,0.034,8.388,0.124,11.174,0.273c1.302,0.07,3.996,0.063,5.184,0.429c0.176,0.054,0.383,0.361,0.576,0.351
			c0.112-0.005,0.186-0.202,0.288-0.234c1.34-0.431,4.456-0.133,5.933-0.039c0.658,0.042,2.015,0.133,2.592,0.351
			c0.24,0.091,0.566,0.407,0.749,0.546c0.088,0.067,0.222,0.241,0.346,0.273c0.217,0.057,0.69-0.066,0.922-0.078
			c0.431-0.023,1.314-0.124,1.728-0.039c0.237,0.049,0.624,0.277,0.806,0.39c0.196,0.121,0.518,0.41,0.691,0.546
			C342.45,11.937,342.754,12.057,342.709,12.142z"/>
	</g>
	<g>
		<linearGradient id="SVGID_22_" gradientUnits="userSpaceOnUse" x1="1170.4465" y1="17.4039" x2="1244.1832" y2="17.4039">
			<stop  offset="0" style="stop-color:#53B8CB"/>
			<stop  offset="0.7645" style="stop-color:#94D4DA"/>
			<stop  offset="0.8638" style="stop-color:#8ED1D8"/>
			<stop  offset="0.9908" style="stop-color:#7DC8D4"/>
			<stop  offset="1" style="stop-color:#7CC7D4"/>
		</linearGradient>
		<path opacity="0.5" fill="url(#SVGID_22_)" d="M1241.622,15.23c-1.081-0.714-3.289-1.745-6.109-1.893
			c-1.572-0.083-6.173-0.31-7.093-0.057c-0.656,0.18,1.47,0.368,1.949,0.654c0.487,0.291,2.713,0.481,2.53,0.848
			c-0.304,0.609-3.797,0.034-5.06,0c-5.175-0.139-15.445-0.902-20.611-1.106c-3.583-0.142-11.536-1.471-14.361-0.369
			c-0.476,0.186-0.731,0.915-0.446,1.18c0.285,0.266,2.322,0.181,2.232,0.479c-0.193,0.643-3.912,0.201-5.208,0.295
			c-2.506,0.182-7.444,0.967-9.971,0.885c-1.227-0.04-3.473-0.644-4.688-0.738c-1.066-0.082-3.984-0.509-4.316,0
			c-0.303,0.465,2.313,0.929,3.199,1.143c1.497,0.362,4.75,0.806,6.399,0.922c1.234,0.087,4.349-0.531,4.985,0
			c0.238,0.199-0.492,0.693-0.893,0.811c-0.656,0.193-2.68-0.33-3.051,0c-0.377,0.336,1.085,1.036,1.637,1.305
			c1.222,0.597,4.249,1.49,5.878,1.756c2.804,0.458,8.807,0.484,11.756,0.553c3.345,0.079,12.947,0,13.393,0
			c0.447,0,7.641-0.335,10.194-0.406c2.007-0.056,6.039-0.223,8.036-0.111c1.031,0.058,2.987,0.574,4.018,0.516
			c1.566-0.088,4.606-0.831,5.598-1.438c1.415-0.867,2.51-2.146,2.56-2.878C1244.238,16.761,1242.618,15.888,1241.622,15.23z"/>
		<linearGradient id="SVGID_23_" gradientUnits="userSpaceOnUse" x1="1214.082" y1="18.079" x2="1214.082" y2="15.0382">
			<stop  offset="0" style="stop-color:#02A9A4"/>
			<stop  offset="1" style="stop-color:#7EAFC4"/>
		</linearGradient>
		<path fill="url(#SVGID_23_)" d="M1187.301,17.582c-0.352-0.111-0.844-0.539-0.746-0.74c0.258-0.531,2.53-1.084,3.545-1.295
			c1.22-0.254,3.906-0.364,5.225-0.416c4.813-0.19,14.485-0.036,19.313,0c3.92,0.029,11.802-0.073,15.674,0.231
			c1.872,0.147,5.537,0.682,7.277,1.054c1.068,0.228,4.317,0.61,4.012,1.166c-0.147,0.268-1.679,0-2.239,0
			c-1.096,0-3.297-0.068-4.385,0c-0.932,0.058-2.704,0.417-3.639,0.462c-3.417,0.167-10.282-0.333-13.715-0.37
			c-4.104-0.044-12.315,0.108-16.421,0.092C1197.726,17.754,1190.234,18.508,1187.301,17.582z"/>
		<linearGradient id="SVGID_24_" gradientUnits="userSpaceOnUse" x1="1194.0647" y1="5.8034" x2="1235.0571" y2="29.4704">
			<stop  offset="0" style="stop-color:#02A9A4"/>
			<stop  offset="1" style="stop-color:#7EAFC4"/>
		</linearGradient>
		<path fill="url(#SVGID_24_)" d="M1187.764,17.892c0.529,0.267,1.69,0.775,2.391,0.914c4.905,0.976,15.694,1.192,20.973,1.321
			c4.283,0.105,12.872-0.069,17.147-0.237c2.885-0.113,9.065,0.047,11.477-0.745c0.762-0.25,2.763-1.582,1.85-1.562
			c-2.824,0.061-4.981-0.103-6.624,0c-0.932,0.058-2.704,0.417-3.639,0.462c-3.417,0.167-10.282-0.332-13.715-0.37
			c-4.31-0.048-12.934,0.1-17.245,0.082c-3.27-0.014-8.431,0.216-13.077-0.174C1187.11,17.566,1187.628,17.823,1187.764,17.892z"/>
	</g>
	<g>
		<linearGradient id="SVGID_25_" gradientUnits="userSpaceOnUse" x1="227.3013" y1="2.7658" x2="258.2243" y2="20.6192">
			<stop  offset="0" style="stop-color:#02A9A4"/>
			<stop  offset="1" style="stop-color:#7EAFC4"/>
		</linearGradient>
		<path fill="url(#SVGID_25_)" d="M222.438,11.19c0,0,0.006,1.414,2.602,2.145c2.551,0.718,9.82,0.552,13.043,0.572
			c2.824,0.018,8.477,0.01,11.293-0.128c2.887-0.142,8.798-0.268,11.482-1.001c0.722-0.197,2.809-0.774,2.501-1.258
			c-0.366-0.575-2.723,0.35-3.638,0.437c-1.943,0.183-5.902,0.219-7.807,0.539c-0.208,0.035-0.585,0.19-0.796,0.218
			c-0.232,0.031-0.871,0.152-0.947,0c-0.058-0.115,0.445-0.207,0.568-0.295c0.103-0.073,0.378-0.235,0.341-0.334
			c-0.026-0.07-0.274-0.119-0.379-0.128c-0.239-0.022-0.71,0.099-0.947,0.128c-0.633,0.078-1.897,0.253-2.539,0.282
			c-0.709,0.033-2.214-0.276-2.842-0.051c-0.155,0.055-0.229,0.337-0.379,0.398c-0.432,0.176-1.505,0.122-2.008,0.116
			c-0.344-0.005-1.034-0.052-1.364-0.116c-0.361-0.07-1.364-0.424-1.364-0.424s-1.05-0.08-1.402-0.077
			c-0.705,0.006-2.125,0.078-2.804,0.205c-0.251,0.047-0.687,0.288-0.947,0.295c-0.211,0.006-0.611-0.123-0.796-0.193
			c-0.106-0.04-0.262-0.185-0.379-0.205c-0.399-0.071-1.218,0.198-1.63,0.18c-0.652-0.029-1.872-0.395-2.501-0.514
			c-0.443-0.084-1.325-0.348-1.781-0.308c-0.193,0.017-0.493,0.225-0.682,0.257C225.875,12.007,222.655,11.311,222.438,11.19z"/>
		<linearGradient id="SVGID_26_" gradientUnits="userSpaceOnUse" x1="222.5001" y1="9.3899" x2="262.5599" y2="9.3899">
			<stop  offset="0.1916" style="stop-color:#7EC8D3"/>
			<stop  offset="0.2929" style="stop-color:#8ACED7"/>
			<stop  offset="0.4362" style="stop-color:#92D3DA"/>
			<stop  offset="0.7645" style="stop-color:#94D4DA"/>
		</linearGradient>
		<path fill="url(#SVGID_26_)" d="M226.122,9.703l16.116,0.201l20.322,1.005c0,0-0.538-0.466-0.962-0.561
			c-0.941-0.209-2.549-0.541-3.536-0.598c-1.038-0.06-3.256-0.18-4.167-0.048c-0.217,0.032,0.493-0.382,0.478-0.532
			c-0.012-0.128-0.7-0.285-0.889-0.289c-1.131-0.025-2.279,0.294-3.186,0.32c-0.387,0.011-1.164-0.066-1.534-0.143
			c-0.311-0.065-0.841-0.366-1.164-0.394c-0.643-0.057-1.891,0.351-2.539,0.358c-0.765,0.008-2.253-0.313-3.015-0.358
			c-0.791-0.047-2.389-0.076-3.174,0c-0.559,0.054-1.605,0.406-2.169,0.43c-0.508,0.022-1.502-0.202-2.01-0.215
			c-0.477-0.012-1.431,0.063-1.904,0.108c-0.414,0.039-1.224,0.238-1.64,0.215c-0.576-0.031-1.77-0.255-2.169-0.538
			c-0.182-0.129-0.095-0.585-0.317-0.681c-0.986-0.426-4.094,0.472-4.836,0.868c-0.872,0.466-1.325,1.893-1.325,1.893L226.122,9.703
			z"/>
		<linearGradient id="SVGID_27_" gradientUnits="userSpaceOnUse" x1="242.8842" y1="12.8417" x2="242.8842" y2="9.2369">
			<stop  offset="0" style="stop-color:#02A9A4"/>
			<stop  offset="1" style="stop-color:#7EAFC4"/>
		</linearGradient>
		<path fill="url(#SVGID_27_)" d="M263.359,11.519c-0.311,0.589-2.723,0.35-3.638,0.437c-1.943,0.183-5.902,0.219-7.807,0.539
			c-0.208,0.035-0.585,0.19-0.796,0.218c-0.232,0.031-0.871,0.152-0.947,0c-0.058-0.115,0.445-0.207,0.568-0.295
			c0.103-0.073,0.378-0.235,0.341-0.334c-0.026-0.07-0.274-0.119-0.379-0.128c-0.239-0.022-0.71,0.099-0.947,0.128
			c-0.633,0.078-1.897,0.253-2.539,0.282c-0.709,0.033-2.214-0.276-2.842-0.051c-0.155,0.055-0.229,0.337-0.379,0.398
			c-0.432,0.176-1.505,0.122-2.008,0.116c-0.344-0.005-1.034-0.052-1.364-0.116c-0.361-0.07-1.001-0.359-1.364-0.424
			c-0.34-0.06-1.05-0.08-1.402-0.077c-0.705,0.006-2.125,0.078-2.804,0.205c-0.251,0.047-0.687,0.288-0.947,0.295
			c-0.211,0.006-0.611-0.123-0.796-0.193c-0.106-0.04-0.262-0.185-0.379-0.205c-0.399-0.071-1.218,0.198-1.63,0.18
			c-0.652-0.029-1.872-0.395-2.501-0.514c-0.443-0.084-1.325-0.348-1.781-0.308c-0.193,0.017-0.493,0.225-0.682,0.257
			c-0.46,0.077-4.096,0.13-3.923-0.978c0.092-0.594,1.686-1.335,2.486-1.468c1.241-0.207,3.9,0.032,5.113,0.032
			c2.008,0,6.252-0.629,8.034,0c0.103,0.036,0.265,0.257,0.265,0.257s0.285-0.222,0.417-0.257c0.937-0.245,3.013-0.012,4.017,0
			c1.839,0.022,5.518,0.082,7.352,0.18c0.856,0.046,2.629,0.041,3.411,0.282c0.116,0.036,0.252,0.237,0.379,0.231
			c0.074-0.004,0.123-0.133,0.189-0.154c0.882-0.283,2.932-0.088,3.903-0.026c0.433,0.028,1.326,0.087,1.705,0.231
			c0.158,0.06,0.372,0.268,0.493,0.359c0.058,0.044,0.146,0.158,0.227,0.18c0.142,0.037,0.454-0.043,0.606-0.051
			c0.283-0.015,0.865-0.081,1.137-0.026c0.156,0.032,0.41,0.182,0.531,0.257c0.129,0.08,0.341,0.27,0.455,0.359
			C263.189,11.384,263.389,11.463,263.359,11.519z"/>
	</g>
	<g>
		<linearGradient id="SVGID_28_" gradientUnits="userSpaceOnUse" x1="27.0404" y1="11.6673" x2="103.4923" y2="11.6673">
			<stop  offset="0" style="stop-color:#6ABFD0"/>
			<stop  offset="0.1004" style="stop-color:#7AC6D3"/>
			<stop  offset="0.2544" style="stop-color:#89CED7"/>
			<stop  offset="0.4432" style="stop-color:#91D3DA"/>
			<stop  offset="0.7645" style="stop-color:#94D4DA"/>
		</linearGradient>
		<path fill="url(#SVGID_28_)" d="M100.836,9.414c-1.121-0.74-3.411-1.809-6.333-1.963c-1.63-0.086-6.401-0.321-7.354-0.059
			c-0.68,0.187,1.524,0.381,2.021,0.678c0.505,0.302,2.813,0.499,2.623,0.88c-0.315,0.631-3.936,0.035-5.246,0
			c-5.366-0.144-16.013-0.935-21.37-1.147c-3.715-0.147-11.961-1.525-14.889-0.382c-0.493,0.193-0.757,0.949-0.463,1.224
			c0.296,0.276,2.407,0.188,2.314,0.497c-0.2,0.666-4.056,0.208-5.4,0.306C44.14,9.635,39.02,10.448,36.4,10.364
			c-1.272-0.041-3.6-0.668-4.86-0.765c-1.105-0.085-4.131-0.528-4.475,0c-0.314,0.482,2.398,0.963,3.317,1.185
			c1.553,0.375,4.925,0.835,6.635,0.956c1.279,0.09,4.509-0.551,5.169,0c0.247,0.206-0.51,0.719-0.926,0.841
			c-0.68,0.2-2.779-0.343-3.163,0c-0.391,0.348,1.125,1.074,1.697,1.353c1.267,0.619,4.405,1.545,6.095,1.821
			c2.907,0.475,9.132,0.502,12.189,0.574c3.468,0.081,13.424,0,13.887,0c0.463,0,7.923-0.347,10.569-0.421
			c2.081-0.058,6.261-0.231,8.332-0.115c1.069,0.06,3.097,0.595,4.166,0.535c1.624-0.091,4.775-0.862,5.804-1.491
			c1.468-0.898,2.603-2.225,2.654-2.984C103.549,11.001,101.869,10.096,100.836,9.414z"/>
		<linearGradient id="SVGID_29_" gradientUnits="userSpaceOnUse" x1="72.2827" y1="12.3673" x2="72.2827" y2="9.2146">
			<stop  offset="0" style="stop-color:#02A9A4"/>
			<stop  offset="1" style="stop-color:#7EAFC4"/>
		</linearGradient>
		<path fill="url(#SVGID_29_)" d="M44.516,11.852c-0.365-0.115-0.875-0.559-0.774-0.767c0.267-0.55,2.623-1.124,3.676-1.343
			c1.265-0.263,4.05-0.377,5.417-0.432c4.99-0.197,15.019-0.037,20.024,0c4.064,0.03,12.237-0.075,16.251,0.24
			c1.941,0.152,5.741,0.707,7.545,1.093c1.107,0.237,4.475,0.632,4.16,1.209c-0.152,0.278-1.741,0-2.322,0
			c-1.137,0-3.419-0.071-4.547,0c-0.966,0.06-2.804,0.432-3.773,0.479c-3.543,0.173-10.661-0.346-14.22-0.384
			c-4.256-0.045-12.769,0.112-17.025,0.096C55.325,12.03,47.557,12.812,44.516,11.852z"/>
		<linearGradient id="SVGID_30_" gradientUnits="userSpaceOnUse" x1="51.5283" y1="-0.3603" x2="94.0301" y2="24.1781">
			<stop  offset="0" style="stop-color:#02A9A4"/>
			<stop  offset="1" style="stop-color:#7EAFC4"/>
		</linearGradient>
		<path fill="url(#SVGID_30_)" d="M44.995,12.173c0.548,0.277,1.753,0.803,2.479,0.948c5.086,1.012,16.272,1.236,21.745,1.369
			c4.441,0.108,13.346-0.072,17.779-0.246c2.991-0.117,9.398,0.049,11.9-0.772c0.79-0.259,2.865-1.64,1.918-1.62
			c-2.928,0.064-5.165-0.107-6.868,0c-0.966,0.06-2.804,0.432-3.773,0.479c-3.543,0.173-10.661-0.344-14.22-0.384
			c-4.469-0.05-13.41,0.104-17.88,0.085c-3.391-0.015-8.741,0.224-13.558-0.18C44.317,11.836,44.854,12.102,44.995,12.173z"/>
	</g>
	<g>
		<linearGradient id="SVGID_31_" gradientUnits="userSpaceOnUse" x1="954.7275" y1="-2.6316" x2="989.5267" y2="17.4598">
			<stop  offset="0" style="stop-color:#02A9A4"/>
			<stop  offset="1" style="stop-color:#7EAFC4"/>
		</linearGradient>
		<path fill="url(#SVGID_31_)" d="M949.254,6.849c0,0,0.007,1.591,2.929,2.414c2.87,0.808,11.051,0.621,14.678,0.644
			c3.177,0.02,9.539,0.011,12.708-0.144c3.249-0.16,9.901-0.302,12.922-1.127c0.813-0.222,3.162-0.871,2.815-1.416
			c-0.411-0.647-3.065,0.394-4.094,0.491c-2.187,0.206-6.642,0.247-8.785,0.607c-0.234,0.039-0.659,0.214-0.896,0.246
			c-0.262,0.035-0.981,0.171-1.066,0c-0.065-0.129,0.501-0.233,0.64-0.332c0.116-0.083,0.426-0.265,0.384-0.376
			c-0.03-0.078-0.308-0.134-0.426-0.144c-0.269-0.024-0.799,0.112-1.066,0.144c-0.712,0.088-2.135,0.285-2.857,0.318
			c-0.798,0.037-2.491-0.311-3.198-0.058c-0.174,0.062-0.258,0.379-0.426,0.448c-0.486,0.198-1.693,0.138-2.26,0.13
			c-0.387-0.005-1.163-0.058-1.535-0.13c-0.406-0.078-1.535-0.477-1.535-0.477s-1.182-0.09-1.578-0.087
			c-0.794,0.007-2.391,0.088-3.156,0.231c-0.283,0.053-0.773,0.324-1.066,0.332c-0.237,0.007-0.688-0.138-0.896-0.217
			c-0.119-0.045-0.294-0.208-0.426-0.231c-0.449-0.08-1.37,0.223-1.834,0.202c-0.734-0.033-2.106-0.444-2.815-0.578
			c-0.498-0.094-1.491-0.392-2.004-0.347c-0.218,0.019-0.555,0.253-0.768,0.289C953.123,7.769,949.498,6.985,949.254,6.849z"/>
		<linearGradient id="SVGID_32_" gradientUnits="userSpaceOnUse" x1="949.3244" y1="4.8228" x2="994.4058" y2="4.8228">
			<stop  offset="0.791" style="stop-color:#90D5DB"/>
			<stop  offset="0.9042" style="stop-color:#A5DBDC"/>
			<stop  offset="1" style="stop-color:#B2DFDC"/>
		</linearGradient>
		<path fill="url(#SVGID_32_)" d="M953.401,5.175l18.136,0.227l22.869,1.131c0,0-0.605-0.525-1.082-0.631
			c-1.059-0.236-2.869-0.609-3.98-0.673c-1.168-0.068-3.664-0.203-4.689-0.054c-0.244,0.035,0.555-0.43,0.538-0.599
			c-0.014-0.144-0.788-0.321-1.001-0.326c-1.273-0.028-2.565,0.331-3.586,0.36c-0.435,0.012-1.31-0.074-1.726-0.161
			c-0.35-0.073-0.947-0.412-1.31-0.444c-0.724-0.064-2.128,0.396-2.857,0.403c-0.861,0.009-2.535-0.353-3.393-0.403
			c-0.89-0.052-2.688-0.086-3.572,0c-0.629,0.061-1.806,0.456-2.441,0.484c-0.571,0.025-1.69-0.228-2.262-0.242
			c-0.537-0.013-1.611,0.071-2.143,0.121c-0.466,0.044-1.377,0.267-1.845,0.242c-0.648-0.035-1.992-0.287-2.441-0.605
			c-0.205-0.145-0.107-0.658-0.357-0.766c-1.11-0.48-4.607,0.531-5.442,0.977c-0.981,0.524-1.492,2.131-1.492,2.131L953.401,5.175z"
			/>
		<linearGradient id="SVGID_33_" gradientUnits="userSpaceOnUse" x1="972.2637" y1="8.7074" x2="972.2637" y2="4.6507">
			<stop  offset="0" style="stop-color:#02A9A4"/>
			<stop  offset="1" style="stop-color:#7EAFC4"/>
		</linearGradient>
		<path fill="url(#SVGID_33_)" d="M995.305,7.219c-0.35,0.663-3.065,0.394-4.094,0.491c-2.187,0.206-6.642,0.247-8.785,0.607
			c-0.234,0.039-0.659,0.214-0.896,0.246c-0.262,0.035-0.981,0.171-1.066,0c-0.065-0.129,0.501-0.233,0.64-0.332
			c0.116-0.083,0.426-0.265,0.384-0.376c-0.03-0.078-0.308-0.134-0.426-0.144c-0.269-0.024-0.799,0.112-1.066,0.144
			c-0.712,0.088-2.135,0.285-2.857,0.318c-0.798,0.037-2.491-0.311-3.198-0.058c-0.174,0.062-0.258,0.379-0.426,0.448
			c-0.486,0.198-1.693,0.138-2.26,0.13c-0.387-0.005-1.163-0.058-1.535-0.13c-0.406-0.078-1.127-0.405-1.535-0.477
			c-0.383-0.068-1.182-0.09-1.578-0.087c-0.794,0.007-2.391,0.088-3.156,0.231c-0.283,0.053-0.773,0.324-1.066,0.332
			c-0.237,0.007-0.688-0.138-0.896-0.217c-0.119-0.045-0.294-0.208-0.426-0.231c-0.449-0.08-1.37,0.223-1.834,0.202
			c-0.734-0.033-2.106-0.444-2.815-0.578c-0.498-0.094-1.491-0.392-2.004-0.347c-0.218,0.019-0.555,0.253-0.768,0.289
			c-0.517,0.087-4.609,0.146-4.415-1.1c0.104-0.668,1.897-1.502,2.798-1.652c1.397-0.233,4.389,0.036,5.754,0.036
			c2.26,0,7.036-0.707,9.041,0c0.115,0.041,0.299,0.289,0.299,0.289s0.321-0.25,0.469-0.289c1.054-0.276,3.391-0.014,4.52,0
			c2.069,0.025,6.21,0.092,8.273,0.202c0.964,0.052,2.958,0.046,3.838,0.318c0.131,0.04,0.283,0.267,0.426,0.26
			c0.083-0.004,0.138-0.149,0.213-0.173c0.992-0.319,3.299-0.099,4.393-0.029c0.487,0.031,1.492,0.098,1.919,0.26
			c0.178,0.067,0.419,0.302,0.554,0.405c0.065,0.05,0.164,0.178,0.256,0.202c0.16,0.042,0.511-0.049,0.682-0.058
			c0.319-0.017,0.973-0.092,1.279-0.029c0.176,0.036,0.462,0.205,0.597,0.289c0.145,0.09,0.384,0.303,0.512,0.405
			C995.114,7.067,995.339,7.156,995.305,7.219z"/>
	</g>
	<g>
		<linearGradient id="SVGID_34_" gradientUnits="userSpaceOnUse" x1="998.0853" y1="14.6504" x2="1028.8105" y2="14.6504">
			<stop  offset="0.316" style="stop-color:#7CC7D4"/>
			<stop  offset="0.5047" style="stop-color:#88CDD7"/>
			<stop  offset="0.7645" style="stop-color:#94D4DA"/>
		</linearGradient>
		<path fill="url(#SVGID_34_)" d="M1028.465,14.32c-0.062-0.036-0.266-0.059-0.334-0.092c-0.084-0.041-0.294-0.154-0.234-0.204
			c0.054-0.045,0.353,0.038,0.426,0c0.066-0.035,0.045-0.157-0.025-0.19c-0.147-0.067-0.627,0.047-0.803,0
			c-0.124-0.033-0.362-0.17-0.306-0.234c0.072-0.081,0.538-0.036,0.709-0.064c0.151-0.025,0.541-0.065,0.568-0.142
			c0.017-0.047-0.178-0.12-0.267-0.139c-0.138-0.029-0.451-0.003-0.602,0c-0.205,0.003-0.614,0.037-0.818,0.028
			c-0.407-0.019-1.182-0.166-1.584-0.202c-0.317-0.029-0.959-0.061-1.281-0.07c-0.181-0.005-0.543-0.008-0.723,0
			c-0.198,0.009-0.583,0.066-0.782,0.07c-0.102,0.002-0.375-0.02-0.381-0.07c-0.013-0.105,0.581-0.134,0.755-0.194
			c0.112-0.039,0.365-0.168,0.299-0.228c-0.126-0.114-0.795-0.023-1.054,0c-0.254,0.023-0.724,0.137-0.968,0.178
			c-0.393,0.066-1.179,0.205-1.587,0.244c-0.517,0.049-1.495,0.042-2.156,0.076c-0.011-0.044-0.278-0.059-0.372-0.072
			c-0.272-0.038-0.836-0.082-1.119-0.087c-0.346-0.006-1.033,0.048-1.378,0.058c-0.329,0.009-0.989,0.031-1.318,0.019
			c-0.232-0.008-0.687-0.068-0.919-0.078c-0.323-0.014-0.975-0.015-1.298,0c-0.162,0.007-0.478,0.049-0.64,0.058
			c-0.398,0.024-1.21,0.006-1.602,0.049c-0.188,0.02-0.523,0.138-0.716,0.136c-0.169-0.002-0.45-0.128-0.619-0.136
			c-0.347-0.016-1.028,0.101-1.358,0.155c-0.15,0.025-0.423,0.114-0.58,0.126c-0.342,0.027-1.262,0.026-1.606,0.044
			c-0.209,0.011-0.977,0.003-1.282,0.067c-0.142,0.03,0.566,0.024,0.887,0.064c0.034,0.004,0.491-0.05,0.388,0.007
			c-0.156,0.085-0.669,0.013-0.904,0.013c-0.18,0-0.542,0.016-0.719,0c-0.189-0.017-0.375-0.014-0.565-0.031
			c-0.393-0.036-1.007-0.049-1.553-0.029c-0.086,0.003-1.253-0.077-1.229-0.037c0.065,0.104,0.47,0.184,1.668,0.253
			c0.208,0.012,0.781-0.098,0.839,0c0.044,0.074-0.386,0.144-0.54,0.165c-0.273,0.038-0.857-0.021-1.139,0
			c-0.114,0.009-0.464,0-0.662,0.031c-0.117,0.019,0.559,0.151,0.562,0.211c0.003,0.064-0.553,0.064-0.684,0.061
			c-0.266-0.005-0.719-0.075-0.773-0.007c-0.054,0.067,0.819,0.309,0.958,0.335c0.298,0.056,0.962-0.023,1.278,0
			c0.233,0.017,0.76,0.08,0.86,0.183c0.051,0.052-0.697,0.184-0.702,0.242c-0.003,0.033,0.514,0.069,0.653,0.091
			c0.209,0.033,0.277,0.075,0.478,0.119c0.223,0.048,0.972,0.155,1.188,0.21c0.326,0.084,1,0.229,1.338,0.301
			c0.252,0.054,0.704,0.274,0.974,0.3c0.152,0.015,0.377,0.014,0.526,0.035c0.107,0.015,0.374,0.056,0.473,0.081
			c0.183,0.046,0.56,0.13,0.759,0.155c0.832,0.105,2.351,0.228,3.209,0.251c0.743,0.02,1.576-0.136,2.307-0.069
			c0.295,0.027,1.741,0.103,2.04,0.119c0.191,0.01,0.623,0.008,0.759-0.058c0.065-0.031-0.013-0.148,0.06-0.175
			c0.069-0.026,0.188-0.021,0.317-0.009c-0.077,0.027-0.118,0.054-0.07,0.083c0.201,0.122,1.4,0.16,1.714,0.191
			c0.471,0.046,1.249,0.156,1.677,0.191c0.388,0.032,1.043-0.005,1.425,0.042c0.405,0.05,1.252,0,1.669,0
			c0.201,0,0.603,0.004,0.804,0c0.4-0.008,1.209-0.017,1.598-0.066c0.364-0.046,1.04-0.216,1.374-0.301
			c0.37-0.094,1.091-0.3,1.433-0.416c0.187-0.063,0.588-0.184,0.709-0.278c0.075-0.058,0.165-0.202,0.127-0.268
			c-0.028-0.051-0.285-0.099-0.297-0.151c-0.021-0.092,0.29-0.145,0.467-0.178c0.076-0.014,0.342-0.057,0.417-0.073
			c0.166-0.035,0.192-0.252,0.2-0.34C1028.819,14.58,1028.592,14.392,1028.465,14.32z M1016.139,16.045
			c-0.037,0.05-0.198,0.092-0.353,0.131c-0.029-0.004-0.06-0.008-0.076-0.01c-0.389-0.065-1.555,0.063-1.962,0.037
			c-0.525-0.034-1.117-0.147-1.646-0.14c-0.466,0.007-2.132,0.112-2.597,0.093c-0.915-0.037-2.601-0.102-3.459-0.261
			c-0.409-0.076-1.659-0.366-2.06-0.452c-0.468-0.101-1.322-0.365-1.757-0.641c-0.149-0.095-0.05-0.409,0.393-0.524
			c0.199-0.052,0.27-0.054,0.469-0.13c0.37-0.141,1.362-0.555,1.827-0.59c0.232-0.018,0.708,0.063,0.938,0.039
			c0.129-0.014,0.331-0.111,0.459-0.126c0.2-0.023,0.616,0.032,0.819,0.019c0.215-0.013,0.867-0.04,1.076-0.068
			c0.175-0.024,0.271-0.112,0.452-0.116c0.172-0.004,0.518,0.024,0.689,0.02c0.139-0.004,0.403-0.054,0.54-0.068
			c0.228-0.024,0.687-0.069,0.919-0.078c0.194-0.007,0.584,0.012,0.779,0.01c0.485-0.005,1.51-0.122,1.937-0.009
			c0.313,0.083,0.339,0.136,0.814,0.132c0.245-0.002,1.003,0,1.695-0.029c-0.036,0.136,0.565,0.323,0.69,0.446
			c0.259,0.257,0.717,0.813,0.665,1.099C1017.33,15.168,1016.372,15.723,1016.139,16.045z"/>
		<linearGradient id="SVGID_35_" gradientUnits="userSpaceOnUse" x1="1015.1752" y1="13.9513" x2="1015.1752" y2="16.325">
			<stop  offset="0" style="stop-color:#02A9A4"/>
			<stop  offset="1" style="stop-color:#7EAFC4"/>
		</linearGradient>
		<path fill="url(#SVGID_35_)" d="M1026.021,14.416c-0.129-0.009-1.947-0.084-2.214-0.034c-0.172,0.032-0.54,0.203-0.657,0.201
			c-0.18-0.003-0.199,0.163-0.379,0.17c-0.223,0.008-0.142,0.146-0.362,0.129c-0.095-0.007-0.031,0.206-0.123,0.193
			c-0.099-0.013-0.299-0.04-0.401-0.042c-0.148-0.002-0.438,0.052-0.584,0.042c-0.151-0.011-0.417-0.088-0.547-0.125
			c-0.166-0.047-0.437-0.186-0.62-0.216c-0.103-0.017-0.329-0.012-0.438-0.008c-0.213,0.007-0.646,0.033-0.839,0.075
			c-0.091,0.02-0.217,0.099-0.31,0.116c-0.242,0.044-0.783,0.052-1.04,0.033c-0.117-0.009-0.326-0.065-0.438-0.083
			c-0.112-0.018-0.346-0.038-0.456-0.058c-0.053-0.01-0.144-0.049-0.201-0.05c-0.065-0.001-0.173,0.045-0.237,0.05
			c-0.204,0.015-0.628-0.007-0.821-0.042c-0.274-0.049-0.678-0.264-0.949-0.316c-0.102-0.02-0.334-0.016-0.438-0.033
			c-0.14-0.024-0.37-0.119-0.511-0.141c-0.074-0.012-0.276-0.049-0.31-0.017c-0.045,0.042,0.219,0.1,0.292,0.133
			c0.078,0.035,0.341,0.093,0.31,0.141c-0.018,0.029-0.193,0.016-0.255,0.025c-0.066,0.01-0.199,0.031-0.255,0.05
			c-0.068,0.023-0.139,0.105-0.219,0.116c-0.398,0.057-1.569-0.183-1.624-0.175c-0.055,0.008-1.466-0.272-1.934-0.382
			c-0.136-0.032-0.387-0.115-0.529-0.141c-0.135-0.025-0.447-0.105-0.565-0.066c-0.093,0.03,0.006,0.159-0.036,0.208
			c-0.032,0.037-0.14,0.107-0.219,0.125c-0.132,0.029-0.438,0-0.584,0c-0.091,0-0.274,0.005-0.365,0
			c-0.075-0.004-0.224-0.019-0.292-0.033c-0.062-0.013-0.174-0.051-0.219-0.075c-0.037-0.02-0.063-0.076-0.109-0.091
			c-0.064-0.021-0.233-0.031-0.31-0.025c-0.072,0.006-0.186,0.055-0.255,0.066c-0.135,0.023-0.422,0.044-0.565,0.05
			c-0.132,0.006-0.401,0.015-0.529,0c-0.081-0.01-0.213-0.062-0.292-0.075c-0.1-0.016-0.315-0.044-0.42-0.033
			c-0.103,0.01-0.246,0.094-0.347,0.108c-0.065,0.009-0.206,0.006-0.274,0c-0.111-0.01-0.338-0.039-0.42-0.075
			c-0.056-0.024-0.046-0.13-0.124-0.129c-0.049,0-0.046,0.064-0.073,0.082c-0.125,0.082-0.535,0.185-0.642,0.272
			c-0.078,0.063-0.163,0.212-0.128,0.283c0.042,0.084,0.318,0.215,0.456,0.274c0.234,0.1,0.791,0.252,1.071,0.324
			c0.382,0.099,1.184,0.267,1.586,0.348c0.19,0.038,0.572,0.113,0.769,0.143c0.447,0.069,1.353,0.198,1.82,0.227
			c0.197,0.012,0.596-0.01,0.793,0c0.143,0.007,0.421,0.041,0.56,0.057c0.141,0.016,0.56,0.071,0.56,0.071s0.285-0.072,0.389-0.085
			c0.23-0.028,0.711-0.042,0.949-0.035c0.158,0.004,0.472,0.034,0.622,0.057c0.147,0.022,0.409,0.105,0.56,0.121
			c0.19,0.019,0.584-0.008,0.778,0c0.229,0.01,0.673,0.085,0.902,0.078c0.171-0.005,0.496-0.066,0.651-0.099
			c0.067-0.014,0.18-0.062,0.251-0.071c0.274-0.034,0.854-0.004,1.136,0.014c0.334,0.022,0.977,0.123,1.307,0.156
			c0.177,0.018,0.536,0.044,0.716,0.057c0.295,0.021,0.884,0.073,1.182,0.071c0.201-0.001,0.594-0.045,0.793-0.057
			c0.349-0.021,1.05-0.052,1.4-0.071c0.195-0.01,0.582-0.039,0.778-0.043c0.334-0.006,0.673-0.014,1.005,0.004
			c0.197,0.01,0.775-0.272,0.969-0.252c0.27,0.028,1.224-0.079,1.686-0.24c0.593-0.206,1.985-0.557,2.128-0.861
			c0.237-0.506,0.21-0.496,0.21-0.496S1026.247,14.431,1026.021,14.416z"/>
		<linearGradient id="SVGID_36_" gradientUnits="userSpaceOnUse" x1="1015.6732" y1="15.0767" x2="1015.6732" y2="13.0104">
			<stop  offset="0" style="stop-color:#02A9A4"/>
			<stop  offset="1" style="stop-color:#7EAFC4"/>
		</linearGradient>
		<path fill="url(#SVGID_36_)" d="M1027.759,14.007c-0.532-0.263-2.181-0.785-2.336-0.779c-0.225,0.008-0.471-0.075-0.693-0.093
			c-0.678-0.056-2.068-0.063-2.755-0.038c-0.25,0.009-0.734,0.084-0.985,0.086c-0.282,0.001-0.833-0.069-1.113-0.086
			c-0.504-0.03-1.516-0.086-2.025-0.087c-0.394-0.001-1.176,0.054-1.569,0.062c-0.251,0.005-0.772-0.044-1.003,0
			c-0.083,0.016-0.176,0.097-0.255,0.116c-0.205,0.05-0.683,0.096-0.912,0.08c-0.185-0.013-0.477-0.139-0.657-0.163
			c-0.22-0.029-0.685-0.035-0.912-0.025c-0.211,0.01-0.609,0.095-0.821,0.1c-0.147,0.004-0.438-0.031-0.584-0.041
			c-0.169-0.011-0.506-0.051-0.675-0.042c-0.141,0.007-0.393,0.074-0.529,0.091c-0.129,0.016-0.398,0.027-0.529,0.042
			c-0.07,0.008-0.203,0.033-0.274,0.038c-0.081,0.006-0.245,0-0.327,0c-0.084,0-0.256-0.012-0.335,0
			c-0.074,0.011-0.186,0.032-0.262,0.041c-0.134,0.016-0.397,0-0.535,0.004c-0.081,0.002-0.233,0.031-0.31,0.042
			c-0.146,0.02-0.433,0.073-0.584,0.083c-0.09,0.006-0.274,0-0.365,0c-0.114,0-0.345-0.013-0.456,0
			c-0.075,0.009-0.198,0.058-0.274,0.066c-0.106,0.012-0.328,0-0.438,0c-0.096,0-0.29-0.01-0.383,0
			c-0.19,0.021-0.517,0.128-0.693,0.166c-0.072,0.016-0.213,0.055-0.292,0.058c-0.075,0.003-0.22-0.043-0.292-0.033
			c-0.046,0.007-0.101,0.048-0.128,0.066c-0.047,0.033-0.098,0.109-0.146,0.141c-0.038,0.026-0.158,0.063-0.182,0.091
			c-0.023,0.027-0.047,0.047-0.04,0.076c0.022,0.088,0.349,0.106,0.46,0.115c0.067,0.006,0.208,0.009,0.274,0
			c0.1-0.014,0.244-0.098,0.347-0.108c0.104-0.01,0.319,0.017,0.42,0.033c0.079,0.013,0.211,0.065,0.292,0.075
			c0.128,0.015,0.397,0.006,0.529,0c0.143-0.006,0.43-0.027,0.565-0.05c0.069-0.012,0.183-0.061,0.255-0.066
			c0.078-0.006,0.246,0.004,0.31,0.025c0.046,0.015,0.072,0.072,0.109,0.091c0.045,0.024,0.157,0.061,0.219,0.075
			c0.068,0.015,0.217,0.029,0.292,0.033c0.091,0.005,0.274,0,0.365,0c0.146,0,0.452,0.029,0.584,0
			c0.079-0.017,0.187-0.088,0.219-0.125c0.042-0.048-0.057-0.178,0.036-0.208c0.119-0.039,0.43,0.041,0.565,0.066
			c0.142,0.027,0.393,0.109,0.529,0.141c0.468,0.111,1.879,0.391,1.934,0.382c0.055-0.008,1.226,0.232,1.624,0.175
			c0.08-0.012,0.151-0.094,0.219-0.116c0.056-0.019,0.189-0.04,0.255-0.05c0.062-0.009,0.237,0.004,0.255-0.025
			c0.031-0.048-0.233-0.106-0.31-0.141c-0.073-0.033-0.337-0.091-0.292-0.133c0.034-0.032,0.236,0.005,0.31,0.017
			c0.141,0.022,0.371,0.118,0.511,0.141c0.104,0.018,0.336,0.014,0.438,0.033c0.271,0.052,0.675,0.267,0.949,0.316
			c0.192,0.034,0.617,0.057,0.821,0.042c0.064-0.005,0.172-0.051,0.237-0.05c0.057,0.001,0.148,0.04,0.201,0.05
			c0.11,0.02,0.344,0.041,0.456,0.058c0.112,0.018,0.321,0.074,0.438,0.083c0.257,0.019,0.798,0.011,1.04-0.033
			c0.093-0.017,0.219-0.097,0.31-0.116c0.193-0.042,0.626-0.067,0.839-0.075c0.109-0.004,0.335-0.009,0.438,0.008
			c0.184,0.03,0.455,0.169,0.62,0.216c0.13,0.037,0.396,0.114,0.547,0.125c0.146,0.01,0.436-0.044,0.584-0.042
			c0.103,0.002,0.302,0.029,0.401,0.042c0.093,0.012,0.349-0.235,0.572-0.243c0.179-0.006,0.113-0.253,0.293-0.249
			c0.117,0.002,0.611-0.153,0.725-0.141c0.127,0.013,2.017-0.035,2.146-0.026c0.226,0.015,2.172-0.106,2.172-0.106
			S1028.501,14.374,1027.759,14.007z"/>
	</g>
</g>
</svg>
