<?xml version="1.0" encoding="utf-8"?>
<!-- Generator: Adobe Illustrator 17.0.0, SVG Export Plug-In . SVG Version: 6.00 Build 0)  -->
<!DOCTYPE svg PUBLIC "-//W3C//DTD SVG 1.1//EN" "http://www.w3.org/Graphics/SVG/1.1/DTD/svg11.dtd">
<svg version="1.1" id="Layer_1" xmlns="http://www.w3.org/2000/svg" xmlns:xlink="http://www.w3.org/1999/xlink" x="0px" y="0px"
	 width="1280.326px" height="1381.845px" viewBox="0 0 1280.326 1381.845" enable-background="new 0 0 1280.326 1381.845"
	 xml:space="preserve">
<g>
	
		<linearGradient id="SVGID_1_" gradientUnits="userSpaceOnUse" x1="9077.043" y1="1381.8452" x2="9077.043" y2="308.076" gradientTransform="matrix(-1 0 0 1 9717.043 0)">
		<stop  offset="0" style="stop-color:#042633"/>
		<stop  offset="0.1444" style="stop-color:#081E2E"/>
		<stop  offset="0.5699" style="stop-color:#0E162B"/>
		<stop  offset="1" style="stop-color:#0F152E"/>
	</linearGradient>
	<path fill="url(#SVGID_1_)" d="M-1,329.125c0,0,83.491-19.609,112.361-20.378c25.918-0.69,67.694-3.091,103.341,8.716
		c104.115,34.485,347.358,9.908,436.887,29.423c38.065,8.297,207.914-23.614,211.779-27.42c5.422-5.339,76.143,9.137,97.463,12.183
		c103.725,14.818,126.309-0.814,164.018,10.715C1176.987,358.306,1281,321.192,1281,321.192v1060.654H-1V329.125z"/>
	<g>
		<linearGradient id="SVGID_2_" gradientUnits="userSpaceOnUse" x1="263.5768" y1="-1.165972e-08" x2="263.5768" y2="369.7085">
			<stop  offset="0" style="stop-color:#042633"/>
			<stop  offset="0.1444" style="stop-color:#081E2E"/>
			<stop  offset="0.5699" style="stop-color:#0E162B"/>
			<stop  offset="1" style="stop-color:#0F152E"/>
		</linearGradient>
		<path fill="url(#SVGID_2_)" d="M-1,1.065c6.477-2.926,11.705,0.97,20.132,2.214c9.014,1.331,27.214,5.954,34.684,11.14
			c4.894,3.398,8.779,18.033,14.712,18.693c5.901,0.657,12.815-12.937,18.409-14.916c4.617-1.633,14.881-1.305,19.603,0
			c6.457,1.784,16.926,10.856,22.962,13.753c4.142,1.988,12.711,5.585,17.238,6.398c4.578,0.822,14.199-1.471,18.61,0
			c4.66,1.554,12.298,8.243,15.682,11.786c8.823,9.236,18.347,34.737,28.751,42.173c4.405,3.148,16.3,2.94,20.91,5.786
			c4.145,2.559,10.492,10.302,13.024,14.447c4.87,7.973,11.564,25.732,13.247,34.907c2.417,13.173-3.41,40.607,0,53.562
			c1.589,6.038,9.634,16.713,12.479,22.512c2.438,4.968-20.463,2.821-20.455,8.348c0.01,7.152,20.808,7.036,26.272,11.689
			c4.139,3.524,7.065,15.596,11.853,18.183c1.96,1.059,6.7-0.199,8.922,0c7.276,0.652,21.667,3.419,28.751,5.195
			c8.197,2.055,25.505,5.206,32.157,10.39c3.63,2.829,6.244,12.577,9.726,15.586c3.662,3.165,13.807,4.992,17.757,7.793
			c5.439,3.856,12.249,16.392,18.163,19.482c8.026,4.194,26.998,3.451,35.895,5.195c7.93,1.555,23.726,5.168,31.365,7.793
			c6.804,2.338,19.856,8.47,26.285,11.689c4.759,2.383,33.318,19.721,31.974,24.847L-1,369.703V1.065z"/>
		<linearGradient id="SVGID_3_" gradientUnits="userSpaceOnUse" x1="22.8173" y1="56.6197" x2="65.5419" y2="31.9526">
			<stop  offset="0.2229" style="stop-color:#0E162B"/>
			<stop  offset="1" style="stop-color:#042635"/>
		</linearGradient>
		<path opacity="0.5" fill="url(#SVGID_3_)" d="M1.167,6.6c-1.575,3.547-0.035,11.815,2.145,15.374
			c1.89,3.086,10.258,23.155,24.296,32.477s23.597,7.138,35.707,15.716c9.037,6.401,15.71,11.506,17.288,13.691
			c12.366,17.117-7.196-39.719-9.716-42.574c-3.775-4.277-14.382-22.771-17.554-26.4c-2.878-3.293-24.328-0.919-33.33-2.328
			C17.398,12.147,7.696,2.421,3.79,2.421C1.117,2.421,2.796,2.934,1.167,6.6z"/>
		<linearGradient id="SVGID_4_" gradientUnits="userSpaceOnUse" x1="158.1028" y1="146.7715" x2="219.1015" y2="85.7729">
			<stop  offset="0.2229" style="stop-color:#0E162B"/>
			<stop  offset="1" style="stop-color:#042635"/>
		</linearGradient>
		<path opacity="0.5" fill="url(#SVGID_4_)" d="M89.838,25.593c0,0,6.601,4.992,9.824,6.333
			c9.006,3.747,19.477,14.153,28.788,15.643c6.003,0.96,7.313,3.357,13.275,11.314c1.497,1.998,14.746,11.596,14.942,5.793
			c0.259-7.635-2.566-14.615,2.967-8.959c3.283,3.356,8.498,15.976-2.885,21.161c-4.987,2.271-23.194,1.455-27.273,5.1
			c-2.537,2.268-6.661,9.2-6.236,17.59c0.285,5.616,10.797-9.779,16.354-10.836c3.75-0.713,17.44-3.045,21.206-2.424
			c3.974,0.655,24.778,20.118,28.455,23.715c2.575,2.519-17.561-6.31-20.369-4.049c-3.957,3.188-13.679-0.488-15.031,4.393
			c-1.587,5.73,4.775,8.08,7.958,26.212c0.861,4.903,1.268,14.33,6.139,20.033c3.67,4.297,4.376-22.331,6.976-17.322
			c4.276,8.241,18.886,21.233,24.85,25.388c3.317,2.311,8.446-3.823,12.221-2.362c4.823,1.867,21.21,23.622,25.121,26.99
			c7.992,6.882,35.626,44.119,31.571,34.413c-4.377-10.479-14.475-22.042-15.955-27.665c-3.175-12.064-2.31-37.828-4.561-50.096
			c-1.403-7.649-2.449-23.433-6.303-30.2c-2.664-4.678-6.333-15.543-11.203-17.881c-4.19-2.012-22.267-0.731-26.289-3.057
			c-6.319-3.656-17.141-26.134-21.431-32.019c-6.061-8.315-10.654-21.639-16.78-24.303c-2.773-1.206-16.38,6.629-20.643,5.86
			c-5.527-0.997-15.781-6.039-20.241-9.432c-7.367-5.606-14.068-16.098-16.94-16.089C106.421,18.845,93.065,22.386,89.838,25.593z"
			/>
		<linearGradient id="SVGID_5_" gradientUnits="userSpaceOnUse" x1="252.1569" y1="321.4659" x2="415.4928" y2="227.1639">
			<stop  offset="0.2229" style="stop-color:#0E162B"/>
			<stop  offset="1" style="stop-color:#042635"/>
		</linearGradient>
		<path opacity="0.5" fill="url(#SVGID_5_)" d="M189.527,211.709c7.15-1.724,22.997-2.233,27.957-0.376
			c9.342,3.498,25.199,16.136,34.027,20.769c5.816,3.052,19.018,6.431,24.013,10.684c4.139,3.524,7.162,15.426,11.853,18.183
			c3.2,1.881,7.455,0.139,11.143,0.603c5.758,0.725,20.902,3.181,26.53,4.592c8.197,2.055,25.505,5.206,32.157,10.39
			c3.63,2.829,6.244,12.577,9.726,15.586c3.662,3.165,13.807,4.992,17.757,7.793c5.439,3.856,12.249,16.392,18.162,19.482
			c7.385,3.859,24.829,3.228,33.025,4.78c5.423,1.026,27.941,6.236,42.351,12.115c4.838,1.974-30.755-0.945-40.453,0.211
			c-5.533,0.66-23.954,5.12-29.522,4.917c-5.74-0.209-6.55-7.243-12.267-6.697c-2.556,0.244-7.021,0.209-9.532,0.744
			c-2.976,0.635-9.007,0.584-11.623-0.963c-2.004-1.185-12.721-0.733-11.865-2.888c0.883-2.225,18.294-0.296,16.304-1.64
			c-9.553-6.452-24.293-6.935-31.788-10.679c-9.368-4.681-25.933-17.694-34.478-23.732c-5.571-3.937-15.369-14.77-22.089-16.019
			c-2.277-0.423-3.554,1.801-5.869,1.712c-13.802-0.528-28.469-7.725-29.698-15.358c-0.528-3.28,15.262-4.85,12.396-6.559
			c-6.124-3.652-9.75-11.584-12.396-13.613c-6.756-5.181-24.541-8.961-30.699-14.833c-3.18-3.032-1.103-8.729-4.994-10.785
			c-2.649-1.399-12.516-2.353-15.304-3.455C201.597,215.584,185.965,212.568,189.527,211.709z"/>
		<linearGradient id="SVGID_6_" gradientUnits="userSpaceOnUse" x1="-1" y1="160.8455" x2="101.6489" y2="160.8455">
			<stop  offset="0" style="stop-color:#0E0F22"/>
			<stop  offset="0.0065" style="stop-color:#0E1023"/>
			<stop  offset="0.1187" style="stop-color:#0E1429"/>
			<stop  offset="0.2384" style="stop-color:#0E162B"/>
			<stop  offset="0.5387" style="stop-color:#0F1328"/>
			<stop  offset="1" style="stop-color:#0F1026"/>
		</linearGradient>
		<path opacity="0.2" fill="url(#SVGID_6_)" d="M-1,90.355c0,0,0.978,0.084,2.158-1.363c2.551-3.127,3.185-0.702,4.977-4.319
			c1.598-3.226,7.893-8.232,11.471-8.77c2.428-0.365,8.395,1.093,9.208,3.396c0.681,1.932-3.561,5.087-4.244,7.019
			c-1.704,4.82-1.532,15.288-2.758,20.25c-1.4,5.669-6.974,16.208-7.988,21.957c-0.322,1.827-1.676,6.604,0,7.421
			c4.791,2.337,13.217-9.003,17.364-12.341c2.468-1.986,6.782-6.699,9.376-8.519c6.252-4.386,19.661-12.22,27.026-14.286
			c4.653-1.306,14.621-2.379,19.304-1.182c4.11,1.05,16.932,14.354,16.752,18.568c-0.149,3.485-11.455-3.928-14.864-3.099
			c-4.362,1.06-13.788-1.644-17.962,0c-4.214,1.659-12.099,7.975-13.211,12.342c-0.713,2.799,1.768,8.771,3.659,10.963
			c2.568,2.977,12.997,3.374,14.044,7.155c1.033,3.731-6.119,9.889-8.273,13.112c-4.215,6.307-13.155,18.575-17.519,24.781
			c-7.229,10.281-15.419,53.311-25.786,60.466C14.706,248.756-1,242.974-1,242.974V90.355z"/>
		<linearGradient id="SVGID_7_" gradientUnits="userSpaceOnUse" x1="96.6825" y1="281.7396" x2="254.6552" y2="281.7396">
			<stop  offset="0.2384" style="stop-color:#0E162B"/>
			<stop  offset="0.5433" style="stop-color:#0F1228"/>
			<stop  offset="1" style="stop-color:#0F1026"/>
		</linearGradient>
		<path opacity="0.1" fill="url(#SVGID_7_)" d="M148.709,236.772c4.159,3.854,16.026,9.755,21.355,7.782
			c3.095-1.146,6.15-8.21,6.404-11.482c0.174-2.24-4.412-6.593-3.119-8.435c1.332-1.897,7.347-1.244,9.309,0
			c6.021,3.816,10.878,18.738,12.046,25.739c1.053,6.306-2.138,19.06-2.738,25.425c-0.862,9.143-6.441,28.104-2.965,36.613
			c1.329,3.253,7.148,9.838,10.631,9.251c4.189-0.706,4.736-12.521,8.379-14.693c4.624-2.757,16.226,0.226,21.562-0.544
			c5.211-0.752,15.734-7.982,20.338-5.442c3.376,1.863,5.52,10.998,4.477,14.693c-0.942,3.34-8.095,6.65-10.404,9.251
			c-2.643,2.977-8.743,9.105-9.089,13.06c-0.3,3.432,4.696,9.252,5.804,12.516c0.807,2.377,6.128,19.202,6.128,19.202h-98.992
			c0,0,7.74-23.924,6.348-28.264c-1.672-5.212-13.319-9.718-17.522-13.249c-4.586-3.852-13.812-11.634-17.522-16.326
			c-4.469-5.652-11.832-18.253-14.237-25.033c-4.197-11.834-8.428-36.976-8.214-49.521c0.118-6.94,2.728-20.845,5.476-27.227
			c1.97-4.577,6.507-16.718,11.499-16.308c3.478,0.286,5.596,9.074,6.023,12.516c0.842,6.779-6.008,19.965-5.476,26.775
			c0.913,11.69,8.547,35.242,16.427,43.97c3.066,3.396,11.889,8.857,16.427,8.163c2.259-0.345,6.304-4.063,6.571-6.319
			c0.387-3.267-6.654-7.838-7.118-11.095c-0.34-2.387,3.031-6.858,2.738-9.251c-0.492-4.019-7.365-10.026-8.214-13.985
			c-1.049-4.899-2.788-19.137,2.19-19.917C146.538,224.119,146.262,234.505,148.709,236.772z"/>
	</g>
	<g>
		<g>
			<linearGradient id="SVGID_8_" gradientUnits="userSpaceOnUse" x1="1204.97" y1="1.1064" x2="1204.97" y2="372.6399">
				<stop  offset="0" style="stop-color:#042633"/>
				<stop  offset="0.1444" style="stop-color:#081E2E"/>
				<stop  offset="0.5699" style="stop-color:#0E162B"/>
				<stop  offset="1" style="stop-color:#0F152E"/>
			</linearGradient>
			<path fill="url(#SVGID_8_)" d="M1281,1.106c0,0-29.226,12.246-37.271,31.094c-3.077,7.207-10.803,13.99-13.451,32.269
				c-3.609,24.912-1.816,62.659-3.183,73.241c-1.446,11.19-10.531,42.981-9.253,54.191c1.863,16.342,14.81,64.117,14.81,64.117
				s-18.221,15.309-24.113,15.298c-12.675-0.022-34.896-13.393-44.124-4.757c-7.766,7.268-15.468,27.948-19.126,37.906
				c-6.013,16.371-16.348,67.469-16.348,67.469L1281,372.64V1.106z"/>
			<linearGradient id="SVGID_9_" gradientUnits="userSpaceOnUse" x1="1247.2548" y1="156.3916" x2="1281" y2="156.3916">
				<stop  offset="0.2384" style="stop-color:#0E162B"/>
				<stop  offset="0.5433" style="stop-color:#0F1228"/>
				<stop  offset="1" style="stop-color:#0F1026"/>
			</linearGradient>
			<path fill="url(#SVGID_9_)" d="M1281,243.247c0,0-17.083-5.387-21.045-9.071c-4.705-4.374-12.268-15.905-12.685-22.295
				c-0.428-6.57,8.143-18.072,9.957-24.404c2.504-8.746,6.178-26.76,6.166-35.853c-0.011-8.52-6.401-25.076-5.863-33.58
				c0.559-8.84,6.225-40.435,16.49-48.241c2.58-1.962,6.98,7.531,6.98,7.531V243.247z"/>
			<linearGradient id="SVGID_10_" gradientUnits="userSpaceOnUse" x1="1157.0564" y1="321.1405" x2="1248.2435" y2="321.1405">
				<stop  offset="0.2384" style="stop-color:#0E162B"/>
				<stop  offset="0.5433" style="stop-color:#0F1228"/>
				<stop  offset="1" style="stop-color:#0F1026"/>
			</linearGradient>
			<path opacity="0.5" fill="url(#SVGID_10_)" d="M1187.088,295.301c2.401,2.224,9.251,5.631,12.327,4.492
				c1.786-0.661,3.55-4.739,3.697-6.628c0.1-1.293-2.547-3.805-1.8-4.869c0.769-1.095,4.241-0.718,5.373,0
				c3.475,2.203,6.279,10.816,6.954,14.858c0.608,3.64-1.234,11.002-1.58,14.676c-0.498,5.277-3.718,16.223-1.711,21.134
				c0.767,1.878,4.126,5.679,6.136,5.34c2.418-0.408,2.734-7.228,4.837-8.481c2.669-1.591,9.366,0.13,12.447-0.314
				c3.008-0.434,9.083-4.608,11.74-3.141c1.949,1.075,3.186,6.348,2.584,8.481c-0.544,1.928-4.672,3.839-6.005,5.34
				c-1.526,1.718-5.047,5.256-5.247,7.539c-0.173,1.981,2.711,5.34,3.35,7.225c0.466,1.372,3.612,10.849,3.612,10.849l-57.204-0.099
				c0,0,4.456-13.476,3.652-15.981c-0.965-3.009-7.688-5.609-10.114-7.648c-2.647-2.224-7.973-6.715-10.114-9.424
				c-2.58-3.263-6.83-10.536-8.218-14.45c-2.423-6.831-4.865-21.344-4.741-28.585c0.068-4.006,1.575-12.033,3.161-15.716
				c1.137-2.642,3.756-9.65,6.638-9.413c2.008,0.165,3.23,5.238,3.477,7.225c0.486,3.913-3.468,11.524-3.161,15.455
				c0.527,6.748,4.934,20.343,9.482,25.381c1.77,1.96,6.863,5.112,9.482,4.712c1.304-0.199,3.639-2.345,3.793-3.647
				c0.223-1.886-3.841-4.524-4.109-6.405c-0.196-1.378,1.75-3.959,1.58-5.34c-0.284-2.32-4.252-5.787-4.741-8.073
				c-0.606-2.828-1.609-11.046,1.264-11.497C1185.835,287.998,1185.675,293.992,1187.088,295.301z"/>
			
				<linearGradient id="SVGID_11_" gradientUnits="userSpaceOnUse" x1="-748.1343" y1="-2001.891" x2="-715.6246" y2="-2034.4008" gradientTransform="matrix(0.8047 0.5937 -0.5937 0.8047 640.2523 2244.3379)">
				<stop  offset="0.2229" style="stop-color:#0E162B"/>
				<stop  offset="1" style="stop-color:#042635"/>
			</linearGradient>
			<path opacity="0.5" fill="url(#SVGID_11_)" d="M1237.174,114.004c0,0,1.328,4.511,2.351,6.211
				c2.856,4.749,4.116,13.047,7.881,16.862c2.427,2.46,2.212,4,2.237,9.657c0.006,1.421,2.816,10.281,4.883,7.685
				c2.719-3.416,3.801-7.569,4.413-3.113c0.363,2.644-1.543,10.189-8.532,8.739c-3.062-0.635-11.138-7.136-14.251-6.835
				c-1.937,0.187-6.19,1.981-8.852,5.973c-1.782,2.673,8.285-0.855,11.195,0.53c1.963,0.935,9.039,4.47,10.556,6.022
				c1.6,1.637,4.864,6.934,5.326,9.821c0.324,2.022-8.739-4.411-10.797-4.318c-2.901,0.131-3.627,1.414-5.91,3.199
				c-2.68,2.095-0.561,5.314-5.277,14.704c-1.275,2.539-4.299,7.002-4.007,11.257c0.22,3.206,9.614-8.774,9.101-5.601
				c-0.845,5.22-4.281,19.639-2.96,23.552c0.735,2.176,6.201,3.511,7.435,5.452c1.577,2.479,1.61,8.653,2.257,11.514
				c1.323,5.847,4.52,29.043,5.966,23.225c1.561-6.281,0.413-10.077,1.649-13.155c2.652-6.604,13.844-16.501,16.99-22.887
				c1.962-3.982,5.021-12.64,5.558-17.041c0.371-3.042,0.309-9.568-1.129-12.279c-1.237-2.333-6.052-6.457-7.105-8.878
				c-1.654-3.803,1.037-17.758,1.073-21.901c0.051-5.855,0.706-14.05-1.197-17.333c-0.862-1.486-7.998-1.931-9.692-3.718
				c-2.196-2.317-5.184-8.08-6.075-11.137c-1.471-5.051-0.972-12.119-2.292-13.081
				C1247.082,116.486,1239.748,113.618,1237.174,114.004z"/>
		</g>
		<linearGradient id="SVGID_12_" gradientUnits="userSpaceOnUse" x1="1269.0588" y1="169.7965" x2="1281" y2="169.7965">
			<stop  offset="0" style="stop-color:#0E0F22"/>
			<stop  offset="0.0065" style="stop-color:#0E1023"/>
			<stop  offset="0.1187" style="stop-color:#0E1429"/>
			<stop  offset="0.2384" style="stop-color:#0E162B"/>
			<stop  offset="0.5387" style="stop-color:#0F1328"/>
			<stop  offset="1" style="stop-color:#0F1026"/>
		</linearGradient>
		<path fill="url(#SVGID_12_)" d="M1281,90.006c0,0-5.831,8.302-6.634,11.379c-5.072,19.42-6.876,60.363-3.793,80.196
			c0.777,4.998,6.329,13.958,7.044,18.965c1.066,7.462-2.844,22.566-2.167,30.074c0.439,4.876,5.551,18.965,5.551,18.965V90.006z"/>
	</g>
	<linearGradient id="SVGID_13_" gradientUnits="userSpaceOnUse" x1="-1" y1="160.3368" x2="18.3867" y2="160.3368">
		<stop  offset="0.2384" style="stop-color:#0E162B"/>
		<stop  offset="0.5433" style="stop-color:#0F1228"/>
		<stop  offset="1" style="stop-color:#0F1026"/>
	</linearGradient>
	<path fill="url(#SVGID_13_)" d="M-1,77.699c0,0,7.021,13.111,7.767,17.833c1.405,8.892-2.547,26.967-2.013,35.953
		c0.221,3.717,0.725,11.445,2.589,14.669c1.737,3.005,9.52,5.632,10.642,8.916c2.07,6.059-4.463,18.699-5.465,25.023
		c-2.046,12.918-3.17,39.136-5.177,52.06c-0.372,2.397-0.329,7.746-2.013,9.492C4.375,242.633-1,242.974-1,242.974V77.699z"/>
</g>
</svg>
