<?xml version="1.0" encoding="utf-8"?>
<!-- Generator: Adobe Illustrator 17.0.0, SVG Export Plug-In . SVG Version: 6.00 Build 0)  -->
<!DOCTYPE svg PUBLIC "-//W3C//DTD SVG 1.1//EN" "http://www.w3.org/Graphics/SVG/1.1/DTD/svg11.dtd">
<svg version="1.1" id="Layer_1" xmlns="http://www.w3.org/2000/svg" xmlns:xlink="http://www.w3.org/1999/xlink" x="0px" y="0px"
	 width="1280.113px" height="530.544px" viewBox="0 0 1280.113 530.544" enable-background="new 0 0 1280.113 530.544"
	 xml:space="preserve">
<g>
	<g>
		<g>
			<g>
				
					<linearGradient id="SVGID_1_" gradientUnits="userSpaceOnUse" x1="10116.8896" y1="-395" x2="10116.8896" y2="135.5441" gradientTransform="matrix(-1 0 0 -1 10756.8896 135.544)">
					<stop  offset="0.4026" style="stop-color:#31154E"/>
					<stop  offset="0.5079" style="stop-color:#351953"/>
					<stop  offset="0.5941" style="stop-color:#46276A"/>
					<stop  offset="0.6697" style="stop-color:#5C2E79"/>
					<stop  offset="1" style="stop-color:#D75264"/>
				</linearGradient>
				<path fill="url(#SVGID_1_)" d="M-1,18.544c10.845,0,17.536-6.535,28.381-10.15c3.926,6.02,9.103,9.652,15.024,11.563
					c21.339,6.888,52.347-8.576,69.325-15.178c14.46-4.82,19.28-7.23,34.945-1.205c10.845,3.615,24.1,15.665,28.92,0
					c13.255,3.615,49.405,12.05,57.84-1.205c15.665,0,30.125,7.23,45.79,7.23c3.615-20.485,34.945,0,48.2,3.615h9.64
					c7.23,12.05,36.15,10.845,49.405,14.46c8.435,2.41,19.28,8.435,27.715,7.23c6.025-1.205,30.744,2.953,30.744,2.953
					s7.43,8.905,18.275,10.11c13.255,1.205,20.219-2.722,20.219-2.722s18.38,10.885,40.081,25.908
					c7.23-2.41,17.206-0.099,17.206-0.099s12.05,10.845,16.87,12.05c8.435,2.41,31.33-7.23,39.765-9.64
					c20.485-6.025,28.92-15.665,45.79-28.92c9.64-8.435,8.435-8.435,19.28-13.255c9.64-3.615,16.87-1.205,22.895-9.64
					c12.05,14.46,18.075-3.615,27.715-7.23c13.255-4.82,16.87,3.615,28.92-10.845c13.255,9.64,27.715,19.28,42.175,26.51
					c9.64,3.615,18.075,6.025,27.715,10.845c9.64,3.615,20.485,14.46,30.125,16.87c14.46,4.82,33.74-2.41,46.995-7.23
					c7.23-2.41,15.665-4.82,22.895-7.23c4.82-2.41,10.845-12.05,14.46-12.05c8.435,1.205,32.535,21.69,40.97,26.51
					c18.075,9.64,20.485,12.05,40.97,10.845c16.87-1.205,30.125,2.41,46.995,8.435c16.87,4.82,24.1,4.82,39.765,14.46
					c5.147,3.241,19.79,2.853,19.79,2.853s69.326-40.688,98.742-39.674c19.485,0,42.401-38.978,42.401-38.978L1281,18.544v512H-1
					V18.544z"/>
			</g>
			<g opacity="0.4">
				
					<linearGradient id="SVGID_2_" gradientUnits="userSpaceOnUse" x1="9134.7383" y1="2145.614" x2="9254.9951" y2="2145.614" gradientTransform="matrix(-0.9496 0.3136 -0.3136 -0.9496 10572.0078 -769.9396)">
					<stop  offset="0" style="stop-color:#381D58"/>
					<stop  offset="1" style="stop-color:#5C2E79"/>
				</linearGradient>
				<path fill="url(#SVGID_2_)" d="M1223.67,52.648c-2.65,0.5-6.425,2.267-10.248,2.861c-3.509,0.546-7.086-0.093-9.26,0.624
					c-5.084,2.039-23.216,8.984-28.085,11.672c-9.739,5.375-49.013,28.777-64.151,29.979c4.533,1.741,48.888-14.21,53.32-14.954
					c3.783-0.53,13.921-1.83,17.168-3.982c2.381-1.506,4.548-3.661,7.036-4.842c3.354-1.827,5.622-1.497,8.974-2.244
					c6.596-1.818,9.925-4.942,14.073-9.684C1213.771,60.62,1223.67,52.648,1223.67,52.648z"/>
			</g>
			<g opacity="0.4">
				
					<linearGradient id="SVGID_3_" gradientUnits="userSpaceOnUse" x1="9748.3076" y1="41.322" x2="9769.5576" y2="78.1273" gradientTransform="matrix(-1 0 0 -1 10756.8896 135.544)">
					<stop  offset="0.4211" style="stop-color:#381D58"/>
					<stop  offset="1" style="stop-color:#5C2E79"/>
				</linearGradient>
				<path fill="url(#SVGID_3_)" d="M1033.966,70.804c-4.943-1.307-11.199-2.232-17.189-2.363
					c-5.851-0.128-12.619,0.581-15.732,0.623c-6.149,0.082-16.37-1.267-22.166-5.064c2.733,5.467,12.854,8.499,16.954,12.257
					c-6.492,3.417-11.275,3.075-18.449,3.075c-2.733,0-4.783,0-7.175-0.683c-3.758-0.683-8.541-5.125-11.958-4.442
					c1.025,3.758,8.2,4.442,11.275,6.491c2.733,1.708,4.442,4.442,6.833,6.15c5.466,3.758,10.25,6.833,15.033,11.275
					c4.783,4.783,5.466,4.1,8.541-1.708c2.392-4.1,1.708-5.467,2.392-9.908c0.683-4.442,1.367-4.442,5.125-7.175
					c5.808-3.758,11.563-3.511,16.855-8.045C1025.263,70.464,1033.966,70.804,1033.966,70.804z"/>
			</g>
			<g opacity="0.4">
				
					<linearGradient id="SVGID_4_" gradientUnits="userSpaceOnUse" x1="9696.9834" y1="43.6261" x2="9696.9834" y2="54.756" gradientTransform="matrix(-1 0 0 -1 10756.8896 135.544)">
					<stop  offset="0.4211" style="stop-color:#381D58"/>
					<stop  offset="1" style="stop-color:#5C2E79"/>
				</linearGradient>
				<path fill="url(#SVGID_4_)" d="M1071.886,81.662c-4.442,0.342-6.143-0.533-10.243-0.874c-2.392,2.05-10.642,8-13.717,10.733
					c6.833,1.708,13.666-2.733,19.816-1.367"/>
			</g>
			<g opacity="0.4">
				
					<linearGradient id="SVGID_5_" gradientUnits="userSpaceOnUse" x1="9831.0781" y1="-17.447" x2="9831.0781" y2="33.801" gradientTransform="matrix(-1 0 0 -1 10756.8896 135.544)">
					<stop  offset="0" style="stop-color:#381D58"/>
					<stop  offset="1" style="stop-color:#5C2E79"/>
				</linearGradient>
				<path fill="url(#SVGID_5_)" d="M968.689,114.042c-4.783,6.15-11.616,11.275-17.083,16.4c-2.733,2.392-9.566,11.275-10.25,5.125
					c0-0.342,2.05-4.783,2.05-5.467c0.683-1.708,1.367-3.417,2.05-5.125c-3.417,1.708-7.858,4.1-10.591,0
					c-4.783,5.467-5.808,4.442-11.616,7.175c-4.442,2.392-7.858,6.15-12.641,8.2c-9.225,4.1-19.816,6.15-27.674,12.641
					c0.683-9.225,20.841-18.791,28.699-22.891c0.342-0.683,1.025-3.075,1.367-4.1c-4.442-1.025-8.541,1.367-12.641,2.733
					c0.683-2.392,3.075-4.442,4.442-6.491c-4.442-3.075-11.275,1.025-16.058,0.683c6.833-4.783,19.133-5.808,26.991-7.516
					c10.591-2.392,19.816-9.225,29.383-13.666c0.342,3.075-9.225,6.15-10.25,11.275c2.05,0.342,4.1-0.683,6.15-0.342
					c2.733,0.342,4.783,3.075,7.516,3.417c4.442,0.342,10.25-4.442,15.033-4.442"/>
			</g>
			<g opacity="0.4">
				
					<linearGradient id="SVGID_6_" gradientUnits="userSpaceOnUse" x1="9893.2568" y1="29.871" x2="9893.2568" y2="92.235" gradientTransform="matrix(-1 0 0 -1 10756.8896 135.544)">
					<stop  offset="0" style="stop-color:#381D58"/>
					<stop  offset="1" style="stop-color:#5C2E79"/>
				</linearGradient>
				<path fill="url(#SVGID_6_)" d="M911.937,43.309c-14.008,8.541-25.887,21.707-36.478,34.006
					c-13.325,15.375-36.557,19.474-54.665,25.966c-2.392,0.683-3.758,0-5.466,2.392c1.708-9.566,13.325-9.566,21.183-12.641
					c9.908-3.758,16.058-7.858,22.549-16.058c5.466-6.833,12.983-8.2,18.791-14.008c5.466-5.125,7.693-7.95,13.159-13.075"/>
			</g>
			<g opacity="0.4">
				
					<linearGradient id="SVGID_7_" gradientUnits="userSpaceOnUse" x1="9859.4951" y1="38.161" x2="9859.4951" y2="85.623" gradientTransform="matrix(-1 0 0 -1 10756.8896 135.544)">
					<stop  offset="0" style="stop-color:#381D58"/>
					<stop  offset="1" style="stop-color:#5C2E79"/>
				</linearGradient>
				<path fill="url(#SVGID_7_)" d="M927.232,49.921c-4.442,4.1-8.761,16.377-13.544,19.452c-2.05,1.025-6.499,2.386-7.866,4.095
					c-1.708,2.05-0.928,2.752-3.661,4.118c-1.367,0.683-3.513,1.006-4.538,1.348c-1.367,1.025-1.367,2.392-2.05,2.733
					c-2.05,1.708-4.1,3.417-6.833,4.783c-6.833,3.758-13.666,8.883-21.183,10.933c0-4.783,8.541-6.833,4.783-11.275
					c3.417-0.342,6.492-1.708,7.858-5.125c-0.683-0.342-1.367-1.367-2.05-1.708c3.075-3.417,12.641-6.15,9.225-11.958
					c8.541-2.733,19.708-13.426,28.933-14.451"/>
			</g>
			<g opacity="0.4">
				
					<linearGradient id="SVGID_8_" gradientUnits="userSpaceOnUse" x1="10037.7773" y1="99.884" x2="10037.7773" y2="121.0463" gradientTransform="matrix(-1 0 0 -1 10756.8896 135.544)">
					<stop  offset="0" style="stop-color:#381D58"/>
					<stop  offset="1" style="stop-color:#5C2E79"/>
				</linearGradient>
				<path fill="url(#SVGID_8_)" d="M725.946,19.944c4.783,1.708,6.492,11.616,7.516,15.716c-4.442-1.708-8.541-6.491-13.325-8.883
					c-4.442-2.392-10.591-4.442-15.375-4.1c3.758-5.467,6.833-9.908,13.666-7.516"/>
			</g>
			<g opacity="0.4">
				
					<linearGradient id="SVGID_9_" gradientUnits="userSpaceOnUse" x1="10002.8594" y1="38.9" x2="10002.8594" y2="132" gradientTransform="matrix(-1 0 0 -1 10756.8896 135.544)">
					<stop  offset="0" style="stop-color:#381D58"/>
					<stop  offset="1" style="stop-color:#5C2E79"/>
				</linearGradient>
				<path fill="url(#SVGID_9_)" d="M741.998,3.544c6.749,5.288,15.383,10.684,20.198,14.047c1.173,0.819,1.636,9.013,4.028,13.113
					c1.367,2.05,2.392,2.392,2.733,5.467c0.683,4.1-1.025,7.858,0.342,11.958c1.025,2.733,2.733,4.442,4.1,6.833
					c2.05,3.417,3.417,7.175,3.417,10.933c-5.125-5.467-9.225-11.616-13.325-18.108c-2.05-3.417-5.466-11.958-9.566-12.641
					c0.342,1.367,0,3.075,0.683,4.783c-0.683-0.342-2.733,0-3.417-0.342c1.367,16.741,18.791,29.041,14.008,47.149
					c-0.683-0.683-1.708-1.367-2.392-2.05c-1.367,3.417-1.025,8.2-2.392,11.958c-1.367-3.758-1.025-8.541-2.392-12.641
					c-1.708-5.125-4.783-10.25-6.833-15.716c-2.392-6.833-6.15-12.983-9.225-19.816c-1.18-2.162-4.29-18.101-7.691-27.092
					c-2.51-6.635-3.525-7.699-2.8-9.44c0,0,2.601-0.946,4.532-2.404C737.561,8.361,741.998,3.544,741.998,3.544z"/>
			</g>
			<g opacity="0.4">
				
					<linearGradient id="SVGID_10_" gradientUnits="userSpaceOnUse" x1="10081.4268" y1="36.6199" x2="10049.8232" y2="68.2236" gradientTransform="matrix(-1 0 0 -1 10756.8896 135.544)">
					<stop  offset="0.5398" style="stop-color:#381D58"/>
					<stop  offset="1" style="stop-color:#5C2E79"/>
				</linearGradient>
				<path fill="url(#SVGID_10_)" d="M689.214,49.469c2.05,2.733-0.342,8.2,3.758,7.516c0.342,3.417,0.342,4.442,2.392,7.516
					c2.733,4.1,6.491,4.1,5.125,9.566c-0.342,1.708-2.392,2.392-2.733,4.442c0,1.367,2.733,3.758,2.733,5.467
					c4.442-1.708,4.783,2.733,5.125,5.808c0.342,0.683,1.367,2.733,1.025,3.417c-1.025,2.733-1.708,0.342-3.075,1.367
					c-5.466,5.125-13.325,12.641-9.566,21.524l-1.025,0.342c-3.075-4.442-1.708-10.25-1.367-15.375
					c0.342-6.15-0.683-11.616-1.708-17.425c-1.025-4.783-5.125-17.766-2.733-20.499"/>
			</g>
			<g opacity="0.4">
				
					<linearGradient id="SVGID_11_" gradientUnits="userSpaceOnUse" x1="10029.4355" y1="13.295" x2="10029.4355" y2="48.2561" gradientTransform="matrix(-1 0 0 -1 10756.8896 135.544)">
					<stop  offset="0" style="stop-color:#381D58"/>
					<stop  offset="1" style="stop-color:#5C2E79"/>
				</linearGradient>
				<path fill="url(#SVGID_11_)" d="M749.832,99.016c-0.683-1.708-2.05-2.392-3.075-3.075c-0.342-0.342-4.783-3.758-5.808-4.1
					c-2.05-1.025-3.075,0.342-4.1,0c-2.392-0.683-4.1-1.708-6.833-2.733c-6.833-2.733-9.908-2.733-14.691,2.392
					c-3.075,3.075-7.858,7.175-10.25,11.275c4.1,0.683,7.516,2.733,10.933,3.758c-1.367,4.442-3.075,11.616,0.683,15.716
					c3.075-4.783,6.15-13.666,10.591-17.083c4.783-4.442,8.541-0.342,12.983-0.342"/>
			</g>
			<g opacity="0.5">
				
					<linearGradient id="SVGID_12_" gradientUnits="userSpaceOnUse" x1="10174.1104" y1="30.199" x2="10174.1104" y2="55.5268" gradientTransform="matrix(-1 0 0 -1 10756.8896 135.544)">
					<stop  offset="0" style="stop-color:#572262"/>
					<stop  offset="1" style="stop-color:#5A4090"/>
				</linearGradient>
				<path fill="url(#SVGID_12_)" d="M613.87,82.112c-4.1-0.683-10.25-2.392-13.666-2.05c-1.367,0-3.758,1.708-4.1,1.708
					c-3.758,0-7.175-2.05-11.275-1.708c-4.442,0.342-9.623,1.853-14.065,2.536c-2.05,0.342-4.382,1.384-6.774,1.384
					c-1.708,0.342-5.469,0.18-7.177-0.845c3.075,5.467,4.442,4.783,1.025,10.25c-2.05,3.758-4.1,7.516-6.15,11.958
					c4.442-5.125,11.958-5.467,17.766-7.175c4.783-1.708,7.516-5.467,12.3-6.833c6.15-1.708,12.983-2.392,19.133-1.708"/>
			</g>
			<g opacity="0.4">
				
					<linearGradient id="SVGID_13_" gradientUnits="userSpaceOnUse" x1="10217.4912" y1="37.2105" x2="10217.4912" y2="47.8161" gradientTransform="matrix(-1 0 0 -1 10756.8896 135.544)">
					<stop  offset="0" style="stop-color:#381D58"/>
					<stop  offset="1" style="stop-color:#5C2E79"/>
				</linearGradient>
				<path fill="url(#SVGID_13_)" d="M548.11,94.226c-5.125-7.175-10.591-8.2-16.741-4.1c0,0.342,0.683,1.367,1.025,1.708
					c-0.683,0.683-1.367,1.025-1.708,1.708c2.733,0.342,5.466-2.05,8.541-1.025c-1.025,3.417,1.708,7.858,5.125,4.783"/>
			</g>
			<g opacity="0.4">
				
					<linearGradient id="SVGID_14_" gradientUnits="userSpaceOnUse" x1="10273.1338" y1="75.5747" x2="10273.1338" y2="83.447" gradientTransform="matrix(-1 0 0 -1 10756.8896 135.544)">
					<stop  offset="0.5398" style="stop-color:#381D58"/>
					<stop  offset="1" style="stop-color:#5C2E79"/>
				</linearGradient>
				<path fill="url(#SVGID_14_)" d="M493.211,57.606c-3.417-2.05-14.468-7.685-17.543-4.61c3.075,2.392,0.683,4.783-1.367,6.833
					c3.758,0.683,7.175-1.367,10.933-1.025"/>
			</g>
			<g opacity="0.4">
				
					<linearGradient id="SVGID_15_" gradientUnits="userSpaceOnUse" x1="10382.6143" y1="79.3332" x2="10453.4229" y2="150.1418" gradientTransform="matrix(-1 0 0 -1 10756.8896 135.544)">
					<stop  offset="0" style="stop-color:#381D58"/>
					<stop  offset="1" style="stop-color:#5C2E79"/>
				</linearGradient>
				<path fill="url(#SVGID_15_)" d="M398.495,31.991c-6.419-0.856-7.407-0.611-12.874,1.097c-2.392,0.342-5.546-2.029-7.596-0.321
					c-4.442,4.783-1.407,3.165-9.948,3.165c-4.1,0-9.566,2.733-13.325,1.708c-4.1-0.683-6.833-4.783-10.591-5.467
					c-3.758-0.683-8.2-0.342-11.958-0.342c-5.808-0.342-8.541,0-12.641-3.417c-3.758-3.417-4.783-2.733-9.566-3.417
					c-10.591-2.05-20.499-11.616-30.749-15.375c11.275,2.733,23.916,2.05,34.849,6.15c10.25,3.758,19.816,6.833,30.749,8.2
					c14.008,2.392,29.464,7.675,43.13,4.942c0.683,0,3.423,0.662,4.106,0.662"/>
			</g>
			<g opacity="0.5">
				
					<linearGradient id="SVGID_16_" gradientUnits="userSpaceOnUse" x1="10606.375" y1="54.642" x2="10606.375" y2="113.3133" gradientTransform="matrix(-1 0 0 -1 10756.8896 135.544)">
					<stop  offset="0.3376" style="stop-color:#572262"/>
					<stop  offset="1" style="stop-color:#5A4090"/>
				</linearGradient>
				<path fill="url(#SVGID_16_)" d="M34.941,45.028c-8.541-3.758-3.354,0.28-12.237-2.112c-4.783-1.025-12.516-5.498-12.516-5.498
					s4.211,5.732,10.878,10.176c1.45,0.966,13.191,16.224,14.9,15.883c4.1-1.025,0.342-2.392,2.392-4.1
					c1.367-1.025,9.908-1.708,12.3-1.708l12.641-3.075c-0.342,0.342-0.683,0.683-1.025,1.367c5.808-2.392,17.766,9.908,21.183,3.758
					c2.733,0.683,6.833-2.05,8.883-1.708c2.392,0.342,4.783,3.758,7.175,5.125c4.783,2.392,17.083,5.808,22.208,3.417
					c-5.125-3.075,0.683-7.516,4.783-7.516c4.1-0.342,5.808,2.392,9.566,4.1c6.15,3.075,23.916,10.25,30.066,7.175
					c-2.392-4.1-15.375-7.858-13.325-13.325c3.075,0.342,6.15,1.367,9.566,1.708c1.708,0.342,3.075,0.683,4.783,0.683
					c3.417,0.342,4.783-1.025,6.833-1.708c1.708-0.342,5.467-0.683,6.833-1.367c2.733-1.708,1.367-4.1,3.075-5.467
					c2.392-2.05,6.15-1.025,9.225,0c17.766,4.1,35.191,12.641,52.957,16.058c0-0.342-0.342-0.683-0.342-1.025
					c10.591-5.467,23.574,11.275,33.482,15.033c-1.025-1.708-2.05-3.758-2.05-5.808c4.1-3.075,9.225,1.025,13.666,0
					c-2.05-2.392-6.15-4.1-9.225-6.491l-4.783-2.733c-8.541-2.05-17.424-4.1-25.966-5.808c-9.908-2.05-19.474-7.175-28.699-9.566
					c-8.883-2.05-19.133-3.075-28.358-5.125c-7.858-1.708-14.691-6.491-22.549-8.883c-4.1-1.025-6.833-2.05-10.933-4.1
					c-5.125-2.392-8.2-1.708-14.008-1.025c2.392,4.783-5.467,2.392-6.833,5.125c-1.708,4.1,9.566,7.516-1.367,7.516
					c-4.442,0-8.2-1.708-12.641-1.708c-5.125-0.342-8.883-0.342-14.008-1.708c-8.541-2.392-17.766-5.808-26.308-9.225
					c-8.883-3.075-16.4-10.591-26.308-8.883c-0.342,0-1.367,1.708-1.367,2.05c3.075,2.392,7.175,4.1,9.908,6.833
					c-1.708,1.367-3.758,2.392-5.125,3.758c1.025,1.708,3.417,3.417,4.783,4.783c-6.15,2.05-22.891,10.933-28.016,5.808
					L34.941,45.028z"/>
			</g>
			<g opacity="0.4">
				
					<linearGradient id="SVGID_17_" gradientUnits="userSpaceOnUse" x1="10710.7842" y1="24.822" x2="10710.7842" y2="51.348" gradientTransform="matrix(-1 0 0 -1 10756.8896 135.544)">
					<stop  offset="0" style="stop-color:#381D58"/>
					<stop  offset="1" style="stop-color:#5C2E79"/>
				</linearGradient>
				<path fill="url(#SVGID_17_)" d="M38.57,90.906c19.816-4.442,38.607,9.566,53.64,19.816c-6.833-2.392-14.008-4.1-21.183-6.491
					c-2.733-1.025-4.442-2.392-7.858-2.05c-1.025,0.342-3.758,2.733-3.417,2.733c-6.491,0.342-20.841-10.591-18.791,4.442
					c-5.808,0.342-14.008-6.15-18.791-9.225c-3.758-2.392-5.125-2.05-8.883-3.417c-4.1-1.708-11.567-9.188-11.567-9.188L0,84.196
					c7.175,1.025,7.138,2.269,14.654,1.927c6.15,0,8.883,2.05,15.033,4.1"/>
			</g>
			<g opacity="0.4">
				
					<linearGradient id="SVGID_18_" gradientUnits="userSpaceOnUse" x1="10517.9795" y1="13.644" x2="10517.9795" y2="37.2621" gradientTransform="matrix(-1 0 0 -1 10756.8896 135.544)">
					<stop  offset="0" style="stop-color:#381D58"/>
					<stop  offset="1" style="stop-color:#5C2E79"/>
				</linearGradient>
				<path fill="url(#SVGID_18_)" d="M231.735,98.326c5.125-0.342,6.15,1.367,9.908,3.075c6.15,3.417,12.983,5.467,19.474,8.2
					c5.125,2.733,10.25,4.442,16.058,5.808c3.075,0.683,13.325,2.733,14.35,6.491c-5.466-2.05-8.541-4.783-14.35-4.783
					c-3.075,0-12.641-2.733-12.983,1.367c-6.15-2.392-11.275-7.516-17.424-9.566c-2.733-1.025-12.3-4.442-9.225,1.367
					c-9.225,2.05-15.716,6.491-25.624,5.808c-4.442-0.342-9.225-2.733-13.666-2.392c-2.392,0.342-4.442,2.392-6.15,2.733
					c-2.05,0.342-3.417-1.025-5.808-0.683c3.417-3.417,7.175-4.442,10.933-6.833c4.442-2.733,3.758-2.05,8.883-1.708
					s12.3,1.708,15.375-2.733"/>
			</g>
			<g opacity="0.2">
				
					<linearGradient id="SVGID_19_" gradientUnits="userSpaceOnUse" x1="9790.8682" y1="18.1194" x2="9703.9736" y2="18.1194" gradientTransform="matrix(-1 0 0 -1 10756.8896 135.544)">
					<stop  offset="0.3376" style="stop-color:#572262"/>
					<stop  offset="1" style="stop-color:#5A4090"/>
				</linearGradient>
				<path fill="url(#SVGID_19_)" d="M1052.916,103.136c-10.057,7.241-21.321,10.057-31.781,16.896
					c-16.092,10.057-18.166,10.832-35.867,18.073c-0.402-0.805-18.845,6.467-19.247,6.064
					c10.057-10.862,23.333-15.689,32.988-24.942c4.023-3.621,4.023-8.85,8.046-13.276c4.827-6.034,12.069-12.069,18.908-15.287
					c0.805,13.276,9.655,11.264,20.115,11.264"/>
			</g>
			<g opacity="0.5">
				
					<linearGradient id="SVGID_20_" gradientUnits="userSpaceOnUse" x1="9863.8662" y1="78.743" x2="9789.9238" y2="78.743" gradientTransform="matrix(-1 0 0 -1 10756.8896 135.544)">
					<stop  offset="0" style="stop-color:#572262"/>
					<stop  offset="1" style="stop-color:#5A4090"/>
				</linearGradient>
				<path fill="url(#SVGID_20_)" d="M913.21,42.538l7.054-5.947c4.828-1.207,2.95-4.117,7.778-4.519
					c-0.805,0.805,8.494,4.904,9.701,4.904c-0.01,0.061,29.223,20.672,29.223,20.672c-7.241-2.011-24.458,7.388-30.09,11.009
					s-10.057,8.046-16.896,9.655c-6.437,1.609-13.276,2.011-19.712,3.218c0.805-4.828,6.437-5.23,10.057-7.241
					c5.632-3.218,9.655-8.448,13.678-12.471c3.727-3.727,4.328-9.461,5.019-14.505c-4.035,2.586-11.035,1.648-15.484,3.468
					c-5.23,2.011-19.679,7.185-20.081,13.22c-0.402,0-0.402,0-0.402,0C892.249,55.954,907.175,46.159,913.21,42.538z"/>
			</g>
			<g opacity="0.4">
				
					<linearGradient id="SVGID_21_" gradientUnits="userSpaceOnUse" x1="10069.6562" y1="42.0635" x2="10090.2842" y2="42.0635" gradientTransform="matrix(-1 0 0 -1 10756.8896 135.544)">
					<stop  offset="0.5398" style="stop-color:#381D58"/>
					<stop  offset="1" style="stop-color:#462564"/>
				</linearGradient>
				<path fill="url(#SVGID_21_)" d="M677.98,85.837c1.609,3.621,3.621,4.425,5.632,6.839c3.218,3.621,3.218,4.425,3.621,10.057
					c-2.816-0.805-5.23-2.011-8.046-2.816c-2.011-0.402-5.23,0.402-7.241-0.402c-3.621-2.414-8.046-12.471-3.218-15.287"/>
			</g>
			<g opacity="0.4">
				
					<linearGradient id="SVGID_22_" gradientUnits="userSpaceOnUse" x1="10152.7852" y1="31.059" x2="10196.6445" y2="31.059" gradientTransform="matrix(-1 0 0 -1 10756.8896 135.544)">
					<stop  offset="0.5398" style="stop-color:#381D58"/>
					<stop  offset="1" style="stop-color:#5C2E79"/>
				</linearGradient>
				<path fill="url(#SVGID_22_)" d="M604.104,90.036c-5.632,7.644-8.728,4.686-16.372,8.306
					c-11.264,5.23-16.223,15.362-27.487,20.592c1.207-6.034,5.632-8.85,9.253-13.678c2.414-3.218,4.425-7.644,8.85-10.46
					c3.621-2.414,7.889-2.873,11.912-3.678s6.491-0.805,10.112,0L604.104,90.036z"/>
			</g>
			<g opacity="0.2">
				
					<linearGradient id="SVGID_23_" gradientUnits="userSpaceOnUse" x1="10276.4346" y1="23.0129" x2="10218.5049" y2="23.0129" gradientTransform="matrix(-1 0 0 -1 10756.8896 135.544)">
					<stop  offset="0" style="stop-color:#572262"/>
					<stop  offset="1" style="stop-color:#5A4090"/>
				</linearGradient>
				<path fill="url(#SVGID_23_)" d="M538.385,99.113c-7.643,7.644-18.505,8.046-26.149,15.287c-2.011,2.011-3.621,4.425-6.034,6.437
					c-4.023,2.816-5.632,1.207-9.253,1.609c-6.034,0.805-10.46,6.034-16.494,6.437c5.23-7.241,14.08-13.276,21.321-17.701
					c5.632-3.218,14.08-6.034,16.092-13.276c6.034,2.011,8.531-2.499,13.276-1.609C533.053,96.655,538.385,99.113,538.385,99.113z"
					/>
			</g>
			<g opacity="0.4">
				
					<linearGradient id="SVGID_24_" gradientUnits="userSpaceOnUse" x1="10216.2314" y1="58.1525" x2="10277.5225" y2="58.1525" gradientTransform="matrix(-1 0 0 -1 10756.8896 135.544)">
					<stop  offset="0.5398" style="stop-color:#381D58"/>
					<stop  offset="1" style="stop-color:#5C2E79"/>
				</linearGradient>
				<path fill="url(#SVGID_24_)" d="M505.195,72.799c4.202-2.177,10.353-4.21,10.971-6.683c4.493,3.032,3.922,2.836,7.306,4.981
					c0,0,3.125-0.929,5.968-0.995c7.443-0.173,8.662,0.561,11.218,0.87c0,0-4.957,3.041-6.736,3.532
					c-7.795,2.15-25.989,4.507-32.023,6.519c-7.241,2.011-18.103,0.402-22.528,7.644C479.075,80.443,493.785,74.584,505.195,72.799z
					"/>
			</g>
			<g opacity="0.4">
				
					<linearGradient id="SVGID_25_" gradientUnits="userSpaceOnUse" x1="10260.0674" y1="84.2705" x2="10282.2949" y2="84.2705" gradientTransform="matrix(-1 0 0 -1 10756.8896 135.544)">
					<stop  offset="0" style="stop-color:#381D58"/>
					<stop  offset="1" style="stop-color:#5C2E79"/>
				</linearGradient>
				<path fill="url(#SVGID_25_)" d="M491.19,53.263c1.609,1.207,4.023,2.414,5.632,3.218c0-2.011-12.951-10.415-12.951-10.415
					s-5.852,0.703-9.277,2.686c2.011-0.402,6.136,1.695,8.148,2.499"/>
			</g>
			<g opacity="0.5">
				
					<linearGradient id="SVGID_26_" gradientUnits="userSpaceOnUse" x1="10285.2529" y1="69.8035" x2="10328.7002" y2="69.8035" gradientTransform="matrix(-1 0 0 -1 10756.8896 135.544)">
					<stop  offset="0.2573" style="stop-color:#572262"/>
					<stop  offset="0.6092" style="stop-color:#5D2E79"/>
				</linearGradient>
				<path fill="url(#SVGID_26_)" d="M471.46,48.1c-9.217,0.401-12.604-1.062-12.604-1.062s-8.541,3.21-10.15,4.417
					c-3.218,2.414-0.402,5.632-3.218,9.253c0.402,0.402,1.207,0.805,1.609,1.207c-5.632,8.046-13.276,14.08-18.908,22.528
					c6.839-4.827,22.126-7.644,26.551-14.885c0.402-0.402,0-4.425,0.402-5.632c0.805-2.414,1.207-2.414,3.621-4.425
					c2.011-1.609,5.23-2.011,7.241-4.023c2.414-2.011,2.414-4.827,5.632-6.034"/>
			</g>
			<g opacity="0.4">
				
					<linearGradient id="SVGID_27_" gradientUnits="userSpaceOnUse" x1="10456.2891" y1="113.9475" x2="10553.2422" y2="113.9475" gradientTransform="matrix(-1 0 0 -1 10756.8896 135.544)">
					<stop  offset="0" style="stop-color:#381D58"/>
					<stop  offset="1" style="stop-color:#5C2E79"/>
				</linearGradient>
				<path fill="url(#SVGID_27_)" d="M300.197,33.818c-5.632,2.011-12.471,2.011-18.505,1.609c-6.034,0-15.689-3.621-20.517,0.402
					c-0.805-5.632-2.414-4.827-7.644-6.034c-4.827-1.207-8.85-3.218-14.08-4.023c0.805,2.011,1.207,4.425,2.011,6.034
					c-2.414-0.402-5.23-1.207-8.046-1.609c0.805,2.011,1.207,4.023,2.414,6.034c-10.46-2.816-26.954-12.873-32.183-22.126
					c4.023-0.402,18.908,5.632,14.08-4.425c3.621,2.414,13.678,6.034,12.069-1.609c9.253-4.425,28.563,5.632,38.218,8.448
					c6.034,1.609,12.471,3.218,18.103,6.034c5.23,2.414,9.253,6.839,14.483,8.85"/>
			</g>
			<g opacity="0.4">
				<g>
					
						<linearGradient id="SVGID_28_" gradientUnits="userSpaceOnUse" x1="10579.7627" y1="37.0499" x2="10700.082" y2="37.0499" gradientTransform="matrix(-1 0 0 -1 10756.8896 135.544)">
						<stop  offset="0" style="stop-color:#381D58"/>
						<stop  offset="1" style="stop-color:#5C2E79"/>
					</linearGradient>
					<path fill="url(#SVGID_28_)" d="M56.807,85.343l17.424,2.392c12.983-1.708,21.183,8.2,33.482,12.3
						c-0.683-1.708-1.708-3.417-2.05-5.125c8.2,0.342,16.058,6.491,22.891,9.908c6.15,3.075,12.3,3.758,18.449,5.808
						c-1.317-1.668-3.067-3.313-5.061-4.901c3.795,2.84,7.572,5.432,12.254,6.664c7.644,2.414,15.287,6.034,22.931,9.253
						c-4.425-4.828-37.413-17.298-28.563-24.942c-8.046-4.828-19.31-7.241-28.16-10.862l-10.862-5.23
						c-5.632-1.207-17.124-2.488-23.158-3.293c0.019,0.014,0.04,0.027,0.059,0.041c-2.208-1.276-4.367-2.328-6.404-1.921
						c-4.1,0.342-7.858,4.783-11.616,6.15S60.565,83.635,56.807,85.343z M128.107,96.991c2.252,1.068,4.403,2.168,6.378,3.329
						c1.858,1.203,3.597,2.494,5.298,3.778C136.132,101.47,131.954,99.045,128.107,96.991z"/>
				</g>
			</g>
			<g opacity="0.4">
				
					<linearGradient id="SVGID_29_" gradientUnits="userSpaceOnUse" x1="10743.0732" y1="38.041" x2="10755.7422" y2="38.041" gradientTransform="matrix(-1 0 0 -1 10756.8896 135.544)">
					<stop  offset="0" style="stop-color:#381D58"/>
					<stop  offset="1" style="stop-color:#5C2E79"/>
				</linearGradient>
				<path fill="url(#SVGID_29_)" d="M1.345,94.486c3.621,2.816,9.253,3.218,12.471,6.034c-5.23-1.207-9.048,1.61-12.669-4.022"/>
			</g>
			<g opacity="0.4">
				
					<linearGradient id="SVGID_30_" gradientUnits="userSpaceOnUse" x1="10715.0811" y1="26.4801" x2="10749.6787" y2="26.4801" gradientTransform="matrix(-1 0 0 -1 10756.8896 135.544)">
					<stop  offset="0" style="stop-color:#381D58"/>
					<stop  offset="1" style="stop-color:#5C2E79"/>
				</linearGradient>
				<path fill="url(#SVGID_30_)" d="M7.211,101.99c7.644,0,10.057-0.805,16.092,3.218c6.034,4.023,13.678,6.437,18.505,10.862
					c-6.034,1.207-28.16-6.034-32.988-10.862"/>
			</g>
			<g opacity="0.4">
				
					<linearGradient id="SVGID_31_" gradientUnits="userSpaceOnUse" x1="10655.3936" y1="13.098" x2="10698.0361" y2="13.098" gradientTransform="matrix(-1 0 0 -1 10756.8896 135.544)">
					<stop  offset="0" style="stop-color:#381D58"/>
					<stop  offset="1" style="stop-color:#5C2E79"/>
				</linearGradient>
				<path fill="url(#SVGID_31_)" d="M64.888,105.147c5.632,2.816,12.873,5.23,18.103,8.448c4.023,2.414,4.023,5.632,7.241,9.253
					c2.414,2.414,6.839,4.425,9.655,6.437c-6.437,2.011,0,6.839,1.609,10.46c-7.644-4.827-14.885-11.264-21.724-17.299
					c-5.632-4.827-13.276-14.885-20.919-15.689c0-0.402,0.402-0.805,0.805-1.207"/>
			</g>
			<g opacity="0.4">
				
					<linearGradient id="SVGID_32_" gradientUnits="userSpaceOnUse" x1="3576.4854" y1="-10176.7949" x2="3595.8674" y2="-10176.7949" gradientTransform="matrix(-0.3053 -0.9523 0.9523 -0.3053 10958.9531 326.6768)">
					<stop  offset="0" style="stop-color:#381D58"/>
					<stop  offset="1" style="stop-color:#5C2E79"/>
				</linearGradient>
				<path fill="url(#SVGID_32_)" d="M176.996,12.794c1.98,4.857,1.032,9.808-0.805,14.621c-2.869-4.995-10.255-10.886-11.974-16.249
					c1.258-0.351,4.94,2.076,9.414-3.285"/>
			</g>
			
				<linearGradient id="SVGID_33_" gradientUnits="userSpaceOnUse" x1="9490.7617" y1="89.7073" x2="9541.0625" y2="73.0967" gradientTransform="matrix(-1 0 0 -1 10756.8896 135.544)">
				<stop  offset="0" style="stop-color:#572262"/>
				<stop  offset="1" style="stop-color:#5A4090"/>
			</linearGradient>
			<path opacity="0.5" fill="url(#SVGID_33_)" enable-background="new    " d="M1256.198,15.768c0,0-1.343,13.283-2.573,18.008
				c-3.314,12.739-18.189,34.826-23.796,46.735c-1.35,2.867-4.073,12.005-4.073,12.005s-1.415-10.761-1.286-14.363
				c0.275-7.705,7.224-31.903,7.224-31.903s7.919-8.369,10.998-11.83C1246.585,30.043,1256.198,15.768,1256.198,15.768z"/>
			<g opacity="0.4">
				
					<linearGradient id="SVGID_34_" gradientUnits="userSpaceOnUse" x1="9545.959" y1="-15.937" x2="9545.959" y2="58.738" gradientTransform="matrix(-1 0 0 -1 10756.8896 135.544)">
					<stop  offset="0.716" style="stop-color:#381D58"/>
					<stop  offset="1" style="stop-color:#5C2E79"/>
				</linearGradient>
				<path fill="url(#SVGID_34_)" d="M1198.488,92.379c-7.625-3.588-10.531-16.012-11.465-15.561
					c-9.776,4.727-6.668,13.997-8.727,13.138c-1.581-0.66,1.842,11.915,7.673,15.952c17.043,11.213,40.041,35.706,57.981,45.573
					c-1.346-3.14-4.037-4.485-6.728-6.279c-3.588-2.691-33.373-39.745-36.513-43.333c-6.279-7.625-8.645-6.322-10.519-12.777
					c5.772,3.274,5.214,5.157,10.721,7.123L1198.488,92.379z"/>
			</g>
			<g opacity="0.4">
				
					<linearGradient id="SVGID_35_" gradientUnits="userSpaceOnUse" x1="9519.8945" y1="8.511" x2="9519.8945" y2="79.027" gradientTransform="matrix(-1 0 0 -1 10756.8896 135.544)">
					<stop  offset="0.6222" style="stop-color:#391E5A"/>
					<stop  offset="1" style="stop-color:#5C2E79"/>
				</linearGradient>
				<path fill="url(#SVGID_35_)" d="M1217.722,104.04c4.917,3.54,5.155,12.677,5.603,11.78c11.661,3.14,23.322,10.764,35.88,11.213
					c-0.897-0.897-1.345-2.691-1.794-3.588c0.449-0.449,1.346,0,1.794-0.449c-2.243-3.588-7.176-3.588-8.522-7.625
					c5.382-2.243,10.316-4.485,15.249-6.728c-0.897-2.243-2.691-4.037-4.934-5.382l-4.485-8.97
					c-2.243-4.037-6.728-6.279-8.522-9.867c-2.691-5.382-2.691-14.352-2.691-20.631c-4.036,1.346-6.728,8.073-8.97,11.213
					c-4.036,4.485-8.073,8.97-7.176,15.249c-0.897,0-1.794-0.449-2.242-0.897c-0.449,3.14,0.448,6.728,0,9.867
					c-8.522-9.867-5.036-33.737,0.794-42.708c-4.934,2.691-4.906,7.227-8.045,11.264c-4.036,4.485-11.138,6.328-5.307,13.055
					c-1.345-0.449-2.691-0.449-4.036-0.897c0.448,0.897,0.897,2.691,1.345,3.588c-8.073,1.794-0.448,10.316,2.243,14.352
					L1217.722,104.04z"/>
			</g>
		</g>
		
			<linearGradient id="SVGID_36_" gradientUnits="userSpaceOnUse" x1="10707.6094" y1="99.296" x2="10707.6094" y2="117.165" gradientTransform="matrix(-1 0 0 -1 10756.8896 135.544)">
			<stop  offset="0.66" style="stop-color:#572262"/>
			<stop  offset="1" style="stop-color:#5A4090"/>
		</linearGradient>
		<path opacity="0.5" fill="url(#SVGID_36_)" enable-background="new    " d="M47.767,25.74c1.493,1.037,2.26,3.122,3.951,3.788
			c1.849,0.728,8.32,6.72,8.32,6.72S57.813,27.87,57,26.977c-1.252-1.375-4.123-5.345-4.123-5.345s-1.63,0.005-4.992-0.469
			c-1.675-0.236-3.512-0.593-5.098-1.094c-2.412-0.763-4.265-1.69-4.265-1.69S45.719,24.319,47.767,25.74z"/>
	</g>
	<path opacity="0.03" fill="#CEDDF0" enable-background="new    " d="M1095.214,202.257c-15.994-10.851-37.952-7.702-73.028-18.889
		c-10.272-3.276-37.606-12.268-49.602-11.307c-19.167,1.536-58.223,0.237-77.623,0c-32.834-0.401-98.385-3.567-131.22-3.205
		c-19.02,0.21-56.82,2.712-75.775,3.534c-18.934,0.821-56.842,2.211-75.775,3.038c-19.885,0.869-106.872-12.128-99.898-2.675
		c1.213,1.644-1.231,8.708-3.421,9.701c-3.221,1.459-8.317,0.27-12.639,0.336c-28.743,0.438-219.079-6.119-259.321-2.21
		c-10.192,5.328,148.896,9.514,162.581,11.015c20.036,2.196,111.47,2.275,130.981,1.442c13.126-0.56,40.581-2.373,52.431-1.375
		c11.562,0.974,33.479,2.703,44.072,5.24c9.334,2.235,34.903,5.785,35.115,11.005c0.092,2.257-10.568,4.327-14.785,5.071
		c-23.187,4.09-73.396,3.792-97.953,3.733c-7.393-0.017-22.242-0.491-29.571,0c-22.085,1.479-63.115,6.427-85.048,8.403
		c-65.417,5.894-288.633-9.774-384.872-8.362c-7.872,0.116-39.157,1.599-31.342,2.325c70.059,6.509,215.032,14.752,236.454,14.642
		c122.515-0.631,367.621,9.126,489.301,16.372c48.734,2.902,144.536,14.267,193.133,17.71c34.283,2.429,99.745-5.164,151.349-8.436
		c36.21-2.296,60.023-7.459,66.608-14.853c2.556-2.87,1.629-5.902,4.503-7.763c0.643-0.417,3.605-1.027,3.605-1.027l-0.024-2.913
		c0,0-0.575,0.017-1.053-0.114c-8.179-2.26-15.627-10.85-25.137-21.467C1127.817,200.682,1104.685,208.683,1095.214,202.257z"/>
	<path opacity="0.08" fill="#86D1E4" enable-background="new    " d="M725.9,199.062c-0.634-0.16-2.697-0.266-3.384-0.415
		c-0.855-0.186-2.987-0.691-2.378-0.919c0.545-0.204,3.581,0.172,4.319,0c0.671-0.156,0.456-0.708-0.26-0.854
		c-1.486-0.303-6.352,0.212-8.138,0c-1.257-0.149-3.671-0.763-3.103-1.05c0.724-0.366,5.453-0.161,7.183-0.289
		c1.53-0.113,5.485-0.291,5.762-0.638c0.168-0.212-1.801-0.539-2.705-0.624c-1.4-0.132-4.574-0.012-6.097,0
		c-2.076,0.016-6.223,0.166-8.292,0.124c-4.128-0.084-11.974-0.746-16.051-0.91c-3.212-0.129-9.723-0.275-12.984-0.314
		c-1.828-0.022-5.5-0.036-7.324,0c-2.006,0.039-5.913,0.298-7.925,0.314c-1.031,0.008-3.803-0.089-3.867-0.314
		c-0.135-0.47,5.891-0.601,7.655-0.872c1.141-0.176,3.699-0.756,3.032-1.023c-1.277-0.512-8.058-0.104-10.687,0
		c-2.576,0.102-7.332,0.615-9.808,0.8c-3.985,0.298-11.948,0.92-16.083,1.095c-5.216,0.221-15.082,0.188-21.778,0.338
		c-0.112-0.198-2.888-0.26-3.844-0.319c-2.76-0.17-8.469-0.37-11.339-0.393c-3.504-0.027-10.471,0.218-13.971,0.262
		c-3.337,0.042-10.029,0.138-13.363,0.087c-2.357-0.036-6.959-0.306-9.314-0.349c-3.278-0.061-9.885-0.066-13.161,0
		c-1.641,0.033-4.844,0.218-6.479,0.262c-4.035,0.108-12.264,0.029-16.235,0.218c-1.901,0.09-5.306,0.622-7.252,0.611
		c-1.721-0.01-4.563-0.575-6.277-0.611c-3.52-0.074-10.419,0.454-13.768,0.699c-1.524,0.111-4.284,0.512-5.872,0.568
		c-3.466,0.121-12.792,0.115-16.283,0.196c-2.117,0.049-9.902,0.015-12.992,0.303c-1.432,0.133,5.744,0.106,8.989,0.288
		c0.343,0.019,4.98-0.224,3.933,0.03c-1.582,0.383-6.78,0.057-9.159,0.057c-1.822,0-5.498,0.072-7.289,0
		c-1.922-0.078-3.804-0.064-5.725-0.141c-3.98-0.161-10.21-0.219-15.741-0.133c-0.869,0.014-12.698-0.346-12.447-0.165
		c0.658,0.47,4.764,0.828,16.905,1.138c2.111,0.054,7.914-0.44,8.504,0c0.448,0.334-3.915,0.646-5.467,0.742
		c-2.772,0.173-8.69-0.095-11.541,0c-1.155,0.039-4.708-0.001-6.711,0.141c-1.19,0.084,5.666,0.68,5.699,0.95
		c0.035,0.287-5.6,0.286-6.928,0.275c-2.697-0.022-7.289-0.338-7.837-0.033c-0.543,0.302,8.299,1.387,9.703,1.504
		c3.022,0.252,9.756-0.105,12.958,0c2.358,0.077,7.703,0.36,8.72,0.825c0.513,0.235-7.063,0.827-7.117,1.087
		c-0.031,0.148,5.21,0.31,6.62,0.408c2.118,0.147,2.81,0.338,4.844,0.533c2.261,0.217,9.851,0.696,12.04,0.945
		c3.306,0.376,10.142,1.031,13.566,1.353c2.558,0.241,7.137,1.234,9.875,1.351c1.539,0.066,3.819,0.065,5.327,0.159
		c1.093,0.068,3.788,0.251,4.797,0.365c1.85,0.208,5.674,0.585,7.694,0.699c8.428,0.473,23.826,1.026,32.522,1.13
		c7.531,0.09,15.973-0.613,23.384-0.311c2.992,0.122,17.647,0.465,20.675,0.536c1.936,0.046,6.311,0.034,7.694-0.262
		c0.656-0.14-0.129-0.665,0.607-0.786c0.717-0.117,1.913-0.107,3.246-0.052c-0.826,0.124-1.251,0.25-0.745,0.386
		c2.038,0.551,14.194,0.721,17.375,0.86c4.769,0.207,12.657,0.7,16.991,0.86c3.934,0.146,10.573-0.023,14.443,0.189
		c4.102,0.225,12.689,0,16.918,0c2.037,0,6.114,0.019,8.15,0c4.058-0.037,12.256-0.076,16.191-0.296
		c3.691-0.206,10.542-0.97,13.93-1.351c3.748-0.421,11.052-1.349,14.524-1.871c1.892-0.284,5.956-0.827,7.183-1.251
		c0.757-0.261,1.67-0.907,1.292-1.205c-0.288-0.228-2.891-0.443-3.013-0.678c-0.216-0.415,2.942-0.654,4.732-0.801
		c0.773-0.063,3.468-0.255,4.226-0.326c1.681-0.158,1.945-1.131,2.023-1.53C729.481,200.232,727.186,199.387,725.9,199.062z
		 M613.676,201.347c-0.631,1.526-10.34,4.024-12.702,5.467c-0.37,0.226-2.001,0.414-3.569,0.589
		c-0.323-0.018-0.601-0.035-0.775-0.048c-3.936-0.292-15.761,0.284-19.888,0.168c-5.322-0.151-11.317-0.661-16.682-0.628
		c-4.723,0.029-21.607,0.504-26.316,0.419c-9.274-0.168-26.364-0.459-35.063-1.172c-4.147-0.34-16.817-1.643-20.875-2.03
		c-4.747-0.452-13.397-1.641-17.808-2.88c-1.518-0.426-0.509-1.837,3.982-2.358c2.016-0.234,2.733-0.244,4.756-0.586
		c3.748-0.635,13.806-2.497,18.516-2.654c2.36-0.079,7.183,0.284,9.516,0.175c1.307-0.062,3.356-0.501,4.657-0.568
		c2.022-0.103,6.24,0.144,8.301,0.087c2.183-0.06,8.786-0.178,10.904-0.308c1.775-0.109,2.739-0.502,4.581-0.522
		c1.746-0.02,5.244,0.108,6.99,0.088c1.41-0.016,4.087-0.241,5.467-0.306c2.31-0.108,6.957-0.312,9.314-0.349
		c1.969-0.031,5.922,0.054,7.896,0.043c4.921-0.025,15.308-0.548,19.631-0.039c3.18,0.374,3.442,0.609,8.254,0.593
		c2.471-0.008,10.135,0.001,17.131-0.125c-0.33,0.61,5.78,1.448,7.046,2.003C609.57,197.562,614.206,200.064,613.676,201.347z"/>
	
		<linearGradient id="SVGID_37_" gradientUnits="userSpaceOnUse" x1="863.7045" y1="-61.8611" x2="863.7045" y2="-72.5308" gradientTransform="matrix(1 0 0 -1 -272.5 135.544)">
		<stop  offset="0.0486" style="stop-color:#200E32"/>
		<stop  offset="0.5632" style="stop-color:#381D58"/>
		<stop  offset="1" style="stop-color:#39174E"/>
	</linearGradient>
	<path fill="url(#SVGID_37_)" d="M701.131,199.496c-1.31-0.039-19.733-0.376-22.442-0.153c-1.746,0.143-5.469,0.913-6.657,0.903
		c-1.822-0.015-2.02,0.734-3.839,0.762c-2.258,0.035-1.437,0.658-3.67,0.581c-0.966-0.033-0.311,0.924-1.252,0.869
		c-1.002-0.058-3.025-0.18-4.067-0.187c-1.496-0.01-4.437,0.233-5.916,0.187c-1.532-0.048-4.232-0.394-5.547-0.561
		c-1.678-0.212-4.426-0.835-6.286-0.971c-1.044-0.076-3.33-0.055-4.437-0.037c-2.16,0.033-6.545,0.149-8.505,0.336
		c-0.92,0.088-2.198,0.447-3.143,0.523c-2.453,0.198-7.932,0.236-10.538,0.149c-1.186-0.039-3.302-0.294-4.437-0.373
		c-1.134-0.079-3.51-0.17-4.622-0.262c-0.536-0.044-1.455-0.22-2.034-0.224c-0.661-0.004-1.75,0.203-2.404,0.224
		c-2.066,0.068-6.369-0.034-8.32-0.187c-2.774-0.218-6.87-1.186-9.614-1.42c-1.037-0.088-3.383-0.071-4.437-0.149
		c-1.419-0.106-3.745-0.536-5.177-0.635c-0.748-0.052-2.798-0.219-3.143-0.075c-0.456,0.19,2.219,0.448,2.958,0.598
		c0.786,0.159,3.458,0.42,3.143,0.635c-0.187,0.128-1.958,0.071-2.588,0.112c-0.671,0.043-2.021,0.14-2.588,0.224
		c-0.687,0.102-1.406,0.471-2.219,0.523c-4.03,0.257-15.9-0.822-16.455-0.785c-0.555,0.037-14.858-1.221-19.598-1.719
		c-1.379-0.145-3.925-0.515-5.362-0.635c-1.368-0.114-4.526-0.472-5.731-0.299c-0.944,0.136,0.057,0.716-0.37,0.934
		c-0.327,0.167-1.418,0.483-2.219,0.561c-1.333,0.13-4.437,0-5.916,0c-0.924,0-2.78,0.023-3.698,0
		c-0.757-0.019-2.27-0.083-2.958-0.149c-0.626-0.06-1.765-0.23-2.219-0.336c-0.379-0.089-0.639-0.343-1.109-0.411
		c-0.648-0.094-2.357-0.14-3.143-0.112c-0.734,0.026-1.89,0.247-2.588,0.299c-1.368,0.102-4.279,0.196-5.731,0.224
		c-1.334,0.026-4.065,0.069-5.362,0c-0.821-0.043-2.159-0.279-2.958-0.336c-1.016-0.073-3.198-0.196-4.252-0.149
		c-1.04,0.046-2.496,0.422-3.513,0.486c-0.662,0.041-2.092,0.026-2.773,0c-1.122-0.043-3.43-0.176-4.252-0.336
		c-0.566-0.11-0.47-0.584-1.255-0.582c-0.492,0.001-0.462,0.287-0.741,0.368c-1.262,0.369-5.419,0.831-6.509,1.222
		c-0.787,0.283-1.648,0.954-1.294,1.27c0.423,0.377,3.228,0.968,4.622,1.233c2.373,0.451,8.021,1.131,10.851,1.457
		c3.875,0.446,11.997,1.198,16.071,1.565c1.924,0.173,5.801,0.508,7.794,0.645c4.527,0.311,13.709,0.891,18.448,1.02
		c1.992,0.054,6.043-0.044,8.042,0c1.445,0.032,4.266,0.184,5.676,0.255c1.429,0.072,5.676,0.318,5.676,0.318
		s2.887-0.325,3.942-0.382c2.329-0.128,7.21-0.188,9.618-0.159c1.605,0.019,4.78,0.153,6.307,0.255
		c1.49,0.099,4.145,0.472,5.676,0.542c1.923,0.087,5.922-0.037,7.884,0c2.317,0.044,6.824,0.382,9.145,0.35
		c1.736-0.024,5.026-0.297,6.601-0.446c0.677-0.064,1.822-0.279,2.544-0.318c2.779-0.152,8.661-0.019,11.51,0.064
		c3.389,0.098,9.9,0.554,13.245,0.701c1.798,0.079,5.434,0.199,7.253,0.255c2.987,0.092,8.962,0.326,11.984,0.318
		c2.035-0.005,6.025-0.2,8.042-0.255c3.538-0.096,10.645-0.236,14.191-0.318c1.972-0.046,5.901-0.174,7.884-0.191
		c3.389-0.029,6.822-0.063,10.191,0.016c1.996,0.047,7.858-1.222,9.817-1.131c2.739,0.127,12.41-0.354,17.092-1.077
		c6.012-0.928,20.123-2.506,21.564-3.87c2.401-2.273,2.124-2.228,2.124-2.228S703.418,199.563,701.131,199.496z"/>
	
		<linearGradient id="SVGID_38_" gradientUnits="userSpaceOnUse" x1="868.7523" y1="-66.9199" x2="868.7523" y2="-57.6322" gradientTransform="matrix(1 0 0 -1 -272.5 135.544)">
		<stop  offset="0.0486" style="stop-color:#200E32"/>
		<stop  offset="0.2816" style="stop-color:#210F34"/>
		<stop  offset="0.4843" style="stop-color:#251239"/>
		<stop  offset="0.6757" style="stop-color:#2A1641"/>
		<stop  offset="0.859" style="stop-color:#311A4D"/>
		<stop  offset="1" style="stop-color:#381D58"/>
	</linearGradient>
	<path fill="url(#SVGID_38_)" d="M718.74,197.657c-5.394-1.181-22.102-3.528-23.673-3.502c-2.279,0.037-4.771-0.335-7.021-0.418
		c-6.869-0.253-20.957-0.281-27.917-0.169c-2.533,0.041-7.443,0.379-9.984,0.385c-2.859,0.006-8.443-0.31-11.278-0.385
		c-5.109-0.135-15.369-0.386-20.522-0.39c-3.99-0.003-11.914,0.243-15.9,0.278c-2.54,0.022-7.82-0.196-10.169,0
		c-0.845,0.071-1.78,0.436-2.588,0.523c-2.079,0.223-6.919,0.431-9.244,0.358c-1.872-0.059-4.835-0.626-6.656-0.732
		c-2.226-0.129-6.941-0.159-9.244-0.112c-2.142,0.043-6.17,0.425-8.32,0.448c-1.494,0.016-4.435-0.141-5.916-0.184
		c-1.708-0.05-5.126-0.229-6.841-0.189c-1.424,0.033-3.979,0.335-5.362,0.411c-1.312,0.072-4.038,0.123-5.362,0.187
		c-0.705,0.034-2.056,0.149-2.773,0.171c-0.82,0.025-2.486,0-3.314,0c-0.849,0-2.59-0.055-3.395,0
		c-0.754,0.051-1.885,0.143-2.655,0.184c-1.359,0.072-4.024,0.001-5.427,0.018c-0.818,0.01-2.359,0.139-3.143,0.187
		c-1.483,0.091-4.384,0.326-5.916,0.373c-0.914,0.028-2.773,0-3.698,0c-1.156,0-3.501-0.057-4.622,0
		c-0.762,0.039-2.011,0.26-2.773,0.299c-1.076,0.055-3.328,0-4.437,0c-0.971,0-2.94-0.047-3.883,0
		c-1.927,0.096-5.237,0.573-7.026,0.747c-0.727,0.071-2.154,0.248-2.958,0.262c-0.76,0.013-2.231-0.196-2.958-0.149
		c-0.469,0.03-1.025,0.216-1.294,0.299c-0.475,0.147-0.997,0.489-1.479,0.635c-0.382,0.115-1.601,0.282-1.849,0.411
		c-0.233,0.122-0.48,0.211-0.406,0.341c0.226,0.396,3.537,0.475,4.658,0.518c0.681,0.026,2.111,0.041,2.773,0
		c1.017-0.063,2.473-0.44,3.513-0.486c1.054-0.046,3.236,0.076,4.252,0.149c0.799,0.058,2.137,0.293,2.958,0.336
		c1.297,0.069,4.027,0.026,5.362,0c1.453-0.028,4.363-0.122,5.731-0.224c0.699-0.052,1.854-0.273,2.588-0.299
		c0.786-0.027,2.495,0.018,3.143,0.112c0.47,0.068,0.73,0.322,1.109,0.411c0.454,0.106,1.593,0.276,2.219,0.336
		c0.688,0.066,2.202,0.131,2.958,0.149c0.917,0.023,2.773,0,3.698,0c1.479,0,4.583,0.13,5.916,0c0.8-0.078,1.892-0.393,2.219-0.561
		c0.427-0.218-0.574-0.798,0.37-0.934c1.205-0.173,4.363,0.185,5.731,0.299c1.436,0.12,3.983,0.491,5.362,0.635
		c4.739,0.498,19.043,1.756,19.598,1.719c0.555-0.037,12.424,1.042,16.455,0.785c0.813-0.052,1.532-0.421,2.219-0.523
		c0.567-0.084,1.917-0.181,2.588-0.224c0.631-0.04,2.401,0.016,2.588-0.112c0.315-0.216-2.357-0.476-3.143-0.635
		c-0.74-0.149-3.414-0.408-2.958-0.598c0.345-0.144,2.395,0.023,3.143,0.075c1.432,0.099,3.757,0.529,5.177,0.635
		c1.054,0.079,3.401,0.061,4.437,0.149c2.744,0.233,6.839,1.202,9.614,1.42c1.951,0.153,6.254,0.255,8.32,0.187
		c0.653-0.021,1.742-0.229,2.404-0.224c0.579,0.004,1.497,0.18,2.034,0.224c1.112,0.091,3.488,0.182,4.622,0.262
		c1.135,0.079,3.251,0.334,4.437,0.373c2.606,0.086,8.085,0.048,10.538-0.149c0.945-0.076,2.223-0.435,3.143-0.523
		c1.959-0.187,6.344-0.303,8.505-0.336c1.107-0.017,3.393-0.039,4.437,0.037c1.86,0.136,4.608,0.76,6.286,0.971
		c1.315,0.166,4.015,0.512,5.547,0.561c1.479,0.047,4.42-0.197,5.916-0.187c1.042,0.007,3.065,0.129,4.067,0.187
		c0.941,0.055,3.534-1.057,5.793-1.092c1.819-0.028,1.146-1.136,2.968-1.121c1.187,0.01,6.191-0.686,7.35-0.632
		c1.291,0.059,20.439-0.156,21.748-0.118c2.288,0.068,22.009-0.475,22.009-0.475S726.261,199.303,718.74,197.657z"/>
	<path opacity="0.08" fill="#86D1E4" enable-background="new    " d="M897.282,195.42c-1.926-0.719-5.863-1.757-10.888-1.907
		c-2.803-0.083-11.004-0.312-12.642-0.058c-1.169,0.181,2.621,0.37,3.474,0.658c0.869,0.293,4.836,0.484,4.509,0.854
		c-0.541,0.613-6.767,0.034-9.019,0c-9.225-0.14-27.529-0.908-36.737-1.114c-6.387-0.143-20.562-1.481-25.597-0.371
		c-0.848,0.187-1.302,0.921-0.796,1.189c0.509,0.268,4.138,0.182,3.979,0.483c-0.343,0.647-6.972,0.202-9.284,0.297
		c-4.466,0.183-13.268,0.973-17.772,0.892c-2.187-0.04-6.19-0.649-8.355-0.743c-1.9-0.082-7.101-0.512-7.692,0
		c-0.54,0.468,4.123,0.936,5.703,1.151c2.669,0.364,8.466,0.811,11.406,0.929c2.199,0.088,7.752-0.535,8.886,0
		c0.424,0.2-0.877,0.698-1.592,0.817c-1.169,0.194-4.777-0.333-5.438,0c-0.671,0.338,1.934,1.043,2.918,1.315
		c2.177,0.602,7.573,1.5,10.477,1.768c4.998,0.462,15.698,0.488,20.955,0.557c5.961,0.079,23.077,0,23.873,0
		c0.796,0,13.62-0.337,18.17-0.408c3.577-0.056,10.764-0.224,14.324-0.111c1.838,0.058,5.324,0.578,7.162,0.52
		c2.792-0.088,8.209-0.837,9.977-1.449c2.523-0.872,4.474-2.161,4.563-2.898C901.945,196.962,899.057,196.083,897.282,195.42z"/>
	
		<linearGradient id="SVGID_39_" gradientUnits="userSpaceOnUse" x1="1120.6947" y1="-62.7442" x2="1120.6947" y2="-59.6826" gradientTransform="matrix(1 0 0 -1 -272.5 135.544)">
		<stop  offset="0.0486" style="stop-color:#200E32"/>
		<stop  offset="0.2657" style="stop-color:#28143F"/>
		<stop  offset="0.5639" style="stop-color:#311A4D"/>
		<stop  offset="0.8192" style="stop-color:#371D55"/>
		<stop  offset="1" style="stop-color:#381D58"/>
	</linearGradient>
	<path fill="url(#SVGID_39_)" d="M800.46,197.789c-0.627-0.112-1.504-0.542-1.33-0.745c0.459-0.534,4.51-1.092,6.319-1.304
		c2.174-0.255,6.962-0.367,9.313-0.419c8.579-0.192,25.819-0.036,34.424,0c6.987,0.029,21.036-0.073,27.938,0.233
		c3.337,0.148,9.869,0.686,12.971,1.061c1.903,0.23,7.694,0.614,7.151,1.174c-0.261,0.27-2.993,0-3.991,0
		c-1.954,0-5.877-0.068-7.816,0c-1.661,0.059-4.82,0.42-6.486,0.466c-6.091,0.168-18.327-0.336-24.446-0.372
		c-7.316-0.044-21.951,0.109-29.269,0.093C819.042,197.962,805.688,198.721,800.46,197.789z"/>
	
		<linearGradient id="SVGID_40_" gradientUnits="userSpaceOnUse" x1="1085.0294" y1="-41.219" x2="1158.0387" y2="-83.371" gradientTransform="matrix(1 0 0 -1 -272.5 135.544)">
		<stop  offset="0.0486" style="stop-color:#200E32"/>
		<stop  offset="0.5632" style="stop-color:#381D58"/>
		<stop  offset="1" style="stop-color:#39174E"/>
	</linearGradient>
	<path fill="url(#SVGID_40_)" d="M801.284,198.1c0.942,0.269,3.013,0.78,4.262,0.921c8.743,0.983,27.973,1.2,37.382,1.33
		c7.635,0.105,22.943-0.07,30.563-0.239c5.142-0.114,16.157,0.047,20.457-0.75c1.358-0.252,4.925-1.593,3.298-1.574
		c-5.033,0.062-8.879-0.103-11.807,0c-1.661,0.059-4.82,0.42-6.486,0.466c-6.091,0.168-18.327-0.334-24.446-0.372
		c-7.683-0.048-23.054,0.101-30.739,0.082c-5.829-0.014-15.027,0.218-23.308-0.175C800.119,197.773,801.042,198.031,801.284,198.1z"
		/>
	
		<linearGradient id="SVGID_41_" gradientUnits="userSpaceOnUse" x1="1218.9196" y1="-27.7414" x2="1265.7727" y2="-54.792" gradientTransform="matrix(1 0 0 -1 -272.5 135.544)">
		<stop  offset="0.0486" style="stop-color:#200E32"/>
		<stop  offset="0.5632" style="stop-color:#381D58"/>
		<stop  offset="1" style="stop-color:#39174E"/>
	</linearGradient>
	<path fill="url(#SVGID_41_)" d="M938.792,176.496c0,0,0.009,1.193,3.956,1.81c3.877,0.606,14.926,0.465,19.825,0.483
		c4.292,0.016,12.884,0.008,17.165-0.108c4.388-0.12,13.373-0.226,17.453-0.845c1.098-0.167,4.27-0.653,3.802-1.061
		c-0.556-0.485-4.139,0.295-5.53,0.369c-2.953,0.155-8.972,0.185-11.866,0.455c-0.317,0.029-0.889,0.161-1.21,0.184
		c-0.353,0.026-1.324,0.128-1.44,0c-0.088-0.097,0.676-0.175,0.864-0.249c0.157-0.062,0.575-0.199,0.518-0.281
		c-0.04-0.059-0.416-0.1-0.576-0.108c-0.364-0.018-1.079,0.084-1.44,0.108c-0.962,0.066-2.884,0.213-3.859,0.238
		c-1.078,0.028-3.365-0.233-4.32-0.043c-0.235,0.047-0.348,0.284-0.576,0.336c-0.656,0.148-2.287,0.103-3.053,0.098
		c-0.522-0.004-1.571-0.044-2.074-0.098c-0.548-0.059-2.074-0.358-2.074-0.358s-1.597-0.068-2.131-0.065
		c-1.072,0.006-3.229,0.066-4.262,0.173c-0.382,0.039-1.044,0.243-1.44,0.249c-0.321,0.006-0.929-0.104-1.21-0.163
		c-0.161-0.034-0.398-0.156-0.576-0.173c-0.607-0.06-1.851,0.167-2.477,0.152c-0.991-0.025-2.845-0.333-3.802-0.434
		c-0.673-0.07-2.014-0.294-2.707-0.26c-0.294,0.014-0.749,0.19-1.037,0.216C944.017,177.186,939.122,176.598,938.792,176.496z"/>
	<path opacity="0.2" fill="#86D1E4" enable-background="new    " d="M944.392,175.242l24.495,0.17l30.888,0.848
		c0,0-0.818-0.394-1.462-0.473c-1.431-0.177-3.875-0.456-5.375-0.505c-1.578-0.051-4.949-0.152-6.334-0.041
		c-0.329,0.027,0.749-0.323,0.727-0.449c-0.019-0.108-1.064-0.241-1.352-0.244c-1.719-0.021-3.464,0.248-4.843,0.27
		c-0.588,0.009-1.77-0.056-2.332-0.121c-0.472-0.055-1.279-0.309-1.769-0.333c-0.977-0.048-2.874,0.296-3.859,0.303
		c-1.163,0.007-3.424-0.264-4.583-0.303c-1.202-0.039-3.63-0.064-4.824,0c-0.85,0.046-2.44,0.343-3.297,0.363
		c-0.772,0.019-2.283-0.171-3.055-0.182c-0.726-0.01-2.175,0.053-2.895,0.09c-0.629,0.033-1.86,0.2-2.493,0.182
		c-0.875-0.026-2.69-0.215-3.297-0.454c-0.277-0.109-0.145-0.494-0.482-0.575c-1.499-0.36-6.223,0.398-7.351,0.732
		c-1.325,0.393-2.015,1.598-2.015,1.598L944.392,175.242z"/>
	
		<linearGradient id="SVGID_42_" gradientUnits="userSpaceOnUse" x1="1242.3687" y1="-42.3464" x2="1242.3687" y2="-39.305" gradientTransform="matrix(1 0 0 -1 -272.5 135.544)">
		<stop  offset="0.0486" style="stop-color:#200E32"/>
		<stop  offset="0.4258" style="stop-color:#210F33"/>
		<stop  offset="0.6005" style="stop-color:#231137"/>
		<stop  offset="0.7335" style="stop-color:#27143D"/>
		<stop  offset="0.8454" style="stop-color:#2D1745"/>
		<stop  offset="0.9429" style="stop-color:#341B50"/>
		<stop  offset="1" style="stop-color:#381D58"/>
	</linearGradient>
	<path fill="url(#SVGID_42_)" d="M1000.991,176.774c-0.473,0.497-4.139,0.295-5.53,0.369c-2.953,0.155-8.972,0.185-11.866,0.455
		c-0.317,0.029-0.889,0.161-1.21,0.184c-0.353,0.026-1.324,0.128-1.44,0c-0.088-0.097,0.676-0.175,0.864-0.249
		c0.157-0.062,0.575-0.199,0.518-0.281c-0.04-0.059-0.416-0.1-0.576-0.108c-0.364-0.018-1.079,0.084-1.44,0.108
		c-0.962,0.066-2.884,0.213-3.859,0.238c-1.078,0.028-3.365-0.233-4.32-0.043c-0.235,0.047-0.348,0.284-0.576,0.336
		c-0.656,0.148-2.287,0.103-3.053,0.098c-0.522-0.004-1.571-0.044-2.074-0.098c-0.548-0.059-1.522-0.303-2.074-0.357
		c-0.517-0.051-1.597-0.068-2.131-0.065c-1.072,0.006-3.229,0.066-4.262,0.173c-0.382,0.039-1.044,0.243-1.44,0.249
		c-0.321,0.006-0.929-0.104-1.21-0.163c-0.161-0.034-0.398-0.156-0.576-0.173c-0.607-0.06-1.851,0.167-2.477,0.152
		c-0.991-0.025-2.845-0.333-3.802-0.434c-0.673-0.071-2.014-0.294-2.707-0.26c-0.294,0.014-0.749,0.19-1.037,0.217
		c-0.699,0.066-6.226,0.11-5.963-0.825c0.141-0.501,2.562-1.126,3.779-1.239c1.887-0.174,5.928,0.027,7.771,0.027
		c3.053,0,9.503-0.53,12.211,0c0.156,0.031,0.403,0.217,0.403,0.217s0.434-0.188,0.634-0.217c1.424-0.207,4.579-0.011,6.106,0
		c2.795,0.019,8.388,0.069,11.174,0.152c1.302,0.039,3.996,0.035,5.184,0.238c0.176,0.03,0.383,0.2,0.576,0.195
		c0.112-0.003,0.186-0.112,0.288-0.13c1.34-0.239,4.456-0.074,5.933-0.022c0.658,0.023,2.015,0.074,2.592,0.195
		c0.24,0.051,0.566,0.226,0.749,0.303c0.088,0.037,0.222,0.134,0.346,0.152c0.217,0.032,0.69-0.037,0.922-0.043
		c0.431-0.013,1.314-0.069,1.728-0.022c0.237,0.027,0.624,0.154,0.806,0.217c0.196,0.067,0.518,0.228,0.691,0.303
		C1000.732,176.661,1001.036,176.727,1000.991,176.774z"/>
</g>
<linearGradient id="SVGID_43_" gradientUnits="userSpaceOnUse" x1="1047.1512" y1="-36.0003" x2="1079.5352" y2="-54.6971" gradientTransform="matrix(1 0 0 -1 -272.5 135.544)">
	<stop  offset="0.0486" style="stop-color:#200E32"/>
	<stop  offset="0.5632" style="stop-color:#381D58"/>
	<stop  offset="1" style="stop-color:#39174E"/>
</linearGradient>
<path fill="url(#SVGID_43_)" d="M769.396,180.647c0,0,0.006,0.895,2.733,1.357c2.679,0.455,10.313,0.349,13.698,0.362
	c2.966,0.012,8.902,0.006,11.86-0.081c3.032-0.09,9.24-0.169,12.059-0.634c0.759-0.125,2.95-0.49,2.627-0.796
	c-0.384-0.364-2.86,0.221-3.821,0.276c-2.04,0.116-6.199,0.139-8.199,0.341c-0.219,0.022-0.614,0.121-0.836,0.138
	c-0.244,0.02-0.915,0.096-0.995,0c-0.061-0.073,0.467-0.131,0.597-0.187c0.108-0.047,0.397-0.149,0.358-0.211
	c-0.028-0.044-0.287-0.075-0.398-0.081c-0.252-0.014-0.746,0.063-0.995,0.081c-0.665,0.05-1.993,0.16-2.666,0.179
	c-0.745,0.021-2.325-0.175-2.985-0.032c-0.162,0.035-0.24,0.213-0.398,0.252c-0.453,0.111-1.58,0.077-2.109,0.073
	c-0.361-0.003-1.086-0.033-1.433-0.073c-0.379-0.044-1.433-0.268-1.433-0.268s-1.103-0.051-1.472-0.049
	c-0.741,0.004-2.231,0.05-2.945,0.13c-0.264,0.03-0.721,0.182-0.995,0.187c-0.222,0.004-0.642-0.078-0.836-0.122
	c-0.111-0.025-0.275-0.117-0.398-0.13c-0.419-0.045-1.279,0.125-1.712,0.114c-0.685-0.019-1.966-0.25-2.627-0.325
	c-0.465-0.053-1.392-0.22-1.87-0.195c-0.203,0.011-0.518,0.142-0.717,0.162C773.006,181.165,769.624,180.724,769.396,180.647z"/>
<path opacity="0.2" fill="#86D1E4" enable-background="new    " d="M773.265,179.706l16.925,0.127l21.342,0.636
	c0,0-0.565-0.295-1.01-0.355c-0.989-0.132-2.677-0.342-3.714-0.378c-1.09-0.038-3.419-0.114-4.376-0.03
	c-0.227,0.02,0.518-0.242,0.502-0.337c-0.013-0.081-0.735-0.181-0.934-0.183c-1.188-0.016-2.393,0.186-3.346,0.202
	c-0.406,0.007-1.223-0.042-1.611-0.091c-0.326-0.041-0.884-0.231-1.222-0.249c-0.675-0.036-1.986,0.222-2.666,0.227
	c-0.804,0.005-2.366-0.198-3.167-0.227c-0.831-0.03-2.508-0.048-3.333,0c-0.587,0.035-1.686,0.257-2.278,0.272
	c-0.533,0.014-1.577-0.128-2.111-0.136c-0.502-0.007-1.503,0.04-2,0.068c-0.435,0.025-1.285,0.15-1.723,0.136
	c-0.605-0.02-1.859-0.161-2.278-0.34c-0.191-0.082-0.1-0.37-0.333-0.431c-1.036-0.27-4.3,0.299-5.079,0.549
	c-0.916,0.295-1.392,1.198-1.392,1.198L773.265,179.706z"/>
<linearGradient id="SVGID_44_" gradientUnits="userSpaceOnUse" x1="1063.368" y1="-46.1486" x2="1063.368" y2="-43.8675" gradientTransform="matrix(1 0 0 -1 -272.5 135.544)">
	<stop  offset="0.0486" style="stop-color:#200E32"/>
	<stop  offset="0.4258" style="stop-color:#210F33"/>
	<stop  offset="0.6005" style="stop-color:#231137"/>
	<stop  offset="0.7335" style="stop-color:#27143D"/>
	<stop  offset="0.8454" style="stop-color:#2D1745"/>
	<stop  offset="0.9429" style="stop-color:#341B50"/>
	<stop  offset="1" style="stop-color:#381D58"/>
</linearGradient>
<path fill="url(#SVGID_44_)" d="M812.372,180.855c-0.327,0.373-2.86,0.221-3.821,0.276c-2.04,0.116-6.199,0.139-8.199,0.341
	c-0.219,0.022-0.614,0.121-0.836,0.138c-0.244,0.02-0.915,0.096-0.995,0c-0.061-0.073,0.467-0.131,0.597-0.187
	c0.108-0.047,0.397-0.149,0.358-0.211c-0.028-0.044-0.287-0.075-0.398-0.081c-0.251-0.014-0.745,0.063-0.995,0.081
	c-0.665,0.05-1.993,0.16-2.666,0.179c-0.745,0.021-2.325-0.175-2.985-0.032c-0.162,0.035-0.24,0.213-0.398,0.252
	c-0.453,0.111-1.58,0.077-2.109,0.073c-0.361-0.003-1.086-0.033-1.433-0.073c-0.379-0.044-1.052-0.227-1.433-0.268
	c-0.357-0.038-1.104-0.051-1.472-0.049c-0.741,0.004-2.231,0.05-2.945,0.13c-0.264,0.03-0.721,0.182-0.995,0.187
	c-0.222,0.004-0.642-0.078-0.836-0.122c-0.111-0.025-0.275-0.117-0.398-0.13c-0.419-0.045-1.279,0.125-1.711,0.114
	c-0.685-0.019-1.966-0.25-2.627-0.325c-0.465-0.053-1.392-0.22-1.87-0.195c-0.203,0.011-0.518,0.142-0.716,0.162
	c-0.483,0.049-4.302,0.082-4.12-0.619c0.097-0.376,1.77-0.845,2.611-0.929c1.304-0.131,4.096,0.02,5.369,0.02
	c2.109,0,6.566-0.398,8.437,0c0.108,0.023,0.278,0.162,0.278,0.162s0.3-0.141,0.438-0.162c0.984-0.155,3.164-0.008,4.219,0
	c1.931,0.014,5.796,0.052,7.721,0.114c0.9,0.029,2.761,0.026,3.582,0.179c0.122,0.022,0.265,0.15,0.398,0.146
	c0.077-0.002,0.129-0.084,0.199-0.097c0.926-0.179,3.079-0.055,4.099-0.016c0.455,0.017,1.392,0.055,1.791,0.146
	c0.166,0.038,0.391,0.169,0.518,0.227c0.061,0.028,0.153,0.1,0.239,0.114c0.15,0.024,0.477-0.027,0.637-0.032
	c0.298-0.01,0.908-0.052,1.194-0.016c0.164,0.02,0.431,0.115,0.557,0.162c0.135,0.05,0.358,0.171,0.477,0.227
	C812.193,180.77,812.403,180.82,812.372,180.855z"/>
<linearGradient id="SVGID_45_" gradientUnits="userSpaceOnUse" x1="535.5168" y1="-38.7897" x2="567.9008" y2="-57.4865" gradientTransform="matrix(1 0 0 -1 -272.5 135.544)">
	<stop  offset="0.0486" style="stop-color:#200E32"/>
	<stop  offset="0.5632" style="stop-color:#381D58"/>
	<stop  offset="1" style="stop-color:#39174E"/>
</linearGradient>
<path fill="url(#SVGID_45_)" d="M257.761,183.436c0,0,0.006,0.895,2.733,1.357c2.679,0.455,10.313,0.349,13.698,0.362
	c2.966,0.012,8.902,0.006,11.86-0.081c3.032-0.09,9.24-0.169,12.059-0.634c0.759-0.125,2.95-0.49,2.627-0.796
	c-0.384-0.364-2.86,0.221-3.821,0.276c-2.04,0.116-6.199,0.139-8.199,0.341c-0.219,0.022-0.614,0.121-0.836,0.138
	c-0.244,0.02-0.915,0.096-0.995,0c-0.061-0.073,0.467-0.131,0.597-0.187c0.108-0.047,0.397-0.149,0.358-0.211
	c-0.028-0.044-0.287-0.075-0.398-0.081c-0.252-0.014-0.746,0.063-0.995,0.081c-0.665,0.05-1.993,0.16-2.666,0.179
	c-0.745,0.021-2.325-0.175-2.985-0.032c-0.162,0.035-0.24,0.213-0.398,0.252c-0.453,0.111-1.58,0.077-2.109,0.073
	c-0.361-0.003-1.086-0.033-1.433-0.073c-0.379-0.044-1.433-0.268-1.433-0.268s-1.103-0.051-1.472-0.049
	c-0.741,0.004-2.231,0.05-2.945,0.13c-0.264,0.03-0.721,0.182-0.995,0.187c-0.222,0.004-0.642-0.078-0.836-0.122
	c-0.111-0.025-0.275-0.117-0.398-0.13c-0.419-0.045-1.279,0.125-1.712,0.114c-0.685-0.019-1.966-0.25-2.627-0.325
	c-0.465-0.053-1.392-0.22-1.87-0.195c-0.203,0.011-0.518,0.142-0.717,0.162C261.372,183.954,257.989,183.513,257.761,183.436z"/>
<path opacity="0.2" fill="#86D1E4" enable-background="new    " d="M261.631,182.495l16.925,0.127l21.342,0.636
	c0,0-0.565-0.295-1.01-0.355c-0.989-0.132-2.677-0.342-3.714-0.378c-1.09-0.038-3.42-0.114-4.376-0.03
	c-0.227,0.02,0.518-0.242,0.502-0.337c-0.013-0.081-0.735-0.181-0.934-0.183c-1.188-0.016-2.393,0.186-3.346,0.202
	c-0.406,0.007-1.223-0.042-1.611-0.091c-0.326-0.041-0.884-0.231-1.222-0.249c-0.675-0.036-1.986,0.222-2.666,0.227
	c-0.804,0.005-2.366-0.198-3.167-0.227c-0.831-0.03-2.508-0.048-3.333,0c-0.587,0.035-1.686,0.257-2.278,0.272
	c-0.533,0.014-1.577-0.128-2.111-0.136c-0.502-0.008-1.503,0.04-2,0.068c-0.435,0.025-1.285,0.15-1.723,0.136
	c-0.605-0.02-1.859-0.161-2.278-0.34c-0.191-0.082-0.1-0.37-0.333-0.431c-1.036-0.27-4.3,0.299-5.079,0.549
	c-0.915,0.295-1.392,1.198-1.392,1.198L261.631,182.495z"/>
<linearGradient id="SVGID_46_" gradientUnits="userSpaceOnUse" x1="551.7337" y1="-48.938" x2="551.7337" y2="-46.6569" gradientTransform="matrix(1 0 0 -1 -272.5 135.544)">
	<stop  offset="0.0486" style="stop-color:#200E32"/>
	<stop  offset="0.4258" style="stop-color:#210F33"/>
	<stop  offset="0.6005" style="stop-color:#231137"/>
	<stop  offset="0.7335" style="stop-color:#27143D"/>
	<stop  offset="0.8454" style="stop-color:#2D1745"/>
	<stop  offset="0.9429" style="stop-color:#341B50"/>
	<stop  offset="1" style="stop-color:#381D58"/>
</linearGradient>
<path fill="url(#SVGID_46_)" d="M300.738,183.645c-0.327,0.373-2.86,0.221-3.821,0.276c-2.04,0.116-6.199,0.139-8.199,0.341
	c-0.219,0.022-0.614,0.121-0.836,0.138c-0.244,0.02-0.915,0.096-0.995,0c-0.061-0.073,0.467-0.131,0.597-0.187
	c0.108-0.047,0.397-0.149,0.358-0.211c-0.028-0.044-0.287-0.075-0.398-0.081c-0.252-0.014-0.746,0.063-0.995,0.081
	c-0.665,0.05-1.993,0.16-2.666,0.179c-0.745,0.021-2.325-0.175-2.985-0.032c-0.162,0.035-0.24,0.213-0.398,0.252
	c-0.453,0.111-1.58,0.077-2.109,0.073c-0.361-0.003-1.086-0.033-1.433-0.073c-0.379-0.044-1.052-0.227-1.433-0.268
	c-0.357-0.038-1.103-0.051-1.472-0.049c-0.741,0.004-2.231,0.05-2.945,0.13c-0.264,0.03-0.721,0.182-0.995,0.187
	c-0.222,0.004-0.642-0.078-0.836-0.122c-0.111-0.025-0.275-0.117-0.398-0.13c-0.419-0.045-1.279,0.125-1.712,0.114
	c-0.685-0.019-1.966-0.25-2.627-0.325c-0.465-0.053-1.392-0.22-1.87-0.195c-0.203,0.011-0.518,0.142-0.717,0.162
	c-0.483,0.049-4.302,0.082-4.12-0.619c0.097-0.376,1.77-0.845,2.611-0.929c1.304-0.131,4.096,0.02,5.369,0.02
	c2.109,0,6.566-0.398,8.437,0c0.108,0.023,0.278,0.162,0.278,0.162s0.3-0.141,0.438-0.162c0.984-0.155,3.164-0.008,4.219,0
	c1.931,0.014,5.796,0.052,7.721,0.114c0.9,0.029,2.761,0.026,3.582,0.179c0.122,0.022,0.265,0.15,0.398,0.146
	c0.077-0.002,0.129-0.084,0.199-0.097c0.926-0.179,3.079-0.055,4.099-0.016c0.455,0.017,1.392,0.055,1.791,0.146
	c0.166,0.038,0.391,0.169,0.518,0.227c0.061,0.028,0.153,0.1,0.239,0.114c0.15,0.024,0.477-0.027,0.637-0.032
	c0.298-0.01,0.908-0.052,1.194-0.016c0.164,0.02,0.431,0.115,0.557,0.162c0.135,0.05,0.358,0.171,0.477,0.227
	C300.559,183.56,300.769,183.61,300.738,183.645z"/>
</svg>
