<?xml version="1.0" encoding="utf-8"?>
<!-- Generator: Adobe Illustrator 17.0.0, SVG Export Plug-In . SVG Version: 6.00 Build 0)  -->
<!DOCTYPE svg PUBLIC "-//W3C//DTD SVG 1.1//EN" "http://www.w3.org/Graphics/SVG/1.1/DTD/svg11.dtd">
<svg version="1.1" id="Layer_1" xmlns="http://www.w3.org/2000/svg" xmlns:xlink="http://www.w3.org/1999/xlink" x="0px" y="0px"
	 width="51.99px" height="51.808px" viewBox="229.416 244.986 51.99 51.808" enable-background="new 229.416 244.986 51.99 51.808"
	 xml:space="preserve">
<g>
	
		<linearGradient id="SVGID_1_" gradientUnits="userSpaceOnUse" x1="550.4074" y1="1812.0984" x2="505.4146" y2="1786.1216" gradientTransform="matrix(1 0 0 -1 -272.5 2070)">
		<stop  offset="0.0897" style="stop-color:#5194B0"/>
		<stop  offset="1" style="stop-color:#184787"/>
	</linearGradient>
	<ellipse fill="url(#SVGID_1_)" cx="255.411" cy="270.89" rx="25.995" ry="25.904"/>
	<path opacity="0.1" fill="#F7F7F6" enable-background="new    " d="M275.956,286.761c0,0-6.188,10.033-20.545,10.033
		s-25.995-11.598-25.995-25.904s11.638-25.904,25.995-25.904c0,0-5.221,14.187,0.959,27.233
		C262.447,285.048,275.956,286.761,275.956,286.761z"/>
	<path opacity="0.1" fill="#F7F7F6" enable-background="new    " d="M267.588,293.303c0,0-3.578,2.259-12.177,2.797
		c-14.328,0.897-25.995-11.431-25.995-25.531c0-14.101,9.171-18.862,12.778-21.99c0,0-9.381,17.605-2.932,30.414
		C248.176,296.696,267.588,293.303,267.588,293.303z"/>
</g>
</svg>
