<?xml version="1.0" encoding="utf-8"?>
<!-- Generator: Adobe Illustrator 17.0.0, SVG Export Plug-In . SVG Version: 6.00 Build 0)  -->
<!DOCTYPE svg PUBLIC "-//W3C//DTD SVG 1.1//EN" "http://www.w3.org/Graphics/SVG/1.1/DTD/svg11.dtd">
<svg version="1.1" id="Layer_1" xmlns="http://www.w3.org/2000/svg" xmlns:xlink="http://www.w3.org/1999/xlink" x="0px" y="0px"
	 width="1280px" height="1030.728px" viewBox="0 0 1280 1030.728" enable-background="new 0 0 1280 1030.728" xml:space="preserve">
<g>
	<path opacity="0.03" fill="#CEDDF0" d="M976.831,10.53C952,15.733,848.917,36.575,825.545,45.798
		C780.929,63.404,686.78,83.513,639.93,93.463c-31.087,6.602-93.729,17.818-125.319,21.147C180.313,149.836,22.19,67.056-1,58.642
		v47C11.586,128,192.716,165.045,276.784,187.189c33.882,8.925,234.704,30.947,269.627,33.341
		c65.094,4.462,192.698-41.263,257.934-40.323c32.325,0.465,93.62-12.964,125.695-17.021
		c117.912-14.917,86.263-54.473,225.88-82.396C1216.296,68.714,1281,105.642,1281,105.642v-47
		C1281,58.642,1169.23-29.782,976.831,10.53z"/>
	<path opacity="0.02" fill="#CEDDF0" d="M247.294,1026.044c33.812,8.11,104.223,0,138.964,0c19.431,0,58.338,1.325,77.726,0
		c21.935-1.499,65.166-11.558,87.147-11.966c30.169-0.561,89.983,10.469,120.122,11.966c38.228,1.9,114.822,0,153.096,0
		c55.35,0,166.137,3.137,221.401,0c37.64-2.137,112.586-11.308,149.856-17.069c20.825-3.219,85.394-15.334,85.394-15.334v-46
		c0,0-191.433-10.541-254.093-5.361c-41.208,3.406-121.352,27.206-162.518,31.112c-55.803,5.295-168.192-2.514-224.183,0
		c-30.012,1.347-90.025,5.991-119.695,10.77c-29.838,4.805-87.562,11.883-117.655,14.585c-35.345,3.173-107.163-1.759-141.866,5.758
		c-7.631,1.653-127.365,17.216-127.341,25.144C133.662,1033.662,243.45,1025.122,247.294,1026.044z"/>
	<path opacity="0.03" fill="#CEDDF0" d="M402.069,856.026c-63.43,3.497-88.611-12.249-112.008-13.776
		c-19.308-1.26-105.812-3.977-126.505-9.34C119.792,821.57-1,778.642-1,778.642v80c0,0,59.896,14.122,71.729,23.508
		c19.942,15.819,54.303,20.918,76.294,22.477c22.802,1.616,87.814,15.991,134.695,3.17c36.887-10.087,98.078,4.984,122.495-4.692
		c12.553-4.974,95.206-33.578,93.82-55.344C497.647,841.708,451.128,853.322,402.069,856.026z"/>
	<path opacity="0.03" fill="#CEDDF0" d="M1270.596,775.535c-10.758-1.414-27.678,0.806-36.741-0.009
		c-34.355-3.09-102.215-16.574-136.578-19.575c-53.469-4.671-166.847-9.408-219.916-1.383c-34.619,5.235-93.81,29.233-127.064,40.19
		c-19.886,6.552-47.103,19.091-67.336,24.478c-49.042,13.058-120.235,9.831-118.229,15.556
		c4.067,11.603,100.957,17.253,113.25,17.423c18.35,0.253,79.448-12.675,97.424-16.368c26.575-5.46,77.475-18.636,104.538-20.547
		c27.675-1.954,83.127,2.927,110.722,5.801c45.438,4.732,136.7,10.678,181.941,17.028c26.939,3.782,108.391,20.511,108.391,20.511
		v-80C1281,778.642,1272.932,775.843,1270.596,775.535z"/>
	<path opacity="0.02" fill="#CEDDF0" d="M-1,947.642c0,0,62.334,16.234,81.642,22.979c3.229,1.128,11.984,3.173,11.989,6.594
		c0.013,9.592-24.202,16.515-33.569,18.583C44.608,998.99-1,993.642-1,993.642V947.642z"/>
</g>
</svg>
