<?xml version="1.0" encoding="utf-8"?>
<!-- Generator: Adobe Illustrator 17.0.0, SVG Export Plug-In . SVG Version: 6.00 Build 0)  -->
<!DOCTYPE svg PUBLIC "-//W3C//DTD SVG 1.1//EN" "http://www.w3.org/Graphics/SVG/1.1/DTD/svg11.dtd">
<svg version="1.1" id="Layer_1" xmlns="http://www.w3.org/2000/svg" xmlns:xlink="http://www.w3.org/1999/xlink" x="0px" y="0px"
	 width="297.248px" height="298.658px" viewBox="156.925 594.616 297.248 298.658"
	 enable-background="new 156.925 594.616 297.248 298.658" xml:space="preserve">
<g>
	<g>
		
			<linearGradient id="SVGID_1_" gradientUnits="userSpaceOnUse" x1="6816.5767" y1="5805.7026" x2="7074.7236" y2="5953.522" gradientTransform="matrix(-0.2623 -0.965 -0.965 0.2623 7800.9897 5903.7881)">
			<stop  offset="0.0062" style="stop-color:#00A89D"/>
			<stop  offset="0.2032" style="stop-color:#0E6386"/>
			<stop  offset="0.2111" style="stop-color:#1A5E83"/>
			<stop  offset="0.2415" style="stop-color:#2E4C77"/>
			<stop  offset="0.272" style="stop-color:#373C6F"/>
			<stop  offset="0.3024" style="stop-color:#3C3069"/>
			<stop  offset="0.3328" style="stop-color:#3E2865"/>
			<stop  offset="0.3628" style="stop-color:#3E2664"/>
			<stop  offset="0.5465" style="stop-color:#36205A"/>
			<stop  offset="0.6965" style="stop-color:#2E194F"/>
			<stop  offset="0.85" style="stop-color:#25083F"/>
		</linearGradient>
		<path fill="url(#SVGID_1_)" d="M266.286,599.827c79.049-21.483,160.607,25.408,182.165,104.733
			c21.558,79.326-25.048,161.047-104.097,182.53s-160.607-25.408-182.165-104.733S187.237,621.31,266.286,599.827z"/>
		<path opacity="0.05" fill="#923D96" enable-background="new    " d="M326.242,596.338c0,0,88.607,7.518,122.209,108.222
			c22.87,68.541-25.048,161.047-104.097,182.53s-160.607-25.408-182.165-104.733c0,0,82.798,30.548,144.803-24.103
			C360.15,711.401,326.242,596.338,326.242,596.338z"/>
		<path opacity="0.05" fill="#F7F7F6" enable-background="new    " d="M391.933,623.728c0,0,39.068,26.762,54.954,73.464
			c26.47,77.819-26.394,169.207-104.306,190.381s-117.992-22.348-140.689-37.582c0,0,111.363,25.395,172.451-29.471
			C458.775,744.688,391.933,623.728,391.933,623.728z"/>
		
			<linearGradient id="SVGID_2_" gradientUnits="userSpaceOnUse" x1="8891.9424" y1="4335.896" x2="8897.7842" y2="4335.896" gradientTransform="matrix(-0.7042 -0.71 -0.71 0.7042 9750.4668 4075.6558)">
			<stop  offset="0" style="stop-color:#44AEBB"/>
			<stop  offset="0.343" style="stop-color:#51B4BA"/>
			<stop  offset="0.8965" style="stop-color:#6EC4B9"/>
			<stop  offset="1" style="stop-color:#73C9B9"/>
		</linearGradient>
		<path opacity="0.3" fill="url(#SVGID_2_)" enable-background="new    " d="M410.663,815.155c-1.289,2.113-3.402,3.173-4.721,2.369
			c-1.319-0.804-1.343-3.169-0.055-5.282c1.289-2.113,3.402-3.173,4.721-2.369C411.927,810.678,411.951,813.042,410.663,815.155z"/>
		
			<linearGradient id="SVGID_3_" gradientUnits="userSpaceOnUse" x1="-2518.3616" y1="-449.6805" x2="-2515.3943" y2="-444.5407" gradientTransform="matrix(0.5415 0.8407 0.8407 -0.5415 2147.3865 2687.4749)">
			<stop  offset="0" style="stop-color:#D14627"/>
			<stop  offset="0.2725" style="stop-color:#BC7B4F"/>
			<stop  offset="0.5271" style="stop-color:#A59D79"/>
			<stop  offset="0.7407" style="stop-color:#8FB499"/>
			<stop  offset="0.9049" style="stop-color:#7CC2AF"/>
			<stop  offset="1" style="stop-color:#73C9B9"/>
		</linearGradient>
		<path opacity="0.1" fill="url(#SVGID_3_)" enable-background="new    " d="M407.758,810.181c0,0,1.472-1.135,2.791-0.331
			s1.343,3.169,0.055,5.282c-1.289,2.113-3.402,3.173-4.721,2.369c0,0,3.289,0.798,4.394-4.056
			C411.165,809.538,407.758,810.181,407.758,810.181z"/>
		
			<linearGradient id="SVGID_4_" gradientUnits="userSpaceOnUse" x1="6839.4014" y1="5814.6167" x2="6850.5093" y2="5814.6167" gradientTransform="matrix(-0.2623 -0.965 -0.965 0.2623 7800.9897 5903.7881)">
			<stop  offset="0" style="stop-color:#44AEBB"/>
			<stop  offset="0.343" style="stop-color:#51B4BA"/>
			<stop  offset="0.8965" style="stop-color:#6EC4B9"/>
			<stop  offset="1" style="stop-color:#73C9B9"/>
		</linearGradient>
		<path opacity="0.15" fill="url(#SVGID_4_)" enable-background="new    " d="M397.003,828.109
			c-4.114,2.286-8.606,2.057-10.032-0.511c-1.427-2.568,0.752-6.503,4.866-8.788c4.114-2.286,8.606-2.057,10.032,0.511
			S401.117,825.824,397.003,828.109z"/>
		
			<linearGradient id="SVGID_5_" gradientUnits="userSpaceOnUse" x1="-207.0188" y1="-1473.0941" x2="-201.3751" y2="-1463.3187" gradientTransform="matrix(0.0562 0.9984 0.9984 -0.0562 1872.598 945.226)">
			<stop  offset="0" style="stop-color:#016C73"/>
			<stop  offset="0.2603" style="stop-color:#277D80"/>
			<stop  offset="0.8047" style="stop-color:#5EAEA5"/>
			<stop  offset="1" style="stop-color:#73C9B9"/>
		</linearGradient>
		<path opacity="0.1" fill="url(#SVGID_5_)" enable-background="new    " d="M396.942,817.254c0,0,3.5-0.496,4.927,2.072
			s-0.752,6.503-4.866,8.788c-4.114,2.286-8.606,2.057-10.032-0.511c0,0,4.692,4.407,11.075-2.587
			C403.181,819.388,396.942,817.254,396.942,817.254z"/>
	</g>
	
		<linearGradient id="SVGID_6_" gradientUnits="userSpaceOnUse" x1="9142.6787" y1="4003.4412" x2="9164.8164" y2="4003.4412" gradientTransform="matrix(-0.7752 -0.6317 -0.6317 0.7752 10059.3828 3445.6978)">
		<stop  offset="0" style="stop-color:#CEE9DA"/>
		<stop  offset="0.0469" style="stop-color:#C9E7D8"/>
		<stop  offset="0.4758" style="stop-color:#9CD6C7"/>
		<stop  offset="0.8076" style="stop-color:#7ECCBD"/>
		<stop  offset="1" style="stop-color:#73C9B9"/>
	</linearGradient>
	<path opacity="0.1" fill="url(#SVGID_6_)" enable-background="new    " d="M424.786,764.352
		c1.984-8.365,7.825-14.142,13.047-12.904c5.222,1.238,7.846,9.024,5.862,17.389s-7.825,14.142-13.047,12.904
		C425.427,780.502,422.802,772.717,424.786,764.352z"/>
	
		<linearGradient id="SVGID_7_" gradientUnits="userSpaceOnUse" x1="9149.6865" y1="3996.0537" x2="9159.9971" y2="4013.9114" gradientTransform="matrix(-0.7752 -0.6317 -0.6317 0.7752 10059.3828 3445.6978)">
		<stop  offset="0" style="stop-color:#0097A0"/>
		<stop  offset="0.3714" style="stop-color:#3CA6A8"/>
		<stop  offset="1" style="stop-color:#73C9B9"/>
	</linearGradient>
	<path opacity="0.1" fill="url(#SVGID_7_)" enable-background="new    " d="M439.505,777.64c0,0-3.642,5.333-8.864,4.094
		c-5.222-1.238-7.846-9.024-5.862-17.389s7.825-14.142,13.047-12.904c0,0-11.725,0.902-10.152,18.127
		C428.941,783.429,439.505,777.64,439.505,777.64z"/>
	<g opacity="0.1">
		
			<linearGradient id="SVGID_8_" gradientUnits="userSpaceOnUse" x1="606.7267" y1="1401.662" x2="606.7267" y2="1447.8361" gradientTransform="matrix(1 0 0 -1 -272.5 2070)">
			<stop  offset="0.2384" style="stop-color:#0E162B"/>
			<stop  offset="0.4993" style="stop-color:#101431"/>
			<stop  offset="0.7549" style="stop-color:#121335"/>
		</linearGradient>
		<path fill="url(#SVGID_8_)" d="M300.72,632.578c2.64-5.52,10.08-8.88,15.361-5.04c3.84-7.2,13.232-7.088,17.072-0.128
			c3.84-2.64,12.961-1.2,13.681,4.08c8.4,0.48,12.209,21.249,11.249,26.529c1.2-5.76,1.44-11.281,2.16-17.041
			c0.96-7.44,9.6-5.76,9.6,0.96c5.04-0.24,6.96,2.4,8.16,7.2c1.2,4.08,0.48,5.28-3.36,7.44c1.2,5.28-5.28,7.92-9.12,9.36
			c-1.68,0.72-3.6,1.92-5.28,2.16c-2.16,0.24-4.08-0.72-6.24,0.24c-3.36-11.521-20.578-13.997-30.179-10.397
			c6.058-10.905-20.223-18.164-33.904-10.004c2.16-4.8,5.76-8.64,10.32-11.521"/>
	</g>
	<g opacity="0.1">
		
			<linearGradient id="SVGID_9_" gradientUnits="userSpaceOnUse" x1="509.8162" y1="1342.2651" x2="509.8162" y2="1417.1404" gradientTransform="matrix(1 0 0 -1 -272.5 2070)">
			<stop  offset="0.2384" style="stop-color:#0E162B"/>
			<stop  offset="0.4993" style="stop-color:#101431"/>
			<stop  offset="0.7549" style="stop-color:#121335"/>
		</linearGradient>
		<path fill="url(#SVGID_9_)" d="M245.048,661.003c2.371-0.677,4.065,0.677,4.065,3.049c1.694-3.049,8.469-7.114,11.517-4.065
			c10.84-7.452,25.745,4.742,10.84,11.518c4.065-1.016,10.84-3.049,14.566-0.339c2.033-6.436,8.13-6.436,13.211-3.049
			c4.404,2.71,6.098,7.791,5.759,13.211c-0.677,8.469-11.856,15.582-18.97,19.647c-1.016-5.081-11.856-11.856-16.599-13.55
			c-7.452-2.371-15.582,1.016-22.019,0.339c-1.694-0.339-3.049-1.694-5.081-2.033c-1.694,0-4.404,1.694-6.097,2.371
			c-3.049,1.355-6.097,2.71-8.469,5.42c-5.081,5.081-6.097,14.905,1.355,18.631c-1.355,2.71,0,7.453,2.371,9.485
			c-8.469-3.726-14.905,0-21.341,6.097c-3.387-2.032-7.114-0.677-10.84-1.016c1.016-2.71,3.049-5.081,3.387-8.469
			c0-1.355-1.355-3.726-1.016-5.081c0.339-2.371,0.677-1.355,1.694-3.049c1.694-3.726,3.726-4.404,2.033-9.146
			c-0.678-1.694-2.71-1.694-3.049-3.049c-0.339-1.016,0.339-4.065,0.339-5.42c-0.678-7.453-6.097-14.227-13.211-7.791
			c-3.726,3.726-6.775,11.856-7.791,17.276c-1.355-1.355-3.387-2.032-5.081-1.355l-6.436-3.049
			c-1.355-3.726-0.678-10.501,4.742-7.791c1.016-5.42,6.775-9.824,11.179-12.195c6.775-3.726,9.146-2.71,15.921-1.355
			c0-8.469-1.016-11.856,8.469-11.856C210.495,664.391,221.117,640.878,245.048,661.003z"/>
	</g>
	<g opacity="0.1">
		
			<linearGradient id="SVGID_10_" gradientUnits="userSpaceOnUse" x1="531.579" y1="1257.5062" x2="531.579" y2="1354.3741" gradientTransform="matrix(1 0 0 -1 -272.5 2070)">
			<stop  offset="0.2384" style="stop-color:#0E162B"/>
			<stop  offset="0.4993" style="stop-color:#101431"/>
			<stop  offset="0.7549" style="stop-color:#121335"/>
		</linearGradient>
		<path fill="url(#SVGID_10_)" d="M301.031,740.571c0.499,3.996-0.999,4.995-3.996,1.998c-4.995,2.997-9.989-0.499-15.483,3.496
			c4.995,0,9.49,5.994,8.491,10.988c5.494,4.495-4.995,13.486-8.99,16.482c3.996,1.998,19.371-1.767,19.371,8.222
			c-5.939-1.741-4.813,1.946-4.198,8.397c-1.998-4.495-7.203-5.737-12.697-1.741c-5.494,3.496-8.025,11.851-9.523,14.848
			s-9.934,8.234-12.931,9.233c-1.998-5.994-6.493-2.997-10.489-2.997c-5.494-0.499-4.995-0.999-9.49-2.997
			c6.993-5.994-1.498-7.991-6.493-6.992c0.499-2.497,0-3.996,1.498-5.994c-3.496-1.998-2.997-5.494,0.499-6.493
			c-4.995-4.995,3.496-9.49,8.491-6.992c0.999-3.996,5.494-7.991,9.49-6.493c-1.998-2.497-3.327-7.921-4.811-9.918
			c0.499-3.496-1.88-6.182-3.877-7.257c-8.99,0-3.299-9.796-12.289-8.797c0.999-7.991-10.988-2.997-14.984-6.992
			s0-12.487,6.993-9.989c3.496-7.492,12.487-6.493,15.483,0.999c4.495-2.497,7.492,2.497,7.991,6.493
			c5.494-2.497,13.985,0.999,10.988,7.991c0.499-0.5,3.496-1.498,3.496-1.498c0.999-2.997,2.497-3.996,4.995-5.494
			c-1.998-7.492-15.983-14.984-23.475-12.986c0.999-0.5,1.498-1.998,2.997-2.497c-3.496-6.992,13.985-11.987,17.481-3.496
			c4.495-4.995,10.988-2.497,13.486,2.997c5.994-1.998,17.271,2.621,19.979,7.991C300.125,733.246,301.031,740.571,301.031,740.571z
			"/>
	</g>
	<g opacity="0.1">
		
			<linearGradient id="SVGID_11_" gradientUnits="userSpaceOnUse" x1="539.8105" y1="1419.9561" x2="539.8105" y2="1465.6455" gradientTransform="matrix(1 0 0 -1 -272.5 2070)">
			<stop  offset="0.2384" style="stop-color:#0E162B"/>
			<stop  offset="0.4993" style="stop-color:#101431"/>
			<stop  offset="0.7549" style="stop-color:#121335"/>
		</linearGradient>
		<path fill="url(#SVGID_11_)" d="M247.568,620.168c0.96-4.8,8.4-15.841,13.921-12.001c4.8-7.2,18.721-3.6,14.401,5.76
			c1.68,0.48,2.64,1.68,2.4,3.36c1.92-0.24,9.84,1.92,8.64,5.52c-0.24,0.96-3.84,1.2-4.8,2.16c-1.2,1.2-1.44,3.36-1.68,5.04
			c-8.4-9.12-13.199,15.957-14.639,20.037c-2.16-6.72-1.193-9.679-8.464-10.857c2.039-15.635-5.458-14.941-7.618-16.141"/>
	</g>
	<g opacity="0.1">
		
			<linearGradient id="SVGID_12_" gradientUnits="userSpaceOnUse" x1="679.1881" y1="1349.366" x2="679.1881" y2="1410.177" gradientTransform="matrix(1 0 0 -1 -272.5 2070)">
			<stop  offset="0.2384" style="stop-color:#0E162B"/>
			<stop  offset="0.4993" style="stop-color:#101431"/>
			<stop  offset="0.7549" style="stop-color:#121335"/>
		</linearGradient>
		<path fill="url(#SVGID_12_)" d="M365.855,670.014c-1.431,1.431,28.256-15.391,39.702-8.546c1.431,3.817,0.954,8.589-1.909,11.452
			c4.771-2.863,17.774-4.328,17.297,3.306c8.112-0.954,3.698,11.008-1.074,14.825c5.249-3.817,14.314-0.954,11.452,6.203
			c5.726,3.34,20.995,15.746,14.792,23.38c-4.771-5.249-10.02-3.817-16.223-6.68c-5.249-2.386-10.02-10.974-17.655-6.203
			c-4.294-3.34-11.929-4.772-16.7-2.386c-4.772,1.909-13.059-13.938-17.354-13.938c-4.771-0.477-0.814-2.927-12.266-6.267
			c4.893-3.31,12.82-10.089,7.816-13.878C371.595,669.663,365.855,670.014,365.855,670.014z"/>
	</g>
	<g opacity="0.1">
		
			<linearGradient id="SVGID_13_" gradientUnits="userSpaceOnUse" x1="611.5692" y1="1334.136" x2="611.5692" y2="1371.4136" gradientTransform="matrix(1 0 0 -1 -272.5 2070)">
			<stop  offset="0.2384" style="stop-color:#0E162B"/>
			<stop  offset="0.4993" style="stop-color:#101431"/>
			<stop  offset="0.7549" style="stop-color:#121335"/>
		</linearGradient>
		<path fill="url(#SVGID_13_)" d="M348.426,733.793c3.218-1.341,4.022-5.363,1.073-7.777c8.581,11.263,16.626-16.089,2.95-10.458
			c0-6.436-6.704-9.654-12.335-8.045c3.218-5.899-7.777-7.776-11.531-6.168c0-3.754-7.29-2.847-10.24-2.043
			c0,0,10.427,7.036,12.359,10.471c3.09,5.493,3.655,7.359,3.261,10.299c-0.301,2.247-2.423,7.801-2.423,7.801
			s4.482-0.077,7.744-4.539c0.908-1.242,1.809-7.069,1.809-7.069s2.808,3.229,2.997,9.815c0.077,2.685-1.716,9.784-1.716,9.784
			L348.426,733.793z"/>
	</g>
	<g opacity="0.1">
		
			<linearGradient id="SVGID_14_" gradientUnits="userSpaceOnUse" x1="455.2295" y1="1282.071" x2="455.2295" y2="1318.7915" gradientTransform="matrix(1 0 0 -1 -272.5 2070)">
			<stop  offset="0.2384" style="stop-color:#0E162B"/>
			<stop  offset="0.4993" style="stop-color:#101431"/>
			<stop  offset="0.7549" style="stop-color:#121335"/>
		</linearGradient>
		<path fill="url(#SVGID_14_)" d="M179.241,751.478c5.372-1.535,5.372,3.837,3.453,7.29c11.127-9.209,12.278,8.825,11.894,14.964
			c6.523,1.151,6.523,9.209,4.988,14.197c-3.837-7.674-10.743-12.662-19.568-10.743c0-5.755-9.976-14.58-14.964-8.058
			c0.384-4.988,1.151-11.511,6.523-13.429"/>
	</g>
	<g opacity="0.1">
		
			<linearGradient id="SVGID_15_" gradientUnits="userSpaceOnUse" x1="1177.9438" y1="3092.5562" x2="1177.9438" y2="3146.7849" gradientTransform="matrix(0.9182 -0.3962 -0.3962 -0.9182 471.9885 4179.7686)">
			<stop  offset="0.2384" style="stop-color:#0E162B"/>
			<stop  offset="0.4993" style="stop-color:#101431"/>
			<stop  offset="0.7549" style="stop-color:#121335"/>
		</linearGradient>
		<path fill="url(#SVGID_15_)" d="M276.985,846.463c-0.666,1.678,17.698-22.587,29.489-21.027c2.521,2.62,3.816,6.695,2.484,10.051
			c2.895-4.03,13.025-9.825,15.332-3.405c6.305-3.648,6.917,7.707,4.359,12.519c2.949-4.98,11.384-5.84,11.569,1.033
			c5.869,0.712,22.755,5.474,20.373,13.917c-5.762-2.612-9.554,0.415-15.644,0.263c-5.141-0.099-12.083-5.445-16.648,1.159
			c-4.697-1.217-11.454,0.308-14.517,3.948c-3.233,3.249-15.619-6.798-19.135-5.28c-4.076,1.295-1.701-2.109-12.258-0.797
			c2.837-4.44,6.932-12.791,1.496-14.126C281.561,844.147,276.985,846.463,276.985,846.463z"/>
	</g>
	<g opacity="0.1">
		
			<linearGradient id="SVGID_16_" gradientUnits="userSpaceOnUse" x1="690.8937" y1="1265.7031" x2="673.4046" y2="1295.995" gradientTransform="matrix(1 0 0 -1 -272.5 2070)">
			<stop  offset="0.2384" style="stop-color:#0E162B"/>
			<stop  offset="0.4993" style="stop-color:#101431"/>
			<stop  offset="0.7549" style="stop-color:#121335"/>
		</linearGradient>
		<path fill="url(#SVGID_16_)" d="M386.694,783.651c1.947-2.92,4.867-5.354,7.787-2.92c2.433-3.893,10.22-8.76,11.194-1.46
			c6.814-3.407,24.821,0,13.14,7.3c1.947-1.947,6.327-2.433,6.814-1.947l4.029,0.454c1.813-1.209,4.029-0.201,3.021,2.014
			c5.64-2.82,1.813,5.64,0.403,7.251c-3.827,4.633-9.669,6.849-14.906,9.266c-4.431,1.813-11.481,6.244-16.517,4.834
			c-4.23-1.209-4.834-6.446-9.87-6.043c2.014-5.64,0.201-6.446-5.036-6.043c0.403-2.014,1.41-4.23,0.403-6.244L386.694,783.651z"/>
	</g>
	<g opacity="0.1">
		
			<linearGradient id="SVGID_17_" gradientUnits="userSpaceOnUse" x1="1224.0939" y1="3081.8169" x2="1224.0939" y2="3115.0613" gradientTransform="matrix(0.9182 -0.3962 -0.3962 -0.9182 471.9885 4179.7686)">
			<stop  offset="0.2384" style="stop-color:#0E162B"/>
			<stop  offset="0.4993" style="stop-color:#101431"/>
			<stop  offset="0.7549" style="stop-color:#121335"/>
		</linearGradient>
		<path fill="url(#SVGID_17_)" d="M381.866,860.054c2.161-2.235,1.398-5.813-1.87-6.747c11.006,6.19,7.928-19.049-1.28-9.606
			c-2.274-5.27-8.901-5.536-12.943-2.228c0.55-5.968-9.116-3.62-11.621-0.976c-1.327-3.074-6.975,0.245-9.106,1.946
			c0,0,11.024,2.077,13.82,4.206c4.471,3.406,5.593,4.734,6.31,7.281c0.548,1.947,0.773,7.244,0.773,7.244s3.643-1.647,4.737-6.453
			c0.304-1.338-1.017-6.427-1.017-6.427s3.44,1.652,5.922,6.978c1.012,2.171,2.052,8.618,2.052,8.618L381.866,860.054z"/>
	</g>
	<g opacity="0.1">
		
			<linearGradient id="SVGID_18_" gradientUnits="userSpaceOnUse" x1="1241.9746" y1="2507.8098" x2="1241.9746" y2="2535.9243" gradientTransform="matrix(0.9171 -0.3986 -0.5575 -1.2827 625.3835 4480.3149)">
			<stop  offset="0.2384" style="stop-color:#0E162B"/>
			<stop  offset="0.4993" style="stop-color:#101431"/>
			<stop  offset="0.7549" style="stop-color:#121335"/>
		</linearGradient>
		<path fill="url(#SVGID_18_)" d="M357.911,744.929c1.973,2.26,5.966,1.135,6.117-2.222c1.295,0.13,7.691-7.493,8.272-8.438
			c1.411,2.677,3.274-0.73,4.126-1.62c1.516,2.632,1.918,3.843,4.504,3.239c1.481-0.297,3.75-1.63,4.389-3.293
			c3.26,0.662,8.501-3.522,4.845-8.514c3.152-0.157,3.662-6.961,3.541-10.373c1.085,4.205,2.649,8.375,3.526,12.671
			c1.175,5.552,0.254,9.416-1.605,13.688c-2.747,6.217-8.276,15.722-15.827,12.595c2.876-1.077,4.332-6.56,3.166-10.383
			c-2.388,2.77-3.562,6.052-6.642,8.083c-0.915,0.744-10.647,4.281-9.44-0.92c-2.206,1.478-6.302,4.158-7.826-0.203
			c0,0,0.374,6.719-4.547,18.316c-1.954,4.605-5.075,8.268-8.929,9.944c-1.458,0.634-3.75,1.63-5.402,0.962
			c-2.929-1.325-1.389-2.341-0.686-3.859c0.517-1.091,0.468-2.628,0.274-3.93c-0.956,0.935-2.057,2.106-3.474,2.549
			c-1.481,0.297-4.596-0.601-4.463-3.43c-2.124,1.096-6.724,5.233-13.965,0.354c-2.308-1.556-3.942-3.656-4.769-6.414
			c-0.574-2.175-0.943-8.022,1.344-7.166c1.355,0.508,3.562,6.938,11.947,5.546c2.208-0.367,3.393-2.167,3.756-4.75
			c-0.114,2.301,2.465,4.818,3.752,3.219c0.727,3.668,4.22,0.591,4.461-1.419c0.65,4.914,4.916,2.193,5.362-0.771
			c0.447,1.884,4.657-2.94,5.237-3.885c0.053,2.402,3.433,1.951,4.531,0.361C358.873,747.061,357.911,744.929,357.911,744.929z"/>
	</g>
	<g opacity="0.1">
		
			<linearGradient id="SVGID_19_" gradientUnits="userSpaceOnUse" x1="387.052" y1="-86.3314" x2="387.052" y2="-61.3193" gradientTransform="matrix(0.8581 0.5135 0.5135 -0.8581 -104.5378 534.634)">
			<stop  offset="0.2384" style="stop-color:#0E162B"/>
			<stop  offset="0.4993" style="stop-color:#101431"/>
			<stop  offset="0.7549" style="stop-color:#121335"/>
		</linearGradient>
		<path fill="url(#SVGID_19_)" d="M180.269,805.676c-0.659-2.624,2.054-11.257,3.175-6.796c0.292-2.724-1.126-8.924,3.172-9.027
			c0.226-2.986,2.782-6.139,5.998-5.552c1.871,0.227,7.42,3.994,3.353,5.574c1.51,0.458,3.547,3.015,3.418,4.721
			c-0.194,2.56-1.639,1.249-3.805,1.514c-2.69,0.397-9.246,6.508-10.066,6.017L180.269,805.676z"/>
	</g>
	<g opacity="0.1">
		
			<linearGradient id="SVGID_20_" gradientUnits="userSpaceOnUse" x1="640.2456" y1="1269.6691" x2="640.2456" y2="1312.7133" gradientTransform="matrix(1 0 0 -1 -272.5 2070)">
			<stop  offset="0.2384" style="stop-color:#0E162B"/>
			<stop  offset="0.4993" style="stop-color:#101431"/>
			<stop  offset="0.7549" style="stop-color:#121335"/>
		</linearGradient>
		<path fill="url(#SVGID_20_)" d="M361.125,760.67c2.115-0.423,2.538-2.115,4.229,0c1.692-4.229,10.15-5.075,8.036,0.846
			c8.036,1.692,2.115,10.15-3.383,10.996c4.229-0.423,8.036-3.806,11.419-5.075c8.036,4.652,2.538,12.265-5.498,13.111
			c11.842,2.96,4.229,15.225-2.538,9.727c-2.538,6.344-17.763,11.419-23.261,9.727c0.846-2.538,2.538-4.229,5.075-5.075
			c-2.115,0-2.538-1.269-4.229-1.692c2.538-3.806,8.036-5.921,10.15-9.304c1.269-1.692,2.96-9.727,1.692-12.688L361.125,760.67z"/>
	</g>
	<g opacity="0.1">
		
			<linearGradient id="SVGID_21_" gradientUnits="userSpaceOnUse" x1="498.2043" y1="1223.6089" x2="498.2043" y2="1262.9169" gradientTransform="matrix(1 0 0 -1 -272.5 2070)">
			<stop  offset="0.2384" style="stop-color:#0E162B"/>
			<stop  offset="0.4993" style="stop-color:#101431"/>
			<stop  offset="0.7549" style="stop-color:#121335"/>
		</linearGradient>
		<path fill="url(#SVGID_21_)" d="M235.571,844.205c3.393-1.414,4.241-5.655,1.131-8.2c9.048,11.876,17.531-16.965,3.11-11.027
			c0-6.786-7.069-10.179-13.007-8.483c3.393-6.221-8.2-8.2-12.158-6.503c0-3.959-7.687-3.002-10.797-2.154
			c0,0,10.994,7.419,13.032,11.041c3.258,5.792,3.854,7.76,3.439,10.86c-0.317,2.37-2.555,8.226-2.555,8.226
			s4.727-0.081,8.165-4.787c0.957-1.31,1.908-7.453,1.908-7.453s2.961,3.405,3.16,10.349c0.081,2.831-1.81,10.317-1.81,10.317
			L235.571,844.205z"/>
	</g>
</g>
</svg>
