<?xml version="1.0" encoding="utf-8"?>
<!-- Generator: Adobe Illustrator 17.0.0, SVG Export Plug-In . SVG Version: 6.00 Build 0)  -->
<!DOCTYPE svg PUBLIC "-//W3C//DTD SVG 1.1//EN" "http://www.w3.org/Graphics/SVG/1.1/DTD/svg11.dtd">
<svg version="1.1" id="Layer_2" xmlns="http://www.w3.org/2000/svg" xmlns:xlink="http://www.w3.org/1999/xlink" x="0px" y="0px"
	 width="24px" height="24px" viewBox="0 0 24 24" enable-background="new 0 0 24 24" xml:space="preserve">
<path fill="#FAB73E" d="M6.314,9.927V3.996c0,0,0-0.989,1.638-2.169c0.747-0.538,1.739-1.28,3.579-1.28
	c1.813,0,2.768,0.614,3.519,1.102c1.611,1.049,1.663,2.451,1.663,2.451l-0.03,5.826l-2.032,0l-0.065-5.735c0,0,0-0.604-0.586-1.067
	c-0.514-0.405-0.945-0.82-2.325-0.866c-1.412-0.048-2.122,0.527-2.61,0.902c-0.586,0.45-0.627,0.901-0.627,0.901L8.351,9.927
	L6.314,9.927z"/>
<path opacity="0.8" fill="#232323" d="M6.337,9.998V4.067c0,0,0-0.989,1.635-2.169c0.746-0.538,1.737-1.384,3.574-1.351
	c1.986,0.036,2.815,0.648,3.564,1.136c1.608,1.049,1.609,2.388,1.609,2.388l-0.03,5.926l-2.029,0l-0.065-5.735
	c0,0,0-0.604-0.585-1.067c-0.513-0.405-0.944-0.891-2.321-0.937c-1.409-0.048-2.142,0.568-2.629,0.942
	c-0.585,0.45-0.603,0.931-0.603,0.931L8.371,9.998L6.337,9.998z"/>
<path opacity="0.8" fill="#232323" d="M3.243,10.941c0.339-0.367,1.08-0.415,1.08-0.415h1.702h13.493c0,0,0.745,0.111,1.025,0.367
	c0.323,0.296,0.426,0.77,0.426,0.77v11.518c0,0-0.11,0.409-0.418,0.598c-0.25,0.154-0.843,0.219-0.843,0.219H4.449
	c0,0-0.566,0.026-0.977-0.261c-0.331-0.231-0.489-0.598-0.489-0.598L2.936,11.758C2.936,11.758,2.912,11.3,3.243,10.941z"/>
<path fill="#B32F34" d="M2.482,10.059c0.339-0.367,1.08-0.415,1.08-0.415h1.702h13.493c0,0,0.745,0.111,1.025,0.367
	c0.323,0.296,0.426,0.77,0.426,0.77V22.3c0,0-0.11,0.409-0.418,0.598c-0.25,0.154-0.843,0.219-0.843,0.219H3.688
	c0,0-0.566,0.026-0.977-0.261c-0.331-0.231-0.489-0.598-0.489-0.598L2.175,10.877C2.175,10.877,2.151,10.418,2.482,10.059z"/>
<path fill="#EA9E96" d="M5.614,9.645V3.714c0,0,0-0.989,1.633-2.169c0.745-0.538,1.734-1.28,3.568-1.28
	c1.808,0,2.759,0.614,3.508,1.102c1.606,1.049,1.658,2.451,1.658,2.451l-0.03,5.826l-2.026,0l-0.065-5.735c0,0,0-0.604-0.585-1.067
	c-0.512-0.405-0.942-0.82-2.317-0.866C9.549,1.929,8.841,2.504,8.355,2.878C7.771,3.328,7.73,3.779,7.73,3.779L7.644,9.645
	L5.614,9.645z"/>
<path fill="#BB3841" d="M3.259,10.761c0.309-0.335,0.983-0.378,0.983-0.378h1.551h12.29c0,0,0.679,0.101,0.933,0.335
	c0.294,0.27,0.388,0.702,0.388,0.702v10.491c0,0-0.101,0.372-0.38,0.545c-0.228,0.14-0.768,0.2-0.768,0.2H4.357
	c0,0-0.516,0.024-0.89-0.237c-0.302-0.21-0.445-0.545-0.445-0.545L2.979,11.506C2.979,11.506,2.957,11.089,3.259,10.761z"/>
<path opacity="0.8" fill="#232323" d="M10.068,18.378c0,0-0.004,0.024,0.027,0.047c0.016,0.011,0.091,0.011,0.091,0.011h1.484
	c0,0,0.064,0,0.096-0.013c0.014-0.006,0.02-0.044,0.02-0.044l-0.316-1.832c0,0,0.625-0.298,0.624-1.069
	c-0.001-0.396-0.339-0.997-1.161-0.997c-0.827,0-1.155,0.557-1.153,0.974c0.002,0.814,0.661,1.084,0.661,1.084L10.068,18.378z"/>
<polygon fill="#5D5D5D" points="5.614,9.645 5.614,9.391 7.673,9.391 7.654,9.645 "/>
<polygon fill="#5D5D5D" points="13.908,9.645 13.908,9.391 15.958,9.391 15.949,9.645 "/>
<path fill="#EA9E96" d="M3.1,14.676c0,0-0.406-2.953,0.672-3.834c0.583-0.476,4.43-0.449,4.43-0.449s-2.551,0.091-3.818,0.848
	C3.104,12.006,3.1,14.676,3.1,14.676z"/>
<path fill="#791F21" d="M9.418,22.663c0,0,6.695,0.001,8.923,0.025c0.22,0.002,0.658-0.089,0.833-0.279
	c0.087-0.095,0.23-0.333,0.229-0.461c-0.002-0.764,0-3.679,0-3.679s-1.274,1.898-1.904,2.299
	C15.738,21.687,9.418,22.663,9.418,22.663z"/>
<path fill="#5D5D5D" d="M10.095,18.425l1.598,0.011c0,0,0.059,0.001,0.085-0.02c0.019-0.015-0.002-0.092-0.002-0.092l-0.306-1.778
	c0,0,0.021,0.965-0.334,1.332C10.693,18.336,10.095,18.425,10.095,18.425z"/>
</svg>
