<?xml version="1.0" encoding="utf-8"?>
<!-- Generator: Adobe Illustrator 17.0.0, SVG Export Plug-In . SVG Version: 6.00 Build 0)  -->
<!DOCTYPE svg PUBLIC "-//W3C//DTD SVG 1.1//EN" "http://www.w3.org/Graphics/SVG/1.1/DTD/svg11.dtd">
<svg version="1.1" id="Layer_1" xmlns="http://www.w3.org/2000/svg" xmlns:xlink="http://www.w3.org/1999/xlink" x="0px" y="0px"
	 width="50px" height="50px" viewBox="0 0 50 50" enable-background="new 0 0 50 50" xml:space="preserve">
<g>
	<polygon fill="#473234" points="30.099,-0.018 25.623,5.926 18.517,5.182 10.422,9.02 6.037,15.829 5.137,21.277 6.271,23.855 
		5.137,27.715 0.081,38.032 3.788,40.962 12.153,41.594 16.943,49.257 27.175,50 30.773,48.514 35.496,50 42.579,46.905 
		43.816,47.524 48.538,42.324 50,34.648 45.165,27.219 40.555,24.743 39.431,15.334 38.196,14.241 37.22,10.679 37.407,7.905 
		30.998,-0.018 	"/>
	<g>
		<polygon fill="#5E484F" points="23.24,35.515 24.477,40.962 27.175,46.038 30.099,46.905 31.898,35.886 27.737,32.605 		"/>
		<polygon fill="#5E484F" points="32.973,26.986 32.973,26.986 33.057,26.289 32.856,27.007 		"/>
		<polygon fill="#F9B49C" points="30.773,6.172 30.099,10.877 34.203,15.334 35.383,15.334 37.407,10.629 37.407,7.905 
			30.998,-0.018 30.099,-0.018 30.099,4.315 		"/>
		<path fill="#7F4F56" d="M34.203,15.334l-4.104-4.457l-1.012,1.486l4.082,13l0,0l2.439,3.219l4.554,10.4l1.743-1.238V25.362
			l-1.349-0.619l-1.124-9.409l-1.012-1.238l-1.012-3.467l-2.024,4.705H34.203z M37.969,15.334l-0.562,8.79l-1.911,3.095
			l-0.562-9.905l0.562-1.362L37.969,15.334z"/>
		<polygon fill="#85625E" points="35.496,27.219 37.407,24.124 37.969,15.334 35.496,15.953 34.933,17.315 		"/>
		<polygon fill="#BA8B80" points="12.813,15.334 14.47,15.334 18.517,19.172 22.003,19.172 23.577,21.277 26.388,28.21 
			32.856,27.007 33.057,26.289 33.169,25.362 29.087,12.363 30.099,10.877 30.773,6.172 30.099,4.315 30.099,-0.018 25.489,5.305 
			22.003,5.244 21.307,5.791 18.476,5.791 16.943,7.101 17.43,9.621 17.843,13.101 16.212,11.918 14.245,9.02 13.692,9.876 
			12.446,10.091 10.422,9.02 12.446,15.334 		"/>
		<polygon fill="#875C5B" points="12.446,15.334 10.422,9.02 6.037,15.829 5.137,21.277 6.037,24.248 7.836,19.172 		"/>
		<polygon fill="#9C6460" points="12.446,28.21 12.672,29.997 16.156,34.648 17.73,34.648 16.943,37.124 17.843,46.038 
			23.69,46.905 24.477,40.962 23.24,35.515 20.495,32.592 26.388,28.21 23.577,21.277 25.505,26.031 22.674,21.277 19.452,19.981 
			16.943,19.121 15.144,16.634 13.497,16.634 10.422,19.121 8.792,19.121 6.037,24.248 8.792,29.696 		"/>
		<polygon fill="#3A292C" points="27.175,46.038 24.477,40.962 23.69,46.905 17.843,46.038 16.943,49.257 17.955,49.257 27.175,50 
			30.773,48.514 30.099,46.905 		"/>
		<polygon fill="#4D3736" points="16.943,37.124 17.73,34.648 16.156,34.648 12.672,29.997 14.245,42.448 14.245,43.067 
			14.245,45.481 16.943,49.257 17.843,46.038 		"/>
		<polygon fill="#473234" points="14.245,42.448 12.672,29.997 12.446,28.21 8.792,29.696 3.788,40.962 11.771,41.829 
			14.245,45.481 14.245,43.067 		"/>
		<polygon fill="#4D3736" points="6.037,24.248 5.137,27.715 0.081,38.032 3.788,40.962 8.792,29.696 		"/>
		<polygon fill="#473234" points="32.856,27.007 26.388,28.21 20.495,32.592 23.24,35.515 27.737,32.605 31.898,35.886 
			32.973,26.986 32.973,26.986 		"/>
		<polygon fill="#473234" points="45.165,27.219 41.905,25.362 41.905,37.743 42.579,46.905 43.816,47.524 48.538,42.324 50,34.648 
					"/>
		<polygon fill="#563C3C" points="40.162,38.981 35.608,28.581 33.169,25.362 33.169,25.362 33.057,26.289 32.973,26.986 
			31.898,35.886 30.099,46.905 30.773,48.514 35.496,50 42.579,46.905 41.905,37.743 		"/>
		<polygon fill="#E0B0A3" points="13.692,9.876 14.245,9.02 16.212,11.918 17.843,13.101 17.43,9.621 16.943,7.101 18.476,5.791 
			21.307,5.791 22.003,5.244 22.003,5.244 21.507,5.235 18.22,5.071 10.422,9.02 12.446,10.091 		"/>
		<polygon fill="#E0B0A3" points="10.422,19.121 13.497,16.634 15.144,16.634 16.943,19.121 19.452,19.981 22.674,21.277 
			25.505,26.031 23.577,21.277 22.003,19.172 18.517,19.172 14.47,15.334 12.813,15.334 12.446,15.334 7.836,19.172 6.037,24.248 
			8.792,19.121 		"/>
	</g>
</g>
<path fill="#24373B" d="M23.558,7.138c0.592,0.947,3.14,1.408,3.844,2.274c0.674,0.829,0.629,3.286,1.379,4.047
	c0.655,0.665,2.709,0.785,3.514,1.257c1.226,0.718,3.384,2.634,4.288,3.73c0.952,1.155,2.671,3.725,2.995,5.187
	c0.318,1.433-0.309,4.395-0.507,5.85c-0.248,1.815-0.319,5.496-0.633,7.301c-0.279,1.602,0.539,0.841,0.024,2.383
	c-0.394,1.179-0.29,1.885-0.181,3.123c0.053,0.607-0.304,0.548,0.217,0.866c0.445,0.271,0.188,1.138,0.489,0.713
	c0.286-0.404,0.148-1.134,0.065-1.622c-0.073-0.426,0.407-1.395,0.444-1.825c0.093-1.076-0.455-0.621-0.309-1.691
	c0.333-2.435,0.157-3.881,0.603-6.298c0.48-2.604,1.444-7.956,0.915-10.55c-0.326-1.601-2.659-3.876-3.81-5.036
	c-0.807-0.814-2.242-2.452-3.287-2.923c-1.144-0.515-3.892-0.768-4.718-1.713c-0.625-0.715-0.211-2.971-0.806-3.71
	c-0.713-0.886-3.673-0.855-4.137-1.894c-0.316-0.707,0.92-2.958,0.92-2.958l-1.552,0.514C23.316,4.163,23.162,6.506,23.558,7.138z"
	/>
<path fill="#034433" d="M28.955,9.012c0.793-0.153,2.402,0.436,3.137,0.772c0.739,0.338,2.235,1.181,2.652,1.878
	c0.237,0.396,0.067,1.398,0.227,1.83c0.247,0.665,1.571,2.361,1.571,2.361s-2.083-0.839-2.802-1.046
	c-0.863-0.248-2.705-0.343-3.517-0.725c-0.618-0.291-1.797-1.114-2.129-1.71c-0.309-0.554-0.567-1.936-0.313-2.517
	C27.926,9.524,28.6,9.081,28.955,9.012z"/>
<path fill="#076034" d="M27.821,7.535c0.793-0.153,2.402,0.436,3.137,0.772c0.739,0.338,2.235,1.181,2.652,1.878
	c0.237,0.396,0.067,1.398,0.227,1.83c0.247,0.665,1.571,2.361,1.571,2.361s-2.083-0.839-2.802-1.046
	c-0.863-0.248-2.705-0.343-3.517-0.725c-0.618-0.291-1.797-1.114-2.129-1.71c-0.309-0.554-0.567-1.936-0.313-2.517
	C26.793,8.047,27.467,7.603,27.821,7.535z"/>
<path fill="#0B6635" d="M26.712,8.269c0,0,0.066,1.416,0.23,1.853c0.129,0.344,0.546,0.974,0.822,1.217
	c0.451,0.397,1.575,0.89,2.144,1.083c0.657,0.223,2.071,0.288,2.727,0.514c0.739,0.255,2.774,1.44,2.774,1.44
	s-1.689-1.474-2.222-1.999c-0.287-0.283-0.795-0.916-1.097-1.183c-0.376-0.332-1.198-0.914-1.627-1.174
	c-0.337-0.204-1.052-0.534-1.408-0.703C28.474,9.044,26.712,8.269,26.712,8.269z"/>
<path fill="#034433" d="M38.02,35.636c-0.464-0.333-1.592,0.644-2.094,0.917c-0.869,0.474-2.796,1.335-3.302,2.186
	c-0.315,0.529-0.16,1.84-0.213,2.453c-0.045,0.522-0.181,2.09-0.181,2.09s1.938-0.738,2.548-1.061
	c0.748-0.396,2.398-1.127,2.832-1.853C38.219,39.349,38.985,36.328,38.02,35.636z"/>
<path fill="#076034" d="M38.873,34.434c-0.464-0.333-1.592,0.644-2.094,0.917c-0.869,0.474-2.796,1.335-3.302,2.186
	c-0.315,0.529-0.16,1.84-0.213,2.453c-0.045,0.522-0.181,2.09-0.181,2.09s1.938-0.738,2.548-1.061
	c0.748-0.396,2.398-1.127,2.832-1.853C39.072,38.147,39.838,35.126,38.873,34.434z"/>
<path fill="#0B6635" d="M38.863,34.88c0,0,0.326,1.015,0.319,1.366c-0.008,0.452-0.31,1.324-0.476,1.744
	c-0.153,0.387-0.478,1.182-0.778,1.47c-0.253,0.243-0.953,0.447-1.266,0.606c-0.62,0.313-1.857,0.949-2.454,1.305
	c-0.258,0.153-1,0.662-1,0.662s0.725-1.269,0.98-1.683c0.228-0.37,0.676-1.121,0.95-1.458c0.325-0.4,1.079-1.108,1.46-1.454
	c0.335-0.305,1.097-0.816,1.395-1.158C38.264,35.968,38.863,34.88,38.863,34.88z"/>
<path fill="#034433" d="M39.143,27.462c-0.44-0.402-1.792-0.33-2.375-0.206c-0.707,0.15-1.985,0.927-2.531,1.401
	c-0.45,0.39-1.224,1.344-1.438,1.9c-0.336,0.874-0.137,2.815-0.324,3.733c-0.136,0.667-0.844,2.588-0.844,2.588
	s1.829-0.81,2.447-1.061c0.741-0.3,2.354-0.646,2.991-1.129c0.551-0.418,1.211-1.687,1.64-2.23c0.263-0.333,0.986-0.884,1.096-1.294
	C40.05,30.256,39.838,28.096,39.143,27.462z"/>
<path fill="#009453" d="M39.397,26.489c-0.44-0.402-1.792-0.33-2.375-0.206c-0.707,0.15-1.985,0.927-2.531,1.401
	c-0.45,0.39-1.224,1.344-1.438,1.9c-0.336,0.874-0.137,2.815-0.324,3.733c-0.136,0.667-0.844,2.588-0.844,2.588
	s1.829-0.81,2.447-1.061c0.741-0.3,2.354-0.646,2.991-1.129c0.551-0.418,1.211-1.687,1.64-2.23c0.263-0.333,0.986-0.884,1.096-1.294
	C40.304,29.284,40.092,27.123,39.397,26.489z"/>
<path fill="#06AA5F" d="M39.32,26.714c0,0,0.498,1.576,0.543,2.122c0.028,0.335,0.01,1.028-0.116,1.34
	c-0.214,0.528-1.076,1.328-1.441,1.766c-0.367,0.44-1.013,1.425-1.489,1.745c-0.762,0.511-2.669,0.728-3.487,1.145
	c-0.285,0.145-1.038,0.748-1.038,0.748s1.89-1.897,2.47-2.575c0.347-0.405,0.951-1.288,1.295-1.696
	c0.373-0.444,1.23-1.237,1.576-1.703C38.13,28.933,39.32,26.714,39.32,26.714z"/>
<path fill="#034433" d="M23.912,4.415c-0.535-0.214-1.741-0.018-2.301,0.118C21.048,4.67,19.886,5.059,19.5,5.492
	c-0.219,0.245-0.235,0.97-0.406,1.252c-0.262,0.432-1.418,1.442-1.418,1.442s1.572-0.307,2.104-0.355
	c0.638-0.058,1.941,0.124,2.561-0.034c0.472-0.121,1.409-0.538,1.722-0.911c0.291-0.346,0.658-1.28,0.558-1.721
	C24.564,4.912,24.151,4.511,23.912,4.415z"/>
<path fill="#076034" d="M24.905,3.533c-0.535-0.214-1.741-0.018-2.301,0.118c-0.563,0.137-1.725,0.526-2.111,0.958
	c-0.219,0.245-0.235,0.97-0.406,1.252c-0.262,0.432-1.418,1.442-1.418,1.442s1.572-0.307,2.104-0.355
	c0.638-0.058,1.941,0.124,2.561-0.034c0.472-0.121,1.409-0.538,1.722-0.911c0.291-0.346,0.658-1.28,0.558-1.721
	C25.557,4.03,25.144,3.628,24.905,3.533z"/>
<path fill="#0B6635" d="M25.584,4.196c0,0-0.237,0.983-0.411,1.267c-0.137,0.223-0.514,0.609-0.74,0.742
	c-0.369,0.217-1.223,0.411-1.648,0.47c-0.49,0.068-1.489-0.078-1.979-0.007c-0.552,0.079-2.137,0.635-2.137,0.635
	s1.382-0.805,1.826-1.101c0.239-0.16,0.68-0.534,0.928-0.681c0.308-0.182,0.962-0.479,1.298-0.603
	c0.263-0.097,0.809-0.233,1.081-0.303C24.244,4.502,25.584,4.196,25.584,4.196z"/>
<path fill="#24373B" d="M39.472,40.808c-0.461-0.006-1.206,0.732-1.479,1.104c-0.331,0.451-0.67,1.558-0.742,2.114
	c-0.059,0.457-0.015,1.408,0.148,1.839c0.256,0.679,1.371,1.698,1.736,2.325C39.4,48.645,40.933,50,40.933,50
	s-0.313-1.291-0.085-1.754c0.274-0.555,1.028-1.586,1.147-2.194c0.103-0.526-0.169-1.599-0.201-2.134
	c-0.02-0.328,0.114-1.019-0.033-1.312C41.435,41.956,40.2,40.817,39.472,40.808z"/>
<path fill="#009453" d="M39.61,39.77c-0.461-0.006-1.206,0.732-1.479,1.104c-0.331,0.451-0.67,1.558-0.742,2.114
	c-0.059,0.457-0.015,1.408,0.148,1.839c0.256,0.679,1.371,1.698,1.736,2.325c0.265,0.455,1.799,1.811,1.799,1.811
	s-0.313-1.29-0.085-1.754c0.274-0.555,1.028-1.586,1.147-2.194c0.103-0.526-0.169-1.599-0.201-2.134
	c-0.02-0.328,0.114-1.019-0.033-1.312C41.574,40.918,40.338,39.779,39.61,39.77z"/>
<path fill="#06AA5F" d="M39.681,39.94c0,0,1.1,0.654,1.407,0.947c0.189,0.18,0.536,0.589,0.623,0.834
	c0.148,0.416,0.062,1.322,0.077,1.763c0.014,0.444,0.149,1.346,0.038,1.776c-0.177,0.688-0.581,1.287-0.839,1.949
	c-0.09,0.231,0.036,1.526,0.036,1.526s-0.723-2.12-0.736-2.81c-0.008-0.413-0.113-1.235-0.125-1.647
	c-0.013-0.449,0.074-1.349,0.034-1.796C40.136,41.836,39.681,39.94,39.681,39.94z"/>
<path fill="#034433" d="M21.95,9.044c-0.241-0.35-1.192-0.517-1.617-0.524c-0.516-0.009-1.528,0.325-1.984,0.567
	c-0.375,0.199-1.066,0.738-1.304,1.09c-0.374,0.554-0.547,1.934-0.824,2.542c-0.201,0.442-1.002,1.663-1.002,1.663
	s1.401-0.27,1.871-0.344c0.563-0.09,1.74-0.071,2.26-0.305c0.45-0.202,1.112-0.978,1.498-1.287c0.236-0.189,0.827-0.456,0.969-0.723
	C22.132,11.132,22.331,9.597,21.95,9.044z"/>
<path fill="#009453" d="M22.283,8.409c-0.241-0.35-1.192-0.517-1.617-0.524c-0.516-0.009-1.528,0.325-1.984,0.567
	c-0.375,0.199-1.066,0.738-1.304,1.09c-0.374,0.554-0.547,1.934-0.824,2.542c-0.201,0.442-1.002,1.663-1.002,1.663
	s1.401-0.27,1.871-0.344c0.563-0.09,1.74-0.071,2.26-0.305c0.45-0.202,1.112-0.978,1.498-1.287c0.236-0.189,0.827-0.456,0.969-0.723
	C22.465,10.497,22.664,8.961,22.283,8.409z"/>
<path fill="#06AA5F" d="M22.193,8.553c0,0,0.093,1.176,0.037,1.562c-0.035,0.237-0.158,0.716-0.296,0.913
	c-0.234,0.333-0.961,0.75-1.285,0.996c-0.326,0.247-0.933,0.828-1.315,0.973c-0.612,0.233-1.972,0.078-2.607,0.236
	c-0.221,0.055-0.842,0.353-0.842,0.353s1.618-1.015,2.13-1.393c0.306-0.226,0.868-0.742,1.172-0.971
	c0.331-0.249,1.054-0.662,1.368-0.931C21.01,9.904,22.193,8.553,22.193,8.553z"/>
<path fill="#034433" d="M40.016,22.236c0.528-0.121,1.553,0.488,2.043,0.718c0.317,0.149,0.999,0.434,1.201,0.721
	c0.217,0.309,0.231,1.111,0.292,1.484c0.056,0.341,0.174,1.024,0.182,1.369c0.006,0.285-0.098,1.134-0.098,1.134
	s-1.49-0.441-2.004-0.474c-0.396-0.026-1.206,0.302-1.578,0.164c-0.527-0.196-1.357-1.106-1.542-1.637
	c-0.177-0.509-0.04-1.66,0.186-2.149C38.895,23.14,39.56,22.341,40.016,22.236z"/>
<path fill="#009453" d="M40.282,21.62c0.528-0.121,1.553,0.488,2.043,0.718c0.317,0.149,0.999,0.434,1.201,0.721
	c0.217,0.309,0.231,1.111,0.292,1.484c0.056,0.341,0.174,1.024,0.182,1.369c0.007,0.285-0.098,1.134-0.098,1.134
	s-1.49-0.441-2.004-0.474c-0.396-0.026-1.206,0.302-1.578,0.164c-0.527-0.196-1.357-1.106-1.542-1.637
	c-0.177-0.509-0.04-1.66,0.186-2.149C39.161,22.524,39.826,21.725,40.282,21.62z"/>
<path fill="#06AA5F" d="M40.144,21.876c0,0,0.825,0.08,1.084,0.169c0.441,0.151,1.208,0.708,1.63,0.905
	c0.105,0.049,0.357,0.079,0.434,0.165c0.148,0.164,0.165,0.642,0.225,0.855c0.103,0.367,0.398,1.08,0.437,1.459
	c0.034,0.331-0.071,0.995-0.115,1.325c-0.009,0.066-0.047,0.261-0.047,0.261s-0.562-1.38-0.809-1.81
	c-0.204-0.353-0.656-1.044-0.954-1.322c-0.283-0.265-1.058-0.53-1.317-0.819C40.493,22.818,40.144,21.876,40.144,21.876z"/>
</svg>
