<?xml version="1.0" encoding="utf-8"?>
<!-- Generator: Adobe Illustrator 17.0.0, SVG Export Plug-In . SVG Version: 6.00 Build 0)  -->
<!DOCTYPE svg PUBLIC "-//W3C//DTD SVG 1.1//EN" "http://www.w3.org/Graphics/SVG/1.1/DTD/svg11.dtd">
<svg version="1.1" id="Layer_3" xmlns="http://www.w3.org/2000/svg" xmlns:xlink="http://www.w3.org/1999/xlink" x="0px" y="0px"
	 width="24px" height="24px" viewBox="0 0 24 24" enable-background="new 0 0 24 24" xml:space="preserve">
<g opacity="0.8">
	<circle fill="none" cx="11.716" cy="7.33" r="3.624"/>
	<g>
		<circle fill="none" cx="11.705" cy="7.33" r="3.624"/>
		<g>
			<circle fill="none" cx="11.705" cy="7.33" r="3.624"/>
			<path fill="#232323" d="M17.167,15.616l-4.246-0.032c0.023-0.758,0.052-1.387,0.077-1.854c2.944-0.606,5.159-3.241,5.159-6.401
				c0-3.607-2.889-6.532-6.452-6.532c-3.564,0-6.452,2.924-6.452,6.532c0,3.247,2.341,5.939,5.407,6.445
				c0.037,2.379,0.13,9.353,0.13,9.353s0.017,0.05,0.041,0.061c0.028,0.014,0.177,0.027,0.177,0.027l1.638-0.005
				c0,0,0.055,0.003,0.13-0.02c0.03-0.009,0.048-0.058,0.048-0.058l-0.001-2.72c0,0,0.003-0.189,0.009-0.504l-0.005,1.863h4.322
				c0,0,0.092-0.034,0.167-0.084c0.048-0.032,0.072-0.156,0.072-0.156V19.75c0,0-0.013-0.11-0.08-0.181
				c-0.056-0.06-0.167-0.08-0.167-0.08l-4.3-0.032l0.032-1.59l4.303,0.032c0,0,0.092-0.034,0.167-0.084
				c0.048-0.032,0.072-0.156,0.072-0.156v-1.783c0,0-0.013-0.11-0.08-0.181C17.279,15.636,17.167,15.616,17.167,15.616z
				 M11.705,10.954c-2.002,0-3.624-1.623-3.624-3.624s1.623-3.624,3.624-3.624c2.002,0,3.624,1.623,3.624,3.624
				S13.706,10.954,11.705,10.954z"/>
		</g>
	</g>
</g>
<path fill="#0D6A36" d="M12.397,15.013l4.341,0.032c0,0,0.112,0.02,0.168,0.08c0.067,0.071,0.08,0.181,0.08,0.181v1.783
	c0,0-0.024,0.124-0.072,0.156c-0.075,0.05-0.168,0.084-0.168,0.084h-4.349L12.397,15.013z"/>
<path fill="#0D6A36" d="M12.341,18.833l4.397,0.032c0,0,0.112,0.02,0.168,0.08c0.067,0.071,0.08,0.181,0.08,0.181v1.783
	c0,0-0.024,0.124-0.072,0.156c-0.075,0.05-0.168,0.084-0.168,0.084h-4.405V18.833z"/>
<path fill="#0D6A36" d="M11.284,0C7.72,0,4.832,2.924,4.832,6.532c0,3.607,2.889,6.532,6.452,6.532s6.452-2.924,6.452-6.532
	C17.736,2.924,14.847,0,11.284,0z M11.284,10.156c-2.002,0-3.624-1.623-3.624-3.624s1.623-3.624,3.624-3.624
	c2.002,0,3.624,1.623,3.624,3.624S13.286,10.156,11.284,10.156z"/>
<path fill="#0D6A36" d="M12.599,12.918c0,0-0.062,0.059-0.063,0.071c-0.091,1.721-0.176,6.718-0.176,6.718l0.001,2.73
	c0,0-0.017,0.049-0.048,0.059c-0.074,0.023-0.13,0.02-0.13,0.02l-1.638,0.005c0,0-0.149-0.014-0.177-0.027
	c-0.024-0.012-0.041-0.062-0.041-0.062s-0.095-7.071-0.131-9.424c0-0.015-0.034-0.229-0.034-0.229"/>
<polygon fill="#0C522A" points="10.332,12.805 10.545,22.519 10.819,22.518 10.769,12.87 "/>
<polygon fill="#16B24F" points="10.662,12.86 10.819,22.518 11.42,22.518 11.38,12.929 "/>
<path fill="#0C522A" d="M12.346,3.066c1.086,0.206,3.245,1.459,3.026,3.998c-0.212,2.469-3.22,3.783-5.138,2.938
	c0,0,0.798,0.242,1.589,0.115c0.769-0.124,1.571-0.57,2.024-1.022c0.27-0.27,0.633-0.747,0.883-1.437
	c0.216-0.597,0.172-1.54,0.068-2.016c-0.086-0.393-0.411-1.144-0.882-1.601C13.365,3.506,12.346,3.066,12.346,3.066z"/>
<path fill="#16B24F" d="M11.758,12.628C8.4,12.853,5.374,10.332,5.151,7.015s2.868-6.771,6.001-6.585c0,0-0.848,0.13-1.923,0.682
	C8.089,1.696,7.082,3.334,6.691,4.253C6.458,4.801,6.121,5.717,6.24,6.829c0.106,0.996,0.577,2.422,0.978,3.069
	c0.331,0.533,1.328,1.514,1.863,1.843C9.689,12.116,11.758,12.628,11.758,12.628z"/>
</svg>
