<?xml version="1.0" encoding="utf-8"?>
<!-- Generator: Adobe Illustrator 17.0.0, SVG Export Plug-In . SVG Version: 6.00 Build 0)  -->
<!DOCTYPE svg PUBLIC "-//W3C//DTD SVG 1.1//EN" "http://www.w3.org/Graphics/SVG/1.1/DTD/svg11.dtd">
<svg version="1.1" id="Layer_1" xmlns="http://www.w3.org/2000/svg" xmlns:xlink="http://www.w3.org/1999/xlink" x="0px" y="0px"
	 width="50px" height="50px" viewBox="0 0 50 50" enable-background="new 0 0 50 50" xml:space="preserve">
<g>
	
		<linearGradient id="SVGID_1_" gradientUnits="userSpaceOnUse" x1="1777.4554" y1="-380.4622" x2="1779.6066" y2="-380.4622" gradientTransform="matrix(-1 0 0 -1 1786.2352 -358)">
		<stop  offset="0" style="stop-color:#404041"/>
		<stop  offset="0.1713" style="stop-color:#474748"/>
		<stop  offset="0.4287" style="stop-color:#5A5B5D"/>
		<stop  offset="0.4998" style="stop-color:#616264"/>
		<stop  offset="0.6819" style="stop-color:#59595B"/>
		<stop  offset="0.9766" style="stop-color:#424243"/>
		<stop  offset="1" style="stop-color:#404041"/>
	</linearGradient>
	<path fill="url(#SVGID_1_)" d="M7.807,3.016c0,0,0.314-0.008,0.59,0.209C8.728,3.487,8.78,3.893,8.78,3.893v38.016l-2.151-0.004
		V3.889c0,0,0.051-0.405,0.383-0.668c0.276-0.218,0.596-0.201,0.596-0.201L7.807,3.016z"/>
	
		<linearGradient id="SVGID_2_" gradientUnits="userSpaceOnUse" x1="294.0771" y1="-373.5894" x2="319.0828" y2="-373.5894" gradientTransform="matrix(1 0 0 -1 -285.5 -358)">
		<stop  offset="0" style="stop-color:#F0C119"/>
		<stop  offset="0.0842" style="stop-color:#EFC924"/>
		<stop  offset="0.339" style="stop-color:#EDDE40"/>
		<stop  offset="0.487" style="stop-color:#ECE64A"/>
		<stop  offset="0.6141" style="stop-color:#EEE142"/>
		<stop  offset="0.8061" style="stop-color:#F4D22E"/>
		<stop  offset="1" style="stop-color:#FBBE12"/>
	</linearGradient>
	<path fill="url(#SVGID_2_)" d="M8.635,5.471c0,0,4.645-2.218,10.094-2.61c5.392-0.387,10.553,1.435,10.553,1.435l4.301,19.964
		c0,0-7.094-2.092-13.42-0.718c-5.105,1.109-11.585,4.828-11.585,4.828L8.635,5.471z"/>
	
		<linearGradient id="SVGID_3_" gradientUnits="userSpaceOnUse" x1="312.6597" y1="-385.067" x2="319.0828" y2="-385.067" gradientTransform="matrix(1 0 0 -1 -285.5 -358)">
		<stop  offset="0" style="stop-color:#E88624"/>
		<stop  offset="0.487" style="stop-color:#F5A619"/>
		<stop  offset="0.7528" style="stop-color:#F4A41A"/>
		<stop  offset="0.8705" style="stop-color:#F19D1C"/>
		<stop  offset="0.9586" style="stop-color:#ED9020"/>
		<stop  offset="1" style="stop-color:#E98723"/>
	</linearGradient>
	<path fill="url(#SVGID_3_)" d="M27.331,30.981l6.252-6.72c0,0-2.434-0.757-3.26-0.899c-0.783-0.134-3.163-0.21-3.163-0.21
		L27.331,30.981z"/>
	
		<linearGradient id="SVGID_4_" gradientUnits="userSpaceOnUse" x1="312.8311" y1="-379.0604" x2="332.1197" y2="-379.0604" gradientTransform="matrix(1 0 0 -1 -285.5 -358)">
		<stop  offset="0" style="stop-color:#F0C119"/>
		<stop  offset="0.188" style="stop-color:#F1BD19"/>
		<stop  offset="0.3737" style="stop-color:#F3B119"/>
		<stop  offset="0.487" style="stop-color:#F5A619"/>
		<stop  offset="0.5482" style="stop-color:#F6AB18"/>
		<stop  offset="0.7925" style="stop-color:#FAB913"/>
		<stop  offset="1" style="stop-color:#FBBE12"/>
	</linearGradient>
	<path fill="url(#SVGID_4_)" d="M30.903,12.016c0,0,1.763-0.757,5.357-0.866c4.306-0.129,7.07,1.2,7.07,1.2l-2.701,7.655
		l5.992,7.934c0,0-5.286-1.511-9.08-0.833c-4.878,0.873-10.208,3.873-10.208,3.873l6.224-6.673L30.903,12.016z"/>
	
		<linearGradient id="SVGID_5_" gradientUnits="userSpaceOnUse" x1="288.2447" y1="-403.3676" x2="298.1264" y2="-403.3676" gradientTransform="matrix(1 0 0 -1 -285.5 -358)">
		<stop  offset="0" style="stop-color:#404041"/>
		<stop  offset="0.1713" style="stop-color:#474748"/>
		<stop  offset="0.4287" style="stop-color:#5A5B5D"/>
		<stop  offset="0.4998" style="stop-color:#616264"/>
		<stop  offset="0.6819" style="stop-color:#59595B"/>
		<stop  offset="0.9766" style="stop-color:#424243"/>
		<stop  offset="1" style="stop-color:#404041"/>
	</linearGradient>
	<path fill="url(#SVGID_5_)" d="M11.31,43.811c0,0,0.494,0.044,0.95,0.734c0.552,0.836,0.317,2.016,0.317,2.016
		s-2.261,0.324-4.916,0.364c-2.69,0.04-4.869-0.354-4.869-0.354s-0.23-1.194,0.322-2.03c0.456-0.69,0.95-0.734,0.95-0.734
		L11.31,43.811z"/>
	
		<linearGradient id="SVGID_6_" gradientUnits="userSpaceOnUse" x1="1775.9734" y1="-400.8768" x2="1781.0903" y2="-400.8768" gradientTransform="matrix(-1 0 0 -1 1786.2352 -358)">
		<stop  offset="0" style="stop-color:#353435"/>
		<stop  offset="0.5606" style="stop-color:#404041"/>
		<stop  offset="0.9466" style="stop-color:#39393A"/>
		<stop  offset="1" style="stop-color:#383738"/>
	</linearGradient>
	<path fill="url(#SVGID_6_)" d="M8.799,41.68c0,0,0.745-0.056,1.211,0.739c0.351,0.599,0.232,1.401,0.232,1.401
		s-1.347,0.238-2.441,0.253c-1.368,0.019-2.637-0.25-2.637-0.25s-0.119-0.809,0.232-1.407c0.466-0.794,1.227-0.726,1.227-0.726
		s0.631,0.096,1.096,0.085C8.14,41.764,8.799,41.68,8.799,41.68z"/>
</g>
</svg>
