<?xml version="1.0" encoding="utf-8"?>
<!-- Generator: Adobe Illustrator 17.0.0, SVG Export Plug-In . SVG Version: 6.00 Build 0)  -->
<!DOCTYPE svg PUBLIC "-//W3C//DTD SVG 1.1//EN" "http://www.w3.org/Graphics/SVG/1.1/DTD/svg11.dtd">
<svg version="1.1" id="Layer_1" xmlns="http://www.w3.org/2000/svg" xmlns:xlink="http://www.w3.org/1999/xlink" x="0px" y="0px"
	 width="50px" height="50px" viewBox="0 0 50 50" enable-background="new 0 0 50 50" xml:space="preserve">
<g>
	
		<linearGradient id="SVGID_1_" gradientUnits="userSpaceOnUse" x1="2037.3223" y1="22.2089" x2="2039.6687" y2="22.2089" gradientTransform="matrix(-1 0 0 1 2044.7352 0)">
		<stop  offset="0" style="stop-color:#404041"/>
		<stop  offset="0.1713" style="stop-color:#474748"/>
		<stop  offset="0.4287" style="stop-color:#5A5B5D"/>
		<stop  offset="0.4998" style="stop-color:#616264"/>
		<stop  offset="0.6819" style="stop-color:#59595B"/>
		<stop  offset="0.9766" style="stop-color:#424243"/>
		<stop  offset="1" style="stop-color:#404041"/>
	</linearGradient>
	<path fill="url(#SVGID_1_)" stroke="#FFFFFF" stroke-miterlimit="10" d="M6.352,1.001c0,0,0.342-0.009,0.643,0.228
		c0.362,0.286,0.418,0.728,0.418,0.728l0,41.46l-2.346-0.004l0-41.46c0,0,0.056-0.442,0.418-0.728
		c0.301-0.238,0.65-0.219,0.65-0.219L6.352,1.001z"/>
	<linearGradient id="SVGID_2_" gradientUnits="userSpaceOnUse" x1="7.4342" y1="14.6431" x2="34.4633" y2="14.6431">
		<stop  offset="0" style="stop-color:#F0C119"/>
		<stop  offset="0.0842" style="stop-color:#EFC924"/>
		<stop  offset="0.339" style="stop-color:#EDDE40"/>
		<stop  offset="0.487" style="stop-color:#ECE64A"/>
		<stop  offset="0.6141" style="stop-color:#EEE142"/>
		<stop  offset="0.8061" style="stop-color:#F4D22E"/>
		<stop  offset="1" style="stop-color:#FBBE12"/>
	</linearGradient>
	<path fill="url(#SVGID_2_)" stroke="#FFFFFF" stroke-miterlimit="10" d="M7.434,3.7c0,0,4.887-2.44,10.829-2.867
		c5.88-0.422,11.509,1.565,11.509,1.565l4.691,21.773c0,0-7.737-2.282-14.636-0.783c-5.567,1.21-12.38,5.124-12.38,5.124L7.434,3.7z
		"/>
	<linearGradient id="SVGID_3_" gradientUnits="userSpaceOnUse" x1="27.458" y1="27.2306" x2="34.4633" y2="27.2306">
		<stop  offset="0" style="stop-color:#E88624"/>
		<stop  offset="0.487" style="stop-color:#F5A619"/>
		<stop  offset="0.7528" style="stop-color:#F4A41A"/>
		<stop  offset="0.8705" style="stop-color:#F19D1C"/>
		<stop  offset="0.9586" style="stop-color:#ED9020"/>
		<stop  offset="1" style="stop-color:#E98723"/>
	</linearGradient>
	<path fill="url(#SVGID_3_)" stroke="#FFFFFF" stroke-miterlimit="10" d="M27.646,31.5l6.818-7.329c0,0-2.654-0.826-3.555-0.98
		c-0.854-0.146-3.45-0.229-3.45-0.229L27.646,31.5z"/>
	<linearGradient id="SVGID_4_" gradientUnits="userSpaceOnUse" x1="29.2423" y1="20.3606" x2="48.6819" y2="20.3606">
		<stop  offset="0" style="stop-color:#F0C119"/>
		<stop  offset="0.188" style="stop-color:#F1BD19"/>
		<stop  offset="0.3737" style="stop-color:#F3B119"/>
		<stop  offset="0.487" style="stop-color:#F5A619"/>
		<stop  offset="0.5482" style="stop-color:#F6AB18"/>
		<stop  offset="0.7925" style="stop-color:#FAB913"/>
		<stop  offset="1" style="stop-color:#FBBE12"/>
	</linearGradient>
	<path fill="url(#SVGID_4_)" stroke="#FFFFFF" stroke-miterlimit="10" d="M31.541,10.816c0,0,1.923-0.826,5.842-0.944
		c4.696-0.141,7.71,1.309,7.71,1.309l-2.946,8.348l6.535,8.653c0,0-5.765-1.648-9.903-0.908c-5.32,0.952-9.536,3.583-9.536,3.583
		l5.191-6.636L31.541,10.816z"/>
	<linearGradient id="SVGID_5_" gradientUnits="userSpaceOnUse" x1="0.8313" y1="47.1891" x2="11.6088" y2="47.1891">
		<stop  offset="0" style="stop-color:#404041"/>
		<stop  offset="0.1713" style="stop-color:#474748"/>
		<stop  offset="0.4287" style="stop-color:#5A5B5D"/>
		<stop  offset="0.4998" style="stop-color:#616264"/>
		<stop  offset="0.6819" style="stop-color:#59595B"/>
		<stop  offset="0.9766" style="stop-color:#424243"/>
		<stop  offset="1" style="stop-color:#404041"/>
	</linearGradient>
	<path fill="url(#SVGID_5_)" stroke="#FFFFFF" stroke-miterlimit="10" d="M10.173,45.492c0,0,0.539,0.048,1.036,0.8
		c0.602,0.912,0.346,2.199,0.346,2.199s-2.466,0.353-5.361,0.397c-2.934,0.044-5.31-0.386-5.31-0.386S0.632,47.2,1.235,46.288
		c0.497-0.752,1.036-0.8,1.036-0.8L10.173,45.492z"/>
	
		<linearGradient id="SVGID_6_" gradientUnits="userSpaceOnUse" x1="2035.7052" y1="44.4733" x2="2041.2856" y2="44.4733" gradientTransform="matrix(-1 0 0 1 2044.7352 0)">
		<stop  offset="0" style="stop-color:#353435"/>
		<stop  offset="0.5606" style="stop-color:#404041"/>
		<stop  offset="0.9466" style="stop-color:#39393A"/>
		<stop  offset="1" style="stop-color:#383738"/>
	</linearGradient>
	<path fill="url(#SVGID_6_)" stroke="#FFFFFF" stroke-miterlimit="10" d="M7.435,43.168c0,0,0.813-0.061,1.321,0.806
		c0.383,0.653,0.253,1.528,0.253,1.528s-1.469,0.26-2.662,0.276c-1.492,0.021-2.876-0.273-2.876-0.273s-0.13-0.882,0.253-1.535
		c0.508-0.866,1.338-0.792,1.338-0.792s0.688,0.105,1.195,0.093C6.715,43.259,7.435,43.168,7.435,43.168z"/>
</g>
</svg>
