<?xml version="1.0" encoding="utf-8"?>
<!-- Generator: Adobe Illustrator 17.0.0, SVG Export Plug-In . SVG Version: 6.00 Build 0)  -->
<!DOCTYPE svg PUBLIC "-//W3C//DTD SVG 1.1//EN" "http://www.w3.org/Graphics/SVG/1.1/DTD/svg11.dtd">
<svg version="1.1" id="Layer_1" xmlns="http://www.w3.org/2000/svg" xmlns:xlink="http://www.w3.org/1999/xlink" x="0px" y="0px"
	 width="50px" height="50px" viewBox="0 0 50 50" enable-background="new 0 0 50 50" xml:space="preserve">
<g>
	<g>
		
			<linearGradient id="SVGID_1_" gradientUnits="userSpaceOnUse" x1="218.7309" y1="-591.2975" x2="223.4564" y2="-591.2975" gradientTransform="matrix(-0.799 0.6014 -0.6014 -0.799 -168.6733 -595.0431)">
			<stop  offset="0" style="stop-color:#8C5F40"/>
			<stop  offset="0.3516" style="stop-color:#84583A"/>
			<stop  offset="0.8991" style="stop-color:#6E442A"/>
			<stop  offset="1" style="stop-color:#694026"/>
		</linearGradient>
		<path fill="url(#SVGID_1_)" stroke="#000000" stroke-width="0.25" stroke-miterlimit="10" d="M13.586,11.091
			c0.01-0.051,0.001-0.158-0.019-0.206c-0.14-0.338-0.825-1.209-0.825-1.209l-1.546-1.792L9.542,7.258l-1.899,3.301l1.089,1.643
			c0,0,1.019,1.206,1.444,1.51c0.041,0.029,0.132,0.083,0.183,0.085c0.05,0.002,0.144-0.047,0.188-0.072
			c0.844-0.471,2.313-1.77,2.959-2.489C13.534,11.206,13.577,11.132,13.586,11.091z"/>
		
			<linearGradient id="SVGID_2_" gradientUnits="userSpaceOnUse" x1="219.0199" y1="-587.2835" x2="223.5242" y2="-587.2835" gradientTransform="matrix(-0.799 0.6014 -0.6014 -0.799 -168.6733 -595.0431)">
			<stop  offset="0" style="stop-color:#FBC18D"/>
			<stop  offset="0.0286" style="stop-color:#E0AE7C"/>
			<stop  offset="0.0685" style="stop-color:#C29868"/>
			<stop  offset="0.1106" style="stop-color:#AB8758"/>
			<stop  offset="0.1555" style="stop-color:#9A7A4E"/>
			<stop  offset="0.2047" style="stop-color:#907347"/>
			<stop  offset="0.267" style="stop-color:#8D7145"/>
			<stop  offset="0.3276" style="stop-color:#99794A"/>
			<stop  offset="0.4361" style="stop-color:#B88F57"/>
			<stop  offset="0.5791" style="stop-color:#EAB36D"/>
			<stop  offset="0.6271" style="stop-color:#FCC075"/>
			<stop  offset="0.9545" style="stop-color:#FBC293"/>
		</linearGradient>
		<polygon fill="url(#SVGID_2_)" stroke="#000000" stroke-width="0.25" stroke-miterlimit="10" points="10.998,7.835 10.283,7.198 
			4.009,3.699 7.455,10.619 9.587,11.422 10.104,11.796 9.614,10.756 8.971,8.186 10.765,9.008 10.059,7.836 		"/>
	</g>
	<path opacity="0.2" fill="#F7BC93" d="M13.052,11.557c0,0-0.356-0.642-0.53-0.763c-0.199-0.137-0.725-0.117-0.941-0.227
		c-0.442-0.224-1.698-1.794-1.698-1.794s0.458,1.008,0.564,1.163c0.23,0.335,0.647,1.094,1.013,1.272
		c0.162,0.079,0.557-0.069,0.721,0.008c0.169,0.079,0.538,0.634,0.538,0.634L13.052,11.557z"/>
	<path opacity="0.2" fill="#F7BC93" d="M11.45,11.197c0.162,0.079,0.557-0.069,0.721,0.008c0.169,0.079,0.538,0.634,0.538,0.634
		s-0.264-0.201-0.35-0.271c-0.066-0.053-0.175-0.213-0.26-0.215c-0.039-0.001-0.086,0.09-0.125,0.094
		C11.829,11.461,11.45,11.197,11.45,11.197z"/>
	<path d="M13.155,11.508c0,0-0.501-0.768-0.64-0.863c-0.158-0.109-0.577-0.093-0.749-0.181c-0.352-0.178-1.829-1.619-1.829-1.619
		s0.841,0.993,0.925,1.117c0.183,0.267,0.515,0.871,0.806,1.013c0.129,0.063,0.444-0.055,0.574,0.006
		c0.135,0.063,0.646,0.761,0.646,0.761L13.155,11.508z"/>
</g>
<g>
	<g>
		
			<linearGradient id="SVGID_3_" gradientUnits="userSpaceOnUse" x1="445.0662" y1="-97.0849" x2="449.9576" y2="-97.0849" gradientTransform="matrix(0.3557 0.9346 -0.6361 0.2421 -214.3903 -360.7868)">
			<stop  offset="0" style="stop-color:#8C5F40"/>
			<stop  offset="0.3516" style="stop-color:#84583A"/>
			<stop  offset="0.8991" style="stop-color:#6E442A"/>
			<stop  offset="1" style="stop-color:#694026"/>
		</linearGradient>
		<path fill="url(#SVGID_3_)" stroke="#000000" stroke-width="0.25" stroke-miterlimit="10" d="M7.86,30.879
			c-0.043-0.016-0.126,0.002-0.161,0.019c-0.878,0.437-3.511,1.75-3.511,1.75l-0.363,2.235l2.353,1.827c0,0,2.702-1.287,3.602-1.716
			c0.053-0.025,0.102-0.082,0.117-0.155c0.013-0.068,0.005-0.167-0.025-0.241c-0.238-0.593-0.953-2.371-0.953-2.371
			s-0.705-0.917-0.941-1.223C7.945,30.961,7.903,30.896,7.86,30.879z"/>
		
			<linearGradient id="SVGID_4_" gradientUnits="userSpaceOnUse" x1="445.4533" y1="-92.601" x2="449.9576" y2="-92.601" gradientTransform="matrix(0.3557 0.9346 -0.6361 0.2421 -214.3903 -360.7868)">
			<stop  offset="0" style="stop-color:#FBC18D"/>
			<stop  offset="0.0286" style="stop-color:#E0AE7C"/>
			<stop  offset="0.0685" style="stop-color:#C29868"/>
			<stop  offset="0.1106" style="stop-color:#AB8758"/>
			<stop  offset="0.1555" style="stop-color:#9A7A4E"/>
			<stop  offset="0.2047" style="stop-color:#907347"/>
			<stop  offset="0.267" style="stop-color:#8D7145"/>
			<stop  offset="0.3276" style="stop-color:#99794A"/>
			<stop  offset="0.4361" style="stop-color:#B88F57"/>
			<stop  offset="0.5791" style="stop-color:#EAB36D"/>
			<stop  offset="0.6271" style="stop-color:#FCC075"/>
			<stop  offset="0.9545" style="stop-color:#FBC293"/>
		</linearGradient>
		<polygon fill="url(#SVGID_4_)" stroke="#000000" stroke-width="0.25" stroke-miterlimit="10" points="5.945,33.135 4.188,32.649 
			1.001,37.024 6.178,36.711 7.097,34.905 4.639,34.284 		"/>
	</g>
	<path opacity="0.2" fill="#F7BC93" d="M8.563,31.9c0,0-0.264,0.792-0.374,1.035c-0.108,0.239-0.633,0.231-0.808,0.383
		c-0.181,0.157-0.338,0.75-0.566,0.798c-0.285,0.06-0.874,0.107-1.171,0.117c-0.168,0.005-0.681-0.023-0.681-0.023
		s1.233,0.333,1.626,0.321c0.378-0.011,0.813-0.661,1.1-0.907c0.205-0.176,0.761-0.258,0.873-0.549
		c0.079-0.206,0.271-0.84,0.271-0.84L8.563,31.9z"/>
	<path opacity="0.2" fill="#F7BC93" d="M7.84,30.973c0,0-0.15,0.871-0.302,1.055c-0.148,0.179-0.81,0.308-0.81,0.308
		s0.41-0.372,0.49-0.562c0.044-0.104,0.214-0.593,0.214-0.593L7.84,30.973z"/>
	<path opacity="0.2" fill="#F7BC93" d="M5.644,34.233c0.297-0.01,0.887-0.057,1.171-0.117c0.228-0.048,0.385-0.641,0.566-0.798
		c0.175-0.152,0.701-0.144,0.808-0.383c0.11-0.244,0.374-1.035,0.374-1.035s-0.285,0.533-0.402,0.683
		c-0.059,0.075-0.189,0.213-0.268,0.252c-0.065,0.032-0.218,0.032-0.291,0.044c-0.123,0.02-0.404-0.013-0.491,0.086
		c-0.033,0.038-0.058,0.169-0.047,0.235c0.008,0.05,0.095,0.135,0.092,0.182c-0.004,0.059-0.11,0.079-0.137,0.119
		c-0.056,0.081-0.077,0.355-0.157,0.394c-0.088,0.043-0.324-0.168-0.418-0.142c-0.061,0.017-0.118,0.175-0.169,0.215
		C6.137,34.076,5.644,34.233,5.644,34.233z"/>
	<path d="M8.74,31.993c0,0-0.505,1.159-0.593,1.354c-0.086,0.19-0.504,0.184-0.643,0.305c-0.144,0.125-0.269,0.597-0.451,0.635
		c-0.227,0.048-0.696,0.085-0.933,0.093c-0.134,0.004-0.542-0.018-0.542-0.018s0.982,0.265,1.295,0.256
		c0.301-0.009,0.647-0.526,0.876-0.722c0.163-0.14,0.606-0.205,0.695-0.437c0.063-0.164,0.511-1.198,0.511-1.198L8.74,31.993z"/>
	<path d="M8.032,31.137c0,0-0.12,0.694-0.241,0.84c-0.118,0.143-0.645,0.246-0.645,0.246s0.327-0.296,0.39-0.448
		c0.035-0.083,0.274-0.849,0.274-0.849L8.032,31.137z"/>
</g>
<g>
	<g>
		<g>
			
				<linearGradient id="SVGID_5_" gradientUnits="userSpaceOnUse" x1="291.3673" y1="-383.2844" x2="329.5086" y2="-383.2844" gradientTransform="matrix(1 0 0 -1 -285.5 -358)">
				<stop  offset="0" style="stop-color:#8C5F40"/>
				<stop  offset="0.3436" style="stop-color:#84633C"/>
				<stop  offset="0.4286" style="stop-color:#81643A"/>
				<stop  offset="0.8091" style="stop-color:#724D2D"/>
				<stop  offset="1" style="stop-color:#694026"/>
			</linearGradient>
			<path fill="url(#SVGID_5_)" stroke="#000000" stroke-width="0.25" stroke-miterlimit="10" d="M24.894,6.329
				c-10.513,0-19.114,8.442-19.114,18.955s8.601,18.955,19.114,18.955s19.114-8.442,19.114-18.955S35.407,6.329,24.894,6.329z"/>
		</g>
	</g>
</g>
<path opacity="0.1" fill="#F8F7F6" d="M6.869,24.274C6.377,16.443,14.946,7.717,23.136,7.185
	c9.478-0.616,18.209,7.569,18.572,14.164c0.359,6.515-5.892,16.011-16.651,16.781C17.104,38.699,7.381,32.433,6.869,24.274z"/>
<path opacity="0.1" fill="#F8F7F6" d="M9.457,19.115C9.096,14.449,15.401,9.25,21.426,8.933c6.974-0.367,13.398,4.51,13.665,8.439
	c0.264,3.882-4.335,9.54-12.252,9.999C16.988,27.71,9.834,23.977,9.457,19.115z"/>
<g opacity="0.2">
	<path fill="#F7BC93" d="M29.218,19.236c-5.204,0.679-3.745-5.35-7.312-5.172c-1.783,0.178-1.962,2.675-3.21,2.853
		c-0.892,0.178-2.318-1.605-3.388-1.783c0,0,0.505,0.545,0.653,0.742c0.316,0.421,1.634,3.729,4.203,2.856
		c0.434-0.147,0.689-1.217,0.754-1.67c0.043-0.296-0.317-1.764,0.377-2.317c0.191-0.152,0.776-0.04,0.97,0.108
		c0.635,0.483,0.788,2.272,1.186,2.964c0.382,0.666,1.22,2.042,1.886,2.425c0.966,0.555,2.9,1.06,4.419,0.593
		c1.089-0.335,1.75-1.049,2.715-2.283c0.61-0.78,0.975-2.184,1.526-3.007C34.455,14.859,31.371,18.956,29.218,19.236z"/>
</g>
<g opacity="0.2">
	<path fill="#F8D492" d="M7.83,16.914c1.605-0.892,5.474-2.167,7.436-1.81c0,0-1.339,0.102-1.772,0.21
		c-0.814,0.205-2.431,0.758-3.126,1.231c-0.104,0.071-0.229,0.319-0.345,0.369c-0.152,0.066-0.499-0.016-0.665,0
		c-0.262,0.025-0.783,0.116-1.034,0.197c-0.194,0.063-0.738,0.345-0.738,0.345L7.83,16.914z"/>
</g>
<g opacity="0.2">
	<path fill="#F7BC93" d="M43.577,21.876c0.535,2.14-3.119,5.533-5.081,6.603c-1.962,1.248-3.745-0.357-5.529,0
		c-1.962,0.357-1.427-0.197-3.215,0.993c-5.493,3.656-11.547,3.657-13.648,0.37c0,0,0.155,0.934,0.341,1.177
		c0.69,0.904,2.775,2.103,3.88,2.371c1.628,0.395,5.094,0.049,6.682-0.485c0.914-0.307,2.637-1.344,3.233-2.102
		c0.15-0.191,0.097-0.829,0.323-0.916c0.158-0.06,0.427,0.291,0.593,0.323c0.679,0.131,2.059-0.387,2.748-0.323
		c0.675,0.063,1.912,0.741,2.587,0.808c1.159,0.115,3.65,0.137,4.634-0.485c1.094-0.691,2.792-4.791,2.792-4.791
		s-0.025-1.267-0.064-1.688C43.81,23.265,43.577,21.876,43.577,21.876z"/>
</g>
<g opacity="0.2">
	<path fill="#F7BC93" d="M42.492,32.339c-0.713,2.14-4.407,3.433-6.726,3.79c-1.248,0.178-2.14-0.178-3.388,0.178
		c-1.605,0.357-3.631,2.235-5.415,2.413c-4.102,0.357-4.698,0.31-8.861,0.238c0,0,3.213,0.88,4.611,0.943
		c1.158,0.052,3.633,0.276,5.289-0.184c0.53-0.147,1.806-1.157,2.345-1.046c0.354,0.074,0.683,0.903,1.024,1.024
		c0.358,0.126,1.154-0.027,1.509-0.162c0.633-0.24,1.625-1.227,2.208-1.571c0.477-0.282,1.49-0.735,1.995-0.961
		c0.932-0.417,3.902-1.721,3.902-1.721s0.449-0.725,0.617-1.035C41.854,33.783,42.492,32.339,42.492,32.339z"/>
</g>
<path opacity="0.2" fill="#F7BC93" d="M7.916,23.995c0,0,0.56,0.356,1.094,0.438c0.383,0.059,2.266-0.312,2.802,0.713
	c0.137,0.263-0.204,0.93-0.054,1.186c0.137,0.234,1.25,0.395,1.812,0.348c0.44-0.037,0.828,0.329,1.125,0.656
	c0.186,0.205,0.641,0.766,0.641,0.766c-0.219-0.688-0.113-0.605-0.562-1.375c-0.359-0.614-1.176-0.748-1.669-1.309
	c-0.887-1.008-0.422-1.542-1.984-1.651c-0.677-0.047-1.405,0.146-2.032,0.214C8.447,24.049,7.916,23.995,7.916,23.995z"/>
<g>
	<g>
		
			<linearGradient id="SVGID_6_" gradientUnits="userSpaceOnUse" x1="-94.4749" y1="-789.1518" x2="-89.7493" y2="-789.1518" gradientTransform="matrix(-0.8872 -0.4614 0.3378 -0.6496 215.4845 -547.4543)">
			<stop  offset="0" style="stop-color:#8C5F40"/>
			<stop  offset="0.3516" style="stop-color:#84583A"/>
			<stop  offset="0.8991" style="stop-color:#6E442A"/>
			<stop  offset="1" style="stop-color:#694026"/>
		</linearGradient>
		<path fill="url(#SVGID_6_)" stroke="#000000" stroke-width="0.25" stroke-miterlimit="10" d="M31.694,10.333
			c0.046-0.004,0.128-0.037,0.156-0.064c0.201-0.188,0.554-0.918,0.554-0.918l0.658-1.607l-0.333-1.407l-3.613-0.645l-0.769,1.224
			c0,0-0.453,1.065-0.482,1.461c-0.003,0.038,0,0.121,0.024,0.159C27.913,8.576,28,8.635,28.042,8.663
			c0.805,0.527,2.591,1.328,3.496,1.646C31.576,10.322,31.657,10.337,31.694,10.333z"/>
		
			<linearGradient id="SVGID_7_" gradientUnits="userSpaceOnUse" x1="-94.1858" y1="-785.1378" x2="-89.6815" y2="-785.1378" gradientTransform="matrix(-0.8872 -0.4614 0.3378 -0.6496 215.4845 -547.4543)">
			<stop  offset="0" style="stop-color:#FBC18D"/>
			<stop  offset="0.0286" style="stop-color:#E0AE7C"/>
			<stop  offset="0.0685" style="stop-color:#C29868"/>
			<stop  offset="0.1106" style="stop-color:#AB8758"/>
			<stop  offset="0.1555" style="stop-color:#9A7A4E"/>
			<stop  offset="0.2047" style="stop-color:#907347"/>
			<stop  offset="0.267" style="stop-color:#8D7145"/>
			<stop  offset="0.3276" style="stop-color:#99794A"/>
			<stop  offset="0.4361" style="stop-color:#B88F57"/>
			<stop  offset="0.5791" style="stop-color:#EAB36D"/>
			<stop  offset="0.6271" style="stop-color:#FCC075"/>
			<stop  offset="0.9545" style="stop-color:#FBC293"/>
		</linearGradient>
		<polygon fill="url(#SVGID_7_)" stroke="#000000" stroke-width="0.25" stroke-miterlimit="10" points="33.002,7.582 33.152,6.886 
			32.79,1.277 28.974,5.564 29.406,7.377 29.367,7.86 29.955,7.236 31.695,6.128 31.941,7.689 32.526,6.87 		"/>
	</g>
	<path opacity="0.2" fill="#F7BC93" d="M31.05,10.04c0,0,0.336-0.425,0.345-0.587c0.01-0.184-0.272-0.579-0.293-0.769
		c-0.043-0.39,0.582-1.723,0.582-1.723s-0.578,0.591-0.649,0.709c-0.153,0.255-0.551,0.756-0.51,1.076
		c0.018,0.142,0.337,0.407,0.358,0.549c0.022,0.148-0.237,0.561-0.237,0.561L31.05,10.04z"/>
	<path opacity="0.2" fill="#F7BC93" d="M30.529,8.737c0.018,0.142,0.337,0.407,0.358,0.549c0.022,0.148-0.237,0.561-0.237,0.561
		s0.029-0.249,0.04-0.331c0.009-0.063,0.083-0.185,0.042-0.249c-0.019-0.03-0.116-0.044-0.139-0.072
		C30.509,9.089,30.529,8.737,30.529,8.737z"/>
	<path d="M31.142,10.107c0,0,0.363-0.566,0.37-0.694c0.008-0.147-0.217-0.461-0.234-0.612c-0.035-0.31,0.376-1.779,0.376-1.779
		s-0.373,0.878-0.43,0.972c-0.122,0.203-0.439,0.602-0.406,0.857c0.015,0.113,0.269,0.324,0.285,0.437
		c0.017,0.118-0.285,0.674-0.285,0.674L31.142,10.107z"/>
</g>
<g>
	<g>
		
			<linearGradient id="SVGID_8_" gradientUnits="userSpaceOnUse" x1="-110.9551" y1="-670.4788" x2="-105.5808" y2="-670.4788" gradientTransform="matrix(-0.6824 -0.731 0.731 -0.6824 457.9045 -517.6176)">
			<stop  offset="0" style="stop-color:#8C5F40"/>
			<stop  offset="0.3516" style="stop-color:#84583A"/>
			<stop  offset="0.8991" style="stop-color:#6E442A"/>
			<stop  offset="1" style="stop-color:#694026"/>
		</linearGradient>
		<path fill="url(#SVGID_8_)" stroke="#000000" stroke-width="0.25" stroke-miterlimit="10" d="M40.001,21.556
			c0.058,0.016,0.162,0.022,0.221,0.009c0.889-0.207,3.556-0.829,3.556-0.829l1.308-2.477l-2.96-1.63l-2.845,1.18
			c0,0-0.839,0.614-1.118,0.819c-0.067,0.049-0.1,0.106-0.116,0.188c-0.013,0.068-0.044,0.187-0.007,0.246
			c0.257,0.415,1.026,1.661,1.026,1.661s0.563,0.55,0.75,0.733C39.861,21.497,39.945,21.541,40.001,21.556z"/>
		
			<linearGradient id="SVGID_9_" gradientUnits="userSpaceOnUse" x1="-111.4243" y1="-667.9033" x2="-106.4508" y2="-667.9033" gradientTransform="matrix(-0.6824 -0.731 0.731 -0.6824 457.9045 -517.6176)">
			<stop  offset="0" style="stop-color:#FBC18D"/>
			<stop  offset="0.0286" style="stop-color:#E0AE7C"/>
			<stop  offset="0.0685" style="stop-color:#C29868"/>
			<stop  offset="0.1106" style="stop-color:#AB8758"/>
			<stop  offset="0.1555" style="stop-color:#9A7A4E"/>
			<stop  offset="0.2047" style="stop-color:#907347"/>
			<stop  offset="0.267" style="stop-color:#8D7145"/>
			<stop  offset="0.3276" style="stop-color:#99794A"/>
			<stop  offset="0.4361" style="stop-color:#B88F57"/>
			<stop  offset="0.5791" style="stop-color:#EAB36D"/>
			<stop  offset="0.6271" style="stop-color:#FCC075"/>
			<stop  offset="0.9545" style="stop-color:#FBC293"/>
		</linearGradient>
		<polygon fill="url(#SVGID_9_)" stroke="#000000" stroke-width="0.25" stroke-miterlimit="10" points="42.829,20.922 
			43.779,20.736 48.798,16.693 42.127,16.629 39.196,18.852 43.831,19.211 42.24,20.119 43.454,20.526 		"/>
	</g>
	<path opacity="0.2" fill="#F7BC93" d="M39.244,20.751c0,0,0.99,0.292,1.317,0.226c0.296-0.06,1.017-0.649,1.017-0.649l-0.689,0.163
		c0,0-0.451,0.12-0.593,0.073c-0.188-0.062-0.572-0.548-0.572-0.548l-1.111-0.225L39.244,20.751z"/>
	<path opacity="0.2" fill="#F7BC93" d="M40.883,20.503c0,0-0.451,0.12-0.593,0.073c-0.188-0.062-0.572-0.548-0.572-0.548
		s0.293,0.243,0.407,0.299c0.061,0.03,0.194,0.076,0.263,0.075c0.044,0,0.124-0.053,0.168-0.05
		C40.645,20.358,40.883,20.503,40.883,20.503z"/>
	<path d="M39.356,20.947c0,0,0.788,0.232,1.049,0.18c0.235-0.047,0.81-0.517,0.81-0.517l-0.549,0.13c0,0-0.359,0.096-0.472,0.058
		c-0.15-0.05-0.455-0.436-0.455-0.436l-0.885-0.179L39.356,20.947z"/>
</g>
<g>
	<g>
		
			<linearGradient id="SVGID_10_" gradientUnits="userSpaceOnUse" x1="439.4354" y1="-432.5777" x2="444.3268" y2="-432.5777" gradientTransform="matrix(-0.2829 0.9592 -0.7284 -0.2148 -182.092 -497.7267)">
			<stop  offset="0" style="stop-color:#8C5F40"/>
			<stop  offset="0.3516" style="stop-color:#84583A"/>
			<stop  offset="0.8991" style="stop-color:#6E442A"/>
			<stop  offset="1" style="stop-color:#694026"/>
		</linearGradient>
		<path fill="url(#SVGID_10_)" stroke="#000000" stroke-width="0.25" stroke-miterlimit="10" d="M11.152,17.46
			c-0.028-0.04-0.114-0.079-0.158-0.087c-1.072-0.215-4.287-0.862-4.287-0.862l-1.768,1.521l0.938,2.93c0,0,3.26,0.71,4.347,0.946
			c0.064,0.014,0.145,0.001,0.205-0.047c0.056-0.045,0.112-0.128,0.133-0.205c0.168-0.616,0.672-2.465,0.672-2.465
			s-0.043-1.168-0.058-1.557C11.175,17.578,11.18,17.5,11.152,17.46z"/>
		
			<linearGradient id="SVGID_11_" gradientUnits="userSpaceOnUse" x1="439.8225" y1="-428.0938" x2="444.3268" y2="-428.0938" gradientTransform="matrix(-0.2829 0.9592 -0.7284 -0.2148 -182.092 -497.7267)">
			<stop  offset="0" style="stop-color:#FBC18D"/>
			<stop  offset="0.0286" style="stop-color:#E0AE7C"/>
			<stop  offset="0.0685" style="stop-color:#C29868"/>
			<stop  offset="0.1106" style="stop-color:#AB8758"/>
			<stop  offset="0.1555" style="stop-color:#9A7A4E"/>
			<stop  offset="0.2047" style="stop-color:#907347"/>
			<stop  offset="0.267" style="stop-color:#8D7145"/>
			<stop  offset="0.3276" style="stop-color:#99794A"/>
			<stop  offset="0.4361" style="stop-color:#B88F57"/>
			<stop  offset="0.5791" style="stop-color:#EAB36D"/>
			<stop  offset="0.6271" style="stop-color:#FCC075"/>
			<stop  offset="0.9545" style="stop-color:#FBC293"/>
		</linearGradient>
		<polygon fill="url(#SVGID_11_)" stroke="#000000" stroke-width="0.25" stroke-miterlimit="10" points="7.974,18.01 6.707,16.512 
			1.018,17.915 5.877,20.963 7.868,20.132 6.058,18.081 		"/>
	</g>
	<path opacity="0.2" fill="#F7BC93" d="M11.126,18.708c0,0-0.748,0.453-1.004,0.574c-0.251,0.119-0.719-0.222-0.974-0.214
		c-0.264,0.008-0.788,0.373-1.024,0.266C7.829,19.2,7.268,18.862,6.994,18.68c-0.155-0.103-0.597-0.451-0.597-0.451
		s0.894,1.045,1.255,1.286C8,19.747,8.81,19.515,9.228,19.504c0.298-0.007,0.851,0.282,1.139,0.125
		c0.204-0.111,0.786-0.486,0.786-0.486L11.126,18.708z"/>
	<path opacity="0.2" fill="#F7BC93" d="M11.073,17.521c0,0-0.697,0.588-0.953,0.635c-0.249,0.046-0.928-0.274-0.928-0.274
		s0.609-0.031,0.803-0.129c0.106-0.054,0.575-0.329,0.575-0.329L11.073,17.521z"/>
	<path opacity="0.2" fill="#F7BC93" d="M6.994,18.68c0.274,0.182,0.835,0.519,1.129,0.654c0.236,0.108,0.76-0.257,1.024-0.266
		c0.256-0.008,0.723,0.333,0.974,0.214c0.256-0.121,1.004-0.574,1.004-0.574s-0.6,0.237-0.802,0.279
		c-0.101,0.021-0.307,0.047-0.404,0.027c-0.079-0.016-0.217-0.114-0.29-0.151c-0.124-0.063-0.355-0.267-0.497-0.244
		c-0.054,0.009-0.161,0.095-0.194,0.155c-0.025,0.044-0.002,0.167-0.035,0.202c-0.041,0.044-0.15-0.008-0.2,0.006
		c-0.102,0.028-0.298,0.229-0.396,0.209c-0.107-0.022-0.183-0.338-0.285-0.377c-0.066-0.025-0.219,0.062-0.29,0.061
		C7.54,18.871,6.994,18.68,6.994,18.68z"/>
	<path d="M11.224,18.894c0,0-1.203,0.588-1.406,0.684c-0.2,0.095-0.572-0.177-0.776-0.17c-0.21,0.007-0.627,0.297-0.815,0.212
		c-0.234-0.107-0.681-0.376-0.899-0.52c-0.123-0.082-0.476-0.359-0.476-0.359s0.712,0.832,1,1.024
		c0.276,0.184,0.921-0.001,1.254-0.009c0.237-0.006,0.677,0.224,0.907,0.1c0.163-0.088,1.232-0.614,1.232-0.614L11.224,18.894z"/>
	<path d="M11.14,17.772c0,0-0.555,0.468-0.758,0.506c-0.198,0.037-0.739-0.218-0.739-0.218s0.485-0.024,0.64-0.103
		c0.085-0.043,0.794-0.491,0.794-0.491L11.14,17.772z"/>
</g>
<g>
	<g>
		
			<linearGradient id="SVGID_12_" gradientUnits="userSpaceOnUse" x1="248.0166" y1="-644.8555" x2="253.1902" y2="-644.8555" gradientTransform="matrix(-0.9115 0.4113 -0.4113 -0.9115 -17.3346 -681.024)">
			<stop  offset="0" style="stop-color:#8C5F40"/>
			<stop  offset="0.3516" style="stop-color:#84583A"/>
			<stop  offset="0.8991" style="stop-color:#6E442A"/>
			<stop  offset="1" style="stop-color:#694026"/>
		</linearGradient>
		<path fill="url(#SVGID_12_)" stroke="#000000" stroke-width="0.25" stroke-miterlimit="10" d="M20.917,7.104
			c0,0,1.465,2.665,1.719,3.638c0.009,0.034,0.021,0.108,0.01,0.141c-0.013,0.038-0.075,0.097-0.108,0.12
			c-0.943,0.69-3.102,1.761-4.258,1.921c-0.052,0.007-0.161-0.004-0.206-0.031c-0.061-0.036-0.139-0.161-0.172-0.223
			c-0.412-0.781-1.088-3.359-1.088-3.359l1.82-1.9L20.917,7.104z"/>
		
			<linearGradient id="SVGID_13_" gradientUnits="userSpaceOnUse" x1="248.1476" y1="-640.41" x2="252.7458" y2="-640.41" gradientTransform="matrix(-0.9115 0.4113 -0.4113 -0.9115 -17.3346 -681.024)">
			<stop  offset="0" style="stop-color:#FBC18D"/>
			<stop  offset="0.0286" style="stop-color:#E0AE7C"/>
			<stop  offset="0.0685" style="stop-color:#C29868"/>
			<stop  offset="0.1106" style="stop-color:#AB8758"/>
			<stop  offset="0.1555" style="stop-color:#9A7A4E"/>
			<stop  offset="0.2047" style="stop-color:#907347"/>
			<stop  offset="0.267" style="stop-color:#8D7145"/>
			<stop  offset="0.3276" style="stop-color:#99794A"/>
			<stop  offset="0.4361" style="stop-color:#B88F57"/>
			<stop  offset="0.5791" style="stop-color:#EAB36D"/>
			<stop  offset="0.6271" style="stop-color:#FCC075"/>
			<stop  offset="0.9545" style="stop-color:#FBC293"/>
		</linearGradient>
		<polygon fill="url(#SVGID_13_)" stroke="#000000" stroke-width="0.25" stroke-miterlimit="10" points="20.745,8.778 20.917,7.104 
			16.418,0.898 16.803,9.167 17.092,9.808 18.993,10.598 19.311,7.88 		"/>
	</g>
	<path opacity="0.2" fill="#F7BC93" d="M22.477,10.892c0,0-0.621-0.536-0.776-0.758c-0.088-0.126-0.195-0.418-0.253-0.561
		c-0.121-0.295-0.444-1.197-0.444-1.197s0.132,0.945,0.226,1.248c0.062,0.199,0.234,0.583,0.343,0.761
		c0.113,0.184,0.54,0.754,0.54,0.754L22.477,10.892z"/>
	<path opacity="0.2" fill="#F7BC93" d="M20.662,11.948c0,0-0.311-0.69-0.531-0.981c-0.246-0.325-0.5-0.463-0.563-0.603
		c-0.148-0.326-0.141-2.25-0.141-2.25s-0.277,1.895-0.127,2.303c0.044,0.119,0.28,0.314,0.506,0.688
		c0.193,0.318,0.478,1.032,0.478,1.032L20.662,11.948z"/>
	<path opacity="0.2" fill="#F7BC93" d="M19.413,8.085c0,0-0.007,1.925,0.141,2.25c0.063,0.14,0.318,0.278,0.563,0.603
		c0,0-0.064-0.362-0.127-0.473c-0.048-0.085-0.192-0.184-0.241-0.268c-0.145-0.251-0.096-0.866-0.143-1.153
		C19.567,8.803,19.413,8.085,19.413,8.085z"/>
	<path d="M22.273,11.1c0,0-0.494-0.427-0.618-0.604c-0.07-0.1-0.155-0.333-0.201-0.446c-0.097-0.235-0.353-0.953-0.353-0.953
		s0.105,0.752,0.18,0.993c0.049,0.159,0.186,0.464,0.273,0.606c0.09,0.146,0.43,0.6,0.43,0.6L22.273,11.1z"/>
	<path d="M20.392,12.133c0,0-0.333-0.832-0.508-1.064c-0.196-0.259-0.398-0.369-0.449-0.48c-0.118-0.259-0.112-1.792-0.112-1.792
		s-0.22,1.509-0.101,1.833c0.035,0.094,0.223,0.25,0.403,0.547c0.153,0.253,0.466,1.104,0.466,1.104L20.392,12.133z"/>
</g>
<g>
	<g>
		
			<linearGradient id="SVGID_14_" gradientUnits="userSpaceOnUse" x1="-300.823" y1="-36.5125" x2="-296.0975" y2="-36.5125" gradientTransform="matrix(0.659 -0.7521 0.6235 0.5463 260.4901 -168.8475)">
			<stop  offset="0" style="stop-color:#8C5F40"/>
			<stop  offset="0.3516" style="stop-color:#84583A"/>
			<stop  offset="0.8991" style="stop-color:#6E442A"/>
			<stop  offset="1" style="stop-color:#694026"/>
		</linearGradient>
		<path fill="url(#SVGID_14_)" stroke="#000000" stroke-width="0.25" stroke-miterlimit="10" d="M37.979,35.91
			c-0.004,0.048,0.015,0.141,0.038,0.178c0.16,0.262,0.866,0.85,0.866,0.85l1.576,1.172l1.555,0.107l1.376-3.452L42.241,33.6
			c0,0-1.042-0.794-1.456-0.948c-0.04-0.015-0.128-0.038-0.173-0.026c-0.046,0.012-0.125,0.081-0.163,0.115
			c-0.713,0.648-1.905,2.203-2.414,3.018C38.013,35.794,37.982,35.872,37.979,35.91z"/>
		
			<linearGradient id="SVGID_15_" gradientUnits="userSpaceOnUse" x1="-300.534" y1="-32.4985" x2="-296.0296" y2="-32.4985" gradientTransform="matrix(0.659 -0.7521 0.6235 0.5463 260.4901 -168.8475)">
			<stop  offset="0" style="stop-color:#FBC18D"/>
			<stop  offset="0.0286" style="stop-color:#E0AE7C"/>
			<stop  offset="0.0685" style="stop-color:#C29868"/>
			<stop  offset="0.1106" style="stop-color:#AB8758"/>
			<stop  offset="0.1555" style="stop-color:#9A7A4E"/>
			<stop  offset="0.2047" style="stop-color:#907347"/>
			<stop  offset="0.267" style="stop-color:#8D7145"/>
			<stop  offset="0.3276" style="stop-color:#99794A"/>
			<stop  offset="0.4361" style="stop-color:#B88F57"/>
			<stop  offset="0.5791" style="stop-color:#EAB36D"/>
			<stop  offset="0.6271" style="stop-color:#FCC075"/>
			<stop  offset="0.9545" style="stop-color:#FBC293"/>
		</linearGradient>
		<polygon fill="url(#SVGID_15_)" stroke="#000000" stroke-width="0.25" stroke-miterlimit="10" points="40.643,38.099 
			41.352,38.471 47.365,39.872 43.553,34.66 41.55,34.527 41.046,34.335 41.593,35.126 42.434,37.236 40.734,36.993 41.489,37.842 
					"/>
	</g>
	<path opacity="0.2" fill="#F7BC93" d="M38.413,35.35c0,0,0.386,0.474,0.555,0.534c0.193,0.068,0.665-0.093,0.871-0.055
		c0.421,0.079,1.714,1.132,1.714,1.132s-0.515-0.771-0.627-0.88c-0.241-0.236-0.695-0.796-1.042-0.855
		c-0.154-0.026-0.496,0.213-0.65,0.19c-0.161-0.024-0.549-0.417-0.549-0.417L38.413,35.35z"/>
	<path opacity="0.2" fill="#F7BC93" d="M39.893,35.234c-0.154-0.026-0.496,0.213-0.65,0.19c-0.161-0.024-0.549-0.417-0.549-0.417
		s0.258,0.107,0.343,0.145c0.065,0.029,0.18,0.142,0.256,0.121c0.035-0.01,0.068-0.103,0.103-0.118
		C39.525,35.103,39.893,35.234,39.893,35.234z"/>
	<path d="M38.325,35.422c0,0,0.53,0.546,0.665,0.593c0.154,0.054,0.53-0.074,0.693-0.043c0.335,0.063,1.813,0.941,1.813,0.941
		s-0.859-0.654-0.948-0.741c-0.192-0.188-0.553-0.634-0.83-0.681c-0.123-0.021-0.395,0.17-0.518,0.151
		c-0.128-0.019-0.66-0.5-0.66-0.5L38.325,35.422z"/>
</g>
<g>
	<g>
		
			<linearGradient id="SVGID_16_" gradientUnits="userSpaceOnUse" x1="277.1487" y1="-58.2001" x2="282.523" y2="-58.2001" gradientTransform="matrix(0.6331 0.7741 -0.7741 0.6331 -210.9012 -152.6658)">
			<stop  offset="0" style="stop-color:#8C5F40"/>
			<stop  offset="0.3516" style="stop-color:#84583A"/>
			<stop  offset="0.8991" style="stop-color:#6E442A"/>
			<stop  offset="1" style="stop-color:#694026"/>
		</linearGradient>
		<path fill="url(#SVGID_16_)" stroke="#000000" stroke-width="0.25" stroke-miterlimit="10" d="M13.135,24.692
			c-0.057-0.02-0.161-0.033-0.22-0.023c-0.901,0.149-3.602,0.595-3.602,0.595L7.845,27.65l2.847,1.82l2.916-0.991
			c0,0,0.877-0.558,1.169-0.744c0.07-0.045,0.106-0.1,0.128-0.18c0.018-0.067,0.056-0.183,0.023-0.245
			c-0.229-0.431-0.916-1.724-0.916-1.724s-0.525-0.585-0.701-0.78C13.272,24.761,13.191,24.711,13.135,24.692z"/>
		
			<linearGradient id="SVGID_17_" gradientUnits="userSpaceOnUse" x1="276.6796" y1="-55.6246" x2="281.6531" y2="-55.6246" gradientTransform="matrix(0.6331 0.7741 -0.7741 0.6331 -210.9012 -152.6658)">
			<stop  offset="0" style="stop-color:#FBC18D"/>
			<stop  offset="0.0286" style="stop-color:#E0AE7C"/>
			<stop  offset="0.0685" style="stop-color:#C29868"/>
			<stop  offset="0.1106" style="stop-color:#AB8758"/>
			<stop  offset="0.1555" style="stop-color:#9A7A4E"/>
			<stop  offset="0.2047" style="stop-color:#907347"/>
			<stop  offset="0.267" style="stop-color:#8D7145"/>
			<stop  offset="0.3276" style="stop-color:#99794A"/>
			<stop  offset="0.4361" style="stop-color:#B88F57"/>
			<stop  offset="0.5791" style="stop-color:#EAB36D"/>
			<stop  offset="0.6271" style="stop-color:#FCC075"/>
			<stop  offset="0.9545" style="stop-color:#FBC293"/>
		</linearGradient>
		<polygon fill="url(#SVGID_17_)" stroke="#000000" stroke-width="0.25" stroke-miterlimit="10" points="10.273,25.14 9.313,25.264 
			4.04,28.97 10.692,29.47 13.763,27.443 9.161,26.782 10.808,25.98 9.623,25.495 		"/>
	</g>
	<path opacity="0.2" fill="#F7BC93" d="M13.838,25.545c0,0-0.969-0.356-1.3-0.311c-0.299,0.04-1.057,0.581-1.057,0.581l0.699-0.117
		c0,0,0.458-0.09,0.597-0.034c0.183,0.075,0.535,0.584,0.535,0.584l1.094,0.297L13.838,25.545z"/>
	<path opacity="0.2" fill="#F7BC93" d="M12.187,25.686c0,0,0.458-0.09,0.597-0.034c0.183,0.075,0.535,0.584,0.535,0.584
		s-0.277-0.262-0.386-0.325c-0.059-0.034-0.189-0.088-0.257-0.092c-0.044-0.003-0.127,0.044-0.17,0.038
		C12.415,25.845,12.187,25.686,12.187,25.686z"/>
	<path d="M13.739,25.342c0,0-0.771-0.283-1.035-0.248c-0.238,0.032-0.842,0.463-0.842,0.463l0.556-0.093
		c0,0,0.365-0.072,0.475-0.027c0.146,0.059,0.426,0.465,0.426,0.465l0.871,0.236L13.739,25.342z"/>
</g>
<g>
	<g>
		
			<linearGradient id="SVGID_18_" gradientUnits="userSpaceOnUse" x1="-7.6791" y1="80.8194" x2="-2.5054" y2="80.8194" gradientTransform="matrix(0.9998 0.0193 -0.0163 0.8429 29.7055 -27.4991)">
			<stop  offset="0" style="stop-color:#8C5F40"/>
			<stop  offset="0.3516" style="stop-color:#84583A"/>
			<stop  offset="0.8991" style="stop-color:#6E442A"/>
			<stop  offset="1" style="stop-color:#694026"/>
		</linearGradient>
		<path fill="url(#SVGID_18_)" stroke="#000000" stroke-width="0.25" stroke-miterlimit="10" d="M20.814,42.067
			c0,0-0.19-2.56-0.006-3.392c0.006-0.029,0.026-0.09,0.051-0.111c0.028-0.024,0.109-0.046,0.149-0.052
			c1.147-0.181,3.556-0.209,4.671,0.09c0.05,0.013,0.144,0.062,0.173,0.098c0.04,0.049,0.058,0.173,0.061,0.232
			c0.04,0.744-0.447,2.95-0.447,2.95l-2.456,0.782L20.814,42.067z"/>
		
			<linearGradient id="SVGID_19_" gradientUnits="userSpaceOnUse" x1="-7.548" y1="85.2649" x2="-2.9499" y2="85.2649" gradientTransform="matrix(0.9998 0.0193 -0.0163 0.8429 29.7055 -27.4991)">
			<stop  offset="0" style="stop-color:#FBC18D"/>
			<stop  offset="0.0286" style="stop-color:#E0AE7C"/>
			<stop  offset="0.0685" style="stop-color:#C29868"/>
			<stop  offset="0.1106" style="stop-color:#AB8758"/>
			<stop  offset="0.1555" style="stop-color:#9A7A4E"/>
			<stop  offset="0.2047" style="stop-color:#907347"/>
			<stop  offset="0.267" style="stop-color:#8D7145"/>
			<stop  offset="0.3276" style="stop-color:#99794A"/>
			<stop  offset="0.4361" style="stop-color:#B88F57"/>
			<stop  offset="0.5791" style="stop-color:#EAB36D"/>
			<stop  offset="0.6271" style="stop-color:#FCC075"/>
			<stop  offset="0.9545" style="stop-color:#FBC293"/>
		</linearGradient>
		<polygon fill="url(#SVGID_19_)" stroke="#000000" stroke-width="0.25" stroke-miterlimit="10" points="21.682,40.858 
			20.814,42.067 22.24,48.425 25.415,41.998 25.426,41.405 24.043,40.112 22.598,42.062 		"/>
	</g>
	<path opacity="0.2" fill="#F7BC93" d="M21.016,38.619c0,0,0.333,0.634,0.379,0.859c0.026,0.128-0.002,0.389-0.01,0.518
		c-0.016,0.269-0.109,1.072-0.109,1.072s0.284-0.766,0.327-1.031c0.029-0.174,0.037-0.529,0.014-0.704
		c-0.024-0.181-0.167-0.77-0.167-0.77L21.016,38.619z"/>
	<path opacity="0.2" fill="#F7BC93" d="M23.108,38.478c0,0-0.013,0.638,0.063,0.939c0.084,0.337,0.255,0.534,0.253,0.664
		c-0.005,0.301-0.831,1.763-0.831,1.763s1.058-1.34,1.096-1.705c0.011-0.106-0.119-0.341-0.165-0.707
		c-0.039-0.312,0.007-0.959,0.007-0.959L23.108,38.478z"/>
	<path opacity="0.2" fill="#F7BC93" d="M22.592,41.87c0,0,0.826-1.461,0.831-1.763c0.002-0.129-0.169-0.327-0.253-0.664
		c0,0-0.096,0.299-0.086,0.406c0.008,0.082,0.096,0.21,0.104,0.292c0.024,0.244-0.282,0.694-0.362,0.928
		C22.759,41.267,22.592,41.87,22.592,41.87z"/>
	<path d="M21.289,38.535c0,0,0.265,0.505,0.302,0.684c0.021,0.102-0.002,0.31-0.008,0.413c-0.013,0.214-0.086,0.854-0.086,0.854
		s0.226-0.61,0.261-0.821c0.023-0.139,0.029-0.421,0.011-0.56c-0.019-0.144-0.133-0.613-0.133-0.613L21.289,38.535z"/>
	<path d="M23.431,38.435c0,0-0.053,0.754,0.007,0.994c0.067,0.268,0.203,0.425,0.201,0.528c-0.004,0.24-0.662,1.403-0.662,1.403
		s0.842-1.067,0.872-1.357c0.009-0.084-0.095-0.271-0.132-0.563c-0.031-0.248,0.049-1.009,0.049-1.009L23.431,38.435z"/>
</g>
<g>
	<g>
		
			<linearGradient id="SVGID_20_" gradientUnits="userSpaceOnUse" x1="202.9824" y1="132.5209" x2="207.8738" y2="132.5209" gradientTransform="matrix(0.8315 0.5556 -0.4865 0.728 -94.0184 -170.7455)">
			<stop  offset="0" style="stop-color:#8C5F40"/>
			<stop  offset="0.3516" style="stop-color:#84583A"/>
			<stop  offset="0.8991" style="stop-color:#6E442A"/>
			<stop  offset="1" style="stop-color:#694026"/>
		</linearGradient>
		<path fill="url(#SVGID_20_)" stroke="#000000" stroke-width="0.25" stroke-miterlimit="10" d="M11.978,36.046
			c-0.049,0.02-0.12,0.102-0.145,0.147c-0.617,1.098-2.469,4.39-2.469,4.39l0.819,2.302l3.223-0.243c0,0,1.931-3.324,2.574-4.433
			c0.038-0.065,0.056-0.156,0.032-0.233c-0.022-0.072-0.082-0.154-0.15-0.197c-0.54-0.342-2.158-1.368-2.158-1.368
			s-1.159-0.259-1.546-0.346C12.102,36.052,12.028,36.026,11.978,36.046z"/>
		
			<linearGradient id="SVGID_21_" gradientUnits="userSpaceOnUse" x1="203.3695" y1="137.0048" x2="207.8738" y2="137.0048" gradientTransform="matrix(0.8315 0.5556 -0.4865 0.728 -94.0184 -170.7455)">
			<stop  offset="0" style="stop-color:#FBC18D"/>
			<stop  offset="0.0286" style="stop-color:#E0AE7C"/>
			<stop  offset="0.0685" style="stop-color:#C29868"/>
			<stop  offset="0.1106" style="stop-color:#AB8758"/>
			<stop  offset="0.1555" style="stop-color:#9A7A4E"/>
			<stop  offset="0.2047" style="stop-color:#907347"/>
			<stop  offset="0.267" style="stop-color:#8D7145"/>
			<stop  offset="0.3276" style="stop-color:#99794A"/>
			<stop  offset="0.4361" style="stop-color:#B88F57"/>
			<stop  offset="0.5791" style="stop-color:#EAB36D"/>
			<stop  offset="0.6271" style="stop-color:#FCC075"/>
			<stop  offset="0.9545" style="stop-color:#FBC293"/>
		</linearGradient>
		<polygon fill="url(#SVGID_21_)" stroke="#000000" stroke-width="0.25" stroke-miterlimit="10" points="11.311,39.611 
			9.364,40.583 8.581,47.076 13.406,42.642 13.347,40.28 10.654,41.692 		"/>
	</g>
	<path opacity="0.2" fill="#F7BC93" d="M13.189,36.401c0,0,0.159,0.924,0.181,1.231c0.021,0.301-0.49,0.716-0.579,0.993
		c-0.092,0.287,0.067,0.946-0.128,1.172c-0.243,0.282-0.786,0.798-1.068,1.045c-0.159,0.14-0.668,0.525-0.668,0.525
		s1.362-0.689,1.735-1.015c0.358-0.313,0.438-1.246,0.586-1.699c0.106-0.322,0.598-0.842,0.554-1.194
		c-0.031-0.249-0.178-0.973-0.178-0.973L13.189,36.401z"/>
	<path opacity="0.2" fill="#F7BC93" d="M12.007,36.147c0,0,0.311,0.905,0.26,1.192c-0.049,0.28-0.62,0.928-0.62,0.928
		s0.201-0.664,0.178-0.899c-0.013-0.129-0.104-0.705-0.104-0.705L12.007,36.147z"/>
	<path opacity="0.2" fill="#F7BC93" d="M11.596,40.841c0.282-0.247,0.825-0.763,1.068-1.045c0.195-0.226,0.036-0.885,0.128-1.172
		c0.089-0.277,0.6-0.691,0.579-0.993c-0.022-0.307-0.181-1.231-0.181-1.231s0.005,0.708-0.031,0.937
		c-0.018,0.115-0.07,0.343-0.126,0.442c-0.046,0.081-0.194,0.204-0.257,0.272c-0.108,0.117-0.396,0.313-0.428,0.471
		c-0.012,0.06,0.033,0.198,0.078,0.249c0.034,0.038,0.162,0.046,0.184,0.09c0.027,0.056-0.064,0.159-0.07,0.217
		c-0.011,0.118,0.112,0.381,0.055,0.481c-0.062,0.109-0.4,0.108-0.477,0.208c-0.05,0.064-0.022,0.252-0.05,0.328
		C11.989,40.304,11.596,40.841,11.596,40.841z"/>
	<path d="M13.408,36.343c0,0,0.119,1.449,0.136,1.693c0.017,0.24-0.39,0.57-0.461,0.79c-0.073,0.228,0.053,0.753-0.102,0.933
		c-0.193,0.224-0.626,0.635-0.85,0.832c-0.127,0.111-0.532,0.418-0.532,0.418s1.085-0.549,1.381-0.808
		c0.285-0.249,0.348-0.992,0.467-1.353c0.084-0.257,0.477-0.67,0.441-0.951c-0.025-0.198-0.134-1.488-0.134-1.488L13.408,36.343z"/>
	<path d="M12.279,36.14c0,0,0.247,0.72,0.207,0.949c-0.039,0.223-0.493,0.738-0.493,0.738s0.16-0.528,0.142-0.716
		c-0.01-0.103-0.18-0.984-0.18-0.984L12.279,36.14z"/>
</g>
<g>
	<g>
		
			<linearGradient id="SVGID_22_" gradientUnits="userSpaceOnUse" x1="-200.3122" y1="-751.1032" x2="-195.4208" y2="-751.1032" gradientTransform="matrix(-0.6887 -0.7251 0.5796 -0.5505 339.4081 -547.0491)">
			<stop  offset="0" style="stop-color:#8C5F40"/>
			<stop  offset="0.3516" style="stop-color:#84583A"/>
			<stop  offset="0.8991" style="stop-color:#6E442A"/>
			<stop  offset="1" style="stop-color:#694026"/>
		</linearGradient>
		<path fill="url(#SVGID_22_)" stroke="#000000" stroke-width="0.25" stroke-miterlimit="10" d="M40.032,13.52
			c0.05-0.006,0.13-0.064,0.161-0.099c0.765-0.859,3.058-3.438,3.058-3.438l-0.384-2.338l-3.072-0.592c0,0-2.373,2.588-3.165,3.45
			c-0.046,0.051-0.079,0.13-0.069,0.208c0.009,0.072,0.052,0.164,0.108,0.22c0.45,0.453,1.8,1.814,1.8,1.814
			s1.047,0.534,1.396,0.712C39.916,13.483,39.982,13.526,40.032,13.52z"/>
		
			<linearGradient id="SVGID_23_" gradientUnits="userSpaceOnUse" x1="-199.9252" y1="-746.6193" x2="-195.4208" y2="-746.6193" gradientTransform="matrix(-0.6887 -0.7251 0.5796 -0.5505 339.4081 -547.0491)">
			<stop  offset="0" style="stop-color:#FBC18D"/>
			<stop  offset="0.0286" style="stop-color:#E0AE7C"/>
			<stop  offset="0.0685" style="stop-color:#C29868"/>
			<stop  offset="0.1106" style="stop-color:#AB8758"/>
			<stop  offset="0.1555" style="stop-color:#9A7A4E"/>
			<stop  offset="0.2047" style="stop-color:#907347"/>
			<stop  offset="0.267" style="stop-color:#8D7145"/>
			<stop  offset="0.3276" style="stop-color:#99794A"/>
			<stop  offset="0.4361" style="stop-color:#B88F57"/>
			<stop  offset="0.5791" style="stop-color:#EAB36D"/>
			<stop  offset="0.6271" style="stop-color:#FCC075"/>
			<stop  offset="0.9545" style="stop-color:#FBC293"/>
		</linearGradient>
		<polygon fill="url(#SVGID_23_)" stroke="#000000" stroke-width="0.25" stroke-miterlimit="10" points="41.257,10.389 
			43.251,9.984 45.077,4.173 39.796,7.053 39.455,9.254 42.224,8.63 		"/>
	</g>
	<path opacity="0.2" fill="#F7BC93" d="M38.952,12.885c0,0,0.005-0.896,0.036-1.186c0.031-0.284,0.58-0.538,0.711-0.772
		c0.134-0.242,0.096-0.892,0.317-1.052c0.276-0.199,0.873-0.539,1.179-0.696c0.173-0.089,0.716-0.317,0.716-0.317
		s-1.397,0.292-1.802,0.5c-0.389,0.199-0.621,1.043-0.836,1.424c-0.154,0.272-0.704,0.628-0.722,0.965
		c-0.012,0.238,0.004,0.946,0.004,0.946L38.952,12.885z"/>
	<path opacity="0.2" fill="#F7BC93" d="M40.021,13.42c0,0-0.14-0.916-0.045-1.169c0.093-0.247,0.738-0.701,0.738-0.701
		s-0.3,0.563-0.318,0.787c-0.01,0.122-0.021,0.679-0.021,0.679L40.021,13.42z"/>
	<path opacity="0.2" fill="#F7BC93" d="M41.196,9.179c-0.306,0.157-0.904,0.497-1.179,0.696c-0.221,0.16-0.183,0.81-0.317,1.052
		c-0.13,0.234-0.68,0.488-0.711,0.772c-0.031,0.29-0.036,1.186-0.036,1.186s0.115-0.657,0.186-0.859
		c0.036-0.102,0.124-0.3,0.193-0.377c0.057-0.063,0.216-0.139,0.288-0.187c0.121-0.081,0.425-0.189,0.481-0.328
		c0.021-0.053,0.003-0.191-0.031-0.25c-0.025-0.044-0.145-0.083-0.158-0.13c-0.016-0.059,0.087-0.131,0.102-0.183
		c0.03-0.106-0.041-0.381,0.029-0.459c0.077-0.085,0.394,0.001,0.483-0.071c0.058-0.047,0.063-0.227,0.102-0.291
		C40.736,9.576,41.196,9.179,41.196,9.179z"/>
	<path d="M38.737,12.883c0,0,0.131-1.371,0.156-1.602c0.024-0.226,0.462-0.428,0.566-0.615c0.107-0.193,0.076-0.71,0.253-0.838
		c0.22-0.159,0.695-0.429,0.939-0.554c0.138-0.071,0.57-0.252,0.57-0.252s-1.112,0.233-1.435,0.398
		c-0.31,0.159-0.494,0.83-0.666,1.134c-0.122,0.216-0.561,0.5-0.575,0.768c-0.01,0.19-0.124,1.411-0.124,1.411L38.737,12.883z"/>
	<path d="M39.765,13.357c0,0-0.112-0.729-0.036-0.931c0.074-0.197,0.588-0.558,0.588-0.558s-0.239,0.448-0.253,0.627
		c-0.008,0.097,0.004,0.956,0.004,0.956L39.765,13.357z"/>
</g>
<g>
	<g>
		
			<linearGradient id="SVGID_24_" gradientUnits="userSpaceOnUse" x1="-178.7756" y1="49.5527" x2="-173.8842" y2="49.5527" gradientTransform="matrix(0.8563 -0.5164 0.3658 0.6066 166.4882 -80.4135)">
			<stop  offset="0" style="stop-color:#8C5F40"/>
			<stop  offset="0.3516" style="stop-color:#84583A"/>
			<stop  offset="0.8991" style="stop-color:#6E442A"/>
			<stop  offset="1" style="stop-color:#694026"/>
		</linearGradient>
		<path fill="url(#SVGID_24_)" stroke="#000000" stroke-width="0.25" stroke-miterlimit="10" d="M30.308,39.877
			c-0.008,0.046,0.026,0.127,0.051,0.161c0.607,0.82,2.429,3.28,2.429,3.28l2.287-0.001l1.347-2.695c0,0-1.81-2.533-2.413-3.378
			c-0.035-0.049-0.102-0.091-0.177-0.093c-0.07-0.002-0.167,0.022-0.234,0.065c-0.541,0.34-2.162,1.362-2.162,1.362
			s-0.77,0.869-1.026,1.159C30.373,39.778,30.316,39.831,30.308,39.877z"/>
		
			<linearGradient id="SVGID_25_" gradientUnits="userSpaceOnUse" x1="-178.3886" y1="54.0366" x2="-173.8842" y2="54.0366" gradientTransform="matrix(0.8563 -0.5164 0.3658 0.6066 166.4882 -80.4135)">
			<stop  offset="0" style="stop-color:#FBC18D"/>
			<stop  offset="0.0286" style="stop-color:#E0AE7C"/>
			<stop  offset="0.0685" style="stop-color:#C29868"/>
			<stop  offset="0.1106" style="stop-color:#AB8758"/>
			<stop  offset="0.1555" style="stop-color:#9A7A4E"/>
			<stop  offset="0.2047" style="stop-color:#907347"/>
			<stop  offset="0.267" style="stop-color:#8D7145"/>
			<stop  offset="0.3276" style="stop-color:#99794A"/>
			<stop  offset="0.4361" style="stop-color:#B88F57"/>
			<stop  offset="0.5791" style="stop-color:#EAB36D"/>
			<stop  offset="0.6271" style="stop-color:#FCC075"/>
			<stop  offset="0.9545" style="stop-color:#FBC293"/>
		</linearGradient>
		<polygon fill="url(#SVGID_25_)" stroke="#000000" stroke-width="0.25" stroke-miterlimit="10" points="32.923,41.451 
			32.788,43.317 37.757,45.832 36.422,40.621 34.45,39.986 34.32,42.587 		"/>
	</g>
	<path opacity="0.2" fill="#F7BC93" d="M31.181,38.994c0,0,0.837,0.137,1.1,0.209c0.258,0.07,0.354,0.606,0.54,0.758
		c0.192,0.158,0.81,0.219,0.903,0.443c0.115,0.279,0.279,0.871,0.347,1.171c0.039,0.17,0.112,0.696,0.112,0.696
		s0.087-1.308-0.003-1.706c-0.086-0.382-0.816-0.717-1.117-0.968c-0.215-0.179-0.406-0.731-0.717-0.797
		c-0.22-0.047-0.886-0.137-0.886-0.137L31.181,38.994z"/>
	<path opacity="0.2" fill="#F7BC93" d="M30.405,39.882c0,0,0.894,0.009,1.106,0.133c0.207,0.121,0.466,0.773,0.466,0.773
		s-0.45-0.355-0.655-0.405c-0.112-0.027-0.63-0.12-0.63-0.12L30.405,39.882z"/>
	<path opacity="0.2" fill="#F7BC93" d="M34.072,41.575c-0.068-0.301-0.232-0.892-0.347-1.171c-0.093-0.224-0.711-0.286-0.903-0.443
		c-0.186-0.153-0.281-0.688-0.54-0.758c-0.263-0.071-1.1-0.209-1.1-0.209s0.585,0.201,0.756,0.296
		c0.086,0.048,0.249,0.156,0.303,0.231c0.045,0.061,0.075,0.217,0.101,0.288c0.044,0.122,0.067,0.413,0.183,0.484
		c0.044,0.027,0.179,0.031,0.243,0.009c0.048-0.016,0.115-0.119,0.163-0.124c0.059-0.006,0.1,0.098,0.145,0.119
		c0.091,0.043,0.367,0.019,0.422,0.095c0.06,0.082-0.103,0.357-0.058,0.449c0.029,0.059,0.197,0.091,0.246,0.136
		C33.818,41.099,34.072,41.575,34.072,41.575z"/>
	<path d="M31.239,38.798c0,0,1.25,0.322,1.459,0.378c0.206,0.056,0.282,0.482,0.43,0.604c0.153,0.126,0.645,0.174,0.719,0.353
		c0.092,0.222,0.222,0.693,0.277,0.933c0.031,0.135,0.089,0.554,0.089,0.554s0.069-1.042-0.002-1.358
		c-0.068-0.304-0.65-0.571-0.889-0.771c-0.171-0.143-0.323-0.582-0.571-0.634c-0.175-0.037-1.289-0.321-1.289-0.321L31.239,38.798z"
		/>
	<path d="M30.53,39.66c0,0,0.712,0.007,0.881,0.106c0.165,0.096,0.371,0.615,0.371,0.615s-0.358-0.283-0.521-0.322
		c-0.089-0.021-0.896-0.138-0.896-0.138L30.53,39.66z"/>
</g>
<g>
	<g>
		
			<linearGradient id="SVGID_26_" gradientUnits="userSpaceOnUse" x1="-173.5931" y1="-655.3264" x2="-168.2188" y2="-655.3264" gradientTransform="matrix(-0.8784 -0.478 0.478 -0.8784 193.7103 -637.9639)">
			<stop  offset="0" style="stop-color:#8C5F40"/>
			<stop  offset="0.3516" style="stop-color:#84583A"/>
			<stop  offset="0.8991" style="stop-color:#6E442A"/>
			<stop  offset="1" style="stop-color:#694026"/>
		</linearGradient>
		<path fill="url(#SVGID_26_)" stroke="#000000" stroke-width="0.25" stroke-miterlimit="10" d="M29.814,22.254
			c0.06-0.003,0.161-0.03,0.213-0.062c0.778-0.478,3.112-1.91,3.112-1.91l0.459-2.763l-3.323-0.611l-2.326,2.018
			c0,0-0.602,0.848-0.802,1.13c-0.048,0.068-0.061,0.132-0.05,0.215c0.009,0.069,0.018,0.191,0.071,0.236
			c0.375,0.313,1.498,1.251,1.498,1.251s0.707,0.344,0.943,0.458C29.661,22.242,29.755,22.257,29.814,22.254z"/>
		
			<linearGradient id="SVGID_27_" gradientUnits="userSpaceOnUse" x1="-174.0623" y1="-652.7509" x2="-169.0888" y2="-652.7509" gradientTransform="matrix(-0.8784 -0.478 0.478 -0.8784 193.7103 -637.9639)">
			<stop  offset="0" style="stop-color:#FBC18D"/>
			<stop  offset="0.0286" style="stop-color:#E0AE7C"/>
			<stop  offset="0.0685" style="stop-color:#C29868"/>
			<stop  offset="0.1106" style="stop-color:#AB8758"/>
			<stop  offset="0.1555" style="stop-color:#9A7A4E"/>
			<stop  offset="0.2047" style="stop-color:#907347"/>
			<stop  offset="0.267" style="stop-color:#8D7145"/>
			<stop  offset="0.3276" style="stop-color:#99794A"/>
			<stop  offset="0.4361" style="stop-color:#B88F57"/>
			<stop  offset="0.5791" style="stop-color:#EAB36D"/>
			<stop  offset="0.6271" style="stop-color:#FCC075"/>
			<stop  offset="0.9545" style="stop-color:#FBC293"/>
		</linearGradient>
		<polygon fill="url(#SVGID_27_)" stroke="#000000" stroke-width="0.25" stroke-miterlimit="10" points="32.296,20.759 
			33.138,20.282 36.623,14.86 30.274,16.907 28.195,19.943 32.706,18.819 31.483,20.183 32.764,20.185 		"/>
	</g>
	<path opacity="0.2" fill="#F7BC93" d="M28.841,21.729c0,0,1.031-0.036,1.321-0.202c0.262-0.15,0.76-0.937,0.76-0.937l-0.603,0.372
		c0,0-0.39,0.256-0.54,0.256c-0.198,0-0.716-0.339-0.716-0.339l-1.125,0.138L28.841,21.729z"/>
	<path opacity="0.2" fill="#F7BC93" d="M30.317,20.976c0,0-0.39,0.256-0.54,0.256c-0.198,0-0.716-0.339-0.716-0.339
		s0.355,0.138,0.48,0.155c0.068,0.009,0.208,0.01,0.273-0.011c0.041-0.014,0.101-0.089,0.143-0.1
		C30.046,20.914,30.317,20.976,30.317,20.976z"/>
	<path d="M29.009,21.88c0,0,0.821-0.028,1.052-0.161c0.208-0.119,0.605-0.746,0.605-0.746l-0.48,0.296c0,0-0.311,0.204-0.43,0.204
		c-0.158,0-0.57-0.27-0.57-0.27l-0.896,0.11L29.009,21.88z"/>
</g>
<g>
	<g>
		
			<linearGradient id="SVGID_28_" gradientUnits="userSpaceOnUse" x1="315.1422" y1="-615.2228" x2="319.8835" y2="-615.2228" gradientTransform="matrix(-0.841 0.541 -0.541 -0.841 -46.9545 -671.3665)">
			<stop  offset="0" style="stop-color:#8C5F40"/>
			<stop  offset="0.3516" style="stop-color:#84583A"/>
			<stop  offset="0.8991" style="stop-color:#6E442A"/>
			<stop  offset="1" style="stop-color:#694026"/>
		</linearGradient>
		<path fill="url(#SVGID_28_)" stroke="#000000" stroke-width="0.25" stroke-miterlimit="10" d="M21.668,17.791
			c-0.857-1.154-0.958-1.12-0.958-1.12l-3.209-1.155l-0.199,4.156c0,0,0.075,0.488,0.876,1.009c0.334,0.218,2.179-0.557,2.645-0.941
			c0.312-0.257,0.701-0.991,0.889-1.348C21.798,18.229,21.703,17.838,21.668,17.791z"/>
		
			<linearGradient id="SVGID_29_" gradientUnits="userSpaceOnUse" x1="315.3244" y1="-614.5371" x2="319.8287" y2="-614.5371" gradientTransform="matrix(-0.841 0.541 -0.541 -0.841 -46.9545 -671.3665)">
			<stop  offset="0" style="stop-color:#FBC18D"/>
			<stop  offset="0.0286" style="stop-color:#E0AE7C"/>
			<stop  offset="0.0685" style="stop-color:#C29868"/>
			<stop  offset="0.1106" style="stop-color:#AB8758"/>
			<stop  offset="0.1555" style="stop-color:#9A7A4E"/>
			<stop  offset="0.2047" style="stop-color:#907347"/>
			<stop  offset="0.267" style="stop-color:#8D7145"/>
			<stop  offset="0.3276" style="stop-color:#99794A"/>
			<stop  offset="0.4361" style="stop-color:#B88F57"/>
			<stop  offset="0.5791" style="stop-color:#EAB36D"/>
			<stop  offset="0.6271" style="stop-color:#FCC075"/>
			<stop  offset="0.9545" style="stop-color:#FBC293"/>
		</linearGradient>
		<polygon fill="url(#SVGID_29_)" stroke="#000000" stroke-width="0.25" stroke-miterlimit="10" points="20.987,19.064 
			20.727,16.665 16.739,14.958 17.269,19.615 19.271,19.656 19.179,17.381 		"/>
	</g>
</g>
<g>
	<g>
		
			<linearGradient id="SVGID_30_" gradientUnits="userSpaceOnUse" x1="138.7004" y1="47.9278" x2="144.4698" y2="47.9278" gradientTransform="matrix(0.9768 0.2143 -0.2143 0.9768 -106.688 -46.393)">
			<stop  offset="0" style="stop-color:#8C5F40"/>
			<stop  offset="0.3516" style="stop-color:#84583A"/>
			<stop  offset="0.8991" style="stop-color:#6E442A"/>
			<stop  offset="1" style="stop-color:#694026"/>
		</linearGradient>
		<path fill="url(#SVGID_30_)" stroke="#000000" stroke-width="0.25" stroke-miterlimit="10" d="M18.91,28.372
			c-0.259,1.73-0.143,1.787-0.143,1.787l1.759,3.759l3.755-3.396c0,0,0.356-0.484,0.118-1.621c-0.099-0.475-2.351-1.401-3.082-1.473
			c-0.489-0.049-1.456,0.247-1.926,0.391C19.175,27.884,18.92,28.302,18.91,28.372z"/>
		
			<linearGradient id="SVGID_31_" gradientUnits="userSpaceOnUse" x1="138.9221" y1="48.7622" x2="144.4031" y2="48.7622" gradientTransform="matrix(0.9768 0.2143 -0.2143 0.9768 -106.688 -46.393)">
			<stop  offset="0" style="stop-color:#FBC18D"/>
			<stop  offset="0.0286" style="stop-color:#E0AE7C"/>
			<stop  offset="0.0685" style="stop-color:#C29868"/>
			<stop  offset="0.1106" style="stop-color:#AB8758"/>
			<stop  offset="0.1555" style="stop-color:#9A7A4E"/>
			<stop  offset="0.2047" style="stop-color:#907347"/>
			<stop  offset="0.267" style="stop-color:#8D7145"/>
			<stop  offset="0.3276" style="stop-color:#99794A"/>
			<stop  offset="0.4361" style="stop-color:#B88F57"/>
			<stop  offset="0.5791" style="stop-color:#EAB36D"/>
			<stop  offset="0.6271" style="stop-color:#FCC075"/>
			<stop  offset="0.9545" style="stop-color:#FBC293"/>
		</linearGradient>
		<polygon fill="url(#SVGID_31_)" stroke="#000000" stroke-width="0.25" stroke-miterlimit="10" points="20.592,27.867 
			18.746,30.151 20.698,35.055 24.259,30.6 22.576,28.838 20.693,30.87 		"/>
	</g>
</g>
<g>
	<g>
		
			<linearGradient id="SVGID_32_" gradientUnits="userSpaceOnUse" x1="-243.3761" y1="-232.1741" x2="-238.6347" y2="-232.1741" gradientTransform="matrix(0.3409 -0.9401 1.078 0.3909 377.8265 -106.2716)">
			<stop  offset="0" style="stop-color:#8C5F40"/>
			<stop  offset="0.3516" style="stop-color:#84583A"/>
			<stop  offset="0.8991" style="stop-color:#6E442A"/>
			<stop  offset="1" style="stop-color:#694026"/>
		</linearGradient>
		<path fill="url(#SVGID_32_)" stroke="#000000" stroke-width="0.25" stroke-miterlimit="10" d="M42.981,31.198
			c1.579,0.47,1.642,0.383,1.642,0.383l3.626-0.891l-2.828-3.595c0,0-0.418-0.365-1.49-0.338c-0.448,0.011-1.493,1.728-1.622,2.32
			c-0.086,0.395,0.106,1.236,0.2,1.644C42.551,30.907,42.917,31.179,42.981,31.198z"/>
		
			<linearGradient id="SVGID_33_" gradientUnits="userSpaceOnUse" x1="-243.1939" y1="-231.4884" x2="-238.6895" y2="-231.4884" gradientTransform="matrix(0.3409 -0.9401 1.078 0.3909 377.8265 -106.2716)">
			<stop  offset="0" style="stop-color:#FBC18D"/>
			<stop  offset="0.0286" style="stop-color:#E0AE7C"/>
			<stop  offset="0.0685" style="stop-color:#C29868"/>
			<stop  offset="0.1106" style="stop-color:#AB8758"/>
			<stop  offset="0.1555" style="stop-color:#9A7A4E"/>
			<stop  offset="0.2047" style="stop-color:#907347"/>
			<stop  offset="0.267" style="stop-color:#8D7145"/>
			<stop  offset="0.3276" style="stop-color:#99794A"/>
			<stop  offset="0.4361" style="stop-color:#B88F57"/>
			<stop  offset="0.5791" style="stop-color:#EAB36D"/>
			<stop  offset="0.6271" style="stop-color:#FCC075"/>
			<stop  offset="0.9545" style="stop-color:#FBC293"/>
		</linearGradient>
		<polygon fill="url(#SVGID_33_)" stroke="#000000" stroke-width="0.25" stroke-miterlimit="10" points="42.654,29.738 
			44.613,31.596 49.315,30.716 45.491,27.123 43.719,28.248 45.442,30.1 		"/>
	</g>
</g>
<g>
	<g>
		
			<linearGradient id="SVGID_34_" gradientUnits="userSpaceOnUse" x1="-287.7903" y1="-264.8525" x2="-281.8062" y2="-264.8525" gradientTransform="matrix(0.2467 -0.8809 1.1042 0.3092 396.7914 -139.8224)">
			<stop  offset="0" style="stop-color:#8C5F40"/>
			<stop  offset="0.3516" style="stop-color:#84583A"/>
			<stop  offset="0.8991" style="stop-color:#6E442A"/>
			<stop  offset="1" style="stop-color:#694026"/>
		</linearGradient>
		<path fill="url(#SVGID_34_)" stroke="#000000" stroke-width="0.25" stroke-miterlimit="10" d="M31.284,31.228
			c2.028,0.452,2.097,0.347,2.097,0.347l4.419-1.249l-3.969-4.008c0,0-0.566-0.399-1.902-0.304c-0.558,0.04-1.654,2.095-1.743,2.79
			c-0.059,0.464,0.283,1.429,0.45,1.897C30.712,30.915,31.201,31.209,31.284,31.228z"/>
		
			<linearGradient id="SVGID_35_" gradientUnits="userSpaceOnUse" x1="-287.5603" y1="-263.987" x2="-281.8754" y2="-263.987" gradientTransform="matrix(0.2467 -0.8809 1.1042 0.3092 396.7914 -139.8224)">
			<stop  offset="0" style="stop-color:#FBC18D"/>
			<stop  offset="0.0286" style="stop-color:#E0AE7C"/>
			<stop  offset="0.0685" style="stop-color:#C29868"/>
			<stop  offset="0.1106" style="stop-color:#AB8758"/>
			<stop  offset="0.1555" style="stop-color:#9A7A4E"/>
			<stop  offset="0.2047" style="stop-color:#907347"/>
			<stop  offset="0.267" style="stop-color:#8D7145"/>
			<stop  offset="0.3276" style="stop-color:#99794A"/>
			<stop  offset="0.4361" style="stop-color:#B88F57"/>
			<stop  offset="0.5791" style="stop-color:#EAB36D"/>
			<stop  offset="0.6271" style="stop-color:#FCC075"/>
			<stop  offset="0.9545" style="stop-color:#FBC293"/>
		</linearGradient>
		<polygon fill="url(#SVGID_35_)" stroke="#000000" stroke-width="0.25" stroke-miterlimit="10" points="30.698,29.551 
			33.37,31.593 39.134,30.293 33.922,26.348 31.847,27.758 34.223,29.807 		"/>
	</g>
</g>
</svg>
