<?xml version="1.0" encoding="utf-8"?>
<!-- Generator: Adobe Illustrator 17.0.0, SVG Export Plug-In . SVG Version: 6.00 Build 0)  -->
<!DOCTYPE svg PUBLIC "-//W3C//DTD SVG 1.1//EN" "http://www.w3.org/Graphics/SVG/1.1/DTD/svg11.dtd">
<svg version="1.1" id="grass" xmlns="http://www.w3.org/2000/svg" xmlns:xlink="http://www.w3.org/1999/xlink" x="0px" y="0px"
	 width="448px" height="448px" viewBox="0 0 448 448" enable-background="new 0 0 448 448" xml:space="preserve">
<rect fill="#50B748" width="64" height="64"/>
<rect x="64" fill="#50B748" width="64" height="64"/>
<rect x="128.009" fill="#50B748" width="64" height="64"/>
<rect x="192.009" fill="#50B748" width="64" height="64"/>
<rect x="256" fill="#50B748" width="64" height="64"/>
<rect x="320.006" fill="#50B748" width="64" height="64"/>
<rect x="384" fill="#50B748" width="64" height="64"/>
<rect y="64.007" fill="#50B748" width="64" height="64"/>
<rect x="64" y="64.007" fill="#076034" width="64" height="64"/>
<rect x="128.009" y="64.007" fill="#50B748" width="64" height="64"/>
<rect x="192.009" y="64.007" fill="#50B748" width="64" height="64"/>
<rect x="256" y="64.007" fill="#50B748" width="64" height="64"/>
<rect x="320.006" y="64.007" fill="#50B748" width="64" height="64"/>
<rect x="384" y="64.007" fill="#50B748" width="64" height="64"/>
<polygon fill="#50B748" points="64,192 0,192.024 0,128 64,128 "/>
<rect x="64" y="128" fill="#50B748" width="64" height="64"/>
<polygon fill="#50B748" points="192.009,192.024 128.009,192 128.009,128 192.009,128 "/>
<polygon fill="#50B748" points="256.009,192 192.009,192.024 192.009,128 256.009,128 "/>
<rect x="256" y="128" fill="#50B748" width="64" height="64"/>
<rect x="320.006" y="128" fill="#50B748" width="64" height="64"/>
<rect x="384" y="128" fill="#50B748" width="64" height="64"/>
<rect y="191.984" fill="#50B748" width="64" height="64.016"/>
<rect x="64" y="191.984" fill="#50B748" width="64" height="64.016"/>
<rect x="128.009" y="192" fill="#50B748" width="64" height="64"/>
<rect x="192.009" y="192" fill="#50B748" width="64" height="64"/>
<rect x="256" y="192" fill="#50B748" width="64" height="64"/>
<rect x="320.006" y="192" fill="#50B748" width="64" height="64"/>
<rect x="384" y="192" fill="#50B748" width="64" height="64"/>
<rect y="256" fill="#50B748" width="64" height="64"/>
<rect x="64" y="256" fill="#50B748" width="64" height="64"/>
<rect x="128.009" y="256" fill="#50B748" width="64" height="64"/>
<rect x="192.009" y="256" fill="#50B748" width="64" height="64"/>
<rect x="256" y="256" fill="#50B748" width="64" height="64"/>
<rect x="320.006" y="256" fill="#50B748" width="64" height="64"/>
<rect x="384" y="256" fill="#50B748" width="64" height="64"/>
<rect y="320" fill="#50B748" width="64" height="64"/>
<rect x="64" y="320" fill="#50B748" width="64" height="64"/>
<rect x="128.009" y="320" fill="#50B748" width="64" height="64"/>
<rect x="192.009" y="320" fill="#50B748" width="64" height="64"/>
<rect x="256" y="320" fill="#50B748" width="64" height="64"/>
<rect x="320.006" y="320" fill="#50B748" width="64" height="64"/>
<rect y="384" fill="#50B748" width="64" height="64"/>
<rect x="64" y="384" fill="#50B748" width="64" height="64"/>
<rect x="128.009" y="384" fill="#50B748" width="64" height="64"/>
<rect x="192.009" y="384" fill="#50B748" width="64" height="64"/>
<rect x="256" y="384" fill="#50B748" width="64" height="64"/>
<rect x="320.006" y="384" fill="#50B748" width="64" height="64"/>
<g>
	<rect x="16" y="16" fill="#156734" width="48" height="48"/>
</g>
<g>
	<rect x="127.996" y="15.995" fill="#156734" width="48" height="48"/>
</g>
<g>
	<rect x="128.006" y="128.005" fill="#156734" width="48" height="48"/>
</g>
<g>
	<rect x="15.999" y="127.998" fill="#156734" width="48" height="48"/>
</g>
<rect x="63.997" y="64" fill="#156734" width="64" height="64"/>
<polygon fill="#156734" points="64,128 16,128 16,63.97 64,64 "/>
<polygon fill="#156734" points="128,16 128,64 63.993,64 64,16 "/>
<rect x="127.99" y="64.002" fill="#156734" width="48" height="63.998"/>
<polygon fill="#156734" points="128,128.009 128,176.009 63.992,176.009 64,128.009 "/>
<g>
	<polygon fill="#156734" points="208.007,16 256.007,16 256.007,48 240,48 240,64 208.007,64 	"/>
</g>
<g>
	<polygon fill="#156734" points="320.003,16 368.003,16 368.003,64 336,64 336,48 320.003,48 	"/>
</g>
<g>
	<polygon fill="#156734" points="336,144 336,128 368,128 368,176 320,176 320,144 	"/>
</g>
<g>
	<polygon fill="#156734" points="208.006,128 240,128 240,144.295 256.006,143.868 256.006,176 208.006,176 	"/>
</g>
<polygon fill="#156734" points="304,112 304,128 272,128 272,112 256.003,112 256.003,80 272,80 272,63.996 304,64 304,80 
	320.003,80 320.003,112 "/>
<polygon fill="#156734" points="240,112 240,128 208.007,128 208.007,64 240,64 240,80 256.007,80 256.007,111.809 "/>
<polygon fill="#156734" points="320.007,16 320.007,48 304,48 304,64 272,64 272,48 256.002,48 256.007,16 "/>
<polygon fill="#156734" points="367.997,128 336,127.989 336,112 319.997,112 319.997,80 336,80 336,64 367.997,64 "/>
<polygon fill="#156734" points="304,144 320.006,144 320.006,175.992 255.999,175.992 256.004,144 272,144 272,127.992 304,127.992 
	"/>
<g>
	<rect x="400" y="16" fill="#156734" width="32" height="32"/>
</g>
<g>
	<rect x="128" y="208" fill="#156734" width="48" height="32"/>
</g>
<rect x="64" y="208" fill="#156734" width="64" height="32"/>
<g>
	<rect x="15.996" y="208" fill="#156734" width="48" height="32"/>
</g>
<g>
	<rect x="208" y="207.996" fill="#156734" width="32" height="48"/>
</g>
<rect x="208" y="255.996" fill="#156734" width="32" height="64"/>
<g>
	<rect x="208" y="320.001" fill="#156734" width="32" height="48"/>
</g>
<g>
	<polygon fill="#156734" points="16,256 64,256 63.994,304.013 47.987,304.013 48,320 15.994,320.013 	"/>
</g>
<polygon fill="#156734" points="128,256 128.023,304.001 112.017,304.001 112,320.001 80,320.001 80.017,304.001 64.018,304.001 
	64,256 "/>
<g>
	<polygon fill="#156734" points="128,256 176,256 175.972,319.997 143.969,319.997 143.969,303.997 127.972,303.997 	"/>
</g>
<polygon fill="#156734" points="128,384 64,384 63.972,335.997 80,335.997 80,319.993 112,319.997 112,335.997 128,335.997 "/>
<polygon fill="#156734" points="64,384 15.975,383.997 15.975,319.997 48,319.997 48,335.997 64,335.997 "/>
<polygon fill="#156734" points="176,383.997 128,384 127.966,335.997 143.969,335.997 143.969,319.997 175.966,319.997 "/>
<polygon fill="#156734" points="64.008,383.997 0,384 0,448 48.008,448 48.008,432 64.008,432 "/>
<polygon fill="#156734" points="128,384 64.001,383.997 63.994,432 79.994,432 79.994,448 128,448 "/>
<polygon fill="#156734" points="191.999,448 127.887,448 127.991,383.997 175.999,383.997 175.999,399.997 191.999,399.997 "/>
<polygon fill="#156734" points="255.934,448 191.993,448 191.985,399.997 207.985,399.997 207.985,383.997 255.991,383.997 "/>
<polygon fill="#156734" points="320,208 320,240 304,240 304,256 256,256 256,208 "/>
<polygon fill="#156734" points="320,208 320,240 336,240 336,256 384,256 384,208 "/>
<polygon fill="#156734" points="431.997,240.004 431.997,256.004 399.997,256.004 399.997,240.004 384,240.004 384,208.004 
	399.997,208.004 400,192 448,192 448,240.004 "/>
<polygon fill="#156734" points="384,320 336,320 336,304 320,304 320,272 336,272 336,256 384,256 "/>
<polygon fill="#156734" points="256,320 304,320 304,304 320,304 320,272 304,272 304,256 256,256 "/>
<polygon fill="#156734" points="319.993,368.006 319.993,336.006 303.993,336.006 303.993,320.006 255.993,320.006 255.993,368.006 
	"/>
<polygon fill="#156734" points="319.993,368.006 319.993,336.006 335.993,336.006 335.993,320.006 383.993,320.006 383.993,368.006 
	"/>
<polygon fill="#156734" points="431.997,272 431.997,256 399.997,256 399.997,272 384,271.978 384,304 399.997,304 400,320 448,320 
	448,272 "/>
<polygon fill="#156734" points="431.997,176.004 431.997,192.004 399.997,192.004 399.997,176.004 384,176.004 384,128 432,128 
	432,144 448,144 448,176.004 "/>
<polygon fill="#156734" points="431.997,112.019 431.997,128.019 384,128 384,80.019 399.997,80.019 400,64.015 432,64.015 
	432,80.015 448,80.015 448,112.019 "/>
<polygon fill="#156734" points="304,432 304,448 256,448 256,399.997 272,399.997 272,383.997 320,383.997 320,432 "/>
<polygon fill="#156734" points="336,432 336,448 384,448 384,399.997 368,399.997 368,383.997 320,383.997 320,432 "/>
</svg>
