<?xml version="1.0" encoding="utf-8"?>
<!-- Generator: Adobe Illustrator 17.0.0, SVG Export Plug-In . SVG Version: 6.00 Build 0)  -->
<!DOCTYPE svg PUBLIC "-//W3C//DTD SVG 1.1//EN" "http://www.w3.org/Graphics/SVG/1.1/DTD/svg11.dtd">
<svg version="1.1" id="Layer_1" xmlns="http://www.w3.org/2000/svg" xmlns:xlink="http://www.w3.org/1999/xlink" x="0px" y="0px"
	 width="50px" height="50px" viewBox="0 0 50 50" enable-background="new 0 0 50 50" xml:space="preserve">
<polyline fill="#040406" points="12.5,0 12.5,12.428 0,12.5 0,0 "/>
<polyline fill="#FFFFFF" points="24.993,0 24.993,12.455 12.493,12.455 12.493,0 "/>
<polyline fill="#040406" points="37.498,0 37.498,12.464 24.998,12.464 24.998,0 "/>
<polyline fill="#FFFFFF" points="49.991,-0.009 49.991,12.491 37.491,12.491 37.491,-0.009 "/>
<polygon fill="#FFFFFF" points="12.513,24.926 0,25 0,12.5 12.513,12.426 "/>
<rect x="12.506" y="12.452" fill="#040406" width="12.5" height="12.5"/>
<rect x="25.011" y="12.461" fill="#FFFFFF" width="12.5" height="12.5"/>
<polygon fill="#040406" points="50.004,25 37.504,24.988 37.504,12.488 50.004,12.5 "/>
<rect y="24.998" fill="#040406" width="12.521" height="12.5"/>
<rect x="12.514" y="25.009" fill="#FFFFFF" width="12.5" height="12.5"/>
<rect x="25.02" y="24.956" fill="#040406" width="12.5" height="12.5"/>
<polygon fill="#FFFFFF" points="50,37.5 37.512,37.482 37.512,24.982 50,25 "/>
<polygon fill="#FFFFFF" points="12.5,49.996 0,49.996 0,37.496 12.534,37.496 "/>
<polygon fill="#040406" points="25,49.991 12.5,49.991 12.527,37.491 25.027,37.491 "/>
<polygon fill="#FFFFFF" points="37.5,50 25,50 25.032,37.5 37.532,37.5 "/>
<polygon fill="#040406" points="50,50 37.5,50 37.525,37.48 50,37.5 "/>
</svg>
