<?xml version="1.0" encoding="utf-8"?>
<!-- Generator: Adobe Illustrator 17.0.0, SVG Export Plug-In . SVG Version: 6.00 Build 0)  -->
<!DOCTYPE svg PUBLIC "-//W3C//DTD SVG 1.1//EN" "http://www.w3.org/Graphics/SVG/1.1/DTD/svg11.dtd">
<svg version="1.1" id="Layer_1" xmlns="http://www.w3.org/2000/svg" xmlns:xlink="http://www.w3.org/1999/xlink" x="0px" y="0px"
	 width="50px" height="50px" viewBox="0 0 50 50" enable-background="new 0 0 50 50" xml:space="preserve">
<path fill="#FFFFFF" stroke="#B0AFB0" stroke-miterlimit="10" d="M13.093,1.217c-6.69,0-12.114,5.489-12.114,12.26v23.236
	c0,6.771,5.423,12.26,12.114,12.26h23.722c6.69,0,12.114-5.489,12.114-12.26V13.478c0-6.771-5.423-12.26-12.114-12.26L13.093,1.217
	L13.093,1.217z"/>
<path fill="#020404" d="M15.134,11.684c0.342,0.082,0.651,0.284,0.934,0.487c0.814,0.584,1.031,1.428,1.03,2.389
	c-0.01,7.338-0.007,1.302-0.007,8.64c0,1.906,0,3.811,0,5.717c0,0.173,0,0.345,0,0.67c0.236-0.225,0.37-0.35,0.5-0.479
	c0.936-0.928,1.837-1.894,2.814-2.776c1.42-1.282,3.573-0.615,4.062,1.225c0.198,0.746,0.06,1.447-0.398,2.072
	c-0.147,0.2-0.319,0.384-0.494,0.559c-2.328,2.332-4.657,4.662-6.989,6.99c-1.285,1.284-2.689,1.284-3.974,0.002
	c-2.357-2.353-4.714-4.706-7.064-7.066c-1.124-1.13-1.203-2.625-0.215-3.667c0.978-1.031,2.524-1.035,3.622,0.021
	c0.899,0.864,1.767,1.759,2.649,2.64c0.124,0.124,0.255,0.241,0.5,0.472c0-0.322,0-0.52,0-0.718c0-9.208,0.005-5.042-0.004-14.25
	c-0.001-0.954,0.175-1.815,0.989-2.408c0.295-0.215,0.617-0.433,0.975-0.521C14.411,11.599,14.788,11.601,15.134,11.684z"/>
<path fill="#020404" d="M36.357,11.693c0.342,0.082,0.651,0.284,0.934,0.487c0.814,0.584,1.031,1.428,1.03,2.389
	c-0.01,7.338-0.007,1.302-0.007,8.64c0,1.906,0,3.811,0,5.717c0,0.173,0,0.345,0,0.67c0.236-0.225,0.37-0.35,0.5-0.479
	c0.936-0.928,1.837-1.894,2.814-2.776c1.42-1.282,3.573-0.615,4.062,1.225c0.198,0.746,0.06,1.447-0.398,2.072
	c-0.147,0.2-0.319,0.384-0.494,0.559c-2.328,2.332-4.657,4.662-6.989,6.99c-1.285,1.284-2.689,1.284-3.974,0.002
	c-2.357-2.353-4.714-4.706-7.064-7.066c-1.124-1.13-1.203-2.625-0.215-3.667c0.978-1.031,2.524-1.035,3.622,0.021
	c0.899,0.864,1.767,1.759,2.649,2.64c0.124,0.124,0.255,0.241,0.5,0.472c0-0.322,0-0.52,0-0.718c0-9.208,0.005-5.042-0.004-14.25
	c-0.001-0.954,0.175-1.815,0.989-2.408c0.295-0.215,0.617-0.433,0.975-0.521C35.634,11.608,36.01,11.61,36.357,11.693z"/>
</svg>
