<?xml version="1.0" encoding="utf-8"?>
<!-- Generator: Adobe Illustrator 17.0.0, SVG Export Plug-In . SVG Version: 6.00 Build 0)  -->
<!DOCTYPE svg PUBLIC "-//W3C//DTD SVG 1.1//EN" "http://www.w3.org/Graphics/SVG/1.1/DTD/svg11.dtd">
<svg version="1.1" id="Layer_1" xmlns="http://www.w3.org/2000/svg" xmlns:xlink="http://www.w3.org/1999/xlink" x="0px" y="0px"
	 width="50px" height="50px" viewBox="0 0 50 50" enable-background="new 0 0 50 50" xml:space="preserve">
<path fill="#FFFFFF" stroke="#B0AFB0" stroke-miterlimit="10" d="M13.093,1.217c-6.69,0-12.114,5.489-12.114,12.26v23.236
	c0,6.771,5.423,12.26,12.114,12.26h23.722c6.69,0,12.114-5.489,12.114-12.26V13.478c0-6.771-5.423-12.26-12.114-12.26L13.093,1.217
	L13.093,1.217z"/>
<path fill="#020404" d="M15.633,17.247c-0.152,0.152-0.304,0.304-0.589,0.589c-0.009-0.406-0.018-0.633-0.019-0.86
	c-0.007-1.638,0.05-3.279-0.033-4.912c-0.121-2.374-2.6-3.681-4.646-2.493c-0.829,0.482-1.325,1.219-1.471,2.171
	c-0.047,0.305-0.057,0.617-0.057,0.926c-0.004,4.095-0.004,8.19-0.001,12.285c0.002,2.258,1.235,3.492,3.491,3.493
	c4.139,0.003,8.278,0.007,12.418-0.002c1.981-0.004,3.364-1.25,3.411-3.034c0.046-1.765-1.309-3.127-3.202-3.165
	c-1.549-0.031-3.099-0.006-4.648-0.008c-0.218,0-0.436-0.012-0.854-0.024c0.283-0.283,0.457-0.457,0.631-0.631
	C28.154,13.489,17.308,15.572,15.633,17.247z"/>
<path fill="#020404" d="M21.015,38.789c1.625,0.779,3.49,1.011,5.41,1.011c7.867,0,14.245-6.25,14.245-13.96
	s-6.378-13.96-14.245-13.96S12.18,18.13,12.18,25.84c0,0.271-0.265,0.88-0.25,1.147l6.865-0.283
	c-0.015-0.196-0.023-0.394-0.023-0.595c0-4.187,3.413-7.581,7.624-7.581s7.624,3.394,7.624,7.581s-3.414,7.581-7.624,7.581
	c-1.04,0-2.384-0.438-3.288-0.813l-3.429,5.128C19.679,38.005,20.3,38.446,21.015,38.789z"/>
<ellipse fill="#020404" cx="21.596" cy="35.56" rx="3.156" ry="3.074"/>
</svg>
