<?xml version="1.0" encoding="utf-8"?>
<!-- Generator: Adobe Illustrator 17.0.0, SVG Export Plug-In . SVG Version: 6.00 Build 0)  -->
<!DOCTYPE svg PUBLIC "-//W3C//DTD SVG 1.1//EN" "http://www.w3.org/Graphics/SVG/1.1/DTD/svg11.dtd">
<svg version="1.1" id="Layer_1" xmlns="http://www.w3.org/2000/svg" xmlns:xlink="http://www.w3.org/1999/xlink" x="0px" y="0px"
	 width="50px" height="50px" viewBox="0 0 50 50" enable-background="new 0 0 50 50" xml:space="preserve">
<path fill="#FFFFFF" stroke="#AFAFAF" stroke-miterlimit="10" d="M48.765,36.897c0,6.69-5.489,12.114-12.26,12.114H13.269
	c-6.771,0-12.26-5.423-12.26-12.114V13.175c0-6.69,5.489-12.114,12.26-12.114h23.236c6.771,0,12.26,5.423,12.26,12.114V36.897z"/>
<path fill="#020404" d="M7.08,24.637c0.114-0.472,0.393-0.9,0.672-1.29c0.806-1.124,1.972-1.425,3.3-1.423
	c10.135,0.014,1.799,0.01,11.934,0.01c2.632,0,5.264,0,7.896,0c0.239,0,0.477,0,0.925,0c-0.311-0.326-0.483-0.512-0.661-0.691
	c-1.282-1.292-2.616-2.537-3.835-3.886c-1.771-1.961-0.85-4.936,1.692-5.61c1.03-0.273,1.999-0.084,2.862,0.55
	c0.276,0.203,0.53,0.44,0.773,0.683c3.221,3.215,6.439,6.433,9.655,9.653c1.773,1.775,1.774,3.714,0.002,5.488
	c-3.251,3.255-6.5,6.511-9.76,9.757c-1.56,1.553-3.626,1.662-5.064,0.296c-1.424-1.351-1.429-3.486,0.029-5.003
	c1.193-1.241,2.43-2.44,3.646-3.659c0.171-0.172,0.333-0.352,0.652-0.69c-0.445,0-0.718,0-0.991,0
	c-12.718,0-6.964-0.007-19.682,0.005C9.808,28.828,8.619,28.585,7.8,27.46c-0.297-0.408-0.598-0.852-0.72-1.346
	C6.962,25.636,6.965,25.116,7.08,24.637z"/>
</svg>
