<?xml version="1.0" encoding="utf-8"?>
<!-- Generator: Adobe Illustrator 17.0.0, SVG Export Plug-In . SVG Version: 6.00 Build 0)  -->
<!DOCTYPE svg PUBLIC "-//W3C//DTD SVG 1.1//EN" "http://www.w3.org/Graphics/SVG/1.1/DTD/svg11.dtd">
<svg version="1.1" id="Layer_1" xmlns="http://www.w3.org/2000/svg" xmlns:xlink="http://www.w3.org/1999/xlink" x="0px" y="0px"
	 width="50px" height="50px" viewBox="0 0 50 50" enable-background="new 0 0 50 50" xml:space="preserve">
<g opacity="0.8">
	<circle fill="none" cx="24.878" cy="16.008" r="7.783"/>
	<g>
		<circle fill="none" cx="24.852" cy="16.008" r="7.783"/>
		<g>
			<circle fill="none" cx="24.852" cy="16.008" r="7.783"/>
			<path fill="#232323" d="M36.582,33.803l-9.119-0.069c0.049-1.628,0.112-2.979,0.165-3.982c6.323-1.301,11.08-6.96,11.08-13.747
				c0-7.746-6.204-14.028-13.856-14.028c-7.654,0-13.856,6.28-13.856,14.028c0,6.973,5.028,12.755,11.612,13.841
				c0.079,5.109,0.279,20.087,0.279,20.087s0.037,0.107,0.088,0.131c0.06,0.03,0.38,0.058,0.38,0.058l3.518-0.011
				c0,0,0.118,0.006,0.279-0.043c0.064-0.019,0.103-0.125,0.103-0.125l-0.002-5.842c0,0,0.006-0.406,0.019-1.082l-0.011,4.001h9.282
				c0,0,0.198-0.073,0.359-0.18c0.103-0.069,0.155-0.335,0.155-0.335V42.68c0,0-0.028-0.236-0.172-0.389
				c-0.12-0.129-0.359-0.172-0.359-0.172l-9.235-0.069l0.069-3.415l9.241,0.069c0,0,0.198-0.073,0.359-0.18
				c0.103-0.069,0.155-0.335,0.155-0.335V34.36c0,0-0.028-0.236-0.172-0.389C36.823,33.846,36.582,33.803,36.582,33.803z
				 M24.852,23.791c-4.3,0-7.783-3.486-7.783-7.783s3.486-7.783,7.783-7.783c4.3,0,7.783,3.486,7.783,7.783
				S29.151,23.791,24.852,23.791z"/>
		</g>
	</g>
</g>
<path fill="#B32F34" d="M26.338,32.508l9.323,0.069c0,0,0.241,0.043,0.361,0.172c0.144,0.152,0.172,0.389,0.172,0.389v3.829
	c0,0-0.052,0.266-0.155,0.335c-0.161,0.107-0.361,0.18-0.361,0.18h-9.34C26.338,37.482,26.338,32.508,26.338,32.508z"/>
<path fill="#B32F34" d="M26.218,40.712l9.443,0.069c0,0,0.241,0.043,0.361,0.172c0.144,0.152,0.172,0.389,0.172,0.389v3.829
	c0,0-0.052,0.266-0.155,0.335c-0.161,0.107-0.361,0.18-0.361,0.18h-9.46C26.218,45.686,26.218,40.712,26.218,40.712z"/>
<path fill="#B32F34" d="M23.948,0.266c-7.652,0-13.856,6.28-13.856,14.028c0,7.746,6.204,14.028,13.856,14.028
	s13.856-6.28,13.856-14.028S31.602,0.266,23.948,0.266z M23.948,22.077c-4.3,0-7.783-3.486-7.783-7.783s3.486-7.783,7.783-7.783
	c4.3,0,7.783,3.486,7.783,7.783S28.247,22.077,23.948,22.077z"/>
<path fill="#B32F34" d="M26.772,28.009c0,0-0.133,0.127-0.135,0.152c-0.195,3.696-0.378,14.428-0.378,14.428l0.002,5.863
	c0,0-0.037,0.105-0.103,0.127c-0.159,0.049-0.279,0.043-0.279,0.043l-3.518,0.011c0,0-0.32-0.03-0.38-0.058
	c-0.052-0.026-0.088-0.133-0.088-0.133s-0.204-15.186-0.281-20.239c0-0.032-0.073-0.492-0.073-0.492"/>
<polygon fill="#791F21" points="21.903,27.766 22.363,48.628 22.949,48.626 22.842,27.906 "/>
<polygon fill="#EA9E96" points="22.614,27.884 22.949,48.626 24.24,48.626 24.154,28.033 "/>
<path fill="#791F21" d="M26.228,6.851c2.332,0.442,6.969,3.133,6.499,8.586c-0.455,5.302-6.915,8.124-11.034,6.31
	c0,0,1.714,0.52,3.413,0.247c1.652-0.266,3.374-1.224,4.347-2.195c0.58-0.58,1.359-1.604,1.896-3.086
	c0.464-1.282,0.369-3.307,0.146-4.33c-0.185-0.844-0.883-2.457-1.894-3.438C28.419,7.796,26.228,6.851,26.228,6.851z"/>
<path fill="#EA9E96" d="M24.966,27.386c-7.212,0.485-13.71-4.931-14.189-12.055C10.297,8.208,16.936,0.79,23.664,1.19
	c0,0-1.821,0.279-4.13,1.465c-2.446,1.254-4.611,4.772-5.451,6.746c-0.5,1.177-1.224,3.144-0.969,5.532
	c0.228,2.139,1.239,5.202,2.1,6.591c0.711,1.145,2.852,3.251,4.001,3.958C20.522,26.287,24.966,27.386,24.966,27.386z"/>
</svg>
