<?xml version="1.0" encoding="utf-8"?>
<!-- Generator: Adobe Illustrator 17.0.0, SVG Export Plug-In . SVG Version: 6.00 Build 0)  -->
<!DOCTYPE svg PUBLIC "-//W3C//DTD SVG 1.1//EN" "http://www.w3.org/Graphics/SVG/1.1/DTD/svg11.dtd">
<svg version="1.1" id="Layer_2" xmlns="http://www.w3.org/2000/svg" xmlns:xlink="http://www.w3.org/1999/xlink" x="0px" y="0px"
	 width="24px" height="24px" viewBox="0 0 24 24" enable-background="new 0 0 24 24" xml:space="preserve">
<g opacity="0.8">
	<circle fill="none" cx="11.686" cy="7.33" r="3.624"/>
	<g>
		<circle fill="none" cx="11.674" cy="7.33" r="3.624"/>
		<g>
			<circle fill="none" cx="11.674" cy="7.33" r="3.624"/>
			<path fill="#232323" d="M17.136,15.616l-4.246-0.032c0.023-0.758,0.052-1.387,0.077-1.854c2.944-0.606,5.159-3.241,5.159-6.401
				c0-3.607-2.889-6.532-6.452-6.532c-3.564,0-6.452,2.924-6.452,6.532c0,3.247,2.341,5.939,5.407,6.445
				c0.037,2.379,0.13,9.353,0.13,9.353s0.017,0.05,0.041,0.061c0.028,0.014,0.177,0.027,0.177,0.027l1.638-0.005
				c0,0,0.055,0.003,0.13-0.02c0.03-0.009,0.048-0.058,0.048-0.058l-0.001-2.72c0,0,0.003-0.189,0.009-0.504l-0.005,1.863h4.322
				c0,0,0.092-0.034,0.167-0.084c0.048-0.032,0.072-0.156,0.072-0.156V19.75c0,0-0.013-0.11-0.08-0.181
				c-0.056-0.06-0.167-0.08-0.167-0.08l-4.3-0.032l0.032-1.59l4.303,0.032c0,0,0.092-0.034,0.167-0.084
				c0.048-0.032,0.072-0.156,0.072-0.156v-1.783c0,0-0.013-0.11-0.08-0.181C17.248,15.636,17.136,15.616,17.136,15.616z
				 M11.674,10.954c-2.002,0-3.624-1.623-3.624-3.624s1.623-3.624,3.624-3.624c2.002,0,3.624,1.623,3.624,3.624
				S13.676,10.954,11.674,10.954z"/>
		</g>
	</g>
</g>
<path fill="#CC252E" d="M12.366,15.013l4.341,0.032c0,0,0.112,0.02,0.168,0.08c0.067,0.071,0.08,0.181,0.08,0.181v1.783
	c0,0-0.024,0.124-0.072,0.156c-0.075,0.05-0.168,0.084-0.168,0.084h-4.349V15.013z"/>
<path fill="#CC252E" d="M12.31,18.833l4.397,0.032c0,0,0.112,0.02,0.168,0.08c0.067,0.071,0.08,0.181,0.08,0.181v1.783
	c0,0-0.024,0.124-0.072,0.156c-0.075,0.05-0.168,0.084-0.168,0.084H12.31V18.833z"/>
<path fill="#CC252E" d="M11.253,0C7.69,0,4.801,2.924,4.801,6.532c0,3.607,2.889,6.532,6.452,6.532s6.452-2.924,6.452-6.532
	S14.817,0,11.253,0z M11.253,10.156c-2.002,0-3.624-1.623-3.624-3.624s1.623-3.624,3.624-3.624c2.002,0,3.624,1.623,3.624,3.624
	S13.255,10.156,11.253,10.156z"/>
<path fill="#CC252E" d="M12.568,12.918c0,0-0.062,0.059-0.063,0.071c-0.091,1.721-0.176,6.718-0.176,6.718l0.001,2.73
	c0,0-0.017,0.049-0.048,0.059c-0.074,0.023-0.13,0.02-0.13,0.02l-1.638,0.005c0,0-0.149-0.014-0.177-0.027
	c-0.024-0.012-0.041-0.062-0.041-0.062s-0.095-7.071-0.131-9.424c0-0.015-0.034-0.229-0.034-0.229"/>
<polygon fill="#791F21" points="10.301,12.805 10.515,22.519 10.788,22.518 10.738,12.87 "/>
<polygon fill="#EA9E96" points="10.632,12.86 10.788,22.518 11.389,22.518 11.349,12.929 "/>
<path fill="#791F21" d="M12.315,3.066c1.086,0.206,3.245,1.459,3.026,3.998c-0.212,2.469-3.22,3.783-5.138,2.938
	c0,0,0.798,0.242,1.589,0.115c0.769-0.124,1.571-0.57,2.024-1.022c0.27-0.27,0.633-0.747,0.883-1.437
	c0.216-0.597,0.172-1.54,0.068-2.016c-0.086-0.393-0.411-1.144-0.882-1.601C13.335,3.506,12.315,3.066,12.315,3.066z"/>
<path fill="#EA9E96" d="M11.727,12.628c-3.358,0.226-6.384-2.296-6.607-5.613C4.897,3.698,7.988,0.244,11.121,0.43
	c0,0-0.848,0.13-1.923,0.682C8.059,1.696,7.051,3.334,6.66,4.253C6.427,4.801,6.09,5.717,6.209,6.829
	c0.106,0.996,0.577,2.422,0.978,3.069c0.331,0.533,1.328,1.514,1.863,1.843C9.658,12.116,11.727,12.628,11.727,12.628z"/>
</svg>
