<?xml version="1.0" encoding="utf-8"?>
<!-- Generator: Adobe Illustrator 17.0.0, SVG Export Plug-In . SVG Version: 6.00 Build 0)  -->
<!DOCTYPE svg PUBLIC "-//W3C//DTD SVG 1.1//EN" "http://www.w3.org/Graphics/SVG/1.1/DTD/svg11.dtd">
<svg version="1.1" id="Layer_1" xmlns="http://www.w3.org/2000/svg" xmlns:xlink="http://www.w3.org/1999/xlink" x="0px" y="0px"
	 width="50px" height="50px" viewBox="0 0 50 50" enable-background="new 0 0 50 50" xml:space="preserve">
<path fill="#FAB73E" d="M13.584,20.266V7.826c0,0,0-2.074,3.436-4.549c1.567-1.128,3.647-2.685,7.507-2.685
	c3.803,0,5.806,1.288,7.381,2.311c3.379,2.2,3.488,5.141,3.488,5.141l-0.063,12.22H31.07L30.934,8.235c0,0,0-1.267-1.229-2.238
	c-1.078-0.849-1.982-1.72-4.877-1.816c-2.962-0.101-4.451,1.105-5.474,1.892c-1.229,0.944-1.315,1.89-1.315,1.89l-0.182,12.304
	H13.584z"/>
<path opacity="0.8" fill="#232323" enable-background="new    " d="M13.634,20.414V7.975c0,0,0-2.074,3.429-4.549
	c1.565-1.128,3.643-2.903,7.496-2.834c4.166,0.076,5.904,1.359,7.475,2.383c3.373,2.2,3.375,5.009,3.375,5.009l-0.063,12.429h-4.256
	L30.955,8.384c0,0,0-1.267-1.227-2.238c-1.076-0.849-1.98-1.869-4.868-1.965c-2.955-0.101-4.493,1.191-5.514,1.976
	c-1.227,0.944-1.265,1.953-1.265,1.953l-0.182,12.306H13.634z"/>
<path opacity="0.8" fill="#232323" enable-background="new    " d="M7.145,22.392c0.711-0.77,2.265-0.87,2.265-0.87h3.57h28.301
	c0,0,1.563,0.233,2.15,0.77c0.677,0.621,0.894,1.615,0.894,1.615v24.158c0,0-0.231,0.858-0.877,1.254
	c-0.524,0.323-1.768,0.459-1.768,0.459H9.674c0,0-1.187,0.055-2.049-0.547c-0.694-0.48-1.026-1.252-1.026-1.252L6.501,24.106
	C6.501,24.106,6.45,23.145,7.145,22.392z"/>
<path fill="#F8A71A" d="M5.548,20.542c0.711-0.77,2.265-0.87,2.265-0.87h3.57h28.301c0,0,1.563,0.233,2.15,0.77
	c0.677,0.621,0.894,1.615,0.894,1.615v24.161c0,0-0.231,0.858-0.877,1.254c-0.524,0.323-1.768,0.459-1.768,0.459H8.078
	c0,0-1.187,0.055-2.049-0.547c-0.694-0.485-1.026-1.254-1.026-1.254L4.905,22.258C4.905,22.258,4.854,21.295,5.548,20.542z"/>
<path fill="#D5D6DC" d="M12.116,19.674V7.234c0,0,0-2.074,3.425-4.549C17.103,1.556,19.178,0,23.024,0
	c3.792,0,5.787,1.288,7.358,2.311c3.369,2.2,3.478,5.141,3.478,5.141l-0.063,12.22h-4.249L29.411,7.643c0,0,0-1.267-1.227-2.238
	c-1.074-0.849-1.976-1.72-4.86-1.816c-2.953-0.099-4.438,1.107-5.458,1.892c-1.227,0.944-1.311,1.89-1.311,1.89l-0.18,12.304H12.116
	z"/>
<path fill="#FFCC0C" d="M7.178,22.015c0.648-0.703,2.062-0.793,2.062-0.793h3.253h25.778c0,0,1.424,0.212,1.957,0.703
	c0.617,0.566,0.814,1.472,0.814,1.472v22.004c0,0-0.212,0.78-0.797,1.143c-0.478,0.294-1.611,0.419-1.611,0.419H9.481
	c0,0-1.082,0.05-1.867-0.497c-0.633-0.44-0.933-1.143-0.933-1.143l-0.09-21.746C6.591,23.577,6.545,22.703,7.178,22.015z"/>
<path opacity="0.8" fill="#232323" enable-background="new    " d="M21.46,37.991c0,0-0.008,0.05,0.057,0.099
	c0.034,0.023,0.191,0.023,0.191,0.023h3.113c0,0,0.134,0,0.201-0.027c0.029-0.013,0.042-0.092,0.042-0.092L24.4,34.151
	c0,0,1.311-0.625,1.309-2.242c-0.002-0.831-0.711-2.091-2.435-2.091c-1.735,0-2.423,1.168-2.418,2.043
	c0.004,1.707,1.386,2.274,1.386,2.274L21.46,37.991z"/>
<polygon fill="#5D5D5D" points="12.116,19.674 12.116,19.141 16.436,19.141 16.396,19.674 "/>
<polygon fill="#5D5D5D" points="29.514,19.674 29.514,19.141 33.812,19.141 33.795,19.674 "/>
<path fill="#FBDA56" d="M6.845,30.226c0,0-0.852-6.194,1.409-8.042c1.223-0.998,9.292-0.942,9.292-0.942s-5.351,0.191-8.008,1.779
	C6.851,24.626,6.845,30.226,6.845,30.226z"/>
<path fill="#E69324" d="M20.096,46.979c0,0,14.042,0.002,18.716,0.052c0.461,0.004,1.38-0.187,1.747-0.585
	c0.182-0.199,0.482-0.698,0.48-0.967c-0.004-1.602,0-7.717,0-7.717s-2.672,3.981-3.994,4.822
	C33.352,44.932,20.096,46.979,20.096,46.979z"/>
<path fill="#5D5D5D" d="M21.516,38.09l3.352,0.023c0,0,0.124,0.002,0.178-0.042c0.04-0.031-0.004-0.193-0.004-0.193L24.4,34.149
	c0,0,0.044,2.024-0.701,2.794C22.771,37.903,21.516,38.09,21.516,38.09z"/>
</svg>
