<?xml version="1.0" encoding="utf-8"?>
<!-- Generator: Adobe Illustrator 17.0.0, SVG Export Plug-In . SVG Version: 6.00 Build 0)  -->
<!DOCTYPE svg PUBLIC "-//W3C//DTD SVG 1.1//EN" "http://www.w3.org/Graphics/SVG/1.1/DTD/svg11.dtd">
<svg version="1.1" id="Layer_1" xmlns="http://www.w3.org/2000/svg" xmlns:xlink="http://www.w3.org/1999/xlink" x="0px" y="0px"
	 width="50px" height="50px" viewBox="0 0 50 50" enable-background="new 0 0 50 50" xml:space="preserve">
<polygon fill="#473234" points="35.297,3.385 32.418,4.594 29.735,6.961 22.468,10.456 20.168,9.996 15.569,10.985 14.292,13.379 
	8.089,13.505 5.494,17.746 1,23.569 2.266,25.784 0,30.847 1,33.822 3.595,37.746 9.608,41.796 18.026,40.277 25.913,40.006 
	26.76,39.138 29.992,42.079 41.57,44.834 43.975,37.556 47.836,34.644 48.848,27.113 47.393,23.885 48.975,18.822 48.658,16.29 
	44.165,14.708 39.734,6.1 "/>
<g>
	<polygon fill="none" points="42.442,11.561 40.949,7.3 43.828,15.69 	"/>
	<polygon fill="none" points="33.368,36.548 34.444,40.237 33.368,36.548 	"/>
	<polygon fill="none" points="11.156,32.455 11.156,32.455 3.092,30.678 	"/>
	<polygon fill="#5E484F" points="36.684,24.08 40.096,31.024 44.362,24.08 47.028,23.423 49.8,18.701 47.561,20.659 	"/>
	<polygon fill="#5E484F" points="31.992,31.83 32.899,34.939 33.368,36.548 33.368,36.548 	"/>
	<polygon fill="#875C5B" points="35.404,15.33 35.404,15.69 32.098,15.69 30.712,14.942 30.712,16.591 29.859,18.241 29.112,14.942 
		28.366,14.942 22.821,16.283 28.792,25.841 38.603,34.939 40.096,31.024 36.684,24.08 	"/>
	<polygon fill="#BA8B80" points="12.903,24.08 21.754,24.623 20.368,19.507 22.181,15.33 29.219,14.325 35.404,15.33 36.15,11.792 
		39.669,8.452 40.096,5.803 38.93,5.216 34.277,5.377 33.274,6.326 33.776,6.868 34.654,8.258 31.706,7.816 29.22,8.258 
		28.046,9.603 20.261,9.603 15.569,10.985 14.015,13.084 14.015,13.084 15.586,14.772 15.272,15.69 14.08,14.942 7.638,13.853 
		5.218,17.646 9.171,20.772 9.171,21.567 6.177,19.976 3.488,19.976 0.64,23.538 1.813,25.726 9.171,27.275 	"/>
	<polygon fill="#875C5B" points="43.828,15.69 36.684,24.08 47.561,20.659 49.8,18.701 49.267,16.053 44.468,14.21 40.949,7.3 
		42.442,11.561 	"/>
	<polygon fill="#F9B49C" points="36.15,11.792 35.404,15.33 36.684,24.08 43.828,15.69 40.949,7.3 40.096,5.803 39.669,8.452 	"/>
	<polygon fill="#E0B0A3" points="28.366,14.942 29.112,14.942 29.859,18.241 30.712,16.591 30.712,14.942 32.098,15.69 
		35.404,15.69 35.404,15.33 29.189,14.02 22.181,15.33 22.821,16.283 	"/>
	<polygon fill="#9C6460" points="22.821,16.283 22.181,15.33 20.368,19.507 21.754,24.623 24.349,28.985 24.74,28.705 
		26.483,30.022 29.485,30.678 31.992,31.83 33.368,36.548 34.444,40.237 39.616,42.079 38.603,34.939 28.792,25.841 	"/>
	<polygon fill="#473234" points="49.8,18.701 47.028,23.423 44.362,24.08 40.096,31.024 38.603,34.939 39.616,42.079 34.444,40.237 
		33.368,36.548 32.899,34.939 31.992,31.83 29.485,30.678 26.483,30.022 15.463,36.206 6.698,36.04 0.64,33.788 3.412,37.945 
		9.597,42.079 25.913,40.006 26.483,39.593 29.992,42.079 41.696,45.074 44.575,37.884 47.987,34.939 49.374,27.275 47.987,24.08 	
		"/>
	<polygon fill="#875C5B" points="11.156,32.455 12.574,32.553 10.024,27.275 9.171,27.275 1.813,25.726 1.493,26.417 0.64,28.705 
		3.092,30.678 	"/>
	<polygon fill="#875C5B" points="21.754,24.623 12.903,24.08 13.543,27.275 13.543,32.62 18.768,32.981 24.349,28.985 	"/>
	<polygon fill="#7F4F56" points="12.903,24.08 9.171,27.275 10.024,27.275 12.574,32.553 13.543,32.62 13.543,27.275 	"/>
	<polygon fill="#4D3736" points="15.463,36.206 26.483,30.022 24.74,28.705 24.349,28.985 18.768,32.981 13.543,32.62 
		12.574,32.553 11.156,32.455 11.156,32.455 3.092,30.678 0.64,28.705 0,30.678 0.64,33.788 6.698,36.04 	"/>
	<polygon fill="#E0B0A3" points="9.171,21.567 9.171,20.772 5.218,17.646 5.218,17.646 3.488,19.976 3.488,19.976 6.177,19.976 	"/>
	<polygon fill="#E0B0A3" points="15.272,15.69 15.586,14.772 14.015,13.084 14.015,13.084 7.998,13.289 7.638,13.853 7.638,13.853 
		14.08,14.942 	"/>
	<polygon fill="#E0B0A3" points="34.654,8.258 33.776,6.868 33.274,6.326 34.277,5.377 38.93,5.216 38.93,5.216 35.297,3.385 
		32.418,4.594 29.22,8.258 29.22,8.258 31.706,7.816 	"/>
</g>
<path fill="#24373B" d="M31.85,5.305c0,0-4.633,2.215-6.362,3.109c-1.309,0.677-4.682,1.504-5.096,3.007
	c-0.225,0.819,1.248,2.2,1.497,3.011c0.357,1.16,0.672,4.837,0.672,4.837s-3.955,5.007-4.751,6.999
	c-0.73,1.827-1.209,5.844-1.333,7.83c-0.091,1.46,0.223,4.384,0.255,5.847c0.02,0.919-0.813,3.404,0,3.677
	c0.453,0.152,0.937-1.198,1.078-1.688c0.178-0.618-0.031-1.943,0-2.59c0.069-1.438,0.448-4.293,0.551-5.729
	c0.112-1.553,0.734-4.688,1.33-6.106c0.887-2.112,4.295-4.448,5.13-6.584c0.327-0.835,0.18-2.741,0-3.627
	c-0.289-1.421-2.648-3.89-2.26-5.284c0.248-0.89,2.099-1.703,2.927-1.958c0.436-0.134,1.387,0.168,1.813,0
	C28.921,9.415,31.85,5.305,31.85,5.305z"/>
<path fill="#034433" d="M36.259,30.67c-0.687,0.637-2.444,1.355-3.093,2.038c-0.516,0.543-1.712,1.855-1.563,2.616
	c0.217,1.109,2.568,1.986,3.509,2.486c0.97,0.516,3.035,1.248,4.083,1.533c1.478,0.403,6.021,1.052,6.021,1.052
	s-0.289-2.92-0.653-3.804c-1.028-2.497-3.624-8.613-6.154-8.677C37.576,27.893,36.892,30.083,36.259,30.67z"/>
<path fill="#034433" d="M20.862,33.297c-0.56-0.638-2.381-0.929-3.18-0.763c-0.874,0.181-2.471,1.349-2.945,2.163
	c-0.42,0.721-0.556,2.524-0.471,3.371c0.035,0.355,0.327,1.014,0.471,1.336c0.3,0.667,1.285,1.815,1.414,2.544
	c0.1,0.57-0.353,2.29-0.353,2.29s1.971-1.683,2.591-2.29c0.648-0.634,2.027-1.859,2.474-2.671c0.266-0.485,0.557-1.6,0.589-2.163
	C21.505,36.148,21.478,33.999,20.862,33.297z"/>
<path fill="#076034" d="M21.825,31.525c-0.56-0.638-2.38-0.929-3.18-0.763c-0.874,0.181-2.471,1.349-2.945,2.163
	c-0.42,0.721-0.556,2.524-0.471,3.371c0.035,0.355,0.327,1.014,0.471,1.336c0.3,0.667,1.285,1.815,1.414,2.544
	c0.1,0.57-0.353,2.29-0.353,2.29s1.971-1.683,2.591-2.29c0.648-0.634,2.027-1.859,2.474-2.671c0.266-0.485,0.557-1.6,0.589-2.163
	C22.468,34.376,22.441,32.227,21.825,31.525z"/>
<path fill="#0B6635" d="M19.527,30.729c0,0-0.677-0.054-0.882,0.033c-0.792,0.336-2.139,1.616-2.572,2.408
	c-0.266,0.487-0.468,1.649-0.437,2.215c0.028,0.501,0.43,1.432,0.601,1.898c0.165,0.45,0.579,1.311,0.74,1.762
	c0.098,0.275,0.317,0.827,0.332,1.121c0.023,0.451-0.332,1.772-0.332,1.772s0.745-0.932,0.963-1.267
	c0.443-0.678,1.327-2.064,1.586-2.846c0.22-0.666,0.33-2.095,0.377-2.801c0.051-0.755,0.109-2.279,0-3.026
	C19.856,31.667,19.527,30.729,19.527,30.729z"/>
<path fill="#034433" d="M35.492,33.695c-0.894-0.729-3.486-0.556-4.481,0c-0.77,0.43-1.742,2.164-2.005,3.056
	c-0.17,0.576,0.15,1.837,0,2.42c-0.184,0.716-1.415,2.547-1.415,2.547s1.771,0.056,2.358,0c1.164-0.112,3.616-0.21,4.599-0.891
	c0.74-0.513,1.861-2.183,2.005-3.12C36.711,36.678,36.263,34.323,35.492,33.695z"/>
<path fill="#009453" d="M36.456,31.921c-0.894-0.729-3.486-0.556-4.481,0c-0.77,0.43-1.742,2.164-2.005,3.056
	c-0.17,0.576,0.15,1.837,0,2.42c-0.184,0.716-1.415,2.547-1.415,2.547s1.771,0.056,2.358,0c1.164-0.112,3.616-0.21,4.599-0.891
	c0.74-0.513,1.861-2.183,2.005-3.12C37.676,34.904,37.227,32.549,36.456,31.921z"/>
<path fill="#06AA5F" d="M34.747,31.621c-0.426-0.056-1.294,0.123-1.695,0.29c-0.414,0.172-1.166,0.716-1.485,1.049
	c-0.405,0.423-1.128,1.41-1.298,1.99c-0.123,0.42,0.096,1.335,0,1.764c-0.129,0.575-1.002,2.104-1.002,2.104l-0.525,0.986
	c0,0,1.361-0.44,1.778-0.677c0.693-0.394,1.983-1.389,2.532-1.992c0.64-0.703,1.77-2.305,2.098-3.225
	c0.168-0.47,0.461-1.563,0.228-1.999C35.293,31.75,34.917,31.643,34.747,31.621z"/>
<path fill="#034433" d="M23.49,18.045c0.548-0.591,2.343-0.183,3.098,0c0.739,0.179,2.181,0.844,2.738,1.398
	c0.38,0.378,0.817,1.426,1.036,1.932c0.233,0.539,0.658,1.651,0.753,2.237c0.045,0.275,0,1.118,0,1.118s-1.341,0-1.789,0
	c-0.753,0-2.297,0.252-3.012,0c-0.72-0.254-2.04-1.242-2.448-1.932c-0.258-0.437-0.329-1.517-0.377-2.033
	C23.428,20.088,23.045,18.526,23.49,18.045z"/>
<path fill="#009453" d="M24.26,16.628c0.548-0.591,2.343-0.183,3.098,0c0.739,0.179,2.181,0.844,2.738,1.398
	c0.38,0.378,0.817,1.426,1.036,1.932c0.233,0.539,0.658,1.651,0.753,2.237c0.045,0.275,0,1.118,0,1.118s-1.341,0-1.789,0
	c-0.753,0-2.297,0.252-3.012,0c-0.72-0.254-2.04-1.242-2.448-1.932c-0.258-0.437-0.329-1.517-0.377-2.033
	C24.198,18.671,23.815,17.109,24.26,16.628z"/>
<path fill="#06AA5F" d="M24.26,16.628c0,0,1.001-0.122,1.331-0.073c0.854,0.126,2.507,0.75,3.272,1.181
	c0.412,0.233,1.195,0.815,1.492,1.202c0.404,0.523,0.905,1.802,1.117,2.443c0.154,0.467,0.413,1.932,0.413,1.932
	s-1.374-1.275-1.797-1.739c-0.412-0.451-1.065-1.539-1.538-1.914c-0.389-0.308-1.335-0.608-1.772-0.83
	c-0.373-0.19-1.15-0.528-1.471-0.808C24.983,17.739,24.26,16.628,24.26,16.628z"/>
<path fill="#034433" d="M22.758,14.555c-0.398-0.472-1.747-0.531-2.33-0.431c-0.353,0.06-0.961,0.516-1.265,0.719
	c-0.314,0.21-0.972,0.619-1.199,0.935c-0.197,0.275-0.407,0.953-0.466,1.294c-0.061,0.353-0.051,1.083,0,1.438
	c0.051,0.354,0.391,1.008,0.4,1.366c0.01,0.427-0.26,1.254-0.4,1.654c-0.079,0.226-0.4,0.863-0.4,0.863s1.047-0.227,1.398-0.288
	c0.514-0.089,1.6-0.033,2.064-0.288c0.388-0.213,0.932-0.994,1.199-1.366c0.366-0.511,1.123-1.566,1.265-2.193
	C23.228,17.356,23.337,15.241,22.758,14.555z"/>
<path fill="#009453" d="M23.302,13.553c-0.398-0.472-1.747-0.531-2.33-0.431c-0.353,0.06-0.961,0.516-1.265,0.719
	c-0.314,0.21-0.972,0.619-1.199,0.935c-0.197,0.275-0.407,0.953-0.466,1.294c-0.061,0.353-0.051,1.083,0,1.438
	c0.051,0.354,0.391,1.008,0.4,1.366c0.01,0.427-0.26,1.254-0.4,1.654c-0.079,0.226-0.399,0.863-0.399,0.863s1.047-0.227,1.398-0.288
	c0.514-0.089,1.6-0.033,2.064-0.288c0.388-0.213,0.932-0.994,1.199-1.366c0.366-0.511,1.123-1.566,1.265-2.193
	C23.773,16.354,23.882,14.239,23.302,13.553z"/>
<path fill="#06AA5F" d="M22.188,13.238c0,0-0.918-0.186-1.216-0.117c-0.548,0.128-1.531,0.792-1.955,1.189
	c-0.253,0.237-0.707,0.807-0.814,1.15c-0.121,0.387-0.117,1.246,0,1.634c0.098,0.325,0.488,0.911,0.508,1.251
	c0.03,0.492-0.338,1.437-0.508,1.894c-0.085,0.227-0.421,0.868-0.421,0.868s1.354-1.011,1.734-1.434
	c0.508-0.566,1.39-1.848,1.703-2.559C21.617,16.208,22.188,13.238,22.188,13.238z"/>
<path fill="#034433" d="M41.481,34.673c-0.648-0.327-2.115,0.593-2.688,1.054c-0.71,0.572-1.859,2.156-2.111,3.073
	c-0.216,0.785,0.032,2.467,0.186,3.268c0.092,0.479,0.686,3.146,0.686,3.146s1.928-2.896,2.713-3.472
	c0.375-0.275,1.184-1.168,1.441-1.572c0.669-1.054,0.121-3.854-0.095-5.111C41.593,34.959,41.567,34.717,41.481,34.673z"/>
<path fill="#076034" d="M41.76,33.037c-0.648-0.327-2.115,0.593-2.688,1.054c-0.71,0.572-1.859,2.156-2.111,3.073
	c-0.216,0.785,0.032,2.467,0.186,3.268c0.092,0.479,0.686,3.146,0.686,3.146s1.928-2.896,2.713-3.472
	c0.375-0.275,1.184-1.168,1.441-1.572c0.669-1.054,0.121-3.854-0.095-5.111C41.873,33.323,41.847,33.081,41.76,33.037z"/>
<path fill="#0B6635" d="M41.63,33.192l0.022,0.143c0,0,0.462,2.228,0.466,2.985c0.003,0.476-0.045,1.472-0.269,1.882
	c-0.118,0.216-0.532,0.492-0.736,0.613c-0.256,0.152-0.861,0.247-1.099,0.431c-0.695,0.536-2.143,2.873-2.143,2.873
	s-0.104-0.883-0.072-1.175c0.075-0.678,0.475-1.994,0.757-2.605c0.183-0.396,0.714-1.08,0.955-1.438
	c0.24-0.356,0.749-1.045,0.968-1.417C40.804,34.934,41.63,33.192,41.63,33.192z"/>
</svg>
