<?xml version="1.0" encoding="utf-8"?>
<!-- Generator: Adobe Illustrator 17.0.0, SVG Export Plug-In . SVG Version: 6.00 Build 0)  -->
<!DOCTYPE svg PUBLIC "-//W3C//DTD SVG 1.1//EN" "http://www.w3.org/Graphics/SVG/1.1/DTD/svg11.dtd">
<svg version="1.1" id="Layer_1" xmlns="http://www.w3.org/2000/svg" xmlns:xlink="http://www.w3.org/1999/xlink" x="0px" y="0px"
	 width="50px" height="50px" viewBox="0 0 50 50" enable-background="new 0 0 50 50" xml:space="preserve">
<polygon fill="#875C5B" points="16.663,23.076 16.663,24.517 22.489,32.047 28.013,34.246 31.895,33.236 33.019,21.685 
	32.885,17.938 28.826,14.522 27.34,15.017 "/>
<g>
	<polygon fill="#875C5B" points="33.079,17.851 33.019,21.685 33.019,23.235 33.079,22.535 	"/>
	<polygon fill="#875C5B" points="30.493,23.447 33.019,21.685 31.58,21.372 27.634,17.638 27.473,14.788 20.065,20.468 
		19.635,22.249 18.647,24.928 16.663,24.517 22.248,32.264 27.634,26.832 	"/>
	<polygon fill="#563C3C" points="30.493,23.447 27.634,26.832 22.248,32.264 28.013,34.246 32.157,33.345 33.019,23.235 
		33.019,23.235 33.019,21.685 	"/>
	<polygon fill="#4D3736" points="19.635,22.249 20.065,20.468 20.065,20.468 16.663,23.076 16.663,24.517 18.647,24.928 	"/>
	<polygon fill="#BA8B80" points="31.58,21.372 33.019,21.685 33.079,17.851 28.828,14.362 27.473,14.788 27.634,17.638 	"/>
</g>
</svg>
