<?xml version="1.0" encoding="utf-8"?>
<!-- Generator: Adobe Illustrator 17.0.0, SVG Export Plug-In . SVG Version: 6.00 Build 0)  -->
<!DOCTYPE svg PUBLIC "-//W3C//DTD SVG 1.1//EN" "http://www.w3.org/Graphics/SVG/1.1/DTD/svg11.dtd">
<svg version="1.1" id="Layer_1" xmlns="http://www.w3.org/2000/svg" xmlns:xlink="http://www.w3.org/1999/xlink" x="0px" y="0px"
	 width="50px" height="50px" viewBox="0 0 50 50" enable-background="new 0 0 50 50" xml:space="preserve">
<g id="Layer_1_1_">
	
		<linearGradient id="SVGID_1_" gradientUnits="userSpaceOnUse" x1="-825.7398" y1="828.196" x2="-825.7398" y2="803.456" gradientTransform="matrix(-1 0 0 1 -800.8153 -791)">
		<stop  offset="0" style="stop-color:#C2C3C6"/>
		<stop  offset="0.0225" style="stop-color:#CCCDCF"/>
		<stop  offset="0.0801" style="stop-color:#DEE1E2"/>
		<stop  offset="0.1465" style="stop-color:#ECEEEF"/>
		<stop  offset="0.2285" style="stop-color:#F4F7F7"/>
		<stop  offset="0.3732" style="stop-color:#F6F9F9"/>
		<stop  offset="0.5124" style="stop-color:#F2F5F5"/>
		<stop  offset="0.6556" style="stop-color:#E6E9EA"/>
		<stop  offset="0.8002" style="stop-color:#D2D4D7"/>
		<stop  offset="0.9386" style="stop-color:#B7B9BE"/>
		<stop  offset="0.9517" style="stop-color:#B2B3B4"/>
		<stop  offset="0.9751" style="stop-color:#ACACA9"/>
		<stop  offset="1" style="stop-color:#AAAAA5"/>
	</linearGradient>
	<path fill="url(#SVGID_1_)" stroke="#FFFFFF" stroke-width="0.25" stroke-miterlimit="10" d="M12.874,12.456
		c0.104,0,24.642,0.024,24.642,0.024c6.551,0.275,11.761,5.747,11.761,12.365S44.031,36.906,37.48,37.181
		c0,0-24.502,0.015-24.606,0.015c-6.794,0-12.302-5.538-12.302-12.37C0.572,17.994,6.079,12.456,12.874,12.456z"/>
	
		<radialGradient id="SVGID_2_" cx="-1071.082" cy="-250.5221" r="12.16" gradientTransform="matrix(-4.489659e-11 -1.0061 -2 9.033967e-11 -472.9832 -1052.8273)" gradientUnits="userSpaceOnUse">
		<stop  offset="0" style="stop-color:#292627"/>
		<stop  offset="0.1703" style="stop-color:#2C292A;stop-opacity:0.8297"/>
		<stop  offset="0.3095" style="stop-color:#363334;stop-opacity:0.6905"/>
		<stop  offset="0.4377" style="stop-color:#474545;stop-opacity:0.5623"/>
		<stop  offset="0.5593" style="stop-color:#5F5D5D;stop-opacity:0.4407"/>
		<stop  offset="0.6763" style="stop-color:#7E7C7C;stop-opacity:0.3237"/>
		<stop  offset="0.7899" style="stop-color:#A3A2A2;stop-opacity:0.2101"/>
		<stop  offset="0.8985" style="stop-color:#CFCECF;stop-opacity:0.1015"/>
		<stop  offset="1" style="stop-color:#FFFFFF;stop-opacity:0"/>
	</radialGradient>
	
		<linearGradient id="SVGID_3_" gradientUnits="userSpaceOnUse" x1="-828.8763" y1="823.748" x2="-828.8763" y2="807.829" gradientTransform="matrix(-1 0 0 1 -800.8153 -791)">
		<stop  offset="0" style="stop-color:#3B3A3C"/>
		<stop  offset="0.1098" style="stop-color:#818385"/>
		<stop  offset="1" style="stop-color:#231F20"/>
	</linearGradient>
	
		<path opacity="0.5" fill="url(#SVGID_2_)" stroke="url(#SVGID_3_)" stroke-width="0.25" stroke-miterlimit="10" enable-background="new    " d="
		M20.475,16.954c0.065,0,15.533,0.018,15.533,0.018c4.124,0.174,7.384,3.637,7.384,7.829s-3.293,7.601-7.417,7.775
		c0,0-15.435,0.047-15.5,0.047c-4.277,0-7.745-3.508-7.745-7.835C12.731,20.461,16.198,16.954,20.475,16.954z"/>
	
		<linearGradient id="SVGID_4_" gradientUnits="userSpaceOnUse" x1="-843.3373" y1="815.776" x2="-815.4123" y2="815.776" gradientTransform="matrix(-1 0 0 1 -800.8153 -791)">
		<stop  offset="0" style="stop-color:#FFFFFF"/>
		<stop  offset="0.1088" style="stop-color:#F8F8F8"/>
		<stop  offset="0.2666" style="stop-color:#E5E5E6"/>
		<stop  offset="0.4544" style="stop-color:#C5C6C7"/>
		<stop  offset="0.6652" style="stop-color:#999B9D"/>
		<stop  offset="0.8924" style="stop-color:#616468"/>
		<stop  offset="1" style="stop-color:#44484C"/>
	</linearGradient>
	<path fill="url(#SVGID_4_)" d="M21.651,17.684c0.06,0,14.146,0.016,14.146,0.016c3.756,0.158,6.725,3.292,6.725,7.087
		s-2.999,6.88-6.755,7.038c0,0-14.057,0.043-14.117,0.043c-3.895,0-7.053-3.175-7.053-7.092
		C14.598,20.859,17.755,17.684,21.651,17.684z"/>
	<g opacity="0.8" enable-background="new    ">
		<g>
			<path fill="#232323" d="M3.913,25.473c0,5.708,4.643,10.335,10.371,10.335s10.371-4.627,10.371-10.335
				s-4.643-10.335-10.371-10.335S3.913,19.765,3.913,25.473z M5.792,25.387c0-4.434,4.023-8.473,8.473-8.473s8.355,4.185,8.355,8.62
				c0,4.434-3.886,7.968-8.336,7.968C9.834,33.503,5.792,29.822,5.792,25.387z"/>
		</g>
	</g>
</g>
<g id="Layer_2">
</g>
<linearGradient id="SVGID_5_" gradientUnits="userSpaceOnUse" x1="-825.2755" y1="816.2128" x2="-804.9154" y2="816.2128" gradientTransform="matrix(-1 0 0 1 -800.8153 -791)">
	<stop  offset="0" style="stop-color:#2482C5"/>
	<stop  offset="0.0667" style="stop-color:#1D68C8"/>
	<stop  offset="0.1939" style="stop-color:#103CCD"/>
	<stop  offset="0.3079" style="stop-color:#071CD1"/>
	<stop  offset="0.4034" style="stop-color:#0208D3"/>
	<stop  offset="0.4687" style="stop-color:#0001D4"/>
	<stop  offset="1" style="stop-color:#007BA3"/>
</linearGradient>
<path fill="url(#SVGID_5_)" d="M4.1,25.213c0,5.602,4.558,10.144,10.18,10.144s10.18-4.542,10.18-10.144s-4.558-10.144-10.18-10.144
	C8.657,15.069,4.1,19.611,4.1,25.213z"/>
<path opacity="0.1" fill="#F8F7F6" enable-background="new    " d="M21.652,30.973c0,0-2.215,3.591-7.354,3.591
	s-9.304-4.151-9.304-9.272s4.166-9.272,9.304-9.272c0,0-3.883,5.728-1.671,10.398C14.802,31.01,21.652,30.973,21.652,30.973z"/>
<path opacity="0.1" fill="#F8F7F6" enable-background="new    " d="M18.657,33.315c0,0-1.281,0.809-4.359,1.001
	c-5.128,0.321-9.304-4.091-9.304-9.139s3.283-6.751,4.574-7.871c0,0-3.358,6.302-1.049,10.886
	C11.708,34.529,18.657,33.315,18.657,33.315z"/>
<linearGradient id="SVGID_6_" gradientUnits="userSpaceOnUse" x1="-825.5126" y1="816.1994" x2="-804.7706" y2="816.1994" gradientTransform="matrix(-1 0 0 1 -800.8153 -791)">
	<stop  offset="0" style="stop-color:#9B9B92"/>
	<stop  offset="0.0487" style="stop-color:#AAAAA0"/>
	<stop  offset="0.1434" style="stop-color:#C1C0B7"/>
	<stop  offset="0.2449" style="stop-color:#D2D0C7"/>
	<stop  offset="0.3568" style="stop-color:#DCDAD0"/>
	<stop  offset="0.4996" style="stop-color:#DFDDD3"/>
	<stop  offset="0.7595" style="stop-color:#CECDCF"/>
	<stop  offset="1" style="stop-color:#C4C3CD"/>
</linearGradient>
<path fill="url(#SVGID_6_)" d="M3.955,25.199c0,5.708,4.643,10.335,10.371,10.335s10.371-4.627,10.371-10.335
	s-4.643-10.335-10.371-10.335C8.598,14.864,3.955,19.492,3.955,25.199z M6.269,25.199c0-4.434,3.607-8.029,8.057-8.029
	s8.057,3.595,8.057,8.029s-3.607,8.029-8.057,8.029C9.876,33.229,6.269,29.634,6.269,25.199z"/>
</svg>
