<?xml version="1.0" encoding="utf-8"?>
<!-- Generator: Adobe Illustrator 17.0.0, SVG Export Plug-In . SVG Version: 6.00 Build 0)  -->
<!DOCTYPE svg PUBLIC "-//W3C//DTD SVG 1.1//EN" "http://www.w3.org/Graphics/SVG/1.1/DTD/svg11.dtd">
<svg version="1.1" id="Layer_1" xmlns="http://www.w3.org/2000/svg" xmlns:xlink="http://www.w3.org/1999/xlink" x="0px" y="0px"
	 width="50px" height="50px" viewBox="0 0 50 50" enable-background="new 0 0 50 50" xml:space="preserve">
<linearGradient id="SVGID_1_" gradientUnits="userSpaceOnUse" x1="115.368" y1="40.867" x2="115.368" y2="65.532" gradientTransform="matrix(1 0 0 -1 -90.5 78)">
	<stop  offset="0" style="stop-color:#C2C3C6"/>
	<stop  offset="0.0225" style="stop-color:#CCCDCF"/>
	<stop  offset="0.0801" style="stop-color:#DEE1E2"/>
	<stop  offset="0.1465" style="stop-color:#ECEEEF"/>
	<stop  offset="0.2285" style="stop-color:#F4F7F7"/>
	<stop  offset="0.3732" style="stop-color:#F6F9F9"/>
	<stop  offset="0.5124" style="stop-color:#F2F5F5"/>
	<stop  offset="0.6556" style="stop-color:#E6E9EA"/>
	<stop  offset="0.8002" style="stop-color:#D2D4D7"/>
	<stop  offset="0.9386" style="stop-color:#B7B9BE"/>
	<stop  offset="0.9517" style="stop-color:#B2B3B4"/>
	<stop  offset="0.9751" style="stop-color:#ACACA9"/>
	<stop  offset="1" style="stop-color:#AAAAA5"/>
</linearGradient>
<path fill="url(#SVGID_1_)" stroke="#FFFFFF" stroke-width="0.25" stroke-miterlimit="10" d="M36.882,12.468
	c-0.104,0-24.567,0.024-24.567,0.024C5.784,12.766,0.589,18.221,0.589,24.82c0,6.598,5.23,12.024,11.761,12.298
	c0,0,24.428,0.015,24.532,0.015c6.774,0,12.265-5.521,12.265-12.332C49.146,17.99,43.655,12.468,36.882,12.468z"/>
<radialGradient id="SVGID_2_" cx="-552.8625" cy="316.0473" r="12.1221" gradientTransform="matrix(4.489659e-11 -1.0061 -2 -9.033967e-11 653.8341 -531.472)" gradientUnits="userSpaceOnUse">
	<stop  offset="0" style="stop-color:#292627"/>
	<stop  offset="0.1703" style="stop-color:#2C292A;stop-opacity:0.8297"/>
	<stop  offset="0.3095" style="stop-color:#363334;stop-opacity:0.6905"/>
	<stop  offset="0.4377" style="stop-color:#474545;stop-opacity:0.5623"/>
	<stop  offset="0.5593" style="stop-color:#5F5D5D;stop-opacity:0.4407"/>
	<stop  offset="0.6763" style="stop-color:#7E7C7C;stop-opacity:0.3237"/>
	<stop  offset="0.7899" style="stop-color:#A3A2A2;stop-opacity:0.2101"/>
	<stop  offset="0.8985" style="stop-color:#CFCECF;stop-opacity:0.1015"/>
	<stop  offset="1" style="stop-color:#FFFFFF;stop-opacity:0"/>
</radialGradient>
<linearGradient id="SVGID_3_" gradientUnits="userSpaceOnUse" x1="112.2395" y1="45.301" x2="112.2395" y2="61.173" gradientTransform="matrix(1 0 0 -1 -90.5 78)">
	<stop  offset="0" style="stop-color:#3B3A3C"/>
	<stop  offset="0.1098" style="stop-color:#818385"/>
	<stop  offset="1" style="stop-color:#231F20"/>
</linearGradient>
<path opacity="0.5" fill="url(#SVGID_2_)" stroke="url(#SVGID_3_)" stroke-width="0.25" stroke-miterlimit="10" enable-background="new    " d="
	M29.303,16.952c-0.065,0-15.486,0.018-15.486,0.018c-4.111,0.174-7.362,3.626-7.362,7.805s3.283,7.578,7.394,7.752
	c0,0,15.388,0.047,15.454,0.047c4.264,0,7.721-3.497,7.721-7.811S33.567,16.952,29.303,16.952z"/>
<linearGradient id="SVGID_4_" gradientUnits="userSpaceOnUse" x1="97.822" y1="53.2495" x2="125.662" y2="53.2495" gradientTransform="matrix(1 0 0 -1 -90.5 78)">
	<stop  offset="0" style="stop-color:#008241"/>
	<stop  offset="0.0126" style="stop-color:#0A8841"/>
	<stop  offset="0.0565" style="stop-color:#269842"/>
	<stop  offset="0.106" style="stop-color:#3DA543"/>
	<stop  offset="0.1626" style="stop-color:#4FAF44"/>
	<stop  offset="0.2303" style="stop-color:#5CB745"/>
	<stop  offset="0.3206" style="stop-color:#63BB45"/>
	<stop  offset="0.5256" style="stop-color:#65BC45"/>
	<stop  offset="0.6197" style="stop-color:#5EBB49"/>
	<stop  offset="0.7534" style="stop-color:#4CB855"/>
	<stop  offset="0.8235" style="stop-color:#3FB65D"/>
	<stop  offset="0.8644" style="stop-color:#26AF58"/>
	<stop  offset="0.9112" style="stop-color:#11AA54"/>
	<stop  offset="0.9569" style="stop-color:#04A651"/>
	<stop  offset="1" style="stop-color:#00A550"/>
</linearGradient>
<path fill="url(#SVGID_4_)" d="M28.131,17.68c-0.059,0-14.104,0.016-14.104,0.016c-3.744,0.157-6.705,3.282-6.705,7.065
	s2.99,6.86,6.734,7.017c0,0,14.015,0.043,14.074,0.043c3.884,0,7.032-3.166,7.032-7.071C35.163,20.846,32.015,17.68,28.131,17.68z"
	/>
<linearGradient id="SVGID_5_" gradientUnits="userSpaceOnUse" x1="115.894" y1="52.782" x2="136.192" y2="52.782" gradientTransform="matrix(1 0 0 -1 -90.5 78)">
	<stop  offset="0" style="stop-color:#106A3B"/>
	<stop  offset="0.0746" style="stop-color:#27803E"/>
	<stop  offset="0.1843" style="stop-color:#429A41"/>
	<stop  offset="0.2957" style="stop-color:#56AD43"/>
	<stop  offset="0.4086" style="stop-color:#61B845"/>
	<stop  offset="0.5256" style="stop-color:#65BC45"/>
	<stop  offset="0.6197" style="stop-color:#5EBB49"/>
	<stop  offset="0.7534" style="stop-color:#4CB855"/>
	<stop  offset="0.8235" style="stop-color:#3FB65D"/>
	<stop  offset="0.8644" style="stop-color:#26AF58"/>
	<stop  offset="0.9112" style="stop-color:#11AA54"/>
	<stop  offset="0.9569" style="stop-color:#04A651"/>
	<stop  offset="1" style="stop-color:#00A550"/>
</linearGradient>
<path fill="url(#SVGID_5_)" d="M35.543,15.104c-5.605,0-10.149,4.528-10.149,10.114s4.544,10.114,10.149,10.114
	s10.149-4.528,10.149-10.114S41.148,15.104,35.543,15.104z"/>
<g opacity="0.8" enable-background="new    ">
	<path fill="#232323" stroke="#232323" stroke-width="0.25" stroke-miterlimit="10" d="M35.475,15.142
		c-5.711,0-10.34,4.613-10.34,10.304s4.629,10.304,10.34,10.304s10.34-4.613,10.34-10.304S41.186,15.142,35.475,15.142z
		 M35.475,33.451c-4.437,0-8.311-3.523-8.311-7.944s3.893-8.594,8.33-8.594c4.436,0,8.447,4.026,8.447,8.447
		C43.941,29.781,39.912,33.451,35.475,33.451z"/>
</g>
<path opacity="0.1" fill="#F8F7F6" enable-background="new    " d="M42.879,30.893c0,0-2.215,3.591-7.354,3.591
	s-9.304-4.151-9.304-9.272s4.166-9.272,9.304-9.272c0,0-3.883,5.728-1.671,10.398C36.029,30.93,42.879,30.893,42.879,30.893z"/>
<path opacity="0.1" fill="#F8F7F6" enable-background="new    " d="M39.884,33.235c0,0-1.281,0.809-4.359,1.001
	c-5.128,0.321-9.304-4.091-9.304-9.139s3.283-6.751,4.574-7.871c0,0-3.358,6.302-1.049,10.886
	C32.935,34.449,39.884,33.235,39.884,33.235z"/>
<linearGradient id="SVGID_6_" gradientUnits="userSpaceOnUse" x1="115.685" y1="52.779" x2="136.365" y2="52.779" gradientTransform="matrix(1 0 0 -1 -90.5 78)">
	<stop  offset="0" style="stop-color:#9B9B92"/>
	<stop  offset="0.0487" style="stop-color:#AAAAA0"/>
	<stop  offset="0.1434" style="stop-color:#C1C0B7"/>
	<stop  offset="0.2449" style="stop-color:#D2D0C7"/>
	<stop  offset="0.3568" style="stop-color:#DCDAD0"/>
	<stop  offset="0.4996" style="stop-color:#DFDDD3"/>
	<stop  offset="0.7595" style="stop-color:#CECDCF"/>
	<stop  offset="1" style="stop-color:#C4C3CD"/>
</linearGradient>
<path fill="url(#SVGID_6_)" d="M35.525,14.917c-5.711,0-10.34,4.613-10.34,10.304s4.629,10.304,10.34,10.304
	s10.34-4.613,10.34-10.304S41.236,14.917,35.525,14.917z M35.525,33.226c-4.437,0-8.033-3.584-8.033-8.005s3.597-8.005,8.033-8.005
	c4.437,0,8.033,3.584,8.033,8.005C43.558,29.642,39.962,33.226,35.525,33.226z"/>
</svg>
