<?xml version="1.0" encoding="utf-8"?>
<!-- Generator: Adobe Illustrator 17.0.0, SVG Export Plug-In . SVG Version: 6.00 Build 0)  -->
<!DOCTYPE svg PUBLIC "-//W3C//DTD SVG 1.1//EN" "http://www.w3.org/Graphics/SVG/1.1/DTD/svg11.dtd">
<svg version="1.1" id="Layer_1" xmlns="http://www.w3.org/2000/svg" xmlns:xlink="http://www.w3.org/1999/xlink" x="0px" y="0px"
	 width="500.532px" height="397.865px" viewBox="0 0 500.532 397.865" enable-background="new 0 0 500.532 397.865"
	 xml:space="preserve">
<pattern  x="44.52" y="-248.606" width="350" height="370" patternUnits="userSpaceOnUse" id="New_Pattern_2" viewBox="0 -896.813 350 370" overflow="visible">
	<g>
		<polygon fill="none" points="0,-896.813 350,-896.813 350,-526.813 0,-526.813 		"/>
		<polyline opacity="0.3" fill="#FFFFFF" points="344.347,0 5.404,-360.741 5.434,-683.627 308.864,-358.749 302.155,-111.809 
			71.223,-358.811 69.776,-544.394 244.17,-358.749 237.46,-252.449 135.877,-360.155 135.877,-404.457 211.159,-322.213 
			211.12,-359.452 104.233,-474.777 103.53,-360.155 269.807,-183.535 275.814,-360.155 38.836,-613.307 38.143,-358.049 
			334.502,-45.708 344.596,-359.76 343.321,-361.078 		"/>
		<polyline opacity="0.3" fill="#FFFFFF" points="344.347,-370 5.404,-730.741 5.434,-1053.627 308.864,-728.749 302.155,-481.809 
			71.223,-728.811 69.776,-914.394 244.17,-728.749 237.46,-622.449 135.877,-730.155 135.877,-774.457 211.159,-692.213 
			211.12,-729.452 104.233,-844.777 103.53,-730.155 269.807,-553.535 275.814,-730.155 38.836,-983.307 38.143,-728.049 
			334.502,-415.708 344.596,-729.76 343.321,-731.078 		"/>
		<polyline opacity="0.3" fill="#FFFFFF" points="344.347,-740 5.404,-1100.741 5.434,-1423.627 308.864,-1098.749 
			302.155,-851.809 71.223,-1098.811 69.776,-1284.394 244.17,-1098.749 237.46,-992.449 135.877,-1100.155 135.877,-1144.457 
			211.159,-1062.213 211.12,-1099.452 104.233,-1214.777 103.53,-1100.155 269.807,-923.535 275.814,-1100.155 38.836,-1353.307 
			38.143,-1098.049 334.502,-785.708 344.596,-1099.76 343.321,-1101.078 		"/>
	</g>
</pattern>
<linearGradient id="SVGID_1_" gradientUnits="userSpaceOnUse" x1="0.9342" y1="198.9324" x2="500.5317" y2="198.9324">
	<stop  offset="0" style="stop-color:#F9A91A"/>
	<stop  offset="0.4888" style="stop-color:#F57F3A"/>
	<stop  offset="0.5007" style="stop-color:#F47E38"/>
	<stop  offset="0.6604" style="stop-color:#F0742B"/>
	<stop  offset="0.8248" style="stop-color:#ED6F25"/>
	<stop  offset="1" style="stop-color:#ED6D23"/>
</linearGradient>
<rect x="0.934" y="0" fill="url(#SVGID_1_)" width="499.597" height="397.865"/>
<path fill="#111132" d="M500.532,397.865v-70.69c-57.095-17.118-145.919-28.119-245.687-28.119
	c-105.275,0-198.362,12.25-254.845,31.008v67.8H500.532z"/>
<linearGradient id="SVGID_2_" gradientUnits="userSpaceOnUse" x1="249.9082" y1="4.472706e-06" x2="249.9082" y2="510.5837">
	<stop  offset="0" style="stop-color:#FFFFFF;stop-opacity:0.7"/>
	<stop  offset="0.8587" style="stop-color:#FFFFFF;stop-opacity:0.0989"/>
	<stop  offset="1" style="stop-color:#FFFFFF;stop-opacity:0"/>
</linearGradient>
<polygon opacity="0.5" fill="url(#SVGID_2_)" points="426.336,397.865 369.069,0 121.693,0 73.48,397.865 "/>
<linearGradient id="SVGID_3_" gradientUnits="userSpaceOnUse" x1="197.1555" y1="5.7109" x2="197.1555" y2="399.3963">
	<stop  offset="0" style="stop-color:#FFFFFF;stop-opacity:0.7"/>
	<stop  offset="0.8587" style="stop-color:#FFFFFF;stop-opacity:0.0989"/>
	<stop  offset="1" style="stop-color:#FFFFFF;stop-opacity:0"/>
</linearGradient>
<polygon opacity="0.4" fill="url(#SVGID_3_)" points="393.377,397.865 0.934,5.711 0.934,131.408 83.818,397.865 "/>
<linearGradient id="SVGID_4_" gradientUnits="userSpaceOnUse" x1="321.1489" y1="4.927678e-04" x2="321.1489" y2="399.623">
	<stop  offset="0" style="stop-color:#FFFFFF;stop-opacity:0.7"/>
	<stop  offset="0.8587" style="stop-color:#FFFFFF;stop-opacity:0.0989"/>
	<stop  offset="1" style="stop-color:#FFFFFF;stop-opacity:0"/>
</linearGradient>
<polygon opacity="0.2" fill="url(#SVGID_4_)" points="460.531,397.865 500.532,67.437 500.532,0 337.479,0.283 141.766,397.865 "/>
<polygon fill="#2E3181" points="323.902,397.865 273.236,40.294 221.405,16.477 143.063,40.294 180.977,397.865 "/>
<path fill="#2E3181" d="M290.628,180.714c7.476,3.45,22.629,9.533,28.202,12.989c10.957,6.794,37.477,23.723,45.138,28.157
	c3.25,1.881,11.48,3.885,14.855,2.236c2.635-1.287,5.007-7.386,5.75-10.223c1.154-4.404,0.973-13.762,0-18.209
	c-1.165-5.324-6.965-14.794-9.104-19.806c-0.64-1.5-2.53-4.444-2.396-6.07c0.153-1.856,2.972-4.738,3.833-6.389
	c0.587-1.125,1.631-3.444,2.076-4.632c0.192-0.513,0.651-1.547,0.639-2.095c-0.018-0.842-1.355-2.369-1.118-3.176
	c0.128-0.437,1.189-0.737,1.438-1.118c0.359-0.552,0.815-1.921,0.639-2.556c-0.196-0.708-2.169-1.348-2.076-2.076
	c0.1-0.781,2.324-0.914,2.715-1.597c0.615-1.075-0.029-3.714,0-4.952c0.04-1.718,1.106-5.34,0.319-6.868
	c-0.37-0.719-1.911-1.673-2.715-1.757c-0.553-0.057-1.762,0.34-2.076,0.799c-0.61,0.889,0.28,3.271,0,4.313
	c-0.227,0.847-0.886,3.137-1.757,3.035c-0.414-0.049-0.427-1.184-0.479-1.597c-0.131-1.031,0.409-3.144,0.16-4.153
	c-0.288-1.164-1.308-3.651-2.396-4.153c-0.996-0.459-3.695-0.107-4.313,0.799c-0.596,0.873,0.981,3.111,0.799,4.153
	c-0.296,1.693-2.638,4.431-3.514,5.91c-1.041,1.756-3.102,5.279-4.153,7.028c-0.434,0.722-0.963,3.156-1.757,2.875
	c-1.139-0.404,0.771-3.591,0.639-4.792c-0.317-2.876-1.528-9.348-3.993-10.861c-1.165-0.715-4.37-0.224-5.431,0.639
	c-1.077,0.877-2.008,3.905-1.757,5.271c0.205,1.116,2.342,2.512,2.875,3.514c0.587,1.104,1.361,3.543,1.438,4.792
	c0.101,1.653-1.11,4.874-1.118,6.531c-0.006,1.258,0.339,3.798,0.799,4.97c0.526,1.34,2.247,3.708,3.195,4.792
	c0.875,1.001,3.324,2.365,3.993,3.514c0.493,0.846,0.139,3.11,0.799,3.833c0.366,0.402,1.75,0.205,2.076,0.639
	c1.487,1.98,2.677,7.346,2.565,9.82c-0.153,3.353,3.828,17.226,0.506,17.712c-1.225,0.179-25.586-13.468-29.334-16.194
	c-5.411-3.935-25.907-16.076-29.772-18.664c-5.305-3.552-10.845-18.06-18.209-16.124
	C283.685,152.262,287.724,179.374,290.628,180.714z"/>
<polygon fill="#5764AE" points="221.405,16.477 140.981,40.927 186.005,64.111 276.151,38.779 "/>
<polygon fill="#434CA0" points="178.918,397.865 228.769,397.865 195.788,188.539 186.005,63.854 140.981,40.927 152.861,185.038 
	"/>
<polygon fill="#343795" points="228.859,397.865 323.722,397.865 290.926,174.383 276.152,38.779 186.005,64.111 195.788,188.539 
	"/>
<polygon fill="#363F95" points="246.04,397.865 310.017,397.865 274.938,174.427 263.937,64.111 205.942,79.096 215.004,185.516 "/>
<linearGradient id="SVGID_5_" gradientUnits="userSpaceOnUse" x1="55.4551" y1="94.6273" x2="117.384" y2="94.6273" gradientTransform="matrix(-0.9276 0.275 0.2843 0.9587 288.2972 -42.7459)">
	<stop  offset="0" style="stop-color:#A2A2A2;stop-opacity:0"/>
	<stop  offset="0.0418" style="stop-color:#999A9E;stop-opacity:0.0418"/>
	<stop  offset="0.2245" style="stop-color:#777D90;stop-opacity:0.2245"/>
	<stop  offset="0.4109" style="stop-color:#5C6684;stop-opacity:0.4109"/>
	<stop  offset="0.6002" style="stop-color:#49557C;stop-opacity:0.6002"/>
	<stop  offset="0.7942" style="stop-color:#3E4B78;stop-opacity:0.7942"/>
	<stop  offset="1" style="stop-color:#3A4876"/>
</linearGradient>
<polygon fill="url(#SVGID_5_)" points="206.378,80.489 263.798,64.553 263.71,63.081 205.942,79.036 "/>
<linearGradient id="SVGID_6_" gradientUnits="userSpaceOnUse" x1="-356.0414" y1="-10336.0635" x2="-286.5195" y2="-10336.0635" gradientTransform="matrix(-0.1034 -0.9946 -0.9946 0.1034 -10104.1924 863.0797)">
	<stop  offset="0" style="stop-color:#A2A2A2;stop-opacity:0"/>
	<stop  offset="0.0418" style="stop-color:#999A9E;stop-opacity:0.0418"/>
	<stop  offset="0.2245" style="stop-color:#777D90;stop-opacity:0.2245"/>
	<stop  offset="0.4109" style="stop-color:#5C6684;stop-opacity:0.4109"/>
	<stop  offset="0.6002" style="stop-color:#49557C;stop-opacity:0.6002"/>
	<stop  offset="0.7942" style="stop-color:#3E4B78;stop-opacity:0.7942"/>
	<stop  offset="1" style="stop-color:#3A4876"/>
</linearGradient>
<polygon fill="url(#SVGID_6_)" points="205.942,79.087 211.789,148.368 213.284,148.22 207.563,79.036 "/>
<polygon fill="#0C0C0C" points="313.828,397.865 326.868,312.091 318.427,310.808 305.192,397.865 "/>
<path fill="#0C0C0C" d="M318.498,294.2c0.286-0.587,1.254-1.602,1.868-1.827c1.844-0.674,6.175-0.222,7.805,0.873
	c0.512,0.344,1.063,1.562,1.182,2.168c0.936,4.764,0.207,15.059-2.157,19.298c-0.387,0.694-1.726,1.786-2.501,1.959
	c-1.72,0.384-5.451-0.53-6.869-1.575c-0.559-0.412-1.252-1.722-1.395-2.402C315.472,308.141,316.458,298.381,318.498,294.2z"/>
<polygon fill="#171814" points="327.876,241.414 319.295,298.288 327.736,299.571 334.762,253.353 "/>
<ellipse transform="matrix(-0.9987 0.05 -0.05 -0.9987 561.9589 227.7658)" fill="#121212" cx="278.129" cy="120.917" rx="9.049" ry="8.792"/>
<ellipse transform="matrix(-0.9968 0.08 -0.08 -0.9968 400.8726 248.578)" fill="#121212" cx="195.458" cy="132.318" rx="9.798" ry="9.52"/>
<path fill="#121212" d="M288.765,105.768c-2.207-1.601-7.328-1.219-9.706-1.067c-2.923,0.187-8.655,1.446-11.207,2.79
	c-1.86,0.98-5.246,4.096-5.893,6.406c-0.343,1.224-0.275,4.471,0.643,5.459c1.141,1.228,4.432,0.766,5.694,0.202
	c1.397-0.625,2.837-4.026,4.116-4.889c2.187-1.475,7.424-2.576,9.994-3.128c1.461-0.314,4.643-0.06,5.975-0.726
	c0.669-0.334,2.155-1.303,2.151-2.209C290.53,107.793,289.397,106.226,288.765,105.768z"/>
<path fill="#121212" d="M188.037,116.604c2.142-1.768,6.574-1.587,8.635-1.53c2.534,0.07,7.385,1.14,9.442,2.436
	c1.499,0.945,4.054,4.056,4.317,6.443c0.139,1.264-0.346,4.661-1.28,5.733c-1.16,1.332-3.98,0.991-5.01,0.454
	c-1.14-0.594-1.955-4.086-2.961-4.933c-1.721-1.448-6.16-2.374-8.336-2.841c-1.238-0.265-4.056,0.136-5.135-0.503
	c-0.541-0.321-1.715-1.27-1.593-2.217C186.227,118.796,187.424,117.11,188.037,116.604z"/>
<path fill="#B74F9D" d="M184.805,160.068c1.395-3.167,10.749-6.054,13.769-5.641c3.062,0.419,8.501,5.468,6.316,8.541
	c-2.263,3.182-11.044,2.428-14.077,1.754C188.75,164.264,183.809,162.33,184.805,160.068z"/>
<path fill="#B74F9D" d="M288.529,151.997c0,0-2.968,3.379-5.992,3.763c-3.066,0.389-9.628-3.078-8.314-6.612
	c1.36-3.66,13.332-5.367,13.332-5.367L288.529,151.997z"/>
<path fill="#121212" d="M269.115,155.507c-0.862-3.52-3.249-5.767-4.799-7.15c-3.052-2.723-9.456-4.273-12.605-4.623
	c-3.417-0.38-10.216,0.562-13.511,1.991c-2.479,1.075-7.413,4.059-9.546,7.047c-1.472,2.061-2.366,3.188-2.749,7.334
	c-0.237,2.564,3.085,16.293,5.277,20.574c1.066,2.082,5.045,5.914,6.173,6.513c1.459,0.775,7.905,7.715,15.918,5.534
	c6.583-1.792,7.38-3.286,10.167-7.467c0.685-1.027,1.348-2.295,3.385-6.77C269.143,173.397,269.883,158.645,269.115,155.507z"/>
<g>
	<path fill="#D0E5F7" d="M237.487,156.019c-2.378,1.796-9.343,1.976-9.031-2.077c0.229-2.969,6.586-7.77,9.504-7.178
		C241.944,147.573,239.865,154.223,237.487,156.019z"/>
</g>
<g>
	<path fill="#D0E5F7" d="M246.761,154.695c-3.332,0.543-10.408-2.958-7.953-6.855c1.798-2.854,10.708-4.306,13.319-2.17
		C255.693,148.586,250.094,154.152,246.761,154.695z"/>
</g>
<g>
	<path fill="#D0E5F7" d="M257.051,155.313c-3.267-0.852-8.32-6.918-4.498-9.488c2.8-1.882,11.534,0.397,13.057,3.407
		C267.691,153.343,260.318,156.166,257.051,155.313z"/>
</g>
<path fill="#9DC4CB" d="M235.82,183.253c1.276-1.985,10.2-1.679,11.97-1.421c0.482,0.07,6.298-1.477,7.751-1.04
	c3.491,1.051,6.262,6.352,3.152,9.531c-3.221,3.292-13.315,0.8-16.726-0.542C239.646,188.868,234.243,185.706,235.82,183.253z"/>
<polygon fill="#C6E5CF" points="234.323,108.558 243.128,127.379 251.235,107.711 241.506,88.937 "/>
<path fill="#D280B5" d="M184.805,160.068c1.395-3.167,8.373-4.85,8.373-4.85l0.687,9.952c0,0-0.019,0.226-3.052-0.447
	C188.75,164.264,183.809,162.33,184.805,160.068z"/>
<path fill="#333333" d="M185.691,133.102c0.421,5.241,4.064,7.234,6.412,8.178l-0.633-8.642l-0.753-8.632
	C187.762,125.902,185.271,127.861,185.691,133.102z"/>
<path fill="#212121" d="M294.469,397.865c3.166-4.574,6.503-7.965,8.736-10.238c5.164-5.255,6.631-4.947,13.308-9.691
	c9.141-6.494,12.637-15.238,15.059-21.103c4.657-11.275,3.309-37.289,22.21-61.471c2.4-3.071,2.87-3.793,3.618-7.181
	c0.801-3.628,0.02-7.092,0.02-7.092l-1.773,0.254c0,0,0.786,2.408-0.007,6.606c-0.413,2.184-1.008,3.587-3.164,6.377
	c-19.357,25.057-18.291,44.642-23.018,60.91c-1.712,5.892-5.225,12.949-14.24,20.282c-6.473,5.265-8.968,4.852-14.333,10.318
	c-2.386,2.432-5.953,6.566-9.234,12.027H294.469z"/>
<path fill="#212123" d="M330.218,204.187c1.557,2.278,26.358,62.419,26.513,63.448c0.098,0.65-0.741,1.89-1.237,2.322
	c-1.75,1.522-6.486,3.824-8.715,3.181c-0.285-0.082-0.832-0.849-0.832-0.849l-34.353-58.754l9.532-4.144L330.218,204.187z"/>
<path fill="#353538" d="M334.091,243.05l-11.074-18.535c0,0-5.02-8.584-5.403-11.576c-0.422-3.301,4.424,4.509,4.424,4.509
	l11.175,18.458l9.051,14.942c0,0,5.467,9.353,6.312,13.136c0.962,4.311-4.391-4.118-4.391-4.118L334.091,243.05z"/>
<path fill="#0C0C0C" d="M327.587,191.187c-0.277-1.46-2.849-5.012-4.118-6.124c-1.115-0.976-3.867-2.384-5.335-2.584
	c-2.567-0.35-5.36-0.923-10.157,1.416c-7.958,3.881-7.27,9.391-7.76,13.056c-0.2,1.496,1.95,6.716,1.95,6.716
	s9.908-5.015,13.202-6.594C318.395,195.624,327.587,191.187,327.587,191.187z"/>
<path fill="#0C0C0C" d="M328.687,193.355l-12.896,6.201l-12.389,5.958c0,0,1.387,2.673,3.62,4.952
	c2.439,2.488,4.457,3.118,4.457,3.118s13.683-5.596,17.7-8.398c0.361-0.252,1.257-1.232,1.257-1.232s0.096-3.861-0.079-5.132
	C329.99,196.159,328.687,193.355,328.687,193.355z"/>
<path fill="#0C0C0C" d="M356.285,269.372l2.693,11.246c0,0-0.708,1.371-2.598,2.007c-2.153,0.724-3.152-0.113-3.152-0.113
	l-5.394-9.444c0,0,3.448-0.823,4.525-1.296C353.412,271.309,356.285,269.372,356.285,269.372z"/>
<ellipse transform="matrix(0.9983 0.0586 -0.0586 0.9983 11.2753 -17.8249)" fill="#262628" cx="309.627" cy="183.38" rx="0.26" ry="0.195"/>
<ellipse transform="matrix(0.9983 0.0586 -0.0586 0.9983 11.241 -17.9212)" fill="#262628" cx="311.254" cy="182.746" rx="0.234" ry="0.195"/>
<ellipse transform="matrix(0.9983 0.0586 -0.0586 0.9983 11.2285 -18.012)" fill="#262628" cx="312.795" cy="182.487" rx="0.146" ry="0.154"/>
<ellipse transform="matrix(0.9983 0.0586 -0.0586 0.9983 11.3422 -17.6643)" fill="#262628" cx="306.923" cy="184.601" rx="0.208" ry="0.169"/>
<ellipse transform="matrix(0.9983 0.0586 -0.0586 0.9983 11.3923 -17.6469)" fill="#262628" cx="306.65" cy="185.463" rx="0.273" ry="0.221"/>
<ellipse transform="matrix(0.9983 0.0586 -0.0586 0.9983 11.3793 -17.8387)" fill="#262628" cx="309.915" cy="185.146" rx="0.403" ry="0.208"/>
<ellipse transform="matrix(0.9983 0.0586 -0.0586 0.9983 11.2595 -18.0297)" fill="#262628" cx="313.113" cy="183.008" rx="0.273" ry="0.267"/>
<ellipse transform="matrix(0.9983 0.0586 -0.0586 0.9983 11.3524 -17.7446)" fill="#262628" cx="308.297" cy="184.734" rx="0.26" ry="0.195"/>
<ellipse transform="matrix(0.9983 0.0586 -0.0586 0.9983 11.4126 -17.743)" fill="#262628" cx="308.299" cy="185.761" rx="0.322" ry="0.242"/>
<ellipse transform="matrix(0.9983 0.0586 -0.0586 0.9983 11.3229 -17.8354)" fill="#262628" cx="309.831" cy="184.186" rx="0.322" ry="0.242"/>
<ellipse transform="matrix(0.9983 0.0586 -0.0586 0.9983 11.2738 -17.9373)" fill="#262628" cx="311.544" cy="183.297" rx="0.322" ry="0.242"/>
<ellipse transform="matrix(0.9983 0.0586 -0.0586 0.9983 11.5244 -17.555)" fill="#262628" cx="305.149" cy="187.763" rx="0.322" ry="0.242"/>
<ellipse transform="matrix(0.9983 0.0586 -0.0586 0.9983 11.4586 -17.6412)" fill="#262628" cx="306.586" cy="186.597" rx="0.322" ry="0.242"/>
<ellipse transform="matrix(0.9983 0.0586 -0.0586 0.9983 11.4668 -17.7345)" fill="#262628" cx="308.182" cy="186.69" rx="0.322" ry="0.242"/>
<ellipse transform="matrix(0.9983 0.0586 -0.0586 0.9983 11.5255 -17.63)" fill="#262628" cx="306.429" cy="187.744" rx="0.355" ry="0.267"/>
<ellipse transform="matrix(0.9983 0.0586 -0.0586 0.9983 11.5495 -17.7188)" fill="#262628" cx="307.956" cy="188.108" rx="0.355" ry="0.267"/>
<ellipse transform="matrix(0.9983 0.0586 -0.0586 0.9983 11.505 -17.8283)" fill="#262628" cx="309.801" cy="187.294" rx="0.355" ry="0.267"/>
<ellipse transform="matrix(0.9983 0.0586 -0.0586 0.9983 11.4528 -17.9373)" fill="#262628" cx="311.633" cy="186.35" rx="0.355" ry="0.267"/>
<ellipse transform="matrix(0.9983 0.0586 -0.0586 0.9983 11.3817 -17.9467)" fill="#262628" cx="311.759" cy="185.133" rx="0.355" ry="0.267"/>
<ellipse transform="matrix(0.9983 0.0586 -0.0586 0.9983 11.3302 -17.9481)" fill="#262628" cx="311.756" cy="184.254" rx="0.355" ry="0.267"/>
<ellipse transform="matrix(0.9983 0.0586 -0.0586 0.9983 11.3534 -18.0463)" fill="#262628" cx="313.443" cy="184.6" rx="0.355" ry="0.267"/>
<ellipse transform="matrix(0.9983 0.0586 -0.0586 0.9983 11.3032 -18.0452)" fill="#262628" cx="313.398" cy="183.746" rx="0.355" ry="0.267"/>
<ellipse transform="matrix(0.9983 0.0586 -0.0586 0.9983 11.3307 -18.1452)" fill="#262628" cx="315.117" cy="184.164" rx="0.355" ry="0.267"/>
<ellipse transform="matrix(0.9983 0.0586 -0.0586 0.9983 11.2717 -18.1397)" fill="#262628" cx="314.994" cy="183.16" rx="0.355" ry="0.267"/>
<ellipse transform="matrix(0.9983 0.0586 -0.0586 0.9983 11.2306 -18.1122)" fill="#262628" cx="314.504" cy="182.474" rx="0.355" ry="0.267"/>
<ellipse transform="matrix(0.9983 0.0586 -0.0586 0.9983 11.3153 -18.2472)" fill="#262628" cx="316.849" cy="183.85" rx="0.355" ry="0.267"/>
<ellipse transform="matrix(0.9983 0.0586 -0.0586 0.9983 11.3098 -18.3456)" fill="#262628" cx="318.525" cy="183.706" rx="0.355" ry="0.267"/>
<ellipse transform="matrix(0.9983 0.0586 -0.0586 0.9983 11.3655 -18.3616)" fill="#262628" cx="318.826" cy="184.649" rx="0.355" ry="0.267"/>
<ellipse transform="matrix(0.9983 0.0586 -0.0586 0.9983 11.3568 -18.4409)" fill="#262628" cx="320.174" cy="184.461" rx="0.355" ry="0.267"/>
<ellipse transform="matrix(0.9983 0.0586 -0.0586 0.9983 11.3703 -18.5314)" fill="#262628" cx="321.723" cy="184.647" rx="0.355" ry="0.267"/>
<ellipse transform="matrix(0.9983 0.0586 -0.0586 0.9983 11.3046 -18.4291)" fill="#262628" cx="319.947" cy="183.576" rx="0.286" ry="0.215"/>
<ellipse transform="matrix(0.9983 0.0586 -0.0586 0.9983 11.2513 -18.315)" fill="#262628" cx="317.974" cy="182.724" rx="0.286" ry="0.215"/>
<ellipse transform="matrix(0.9983 0.0586 -0.0586 0.9983 11.2644 -18.2348)" fill="#262628" cx="316.613" cy="182.988" rx="0.286" ry="0.215"/>
<ellipse transform="matrix(0.9983 0.0586 -0.0586 0.9983 11.2262 -18.2139)" fill="#262628" cx="316.237" cy="182.347" rx="0.235" ry="0.176"/>
<ellipse transform="matrix(0.9983 0.0586 -0.0586 0.9983 11.3192 -18.501)" fill="#262628" cx="321.18" cy="183.791" rx="0.286" ry="0.215"/>
<ellipse transform="matrix(0.9983 0.0586 -0.0586 0.9983 11.2692 -18.4002)" fill="#262628" cx="319.436" cy="182.988" rx="0.23" ry="0.172"/>
<ellipse transform="matrix(0.9983 0.0586 -0.0586 0.9983 11.3778 -18.5903)" fill="#262628" cx="322.732" cy="184.745" rx="0.23" ry="0.172"/>
<ellipse transform="matrix(0.9983 0.0586 -0.0586 0.9983 11.4513 -18.678)" fill="#262628" cx="324.265" cy="185.955" rx="0.23" ry="0.172"/>
<ellipse transform="matrix(0.9983 0.0586 -0.0586 0.9983 11.9475 -18.931)" fill="#262628" cx="328.827" cy="194.29" rx="0.23" ry="0.172"/>
<ellipse transform="matrix(0.1759 -0.9844 0.9844 0.1759 78.5237 485.9559)" fill="#262628" cx="329.507" cy="196.078" rx="0.23" ry="0.172"/>
<ellipse transform="matrix(0.9983 0.0586 -0.0586 0.9983 12.2328 -19.0002)" fill="#262628" cx="330.15" cy="199.12" rx="0.23" ry="0.172"/>
<ellipse transform="matrix(0.1444 -0.9895 0.9895 0.1444 86.6032 494.9316)" fill="#262628" cx="329.495" cy="197.388" rx="0.23" ry="0.172"/>
<ellipse transform="matrix(0.9983 0.0586 -0.0586 0.9983 11.4357 -18.4549)" fill="#262628" cx="320.452" cy="185.8" rx="0.355" ry="0.267"/>
<ellipse transform="matrix(0.9983 0.0586 -0.0586 0.9983 11.4344 -18.5442)" fill="#262628" cx="321.975" cy="185.732" rx="0.355" ry="0.267"/>
<ellipse transform="matrix(0.9983 0.0586 -0.0586 0.9983 11.4379 -18.3644)" fill="#262628" cx="318.91" cy="185.882" rx="0.355" ry="0.267"/>
<ellipse transform="matrix(0.9983 0.0586 -0.0586 0.9983 11.4437 -18.2527)" fill="#262628" cx="317.008" cy="186.037" rx="0.355" ry="0.267"/>
<ellipse transform="matrix(0.9983 0.0586 -0.0586 0.9983 11.37 -18.2541)" fill="#262628" cx="316.994" cy="184.779" rx="0.355" ry="0.267"/>
<ellipse transform="matrix(0.9983 0.0586 -0.0586 0.9983 11.3931 -18.1499)" fill="#262628" cx="315.229" cy="185.226" rx="0.355" ry="0.267"/>
<ellipse transform="matrix(0.9983 0.0586 -0.0586 0.9983 11.4709 -18.143)" fill="#262628" cx="315.151" cy="186.556" rx="0.355" ry="0.267"/>
<ellipse transform="matrix(0.9983 0.0586 -0.0586 0.9983 11.4149 -18.0413)" fill="#262628" cx="313.389" cy="185.652" rx="0.355" ry="0.267"/>
<ellipse transform="matrix(0.9983 0.0586 -0.0586 0.9983 11.5074 -18.0332)" fill="#262628" cx="313.296" cy="187.233" rx="0.355" ry="0.267"/>
<ellipse transform="matrix(0.9983 0.0586 -0.0586 0.9983 11.5513 -17.9176)" fill="#262628" cx="311.346" cy="188.04" rx="0.355" ry="0.267"/>
<ellipse transform="matrix(0.9983 0.0586 -0.0586 0.9983 11.5891 -17.8125)" fill="#262628" cx="309.573" cy="188.737" rx="0.355" ry="0.267"/>
<ellipse transform="matrix(0.9983 0.0586 -0.0586 0.9983 11.6395 -17.7004)" fill="#262628" cx="307.686" cy="189.653" rx="0.355" ry="0.267"/>
<ellipse transform="matrix(0.9983 0.0586 -0.0586 0.9983 11.6793 -17.7953)" fill="#262628" cx="309.325" cy="190.284" rx="0.355" ry="0.267"/>
<ellipse transform="matrix(0.9983 0.0586 -0.0586 0.9983 11.6075 -17.6196)" fill="#262628" cx="306.293" cy="189.147" rx="0.355" ry="0.267"/>
<ellipse transform="matrix(0.9983 0.0586 -0.0586 0.9983 11.6001 -17.5356)" fill="#262628" cx="304.856" cy="189.062" rx="0.355" ry="0.267"/>
<ellipse transform="matrix(0.9983 0.0586 -0.0586 0.9983 11.6751 -17.5227)" fill="#262628" cx="304.674" cy="190.349" rx="0.355" ry="0.267"/>
<ellipse transform="matrix(0.9983 0.0586 -0.0586 0.9983 11.7629 -17.5084)" fill="#262628" cx="304.473" cy="191.853" rx="0.355" ry="0.267"/>
<ellipse transform="matrix(0.9983 0.0586 -0.0586 0.9983 11.8015 -17.59)" fill="#262628" cx="305.885" cy="192.47" rx="0.355" ry="0.267"/>
<ellipse transform="matrix(0.9983 0.0586 -0.0586 0.9983 11.8453 -17.6628)" fill="#262628" cx="307.147" cy="193.181" rx="0.492" ry="0.369"/>
<ellipse transform="matrix(0.9983 0.0586 -0.0586 0.9983 11.7863 -17.7742)" fill="#262628" cx="309.019" cy="192.12" rx="0.492" ry="0.369"/>
<ellipse transform="matrix(0.9983 0.0586 -0.0586 0.9983 11.8887 -17.7559)" fill="#262628" cx="308.758" cy="193.875" rx="0.492" ry="0.369"/>
<ellipse transform="matrix(0.9983 0.0586 -0.0586 0.9983 11.8985 -17.565)" fill="#262628" cx="305.507" cy="194.137" rx="0.492" ry="0.369"/>
<ellipse transform="matrix(0.9983 0.0586 -0.0586 0.9983 11.9378 -17.6605)" fill="#262628" cx="307.156" cy="194.76" rx="0.492" ry="0.369"/>
<ellipse transform="matrix(0.9983 0.0586 -0.0586 0.9983 12.0005 -17.7263)" fill="#262628" cx="308.31" cy="195.797" rx="0.492" ry="0.369"/>
<ellipse transform="matrix(0.9983 0.0586 -0.0586 0.9983 11.9482 -17.8307)" fill="#262628" cx="310.064" cy="194.853" rx="0.492" ry="0.369"/>
<ellipse transform="matrix(0.9983 0.0586 -0.0586 0.9983 11.8311 -17.8577)" fill="#262628" cx="310.465" cy="192.842" rx="0.492" ry="0.369"/>
<ellipse transform="matrix(0.9983 0.0586 -0.0586 0.9983 11.7366 -17.8803)" fill="#262628" cx="310.803" cy="191.219" rx="0.492" ry="0.369"/>
<ellipse transform="matrix(0.9983 0.0586 -0.0586 0.9983 11.6325 -17.9037)" fill="#262628" cx="311.15" cy="189.432" rx="0.492" ry="0.369"/>
<ellipse transform="matrix(0.9983 0.0586 -0.0586 0.9983 11.6814 -17.9969)" fill="#262628" cx="312.765" cy="190.218" rx="0.492" ry="0.369"/>
<ellipse transform="matrix(0.9983 0.0586 -0.0586 0.9983 11.5867 -18.0151)" fill="#262628" cx="313.026" cy="188.595" rx="0.492" ry="0.369"/>
<ellipse transform="matrix(0.9983 0.0586 -0.0586 0.9983 11.5575 -18.1354)" fill="#262628" cx="315.064" cy="188.036" rx="0.492" ry="0.369"/>
<ellipse transform="matrix(0.9983 0.0586 -0.0586 0.9983 11.6602 -18.1122)" fill="#262628" cx="314.719" cy="189.799" rx="0.492" ry="0.369"/>
<ellipse transform="matrix(0.9983 0.0586 -0.0586 0.9983 11.7624 -18.0883)" fill="#262628" cx="314.364" cy="191.555" rx="0.492" ry="0.369"/>
<ellipse transform="matrix(0.9983 0.0586 -0.0586 0.9983 11.8586 -18.0598)" fill="#262628" cx="313.925" cy="193.209" rx="0.492" ry="0.369"/>
<ellipse transform="matrix(0.9983 0.0586 -0.0586 0.9983 11.7884 -17.976)" fill="#262628" cx="312.461" cy="192.055" rx="0.492" ry="0.369"/>
<ellipse transform="matrix(0.9983 0.0586 -0.0586 0.9983 11.899 -17.9488)" fill="#262628" cx="312.052" cy="193.954" rx="0.492" ry="0.369"/>
<ellipse transform="matrix(0.9983 0.0586 -0.0586 0.9983 12.0174 -17.9176)" fill="#262628" cx="311.579" cy="195.989" rx="0.492" ry="0.369"/>
<ellipse transform="matrix(0.9983 0.0586 -0.0586 0.9983 12.0631 -17.8164)" fill="#262628" cx="309.877" cy="196.818" rx="0.492" ry="0.369"/>
<ellipse transform="matrix(0.9983 0.0586 -0.0586 0.9983 12.1075 -17.7169)" fill="#262628" cx="308.202" cy="197.626" rx="0.492" ry="0.369"/>
<ellipse transform="matrix(0.9983 0.0586 -0.0586 0.9983 12.0471 -17.6351)" fill="#262628" cx="306.777" cy="196.636" rx="0.492" ry="0.369"/>
<ellipse transform="matrix(0.9983 0.0586 -0.0586 0.9983 12.1583 -17.6162)" fill="#262628" cx="306.509" cy="198.543" rx="0.492" ry="0.369"/>
<ellipse transform="matrix(0.9983 0.0586 -0.0586 0.9983 12.2216 -17.6779)" fill="#262628" cx="307.594" cy="199.591" rx="0.492" ry="0.369"/>
<ellipse transform="matrix(0.9983 0.0586 -0.0586 0.9983 12.2728 -17.5961)" fill="#262628" cx="306.224" cy="200.505" rx="0.492" ry="0.369"/>
<ellipse transform="matrix(0.9983 0.0586 -0.0586 0.9983 12.3324 -17.6681)" fill="#262628" cx="307.482" cy="201.486" rx="0.492" ry="0.369"/>
<ellipse transform="matrix(0.9983 0.0586 -0.0586 0.9983 12.2825 -17.7681)" fill="#262628" cx="309.162" cy="200.584" rx="0.492" ry="0.369"/>
<ellipse transform="matrix(0.9983 0.0586 -0.0586 0.9983 12.2429 -17.8585)" fill="#262628" cx="310.685" cy="199.864" rx="0.492" ry="0.369"/>
<ellipse transform="matrix(0.9983 0.0586 -0.0586 0.9983 12.1988 -17.9688)" fill="#262628" cx="312.544" cy="199.056" rx="0.492" ry="0.369"/>
<ellipse transform="matrix(0.9983 0.0586 -0.0586 0.9983 12.1998 -17.9802)" fill="#262628" cx="312.739" cy="199.067" rx="0.492" ry="0.369"/>
<ellipse transform="matrix(0.9983 0.0586 -0.0586 0.9983 12.156 -18.0826)" fill="#262628" cx="314.463" cy="198.27" rx="0.492" ry="0.369"/>
<ellipse transform="matrix(0.9983 0.0586 -0.0586 0.9983 12.0888 -17.9979)" fill="#262628" cx="312.984" cy="197.167" rx="0.492" ry="0.369"/>
<ellipse transform="matrix(0.9983 0.0586 -0.0586 0.9983 12.1228 -17.89)" fill="#262628" cx="311.161" cy="197.8" rx="0.492" ry="0.369"/>
<ellipse transform="matrix(0.9983 0.0586 -0.0586 0.9983 12.1729 -17.782)" fill="#262628" cx="309.344" cy="198.709" rx="0.492" ry="0.369"/>
<ellipse transform="matrix(0.9983 0.0586 -0.0586 0.9983 11.971 -18.0372)" fill="#262628" cx="313.596" cy="195.138" rx="0.492" ry="0.369"/>
<ellipse transform="matrix(0.9983 0.0586 -0.0586 0.9983 12.0417 -18.1217)" fill="#262628" cx="315.072" cy="196.3" rx="0.492" ry="0.369"/>
<ellipse transform="matrix(0.9983 0.0586 -0.0586 0.9983 11.9388 -18.1541)" fill="#262628" cx="315.574" cy="194.53" rx="0.492" ry="0.369"/>
<ellipse transform="matrix(0.9983 0.0586 -0.0586 0.9983 12.0228 -18.2253)" fill="#262628" cx="316.829" cy="195.927" rx="0.492" ry="0.369"/>
<ellipse transform="matrix(0.9983 0.0586 -0.0586 0.9983 11.8368 -18.1687)" fill="#262628" cx="315.772" cy="192.783" rx="0.492" ry="0.369"/>
<ellipse transform="matrix(0.9983 0.0586 -0.0586 0.9983 11.722 -18.2078)" fill="#262628" cx="316.381" cy="190.806" rx="0.492" ry="0.369"/>
<ellipse transform="matrix(0.9983 0.0586 -0.0586 0.9983 11.6267 -18.2217)" fill="#262628" cx="316.571" cy="189.173" rx="0.492" ry="0.369"/>
<ellipse transform="matrix(0.9983 0.0586 -0.0586 0.9983 11.7101 -18.3195)" fill="#262628" cx="318.28" cy="190.547" rx="0.492" ry="0.369"/>
<ellipse transform="matrix(0.9983 0.0586 -0.0586 0.9983 11.608 -18.3427)" fill="#262628" cx="318.624" cy="188.795" rx="0.492" ry="0.369"/>
<ellipse transform="matrix(0.9983 0.0586 -0.0586 0.9983 11.5316 -18.2398)" fill="#262628" cx="316.832" cy="187.543" rx="0.492" ry="0.369"/>
<ellipse transform="matrix(0.9983 0.0586 -0.0586 0.9983 11.5187 -18.3573)" fill="#262628" cx="318.829" cy="187.264" rx="0.492" ry="0.369"/>
<ellipse transform="matrix(0.9983 0.0586 -0.0586 0.9983 11.5974 -18.4406)" fill="#262628" cx="320.289" cy="188.565" rx="0.492" ry="0.369"/>
<ellipse transform="matrix(0.9983 0.0586 -0.0586 0.9983 11.6928 -18.4242)" fill="#262628" cx="320.056" cy="190.199" rx="0.492" ry="0.369"/>
<ellipse transform="matrix(0.9983 0.0586 -0.0586 0.9983 11.6877 -18.53)" fill="#262628" cx="321.858" cy="190.06" rx="0.492" ry="0.369"/>
<ellipse transform="matrix(0.9983 0.0586 -0.0586 0.9983 11.5971 -18.5425)" fill="#262628" cx="322.027" cy="188.508" rx="0.492" ry="0.369"/>
<ellipse transform="matrix(0.9983 0.0586 -0.0586 0.9983 11.7969 -18.4021)" fill="#262628" cx="319.733" cy="191.985" rx="0.492" ry="0.369"/>
<ellipse transform="matrix(0.9983 0.0586 -0.0586 0.9983 11.5985 -18.6303)" fill="#262628" cx="323.525" cy="188.488" rx="0.492" ry="0.369"/>
<ellipse transform="matrix(0.9983 0.0586 -0.0586 0.9983 11.6835 -18.6281)" fill="#262628" cx="323.529" cy="189.94" rx="0.492" ry="0.369"/>
<ellipse transform="matrix(0.9983 0.0586 -0.0586 0.9983 11.7851 -18.6017)" fill="#262628" cx="323.13" cy="191.684" rx="0.492" ry="0.369"/>
<ellipse transform="matrix(0.9983 0.0586 -0.0586 0.9983 11.7841 -18.5044)" fill="#262628" cx="321.471" cy="191.717" rx="0.492" ry="0.369"/>
<ellipse transform="matrix(0.9983 0.0586 -0.0586 0.9983 11.7969 -18.4021)" fill="#262628" cx="319.733" cy="191.985" rx="0.492" ry="0.369"/>
<ellipse transform="matrix(0.9983 0.0586 -0.0586 0.9983 11.8189 -18.2912)" fill="#262628" cx="317.851" cy="192.417" rx="0.492" ry="0.369"/>
<ellipse transform="matrix(0.9983 0.0586 -0.0586 0.9983 11.7006 -18.7063)" fill="#262628" cx="324.872" cy="190.191" rx="0.492" ry="0.369"/>
<ellipse transform="matrix(0.9983 0.0586 -0.0586 0.9983 11.793 -18.6917)" fill="#262628" cx="324.669" cy="191.775" rx="0.492" ry="0.369"/>
<ellipse transform="matrix(0.9983 0.0586 -0.0586 0.9983 11.8876 -18.6723)" fill="#262628" cx="324.386" cy="193.399" rx="0.492" ry="0.369"/>
<ellipse transform="matrix(0.9983 0.0586 -0.0586 0.9983 11.8848 -18.5813)" fill="#262628" cx="322.833" cy="193.396" rx="0.492" ry="0.369"/>
<ellipse transform="matrix(0.9983 0.0586 -0.0586 0.9983 11.8923 -18.4782)" fill="#262628" cx="321.078" cy="193.574" rx="0.492" ry="0.369"/>
<ellipse transform="matrix(0.9983 0.0586 -0.0586 0.9983 11.8985 -18.375)" fill="#262628" cx="319.321" cy="193.732" rx="0.492" ry="0.369"/>
<ellipse transform="matrix(0.9983 0.0586 -0.0586 0.9983 11.92 -18.2633)" fill="#262628" cx="317.427" cy="194.154" rx="0.492" ry="0.369"/>
<ellipse transform="matrix(0.9983 0.0586 -0.0586 0.9983 12.0108 -18.3362)" fill="#262628" cx="318.714" cy="195.667" rx="0.492" ry="0.369"/>
<ellipse transform="matrix(0.9983 0.0586 -0.0586 0.9983 12.0264 -18.2249)" fill="#262628" cx="316.826" cy="195.989" rx="0.492" ry="0.369"/>
<ellipse transform="matrix(0.9983 0.0586 -0.0586 0.9983 12.1188 -18.2018)" fill="#262628" cx="316.477" cy="197.576" rx="0.492" ry="0.369"/>
<ellipse transform="matrix(0.9983 0.0586 -0.0586 0.9983 12.1169 -18.316)" fill="#262628" cx="318.423" cy="197.486" rx="0.492" ry="0.369"/>
<ellipse transform="matrix(0.9983 0.0586 -0.0586 0.9983 12.1019 -18.4224)" fill="#262628" cx="320.232" cy="197.177" rx="0.492" ry="0.369"/>
<ellipse transform="matrix(0.9983 0.0586 -0.0586 0.9983 11.9907 -18.443)" fill="#262628" cx="320.526" cy="195.271" rx="0.492" ry="0.369"/>
<ellipse transform="matrix(0.9983 0.0586 -0.0586 0.9983 12.0846 -18.5257)" fill="#262628" cx="321.984" cy="196.831" rx="0.492" ry="0.369"/>
<ellipse transform="matrix(0.9983 0.0586 -0.0586 0.9983 11.9779 -18.5442)" fill="#262628" cx="322.245" cy="195.002" rx="0.492" ry="0.369"/>
<ellipse transform="matrix(0.9983 0.0586 -0.0586 0.9983 12.0799 -18.6264)" fill="#262628" cx="323.699" cy="196.7" rx="0.492" ry="0.369"/>
<ellipse transform="matrix(0.9983 0.0586 -0.0586 0.9983 12.0794 -18.7134)" fill="#262628" cx="325.182" cy="196.649" rx="0.492" ry="0.369"/>
<ellipse transform="matrix(0.9983 0.0586 -0.0586 0.9983 11.9822 -18.646)" fill="#262628" cx="323.985" cy="195.024" rx="0.492" ry="0.369"/>
<ellipse transform="matrix(0.9983 0.0586 -0.0586 0.9983 11.9831 -18.7329)" fill="#262628" cx="325.466" cy="194.996" rx="0.492" ry="0.369"/>
<ellipse transform="matrix(0.9983 0.0586 -0.0586 0.9983 12.1749 -18.6771)" fill="#262628" cx="324.612" cy="198.295" rx="0.492" ry="0.369"/>
<ellipse transform="matrix(0.9983 0.0586 -0.0586 0.9983 12.1789 -18.5887)" fill="#262628" cx="323.105" cy="198.407" rx="0.492" ry="0.369"/>
<ellipse transform="matrix(0.9983 0.0586 -0.0586 0.9983 12.1871 -18.4836)" fill="#262628" cx="321.318" cy="198.6" rx="0.492" ry="0.369"/>
<ellipse transform="matrix(0.9983 0.0586 -0.0586 0.9983 12.1995 -18.3775)" fill="#262628" cx="319.513" cy="198.864" rx="0.492" ry="0.369"/>
<ellipse transform="matrix(0.9983 0.0586 -0.0586 0.9983 12.2197 -18.2659)" fill="#262628" cx="317.62" cy="199.265" rx="0.492" ry="0.369"/>
<ellipse transform="matrix(0.9983 0.0586 -0.0586 0.9983 12.2421 -18.1566)" fill="#262628" cx="315.768" cy="199.701" rx="0.492" ry="0.369"/>
<ellipse transform="matrix(0.9983 0.0586 -0.0586 0.9983 12.2752 -18.0394)" fill="#262628" cx="313.785" cy="200.324" rx="0.492" ry="0.369"/>
<ellipse transform="matrix(0.9983 0.0586 -0.0586 0.9983 12.312 -17.9298)" fill="#262628" cx="311.936" cy="201.007" rx="0.492" ry="0.369"/>
<ellipse transform="matrix(0.9983 0.0586 -0.0586 0.9983 12.359 -17.8193)" fill="#262628" cx="310.074" cy="201.864" rx="0.492" ry="0.369"/>
<ellipse transform="matrix(0.9983 0.0586 -0.0586 0.9983 12.4023 -17.7286)" fill="#262628" cx="308.548" cy="202.647" rx="0.492" ry="0.369"/>
<ellipse transform="matrix(0.9983 0.0586 -0.0586 0.9983 12.4485 -17.6485)" fill="#262628" cx="307.207" cy="203.475" rx="0.492" ry="0.369"/>
<ellipse transform="matrix(0.9983 0.0586 -0.0586 0.9983 12.5117 -17.7103)" fill="#262628" cx="308.291" cy="204.523" rx="0.492" ry="0.369"/>
<ellipse transform="matrix(0.9983 0.0586 -0.0586 0.9983 12.4765 -17.8038)" fill="#262628" cx="309.869" cy="203.876" rx="0.492" ry="0.369"/>
<ellipse transform="matrix(0.9983 0.0586 -0.0586 0.9983 12.432 -17.9096)" fill="#262628" cx="311.651" cy="203.064" rx="0.492" ry="0.369"/>
<ellipse transform="matrix(0.9983 0.0586 -0.0586 0.9983 12.3924 -18.0001)" fill="#262628" cx="313.174" cy="202.343" rx="0.492" ry="0.369"/>
<ellipse transform="matrix(0.9983 0.0586 -0.0586 0.9983 12.3567 -18.1175)" fill="#262628" cx="315.159" cy="201.676" rx="0.492" ry="0.369"/>
<ellipse transform="matrix(0.9983 0.0586 -0.0586 0.9983 12.3286 -18.2413)" fill="#262628" cx="317.255" cy="201.135" rx="0.492" ry="0.369"/>
<ellipse transform="matrix(0.9983 0.0586 -0.0586 0.9983 12.3029 -18.3534)" fill="#262628" cx="319.154" cy="200.64" rx="0.492" ry="0.369"/>
<ellipse transform="matrix(0.9983 0.0586 -0.0586 0.9983 12.2904 -18.4587)" fill="#262628" cx="320.943" cy="200.375" rx="0.492" ry="0.369"/>
<ellipse transform="matrix(0.9983 0.0586 -0.0586 0.9983 12.2869 -18.5612)" fill="#262628" cx="322.691" cy="200.264" rx="0.492" ry="0.369"/>
<ellipse transform="matrix(0.9983 0.0586 -0.0586 0.9983 12.2851 -18.6555)" fill="#262628" cx="324.297" cy="200.185" rx="0.492" ry="0.369"/>
<ellipse transform="matrix(0.9983 0.0586 -0.0586 0.9983 12.2757 -18.7495)" fill="#262628" cx="325.897" cy="199.978" rx="0.492" ry="0.369"/>
<ellipse transform="matrix(0.9983 0.0586 -0.0586 0.9983 12.283 -18.8319)" fill="#262628" cx="327.306" cy="200.061" rx="0.492" ry="0.369"/>
<ellipse transform="matrix(0.9983 0.0586 -0.0586 0.9983 12.297 -18.8959)" fill="#262628" cx="328.403" cy="200.268" rx="0.492" ry="0.369"/>
<ellipse transform="matrix(0.9983 0.0586 -0.0586 0.9983 12.3928 -18.8802)" fill="#262628" cx="328.184" cy="201.909" rx="0.492" ry="0.369"/>
<ellipse transform="matrix(0.9983 0.0586 -0.0586 0.9983 12.3788 -18.8101)" fill="#262628" cx="326.98" cy="201.705" rx="0.492" ry="0.369"/>
<ellipse transform="matrix(0.9983 0.0586 -0.0586 0.9983 12.3714 -18.7263)" fill="#262628" cx="325.548" cy="201.621" rx="0.492" ry="0.369"/>
<ellipse transform="matrix(0.9983 0.0586 -0.0586 0.9983 12.3801 -18.6289)" fill="#262628" cx="323.892" cy="201.819" rx="0.492" ry="0.369"/>
<ellipse transform="matrix(0.9983 0.0586 -0.0586 0.9983 12.3841 -18.5348)" fill="#262628" cx="322.289" cy="201.934" rx="0.492" ry="0.369"/>
<ellipse transform="matrix(0.9983 0.0586 -0.0586 0.9983 12.3929 -18.4293)" fill="#262628" cx="320.494" cy="202.137" rx="0.492" ry="0.369"/>
<ellipse transform="matrix(0.9983 0.0586 -0.0586 0.9983 12.4201 -18.3141)" fill="#262628" cx="318.542" cy="202.658" rx="0.492" ry="0.369"/>
<ellipse transform="matrix(0.9983 0.0586 -0.0586 0.9983 12.4428 -18.1882)" fill="#262628" cx="316.408" cy="203.108" rx="0.492" ry="0.369"/>
<ellipse transform="matrix(0.9983 0.0586 -0.0586 0.9983 12.4686 -18.0787)" fill="#262628" cx="314.552" cy="203.604" rx="0.492" ry="0.369"/>
<ellipse transform="matrix(0.9983 0.0586 -0.0586 0.9983 12.5062 -17.9707)" fill="#262628" cx="312.729" cy="204.299" rx="0.492" ry="0.369"/>
<ellipse transform="matrix(0.9983 0.0586 -0.0586 0.9983 12.5409 -17.8711)" fill="#262628" cx="311.048" cy="204.94" rx="0.492" ry="0.369"/>
<ellipse transform="matrix(0.9983 0.0586 -0.0586 0.9983 12.5927 -17.7646)" fill="#262628" cx="309.258" cy="205.877" rx="0.492" ry="0.369"/>
<ellipse transform="matrix(0.9983 0.0586 -0.0586 0.9983 12.6287 -17.6796)" fill="#262628" cx="307.827" cy="206.533" rx="0.492" ry="0.369"/>
<ellipse transform="matrix(0.9983 0.0586 -0.0586 0.9983 12.7013 -17.7515)" fill="#262628" cx="309.089" cy="207.735" rx="0.492" ry="0.369"/>
<ellipse transform="matrix(0.9983 0.0586 -0.0586 0.9983 12.6646 -17.8408)" fill="#262628" cx="310.594" cy="207.065" rx="0.492" ry="0.369"/>
<ellipse transform="matrix(0.9983 0.0586 -0.0586 0.9983 12.613 -17.9438)" fill="#262628" cx="312.324" cy="206.133" rx="0.492" ry="0.369"/>
<ellipse transform="matrix(0.9983 0.0586 -0.0586 0.9983 12.5788 -18.0547)" fill="#262628" cx="314.198" cy="205.495" rx="0.492" ry="0.369"/>
<ellipse transform="matrix(0.9983 0.0586 -0.0586 0.9983 12.545 -18.1642)" fill="#262628" cx="316.05" cy="204.864" rx="0.492" ry="0.369"/>
<ellipse transform="matrix(0.9983 0.0586 -0.0586 0.9983 12.5083 -18.2815)" fill="#262628" cx="318.03" cy="204.178" rx="0.492" ry="0.369"/>
<ellipse transform="matrix(0.9983 0.0586 -0.0586 0.9983 12.4968 -18.3984)" fill="#262628" cx="320.019" cy="203.925" rx="0.492" ry="0.369"/>
<ellipse transform="matrix(0.9983 0.0586 -0.0586 0.9983 12.4844 -18.5038)" fill="#262628" cx="321.811" cy="203.66" rx="0.492" ry="0.369"/>
<ellipse transform="matrix(0.9983 0.0586 -0.0586 0.9983 12.4776 -18.6064)" fill="#262628" cx="323.556" cy="203.492" rx="0.492" ry="0.369"/>
<ellipse transform="matrix(0.9983 0.0586 -0.0586 0.9983 12.4759 -18.7029)" fill="#262628" cx="325.202" cy="203.416" rx="0.492" ry="0.369"/>
<ellipse transform="matrix(0.9983 0.0586 -0.0586 0.9983 12.4821 -18.7893)" fill="#262628" cx="326.678" cy="203.478" rx="0.492" ry="0.369"/>
<ellipse transform="matrix(0.9983 0.0586 -0.0586 0.9983 12.4787 -18.8656)" fill="#262628" cx="327.977" cy="203.382" rx="0.492" ry="0.369"/>
<ellipse transform="matrix(0.9983 0.0586 -0.0586 0.9983 12.4955 -18.9409)" fill="#262628" cx="329.271" cy="203.63" rx="0.436" ry="0.369"/>
<ellipse transform="matrix(0.9983 0.0586 -0.0586 0.9983 12.5087 -18.995)" fill="#262628" cx="330.2" cy="203.829" rx="0.239" ry="0.276"/>
<ellipse transform="matrix(0.9983 0.0586 -0.0586 0.9983 12.4169 -18.9963)" fill="#262628" cx="330.175" cy="202.263" rx="0.321" ry="0.369"/>
<ellipse transform="matrix(0.9983 0.0586 -0.0586 0.9983 12.3983 -18.943)" fill="#262628" cx="329.257" cy="201.972" rx="0.321" ry="0.369"/>
<ellipse transform="matrix(0.9983 0.0586 -0.0586 0.9983 12.3055 -18.9512)" fill="#262628" cx="329.35" cy="200.386" rx="0.321" ry="0.369"/>
<ellipse transform="matrix(0.9983 0.0586 -0.0586 0.9983 12.3255 -18.999)" fill="#262628" cx="330.176" cy="200.703" rx="0.321" ry="0.369"/>
<ellipse transform="matrix(0.9983 0.0586 -0.0586 0.9983 12.2215 -18.9586)" fill="#262628" cx="329.435" cy="198.948" rx="0.321" ry="0.369"/>
<ellipse transform="matrix(0.9983 0.0586 -0.0586 0.9983 12.207 -18.9081)" fill="#262628" cx="328.566" cy="198.727" rx="0.321" ry="0.369"/>
<ellipse transform="matrix(0.9983 0.0586 -0.0586 0.9983 12.1898 -18.8456)" fill="#262628" cx="327.492" cy="198.464" rx="0.321" ry="0.369"/>
<ellipse transform="matrix(0.9983 0.0586 -0.0586 0.9983 12.1825 -18.7631)" fill="#262628" cx="326.082" cy="198.382" rx="0.321" ry="0.369"/>
<ellipse transform="matrix(0.9983 0.0586 -0.0586 0.9983 12.0862 -18.7905)" fill="#262628" cx="326.501" cy="196.726" rx="0.321" ry="0.369"/>
<ellipse transform="matrix(0.9983 0.0586 -0.0586 0.9983 12.0969 -18.8597)" fill="#262628" cx="327.686" cy="196.874" rx="0.321" ry="0.369"/>
<ellipse transform="matrix(0.9983 0.0586 -0.0586 0.9983 12.1135 -18.9163)" fill="#262628" cx="328.66" cy="197.129" rx="0.321" ry="0.369"/>
<ellipse transform="matrix(0.9983 0.0586 -0.0586 0.9983 12.0331 -18.9234)" fill="#262628" cx="328.741" cy="195.753" rx="0.321" ry="0.369"/>
<ellipse transform="matrix(0.9983 0.0586 -0.0586 0.9983 12.0144 -18.8702)" fill="#262628" cx="327.823" cy="195.462" rx="0.321" ry="0.369"/>
<ellipse transform="matrix(0.9983 0.0586 -0.0586 0.9983 11.9966 -18.8094)" fill="#262628" cx="326.777" cy="195.188" rx="0.321" ry="0.369"/>
<ellipse transform="matrix(0.9983 0.0586 -0.0586 0.9983 11.906 -18.8213)" fill="#262628" cx="326.936" cy="193.636" rx="0.321" ry="0.369"/>
<ellipse transform="matrix(0.9983 0.0586 -0.0586 0.9983 11.9275 -18.8778)" fill="#262628" cx="327.91" cy="193.975" rx="0.321" ry="0.369"/>
<ellipse transform="matrix(0.9983 0.0586 -0.0586 0.9983 11.8944 -18.7486)" fill="#262628" cx="325.689" cy="193.475" rx="0.321" ry="0.369"/>
<ellipse transform="matrix(0.9983 0.0586 -0.0586 0.9983 11.7988 -18.7581)" fill="#262628" cx="325.805" cy="191.841" rx="0.321" ry="0.369"/>
<ellipse transform="matrix(0.9983 0.0586 -0.0586 0.9983 11.7172 -18.7816)" fill="#262628" cx="326.164" cy="190.438" rx="0.321" ry="0.369"/>
<ellipse transform="matrix(0.9983 0.0586 -0.0586 0.9983 11.7365 -18.8363)" fill="#262628" cx="327.106" cy="190.738" rx="0.321" ry="0.369"/>
<ellipse transform="matrix(0.9983 0.0586 -0.0586 0.9983 11.6332 -18.7777)" fill="#262628" cx="326.055" cy="189.006" rx="0.321" ry="0.369"/>
<ellipse transform="matrix(0.9983 0.0586 -0.0586 0.9983 11.6116 -18.7077)" fill="#262628" cx="324.851" cy="188.674" rx="0.321" ry="0.369"/>
<ellipse transform="matrix(0.9983 0.0586 -0.0586 0.9983 11.5376 -18.7032)" fill="#262628" cx="324.737" cy="187.414" rx="0.321" ry="0.369"/>
<ellipse transform="matrix(0.9983 0.0586 -0.0586 0.9983 11.5091 -18.626)" fill="#262628" cx="323.407" cy="186.966" rx="0.321" ry="0.369"/>
<ellipse transform="matrix(0.9983 0.0586 -0.0586 0.9983 11.5065 -18.5459)" fill="#262628" cx="322.04" cy="186.961" rx="0.321" ry="0.369"/>
<ellipse transform="matrix(0.9983 0.0586 -0.0586 0.9983 11.441 -18.6212)" fill="#262628" cx="323.29" cy="185.807" rx="0.321" ry="0.369"/>
<ellipse transform="matrix(0.9983 0.0586 -0.0586 0.9983 11.5067 -18.4507)" fill="#262628" cx="320.415" cy="187.013" rx="0.321" ry="0.369"/>
<ellipse transform="matrix(0.9983 0.0586 -0.0586 0.9983 12.7737 -17.8163)" fill="#262628" cx="310.231" cy="208.938" rx="0.492" ry="0.369"/>
<ellipse transform="matrix(0.9983 0.0586 -0.0586 0.9983 12.7315 -17.9122)" fill="#262628" cx="311.845" cy="208.169" rx="0.492" ry="0.369"/>
<ellipse transform="matrix(0.9983 0.0586 -0.0586 0.9983 12.7017 -18.0149)" fill="#262628" cx="313.58" cy="207.61" rx="0.492" ry="0.369"/>
<ellipse transform="matrix(0.9983 0.0586 -0.0586 0.9983 12.6674 -18.1191)" fill="#262628" cx="315.341" cy="206.974" rx="0.492" ry="0.369"/>
<ellipse transform="matrix(0.9983 0.0586 -0.0586 0.9983 12.6244 -18.2381)" fill="#262628" cx="317.349" cy="206.181" rx="0.492" ry="0.369"/>
<ellipse transform="matrix(0.9983 0.0586 -0.0586 0.9983 12.6057 -18.3598)" fill="#262628" cx="319.415" cy="205.801" rx="0.492" ry="0.369"/>
<ellipse transform="matrix(0.9983 0.0586 -0.0586 0.9983 12.5876 -18.4657)" fill="#262628" cx="321.213" cy="205.438" rx="0.492" ry="0.369"/>
<ellipse transform="matrix(0.9983 0.0586 -0.0586 0.9983 12.5807 -18.5683)" fill="#262628" cx="322.958" cy="205.269" rx="0.492" ry="0.369"/>
<ellipse transform="matrix(0.9983 0.0586 -0.0586 0.9983 12.5745 -18.6794)" fill="#262628" cx="324.85" cy="205.109" rx="0.492" ry="0.369"/>
<ellipse transform="matrix(0.9983 0.0586 -0.0586 0.9983 12.5727 -18.7665)" fill="#262628" cx="326.334" cy="205.035" rx="0.492" ry="0.369"/>
<ellipse transform="matrix(0.9983 0.0586 -0.0586 0.9983 12.5799 -18.8479)" fill="#262628" cx="327.726" cy="205.117" rx="0.492" ry="0.369"/>
<ellipse transform="matrix(0.9983 0.0586 -0.0586 0.9983 12.5533 -18.9247)" fill="#262628" cx="329.023" cy="204.624" rx="0.442" ry="0.369"/>
<ellipse transform="matrix(0.9983 0.0586 -0.0586 0.9983 12.6505 -18.7496)" fill="#262628" cx="326.085" cy="206.369" rx="0.492" ry="0.369"/>
<ellipse transform="matrix(0.9983 0.0586 -0.0586 0.9983 12.6792 -18.6484)" fill="#262628" cx="324.375" cy="206.909" rx="0.492" ry="0.369"/>
<ellipse transform="matrix(0.9983 0.0586 -0.0586 0.9983 12.6659 -18.5425)" fill="#262628" cx="322.56" cy="206.735" rx="0.492" ry="0.369"/>
<ellipse transform="matrix(0.9983 0.0586 -0.0586 0.9983 12.6922 -18.4391)" fill="#262628" cx="320.811" cy="207.236" rx="0.492" ry="0.369"/>
<ellipse transform="matrix(0.9983 0.0586 -0.0586 0.9983 12.7043 -18.3296)" fill="#262628" cx="318.949" cy="207.497" rx="0.492" ry="0.369"/>
<ellipse transform="matrix(0.9983 0.0586 -0.0586 0.9983 12.7411 -18.2036)" fill="#262628" cx="316.82" cy="208.188" rx="0.492" ry="0.369"/>
<ellipse transform="matrix(0.9983 0.0586 -0.0586 0.9983 12.7697 -18.0999)" fill="#262628" cx="315.064" cy="208.728" rx="0.492" ry="0.369"/>
<ellipse transform="matrix(0.9983 0.0586 -0.0586 0.9983 12.8111 -17.9933)" fill="#262628" cx="313.267" cy="209.486" rx="0.492" ry="0.369"/>
<ellipse transform="matrix(0.9983 0.0586 -0.0586 0.9983 12.8484 -18.1702)" fill="#262628" cx="316.302" cy="210.034" rx="0.492" ry="0.369"/>
<ellipse transform="matrix(0.9983 0.0586 -0.0586 0.9983 12.8014 -18.263)" fill="#262628" cx="317.862" cy="209.186" rx="0.492" ry="0.369"/>
<ellipse transform="matrix(0.9983 0.0586 -0.0586 0.9983 12.7689 -18.3824)" fill="#262628" cx="319.882" cy="208.572" rx="0.492" ry="0.369"/>
<ellipse transform="matrix(0.9983 0.0586 -0.0586 0.9983 12.7272 -18.577)" fill="#262628" cx="323.181" cy="207.764" rx="0.492" ry="0.369"/>
<ellipse transform="matrix(0.9983 0.0586 -0.0586 0.9983 12.7326 -17.5446)" fill="#262628" cx="305.576" cy="208.373" rx="0.219" ry="0.285"/>
<ellipse transform="matrix(0.9983 0.0586 -0.0586 0.9983 12.7952 -17.6024)" fill="#262628" cx="306.594" cy="209.411" rx="0.219" ry="0.285"/>
<ellipse transform="matrix(0.9983 0.0586 -0.0586 0.9983 12.665 -17.5026)" fill="#262628" cx="304.826" cy="207.24" rx="0.219" ry="0.285"/>
<ellipse transform="matrix(0.9983 0.0586 -0.0586 0.9983 12.8533 -17.6561)" fill="#262628" cx="307.538" cy="210.374" rx="0.219" ry="0.285"/>
<ellipse transform="matrix(0.9983 0.0586 -0.0586 0.9983 12.5835 -17.452)" fill="#262628" cx="303.922" cy="205.875" rx="0.219" ry="0.285"/>
<ellipse transform="matrix(0.9983 0.0586 -0.0586 0.9983 12.4482 -17.3991)" fill="#262628" cx="302.952" cy="203.595" rx="0.219" ry="0.285"/>
<ellipse transform="matrix(0.9983 0.0586 -0.0586 0.9983 12.3828 -17.3517)" fill="#262628" cx="302.111" cy="202.504" rx="0.219" ry="0.285"/>
<ellipse transform="matrix(0.9983 0.0586 -0.0586 0.9983 12.3795 -17.415)" fill="#262628" cx="303.189" cy="202.416" rx="0.219" ry="0.285"/>
<ellipse transform="matrix(0.9983 0.0586 -0.0586 0.9983 12.2969 -17.3352)" fill="#262628" cx="301.787" cy="201.047" rx="0.219" ry="0.285"/>
<ellipse transform="matrix(0.9983 0.0586 -0.0586 0.9983 12.2893 -17.4002)" fill="#262628" cx="302.891" cy="200.885" rx="0.219" ry="0.285"/>
<ellipse transform="matrix(0.9983 0.0586 -0.0586 0.9983 12.2193 -17.2974)" fill="#262628" cx="301.104" cy="199.741" rx="0.219" ry="0.285"/>
<ellipse transform="matrix(0.9983 0.0586 -0.0586 0.9983 12.1759 -17.3459)" fill="#262628" cx="301.909" cy="198.979" rx="0.219" ry="0.285"/>
<ellipse transform="matrix(0.9983 0.0586 -0.0586 0.9983 12.0905 -17.3346)" fill="#262628" cx="301.673" cy="197.526" rx="0.219" ry="0.285"/>
<ellipse transform="matrix(0.9983 0.0586 -0.0586 0.9983 12.1413 -17.2838)" fill="#262628" cx="300.833" cy="198.418" rx="0.219" ry="0.285"/>
<ellipse transform="matrix(0.9983 0.0586 -0.0586 0.9983 12.0071 -17.3356)" fill="#262628" cx="301.649" cy="196.104" rx="0.219" ry="0.285"/>
<ellipse transform="matrix(0.9983 0.0586 -0.0586 0.9983 12.0604 -17.2726)" fill="#262628" cx="300.6" cy="197.045" rx="0.219" ry="0.285"/>
<ellipse transform="matrix(0.9983 0.0586 -0.0586 0.9983 11.9824 -17.2771)" fill="#262628" cx="300.638" cy="195.712" rx="0.219" ry="0.285"/>
<ellipse transform="matrix(0.9983 0.0586 -0.0586 0.9983 11.8905 -17.2897)" fill="#262628" cx="300.808" cy="194.139" rx="0.219" ry="0.285"/>
<ellipse transform="matrix(0.9983 0.0586 -0.0586 0.9983 12.5491 -17.6117)" fill="#262628" cx="306.629" cy="205.209" rx="0.492" ry="0.369"/>
<ellipse transform="matrix(0.9983 0.0586 -0.0586 0.9983 12.7296 -17.6517)" fill="#262628" cx="307.401" cy="208.268" rx="0.492" ry="0.369"/>
<ellipse transform="matrix(0.9983 0.0586 -0.0586 0.9983 12.6588 -17.5863)" fill="#262628" cx="306.25" cy="207.094" rx="0.492" ry="0.369"/>
<ellipse transform="matrix(0.9983 0.0586 -0.0586 0.9983 12.3602 -17.5684)" fill="#262628" cx="305.796" cy="202.009" rx="0.492" ry="0.369"/>
<ellipse transform="matrix(0.9983 0.0586 -0.0586 0.9983 12.2876 -17.4866)" fill="#262628" cx="304.364" cy="200.812" rx="0.492" ry="0.369"/>
<ellipse transform="matrix(0.9983 0.0586 -0.0586 0.9983 12.1876 -17.5201)" fill="#262628" cx="304.885" cy="199.089" rx="0.492" ry="0.369"/>
<ellipse transform="matrix(0.9983 0.0586 -0.0586 0.9983 12.079 -17.5338)" fill="#262628" cx="305.066" cy="197.232" rx="0.492" ry="0.369"/>
<ellipse transform="matrix(0.9983 0.0586 -0.0586 0.9983 11.9767 -17.5379)" fill="#262628" cx="305.084" cy="195.484" rx="0.492" ry="0.369"/>
<ellipse transform="matrix(0.9983 0.0586 -0.0586 0.9983 11.9374 -17.4372)" fill="#262628" cx="303.346" cy="194.864" rx="0.492" ry="0.369"/>
<ellipse transform="matrix(0.9983 0.0586 -0.0586 0.9983 11.8268 -17.5167)" fill="#262628" cx="304.647" cy="192.939" rx="0.355" ry="0.267"/>
<ellipse transform="matrix(0.9983 0.0586 -0.0586 0.9983 11.7508 -17.6788)" fill="#262628" cx="307.373" cy="191.561" rx="0.355" ry="0.267"/>
<ellipse transform="matrix(0.9983 0.0586 -0.0586 0.9983 11.7014 -17.6027)" fill="#262628" cx="306.051" cy="190.757" rx="0.355" ry="0.267"/>
<ellipse transform="matrix(0.9983 0.0586 -0.0586 0.9983 11.4376 -17.8313)" fill="#262628" cx="309.818" cy="186.144" rx="0.355" ry="0.267"/>
<ellipse transform="matrix(0.9983 0.0586 -0.0586 0.9983 11.8129 -17.3099)" fill="#262628" cx="301.113" cy="192.805" rx="0.219" ry="0.285"/>
<ellipse transform="matrix(0.9983 0.0586 -0.0586 0.9983 11.2986 -17.7384)" fill="#262628" cx="308.164" cy="183.819" rx="0.26" ry="0.195"/>
<ellipse transform="matrix(0.9983 0.0586 -0.0586 0.9983 11.4475 -17.5759)" fill="#262628" cx="305.467" cy="186.44" rx="0.26" ry="0.195"/>
<ellipse transform="matrix(0.9983 0.0586 -0.0586 0.9983 11.7245 -17.3286)" fill="#262628" cx="301.388" cy="191.288" rx="0.26" ry="0.195"/>
<path fill="#212123" d="M328.101,190.94c0.21-0.101,0.531,0.465,0.651,0.664c0.201,0.336,0.654,1.149,0.469,1.493
	c-0.356,0.663-26.074,12.538-26.074,12.538s-0.712-0.777-0.844-1.136c-0.094-0.255-0.138-0.831-0.138-0.831l13.479-6.743
	C315.644,196.925,327.587,191.187,328.101,190.94z"/>
<ellipse transform="matrix(0.9983 0.0586 -0.0586 0.9983 12.1761 -17.4138)" fill="#262628" cx="303.066" cy="198.948" rx="0.492" ry="0.369"/>
<ellipse transform="matrix(0.9983 0.0586 -0.0586 0.9983 12.0555 -17.4146)" fill="#262628" cx="303.02" cy="196.889" rx="0.492" ry="0.369"/>
<ellipse transform="matrix(0.9983 0.0586 -0.0586 0.9983 11.9086 -17.3511)" fill="#262628" cx="301.863" cy="194.417" rx="0.355" ry="0.267"/>
<ellipse transform="matrix(0.9983 0.0586 -0.0586 0.9983 11.8245 -17.379)" fill="#262628" cx="302.298" cy="192.969" rx="0.355" ry="0.267"/>
<ellipse transform="matrix(0.9983 0.0586 -0.0586 0.9983 11.7422 -17.3957)" fill="#262628" cx="302.541" cy="191.556" rx="0.355" ry="0.267"/>
<ellipse transform="matrix(0.9983 0.0586 -0.0586 0.9983 11.8463 -17.4457)" fill="#262628" cx="303.446" cy="193.306" rx="0.355" ry="0.267"/>
<ellipse transform="matrix(0.9983 0.0586 -0.0586 0.9983 11.6696 -17.4433)" fill="#262628" cx="303.317" cy="190.294" rx="0.355" ry="0.267"/>
<ellipse transform="matrix(0.9983 0.0586 -0.0586 0.9983 11.5932 -17.464)" fill="#262628" cx="303.632" cy="188.982" rx="0.355" ry="0.267"/>
<ellipse transform="matrix(0.9983 0.0586 -0.0586 0.9983 11.5013 -17.4968)" fill="#262628" cx="304.145" cy="187.398" rx="0.355" ry="0.267"/>
<ellipse transform="matrix(0.9983 0.0586 -0.0586 0.9983 11.3887 -17.5911)" fill="#262628" cx="305.698" cy="185.43" rx="0.208" ry="0.169"/>
<ellipse transform="matrix(0.9983 0.0586 -0.0586 0.9983 11.4299 -17.5364)" fill="#262628" cx="304.785" cy="186.16" rx="0.208" ry="0.169"/>
<ellipse transform="matrix(0.9983 0.0586 -0.0586 0.9983 11.5666 -17.4051)" fill="#262628" cx="302.614" cy="188.557" rx="0.208" ry="0.169"/>
<ellipse transform="matrix(0.9983 0.0586 -0.0586 0.9983 11.6437 -17.3637)" fill="#262628" cx="301.946" cy="189.892" rx="0.208" ry="0.169"/>
<ellipse transform="matrix(-0.0593 0.9982 -0.9982 -0.0593 528.4283 -86.8259)" fill="#262628" cx="305.126" cy="205.58" rx="0.324" ry="0.422"/>
<ellipse transform="matrix(0.9983 0.0586 -0.0586 0.9983 12.7991 -17.7219)" fill="#262628" cx="308.633" cy="209.418" rx="0.492" ry="0.369"/>
<ellipse transform="matrix(0.9983 0.0586 -0.0586 0.9983 12.843 -17.8939)" fill="#262628" cx="311.588" cy="210.081" rx="0.492" ry="0.369"/>
<ellipse transform="matrix(0.9983 0.0586 -0.0586 0.9983 12.8664 -17.7987)" fill="#262628" cx="309.976" cy="210.527" rx="0.492" ry="0.369"/>
<ellipse transform="matrix(0.9983 0.0586 -0.0586 0.9983 12.9296 -17.865)" fill="#262628" cx="311.138" cy="211.572" rx="0.492" ry="0.369"/>
<ellipse transform="matrix(0.9983 0.0586 -0.0586 0.9983 12.9956 -17.9379)" fill="#262628" cx="312.414" cy="212.662" rx="0.492" ry="0.369"/>
<ellipse transform="matrix(0.9983 0.0586 -0.0586 0.9983 12.8744 -18.069)" fill="#262628" cx="314.59" cy="210.529" rx="0.492" ry="0.369"/>
<ellipse transform="matrix(0.9983 0.0586 -0.0586 0.9983 12.9098 -17.9738)" fill="#262628" cx="312.984" cy="211.18" rx="0.492" ry="0.369"/>
<ellipse transform="matrix(0.9983 0.0586 -0.0586 0.9983 12.908 -17.7213)" fill="#262628" cx="308.677" cy="211.275" rx="0.219" ry="0.285"/>
<ellipse transform="matrix(0.9983 0.0586 -0.0586 0.9983 12.9556 -18.0322)" fill="#262628" cx="314.003" cy="211.931" rx="0.492" ry="0.369"/>
<ellipse transform="matrix(0.9983 0.0586 -0.0586 0.9983 12.9176 -18.1334)" fill="#262628" cx="315.711" cy="211.232" rx="0.492" ry="0.369"/>
<ellipse transform="matrix(0.9983 0.0586 -0.0586 0.9983 12.874 -18.2497)" fill="#262628" cx="317.672" cy="210.432" rx="0.492" ry="0.369"/>
<ellipse transform="matrix(0.9983 0.0586 -0.0586 0.9983 12.8355 -18.3411)" fill="#262628" cx="319.211" cy="209.729" rx="0.492" ry="0.369"/>
<ellipse transform="matrix(0.9983 0.0586 -0.0586 0.9983 12.7717 -18.4783)" fill="#262628" cx="321.519" cy="208.572" rx="0.492" ry="0.369"/>
<ellipse transform="matrix(0.9983 0.0586 -0.0586 0.9983 13.0173 -17.8763)" fill="#262628" cx="311.375" cy="213.062" rx="0.219" ry="0.285"/>
<ellipse transform="matrix(0.9983 0.0586 -0.0586 0.9983 12.9621 -17.7918)" fill="#262628" cx="309.906" cy="212.162" rx="0.219" ry="0.285"/>
<path fill="#171814" d="M327.324,241.758c0,0-0.433-0.581,0.253-0.567c1.106,0.024,4.163-0.165,8.181-2.853
	c4.065-2.72,5.319-6.771,5.63-8.1c0.135-0.576,0.508-0.141,0.508-0.141l5.82,13.925c0,0,0.117,0.45,0,0.844
	c-0.288,0.968-1.365,3.354-5.151,5.925c-3.104,2.108-6.112,3.133-7.128,3.394c-0.254,0.065-0.676-0.131-0.676-0.131L327.324,241.758
	z"/>
<path fill="#2E3181" d="M169.133,177.396c-0.196,3.015-2.245,9.49-3.652,12.163c-3.424,6.507,2.814,27.125,8.579,35.505
	c7.568,11.001,25.115,32.188,36.726,38.783c21.654,12.298,30.815,14.784,40.483,16.325c8.695,1.386,25.429,2.967,33.388-0.798
	c5.767-2.729,19.594-10.874,23.791-15.68c1.578-1.807,6.353-5.001,10.848-5.272c0.488-0.029,1.065-4.169,2.192-4.312
	c1.244-0.158,3.769-0.632,4.858-1.254c1.924-1.099,5.42-4.221,6.268-6.268c1.064-2.57,4.867-5.258,4.867-5.258
	s6.077-2.595,7.084-4.602c0.427-0.85,1.142-1.959,1.044-2.905c-0.07-0.676,0.009-2.352-0.856-2.998
	c-0.615-0.459-2.914-0.965-2.914-0.965s3.447-0.905,2.188-4.641c-0.297-0.88-3.296-1.694-3.296-1.694s1.455,0.003,2.119-0.913
	c0.883-1.219,0.61-3.339-1.051-4.541c-0.391-0.283-1.918-0.457-1.918-0.457s1.412-0.758,1.609-1.223
	c0.238-0.564-0.113-1.847-0.297-2.431c-0.192-0.609-1.58-2.029-3.22-2.41c-1.874-0.435-4.633-0.638-5.758-0.312
	c-2.078,0.603-8.147,2.07-9.909,3.325c-4.272,3.044-5.28,7.309-5.446,6.91c-0.443-1.063-0.931-6.725-1.409-7.773
	c-0.598-1.311-2.642-3.73-4.029-4.122c-1.022-0.289-3.576,0.12-4.122,1.031c-0.447,0.745,0.459,2.593,0.843,3.373
	c0.45,0.912,2.233,2.213,2.53,3.185c0.342,1.124-0.073,3.549-0.375,4.685c-0.579,2.177-0.652,6.039-0.426,8.836
	c0.206,2.561,3.466,3.377,3.511,5.946c0.025,1.466-1.76,7.559-2.436,8.347c-0.494,0.575-0.952,2.101-1.473,2.651
	c-4.95,5.229-17.254,14.262-24.373,15.346c-23.59,3.59-51.636-6.813-61.49-12.185c-8.698-4.742-22.059-19.009-28.609-26.44
	c-11.239-12.749-14.96-26.056-9.178-29.752c3.537-2.261,4.988-4.059,6.362-8.026c1.38-3.984-0.6-11.619-3.532-14.649
	c-2.796-2.89-11.526-6.069-15.346-4.814C170.25,168.114,169.467,172.261,169.133,177.396z"/>
<polygon opacity="0.1" fill="url(#New_Pattern_2)" points="221.325,16.477 140.901,40.927 185.925,64.111 276.072,38.779 "/>
<polygon opacity="0.1" fill="url(#New_Pattern_2)" points="178.838,397.865 228.689,397.865 195.708,188.539 185.925,63.854 
	140.901,40.927 152.781,185.038 "/>
<polygon opacity="0.1" fill="url(#New_Pattern_2)" points="228.779,397.865 323.643,397.865 290.846,174.383 276.072,38.779 
	185.925,64.111 195.708,188.539 "/>
<polygon opacity="0.1" fill="url(#New_Pattern_2)" points="245.96,397.865 309.937,397.865 274.858,174.427 263.857,64.111 
	205.862,79.096 214.925,185.516 "/>
<path opacity="0.1" fill="url(#New_Pattern_2)" d="M290.628,180.761c7.476,3.45,22.629,9.533,28.202,12.989
	c10.957,6.794,37.477,23.723,45.138,28.157c3.25,1.881,11.48,3.885,14.855,2.236c2.635-1.287,5.007-7.386,5.75-10.223
	c1.154-4.404,0.973-13.762,0-18.209c-1.165-5.324-6.965-14.794-9.104-19.806c-0.64-1.5-2.53-4.444-2.396-6.07
	c0.153-1.856,2.972-4.738,3.833-6.389c0.587-1.125,1.631-3.444,2.076-4.632c0.192-0.513,0.651-1.547,0.639-2.095
	c-0.018-0.842-1.355-2.369-1.118-3.176c0.128-0.437,1.189-0.737,1.438-1.118c0.359-0.552,0.815-1.921,0.639-2.556
	c-0.196-0.708-2.169-1.348-2.076-2.076c0.1-0.781,2.324-0.914,2.715-1.597c0.615-1.075-0.029-3.714,0-4.952
	c0.04-1.718,1.106-5.34,0.319-6.868c-0.37-0.719-1.911-1.673-2.715-1.757c-0.553-0.057-1.762,0.34-2.076,0.799
	c-0.61,0.889,0.28,3.271,0,4.313c-0.227,0.847-0.886,3.137-1.757,3.035c-0.414-0.049-0.427-1.184-0.479-1.597
	c-0.131-1.031,0.409-3.144,0.16-4.153c-0.288-1.164-1.308-3.651-2.396-4.153c-0.996-0.459-3.695-0.107-4.313,0.799
	c-0.596,0.873,0.981,3.111,0.799,4.153c-0.296,1.693-2.638,4.431-3.514,5.91c-1.041,1.756-3.102,5.279-4.153,7.028
	c-0.434,0.722-0.963,3.156-1.757,2.875c-1.139-0.404,0.771-3.591,0.639-4.792c-0.317-2.876-1.528-9.348-3.993-10.861
	c-1.165-0.715-4.37-0.224-5.431,0.639c-1.077,0.877-2.008,3.905-1.757,5.271c0.205,1.116,2.342,2.512,2.875,3.514
	c0.587,1.104,1.361,3.543,1.438,4.792c0.101,1.653-1.11,4.874-1.118,6.531c-0.006,1.258,0.339,3.798,0.799,4.97
	c0.526,1.34,2.247,3.708,3.195,4.792c0.875,1.001,3.324,2.365,3.993,3.514c0.493,0.846,0.139,3.11,0.799,3.833
	c0.366,0.402,1.75,0.205,2.076,0.639c1.487,1.98,2.677,7.346,2.565,9.82c-0.153,3.353,3.828,17.226,0.506,17.712
	c-1.225,0.179-25.586-13.468-29.334-16.194c-5.411-3.935-25.907-16.076-29.772-18.664c-5.305-3.552-10.845-18.06-18.209-16.124
	C283.685,152.309,287.724,179.42,290.628,180.761z"/>
<path fill="#2E3181" d="M169.133,177.442c-0.196,3.015-2.245,9.49-3.652,12.163c-3.424,6.507,2.814,27.125,8.579,35.505
	c7.568,11.001,25.115,32.188,36.726,38.783c21.654,12.298,30.815,14.784,40.483,16.325c8.695,1.386,25.429,2.967,33.388-0.798
	c5.767-2.729,19.594-10.874,23.791-15.68c1.578-1.807,6.353-5.001,10.848-5.272c0.488-0.029,1.065-4.169,2.192-4.312
	c1.244-0.158,3.769-0.632,4.858-1.254c1.924-1.099,5.42-4.221,6.268-6.268c1.064-2.57,4.867-5.258,4.867-5.258
	s6.077-2.595,7.084-4.602c0.427-0.85,1.142-1.959,1.044-2.905c-0.07-0.676,0.009-2.352-0.856-2.998
	c-0.615-0.459-2.914-0.965-2.914-0.965s3.447-0.905,2.188-4.641c-0.297-0.88-3.296-1.694-3.296-1.694s1.455,0.003,2.119-0.913
	c0.883-1.219,0.61-3.339-1.051-4.541c-0.391-0.283-1.918-0.457-1.918-0.457s1.412-0.758,1.609-1.223
	c0.238-0.564-0.113-1.847-0.297-2.431c-0.192-0.609-1.58-2.029-3.22-2.41c-1.874-0.435-4.633-0.638-5.758-0.312
	c-2.078,0.603-8.147,2.07-9.909,3.325c-4.272,3.044-5.28,7.309-5.446,6.91c-0.443-1.063-0.931-6.725-1.409-7.773
	c-0.598-1.311-2.642-3.73-4.029-4.122c-1.022-0.289-3.576,0.12-4.122,1.031c-0.447,0.745,0.459,2.593,0.843,3.373
	c0.45,0.912,2.233,2.213,2.53,3.185c0.342,1.124-0.073,3.549-0.375,4.685c-0.579,2.177-0.652,6.039-0.426,8.836
	c0.206,2.561,3.466,3.377,3.511,5.946c0.025,1.466-1.76,7.559-2.436,8.347c-0.494,0.575-0.952,2.101-1.473,2.651
	c-4.95,5.229-17.254,14.262-24.373,15.346c-23.59,3.59-51.636-6.813-61.49-12.185c-8.698-4.742-22.059-19.009-28.609-26.44
	c-11.239-12.749-14.96-26.056-9.178-29.752c3.537-2.261,4.988-4.059,6.362-8.026c1.38-3.984-0.6-11.619-3.532-14.649
	c-2.796-2.89-11.526-6.069-15.346-4.814C170.25,168.161,169.467,172.307,169.133,177.442z"/>
<path opacity="0.1" fill="url(#New_Pattern_2)" d="M169.133,177.442c-0.196,3.015-2.245,9.49-3.652,12.163
	c-3.424,6.507,2.814,27.125,8.579,35.505c7.568,11.001,25.115,32.188,36.726,38.783c21.654,12.298,30.815,14.784,40.483,16.325
	c8.695,1.386,25.429,2.967,33.388-0.798c5.767-2.729,19.594-10.874,23.791-15.68c1.578-1.807,6.353-5.001,10.848-5.272
	c0.488-0.029,1.065-4.169,2.192-4.312c1.244-0.158,3.769-0.632,4.858-1.254c1.924-1.099,5.42-4.221,6.268-6.268
	c1.064-2.57,4.867-5.258,4.867-5.258s6.077-2.595,7.084-4.602c0.427-0.85,1.142-1.959,1.044-2.905
	c-0.07-0.676,0.009-2.352-0.856-2.998c-0.615-0.459-2.914-0.965-2.914-0.965s3.447-0.905,2.188-4.641
	c-0.297-0.88-3.296-1.694-3.296-1.694s1.455,0.003,2.119-0.913c0.883-1.219,0.61-3.339-1.051-4.541
	c-0.391-0.283-1.918-0.457-1.918-0.457s1.412-0.758,1.609-1.223c0.238-0.564-0.113-1.847-0.297-2.431
	c-0.192-0.609-1.58-2.029-3.22-2.41c-1.874-0.435-4.633-0.638-5.758-0.312c-2.078,0.603-8.147,2.07-9.909,3.325
	c-4.272,3.044-5.28,7.309-5.446,6.91c-0.443-1.063-0.931-6.725-1.409-7.773c-0.598-1.311-2.642-3.73-4.029-4.122
	c-1.022-0.289-3.576,0.12-4.122,1.031c-0.447,0.745,0.459,2.593,0.843,3.373c0.45,0.912,2.233,2.213,2.53,3.185
	c0.342,1.124-0.073,3.549-0.375,4.685c-0.579,2.177-0.652,6.039-0.426,8.836c0.206,2.561,3.466,3.377,3.511,5.946
	c0.025,1.466-1.76,7.559-2.436,8.347c-0.494,0.575-0.952,2.101-1.473,2.651c-4.95,5.229-17.254,14.262-24.373,15.346
	c-23.59,3.59-51.636-6.813-61.49-12.185c-8.698-4.742-22.059-19.009-28.609-26.44c-11.239-12.749-14.96-26.056-9.178-29.752
	c3.537-2.261,4.988-4.059,6.362-8.026c1.38-3.984-0.6-11.619-3.532-14.649c-2.796-2.89-11.526-6.069-15.346-4.814
	C170.25,168.161,169.467,172.307,169.133,177.442z"/>
<radialGradient id="SVGID_7_" cx="71.4291" cy="38.7794" r="9.2028" gradientUnits="userSpaceOnUse">
	<stop  offset="0.1174" style="stop-color:#DEDBC0"/>
	<stop  offset="1" style="stop-color:#FFFFFF;stop-opacity:0"/>
</radialGradient>
<path fill="url(#SVGID_7_)" d="M71.204,28.731c0,0-1.203,6.046-2.309,7.114c-1.415,1.366-5.737,2.649-5.737,2.649
	s4.48,1.471,5.882,3.063c1.175,1.335,2.696,7.271,2.696,7.271s1.342-6.032,2.492-7.429c1.156-1.403,5.473-3.395,5.473-3.395
	s-4.455-1.035-5.759-2.287C72.776,34.596,71.204,28.731,71.204,28.731z"/>
<radialGradient id="SVGID_8_" cx="349.563" cy="107.6729" r="9.2028" gradientUnits="userSpaceOnUse">
	<stop  offset="0.1174" style="stop-color:#DEDBC0"/>
	<stop  offset="1" style="stop-color:#FFFFFF;stop-opacity:0"/>
</radialGradient>
<path fill="url(#SVGID_8_)" d="M349.338,97.625c0,0-1.203,6.046-2.309,7.114c-1.414,1.366-5.737,2.649-5.737,2.649
	s4.48,1.471,5.882,3.063c1.175,1.335,2.696,7.271,2.696,7.271s1.342-6.032,2.492-7.429c1.156-1.403,5.473-3.395,5.473-3.395
	s-4.455-1.035-5.759-2.287C350.91,103.49,349.338,97.625,349.338,97.625z"/>
<radialGradient id="SVGID_9_" cx="458.3876" cy="94.9433" r="9.2028" gradientUnits="userSpaceOnUse">
	<stop  offset="0.1174" style="stop-color:#DEDBC0"/>
	<stop  offset="1" style="stop-color:#FFFFFF;stop-opacity:0"/>
</radialGradient>
<path fill="url(#SVGID_9_)" d="M458.163,84.895c0,0-1.203,6.046-2.309,7.114c-1.414,1.366-5.737,2.649-5.737,2.649
	s4.48,1.471,5.882,3.063c1.175,1.335,2.696,7.271,2.696,7.271s1.342-6.032,2.492-7.429c1.156-1.403,5.473-3.395,5.473-3.395
	s-4.455-1.035-5.759-2.287C459.734,90.76,458.163,84.895,458.163,84.895z"/>
<radialGradient id="SVGID_10_" cx="324.4165" cy="48.8276" r="5.863" gradientUnits="userSpaceOnUse">
	<stop  offset="0.1174" style="stop-color:#DEDBC0"/>
	<stop  offset="1" style="stop-color:#FFFFFF;stop-opacity:0"/>
</radialGradient>
<path fill="url(#SVGID_10_)" d="M324.273,42.426c0,0-0.767,3.852-1.471,4.532c-0.901,0.87-3.655,1.687-3.655,1.687
	s2.854,0.937,3.747,1.952c0.749,0.851,1.717,4.632,1.717,4.632s0.855-3.843,1.588-4.733c0.736-0.894,3.487-2.163,3.487-2.163
	s-2.838-0.659-3.669-1.457C325.275,46.163,324.273,42.426,324.273,42.426z"/>
<radialGradient id="SVGID_11_" cx="169.0075" cy="14.1385" r="9.2028" gradientUnits="userSpaceOnUse">
	<stop  offset="0.1174" style="stop-color:#DEDBC0"/>
	<stop  offset="1" style="stop-color:#FFFFFF;stop-opacity:0"/>
</radialGradient>
<path fill="url(#SVGID_11_)" d="M168.783,4.09c0,0-1.203,6.046-2.309,7.114c-1.414,1.366-5.737,2.649-5.737,2.649
	s4.48,1.471,5.882,3.063c1.175,1.335,2.696,7.271,2.696,7.271s1.342-6.032,2.492-7.429c1.156-1.403,5.473-3.395,5.473-3.395
	s-4.455-1.035-5.759-2.287C170.354,9.956,168.783,4.09,168.783,4.09z"/>
<radialGradient id="SVGID_12_" cx="87.9719" cy="115.0397" r="9.2028" gradientUnits="userSpaceOnUse">
	<stop  offset="0.1174" style="stop-color:#DEDBC0"/>
	<stop  offset="1" style="stop-color:#FFFFFF;stop-opacity:0"/>
</radialGradient>
<path fill="url(#SVGID_12_)" d="M87.747,104.992c0,0-1.203,6.046-2.309,7.114c-1.415,1.366-5.737,2.649-5.737,2.649
	s4.48,1.471,5.882,3.063c1.175,1.335,2.696,7.271,2.696,7.271s1.342-6.032,2.492-7.429c1.156-1.403,5.473-3.395,5.473-3.395
	s-4.455-1.035-5.759-2.287C89.319,110.857,87.747,104.992,87.747,104.992z"/>
<radialGradient id="SVGID_13_" cx="15.5063" cy="94.9433" r="9.2028" gradientUnits="userSpaceOnUse">
	<stop  offset="0.1174" style="stop-color:#DEDBC0"/>
	<stop  offset="1" style="stop-color:#FFFFFF;stop-opacity:0"/>
</radialGradient>
<path fill="url(#SVGID_13_)" d="M15.282,84.895c0,0-1.203,6.046-2.309,7.114c-1.415,1.366-5.737,2.649-5.737,2.649
	s4.48,1.471,5.882,3.063c1.175,1.335,2.696,7.271,2.696,7.271s1.342-6.032,2.492-7.429c1.156-1.403,5.473-3.395,5.473-3.395
	s-4.455-1.035-5.759-2.287C16.853,90.76,15.282,84.895,15.282,84.895z"/>
<radialGradient id="SVGID_14_" cx="71.7793" cy="180.714" r="5.863" gradientUnits="userSpaceOnUse">
	<stop  offset="0.1174" style="stop-color:#DEDBC0"/>
	<stop  offset="1" style="stop-color:#FFFFFF;stop-opacity:0"/>
</radialGradient>
<path fill="url(#SVGID_14_)" d="M71.636,174.312c0,0-0.767,3.852-1.471,4.532c-0.901,0.87-3.655,1.687-3.655,1.687
	s2.854,0.937,3.747,1.952c0.749,0.851,1.718,4.632,1.718,4.632s0.855-3.843,1.588-4.733c0.736-0.894,3.487-2.163,3.487-2.163
	s-2.838-0.659-3.669-1.457C72.637,178.049,71.636,174.312,71.636,174.312z"/>
<radialGradient id="SVGID_15_" cx="83.8638" cy="60.8211" r="9.2028" gradientUnits="userSpaceOnUse">
	<stop  offset="0.1174" style="stop-color:#DEDBC0"/>
	<stop  offset="1" style="stop-color:#FFFFFF;stop-opacity:0"/>
</radialGradient>
<path fill="url(#SVGID_15_)" d="M83.639,50.773c0,0-1.203,6.046-2.309,7.114c-1.415,1.366-5.737,2.649-5.737,2.649
	s4.48,1.471,5.882,3.063c1.175,1.335,2.696,7.271,2.696,7.271s1.342-6.032,2.492-7.429c1.156-1.403,5.473-3.395,5.473-3.395
	s-4.455-1.035-5.759-2.287C85.211,56.638,83.639,50.773,83.639,50.773z"/>
<radialGradient id="SVGID_16_" cx="468.0755" cy="117.7212" r="6.0092" gradientUnits="userSpaceOnUse">
	<stop  offset="0.1174" style="stop-color:#DEDBC0"/>
	<stop  offset="1" style="stop-color:#FFFFFF;stop-opacity:0"/>
</radialGradient>
<path fill="url(#SVGID_16_)" d="M467.929,111.16c0,0-0.786,3.948-1.508,4.645c-0.924,0.892-3.746,1.73-3.746,1.73
	s2.925,0.96,3.841,2c0.767,0.872,1.76,4.748,1.76,4.748s0.876-3.939,1.627-4.851c0.755-0.916,3.574-2.217,3.574-2.217
	s-2.909-0.676-3.761-1.494C468.955,114.99,467.929,111.16,467.929,111.16z"/>
</svg>
