<?xml version="1.0" encoding="utf-8"?>
<!-- Generator: Adobe Illustrator 17.0.0, SVG Export Plug-In . SVG Version: 6.00 Build 0)  -->
<!DOCTYPE svg PUBLIC "-//W3C//DTD SVG 1.1//EN" "http://www.w3.org/Graphics/SVG/1.1/DTD/svg11.dtd">
<svg version="1.1" id="Layer_1" xmlns="http://www.w3.org/2000/svg" xmlns:xlink="http://www.w3.org/1999/xlink" x="0px" y="0px"
	 width="163.599px" height="235.814px" viewBox="0 0 163.599 235.814" enable-background="new 0 0 163.599 235.814"
	 xml:space="preserve">
<pattern  x="-124.008" y="-328.934" width="350" height="370" patternUnits="userSpaceOnUse" id="New_Pattern_2" viewBox="0 -896.813 350 370" overflow="visible">
	<g>
		<polygon fill="none" points="0,-896.813 350,-896.813 350,-526.813 0,-526.813 		"/>
		<polyline opacity="0.3" fill="#FFFFFF" points="344.347,0 5.404,-360.741 5.434,-683.627 308.864,-358.749 302.155,-111.809 
			71.223,-358.811 69.776,-544.394 244.17,-358.749 237.46,-252.449 135.877,-360.155 135.877,-404.457 211.159,-322.213 
			211.12,-359.452 104.233,-474.777 103.53,-360.155 269.807,-183.535 275.814,-360.155 38.836,-613.307 38.143,-358.049 
			334.502,-45.708 344.596,-359.76 343.321,-361.078 		"/>
		<polyline opacity="0.3" fill="#FFFFFF" points="344.347,-370 5.404,-730.741 5.434,-1053.627 308.864,-728.749 302.155,-481.809 
			71.223,-728.811 69.776,-914.394 244.17,-728.749 237.46,-622.449 135.877,-730.155 135.877,-774.457 211.159,-692.213 
			211.12,-729.452 104.233,-844.777 103.53,-730.155 269.807,-553.535 275.814,-730.155 38.836,-983.307 38.143,-728.049 
			334.502,-415.708 344.596,-729.76 343.321,-731.078 		"/>
		<polyline opacity="0.3" fill="#FFFFFF" points="344.347,-740 5.404,-1100.741 5.434,-1423.627 308.864,-1098.749 
			302.155,-851.809 71.223,-1098.811 69.776,-1284.394 244.17,-1098.749 237.46,-992.449 135.877,-1100.155 135.877,-1144.457 
			211.159,-1062.213 211.12,-1099.452 104.233,-1214.777 103.53,-1100.155 269.807,-923.535 275.814,-1100.155 38.836,-1353.307 
			38.143,-1098.049 334.502,-785.708 344.596,-1099.76 343.321,-1101.078 		"/>
	</g>
</pattern>
<linearGradient id="SVGID_1_" gradientUnits="userSpaceOnUse" x1="0.3101" y1="117.9073" x2="164.3101" y2="117.9073">
	<stop  offset="0" style="stop-color:#F9A91A"/>
	<stop  offset="0.4888" style="stop-color:#F57F3A"/>
	<stop  offset="0.5007" style="stop-color:#F47E38"/>
	<stop  offset="0.6604" style="stop-color:#F0742B"/>
	<stop  offset="0.8248" style="stop-color:#ED6F25"/>
	<stop  offset="1" style="stop-color:#ED6D23"/>
</linearGradient>
<rect x="0.31" y="0" fill="url(#SVGID_1_)" width="163.289" height="235.814"/>
<path fill="#111132" d="M88.629,163.834c-33.381,0-64.122,2.651-88.629,7.103v64.877h163.599v-67.081
	C141.723,165.625,116.067,163.834,88.629,163.834z"/>
<linearGradient id="SVGID_2_" gradientUnits="userSpaceOnUse" x1="81.7997" y1="-7.1786" x2="81.7997" y2="230.1602">
	<stop  offset="0" style="stop-color:#FFFFFF;stop-opacity:0.7"/>
	<stop  offset="0.8587" style="stop-color:#FFFFFF;stop-opacity:0.0989"/>
	<stop  offset="1" style="stop-color:#FFFFFF;stop-opacity:0"/>
</linearGradient>
<path opacity="0.5" fill="url(#SVGID_2_)" d="M141.801,0H20.682L0,164.718v31.865c9.418,19.296,43.14,33.578,83.306,33.578
	c36.669,0,67.955-11.906,80.294-28.661v-55.336L141.801,0z"/>
<linearGradient id="SVGID_3_" gradientUnits="userSpaceOnUse" x1="76.8681" y1="2.4762" x2="76.8681" y2="185.4762">
	<stop  offset="0" style="stop-color:#FFFFFF;stop-opacity:0.7"/>
	<stop  offset="0.8587" style="stop-color:#FFFFFF;stop-opacity:0.0989"/>
	<stop  offset="1" style="stop-color:#FFFFFF;stop-opacity:0"/>
</linearGradient>
<polygon opacity="0.4" fill="url(#SVGID_3_)" points="0,31.853 0,155.416 9.172,184.902 153.736,185.476 "/>
<linearGradient id="SVGID_4_" gradientUnits="userSpaceOnUse" x1="99.6314" y1="8.710921e-05" x2="99.6314" y2="185.5816">
	<stop  offset="0" style="stop-color:#FFFFFF;stop-opacity:0.7"/>
	<stop  offset="0.8587" style="stop-color:#FFFFFF;stop-opacity:0.0989"/>
	<stop  offset="1" style="stop-color:#FFFFFF;stop-opacity:0"/>
</linearGradient>
<polygon opacity="0.2" fill="url(#SVGID_4_)" points="163.599,0 127.017,0 35.663,185.582 163.599,185.582 "/>
<polygon fill="#2E3181" points="36.668,18.551 73.085,7.48 97.178,18.551 123.062,201.226 81.131,212.994 56.63,206.805 "/>
<path fill="#2E3181" d="M105.262,83.824c3.475,1.604,10.519,4.431,13.109,6.038c5.093,3.158,17.421,11.027,20.982,13.088
	c1.511,0.874,5.337,1.806,6.905,1.039c1.225-0.598,2.328-3.433,2.673-4.752c0.536-2.047,0.452-6.397,0-8.464
	c-0.542-2.475-3.238-6.877-4.232-9.207c-0.298-0.697-1.176-2.066-1.114-2.821c0.071-0.863,1.381-2.202,1.782-2.97
	c0.273-0.523,0.758-1.601,0.965-2.153c0.089-0.238,0.302-0.719,0.297-0.974c-0.008-0.391-0.63-1.101-0.52-1.477
	c0.06-0.203,0.553-0.342,0.668-0.52c0.167-0.257,0.379-0.893,0.297-1.188c-0.091-0.329-1.008-0.627-0.965-0.965
	c0.046-0.363,1.08-0.425,1.262-0.742c0.286-0.499-0.013-1.726,0-2.302c0.019-0.799,0.514-2.482,0.148-3.193
	c-0.172-0.334-0.888-0.778-1.262-0.817c-0.257-0.027-0.819,0.158-0.965,0.371c-0.284,0.413,0.13,1.521,0,2.005
	c-0.106,0.394-0.412,1.458-0.817,1.411c-0.192-0.023-0.198-0.55-0.223-0.742c-0.061-0.479,0.19-1.462,0.074-1.93
	c-0.134-0.541-0.608-1.697-1.114-1.93c-0.463-0.213-1.717-0.05-2.005,0.371c-0.277,0.406,0.456,1.446,0.371,1.93
	c-0.138,0.787-1.226,2.06-1.633,2.747c-0.484,0.816-1.442,2.454-1.93,3.267c-0.202,0.336-0.448,1.467-0.817,1.336
	c-0.53-0.188,0.359-1.669,0.297-2.227c-0.147-1.337-0.71-4.345-1.856-5.049c-0.542-0.333-2.032-0.104-2.524,0.297
	c-0.501,0.408-0.934,1.815-0.817,2.45c0.095,0.519,1.089,1.168,1.336,1.633c0.273,0.513,0.633,1.647,0.668,2.227
	c0.047,0.769-0.516,2.266-0.52,3.036c-0.003,0.585,0.158,1.766,0.371,2.31c0.244,0.623,1.044,1.724,1.485,2.227
	c0.407,0.465,1.545,1.099,1.856,1.633c0.229,0.393,0.065,1.446,0.371,1.782c0.17,0.187,0.814,0.095,0.965,0.297
	c0.691,0.92,1.245,3.415,1.192,4.565c-0.071,1.559,1.779,8.007,0.235,8.233c-0.569,0.083-11.894-6.26-13.636-7.527
	c-2.515-1.829-12.043-7.473-13.839-8.676c-2.466-1.651-5.041-8.395-8.464-7.495C102.035,70.599,103.912,83.201,105.262,83.824z"/>
<polygon fill="#5764AE" points="73.085,7.48 35.7,18.846 56.63,29.622 98.533,17.848 "/>
<polygon fill="#434CA0" points="35.7,18.846 41.223,85.834 56.011,206.621 81.131,214.11 61.177,87.461 56.63,29.503 "/>
<polygon fill="#343795" points="98.533,17.848 56.63,29.622 61.177,87.461 81.186,214.11 123.062,201.226 105.401,80.881 "/>
<polygon fill="#363F95" points="92.855,29.622 65.897,36.588 70.11,86.056 87.286,203.578 115.849,194.79 97.969,80.902 "/>
<linearGradient id="SVGID_5_" gradientUnits="userSpaceOnUse" x1="-97.0338" y1="58.0016" x2="-68.2469" y2="58.0016" gradientTransform="matrix(-0.9276 0.275 0.2843 0.9587 -13.7305 0.2932)">
	<stop  offset="0" style="stop-color:#A2A2A2;stop-opacity:0"/>
	<stop  offset="0.0418" style="stop-color:#999A9E;stop-opacity:0.0418"/>
	<stop  offset="0.2245" style="stop-color:#777D90;stop-opacity:0.2245"/>
	<stop  offset="0.4109" style="stop-color:#5C6684;stop-opacity:0.4109"/>
	<stop  offset="0.6002" style="stop-color:#49557C;stop-opacity:0.6002"/>
	<stop  offset="0.7942" style="stop-color:#3E4B78;stop-opacity:0.7942"/>
	<stop  offset="1" style="stop-color:#3A4876"/>
</linearGradient>
<polygon fill="url(#SVGID_5_)" points="66.1,37.236 92.791,29.828 92.75,29.144 65.897,36.56 "/>
<linearGradient id="SVGID_6_" gradientUnits="userSpaceOnUse" x1="-527.9325" y1="-10440.7383" x2="-495.6161" y2="-10440.7383" gradientTransform="matrix(-0.1034 -0.9946 -0.9946 0.1034 -10370.0479 623.4349)">
	<stop  offset="0" style="stop-color:#A2A2A2;stop-opacity:0"/>
	<stop  offset="0.0418" style="stop-color:#999A9E;stop-opacity:0.0418"/>
	<stop  offset="0.2245" style="stop-color:#777D90;stop-opacity:0.2245"/>
	<stop  offset="0.4109" style="stop-color:#5C6684;stop-opacity:0.4109"/>
	<stop  offset="0.6002" style="stop-color:#49557C;stop-opacity:0.6002"/>
	<stop  offset="0.7942" style="stop-color:#3E4B78;stop-opacity:0.7942"/>
	<stop  offset="1" style="stop-color:#3A4876"/>
</linearGradient>
<polygon fill="url(#SVGID_6_)" points="65.897,36.584 68.615,68.788 69.31,68.72 66.651,36.56 "/>
<path fill="#0C0C0C" d="M107.411,215.036c-1.825,0.023-5.405,0.057-7.101,0.732c-0.735,0.293-2.028,1.345-2.436,2.023
	c-0.444,0.738-0.558,1.734-0.558,1.734s3.588,2.554,11.409,2.743c6.117,0.148,11.258-2.013,11.258-2.013s-0.313-1.838-0.695-2.467
	c-0.533-0.878-2.008-1.409-2.775-1.669c-2.246-0.763-4.796-0.929-6.4-1.01C109.479,215.076,108.044,215.028,107.411,215.036z"/>
<ellipse transform="matrix(0.9993 0.0378 -0.0378 0.9993 8.2883 -3.978)" fill="#282828" cx="109.323" cy="217.155" rx="8.235" ry="1.726"/>
<path fill="#333333" d="M109.366,215.359l-4.178,3.139c0,0,2.689,0.361,3.726,0.38c2.748,0.052,3.726-0.023,3.726-0.023
	L109.366,215.359z"/>
<rect x="112.658" y="144.179" transform="matrix(-0.9886 -0.1503 0.1503 -0.9886 200.8076 376.7775)" fill="#0C0C0C" width="3.969" height="73.243"/>
<path fill="#0C0C0C" d="M118.217,136.577c0.133-0.273,0.583-0.745,0.868-0.849c0.857-0.313,2.87-0.103,3.628,0.406
	c0.238,0.16,0.494,0.726,0.55,1.008c0.435,2.214,0.096,7-1.003,8.971c-0.18,0.322-0.802,0.83-1.163,0.911
	c-0.799,0.178-2.534-0.246-3.193-0.732c-0.26-0.191-0.582-0.801-0.648-1.117C116.811,143.057,117.269,138.52,118.217,136.577z"/>
<path fill="#0C0C0C" d="M107.264,215.505c-0.087,0.662-0.129,1.251,0,1.454c0.159,0.249,3.665,0.548,3.907,0.348
	c0.106-0.088,0.204-0.585,0.292-1.331C111.523,215.464,107.309,215.164,107.264,215.505z"/>
<polygon fill="#171814" points="122.577,112.04 118.588,138.477 122.511,139.074 125.777,117.59 "/>
<path fill="#212121" d="M123.472,226.88c0.694,2.021,1.465,4.585,0.42,8.197c-0.076,0.264-0.163,0.506-0.254,0.737h1.365
	c0.05-0.13,0.101-0.255,0.151-0.394c1.519-4.2,0.235-7.017-0.8-9.423c-1.7-3.951-3.137-5.298-4.372-6.389
	c-1.916-1.693-8.354-5.786-8.354-5.786l-0.158,1.04c0,0,5.8,3.86,7.513,5.438C120.227,221.445,122.36,223.644,123.472,226.88z"/>
<ellipse transform="matrix(-0.9987 0.05 -0.05 -0.9987 201.5829 107.0099)" fill="#121212" cx="99.452" cy="56.028" rx="4.206" ry="4.087"/>
<ellipse transform="matrix(-0.9968 0.08 -0.08 -0.9968 126.7567 117.5781)" fill="#121212" cx="61.023" cy="61.328" rx="4.554" ry="4.425"/>
<path fill="#121212" d="M104.396,48.986c-1.026-0.744-3.406-0.566-4.512-0.496c-1.359,0.087-4.023,0.672-5.209,1.297
	c-0.865,0.456-2.439,1.904-2.739,2.978c-0.159,0.569-0.128,2.078,0.299,2.538c0.53,0.571,2.06,0.356,2.647,0.094
	c0.649-0.291,1.319-1.872,1.914-2.273c1.017-0.686,3.451-1.197,4.645-1.454c0.679-0.146,2.158-0.028,2.778-0.337
	c0.311-0.155,1.002-0.606,1-1.027C105.217,49.928,104.69,49.199,104.396,48.986z"/>
<path fill="#121212" d="M57.574,54.023c0.996-0.822,3.056-0.738,4.014-0.711c1.178,0.033,3.433,0.53,4.389,1.132
	c0.697,0.439,1.884,1.886,2.007,2.995c0.065,0.588-0.161,2.167-0.595,2.665c-0.539,0.619-1.85,0.46-2.329,0.211
	c-0.53-0.276-0.909-1.9-1.376-2.293c-0.8-0.673-2.863-1.104-3.875-1.321c-0.575-0.123-1.885,0.063-2.387-0.234
	c-0.252-0.149-0.797-0.59-0.74-1.03C56.733,55.042,57.289,54.258,57.574,54.023z"/>
<path fill="#B74F9D" d="M56.072,74.227c0.649-1.472,4.997-2.814,6.4-2.622c1.423,0.195,3.952,2.542,2.936,3.97
	c-1.052,1.479-5.134,1.129-6.544,0.816C57.906,76.178,55.609,75.279,56.072,74.227z"/>
<path fill="#B74F9D" d="M104.286,70.475c0,0-1.38,1.571-2.785,1.749c-1.425,0.181-4.476-1.431-3.865-3.073
	c0.632-1.701,6.197-2.495,6.197-2.495L104.286,70.475z"/>
<path fill="#121212" d="M95.262,72.107c-0.401-1.636-1.51-2.681-2.231-3.323c-1.419-1.266-4.395-1.986-5.859-2.149
	c-1.588-0.177-4.749,0.261-6.281,0.925c-1.152,0.5-3.446,1.887-4.437,3.275c-0.684,0.958-1.1,1.482-1.278,3.409
	c-0.11,1.192,1.434,7.574,2.453,9.564c0.495,0.968,2.345,2.749,2.869,3.028c0.678,0.36,3.675,3.586,7.399,2.572
	c3.06-0.833,3.43-1.527,4.726-3.471c0.318-0.477,0.627-1.067,1.574-3.147C95.275,80.423,95.619,73.566,95.262,72.107z"/>
<g>
	<path fill="#D0E5F7" d="M80.56,72.345c-1.105,0.835-4.343,0.919-4.198-0.965c0.106-1.38,3.061-3.612,4.418-3.337
		C82.632,68.419,81.666,71.51,80.56,72.345z"/>
</g>
<g>
	<path fill="#D0E5F7" d="M84.871,71.729c-1.549,0.252-4.838-1.375-3.697-3.187c0.836-1.327,4.977-2.001,6.191-1.008
		C89.023,68.89,86.42,71.477,84.871,71.729z"/>
</g>
<g>
	<path fill="#D0E5F7" d="M89.654,72.017c-1.519-0.396-3.868-3.216-2.091-4.41c1.301-0.875,5.361,0.185,6.07,1.584
		C94.6,71.101,91.173,72.413,89.654,72.017z"/>
</g>
<path fill="#9DC4CB" d="M79.785,85.004c0.593-0.923,4.741-0.78,5.564-0.661c0.224,0.033,2.927-0.687,3.603-0.483
	c1.623,0.488,2.911,2.953,1.465,4.43c-1.497,1.53-6.189,0.372-7.775-0.252C81.564,87.614,79.052,86.145,79.785,85.004z"/>
<polygon fill="#C6E5CF" points="79.09,50.283 83.182,59.032 86.951,49.89 82.429,41.163 "/>
<path fill="#D280B5" d="M56.072,74.227c0.649-1.472,3.892-2.254,3.892-2.254l0.319,4.626c0,0-0.009,0.105-1.419-0.208
	C57.906,76.178,55.609,75.279,56.072,74.227z"/>
<path fill="#333333" d="M56.484,61.692c0.195,2.436,1.889,3.363,2.981,3.801l-0.294-4.017l-0.35-4.013
	C57.446,58.345,56.288,59.256,56.484,61.692z"/>
<path fill="#212121" d="M124.295,165.691c-1.126,2.726-2.751,6.791-7,9.809c-3.104,2.205-3.786,2.062-6.186,4.505
	c-2.428,2.47-7.662,7.772-8.117,16.342c-0.273,5.14,1.759,10.439,2.196,12.501c0.458,2.162,2.615,3.736,2.615,3.736l-0.161,1.058
	c0,0-2.463-1.297-3.295-4.374c-0.567-2.097-2.482-6.62-2.38-12.114c0.162-8.725,5.537-15.406,8.064-17.981
	c2.494-2.541,3.654-2.349,6.663-4.796c4.191-3.408,5.824-6.689,6.619-9.428c2.197-7.562,1.701-16.666,10.7-28.314
	c1.002-1.297,1.279-1.949,1.471-2.964c0.369-1.951,0.003-3.071,0.003-3.071l0.824-0.118c0,0,0.363,1.61-0.009,3.296
	c-0.348,1.575-0.566,1.911-1.682,3.338C125.833,148.358,126.459,160.45,124.295,165.691z"/>
<path fill="#212123" d="M123.665,94.735c0.724,1.059,12.252,29.015,12.324,29.493c0.046,0.302-0.344,0.879-0.575,1.079
	c-0.814,0.707-3.015,1.777-4.051,1.479c-0.133-0.038-0.387-0.394-0.387-0.394l-15.969-27.311l4.431-1.926L123.665,94.735z"/>
<path fill="#353538" d="M125.465,112.8l-5.148-8.616c0,0-2.333-3.99-2.511-5.381c-0.196-1.534,2.057,2.096,2.057,2.096l5.195,8.58
	l4.207,6.946c0,0,2.541,4.348,2.934,6.106c0.447,2.004-2.041-1.914-2.041-1.914L125.465,112.8z"/>
<path fill="#0C0C0C" d="M122.442,88.693c-0.129-0.679-1.324-2.33-1.914-2.847c-0.518-0.454-1.797-1.108-2.48-1.201
	c-1.193-0.163-2.491-0.429-4.721,0.658c-3.699,1.804-3.379,4.365-3.607,6.069c-0.093,0.696,0.906,3.122,0.906,3.122
	s4.605-2.331,6.137-3.065C118.17,90.755,122.442,88.693,122.442,88.693z"/>
<path fill="#0C0C0C" d="M122.954,89.7l-5.995,2.882l-5.759,2.769c0,0,0.645,1.243,1.683,2.302c1.134,1.157,2.072,1.45,2.072,1.45
	s6.361-2.601,8.228-3.904c0.168-0.117,0.584-0.573,0.584-0.573s0.045-1.795-0.037-2.385C123.559,91.004,122.954,89.7,122.954,89.7z"
	/>
<path fill="#0C0C0C" d="M135.782,125.036l1.252,5.227c0,0-0.329,0.637-1.208,0.933c-1.001,0.336-1.465-0.052-1.465-0.052
	l-2.507-4.39c0,0,1.603-0.383,2.103-0.603C134.447,125.936,135.782,125.036,135.782,125.036z"/>
<ellipse transform="matrix(0.9983 0.0586 -0.0586 0.9983 5.1795 -6.5382)" fill="#262628" cx="114.094" cy="85.063" rx="0.121" ry="0.091"/>
<ellipse transform="matrix(0.9983 0.0586 -0.0586 0.9983 5.1635 -6.583)" fill="#262628" cx="114.85" cy="84.769" rx="0.109" ry="0.091"/>
<circle fill="#262628" cx="115.566" cy="84.648" r="0.068"/>
<ellipse transform="matrix(0.9983 0.0586 -0.0586 0.9983 5.2106 -6.4636)" fill="#262628" cx="112.837" cy="85.631" rx="0.097" ry="0.079"/>
<ellipse transform="matrix(0.9983 0.0586 -0.0586 0.9983 5.2339 -6.4555)" fill="#262628" cx="112.71" cy="86.032" rx="0.127" ry="0.103"/>
<ellipse transform="matrix(0.9983 0.0586 -0.0586 0.9983 5.2278 -6.5446)" fill="#262628" cx="114.228" cy="85.884" rx="0.187" ry="0.097"/>
<circle fill="#262628" cx="115.714" cy="84.89" r="0.127"/>
<ellipse transform="matrix(0.9983 0.0586 -0.0586 0.9983 5.2153 -6.5009)" fill="#262628" cx="113.476" cy="85.693" rx="0.121" ry="0.091"/>
<ellipse transform="matrix(0.9983 0.0586 -0.0586 0.9983 5.2433 -6.5001)" fill="#262628" cx="113.477" cy="86.17" rx="0.15" ry="0.112"/>
<ellipse transform="matrix(0.9983 0.0586 -0.0586 0.9983 5.2016 -6.5431)" fill="#262628" cx="114.189" cy="85.438" rx="0.15" ry="0.112"/>
<ellipse transform="matrix(0.9983 0.0586 -0.0586 0.9983 5.1788 -6.5905)" fill="#262628" cx="114.985" cy="85.025" rx="0.15" ry="0.112"/>
<ellipse transform="matrix(0.9983 0.0586 -0.0586 0.9983 5.2953 -6.4127)" fill="#262628" cx="112.012" cy="87.101" rx="0.15" ry="0.112"/>
<ellipse transform="matrix(0.9983 0.0586 -0.0586 0.9983 5.2647 -6.4528)" fill="#262628" cx="112.68" cy="86.559" rx="0.15" ry="0.112"/>
<ellipse transform="matrix(0.9983 0.0586 -0.0586 0.9983 5.2685 -6.4962)" fill="#262628" cx="113.422" cy="86.602" rx="0.15" ry="0.112"/>
<ellipse transform="matrix(0.9983 0.0586 -0.0586 0.9983 5.2958 -6.4476)" fill="#262628" cx="112.607" cy="87.092" rx="0.165" ry="0.124"/>
<ellipse transform="matrix(0.9983 0.0586 -0.0586 0.9983 5.3069 -6.4889)" fill="#262628" cx="113.317" cy="87.261" rx="0.165" ry="0.124"/>
<ellipse transform="matrix(0.9983 0.0586 -0.0586 0.9983 5.2863 -6.5398)" fill="#262628" cx="114.175" cy="86.883" rx="0.165" ry="0.124"/>
<ellipse transform="matrix(0.9983 0.0586 -0.0586 0.9983 5.262 -6.5904)" fill="#262628" cx="115.026" cy="86.444" rx="0.165" ry="0.124"/>
<ellipse transform="matrix(0.9983 0.0586 -0.0586 0.9983 5.2289 -6.5949)" fill="#262628" cx="115.085" cy="85.878" rx="0.165" ry="0.124"/>
<ellipse transform="matrix(0.9983 0.0586 -0.0586 0.9983 5.205 -6.5955)" fill="#262628" cx="115.083" cy="85.469" rx="0.165" ry="0.124"/>
<ellipse transform="matrix(0.9983 0.0586 -0.0586 0.9983 5.2158 -6.6411)" fill="#262628" cx="115.867" cy="85.63" rx="0.165" ry="0.124"/>
<ellipse transform="matrix(0.9983 0.0586 -0.0586 0.9983 5.1925 -6.6406)" fill="#262628" cx="115.847" cy="85.233" rx="0.165" ry="0.124"/>
<ellipse transform="matrix(0.9983 0.0586 -0.0586 0.9983 5.2052 -6.6871)" fill="#262628" cx="116.646" cy="85.428" rx="0.165" ry="0.124"/>
<ellipse transform="matrix(0.9983 0.0586 -0.0586 0.9983 5.1778 -6.6845)" fill="#262628" cx="116.588" cy="84.961" rx="0.165" ry="0.124"/>
<ellipse transform="matrix(0.9983 0.0586 -0.0586 0.9983 5.1587 -6.6717)" fill="#262628" cx="116.361" cy="84.642" rx="0.165" ry="0.124"/>
<ellipse transform="matrix(0.9983 0.0586 -0.0586 0.9983 5.1981 -6.7345)" fill="#262628" cx="117.451" cy="85.282" rx="0.165" ry="0.124"/>
<ellipse transform="matrix(0.9983 0.0586 -0.0586 0.9983 5.1955 -6.7803)" fill="#262628" cx="118.23" cy="85.215" rx="0.165" ry="0.124"/>
<ellipse transform="matrix(0.9983 0.0586 -0.0586 0.9983 5.2214 -6.7877)" fill="#262628" cx="118.37" cy="85.653" rx="0.165" ry="0.124"/>
<ellipse transform="matrix(0.9983 0.0586 -0.0586 0.9983 5.2174 -6.8246)" fill="#262628" cx="118.996" cy="85.566" rx="0.165" ry="0.124"/>
<ellipse transform="matrix(0.9983 0.0586 -0.0586 0.9983 5.2237 -6.8666)" fill="#262628" cx="119.716" cy="85.652" rx="0.165" ry="0.124"/>
<ellipse transform="matrix(0.9983 0.0586 -0.0586 0.9983 5.1931 -6.8191)" fill="#262628" cx="118.891" cy="85.155" rx="0.133" ry="0.1"/>
<ellipse transform="matrix(0.9983 0.0586 -0.0586 0.9983 5.1683 -6.7661)" fill="#262628" cx="117.974" cy="84.758" rx="0.133" ry="0.1"/>
<ellipse transform="matrix(0.9983 0.0586 -0.0586 0.9983 5.1744 -6.7288)" fill="#262628" cx="117.341" cy="84.881" rx="0.133" ry="0.1"/>
<ellipse transform="matrix(0.9983 0.0586 -0.0586 0.9983 5.1567 -6.719)" fill="#262628" cx="117.166" cy="84.583" rx="0.109" ry="0.082"/>
<ellipse transform="matrix(0.9983 0.0586 -0.0586 0.9983 5.1999 -6.8525)" fill="#262628" cx="119.464" cy="85.254" rx="0.133" ry="0.1"/>
<ellipse transform="matrix(0.9983 0.0586 -0.0586 0.9983 5.1767 -6.8056)" fill="#262628" cx="118.653" cy="84.881" rx="0.107" ry="0.08"/>
<ellipse transform="matrix(0.9983 0.0586 -0.0586 0.9983 5.2271 -6.894)" fill="#262628" cx="120.185" cy="85.698" rx="0.107" ry="0.08"/>
<ellipse transform="matrix(0.9983 0.0586 -0.0586 0.9983 5.2613 -6.9348)" fill="#262628" cx="120.898" cy="86.26" rx="0.107" ry="0.08"/>
<ellipse transform="matrix(0.9983 0.0586 -0.0586 0.9983 5.492 -7.0524)" fill="#262628" cx="123.019" cy="90.135" rx="0.107" ry="0.08"/>
<ellipse transform="matrix(0.1759 -0.9844 0.9844 0.1759 12.0917 196.3761)" fill="#262628" cx="123.335" cy="90.966" rx="0.107" ry="0.08"/>
<ellipse transform="matrix(0.9983 0.0586 -0.0586 0.9983 5.6246 -7.0845)" fill="#262628" cx="123.634" cy="92.38" rx="0.107" ry="0.08"/>
<ellipse transform="matrix(0.1444 -0.9895 0.9895 0.1444 14.9077 200.3902)" fill="#262628" cx="123.329" cy="91.575" rx="0.107" ry="0.08"/>
<ellipse transform="matrix(0.9983 0.0586 -0.0586 0.9983 5.254 -6.8311)" fill="#262628" cx="119.125" cy="86.188" rx="0.165" ry="0.124"/>
<ellipse transform="matrix(0.9983 0.0586 -0.0586 0.9983 5.2534 -6.8726)" fill="#262628" cx="119.833" cy="86.157" rx="0.165" ry="0.124"/>
<ellipse transform="matrix(0.9983 0.0586 -0.0586 0.9983 5.2551 -6.789)" fill="#262628" cx="118.409" cy="86.226" rx="0.165" ry="0.124"/>
<ellipse transform="matrix(0.9983 0.0586 -0.0586 0.9983 5.2578 -6.7371)" fill="#262628" cx="117.525" cy="86.299" rx="0.165" ry="0.124"/>
<ellipse transform="matrix(0.9983 0.0586 -0.0586 0.9983 5.2235 -6.7377)" fill="#262628" cx="117.518" cy="85.714" rx="0.165" ry="0.124"/>
<ellipse transform="matrix(0.9983 0.0586 -0.0586 0.9983 5.2343 -6.6893)" fill="#262628" cx="116.698" cy="85.922" rx="0.165" ry="0.124"/>
<ellipse transform="matrix(0.9983 0.0586 -0.0586 0.9983 5.2704 -6.6861)" fill="#262628" cx="116.661" cy="86.54" rx="0.165" ry="0.124"/>
<ellipse transform="matrix(0.9983 0.0586 -0.0586 0.9983 5.2444 -6.6388)" fill="#262628" cx="115.842" cy="86.12" rx="0.165" ry="0.124"/>
<ellipse transform="matrix(0.9983 0.0586 -0.0586 0.9983 5.2874 -6.635)" fill="#262628" cx="115.799" cy="86.854" rx="0.165" ry="0.124"/>
<ellipse transform="matrix(0.9983 0.0586 -0.0586 0.9983 5.3078 -6.5813)" fill="#262628" cx="114.893" cy="87.23" rx="0.165" ry="0.124"/>
<ellipse transform="matrix(0.9983 0.0586 -0.0586 0.9983 5.3254 -6.5325)" fill="#262628" cx="114.069" cy="87.554" rx="0.165" ry="0.124"/>
<ellipse transform="matrix(0.9983 0.0586 -0.0586 0.9983 5.3488 -6.4803)" fill="#262628" cx="113.191" cy="87.979" rx="0.165" ry="0.124"/>
<ellipse transform="matrix(0.9983 0.0586 -0.0586 0.9983 5.3673 -6.5245)" fill="#262628" cx="113.953" cy="88.272" rx="0.165" ry="0.124"/>
<ellipse transform="matrix(0.9983 0.0586 -0.0586 0.9983 5.3339 -6.4428)" fill="#262628" cx="112.544" cy="87.744" rx="0.165" ry="0.124"/>
<ellipse transform="matrix(0.9983 0.0586 -0.0586 0.9983 5.3304 -6.4037)" fill="#262628" cx="111.876" cy="87.705" rx="0.165" ry="0.124"/>
<ellipse transform="matrix(0.9983 0.0586 -0.0586 0.9983 5.3653 -6.3978)" fill="#262628" cx="111.792" cy="88.303" rx="0.165" ry="0.124"/>
<ellipse transform="matrix(0.9983 0.0586 -0.0586 0.9983 5.4061 -6.3911)" fill="#262628" cx="111.698" cy="89.002" rx="0.165" ry="0.124"/>
<ellipse transform="matrix(0.9983 0.0586 -0.0586 0.9983 5.4241 -6.429)" fill="#262628" cx="112.354" cy="89.289" rx="0.165" ry="0.124"/>
<ellipse transform="matrix(0.9983 0.0586 -0.0586 0.9983 5.4444 -6.4628)" fill="#262628" cx="112.941" cy="89.619" rx="0.229" ry="0.172"/>
<ellipse transform="matrix(0.9983 0.0586 -0.0586 0.9983 5.417 -6.5147)" fill="#262628" cx="113.811" cy="89.126" rx="0.229" ry="0.172"/>
<ellipse transform="matrix(0.9983 0.0586 -0.0586 0.9983 5.4646 -6.5062)" fill="#262628" cx="113.69" cy="89.942" rx="0.229" ry="0.172"/>
<ellipse transform="matrix(0.9983 0.0586 -0.0586 0.9983 5.4692 -6.4174)" fill="#262628" cx="112.178" cy="90.064" rx="0.229" ry="0.172"/>
<ellipse transform="matrix(0.9983 0.0586 -0.0586 0.9983 5.4874 -6.4618)" fill="#262628" cx="112.945" cy="90.353" rx="0.229" ry="0.172"/>
<ellipse transform="matrix(0.9983 0.0586 -0.0586 0.9983 5.5166 -6.4924)" fill="#262628" cx="113.481" cy="90.835" rx="0.229" ry="0.172"/>
<ellipse transform="matrix(0.9983 0.0586 -0.0586 0.9983 5.4923 -6.5409)" fill="#262628" cx="114.297" cy="90.396" rx="0.229" ry="0.172"/>
<ellipse transform="matrix(0.9983 0.0586 -0.0586 0.9983 5.4379 -6.5535)" fill="#262628" cx="114.483" cy="89.462" rx="0.229" ry="0.172"/>
<ellipse transform="matrix(0.9983 0.0586 -0.0586 0.9983 5.3939 -6.564)" fill="#262628" cx="114.641" cy="88.707" rx="0.229" ry="0.172"/>
<ellipse transform="matrix(0.9983 0.0586 -0.0586 0.9983 5.3455 -6.5749)" fill="#262628" cx="114.802" cy="87.877" rx="0.229" ry="0.172"/>
<ellipse transform="matrix(0.9983 0.0586 -0.0586 0.9983 5.3682 -6.6182)" fill="#262628" cx="115.552" cy="88.242" rx="0.229" ry="0.172"/>
<ellipse transform="matrix(0.9983 0.0586 -0.0586 0.9983 5.3242 -6.6266)" fill="#262628" cx="115.674" cy="87.488" rx="0.229" ry="0.172"/>
<ellipse transform="matrix(0.9983 0.0586 -0.0586 0.9983 5.3106 -6.6825)" fill="#262628" cx="116.621" cy="87.228" rx="0.229" ry="0.172"/>
<ellipse transform="matrix(0.9983 0.0586 -0.0586 0.9983 5.3584 -6.6717)" fill="#262628" cx="116.461" cy="88.047" rx="0.229" ry="0.172"/>
<ellipse transform="matrix(0.9983 0.0586 -0.0586 0.9983 5.4059 -6.6607)" fill="#262628" cx="116.296" cy="88.863" rx="0.229" ry="0.172"/>
<ellipse transform="matrix(0.9983 0.0586 -0.0586 0.9983 5.4506 -6.6474)" fill="#262628" cx="116.092" cy="89.632" rx="0.229" ry="0.172"/>
<ellipse transform="matrix(0.9983 0.0586 -0.0586 0.9983 5.418 -6.6085)" fill="#262628" cx="115.411" cy="89.096" rx="0.229" ry="0.172"/>
<ellipse transform="matrix(0.9983 0.0586 -0.0586 0.9983 5.4694 -6.5958)" fill="#262628" cx="115.221" cy="89.978" rx="0.229" ry="0.172"/>
<ellipse transform="matrix(0.9983 0.0586 -0.0586 0.9983 5.5244 -6.5813)" fill="#262628" cx="115.001" cy="90.924" rx="0.229" ry="0.172"/>
<ellipse transform="matrix(0.9983 0.0586 -0.0586 0.9983 5.5457 -6.5343)" fill="#262628" cx="114.21" cy="91.31" rx="0.229" ry="0.172"/>
<ellipse transform="matrix(0.9983 0.0586 -0.0586 0.9983 5.5663 -6.488)" fill="#262628" cx="113.431" cy="91.686" rx="0.229" ry="0.172"/>
<ellipse transform="matrix(0.9983 0.0586 -0.0586 0.9983 5.5382 -6.45)" fill="#262628" cx="112.769" cy="91.226" rx="0.229" ry="0.172"/>
<ellipse transform="matrix(0.9983 0.0586 -0.0586 0.9983 5.59 -6.4412)" fill="#262628" cx="112.645" cy="92.112" rx="0.229" ry="0.172"/>
<ellipse transform="matrix(0.9983 0.0586 -0.0586 0.9983 5.6194 -6.4699)" fill="#262628" cx="113.149" cy="92.599" rx="0.229" ry="0.172"/>
<ellipse transform="matrix(0.9983 0.0586 -0.0586 0.9983 5.6432 -6.4319)" fill="#262628" cx="112.512" cy="93.024" rx="0.229" ry="0.172"/>
<ellipse transform="matrix(0.9983 0.0586 -0.0586 0.9983 5.6709 -6.4653)" fill="#262628" cx="113.097" cy="93.48" rx="0.229" ry="0.172"/>
<ellipse transform="matrix(0.9983 0.0586 -0.0586 0.9983 5.6477 -6.5118)" fill="#262628" cx="113.878" cy="93.061" rx="0.229" ry="0.172"/>
<ellipse transform="matrix(0.9983 0.0586 -0.0586 0.9983 5.6293 -6.5538)" fill="#262628" cx="114.585" cy="92.726" rx="0.229" ry="0.172"/>
<ellipse transform="matrix(0.9983 0.0586 -0.0586 0.9983 5.6087 -6.6051)" fill="#262628" cx="115.449" cy="92.35" rx="0.229" ry="0.172"/>
<ellipse transform="matrix(0.9983 0.0586 -0.0586 0.9983 5.6092 -6.6104)" fill="#262628" cx="115.54" cy="92.356" rx="0.229" ry="0.172"/>
<ellipse transform="matrix(0.9983 0.0586 -0.0586 0.9983 5.5889 -6.658)" fill="#262628" cx="116.342" cy="91.985" rx="0.229" ry="0.172"/>
<ellipse transform="matrix(0.9983 0.0586 -0.0586 0.9983 5.5577 -6.6186)" fill="#262628" cx="115.654" cy="91.472" rx="0.229" ry="0.172"/>
<ellipse transform="matrix(0.9983 0.0586 -0.0586 0.9983 5.5734 -6.5685)" fill="#262628" cx="114.807" cy="91.766" rx="0.229" ry="0.172"/>
<ellipse transform="matrix(0.9983 0.0586 -0.0586 0.9983 5.5967 -6.5183)" fill="#262628" cx="113.962" cy="92.189" rx="0.229" ry="0.172"/>
<ellipse transform="matrix(0.9983 0.0586 -0.0586 0.9983 5.5029 -6.6369)" fill="#262628" cx="115.939" cy="90.529" rx="0.229" ry="0.172"/>
<ellipse transform="matrix(0.9983 0.0586 -0.0586 0.9983 5.5357 -6.6762)" fill="#262628" cx="116.625" cy="91.069" rx="0.229" ry="0.172"/>
<ellipse transform="matrix(0.9983 0.0586 -0.0586 0.9983 5.4879 -6.6913)" fill="#262628" cx="116.858" cy="90.246" rx="0.229" ry="0.172"/>
<ellipse transform="matrix(0.9983 0.0586 -0.0586 0.9983 5.5269 -6.7243)" fill="#262628" cx="117.442" cy="90.896" rx="0.229" ry="0.172"/>
<ellipse transform="matrix(0.9983 0.0586 -0.0586 0.9983 5.4405 -6.698)" fill="#262628" cx="116.95" cy="89.434" rx="0.229" ry="0.172"/>
<ellipse transform="matrix(0.9983 0.0586 -0.0586 0.9983 5.3871 -6.7162)" fill="#262628" cx="117.233" cy="88.515" rx="0.229" ry="0.172"/>
<ellipse transform="matrix(0.9983 0.0586 -0.0586 0.9983 5.3428 -6.7227)" fill="#262628" cx="117.321" cy="87.756" rx="0.229" ry="0.172"/>
<ellipse transform="matrix(0.9983 0.0586 -0.0586 0.9983 5.3816 -6.7681)" fill="#262628" cx="118.116" cy="88.395" rx="0.229" ry="0.172"/>
<ellipse transform="matrix(0.9983 0.0586 -0.0586 0.9983 5.3342 -6.7789)" fill="#262628" cx="118.276" cy="87.58" rx="0.229" ry="0.172"/>
<ellipse transform="matrix(0.9983 0.0586 -0.0586 0.9983 5.2986 -6.7311)" fill="#262628" cx="117.443" cy="86.999" rx="0.229" ry="0.172"/>
<ellipse transform="matrix(0.9983 0.0586 -0.0586 0.9983 5.2926 -6.7857)" fill="#262628" cx="118.371" cy="86.869" rx="0.229" ry="0.172"/>
<ellipse transform="matrix(0.9983 0.0586 -0.0586 0.9983 5.3292 -6.8244)" fill="#262628" cx="119.05" cy="87.474" rx="0.229" ry="0.172"/>
<ellipse transform="matrix(0.9983 0.0586 -0.0586 0.9983 5.3735 -6.8168)" fill="#262628" cx="118.942" cy="88.233" rx="0.229" ry="0.172"/>
<ellipse transform="matrix(0.9983 0.0586 -0.0586 0.9983 5.3712 -6.866)" fill="#262628" cx="119.779" cy="88.169" rx="0.229" ry="0.172"/>
<ellipse transform="matrix(0.9983 0.0586 -0.0586 0.9983 5.3291 -6.8718)" fill="#262628" cx="119.858" cy="87.447" rx="0.229" ry="0.172"/>
<ellipse transform="matrix(0.9983 0.0586 -0.0586 0.9983 5.4219 -6.8065)" fill="#262628" cx="118.791" cy="89.063" rx="0.229" ry="0.172"/>
<ellipse transform="matrix(0.9983 0.0586 -0.0586 0.9983 5.3297 -6.9126)" fill="#262628" cx="120.554" cy="87.438" rx="0.229" ry="0.172"/>
<ellipse transform="matrix(0.9983 0.0586 -0.0586 0.9983 5.3692 -6.9116)" fill="#262628" cx="120.556" cy="88.113" rx="0.229" ry="0.172"/>
<ellipse transform="matrix(0.9983 0.0586 -0.0586 0.9983 5.4164 -6.8993)" fill="#262628" cx="120.37" cy="88.924" rx="0.229" ry="0.172"/>
<ellipse transform="matrix(0.9983 0.0586 -0.0586 0.9983 5.416 -6.8541)" fill="#262628" cx="119.599" cy="88.939" rx="0.229" ry="0.172"/>
<ellipse transform="matrix(0.9983 0.0586 -0.0586 0.9983 5.4219 -6.8065)" fill="#262628" cx="118.791" cy="89.063" rx="0.229" ry="0.172"/>
<ellipse transform="matrix(0.9983 0.0586 -0.0586 0.9983 5.4322 -6.755)" fill="#262628" cx="117.917" cy="89.264" rx="0.229" ry="0.172"/>
<ellipse transform="matrix(0.9983 0.0586 -0.0586 0.9983 5.3772 -6.9479)" fill="#262628" cx="121.18" cy="88.229" rx="0.229" ry="0.172"/>
<ellipse transform="matrix(0.9983 0.0586 -0.0586 0.9983 5.4201 -6.9411)" fill="#262628" cx="121.086" cy="88.966" rx="0.229" ry="0.172"/>
<ellipse transform="matrix(0.9983 0.0586 -0.0586 0.9983 5.4641 -6.9321)" fill="#262628" cx="120.954" cy="89.72" rx="0.229" ry="0.172"/>
<ellipse transform="matrix(0.9983 0.0586 -0.0586 0.9983 5.4628 -6.8898)" fill="#262628" cx="120.232" cy="89.719" rx="0.229" ry="0.172"/>
<ellipse transform="matrix(0.9983 0.0586 -0.0586 0.9983 5.4663 -6.8419)" fill="#262628" cx="119.417" cy="89.802" rx="0.229" ry="0.172"/>
<ellipse transform="matrix(0.9983 0.0586 -0.0586 0.9983 5.4692 -6.7939)" fill="#262628" cx="118.6" cy="89.876" rx="0.229" ry="0.172"/>
<ellipse transform="matrix(0.9983 0.0586 -0.0586 0.9983 5.4792 -6.742)" fill="#262628" cx="117.719" cy="90.072" rx="0.229" ry="0.172"/>
<ellipse transform="matrix(0.9983 0.0586 -0.0586 0.9983 5.5214 -6.7759)" fill="#262628" cx="118.318" cy="90.775" rx="0.229" ry="0.172"/>
<ellipse transform="matrix(0.9983 0.0586 -0.0586 0.9983 5.5286 -6.7242)" fill="#262628" cx="117.44" cy="90.925" rx="0.229" ry="0.172"/>
<ellipse transform="matrix(0.9983 0.0586 -0.0586 0.9983 5.5716 -6.7134)" fill="#262628" cx="117.278" cy="91.662" rx="0.229" ry="0.172"/>
<ellipse transform="matrix(0.9983 0.0586 -0.0586 0.9983 5.5707 -6.7665)" fill="#262628" cx="118.182" cy="91.621" rx="0.229" ry="0.172"/>
<ellipse transform="matrix(0.9983 0.0586 -0.0586 0.9983 5.5637 -6.816)" fill="#262628" cx="119.023" cy="91.477" rx="0.229" ry="0.172"/>
<ellipse transform="matrix(0.9983 0.0586 -0.0586 0.9983 5.512 -6.8255)" fill="#262628" cx="119.16" cy="90.591" rx="0.229" ry="0.172"/>
<ellipse transform="matrix(0.9983 0.0586 -0.0586 0.9983 5.5557 -6.864)" fill="#262628" cx="119.838" cy="91.316" rx="0.229" ry="0.172"/>
<ellipse transform="matrix(0.9983 0.0586 -0.0586 0.9983 5.5061 -6.8726)" fill="#262628" cx="119.959" cy="90.466" rx="0.229" ry="0.172"/>
<ellipse transform="matrix(0.9983 0.0586 -0.0586 0.9983 5.5535 -6.9108)" fill="#262628" cx="120.635" cy="91.255" rx="0.229" ry="0.172"/>
<ellipse transform="matrix(0.9983 0.0586 -0.0586 0.9983 5.5533 -6.9512)" fill="#262628" cx="121.324" cy="91.231" rx="0.229" ry="0.172"/>
<ellipse transform="matrix(0.9983 0.0586 -0.0586 0.9983 5.5081 -6.9199)" fill="#262628" cx="120.768" cy="90.476" rx="0.229" ry="0.172"/>
<ellipse transform="matrix(0.9983 0.0586 -0.0586 0.9983 5.5085 -6.9603)" fill="#262628" cx="121.457" cy="90.463" rx="0.229" ry="0.172"/>
<ellipse transform="matrix(0.9983 0.0586 -0.0586 0.9983 5.5977 -6.9344)" fill="#262628" cx="121.059" cy="91.997" rx="0.229" ry="0.172"/>
<ellipse transform="matrix(0.9983 0.0586 -0.0586 0.9983 5.5995 -6.8933)" fill="#262628" cx="120.359" cy="92.048" rx="0.229" ry="0.172"/>
<ellipse transform="matrix(0.9983 0.0586 -0.0586 0.9983 5.6033 -6.8444)" fill="#262628" cx="119.528" cy="92.138" rx="0.229" ry="0.172"/>
<ellipse transform="matrix(0.9983 0.0586 -0.0586 0.9983 5.6091 -6.7951)" fill="#262628" cx="118.689" cy="92.261" rx="0.229" ry="0.172"/>
<ellipse transform="matrix(0.9983 0.0586 -0.0586 0.9983 5.6185 -6.7432)" fill="#262628" cx="117.809" cy="92.447" rx="0.229" ry="0.172"/>
<ellipse transform="matrix(0.9983 0.0586 -0.0586 0.9983 5.6289 -6.6924)" fill="#262628" cx="116.948" cy="92.65" rx="0.229" ry="0.172"/>
<ellipse transform="matrix(0.9983 0.0586 -0.0586 0.9983 5.6443 -6.6379)" fill="#262628" cx="116.027" cy="92.94" rx="0.229" ry="0.172"/>
<ellipse transform="matrix(0.9983 0.0586 -0.0586 0.9983 5.6614 -6.587)" fill="#262628" cx="115.167" cy="93.257" rx="0.229" ry="0.172"/>
<ellipse transform="matrix(0.9983 0.0586 -0.0586 0.9983 5.6832 -6.5356)" fill="#262628" cx="114.301" cy="93.656" rx="0.229" ry="0.172"/>
<ellipse transform="matrix(0.9983 0.0586 -0.0586 0.9983 5.7033 -6.4934)" fill="#262628" cx="113.592" cy="94.02" rx="0.229" ry="0.172"/>
<ellipse transform="matrix(0.9983 0.0586 -0.0586 0.9983 5.7248 -6.4562)" fill="#262628" cx="112.969" cy="94.404" rx="0.229" ry="0.172"/>
<ellipse transform="matrix(0.9983 0.0586 -0.0586 0.9983 5.7542 -6.4849)" fill="#262628" cx="113.473" cy="94.892" rx="0.229" ry="0.172"/>
<ellipse transform="matrix(0.9983 0.0586 -0.0586 0.9983 5.7379 -6.5284)" fill="#262628" cx="114.206" cy="94.591" rx="0.229" ry="0.172"/>
<ellipse transform="matrix(0.9983 0.0586 -0.0586 0.9983 5.7172 -6.5776)" fill="#262628" cx="115.035" cy="94.213" rx="0.229" ry="0.172"/>
<ellipse transform="matrix(0.9983 0.0586 -0.0586 0.9983 5.6988 -6.6196)" fill="#262628" cx="115.742" cy="93.878" rx="0.229" ry="0.172"/>
<ellipse transform="matrix(0.9983 0.0586 -0.0586 0.9983 5.6822 -6.6742)" fill="#262628" cx="116.665" cy="93.568" rx="0.229" ry="0.172"/>
<ellipse transform="matrix(0.9983 0.0586 -0.0586 0.9983 5.6691 -6.7318)" fill="#262628" cx="117.64" cy="93.316" rx="0.229" ry="0.172"/>
<ellipse transform="matrix(0.9983 0.0586 -0.0586 0.9983 5.6571 -6.7839)" fill="#262628" cx="118.522" cy="93.086" rx="0.229" ry="0.172"/>
<ellipse transform="matrix(0.9983 0.0586 -0.0586 0.9983 5.6514 -6.8328)" fill="#262628" cx="119.354" cy="92.963" rx="0.229" ry="0.172"/>
<ellipse transform="matrix(0.9983 0.0586 -0.0586 0.9983 5.6497 -6.8805)" fill="#262628" cx="120.166" cy="92.912" rx="0.229" ry="0.172"/>
<ellipse transform="matrix(0.9983 0.0586 -0.0586 0.9983 5.6489 -6.9243)" fill="#262628" cx="120.913" cy="92.875" rx="0.229" ry="0.172"/>
<ellipse transform="matrix(0.9983 0.0586 -0.0586 0.9983 5.6445 -6.968)" fill="#262628" cx="121.657" cy="92.779" rx="0.229" ry="0.172"/>
<ellipse transform="matrix(0.9983 0.0586 -0.0586 0.9983 5.6479 -7.0063)" fill="#262628" cx="122.312" cy="92.817" rx="0.229" ry="0.172"/>
<ellipse transform="matrix(0.9983 0.0586 -0.0586 0.9983 5.6544 -7.0361)" fill="#262628" cx="122.822" cy="92.914" rx="0.229" ry="0.172"/>
<ellipse transform="matrix(0.9983 0.0586 -0.0586 0.9983 5.6989 -7.0288)" fill="#262628" cx="122.72" cy="93.677" rx="0.229" ry="0.172"/>
<ellipse transform="matrix(0.9983 0.0586 -0.0586 0.9983 5.6924 -6.9962)" fill="#262628" cx="122.16" cy="93.582" rx="0.229" ry="0.172"/>
<ellipse transform="matrix(0.9983 0.0586 -0.0586 0.9983 5.689 -6.9572)" fill="#262628" cx="121.494" cy="93.543" rx="0.229" ry="0.172"/>
<ellipse transform="matrix(0.9983 0.0586 -0.0586 0.9983 5.693 -6.912)" fill="#262628" cx="120.725" cy="93.634" rx="0.229" ry="0.172"/>
<ellipse transform="matrix(0.9983 0.0586 -0.0586 0.9983 5.6949 -6.8682)" fill="#262628" cx="119.98" cy="93.688" rx="0.229" ry="0.172"/>
<ellipse transform="matrix(0.9983 0.0586 -0.0586 0.9983 5.699 -6.8192)" fill="#262628" cx="119.145" cy="93.783" rx="0.229" ry="0.172"/>
<ellipse transform="matrix(0.9983 0.0586 -0.0586 0.9983 5.7116 -6.7656)" fill="#262628" cx="118.238" cy="94.025" rx="0.229" ry="0.172"/>
<ellipse transform="matrix(0.9983 0.0586 -0.0586 0.9983 5.7222 -6.7071)" fill="#262628" cx="117.246" cy="94.234" rx="0.229" ry="0.172"/>
<ellipse transform="matrix(0.9983 0.0586 -0.0586 0.9983 5.7342 -6.6562)" fill="#262628" cx="116.383" cy="94.464" rx="0.229" ry="0.172"/>
<ellipse transform="matrix(0.9983 0.0586 -0.0586 0.9983 5.7517 -6.606)" fill="#262628" cx="115.536" cy="94.787" rx="0.229" ry="0.172"/>
<ellipse transform="matrix(0.9983 0.0586 -0.0586 0.9983 5.7678 -6.5597)" fill="#262628" cx="114.754" cy="95.085" rx="0.229" ry="0.172"/>
<ellipse transform="matrix(0.9983 0.0586 -0.0586 0.9983 5.7919 -6.5102)" fill="#262628" cx="113.922" cy="95.521" rx="0.229" ry="0.172"/>
<ellipse transform="matrix(0.9983 0.0586 -0.0586 0.9983 5.8086 -6.4707)" fill="#262628" cx="113.257" cy="95.826" rx="0.229" ry="0.172"/>
<ellipse transform="matrix(0.9983 0.0586 -0.0586 0.9983 5.8423 -6.5041)" fill="#262628" cx="113.844" cy="96.384" rx="0.229" ry="0.172"/>
<ellipse transform="matrix(0.9983 0.0586 -0.0586 0.9983 5.8253 -6.5456)" fill="#262628" cx="114.543" cy="96.073" rx="0.229" ry="0.172"/>
<ellipse transform="matrix(0.9983 0.0586 -0.0586 0.9983 5.8013 -6.5935)" fill="#262628" cx="115.347" cy="95.64" rx="0.229" ry="0.172"/>
<ellipse transform="matrix(0.9983 0.0586 -0.0586 0.9983 5.7854 -6.645)" fill="#262628" cx="116.218" cy="95.343" rx="0.229" ry="0.172"/>
<ellipse transform="matrix(0.9983 0.0586 -0.0586 0.9983 5.7697 -6.696)" fill="#262628" cx="117.079" cy="95.05" rx="0.229" ry="0.172"/>
<ellipse transform="matrix(0.9983 0.0586 -0.0586 0.9983 5.7526 -6.7504)" fill="#262628" cx="118" cy="94.731" rx="0.229" ry="0.172"/>
<ellipse transform="matrix(0.9983 0.0586 -0.0586 0.9983 5.7473 -6.8048)" fill="#262628" cx="118.924" cy="94.613" rx="0.229" ry="0.172"/>
<ellipse transform="matrix(0.9983 0.0586 -0.0586 0.9983 5.7415 -6.8538)" fill="#262628" cx="119.757" cy="94.49" rx="0.229" ry="0.172"/>
<ellipse transform="matrix(0.9983 0.0586 -0.0586 0.9983 5.7383 -6.9015)" fill="#262628" cx="120.568" cy="94.412" rx="0.229" ry="0.172"/>
<ellipse transform="matrix(0.9983 0.0586 -0.0586 0.9983 5.7376 -6.9463)" fill="#262628" cx="121.333" cy="94.377" rx="0.229" ry="0.172"/>
<ellipse transform="matrix(0.9983 0.0586 -0.0586 0.9983 5.7405 -6.9865)" fill="#262628" cx="122.02" cy="94.406" rx="0.229" ry="0.172"/>
<ellipse transform="matrix(0.9983 0.0586 -0.0586 0.9983 5.7389 -7.022)" fill="#262628" cx="122.623" cy="94.361" rx="0.229" ry="0.172"/>
<ellipse transform="matrix(0.9983 0.0586 -0.0586 0.9983 5.7467 -7.057)" fill="#262628" cx="123.225" cy="94.476" rx="0.202" ry="0.172"/>
<ellipse transform="matrix(0.9983 0.0586 -0.0586 0.9983 5.7528 -7.0821)" fill="#262628" cx="123.657" cy="94.569" rx="0.111" ry="0.128"/>
<ellipse transform="matrix(0.9983 0.0586 -0.0586 0.9983 5.7102 -7.0827)" fill="#262628" cx="123.645" cy="93.841" rx="0.149" ry="0.172"/>
<ellipse transform="matrix(0.9983 0.0586 -0.0586 0.9983 5.7015 -7.0579)" fill="#262628" cx="123.219" cy="93.706" rx="0.149" ry="0.172"/>
<ellipse transform="matrix(0.9983 0.0586 -0.0586 0.9983 5.6584 -7.0617)" fill="#262628" cx="123.262" cy="92.968" rx="0.149" ry="0.172"/>
<ellipse transform="matrix(0.9983 0.0586 -0.0586 0.9983 5.6677 -7.084)" fill="#262628" cx="123.646" cy="93.116" rx="0.149" ry="0.172"/>
<ellipse transform="matrix(0.9983 0.0586 -0.0586 0.9983 5.6193 -7.0652)" fill="#262628" cx="123.301" cy="92.3" rx="0.149" ry="0.172"/>
<ellipse transform="matrix(0.9983 0.0586 -0.0586 0.9983 5.6126 -7.0417)" fill="#262628" cx="122.898" cy="92.197" rx="0.149" ry="0.172"/>
<ellipse transform="matrix(0.9983 0.0586 -0.0586 0.9983 5.6046 -7.0127)" fill="#262628" cx="122.398" cy="92.075" rx="0.149" ry="0.172"/>
<ellipse transform="matrix(0.9983 0.0586 -0.0586 0.9983 5.6012 -6.9744)" fill="#262628" cx="121.743" cy="92.037" rx="0.149" ry="0.172"/>
<ellipse transform="matrix(0.9983 0.0586 -0.0586 0.9983 5.5564 -6.9871)" fill="#262628" cx="121.937" cy="91.267" rx="0.149" ry="0.172"/>
<ellipse transform="matrix(0.9983 0.0586 -0.0586 0.9983 5.5614 -7.0192)" fill="#262628" cx="122.488" cy="91.336" rx="0.149" ry="0.172"/>
<ellipse transform="matrix(0.9983 0.0586 -0.0586 0.9983 5.5691 -7.0456)" fill="#262628" cx="122.941" cy="91.454" rx="0.149" ry="0.172"/>
<ellipse transform="matrix(0.9983 0.0586 -0.0586 0.9983 5.5317 -7.0489)" fill="#262628" cx="122.979" cy="90.815" rx="0.149" ry="0.172"/>
<ellipse transform="matrix(0.9983 0.0586 -0.0586 0.9983 5.5231 -7.0241)" fill="#262628" cx="122.552" cy="90.68" rx="0.149" ry="0.172"/>
<ellipse transform="matrix(0.9983 0.0586 -0.0586 0.9983 5.5148 -6.9958)" fill="#262628" cx="122.066" cy="90.552" rx="0.149" ry="0.172"/>
<ellipse transform="matrix(0.9983 0.0586 -0.0586 0.9983 5.4726 -7.0014)" fill="#262628" cx="122.14" cy="89.831" rx="0.149" ry="0.172"/>
<ellipse transform="matrix(0.9983 0.0586 -0.0586 0.9983 5.4827 -7.0277)" fill="#262628" cx="122.593" cy="89.989" rx="0.149" ry="0.172"/>
<ellipse transform="matrix(0.9983 0.0586 -0.0586 0.9983 5.4673 -6.9676)" fill="#262628" cx="121.56" cy="89.756" rx="0.149" ry="0.172"/>
<ellipse transform="matrix(0.9983 0.0586 -0.0586 0.9983 5.4229 -6.972)" fill="#262628" cx="121.614" cy="88.997" rx="0.149" ry="0.172"/>
<ellipse transform="matrix(0.9983 0.0586 -0.0586 0.9983 5.3849 -6.9829)" fill="#262628" cx="121.781" cy="88.344" rx="0.149" ry="0.172"/>
<ellipse transform="matrix(0.9983 0.0586 -0.0586 0.9983 5.3939 -7.0083)" fill="#262628" cx="122.219" cy="88.484" rx="0.149" ry="0.172"/>
<ellipse transform="matrix(0.9983 0.0586 -0.0586 0.9983 5.3458 -6.9811)" fill="#262628" cx="121.73" cy="87.679" rx="0.149" ry="0.172"/>
<ellipse transform="matrix(0.9983 0.0586 -0.0586 0.9983 5.3358 -6.9486)" fill="#262628" cx="121.17" cy="87.524" rx="0.149" ry="0.172"/>
<ellipse transform="matrix(0.9983 0.0586 -0.0586 0.9983 5.3014 -6.9465)" fill="#262628" cx="121.118" cy="86.938" rx="0.149" ry="0.172"/>
<ellipse transform="matrix(0.9983 0.0586 -0.0586 0.9983 5.2882 -6.9106)" fill="#262628" cx="120.499" cy="86.73" rx="0.149" ry="0.172"/>
<ellipse transform="matrix(0.9983 0.0586 -0.0586 0.9983 5.2869 -6.8734)" fill="#262628" cx="119.864" cy="86.728" rx="0.149" ry="0.172"/>
<ellipse transform="matrix(0.9983 0.0586 -0.0586 0.9983 5.2565 -6.9084)" fill="#262628" cx="120.445" cy="86.192" rx="0.149" ry="0.172"/>
<ellipse transform="matrix(0.9983 0.0586 -0.0586 0.9983 5.2871 -6.8291)" fill="#262628" cx="119.109" cy="86.752" rx="0.149" ry="0.172"/>
<ellipse transform="matrix(0.9983 0.0586 -0.0586 0.9983 5.876 -6.5342)" fill="#262628" cx="114.374" cy="96.944" rx="0.229" ry="0.172"/>
<ellipse transform="matrix(0.9983 0.0586 -0.0586 0.9983 5.8564 -6.5788)" fill="#262628" cx="115.125" cy="96.586" rx="0.229" ry="0.172"/>
<ellipse transform="matrix(0.9983 0.0586 -0.0586 0.9983 5.8425 -6.6265)" fill="#262628" cx="115.931" cy="96.327" rx="0.229" ry="0.172"/>
<ellipse transform="matrix(0.9983 0.0586 -0.0586 0.9983 5.8266 -6.675)" fill="#262628" cx="116.75" cy="96.031" rx="0.229" ry="0.172"/>
<ellipse transform="matrix(0.9983 0.0586 -0.0586 0.9983 5.8066 -6.7303)" fill="#262628" cx="117.683" cy="95.662" rx="0.229" ry="0.172"/>
<ellipse transform="matrix(0.9983 0.0586 -0.0586 0.9983 5.7979 -6.7869)" fill="#262628" cx="118.644" cy="95.486" rx="0.229" ry="0.172"/>
<ellipse transform="matrix(0.9983 0.0586 -0.0586 0.9983 5.7895 -6.8361)" fill="#262628" cx="119.479" cy="95.317" rx="0.229" ry="0.172"/>
<ellipse transform="matrix(0.9983 0.0586 -0.0586 0.9983 5.7863 -6.8838)" fill="#262628" cx="120.291" cy="95.238" rx="0.229" ry="0.172"/>
<ellipse transform="matrix(0.9983 0.0586 -0.0586 0.9983 5.7834 -6.9354)" fill="#262628" cx="121.17" cy="95.164" rx="0.229" ry="0.172"/>
<ellipse transform="matrix(0.9983 0.0586 -0.0586 0.9983 5.7826 -6.9759)" fill="#262628" cx="121.86" cy="95.13" rx="0.229" ry="0.172"/>
<ellipse transform="matrix(0.9983 0.0586 -0.0586 0.9983 5.7859 -7.0137)" fill="#262628" cx="122.507" cy="95.168" rx="0.229" ry="0.172"/>
<ellipse transform="matrix(0.9983 0.0586 -0.0586 0.9983 5.7735 -7.0494)" fill="#262628" cx="123.11" cy="94.939" rx="0.206" ry="0.172"/>
<ellipse transform="matrix(0.9983 0.0586 -0.0586 0.9983 5.8187 -6.968)" fill="#262628" cx="121.744" cy="95.75" rx="0.229" ry="0.172"/>
<ellipse transform="matrix(0.9983 0.0586 -0.0586 0.9983 5.8321 -6.921)" fill="#262628" cx="120.949" cy="96.001" rx="0.229" ry="0.172"/>
<ellipse transform="matrix(0.9983 0.0586 -0.0586 0.9983 5.8259 -6.8718)" fill="#262628" cx="120.106" cy="95.92" rx="0.229" ry="0.172"/>
<ellipse transform="matrix(0.9983 0.0586 -0.0586 0.9983 5.8381 -6.8237)" fill="#262628" cx="119.292" cy="96.153" rx="0.229" ry="0.172"/>
<ellipse transform="matrix(0.9983 0.0586 -0.0586 0.9983 5.8437 -6.7728)" fill="#262628" cx="118.427" cy="96.274" rx="0.229" ry="0.172"/>
<ellipse transform="matrix(0.9983 0.0586 -0.0586 0.9983 5.8609 -6.7143)" fill="#262628" cx="117.437" cy="96.595" rx="0.229" ry="0.172"/>
<ellipse transform="matrix(0.9983 0.0586 -0.0586 0.9983 5.8742 -6.666)" fill="#262628" cx="116.621" cy="96.846" rx="0.229" ry="0.172"/>
<ellipse transform="matrix(0.9983 0.0586 -0.0586 0.9983 5.8934 -6.6165)" fill="#262628" cx="115.786" cy="97.199" rx="0.229" ry="0.172"/>
<ellipse transform="matrix(0.9983 0.0586 -0.0586 0.9983 5.9107 -6.6987)" fill="#262628" cx="117.197" cy="97.453" rx="0.229" ry="0.172"/>
<ellipse transform="matrix(0.9983 0.0586 -0.0586 0.9983 5.8889 -6.7419)" fill="#262628" cx="117.922" cy="97.059" rx="0.229" ry="0.172"/>
<ellipse transform="matrix(0.9983 0.0586 -0.0586 0.9983 5.8738 -6.7973)" fill="#262628" cx="118.86" cy="96.774" rx="0.229" ry="0.172"/>
<ellipse transform="matrix(0.9983 0.0586 -0.0586 0.9983 5.8544 -6.8878)" fill="#262628" cx="120.394" cy="96.398" rx="0.229" ry="0.172"/>
<ellipse transform="matrix(0.9983 0.0586 -0.0586 0.9983 5.8569 -6.4079)" fill="#262628" cx="112.211" cy="96.681" rx="0.102" ry="0.133"/>
<ellipse transform="matrix(0.9983 0.0586 -0.0586 0.9983 5.886 -6.4348)" fill="#262628" cx="112.684" cy="97.164" rx="0.102" ry="0.133"/>
<ellipse transform="matrix(0.9983 0.0586 -0.0586 0.9983 5.8255 -6.3884)" fill="#262628" cx="111.862" cy="96.154" rx="0.102" ry="0.133"/>
<ellipse transform="matrix(0.9983 0.0586 -0.0586 0.9983 5.913 -6.4598)" fill="#262628" cx="113.123" cy="97.611" rx="0.102" ry="0.133"/>
<ellipse transform="matrix(0.9983 0.0586 -0.0586 0.9983 5.7876 -6.3649)" fill="#262628" cx="111.442" cy="95.52" rx="0.102" ry="0.133"/>
<ellipse transform="matrix(0.9983 0.0586 -0.0586 0.9983 5.7247 -6.3403)" fill="#262628" cx="110.991" cy="94.46" rx="0.102" ry="0.133"/>
<ellipse transform="matrix(0.9983 0.0586 -0.0586 0.9983 5.6943 -6.3182)" fill="#262628" cx="110.6" cy="93.953" rx="0.102" ry="0.133"/>
<ellipse transform="matrix(0.9983 0.0586 -0.0586 0.9983 5.6928 -6.3477)" fill="#262628" cx="111.101" cy="93.912" rx="0.102" ry="0.133"/>
<ellipse transform="matrix(0.9983 0.0586 -0.0586 0.9983 5.6544 -6.3106)" fill="#262628" cx="110.45" cy="93.276" rx="0.102" ry="0.133"/>
<ellipse transform="matrix(0.9983 0.0586 -0.0586 0.9983 5.6508 -6.3408)" fill="#262628" cx="110.963" cy="93.2" rx="0.102" ry="0.133"/>
<ellipse transform="matrix(0.9983 0.0586 -0.0586 0.9983 5.6183 -6.293)" fill="#262628" cx="110.132" cy="92.669" rx="0.102" ry="0.133"/>
<ellipse transform="matrix(0.9983 0.0586 -0.0586 0.9983 5.5981 -6.3156)" fill="#262628" cx="110.506" cy="92.314" rx="0.102" ry="0.133"/>
<ellipse transform="matrix(0.9983 0.0586 -0.0586 0.9983 5.5584 -6.3103)" fill="#262628" cx="110.396" cy="91.639" rx="0.102" ry="0.133"/>
<ellipse transform="matrix(0.9983 0.0586 -0.0586 0.9983 5.582 -6.2867)" fill="#262628" cx="110.006" cy="92.054" rx="0.102" ry="0.133"/>
<ellipse transform="matrix(0.9983 0.0586 -0.0586 0.9983 5.5197 -6.3108)" fill="#262628" cx="110.385" cy="90.978" rx="0.102" ry="0.133"/>
<ellipse transform="matrix(0.9983 0.0586 -0.0586 0.9983 5.5444 -6.2815)" fill="#262628" cx="109.898" cy="91.416" rx="0.102" ry="0.133"/>
<ellipse transform="matrix(0.9983 0.0586 -0.0586 0.9983 5.5082 -6.2836)" fill="#262628" cx="109.915" cy="90.796" rx="0.102" ry="0.133"/>
<ellipse transform="matrix(0.9983 0.0586 -0.0586 0.9983 5.4655 -6.2895)" fill="#262628" cx="109.995" cy="90.065" rx="0.102" ry="0.133"/>
<ellipse transform="matrix(0.9983 0.0586 -0.0586 0.9983 5.7716 -6.4391)" fill="#262628" cx="112.7" cy="95.21" rx="0.229" ry="0.172"/>
<ellipse transform="matrix(0.9983 0.0586 -0.0586 0.9983 5.8555 -6.4577)" fill="#262628" cx="113.059" cy="96.632" rx="0.229" ry="0.172"/>
<ellipse transform="matrix(0.9983 0.0586 -0.0586 0.9983 5.8226 -6.4273)" fill="#262628" cx="112.524" cy="96.086" rx="0.229" ry="0.172"/>
<ellipse transform="matrix(0.9983 0.0586 -0.0586 0.9983 5.6838 -6.419)" fill="#262628" cx="112.313" cy="93.723" rx="0.229" ry="0.172"/>
<ellipse transform="matrix(0.9983 0.0586 -0.0586 0.9983 5.65 -6.381)" fill="#262628" cx="111.647" cy="93.166" rx="0.229" ry="0.172"/>
<ellipse transform="matrix(0.9983 0.0586 -0.0586 0.9983 5.6035 -6.3965)" fill="#262628" cx="111.89" cy="92.366" rx="0.229" ry="0.172"/>
<ellipse transform="matrix(0.9983 0.0586 -0.0586 0.9983 5.5531 -6.4029)" fill="#262628" cx="111.973" cy="91.502" rx="0.229" ry="0.172"/>
<ellipse transform="matrix(0.9983 0.0586 -0.0586 0.9983 5.5055 -6.4048)" fill="#262628" cx="111.982" cy="90.69" rx="0.229" ry="0.172"/>
<ellipse transform="matrix(0.9983 0.0586 -0.0586 0.9983 5.4872 -6.358)" fill="#262628" cx="111.174" cy="90.402" rx="0.229" ry="0.172"/>
<ellipse transform="matrix(0.9983 0.0586 -0.0586 0.9983 5.4358 -6.3949)" fill="#262628" cx="111.779" cy="89.507" rx="0.165" ry="0.124"/>
<ellipse transform="matrix(0.9983 0.0586 -0.0586 0.9983 5.4005 -6.4703)" fill="#262628" cx="113.046" cy="88.866" rx="0.165" ry="0.124"/>
<ellipse transform="matrix(0.9983 0.0586 -0.0586 0.9983 5.3776 -6.4349)" fill="#262628" cx="112.432" cy="88.493" rx="0.165" ry="0.124"/>
<ellipse transform="matrix(0.9983 0.0586 -0.0586 0.9983 5.2549 -6.5412)" fill="#262628" cx="114.182" cy="86.348" rx="0.165" ry="0.124"/>
<ellipse transform="matrix(0.9983 0.0586 -0.0586 0.9983 5.4294 -6.2988)" fill="#262628" cx="110.136" cy="89.445" rx="0.102" ry="0.133"/>
<ellipse transform="matrix(0.9983 0.0586 -0.0586 0.9983 5.1903 -6.498)" fill="#262628" cx="113.414" cy="85.268" rx="0.121" ry="0.091"/>
<ellipse transform="matrix(0.9983 0.0586 -0.0586 0.9983 5.2595 -6.4225)" fill="#262628" cx="112.16" cy="86.486" rx="0.121" ry="0.091"/>
<ellipse transform="matrix(0.9983 0.0586 -0.0586 0.9983 5.3883 -6.3075)" fill="#262628" cx="110.264" cy="88.74" rx="0.121" ry="0.091"/>
<path fill="#212123" d="M122.681,88.578c0.097-0.047,0.247,0.216,0.303,0.309c0.094,0.156,0.304,0.534,0.218,0.694
	c-0.166,0.308-12.12,5.828-12.12,5.828s-0.331-0.361-0.392-0.528c-0.044-0.119-0.064-0.387-0.064-0.387l6.265-3.134
	C116.891,91.36,122.442,88.693,122.681,88.578z"/>
<ellipse transform="matrix(0.9983 0.0586 -0.0586 0.9983 5.5982 -6.3471)" fill="#262628" cx="111.044" cy="92.3" rx="0.229" ry="0.172"/>
<ellipse transform="matrix(0.9983 0.0586 -0.0586 0.9983 5.5421 -6.3475)" fill="#262628" cx="111.023" cy="91.343" rx="0.229" ry="0.172"/>
<ellipse transform="matrix(0.9983 0.0586 -0.0586 0.9983 5.4739 -6.318)" fill="#262628" cx="110.485" cy="90.194" rx="0.165" ry="0.124"/>
<ellipse transform="matrix(0.9983 0.0586 -0.0586 0.9983 5.4348 -6.3309)" fill="#262628" cx="110.687" cy="89.521" rx="0.165" ry="0.124"/>
<ellipse transform="matrix(0.9983 0.0586 -0.0586 0.9983 5.3965 -6.3387)" fill="#262628" cx="110.8" cy="88.864" rx="0.165" ry="0.124"/>
<ellipse transform="matrix(0.9983 0.0586 -0.0586 0.9983 5.4449 -6.3619)" fill="#262628" cx="111.221" cy="89.677" rx="0.165" ry="0.124"/>
<ellipse transform="matrix(0.9983 0.0586 -0.0586 0.9983 5.3627 -6.3608)" fill="#262628" cx="111.161" cy="88.277" rx="0.165" ry="0.124"/>
<ellipse transform="matrix(0.9983 0.0586 -0.0586 0.9983 5.3273 -6.3705)" fill="#262628" cx="111.307" cy="87.667" rx="0.165" ry="0.124"/>
<ellipse transform="matrix(0.9983 0.0586 -0.0586 0.9983 5.2846 -6.3857)" fill="#262628" cx="111.545" cy="86.931" rx="0.165" ry="0.124"/>
<ellipse transform="matrix(0.9983 0.0586 -0.0586 0.9983 5.2322 -6.4296)" fill="#262628" cx="112.267" cy="86.016" rx="0.097" ry="0.079"/>
<ellipse transform="matrix(0.9983 0.0586 -0.0586 0.9983 5.2514 -6.4041)" fill="#262628" cx="111.843" cy="86.356" rx="0.097" ry="0.079"/>
<ellipse transform="matrix(0.9983 0.0586 -0.0586 0.9983 5.3149 -6.3431)" fill="#262628" cx="110.834" cy="87.47" rx="0.097" ry="0.079"/>
<ellipse transform="matrix(0.9983 0.0586 -0.0586 0.9983 5.3507 -6.3238)" fill="#262628" cx="110.523" cy="88.09" rx="0.097" ry="0.079"/>
<ellipse transform="matrix(-0.0593 0.9982 -0.9982 -0.0593 213.8546 -10.7689)" fill="#262628" cx="112.002" cy="95.383" rx="0.15" ry="0.196"/>
<ellipse transform="matrix(0.9983 0.0586 -0.0586 0.9983 5.8878 -6.4903)" fill="#262628" cx="113.632" cy="97.167" rx="0.229" ry="0.172"/>
<ellipse transform="matrix(0.9983 0.0586 -0.0586 0.9983 5.9082 -6.5703)" fill="#262628" cx="115.005" cy="97.475" rx="0.229" ry="0.172"/>
<ellipse transform="matrix(0.9983 0.0586 -0.0586 0.9983 5.9191 -6.526)" fill="#262628" cx="114.256" cy="97.682" rx="0.229" ry="0.172"/>
<ellipse transform="matrix(0.9983 0.0586 -0.0586 0.9983 5.9485 -6.5569)" fill="#262628" cx="114.796" cy="98.168" rx="0.229" ry="0.172"/>
<ellipse transform="matrix(0.9983 0.0586 -0.0586 0.9983 5.9792 -6.5907)" fill="#262628" cx="115.389" cy="98.675" rx="0.229" ry="0.172"/>
<ellipse transform="matrix(0.9983 0.0586 -0.0586 0.9983 5.9228 -6.6517)" fill="#262628" cx="116.401" cy="97.683" rx="0.229" ry="0.172"/>
<ellipse transform="matrix(0.9983 0.0586 -0.0586 0.9983 5.9393 -6.6074)" fill="#262628" cx="115.654" cy="97.986" rx="0.229" ry="0.172"/>
<ellipse transform="matrix(0.9983 0.0586 -0.0586 0.9983 5.9384 -6.49)" fill="#262628" cx="113.652" cy="98.03" rx="0.102" ry="0.133"/>
<ellipse transform="matrix(0.9983 0.0586 -0.0586 0.9983 5.9605 -6.6346)" fill="#262628" cx="116.128" cy="98.335" rx="0.229" ry="0.172"/>
<ellipse transform="matrix(0.9983 0.0586 -0.0586 0.9983 5.9429 -6.6816)" fill="#262628" cx="116.922" cy="98.01" rx="0.229" ry="0.172"/>
<ellipse transform="matrix(0.9983 0.0586 -0.0586 0.9983 5.9226 -6.7357)" fill="#262628" cx="117.833" cy="97.638" rx="0.229" ry="0.172"/>
<ellipse transform="matrix(0.9983 0.0586 -0.0586 0.9983 5.9047 -6.7782)" fill="#262628" cx="118.549" cy="97.311" rx="0.229" ry="0.172"/>
<ellipse transform="matrix(0.9983 0.0586 -0.0586 0.9983 5.8751 -6.8419)" fill="#262628" cx="119.622" cy="96.774" rx="0.229" ry="0.172"/>
<ellipse transform="matrix(0.9983 0.0586 -0.0586 0.9983 5.9892 -6.5621)" fill="#262628" cx="114.906" cy="98.861" rx="0.102" ry="0.133"/>
<ellipse transform="matrix(0.9983 0.0586 -0.0586 0.9983 5.9636 -6.5228)" fill="#262628" cx="114.224" cy="98.443" rx="0.102" ry="0.133"/>
<path fill="#171814" d="M122.32,112.2c0,0-0.201-0.27,0.117-0.263c0.514,0.011,1.935-0.076,3.803-1.326
	c1.89-1.264,2.473-3.148,2.617-3.765c0.063-0.268,0.236-0.066,0.236-0.066l2.706,6.473c0,0,0.055,0.209,0,0.392
	c-0.134,0.45-0.634,1.559-2.394,2.754c-1.443,0.98-2.841,1.456-3.313,1.578c-0.118,0.03-0.314-0.061-0.314-0.061L122.32,112.2z"/>
<path fill="#2E3181" d="M48.787,82.282c-0.091,1.401-1.043,4.411-1.697,5.654c-1.592,3.025,1.308,12.609,3.988,16.504
	c3.518,5.114,11.674,14.962,17.072,18.028c10.066,5.717,14.324,6.872,18.818,7.588c4.042,0.644,11.82,1.379,15.52-0.371
	c2.681-1.268,9.108-5.055,11.059-7.289c0.733-0.84,2.953-2.325,5.042-2.451c0.227-0.014,0.495-1.938,1.019-2.004
	c0.578-0.073,1.752-0.294,2.258-0.583c0.894-0.511,2.519-1.962,2.914-2.914c0.495-1.194,2.262-2.444,2.262-2.444
	s2.825-1.206,3.293-2.139c0.198-0.395,0.531-0.91,0.485-1.35c-0.033-0.314,0.004-1.093-0.398-1.394
	c-0.286-0.214-1.355-0.449-1.355-0.449s1.602-0.421,1.017-2.157c-0.138-0.409-1.532-0.787-1.532-0.787s0.676,0.002,0.985-0.424
	c0.41-0.567,0.283-1.552-0.489-2.111c-0.182-0.131-0.891-0.213-0.891-0.213s0.656-0.352,0.748-0.568
	c0.111-0.262-0.052-0.859-0.138-1.13c-0.089-0.283-0.735-0.943-1.497-1.12c-0.871-0.202-2.154-0.297-2.677-0.145
	c-0.966,0.28-3.787,0.962-4.606,1.546c-1.986,1.415-2.454,3.397-2.531,3.212c-0.206-0.494-0.433-3.126-0.655-3.613
	c-0.278-0.61-1.228-1.734-1.873-1.916c-0.475-0.135-1.662,0.056-1.916,0.479c-0.208,0.346,0.213,1.205,0.392,1.568
	c0.209,0.424,1.038,1.029,1.176,1.481c0.159,0.522-0.034,1.65-0.174,2.178c-0.269,1.012-0.303,2.807-0.198,4.107
	c0.096,1.191,1.611,1.57,1.632,2.764c0.012,0.681-0.818,3.514-1.132,3.88c-0.23,0.267-0.442,0.976-0.685,1.232
	c-2.301,2.431-8.02,6.63-11.329,7.133c-10.966,1.669-24.002-3.167-28.583-5.664c-4.043-2.204-10.254-8.836-13.299-12.29
	c-5.224-5.926-6.954-12.112-4.266-13.83c1.644-1.051,2.319-1.887,2.957-3.731c0.642-1.852-0.279-5.401-1.642-6.809
	c-1.3-1.343-5.358-2.821-7.133-2.238C49.306,77.967,48.942,79.895,48.787,82.282z"/>
<polygon opacity="0.1" fill="url(#New_Pattern_2)" points="73.048,7.48 35.663,18.846 56.592,29.622 98.496,17.848 "/>
<polygon opacity="0.1" fill="url(#New_Pattern_2)" points="35.663,18.846 41.186,85.834 55.974,206.621 81.094,214.11 61.14,87.461 
	56.592,29.503 "/>
<polygon opacity="0.1" fill="url(#New_Pattern_2)" points="98.496,17.848 56.592,29.622 61.14,87.461 81.149,214.11 
	123.025,201.226 105.364,80.881 "/>
<polygon opacity="0.1" fill="url(#New_Pattern_2)" points="92.818,29.622 65.86,36.588 70.072,86.056 87.249,203.578 
	115.812,194.79 97.932,80.902 "/>
<path opacity="0.1" fill="url(#New_Pattern_2)" d="M105.262,83.846c3.475,1.604,10.519,4.431,13.109,6.038
	c5.093,3.158,17.421,11.027,20.982,13.088c1.511,0.874,5.337,1.806,6.905,1.039c1.225-0.598,2.328-3.433,2.673-4.752
	c0.536-2.047,0.452-6.397,0-8.464c-0.542-2.475-3.238-6.877-4.232-9.207c-0.298-0.697-1.176-2.066-1.114-2.821
	c0.071-0.863,1.381-2.202,1.782-2.97c0.273-0.523,0.758-1.601,0.965-2.153c0.089-0.238,0.302-0.719,0.297-0.974
	c-0.008-0.391-0.63-1.101-0.52-1.477c0.06-0.203,0.553-0.342,0.668-0.52c0.167-0.257,0.379-0.893,0.297-1.188
	c-0.091-0.329-1.008-0.627-0.965-0.965c0.046-0.363,1.08-0.425,1.262-0.742c0.286-0.499-0.013-1.726,0-2.302
	c0.019-0.799,0.514-2.482,0.148-3.193c-0.172-0.334-0.888-0.778-1.262-0.817c-0.257-0.027-0.819,0.158-0.965,0.371
	c-0.284,0.413,0.13,1.521,0,2.005c-0.106,0.394-0.412,1.458-0.817,1.411c-0.192-0.023-0.198-0.55-0.223-0.742
	c-0.061-0.479,0.19-1.462,0.074-1.93c-0.134-0.541-0.608-1.697-1.114-1.93c-0.463-0.213-1.717-0.05-2.005,0.371
	c-0.277,0.406,0.456,1.446,0.371,1.93c-0.138,0.787-1.226,2.06-1.633,2.747c-0.484,0.816-1.442,2.454-1.93,3.267
	c-0.202,0.336-0.448,1.467-0.817,1.336c-0.53-0.188,0.359-1.669,0.297-2.227c-0.147-1.337-0.71-4.345-1.856-5.049
	c-0.542-0.333-2.032-0.104-2.524,0.297c-0.501,0.408-0.934,1.815-0.817,2.45c0.095,0.519,1.089,1.168,1.336,1.633
	c0.273,0.513,0.633,1.647,0.668,2.227c0.047,0.769-0.516,2.266-0.52,3.036c-0.003,0.585,0.158,1.766,0.371,2.31
	c0.244,0.623,1.044,1.724,1.485,2.227c0.407,0.465,1.545,1.099,1.856,1.633c0.229,0.393,0.065,1.446,0.371,1.782
	c0.17,0.187,0.814,0.095,0.965,0.297c0.691,0.92,1.245,3.415,1.192,4.565c-0.071,1.559,1.779,8.007,0.235,8.233
	c-0.569,0.083-11.894-6.26-13.636-7.527c-2.515-1.829-12.043-7.473-13.839-8.676c-2.466-1.651-5.041-8.395-8.464-7.495
	C102.035,70.62,103.912,83.223,105.262,83.846z"/>
<path fill="#2E3181" d="M48.787,82.303c-0.091,1.401-1.043,4.411-1.697,5.654c-1.592,3.025,1.308,12.609,3.988,16.504
	c3.518,5.114,11.674,14.962,17.072,18.028c10.066,5.717,14.324,6.872,18.818,7.588c4.042,0.644,11.82,1.379,15.52-0.371
	c2.681-1.268,9.108-5.055,11.059-7.289c0.733-0.84,2.953-2.325,5.042-2.451c0.227-0.014,0.495-1.938,1.019-2.004
	c0.578-0.073,1.752-0.294,2.258-0.583c0.894-0.511,2.519-1.962,2.914-2.914c0.495-1.194,2.262-2.444,2.262-2.444
	s2.825-1.206,3.293-2.139c0.198-0.395,0.531-0.91,0.485-1.35c-0.033-0.314,0.004-1.093-0.398-1.394
	c-0.286-0.214-1.355-0.449-1.355-0.449s1.602-0.421,1.017-2.157c-0.138-0.409-1.532-0.787-1.532-0.787s0.676,0.002,0.985-0.424
	c0.41-0.567,0.283-1.552-0.489-2.111c-0.182-0.131-0.891-0.213-0.891-0.213s0.656-0.352,0.748-0.568
	c0.111-0.262-0.052-0.859-0.138-1.13c-0.089-0.283-0.735-0.943-1.497-1.12c-0.871-0.202-2.154-0.297-2.677-0.145
	c-0.966,0.28-3.787,0.962-4.606,1.546c-1.986,1.415-2.454,3.397-2.531,3.212c-0.206-0.494-0.433-3.126-0.655-3.613
	c-0.278-0.61-1.228-1.734-1.873-1.916c-0.475-0.135-1.662,0.056-1.916,0.479c-0.208,0.346,0.213,1.205,0.392,1.568
	c0.209,0.424,1.038,1.029,1.176,1.481c0.159,0.522-0.034,1.65-0.174,2.178c-0.269,1.012-0.303,2.807-0.198,4.107
	c0.096,1.191,1.611,1.57,1.632,2.764c0.012,0.681-0.818,3.514-1.132,3.88c-0.23,0.267-0.442,0.976-0.685,1.232
	c-2.301,2.431-8.02,6.63-11.329,7.133c-10.966,1.669-24.002-3.167-28.583-5.664c-4.043-2.204-10.254-8.836-13.299-12.29
	c-5.224-5.926-6.954-12.112-4.266-13.83c1.644-1.051,2.319-1.887,2.957-3.731c0.642-1.852-0.279-5.401-1.642-6.809
	c-1.3-1.343-5.358-2.821-7.133-2.238C49.306,77.989,48.942,79.917,48.787,82.303z"/>
<path opacity="0.1" fill="url(#New_Pattern_2)" d="M48.787,82.303c-0.091,1.401-1.043,4.411-1.697,5.654
	c-1.592,3.025,1.308,12.609,3.988,16.504c3.518,5.114,11.674,14.962,17.072,18.028c10.066,5.717,14.324,6.872,18.818,7.588
	c4.042,0.644,11.82,1.379,15.52-0.371c2.681-1.268,9.108-5.055,11.059-7.289c0.733-0.84,2.953-2.325,5.042-2.451
	c0.227-0.014,0.495-1.938,1.019-2.004c0.578-0.073,1.752-0.294,2.258-0.583c0.894-0.511,2.519-1.962,2.914-2.914
	c0.495-1.194,2.262-2.444,2.262-2.444s2.825-1.206,3.293-2.139c0.198-0.395,0.531-0.91,0.485-1.35
	c-0.033-0.314,0.004-1.093-0.398-1.394c-0.286-0.214-1.355-0.449-1.355-0.449s1.602-0.421,1.017-2.157
	c-0.138-0.409-1.532-0.787-1.532-0.787s0.676,0.002,0.985-0.424c0.41-0.567,0.283-1.552-0.489-2.111
	c-0.182-0.131-0.891-0.213-0.891-0.213s0.656-0.352,0.748-0.568c0.111-0.262-0.052-0.859-0.138-1.13
	c-0.089-0.283-0.735-0.943-1.497-1.12c-0.871-0.202-2.154-0.297-2.677-0.145c-0.966,0.28-3.787,0.962-4.606,1.546
	c-1.986,1.415-2.454,3.397-2.531,3.212c-0.206-0.494-0.433-3.126-0.655-3.613c-0.278-0.61-1.228-1.734-1.873-1.916
	c-0.475-0.135-1.662,0.056-1.916,0.479c-0.208,0.346,0.213,1.205,0.392,1.568c0.209,0.424,1.038,1.029,1.176,1.481
	c0.159,0.522-0.034,1.65-0.174,2.178c-0.269,1.012-0.303,2.807-0.198,4.107c0.096,1.191,1.611,1.57,1.632,2.764
	c0.012,0.681-0.818,3.514-1.132,3.88c-0.23,0.267-0.442,0.976-0.685,1.232c-2.301,2.431-8.02,6.63-11.329,7.133
	c-10.966,1.669-24.002-3.167-28.583-5.664c-4.043-2.204-10.254-8.836-13.299-12.29c-5.224-5.926-6.954-12.112-4.266-13.83
	c1.644-1.051,2.319-1.887,2.957-3.731c0.642-1.852-0.279-5.401-1.642-6.809c-1.3-1.343-5.358-2.821-7.133-2.238
	C49.306,77.989,48.942,79.917,48.787,82.303z"/>
<radialGradient id="SVGID_7_" cx="3.3702" cy="17.8475" r="4.2777" gradientUnits="userSpaceOnUse">
	<stop  offset="0.1174" style="stop-color:#DEDBC0"/>
	<stop  offset="1" style="stop-color:#FFFFFF;stop-opacity:0"/>
</radialGradient>
<path fill="url(#SVGID_7_)" d="M4.538,16.423c-0.542-0.521-1.272-3.247-1.272-3.247s-0.559,2.81-1.073,3.307
	C1.735,16.925,0.634,17.343,0,17.56v0.327c0.653,0.247,1.802,0.733,2.259,1.252c0.546,0.621,1.253,3.379,1.253,3.379
	s0.624-2.804,1.159-3.453c0.537-0.652,2.544-1.578,2.544-1.578S5.144,17.006,4.538,16.423z"/>
<radialGradient id="SVGID_8_" cx="132.6575" cy="49.8719" r="4.2778" gradientUnits="userSpaceOnUse">
	<stop  offset="0.1174" style="stop-color:#DEDBC0"/>
	<stop  offset="1" style="stop-color:#FFFFFF;stop-opacity:0"/>
</radialGradient>
<path fill="url(#SVGID_8_)" d="M132.553,45.201c0,0-0.559,2.81-1.073,3.307c-0.658,0.635-2.667,1.231-2.667,1.231
	s2.082,0.684,2.734,1.424c0.546,0.621,1.253,3.38,1.253,3.38s0.624-2.804,1.159-3.453c0.537-0.652,2.544-1.578,2.544-1.578
	s-2.071-0.481-2.677-1.063C133.284,47.927,132.553,45.201,132.553,45.201z"/>
<radialGradient id="SVGID_9_" cx="120.9685" cy="22.5183" r="2.7254" gradientUnits="userSpaceOnUse">
	<stop  offset="0.1174" style="stop-color:#DEDBC0"/>
	<stop  offset="1" style="stop-color:#FFFFFF;stop-opacity:0"/>
</radialGradient>
<path fill="url(#SVGID_9_)" d="M120.902,19.543c0,0-0.356,1.79-0.684,2.107c-0.419,0.404-1.699,0.784-1.699,0.784
	s1.327,0.436,1.742,0.907c0.348,0.395,0.798,2.153,0.798,2.153s0.397-1.786,0.738-2.2c0.342-0.416,1.621-1.005,1.621-1.005
	s-1.319-0.306-1.706-0.677C121.367,21.28,120.902,19.543,120.902,19.543z"/>
<radialGradient id="SVGID_10_" cx="48.7284" cy="6.3935" r="4.2778" gradientUnits="userSpaceOnUse">
	<stop  offset="0.1174" style="stop-color:#DEDBC0"/>
	<stop  offset="1" style="stop-color:#FFFFFF;stop-opacity:0"/>
</radialGradient>
<path fill="url(#SVGID_10_)" d="M48.624,1.723c0,0-0.559,2.81-1.073,3.307c-0.658,0.635-2.667,1.231-2.667,1.231
	s2.082,0.684,2.734,1.424c0.546,0.621,1.253,3.38,1.253,3.38s0.624-2.804,1.159-3.453c0.537-0.652,2.544-1.578,2.544-1.578
	s-2.071-0.481-2.677-1.063C49.354,4.449,48.624,1.723,48.624,1.723z"/>
<radialGradient id="SVGID_11_" cx="11.0599" cy="53.2963" r="4.2778" gradientUnits="userSpaceOnUse">
	<stop  offset="0.1174" style="stop-color:#DEDBC0"/>
	<stop  offset="1" style="stop-color:#FFFFFF;stop-opacity:0"/>
</radialGradient>
<path fill="url(#SVGID_11_)" d="M10.956,48.625c0,0-0.559,2.81-1.073,3.307c-0.658,0.635-2.667,1.231-2.667,1.231
	s2.082,0.684,2.734,1.424c0.546,0.621,1.253,3.38,1.253,3.38s0.624-2.804,1.159-3.453c0.537-0.652,2.544-1.578,2.544-1.578
	s-2.071-0.481-2.677-1.063C11.686,51.352,10.956,48.625,10.956,48.625z"/>
<radialGradient id="SVGID_12_" cx="3.533" cy="83.8242" r="2.7254" gradientUnits="userSpaceOnUse">
	<stop  offset="0.1174" style="stop-color:#DEDBC0"/>
	<stop  offset="1" style="stop-color:#FFFFFF;stop-opacity:0"/>
</radialGradient>
<path fill="url(#SVGID_12_)" d="M3.466,80.848c0,0-0.356,1.79-0.684,2.107c-0.419,0.404-1.699,0.784-1.699,0.784
	s1.327,0.436,1.742,0.907C3.173,85.042,3.624,86.8,3.624,86.8s0.397-1.786,0.738-2.2c0.342-0.415,1.621-1.005,1.621-1.005
	s-1.319-0.306-1.706-0.677C3.932,82.585,3.466,80.848,3.466,80.848z"/>
<radialGradient id="SVGID_13_" cx="9.1504" cy="28.0933" r="4.2778" gradientUnits="userSpaceOnUse">
	<stop  offset="0.1174" style="stop-color:#DEDBC0"/>
	<stop  offset="1" style="stop-color:#FFFFFF;stop-opacity:0"/>
</radialGradient>
<path fill="url(#SVGID_13_)" d="M9.046,23.423c0,0-0.559,2.81-1.073,3.307c-0.658,0.635-2.667,1.231-2.667,1.231
	s2.082,0.684,2.734,1.424c0.546,0.621,1.253,3.38,1.253,3.38s0.624-2.804,1.159-3.453c0.537-0.652,2.544-1.578,2.544-1.578
	s-2.071-0.481-2.677-1.063C9.776,26.149,9.046,23.423,9.046,23.423z"/>
</svg>
