<?xml version="1.0" encoding="utf-8"?>
<!-- Generator: Adobe Illustrator 17.0.0, SVG Export Plug-In . SVG Version: 6.00 Build 0)  -->
<!DOCTYPE svg PUBLIC "-//W3C//DTD SVG 1.1//EN" "http://www.w3.org/Graphics/SVG/1.1/DTD/svg11.dtd">
<svg version="1.1" id="Layer_1" xmlns="http://www.w3.org/2000/svg" xmlns:xlink="http://www.w3.org/1999/xlink" x="0px" y="0px"
	 width="164.115px" height="236.109px" viewBox="0 0 164.115 236.109" enable-background="new 0 0 164.115 236.109"
	 xml:space="preserve">
<pattern  x="-124.399" y="-329.142" width="256" height="256" patternUnits="userSpaceOnUse" id="New_Pattern_190" viewBox="256.025 -256 256 256" overflow="visible">
	<g>
		<polygon fill="none" points="256.025,-256 512.025,-256 512.025,0 256.025,0 		"/>
		<g>
			<g opacity="0.3">
				<path fill="#FFFFFF" d="M768.038-49.981c0,0-26.351-1.114-53.185,9.093c-12.222,4.649-17.847,0.447-28.594-4.61
					c-7.745-3.644-18.512-6.899-27.372-6.194c-6.945,0.553-7.576,2.03-12.337-2.478c-3.377-3.198-6.119-6.892-10.024-9.292
					c-9.903-6.086-22.063-1.753-31.613,2.478c-9.343,4.138-17.343,9.345-28.144,10.531c-8.862,0.973-18.125,0.044-26.987-0.929
					C538.981-52.568,512-49.998,512-49.998v-1.766c0,0,28.218-1.493,37.621-1.463c6.682,0.021,20.109,2.232,26.703,1.152
					c7.362-1.205,20.701-8.578,27.844-10.727c6.098-1.835,18.51-5.621,24.877-5.478c2.539,0.057,7.55,1.478,9.814,2.629
					c2.875,1.461,7.153,6.665,10.042,8.098c2.238,1.11,7.253,1.892,9.7,2.396c7.506,1.548,22.689,3.717,30.241,5.021
					c6.369,1.1,18.986,4.733,25.448,4.565c8.406-0.219,24.373-6.946,32.751-7.657c5.228-0.444,15.258,1.27,20.998,1.479V-49.981z"/>
			</g>
			<g opacity="0.3">
				<path fill="#FFFFFF" d="M512.036-58.966c0,0,25.411-2.055,32.349-1.708c22.367,1.119,40.817,3.617,60.914-6.194
					c7.692-3.755,15.019-7.841,23.903-9.292c14.24-2.325,18.079,5.947,27.372,12.079c8.061,5.319,16.954,3.888,26.601,4.336
					c10.788,0.501,19.655,6.027,30.457,6.504c10.019,0.442,20.434-4.328,30.842-5.575c7.711-0.924,15.925,0.997,23.562-0.15
					l0.003-1.979c-4.794-0.219-17.832-0.028-23.737,0.426c-7.749,0.597-22.929,5.145-30.697,4.907
					c-7.714-0.237-22.538-5.33-30.126-6.733c-6.408-1.185-19.743-1.356-25.79-3.785c-4.515-1.813-11.265-9.682-15.862-11.278
					c-3.13-1.087-9.964-1.18-13.237-0.666c-6.358,0.998-17.862,7.442-24.078,9.11c-10.22,2.742-31.21,6.118-41.766,6.847
					c-4.612,0.318-13.864-0.514-18.487-0.456c-8.065,0.1-32.258,1.653-32.258,1.653L512.036-58.966z"/>
			</g>
			<g opacity="0.3">
				<path fill="#FFFFFF" d="M768.038-68.743c0,0-35.518,3.17-52.865,2.493c-14.652-0.571-38.058,0.129-49.733-6.814
					c-8.023-4.771-13.884-13.371-25.059-12.389c-10.028,0.881-20.032,6.855-28.915,10.221c-16.549,6.271-35.086,6.879-52.817,6.194
					C543.997-69.602,512-68.716,512-68.716v-1.609c0,0,34.911,0.67,46.522-0.007c13.305-0.775,39.98-3.119,52.949-6.189
					c7.333-1.735,20.801-10.571,28.331-10.291c7.119,0.264,9.211-1.635,25.988,11.687c9.722,7.72,36.775,6.455,49.184,6.847
					c13.296,0.42,53.062-2.038,53.062-2.038L768.038-68.743z"/>
			</g>
			<g opacity="0.3">
				<path fill="#FFFFFF" d="M512-79.248c0,0,5.387-1.845,8.095-2.064c26.16-2.117,55.575,8.136,80.962,0.506
					c10.047-3.02,20.11-6.256,30.457-8.982c9.702-2.556,23.94-7.185,33.155-1.549c8.516,5.209,13.484,10.297,25.059,11.769
					c7.704,0.98,15.81,0.077,23.903-0.31c16.2-0.775,51.427,1.938,54.404,0.63l0.003-2.297c-3.955,1.189-41.179-0.339-54.89-0.314
					c-5.735,0.011-17.335,1.455-22.937,0.228c-6.595-1.444-17.981-9.498-24.421-11.526c-3.396-1.069-10.477-2.451-14.036-2.396
					c-5.326,0.081-15.701,2.992-20.883,4.222c-7.798,1.851-22.972,7.453-30.925,8.445c-19.82,2.47-59.946-1.664-79.882-0.441
					c-2.024,0.124-8.044,1.796-8.044,1.796L512-79.248z"/>
			</g>
			<g opacity="0.3">
				<path fill="#FFFFFF" d="M768.036-112.051c-8.055-1.878-35.888,6.391-50.935,4.299c-4.623-0.643-9.616-1.898-13.493-4.026
					c-4.601-2.525-6.959-7.704-11.951-10.221c-9.677-4.879-19.643-0.563-28.915,2.478c-17.315,5.68-34.316,10.712-53.588,10.221
					c-8.87-0.226-17.371-1.39-26.216,0c-8.892,1.397-18.117,3.979-26.601,3.407c-15.03-1.013-44.336-6.135-44.336-6.135l0.032-2.953
					c0,0,11.581,2.114,15.451,2.274c7.448,0.308,21.987,4.702,29.442,4.718c6.67,0.014,19.704-3.696,26.361-4.108
					c6.438-0.399,19.362,1.334,25.79,0.799c13.51-1.124,39.747-8.77,53.178-10.613c7.653-1.05,23.518-4.883,30.811-2.336
					c3.783,1.321,8.228,8.995,11.754,10.899c2.819,1.522,9.244,2.838,12.439,3.076c12.715,0.95,39.865-7.16,50.78-4.729V-112.051z"
					/>
			</g>
			<g opacity="0.3">
				<path fill="#FFFFFF" d="M512-180.857c0,0,40.789-2.065,52.432,7.444c3.447,2.815,6.958,8.584,11.566,9.601
					c3.872,0.855,9.656-0.86,13.493-1.858c8.91-2.318,17.734-6.194,26.602-8.982c8.867-2.788,17.35-4.685,26.987-4.336
					c7.712,0.279,15.04,2.529,23.132,1.858c10.415-0.863,18.82-3.828,26.987-8.982c8.028-5.066,13.871-12.751,24.288-14.247
					c11.172-1.605,17.34,10.542,24.674,16.106c6.546,4.966,25.875,3.397,25.875,3.397l0.014-2.437c0,0-19.074,0.365-24.661-2.296
					c-4.936-2.35-10.354-13.285-15.291-15.634c-2.535-1.206-8.44-1.627-11.183-1.027c-7.042,1.54-18.397,11.467-24.991,14.379
					c-6.083,2.686-18.721,7.407-25.334,8.102c-5.675,0.596-17.009-2.536-22.709-2.282c-7.429,0.331-21.99,3.828-29.213,5.592
					c-6.652,1.624-19.547,6.414-26.247,7.827c-2.757,0.582-8.477,2.204-11.183,1.416c-3.346-0.974-7.603-7.356-10.727-8.901
					c-8.213-4.063-26.581-7.53-35.718-8.216c-4.689-0.352-18.76,1.039-18.76,1.039L512-180.857z"/>
			</g>
			<g opacity="0.3">
				<path fill="#FFFFFF" d="M768.036-211.524c-1.274,0.215-20.561,0.196-30.887-4.631c-8.942-4.18-16.586-10.889-27.372-8.982
					c-11.961,2.114-18.492,7.453-27.373,13.318c-8.469,5.594-22.735,7.531-33.541,8.672c-9.629,1.017-19.186,0.595-28.529,3.407
					c-4.586,1.38-9.612,4.225-14.65,3.097c-4.605-1.031-8.15-5.473-12.337-7.743c-19.147-10.38-43.187-13.665-65.154-9.292
					c-3.085,0.614-16.192,2.148-16.192,2.148l0.036-4.297c0,0,11.788,0.433,15.789-0.118c8.267-1.139,25.049-3.108,33.322-2.008
					c8.743,1.163,25.323,7.791,33.436,11.251c3.08,1.314,8.55,5.757,11.868,6.205c3.385,0.457,9.978-2.362,13.351-2.896
					c7.052-1.115,21.383-1.618,28.415-2.853c8.144-1.43,24.322-5.205,32.066-8.102c7.457-2.789,20.483-13.691,28.415-14.379
					c7.903-0.685,22.597,7.586,30.355,9.243c7.142,1.526,28.984,3.652,28.984,3.652V-211.524z"/>
			</g>
			<g opacity="0.3">
				<path fill="#FFFFFF" d="M512.049-222.107c0,0,7.808,0.616,11.789,0.067c20.602-2.842,40.51-0.112,61.152,1.239
					c13.109,0.858,22.206,8.499,34.15,11.15c10.299,2.286,20.277-2.351,29.782-4.336c5.575-1.165,11.51-2.186,16.678-3.717
					c6.347-1.88,9.466-5.665,14.692-9.292c8.241-5.719,17.471-5.564,28.194-4.956c11.118,0.631,21.064,4.89,31.37,7.743
					c8.752,2.422,28.181,2.102,28.181,2.102l0-2.297c0,0-20.692-0.069-27.5-1.06c-8.275-1.205-24.054-7.911-32.409-8.282
					c-7.277-0.324-21.875,2.293-28.757,4.679c-4.099,1.421-11.149,6.802-15.177,8.41c-3.832,1.53-11.925,3.36-15.976,4.142
					c-6.806,1.315-20.594,4.115-27.502,3.538c-9.299-0.777-26.499-9.393-35.718-10.841c-15.052-2.364-45.74-2.113-60.938-1.027
					c-3.046,0.218-12.059,0.425-12.059,0.425L512.049-222.107z"/>
			</g>
		</g>
		<g>
			<g opacity="0.3">
				<path fill="#FFFFFF" d="M256.036-18.966c0,0,49.069,0.892,57.252,0.508c10.424-0.489,17.458-5.149,26.79-9.266
					c19.287-8.51,27.125,9.979,42.789,14.946c19.304,6.12,37.948,2.663,57.3,0c21.948-3.02,71.873-6.204,71.873-6.204v-1.951
					c0,0-20.044-0.111-26.704,0.356c-11.419,0.802-33.995,5.068-45.418,5.82c-14.12,0.93-42.988,4.09-56.601,0.228
					c-8.244-2.338-20.687-16.484-29.099-18.114c-3.839-0.744-11.62,1.726-15.406,2.709c-6.576,1.707-18.954,7.916-25.676,8.904
					c-14.144,2.079-57.099,0.097-57.099,0.097V-18.966z"/>
			</g>
			<g opacity="0.3">
				<path fill="#FFFFFF" d="M512.036-28.294c0,0-36.642,4.293-53.248,7.884c-20.785,4.494-36.625,7.124-56.673-1.549
					c-10.024-4.336-19.971-5.634-26.216-13.628c-6.095-7.801-11.156-15.41-24.674-11.15c-10.006,3.154-16.903,9.713-25.445,14.247
					c-9.572,5.081-21.204,2.478-31.999,2.478c-11.566,0-37.746,1.733-37.746,1.733v-3.453c0,0,28.012,0.335,37.357-0.409
					c7.727-0.615,23.5-0.021,30.925-2.246c7.17-2.148,19.075-12.114,26.132-14.607c6.644-2.347,12.247-3.497,26.246,10.955
					c4.98,5.141,18.524,11.307,25.448,13.123c13.42,3.521,41.613,2.922,55.46,2.054c13.75-0.862,45.342-8.773,54.431-8.871V-28.294z
					"/>
			</g>
			<g opacity="0.3">
				<path fill="#FFFFFF" d="M256.036-38.482c0,0,29.65-0.193,41.601,0.108c12.722,0.32,21.995-0.577,32.77-5.575
					c9.27-4.3,18.871-10.627,29.3-12.699c13.084-2.599,16.006,6.357,21.975,13.008c5.987,6.672,13.107,5.598,21.975,5.885
					c10.408,0.337,14.996,5.044,23.903,8.982c10.748,4.753,21.585,1.223,32.77-1.858c16.956-4.671,51.708-7.85,51.708-7.85
					l-0.003-3.297c-5.593-0.116-39.741,6.307-53.062,7.849c-7.479,0.866-22.565,3.615-30.012,2.511
					c-6.346-0.942-17.7-7.646-23.85-9.472c-5.257-1.56-16.753-1.593-21.502-4.336c-3.983-2.301-7.97-11.914-12.162-13.808
					c-2.912-1.316-9.657-0.672-12.781,0c-7.864,1.693-21.615,10.951-29.328,13.237c-7.748,2.297-23.893,4.303-31.952,4.907
					c-10.309,0.773-41.351-0.873-41.351-0.873V-38.482z"/>
			</g>
			<g opacity="0.3">
				<path fill="#FFFFFF" d="M512.038-49.981c0,0-26.351-1.114-53.185,9.093c-12.222,4.649-17.847,0.447-28.594-4.61
					c-7.745-3.644-18.512-6.899-27.373-6.194c-6.945,0.553-7.576,2.03-12.337-2.478c-3.377-3.198-6.119-6.892-10.024-9.292
					c-9.903-6.086-22.063-1.753-31.613,2.478c-9.343,4.138-17.343,9.345-28.144,10.531c-8.862,0.973-18.125,0.044-26.987-0.929
					C282.981-52.568,256-49.998,256-49.998v-1.766c0,0,28.218-1.493,37.621-1.463c6.682,0.021,20.109,2.232,26.703,1.152
					c7.362-1.205,20.701-8.578,27.844-10.727c6.098-1.835,18.51-5.621,24.877-5.478c2.539,0.057,7.55,1.478,9.814,2.629
					c2.875,1.461,7.153,6.665,10.042,8.098c2.238,1.11,7.253,1.892,9.7,2.396c7.506,1.548,22.689,3.717,30.241,5.021
					c6.369,1.1,18.986,4.733,25.448,4.565c8.406-0.219,24.373-6.946,32.751-7.657c5.228-0.444,15.258,1.27,20.998,1.479V-49.981z"/>
			</g>
			<g opacity="0.3">
				<path fill="#FFFFFF" d="M256.036-58.966c0,0,25.411-2.055,32.349-1.708c22.367,1.119,40.817,3.617,60.913-6.194
					c7.692-3.755,15.019-7.841,23.903-9.292c14.24-2.325,18.079,5.947,27.373,12.079c8.061,5.319,16.954,3.888,26.601,4.336
					c10.788,0.501,19.655,6.027,30.457,6.504c10.019,0.442,20.434-4.328,30.842-5.575c7.711-0.924,15.925,0.997,23.562-0.15
					l0.003-1.979c-4.794-0.219-17.832-0.028-23.737,0.426c-7.749,0.597-22.929,5.145-30.697,4.907
					c-7.714-0.237-22.538-5.33-30.126-6.733c-6.408-1.185-19.743-1.356-25.79-3.785c-4.515-1.813-11.265-9.682-15.862-11.278
					c-3.13-1.087-9.964-1.18-13.237-0.666c-6.358,0.998-17.862,7.442-24.078,9.11c-10.22,2.742-31.21,6.118-41.766,6.847
					c-4.612,0.318-13.864-0.514-18.487-0.456c-8.065,0.1-32.258,1.653-32.258,1.653L256.036-58.966z"/>
			</g>
			<g opacity="0.3">
				<path fill="#FFFFFF" d="M512.038-68.743c0,0-35.518,3.17-52.865,2.493c-14.652-0.571-38.058,0.129-49.733-6.814
					c-8.023-4.771-13.884-13.371-25.059-12.389c-10.028,0.881-20.032,6.855-28.915,10.221c-16.549,6.271-35.085,6.879-52.817,6.194
					C287.997-69.602,256-68.716,256-68.716v-1.609c0,0,34.911,0.67,46.522-0.007c13.305-0.775,39.98-3.119,52.949-6.189
					c7.333-1.735,20.801-10.571,28.331-10.291c7.119,0.264,9.211-1.635,25.988,11.687c9.722,7.72,36.775,6.455,49.184,6.847
					c13.296,0.42,53.062-2.038,53.062-2.038L512.038-68.743z"/>
			</g>
			<g opacity="0.3">
				<path fill="#FFFFFF" d="M256-79.248c0,0,5.387-1.845,8.095-2.064c26.16-2.117,55.575,8.136,80.962,0.506
					c10.047-3.02,20.11-6.256,30.457-8.982c9.702-2.556,23.94-7.185,33.155-1.549c8.516,5.209,13.484,10.297,25.059,11.769
					c7.704,0.98,15.81,0.077,23.903-0.31c16.2-0.775,51.427,1.938,54.404,0.63l0.003-2.297c-3.955,1.189-41.179-0.339-54.89-0.314
					c-5.735,0.011-17.335,1.455-22.937,0.228c-6.595-1.444-17.981-9.498-24.421-11.526c-3.396-1.069-10.477-2.451-14.036-2.396
					c-5.326,0.081-15.701,2.992-20.883,4.222c-7.798,1.851-22.972,7.453-30.925,8.445c-19.82,2.47-59.946-1.664-79.882-0.441
					c-2.024,0.124-8.044,1.796-8.044,1.796L256-79.248z"/>
			</g>
			<g opacity="0.3">
				<path fill="#FFFFFF" d="M512.038-89.778c-7.334-0.281-41.282,2.231-61.347,0.919c-11.558-0.756-20.661-2.351-28.529-8.982
					c-7.563-6.374-15.782-7.647-26.601-4.956c-18.08,4.497-38.177,14.18-57.444,13.318c-16.203-0.725-32.77,0-48.962,0
					c-9.638,0-33.12-0.3-33.12-0.3v-2.556c0,0,24.582,0.695,32.792,1.005c12.231,0.461,36.788,1.786,48.955,0.456
					c14.641-1.6,42.767-11.589,57.4-13.257c4.734-0.54,14.461-1.253,19.057,0c2.396,0.653,6.284,4.045,8.559,5.041
					c6.606,2.892,20.469,7.37,27.616,8.33c15.273,2.052,52.544-3.008,61.62-1.565L512.038-89.778z"/>
			</g>
			<g opacity="0.3">
				<path fill="#FFFFFF" d="M256.049-99.263c0,0,16.53-0.753,22.698-0.436c23.519,1.21,46.263,0,69.395,0
					c8.867,0,17.754,0.065,26.216-2.478c10.047-3.02,19.642-6.889,30.071-9.601c13.469-3.504,19.351-1.334,28.915,6.194
					c7.383,5.812,15.039,8.576,25.059,8.982c18.513,0.751,45.141-2.478,53.633-2.682l0-2.978
					c-10.255-0.55-40.261,4.893-53.518,2.944c-6.304-0.926-20.897-11.371-26.926-13.432c-5.984-2.046-14.793-2.921-21.117-3
					c-9.785-0.123-27.935,9.217-37.544,11.069c-5.965,1.15-18.124,1.992-24.192,2.282c-17.554,0.84-52.728-0.391-70.295,0.114
					c-5.617,0.162-22.408,0.021-22.408,0.021L256.049-99.263z"/>
			</g>
			<g opacity="0.3">
				<path fill="#FFFFFF" d="M512.036-112.051c-8.055-1.878-35.888,6.391-50.935,4.299c-4.623-0.643-9.616-1.898-13.493-4.026
					c-4.601-2.525-6.959-7.704-11.951-10.221c-9.677-4.879-19.643-0.563-28.915,2.478c-17.315,5.68-34.316,10.712-53.588,10.221
					c-8.87-0.226-17.371-1.39-26.216,0c-8.892,1.397-18.117,3.979-26.601,3.407c-15.03-1.013-44.336-6.135-44.336-6.135l0.032-2.953
					c0,0,11.581,2.114,15.451,2.274c7.448,0.308,21.987,4.702,29.442,4.718c6.67,0.014,19.704-3.696,26.361-4.108
					c6.438-0.399,19.362,1.334,25.79,0.799c13.51-1.124,39.747-8.77,53.178-10.613c7.653-1.05,23.518-4.883,30.811-2.336
					c3.783,1.321,8.228,8.995,11.754,10.899c2.819,1.522,9.244,2.838,12.439,3.076c12.715,0.95,39.865-7.16,50.78-4.729V-112.051z"
					/>
			</g>
			<g opacity="0.3">
				<path fill="#FFFFFF" d="M256.032-122.029c0,0,25.04,7.675,35.051,9.011c10.809,1.443,21.152-3.319,31.228-5.575
					c9.209-2.062,18.504-2.459,27.758-1.549c9.636,0.948,18.863,2.327,28.529,0.619c9.613-1.699,18.954-4.446,28.144-7.433
					c8.932-2.904,18.51-9.049,28.529-8.363c12.343,0.846,14.685,10.744,25.059,14.557c13.153,4.834,45.188-2.669,51.706-1.223
					v-2.851c-6.077-1.972-38.53,5.292-50.894,2.237c-7.187-1.775-18.223-13.976-25.562-14.949
					c-7.65-1.014-22.334,6.092-29.784,8.102c-6.929,1.869-20.602,6.584-27.73,7.417c-6.945,0.812-20.967-0.944-27.958-0.799
					c-7.12,0.148-21.345,1.14-28.415,1.993c-7.616,0.919-22.572,5.394-30.241,5.196c-9.074-0.235-35.404-9.221-35.404-9.221
					L256.032-122.029z"/>
			</g>
			<g opacity="0.3">
				<path fill="#FFFFFF" d="M512.036-131.011c-3.255-1.237-20.477,1.611-28.96,1.888c-10.794,0.352-15.855-2.421-22.746-8.363
					c-8.542-7.364-15.809-9.607-27.373-5.575c-8.869,3.093-16.974,6.769-26.216,8.982c-8.878,2.125-17.734,3.097-26.601,3.097
					c-11.566,0-25.051-1.817-35.854,0.31c-19.262,3.791-38.571,13.998-58.215,8.053c-8.104-2.453-30.023-8.348-30.023-8.348
					l-0.013-3.578c0,0,33.869,10.353,41.782,10.936c14.211,1.048,31.236-7.582,45.443-8.689c9.193-0.716,27.662-0.711,36.859-1.369
					c6.467-0.463,19.455-1.357,25.79-2.739c6.644-1.449,19.111-7.372,25.79-8.651c4.686-0.898,14.439-2.248,19.057-1.048
					c3.103,0.806,7.942,5.479,10.841,6.847c5.107,2.41,15.846,6.407,21.454,7.075c7.219,0.86,24.695-4.873,28.984-2.361V-131.011z"
					/>
			</g>
			<g opacity="0.3">
				<path fill="#FFFFFF" d="M256.032-138.455c0,0,14.673-1.683,22.714,1.28c6.024,2.219,12.741,9.177,18.891,10.221
					c6.576,1.116,18.883-4.371,25.445-5.885c9.626-2.22,19.662-4.956,29.3-6.814s20.048-2.499,29.686-2.168
					c8.482,0.291,18.144,2.58,26.216,0.619c18.177-4.416,39.769-25.149,56.673-8.672c6.964,6.789,10.811,11.713,22.746,10.84
					c6.566-0.48,22.584,1.258,24.334,0.586l0-4.783c-3.815-0.166-18.813,2.876-24.99,1.767c-5.736-1.03-15.697-7.703-20.997-10.126
					c-3.788-1.731-11.131-6.427-15.291-6.612c-11.347-0.504-31.918,12.484-43.136,14.264c-6.119,0.971-18.591-0.34-24.783-0.114
					c-7.744,0.282-23.249,1.197-30.905,2.396c-7.59,1.189-22.412,5.38-29.898,7.108c-6.068,1.401-18.159,6.437-24.307,5.444
					c-5.091-0.822-12.832-8.877-17.688-10.613c-5.721-2.045-24.009-3.533-24.009-3.533V-138.455z"/>
			</g>
			<g opacity="0.3">
				<path fill="#FFFFFF" d="M512.036-150.419c0,0-17.779,0.545-25.875,0.545c-11.951,0-14.652-9.909-21.59-15.796
					c-13.498-11.455-40.485,13.886-55.516,15.176c-10.412,0.894-21.204,0.31-31.613,0.31c-12.722,0-25.445,2.168-37.782,4.646
					c-10.795,2.168-20.427,7.143-30.457,10.221c-11.174,3.429-18.839-5.349-27.372-10.531c-8.815-5.352-25.799-4.571-25.799-4.571
					v-2.854c0,0,20.132,2.973,26.634,4.886c6.75,1.986,18.986,10.503,26.018,10.727c7.98,0.254,22.456-8.494,30.241-10.27
					c9.19-2.097,28.022-3.959,37.43-4.565c7.943-0.511,23.949,0.829,31.838-0.228c14.773-1.981,37.309-22.381,57.628-15.291
					c6.145,2.144,13.998,14.446,20.198,16.426c6.209,1.982,23.427-2.516,26.017-1.684V-150.419z"/>
			</g>
			<g opacity="0.3">
				<path fill="#FFFFFF" d="M256.032-161.263c0,0,10.377-1.62,16.16-0.69c7.711,1.239,15.325,4.459,21.204,8.982
					c4.554,3.503,7.683,7.839,13.879,9.601c10.365,2.948,18.555-4.211,27.373-7.743c20.164-8.077,42.419-12.161,65.154-8.982
					c10.8,1.51,18.977,1.115,28.529-3.407c8.173-3.869,15.807-13.008,25.059-14.867c13.879-2.788,19.561,7.837,26.216,14.867
					c6.837,7.222,32.429,2.22,32.429,2.22v-2.276c0,0-25.4,4.66-30.467-1.033c-16.429-18.459-20.299-16.525-28.529-16.433
					c-7.373,0.083-18.248,12.89-25.219,15.291c-6.628,2.283-20.863,3.941-27.844,3.309c-33.112-2.997-50.784,3.407-65.73,9.148
					c-6.156,2.365-18.943,8.023-25.448,6.942c-4.012-0.667-9.872-7.225-13.466-9.129c-5.453-2.89-16.842-8.159-22.937-9.129
					c-4.047-0.644-16.36,1.033-16.36,1.033L256.032-161.263z"/>
			</g>
			<g opacity="0.3">
				<path fill="#FFFFFF" d="M512.036-170.091c0,0-20.522,2.343-28.189-1.464c-8.532-4.236-10.776-17.783-21.204-19.203
					c-10.008-1.363-19.656,9.301-26.216,13.318c-9.63,5.898-18.865,9.126-30.457,7.433c-21.162-3.09-35.844,2.206-55.516,7.743
					c-8.862,2.495-21.203,8.699-30.457,8.982c-11.179,0.342-18.13-10.813-27.372-14.247c-5.789-2.151-11.18-1.558-16.963-1.858
					c-6.168-0.32-19.63-0.704-19.63-0.704v-2.957c0,0,14.843,0.656,19.787,0.982c4.451,0.293,13.431,1.007,17.688,2.34
					c7.074,2.216,18.979,12.902,26.361,13.576c7.657,0.699,21.918-7.31,29.442-8.897c14.062-2.967,33.647-11.148,57.058-7.019
					c7.41,1.307,22.158-4.63,29.213-7.246c7.01-2.599,19.277-14.329,26.703-13.466c7.402,0.861,15.849,16.546,22.823,19.171
					c6.302,2.373,26.93,0.558,26.93,0.558L512.036-170.091z"/>
			</g>
			<g opacity="0.3">
				<path fill="#FFFFFF" d="M256-180.857c0,0,40.789-2.065,52.432,7.444c3.447,2.815,6.958,8.584,11.566,9.601
					c3.872,0.855,9.656-0.86,13.493-1.858c8.91-2.318,17.734-6.194,26.601-8.982c8.867-2.788,17.35-4.685,26.987-4.336
					c7.712,0.279,15.04,2.529,23.132,1.858c10.415-0.863,18.82-3.828,26.987-8.982c8.028-5.066,13.871-12.751,24.288-14.247
					c11.172-1.605,17.34,10.542,24.674,16.106c6.546,4.966,25.875,3.397,25.875,3.397l0.014-2.437c0,0-19.074,0.365-24.661-2.296
					c-4.936-2.35-10.354-13.285-15.291-15.634c-2.535-1.206-8.44-1.627-11.183-1.027c-7.042,1.54-18.397,11.467-24.991,14.379
					c-6.083,2.686-18.721,7.407-25.334,8.102c-5.675,0.596-17.009-2.536-22.709-2.282c-7.429,0.331-21.99,3.828-29.214,5.592
					c-6.652,1.624-19.547,6.414-26.246,7.827c-2.757,0.582-8.477,2.204-11.183,1.416c-3.346-0.974-7.603-7.356-10.727-8.901
					c-8.213-4.063-26.581-7.53-35.718-8.216c-4.689-0.352-18.76,1.039-18.76,1.039L256-180.857z"/>
			</g>
			<g opacity="0.3">
				<path fill="#FFFFFF" d="M512.036-190.638c0,0-16.644,2.708-23.177-0.739c-9.283-4.898-12.726-15.461-24.674-17.035
					c-11.569-1.524-21.74,10.007-29.3,15.486c-9.055,6.563-19.279,2.083-30.842,2.478c-22.367,0.764-39.256,9.587-60.142,14.247
					c-10.378,2.315-14.949,1.145-21.975-5.265c-7.237-6.602-16.975-10.088-28.144-11.15c-11.58-1.101-37.75,1.978-37.75,1.978
					l0.004-2.899c0,0,16.073-2.127,21.495-2.818c11.129-1.417,33.004,0.986,46.105,8.438c6.57,3.737,13.96,8.937,18.941,9.089
					c15.605,0.478,45.262-12.37,60.709-14.635c7.237-1.061,22.158,0.331,29.214-1.598c8.837-2.415,23.385-17.552,32.523-16.889
					c7.853,0.57,18.068,15.983,25.562,18.399c5.104,1.646,21.452,0.013,21.452,0.013V-190.638z"/>
			</g>
			<g opacity="0.3">
				<path fill="#FFFFFF" d="M256.036-202.076c0,0,50.433,1.319,59.336,2.646c4.995,0.744,10.476,1.128,14.65,3.717
					c4.313,2.675,6.168,7.433,11.951,8.982c9.253,2.478,23.539-4.23,32.77-6.194c9.663-2.057,19.662-4.956,30.071-6.194
					s19.911,1.09,27.372-5.885c8.097-7.569,21.172-12.283,25.051-11.277c10.971,2.844,17.709,6.077,26.609,10.658
					c11.099,5.712,26.742,3.249,28.189,3.551l0-2.204c0,0-20.934-1.407-27.614-3.335c-7.311-2.111-19.893-13.126-27.502-13.043
					c-7.658,0.083-20.163,11.185-27.388,13.728c-6.001,2.113-18.652,4.051-24.877,5.363c-7.61,1.604-22.829,4.821-30.469,6.276
					c-7.796,1.485-23.531,7.243-31.268,5.478c-3.388-0.773-8.127-6.679-11.297-8.102c-3.789-1.701-12.089-3.093-16.204-3.652
					c-14.728-1.998-59.385-2.714-59.385-2.714L256.036-202.076z"/>
			</g>
			<g opacity="0.3">
				<path fill="#FFFFFF" d="M512.036-211.524c-1.274,0.215-20.561,0.196-30.887-4.631c-8.942-4.18-16.586-10.889-27.373-8.982
					c-11.961,2.114-18.492,7.453-27.372,13.318c-8.469,5.594-22.735,7.531-33.541,8.672c-9.629,1.017-19.186,0.595-28.529,3.407
					c-4.586,1.38-9.612,4.225-14.65,3.097c-4.605-1.031-8.15-5.473-12.337-7.743c-19.147-10.38-43.187-13.665-65.154-9.292
					c-3.085,0.614-16.192,2.148-16.192,2.148l0.036-4.297c0,0,11.788,0.433,15.789-0.118c8.268-1.139,25.049-3.108,33.322-2.008
					c8.743,1.163,25.323,7.791,33.436,11.251c3.08,1.314,8.55,5.757,11.868,6.205c3.385,0.457,9.978-2.362,13.351-2.896
					c7.052-1.115,21.383-1.618,28.415-2.853c8.144-1.43,24.322-5.205,32.066-8.102c7.457-2.789,20.483-13.691,28.415-14.379
					c7.903-0.685,22.597,7.586,30.355,9.243c7.142,1.526,28.984,3.652,28.984,3.652V-211.524z"/>
			</g>
			<g opacity="0.3">
				<path fill="#FFFFFF" d="M256.049-222.107c0,0,7.808,0.616,11.789,0.067c20.602-2.842,40.51-0.112,61.152,1.239
					c13.109,0.858,22.206,8.499,34.15,11.15c10.299,2.286,20.277-2.351,29.782-4.336c5.575-1.165,11.51-2.186,16.678-3.717
					c6.347-1.88,9.466-5.665,14.692-9.292c8.241-5.719,17.471-5.564,28.194-4.956c11.118,0.631,21.064,4.89,31.37,7.743
					c8.752,2.422,28.181,2.102,28.181,2.102l0-2.297c0,0-20.692-0.069-27.5-1.06c-8.275-1.205-24.054-7.911-32.409-8.282
					c-7.277-0.324-21.875,2.293-28.757,4.679c-4.099,1.421-11.149,6.802-15.177,8.41c-3.832,1.53-11.925,3.36-15.976,4.142
					c-6.806,1.315-20.594,4.115-27.502,3.538c-9.299-0.777-26.499-9.393-35.718-10.841c-15.052-2.364-45.74-2.113-60.938-1.027
					c-3.046,0.218-12.059,0.425-12.059,0.425L256.049-222.107z"/>
			</g>
			<g opacity="0.3">
				<path fill="#FFFFFF" d="M457.118-237.216c-9.799-1.584-19.609-2.168-29.022,0.31c-11.766,3.097-19.607,10.227-30.983,14.247
					c-18.43,6.514-35.29-4.687-53.73-7.743c-11.369-1.884-22.357-1.836-33.728-3.097c-13.73-1.522-24.705,2.013-38.042,2.168
					c-5.098,0.059-15.548-0.885-15.548-0.885l-0.028-2.406c0,0,11.759,0.742,15.675,0.535c9.624-0.509,28.82-2.801,38.457-2.67
					c8.397,0.115,25.094,2.267,33.436,3.24c12.984,1.515,38.847,8.773,51.808,7.075c8.647-1.133,23.614-11.83,32.181-13.466
					c7.343-1.402,22.439,0.068,29.898,0.571c13.104,0.882,54.545,4.747,54.545,4.747v2.368
					C512.036-232.222,473.992-234.489,457.118-237.216z"/>
			</g>
			<g opacity="0.3">
				<path fill="#FFFFFF" d="M256.036-241.841c0,0,14.997-0.306,26.566,1.218c11.948,1.574,18.512,0.048,30.457-1.549
					c13.501-1.804,29.233,2.933,43.11,3.598c18.123,0.869,36.685,3.793,55.2-0.501c18.881-4.379,35.503-8.869,55.516-5.265
					c14.677,2.643,41.187,3.575,45.152,2.492l0-2.282c-1.895,0.226-9.655,1.319-12.893,1.255
					c-8.177-0.161-24.281-3.541-32.409-4.451c-4.269-0.478-12.824-1.624-17.117-1.483c-9.952,0.326-29.466,4.996-39.37,6.026
					c-5.741,0.597-17.28,1.282-23.051,1.278c-8.03-0.006-24.05-1.374-32.066-1.826c-10.727-0.605-32.17-2.76-42.907-2.396
					c-4.396,0.149-13.067,1.937-17.46,2.168c-3.077,0.162-9.244-0.146-12.324-0.228c-6.602-0.175-26.412-0.335-26.412-0.335
					L256.036-241.841z"/>
			</g>
			<g opacity="0.3">
				<path fill="#FFFFFF" d="M509.678-250.401c-5.691-0.057-15.035,1.232-22.746,0.929c-8.096-0.317-16.178-1.336-24.288-2.478
					c-9.623-1.354-17.278-0.994-26.601,1.549c-8.807,2.401-49.335,6.345-58.594,4.837c-20.788-3.384-17.006-6.469-38.444-6.271
					c-17.726,0.164-28.697,3.152-46.364,3.984c-13.236,0.623-36.603-2.321-36.603-2.321l0.013-3.763c0,0,6.524,1.131,8.701,1.192
					c6.369,0.178,19.076,1.454,25.448,1.424c12.208-0.059,36.52-3.053,48.727-3.195c4.74-0.055,14.237,0.237,18.943,0.799
					c4.909,0.586,14.487,3.284,19.4,3.843c3.914,0.446,11.811,0.605,15.748,0.493c10.392-0.294,31.102-2.409,41.424-3.652
					c3.381-0.407,10.064-1.905,13.466-2.06c3.769-0.171,11.3,0.656,15.063,0.919c5.795,0.405,17.356,1.776,23.165,1.826
					c6.488,0.055,24.297-2.577,25.902-1.598l0,3.783C512.036-250.16,510.27-250.395,509.678-250.401z"/>
			</g>
			<g opacity="0.3">
				<path fill="#FFFFFF" d="M512.036-9.454c-3.488-0.507-31.004,0.624-45.843,0.893c-14.839,0-27.521,4.317-41.82,6.206
					c-15.109,2.158-32.933-0.216-47.486-4.587c-12.425-3.731-24.821-1.351-37.801,1.203c-7.269,1.43-24.333,5.108-32.158,4.838
					c-5.666-0.27-15.083-0.996-21.059-2.134c-13.805-2.63-26.835-6.332-29.832-6.416v-1.844c0,0,12.986,1.099,22.433,1.928
					c5.101,0.447,15.652,3.913,28.743,2.914c20.107-1.535,46.207-8.617,70.512-2.966c11.263,2.619,34.428,5.196,45.988,4.931
					c10.697-0.245,31.678-5.344,42.337-6.276c11.457-1.002,42.536-1.466,45.989-0.531L512.036-9.454z"/>
			</g>
		</g>
		<g>
			<g opacity="0.3">
				<path fill="#FFFFFF" d="M0.036-18.966c0,0,49.069,0.892,57.252,0.508c10.424-0.489,17.458-5.149,26.79-9.266
					c19.287-8.51,27.125,9.979,42.789,14.946c19.304,6.12,37.948,2.663,57.3,0c21.948-3.02,71.873-6.204,71.873-6.204v-1.951
					c0,0-20.044-0.111-26.704,0.356c-11.419,0.802-33.995,5.068-45.418,5.82c-14.12,0.93-42.988,4.09-56.601,0.228
					c-8.244-2.338-20.687-16.484-29.099-18.114c-3.839-0.744-11.62,1.726-15.406,2.709c-6.576,1.707-18.954,7.916-25.676,8.904
					C42.99-18.953,0.036-20.935,0.036-20.935V-18.966z"/>
			</g>
			<g opacity="0.3">
				<path fill="#FFFFFF" d="M256.036-28.294c0,0-36.642,4.293-53.248,7.884c-20.785,4.494-36.625,7.124-56.673-1.549
					c-10.024-4.336-19.971-5.634-26.216-13.628c-6.095-7.801-11.156-15.41-24.674-11.15c-10.006,3.154-16.903,9.713-25.445,14.247
					c-9.572,5.081-21.204,2.478-31.999,2.478c-11.566,0-37.746,1.733-37.746,1.733v-3.453c0,0,28.012,0.335,37.357-0.409
					c7.727-0.615,23.5-0.021,30.925-2.246c7.17-2.148,19.075-12.114,26.132-14.607c6.644-2.347,12.247-3.497,26.246,10.955
					c4.98,5.141,18.524,11.307,25.448,13.123c13.42,3.521,41.613,2.922,55.46,2.054c13.75-0.862,45.342-8.773,54.431-8.871V-28.294z
					"/>
			</g>
			<g opacity="0.3">
				<path fill="#FFFFFF" d="M0.036-38.482c0,0,29.65-0.193,41.601,0.108c12.722,0.32,21.995-0.577,32.77-5.575
					c9.27-4.3,18.871-10.627,29.3-12.699c13.084-2.599,16.006,6.357,21.975,13.008c5.987,6.672,13.107,5.598,21.975,5.885
					c10.408,0.337,14.996,5.044,23.903,8.982c10.748,4.753,21.585,1.223,32.77-1.858c16.956-4.671,51.708-7.85,51.708-7.85
					l-0.003-3.297c-5.593-0.116-39.741,6.307-53.062,7.849c-7.479,0.866-22.565,3.615-30.012,2.511
					c-6.346-0.942-17.7-7.646-23.85-9.472c-5.257-1.56-16.753-1.593-21.502-4.336c-3.983-2.301-7.97-11.914-12.162-13.808
					c-2.912-1.316-9.657-0.672-12.781,0c-7.864,1.693-21.615,10.951-29.328,13.237c-7.748,2.297-23.893,4.303-31.952,4.907
					c-10.309,0.773-41.351-0.873-41.351-0.873V-38.482z"/>
			</g>
			<g opacity="0.3">
				<path fill="#FFFFFF" d="M256.038-49.981c0,0-26.351-1.114-53.185,9.093c-12.222,4.649-17.847,0.447-28.594-4.61
					c-7.745-3.644-18.512-6.899-27.373-6.194c-6.945,0.553-7.576,2.03-12.337-2.478c-3.377-3.198-6.119-6.892-10.024-9.292
					c-9.903-6.086-22.063-1.753-31.613,2.478c-9.343,4.138-17.343,9.345-28.144,10.531c-8.862,0.973-18.125,0.044-26.987-0.929
					C26.981-52.568,0-49.998,0-49.998v-1.766c0,0,28.218-1.493,37.621-1.463c6.682,0.021,20.109,2.232,26.703,1.152
					c7.362-1.205,20.701-8.578,27.844-10.727c6.098-1.835,18.51-5.621,24.877-5.478c2.539,0.057,7.55,1.478,9.814,2.629
					c2.875,1.461,7.153,6.665,10.042,8.098c2.238,1.11,7.253,1.892,9.7,2.396c7.506,1.548,22.689,3.717,30.241,5.021
					c6.369,1.1,18.986,4.733,25.448,4.565c8.406-0.219,24.373-6.946,32.751-7.657c5.228-0.444,15.258,1.27,20.998,1.479V-49.981z"/>
			</g>
			<g opacity="0.3">
				<path fill="#FFFFFF" d="M0.036-58.966c0,0,25.411-2.055,32.349-1.708c22.367,1.119,40.817,3.617,60.913-6.194
					c7.692-3.755,15.019-7.841,23.903-9.292c14.24-2.325,18.079,5.947,27.373,12.079c8.061,5.319,16.954,3.888,26.601,4.336
					c10.788,0.501,19.655,6.027,30.457,6.504c10.019,0.442,20.434-4.328,30.842-5.575c7.711-0.924,15.925,0.997,23.562-0.15
					l0.003-1.979c-4.794-0.219-17.832-0.028-23.737,0.426c-7.749,0.597-22.929,5.145-30.697,4.907
					c-7.714-0.237-22.538-5.33-30.126-6.733c-6.408-1.185-19.743-1.356-25.79-3.785c-4.515-1.813-11.265-9.682-15.862-11.278
					c-3.13-1.087-9.964-1.18-13.237-0.666c-6.358,0.998-17.862,7.442-24.078,9.11c-10.22,2.742-31.21,6.118-41.766,6.847
					c-4.612,0.318-13.864-0.514-18.487-0.456C24.193-62.472,0-60.919,0-60.919L0.036-58.966z"/>
			</g>
			<g opacity="0.3">
				<path fill="#FFFFFF" d="M256.038-68.743c0,0-35.518,3.17-52.865,2.493c-14.652-0.571-38.058,0.129-49.733-6.814
					c-8.023-4.771-13.884-13.371-25.059-12.389c-10.028,0.881-20.032,6.855-28.915,10.221c-16.549,6.271-35.085,6.879-52.817,6.194
					C31.997-69.602,0-68.716,0-68.716v-1.609c0,0,34.911,0.67,46.522-0.007c13.305-0.775,39.98-3.119,52.949-6.189
					c7.333-1.735,20.801-10.571,28.331-10.291c7.119,0.264,9.211-1.635,25.988,11.687c9.722,7.72,36.775,6.455,49.184,6.847
					c13.296,0.42,53.062-2.038,53.062-2.038L256.038-68.743z"/>
			</g>
			<g opacity="0.3">
				<path fill="#FFFFFF" d="M0-79.248c0,0,5.387-1.845,8.095-2.064c26.16-2.117,55.575,8.136,80.962,0.506
					c10.047-3.02,20.11-6.256,30.457-8.982c9.702-2.556,23.94-7.185,33.155-1.549c8.516,5.209,13.484,10.297,25.059,11.769
					c7.704,0.98,15.81,0.077,23.903-0.31c16.2-0.775,51.427,1.938,54.404,0.63l0.003-2.297c-3.955,1.189-41.179-0.339-54.89-0.314
					c-5.735,0.011-17.335,1.455-22.937,0.228c-6.595-1.444-17.981-9.498-24.421-11.526c-3.395-1.069-10.477-2.451-14.036-2.396
					c-5.326,0.081-15.701,2.992-20.883,4.222c-7.798,1.851-22.972,7.453-30.925,8.445C68.126-80.415,28-84.549,8.064-83.326
					c-2.024,0.124-8.044,1.796-8.044,1.796L0-79.248z"/>
			</g>
			<g opacity="0.3">
				<path fill="#FFFFFF" d="M256.038-89.778c-7.334-0.281-41.282,2.231-61.347,0.919c-11.558-0.756-20.661-2.351-28.529-8.982
					c-7.563-6.374-15.782-7.647-26.601-4.956c-18.08,4.497-38.177,14.18-57.444,13.318c-16.203-0.725-32.77,0-48.962,0
					c-9.638,0-33.12-0.3-33.12-0.3l0-2.556c0,0,24.582,0.695,32.792,1.005c12.231,0.461,36.788,1.786,48.955,0.456
					c14.641-1.6,42.767-11.589,57.4-13.257c4.734-0.54,14.461-1.253,19.057,0c2.396,0.653,6.284,4.045,8.559,5.041
					c6.606,2.892,20.469,7.37,27.616,8.33c15.273,2.052,52.544-3.008,61.62-1.565L256.038-89.778z"/>
			</g>
			<g opacity="0.3">
				<path fill="#FFFFFF" d="M0.049-99.263c0,0,16.53-0.753,22.698-0.436c23.519,1.21,46.263,0,69.395,0
					c8.867,0,17.754,0.065,26.216-2.478c10.047-3.02,19.642-6.889,30.071-9.601c13.469-3.504,19.351-1.334,28.915,6.194
					c7.383,5.812,15.039,8.576,25.059,8.982c18.513,0.751,45.141-2.478,53.633-2.682l0-2.978
					c-10.255-0.55-40.261,4.893-53.518,2.944c-6.304-0.926-20.897-11.371-26.926-13.432c-5.984-2.046-14.793-2.921-21.117-3
					c-9.785-0.123-27.935,9.217-37.544,11.069c-5.965,1.15-18.124,1.992-24.192,2.282c-17.554,0.84-52.728-0.391-70.295,0.114
					c-5.617,0.162-22.408,0.021-22.408,0.021L0.049-99.263z"/>
			</g>
			<g opacity="0.3">
				<path fill="#FFFFFF" d="M256.036-112.051c-8.055-1.878-35.888,6.391-50.935,4.299c-4.623-0.643-9.616-1.898-13.493-4.026
					c-4.601-2.525-6.959-7.704-11.951-10.221c-9.677-4.879-19.643-0.563-28.915,2.478c-17.315,5.68-34.316,10.712-53.588,10.221
					c-8.87-0.226-17.371-1.39-26.216,0c-8.892,1.397-18.117,3.979-26.601,3.407C29.306-106.907,0-112.029,0-112.029l0.032-2.953
					c0,0,11.581,2.114,15.451,2.274c7.448,0.308,21.987,4.702,29.442,4.718c6.67,0.014,19.704-3.696,26.361-4.108
					c6.438-0.399,19.362,1.334,25.79,0.799c13.51-1.124,39.747-8.77,53.178-10.613c7.653-1.05,23.518-4.883,30.811-2.336
					c3.783,1.321,8.228,8.995,11.754,10.899c2.819,1.522,9.244,2.838,12.439,3.076c12.715,0.95,39.865-7.16,50.78-4.729V-112.051z"
					/>
			</g>
			<g opacity="0.3">
				<path fill="#FFFFFF" d="M0.032-122.029c0,0,25.04,7.675,35.051,9.011c10.809,1.443,21.152-3.319,31.228-5.575
					c9.209-2.062,18.504-2.459,27.758-1.549c9.636,0.948,18.863,2.327,28.529,0.619c9.613-1.699,18.954-4.446,28.144-7.433
					c8.932-2.904,18.51-9.049,28.529-8.363c12.343,0.846,14.685,10.744,25.059,14.557c13.153,4.834,45.188-2.669,51.706-1.223
					l0-2.851c-6.077-1.972-38.53,5.292-50.894,2.237c-7.187-1.775-18.223-13.976-25.562-14.949
					c-7.65-1.014-22.334,6.092-29.784,8.102c-6.929,1.869-20.602,6.584-27.73,7.417c-6.945,0.812-20.967-0.944-27.958-0.799
					c-7.12,0.148-21.345,1.14-28.415,1.993c-7.616,0.919-22.572,5.394-30.241,5.196c-9.074-0.235-35.404-9.221-35.404-9.221
					L0.032-122.029z"/>
			</g>
			<g opacity="0.3">
				<path fill="#FFFFFF" d="M256.036-131.011c-3.255-1.237-20.477,1.611-28.96,1.888c-10.793,0.352-15.855-2.421-22.746-8.363
					c-8.542-7.364-15.809-9.607-27.373-5.575c-8.869,3.093-16.974,6.769-26.216,8.982c-8.878,2.125-17.734,3.097-26.601,3.097
					c-11.566,0-25.051-1.817-35.854,0.31c-19.262,3.791-38.571,13.998-58.215,8.053c-8.104-2.453-30.023-8.348-30.023-8.348
					l-0.013-3.578c0,0,33.869,10.353,41.782,10.936c14.211,1.048,31.236-7.582,45.443-8.689c9.193-0.716,27.662-0.711,36.859-1.369
					c6.467-0.463,19.455-1.357,25.79-2.739c6.644-1.449,19.111-7.372,25.79-8.651c4.686-0.898,14.439-2.248,19.057-1.048
					c3.103,0.806,7.942,5.479,10.841,6.847c5.107,2.41,15.846,6.407,21.454,7.075c7.219,0.86,24.695-4.873,28.984-2.361
					L256.036-131.011z"/>
			</g>
			<g opacity="0.3">
				<path fill="#FFFFFF" d="M0.032-138.455c0,0,14.673-1.683,22.714,1.28c6.024,2.219,12.741,9.177,18.891,10.221
					c6.576,1.116,18.883-4.371,25.445-5.885c9.626-2.22,19.662-4.956,29.3-6.814s20.048-2.499,29.686-2.168
					c8.482,0.291,18.144,2.58,26.216,0.619c18.177-4.416,39.769-25.149,56.673-8.672c6.964,6.789,10.811,11.713,22.746,10.84
					c6.566-0.48,22.584,1.258,24.334,0.586l-0.001-4.783c-3.815-0.166-18.813,2.876-24.99,1.767
					c-5.736-1.03-15.697-7.703-20.997-10.126c-3.788-1.731-11.131-6.427-15.291-6.612c-11.347-0.504-31.918,12.484-43.136,14.264
					c-6.119,0.971-18.591-0.34-24.783-0.114c-7.744,0.282-23.249,1.197-30.905,2.396c-7.59,1.189-22.412,5.38-29.898,7.108
					c-6.068,1.401-18.159,6.437-24.307,5.444c-5.091-0.822-12.832-8.877-17.688-10.613c-5.721-2.045-24.009-3.533-24.009-3.533
					V-138.455z"/>
			</g>
			<g opacity="0.3">
				<path fill="#FFFFFF" d="M256.036-150.419c0,0-17.779,0.545-25.875,0.545c-11.951,0-14.652-9.909-21.59-15.796
					c-13.498-11.455-40.485,13.886-55.516,15.176c-10.412,0.894-21.204,0.31-31.613,0.31c-12.722,0-25.445,2.168-37.782,4.646
					c-10.795,2.168-20.427,7.143-30.457,10.221c-11.174,3.429-18.839-5.349-27.373-10.531c-8.815-5.352-25.799-4.571-25.799-4.571
					v-2.854c0,0,20.132,2.973,26.634,4.886c6.75,1.986,18.986,10.503,26.018,10.727c7.98,0.254,22.456-8.494,30.241-10.27
					c9.19-2.097,28.022-3.959,37.43-4.565c7.943-0.511,23.949,0.829,31.838-0.228c14.773-1.981,37.309-22.381,57.628-15.291
					c6.145,2.144,13.998,14.446,20.198,16.426c6.209,1.982,23.427-2.516,26.017-1.684V-150.419z"/>
			</g>
			<g opacity="0.3">
				<path fill="#FFFFFF" d="M0.032-161.263c0,0,10.377-1.62,16.16-0.69c7.711,1.239,15.325,4.459,21.204,8.982
					c4.554,3.503,7.683,7.839,13.879,9.601c10.365,2.948,18.555-4.211,27.373-7.743c20.164-8.077,42.419-12.161,65.154-8.982
					c10.8,1.51,18.977,1.115,28.529-3.407c8.173-3.869,15.807-13.008,25.059-14.867c13.879-2.788,19.561,7.837,26.216,14.867
					c6.837,7.222,32.429,2.22,32.429,2.22v-2.276c0,0-25.4,4.66-30.467-1.033c-16.429-18.459-20.299-16.525-28.529-16.433
					c-7.373,0.083-18.248,12.89-25.219,15.291c-6.628,2.283-20.863,3.941-27.844,3.309c-33.112-2.997-50.784,3.407-65.73,9.148
					c-6.156,2.365-18.943,8.023-25.448,6.942c-4.012-0.667-9.872-7.225-13.466-9.129c-5.453-2.89-16.842-8.159-22.937-9.129
					c-4.047-0.644-16.36,1.033-16.36,1.033L0.032-161.263z"/>
			</g>
			<g opacity="0.3">
				<path fill="#FFFFFF" d="M256.036-170.091c0,0-20.522,2.343-28.189-1.464c-8.532-4.236-10.776-17.783-21.204-19.203
					c-10.008-1.363-19.656,9.301-26.216,13.318c-9.63,5.898-18.866,9.126-30.457,7.433c-21.162-3.09-35.844,2.206-55.516,7.743
					c-8.862,2.495-21.203,8.699-30.457,8.982c-11.179,0.342-18.13-10.813-27.373-14.247c-5.789-2.151-11.18-1.558-16.963-1.858
					c-6.168-0.32-19.63-0.704-19.63-0.704v-2.957c0,0,14.843,0.656,19.787,0.982c4.451,0.293,13.431,1.007,17.688,2.34
					c7.074,2.216,18.979,12.902,26.361,13.576c7.657,0.699,21.918-7.31,29.442-8.897c14.062-2.967,33.647-11.148,57.058-7.019
					c7.41,1.307,22.158-4.63,29.214-7.246c7.01-2.599,19.277-14.329,26.703-13.466c7.402,0.861,15.849,16.546,22.823,19.171
					c6.302,2.373,26.93,0.558,26.93,0.558L256.036-170.091z"/>
			</g>
			<g opacity="0.3">
				<path fill="#FFFFFF" d="M0-180.857c0,0,40.789-2.065,52.432,7.444c3.447,2.815,6.958,8.584,11.566,9.601
					c3.872,0.855,9.656-0.86,13.493-1.858c8.91-2.318,17.734-6.194,26.601-8.982s17.35-4.685,26.987-4.336
					c7.712,0.279,15.04,2.529,23.132,1.858c10.415-0.863,18.82-3.828,26.987-8.982c8.028-5.066,13.871-12.751,24.288-14.247
					c11.172-1.605,17.34,10.542,24.674,16.106c6.546,4.966,25.875,3.397,25.875,3.397l0.014-2.437c0,0-19.074,0.365-24.661-2.296
					c-4.936-2.35-10.354-13.285-15.291-15.634c-2.535-1.206-8.44-1.627-11.183-1.027c-7.042,1.54-18.397,11.467-24.991,14.379
					c-6.083,2.686-18.721,7.407-25.334,8.102c-5.675,0.596-17.009-2.536-22.709-2.282c-7.429,0.331-21.99,3.828-29.213,5.592
					c-6.652,1.624-19.547,6.414-26.246,7.827c-2.757,0.582-8.477,2.204-11.183,1.416c-3.346-0.974-7.603-7.356-10.727-8.901
					c-8.213-4.063-26.581-7.53-35.718-8.216c-4.689-0.352-18.76,1.039-18.76,1.039L0-180.857z"/>
			</g>
			<g opacity="0.3">
				<path fill="#FFFFFF" d="M256.036-190.638c0,0-16.644,2.708-23.177-0.739c-9.283-4.898-12.726-15.461-24.674-17.035
					c-11.569-1.524-21.74,10.007-29.3,15.486c-9.055,6.563-19.279,2.083-30.842,2.478c-22.367,0.764-39.256,9.587-60.142,14.247
					c-10.377,2.315-14.949,1.145-21.975-5.265c-7.237-6.602-16.975-10.088-28.144-11.15c-11.58-1.101-37.75,1.978-37.75,1.978
					l0.004-2.899c0,0,16.073-2.127,21.495-2.818c11.129-1.417,33.004,0.986,46.105,8.438c6.57,3.737,13.96,8.937,18.941,9.089
					c15.605,0.478,45.262-12.37,60.709-14.635c7.237-1.061,22.158,0.331,29.213-1.598c8.838-2.415,23.385-17.552,32.523-16.889
					c7.853,0.57,18.068,15.983,25.562,18.399c5.104,1.646,21.452,0.013,21.452,0.013V-190.638z"/>
			</g>
			<g opacity="0.3">
				<path fill="#FFFFFF" d="M0.036-202.076c0,0,50.433,1.319,59.336,2.646c4.995,0.744,10.476,1.128,14.65,3.717
					c4.313,2.675,6.168,7.433,11.951,8.982c9.253,2.478,23.539-4.23,32.77-6.194c9.663-2.057,19.662-4.956,30.071-6.194
					c10.409-1.239,19.911,1.09,27.373-5.885c8.097-7.569,21.172-12.283,25.051-11.277c10.971,2.844,17.709,6.077,26.609,10.658
					c11.099,5.712,26.742,3.249,28.189,3.551l0-2.204c0,0-20.934-1.407-27.614-3.335c-7.311-2.111-19.893-13.126-27.502-13.043
					c-7.658,0.083-20.163,11.185-27.388,13.728c-6.001,2.113-18.652,4.051-24.877,5.363c-7.61,1.604-22.829,4.821-30.469,6.276
					c-7.796,1.485-23.531,7.243-31.268,5.478c-3.388-0.773-8.127-6.679-11.297-8.102c-3.789-1.701-12.089-3.093-16.204-3.652
					c-14.728-1.998-59.385-2.714-59.385-2.714L0.036-202.076z"/>
			</g>
			<g opacity="0.3">
				<path fill="#FFFFFF" d="M256.036-211.524c-1.274,0.215-20.561,0.196-30.887-4.631c-8.942-4.18-16.586-10.889-27.373-8.982
					c-11.961,2.114-18.492,7.453-27.373,13.318c-8.469,5.594-22.735,7.531-33.541,8.672c-9.629,1.017-19.186,0.595-28.529,3.407
					c-4.586,1.38-9.612,4.225-14.65,3.097c-4.605-1.031-8.15-5.473-12.337-7.743c-19.147-10.38-43.187-13.665-65.154-9.292
					C13.107-213.063,0-211.529,0-211.529l0.036-4.297c0,0,11.788,0.433,15.789-0.118c8.267-1.139,25.049-3.108,33.322-2.008
					c8.743,1.163,25.323,7.791,33.436,11.251c3.08,1.314,8.55,5.757,11.868,6.205c3.385,0.457,9.978-2.362,13.351-2.896
					c7.052-1.115,21.383-1.618,28.415-2.853c8.144-1.43,24.322-5.205,32.066-8.102c7.457-2.789,20.483-13.691,28.415-14.379
					c7.903-0.685,22.597,7.586,30.355,9.243c7.142,1.526,28.984,3.652,28.984,3.652L256.036-211.524z"/>
			</g>
			<g opacity="0.3">
				<path fill="#FFFFFF" d="M0.049-222.107c0,0,7.808,0.616,11.789,0.067c20.602-2.842,40.51-0.112,61.152,1.239
					c13.109,0.858,22.206,8.499,34.15,11.15c10.299,2.286,20.277-2.351,29.782-4.336c5.575-1.165,11.51-2.186,16.678-3.717
					c6.347-1.88,9.466-5.665,14.692-9.292c8.241-5.719,17.471-5.564,28.193-4.956c11.118,0.631,21.064,4.89,31.37,7.743
					c8.752,2.422,28.181,2.102,28.181,2.102l0-2.297c0,0-20.692-0.069-27.5-1.06c-8.275-1.205-24.054-7.911-32.409-8.282
					c-7.277-0.324-21.875,2.293-28.757,4.679c-4.099,1.421-11.149,6.802-15.177,8.41c-3.832,1.53-11.925,3.36-15.976,4.142
					c-6.806,1.315-20.594,4.115-27.502,3.538c-9.299-0.777-26.499-9.393-35.718-10.841c-15.052-2.364-45.74-2.113-60.938-1.027
					C9.013-224.627,0-224.419,0-224.419L0.049-222.107z"/>
			</g>
			<g opacity="0.3">
				<path fill="#FFFFFF" d="M201.118-237.216c-9.799-1.584-19.609-2.168-29.022,0.31c-11.766,3.097-19.607,10.227-30.983,14.247
					c-18.43,6.514-35.29-4.687-53.73-7.743c-11.369-1.884-22.357-1.836-33.728-3.097c-13.73-1.522-24.705,2.013-38.042,2.168
					c-5.098,0.059-15.548-0.885-15.548-0.885l-0.028-2.406c0,0,11.759,0.742,15.675,0.535c9.624-0.509,28.82-2.801,38.457-2.67
					c8.397,0.115,25.094,2.267,33.436,3.24c12.984,1.515,38.847,8.773,51.808,7.075c8.647-1.133,23.614-11.83,32.18-13.466
					c7.343-1.402,22.439,0.068,29.898,0.571c13.104,0.882,54.545,4.747,54.545,4.747l0,2.368
					C256.036-232.222,217.992-234.489,201.118-237.216z"/>
			</g>
			<g opacity="0.3">
				<path fill="#FFFFFF" d="M0.036-241.841c0,0,14.997-0.306,26.566,1.218c11.948,1.574,18.512,0.048,30.457-1.549
					c13.501-1.804,29.233,2.933,43.11,3.598c18.123,0.869,36.685,3.793,55.2-0.501c18.881-4.379,35.503-8.869,55.516-5.265
					c14.677,2.643,41.187,3.575,45.152,2.492v-2.282c-1.895,0.226-9.655,1.319-12.893,1.255c-8.177-0.161-24.281-3.541-32.409-4.451
					c-4.269-0.478-12.824-1.624-17.117-1.483c-9.952,0.326-29.466,4.996-39.37,6.026c-5.741,0.597-17.28,1.282-23.051,1.278
					c-8.03-0.006-24.05-1.374-32.066-1.826c-10.727-0.605-32.17-2.76-42.907-2.396c-4.396,0.149-13.067,1.937-17.46,2.168
					c-3.077,0.162-9.244-0.146-12.324-0.228c-6.602-0.175-26.412-0.335-26.412-0.335L0.036-241.841z"/>
			</g>
			<g opacity="0.3">
				<path fill="#FFFFFF" d="M253.678-250.401c-5.691-0.057-15.035,1.232-22.746,0.929c-8.096-0.317-16.178-1.336-24.288-2.478
					c-9.623-1.354-17.278-0.994-26.601,1.549c-8.807,2.401-49.335,6.345-58.594,4.837c-20.788-3.384-17.006-6.469-38.444-6.271
					c-17.726,0.164-28.697,3.152-46.364,3.984c-13.236,0.623-36.603-2.321-36.603-2.321l0.013-3.763c0,0,6.524,1.131,8.701,1.192
					c6.369,0.178,19.076,1.454,25.448,1.424c12.208-0.059,36.52-3.053,48.727-3.195c4.74-0.055,14.237,0.237,18.943,0.799
					c4.909,0.586,14.487,3.284,19.4,3.843c3.914,0.446,11.811,0.605,15.748,0.493c10.392-0.294,31.102-2.409,41.424-3.652
					c3.381-0.407,10.064-1.905,13.466-2.06c3.769-0.171,11.3,0.656,15.063,0.919c5.795,0.405,17.356,1.776,23.165,1.826
					c6.488,0.055,24.297-2.577,25.902-1.598v3.783C256.036-250.16,254.27-250.395,253.678-250.401z"/>
			</g>
			<g opacity="0.3">
				<path fill="#FFFFFF" d="M256.036-9.454c-3.488-0.507-31.004,0.624-45.843,0.893c-14.839,0-27.521,4.317-41.82,6.206
					c-15.109,2.158-32.933-0.216-47.486-4.587c-12.425-3.731-24.821-1.351-37.801,1.203C75.816-4.308,58.752-0.631,50.927-0.9
					c-5.666-0.27-15.083-0.996-21.059-2.134C16.063-5.664,3.033-9.366,0.036-9.451v-1.844c0,0,12.986,1.099,22.433,1.928
					c5.101,0.447,15.652,3.913,28.743,2.914c20.107-1.535,46.207-8.617,70.512-2.966c11.263,2.619,34.428,5.196,45.988,4.931
					c10.697-0.245,31.678-5.344,42.337-6.276c11.457-1.002,42.536-1.466,45.989-0.531L256.036-9.454z"/>
			</g>
		</g>
	</g>
</pattern>
<pattern  x="-124.399" y="-329.142" width="256" height="256" patternUnits="userSpaceOnUse" id="New_Pattern_61" viewBox="0 -256 256 256" overflow="visible">
	<g>
		<polygon fill="none" points="0,-256 256,-256 256,0 0,0 		"/>
		<path opacity="0.5" fill="#FDFDFE" d="M68.74-249.678c0.164-0.799,1.755-2.12,2.435-2.569c2.323-1.532,8.619-1.196,11.132,0
			c2.989,1.423,7.256,6.32,8.67,9.313c1.261,2.667,0.026,10.363,2.034,12.524c2.422,2.606,10.941,1.609,13.702,3.854
			c1.17,0.951,2.425,3.887,2.783,5.352c0.648,2.652-1.764,8.836,0,10.918c1.052,1.242,3.347,1.799,4.973,1.873
			c1.766,0.08,3.565-1.257,4.019-0.803c0.568,0.568,0.505,2.587,0,3.211c-0.646,0.798-2.992,0.892-4.019,0.856
			c-2.128-0.075-6.438-1.192-7.756-2.863c-3.292-4.175-0.273-9.689-1.26-12.481c-0.297-0.84-0.777-1.971-1.469-2.532
			c-2.802-2.274-11.981-1.709-14.397-4.389c-2.226-2.468-1.531-10.827-2.944-13.835c-1.061-2.258-4.095-5.91-6.262-7.145
			c-1.68-0.957-5.876-1.264-7.707-0.642c-0.706,0.24-2.047,1.19-2.783,1.07C68.737-248.153,68.675-249.363,68.74-249.678z"/>
		<path opacity="0.5" fill="#FDFDFE" d="M131.647-238.651c0.164-0.799,1.755-2.12,2.435-2.569c2.323-1.532,8.62-1.196,11.132,0
			c2.989,1.423,7.256,6.32,8.67,9.313c1.261,2.667,0.026,10.363,2.034,12.524c2.422,2.606,10.941,1.609,13.702,3.854
			c1.17,0.951,2.425,3.887,2.783,5.352c0.648,2.652-1.764,8.836,0,10.918c1.052,1.242,3.347,1.799,4.973,1.873
			c1.766,0.08,3.565-1.257,4.019-0.803c0.568,0.568,0.505,2.587,0,3.211c-0.646,0.798-2.992,0.892-4.019,0.856
			c-2.128-0.075-6.438-1.192-7.756-2.863c-3.292-4.175-0.273-9.689-1.26-12.481c-0.297-0.84-0.777-1.971-1.469-2.532
			c-2.802-2.274-11.981-1.709-14.397-4.389c-2.226-2.468-1.531-10.827-2.944-13.835c-1.061-2.258-4.094-5.91-6.262-7.145
			c-1.68-0.957-5.876-1.264-7.707-0.642c-0.706,0.24-2.047,1.19-2.783,1.07C131.644-237.125,131.583-238.336,131.647-238.651z"/>
		<path opacity="0.5" fill="#FDFDFE" d="M197.004-248.793c0.164-0.799,1.755-2.12,2.435-2.569c2.323-1.532,8.619-1.196,11.132,0
			c2.989,1.423,7.256,6.32,8.67,9.313c1.261,2.667,0.026,10.363,2.034,12.524c2.422,2.606,10.941,1.609,13.702,3.854
			c1.17,0.951,2.425,3.887,2.783,5.352c0.648,2.652-1.764,8.836,0,10.918c1.052,1.242,3.347,1.799,4.973,1.873
			c1.766,0.08,3.565-1.257,4.019-0.803c0.568,0.568,0.505,2.587,0,3.211c-0.646,0.798-2.992,0.892-4.019,0.856
			c-2.128-0.075-6.438-1.192-7.756-2.863c-3.292-4.175-0.273-9.689-1.26-12.481c-0.297-0.84-0.777-1.971-1.469-2.532
			c-2.802-2.274-11.981-1.709-14.397-4.389c-2.226-2.468-1.531-10.827-2.944-13.835c-1.061-2.258-4.095-5.91-6.262-7.145
			c-1.68-0.957-5.876-1.264-7.707-0.642c-0.706,0.24-2.047,1.19-2.783,1.07C197.001-247.268,196.939-248.478,197.004-248.793z"/>
		<path opacity="0.5" fill="#FDFDFE" d="M4.054-238.514c0.164-0.799,1.755-2.12,2.435-2.569c2.323-1.532,8.619-1.196,11.132,0
			c2.989,1.423,7.256,6.32,8.67,9.313c1.261,2.667,0.026,10.363,2.034,12.524c2.422,2.606,10.941,1.609,13.702,3.854
			c1.17,0.951,2.425,3.887,2.783,5.352c0.648,2.652-1.764,8.836,0,10.918c1.052,1.242,3.347,1.799,4.973,1.873
			c1.766,0.08,3.565-1.257,4.019-0.803c0.568,0.568,0.505,2.587,0,3.211c-0.646,0.798-2.992,0.892-4.019,0.856
			c-2.128-0.075-6.438-1.192-7.756-2.863c-3.292-4.175-0.273-9.689-1.26-12.481c-0.297-0.84-0.777-1.971-1.469-2.532
			c-2.802-2.274-11.981-1.709-14.397-4.389c-2.226-2.468-1.531-10.827-2.944-13.835c-1.061-2.258-4.095-5.91-6.262-7.145
			c-1.68-0.957-5.876-1.264-7.707-0.642c-0.706,0.24-2.047,1.19-2.783,1.07C4.051-236.989,3.99-238.2,4.054-238.514z"/>
		<path opacity="0.5" fill="#FDFDFE" d="M73.74-188.678c0.164-0.799,1.755-2.12,2.435-2.569c2.323-1.532,8.619-1.196,11.132,0
			c2.989,1.423,7.256,6.32,8.67,9.313c1.261,2.667,0.026,10.363,2.034,12.524c2.422,2.606,10.941,1.609,13.702,3.854
			c1.17,0.951,2.425,3.887,2.783,5.352c0.648,2.652-1.764,8.836,0,10.918c1.052,1.242,3.347,1.799,4.973,1.873
			c1.766,0.08,3.565-1.257,4.019-0.803c0.568,0.568,0.505,2.587,0,3.211c-0.646,0.798-2.992,0.892-4.019,0.856
			c-2.128-0.075-6.438-1.192-7.756-2.863c-3.292-4.175-0.273-9.689-1.26-12.481c-0.297-0.84-0.777-1.971-1.469-2.532
			c-2.802-2.274-11.981-1.709-14.397-4.389c-2.226-2.468-1.531-10.827-2.944-13.835c-1.061-2.258-4.095-5.91-6.262-7.145
			c-1.68-0.957-5.876-1.264-7.707-0.642c-0.706,0.24-2.047,1.19-2.783,1.07C73.737-187.153,73.675-188.363,73.74-188.678z"/>
		<path opacity="0.5" fill="#FDFDFE" d="M136.647-173.651c0.164-0.799,1.755-2.12,2.435-2.569c2.323-1.532,8.62-1.196,11.132,0
			c2.989,1.423,7.256,6.32,8.67,9.313c1.261,2.667,0.026,10.363,2.034,12.524c2.422,2.606,10.941,1.609,13.702,3.854
			c1.17,0.951,2.425,3.887,2.783,5.352c0.648,2.652-1.764,8.836,0,10.918c1.052,1.242,3.347,1.799,4.973,1.873
			c1.766,0.08,3.565-1.257,4.019-0.803c0.568,0.568,0.505,2.587,0,3.211c-0.646,0.798-2.992,0.892-4.019,0.856
			c-2.128-0.075-6.438-1.192-7.756-2.863c-3.292-4.175-0.273-9.689-1.26-12.481c-0.297-0.84-0.777-1.971-1.469-2.532
			c-2.802-2.274-11.981-1.709-14.397-4.389c-2.226-2.468-1.531-10.827-2.944-13.835c-1.061-2.258-4.094-5.91-6.262-7.145
			c-1.68-0.957-5.876-1.264-7.707-0.642c-0.706,0.24-2.047,1.19-2.783,1.07C136.644-172.125,136.583-173.336,136.647-173.651z"/>
		<path opacity="0.5" fill="#FDFDFE" d="M202.004-187.793c0.164-0.799,1.755-2.12,2.435-2.569c2.323-1.532,8.619-1.196,11.132,0
			c2.989,1.423,7.256,6.32,8.67,9.313c1.261,2.667,0.026,10.363,2.034,12.524c2.422,2.606,10.941,1.609,13.702,3.854
			c1.17,0.951,2.425,3.887,2.783,5.352c0.648,2.652-1.764,8.836,0,10.918c1.052,1.242,3.347,1.799,4.973,1.873
			c1.766,0.08,3.565-1.257,4.019-0.803c0.568,0.568,0.505,2.587,0,3.211c-0.646,0.798-2.992,0.892-4.019,0.856
			c-2.128-0.075-6.438-1.192-7.756-2.863c-3.292-4.175-0.273-9.689-1.26-12.481c-0.297-0.84-0.777-1.971-1.469-2.532
			c-2.802-2.274-11.981-1.709-14.397-4.389c-2.226-2.468-1.531-10.827-2.944-13.835c-1.061-2.258-4.095-5.91-6.262-7.145
			c-1.68-0.957-5.876-1.264-7.707-0.642c-0.706,0.24-2.047,1.19-2.783,1.07C202.001-186.268,201.939-187.478,202.004-187.793z"/>
		<path opacity="0.5" fill="#FDFDFE" d="M9.054-177.514c0.164-0.799,1.755-2.12,2.435-2.569c2.323-1.532,8.619-1.196,11.132,0
			c2.989,1.423,7.256,6.32,8.67,9.313c1.261,2.667,0.026,10.363,2.034,12.524c2.422,2.606,10.941,1.609,13.702,3.854
			c1.17,0.951,2.425,3.887,2.783,5.352c0.648,2.652-1.764,8.836,0,10.918c1.052,1.242,3.347,1.799,4.973,1.873
			c1.766,0.08,3.565-1.257,4.019-0.803c0.568,0.568,0.505,2.587,0,3.211c-0.646,0.798-2.992,0.892-4.019,0.856
			c-2.128-0.075-6.438-1.192-7.756-2.863c-3.292-4.175-0.273-9.689-1.26-12.481c-0.297-0.84-0.777-1.971-1.469-2.532
			c-2.802-2.274-11.981-1.709-14.397-4.389c-2.226-2.468-1.531-10.827-2.944-13.835c-1.061-2.258-4.095-5.91-6.262-7.145
			c-1.68-0.957-5.876-1.264-7.707-0.642c-0.706,0.24-2.047,1.19-2.783,1.07C9.051-175.989,8.99-177.2,9.054-177.514z"/>
		<path opacity="0.5" fill="#FDFDFE" d="M68.548-123.29c0.164-0.799,1.755-2.12,2.435-2.569c2.323-1.532,8.619-1.196,11.132,0
			c2.989,1.423,7.256,6.32,8.67,9.313c1.261,2.667,0.026,10.363,2.034,12.524c2.422,2.606,10.941,1.609,13.702,3.854
			c1.17,0.951,2.425,3.887,2.783,5.352c0.648,2.652-1.764,8.836,0,10.918c1.052,1.242,3.347,1.799,4.973,1.873
			c1.766,0.08,3.565-1.257,4.019-0.803c0.568,0.568,0.505,2.587,0,3.211c-0.646,0.798-2.992,0.892-4.019,0.856
			c-2.128-0.075-6.438-1.192-7.756-2.863c-3.292-4.175-0.273-9.689-1.26-12.481c-0.297-0.84-0.777-1.971-1.469-2.532
			c-2.802-2.274-11.981-1.709-14.397-4.389c-2.226-2.468-1.531-10.827-2.944-13.835c-1.061-2.258-4.095-5.91-6.262-7.145
			c-1.68-0.957-5.876-1.264-7.707-0.642c-0.706,0.24-2.047,1.19-2.783,1.07C68.545-121.764,68.484-122.975,68.548-123.29z"/>
		<path opacity="0.5" fill="#FDFDFE" d="M131.456-112.262c0.164-0.799,1.755-2.12,2.435-2.569c2.323-1.532,8.619-1.196,11.132,0
			c2.989,1.423,7.256,6.32,8.671,9.313c1.261,2.667,0.026,10.363,2.034,12.524c2.422,2.606,10.941,1.609,13.702,3.854
			c1.17,0.951,2.425,3.887,2.783,5.352c0.648,2.652-1.764,8.836,0,10.918c1.052,1.242,3.347,1.799,4.973,1.873
			c1.766,0.08,3.565-1.257,4.019-0.803c0.568,0.568,0.505,2.587,0,3.211c-0.646,0.798-2.992,0.892-4.019,0.856
			c-2.128-0.075-6.438-1.192-7.756-2.863c-3.292-4.175-0.273-9.689-1.26-12.481c-0.297-0.84-0.777-1.971-1.469-2.532
			c-2.802-2.274-11.981-1.709-14.397-4.389c-2.226-2.468-1.531-10.827-2.944-13.835c-1.061-2.258-4.095-5.91-6.262-7.145
			c-1.68-0.957-5.876-1.264-7.707-0.642c-0.706,0.24-2.047,1.19-2.783,1.07C131.452-110.737,131.391-111.948,131.456-112.262z"/>
		<path opacity="0.5" fill="#FDFDFE" d="M196.812-122.405c0.164-0.799,1.755-2.12,2.435-2.569c2.323-1.532,8.62-1.196,11.132,0
			c2.989,1.423,7.256,6.32,8.67,9.313c1.261,2.667,0.026,10.363,2.034,12.524c2.422,2.606,10.941,1.609,13.702,3.854
			c1.17,0.951,2.425,3.887,2.783,5.352c0.648,2.652-1.764,8.836,0,10.918c1.052,1.242,3.347,1.799,4.973,1.873
			c1.766,0.08,3.565-1.257,4.019-0.803c0.568,0.568,0.505,2.587,0,3.211c-0.646,0.798-2.992,0.892-4.019,0.856
			c-2.128-0.075-6.438-1.192-7.756-2.863c-3.292-4.175-0.273-9.689-1.26-12.481c-0.297-0.84-0.777-1.971-1.469-2.532
			c-2.802-2.274-11.981-1.709-14.397-4.389c-2.226-2.468-1.531-10.827-2.944-13.835c-1.061-2.258-4.094-5.91-6.262-7.145
			c-1.68-0.957-5.876-1.264-7.707-0.642c-0.706,0.24-2.047,1.19-2.783,1.07C196.809-120.88,196.748-122.09,196.812-122.405z"/>
		<path opacity="0.5" fill="#FDFDFE" d="M3.863-112.126c0.164-0.799,1.755-2.12,2.435-2.569c2.323-1.532,8.619-1.196,11.132,0
			c2.989,1.423,7.256,6.32,8.67,9.313c1.261,2.667,0.026,10.363,2.034,12.524c2.422,2.606,10.941,1.609,13.702,3.854
			c1.17,0.951,2.425,3.887,2.783,5.352c0.648,2.652-1.764,8.836,0,10.918c1.052,1.242,3.347,1.799,4.973,1.873
			c1.766,0.08,3.565-1.257,4.019-0.803c0.568,0.568,0.505,2.587,0,3.211c-0.646,0.798-2.992,0.892-4.019,0.856
			c-2.128-0.075-6.438-1.192-7.756-2.863c-3.292-4.175-0.273-9.689-1.26-12.481c-0.297-0.84-0.777-1.971-1.469-2.532
			c-2.802-2.274-11.981-1.709-14.397-4.389c-2.226-2.468-1.531-10.827-2.944-13.835c-1.061-2.258-4.095-5.91-6.262-7.145
			c-1.68-0.957-5.876-1.264-7.707-0.642c-0.706,0.24-2.047,1.19-2.783,1.07C3.86-110.601,3.798-111.811,3.863-112.126z"/>
		<path opacity="0.5" fill="#FDFDFE" d="M73.548-62.29c0.164-0.799,1.755-2.12,2.435-2.569c2.323-1.532,8.619-1.196,11.132,0
			c2.989,1.423,7.256,6.32,8.67,9.313c1.261,2.667,0.026,10.363,2.034,12.524c2.422,2.606,10.941,1.609,13.702,3.854
			c1.17,0.951,2.425,3.887,2.783,5.352c0.648,2.652-1.764,8.836,0,10.918c1.052,1.242,3.347,1.799,4.973,1.873
			c1.766,0.08,3.565-1.257,4.019-0.803c0.568,0.568,0.505,2.587,0,3.211c-0.646,0.798-2.992,0.892-4.019,0.856
			c-2.128-0.075-6.438-1.192-7.756-2.863c-3.292-4.175-0.273-9.689-1.26-12.481c-0.297-0.84-0.777-1.971-1.469-2.532
			c-2.802-2.274-11.981-1.709-14.397-4.389c-2.226-2.468-1.531-10.827-2.944-13.835c-1.061-2.258-4.095-5.91-6.262-7.145
			c-1.68-0.957-5.876-1.264-7.707-0.642c-0.706,0.24-2.047,1.19-2.783,1.07C73.545-60.764,73.484-61.975,73.548-62.29z"/>
		<path opacity="0.5" fill="#FDFDFE" d="M136.456-47.262c0.164-0.799,1.755-2.12,2.435-2.569c2.323-1.532,8.619-1.196,11.132,0
			c2.989,1.423,7.256,6.32,8.671,9.313c1.261,2.667,0.026,10.363,2.034,12.524c2.422,2.606,10.941,1.609,13.702,3.854
			c1.17,0.951,2.425,3.887,2.783,5.352c0.648,2.652-1.764,8.836,0,10.918c1.052,1.242,3.347,1.799,4.973,1.873
			c1.766,0.08,3.565-1.257,4.019-0.803c0.568,0.568,0.505,2.587,0,3.211c-0.646,0.798-2.992,0.892-4.019,0.856
			c-2.128-0.075-6.438-1.192-7.756-2.863c-3.292-4.175-0.273-9.689-1.26-12.481c-0.297-0.84-0.777-1.971-1.469-2.532
			c-2.802-2.274-11.981-1.709-14.397-4.389c-2.226-2.468-1.531-10.827-2.944-13.835c-1.061-2.258-4.095-5.91-6.262-7.145
			c-1.68-0.957-5.876-1.264-7.707-0.642c-0.706,0.24-2.047,1.19-2.783,1.07C136.452-45.737,136.391-46.948,136.456-47.262z"/>
		<path opacity="0.5" fill="#FDFDFE" d="M201.812-61.405c0.164-0.799,1.755-2.12,2.435-2.569c2.323-1.532,8.62-1.196,11.132,0
			c2.989,1.423,7.256,6.32,8.67,9.313c1.261,2.667,0.026,10.363,2.034,12.524c2.422,2.606,10.941,1.609,13.702,3.854
			c1.17,0.951,2.425,3.887,2.783,5.352c0.648,2.652-1.764,8.836,0,10.918c1.052,1.242,3.347,1.799,4.973,1.873
			c1.766,0.08,3.565-1.257,4.019-0.803c0.568,0.568,0.505,2.587,0,3.211c-0.646,0.798-2.992,0.892-4.019,0.856
			c-2.128-0.075-6.438-1.192-7.756-2.863c-3.292-4.175-0.273-9.689-1.26-12.481c-0.297-0.84-0.777-1.971-1.469-2.532
			c-2.802-2.274-11.981-1.709-14.397-4.389c-2.226-2.468-1.531-10.827-2.944-13.835c-1.061-2.258-4.094-5.91-6.262-7.145
			c-1.68-0.957-5.876-1.264-7.707-0.642c-0.706,0.24-2.047,1.19-2.783,1.07C201.809-59.88,201.748-61.09,201.812-61.405z"/>
		<path opacity="0.5" fill="#FDFDFE" d="M8.863-51.126c0.164-0.799,1.755-2.12,2.435-2.569c2.323-1.532,8.619-1.196,11.132,0
			c2.989,1.423,7.256,6.32,8.67,9.313c1.261,2.667,0.026,10.363,2.034,12.524c2.422,2.606,10.941,1.609,13.702,3.854
			c1.17,0.951,2.425,3.887,2.783,5.352c0.648,2.652-1.764,8.836,0,10.918c1.052,1.242,3.347,1.799,4.973,1.873
			c1.766,0.08,3.565-1.257,4.019-0.803c0.568,0.568,0.505,2.587,0,3.211c-0.646,0.798-2.992,0.892-4.019,0.856
			c-2.128-0.075-6.438-1.192-7.756-2.863c-3.292-4.175-0.273-9.689-1.26-12.481c-0.297-0.84-0.777-1.971-1.469-2.532
			c-2.802-2.274-11.981-1.709-14.397-4.389c-2.226-2.468-1.531-10.827-2.944-13.835c-1.061-2.258-4.095-5.91-6.262-7.145
			c-1.68-0.957-5.876-1.264-7.707-0.642c-0.706,0.24-2.047,1.19-2.783,1.07C8.86-49.601,8.798-50.811,8.863-51.126z"/>
	</g>
</pattern>
<linearGradient id="SVGID_1_" gradientUnits="userSpaceOnUse" x1="82.0966" y1="-2.108475e-05" x2="82.0966" y2="236.1094">
	<stop  offset="0" style="stop-color:#788FC9"/>
	<stop  offset="0.0537" style="stop-color:#7780BB"/>
	<stop  offset="0.133" style="stop-color:#756FAD"/>
	<stop  offset="0.217" style="stop-color:#7362A3"/>
	<stop  offset="0.3067" style="stop-color:#71579C"/>
	<stop  offset="0.4061" style="stop-color:#715199"/>
	<stop  offset="0.5344" style="stop-color:#714F97"/>
	<stop  offset="1" style="stop-color:#3C63AE"/>
</linearGradient>
<polygon fill="url(#SVGID_1_)" points="164.089,236.109 0.104,236.109 0.089,0 164.104,0 "/>
<path opacity="0.1" fill="#EFE3DA" d="M49.137,53.686c-2.545-1.197-8.492-1.9-11.193-1.118c-0.882,0.256-2.892,2.262-2.892,2.262
	s-2.64-1.552-3.619-1.802c-0.616-0.157-2.542-0.094-2.542-0.094s-1.063-5.083-2.317-6.142c-1.849-1.56-9.498-1.845-9.498-1.845
	s-0.744-3.212-1.522-3.918c-0.626-0.568-3.257-0.911-3.257-0.911l-1.248-0.661c0,0,3.159-4.71-0.876-7.142
	c-1.108-0.668-3.931-0.497-3.931-0.497s-2.975-2.581-5.58-3.367c-0.541-0.163,0.064,0.011-0.604-0.088L0.114,64.4
	c18.026,0.729,35.749-2.766,43.031-3.172c3.352-0.187,11.348-1.101,12.347-3.795C56.124,55.731,50.78,54.459,49.137,53.686z"/>
<path opacity="0.1" fill="#F4EFED" d="M164.106,7.037c-0.039,0.01,0.009-0.183-0.031-0.172c-2.948,0.837-2.984,4.93-2.984,4.93
	s-6.454-4.185-8.935-4.467c-1.324-0.151-4.358,0.204-5.182,1.251c-0.497,0.632,0,3.217,0,3.217s-6.344,0-10.722,2.502
	c-3.868,2.21-6.899,3.646-11.437,13.402c-1.787,3.842-1.072,9.471-1.072,9.471s-3.325,1.61-3.753,2.681
	c-0.439,1.098,0.893,4.646,0.893,4.646h-0.893c0,0-4.006-0.843-5.361-0.804c-1.414,0.041-5.54,1.161-5.54,1.161l-0.635-1.87
	c0,0-1.241-1.882-4.189-1.882c-6.26,0-11.642,4.44-11.794,5.182c-0.145,0.707,0.447,2.32,1.072,2.68
	c1.355,0.782,4.69,0.155,6.254,0.179c0.588,0.009,2.323,0.357,2.323,0.357s2.353,4.165,3.395,5.361
	c2.229,2.557,7.353,6.295,10.603,7.267c3.929,1.176,27.489,2.192,47.972,2.831L164.106,7.037z"/>
<path opacity="0.1" fill="#E1DBE1" d="M164.115,10.674V6.841c-2.943,0.841-3.033,4.954-3.033,4.954s-6.454-4.185-8.935-4.467
	c-1.324-0.151-4.358,0.204-5.182,1.251c0,0,3.628-0.044,4.774,0.298c1.444,0.43,3.977,2.159,5.242,2.978
	c0.93,0.602,5.599,4.289,5.599,4.289S161.587,12.915,164.115,10.674z"/>
<path opacity="0.1" fill="#EFE3DA" d="M80.418,6.384c-2.795,1.743-8.903,4.341-12.036,5.358c-3.397,1.102-10.451,2.388-13.976,2.96
	c-6.871,1.116-20.704,3.125-27.665,3.146c-3.057,0.009-9.156-0.725-12.156-1.311c-0.918-0.179-3.847-1.06-3.847-1.06
	s-0.265-0.85-0.117-1.11c0.805-1.409,6.331-1.438,6.331-1.438s-0.127-1.971,2.033-3.081c3.945-2.027,5.817-2.782,5.817-2.782
	s-1.046-3.082,0.205-7.051l20.185,0.028c0,0,4.299,4.949,4.332,3.549c0.045-1.922,4.158-3.064,8.055-2.564
	c3.861,0.496,5.66,3.807,5.66,3.807s0.201-1.881,3.587-2.153c2.452-0.197,4.03,2.903,4.03,2.903s3.012-1.039,4.055-1.213
	c1.185-0.198,3.608-0.336,4.8-0.194c0.643,0.077,2.357,0.079,2.491,0.712C82.325,5.46,80.912,6.076,80.418,6.384z"/>
<path opacity="0.1" fill="#CECCCE" d="M10.987,15.508c-0.176-0.019-0.353,0.269-0.365-1.141c-0.01-1.212,6.331-1.438,6.331-1.438
	s-0.127-1.971,2.033-3.081c3.945-2.027,5.817-2.782,5.817-2.782s-1.139-2.99,0.204-7.051l7.144,0
	c-1.324,4.229-2.13,8.819-2.13,8.819s-2.583-0.081-5.504,1.928c-2.052,1.411-3.861,3.917-3.861,3.917s-6.42-0.928-7.655-0.738
	c-1.518,0.234-1.662,0.44-1.851,0.634C10.985,14.745,10.987,15.508,10.987,15.508z"/>
<path opacity="0.1" fill="#CECCCE" d="M35.065,54.843c0,0-2.653-1.553-3.633-1.802c-0.616-0.157-2.529-0.094-2.529-0.094
	s-1.063-5.083-2.317-6.142c-1.849-1.56-9.498-1.844-9.498-1.844s-0.744-3.212-1.522-3.918c-0.626-0.568-3.257-0.911-3.257-0.911
	l-1.248-0.661c0,0,3.159-4.71-0.876-7.142c-1.108-0.668-3.931-0.497-3.931-0.497s-2.975-2.581-5.58-3.367
	C0.098,28.291,0.642,28.576,0,28.48v4.021c2.931,1.384,6.094,5.167,6.691,7.904c0.082,0.375-0.319,1.502-0.319,1.502
	s-2.196-1.135-4.65-0.633c-1.233,0.252-0.836,0.718-1.55,1.16v1.775c1.48-0.048,2.231-0.009,4.116,0.649
	c4.395,1.533,4.189,5.948,4.189,5.948s1.476-1.509,3.491-1.845c2.583-0.431,4.363,1.281,4.363,1.281s0.403-2.268,1.018-2.595
	c1.21-0.645,5.354,1.186,5.354,1.186l0.221,1.127c0,0-2.53-0.605-5.629,0.91c-1.877,0.918-2.406,2.741-2.406,2.741
	s1.633-0.24,2.181-0.248c1.754-0.027,5.299,0.436,6.936,1.069c1.402,0.543,5.013,3.324,5.013,3.324l0.63,0.747l0.246-1.307
	l-0.521-1.916c0,0,2.583,0,3.416,0.197c0.652,0.155,3.051,1.15,3.051,1.15s0.318-1.758,0.677-2.279
	c0.324-0.469,1.439-1.768,1.439-1.768C37.076,52.836,35.065,54.843,35.065,54.843z"/>
<linearGradient id="SVGID_2_" gradientUnits="userSpaceOnUse" x1="82.0806" y1="219.3735" x2="82.0806" y2="138.9153">
	<stop  offset="0.486" style="stop-color:#005664"/>
	<stop  offset="0.5572" style="stop-color:#005E68"/>
	<stop  offset="0.691" style="stop-color:#0F7572"/>
	<stop  offset="0.8716" style="stop-color:#65A17E"/>
	<stop  offset="1" style="stop-color:#A0D185"/>
</linearGradient>
<path fill="url(#SVGID_2_)" d="M164.09,143.756c-1.856-0.078-3.504-0.182-4.692-0.406c-0.99-0.186-2.78-0.871-3.67-1.204
	c-0.644-0.241-2.133-0.635-2.486-1.053c-0.154-0.182,0.193-0.661,0-0.828c-0.642-0.556-3.059-0.786-4.143-0.828
	c-0.811-0.031-2.677-0.021-3.196,0.376c-0.265,0.202,0.263,0.85,0,1.053c-0.287,0.222-1.325,0.197-1.776,0.226
	c-0.412,0.026-1.364,0.186-1.657,0c-0.167-0.106,0-0.451,0-0.602c0-0.207,0.114-0.634,0-0.827c-0.126-0.214-0.619-0.594-0.947-0.689
	c-0.404-0.117-1.335-0.032-1.776,0c-0.664,0.049-2.073,0.13-2.604,0.388c-0.642,0.312-1.056,1.394-1.539,1.805
	c-0.225,0.192-0.717,0.769-1.065,0.677c-0.164-0.043,0.126-0.372,0-0.451c-0.188-0.12-0.799,0-1.065,0c-0.237,0-0.724,0.05-0.947,0
	c-0.179-0.04-0.51-0.192-0.592-0.301c-0.051-0.068,0.095-0.256,0-0.301c-0.324-0.152-1.143,0.347-1.539,0.301
	c-0.332-0.039-0.741-0.468-1.065-0.527c-0.258-0.046-0.815,0.014-1.065,0.075c-0.238,0.058-0.574,0.382-0.829,0.376
	c-0.231-0.005-0.612-0.243-0.71-0.376c-0.113-0.153,0.188-0.557,0-0.677c-0.167-0.106-0.71,0-0.947,0c-0.385,0-1.267-0.173-1.539,0
	c-0.209,0.133,0.149,0.59,0,0.752c-0.12,0.131-0.622,0.377-0.829,0.301c-0.256-0.094,0.191-0.609,0-0.752
	c-0.233-0.175-1.064-0.18-1.421-0.15c-0.354,0.03-1.109,0.185-1.302,0.376c-0.112,0.111,0,0.395,0,0.527c0,0.226,0.057,0.68,0,0.903
	c-0.075,0.293-0.517,0.835-0.592,1.128c-0.033,0.13,0.105,0.413,0,0.527c-0.155,0.167-0.77,0.328-1.065,0.376
	c-0.286,0.047-0.974,0.133-1.184,0c-0.209-0.133,0.196-0.611,0-0.752c-0.158-0.114-0.727-0.135-0.947-0.075
	c-0.272,0.073-0.617,0.423-0.71,0.602c-0.084,0.161,0.218,0.58,0,0.677c-0.36,0.161-1.404-0.148-1.657-0.376
	c-0.136-0.123,0.167-0.495,0-0.602c-0.314-0.199-1.462-0.199-1.776,0c-0.105,0.067,0,0.282,0,0.376c0,0.113,0.159,0.401,0,0.451
	c-0.265,0.084-0.815-0.283-0.947-0.451c-0.119-0.151,0.172-0.548,0-0.677c-0.233-0.175-1.061-0.146-1.421-0.15
	c-0.686-0.008-2.27-0.102-2.723,0.226c-0.273,0.198,0,0.79,0,1.053v0.677c0,0.169,0.169,0.546,0,0.677
	c-0.096,0.074-0.445,0.096-0.592,0.075c-0.289-0.042-0.663-0.398-0.947-0.451c-0.455-0.086-1.569-0.144-1.894,0.075
	c-0.142,0.096,0.104,0.413,0,0.527c-0.12,0.131-0.622,0.377-0.829,0.301c-0.256-0.094,0.156-0.592,0-0.752
	c-0.139-0.143-0.689-0.262-0.947-0.301c-0.173-0.026-0.564-0.064-0.71,0c-0.68,0.297-0.36,1.973-1.184,1.956
	c-0.496-0.01-0.163-1.046-0.592-1.204c-0.236-0.087-0.848,0.045-1.065,0.15c-0.401,0.193-0.575,0.913-0.947,1.128
	c-0.451,0.261-1.66,0.5-2.249,0.602c-2.651,0.456-8.151,0.79-10.891,0.903c-0.384,0.016-1.267,0.173-1.539,0
	c-0.23-0.146,0.113-0.633,0-0.828c-0.095-0.163-0.462-0.454-0.71-0.527c-0.323-0.094-1.092-0.086-1.421,0
	c-0.193,0.051-0.388,0.407-0.592,0.376c-0.182-0.027-0.256-0.333-0.237-0.451c0.042-0.26,0.721-0.651,0.829-0.903
	c0.046-0.109,0-0.339,0-0.451c0-0.207,0.171-0.652,0-0.828c-0.104-0.107-0.519-0.193-0.71-0.226
	c-0.458-0.078-1.474-0.216-1.894-0.075c-0.306,0.102-0.421,0.633-0.71,0.752c-0.2,0.083-0.768,0.176-0.947,0.075
	c-0.177-0.1-0.069-0.458,0-0.602c0.124-0.26,0.823-0.643,0.947-0.903c0.103-0.216,0.181-0.709,0-0.903
	c-0.189-0.203-0.931-0.451-1.302-0.451c-0.437-0.001-1.315,0.288-1.539,0.527c-0.137,0.145,0.254,0.625,0,0.677
	c-0.242,0.049-0.514-0.372-0.592-0.527c-0.135-0.269,0-0.846,0-1.128v-0.226c0-0.132,0.146-0.434,0-0.527
	c-0.167-0.106-0.714-0.027-0.947,0c-0.405,0.048-1.219,0.211-1.539,0.376c-0.465,0.24-1.132,0.914-1.302,1.279
	c-0.101,0.216,0,0.677,0,0.903c0,0.245,0.365,0.901,0,0.978c-0.281,0.06-0.617-0.423-0.71-0.602c-0.14-0.268,0.284-0.912,0-1.128
	c-0.212-0.161-0.979-0.195-1.302-0.15c-0.353,0.049-1.017,0.323-1.184,0.527c-0.096,0.117,0,0.395,0,0.527
	c0,0.207,0.138,0.64,0,0.827c-0.098,0.133-0.484,0.406-0.71,0.376c-0.583-0.078-0.929-0.986-1.065-1.354
	c-0.109-0.293,0.35-1.001,0-1.204c-0.483-0.28-2.029-0.047-2.604,0.151c-1.26,0.434-2.876,2.055-3.551,2.859
	c-0.816,0.97-1.296,3.223-2.131,4.188c-1.563,1.806-5.847,4.986-8.286,6.344c-3.68,2.05-11.97,5.564-16.573,6.62
	c-4.661,1.069-14.706,1.448-19.65,1.655c-1.89,0.079-5.682,0-7.576,0c-1.58,0-2.849,0.114-5.202,0.139l0.033,54.455l163.965-0.491
	L164.09,143.756z"/>
<linearGradient id="SVGID_3_" gradientUnits="userSpaceOnUse" x1="82.0973" y1="236.1094" x2="82.0973" y2="159.1443">
	<stop  offset="0.0326" style="stop-color:#00752F"/>
	<stop  offset="0.2262" style="stop-color:#1C8033"/>
	<stop  offset="0.6067" style="stop-color:#559E3E"/>
	<stop  offset="1" style="stop-color:#91C84A"/>
</linearGradient>
<path fill="url(#SVGID_3_)" d="M164.09,161.443c-3.892-0.902-9.274-1.401-12.751-2.075c-4.403-0.853-14.054,1.074-18.33,0
	c-3.071-0.771-38.069,4.356-41.31,4.758c-12.788,1.585-13.422,0.184-61.154,4.326c-4.899,0.425-18.029-0.314-30.44-1.114l0,68.77
	l163.984-0.016L164.09,161.443z"/>
<linearGradient id="SVGID_4_" gradientUnits="userSpaceOnUse" x1="82.9324" y1="85.0484" x2="111.3303" y2="85.0484">
	<stop  offset="0.1846" style="stop-color:#E5C138"/>
	<stop  offset="0.1921" style="stop-color:#E5C137"/>
	<stop  offset="0.4562" style="stop-color:#F0B425"/>
	<stop  offset="0.6741" style="stop-color:#F6AC1B"/>
	<stop  offset="0.8178" style="stop-color:#FBAA19"/>
</linearGradient>
<path fill="url(#SVGID_4_)" d="M109.281,120.53c-4.803,2.275-17.344-10.622-20.015-15.216c-3.837-6.6-2.552-22.836-4.611-30.188
	c-0.157-0.562-1.64-1.895-1.715-2.473c-0.132-1.024,1.381-2.739,1.39-3.772c0.01-1.18-0.336-3.529-0.572-4.685
	c-0.143-0.701-0.732-2.036-0.792-2.749c-0.107-1.268,0.724-3.237,0.702-4.51c-0.012-0.691-0.105-1.851,1.125-2.94
	c0.31-0.275,1.163-0.239,1.163-0.239s-0.348,0.992-0.498,2.029c-0.101,0.696-0.123,1.173-0.134,1.416
	c-0.012,0.249-0.268,0.757-0.268,1.608c0,1.011-0.133,2.324-0.036,2.738c0.059,0.251,0.302-0.715,0.352-0.968
	c0.06-0.306,0.009-1.101,0.086-1.847c0.05-0.48,0.199-0.979,0.249-1.646c0.03-0.408,0.161-1.605,0.249-1.933
	c0.383-1.436,0.271-2.136,0.382-2.644c0.117-0.535,0.299-1.193,0.657-1.606c0.864-0.996,1.968-0.738,1.968-0.738
	s-0.346,0.592-0.316,0.89c0.059,0.586,0.02,1.745-0.138,3.199c-0.047,0.435-0.559,1.856-0.612,2.333
	c-0.138,1.263,0.046,1.474-0.079,2.423c-0.147,1.116-0.362,1.926-0.215,2.47c0.159,0.589,0.228-0.351,0.264-0.484
	c0.025-0.092,0.204-0.794,0.348-2.098c0.054-0.492,0.044-1.301,0.105-1.858c0.098-0.907,0.412-1.93,0.507-2.808
	c0.191-1.761,0.139-3.141,0.167-3.255c0.073-0.296,0.289-0.91,0.528-1.1c0.432-0.344,1.686-0.774,2.155-0.484
	c1.091,0.675,1.295,2.211,1.295,2.211s-0.828,0.262-0.997,0.476c-0.314,0.398-0.51,0.887-0.65,1.375
	c-0.082,0.286-0.031,2.043-0.029,2.34c0.001,0.239-1.042,5.119-1.11,5.935c-0.015,0.181,0.369-0.091,0.589-0.725
	c0.266-0.768,0.888-4.912,0.951-5.278c0.061-0.356-0.134-2.057,0.039-2.375c0.172-0.317,0.577-0.948,0.88-1.144
	c0.199-0.129,0.703-0.307,0.924-0.22c0.418,0.165,0.863,1.066,0.993,1.496c0.26,0.863,0.14,2.716,0,3.607
	c-0.265,1.689-1.729,5.136-1.52,6.833c0.071,0.578,0.687,2.062,0.687,2.062s-1.18-0.038-1.939,0.151
	c-0.766,0.19-2.424,1.315-2.742,1.631c-0.343,0.341-0.752,0.774-0.895,1.237c-0.051,0.165,0.681-0.112,0.964-0.334
	c0.391-0.306,2.428-1.446,2.988-1.676c0.769-0.316,1.601-0.044,2.035-0.403c0.358-0.296,0.723-1.189,0.968-1.584
	c0.294-0.475,0.491-1.83,0.88-2.231c0.452-0.467,1.814-1.129,2.463-1.112c0.55,0.014,1.547,0.812,1.76,1.32
	c0.159,0.379,0.004,1.283-0.22,1.628c-0.401,0.616-1.356,0.661-1.842,1.213c-0.335,0.38-0.876,1.637-1.017,2.124
	c-0.111,0.384-0.46,1.317-0.704,1.633c-0.575,0.744-2.633,0.495-3.475,1.437c-0.844,0.944-1.993,3.754-1.869,5.014
	c0.55,5.615,1.644,17,3.76,22.231c1.06,2.62,5.576,6.647,7.645,7.47c2.646,1.053,5.932,1.619,6.718,2.114
	C111.894,109.545,112.153,119.17,109.281,120.53z"/>
<linearGradient id="SVGID_5_" gradientUnits="userSpaceOnUse" x1="-831.8337" y1="123.8442" x2="-804.0562" y2="123.8442" gradientTransform="matrix(-1 0 0 1 -664.2629 0)">
	<stop  offset="0.1846" style="stop-color:#C8A008"/>
	<stop  offset="0.4101" style="stop-color:#CA950F"/>
	<stop  offset="0.6556" style="stop-color:#CB8B13"/>
	<stop  offset="0.8178" style="stop-color:#CC8714"/>
</linearGradient>
<polygon fill="url(#SVGID_5_)" points="164.106,56.334 139.793,63.153 139.793,191.354 164.09,183.084 "/>
<linearGradient id="SVGID_6_" gradientUnits="userSpaceOnUse" x1="101.5605" y1="123.8542" x2="175.4186" y2="123.8542">
	<stop  offset="0.1846" style="stop-color:#C8A008"/>
	<stop  offset="0.2668" style="stop-color:#D09F0D"/>
	<stop  offset="0.4993" style="stop-color:#E49A17"/>
	<stop  offset="0.6913" style="stop-color:#F0951C"/>
	<stop  offset="0.8178" style="stop-color:#F7941E"/>
</linearGradient>
<polygon fill="url(#SVGID_6_)" points="164.106,109.693 139.793,103.709 139.793,63.306 101.776,56.201 101.56,180.133 
	139.793,191.507 139.793,146.377 164.09,151.818 "/>
<linearGradient id="SVGID_7_" gradientUnits="userSpaceOnUse" x1="168.124" y1="122.9395" x2="108.979" y2="122.9395">
	<stop  offset="0.1846" style="stop-color:#E3B138"/>
	<stop  offset="0.3022" style="stop-color:#E8AF30"/>
	<stop  offset="0.6127" style="stop-color:#F4AA1E"/>
	<stop  offset="0.8178" style="stop-color:#FBAA19"/>
</linearGradient>
<polygon fill="url(#SVGID_7_)" points="164.106,118.537 131.571,110.647 131.571,70.179 108.979,65.856 108.979,173.432 
	131.571,180.023 131.593,134.236 164.09,142.756 "/>
<linearGradient id="SVGID_8_" gradientUnits="userSpaceOnUse" x1="-359.3053" y1="56.2015" x2="-293.4986" y2="56.2015" gradientTransform="matrix(-1 0 0 1 -191.7225 0)">
	<stop  offset="0.1846" style="stop-color:#CAB042"/>
	<stop  offset="0.1921" style="stop-color:#CAB041"/>
	<stop  offset="0.4562" style="stop-color:#E6BA2C"/>
	<stop  offset="0.6741" style="stop-color:#F6BE17"/>
	<stop  offset="0.8178" style="stop-color:#FFC20E"/>
</linearGradient>
<polygon fill="url(#SVGID_8_)" points="164.106,54.693 131.694,49.097 101.776,56.201 139.793,63.306 164.09,56.365 "/>
<linearGradient id="SVGID_9_" gradientUnits="userSpaceOnUse" x1="-394.8389" y1="104.2716" x2="-331.5158" y2="104.2716" gradientTransform="matrix(-1 0 0 1 -191.7225 0)">
	<stop  offset="0.1846" style="stop-color:#CAB042"/>
	<stop  offset="0.1921" style="stop-color:#CAB041"/>
	<stop  offset="0.4562" style="stop-color:#E6BA2C"/>
	<stop  offset="0.6741" style="stop-color:#F6BE17"/>
	<stop  offset="0.8178" style="stop-color:#FFC20E"/>
</linearGradient>
<polygon fill="url(#SVGID_9_)" points="164.09,98.834 139.793,103.709 164.09,109.709 "/>
<linearGradient id="SVGID_10_" gradientUnits="userSpaceOnUse" x1="-4486.2373" y1="-2807.6421" x2="-4463.6265" y2="-2807.6421" gradientTransform="matrix(-1 0 0 1 -4354.6411 2876.0676)">
	<stop  offset="0" style="stop-color:#A2A2A2;stop-opacity:0"/>
	<stop  offset="0.1618" style="stop-color:#BDA589;stop-opacity:0.1618"/>
	<stop  offset="0.3623" style="stop-color:#D8A871;stop-opacity:0.3623"/>
	<stop  offset="0.5672" style="stop-color:#EBA960;stop-opacity:0.5672"/>
	<stop  offset="0.7772" style="stop-color:#F6AB55;stop-opacity:0.7772"/>
	<stop  offset="1" style="stop-color:#FAAB52"/>
</linearGradient>
<polygon fill="url(#SVGID_10_)" points="108.985,66.651 131.592,71.022 131.596,70.211 109.013,65.829 "/>
<linearGradient id="SVGID_11_" gradientUnits="userSpaceOnUse" x1="-529.7509" y1="-10173.2021" x2="-493.9727" y2="-10173.2021" gradientTransform="matrix(0 -1 -1 0 -10063.8057 -428.1169)">
	<stop  offset="0" style="stop-color:#A2A2A2;stop-opacity:0"/>
	<stop  offset="0.1618" style="stop-color:#BDA589;stop-opacity:0.1618"/>
	<stop  offset="0.3623" style="stop-color:#D8A871;stop-opacity:0.3623"/>
	<stop  offset="0.5672" style="stop-color:#EBA960;stop-opacity:0.5672"/>
	<stop  offset="0.7772" style="stop-color:#F6AB55;stop-opacity:0.7772"/>
	<stop  offset="1" style="stop-color:#FAAB52"/>
</linearGradient>
<polygon fill="url(#SVGID_11_)" points="108.985,65.856 108.991,101.63 109.802,101.634 109.808,65.886 "/>
<path fill="#F9F9FA" d="M73.212,41.419c0.237-0.339,1.228-0.397,1.629-0.296c0.898,0.227,2.552,1.275,3.11,2.014
	c0.854,1.132,1.747,3.642,1.264,5.575c-0.064,0.254-0.592,1.407-0.849,1.356c-0.528-0.104-0.772-2.471-1.651-3.993
	c-0.653-1.129-1.222-1.511-1.666-1.842c-0.379-0.282-1.289-0.696-1.54-1.096C73.276,42.768,72.962,41.777,73.212,41.419z"/>
<path fill="#F9F9FA" d="M82.676,38.701c-2,1.266-1.477,5.54-1.426,6.303c0.069,1.026,0.534,3.044,0.829,4.029
	c0.161,0.535,0.271,2.093,0.829,2.074c0.606-0.021,0.637-1.713,0.741-2.31c0.227-1.307,0.027-3.984,0.178-5.302
	c0.087-0.765,1.196-2.392,1.112-3.473C84.89,39.378,83.691,38.058,82.676,38.701z"/>
<path fill="#F9F9FA" d="M89.447,42.015c-1.498,0.529-1.749,0.947-2.326,1.755c-0.328,0.46-0.796,1.612-0.898,2.167
	c-0.056,0.303-0.372,1.394-0.031,1.996c0.232,0.409,0.753-0.141,0.954-0.361c0.656-0.717,1.38-2.012,2.013-2.513
	c0.764-0.604,3.231-0.953,3.393-1.913c0.057-0.34-0.603-0.886-0.914-1.035C91.142,41.875,89.964,41.833,89.447,42.015z"/>
<polygon fill="url(#New_Pattern_190)" points="164.106,109.709 139.797,103.683 139.797,63.28 101.78,56.175 101.564,180.107 
	139.797,191.481 139.797,146.351 164.106,151.818 "/>
<polygon fill="url(#New_Pattern_190)" points="164.09,54.678 131.643,49.066 101.725,56.17 139.742,63.274 164.106,56.272 "/>
<polygon fill="url(#New_Pattern_190)" points="164.09,151.818 139.742,146.351 139.742,191.328 164.106,183.1 "/>
<polygon fill="url(#New_Pattern_190)" points="164.09,56.294 139.589,63.17 139.742,103.683 164.075,98.818 "/>
<polygon fill="url(#New_Pattern_190)" points="164.09,98.813 139.589,103.74 164.09,109.709 "/>
<path fill="url(#New_Pattern_190)" d="M106.208,120.479c-3.465,0.013-14.349-10.593-17.02-15.187
	c-3.837-6.6-2.552-22.836-4.611-30.188c-0.157-0.562-1.64-1.895-1.715-2.473c-0.132-1.024,1.381-2.739,1.39-3.772
	c0.01-1.18-0.336-3.529-0.572-4.685c-0.143-0.701-0.732-2.036-0.792-2.749c-0.107-1.268,0.724-3.237,0.702-4.51
	c-0.012-0.691-0.105-1.851,1.125-2.94c0.31-0.275,1.163-0.239,1.163-0.239s-0.348,0.992-0.498,2.029
	c-0.101,0.696-0.123,1.173-0.134,1.416c-0.012,0.249-0.268,0.757-0.268,1.608c0,1.011-0.133,2.324-0.036,2.738
	c0.059,0.251,0.302-0.715,0.352-0.968c0.06-0.306,0.009-1.101,0.086-1.847c0.05-0.48,0.199-0.979,0.249-1.646
	c0.03-0.408,0.161-1.605,0.249-1.933c0.383-1.436,0.271-2.136,0.382-2.644c0.117-0.535,0.299-1.193,0.657-1.606
	c0.864-0.996,1.968-0.738,1.968-0.738s-0.346,0.592-0.316,0.89c0.059,0.586,0.02,1.745-0.138,3.199
	c-0.047,0.435-0.559,1.856-0.612,2.333c-0.138,1.263,0.046,1.474-0.079,2.423c-0.147,1.116-0.362,1.926-0.215,2.47
	c0.159,0.589,0.228-0.351,0.264-0.484c0.025-0.092,0.204-0.794,0.348-2.098c0.054-0.492,0.044-1.301,0.105-1.858
	c0.098-0.907,0.412-1.93,0.507-2.808c0.191-1.761,0.139-3.141,0.167-3.255c0.073-0.296,0.289-0.91,0.528-1.1
	c0.432-0.344,1.686-0.774,2.155-0.484c1.091,0.675,1.295,2.211,1.295,2.211s-0.828,0.262-0.997,0.476
	c-0.314,0.398-0.51,0.887-0.65,1.375c-0.082,0.286-0.031,2.043-0.029,2.34c0.001,0.239-1.042,5.119-1.11,5.935
	c-0.015,0.181,0.369-0.091,0.589-0.725c0.266-0.768,0.888-4.912,0.951-5.278c0.061-0.356-0.134-2.057,0.039-2.375
	c0.172-0.317,0.577-0.948,0.88-1.144c0.199-0.129,0.703-0.307,0.924-0.22c0.418,0.165,0.863,1.066,0.993,1.496
	c0.26,0.863,0.14,2.716,0,3.607c-0.265,1.689-1.729,5.136-1.52,6.833c0.071,0.578,0.687,2.062,0.687,2.062s-1.18-0.038-1.939,0.151
	c-0.766,0.19-2.424,1.315-2.742,1.631c-0.343,0.341-0.752,0.774-0.895,1.237c-0.051,0.165,0.681-0.112,0.964-0.334
	c0.391-0.306,2.428-1.446,2.988-1.676c0.769-0.316,1.601-0.044,2.035-0.403c0.358-0.296,0.723-1.189,0.968-1.584
	c0.294-0.475,0.491-1.83,0.88-2.231c0.452-0.467,1.814-1.129,2.463-1.112c0.55,0.014,1.547,0.812,1.76,1.32
	c0.159,0.379,0.004,1.283-0.22,1.628c-0.401,0.616-1.356,0.661-1.842,1.213c-0.335,0.38-0.876,1.637-1.017,2.124
	c-0.111,0.384-0.46,1.317-0.704,1.633c-0.575,0.744-2.633,0.495-3.475,1.437c-0.844,0.944-1.993,3.754-1.869,5.014
	c0.55,5.615,1.644,17,3.76,22.231c1.06,2.62,5.529,6.779,7.645,7.47c2.708,0.885,3.296,1.049,3.877,1.218L106.208,120.479z"/>
<g>
	<path fill="#121212" d="M116.905,131.248c0.934,1.5,3.786,2.609,5.098,2.995c2.584,0.759,7.696,0.405,10.179,0.039
		c2.695-0.397,7.93-1.982,10.396-3.204c1.855-0.92,5.483-3.145,6.926-4.9c0.996-1.211,3.203-3.89,3.194-5.892
		c-0.005-1.238-1.257-3.739-2.009-4.608c-0.777-0.897-2.731-1.772-3.656-1.862c-1.196-0.117-3.476,0.726-4.42,1.516
		c-0.652,0.546-2.511,1.877-3.198,2.349c-1.113,0.764-2.822,1.374-4.064,1.783c-1.619,0.533-4.607,1.907-6.288,2.19
		c-1.53,0.258-4.788,0.169-6.372,0.084c-1.067-0.057-3.33,0.631-4.288,1.072c-0.868,0.399-2.428,0.685-2.673,1.923
		C115.439,126.215,116.073,129.911,116.905,131.248z"/>
	<g>
		<path fill="#D0E5F7" d="M140.098,121.926c1.469-0.86,3.093-4.495,0.886-5.22c-1.616-0.531-5.544,1.769-5.872,3.439
			C134.665,122.424,138.629,122.786,140.098,121.926z"/>
	</g>
	<g>
		<path fill="#D0E5F7" d="M133.751,124.89c1.889-0.39,4.951-3.703,2.845-5.281c-1.542-1.156-6.593-0.113-7.551,1.56
			C127.738,123.453,131.862,125.281,133.751,124.89z"/>
	</g>
	<g>
		<path fill="#D0E5F7" d="M125.935,125.846c1.902-0.324,5.078-3.527,3.029-5.178c-1.501-1.21-6.585-0.344-7.601,1.294
			C119.976,124.198,124.033,126.17,125.935,125.846z"/>
	</g>
	<g>
		<path fill="#D0E5F7" d="M119.659,125.761c1.527-0.051,4.361-2.226,2.929-3.741c-1.049-1.109-5.132-0.972-6.103,0.205
			C115.158,123.833,118.132,125.812,119.659,125.761z"/>
	</g>
	<g>
		<path fill="#D0E5F7" d="M145.494,117.858c1.29-0.755,2.715-3.946,0.778-4.582c-1.419-0.466-4.867,1.553-5.155,3.019
			C140.724,118.295,144.204,118.614,145.494,117.858z"/>
	</g>
	<path fill="#C78593" d="M122.124,134.423c2.584,0.759,7.696,0.405,10.179,0.039c2.695-0.397,7.93-1.982,10.396-3.204
		c1.855-0.92,6.347-3.482,6.926-4.9c0.696-1.703-5.456-1.004-7.296-0.977c-3.078,0.044-9.157,1.279-12.154,1.983
		C126.826,128.15,120.812,134.038,122.124,134.423z"/>
</g>
<g>
	
		<radialGradient id="SVGID_12_" cx="-168.4651" cy="102.7048" r="13.4679" gradientTransform="matrix(-1 0 0 1 -45.4299 0)" gradientUnits="userSpaceOnUse">
		<stop  offset="0.5391" style="stop-color:#5CA18F"/>
		<stop  offset="0.622" style="stop-color:#589F8B"/>
		<stop  offset="0.7107" style="stop-color:#4C9B81"/>
		<stop  offset="0.8022" style="stop-color:#359471"/>
		<stop  offset="0.8956" style="stop-color:#008A5A"/>
		<stop  offset="0.9895" style="stop-color:#007C41"/>
		<stop  offset="1" style="stop-color:#007A3E"/>
	</radialGradient>
	<ellipse fill="url(#SVGID_12_)" cx="123.035" cy="102.705" rx="14.272" ry="12.613"/>
	<ellipse fill="#EF3D3C" cx="123.035" cy="102.705" rx="10.731" ry="10.375"/>
	<ellipse fill="#D0E5F7" cx="122.219" cy="102.459" rx="8.56" ry="8.468"/>
	<ellipse fill="#341811" cx="120.926" cy="101.998" rx="6.772" ry="6.531"/>
	<path fill="#E4E9F0" d="M121.141,99.538c-0.077-0.572,0.622-1.762,1.146-2.005c0.357-0.165,1.337-0.046,1.547,0.286
		c0.238,0.376-0.17,1.381-0.458,1.719c-0.275,0.322-1.129,0.755-1.547,0.688C121.589,100.187,121.173,99.779,121.141,99.538z"/>
	<path fill="#3A1B15" d="M123.465,101.563c0,0,1.508,0.774,1.608,1.278c0.198,0.995-1.091,3.036-1.966,3.551
		c-0.933,0.55-3.377,0.511-4.332,0c-0.799-0.427-1.903-2.115-2.01-3.015c-0.057-0.479,0.268-1.537,0.664-1.814
		C118.666,100.699,123.465,101.563,123.465,101.563z"/>
</g>
<g>
	<path fill="#DFAD8D" d="M137.194,18.307l16.973,33.749c0,0-7.831,8.679-11.396,9.934c-3.643,1.282-15.434-0.621-15.434-0.621
		L137.194,18.307z"/>
	<path fill="#CC9E7F" d="M135.467,53.919c-0.465,1.659-2.187,2.626-3.845,2.161l0,0c-1.659-0.465-2.626-2.187-2.161-3.845
		l0.395-1.409c0.465-1.659,2.187-2.626,3.845-2.161l0,0c1.659,0.465,2.626,2.187,2.161,3.845L135.467,53.919z"/>
	<path fill="#CC9E7F" d="M140.47,53.762c-0.356,1.27-1.674,2.01-2.943,1.654l0,0c-1.27-0.356-2.01-1.674-1.654-2.943l0.52-1.854
		c0.356-1.27,1.674-2.01,2.943-1.654l0,0c1.27,0.356,2.01,1.674,1.654,2.943L140.47,53.762z"/>
	<path fill="#CC9E7F" d="M145.941,51.733c-0.293,1.044-1.548,1.606-2.803,1.254l0,0c-1.255-0.352-2.035-1.484-1.742-2.528
		l0.782-2.79c0.293-1.044,1.548-1.606,2.803-1.254l0,0c1.255,0.352,2.035,1.484,1.742,2.528L145.941,51.733z"/>
	<path fill="#CC9E7F" d="M151.33,50.769c-0.316,1.126-1.717,1.718-3.13,1.322l0,0c-1.413-0.396-2.302-1.63-1.986-2.757l0.624-2.225
		c0.316-1.126,1.717-1.718,3.13-1.322l0,0c1.413,0.396,2.302,1.63,1.986,2.757L151.33,50.769z"/>
	<path fill="#CC9E7F" d="M137.399,46.742c-0.465,1.659-2.187,2.626-3.845,2.161l0,0c-1.659-0.465-2.626-2.187-2.161-3.845
		l0.395-1.409c0.465-1.659,2.187-2.626,3.845-2.161l0,0c1.659,0.465,2.626,2.187,2.161,3.845L137.399,46.742z"/>
	<path fill="#CC9E7F" d="M142.402,46.586c-0.356,1.27-1.674,2.01-2.943,1.654l0,0c-1.27-0.356-2.01-1.674-1.654-2.943l0.52-1.854
		c0.356-1.27,1.674-2.01,2.943-1.654l0,0c1.27,0.356,2.01,1.674,1.654,2.943L142.402,46.586z"/>
	<path fill="#CC9E7F" d="M147.304,44.877c-0.293,1.044-1.548,1.606-2.803,1.254l0,0c-1.255-0.352-2.035-1.484-1.742-2.528
		l0.782-2.79c0.293-1.044,1.548-1.606,2.803-1.254l0,0c1.255,0.352,2.035,1.484,1.742,2.528L147.304,44.877z"/>
	<path fill="#CC9E7F" d="M140.063,38.958c-0.465,1.659-2.187,2.626-3.845,2.161l0,0c-1.659-0.465-2.626-2.187-2.161-3.845
		l0.395-1.409c0.465-1.659,2.187-2.626,3.845-2.161l0,0c1.659,0.465,2.626,2.187,2.161,3.845L140.063,38.958z"/>
	<path fill="#CC9E7F" d="M145.065,38.801c-0.356,1.27-1.674,2.01-2.943,1.654l0,0c-1.27-0.356-2.01-1.674-1.654-2.943l0.52-1.854
		c0.356-1.27,1.674-2.01,2.943-1.654l0,0c1.27,0.356,2.01,1.674,1.654,2.943L145.065,38.801z"/>
	<path fill="#CC9E7F" d="M141.531,32.295c-0.316,1.126-1.717,1.718-3.13,1.322l0,0c-1.413-0.396-2.302-1.63-1.986-2.757l0.624-2.225
		c0.316-1.126,1.717-1.718,3.13-1.322l0,0c1.413,0.396,2.302,1.63,1.986,2.757L141.531,32.295z"/>
	<path fill="#CC9E7F" d="M127.689,59.976c0,0,0.852-0.762,1.213-0.82c0.703-0.114,2.037,0.68,2.744,0.769
		c1.251,0.159,3.788,0.007,5.045-0.105c1.195-0.106,3.599-0.382,4.741-0.75c1.331-0.429,3.838-1.735,4.997-2.518
		c1.913-1.291,6.935-6.093,6.935-6.093l0.803,1.597c0,0-7.831,8.679-11.396,9.934c-3.643,1.282-15.434-0.621-15.434-0.621
		L127.689,59.976z"/>
	<path fill="#341811" d="M126.426,61.317c-0.687,0.165-2.021,1.011-2.283,1.667c-0.185,0.463,0.022,1.592,0.358,1.96
		c0.407,0.447,1.727,0.59,2.329,0.653c0.822,0.086,2.574-0.611,3.299-0.214c0.48,0.263,1.706,1.058,1.77,1.601
		c0.075,0.645-0.669,2.818-0.778,3.458c-0.109,0.64-0.044,1.98,0.258,2.556c0.278,0.531,1.029,0.851,1.902,0.59
		c1.342-0.401,1.207-2.892,1.522-3.565c0.609-1.301,0.225-0.641,1.215-1.681c0.406-0.427,1.578-1.074,2.156-0.955
		c0.678,0.139,0.199,4.597,0.451,6.321c0.692,4.732,4.168,2.272,4.843,6.423c0.378,2.324-0.071,8.078-0.345,10.534
		c-0.348,3.117-0.208,7.15,3.055,6.237c1.544-0.432,3.049-1.765,3.132-4.94c0.017-0.648-0.939-4.072-1.033-6.424
		c-0.121-3.022-0.248-7.723-0.247-9.758c0.001-4.311,0.202-3.206,0.683-6.394c0.3-1.989,0.918-2.549,0.821-4.296
		c-0.036-0.634,0.198-1.604,0.807-1.784c0.595-0.177,2.184,3.606,2.318,4.212c0.37,1.674-1.367,7.898,1.976,7.566
		c1.494-0.148,1.637-0.998,1.602-2.301c-0.041-1.546-0.41-2.074-0.35-3.495c0.023-0.542,0.361-1.502,0.699-3.146
		c0.538-2.617,1.165-4.486,1.486-7.894c0.192-2.038-0.771-4.155-0.881-4.66c-0.163-0.747-1.205-2.093-1.91-2.387
		c-0.431-0.18-1.501-0.103-1.857,0.199c-0.12,0.101-0.094,0.467-0.169,0.604c-1.824,3.31-7.796,6.176-11.228,8.957
		C139.027,63.392,130.181,60.417,126.426,61.317z"/>
</g>
<linearGradient id="SVGID_13_" gradientUnits="userSpaceOnUse" x1="60.7674" y1="88.2235" x2="86.8718" y2="88.2235">
	<stop  offset="0.1846" style="stop-color:#C9E6CE"/>
	<stop  offset="0.3777" style="stop-color:#B7DEC2"/>
	<stop  offset="0.6427" style="stop-color:#A2D6B6"/>
	<stop  offset="0.8178" style="stop-color:#9BD3B1"/>
</linearGradient>
<path fill="url(#SVGID_13_)" d="M61.964,125.215c4.461,1.453,11.348-12.951,13.54-17.099c3.015-5.706,6.473-15.336,8.401-22.7
	c0.298-1.137,0.922-2.652,1.092-3.634c0.136-0.786-0.07-4.046,0-4.84c0.171-1.928,1.856-5.77,1.875-7.706
	c0.021-2.171-0.666-6.519-1.364-8.575c-0.434-1.28-1.413-4.062-2.574-4.754c-0.26-0.155-0.93-0.116-1.209,0
	c-0.211,0.088-0.567,0.433-0.645,0.648c-0.241,0.664,0.062,2.133,0.242,2.816c0.197,0.75,1.277,2.045,1.289,2.82
	c0.004,0.277-0.246,1.161-0.277,0.886c-0.078-0.701-0.381-1.531-0.796-2.228c-0.306-0.515-0.789-1.546-0.888-2.136
	c-0.109-0.651-0.281-2.09,0.029-2.673c0.11-0.207,0.991-0.613,0.991-0.613s-0.542-1.919-0.99-2.359
	c-0.324-0.318-1.268-0.656-1.717-0.59c-0.343,0.05-0.948,0.509-1.127,0.805c-0.252,0.417-0.332,1.448-0.268,1.932
	c0.072,0.548,0.657,1.524,0.859,2.039c0.316,0.81,0.994,2.424,1.181,3.273c0.067,0.303,0.149,0.927,0.107,1.234
	c-0.016,0.114-0.124,0.538-0.161,0.429c-0.168-0.494-0.46-1.704-0.678-2.307c-0.291-0.807-1.001-2.512-1.473-3.305
	c-0.336-0.565-0.563-1.95-0.529-2.606c0.021-0.394,0.313-1.211,0.587-1.495c0.218-0.226,1.029-0.546,1.029-0.546
	s-0.577-0.905-1.566-0.795c-0.402,0.045-0.925,0.819-1.106,1.181c-0.152,0.305-0.304,1.008-0.236,1.342
	c0.29,1.429,1.614,6.763,1.614,6.763c-0.168,0.137-0.394-0.19-0.51-0.703c-0.137-0.61-0.81-2.661-1.12-3.757
	c-0.391-1.38-0.422-1.783-0.433-2.03c-0.031-0.73,0.097-0.915,0.097-0.915s-1.138-0.167-1.411,0.948
	c-0.185,0.757,0.229,2.41,0.425,3.165c0.176,0.68,0.799,1.945,1.069,2.592c0.313,0.749,0.796,2.301,1.073,3.064
	c0.156,0.43,0.548,1.265,0.644,1.712c0.09,0.419-0.022,1.302,0.107,1.71c0.101,0.317,0.305,2.131,0.305,2.131
	s-0.471-0.379-0.56-0.707c-0.186-0.682-0.251-1.224-0.277-1.694c-0.033-0.587,0-1.022,0-1.022s-2.962-2.867-3.814-2.834
	c-0.332,0.013-0.99,0.401-1.127,0.703c-0.241,0.531,0.137,1.77,0.376,2.302c0.41,0.914,1.987,2.266,2.522,3.113
	c0.389,0.616,0.968,1.96,1.255,2.63c0.306,0.713,0.239,0.835,0.372,1.599c0.127,0.727,0.169,1.727,0.336,2.446
	c0.148,0.639,1.413,4.065,1.5,5.592c0.372,6.523-5.843,18.971-8.892,24.749c-0.438,0.831-1.173,1.686-1.865,2.321
	c-0.651,0.596-2.377,1.578-2.818,2.342C62.775,112.782,58.779,124.178,61.964,125.215z"/>
<polygon fill="#98AF9F" points="0.104,177.851 13.086,181.427 12.886,92.164 0.038,91.196 "/>
<polygon fill="#C7E0CD" points="33.104,80.046 0.071,86.539 0.038,91.162 12.51,92.209 71.196,81.782 "/>
<polygon fill="#B4CABD" points="71.196,166.106 13.086,181.427 12.584,92.164 71.196,81.782 "/>
<polygon fill="#C3D3C8" points="66.808,161.351 19.831,172.943 19.437,98.541 67.208,91.455 "/>
<path fill="url(#New_Pattern_61)" d="M61.994,125.192c4.461,1.453,11.348-12.951,13.54-17.099c3.015-5.706,6.473-15.336,8.401-22.7
	c0.298-1.137,0.922-2.652,1.092-3.634c0.136-0.786-0.07-4.046,0-4.84c0.171-1.928,1.856-5.77,1.875-7.706
	c0.021-2.171-0.666-6.519-1.364-8.575c-0.434-1.28-1.413-4.062-2.574-4.754c-0.26-0.155-0.93-0.116-1.209,0
	c-0.211,0.088-0.567,0.433-0.645,0.648c-0.241,0.664,0.062,2.133,0.242,2.816c0.197,0.75,1.277,2.045,1.289,2.82
	c0.004,0.277-0.246,1.161-0.277,0.886c-0.078-0.701-0.381-1.531-0.796-2.228c-0.306-0.515-0.789-1.546-0.888-2.136
	c-0.109-0.651-0.281-2.09,0.029-2.673c0.11-0.207,0.991-0.613,0.991-0.613s-0.542-1.919-0.99-2.359
	c-0.324-0.318-1.268-0.656-1.717-0.59c-0.343,0.05-0.948,0.509-1.127,0.805c-0.252,0.417-0.332,1.448-0.268,1.932
	c0.072,0.548,0.657,1.524,0.859,2.039c0.316,0.81,0.994,2.424,1.181,3.273c0.067,0.303,0.149,0.927,0.107,1.234
	c-0.016,0.114-0.124,0.538-0.161,0.429c-0.168-0.494-0.46-1.704-0.678-2.307c-0.291-0.807-1.001-2.512-1.473-3.305
	c-0.336-0.565-0.563-1.95-0.529-2.606c0.021-0.394,0.313-1.211,0.587-1.495c0.218-0.226,1.029-0.546,1.029-0.546
	s-0.577-0.905-1.566-0.795c-0.402,0.045-0.925,0.819-1.106,1.181c-0.152,0.305-0.304,1.008-0.236,1.342
	c0.29,1.429,1.614,6.763,1.614,6.763c-0.168,0.137-0.394-0.19-0.51-0.703c-0.137-0.61-0.81-2.661-1.12-3.757
	c-0.391-1.38-0.422-1.783-0.433-2.03c-0.031-0.73,0.097-0.915,0.097-0.915s-1.138-0.167-1.411,0.948
	c-0.185,0.757,0.229,2.41,0.425,3.165c0.176,0.68,0.799,1.945,1.069,2.592c0.313,0.749,0.796,2.301,1.073,3.064
	c0.156,0.43,0.548,1.265,0.644,1.712c0.09,0.419-0.022,1.302,0.107,1.71c0.101,0.317,0.305,2.131,0.305,2.131
	s-0.471-0.379-0.56-0.707c-0.186-0.682-0.251-1.224-0.277-1.694c-0.033-0.587,0-1.022,0-1.022s-2.962-2.867-3.814-2.834
	c-0.332,0.013-0.99,0.401-1.127,0.703c-0.241,0.531,0.137,1.77,0.376,2.302c0.41,0.914,1.987,2.266,2.522,3.113
	c0.389,0.616,0.968,1.96,1.255,2.63c0.306,0.713,0.239,0.835,0.372,1.599c0.127,0.727,0.169,1.727,0.336,2.446
	c0.148,0.639,1.413,4.065,1.5,5.592c0.372,6.523-5.843,18.971-8.892,24.749c-0.438,0.831-1.173,1.686-1.865,2.321
	c-0.651,0.596-2.377,1.578-2.818,2.342C62.805,112.759,58.809,124.155,61.994,125.192z"/>
<polygon fill="url(#New_Pattern_61)" points="0.071,177.785 13.116,181.404 12.916,92.141 0.071,91.162 "/>
<polygon fill="url(#New_Pattern_61)" points="33.135,80.023 0.071,86.539 0.038,91.196 12.54,92.186 71.227,81.759 "/>
<polygon fill="url(#New_Pattern_61)" points="71.551,166.106 13.132,181.503 12.938,92.164 71.551,81.782 "/>
<g>
	
		<linearGradient id="SVGID_14_" gradientUnits="userSpaceOnUse" x1="-705.1587" y1="239.5177" x2="-682.9974" y2="239.5177" gradientTransform="matrix(0.9913 -0.1316 0.1316 0.9913 700.3123 -217.634)">
		<stop  offset="0.1846" style="stop-color:#58C1AA"/>
		<stop  offset="0.349" style="stop-color:#5CC2AB"/>
		<stop  offset="0.4774" style="stop-color:#69C5B0"/>
		<stop  offset="0.5936" style="stop-color:#7BCBB8"/>
		<stop  offset="0.7026" style="stop-color:#94D3C3"/>
		<stop  offset="0.8066" style="stop-color:#B2DED2"/>
		<stop  offset="0.9055" style="stop-color:#D5EDE6"/>
		<stop  offset="0.9935" style="stop-color:#FFFFFF"/>
	</linearGradient>
	<path fill="url(#SVGID_14_)" d="M32.578,88.634c0,0-0.887,20.267,0.725,26.907c1.341,5.523,4.882,20.03,9.884,20.137
		c6.167,0.132,10.523-17.819,11.202-24.751c0.633-6.46-3.812-25.137-3.812-25.137L32.578,88.634z"/>
	<path fill="#0A8E6F" d="M66.301,101.71c1.782,0.85,2.513,5.143,1.955,8.683c-1.148,7.277-8.651,7.988-12.481,4.31
		c-1.471-1.413-3.378-6.444-2.443-8.252c0.173-0.335,0.979-0.662,1.284-0.469c1.353,0.852,0.029,3.672,2.671,6.473
		c1.5,1.591,6.007,3.951,8.423-1.048c2.112-4.37-1.023-7.084-0.501-9.299C65.285,101.786,66.029,101.58,66.301,101.71z"/>
	<path fill="#E64B5F" d="M70.39,133.777c-0.61,1.105-7.478,6.601-9.118,7.323c-3.232,1.424-6.413,1.886-10.017,2.726
		c-3.911,0.912-11.879,2.291-15.848,2.711c-2.986,0.316-6.484,0.356-9.28,0.101c-1.929-0.176-3.85-0.631-6.712-1.455
		c-0.785-0.226-4.974-3.027-4.491-3.87c0.714-1.244,3.313,0.238,6.009,0.362c5.217,0.24,17.18-1.09,19.084-1.401
		c2.483-0.406,7.879-0.815,10.346-1.312c14.331-2.891,18.75-8.277,19.652-7.781C71.095,131.776,70.934,132.792,70.39,133.777z"/>
	<g>
		<path fill="#D0E5F7" d="M67.448,135.158c-1.342,0.567-4.665-0.179-4.033-2.063c0.463-1.38,4.05-2.897,5.363-2.268
			C70.57,131.686,68.79,134.591,67.448,135.158z"/>
	</g>
	<g>
		<path fill="#D0E5F7" d="M19.298,142.852c-1.418-0.137-3.93-2.326-2.509-3.653c1.041-0.972,4.833-0.606,5.669,0.546
			C23.6,141.319,20.717,142.988,19.298,142.852z"/>
	</g>
	<g>
		<path fill="#D0E5F7" d="M24.166,144.98c-1.616-0.156-4.477-2.65-2.858-4.161c1.186-1.107,5.506-0.69,6.458,0.622
			C29.067,143.234,25.782,145.136,24.166,144.98z"/>
	</g>
	<g>
		<path fill="#D0E5F7" d="M60.848,139.294c-1.775,0.482-5.806-1.017-4.695-3.267c0.814-1.648,5.56-2.936,7.095-1.926
			C65.344,135.481,62.623,138.812,60.848,139.294z"/>
	</g>
	<g>
		<path fill="#D0E5F7" d="M55.403,140.666c-1.342,0.567-4.665-0.179-4.033-2.063c0.463-1.38,4.05-2.897,5.363-2.268
			C58.524,137.194,56.745,140.099,55.403,140.666z"/>
	</g>
	<g>
		<path fill="#D0E5F7" d="M29.363,144.421c-1.418-0.137-3.93-2.326-2.509-3.653c1.041-0.972,4.833-0.606,5.669,0.546
			C33.665,142.888,30.781,144.557,29.363,144.421z"/>
	</g>
	<g>
		<path fill="#D0E5F7" d="M35.082,144.184c-1.616-0.156-4.477-2.65-2.858-4.161c1.186-1.107,5.506-0.69,6.458,0.622
			C39.983,142.437,36.698,144.339,35.082,144.184z"/>
	</g>
	<g>
		<path fill="#D0E5F7" d="M50.007,143.254c-1.775,0.482-5.806-1.017-4.695-3.267c0.814-1.648,5.56-2.936,7.095-1.926
			C54.502,139.441,51.782,142.772,50.007,143.254z"/>
	</g>
	<g>
		<path fill="#D0E5F7" d="M42.996,144.048c-1.791,0.419-5.767-1.22-4.578-3.43c0.871-1.618,5.659-2.739,7.158-1.675
			C47.623,140.396,44.787,143.629,42.996,144.048z"/>
	</g>
	<path fill="#0A8E6F" d="M17.481,110.881c-1.4,1.781-0.187,6.462,1.977,9.717c4.448,6.692,12.287,3.493,14.457-2.188
		c0.834-2.182,0.464-8.216-1.292-9.54c-0.325-0.245-1.28-0.153-1.499,0.199c-0.969,1.558,1.635,3.694,0.258,7.877
		c-0.782,2.376-4.227,7.09-8.913,3.341c-4.097-3.277-2.186-7.63-3.713-9.576C18.533,110.428,17.695,110.61,17.481,110.881z"/>
</g>
</svg>
