<?xml version="1.0" encoding="utf-8"?>
<!-- Generator: Adobe Illustrator 17.0.0, SVG Export Plug-In . SVG Version: 6.00 Build 0)  -->
<!DOCTYPE svg PUBLIC "-//W3C//DTD SVG 1.1//EN" "http://www.w3.org/Graphics/SVG/1.1/DTD/svg11.dtd">
<svg version="1.1" id="Layer_1" xmlns="http://www.w3.org/2000/svg" xmlns:xlink="http://www.w3.org/1999/xlink" x="0px" y="0px"
	 width="50px" height="50px" viewBox="0 0 50 50" enable-background="new 0 0 50 50" xml:space="preserve">
<polygon fill="#473234" points="35.297,3.406 32.418,4.616 30.484,7.276 28.108,9.835 20.168,10.018 15.569,11.007 14.292,13.4 
	8.089,13.527 5.494,17.768 1,23.59 2.266,25.805 0,30.869 1,33.843 3.595,37.767 9.608,41.818 18.026,40.299 25.913,40.028 
	26.76,39.16 29.992,42.101 41.57,44.856 43.975,37.578 47.836,34.666 48.848,27.135 47.393,23.907 48.975,18.843 48.658,16.312 
	44.165,14.73 39.734,6.122 "/>
<g>
	<polygon fill="none" points="42.442,11.561 40.949,7.3 43.828,15.69 	"/>
	<polygon fill="none" points="33.368,36.548 34.444,40.237 33.368,36.548 	"/>
	<polygon fill="none" points="11.156,32.455 11.156,32.455 3.092,30.678 	"/>
	<polygon fill="#5E484F" points="36.684,24.08 40.096,31.024 44.362,24.08 47.028,23.423 49.8,18.701 47.561,20.659 	"/>
	<polygon fill="#5E484F" points="31.992,31.83 32.899,34.939 33.368,36.548 33.368,36.548 	"/>
	<polygon fill="#875C5B" points="35.404,15.33 35.404,15.69 32.098,15.69 30.712,14.942 30.712,16.591 29.859,18.241 29.112,14.942 
		28.366,14.942 22.821,16.283 28.792,25.841 38.603,34.939 40.096,31.024 36.684,24.08 	"/>
	<polygon fill="#BA8B80" points="12.903,24.08 21.754,24.623 20.368,19.507 22.181,15.33 29.219,14.325 35.404,15.33 36.15,11.792 
		39.669,8.452 40.096,5.803 38.93,5.216 34.277,5.377 33.274,6.326 33.776,6.868 34.654,8.258 31.706,7.816 29.22,8.258 
		28.046,9.603 20.261,9.603 15.569,10.985 14.015,13.084 14.015,13.084 15.586,14.772 15.272,15.69 14.08,14.942 7.638,13.853 
		5.218,17.646 9.171,20.772 9.171,21.567 6.177,19.976 3.488,19.976 0.64,23.538 1.813,25.726 9.171,27.275 	"/>
	<polygon fill="#875C5B" points="43.828,15.69 36.684,24.08 47.561,20.659 49.8,18.701 49.267,16.053 44.468,14.21 40.949,7.3 
		42.442,11.561 	"/>
	<polygon fill="#F9B49C" points="36.15,11.792 35.404,15.33 36.684,24.08 43.828,15.69 40.949,7.3 40.096,5.803 39.669,8.452 	"/>
	<polygon fill="#E0B0A3" points="28.366,14.942 29.112,14.942 29.859,18.241 30.712,16.591 30.712,14.942 32.098,15.69 
		35.404,15.69 35.404,15.33 29.219,14.325 22.181,15.33 22.821,16.283 	"/>
	<polygon fill="#9C6460" points="22.821,16.283 22.181,15.33 20.368,19.507 21.754,24.623 24.349,28.985 24.74,28.705 
		26.483,30.022 29.485,30.678 31.992,31.83 33.368,36.548 34.444,40.237 39.616,42.079 38.603,34.939 28.792,25.841 	"/>
	<polygon fill="#473234" points="49.8,18.701 47.028,23.423 44.362,24.08 40.096,31.024 38.603,34.939 39.616,42.079 34.444,40.237 
		33.368,36.548 32.899,34.939 31.992,31.83 29.485,30.678 26.483,30.022 15.463,36.206 6.698,36.04 0.64,33.788 3.412,37.945 
		9.597,42.079 25.913,40.006 26.483,39.593 29.992,42.079 41.696,45.074 44.575,37.884 47.987,34.939 49.374,27.275 47.987,24.08 	
		"/>
	<polygon fill="#875C5B" points="11.156,32.455 12.574,32.553 10.024,27.275 9.171,27.275 1.813,25.726 1.493,26.417 0.64,28.705 
		3.092,30.678 	"/>
	<polygon fill="#875C5B" points="21.754,24.623 12.903,24.08 13.543,27.275 13.543,32.62 18.768,32.981 24.349,28.985 	"/>
	<polygon fill="#7F4F56" points="12.903,24.08 9.171,27.275 10.024,27.275 12.574,32.553 13.543,32.62 13.543,27.275 	"/>
	<polygon fill="#4D3736" points="15.463,36.206 26.483,30.022 24.74,28.705 24.349,28.985 18.768,32.981 13.543,32.62 
		12.574,32.553 11.156,32.455 11.156,32.455 3.092,30.678 0.64,28.705 0,30.678 0.64,33.788 6.698,36.04 	"/>
	<polygon fill="#E0B0A3" points="9.171,21.567 9.171,20.772 5.218,17.646 5.218,17.646 3.488,19.976 3.488,19.976 6.177,19.976 	"/>
	<polygon fill="#E0B0A3" points="15.272,15.69 15.586,14.772 14.015,13.084 14.015,13.084 7.998,13.289 7.638,13.853 7.638,13.853 
		14.08,14.942 	"/>
	<polygon fill="#E0B0A3" points="34.654,8.258 33.776,6.868 33.274,6.326 34.277,5.377 38.93,5.216 38.93,5.216 35.297,3.385 
		32.418,4.594 29.22,8.258 29.22,8.258 31.706,7.816 	"/>
</g>
</svg>
