<?xml version="1.0" encoding="utf-8"?>
<!-- Generator: Adobe Illustrator 17.0.0, SVG Export Plug-In . SVG Version: 6.00 Build 0)  -->
<!DOCTYPE svg PUBLIC "-//W3C//DTD SVG 1.1//EN" "http://www.w3.org/Graphics/SVG/1.1/DTD/svg11.dtd">
<svg version="1.1" id="Layer_1" xmlns="http://www.w3.org/2000/svg" xmlns:xlink="http://www.w3.org/1999/xlink" x="0px" y="0px"
	 width="50px" height="50px" viewBox="0 0 50 50" enable-background="new 0 0 50 50" xml:space="preserve">
<polygon fill="#875C5B" points="47.503,10.181 32.271,10.181 0.172,29.049 4.118,33.434 10.798,37.271 33.063,39.677 37.554,39.677 
	50,22.649 50,21.891 "/>
<g>
	<g>
		<polygon fill="none" points="12.076,35.85 13.278,36.024 12.018,35.786 		"/>
		<polygon fill="#875C5B" points="12.018,35.786 13.278,36.024 31.688,38.692 38.083,32.581 45.331,22.633 47.714,9.849 
			44.62,9.849 43.057,10.98 25.086,21.923 8.95,28.176 0.172,29.049 7.943,31.335 		"/>
		<polygon fill="#875C5B" points="50,22.649 47.714,9.849 49.833,21.713 		"/>
		<polygon fill="#BA8B80" points="25.086,21.923 43.057,10.98 44.62,9.849 32.172,9.849 0.172,29.049 8.95,28.176 		"/>
		<polygon fill="#473234" points="49.833,21.713 45.331,22.633 38.083,32.581 31.688,38.692 33.82,40.02 34.457,40.02 37.657,40.02 
			50,22.649 		"/>
		<polygon fill="#5E484F" points="49.833,21.713 47.714,9.849 45.331,22.633 		"/>
		<polygon fill="#563C3C" points="31.688,38.692 13.278,36.024 12.076,35.85 12.018,35.786 7.943,31.335 0.172,29.049 4.118,33.434 
			10.798,37.271 33.82,40.02 		"/>
	</g>
	<g>
		<polygon fill="none" points="12.076,35.85 13.278,36.024 12.018,35.786 		"/>
		<polygon fill="#875C5B" points="12.018,35.786 13.278,36.024 31.688,38.692 38.083,32.581 45.331,22.633 47.714,9.849 
			44.62,9.849 43.057,10.98 25.086,21.923 8.95,28.176 0.172,29.049 7.943,31.335 		"/>
		<polygon fill="#875C5B" points="50,22.649 47.714,9.849 49.833,21.713 		"/>
		<polygon fill="#BA8B80" points="25.086,21.923 43.057,10.98 44.62,9.849 32.172,9.849 0.172,29.049 8.95,28.176 		"/>
		<polygon fill="#473234" points="49.833,21.713 45.331,22.633 38.083,32.581 31.688,38.692 33.82,40.02 34.457,40.02 37.657,40.02 
			50,22.649 		"/>
		<polygon fill="#5E484F" points="49.833,21.713 47.714,9.849 45.331,22.633 		"/>
		<polygon fill="#563C3C" points="31.688,38.692 13.278,36.024 12.076,35.85 12.018,35.786 7.943,31.335 0.172,29.049 4.118,33.434 
			10.798,37.271 33.82,40.02 		"/>
	</g>
</g>
</svg>
