<?xml version="1.0" encoding="utf-8"?>
<!-- Generator: Adobe Illustrator 17.0.0, SVG Export Plug-In . SVG Version: 6.00 Build 0)  -->
<!DOCTYPE svg PUBLIC "-//W3C//DTD SVG 1.1//EN" "http://www.w3.org/Graphics/SVG/1.1/DTD/svg11.dtd">
<svg version="1.1" id="Layer_1" xmlns="http://www.w3.org/2000/svg" xmlns:xlink="http://www.w3.org/1999/xlink" x="0px" y="0px"
	 width="50px" height="50px" viewBox="0 0 50 50" enable-background="new 0 0 50 50" xml:space="preserve">
<polygon fill="#875C5B" points="28.852,10.917 11.666,19.646 8.226,37.53 12.643,38.991 28.174,39.249 41.931,26.524 39.179,12.767 
	"/>
<g>
	<polygon fill="#875C5B" points="29.636,30.673 35.196,22.441 40.492,19.329 39.179,12.767 35.517,15.45 33.164,15.45 26.75,14.85 
		16.058,20.196 11.666,19.646 8.226,37.53 10.21,27.217 11.666,27.787 11.666,34.309 12.697,39.249 24.291,39.249 25.422,37.409 	
		"/>
	<polygon fill="#473234" points="26.75,14.85 33.164,15.45 35.517,15.45 39.179,12.767 28.862,10.704 11.666,19.646 16.058,20.196 	
		"/>
	<polygon fill="#BA8B80" points="40.492,19.329 40.492,19.329 35.196,22.441 29.636,30.673 25.422,37.409 24.291,39.249 
		28.174,39.249 41.931,26.524 	"/>
	<polygon fill="#4D3736" points="11.666,27.787 10.21,27.217 8.226,37.53 12.697,39.249 11.666,34.309 	"/>
</g>
</svg>
