<?xml version="1.0" encoding="utf-8"?>
<!-- Generator: Adobe Illustrator 17.0.0, SVG Export Plug-In . SVG Version: 6.00 Build 0)  -->
<!DOCTYPE svg PUBLIC "-//W3C//DTD SVG 1.1//EN" "http://www.w3.org/Graphics/SVG/1.1/DTD/svg11.dtd">
<svg version="1.1" id="Layer_1" xmlns="http://www.w3.org/2000/svg" xmlns:xlink="http://www.w3.org/1999/xlink" x="0px" y="0px"
	 width="50px" height="50px" viewBox="0 0 50 50" enable-background="new 0 0 50 50" xml:space="preserve">
<rect fill="#8255A2" width="50" height="50"/>
<g>
	<circle fill="#EEADBF" cx="22.506" cy="38.363" r="2.747"/>
	
		<ellipse transform="matrix(0.4393 -0.8983 0.8983 0.4393 -21.8654 41.6931)" fill="#F094A4" cx="22.467" cy="38.363" rx="0.467" ry="0.553"/>
	
		<ellipse transform="matrix(0.4393 -0.8983 0.8983 0.4393 -22.2468 37.5659)" fill="#9DD4C2" cx="18.97" cy="36.604" rx="0.423" ry="0.216"/>
	
		<ellipse transform="matrix(0.4393 -0.8983 0.8983 0.4393 -17.5663 41.2855)" fill="#9DD4C2" cx="24.29" cy="34.715" rx="0.328" ry="0.441"/>
	
		<ellipse transform="matrix(0.4393 -0.8983 0.8983 0.4393 -23.607 45.6597)" fill="#9DD4C2" cx="24.774" cy="41.741" rx="0.49" ry="0.55"/>
	
		<ellipse transform="matrix(0.9348 -0.3552 0.3552 0.9348 -11.6261 11.5394)" fill="#9DD4C2" cx="25.61" cy="37.429" rx="0.328" ry="0.481"/>
	
		<ellipse transform="matrix(0.4393 -0.8983 0.8983 0.4393 -18.382 39.2169)" fill="#9DD4C2" cx="22.225" cy="34.334" rx="0.328" ry="0.441"/>
	<path fill="#9DD4C2" d="M18.781,38.358c0.18,0.196,0.198,0.503,0.056,0.633c-0.142,0.13-0.403,0.078-0.583-0.118
		s-0.21-0.46-0.068-0.59C18.328,38.153,18.601,38.163,18.781,38.358z"/>
	
		<ellipse transform="matrix(0.4393 -0.8983 0.8983 0.4393 -18.596 42.3111)" fill="#9DD4C2" cx="24.597" cy="36.052" rx="0.354" ry="0.38"/>
	
		<ellipse transform="matrix(0.8899 -0.4562 0.4562 0.8899 -13.728 13.0863)" fill="#9DD4C2" cx="20.24" cy="34.977" rx="0.481" ry="0.392"/>
	<path fill="#9DD4C2" d="M19.395,40.279c0.223,0.109,0.368,0.338,0.282,0.514s-0.371,0.232-0.594,0.123
		c-0.223-0.109-0.334-0.34-0.248-0.516C18.921,40.224,19.172,40.17,19.395,40.279z"/>
	
		<ellipse transform="matrix(0.4393 -0.8983 0.8983 0.4393 -25.972 42.1183)" fill="#9DD4C2" cx="20.754" cy="41.865" rx="0.354" ry="0.453"/>
	
		<ellipse transform="matrix(0.4393 -0.8983 0.8983 0.4393 -18.7842 40.5692)" fill="#9DD4C2" cx="23.107" cy="35.332" rx="0.354" ry="0.402"/>
	
		<ellipse transform="matrix(-0.2217 -0.9751 0.9751 -0.2217 -4.6197 72.6684)" fill="#9DD4C2" cx="26.692" cy="38.178" rx="0.574" ry="0.35"/>
	
		<ellipse transform="matrix(0.4393 -0.8983 0.8983 0.4393 -21.5357 46.094)" fill="#9DD4C2" cx="26.157" cy="40.299" rx="0.492" ry="0.346"/>
	
		<ellipse transform="matrix(0.4393 -0.8983 0.8983 0.4393 -23.957 44.3234)" fill="#9DD4C2" cx="23.528" cy="41.353" rx="0.423" ry="0.346"/>
	
		<ellipse transform="matrix(0.4393 -0.8983 0.8983 0.4393 -25.1079 41.247)" fill="#9DD4C2" cx="20.488" cy="40.737" rx="0.423" ry="0.346"/>
	
		<ellipse transform="matrix(0.4393 -0.8983 0.8983 0.4393 -23.0243 38.5846)" fill="#9DD4C2" cx="19.397" cy="37.737" rx="0.423" ry="0.346"/>
	
		<ellipse transform="matrix(0.6941 0.7199 -0.7199 0.6941 36.8285 -5.5919)" fill="#9DD4C2" cx="24.994" cy="40.537" rx="0.423" ry="0.382"/>
	
		<ellipse transform="matrix(0.4393 -0.8983 0.8983 0.4393 -25.4415 44.3444)" fill="#9DD4C2" cx="22.803" cy="42.553" rx="0.423" ry="0.346"/>
	
		<ellipse transform="matrix(0.7471 -0.6647 0.6647 0.7471 -17.5011 26.3789)" fill="#9DD4C2" cx="25.915" cy="36.188" rx="0.259" ry="0.562"/>
	<path fill="#9DD4C2" d="M20.399,36.098c0.085,0.095,0.022,0.28-0.128,0.413s-0.352,0.211-0.437,0.116
		c-0.085-0.095-0.02-0.328,0.13-0.461S20.314,36.003,20.399,36.098z"/>
	
		<ellipse transform="matrix(-0.2527 -0.9675 0.9675 -0.2527 -7.2318 65.1285)" fill="#9DD4C2" cx="21.534" cy="35.357" rx="0.259" ry="0.562"/>
	
		<ellipse transform="matrix(0.7471 -0.6647 0.6647 0.7471 -21.2101 23.0546)" fill="#9DD4C2" cx="19.692" cy="39.4" rx="0.259" ry="0.562"/>
	
		<ellipse transform="matrix(0.5662 -0.8243 0.8243 0.5662 -24.646 36.0506)" fill="#9DD4C2" cx="21.928" cy="41.441" rx="0.259" ry="0.562"/>
	
		<ellipse transform="matrix(0.9975 0.0702 -0.0702 0.9975 2.7997 -1.7071)" fill="#9DD4C2" cx="25.702" cy="39.002" rx="0.259" ry="0.46"/>
	<path fill="#7CC7B0" d="M19.517,38.097l0.977,0.013c0,0,0.021,0.006,0.031-0.014c0.009-0.019,0.043-0.167,0.043-0.167
		s-0.002-0.035-0.029-0.048c-0.027-0.013-0.851-0.439-0.851-0.439L19.517,38.097z"/>
	<path fill="#7CC7B0" d="M18.785,38.994l1.035-0.321c0,0,0.025-0.002,0.027-0.023c0.002-0.022-0.023-0.171-0.023-0.171
		s-0.017-0.032-0.051-0.035c-0.034-0.003-1.077-0.123-1.077-0.123L18.785,38.994z"/>
	<path fill="#9DD4C2" d="M19.916,36.631l0.888,0.437c0,0,0.017,0.014,0.035,0.001c0.018-0.014,0.123-0.136,0.123-0.136
		s0.015-0.033-0.003-0.057c-0.018-0.024-0.559-0.777-0.559-0.777L19.916,36.631z"/>
	<path fill="#7CC7B0" d="M19.812,39.656l0.825-0.524c0,0,0.021-0.007,0.018-0.028c-0.003-0.021-0.055-0.163-0.055-0.163
		s-0.021-0.028-0.051-0.024c-0.03,0.004-0.953,0.099-0.953,0.099L19.812,39.656z"/>
	<path fill="#9DD4C2" d="M20.82,40.816l0.425-0.857c0,0,0.014-0.017,0.001-0.031c-0.012-0.014-0.123-0.089-0.123-0.089
		s-0.03-0.009-0.053,0.011c-0.023,0.02-0.734,0.616-0.734,0.616L20.82,40.816z"/>
	<path fill="#7CC7B0" d="M21.239,35.56l0.419,0.883c0,0,0.004,0.022,0.026,0.022s0.168-0.035,0.168-0.035s0.03-0.017,0.03-0.048
		c0-0.03,0.018-0.958,0.018-0.958L21.239,35.56z"/>
	<path fill="#9DD4C2" d="M21.922,34.47l0.31,1.132c0,0,0.002,0.027,0.023,0.029c0.021,0.002,0.175-0.015,0.175-0.015
		s0.024-0.008,0.028-0.045c0.004-0.037,0.14-1.203,0.14-1.203L21.922,34.47z"/>
	<path fill="#7CC7B0" d="M23.936,34.693l-0.28,1.145c0,0-0.012,0.025,0.006,0.037c0.018,0.012,0.157,0.074,0.157,0.074
		s0.027,0.003,0.049-0.028c0.021-0.031,0.71-0.991,0.71-0.991L23.936,34.693z"/>
	<path fill="#7CC7B0" d="M24.308,35.862l-0.64,0.871c0,0-0.019,0.016-0.008,0.035c0.011,0.019,0.12,0.124,0.12,0.124
		s0.032,0.016,0.062-0.002s0.937-0.539,0.937-0.539L24.308,35.862z"/>
	<path fill="#7CC7B0" d="M25.52,35.836l-0.78,0.893c0,0-0.021,0.013-0.012,0.033c0.008,0.02,0.102,0.14,0.102,0.14
		s0.03,0.02,0.061,0.007s1.068-0.368,1.068-0.368L25.52,35.836z"/>
	<path fill="#7CC7B0" d="M25.295,37.13l-0.856,0.472c0,0-0.021,0.006-0.02,0.027s0.045,0.166,0.045,0.166s0.019,0.029,0.049,0.027
		c0.03-0.002,0.957-0.04,0.957-0.04L25.295,37.13z"/>
	<path fill="#7CC7B0" d="M25.58,38.616l-0.945,0.099c0,0-0.022-0.003-0.029,0.017c-0.007,0.02-0.023,0.17-0.023,0.17
		s0.006,0.034,0.035,0.044c0.029,0.01,0.945,0.462,0.945,0.462L25.58,38.616z"/>
	<path fill="#7CC7B0" d="M26.383,37.807l-1.112,0.25c0,0-0.026,0-0.03,0.022s-0.001,0.177-0.001,0.177s0.032,0.029,0.068,0.034
		c0.036,0.006,1.133,0.197,1.133,0.197L26.383,37.807z"/>
	<path fill="#7CC7B0" d="M25.117,40.198l-0.828-0.518c0,0-0.015-0.016-0.033-0.004c-0.018,0.012-0.123,0.12-0.123,0.12
		s-0.016,0.031,0,0.056s0.5,0.817,0.5,0.817L25.117,40.198z"/>
	<path fill="#7CC7B0" d="M24.859,41.25l-0.666-0.715c0,0-0.011-0.019-0.031-0.013c-0.021,0.007-0.15,0.084-0.15,0.084
		s-0.024,0.026-0.014,0.054c0.009,0.029,0.271,0.919,0.271,0.919L24.859,41.25z"/>
	<path fill="#7CC7B0" d="M23.826,41.115l-0.51-0.834c0,0-0.007-0.021-0.028-0.019c-0.021,0.002-0.164,0.052-0.164,0.052
		s-0.028,0.02-0.025,0.05s0.083,0.954,0.083,0.954L23.826,41.115z"/>
	<path fill="#9DD4C2" d="M23.139,42.416l-0.294-1.309c0,0-0.001-0.031-0.023-0.033c-0.021-0.002-0.172,0.033-0.172,0.033
		s-0.032,0.022-0.037,0.065s-0.152,1.373-0.152,1.373L23.139,42.416z"/>
	<path fill="#7CC7B0" d="M22.193,41.353l0.113-0.971c0,0,0.008-0.021-0.011-0.032c-0.018-0.011-0.161-0.06-0.161-0.06
		s-0.035-0.001-0.051,0.024c-0.016,0.026-0.524,0.802-0.524,0.802L22.193,41.353z"/>
	<path fill="#9DD4C2" d="M21.147,41.915l0.29-0.988c0,0,0.011-0.034-0.005-0.048s-0.152-0.067-0.152-0.067s-0.035-0.006-0.056,0.019
		c-0.021,0.025-0.675,0.765-0.675,0.765L21.147,41.915z"/>
	<path fill="#7CC7B0" d="M19.654,40.782l0.638-0.797c0,0,0.018-0.014,0.008-0.033c-0.01-0.019-0.109-0.133-0.109-0.133
		s-0.03-0.019-0.058-0.004s-0.908,0.443-0.908,0.443L19.654,40.782z"/>
	<path fill="#7CC7B0" d="M20.098,35.379l0.754,0.741c0,0,0.016,0.031,0.036,0.023c0.02-0.008,0.149-0.101,0.149-0.101
		s0.015-0.019,0.002-0.05c-0.013-0.031-0.384-0.999-0.384-0.999L20.098,35.379z"/>
	<path fill="#7CC7B0" d="M22.746,35.35l-0.212,0.954c0,0-0.01,0.02,0.007,0.033c0.017,0.013,0.154,0.076,0.154,0.076
		s0.034,0.005,0.053-0.019c0.019-0.024,0.652-0.844,0.652-0.844L22.746,35.35z"/>
	<path fill="#7CC7B0" d="M26.128,39.889l-1.061-0.417c0,0-0.031-0.018-0.045-0.002c-0.015,0.016-0.086,0.17-0.086,0.17
		s0.005,0.022,0.031,0.046c0.027,0.025,0.828,0.798,0.828,0.798L26.128,39.889z"/>
	<path fill="#9DD4C2" d="M18.882,36.969l1.084,0.283c0,0,0.039-0.011,0.051-0.028c0.013-0.017,0.06-0.135,0.06-0.135
		s0.001-0.037-0.028-0.058c-0.029-0.021-0.905-0.69-0.905-0.69L18.882,36.969z"/>
	
		<ellipse transform="matrix(-0.6185 -0.7858 0.7858 -0.6185 2.7435 81.4298)" fill="#F5A7B9" cx="21.138" cy="40.049" rx="0.66" ry="0.424"/>
	
		<ellipse transform="matrix(-0.6185 -0.7858 0.7858 -0.6185 6.0431 83.1739)" fill="#F5A7B9" cx="23.212" cy="40.12" rx="0.448" ry="0.601"/>
	
		<ellipse transform="matrix(-0.6185 -0.7858 0.7858 -0.6185 8.9045 82.4026)" fill="#F5A7B9" cx="24.455" cy="39.04" rx="0.577" ry="0.471"/>
	
		<ellipse transform="matrix(-0.6185 -0.7858 0.7858 -0.6185 10.0005 79.6268)" fill="#F5A7B9" cx="24.329" cy="37.386" rx="0.495" ry="0.53"/>
	
		<ellipse transform="matrix(-0.2744 -0.9616 0.9616 -0.2744 -6.7327 67.3967)" fill="#F094A4" cx="22.061" cy="36.238" rx="0.353" ry="0.766"/>
	
		<ellipse transform="matrix(-0.6185 -0.7858 0.7858 -0.6185 6.2474 79.9745)" fill="#F5A7B9" cx="22.537" cy="38.471" rx="0.636" ry="0.754"/>
	
		<ellipse transform="matrix(0.3341 -0.9425 0.9425 0.3341 -20.8484 44.34)" fill="#F094A4" cx="20.958" cy="36.926" rx="0.484" ry="0.311"/>
	
		<ellipse transform="matrix(0.4393 -0.8983 0.8983 0.4393 -23.2168 41.5112)" fill="#F094A4" cx="21.645" cy="39.354" rx="0.328" ry="0.441"/>
	
		<ellipse transform="matrix(0.4393 -0.8983 0.8983 0.4393 -23.1122 42.5214)" fill="#F094A4" cx="22.507" cy="39.775" rx="0.423" ry="0.346"/>
	
		<ellipse transform="matrix(0.4393 -0.8983 0.8983 0.4393 -21.4379 43.0969)" fill="#F094A4" cx="23.805" cy="38.722" rx="0.363" ry="0.389"/>
	
		<ellipse transform="matrix(0.7471 -0.6647 0.6647 0.7471 -18.6792 24.9986)" fill="#F094A4" cx="23.512" cy="37.046" rx="0.259" ry="0.562"/>
	
		<ellipse transform="matrix(0.4393 -0.8983 0.8983 0.4393 -20.6608 40.9797)" fill="#F094A4" cx="22.498" cy="37.041" rx="0.354" ry="0.38"/>
	
		<ellipse transform="matrix(-0.6185 -0.7858 0.7858 -0.6185 2.8399 78.7328)" fill="#F094A4" cx="20.532" cy="38.677" rx="0.636" ry="0.542"/>
	
		<ellipse transform="matrix(-0.6185 -0.7858 0.7858 -0.6185 4.8456 77.9897)" fill="#F5A7B9" cx="21.354" cy="37.819" rx="0.483" ry="0.518"/>
	
		<ellipse transform="matrix(-0.6185 -0.7858 0.7858 -0.6185 3.7355 81.9669)" fill="#5B453F" cx="21.765" cy="40.077" rx="0.335" ry="0.215"/>
	
		<ellipse transform="matrix(-0.6185 -0.7858 0.7858 -0.6185 8.4042 80.3238)" fill="#FDF1F6" cx="23.7" cy="38.122" rx="0.328" ry="0.268"/>
	
		<ellipse transform="matrix(-0.6185 -0.7858 0.7858 -0.6185 9.3645 81.3647)" fill="#FDF1F6" cx="24.433" cy="38.409" rx="0.235" ry="0.251"/>
	
		<ellipse transform="matrix(-0.2744 -0.9616 0.9616 -0.2744 -7.5657 67.5384)" fill="#FDF1F6" cx="21.697" cy="36.624" rx="0.201" ry="0.33"/>
	
		<ellipse transform="matrix(-0.6185 -0.7858 0.7858 -0.6185 5.4389 79.3409)" fill="#5B453F" cx="21.979" cy="38.35" rx="0.289" ry="0.343"/>
	
		<ellipse transform="matrix(0.3341 -0.9425 0.9425 0.3341 -21.5004 44.0574)" fill="#FDF1F6" cx="20.432" cy="37.246" rx="0.241" ry="0.155"/>
	
		<ellipse transform="matrix(0.4393 -0.8983 0.8983 0.4393 -22.8614 40.7427)" fill="#FDF1F6" cx="21.207" cy="38.685" rx="0.187" ry="0.25"/>
	
		<ellipse transform="matrix(0.4393 -0.8983 0.8983 0.4393 -23.1642 41.5858)" fill="#FDF1F6" cx="21.732" cy="39.349" rx="0.241" ry="0.196"/>
	
		<ellipse transform="matrix(0.4393 -0.8983 0.8983 0.4393 -21.7924 42.0785)" fill="#5B453F" cx="22.812" cy="38.497" rx="0.206" ry="0.221"/>
	
		<ellipse transform="matrix(0.7471 -0.6647 0.6647 0.7471 -18.1835 24.7643)" fill="#FDF1F6" cx="23.452" cy="36.278" rx="0.147" ry="0.319"/>
	
		<ellipse transform="matrix(0.4393 -0.8983 0.8983 0.4393 -21.3507 40.8751)" fill="#FDF1F6" cx="22.069" cy="37.541" rx="0.201" ry="0.216"/>
	
		<ellipse transform="matrix(-0.6185 -0.7858 0.7858 -0.6185 2.4771 79.4006)" fill="#FDF1F6" cx="20.513" cy="39.099" rx="0.282" ry="0.24"/>
	
		<ellipse transform="matrix(-0.6185 -0.7858 0.7858 -0.6185 3.6226 77.745)" fill="#5B453F" cx="20.684" cy="37.993" rx="0.198" ry="0.212"/>
	
		<ellipse transform="matrix(-0.6185 -0.7858 0.7858 -0.6185 6.5893 82.2934)" fill="#5B453F" cx="23.271" cy="39.547" rx="0.307" ry="0.364"/>
	
		<ellipse transform="matrix(0.4393 -0.8983 0.8983 0.4393 -22.607 44.0249)" fill="#5B453F" cx="23.964" cy="40.122" rx="0.187" ry="0.25"/>
	
		<ellipse transform="matrix(0.4393 -0.8983 0.8983 0.4393 -20.4954 41.5512)" fill="#5B453F" cx="23.038" cy="37.194" rx="0.241" ry="0.196"/>
	
		<ellipse transform="matrix(-0.6185 -0.7858 0.7858 -0.6185 9.4799 78.7588)" fill="#5B453F" cx="23.858" cy="37.078" rx="0.234" ry="0.274"/>
</g>
<g>
	<circle fill="#F18396" cx="27.37" cy="21.348" r="1.596"/>
	<ellipse fill="#F094A4" cx="27.36" cy="21.328" rx="0.271" ry="0.321"/>
	<path fill="#7CC7B0" d="M26.746,19.72l0.243,0.513c0,0,0.003,0.013,0.015,0.013s0.098-0.02,0.098-0.02s0.018-0.01,0.018-0.028
		c0-0.018,0.012-0.556,0.012-0.556L26.746,19.72z"/>
	<path fill="#7CC7B0" d="M26.091,19.567l0.432,0.459c0,0,0.007,0.012,0.019,0.008s0.084-0.056,0.084-0.056s0.012-0.017,0.005-0.035
		c-0.007-0.019-0.211-0.594-0.211-0.594L26.091,19.567z"/>
	<path fill="#7CC7B0" d="M27.613,19.554l-0.002,0.575c0,0-0.003,0.012,0.009,0.018c0.012,0.006,0.102,0.029,0.102,0.029
		s0.021,0,0.029-0.016c0.008-0.016,0.263-0.491,0.263-0.491L27.613,19.554z"/>
	<path fill="#7CC7B0" d="M26.007,20.272l0.484,0.297c0,0,0.009,0.009,0.019,0.002c0.011-0.007,0.071-0.07,0.071-0.07
		s0.009-0.018,0-0.033c-0.01-0.015-0.295-0.472-0.295-0.472L26.007,20.272z"/>
	<path fill="#7CC7B0" d="M25.659,21.095l0.556,0.003c0,0,0.012,0.003,0.017-0.007c0.004-0.01,0.015-0.087,0.015-0.087
		s-0.003-0.018-0.019-0.025c-0.016-0.007-0.509-0.226-0.509-0.226L25.659,21.095z"/>
	<path fill="#7CC7B0" d="M28.509,19.972l-0.354,0.444c0,0-0.01,0.008-0.005,0.019c0.006,0.011,0.061,0.079,0.061,0.079
		s0.017,0.011,0.033,0.004c0.016-0.008,0.505-0.235,0.505-0.235L28.509,19.972z"/>
	<path fill="#7CC7B0" d="M29.253,20.05l-0.512,0.451c0,0-0.014,0.008-0.009,0.02c0.004,0.012,0.052,0.087,0.052,0.087
		s0.01,0.011,0.031,0.003c0.02-0.008,0.664-0.234,0.664-0.234L29.253,20.05z"/>
	<path fill="#7CC7B0" d="M29.651,21.158l-0.669,0.146c0,0-0.016,0-0.018,0.013c-0.002,0.012,0.001,0.101,0.001,0.101
		s0.005,0.015,0.027,0.018c0.022,0.003,0.699,0.118,0.699,0.118L29.651,21.158z"/>
	<path fill="#7CC7B0" d="M29.135,21.651l-0.618-0.111c0,0-0.013-0.006-0.02,0.005c-0.007,0.011-0.034,0.094-0.034,0.094
		s0,0.021,0.017,0.032C28.496,21.681,29,22.022,29,22.022L29.135,21.651z"/>
	<path fill="#7CC7B0" d="M29.459,22.277l-0.665-0.179c0,0-0.012-0.007-0.02,0.002c-0.008,0.01-0.047,0.089-0.047,0.089
		s-0.003,0.021,0.012,0.033c0.015,0.013,0.465,0.464,0.465,0.464L29.459,22.277z"/>
	<path fill="#7CC7B0" d="M28.726,22.489l-0.465-0.326c0,0-0.008-0.01-0.019-0.003c-0.011,0.006-0.075,0.066-0.075,0.066
		s-0.01,0.017-0.002,0.033s0.265,0.489,0.265,0.489L28.726,22.489z"/>
	<path fill="#7CC7B0" d="M28.022,23.018l-0.293-0.468c0,0-0.004-0.012-0.016-0.011c-0.012,0.001-0.095,0.031-0.095,0.031
		s-0.016,0.012-0.014,0.029s0,0.611,0,0.611L28.022,23.018z"/>
	<path fill="#7CC7B0" d="M28.65,23.23l-0.414-0.517c0,0-0.007-0.014-0.019-0.01s-0.093,0.045-0.093,0.045s-0.007,0.024-0.001,0.044
		s0.187,0.642,0.187,0.642L28.65,23.23z"/>
	<path fill="#7CC7B0" d="M27.078,23.18l0.059-0.565c0,0,0.004-0.012-0.006-0.019c-0.011-0.007-0.094-0.034-0.094-0.034
		s-0.02-0.001-0.029,0.014c-0.009,0.015-0.299,0.47-0.299,0.47L27.078,23.18z"/>
	<path fill="#7CC7B0" d="M26.463,23.314l0.203-0.53c0,0,0.007-0.01-0.001-0.02c-0.009-0.009-0.082-0.057-0.082-0.057
		s-0.019-0.006-0.032,0.006c-0.013,0.012-0.41,0.376-0.41,0.376L26.463,23.314z"/>
	<path fill="#7CC7B0" d="M26.27,22.74l0.305-0.479c0,0,0.009-0.009,0.003-0.019c-0.007-0.011-0.069-0.072-0.069-0.072
		s-0.018-0.01-0.033,0s-0.477,0.287-0.477,0.287L26.27,22.74z"/>
	<path fill="#7CC7B0" d="M25.415,22.713l0.608-0.487c0,0,0.016-0.009,0.012-0.02c-0.004-0.012-0.062-0.081-0.062-0.081
		s-0.02-0.011-0.043-0.002c-0.024,0.009-0.756,0.271-0.756,0.271L25.415,22.713z"/>
	<path fill="#7CC7B0" d="M25.729,21.948l0.536-0.189c0,0,0.013-0.001,0.014-0.014c0.001-0.012-0.01-0.099-0.01-0.099
		s-0.008-0.019-0.026-0.02c-0.017-0.002-0.552-0.069-0.552-0.069L25.729,21.948z"/>
	<path fill="#7CC7B0" d="M25.169,21.546l0.59-0.101c0,0,0.021-0.003,0.024-0.015c0.003-0.012-0.004-0.097-0.004-0.097
		s-0.006-0.02-0.024-0.024c-0.018-0.005-0.572-0.157-0.572-0.157L25.169,21.546z"/>
	<path fill="#7CC7B0" d="M25.379,20.477l0.579,0.13c0,0,0.012,0.006,0.02-0.004c0.008-0.01,0.042-0.091,0.042-0.091
		s0.002-0.02-0.013-0.032c-0.015-0.011-0.463-0.361-0.463-0.361L25.379,20.477z"/>
	<path fill="#7CC7B0" d="M28.313,19.33l-0.194,0.582c0,0-0.012,0.016-0.003,0.025c0.009,0.008,0.091,0.052,0.091,0.052
		s0.014,0.003,0.027-0.012s0.424-0.456,0.424-0.456L28.313,19.33z"/>
	<path fill="#7CC7B0" d="M29.004,20.705l-0.552,0.133c0,0-0.013,0-0.015,0.012c-0.003,0.012,0,0.1,0,0.1s0.006,0.019,0.023,0.023
		c0.017,0.004,0.607,0.125,0.607,0.125L29.004,20.705z"/>
	<path fill="#7CC7B0" d="M27.498,23.629l-0.053-0.66c0,0,0.002-0.021-0.01-0.024c-0.012-0.004-0.11-0.002-0.11-0.002
		s-0.01,0.008-0.016,0.028c-0.006,0.02-0.205,0.636-0.205,0.636L27.498,23.629z"/>
	<path fill="#7CC7B0" d="M27.172,19.101l0.129,0.638c0,0,0.015,0.017,0.028,0.02s0.086-0.003,0.086-0.003s0.019-0.009,0.023-0.029
		c0.004-0.021,0.129-0.648,0.129-0.648L27.172,19.101z"/>
	
		<ellipse transform="matrix(0.4342 -0.9008 0.9008 0.4342 -4.1851 35.4669)" fill="#F5A7B9" cx="26.141" cy="21.065" rx="0.383" ry="0.246"/>
	
		<ellipse transform="matrix(0.4342 -0.9008 0.9008 0.4342 -4.8979 36.5329)" fill="#F5A7B9" cx="26.633" cy="22.165" rx="0.26" ry="0.349"/>
	
		<ellipse transform="matrix(0.4342 -0.9008 0.9008 0.4342 -4.7356 37.538)" fill="#F5A7B9" cx="27.514" cy="22.539" rx="0.335" ry="0.274"/>
	
		<ellipse transform="matrix(0.4342 -0.9008 0.9008 0.4342 -3.8257 38.0108)" fill="#F5A7B9" cx="28.345" cy="22.051" rx="0.288" ry="0.308"/>
	
		<ellipse transform="matrix(0.7433 -0.669 0.669 0.7433 -6.4815 24.2562)" fill="#F5A7B9" cx="28.365" cy="20.574" rx="0.205" ry="0.445"/>
	
		<ellipse transform="matrix(0.4342 -0.9008 0.9008 0.4342 -3.8117 36.7159)" fill="#F5A7B9" cx="27.322" cy="21.392" rx="0.37" ry="0.438"/>
	
		<ellipse transform="matrix(0.9935 -0.1139 0.1139 0.9935 -2.1167 3.2881)" fill="#F094A4" cx="27.725" cy="20.173" rx="0.281" ry="0.181"/>
	<ellipse fill="#F094A4" cx="26.633" cy="21.152" rx="0.191" ry="0.256"/>
	<ellipse fill="#F094A4" cx="26.633" cy="21.71" rx="0.246" ry="0.201"/>
	<ellipse fill="#F094A4" cx="27.514" cy="22.118" rx="0.211" ry="0.226"/>
	
		<ellipse transform="matrix(0.9253 0.3791 -0.3791 0.9253 10.2795 -9.1268)" fill="#F094A4" cx="28.314" cy="21.538" rx="0.151" ry="0.326"/>
	<ellipse fill="#F094A4" cx="28.058" cy="21.007" rx="0.206" ry="0.221"/>
	
		<ellipse transform="matrix(0.4342 -0.9008 0.9008 0.4342 -3.2668 35.5953)" fill="#F094A4" cx="26.702" cy="20.398" rx="0.37" ry="0.315"/>
	
		<ellipse transform="matrix(0.4342 -0.9008 0.9008 0.4342 -3.0838 36.3071)" fill="#F5A7B9" cx="27.36" cy="20.608" rx="0.281" ry="0.301"/>
	
		<ellipse transform="matrix(0.4342 -0.9008 0.9008 0.4342 -4.4038 35.7869)" fill="#5B453F" cx="26.286" cy="21.399" rx="0.195" ry="0.125"/>
	
		<ellipse transform="matrix(0.4342 -0.9008 0.9008 0.4342 -4.0074 37.4406)" fill="#5B453F" cx="27.801" cy="21.91" rx="0.191" ry="0.156"/>
	
		<ellipse transform="matrix(0.4342 -0.9008 0.9008 0.4342 -4.3971 37.732)" fill="#5B453F" cx="27.838" cy="22.366" rx="0.136" ry="0.146"/>
	
		<ellipse transform="matrix(0.7433 -0.669 0.669 0.7433 -6.4959 24.0364)" fill="#5B453F" cx="28.072" cy="20.482" rx="0.117" ry="0.192"/>
	
		<ellipse transform="matrix(0.4342 -0.9008 0.9008 0.4342 -3.5666 36.462)" fill="#5B453F" cx="27.242" cy="21.07" rx="0.168" ry="0.199"/>
	
		<ellipse transform="matrix(0.9935 -0.1139 0.1139 0.9935 -2.0967 3.2526)" fill="#5B453F" cx="27.424" cy="19.98" rx="0.14" ry="0.09"/>
	<ellipse fill="#5B453F" cx="26.87" cy="20.753" rx="0.108" ry="0.146"/>
	<ellipse fill="#5B453F" cx="26.657" cy="21.196" rx="0.14" ry="0.114"/>
	<ellipse fill="#5B453F" cx="27.378" cy="21.542" rx="0.12" ry="0.128"/>
	
		<ellipse transform="matrix(0.9253 0.3791 -0.3791 0.9253 10.222 -9.2901)" fill="#5B453F" cx="28.7" cy="21.31" rx="0.086" ry="0.185"/>
	<ellipse fill="#5B453F" cx="27.687" cy="20.911" rx="0.117" ry="0.126"/>
	
		<ellipse transform="matrix(0.4342 -0.9008 0.9008 0.4342 -3.4822 35.4477)" fill="#5B453F" cx="26.477" cy="20.496" rx="0.164" ry="0.14"/>
	
		<ellipse transform="matrix(0.4342 -0.9008 0.9008 0.4342 -2.9569 35.8978)" fill="#5B453F" cx="27.098" cy="20.303" rx="0.115" ry="0.123"/>
	
		<ellipse transform="matrix(0.4342 -0.9008 0.9008 0.4342 -4.6163 36.7507)" fill="#5B453F" cx="26.947" cy="22.05" rx="0.178" ry="0.211"/>
	<ellipse fill="#5B453F" cx="26.824" cy="22.559" rx="0.108" ry="0.146"/>
	<ellipse fill="#5B453F" cx="28.116" cy="21.328" rx="0.14" ry="0.114"/>
	
		<ellipse transform="matrix(0.4342 -0.9008 0.9008 0.4342 -3.5107 37.8636)" fill="#5B453F" cx="28.386" cy="21.726" rx="0.136" ry="0.159"/>
	<ellipse fill="#45AD8D" cx="27.385" cy="19.054" rx="0.246" ry="0.126"/>
	<ellipse fill="#45AD8D" cx="26.185" cy="23.395" rx="0.284" ry="0.32"/>
	
		<ellipse transform="matrix(0.7298 0.6837 -0.6837 0.7298 23.2826 -13.4452)" fill="#45AD8D" cx="28.65" cy="22.731" rx="0.191" ry="0.28"/>
	<ellipse fill="#45AD8D" cx="29.401" cy="20.173" rx="0.191" ry="0.256"/>
	<path fill="#45AD8D" d="M26.421,19.403c-0.056,0.144-0.212,0.232-0.316,0.191s-0.143-0.19-0.087-0.334
		c0.056-0.144,0.186-0.227,0.291-0.186S26.478,19.259,26.421,19.403z"/>
	<ellipse fill="#45AD8D" cx="29.11" cy="21.85" rx="0.206" ry="0.221"/>
	
		<ellipse transform="matrix(0.8008 0.599 -0.599 0.8008 17.2515 -13.2611)" fill="#45AD8D" cx="28.559" cy="19.301" rx="0.279" ry="0.228"/>
	<path fill="#45AD8D" d="M25.575,20.213c0,0.144-0.082,0.279-0.196,0.279s-0.216-0.134-0.216-0.279s0.092-0.261,0.206-0.261
		S25.575,20.069,25.575,20.213z"/>
	<ellipse fill="#45AD8D" cx="25.095" cy="21.328" rx="0.206" ry="0.263"/>
	<ellipse fill="#45AD8D" cx="29.105" cy="20.889" rx="0.206" ry="0.233"/>
	
		<ellipse transform="matrix(0.7786 -0.6275 0.6275 0.7786 -8.4205 23.1051)" fill="#45AD8D" cx="28.535" cy="23.486" rx="0.334" ry="0.203"/>
	<ellipse fill="#45AD8D" cx="27.291" cy="23.749" rx="0.286" ry="0.201"/>
	<ellipse fill="#45AD8D" cx="26.07" cy="22.645" rx="0.246" ry="0.201"/>
	<ellipse fill="#45AD8D" cx="25.616" cy="20.901" rx="0.246" ry="0.201"/>
	<ellipse fill="#45AD8D" cx="26.903" cy="19.566" rx="0.246" ry="0.201"/>
	
		<ellipse transform="matrix(-0.3418 0.9398 -0.9398 -0.3418 57.8593 5.8811)" fill="#45AD8D" cx="26.87" cy="23.202" rx="0.246" ry="0.222"/>
	<ellipse fill="#45AD8D" cx="25.258" cy="22.573" rx="0.246" ry="0.201"/>
	
		<ellipse transform="matrix(0.9253 0.3791 -0.3791 0.9253 10.7512 -9.4519)" fill="#45AD8D" cx="29.375" cy="22.573" rx="0.151" ry="0.326"/>
	<path fill="#45AD8D" d="M28.014,19.67c-0.028,0.069-0.141,0.083-0.248,0.039c-0.108-0.044-0.2-0.13-0.172-0.198
		s0.166-0.094,0.274-0.05C27.975,19.505,28.042,19.602,28.014,19.67z"/>
	
		<ellipse transform="matrix(0.7581 -0.6521 0.6521 0.7581 -6.1509 23.5639)" fill="#45AD8D" cx="28.691" cy="20.074" rx="0.151" ry="0.326"/>
	
		<ellipse transform="matrix(0.9253 0.3791 -0.3791 0.9253 9.5867 -8.3952)" fill="#45AD8D" cx="26.11" cy="20.144" rx="0.151" ry="0.326"/>
	
		<ellipse transform="matrix(0.9892 0.1466 -0.1466 0.9892 3.4765 -3.5186)" fill="#45AD8D" cx="25.616" cy="21.832" rx="0.151" ry="0.326"/>
	
		<ellipse transform="matrix(0.3752 0.927 -0.927 0.3752 38.8891 -11.3343)" fill="#45AD8D" cx="27.852" cy="23.18" rx="0.151" ry="0.267"/>
	
		<ellipse transform="matrix(0.941 -0.3385 0.3385 0.941 -5.4747 11.3265)" fill="#45AD8D" cx="29.734" cy="21.359" rx="0.148" ry="0.234"/>
</g>
<g>
	<path fill="#4DB08F" d="M10.505,8.417l0.359,0.76c0,0,0.004,0.019,0.022,0.019s0.145-0.03,0.145-0.03s0.026-0.015,0.026-0.041
		c0-0.026,0.017-0.824,0.017-0.824L10.505,8.417z"/>
	<path fill="#4DB08F" d="M9.535,8.19l0.639,0.679c0,0,0.011,0.018,0.028,0.012c0.017-0.007,0.124-0.083,0.124-0.083
		s0.018-0.025,0.008-0.052c-0.01-0.028-0.312-0.879-0.312-0.879L9.535,8.19z"/>
	<path fill="#4DB08F" d="M11.788,8.171l-0.002,0.851c0,0-0.005,0.018,0.013,0.027c0.018,0.009,0.151,0.043,0.151,0.043
		s0.031-0.001,0.043-0.024s0.39-0.726,0.39-0.726L11.788,8.171z"/>
	<path fill="#4DB08F" d="M9.411,9.235l0.717,0.439c0,0,0.013,0.014,0.029,0.003s0.105-0.104,0.105-0.104s0.014-0.027-0.001-0.048
		c-0.014-0.022-0.437-0.699-0.437-0.699L9.411,9.235z"/>
	<path fill="#4DB08F" d="M8.895,10.453l0.823,0.005c0,0,0.018,0.004,0.025-0.011c0.006-0.015,0.022-0.129,0.022-0.129
		s-0.005-0.027-0.029-0.037c-0.024-0.01-0.753-0.335-0.753-0.335L8.895,10.453z"/>
	<path fill="#4DB08F" d="M13.117,8.79l-0.524,0.658c0,0-0.015,0.012-0.007,0.028c0.008,0.017,0.091,0.117,0.091,0.117
		s0.025,0.017,0.048,0.005c0.023-0.011,0.747-0.348,0.747-0.348L13.117,8.79z"/>
	<path fill="#4DB08F" d="M14.218,8.906L13.46,9.573c0,0-0.02,0.012-0.014,0.029c0.007,0.017,0.077,0.129,0.077,0.129
		s0.015,0.016,0.046,0.004s0.983-0.347,0.983-0.347L14.218,8.906z"/>
	<path fill="#4DB08F" d="M14.807,10.546l-0.991,0.216c0,0-0.023,0-0.026,0.019c-0.003,0.018,0.002,0.149,0.002,0.149
		s0.008,0.022,0.04,0.027c0.032,0.005,1.035,0.174,1.035,0.174L14.807,10.546z"/>
	<path fill="#4DB08F" d="M14.043,11.276l-0.915-0.165c0,0-0.02-0.008-0.03,0.007c-0.01,0.016-0.051,0.14-0.051,0.14
		s0,0.031,0.025,0.047c0.025,0.016,0.771,0.52,0.771,0.52L14.043,11.276z"/>
	<path fill="#4DB08F" d="M14.522,12.203l-0.985-0.265c0,0-0.018-0.011-0.03,0.003c-0.012,0.014-0.07,0.132-0.07,0.132
		s-0.004,0.031,0.018,0.05c0.022,0.019,0.688,0.687,0.688,0.687L14.522,12.203z"/>
	<path fill="#4DB08F" d="M13.437,12.518l-0.688-0.483c0,0-0.012-0.014-0.029-0.005c-0.016,0.009-0.111,0.098-0.111,0.098
		s-0.015,0.026-0.002,0.048c0.013,0.023,0.392,0.725,0.392,0.725L13.437,12.518z"/>
	<path fill="#4DB08F" d="M12.395,13.3l-0.433-0.693c0,0-0.006-0.018-0.024-0.016c-0.018,0.002-0.14,0.047-0.14,0.047
		s-0.024,0.018-0.021,0.044c0.003,0.026,0,0.905,0,0.905L12.395,13.3z"/>
	<path fill="#4DB08F" d="M13.324,13.615l-0.614-0.766c0,0-0.01-0.02-0.028-0.015c-0.018,0.006-0.137,0.066-0.137,0.066
		s-0.01,0.036-0.001,0.066c0.009,0.03,0.277,0.95,0.277,0.95L13.324,13.615z"/>
	<path fill="#4DB08F" d="M10.997,13.541l0.088-0.836c0,0,0.006-0.018-0.009-0.027c-0.016-0.01-0.139-0.05-0.139-0.05
		s-0.03-0.001-0.043,0.021c-0.014,0.022-0.443,0.695-0.443,0.695L10.997,13.541z"/>
	<path fill="#4DB08F" d="M10.086,13.739l0.301-0.785c0,0,0.011-0.016-0.002-0.029c-0.013-0.013-0.122-0.084-0.122-0.084
		s-0.029-0.009-0.048,0.009c-0.019,0.018-0.608,0.557-0.608,0.557L10.086,13.739z"/>
	<path fill="#4DB08F" d="M9.8,12.89l0.452-0.709c0,0,0.014-0.013,0.004-0.029c-0.01-0.016-0.102-0.107-0.102-0.107
		s-0.026-0.014-0.048,0s-0.706,0.425-0.706,0.425L9.8,12.89z"/>
	<path fill="#4DB08F" d="M8.535,12.85l0.901-0.722c0,0,0.024-0.013,0.017-0.03c-0.007-0.017-0.091-0.121-0.091-0.121
		s-0.029-0.017-0.064-0.004s-1.119,0.401-1.119,0.401L8.535,12.85z"/>
	<path fill="#4DB08F" d="M8.999,11.717l0.793-0.279c0,0,0.019-0.002,0.021-0.02S9.798,11.27,9.798,11.27s-0.012-0.027-0.038-0.03
		c-0.026-0.003-0.818-0.102-0.818-0.102L8.999,11.717z"/>
	<path fill="#4DB08F" d="M8.169,11.121l0.874-0.149c0,0,0.031-0.004,0.035-0.022c0.005-0.018-0.006-0.143-0.006-0.143
		s-0.009-0.029-0.036-0.036c-0.027-0.007-0.847-0.233-0.847-0.233L8.169,11.121z"/>
	<path fill="#4DB08F" d="M8.481,9.538L9.338,9.73c0,0,0.018,0.009,0.029-0.006c0.011-0.015,0.062-0.135,0.062-0.135
		s0.003-0.03-0.019-0.047C9.388,9.526,8.724,9.008,8.724,9.008L8.481,9.538z"/>
	<path fill="#4DB08F" d="M12.825,7.839l-0.288,0.863c0,0-0.018,0.024-0.004,0.037c0.014,0.012,0.135,0.077,0.135,0.077
		s0.021,0.004,0.04-0.017c0.019-0.021,0.628-0.675,0.628-0.675L12.825,7.839z"/>
	<path fill="#4DB08F" d="M13.849,9.875l-0.817,0.197c0,0-0.019,0-0.023,0.018c-0.004,0.018,0,0.148,0,0.148s0.009,0.029,0.035,0.034
		c0.025,0.005,0.899,0.185,0.899,0.185L13.849,9.875z"/>
	<path fill="#4DB08F" d="M11.618,14.206l-0.079-0.978c0,0,0.002-0.03-0.015-0.036S11.36,13.19,11.36,13.19s-0.015,0.012-0.024,0.042
		s-0.304,0.942-0.304,0.942L11.618,14.206z"/>
	<path fill="#4DB08F" d="M11.136,7.5l0.191,0.945c0,0,0.023,0.026,0.041,0.029c0.018,0.003,0.127-0.004,0.127-0.004
		s0.029-0.013,0.034-0.043c0.006-0.03,0.192-0.96,0.192-0.96L11.136,7.5z"/>
	<circle fill="#F18396" cx="11.429" cy="10.829" r="2.364"/>
	<ellipse fill="#F094A4" cx="11.414" cy="10.798" rx="0.401" ry="0.476"/>
	<ellipse fill="#7CC7B0" cx="11.452" cy="7.43" rx="0.364" ry="0.186"/>
	<ellipse fill="#7CC7B0" cx="14.924" cy="10.829" rx="0.283" ry="0.379"/>
	<ellipse fill="#7CC7B0" cx="9.675" cy="13.859" rx="0.421" ry="0.473"/>
	
		<ellipse transform="matrix(0.7298 0.6837 -0.6837 0.7298 12.4033 -5.6304)" fill="#7CC7B0" cx="13.324" cy="12.875" rx="0.283" ry="0.414"/>
	<ellipse fill="#7CC7B0" cx="14.437" cy="9.088" rx="0.283" ry="0.379"/>
	<path fill="#7CC7B0" d="M10.024,7.947C9.941,8.16,9.71,8.29,9.556,8.23S9.343,7.948,9.427,7.735
		C9.51,7.522,9.703,7.398,9.857,7.459C10.012,7.519,10.108,7.734,10.024,7.947z"/>
	<ellipse fill="#7CC7B0" cx="14.005" cy="11.571" rx="0.305" ry="0.327"/>
	
		<ellipse transform="matrix(0.8008 0.599 -0.599 0.8008 7.2983 -6.3473)" fill="#7CC7B0" cx="13.19" cy="7.797" rx="0.414" ry="0.337"/>
	<path fill="#7CC7B0" d="M8.771,9.148c0,0.214-0.122,0.413-0.29,0.413S8.162,9.361,8.162,9.148c0-0.214,0.136-0.387,0.305-0.387
		S8.771,8.934,8.771,9.148z"/>
	<ellipse fill="#7CC7B0" cx="8.059" cy="10.798" rx="0.305" ry="0.389"/>
	<ellipse fill="#7CC7B0" cx="13.999" cy="10.148" rx="0.305" ry="0.346"/>
	
		<ellipse transform="matrix(0.7786 -0.6275 0.6275 0.7786 -5.8694 11.3524)" fill="#7CC7B0" cx="13.154" cy="13.994" rx="0.494" ry="0.301"/>
	<ellipse fill="#7CC7B0" cx="11.313" cy="14.383" rx="0.423" ry="0.297"/>
	<ellipse fill="#7CC7B0" cx="9.504" cy="12.749" rx="0.364" ry="0.297"/>
	<ellipse fill="#7CC7B0" cx="8.831" cy="10.166" rx="0.364" ry="0.297"/>
	<ellipse fill="#7CC7B0" cx="10.738" cy="8.189" rx="0.364" ry="0.297"/>
	
		<ellipse transform="matrix(-0.3418 0.9398 -0.9398 -0.3418 27.0984 8.1681)" fill="#7CC7B0" cx="10.689" cy="13.574" rx="0.364" ry="0.329"/>
	<ellipse fill="#7CC7B0" cx="8.302" cy="12.642" rx="0.364" ry="0.297"/>
	
		<ellipse transform="matrix(0.9253 0.3791 -0.3791 0.9253 5.8679 -4.5152)" fill="#7CC7B0" cx="14.399" cy="12.642" rx="0.223" ry="0.483"/>
	<path fill="#7CC7B0" d="M12.383,8.343c-0.042,0.102-0.208,0.123-0.368,0.057s-0.297-0.192-0.255-0.294
		c0.042-0.102,0.246-0.14,0.406-0.074C12.325,8.098,12.425,8.242,12.383,8.343z"/>
	
		<ellipse transform="matrix(0.7581 -0.6521 0.6521 0.7581 -2.5931 10.8909)" fill="#7CC7B0" cx="13.385" cy="8.941" rx="0.223" ry="0.483"/>
	
		<ellipse transform="matrix(0.9253 0.3791 -0.3791 0.9253 4.1433 -2.9504)" fill="#7CC7B0" cx="9.563" cy="9.045" rx="0.223" ry="0.483"/>
	
		<ellipse transform="matrix(0.9892 0.1466 -0.1466 0.9892 1.7875 -1.1696)" fill="#7CC7B0" cx="8.831" cy="11.545" rx="0.223" ry="0.483"/>
	
		<ellipse transform="matrix(0.3752 0.927 -0.927 0.3752 20.1388 -2.7954)" fill="#7CC7B0" cx="12.143" cy="13.541" rx="0.223" ry="0.396"/>
	
		<ellipse transform="matrix(0.4342 -0.9008 0.9008 0.4342 -3.9398 14.545)" fill="#F5A7B9" cx="9.609" cy="10.409" rx="0.568" ry="0.365"/>
	
		<ellipse transform="matrix(0.4342 -0.9008 0.9008 0.4342 -4.9954 16.1235)" fill="#F5A7B9" cx="10.337" cy="12.038" rx="0.385" ry="0.517"/>
	
		<ellipse transform="matrix(0.4342 -0.9008 0.9008 0.4342 -4.755 17.6121)" fill="#F5A7B9" cx="11.642" cy="12.591" rx="0.497" ry="0.406"/>
	
		<ellipse transform="matrix(0.4342 -0.9008 0.9008 0.4342 -3.4076 18.3123)" fill="#F5A7B9" cx="12.874" cy="11.869" rx="0.426" ry="0.456"/>
	
		<ellipse transform="matrix(0.7433 -0.669 0.669 0.7433 -3.1641 11.1165)" fill="#F5A7B9" cx="12.903" cy="9.681" rx="0.304" ry="0.659"/>
	
		<ellipse transform="matrix(0.4342 -0.9008 0.9008 0.4342 -3.3869 16.3946)" fill="#F5A7B9" cx="11.357" cy="10.893" rx="0.548" ry="0.649"/>
	
		<ellipse transform="matrix(0.9935 -0.1139 0.1139 0.9935 -0.9571 1.4203)" fill="#F094A4" cx="11.955" cy="9.088" rx="0.416" ry="0.268"/>
	<ellipse fill="#F094A4" cx="10.337" cy="10.538" rx="0.283" ry="0.379"/>
	<ellipse fill="#F094A4" cx="10.337" cy="11.363" rx="0.364" ry="0.297"/>
	<ellipse fill="#F094A4" cx="11.642" cy="11.969" rx="0.312" ry="0.335"/>
	
		<ellipse transform="matrix(0.9253 0.3791 -0.3791 0.9253 5.1693 -4.0338)" fill="#F094A4" cx="12.827" cy="11.109" rx="0.223" ry="0.483"/>
	<ellipse fill="#F094A4" cx="12.448" cy="10.322" rx="0.305" ry="0.327"/>
	
		<ellipse transform="matrix(0.4342 -0.9008 0.9008 0.4342 -2.5799 14.7351)" fill="#F094A4" cx="10.44" cy="9.421" rx="0.548" ry="0.466"/>
	
		<ellipse transform="matrix(0.4342 -0.9008 0.9008 0.4342 -2.3089 15.7892)" fill="#F5A7B9" cx="11.414" cy="9.733" rx="0.416" ry="0.446"/>
	
		<ellipse transform="matrix(0.4342 -0.9008 0.9008 0.4342 -4.2637 15.0189)" fill="#4DB08F" cx="9.824" cy="10.904" rx="0.288" ry="0.185"/>
	
		<ellipse transform="matrix(0.4342 -0.9008 0.9008 0.4342 -3.6767 17.4679)" fill="#4DB08F" cx="12.067" cy="11.661" rx="0.282" ry="0.231"/>
	
		<ellipse transform="matrix(0.4342 -0.9008 0.9008 0.4342 -4.2538 17.8993)" fill="#4DB08F" cx="12.122" cy="12.336" rx="0.202" ry="0.216"/>
	
		<ellipse transform="matrix(0.7433 -0.669 0.669 0.7433 -3.1854 10.7909)" fill="#4DB08F" cx="12.468" cy="9.546" rx="0.173" ry="0.284"/>
	
		<ellipse transform="matrix(0.4342 -0.9008 0.9008 0.4342 -3.0239 16.0186)" fill="#4DB08F" cx="11.24" cy="10.416" rx="0.249" ry="0.295"/>
	
		<ellipse transform="matrix(0.9935 -0.1139 0.1139 0.9935 -0.9275 1.3677)" fill="#5B453F" cx="11.508" cy="8.803" rx="0.207" ry="0.133"/>
	<ellipse fill="#5B453F" cx="10.689" cy="9.947" rx="0.161" ry="0.216"/>
	<ellipse fill="#4DB08F" cx="10.374" cy="10.603" rx="0.207" ry="0.169"/>
	<ellipse fill="#4DB08F" cx="11.441" cy="11.116" rx="0.177" ry="0.19"/>
	
		<ellipse transform="matrix(0.9253 0.3791 -0.3791 0.9253 5.0842 -4.2756)" fill="#4DB08F" cx="13.398" cy="10.772" rx="0.127" ry="0.275"/>
	<ellipse fill="#4DB08F" cx="11.899" cy="10.18" rx="0.173" ry="0.186"/>
	
		<ellipse transform="matrix(0.4342 -0.9008 0.9008 0.4342 -2.8989 14.5165)" fill="#4DB08F" cx="10.106" cy="9.566" rx="0.243" ry="0.207"/>
	
		<ellipse transform="matrix(0.4342 -0.9008 0.9008 0.4342 -2.121 15.183)" fill="#4DB08F" cx="11.026" cy="9.28" rx="0.17" ry="0.183"/>
	
		<ellipse transform="matrix(0.4342 -0.9008 0.9008 0.4342 -4.5784 16.4461)" fill="#4DB08F" cx="10.803" cy="11.868" rx="0.264" ry="0.313"/>
	<ellipse fill="#4DB08F" cx="10.62" cy="12.621" rx="0.161" ry="0.216"/>
	<ellipse fill="#4DB08F" cx="12.534" cy="10.798" rx="0.207" ry="0.169"/>
	
		<ellipse transform="matrix(0.4342 -0.9008 0.9008 0.4342 -2.9411 18.0943)" fill="#5B453F" cx="12.933" cy="11.388" rx="0.202" ry="0.235"/>
	
		<ellipse transform="matrix(-0.499 -0.8666 0.8666 -0.499 4.699 26.4483)" fill="#7CC7B0" cx="9.994" cy="11.866" rx="0.568" ry="0.365"/>
	
		<ellipse transform="matrix(-0.499 -0.8666 0.8666 -0.499 7.0574 28.4462)" fill="#7CC7B0" cx="11.751" cy="12.183" rx="0.385" ry="0.517"/>
	
		<ellipse transform="matrix(-0.499 -0.8666 0.8666 -0.499 9.509 28.3315)" fill="#7CC7B0" cx="12.944" cy="11.417" rx="0.497" ry="0.406"/>
	
		<ellipse transform="matrix(-0.499 -0.8666 0.8666 -0.499 10.8895 26.2815)" fill="#7CC7B0" cx="13.041" cy="9.993" rx="0.426" ry="0.456"/>
	
		<ellipse transform="matrix(-0.1332 -0.9911 0.9911 -0.1332 4.0931 21.0499)" fill="#7CC7B0" cx="11.251" cy="8.735" rx="0.304" ry="0.659"/>
	
		<ellipse transform="matrix(-0.499 -0.8666 0.8666 -0.499 7.792 25.8948)" fill="#7CC7B0" cx="11.381" cy="10.695" rx="0.548" ry="0.649"/>
	
		<ellipse transform="matrix(-0.499 -0.8666 0.8666 -0.499 5.2569 24.2841)" fill="#7CC7B0" cx="9.648" cy="10.623" rx="0.548" ry="0.466"/>
	
		<ellipse transform="matrix(-0.499 -0.8666 0.8666 -0.499 7.0114 24.0399)" fill="#7CC7B0" cx="10.455" cy="9.993" rx="0.416" ry="0.446"/>
</g>
<g>
	<circle fill="#F18396" cx="37.564" cy="12.818" r="3.186"/>
	<ellipse fill="#F094A4" cx="37.544" cy="12.777" rx="0.541" ry="0.641"/>
	<path fill="#7CC7B0" d="M36.319,9.568l0.484,1.025c0,0,0.005,0.025,0.03,0.025c0.025,0,0.195-0.04,0.195-0.04
		s0.035-0.02,0.035-0.055c0-0.035,0.023-1.111,0.023-1.111L36.319,9.568z"/>
	<path fill="#7CC7B0" d="M35.011,9.263l0.862,0.915c0,0,0.015,0.025,0.038,0.016c0.023-0.009,0.167-0.111,0.167-0.111
		s0.025-0.034,0.011-0.071c-0.014-0.037-0.421-1.185-0.421-1.185L35.011,9.263z"/>
	<path fill="#7CC7B0" d="M38.048,9.237l-0.003,1.147c0,0-0.007,0.025,0.017,0.037c0.024,0.012,0.204,0.059,0.204,0.059
		s0.042-0.001,0.058-0.032s0.525-0.979,0.525-0.979L38.048,9.237z"/>
	<path fill="#7CC7B0" d="M34.844,10.67l0.966,0.592c0,0,0.018,0.018,0.039,0.005s0.142-0.141,0.142-0.141s0.018-0.036-0.001-0.065
		c-0.019-0.029-0.588-0.942-0.588-0.942L34.844,10.67z"/>
	<path fill="#7CC7B0" d="M34.149,12.312l1.109,0.007c0,0,0.025,0.006,0.033-0.015s0.03-0.174,0.03-0.174s-0.006-0.036-0.039-0.05
		c-0.032-0.014-1.015-0.451-1.015-0.451L34.149,12.312z"/>
	<path fill="#7CC7B0" d="M39.838,10.071l-0.706,0.887c0,0-0.02,0.016-0.009,0.038c0.011,0.022,0.122,0.158,0.122,0.158
		s0.033,0.023,0.065,0.007c0.031-0.015,1.007-0.469,1.007-0.469L39.838,10.071z"/>
	<path fill="#7CC7B0" d="M41.323,10.227l-1.021,0.9c0,0-0.027,0.016-0.019,0.039c0.009,0.023,0.104,0.174,0.104,0.174
		s0.021,0.021,0.061,0.006c0.041-0.015,1.325-0.468,1.325-0.468L41.323,10.227z"/>
	<path fill="#7CC7B0" d="M42.116,12.438l-1.335,0.291c0,0-0.032,0-0.035,0.025c-0.004,0.025,0.002,0.201,0.002,0.201
		s0.011,0.03,0.054,0.036s1.394,0.235,1.394,0.235L42.116,12.438z"/>
	<path fill="#7CC7B0" d="M41.087,13.421l-1.234-0.222c0,0-0.026-0.011-0.04,0.01c-0.014,0.021-0.068,0.189-0.068,0.189
		s0,0.042,0.033,0.063c0.033,0.022,1.039,0.701,1.039,0.701L41.087,13.421z"/>
	<path fill="#7CC7B0" d="M41.732,14.671l-1.328-0.357c0,0-0.024-0.015-0.041,0.004c-0.016,0.019-0.094,0.177-0.094,0.177
		s-0.006,0.041,0.024,0.067c0.03,0.026,0.928,0.926,0.928,0.926L41.732,14.671z"/>
	<path fill="#7CC7B0" d="M40.27,15.095l-0.928-0.651c0,0-0.017-0.019-0.039-0.007s-0.15,0.131-0.15,0.131s-0.021,0.035-0.003,0.065
		c0.017,0.03,0.529,0.977,0.529,0.977L40.27,15.095z"/>
	<path fill="#7CC7B0" d="M38.866,16.149l-0.584-0.934c0,0-0.008-0.024-0.033-0.021c-0.025,0.003-0.189,0.063-0.189,0.063
		s-0.032,0.024-0.028,0.059s0,1.22,0,1.22L38.866,16.149z"/>
	<path fill="#7CC7B0" d="M40.118,16.574l-0.827-1.032c0,0-0.014-0.027-0.038-0.02c-0.024,0.007-0.185,0.089-0.185,0.089
		s-0.014,0.048-0.001,0.088c0.012,0.04,0.373,1.281,0.373,1.281L40.118,16.574z"/>
	<path fill="#7CC7B0" d="M36.982,16.473l0.118-1.127c0,0,0.009-0.024-0.013-0.037c-0.021-0.013-0.188-0.067-0.188-0.067
		s-0.04-0.001-0.059,0.029c-0.018,0.03-0.597,0.937-0.597,0.937L36.982,16.473z"/>
	<path fill="#7CC7B0" d="M35.754,16.741l0.406-1.058c0,0,0.015-0.021-0.003-0.039s-0.164-0.114-0.164-0.114
		s-0.039-0.012-0.064,0.013c-0.025,0.024-0.819,0.75-0.819,0.75L35.754,16.741z"/>
	<path fill="#7CC7B0" d="M35.369,15.596l0.609-0.956c0,0,0.019-0.018,0.005-0.039c-0.013-0.021-0.138-0.144-0.138-0.144
		s-0.036-0.019-0.065,0c-0.03,0.019-0.952,0.572-0.952,0.572L35.369,15.596z"/>
	<path fill="#7CC7B0" d="M33.663,15.542l1.214-0.973c0,0,0.032-0.017,0.023-0.041c-0.009-0.023-0.123-0.163-0.123-0.163
		s-0.039-0.023-0.087-0.005c-0.047,0.018-1.508,0.541-1.508,0.541L33.663,15.542z"/>
	<path fill="#7CC7B0" d="M34.289,14.015l1.069-0.377c0,0,0.025-0.002,0.028-0.027c0.003-0.025-0.02-0.198-0.02-0.198
		s-0.016-0.037-0.051-0.041c-0.035-0.004-1.102-0.137-1.102-0.137L34.289,14.015z"/>
	<path fill="#7CC7B0" d="M33.171,13.212l1.177-0.201c0,0,0.041-0.006,0.047-0.03s-0.008-0.193-0.008-0.193s-0.012-0.039-0.048-0.048
		c-0.036-0.009-1.142-0.314-1.142-0.314L33.171,13.212z"/>
	<path fill="#7CC7B0" d="M33.591,11.079l1.155,0.259c0,0,0.024,0.012,0.039-0.008c0.015-0.02,0.083-0.182,0.083-0.182
		s0.004-0.041-0.026-0.063s-0.924-0.72-0.924-0.72L33.591,11.079z"/>
	<path fill="#7CC7B0" d="M39.446,8.789l-0.388,1.162c0,0-0.024,0.033-0.005,0.049c0.019,0.017,0.182,0.104,0.182,0.104
		s0.028,0.005,0.053-0.023s0.846-0.909,0.846-0.909L39.446,8.789z"/>
	<path fill="#7CC7B0" d="M40.825,11.534l-1.102,0.266c0,0-0.026,0-0.031,0.024s-0.001,0.199-0.001,0.199s0.012,0.038,0.047,0.046
		c0.034,0.007,1.212,0.249,1.212,0.249L40.825,11.534z"/>
	<path fill="#7CC7B0" d="M37.819,17.37l-0.106-1.318c0,0,0.003-0.041-0.021-0.048C37.668,15.996,37.472,16,37.472,16
		s-0.02,0.016-0.032,0.056c-0.012,0.04-0.41,1.269-0.41,1.269L37.819,17.37z"/>
	<path fill="#7CC7B0" d="M37.169,8.332l0.257,1.273c0,0,0.031,0.035,0.055,0.039c0.025,0.004,0.172-0.006,0.172-0.006
		s0.039-0.017,0.046-0.058c0.007-0.041,0.258-1.294,0.258-1.294L37.169,8.332z"/>
	
		<ellipse transform="matrix(0.4342 -0.9008 0.9008 0.4342 8.8287 38.5609)" fill="#F5A7B9" cx="35.111" cy="12.252" rx="0.765" ry="0.492"/>
	
		<ellipse transform="matrix(0.4342 -0.9008 0.9008 0.4342 7.4061 40.6883)" fill="#F5A7B9" cx="36.093" cy="14.449" rx="0.519" ry="0.697"/>
	
		<ellipse transform="matrix(0.4342 -0.9008 0.9008 0.4342 7.7301 42.6945)" fill="#F5A7B9" cx="37.852" cy="15.194" rx="0.67" ry="0.547"/>
	
		<ellipse transform="matrix(0.4342 -0.9008 0.9008 0.4342 9.5459 43.6381)" fill="#F5A7B9" cx="39.511" cy="14.22" rx="0.574" ry="0.615"/>
	
		<ellipse transform="matrix(0.7433 -0.669 0.669 0.7433 2.6122 29.3508)" fill="#F5A7B9" cx="39.55" cy="11.272" rx="0.41" ry="0.888"/>
	
		<ellipse transform="matrix(0.4342 -0.9008 0.9008 0.4342 9.5738 41.0536)" fill="#F5A7B9" cx="37.467" cy="12.906" rx="0.738" ry="0.875"/>
	
		<ellipse transform="matrix(0.9935 -0.1139 0.1139 0.9935 -0.9436 4.4261)" fill="#F094A4" cx="38.272" cy="10.473" rx="0.561" ry="0.361"/>
	<ellipse fill="#F094A4" cx="36.093" cy="12.427" rx="0.381" ry="0.511"/>
	<ellipse fill="#F094A4" cx="36.093" cy="13.539" rx="0.491" ry="0.401"/>
	<ellipse fill="#F094A4" cx="37.852" cy="14.355" rx="0.421" ry="0.451"/>
	
		<ellipse transform="matrix(0.9253 0.3791 -0.3791 0.9253 7.9481 -13.9709)" fill="#F094A4" cx="39.448" cy="13.196" rx="0.301" ry="0.651"/>
	<ellipse fill="#F094A4" cx="38.937" cy="12.136" rx="0.411" ry="0.441"/>
	
		<ellipse transform="matrix(0.4342 -0.9008 0.9008 0.4342 10.6614 38.8172)" fill="#F094A4" cx="36.231" cy="10.922" rx="0.738" ry="0.629"/>
	
		<ellipse transform="matrix(0.4342 -0.9008 0.9008 0.4342 11.0267 40.2377)" fill="#F5A7B9" cx="37.544" cy="11.341" rx="0.56" ry="0.601"/>
	
		<ellipse transform="matrix(0.4342 -0.9008 0.9008 0.4342 8.3923 39.1996)" fill="#5B453F" cx="35.401" cy="12.919" rx="0.388" ry="0.25"/>
	
		<ellipse transform="matrix(0.4342 -0.9008 0.9008 0.4342 9.1833 42.5001)" fill="#5B453F" cx="38.424" cy="13.94" rx="0.381" ry="0.311"/>
	
		<ellipse transform="matrix(0.4342 -0.9008 0.9008 0.4342 8.4055 43.0815)" fill="#5B453F" cx="38.497" cy="14.85" rx="0.272" ry="0.292"/>
	
		<ellipse transform="matrix(0.7433 -0.669 0.669 0.7433 2.5835 28.9119)" fill="#5B453F" cx="38.964" cy="11.09" rx="0.233" ry="0.383"/>
	
		<ellipse transform="matrix(0.4342 -0.9008 0.9008 0.4342 10.0631 40.547)" fill="#5B453F" cx="37.309" cy="12.263" rx="0.335" ry="0.397"/>
	
		<ellipse transform="matrix(0.9935 -0.1139 0.1139 0.9935 -0.9036 4.3551)" fill="#5B453F" cx="37.671" cy="10.088" rx="0.279" ry="0.179"/>
	<ellipse fill="#5B453F" cx="36.566" cy="11.63" rx="0.216" ry="0.29"/>
	<ellipse fill="#5B453F" cx="36.141" cy="12.514" rx="0.279" ry="0.228"/>
	<ellipse fill="#5B453F" cx="37.58" cy="13.205" rx="0.239" ry="0.256"/>
	
		<ellipse transform="matrix(0.9253 0.3791 -0.3791 0.9253 7.8334 -14.2967)" fill="#5B453F" cx="40.218" cy="12.742" rx="0.171" ry="0.37"/>
	<ellipse fill="#5B453F" cx="38.197" cy="11.944" rx="0.233" ry="0.251"/>
	
		<ellipse transform="matrix(0.4342 -0.9008 0.9008 0.4342 10.2316 38.5226)" fill="#5B453F" cx="35.781" cy="11.117" rx="0.327" ry="0.279"/>
	
		<ellipse transform="matrix(0.4342 -0.9008 0.9008 0.4342 11.2799 39.4208)" fill="#5B453F" cx="37.021" cy="10.731" rx="0.229" ry="0.246"/>
	
		<ellipse transform="matrix(0.4342 -0.9008 0.9008 0.4342 7.9681 41.1231)" fill="#5B453F" cx="36.72" cy="14.219" rx="0.356" ry="0.422"/>
	<ellipse fill="#5B453F" cx="36.473" cy="15.234" rx="0.216" ry="0.29"/>
	<ellipse fill="#5B453F" cx="39.053" cy="12.777" rx="0.279" ry="0.228"/>
	
		<ellipse transform="matrix(0.4342 -0.9008 0.9008 0.4342 10.1747 43.3443)" fill="#5B453F" cx="39.591" cy="13.573" rx="0.272" ry="0.317"/>
	<ellipse fill="#45AD8D" cx="37.594" cy="8.238" rx="0.491" ry="0.25"/>
	<ellipse fill="#45AD8D" cx="35.2" cy="16.902" rx="0.568" ry="0.638"/>
	
		<ellipse transform="matrix(0.7298 0.6837 -0.6837 0.7298 21.4906 -23.2192)" fill="#45AD8D" cx="40.118" cy="15.577" rx="0.381" ry="0.558"/>
	<ellipse fill="#45AD8D" cx="41.618" cy="10.473" rx="0.381" ry="0.511"/>
	<path fill="#45AD8D" d="M35.671,8.935c-0.112,0.287-0.423,0.462-0.632,0.381c-0.208-0.081-0.286-0.38-0.174-0.667
		s0.372-0.453,0.58-0.372C35.654,8.358,35.783,8.648,35.671,8.935z"/>
	<ellipse fill="#45AD8D" cx="41.036" cy="13.819" rx="0.411" ry="0.441"/>
	
		<ellipse transform="matrix(0.8008 0.599 -0.599 0.8008 13.1879 -22.1823)" fill="#45AD8D" cx="39.938" cy="8.732" rx="0.558" ry="0.455"/>
	<path fill="#45AD8D" d="M33.982,10.553c0,0.288-0.165,0.556-0.391,0.556s-0.43-0.268-0.43-0.556s0.184-0.521,0.411-0.521
		S33.982,10.265,33.982,10.553z"/>
	<ellipse fill="#45AD8D" cx="33.023" cy="12.777" rx="0.411" ry="0.525"/>
	<ellipse fill="#45AD8D" cx="41.028" cy="11.901" rx="0.411" ry="0.466"/>
	
		<ellipse transform="matrix(0.7786 -0.6275 0.6275 0.7786 -1.89 28.8126)" fill="#45AD8D" cx="39.889" cy="17.085" rx="0.666" ry="0.405"/>
	<ellipse fill="#45AD8D" cx="37.407" cy="17.609" rx="0.57" ry="0.401"/>
	<ellipse fill="#45AD8D" cx="34.969" cy="15.407" rx="0.491" ry="0.401"/>
	<ellipse fill="#45AD8D" cx="34.062" cy="11.926" rx="0.491" ry="0.401"/>
	<ellipse fill="#45AD8D" cx="36.632" cy="9.26" rx="0.491" ry="0.401"/>
	
		<ellipse transform="matrix(-0.3418 0.9398 -0.9398 -0.3418 64.5881 -12.2005)" fill="#45AD8D" cx="36.566" cy="16.518" rx="0.491" ry="0.443"/>
	<ellipse fill="#45AD8D" cx="33.35" cy="15.262" rx="0.491" ry="0.401"/>
	
		<ellipse transform="matrix(0.9253 0.3791 -0.3791 0.9253 8.8896 -14.6196)" fill="#45AD8D" cx="41.566" cy="15.262" rx="0.301" ry="0.651"/>
	<path fill="#45AD8D" d="M38.85,9.469c-0.056,0.137-0.281,0.165-0.496,0.077c-0.215-0.088-0.4-0.259-0.344-0.396
		c0.056-0.137,0.331-0.188,0.547-0.1C38.772,9.138,38.906,9.332,38.85,9.469z"/>
	
		<ellipse transform="matrix(0.7581 -0.6521 0.6521 0.7581 3.0228 28.6991)" fill="#45AD8D" cx="40.201" cy="10.275" rx="0.301" ry="0.651"/>
	
		<ellipse transform="matrix(0.9253 0.3791 -0.3791 0.9253 6.5653 -12.5108)" fill="#45AD8D" cx="35.049" cy="10.415" rx="0.301" ry="0.651"/>
	
		<ellipse transform="matrix(0.9892 0.1466 -0.1466 0.9892 2.3881 -4.8435)" fill="#45AD8D" cx="34.062" cy="13.784" rx="0.301" ry="0.651"/>
	
		<ellipse transform="matrix(0.3752 0.927 -0.927 0.3752 39.3419 -25.419)" fill="#45AD8D" cx="38.526" cy="16.473" rx="0.301" ry="0.534"/>
	
		<ellipse transform="matrix(0.941 -0.3385 0.3385 0.941 -1.8497 15.0713)" fill="#45AD8D" cx="42.283" cy="12.839" rx="0.295" ry="0.466"/>
</g>
<ellipse fill="#7CC7B0" cx="48.744" cy="46.69" rx="0.818" ry="0.808"/>
<ellipse fill="#7CC7B0" cx="7.277" cy="18.125" rx="1.227" ry="1.211"/>
<ellipse fill="#7CC7B0" cx="3.867" cy="35.945" rx="0.818" ry="0.808"/>
<ellipse fill="#7CC7B0" cx="37.65" cy="39.138" rx="0.538" ry="0.531"/>
<ellipse fill="#7CC7B0" cx="12.673" cy="46.03" rx="0.818" ry="0.808"/>
<ellipse fill="#9FD6C5" cx="15.302" cy="21.685" rx="0.54" ry="0.533"/>
<ellipse fill="#9FD6C5" cx="25.284" cy="2.929" rx="0.818" ry="0.808"/>
<ellipse fill="#9FD6C5" cx="37.267" cy="21.988" rx="0.457" ry="0.451"/>
<ellipse fill="#9FD6C5" cx="46.19" cy="28.306" rx="0.818" ry="0.808"/>
<g>
	<path fill="#4DB08F" d="M36.751,43.841l0.192,0.405c0,0,0.002,0.01,0.012,0.01c0.01,0,0.077-0.016,0.077-0.016
		s0.014-0.008,0.014-0.022s0.009-0.439,0.009-0.439L36.751,43.841z"/>
	<path fill="#4DB08F" d="M36.234,43.72l0.341,0.362c0,0,0.006,0.01,0.015,0.006s0.066-0.044,0.066-0.044s0.01-0.013,0.004-0.028
		c-0.006-0.015-0.166-0.469-0.166-0.469L36.234,43.72z"/>
	<path fill="#4DB08F" d="M37.436,43.71l-0.001,0.454c0,0-0.003,0.01,0.007,0.015c0.009,0.005,0.081,0.023,0.081,0.023
		s0.017,0,0.023-0.013c0.006-0.012,0.208-0.387,0.208-0.387L37.436,43.71z"/>
	<path fill="#4DB08F" d="M36.168,44.277l0.382,0.234c0,0,0.007,0.007,0.015,0.002c0.008-0.005,0.056-0.056,0.056-0.056
		s0.007-0.014,0-0.026c-0.008-0.012-0.233-0.373-0.233-0.373L36.168,44.277z"/>
	<path fill="#4DB08F" d="M35.893,44.927l0.439,0.003c0,0,0.01,0.002,0.013-0.006c0.003-0.008,0.012-0.069,0.012-0.069
		s-0.003-0.014-0.015-0.02c-0.013-0.005-0.402-0.178-0.402-0.178L35.893,44.927z"/>
	<path fill="#4DB08F" d="M38.144,44.04l-0.279,0.351c0,0-0.008,0.006-0.004,0.015c0.004,0.009,0.048,0.062,0.048,0.062
		s0.013,0.009,0.026,0.003c0.012-0.006,0.398-0.186,0.398-0.186L38.144,44.04z"/>
	<path fill="#4DB08F" d="M38.731,44.101l-0.404,0.356c0,0-0.011,0.006-0.007,0.015c0.003,0.009,0.041,0.069,0.041,0.069
		s0.008,0.008,0.024,0.002c0.016-0.006,0.524-0.185,0.524-0.185L38.731,44.101z"/>
	<path fill="#4DB08F" d="M39.045,44.976l-0.528,0.115c0,0-0.013,0-0.014,0.01c-0.001,0.01,0.001,0.08,0.001,0.08
		s0.004,0.012,0.021,0.014c0.017,0.003,0.552,0.093,0.552,0.093L39.045,44.976z"/>
	<path fill="#4DB08F" d="M38.638,45.365l-0.488-0.088c0,0-0.01-0.004-0.016,0.004s-0.027,0.075-0.027,0.075s0,0.017,0.013,0.025
		s0.411,0.278,0.411,0.278L38.638,45.365z"/>
	<path fill="#4DB08F" d="M38.894,45.86l-0.525-0.141c0,0-0.01-0.006-0.016,0.002c-0.006,0.008-0.037,0.07-0.037,0.07
		s-0.002,0.016,0.009,0.026s0.367,0.366,0.367,0.366L38.894,45.86z"/>
	<path fill="#4DB08F" d="M38.315,46.028l-0.367-0.258c0,0-0.007-0.008-0.015-0.003c-0.009,0.005-0.059,0.052-0.059,0.052
		s-0.008,0.014-0.001,0.026c0.007,0.012,0.209,0.387,0.209,0.387L38.315,46.028z"/>
	<path fill="#4DB08F" d="M37.759,46.445l-0.231-0.37c0,0-0.003-0.01-0.013-0.008c-0.01,0.001-0.075,0.025-0.075,0.025
		s-0.013,0.009-0.011,0.023s0,0.483,0,0.483L37.759,46.445z"/>
	<path fill="#4DB08F" d="M38.255,46.613l-0.327-0.408c0,0-0.005-0.011-0.015-0.008c-0.009,0.003-0.073,0.035-0.073,0.035
		s-0.005,0.019,0,0.035s0.147,0.507,0.147,0.507L38.255,46.613z"/>
	<path fill="#4DB08F" d="M37.014,46.573l0.047-0.446c0,0,0.003-0.01-0.005-0.015s-0.074-0.027-0.074-0.027s-0.016,0-0.023,0.011
		c-0.007,0.012-0.236,0.371-0.236,0.371L37.014,46.573z"/>
	<path fill="#4DB08F" d="M36.528,46.679l0.161-0.419c0,0,0.006-0.008-0.001-0.015c-0.007-0.007-0.065-0.045-0.065-0.045
		s-0.015-0.005-0.025,0.005c-0.01,0.01-0.324,0.297-0.324,0.297L36.528,46.679z"/>
	<path fill="#4DB08F" d="M36.375,46.226l0.241-0.378c0,0,0.007-0.007,0.002-0.015c-0.005-0.008-0.055-0.057-0.055-0.057
		s-0.014-0.008-0.026,0c-0.012,0.007-0.377,0.226-0.377,0.226L36.375,46.226z"/>
	<path fill="#4DB08F" d="M35.7,46.205l0.48-0.385c0,0,0.013-0.007,0.009-0.016c-0.003-0.009-0.049-0.064-0.049-0.064
		s-0.016-0.009-0.034-0.002c-0.019,0.007-0.597,0.214-0.597,0.214L35.7,46.205z"/>
	<path fill="#4DB08F" d="M35.948,45.601l0.423-0.149c0,0,0.01-0.001,0.011-0.011c0.001-0.01-0.008-0.079-0.008-0.079
		s-0.006-0.015-0.02-0.016c-0.014-0.001-0.436-0.054-0.436-0.054L35.948,45.601z"/>
	<path fill="#4DB08F" d="M35.506,45.283l0.466-0.08c0,0,0.016-0.002,0.019-0.012s-0.003-0.076-0.003-0.076s-0.005-0.016-0.019-0.019
		s-0.452-0.124-0.452-0.124L35.506,45.283z"/>
	<path fill="#4DB08F" d="M35.672,44.439l0.457,0.102c0,0,0.01,0.005,0.015-0.003c0.006-0.008,0.033-0.072,0.033-0.072
		s0.002-0.016-0.01-0.025c-0.012-0.009-0.366-0.285-0.366-0.285L35.672,44.439z"/>
	<path fill="#4DB08F" d="M37.989,43.533l-0.153,0.46c0,0-0.01,0.013-0.002,0.02c0.007,0.007,0.072,0.041,0.072,0.041
		s0.011,0.002,0.021-0.009s0.335-0.36,0.335-0.36L37.989,43.533z"/>
	<path fill="#4DB08F" d="M38.535,44.619l-0.436,0.105c0,0-0.01,0-0.012,0.01s0,0.079,0,0.079s0.005,0.015,0.019,0.018
		c0.014,0.003,0.479,0.099,0.479,0.099L38.535,44.619z"/>
	<path fill="#4DB08F" d="M37.345,46.928l-0.042-0.522c0,0,0.001-0.016-0.008-0.019c-0.009-0.003-0.087-0.001-0.087-0.001
		s-0.008,0.006-0.013,0.022c-0.005,0.016-0.162,0.502-0.162,0.502L37.345,46.928z"/>
	<path fill="#4DB08F" d="M37.088,43.352l0.102,0.504c0,0,0.012,0.014,0.022,0.016c0.01,0.002,0.068-0.002,0.068-0.002
		s0.015-0.007,0.018-0.023c0.003-0.016,0.102-0.512,0.102-0.512L37.088,43.352z"/>
	<circle fill="#F18396" cx="37.244" cy="45.127" r="1.261"/>
	<ellipse fill="#F094A4" cx="37.236" cy="45.111" rx="0.214" ry="0.254"/>
	<ellipse fill="#7CC7B0" cx="37.256" cy="43.315" rx="0.194" ry="0.099"/>
	<ellipse fill="#7CC7B0" cx="39.108" cy="45.127" rx="0.151" ry="0.202"/>
	<ellipse fill="#7CC7B0" cx="36.308" cy="46.743" rx="0.225" ry="0.252"/>
	
		<ellipse transform="matrix(0.7298 0.6837 -0.6837 0.7298 41.9365 -13.665)" fill="#7CC7B0" cx="38.255" cy="46.218" rx="0.151" ry="0.221"/>
	<ellipse fill="#7CC7B0" cx="38.848" cy="44.199" rx="0.151" ry="0.202"/>
	<path fill="#7CC7B0" d="M36.495,43.59c-0.044,0.114-0.168,0.183-0.25,0.151c-0.082-0.032-0.113-0.15-0.069-0.264
		c0.044-0.114,0.147-0.179,0.23-0.147C36.488,43.362,36.539,43.477,36.495,43.59z"/>
	<ellipse fill="#7CC7B0" cx="38.618" cy="45.523" rx="0.163" ry="0.174"/>
	
		<ellipse transform="matrix(0.8008 0.599 -0.599 0.8008 33.6698 -14.2023)" fill="#7CC7B0" cx="38.183" cy="43.51" rx="0.221" ry="0.18"/>
	<path fill="#7CC7B0" d="M35.827,44.23c0,0.114-0.065,0.22-0.155,0.22c-0.09,0-0.17-0.106-0.17-0.22s0.073-0.206,0.163-0.206
		C35.754,44.024,35.827,44.117,35.827,44.23z"/>
	<ellipse fill="#7CC7B0" cx="35.447" cy="45.111" rx="0.163" ry="0.208"/>
	<ellipse fill="#7CC7B0" cx="38.615" cy="44.764" rx="0.163" ry="0.184"/>
	
		<ellipse transform="matrix(0.7786 -0.6275 0.6275 0.7786 -20.9277 34.3121)" fill="#7CC7B0" cx="38.164" cy="46.815" rx="0.263" ry="0.16"/>
	<ellipse fill="#7CC7B0" cx="37.182" cy="47.022" rx="0.226" ry="0.159"/>
	<ellipse fill="#7CC7B0" cx="36.217" cy="46.151" rx="0.194" ry="0.159"/>
	<ellipse fill="#7CC7B0" cx="35.858" cy="44.774" rx="0.194" ry="0.159"/>
	<ellipse fill="#7CC7B0" cx="36.875" cy="43.719" rx="0.194" ry="0.159"/>
	
		<ellipse transform="matrix(-0.3418 0.9398 -0.9398 -0.3418 93.2295 27.8864)" fill="#7CC7B0" cx="36.849" cy="46.591" rx="0.194" ry="0.175"/>
	<ellipse fill="#7CC7B0" cx="35.576" cy="46.094" rx="0.194" ry="0.159"/>
	
		<ellipse transform="matrix(0.9253 0.3791 -0.3791 0.9253 20.3745 -11.2796)" fill="#7CC7B0" cx="38.828" cy="46.094" rx="0.119" ry="0.258"/>
	<path fill="#7CC7B0" d="M37.753,43.801c-0.022,0.054-0.111,0.065-0.196,0.031c-0.085-0.035-0.158-0.102-0.136-0.157
		c0.022-0.054,0.131-0.074,0.216-0.039C37.722,43.671,37.775,43.747,37.753,43.801z"/>
	
		<ellipse transform="matrix(0.7581 -0.6521 0.6521 0.7581 -19.5102 35.6372)" fill="#7CC7B0" cx="38.287" cy="44.12" rx="0.119" ry="0.258"/>
	
		<ellipse transform="matrix(0.9253 0.3791 -0.3791 0.9253 19.4548 -10.4451)" fill="#7CC7B0" cx="36.249" cy="44.176" rx="0.119" ry="0.258"/>
	
		<ellipse transform="matrix(0.9892 0.1466 -0.1466 0.9892 7.0573 -4.7641)" fill="#7CC7B0" cx="35.858" cy="45.509" rx="0.119" ry="0.258"/>
	
		<ellipse transform="matrix(0.3752 0.927 -0.927 0.3752 66.6799 -5.7765)" fill="#7CC7B0" cx="37.625" cy="46.573" rx="0.119" ry="0.211"/>
	
		<ellipse transform="matrix(0.4342 -0.9008 0.9008 0.4342 -19.9258 58.0824)" fill="#F5A7B9" cx="36.273" cy="44.903" rx="0.303" ry="0.195"/>
	
		<ellipse transform="matrix(0.4342 -0.9008 0.9008 0.4342 -20.4888 58.9243)" fill="#F5A7B9" cx="36.662" cy="45.772" rx="0.205" ry="0.276"/>
	
		<ellipse transform="matrix(0.4342 -0.9008 0.9008 0.4342 -20.3605 59.7181)" fill="#F5A7B9" cx="37.358" cy="46.067" rx="0.265" ry="0.216"/>
	
		<ellipse transform="matrix(0.4342 -0.9008 0.9008 0.4342 -19.642 60.0915)" fill="#F5A7B9" cx="38.014" cy="45.682" rx="0.227" ry="0.243"/>
	
		<ellipse transform="matrix(0.7433 -0.669 0.669 0.7433 -20.0163 36.8673)" fill="#F5A7B9" cx="38.03" cy="44.515" rx="0.162" ry="0.351"/>
	
		<ellipse transform="matrix(0.4342 -0.9008 0.9008 0.4342 -19.6309 59.0688)" fill="#F5A7B9" cx="37.206" cy="45.161" rx="0.292" ry="0.346"/>
	
		<ellipse transform="matrix(0.9935 -0.1139 0.1139 0.9935 -4.7887 4.5602)" fill="#F094A4" cx="37.524" cy="44.199" rx="0.222" ry="0.143"/>
	<ellipse fill="#F094A4" cx="36.662" cy="44.972" rx="0.151" ry="0.202"/>
	<ellipse fill="#F094A4" cx="36.662" cy="45.412" rx="0.194" ry="0.159"/>
	<ellipse fill="#F094A4" cx="37.358" cy="45.735" rx="0.167" ry="0.178"/>
	
		<ellipse transform="matrix(0.9253 0.3791 -0.3791 0.9253 20.0019 -11.0229)" fill="#F094A4" cx="37.99" cy="45.276" rx="0.119" ry="0.258"/>
	<ellipse fill="#F094A4" cx="37.787" cy="44.857" rx="0.163" ry="0.174"/>
	
		<ellipse transform="matrix(0.4342 -0.9008 0.9008 0.4342 -19.2006 58.1838)" fill="#F094A4" cx="36.717" cy="44.376" rx="0.292" ry="0.249"/>
	
		<ellipse transform="matrix(0.4342 -0.9008 0.9008 0.4342 -19.056 58.7459)" fill="#F5A7B9" cx="37.236" cy="44.542" rx="0.222" ry="0.238"/>
	
		<ellipse transform="matrix(0.4342 -0.9008 0.9008 0.4342 -20.0985 58.3352)" fill="#4DB08F" cx="36.388" cy="45.167" rx="0.154" ry="0.099"/>
	
		<ellipse transform="matrix(0.4342 -0.9008 0.9008 0.4342 -19.7855 59.6412)" fill="#4DB08F" cx="37.584" cy="45.571" rx="0.151" ry="0.123"/>
	
		<ellipse transform="matrix(0.4342 -0.9008 0.9008 0.4342 -20.0933 59.8713)" fill="#4DB08F" cx="37.613" cy="45.931" rx="0.108" ry="0.115"/>
	
		<ellipse transform="matrix(0.7433 -0.669 0.669 0.7433 -20.0276 36.6936)" fill="#4DB08F" cx="37.798" cy="44.443" rx="0.092" ry="0.151"/>
	
		<ellipse transform="matrix(0.4342 -0.9008 0.9008 0.4342 -19.4373 58.8683)" fill="#4DB08F" cx="37.143" cy="44.907" rx="0.133" ry="0.157"/>
	
		<ellipse transform="matrix(0.9935 -0.1139 0.1139 0.9935 -4.7729 4.5321)" fill="#5B453F" cx="37.286" cy="44.046" rx="0.11" ry="0.071"/>
	<ellipse fill="#5B453F" cx="36.849" cy="44.657" rx="0.086" ry="0.115"/>
	<ellipse fill="#4DB08F" cx="36.681" cy="45.006" rx="0.11" ry="0.09"/>
	<ellipse fill="#4DB08F" cx="37.251" cy="45.28" rx="0.095" ry="0.101"/>
	
		<ellipse transform="matrix(0.9253 0.3791 -0.3791 0.9253 19.9566 -11.1518)" fill="#4DB08F" cx="38.294" cy="45.097" rx="0.068" ry="0.146"/>
	<ellipse fill="#4DB08F" cx="37.495" cy="44.781" rx="0.092" ry="0.099"/>
	
		<ellipse transform="matrix(0.4342 -0.9008 0.9008 0.4342 -19.3707 58.0673)" fill="#4DB08F" cx="36.539" cy="44.454" rx="0.13" ry="0.11"/>
	
		<ellipse transform="matrix(0.4342 -0.9008 0.9008 0.4342 -18.9558 58.4227)" fill="#4DB08F" cx="37.029" cy="44.301" rx="0.091" ry="0.097"/>
	
		<ellipse transform="matrix(0.4342 -0.9008 0.9008 0.4342 -20.2664 59.0963)" fill="#4DB08F" cx="36.91" cy="45.681" rx="0.141" ry="0.167"/>
	<ellipse fill="#4DB08F" cx="36.813" cy="46.083" rx="0.086" ry="0.115"/>
	<ellipse fill="#4DB08F" cx="37.833" cy="45.111" rx="0.11" ry="0.09"/>
	
		<ellipse transform="matrix(0.4342 -0.9008 0.9008 0.4342 -19.3932 59.9753)" fill="#5B453F" cx="38.046" cy="45.425" rx="0.108" ry="0.126"/>
	
		<ellipse transform="matrix(-0.499 -0.8666 0.8666 -0.499 15.0968 100.0878)" fill="#7CC7B0" cx="36.479" cy="45.68" rx="0.303" ry="0.195"/>
	
		<ellipse transform="matrix(-0.499 -0.8666 0.8666 -0.499 16.3546 101.1532)" fill="#7CC7B0" cx="37.416" cy="45.849" rx="0.205" ry="0.276"/>
	
		<ellipse transform="matrix(-0.499 -0.8666 0.8666 -0.499 17.6621 101.0921)" fill="#7CC7B0" cx="38.052" cy="45.441" rx="0.265" ry="0.216"/>
	
		<ellipse transform="matrix(-0.499 -0.8666 0.8666 -0.499 18.3983 99.9988)" fill="#7CC7B0" cx="38.104" cy="44.681" rx="0.227" ry="0.243"/>
	
		<ellipse transform="matrix(-0.1332 -0.9911 0.9911 -0.1332 -1.52 86.6914)" fill="#7CC7B0" cx="37.149" cy="44.01" rx="0.162" ry="0.351"/>
	
		<ellipse transform="matrix(-0.499 -0.8666 0.8666 -0.499 16.7464 99.7926)" fill="#7CC7B0" cx="37.218" cy="45.056" rx="0.292" ry="0.346"/>
	
		<ellipse transform="matrix(-0.499 -0.8666 0.8666 -0.499 15.3944 98.9336)" fill="#7CC7B0" cx="36.294" cy="45.017" rx="0.292" ry="0.249"/>
	
		<ellipse transform="matrix(-0.499 -0.8666 0.8666 -0.499 16.3301 98.8034)" fill="#7CC7B0" cx="36.724" cy="44.681" rx="0.222" ry="0.238"/>
</g>
</svg>
