<?xml version="1.0" encoding="utf-8"?>
<!-- Generator: Adobe Illustrator 17.0.0, SVG Export Plug-In . SVG Version: 6.00 Build 0)  -->
<!DOCTYPE svg PUBLIC "-//W3C//DTD SVG 1.1//EN" "http://www.w3.org/Graphics/SVG/1.1/DTD/svg11.dtd">
<svg version="1.1" id="Layer_1" xmlns="http://www.w3.org/2000/svg" xmlns:xlink="http://www.w3.org/1999/xlink" x="0px" y="0px"
	 width="50px" height="50px" viewBox="0 0 50 50" enable-background="new 0 0 50 50" xml:space="preserve">
<rect y="0.004" fill="#074B38" width="50" height="49.996"/>
<path fill="#034433" d="M11.004,49.999c-0.1-0.208-0.214-0.394-0.348-0.541c-0.828-0.908-3.633-1.023-4.847-0.831
	c-0.727,0.115-1.973,0.975-2.611,1.372H11.004z"/>
<path fill="#009353" d="M12.613,49.999c-0.109-1.038-0.36-1.96-0.825-2.471c-0.828-0.908-3.633-1.023-4.847-0.831
	c-0.734,0.117-1.999,0.993-2.631,1.385c-0.653,0.405-2.022,1.192-2.493,1.8c-0.026,0.033-0.052,0.077-0.077,0.116H12.613z"/>
<path fill="#03A95F" d="M8.774,49.999c0.4-1.647,0.697-3.076,0.697-3.076s-1.908-0.359-2.529-0.225
	c-1.14,0.246-3.185,1.525-4.065,2.29c-0.259,0.225-0.618,0.605-0.944,1.011H8.774z"/>
<path fill="#034433" d="M11.004,49.999c-0.1-0.207-0.213-0.392-0.347-0.539c-0.828-0.908-3.633-1.023-4.847-0.831
	c-0.726,0.115-1.968,0.971-2.607,1.37H11.004z"/>
<path fill="#066034" d="M12.614,49.999c-0.11-1.037-0.36-1.958-0.825-2.468c-0.828-0.908-3.633-1.023-4.847-0.831
	c-0.734,0.116-1.999,0.993-2.631,1.385c-0.653,0.405-2.022,1.192-2.493,1.8c-0.025,0.032-0.05,0.076-0.076,0.114H12.614z"/>
<path fill="#0A6735" d="M8.775,49.999c0.4-1.646,0.696-3.074,0.696-3.074s-1.908-0.359-2.529-0.225
	c-1.14,0.246-3.185,1.525-4.065,2.29c-0.258,0.224-0.617,0.603-0.941,1.009H8.775z"/>
<path fill="#066034" d="M50,49.153c-1.091-0.931-3.288-1.921-4.613-1.372c-0.59,0.245-1.052,1.268-1.345,2.218L50,50V49.153z"/>
<path fill="#034433" d="M21.602,49.999c-1.08-0.526-2.904-0.745-3.808-0.572c-0.392,0.075-0.891,0.291-1.406,0.572H21.602z"/>
<path fill="#034433" d="M41.103,49.999c0.001-0.046,0.01-0.092,0.003-0.138c-0.1-0.613-1.121-1.339-1.561-1.489
	c-1.176-0.401-3.51,0.321-4.478,1.027c-0.191,0.139-0.404,0.354-0.624,0.6H41.103z"/>
<path fill="#066034" d="M24.263,49.999c-0.124-0.784-0.334-1.495-0.693-1.874c-0.781-0.824-3.318-1.199-4.432-0.985
	c-1.219,0.233-3.443,1.741-4.104,2.791c-0.012,0.019-0.022,0.048-0.034,0.068H24.263z"/>
<path fill="#066034" d="M39.997,49.999c0.068-0.109,0.14-0.225,0.2-0.32c0.332-0.522,1.407-1.382,1.283-2.142
	c-0.1-0.613-1.121-1.339-1.561-1.489c-1.176-0.401-5.04,0.322-6.008,1.028c-0.671,0.489-1.282,1.747-1.761,2.923H39.997z"/>
<path fill="#0A6735" d="M20.974,49.999c-0.007-0.485-0.03-0.936-0.082-1.266c-0.067-0.424-0.526-1.635-0.526-1.635
	s-0.943-0.07-1.229,0.042c-1.02,0.401-2.688,1.837-3.413,2.859H20.974z"/>
<path fill="#0A6735" d="M39.462,49.999c0.437-0.479,1.219-1.122,1.355-1.693c0.043-0.181,0.303-0.929,0.303-0.929
	s0.011-0.109-0.005-0.14c-0.115-0.232-1.053-0.686-1.053-0.686s-1.384,1.342-1.545,1.706c-0.26,0.59-0.836,1.252-1.237,1.742H39.462
	z"/>
<polygon fill="#053D2D" points="42.199,5.387 35.103,5.68 29.907,16.386 17.862,19.305 -0.024,16.193 -0.024,34.475 34.543,38.205 
	49.976,33.318 49.976,15.271 "/>
<path fill="#034433" d="M4.519,25.075c1.762-0.805,6.182,0.095,7.628,1.385c0.628,0.56,0.848,2.388,0.971,3.22
	c0.123,0.831-0.04,2.52,0,3.358c0.069,1.442,0.485,4.305,0.555,5.747c0.043,0.899,0,3.6,0,3.6S10.9,41.226,9.928,41
	c-1.629-0.38-5.294,0.277-6.657-0.692c-0.935-0.665-1.693-3.035-1.942-4.154c-0.308-1.386-0.374-4.308,0-5.678
	C1.743,28.963,3.091,25.727,4.519,25.075z"/>
<path fill="#009353" d="M4.832,23.841c1.762-0.805,6.182,0.095,7.628,1.385c0.628,0.56,0.848,2.388,0.971,3.22
	c0.123,0.831-0.04,2.52,0,3.358c0.069,1.442,0.485,4.305,0.555,5.747c0.043,0.899,0,3.6,0,3.6s-2.772-1.158-3.744-1.385
	c-1.629-0.38-5.294,0.277-6.657-0.692c-0.935-0.665-1.693-3.035-1.942-4.154c-0.308-1.386-0.374-4.308,0-5.678
	C2.056,27.729,3.405,24.493,4.832,23.841z"/>
<path fill="#03A95F" d="M4.832,23.841c0,0,2.779-0.174,3.681,0.009c0.936,0.191,2.935,0.732,3.521,1.485
	c0.635,0.816,0.544,3.056,0.622,4.086c0.074,0.981,0,2.951,0,3.935c0,0.977-0.162,2.944,0,3.907
	c0.131,0.777,1.034,2.979,1.034,2.979s-0.988-1.246-1.231-1.714c-0.379-0.73-0.755-2.352-1.084-3.106
	c-0.452-1.039-1.614-2.993-2.114-4.01c-0.498-1.013-1.307-3.132-1.879-4.105C6.837,26.379,4.832,23.841,4.832,23.841z"/>
<path fill="#034433" d="M32.211,27.636c-0.969-0.065-2.803,0.876-3.63,1.385c-0.832,0.512-2.493,1.738-2.888,2.631
	c-0.224,0.507,0.127,1.677,0,2.216c-0.196,0.829-1.526,3.046-1.526,3.046s2.363-1.309,3.19-1.662
	c0.993-0.424,3.178-0.809,4.091-1.385c0.694-0.438,1.98-1.594,2.288-2.354c0.287-0.706,0.389-2.392,0-3.046
	C33.515,28.094,32.644,27.665,32.211,27.636z"/>
<path fill="#034433" d="M11.558,9.638c0.767-0.211,2.498,0.128,3.12,0.623c0.595,0.473,1.089,2.027,1.248,2.77
	c0.291,1.354,0,4.154,0,5.539c0,1.004,0,4.016,0,4.016s-1.614-1.08-2.184-1.385c-0.527-0.282-1.69-0.635-2.184-0.969
	c-0.822-0.556-2.457-1.856-2.843-2.77c-0.337-0.798,0-2.596,0-3.462c0-0.45-0.183-1.389,0-1.8
	C9.104,11.326,10.635,9.891,11.558,9.638z"/>
<path fill="#066034" d="M33.345,25.707c-0.969-0.065-2.803,0.876-3.63,1.385c-0.832,0.512-2.493,1.738-2.888,2.631
	c-0.224,0.507,0.127,1.677,0,2.216c-0.196,0.829-1.526,3.046-1.526,3.046s2.363-1.309,3.19-1.662
	c0.993-0.424,3.178-0.809,4.091-1.385c0.694-0.438,1.98-1.594,2.288-2.354c0.287-0.706,0.389-2.392,0-3.046
	C34.649,26.165,33.779,25.736,33.345,25.707z"/>
<path fill="#009353" d="M12.692,7.708c0.767-0.211,2.498,0.128,3.12,0.623c0.595,0.473,1.089,2.027,1.248,2.77
	c0.291,1.354,0,4.154,0,5.539c0,1.004,0,4.016,0,4.016s-1.614-1.08-2.184-1.385c-0.527-0.282-1.69-0.635-2.184-0.969
	c-0.822-0.556-2.457-1.856-2.843-2.77c-0.337-0.798,0-2.596,0-3.462c0-0.45-0.183-1.389,0-1.8
	C10.238,9.397,11.769,7.962,12.692,7.708z"/>
<path fill="#03A95F" d="M11.485,8.467l-1.451,1.471c0,0,0,1.337,0,1.782c0,0.431-0.043,1.296,0,1.725
	c0.04,0.399,0.14,1.211,0.317,1.571c0.287,0.584,1.219,1.534,1.704,1.967c0.39,0.348,1.3,0.875,1.724,1.18
	c0.836,0.603,3.282,2.492,3.282,2.492s-1.834-3.678-2.297-4.965c-0.246-0.683-0.512-2.118-0.739-2.807
	c-0.177-0.536-0.563-1.604-0.837-2.098C12.838,10.158,11.485,8.467,11.485,8.467z"/>
<path fill="#0A6735" d="M34.779,26.418c0,0,0.131,1.697,0,2.242c-0.103,0.429-0.508,1.242-0.801,1.572
	c-0.479,0.54-1.749,1.294-2.399,1.608c-0.751,0.363-2.43,0.649-3.179,1.016c-0.844,0.413-3.098,2.128-3.098,2.128
	s1.798-2.008,2.356-2.711c0.301-0.38,0.813-1.209,1.134-1.572c0.399-0.452,1.295-1.267,1.769-1.64
	c0.372-0.292,1.177-0.793,1.576-1.046C32.789,27.602,34.779,26.418,34.779,26.418z"/>
<path fill="#034433" d="M8.412,18.068c-0.384-1.073-1.326-3.602-2.439-3.852c-0.905-0.204-2.581-1.517-3.312-0.947
	c-0.309,0.24-1.517,1.559-1.955,1.955l-0.434,5.605c0.13,0.869,0.654,3.044,0.943,3.501c0.352,0.556,3.054,4.232,3.054,4.232
	s1.007-0.558,1.289-0.814c0.6-0.545,1.548-1.882,1.986-2.564c0.411-0.64,1.276-1.946,1.412-2.693
	C9.155,21.394,8.787,19.117,8.412,18.068z"/>
<path fill="#009353" d="M6.566,12.133c1.113,0.25,2.055,2.779,2.439,3.852c0.375,1.049,0.744,3.326,0.544,4.422
	c-0.136,0.748-1.001,2.054-1.412,2.693c-0.438,0.682-1.386,2.019-1.986,2.564c-0.282,0.256-1.289,0.814-1.289,0.814
	s-1.056-1.668-1.408-2.224c-0.593-0.936-2.099-2.672-2.372-3.745c-0.274-1.081-0.174-3.44,0.3-4.449
	c0.3-0.639,1.49-1.514,2.048-1.948C4.162,13.543,5.661,11.93,6.566,12.133z"/>
<path fill="#03A95F" d="M6.566,12.133c0,0,0.929,1.156,1.132,1.602c0.527,1.154,1.109,3.663,1.214,4.928
	c0.056,0.682,0,2.079-0.211,2.73c-0.286,0.883-1.365,2.436-1.938,3.167c-0.417,0.532-1.902,1.92-1.902,1.92s0.388-2.636,0.59-3.501
	c0.197-0.84,0.936-2.444,0.996-3.305c0.049-0.709-0.35-2.103-0.437-2.808c-0.075-0.602-0.297-1.814-0.226-2.417
	C5.855,13.842,6.566,12.133,6.566,12.133z"/>
<path fill="#034433" d="M10.776,0.001H3.369c-0.12,0.077-0.233,0.149-0.328,0.207C2.387,0.613,1.016,1.4,0.545,2.008
	C0.337,2.277,0.153,2.746-0.024,3.229v5.155c0.219,0.55,0.421,1.125,0.431,1.517c0.014,0.533-0.187,1.28-0.431,2.026v2.594
	c0.632-0.123,1.317-0.269,1.679-0.327c1.07-0.171,3.333-0.064,4.299-0.554c0.809-0.411,1.942-1.914,2.496-2.631
	c0.762-0.984,2.339-3.015,2.635-4.224C11.478,5.179,11.699,1.579,10.776,0.001z"/>
<path fill="#009353" d="M12.468,0.001H1.751C1.728,0.027,1.699,0.054,1.679,0.079C1.27,0.608,0.832,1.914,0.708,2.572
	c-0.128,0.681-0.106,2.085,0,2.77C0.814,6.023,1.523,7.283,1.54,7.972c0.021,0.823-0.542,2.415-0.832,3.185
	c-0.133,0.353-0.563,1.22-0.733,1.536v0.112c0.328-0.066,2.146-0.434,2.813-0.54c1.07-0.171,3.333-0.063,4.299-0.554
	C7.897,11.3,9.029,9.797,9.584,9.08c0.762-0.984,2.339-3.015,2.635-4.224C12.491,3.748,12.679,1.69,12.468,0.001z"/>
<path fill="#03A95F" d="M1.956,0.001C1.557,0.472,1.175,1.01,1.043,1.399c-0.253,0.745-0.244,2.399,0,3.147
	c0.204,0.626,1.016,1.753,1.059,2.41c0.062,0.947-0.704,2.767-1.059,3.647c-0.176,0.438-0.877,1.672-0.877,1.672
	s2.819-1.947,3.611-2.762c1.058-1.089,2.895-3.558,3.546-4.929c0.432-0.909,0.96-2.89,1.368-4.584H1.956z"/>
<path fill="#034433" d="M49.944,14.644c-0.419,0.047-0.812,0.128-1.072,0.208c-0.832,0.253-2.282,1.315-2.888,1.939
	c-0.499,0.514-1.327,1.736-1.525,2.423c-0.312,1.081,0.128,3.383,0,4.5c-0.093,0.812-0.742,3.185-0.742,3.185
	s2.108-1.159,2.822-1.523c0.836-0.426,2.711-0.893,3.462-1.519L49.944,14.644z"/>
<path fill="#009353" d="M50,13.466c-0.34,0.048-0.708,0.129-0.925,0.195c-0.832,0.253-2.282,1.315-2.888,1.939
	c-0.499,0.514-1.327,1.736-1.526,2.423c-0.312,1.081,0.128,3.383,0,4.5c-0.093,0.812-0.742,3.185-0.742,3.185
	s2.108-1.159,2.822-1.523c0.768-0.391,2.421-0.764,3.258-1.329V13.466z"/>
<path fill="#03A95F" d="M50,17.935c-0.435,0.602-1.216,1.35-1.561,1.84c-0.369,0.524-1.002,1.643-1.375,2.164
	c-0.625,0.871-2.693,3.337-2.693,3.337s0.84-0.8,1.166-1.003c0.937-0.583,3.243-0.898,4.103-1.588
	c0.111-0.089,0.241-0.214,0.359-0.359V17.935z"/>
<path fill="#034433" d="M10.775,0.001H3.374c-0.121,0.078-0.236,0.15-0.332,0.21c-0.654,0.405-2.025,1.192-2.496,1.8
	C0.337,2.28,0.153,2.756-0.024,3.24v5.141c0.219,0.55,0.422,1.131,0.431,1.523c0.014,0.534-0.187,1.397-0.431,2.144v2.473
	c0.632-0.123,1.317-0.267,1.68-0.325c1.07-0.171,3.333-0.063,4.299-0.554c0.809-0.411,1.942-1.914,2.496-2.631
	c0.762-0.984,2.339-3.015,2.635-4.224C11.479,5.181,11.7,1.577,10.775,0.001z"/>
<path fill="#066034" d="M12.592,0L1.754,0.001C1.731,0.027,1.7,0.055,1.68,0.082C1.27,0.611,0.833,1.917,0.709,2.574
	c-0.128,0.68-0.106,2.085,0,2.77c0.105,0.682,0.815,1.941,0.832,2.631c0.021,0.823-0.542,2.415-0.832,3.185
	c-0.133,0.354-0.586,1.595-0.586,1.595c0.325-0.065,1.998-0.381,2.666-0.487c1.07-0.171,3.333-0.063,4.299-0.554
	C7.897,11.303,9.03,9.8,9.585,9.083c0.762-0.984,2.339-3.015,2.635-4.224C12.492,3.75,12.804,1.69,12.592,0z"/>
<path fill="#0A6735" d="M1.959,0.001c-0.4,0.472-0.783,1.011-0.915,1.4c-0.253,0.745-0.244,2.399,0,3.147
	c0.204,0.626,1.016,1.753,1.059,2.41c0.062,0.947-0.704,2.767-1.059,3.647c-0.176,0.438-0.877,1.672-0.877,1.672
	s2.819-1.947,3.611-2.762c1.058-1.089,2.895-3.558,3.546-4.929c0.432-0.909,0.75-2.903,1.159-4.598L1.959,0.001z"/>
<path fill="#034433" d="M44.001,28.256c0.767-0.211,2.498,0.128,3.12,0.623c0.595,0.473,1.089,2.027,1.248,2.77
	c0.291,1.354,0,4.154,0,5.539c0,1.004,0,4.016,0,4.016s-1.614-1.08-2.184-1.385c-0.527-0.282-1.69-0.635-2.184-0.969
	c-0.822-0.556-2.457-1.856-2.843-2.77c-0.337-0.798,0-2.596,0-3.462c0-0.45-0.183-1.389,0-1.8
	C41.547,29.945,43.078,28.51,44.001,28.256z"/>
<path fill="#009353" d="M45.135,26.327c0.767-0.211,2.498,0.128,3.12,0.623c0.595,0.473,1.089,2.027,1.248,2.77
	c0.291,1.354,0,4.154,0,5.539c0,1.004,0,4.016,0,4.016s-1.614-1.08-2.184-1.385c-0.527-0.282-1.69-0.635-2.184-0.969
	c-0.822-0.556-2.457-1.856-2.843-2.77c-0.337-0.798,0-2.596,0-3.462c0-0.45-0.183-1.389,0-1.8
	C42.681,28.015,44.212,26.58,45.135,26.327z"/>
<path fill="#03A95F" d="M43.927,27.086l-1.451,1.471c0,0,0,1.337,0,1.782c0,0.431-0.043,1.296,0,1.725
	c0.04,0.399,0.14,1.211,0.317,1.571c0.287,0.584,1.219,1.534,1.704,1.967c0.39,0.348,1.3,0.875,1.724,1.18
	c0.836,0.603,3.282,2.492,3.282,2.492s-1.834-3.678-2.297-4.965c-0.246-0.683-0.512-2.118-0.739-2.807
	c-0.177-0.536-0.563-1.604-0.837-2.098C45.281,28.776,43.927,27.086,43.927,27.086z"/>
<path fill="#034433" d="M34.487,20.484c1.192-0.384,3.678,0.814,4.854,1.246c0.76,0.28,2.391,0.8,2.912,1.419
	c0.563,0.669,0.754,2.511,0.971,3.358c0.198,0.773,0.606,2.323,0.693,3.116c0.072,0.654,0,2.631,0,2.631s-3.524-0.719-4.715-0.692
	c-0.918,0.02-2.721,0.936-3.606,0.692c-1.254-0.346-3.351-2.276-3.883-3.462c-0.51-1.137-0.425-3.813,0-4.985
	C32.082,22.791,33.456,20.816,34.487,20.484z"/>
<path fill="#034433" d="M36.861,11.725c-0.667-0.556-2.658-0.293-3.476,0c-0.884,0.317-2.284,1.676-2.897,2.386
	c-0.413,0.479-1.135,1.56-1.304,2.169c-0.28,1.011,0,4.194,0,4.194s0.986,0.071,1.304,0c1.249-0.278,3.454-1.677,4.635-2.169
	c0.677-0.282,2.388-0.377,2.752-1.012C38.578,16.064,37.949,12.631,36.861,11.725z"/>
<path fill="#009353" d="M34.128,18.515c1.192-0.384,3.678,0.814,4.854,1.246c0.76,0.28,2.391,0.8,2.912,1.419
	c0.563,0.669,0.754,2.511,0.971,3.358c0.198,0.773,0.606,2.323,0.693,3.116c0.072,0.654,0,2.631,0,2.631s-3.524-0.719-4.715-0.692
	c-0.918,0.02-2.721,0.936-3.606,0.692c-1.254-0.346-3.351-2.276-3.883-3.462c-0.51-1.137-0.425-3.813,0-4.985
	C31.723,20.821,33.097,18.847,34.128,18.515z"/>
<path fill="#009353" d="M38.046,9.71c-0.667-0.556-2.658-0.293-3.476,0c-0.884,0.317-2.284,1.676-2.897,2.386
	c-0.413,0.479-1.135,1.56-1.304,2.169c-0.28,1.011,0,4.194,0,4.194s0.986,0.071,1.304,0c1.249-0.278,3.454-1.677,4.635-2.169
	c0.677-0.282,2.388-0.377,2.752-1.012C39.762,14.049,39.134,10.616,38.046,9.71z"/>
<path fill="#066034" d="M50,0.001h-5.942c-0.189,0.569-0.32,1.132-0.378,1.508c-0.164,1.052,0.02,3.302,0.555,4.224
	c0.546,0.94,2.726,1.835,3.467,2.631c0.563,0.605,1.803,2.77,1.803,2.77s0.216-0.128,0.495-0.448V0.001z"/>
<path fill="#03A95F" d="M33.86,19.131c0,0,1.918,0.019,2.534,0.172c1.047,0.26,2.926,1.39,3.941,1.758
	c0.253,0.092,0.838,0.11,1.034,0.293c0.374,0.349,0.509,1.446,0.69,1.924c0.311,0.823,1.135,2.407,1.3,3.272
	c0.144,0.755,0.036,2.306,0,3.073c-0.007,0.153-0.057,0.611-0.057,0.611s-1.572-3.066-2.228-4.005
	c-0.54-0.772-1.722-2.272-2.464-2.853c-0.706-0.553-2.546-1.01-3.2-1.623C34.853,21.232,33.86,19.131,33.86,19.131z"/>
<path fill="#03A95F" d="M38.046,9.71c0,0-1.537-0.085-2.04,0c-0.524,0.088-1.553,0.419-2.006,0.695
	c-0.47,0.287-1.216,1.119-1.595,1.519c-0.35,0.37-1.144,1.072-1.319,1.549c-0.144,0.391,0.046,1.251,0,1.665
	c-0.057,0.513-0.345,1.51-0.453,2.015c-0.069,0.326-0.263,1.307-0.263,1.307s1.301-2.045,1.727-2.732
	c0.326-0.525,0.885-1.641,1.287-2.112c0.504-0.591,1.77-1.516,2.366-2.015C36.319,11.123,38.046,9.71,38.046,9.71z"/>
<path fill="#0A6735" d="M47.296,1.424c-0.174-0.327-0.556-0.882-0.946-1.424h-1.83c-0.244,0.555-0.474,1.127-0.541,1.456
	c-0.13,0.643-0.123,1.979,0,2.623c0.079,0.416,0.358,1.244,0.624,1.574c0.323,0.4,1.31,0.822,1.708,1.148
	c0.37,0.303,1.063,0.969,1.359,1.344c0.464,0.588,1.553,2.559,1.553,2.559s-0.35-4.588-0.712-6.074
	C48.308,3.799,47.699,2.182,47.296,1.424z"/>
<path fill="#034433" d="M41.35,7.571c0.797-0.072,2.172,1.089,2.744,1.647c0.552,0.539,1.501,1.851,1.65,2.608
	c0.15,0.761-0.298,2.319-0.54,3.056c-0.199,0.605-0.806,1.734-1.129,2.283c-0.29,0.492-1.3,1.879-1.3,1.879
	s-1.205-1.296-1.557-1.768c-0.777-1.04-2.475-3.131-2.764-4.396c-0.172-0.753-0.013-2.384,0.344-3.069
	C39.191,9.06,40.504,7.648,41.35,7.571z"/>
<path fill="#066034" d="M42.28,7.602c0.797-0.072,2.172,1.089,2.744,1.647c0.552,0.539,1.501,1.851,1.65,2.608
	c0.15,0.761-0.298,2.319-0.54,3.056c-0.199,0.605-0.806,1.734-1.129,2.283c-0.29,0.492-1.3,1.879-1.3,1.879
	s-1.205-1.296-1.557-1.768c-0.777-1.04-2.475-3.131-2.764-4.396c-0.172-0.753-0.013-2.384,0.344-3.069
	C40.121,9.09,41.434,7.678,42.28,7.602z"/>
<path fill="#034433" d="M27.095,21.245c-0.756-0.732-2.974-1.149-4.022-1.246c-1.355-0.126-4.122,0.179-5.409,0.623
	c-0.923,0.319-2.637,1.354-3.328,2.043c-0.7,0.697-1.67,2.46-2.08,3.358c-0.339,0.742-0.59,2.394-0.971,3.116
	c-0.391,0.741-2.08,2.631-2.08,2.631s2.796,0.605,3.744,0.692c1.588,0.146,4.838,0.409,6.379,0c1.621-0.43,4.532-2.257,5.825-3.323
	c0.986-0.813,3.089-2.623,3.328-3.877C28.681,24.217,27.859,21.984,27.095,21.245z"/>
<path fill="#034433" d="M21.025,0.001h-4.387c-1.178,0.569-2.57,1.621-3.069,2.414c-0.587,0.931-0.775,3.257-0.658,4.35
	c0.049,0.458,0.456,1.309,0.658,1.724c0.419,0.861,1.794,2.343,1.973,3.283c0.14,0.736-0.493,2.955-0.493,2.955
	s2.751-2.172,3.617-2.955c0.905-0.818,2.83-2.399,3.453-3.448c0.372-0.625,0.778-2.065,0.822-2.791
	c0.076-1.246,0.038-4.019-0.822-4.925C21.885,0.363,21.487,0.163,21.025,0.001z"/>
<path fill="#034433" d="M34.529,0.001c-0.926,0.954-2.068,2.808-2.492,3.962c-0.357,0.972-0.659,4.408-0.659,4.408
	s1.414,0.953,1.886,0.934c0.903-0.038,2.397-1.376,3.079-2.07c1.004-1.023,2.574-3.742,3.397-5.035
	c0.332-0.522,1.409-1.382,1.285-2.142c-0.003-0.019-0.014-0.038-0.019-0.057H34.529z"/>
<path fill="#009353" d="M28.23,19.315c-0.756-0.732-2.974-1.149-4.022-1.246c-1.355-0.126-4.122,0.179-5.409,0.623
	c-0.923,0.319-2.637,1.354-3.328,2.043c-0.7,0.697-1.67,2.46-2.08,3.358c-0.339,0.742-0.59,2.394-0.971,3.116
	c-0.391,0.741-2.08,2.631-2.08,2.631s2.796,0.605,3.744,0.692c1.588,0.146,4.838,0.409,6.379,0c1.621-0.43,4.532-2.257,5.825-3.323
	c0.986-0.813,3.089-2.623,3.328-3.877C29.815,22.288,28.993,20.054,28.23,19.315z"/>
<path fill="#066034" d="M15.011,0.001c-0.03,0.042-0.072,0.086-0.097,0.127c-0.587,0.931-0.775,3.257-0.658,4.35
	c0.049,0.458,0.456,1.309,0.658,1.724c0.419,0.861,1.794,2.343,1.973,3.283c0.14,0.736-0.493,2.955-0.493,2.955
	s2.751-2.172,3.617-2.955c0.905-0.818,2.83-2.399,3.453-3.448c0.372-0.625,0.778-2.065,0.822-2.791
	c0.047-0.767,0.048-2.113-0.157-3.246H15.011z"/>
<path fill="#066034" d="M32.139,0c-0.243,0.581-0.461,1.156-0.63,1.618c-0.357,0.972,0.012,5.363,0.012,5.363s1.647,0.02,2.118,0
	c0.903-0.038,2.397-1.376,3.079-2.07c0.976-0.994,2.479-3.577,3.319-4.909L32.139,0z"/>
<path fill="#0A6735" d="M15.746,0.001c-0.122,0.156-0.23,0.306-0.311,0.443c-0.372,0.629-0.653,2.129-0.61,2.858
	c0.039,0.646,0.6,1.847,0.839,2.449c0.231,0.58,0.808,1.692,1.032,2.274c0.137,0.354,0.443,1.067,0.464,1.446
	c0.032,0.583-0.464,2.287-0.464,2.287s1.039-1.203,1.345-1.635c0.619-0.876,1.852-2.664,2.213-3.673
	c0.308-0.86,0.461-2.704,0.527-3.615c0.05-0.686,0.103-1.86,0.078-2.834H15.746z"/>
<path fill="#03A95F" d="M26.395,18.765c-0.617-0.305-2.047-0.29-2.735-0.313c-0.838-0.028-2.531-0.026-3.349,0.157
	c-0.914,0.205-2.676,0.924-3.46,1.437c-0.699,0.458-1.932,1.631-2.41,2.316c-0.405,0.582-0.913,1.927-1.134,2.601
	c-0.17,0.515-0.233,1.634-0.483,2.115c-0.381,0.733-2.214,2.455-2.214,2.455s2.85-1.106,3.832-1.373
	c0.703-0.191,2.2-0.242,2.865-0.541c0.853-0.384,2.286-1.638,2.955-2.291c0.516-0.503,1.25-1.796,1.823-2.234
	c0.647-0.495,2.222-1.022,2.977-1.327c0.772-0.311,2.941-0.323,3.13-1.132C28.34,20.003,26.976,19.053,26.395,18.765z"/>
<path fill="#0A6735" d="M37.355,0.001c-0.093,0.112-0.186,0.224-0.264,0.321c-0.637,0.791-1.75,1.597-2.463,2.262
	c-0.492,0.459-0.754,1.33-1.236,1.926c-0.308,0.382-1.72,2.271-1.72,2.271s1.637-0.446,2.053-0.523
	c0.368-0.069,1.067-0.374,1.391-0.585c0.528-0.343,1.469-1.28,1.922-1.771c0.731-0.794,1.505-2.562,2.154-3.482
	c0.087-0.124,0.22-0.266,0.372-0.419H37.355z"/>
<path fill="#034433" d="M29.157,7.879c-1.151-0.867-4.488-0.661-5.769,0c-0.991,0.512-2.242,2.576-2.581,3.638
	c-0.219,0.686,0.192,2.186,0,2.88c-0.236,0.852-1.822,3.032-1.822,3.032s2.28,0.067,3.036,0c1.498-0.133,4.655-0.25,5.92-1.061
	c0.952-0.611,2.396-2.599,2.581-3.714C30.726,11.429,30.149,8.627,29.157,7.879z"/>
<path fill="#009353" d="M30.399,5.768c-1.151-0.867-4.488-0.661-5.769,0c-0.991,0.512-2.242,2.576-2.581,3.638
	c-0.219,0.686,0.192,2.186,0,2.88c-0.236,0.852-1.822,3.032-1.822,3.032s2.28,0.067,3.036,0c1.498-0.133,4.655-0.25,5.92-1.061
	c0.952-0.611,2.396-2.599,2.581-3.714C31.968,9.318,31.391,6.515,30.399,5.768z"/>
<path fill="#03A95F" d="M28.198,5.41c-0.548-0.067-1.666,0.146-2.181,0.345c-0.533,0.205-1.501,0.852-1.911,1.249
	c-0.522,0.503-1.452,1.678-1.671,2.369c-0.159,0.5,0.124,1.589,0,2.1c-0.166,0.684-1.29,2.504-1.29,2.504l-0.675,1.173
	c0,0,1.752-0.524,2.289-0.806c0.892-0.469,2.552-1.653,3.259-2.371c0.823-0.836,2.279-2.744,2.701-3.838
	c0.216-0.559,0.594-1.86,0.294-2.379C28.901,5.564,28.417,5.437,28.198,5.41z"/>
<path fill="#0A6735" d="M42.275,7.729c0,0-1.036,0.658-1.289,0.972c-0.446,0.552-1.034,1.884-1.19,2.575
	c-0.097,0.431-0.125,1.337-0.021,1.767c0.183,0.756,1.041,2.091,1.458,2.748c0.494,0.777,2.212,2.947,2.212,2.947
	s-0.757-3.547-0.906-4.745c-0.101-0.808-0.159-2.437-0.193-3.251C42.314,9.989,42.275,7.729,42.275,7.729z"/>
<path fill="#034433" d="M31.943,50c1.493-2.63,3.473-7.92,2.091-10.02c-0.879-1.335-4.715-1.39-6.295-1.143
	c-1.602,0.25-4.538,1.943-5.723,3.048c-0.987,0.92-2.489,3.276-2.862,4.572c-0.248,0.862-0.156,2.185-0.037,3.543H31.943z"/>
<path fill="#0A6735" d="M30.589,50c0.135-0.108,0.261-0.213,0.367-0.31c1.012-0.933,2.749-3.133,3.343-4.375
	c0.636-1.33,1.348-4.255,1.4-5.728c0.02-0.573-0.385-2.26-0.385-2.26s-4.409,3.28-5.758,4.515c-0.877,0.804-2.585,2.489-3.252,3.473
	c-0.478,0.705-1.085,2.313-1.445,3.084c-0.185,0.396-0.413,0.993-0.663,1.6H30.589z"/>
<path fill="#034433" d="M8.509,50c0.396-0.203,0.768-0.387,1.078-0.516c0.891-0.372,3.146-0.496,3.625-1.333
	c0.926-1.618,0.097-6.14-1.335-7.334c-0.879-0.732-3.501-0.386-4.578,0c-1.164,0.417-3.009,2.207-3.815,3.143
	c-0.544,0.631-1.494,2.055-1.717,2.857C1.585,47.469,1.581,48.805,1.625,50H8.509z"/>
<path fill="#034433" d="M47.081,50c-0.447-1.246-1.991-3.347-3.013-4.094c-0.974-0.712-3.372-1.51-4.578-1.524
	c-1.297-0.015-4.189,0.482-4.96,1.524c-0.588,0.795-0.601,2.719-0.321,4.094H47.081z"/>
<path fill="#034433" d="M31.647,50c1.5-2.586,3.564-8.013,2.161-10.145c-0.879-1.335-4.715-1.39-6.295-1.143
	c-1.602,0.25-4.538,1.943-5.723,3.048c-0.987,0.92-2.489,3.276-2.862,4.572c-0.255,0.888-0.15,2.266-0.026,3.668H31.647z"/>
<path fill="#009353" d="M13.437,38.163c-0.879-0.732-3.501-0.386-4.578,0c-1.164,0.417-3.009,2.207-3.815,3.143
	c-0.544,0.631-1.494,2.054-1.717,2.857c-0.369,1.331,0,5.524,0,5.524s1.298,0.093,1.717,0c1.645-0.366,4.549-2.209,6.105-2.857
	c0.891-0.372,3.146-0.496,3.625-1.333C15.698,43.879,14.869,39.357,13.437,38.163z"/>
<path fill="#4EB649" d="M37.669,50h10.89c0.075-0.909,0.312-1.972,0.121-2.557c-0.401-1.232-2.005-3.425-3.052-4.191
	c-0.974-0.712-3.372-1.51-4.578-1.524c-1.297-0.015-4.189,0.482-4.96,1.524c-0.765,1.034-0.562,3.986,0,5.143
	C36.338,48.906,36.969,49.484,37.669,50z"/>
<path fill="#4EB649" d="M20.628,50H30.82c0.885-0.73,1.636-1.47,2.068-2.131c1.497-2.293,3.986-8.379,2.48-10.667
	c-0.879-1.335-4.715-1.39-6.295-1.143c-1.602,0.25-4.538,1.943-5.723,3.048c-0.987,0.92-2.489,3.276-2.862,4.572
	C20.065,45.15,20.618,47.948,20.628,50z"/>
<path fill="#03A95F" d="M13.437,38.163c0,0-2.025-0.111-2.687,0c-0.69,0.116-2.046,0.552-2.642,0.915
	c-0.62,0.378-1.602,1.474-2.1,2.001c-0.46,0.487-1.506,1.411-1.738,2.04c-0.189,0.514,0.06,1.648,0,2.193
	c-0.075,0.676-0.455,1.989-0.596,2.654c-0.091,0.429-0.347,1.722-0.347,1.722s1.713-2.694,2.274-3.598
	c0.429-0.692,1.166-2.162,1.694-2.781c0.664-0.778,2.332-1.997,3.116-2.654C11.162,40.025,13.437,38.163,13.437,38.163z"/>
<path fill="#6DBE5E" d="M39.064,50h6.155c-0.833-0.505-1.623-1.031-2.097-1.474c-0.494-0.462-1.111-1.709-1.581-2.196
	c-0.714-0.74-2.361-2.009-3.252-2.523c-0.459-0.265-1.962-0.801-1.962-0.801s-0.531,1.616-0.481,2.169
	c0.065,0.721,0.724,2.065,1.124,2.668C37.385,48.467,38.425,49.559,39.064,50z"/>
<path fill="#6DBE5E" d="M30.2,50c0.199-0.153,0.383-0.301,0.529-0.435c1.012-0.933,2.749-3.133,3.343-4.375
	c0.636-1.33,1.348-4.255,1.4-5.728c0.02-0.573-0.385-2.26-0.385-2.26s-4.409,3.28-5.758,4.515c-0.877,0.804-2.585,2.489-3.252,3.473
	c-0.478,0.705-1.085,2.313-1.446,3.084c-0.197,0.423-0.444,1.076-0.714,1.726H30.2z"/>
<path fill="#034433" d="M12.773,50h4.821c0.061-0.249,0.115-0.477,0.144-0.634c0.159-0.861,0.411-2.606,0.382-3.481
	c-0.035-1.067-0.191-3.291-0.744-4.204c-0.55-0.908-2.395-2.156-3.363-2.594c-1.003-0.453-3.327-1.306-4.323-0.838
	c-1.057,0.497-2.088,2.939-2.24,4.096c-0.139,1.053,0.425,3.236,1.003,4.128C9.189,47.61,11.194,48.978,12.773,50z"/>
<path fill="#4EB649" d="M14.209,48.902c0.395,0.259,1.29,0.739,1.973,1.098h1.002c0.197-0.7,0.562-2.028,0.665-2.586
	c0.159-0.861,0.411-2.606,0.382-3.481c-0.035-1.067-0.191-3.291-0.744-4.204c-0.55-0.908-2.395-2.156-3.363-2.594
	c-1.003-0.453-3.327-1.306-4.323-0.838c-1.057,0.496-2.088,2.939-2.24,4.096c-0.139,1.053,0.425,3.236,1.003,4.128
	C9.533,46.02,12.714,47.923,14.209,48.902z"/>
<path fill="#034433" d="M35.562,34.935c-1.081,0.019-2.976,1.56-3.542,2.48c-0.619,1.006-0.99,3.535-0.676,4.673
	c0.278,1.009,1.792,2.634,2.637,3.254c0.354,0.26,1.213,0.521,1.634,0.645c0.874,0.259,2.799,0.246,3.575,0.724
	c0.607,0.374,1.761,2.243,1.761,2.243s0.238-3.323,0.244-4.433c0.006-1.16,0.129-3.524-0.208-4.634
	c-0.201-0.662-0.953-1.871-1.435-2.368C38.725,36.667,36.751,34.913,35.562,34.935z"/>
<path fill="#4EB649" d="M34.816,32.524c-1.081,0.019-2.976,1.56-3.542,2.48c-0.619,1.006-0.99,3.535-0.676,4.673
	c0.278,1.009,1.792,2.634,2.637,3.254c0.354,0.26,1.213,0.521,1.634,0.645c0.874,0.259,2.799,0.246,3.575,0.724
	c0.607,0.374,1.761,2.243,1.761,2.243s0.238-3.323,0.244-4.433c0.006-1.16,0.129-3.524-0.208-4.634
	c-0.201-0.662-0.953-1.871-1.435-2.368C37.98,34.256,36.006,32.502,34.816,32.524z"/>
<path fill="#6DBE5E" d="M32.034,34.113c0,0-0.655,0.617-0.76,0.89c-0.405,1.053-0.45,3.432-0.119,4.511
	c0.204,0.665,1.077,1.825,1.618,2.262c0.479,0.387,1.685,0.765,2.261,0.984c0.556,0.211,1.708,0.52,2.262,0.736
	c0.337,0.132,1.035,0.374,1.315,0.603c0.43,0.351,1.311,1.794,1.311,1.794s-0.178-1.501-0.286-1.992
	c-0.218-0.996-0.684-3.009-1.162-3.91c-0.407-0.768-1.606-2.059-2.204-2.69c-0.64-0.675-1.971-1.994-2.747-2.507
	C33.181,34.568,32.034,34.113,32.034,34.113z"/>
<path fill="#034433" d="M2.721,34.933c-0.545-0.583-1.687-0.726-2.746-0.583L0,45.068c0.735-0.164,1.363-0.391,1.779-0.771
	c0.739-0.674,1.859-2.867,2.002-4.097C3.939,38.849,3.491,35.758,2.721,34.933z"/>
<path fill="#4EB649" d="M3.669,32.619C2.947,31.845,1.2,31.872,0,32.286v10.673c1.063-0.154,2.13-0.431,2.727-0.976
	c0.739-0.674,1.859-2.867,2.002-4.097C4.886,36.535,4.439,33.443,3.669,32.619z"/>
<path fill="#6DBE5E" d="M2.609,32.589c-0.086-0.211-0.461-0.351-0.631-0.38c-0.425-0.074-1.293,0.161-1.692,0.38
	C0.188,32.642,0.125,32.735,0,32.833v7.048c0.129-0.157,0.192-0.299,0.285-0.433c0.639-0.923,1.768-3.027,2.095-4.234
	C2.548,34.596,2.841,33.161,2.609,32.589z"/>
<path fill="#6DBE5E" d="M9.112,44.759c0.593,0.89,2.332,2.213,3.181,2.865c0.99,0.761,4.555,2.329,4.661,2.376h0.006
	c-0.038-0.047-3.075-3.845-3.829-5.314c-0.511-0.997-1.356-3.075-1.783-4.11c-0.395-0.958-1.513-3.86-1.513-3.86
	s-1.028,1.337-1.208,1.862c-0.315,0.923-0.447,2.921-0.323,3.888C8.383,43.069,8.775,44.253,9.112,44.759z"/>
<path fill="#034433" d="M1.859,14.801C1.491,14.519,0.707,14.516,0,14.604v9.27c0.048-0.037,0.087-0.174,0.128-0.211
	c0.616-0.558,1.274-2.144,1.731-2.839c0.28-0.425,1.088-1.161,1.177-1.662C3.234,18.051,2.755,15.487,1.859,14.801z"/>
<path fill="#009353" d="M2.062,13.61C1.658,13.301,0.75,13.343,0,13.458v9.422c0.578-0.438,1.605-2.551,2.062-3.246
	c0.28-0.425,1.088-1.161,1.177-1.662C3.437,16.86,2.958,14.297,2.062,13.61z"/>
<path fill="#03A95F" d="M2.863,16.37c-0.11-0.648-0.87-2.483-0.87-2.483s-1.194,2.779-1.72,3.635C0.199,17.641,0.11,17.795,0,17.942
	v4.385c0.48-0.548,0.989-1.602,1.322-2.079c0.392-0.561,1.34-1.609,1.541-2.263C2.982,17.6,2.931,16.769,2.863,16.37z"/>
<path fill="#066034" d="M0-0.005v10.682c0.695-0.794,2.093-2.506,2.366-3.333c0.369-1.118,0.293-3.568,0-4.708
	C2.169,1.87,1.519,0.508,0.918-0.005H0z"/>
<path fill="#0A6735" d="M24.36-0.026c-0.34,0.843-0.73,1.772-1.113,2.252C22.488,3.177,19.4,5.203,19.4,5.203
	s0.946-0.222,1.256-0.316c1.535-0.466,4.604-1.448,6.044-2.157c1.142-0.562,3.344-1.892,4.282-2.757H24.36z"/>
<path fill="#034433" d="M1.624,0c0.039,1.369,0.215,2.623,0.215,2.623s1.296,0.093,1.714,0C5.05,2.289,6.916,0.765,8.53,0H1.624z"/>
<path fill="#034433" d="M47.125,4.188c-0.442-0.844,0.294-2.904,0-3.81C47.085,0.255,47.025,0.141,46.962,0H34.215
	c0.088,0.539,0.178,0.999,0.338,1.331c0.503,1.037,2.581,2.355,3.619,2.857c1.674,0.81,5.391,1.499,7.238,1.714
	c1.041,0.122,4.191,0,4.191,0S47.475,4.855,47.125,4.188z"/>
<path fill="#034433" d="M18.889,0c0.141,1.655,0.378,3.367,0.085,4.423c-0.296,1.07-2.286,3.81-2.286,3.81s5.408-0.94,7.048-1.714
	c2.153-1.016,6.319-3.72,7.619-5.714c0.154-0.236,0.32-0.495,0.49-0.804H18.889z"/>
<path fill="#4EB649" d="M48.683,1.534C48.495,1.175,48.494,0.618,48.562,0H37.639c0.809,0.656,1.465,1.231,2.091,1.534
	c1.674,0.81,5.391,1.499,7.238,1.714c0.621,0.073,3,0.108,3,0.108S48.848,1.848,48.683,1.534z"/>
<path fill="#4EB649" d="M20.624,0c0.02,0.691,0.042,1.289-0.091,1.769c-0.297,1.07-2.286,3.81-2.286,3.81s5.408-0.94,7.048-1.714
	C26.834,3.138,29.028,1.575,30.842,0H20.624z"/>
<path fill="#6DBE5E" d="M47.766,1.996C46.976,1.575,46.293,0.703,45.186,0h-6.193c0.154,0.132,0.302,0.229,0.429,0.314
	c0.787,0.525,2.312,1.112,3.216,1.394c1.294,0.404,3.946,0.998,5.284,1.218c0.423,0.069,1.938,0.382,1.938,0.382
	S48.181,2.217,47.766,1.996z"/>
<path fill="#6DBE5E" d="M23.905,0c-0.328,0.809-0.629,1.644-0.994,2.102c-0.759,0.95-3.846,2.977-3.846,2.977
	s0.946-0.222,1.256-0.316c1.535-0.466,4.605-1.448,6.044-2.157C27.454,2.069,29.199,0.863,30.2,0H23.905z"/>
<path fill="#034433" d="M12.637,0c0.681,0.449,1.047,0.828,1.516,1.135c0.677,0.444,2.842,1.552,2.842,1.552S17.392,0.945,17.608,0
	H12.637z"/>
<path fill="#034433" d="M49.978,34.328c-0.681,0.09-1.317,0.295-1.706,0.581c-0.768,0.565-1.737,2.842-1.999,4.013
	c-0.169,0.757,0.149,2.412,0,3.177c-0.183,0.94-1.411,3.344-1.411,3.344s1.766,0.074,2.352,0c0.67-0.085,1.788-0.168,2.786-0.392
	L49.978,34.328z"/>
<path fill="#4EB649" d="M50,32.278c-0.288,0.099-0.574,0.159-0.766,0.301c-0.768,0.565-1.737,2.842-1.999,4.013
	c-0.169,0.757,0.149,2.412,0,3.177c-0.183,0.94-1.411,3.344-1.411,3.344s1.766,0.074,2.352,0c0.457-0.058,1.136-0.064,1.824-0.164
	V32.278z"/>
<path fill="#6DBE5E" d="M50,32.841c-0.406,0.316-0.927,0.764-1.172,1.101c-0.404,0.555-1.125,1.851-1.295,2.613
	c-0.123,0.552,0.096,1.754,0,2.316c-0.129,0.755-1,2.763-1,2.763l-0.523,1.295c0,0,1.357-0.578,1.773-0.89
	c0.577-0.432,1.586-1.412,2.216-2.185V32.841z"/>
<path fill="#034433" d="M27.984,28.431c-1.166-0.828-4.361,0.317-5.643,0.95c-1.589,0.784-4.379,3.254-5.181,4.833
	c-0.686,1.35-0.761,4.5-0.725,6.014c0.021,0.905,0.603,3.569,0.603,3.569s4.244-3.912,5.981-4.678
	c0.829-0.365,2.935,0.04,3.574-0.602c1.669-1.677,1.526-6.971,1.519-9.335C28.11,28.991,28.139,28.541,27.984,28.431z"/>
<path fill="#4EB649" d="M28.253,27.166c-1.166-0.828-4.361,0.317-5.643,0.95c-1.589,0.784-4.379,3.254-5.181,4.833
	c-0.686,1.35-0.761,4.5-0.725,6.014c0.021,0.905,0.603,3.569,0.603,3.569s4.244-3.912,5.981-4.678
	c0.829-0.365,2.935,0.04,3.574-0.602c1.669-1.677,1.526-6.971,1.519-9.335C28.379,27.727,28.408,27.276,28.253,27.166z"/>
<path fill="#6DBE5E" d="M27.945,27.401l-0.004,0.268c0,0,0.164,4.222-0.079,5.601c-0.153,0.868-0.58,2.663-1.158,3.329
	c-0.305,0.35-1.212,0.703-1.653,0.85c-0.555,0.184-1.777,0.14-2.307,0.388c-1.547,0.726-5.178,4.457-5.178,4.457
	s0.09-1.644,0.251-2.164c0.374-1.206,1.601-3.459,2.36-4.468c0.492-0.654,1.765-1.708,2.359-2.273
	c0.591-0.561,1.824-1.633,2.378-2.23C25.736,30.274,27.945,27.401,27.945,27.401z"/>
<path fill="#4EB649" d="M17.186,0c0,0-0.102,0.307-0.109,0.427c-0.007,0.116,0.047,0.463,0.047,0.463L16.67,0.411L16.124,0H17.186z"
	/>
<path fill="#066034" d="M0,49.161c0,0,0.35,0.289,0.467,0.391C0.588,49.657,0.936,50,0.936,50H0V49.161z"/>
</svg>
