<?xml version="1.0" encoding="utf-8"?>
<!-- Generator: Adobe Illustrator 17.0.0, SVG Export Plug-In . SVG Version: 6.00 Build 0)  -->
<!DOCTYPE svg PUBLIC "-//W3C//DTD SVG 1.1//EN" "http://www.w3.org/Graphics/SVG/1.1/DTD/svg11.dtd">
<svg version="1.1" id="Layer_1" xmlns="http://www.w3.org/2000/svg" xmlns:xlink="http://www.w3.org/1999/xlink" x="0px" y="0px"
	 width="50px" height="50px" viewBox="0 0 50 50" enable-background="new 0 0 50 50" xml:space="preserve">
<polygon fill="#875C5B" points="23.863,12.978 15.497,16.882 17.964,32.632 24.049,35.845 34.648,26.295 32.5,17.166 "/>
<g>
	<polygon fill="#875C5B" points="22.849,33.81 24.409,32.365 33.772,25.488 31.936,26.836 32.038,23.754 31.055,18.264 
		28.744,16.414 27.571,14.951 27.571,14.951 23.863,12.978 25.164,13.671 24.005,14.93 19.439,17.397 18.341,21.558 17.012,24.159 
		16.658,25.109 15.497,16.882 17.728,32.684 22.155,32.828 	"/>
	<polygon fill="#473234" points="33.822,22.412 33.772,25.488 24.409,32.365 22.849,33.81 22.155,32.828 17.728,32.684 
		24.049,35.845 34.831,26.364 	"/>
	<polygon fill="#BA8B80" points="17.012,24.159 18.341,21.558 19.439,17.397 24.005,14.93 25.164,13.671 23.863,12.978 
		15.497,16.882 16.658,25.109 	"/>
	<polygon fill="#5E484F" points="28.744,16.414 31.055,18.264 32.038,23.754 31.936,26.836 33.772,25.488 33.822,22.412 
		32.5,17.166 27.571,14.951 27.571,14.951 	"/>
</g>
</svg>
