<?xml version="1.0" encoding="utf-8"?>
<!-- Generator: Adobe Illustrator 17.0.0, SVG Export Plug-In . SVG Version: 6.00 Build 0)  -->
<!DOCTYPE svg PUBLIC "-//W3C//DTD SVG 1.1//EN" "http://www.w3.org/Graphics/SVG/1.1/DTD/svg11.dtd">
<svg version="1.1" id="Layer_1" xmlns="http://www.w3.org/2000/svg" xmlns:xlink="http://www.w3.org/1999/xlink" x="0px" y="0px"
	 width="50px" height="50px" viewBox="0 0 50 50" enable-background="new 0 0 50 50" xml:space="preserve">
<g>
	<polygon fill="#473234" points="30.017,-0.028 25.542,5.915 18.436,5.171 10.341,9.009 5.955,15.819 5.056,21.266 6.19,23.844 
		5.056,27.704 0,38.022 3.707,40.952 12.071,41.584 16.862,49.247 27.094,49.99 30.692,48.504 35.414,49.99 42.498,46.895 
		43.735,47.514 48.457,42.314 49.919,34.638 45.084,27.209 40.474,24.733 39.35,15.324 38.115,14.231 37.139,10.669 37.326,7.895 
		30.917,-0.028 	"/>
	<g>
		<polygon fill="#5E484F" points="23.158,35.504 24.395,40.952 27.094,46.028 30.017,46.895 31.816,35.876 27.656,32.595 		"/>
		<polygon fill="#5E484F" points="32.892,26.975 32.892,26.975 32.976,26.279 32.775,26.997 		"/>
		<polygon fill="#F9B49C" points="30.692,6.162 30.017,10.867 34.121,15.324 35.302,15.324 37.326,10.619 37.326,7.895 
			30.917,-0.028 30.017,-0.028 30.017,4.305 		"/>
		<path fill="#7F4F56" d="M34.121,15.324l-4.104-4.457l-1.012,1.486l4.082,13l0,0l2.439,3.219l4.554,10.4l1.743-1.238V25.352
			l-1.349-0.619l-1.124-9.409l-1.012-1.238l-1.012-3.467l-2.024,4.705H34.121z M37.888,15.324l-0.562,8.79l-1.911,3.095
			l-0.562-9.905l0.562-1.362L37.888,15.324z"/>
		<polygon fill="#85625E" points="35.414,27.209 37.326,24.114 37.888,15.324 35.414,15.943 34.852,17.305 		"/>
		<polygon fill="#BA8B80" points="12.732,15.324 14.388,15.324 18.436,19.162 21.922,19.162 23.496,21.266 26.307,28.2 
			32.775,26.997 32.976,26.279 33.088,25.352 29.005,12.352 30.017,10.867 30.692,6.162 30.017,4.305 30.017,-0.028 25.407,5.295 
			21.922,5.233 21.225,5.781 18.394,5.781 16.862,7.091 17.348,9.611 17.761,13.091 16.131,11.908 14.163,9.009 13.611,9.866 
			12.364,10.081 10.341,9.009 12.364,15.324 		"/>
		<polygon fill="#875C5B" points="12.364,15.324 10.341,9.009 5.955,15.819 5.056,21.266 5.955,24.238 7.754,19.162 		"/>
		<polygon fill="#9C6460" points="12.364,28.2 12.59,29.987 16.075,34.638 17.649,34.638 16.862,37.114 17.761,46.028 
			23.608,46.895 24.395,40.952 23.158,35.504 20.414,32.582 26.307,28.2 23.496,21.266 25.423,26.021 22.592,21.266 19.371,19.97 
			16.862,19.111 15.063,16.624 13.415,16.624 10.341,19.111 8.71,19.111 5.955,24.238 8.71,29.685 		"/>
		<polygon fill="#3A292C" points="27.094,46.028 24.395,40.952 23.608,46.895 17.761,46.028 16.862,49.247 17.874,49.247 
			27.094,49.99 30.692,48.504 30.017,46.895 		"/>
		<polygon fill="#4D3736" points="16.862,37.114 17.649,34.638 16.075,34.638 12.59,29.987 14.163,42.438 14.163,43.057 
			14.163,45.471 16.862,49.247 17.761,46.028 		"/>
		<polygon fill="#473234" points="14.163,42.438 12.59,29.987 12.364,28.2 8.71,29.685 3.707,40.952 11.69,41.819 14.163,45.471 
			14.163,43.057 		"/>
		<polygon fill="#4D3736" points="5.955,24.238 5.056,27.704 0,38.022 3.707,40.952 8.71,29.685 		"/>
		<polygon fill="#473234" points="32.775,26.997 26.307,28.2 20.414,32.582 23.158,35.504 27.656,32.595 31.816,35.876 
			32.892,26.975 32.892,26.975 		"/>
		<polygon fill="#473234" points="45.084,27.209 41.823,25.352 41.823,37.733 42.498,46.895 43.735,47.514 48.457,42.314 
			49.919,34.638 		"/>
		<polygon fill="#563C3C" points="40.08,38.971 35.527,28.571 33.088,25.352 33.088,25.352 32.976,26.279 32.892,26.975 
			31.816,35.876 30.017,46.895 30.692,48.504 35.414,49.99 42.498,46.895 41.823,37.733 		"/>
		<polygon fill="#E0B0A3" points="13.611,9.866 14.163,9.009 16.131,11.908 17.761,13.091 17.348,9.611 16.862,7.091 18.394,5.781 
			21.225,5.781 21.922,5.233 21.922,5.233 21.426,5.225 18.138,5.061 10.341,9.009 12.364,10.081 		"/>
		<polygon fill="#E0B0A3" points="10.341,19.111 13.415,16.624 15.063,16.624 16.862,19.111 19.371,19.97 22.592,21.266 
			25.423,26.021 23.496,21.266 21.922,19.162 18.436,19.162 14.388,15.324 12.732,15.324 12.364,15.324 7.754,19.162 5.955,24.238 
			8.71,19.111 		"/>
	</g>
</g>
</svg>
