<?xml version="1.0" encoding="utf-8"?>
<!-- Generator: Adobe Illustrator 17.0.0, SVG Export Plug-In . SVG Version: 6.00 Build 0)  -->
<!DOCTYPE svg PUBLIC "-//W3C//DTD SVG 1.1//EN" "http://www.w3.org/Graphics/SVG/1.1/DTD/svg11.dtd">
<svg version="1.1" id="Layer_1" xmlns="http://www.w3.org/2000/svg" xmlns:xlink="http://www.w3.org/1999/xlink" x="0px" y="0px"
	 width="24px" height="24px" viewBox="0 0 24 24" enable-background="new 0 0 24 24" xml:space="preserve">
<g>
	<path fill="#FDFDFE" d="M14.439,16.738H9.366c-1.478,0-2.676,1.198-2.676,2.677v2.869c1.624,0.638,3.384,0.998,5.224,0.992
		c1.836-0.006,3.587-0.371,5.202-1.011v-2.85C17.115,17.936,15.917,16.738,14.439,16.738z"/>
	<path fill="#FDFDFE" d="M21.054,9.47c0-0.821-1.153-2.037-2.078-2.037h-0.118C18.158,5.969,16.203,4.4,14.57,4.4h-2.333V3.148
		c0.746-0.128,1.317-0.768,1.325-1.552C13.572,0.722,12.853,0,11.973,0c-0.874,0-1.582,0.695-1.593,1.563
		c-0.01,0.815,0.599,1.489,1.384,1.591V4.4H9.618c-1.664,0-3.822,1.628-4.543,3.115c-0.912,0.087-2.076,1.231-2.076,2.02
		l0.018,1.711c0,0.821,1.12,2.157,2.168,2.138H5.39c0.843,1.379,2.574,2.749,4.228,2.722h4.951c1.791-0.027,3.41-1.408,4.157-2.788
		h0.249c1.12-0.019,2.096-1.317,2.096-2.138L21.054,9.47z M9.455,10.641c-0.492-0.003-0.889-0.411-0.883-0.905
		c0.006-0.488,0.404-0.878,0.894-0.878c0.494,0,0.897,0.406,0.892,0.896C10.353,10.25,9.95,10.645,9.455,10.641z M13.479,12.022
		c-0.751,0.761-2.063,0.774-2.848,0.027c-0.363-0.298-0.188-0.746,0.128-0.833c0.179-0.049,0.329,0.002,0.466,0.117
		c0.549,0.46,1.08,0.461,1.629,0.004c0.206-0.171,0.484-0.164,0.655,0.017C13.689,11.542,13.676,11.822,13.479,12.022z
		 M13.605,9.729c0.006-0.488,0.404-0.878,0.894-0.878c0.494,0,0.897,0.406,0.892,0.896c-0.006,0.494-0.408,0.89-0.903,0.886
		C13.997,10.631,13.599,10.223,13.605,9.729z"/>
</g>
</svg>
