<?xml version="1.0" encoding="utf-8"?>
<!-- Generator: Adobe Illustrator 17.0.0, SVG Export Plug-In . SVG Version: 6.00 Build 0)  -->
<!DOCTYPE svg PUBLIC "-//W3C//DTD SVG 1.1//EN" "http://www.w3.org/Graphics/SVG/1.1/DTD/svg11.dtd">
<svg version="1.1" id="Layer_1" xmlns="http://www.w3.org/2000/svg" xmlns:xlink="http://www.w3.org/1999/xlink" x="0px" y="0px"
	 width="24px" height="24px" viewBox="0 0 24 24" enable-background="new 0 0 24 24" xml:space="preserve">
<path fill="currentColor" d="M21.189,18.007c-0.405,1.794-0.786,3.48-1.183,5.243c-1.973-0.493-3.874-0.968-5.886-1.47
	c0.877-0.828,1.488-1.742,1.38-2.897c-0.066-0.698-0.32-1.453-0.7-2.027c-0.844-1.274-2.433-1.605-3.753-0.931
	c-1.533,0.783-1.983,2.159-1.495,4.703c-1.884-0.474-3.735-0.939-5.722-1.438c0.406-1.856,0.801-3.667,1.225-5.603
	c-1.073,0.403-2.059,0.641-2.937,0.006c-0.51-0.369-1.004-0.893-1.278-1.468C0.229,10.842,0.717,9.202,1.81,8.41
	c1.306-0.946,2.647-0.693,4.22,0.859c0.406-1.753,0.8-3.455,1.216-5.248c1.949,0.48,3.826,0.943,5.869,1.446
	c-0.44-1.208-0.571-2.325,0.134-3.282c0.364-0.494,0.875-0.947,1.412-1.204c1.139-0.547,2.509-0.078,3.26,0.976
	c0.934,1.311,0.762,2.63-0.637,4.56c2.05,0.523,4.065,1.038,6.143,1.568c-0.368,1.633-0.717,3.183-1.074,4.77
	c-1.821-1.471-3.256-1.612-4.547-0.498c-1.111,0.959-1.471,2.635-0.86,4.011C17.638,17.927,19.019,18.494,21.189,18.007z"/>
</svg>
