<?xml version="1.0" encoding="utf-8"?>
<!-- Generator: Adobe Illustrator 17.0.0, SVG Export Plug-In . SVG Version: 6.00 Build 0)  -->
<!DOCTYPE svg PUBLIC "-//W3C//DTD SVG 1.1//EN" "http://www.w3.org/Graphics/SVG/1.1/DTD/svg11.dtd">
<svg version="1.1" id="Layer_1" xmlns="http://www.w3.org/2000/svg" xmlns:xlink="http://www.w3.org/1999/xlink" x="0px" y="0px"
	 width="24px" height="24px" viewBox="0 0 24 24" enable-background="new 0 0 24 24" xml:space="preserve">
<path fill="currentColor" d="M22.768,7.773c-0.417-0.485-1.046-0.865-1.654-1.091c-1.046-0.39-1.993,0.091-2.989,0.751
	c-0.034-1.975-0.066-3.821-0.099-5.713c-2.143,0.022-4.139,0.043-6.172,0.065c1.108,2.329,0.98,3.77-0.392,4.914
	c-1.182,0.984-2.88,1.068-4.045,0.054c-0.525-0.457-0.965-1.12-1.199-1.777C5.831,3.889,6.234,2.852,6.928,1.832
	c-2.169,0.026-4.219,0.05-6.346,0.075c0.018,1.8,0.036,3.522,0.054,5.355c2.093-1.019,3.636-0.824,4.716,0.504
	c0.952,1.171,0.989,2.878,0.088,4.085c-1.047,1.402-2.542,1.63-4.75,0.674c0.017,1.621,0.034,3.204,0.052,4.872
	c2.243-0.016,4.419-0.031,6.632-0.046c-0.962,2.215-0.82,3.53,0.446,4.558c1.018,0.827,2.525,0.932,3.554,0.115
	c0.485-0.385,0.896-0.95,1.148-1.519c0.488-1.102,0.087-2.146-0.652-3.199c2.201-0.033,4.223-0.063,6.323-0.094
	c-0.008-1.835-0.015-3.576-0.022-5.369c1.974,1.098,3.4,1.002,4.503-0.242C23.597,10.559,23.699,8.855,22.768,7.773z M15.619,13.092
	c-0.46,0.031-0.923,0.005-1.47,0.005c0,0.478,0.008,0.878-0.002,1.277c-0.021,0.914-0.577,1.513-1.397,1.518
	c-0.842,0.005-1.421-0.616-1.437-1.547c-0.007-0.383-0.001-0.767-0.001-1.242c-0.497,0-0.9,0.009-1.303-0.002
	c-0.861-0.023-1.464-0.588-1.485-1.377c-0.022-0.799,0.61-1.426,1.479-1.454c0.403-0.013,0.808-0.002,1.309-0.002
	c0-0.438-0.006-0.835,0.001-1.232c0.016-0.924,0.61-1.564,1.437-1.557c0.807,0.007,1.377,0.626,1.397,1.529
	c0.009,0.384,0.001,0.768,0.001,1.26c0.473,0,0.909-0.012,1.344,0.003c0.72,0.024,1.278,0.471,1.419,1.114
	C17.098,12.232,16.503,13.034,15.619,13.092z"/>
</svg>
