<?xml version="1.0" encoding="utf-8"?>
<!-- Generator: Adobe Illustrator 17.0.0, SVG Export Plug-In . SVG Version: 6.00 Build 0)  -->
<!DOCTYPE svg PUBLIC "-//W3C//DTD SVG 1.1//EN" "http://www.w3.org/Graphics/SVG/1.1/DTD/svg11.dtd">
<svg version="1.1" id="Layer_1" xmlns="http://www.w3.org/2000/svg" xmlns:xlink="http://www.w3.org/1999/xlink" x="0px" y="0px"
	 width="24px" height="24px" viewBox="0 0 24 24" enable-background="new 0 0 24 24" xml:space="preserve">
<g>
	<path fill="#FFFFFF" d="M12.021,0.281c-6.547,0-11.855,5.22-11.855,11.66c0,2.813,1.013,5.394,2.7,7.408l-1.49,3.34
		c0,0-0.358,0.666-0.041,0.912c0.346,0.268,0.854,0,0.854,0l4.07-1.468C7.965,23.067,9.93,23.6,12.021,23.6
		c6.547,0,11.855-5.22,11.855-11.66S18.569,0.281,12.021,0.281z M5.274,14.765c-1.41,0-2.553-1.124-2.553-2.511
		c0-1.387,1.143-2.511,2.553-2.511s2.553,1.124,2.553,2.511C7.827,13.641,6.684,14.765,5.274,14.765z M12.02,14.765
		c-1.41,0-2.553-1.124-2.553-2.511c0-1.387,1.143-2.511,2.553-2.511s2.553,1.124,2.553,2.511
		C14.574,13.641,13.431,14.765,12.02,14.765z M18.769,14.596c-1.41,0-2.553-1.124-2.553-2.511c0-1.387,1.143-2.511,2.553-2.511
		c1.41,0,2.553,1.124,2.553,2.511C21.322,13.472,20.179,14.596,18.769,14.596z"/>
</g>
</svg>
