<?xml version="1.0" encoding="utf-8"?>
<!-- Generator: Adobe Illustrator 17.0.0, SVG Export Plug-In . SVG Version: 6.00 Build 0)  -->
<!DOCTYPE svg PUBLIC "-//W3C//DTD SVG 1.1//EN" "http://www.w3.org/Graphics/SVG/1.1/DTD/svg11.dtd">
<svg version="1.1" id="Layer_1" xmlns="http://www.w3.org/2000/svg" xmlns:xlink="http://www.w3.org/1999/xlink" x="0px" y="0px"
	 width="24px" height="24px" viewBox="0 0 24 24" enable-background="new 0 0 24 24" xml:space="preserve">
<path fill="currentColor" d="M20.621,14.477c0-0.522,0-1.044,0-1.565c0-1.127,0-2.253-0.001-3.38c0-0.05-0.001-0.103-0.018-0.149
	c-0.045-0.118-0.143-0.151-0.262-0.151c-1.808,0.001-3.617,0.001-5.425,0.001c-1.791,0-3.581,0-5.372,0c-0.481,0-0.962,0-1.444,0
	C8.098,9.228,8.097,9.225,8.096,9.221C8.118,9.215,8.139,9.208,8.16,9.204c0.724-0.155,1.448-0.31,2.172-0.464
	c0.611-0.13,1.221-0.259,1.832-0.389c0.774-0.164,1.548-0.327,2.321-0.491c0.596-0.127,1.191-0.254,1.787-0.382
	c0.44-0.094,0.879-0.19,1.319-0.284c0.831-0.176,1.662-0.35,2.492-0.526c0.158-0.034,0.239-0.158,0.205-0.315
	c-0.132-0.623-0.264-1.246-0.398-1.869c-0.045-0.208-0.149-0.272-0.357-0.228c-0.408,0.087-0.816,0.173-1.224,0.259
	c-0.646,0.137-1.291,0.273-1.937,0.41c-0.594,0.126-1.187,0.253-1.78,0.38c-0.511,0.109-1.023,0.219-1.534,0.327
	c-0.754,0.16-1.509,0.318-2.263,0.478c-0.925,0.196-1.85,0.393-2.775,0.589C7.093,6.896,6.164,7.093,5.234,7.291
	C5.071,7.326,4.994,7.434,5.016,7.6c0.007,0.052,0.021,0.104,0.032,0.156c0.086,0.4,0.175,0.8,0.259,1.201
	C5.35,9.161,5.415,9.368,5.416,9.574c0.007,2.807,0.005,5.613,0.005,8.42c0,0.294-0.002,0.588,0.001,0.882
	c0.002,0.241,0.107,0.434,0.294,0.582c0.156,0.124,0.341,0.154,0.536,0.154c1.608-0.001,3.217-0.001,4.825-0.001
	c2.888,0,5.776,0,8.663,0c0.035,0,0.071,0,0.106,0c0.477,0.006,0.781-0.378,0.778-0.774C20.616,17.385,20.621,15.931,20.621,14.477z
	 M17.496,5.254c0.15-0.032,0.301-0.065,0.452-0.093c0.03-0.005,0.071,0.002,0.095,0.02c0.393,0.29,0.784,0.583,1.176,0.876
	c0.02,0.015,0.037,0.034,0.067,0.063c-0.12,0.025-0.224,0.045-0.326,0.067c-0.345,0.073-0.69,0.147-1.035,0.219
	c-0.022,0.005-0.053-0.003-0.072-0.016c-0.195-0.142-0.388-0.287-0.581-0.431c-0.203-0.152-0.406-0.304-0.61-0.456
	c-0.02-0.015-0.038-0.03-0.069-0.055C16.903,5.38,17.2,5.317,17.496,5.254z M14.277,5.951c0.266-0.056,0.532-0.115,0.799-0.169
	C15.1,5.777,15.134,5.785,15.154,5.8c0.362,0.269,0.723,0.54,1.085,0.811c0.053,0.04,0.107,0.078,0.176,0.128
	c-0.085,0.019-0.153,0.036-0.222,0.05c-0.384,0.081-0.769,0.162-1.153,0.241c-0.021,0.004-0.05-0.002-0.067-0.014
	c-0.297-0.221-0.593-0.444-0.889-0.666c-0.111-0.083-0.223-0.166-0.335-0.249c-0.01-0.007-0.019-0.014-0.042-0.03
	C13.908,6.028,14.093,5.99,14.277,5.951z M11.034,6.578c0.266-0.056,0.532-0.115,0.799-0.169c0.024-0.005,0.059,0.003,0.079,0.018
	c0.362,0.269,0.723,0.54,1.085,0.811c0.053,0.04,0.107,0.078,0.176,0.128c-0.085,0.019-0.153,0.036-0.222,0.05
	c-0.384,0.081-0.769,0.162-1.153,0.241c-0.021,0.004-0.05-0.002-0.067-0.014c-0.297-0.221-0.593-0.444-0.889-0.666
	c-0.111-0.083-0.224-0.166-0.335-0.249c-0.01-0.007-0.02-0.014-0.042-0.03C10.666,6.655,10.85,6.617,11.034,6.578z M17.447,10.872
	c0.179-0.205,0.358-0.411,0.537-0.616c0.082-0.094,0.165-0.187,0.249-0.279c0.014-0.015,0.038-0.028,0.057-0.028
	c0.454-0.001,0.907-0.001,1.361,0c0.006,0,0.012,0.003,0.028,0.007c-0.015,0.022-0.026,0.043-0.041,0.06
	c-0.216,0.247-0.432,0.495-0.649,0.742c-0.111,0.127-0.221,0.254-0.333,0.379c-0.014,0.016-0.041,0.03-0.062,0.03
	c-0.456,0.002-0.911,0.001-1.367,0.001c-0.008,0-0.015-0.001-0.036-0.003C17.282,11.061,17.365,10.966,17.447,10.872z
	 M14.063,10.875c0.229-0.263,0.459-0.526,0.689-0.789c0.034-0.039,0.068-0.079,0.105-0.115c0.013-0.013,0.035-0.023,0.053-0.023
	c0.458-0.001,0.915-0.001,1.373,0c0.006,0,0.011,0.003,0.029,0.007c-0.075,0.087-0.147,0.168-0.218,0.25
	c-0.183,0.21-0.365,0.42-0.549,0.63c-0.09,0.103-0.18,0.207-0.274,0.307c-0.016,0.017-0.051,0.025-0.077,0.025
	c-0.387,0.002-0.774,0.001-1.161,0.001c-0.069,0-0.137,0-0.225,0C13.9,11.062,13.981,10.968,14.063,10.875z M10.82,10.875
	c0.23-0.263,0.459-0.526,0.689-0.789c0.034-0.039,0.068-0.079,0.105-0.115c0.013-0.013,0.035-0.023,0.053-0.023
	c0.458-0.001,0.915-0.001,1.373,0c0.006,0,0.011,0.003,0.029,0.007c-0.075,0.087-0.147,0.168-0.218,0.25
	c-0.183,0.21-0.366,0.42-0.549,0.63c-0.09,0.103-0.18,0.207-0.274,0.307c-0.016,0.017-0.05,0.025-0.077,0.025
	c-0.387,0.002-0.774,0.001-1.161,0.001c-0.069,0-0.137,0-0.225,0C10.658,11.062,10.739,10.968,10.82,10.875z M7.457,7.476
	c0.354-0.075,0.708-0.15,1.062-0.224c0.025-0.005,0.06-0.002,0.079,0.012c0.262,0.192,0.521,0.387,0.781,0.581
	C9.522,7.952,9.666,8.06,9.809,8.167C9.823,8.178,9.836,8.19,9.859,8.21c-0.13,0.027-0.25,0.052-0.369,0.077
	c-0.333,0.07-0.667,0.141-1.001,0.21c-0.021,0.004-0.051,0-0.067-0.013C8.008,8.177,7.595,7.868,7.182,7.559
	c-0.005-0.003-0.008-0.009-0.02-0.021C7.264,7.516,7.36,7.496,7.457,7.476z M7.264,11.044c0.307-0.35,0.615-0.7,0.922-1.051
	C8.214,9.96,8.243,9.947,8.287,9.947c0.435,0.001,0.871,0.001,1.306,0.001c0.018,0,0.037,0,0.074,0
	c-0.057,0.067-0.104,0.122-0.151,0.177c-0.293,0.335-0.586,0.67-0.88,1.005c-0.016,0.018-0.043,0.037-0.065,0.038
	c-0.464,0.002-0.928,0.002-1.407,0.002C7.2,11.121,7.231,11.082,7.264,11.044z M19.458,13.483c-0.897,0-10.206,0.002-12.756,0
	c-0.171,0-0.255-0.056-0.286-0.196c-0.007-0.032-0.005-1.03-0.005-1.072c4.443,0,8.875,0,13.313,0c0.001,0.028,0,0,0.004,0.996
	C19.729,13.39,19.637,13.483,19.458,13.483z"/>
</svg>
