<?xml version="1.0" encoding="utf-8"?>
<!-- Generator: Adobe Illustrator 17.0.0, SVG Export Plug-In . SVG Version: 6.00 Build 0)  -->
<!DOCTYPE svg PUBLIC "-//W3C//DTD SVG 1.1//EN" "http://www.w3.org/Graphics/SVG/1.1/DTD/svg11.dtd">
<svg version="1.1" id="Layer_1" xmlns="http://www.w3.org/2000/svg" xmlns:xlink="http://www.w3.org/1999/xlink" x="0px" y="0px"
	 width="24px" height="24px" viewBox="0 0 24 24" enable-background="new 0 0 24 24" xml:space="preserve">
<path fill="currentColor" d="M22.151,15.19c0-0.691,0-1.382,0-2.073c0-1.492,0-2.984-0.001-4.476c0-0.066-0.001-0.137-0.024-0.197
	c-0.059-0.157-0.189-0.2-0.347-0.2c-2.395,0.001-4.789,0.001-7.184,0.001c-2.371,0-4.742,0-7.114,0c-0.637,0-1.274,0-1.912,0
	C5.568,8.24,5.567,8.235,5.566,8.23C5.594,8.222,5.622,8.213,5.65,8.207c0.959-0.205,1.918-0.41,2.877-0.614
	c0.809-0.172,1.617-0.344,2.426-0.515c1.025-0.217,2.05-0.433,3.074-0.65c0.789-0.168,1.578-0.337,2.366-0.506
	c0.583-0.125,1.164-0.252,1.747-0.376c1.1-0.233,2.2-0.464,3.3-0.697c0.209-0.044,0.316-0.209,0.272-0.417
	c-0.175-0.825-0.35-1.65-0.527-2.474c-0.059-0.275-0.198-0.36-0.473-0.302c-0.54,0.115-1.081,0.229-1.621,0.343
	c-0.855,0.181-1.71,0.361-2.564,0.543c-0.786,0.167-1.571,0.335-2.357,0.503c-0.677,0.145-1.354,0.29-2.032,0.433
	c-0.999,0.211-1.998,0.421-2.996,0.632c-1.225,0.259-2.45,0.52-3.674,0.78C4.237,5.151,3.007,5.412,1.776,5.674
	C1.559,5.72,1.457,5.863,1.487,6.083c0.01,0.069,0.027,0.138,0.042,0.206c0.114,0.53,0.232,1.059,0.343,1.59
	C1.929,8.15,2.015,8.425,2.016,8.698c0.01,3.717,0.007,7.433,0.007,11.15c0,0.389-0.003,0.778,0.001,1.167
	c0.003,0.319,0.141,0.575,0.389,0.771c0.207,0.164,0.451,0.204,0.71,0.204c2.13-0.002,4.259-0.001,6.389-0.001
	c3.824,0,7.648,0,11.472,0c0.047,0,0.094,0,0.141,0c0.631,0.008,1.034-0.501,1.031-1.025C22.144,19.04,22.151,17.115,22.151,15.19z
	 M18.013,2.977c0.199-0.042,0.398-0.087,0.598-0.123c0.04-0.007,0.094,0.003,0.126,0.027c0.521,0.384,1.039,0.772,1.557,1.159
	c0.027,0.02,0.049,0.045,0.089,0.083c-0.159,0.033-0.296,0.06-0.432,0.088c-0.457,0.097-0.914,0.195-1.371,0.289
	c-0.029,0.006-0.071-0.003-0.095-0.021c-0.258-0.188-0.514-0.38-0.77-0.571c-0.269-0.201-0.538-0.402-0.807-0.604
	c-0.026-0.019-0.05-0.04-0.091-0.073C17.227,3.144,17.62,3.06,18.013,2.977z M13.749,3.9c0.352-0.075,0.705-0.152,1.058-0.224
	c0.032-0.007,0.078,0.004,0.104,0.024c0.48,0.356,0.958,0.715,1.436,1.074c0.07,0.053,0.142,0.103,0.232,0.17
	c-0.112,0.025-0.203,0.047-0.294,0.066c-0.509,0.107-1.018,0.214-1.527,0.319c-0.028,0.006-0.066-0.002-0.089-0.019
	c-0.393-0.293-0.785-0.588-1.177-0.882c-0.147-0.111-0.296-0.22-0.444-0.33c-0.013-0.009-0.026-0.018-0.056-0.04
	C13.262,4.002,13.506,3.952,13.749,3.9z M9.456,4.73c0.353-0.075,0.705-0.152,1.058-0.224C10.546,4.5,10.591,4.51,10.618,4.53
	c0.48,0.356,0.958,0.715,1.436,1.073c0.07,0.053,0.142,0.103,0.233,0.17c-0.112,0.025-0.203,0.047-0.294,0.066
	c-0.509,0.107-1.018,0.214-1.527,0.319c-0.028,0.006-0.066-0.002-0.089-0.019C9.983,5.847,9.591,5.552,9.199,5.258
	c-0.148-0.111-0.296-0.22-0.444-0.33C8.742,4.919,8.729,4.91,8.699,4.888C8.968,4.832,9.212,4.782,9.456,4.73z M17.948,10.415
	c0.237-0.272,0.473-0.544,0.711-0.816c0.109-0.124,0.218-0.248,0.33-0.37c0.018-0.02,0.05-0.037,0.076-0.037
	c0.601-0.002,1.202-0.001,1.802,0c0.008,0,0.016,0.004,0.037,0.009c-0.02,0.029-0.034,0.057-0.054,0.079
	c-0.286,0.328-0.573,0.655-0.859,0.982c-0.147,0.168-0.293,0.336-0.442,0.502c-0.019,0.021-0.054,0.04-0.081,0.04
	c-0.603,0.002-1.207,0.002-1.81,0.001c-0.01,0-0.02-0.002-0.048-0.005C17.73,10.666,17.839,10.541,17.948,10.415z M13.466,10.42
	c0.304-0.348,0.608-0.697,0.912-1.045c0.045-0.052,0.09-0.104,0.139-0.152c0.017-0.017,0.046-0.031,0.07-0.031
	c0.606-0.001,1.212-0.001,1.818,0c0.008,0,0.015,0.003,0.038,0.009c-0.1,0.115-0.194,0.223-0.288,0.331
	c-0.242,0.278-0.484,0.557-0.727,0.834c-0.12,0.137-0.239,0.274-0.363,0.407c-0.022,0.023-0.067,0.033-0.101,0.033
	c-0.513,0.002-1.025,0.001-1.538,0.001c-0.091,0-0.181,0-0.298,0C13.251,10.668,13.358,10.544,13.466,10.42z M9.172,10.42
	c0.304-0.348,0.608-0.697,0.912-1.045c0.045-0.052,0.091-0.104,0.14-0.152c0.017-0.017,0.046-0.031,0.07-0.031
	c0.606-0.001,1.212-0.001,1.818,0c0.007,0,0.015,0.003,0.038,0.009c-0.1,0.115-0.194,0.223-0.288,0.331
	c-0.242,0.278-0.484,0.557-0.727,0.834c-0.12,0.137-0.239,0.274-0.363,0.407c-0.021,0.023-0.067,0.033-0.101,0.033
	c-0.512,0.002-1.025,0.001-1.538,0.001c-0.091,0-0.182,0-0.298,0C8.957,10.668,9.065,10.544,9.172,10.42z M4.719,5.918
	c0.468-0.099,0.937-0.199,1.406-0.296C6.158,5.616,6.204,5.62,6.23,5.639c0.346,0.254,0.69,0.512,1.035,0.769
	c0.19,0.142,0.379,0.284,0.569,0.426c0.019,0.014,0.036,0.03,0.067,0.056C7.727,6.927,7.569,6.96,7.411,6.993
	C6.97,7.086,6.528,7.18,6.086,7.271c-0.028,0.006-0.067,0-0.089-0.017C5.449,6.848,4.901,6.438,4.354,6.029
	C4.348,6.025,4.343,6.018,4.328,6.001C4.464,5.972,4.591,5.945,4.719,5.918z M4.463,10.644C4.87,10.18,5.278,9.717,5.684,9.252
	C5.722,9.208,5.76,9.191,5.817,9.191C6.394,9.193,6.97,9.192,7.547,9.192c0.024,0,0.049,0,0.097,0
	C7.568,9.281,7.506,9.354,7.444,9.426c-0.388,0.444-0.776,0.888-1.166,1.33c-0.021,0.024-0.057,0.05-0.087,0.05
	c-0.615,0.003-1.229,0.002-1.863,0.002C4.379,10.746,4.419,10.694,4.463,10.644z M20.61,13.873c-1.188,0-13.515,0.002-16.892,0
	c-0.227,0-0.338-0.075-0.379-0.259c-0.009-0.042-0.006-1.363-0.006-1.419c5.884,0,11.752,0,17.628,0c0.002,0.037,0,0,0.005,1.319
	C20.969,13.751,20.848,13.873,20.61,13.873z"/>
</svg>
