<?xml version="1.0" encoding="utf-8"?>
<!-- Generator: Adobe Illustrator 17.0.0, SVG Export Plug-In . SVG Version: 6.00 Build 0)  -->
<!DOCTYPE svg PUBLIC "-//W3C//DTD SVG 1.1//EN" "http://www.w3.org/Graphics/SVG/1.1/DTD/svg11.dtd">
<svg version="1.1" xmlns="http://www.w3.org/2000/svg" xmlns:xlink="http://www.w3.org/1999/xlink" x="0px" y="0px" width="24px"
	 height="24px" viewBox="0 0 24 24" enable-background="new 0 0 24 24" xml:space="preserve">
<g id="white">
	<g>
		<path fill="none" d="M17.868,11.969c0-3.342-3.219-6.051-7.191-6.051c-0.515,0-1.017,0.046-1.501,0.133
			c2.761,0.845,4.733,3.073,4.733,5.688c0,2.909-2.439,5.337-5.69,5.918c0.767,0.235,1.594,0.363,2.458,0.363
			C14.649,18.02,17.868,15.31,17.868,11.969z"/>
		<path fill="currentColor" d="M23.921,12.302c0,0-2.42-1.709-4.405-3.275c0.342-2.393,0.832-5,0.832-5s-2.612,0.385-5.044,0.632
			c-1.617-2.117-3.319-4.553-3.319-4.553S10.24,2.498,8.606,4.594c-2.462-0.24-5.041-0.549-5.041-0.549s0.253,2.791,0.458,5.284
			c-1.822,1.469-3.823,2.936-3.823,2.936s2.042,1.4,3.927,2.794c-0.203,2.387-0.58,5.074-0.58,5.074s2.736-0.44,5.197-0.74
			c1.598,1.975,3.353,4.371,3.353,4.371s1.653-2.391,3.176-4.346c2.47,0.311,5.14,0.755,5.14,0.755s-0.522-2.497-0.884-4.81
			C21.562,13.876,23.921,12.302,23.921,12.302z M10.677,18.02c-0.863,0-1.691-0.128-2.458-0.363c3.251-0.581,5.69-3.009,5.69-5.918
			c0-2.615-1.972-4.843-4.733-5.688c0.484-0.087,0.986-0.133,1.501-0.133c3.971,0,7.191,2.709,7.191,6.051
			S14.649,18.02,10.677,18.02z"/>
	</g>
</g>
<g id="colour" display="none">
	<path display="inline" fill="currentColor" d="M11.997,0.119c0,0,3.702,5.3,5.371,7.053c1.467,1.54,6.552,5.13,6.552,5.13
		s-5.321,3.548-6.853,5.021s-4.957,6.429-4.957,6.429s-3.724-5.082-5.257-6.54c-1.507-1.434-6.629-4.947-6.629-4.947
		s4.89-3.583,6.336-5.156C8.188,5.34,11.997,0.119,11.997,0.119z"/>
	<path display="inline" fill="currentColor" d="M3.587,4.053c0,0,5.891,0.708,8.36,0.812c2.169,0.091,8.404-0.829,8.404-0.829
		s-1.154,6.128-1.154,8.212s1.221,7.917,1.221,7.917s-6.369-1.06-8.526-1.049c-2.12,0.011-8.324,1.01-8.324,1.01
		s0.823-5.859,0.69-7.955C4.11,9.813,3.587,4.053,3.587,4.053z"/>
	<g display="inline">
		<path fill="#102026" d="M10.691,5.924c-0.514,0-1.016,0.046-1.499,0.133c2.758,0.844,4.728,3.069,4.728,5.682
			c0,2.906-2.437,5.331-5.684,5.912c0.766,0.235,1.593,0.363,2.455,0.363c3.967,0,7.183-2.706,7.183-6.045
			S14.658,5.924,10.691,5.924z"/>
	</g>
	<path display="inline" fill="none" d="M17.868,11.969c0-3.342-3.219-6.051-7.191-6.051c-0.515,0-1.017,0.046-1.501,0.133
		c2.761,0.845,4.733,3.073,4.733,5.688c0,2.909-2.439,5.337-5.69,5.918c0.767,0.235,1.594,0.363,2.458,0.363
		C14.649,18.02,17.868,15.31,17.868,11.969z"/>
</g>
</svg>
