<?xml version="1.0" encoding="utf-8"?>
<!-- Generator: Adobe Illustrator 17.0.0, SVG Export Plug-In . SVG Version: 6.00 Build 0)  -->
<!DOCTYPE svg PUBLIC "-//W3C//DTD SVG 1.1//EN" "http://www.w3.org/Graphics/SVG/1.1/DTD/svg11.dtd">
<svg version="1.1" id="Layer_1" xmlns="http://www.w3.org/2000/svg" xmlns:xlink="http://www.w3.org/1999/xlink" x="0px" y="0px"
	 width="24px" height="24px" viewBox="0 0 24 24" enable-background="new 0 0 24 24" xml:space="preserve">
<path fill="#FEFEFE" d="M23.7,13.3C23.7,6.9,18.4,1.6,11.9,1.6C5.4,1.6,0.1,6.9,0.1,13.4h0c0,0,0,0,0,0c0,1.8,1.4,3.2,3.2,3.2
	s3.2-1.4,3.2-3.2c0,0,0,0,0,0c0-3,2.5-5.4,5.5-5.4c3,0,5.5,2.4,5.5,5.4c0,0,0,0,0,0c0,1.8,1.4,3.2,3.2,3.2
	C22.3,16.6,23.7,15.1,23.7,13.3C23.7,13.4,23.7,13.3,23.7,13.3z"/>
<path fill="#FDFDFE" d="M11.1,16.4c0.6,0.4,1.4,0.3,1.8-0.3c0.4-0.6,0.3-1.4-0.3-1.9c-0.1-0.1-0.3-0.2-0.5-0.2l-3.6-1.2
	c0,0,0,0-0.1,0c0,0,0,0.1,0,0.1l2.4,3.3l0,0C11,16.2,11,16.3,11.1,16.4z M11.6,15.8c-0.3-0.2-0.3-0.5-0.1-0.8
	c0.2-0.3,0.6-0.3,0.8-0.1c0.3,0.2,0.3,0.5,0.1,0.8C12.2,15.9,11.8,16,11.6,15.8z"/>
<linearGradient id="SVGID_1_" gradientUnits="userSpaceOnUse" x1="-2.274028e-07" y1="12.3759" x2="6.7248" y2="12.3759">
	<stop  offset="0" style="stop-color:#00ADDD"/>
	<stop  offset="1" style="stop-color:#0BAA4B"/>
</linearGradient>
<path fill="url(#SVGID_1_)" d="M0,13.4L0,13.4C0,13.4,0,13.4,0,13.4c0,1.8,1.4,3.3,3.2,3.3s3.2-1.5,3.2-3.2c0,0,0,0,0,0
	c0-0.6,0.1-1.1,0.3-1.7L1.3,8.1C0.5,9.7,0,11.5,0,13.4z"/>
</svg>
