<?xml version="1.0" encoding="utf-8"?>
<!-- Generator: Adobe Illustrator 17.0.0, SVG Export Plug-In . SVG Version: 6.00 Build 0)  -->
<!DOCTYPE svg PUBLIC "-//W3C//DTD SVG 1.1//EN" "http://www.w3.org/Graphics/SVG/1.1/DTD/svg11.dtd">
<svg version="1.1" id="Layer_1" xmlns="http://www.w3.org/2000/svg" xmlns:xlink="http://www.w3.org/1999/xlink" x="0px" y="0px"
	 width="24px" height="24px" viewBox="0 0 24 24" enable-background="new 0 0 24 24" xml:space="preserve">
<path fill="currentColor" d="M7.383,7.153c0.16-1.194,1.352-2.034,2.529-1.782c0.456,0.097,0.84,0.316,1.163,0.655
	c0.035-0.032,0.064-0.058,0.091-0.084c1.019-0.981,2.654-0.76,3.348,0.471c0.142,0.252,0.267,0.538,0.29,0.831
	c0.024,0.311-0.027,0.522-0.031,0.553c-0.069,0.45-0.263,0.84-0.581,1.162c-0.835,0.842-1.674,1.68-2.516,2.516
	c-0.494,0.491-0.7,0.491-1.195,0c-0.799-0.793-1.599-1.584-2.385-2.389C7.891,8.876,7.711,8.63,7.569,8.374
	C7.458,8.174,7.318,7.64,7.383,7.153z M11.079,7.408c-0.239-0.262-0.465-0.518-0.701-0.765c-0.484-0.506-1.239-0.522-1.73-0.042
	C8.157,7.079,8.159,7.84,8.651,8.333c0.238,0.238,0.476,0.476,0.714,0.714c0.569,0.569,1.138,1.139,1.707,1.708
	c0.021-0.014,0.036-0.021,0.047-0.032c0.811-0.811,1.624-1.621,2.432-2.436c0.206-0.207,0.311-0.468,0.323-0.758
	c0.022-0.512-0.271-0.977-0.73-1.174c-0.479-0.205-0.994-0.1-1.362,0.287C11.546,6.889,11.32,7.145,11.079,7.408z"/>
<path fill="currentColor" d="M11.089,7.191c-0.274-0.299-0.532-0.592-0.801-0.875C9.735,5.738,8.872,5.719,8.311,6.268
	c-0.56,0.547-0.558,1.416,0.005,1.979c0.272,0.272,0.544,0.544,0.816,0.816c0.65,0.651,1.301,1.301,1.951,1.952
	c0.023-0.016,0.041-0.024,0.054-0.037c0.927-0.927,1.856-1.853,2.779-2.784c0.235-0.237,0.355-0.534,0.37-0.866
	c0.025-0.585-0.31-1.117-0.835-1.341c-0.547-0.234-1.136-0.114-1.557,0.328C11.624,6.597,11.365,6.89,11.089,7.191z"/>
<path fill="currentColor" d="M18.703,14.065c-0.564-0.439-1.135-0.039-1.677,0.364c-0.644,0.478-1.13,0.937-1.84,1.682
	c-0.186,0.195-0.472,0.382-0.743,0.451c-0.364,0.092-0.756,0.092-1.135,0.089c-0.847-0.007-1.695-0.085-2.517,0.232
	c-0.25,0.096-0.519,0.069-0.614-0.271c-0.093-0.333,0.048-0.56,0.363-0.611c0.706-0.114,1.415-0.21,2.127-0.28
	c0.475-0.047,0.958-0.008,1.433-0.06c0.39-0.043,1.014-0.352,0.995-1.003c-0.011-0.392-0.121-0.737-0.416-0.959
	c-0.012-0.009-0.024-0.02-0.036-0.029c-0.048-0.033-0.101-0.062-0.159-0.088c-0.006-0.003-0.011-0.006-0.016-0.009
	c-0.045-0.02-0.097-0.035-0.148-0.051c-0.036-0.01-0.07-0.024-0.109-0.031c-0.405-0.073-1.064,0.045-1.475,0.077
	c-0.77,0.06-1.475,0.11-2.168-0.24c-1.494-0.757-2.988-0.595-4.428,0.117c-0.5,0.247-1.354-0.007-1.387,0.453
	c-0.14,1.953-0.04,2.231-0.04,4.188c0,0.268,0.369,0.913,1.388,0.905c2.028,0.013,4.056,0.007,6.084,0.005
	c0.293,0,0.591,0.011,0.88-0.026c2.519-0.319,4.374-1.546,5.747-3.408C19.18,15.059,19.096,14.452,18.703,14.065z"/>
</svg>
