<?xml version="1.0" encoding="utf-8"?>
<!-- Generator: Adobe Illustrator 17.0.0, SVG Export Plug-In . SVG Version: 6.00 Build 0)  -->
<!DOCTYPE svg PUBLIC "-//W3C//DTD SVG 1.1//EN" "http://www.w3.org/Graphics/SVG/1.1/DTD/svg11.dtd">
<svg version="1.1" id="Layer_1" xmlns="http://www.w3.org/2000/svg" xmlns:xlink="http://www.w3.org/1999/xlink" x="0px" y="0px"
	 width="24px" height="24px" viewBox="0 0 24 24" enable-background="new 0 0 24 24" xml:space="preserve">
<path fill="currentColor" d="M6.407,5.366c0.213-1.581,1.791-2.693,3.35-2.36c0.603,0.129,1.113,0.418,1.539,0.867
	c0.047-0.043,0.085-0.076,0.121-0.111c1.35-1.299,3.514-1.006,4.433,0.624c0.188,0.333,0.354,0.713,0.384,1.101
	c0.032,0.412-0.035,0.691-0.042,0.732c-0.091,0.596-0.348,1.113-0.77,1.538c-1.106,1.115-2.217,2.225-3.331,3.332
	c-0.655,0.651-0.927,0.65-1.582,0c-1.058-1.05-2.118-2.097-3.159-3.163C7.08,7.648,6.841,7.323,6.653,6.983
	C6.506,6.718,6.321,6.011,6.407,5.366z"/>
<path fill="currentColor" d="M21.396,14.52c-0.747-0.581-1.502-0.051-2.221,0.482c-0.853,0.633-1.497,1.241-2.436,2.227
	c-0.246,0.259-0.625,0.506-0.984,0.597c-0.482,0.122-1.001,0.121-1.503,0.117c-1.122-0.009-2.244-0.112-3.333,0.307
	c-0.331,0.128-0.687,0.091-0.813-0.359c-0.123-0.441,0.064-0.741,0.481-0.809c0.935-0.151,1.874-0.278,2.816-0.371
	c0.629-0.062,1.269-0.011,1.897-0.08c0.516-0.057,1.343-0.467,1.318-1.328c-0.015-0.519-0.16-0.976-0.551-1.27
	c-0.016-0.012-0.031-0.027-0.048-0.038c-0.064-0.043-0.134-0.082-0.21-0.116c-0.007-0.003-0.014-0.008-0.022-0.011
	c-0.06-0.026-0.129-0.046-0.197-0.067c-0.048-0.014-0.093-0.032-0.144-0.041c-0.537-0.096-1.409,0.06-1.954,0.102
	c-1.02,0.079-1.954,0.146-2.871-0.318c-1.979-1.002-3.957-0.787-5.863,0.154c-0.663,0.327-1.793-0.009-1.837,0.6
	c-0.185,2.586-0.052,2.954-0.052,5.545c0,0.355,0.489,1.209,1.838,1.198c2.685,0.018,5.371,0.009,8.056,0.007
	c0.389,0,0.782,0.014,1.165-0.035c3.335-0.423,5.792-2.047,7.61-4.513C22.028,15.835,21.917,15.032,21.396,14.52z"/>
</svg>
