<?xml version="1.0" encoding="utf-8"?>
<!-- Generator: Adobe Illustrator 17.0.0, SVG Export Plug-In . SVG Version: 6.00 Build 0)  -->
<!DOCTYPE svg PUBLIC "-//W3C//DTD SVG 1.1//EN" "http://www.w3.org/Graphics/SVG/1.1/DTD/svg11.dtd">
<svg version="1.1" id="Layer_1" xmlns="http://www.w3.org/2000/svg" xmlns:xlink="http://www.w3.org/1999/xlink" x="0px" y="0px"
	 width="24px" height="24px" viewBox="0 0 24 24" enable-background="new 0 0 24 24" xml:space="preserve">
<path fill="currentColor" d="M17.605,13.274c0.224-1.423,0.436-2.769,0.665-4.22c-1.375,0-2.655,0-3.963,0
	c0-1.14-0.079-2.196,0.021-3.234c0.11-1.139,0.88-1.631,2.382-1.695c0.526-0.023,1.053-0.004,1.636-0.004c0-1.208,0-2.367,0-3.585
	c-1.686-0.222-3.359-0.533-5.047-0.028C11.256,1.12,9.935,2.719,9.758,4.846c-0.058,0.7-0.055,1.405-0.066,2.108
	C9.681,7.622,9.69,8.291,9.69,9.051c-1.253,0-2.416,0-3.619,0c0,1.428,0,2.764,0,4.205c1.184,0,2.341,0,3.545,0
	c0,3.376-0.005,6.763-0.005,10.031c0.76,0.125,1.539,0.193,2.334,0.193s1.574-0.068,2.334-0.193c0-3.303,0.007-6.625,0.007-10.012
	C15.399,13.274,16.473,13.274,17.605,13.274z"/>
</svg>
