<?xml version="1.0" encoding="utf-8"?>
<!-- Generator: Adobe Illustrator 17.0.0, SVG Export Plug-In . SVG Version: 6.00 Build 0)  -->
<!DOCTYPE svg PUBLIC "-//W3C//DTD SVG 1.1//EN" "http://www.w3.org/Graphics/SVG/1.1/DTD/svg11.dtd">
<svg version="1.1" id="Layer_1" xmlns="http://www.w3.org/2000/svg" xmlns:xlink="http://www.w3.org/1999/xlink" x="0px" y="0px"
	 width="24px" height="24px" viewBox="0 0 24 24" enable-background="new 0 0 24 24" xml:space="preserve">
<g>
	<path fill="#FFFFFF" d="M16.558,15.386c0.181-1.149,0.352-2.235,0.536-3.406c-1.11,0-2.142,0-3.198,0
		c0-0.92-0.064-1.773,0.017-2.611c0.089-0.919,0.71-1.316,1.923-1.368c0.424-0.018,0.85-0.003,1.32-0.003c0-0.975,0-1.91,0-2.893
		c-1.361-0.18-2.711-0.43-4.074-0.023c-1.649,0.494-2.715,1.784-2.858,3.501c-0.047,0.565-0.044,1.134-0.053,1.701
		c-0.008,0.539-0.002,1.079-0.002,1.693c-1.012,0-1.95,0-2.921,0c0,1.153,0,2.231,0,3.394c0.956,0,1.89,0,2.861,0
		c0,2.725-0.004,5.458-0.004,8.096c0.613,0.101,1.242,0.156,1.884,0.156c0.642,0,1.27-0.055,1.884-0.156
		c0-2.666,0.005-5.347,0.005-8.081C14.778,15.386,15.645,15.386,16.558,15.386z"/>
	<path fill="#4373B9" d="M19.179,2.8c-2.886-2.312-6.219-2.817-9.723-2.154c-5.06,0.958-9.815,5.996-9.05,12.825
		c0.286,2.548,1.62,4.981,3.473,6.817c0.011,0.011,0.023,0.022,0.035,0.033c1.751,1.721,3.957,2.912,6.192,3.149
		c0-0.001,0-0.002,0-0.002c0-2.638,0.004-5.371,0.004-8.096c-0.972,0-1.906,0-2.861,0c0-1.163,0-2.241,0-3.394
		c0.971,0,1.909,0,2.921,0c0-0.614-0.007-1.153,0.002-1.693c0.009-0.567,0.006-1.137,0.053-1.701
		c0.143-1.717,1.209-3.007,2.858-3.501c1.362-0.408,2.713-0.157,4.074,0.023c0,0.983,0,1.918,0,2.893
		c-0.47,0-0.896-0.015-1.32,0.003c-1.212,0.052-1.834,0.449-1.923,1.368c-0.081,0.838-0.017,1.69-0.017,2.611
		c1.056,0,2.088,0,3.198,0c-0.184,1.171-0.355,2.257-0.536,3.406c-0.914,0-1.78,0-2.68,0c0,2.734-0.005,5.416-0.005,8.081
		c0,0.001,0,0.002,0,0.002c4.566-0.478,9.905-4.927,9.801-11.578C23.615,8.176,22.091,5.133,19.179,2.8z"/>
</g>
</svg>
