<?xml version="1.0" encoding="utf-8"?>
<!-- Generator: Adobe Illustrator 17.0.0, SVG Export Plug-In . SVG Version: 6.00 Build 0)  -->
<!DOCTYPE svg PUBLIC "-//W3C//DTD SVG 1.1//EN" "http://www.w3.org/Graphics/SVG/1.1/DTD/svg11.dtd">
<svg version="1.1" id="Layer_1" xmlns="http://www.w3.org/2000/svg" xmlns:xlink="http://www.w3.org/1999/xlink" x="0px" y="0px"
	 width="24px" height="24px" viewBox="0 0 24 24" enable-background="new 0 0 24 24" xml:space="preserve">
<path fill="#FFFFFF" d="M20.977,0.01L4.204,0c0,0-1.654-0.032-1.688,1.42c-0.021,0.885,1.008,2.49,1.008,2.49l6.026,9.441
	l0.031,7.417c0,0,0.022,2.892,1.512,2.713c1.459-0.176,3.282-1.986,4.12-3.512c0.503-0.915,0.406-2.726,0.406-2.726l0.009-3.882
	l6.026-9.441c0,0,1.029-1.605,1.008-2.49C22.63-0.022,20.977,0.01,20.977,0.01z M16.395,5.015l-3.747,6.156
	c0,0,0.022,5.839,0.023,7.631c0,0.042-0.041,0.119-0.064,0.154c-0.044,0.067-0.142,0.224-0.222,0.233
	c-0.015,0.002-0.05-0.019-0.05-0.034c-0.01-1.077,0.015-7.998,0.015-7.998L8.491,5.011c0,0-0.449-0.7-0.44-1.086
	c0.015-0.633,0.736-0.619,0.736-0.619l7.311,0.004c0,0,0.721-0.014,0.736,0.619C16.843,4.315,16.395,5.015,16.395,5.015z"/>
</svg>
