<?xml version="1.0" encoding="utf-8"?>
<!-- Generator: Adobe Illustrator 17.0.0, SVG Export Plug-In . SVG Version: 6.00 Build 0)  -->
<!DOCTYPE svg PUBLIC "-//W3C//DTD SVG 1.1//EN" "http://www.w3.org/Graphics/SVG/1.1/DTD/svg11.dtd">
<svg version="1.1" id="Layer_1" xmlns="http://www.w3.org/2000/svg" xmlns:xlink="http://www.w3.org/1999/xlink" x="0px" y="0px"
	 width="24px" height="24px" viewBox="0 0 24 24" enable-background="new 0 0 24 24" xml:space="preserve">
<path fill="#FDFDFE" d="M21.417,20.244c-2.571,1.998-5.793,3.195-9.285,3.206c-3.536,0.011-6.81-1.208-9.414-3.252
	c0,0,0.346-1.118,0.507-1.472c3.359-7.405,14.505-7.357,17.71-0.005C21.096,19.087,21.417,20.244,21.417,20.244z"/>
<path fill="#FDFDFE" d="M12.036,11.513C8.86,11.491,6.291,8.86,6.331,5.67C6.37,2.521,8.938-0.001,12.106,0
	c3.19,0.001,5.796,2.62,5.761,5.788C17.831,8.982,15.231,11.535,12.036,11.513z"/>
</svg>
