<?xml version="1.0" encoding="utf-8"?>
<!-- Generator: Adobe Illustrator 17.0.0, SVG Export Plug-In . SVG Version: 6.00 Build 0)  -->
<!DOCTYPE svg PUBLIC "-//W3C//DTD SVG 1.1//EN" "http://www.w3.org/Graphics/SVG/1.1/DTD/svg11.dtd">
<svg version="1.1" id="Layer_1" xmlns="http://www.w3.org/2000/svg" xmlns:xlink="http://www.w3.org/1999/xlink" x="0px" y="0px"
	 width="24px" height="24px" viewBox="0 0 24 24" enable-background="new 0 0 24 24" xml:space="preserve">
<path opacity="0.1" fill="#F8F7F6" d="M20.5,18.6c0,0-2.6,4.2-8.5,4.2S1.2,18,1.2,12S6,1.3,12,1.3c0,0-4.5,6.6-1.9,12.1
	C12.6,18.7,20.5,18.6,20.5,18.6z"/>
<path opacity="0.1" fill="#F8F7F6" d="M17.1,21.3c0,0-1.5,0.9-5.1,1.2C6,22.9,1.2,17.8,1.2,11.9S5,4.1,6.5,2.8c0,0-3.9,7.3-1.2,12.6
	C9,22.8,17.1,21.3,17.1,21.3z"/>
<g>
	<linearGradient id="SVGID_1_" gradientUnits="userSpaceOnUse" x1="-2.522593e-07" y1="12.0444" x2="23.9949" y2="12.0444">
		<stop  offset="0" style="stop-color:#98978C"/>
		<stop  offset="7.887568e-02" style="stop-color:#9F9F98"/>
		<stop  offset="0.2977" style="stop-color:#B1B2B4"/>
		<stop  offset="0.4248" style="stop-color:#B7B9BE"/>
		<stop  offset="0.4558" style="stop-color:#BEC0C5"/>
		<stop  offset="0.5857" style="stop-color:#D8DBDE"/>
		<stop  offset="0.7184" style="stop-color:#EBEEF1"/>
		<stop  offset="0.8548" style="stop-color:#F6F9FB"/>
		<stop  offset="1" style="stop-color:#FAFDFF"/>
	</linearGradient>
	<path fill="url(#SVGID_1_)" d="M12,0.1C5.4,0.1,0,5.4,0,12s5.4,12,12,12c6.6,0,12-5.4,12-12S18.6,0.1,12,0.1z M12,21.3
		c-5.1,0-9.3-4.2-9.3-9.3c0-5.1,4.2-9.3,9.3-9.3c5.1,0,9.3,4.2,9.3,9.3C21.3,17.2,17.1,21.3,12,21.3z"/>
</g>
</svg>
