<?xml version="1.0" encoding="utf-8"?>
<!-- Generator: Adobe Illustrator 17.0.0, SVG Export Plug-In . SVG Version: 6.00 Build 0)  -->
<!DOCTYPE svg PUBLIC "-//W3C//DTD SVG 1.1//EN" "http://www.w3.org/Graphics/SVG/1.1/DTD/svg11.dtd">
<svg version="1.1" id="Layer_1" xmlns="http://www.w3.org/2000/svg" xmlns:xlink="http://www.w3.org/1999/xlink" x="0px" y="0px"
	 width="24px" height="24px" viewBox="0 0 24 24" enable-background="new 0 0 24 24" xml:space="preserve">
<linearGradient id="SVGID_1_" gradientUnits="userSpaceOnUse" x1="-2.6655" y1="23.4358" x2="26.9396" y2="23.4358">
	<stop  offset="0" style="stop-color:#0D172A"/>
	<stop  offset="0.2408" style="stop-color:#0C1B29"/>
	<stop  offset="0.6081" style="stop-color:#0C1F29"/>
	<stop  offset="1" style="stop-color:#0C2029"/>
	<stop  offset="1" style="stop-color:#01343F"/>
	<stop  offset="1" style="stop-color:#0C1C29"/>
</linearGradient>
<path fill="url(#SVGID_1_)" d="M14.278,23.393c-0.216,0.033-0.434,0.063-0.657,0.086C13.849,23.456,14.066,23.427,14.278,23.393z"/>
<linearGradient id="SVGID_2_" gradientUnits="userSpaceOnUse" x1="-2.6655" y1="23.3273" x2="26.9396" y2="23.3273">
	<stop  offset="0" style="stop-color:#0D172A"/>
	<stop  offset="0.2408" style="stop-color:#0C1B29"/>
	<stop  offset="0.6081" style="stop-color:#0C1F29"/>
	<stop  offset="1" style="stop-color:#0C2029"/>
	<stop  offset="1" style="stop-color:#01343F"/>
	<stop  offset="1" style="stop-color:#0C1C29"/>
</linearGradient>
<path fill="url(#SVGID_2_)" d="M14.725,23.313c-0.051,0.01-0.101,0.02-0.152,0.029C14.623,23.332,14.675,23.323,14.725,23.313z"/>
<path fill="currentColor" d="M15.816,22.014c-0.007-1.253-0.001-2.506-0.003-3.759c-0.001-0.677-0.028-1.355-0.329-1.977
	c-0.161-0.332-0.389-0.631-0.584-0.941c0.54-0.1,1.112-0.174,1.667-0.314c1.52-0.382,2.878-1.05,3.808-2.375
	c0.579-0.825,0.884-1.768,1.046-2.755c0.184-1.118,0.246-2.238-0.021-3.355c-0.199-0.829-0.571-1.571-1.125-2.216
	c-0.159-0.185-0.201-0.331-0.118-0.583c0.39-1.188,0.223-2.356-0.219-3.497c-0.027-0.07-0.156-0.131-0.244-0.142
	c-0.503-0.06-0.983,0.068-1.426,0.28c-0.753,0.36-1.484,0.766-2.231,1.139c-0.124,0.062-0.296,0.103-0.425,0.07
	c-1.545-0.396-3.112-0.541-4.697-0.378c-0.734,0.076-1.46,0.233-2.186,0.372c-0.2,0.038-0.359,0.034-0.537-0.084
	C7.265,0.884,6.267,0.417,5.185,0.142c-0.037-0.01-0.074-0.024-0.111-0.03C4.452,0.012,4.335,0.086,4.161,0.686
	C3.851,1.755,3.777,2.825,4.168,3.89c0.062,0.17-0.018,0.25-0.104,0.35C3.324,5.104,2.883,6.098,2.755,7.232
	c-0.115,1.015-0.042,2.019,0.168,3.013c0.178,0.843,0.475,1.644,0.951,2.368c0.668,1.015,1.647,1.624,2.743,2.077
	c0.753,0.311,1.545,0.459,2.346,0.572c0.142,0.02,0.284,0.043,0.457,0.069c-0.138,0.175-0.297,0.315-0.377,0.49
	c-0.185,0.408-0.348,0.827-0.485,1.253c-0.055,0.172-0.113,0.282-0.291,0.342c-0.846,0.285-1.699,0.44-2.563,0.103
	c-0.615-0.24-1.063-0.691-1.393-1.251c-0.361-0.613-0.828-1.109-1.47-1.428c-0.412-0.204-0.838-0.345-1.305-0.234
	c-0.298,0.07-0.343,0.171-0.16,0.413c0.114,0.151,0.246,0.31,0.406,0.402c0.742,0.423,1.162,1.104,1.524,1.836
	c0.059,0.121,0.113,0.245,0.161,0.37c0.416,1.083,1.25,1.62,2.355,1.79c0.862,0.132,1.726,0.142,2.617-0.041
	c0.008,0.104,0.02,0.196,0.021,0.288c0.009,0.771,0.019,1.542,0.023,2.313c0.003,0.614-0.318,0.946-0.824,0.904
	c1.366,0.437,2.864,0.671,4.476,0.671c0.512,0,1.006-0.025,1.484-0.074c0.223-0.023,0.442-0.053,0.657-0.086
	c0.099-0.016,0.197-0.033,0.294-0.051c0.051-0.009,0.102-0.019,0.152-0.029c0.555-0.112,1.084-0.26,1.656-0.438
	C16.033,22.809,15.819,22.504,15.816,22.014z"/>
<path fill="currentColor" d="M14.573,23.342c-0.097,0.018-0.195,0.035-0.294,0.051C14.378,23.378,14.475,23.359,14.573,23.342z"/>
<path fill="currentColor" d="M16.381,22.875c-0.573,0.178-1.102,0.326-1.656,0.438C15.304,23.202,15.858,23.059,16.381,22.875z"/>
</svg>
