<?xml version="1.0" encoding="utf-8"?>
<!-- Generator: Adobe Illustrator 17.0.0, SVG Export Plug-In . SVG Version: 6.00 Build 0)  -->
<!DOCTYPE svg PUBLIC "-//W3C//DTD SVG 1.1//EN" "http://www.w3.org/Graphics/SVG/1.1/DTD/svg11.dtd">
<svg version="1.1" id="Layer_1" xmlns="http://www.w3.org/2000/svg" xmlns:xlink="http://www.w3.org/1999/xlink" x="0px" y="0px"
	 width="24px" height="24px" viewBox="0 0 24 24" enable-background="new 0 0 24 24" xml:space="preserve">
<path fill="currentColor" d="M15.779,19.83c-0.005-0.946-0.001-1.892-0.002-2.838c-0.001-0.511-0.021-1.024-0.249-1.493
	c-0.121-0.25-0.293-0.476-0.441-0.711c0.408-0.075,0.84-0.132,1.259-0.237c1.148-0.289,2.173-0.793,2.876-1.793
	c0.437-0.623,0.667-1.335,0.79-2.08c0.139-0.844,0.186-1.69-0.016-2.533c-0.15-0.626-0.431-1.186-0.85-1.674
	c-0.12-0.139-0.152-0.25-0.089-0.44c0.295-0.897,0.168-1.779-0.165-2.641c-0.02-0.053-0.118-0.099-0.184-0.107
	c-0.38-0.045-0.742,0.052-1.077,0.212c-0.569,0.272-1.121,0.579-1.685,0.861c-0.094,0.047-0.224,0.078-0.321,0.053
	c-1.167-0.299-2.35-0.409-3.547-0.285c-0.554,0.057-1.103,0.176-1.651,0.281c-0.151,0.029-0.271,0.026-0.406-0.064
	C9.321,3.873,8.567,3.52,7.75,3.312C7.721,3.305,7.694,3.294,7.666,3.289C7.197,3.214,7.108,3.27,6.976,3.723
	C6.742,4.53,6.687,5.339,6.982,6.142c0.047,0.128-0.013,0.188-0.078,0.264c-0.56,0.653-0.892,1.403-0.989,2.26
	c-0.087,0.766-0.032,1.525,0.127,2.276c0.135,0.637,0.358,1.241,0.718,1.789c0.505,0.767,1.244,1.226,2.071,1.568
	c0.569,0.235,1.167,0.347,1.772,0.432c0.107,0.015,0.214,0.032,0.345,0.052c-0.104,0.132-0.225,0.238-0.285,0.37
	c-0.14,0.308-0.263,0.625-0.366,0.946c-0.042,0.13-0.085,0.213-0.22,0.258c-0.639,0.215-1.283,0.332-1.936,0.078
	c-0.465-0.181-0.803-0.521-1.052-0.945c-0.273-0.463-0.625-0.838-1.11-1.078c-0.311-0.154-0.633-0.26-0.986-0.177
	c-0.225,0.053-0.259,0.129-0.121,0.312c0.086,0.114,0.186,0.234,0.307,0.304c0.561,0.32,0.878,0.833,1.151,1.387
	c0.045,0.091,0.085,0.185,0.122,0.279c0.314,0.818,0.944,1.224,1.779,1.351c0.651,0.1,1.303,0.107,1.976-0.031
	c0.006,0.078,0.015,0.148,0.016,0.217c0.007,0.582,0.015,1.164,0.017,1.747c0.002,0.464-0.24,0.715-0.622,0.683
	c1.032,0.33,2.163,0.507,3.38,0.507c0.386,0,0.76-0.019,1.121-0.056c0.169-0.017,0.333-0.04,0.496-0.065
	c0.075-0.012,0.149-0.025,0.222-0.039c0.039-0.007,0.077-0.014,0.115-0.022c0.419-0.084,0.818-0.196,1.251-0.33
	C15.942,20.43,15.781,20.2,15.779,19.83z"/>
</svg>
