<?xml version="1.0" encoding="utf-8"?>
<!-- Generator: Adobe Illustrator 17.0.0, SVG Export Plug-In . SVG Version: 6.00 Build 0)  -->
<!DOCTYPE svg PUBLIC "-//W3C//DTD SVG 1.1//EN" "http://www.w3.org/Graphics/SVG/1.1/DTD/svg11.dtd">
<svg version="1.1" id="Layer_1" xmlns="http://www.w3.org/2000/svg" xmlns:xlink="http://www.w3.org/1999/xlink" x="0px" y="0px"
	 width="24px" height="24px" viewBox="0 0 24 24" enable-background="new 0 0 24 24" xml:space="preserve">
<g>
	<path fill="none" d="M12.214,13.714c-0.031-0.003-0.063-0.006-0.094-0.009c-0.012-0.026-0.029-0.052-0.045-0.078
		c0,0.039,0,0.078,0,0.117c1.476,0,2.941,0,4.414,0c-0.129-0.008-0.287-0.01-0.497-0.011C14.732,13.728,13.473,13.72,12.214,13.714z
		"/>
	<path fill="none" d="M11.508,17.44c0.02,0.003,0.041,0.005,0.061,0.007C11.548,17.445,11.528,17.443,11.508,17.44z"/>
	<path fill="none" d="M12.896,17.45c-0.08,0.011-0.161,0.022-0.242,0.028c0.054-0.004,0.115-0.009,0.186-0.015
		C12.859,17.459,12.877,17.454,12.896,17.45z"/>
	<path fill="none" d="M9.866,16.984c0.239,0.108,0.488,0.192,0.742,0.265C10.349,17.172,10.1,17.085,9.866,16.984z"/>
	<path fill="none" d="M15.275,16.462c-0.125,0.093-0.251,0.186-0.379,0.266c0.07-0.039,0.142-0.072,0.21-0.115
		C15.165,16.564,15.218,16.511,15.275,16.462z"/>
	<path fill="none" d="M17.865,5.597c-0.02-0.019-0.035-0.032-0.053-0.049c-0.003,0.061-0.041,0.127-0.112,0.209
		C17.755,5.703,17.81,5.651,17.865,5.597z"/>
	<path fill="none" d="M9.767,16.934c0.028,0.013,0.055,0.03,0.083,0.043C9.82,16.964,9.796,16.947,9.767,16.934z"/>
	<path fill="none" d="M10.744,17.286c0.115,0.03,0.23,0.058,0.347,0.081C10.976,17.343,10.861,17.318,10.744,17.286z"/>
	<path fill="none" d="M12.439,17.492c-0.122,0.005-0.246,0.002-0.369-0.002c0.022,0.001,0.044,0.005,0.067,0.006
		C12.236,17.495,12.281,17.501,12.439,17.492z"/>
	<path fill="none" d="M7.022,13.869c-0.018-0.056-0.04-0.109-0.057-0.166c0.01,0.038,0.018,0.076,0.028,0.114
		C7.003,13.834,7.012,13.852,7.022,13.869z"/>
	<path fill="#FFFFFF" d="M11.887,0.438C5.506,0.439,0.33,5.612,0.326,11.993c-0.004,6.385,5.178,11.569,11.563,11.568
		c6.381-0.001,11.556-5.174,11.561-11.556C23.454,5.621,18.273,0.437,11.887,0.438z M19.78,15.972
		c-0.453,1.058-1.055,2.01-1.94,2.762c-1.039,1.05-2.327,1.631-3.742,1.937c-0.993,0.214-2.308,0.26-3.01,0.144
		c-0.068-0.003-0.038-0.009-0.214-0.03c-1.71-0.179-3.198-0.878-4.501-1.978c-0.914-0.772-1.679-1.674-2.163-2.789
		c-0.555-1.008-0.818-2.093-0.924-3.236c-0.147-1.585,0.162-3.074,0.823-4.503c0.028-0.061,0.071-0.114,0.107-0.171
		C4.791,6.81,5.714,5.794,6.836,4.962c3.11-2.304,7.467-2.307,10.53,0.1c0.31,0.243,0.452,0.358,0.446,0.486
		c0.018,0.017,0.033,0.03,0.053,0.049c-0.056,0.054-0.11,0.106-0.166,0.16c-0.063,0.072-0.147,0.156-0.261,0.267
		c-0.581,0.567-1.169,1.126-1.742,1.7c-0.172,0.173-0.285,0.226-0.505,0.044c-2.578-2.123-6.685-1.114-8.052,2.25
		c-0.045,0.111-0.1,0.219-0.151,0.328c-0.329,1.119-0.319,2.238-0.024,3.357c0.017,0.057,0.039,0.11,0.057,0.166
		c0.311,0.552,0.568,1.147,0.957,1.636c0.511,0.643,1.117,1.108,1.789,1.429c0.029,0.013,0.053,0.03,0.083,0.043
		c0.005,0.002,0.011,0.004,0.017,0.006c0.234,0.101,0.483,0.188,0.742,0.265c0.045,0.013,0.091,0.026,0.136,0.038
		c0.116,0.032,0.232,0.057,0.347,0.081c0.138,0.027,0.275,0.054,0.416,0.073c0.02,0.003,0.041,0.005,0.061,0.007
		c0.165,0.02,0.332,0.034,0.501,0.043c0.124,0.004,0.247,0.006,0.369,0.002c0.055-0.003,0.124-0.007,0.215-0.014
		c0.081-0.007,0.161-0.018,0.242-0.028c0.702-0.147,1.374-0.371,2-0.722c0.128-0.08,0.254-0.173,0.379-0.266
		c0.569-0.497,1.054-1.06,1.348-1.779c0.31-0.758,0.368-0.908-0.134-0.94c-1.473,0-2.939,0-4.414,0c0-0.039,0-0.078,0-0.117
		c-0.024-0.041-0.047-0.082-0.047-0.123c-0.006-0.925-0.006-1.85,0-2.775c0-0.071,0.058-0.141,0.089-0.211
		c0.034-0.006,0.067-0.012,0.101-0.017c1.449-0.006,2.899-0.016,4.348-0.017c1.208-0.001,2.416,0.01,3.624,0.015
		c0.036,0.037,0.071,0.074,0.107,0.11c0.065,0.683,0.2,1.368,0.179,2.048C20.441,13.795,20.233,14.913,19.78,15.972z"/>
	<path fill="#EA4536" d="M6.736,10.098c0.092,0.073,0.169,0.165,0.253,0.248c0.05-0.109,0.105-0.216,0.151-0.328
		c1.367-3.365,5.474-4.373,8.052-2.25c0.221,0.182,0.333,0.129,0.505-0.044c0.573-0.574,1.161-1.134,1.742-1.7
		c0.114-0.111,0.198-0.195,0.261-0.267c0.071-0.082,0.109-0.148,0.112-0.209c0.006-0.128-0.136-0.242-0.446-0.486
		c-3.063-2.407-7.42-2.404-10.53-0.1C5.714,5.794,4.791,6.81,4.215,8.107C5.056,8.77,5.897,9.432,6.736,10.098z"/>
	<path fill="#36A852" d="M15.106,16.613c-0.069,0.043-0.141,0.076-0.21,0.115c-0.625,0.351-1.298,0.576-2,0.722
		c-0.019,0.004-0.037,0.009-0.056,0.013c-0.071,0.006-0.131,0.011-0.186,0.015c-0.091,0.007-0.16,0.011-0.215,0.014
		c-0.158,0.008-0.203,0.003-0.303,0.004c-0.023-0.001-0.044-0.004-0.067-0.006c-0.169-0.009-0.336-0.022-0.501-0.043
		c-0.02-0.003-0.041-0.005-0.061-0.007c-0.141-0.019-0.279-0.045-0.416-0.073c-0.117-0.023-0.233-0.051-0.347-0.081
		c-0.046-0.012-0.091-0.025-0.136-0.038c-0.254-0.073-0.503-0.157-0.742-0.265c-0.005-0.002-0.011-0.004-0.017-0.006
		c-0.028-0.013-0.055-0.03-0.083-0.043c-0.671-0.321-1.277-0.786-1.789-1.429c-0.389-0.489-0.646-1.084-0.957-1.636
		c-0.01-0.017-0.019-0.035-0.029-0.053c-0.928,0.734-1.856,1.467-2.784,2.201c0.483,1.115,1.248,2.017,2.163,2.789
		c1.302,1.099,2.791,1.799,4.501,1.978c0.177,0.02,0.147,0.027,0.214,0.03c0.703,0.117,2.018,0.071,3.01-0.144
		c1.415-0.305,2.703-0.886,3.742-1.937C16.928,18.026,16.017,17.32,15.106,16.613z"/>
	<path fill="#557FC0" d="M20.297,10.609c-0.036-0.037-0.071-0.074-0.107-0.11c-1.208-0.005-2.416-0.016-3.624-0.015
		c-1.449,0.001-2.899,0.011-4.348,0.017c-0.034,0.006-0.067,0.012-0.101,0.017c-0.031,0.07-0.089,0.14-0.089,0.211
		c-0.006,0.925-0.006,1.85,0,2.775c0,0.041,0.022,0.082,0.047,0.123c0.016,0.026,0.032,0.052,0.045,0.078
		c0.031,0.003,0.063,0.006,0.094,0.009c1.259,0.006,2.519,0.014,3.778,0.018c0.211,0.001,0.368,0.003,0.497,0.011
		c0.502,0.032,0.444,0.182,0.134,0.94c-0.294,0.719-0.779,1.281-1.348,1.779c-0.057,0.05-0.11,0.103-0.169,0.151
		c0.911,0.707,1.822,1.414,2.734,2.121c0.885-0.752,1.487-1.704,1.94-2.762c0.453-1.058,0.661-2.177,0.696-3.314
		C20.497,11.977,20.362,11.292,20.297,10.609z"/>
	<path fill="#F7BB17" d="M6.993,13.817c-0.011-0.038-0.018-0.076-0.028-0.114c-0.295-1.119-0.305-2.237,0.024-3.357
		c-0.084-0.083-0.161-0.175-0.253-0.248C5.897,9.432,5.056,8.77,4.215,8.107C4.179,8.164,4.136,8.218,4.108,8.278
		c-0.661,1.43-0.97,2.918-0.823,4.503c0.106,1.143,0.369,2.228,0.924,3.236C5.137,15.284,6.065,14.55,6.993,13.817z"/>
</g>
</svg>
