<?xml version="1.0" encoding="utf-8"?>
<!-- Generator: Adobe Illustrator 17.0.0, SVG Export Plug-In . SVG Version: 6.00 Build 0)  -->
<!DOCTYPE svg PUBLIC "-//W3C//DTD SVG 1.1//EN" "http://www.w3.org/Graphics/SVG/1.1/DTD/svg11.dtd">
<svg version="1.1" xmlns="http://www.w3.org/2000/svg" xmlns:xlink="http://www.w3.org/1999/xlink" x="0px" y="0px" width="24px"
	 height="24px" viewBox="0 0 24 24" enable-background="new 0 0 24 24" xml:space="preserve">
<g id="white">
	<circle fill="#FFFFFF" cx="4.191" cy="5.3" r="1.103"/>
	<ellipse fill="#FFFFFF" cx="19.812" cy="5.298" rx="1.103" ry="1.11"/>
	<rect x="4.191" y="4.19" fill="#FFFFFF" width="15.621" height="2.218"/>
	<circle fill="#FFFFFF" cx="4.178" cy="12.007" r="1.103"/>
	<ellipse fill="#FFFFFF" cx="19.799" cy="12.005" rx="1.103" ry="1.11"/>
	<rect x="4.178" y="10.896" fill="#FFFFFF" width="15.621" height="2.218"/>
	<circle fill="#FFFFFF" cx="4.177" cy="18.704" r="1.103"/>
	<ellipse fill="#FFFFFF" cx="19.798" cy="18.702" rx="1.103" ry="1.11"/>
	<rect x="4.177" y="17.593" fill="#FFFFFF" width="15.621" height="2.218"/>
</g>
<g id="outline">
	<path display="inline" opacity="0.1" fill="#F9F8F7" stroke="#383938" stroke-miterlimit="10" d="M23.516,5.342
		c0-1.514-1.157-2.744-2.627-2.878c0,0-17.292-0.087-17.493-0.087c-1.594,0-2.887,1.3-2.887,2.904c0,1.506,1.144,2.729,2.602,2.875
		l17.777,0.063C22.359,8.086,23.516,6.856,23.516,5.342z"/>
	<path display="inline" opacity="0.1" fill="#F9F8F7" stroke="#383938" stroke-miterlimit="10" d="M23.516,12.048
		c0-1.514-1.157-2.744-2.627-2.878c0,0-17.292-0.087-17.493-0.087c-1.594,0-2.887,1.3-2.887,2.904c0,1.506,1.144,2.729,2.602,2.875
		l17.777,0.063C22.359,14.792,23.516,13.563,23.516,12.048z"/>
	<path display="inline" opacity="0.1" fill="#F9F8F7" stroke="#383938" stroke-miterlimit="10" d="M23.491,18.745
		c0-1.514-1.157-2.744-2.627-2.878c0,0-17.292-0.087-17.493-0.087c-1.594,0-2.887,1.3-2.887,2.904c0,1.506,1.144,2.729,2.602,2.875
		l17.777,0.063C22.335,21.489,23.491,20.26,23.491,18.745z"/>
</g>
</svg>
