<?xml version="1.0" encoding="utf-8"?>
<!-- Generator: Adobe Illustrator 17.0.0, SVG Export Plug-In . SVG Version: 6.00 Build 0)  -->
<!DOCTYPE svg PUBLIC "-//W3C//DTD SVG 1.1//EN" "http://www.w3.org/Graphics/SVG/1.1/DTD/svg11.dtd">
<svg version="1.1" id="Layer_1" xmlns="http://www.w3.org/2000/svg" xmlns:xlink="http://www.w3.org/1999/xlink" x="0px" y="0px"
	 width="24px" height="24px" viewBox="0 0 24 24" enable-background="new 0 0 24 24" xml:space="preserve">
<path fill="#FFFFFF" d="M0.195,6.936c0.511-4.222,4.308-7.193,8.058-6.303C9.705,0.977,10.93,1.75,11.957,2.95
	c0.113-0.115,0.204-0.204,0.291-0.297c3.247-3.471,8.454-2.687,10.665,1.666c0.452,0.89,0.851,1.904,0.924,2.94
	c0.077,1.1-0.085,1.847-0.1,1.955c-0.219,1.592-0.836,2.972-1.852,4.109c-2.66,2.979-5.334,5.943-8.014,8.9
	c-1.575,1.738-2.231,1.736-3.807,0c-2.545-2.804-5.095-5.601-7.599-8.45c-0.653-0.742-1.226-1.61-1.679-2.517
	C0.432,10.548-0.014,8.66,0.195,6.936z"/>
</svg>
