<?xml version="1.0" encoding="utf-8"?>
<!-- Generator: Adobe Illustrator 17.0.0, SVG Export Plug-In . SVG Version: 6.00 Build 0)  -->
<!DOCTYPE svg PUBLIC "-//W3C//DTD SVG 1.1//EN" "http://www.w3.org/Graphics/SVG/1.1/DTD/svg11.dtd">
<svg version="1.1" id="Layer_1" xmlns="http://www.w3.org/2000/svg" xmlns:xlink="http://www.w3.org/1999/xlink" x="0px" y="0px"
	 width="24px" height="24px" viewBox="0 0 24 24" enable-background="new 0 0 24 24" xml:space="preserve">
<path fill="currentColor" d="M23.403,12.297c-1.337-1.338-2.675-2.675-4.013-4.012c-0.042-0.042-0.061-0.083-0.061-0.144
	c0.002-1.068,0.001-2.135,0.002-3.203c0-0.155-0.033-0.301-0.106-0.437c-0.206-0.385-0.628-0.571-1.052-0.466
	c-0.406,0.101-0.692,0.474-0.693,0.905c0,0.446,0,0.892,0,1.337c0,0.026,0,0.051,0,0.077c-0.007,0.004-0.014,0.007-0.022,0.011
	c-0.018-0.022-0.035-0.047-0.055-0.067c-1.554-1.554-3.108-3.108-4.662-4.662c-0.046-0.046-0.091-0.094-0.141-0.135
	c-0.226-0.189-0.486-0.256-0.776-0.204c-0.204,0.036-0.369,0.141-0.515,0.286C8.835,4.059,6.359,6.534,3.884,9.01
	c-1.096,1.096-2.191,2.191-3.287,3.287c-0.392,0.392-0.369,1.012,0.05,1.372c0.371,0.319,0.916,0.284,1.28-0.08
	c0.591-0.591,1.181-1.181,1.772-1.772c0,3.083,0,7.686,0,9.981c0,0.518,0.409,0.923,0.93,0.924c1.851,0.001,3.701,0,5.552,0
	c0.05,0,3.114,0,3.6,0c1.846,0,3.692,0,5.538,0c0.497,0,0.911-0.415,0.911-0.912c0-1.48,0-2.959,0-4.439c0-0.951,0-3.714,0-5.626
	c0.617,0.617,1.233,1.234,1.85,1.85c0.271,0.27,0.595,0.362,0.96,0.246C23.707,13.63,23.901,12.795,23.403,12.297z"/>
</svg>
