<?xml version="1.0" encoding="utf-8"?>
<!-- Generator: Adobe Illustrator 17.0.0, SVG Export Plug-In . SVG Version: 6.00 Build 0)  -->
<!DOCTYPE svg PUBLIC "-//W3C//DTD SVG 1.1//EN" "http://www.w3.org/Graphics/SVG/1.1/DTD/svg11.dtd">
<svg version="1.1" id="Layer_1" xmlns="http://www.w3.org/2000/svg" xmlns:xlink="http://www.w3.org/1999/xlink" x="0px" y="0px"
	 width="24px" height="24px" viewBox="0 0 24 24" enable-background="new 0 0 24 24" xml:space="preserve">
<path fill="#FDFDFE" d="M22.925,10.45c-0.456-0.477-1.019-1.062-1.624-1.691c0.03-1.048,0.069-2.886,0.058-5.001
	c-0.008-1.493-0.971-2.442-2.444-2.445c-1.458-0.003-2.418,0.935-2.437,2.398c-0.758-0.803-1.324-1.382-2.323-2.466
	c-0.422-0.583-1.109-0.924-1.982-0.925c-0.777-0.002-1.407,0.269-1.835,0.738c0,0-0.002,0-0.002,0.001
	c-0.657,0.716-1.23,1.339-1.766,1.923c-0.616,0.612-5.233,5.146-7.456,7.351c-1.058,1.05-1.054,2.411-0.013,3.455
	c0.835,0.838,1.868,1,2.795,0.495c0.004,3.086,0.012,6.6,0.013,8.385c0,0.564,0.409,1.005,0.93,1.006c1.851,0.001,3.702,0,5.553,0
	c0.05,0,3.115,0,3.601,0c1.846,0,3.693,0,5.539,0c0.497,0,0.912-0.452,0.912-0.993c0-1.611-0.015-4.096-0.015-5.707
	c0-0.485,0-1.411,0-2.465c0.812,0.294,1.684,0.1,2.422-0.603C23.917,12.887,23.956,11.527,22.925,10.45z"/>
</svg>
