<?xml version="1.0" encoding="utf-8"?>
<!-- Generator: Adobe Illustrator 17.0.0, SVG Export Plug-In . SVG Version: 6.00 Build 0)  -->
<!DOCTYPE svg PUBLIC "-//W3C//DTD SVG 1.1//EN" "http://www.w3.org/Graphics/SVG/1.1/DTD/svg11.dtd">
<svg version="1.1" id="Layer_1" xmlns="http://www.w3.org/2000/svg" xmlns:xlink="http://www.w3.org/1999/xlink" x="0px" y="0px"
	 width="24px" height="24px" viewBox="0 0 24 24" enable-background="new 0 0 24 24" xml:space="preserve">
<linearGradient id="SVGID_1_" gradientUnits="userSpaceOnUse" x1="2.7034" y1="18.6784" x2="21.6856" y2="18.6784">
	<stop  offset="0" style="stop-color:#F1C119"/>
	<stop  offset="0.13" style="stop-color:#F4C017"/>
	<stop  offset="0.2203" style="stop-color:#FBBF13"/>
	<stop  offset="1" style="stop-color:#F6A719"/>
</linearGradient>
<path fill="url(#SVGID_1_)" d="M21.7,20.6c-2.6,2-5.9,3.2-9.4,3.3c-3.6,0-6.9-1.2-9.6-3.3c0,0,0.4-1.1,0.5-1.5
	c3.4-7.5,14.7-7.5,18,0C21.4,19.5,21.7,20.6,21.7,20.6z"/>
<linearGradient id="SVGID_2_" gradientUnits="userSpaceOnUse" x1="6.3695" y1="5.9243" x2="18.0818" y2="5.9243">
	<stop  offset="0" style="stop-color:#F1C119"/>
	<stop  offset="0.13" style="stop-color:#F4C017"/>
	<stop  offset="0.2203" style="stop-color:#FBBF13"/>
	<stop  offset="1" style="stop-color:#F6A719"/>
</linearGradient>
<path fill="url(#SVGID_2_)" d="M12.2,11.8c-3.2,0-5.8-2.7-5.8-5.9c0-3.2,2.6-5.8,5.9-5.8c3.2,0,5.9,2.7,5.8,5.9
	C18,9.2,15.4,11.8,12.2,11.8z"/>
<path opacity="0.2" fill="#F9F8F7" d="M13.1,0.1c-3.7,2.5-4.3,6.7-2.6,11.4c0,0-4.9-1.9-4-6.5C7.6-0.7,13.1,0.1,13.1,0.1z"/>
<path opacity="0.2" fill="#F9F8F7" d="M2.7,20.6c0,0,0.3-1.3,0.9-2.2C4.2,17.3,5,16.5,5,16.5s0.1,0.3,0.2,0.4
	c2.2,4.3,8.4,6.9,8.4,6.9s-2.4,0.3-5.5-0.5C5.1,22.5,2.7,20.6,2.7,20.6z"/>
<path opacity="0.2" fill="#F9F8F7" d="M2.7,20.6c0,0,0.7-3,3-4.8c2.7-2.1,5.1-2.2,5.1-2.2c0.1,0.3,0.2,0.5,0.3,0.8
	c2.6,5.9,10.5,6.3,10.5,6.3s-3.7,3.2-9.3,3.2C6.5,23.9,2.7,20.6,2.7,20.6"/>
</svg>
