<?xml version="1.0" encoding="utf-8"?>
<!-- Generator: Adobe Illustrator 17.0.0, SVG Export Plug-In . SVG Version: 6.00 Build 0)  -->
<!DOCTYPE svg PUBLIC "-//W3C//DTD SVG 1.1//EN" "http://www.w3.org/Graphics/SVG/1.1/DTD/svg11.dtd">
<svg version="1.1" id="Layer_1" xmlns="http://www.w3.org/2000/svg" xmlns:xlink="http://www.w3.org/1999/xlink" x="0px" y="0px"
	 width="24px" height="24px" viewBox="0 0 24 24" enable-background="new 0 0 24 24" xml:space="preserve">
<linearGradient id="SVGID_1_" gradientUnits="userSpaceOnUse" x1="3.464369e-02" y1="12.0948" x2="24" y2="12.0948">
	<stop  offset="0" style="stop-color:#98988C"/>
	<stop  offset="0.108" style="stop-color:#A6A69E"/>
	<stop  offset="0.2506" style="stop-color:#B2B2B1"/>
	<stop  offset="0.361" style="stop-color:#B6B7BA"/>
	<stop  offset="0.4248" style="stop-color:#B8BABF"/>
	<stop  offset="0.4608" style="stop-color:#C0C1C5"/>
	<stop  offset="0.5895" style="stop-color:#D7D8DB"/>
	<stop  offset="0.721" style="stop-color:#EAEBEC"/>
	<stop  offset="0.8561" style="stop-color:#F6F7F8"/>
	<stop  offset="1" style="stop-color:#FBFDFF"/>
</linearGradient>
<path fill="url(#SVGID_1_)" d="M24,11.6c0,6.2-5.8,7.7-9.1,5.4c-1.1-0.7-1.8-1.8-2.7-2.6c-0.8,0.7-1.8,1.7-2.7,2.4
	C5.9,19.5,0,17.9,0,12.1c0-5.5,5.9-7.5,9.4-4.8C10.4,8,11.2,8.9,12,9.6c0.8-0.7,1.6-1.6,2.6-2.3C17.7,4.8,23.3,6.1,24,11.6z
	 M13.9,12c1,0.9,1.8,1.8,2.7,2.5c0.5,0.4,1.1,0.6,1.8,0.5c1.7-0.3,2.5-1.3,2.5-3.1c0-1-0.4-1.9-1.4-2.4c-0.9-0.5-2-0.6-2.9,0.1
	C15.7,10.3,14.9,11.1,13.9,12z M10.2,12.1c-1-0.9-1.8-1.7-2.7-2.4C6.9,9.2,6.2,9,5.5,9.2c-1.6,0.3-2.4,1.3-2.4,3.1
	c0,1.1,0.4,1.9,1.4,2.4c1,0.5,2,0.6,2.9-0.1C8.3,13.8,9.2,13,10.2,12.1z"/>
<linearGradient id="SVGID_2_" gradientUnits="userSpaceOnUse" x1="17.1666" y1="19.5993" x2="8.8647" y2="5.2199">
	<stop  offset="0" style="stop-color:#98988C"/>
	<stop  offset="0.108" style="stop-color:#A6A69E"/>
	<stop  offset="0.2506" style="stop-color:#B2B2B1"/>
	<stop  offset="0.361" style="stop-color:#B6B7BA"/>
	<stop  offset="0.4248" style="stop-color:#B8BABF"/>
	<stop  offset="0.4608" style="stop-color:#C0C1C5"/>
	<stop  offset="0.5895" style="stop-color:#D7D8DB"/>
	<stop  offset="0.721" style="stop-color:#EAEBEC"/>
	<stop  offset="0.8561" style="stop-color:#F6F7F8"/>
	<stop  offset="1" style="stop-color:#FBFDFF"/>
</linearGradient>
<path fill="url(#SVGID_2_)" d="M13,10.8l-1-1.2c0.8-0.7,1.6-1.6,2.6-2.3c3.2-2.5,8.7-1.2,9.4,4.3c0,6.2-5.8,7.7-9.1,5.4
	c-1.1-0.7-0.2-0.1-1.1-0.9c0,0-2.4-2.7-3.7-4.1C9,11,7.9,10,7.5,9.7C6.9,9.2,6,9,5.4,9.2c-1.6,0.4-2.3,1.5-2.3,3.1
	c0,1.1,0.4,1.9,1.4,2.4c1,0.5,2,0.6,2.9-0.1c0.9-0.7,1.8-1.6,2.8-2.5l1.1,1.1c-0.6,0.5-2,1.9-2.6,2.4c-2.7,2-7,0.8-7.1-3.5
	c0-4.1,4.4-5.6,7-3.6c0.7,0.5,1.3,1.2,1.9,1.7l3,3.5c0.6,0.5,1.2,1.4,1.9,1.9c2.7,2,7,0.8,7.1-3.5c0-4.1-4.4-5.6-7-3.6
	C14.7,9.1,13.5,10.3,13,10.8"/>
</svg>
