<?xml version="1.0" encoding="utf-8"?>
<!-- Generator: Adobe Illustrator 17.0.0, SVG Export Plug-In . SVG Version: 6.00 Build 0)  -->
<!DOCTYPE svg PUBLIC "-//W3C//DTD SVG 1.1//EN" "http://www.w3.org/Graphics/SVG/1.1/DTD/svg11.dtd">
<svg version="1.1" id="Layer_1" xmlns="http://www.w3.org/2000/svg" xmlns:xlink="http://www.w3.org/1999/xlink" x="0px" y="0px"
	 width="24px" height="24px" viewBox="0 0 24 24" enable-background="new 0 0 24 24" xml:space="preserve">
<path fill="#FFFFFF" d="M24.09,11.735c0,6.232-5.812,7.737-9.175,5.453c-1.064-0.723-1.785-1.827-2.722-2.637
	c-0.787,0.707-1.779,1.703-2.7,2.39c-3.607,2.691-9.484,1.086-9.495-4.739c-0.01-5.484,5.926-7.537,9.449-4.797
	c0.921,0.717,1.757,1.55,2.582,2.287c0.825-0.741,1.655-1.579,2.577-2.3C17.805,4.891,23.399,6.167,24.09,11.735z M13.906,12.139
	c1.042,0.933,1.841,1.807,2.758,2.556c0.504,0.412,1.138,0.567,1.811,0.455c1.705-0.283,2.535-1.315,2.502-3.133
	c-0.02-1.051-0.425-1.914-1.369-2.428c-0.953-0.518-1.98-0.617-2.872,0.061C15.768,10.385,14.961,11.2,13.906,12.139z
	 M10.185,12.199c-0.99-0.905-1.813-1.713-2.697-2.446C6.926,9.288,6.234,9.108,5.483,9.24c-1.606,0.282-2.436,1.348-2.404,3.114
	c0.019,1.075,0.441,1.953,1.404,2.461c0.974,0.513,2.014,0.574,2.915-0.135C8.326,13.948,9.171,13.11,10.185,12.199z"/>
</svg>
