<?xml version="1.0" encoding="utf-8"?>
<!-- Generator: Adobe Illustrator 17.0.0, SVG Export Plug-In . SVG Version: 6.00 Build 0)  -->
<!DOCTYPE svg PUBLIC "-//W3C//DTD SVG 1.1//EN" "http://www.w3.org/Graphics/SVG/1.1/DTD/svg11.dtd">
<svg version="1.1" id="Layer_1" xmlns="http://www.w3.org/2000/svg" xmlns:xlink="http://www.w3.org/1999/xlink" x="0px" y="0px"
	 width="24px" height="24px" viewBox="0 0 24 24" enable-background="new 0 0 24 24" xml:space="preserve">
<path opacity="0.8" fill="#F9F8F7" d="M9.334,11.956c1.533,1.54,3.004,3.026,4.484,4.502c1.423,1.42,1.615,1.632,3.019,3.075
	c1.12,1.151,1.237,2.565,0.258,3.587c-0.977,1.021-2.433,0.959-3.587-0.183c-3.449-3.413-5.63-5.661-9.069-9.083
	c-1.237-1.231-1.25-2.537-0.02-3.762c3.457-3.445,5.664-5.633,9.134-9.065c1.109-1.098,2.544-1.157,3.518-0.172
	c0.981,0.992,0.937,2.441-0.147,3.524c-2.763,2.759-4.281,4.255-7.051,7.006C9.711,11.546,9.56,11.717,9.334,11.956z"/>
</svg>
