<?xml version="1.0" encoding="utf-8"?>
<!-- Generator: Adobe Illustrator 17.0.0, SVG Export Plug-In . SVG Version: 6.00 Build 0)  -->
<!DOCTYPE svg PUBLIC "-//W3C//DTD SVG 1.1//EN" "http://www.w3.org/Graphics/SVG/1.1/DTD/svg11.dtd">
<svg version="1.1" xmlns="http://www.w3.org/2000/svg" xmlns:xlink="http://www.w3.org/1999/xlink" x="0px" y="0px" width="24px"
	 height="24px" viewBox="0 0 24 24" enable-background="new 0 0 24 24" xml:space="preserve">
<g id="white">
	<path fill="currentColor" d="M23.86,12.367c0,0-2.42-1.709-4.405-3.275c0.342-2.393,0.832-5,0.832-5s-2.612,0.385-5.044,0.632
		c-1.617-2.117-3.319-4.553-3.319-4.553s-1.745,2.392-3.378,4.488c-2.462-0.24-5.041-0.549-5.041-0.549S3.758,6.9,3.963,9.394
		C2.141,10.863,0.14,12.33,0.14,12.33s2.042,1.4,3.927,2.794c-0.203,2.387-0.58,5.074-0.58,5.074s2.736-0.44,5.197-0.74
		c1.598,1.975,3.353,4.371,3.353,4.371s1.653-2.391,3.176-4.346c2.47,0.311,5.14,0.755,5.14,0.755s-0.522-2.497-0.884-4.81
		C21.501,13.94,23.86,12.367,23.86,12.367z M11.921,18.278c-3.445,0-6.238-2.737-6.238-6.113s2.793-6.113,6.238-6.113
		s6.238,2.737,6.238,6.113S15.367,18.278,11.921,18.278z"/>
	<ellipse fill="currentColor" cx="11.909" cy="12.283" rx="3.339" ry="3.32"/>
</g>
<g id="colour" display="none">
	<path display="inline" fill="currentColor" d="M11.924,0.171c0,0,3.706,5.306,5.377,7.061c1.468,1.541,6.559,5.135,6.559,5.135
		s-5.326,3.552-6.86,5.027s-4.962,6.436-4.962,6.436s-3.728-5.087-5.263-6.547C5.267,15.846,0.14,12.33,0.14,12.33
		s4.895-3.587,6.343-5.162C8.111,5.398,11.924,0.171,11.924,0.171z"/>
	<path display="inline" fill="currentColor" d="M3.505,4.109c0,0,5.897,0.708,8.369,0.813c2.171,0.091,8.413-0.83,8.413-0.83
		s-1.155,6.134-1.155,8.22s1.223,7.925,1.223,7.925s-6.376-1.061-8.535-1.05c-2.122,0.011-8.332,1.012-8.332,1.012
		s0.824-5.865,0.69-7.964C4.028,9.875,3.505,4.109,3.505,4.109z"/>
	<ellipse display="inline" fill="#2F64A5" cx="11.921" cy="12.165" rx="6.238" ry="6.113"/>
	<ellipse display="inline" fill="#ECECED" cx="11.909" cy="12.283" rx="3.339" ry="3.32"/>
</g>
</svg>
