<?xml version="1.0" encoding="utf-8"?>
<!-- Generator: Adobe Illustrator 17.0.0, SVG Export Plug-In . SVG Version: 6.00 Build 0)  -->
<!DOCTYPE svg PUBLIC "-//W3C//DTD SVG 1.1//EN" "http://www.w3.org/Graphics/SVG/1.1/DTD/svg11.dtd">
<svg version="1.1" id="Layer_1" xmlns="http://www.w3.org/2000/svg" xmlns:xlink="http://www.w3.org/1999/xlink" x="0px" y="0px"
	 width="24px" height="24px" viewBox="0 0 24 24" enable-background="new 0 0 24 24" xml:space="preserve">
<g>
	<g>
		<linearGradient id="SVGID_1_" gradientUnits="userSpaceOnUse" x1="0" y1="12.1678" x2="24" y2="12.1678">
			<stop  offset="0" style="stop-color:#8AC761"/>
			<stop  offset="0.4292" style="stop-color:#2DB781"/>
			<stop  offset="0.8109" style="stop-color:#00AC94"/>
			<stop  offset="1" style="stop-color:#00A99B"/>
		</linearGradient>
		<path fill="url(#SVGID_1_)" d="M23.4,8.9c-0.1,0-0.3,0-0.4,0.1c-0.2,0.2,0.1,0.9,0,1.2c-0.1,0.2-0.2,0.5-0.4,0.6
			c-0.1,0.1-0.3,0.1-0.4,0.1c-0.4-0.1-1.1-0.6-1.5-0.6c-0.1,0-0.2,0-0.2,0c-0.2,0.2-0.2,0.7-0.1,0.9c0.1,0.4,0.9,0.9,1.1,1.3
			c0,0.1,0.1,0.3,0,0.4c-0.2,0.5-1.2,1.2-1.4,1.8C19.8,15.4,20,17,20,17.8c0,0.1,0,0.3,0,0.4c-0.3,0.7-1.4,1.9-2.1,2.1
			c-0.1,0-0.4-0.1-0.6-0.1c-0.5-0.2-1.5-0.6-1.8-1.1c-0.5-0.8-0.4-2.8-0.8-3.6c0-0.1-0.1-0.2-0.2-0.2c-0.5-0.3-1.8,0-2.4-0.2
			c-0.1,0-0.2-0.1-0.2-0.1c-0.5-0.5-1-1.7-1.4-2.3c0-0.1-0.1-0.2-0.1-0.3c-0.1-0.6,0.2-1.8,0.3-2.4c0-0.1,0-0.3,0.1-0.3
			c0.4-0.6,1.5-1.6,2.1-1.8c0.1,0,0.4,0,0.6,0c0.4,0.1,1,0.7,1.4,0.8c0.7,0.2,2.3,0.3,3.1,0.3c0.1,0,0.2,0,0.3,0
			c0.5-0.2,1.3-0.8,1.5-1.2c0.1-0.1,0.1-0.5,0-0.6c0-0.1-0.2-0.2-0.2-0.2c-1.2-0.6-4,0.2-5.1-0.5c-0.2-0.1-0.5-0.6-0.5-0.9
			c0-0.2,0.3-0.5,0.4-0.6c0.3-0.2,1-0.3,1.4-0.4c0.1,0,0.2-0.1,0.3-0.1c0.7-0.4,1.5-1.9,2.3-2.1c0.2-0.1,0.4-0.1,0.7,0
			c-1.2-0.9-2.5-1.5-4-1.9c0.1,0.8-2,1.2-2.6,1.7c-0.6,0.6-1.5,2.1-2.3,2.5C10,4.7,9.6,4.7,9.5,4.7C9.3,4.7,9.1,4.5,9,4.4
			C8.8,4.2,8.5,3.8,8.5,3.5c0-0.1,0-0.3,0.1-0.4c0.2-0.4,0.8-1.2,1-1.6c0-0.1,0-0.2,0-0.3c0-0.2-0.3-0.6-0.4-0.9
			C7.3,0.8,5.7,1.6,4.3,2.8c1,0.2,2.5,0.9,2.5,0.9S7.2,4,7.3,4.1c0.2,0.4,0.2,1.3,0,1.7C7.2,6.1,6.8,6.4,6.5,6.4
			c-0.1,0-0.5-0.1-0.6,0C5,6.9,4.7,9.4,4,10.2c-0.1,0.1-0.2,0.3-0.3,0.3c-0.3,0.1-1,0.1-1.2,0.3c-0.1,0.1-0.2,0.3-0.1,0.4
			c0,0.4,0.6,0.9,0.7,1.2c0.1,0.3,0,0.9-0.1,1.1c-0.2,0.2-0.9,0.2-1.2,0.1c-0.5-0.2-1.2-0.9-1.7-1.6c0,0,0,0,0,0c0,6.6,5.4,12,12,12
			c6.6,0,12-5.4,12-12c0-1.1-0.1-2.1-0.4-3.1C23.5,8.9,23.5,8.9,23.4,8.9z M10.8,17.4c-0.1,0.3-0.8,0.7-0.9,1.1
			c-0.1,0.3,0.1,1.1,0,1.4c-0.1,0.2-0.5,0.5-0.6,0.7c-0.1,0.1,0,0.4-0.1,0.6c-0.1,0.2-0.6,0.4-0.9,0.5c-0.1,0-0.2,0-0.3,0
			c-0.2-0.1-0.5-0.6-0.6-0.8c-0.1-0.3,0-1,0-1.4c0-0.1,0-0.2,0-0.2c-0.1-0.5-0.6-1.3-0.9-1.7c0,0-0.1-0.1-0.1-0.1
			c-0.2-0.1-0.6,0-0.8-0.1c-0.3-0.2-0.8-0.7-1-1c0,0-0.1-0.1-0.1-0.1c-0.1-0.3-0.1-0.9-0.1-1.2c0-0.1,0-0.2,0-0.3
			c0.2-0.4,0.8-1.1,1.2-1.3c0.1,0,0.3,0,0.3,0c0.1,0,0.3,0.1,0.4,0.2c0.1,0.1,0.2,0.3,0.3,0.4c0,0,0.1,0.1,0.2,0.1
			c0.5,0.1,1.5-0.2,1.9,0c0.1,0,0.3,0.2,0.4,0.3c0.2,0.2,0.3,0.7,0.5,0.9c0,0,0.1,0.1,0.2,0.2c0.1,0,0.3,0,0.4,0
			c0.2,0.1,0.4,0.3,0.5,0.5C10.9,16.3,10.9,17.1,10.8,17.4z"/>
	</g>
</g>
<path fill="#FFFFFF" d="M1.7,13.6c0.3,0.1,1,0.1,1.2-0.1c0.2-0.2,0.2-0.8,0.1-1.1C3,12,2.4,11.5,2.4,11.2c0-0.1,0.1-0.3,0.1-0.4
	c0.2-0.2,0.9-0.1,1.2-0.3C3.8,10.5,4,10.3,4,10.2C4.7,9.4,5,6.9,6,6.4c0.1-0.1,0.4,0.1,0.6,0c0.2-0.1,0.6-0.4,0.7-0.6
	c0.2-0.4,0.2-1.3,0-1.7C7.2,4,6.8,3.7,6.8,3.7S5.3,3,4.3,2.8C1.7,5,0,8.3,0,11.9C0.5,12.6,1.2,13.4,1.7,13.6z"/>
<path fill="#FFFFFF" d="M9.5,1.5C9.4,2,8.7,2.7,8.6,3.1c0,0.1-0.1,0.3-0.1,0.4c0,0.2,0.3,0.7,0.5,0.8c0.1,0.1,0.4,0.3,0.5,0.3
	c0.2,0,0.5,0,0.7-0.1c0.7-0.4,1.6-2,2.3-2.5c0.6-0.5,2.7-1,2.6-1.7C14,0.1,13,0,12,0c-1,0-1.9,0.1-2.9,0.3C9.3,0.6,9.5,1,9.6,1.2
	C9.6,1.3,9.6,1.4,9.5,1.5z"/>
<path fill="#FFFFFF" d="M18.3,2.3C17.5,2.5,16.7,4,16,4.4c-0.1,0-0.2,0.1-0.3,0.1c-0.3,0.1-1.1,0.1-1.4,0.4
	c-0.2,0.1-0.4,0.4-0.4,0.6c0,0.2,0.3,0.7,0.5,0.9c1.1,0.7,4,0,5.1,0.5c0.1,0,0.2,0.2,0.2,0.2c0.1,0.1,0.1,0.5,0,0.6
	c-0.2,0.4-1,1-1.5,1.2c-0.1,0-0.2,0-0.3,0c-0.8,0-2.3-0.1-3.1-0.3c-0.4-0.1-1-0.7-1.4-0.8c-0.1,0-0.4,0-0.6,0
	c-0.7,0.2-1.8,1.2-2.1,1.8c0,0.1,0,0.2-0.1,0.3c-0.1,0.6-0.4,1.8-0.3,2.4c0,0.1,0.1,0.2,0.1,0.3c0.3,0.6,0.9,1.8,1.4,2.3
	c0,0,0.2,0.1,0.2,0.1c0.6,0.2,1.8,0,2.4,0.2c0.1,0,0.2,0.1,0.2,0.2c0.4,0.8,0.3,2.9,0.8,3.6c0.3,0.4,1.3,0.9,1.8,1.1
	c0.1,0.1,0.4,0.2,0.6,0.1c0.7-0.2,1.8-1.4,2.1-2.1c0-0.1,0-0.3,0-0.4c0-0.8-0.1-2.4,0.1-3.2c0.2-0.5,1.2-1.2,1.4-1.8
	c0-0.1,0-0.3,0-0.4c-0.2-0.4-0.9-0.9-1.1-1.3c-0.1-0.2,0-0.8,0.1-0.9c0,0,0.2,0,0.2,0c0.4,0.1,1.1,0.6,1.5,0.6c0.1,0,0.3,0,0.4-0.1
	c0.1-0.1,0.3-0.4,0.4-0.6c0.1-0.3-0.2-0.9,0-1.2c0.1-0.1,0.3-0.1,0.4-0.1c0,0,0.1,0,0.2-0.1c-0.7-2.7-2.4-5-4.6-6.6
	C18.7,2.2,18.4,2.2,18.3,2.3z"/>
<path fill="#FFFFFF" d="M10.3,15.5c-0.1,0-0.3,0-0.4,0c-0.1,0-0.2-0.1-0.2-0.2c-0.2-0.2-0.3-0.7-0.5-0.9c-0.1-0.1-0.3-0.3-0.4-0.3
	c-0.5-0.1-1.4,0.2-1.9,0c-0.1,0-0.1-0.1-0.2-0.1c-0.1-0.1-0.2-0.3-0.3-0.4c-0.1-0.1-0.3-0.2-0.4-0.2c-0.1,0-0.3,0-0.3,0
	c-0.4,0.2-1.1,0.8-1.2,1.3c0,0.1,0,0.2,0,0.3c0,0.3,0,0.9,0.1,1.2c0,0,0.1,0.1,0.1,0.1c0.2,0.3,0.7,0.8,1,1c0.2,0.1,0.6,0,0.8,0.1
	c0,0,0.1,0.1,0.1,0.1c0.3,0.4,0.8,1.2,0.9,1.7c0,0.1,0,0.2,0,0.2c0,0.3-0.1,1.1,0,1.4c0.1,0.2,0.4,0.7,0.6,0.8c0.1,0,0.2,0,0.3,0
	c0.2-0.1,0.7-0.3,0.9-0.5c0.1-0.1,0-0.4,0.1-0.6c0.1-0.2,0.5-0.5,0.6-0.7c0.1-0.3-0.1-1.1,0-1.4c0.1-0.3,0.8-0.7,0.9-1.1
	c0.1-0.3,0.1-1.1,0-1.4C10.7,15.9,10.5,15.6,10.3,15.5z"/>
</svg>
