<?xml version="1.0" encoding="utf-8"?>
<!-- Generator: Adobe Illustrator 17.0.0, SVG Export Plug-In . SVG Version: 6.00 Build 0)  -->
<!DOCTYPE svg PUBLIC "-//W3C//DTD SVG 1.1//EN" "http://www.w3.org/Graphics/SVG/1.1/DTD/svg11.dtd">
<svg version="1.1" id="Layer_1" xmlns="http://www.w3.org/2000/svg" xmlns:xlink="http://www.w3.org/1999/xlink" x="0px" y="0px"
	 width="24px" height="24px" viewBox="0 0 24 24" enable-background="new 0 0 24 24" xml:space="preserve">
<g>
	<path fill="none" d="M6.336,14.11c-1.052,0.012-1.933,0.899-1.935,1.949c-0.002,1.043,0.883,1.946,1.922,1.963
		c1.079,0.017,2.02-0.926,1.993-1.996C8.29,14.981,7.377,14.098,6.336,14.11z"/>
	<path fill="currentColor" d="M21.144,8.061l0.013-0.013l-0.077-0.074c-0.01-0.01-0.014-0.023-0.024-0.033
		c-0.005-0.005-0.012-0.006-0.017-0.01c0.001-0.001,0.002-0.002,0.003-0.003C21.024,7.913,21.008,7.9,20.99,7.886l-2.397-2.317
		c0.469-0.512,0.823-0.899,1.193-1.303c0,0,0.001-0.001,0.001-0.001c0,0,0,0,0-0.001c0.013-0.014,0.026-0.028,0.039-0.042
		c-0.003-0.003-0.005-0.005-0.008-0.008c0.528-0.626,0.503-1.536-0.078-2.065c-0.562-0.511-1.431-0.472-2.006,0.06
		c-0.001-0.001-0.002-0.002-0.003-0.003c-0.216,0.202-0.45,0.408-0.669,0.627c-2.693,2.689-5.393,5.37-8.064,8.081
		c-0.219,0.222-0.561,0.566-0.561,0.566s-0.544-0.105-0.847-0.185c-3.47-0.921-6.812,2.187-6.106,5.636
		c0.602,2.94,3.432,4.702,6.226,3.876c2.881-0.852,4.302-3.832,3.209-6.683c-0.063-0.163-0.241-0.572-0.241-0.572
		s0.153-0.215,0.203-0.267c0.967-1.027,1.987-2.024,3.178-3.205l2.664,2.538c0.479,0.438,1.224,0.404,1.663-0.076
		c0.419-0.459,0.396-1.152-0.024-1.596l0.008-0.008l-0.053-0.052c-0.002-0.002-0.003-0.004-0.005-0.006
		c-0.001-0.001-0.003-0.001-0.004-0.003L15.78,8.361c0.405-0.413,0.744-0.757,1.122-1.143l2.536,2.423
		c0.011,0.011,0.015,0.026,0.027,0.037c0.01,0.009,0.022,0.011,0.032,0.019l0.043,0.041l0.009-0.01
		c0.479,0.369,1.163,0.329,1.579-0.126C21.532,9.161,21.518,8.506,21.144,8.061z M6.323,18.021c-1.039-0.016-1.924-0.92-1.922-1.963
		c0.002-1.05,0.883-1.937,1.935-1.949c1.041-0.012,1.954,0.871,1.98,1.915C8.342,17.096,7.401,18.038,6.323,18.021z"/>
</g>
</svg>
