<?xml version="1.0" encoding="utf-8"?>
<!-- Generator: Adobe Illustrator 17.0.0, SVG Export Plug-In . SVG Version: 6.00 Build 0)  -->
<!DOCTYPE svg PUBLIC "-//W3C//DTD SVG 1.1//EN" "http://www.w3.org/Graphics/SVG/1.1/DTD/svg11.dtd">
<svg version="1.1" id="Layer_1" xmlns="http://www.w3.org/2000/svg" xmlns:xlink="http://www.w3.org/1999/xlink" x="0px" y="0px"
	 width="24px" height="24px" viewBox="0 0 24 24" enable-background="new 0 0 24 24" xml:space="preserve">
<path fill="currentColor" d="M11.919,19.218c0.946-0.009,1.673-0.11,2.382-0.339c0.595-0.192,1.156-0.453,1.685-0.785
	c0.355-0.223,0.697-0.462,0.995-0.756c0.241-0.239,0.474-0.488,0.702-0.74c0.268-0.296,0.489-0.626,0.672-0.982
	c0.112-0.217,0.214-0.439,0.33-0.654c0.181-0.335,0.257-0.703,0.352-1.066c0.24-0.909,0.226-1.826,0.051-2.739
	c-0.072-0.377-0.19-0.75-0.329-1.11c-0.17-0.442-0.391-0.866-0.66-1.257c-0.201-0.292-0.416-0.581-0.665-0.832
	c-0.317-0.32-0.67-0.604-1.014-0.896c-0.122-0.103-0.264-0.182-0.397-0.273C16.012,6.781,16,6.77,15.99,6.759
	c-0.403-0.404-0.551-0.924-0.321-1.457c0.289-0.671,0.943-0.95,1.632-0.798c0.206,0.046,0.407,0.157,0.587,0.276
	c0.409,0.27,0.795,0.574,1.14,0.925c0.215,0.218,0.437,0.429,0.634,0.662c0.247,0.291,0.474,0.599,0.705,0.903
	c0.27,0.354,0.493,0.737,0.68,1.141c0.117,0.253,0.241,0.504,0.336,0.766c0.131,0.362,0.24,0.733,0.352,1.102
	c0.252,0.83,0.297,1.686,0.258,2.543c-0.024,0.532-0.095,1.065-0.192,1.588c-0.074,0.397-0.212,0.783-0.342,1.167
	c-0.087,0.256-0.195,0.508-0.322,0.747c-0.217,0.408-0.44,0.815-0.69,1.204c-0.195,0.305-0.417,0.597-0.658,0.866
	c-0.321,0.358-0.651,0.715-1.018,1.024c-0.42,0.355-0.869,0.681-1.333,0.976c-0.728,0.462-1.513,0.812-2.339,1.064
	c-1.162,0.354-2.352,0.485-3.565,0.42c-0.888-0.047-1.756-0.202-2.597-0.486c-0.399-0.135-0.788-0.303-1.171-0.477
	c-0.517-0.235-1.01-0.516-1.47-0.852c-0.188-0.138-0.381-0.27-0.563-0.416c-0.404-0.324-0.792-0.664-1.123-1.065
	c-0.206-0.25-0.416-0.498-0.614-0.755c-0.283-0.367-0.53-0.759-0.73-1.178c-0.089-0.186-0.194-0.365-0.27-0.555
	c-0.141-0.355-0.269-0.716-0.396-1.076c-0.222-0.628-0.295-1.283-0.34-1.942c-0.052-0.763-0.015-1.522,0.121-2.275
	c0.042-0.234,0.085-0.47,0.151-0.698c0.095-0.327,0.202-0.651,0.322-0.969C2.95,8.879,3.056,8.627,3.186,8.389
	c0.214-0.392,0.435-0.782,0.682-1.154c0.194-0.292,0.415-0.57,0.653-0.827c0.324-0.35,0.666-0.687,1.021-1.007
	c0.243-0.219,0.511-0.415,0.784-0.597C6.796,4.49,7.421,4.511,7.886,4.842c0.589,0.42,0.732,1.005,0.472,1.628
	C8.269,6.682,8.121,6.868,7.917,7C7.779,7.089,7.643,7.185,7.522,7.297C7.225,7.572,6.922,7.844,6.65,8.144
	c-0.227,0.251-0.426,0.53-0.611,0.813C5.883,9.197,5.75,9.454,5.634,9.715c-0.127,0.285-0.236,0.58-0.33,0.878
	c-0.347,1.101-0.34,2.218-0.1,3.334c0.079,0.368,0.22,0.726,0.355,1.079c0.088,0.231,0.201,0.456,0.333,0.665
	c0.21,0.333,0.429,0.661,0.673,0.969c0.196,0.248,0.423,0.474,0.656,0.689c0.406,0.375,0.856,0.696,1.341,0.963
	c0.735,0.404,1.513,0.697,2.345,0.823C11.308,19.177,11.716,19.198,11.919,19.218z"/>
<path fill="currentColor" d="M10.717,7.152c0-1.296-0.001-2.593,0.001-3.889c0-0.134,0.008-0.27,0.031-0.402
	c0.121-0.665,0.834-1.154,1.521-1.064c0.44,0.057,0.78,0.262,1.036,0.63c0.163,0.235,0.217,0.487,0.218,0.758
	c0.002,2.581,0.003,5.162-0.001,7.743c0,0.21-0.006,0.427-0.062,0.627c-0.134,0.482-0.614,0.858-1.113,0.926
	c-0.382,0.052-0.74-0.009-1.054-0.232c-0.302-0.215-0.536-0.496-0.556-0.886c-0.023-0.457-0.02-0.915-0.021-1.372
	C10.715,9.045,10.717,8.099,10.717,7.152z"/>
</svg>
