<?xml version="1.0" encoding="utf-8"?>
<!-- Generator: Adobe Illustrator 17.0.0, SVG Export Plug-In . SVG Version: 6.00 Build 0)  -->
<!DOCTYPE svg PUBLIC "-//W3C//DTD SVG 1.1//EN" "http://www.w3.org/Graphics/SVG/1.1/DTD/svg11.dtd">
<svg version="1.1" id="Layer_1" xmlns="http://www.w3.org/2000/svg" xmlns:xlink="http://www.w3.org/1999/xlink" x="0px" y="0px"
	 width="20.7px" height="23.7px" viewBox="0 0 20.7 23.7" enable-background="new 0 0 20.7 23.7" xml:space="preserve">
<g>
	<polygon fill="none" points="10.3,11.9 9.5,11.4 9.5,9.3 7.8,10.5 7.8,10.5 7.1,10.1 7.1,10.9 5.4,11.9 7.1,12.8 7.1,12.8 
		7.1,12.8 7.1,13.7 7.8,13.2 9.5,14.2 9.5,12.3 9.5,12.3 9.5,12.3 	"/>
	<polygon fill="#25A7D7" points="3.5,14.8 7.1,12.8 5.4,11.9 3.5,13 3.5,13 1.7,11.9 0,12.8 3.5,14.8 	"/>
	<polygon fill="#85BC41" points="7.8,6.4 7.8,10.5 7.8,10.5 9.5,9.3 9.5,7.4 9.5,7.4 9.5,7.4 11.4,6.3 11.4,4.4 7.8,6.4 	"/>
	<polygon fill="#7C2228" points="9.5,12.3 9.5,14.2 11.3,15.3 11.3,15.3 11.3,15.3 11.3,17.4 12.9,18.4 12.9,14.3 	"/>
	<polygon fill="#53BFE3" points="7.1,12.8 3.5,14.8 3.5,14.8 7.1,12.8 7.1,12.8 	"/>
	<polygon fill="#53BFE3" points="11.3,15.3 11.3,15.3 11.3,15.3 	"/>
	<polygon fill="#50A246" points="7.8,6.4 7.8,6.4 0.1,2 0.1,2 0.1,2 0,10.9 0,10.9 0.1,2 	"/>
	<polygon fill="#A51E25" points="10.3,11.9 9.5,12.3 9.5,12.3 10.3,11.9 	"/>
	<polygon fill="#A51E25" points="9.5,7.4 13.1,5.4 20.7,9.9 20.7,9.9 13.1,5.4 11.4,6.3 9.5,7.4 	"/>
	<polygon fill="#D32328" points="12.9,18.4 20.7,13.9 20.7,9.9 12.9,14.3 	"/>
	<polygon fill="#288D44" points="7.8,6.4 11.4,4.4 3.5,0 0.1,2 0.1,2 	"/>
	<polygon fill="#28A2C3" points="3.5,14.8 0,12.8 0,21.7 3.5,23.7 3.5,23.7 	"/>
	<polygon fill="#25A7D7" points="7.1,13.7 7.1,17.7 7.1,17.7 11.3,15.3 11.3,15.3 9.5,14.2 7.8,13.2 	"/>
	<polygon fill="#85BC41" points="7.1,10.1 3.5,8.1 3.5,13 3.5,13 5.4,11.9 7.1,10.9 	"/>
	<polygon fill="#7C2228" points="10.3,11.9 10.3,11.9 13.7,9.8 13.7,9.8 11,8.3 9.5,7.4 9.5,9.3 9.5,11.4 	"/>
	<linearGradient id="SVGID_1_" gradientUnits="userSpaceOnUse" x1="9.5328" y1="9.0525" x2="20.7197" y2="9.0525">
		<stop  offset="0" style="stop-color:#A41E24"/>
		<stop  offset="0.1925" style="stop-color:#A92427;stop-opacity:0.8075"/>
		<stop  offset="0.4542" style="stop-color:#B7332F;stop-opacity:0.5458"/>
		<stop  offset="0.7542" style="stop-color:#D04C41;stop-opacity:0.2458"/>
		<stop  offset="1" style="stop-color:#F16758;stop-opacity:0"/>
	</linearGradient>
	<polygon fill="url(#SVGID_1_)" points="13.7,9.8 13.7,9.8 11,8.3 11,8.3 	"/>
	<linearGradient id="SVGID_2_" gradientUnits="userSpaceOnUse" x1="9.5328" y1="12.0971" x2="20.7197" y2="12.0971">
		<stop  offset="0" style="stop-color:#A41E24"/>
		<stop  offset="0.1925" style="stop-color:#A92427;stop-opacity:0.8075"/>
		<stop  offset="0.4542" style="stop-color:#B7332F;stop-opacity:0.5458"/>
		<stop  offset="0.7542" style="stop-color:#D04C41;stop-opacity:0.2458"/>
		<stop  offset="1" style="stop-color:#F16758;stop-opacity:0"/>
	</linearGradient>
	<polygon fill="url(#SVGID_2_)" points="12.9,14.3 9.5,12.3 9.5,12.3 12.9,14.3 20.7,9.9 20.7,9.9 	"/>
	<polygon fill="#85BC41" points="11,8.3 9.5,7.4 9.5,7.4 11,8.3 	"/>
	<linearGradient id="SVGID_3_" gradientUnits="userSpaceOnUse" x1="9.5328" y1="7.8103" x2="20.7197" y2="7.8103">
		<stop  offset="0" style="stop-color:#A41E24"/>
		<stop  offset="0.1925" style="stop-color:#A92427;stop-opacity:0.8075"/>
		<stop  offset="0.4542" style="stop-color:#B7332F;stop-opacity:0.5458"/>
		<stop  offset="0.7542" style="stop-color:#D04C41;stop-opacity:0.2458"/>
		<stop  offset="1" style="stop-color:#F16758;stop-opacity:0"/>
	</linearGradient>
	<polygon fill="url(#SVGID_3_)" points="11,8.3 9.5,7.4 9.5,7.4 11,8.3 	"/>
	<polygon fill="#A51E25" points="9.5,7.4 11,8.3 13.7,9.8 13.7,9.8 13.7,9.8 10.3,11.9 10.3,11.9 9.5,12.3 12.9,14.3 20.7,9.9 
		13.1,5.4 	"/>
	<linearGradient id="SVGID_4_" gradientUnits="userSpaceOnUse" x1="9.5386" y1="9.8461" x2="20.7255" y2="9.8461">
		<stop  offset="0" style="stop-color:#A41E24"/>
		<stop  offset="0.1925" style="stop-color:#A92427;stop-opacity:0.8075"/>
		<stop  offset="0.4542" style="stop-color:#B7332F;stop-opacity:0.5458"/>
		<stop  offset="0.7542" style="stop-color:#D04C41;stop-opacity:0.2458"/>
		<stop  offset="1" style="stop-color:#F16758;stop-opacity:0"/>
	</linearGradient>
	<polygon fill="url(#SVGID_4_)" points="9.5,7.4 11,8.3 13.7,9.8 13.7,9.8 13.7,9.8 10.3,11.9 10.3,11.9 9.5,12.3 12.9,14.3 
		20.7,9.9 13.1,5.4 	"/>
	<polygon fill="#7C2228" points="10.3,11.9 13.7,9.8 10.3,11.9 	"/>
	<linearGradient id="SVGID_5_" gradientUnits="userSpaceOnUse" x1="9.5328" y1="10.8703" x2="20.7197" y2="10.8703">
		<stop  offset="0" style="stop-color:#A41E24"/>
		<stop  offset="0.1925" style="stop-color:#A92427;stop-opacity:0.8075"/>
		<stop  offset="0.4542" style="stop-color:#B7332F;stop-opacity:0.5458"/>
		<stop  offset="0.7542" style="stop-color:#D04C41;stop-opacity:0.2458"/>
		<stop  offset="1" style="stop-color:#F16758;stop-opacity:0"/>
	</linearGradient>
	<polygon fill="url(#SVGID_5_)" points="10.3,11.9 13.7,9.8 10.3,11.9 	"/>
	<linearGradient id="SVGID_6_" gradientUnits="userSpaceOnUse" x1="7.456492e-07" y1="11.4262" x2="7.77" y2="11.4262">
		<stop  offset="0" style="stop-color:#4EA146"/>
		<stop  offset="0.1846" style="stop-color:#54A347;stop-opacity:0.8154"/>
		<stop  offset="0.4074" style="stop-color:#64AA4D;stop-opacity:0.5926"/>
		<stop  offset="0.65" style="stop-color:#7CB559;stop-opacity:0.35"/>
		<stop  offset="0.905" style="stop-color:#9BC86F;stop-opacity:9.495759e-02"/>
		<stop  offset="1" style="stop-color:#A8D37A;stop-opacity:0"/>
	</linearGradient>
	<polygon fill="url(#SVGID_6_)" points="0,10.9 0,11 1.7,11.9 1.7,11.9 	"/>
	<linearGradient id="SVGID_7_" gradientUnits="userSpaceOnUse" x1="1.397389e-05" y1="9.2765" x2="7.7701" y2="9.2765">
		<stop  offset="0" style="stop-color:#4EA146"/>
		<stop  offset="0.1846" style="stop-color:#54A347;stop-opacity:0.8154"/>
		<stop  offset="0.4074" style="stop-color:#64AA4D;stop-opacity:0.5926"/>
		<stop  offset="0.65" style="stop-color:#7CB559;stop-opacity:0.35"/>
		<stop  offset="0.905" style="stop-color:#9BC86F;stop-opacity:9.495759e-02"/>
		<stop  offset="1" style="stop-color:#A8D37A;stop-opacity:0"/>
	</linearGradient>
	<polygon fill="url(#SVGID_7_)" points="7.1,10.1 7.8,10.5 7.8,10.5 7.8,10.5 3.5,8 3.5,8 7.1,10.1 	"/>
	<polygon fill="#25A7D7" points="3.5,13 3.5,13 1.7,11.9 1.7,11.9 3.5,13 	"/>
	<linearGradient id="SVGID_8_" gradientUnits="userSpaceOnUse" x1="1.397389e-05" y1="12.4645" x2="7.7701" y2="12.4645">
		<stop  offset="0" style="stop-color:#4EA146"/>
		<stop  offset="0.1846" style="stop-color:#54A347;stop-opacity:0.8154"/>
		<stop  offset="0.4074" style="stop-color:#64AA4D;stop-opacity:0.5926"/>
		<stop  offset="0.65" style="stop-color:#7CB559;stop-opacity:0.35"/>
		<stop  offset="0.905" style="stop-color:#9BC86F;stop-opacity:9.495759e-02"/>
		<stop  offset="1" style="stop-color:#A8D37A;stop-opacity:0"/>
	</linearGradient>
	<polygon fill="url(#SVGID_8_)" points="3.5,13 3.5,13 1.7,11.9 1.7,11.9 3.5,13 	"/>
	<polygon fill="#50A246" points="3.5,13 3.5,8.1 3.5,8 3.5,8 7.8,10.5 7.8,6.4 0.1,2 0,10.9 1.7,11.9 	"/>
	<linearGradient id="SVGID_9_" gradientUnits="userSpaceOnUse" x1="4.651599e-04" y1="7.4853" x2="7.7701" y2="7.4853">
		<stop  offset="0" style="stop-color:#4EA146"/>
		<stop  offset="0.1846" style="stop-color:#54A347;stop-opacity:0.8154"/>
		<stop  offset="0.4074" style="stop-color:#64AA4D;stop-opacity:0.5926"/>
		<stop  offset="0.65" style="stop-color:#7CB559;stop-opacity:0.35"/>
		<stop  offset="0.905" style="stop-color:#9BC86F;stop-opacity:9.495759e-02"/>
		<stop  offset="1" style="stop-color:#A8D37A;stop-opacity:0"/>
	</linearGradient>
	<polygon fill="url(#SVGID_9_)" points="3.5,13 3.5,8.1 3.5,8 3.5,8 7.8,10.5 7.8,6.4 0.1,2 0,10.9 1.7,11.9 	"/>
	<polygon fill="#85BC41" points="7.1,10.1 3.5,8 3.5,8.1 7.1,10.1 	"/>
	<linearGradient id="SVGID_10_" gradientUnits="userSpaceOnUse" x1="1.397388e-05" y1="9.0826" x2="7.7701" y2="9.0826">
		<stop  offset="0" style="stop-color:#4EA146"/>
		<stop  offset="0.1846" style="stop-color:#54A347;stop-opacity:0.8154"/>
		<stop  offset="0.4074" style="stop-color:#64AA4D;stop-opacity:0.5926"/>
		<stop  offset="0.65" style="stop-color:#7CB559;stop-opacity:0.35"/>
		<stop  offset="0.905" style="stop-color:#9BC86F;stop-opacity:9.495759e-02"/>
		<stop  offset="1" style="stop-color:#A8D37A;stop-opacity:0"/>
	</linearGradient>
	<polygon fill="url(#SVGID_10_)" points="7.1,10.1 3.5,8 3.5,8.1 7.1,10.1 	"/>
	<linearGradient id="SVGID_11_" gradientUnits="userSpaceOnUse" x1="3.5301" y1="21.5371" x2="11.3044" y2="21.5371">
		<stop  offset="0" style="stop-color:#62B4BD"/>
		<stop  offset="1" style="stop-color:#2683C6;stop-opacity:0"/>
	</linearGradient>
	<polygon fill="url(#SVGID_11_)" points="3.5,23.7 11.3,19.4 11.3,19.4 3.5,23.7 	"/>
	<polygon fill="#53BFE3" points="7.1,17.7 7.1,13.7 7.1,13.7 7.1,12.8 3.5,14.8 3.5,23.7 11.3,19.4 11.3,17.4 11.3,15.3 	"/>
	<linearGradient id="SVGID_12_" gradientUnits="userSpaceOnUse" x1="3.5301" y1="18.247" x2="11.3044" y2="18.247">
		<stop  offset="0" style="stop-color:#62B4BD"/>
		<stop  offset="1" style="stop-color:#2683C6;stop-opacity:0"/>
	</linearGradient>
	<polygon fill="url(#SVGID_12_)" points="7.1,17.7 7.1,13.7 7.1,13.7 7.1,12.8 3.5,14.8 3.5,23.7 11.3,19.4 11.3,17.4 11.3,15.3 	
		"/>
	<polygon fill="#25A7D7" points="7.1,13.7 7.1,13.7 7.1,17.7 7.1,17.7 	"/>
	<linearGradient id="SVGID_13_" gradientUnits="userSpaceOnUse" x1="3.5301" y1="15.688" x2="11.3044" y2="15.688">
		<stop  offset="0" style="stop-color:#62B4BD"/>
		<stop  offset="1" style="stop-color:#2683C6;stop-opacity:0"/>
	</linearGradient>
	<polygon fill="url(#SVGID_13_)" points="7.1,13.7 7.1,13.7 7.1,17.7 7.1,17.7 	"/>
</g>
</svg>
