<?xml version="1.0" encoding="utf-8"?>
<!-- Generator: Adobe Illustrator 17.0.0, SVG Export Plug-In . SVG Version: 6.00 Build 0)  -->
<!DOCTYPE svg PUBLIC "-//W3C//DTD SVG 1.1//EN" "http://www.w3.org/Graphics/SVG/1.1/DTD/svg11.dtd">
<svg version="1.1" id="Layer_1" xmlns="http://www.w3.org/2000/svg" xmlns:xlink="http://www.w3.org/1999/xlink" x="0px" y="0px"
	 width="24px" height="24px" viewBox="0 0 24 24" enable-background="new 0 0 24 24" xml:space="preserve">
<path fill="currentColor" d="M11.76,20.721c1.119-0.011,1.978-0.13,2.816-0.401c0.703-0.227,1.366-0.535,1.992-0.928
	c0.419-0.263,0.824-0.546,1.176-0.894c0.285-0.283,0.56-0.577,0.83-0.874c0.317-0.35,0.578-0.741,0.795-1.16
	c0.132-0.257,0.253-0.519,0.39-0.773c0.214-0.396,0.303-0.831,0.416-1.26c0.283-1.075,0.267-2.158,0.061-3.238
	c-0.085-0.446-0.225-0.887-0.388-1.312c-0.201-0.523-0.462-1.024-0.78-1.486c-0.238-0.345-0.492-0.687-0.786-0.984
	c-0.374-0.378-0.792-0.714-1.199-1.059c-0.144-0.122-0.312-0.215-0.469-0.322c-0.015-0.01-0.028-0.023-0.041-0.036
	c-0.476-0.478-0.651-1.093-0.379-1.722c0.342-0.793,1.115-1.123,1.93-0.943c0.244,0.054,0.482,0.186,0.693,0.326
	c0.484,0.319,0.94,0.679,1.348,1.093c0.254,0.257,0.517,0.507,0.75,0.782c0.292,0.344,0.56,0.708,0.834,1.068
	c0.319,0.419,0.583,0.871,0.804,1.348c0.138,0.299,0.285,0.596,0.397,0.905c0.155,0.428,0.284,0.866,0.417,1.302
	c0.298,0.981,0.352,1.993,0.305,3.006c-0.029,0.629-0.112,1.259-0.227,1.878c-0.087,0.469-0.251,0.926-0.405,1.38
	c-0.103,0.303-0.231,0.601-0.381,0.883c-0.256,0.483-0.52,0.963-0.815,1.423c-0.231,0.36-0.493,0.706-0.778,1.024
	c-0.38,0.423-0.77,0.845-1.203,1.211c-0.496,0.419-1.027,0.805-1.575,1.154c-0.86,0.546-1.789,0.96-2.765,1.258
	c-1.374,0.419-2.78,0.573-4.214,0.497c-1.05-0.056-2.075-0.238-3.07-0.574c-0.471-0.159-0.931-0.358-1.385-0.564
	c-0.611-0.278-1.194-0.61-1.738-1.007c-0.223-0.163-0.45-0.319-0.665-0.492c-0.477-0.383-0.937-0.785-1.328-1.259
	c-0.244-0.296-0.491-0.589-0.725-0.893c-0.335-0.434-0.626-0.897-0.863-1.393c-0.105-0.22-0.23-0.431-0.319-0.657
	c-0.167-0.42-0.318-0.846-0.468-1.272c-0.263-0.742-0.349-1.517-0.402-2.296c-0.061-0.902-0.018-1.799,0.143-2.69
	c0.05-0.277,0.101-0.555,0.179-0.825c0.112-0.386,0.239-0.769,0.381-1.146c0.113-0.3,0.238-0.599,0.391-0.88
	c0.253-0.464,0.514-0.924,0.806-1.364C2.47,6.21,2.732,5.881,3.013,5.577c0.384-0.414,0.788-0.812,1.207-1.19
	c0.287-0.259,0.604-0.491,0.927-0.705C5.704,3.31,6.443,3.335,6.992,3.726C7.688,4.223,7.858,4.915,7.55,5.651
	c-0.105,0.25-0.28,0.47-0.521,0.626C6.865,6.382,6.704,6.496,6.562,6.628C6.21,6.954,5.852,7.275,5.531,7.63
	C5.263,7.926,5.027,8.256,4.808,8.591C4.624,8.874,4.467,9.178,4.329,9.487c-0.15,0.337-0.279,0.686-0.39,1.038
	c-0.411,1.301-0.402,2.622-0.118,3.941c0.094,0.435,0.26,0.858,0.419,1.276c0.104,0.273,0.238,0.539,0.393,0.787
	c0.248,0.393,0.507,0.782,0.796,1.146c0.232,0.293,0.501,0.56,0.776,0.814c0.48,0.443,1.012,0.823,1.585,1.138
	c0.869,0.478,1.789,0.824,2.772,0.973C11.038,20.672,11.519,20.698,11.76,20.721z"/>
<path fill="currentColor" d="M10.339,6.457c0-1.532-0.001-3.065,0.002-4.597c0-0.158,0.009-0.319,0.037-0.475
	c0.143-0.786,0.987-1.364,1.798-1.258c0.52,0.068,0.922,0.309,1.225,0.745c0.193,0.277,0.257,0.576,0.257,0.896
	c0.003,3.051,0.003,6.102-0.002,9.154c0,0.248-0.008,0.505-0.073,0.741c-0.158,0.569-0.726,1.015-1.316,1.094
	c-0.452,0.061-0.875-0.011-1.245-0.275c-0.357-0.254-0.634-0.587-0.657-1.047c-0.027-0.54-0.024-1.081-0.025-1.622
	C10.336,8.695,10.339,7.576,10.339,6.457z"/>
</svg>
