<?xml version="1.0" encoding="utf-8"?>
<!-- Generator: Adobe Illustrator 17.0.0, SVG Export Plug-In . SVG Version: 6.00 Build 0)  -->
<!DOCTYPE svg PUBLIC "-//W3C//DTD SVG 1.1//EN" "http://www.w3.org/Graphics/SVG/1.1/DTD/svg11.dtd">
<svg version="1.1" id="Layer_1" xmlns="http://www.w3.org/2000/svg" xmlns:xlink="http://www.w3.org/1999/xlink" x="0px" y="0px"
	 width="142.1px" height="22px" viewBox="0 0 142.1 22" enable-background="new 0 0 142.1 22" xml:space="preserve">
<g>
	<polygon fill="none" points="9.5,11 8.9,10.6 8.9,8.6 7.2,9.7 7.2,9.8 6.6,9.4 6.6,10.1 5,11.1 6.6,11.9 6.6,11.9 6.6,11.9 
		6.6,12.7 7.2,12.3 8.9,13.2 8.9,11.5 8.9,11.5 8.9,11.5 	"/>
	<polygon fill="#25A7D7" points="3.3,13.7 6.6,11.9 5,11.1 3.3,12.1 3.3,12.1 1.6,11.1 0,11.9 3.3,13.7 	"/>
	<polygon fill="#85BC41" points="7.2,6 7.2,9.7 7.2,9.7 8.9,8.6 8.9,6.8 8.9,6.8 8.9,6.8 10.6,5.9 10.6,4.1 7.2,5.9 	"/>
	<polygon fill="#7C2228" points="8.9,11.5 8.9,13.2 10.5,14.2 10.5,14.2 10.5,14.2 10.5,16.1 12,17.1 12,13.3 	"/>
	<polygon fill="#53BFE3" points="6.6,11.9 3.3,13.7 3.3,13.7 6.6,11.9 6.6,11.9 	"/>
	<polygon fill="#53BFE3" points="10.5,14.2 10.5,14.2 10.5,14.2 	"/>
	<polygon fill="#50A246" points="7.2,6 7.2,5.9 0.1,1.8 0.1,1.8 0.1,1.8 0,10.1 0,10.1 0.1,1.9 	"/>
	<polygon fill="#A51E25" points="9.5,11 8.9,11.5 8.9,11.5 9.6,11.1 	"/>
	<polygon fill="#A51E25" points="8.9,6.8 12.2,5 19.3,9.2 19.3,9.2 12.2,5 10.6,5.9 8.9,6.8 	"/>
	<polygon fill="#D32328" points="12,17.1 19.3,12.9 19.3,9.2 12,13.3 	"/>
	<polygon fill="#288D44" points="7.2,5.9 10.6,4.1 3.3,0 0.1,1.8 0.1,1.8 	"/>
	<polygon fill="#28A2C3" points="3.3,13.7 0,11.9 0,20.2 3.3,22 3.3,22 	"/>
	<polygon fill="#25A7D7" points="6.6,12.7 6.6,16.4 6.6,16.4 10.5,14.2 10.5,14.2 8.9,13.2 7.2,12.3 	"/>
	<polygon fill="#85BC41" points="6.6,9.4 3.3,7.5 3.3,12.1 3.3,12.1 5,11.1 6.6,10.1 	"/>
	<polygon fill="#7C2228" points="9.5,11 9.6,11.1 12.7,9.2 12.7,9.2 10.3,7.7 8.9,6.8 8.9,8.6 8.9,10.6 	"/>
	<linearGradient id="SVGID_1_" gradientUnits="userSpaceOnUse" x1="8.8598" y1="8.4134" x2="19.257" y2="8.4134">
		<stop  offset="0" style="stop-color:#A41E24"/>
		<stop  offset="0.1925" style="stop-color:#A92427;stop-opacity:0.8075"/>
		<stop  offset="0.4542" style="stop-color:#B7332F;stop-opacity:0.5458"/>
		<stop  offset="0.7542" style="stop-color:#D04C41;stop-opacity:0.2458"/>
		<stop  offset="1" style="stop-color:#F16758;stop-opacity:0"/>
	</linearGradient>
	<polygon fill="url(#SVGID_1_)" points="12.7,9.2 12.7,9.1 10.3,7.7 10.3,7.7 	"/>
	<linearGradient id="SVGID_2_" gradientUnits="userSpaceOnUse" x1="8.8599" y1="11.2431" x2="19.257" y2="11.2431">
		<stop  offset="0" style="stop-color:#A41E24"/>
		<stop  offset="0.1925" style="stop-color:#A92427;stop-opacity:0.8075"/>
		<stop  offset="0.4542" style="stop-color:#B7332F;stop-opacity:0.5458"/>
		<stop  offset="0.7542" style="stop-color:#D04C41;stop-opacity:0.2458"/>
		<stop  offset="1" style="stop-color:#F16758;stop-opacity:0"/>
	</linearGradient>
	<polygon fill="url(#SVGID_2_)" points="12,13.3 8.9,11.5 8.9,11.5 12,13.3 19.3,9.2 19.3,9.2 	"/>
	<polygon fill="#85BC41" points="10.3,7.7 8.9,6.8 8.9,6.8 10.3,7.7 	"/>
	<linearGradient id="SVGID_3_" gradientUnits="userSpaceOnUse" x1="8.8599" y1="7.2589" x2="19.257" y2="7.2589">
		<stop  offset="0" style="stop-color:#A41E24"/>
		<stop  offset="0.1925" style="stop-color:#A92427;stop-opacity:0.8075"/>
		<stop  offset="0.4542" style="stop-color:#B7332F;stop-opacity:0.5458"/>
		<stop  offset="0.7542" style="stop-color:#D04C41;stop-opacity:0.2458"/>
		<stop  offset="1" style="stop-color:#F16758;stop-opacity:0"/>
	</linearGradient>
	<polygon fill="url(#SVGID_3_)" points="10.3,7.7 8.9,6.8 8.9,6.8 10.3,7.7 	"/>
	<polygon fill="#A51E25" points="8.9,6.8 10.3,7.7 12.7,9.1 12.7,9.2 12.7,9.2 9.6,11.1 9.6,11.1 8.9,11.5 12,13.3 19.3,9.2 12.2,5 
			"/>
	<linearGradient id="SVGID_4_" gradientUnits="userSpaceOnUse" x1="8.8652" y1="9.151" x2="19.2624" y2="9.151">
		<stop  offset="0" style="stop-color:#A41E24"/>
		<stop  offset="0.1925" style="stop-color:#A92427;stop-opacity:0.8075"/>
		<stop  offset="0.4542" style="stop-color:#B7332F;stop-opacity:0.5458"/>
		<stop  offset="0.7542" style="stop-color:#D04C41;stop-opacity:0.2458"/>
		<stop  offset="1" style="stop-color:#F16758;stop-opacity:0"/>
	</linearGradient>
	<polygon fill="url(#SVGID_4_)" points="8.9,6.8 10.3,7.7 12.7,9.1 12.7,9.2 12.7,9.2 9.6,11.1 9.6,11.1 8.9,11.5 12,13.3 19.3,9.2 
		12.2,5 	"/>
	<polygon fill="#7C2228" points="9.6,11.1 12.7,9.2 9.6,11.1 	"/>
	<linearGradient id="SVGID_5_" gradientUnits="userSpaceOnUse" x1="8.8598" y1="10.1029" x2="19.257" y2="10.1029">
		<stop  offset="0" style="stop-color:#A41E24"/>
		<stop  offset="0.1925" style="stop-color:#A92427;stop-opacity:0.8075"/>
		<stop  offset="0.4542" style="stop-color:#B7332F;stop-opacity:0.5458"/>
		<stop  offset="0.7542" style="stop-color:#D04C41;stop-opacity:0.2458"/>
		<stop  offset="1" style="stop-color:#F16758;stop-opacity:0"/>
	</linearGradient>
	<polygon fill="url(#SVGID_5_)" points="9.6,11.1 12.7,9.2 9.6,11.1 	"/>
	<linearGradient id="SVGID_6_" gradientUnits="userSpaceOnUse" x1="-2.473806e-06" y1="10.6195" x2="7.2215" y2="10.6195">
		<stop  offset="0" style="stop-color:#4EA146"/>
		<stop  offset="0.1846" style="stop-color:#54A347;stop-opacity:0.8154"/>
		<stop  offset="0.4074" style="stop-color:#64AA4D;stop-opacity:0.5926"/>
		<stop  offset="0.65" style="stop-color:#7CB559;stop-opacity:0.35"/>
		<stop  offset="0.905" style="stop-color:#9BC86F;stop-opacity:9.495759e-02"/>
		<stop  offset="1" style="stop-color:#A8D37A;stop-opacity:0"/>
	</linearGradient>
	<polygon fill="url(#SVGID_6_)" points="0,10.1 0,10.2 1.6,11.1 1.6,11.1 	"/>
	<linearGradient id="SVGID_7_" gradientUnits="userSpaceOnUse" x1="9.820581e-06" y1="8.6217" x2="7.2215" y2="8.6217">
		<stop  offset="0" style="stop-color:#4EA146"/>
		<stop  offset="0.1846" style="stop-color:#54A347;stop-opacity:0.8154"/>
		<stop  offset="0.4074" style="stop-color:#64AA4D;stop-opacity:0.5926"/>
		<stop  offset="0.65" style="stop-color:#7CB559;stop-opacity:0.35"/>
		<stop  offset="0.905" style="stop-color:#9BC86F;stop-opacity:9.495759e-02"/>
		<stop  offset="1" style="stop-color:#A8D37A;stop-opacity:0"/>
	</linearGradient>
	<polygon fill="url(#SVGID_7_)" points="6.6,9.4 7.2,9.8 7.2,9.7 7.2,9.7 3.3,7.5 3.3,7.5 6.6,9.4 	"/>
	<polygon fill="#25A7D7" points="3.3,12.1 3.3,12.1 1.6,11.1 1.6,11.1 3.3,12.1 	"/>
	<linearGradient id="SVGID_8_" gradientUnits="userSpaceOnUse" x1="9.820589e-06" y1="11.5846" x2="7.2215" y2="11.5846">
		<stop  offset="0" style="stop-color:#4EA146"/>
		<stop  offset="0.1846" style="stop-color:#54A347;stop-opacity:0.8154"/>
		<stop  offset="0.4074" style="stop-color:#64AA4D;stop-opacity:0.5926"/>
		<stop  offset="0.65" style="stop-color:#7CB559;stop-opacity:0.35"/>
		<stop  offset="0.905" style="stop-color:#9BC86F;stop-opacity:9.495759e-02"/>
		<stop  offset="1" style="stop-color:#A8D37A;stop-opacity:0"/>
	</linearGradient>
	<polygon fill="url(#SVGID_8_)" points="3.3,12.1 3.3,12.1 1.6,11.1 1.6,11.1 3.3,12.1 	"/>
	<polygon fill="#50A246" points="3.3,12.1 3.3,7.5 3.3,7.5 3.3,7.5 7.2,9.7 7.2,6 0.1,1.9 0,10.1 1.6,11.1 	"/>
	<linearGradient id="SVGID_9_" gradientUnits="userSpaceOnUse" x1="4.291553e-04" y1="6.9568" x2="7.2215" y2="6.9568">
		<stop  offset="0" style="stop-color:#4EA146"/>
		<stop  offset="0.1846" style="stop-color:#54A347;stop-opacity:0.8154"/>
		<stop  offset="0.4074" style="stop-color:#64AA4D;stop-opacity:0.5926"/>
		<stop  offset="0.65" style="stop-color:#7CB559;stop-opacity:0.35"/>
		<stop  offset="0.905" style="stop-color:#9BC86F;stop-opacity:9.495759e-02"/>
		<stop  offset="1" style="stop-color:#A8D37A;stop-opacity:0"/>
	</linearGradient>
	<polygon fill="url(#SVGID_9_)" points="3.3,12.1 3.3,7.5 3.3,7.5 3.3,7.5 7.2,9.7 7.2,6 0.1,1.9 0,10.1 1.6,11.1 	"/>
	<polygon fill="#85BC41" points="6.6,9.4 3.3,7.5 3.3,7.5 6.6,9.4 	"/>
	<linearGradient id="SVGID_10_" gradientUnits="userSpaceOnUse" x1="9.820577e-06" y1="8.4414" x2="7.2215" y2="8.4414">
		<stop  offset="0" style="stop-color:#4EA146"/>
		<stop  offset="0.1846" style="stop-color:#54A347;stop-opacity:0.8154"/>
		<stop  offset="0.4074" style="stop-color:#64AA4D;stop-opacity:0.5926"/>
		<stop  offset="0.65" style="stop-color:#7CB559;stop-opacity:0.35"/>
		<stop  offset="0.905" style="stop-color:#9BC86F;stop-opacity:9.495759e-02"/>
		<stop  offset="1" style="stop-color:#A8D37A;stop-opacity:0"/>
	</linearGradient>
	<polygon fill="url(#SVGID_10_)" points="6.6,9.4 3.3,7.5 3.3,7.5 6.6,9.4 	"/>
	<linearGradient id="SVGID_11_" gradientUnits="userSpaceOnUse" x1="3.2809" y1="20.0167" x2="10.5063" y2="20.0167">
		<stop  offset="0" style="stop-color:#62B4BD"/>
		<stop  offset="1" style="stop-color:#2683C6;stop-opacity:0"/>
	</linearGradient>
	<polygon fill="url(#SVGID_11_)" points="3.3,22 10.5,18 10.5,18 3.3,22 	"/>
	<polygon fill="#53BFE3" points="6.6,16.4 6.6,12.8 6.6,12.7 6.6,11.9 3.3,13.7 3.3,22 10.5,18 10.5,16.1 10.5,14.2 	"/>
	<linearGradient id="SVGID_12_" gradientUnits="userSpaceOnUse" x1="3.2809" y1="16.9589" x2="10.5063" y2="16.9589">
		<stop  offset="0" style="stop-color:#62B4BD"/>
		<stop  offset="1" style="stop-color:#2683C6;stop-opacity:0"/>
	</linearGradient>
	<polygon fill="url(#SVGID_12_)" points="6.6,16.4 6.6,12.8 6.6,12.7 6.6,11.9 3.3,13.7 3.3,22 10.5,18 10.5,16.1 10.5,14.2 	"/>
	<polygon fill="#25A7D7" points="6.6,12.7 6.6,12.8 6.6,16.4 6.6,16.4 	"/>
	<linearGradient id="SVGID_13_" gradientUnits="userSpaceOnUse" x1="3.2809" y1="14.5805" x2="10.5063" y2="14.5805">
		<stop  offset="0" style="stop-color:#62B4BD"/>
		<stop  offset="1" style="stop-color:#2683C6;stop-opacity:0"/>
	</linearGradient>
	<polygon fill="url(#SVGID_13_)" points="6.6,12.7 6.6,12.8 6.6,16.4 6.6,16.4 	"/>
</g>
<g>
	<polygon fill="#FDFEFF" points="28.2,1.7 28,20.7 33.3,20.6 33.1,1.7 	"/>
	<polygon fill="#FDFEFF" points="44.3,1.7 44.1,11.5 40,1.7 35.7,1.7 35.5,20.6 40.3,20.7 40.3,11.3 44.5,20.6 49,20.7 48.9,1.7 	
		"/>
	<polygon fill="#FDFEFF" points="51,20.5 56.4,20.5 56.4,13.5 61.6,13.5 61.7,9.9 56.4,9.9 56.4,5.6 62.5,5.7 62.5,1.7 51.1,1.7 	
		"/>
	<polygon fill="#FDFEFF" points="64.2,1.7 64.2,20.5 69.2,20.5 69.1,1.7 	"/>
	<polygon fill="#FDFEFF" points="79.9,1.7 79.9,11 76.1,1.7 71.3,1.6 71.3,20.5 76.2,20.5 76.3,11.3 80.3,20.5 84.9,20.5 84.9,1.7 	
		"/>
	<polygon fill="#FDFEFF" points="87,20.5 92.4,20.5 92.4,1.7 87.1,1.7 	"/>
	<polygon fill="#FDFEFF" points="93.4,1.7 93.4,5.5 97.2,5.5 97.2,20.7 102.3,20.7 102.4,5.5 105.9,5.5 105.9,1.7 	"/>
	<path fill="#FDFEFF" d="M117.8,14c2.2-0.6,2.5-2.1,2.5-2.1s0-5.4,0-7.5c0-2.7-3.2-2.8-3.2-2.8l-9.9,0l0,19l5.2,0l0.1-6.4l3.1,6.5
		l6-0.1C121.5,20.6,117.6,14.1,117.8,14z M115,10.2c0,0.3-0.5,0.3-0.5,0.3h-2.1l0-5.2c0,0,2.2,0,2.2,0c0.2,0,0.3,0.4,0.3,0.4
		S115,10,115,10.2z"/>
	<polygon fill="#FDFEFF" points="122.1,1.6 122.1,20.6 127.4,20.6 127.4,1.6 	"/>
	<path fill="#FDFEFF" d="M142.1,12.1c0,0-0.1-2.5-2.5-2.5c-3,0-4.9,0-4.9,0s-0.1-3-0.1-3.7c0-1.2,2.1-1.2,2.2-0.1c0,1.3,0.1,2,0.1,2
		l5.2,0.1l-0.1-3.7c0,0,0-1.9-2.6-2.3s-7.2,0-7.2,0s-2.7,0.1-2.8,2.4c-0.1,2.4,0,6.3,0,6.3s0.2,2.5,3,2.6c1.7,0,4.5,0.1,4.5,0.1
		s0,3.1,0,3.4c0,0.6-1.9,0.7-2.1,0c0,0,0-2.1,0-2.1l-5.3,0v3.3c0,0,0.2,2.7,2.9,2.8c2.7,0.1,6.8,0,6.8,0s3.2-0.1,3.2-2.5
		C142.1,17.8,142.1,12.1,142.1,12.1z"/>
</g>
</svg>
