<?xml version="1.0" encoding="utf-8"?>
<!-- Generator: Adobe Illustrator 17.0.0, SVG Export Plug-In . SVG Version: 6.00 Build 0)  -->
<!DOCTYPE svg PUBLIC "-//W3C//DTD SVG 1.1//EN" "http://www.w3.org/Graphics/SVG/1.1/DTD/svg11.dtd">
<svg version="1.1" id="Layer_1" xmlns="http://www.w3.org/2000/svg" xmlns:xlink="http://www.w3.org/1999/xlink" x="0px" y="0px"
	 width="247.4px" height="143.8px" viewBox="0 0 247.4 143.8" enable-background="new 0 0 247.4 143.8" xml:space="preserve">
<g>
	<polygon fill="none" points="123.3,36.2 121,34.8 121,28.3 115.6,32 115.6,32.1 113.6,30.9 113.6,33.2 108.3,36.2 113.7,39 
		113.7,39 113.7,39.1 113.7,41.7 115.6,40.3 121,43.4 121,37.6 121,37.6 121,37.6 	"/>
	<polygon fill="#24A8D8" points="102.7,45.1 113.7,39 108.3,36.2 102.7,39.5 102.7,39.7 97.1,36.4 92,39.1 102.7,45.1 	"/>
	<polygon fill="#85BC41" points="115.6,19.5 115.6,31.9 115.6,32 121,28.3 121,22.4 121,22.4 121,22.4 126.7,19.2 126.7,13.3 
		115.6,19.4 	"/>
	<polygon fill="#7C2127" points="121,37.6 121,43.4 126.4,46.5 126.4,46.5 126.4,46.5 126.4,52.9 131.3,56.2 131.3,43.7 	"/>
	<polygon fill="#53C0E2" points="113.7,39 102.7,45.1 102.7,45.1 113.7,39.1 113.7,39 	"/>
	<polygon fill="#53C0E2" points="126.4,46.5 126.4,46.5 126.4,46.5 	"/>
	<polygon fill="#50A245" points="115.6,19.5 115.6,19.4 92.2,6 92.2,6 92.2,6 92,33.3 92,33.3 92.2,6.1 	"/>
	<polygon fill="#A51E24" points="123.3,36.2 121,37.6 121,37.6 123.3,36.2 	"/>
	<polygon fill="#A51E24" points="121,22.4 131.8,16.4 155.1,30.1 155.1,30.1 131.8,16.3 126.7,19.2 121,22.4 	"/>
	<polygon fill="#D42027" points="131.3,56.2 155.1,42.4 155.1,30.1 131.3,43.7 	"/>
	<polygon fill="#288D43" points="115.6,19.4 126.7,13.3 102.7,0 92.2,6 92.2,6 	"/>
	<polygon fill="#29A3C4" points="102.7,45.1 92,39.1 92,66.1 102.7,72.2 102.7,72.1 	"/>
	<polygon fill="#24A8D8" points="113.7,41.7 113.7,53.9 113.7,53.9 126.4,46.5 126.4,46.5 121,43.4 115.6,40.3 	"/>
	<polygon fill="#85BC41" points="113.6,30.9 102.7,24.6 102.7,39.5 102.7,39.5 108.3,36.2 113.6,33.2 	"/>
	<polygon fill="#7C2127" points="123.3,36.2 123.3,36.2 133.6,30 133.6,30 125.6,25.2 121,22.4 121,28.3 121,34.8 	"/>
	<linearGradient id="SVGID_1_" gradientUnits="userSpaceOnUse" x1="121.0041" y1="27.5844" x2="155.0923" y2="27.5844">
		<stop  offset="0" style="stop-color:#A41E24"/>
		<stop  offset="0.1877" style="stop-color:#A92426;stop-opacity:0.8123"/>
		<stop  offset="0.4429" style="stop-color:#B7332E;stop-opacity:0.5571"/>
		<stop  offset="0.7355" style="stop-color:#CF4A3F;stop-opacity:0.2645"/>
		<stop  offset="1" style="stop-color:#F26757;stop-opacity:0"/>
	</linearGradient>
	<polygon fill="url(#SVGID_1_)" points="133.6,30 133.6,30 125.6,25.2 125.6,25.2 	"/>
	<linearGradient id="SVGID_2_" gradientUnits="userSpaceOnUse" x1="121.0042" y1="36.8618" x2="155.0923" y2="36.8618">
		<stop  offset="0" style="stop-color:#A41E24"/>
		<stop  offset="0.1877" style="stop-color:#A92426;stop-opacity:0.8123"/>
		<stop  offset="0.4429" style="stop-color:#B7332E;stop-opacity:0.5571"/>
		<stop  offset="0.7355" style="stop-color:#CF4A3F;stop-opacity:0.2645"/>
		<stop  offset="1" style="stop-color:#F26757;stop-opacity:0"/>
	</linearGradient>
	<polygon fill="url(#SVGID_2_)" points="131.3,43.6 121,37.6 121,37.6 131.3,43.7 155.1,30.1 155.1,30.1 	"/>
	<polygon fill="#85BC41" points="125.6,25.2 121,22.4 121,22.4 125.6,25.2 	"/>
	<linearGradient id="SVGID_3_" gradientUnits="userSpaceOnUse" x1="121.0042" y1="23.7992" x2="155.0923" y2="23.7992">
		<stop  offset="0" style="stop-color:#A41E24"/>
		<stop  offset="0.1877" style="stop-color:#A92426;stop-opacity:0.8123"/>
		<stop  offset="0.4429" style="stop-color:#B7332E;stop-opacity:0.5571"/>
		<stop  offset="0.7355" style="stop-color:#CF4A3F;stop-opacity:0.2645"/>
		<stop  offset="1" style="stop-color:#F26757;stop-opacity:0"/>
	</linearGradient>
	<polygon fill="url(#SVGID_3_)" points="125.6,25.2 121,22.4 121,22.4 125.6,25.2 	"/>
	<polygon fill="#A51E24" points="121,22.4 125.6,25.2 133.6,30 133.6,30 133.6,30 123.3,36.2 123.3,36.2 121,37.6 131.3,43.6 
		155.1,30.1 131.8,16.4 	"/>
	<linearGradient id="SVGID_4_" gradientUnits="userSpaceOnUse" x1="121.0218" y1="30.0027" x2="155.11" y2="30.0027">
		<stop  offset="0" style="stop-color:#A41E24"/>
		<stop  offset="0.1877" style="stop-color:#A92426;stop-opacity:0.8123"/>
		<stop  offset="0.4429" style="stop-color:#B7332E;stop-opacity:0.5571"/>
		<stop  offset="0.7355" style="stop-color:#CF4A3F;stop-opacity:0.2645"/>
		<stop  offset="1" style="stop-color:#F26757;stop-opacity:0"/>
	</linearGradient>
	<polygon fill="url(#SVGID_4_)" points="121,22.4 125.6,25.2 133.6,30 133.6,30 133.6,30 123.3,36.2 123.3,36.2 121,37.6 
		131.3,43.6 155.1,30.1 131.8,16.4 	"/>
	<polygon fill="#7C2127" points="123.3,36.2 133.6,30 123.3,36.2 	"/>
	<linearGradient id="SVGID_5_" gradientUnits="userSpaceOnUse" x1="121.0041" y1="33.1234" x2="155.0923" y2="33.1234">
		<stop  offset="0" style="stop-color:#A41E24"/>
		<stop  offset="0.1877" style="stop-color:#A92426;stop-opacity:0.8123"/>
		<stop  offset="0.4429" style="stop-color:#B7332E;stop-opacity:0.5571"/>
		<stop  offset="0.7355" style="stop-color:#CF4A3F;stop-opacity:0.2645"/>
		<stop  offset="1" style="stop-color:#F26757;stop-opacity:0"/>
	</linearGradient>
	<polygon fill="url(#SVGID_5_)" points="123.3,36.2 133.6,30 123.3,36.2 	"/>
	<linearGradient id="SVGID_6_" gradientUnits="userSpaceOnUse" x1="91.9562" y1="34.8174" x2="115.6327" y2="34.8174">
		<stop  offset="0" style="stop-color:#4EA145"/>
		<stop  offset="0.1851" style="stop-color:#54A347;stop-opacity:0.8149"/>
		<stop  offset="0.4086" style="stop-color:#64A94C;stop-opacity:0.5914"/>
		<stop  offset="0.652" style="stop-color:#7CB558;stop-opacity:0.348"/>
		<stop  offset="0.9078" style="stop-color:#9CC86F;stop-opacity:9.221101e-02"/>
		<stop  offset="1" style="stop-color:#A9D379;stop-opacity:0"/>
	</linearGradient>
	<polygon fill="url(#SVGID_6_)" points="92,33.3 92,33.4 97.1,36.4 97.2,36.3 	"/>
	<linearGradient id="SVGID_7_" gradientUnits="userSpaceOnUse" x1="91.9562" y1="28.2671" x2="115.6327" y2="28.2671">
		<stop  offset="0" style="stop-color:#4EA145"/>
		<stop  offset="0.1851" style="stop-color:#54A347;stop-opacity:0.8149"/>
		<stop  offset="0.4086" style="stop-color:#64A94C;stop-opacity:0.5914"/>
		<stop  offset="0.652" style="stop-color:#7CB558;stop-opacity:0.348"/>
		<stop  offset="0.9078" style="stop-color:#9CC86F;stop-opacity:9.221101e-02"/>
		<stop  offset="1" style="stop-color:#A9D379;stop-opacity:0"/>
	</linearGradient>
	<polygon fill="url(#SVGID_7_)" points="113.6,30.9 115.6,32.1 115.6,32 115.6,31.9 102.7,24.4 102.7,24.5 113.6,30.8 	"/>
	<polygon fill="#24A8D8" points="102.7,39.5 102.7,39.5 97.2,36.3 97.1,36.4 102.7,39.7 	"/>
	<linearGradient id="SVGID_8_" gradientUnits="userSpaceOnUse" x1="91.9562" y1="37.9813" x2="115.6327" y2="37.9813">
		<stop  offset="0" style="stop-color:#4EA145"/>
		<stop  offset="0.1851" style="stop-color:#54A347;stop-opacity:0.8149"/>
		<stop  offset="0.4086" style="stop-color:#64A94C;stop-opacity:0.5914"/>
		<stop  offset="0.652" style="stop-color:#7CB558;stop-opacity:0.348"/>
		<stop  offset="0.9078" style="stop-color:#9CC86F;stop-opacity:9.221101e-02"/>
		<stop  offset="1" style="stop-color:#A9D379;stop-opacity:0"/>
	</linearGradient>
	<polygon fill="url(#SVGID_8_)" points="102.7,39.5 102.7,39.5 97.2,36.3 97.1,36.4 102.7,39.7 	"/>
	<polygon fill="#50A245" points="102.7,39.5 102.7,24.6 102.7,24.5 102.7,24.4 115.6,31.9 115.6,19.5 92.2,6.1 92,33.3 97.2,36.3 	
		"/>
	<linearGradient id="SVGID_9_" gradientUnits="userSpaceOnUse" x1="91.9576" y1="22.8087" x2="115.6328" y2="22.8087">
		<stop  offset="0" style="stop-color:#4EA145"/>
		<stop  offset="0.1851" style="stop-color:#54A347;stop-opacity:0.8149"/>
		<stop  offset="0.4086" style="stop-color:#64A94C;stop-opacity:0.5914"/>
		<stop  offset="0.652" style="stop-color:#7CB558;stop-opacity:0.348"/>
		<stop  offset="0.9078" style="stop-color:#9CC86F;stop-opacity:9.221101e-02"/>
		<stop  offset="1" style="stop-color:#A9D379;stop-opacity:0"/>
	</linearGradient>
	<polygon fill="url(#SVGID_9_)" points="102.7,39.5 102.7,24.6 102.7,24.5 102.7,24.4 115.6,31.9 115.6,19.5 92.2,6.1 92,33.3 
		97.2,36.3 	"/>
	<polygon fill="#85BC41" points="113.6,30.8 102.7,24.5 102.7,24.6 113.6,30.9 	"/>
	<linearGradient id="SVGID_10_" gradientUnits="userSpaceOnUse" x1="91.9562" y1="27.676" x2="115.6327" y2="27.676">
		<stop  offset="0" style="stop-color:#4EA145"/>
		<stop  offset="0.1851" style="stop-color:#54A347;stop-opacity:0.8149"/>
		<stop  offset="0.4086" style="stop-color:#64A94C;stop-opacity:0.5914"/>
		<stop  offset="0.652" style="stop-color:#7CB558;stop-opacity:0.348"/>
		<stop  offset="0.9078" style="stop-color:#9CC86F;stop-opacity:9.221101e-02"/>
		<stop  offset="1" style="stop-color:#A9D379;stop-opacity:0"/>
	</linearGradient>
	<polygon fill="url(#SVGID_10_)" points="113.6,30.8 102.7,24.5 102.7,24.6 113.6,30.9 	"/>
	<linearGradient id="SVGID_11_" gradientUnits="userSpaceOnUse" x1="102.7129" y1="65.6269" x2="126.4023" y2="65.6269">
		<stop  offset="0" style="stop-color:#62B5BE"/>
		<stop  offset="1" style="stop-color:#2484C6;stop-opacity:0"/>
	</linearGradient>
	<polygon fill="url(#SVGID_11_)" points="102.7,72.2 126.4,59.1 126.4,59.1 102.7,72.1 	"/>
	<polygon fill="#53C0E2" points="113.7,53.9 113.6,41.8 113.7,41.7 113.7,39.1 102.7,45.1 102.7,72.1 126.4,59.1 126.4,52.9 
		126.4,46.5 	"/>
	<linearGradient id="SVGID_12_" gradientUnits="userSpaceOnUse" x1="102.7129" y1="55.6015" x2="126.4023" y2="55.6015">
		<stop  offset="0" style="stop-color:#62B5BE"/>
		<stop  offset="1" style="stop-color:#2484C6;stop-opacity:0"/>
	</linearGradient>
	<polygon fill="url(#SVGID_12_)" points="113.7,53.9 113.6,41.8 113.7,41.7 113.7,39.1 102.7,45.1 102.7,72.1 126.4,59.1 
		126.4,52.9 126.4,46.5 	"/>
	<polygon fill="#24A8D8" points="113.7,41.7 113.6,41.8 113.7,53.9 113.7,53.9 	"/>
	<linearGradient id="SVGID_13_" gradientUnits="userSpaceOnUse" x1="102.7129" y1="47.8038" x2="126.4023" y2="47.8038">
		<stop  offset="0" style="stop-color:#62B5BE"/>
		<stop  offset="1" style="stop-color:#2484C6;stop-opacity:0"/>
	</linearGradient>
	<polygon fill="url(#SVGID_13_)" points="113.7,41.7 113.6,41.8 113.7,53.9 113.7,53.9 	"/>
</g>
<g>
	<polygon fill="#FDFDFE" points="0.3,102.4 0,143.6 11.4,143.5 11.1,102.4 	"/>
	<polygon fill="#FDFDFE" points="35.2,102.5 34.9,123.7 25.9,102.5 16.6,102.5 16.2,143.5 26.7,143.6 26.6,123.3 35.7,143.5 
		45.5,143.6 45.3,102.4 	"/>
	<polygon fill="#FDFDFE" points="49.9,143.2 61.4,143.2 61.5,128.1 72.9,128.1 72.9,120.3 61.6,120.2 61.6,111 74.7,111.1 
		74.7,102.4 49.9,102.4 	"/>
	<polygon fill="#FDFDFE" points="78.4,102.5 78.3,143.3 89.2,143.3 89.1,102.5 	"/>
	<polygon fill="#FDFDFE" points="112.5,102.4 112.5,122.6 104.1,102.4 93.7,102.4 93.8,143.2 104.5,143.3 104.6,123.3 113.3,143.3 
		123.3,143.2 123.2,102.5 	"/>
	<polygon fill="#FDFDFE" points="127.9,143.2 139.5,143.2 139.5,102.4 128,102.5 	"/>
	<polygon fill="#FDFDFE" points="141.7,102.4 141.7,110.7 150,110.7 150,143.6 160.9,143.6 161.3,110.7 168.9,110.7 168.8,102.4 	
		"/>
	<path fill="#FDFDFE" d="M194.6,129.2c4.8-1.4,5.3-4.6,5.3-4.6s0-11.6,0.1-16.3c0.1-5.8-7-6.1-7-6.1l-21.4,0.1l-0.1,41.2l11.3-0.1
		l0.2-13.8l6.7,14.1l13-0.3C202.6,143.4,194.2,129.3,194.6,129.2z M188.4,120.8c0,0.7-1,0.7-1,0.7h-4.6l0.1-11.2c0,0,4.8,0,4.9,0
		c0.5,0,0.7,0.9,0.7,0.9S188.4,120.5,188.4,120.8z"/>
	<polygon fill="#FDFDFE" points="204,102.2 204,143.5 215.5,143.5 215.4,102.2 	"/>
	<path fill="#FDFDFE" d="M247.2,125.1c0,0-0.2-5.5-5.3-5.5c-6.5,0-10.7,0-10.7,0s-0.3-6.6-0.2-8c0.1-2.6,4.6-2.5,4.7-0.1
		c0.1,2.9,0.2,4.3,0.2,4.3l11.2,0.2l-0.2-8.1c0,0,0-4.2-5.7-4.9c-5.7-0.8-15.7,0.1-15.7,0.1s-5.8,0.1-6,5.3
		c-0.2,5.2-0.1,13.6-0.1,13.6s0.3,5.5,6.4,5.6c3.7,0.1,9.7,0.1,9.7,0.1s0.1,6.8,0.1,7.5c-0.1,1.3-4.1,1.4-4.5,0.1
		c0-0.1-0.1-4.5-0.1-4.5l-11.6-0.1v7.1c0,0,0.4,5.8,6.3,6c5.8,0.2,14.7-0.1,14.7-0.1s6.9-0.3,6.8-5.4
		C247.3,137.3,247.2,125.1,247.2,125.1z"/>
</g>
</svg>
