<?xml version="1.0" encoding="utf-8"?>
<!-- Generator: Adobe Illustrator 17.0.0, SVG Export Plug-In . SVG Version: 6.00 Build 0)  -->
<!DOCTYPE svg PUBLIC "-//W3C//DTD SVG 1.1//EN" "http://www.w3.org/Graphics/SVG/1.1/DTD/svg11.dtd">
<svg version="1.1" id="Layer_1" xmlns="http://www.w3.org/2000/svg" xmlns:xlink="http://www.w3.org/1999/xlink" x="0px" y="0px"
	 width="24px" height="24px" viewBox="0 0 24 24" enable-background="new 0 0 24 24" xml:space="preserve">
<path fill="currentColor" d="M7.195,21.156c-2.59,0-4.689-2.099-4.689-4.689V7.285c0-2.59,2.099-4.689,4.689-4.689h8.887
	c2.59,0,4.689,2.099,4.689,4.689v3.819c0.903,0.335,1.727,0.825,2.437,1.439V5.961c0-3.281-2.66-5.941-5.94-5.941H6.009
	c-3.281,0-5.941,2.66-5.941,5.941v11.633c0,3.281,2.66,5.941,5.941,5.941h6.066c-0.639-0.691-1.151-1.496-1.504-2.378H7.195z"/>
<path fill="transparent" d="M16.239,2.267H7.037c-2.682,0-4.855,2.174-4.855,4.855v9.508c0,2.681,2.174,4.855,4.855,4.855h3.674
	c-0.361-0.903-0.739-1.884-0.739-2.911c0-4.428,3.676-8.018,8.211-8.018c1.025,0,2.006,0.341,2.911,0.676v-4.11
	C21.094,4.441,18.92,2.267,16.239,2.267z"/>
<path fill="currentColor" d="M17.959,12.315c-3.299,0-5.973,2.611-5.973,5.832c0,3.221,2.674,5.832,5.973,5.832s5.973-2.611,5.973-5.832
	C23.932,14.926,21.258,12.315,17.959,12.315z M20.434,19.368c-0.404,0.027-0.812,0.005-1.292,0.005c0,0.42,0.007,0.772-0.001,1.122
	c-0.019,0.803-0.507,1.33-1.228,1.334c-0.74,0.005-1.249-0.541-1.263-1.36c-0.006-0.337-0.001-0.674-0.001-1.092
	c-0.437,0-0.791,0.008-1.145-0.002c-0.756-0.021-1.287-0.517-1.305-1.21c-0.019-0.702,0.536-1.253,1.3-1.278
	c0.354-0.012,0.71-0.002,1.151-0.002c0-0.385-0.005-0.734,0.001-1.082c0.014-0.812,0.536-1.375,1.263-1.368
	c0.709,0.006,1.21,0.55,1.228,1.343c0.008,0.337,0.001,0.674,0.001,1.107c0.416,0,0.799-0.01,1.181,0.002
	c0.633,0.021,1.123,0.414,1.247,0.979C21.734,18.611,21.212,19.316,20.434,19.368z"/>
</svg>
