<?xml version="1.0" encoding="utf-8"?>
<!-- Generator: Adobe Illustrator 17.0.0, SVG Export Plug-In . SVG Version: 6.00 Build 0)  -->
<!DOCTYPE svg PUBLIC "-//W3C//DTD SVG 1.1//EN" "http://www.w3.org/Graphics/SVG/1.1/DTD/svg11.dtd">
<svg version="1.1" id="Layer_1" xmlns="http://www.w3.org/2000/svg" xmlns:xlink="http://www.w3.org/1999/xlink" x="0px" y="0px"
	 width="24px" height="24px" viewBox="0 0 24 24" enable-background="new 0 0 24 24" xml:space="preserve">
<path fill="currentColor" d="M21.506,6.657c0-2.738-2.22-4.958-4.958-4.958H7.15c-2.738,0-4.958,2.22-4.958,4.958v9.71
	c0,2.738,2.22,4.958,4.958,4.958h5.063c-0.493-0.533-0.89-1.15-1.181-1.821c-0.287-0.723-0.574-1.503-0.574-2.319
	c0-3.696,3.068-6.692,6.853-6.692c0.815,0,1.595,0.259,2.32,0.525c0.69,0.276,1.324,0.658,1.874,1.133V6.657z"/>
<path fill="currentColor" d="M17.125,11.96c-2.753,0-4.985,2.179-4.985,4.868c0,2.688,2.232,4.868,4.985,4.868s4.985-2.179,4.985-4.868
	C22.11,14.14,19.878,11.96,17.125,11.96z M19.191,17.847c-0.337,0.022-0.677,0.004-1.079,0.004c0,0.351,0.006,0.644-0.001,0.937
	c-0.016,0.67-0.423,1.11-1.025,1.113c-0.617,0.004-1.042-0.452-1.054-1.135c-0.005-0.281-0.001-0.563-0.001-0.911
	c-0.365,0-0.66,0.007-0.955-0.001c-0.631-0.017-1.074-0.431-1.09-1.01c-0.016-0.586,0.447-1.046,1.085-1.066
	c0.296-0.01,0.592-0.002,0.96-0.002c0-0.321-0.004-0.612,0.001-0.903c0.012-0.678,0.447-1.147,1.054-1.142
	c0.592,0.005,1.01,0.459,1.025,1.121c0.006,0.281,0.001,0.563,0.001,0.924c0.347,0,0.667-0.009,0.986,0.002
	c0.528,0.018,0.937,0.345,1.041,0.817C20.275,17.216,19.839,17.804,19.191,17.847z"/>
</svg>
