<?xml version="1.0" encoding="utf-8"?>
<!-- Generator: Adobe Illustrator 17.0.0, SVG Export Plug-In . SVG Version: 6.00 Build 0)  -->
<!DOCTYPE svg PUBLIC "-//W3C//DTD SVG 1.1//EN" "http://www.w3.org/Graphics/SVG/1.1/DTD/svg11.dtd">
<svg version="1.1" id="Layer_1" xmlns="http://www.w3.org/2000/svg" xmlns:xlink="http://www.w3.org/1999/xlink" x="0px" y="0px"
	 width="24px" height="24px" viewBox="0 0 24 24" enable-background="new 0 0 24 24" xml:space="preserve">
<path fill="currentColor" d="M8.239,19.26c-2.134,0-3.864-1.73-3.864-3.864V7.83c0-2.134,1.73-3.864,3.864-3.864h7.323
	c2.134,0,3.864,1.73,3.864,3.864v3.147c0.744,0.276,1.423,0.68,2.009,1.186V6.739c0-2.703-2.192-4.895-4.895-4.895H7.261
	c-2.703,0-4.895,2.192-4.895,4.895v9.586c0,2.703,2.192,4.895,4.895,4.895h4.998c-0.527-0.569-0.949-1.232-1.239-1.96H8.239z"/>
<path fill="currentColor" d="M15.692,3.695H8.109c-2.21,0-4.001,1.791-4.001,4.001v7.835c0,2.21,1.791,4.001,4.001,4.001h3.027
	c-0.297-0.744-0.609-1.552-0.609-2.399c0-3.649,3.029-6.607,6.766-6.607c0.845,0,1.653,0.281,2.399,0.557V7.696
	C19.692,5.486,17.901,3.695,15.692,3.695z"/>
<path fill="currentColor" d="M17.109,11.975c-2.718,0-4.922,2.152-4.922,4.806c0,2.654,2.204,4.806,4.922,4.806s4.922-2.152,4.922-4.806
	C22.031,14.126,19.827,11.975,17.109,11.975z M19.148,17.786c-0.333,0.022-0.669,0.004-1.065,0.004c0,0.346,0.006,0.636-0.001,0.925
	c-0.015,0.662-0.418,1.096-1.012,1.099c-0.609,0.004-1.029-0.446-1.04-1.121c-0.005-0.278-0.001-0.555-0.001-0.9
	c-0.36,0-0.652,0.007-0.943-0.001c-0.623-0.017-1.06-0.426-1.076-0.997c-0.016-0.578,0.442-1.032,1.071-1.053
	c0.292-0.01,0.585-0.002,0.948-0.002c0-0.317-0.004-0.605,0.001-0.892c0.012-0.669,0.442-1.133,1.041-1.128
	c0.585,0.005,0.997,0.453,1.012,1.107c0.006,0.278,0.001,0.556,0.001,0.912c0.343,0,0.658-0.009,0.973,0.002
	c0.521,0.018,0.926,0.341,1.028,0.807C20.219,17.163,19.789,17.744,19.148,17.786z"/>
</svg>
