<?xml version="1.0" encoding="utf-8"?>
<!-- Generator: Adobe Illustrator 17.0.0, SVG Export Plug-In . SVG Version: 6.00 Build 0)  -->
<!DOCTYPE svg PUBLIC "-//W3C//DTD SVG 1.1//EN" "http://www.w3.org/Graphics/SVG/1.1/DTD/svg11.dtd">
<svg version="1.1" id="Layer_1" xmlns="http://www.w3.org/2000/svg" xmlns:xlink="http://www.w3.org/1999/xlink" x="0px" y="0px"
	 width="24px" height="24px" viewBox="0 0 24 24" enable-background="new 0 0 24 24" xml:space="preserve">
<path fill="currentColor" d="M23.966,17.944c0,3.353-2.751,6.071-6.144,6.071H6.178c-3.393,0-6.144-2.718-6.144-6.071V6.056
	c0-3.353,2.751-6.071,6.144-6.071h11.645c3.393,0,6.144,2.718,6.144,6.071V17.944z"/>
<path fill="#currentColor" d="M21.445,16.793c0,2.646-2.171,4.792-4.85,4.792H7.404c-2.678,0-4.85-2.145-4.85-4.792V7.409
	c0-2.646,2.171-4.792,4.85-4.792h9.191c2.678,0,4.85,2.145,4.85,4.792V16.793z"/>
<path fill="#FFFFFF" d="M8.807,16.35l-3.344-3.496c0,0-1.093-1.071-0.101-1.918c0.989-0.844,1.991,0.355,1.991,0.355l2.571,2.525
	c0,0,0.131,0.093,0.19,0.09c0.059-0.004,0.163-0.111,0.163-0.111l6.268-6.205c0,0,1.225-1.299,2.173-0.445
	c0.935,0.842-0.366,2.172-0.366,2.172l-7.199,7.231c0,0-0.507,0.53-1.072,0.54C9.461,17.097,8.807,16.35,8.807,16.35z"/>
</svg>
