<?xml version="1.0" encoding="utf-8"?>
<!-- Generator: Adobe Illustrator 17.0.0, SVG Export Plug-In . SVG Version: 6.00 Build 0)  -->
<!DOCTYPE svg PUBLIC "-//W3C//DTD SVG 1.1//EN" "http://www.w3.org/Graphics/SVG/1.1/DTD/svg11.dtd">
<svg version="1.1" id="Layer_1" xmlns="http://www.w3.org/2000/svg" xmlns:xlink="http://www.w3.org/1999/xlink" x="0px" y="0px"
	 width="24px" height="24px" viewBox="0 0 24 24" enable-background="new 0 0 24 24" xml:space="preserve">
<g>
	<path fill="currentColor" d="M16.764,2.167H7.236c-2.777,0-5.028,2.225-5.028,4.968v9.729c0,2.744,2.252,4.968,5.028,4.968h9.529
		c2.777,0,5.028-2.225,5.028-4.968V7.136C21.793,4.391,19.541,2.167,16.764,2.167z M18.586,9.114l-7.464,7.497
		c0,0-0.526,0.55-1.111,0.56C9.368,17.18,8.69,16.405,8.69,16.405l-3.467-3.624c0,0-1.133-1.11-0.105-1.989
		c1.025-0.875,2.064,0.368,2.064,0.368l2.665,2.618c0,0,0.136,0.096,0.197,0.093c0.061-0.004,0.169-0.115,0.169-0.115l6.498-6.433
		c0,0,1.27-1.347,2.253-0.461C19.935,7.735,18.586,9.114,18.586,9.114z"/>
</g>
</svg>
