<?xml version="1.0" encoding="utf-8"?>
<!-- Generator: Adobe Illustrator 17.0.0, SVG Export Plug-In . SVG Version: 6.00 Build 0)  -->
<!DOCTYPE svg PUBLIC "-//W3C//DTD SVG 1.1//EN" "http://www.w3.org/Graphics/SVG/1.1/DTD/svg11.dtd">
<svg version="1.1" xmlns="http://www.w3.org/2000/svg" xmlns:xlink="http://www.w3.org/1999/xlink" x="0px" y="0px" width="24px"
	 height="24px" viewBox="0 0 24 24" enable-background="new 0 0 24 24" xml:space="preserve">
<g id="Layer_1">
	<g>
		<linearGradient id="SVGID_1_" gradientUnits="userSpaceOnUse" x1="1.453203e-05" y1="7.9839" x2="23.1951" y2="7.9839">
			<stop  offset="0" style="stop-color:#A0A3AA"/>
			<stop  offset="0.2621" style="stop-color:#C1C4C9"/>
			<stop  offset="0.5653" style="stop-color:#E0E3E6"/>
			<stop  offset="0.8221" style="stop-color:#F3F6F9"/>
			<stop  offset="1" style="stop-color:#FAFDFF"/>
		</linearGradient>
		<path fill="url(#SVGID_1_)" d="M7.839,8.657C8.948,7.403,11.546,3.7,11.546,3.7s2.525,3.759,3.664,5.002
			c0.944,1.031,4.087,3.356,4.436,3.613c0.02-0.014,0.033-0.023,0.033-0.023s-3.469-2.546-4.469-3.638
			c-1.139-1.243-3.664-5.002-3.664-5.002S8.948,7.355,7.839,8.61c-0.987,1.115-4.322,3.656-4.322,3.656s0.012,0.009,0.032,0.023
			C3.885,12.031,6.907,9.71,7.839,8.657z"/>
		<linearGradient id="SVGID_2_" gradientUnits="userSpaceOnUse" x1="2.231209e-07" y1="18.1424" x2="23.1951" y2="18.1424">
			<stop  offset="0" style="stop-color:#A0A3AA"/>
			<stop  offset="0.2621" style="stop-color:#C1C4C9"/>
			<stop  offset="0.5653" style="stop-color:#E0E3E6"/>
			<stop  offset="0.8221" style="stop-color:#F3F6F9"/>
			<stop  offset="1" style="stop-color:#FAFDFF"/>
		</linearGradient>
		<path fill="url(#SVGID_2_)" d="M16.487,17.41c-1.5,1.5-4.852,6.543-4.852,6.543s-3.646-5.172-5.146-6.656
			c-1.41-1.395-6.049-4.72-6.457-5.011C0.013,12.299,0,12.309,0,12.309s5.014,3.575,6.489,5.034C7.989,18.828,11.635,24,11.635,24
			s3.352-5.043,4.852-6.543c1.5-1.5,6.708-5.111,6.708-5.111s-0.014-0.01-0.033-0.024C22.739,12.616,17.92,15.976,16.487,17.41z"/>
		<linearGradient id="SVGID_3_" gradientUnits="userSpaceOnUse" x1="1.453203e-05" y1="12.0559" x2="23.1951" y2="12.0559">
			<stop  offset="0" style="stop-color:#A0A3AA"/>
			<stop  offset="0.2621" style="stop-color:#C1C4C9"/>
			<stop  offset="0.5653" style="stop-color:#E0E3E6"/>
			<stop  offset="0.8221" style="stop-color:#F3F6F9"/>
			<stop  offset="1" style="stop-color:#FAFDFF"/>
		</linearGradient>
		<path fill="url(#SVGID_3_)" d="M11.624,20.412c0,0,2.336-3.514,3.381-4.559c0.988-0.988,4.285-3.29,4.641-3.538
			c-0.349-0.257-3.492-2.582-4.436-3.613C14.07,7.459,11.546,3.7,11.546,3.7S8.948,7.403,7.839,8.657
			c-0.931,1.053-3.953,3.374-4.29,3.632c0.344,0.246,3.517,2.523,4.489,3.485C9.083,16.808,11.624,20.412,11.624,20.412z
			 M7.009,12.61c0.65-0.555,1.309,0.233,1.309,0.233l1.691,1.66c0,0,0.086,0.061,0.125,0.059c0.039-0.002,0.107-0.073,0.107-0.073
			l4.122-4.081c0,0,0.806-0.855,1.429-0.293c0.615,0.554-0.24,1.428-0.24,1.428L10.817,16.3c0,0-0.334,0.349-0.705,0.355
			c-0.407,0.007-0.837-0.484-0.837-0.484l-2.2-2.3C7.075,13.872,6.356,13.167,7.009,12.61z"/>
		<linearGradient id="SVGID_4_" gradientUnits="userSpaceOnUse" x1="3.5168" y1="12.0559" x2="19.6783" y2="12.0559">
			<stop  offset="0" style="stop-color:#A0A3AA"/>
			<stop  offset="0.0721" style="stop-color:#A5A8AE"/>
			<stop  offset="0.2102" style="stop-color:#BDC0C5"/>
			<stop  offset="0.3986" style="stop-color:#D8DBDF"/>
			<stop  offset="0.5914" style="stop-color:#EBEEF1"/>
			<stop  offset="0.7892" style="stop-color:#F6F9FB"/>
			<stop  offset="1" style="stop-color:#FAFDFF"/>
		</linearGradient>
		<path fill="url(#SVGID_4_)" d="M11.624,20.412c0,0,2.336-3.514,3.381-4.559c0.988-0.988,4.285-3.29,4.641-3.538
			c-0.349-0.257-3.492-2.582-4.436-3.613C14.07,7.459,11.546,3.7,11.546,3.7S8.948,7.403,7.839,8.657
			c-0.931,1.053-3.953,3.374-4.29,3.632c0.344,0.246,3.517,2.523,4.489,3.485C9.083,16.808,11.624,20.412,11.624,20.412z
			 M7.009,12.61c0.65-0.555,1.309,0.233,1.309,0.233l1.691,1.66c0,0,0.086,0.061,0.125,0.059c0.039-0.002,0.107-0.073,0.107-0.073
			l4.122-4.081c0,0,0.806-0.855,1.429-0.293c0.615,0.554-0.24,1.428-0.24,1.428L10.817,16.3c0,0-0.334,0.349-0.705,0.355
			c-0.407,0.007-0.837-0.484-0.837-0.484l-2.2-2.3C7.075,13.872,6.356,13.167,7.009,12.61z"/>
		<linearGradient id="SVGID_5_" gradientUnits="userSpaceOnUse" x1="2.231209e-07" y1="6.111" x2="23.1951" y2="6.111">
			<stop  offset="0" style="stop-color:#DCF1F9"/>
			<stop  offset="0.0506" style="stop-color:#DDEFF8"/>
			<stop  offset="0.487" style="stop-color:#E2E5F3"/>
			<stop  offset="0.5538" style="stop-color:#E1E5F3"/>
			<stop  offset="1" style="stop-color:#DDE4F3"/>
		</linearGradient>
		<path fill="url(#SVGID_5_)" d="M6.203,7.062c1.592-1.8,5.32-7.114,5.32-7.114s3.624,5.394,5.258,7.179
			c1.371,1.496,5.968,4.892,6.381,5.196c0.019-0.014,0.033-0.023,0.033-0.023s-4.978-3.654-6.414-5.221
			C15.147,5.294,11.523-0.1,11.523-0.1s-3.728,5.314-5.32,7.114C4.787,8.615,0,12.262,0,12.262s0.013,0.009,0.032,0.023
			C0.431,11.98,4.851,8.59,6.203,7.062z"/>
		<linearGradient id="SVGID_6_" gradientUnits="userSpaceOnUse" x1="1.453203e-05" y1="11.9499" x2="23.1951" y2="11.9499">
			<stop  offset="0" style="stop-color:#A0A3AA"/>
			<stop  offset="0.2621" style="stop-color:#C1C4C9"/>
			<stop  offset="0.5653" style="stop-color:#E0E3E6"/>
			<stop  offset="0.8221" style="stop-color:#F3F6F9"/>
			<stop  offset="1" style="stop-color:#FAFDFF"/>
		</linearGradient>
		<path fill="url(#SVGID_6_)" d="M11.635,23.953c0,0,3.352-5.043,4.852-6.543c1.433-1.434,6.253-4.794,6.675-5.088
			c-0.413-0.304-5.01-3.7-6.381-5.196c-1.634-1.784-5.258-7.179-5.258-7.179s-3.728,5.314-5.32,7.114
			C4.851,8.59,0.431,11.98,0.032,12.285c0.408,0.292,5.047,3.616,6.457,5.011C7.989,18.781,11.635,23.953,11.635,23.953z
			 M3.517,12.266c0,0,3.335-2.541,4.322-3.656c1.109-1.254,3.707-4.957,3.707-4.957s2.525,3.759,3.664,5.002
			c1,1.092,4.469,3.638,4.469,3.638s-0.013,0.009-0.033,0.023c0.021,0.015,0.033,0.024,0.033,0.024s-3.629,2.516-4.674,3.561
			c-1.045,1.045-3.381,4.559-3.381,4.559s-2.54-3.603-3.586-4.638c-1.028-1.017-4.521-3.508-4.521-3.508s0.012-0.009,0.032-0.024
			C3.529,12.275,3.517,12.266,3.517,12.266z"/>
		<linearGradient id="SVGID_7_" gradientUnits="userSpaceOnUse" x1="2.572313e-05" y1="11.9499" x2="23.1951" y2="11.9499">
			<stop  offset="0" style="stop-color:#DCF1F9"/>
			<stop  offset="0.0506" style="stop-color:#DDEFF8"/>
			<stop  offset="0.487" style="stop-color:#E2E5F3"/>
			<stop  offset="0.5538" style="stop-color:#E1E5F3"/>
			<stop  offset="1" style="stop-color:#DDE4F3"/>
		</linearGradient>
		<path fill="url(#SVGID_7_)" d="M11.635,23.953c0,0,3.352-5.043,4.852-6.543c1.433-1.434,6.253-4.794,6.675-5.088
			c-0.413-0.304-5.01-3.7-6.381-5.196c-1.634-1.784-5.258-7.179-5.258-7.179s-3.728,5.314-5.32,7.114
			C4.851,8.59,0.431,11.98,0.032,12.285c0.408,0.292,5.047,3.616,6.457,5.011C7.989,18.781,11.635,23.953,11.635,23.953z
			 M3.517,12.266c0,0,3.335-2.541,4.322-3.656c1.109-1.254,3.707-4.957,3.707-4.957s2.525,3.759,3.664,5.002
			c1,1.092,4.469,3.638,4.469,3.638s-0.013,0.009-0.033,0.023c0.021,0.015,0.033,0.024,0.033,0.024s-3.629,2.516-4.674,3.561
			c-1.045,1.045-3.381,4.559-3.381,4.559s-2.54-3.603-3.586-4.638c-1.028-1.017-4.521-3.508-4.521-3.508s0.012-0.009,0.032-0.024
			C3.529,12.275,3.517,12.266,3.517,12.266z"/>
		<linearGradient id="SVGID_8_" gradientUnits="userSpaceOnUse" x1="1.453203e-05" y1="16.374" x2="23.1951" y2="16.374">
			<stop  offset="0" style="stop-color:#A0A3AA"/>
			<stop  offset="0.2621" style="stop-color:#C1C4C9"/>
			<stop  offset="0.5653" style="stop-color:#E0E3E6"/>
			<stop  offset="0.8221" style="stop-color:#F3F6F9"/>
			<stop  offset="1" style="stop-color:#FAFDFF"/>
		</linearGradient>
		<path fill="url(#SVGID_8_)" d="M8.038,15.821c1.045,1.035,3.586,4.638,3.586,4.638s2.336-3.514,3.381-4.559
			c1.045-1.045,4.674-3.561,4.674-3.561s-0.012-0.009-0.033-0.024c-0.356,0.248-3.653,2.55-4.641,3.538
			c-1.045,1.045-3.381,4.559-3.381,4.559s-2.54-3.604-3.586-4.638c-0.972-0.962-4.145-3.239-4.489-3.485
			c-0.02,0.015-0.032,0.024-0.032,0.024S7.01,14.804,8.038,15.821z"/>
		<linearGradient id="SVGID_9_" gradientUnits="userSpaceOnUse" x1="3.5168" y1="16.374" x2="19.6783" y2="16.374">
			<stop  offset="0" style="stop-color:#A0A3AA"/>
			<stop  offset="0.0721" style="stop-color:#A5A8AE"/>
			<stop  offset="0.2102" style="stop-color:#BDC0C5"/>
			<stop  offset="0.3986" style="stop-color:#D8DBDF"/>
			<stop  offset="0.5914" style="stop-color:#EBEEF1"/>
			<stop  offset="0.7892" style="stop-color:#F6F9FB"/>
			<stop  offset="1" style="stop-color:#FAFDFF"/>
		</linearGradient>
		<path fill="url(#SVGID_9_)" d="M8.038,15.821c1.045,1.035,3.586,4.638,3.586,4.638s2.336-3.514,3.381-4.559
			c1.045-1.045,4.674-3.561,4.674-3.561s-0.012-0.009-0.033-0.024c-0.356,0.248-3.653,2.55-4.641,3.538
			c-1.045,1.045-3.381,4.559-3.381,4.559s-2.54-3.604-3.586-4.638c-0.972-0.962-4.145-3.239-4.489-3.485
			c-0.02,0.015-0.032,0.024-0.032,0.024S7.01,14.804,8.038,15.821z"/>
		<linearGradient id="SVGID_10_" gradientUnits="userSpaceOnUse" x1="2.572313e-05" y1="16.374" x2="23.1951" y2="16.374">
			<stop  offset="0" style="stop-color:#DCF1F9"/>
			<stop  offset="0.0506" style="stop-color:#DDEFF8"/>
			<stop  offset="0.487" style="stop-color:#E2E5F3"/>
			<stop  offset="0.5538" style="stop-color:#E1E5F3"/>
			<stop  offset="1" style="stop-color:#DDE4F3"/>
		</linearGradient>
		<path fill="url(#SVGID_10_)" d="M8.038,15.821c1.045,1.035,3.586,4.638,3.586,4.638s2.336-3.514,3.381-4.559
			c1.045-1.045,4.674-3.561,4.674-3.561s-0.012-0.009-0.033-0.024c-0.356,0.248-3.653,2.55-4.641,3.538
			c-1.045,1.045-3.381,4.559-3.381,4.559s-2.54-3.604-3.586-4.638c-0.972-0.962-4.145-3.239-4.489-3.485
			c-0.02,0.015-0.032,0.024-0.032,0.024S7.01,14.804,8.038,15.821z"/>
	</g>
</g>
<g id="Layer_1_copy" display="none">
	<polygon display="inline" fill="#629ED5" points="20.333,12.959 23.411,11.349 20.695,10.087 22.837,7.949 19.672,7.527 
		21.039,4.819 18.138,5.366 18.628,2.421 15.677,3.991 15.072,0.42 12.979,2.67 11.621,0 10.166,3.038 7.897,0.786 7.503,3.849 
		4.881,2.487 5.406,5.461 2.1,4.973 3.635,7.733 0.595,8.211 2.997,10.498 0,12.039 2.901,13.411 0.695,15.581 3.764,16.012 
		2.422,18.717 5.495,18.115 4.997,21.235 7.732,19.756 8.262,23.026 10.421,20.737 11.856,23.609 13.377,20.488 15.593,22.657 
		15.958,19.65 18.744,21.073 18.196,18.09 21.265,18.564 19.831,15.942 22.939,15.475 	"/>
	<path display="inline" fill="#ECECED" d="M8.728,16.404l-3.052-3.191c0,0-0.998-0.978-0.092-1.751
		c0.902-0.77,1.816,0.324,1.816,0.324l2.346,2.304c0,0,0.119,0.085,0.173,0.082s0.149-0.102,0.149-0.102l5.72-5.663
		c0,0,1.118-1.186,1.984-0.406c0.853,0.769-0.334,1.982-0.334,1.982l-6.57,6.6c0,0-0.463,0.484-0.979,0.493
		C9.325,17.085,8.728,16.404,8.728,16.404z"/>
</g>
</svg>
