<?xml version="1.0" encoding="utf-8"?>
<!-- Generator: Adobe Illustrator 17.0.0, SVG Export Plug-In . SVG Version: 6.00 Build 0)  -->
<!DOCTYPE svg PUBLIC "-//W3C//DTD SVG 1.1//EN" "http://www.w3.org/Graphics/SVG/1.1/DTD/svg11.dtd">
<svg version="1.1" id="Layer_1" xmlns="http://www.w3.org/2000/svg" xmlns:xlink="http://www.w3.org/1999/xlink" x="0px" y="0px"
	 width="24px" height="24px" viewBox="0 0 24 24" enable-background="new 0 0 24 24" xml:space="preserve">
<path fill="currentColor" d="M20.454,5.412c-0.001-0.299-0.157-0.665-0.364-0.883c-1.116-1.175-2.253-2.331-3.424-3.45
	c-0.245-0.234-0.66-0.406-0.999-0.409C12.06,0.641,8.453,0.651,4.846,0.653C3.775,0.654,3.538,0.897,3.537,1.994
	c-0.002,3.264-0.001,6.529-0.001,9.793c0,3.287-0.002,6.575,0.001,9.862c0.001,1.043,0.266,1.324,1.278,1.325
	c4.794,0.004,9.588,0.004,14.382,0c0.98-0.001,1.271-0.293,1.271-1.263C20.471,16.278,20.475,10.845,20.454,5.412z M6.01,9.55
	C5.916,9.484,5.872,9.38,5.872,9.38L5.858,6.144c0,0-0.007-0.13,0.087-0.232c0.096-0.104,0.307-0.118,0.307-0.118h0.174l-0.009-1.76
	c0,0,0.019-0.526,0.622-0.92C7.32,2.931,7.678,2.701,8.356,2.701c0.679,0,1.036,0.23,1.317,0.414c0.603,0.394,0.622,0.92,0.622,0.92
	l-0.009,1.76h0.285c0,0,0.212,0.032,0.291,0.104c0.092,0.084,0.121,0.219,0.121,0.219v3.274c0,0-0.031,0.116-0.119,0.17
	c-0.071,0.044-0.24,0.062-0.24,0.062H6.288C6.288,9.624,6.127,9.631,6.01,9.55z M12.003,11.23c1.533,0,3.066,0.001,4.599-0.001
	c0.447,0,0.956-0.038,0.947,0.6c-0.008,0.581-0.481,0.567-0.91,0.567c-3.09-0.002-6.181-0.002-9.272,0
	c-0.428,0-0.901,0.016-0.91-0.565c-0.01-0.638,0.498-0.601,0.946-0.601C8.937,11.232,10.47,11.23,12.003,11.23z M7.294,13.833
	c3.139-0.003,6.278-0.003,9.416,0c0.403,0,0.831,0.033,0.843,0.573c0.014,0.611-0.457,0.589-0.878,0.59
	c-1.557,0.003-3.114,0.001-4.672,0.001c-1.557,0-3.114,0.002-4.672-0.001c-0.421-0.001-0.892,0.023-0.88-0.588
	C6.464,13.868,6.889,13.833,7.294,13.833z M13.561,20.266c-1.067,0.062-2.139,0.026-3.209,0.026c-1.046,0-2.092-0.004-3.138,0.002
	c-0.409,0.003-0.753-0.094-0.762-0.572c-0.009-0.475,0.321-0.596,0.737-0.596c2.14,0.003,4.281,0.003,6.421,0
	c0.418-0.001,0.803,0.153,0.697,0.598C14.253,19.959,13.832,20.251,13.561,20.266z M16.686,17.804
	c-3.138,0.003-6.277,0.014-9.415-0.022c-0.277-0.003-0.724-0.28-0.789-0.514c-0.142-0.516,0.293-0.628,0.725-0.628
	c1.606,0,3.211,0,4.817,0c1.557,0,3.114-0.002,4.671,0.001c0.396,0.001,0.842-0.017,0.857,0.538
	C17.571,17.766,17.119,17.804,16.686,17.804z M15.958,5.566c-0.151,0-0.302-0.028-0.506-0.048c0-1.395,0-2.76,0-3.9
	c1.267,1.194,2.653,2.499,4.193,3.95C18.275,5.568,17.116,5.569,15.958,5.566z"/>
<path fill="currentColor" d="M8.966,7.276c0-0.183-0.157-0.462-0.538-0.462c-0.383,0-0.535,0.258-0.534,0.451
	C7.895,7.643,8.2,7.768,8.2,7.768L8.028,8.62c0,0-0.002,0.011,0.013,0.022c0.007,0.005,0.042,0.005,0.042,0.005H8.77
	c0,0,0.03,0,0.044-0.006C8.821,8.638,8.824,8.62,8.824,8.62L8.678,7.771C8.678,7.771,8.967,7.634,8.966,7.276z"/>
<path fill="currentColor" d="M9.248,3.622C9.056,3.47,8.926,3.361,8.41,3.343H8.303C7.787,3.361,7.656,3.47,7.464,3.622
	c-0.22,0.173-0.251,0.446-0.251,0.446l-0.02,1.726h2.325l-0.02-1.726C9.499,4.069,9.468,3.796,9.248,3.622z"/>
</svg>
