<?xml version="1.0" encoding="utf-8"?>
<!-- Generator: Adobe Illustrator 17.0.0, SVG Export Plug-In . SVG Version: 6.00 Build 0)  -->
<!DOCTYPE svg PUBLIC "-//W3C//DTD SVG 1.1//EN" "http://www.w3.org/Graphics/SVG/1.1/DTD/svg11.dtd">
<svg version="1.1" id="Layer_1" xmlns="http://www.w3.org/2000/svg" xmlns:xlink="http://www.w3.org/1999/xlink" x="0px" y="0px"
	 width="24px" height="24px" viewBox="0 0 24 24" enable-background="new 0 0 24 24" xml:space="preserve">
<path fill="currentColor" d="M18.385,7.359c-0.001-0.225-0.119-0.502-0.275-0.667c-0.842-0.887-1.702-1.76-2.586-2.606
	c-0.185-0.177-0.499-0.306-0.754-0.309c-2.724-0.022-5.448-0.015-8.171-0.013c-0.809,0-0.988,0.184-0.989,1.013
	c-0.002,2.465-0.001,4.93-0.001,7.396c0,2.482-0.001,4.965,0.001,7.447c0.001,0.788,0.201,1,0.965,1.001
	c3.62,0.003,7.241,0.003,10.861,0c0.74-0.001,0.96-0.221,0.96-0.954C18.398,15.564,18.401,11.461,18.385,7.359z M7.478,10.483
	c-0.071-0.05-0.105-0.128-0.105-0.128l-0.01-2.443c0,0-0.005-0.098,0.066-0.175C7.501,7.657,7.66,7.647,7.66,7.647h0.131
	L7.785,6.318c0,0,0.015-0.398,0.47-0.695c0.212-0.138,0.482-0.312,0.994-0.312c0.513,0,0.782,0.174,0.995,0.312
	c0.455,0.297,0.47,0.695,0.47,0.695l-0.007,1.329h0.215c0,0,0.16,0.024,0.22,0.079c0.069,0.064,0.091,0.165,0.091,0.165v2.472
	c0,0-0.024,0.088-0.09,0.128c-0.054,0.033-0.181,0.047-0.181,0.047H7.687C7.687,10.539,7.566,10.545,7.478,10.483z M12.003,11.753
	c1.158,0,2.316,0.001,3.473,0c0.338,0,0.722-0.029,0.715,0.453c-0.006,0.438-0.363,0.428-0.687,0.428
	c-2.334-0.002-4.668-0.002-7.002,0c-0.323,0-0.68,0.012-0.687-0.427c-0.008-0.482,0.376-0.454,0.714-0.454
	C9.687,11.753,10.845,11.753,12.003,11.753z M8.447,13.718c2.37-0.002,4.741-0.003,7.111,0c0.305,0,0.627,0.025,0.637,0.433
	c0.011,0.461-0.345,0.445-0.663,0.445c-1.176,0.002-2.352,0.001-3.528,0.001c-1.176,0-2.352,0.001-3.528-0.001
	c-0.318-0.001-0.674,0.018-0.664-0.444C7.82,13.745,8.141,13.718,8.447,13.718z M13.18,18.576c-0.805,0.047-1.615,0.019-2.424,0.019
	c-0.79,0-1.58-0.003-2.369,0.002c-0.309,0.002-0.569-0.071-0.575-0.432c-0.007-0.359,0.242-0.45,0.556-0.45
	c1.616,0.003,3.233,0.002,4.849,0c0.316,0,0.607,0.115,0.527,0.451C13.702,18.345,13.384,18.564,13.18,18.576z M15.54,16.717
	c-2.37,0.002-4.74,0.011-7.11-0.016c-0.209-0.002-0.547-0.212-0.595-0.388c-0.107-0.39,0.221-0.474,0.548-0.474
	c1.213,0,2.425,0,3.638,0c1.176,0,2.352-0.001,3.528,0c0.299,0,0.635-0.013,0.647,0.407C16.208,16.688,15.866,16.717,15.54,16.717z
	 M14.99,7.475c-0.114,0-0.228-0.021-0.382-0.036c0-1.053,0-2.084,0-2.945c0.957,0.901,2.003,1.887,3.167,2.983
	C16.739,7.476,15.865,7.477,14.99,7.475z"/>
<path fill="currentColor" d="M9.71,8.766c0-0.139-0.119-0.349-0.406-0.349C9.014,8.418,8.9,8.612,8.9,8.758
	c0.001,0.285,0.231,0.379,0.231,0.379l-0.13,0.644c0,0-0.001,0.009,0.01,0.016c0.005,0.004,0.032,0.004,0.032,0.004h0.519
	c0,0,0.023,0,0.033-0.005C9.6,9.795,9.602,9.781,9.602,9.781L9.492,9.14C9.492,9.14,9.71,9.036,9.71,8.766z"/>
<path fill="currentColor" d="M9.923,6.007C9.778,5.892,9.679,5.809,9.289,5.796h-0.08c-0.39,0.013-0.488,0.096-0.633,0.211
	C8.41,6.138,8.386,6.344,8.386,6.344L8.371,7.647h1.756l-0.015-1.303C10.112,6.344,10.089,6.138,9.923,6.007z"/>
</svg>
