<svg version="1.1" id="Layer_1" xmlns="http://www.w3.org/2000/svg" xmlns:xlink="http://www.w3.org/1999/xlink" x="0px" y="0px"
	 width="24px" height="24px" viewBox="0 0 40 55" enable-background="new 0 0 40 55" xml:space="preserve">
<path fill="currentColor" d="M37.049,43.034c-4.688,3.644-10.565,5.827-16.931,5.847c-6.449,0.021-12.419-2.203-17.166-5.93
	c0,0,0.632-2.038,0.925-2.685c6.126-13.504,26.451-13.416,32.296-0.009C36.463,40.925,37.049,43.034,37.049,43.034z"/>
<path fill="currentColor" d="M19.942,27.113c-5.792-0.04-10.476-4.837-10.404-10.656C9.608,10.715,14.293,6.117,20.07,6.119
	c5.817,0.002,10.569,4.777,10.505,10.555C30.51,22.498,25.768,27.153,19.942,27.113z"/>
</svg>
