<?xml version="1.0" encoding="utf-8"?>
<!-- Generator: Adobe Illustrator 17.0.0, SVG Export Plug-In . SVG Version: 6.00 Build 0)  -->
<!DOCTYPE svg PUBLIC "-//W3C//DTD SVG 1.1//EN" "http://www.w3.org/Graphics/SVG/1.1/DTD/svg11.dtd">
<svg version="1.1" id="Layer_1" xmlns="http://www.w3.org/2000/svg" xmlns:xlink="http://www.w3.org/1999/xlink" x="0px" y="0px"
	 width="24px" height="24px" viewBox="0 0 24 24" enable-background="new 0 0 24 24" xml:space="preserve">
<g>
	<path fill="currentColor" d="M12.932,0.094c0.437,0.062,0.876,0.113,1.31,0.189c2.081,0.367,3.927,1.241,5.549,2.591
		c0.239,0.199,0.466,0.411,0.699,0.617c0.005,0.005,0.015,0.004,0.042,0.011c0.245-0.368,0.491-0.744,0.745-1.114
		c0.305-0.444,0.748-0.567,1.17-0.323c0.336,0.195,0.421,0.518,0.418,0.878c-0.008,1.183-0.02,2.365-0.027,3.548
		c-0.005,0.887-0.005,1.774-0.009,2.661c-0.004,0.745-0.592,1.126-1.275,0.82c-1.891-0.848-3.78-1.7-5.67-2.549
		c-0.355-0.159-0.592-0.405-0.595-0.811c-0.003-0.33,0.148-0.604,0.448-0.732c0.238-0.101,0.509-0.126,0.766-0.179
		c0.157-0.032,0.316-0.052,0.474-0.078c0.007-0.02,0.014-0.041,0.021-0.061c-0.351-0.221-0.691-0.463-1.055-0.658
		c-1.502-0.806-3.105-1.13-4.796-0.895C8.213,4.417,6.108,5.986,4.802,8.632c-0.223,0.451-0.44,0.893-0.89,1.165
		c-0.739,0.448-1.651,0.37-2.294-0.2C0.978,9.031,0.798,8.13,1.165,7.319c1.455-3.222,3.844-5.43,7.18-6.605
		c0.89-0.313,1.811-0.49,2.751-0.573c0.084-0.007,0.166-0.031,0.249-0.046C11.874,0.094,12.403,0.094,12.932,0.094z"/>
	<path fill="currentColor" d="M11.345,24c-0.437-0.062-0.876-0.113-1.31-0.189c-2.081-0.367-3.927-1.241-5.549-2.591
		c-0.239-0.199-0.466-0.411-0.699-0.617c-0.005-0.005-0.015-0.004-0.042-0.011C3.5,20.959,3.254,21.335,3,21.705
		c-0.305,0.444-0.749,0.568-1.17,0.323c-0.336-0.195-0.421-0.518-0.418-0.878c0.008-1.183,0.02-2.365,0.027-3.548
		c0.005-0.887,0.005-1.774,0.009-2.661c0.004-0.745,0.592-1.127,1.275-0.821c1.891,0.848,3.78,1.701,5.67,2.549
		c0.355,0.159,0.592,0.405,0.595,0.811c0.003,0.33-0.148,0.604-0.448,0.732c-0.238,0.102-0.509,0.126-0.766,0.179
		c-0.157,0.032-0.316,0.052-0.494,0.138c0.331,0.209,0.651,0.438,0.993,0.625c1.51,0.828,3.126,1.166,4.834,0.932
		c3.001-0.411,5.134-2.026,6.424-4.752c0.296-0.625,0.697-1.108,1.389-1.269c0.773-0.18,1.441,0.04,1.942,0.653
		c0.508,0.622,0.577,1.325,0.247,2.056c-1.452,3.223-3.843,5.431-7.179,6.605c-0.89,0.313-1.811,0.49-2.751,0.573
		c-0.084,0.007-0.166,0.031-0.249,0.046C12.403,24,11.874,24,11.345,24z"/>
</g>
</svg>
