<?xml version="1.0" encoding="utf-8"?>
<!-- Generator: Adobe Illustrator 17.0.0, SVG Export Plug-In . SVG Version: 6.00 Build 0)  -->
<!DOCTYPE svg PUBLIC "-//W3C//DTD SVG 1.1//EN" "http://www.w3.org/Graphics/SVG/1.1/DTD/svg11.dtd">
<svg version="1.1" id="Layer_1" xmlns="http://www.w3.org/2000/svg" xmlns:xlink="http://www.w3.org/1999/xlink" x="0px" y="0px"
	 width="24px" height="24px" viewBox="0 0 24 24" enable-background="new 0 0 24 24" xml:space="preserve">
<path opacity="0.8" fill="#F9F8F7" d="M13.305,11.956c-1.533,1.54-3.004,3.026-4.484,4.502c-1.423,1.42-1.615,1.632-3.019,3.075
	c-1.12,1.151-1.237,2.565-0.258,3.587c0.977,1.021,2.433,0.959,3.587-0.183c3.449-3.413,5.63-5.661,9.069-9.083
	c1.237-1.231,1.25-2.537,0.02-3.762c-3.457-3.445-5.664-5.633-9.134-9.065C7.977-0.071,6.542-0.13,5.568,0.855
	C4.587,1.847,4.631,3.296,5.715,4.379c2.763,2.759,4.281,4.255,7.051,7.006C12.928,11.546,13.08,11.717,13.305,11.956z"/>
</svg>
