<?xml version="1.0" encoding="utf-8"?>
<!-- Generator: Adobe Illustrator 17.0.0, SVG Export Plug-In . SVG Version: 6.00 Build 0)  -->
<!DOCTYPE svg PUBLIC "-//W3C//DTD SVG 1.1//EN" "http://www.w3.org/Graphics/SVG/1.1/DTD/svg11.dtd">
<svg version="1.1" id="Layer_1" xmlns="http://www.w3.org/2000/svg" xmlns:xlink="http://www.w3.org/1999/xlink" x="0px" y="0px"
	 width="24px" height="24px" viewBox="0 0 24 24" enable-background="new 0 0 24 24" xml:space="preserve">
<path fill="#FDFDFE" d="M16.392,8.771C16.723,8.772,16.783,8.8,17.141,8.8c-0.194,1.034-0.415,1.236-1.064,1.562
	c-0.001,0.003-0.001,0.005-0.002,0.008c0.663-0.331,0.885-0.527,1.08-1.57C16.791,8.8,16.739,8.771,16.392,8.771
	C16.392,8.771,16.392,8.771,16.392,8.771z"/>
<path fill="#FDFDFE" d="M20.664,13.16l3.091-1.617l-2.727-1.268l2.152-2.148l-3.179-0.424l1.373-2.72L18.46,5.533l0.493-2.957
	l-2.965,1.577l-0.607-3.587l-2.102,2.26l-1.363-2.682l-1.461,3.051L8.175,0.934L7.78,4.011L5.146,2.642l0.527,2.987l-3.32-0.49
	l1.541,2.772l-3.053,0.48l2.412,2.297l-3.01,1.547l2.913,1.379l-2.215,2.179l3.082,0.433l-1.348,2.716l3.085-0.604l-0.499,3.133
	l2.746-1.485l0.532,3.285l2.169-2.299l1.441,2.884l1.528-3.134l2.225,2.178l0.367-3.021l2.798,1.429l-0.55-2.996l3.082,0.477
	l-1.44-2.633l3.121-0.469L20.664,13.16z M17.715,10.449c-0.549,0.846-1.331,1.363-2.314,1.644c-0.476,0.971-1.248,1.626-2.305,1.939
	c0.005,0.603,0.01,1.207,0.015,1.81c0.256,0.114,0.53,0.198,0.765,0.346c0.856,0.538,1.393,1.3,1.547,2.313
	c0.024,0.16,0.067,0.316,0.116,0.545c-2.246,0.004-4.443,0.008-6.64,0.012c-0.029-0.104-0.096-0.214-0.08-0.311
	c0.178-1.125,0.682-2.041,1.715-2.606c0.187-0.102,0.377-0.2,0.566-0.3c0.001-0.605,0.001-1.21,0.002-1.815
	c-0.221-0.102-0.451-0.19-0.662-0.309c-0.558-0.316-1.018-0.738-1.344-1.3c-0.082-0.141-0.192-0.265-0.29-0.397
	c-0.892-0.16-1.536-0.721-2.038-1.407C6.085,9.679,5.836,8.592,5.899,7.43c0.326-0.2,0.666-0.08,0.989-0.101
	c0.332-0.022,0.667-0.008,1-0.009C7.892,7.219,7.896,7.117,7.9,7.016c0-0.415,0-0.83,0-1.274c0.095-0.014,0.188-0.039,0.281-0.039
	c2.748,0,5.496,0.002,8.244,0.004c0,0.435,0,0.871,0.001,1.306c0.011,0.095,0.021,0.189,0.034,0.304c0.605,0,1.187,0,1.768,0
	c0.048,0.009,0.097,0.018,0.182,0.034c0.013,0.217,0.026,0.441,0.039,0.666C18.413,8.891,18.194,9.708,17.715,10.449z"/>
<path fill="#FDFDFE" d="M7.145,8.627c0.196,1.043,0.418,1.239,1.08,1.57C8.06,9.327,8.067,9.434,7.908,8.598
	C7.562,8.598,7.509,8.627,7.145,8.627z"/>
<path fill="#FDFDFE" d="M17.141,8.8c-0.358,0-0.418-0.028-0.749-0.029c-0.158,0.832-0.152,0.73-0.315,1.59
	C16.726,10.035,16.947,9.834,17.141,8.8z"/>
<path fill="#FDFDFE" d="M16.378,8.771c-0.158,0.835-0.152,0.729-0.317,1.599c0.006-0.003,0.01-0.005,0.016-0.008
	c0.163-0.86,0.158-0.758,0.315-1.59C16.386,8.771,16.383,8.771,16.378,8.771z"/>
</svg>
