<?xml version="1.0" encoding="utf-8"?>
<!-- Generator: Adobe Illustrator 17.0.0, SVG Export Plug-In . SVG Version: 6.00 Build 0)  -->
<!DOCTYPE svg PUBLIC "-//W3C//DTD SVG 1.1//EN" "http://www.w3.org/Graphics/SVG/1.1/DTD/svg11.dtd">
<svg version="1.1" id="Layer_1" xmlns="http://www.w3.org/2000/svg" xmlns:xlink="http://www.w3.org/1999/xlink" x="0px" y="0px"
	 width="24px" height="24px" viewBox="0 0 24 24" enable-background="new 0 0 24 24" xml:space="preserve">
<g>
	<path fill="none" d="M5.546,6.219c-0.462,0-0.916,0-1.428,0c0.068,1.008,0.404,1.874,0.977,2.634
		c0.326,0.433,0.676,0.881,1.251,1.032C6.006,8.933,5.791,7.954,5.756,6.94C5.686,6.699,5.616,6.459,5.546,6.219z"/>
	<path fill="none" d="M17.522,9.945c1.441-0.858,1.967-2.19,2.255-3.726c-0.536,0-1.039,0-1.55,0
		C17.994,7.448,17.764,8.663,17.522,9.945z"/>
	<path fill="currentColor" d="M21.1,4.777c-0.125-0.024-0.196-0.037-0.267-0.05c-0.856,0-1.713,0-2.604,0
		c-0.019-0.168-0.034-0.307-0.05-0.447c0-0.641-0.001-1.282-0.001-1.923C14.132,2.354,10.086,2.35,6.039,2.35
		c-0.137,0-0.274,0.037-0.414,0.057c0,0.654,0,1.265,0,1.876C5.619,4.433,5.614,4.582,5.608,4.731
		C5.117,4.733,4.624,4.712,4.135,4.744C3.66,4.776,3.16,4.599,2.679,4.894c-0.093,1.71,0.273,3.311,1.279,4.686
		c0.739,1.01,1.687,1.836,3.001,2.072c0.143,0.194,0.306,0.377,0.426,0.585c0.479,0.827,1.156,1.448,1.978,1.914
		c0.311,0.176,0.649,0.305,0.974,0.456c-0.001,0.891-0.002,1.781-0.003,2.672c-0.278,0.147-0.558,0.291-0.834,0.442
		c-1.521,0.831-2.263,2.18-2.525,3.836c-0.023,0.143,0.076,0.305,0.118,0.458c3.235-0.006,6.47-0.011,9.777-0.017
		c-0.073-0.336-0.135-0.567-0.171-0.802c-0.227-1.492-1.017-2.614-2.278-3.406c-0.346-0.217-0.749-0.342-1.126-0.509
		c-0.007-0.888-0.015-1.777-0.022-2.665c1.556-0.462,2.693-1.425,3.394-2.855c1.447-0.413,2.6-1.174,3.407-2.42
		c0.706-1.09,1.029-2.294,1.081-3.581C21.138,5.426,21.118,5.096,21.1,4.777z M5.095,8.853c-0.572-0.76-0.909-1.626-0.977-2.634
		c0.512,0,0.965,0,1.428,0c0.07,0.24,0.14,0.48,0.21,0.72c0.035,1.015,0.251,1.993,0.591,2.946C5.772,9.734,5.421,9.286,5.095,8.853
		z M17.522,9.945c0.243-1.281,0.473-2.496,0.706-3.726c0.51,0,1.013,0,1.55,0C19.489,7.755,18.963,9.087,17.522,9.945z"/>
</g>
</svg>
