<svg width="57" height="57" viewBox="0 0 57 57" fill="none" xmlns="http://www.w3.org/2000/svg">
<path d="M28.5 8.14287L33.0705 22.2093H47.8608L35.8952 30.9028L40.4656 44.9693L28.5 36.2757L16.5344 44.9693L21.1048 30.9028L9.13921 22.2093H23.9295L28.5 8.14287Z" fill="currentColor"/>
<path d="M40.368 11.9374L35.886 26.0464L47.9194 34.669L33.1159 34.7663L28.6338 48.8753L23.9668 34.8264L9.1633 34.9236L21.0825 26.1437L16.4154 12.0947L28.4489 20.7173L40.368 11.9374Z" fill="currentColor"/>
<path d="M34.7507 9.10677L34.7856 23.9106L48.8757 28.452L34.8072 33.0598L34.8422 47.8636L26.1125 35.9076L12.044 40.5155L20.7172 28.5184L11.9874 16.5625L26.0775 21.1038L34.7507 9.10677Z" fill="currentColor"/>
<path d="M44.8767 16.3767L36.2825 28.4305L45.0906 40.3289L30.971 35.8802L22.3768 47.9339L22.2446 33.1307L8.12507 28.6819L22.163 23.9818L22.0308 9.17851L30.8388 21.0769L44.8767 16.3767Z" fill="currentColor"/>
</svg>
