<?xml version="1.0" encoding="utf-8"?>
<!-- Generator: Adobe Illustrator 17.0.0, SVG Export Plug-In . SVG Version: 6.00 Build 0)  -->
<!DOCTYPE svg PUBLIC "-//W3C//DTD SVG 1.1//EN" "http://www.w3.org/Graphics/SVG/1.1/DTD/svg11.dtd">
<svg version="1.1" id="Layer_1" xmlns="http://www.w3.org/2000/svg" xmlns:xlink="http://www.w3.org/1999/xlink" x="0px" y="0px"
	 width="24px" height="24px" viewBox="0 0 24 24" enable-background="new 0 0 24 24" xml:space="preserve">
<path fill="#FFFFFF" d="M16.868,8.127c0-4.416-3.592-7.996-8.024-7.996S0.82,3.711,0.82,8.127s3.592,7.996,8.024,7.996
	S16.868,12.543,16.868,8.127z M8.816,14.603c-3.607,0-6.532-2.914-6.532-6.509c0-3.595,2.924-6.509,6.532-6.509
	c3.608,0,6.532,2.914,6.532,6.509C15.348,11.689,12.424,14.603,8.816,14.603z"/>
<path fill="#FFFFFF" d="M6.912,12.677c-1.722-0.819-2.936-2.543-2.936-4.523c0-1.979,1.184-3.69,2.904-4.51
	c0.214-0.057,0.338-0.261,0.277-0.457C7.098,2.995,6.883,2.88,6.673,2.929V2.927c0,0-0.004,0.002-0.006,0.003L6.661,2.931v0.001
	C4.516,3.796,3.223,5.745,3.223,8.133c0,2.386,1.306,4.381,3.449,5.246l-0.001,0.003c0,0,0.007,0.001,0.011,0.002l0.005,0.002
	v-0.001c0.209,0.046,0.421-0.068,0.48-0.259C7.226,12.937,7.112,12.742,6.912,12.677z"/>
<path fill="#FFFFFF" d="M23.288,20.008c-0.535-1.492-7.18-6.701-7.18-6.701l-2.027,1.915c0,0,4.589,5.73,6.321,6.911
	c1.732,1.183,2.689-0.084,2.689-0.084C23.893,21.444,23.288,20.008,23.288,20.008z"/>
</svg>
