<?xml version="1.0" encoding="utf-8"?>
<!-- Generator: Adobe Illustrator 17.0.0, SVG Export Plug-In . SVG Version: 6.00 Build 0)  -->
<!DOCTYPE svg PUBLIC "-//W3C//DTD SVG 1.1//EN" "http://www.w3.org/Graphics/SVG/1.1/DTD/svg11.dtd">
<svg version="1.1" id="Layer_1" xmlns="http://www.w3.org/2000/svg" xmlns:xlink="http://www.w3.org/1999/xlink" x="0px" y="0px"
	 width="24px" height="24px" viewBox="0 0 24 24" enable-background="new 0 0 24 24" xml:space="preserve">
<path fill="#FFFFFF" d="M12.019,23.805c-0.228,0-0.457,0.004-0.685-0.001c-0.535-0.011-0.926-0.317-1.027-0.842
	c-0.136-0.706-0.25-1.417-0.36-2.127c-0.028-0.181-0.098-0.267-0.281-0.315c-0.871-0.231-1.688-0.589-2.44-1.087
	c-0.146-0.097-0.25-0.093-0.396,0.002c-0.573,0.374-1.155,0.735-1.736,1.096c-0.568,0.353-1.051,0.28-1.499-0.222
	c-0.263-0.295-0.528-0.588-0.788-0.886c-0.417-0.478-0.429-0.979-0.032-1.477c0.427-0.536,0.853-1.072,1.294-1.596
	c0.119-0.141,0.099-0.239,0.036-0.393c-0.216-0.526-0.422-1.057-0.604-1.596c-0.062-0.184-0.142-0.268-0.331-0.297
	c-0.668-0.101-1.333-0.219-2-0.327c-0.635-0.103-0.971-0.491-0.975-1.135c-0.002-0.413-0.003-0.826,0-1.238
	c0.005-0.598,0.339-0.997,0.926-1.097c0.666-0.114,1.332-0.228,2-0.325c0.217-0.032,0.313-0.12,0.393-0.332
	c0.247-0.663,0.522-1.317,0.814-1.962c0.08-0.177,0.084-0.288-0.031-0.443C3.905,6.676,3.526,6.138,3.146,5.6
	C2.768,5.063,2.809,4.577,3.27,4.109c0.283-0.288,0.568-0.575,0.857-0.857c0.448-0.437,0.939-0.481,1.45-0.123
	c0.561,0.393,1.118,0.791,1.67,1.196c0.125,0.092,0.218,0.1,0.353,0.02c0.659-0.393,1.363-0.684,2.106-0.876
	C9.86,3.429,9.917,3.35,9.94,3.202c0.104-0.667,0.218-1.333,0.326-2c0.111-0.685,0.488-1.006,1.188-1.007
	c0.404-0.001,0.808-0.004,1.212,0.001c0.582,0.007,0.975,0.342,1.074,0.919c0.121,0.7,0.241,1.401,0.35,2.103
	c0.022,0.143,0.075,0.211,0.214,0.248c0.941,0.247,1.815,0.645,2.629,1.179c0.069,0.045,0.219,0.039,0.294-0.007
	c0.586-0.353,1.162-0.724,1.743-1.086c0.582-0.362,1.062-0.29,1.52,0.224c0.263,0.295,0.529,0.588,0.787,0.887
	c0.408,0.473,0.421,0.962,0.031,1.454c-0.431,0.544-0.866,1.084-1.307,1.619c-0.101,0.123-0.116,0.215-0.052,0.37
	c0.213,0.518,0.408,1.044,0.589,1.574c0.053,0.154,0.121,0.227,0.279,0.252c0.667,0.104,1.333,0.221,2,0.328
	c0.654,0.105,0.986,0.487,0.988,1.149c0.002,0.413,0.004,0.826-0.001,1.238c-0.006,0.583-0.338,0.981-0.912,1.082
	c-0.665,0.116-1.332,0.228-2,0.326c-0.207,0.03-0.295,0.113-0.372,0.317c-0.252,0.671-0.533,1.332-0.828,1.985
	c-0.079,0.175-0.086,0.284,0.031,0.441c0.409,0.549,0.801,1.11,1.197,1.669c0.387,0.548,0.346,1.032-0.128,1.51
	c-0.29,0.293-0.58,0.588-0.877,0.874c-0.418,0.402-0.912,0.445-1.388,0.114c-0.598-0.416-1.189-0.842-1.778-1.271
	c-0.121-0.088-0.208-0.089-0.35-0.027c-0.689,0.301-1.384,0.588-2.084,0.863c-0.143,0.056-0.203,0.116-0.227,0.268
	c-0.108,0.693-0.228,1.385-0.347,2.077c-0.102,0.593-0.491,0.924-1.091,0.931C12.44,23.808,12.229,23.806,12.019,23.805z
	 M16.467,11.967c-0.05-2.476-2.051-4.433-4.49-4.392c-2.461,0.041-4.412,2.061-4.358,4.511c0.054,2.44,2.056,4.38,4.478,4.339
	C14.532,16.384,16.515,14.361,16.467,11.967z"/>
</svg>
