<?xml version="1.0" encoding="utf-8"?>
<!-- Generator: Adobe Illustrator 17.0.0, SVG Export Plug-In . SVG Version: 6.00 Build 0)  -->
<!DOCTYPE svg PUBLIC "-//W3C//DTD SVG 1.1//EN" "http://www.w3.org/Graphics/SVG/1.1/DTD/svg11.dtd">
<svg version="1.1" id="Layer_1" xmlns="http://www.w3.org/2000/svg" xmlns:xlink="http://www.w3.org/1999/xlink" x="0px" y="0px"
	 width="24px" height="24px" viewBox="0 0 24 24" enable-background="new 0 0 24 24" xml:space="preserve">
<rect x="6.148" y="14.187" transform="matrix(0.8623 0.5064 -0.5064 0.8623 9.7126 -3.7066)" fill="currentColor" width="11.05" height="3.641"/>
<rect x="6.47" y="6" transform="matrix(0.8586 -0.5126 0.5126 0.8586 -2.3522 7.1131)" fill="currentColor" width="10.501" height="3.643"/>
<path fill="currentColor" d="M17.965,0.14c-2.289,0-4.144,1.812-4.144,4.046c0,2.235,1.855,4.046,4.144,4.046
	c2.289,0,4.144-1.812,4.144-4.046C22.109,1.951,20.254,0.14,17.965,0.14z M17.965,6.024c-1.039,0-1.882-0.823-1.882-1.837
	c0-1.015,0.842-1.837,1.882-1.837c1.039,0,1.882,0.823,1.882,1.837C19.847,5.201,19.005,6.024,17.965,6.024z"/>
<path fill="currentColor" d="M4.663,7.917c-2.289,0-4.144,1.812-4.144,4.046c0,2.235,1.855,4.046,4.144,4.046s4.144-1.812,4.144-4.046
	C8.807,9.728,6.952,7.917,4.663,7.917z M4.522,13.8c-1.039,0-1.882-0.823-1.882-1.837c0-1.015,0.842-1.837,1.882-1.837
	c1.039,0,1.882,0.823,1.882,1.837C6.403,12.978,5.561,13.8,4.522,13.8z"/>
<path fill="currentColor" d="M18.12,15.715c-2.289,0-4.144,1.812-4.144,4.046s1.855,4.046,4.144,4.046c2.289,0,4.144-1.812,4.144-4.046
	S20.409,15.715,18.12,15.715z M18.12,21.598c-1.039,0-1.882-0.823-1.882-1.837c0-1.015,0.842-1.837,1.882-1.837
	c1.039,0,1.882,0.823,1.882,1.837C20.002,20.776,19.16,21.598,18.12,21.598z"/>
</svg>
