<?xml version="1.0" encoding="utf-8"?>
<!-- Generator: Adobe Illustrator 17.0.0, SVG Export Plug-In . SVG Version: 6.00 Build 0)  -->
<!DOCTYPE svg PUBLIC "-//W3C//DTD SVG 1.1//EN" "http://www.w3.org/Graphics/SVG/1.1/DTD/svg11.dtd">
<svg version="1.1" id="Layer_1" xmlns="http://www.w3.org/2000/svg" xmlns:xlink="http://www.w3.org/1999/xlink" x="0px" y="0px"
	 width="24px" height="24px" viewBox="0 0 24 24" enable-background="new 0 0 24 24" xml:space="preserve">
<rect x="6.749" y="14.193" transform="matrix(0.8623 0.5064 -0.5064 0.8623 9.7828 -3.9868)" fill="currentColor" width="10.947" height="3.608"/>
<rect x="7.069" y="6.082" transform="matrix(0.8586 -0.5126 0.5126 0.8586 -2.3078 7.4042)" fill="currentColor" width="10.403" height="3.609"/>
<path fill="currentColor" d="M18.457,0.276c-2.267,0-4.105,1.795-4.105,4.009c0,2.214,1.838,4.009,4.105,4.009
	c2.267,0,4.105-1.795,4.105-4.009C22.562,2.071,20.724,0.276,18.457,0.276z M18.457,6.105c-1.03,0-1.864-0.815-1.864-1.82
	c0-1.005,0.835-1.82,1.864-1.82c1.03,0,1.864,0.815,1.864,1.82C20.321,5.29,19.487,6.105,18.457,6.105z"/>
<path fill="currentColor" d="M5.279,7.981c-2.267,0-4.105,1.795-4.105,4.009c0,2.214,1.838,4.009,4.105,4.009s4.105-1.795,4.105-4.009
	C9.384,9.776,7.546,7.981,5.279,7.981z M5.138,13.81c-1.03,0-1.864-0.815-1.864-1.82c0-1.005,0.835-1.82,1.864-1.82
	c1.03,0,1.864,0.815,1.864,1.82C7.003,12.995,6.168,13.81,5.138,13.81z"/>
<path fill="currentColor" d="M18.611,15.706c-2.267,0-4.105,1.795-4.105,4.009s1.838,4.009,4.105,4.009c2.267,0,4.105-1.795,4.105-4.009
	S20.878,15.706,18.611,15.706z M18.611,21.535c-1.03,0-1.864-0.815-1.864-1.82c0-1.005,0.835-1.82,1.864-1.82
	c1.03,0,1.864,0.815,1.864,1.82C20.475,20.72,19.64,21.535,18.611,21.535z"/>
</svg>
