<?xml version="1.0" encoding="utf-8"?>
<!-- Generator: Adobe Illustrator 17.0.0, SVG Export Plug-In . SVG Version: 6.00 Build 0)  -->
<!DOCTYPE svg PUBLIC "-//W3C//DTD SVG 1.1//EN" "http://www.w3.org/Graphics/SVG/1.1/DTD/svg11.dtd">
<svg version="1.1" xmlns="http://www.w3.org/2000/svg" xmlns:xlink="http://www.w3.org/1999/xlink" x="0px" y="0px" width="24px"
	 height="24px" viewBox="0 0 24 24" enable-background="new 0 0 24 24" xml:space="preserve">
<g id="_x31_" display="none">
	
		<rect x="7.52" y="13.376" transform="matrix(0.8623 0.5064 -0.5064 0.8623 9.3999 -4.1943)" display="inline" fill="currentColor" width="9.787" height="3.626"/>
	
		<rect x="7.792" y="6.473" transform="matrix(0.8586 -0.5126 0.5126 0.8586 -2.4742 7.5448)" display="inline" fill="currentColor" width="9.3" height="3.57"/>
	<path display="inline" fill="currentColor" d="M17.885,1.308c-2.027,0-3.67,1.605-3.67,3.584c0,1.979,1.643,3.584,3.67,3.584
		c2.027,0,3.67-1.605,3.67-3.584C21.555,2.912,19.912,1.308,17.885,1.308z M17.885,6.519c-0.92,0-1.667-0.729-1.667-1.627
		c0-0.899,0.746-1.627,1.667-1.627c0.92,0,1.667,0.729,1.667,1.627C19.552,5.79,18.806,6.519,17.885,6.519z"/>
	<path display="inline" fill="currentColor" d="M6.104,8.195c-2.027,0-3.67,1.605-3.67,3.584c0,1.979,1.643,3.584,3.67,3.584
		s3.67-1.605,3.67-3.584C9.774,9.8,8.131,8.195,6.104,8.195z M5.978,13.407c-0.92,0-1.667-0.729-1.667-1.627
		c0-0.899,0.746-1.627,1.667-1.627c0.92,0,1.667,0.729,1.667,1.627C7.645,12.678,6.899,13.407,5.978,13.407z"/>
	<path display="inline" fill="currentColor" d="M18.022,15.102c-2.027,0-3.67,1.605-3.67,3.584s1.643,3.584,3.67,3.584
		c2.027,0,3.67-1.605,3.67-3.584S20.049,15.102,18.022,15.102z M18.022,20.313c-0.92,0-1.667-0.729-1.667-1.627
		c0-0.899,0.746-1.627,1.667-1.627c0.92,0,1.667,0.729,1.667,1.627C19.689,19.585,18.943,20.313,18.022,20.313z"/>
</g>
<g id="_x32___x28_with_circle_x29_">
	
		<rect x="5.575" y="13.562" transform="matrix(0.8623 0.5064 -0.5064 0.8623 9.2006 -3.1481)" fill="currentColor" width="9.629" height="3.568"/>
	
		<rect x="5.843" y="6.771" transform="matrix(0.8586 -0.5126 0.5126 0.8586 -2.8978 6.5453)" fill="currentColor" width="9.15" height="3.512"/>
	<path fill="currentColor" d="M15.773,1.688c-1.994,0-3.611,1.579-3.611,3.526c0,1.947,1.617,3.526,3.611,3.526
		c1.994,0,3.611-1.579,3.611-3.526C19.384,3.266,17.768,1.688,15.773,1.688z M15.773,6.815c-0.906,0-1.64-0.717-1.64-1.601
		c0-0.884,0.734-1.601,1.64-1.601c0.906,0,1.64,0.717,1.64,1.601C17.413,6.098,16.679,6.815,15.773,6.815z"/>
	<path fill="currentColor" d="M4.182,8.465c-1.994,0-3.611,1.579-3.611,3.526c0,1.947,1.617,3.526,3.611,3.526s3.611-1.579,3.611-3.526
		C7.793,10.043,6.176,8.465,4.182,8.465z M4.058,13.592c-0.906,0-1.64-0.717-1.64-1.601c0-0.884,0.734-1.601,1.64-1.601
		c0.906,0,1.64,0.717,1.64,1.601C5.698,12.875,4.964,13.592,4.058,13.592z"/>
	<path fill="currentColor" d="M15.908,15.26c-1.994,0-3.611,1.579-3.611,3.526s1.617,3.526,3.611,3.526c1.994,0,3.611-1.579,3.611-3.526
		S17.903,15.26,15.908,15.26z M15.908,20.387c-0.906,0-1.64-0.717-1.64-1.601c0-0.884,0.734-1.601,1.64-1.601
		c0.906,0,1.64,0.717,1.64,1.601C17.548,19.67,16.814,20.387,15.908,20.387z"/>
</g>
</svg>
