<?xml version="1.0" encoding="utf-8"?>
<!-- Generator: Adobe Illustrator 17.0.0, SVG Export Plug-In . SVG Version: 6.00 Build 0)  -->
<!DOCTYPE svg PUBLIC "-//W3C//DTD SVG 1.1//EN" "http://www.w3.org/Graphics/SVG/1.1/DTD/svg11.dtd">
<svg version="1.1" id="Layer_1" xmlns="http://www.w3.org/2000/svg" xmlns:xlink="http://www.w3.org/1999/xlink" x="0px" y="0px"
	 width="24px" height="24px" viewBox="0 0 24 24" enable-background="new 0 0 24 24" xml:space="preserve">
<path fill="#FFFFFF" d="M23.034,3.008c0-1.217-0.992-2.203-2.216-2.203c-1.224,0-2.216,0.986-2.216,2.203
	c0,0.026,0.007,0.051,0.008,0.077h-0.005v18.503h0.015c0.05,1.173,1.013,2.11,2.202,2.11c1.189,0,2.152-0.937,2.202-2.11h0.01V3.084
	h-0.007C23.027,3.058,23.034,3.034,23.034,3.008z"/>
<path fill="#FFFFFF" d="M16.75,6.727c0-0.003,0.001-0.006,0.001-0.009S16.75,6.712,16.75,6.709V6.645h-0.006
	c-0.04-1.182-1.01-2.13-2.209-2.13s-2.169,0.948-2.209,2.13h-0.004v0.044c0,0.01-0.003,0.019-0.003,0.029s0.003,0.019,0.003,0.029
	v15.009h0.018c0.065,1.158,1.02,2.08,2.199,2.08c1.179,0,2.134-0.922,2.199-2.08h0.013V6.727z"/>
<path fill="#FFFFFF" d="M10.568,10.467c0-0.003,0.001-0.006,0.001-0.009s-0.001-0.006-0.001-0.009v-0.112h-0.011
	c-0.064-1.16-1.022-2.083-2.204-2.083c-1.182,0-2.14,0.923-2.204,2.083H6.139v0.091c0,0.01-0.003,0.02-0.003,0.03
	c0,0.01,0.003,0.02,0.003,0.03v11.343h0.018c0.068,1.156,1.022,2.075,2.199,2.075c1.177,0,2.131-0.919,2.199-2.075h0.013V10.467z"/>
<path fill="#FFFFFF" d="M4.433,14.267c0-1.217-0.992-2.203-2.216-2.203C0.992,12.064,0,13.05,0,14.267
	c0,0.047,0.011,0.091,0.014,0.137H0.003v7.486h0.015C0.068,23.062,1.031,24,2.22,24s2.152-0.938,2.202-2.11h0.01v-7.486H4.419
	C4.422,14.358,4.433,14.314,4.433,14.267z"/>
</svg>
