<?xml version="1.0" encoding="utf-8"?>
<!-- Generator: Adobe Illustrator 17.0.0, SVG Export Plug-In . SVG Version: 6.00 Build 0)  -->
<!DOCTYPE svg PUBLIC "-//W3C//DTD SVG 1.1//EN" "http://www.w3.org/Graphics/SVG/1.1/DTD/svg11.dtd">
<svg version="1.1" id="Layer_1" xmlns="http://www.w3.org/2000/svg" xmlns:xlink="http://www.w3.org/1999/xlink" x="0px" y="0px"
	 width="24px" height="24px" viewBox="0 0 24 24" enable-background="new 0 0 24 24" xml:space="preserve">
<path opacity="0.1" fill="#F8F8F6" d="M19.5,22.724l-1.823-6.183c0,0-0.166-0.822-0.017-1.321c0.17-0.57,0.77-1.023,0.77-1.023
	l5.308-4.382c0.079-0.079,0.192-0.341,0.14-0.647c-0.052-0.306-0.507-0.455-0.507-0.455l-6.752-0.096
	c-0.638-0.044-1.119-0.324-1.461-0.63s-0.595-1.251-0.595-1.251l-1.959-6.105c0,0-0.175-0.429-0.603-0.481s-0.638,0.499-0.638,0.499
	l-2.02,6.21c0,0-0.42,1.076-0.848,1.426C8.085,8.618,7.322,8.678,7.322,8.678L0.648,8.722c0,0-0.429-0.017-0.525,0.385
	S0.438,9.92,0.438,9.92l5.09,4.154c0,0,0.6,0.453,0.77,1.023c0.149,0.499-0.017,1.321-0.017,1.321L4.497,22.61
	c0,0-0.201,1.041,0.122,1.189c0.395,0.181,0.953-0.157,0.953-0.157l5.536-3.962c0,0,0.372-0.271,0.835-0.289
	c0.464-0.017,0.997,0.361,0.997,0.361l5.32,3.811c0,0,0.851,0.464,1.148,0.166C19.706,23.432,19.5,22.724,19.5,22.724z"/>
<path fill="#FFCD11" d="M16.26,18.519l-1.035-3.512c0,0-0.094-0.467-0.01-0.75c0.097-0.324,0.437-0.581,0.437-0.581l3.015-2.489
	c0.045-0.045,0.109-0.194,0.079-0.368c-0.03-0.174-0.288-0.258-0.288-0.258l-3.835-0.055c-0.363-0.025-0.636-0.184-0.83-0.358
	s-0.338-0.71-0.338-0.71l-1.113-3.467c0,0-0.099-0.243-0.343-0.273c-0.243-0.03-0.363,0.283-0.363,0.283L10.49,9.509
	c0,0-0.238,0.611-0.482,0.81c-0.232,0.189-0.666,0.224-0.666,0.224l-3.79,0.025c0,0-0.243-0.01-0.298,0.219
	c-0.055,0.228,0.179,0.462,0.179,0.462l2.891,2.359c0,0,0.341,0.257,0.437,0.581c0.084,0.283-0.01,0.75-0.01,0.75l-1.013,3.517
	c0,0-0.114,0.591,0.07,0.676c0.224,0.103,0.541-0.089,0.541-0.089l3.144-2.25c0,0,0.211-0.154,0.474-0.164
	c0.263-0.01,0.566,0.205,0.566,0.205l3.021,2.164c0,0,0.483,0.263,0.652,0.094C16.376,18.922,16.26,18.519,16.26,18.519z"/>
</svg>
