<?xml version="1.0" encoding="utf-8"?>
<!-- Generator: Adobe Illustrator 17.0.0, SVG Export Plug-In . SVG Version: 6.00 Build 0)  -->
<!DOCTYPE svg PUBLIC "-//W3C//DTD SVG 1.1//EN" "http://www.w3.org/Graphics/SVG/1.1/DTD/svg11.dtd">
<svg version="1.1" id="Layer_1" xmlns="http://www.w3.org/2000/svg" xmlns:xlink="http://www.w3.org/1999/xlink" x="0px" y="0px"
	 width="24px" height="24px" viewBox="0 0 24 24" enable-background="new 0 0 24 24" xml:space="preserve">
<rect x="11.207" y="4.371" fill="#C19A2F" width="1.54" height="1.344"/>
<rect x="16.666" y="6.017" transform="matrix(0.5309 -0.8475 0.8475 0.5309 2.493 17.4602)" fill="#C19A2F" width="0.701" height="0.924"/>
<ellipse fill="#31B4B7" cx="11.936" cy="14.602" rx="9.27" ry="9.297"/>
<g>
	<path fill="#70C9CB" d="M14.432,5.647l-5.001,17.91c4.931,1.377,10.048-1.516,11.429-6.462
		C22.241,12.149,19.363,7.024,14.432,5.647z"/>
	<line fill="#70C9CB" x1="9.431" y1="23.557" x2="14.432" y2="5.647"/>
</g>
<ellipse fill="#DDD9D3" cx="12.001" cy="14.773" rx="7.793" ry="7.816"/>
<path fill="#31B4B7" d="M11.932,0c-1.149,0-2.081,0.906-2.081,2.024s0.932,2.024,2.081,2.024s2.081-0.906,2.081-2.024
	S13.081,0,11.932,0z M11.932,3.6c-0.895,0-1.621-0.706-1.621-1.576s0.726-1.576,1.621-1.576c0.895,0,1.621,0.706,1.621,1.576
	S12.827,3.6,11.932,3.6z"/>
<path fill="#FFD968" d="M10.952,2.631c0,0,0.001-0.113,0.066-0.123s1.914,0,1.914,0s0.068,0.002,0.085,0.123
	s-0.009,1.681-0.009,1.681s-0.014,0.076-0.062,0.11c-0.048,0.033-1.936-0.007-1.936-0.007s-0.101-0.057-0.088-0.153
	C10.936,4.166,10.952,2.631,10.952,2.631z"/>
<path fill="#FBE28A" d="M11.996,2.508h0.937c0,0,0.068,0.002,0.085,0.123s-0.009,1.681-0.009,1.681s-0.014,0.076-0.062,0.11
	c-0.048,0.033-0.974,0.009-0.974,0.009L11.996,2.508z"/>
<rect x="6.525" y="5.922" transform="matrix(-0.5309 -0.8475 0.8475 -0.5309 5.1146 15.5997)" fill="#C19A2F" width="0.701" height="0.924"/>
<path fill="#FFD968" d="M5.412,5.396c0,0-0.042-0.069-0.006-0.099C5.441,5.267,6.56,4.574,6.56,4.574s0.042-0.025,0.098,0.042
	c0.056,0.067,0.629,1.017,0.629,1.017s0.02,0.051,0.004,0.09c-0.016,0.038-1.17,0.727-1.17,0.727S6.038,6.453,6.01,6.39
	C5.983,6.328,5.412,5.396,5.412,5.396z"/>
<path fill="#FBE28A" d="M5.995,4.928L6.56,4.574c0,0,0.042-0.025,0.098,0.042c0.056,0.067,0.629,1.017,0.629,1.017
	s0.02,0.051,0.004,0.09C7.275,5.76,6.707,6.096,6.707,6.096L5.995,4.928z"/>
<path fill="#FFD968" d="M18.479,5.49c0,0,0.042-0.069,0.006-0.099c-0.036-0.03-1.154-0.723-1.154-0.723S17.29,4.643,17.234,4.71
	s-0.629,1.017-0.629,1.017s-0.02,0.051-0.004,0.09c0.016,0.038,1.17,0.727,1.17,0.727s0.083,0.004,0.11-0.059
	C17.909,6.422,18.479,5.49,18.479,5.49z"/>
<path fill="#FBE28A" d="M17.896,5.022l-0.565-0.354c0,0-0.042-0.025-0.098,0.042s-0.629,1.017-0.629,1.017s-0.02,0.051-0.004,0.09
	c0.016,0.038,0.584,0.373,0.584,0.373L17.896,5.022z"/>
<path fill="#E5664C" d="M15.896,10.804l-5.578,5.127c0,0-0.055,0.027,0,0.116c0.055,0.089,0.342,0.369,0.342,0.369
	s0.021,0.048,0.103,0C10.844,16.368,15.896,10.804,15.896,10.804z"/>
<circle fill="#E16444" cx="12.001" cy="14.762" r="0.844"/>
<ellipse fill="#DDD9D3" cx="12.001" cy="14.745" rx="0.345" ry="0.332"/>
<path fill="#2F3336" d="M12.121,8.754c0,0.104-0.084,0.188-0.188,0.188l0,0c-0.104,0-0.188-0.084-0.188-0.188V7.947
	c0-0.104,0.084-0.188,0.188-0.188l0,0c0.104,0,0.188,0.084,0.188,0.188V8.754z"/>
<path fill="#2F3336" d="M15.109,9.617c-0.058,0.086-0.175,0.108-0.261,0.05l0,0c-0.086-0.058-0.108-0.175-0.05-0.261l0.452-0.668
	c0.058-0.086,0.175-0.108,0.261-0.05l0,0c0.086,0.058,0.108,0.175,0.05,0.261L15.109,9.617z"/>
<path fill="#2F3336" d="M17.305,11.906c-0.086,0.059-0.203,0.037-0.261-0.049l0,0c-0.059-0.086-0.037-0.203,0.049-0.261l0.665-0.456
	c0.086-0.059,0.203-0.037,0.261,0.049l0,0c0.059,0.086,0.037,0.203-0.049,0.261L17.305,11.906z"/>
<path fill="#2F3336" d="M17.976,14.963c-0.104,0-0.188-0.084-0.189-0.187l0,0c0-0.104,0.084-0.188,0.187-0.189l0.807-0.002
	c0.104,0,0.188,0.084,0.189,0.187l0,0c0,0.104-0.084,0.188-0.187,0.189L17.976,14.963z"/>
<path fill="#2F3336" d="M17.965,18.092c0.082,0.063,0.098,0.181,0.035,0.264l0,0c-0.063,0.082-0.181,0.098-0.264,0.035l-0.641-0.49
	c-0.082-0.063-0.098-0.181-0.035-0.264l0,0c0.063-0.082,0.181-0.098,0.264-0.035L17.965,18.092z"/>
<path fill="#2F3336" d="M15.546,20.578c0.055,0.088,0.028,0.204-0.06,0.259l0,0c-0.088,0.055-0.204,0.028-0.259-0.06L14.8,20.092
	c-0.055-0.088-0.028-0.204,0.06-0.259l0,0c0.088-0.055,0.204-0.028,0.259,0.06L15.546,20.578z"/>
<path fill="#2F3336" d="M12.129,21.604c0.001,0.104-0.082,0.189-0.186,0.19l0,0c-0.104,0.001-0.189-0.082-0.19-0.186l-0.01-0.807
	c-0.001-0.104,0.082-0.189,0.186-0.19l0,0c0.104-0.001,0.189,0.082,0.19,0.186L12.129,21.604z"/>
<path fill="#2F3336" d="M8.319,20.579c-0.055,0.088-0.028,0.204,0.06,0.259l0,0c0.088,0.055,0.204,0.028,0.259-0.06l0.427-0.685
	c0.055-0.088,0.028-0.204-0.06-0.259l0,0c-0.088-0.055-0.204-0.028-0.259,0.06L8.319,20.579z"/>
<path fill="#B7B5B0" d="M5.146,15.041c0-4.317,3.489-7.816,7.793-7.816c0.448,0,0.886,0.04,1.313,0.113
	c-0.733-0.229-1.512-0.352-2.321-0.352c-4.304,0-7.793,3.5-7.793,7.816c0,3.868,2.802,7.077,6.48,7.704
	C7.448,21.514,5.146,18.547,5.146,15.041z"/>
<path fill="#2F3336" d="M8.755,9.619c0.058,0.086,0.175,0.108,0.261,0.05l0,0c0.086-0.058,0.108-0.175,0.05-0.261L8.614,8.74
	C8.556,8.654,8.439,8.632,8.353,8.69l0,0c-0.086,0.058-0.108,0.175-0.05,0.261L8.755,9.619z"/>
<path fill="#2F3336" d="M6.559,11.908c0.086,0.059,0.203,0.037,0.261-0.049l0,0c0.059-0.086,0.037-0.203-0.049-0.261l-0.665-0.456
	c-0.086-0.059-0.203-0.037-0.261,0.049l0,0c-0.059,0.086-0.037,0.203,0.049,0.261L6.559,11.908z"/>
<path fill="#2F3336" d="M5.888,14.965c0.104,0,0.188-0.084,0.189-0.187l0,0c0-0.104-0.084-0.188-0.187-0.189l-0.807-0.002
	c-0.104,0-0.188,0.084-0.189,0.187l0,0c0,0.104,0.084,0.188,0.187,0.189L5.888,14.965z"/>
<path fill="#2F3336" d="M5.9,18.094c-0.082,0.063-0.098,0.181-0.035,0.264l0,0c0.063,0.082,0.181,0.098,0.264,0.035l0.641-0.49
	c0.082-0.063,0.098-0.181,0.035-0.264l0,0c-0.063-0.082-0.181-0.098-0.264-0.035L5.9,18.094z"/>
</svg>
