<?xml version="1.0" encoding="utf-8"?>
<!-- Generator: Adobe Illustrator 17.0.0, SVG Export Plug-In . SVG Version: 6.00 Build 0)  -->
<!DOCTYPE svg PUBLIC "-//W3C//DTD SVG 1.1//EN" "http://www.w3.org/Graphics/SVG/1.1/DTD/svg11.dtd">
<svg version="1.1" id="Layer_1" xmlns="http://www.w3.org/2000/svg" xmlns:xlink="http://www.w3.org/1999/xlink" x="0px" y="0px"
	 width="24px" height="24px" viewBox="0 0 24 24" enable-background="new 0 0 24 24" xml:space="preserve">
<path fill="currentColor" d="M17.106,14.276c0-2.389,0.003-4.778-0.006-7.167c-0.001-0.21-0.111-0.468-0.256-0.621
	c-0.785-0.827-1.586-1.64-2.41-2.428c-0.172-0.165-0.465-0.286-0.703-0.288c-2.538-0.02-5.076-0.014-7.615-0.012
	c-0.754,0-0.921,0.172-0.922,0.944c-0.002,2.297,0,4.595,0,6.892c0,2.313-0.001,4.627,0.001,6.94
	c0.001,0.734,0.187,0.932,0.899,0.933c2.074,0.002,4.148,0,6.222,0c0.658,0.831,1.666,1.375,2.811,1.375
	c1.985,0,3.594-1.603,3.594-3.581C18.721,16.013,18.078,14.917,17.106,14.276z M13.576,4.497c0.845,0.796,1.769,1.666,2.796,2.634
	l-2.796-0.033C13.576,6.167,13.576,5.257,13.576,4.497z M7.869,8.733c1.095,0.001,2.19,0,3.284,0s2.189,0.001,3.284,0
	c0.319,0,0.683-0.028,0.676,0.428c-0.006,0.415-0.343,0.405-0.65,0.405c-2.207-0.002-4.414-0.002-6.621,0
	c-0.306,0-0.643,0.012-0.65-0.404C7.187,8.706,7.55,8.732,7.869,8.733z M7.731,10.747c2.018-0.002,4.035-0.002,6.053,0
	c0.259,0,0.534,0.024,0.542,0.409c0.009,0.436-0.294,0.421-0.565,0.421c-1.001,0.002-2.002,0.001-3.003,0.001
	s-2.002,0.001-3.003-0.001c-0.271,0-0.574,0.017-0.565-0.42C7.198,10.772,7.471,10.747,7.731,10.747z M7.654,12.775
	c1.729-0.002,3.458-0.002,5.188,0c0.222,0,0.458,0.024,0.465,0.409c0.008,0.436-0.252,0.421-0.484,0.421
	c-0.858,0.002-1.716,0.001-2.574,0.001s-1.716,0.001-2.574-0.001c-0.232-0.001-0.492,0.016-0.485-0.42
	C7.196,12.8,7.431,12.775,7.654,12.775z M11,15.602c-0.571,0.044-1.146,0.018-1.72,0.018c-0.56,0-1.121-0.003-1.681,0.002
	c-0.219,0.002-0.403-0.067-0.408-0.408c-0.005-0.339,0.172-0.426,0.395-0.425c1.147,0.002,2.294,0.002,3.441,0
	c0.224,0,0.374,0,0.374,0.427C11.4,15.557,11.145,15.591,11,15.602z M15.127,20.158c-1.605,0-2.906-1.297-2.906-2.896
	s1.301-2.896,2.906-2.896s2.906,1.297,2.906,2.896S16.732,20.158,15.127,20.158z"/>
<path fill="currentColor" d="M16.379,15.851l-2.018,1.998c0,0-0.033,0.035-0.052,0.036c-0.019,0.001-0.061-0.029-0.061-0.029
	l-0.828-0.813c0,0-0.323-0.386-0.641-0.114c-0.319,0.273,0.033,0.618,0.033,0.618l1.077,1.126c0,0,0.211,0.24,0.41,0.237
	c0.182-0.003,0.345-0.174,0.345-0.174l2.318-2.329c0,0,0.419-0.428,0.118-0.699C16.774,15.433,16.379,15.851,16.379,15.851z"/>
</svg>
