<?xml version="1.0" encoding="utf-8"?>
<!-- Generator: Adobe Illustrator 17.0.0, SVG Export Plug-In . SVG Version: 6.00 Build 0)  -->
<!DOCTYPE svg PUBLIC "-//W3C//DTD SVG 1.1//EN" "http://www.w3.org/Graphics/SVG/1.1/DTD/svg11.dtd">
<svg version="1.1" id="Layer_1" xmlns="http://www.w3.org/2000/svg" xmlns:xlink="http://www.w3.org/1999/xlink" x="0px" y="0px"
	 width="24px" height="24px" viewBox="0 0 24 24" enable-background="new 0 0 24 24" xml:space="preserve">
<ellipse fill="#DFDAD5" cx="12.285" cy="13.279" rx="7.588" ry="7.611"/>
<path fill="#F3A51E" d="M15.968,18.131l-0.88-3c0,0-0.08-0.399-0.008-0.641c0.082-0.277,0.371-0.497,0.371-0.497l2.562-2.126
	c0.038-0.038,0.093-0.166,0.068-0.314c-0.025-0.149-0.245-0.221-0.245-0.221l-3.258-0.047c-0.308-0.021-0.54-0.157-0.705-0.306
	c-0.165-0.149-0.287-0.607-0.287-0.607L12.64,7.412c0,0-0.084-0.208-0.291-0.233c-0.207-0.025-0.308,0.242-0.308,0.242l-0.975,3.013
	c0,0-0.203,0.522-0.409,0.692c-0.197,0.162-0.566,0.191-0.566,0.191l-3.22,0.021c0,0-0.207-0.008-0.253,0.187
	s0.152,0.395,0.152,0.395l2.456,2.016c0,0,0.289,0.22,0.371,0.497c0.072,0.242-0.008,0.641-0.008,0.641l-0.861,3.004
	c0,0-0.097,0.505,0.059,0.577c0.19,0.088,0.46-0.076,0.46-0.076l2.672-1.922c0,0,0.179-0.132,0.403-0.14
	c0.224-0.008,0.481,0.175,0.481,0.175l2.567,1.849c0,0,0.41,0.225,0.554,0.081C16.067,18.475,15.968,18.131,15.968,18.131z"/>
<path fill="#DFDAD5" d="M13.161,2.114c0.118-0.002,0.209-0.005,0.219-0.012c0.052-0.037,0.068-0.12,0.068-0.12
	s0.029-1.71,0.01-1.842s-0.094-0.134-0.094-0.134s-2.027-0.01-2.098,0c-0.071,0.01-0.073,0.134-0.073,0.134
	s-0.017,1.683-0.032,1.788c-0.015,0.105,0.096,0.168,0.096,0.168s0.092,0.002,0.216,0.004C11.877,2.106,12.754,2.121,13.161,2.114z"
	/>
<path fill="#DFDAD5" d="M5.779,4.259C5.809,4.328,5.9,4.324,5.9,4.324s0.08-0.048,0.199-0.12C6.333,4.064,6.72,3.83,6.963,3.677
	c0.127-0.08,0.215-0.139,0.219-0.149C7.2,3.485,7.178,3.429,7.178,3.429s-0.628-1.042-0.69-1.114
	C6.426,2.242,6.381,2.269,6.381,2.269S5.155,3.028,5.116,3.061C5.077,3.094,5.123,3.17,5.123,3.17S5.748,4.191,5.779,4.259z"/>
<path fill="#DFDAD5" d="M18.667,4.428c0,0,0.091,0.004,0.121-0.065c0.031-0.069,0.656-1.09,0.656-1.09s0.046-0.075,0.007-0.108
	c-0.039-0.033-1.265-0.792-1.265-0.792s-0.046-0.027-0.107,0.046c-0.061,0.073-0.69,1.114-0.69,1.114s-0.022,0.056-0.004,0.098
	c0.005,0.011,0.093,0.069,0.219,0.149c0.242,0.153,0.629,0.387,0.864,0.528C18.587,4.38,18.667,4.428,18.667,4.428z"/>
<path fill="#33B5B8" d="M18.089,4.913c-0.276-0.194-0.561-0.375-0.856-0.541c-1.224-0.688-2.602-1.129-4.072-1.257
	C12.868,3.09,12.573,3.07,12.273,3.07c-0.27,0-0.535,0.02-0.799,0.04c-5.236,0.41-9.36,4.792-9.36,10.149
	c0,5.627,4.549,10.189,10.159,10.189c5.611,0,10.159-4.562,10.159-10.189C22.432,9.804,20.712,6.755,18.089,4.913z M12.24,20.314
	c-3.867,0-7.002-3.144-7.002-7.023s3.135-7.023,7.002-7.023c3.867,0,7.002,3.144,7.002,7.023S16.108,20.314,12.24,20.314z"/>
</svg>
