<?xml version="1.0" encoding="utf-8"?>
<!-- Generator: Adobe Illustrator 17.0.0, SVG Export Plug-In . SVG Version: 6.00 Build 0)  -->
<!DOCTYPE svg PUBLIC "-//W3C//DTD SVG 1.1//EN" "http://www.w3.org/Graphics/SVG/1.1/DTD/svg11.dtd">
<svg version="1.1" id="Layer_1" xmlns="http://www.w3.org/2000/svg" xmlns:xlink="http://www.w3.org/1999/xlink" x="0px" y="0px"
	 width="24px" height="24px" viewBox="0 0 24 24" enable-background="new 0 0 24 24" xml:space="preserve">
<path fill="currentColor" d="M3.055,9.838C2.048,8.891,1.31,7.797,1.19,6.373C1.107,5.387,1.315,4.468,1.829,3.57
	c2.615,3.033,5.863,4.706,9.792,4.983c0.031-0.687-0.024-1.365,0.105-2.006c0.729-3.636,4.994-5.11,7.823-2.71
	c0.315,0.268,0.574,0.356,0.951,0.213c0.763-0.29,1.535-0.559,2.414-0.877c-0.342,0.992-0.953,1.71-1.74,2.308
	c0.019,0.049,0.039,0.098,0.058,0.147c0.729-0.183,1.458-0.366,2.187-0.55c0.035,0.034,0.071,0.067,0.106,0.101
	c-0.588,0.603-1.134,1.258-1.779,1.792c-0.411,0.34-0.499,0.682-0.522,1.176c-0.26,5.539-2.702,9.797-7.744,12.224
	c-4.176,2.01-8.435,1.757-12.554-0.41c-0.159-0.084-0.306-0.19-0.452-0.341c1.711,0.057,3.356-0.173,4.896-0.91
	c0.618-0.296,1.201-0.665,1.8-1.076c-2.048-0.328-3.511-1.333-4.342-3.395c0.708,0,1.299,0,1.891,0
	c-2.206-0.895-3.42-2.428-3.595-4.744c0.673,0.136,1.282,0.26,1.891,0.383C3.053,9.886,3.09,9.894,3.128,9.901
	C3.104,9.88,3.079,9.859,3.055,9.838z"/>
<path fill="#FEFEFF" d="M3.259,9.822c0.024,0.021,0.049,0.042,0.073,0.063C3.294,9.877,3.256,9.87,3.218,9.862
	C3.218,9.862,3.259,9.822,3.259,9.822z"/>
</svg>
