<?xml version="1.0" encoding="utf-8"?>
<!-- Generator: Adobe Illustrator 17.0.0, SVG Export Plug-In . SVG Version: 6.00 Build 0)  -->
<!DOCTYPE svg PUBLIC "-//W3C//DTD SVG 1.1//EN" "http://www.w3.org/Graphics/SVG/1.1/DTD/svg11.dtd">
<svg version="1.1" id="Layer_1" xmlns="http://www.w3.org/2000/svg" xmlns:xlink="http://www.w3.org/1999/xlink" x="0px" y="0px"
	 width="24px" height="24px" viewBox="0 0 24 24" enable-background="new 0 0 24 24" xml:space="preserve">
<path fill="currentColor" d="M5.621,9.088c0.965,0.957,1.854,1.83,2.95,2.912c-0.19,0.195-5.146,5.135-7.468,7.48
	c-1.017,1.028-1.004,2.424,0.008,3.435c1.045,1.044,2.422,1.055,3.467,0.011c1.403-1.402,2.795-2.815,4.192-4.224
	c1.057-1.066,2.113-2.132,3.27-3.298c0.204,0.244,5.079,5.181,7.377,7.463c0.238,0.236,0.513,0.462,0.813,0.603
	c1.027,0.484,2.238,0.082,2.97-0.946c0.674-0.946,0.618-2.1-0.196-2.93c-1.887-1.925-3.794-3.832-5.693-5.746
	c-0.606-0.611-1.212-1.222-1.893-1.908c0.202-0.156,5.17-5.047,7.497-7.387c1.056-1.061,1.05-2.416,0.01-3.466
	c-1.04-1.05-2.404-1.063-3.463-0.008c-2.339,2.329-7.285,7.306-7.487,7.501c-0.296-0.322-0.554-0.62-0.817-0.882
	C8.951,5.501,6.741,3.306,4.531,1.111C4.138,0.721,3.696,0.42,3.123,0.37C2.039,0.275,1.02,0.863,0.553,1.851
	C0.082,2.849,0.249,3.74,1.105,4.598C2.604,6.101,4.114,7.594,5.621,9.088z"/>
</svg>
