<?xml version="1.0" encoding="utf-8"?>
<!-- Generator: Adobe Illustrator 17.0.0, SVG Export Plug-In . SVG Version: 6.00 Build 0)  -->
<!DOCTYPE svg PUBLIC "-//W3C//DTD SVG 1.1//EN" "http://www.w3.org/Graphics/SVG/1.1/DTD/svg11.dtd">
<svg version="1.1" id="Layer_1" xmlns="http://www.w3.org/2000/svg" xmlns:xlink="http://www.w3.org/1999/xlink" x="0px" y="0px"
	 width="24px" height="24px" viewBox="0 0 24 24" enable-background="new 0 0 24 24" xml:space="preserve">
<g>
	<path fill="currentColor" d="M12.095,19.049c-2.578-0.052-5.054-0.032-7.518-0.296c-0.657-0.07-1.317-0.158-1.872-0.584
		c-0.534-0.41-0.914-0.922-1.032-1.587c-0.128-0.722-0.255-1.448-0.311-2.177c-0.184-2.401-0.176-4.801,0.155-7.191
		C1.615,6.5,1.759,5.794,2.283,5.239c0.4-0.424,0.868-0.719,1.449-0.828C5.166,4.14,6.619,4.104,8.07,4.058
		c3.416-0.108,6.831-0.103,10.242,0.119c0.636,0.041,1.273,0.115,1.899,0.232c1.143,0.214,1.886,0.92,2.108,2.05
		c0.194,0.99,0.302,2.004,0.368,3.012c0.137,2.122,0.09,4.245-0.206,6.354c-0.088,0.624-0.202,1.247-0.607,1.768
		c-0.423,0.545-0.957,0.903-1.643,1.03c-1.427,0.264-2.872,0.299-4.315,0.346C14.608,19.011,13.299,19.025,12.095,19.049z
		 M9.852,14.749c1.878-1.084,3.72-2.148,5.603-3.235c-1.894-1.093-3.734-2.155-5.603-3.234C9.852,10.457,9.852,12.575,9.852,14.749z
		"/>
</g>
</svg>
