<?xml version="1.0" encoding="utf-8"?>
<!-- Generator: Adobe Illustrator 17.0.0, SVG Export Plug-In . SVG Version: 6.00 Build 0)  -->
<!DOCTYPE svg PUBLIC "-//W3C//DTD SVG 1.1//EN" "http://www.w3.org/Graphics/SVG/1.1/DTD/svg11.dtd">
<svg version="1.1" id="Layer_1" xmlns="http://www.w3.org/2000/svg" xmlns:xlink="http://www.w3.org/1999/xlink" x="0px" y="0px"
	 width="140.403px" height="164.895px" viewBox="0 0 140.403 164.895" enable-background="new 0 0 140.403 164.895"
	 xml:space="preserve">
<radialGradient id="SVGID_1_" cx="64.6682" cy="94.1056" r="63.1161" gradientUnits="userSpaceOnUse">
	<stop  offset="0.4471" style="stop-color:#FCB01A"/>
	<stop  offset="1" style="stop-color:#D27D28;stop-opacity:0"/>
</radialGradient>
<ellipse fill="url(#SVGID_1_)" cx="64.668" cy="94.106" rx="64.668" ry="61.525"/>
<path fill="#FAB73E" d="M39.751,50.407L39.59,25.921c0,0,0-6.874,11.38-15.066c5.193-3.738,12.083-8.891,24.868-8.891
	c12.598,0,19.232,4.262,24.446,7.656c11.193,7.286,11.552,17.028,11.552,17.028l-0.211,40.477h-14.12l-0.453-39.846
	c0,0,0-4.199-4.074-7.409c-3.569-2.813-6.566-5.694-16.151-6.018c-9.806-0.331-14.743,3.664-18.129,6.265
	c-4.074,3.128-4.355,6.257-4.355,6.257l-0.439,24.033L39.751,50.407z"/>
<path opacity="0.8" fill="#232323" d="M39.751,50.469l0-24.058c0,0,0-6.874,11.361-15.066c5.184-3.738,12.065-9.616,24.827-9.385
	c13.794,0.25,19.557,4.5,24.762,7.894c11.174,7.286,11.177,16.591,11.177,16.591l-0.21,41.171l-14.097,0l-0.452-39.846
	c0,0,0-4.199-4.068-7.409c-3.564-2.813-6.555-6.188-16.125-6.512c-9.79-0.331-14.88,3.945-18.261,6.545
	c-4.068,3.128-4.186,6.47-4.186,6.47l-0.599,23.606L39.751,50.469z"/>
<path opacity="0.8" fill="#232323" d="M17.26,74.166c2.354-2.552,7.501-2.881,7.501-2.881h11.827h93.74c0,0,5.177,0.773,7.118,2.552
	c2.245,2.058,2.957,5.351,2.957,5.351v80.022c0,0-0.767,2.84-2.902,4.158c-1.736,1.071-5.859,1.523-5.859,1.523H25.637
	c0,0-3.932,0.184-6.79-1.811c-2.3-1.605-3.395-4.158-3.395-4.158l-0.329-79.075C15.124,79.847,14.958,76.661,17.26,74.166z"/>
<path fill="#F9A91A" d="M11.972,68.043c2.354-2.552,7.501-2.881,7.501-2.881h11.827h93.74c0,0,5.177,0.773,7.118,2.552
	c2.245,2.058,2.957,5.351,2.957,5.351v80.022c0,0-0.767,2.84-2.902,4.158c-1.736,1.071-5.859,1.523-5.859,1.523H20.35
	c0,0-3.932,0.184-6.79-1.811c-2.3-1.605-3.395-4.158-3.395-4.158L9.837,73.724C9.837,73.724,9.671,70.538,11.972,68.043z"/>
<path fill="#D6D7DD" d="M34.726,46.882l0-22.925c0,0,0-6.874,11.344-15.066C51.246,5.154,58.114,0,70.858,0
	c12.557,0,19.171,4.262,24.368,7.656c11.157,7.286,11.515,17.028,11.515,17.028l-0.21,40.477l-14.075,0l-0.452-39.846
	c0,0,0-4.199-4.061-7.409c-3.558-2.813-6.545-5.694-16.1-6.018c-9.775-0.331-14.696,3.664-18.071,6.265
	c-4.061,3.128-4.341,6.257-4.341,6.257l-0.599,22.473L34.726,46.882z"/>
<path fill="#FFCD0E" d="M17.367,72.922c2.145-2.325,6.833-2.625,6.833-2.625h10.772h85.382c0,0,4.716,0.704,6.483,2.325
	c2.045,1.875,2.693,4.874,2.693,4.874v72.887c0,0-0.698,2.587-2.643,3.787c-1.581,0.975-5.336,1.387-5.336,1.387H24.997
	c0,0-3.581,0.167-6.184-1.65c-2.095-1.462-3.092-3.787-3.092-3.787l-0.299-72.025C15.422,78.096,15.27,75.194,17.367,72.922z"/>
<path opacity="0.8" fill="#232323" d="M66.672,125.837c0,0-0.026,0.17,0.19,0.324c0.108,0.077,0.633,0.077,0.633,0.077h10.311
	c0,0,0.448,0,0.664-0.093c0.099-0.042,0.139-0.309,0.139-0.309l-2.192-12.73c0,0,4.342-2.068,4.333-7.43
	c-0.005-2.752-2.357-6.927-8.068-6.926c-5.745,0.001-8.022,3.867-8.014,6.769c0.016,5.652,4.593,7.53,4.593,7.53L66.672,125.837z"/>
<polygon fill="#5D5D5D" points="34.726,46.935 34.726,45.172 48.878,45.172 48.833,46.882 "/>
<polygon fill="#5D5D5D" points="92.352,65.162 92.352,63.398 106.589,63.398 106.532,65.162 "/>
<path fill="#FCDC57" d="M16.266,100.12c0,0-2.823-20.517,4.668-26.636c4.052-3.31,30.774-3.12,30.774-3.12
	s-17.725,0.629-26.525,5.888C16.289,81.567,16.266,100.12,16.266,100.12z"/>
<path fill="#E89524" d="M60.157,155.606c0,0,46.515,0.004,61.992,0.171c1.526,0.016,4.569-0.617,5.789-1.94
	c0.607-0.658,1.595-2.311,1.592-3.206c-0.013-5.31,0-25.562,0-25.562s-8.852,13.189-13.227,15.971
	C104.067,148.823,60.157,155.606,60.157,155.606z"/>
<path fill="#5D5D5D" d="M66.862,126.161l11.105,0.077c0,0,0.412,0.004,0.592-0.139c0.13-0.103-0.015-0.638-0.015-0.638
	l-2.128-12.354c0,0,0.148,6.705-2.322,9.257C71.014,125.547,66.862,126.161,66.862,126.161z"/>
</svg>
