<?xml version="1.0" encoding="utf-8"?>
<!-- Generator: Adobe Illustrator 17.0.0, SVG Export Plug-In . SVG Version: 6.00 Build 0)  -->
<!DOCTYPE svg PUBLIC "-//W3C//DTD SVG 1.1//EN" "http://www.w3.org/Graphics/SVG/1.1/DTD/svg11.dtd">
<svg version="1.1" id="Layer_1" xmlns="http://www.w3.org/2000/svg" xmlns:xlink="http://www.w3.org/1999/xlink" x="0px" y="0px"
	 width="23.8px" height="6.3px" viewBox="0.1 15.3 23.8 6.3" enable-background="new 0.1 15.3 23.8 6.3" xml:space="preserve">
<linearGradient id="SVGID_1_" gradientUnits="userSpaceOnUse" x1="305.7952" y1="-403.35" x2="309.5" y2="-403.35" gradientTransform="matrix(1 0 0 -1 -285.5 -384)">
	<stop  offset="3.284439e-02" style="stop-color:#C7791C"/>
	<stop  offset="0.1741" style="stop-color:#CB7D1C"/>
	<stop  offset="0.3204" style="stop-color:#D88A1D"/>
	<stop  offset="0.4686" style="stop-color:#F1A21A"/>
	<stop  offset="0.487" style="stop-color:#F6A719"/>
	<stop  offset="0.6068" style="stop-color:#F8B017"/>
	<stop  offset="0.8194" style="stop-color:#FABB14"/>
	<stop  offset="1" style="stop-color:#FBBF13"/>
</linearGradient>
<path fill="url(#SVGID_1_)" d="M21.8,17.1c0,0-0.1,0-0.2,0c-0.3,0.3-0.1,1.3-0.2,1.7c-0.1,0.4-0.5,1.1-0.8,1.3
	c-0.1,0.1-0.3-0.1-0.3-0.1s0,0.1,0,0.2c0.1,0.2,0.5,0.3,0.8,0.5s0.7,0.7,1,0.9h0.1c0.3-0.2,0.2-1.1,0.1-1.4c0-0.3-0.4-1.1-0.4-1.1
	V19c0,0,0.6-0.3,0.8-0.3c0.3-0.1,1,0.1,1.2-0.2c0,0,0-0.1,0-0.2c-0.1-0.3-0.8-0.7-1.1-0.9C22.7,17.3,22.1,17.1,21.8,17.1z"/>
<linearGradient id="SVGID_2_" gradientUnits="userSpaceOnUse" x1="289.4438" y1="-403.35" x2="285.5871" y2="-403.35" gradientTransform="matrix(1 0 0 -1 -285.5 -384)">
	<stop  offset="3.284439e-02" style="stop-color:#C7791C"/>
	<stop  offset="0.1741" style="stop-color:#CB7D1C"/>
	<stop  offset="0.3204" style="stop-color:#D88A1D"/>
	<stop  offset="0.4686" style="stop-color:#F1A21A"/>
	<stop  offset="0.487" style="stop-color:#F6A719"/>
	<stop  offset="0.6068" style="stop-color:#F8B017"/>
	<stop  offset="0.8194" style="stop-color:#FABB14"/>
	<stop  offset="1" style="stop-color:#FBBF13"/>
</linearGradient>
<path fill="url(#SVGID_2_)" d="M2.3,17.1c0,0,0.1,0,0.2,0c0.3,0.3,0.1,1.3,0.2,1.7c0.1,0.4,0.5,1.1,0.8,1.3C3.6,20.2,3.9,20,3.9,20
	l-0.1,0.2c-0.1,0.3-0.6,0.3-0.9,0.5s-0.7,0.7-1,0.9H1.8c-0.3-0.2-0.2-1.1-0.1-1.4c0-0.3,0.4-1.1,0.4-1.1V19c0,0-0.6-0.3-0.8-0.3
	c-0.3-0.1-1,0.1-1.2-0.2c0,0,0-0.1,0-0.2c0.1-0.3,0.8-0.7,1.1-0.9C1.4,17.3,2,17.2,2.3,17.1z"/>
<linearGradient id="SVGID_3_" gradientUnits="userSpaceOnUse" x1="287.8269" y1="-401.75" x2="307.2722" y2="-401.75" gradientTransform="matrix(1 0 0 -1 -285.5 -384)">
	<stop  offset="1.781728e-02" style="stop-color:#EC9B22"/>
	<stop  offset="0.1464" style="stop-color:#F1C119"/>
	<stop  offset="0.1775" style="stop-color:#F1C31E"/>
	<stop  offset="0.3733" style="stop-color:#ECD03F"/>
	<stop  offset="0.487" style="stop-color:#EBD54A"/>
	<stop  offset="0.6072" style="stop-color:#EDD142"/>
	<stop  offset="0.7882" style="stop-color:#F5C728"/>
	<stop  offset="0.893" style="stop-color:#FBBF13"/>
	<stop  offset="0.9739" style="stop-color:#F59A1E"/>
</linearGradient>
<path fill="url(#SVGID_3_)" d="M21.6,16.7c0,0-4.7-1.4-9.6-1.4c-4.6,0-9.6,1.3-9.6,1.4c-0.4,0.7,0.5,3.3,1,3.5c0,0,3.9-1.3,8.6-1.3
	c4.9,0,8.6,1.3,8.6,1.3C21.2,20,22.1,17.4,21.6,16.7z"/>
</svg>
