<?xml version="1.0" encoding="utf-8"?>
<!-- Generator: Adobe Illustrator 17.0.0, SVG Export Plug-In . SVG Version: 6.00 Build 0)  -->
<!DOCTYPE svg PUBLIC "-//W3C//DTD SVG 1.1//EN" "http://www.w3.org/Graphics/SVG/1.1/DTD/svg11.dtd">
<svg version="1.1" id="Layer_1" xmlns="http://www.w3.org/2000/svg" xmlns:xlink="http://www.w3.org/1999/xlink" x="0px" y="0px"
	 width="21.7px" height="21.9px" viewBox="1 1.1 21.7 21.9" enable-background="new 1 1.1 21.7 21.9" xml:space="preserve">
<linearGradient id="SVGID_1_" gradientUnits="userSpaceOnUse" x1="286.548" y1="-396.05" x2="308.248" y2="-396.05" gradientTransform="matrix(1 0 0 -1 -285.5 -384)">
	<stop  offset="2.212213e-03" style="stop-color:#FDB727"/>
	<stop  offset="0.4103" style="stop-color:#EFEE90"/>
	<stop  offset="0.4889" style="stop-color:#F0EE8D"/>
	<stop  offset="0.5702" style="stop-color:#F2ED82"/>
	<stop  offset="0.6528" style="stop-color:#F7ED70"/>
	<stop  offset="0.7358" style="stop-color:#FDEC4F"/>
	<stop  offset="0.8125" style="stop-color:#FFED13"/>
	<stop  offset="0.8649" style="stop-color:#FFDF33"/>
	<stop  offset="0.9474" style="stop-color:#FECF49"/>
	<stop  offset="1" style="stop-color:#FCC94F"/>
</linearGradient>
<polygon fill="url(#SVGID_1_)" points="19.9,13.1 22.7,11.6 20.2,10.5 22.2,8.5 19.3,8.1 20.5,5.6 17.8,6.1 18.3,3.4 15.6,4.8 
	15,1.5 13.1,3.6 11.8,1.1 10.5,3.9 8.4,1.9 8,4.7 5.6,3.4 6.1,6.2 3,5.7 4.4,8.3 1.6,8.7 3.8,10.9 1,12.3 3.7,13.6 1.7,15.6 4.5,16 
	3.3,18.5 6.1,17.9 5.7,20.8 8.2,19.4 8.7,22.5 10.7,20.3 12,23 13.4,20.1 15.5,22.1 15.8,19.3 18.4,20.7 17.9,17.9 20.7,18.3 
	19.4,15.9 22.3,15.5 "/>
</svg>
