<?xml version="1.0" encoding="utf-8"?>
<!-- Generator: Adobe Illustrator 17.0.0, SVG Export Plug-In . SVG Version: 6.00 Build 0)  -->
<!DOCTYPE svg PUBLIC "-//W3C//DTD SVG 1.1//EN" "http://www.w3.org/Graphics/SVG/1.1/DTD/svg11.dtd">
<svg version="1.1" id="Layer_1" xmlns="http://www.w3.org/2000/svg" xmlns:xlink="http://www.w3.org/1999/xlink" x="0px" y="0px"
	 width="495.404px" height="368.401px" viewBox="0 0 495.404 368.401" enable-background="new 0 0 495.404 368.401"
	 xml:space="preserve">
<g>
	<linearGradient id="SVGID_1_" gradientUnits="userSpaceOnUse" x1="59.4853" y1="299.269" x2="134.3598" y2="299.269">
		<stop  offset="0" style="stop-color:#05596E"/>
		<stop  offset="0.2078" style="stop-color:#06566B"/>
		<stop  offset="0.4305" style="stop-color:#084E63"/>
		<stop  offset="0.6602" style="stop-color:#084156"/>
		<stop  offset="0.8933" style="stop-color:#052F45"/>
		<stop  offset="1" style="stop-color:#03253D"/>
	</linearGradient>
	<ellipse fill="url(#SVGID_1_)" cx="96.923" cy="299.269" rx="37.437" ry="18.191"/>
	<linearGradient id="SVGID_2_" gradientUnits="userSpaceOnUse" x1="56.8814" y1="289.6224" x2="135.1149" y2="289.6224">
		<stop  offset="0" style="stop-color:#05596E"/>
		<stop  offset="0.2078" style="stop-color:#06566B"/>
		<stop  offset="0.4305" style="stop-color:#084E63"/>
		<stop  offset="0.6602" style="stop-color:#084156"/>
		<stop  offset="0.8933" style="stop-color:#052F45"/>
		<stop  offset="1" style="stop-color:#03253D"/>
	</linearGradient>
	<path fill="url(#SVGID_2_)" d="M130.602,269.265c0,0,3.126,4.087,3.758,6.343c1.699,6.06,0,25.174,0,25.174
		s-58.336,16.98-72.551,4.795c-4.367-3.744-5.446-23.487-4.719-29.193c0.412-3.233,2.904-6.465,2.904-6.465L130.602,269.265z"/>
	<linearGradient id="SVGID_3_" gradientUnits="userSpaceOnUse" x1="58.0976" y1="275.6476" x2="132.9721" y2="275.6476">
		<stop  offset="0" style="stop-color:#05596E"/>
		<stop  offset="0.0587" style="stop-color:#084F64"/>
		<stop  offset="0.1799" style="stop-color:#084055"/>
		<stop  offset="0.3151" style="stop-color:#06344A"/>
		<stop  offset="0.4699" style="stop-color:#042B42"/>
		<stop  offset="0.6614" style="stop-color:#03263E"/>
		<stop  offset="1" style="stop-color:#03253D"/>
	</linearGradient>
	<ellipse fill="url(#SVGID_3_)" cx="95.535" cy="275.648" rx="37.437" ry="18.191"/>
	<ellipse fill="#6E869C" cx="96.319" cy="277.148" rx="22.801" ry="10.529"/>
	<ellipse fill="#90ABC3" cx="96.319" cy="282.564" rx="14.711" ry="6.193"/>
	<ellipse fill="#F5EEE7" cx="95.89" cy="284.403" rx="7.862" ry="3.631"/>
	<ellipse fill="#D1D2D2" cx="85.424" cy="281.064" rx="1.16" ry="0.777"/>
	<ellipse fill="#D1D2D2" cx="96.766" cy="277.924" rx="1.16" ry="0.777"/>
	<ellipse fill="#D1D2D2" cx="107.234" cy="281.841" rx="1.16" ry="0.777"/>
	<path fill="#0D0F0F" d="M95.535,261.858c-15.151,0-27.433,6.174-27.433,13.79s12.282,13.79,27.433,13.79
		c15.151,0,27.433-6.174,27.433-13.79S110.686,261.858,95.535,261.858z M96.122,287.253c-12.194,0-22.079-4.565-22.079-10.196
		c0-5.631,9.885-10.196,22.079-10.196c12.194,0,22.079,4.565,22.079,10.196C118.201,282.688,108.316,287.253,96.122,287.253z"/>
	<path fill="#57708B" d="M97.927,276.41c0,0,0.284-4.838,0-6.417c-0.147-0.82-1.16-3.126-1.16-3.126l-2.816,0.043l-3.189,0.254
		c0,0,1.896,2.369,2.209,3.302c0.476,1.422,1.065,5.905,1.065,5.905h1.855L97.927,276.41z"/>
	<path fill="#57708B" d="M86.577,277.924c0,0-1.384-4.02-2.313-5.052c-0.841-0.934-4.325-2.559-4.325-2.559l-1.707,1.021
		l-1.968,1.547c0,0,3.648,1.088,4.648,1.826c1.145,0.845,4.059,3.994,4.059,3.994L86.577,277.924z"/>
	<path fill="#57708B" d="M109.676,279.974c0,0,3.416-0.848,4.211-1.652c1.066-1.076,2.157-5.66,2.157-5.66s-1.293-1.086-1.759-1.401
		c-0.536-0.362-2.252-1.274-2.252-1.274s-0.383,4.041-1.003,5.156c-0.577,1.037-3.008,3.671-3.008,3.671L109.676,279.974z"/>
	<path opacity="0.2" fill="#B6B7B7" d="M57.008,284.37c0,0,4.262,10.002,7.338,11.454c2.884,1.361,9.523-2.052,12.666-1.512
		c3.681,0.632,9.663,6.459,13.395,6.616c3.486,0.147,9.502-5.044,12.991-5.104c3.259-0.056,9.089,4.956,12.292,4.348
		c3.469-0.659,7.308-8.158,10.662-9.263c1.711-0.564,5.754,1.663,7.184,0.567c1.717-1.316,1.58-8.507,1.58-8.507v2.799
		c0,0,0.375,6.216-1.116,7.308c-1.472,1.078-5.472-1.677-7.212-1.127c-3.458,1.093-6.893,9.323-10.441,10.073
		c-3.372,0.713-9.503-4.845-12.949-4.736c-3.545,0.112-9.446,5.842-12.991,5.705c-3.934-0.152-10.008-6.759-13.888-7.427
		c-3.192-0.549-9.869,3.296-12.809,1.938c-2.827-1.306-6.562-10.587-6.562-10.587L57.008,284.37z"/>
	<path opacity="0.2" fill="#B6B7B7" d="M59.574,301.625c0,0,1.934,2.228,2.991,2.228c2.355,0,9.225-1.597,11.907-1.136
		c3.681,0.632,9.663,6.459,13.395,6.616c3.486,0.147,9.502-5.044,12.991-5.104c3.259-0.056,11.301,5.433,14.503,4.825
		c3.469-0.659,6.966-7.062,10.319-8.167c1.711-0.564,5.043,1.603,6.472,0.507c1.717-1.316,2.579-5.694,2.579-5.694l-0.123,1.861
		c0,0-0.501,4.34-1.992,5.432c-1.472,1.078-4.761-1.616-6.501-1.066c-3.458,1.093-6.55,8.227-10.099,8.977
		c-3.372,0.713-11.715-5.322-15.16-5.214c-3.545,0.112-9.446,5.842-12.991,5.705c-3.934-0.152-10.008-6.759-13.888-7.427
		c-3.192-0.549-9.012,1.535-11.914,0.83c-0.513-0.125-1.702-1.249-1.702-1.249L59.574,301.625z"/>
	<g>
		<linearGradient id="SVGID_4_" gradientUnits="userSpaceOnUse" x1="52.3204" y1="272.4278" x2="127.1949" y2="272.4278">
			<stop  offset="0" style="stop-color:#05596E"/>
			<stop  offset="0.2078" style="stop-color:#06566B"/>
			<stop  offset="0.4305" style="stop-color:#084E63"/>
			<stop  offset="0.6602" style="stop-color:#084156"/>
			<stop  offset="0.8933" style="stop-color:#052F45"/>
			<stop  offset="1" style="stop-color:#03253D"/>
		</linearGradient>
		<ellipse fill="url(#SVGID_4_)" cx="89.758" cy="272.428" rx="37.437" ry="18.191"/>
		<linearGradient id="SVGID_5_" gradientUnits="userSpaceOnUse" x1="49.7164" y1="262.7812" x2="127.95" y2="262.7812">
			<stop  offset="0" style="stop-color:#05596E"/>
			<stop  offset="0.2078" style="stop-color:#06566B"/>
			<stop  offset="0.4305" style="stop-color:#084E63"/>
			<stop  offset="0.6602" style="stop-color:#084156"/>
			<stop  offset="0.8933" style="stop-color:#052F45"/>
			<stop  offset="1" style="stop-color:#03253D"/>
		</linearGradient>
		<path fill="url(#SVGID_5_)" d="M123.437,242.424c0,0,3.126,4.087,3.758,6.343c1.699,6.06,0,25.174,0,25.174
			s-58.336,16.98-72.551,4.795c-4.367-3.744-5.446-23.487-4.719-29.193c0.412-3.233,2.904-6.465,2.904-6.465L123.437,242.424z"/>
		<linearGradient id="SVGID_6_" gradientUnits="userSpaceOnUse" x1="50.9327" y1="248.8064" x2="125.8072" y2="248.8064">
			<stop  offset="0" style="stop-color:#05596E"/>
			<stop  offset="0.0587" style="stop-color:#084F64"/>
			<stop  offset="0.1799" style="stop-color:#084055"/>
			<stop  offset="0.3151" style="stop-color:#06344A"/>
			<stop  offset="0.4699" style="stop-color:#042B42"/>
			<stop  offset="0.6614" style="stop-color:#03263E"/>
			<stop  offset="1" style="stop-color:#03253D"/>
		</linearGradient>
		<ellipse fill="url(#SVGID_6_)" cx="88.37" cy="248.806" rx="37.437" ry="18.191"/>
		<ellipse fill="#6E869C" cx="89.154" cy="250.307" rx="22.801" ry="10.529"/>
		<ellipse fill="#90ABC3" cx="89.154" cy="255.723" rx="14.711" ry="6.193"/>
		<ellipse fill="#F5EEE7" cx="88.725" cy="257.562" rx="7.862" ry="3.631"/>
		<ellipse fill="#D1D2D2" cx="78.259" cy="254.223" rx="1.16" ry="0.777"/>
		<ellipse fill="#D1D2D2" cx="89.601" cy="251.083" rx="1.16" ry="0.777"/>
		<ellipse fill="#D1D2D2" cx="100.069" cy="254.999" rx="1.16" ry="0.777"/>
		<linearGradient id="SVGID_7_" gradientUnits="userSpaceOnUse" x1="60.9368" y1="248.8064" x2="115.8031" y2="248.8064">
			<stop  offset="0" style="stop-color:#05596E"/>
			<stop  offset="0.0587" style="stop-color:#084F64"/>
			<stop  offset="0.1799" style="stop-color:#084055"/>
			<stop  offset="0.3151" style="stop-color:#06344A"/>
			<stop  offset="0.4699" style="stop-color:#042B42"/>
			<stop  offset="0.6614" style="stop-color:#03263E"/>
			<stop  offset="1" style="stop-color:#03253D"/>
		</linearGradient>
		<path fill="url(#SVGID_7_)" d="M88.37,235.016c-15.151,0-27.433,6.174-27.433,13.79s12.282,13.79,27.433,13.79
			c15.151,0,27.433-6.174,27.433-13.79S103.521,235.016,88.37,235.016z M88.957,260.411c-12.194,0-22.079-4.565-22.079-10.196
			c0-5.631,9.885-10.196,22.079-10.196c12.194,0,22.079,4.565,22.079,10.196C111.036,255.847,101.151,260.411,88.957,260.411z"/>
		<path fill="#57708B" d="M90.762,249.569c0,0,0.284-4.838,0-6.417c-0.147-0.82-1.16-3.126-1.16-3.126l-2.816,0.043l-3.189,0.254
			c0,0,1.896,2.369,2.209,3.302c0.476,1.422,1.065,5.905,1.065,5.905h1.855L90.762,249.569z"/>
		<path fill="#57708B" d="M79.412,251.083c0,0-1.384-4.02-2.313-5.052c-0.841-0.934-4.325-2.559-4.325-2.559l-1.707,1.021
			l-1.968,1.547c0,0,3.648,1.088,4.648,1.826c1.145,0.845,4.059,3.994,4.059,3.994L79.412,251.083z"/>
		<path fill="#57708B" d="M102.511,253.133c0,0,3.416-0.848,4.211-1.652c1.066-1.076,2.157-5.66,2.157-5.66
			s-1.293-1.086-1.759-1.401c-0.536-0.362-2.252-1.274-2.252-1.274s-0.383,4.041-1.003,5.156c-0.577,1.037-3.008,3.671-3.008,3.671
			L102.511,253.133z"/>
		<path opacity="0.2" fill="#B6B7B7" d="M49.843,257.529c0,0,4.262,10.002,7.338,11.454c2.884,1.361,9.523-2.052,12.666-1.512
			c3.681,0.632,9.663,6.459,13.395,6.616c3.486,0.147,9.502-5.044,12.991-5.104c3.259-0.056,9.089,4.956,12.292,4.348
			c3.469-0.659,7.308-8.158,10.662-9.263c1.711-0.564,5.754,1.663,7.184,0.567c1.717-1.316,1.58-8.507,1.58-8.507v2.799
			c0,0,0.375,6.216-1.116,7.308c-1.472,1.078-5.472-1.677-7.212-1.127c-3.458,1.093-6.893,9.323-10.441,10.073
			c-3.372,0.713-9.503-4.845-12.949-4.736c-3.545,0.112-9.446,5.842-12.991,5.705c-3.934-0.152-10.008-6.759-13.888-7.427
			c-3.192-0.549-9.869,3.296-12.81,1.938c-2.827-1.306-6.562-10.587-6.562-10.587L49.843,257.529z"/>
		<path opacity="0.2" fill="#B6B7B7" d="M52.409,274.784c0,0,1.934,2.228,2.991,2.228c2.355,0,9.225-1.597,11.906-1.136
			c3.681,0.632,9.663,6.459,13.395,6.616c3.486,0.147,9.502-5.044,12.991-5.104c3.259-0.056,11.301,5.433,14.503,4.825
			c3.469-0.659,6.966-7.062,10.319-8.167c1.711-0.564,5.043,1.603,6.472,0.507c1.717-1.316,2.579-5.694,2.579-5.694l-0.123,1.861
			c0,0-0.501,4.34-1.992,5.432c-1.472,1.078-4.761-1.616-6.501-1.066c-3.458,1.093-6.55,8.227-10.099,8.977
			c-3.372,0.713-11.715-5.322-15.16-5.213c-3.545,0.112-9.446,5.842-12.991,5.705c-3.934-0.152-10.008-6.759-13.888-7.427
			c-3.192-0.549-9.012,1.535-11.914,0.83c-0.513-0.125-1.702-1.249-1.702-1.249L52.409,274.784z"/>
	</g>
	<g>
		<linearGradient id="SVGID_8_" gradientUnits="userSpaceOnUse" x1="57.5777" y1="245.2624" x2="132.4522" y2="245.2624">
			<stop  offset="0" style="stop-color:#05596E"/>
			<stop  offset="0.2078" style="stop-color:#06566B"/>
			<stop  offset="0.4305" style="stop-color:#084E63"/>
			<stop  offset="0.6602" style="stop-color:#084156"/>
			<stop  offset="0.8933" style="stop-color:#052F45"/>
			<stop  offset="1" style="stop-color:#03253D"/>
		</linearGradient>
		<ellipse fill="url(#SVGID_8_)" cx="95.015" cy="245.262" rx="37.437" ry="18.191"/>
		<linearGradient id="SVGID_9_" gradientUnits="userSpaceOnUse" x1="54.9738" y1="235.6158" x2="133.2073" y2="235.6158">
			<stop  offset="0" style="stop-color:#05596E"/>
			<stop  offset="0.2078" style="stop-color:#06566B"/>
			<stop  offset="0.4305" style="stop-color:#084E63"/>
			<stop  offset="0.6602" style="stop-color:#084156"/>
			<stop  offset="0.8933" style="stop-color:#052F45"/>
			<stop  offset="1" style="stop-color:#03253D"/>
		</linearGradient>
		<path fill="url(#SVGID_9_)" d="M128.694,215.259c0,0,3.126,4.087,3.758,6.343c1.699,6.06,0,25.174,0,25.174
			s-58.336,16.98-72.551,4.795c-4.367-3.744-5.446-23.487-4.719-29.193c0.412-3.233,2.904-6.465,2.904-6.465L128.694,215.259z"/>
		<linearGradient id="SVGID_10_" gradientUnits="userSpaceOnUse" x1="56.19" y1="221.641" x2="131.0645" y2="221.641">
			<stop  offset="0" style="stop-color:#05596E"/>
			<stop  offset="0.0587" style="stop-color:#084F64"/>
			<stop  offset="0.1799" style="stop-color:#084055"/>
			<stop  offset="0.3151" style="stop-color:#06344A"/>
			<stop  offset="0.4699" style="stop-color:#042B42"/>
			<stop  offset="0.6614" style="stop-color:#03263E"/>
			<stop  offset="1" style="stop-color:#03253D"/>
		</linearGradient>
		<ellipse fill="url(#SVGID_10_)" cx="93.627" cy="221.641" rx="37.437" ry="18.191"/>
		<ellipse fill="#6E869C" cx="94.412" cy="223.141" rx="22.801" ry="10.529"/>
		<ellipse fill="#90ABC3" cx="94.412" cy="228.558" rx="14.711" ry="6.193"/>
		<ellipse fill="#F5EEE7" cx="93.983" cy="230.396" rx="7.862" ry="3.631"/>
		<ellipse fill="#D1D2D2" cx="83.517" cy="227.058" rx="1.16" ry="0.777"/>
		<ellipse fill="#D1D2D2" cx="94.859" cy="223.918" rx="1.16" ry="0.777"/>
		<ellipse fill="#D1D2D2" cx="105.326" cy="227.834" rx="1.16" ry="0.777"/>
		<linearGradient id="SVGID_11_" gradientUnits="userSpaceOnUse" x1="66.1941" y1="221.641" x2="121.0605" y2="221.641">
			<stop  offset="0" style="stop-color:#05596E"/>
			<stop  offset="0.2078" style="stop-color:#06566B"/>
			<stop  offset="0.4305" style="stop-color:#084E63"/>
			<stop  offset="0.6602" style="stop-color:#084156"/>
			<stop  offset="0.8933" style="stop-color:#052F45"/>
			<stop  offset="1" style="stop-color:#03253D"/>
		</linearGradient>
		<path fill="url(#SVGID_11_)" d="M93.627,207.851c-15.151,0-27.433,6.174-27.433,13.79s12.282,13.79,27.433,13.79
			c15.151,0,27.433-6.174,27.433-13.79S108.778,207.851,93.627,207.851z M94.214,233.246c-12.194,0-22.079-4.565-22.079-10.196
			c0-5.631,9.885-10.196,22.079-10.196c12.194,0,22.079,4.565,22.079,10.196C116.293,228.681,106.408,233.246,94.214,233.246z"/>
		<path fill="#57708B" d="M96.019,222.404c0,0,0.284-4.838,0-6.417c-0.147-0.82-1.16-3.126-1.16-3.126l-2.816,0.043l-3.189,0.254
			c0,0,1.896,2.369,2.209,3.302c0.476,1.422,1.065,5.905,1.065,5.905h1.855L96.019,222.404z"/>
		<path fill="#57708B" d="M84.67,223.918c0,0-1.384-4.02-2.313-5.052c-0.841-0.934-4.325-2.559-4.325-2.559l-1.707,1.021
			l-1.968,1.547c0,0,3.648,1.088,4.648,1.826c1.145,0.845,4.059,3.994,4.059,3.994L84.67,223.918z"/>
		<path fill="#57708B" d="M107.768,225.967c0,0,3.416-0.848,4.211-1.652c1.066-1.076,2.157-5.66,2.157-5.66
			s-1.293-1.086-1.759-1.401c-0.536-0.362-2.252-1.274-2.252-1.274s-0.383,4.041-1.003,5.156c-0.577,1.037-3.008,3.671-3.008,3.671
			L107.768,225.967z"/>
		<path opacity="0.2" fill="#B6B7B7" d="M55.1,230.364c0,0,4.262,10.002,7.338,11.454c2.884,1.361,9.523-2.052,12.666-1.512
			c3.681,0.632,9.663,6.459,13.395,6.616c3.486,0.147,9.502-5.044,12.991-5.104c3.259-0.056,9.089,4.956,12.292,4.348
			c3.469-0.659,7.308-8.158,10.662-9.263c1.711-0.564,5.754,1.663,7.184,0.567c1.717-1.316,1.58-8.507,1.58-8.507v2.799
			c0,0,0.375,6.216-1.116,7.308c-1.472,1.078-5.472-1.677-7.212-1.127c-3.458,1.093-6.893,9.323-10.441,10.073
			c-3.372,0.713-9.503-4.845-12.949-4.736c-3.545,0.112-9.446,5.842-12.991,5.705c-3.934-0.152-10.008-6.759-13.888-7.427
			c-3.192-0.549-9.869,3.296-12.81,1.938c-2.827-1.306-6.562-10.587-6.562-10.587L55.1,230.364z"/>
		<path opacity="0.2" fill="#B6B7B7" d="M57.666,247.618c0,0,1.934,2.228,2.991,2.228c2.355,0,9.225-1.597,11.906-1.136
			c3.681,0.632,9.663,6.459,13.395,6.616c3.486,0.147,9.502-5.044,12.991-5.104c3.259-0.056,11.301,5.433,14.503,4.825
			c3.469-0.659,6.966-7.062,10.319-8.167c1.711-0.564,5.043,1.603,6.472,0.507c1.717-1.316,2.579-5.694,2.579-5.694l-0.123,1.861
			c0,0-0.501,4.34-1.992,5.432c-1.472,1.078-4.761-1.616-6.501-1.066c-3.458,1.093-6.55,8.227-10.099,8.977
			c-3.372,0.713-11.715-5.322-15.16-5.213c-3.545,0.112-9.446,5.842-12.991,5.705c-3.934-0.152-10.008-6.759-13.888-7.427
			c-3.192-0.549-9.012,1.535-11.914,0.83c-0.513-0.125-1.702-1.249-1.702-1.249L57.666,247.618z"/>
	</g>
	<g>
		<linearGradient id="SVGID_12_" gradientUnits="userSpaceOnUse" x1="23.4975" y1="276.2514" x2="61.6656" y2="276.2514">
			<stop  offset="0" style="stop-color:#05596E"/>
			<stop  offset="0.2078" style="stop-color:#06566B"/>
			<stop  offset="0.4305" style="stop-color:#084E63"/>
			<stop  offset="0.6602" style="stop-color:#084156"/>
			<stop  offset="0.8933" style="stop-color:#052F45"/>
			<stop  offset="1" style="stop-color:#03253D"/>
		</linearGradient>
		<path fill="url(#SVGID_12_)" d="M49.163,239.397c9.89,1.766,14.961,19.698,11.326,40.052C56.854,299.803,45.89,314.872,36,313.106
			s-14.961-19.698-11.326-40.052S39.273,237.631,49.163,239.397z"/>
		<linearGradient id="SVGID_13_" gradientUnits="userSpaceOnUse" x1="7.1974" y1="274.4821" x2="61.7338" y2="274.4821">
			<stop  offset="0" style="stop-color:#05596E"/>
			<stop  offset="0.2078" style="stop-color:#06566B"/>
			<stop  offset="0.4305" style="stop-color:#084E63"/>
			<stop  offset="0.6602" style="stop-color:#084156"/>
			<stop  offset="0.8933" style="stop-color:#052F45"/>
			<stop  offset="1" style="stop-color:#03253D"/>
		</linearGradient>
		<path fill="url(#SVGID_13_)" d="M18.966,237.822c0,0,4.573-2.358,6.905-2.584c6.264-0.607,21.145,1.98,26.449,5.367
			c7.098,4.533,9.9,12.805,9.345,30.898c-0.471,15.378-8.597,32.79-16.706,38.957c-7.604,5.782-26.418,2.7-31.908,0.981
			c-3.11-0.974-5.854-3.996-5.854-3.996L18.966,237.822z"/>
		<linearGradient id="SVGID_14_" gradientUnits="userSpaceOnUse" x1="0" y1="273.4648" x2="38.1681" y2="273.4648">
			<stop  offset="0" style="stop-color:#05596E"/>
			<stop  offset="0.0587" style="stop-color:#084F64"/>
			<stop  offset="0.1799" style="stop-color:#084055"/>
			<stop  offset="0.3151" style="stop-color:#06344A"/>
			<stop  offset="0.4699" style="stop-color:#042B42"/>
			<stop  offset="0.6614" style="stop-color:#03263E"/>
			<stop  offset="1" style="stop-color:#03253D"/>
		</linearGradient>
		<path fill="url(#SVGID_14_)" d="M25.666,236.611c9.89,1.766,14.961,19.698,11.326,40.052
			c-3.635,20.354-14.599,35.422-24.489,33.656s-14.961-19.698-11.326-40.052S15.775,234.844,25.666,236.611z"/>
		
			<ellipse transform="matrix(0.1758 -0.9844 0.9844 0.1758 -251.6454 245.3469)" fill="#6E869C" cx="20.699" cy="272.957" rx="22.801" ry="10.529"/>
		
			<ellipse transform="matrix(0.1758 -0.9844 0.9844 0.1758 -248.1881 251.3808)" fill="#90ABC3" cx="26.031" cy="273.909" rx="14.711" ry="6.193"/>
		
			<ellipse transform="matrix(0.1758 -0.9844 0.9844 0.1758 -247.4922 253.7026)" fill="#F5EEE7" cx="27.766" cy="274.654" rx="7.862" ry="3.631"/>
		
			<ellipse transform="matrix(0.1758 -0.9844 0.9844 0.1758 -261.2824 256.6637)" fill="#D1D2D2" cx="22.639" cy="284.37" rx="1.16" ry="0.777"/>
		
			<ellipse transform="matrix(0.1758 -0.9844 0.9844 0.1758 -250.6516 245.9265)" fill="#D1D2D2" cx="21.542" cy="272.653" rx="1.16" ry="0.777"/>
		
			<ellipse transform="matrix(0.1758 -0.9844 0.9844 0.1758 -236.4912 243.6078)" fill="#D1D2D2" cx="27.237" cy="263.037" rx="1.16" ry="0.777"/>
		<linearGradient id="SVGID_15_" gradientUnits="userSpaceOnUse" x1="4.6737" y1="273.4648" x2="33.4943" y2="273.4648">
			<stop  offset="0" style="stop-color:#05596E"/>
			<stop  offset="0.2078" style="stop-color:#06566B"/>
			<stop  offset="0.4305" style="stop-color:#084E63"/>
			<stop  offset="0.6602" style="stop-color:#084156"/>
			<stop  offset="0.8933" style="stop-color:#052F45"/>
			<stop  offset="1" style="stop-color:#03253D"/>
		</linearGradient>
		<path fill="url(#SVGID_15_)" d="M5.509,271.041c-2.664,14.915,1.255,28.091,8.752,29.43c7.497,1.339,15.734-9.667,18.398-24.581
			c2.664-14.915-1.255-28.092-8.752-29.43C16.409,245.12,8.172,256.126,5.509,271.041z M30.611,274.927
			c-2.144,12.004-8.375,20.932-13.918,19.942c-5.543-0.99-8.299-11.523-6.156-23.527c2.144-12.004,8.375-20.932,13.919-19.942
			C29.999,252.39,32.755,262.923,30.611,274.927z"/>
		<path fill="#57708B" d="M20.255,271.244c0,0-4.713-1.13-6.317-1.128c-0.834,0.001-3.281,0.593-3.281,0.593l-0.453,2.78
			l-0.311,3.184c0,0,2.665-1.45,3.639-1.594c1.484-0.219,6-0.01,6-0.01l0.326-1.826L20.255,271.244z"/>
		<path fill="#57708B" d="M19.751,282.683c0,0-4.2,0.656-5.38,1.389c-1.067,0.663-3.28,3.808-3.28,3.808l0.705,1.86l1.177,2.209
			c0,0,1.713-3.4,2.615-4.255c1.034-0.979,4.645-3.294,4.645-3.294L19.751,282.683z"/>
		<path fill="#57708B" d="M25.829,260.305c0,0-0.235-3.512-0.886-4.436c-0.872-1.238-5.193-3.119-5.193-3.119
			s-1.297,1.082-1.688,1.486c-0.45,0.464-1.65,1.993-1.65,1.993s3.911,1.087,4.9,1.894c0.919,0.75,3.085,3.607,3.085,3.607
			L25.829,260.305z"/>
		<path opacity="0.2" fill="#B6B7B7" d="M20.898,312.925c0,0,10.596-2.438,12.566-5.21c1.847-2.599-0.346-9.735,0.738-12.734
			c1.269-3.513,8.057-8.378,8.868-12.023c0.758-3.406-3.295-10.241-2.741-13.686c0.518-3.218,6.477-8.076,6.441-11.336
			c-0.039-3.531-6.746-8.629-7.244-12.125c-0.254-1.783,2.649-5.372,1.821-6.972c-0.994-1.921-8.097-3.051-8.097-3.051l2.755,0.492
			c0,0,6.185,0.723,6.998,2.383c0.803,1.639-2.613,5.092-2.377,6.902c0.468,3.597,7.966,8.424,8.081,12.05
			c0.109,3.445-6.44,8.504-6.939,11.914c-0.513,3.51,4.09,10.326,3.332,13.791c-0.841,3.846-8.413,8.664-9.753,12.366
			c-1.102,3.046,1.51,10.295-0.345,12.951c-1.783,2.553-11.576,4.599-11.576,4.599L20.898,312.925z"/>
		<path opacity="0.2" fill="#B6B7B7" d="M38.335,313.433c0,0,2.534-1.512,2.72-2.552c0.414-2.319,0.05-9.362,0.974-11.921
			c1.269-3.513,8.057-8.378,8.868-12.023c0.758-3.406-3.295-10.241-2.741-13.686c0.518-3.218,7.335-10.17,7.3-13.429
			c-0.039-3.531-5.727-8.099-6.225-11.594c-0.254-1.783,2.464-4.682,1.637-6.282c-0.994-1.921-5.152-3.54-5.152-3.54l1.811,0.448
			c0,0,4.185,1.256,4.997,2.916c0.803,1.639-2.428,4.402-2.193,6.212c0.468,3.597,6.947,7.894,7.062,11.519
			c0.109,3.445-7.299,10.597-7.798,14.008c-0.513,3.51,4.09,10.326,3.332,13.791c-0.841,3.846-8.413,8.664-9.753,12.366
			c-1.102,3.046-0.074,9.142-1.277,11.874c-0.213,0.483-1.529,1.456-1.529,1.456L38.335,313.433z"/>
	</g>
</g>
<linearGradient id="SVGID_16_" gradientUnits="userSpaceOnUse" x1="226.9434" y1="426.5391" x2="385.5873" y2="267.8952">
	<stop  offset="0" style="stop-color:#072136;stop-opacity:0.9082"/>
	<stop  offset="0.2925" style="stop-color:#082337;stop-opacity:0.6426"/>
	<stop  offset="0.4522" style="stop-color:#0B273D;stop-opacity:0.4975"/>
	<stop  offset="0.5799" style="stop-color:#112F47;stop-opacity:0.3815"/>
	<stop  offset="0.6907" style="stop-color:#183B56;stop-opacity:0.2809"/>
	<stop  offset="0.7905" style="stop-color:#1F4A6B;stop-opacity:0.1903"/>
	<stop  offset="0.8824" style="stop-color:#265E88;stop-opacity:0.1068"/>
	<stop  offset="0.9665" style="stop-color:#2976AE;stop-opacity:0.0304"/>
	<stop  offset="1" style="stop-color:#2683C6;stop-opacity:0"/>
</linearGradient>
<path fill="url(#SVGID_16_)" d="M167.868,367.464l214.373-11.221l60.498-27.349c0,0-0.943-2.32-1.77-3.418
	c-0.811-1.076-1.037-3.236-1.037-3.236l-47.35-0.922c0,0-5.617,0-10.679,0.436c-4.982,0.429-9.241-2.567-9.241-2.567
	L167.868,367.464z"/>
<g>
	<polygon fill="#F7BDD1" points="158.292,114.421 126.055,95.763 317.183,88.437 382.206,103.24 308.665,108.369 	"/>
	<path fill="#C77093" d="M383.203,171.352c3.562,4.828,11.818,7.739,17.493,9.69c1.691,0.581,4.394,1.314,7.415-0.262
		c5.718-2.983,11.208-15.808,17.332-17.832c1.624-0.537,5.071,1.045,6.777,0.934c3.189-0.209,9.683-1.589,12.33-3.38
		c1.707-1.156,3.933-4.797,4.978-6.574c0.658-1.118,2.298-3.467,2.092-4.748c-0.127-0.787-1.382-2.109-2.136-2.368
		c-2.678-0.921-8.59,3.159-11.157,1.962c-0.995-0.464-1.298-3.174-2.198-3.802c-2.976-2.077-11.514-0.166-14.302-2.488
		c-1.622-1.351-2.64-5.829-2.927-7.92c-0.475-3.472,2.505-8.479,0.791-11.536c-1.792-3.196-9.815-8.246-13.088-6.598
		c-4.188,2.108-2.681,11.362-2.839,16.049c-0.059,1.751,0.466,5.236,0.725,6.969c0.366,2.449,0.817,7.496,1.901,9.723
		c0.617,1.268,3.976,2.886,3.689,4.267c-0.556,2.676-9.854,4.734-9.854,4.734l-22.944-13.14c-2.008,1.785,3.538,7.285,4.211,9.886
		C382.528,158.915,380.751,168.027,383.203,171.352z"/>
	<polygon fill="#EA97AC" points="382.206,103.24 364.742,123.949 364.771,340.429 382.375,356.681 	"/>
	<polygon fill="#F2AFC7" points="158.292,114.421 175.936,135.117 364.771,123.913 382.206,103.217 	"/>
	<polygon fill="#EA97AC" points="158.295,368.337 175.936,351.674 175.94,135.117 158.292,114.421 	"/>
	<polygon fill="#B67090" points="364.939,340.181 382.375,356.681 158.292,368.401 175.936,351.674 	"/>
	<polygon fill="#DB85A4" points="364.939,340.181 175.936,351.674 175.936,135.117 364.939,123.688 	"/>
	<linearGradient id="SVGID_17_" gradientUnits="userSpaceOnUse" x1="250.7342" y1="128.1904" x2="364.9393" y2="128.1904">
		<stop  offset="0" style="stop-color:#A2A2A2;stop-opacity:0"/>
		<stop  offset="0.1573" style="stop-color:#BCADB4;stop-opacity:0.1573"/>
		<stop  offset="0.3589" style="stop-color:#D7B8C5;stop-opacity:0.3589"/>
		<stop  offset="0.5649" style="stop-color:#EAC1D2;stop-opacity:0.5649"/>
		<stop  offset="0.776" style="stop-color:#F5C5DA;stop-opacity:0.776"/>
		<stop  offset="1" style="stop-color:#F9C7DC"/>
	</linearGradient>
	<polygon fill="url(#SVGID_17_)" points="364.89,126.069 250.748,132.744 250.734,130.343 364.939,123.637 	"/>
	
		<linearGradient id="SVGID_18_" gradientUnits="userSpaceOnUse" x1="-429.3696" y1="-9754.3604" x2="-323.2791" y2="-9754.3604" gradientTransform="matrix(4.489700e-11 -1 1 4.489700e-11 10117.9756 -199.6422)">
		<stop  offset="0" style="stop-color:#A2A2A2;stop-opacity:0"/>
		<stop  offset="0.1573" style="stop-color:#BCADB4;stop-opacity:0.1573"/>
		<stop  offset="0.3589" style="stop-color:#D7B8C5;stop-opacity:0.3589"/>
		<stop  offset="0.5649" style="stop-color:#EAC1D2;stop-opacity:0.5649"/>
		<stop  offset="0.776" style="stop-color:#F5C5DA;stop-opacity:0.776"/>
		<stop  offset="1" style="stop-color:#F9C7DC"/>
	</linearGradient>
	<polygon fill="url(#SVGID_18_)" points="364.939,123.637 364.693,229.715 362.292,229.727 362.515,123.921 	"/>
	<polygon fill="#DF8CA6" points="158.292,368.401 158.292,114.421 126.055,95.763 128.634,345.002 	"/>
	<circle fill="#297D63" cx="161.894" cy="315.871" r="3.312"/>
	<circle fill="#297D63" cx="161.56" cy="307.607" r="3.312"/>
	<circle fill="#DDB660" cx="170.577" cy="316.269" r="3.312"/>
	<circle fill="#DDB660" cx="168.912" cy="308.005" r="3.312"/>
	<circle fill="#DDB660" cx="164.584" cy="301.627" r="3.312"/>
	<circle fill="#81C6AB" cx="171.826" cy="301.197" r="3.312"/>
	<circle fill="#C7E7DD" cx="169.202" cy="291.609" r="3.312"/>
	<circle fill="#297D63" cx="162.54" cy="277.739" r="3.312"/>
	<circle fill="#297D63" cx="161.774" cy="294.694" r="3.312"/>
	<circle fill="#C7E7DD" cx="170.428" cy="269.298" r="3.312"/>
	<circle fill="#297D63" cx="165.967" cy="323.563" r="3.312"/>
	<circle fill="#81C6AB" cx="175.721" cy="310.919" r="3.312"/>
	<circle fill="#C7E7DD" cx="175.684" cy="294.332" r="3.312"/>
	<circle fill="#C7E7DD" cx="162.587" cy="287.631" r="3.312"/>
	<circle fill="#C7E7DD" cx="168.357" cy="282.681" r="3.312"/>
	<circle fill="#C7E7DD" cx="175.166" cy="285.594" r="3.312"/>
	<circle fill="#C7E7DD" cx="174.722" cy="278.117" r="3.312"/>
	<circle fill="#81C6AB" cx="182.1" cy="290.634" r="3.312"/>
	<circle fill="#81C6AB" cx="183.277" cy="310.47" r="3.312"/>
	<circle fill="#81C6AB" cx="179.419" cy="317.334" r="3.312"/>
	<circle fill="#81C6AB" cx="175.202" cy="323.563" r="3.312"/>
	<circle fill="#DDB660" cx="220.77" cy="320.251" r="3.312"/>
	<circle fill="#297D63" cx="166.502" cy="331.233" r="3.312"/>
	<circle fill="#A0C0AE" cx="161.777" cy="346.984" r="3.312"/>
	<circle fill="#81C6AB" cx="232.247" cy="306.101" r="3.312"/>
	<circle fill="#81C6AB" cx="225.342" cy="312.195" r="3.312"/>
	<circle fill="#81C6AB" cx="181.271" cy="351.189" r="3.312"/>
	<circle fill="#81C6AB" cx="184.1" cy="342.968" r="3.312"/>
	<circle fill="#81C6AB" cx="191.105" cy="349.187" r="3.312"/>
	<circle fill="#81C6AB" cx="191.286" cy="341.593" r="3.312"/>
	<circle fill="#81C6AB" cx="186.958" cy="335.215" r="3.312"/>
	<circle fill="#81C6AB" cx="194.2" cy="334.785" r="3.312"/>
	<circle fill="#81C6AB" cx="190.501" cy="328.369" r="3.312"/>
	<circle fill="#DDB660" cx="167.987" cy="342.976" r="3.312"/>
	<circle fill="#81C6AB" cx="173.126" cy="337.932" r="3.312"/>
	<circle fill="#81C6AB" cx="180.626" cy="336.539" r="3.312"/>
	<circle fill="#81C6AB" cx="182" cy="328.874" r="3.312"/>
	<circle fill="#67A489" cx="186.932" cy="356.07" r="3.312"/>
	<circle fill="#81C6AB" cx="198.094" cy="344.507" r="3.312"/>
	<circle fill="#81C6AB" cx="198.058" cy="327.921" r="3.312"/>
	<circle fill="#81C6AB" cx="184.914" cy="322.065" r="3.312"/>
	<circle fill="#81C6AB" cx="190.731" cy="316.269" r="3.312"/>
	<circle fill="#81C6AB" cx="197.539" cy="319.183" r="3.312"/>
	<circle fill="#81C6AB" cx="197.095" cy="311.705" r="3.312"/>
	<circle fill="#DDB660" cx="204.474" cy="324.222" r="3.312"/>
	<circle fill="#DDB660" cx="205.651" cy="344.058" r="3.312"/>
	<circle fill="#81C6AB" cx="201.793" cy="350.923" r="3.312"/>
	<circle fill="#67A489" cx="195.928" cy="355.024" r="3.312"/>
	<circle fill="#5C3A47" cx="241.015" cy="332.915" r="3.312"/>
	<circle fill="#5C3A47" cx="248.257" cy="332.485" r="3.312"/>
	<circle fill="#A0C0AE" cx="168.402" cy="362.813" r="3.312"/>
	<circle fill="#81C6AB" cx="228.769" cy="318.236" r="3.312"/>
	<circle fill="#DDB660" cx="227.362" cy="325.902" r="3.312"/>
	<circle fill="#DDB660" cx="234.919" cy="325.454" r="3.312"/>
	<circle fill="#81C6AB" cx="236.292" cy="317.789" r="3.312"/>
	<circle fill="#67A489" cx="162.295" cy="357.042" r="3.312"/>
	<circle fill="#DDB660" cx="167.265" cy="351.548" r="3.312"/>
	<circle fill="#67A489" cx="174.073" cy="354.462" r="3.312"/>
	<circle fill="#DDB660" cx="173.63" cy="346.984" r="3.312"/>
	<circle fill="#67A489" cx="181.008" cy="359.501" r="3.312"/>
	<circle fill="#DDB660" cx="202.054" cy="336.686" r="3.312"/>
	<circle fill="#DDB660" cx="226.512" cy="351.03" r="3.312"/>
	<circle fill="#5C3A47" cx="230.669" cy="343.678" r="3.312"/>
	<circle fill="#5C3A47" cx="237.674" cy="349.898" r="3.312"/>
	<circle fill="#5C3A47" cx="237.855" cy="342.304" r="3.312"/>
	<circle fill="#5C3A47" cx="224.001" cy="343.126" r="3.312"/>
	<circle fill="#5C3A47" cx="232.614" cy="335.19" r="3.312"/>
	<circle fill="#5C3A47" cx="214.555" cy="343.687" r="3.312"/>
	<circle fill="#DDB660" cx="211.484" cy="337.392" r="3.312"/>
	<circle fill="#5C3A47" cx="219.041" cy="336.943" r="3.312"/>
	<circle fill="#DDB660" cx="232.443" cy="354.502" r="3.312"/>
	<circle fill="#5C3A47" cx="244.663" cy="345.217" r="3.312"/>
	<circle fill="#5C3A47" cx="253.861" cy="336.971" r="3.312"/>
	<circle fill="#67A489" cx="195.169" cy="362.79" r="3.312"/>
	<circle fill="#A0C0AE" cx="161.777" cy="365.024" r="3.312"/>
	<circle fill="#67A489" cx="187.412" cy="363.375" r="3.312"/>
	<circle fill="#5C3A47" cx="252.22" cy="344.769" r="3.312"/>
	<circle fill="#DDB660" cx="248.362" cy="351.633" r="3.312"/>
	<circle fill="#663848" cx="242.47" cy="356.587" r="3.312"/>
	<circle fill="#67A489" cx="211.484" cy="361.712" r="3.312"/>
	<circle fill="#663848" cx="235.926" cy="360.734" r="3.312"/>
	<circle fill="#67A489" cx="175.202" cy="363.908" r="3.312"/>
	<circle fill="#67A489" cx="202.339" cy="362.097" r="3.312"/>
	<circle fill="#67A489" cx="219.041" cy="361.816" r="3.312"/>
	<circle fill="#67A489" cx="206.501" cy="356.344" r="3.312"/>
	<circle fill="#67A489" cx="212.369" cy="352.11" r="3.312"/>
	<circle fill="#67A489" cx="219.888" cy="354.936" r="3.312"/>
	<circle fill="#81C6AB" cx="218.734" cy="347.546" r="3.312"/>
	<circle fill="#67A489" cx="226.112" cy="360.063" r="3.312"/>
	<circle fill="#297D63" cx="260.485" cy="359.356" r="3.312"/>
	<circle fill="#663848" cx="248.629" cy="359.784" r="3.312"/>
	<circle fill="#297D63" cx="270.791" cy="358.954" r="3.312"/>
	<circle fill="#DDB660" cx="254.206" cy="355.422" r="3.312"/>
	<circle fill="#297D63" cx="259.673" cy="350.568" r="3.312"/>
	<circle fill="#297D63" cx="266.482" cy="353.482" r="3.312"/>
	<circle fill="#297D63" cx="261.589" cy="342.054" r="3.312"/>
	<circle fill="#297D63" cx="270.351" cy="346.617" r="3.312"/>
	<circle fill="#297D63" cx="161.56" cy="331.233" r="3.312"/>
	<circle fill="#DDB660" cx="175.202" cy="330.847" r="3.312"/>
	<circle fill="#A0C0AE" cx="161.777" cy="339.151" r="3.312"/>
	<circle fill="#DDB660" cx="183.489" cy="236.834" r="3.312"/>
	<circle fill="#DDB660" cx="186.319" cy="228.612" r="3.312"/>
	<circle fill="#DDB660" cx="193.323" cy="234.832" r="3.312"/>
	<circle fill="#81C6AB" cx="193.504" cy="227.238" r="3.312"/>
	<circle fill="#DDB660" cx="189.176" cy="220.859" r="3.312"/>
	<circle fill="#81C6AB" cx="196.418" cy="220.43" r="3.312"/>
	<circle fill="#81C6AB" cx="192.719" cy="214.014" r="3.312"/>
	<circle fill="#DDB660" cx="170.205" cy="228.621" r="3.312"/>
	<circle fill="#DDB660" cx="175.288" cy="222.632" r="3.312"/>
	<circle fill="#DDB660" cx="182.845" cy="222.183" r="3.312"/>
	<circle fill="#DDB660" cx="184.218" cy="214.518" r="3.312"/>
	<circle fill="#DDB660" cx="189.15" cy="241.715" r="3.312"/>
	<circle fill="#81C6AB" cx="200.313" cy="230.151" r="3.312"/>
	<circle fill="#81C6AB" cx="200.276" cy="213.565" r="3.312"/>
	<circle fill="#DDB660" cx="187.132" cy="207.71" r="3.312"/>
	<circle fill="#81C6AB" cx="192.949" cy="201.914" r="3.312"/>
	<circle fill="#81C6AB" cx="199.757" cy="204.827" r="3.312"/>
	<circle fill="#297D63" cx="199.313" cy="197.35" r="3.312"/>
	<circle fill="#81C6AB" cx="205.337" cy="221.64" r="3.312"/>
	<circle fill="#81C6AB" cx="207.869" cy="229.703" r="3.312"/>
	<circle fill="#297D63" cx="204.011" cy="236.567" r="3.312"/>
	<circle fill="#DDB660" cx="197.106" cy="242.661" r="3.312"/>
	<circle fill="#297D63" cx="225.501" cy="244.611" r="3.312"/>
	<circle fill="#297D63" cx="228.33" cy="236.389" r="3.312"/>
	<circle fill="#297D63" cx="235.335" cy="242.609" r="3.312"/>
	<circle fill="#297D63" cx="235.516" cy="235.015" r="3.312"/>
	<circle fill="#81C6AB" cx="231.188" cy="228.637" r="3.312"/>
	<circle fill="#81C6AB" cx="238.429" cy="228.207" r="3.312"/>
	<circle fill="#81C6AB" cx="234.731" cy="221.791" r="3.312"/>
	<circle fill="#297D63" cx="212.216" cy="236.398" r="3.312"/>
	<circle fill="#81C6AB" cx="217.299" cy="230.409" r="3.312"/>
	<circle fill="#81C6AB" cx="224.856" cy="229.96" r="3.312"/>
	<circle fill="#81C6AB" cx="226.23" cy="222.295" r="3.312"/>
	<circle fill="#297D63" cx="231.162" cy="249.492" r="3.312"/>
	<circle fill="#297D63" cx="242.324" cy="237.928" r="3.312"/>
	<circle fill="#81C6AB" cx="242.288" cy="221.342" r="3.312"/>
	<circle fill="#C7E7DD" cx="229.143" cy="215.487" r="3.312"/>
	<circle fill="#81C6AB" cx="234.961" cy="209.691" r="3.312"/>
	<circle fill="#81C6AB" cx="241.769" cy="212.604" r="3.312"/>
	<circle fill="#81C6AB" cx="241.325" cy="205.127" r="3.312"/>
	<circle fill="#81C6AB" cx="248.703" cy="217.644" r="3.312"/>
	<circle fill="#297D63" cx="249.881" cy="237.48" r="3.312"/>
	<circle fill="#297D63" cx="246.023" cy="244.344" r="3.312"/>
	<circle fill="#297D63" cx="239.117" cy="250.438" r="3.312"/>
	<circle fill="#DDB660" cx="200.57" cy="279.742" r="3.312"/>
	<circle fill="#DDB660" cx="203.4" cy="271.52" r="3.312"/>
	<circle fill="#DDB660" cx="210.405" cy="277.739" r="3.312"/>
	<circle fill="#DDB660" cx="210.586" cy="270.145" r="3.312"/>
	<circle fill="#DDB660" cx="206.258" cy="263.767" r="3.312"/>
	<circle fill="#DDB660" cx="213.499" cy="263.337" r="3.312"/>
	<circle fill="#297D63" cx="209.801" cy="256.921" r="3.312"/>
	<circle fill="#81C6AB" cx="187.286" cy="271.528" r="3.312"/>
	<circle fill="#81C6AB" cx="192.369" cy="265.539" r="3.312"/>
	<circle fill="#DDB660" cx="199.926" cy="265.091" r="3.312"/>
	<circle fill="#DDB660" cx="201.3" cy="257.426" r="3.312"/>
	<circle fill="#DDB660" cx="206.232" cy="284.622" r="3.312"/>
	<circle fill="#DDB660" cx="217.394" cy="273.059" r="3.312"/>
	<circle fill="#297D63" cx="217.357" cy="256.473" r="3.312"/>
	<circle fill="#297D63" cx="204.213" cy="250.618" r="3.312"/>
	<circle fill="#297D63" cx="210.03" cy="244.821" r="3.312"/>
	<circle fill="#297D63" cx="216.839" cy="247.735" r="3.312"/>
	<circle fill="#297D63" cx="216.395" cy="240.258" r="3.312"/>
	<circle fill="#297D63" cx="223.773" cy="252.774" r="3.312"/>
	<circle fill="#81C6AB" cx="224.951" cy="272.61" r="3.312"/>
	<circle fill="#81C6AB" cx="221.093" cy="279.475" r="3.312"/>
	<circle fill="#DDB660" cx="214.187" cy="285.569" r="3.312"/>
	<circle fill="#81C6AB" cx="247.874" cy="278.199" r="3.312"/>
	<circle fill="#81C6AB" cx="250.704" cy="269.978" r="3.312"/>
	<circle fill="#297D63" cx="257.708" cy="276.197" r="3.312"/>
	<circle fill="#297D63" cx="257.89" cy="268.603" r="3.312"/>
	<circle fill="#DDB660" cx="253.561" cy="262.225" r="3.312"/>
	<circle fill="#297D63" cx="260.803" cy="261.795" r="3.312"/>
	<circle fill="#297D63" cx="257.105" cy="255.379" r="3.312"/>
	<circle fill="#81C6AB" cx="234.59" cy="269.986" r="3.312"/>
	<circle fill="#DDB660" cx="239.729" cy="264.942" r="3.312"/>
	<circle fill="#DDB660" cx="247.23" cy="263.548" r="3.312"/>
	<circle fill="#297D63" cx="248.603" cy="255.884" r="3.312"/>
	<circle fill="#81C6AB" cx="253.535" cy="283.08" r="3.312"/>
	<circle fill="#297D63" cx="264.698" cy="271.517" r="3.312"/>
	<circle fill="#297D63" cx="264.661" cy="254.931" r="3.312"/>
	<circle fill="#297D63" cx="251.517" cy="249.075" r="3.312"/>
	<circle fill="#297D63" cx="257.334" cy="243.279" r="3.312"/>
	<circle fill="#297D63" cx="264.143" cy="246.193" r="3.312"/>
	<circle fill="#297D63" cx="263.699" cy="238.715" r="3.312"/>
	<circle fill="#297D63" cx="270.992" cy="240.496" r="3.312"/>
	<circle fill="#297D63" cx="272.255" cy="271.068" r="3.312"/>
	<circle fill="#297D63" cx="268.396" cy="277.933" r="3.312"/>
	<circle fill="#DDB660" cx="261.491" cy="284.026" r="3.312"/>
	<circle fill="#81C6AB" cx="187.395" cy="298.852" r="3.312"/>
	<circle fill="#81C6AB" cx="190.225" cy="290.63" r="3.312"/>
	<circle fill="#81C6AB" cx="197.23" cy="296.849" r="3.312"/>
	<circle fill="#81C6AB" cx="197.411" cy="289.255" r="3.312"/>
	<circle fill="#81C6AB" cx="230.096" cy="297.504" r="3.312"/>
	<circle fill="#81C6AB" cx="237.337" cy="297.074" r="3.312"/>
	<circle fill="#81C6AB" cx="233.639" cy="290.658" r="3.312"/>
	<circle fill="#DDB660" cx="217.614" cy="291.609" r="3.312"/>
	<circle fill="#DDB660" cx="216.207" cy="299.276" r="3.312"/>
	<circle fill="#81C6AB" cx="223.764" cy="298.827" r="3.312"/>
	<circle fill="#81C6AB" cx="225.138" cy="291.163" r="3.312"/>
	<circle fill="#81C6AB" cx="193.057" cy="303.732" r="3.312"/>
	<circle fill="#DDB660" cx="204.219" cy="292.169" r="3.312"/>
	<circle fill="#81C6AB" cx="241.195" cy="290.209" r="3.312"/>
	<circle fill="#81C6AB" cx="228.051" cy="284.354" r="3.312"/>
	<circle fill="#81C6AB" cx="233.868" cy="278.558" r="3.312"/>
	<circle fill="#81C6AB" cx="240.677" cy="281.471" r="3.312"/>
	<circle fill="#81C6AB" cx="240.233" cy="273.994" r="3.312"/>
	<circle fill="#81C6AB" cx="247.611" cy="286.511" r="3.312"/>
	<circle fill="#297D63" cx="268.657" cy="263.696" r="3.312"/>
	<circle fill="#DDB660" cx="207.918" cy="298.585" r="3.312"/>
	<circle fill="#DDB660" cx="201.012" cy="304.679" r="3.312"/>
	<circle fill="#297D63" cx="294.443" cy="278.91" r="3.312"/>
	<circle fill="#DDB660" cx="297.272" cy="270.688" r="3.312"/>
	<circle fill="#DDB660" cx="304.277" cy="276.908" r="3.312"/>
	<circle fill="#DDB660" cx="304.458" cy="269.314" r="3.312"/>
	<circle fill="#DDB660" cx="290.604" cy="270.136" r="3.312"/>
	<circle fill="#DDB660" cx="299.217" cy="262.2" r="3.312"/>
	<circle fill="#81C6AB" cx="248.529" cy="307.863" r="3.312"/>
	<circle fill="#DDB660" cx="281.159" cy="270.697" r="3.312"/>
	<circle fill="#DDB660" cx="278.087" cy="264.402" r="3.312"/>
	<circle fill="#DDB660" cx="285.644" cy="263.953" r="3.312"/>
	<circle fill="#81C6AB" cx="240.028" cy="308.368" r="3.312"/>
	<circle fill="#297D63" cx="300.104" cy="283.791" r="3.312"/>
	<circle fill="#5C3A47" cx="311.267" cy="272.227" r="3.312"/>
	<circle fill="#DDB660" cx="256.086" cy="307.415" r="3.312"/>
	<circle fill="#81C6AB" cx="242.941" cy="301.56" r="3.312"/>
	<circle fill="#81C6AB" cx="248.759" cy="295.763" r="3.312"/>
	<circle fill="#DDB660" cx="255.567" cy="298.677" r="3.312"/>
	<circle fill="#DDB660" cx="255.123" cy="291.199" r="3.312"/>
	<circle fill="#DDB660" cx="262.502" cy="303.716" r="3.312"/>
	<circle fill="#5C3A47" cx="318.823" cy="271.779" r="3.312"/>
	<circle fill="#5C3A47" cx="314.965" cy="278.643" r="3.312"/>
	<circle fill="#297D63" cx="308.059" cy="284.737" r="3.312"/>
	<circle fill="#C7E7DD" cx="269.513" cy="314.04" r="3.312"/>
	<circle fill="#2A2A31" cx="272.342" cy="305.819" r="3.312"/>
	<circle fill="#297D63" cx="279.347" cy="312.038" r="3.312"/>
	<circle fill="#297D63" cx="279.528" cy="304.444" r="3.312"/>
	<circle fill="#2A2A31" cx="275.2" cy="298.066" r="3.312"/>
	<circle fill="#297D63" cx="282.442" cy="297.636" r="3.312"/>
	<circle fill="#297D63" cx="278.743" cy="291.22" r="3.312"/>
	<circle fill="#297D63" cx="298.61" cy="297.781" r="3.312"/>
	<circle fill="#297D63" cx="303.693" cy="291.792" r="3.312"/>
	<circle fill="#2A2A31" cx="268.868" cy="299.39" r="3.312"/>
	<circle fill="#2A2A31" cx="270.242" cy="291.725" r="3.312"/>
	<circle fill="#C7E7DD" cx="275.174" cy="318.921" r="3.312"/>
	<circle fill="#297D63" cx="286.336" cy="307.358" r="3.312"/>
	<circle fill="#297D63" cx="286.3" cy="290.772" r="3.312"/>
	<circle fill="#DDB660" cx="273.155" cy="284.917" r="3.312"/>
	<circle fill="#DDB660" cx="278.973" cy="279.12" r="3.312"/>
	<circle fill="#297D63" cx="285.781" cy="282.034" r="3.312"/>
	<circle fill="#DDB660" cx="285.337" cy="274.556" r="3.312"/>
	<circle fill="#297D63" cx="292.716" cy="287.073" r="3.312"/>
	<circle fill="#297D63" cx="293.893" cy="306.909" r="3.312"/>
	<circle fill="#297D63" cx="290.035" cy="313.774" r="3.312"/>
	<circle fill="#297D63" cx="283.129" cy="319.868" r="3.312"/>
	<circle fill="#DDB660" cx="316.817" cy="312.498" r="3.312"/>
	<circle fill="#DDB660" cx="319.646" cy="304.276" r="3.312"/>
	<circle fill="#DDB660" cx="326.651" cy="310.496" r="3.312"/>
	<circle fill="#DDB660" cx="326.832" cy="302.902" r="3.312"/>
	<circle fill="#DDB660" cx="322.504" cy="296.524" r="3.312"/>
	<circle fill="#DDB660" cx="329.745" cy="296.094" r="3.312"/>
	<circle fill="#DDB660" cx="326.047" cy="289.678" r="3.312"/>
	<circle fill="#297D63" cx="303.532" cy="304.285" r="3.312"/>
	<circle fill="#297D63" cx="308.616" cy="298.296" r="3.312"/>
	<circle fill="#DDB660" cx="316.172" cy="297.847" r="3.312"/>
	<circle fill="#DDB660" cx="317.546" cy="290.183" r="3.312"/>
	<circle fill="#DDB660" cx="322.478" cy="317.379" r="3.312"/>
	<circle fill="#297D63" cx="333.64" cy="305.816" r="3.312"/>
	<circle fill="#297D63" cx="333.604" cy="289.229" r="3.312"/>
	<circle fill="#5C3A47" cx="320.459" cy="283.374" r="3.312"/>
	<circle fill="#DDB660" cx="326.277" cy="277.578" r="3.312"/>
	<circle fill="#DDB660" cx="333.085" cy="280.491" r="3.312"/>
	<circle fill="#DDB660" cx="332.641" cy="273.014" r="3.312"/>
	<circle fill="#297D63" cx="340.019" cy="285.531" r="3.312"/>
	<circle fill="#297D63" cx="341.197" cy="305.367" r="3.312"/>
	<circle fill="#297D63" cx="337.339" cy="312.231" r="3.312"/>
	<circle fill="#DDB660" cx="330.433" cy="318.325" r="3.312"/>
	<circle fill="#297D63" cx="290.129" cy="299.393" r="3.312"/>
	<circle fill="#297D63" cx="227.662" cy="258.79" r="3.312"/>
	<circle fill="#297D63" cx="236.254" cy="258.094" r="3.312"/>
	<circle fill="#DDB660" cx="228.38" cy="266.16" r="3.312"/>
	<circle fill="#297D63" cx="278.292" cy="347.697" r="3.312"/>
	<circle fill="#297D63" cx="282.397" cy="339.659" r="3.312"/>
	<circle fill="#297D63" cx="291.001" cy="345.784" r="3.312"/>
	<circle fill="#DDB660" cx="289.582" cy="338.285" r="3.312"/>
	<circle fill="#DDB660" cx="275.728" cy="339.107" r="3.312"/>
	<circle fill="#DDB660" cx="284.341" cy="331.171" r="3.312"/>
	<circle fill="#297D63" cx="285.135" cy="351.19" r="3.312"/>
	<circle fill="#297D63" cx="296.391" cy="341.198" r="3.312"/>
	<circle fill="#297D63" cx="303.947" cy="340.75" r="3.312"/>
	<circle fill="#297D63" cx="300.089" cy="347.614" r="3.312"/>
	<circle fill="#297D63" cx="293.183" cy="353.708" r="3.312"/>
	<circle fill="#297D63" cx="285.974" cy="358.402" r="3.312"/>
	<circle fill="#297D63" cx="277.84" cy="356.044" r="3.312"/>
	<circle fill="#297D63" cx="312.116" cy="356.681" r="3.312"/>
	<circle fill="#297D63" cx="299.79" cy="357.543" r="3.312"/>
	<circle fill="#297D63" cx="305.583" cy="352.345" r="3.312"/>
	<circle fill="#297D63" cx="311.401" cy="346.549" r="3.312"/>
	<circle fill="#DDB660" cx="378.856" cy="218.084" r="3.312"/>
	<circle fill="#DDB660" cx="354.742" cy="110.632" r="3.312"/>
	<circle fill="#DDB660" cx="377.905" cy="227.654" r="3.312"/>
	<circle fill="#DDB660" cx="378.856" cy="261.962" r="3.312"/>
	<circle fill="#DDB660" cx="166.61" cy="261.225" r="3.312"/>
	<circle fill="#DDB660" cx="162.911" cy="254.809" r="3.312"/>
	<circle fill="#DDB660" cx="378.111" cy="243.535" r="3.312"/>
	<circle fill="#DDB660" cx="378.856" cy="236.125" r="3.312"/>
	<circle fill="#DDB660" cx="372.806" cy="222.731" r="3.312"/>
	<circle fill="#DDB660" cx="163.141" cy="242.709" r="3.312"/>
	
		<ellipse transform="matrix(0.9982 -0.0593 0.0593 0.9982 -15.6718 10.0829)" fill="#A0C0AE" cx="162.181" cy="269.298" rx="3.312" ry="3.318"/>
	
		<ellipse transform="matrix(0.9982 -0.0593 0.0593 0.9982 -16.3084 11.5787)" fill="#81C6AB" cx="187.085" cy="280.781" rx="3.312" ry="3.318"/>
	<circle fill="#DDB660" cx="165.595" cy="206.854" r="3.312"/>
	<circle fill="#DDB660" cx="172.693" cy="214.647" r="3.312"/>
	<circle fill="#A0C0AE" cx="372.682" cy="170.461" r="3.312"/>
	<circle fill="#A0C0AE" cx="378.472" cy="174.454" r="3.312"/>
	<circle fill="#A0C0AE" cx="371.281" cy="179.88" r="3.312"/>
	
		<ellipse transform="matrix(0.9982 -0.0593 0.0593 0.9982 -17.4637 11.1046)" fill="#81C6AB" cx="178.514" cy="300.024" rx="3.312" ry="3.318"/>
	<circle fill="#A0C0AE" cx="378.367" cy="199.837" r="3.312"/>
	<circle fill="#DDB660" cx="163.553" cy="217.72" r="3.312"/>
	<circle fill="#DDB660" cx="371.281" cy="194.927" r="3.312"/>
	<circle fill="#A0C0AE" cx="373.444" cy="187.149" r="3.312"/>
	<circle fill="#A0C0AE" cx="378.367" cy="192.366" r="3.312"/>
	<circle fill="#A0C0AE" cx="378.367" cy="182.246" r="3.312"/>
	<circle fill="#A0C0AE" cx="378.856" cy="208.03" r="3.312"/>
	<circle fill="#A0C0AE" cx="163.484" cy="231.394" r="3.312"/>
	<circle fill="#81C6AB" cx="253.035" cy="153.562" r="3.312"/>
	<circle fill="#81C6AB" cx="260.04" cy="159.781" r="3.312"/>
	<circle fill="#81C6AB" cx="260.221" cy="152.187" r="3.312"/>
	<circle fill="#81C6AB" cx="255.893" cy="145.809" r="3.312"/>
	<circle fill="#81C6AB" cx="263.134" cy="145.379" r="3.312"/>
	<circle fill="#B8E0CE" cx="259.436" cy="138.963" r="3.312"/>
	<circle fill="#81C6AB" cx="255.867" cy="166.664" r="3.312"/>
	<circle fill="#81C6AB" cx="267.029" cy="155.101" r="3.312"/>
	<circle fill="#B8E0CE" cx="266.992" cy="138.515" r="3.312"/>
	<circle fill="#B8E0CE" cx="253.848" cy="132.66" r="3.312"/>
	<circle fill="#B8E0CE" cx="259.665" cy="126.863" r="3.312"/>
	<circle fill="#C7E7DD" cx="266.474" cy="129.777" r="3.312"/>
	<circle fill="#B8E0CE" cx="266.03" cy="122.299" r="3.312"/>
	<circle fill="#B8E0CE" cx="273.408" cy="134.816" r="3.312"/>
	<circle fill="#81C6AB" cx="274.586" cy="154.652" r="3.312"/>
	<circle fill="#81C6AB" cx="270.728" cy="161.517" r="3.312"/>
	<circle fill="#81C6AB" cx="263.822" cy="167.611" r="3.312"/>
	<circle fill="#D3D24E" cx="292.217" cy="169.561" r="3.312"/>
	<circle fill="#81C6AB" cx="295.047" cy="161.339" r="3.312"/>
	<circle fill="#81C6AB" cx="302.051" cy="167.558" r="3.312"/>
	<circle fill="#81C6AB" cx="302.232" cy="159.964" r="3.312"/>
	<circle fill="#81C6AB" cx="297.904" cy="153.586" r="3.312"/>
	<circle fill="#81C6AB" cx="305.146" cy="153.156" r="3.312"/>
	<circle fill="#81C6AB" cx="301.447" cy="146.74" r="3.312"/>
	<circle fill="#81C6AB" cx="278.933" cy="161.347" r="3.312"/>
	<circle fill="#81C6AB" cx="284.016" cy="155.358" r="3.312"/>
	<circle fill="#81C6AB" cx="291.573" cy="154.91" r="3.312"/>
	<circle fill="#81C6AB" cx="292.946" cy="147.245" r="3.312"/>
	<circle fill="#81C6AB" cx="297.878" cy="174.441" r="3.312"/>
	<circle fill="#81C6AB" cx="309.041" cy="162.878" r="3.312"/>
	<circle fill="#81C6AB" cx="311.534" cy="148.989" r="3.312"/>
	<circle fill="#81C6AB" cx="295.86" cy="140.437" r="3.312"/>
	<circle fill="#C7E7DD" cx="301.677" cy="134.64" r="3.312"/>
	<circle fill="#81C6AB" cx="308.621" cy="139.836" r="3.312"/>
	<circle fill="#B8E0CE" cx="308.041" cy="130.076" r="3.312"/>
	<circle fill="#81C6AB" cx="315.42" cy="142.593" r="3.312"/>
	<circle fill="#81C6AB" cx="316.597" cy="162.429" r="3.312"/>
	<circle fill="#81C6AB" cx="312.739" cy="169.294" r="3.312"/>
	<circle fill="#81C6AB" cx="305.833" cy="175.388" r="3.312"/>
	<circle fill="#81C6AB" cx="267.287" cy="204.691" r="3.312"/>
	<circle fill="#81C6AB" cx="270.116" cy="196.469" r="3.312"/>
	<circle fill="#D3D24E" cx="277.121" cy="202.689" r="3.312"/>
	<circle fill="#D3D24E" cx="277.302" cy="195.095" r="3.312"/>
	<circle fill="#D3D24E" cx="272.974" cy="188.716" r="3.312"/>
	<circle fill="#D3D24E" cx="280.216" cy="188.287" r="3.312"/>
	<circle fill="#D3D24E" cx="276.517" cy="181.871" r="3.312"/>
	<circle fill="#81C6AB" cx="259.086" cy="190.489" r="3.312"/>
	<circle fill="#81C6AB" cx="266.642" cy="190.04" r="3.312"/>
	<circle fill="#81C6AB" cx="268.016" cy="182.375" r="3.312"/>
	<circle fill="#D3D24E" cx="272.948" cy="209.572" r="3.312"/>
	<circle fill="#D3D24E" cx="284.11" cy="198.008" r="3.312"/>
	<circle fill="#D3D24E" cx="284.074" cy="181.422" r="3.312"/>
	<circle fill="#D3D24E" cx="270.93" cy="175.567" r="3.312"/>
	<circle fill="#D3D24E" cx="276.747" cy="169.771" r="3.312"/>
	<circle fill="#D3D24E" cx="283.555" cy="172.684" r="3.312"/>
	<circle fill="#81C6AB" cx="286.867" cy="164.651" r="3.312"/>
	<circle fill="#D3D24E" cx="290.49" cy="177.724" r="3.312"/>
	<circle fill="#D3D24E" cx="291.667" cy="197.56" r="3.312"/>
	<circle fill="#D3D24E" cx="287.809" cy="204.424" r="3.312"/>
	<circle fill="#D3D24E" cx="280.903" cy="210.518" r="3.312"/>
	<circle fill="#81C6AB" cx="314.591" cy="203.149" r="3.312"/>
	<circle fill="#81C6AB" cx="317.42" cy="194.927" r="3.312"/>
	<circle fill="#81C6AB" cx="324.425" cy="201.147" r="3.312"/>
	<circle fill="#81C6AB" cx="324.606" cy="193.553" r="3.312"/>
	<circle fill="#81C6AB" cx="320.278" cy="187.174" r="3.312"/>
	<circle fill="#81C6AB" cx="327.52" cy="186.744" r="3.312"/>
	<circle fill="#C7E7DD" cx="323.821" cy="180.328" r="3.312"/>
	<circle fill="#81C6AB" cx="301.306" cy="194.936" r="3.312"/>
	<circle fill="#81C6AB" cx="306.446" cy="189.891" r="3.312"/>
	<circle fill="#81C6AB" cx="313.946" cy="188.498" r="3.312"/>
	<circle fill="#81C6AB" cx="315.32" cy="180.833" r="3.312"/>
	<circle fill="#81C6AB" cx="320.252" cy="208.03" r="3.312"/>
	<circle fill="#81C6AB" cx="331.414" cy="196.466" r="3.312"/>
	<circle fill="#C7E7DD" cx="331.378" cy="179.88" r="3.312"/>
	<circle fill="#C7E7DD" cx="318.233" cy="174.025" r="3.312"/>
	<circle fill="#C7E7DD" cx="324.051" cy="168.228" r="3.312"/>
	<circle fill="#C7E7DD" cx="330.859" cy="171.142" r="3.312"/>
	<circle fill="#81C6AB" cx="330.415" cy="163.665" r="3.312"/>
	<circle fill="#C7E7DD" cx="337.793" cy="176.181" r="3.312"/>
	<circle fill="#81C6AB" cx="338.971" cy="196.018" r="3.312"/>
	<circle fill="#81C6AB" cx="335.113" cy="202.882" r="3.312"/>
	<circle fill="#81C6AB" cx="328.207" cy="208.976" r="3.312"/>
	<circle fill="#81C6AB" cx="256.941" cy="215.579" r="3.312"/>
	<circle fill="#81C6AB" cx="263.946" cy="221.799" r="3.312"/>
	<circle fill="#81C6AB" cx="264.127" cy="214.205" r="3.312"/>
	<circle fill="#D3D24E" cx="296.812" cy="222.453" r="3.312"/>
	<circle fill="#81C6AB" cx="304.054" cy="222.023" r="3.312"/>
	<circle fill="#81C6AB" cx="300.355" cy="215.607" r="3.312"/>
	<circle fill="#D3D24E" cx="284.331" cy="216.558" r="3.312"/>
	<circle fill="#D3D24E" cx="282.924" cy="224.225" r="3.312"/>
	<circle fill="#D3D24E" cx="290.48" cy="223.777" r="3.312"/>
	<circle fill="#D3D24E" cx="291.854" cy="216.112" r="3.312"/>
	<circle fill="#DDB660" cx="259.773" cy="228.682" r="3.312"/>
	<circle fill="#81C6AB" cx="270.935" cy="217.118" r="3.312"/>
	<circle fill="#81C6AB" cx="307.912" cy="215.159" r="3.312"/>
	<circle fill="#D3D24E" cx="294.768" cy="209.304" r="3.312"/>
	<circle fill="#81C6AB" cx="300.585" cy="203.507" r="3.312"/>
	<circle fill="#81C6AB" cx="307.393" cy="206.421" r="3.312"/>
	<circle fill="#81C6AB" cx="306.949" cy="198.943" r="3.312"/>
	<circle fill="#81C6AB" cx="314.328" cy="211.46" r="3.312"/>
	<circle fill="#81C6AB" cx="335.374" cy="188.645" r="3.312"/>
	<circle fill="#D3D24E" cx="274.634" cy="223.534" r="3.312"/>
	<circle fill="#DDB660" cx="267.728" cy="229.628" r="3.312"/>
	<circle fill="#A0C0AE" cx="361.159" cy="203.859" r="3.312"/>
	<circle fill="#DDB660" cx="363.989" cy="195.638" r="3.312"/>
	<circle fill="#B47F5B" cx="370.132" cy="202.255" r="3.312"/>
	<circle fill="#DDB660" cx="342.896" cy="258.262" r="3.312"/>
	<circle fill="#A0C0AE" cx="357.321" cy="195.086" r="3.312"/>
	<circle fill="#A0C0AE" cx="365.934" cy="187.149" r="3.312"/>
	<circle fill="#DDB660" cx="315.246" cy="232.813" r="3.312"/>
	<circle fill="#81C6AB" cx="347.875" cy="195.646" r="3.312"/>
	<circle fill="#81C6AB" cx="344.804" cy="189.351" r="3.312"/>
	<circle fill="#81C6AB" cx="352.361" cy="188.903" r="3.312"/>
	<circle fill="#DDB660" cx="306.744" cy="233.317" r="3.312"/>
	<circle fill="#DDB660" cx="366.82" cy="212.409" r="3.312"/>
	<circle fill="#DDB660" cx="349.705" cy="261.176" r="3.312"/>
	<circle fill="#DDB660" cx="322.802" cy="232.364" r="3.312"/>
	<circle fill="#DDB660" cx="309.658" cy="226.509" r="3.312"/>
	<circle fill="#81C6AB" cx="315.475" cy="220.713" r="3.312"/>
	<circle fill="#81C6AB" cx="322.283" cy="223.626" r="3.312"/>
	<circle fill="#81C6AB" cx="321.84" cy="216.149" r="3.312"/>
	<circle fill="#DDB660" cx="329.218" cy="228.666" r="3.312"/>
	<circle fill="#DDB660" cx="357.261" cy="260.727" r="3.312"/>
	<circle fill="#DDB660" cx="353.403" cy="267.591" r="3.312"/>
	<circle fill="#DDB660" cx="346.497" cy="273.685" r="3.312"/>
	<circle fill="#DDB660" cx="336.229" cy="238.99" r="3.312"/>
	<circle fill="#DDB660" cx="339.059" cy="230.768" r="3.312"/>
	<circle fill="#DDB660" cx="346.063" cy="236.988" r="3.312"/>
	<circle fill="#DDB660" cx="346.245" cy="229.394" r="3.312"/>
	<circle fill="#81C6AB" cx="341.916" cy="223.015" r="3.312"/>
	<circle fill="#81C6AB" cx="349.158" cy="222.585" r="3.312"/>
	<circle fill="#81C6AB" cx="345.46" cy="216.17" r="3.312"/>
	<circle fill="#DDB660" cx="365.327" cy="222.731" r="3.312"/>
	<circle fill="#B47F5B" cx="373.722" cy="212.772" r="3.312"/>
	<circle fill="#DDB660" cx="335.585" cy="224.339" r="3.312"/>
	<circle fill="#C7E7DD" cx="336.958" cy="216.674" r="3.312"/>
	<circle fill="#DDB660" cx="341.89" cy="243.871" r="3.312"/>
	<circle fill="#DDB660" cx="353.053" cy="232.307" r="3.312"/>
	<circle fill="#81C6AB" cx="353.016" cy="215.721" r="3.312"/>
	<circle fill="#81C6AB" cx="339.872" cy="209.866" r="3.312"/>
	<circle fill="#81C6AB" cx="345.689" cy="204.07" r="3.312"/>
	<circle fill="#81C6AB" cx="352.498" cy="206.983" r="3.312"/>
	<circle fill="#81C6AB" cx="352.054" cy="199.506" r="3.312"/>
	<circle fill="#A0C0AE" cx="359.432" cy="212.023" r="3.312"/>
	<circle fill="#DDB660" cx="360.609" cy="231.859" r="3.312"/>
	<circle fill="#DDB660" cx="356.751" cy="238.723" r="3.312"/>
	<circle fill="#DDB660" cx="349.846" cy="244.817" r="3.312"/>
	<circle fill="#297D63" cx="355.255" cy="301.446" r="3.312"/>
	<circle fill="#297D63" cx="358.084" cy="293.225" r="3.312"/>
	<circle fill="#297D63" cx="365.089" cy="299.444" r="3.312"/>
	<circle fill="#297D63" cx="364.64" cy="291.888" r="3.312"/>
	<circle fill="#297D63" cx="360.942" cy="285.472" r="3.312"/>
	<circle fill="#DDB660" cx="368.184" cy="285.042" r="3.312"/>
	<circle fill="#DDB660" cx="366.3" cy="277.652" r="3.312"/>
	<circle fill="#B47F5B" cx="368.541" cy="231.859" r="3.312"/>
	<circle fill="#297D63" cx="347.054" cy="287.244" r="3.312"/>
	<circle fill="#297D63" cx="354.61" cy="286.795" r="3.312"/>
	<circle fill="#DDB660" cx="355.984" cy="279.131" r="3.312"/>
	<circle fill="#297D63" cx="360.916" cy="306.327" r="3.312"/>
	<circle fill="#DDB660" cx="371.001" cy="295.776" r="3.312"/>
	<circle fill="#DDB660" cx="375.636" cy="277.964" r="3.312"/>
	<circle fill="#DDB660" cx="358.897" cy="272.322" r="3.312"/>
	<circle fill="#DDB660" cx="364.715" cy="266.526" r="3.312"/>
	<circle fill="#DDB660" cx="375.165" cy="270.026" r="3.312"/>
	<circle fill="#DDB660" cx="371.079" cy="261.962" r="3.312"/>
	<circle fill="#B47F5B" cx="374.64" cy="255.116" r="3.312"/>
	<circle fill="#B47F5B" cx="377.952" cy="293.868" r="3.312"/>
	<circle fill="#B47F5B" cx="375.777" cy="301.18" r="3.312"/>
	<circle fill="#DDB660" cx="368.871" cy="307.273" r="3.312"/>
	<circle fill="#DDB660" cx="356.846" cy="224.343" r="3.312"/>
	<circle fill="#D3D24E" cx="294.379" cy="183.739" r="3.312"/>
	<circle fill="#81C6AB" cx="302.97" cy="183.043" r="3.312"/>
	<circle fill="#D3D24E" cx="295.097" cy="191.11" r="3.312"/>
	<circle fill="#B8E0CE" cx="227.889" cy="132.47" r="3.312"/>
	<circle fill="#B8E0CE" cx="235.445" cy="132.021" r="3.312"/>
	<circle fill="#B8E0CE" cx="231.587" cy="138.886" r="3.312"/>
	<circle fill="#B8E0CE" cx="333.89" cy="131.701" r="3.312"/>
	<circle fill="#B8E0CE" cx="334.721" cy="124.424" r="3.312"/>
	<circle fill="#B8E0CE" cx="343.724" cy="129.699" r="3.312"/>
	<circle fill="#B8E0CE" cx="343.906" cy="122.105" r="3.312"/>
	<circle fill="#B8E0CE" cx="337.65" cy="117.865" r="3.312"/>
	<circle fill="#A0C0AE" cx="356.759" cy="136.671" r="3.312"/>
	<circle fill="#B8E0CE" cx="320.606" cy="123.488" r="3.312"/>
	<circle fill="#B8E0CE" cx="325.1" cy="130.017" r="3.312"/>
	<circle fill="#B8E0CE" cx="328.785" cy="119.089" r="3.312"/>
	<circle fill="#B8E0CE" cx="312.342" cy="121.526" r="3.312"/>
	<circle fill="#81C6AB" cx="339.654" cy="138.315" r="3.312"/>
	<circle fill="#81C6AB" cx="347.507" cy="137.528" r="3.312"/>
	<circle fill="#A0C0AE" cx="378.058" cy="132.604" r="3.312"/>
	<circle fill="#A0C0AE" cx="376.4" cy="125.87" r="3.312"/>
	<circle fill="#81C6AB" cx="162.512" cy="150.254" r="3.312"/>
	<circle fill="#B8E0CE" cx="164.054" cy="141.629" r="3.312"/>
	<circle fill="#B8E0CE" cx="370.876" cy="107.32" r="3.312"/>
	<circle fill="#B8E0CE" cx="168.931" cy="135.969" r="3.312"/>
	<circle fill="#B8E0CE" cx="161.908" cy="129.436" r="3.312"/>
	
		<ellipse transform="matrix(0.9982 -0.0593 0.0593 0.9982 -13.7684 10.8479)" fill="#C7E7DD" cx="176.033" cy="237.587" rx="3.312" ry="3.318"/>
	<circle fill="#C7E7DD" cx="372.329" cy="115.243" r="3.312"/>
	<circle fill="#C7E7DD" cx="379.047" cy="118.162" r="3.312"/>
	<circle fill="#B8E0CE" cx="378.568" cy="109.92" r="3.312"/>
	<circle fill="#A0C0AE" cx="343.724" cy="112.857" r="3.312"/>
	<circle fill="#81C6AB" cx="170.587" cy="146.525" r="3.312"/>
	<circle fill="#B8E0CE" cx="169.465" cy="128.987" r="3.312"/>
	<circle fill="#297D63" cx="178.107" cy="129.527" r="3.312"/>
	<circle fill="#81C6AB" cx="179.167" cy="147.381" r="3.312"/>
	<circle fill="#81C6AB" cx="172.522" cy="154.075" r="3.312"/>
	<circle fill="#81C6AB" cx="166.294" cy="158.083" r="3.312"/>
	<circle fill="#81C6AB" cx="320.715" cy="150.811" r="3.312"/>
	<circle fill="#81C6AB" cx="323.545" cy="142.589" r="3.312"/>
	<circle fill="#81C6AB" cx="330.549" cy="148.809" r="3.312"/>
	<circle fill="#81C6AB" cx="330.731" cy="141.215" r="3.312"/>
	
		<ellipse transform="matrix(0.9982 -0.0593 0.0593 0.9982 -15.3716 11.0586)" fill="#81C6AB" cx="178.783" cy="264.725" rx="3.312" ry="3.318"/>
	
		<ellipse transform="matrix(0.9982 -0.0593 0.0593 0.9982 -14.9973 10.8281)" fill="#81C6AB" cx="175.084" cy="258.297" rx="3.312" ry="3.318"/>
	<circle fill="#81C6AB" cx="326.376" cy="155.692" r="3.312"/>
	<circle fill="#81C6AB" cx="338.714" cy="146.425" r="3.312"/>
	<circle fill="#A0C0AE" cx="371.576" cy="144.932" r="3.312"/>
	
		<ellipse transform="matrix(0.9982 -0.0593 0.0593 0.9982 -14.2786 10.8203)" fill="#81C6AB" cx="175.312" cy="246.174" rx="3.312" ry="3.318"/>
	<circle fill="#A0C0AE" cx="373.37" cy="137.528" r="3.312"/>
	<circle fill="#C7E7DD" cx="370.058" cy="127.495" r="3.312"/>
	<circle fill="#A0C0AE" cx="378.568" cy="142.501" r="3.312"/>
	<circle fill="#B8E0CE" cx="174.754" cy="140.383" r="3.312"/>
	<circle fill="#81C6AB" cx="341.434" cy="153.85" r="3.312"/>
	<circle fill="#81C6AB" cx="334.332" cy="156.638" r="3.312"/>
	<circle fill="#81C6AB" cx="199.246" cy="152.967" r="3.312"/>
	<circle fill="#81C6AB" cx="200.891" cy="146.077" r="3.312"/>
	<circle fill="#81C6AB" cx="209.144" cy="152.379" r="3.312"/>
	<circle fill="#81C6AB" cx="208.515" cy="145.624" r="3.312"/>
	<circle fill="#81C6AB" cx="193.334" cy="146.525" r="3.312"/>
	<circle fill="#B8E0CE" cx="205.024" cy="137.853" r="3.312"/>
	<circle fill="#DDB660" cx="166.865" cy="190.489" r="3.312"/>
	<circle fill="#81C6AB" cx="186.141" cy="147.77" r="3.312"/>
	<circle fill="#B8E0CE" cx="182.891" cy="138.458" r="3.312"/>
	<circle fill="#B8E0CE" cx="190.447" cy="138.01" r="3.312"/>
	<circle fill="#DDB660" cx="378.568" cy="165.331" r="3.312"/>
	<circle fill="#81C6AB" cx="204.963" cy="158.785" r="3.312"/>
	<circle fill="#81C6AB" cx="216.07" cy="146.284" r="3.312"/>
	<circle fill="#DDB660" cx="362.954" cy="111.932" r="3.312"/>
	<circle fill="#A0C0AE" cx="378.07" cy="157.836" r="3.312"/>
	<circle fill="#A0C0AE" cx="378.07" cy="149.737" r="3.312"/>
	<circle fill="#A0C0AE" cx="370.876" cy="160.537" r="3.312"/>
	<circle fill="#A0C0AE" cx="334.721" cy="110.632" r="3.312"/>
	<circle fill="#DDB660" cx="167.305" cy="177.773" r="3.312"/>
	<circle fill="#81C6AB" cx="223.627" cy="145.836" r="3.312"/>
	<circle fill="#81C6AB" cx="219.768" cy="152.7" r="3.312"/>
	<circle fill="#297D63" cx="212.863" cy="158.794" r="3.312"/>
	<circle fill="#DDB660" cx="174.316" cy="188.097" r="3.312"/>
	<circle fill="#DDB660" cx="177.146" cy="179.875" r="3.312"/>
	<circle fill="#DDB660" cx="184.15" cy="186.095" r="3.312"/>
	<circle fill="#DDB660" cx="184.332" cy="178.501" r="3.312"/>
	<circle fill="#81C6AB" cx="180.003" cy="172.123" r="3.312"/>
	<circle fill="#81C6AB" cx="187.245" cy="171.693" r="3.312"/>
	<circle fill="#81C6AB" cx="183.547" cy="165.277" r="3.312"/>
	<circle fill="#297D63" cx="203.413" cy="171.838" r="3.312"/>
	<circle fill="#297D63" cx="208.497" cy="165.849" r="3.312"/>
	<circle fill="#81C6AB" cx="173.672" cy="173.446" r="3.312"/>
	<circle fill="#81C6AB" cx="175.045" cy="165.781" r="3.312"/>
	<circle fill="#DDB660" cx="179.977" cy="192.978" r="3.312"/>
	<circle fill="#81C6AB" cx="191.14" cy="181.415" r="3.312"/>
	<circle fill="#81C6AB" cx="191.103" cy="164.828" r="3.312"/>
	<circle fill="#81C6AB" cx="177.959" cy="158.973" r="3.312"/>
	<circle fill="#81C6AB" cx="183.846" cy="154.351" r="3.312"/>
	<circle fill="#81C6AB" cx="190.585" cy="156.09" r="3.312"/>
	<circle fill="#81C6AB" cx="167.377" cy="165.682" r="3.312"/>
	<circle fill="#297D63" cx="197.519" cy="161.13" r="3.312"/>
	<circle fill="#297D63" cx="198.696" cy="180.966" r="3.312"/>
	<circle fill="#81C6AB" cx="194.838" cy="187.83" r="3.312"/>
	<circle fill="#81C6AB" cx="187.933" cy="193.924" r="3.312"/>
	<circle fill="#297D63" cx="221.62" cy="186.555" r="3.312"/>
	<circle fill="#297D63" cx="224.45" cy="178.333" r="3.312"/>
	<circle fill="#81C6AB" cx="231.454" cy="184.553" r="3.312"/>
	<circle fill="#81C6AB" cx="231.635" cy="176.959" r="3.312"/>
	<circle fill="#81C6AB" cx="227.307" cy="170.58" r="3.312"/>
	<circle fill="#81C6AB" cx="234.549" cy="170.15" r="3.312"/>
	<circle fill="#81C6AB" cx="230.85" cy="163.735" r="3.312"/>
	<circle fill="#297D63" cx="208.336" cy="178.342" r="3.312"/>
	<circle fill="#297D63" cx="213.419" cy="172.353" r="3.312"/>
	<circle fill="#297D63" cx="220.976" cy="171.904" r="3.312"/>
	<circle fill="#297D63" cx="222.349" cy="164.239" r="3.312"/>
	<circle fill="#81C6AB" cx="227.281" cy="191.436" r="3.312"/>
	<circle fill="#81C6AB" cx="238.444" cy="179.872" r="3.312"/>
	<circle fill="#81C6AB" cx="238.407" cy="163.286" r="3.312"/>
	<circle fill="#81C6AB" cx="225.263" cy="157.431" r="3.312"/>
	<circle fill="#81C6AB" cx="231.08" cy="151.635" r="3.312"/>
	<circle fill="#81C6AB" cx="237.888" cy="154.548" r="3.312"/>
	<circle fill="#81C6AB" cx="237.445" cy="147.071" r="3.312"/>
	<circle fill="#81C6AB" cx="244.823" cy="159.588" r="3.312"/>
	<circle fill="#81C6AB" cx="246" cy="179.424" r="3.312"/>
	<circle fill="#81C6AB" cx="242.142" cy="186.288" r="3.312"/>
	<circle fill="#81C6AB" cx="235.237" cy="192.382" r="3.312"/>
	<circle fill="#81C6AB" cx="194.933" cy="173.45" r="3.312"/>
	<circle fill="#B47F5B" cx="376.131" cy="286.309" r="3.312"/>
	<circle fill="#B8E0CE" cx="246.904" cy="138.763" r="3.312"/>
	<circle fill="#B8E0CE" cx="274.02" cy="123.834" r="3.312"/>
	<circle fill="#B8E0CE" cx="318.212" cy="133.744" r="3.312"/>
	<circle fill="#81C6AB" cx="273.099" cy="145.583" r="3.312"/>
	<circle fill="#297D63" cx="295.776" cy="130.053" r="3.312"/>
	<circle fill="#81C6AB" cx="281.052" cy="141.165" r="3.312"/>
	<circle fill="#A0C0AE" cx="361.1" cy="157.225" r="3.312"/>
	<circle fill="#A0C0AE" cx="368.264" cy="152.614" r="3.312"/>
	<circle fill="#297D63" cx="365.731" cy="166.148" r="3.312"/>
	<circle fill="#297D63" cx="342.987" cy="162.521" r="3.312"/>
	<circle fill="#B8E0CE" cx="350.227" cy="117.118" r="3.312"/>
	<circle fill="#DDB660" cx="358.054" cy="119.76" r="3.312"/>
	<circle fill="#A0C0AE" cx="364.404" cy="250.35" r="3.312"/>
	<circle fill="#B8E0CE" cx="355.481" cy="126.548" r="3.312"/>
	<circle fill="#A0C0AE" cx="366.266" cy="119.273" r="3.312"/>
	<circle fill="#A0C0AE" cx="363.437" cy="127.495" r="3.312"/>
	<circle fill="#B47F5B" cx="377.72" cy="333.923" r="3.312"/>
	<circle fill="#B47F5B" cx="371.044" cy="327.684" r="3.312"/>
	<circle fill="#B47F5B" cx="372.89" cy="318.963" r="3.312"/>
	<circle fill="#81C6AB" cx="357.924" cy="325.567" r="3.312"/>
	<circle fill="#A0C0AE" cx="377.739" cy="325.31" r="3.312"/>
	<circle fill="#297D63" cx="363.571" cy="319.122" r="3.312"/>
	<circle fill="#B47F5B" cx="377.254" cy="310.094" r="3.312"/>
	<circle fill="#DDB660" cx="379.089" cy="341.132" r="3.312"/>
	<circle fill="#B8E0CE" cx="234.05" cy="124.483" r="3.312"/>
	<circle fill="#B8E0CE" cx="242.99" cy="123.707" r="3.312"/>
	<circle fill="#B8E0CE" cx="280.405" cy="130.255" r="3.312"/>
	<circle fill="#B8E0CE" cx="295.972" cy="121.037" r="3.312"/>
	<circle fill="#B8E0CE" cx="302.612" cy="123.012" r="3.312"/>
	<circle fill="#B8E0CE" cx="282.028" cy="121.864" r="3.312"/>
	<circle fill="#81C6AB" cx="289.039" cy="124.766" r="3.312"/>
	<circle fill="#B8E0CE" cx="243.431" cy="131.144" r="3.312"/>
	<circle fill="#81C6AB" cx="351.613" cy="177.734" r="3.312"/>
	<circle fill="#81C6AB" cx="351.576" cy="161.148" r="3.312"/>
	<circle fill="#81C6AB" cx="351.058" cy="152.41" r="3.312"/>
	<circle fill="#81C6AB" cx="350.614" cy="144.932" r="3.312"/>
	<circle fill="#A0C0AE" cx="356.637" cy="169.222" r="3.312"/>
	<circle fill="#A0C0AE" cx="359.17" cy="177.285" r="3.312"/>
	<circle fill="#B8E0CE" cx="250.978" cy="125.202" r="3.312"/>
	<circle fill="#DDB660" cx="324.382" cy="331.795" r="3.312"/>
	<circle fill="#C7E7DD" cx="331.386" cy="338.015" r="3.312"/>
	<circle fill="#DDB660" cx="331.568" cy="330.421" r="3.312"/>
	<circle fill="#A0C0AE" cx="365.934" cy="173.772" r="3.312"/>
	<circle fill="#297D63" cx="327.213" cy="344.898" r="3.312"/>
	<circle fill="#297D63" cx="338.376" cy="333.334" r="3.312"/>
	<circle fill="#297D63" cx="345.932" cy="332.886" r="3.312"/>
	<circle fill="#297D63" cx="342.074" cy="339.75" r="3.312"/>
	<circle fill="#DDB660" cx="335.169" cy="345.844" r="3.312"/>
	<circle fill="#B47F5B" cx="371.853" cy="248.129" r="3.312"/>
	<circle fill="#A0C0AE" cx="371.853" cy="238.723" r="3.312"/>
	<circle fill="#A0C0AE" cx="365.327" cy="241.505" r="3.312"/>
	<circle fill="#297D63" cx="312.763" cy="332.801" r="3.312"/>
	<circle fill="#297D63" cx="305.469" cy="321.706" r="3.312"/>
	<circle fill="#297D63" cx="350.991" cy="354.231" r="3.312"/>
	<circle fill="#297D63" cx="368.595" cy="353.813" r="3.312"/>
	<circle fill="#297D63" cx="353.942" cy="348.047" r="3.312"/>
	<circle fill="#297D63" cx="339.068" cy="355.643" r="3.312"/>
	<circle fill="#297D63" cx="344.655" cy="351.289" r="3.312"/>
	<circle fill="#297D63" cx="360.713" cy="350.336" r="3.312"/>
	<circle fill="#297D63" cx="347.569" cy="344.481" r="3.312"/>
	<circle fill="#297D63" cx="353.386" cy="338.685" r="3.312"/>
	<circle fill="#297D63" cx="360.194" cy="341.598" r="3.312"/>
	<circle fill="#297D63" cx="359.75" cy="334.121" r="3.312"/>
	<circle fill="#297D63" cx="367.129" cy="346.638" r="3.312"/>
	<circle fill="#297D63" cx="298.552" cy="329.499" r="3.312"/>
	<circle fill="#81C6AB" cx="356.023" cy="316.253" r="3.312"/>
	<circle fill="#DDB660" cx="288.455" cy="247.907" r="3.312"/>
	<circle fill="#DDB660" cx="375.217" cy="347.634" r="3.312"/>
	<circle fill="#DDB660" cx="369.799" cy="335.735" r="3.312"/>
	<circle fill="#DDB660" cx="279.953" cy="248.411" r="3.312"/>
	<circle fill="#DDB660" cx="296.011" cy="247.458" r="3.312"/>
	<circle fill="#5C3A47" cx="309.438" cy="254.084" r="3.312"/>
	<circle fill="#5C3A47" cx="319.272" cy="252.082" r="3.312"/>
	<circle fill="#5C3A47" cx="315.1" cy="258.965" r="3.312"/>
	<circle fill="#5C3A47" cx="323.055" cy="259.911" r="3.312"/>
	<circle fill="#297D63" cx="321.175" cy="354.973" r="3.312"/>
	<circle fill="#297D63" cx="332.306" cy="353.5" r="3.312"/>
	<circle fill="#B8E0CE" cx="185.179" cy="126.581" r="3.312"/>
	<circle fill="#C7E7DD" cx="197.954" cy="135.763" r="3.312"/>
	<circle fill="#B8E0CE" cx="192.322" cy="129.475" r="3.312"/>
	<circle fill="#B8E0CE" cx="216.751" cy="125.815" r="3.312"/>
	<circle fill="#C7E7DD" cx="208.336" cy="128.19" r="3.312"/>
	<circle fill="#A0C0AE" cx="366.734" cy="134.383" r="3.312"/>
	<circle fill="#B8E0CE" cx="212.758" cy="135.574" r="3.312"/>
	<circle fill="#B8E0CE" cx="219.784" cy="136.901" r="3.312"/>
	<circle fill="#A0C0AE" cx="364.148" cy="146.703" r="3.312"/>
	<circle fill="#C7E7DD" cx="216.09" cy="202.046" r="3.312"/>
	<circle fill="#C7E7DD" cx="223.646" cy="201.597" r="3.312"/>
	<circle fill="#C7E7DD" cx="224.918" cy="125.33" r="3.312"/>
	<circle fill="#81C6AB" cx="248.403" cy="115.079" r="3.312"/>
	<circle fill="#D3D24E" cx="255.589" cy="113.704" r="3.312"/>
	<circle fill="#D3D24E" cx="262.397" cy="116.618" r="3.312"/>
	<circle fill="#D3D24E" cx="269.954" cy="116.169" r="3.312"/>
	<circle fill="#297D63" cx="319.966" cy="116.45" r="3.312"/>
	<circle fill="#81C6AB" cx="313.229" cy="111.162" r="3.312"/>
	<circle fill="#B8E0CE" cx="325.1" cy="110.632" r="3.312"/>
	<circle fill="#297D63" cx="278.254" cy="113.944" r="3.312"/>
	<circle fill="#B8E0CE" cx="288.259" cy="111.598" r="3.312"/>
	<circle fill="#B8E0CE" cx="296.249" cy="113.132" r="3.312"/>
	<circle fill="#B8E0CE" cx="304.257" cy="111.162" r="3.312"/>
	<circle fill="#B8E0CE" cx="223.238" cy="116.068" r="3.312"/>
	<circle fill="#B8E0CE" cx="231.228" cy="117.603" r="3.312"/>
	<circle fill="#B8E0CE" cx="239.236" cy="115.633" r="3.312"/>
	<circle fill="#B8E0CE" cx="190.022" cy="117.016" r="3.312"/>
	<circle fill="#B8E0CE" cx="195.634" cy="122.299" r="3.312"/>
	<circle fill="#B8E0CE" cx="200.831" cy="116.618" r="3.312"/>
	<circle fill="#81C6AB" cx="208.275" cy="120.396" r="3.312"/>
	<circle fill="#81C6AB" cx="215.065" cy="117.725" r="3.312"/>
	<circle fill="#81C6AB" cx="182.479" cy="119.481" r="3.312"/>
	<circle fill="#81C6AB" cx="161.908" cy="118.391" r="3.312"/>
	<circle fill="#81C6AB" cx="200.891" cy="127.539" r="3.312"/>
	<circle fill="#81C6AB" cx="174.647" cy="117.725" r="3.312"/>
	<circle fill="#81C6AB" cx="168.931" cy="121.864" r="3.312"/>
	<circle fill="#297D63" cx="162.512" cy="171.693" r="3.312"/>
	<circle fill="#C7E7DD" cx="162.151" cy="184.278" r="3.312"/>
	<circle fill="#DDB660" cx="162.151" cy="197.35" r="3.312"/>
	<circle fill="#DDB660" cx="169.381" cy="198.602" r="3.312"/>
	<ellipse fill="#4D5A67" cx="268.396" cy="205.567" rx="53.289" ry="54.68"/>
	<ellipse fill="#D2E0F2" cx="268.212" cy="205.524" rx="49.765" ry="51.064"/>
	<ellipse fill="#90777B" cx="267.562" cy="196.225" rx="27.41" ry="28.125"/>
	<path fill="#E3E8EF" d="M263.677,179.217c-2.089-1.523-8.377-1.01-10.524,0.73c-1.462,1.185-3.21,5.639-2.371,7.235
		c0.949,1.804,5.843,2.154,7.834,1.621c1.895-0.507,5.541-3.269,6.222-5.201C265.23,182.492,264.556,179.859,263.677,179.217z"/>
	<path fill="#796065" d="M257.471,193.451c0,0-6.261,3.216-6.678,5.307c-0.824,4.133,4.533,12.608,8.164,14.748
		c3.875,2.284,14.028,2.123,17.994,0c3.317-1.775,7.903-8.786,8.348-12.522c0.237-1.991-1.114-6.384-2.758-7.533
		C277.403,189.861,257.471,193.451,257.471,193.451z"/>
	<ellipse fill="#0B0C0B" cx="268.657" cy="197.236" rx="15.867" ry="16.281"/>
	<linearGradient id="SVGID_19_" gradientUnits="userSpaceOnUse" x1="229.6516" y1="298.0209" x2="313.3694" y2="298.0209">
		<stop  offset="0" style="stop-color:#1F0E0C"/>
		<stop  offset="0.4813" style="stop-color:#55222C"/>
		<stop  offset="1" style="stop-color:#911E42"/>
	</linearGradient>
	<path fill="url(#SVGID_19_)" d="M230.096,288.576c-3.139-14.385,10.777-3.798,28.783-1.705c35.761,4.157,52.387-9.219,54.091-0.562
		c2.474,12.576-6.843,20.601-19.623,25.73c-10.07,4.042-29.685,3.326-40.269,0.689c-1.269-0.316-2.73-0.864-4.212-1.55
		C244.421,309.116,233.868,305.866,230.096,288.576z"/>
	<path fill="#E292B3" d="M265.179,296.844c4.728-1.04,15.104,0.337,19.247,2.633c3.267,1.811,10.585,8.166,8.88,11.257
		c-4.881,8.846-42.382,8.831-43.75-3.625C249.077,302.749,260.48,297.878,265.179,296.844z"/>
	<g>
		<path fill="#FDFEFF" d="M295.83,292.739c-3.247,1.8-14.282-0.653-10.431-3.999c2.187-1.9,8.585-4.561,12.044-3.301
			C302.166,287.158,299.077,290.938,295.83,292.739z"/>
	</g>
	<g>
		<path fill="#FDFEFF" d="M251.308,292.317c-3.054-1.895-8.411-5.259-4.116-7.247c3.146-1.456,11.131-1.114,13.292,1.85
			C263.752,291.404,254.361,294.212,251.308,292.317z"/>
	</g>
	<g>
		<path fill="#FDFEFF" d="M291.375,305.661c-2.181,0.922-5.031,5.623-2.085,7.005c2.158,1.012,7.989-1.454,8.717-3.686
			C299.003,305.931,293.557,304.738,291.375,305.661z"/>
	</g>
	<g>
		<path fill="#FDFEFF" d="M255.296,305.815c-2.069-1.147-8.969-0.337-9.33,2.947c-0.264,2.405,5.266,5.472,8.268,4.584
			C258.331,312.135,257.364,306.962,255.296,305.815z"/>
	</g>
	<path fill="#C77093" d="M144.745,196.553c3.817,0.465,6.654,9.632,7.642,13.348c1.288,4.842,2.228,15.553,0,20.04
		c-1.067,2.148-2.329,3.998-4.379,5.243c-6.438,3.91-20.27,10.014-27.225,12.904c-5.507,2.288-17.233,5.177-22.449,8.068
		c-4.393,2.434-13.075,8.199-15.783,12.429c-0.704,1.1-1.828,3.928-1.216,5.082c1.471,2.772,8.776,3.408,11.745,4.425
		c6.547,2.243,20.063,5.502,26.446,8.173c4.455,1.864,12.849,6.705,17.019,9.142c2.284,1.335,6.362,6.266,8.937,5.663
		c1.711-0.4,3.016-4.367,3.652-6.005c0.57-1.467,0.938-4.689,0.372-6.158c-0.546-1.417-4.111-2.139-4.024-3.656
		c0.06-1.055,2.617-1.914,3.652-2.125c1.609-0.328,5.43-0.411,6.516,0.82c0.704,0.798,1.643,1.649,1.796,4.351
		c0.127,2.24-0.753,6.624-1.796,8.878c-0.479,1.035-0.807,3.757,0,4.564c1.044,1.044,4.438,0.158,5.905,0
		c1.462-0.157,4.372-0.73,5.746-1.252c1.777-0.675,4.765-3.36,6.631-3.722c1.315-0.255,4.228-0.1,5.312,0.685
		c0.681,0.493,1.424,2.196,1.449,3.036c0.048,1.608-1.687,3.865-2.923,4.895c-1.131,0.943-3.808,2.022-5.261,2.262
		c-1.693,0.28-5.153,0.4-6.811,0.842c-1.473,0.392-3.926,1.555-5.62,2.361c-0.396,0.188,1.04,0.9,1.476,0.945
		c1.143,0.117,3.176-1.37,4.293-1.638c2.01-0.483,6.202-0.439,8.222-0.881c1.333-0.292,3.828-1.518,5.175-1.738
		c1.197-0.196,3.813-0.626,4.852,0c1.237,0.745,2.78,3.664,2.7,5.106c-0.066,1.199-1.673,3.349-2.7,3.971
		c-2.019,1.223-7.019,1.044-9.379,1.086c-2.386,0.043-7.14,0.566-9.516,0.338c-1.359-0.131-3.022-0.491-4.586-0.031
		c-0.572,0.168-0.928,0.242-0.536,0.691c0.59,0.678,2.582,0.807,3.471,0.946c1.7,0.265,5.155,0.258,6.874,0.295
		c2.049,0.044,6.157-0.202,8.196,0c1.181,0.117,2.771-0.075,4.653,0.665c0.507,0.199,1.274,0.868,1.391,2.346
		c0.094,1.196-1.387,2.864-1.937,3.116c-2.47,1.133-4.833,1.041-6.699,1.113c-2.062,0.079-6.103-1.014-8.162-1.145
		c-1.583-0.1-4.701-0.654-6.311,0.026c-0.493,0.208,0.917,0.818,1.452,0.818c1.322,0,3.692,0.438,4.859,0.627
		c1.93,0.313,5.413,0.996,7.331,1.371c1.097,0.214,3.622,0.763,4.548,1.389c2.432,1.641,1.33,3.897-0.717,4.817
		c-1.132,0.509-4.047,0.501-5.287,0.459c-2.732-0.095-7.876-0.753-10.605-0.915c-2.063-0.123-6.242-0.244-8.227-0.823
		c-2.536-0.74-7.224-3.314-9.429-4.768c-2.152-1.419-6.451-4.493-7.901-6.624c-3.442-5.056-3.301-5.515-3.708-9.51
		c-0.331-3.245-4.739-7.948-7.541-9.618c-5.849-3.485-19.691-5.677-26.451-6.494c-4.528-0.548-13.712,0.528-18.242,0
		c-4.344-0.506-13.471-1.474-17.026-4.023c-3.146-2.255-7.368-9.348-8.209-13.126c-0.961-4.314,0.39-13.486,2.128-17.549
		c1.177-2.751,5.162-7.513,7.601-9.247c3.235-2.299,10.925-7.084,14.382-9.035c5.511-3.11,20.278-12.265,20.278-12.265
		s15.889-8.814,20.978-12.092c3.144-2.025,9.338-6.259,12.161-8.711C137.78,207.399,139.687,195.937,144.745,196.553z"/>
	<path fill="#297D63" d="M230.08,153.118c3.622-14.915-18.765-41.344-30.633-52.027c-6.402-5.763-22.826-16.092-32.995-16.509
		c-5.995-0.246-18.809,4.21-22.984,7.99c-1.574,1.425-3.673,5.653-2.476,7.076c1.449,1.722,8.123,1.315,10.865,0.786
		c4.07-0.785,10.503-6.989,14.603-7.096c7.762-0.201,20.383,7.765,25.305,12.062c11.527,10.065,29.753,49.47,29.753,49.47
		s3.023,2.058,4.305,1.856C227.308,156.492,229.797,154.283,230.08,153.118z"/>
	
		<linearGradient id="SVGID_20_" gradientUnits="userSpaceOnUse" x1="383.3332" y1="227.8605" x2="692.0479" y2="227.8605" gradientTransform="matrix(0.9906 0.1365 -0.1365 0.9906 -157.9193 -169.0827)">
		<stop  offset="0" style="stop-color:#77787C"/>
		<stop  offset="0.2126" style="stop-color:#6F7174"/>
		<stop  offset="0.5935" style="stop-color:#65686B"/>
		<stop  offset="1" style="stop-color:#626669"/>
	</linearGradient>
	<path fill="url(#SVGID_20_)" d="M492.716,179.007c-2.206,9.123-9.395,14.64-19.057,15.541c-12.524,1.167-17.711-2.446-22.719-4.721
		c-42.548-19.324-119.402-72.823-160.409-95.233c-3.824-2.09-11.338-6.675-15.493-7.99c-1.69-0.535-5.252-0.953-7.025-0.968
		c-9.831-0.083-13.661,8.289-39.343,1.939l-19.144-9.988L196.689,65.73l0.83-3.695l37.334,24.248l27.545-3.873l12.545-0.337
		l185.67,105.075l17.344,1.905L492.716,179.007z"/>
	<path fill="#C77093" d="M407.204,109.396c-0.617-1.98,2.299-6.188,4.104-7.211c0.882-0.5,3.115-0.616,4.048-0.22
		c1.48,0.627,3.648,3.352,4.213,4.857c0.752,2.003,1.841,7.417,0.031,8.558L407.204,109.396z"/>
	
		<linearGradient id="SVGID_21_" gradientUnits="userSpaceOnUse" x1="381.2276" y1="194.0056" x2="693.3287" y2="194.0056" gradientTransform="matrix(0.9906 0.1365 -0.1365 0.9906 -157.9193 -169.0827)">
		<stop  offset="0" style="stop-color:#5B5C5E"/>
		<stop  offset="0.0046" style="stop-color:#5B5D5F"/>
		<stop  offset="0.1938" style="stop-color:#797A7D"/>
		<stop  offset="0.387" style="stop-color:#94969A"/>
		<stop  offset="0.5835" style="stop-color:#A9ADB1"/>
		<stop  offset="0.7852" style="stop-color:#B7BCC1"/>
		<stop  offset="1" style="stop-color:#BDC3C7"/>
	</linearGradient>
	<path fill="url(#SVGID_21_)" d="M206.201,17.822c0.503,0.957,24.599,7.476,35.105,9.804c1.308,0.29,2.216,1.255,2.825,2.666
		c1.827,4.233,0.96,12.482,0.108,18.561c-0.683,4.87-5.893,11.586-10.589,13.049c-7.488,2.333-24.649-3.298-33.406-5.444
		c-1.195-0.293-3.899,0.911-4.503,1.983c-0.902,1.601,0.002,5.713,0.948,7.288c5.102,8.497,22.675,20.615,32.297,22.994
		c25.682,6.35,29.21-4.791,39.041-4.708c1.773,0.015,5.335,0.433,7.025,0.968c4.155,1.315,11.668,5.901,15.493,7.99
		c41.007,22.41,118.628,75.734,161.094,95.238c7.381,3.39,8.751,5.647,21.281,4.541c7.181-0.634,13.75-4.243,16.461-7.97
		c3.797-5.219,8.215-14.987,4.796-25.368c-0.93-2.822-5.538-7.072-7.885-8.895c-4.992-3.876-16.855-8.684-22.485-11.556
		c-41.605-21.232-124.965-63.401-166.664-84.45c-3.116-1.573-10.192-3.633-12.476-6.273c-4.409-5.097-7.21-20.884-10.681-26.66
		c-10.549-17.556-17.84-16.625-25.693-18.994c-11.247-3.392-27.584,0.01-37.577,6.186C208.692,10.024,205.093,15.715,206.201,17.822
		z"/>
	<path fill="#DCDBDB" d="M277.182,75.783c0,0,4.374-5.78,5.689-7.962c1.322-2.193,2.765-9.864,2.765-9.864l184.45,95.915
		c0,0-7.827,2.085-11.554,8.05c-2.919,4.672-1.846,13.405-1.846,13.405L277.182,75.783z"/>
	
		<linearGradient id="SVGID_22_" gradientUnits="userSpaceOnUse" x1="661.0132" y1="250.4564" x2="680.2045" y2="250.4564" gradientTransform="matrix(0.9906 0.1365 -0.1365 0.9906 -157.9193 -169.0827)">
		<stop  offset="0" style="stop-color:#5B5C5E"/>
		<stop  offset="0.0046" style="stop-color:#5B5D5F"/>
		<stop  offset="0.1938" style="stop-color:#797A7D"/>
		<stop  offset="0.387" style="stop-color:#94969A"/>
		<stop  offset="0.5835" style="stop-color:#A9ADB1"/>
		<stop  offset="0.7852" style="stop-color:#B7BCC1"/>
		<stop  offset="1" style="stop-color:#BDC3C7"/>
	</linearGradient>
	<circle fill="url(#SVGID_22_)" cx="472.241" cy="170.54" r="9.596"/>
	<circle fill="#E0E0DF" cx="472.241" cy="170.54" r="7.082"/>
	<path fill="#C77093" d="M420.744,115.538c-0.103-1.707,4.138-3.251,5.81-3.606c1.821-0.387,5.692,0.225,7.377,1.016
		c1.483,0.696,4.134,2.943,4.834,4.424c0.363,0.768,0.261,2.549,0.18,3.395c-0.144,1.51-1.258,4.387-1.459,5.89
		c-0.189,1.409-0.349,4.279-0.135,5.684c0.119,0.78,1.074,2.204,1.014,2.991c-0.073,0.952-1.006,2.804-1.762,3.386
		c-0.869,0.669-3.191,1.092-4.28,0.966c-2.047-0.238-5.913-2.195-7.408-3.612c-0.815-0.773-1.941-2.832-2.18-3.929
		c-0.453-2.073,0.311-6.369,0.648-8.465c0.194-1.211,1.227-3.538,1.174-4.763c-0.021-0.502-0.252-1.591-0.645-1.903
		C423.227,116.467,420.796,116.409,420.744,115.538z"/>
	<path fill="#C77093" d="M439.941,120.126c0.685-0.649,2.79-0.821,3.719-0.654c1.572,0.282,4.401,2.081,5.518,3.222
		c0.673,0.688,1.692,2.421,1.869,3.368c0.124,0.663-0.207,2.016-0.368,2.671c-0.259,1.051-1.332,3.001-1.468,4.075
		c-0.125,0.981,0.621,3.791,1.319,4.742c0.391,0.533,0.311,1.55,0.288,2.21c-0.023,0.639-0.872,1.376-1.382,1.762
		c-1.019,0.773-3.764,0.84-5.043,0.861c-0.77,0.012-2.367-0.069-3.053-0.42c-0.731-0.375-1.741-1.05-2.232-1.71
		c-0.314-0.423-0.642-1.018-0.66-1.545c-0.033-0.943,1.078-2.66,1.076-3.604c-0.002-0.687-1.038-2.485-1.212-3.149
		c-0.31-1.19-0.114-3.699,0.03-4.921C438.548,125.273,438.654,121.345,439.941,120.126z"/>
	<path fill="#C77093" d="M452.143,127.509c0.756-0.577,2.905-0.593,3.794-0.255c0.834,0.318,2.033,1.787,2.5,2.548
		c0.902,1.467,1.659,4.894,2.212,6.526c0.253,0.748,0.531,2.366,1.014,2.991c0.457,0.591,2.187,0.96,2.496,1.64
		c0.186,0.409-0.008,1.399-0.245,1.781c-0.456,0.734-2.07,1.587-2.859,1.939c-0.789,0.352-2.494,0.905-3.355,0.834
		c-1.195-0.098-3.397-1.25-4.404-1.903c-0.852-0.552-1.615-0.942-1.794-1.941c-0.12-0.669,0.057-2.545,0.043-3.225
		c-0.021-0.999-1.241-2.729-1.342-3.723c-0.104-1.019,0.305-2.537,0.652-3.501C451.187,130.296,451.362,128.105,452.143,127.509z"/>
	
		<linearGradient id="SVGID_23_" gradientUnits="userSpaceOnUse" x1="382.7056" y1="159.025" x2="471.6759" y2="159.025" gradientTransform="matrix(0.9906 0.1365 -0.1365 0.9906 -157.9193 -169.0827)">
		<stop  offset="0" style="stop-color:#77787C"/>
		<stop  offset="0.2126" style="stop-color:#6F7174"/>
		<stop  offset="0.5935" style="stop-color:#65686B"/>
		<stop  offset="1" style="stop-color:#626669"/>
	</linearGradient>
	<path fill="url(#SVGID_23_)" d="M284.668,48.241c-1.562-8.219-8.187-19.045-11.658-24.822
		c-10.549-17.556-9.907-19.41-24.033-21.413c-18.387-2.607-26.947,1.835-36.94,8.011c-2.025,1.252-5.624,6.943-4.516,9.05
		c0.503,0.957,24.599,7.476,35.105,9.804c1.308,0.29,2.216,1.255,2.825,2.666c1.827,4.233,0.96,12.482,0.108,18.561
		c-0.683,4.87-5.893,11.586-10.589,13.049c-7.488,2.333-24.649-3.298-33.406-5.444c-1.195-0.293-3.899,0.911-4.503,1.983
		c-0.902,1.601,0.002,5.713,0.948,7.288c5.102,8.497,22.675,20.615,32.297,22.994c25.682,6.35,29.21-4.791,39.041-4.708
		c0.951,0.008,11.001-8.231,15.428-17.478C288.604,59.786,284.97,49.831,284.668,48.241z"/>
	
		<linearGradient id="SVGID_24_" gradientUnits="userSpaceOnUse" x1="381.2276" y1="158.0088" x2="470.4137" y2="158.0088" gradientTransform="matrix(0.9906 0.1365 -0.1365 0.9906 -157.9193 -169.0827)">
		<stop  offset="0" style="stop-color:#5B5C5E"/>
		<stop  offset="0.1514" style="stop-color:#67686A"/>
		<stop  offset="1" style="stop-color:#BDC3C7"/>
	</linearGradient>
	<path fill="url(#SVGID_24_)" d="M284.668,48.241c-1.562-8.219-7.21-20.884-10.681-26.66c-10.549-17.556-12.205-18.817-26.33-20.82
		c-18.387-2.607-26.947,1.835-36.94,8.011c-2.025,1.252-5.624,6.943-4.516,9.05c0.503,0.957,24.599,7.476,35.105,9.804
		c1.308,0.29,2.216,1.255,2.825,2.666c1.827,4.233,0.96,12.482,0.108,18.561c-0.683,4.87-5.893,11.586-10.589,13.049
		c-7.488,2.333-24.649-3.298-33.406-5.444c-1.195-0.293-3.899,0.911-4.503,1.983c-0.902,1.601,0.002,5.713,0.948,7.288
		c5.102,8.497,22.675,20.615,32.297,22.994c25.682,6.35,29.132-2.7,39.041-4.708c0.932-0.189,11.001-8.231,15.428-17.478
		C287.283,58.541,284.97,49.831,284.668,48.241z"/>
	<path fill="#DCDBDB" d="M251.619,39.045c1.475,4.651,4.062,19.012-2.925,25.381c-2.095,1.91-9.823,2.901-13.314,3.504
		c-2.545,0.44,4.775-3.634,7.984-7.621c2.438-3.029,4.65-9.334,5.163-13.189c0.34-2.555-0.266-12.422-1.849-16.459
		C246.334,29.783,250.133,34.358,251.619,39.045z"/>
	<path fill="#297D63" d="M305.135,142.601c0.223-15.32,24.859-60.877,43.866-75.169c15.431-11.603,30.185-14.908,38.44-14.506
		c4.866,0.237,14.222,5.764,16.781,9.911c0.965,1.563,1.763,5.993,0.503,7.329c-1.525,1.617-6.8,0.667-8.891-0.087
		c-3.104-1.12-6.968-7.892-10.238-8.331c-6.192-0.831-19.864,4.586-30.466,12.269c-18.056,13.084-43.486,71.043-43.486,71.043
		s-2.86,1.829-3.847,1.521C306.653,146.225,305.118,143.798,305.135,142.601z"/>
</g>
</svg>
