<?xml version="1.0" encoding="utf-8"?>
<!-- Generator: Adobe Illustrator 17.0.0, SVG Export Plug-In . SVG Version: 6.00 Build 0)  -->
<!DOCTYPE svg PUBLIC "-//W3C//DTD SVG 1.1//EN" "http://www.w3.org/Graphics/SVG/1.1/DTD/svg11.dtd">
<svg version="1.1" id="Layer_1" xmlns="http://www.w3.org/2000/svg" xmlns:xlink="http://www.w3.org/1999/xlink" x="0px" y="0px"
	 width="50px" height="50px" viewBox="0 0 50 50" enable-background="new 0 0 50 50" xml:space="preserve">
<linearGradient id="SVGID_1_" gradientUnits="userSpaceOnUse" x1="25.0012" y1="49.7299" x2="25.0012" y2="42.7299">
	<stop  offset="0" style="stop-color:#FFFFFB"/>
	<stop  offset="0.1627" style="stop-color:#E4F5FA"/>
	<stop  offset="0.3624" style="stop-color:#C9EBF9"/>
	<stop  offset="0.5668" style="stop-color:#B6E4F8"/>
	<stop  offset="0.7765" style="stop-color:#ABE0F7"/>
	<stop  offset="1" style="stop-color:#A7DFF7"/>
</linearGradient>
<rect x="0.002" y="42.73" fill="url(#SVGID_1_)" width="49.998" height="7"/>
<g>
	
		<linearGradient id="SVGID_2_" gradientUnits="userSpaceOnUse" x1="41.4437" y1="-959.3163" x2="49.8769" y2="-959.3163" gradientTransform="matrix(1 0 0 -1 0 -924.475)">
		<stop  offset="0" style="stop-color:#FFFFFB"/>
		<stop  offset="0.7539" style="stop-color:#A7DFF7"/>
		<stop  offset="1" style="stop-color:#DAF0FC"/>
	</linearGradient>
	<path fill="url(#SVGID_2_)" d="M41.551,43.972c0.948,1.014,4.243,0.094,5.658,0.107c0.804,0.008,1.733,0.269,2.499,0.032
		c0.227-0.07,0.093-0.469,0.133-0.696c0.118-0.681-0.075-1.465-0.302-2.12c-0.335-0.965,0.03-3.06-0.111-4.069
		c-0.232-1.667-1.288-4.89-1.664-6.532c-0.311-1.359-1.109-5.461-1.109-5.461s-0.654,1.668-0.777,2.249
		c-0.634,2.993-0.779,9.2-1.775,12.1c-0.219,0.637-0.868,1.856-1.331,2.356c-0.226,0.244-0.941,0.466-1.109,0.75
		C41.496,42.967,41.328,43.733,41.551,43.972z"/>
	
		<linearGradient id="SVGID_3_" gradientUnits="userSpaceOnUse" x1="44.3216" y1="-960.1581" x2="44.3216" y2="-968.3109" gradientTransform="matrix(1 0 0 -1 0 -924.475)">
		<stop  offset="0" style="stop-color:#FFFFFB"/>
		<stop  offset="0.3041" style="stop-color:#FCFEFB"/>
		<stop  offset="0.4981" style="stop-color:#F4FBFA"/>
		<stop  offset="0.6614" style="stop-color:#E5F6FA"/>
		<stop  offset="0.8076" style="stop-color:#D0EEF9"/>
		<stop  offset="0.9412" style="stop-color:#B5E4F8"/>
		<stop  offset="1" style="stop-color:#A7DFF7"/>
	</linearGradient>
	<path fill="url(#SVGID_3_)" d="M42.963,43.129c0.171-0.259,0.638-0.684,0.847-0.914c0.277-0.304,0.95-0.847,1.097-1.227
		c0.148-0.383-0.081-1.234,0-1.636c0.048-0.236,0.271-0.671,0.374-0.89c0.138-0.294,0.422-3.074,0.45-2.753
		c0.053,0.619,0.299,2.626,0.273,2.969c-0.038,0.487-0.362,1.424-0.474,1.9c-0.106,0.45-0.15,1.41-0.399,1.804
		c-0.138,0.219-0.606,0.5-0.822,0.65c-0.269,0.186-0.814,0.558-1.122,0.674c-0.124,0.047-0.44,0.196-0.523,0.096
		C42.545,43.659,42.861,43.283,42.963,43.129z"/>
	
		<linearGradient id="SVGID_4_" gradientUnits="userSpaceOnUse" x1="48.9262" y1="-962.9259" x2="48.9262" y2="-967.2319" gradientTransform="matrix(1 0 0 -1 0 -924.475)">
		<stop  offset="0" style="stop-color:#FFFFFB"/>
		<stop  offset="0.3041" style="stop-color:#FCFEFB"/>
		<stop  offset="0.4981" style="stop-color:#F4FBFA"/>
		<stop  offset="0.6614" style="stop-color:#E5F6FA"/>
		<stop  offset="0.8076" style="stop-color:#D0EEF9"/>
		<stop  offset="0.9412" style="stop-color:#B5E4F8"/>
		<stop  offset="1" style="stop-color:#A7DFF7"/>
	</linearGradient>
	<path fill="url(#SVGID_4_)" d="M49.197,42.582c-0.107-0.172-0.297-0.529-0.37-0.717c-0.104-0.268-0.261-0.823-0.299-1.107
		c-0.034-0.257,0.007-0.776,0-1.034c-0.003-0.108-0.064-1.141-0.056-1.249c0.018-0.223,0.284,1.145,0.33,1.273
		c0.082,0.229,0.046,0.726,0.1,0.962c0.045,0.199,0.221,0.573,0.274,0.77c0.053,0.195,0.131,0.593,0.15,0.794
		c0.011,0.12,0.119,0.444,0,0.481C49.273,42.772,49.226,42.628,49.197,42.582z"/>
	
		<linearGradient id="SVGID_5_" gradientUnits="userSpaceOnUse" x1="47.7857" y1="-953.4014" x2="47.7857" y2="-963.2736" gradientTransform="matrix(1 0 0 -1 0 -924.475)">
		<stop  offset="0" style="stop-color:#FFFFFB"/>
		<stop  offset="0.3041" style="stop-color:#FCFEFB"/>
		<stop  offset="0.4981" style="stop-color:#F4FBFA"/>
		<stop  offset="0.6614" style="stop-color:#E5F6FA"/>
		<stop  offset="0.8076" style="stop-color:#D0EEF9"/>
		<stop  offset="0.9412" style="stop-color:#B5E4F8"/>
		<stop  offset="1" style="stop-color:#A7DFF7"/>
	</linearGradient>
	<path fill="url(#SVGID_5_)" d="M48.122,38.798c0.203,0.012,0.191-0.558,0.249-0.746c0.074-0.239,0.267-0.713,0.274-0.962
		c0.009-0.314-0.225-0.917-0.274-1.227c-0.062-0.394-0.084-1.194-0.15-1.588c-0.066-0.396-0.306-1.168-0.374-1.564
		c-0.061-0.358-0.066-1.09-0.15-1.443c-0.053-0.224-0.237-0.652-0.324-0.866c-0.082-0.201-0.362-1.705-0.362-1.447
		c0,0.212-0.092,1.283-0.087,1.495c0.006,0.262,0.145,0.774,0.174,1.034c0.058,0.509,0.03,1.541,0.125,2.045
		c0.083,0.44,0.471,1.267,0.548,1.708c0.094,0.54,0.011,1.645,0.075,2.189C47.888,37.774,47.761,38.777,48.122,38.798z"/>
	
		<linearGradient id="SVGID_6_" gradientUnits="userSpaceOnUse" x1="46.8086" y1="-958.7975" x2="46.8086" y2="-959.4006" gradientTransform="matrix(1 0 0 -1 0 -924.475)">
		<stop  offset="0" style="stop-color:#FFFFFB"/>
		<stop  offset="0.3041" style="stop-color:#FCFEFB"/>
		<stop  offset="0.4981" style="stop-color:#F4FBFA"/>
		<stop  offset="0.6614" style="stop-color:#E5F6FA"/>
		<stop  offset="0.8076" style="stop-color:#D0EEF9"/>
		<stop  offset="0.9412" style="stop-color:#B5E4F8"/>
		<stop  offset="1" style="stop-color:#A7DFF7"/>
	</linearGradient>
	<path fill="url(#SVGID_6_)" d="M46.875,34.918c-0.094-0.013-0.302-0.065-0.349-0.144c-0.05-0.084-0.021-0.316,0.05-0.385
		c0.062-0.061,0.271-0.088,0.349-0.048c0.074,0.037,0.127,0.211,0.15,0.289c0.019,0.064,0.068,0.213,0.025,0.265
		C47.063,34.937,46.931,34.926,46.875,34.918z"/>
</g>
<g>
	
		<linearGradient id="SVGID_7_" gradientUnits="userSpaceOnUse" x1="31.1216" y1="-942.2005" x2="31.1216" y2="-969.7117" gradientTransform="matrix(1 0 0 -1 0 -924.475)">
		<stop  offset="0" style="stop-color:#FFFFFB"/>
		<stop  offset="0.1627" style="stop-color:#E4F5FA"/>
		<stop  offset="0.3624" style="stop-color:#C9EBF9"/>
		<stop  offset="0.5668" style="stop-color:#B6E4F8"/>
		<stop  offset="0.7765" style="stop-color:#ABE0F7"/>
		<stop  offset="1" style="stop-color:#A7DFF7"/>
	</linearGradient>
	<path fill="url(#SVGID_7_)" d="M26.009,44.602c0.421,0.855,2.902,0.534,3.883,0.535c1.596,0.002,5.62,0.527,6.324-0.857
		c0.295-0.581-1.124-1.633-1.331-2.249c-0.311-0.922-0.402-2.886-0.444-3.855c-0.041-0.963,0.48-2.959,0.111-3.855
		c-0.116-0.281-0.761-0.579-0.888-0.857c-1.028-2.256-0.159-7.401-0.444-9.851c-0.173-1.487-1.109-5.889-1.109-5.889
		s-0.633,1.996-0.777,2.677c-0.643,3.042-1.288,9.231-1.664,12.314c-0.248,2.032-0.506,6.126-0.888,8.138
		c-0.098,0.517-0.199,1.636-0.555,2.034c-0.276,0.309-1.235,0.374-1.553,0.642C26.431,43.737,25.87,44.32,26.009,44.602z"/>
	
		<linearGradient id="SVGID_8_" gradientUnits="userSpaceOnUse" x1="31.8647" y1="-944.3927" x2="31.8647" y2="-957.4216" gradientTransform="matrix(1 0 0 -1 0 -924.475)">
		<stop  offset="0" style="stop-color:#FFFFFB"/>
		<stop  offset="0.3041" style="stop-color:#FCFEFB"/>
		<stop  offset="0.4981" style="stop-color:#F4FBFA"/>
		<stop  offset="0.6614" style="stop-color:#E5F6FA"/>
		<stop  offset="0.8076" style="stop-color:#D0EEF9"/>
		<stop  offset="0.9412" style="stop-color:#B5E4F8"/>
		<stop  offset="1" style="stop-color:#A7DFF7"/>
	</linearGradient>
	<path fill="url(#SVGID_8_)" d="M32.091,32.666c-0.504-0.486-1.213-1.745-1.352-2.419c-0.152-0.738,0.174-2.255,0.318-2.994
		c0.103-0.529,0.518-1.541,0.597-2.073c0.127-0.865,0.025-2.62,0.04-3.494c0.007-0.442-0.407-1.669,0.04-1.766
		c0.217-0.047,0.338,0.561,0.398,0.768c0.323,1.113,0.301,3.455,0.398,4.607c0.092,1.094,0.36,3.279,0.358,4.376
		c-0.001,0.819,0.467,2.873-0.278,3.263C32.479,33.002,32.195,32.766,32.091,32.666z"/>
	
		<linearGradient id="SVGID_9_" gradientUnits="userSpaceOnUse" x1="32.1469" y1="-963.6763" x2="32.1469" y2="-968.2238" gradientTransform="matrix(1 0 0 -1 0 -924.475)">
		<stop  offset="0" style="stop-color:#FFFFFB"/>
		<stop  offset="0.3041" style="stop-color:#FCFEFB"/>
		<stop  offset="0.4981" style="stop-color:#F4FBFA"/>
		<stop  offset="0.6614" style="stop-color:#E5F6FA"/>
		<stop  offset="0.8076" style="stop-color:#D0EEF9"/>
		<stop  offset="0.9412" style="stop-color:#B5E4F8"/>
		<stop  offset="1" style="stop-color:#A7DFF7"/>
	</linearGradient>
	<path fill="url(#SVGID_9_)" d="M31.665,39.248c0.21,0.25,0.718,0.905,0.809,1.188c0.145,0.449,0.173,1.957,0.158,2.427
		c-0.007,0.221,0.182,0.829-0.04,0.883c-0.169,0.041-0.307-0.415-0.358-0.576c-0.1-0.312-0.056-1.69-0.084-2.016
		C32.112,40.693,31.362,38.889,31.665,39.248z"/>
	
		<linearGradient id="SVGID_10_" gradientUnits="userSpaceOnUse" x1="30.8124" y1="-958.9658" x2="30.8124" y2="-965.7565" gradientTransform="matrix(1 0 0 -1 0 -924.475)">
		<stop  offset="0" style="stop-color:#FFFFFB"/>
		<stop  offset="0.3041" style="stop-color:#FCFEFB"/>
		<stop  offset="0.4981" style="stop-color:#F4FBFA"/>
		<stop  offset="0.6614" style="stop-color:#E5F6FA"/>
		<stop  offset="0.8076" style="stop-color:#D0EEF9"/>
		<stop  offset="0.9412" style="stop-color:#B5E4F8"/>
		<stop  offset="1" style="stop-color:#A7DFF7"/>
	</linearGradient>
	<path fill="url(#SVGID_10_)" d="M30.44,34.518c-0.112-0.304-0.158,1.99-0.158,2.105c0,0.115,0.173,1.665,0.286,2.051
		c0.129,0.441,0.207,2.683,0.675,2.605c0.216-0.036,0.019-1.99-0.006-2.199c-0.035-0.294-0.243-0.858-0.278-1.152
		c-0.026-0.219,0.011-0.662,0-0.883C30.938,36.641,30.615,34.991,30.44,34.518z"/>
	
		<linearGradient id="SVGID_11_" gradientUnits="userSpaceOnUse" x1="32.9057" y1="-964.1662" x2="32.9057" y2="-964.978" gradientTransform="matrix(1 0 0 -1 0 -924.475)">
		<stop  offset="0" style="stop-color:#FFFFFB"/>
		<stop  offset="0.3041" style="stop-color:#FCFEFB"/>
		<stop  offset="0.4981" style="stop-color:#F4FBFA"/>
		<stop  offset="0.6614" style="stop-color:#E5F6FA"/>
		<stop  offset="0.8076" style="stop-color:#D0EEF9"/>
		<stop  offset="0.9412" style="stop-color:#B5E4F8"/>
		<stop  offset="1" style="stop-color:#A7DFF7"/>
	</linearGradient>
	<path fill="url(#SVGID_11_)" d="M32.767,40.498c-0.109-0.047-0.065-0.348-0.04-0.461c0.022-0.097,0.097-0.337,0.199-0.346
		c0.063-0.005,0.138,0.134,0.159,0.192c0.033,0.091,0.044,0.298,0,0.384C33.041,40.353,32.858,40.537,32.767,40.498z"/>
	
		<linearGradient id="SVGID_12_" gradientUnits="userSpaceOnUse" x1="34.3205" y1="-967.2087" x2="34.3205" y2="-967.7965" gradientTransform="matrix(1 0 0 -1 0 -924.475)">
		<stop  offset="0" style="stop-color:#FFFFFB"/>
		<stop  offset="0.3041" style="stop-color:#FCFEFB"/>
		<stop  offset="0.4981" style="stop-color:#F4FBFA"/>
		<stop  offset="0.6614" style="stop-color:#E5F6FA"/>
		<stop  offset="0.8076" style="stop-color:#D0EEF9"/>
		<stop  offset="0.9412" style="stop-color:#B5E4F8"/>
		<stop  offset="1" style="stop-color:#A7DFF7"/>
	</linearGradient>
	<path fill="url(#SVGID_12_)" d="M34.432,43.288c-0.072,0.035-0.265,0.053-0.324,0c-0.068-0.062-0.055-0.275-0.025-0.361
		c0.021-0.061,0.109-0.18,0.174-0.192c0.055-0.01,0.161,0.057,0.199,0.096c0.052,0.052,0.133,0.192,0.125,0.265
		C34.575,43.155,34.488,43.261,34.432,43.288z"/>
</g>
<g>
	
		<linearGradient id="SVGID_13_" gradientUnits="userSpaceOnUse" x1="15.0528" y1="-938.5969" x2="15.0528" y2="-969.6521" gradientTransform="matrix(1 0 0 -1 0 -924.475)">
		<stop  offset="0" style="stop-color:#FFFFFB"/>
		<stop  offset="0.1627" style="stop-color:#E4F5FA"/>
		<stop  offset="0.3624" style="stop-color:#C9EBF9"/>
		<stop  offset="0.5668" style="stop-color:#B6E4F8"/>
		<stop  offset="0.7765" style="stop-color:#ABE0F7"/>
		<stop  offset="1" style="stop-color:#A7DFF7"/>
	</linearGradient>
	<path fill="url(#SVGID_13_)" d="M8.595,44.639c1.128,1.107,4.827,0.172,6.435,0.107c1.643-0.067,5.443,0.536,6.545-0.642
		c0.093-0.099,0.074-0.422,0-0.535c-0.312-0.476-1.691-0.57-2.108-0.964c-0.753-0.712-1.518-2.687-1.886-3.641
		c-0.629-1.631-1.511-5.025-1.775-6.746c-0.537-3.499-0.241-10.621-0.666-14.134c-0.121-1.001-0.777-3.962-0.777-3.962
		s-0.315,8.358-0.555,11.136c-0.273,3.17-0.454,9.636-1.553,12.635c-0.295,0.805-1.575,2.092-1.886,2.891
		c-0.188,0.482-0.024,1.614-0.333,2.034c-0.237,0.322-1.232,0.41-1.442,0.75C8.453,43.798,8.4,44.448,8.595,44.639z"/>
	
		<linearGradient id="SVGID_14_" gradientUnits="userSpaceOnUse" x1="57.4234" y1="-967.7711" x2="57.4234" y2="-972.15" gradientTransform="matrix(0.9954 0.0957 0.0957 -0.9954 46.6643 -928.5424)">
		<stop  offset="0" style="stop-color:#FFFFFB"/>
		<stop  offset="0.3041" style="stop-color:#FCFEFB"/>
		<stop  offset="0.4981" style="stop-color:#F4FBFA"/>
		<stop  offset="0.6614" style="stop-color:#E5F6FA"/>
		<stop  offset="0.8076" style="stop-color:#D0EEF9"/>
		<stop  offset="0.9412" style="stop-color:#B5E4F8"/>
		<stop  offset="1" style="stop-color:#A7DFF7"/>
	</linearGradient>
	<path fill="url(#SVGID_14_)" d="M10.742,44.638c-0.226-0.025-0.265-0.617-0.276-0.836c-0.026-0.502,0.307-1.478,0.436-1.965
		c0.103-0.388,0.057-1.541,0.473-1.537c0.138,0.001,0.14,0.382,0.148,0.515c0.025,0.384-0.193,1.139-0.231,1.521
		c-0.038,0.383,0.042,1.168-0.073,1.536C11.151,44.085,10.972,44.663,10.742,44.638z"/>
	
		<linearGradient id="SVGID_15_" gradientUnits="userSpaceOnUse" x1="16.1719" y1="-960.6535" x2="16.1719" y2="-968.5693" gradientTransform="matrix(1 0 0 -1 0 -924.475)">
		<stop  offset="0" style="stop-color:#FFFFFB"/>
		<stop  offset="0.3041" style="stop-color:#FCFEFB"/>
		<stop  offset="0.4981" style="stop-color:#F4FBFA"/>
		<stop  offset="0.6614" style="stop-color:#E5F6FA"/>
		<stop  offset="0.8076" style="stop-color:#D0EEF9"/>
		<stop  offset="0.9412" style="stop-color:#B5E4F8"/>
		<stop  offset="1" style="stop-color:#A7DFF7"/>
	</linearGradient>
	<path fill="url(#SVGID_15_)" d="M14.758,43.134c-0.24-0.376-0.107-1.337,0-1.766c0.113-0.451,0.702-1.219,0.875-1.651
		c0.123-0.306,0.319-0.941,0.358-1.267c0.033-0.277-0.025-0.835-0.04-1.113c-0.015-0.288-0.36-1.053-0.08-1.152
		c0.22-0.078,0.464,0.522,0.557,0.729c0.212,0.474,0.358,1.881,0.358,2.035s0.716,0.96,0.716,1.075c0,0.115,0.293,1.589,0.199,2.111
		c-0.092,0.512-0.461,1.603-0.915,1.881c-0.185,0.113-0.678,0.092-0.875,0c-0.159-0.075-0.3-0.429-0.438-0.537
		C15.319,43.358,14.864,43.298,14.758,43.134z"/>
	
		<linearGradient id="SVGID_16_" gradientUnits="userSpaceOnUse" x1="12.8535" y1="-966.1488" x2="12.8535" y2="-966.998" gradientTransform="matrix(1 0 0 -1 0 -924.475)">
		<stop  offset="0" style="stop-color:#FFFFFB"/>
		<stop  offset="0.3041" style="stop-color:#FCFEFB"/>
		<stop  offset="0.4981" style="stop-color:#F4FBFA"/>
		<stop  offset="0.6614" style="stop-color:#E5F6FA"/>
		<stop  offset="0.8076" style="stop-color:#D0EEF9"/>
		<stop  offset="0.9412" style="stop-color:#B5E4F8"/>
		<stop  offset="1" style="stop-color:#A7DFF7"/>
	</linearGradient>
	<path fill="url(#SVGID_16_)" d="M13.053,42.517c-0.14,0.05-0.411-0.217-0.477-0.346c-0.049-0.094-0.074-0.345,0-0.422
		c0.081-0.085,0.375-0.098,0.477-0.038c0.065,0.038,0.112,0.196,0.119,0.269C13.186,42.116,13.186,42.469,13.053,42.517z"/>
	
		<linearGradient id="SVGID_17_" gradientUnits="userSpaceOnUse" x1="13.5764" y1="-962" x2="13.5764" y2="-967.0357" gradientTransform="matrix(1 0 0 -1 0 -924.475)">
		<stop  offset="0" style="stop-color:#FFFFFB"/>
		<stop  offset="0.3041" style="stop-color:#FCFEFB"/>
		<stop  offset="0.4981" style="stop-color:#F4FBFA"/>
		<stop  offset="0.6614" style="stop-color:#E5F6FA"/>
		<stop  offset="0.8076" style="stop-color:#D0EEF9"/>
		<stop  offset="0.9412" style="stop-color:#B5E4F8"/>
		<stop  offset="1" style="stop-color:#A7DFF7"/>
	</linearGradient>
	<path fill="url(#SVGID_17_)" d="M13.848,41.096c-0.007-0.034-0.046-0.094-0.061-0.126c-0.064-0.132-0.196-0.394-0.257-0.527
		c-0.147-0.323-0.499-0.957-0.557-1.305c-0.067-0.399-0.295-1.552,0.119-1.612c0.19-0.028,0.201,0.522,0.278,0.691
		c0.081,0.177,0.238,0.537,0.358,0.691c0.106,0.136,0.447,0.305,0.517,0.461c0.096,0.211,0,0.691,0,0.921
		c0,0.403,0.126,1.228,0,1.612c-0.063,0.19-0.282,0.718-0.477,0.653C13.411,42.436,13.921,41.455,13.848,41.096z"/>
	
		<linearGradient id="SVGID_18_" gradientUnits="userSpaceOnUse" x1="14.6094" y1="-946.7217" x2="14.6094" y2="-963.3468" gradientTransform="matrix(1 0 0 -1 0 -924.475)">
		<stop  offset="0" style="stop-color:#FFFFFB"/>
		<stop  offset="0.3041" style="stop-color:#FCFEFB"/>
		<stop  offset="0.4981" style="stop-color:#F4FBFA"/>
		<stop  offset="0.6614" style="stop-color:#E5F6FA"/>
		<stop  offset="0.8076" style="stop-color:#D0EEF9"/>
		<stop  offset="0.9412" style="stop-color:#B5E4F8"/>
		<stop  offset="1" style="stop-color:#A7DFF7"/>
	</linearGradient>
	<path fill="url(#SVGID_18_)" d="M15.081,38.87c-0.413,0.052-0.892-0.867-1.074-1.228c-0.298-0.591-0.499-1.918-0.557-2.572
		c-0.138-1.569,0.098-4.727,0.239-6.296c0.057-0.637,0.291-1.898,0.358-2.534c0.06-0.565,0.139-1.698,0.159-2.265
		c0.015-0.432,0-1.728,0-1.728s0.373,0.287,0.438,0.422c0.282,0.595,0.157,1.957,0.199,2.611c0.087,1.372,0.152,4.121,0.278,5.49
		c0.083,0.896,0.395,2.674,0.477,3.57c0.072,0.785,0.318,2.375,0.159,3.148C15.68,37.862,15.474,38.82,15.081,38.87z"/>
</g>
<g>
	
		<linearGradient id="SVGID_19_" gradientUnits="userSpaceOnUse" x1="7.3016" y1="-925.8098" x2="7.3016" y2="-972.4502" gradientTransform="matrix(1 0 0 -1 0 -924.475)">
		<stop  offset="0" style="stop-color:#FFFFFB"/>
		<stop  offset="0.7539" style="stop-color:#A7DFF7"/>
		<stop  offset="1" style="stop-color:#DAF0FC"/>
	</linearGradient>
	<path fill="url(#SVGID_19_)" d="M-0.018,46.746c1.02,1.638,4.252,1.166,6.232,1.168c2.149,0.003,7.721,0.351,8.431-1.606
		c0.156-0.43-0.877-1.079-1.22-1.392c-0.504-0.459-1.888-1.018-2.219-1.606c-0.795-1.415-0.313-4.82-0.444-6.425
		C10.45,33.053,9.7,25.399,9.32,21.573C8.818,16.511,7.212,1.335,7.212,1.335s-1.423,7.045-1.664,9.423
		C5.137,14.809,5.56,22.987,5.104,27.034c-0.396,3.523-2.067,10.443-2.774,13.92c-0.136,0.67-0.146,2.12-0.555,2.677
		c-0.503,0.685-0.925,1.383-1.462,2.044C0.136,45.895-0.167,46.506-0.018,46.746z"/>
	
		<linearGradient id="SVGID_20_" gradientUnits="userSpaceOnUse" x1="4.8008" y1="-951.2998" x2="4.8008" y2="-967.4088" gradientTransform="matrix(1 0 0 -1 0 -924.475)">
		<stop  offset="0" style="stop-color:#FFFFFB"/>
		<stop  offset="0.3041" style="stop-color:#FCFEFB"/>
		<stop  offset="0.4981" style="stop-color:#F4FBFA"/>
		<stop  offset="0.6614" style="stop-color:#E5F6FA"/>
		<stop  offset="0.8076" style="stop-color:#D0EEF9"/>
		<stop  offset="0.9412" style="stop-color:#B5E4F8"/>
		<stop  offset="1" style="stop-color:#A7DFF7"/>
	</linearGradient>
	<path fill="url(#SVGID_20_)" d="M4.117,42.927c0.658,0.131,0.99-1.72,1.121-2.356c0.087-0.422-0.031-1.29-0.066-1.719
		c-0.043-0.528-0.254-1.572-0.264-2.101c-0.033-1.709,1.269-4.579,1.208-6.287c-0.015-0.419-0.365-3.214-0.49-3.615
		c-0.105-0.338,0.045,2.969-0.035,3.243c-0.59,2.03-1.543,5.506-1.607,7.614C3.946,39.011,2.792,42.664,4.117,42.927z"/>
	
		<linearGradient id="SVGID_21_" gradientUnits="userSpaceOnUse" x1="6.597" y1="-960.8096" x2="6.597" y2="-961.8984" gradientTransform="matrix(1 0 0 -1 0 -924.475)">
		<stop  offset="0" style="stop-color:#FFFFFB"/>
		<stop  offset="0.3041" style="stop-color:#FCFEFB"/>
		<stop  offset="0.4981" style="stop-color:#F4FBFA"/>
		<stop  offset="0.6614" style="stop-color:#E5F6FA"/>
		<stop  offset="0.8076" style="stop-color:#D0EEF9"/>
		<stop  offset="0.9412" style="stop-color:#B5E4F8"/>
		<stop  offset="1" style="stop-color:#A7DFF7"/>
	</linearGradient>
	<path fill="url(#SVGID_21_)" d="M6.476,37.422c-0.152-0.042-0.179-0.446-0.145-0.595c0.035-0.152,0.24-0.519,0.399-0.49
		c0.121,0.022,0.153,0.337,0.145,0.455c-0.009,0.125-0.143,0.353-0.218,0.455C6.621,37.298,6.538,37.439,6.476,37.422z"/>
	
		<linearGradient id="SVGID_22_" gradientUnits="userSpaceOnUse" x1="7.8873" y1="-960.8447" x2="7.8873" y2="-961.8978" gradientTransform="matrix(1 0 0 -1 0 -924.475)">
		<stop  offset="0" style="stop-color:#FFFFFB"/>
		<stop  offset="0.3041" style="stop-color:#FCFEFB"/>
		<stop  offset="0.4981" style="stop-color:#F4FBFA"/>
		<stop  offset="0.6614" style="stop-color:#E5F6FA"/>
		<stop  offset="0.8076" style="stop-color:#D0EEF9"/>
		<stop  offset="0.9412" style="stop-color:#B5E4F8"/>
		<stop  offset="1" style="stop-color:#A7DFF7"/>
	</linearGradient>
	<path fill="url(#SVGID_22_)" d="M7.855,37.422c-0.096-0.012-0.257-0.158-0.29-0.245c-0.045-0.116,0.012-0.381,0.073-0.49
		C7.695,36.582,7.88,36.349,8,36.371c0.12,0.022,0.198,0.304,0.218,0.42c0.021,0.122,0.002,0.39-0.073,0.49
		C8.098,37.345,7.935,37.432,7.855,37.422z"/>
	
		<linearGradient id="SVGID_23_" gradientUnits="userSpaceOnUse" x1="5.6857" y1="-966.5882" x2="5.6857" y2="-967.4213" gradientTransform="matrix(1 0 0 -1 0 -924.475)">
		<stop  offset="0" style="stop-color:#FFFFFB"/>
		<stop  offset="0.3041" style="stop-color:#FCFEFB"/>
		<stop  offset="0.4981" style="stop-color:#F4FBFA"/>
		<stop  offset="0.6614" style="stop-color:#E5F6FA"/>
		<stop  offset="0.8076" style="stop-color:#D0EEF9"/>
		<stop  offset="0.9412" style="stop-color:#B5E4F8"/>
		<stop  offset="1" style="stop-color:#A7DFF7"/>
	</linearGradient>
	<path fill="url(#SVGID_23_)" d="M5.46,42.921c-0.112-0.103-0.037-0.464,0.036-0.595c0.043-0.077,0.203-0.234,0.29-0.21
		c0.121,0.034,0.19,0.334,0.181,0.455c-0.007,0.09-0.104,0.265-0.181,0.315C5.718,42.93,5.519,42.976,5.46,42.921z"/>
	
		<linearGradient id="SVGID_24_" gradientUnits="userSpaceOnUse" x1="5.2614" y1="-967.8745" x2="5.2614" y2="-969.7579" gradientTransform="matrix(1 0 0 -1 0 -924.475)">
		<stop  offset="0" style="stop-color:#FFFFFB"/>
		<stop  offset="0.3041" style="stop-color:#FCFEFB"/>
		<stop  offset="0.4981" style="stop-color:#F4FBFA"/>
		<stop  offset="0.6614" style="stop-color:#E5F6FA"/>
		<stop  offset="0.8076" style="stop-color:#D0EEF9"/>
		<stop  offset="0.9412" style="stop-color:#B5E4F8"/>
		<stop  offset="1" style="stop-color:#A7DFF7"/>
	</linearGradient>
	<path fill="url(#SVGID_24_)" d="M4.391,44.253c0.115-0.122,0.13-0.493,0.245-0.615c0.092-0.098,0.355-0.261,0.49-0.236
		c0.179,0.032,0.338,0.423,0.49,0.52c0.152,0.097,0.506,0.263,0.686,0.236c0.121-0.018,0.285-0.342,0.392-0.284
		c0.225,0.122,0.098,0.831-0.098,0.993c-0.158,0.131-0.639,0.027-0.833-0.047c-0.178-0.068-0.397-0.481-0.588-0.473
		c-0.208,0.009-0.415,0.456-0.588,0.568c-0.187,0.121-0.672,0.483-0.833,0.331c-0.169-0.16,0.184-0.682,0.343-0.851
		C4.152,44.336,4.336,44.312,4.391,44.253z"/>
	
		<linearGradient id="SVGID_25_" gradientUnits="userSpaceOnUse" x1="8.9131" y1="-929.6705" x2="8.9131" y2="-967.8605" gradientTransform="matrix(1 0 0 -1 0 -924.475)">
		<stop  offset="0" style="stop-color:#FFFFFB"/>
		<stop  offset="0.3041" style="stop-color:#FCFEFB"/>
		<stop  offset="0.4981" style="stop-color:#F4FBFA"/>
		<stop  offset="0.6614" style="stop-color:#E5F6FA"/>
		<stop  offset="0.8076" style="stop-color:#D0EEF9"/>
		<stop  offset="0.9412" style="stop-color:#B5E4F8"/>
		<stop  offset="1" style="stop-color:#A7DFF7"/>
	</linearGradient>
	<path fill="url(#SVGID_25_)" d="M9.67,43.377c-0.261-0.076-0.464-0.66-0.544-0.911c-0.145-0.453-0.109-1.419-0.145-1.892
		c-0.165-2.163-0.717-6.484-0.653-8.652c0.032-1.086,0.568-3.222,0.581-4.308c0.019-1.638-0.619-4.88-0.726-6.515
		c-0.06-0.909-0.021-2.733-0.073-3.643c-0.127-2.221-0.685-6.642-0.835-8.862c-0.03-0.446-0.079-1.34-0.073-1.786
		c0.005-0.404-0.305-1.553,0.109-1.611c0.182-0.025,0.218,0.492,0.254,0.666c0.153,0.73,0.092,2.234,0.145,2.977
		c0.194,2.728,0.807,8.167,1.016,10.894c0.15,1.951,0.328,5.86,0.472,7.811c0.131,1.779,0.43,5.336,0.617,7.111
		c0.193,1.825,1.011,5.454,0.907,7.286c-0.015,0.269-0.081,0.839-0.254,1.051C10.33,43.16,9.883,43.439,9.67,43.377z"/>
	
		<linearGradient id="SVGID_26_" gradientUnits="userSpaceOnUse" x1="9.6992" y1="-968.7222" x2="9.6992" y2="-970.851" gradientTransform="matrix(1 0 0 -1 0 -924.475)">
		<stop  offset="0" style="stop-color:#FFFFFB"/>
		<stop  offset="0.3041" style="stop-color:#FCFEFB"/>
		<stop  offset="0.4981" style="stop-color:#F4FBFA"/>
		<stop  offset="0.6614" style="stop-color:#E5F6FA"/>
		<stop  offset="0.8076" style="stop-color:#D0EEF9"/>
		<stop  offset="0.9412" style="stop-color:#B5E4F8"/>
		<stop  offset="1" style="stop-color:#A7DFF7"/>
	</linearGradient>
	<path fill="url(#SVGID_26_)" d="M7.42,45.478c0.283-0.103,0.937-0.026,1.198-0.175c0.295-0.168,0.5-0.976,0.835-1.051
		c0.257-0.057,0.694,0.374,0.944,0.455c0.411,0.134,1.296,0.177,1.706,0.315c0.425,0.143,1.682,0.379,1.597,0.806
		c-0.035,0.173-0.546,0.098-0.726,0.07c-0.285-0.045-0.765-0.438-1.052-0.455c-0.246-0.015-0.7,0.245-0.944,0.28
		c-0.341,0.049-1.034-0.008-1.379,0c-0.381,0.009-1.173,0.643-1.555,0.652c-0.29,0.007-2.263-0.035-2.345-0.304
		C5.655,45.931,7.278,45.53,7.42,45.478z"/>
	
		<linearGradient id="SVGID_27_" gradientUnits="userSpaceOnUse" x1="1.2762" y1="-969.5165" x2="1.2762" y2="-970.4105" gradientTransform="matrix(1 0 0 -1 0 -924.475)">
		<stop  offset="0" style="stop-color:#FFFFFB"/>
		<stop  offset="0.3041" style="stop-color:#FCFEFB"/>
		<stop  offset="0.4981" style="stop-color:#F4FBFA"/>
		<stop  offset="0.6614" style="stop-color:#E5F6FA"/>
		<stop  offset="0.8076" style="stop-color:#D0EEF9"/>
		<stop  offset="0.9412" style="stop-color:#B5E4F8"/>
		<stop  offset="1" style="stop-color:#A7DFF7"/>
	</linearGradient>
	<path fill="url(#SVGID_27_)" d="M0.59,45.895c-0.098-0.105,0.101-0.44,0.218-0.525c0.146-0.106,0.552-0.016,0.726-0.07
		c0.12-0.038,0.338-0.322,0.435-0.245c0.067,0.052-0.056,0.25-0.109,0.315c-0.093,0.115-0.37,0.255-0.508,0.315
		C1.172,45.764,0.723,46.037,0.59,45.895z"/>
	
		<linearGradient id="SVGID_28_" gradientUnits="userSpaceOnUse" x1="5.9383" y1="-933.9847" x2="5.9383" y2="-947.8545" gradientTransform="matrix(1 0 0 -1 0 -924.475)">
		<stop  offset="0" style="stop-color:#FFFFFB"/>
		<stop  offset="0.3041" style="stop-color:#FCFEFB"/>
		<stop  offset="0.4981" style="stop-color:#F4FBFA"/>
		<stop  offset="0.6614" style="stop-color:#E5F6FA"/>
		<stop  offset="0.8076" style="stop-color:#D0EEF9"/>
		<stop  offset="0.9412" style="stop-color:#B5E4F8"/>
		<stop  offset="1" style="stop-color:#A7DFF7"/>
	</linearGradient>
	<path fill="url(#SVGID_28_)" d="M5.633,23.379c-0.312,0.026-0.249-0.88-0.262-1.182c-0.04-0.914,0.394-2.72,0.481-3.631
		c0.089-0.937,0.162-2.819,0.219-3.758c0.031-0.517,0.115-1.551,0.131-2.069c0.008-0.264-0.059-0.798,0-1.056
		c0.039-0.171,0.027-2.327,0.09-2.164c0.21,0.541,0.22,2.639,0.216,3.008c-0.011,1.035-0.027,3.105-0.087,4.138
		c-0.047,0.804-0.196,2.411-0.306,3.209c-0.084,0.606-0.37,1.799-0.437,2.407C5.647,22.554,5.917,23.355,5.633,23.379z"/>
	
		<linearGradient id="SVGID_29_" gradientUnits="userSpaceOnUse" x1="7.0738" y1="-942.2677" x2="7.0738" y2="-943.8037" gradientTransform="matrix(1 0 0 -1 0 -924.475)">
		<stop  offset="0" style="stop-color:#FFFFFB"/>
		<stop  offset="0.3041" style="stop-color:#FCFEFB"/>
		<stop  offset="0.4981" style="stop-color:#F4FBFA"/>
		<stop  offset="0.6614" style="stop-color:#E5F6FA"/>
		<stop  offset="0.8076" style="stop-color:#D0EEF9"/>
		<stop  offset="0.9412" style="stop-color:#B5E4F8"/>
		<stop  offset="1" style="stop-color:#A7DFF7"/>
	</linearGradient>
	<path fill="url(#SVGID_29_)" d="M7.077,18.565c0.057-0.09,0.309-0.155,0.35-0.253c0.049-0.119,0.025-0.438-0.087-0.507
		c-0.067-0.041-0.252,0.028-0.306,0.084c-0.076,0.079-0.054,0.32-0.087,0.422c-0.033,0.099-0.153,0.278-0.175,0.38
		c-0.034,0.155-0.148,0.565,0,0.633c0.057,0.026,0.164-0.102,0.196-0.154C7.047,19.038,6.993,18.696,7.077,18.565z"/>
	
		<linearGradient id="SVGID_30_" gradientUnits="userSpaceOnUse" x1="7.1035" y1="-937.7232" x2="7.1035" y2="-938.8568" gradientTransform="matrix(1 0 0 -1 0 -924.475)">
		<stop  offset="0" style="stop-color:#FFFFFB"/>
		<stop  offset="0.3041" style="stop-color:#FCFEFB"/>
		<stop  offset="0.4981" style="stop-color:#F4FBFA"/>
		<stop  offset="0.6614" style="stop-color:#E5F6FA"/>
		<stop  offset="0.8076" style="stop-color:#D0EEF9"/>
		<stop  offset="0.9412" style="stop-color:#B5E4F8"/>
		<stop  offset="1" style="stop-color:#A7DFF7"/>
	</linearGradient>
	<path fill="url(#SVGID_30_)" d="M6.966,13.94c-0.019-0.123-0.104-0.379-0.057-0.496c0.027-0.068,0.159-0.223,0.228-0.193
		c0.065,0.028-0.019,0.209,0,0.275c0.022,0.077,0.156,0.196,0.171,0.275c0.014,0.076-0.026,0.232-0.057,0.303
		c-0.034,0.078-0.115,0.293-0.2,0.275C6.938,14.357,6.983,14.051,6.966,13.94z"/>
	
		<linearGradient id="SVGID_31_" gradientUnits="userSpaceOnUse" x1="7.1194" y1="-936.7634" x2="7.1194" y2="-937.4243" gradientTransform="matrix(1 0 0 -1 0 -924.475)">
		<stop  offset="0" style="stop-color:#FFFFFB"/>
		<stop  offset="0.3041" style="stop-color:#FCFEFB"/>
		<stop  offset="0.4981" style="stop-color:#F4FBFA"/>
		<stop  offset="0.6614" style="stop-color:#E5F6FA"/>
		<stop  offset="0.8076" style="stop-color:#D0EEF9"/>
		<stop  offset="0.9412" style="stop-color:#B5E4F8"/>
		<stop  offset="1" style="stop-color:#A7DFF7"/>
	</linearGradient>
	<path fill="url(#SVGID_31_)" d="M7.109,12.949c-0.057,0-0.174-0.061-0.2-0.11c-0.029-0.056,0.011-0.188,0.029-0.248
		c0.023-0.08,0.057-0.296,0.143-0.303c0.051-0.004,0.086,0.123,0.114,0.165c0.036,0.055,0.129,0.157,0.143,0.22
		c0.008,0.041-0.004,0.131-0.029,0.165C7.276,12.885,7.166,12.949,7.109,12.949z"/>
	
		<linearGradient id="SVGID_32_" gradientUnits="userSpaceOnUse" x1="7.1188" y1="-947.5269" x2="7.1188" y2="-948.0233" gradientTransform="matrix(1 0 0 -1 0 -924.475)">
		<stop  offset="0" style="stop-color:#FFFFFB"/>
		<stop  offset="0.3041" style="stop-color:#FCFEFB"/>
		<stop  offset="0.4981" style="stop-color:#F4FBFA"/>
		<stop  offset="0.6614" style="stop-color:#E5F6FA"/>
		<stop  offset="0.8076" style="stop-color:#D0EEF9"/>
		<stop  offset="0.9412" style="stop-color:#B5E4F8"/>
		<stop  offset="1" style="stop-color:#A7DFF7"/>
	</linearGradient>
	<path fill="url(#SVGID_32_)" d="M7.138,23.548c-0.077,0.001-0.225-0.097-0.257-0.165c-0.021-0.044,0.002-0.151,0.029-0.193
		c0.032-0.051,0.139-0.13,0.2-0.138c0.06-0.008,0.193,0.034,0.228,0.083c0.041,0.057,0.033,0.214,0,0.275
		C7.309,23.463,7.199,23.547,7.138,23.548z"/>
</g>
<g>
	
		<linearGradient id="SVGID_33_" gradientUnits="userSpaceOnUse" x1="23.0019" y1="-924.475" x2="23.0019" y2="-973.2863" gradientTransform="matrix(1 0 0 -1 0 -924.475)">
		<stop  offset="0" style="stop-color:#FFFFFB"/>
		<stop  offset="0.7539" style="stop-color:#A7DFF7"/>
		<stop  offset="1" style="stop-color:#DAF0FC"/>
	</linearGradient>
	<path fill="url(#SVGID_33_)" d="M16.677,47.647c-0.356-0.273-0.684-1.138-0.666-1.553c0.036-0.803,1.026-2.253,1.553-2.911
		c0.248-0.309,1.069-0.714,1.22-1.067c0.429-1.002-0.441-3.204-0.333-4.27c0.121-1.196,1.178-3.465,1.331-4.658
		c0.305-2.363-0.505-7.145-0.222-9.51c0.089-0.743,0.67-2.17,0.777-2.911c0.332-2.311-0.011-6.995,0.222-9.316
		c0.221-2.201,1.239-6.541,1.553-8.734c0.073-0.508,0.222-2.038,0.222-2.038L22.446,0c0,0,0.475,0.249,0.555,0.388
		c0.645,1.129,0.131,3.786,0.222,5.046c0.14,1.944,0.679,5.817,0.777,7.763c0.023,0.461-0.024,1.383,0,1.844
		c0.125,2.361,0.767,7.058,0.998,9.413c0.181,1.843,0.201,5.571,0.666,7.375c0.137,0.532,0.775,1.502,0.888,2.038
		c0.171,0.811-0.161,2.487,0,3.299c0.436,2.208,3.271,6.207,3.439,8.443c0.026,0.347-0.106,1.073-0.333,1.359
		c-0.206,0.26-0.886,0.558-1.22,0.679c-1.417,0.514-4.457,1.17-5.991,1.164C20.966,48.806,17.79,48.5,16.677,47.647z"/>
	
		<linearGradient id="SVGID_34_" gradientUnits="userSpaceOnUse" x1="19.6051" y1="-968.5976" x2="19.6051" y2="-969.1442" gradientTransform="matrix(1 0 0 -1 0 -924.475)">
		<stop  offset="0" style="stop-color:#FFFFFB"/>
		<stop  offset="0.3041" style="stop-color:#FCFEFB"/>
		<stop  offset="0.4981" style="stop-color:#F4FBFA"/>
		<stop  offset="0.6614" style="stop-color:#E5F6FA"/>
		<stop  offset="0.8076" style="stop-color:#D0EEF9"/>
		<stop  offset="0.9412" style="stop-color:#B5E4F8"/>
		<stop  offset="1" style="stop-color:#A7DFF7"/>
	</linearGradient>
	<path fill="url(#SVGID_34_)" d="M19.671,44.663c-0.094-0.012-0.302-0.059-0.349-0.131c-0.05-0.076-0.021-0.286,0.05-0.349
		c0.062-0.055,0.271-0.079,0.349-0.044c0.074,0.034,0.127,0.191,0.15,0.262c0.019,0.058,0.068,0.193,0.025,0.24
		C19.86,44.679,19.727,44.67,19.671,44.663z"/>
	
		<linearGradient id="SVGID_35_" gradientUnits="userSpaceOnUse" x1="23.6179" y1="-967.5891" x2="23.6179" y2="-968.4858" gradientTransform="matrix(1 0 0 -1 0 -924.475)">
		<stop  offset="0" style="stop-color:#FFFFFB"/>
		<stop  offset="0.3041" style="stop-color:#FCFEFB"/>
		<stop  offset="0.4981" style="stop-color:#F4FBFA"/>
		<stop  offset="0.6614" style="stop-color:#E5F6FA"/>
		<stop  offset="0.8076" style="stop-color:#D0EEF9"/>
		<stop  offset="0.9412" style="stop-color:#B5E4F8"/>
		<stop  offset="1" style="stop-color:#A7DFF7"/>
	</linearGradient>
	<path fill="url(#SVGID_35_)" d="M23.41,44.009c-0.078-0.025-0.152-0.189-0.15-0.262c0.004-0.107,0.187-0.278,0.249-0.371
		c0.044-0.065,0.089-0.25,0.174-0.262c0.092-0.012,0.243,0.142,0.274,0.218c0.045,0.109-0.001,0.362-0.075,0.458
		c-0.048,0.063-0.222,0.119-0.299,0.153C23.542,43.962,23.454,44.023,23.41,44.009z"/>
	
		<linearGradient id="SVGID_36_" gradientUnits="userSpaceOnUse" x1="21.2974" y1="-969.0504" x2="21.2974" y2="-971.2643" gradientTransform="matrix(1 0 0 -1 0 -924.475)">
		<stop  offset="0" style="stop-color:#FFFFFB"/>
		<stop  offset="0.3041" style="stop-color:#FCFEFB"/>
		<stop  offset="0.4981" style="stop-color:#F4FBFA"/>
		<stop  offset="0.6614" style="stop-color:#E5F6FA"/>
		<stop  offset="0.8076" style="stop-color:#D0EEF9"/>
		<stop  offset="0.9412" style="stop-color:#B5E4F8"/>
		<stop  offset="1" style="stop-color:#A7DFF7"/>
	</linearGradient>
	<path fill="url(#SVGID_36_)" d="M18.186,46.647c-0.14-0.236,0.659-0.554,0.897-0.719c0.432-0.3,1.318-0.89,1.819-1.09
		c0.27-0.108,0.85-0.265,1.146-0.262c0.363,0.004,1.033,0.347,1.396,0.349c0.239,0.001,0.747-0.36,0.922-0.218
		c0.149,0.12-0.022,0.56-0.15,0.698c-0.204,0.22-0.876,0.395-1.196,0.436c-0.366,0.047-1.107-0.19-1.471-0.131
		c-0.323,0.053-0.862,0.427-1.171,0.523C19.851,46.397,18.444,47.082,18.186,46.647z"/>
	
		<linearGradient id="SVGID_37_" gradientUnits="userSpaceOnUse" x1="26.1535" y1="-970.1766" x2="26.1535" y2="-971.0472" gradientTransform="matrix(1 0 0 -1 0 -924.475)">
		<stop  offset="0" style="stop-color:#FFFFFB"/>
		<stop  offset="0.3041" style="stop-color:#FCFEFB"/>
		<stop  offset="0.4981" style="stop-color:#F4FBFA"/>
		<stop  offset="0.6614" style="stop-color:#E5F6FA"/>
		<stop  offset="0.8076" style="stop-color:#D0EEF9"/>
		<stop  offset="0.9412" style="stop-color:#B5E4F8"/>
		<stop  offset="1" style="stop-color:#A7DFF7"/>
	</linearGradient>
	<path fill="url(#SVGID_37_)" d="M26.276,46.559c-0.1,0.038-0.356-0.013-0.424-0.087c-0.124-0.137-0.138-0.572,0-0.698
		c0.099-0.091,0.457-0.096,0.573-0.022c0.094,0.06,0.139,0.291,0.125,0.392C26.533,46.264,26.402,46.512,26.276,46.559z"/>
	
		<linearGradient id="SVGID_38_" gradientUnits="userSpaceOnUse" x1="26.7508" y1="-963.0587" x2="26.7508" y2="-971.4541" gradientTransform="matrix(1 0 0 -1 0 -924.475)">
		<stop  offset="0" style="stop-color:#FFFFFB"/>
		<stop  offset="0.3041" style="stop-color:#FCFEFB"/>
		<stop  offset="0.4981" style="stop-color:#F4FBFA"/>
		<stop  offset="0.6614" style="stop-color:#E5F6FA"/>
		<stop  offset="0.8076" style="stop-color:#D0EEF9"/>
		<stop  offset="0.9412" style="stop-color:#B5E4F8"/>
		<stop  offset="1" style="stop-color:#A7DFF7"/>
	</linearGradient>
	<path fill="url(#SVGID_38_)" d="M24.98,45.317c0.058-0.404,0.844-0.989,0.997-1.373c0.118-0.295,0.123-0.931,0.15-1.243
		c0.022-0.261,0.037-0.785,0.05-1.046c0.024-0.501,0.405-1.09,0.224-1.566c-0.156-0.41-0.09-1.529,0.022-1.504
		c0.195,0.042,0.539,1.123,0.603,1.289c0.227,0.585,0.364,1.991,0.547,2.587c0.195,0.638,1.05,1.853,0.947,2.507
		c-0.056,0.358-0.646,0.93-0.922,1.199c-0.239,0.233-0.744,0.752-1.097,0.807c-0.268,0.041-0.833-0.156-1.022-0.327
		C25.2,46.395,24.93,45.664,24.98,45.317z"/>
	
		<linearGradient id="SVGID_39_" gradientUnits="userSpaceOnUse" x1="24.177" y1="-926.7712" x2="24.177" y2="-961.3813" gradientTransform="matrix(1 0 0 -1 0 -924.475)">
		<stop  offset="0" style="stop-color:#FFFFFB"/>
		<stop  offset="0.3041" style="stop-color:#FCFEFB"/>
		<stop  offset="0.4981" style="stop-color:#F4FBFA"/>
		<stop  offset="0.6614" style="stop-color:#E5F6FA"/>
		<stop  offset="0.8076" style="stop-color:#D0EEF9"/>
		<stop  offset="0.9412" style="stop-color:#B5E4F8"/>
		<stop  offset="1" style="stop-color:#A7DFF7"/>
	</linearGradient>
	<path fill="url(#SVGID_39_)" d="M24.933,36.898c-0.261-0.069-0.464-0.598-0.544-0.825c-0.145-0.411-0.109-1.286-0.145-1.714
		c-0.165-1.96-0.717-5.876-0.653-7.841c0.032-0.984,0.568-2.92,0.581-3.905c0.019-1.485-0.619-4.423-0.726-5.904
		c-0.06-0.824-0.021-2.477-0.073-3.301c-0.127-2.013-0.685-6.019-0.835-8.031c-0.03-0.404-0.079-1.214-0.073-1.619
		c0.005-0.366-0.305-1.408,0.109-1.46c0.182-0.023,0.218,0.446,0.254,0.603c0.153,0.662,0.092,2.025,0.145,2.698
		C23.167,8.071,23.78,13,23.99,15.471c0.15,1.768,0.328,5.311,0.472,7.079c0.131,1.613,0.43,4.836,0.617,6.444
		c0.193,1.654,1.011,4.943,0.907,6.603c-0.015,0.244-0.081,0.76-0.254,0.952C25.594,36.702,25.147,36.954,24.933,36.898z"/>
	
		<linearGradient id="SVGID_40_" gradientUnits="userSpaceOnUse" x1="20.6192" y1="-958.596" x2="20.6192" y2="-959.3656" gradientTransform="matrix(1 0 0 -1 0 -924.475)">
		<stop  offset="0" style="stop-color:#FFFFFB"/>
		<stop  offset="0.3041" style="stop-color:#FCFEFB"/>
		<stop  offset="0.4981" style="stop-color:#F4FBFA"/>
		<stop  offset="0.6614" style="stop-color:#E5F6FA"/>
		<stop  offset="0.8076" style="stop-color:#D0EEF9"/>
		<stop  offset="0.9412" style="stop-color:#B5E4F8"/>
		<stop  offset="1" style="stop-color:#A7DFF7"/>
	</linearGradient>
	<path fill="url(#SVGID_40_)" d="M20.819,34.885c-0.14,0.046-0.411-0.196-0.477-0.313c-0.049-0.086-0.074-0.312,0-0.383
		c0.081-0.077,0.375-0.089,0.477-0.035c0.065,0.034,0.112,0.178,0.119,0.244C20.952,34.522,20.952,34.841,20.819,34.885z"/>
	
		<linearGradient id="SVGID_41_" gradientUnits="userSpaceOnUse" x1="22.9256" y1="-946.3491" x2="22.9256" y2="-946.8957" gradientTransform="matrix(1 0 0 -1 0 -924.475)">
		<stop  offset="0" style="stop-color:#FFFFFB"/>
		<stop  offset="0.3041" style="stop-color:#FCFEFB"/>
		<stop  offset="0.4981" style="stop-color:#F4FBFA"/>
		<stop  offset="0.6614" style="stop-color:#E5F6FA"/>
		<stop  offset="0.8076" style="stop-color:#D0EEF9"/>
		<stop  offset="0.9412" style="stop-color:#B5E4F8"/>
		<stop  offset="1" style="stop-color:#A7DFF7"/>
	</linearGradient>
	<path fill="url(#SVGID_41_)" d="M22.992,22.414c-0.094-0.012-0.302-0.059-0.349-0.131c-0.05-0.076-0.021-0.286,0.05-0.349
		c0.062-0.055,0.271-0.079,0.349-0.044c0.074,0.034,0.127,0.191,0.15,0.262c0.019,0.058,0.068,0.193,0.025,0.24
		C23.18,22.431,23.048,22.421,22.992,22.414z"/>
</g>
<g>
	
		<linearGradient id="SVGID_42_" gradientUnits="userSpaceOnUse" x1="39.572" y1="-932.1599" x2="39.572" y2="-972.3923" gradientTransform="matrix(1 0 0 -1 0 -924.475)">
		<stop  offset="0" style="stop-color:#FFFFFB"/>
		<stop  offset="0.7539" style="stop-color:#A7DFF7"/>
		<stop  offset="1" style="stop-color:#DAF0FC"/>
	</linearGradient>
	<path fill="url(#SVGID_42_)" d="M31.687,46.368c0.464,2.489,5.562,1.236,7.433,1.218c2.098-0.02,7.455,1.101,8.321-1.523
		c0.165-0.5-0.577-1.482-0.888-1.828c-0.348-0.388-1.413-0.404-1.664-0.914c-0.124-0.252-0.036-0.918,0-1.218
		c0.042-0.357,0.355-1.011,0.333-1.371c-0.035-0.56-0.643-1.449-0.777-1.98c-0.212-0.84-0.375-2.619-0.444-3.503
		c-0.071-0.909-0.038-2.746-0.111-3.655c-0.172-2.153-0.846-6.393-1.109-8.529c-0.38-3.08-1.442-12.336-1.442-12.336l-0.777-3.046
		c0,0-0.859,0.676-0.998,1.066c-0.562,1.573-0.008,5.259-0.111,7.006c-0.241,4.1-1.176,12.237-1.664,16.296
		c-0.29,2.409-0.581,7.381-1.331,9.595c-0.241,0.712-0.969,1.996-1.442,2.437c-0.385,0.358-1.359,0.477-1.775,0.761
		C32.813,45.137,31.569,45.734,31.687,46.368z"/>
	
		<linearGradient id="SVGID_43_" gradientUnits="userSpaceOnUse" x1="38.0519" y1="-951.4604" x2="38.0519" y2="-966.8178" gradientTransform="matrix(1 0 0 -1 0 -924.475)">
		<stop  offset="0" style="stop-color:#FFFFFB"/>
		<stop  offset="0.3041" style="stop-color:#FCFEFB"/>
		<stop  offset="0.4981" style="stop-color:#F4FBFA"/>
		<stop  offset="0.6614" style="stop-color:#E5F6FA"/>
		<stop  offset="0.8076" style="stop-color:#D0EEF9"/>
		<stop  offset="0.9412" style="stop-color:#B5E4F8"/>
		<stop  offset="1" style="stop-color:#A7DFF7"/>
	</linearGradient>
	<path fill="url(#SVGID_43_)" d="M36.944,42.335c-0.147-0.041-0.406-0.35-0.449-0.547c-0.076-0.348,0.167-1.071,0.274-1.403
		c0.186-0.577,0.811-1.544,0.997-2.121c0.237-0.737,0.527-2.314,0.598-3.114c0.051-0.577-0.154-1.773-0.025-2.327
		c0.18-0.769,1.401-6.552,1.273-5.764c-0.132,0.818-0.28,3.491-0.331,3.818c-0.061,0.39-0.008,1.753-0.02,2.152
		c-0.012,0.386,0.344,1.084,0.349,1.471c0.01,0.72-0.458,2.069-0.573,2.771c-0.152,0.922-0.449,3.627-0.449,3.729
		c0,0.103-0.547,0.757-0.773,0.924C37.614,42.075,37.17,42.397,36.944,42.335z"/>
	
		<linearGradient id="SVGID_44_" gradientUnits="userSpaceOnUse" x1="41.0815" y1="-958.7667" x2="41.0815" y2="-959.8431" gradientTransform="matrix(1 0 0 -1 0 -924.475)">
		<stop  offset="0" style="stop-color:#FFFFFB"/>
		<stop  offset="0.3041" style="stop-color:#FCFEFB"/>
		<stop  offset="0.4981" style="stop-color:#F4FBFA"/>
		<stop  offset="0.6614" style="stop-color:#E5F6FA"/>
		<stop  offset="0.8076" style="stop-color:#D0EEF9"/>
		<stop  offset="0.9412" style="stop-color:#B5E4F8"/>
		<stop  offset="1" style="stop-color:#A7DFF7"/>
	</linearGradient>
	<path fill="url(#SVGID_44_)" d="M41.046,34.991c-0.066-0.077-0.273-0.126-0.299-0.24c-0.027-0.117,0.069-0.391,0.15-0.445
		c0.075-0.05,0.256,0.038,0.324,0.103c0.074,0.07,0.189,0.288,0.199,0.411c0.012,0.145-0.044,0.524-0.15,0.547
		C41.183,35.387,41.113,35.07,41.046,34.991z"/>
	
		<linearGradient id="SVGID_45_" gradientUnits="userSpaceOnUse" x1="41.9662" y1="-947.7227" x2="41.9662" y2="-960.2877" gradientTransform="matrix(1 0 0 -1 0 -924.475)">
		<stop  offset="0" style="stop-color:#FFFFFB"/>
		<stop  offset="0.3041" style="stop-color:#FCFEFB"/>
		<stop  offset="0.4981" style="stop-color:#F4FBFA"/>
		<stop  offset="0.6614" style="stop-color:#E5F6FA"/>
		<stop  offset="0.8076" style="stop-color:#D0EEF9"/>
		<stop  offset="0.9412" style="stop-color:#B5E4F8"/>
		<stop  offset="1" style="stop-color:#A7DFF7"/>
	</linearGradient>
	<path fill="url(#SVGID_45_)" d="M42.631,35.809c0.314-0.087,0.173-1.305,0.174-1.745c0.004-1.078-0.233-3.223-0.399-4.277
		c-0.148-0.936-0.658-2.73-0.822-3.661c-0.067-0.38-0.138-2.18-0.272-2.871c-0.027-0.138-0.123,1.674-0.152,1.811
		c-0.116,0.542-0.05,1.698,0,2.258c0.072,0.813,0.429,2.387,0.573,3.182c0.118,0.65,0.424,1.934,0.474,2.6
		c0.03,0.4-0.121,1.218-0.05,1.608C42.214,35.023,42.404,35.873,42.631,35.809z"/>
	
		<linearGradient id="SVGID_46_" gradientUnits="userSpaceOnUse" x1="41.4355" y1="-934.6249" x2="41.4355" y2="-948.868" gradientTransform="matrix(1 0 0 -1 0 -924.475)">
		<stop  offset="0" style="stop-color:#FFFFFB"/>
		<stop  offset="0.3041" style="stop-color:#FCFEFB"/>
		<stop  offset="0.4981" style="stop-color:#F4FBFA"/>
		<stop  offset="0.6614" style="stop-color:#E5F6FA"/>
		<stop  offset="0.8076" style="stop-color:#D0EEF9"/>
		<stop  offset="0.9412" style="stop-color:#B5E4F8"/>
		<stop  offset="1" style="stop-color:#A7DFF7"/>
	</linearGradient>
	<path fill="url(#SVGID_46_)" d="M42.292,23.05c-0.042-0.7-0.033-2.106-0.075-2.806c-0.092-1.547-0.378-4.63-0.573-6.159
		c-0.113-0.889-0.216-2.766-0.573-3.524c-0.068-0.144-0.275-0.432-0.399-0.411c-0.119,0.021-0.288,0.35-0.299,0.513
		c-0.016,0.221,0.254,0.574,0.299,0.787c0.166,0.783,0.204,2.435,0.199,3.25c-0.002,0.344-0.141,1.03-0.1,1.369
		c0.076,0.623,0.66,1.68,0.773,2.292c0.127,0.69,0.069,2.133,0.125,2.84c0.03,0.387,0.09,1.168,0.174,1.54
		c0.098,0.435,0.255,1.771,0.573,1.642C42.651,24.289,42.312,23.385,42.292,23.05z"/>
	
		<linearGradient id="SVGID_47_" gradientUnits="userSpaceOnUse" x1="41.5741" y1="-964.1191" x2="41.5741" y2="-971.7156" gradientTransform="matrix(1 0 0 -1 0 -924.475)">
		<stop  offset="0" style="stop-color:#FFFFFB"/>
		<stop  offset="0.3041" style="stop-color:#FCFEFB"/>
		<stop  offset="0.4981" style="stop-color:#F4FBFA"/>
		<stop  offset="0.6614" style="stop-color:#E5F6FA"/>
		<stop  offset="0.8076" style="stop-color:#D0EEF9"/>
		<stop  offset="0.9412" style="stop-color:#B5E4F8"/>
		<stop  offset="1" style="stop-color:#A7DFF7"/>
	</linearGradient>
	<path fill="url(#SVGID_47_)" d="M38.94,43.681c0.343-0.051,0.28-1.387,0.474-1.779c0.358-0.723,1.844-2.258,1.944-2.258
		c0.1,0,1.006,0.702,1.296,1.026c0.321,0.359,0.805,1.32,1.146,1.642c0.212,0.2,0.805,0.254,0.947,0.547
		c0.11,0.228-0.118,0.875,0,1.095c0.213,0.396,1.076,0.302,1.371,0.582c0.267,0.253,0.761,0.961,0.798,1.403
		c0.012,0.141-0.089,0.435-0.174,0.513c-0.41,0.374-1.478,0.046-1.969,0.103c-0.958,0.111-2.852,0.666-3.813,0.684
		c-0.733,0.014-2.21-0.144-2.916-0.411c-0.47-0.178-1.543-0.536-1.77-1.129c-0.12-0.315,0.04-1.098,0.174-1.403
		c0.138-0.313,0.597-0.763,0.847-0.89c0.346-0.174,1.143-0.334,1.471-0.103C38.838,43.356,38.86,43.693,38.94,43.681z"/>
	
		<linearGradient id="SVGID_48_" gradientUnits="userSpaceOnUse" x1="39.452" y1="-948.2913" x2="39.452" y2="-949.1491" gradientTransform="matrix(1 0 0 -1 0 -924.475)">
		<stop  offset="0" style="stop-color:#FFFFFB"/>
		<stop  offset="0.3041" style="stop-color:#FCFEFB"/>
		<stop  offset="0.4981" style="stop-color:#F4FBFA"/>
		<stop  offset="0.6614" style="stop-color:#E5F6FA"/>
		<stop  offset="0.8076" style="stop-color:#D0EEF9"/>
		<stop  offset="0.9412" style="stop-color:#B5E4F8"/>
		<stop  offset="1" style="stop-color:#A7DFF7"/>
	</linearGradient>
	<path fill="url(#SVGID_48_)" d="M39.518,24.664c-0.094-0.019-0.302-0.092-0.349-0.205c-0.05-0.12-0.021-0.449,0.05-0.547
		c0.062-0.086,0.271-0.125,0.349-0.068c0.074,0.053,0.127,0.3,0.15,0.411c0.019,0.091,0.068,0.303,0.025,0.376
		C39.707,24.69,39.574,24.675,39.518,24.664z"/>
</g>
</svg>
