<?xml version="1.0" encoding="utf-8"?>
<!-- Generator: Adobe Illustrator 17.0.0, SVG Export Plug-In . SVG Version: 6.00 Build 0)  -->
<!DOCTYPE svg PUBLIC "-//W3C//DTD SVG 1.1//EN" "http://www.w3.org/Graphics/SVG/1.1/DTD/svg11.dtd">
<svg version="1.1" id="cropped" xmlns="http://www.w3.org/2000/svg" xmlns:xlink="http://www.w3.org/1999/xlink" x="0px" y="0px"
	 width="414px" height="896px" viewBox="0 0 414 896" enable-background="new 0 0 414 896" xml:space="preserve">
<linearGradient id="SVGID_1_" gradientUnits="userSpaceOnUse" x1="207" y1="1919.501" x2="207" y2="-151.5507">
	<stop  offset="0" style="stop-color:#FDE8ED"/>
	<stop  offset="0.2694" style="stop-color:#F5EFF3"/>
	<stop  offset="0.3128" style="stop-color:#EAEBF3"/>
	<stop  offset="0.381" style="stop-color:#E1E7F3"/>
	<stop  offset="0.4913" style="stop-color:#DFE7F3"/>
	<stop  offset="0.688" style="stop-color:#E9DADC"/>
	<stop  offset="0.6945" style="stop-color:#E8DBDE"/>
	<stop  offset="0.7488" style="stop-color:#E2E1EB"/>
	<stop  offset="0.802" style="stop-color:#E0E3F0"/>
	<stop  offset="0.9267" style="stop-color:#9DDCF9"/>
	<stop  offset="0.9617" style="stop-color:#8BD7F6"/>
	<stop  offset="1" style="stop-color:#19C3F0"/>
</linearGradient>
<rect fill="url(#SVGID_1_)" width="414" height="896"/>
<path opacity="0.3" fill="#FDFDFE" d="M413.182,623.484c-9.986,1.276-19.498,3.366-23.871,6.787
	c-7.621,5.961-14.995,35.679-14.995,35.679s-11.331-0.79-14.995,0c-5.825,1.256-21.718,9.825-21.718,9.825
	s-11.408-12.263-16.547-13.961c-15.741-5.203-50.933-2.358-66.187,4.137c-9.849,4.194-41.611,10.516-38.264,20.683
	c5.296,16.089,60.35,26.606,80.058,28.439c26.179,2.435,67.449,5.846,116.519,8.32V623.484z"/>
<path opacity="0.3" fill="#FDFDFE" d="M413.182,649.311c-1.954,0.131-3.058,0.35-3.058,0.35l1.551-6.593
	c0,0,0.556-0.221,1.507-0.577v-19.018c-10.014,1.276-19.564,3.367-23.949,6.797c-7.621,5.961-14.995,35.679-14.995,35.679
	s-11.253-0.79-14.918,0c-5.825,1.256-21.795,9.825-21.795,9.825s-11.408-12.263-16.547-13.961c0,0,6.289,7.895,8.093,10.729
	c2.002,3.147,3.49,13.573,3.49,13.573s14.35-5.342,18.227-6.109c4.947-0.979,20.166-0.412,20.166-0.412l-3.49,11.175l1.163,7.756
	l3.878-4.266c0,0,21.881-15.595,30.262-18.486c2.748-0.948,6.381-1.784,10.415-2.483V649.311z"/>
<linearGradient id="SVGID_2_" gradientUnits="userSpaceOnUse" x1="169.9753" y1="261.3962" x2="103.4805" y2="146.2238">
	<stop  offset="0" style="stop-color:#A1A4AB"/>
	<stop  offset="0.4199" style="stop-color:#FBC2B0"/>
	<stop  offset="0.4947" style="stop-color:#FDCD97"/>
	<stop  offset="0.5744" style="stop-color:#FFD77E"/>
	<stop  offset="0.6559" style="stop-color:#FFE063"/>
	<stop  offset="0.7384" style="stop-color:#FFE645"/>
	<stop  offset="0.8223" style="stop-color:#FFEB29"/>
	<stop  offset="0.9083" style="stop-color:#FFEF07"/>
	<stop  offset="1" style="stop-color:#FFF100"/>
</linearGradient>
<ellipse fill="url(#SVGID_2_)" cx="125.41" cy="184.208" rx="44.441" ry="43.655"/>
<linearGradient id="SVGID_3_" gradientUnits="userSpaceOnUse" x1="9723.6455" y1="184.6012" x2="9803.2061" y2="184.6012" gradientTransform="matrix(-1 0 0 1 9893.5527 0)">
	<stop  offset="0" style="stop-color:#ECF8FE"/>
	<stop  offset="1" style="stop-color:#FFF25D"/>
</linearGradient>
<path opacity="0.2" fill="url(#SVGID_3_)" d="M117.826,227.423c0,0,32.715,5.718,47.736-24.116
	c10.745-21.341-0.638-44.666-10.366-51.498c-7.001-4.917-7.58-7.234-21.359-10.469c0,0,14.267,28.061,3.853,50.046
	c-10.155,21.439-46.81,19.648-47.344,19.647C102.275,225.527,117.826,227.423,117.826,227.423z"/>
<linearGradient id="SVGID_4_" gradientUnits="userSpaceOnUse" x1="9723.7012" y1="187.3211" x2="9788.0225" y2="187.3211" gradientTransform="matrix(-1 0 0 1 9893.5527 0)">
	<stop  offset="0" style="stop-color:#ECF8FE"/>
	<stop  offset="1" style="stop-color:#FFF25D"/>
</linearGradient>
<path opacity="0.2" fill="url(#SVGID_4_)" d="M153.266,198.955c-15.021,29.834-47.736,24.116-47.736,24.116s4.84,4.538,20.521,4.714
	c21.612,0.243,43.653-19.108,43.8-42.758c-0.064-10.345-3.706-20.694-9.799-28.144c-5.636-6.849-8.674-7.886-11.658-10.009
	c-0.011-0.006-0.021-0.012-0.032-0.018C148.711,147.513,164.011,177.613,153.266,198.955z"/>
<path opacity="0.3" fill="#FDFDFE" d="M287.632,544.075c-1.805,0.503-5.1,5.492-5.1,5.492s-2.668-5.56-4.315-6.669
	c-3.479-2.341-12.402-4.13-16.476-3.138c-1.696,0.413-5.492,4.315-5.492,4.315s-13.125-11.301-18.437-13.337
	c-4.328-1.659-13.927-3.033-18.437-1.961c-5.108,1.214-14.795,6.972-17.652,11.376c-0.702,1.082-0.785,5.1-0.785,5.1
	s-12.908-16.276-18.829-19.614c-4.29-2.419-14.319-4.789-19.222-4.315c-4.371,0.423-16.083,7.061-16.083,7.061
	s-10.466-15.432-15.299-19.222c-5.352-4.197-17.94-11.998-24.713-11.376c-2.032,0.187-5.239,4.329-5.239,4.329
	s2.552-1.216,3.474-1.24c2.404-0.064,7.261,1.349,9.219,2.746c3.09,2.206,6.372,9.46,8.826,12.357
	c2.824,3.333,8.717,9.94,12.357,12.357c1.5,0.996,4.959,2.154,6.669,2.716c2.115,0.695,8.63,2.187,8.63,2.187
	s-5.4,0.865-6.276,1.275c-1.981,0.926-4.036,1.841-5.296,3.629c-0.678,0.962,0,4.707,0,4.707s4.098-1.019,5.492-0.981
	c2.995,0.082,8.926,1.535,11.666,2.746c2.856,1.262,10.301,7.061,10.301,7.061s0.043-2.1-0.196-2.746
	c-0.572-1.545-3.923-5.296-3.923-5.296s6.686,2.224,8.434,3.727c1.454,1.25,6.669,6.473,6.669,6.473s-0.633-4.851-1.373-6.276
	c-1.771-3.414-4.647-10.252-8.336-11.34c-2.452-0.723-5.59,0-5.59,0s3.24-2.279,4.511-2.39c3.491-0.305,10.171,2.814,13.337,4.315
	c4.006,1.9,11.373,6.932,14.907,9.611c1.827,1.385,6.865,6.08,6.865,6.08l1.961,3.138c0,0-0.486-6.674,0-8.826
	c0.251-1.112,1.057-3.425,1.961-4.119c2.571-1.973,9.512-2.513,12.749-2.354c2.294,0.113,6.732,1.608,8.826,2.55
	c2.593,1.166,6.997,4.961,9.611,6.08c1.859,0.796,5.825,1.901,7.846,1.961c2.394,0.071,9.415-1.765,9.415-1.765
	s0.321-2.534,0.981-2.942c0.59-0.365,2.746,0.392,2.746,0.392s0.996-0.792,1.373-0.981c1.012-0.507,3.186-1.297,4.315-1.373
	c2.534-0.169,7.828,0.455,10.003,1.765c1.437,0.866,3.338,3.812,4.119,5.296c0.527,1.002,1.373,4.315,1.373,4.315
	s2.501-1.291,3.138-1.961c0.695-0.732,1.329-2.744,1.961-3.53c0.697-0.866,2.413-2.321,3.334-2.942
	c1.091-0.736,3.449-1.97,4.707-2.354c1.466-0.447,4.555-0.933,6.08-0.785c2.006,0.195,5.867,1.609,7.649,2.55
	c1.362,0.719,4.073,2.43,4.903,3.727c0.732,1.142,1.177,5.296,1.177,5.296s4.245,1.399,5.688,1.765
	c2.126,0.539,8.607,1.708,8.607,1.708s4.683-2.323,5.123-3.866c0.447-1.568-1.009-5.159-2.354-6.08c-2.751-1.885-13.337,0-13.337,0
	s-8.457-5.362-11.61-6.372c-2.06-0.66-6.428-1.021-8.591-1.019C293.649,543.108,289.583,543.531,287.632,544.075z"/>
<radialGradient id="SVGID_5_" cx="45.2467" cy="317.3" r="1.2055" gradientUnits="userSpaceOnUse">
	<stop  offset="0.1174" style="stop-color:#DEDBC0"/>
	<stop  offset="1" style="stop-color:#FFFFFF;stop-opacity:0"/>
</radialGradient>
<path fill="url(#SVGID_5_)" d="M45.217,315.984c0,0-0.158,0.792-0.302,0.932c-0.185,0.179-0.752,0.347-0.752,0.347
	s0.587,0.193,0.77,0.401c0.154,0.175,0.353,0.952,0.353,0.952s0.176-0.79,0.326-0.973c0.151-0.184,0.717-0.445,0.717-0.445
	s-0.584-0.135-0.754-0.3C45.423,316.752,45.217,315.984,45.217,315.984z"/>
<radialGradient id="SVGID_6_" cx="13.9173" cy="293.9527" r="1.727" gradientUnits="userSpaceOnUse">
	<stop  offset="0.1174" style="stop-color:#DEDBC0"/>
	<stop  offset="1" style="stop-color:#FFFFFF;stop-opacity:0"/>
</radialGradient>
<path fill="url(#SVGID_6_)" d="M13.875,292.067c0,0-0.226,1.135-0.433,1.335c-0.265,0.256-1.077,0.497-1.077,0.497
	s0.841,0.276,1.104,0.575c0.221,0.251,0.506,1.364,0.506,1.364s0.252-1.132,0.468-1.394c0.217-0.263,1.027-0.637,1.027-0.637
	s-0.836-0.194-1.081-0.429C14.17,293.168,13.875,292.067,13.875,292.067z"/>
<radialGradient id="SVGID_7_" cx="4.3065" cy="361.1073" r="2.4649" gradientUnits="userSpaceOnUse">
	<stop  offset="0.1174" style="stop-color:#DEDBC0"/>
	<stop  offset="1" style="stop-color:#FFFFFF;stop-opacity:0"/>
</radialGradient>
<path fill="url(#SVGID_7_)" d="M4.246,358.416c0,0-0.322,1.619-0.619,1.905c-0.379,0.366-1.537,0.709-1.537,0.709
	s1.2,0.394,1.575,0.821c0.315,0.358,0.722,1.947,0.722,1.947s0.359-1.616,0.668-1.99c0.31-0.376,1.466-0.909,1.466-0.909
	s-1.193-0.277-1.543-0.613C4.667,359.987,4.246,358.416,4.246,358.416z"/>
<radialGradient id="SVGID_8_" cx="40.1809" cy="287.511" r="3.6788" gradientUnits="userSpaceOnUse">
	<stop  offset="0.1174" style="stop-color:#DEDBC0"/>
	<stop  offset="1" style="stop-color:#FFFFFF;stop-opacity:0"/>
</radialGradient>
<path fill="url(#SVGID_8_)" d="M40.091,283.494c0,0-0.481,2.417-0.923,2.844c-0.565,0.546-2.294,1.059-2.294,1.059
	s1.791,0.588,2.351,1.225c0.47,0.534,1.078,2.906,1.078,2.906s0.536-2.411,0.996-2.97c0.462-0.561,2.188-1.357,2.188-1.357
	s-1.781-0.414-2.302-0.914C40.719,285.839,40.091,283.494,40.091,283.494z"/>
<path opacity="0.3" fill="#FDFDFE" d="M329.213,550.498c-2.751-1.885-13.337,0-13.337,0s-9.094-5.854-12.553-6.669
	c-3.724-0.877-11.812-1.182-15.299,0.392c-1.708,0.771-5.1,5.492-5.1,5.492s-2.668-5.56-4.315-6.669
	c-3.479-2.341-12.402-4.13-16.476-3.138c-1.696,0.413-5.884,4.168-5.884,4.168s-12.733-11.154-18.045-13.191
	c-4.328-1.659-13.927-3.033-18.437-1.961c-5.108,1.213-14.795,6.972-17.652,11.376c-0.702,1.082-1.177,4.953-1.177,4.953
	s-12.516-16.129-18.437-19.467c-4.29-2.419-14.319-4.789-19.222-4.315c-4.371,0.423-16.083,7.061-16.083,7.061
	s-10.466-15.432-15.299-19.222c-5.352-4.197-17.94-11.998-24.714-11.376c-2.032,0.187-6.669,4.707-6.669,4.707
	s-4.018-13.186-7.061-16.476c-1.579-1.707-5.925-4.078-8.238-4.315c-2.841-0.291-10.984,3.138-10.984,3.138
	s-4.845-9.44-7.846-10.984c-2.616-1.346-11.768,0-11.768,0s-4.031-11.849-7.061-14.514c-1.321-1.162-4.91-2.266-6.669-2.245
	c-3.652,0.044-11.37,2.204-13.73,4.991c-1.74,2.055-2.795,8.031-1.961,10.591c0.498,1.529,3.923,5.1,3.923,5.1
	s-7.047-4.963-9.807-5.1c-2.11-0.105-6.78,1.314-7.846,3.138c-1.498,2.563,1.569,11.768,1.569,11.768l1.177,4.315l-8.238-1.177
	c0,0-2.747-0.945-5.977-1.859v39.845c1.666,1.069,3.184,2.02,4.407,2.81c6.116,3.951,26.283,12.553,26.283,12.553
	s-4.697,2.375-6.276,3.138c-1.462,0.706-5.128,1.309-5.884,2.746c-1.111,2.111,5.1,15.299,1.569,9.415
	c-1.791-2.985-11.464-2.462-13.926,0c-1.387,1.387-1.187,6.284,0,7.846c5.758,7.578,27.248,8.912,36.678,10.199
	c11.563,1.578,29.029,0,40.405-1.177c1.171-0.121,7.021-2.619,6.276-3.531c-2.785-3.412-13.82-0.781-17.26-3.531
	c-1.513-1.209-3.187-7.061-3.187-7.061s3.734-2.418,5.148-2.354c4.951,0.227,12.961,7.425,17.652,9.022
	c8.121,2.765,25.18,5.653,33.736,6.276c17.815,1.298,71.394-2.746,71.394-2.746s-1.935,4.208-3.138,5.1
	c-3.421,2.535-12.855,2.075-16.476,4.315c-2.66,1.645-6.237,7.011-8.238,9.415c-1.921,2.307-8.761,6.712-7.453,9.415
	c0.811,1.677,5.59,0,7.453,0c25.755,0,79.015,9.332,103.021,0c2.03-0.789,6.791-3.737,6.425-5.884
	c-0.293-1.722-6.425-2.746-6.425-2.746s-16.201,0.117-20.665-2.561c-1.164-0.699-3.126-4.441-3.126-4.441l25.901,4.649
	c0,0,18.884-0.298,25.106-1.177c2.096-0.296,7.954,0.136,8.238-1.961c0.3-2.218-5.932-3.154-7.846-4.315
	c-1.814-1.101-5.03-4.093-7.061-4.707c-3.754-1.137-12.143,1.672-15.691,0c-1.725-0.813-3.102-5.134-4.856-5.884
	c-3.762-1.61-12.283,0.55-16.327,1.177c-2.492,0.386-9.807,2.354-9.807,2.354s7.409-11.475,11.376-13.337
	c6.748-3.167,22.373,0.067,29.813-0.392c11.128-0.687,38.541,4.627,44.327-4.904C332.413,555.185,330.558,551.419,329.213,550.498z"
	/>
<path opacity="0.9" fill="#F4EFED" d="M414,408.64c-2.14-0.291-4.915-0.448-6.531-0.608c-6.734-0.667-27.067,0-27.067,0
	s-0.419-5.638,0-7.453c1.633-7.071,7.846-16.083,0-29.029c-8.868-14.633-24.714-10.984-24.714-10.984s1.177-22.556-16.083-30.205
	c-18.766-8.317-33.344,0.392-33.344,0.392s0.058-2.546-1.765-9.415c-0.868-3.268-4.328-10.854-16.672-7.349
	c-6.473,1.838-6.669,10.879-6.669,10.879s-14.167-9.187-19.614-9.807c-2.907-0.331-9.566,0.447-11.376,2.746
	c-1.092,1.387,0,7.061,0,7.061s-13.926,0-23.537,5.492c-8.491,4.852-15.145,8.005-25.106,29.421
	c-3.923,8.434-2.354,20.791-2.354,20.791s-7.298,3.534-8.238,5.884c-0.964,2.411,1.961,10.199,1.961,10.199h-1.961
	c0,0-8.795-1.851-11.768-1.765c-3.105,0.09-12.161,2.55-12.161,2.55l-1.395-4.106c0,0-2.724-4.132-9.197-4.132
	c-13.742,0-25.556,9.746-25.89,11.376c-0.319,1.552,0.981,5.092,2.354,5.884c2.974,1.716,10.296,0.34,13.73,0.392
	c1.29,0.019,5.1,0.785,5.1,0.785s5.165,9.143,7.453,11.768c4.893,5.613,16.141,13.818,23.275,15.953
	c12.695,3.799,119.517,6.701,159.265,7.584c7.451,0.166,21.899,0.182,28.898,2.746c1.568,0.574,5.1,4.315,5.1,4.315
	s-15.278,3.341-20.398,4.315c-6.351,1.209-23.309-1.768-25.498,4.315c-0.483,1.341,2.431,3.722,3.727,4.315
	c17.699,8.101,59.284-6.674,80.475-1.694V408.64z"/>
<path opacity="0.9" fill="#E1DBE1" d="M414,407.905c-2.147-0.292-4.929-0.551-6.55-0.711c-6.734-0.667-27.067,0-27.067,0
	s-0.419-5.638,0-7.453c1.633-7.071,7.846-16.083,0-29.029c-8.868-14.633-24.713-10.984-24.713-10.984s1.177-22.556-16.083-30.205
	c-18.766-8.317-33.344,0.392-33.344,0.392s0.058-2.546-1.765-9.415c-0.868-3.268-4.328-10.854-16.672-7.349
	c-6.473,1.838-6.669,10.879-6.669,10.879s-14.167-9.187-19.614-9.807c-2.907-0.331-9.566,0.447-11.376,2.746
	c0,0,7.964-0.096,10.479,0.654c3.171,0.945,8.73,4.739,11.507,6.538c2.042,1.322,12.291,9.415,12.291,9.415
	s-2.556-8.193,4.707-13.076c1.632-1.097,3.35,0.669,4.707,2.092c2.669,2.798,4.41,10.819,4.969,14.645
	c0.255,1.748-0.261,7.061-0.261,7.061s4.573-5.495,6.538-6.799c2.276-1.511,7.478-4.16,10.199-3.923
	c5.313,0.463,14.893,6.871,18.289,10.984c3.767,4.563,7.179,16.388,8.125,22.229c0.355,2.195,1.089,7.124-0.262,8.892
	c-0.954,1.249-6.015,1.831-6.015,1.831s-1.172-4.111-1.848-5.23c-1.497-2.478-4.203-7.376-6.259-9.415
	c-2.867-2.842-10.679-6.045-14.645-6.799c-3.281-0.624-10.338-0.684-13.337,0.785c-0.624,0.306-1.831,2.092-1.831,2.092
	s4.69,2.502,6.015,3.661c3.288,2.879,9.27,9.579,10.984,13.599c1.628,3.82,1.96,12.326,2.092,16.476
	c0.034,1.048-0.262,4.184-0.262,4.184s4.826-2.578,6.015-3.923c2.266-2.563,2.822-11.064,6.015-12.291
	c1.311-0.504,4.14,1.186,5.213,2.092c2.872,2.424,6.597,9.276,7.863,12.814c0.645,1.802,0.979,5.671,1.046,7.584
	c0.035,0.982-0.262,3.923-0.262,3.923s2.28-1.432,2.877-2.092c1.218-1.348,3.026-8.816,3.661-9.153
	c2.786-1.481,8.12,4.945,10.461,7.061c1.894,1.712,4.467,6.353,6.538,7.846c2.62,1.888,8.81,4.952,12.03,4.707
	c1.431-0.109,3.572-2.546,4.969-2.877c7.394-1.749,23.012-0.191,30.336,1.831c0.029,0.008,0.879,0.044,0.908,0.052V407.905z"/>
<linearGradient id="SVGID_9_" gradientUnits="userSpaceOnUse" x1="207" y1="1802.213" x2="207" y2="417.0697">
	<stop  offset="0.5134" style="stop-color:#43BEAD"/>
	<stop  offset="0.7009" style="stop-color:#53C2B8"/>
	<stop  offset="0.7869" style="stop-color:#5BC4BF"/>
	<stop  offset="0.9152" style="stop-color:#9BD9E2"/>
	<stop  offset="0.9842" style="stop-color:#D4ECE4"/>
</linearGradient>
<path fill="url(#SVGID_9_)" d="M401.062,487.415c-2.157-0.73-6.87,0.416-9.109,0c-3.118-0.579-8.968-3.212-11.842-4.554
	c-4.248-1.985-11.929-7.683-16.396-9.109c-1.965-0.627-6.26-0.205-8.198-0.911c-3.086-1.124-8.266-5.367-10.931-7.287
	c-4.213-3.036-12.112-9.817-16.396-12.752c-2.191-1.501-6.55-4.756-9.109-5.465c-1.975-0.547-6.171,0.305-8.198,0
	c-3.063-0.461-10.001-1.152-11.842-3.644c-1.548-2.095,1.842-8.578,0-10.42c-1.127-1.127-4.796,0.209-6.376,0
	c-2.572-0.341-9.868,4.107-9.868,4.107s-1.211-17.259-3.795-19.192c-1.823-1.364-7.499-1.61-9.109,0
	c-1.449,1.449,0.99,6.404,0,8.198c-1.561,2.828-8.584,4.668-10.931,6.887c-1.713,1.62-3.834,5.985-5.465,7.687
	c-1.796,1.875-6.252,4.658-8.198,6.376c-2.656,2.344-7.247,7.814-10.02,10.02c-1.681,1.337-5.356,3.613-7.287,4.554
	c-2.396,1.168-7.395,3.181-10.02,3.644c-3.588,0.632-11.028-0.837-14.574,0c-3.717,0.877-11.656,3.583-13.663,6.832
	c-0.658,1.065,0.784,4.033,0,5.01c-1.145,1.428-6.884,4.03-8.37,6.065c0.194-2.913,0.355-6.703,0.172-6.976
	c-1.509-2.247-7.383-4.711-10.02-4.099c-1.336,0.31-2.393,3.537-3.644,4.099c-3.739,1.679-12.325-0.478-16.396,0
	c-4.882,0.573-14.274,3.779-19.129,4.554c-2.708,0.433-8.191,0.797-10.931,0.911c-2.048,0.085-6.226,0.56-8.198,0
	c-4.377-1.243-12.371-6.247-15.485-9.564c-1.325-1.411-2.332-5.408-3.644-6.832c-2.569-2.787-9.116-7.13-12.752-8.198
	c-2.84-0.834-9.748-2.093-11.842,0c-1.449,1.449,0.878,6.346,0,8.198c-1.386,2.925-7.168,6.667-10.02,8.198
	c-16.346,8.774-39.8,13.797-59.479,16.64v405.44L414,896V497.196C409.989,494.047,404.629,488.622,401.062,487.415z"/>
<linearGradient id="SVGID_10_" gradientUnits="userSpaceOnUse" x1="9668.2285" y1="201.9664" x2="9740.4658" y2="201.9664" gradientTransform="matrix(-1 0 0 1 9893.5527 0)">
	<stop  offset="0" style="stop-color:#ECF8FE"/>
	<stop  offset="1" style="stop-color:#FFF25D"/>
</linearGradient>
<path opacity="0.2" fill="url(#SVGID_10_)" d="M201.144,201.947c0,0,0.005,0.009,0.009,0.018c0.012,0.007,0.024,0.014,0.036,0.021
	C201.174,201.973,201.158,201.96,201.144,201.947z"/>
<radialGradient id="SVGID_11_" cx="67.0269" cy="34.5798" r="2.0463" gradientUnits="userSpaceOnUse">
	<stop  offset="0.1174" style="stop-color:#DEDBC0"/>
	<stop  offset="1" style="stop-color:#FFFFFF;stop-opacity:0"/>
</radialGradient>
<path fill="url(#SVGID_11_)" d="M66.977,32.346c0,0-0.268,1.344-0.513,1.582c-0.315,0.304-1.276,0.589-1.276,0.589
	s0.996,0.327,1.308,0.681c0.261,0.297,0.599,1.617,0.599,1.617s0.298-1.341,0.554-1.652c0.257-0.312,1.217-0.755,1.217-0.755
	s-0.991-0.23-1.281-0.509C67.326,33.65,66.977,32.346,66.977,32.346z"/>
<radialGradient id="SVGID_12_" cx="73.8002" cy="44.1899" r="2.0463" gradientUnits="userSpaceOnUse">
	<stop  offset="0.1174" style="stop-color:#DEDBC0"/>
	<stop  offset="1" style="stop-color:#FFFFFF;stop-opacity:0"/>
</radialGradient>
<path fill="url(#SVGID_12_)" d="M73.75,41.956c0,0-0.268,1.344-0.513,1.582c-0.315,0.304-1.276,0.589-1.276,0.589
	s0.996,0.327,1.308,0.681c0.261,0.297,0.599,1.617,0.599,1.617s0.298-1.341,0.554-1.652c0.257-0.312,1.217-0.755,1.217-0.755
	s-0.991-0.23-1.281-0.509C74.1,43.26,73.75,41.956,73.75,41.956z"/>
<radialGradient id="SVGID_13_" cx="295.5482" cy="170.0591" r="1.1379" gradientUnits="userSpaceOnUse">
	<stop  offset="0.1174" style="stop-color:#DEDBC0"/>
	<stop  offset="1" style="stop-color:#FFFFFF;stop-opacity:0"/>
</radialGradient>
<path fill="url(#SVGID_13_)" d="M295.52,168.817c0,0-0.149,0.748-0.286,0.88c-0.175,0.169-0.709,0.327-0.709,0.327
	s0.554,0.182,0.727,0.379c0.145,0.165,0.333,0.899,0.333,0.899s0.166-0.746,0.308-0.919c0.143-0.173,0.677-0.42,0.677-0.42
	s-0.551-0.128-0.712-0.283C295.715,169.542,295.52,168.817,295.52,168.817z"/>
<radialGradient id="SVGID_14_" cx="299.3147" cy="175.4031" r="1.1379" gradientUnits="userSpaceOnUse">
	<stop  offset="0.1174" style="stop-color:#DEDBC0"/>
	<stop  offset="1" style="stop-color:#FFFFFF;stop-opacity:0"/>
</radialGradient>
<path fill="url(#SVGID_14_)" d="M299.287,174.161c0,0-0.149,0.748-0.286,0.88c-0.175,0.169-0.709,0.327-0.709,0.327
	s0.554,0.182,0.727,0.379c0.145,0.165,0.333,0.899,0.333,0.899s0.166-0.746,0.308-0.919c0.143-0.173,0.677-0.42,0.677-0.42
	s-0.551-0.128-0.712-0.283C299.481,174.886,299.287,174.161,299.287,174.161z"/>
<radialGradient id="SVGID_15_" cx="40.6737" cy="56.4133" r="2.6172" gradientUnits="userSpaceOnUse">
	<stop  offset="0.1174" style="stop-color:#DEDBC0"/>
	<stop  offset="1" style="stop-color:#FFFFFF;stop-opacity:0"/>
</radialGradient>
<path fill="url(#SVGID_15_)" d="M40.61,53.556c0,0-0.342,1.719-0.657,2.023c-0.402,0.388-1.632,0.753-1.632,0.753
	s1.274,0.418,1.673,0.871c0.334,0.38,0.767,2.068,0.767,2.068s0.382-1.716,0.709-2.113c0.329-0.399,1.556-0.966,1.556-0.966
	s-1.267-0.294-1.638-0.651C41.057,55.224,40.61,53.556,40.61,53.556z"/>
<radialGradient id="SVGID_16_" cx="35.942" cy="132.0862" r="1.3498" gradientUnits="userSpaceOnUse">
	<stop  offset="0.1174" style="stop-color:#DEDBC0"/>
	<stop  offset="1" style="stop-color:#FFFFFF;stop-opacity:0"/>
</radialGradient>
<path fill="url(#SVGID_16_)" d="M35.909,130.612c0,0-0.176,0.887-0.339,1.043c-0.207,0.2-0.841,0.388-0.841,0.388
	s0.657,0.216,0.863,0.449c0.172,0.196,0.395,1.066,0.395,1.066s0.197-0.885,0.366-1.09c0.17-0.206,0.803-0.498,0.803-0.498
	s-0.653-0.152-0.845-0.335C36.14,131.473,35.909,130.612,35.909,130.612z"/>
<path opacity="0.3" fill="#FDFDFE" d="M414,208.499c-15.073,4.302-13.506,11.172-13.506,11.172s-7.584-2.257-10.199-2.354
	c-3.867-0.143-12.779-0.583-15.299,2.354c-0.894,1.042,0,5.492,0,5.492s-15.559-4.494-20.398-2.746
	c-3.133,1.132-8.97,6.476-9.022,9.807c-0.045,2.85,4.861,7.444,7.453,8.63c5.529,2.53,18.435-1.525,24.321,0
	c1.955,0.507,11.376,2.746,11.376,2.746s-5.707,6.508-4.707,7.846c2.592,3.468,12.546,3.673,16.868,3.923
	c3.029,0.175,8.183-0.081,13.114-0.5V208.499z"/>
<path opacity="0.9" fill="#F4EFED" d="M414,126.139c-1.967-1.195-5.171-2.156-8.016-2.521c-9.756-1.252-20.054,1.607-20.166,6.419
	c-0.082,3.504-10.844-8.885-10.844-8.885s3.096-2.211,3.329-3.373c0.672-3.348-2.783-10.163-5.101-12.671
	c-3.547-3.837-13.492-9.166-18.716-9.305c-5.07-0.135-14.955,4.549-18.622,8.053c-18.487,17.664-11.933,34.877-11.933,34.877
	s-4.687,1.891-14.563,6.965c-5.408,2.779-5.089,7.714-5.089,7.714s-13.833,0.071-15.849,3.599c-0.372,0.651,0.292,2.779,0.292,2.779
	s7.331,2.204,9.63,2.653c7.51,1.467,22.779,3.303,30.431,3.281c17.426-0.051,52.057-5.082,69.258-7.875
	c3.859-0.627,10.225-1.569,15.958-2.69V126.139z"/>
<path opacity="0.9" fill="#E1DBE1" d="M289.343,159.867c-0.439-0.048-0.883,0.674-0.913-2.856
	c-0.026-3.035,15.849-3.599,15.849-3.599s-0.319-4.935,5.089-7.714c9.876-5.074,14.563-6.965,14.563-6.965
	s-6.553-17.213,11.933-34.877c3.667-3.504,13.552-8.188,18.622-8.053c5.224,0.139,15.169,5.468,18.716,9.305
	c0,0-3.378-1.643-4.549-2.083c-1.784-0.67-5.402-2.238-7.307-2.176c-8.412,0.276-11.534,4.377-12.62,5.819
	c-6.943,9.218-11.732,36.492-11.732,36.492s-6.466-0.202-13.778,4.825c-5.136,3.531-9.666,9.807-9.666,9.807
	s-16.073-2.323-19.164-1.847c-3.8,0.586-4.161,1.101-4.634,1.587C289.338,157.957,289.343,159.867,289.343,159.867z"/>
<path opacity="0.15" fill="#FDFDFE" d="M414,214.695v-6.412c-15.07,3.107-13.506,11.388-13.506,11.388s-7.584-2.257-10.199-2.354
	c-3.867-0.143-12.779-0.583-15.299,2.354c-0.894,1.042,0,5.492,0,5.492s-15.559-4.494-20.398-2.746
	c-3.133,1.132-8.97,6.476-9.022,9.807c-0.045,2.85,4.861,7.444,7.453,8.63c0,0-3.39-3.788-3.53-5.394
	c-0.098-1.116,0.905-3.402,1.765-4.119c2.125-1.77,4.707-3.236,9.611-3.825c8.216-0.986,17.26,1.079,17.26,1.079
	s-1.166-3.722-0.49-4.119c3.957-2.329,13.646,1.918,18.143,2.844c2.033,0.419,8.042,2.059,8.042,2.059s-1.1-4.684-1.079-6.276
	c0.02-1.5,1.255-5.059,2.354-6.08C406.559,215.67,409.898,215.086,414,214.695z"/>
<path opacity="0.9" fill="#F4EFED" d="M197.924,192.801c-5.056-5.705-14.622-10.724-28.803-10.007
	c-11.894,0.601-35.138,23.737-35.138,23.737l-3.923,3.531c0,0-4.012-5.217-5.884-6.276c-7.683-4.35-18.601-8.089-34.52-7.453
	c-19.65,0.784-35.305,13.73-35.305,13.73s-8.548-1.132-16.868,4.315c-10.984,7.192-12.945,16.476-12.945,16.476
	s-12.402,4.303-14.514,7.846c-1.055,1.769-1.064,6.475,0,8.238c2.177,3.605,10.75,7.171,14.907,7.846c16.166,2.622,65.51,0,65.51,0
	s-3.641,3.24-3.531,4.707c1.315,17.394,35.332,21.884,46.289,23.929c16.774,3.131,68.256,0,68.256,0s-2.153,6.344,18.829,9.807
	c30.885,5.098,125.137-4.315,125.137-4.315s17.188-3.039,17.652-7.846c0.115-1.192-2.812-2.299-3.923-2.746
	c-2.946-1.187-12.553-1.961-12.553-1.961s-6.332-8.846-9.415-10.591c-4.602-2.607-15.518-4.336-20.791-3.923
	c-1.453,0.114-5.492,1.961-5.492,1.961s2.328-4.674,1.961-6.276c-0.96-4.193-7.916-10.638-11.768-12.553
	c-3.356-1.668-11.169-1.831-14.907-1.569c-1.21,0.085-4.707,1.177-4.707,1.177s1.654-7.366,0-8.826
	c-5.034-4.446-16.161-7.325-21.968-7.649c-2.209-0.123-8.63,1.961-8.63,1.961s-6.603-7.388-10.984-9.807c-1.741-0.961-5.1,0-5.1,0
	s3.635-6.389,3.138-8.63c-0.481-2.166-4.226-5.427-6.276-6.276c-4.802-1.989-20.791,0-20.791,0h-5.884
	C204.985,205.353,200.312,195.495,197.924,192.801z"/>
<path opacity="0.9" fill="#E2E0E2" d="M359.228,278.349c-2.946-1.187-12.553-1.961-12.553-1.961s-6.332-8.846-9.415-10.591
	c-4.602-2.607-15.696-4.362-20.969-3.949c-1.453,0.114-5.27,1.893-5.27,1.893s2.285-4.579,1.918-6.182
	c-0.96-4.193-7.916-10.638-11.768-12.553c-3.356-1.668-11.169-1.831-14.907-1.569c-1.21,0.085-4.651,1.086-4.651,1.086
	s1.598-7.275-0.056-8.736c-5.034-4.446-16.161-7.325-21.968-7.649c-2.209-0.123-8.666,1.9-8.666,1.9s-6.568-7.326-10.948-9.745
	c-1.741-0.961-5.022-0.096-5.022-0.096s3.482-6.29,2.984-8.531c0,0-3.343,5.896-5.139,7.177c-1.478,1.054-4.819,1.438-7.121,1.419
	c-3.45-0.029-9.153,2.291-12.193,3.923c-1.426,0.766-3.926,3.174-4.446,4.707c-0.231,0.681-1.153,6.486-0.602,6.949
	c0,0,1.698-2.882,6.617-5.118c4.342-1.973,8.345-1.37,10.66-0.942c2.854,0.527,7.031,3.564,9.477,5.126
	c2.846,1.819,7.969,6.409,9.938,9.153c1.501,2.093,3.118,5.33,4.577,7.453c0.366,0.534,1.438,3.792,1.438,3.792
	s2.124-2.038,2.615-2.877c1.358-2.319-1.569-12.161,6.276-14.518c2.509-0.754,9.577,1.786,11.638,3.403
	c2.948,2.314,7.182,7.343,8.892,10.678c1.765,3.444,4.577,10.636,4.577,10.636s1.138-1.793,1.569-2.354
	c0.904-1.175,3.88-2.481,5.361-2.55c7.616-0.354,11.792,6.343,12.684,8.826c0.447,1.245-0.785,5.23-0.785,5.23
	s2.516-0.948,3.4-1.046c2.542-0.283,7.776-0.034,10.199,0.785c3.986,1.347,9.921,8.919,14.122,9.153
	c1.022,0.057,3.627,1.674,4.446,2.354c2.616,2.171,10.22,0.371,13.599,0c1.798-0.197,6.98,0.237,7.061-1.569
	c0.067-1.508-4.408-1.146-5.753-1.831l-2.025-1.487c0,0,2.656-0.51,3.554-0.527C354.246,277.58,359.228,278.349,359.228,278.349z"/>
<path opacity="0.3" fill="#FDFDFE" d="M231.598,224.24c-7.065-5.337-25.65-6.733-33.788-10.222
	c-3.004-1.288-8.104-5.52-10.789-7.382c-5.276-3.658-14.972-12.588-21.011-14.765c-24.418-8.802-36.911,0-36.911,0
	s-23.876-17.365-32.936-21.011c-10.745-4.324-33.904-7.945-45.43-9.086c-9.748-0.965-39.183,0-39.183,0s-0.607-8.161,0-10.789
	c2.364-10.236,11.357-23.283,0-42.022C8.193,103.425,4.146,99.709,0,97.221V218.05c2.268,1.874,4.735,4.486,4.735,4.486
	S2.579,222.283,0,222.478v19.719c15.376,7.999,44.319-12.484,66.632-0.921c2.764,1.433,5.616,7.958,8.518,9.086
	c22.561,8.768,96.538-7.382,96.538-7.382s26.088,1.364,34.64,0c8.113-1.294,27.914-2.706,31.233-10.222
	C238.819,229.91,234.083,226.117,231.598,224.24z"/>
<radialGradient id="SVGID_17_" cx="161.7979" cy="95.012" r="2.0463" gradientUnits="userSpaceOnUse">
	<stop  offset="0.1174" style="stop-color:#DEDBC0"/>
	<stop  offset="1" style="stop-color:#FFFFFF;stop-opacity:0"/>
</radialGradient>
<path fill="url(#SVGID_17_)" d="M161.748,92.778c0,0-0.268,1.344-0.513,1.582c-0.315,0.304-1.276,0.589-1.276,0.589
	s0.996,0.327,1.308,0.681c0.261,0.297,0.599,1.617,0.599,1.617s0.298-1.341,0.554-1.652c0.257-0.312,1.217-0.755,1.217-0.755
	s-0.991-0.23-1.281-0.509C162.097,94.082,161.748,92.778,161.748,92.778z"/>
<radialGradient id="SVGID_18_" cx="168.0059" cy="108.3531" r="2.0463" gradientUnits="userSpaceOnUse">
	<stop  offset="0.1174" style="stop-color:#DEDBC0"/>
	<stop  offset="1" style="stop-color:#FFFFFF;stop-opacity:0"/>
</radialGradient>
<path fill="url(#SVGID_18_)" d="M167.956,106.119c0,0-0.268,1.344-0.513,1.582c-0.315,0.304-1.276,0.589-1.276,0.589
	s0.996,0.327,1.308,0.681c0.261,0.297,0.599,1.617,0.599,1.617s0.298-1.341,0.554-1.652c0.257-0.312,1.217-0.755,1.217-0.755
	s-0.991-0.23-1.281-0.509C168.305,107.423,167.956,106.119,167.956,106.119z"/>
<radialGradient id="SVGID_19_" cx="327.5029" cy="5.2403" r="1.1379" gradientUnits="userSpaceOnUse">
	<stop  offset="0.1174" style="stop-color:#DEDBC0"/>
	<stop  offset="1" style="stop-color:#FFFFFF;stop-opacity:0"/>
</radialGradient>
<path fill="url(#SVGID_19_)" d="M327.475,3.998c0,0-0.149,0.748-0.286,0.88c-0.175,0.169-0.709,0.328-0.709,0.328
	s0.554,0.182,0.727,0.379c0.145,0.165,0.333,0.899,0.333,0.899s0.166-0.746,0.308-0.919c0.143-0.173,0.677-0.42,0.677-0.42
	s-0.551-0.128-0.712-0.283C327.669,4.723,327.475,3.998,327.475,3.998z"/>
<g>
	<linearGradient id="SVGID_20_" gradientUnits="userSpaceOnUse" x1="206.5912" y1="1755.7783" x2="206.5912" y2="193.623">
		<stop  offset="0.5134" style="stop-color:#43BEAD"/>
		<stop  offset="0.651" style="stop-color:#53C2B8"/>
		<stop  offset="0.714" style="stop-color:#5BC4BF"/>
		<stop  offset="0.9881" style="stop-color:#9BD9E2"/>
	</linearGradient>
	<path fill="url(#SVGID_20_)" d="M305.915,578.135c-25.456-20.289-45.377-59.253-76.424-80.307c-2.007-1.361-4.119-0.14-6.5-2.053
		c-1.073-0.862-8.647,2.637-8.723,2.721c-7.364,8.153-16.007,22.232-18.548,19.142c-7.438-9.046-0.062-57.215-4.378-64.04
		c-5.094-8.054-11.655-26.224-16.98-34.127c-5.569-8.265-18.457-23.858-26.413-29.861c-10.851-8.187-39.706-13.591-49.052-23.462
		c-5.949-6.284-9.661-24.1-13.206-31.994c-4.859-10.819-14.868-32.362-20.753-42.659c-3.81-6.667-10.134-22.117-16.98-25.595
		C32.97,258.283,14.008,263.031,0,267.041v628.79h413.182V625.373C377.865,620.5,334.689,601.068,305.915,578.135z"/>
	<linearGradient id="SVGID_21_" gradientUnits="userSpaceOnUse" x1="-4.9125" y1="577.1259" x2="112.4312" y2="373.8806">
		<stop  offset="0" style="stop-color:#5BC4BF"/>
		<stop  offset="0.2522" style="stop-color:#61C6C1"/>
		<stop  offset="0.5161" style="stop-color:#6FCAC8"/>
		<stop  offset="0.7843" style="stop-color:#86D1D5"/>
		<stop  offset="0.9881" style="stop-color:#9BD9E2"/>
	</linearGradient>
	<path fill="url(#SVGID_21_)" d="M95.123,375.802c0,0-22.887-2.111-25.622-3.382c-3.445-1.601-17.353,26.948-20.709,35.986
		c-7.097,19.11-12.012,80.651-12.012,80.651l-6.864,61.775c0,0-4.089,39.277-3.8,43.527c0.266,3.909,8.398-3.988,11.275-10.886
		c9.119-21.869,21.928-68.487,24.732-72.852c3.904-6.076,20.988-19.849,20.988-19.849l20.592-82.367l-5.148-15.444l17.099-17.22
		l-8.427-3.788L95.123,375.802z"/>
	<linearGradient id="SVGID_22_" gradientUnits="userSpaceOnUse" x1="210.4873" y1="604.8" x2="210.4873" y2="494.1888">
		<stop  offset="0" style="stop-color:#51C2B7"/>
		<stop  offset="0.6219" style="stop-color:#5BC4BF"/>
		<stop  offset="0.9881" style="stop-color:#9BD9E2"/>
	</linearGradient>
	<path fill="url(#SVGID_22_)" d="M211.44,500.501c0,0,7.925-7.092,8.897-6.241c0.88,0.771,2.647,1.409,2.647,1.409l-4.01,16.702
		l6.663,30.389l-18.756,17.314l-7.214,44.727l-4.328-41.841v-44.727c0,0,5.605-4.394,7.402-6.255
		C205.183,509.447,211.44,500.501,211.44,500.501z"/>
</g>
<linearGradient id="SVGID_23_" gradientUnits="userSpaceOnUse" x1="207" y1="1763.7454" x2="207" y2="578.2101">
	<stop  offset="0.8659" style="stop-color:#00A89A"/>
	<stop  offset="0.9278" style="stop-color:#2FB2A7"/>
	<stop  offset="1" style="stop-color:#5BC4BF"/>
</linearGradient>
<path fill="url(#SVGID_23_)" d="M374.8,617.153c-41.411,6.694-125.228,14.841-167.218,15.276
	c-14.014,0.145-42.729,0.634-55.91-3.942c-2.075-0.72-5.162-4.073-7.181-4.928c-7.319-3.099-23.49-4.705-31.289-6.406
	c-10.677-2.328-31.973-7.229-42.574-9.855c-5.151-1.276-15.28-6.315-20.518-5.42c-3.258,0.556-7.664,6.298-10.772,7.392
	c-9.067,3.191-27.632,2.534-39.338,3.133v283.43L414,896V608.885C399.696,612.264,384.477,615.588,374.8,617.153z"/>
<g>
	<g opacity="0.2">
		
			<linearGradient id="SVGID_24_" gradientUnits="userSpaceOnUse" x1="-1323.9474" y1="1887.9771" x2="-1191.0869" y2="1887.9771" gradientTransform="matrix(0.9551 -0.2963 0.2963 0.9551 807.0559 -1512.8158)">
			<stop  offset="0.615" style="stop-color:#007C74"/>
			<stop  offset="0.6952" style="stop-color:#00867F"/>
			<stop  offset="0.8519" style="stop-color:#34A39C"/>
			<stop  offset="1" style="stop-color:#5BC4BF"/>
		</linearGradient>
		<path fill="url(#SVGID_24_)" d="M128.648,589.402c6.851,63.292-0.441,129.468,4.14,192.713c8.066-5.51,5.61-40.089,5.375-50.543
			c0.546-15.208-0.493-30.676-1.532-46.144c-1.63-19.797-5.482-41.911,7.788-57.307c18.9-23.909,41.065-51.839,51.452-81.379
			c0.473-0.899,1.632-2.01,2.105-2.909c-24.601,24.926-34.587,67.876-62.261,87.74c-4.043-13.032,1.825-32.899-8.178-43.331"/>
	</g>
	<g>
		
			<linearGradient id="SVGID_25_" gradientUnits="userSpaceOnUse" x1="-1324.0038" y1="1884.1272" x2="-1191.1433" y2="1884.1272" gradientTransform="matrix(0.9551 -0.2963 0.2963 0.9551 807.0559 -1512.8158)">
			<stop  offset="0.8659" style="stop-color:#00A89A"/>
			<stop  offset="0.9278" style="stop-color:#2FB2A7"/>
			<stop  offset="1" style="stop-color:#5BC4BF"/>
		</linearGradient>
		<path fill="url(#SVGID_25_)" d="M127.454,585.741c6.851,63.292-0.441,129.468,4.14,192.713c8.066-5.51,5.61-40.089,5.375-50.543
			c0.546-15.208-0.493-30.676-1.532-46.144c-1.63-19.796-5.482-41.911,7.788-57.307c18.9-23.909,41.065-51.839,51.452-81.379
			c0.473-0.899,1.632-2.01,2.105-2.909c-24.601,24.926-34.587,67.876-62.261,87.74c-4.043-13.032,1.825-32.899-8.178-43.331"/>
	</g>
	<g opacity="0.2">
		
			<linearGradient id="SVGID_26_" gradientUnits="userSpaceOnUse" x1="-1229.8367" y1="1785.2426" x2="-1255.3376" y2="1867.4471" gradientTransform="matrix(0.9551 -0.2963 0.2963 0.9551 807.0559 -1512.8158)">
			<stop  offset="0.615" style="stop-color:#007C74"/>
			<stop  offset="0.6952" style="stop-color:#00867F"/>
			<stop  offset="0.8519" style="stop-color:#34A39C"/>
			<stop  offset="1" style="stop-color:#5BC4BF"/>
		</linearGradient>
		<path fill="url(#SVGID_26_)" d="M151.857,605.298c6.243,5.582,14.119,9.155,20.623,13.153c0.473-0.899,1.632-2.01,1.68-4.281
			c3.808,2.578,6.669,6.954,8.419,10.171c0.048-2.271,0.781-4.754,0.616-7.71c9.886,5.205,6.904,17.408,5.815,26.017
			c20.174,2.013,16.49-38.952,13.085-49.927c-4.894-15.776-18.067-26.728-34.599-29.119c0.426,1.372-0.048,2.271,0.378,3.642
			c-8.727-6.316-20.93-9.298-30.911-9.961c-10.194-1.349-24.503-1.422-16.77,8.962c3.973,5.535,11.683,6.151,16.389,9.202
			c3.808,2.578,1.915,6.173,8.679,8.587c8.561,3.36,18.425-1.204,26.986,2.156c-7.71-0.616-16.367,0.566-20.152,7.755
			c-7.78-8.113-11.661,3.617-6.008,4.872"/>
	</g>
	<g opacity="0.2">
		
			<linearGradient id="SVGID_27_" gradientUnits="userSpaceOnUse" x1="-1240.938" y1="1812.7759" x2="-1219.4585" y2="1743.5352" gradientTransform="matrix(0.9551 -0.2963 0.2963 0.9551 807.0559 -1512.8158)">
			<stop  offset="0.615" style="stop-color:#007C74"/>
			<stop  offset="0.6952" style="stop-color:#00867F"/>
			<stop  offset="0.8519" style="stop-color:#34A39C"/>
			<stop  offset="1" style="stop-color:#5BC4BF"/>
		</linearGradient>
		<path fill="url(#SVGID_27_)" d="M152.922,556.527c-15.278-8.043-29.206-26.28-34.786-41.844
			c5.535-3.973,13.055,5.725,18.447,8.564c-6.101-12.394,11.543-8.844,14.782-0.826c4.353-12.629,15.703,9.415,17.193,14.217
			c-0.804-5.014-8.654-20.625-2.954-21.641c9.342-1.394,15.466,20.768,15.796,26.681c0.854-19.063,10.053-13.646,16.58,0.12
			c2.601,5.961,3.827,34.153-7.5,21.877c4.611,7.593-3.975,16.272-7.287,22.563c-8.041-6.529-16.482-26.468-26.676-27.817"/>
	</g>
	<g opacity="0.4">
		<linearGradient id="SVGID_28_" gradientUnits="userSpaceOnUse" x1="101.5513" y1="605.4059" x2="101.5513" y2="553.5273">
			<stop  offset="0.615" style="stop-color:#007C74"/>
			<stop  offset="0.6952" style="stop-color:#00867F"/>
			<stop  offset="0.8519" style="stop-color:#34A39C"/>
			<stop  offset="1" style="stop-color:#5BC4BF"/>
		</linearGradient>
		<path fill="url(#SVGID_28_)" d="M126.831,577.666c-5.935-9.438-16.815-11.588-26.487-16.107
			c-6.078-2.626-13.693-7.783-20.505-7.926c-6.338-1.041-21.476,5.91-9.012,7.307c1.182,8.657,13.528,4.827,19.393,6.767
			c-20.79,5.698-5.37,6.929,1.725,15.255c-0.426-1.372-0.141-5.993-0.992-8.737c8.609,1.089,13.386,2.637,21.474,6.895
			c-4.589,2.175-16.627,2.15-17.456,9.175c-1.089,8.609,16.081,13.058,22.42,14.099c17.17,4.449,28.075-6.453,11.308-19.298"/>
	</g>
	<g>
		
			<linearGradient id="SVGID_29_" gradientUnits="userSpaceOnUse" x1="-1301.3746" y1="1812.093" x2="-1286.0037" y2="1762.5438" gradientTransform="matrix(0.9551 -0.2963 0.2963 0.9551 807.0559 -1512.8158)">
			<stop  offset="0.5134" style="stop-color:#43BEAD"/>
			<stop  offset="0.651" style="stop-color:#53C2B8"/>
			<stop  offset="0.714" style="stop-color:#5BC4BF"/>
		</linearGradient>
		<path fill="url(#SVGID_29_)" d="M128.727,577.741c-5.935-9.438-19.251-13.578-28.924-18.097
			c-6.078-2.626-13.693-7.783-20.505-7.926c-6.338-1.041-21.476,5.91-9.012,7.307c1.182,8.657,13.528,4.826,19.393,6.767
			c-20.79,5.698-5.37,6.929,1.725,15.255c-0.426-1.372,0.308-3.855-0.543-6.599c8.609,1.089,12.937,0.498,21.026,4.756
			c-4.589,2.175-16.627,2.15-17.456,9.175c-1.089,8.609,16.081,13.057,22.42,14.099c17.17,4.448,28.075-6.453,11.308-19.298"/>
	</g>
	<g>
		
			<linearGradient id="SVGID_30_" gradientUnits="userSpaceOnUse" x1="-1230.1078" y1="1781.6918" x2="-1255.6088" y2="1863.8964" gradientTransform="matrix(0.9551 -0.2963 0.2963 0.9551 807.0559 -1512.8158)">
			<stop  offset="0.0406" style="stop-color:#3DAFA0"/>
			<stop  offset="0.8603" style="stop-color:#43BEAD"/>
			<stop  offset="0.9561" style="stop-color:#53C2B8"/>
			<stop  offset="1" style="stop-color:#5BC4BF"/>
		</linearGradient>
		<path fill="url(#SVGID_30_)" d="M150.546,601.987c6.243,5.583,14.119,9.155,20.623,13.153c0.473-0.899,1.632-2.01,1.68-4.281
			c3.808,2.578,6.669,6.954,8.419,10.171c0.048-2.271,0.781-4.754,0.616-7.71c9.886,5.204,6.904,17.408,5.815,26.017
			c20.174,2.013,16.49-38.952,13.085-49.927c-4.894-15.776-18.067-26.728-34.599-29.119c0.426,1.372-0.048,2.271,0.378,3.642
			c-8.727-6.316-20.93-9.297-30.911-9.961c-10.194-1.349-24.503-1.422-16.77,8.962c3.973,5.535,11.683,6.151,16.389,9.202
			c3.808,2.578,1.915,6.173,8.679,8.586c8.561,3.36,18.425-1.204,26.986,2.156c-7.71-0.616-16.367,0.566-20.152,7.755
			c-7.78-8.113-11.661,3.617-6.008,4.871"/>
	</g>
	<g>
		
			<linearGradient id="SVGID_31_" gradientUnits="userSpaceOnUse" x1="-1240.1584" y1="1810.9646" x2="-1218.679" y2="1741.724" gradientTransform="matrix(0.9551 -0.2963 0.2963 0.9551 807.0559 -1512.8158)">
			<stop  offset="0.5134" style="stop-color:#43BEAD"/>
			<stop  offset="0.651" style="stop-color:#53C2B8"/>
			<stop  offset="0.714" style="stop-color:#5BC4BF"/>
		</linearGradient>
		<path fill="url(#SVGID_31_)" d="M153.13,554.567c-15.278-8.043-29.206-26.28-34.786-41.844c5.535-3.973,13.055,5.725,18.447,8.564
			c-6.101-12.394,11.543-8.844,14.782-0.826c4.353-12.629,15.703,9.415,17.193,14.217c-0.804-5.014-8.654-20.625-2.954-21.641
			c9.342-1.394,15.466,20.768,15.796,26.681c0.854-19.063,10.054-13.646,16.58,0.12c2.601,5.96,3.827,34.153-7.5,21.877
			c4.611,7.593-3.975,16.272-7.287,22.563c-8.041-6.529-16.482-26.468-26.676-27.817"/>
	</g>
	<g opacity="0.2">
		
			<linearGradient id="SVGID_32_" gradientUnits="userSpaceOnUse" x1="-1195.9548" y1="1859.749" x2="-1176.0229" y2="1795.4967" gradientTransform="matrix(0.9551 -0.2963 0.2963 0.9551 807.0559 -1512.8158)">
			<stop  offset="0.615" style="stop-color:#007C74"/>
			<stop  offset="0.6952" style="stop-color:#00867F"/>
			<stop  offset="0.8519" style="stop-color:#34A39C"/>
			<stop  offset="1" style="stop-color:#5BC4BF"/>
		</linearGradient>
		<path fill="url(#SVGID_32_)" d="M202.706,576.424c-0.33-5.913,2.391-16.532,7.64-6.882c-3.547-4.163-5.107-16.462,2.438-18.803
			c6.173-1.915,10.051,8.161,12.912,12.537c8.138-19.819,13.433,9.368,12.817,17.078c0.07,7.497-1.517,29.044-12.349,25.637
			c3.027,7.332-4.449,17.17-9.485,8.206c-2.649-3.69-0.874-12.512-3.049-17.1c-2.248,9.72-31.645-7.478-15.986-17.599"/>
	</g>
	<g>
		
			<linearGradient id="SVGID_33_" gradientUnits="userSpaceOnUse" x1="-1203.3221" y1="1836.599" x2="-1157.2058" y2="1812.3202" gradientTransform="matrix(0.9551 -0.2963 0.2963 0.9551 807.0559 -1512.8158)">
			<stop  offset="0" style="stop-color:#58C3BC"/>
			<stop  offset="0.5134" style="stop-color:#43BEAD"/>
			<stop  offset="0.847" style="stop-color:#53C2B8"/>
			<stop  offset="1" style="stop-color:#5BC4BF"/>
		</linearGradient>
		<path fill="url(#SVGID_33_)" d="M202.914,574.463c-0.33-5.913,2.391-16.532,7.64-6.882c-3.547-4.163-5.107-16.462,2.438-18.803
			c6.173-1.915,10.051,8.161,12.912,12.537c8.138-19.819,13.433,9.368,12.817,17.078c0.07,7.498-1.517,29.044-12.349,25.637
			c3.027,7.332-4.449,17.17-9.485,8.206c-2.649-3.69-0.874-12.512-3.049-17.1c-2.248,9.72-31.645-7.478-15.986-17.599"/>
	</g>
</g>
<g>
	<g opacity="0.2">
		<linearGradient id="SVGID_34_" gradientUnits="userSpaceOnUse" x1="3.0659" y1="647.0672" x2="17.7194" y2="647.0672">
			<stop  offset="0.615" style="stop-color:#007C74"/>
			<stop  offset="0.6952" style="stop-color:#00867F"/>
			<stop  offset="0.8519" style="stop-color:#34A39C"/>
			<stop  offset="1" style="stop-color:#5BC4BF"/>
		</linearGradient>
		<path fill="url(#SVGID_34_)" d="M3.631,570.818c11.296,15.815,7.907,41.796,9.037,60.434c1.13,20.898,0.565,40.666-0.565,61.564
			c-1.13,15.815-6.778,39.536,1.13,54.221c-2.259-23.722,2.824-49.703,3.954-73.425c1.13-32.194-3.389-63.823-3.389-95.452
			c0-9.602,5.648-22.592,3.389-31.064c-5.648,5.083-4.518,19.203-7.342,27.111c-1.13-3.954-4.518-9.037-6.778-6.778"/>
	</g>
	<g>
		<linearGradient id="SVGID_35_" gradientUnits="userSpaceOnUse" x1="1.8118" y1="650.9866" x2="16.4654" y2="650.9866">
			<stop  offset="0.8659" style="stop-color:#00A89A"/>
			<stop  offset="0.9278" style="stop-color:#2FB2A7"/>
			<stop  offset="1" style="stop-color:#5BC4BF"/>
		</linearGradient>
		<path fill="url(#SVGID_35_)" d="M2.377,574.738c11.296,15.815,7.907,41.796,9.037,60.434c1.13,20.898,0.565,40.666-0.565,61.564
			c-1.13,15.815-6.778,39.536,1.13,54.221c-2.259-23.722,2.824-49.703,3.954-73.425c1.13-32.194-3.389-63.823-3.389-95.452
			c0-9.602,5.648-22.592,3.389-31.064c-5.648,5.083-4.518,19.203-7.342,27.111c-1.13-3.954-4.518-9.037-6.778-6.778"/>
	</g>
	<g opacity="0.2">
		<linearGradient id="SVGID_36_" gradientUnits="userSpaceOnUse" x1="34.0129" y1="648.8693" x2="69.9334" y2="648.8693">
			<stop  offset="0.615" style="stop-color:#007C74"/>
			<stop  offset="0.6952" style="stop-color:#00867F"/>
			<stop  offset="0.8519" style="stop-color:#34A39C"/>
			<stop  offset="1" style="stop-color:#5BC4BF"/>
		</linearGradient>
		<path fill="url(#SVGID_36_)" d="M36.61,552.57c-2.824,14.685,1.694,31.064,4.518,45.749c3.389,17.509,1.13,37.842-0.565,54.786
			c-1.694,22.592-1.694,45.749-3.954,68.341c-1.13,12.426-4.518,28.805-1.13,41.231c0-28.24,7.907-55.916,10.731-83.591
			c1.13-12.991,1.694-25.416,1.13-38.407c-1.13-15.815,2.259-28.24,7.342-44.055c3.954-13.555,7.342-29.935,15.25-42.36
			c-7.907-1.694-10.731,16.379-11.861,22.027c-5.648-12.426-5.083-28.24-10.731-40.666c-3.389,12.991,3.389,25.416,5.648,37.842
			c2.259,10.167-3.954,27.111-6.778,37.842c-1.694-14.685-3.389-29.37-5.648-44.055c-1.694-10.167-1.13-23.722-4.518-32.194"/>
	</g>
	<g>
		<linearGradient id="SVGID_37_" gradientUnits="userSpaceOnUse" x1="31.9735" y1="643.3618" x2="67.8941" y2="643.3618">
			<stop  offset="0.8659" style="stop-color:#00A89A"/>
			<stop  offset="0.9278" style="stop-color:#2FB2A7"/>
			<stop  offset="1" style="stop-color:#5BC4BF"/>
		</linearGradient>
		<path fill="url(#SVGID_37_)" d="M34.571,547.062c-2.824,14.685,1.694,31.064,4.518,45.749c3.389,17.509,1.13,37.842-0.565,54.786
			c-1.694,22.592-1.694,45.749-3.954,68.342c-1.13,12.426-4.518,28.805-1.13,41.231c0-28.24,7.907-55.916,10.731-83.591
			c1.13-12.991,1.694-25.416,1.13-38.407c-1.13-15.815,2.259-28.24,7.342-44.055c3.954-13.555,7.342-29.935,15.25-42.36
			c-7.907-1.694-10.731,16.379-11.861,22.027c-5.648-12.426-5.083-28.24-10.731-40.666c-3.389,12.991,3.389,25.416,5.648,37.842
			c2.259,10.167-3.954,27.111-6.778,37.842c-1.694-14.685-3.389-29.37-5.648-44.055c-1.694-10.167-1.13-23.722-4.518-32.194"/>
	</g>
	<g>
		<linearGradient id="SVGID_38_" gradientUnits="userSpaceOnUse" x1="7.4012" y1="583.3342" x2="7.4012" y2="485.2251">
			<stop  offset="0.5134" style="stop-color:#43BEAD"/>
			<stop  offset="0.847" style="stop-color:#53C2B8"/>
			<stop  offset="1" style="stop-color:#5BC4BF"/>
		</linearGradient>
		<path fill="url(#SVGID_38_)" d="M11.978,501.313l2.824-5.648c-3.867-7.346-9.586-12.042-14.802-9.927v95.809
			c6.542-7.101,11.978-33.199,11.978-37.874C12.543,530.683,8.589,513.174,11.978,501.313z"/>
	</g>
	<g opacity="0.2">
		<linearGradient id="SVGID_39_" gradientUnits="userSpaceOnUse" x1="21.986" y1="571.7255" x2="21.986" y2="478.156">
			<stop  offset="0.615" style="stop-color:#007C74"/>
			<stop  offset="0.6952" style="stop-color:#00867F"/>
			<stop  offset="0.8519" style="stop-color:#34A39C"/>
			<stop  offset="1" style="stop-color:#5BC4BF"/>
		</linearGradient>
		<path fill="url(#SVGID_39_)" d="M41.913,500.748c-6.213-13.555-18.074-21.463-32.194-22.592c-2.939,0-6.59,0.004-9.719,0.626
			v44.627c2.58,4.706,5.968,8.383,11.414,13.488c-10.731,5.083-4.518,14.685-5.083,22.592l-0.565,5.648
			c1.694,5.083,9.602,11.296,9.037,1.13c5.648,12.426,19.203-20.333,21.463-25.981C40.219,527.859,47.561,513.739,41.913,500.748z"
			/>
	</g>
	<g>
		<linearGradient id="SVGID_40_" gradientUnits="userSpaceOnUse" x1="20.8328" y1="570.7526" x2="20.8328" y2="477.1831">
			<stop  offset="0.5134" style="stop-color:#43BEAD"/>
			<stop  offset="0.847" style="stop-color:#53C2B8"/>
			<stop  offset="1" style="stop-color:#5BC4BF"/>
		</linearGradient>
		<path fill="url(#SVGID_40_)" d="M39.607,499.775c-6.213-13.555-18.074-21.463-32.194-22.592c-2.238,0-4.892,0.001-7.413,0.276
			v48.645c2.267,3.148,5.144,6.103,9.107,9.819c-10.731,5.083-4.518,14.685-5.083,22.592l-0.565,5.648
			c1.694,5.083,9.602,11.296,9.037,1.13c5.648,12.426,19.203-20.333,21.463-25.981C37.912,526.886,45.255,512.766,39.607,499.775z"
			/>
	</g>
	<g opacity="0.2">
		<linearGradient id="SVGID_41_" gradientUnits="userSpaceOnUse" x1="88.8314" y1="514.9534" x2="24.4137" y2="514.9534">
			<stop  offset="0.615" style="stop-color:#007C74"/>
			<stop  offset="0.6952" style="stop-color:#00867F"/>
			<stop  offset="0.8519" style="stop-color:#34A39C"/>
			<stop  offset="1" style="stop-color:#5BC4BF"/>
		</linearGradient>
		<path fill="url(#SVGID_41_)" d="M57.457,529.27c3.389,1.694,6.778,3.389,9.602,5.083c0-1.694,1.694-3.389,1.694-5.083
			c1.694,0,4.518,0,5.648,0c2.824,5.648,4.518,20.898,11.861,12.991c3.389-4.518,2.824-18.074,1.694-23.722
			c-1.694-10.167-14.12-40.101-29.37-31.629c10.167,4.518,21.463,20.898,19.768,32.194c-3.389-9.037-12.426-18.639-19.203-25.416
			c-3.389-3.954-8.472-9.602-13.555-7.907c-6.213,2.259-6.213,11.861-2.259,15.25c-2.824-9.037-28.24-10.167-15.25,7.342
			c7.342,10.167,18.074,14.685,28.805,20.898"/>
	</g>
	<g>
		<linearGradient id="SVGID_42_" gradientUnits="userSpaceOnUse" x1="24.8031" y1="513.7528" x2="89.2208" y2="513.7528">
			<stop  offset="0.5134" style="stop-color:#43BEAD"/>
			<stop  offset="0.651" style="stop-color:#53C2B8"/>
			<stop  offset="0.714" style="stop-color:#5BC4BF"/>
		</linearGradient>
		<path fill="url(#SVGID_42_)" d="M57.847,528.07c3.389,1.694,6.778,3.389,9.602,5.083c0-1.694,1.694-3.389,1.694-5.083
			c1.694,0,4.518,0,5.648,0c2.824,5.648,4.518,20.898,11.861,12.991c3.389-4.518,2.824-18.074,1.694-23.722
			c-1.694-10.167-14.12-40.101-29.37-31.629c10.167,4.518,21.463,20.898,19.768,32.194c-3.389-9.037-12.426-18.639-19.203-25.416
			c-3.389-3.954-8.472-9.602-13.555-7.907c-6.213,2.259-6.213,11.861-2.259,15.25c-2.824-9.037-28.24-10.167-15.25,7.342
			c7.342,10.167,18.074,14.685,28.805,20.898"/>
	</g>
	<g opacity="0.2">
		<linearGradient id="SVGID_43_" gradientUnits="userSpaceOnUse" x1="46.1191" y1="560.9465" x2="46.1191" y2="506.0512">
			<stop  offset="0.615" style="stop-color:#007C74"/>
			<stop  offset="0.6952" style="stop-color:#00867F"/>
			<stop  offset="0.8519" style="stop-color:#34A39C"/>
			<stop  offset="1" style="stop-color:#5BC4BF"/>
		</linearGradient>
		<path fill="url(#SVGID_43_)" d="M41.844,507.07c-15.815-4.518-27.111,15.815-22.027,28.805
			c13.555-2.824,28.805-0.565,37.277,11.861c0.565-1.13,1.13-2.259,1.13-3.389c2.259,2.824,6.778,18.639,12.991,16.379
			c3.389-1.694,2.259-16.379,2.259-19.768c-0.565-8.472-12.426-38.972-24.287-34.453"/>
	</g>
	<g>
		<linearGradient id="SVGID_44_" gradientUnits="userSpaceOnUse" x1="45.6236" y1="558.5785" x2="45.6236" y2="503.6831">
			<stop  offset="0.5134" style="stop-color:#43BEAD"/>
			<stop  offset="0.847" style="stop-color:#53C2B8"/>
			<stop  offset="1" style="stop-color:#5BC4BF"/>
		</linearGradient>
		<path fill="url(#SVGID_44_)" d="M41.348,504.702c-15.815-4.518-27.111,15.815-22.027,28.805
			c13.555-2.824,28.805-0.565,37.277,11.861c0.565-1.13,1.13-2.259,1.13-3.389c2.259,2.824,6.778,18.639,12.991,16.379
			c3.389-1.694,2.259-16.379,2.259-19.768c-0.565-8.472-12.426-38.972-24.287-34.453"/>
	</g>
</g>
<linearGradient id="SVGID_45_" gradientUnits="userSpaceOnUse" x1="207" y1="1715.8193" x2="207" y2="672.4184">
	<stop  offset="0" style="stop-color:#00A9D6"/>
	<stop  offset="0.9248" style="stop-color:#00988A"/>
	<stop  offset="0.9674" style="stop-color:#00988A"/>
	<stop  offset="0.9747" style="stop-color:#00988A"/>
</linearGradient>
<path fill="url(#SVGID_45_)" d="M397.586,680.178c-12.108-3.535-32.448-8.783-45.042-7.585c-9.879,0.94-42.024,3.12-51.381,6.308
	c-47.221,16.091-132.794,0.346-182.742,4.129C91.039,685.103,37.081,690.101,0,693.603v202.229L414,896V683.345
	C408.219,682.479,402.124,681.503,397.586,680.178z"/>
<g>
	<g opacity="0.2">
		<g>
			
				<linearGradient id="SVGID_46_" gradientUnits="userSpaceOnUse" x1="1803.7412" y1="-2254.6858" x2="1787.4674" y2="-2272.7983" gradientTransform="matrix(0.8596 0.511 -0.511 0.8596 -2438.9878 1692.1208)">
				<stop  offset="0.615" style="stop-color:#007C74"/>
				<stop  offset="0.6952" style="stop-color:#00867F"/>
				<stop  offset="0.8519" style="stop-color:#34A39C"/>
				<stop  offset="1" style="stop-color:#5BC4BF"/>
			</linearGradient>
			<path fill="url(#SVGID_46_)" d="M282.447,655.471c-6.552-9.031-19.632,3.381-26.207,10.119c2.199-4.934,5.431-8.519,7.902-13.291
				c-3.358-0.528-6.106,2.244-8.643,4.04c0.901-4.604-2.991-3.614-5.366-2.089s-4.09,5.645-5.38,7.815
				c-2.199,4.934-5.739,12.741-3.011,18.034c4.185-8.893,25.517-18.338,34.776-18.975
				C282.86,660.687,283.65,657.129,282.447,655.471z"/>
		</g>
		<g>
			
				<linearGradient id="SVGID_47_" gradientUnits="userSpaceOnUse" x1="981.4479" y1="-283.1251" x2="963.1656" y2="-303.4731" gradientTransform="matrix(0.9784 0.2069 -0.2069 0.9784 -779.294 738.996)">
				<stop  offset="0.615" style="stop-color:#007C74"/>
				<stop  offset="0.6952" style="stop-color:#00867F"/>
				<stop  offset="0.8519" style="stop-color:#34A39C"/>
				<stop  offset="1" style="stop-color:#5BC4BF"/>
			</linearGradient>
			<path fill="url(#SVGID_47_)" d="M220.558,647.725c-3.497,2.809-0.836,8.532,1.111,11.524c-1.348-1.253-4.792-3.271-6.662-2.054
				c-3.236,1.574,1.799,5.219,4.008,6.976c1.9,1.692,14.766,7.961,10.01,1.472c5.6,8.603,13.251-6.229,13.061-11.43
				c6.24,0.997,6.364-10.266,4.921-14.119c-2.756-8.324-11.655,1.729-15.234,6.455c-0.938-4.714-3.617-8.828-7.327-3.484"/>
		</g>
	</g>
	<g>
		<g>
			
				<linearGradient id="SVGID_48_" gradientUnits="userSpaceOnUse" x1="1803.8292" y1="-2252.783" x2="1787.5555" y2="-2270.8955" gradientTransform="matrix(0.8596 0.511 -0.511 0.8596 -2438.9878 1692.1208)">
				<stop  offset="0.5134" style="stop-color:#43BEAD"/>
				<stop  offset="0.7379" style="stop-color:#58BCAE"/>
				<stop  offset="1" style="stop-color:#70BDB2"/>
			</linearGradient>
			<path fill="url(#SVGID_48_)" d="M281.551,657.152c-6.552-9.031-19.632,3.381-26.207,10.119c2.199-4.934,5.431-8.519,7.902-13.291
				c-3.358-0.528-6.106,2.244-8.643,4.04c0.901-4.604-2.991-3.614-5.366-2.089c-2.375,1.525-4.09,5.645-5.38,7.815
				c-2.199,4.934-5.739,12.741-3.011,18.034c4.185-8.893,25.517-18.338,34.776-18.975
				C281.963,662.368,282.753,658.81,281.551,657.152z"/>
		</g>
		<g>
			
				<linearGradient id="SVGID_49_" gradientUnits="userSpaceOnUse" x1="980.9184" y1="-281.2954" x2="962.6361" y2="-301.6433" gradientTransform="matrix(0.9784 0.2069 -0.2069 0.9784 -779.294 738.996)">
				<stop  offset="0.5134" style="stop-color:#43BEAD"/>
				<stop  offset="0.7379" style="stop-color:#58BCAE"/>
				<stop  offset="1" style="stop-color:#70BDB2"/>
			</linearGradient>
			<path fill="url(#SVGID_49_)" d="M219.662,649.406c-3.497,2.809-0.836,8.532,1.111,11.524c-1.348-1.253-4.792-3.271-6.662-2.054
				c-3.236,1.574,1.799,5.219,4.008,6.976c1.9,1.692,14.766,7.961,10.01,1.472c5.6,8.602,13.251-6.229,13.061-11.43
				c6.24,0.997,6.364-10.266,4.921-14.119c-2.756-8.324-11.655,1.729-15.234,6.455c-0.938-4.714-3.617-8.828-7.327-3.484"/>
		</g>
	</g>
</g>
<g>
	<g opacity="0.2">
		
			<linearGradient id="SVGID_50_" gradientUnits="userSpaceOnUse" x1="1479.1047" y1="-4292.749" x2="1522.0483" y2="-4256.3062" gradientTransform="matrix(0.647 0.7625 -0.7625 0.647 -4191.876 2297.061)">
			<stop  offset="0.615" style="stop-color:#007C74"/>
			<stop  offset="0.6952" style="stop-color:#00867F"/>
			<stop  offset="0.8519" style="stop-color:#34A39C"/>
			<stop  offset="1" style="stop-color:#5BC4BF"/>
		</linearGradient>
		<path fill="url(#SVGID_50_)" d="M63.766,681.513c1.471-8.022-7.241-20.948-13.818-25.151c-1.71,5.967-5.342,10.554-9.784,15.076
			c1.007-2.36,10.112-17.97-0.783-23.836c-4.287-2.308-15.751,7.012-20.06,9.916c5.409-11.363-12.411-7.53-16.72-4.626
			c-1.034,0.734-1.891,1.429-2.601,2.095v43.316c13.242,10.375,41.372,2.568,55.03,0.407c3.739-0.915,20.113-2.017,21.187-5.186
			C77.86,688.367,67.876,681.036,63.766,681.513z"/>
	</g>
	<g opacity="0.2">
		
			<linearGradient id="SVGID_51_" gradientUnits="userSpaceOnUse" x1="1553.8739" y1="-4345.2354" x2="1569.5195" y2="-4331.958" gradientTransform="matrix(0.647 0.7625 -0.7625 0.647 -4191.876 2297.061)">
			<stop  offset="0.615" style="stop-color:#007C74"/>
			<stop  offset="0.6952" style="stop-color:#00867F"/>
			<stop  offset="0.8519" style="stop-color:#34A39C"/>
			<stop  offset="1" style="stop-color:#5BC4BF"/>
		</linearGradient>
		<path fill="url(#SVGID_51_)" d="M107.171,673.504c7.04-1.459,13.643-2.547,20.551-2.388c0.371,0.438-7.378,9.442-6.635,10.317
			c19.687-19.014,44.913-10.44,47.592,1.586c-20.948,7.241-41.234,6.394-63.31,2.551c3.673-0.106,6.404,1.339,8.26,3.526
			c-5.25,4.455-22.712-1.046-29.116-2.384c4.136-5.768,6.96-10.422,12.886-13.193"/>
	</g>
	<g>
		
			<linearGradient id="SVGID_52_" gradientUnits="userSpaceOnUse" x1="1478.8646" y1="-4290.8994" x2="1521.8077" y2="-4254.457" gradientTransform="matrix(0.647 0.7625 -0.7625 0.647 -4191.876 2297.061)">
			<stop  offset="0" style="stop-color:#009D8E"/>
			<stop  offset="0.2771" style="stop-color:#009E8E"/>
			<stop  offset="0.5472" style="stop-color:#00A091"/>
			<stop  offset="0.8135" style="stop-color:#00A494"/>
			<stop  offset="1" style="stop-color:#00A798"/>
		</linearGradient>
		<path fill="url(#SVGID_52_)" d="M60.634,682.527c1.471-8.022-7.241-20.948-13.818-25.151c-1.71,5.966-5.342,10.554-9.784,15.076
			c1.007-2.36,10.112-17.97-0.783-23.836c-4.287-2.308-15.751,7.012-20.06,9.916c5.211-10.948-11.134-7.79-16.19-4.947v47.726
			c14.148,7.268,39.239,0.416,51.898-1.587c3.739-0.915,20.113-2.017,21.187-5.186C74.729,689.38,64.745,682.049,60.634,682.527z"/>
	</g>
	<g opacity="0.2">
		
			<linearGradient id="SVGID_53_" gradientUnits="userSpaceOnUse" x1="1481.9335" y1="-4265.5039" x2="1524.8956" y2="-4257.6816" gradientTransform="matrix(0.647 0.7625 -0.7625 0.647 -4191.876 2297.061)">
			<stop  offset="0.615" style="stop-color:#007C74"/>
			<stop  offset="0.6952" style="stop-color:#00867F"/>
			<stop  offset="0.8519" style="stop-color:#34A39C"/>
			<stop  offset="1" style="stop-color:#5BC4BF"/>
		</linearGradient>
		<path fill="url(#SVGID_53_)" d="M52.651,698.168c3.699-5.397,3.538-23.322-6.565-19.264c0.755-14.187-20.207-16.718-29.7-10.167
			c0.783,5.356,5.065,7.743,9.852,8.949c-3.301,0.544-10.647,0.757-13.643,2.547c-4.68,2.466-7,5.94,0.716,6.165
			c-2.493,0.61-4.309,2.904-6.43,3.952c7.889,3.089,21.771,2.597,30.19-0.785c-0.397,4.853,4.694,7.305,9.547,7.703"/>
	</g>
	<g>
		
			<linearGradient id="SVGID_54_" gradientUnits="userSpaceOnUse" x1="1551.379" y1="-4341.9097" x2="1567.0247" y2="-4328.6323" gradientTransform="matrix(0.647 0.7625 -0.7625 0.647 -4191.876 2297.061)">
			<stop  offset="0" style="stop-color:#009D8E"/>
			<stop  offset="0.2771" style="stop-color:#009E8E"/>
			<stop  offset="0.5472" style="stop-color:#00A091"/>
			<stop  offset="0.8135" style="stop-color:#00A494"/>
			<stop  offset="1" style="stop-color:#00A798"/>
		</linearGradient>
		<path fill="url(#SVGID_54_)" d="M103.021,673.754c7.04-1.459,13.643-2.547,20.551-2.388c0.371,0.438-7.378,9.442-6.635,10.317
			c19.687-19.014,44.913-10.44,47.592,1.586c-20.948,7.241-41.234,6.394-63.31,2.551c3.673-0.106,6.404,1.339,8.26,3.526
			c-5.25,4.455-22.712-1.046-29.116-2.384c4.136-5.768,6.96-10.422,12.886-13.193"/>
	</g>
	<g>
		
			<linearGradient id="SVGID_55_" gradientUnits="userSpaceOnUse" x1="1509.8477" y1="-4245.9287" x2="1497.7493" y2="-4279.7529" gradientTransform="matrix(0.647 0.7625 -0.7625 0.647 -4191.876 2297.061)">
			<stop  offset="0" style="stop-color:#009D8E"/>
			<stop  offset="0.0459" style="stop-color:#00A091"/>
			<stop  offset="0.1093" style="stop-color:#00A495"/>
			<stop  offset="0.174" style="stop-color:#00A797"/>
			<stop  offset="0.2415" style="stop-color:#00A798"/>
			<stop  offset="0.6283" style="stop-color:#00A99A"/>
			<stop  offset="0.8306" style="stop-color:#00ADA2"/>
			<stop  offset="0.9851" style="stop-color:#00B6B0"/>
		</linearGradient>
		<path fill="url(#SVGID_55_)" d="M50.411,698.545c3.699-5.397,3.538-23.322-6.565-19.264c0.755-14.187-20.207-16.717-29.7-10.167
			c0.783,5.356,5.065,7.743,9.852,8.949c-3.301,0.544-10.647,0.757-13.643,2.547c-4.68,2.466-7,5.94,0.716,6.165
			c-2.493,0.61-4.309,2.904-6.43,3.952c7.889,3.089,21.771,2.597,30.19-0.785c-0.397,4.853,4.694,7.305,9.547,7.702"/>
	</g>
</g>
<g opacity="0.1">
	<g opacity="0.2">
		<g>
			<linearGradient id="SVGID_56_" gradientUnits="userSpaceOnUse" x1="393.162" y1="813.076" x2="393.162" y2="813.076">
				<stop  offset="0.615" style="stop-color:#007C74"/>
				<stop  offset="0.6952" style="stop-color:#00867F"/>
				<stop  offset="0.8519" style="stop-color:#34A39C"/>
				<stop  offset="1" style="stop-color:#5BC4BF"/>
			</linearGradient>
			<path fill="url(#SVGID_56_)" d="M393.162,813.076"/>
		</g>
	</g>
	<g>
		<g>
			
				<linearGradient id="SVGID_57_" gradientUnits="userSpaceOnUse" x1="1220.9241" y1="-660.8763" x2="1306.0789" y2="-660.8763" gradientTransform="matrix(0.9302 0.3672 -0.3672 0.9302 -1396.3798 900.0582)">
				<stop  offset="0.5134" style="stop-color:#43BEAD"/>
				<stop  offset="0.7379" style="stop-color:#58BCAE"/>
				<stop  offset="1" style="stop-color:#70BDB2"/>
			</linearGradient>
			<path fill="url(#SVGID_57_)" d="M48.685,736.016l-21.398-1.929C18.609,732.23,7.915,734.299,0,739.626v45.941
				c2.432-0.48,4.998-1.117,7.699-1.858c25.642-5.52,64.936-29.115,67.281-58.17C65.75,725.807,55.867,731.03,48.685,736.016z"/>
		</g>
		<g>
			
				<linearGradient id="SVGID_58_" gradientUnits="userSpaceOnUse" x1="1368.156" y1="-706.6567" x2="1529.1653" y2="-706.6567" gradientTransform="matrix(0.9302 0.3672 -0.3672 0.9302 -1396.3798 900.0582)">
				<stop  offset="0.5134" style="stop-color:#43BEAD"/>
				<stop  offset="0.7379" style="stop-color:#58BCAE"/>
				<stop  offset="1" style="stop-color:#70BDB2"/>
			</linearGradient>
			<path fill="url(#SVGID_58_)" d="M169.159,738.596c-18.072,2.241-41.764,14.763-42.76,33.12c1.352,0.534,2.704,1.067,5.407,2.134
				c-5.372,5.692-11.277,12.736-12.593,20.028c32.372-2.846,59.16-46.958,97.082-16.364c-1.067,2.704-2.953,3.522-4.02,6.225
				c24.048,6.368,62.29-11.348,86.836-14.159c-9.321-31.803-55.211-34.293-81.073-24.19c-6.546-15.083-24.084-14.194-37.282-8.466"
				/>
		</g>
		<g>
			
				<linearGradient id="SVGID_59_" gradientUnits="userSpaceOnUse" x1="1460.8591" y1="-716.3076" x2="1625.0846" y2="-716.3076" gradientTransform="matrix(0.9302 0.3672 -0.3672 0.9302 -1396.3798 900.0582)">
				<stop  offset="0.5134" style="stop-color:#43BEAD"/>
				<stop  offset="0.7379" style="stop-color:#58BCAE"/>
				<stop  offset="1" style="stop-color:#70BDB2"/>
			</linearGradient>
			<path fill="url(#SVGID_59_)" d="M225.01,795.016c-7.791,7.862-14.23,16.257-18.783,23.835
				c18.356,0.996,32.372-2.846,49.377-2.384c19.423-1.708,40.448-7.471,61.223-8.645c11.064-0.32,28.886,2.028,40.483,0.356
				c10.779-3.557,28.53-16.862,40.092-26.361c-15.688-7.755-25.044,11.989-40.163,10.708c-13.767-0.747-17.36-19.352-36.463-6.581
				c-12.024-32.87-60.191-1.885-77.694,6.831"/>
		</g>
		<g>
			
				<linearGradient id="SVGID_60_" gradientUnits="userSpaceOnUse" x1="1613.458" y1="-725.5197" x2="1842.028" y2="-725.5197" gradientTransform="matrix(0.9302 0.3672 -0.3672 0.9302 -1396.3798 900.0582)">
				<stop  offset="0.5134" style="stop-color:#43BEAD"/>
				<stop  offset="0.7379" style="stop-color:#58BCAE"/>
				<stop  offset="1" style="stop-color:#70BDB2"/>
			</linearGradient>
			<path fill="url(#SVGID_60_)" d="M414,787.237c-15.033,5.893-27.583,15.627-31.823,29.195l-17.467,16.542
				c7.328,9.143,11.419,18.57,11.74,29.633c11.064-0.32,9.712-0.854,11.917,9.391c4.786-1.474,14.698-5.393,25.633-9.992V787.237z"
				/>
		</g>
	</g>
</g>
<linearGradient id="SVGID_61_" gradientUnits="userSpaceOnUse" x1="207" y1="1684.1979" x2="207" y2="815.9097">
	<stop  offset="0" style="stop-color:#00A9D6"/>
	<stop  offset="1" style="stop-color:#007A6F"/>
</linearGradient>
<path fill="url(#SVGID_61_)" d="M305.421,825.509c-4.559-4.49-64.03,7.684-81.958,10.245c-87.223,12.46-106.215-0.685-137.925,9.011
	C61.819,852.016,26.985,848.41,0,843.572V896h414v-61.671C367.543,833.466,307.684,827.737,305.421,825.509z"/>
<path opacity="0.9" fill="#F4EFED" d="M67.932,347.797c0,0-5.71,0.85-9.041-0.918c-0.812-0.431-2.175-0.612-2.651-3.671
	c-0.061-0.392,1.547-0.748,1.547-0.748s-2.464-1.19-3.96-4.283c-2.044-4.227,0.884-5.71,0.884-5.71s-6.887-4.474-8.327-6.73
	c-0.867-1.359-2.104-3.717-1.274-5.099c0.703-1.172,5.15-1.359,5.15-1.359s-1.913-7.604-1.257-9.653
	c0.726-2.268,4.555-5.281,6.764-6.169c3.506-1.409,10.951,0.048,14.616,0.969c3.237,0.814,9.399,2.49,11.523,5.065
	c0.78,0.946,1.937,5.15,1.937,5.15s4.504-2.209,7.342,0.765c0.895,0.938,1.212,5.042,1.212,5.042s3.532,0.44,4.47-0.034
	c1.594-0.806,4.028-3.476,5.677-4.164c2.68-1.118,7.578-2.112,10.435-1.597c3.475,0.626,12.846,6.027,12.846,6.027
	s1.847-2.051,5.688-1.422c0.979,0.16,3.858,0.948,4.352,1.809c0.563,0.981,0.472,3.472-0.119,4.436
	c-0.987,1.608-5.719,1.999-6.594,3.671c-0.444,0.847-2.11,2.406-2.11,2.406s3.477-2.325,4.286-2.661
	c2.046-0.849,3.031,0.245,3.723-0.283c1.505-1.151,4.117-1.772,5.934-1.232c0.634,0.188,2.818,2.009,2.818,2.009
	s2.651-1.241,5.761-1.223c6.143,0.034,5.897,2.787,5.897,2.787s2.433-1.439,3.331-1.699c1.328-0.385,4.379-1.309,5.506-0.51
	c0.4,0.284,0.476,1.904,0.476,1.904s5.003-2.906,6.832-2.719c1.184,0.121,3.67,1.467,3.977,2.617
	c0.262,0.984-1.04,3.001-1.836,3.637c-1.697,1.356-6.522,1.068-8.43,2.107c-0.634,0.345-3.705,1.937-3.705,1.937
	s2.542,1.761,2.311,2.311c-0.598,1.427-4.03,2.36-5.507,2.821c-4.746,1.482-19.715,2.616-19.715,2.616s1.068,3.408,0.51,4.351
	c-1.532,2.588-11.149,4.52-11.149,4.52s-7.858,1.648-15.194,0.475c-4.896-0.783-23.793-7.343-35.418-6.46
	C72.283,349.278,67.932,347.797,67.932,347.797z"/>
<path fill="#E1DBE1" d="M83.787,314.654c0,0,4.504-2.209,7.342,0.765c0.895,0.938,1.212,5.042,1.212,5.042s3.532,0.44,4.47-0.034
	c1.594-0.806,4.028-3.476,5.677-4.164c2.68-1.118,7.578-2.112,10.435-1.597c3.475,0.626,12.846,6.027,12.846,6.027
	s1.847-2.051,5.688-1.422c0,0-3.798,1.107-4.912,1.789c-0.33,0.202-1.133,1.054-1.133,1.054s-0.842-1.006-4.747-2.04
	c-2.527-0.669-5.121,0.317-5.121,0.317s-3.225-3.168-4.645-3.365c-1.955-0.271-6.312,1.008-8.124,1.79
	c-1.186,0.512-4.067,3.734-5.371,4.135c-0.872,0.268-3.723,1.382-4.6,1.631c-0.62,0.176-3.898,2.13-3.898,2.13
	s1.517-3.355,1.802-4.543c0.214-0.891,0.366-2.807,0.136-3.694c-0.219-0.844-0.351-1.79-2.549-2.685
	c-3.988-1.624-5.812,0.056-5.812,0.056L83.787,314.654L83.787,314.654z"/>
<path opacity="0.9" fill="#F4EFED" d="M149.393,374.252c6.07,8.762,43.185,4.333,43.185,4.333s5.958,0.65,15.198-0.867
	c0.478-0.078,16.89-3.228,16.89-3.228s-2.249,0.732-3.058,1.061c-3.593,1.463-12.999,4.189-12.999,4.189s-5.015,1.914-5.488,3.466
	c-0.274,0.901,1.201,2.717,2.022,3.177c7.309,4.095,25.157,1.251,33.508,0.578c7.753-0.625,23.544-2.28,30.619-5.509
	c3.291-1.502,10.615-5.52,11.266-9.078c0.103-0.561-0.641-1.721-1.155-1.969c-3.122-1.503-13.721,1.969-13.721,1.969
	s8.092-7.249,9.135-10.471c0.757-2.336,0.997-9.215-1.192-10.327c-8.883-4.513-15.924-2.455-19.065,1.228
	c-0.539,0.632-2.919-6.783-4.875-8.233c-2.093-1.552-5.889-2.765-8.233-1.625c-1.099,0.534-4.658,2.853-4.658,2.853
	s-4.333-2.853-7.149-3.286c-7.981-1.228-10.26,0.773-13.938,2.275c-3.885,1.586-14.01,9.244-14.01,9.244s-6.189-1.07-12.024-0.469
	c-14.732,1.517-12.529,8.269-12.529,8.269s-8.134-0.846-10.832-0.578c-8.702,0.867-11.898,3.174-14.588,6.066
	C150.46,368.657,148.353,372.75,149.393,374.252z"/>
<path opacity="0.9" fill="#E1DBE1" d="M272.076,350.858c-7.427-3.686-14.396-1.737-17.537,1.946
	c-0.539,0.632-2.919-6.783-4.875-8.233c-2.093-1.552-5.889-2.765-8.233-1.625c-1.099,0.534-4.658,2.853-4.658,2.853
	s-4.333-2.853-7.149-3.286c-7.981-1.228-10.26,0.773-13.938,2.275c-3.885,1.586-14.01,9.244-14.01,9.244s-6.189-1.07-12.024-0.469
	c-14.732,1.517-12.529,8.269-12.529,8.269s-8.134-0.846-10.832-0.578c-8.702,0.867-11.898,3.174-14.588,6.066
	c-1.244,1.338-3.351,5.431-2.311,6.933c0,0,4.044-8.883,11.338-10.11c4.418-0.744,13.044,0.167,17.404,1.199
	c0.561,0.133,2.022,1.112,2.022,1.112s-0.327-2.038,0-2.6c1.065-1.831,5.403-3.392,7.366-4.189
	c3.457-1.404,10.716-3.914,14.443-3.755c0.65,0.028,2.455,0.867,2.455,0.867s2.367-2.975,3.355-3.755
	c3.632-2.87,11.706-8.149,16.288-8.81c2.923-0.422,9.151,0.74,11.554,2.455c0.514,0.367,1.3,2.166,1.3,2.166s2.644-3.068,3.9-3.322
	c1.522-0.307,4.887,0.719,5.922,1.878c1.618,1.811,1.878,9.532,1.878,9.532s4.371-1.984,5.777-2.744
	c1.525-0.824,4.236-3.206,5.922-3.611C263.556,349.787,272.076,350.858,272.076,350.858z"/>
</svg>
