<?xml version="1.0" encoding="utf-8"?>
<!-- Generator: Adobe Illustrator 17.0.0, SVG Export Plug-In . SVG Version: 6.00 Build 0)  -->
<!DOCTYPE svg PUBLIC "-//W3C//DTD SVG 1.1//EN" "http://www.w3.org/Graphics/SVG/1.1/DTD/svg11.dtd">
<svg version="1.1" id="Layer_1" xmlns="http://www.w3.org/2000/svg" xmlns:xlink="http://www.w3.org/1999/xlink" x="0px" y="0px"
	 width="68.778px" height="89.771px" viewBox="0 0 68.778 89.771" enable-background="new 0 0 68.778 89.771" xml:space="preserve">
<polygon fill="#AE2025" points="55.749,0.005 52.437,5.887 50.022,5.887 46.248,0 "/>
<polygon fill="#9D1F22" points="52.668,0 50.715,3.437 48.705,0.005 "/>
<polygon fill="#921A23" points="48.705,0.005 52.096,5.887 49.895,5.887 46.248,0 "/>
<path fill="#F9A91A" d="M29.383,22.483v-9.861c0,0,0.032-0.851,0.769-0.719c0.738,0.132,8.55-0.014,8.55-0.014
	s0.643,0.09,0.586,0.676c-0.057,0.586,0.004,9.918,0.004,9.918H29.383z"/>
<path fill="#F99F3D" d="M36.83,11.889h1.873c0,0,0.643,0.09,0.586,0.676c-0.057,0.586,0.004,9.918,0.004,9.918H36.83V11.889z"/>
<ellipse fill="#FCDC57" cx="34.389" cy="55.949" rx="34.389" ry="33.823"/>
<ellipse fill="#F9A91A" cx="34.389" cy="55.949" rx="29.849" ry="29.357"/>
<ellipse fill="#FFCD0E" cx="34.389" cy="55.949" rx="21.906" ry="21.545"/>
<path fill="#E09326" d="M15.98,5.887c0,0-2.246,1.211-2.246,3.897c0,1.892,0.908,2.724,1.475,3.102
	c0.567,0.378,14.175,5.448,14.175,5.448v-2.951c0,0-12.304-3.874-12.813-4.578c-1.135-1.57,0.681-2.648,0.681-2.648L15.98,5.887"/>
<path fill="#E09326" d="M52.437,5.887c0,0,2.507,1.465,2.507,4.151c0,1.892-0.908,2.724-1.475,3.102
	c-0.567,0.378-14.175,5.448-14.175,5.448v-2.951c0,0,12.304-3.874,12.813-4.578c1.135-1.57-0.804-2.903-0.804-2.903l-1.406-2.27
	h2.201H52.437z"/>
<polygon fill="#AE2025" points="12.519,0.009 46.248,0 51.302,8.157 17.252,8.157 "/>
<polygon fill="#9D1F22" points="14.919,0.009 43.427,0.005 47.742,7.024 19.257,7.278 "/>
</svg>
