<?xml version="1.0" encoding="utf-8"?>
<!-- Generator: Adobe Illustrator 17.0.0, SVG Export Plug-In . SVG Version: 6.00 Build 0)  -->
<!DOCTYPE svg PUBLIC "-//W3C//DTD SVG 1.1//EN" "http://www.w3.org/Graphics/SVG/1.1/DTD/svg11.dtd">
<svg version="1.1" id="Layer_1" xmlns="http://www.w3.org/2000/svg" xmlns:xlink="http://www.w3.org/1999/xlink" x="0px" y="0px"
	 width="116.251px" height="155.174px" viewBox="0 0 116.251 155.174" enable-background="new 0 0 116.251 155.174"
	 xml:space="preserve">
<polygon fill="#AE2025" points="81.997,0 116.251,0 76.389,71.16 73.971,71.16 58.125,43.037 "/>
<polygon fill="#9D1F22" points="83.693,0 113.298,0 74.684,68.659 60.929,43.878 "/>
<polygon fill="#921A23" points="59.32,40.881 76.048,71.16 73.971,71.16 58.125,43.037 "/>
<path fill="#F9A91A" d="M53.301,87.781v-9.876c0,0,0.032-0.853,0.771-0.72c0.739,0.133,8.563-0.014,8.563-0.014
	s0.644,0.09,0.587,0.677c-0.057,0.587,0.004,9.933,0.004,9.933H53.301z"/>
<path fill="#F99F3D" d="M60.759,77.171h1.876c0,0,0.644,0.09,0.587,0.677c-0.057,0.587,0.004,9.933,0.004,9.933h-2.466V77.171z"/>
<ellipse fill="#E0E1E0" cx="58.314" cy="121.299" rx="34.442" ry="33.875"/>
<ellipse fill="#989897" cx="58.314" cy="121.299" rx="29.895" ry="29.403"/>
<ellipse fill="#CCCBCB" cx="58.314" cy="121.299" rx="21.94" ry="21.579"/>
<path fill="#E09326" d="M39.876,71.16c0,0-2.25,1.213-2.25,3.903c0,1.895,0.909,2.728,1.478,3.107s14.197,5.456,14.197,5.456v-2.956
	c0,0-12.323-3.88-12.832-4.585c-1.137-1.572,0.682-2.652,0.682-2.652L39.876,71.16"/>
<path fill="#E09326" d="M76.389,71.16c0,0,2.511,1.467,2.511,4.158c0,1.895-0.909,2.728-1.478,3.107
	c-0.568,0.379-14.197,5.456-14.197,5.456v-2.956c0,0,12.323-3.88,12.832-4.585c1.137-1.572-0.805-2.907-0.805-2.907l-1.281-2.273
	h2.077H76.389z"/>
<polygon fill="#AE2025" points="0,0 33.875,0 75.252,73.434 41.15,73.434 "/>
<polygon fill="#9D1F22" points="2.64,0 31.071,0 71.573,72.119 43.045,72.373 "/>
</svg>
