<?xml version="1.0" encoding="utf-8"?>
<!-- Generator: Adobe Illustrator 17.0.0, SVG Export Plug-In . SVG Version: 6.00 Build 0)  -->
<!DOCTYPE svg PUBLIC "-//W3C//DTD SVG 1.1//EN" "http://www.w3.org/Graphics/SVG/1.1/DTD/svg11.dtd">
<svg version="1.1" id="Layer_1" xmlns="http://www.w3.org/2000/svg" xmlns:xlink="http://www.w3.org/1999/xlink" x="0px" y="0px"
	 width="76.906px" height="120.247px" viewBox="0 0 76.906 120.247" enable-background="new 0 0 76.906 120.247"
	 xml:space="preserve">
<polygon fill="#AE2025" points="42.741,0.019 76.906,0 56.68,35.916 54.254,35.916 38.347,7.686 "/>
<polygon fill="#9D1F22" points="45.547,0.057 73.958,0 54.95,33.453 41.143,8.578 "/>
<polygon fill="#921A23" points="39.547,5.523 56.338,35.916 54.254,35.916 38.347,7.686 "/>
<path fill="#F9A91A" d="M33.505,52.6v-9.914c0,0,0.032-0.856,0.773-0.723s8.596-0.014,8.596-0.014s0.647,0.09,0.59,0.68
	s0.004,9.971,0.004,9.971H33.505z"/>
<path fill="#F99F3D" d="M40.991,41.949h1.883c0,0,0.647,0.09,0.59,0.68s0.004,9.971,0.004,9.971h-2.476V41.949z"/>
<ellipse fill="#FCDC57" cx="38.537" cy="86.244" rx="34.572" ry="34.003"/>
<ellipse fill="#F9A91A" cx="38.537" cy="86.244" rx="30.008" ry="29.514"/>
<ellipse fill="#FFCD0E" cx="38.537" cy="86.244" rx="22.023" ry="21.66"/>
<path fill="#E09326" d="M20.029,35.916c0,0-2.258,1.217-2.258,3.918c0,1.902,0.913,2.738,1.483,3.119
	c0.571,0.38,14.25,5.477,14.25,5.477v-2.967c0,0-12.369-3.895-12.881-4.602c-1.141-1.578,0.685-2.662,0.685-2.662L20.029,35.916"/>
<path fill="#E09326" d="M56.68,35.916c0,0,2.52,1.473,2.52,4.173c0,1.902-0.913,2.738-1.483,3.119
	c-0.571,0.38-14.25,5.477-14.25,5.477v-2.967c0,0,12.369-3.894,12.881-4.602c1.141-1.578-0.809-2.918-0.809-2.918l-1.286-2.282
	h2.085H56.68z"/>
<polygon fill="#AE2025" points="0,0.01 33.908,0 55.539,38.198 21.308,38.198 "/>
<polygon fill="#9D1F22" points="2.434,0.01 31.008,0.019 51.96,37.059 23.324,37.314 "/>
</svg>
