<?xml version="1.0" encoding="utf-8"?>
<!-- Generator: Adobe Illustrator 17.0.0, SVG Export Plug-In . SVG Version: 6.00 Build 0)  -->
<!DOCTYPE svg PUBLIC "-//W3C//DTD SVG 1.1//EN" "http://www.w3.org/Graphics/SVG/1.1/DTD/svg11.dtd">
<svg version="1.1" id="Layer_1" xmlns="http://www.w3.org/2000/svg" xmlns:xlink="http://www.w3.org/1999/xlink" x="0px" y="0px"
	 width="881.828px" height="634.812px" viewBox="-0.549 144.485 881.828 634.812"
	 enable-background="new -0.549 144.485 881.828 634.812" xml:space="preserve">
<rect x="-0.549" y="144.485" fill="#262628" width="826.485" height="560.196"/>
<path fill="#353437" d="M39.981,174.291c0,0-0.711-8.396,4.974-14.53c4.974-5.367,15.708-5.759,15.708-5.759l715.485,0.515
	c0,0,10.734,0.393,15.708,5.759c5.685,6.134,4.974,14.53,4.974,14.53l-0.154,495.316c0,0,0.711,8.396-4.974,14.53
	c-4.974,5.367-15.708,5.759-15.708,5.759l-714.807-0.253c0,0-10.734-0.393-15.708-5.759c-5.685-6.134-4.974-14.53-4.974-14.53
	L39.981,174.291z"/>
<ellipse fill="#FFFFFF" cx="733.972" cy="525.036" rx="16.811" ry="16.415"/>
<ellipse fill="#353437" cx="734.021" cy="525.118" rx="14.055" ry="13.724"/>
<path fill="#0B1B28" d="M743.266,537.14l11.78,12.369c0,0,2.084,1.319,3.338,0c1.243-1.309-0.131-3.141-0.131-3.141l-11.911-12.042
	L743.266,537.14z"/>
<path fill="#FAA81A" d="M737.997,494.097l31.924,98.251h103.307l-83.576,60.723l31.924,98.251L737.997,690.6l-83.578,60.722
	l31.924-98.251l-83.578-60.723h103.308L737.997,494.097z"/>
<path fill="#FAA81A" d="M820.894,520.601l-31.306,98.549l84.051,60.228l-103.4,0.679l-31.306,98.548l-32.598-98.128l-103.4,0.679
	l83.253-61.327L653.589,521.7l84.052,60.227L820.894,520.601z"/>
<polygon fill="#48474A" points="796.659,582.174 40.208,582.131 40.208,583.127 796.658,583.117 "/>
<path fill="#FAA81A" d="M781.658,500.829l0.244,103.402l98.416,31.721l-98.265,32.185l0.244,103.402l-60.976-83.51l-98.265,32.185
	l60.58-83.797l-60.975-83.51l98.417,31.721L781.658,500.829z"/>
<path fill="#FAA81A" d="M852.386,551.609l-60.029,84.193l61.521,83.108l-98.621-31.073l-60.029,84.193l-0.923-103.397
	l-98.623-31.073l98.052-32.83l-0.923-103.398l61.523,83.108L852.386,551.609z"/>
<polyline fill="#48474A" points="40.247,474.934 40.247,475.93 796.697,475.921 "/>
<polyline fill="#48474A" points="40.221,367.73 40.221,368.726 796.671,368.716 "/>
<polyline fill="#48474A" points="40.185,260.538 40.185,261.534 796.636,261.525 "/>
<path fill="#FCFDFF" d="M758.192,635.31l0.032-12.46c0,0,0.175-2.126-0.763-3.366c-1.148-1.517-2.994-1.506-2.994-1.506h-21.975
	h-0.677h-9.479c0,0-1.846-0.011-2.994,1.506c-0.938,1.24-0.763,3.366-0.763,3.366l0.032,12.46l-0.045,7.966v9.116
	c0,0-0.01,1.951,1.425,3.164c1.173,0.991,3.185,0.806,3.185,0.806l11.79-0.034h6.87l11.79,0.034c0,0,2.012,0.185,3.185-0.806
	c1.435-1.213,1.425-3.164,1.425-3.164v-9.116L758.192,635.31z M755.286,650.227c0,0,0.009,1.663-1.214,2.696
	c-1,0.845-2.715,0.687-2.715,0.687l-10.048-0.029h-5.855l-10.047,0.029c0,0-1.715,0.158-2.715-0.687
	c-1.223-1.034-1.214-2.696-1.214-2.696v-7.769l0.038-6.789l-0.027-10.618c0,0-0.149-1.812,0.65-2.869
	c0.978-1.293,2.551-1.284,2.551-1.284h6.284h14.852h6.247c0,0,1.573-0.009,2.551,1.284c0.799,1.057,0.65,2.869,0.65,2.869
	l-0.027,10.618l0.058,6.704L755.286,650.227z"/>
<path fill="#FFFFFF" d="M737.041,638.768c-0.558,0-7.004,0.01-7.456-0.002c-0.966-0.026-1.644-0.66-1.668-1.546
	c-0.024-0.897,0.685-1.601,1.661-1.632c0.453-0.015,6.9-0.003,7.464-0.003c0-0.492-0.052-5.788-0.044-6.234
	c0.018-1.038,0.685-1.756,1.614-1.748c0.906,0.008,1.546,0.703,1.568,1.716c0.01,0.431,0.047,5.713,0.047,6.265
	c0.531,0,5.851-0.008,6.339,0.008c0.809,0.027,1.435,0.529,1.593,1.251c0.208,0.951-0.459,1.851-1.452,1.917
	c-0.516,0.034-5.867,0.001-6.481,0.001c0,0.537-0.059,5.984-0.07,6.432c-0.024,1.026-0.648,1.699-1.569,1.704
	c-0.945,0.006-1.595-0.691-1.613-1.737C736.967,644.73,737.041,639.301,737.041,638.768z"/>
<text transform="matrix(1 0 0 1 80.2561 220.0646)" fill="#FFFFFF" font-family="'Corbel'" font-size="36.9134">Add to Reading List</text>
<text transform="matrix(1 0 0 1 80.2546 327.0065)" fill="#FFFFFF" font-family="'Corbel'" font-size="36.4077">Add Bookmark</text>
<text transform="matrix(1 0 0 1 79.633 434.4019)" fill="#FFFFFF" font-family="'Corbel'" font-size="36.4077">Add to Favourites</text>
<text transform="matrix(1 0 0 1 81.4963 540.5563)" fill="#FFFFFF" font-family="'Corbel'" font-size="37.419">Find on Page</text>
<text transform="matrix(1 0 0 1 79.634 647.9537)" fill="#FFFFFF" font-family="'Corbel'" font-size="37.419">Add to Home Screen</text>
<path fill="#FFFFFF" d="M738.604,335.378c0.404-0.036,1.597-0.29,1.597-0.29s4.157-2.853,9.699-2.853
	c5.869,0,9.454,2.934,9.454,2.934l1.211,0.591c0.658,0.036,1.353-0.761,1.353-0.761l0.157-35.737c0,0-3.86-4.962-11.598-4.962
	c-7.542,0-11.867,4.586-11.867,4.586h-0.111c0,0-4.349-4.586-11.89-4.586c-7.738,0-11.598,4.962-11.598,4.962l0.157,35.737
	c0,0,0.694,0.797,1.353,0.761l1.211-0.591c0,0,3.586-2.934,9.454-2.934c5.542,0,9.699,2.853,9.699,2.853s1.193,0.254,1.597,0.29
	C738.511,335.38,738.573,335.38,738.604,335.378z"/>
<path fill="#353437" d="M717.741,301.021c0,0,3.179-4.075,9.617-4.075c6.276,0,9.78,4.157,9.78,4.157l-0.081,30.726
	c0,0-4.157-2.853-9.699-2.853c-5.869,0-9.454,2.934-9.454,2.934L717.741,301.021z"/>
<path fill="#353437" d="M740.122,301.022c0,0,3.179-4.075,9.617-4.075c6.276,0,9.78,4.157,9.78,4.157l-0.082,30.726
	c0,0-4.156-2.853-9.699-2.853c-5.869,0-9.454,2.934-9.454,2.934L740.122,301.022z"/>
<ellipse fill="#FFFFFF" cx="722.974" cy="208.101" rx="11.979" ry="11.697"/>
<ellipse fill="#FFFFFF" cx="752.081" cy="208.301" rx="11.979" ry="11.697"/>
<ellipse fill="#353437" cx="752.046" cy="208.383" rx="9.14" ry="8.925"/>
<ellipse fill="#353437" cx="722.975" cy="208.129" rx="9.14" ry="8.925"/>
<rect x="707.595" y="206.392" fill="#FFFFFF" width="5.224" height="2.877"/>
<rect x="762.086" y="206.365" fill="#FFFFFF" width="5.224" height="2.877"/>
<rect x="734.225" y="205.684" fill="#FFFFFF" width="6.738" height="2.196"/>
<path fill="#FFFFFF" d="M753.13,441.204l-5.09-12.567c0,0-0.305-1.518-0.032-2.439c0.312-1.052,1.413-1.889,1.413-1.889
	l12.158-8.178c0.145-0.145,0.353-0.63,0.257-1.195s-0.932-0.84-0.932-0.84l-14.81-0.09c-1.172-0.081-2.056-0.598-2.682-1.163
	c-0.626-0.565-1.092-2.309-1.092-2.309l-3.514-12.941c0,0-0.321-0.791-1.108-0.888c-0.787-0.097-1.172,0.921-1.172,0.921
	l-3.794,13.134c0,0-0.771,1.986-1.558,2.632c-0.75,0.616-2.152,0.727-2.152,0.727l-14.639,0.141c0,0-0.787-0.032-0.964,0.711
	c-0.177,0.743,0.578,1.502,0.578,1.502l11.732,7.61c0,0,1.101,0.837,1.413,1.889c0.273,0.921-0.032,2.439-0.032,2.439l-4.861,12.638
	c0,0-0.369,1.922,0.225,2.196c0.725,0.335,1.751-0.291,1.751-0.291l11.752-8.52c0,0,0.683-0.501,1.534-0.533
	c0.851-0.032,1.831,0.666,1.831,0.666l11.512,8.186c0,0,1.562,0.856,2.108,0.307S753.13,441.204,753.13,441.204z"/>
<path fill="#353437" d="M750.188,438.302l-4.552-11.109c0,0-0.233-1.16-0.025-1.864c0.239-0.805,1.081-1.444,1.081-1.444
	l10.065-6.474c0.111-0.111,0.507-0.481,0.433-0.914s-0.729-0.388-0.729-0.388l-12.312-0.1c-0.896-0.062-1.572-0.457-2.051-0.889
	c-0.479-0.432-0.835-1.765-0.835-1.765l-2.687-9.893c0,0-0.246-0.605-0.847-0.679c-0.602-0.074-0.896,0.704-0.896,0.704l-2.9,10.041
	c0,0-0.589,1.519-1.191,2.012c-0.574,0.471-1.645,0.556-1.645,0.556l-11.191,0.108c0,0-1.276-0.1-1.411,0.468
	c-0.135,0.568,1.116,1.223,1.116,1.223l8.969,5.818c0,0,0.842,0.64,1.081,1.444c0.209,0.704-0.025,1.864-0.025,1.864l-4.187,10.778
	c0,0-0.573,1.358-0.118,1.568c0.554,0.256,1.45-0.473,1.45-0.473l9.633-7.268c0,0,0.522-0.383,1.173-0.407s1.4,0.509,1.4,0.509
	l9.988,7.285c0,0,0.796,0.804,1.213,0.385C750.606,438.977,750.188,438.302,750.188,438.302z"/>
</svg>
