<?xml version="1.0" encoding="utf-8"?>
<!-- Generator: Adobe Illustrator 24.0.1, SVG Export Plug-In . SVG Version: 6.00 Build 0)  -->
<svg version="1.1" id="Layer_1" xmlns="http://www.w3.org/2000/svg" xmlns:xlink="http://www.w3.org/1999/xlink" x="0px" y="0px"
	 viewBox="0 0 882.7 300.1" style="enable-background:new 0 0 882.7 300.1;" xml:space="preserve">
<style type="text/css">
	.st0{fill:#353437;}
	.st1{fill:#3474BA;}
	.st2{fill:#BDBEC0;}
	.st3{fill:#477FC1;}
	.st4{fill:#FAA81A;}
	.st5{fill:#F9FCFF;}
</style>
<rect y="49.5" class="st0" width="882.7" height="218.2"/>
<path class="st1" d="M56.5,148.3c1.7,1.7,3.3,3.3,4.9,4.9c1.5,1.5,9.8,9.2,11.3,10.8c1.2,1.3,1.4,2.3,0.5,3.3c-1,1-2.4,0.8-3.7-0.5
	c-3.8-3.7-13-12.5-16.7-16.2c-1.3-1.3-1.4-2.8,0-4.1c3.8-3.8,13.5-12.5,17.2-16.2c1.2-1.2,2.3-1.5,3.4-0.4c1.1,1.1,0.1,2.6-0.7,3.3
	c-3,3-12.6,11.5-15.6,14.5C56.9,147.8,56.7,148,56.5,148.3z"/>
<path class="st2" d="M259.9,148.1c-1.7,1.7-3.3,3.3-4.9,4.9c-1.5,1.5-9.8,9.2-11.3,10.8c-1.2,1.3-1.4,2.3-0.5,3.3
	c1,1,2.4,0.8,3.7-0.5c3.8-3.7,13-12.5,16.7-16.2c1.3-1.3,1.4-2.8,0-4.1c-3.8-3.8-13.5-12.5-17.2-16.2c-1.2-1.2-2.3-1.5-3.4-0.4
	c-1.1,1.1-0.1,2.6,0.7,3.3c3,3,12.6,11.5,15.6,14.5C259.5,147.7,259.6,147.9,259.9,148.1z"/>
<path class="st3" d="M795,161.3c0,0-3.3-0.1-4.9-1.8c-1.8-1.9-1.5-4.5-1.5-4.5l0.1-23.8c0,0-0.2-2.6,1.5-4.5
	c1.5-1.7,4.9-1.8,4.9-1.8l24.6,0c0,0,3.3,0.1,4.9,1.8c1.8,1.9,1.5,4.5,1.5,4.5l-0.1,23.8c0,0,0.2,2.6-1.5,4.5
	c-1.5,1.7-4.9,1.8-4.9,1.8L795,161.3z"/>
<path class="st0" d="M796.9,158.4c0,0-2.8-0.1-4.1-1.5c-1.5-1.6-1.3-3.8-1.3-3.8l0.1-20.3c0,0-0.2-2.2,1.3-3.8
	c1.3-1.4,4.1-1.5,4.1-1.5l21,0c0,0,2.8,0.1,4.1,1.5c1.5,1.6,1.3,3.8,1.3,3.8l-0.1,20.3c0,0,0.2,2.2-1.3,3.8
	c-1.3,1.4-4.1,1.5-4.1,1.5L796.9,158.4z"/>
<path class="st3" d="M805.7,171.9c0,0-3.3-0.1-4.9-1.8c-1.8-1.9-1.5-4.5-1.5-4.5l0.1-23.8c0,0-0.2-2.6,1.5-4.5
	c1.5-1.7,4.9-1.8,4.9-1.8l24.6,0c0,0,3.3,0.1,4.9,1.8c1.8,1.9,1.5,4.5,1.5,4.5l-0.1,23.8c0,0,0.2,2.6-1.5,4.5
	c-1.5,1.7-4.9,1.8-4.9,1.8L805.7,171.9z"/>
<path class="st0" d="M807.7,169c0,0-2.8-0.1-4.1-1.5c-1.5-1.6-1.3-3.8-1.3-3.8l0.1-20.3c0,0-0.2-2.2,1.3-3.8
	c1.3-1.4,4.1-1.5,4.1-1.5l21,0c0,0,2.8,0.1,4.1,1.5c1.5,1.6,1.3,3.8,1.3,3.8l-0.1,20.3c0,0,0.2,2.2-1.3,3.8
	c-1.3,1.4-4.1,1.5-4.1,1.5L807.7,169z"/>
<path class="st3" d="M626,169.8c0.4,0,1.7-0.3,1.7-0.3s4.4-3,10.2-3c6.2,0,10,3.1,10,3.1l1.3,0.6c0.7,0,1.4-0.8,1.4-0.8l0.2-37.7
	c0,0-4.1-5.2-12.2-5.2c-8,0-12.5,4.8-12.5,4.8h-0.1c0,0-4.6-4.8-12.5-4.8c-8.2,0-12.2,5.2-12.2,5.2l0.2,37.7c0,0,0.7,0.8,1.4,0.8
	l1.3-0.6c0,0,3.8-3.1,10-3.1c5.8,0,10.2,3,10.2,3s1.3,0.3,1.7,0.3C626,169.8,626,169.8,626,169.8z"/>
<path class="st0" d="M604,133.5c0,0,3.4-4.3,10.1-4.3c6.6,0,10.3,4.4,10.3,4.4l-0.1,32.4c0,0-4.4-3-10.2-3c-6.2,0-10,3.1-10,3.1
	L604,133.5z"/>
<path class="st0" d="M627.6,133.5c0,0,3.4-4.3,10.1-4.3c6.6,0,10.3,4.4,10.3,4.4L648,166c0,0-4.4-3-10.2-3c-6.2,0-10,3.1-10,3.1
	L627.6,133.5z"/>
<path class="st2" d="M595.5,250.9c0,0,4.5-0.2,4.5-5.7c0-4.4-4.5-4.9-4.5-4.9l-306.9,0c0,0-4.5,0.6-4.5,4.9c0,5.5,4.5,5.7,4.5,5.7
	L595.5,250.9z"/>
<path class="st4" d="M439.6,0l33.7,103.6h109l-88.1,64l33.7,103.6l-88.1-64l-88.1,64l33.7-103.6l-88.1-64h109L439.6,0z"/>
<path class="st4" d="M527,28l-33,103.9l88.6,63.5l-109.1,0.7l-33,103.9l-34.4-103.5l-109.1,0.7l87.8-64.7L350.5,29.1l88.6,63.5
	L527,28z"/>
<path class="st4" d="M485.6,7.1l0.3,109.1l103.8,33.5L486,183.6l0.3,109.1L422,204.5l-103.6,33.9l63.9-88.4L317.9,62l103.8,33.5
	L485.6,7.1z"/>
<path class="st4" d="M560.2,60.7l-63.3,88.8l64.9,87.6l-104-32.8l-63.3,88.8l-1-109l-104-32.8l103.4-34.6l-1-109l64.9,87.6
	L560.2,60.7z"/>
<path class="st5" d="M438.6,120.2l-8.7,9.5c0,0-0.9,1-0.2,1.7c0.7,0.7,1.6-0.3,1.6-0.3l6-6.3l-0.2,27.7c0,0,0.2,2,1.6,2
	c1.3,0,1.4-2,1.4-2l-0.2-27.7l6,6.3c0,0,0.9,0.9,1.6,0.3c0.7-0.7-0.2-1.7-0.2-1.7L438.6,120.2"/>
<path class="st5" d="M431.8,138.2h-6.3c0,0-1.6,0-2.6,1.2c-0.8,1-0.7,2.7-0.7,2.7l0,10l0,6.4v7.4c0,0,0,1.6,1.2,2.6
	c1,0.8,2.7,0.7,2.7,0.7l10,0h5.9l10,0c0,0,1.7,0.1,2.7-0.7c1.2-1,1.2-2.6,1.2-2.6l0-7.4l-0.1-6.3l0-10c0,0,0.1-1.7-0.7-2.7
	c-1-1.2-2.6-1.2-2.6-1.2h-6.2l0-2.8h8.6c0,0,1.8,0,3,1.4c0.9,1.2,0.8,3.2,0.8,3.2l0,11.8l0,7.5v8.6c0,0,0,1.8-1.4,3
	c-1.2,0.9-3.2,0.8-3.2,0.8l-11.8,0h-6.9l-11.8,0c0,0-2,0.2-3.2-0.8c-1.4-1.1-1.4-3-1.4-3v-8.6l0-7.5l0-11.8c0,0-0.2-2,0.8-3.2
	c1.1-1.4,3-1.4,3-1.4h8.6L431.8,138.2z"/>
</svg>
