<?xml version="1.0" encoding="utf-8"?>
<!-- Generator: Adobe Illustrator 24.0.1, SVG Export Plug-In . SVG Version: 6.00 Build 0)  -->
<svg version="1.1" id="Layer_1" xmlns="http://www.w3.org/2000/svg" xmlns:xlink="http://www.w3.org/1999/xlink" x="0px" y="0px"
	 viewBox="0 0 880.3 299.2" style="enable-background:new 0 0 880.3 299.2;" xml:space="preserve">
<style type="text/css">
	.st0{fill:#F3F3F3;}
	.st1{fill:#3474BA;}
	.st2{fill:#BDBEC0;}
	.st3{fill:#477FC1;}
	.st4{fill:#FAA81A;}
	.st5{fill:#F9FCFF;}
</style>
<rect y="49.4" class="st0" width="880.3" height="217.6"/>
<path class="st1" d="M56.3,147.8c1.7,1.7,3.3,3.3,4.9,4.9c1.5,1.5,9.8,9.2,11.3,10.8c1.2,1.3,1.4,2.3,0.5,3.3c-1,1-2.4,0.8-3.7-0.5
	c-3.7-3.7-12.9-12.4-16.7-16.1c-1.3-1.3-1.4-2.8,0-4.1c3.8-3.7,13.4-12.5,17.2-16.2c1.2-1.2,2.3-1.5,3.4-0.4
	c1.1,1.1,0.1,2.6-0.7,3.3c-3,3-12.6,11.4-15.6,14.4C56.7,147.4,56.5,147.6,56.3,147.8z"/>
<path class="st2" d="M259.2,147.7c-1.7,1.7-3.3,3.3-4.9,4.9c-1.5,1.5-9.8,9.2-11.3,10.8c-1.2,1.3-1.4,2.3-0.5,3.3
	c1,1,2.4,0.8,3.7-0.5c3.7-3.7,12.9-12.4,16.7-16.1c1.3-1.3,1.4-2.8,0-4.1c-3.8-3.7-13.4-12.5-17.2-16.2c-1.2-1.2-2.3-1.5-3.4-0.4
	c-1.1,1.1-0.1,2.6,0.7,3.3c3,3,12.6,11.4,15.6,14.4C258.7,147.3,258.9,147.4,259.2,147.7z"/>
<path class="st3" d="M792.8,160.9c0,0-3.3-0.1-4.8-1.8c-1.8-1.9-1.5-4.5-1.5-4.5l0.1-23.7c0,0-0.2-2.6,1.5-4.5
	c1.5-1.7,4.8-1.8,4.8-1.8l24.5,0c0,0,3.3,0.1,4.8,1.8c1.8,1.9,1.5,4.5,1.5,4.5l-0.1,23.7c0,0,0.2,2.6-1.5,4.5
	c-1.5,1.7-4.8,1.8-4.8,1.8L792.8,160.9z"/>
<path class="st0" d="M794.7,158c0,0-2.8-0.1-4.1-1.5c-1.5-1.6-1.3-3.8-1.3-3.8l0.1-20.3c0,0-0.2-2.2,1.3-3.8
	c1.3-1.4,4.1-1.5,4.1-1.5l21,0c0,0,2.8,0.1,4.1,1.5c1.5,1.6,1.3,3.8,1.3,3.8l-0.1,20.2c0,0,0.2,2.2-1.3,3.8
	c-1.3,1.4-4.1,1.5-4.1,1.5L794.7,158z"/>
<path class="st3" d="M803.5,171.4c0,0-3.3-0.1-4.8-1.8c-1.8-1.9-1.5-4.5-1.5-4.5l0.1-23.7c0,0-0.2-2.6,1.5-4.5
	c1.5-1.7,4.8-1.8,4.8-1.8l24.5,0c0,0,3.3,0.1,4.8,1.8c1.8,1.9,1.5,4.5,1.5,4.5l-0.1,23.7c0,0,0.2,2.6-1.5,4.5
	c-1.5,1.7-4.8,1.8-4.8,1.8L803.5,171.4z"/>
<path class="st0" d="M805.5,168.6c0,0-2.8-0.1-4.1-1.5c-1.5-1.6-1.3-3.8-1.3-3.8l0.1-20.3c0,0-0.2-2.2,1.3-3.8
	c1.3-1.4,4.1-1.5,4.1-1.5l21,0c0,0,2.8,0.1,4.1,1.5c1.5,1.6,1.3,3.8,1.3,3.8l-0.1,20.2c0,0,0.2,2.2-1.3,3.8
	c-1.3,1.4-4.1,1.5-4.1,1.5L805.5,168.6z"/>
<path class="st3" d="M624.3,169.3c0.4,0,1.7-0.3,1.7-0.3s4.4-3,10.2-3c6.2,0,9.9,3.1,9.9,3.1l1.3,0.6c0.7,0,1.4-0.8,1.4-0.8
	l0.2-37.6c0,0-4.1-5.2-12.2-5.2c-7.9,0-12.5,4.8-12.5,4.8h-0.1c0,0-4.6-4.8-12.5-4.8c-8.1,0-12.2,5.2-12.2,5.2l0.2,37.6
	c0,0,0.7,0.8,1.4,0.8l1.3-0.6c0,0,3.8-3.1,9.9-3.1c5.8,0,10.2,3,10.2,3s1.3,0.3,1.7,0.3C624.2,169.3,624.3,169.3,624.3,169.3z"/>
<path class="st0" d="M602.4,133.2c0,0,3.3-4.3,10.1-4.3c6.6,0,10.3,4.4,10.3,4.4l-0.1,32.3c0,0-4.4-3-10.2-3c-6.2,0-9.9,3.1-9.9,3.1
	L602.4,133.2z"/>
<path class="st0" d="M625.9,133.2c0,0,3.3-4.3,10.1-4.3c6.6,0,10.3,4.4,10.3,4.4l-0.1,32.3c0,0-4.4-3-10.2-3c-6.2,0-9.9,3.1-9.9,3.1
	L625.9,133.2z"/>
<path d="M593.8,250.2c0,0,4.5-0.2,4.5-5.7c0-4.4-4.5-4.9-4.5-4.9l-306,0c0,0-4.5,0.6-4.5,4.9c0,5.5,4.5,5.7,4.5,5.7L593.8,250.2z"/>
<path class="st4" d="M438.3,0l33.6,103.3h108.6l-87.9,63.9l33.6,103.3l-87.9-63.9l-87.9,63.9L384,167.2l-87.9-63.9h108.7L438.3,0z"
	/>
<path class="st4" d="M525.5,27.9l-32.9,103.6l88.4,63.3l-108.7,0.7l-32.9,103.6L405,196l-108.7,0.7l87.6-64.5L349.6,29L438,92.4
	L525.5,27.9z"/>
<path class="st4" d="M484.2,7.1l0.3,108.8L588,149.2L484.7,183l0.3,108.8L420.8,204l-103.3,33.8l63.7-88.1L317,61.9l103.5,33.4
	L484.2,7.1z"/>
<path class="st4" d="M558.6,60.5L495.5,149l64.7,87.4l-103.7-32.7l-63.1,88.5l-1-108.7l-103.7-32.7l103.1-34.5l-1-108.7L455.5,95
	L558.6,60.5z"/>
<path class="st5" d="M437.4,119.9l-8.7,9.5c0,0-0.9,1-0.2,1.7c0.7,0.7,1.6-0.3,1.6-0.3l6-6.3l-0.2,27.6c0,0,0.2,2,1.6,2
	c1.3,0,1.4-2,1.4-2l-0.2-27.6l6,6.3c0,0,0.9,0.9,1.6,0.3c0.7-0.7-0.2-1.7-0.2-1.7L437.4,119.9"/>
<path class="st5" d="M430.6,137.8h-6.3c0,0-1.6,0-2.5,1.2c-0.8,1-0.6,2.7-0.6,2.7l0,10l0,6.4v7.3c0,0,0,1.6,1.2,2.5
	c1,0.8,2.7,0.6,2.7,0.6l10,0h5.8l10,0c0,0,1.7,0.1,2.7-0.6c1.2-1,1.2-2.5,1.2-2.5l0-7.4l-0.1-6.3l0-10c0,0,0.1-1.7-0.6-2.7
	c-1-1.2-2.5-1.2-2.5-1.2h-6.2l0-2.8h8.6c0,0,1.8,0,3,1.4c0.9,1.2,0.8,3.2,0.8,3.2l0,11.8l0,7.5v8.6c0,0,0,1.8-1.4,3
	c-1.2,0.9-3.2,0.8-3.2,0.8l-11.8,0h-6.9l-11.8,0c0,0-2,0.2-3.2-0.8c-1.4-1.1-1.4-3-1.4-3v-8.6l0-7.5l0-11.8c0,0-0.2-2,0.8-3.2
	c1.1-1.4,3-1.4,3-1.4h8.6L430.6,137.8z"/>
</svg>
