<?xml version="1.0" encoding="utf-8"?>
<!-- Generator: Adobe Illustrator 24.0.1, SVG Export Plug-In . SVG Version: 6.00 Build 0)  -->
<svg version="1.1" id="Layer_1" xmlns="http://www.w3.org/2000/svg" xmlns:xlink="http://www.w3.org/1999/xlink" x="0px" y="0px"
	 viewBox="0 0 877.7 627" style="enable-background:new 0 0 877.7 627;" xml:space="preserve">
<style type="text/css">
	.st0{fill:#F3F3F3;}
	.st1{fill:#FFFFFF;}
	.st2{fill:#0B1B28;}
	.st3{fill:#FAA81A;}
	.st4{fill:#D6D6D6;}
	.st5{fill:#FCFDFF;}
	.st6{font-family:'Corbel';}
	.st7{font-size:36.5px;}
	.st8{font-size:36px;}
	.st9{font-size:37px;}
</style>
<rect class="st0" width="877.7" height="553.9"/>
<path class="st1" d="M40.1,29.5c0,0-0.7-8.3,4.9-14.4c4.9-5.3,15.5-5.7,15.5-5.7L768,9.9c0,0,10.6,0.4,15.5,5.7
	c5.6,6.1,4.9,14.4,4.9,14.4l-0.2,489.8c0,0,0.7,8.3-4.9,14.4c-4.9,5.3-15.5,5.7-15.5,5.7L61,539.6c0,0-10.6-0.4-15.5-5.7
	c-5.6-6.1-4.9-14.4-4.9-14.4L40.1,29.5z"/>
<ellipse cx="726.3" cy="376.3" rx="16.6" ry="16.2"/>
<ellipse class="st1" cx="726.3" cy="376.4" rx="13.9" ry="13.6"/>
<path class="st2" d="M735.5,388.3l11.6,12.2c0,0,2.1,1.3,3.3,0c1.2-1.3-0.1-3.1-0.1-3.1l-11.8-11.9L735.5,388.3z"/>
<path class="st3" d="M730.3,345.7l31.6,97.2H864l-82.6,60l31.6,97.2l-82.6-60l-82.6,60l31.6-97.2l-82.6-60h102.2L730.3,345.7z"/>
<path class="st3" d="M812.2,371.9l-31,97.4l83.1,59.6l-102.2,0.7l-31,97.4L699,530l-102.2,0.7L679,470l-32.2-97l83.1,59.6
	L812.2,371.9z"/>
<polygon class="st4" points="788.3,432.8 40.3,432.7 40.3,433.7 788.3,433.7 "/>
<path class="st3" d="M773.4,352.4l0.2,102.2L871,486l-97.2,31.8l0.2,102.2l-60.3-82.6l-97.2,31.8l59.9-82.9l-60.3-82.6l97.3,31.4
	L773.4,352.4z"/>
<path class="st3" d="M843.4,402.6L784,485.8l60.8,82.2l-97.5-30.7L688,620.5l-0.9-102.2l-97.5-30.7l97-32.5l-0.9-102.2l60.8,82.2
	L843.4,402.6z"/>
<polyline class="st4" points="40.3,326.7 40.3,327.7 788.3,327.7 "/>
<polyline class="st4" points="40.3,220.7 40.3,221.7 788.3,221.7 "/>
<polyline class="st4" points="40.3,114.8 40.3,115.7 788.3,115.7 "/>
<path class="st5" d="M750.2,485.3l0-12.3c0,0,0.2-2.1-0.8-3.3c-1.1-1.5-3-1.5-3-1.5h-21.7h-0.7h-9.4c0,0-1.8,0-3,1.5
	c-0.9,1.2-0.8,3.3-0.8,3.3l0,12.3l0,7.9v9c0,0,0,1.9,1.4,3.1c1.2,1,3.1,0.8,3.1,0.8l11.7,0h6.8l11.7,0c0,0,2,0.2,3.1-0.8
	c1.4-1.2,1.4-3.1,1.4-3.1v-9L750.2,485.3z M747.4,500.1c0,0,0,1.6-1.2,2.7c-1,0.8-2.7,0.7-2.7,0.7l-9.9,0h-5.8l-9.9,0
	c0,0-1.7,0.2-2.7-0.7c-1.2-1-1.2-2.7-1.2-2.7v-7.7l0-6.7l0-10.5c0,0-0.1-1.8,0.6-2.8c1-1.3,2.5-1.3,2.5-1.3h6.2H738h6.2
	c0,0,1.6,0,2.5,1.3c0.8,1,0.6,2.8,0.6,2.8l0,10.5l0.1,6.6L747.4,500.1z"/>
<path class="st1" d="M729.3,488.7c-0.6,0-6.9,0-7.4,0c-1,0-1.6-0.7-1.6-1.5c0-0.9,0.7-1.6,1.6-1.6c0.4,0,6.8,0,7.4,0
	c0-0.5-0.1-5.7,0-6.2c0-1,0.7-1.7,1.6-1.7c0.9,0,1.5,0.7,1.6,1.7c0,0.4,0,5.6,0,6.2c0.5,0,5.8,0,6.3,0c0.8,0,1.4,0.5,1.6,1.2
	c0.2,0.9-0.5,1.8-1.4,1.9c-0.5,0-5.8,0-6.4,0c0,0.5-0.1,5.9-0.1,6.4c0,1-0.6,1.7-1.6,1.7c-0.9,0-1.6-0.7-1.6-1.7
	C729.3,494.6,729.3,489.3,729.3,488.7z"/>
<text transform="matrix(1 0 0 1 79.8993 74.7323)" class="st6 st7">Add to Reading List</text>
<text transform="matrix(1 0 0 1 79.898 180.4774)" class="st6 st8">Add Bookmark</text>
<text transform="matrix(1 0 0 1 79.2835 286.6698)" class="st6 st8">Add to Favourites</text>
<text transform="matrix(1 0 0 1 81.1253 391.6356)" class="st6 st9">Find on Page</text>
<text transform="matrix(1 0 0 1 79.284 497.8295)" class="st6 st9">Add to Home Screen</text>
<path d="M730.9,188.8c0.4,0,1.6-0.3,1.6-0.3s4.1-2.8,9.6-2.8c5.8,0,9.3,2.9,9.3,2.9l1.2,0.6c0.7,0,1.3-0.8,1.3-0.8l0.2-35.3
	c0,0-3.8-4.9-11.5-4.9c-7.5,0-11.7,4.5-11.7,4.5h-0.1c0,0-4.3-4.5-11.8-4.5c-7.7,0-11.5,4.9-11.5,4.9l0.2,35.3c0,0,0.7,0.8,1.3,0.8
	l1.2-0.6c0,0,3.5-2.9,9.3-2.9c5.5,0,9.6,2.8,9.6,2.8s1.2,0.3,1.6,0.3C730.8,188.8,730.8,188.8,730.9,188.8z"/>
<path class="st1" d="M710.2,154.8c0,0,3.1-4,9.5-4c6.2,0,9.7,4.1,9.7,4.1l-0.1,30.4c0,0-4.1-2.8-9.6-2.8c-5.8,0-9.3,2.9-9.3,2.9
	L710.2,154.8z"/>
<path class="st1" d="M732.4,154.8c0,0,3.1-4,9.5-4c6.2,0,9.7,4.1,9.7,4.1l-0.1,30.4c0,0-4.1-2.8-9.6-2.8c-5.8,0-9.3,2.9-9.3,2.9
	L732.4,154.8z"/>
<ellipse cx="715.4" cy="62.9" rx="11.8" ry="11.6"/>
<ellipse cx="744.2" cy="63.1" rx="11.8" ry="11.6"/>
<ellipse class="st1" cx="744.2" cy="63.2" rx="9" ry="8.8"/>
<ellipse class="st1" cx="715.4" cy="62.9" rx="9" ry="8.8"/>
<rect x="700.2" y="61.2" width="5.2" height="2.8"/>
<rect x="754.1" y="61.2" width="5.2" height="2.8"/>
<rect x="726.5" y="60.5" width="6.7" height="2.2"/>
<path d="M745.2,293.4l-5-12.4c0,0-0.3-1.5,0-2.4c0.3-1,1.4-1.9,1.4-1.9l12-8.1c0.1-0.1,0.3-0.6,0.3-1.2c-0.1-0.6-0.9-0.8-0.9-0.8
	l-14.6-0.1c-1.2-0.1-2-0.6-2.7-1.1s-1.1-2.3-1.1-2.3l-3.5-12.8c0,0-0.3-0.8-1.1-0.9s-1.2,0.9-1.2,0.9l-3.8,13c0,0-0.8,2-1.5,2.6
	c-0.7,0.6-2.1,0.7-2.1,0.7l-14.5,0.1c0,0-0.8,0-1,0.7c-0.2,0.7,0.6,1.5,0.6,1.5l11.6,7.5c0,0,1.1,0.8,1.4,1.9c0.3,0.9,0,2.4,0,2.4
	l-4.8,12.5c0,0-0.4,1.9,0.2,2.2c0.7,0.3,1.7-0.3,1.7-0.3l11.6-8.4c0,0,0.7-0.5,1.5-0.5c0.8,0,1.8,0.7,1.8,0.7l11.4,8.1
	c0,0,1.5,0.8,2.1,0.3C745.6,294.7,745.2,293.4,745.2,293.4z"/>
<path class="st1" d="M742.3,290.5l-4.5-11c0,0-0.2-1.1,0-1.8c0.2-0.8,1.1-1.4,1.1-1.4l10-6.4c0.1-0.1,0.5-0.5,0.4-0.9
	c-0.1-0.4-0.7-0.4-0.7-0.4l-12.2-0.1c-0.9-0.1-1.6-0.5-2-0.9c-0.5-0.4-0.8-1.7-0.8-1.7l-2.7-9.8c0,0-0.2-0.6-0.8-0.7
	c-0.6-0.1-0.9,0.7-0.9,0.7l-2.9,9.9c0,0-0.6,1.5-1.2,2c-0.6,0.5-1.6,0.5-1.6,0.5l-11.1,0.1c0,0-1.3-0.1-1.4,0.5s1.1,1.2,1.1,1.2
	l8.9,5.8c0,0,0.8,0.6,1.1,1.4c0.2,0.7,0,1.8,0,1.8l-4.1,10.7c0,0-0.6,1.3-0.1,1.6c0.5,0.3,1.4-0.5,1.4-0.5l9.5-7.2
	c0,0,0.5-0.4,1.2-0.4c0.6,0,1.4,0.5,1.4,0.5l9.9,7.2c0,0,0.8,0.8,1.2,0.4S742.3,290.5,742.3,290.5z"/>
</svg>
