<?xml version="1.0" encoding="utf-8"?>
<!-- Generator: Adobe Illustrator 17.0.0, SVG Export Plug-In . SVG Version: 6.00 Build 0)  -->
<!DOCTYPE svg PUBLIC "-//W3C//DTD SVG 1.1//EN" "http://www.w3.org/Graphics/SVG/1.1/DTD/svg11.dtd">
<svg version="1.1" id="Layer_1" xmlns="http://www.w3.org/2000/svg" xmlns:xlink="http://www.w3.org/1999/xlink" x="0px" y="0px"
	 width="827.611px" height="281.322px" viewBox="0.865 136.158 827.611 281.322"
	 enable-background="new 0.865 136.158 827.611 281.322" xml:space="preserve">
<rect x="0.865" y="182.597" fill="#353437" width="827.611" height="204.59"/>
<path fill="#3474BA" d="M53.798,275.151c1.566,1.573,3.068,3.09,4.579,4.597c1.453,1.45,9.169,8.634,10.602,10.107
	c1.144,1.176,1.344,2.193,0.484,3.1c-0.906,0.938-2.296,0.725-3.474-0.441c-3.522-3.485-12.143-11.674-15.655-15.168
	c-1.263-1.257-1.277-2.59-0.021-3.842c3.53-3.518,12.627-11.73,16.169-15.235c1.133-1.121,2.174-1.369,3.169-0.363
	c1.002,1.013,0.137,2.483-0.644,3.104c-2.821,2.817-11.83,10.748-14.659,13.557C54.182,274.732,54.028,274.907,53.798,275.151z"/>
<path fill="#BDBEC0" d="M244.517,275.028c-1.566,1.573-3.068,3.09-4.579,4.597c-1.453,1.45-9.169,8.634-10.602,10.108
	c-1.144,1.176-1.344,2.193-0.484,3.1c0.906,0.938,2.296,0.725,3.474-0.441c3.522-3.485,12.143-11.674,15.655-15.168
	c1.263-1.257,1.277-2.59,0.021-3.842c-3.53-3.518-12.627-11.73-16.169-15.235c-1.133-1.121-2.174-1.369-3.169-0.363
	c-1.002,1.013-0.137,2.483,0.644,3.104c2.821,2.817,11.83,10.748,14.659,13.557C244.132,274.609,244.287,274.784,244.517,275.028z"
	/>
<path fill="#477FC1" d="M746.217,287.406c0,0-3.109-0.114-4.55-1.668c-1.647-1.777-1.441-4.209-1.441-4.209l0.119-22.295
	c0,0-0.206-2.432,1.441-4.209c1.441-1.555,4.55-1.668,4.55-1.668l23.044,0.039c0,0,3.109,0.114,4.55,1.668
	c1.647,1.777,1.441,4.209,1.441,4.209l-0.056,22.27c0,0,0.206,2.432-1.441,4.209c-1.441,1.555-4.55,1.668-4.55,1.668
	L746.217,287.406z"/>
<path fill="#353437" d="M748.046,284.711c0,0-2.658-0.097-3.89-1.426c-1.408-1.519-1.232-3.598-1.232-3.598l0.102-19.058
	c0,0-0.176-2.079,1.232-3.598c1.232-1.329,3.89-1.426,3.89-1.426l19.698,0.033c0,0,2.658,0.097,3.89,1.426
	c1.408,1.519,1.232,3.598,1.232,3.598l-0.048,19.036c0,0,0.176,2.079-1.232,3.598c-1.232,1.329-3.89,1.426-3.89,1.426
	L748.046,284.711z"/>
<path fill="#477FC1" d="M756.305,297.329c0,0-3.109-0.114-4.55-1.668c-1.647-1.777-1.441-4.209-1.441-4.209l0.119-22.295
	c0,0-0.206-2.432,1.441-4.209c1.441-1.555,4.55-1.668,4.55-1.668l23.044,0.039c0,0,3.109,0.114,4.55,1.668
	c1.647,1.777,1.441,4.209,1.441,4.209l-0.056,22.27c0,0,0.206,2.432-1.441,4.209c-1.441,1.555-4.55,1.668-4.55,1.668
	L756.305,297.329z"/>
<path fill="#353437" d="M758.134,294.633c0,0-2.658-0.097-3.89-1.426c-1.408-1.519-1.232-3.598-1.232-3.598l0.102-19.058
	c0,0-0.176-2.079,1.232-3.598c1.232-1.329,3.89-1.426,3.89-1.426l19.698,0.033c0,0,2.658,0.097,3.89,1.426
	c1.408,1.519,1.232,3.598,1.232,3.598l-0.048,19.036c0,0,0.176,2.079-1.232,3.598c-1.232,1.329-3.89,1.426-3.89,1.426
	L758.134,294.633z"/>
<path fill="#477FC1" d="M587.824,295.339c0.4-0.036,1.579-0.287,1.579-0.287s4.11-2.821,9.59-2.821c5.803,0,9.348,2.901,9.348,2.901
	l1.198,0.585c0.651,0.036,1.338-0.752,1.338-0.752l0.155-35.336c0,0-3.817-4.906-11.468-4.906c-7.457,0-11.734,4.535-11.734,4.535
	h-0.109c0,0-4.3-4.535-11.757-4.535c-7.651,0-11.468,4.906-11.468,4.906l0.155,35.336c0,0,0.687,0.788,1.338,0.752l1.198-0.585
	c0,0,3.545-2.901,9.348-2.901c5.48,0,9.59,2.821,9.59,2.821s1.179,0.251,1.579,0.287
	C587.733,295.342,587.794,295.342,587.824,295.339z"/>
<path fill="#353437" d="M567.195,261.368c0,0,3.143-4.029,9.509-4.029c6.205,0,9.671,4.11,9.671,4.11l-0.081,30.382
	c0,0-4.11-2.821-9.59-2.821c-5.803,0-9.348,2.901-9.348,2.901L567.195,261.368z"/>
<path fill="#353437" d="M589.325,261.368c0,0,3.143-4.029,9.509-4.029c6.205,0,9.671,4.11,9.671,4.11l-0.081,30.382
	c0,0-4.11-2.821-9.59-2.821c-5.803,0-9.348,2.901-9.348,2.901L589.325,261.368z"/>
<path fill="#BDBEC0" d="M559.138,371.348c0,0,4.213-0.201,4.213-5.373c0-4.101-4.193-4.636-4.193-4.636l-287.696-0.034
	c0,0-4.193,0.535-4.193,4.636c0,5.171,4.213,5.373,4.213,5.373L559.138,371.348z"/>
<path fill="#FAA81A" d="M412.97,136.158l31.566,97.151h102.15l-82.641,60.043l31.566,97.151L412.97,330.46l-82.642,60.042
	l31.566-97.151l-82.642-60.043h102.151L412.97,136.158z"/>
<path fill="#FAA81A" d="M494.939,162.365l-30.956,97.445l83.11,59.553l-102.242,0.671l-30.956,97.445l-32.233-97.029l-102.242,0.672
	l82.321-60.64l-32.233-97.03l83.11,59.553L494.939,162.365z"/>
<path fill="#FAA81A" d="M456.142,142.815l0.242,102.244l97.314,31.365l-97.165,31.825l0.242,102.244l-60.293-82.575l-97.165,31.825
	l59.902-82.859l-60.293-82.575l97.314,31.365L456.142,142.815z"/>
<path fill="#FAA81A" d="M526.078,193.026l-59.357,83.25l60.832,82.177l-97.517-30.725l-59.357,83.25l-0.913-102.239l-97.518-30.725
	l96.954-32.462l-0.913-102.24l60.834,82.177L526.078,193.026z"/>
<path fill="#F9FCFF" d="M412.117,248.869l-8.176,8.907c0,0-0.851,0.941-0.194,1.585c0.631,0.618,1.465-0.27,1.465-0.27l5.637-5.89
	l-0.146,25.942c0,0,0.183,1.847,1.462,1.847c1.23,0,1.344-1.847,1.344-1.847l-0.146-25.942l5.637,5.89c0,0,0.834,0.888,1.465,0.27
	c0.657-0.643-0.194-1.585-0.194-1.585l-8.176-8.907"/>
<path fill="#F9FCFF" d="M405.687,265.719h-5.891c0,0-1.475-0.008-2.392,1.139c-0.749,0.937-0.61,2.545-0.61,2.545l0.025,9.419
	l-0.036,6.022v6.892c0,0-0.008,1.475,1.139,2.392c0.937,0.749,2.545,0.61,2.545,0.61l9.419-0.025h5.489l9.419,0.025
	c0,0,1.607,0.14,2.545-0.61c1.147-0.917,1.139-2.392,1.139-2.392l0.018-6.966l-0.054-5.947l0.025-9.419c0,0,0.14-1.607-0.61-2.545
	c-0.917-1.147-2.392-1.139-2.392-1.139h-5.857l0.014-2.592h8.087c0,0,1.731-0.01,2.807,1.336c0.879,1.1,0.715,2.986,0.715,2.986
	l-0.03,11.053l0.042,7.066v8.087c0,0,0.01,1.731-1.336,2.807c-1.1,0.879-2.986,0.715-2.986,0.715l-11.053-0.03h-6.441l-11.053,0.03
	c0,0-1.886,0.164-2.986-0.715c-1.346-1.076-1.336-2.807-1.336-2.807v-8.087l0.042-7.066l-0.03-11.053c0,0-0.164-1.886,0.715-2.986
	c1.076-1.346,2.807-1.336,2.807-1.336h8.087L405.687,265.719z"/>
</svg>
