<?xml version="1.0" encoding="utf-8"?>
<!-- Generator: Adobe Illustrator 17.0.0, SVG Export Plug-In . SVG Version: 6.00 Build 0)  -->
<!DOCTYPE svg PUBLIC "-//W3C//DTD SVG 1.1//EN" "http://www.w3.org/Graphics/SVG/1.1/DTD/svg11.dtd">
<svg version="1.1" id="Layer_1" xmlns="http://www.w3.org/2000/svg" xmlns:xlink="http://www.w3.org/1999/xlink" x="0px" y="0px"
	 width="881.828px" height="634.812px" viewBox="-0.549 144.485 881.828 634.812"
	 enable-background="new -0.549 144.485 881.828 634.812" xml:space="preserve">
<rect x="-0.549" y="144.485" fill="#F3F3F3" width="827.388" height="560.808"/>
<path fill="#FFFFFF" d="M40.026,174.324c0,0-0.712-8.405,4.98-14.545c4.98-5.373,15.725-5.766,15.725-5.766l716.266,0.515
	c0,0,10.745,0.393,15.725,5.766c5.691,6.14,4.979,14.545,4.979,14.545l-0.154,495.857c0,0,0.712,8.405-4.979,14.545
	c-4.98,5.373-15.725,5.766-15.725,5.766l-715.587-0.254c0,0-10.745-0.393-15.725-5.766c-5.691-6.14-4.98-14.545-4.98-14.545
	L40.026,174.324z"/>
<ellipse cx="734.774" cy="525.452" rx="16.829" ry="16.433"/>
<ellipse fill="#FFFFFF" cx="734.823" cy="525.533" rx="14.07" ry="13.739"/>
<path fill="#0B1B28" d="M744.078,537.569l11.793,12.382c0,0,2.087,1.321,3.341,0c1.245-1.31-0.131-3.145-0.131-3.145l-11.924-12.055
	L744.078,537.569z"/>
<path fill="#FAA81A" d="M738.804,494.478l31.959,98.359h103.419l-83.668,60.789l31.959,98.358l-83.669-60.788l-83.669,60.788
	l31.959-98.358l-83.669-60.789h103.421L738.804,494.478z"/>
<path fill="#FAA81A" d="M821.791,521.012l-31.341,98.657l84.143,60.294l-103.512,0.68l-31.341,98.656l-32.634-98.235l-103.513,0.68
	l83.344-61.394l-32.634-98.236l84.143,60.293L821.791,521.012z"/>
<polygon fill="#D6D6D6" points="797.529,582.652 40.252,582.609 40.252,583.606 797.528,583.596 "/>
<path fill="#FAA81A" d="M782.512,501.218l0.245,103.515l98.524,31.755l-98.373,32.22l0.245,103.515l-61.042-83.602l-98.373,32.22
	l60.647-83.889l-61.042-83.602l98.524,31.755L782.512,501.218z"/>
<path fill="#FAA81A" d="M853.317,552.053l-60.094,84.285l61.588,83.199l-98.729-31.107l-60.094,84.285l-0.924-103.51l-98.73-31.107
	l98.159-32.866l-0.924-103.511l61.59,83.199L853.317,552.053z"/>
<polyline fill="#D6D6D6" points="40.292,475.295 40.292,476.292 797.568,476.282 "/>
<polyline fill="#D6D6D6" points="40.265,367.974 40.265,368.97 797.542,368.961 "/>
<polyline fill="#D6D6D6" points="40.23,260.665 40.23,261.662 797.506,261.653 "/>
<path fill="#FCFDFF" d="M759.02,635.846l0.032-12.474c0,0,0.175-2.129-0.764-3.37c-1.149-1.519-2.997-1.508-2.997-1.508h-21.999
	h-0.678h-9.49c0,0-1.848-0.011-2.997,1.508c-0.939,1.241-0.764,3.37-0.764,3.37l0.032,12.474l-0.045,7.975v9.126
	c0,0-0.01,1.953,1.427,3.167c1.175,0.992,3.189,0.807,3.189,0.807l11.803-0.034h6.878l11.803,0.034c0,0,2.014,0.185,3.189-0.807
	c1.437-1.214,1.427-3.167,1.427-3.167v-9.126L759.02,635.846z M756.111,650.78c0,0,0.009,1.664-1.216,2.699
	c-1.001,0.846-2.718,0.688-2.718,0.688l-10.059-0.029h-5.861l-10.058,0.029c0,0-1.717,0.158-2.718-0.688
	c-1.224-1.035-1.216-2.699-1.216-2.699v-7.777l0.038-6.796l-0.027-10.63c0,0-0.149-1.814,0.651-2.872
	c0.979-1.294,2.554-1.285,2.554-1.285h6.291h14.868h6.254c0,0,1.575-0.009,2.554,1.285c0.8,1.058,0.651,2.872,0.651,2.872
	l-0.027,10.63l0.058,6.712L756.111,650.78z"/>
<path fill="#FFFFFF" d="M737.846,639.307c-0.559,0-7.012,0.01-7.464-0.002c-0.967-0.026-1.646-0.661-1.669-1.548
	c-0.024-0.898,0.686-1.602,1.663-1.634c0.453-0.015,6.908-0.003,7.472-0.003c0-0.492-0.052-5.795-0.044-6.24
	c0.018-1.039,0.685-1.758,1.615-1.75c0.908,0.008,1.547,0.703,1.57,1.718c0.01,0.431,0.047,5.719,0.047,6.272
	c0.532,0,5.857-0.008,6.346,0.008c0.81,0.027,1.437,0.529,1.595,1.253c0.209,0.952-0.459,1.853-1.454,1.919
	c-0.517,0.034-5.874,0.001-6.488,0.001c0,0.538-0.059,5.991-0.07,6.439c-0.024,1.027-0.649,1.7-1.571,1.706
	c-0.946,0.006-1.597-0.692-1.615-1.739C737.772,645.276,737.846,639.841,737.846,639.307z"/>
<text transform="matrix(1 0 0 1 80.344 220.1467)" font-family="'Corbel'" font-size="36.9537">Add to Reading List</text>
<text transform="matrix(1 0 0 1 80.343 327.2068)" font-family="'Corbel'" font-size="36.4475">Add Bookmark</text>
<text transform="matrix(1 0 0 1 79.7204 434.7184)" font-family="'Corbel'" font-size="36.4475">Add to Favourites</text>
<text transform="matrix(1 0 0 1 81.5852 540.989)" font-family="'Corbel'" font-size="37.4599">Find on Page</text>
<text transform="matrix(1 0 0 1 79.7214 648.5026)" font-family="'Corbel'" font-size="37.4599">Add to Home Screen</text>
<path d="M739.411,335.586c0.405-0.036,1.599-0.291,1.599-0.291s4.161-2.856,9.709-2.856c5.875,0,9.464,2.937,9.464,2.937
	l1.213,0.592c0.659,0.036,1.354-0.762,1.354-0.762l0.157-35.776c0,0-3.865-4.967-11.611-4.967c-7.55,0-11.88,4.591-11.88,4.591
	h-0.111c0,0-4.353-4.591-11.903-4.591c-7.746,0-11.611,4.967-11.611,4.967l0.157,35.776c0,0,0.695,0.798,1.354,0.762l1.213-0.592
	c0,0,3.589-2.937,9.464-2.937c5.548,0,9.709,2.856,9.709,2.856s1.194,0.254,1.599,0.291
	C739.318,335.589,739.38,335.589,739.411,335.586z"/>
<path fill="#FFFFFF" d="M718.525,301.192c0,0,3.182-4.079,9.628-4.079c6.282,0,9.791,4.161,9.791,4.161l-0.082,30.759
	c0,0-4.161-2.856-9.709-2.856c-5.875,0-9.464,2.937-9.464,2.937L718.525,301.192z"/>
<path fill="#FFFFFF" d="M740.93,301.193c0,0,3.182-4.079,9.628-4.079c6.282,0,9.791,4.161,9.791,4.161l-0.082,30.759
	c0,0-4.161-2.856-9.709-2.856c-5.875,0-9.464,2.937-9.464,2.937L740.93,301.193z"/>
<ellipse cx="723.764" cy="208.171" rx="11.992" ry="11.71"/>
<ellipse cx="752.902" cy="208.371" rx="11.992" ry="11.71"/>
<ellipse fill="#FFFFFF" cx="752.868" cy="208.453" rx="9.15" ry="8.935"/>
<ellipse fill="#FFFFFF" cx="723.765" cy="208.198" rx="9.15" ry="8.935"/>
<rect x="708.368" y="206.46" width="5.23" height="2.88"/>
<rect x="762.919" y="206.433" width="5.23" height="2.88"/>
<rect x="735.027" y="205.75" width="6.746" height="2.198"/>
<path d="M753.953,441.528l-5.095-12.58c0,0-0.305-1.52-0.032-2.441c0.313-1.054,1.415-1.892,1.415-1.892l12.172-8.187
	c0.145-0.146,0.354-0.63,0.257-1.196c-0.096-0.566-0.933-0.841-0.933-0.841l-14.826-0.09c-1.174-0.081-2.058-0.598-2.685-1.164
	c-0.627-0.566-1.093-2.312-1.093-2.312l-3.518-12.955c0,0-0.322-0.792-1.109-0.889c-0.788-0.097-1.174,0.922-1.174,0.922
	l-3.798,13.149c0,0-0.772,1.988-1.56,2.635c-0.751,0.617-2.155,0.727-2.155,0.727l-14.655,0.142c0,0-0.788-0.032-0.965,0.711
	s0.579,1.504,0.579,1.504l11.744,7.618c0,0,1.102,0.838,1.415,1.892c0.273,0.922-0.032,2.441-0.032,2.441l-4.867,12.652
	c0,0-0.37,1.924,0.225,2.199c0.725,0.335,1.753-0.291,1.753-0.291l11.765-8.529c0,0,0.683-0.501,1.536-0.534
	c0.852-0.032,1.833,0.667,1.833,0.667l11.524,8.195c0,0,1.564,0.857,2.11,0.307S753.953,441.528,753.953,441.528z"/>
<path fill="#FFFFFF" d="M751.008,438.623l-4.557-11.121c0,0-0.234-1.162-0.025-1.866c0.239-0.805,1.082-1.446,1.082-1.446
	l10.076-6.481c0.111-0.111,0.507-0.482,0.434-0.915c-0.074-0.433-0.73-0.389-0.73-0.389l-12.325-0.101
	c-0.897-0.062-1.573-0.457-2.053-0.89c-0.479-0.433-0.836-1.767-0.836-1.767l-2.69-9.904c0,0-0.246-0.606-0.848-0.68
	c-0.602-0.074-0.897,0.704-0.897,0.704l-2.903,10.052c0,0-0.59,1.52-1.192,2.015c-0.574,0.471-1.647,0.556-1.647,0.556
	l-11.203,0.108c0,0-1.277-0.1-1.412,0.469c-0.135,0.569,1.117,1.225,1.117,1.225l8.978,5.824c0,0,0.843,0.641,1.082,1.446
	c0.209,0.704-0.025,1.866-0.025,1.866l-4.191,10.79c0,0-0.573,1.36-0.118,1.57c0.555,0.256,1.452-0.474,1.452-0.474l9.643-7.276
	c0,0,0.522-0.383,1.174-0.408s1.401,0.51,1.401,0.51l9.999,7.293c0,0,0.797,0.805,1.215,0.385
	C751.426,439.299,751.008,438.623,751.008,438.623z"/>
</svg>
