<?xml version="1.0" encoding="utf-8"?>
<!-- Generator: Adobe Illustrator 17.0.0, SVG Export Plug-In . SVG Version: 6.00 Build 0)  -->
<!DOCTYPE svg PUBLIC "-//W3C//DTD SVG 1.1//EN" "http://www.w3.org/Graphics/SVG/1.1/DTD/svg11.dtd">
<svg version="1.1" id="cropped_volcanic_1_" xmlns="http://www.w3.org/2000/svg" xmlns:xlink="http://www.w3.org/1999/xlink"
	 x="0px" y="0px" width="414px" height="896px" viewBox="0 0 414 896" enable-background="new 0 0 414 896" xml:space="preserve">
<linearGradient id="SVGID_1_" gradientUnits="userSpaceOnUse" x1="207.6386" y1="1666.1191" x2="207.6386" y2="-184.5549">
	<stop  offset="0" style="stop-color:#A93B23"/>
	<stop  offset="0.0516" style="stop-color:#A94124"/>
	<stop  offset="0.1568" style="stop-color:#A94924"/>
	<stop  offset="0.4852" style="stop-color:#ED7420"/>
	<stop  offset="0.7417" style="stop-color:#AA202C"/>
	<stop  offset="0.8408" style="stop-color:#5A1C39"/>
	<stop  offset="0.9827" style="stop-color:#260025"/>
</linearGradient>
<rect x="-0.377" y="-4.439" fill="url(#SVGID_1_)" width="416.031" height="900.89"/>
<path opacity="0.02" fill="#CFDEF2" d="M332.482,379.837c-58.569,3.448-176.528-1.637-235.294,0
	c-23.695,0.66-65.194,2.535-97.565,4.748v21.851c1.421-0.053,2.788-0.09,4.075-0.105c31.665-0.365,94.443,6.817,126.075,7.792
	c40.123,1.237,120.513,0,160.684,0c31.042,0,78.697,0.583,125.197,0.815v-53.671C376.793,371.533,345.384,379.077,332.482,379.837z"
	/>
<g opacity="0.4">
	<linearGradient id="SVGID_2_" gradientUnits="userSpaceOnUse" x1="3.0922" y1="441.2803" x2="3.0922" y2="71.2531">
		<stop  offset="0.2448" style="stop-color:#2B0010"/>
		<stop  offset="0.3266" style="stop-color:#330016"/>
		<stop  offset="0.4385" style="stop-color:#421127"/>
		<stop  offset="0.5678" style="stop-color:#542D3E"/>
		<stop  offset="0.71" style="stop-color:#684E5E"/>
		<stop  offset="0.861" style="stop-color:#7C7B8A"/>
		<stop  offset="1" style="stop-color:#8BB2C5"/>
	</linearGradient>
	<path fill="url(#SVGID_2_)" d="M-0.377,213.958v5.691c2.237-1.052,4.625-1.93,6.939-2.798
		C4.95,215.533,2.474,214.605-0.377,213.958z"/>
</g>
<g opacity="0.4">
	<linearGradient id="SVGID_3_" gradientUnits="userSpaceOnUse" x1="193.8606" y1="441.2803" x2="193.8606" y2="71.2531">
		<stop  offset="0.2448" style="stop-color:#2B0010"/>
		<stop  offset="0.3266" style="stop-color:#330016"/>
		<stop  offset="0.4385" style="stop-color:#421127"/>
		<stop  offset="0.5678" style="stop-color:#542D3E"/>
		<stop  offset="0.71" style="stop-color:#684E5E"/>
		<stop  offset="0.861" style="stop-color:#7C7B8A"/>
		<stop  offset="1" style="stop-color:#8BB2C5"/>
	</linearGradient>
	<path fill="url(#SVGID_3_)" d="M371.833,330.034c2.866-7.165-6.21-10.031-11.464-6.21c4.777-3.821,9.195-15.796,1.075-14.841
		c0.478-7.643-12.539-6.176-17.316-3.31c2.866-2.866,3.344-7.643,1.911-11.464c-11.458-6.852-37.857,7.817-39.744,8.555
		c-2.462,0.962-6.734,2.087-6.734,2.087c0-8.5-9-6.5-13-10.5c-4-3.5-2-10-9-11.5c1-3,0.5-3,0.5-6.5c3.5,0.5,8,0,11-2.5
		c4.5,5,9,12.5,16.5,9c0,14.5,17,13.5,25.5,8c1.5-1,2.5-4,3.5-4.5c1.5-1,2.5,0.5,3.5,0.5c3-1.5,6-0.5,9-4c6.5-6.5,1.5-13-7-13.5
		c9-6.5-14.5-9-17.5-9c-6.5,0-13.5-0.5-20.5,1c-1.5-5-7-7.5-11-3.5c-0.5-5-2.5-10.5-8.5-10.5c4.5-4,14.5-11.5,15-17.5
		c7,1,14.5-7,14-14l0.5-9.5c4-3,3.5-8-0.5-10.5c4-4.5,6.5-16-1.5-16c0-0.5,1-1,0-1.5c-5-1.5-8,2.5-11,6c6.5-8.5,0.5-19-9.5-13.5
		c-5-8-17.5-1.5-12,4c-6,0.5-6,6.5-6.5,11.5c-2.5-2.5-6.5-3.5-9,0c-5.5-10-27-13.5-34.5-5c-3.5-3.5-11-1.5-15,0.5
		c4.5-5,10.5-8.5,16-13c7-6.5,7.5-13,11.5-19.5c-3,8,7.5,25,13.5,12.5c7,3.5,21.5-4,25-10.5c11,8,47.5-26.5,38.5-34
		c7.5-9.5-2.19-16.718-12.69-16.718c0,0-0.764-4.404-1.31-5.782c-3.633-9.168-18.219-5.16-26.719-4.66c0-6-3.781-7.34-7.281-9.34
		c-2.5-1-7.5-4-10.5-5c-7.5-1.5-16,5.5-19,11.5c-7.5-7-9.5,3-9.5,8.5c-7-15-13.5,14.5-14.5,16.5c-1.5-6.5-1.5-14-10.5-15
		c2.5-5.5,1.5-14.5-6.5-15.5c-6.5-1-11,7.5-14,12c-3.5-1.5-6.5,0.5-8.5,4c-4.5-12-31.5-21-42.5-14.5c-5-13-33,13-13.5,22
		c-3,6,3,8.5,5.5,13c-8.5-2-20-0.5-27,4.5c-3.5-3.5-8-4-12.5-3.5c-0.5,0-2.5-2.5-2.5-3c4.5-4.5,7-9,5.5-15.5c8.5,1,10.5-10,2-11.5
		c4.5-4.5,0-17-5.5-18c-8.5-1.5-15,14.5-14,21c-21.5-4.5-16.5,24-8.5,21c-3,5,3,8.5,6,11.5c-2,2.5-0.5,3.5,1,5.5l3.5,9
		c-2.5,2,0.5,5-0.5,9c-2-5-8-10-11.5-4c-7-1-4.5,7.5-3,11.5c-4-6.5-6.5,3-9,7c-3.5,5.5-8,9-6,16c-8.5-2-9.5,6.5-6,11.5
		c-9.5,1,0,11,1.5,15c1,4-1.5,12.5,5.5,13.5c0,5.5,3,12,6.5,16c1.5,1.5,6,5.5,8.5,5.5c5.5,0,2.5-1.5,2.5-4.5c0-2.5-3-5.5-3-8
		c0.5-4,3-2.5,4-6c2-4.5,3.5-10.5-2.5-13.5c4.5,0.5,5.5-3,6-6.5c4,1.5,9,0,12.5,2c3,2.5,2.5,7,7.5,8c-3,9.5,8,7,11,11.5
		c-5.5,2-8,7.5-3,12c-2.5,3,0,6.5,1.5,9.5c-5.5-0.5-30,6-20,15c-8-6.5-12.5,6-14,12c-3-8-10.5-6.5-17-5.5c-0.5-6-6.5-9-11.5-8.5
		c1-1.5,1-4,2-5.5c-10.5-0.5-13,10-18,15.5c1-4.5,1.5-10.5-3-13.5c11.5-7-1.5-15-10-11.5c3.26-7.408-0.159-10.24-4.939-10.806
		v93.462c3.936-2.313,6.751-6.2,6.939-11.656c15,9,46.5,3.5,51.5-14.5c1,3.5,4,5.5,6.5,2.5c3,7.5,30,15,33,4
		c19.5,5,53.5-9,45.5-33.5c2.5,4.5,10.5,9.5,13.5,3c4.5,6.5,21,8,27.5,9.5c10.5,3,25.466,2.789,29.466-12.711
		c9.5,2.5,14.534-4.289,14.534-10.289l10.5-34c1,7.5,14,19,22,16c0,3.5,1,4.5,3,7c-7-3.5-22.5,0.5-16,10.5c-2,2.5-2,6,0.5,8.5
		c-10.5,0.5-4.5,15,4.5,12c-0.5,4.5,2.5,7,7,7.5c-5.5,0.5-9.5,5.5-5,10c-1.5,2.5,0,3,2.5,4l11.5,0.5c-7,0.5-13.5,10-6.5,14
		c-5.5,1-5.5,6.5-4,10.5c-6.5-2-10.5,9-9,14c-4.5-2-24.5-1-19,8c3.5-1,3,0,5.5,1c-4,0.5-6.5,2.5-5.5,6.5c-17,0.5-7,17.5,1,9
		c0.415,9.123,13.502,2.223,14.798-5.218c0.161-0.927-0.599-3.714-0.599-3.714s2.577,1.296,5.256,1.016
		c3.38-0.353,6.262-2.354,9.544-3.084c-3.5,3.5-10,6.5-7.5,12c-4.5,1-12,8-5.5,11c-5,6,3,9,7.5,5
		c0.948,5.216,7.286,5.031,10.498,2.44c-0.021,4.477-0.334,10.661-4.998,12.06c2.5,0.5,1.5,1.5,5,1c0,6.5-1.5,9.5,3,15.5
		s20.444-9.552,17.663-18.126c-1.807-5.573,8.133-8.585,5.422-9.941c-5.955-2.978-4.597-3.334-5.724-11.598
		c-0.465-3.411,5.375-15.223,4.953-14.093c-1.209,3.241-2.203,10.231-2.034,13.686c0.223,4.57,9.869,23.227,22.659,11.267
		c3.049-2.851,7.428-7.49,7.428-7.49c-2.159,5.861,8.102,13.901,7.602,9.901l3.085,2.468c2,2,4.091,8.853,6.091,11.353
		c-4-1.5-8.5,2.5-9.5,6.5c-5-2.5-13.5,2-8.5,7c-3.5,1-4,4.5-0.5,6.5c-1.5,2-1,3.5-1.5,6c5-1,13.5,1,6.5,7c4.5,2,4,2.5,9.5,3
		c4,0,8.5-3,10.5,3c3-1,11.445-6.242,12.945-9.242s4.033-11.364,9.533-14.864c5.5-4,10.711-2.757,12.711,1.743
		c-0.615-6.458-1.743-10.148,4.203-8.406c0-10-15.392-6.231-19.392-8.231c4-3,14.5-12,9-16.5c1-5-3.5-11-8.5-11
		c5.5-4,10.5-0.5,15.5-3.5c3,3,4.5,2,4-2c0,0-0.74-6.718-2.318-10.071l7.252-5.77C392.85,345.797,377.565,333.378,371.833,330.034z"
		/>
</g>
<g opacity="0.2">
	<linearGradient id="SVGID_4_" gradientUnits="userSpaceOnUse" x1="296.2993" y1="122.9863" x2="532.9823" y2="122.9863">
		<stop  offset="0.0386" style="stop-color:#FEC673"/>
		<stop  offset="0.3337" style="stop-color:#FFC40C"/>
		<stop  offset="0.7296" style="stop-color:#F58231"/>
		<stop  offset="0.7743" style="stop-color:#F38731"/>
		<stop  offset="0.8436" style="stop-color:#F0952E"/>
		<stop  offset="0.9283" style="stop-color:#ECAC27"/>
		<stop  offset="1" style="stop-color:#E7C21F"/>
	</linearGradient>
	<path fill="url(#SVGID_4_)" d="M415.654,82.288c-0.057,0.03-0.115,0.057-0.171,0.088c0.597-6.868-7.466-11.049-11.646-5.077
		c0.299-7.764-13.14,2.09-14.932,4.181l-6.271,3.285c-10.452,7.167-15.827,12.841-21.501,23.89c-0.026,0.051-0.055,0.099-0.082,0.15
		c-7.305-4.03-9.792,10.188-13.252,15.132c-4.5,6-8.5,11-16,15c3.5-3,9-11.5,4-14.5c4.5-6,12.5-16,3.5-22.5c-4.5-2.5-11-1-15.5,1
		l2.5,10.5c6.5,17.5-18.5,37-30,45c6,1,14,4.5,19.5,0.5c0,5.5,5,8,9.5,5c-6.5,10.5,15.5,7.5,19.5,6.5
		c5.3-1.514,10.471-4.556,15.581-7.456l7.024,3.01c-0.299,0.597,11.348,1.493,17.619,0c4.778-1.195,8.66-5.674,13.737-6.271
		c-0.299,6.57,6.271,8.66,10.75,4.181c0.112,3.125,2.685,5.165,6.144,6.432V82.288z"/>
</g>
<path opacity="0.1" fill="#CFDEF2" d="M172.204,470.114c-17.51-3.773-53.971-0.408-71.592,2.807
	c-1.092,0.199-4.211,1.404-4.211,1.404s-12.157-12.194-17.547-13.336c-6.704-1.419-20.543,3.252-26.671,6.317
	c-1.226,0.613-4.211,3.509-4.211,3.509s-33.505-9.312-44.92-11.23c-1.048-0.176-2.203-0.343-3.428-0.503v10.894
	c27.119,3.447,51.814,6.394,71.51,8.559c11.719,1.288,35.349,1.889,47.026,3.509c26.076,3.619,76.984,18.411,103.176,21.056
	c4.19,0.423,15.878,4.099,16.845,0C242.417,485.155,190.231,473.998,172.204,470.114z"/>
<path opacity="0.01" fill="#CFDEF2" d="M277.488-4.439c-47.953,14.49-117.86,29.177-155.983,37.146
	C91.382,39.003,31.212,49.62-0.377,53.04v100.24c13.504,1.319,23.943,2.251,29.739,2.642
	c64.137,4.327,189.864-40.012,254.141-39.101c31.85,0.451,93.531,21.07,125.33,22.936c2.08,0.122,4.378,0.186,6.823,0.211V-4.439
	H277.488z"/>
<linearGradient id="SVGID_5_" gradientUnits="userSpaceOnUse" x1="306.4295" y1="491.0108" x2="480.7179" y2="491.0108">
	<stop  offset="0" style="stop-color:#822034"/>
	<stop  offset="0.081" style="stop-color:#7C1D36"/>
	<stop  offset="0.2422" style="stop-color:#721737"/>
	<stop  offset="0.3923" style="stop-color:#6C1338"/>
	<stop  offset="0.5192" style="stop-color:#6A1138"/>
	<stop  offset="0.5383" style="stop-color:#6C1338"/>
	<stop  offset="0.6945" style="stop-color:#7E1E37"/>
	<stop  offset="0.8204" style="stop-color:#8A2435"/>
	<stop  offset="0.8995" style="stop-color:#8E2634"/>
</linearGradient>
<path fill="url(#SVGID_5_)" d="M415.654,530.015c-11.669-5.641-23.725-11.487-30.426-17.168
	c-11.108-9.418-27.61-33.879-36.179-45.654c-5.528-7.596-19.009-27.597-29.27-35.292c-1.548-1.161-9.173-3.249-13.154-6.77
	c-2.685-2.375,23.019,31.724,23.019,31.724s19.266,44.26,26.56,49.845c3.433,2.629,8.206,5.119,13.317,7.333
	c4.559,1.975,9.382,3.601,13.843,6.949c7.647,5.74,5.136,15.916,12.562,22.349c8.705,7.541,13.775,10.413,19.727,13.68V530.015z"/>
<g>
	<linearGradient id="SVGID_6_" gradientUnits="userSpaceOnUse" x1="207.6386" y1="1267.1969" x2="207.6386" y2="494.6339">
		<stop  offset="0" style="stop-color:#A93B23"/>
		<stop  offset="0.1547" style="stop-color:#792C34"/>
		<stop  offset="0.4094" style="stop-color:#3D133E"/>
		<stop  offset="0.5239" style="stop-color:#27043E"/>
		<stop  offset="0.572" style="stop-color:#451342"/>
		<stop  offset="0.6387" style="stop-color:#6E1D42"/>
		<stop  offset="0.689" style="stop-color:#8B223F"/>
		<stop  offset="0.7167" style="stop-color:#96233C"/>
		<stop  offset="1" style="stop-color:#AB302D"/>
	</linearGradient>
	<path opacity="0.8" fill="url(#SVGID_6_)" d="M409.307,627.734c-25.163-12.198-69.997-49.352-97.377-55.039
		c-9.899-2.056-30.118,4.64-40.221,4.234c-8.608-0.347-25.31-5.382-33.87-6.351c-6.579-0.744-22.641-6.465-26.461-1.058
		c-3.289,4.655,9.098,15.504,8.468,21.169c-1.137,10.213-15.395,27.288-23.286,33.87c-10.914,9.104-37.694,22.18-51.864,23.286
		c-36.671,2.862-101.354-28.453-145.073-40.516v289.123h416.031V631.11C413.297,629.794,411.147,628.626,409.307,627.734z"/>
</g>
<linearGradient id="SVGID_7_" gradientUnits="userSpaceOnUse" x1="207.6386" y1="1108.8075" x2="207.6386" y2="565.1888">
	<stop  offset="0" style="stop-color:#210008"/>
	<stop  offset="0.513" style="stop-color:#391022"/>
	<stop  offset="0.562" style="stop-color:#3D1023"/>
	<stop  offset="0.6265" style="stop-color:#4A0D28"/>
	<stop  offset="0.6742" style="stop-color:#57042C"/>
	<stop  offset="0.7116" style="stop-color:#661030"/>
	<stop  offset="0.7638" style="stop-color:#771B33"/>
	<stop  offset="0.8139" style="stop-color:#842134"/>
	<stop  offset="0.8603" style="stop-color:#8B2534"/>
	<stop  offset="0.8995" style="stop-color:#8E2634"/>
</linearGradient>
<path fill="url(#SVGID_7_)" d="M383.626,645.182c-14.222,1.946-41.594,11.29-55.705,13.926c-10.347,1.933-31.315,4.078-41.779,5.222
	c-13.904,1.52-41.855,3.266-55.705,5.222c-17.543,2.479-69.631,13.191-69.631,13.191s-21.376-15.516-29.593-18.414
	c-11.322-3.992-81.138,9.583-131.589,18.422v213.698h416.031V643.95C403.601,643.961,391.575,644.095,383.626,645.182z"/>
<linearGradient id="SVGID_8_" gradientUnits="userSpaceOnUse" x1="239.4797" y1="833.2318" x2="255.8351" y2="833.2318">
	<stop  offset="0" style="stop-color:#210008"/>
	<stop  offset="0.513" style="stop-color:#391022"/>
	<stop  offset="0.562" style="stop-color:#3D1023"/>
	<stop  offset="0.6265" style="stop-color:#4A0D28"/>
	<stop  offset="0.6742" style="stop-color:#57042C"/>
	<stop  offset="0.7116" style="stop-color:#661030"/>
	<stop  offset="0.7638" style="stop-color:#771B33"/>
	<stop  offset="0.8139" style="stop-color:#842134"/>
	<stop  offset="0.8603" style="stop-color:#8B2534"/>
	<stop  offset="0.8995" style="stop-color:#8E2634"/>
</linearGradient>
<path opacity="0.05" fill="url(#SVGID_8_)" d="M239.534,830.662c0.235-0.367,1.277-0.285,1.711-0.326
	c0.629-0.059,1.928,0.202,2.526,0c0.826-0.28,1.894-0.706,2.28-1.487c0.199-0.402,2.242-0.093,2.654,0.083
	c1.111,0.473,1.478,0.473,7.041,4.663c0.357,0.269-0.465,1.272-0.733,1.629c-0.659,0.878-1.234,1.3-2.264,1.68
	c-1.663,0.613-4.329,1.532-5.598,0.296c-0.555-0.54-4.113-1.527-4.461-2.219c-0.621-1.237-2.027-1.889-2.831-3.016
	C239.665,831.692,239.353,830.945,239.534,830.662z"/>
<linearGradient id="SVGID_9_" gradientUnits="userSpaceOnUse" x1="261.703" y1="783.8717" x2="267.3097" y2="783.8717">
	<stop  offset="0" style="stop-color:#210008"/>
	<stop  offset="0.513" style="stop-color:#391022"/>
	<stop  offset="0.562" style="stop-color:#3D1023"/>
	<stop  offset="0.6265" style="stop-color:#4A0D28"/>
	<stop  offset="0.6742" style="stop-color:#57042C"/>
	<stop  offset="0.7116" style="stop-color:#661030"/>
	<stop  offset="0.7638" style="stop-color:#771B33"/>
	<stop  offset="0.8139" style="stop-color:#842134"/>
	<stop  offset="0.8603" style="stop-color:#8B2534"/>
	<stop  offset="0.8995" style="stop-color:#8E2634"/>
</linearGradient>
<path opacity="0.05" fill="url(#SVGID_9_)" d="M262.129,779.129c-0.887-0.268-0.135,2.79,0,3.706
	c0.122,0.829,0.408,2.584,0.964,3.212c0.465,0.525,2.002,0.712,2.569,1.124c0.391,0.284,0.833,1.617,1.285,1.445
	c0.752-0.286,0.123-2.423,0-3.218c-0.122-0.789-0.519-2.382-0.964-3.045C265.284,781.31,263.574,779.565,262.129,779.129z"/>
<linearGradient id="SVGID_10_" gradientUnits="userSpaceOnUse" x1="64.8236" y1="736.9489" x2="251.2536" y2="629.3135">
	<stop  offset="0" style="stop-color:#210008"/>
	<stop  offset="0.513" style="stop-color:#391022"/>
	<stop  offset="0.562" style="stop-color:#3D1023"/>
	<stop  offset="0.6265" style="stop-color:#4A0D28"/>
	<stop  offset="0.6742" style="stop-color:#57042C"/>
	<stop  offset="0.7116" style="stop-color:#661030"/>
	<stop  offset="0.7638" style="stop-color:#771B33"/>
	<stop  offset="0.8139" style="stop-color:#842134"/>
	<stop  offset="0.8603" style="stop-color:#8B2534"/>
	<stop  offset="0.8995" style="stop-color:#8E2634"/>
</linearGradient>
<path fill="url(#SVGID_10_)" d="M9.628,641.009c1.043-3.35,21.454,3.55,29.593,5.222c3.997,0.821,86.181,6.093,91.307,6.302
	c17.757,0.725,25.209,16.128,40.993,24.297c18.626,9.639,27.794-6.636,46.612,2.623c4.861,2.392,23.353-9.489,28.19-7.047
	c4.004,2.022,19.999,6.552,23.022,9.867c10.78,11.82,10.382,25.038,13.155,27.25c4.275,3.409,12.994,7.86,21.143,12.216
	c11.426,6.108-26.286,14.697-31.224,13.911c-16.39-2.607-28.174-10.702-43.01-18.14c-9.344-4.685-28.72,3.154-37.746-2.118
	c-12.265-7.166-36.785-21.754-47.791-30.734c-4.375-3.57-5.773-13.69-10.724-16.406c-3.937-2.16-18.15-3.525-22.64-3.432
	c-7.225,0.15-21.993-6.538-23.991-6.523C81.521,658.336,8.143,645.78,9.628,641.009z"/>
<linearGradient id="SVGID_11_" gradientUnits="userSpaceOnUse" x1="207.6386" y1="1666.0686" x2="207.6386" y2="398.011">
	<stop  offset="0" style="stop-color:#210008"/>
	<stop  offset="0.3982" style="stop-color:#391022"/>
	<stop  offset="0.5156" style="stop-color:#4B0C28"/>
	<stop  offset="0.6225" style="stop-color:#57042C"/>
	<stop  offset="0.656" style="stop-color:#610D2F"/>
	<stop  offset="0.7274" style="stop-color:#741933"/>
	<stop  offset="0.794" style="stop-color:#832134"/>
	<stop  offset="0.8534" style="stop-color:#8B2434"/>
	<stop  offset="0.8995" style="stop-color:#8E2634"/>
</linearGradient>
<path fill="url(#SVGID_11_)" d="M385.428,513.002c-14.733-12.528-35.098-46.222-47.556-61.015
	c-4.296-5.101-12.743-15.567-17.946-19.74c-2.821-2.263-10.746-4.05-12.562-7.178c-2.252-3.88,3.423-15.046,0-17.946
	c-4.164-3.528-16.084,3.299-21.535,3.589c-7.629,0.406-23.163,0.31-30.508-1.795c-5.404-1.548-14.316-12.242-19.74-10.767
	c-2.227,0.606-3.563,5.938-4.75,7.917c-1.504,2.507-5.237,7.211-6.017,10.029c-1.677,6.053,2.617,15.565,1.136,21.669
	c-1.904,7.849-26.972,29.728-32.254,35.838c-11.095,12.832-10.557,44.289-25.684,51.964c-18.292,9.282-119.429,76.86-168.39,105.463
	v265.421h416.031V531.22C404.139,525.438,392.023,518.61,385.428,513.002z"/>
<linearGradient id="SVGID_12_" gradientUnits="userSpaceOnUse" x1="-29.3096" y1="520.9768" x2="245.0152" y2="520.9768">
	<stop  offset="0.2462" style="stop-color:#57042C"/>
	<stop  offset="0.3713" style="stop-color:#661030"/>
	<stop  offset="0.5462" style="stop-color:#771B33"/>
	<stop  offset="0.7136" style="stop-color:#842134"/>
	<stop  offset="0.8688" style="stop-color:#8B2534"/>
	<stop  offset="1" style="stop-color:#8E2634"/>
</linearGradient>
<path fill="url(#SVGID_12_)" d="M244.602,450.753c-1.073-2.268-8.919-11.394-10.574-13.279c-1.596-1.817-3.062-7.862-3.791-10.168
	c-1.516-4.801,0.01-20.138,0.01-20.138s-5.355,8.318-6.089,11.484c-1.045,4.512,2.113,14.14,0.597,18.516
	c-4.24,12.244-26.438,28.714-33.352,39.672c-7.031,11.144-17.961,45.957-21.811,47.981C124.93,548.303,43.095,600.535-0.377,628.699
	v6.088c29.264-12.502,72.642-29.74,90.445-30.248c2.797-0.08,19.717,11.945,22.232,9.502c2.173-2.11,16.18-4.148,24.837-12.788
	c9.652-9.633,16.917-24.557,37.871-43.035c18.209-16.057,53.766-19.643,58.528-30.494c4.951-11.281,2.497-48.505,3.935-60.741
	C238.128,461.387,247.011,455.846,244.602,450.753z"/>
<linearGradient id="SVGID_13_" gradientUnits="userSpaceOnUse" x1="267.931" y1="949.6602" x2="267.931" y2="535.8362">
	<stop  offset="0" style="stop-color:#430024"/>
	<stop  offset="0.4227" style="stop-color:#660F32"/>
	<stop  offset="0.5455" style="stop-color:#6B1333"/>
	<stop  offset="0.7547" style="stop-color:#791C35"/>
	<stop  offset="1" style="stop-color:#8E2634"/>
</linearGradient>
<path fill="url(#SVGID_13_)" d="M187.975,896.451c35.116-42.105,80.126-97.251,94.403-113.287
	c8.915-10.014,17.556-36.493,20.42-49.591c1.949-8.913,0.067-27.448,1.459-36.464c0.317-2.055,2.188-8.022,2.188-8.022
	s18.249,3.26,22.608,7.293c8.102,7.496,38.586,48.548,49.604,47.878c7.55-0.459-23.983-28.691-24.808-36.21
	c-0.765-6.972-9.507-18.788-13.127-24.796c-5.351-8.879-18.28-25.227-23.337-34.276c-2.827-5.058-7.393-15.744-9.481-21.149
	c-3.385-8.767-11.279-26.345-11.669-35.735c-0.418-10.086,9.312-39.291,9.312-39.291l-7.674-16.965c0,0-5.943,28.534-11.119,36.565
	c-4.339,6.732-17.85,16.099-24.066,21.149c-3.538,2.874-14.586,10.939-14.586,10.939s1.833-16.017-2.188-18.232
	c-3.714-2.046-12.109,4.517-15.315,7.293c-8.946,7.745-20.472,29.058-26.254,39.381c-3.274,5.846-11.732,17.644-11.247,24.327
	c0.373,5.133,9.378,12.447,11.247,17.242c3.221,8.267,6.548,26.162,5.834,35.006c-1.052,13.045-7.36,40.499-16.774,49.591
	c-4.107,3.967-16.562,4.479-21.879,6.564c-8.803,3.451-12.566,105.536-15.487,130.789H187.975z"/>
<linearGradient id="SVGID_14_" gradientUnits="userSpaceOnUse" x1="332.2426" y1="566.9379" x2="332.2426" y2="485.5802">
	<stop  offset="0" style="stop-color:#741933"/>
	<stop  offset="0.0374" style="stop-color:#771B33"/>
	<stop  offset="0.2182" style="stop-color:#842134"/>
	<stop  offset="0.3863" style="stop-color:#8B2534"/>
	<stop  offset="0.5285" style="stop-color:#8E2634"/>
</linearGradient>
<path fill="url(#SVGID_14_)" d="M310.798,490.193c0,0-1.973,16.336-2.02,21.812c-0.046,5.367,0.211,16.228,1.616,21.408
	c1.265,4.664,5.379,13.664,8.482,17.368c2.97,3.545,11.715,7.595,14.945,10.906c1.115,1.143,3.635,5.251,3.635,5.251
	s-3.267-17.6-2.423-23.427c0.532-3.675,2.34-12.06,5.655-13.733c3.345-1.689,12.425,6.728,14.541,3.635
	c2.864-4.185-7.78-13.36-11.714-16.561c-3.332-2.712-12.619-3.927-15.753-6.867c-2.899-2.719-5.679-10.495-7.271-14.137
	c-1.061-2.429-3.231-8.886-3.231-10.098S310.798,490.193,310.798,490.193z"/>
<linearGradient id="SVGID_15_" gradientUnits="userSpaceOnUse" x1="369.7686" y1="590.1984" x2="369.7686" y2="551.3173">
	<stop  offset="0" style="stop-color:#822034"/>
	<stop  offset="0.1447" style="stop-color:#811F36"/>
	<stop  offset="0.3648" style="stop-color:#7D1D3B"/>
	<stop  offset="0.5192" style="stop-color:#7A1A3F"/>
	<stop  offset="0.6483" style="stop-color:#7B1B3F"/>
	<stop  offset="0.7637" style="stop-color:#7E1D3D"/>
	<stop  offset="0.8739" style="stop-color:#84213A"/>
	<stop  offset="0.9802" style="stop-color:#8C2535"/>
	<stop  offset="1" style="stop-color:#8E2634"/>
</linearGradient>
<path fill="url(#SVGID_15_)" d="M359.619,551.35c-1.061,0.302-2.739,2.289-2.824,3.388c-0.095,1.231,1.654,3.377,2.541,4.235
	c0.522,0.505,2.401,0.699,2.541,1.412c0.175,0.887-2.198,1.922-2.259,2.824c-0.138,2.053,3.169,5.299,4.236,7.059
	c1.543,2.548,4.37,7.825,6.212,10.165c0.865,1.098,3.059,2.879,3.953,3.953c0.877,1.054,1.947,3.787,3.106,4.518
	c1.149,0.724,4.59,1.962,5.365,0.847c1.479-2.128-3.92-6.719-5.083-9.036c-1.872-3.728-4.802-11.573-6.777-15.248
	c-1.863-3.467-5.367-10.851-8.471-13.271C361.632,551.786,360.263,551.167,359.619,551.35z"/>
<linearGradient id="SVGID_16_" gradientUnits="userSpaceOnUse" x1="387.2495" y1="682.0635" x2="387.2495" y2="508.9752">
	<stop  offset="0" style="stop-color:#822034"/>
	<stop  offset="0.1713" style="stop-color:#801F35"/>
	<stop  offset="0.4319" style="stop-color:#791B39"/>
	<stop  offset="0.5192" style="stop-color:#771A3A"/>
	<stop  offset="0.659" style="stop-color:#781B3A"/>
	<stop  offset="0.7839" style="stop-color:#7D1D39"/>
	<stop  offset="0.9028" style="stop-color:#852137"/>
	<stop  offset="1" style="stop-color:#8E2634"/>
</linearGradient>
<path fill="url(#SVGID_16_)" d="M415.654,587.9c-11.549-13.352-25.514-34.709-31.675-47.563c-0.763-1.591-2.499-5.091-1.977-6.777
	c0.297-0.958,2.848-1.572,3.106-2.541c0.409-1.533-0.953-5.03-2.259-5.93c-1.337-0.921-5.01,0.657-6.494,0
	c-1.919-0.849-4.242-4.653-5.647-6.212c-1.774-1.969-5.007-6.23-7.059-7.906c-0.759-0.62-2.43-2.182-3.388-1.977
	c-0.594,0.127-1.373,1.371-1.412,1.977c-0.144,2.238,3.134,5.953,4.235,7.906c1.088,1.93,3.932,5.487,4.518,7.624
	c0.653,2.383-0.568,7.478,0,9.883c1.269,5.377,7.544,14.761,9.883,19.766c6.063,12.974,14.217,41.11,22.872,52.52
	c1.486,1.959,5.234,5.636,7.624,6.212c0.983,0.237,3.34-0.044,3.953-0.847c0.772-1.011-0.391-3.815-0.282-5.083
	c0.081-0.938-0.08-3.504,0.847-3.671c1.16-0.209,2.203,0.589,3.156,1.894V587.9z"/>
<linearGradient id="SVGID_17_" gradientUnits="userSpaceOnUse" x1="212.9814" y1="503.8943" x2="212.9814" y2="428.5902">
	<stop  offset="0" style="stop-color:#822034"/>
	<stop  offset="0.4671" style="stop-color:#862234"/>
	<stop  offset="1" style="stop-color:#8E2634"/>
</linearGradient>
<path fill="url(#SVGID_17_)" d="M224.581,438.259c-0.898,3.259-4.926,8.865-6.494,11.859c-1.318,2.517-3.984,7.545-5.083,10.165
	c-2.02,4.818-6.371,14.558-6.777,19.766c-0.095,1.215,1.25,3.65,0.847,4.8c-0.778,2.218-5.929,4.151-7.059,6.212
	c-1.546,2.819-4.718,11.027-1.977,12.706c1.336,0.819,3.983-2.554,5.083-3.671c3.2-3.252,8.54-10.82,10.448-14.965
	c2.591-5.63,3.922-18.242,6.212-24.001c1.459-3.67,6.43-10.071,7.624-13.836c0.773-2.437,1.073-7.609,1.129-10.165
	c0.047-2.122,1.329-7.512-0.565-8.471c-0.821-0.416-2.648,1.178-3.106,1.977C223.915,432.289,225.088,436.42,224.581,438.259z"/>
<linearGradient id="SVGID_18_" gradientUnits="userSpaceOnUse" x1="401.4178" y1="748.835" x2="401.4178" y2="652.4355">
	<stop  offset="0" style="stop-color:#6C1628"/>
	<stop  offset="0.1713" style="stop-color:#6D162B"/>
	<stop  offset="0.4319" style="stop-color:#6E1532"/>
	<stop  offset="0.5192" style="stop-color:#6F1535"/>
	<stop  offset="0.659" style="stop-color:#6F1635"/>
	<stop  offset="0.7839" style="stop-color:#711733"/>
	<stop  offset="0.9028" style="stop-color:#751A2E"/>
	<stop  offset="1" style="stop-color:#791C29"/>
</linearGradient>
<path fill="url(#SVGID_18_)" d="M415.654,710.178c-3.413-2.563-7.073-5.156-8.738-7.441c-2.533-3.476-5.882-11.606-6.777-15.812
	c-1.028-4.834,1.194-15.049-0.282-19.766c-1.322-4.223-5.53-15.477-9.883-14.683c-2.309,0.421-2.261,6.706-2.541,9.036
	c-0.735,6.101,0.321,18.443,0.847,24.566c0.354,4.118,0.419,12.676,2.259,16.377c1.688,3.397,7.664,8.496,10.73,10.73
	c2.501,1.822,9.133,3.19,11.012,5.647c1.447,1.891,0.893,7.197,1.977,9.318c0.331,0.647,0.815,1.35,1.396,2.084V710.178z"/>
<g>
	<linearGradient id="SVGID_19_" gradientUnits="userSpaceOnUse" x1="278.4224" y1="431.1345" x2="297.3695" y2="431.1345">
		<stop  offset="0" style="stop-color:#822034"/>
		<stop  offset="0.1713" style="stop-color:#801F35"/>
		<stop  offset="0.4319" style="stop-color:#791B39"/>
		<stop  offset="0.5192" style="stop-color:#771A3A"/>
		<stop  offset="0.659" style="stop-color:#781B3A"/>
		<stop  offset="0.7839" style="stop-color:#7D1D39"/>
		<stop  offset="0.9028" style="stop-color:#852137"/>
		<stop  offset="1" style="stop-color:#8E2634"/>
	</linearGradient>
	<path fill="url(#SVGID_19_)" d="M278.422,417.835c1.009,0.314,1.45,0.926,0.992,1.89c0.387,0.279,0.685,0.846,0.928,1.08
		c6.375,1.355,7.82,6.864,8.643,12.337c4.727,0.051,3.429,11.819,5.448,14.978c0.818-2.116,0.554-5.834,0.985-8.23
		c0.286-2.44,2.04-5.529,1.948-7.771c-0.082-1.765-1.551-3.645-2.444-5.346c-0.902-2.178-1.525-4.744-2.661-6.679
		c-1.334-2.313-5.262-5.434-8.422-5.945c-0.125,0.909-0.782,1.495-1.781,1.658L278.422,417.835z"/>
</g>
<g>
	<linearGradient id="SVGID_20_" gradientUnits="userSpaceOnUse" x1="298.861" y1="456.6421" x2="356.6991" y2="456.6421">
		<stop  offset="0" style="stop-color:#822034"/>
		<stop  offset="0.1713" style="stop-color:#801F35"/>
		<stop  offset="0.4319" style="stop-color:#791B39"/>
		<stop  offset="0.5192" style="stop-color:#771A3A"/>
		<stop  offset="0.659" style="stop-color:#781B3A"/>
		<stop  offset="0.7839" style="stop-color:#7D1D39"/>
		<stop  offset="0.9028" style="stop-color:#852137"/>
		<stop  offset="1" style="stop-color:#8E2634"/>
	</linearGradient>
	<path fill="url(#SVGID_20_)" d="M354.797,477.253c-1.007-3.227-3.411-5.701-4.69-7.681c-1.776-2.925-3.785-5.606-5.75-8.432
		c-3.379-4.373-6.614-8.702-10.083-12.787c-3.811-4.508-8.469-8.331-12.235-12.983c-2.983-3.617-6.729-4.785-11.25-6.511
		c-1.972-0.773-3.188-1.942-4.566-1.581c-2.143,0.281-2.925,1.776-5.339,0.391c-0.135,0.432-0.702,0.73-0.981,1.117l-1.042,2.837
		c5.088,1.428,7.514,8.35,7.797,13.022c2.917,0.277,1.884,3.591,3.677,4.94c0.874,0.747,2.161,0.674,3.215,0.844
		c1.486,0.305,1.873,0.584,3.458,1.078c3.026,0.943,4.815-2.767,7.068,0.148c1.667,2.259,2.597,5.868,2.176,8.741
		c4.105,0.015,5.726-0.112,8.555,2.983c2.631,2.717,4.073,5.696,7.172,7.927c4.161,2.878,7.522,6.297,11.171,9.806
		c2.477,2.195,2.3,1.924,3.265,4.912c0.631,0.57,0.027-3.965-0.028-4.298L354.797,477.253z"/>
</g>
<g opacity="0.4">
	<linearGradient id="SVGID_21_" gradientUnits="userSpaceOnUse" x1="359.1195" y1="190.5954" x2="688.9292" y2="190.5954">
		<stop  offset="0" style="stop-color:#2B0010"/>
		<stop  offset="0.1722" style="stop-color:#2E0013"/>
		<stop  offset="0.2658" style="stop-color:#39001A"/>
		<stop  offset="0.3154" style="stop-color:#3F0922"/>
		<stop  offset="0.5587" style="stop-color:#400D24"/>
		<stop  offset="0.7076" style="stop-color:#46172C"/>
		<stop  offset="0.8312" style="stop-color:#4F2537"/>
		<stop  offset="0.9403" style="stop-color:#5A3647"/>
		<stop  offset="1" style="stop-color:#614253"/>
	</linearGradient>
	<path fill="url(#SVGID_21_)" d="M415.654,184.647c-1.902-0.477-4.077-0.206-6.252,0.61c2.716-16.839-21.652-3.366-30.886-1.737
		c-3.259-4.889-6.999-3.84-12.431-2.21c0,0-8.767,3.511-6.63,4.973c5.249,3.591,21.088,8.784,26.52,5.525
		c0.829-4.696,13.536,13.536,24.514,12.461c1.708-0.167,3.441-0.315,5.165-0.5V184.647z"/>
</g>
<g opacity="0.2">
	
		<linearGradient id="SVGID_22_" gradientUnits="userSpaceOnUse" x1="800.2581" y1="1111.6708" x2="800.2581" y2="1082.0996" gradientTransform="matrix(0.8581 0.5135 -0.5135 0.8581 263.0168 -931.2487)">
		<stop  offset="0.0386" style="stop-color:#FEC673"/>
		<stop  offset="0.2424" style="stop-color:#FFC40C"/>
		<stop  offset="0.2636" style="stop-color:#FDB818"/>
		<stop  offset="0.3095" style="stop-color:#FAA425"/>
		<stop  offset="0.3593" style="stop-color:#F8952C"/>
		<stop  offset="0.4141" style="stop-color:#F68B2F"/>
		<stop  offset="0.4777" style="stop-color:#F58431"/>
		<stop  offset="0.5708" style="stop-color:#F58231"/>
		<stop  offset="0.6417" style="stop-color:#F38731"/>
		<stop  offset="0.7517" style="stop-color:#F0952E"/>
		<stop  offset="0.8863" style="stop-color:#ECAC27"/>
		<stop  offset="1" style="stop-color:#E7C21F"/>
	</linearGradient>
	<path fill="url(#SVGID_22_)" d="M375.356,431.478c-0.78-3.103,2.428-13.309,3.753-8.035c0.345-3.22-1.331-10.55,3.75-10.672
		c0.267-3.53,3.289-7.258,7.091-6.564c2.212,0.269,8.773,4.722,3.965,6.59c1.785,0.541,4.194,3.564,4.041,5.581
		c-0.229,3.026-1.938,1.476-4.498,1.79c-3.18,0.469-10.931,7.694-11.901,7.113L375.356,431.478z"/>
</g>
<g opacity="0.3">
	<linearGradient id="SVGID_23_" gradientUnits="userSpaceOnUse" x1="335.2686" y1="261.4648" x2="335.2686" y2="176.4411">
		<stop  offset="0" style="stop-color:#2D0012"/>
		<stop  offset="0.2738" style="stop-color:#310014"/>
		<stop  offset="0.4459" style="stop-color:#3A011C"/>
		<stop  offset="0.5899" style="stop-color:#45152A"/>
		<stop  offset="0.7185" style="stop-color:#51293B"/>
		<stop  offset="0.8368" style="stop-color:#5F3F50"/>
		<stop  offset="0.9461" style="stop-color:#6E5A6A"/>
		<stop  offset="1" style="stop-color:#756B7B"/>
	</linearGradient>
	<path fill="url(#SVGID_23_)" d="M344.019,176.441c1.433,1.433,2.866,1.433,0.478,4.299c3.821,1.433,4.777,6.21,1.433,9.553
		c5.254-0.478,7.165,6.21,5.254,10.509c1.911-5.254,17.196-11.464,15.285-1.911c4.299,2.388,8.598,6.21,4.299,10.986
		c7.643,2.388,5.732,11.464-0.955,13.375c3.821,4.299,3.821,10.509-0.478,14.807c8.12,7.165-11.464,16.718-18.629,7.165
		c3.821,5.254,4.777,10.986,1.433,16.24c-3.821-9.553-19.584-8.12-27.704-8.598c-3.344,0-7.165,0.955-10.509,0.478
		s-14.697-2.944-18.996-1.033c-0.955-0.955,4.666-5.177,4.666-6.132c2.866-2.866,2.866-6.21,5.254-9.076s3.344-1.911,6.687-4.299
		c7.643-5.732,6.687-12.419,8.598-21.017c0.478-2.866,1.911-4.777,2.388-7.165c1.433-3.344,0.478-6.687,0.955-9.553
		c1.433-6.21,7.643-10.509,13.375-14.33L344.019,176.441z"/>
</g>
<g opacity="0.2">
	<linearGradient id="SVGID_24_" gradientUnits="userSpaceOnUse" x1="288.5066" y1="98.0808" x2="288.5066" y2="51.8553">
		<stop  offset="0.0386" style="stop-color:#FEC673"/>
		<stop  offset="0.3337" style="stop-color:#FFC40C"/>
		<stop  offset="0.7296" style="stop-color:#F58231"/>
		<stop  offset="0.7743" style="stop-color:#F38731"/>
		<stop  offset="0.8436" style="stop-color:#F0952E"/>
		<stop  offset="0.9283" style="stop-color:#ECAC27"/>
		<stop  offset="1" style="stop-color:#E7C21F"/>
	</linearGradient>
	<path fill="url(#SVGID_24_)" d="M254.964,62.281c2.643-5.526,10.091-8.89,15.377-5.046c3.844-7.208,13.246-7.096,17.091-0.128
		c3.844-2.643,12.974-1.201,13.695,4.085c8.409,0.481,12.222,21.272,11.261,26.557c1.201-5.766,1.442-11.293,2.162-17.059
		c0.961-7.448,9.611-5.766,9.611,0.961c5.046-0.24,6.968,2.403,8.169,7.208c1.201,4.085,0.481,5.286-3.364,7.448
		c1.201,5.286-5.286,7.929-9.13,9.37c-1.682,0.721-3.604,1.922-5.286,2.162c-2.162,0.24-4.085-0.721-6.247,0.24
		c-3.364-11.533-20.6-14.012-30.211-10.408c6.065-10.916-20.245-18.184-33.94-10.015c2.162-4.805,5.766-8.65,10.332-11.533"/>
</g>
<g opacity="0.2">
	<linearGradient id="SVGID_25_" gradientUnits="userSpaceOnUse" x1="159.8704" y1="180.5026" x2="159.8704" y2="105.5453">
		<stop  offset="0.0386" style="stop-color:#FEC673"/>
		<stop  offset="0.2424" style="stop-color:#FFC40C"/>
		<stop  offset="0.2636" style="stop-color:#FDB818"/>
		<stop  offset="0.3095" style="stop-color:#FAA425"/>
		<stop  offset="0.3593" style="stop-color:#F8952C"/>
		<stop  offset="0.4141" style="stop-color:#F68B2F"/>
		<stop  offset="0.4777" style="stop-color:#F58431"/>
		<stop  offset="0.5708" style="stop-color:#F58231"/>
		<stop  offset="0.6417" style="stop-color:#F38731"/>
		<stop  offset="0.7517" style="stop-color:#F0952E"/>
		<stop  offset="0.8863" style="stop-color:#ECAC27"/>
		<stop  offset="1" style="stop-color:#E7C21F"/>
	</linearGradient>
	<path fill="url(#SVGID_25_)" d="M167.611,113.697c2.374-0.678,4.069,0.678,4.069,3.052c1.696-3.052,8.478-7.121,11.53-4.069
		c10.852-7.46,25.773,4.748,10.852,11.53c4.069-1.017,10.852-3.052,14.582-0.339c2.035-6.443,8.139-6.443,13.225-3.052
		c4.408,2.713,6.104,7.8,5.765,13.225c-0.678,8.478-11.869,15.599-18.99,19.669c-1.017-5.087-11.869-11.869-16.616-13.564
		c-7.46-2.374-15.599,1.017-22.042,0.339c-1.696-0.339-3.052-1.696-5.087-2.035c-1.696,0-4.408,1.696-6.104,2.374
		c-3.052,1.356-6.104,2.713-8.478,5.426c-5.087,5.087-6.104,14.921,1.356,18.651c-1.356,2.713,0,7.46,2.374,9.495
		c-8.478-3.73-14.921,0-21.364,6.104c-3.391-2.035-7.121-0.678-10.852-1.017c1.017-2.713,3.052-5.087,3.391-8.478
		c0-1.356-1.356-3.73-1.017-5.087c0.339-2.374,0.678-1.356,1.696-3.052c1.696-3.73,3.73-4.408,2.035-9.156
		c-0.678-1.696-2.713-1.696-3.052-3.052c-0.339-1.017,0.339-4.069,0.339-5.426c-0.678-7.46-6.104-14.243-13.225-7.8
		c-3.73,3.73-6.782,11.869-7.8,17.295c-1.356-1.356-3.391-2.035-5.087-1.356l-6.443-3.052c-1.356-3.73-0.678-10.512,4.748-7.8
		c1.017-5.426,6.782-9.834,11.191-12.208c6.782-3.73,9.156-2.713,15.938-1.356c0-8.478-1.017-11.869,8.478-11.869
		C133.021,117.089,143.654,93.551,167.611,113.697z"/>
</g>
<g opacity="0.2">
	<linearGradient id="SVGID_26_" gradientUnits="userSpaceOnUse" x1="412.5947" y1="157.2014" x2="412.5947" y2="106.3126">
		<stop  offset="0.0386" style="stop-color:#FEC673"/>
		<stop  offset="0.2424" style="stop-color:#FFC40C"/>
		<stop  offset="0.2636" style="stop-color:#FDB818"/>
		<stop  offset="0.3095" style="stop-color:#FAA425"/>
		<stop  offset="0.3593" style="stop-color:#F8952C"/>
		<stop  offset="0.4141" style="stop-color:#F68B2F"/>
		<stop  offset="0.4777" style="stop-color:#F58431"/>
		<stop  offset="0.5708" style="stop-color:#F58231"/>
		<stop  offset="0.6417" style="stop-color:#F38731"/>
		<stop  offset="0.7517" style="stop-color:#F0952E"/>
		<stop  offset="0.8863" style="stop-color:#ECAC27"/>
		<stop  offset="1" style="stop-color:#E7C21F"/>
	</linearGradient>
	<path fill="url(#SVGID_26_)" d="M415.654,143.914c-1.954,1.453-3.85,2.997-5.119,4.901c2,0.5,2.5,2,5,2c-3,1-5,3-6,6
		c1.522,0.468,3.677,0.493,6.119,0.168V143.914z"/>
</g>
<g opacity="0.3">
	
		<linearGradient id="SVGID_27_" gradientUnits="userSpaceOnUse" x1="331.4928" y1="-335.0198" x2="331.4928" y2="-353.6888" gradientTransform="matrix(0.9559 -0.2937 0.2937 0.9559 179.1288 520.1512)">
		<stop  offset="0.2375" style="stop-color:#5F3E4E"/>
		<stop  offset="0.2444" style="stop-color:#5F3F50"/>
		<stop  offset="0.4156" style="stop-color:#726474"/>
		<stop  offset="0.5811" style="stop-color:#7F8393"/>
		<stop  offset="0.7376" style="stop-color:#879BAC"/>
		<stop  offset="0.8812" style="stop-color:#8AABBD"/>
		<stop  offset="1" style="stop-color:#8BB2C5"/>
	</linearGradient>
	<path fill="url(#SVGID_27_)" d="M384.474,104.807c-7.127-3.626,3.446-18.248,9.179-13.21c0.478-0.147,1.129,1.795,1.607,1.648
		c-1.906-13.014,14.536-15.5,11.775-5.76c-1.693,4.705-17.824,12.412-21.135,18.66L384.474,104.807z"/>
</g>
<g opacity="0.2">
	<linearGradient id="SVGID_28_" gradientUnits="userSpaceOnUse" x1="339.7074" y1="441.2806" x2="339.7074" y2="344.3069">
		<stop  offset="0.0386" style="stop-color:#FEC673"/>
		<stop  offset="0.2424" style="stop-color:#FFC40C"/>
		<stop  offset="0.2636" style="stop-color:#FDB818"/>
		<stop  offset="0.3095" style="stop-color:#FAA425"/>
		<stop  offset="0.3593" style="stop-color:#F8952C"/>
		<stop  offset="0.4141" style="stop-color:#F68B2F"/>
		<stop  offset="0.4777" style="stop-color:#F58431"/>
		<stop  offset="0.5708" style="stop-color:#F58231"/>
		<stop  offset="0.6417" style="stop-color:#F38731"/>
		<stop  offset="0.7517" style="stop-color:#F0952E"/>
		<stop  offset="0.8863" style="stop-color:#ECAC27"/>
		<stop  offset="1" style="stop-color:#E7C21F"/>
	</linearGradient>
	<path fill="url(#SVGID_28_)" d="M381.705,369.281c0.5,4-1,5-4,2c-5,3-10-0.5-15.5,3.5c5,0,9.5,6,8.5,11c5.5,4.5-5,13.5-9,16.5
		c4,2,19.392-1.769,19.392,8.231c-5.945-1.743-4.818,1.948-4.203,8.406c-2-4.5-7.211-5.743-12.711-1.743
		c-5.5,3.5-8.033,11.864-9.533,14.864s-9.945,8.243-12.945,9.243c-2-6-6.5-3-10.5-3c-5.5-0.5-5-1-9.5-3c7-6-1.5-8-6.5-7
		c0.5-2.5,0-4,1.5-6c-3.5-2-3-5.5,0.5-6.5c-5-5,3.5-9.5,8.5-7c1-4,5.5-8,9.5-6.5c-2-2.5-3.33-7.93-4.817-9.928
		c0.5-3.5-1.882-6.189-3.881-7.265c-9,0-3.303-9.807-12.303-8.807c1-8-11-3-15-7s0-12.5,7-10c3.5-7.5,12.5-6.5,15.5,1
		c4.5-2.5,7.5,2.5,8,6.5c5.5-2.5,14,1,11,8c0.5-0.5,3.5-1.5,3.5-1.5c1-3,2.5-4,5-5.5c-2-7.5-16-15-23.5-13c1-0.5,1.5-2,3-2.5
		c-3.5-7,14-12,17.5-3.5c4.5-5,11-2.5,13.5,3c6-2,17.289,2.624,20,8C380.797,361.948,381.705,369.281,381.705,369.281z"/>
</g>
<g opacity="0.2">
	<linearGradient id="SVGID_29_" gradientUnits="userSpaceOnUse" x1="217.9825" y1="103.0731" x2="217.9825" y2="57.3329">
		<stop  offset="0.0386" style="stop-color:#FEC673"/>
		<stop  offset="0.3337" style="stop-color:#FFC40C"/>
		<stop  offset="0.7296" style="stop-color:#F58231"/>
		<stop  offset="0.7743" style="stop-color:#F38731"/>
		<stop  offset="0.8436" style="stop-color:#F0952E"/>
		<stop  offset="0.9283" style="stop-color:#ECAC27"/>
		<stop  offset="1" style="stop-color:#E7C21F"/>
	</linearGradient>
	<path fill="url(#SVGID_29_)" d="M198.219,73.163c0.961-4.805,8.409-15.858,13.936-12.013c4.805-7.208,18.741-3.604,14.416,5.766
		c1.682,0.481,2.643,1.682,2.403,3.364c1.922-0.24,9.851,1.922,8.65,5.526c-0.24,0.961-3.844,1.201-4.805,2.162
		c-1.201,1.201-1.442,3.364-1.682,5.046c-8.409-9.13-13.213,15.974-14.655,20.059c-2.162-6.728-1.195-9.69-8.474-10.868
		c2.042-15.652-5.464-14.957-7.626-16.159"/>
</g>
<g opacity="0.2">
	<linearGradient id="SVGID_30_" gradientUnits="userSpaceOnUse" x1="354.5381" y1="115.1398" x2="354.5381" y2="92.0333">
		<stop  offset="0.0386" style="stop-color:#FEC673"/>
		<stop  offset="0.3337" style="stop-color:#FFC40C"/>
		<stop  offset="0.7296" style="stop-color:#F58231"/>
		<stop  offset="0.7743" style="stop-color:#F38731"/>
		<stop  offset="0.8436" style="stop-color:#F0952E"/>
		<stop  offset="0.9283" style="stop-color:#ECAC27"/>
		<stop  offset="1" style="stop-color:#E7C21F"/>
	</linearGradient>
	<path fill="url(#SVGID_30_)" d="M342.422,99.282c1.682-1.682,4.085-2.883,5.766-0.721c1.442-1.682,11.052-10.091,12.494-4.805
		c2.643-1.682,6.968-1.442,5.766,2.883c-0.481,2.162-4.325,3.123-6.727,4.565c-6.007,3.604-10.091,8.169-13.455,13.936
		c0-3.123,0.961-7.208-0.24-10.332L342.422,99.282z"/>
</g>
<g opacity="0.2">
	<linearGradient id="SVGID_31_" gradientUnits="userSpaceOnUse" x1="347.1889" y1="353.3864" x2="347.1889" y2="292.5099">
		<stop  offset="0.0386" style="stop-color:#FEC673"/>
		<stop  offset="0.2424" style="stop-color:#FFC40C"/>
		<stop  offset="0.2636" style="stop-color:#FDB818"/>
		<stop  offset="0.3095" style="stop-color:#FAA425"/>
		<stop  offset="0.3593" style="stop-color:#F8952C"/>
		<stop  offset="0.4141" style="stop-color:#F68B2F"/>
		<stop  offset="0.4777" style="stop-color:#F58431"/>
		<stop  offset="0.5708" style="stop-color:#F58231"/>
		<stop  offset="0.6417" style="stop-color:#F38731"/>
		<stop  offset="0.7517" style="stop-color:#F0952E"/>
		<stop  offset="0.8863" style="stop-color:#ECAC27"/>
		<stop  offset="1" style="stop-color:#E7C21F"/>
	</linearGradient>
	<path fill="url(#SVGID_31_)" d="M306.312,302.712c-1.433,1.433,28.286-15.407,39.744-8.555c1.433,3.821,0.955,8.598-1.911,11.464
		c4.777-2.866,17.793-4.333,17.316,3.31c8.12-0.955,3.702,11.02-1.075,14.841c5.254-3.821,14.33-0.955,11.464,6.21
		c5.732,3.344,21.017,15.763,14.807,23.405c-4.777-5.254-10.031-3.821-16.24-6.687c-5.254-2.388-10.031-10.986-17.673-6.21
		c-4.299-3.344-11.942-4.777-16.718-2.388c-4.777,1.911-13.073-13.953-17.372-13.953c-4.777-0.478-0.815-2.93-12.279-6.274
		c4.898-3.314,12.833-10.1,7.825-13.893C312.058,302.36,306.312,302.712,306.312,302.712z"/>
</g>
<g opacity="0.3">
	<linearGradient id="SVGID_32_" gradientUnits="userSpaceOnUse" x1="406.4604" y1="313.3281" x2="373.9103" y2="256.9497">
		<stop  offset="0" style="stop-color:#2D0012"/>
		<stop  offset="0.2738" style="stop-color:#310014"/>
		<stop  offset="0.4459" style="stop-color:#3A011C"/>
		<stop  offset="0.5899" style="stop-color:#45152A"/>
		<stop  offset="0.7185" style="stop-color:#51293B"/>
		<stop  offset="0.8368" style="stop-color:#5F3F50"/>
		<stop  offset="0.9461" style="stop-color:#6E5A6A"/>
		<stop  offset="1" style="stop-color:#756B7B"/>
	</linearGradient>
	<path fill="url(#SVGID_32_)" d="M415.654,261.123c-7.269-2.312-18.412-2.239-24.599,0.855c-1.812-13.587-16.304-4.529-20.833,2.717
		c-5.435-4.529-10.869,0-14.492,5.435l0.86,12.029c1.874,3.749,0,7.873-0.75,11.621c9.747-0.75,13.121,0.75,9.372,11.247
		c9.372-0.75,10.497,8.997,18.369,11.247c9.372,2.624,22.493-5.623,30.741-8.997c0.441-0.204,0.887-0.406,1.333-0.609V261.123z"/>
</g>
<g opacity="0.2">
	<linearGradient id="SVGID_33_" gradientUnits="userSpaceOnUse" x1="396.9498" y1="365.4424" x2="396.9498" y2="328.1249">
		<stop  offset="0.0386" style="stop-color:#FEC673"/>
		<stop  offset="0.2424" style="stop-color:#FFC40C"/>
		<stop  offset="0.2636" style="stop-color:#FDB818"/>
		<stop  offset="0.3095" style="stop-color:#FAA425"/>
		<stop  offset="0.3593" style="stop-color:#F8952C"/>
		<stop  offset="0.4141" style="stop-color:#F68B2F"/>
		<stop  offset="0.4777" style="stop-color:#F58431"/>
		<stop  offset="0.5708" style="stop-color:#F58231"/>
		<stop  offset="0.6417" style="stop-color:#F38731"/>
		<stop  offset="0.7517" style="stop-color:#F0952E"/>
		<stop  offset="0.8863" style="stop-color:#ECAC27"/>
		<stop  offset="1" style="stop-color:#E7C21F"/>
	</linearGradient>
	<path fill="url(#SVGID_33_)" d="M415.654,357.782v-13.44c-0.913,0.011-1.996,0.248-3.267,0.771c0-6.443-6.711-9.664-12.348-8.053
		c3.221-5.906-7.785-7.785-11.543-6.174c0-3.758-7.298-2.85-10.251-2.045c0,0,10.438,7.043,12.372,10.482
		c3.093,5.499,3.659,7.367,3.265,10.31c-0.301,2.25-2.425,7.809-2.425,7.809s4.487-0.077,7.752-4.544
		c0.909-1.243,1.811-7.076,1.811-7.076s2.811,3.233,3,9.826c0.077,2.688-1.718,9.795-1.718,9.795l6.059-2.074
		c2.731-1.138,3.716-4.204,2.155-6.583C412.371,358.561,414.155,358.652,415.654,357.782z"/>
</g>
<g opacity="0.2">
	<linearGradient id="SVGID_34_" gradientUnits="userSpaceOnUse" x1="67.2665" y1="183.9994" x2="67.2665" y2="158.3088">
		<stop  offset="0.0386" style="stop-color:#FEC673"/>
		<stop  offset="0.3337" style="stop-color:#FFC40C"/>
		<stop  offset="0.7296" style="stop-color:#F58231"/>
		<stop  offset="0.7743" style="stop-color:#F38731"/>
		<stop  offset="0.8436" style="stop-color:#F0952E"/>
		<stop  offset="0.9283" style="stop-color:#ECAC27"/>
		<stop  offset="1" style="stop-color:#E7C21F"/>
	</linearGradient>
	<path fill="url(#SVGID_34_)" d="M64.826,158.497c3.758-1.074,3.758,2.684,2.416,5.1c7.785-6.443,8.59,6.174,8.322,10.469
		c4.564,0.805,4.564,6.443,3.49,9.932c-2.684-5.369-7.516-8.859-13.691-7.516c0-4.027-6.98-10.201-10.469-5.637
		c0.268-3.49,0.805-8.053,4.564-9.396"/>
</g>
<g opacity="0.3">
	<linearGradient id="SVGID_35_" gradientUnits="userSpaceOnUse" x1="355.9763" y1="171.5848" x2="355.9763" y2="100.6047">
		<stop  offset="0" style="stop-color:#2B0010"/>
		<stop  offset="0.1165" style="stop-color:#320015"/>
		<stop  offset="0.2608" style="stop-color:#400D24"/>
		<stop  offset="0.4197" style="stop-color:#502739"/>
		<stop  offset="0.5892" style="stop-color:#624455"/>
		<stop  offset="0.7671" style="stop-color:#756B7A"/>
		<stop  offset="0.9494" style="stop-color:#889FB0"/>
		<stop  offset="1" style="stop-color:#8BB2C5"/>
	</linearGradient>
	<path fill="url(#SVGID_35_)" d="M415.654,124.616c-0.889-3.057-3.403-4.671-7.856-1.702c2-10-8.5-17.5-16.5-8.5
		c-4.5-5.5-9.5,1-13.5,4c11.5-9.5-10-22-16.5-9.5c-7.5-4.5-10,10-13.5,15c-4.5,6-8.5,11-16,15c3.5-3,9-11.5,4-14.5
		c4.5-6,12.5-16,3.5-22.5c-4.5-2.5-11-1-15.5,1l2.5,10.5c6.5,17.5-18.5,37-30,45c6,1,14,4.5,19.5,0.5c0,5.5,5,8,9.5,5
		c-6.5,10.5,15.5,7.5,19.5,6.5c10.5-3,20.5-12,30.5-14c12.5-2.5,20.5-1.5,31-11c4-3.5,8-8.5,9-13.5
		c0.139-0.417,0.256-0.843,0.356-1.274V124.616z"/>
</g>
<g opacity="0.3">
	<linearGradient id="SVGID_36_" gradientUnits="userSpaceOnUse" x1="360.8184" y1="185.5236" x2="435.9738" y2="315.6967">
		<stop  offset="0" style="stop-color:#ED7420"/>
		<stop  offset="0.0142" style="stop-color:#E36F30"/>
		<stop  offset="0.0414" style="stop-color:#D56847"/>
		<stop  offset="0.0716" style="stop-color:#C96256"/>
		<stop  offset="0.1046" style="stop-color:#BF5D61"/>
		<stop  offset="0.1413" style="stop-color:#B75868"/>
		<stop  offset="0.1834" style="stop-color:#B1556E"/>
		<stop  offset="0.2341" style="stop-color:#AD5372"/>
		<stop  offset="0.3022" style="stop-color:#AB5174"/>
		<stop  offset="0.4617" style="stop-color:#AA5175"/>
		<stop  offset="1" style="stop-color:#803756"/>
	</linearGradient>
	<path fill="url(#SVGID_36_)" d="M364.624,188.969l-5.169-2.659C360.686,187.152,362.501,188.081,364.624,188.969z"/>
</g>
<g opacity="0.3">
	<linearGradient id="SVGID_37_" gradientUnits="userSpaceOnUse" x1="378.107" y1="175.542" x2="453.2624" y2="305.7151">
		<stop  offset="0" style="stop-color:#ED7420"/>
		<stop  offset="0.0142" style="stop-color:#E36F30"/>
		<stop  offset="0.0414" style="stop-color:#D56847"/>
		<stop  offset="0.0716" style="stop-color:#C96256"/>
		<stop  offset="0.1046" style="stop-color:#BF5D61"/>
		<stop  offset="0.1413" style="stop-color:#B75868"/>
		<stop  offset="0.1834" style="stop-color:#B1556E"/>
		<stop  offset="0.2341" style="stop-color:#AD5372"/>
		<stop  offset="0.3022" style="stop-color:#AB5174"/>
		<stop  offset="0.4617" style="stop-color:#AA5175"/>
		<stop  offset="1" style="stop-color:#803756"/>
	</linearGradient>
	<path fill="url(#SVGID_37_)" d="M415.654,203.797c-1.724,0.185-3.457,0.333-5.165,0.5c-10.977,1.075-23.685-17.157-24.514-12.461
		c-4.159,2.495-14.415,0.035-21.352-2.866l15.858,8.157c6.889,1.148,8.42,3.444,13.395,8.802
		c3.912,4.268,16.082,12.822,21.777,6.949V203.797z"/>
</g>
<g opacity="0.2">
	<linearGradient id="SVGID_38_" gradientUnits="userSpaceOnUse" x1="252.018" y1="414.7452" x2="252.018" y2="355.7452">
		<stop  offset="0" style="stop-color:#A93B23"/>
		<stop  offset="0.0268" style="stop-color:#BA4A24"/>
		<stop  offset="0.0856" style="stop-color:#DD6822"/>
		<stop  offset="0.1186" style="stop-color:#ED7420"/>
		<stop  offset="0.7539" style="stop-color:#AA5175"/>
		<stop  offset="1" style="stop-color:#5A1C39"/>
	</linearGradient>
	<path fill="url(#SVGID_38_)" d="M268.043,414.745c-4.5-6-3-9-3-15.5c-3.5,0.5-2.5-0.5-5-1c5-1.5,5-8.5,5-13l0.5,0.5
		c-3,3-10,3.5-11-2c-4.5,4-12.5,1-7.5-5c-6.5-3,1-10,5.5-11c-2.5-5.5,4-8.5,7.5-12c-3.282,0.729-6.165,2.731-9.544,3.084
		c-2.68,0.28-5.256-1.016-5.256-1.016s0.76,2.788,0.598,3.714l-1.492,3.791c-1.848,2.259-4.928,3.08-6.776,4.928
		c-2.259,2.464-2.669,10.472,2.669,7.187c-3.491,2.259-4.517,8.214-3.696,11.91c0.821,3.491,8.008,10.472,9.651,4.107
		c-1.437,5.339,2.875,9.24,8.008,7.598c-0.411,3.491,6.16,11.499,9.446,12.731L268.043,414.745z"/>
</g>
<g opacity="0.2">
	<linearGradient id="SVGID_39_" gradientUnits="userSpaceOnUse" x1="114.9853" y1="360.7643" x2="114.9853" y2="261.6812">
		<stop  offset="0" style="stop-color:#A93B23"/>
		<stop  offset="0.0268" style="stop-color:#BA4A24"/>
		<stop  offset="0.0856" style="stop-color:#DD6822"/>
		<stop  offset="0.1186" style="stop-color:#ED7420"/>
		<stop  offset="0.7539" style="stop-color:#AA5175"/>
		<stop  offset="1" style="stop-color:#5A1C39"/>
	</linearGradient>
	<path fill="url(#SVGID_39_)" d="M227.973,261.681l0.033,0.071c0,6-5.156,13.067-14.656,10.567c-4,15.5-18.808,15.595-29.308,12.595
		c-6.5-1.5-23-3-27.5-9.5c-3,6.5-11,1.5-13.5-3c8,24.5-26,38.5-45.5,33.5c-3,11-30,3.5-33-4c-2.5,3-5.5,1-6.5-2.5
		c-5,18-36.5,23.5-51.5,14.5c-0.188,5.447-2.993,9.33-6.918,11.644v11.656c2.614,0.622,4.867,0.765,6.385,0.006
		c8.102,10.311,21.677,1.471,21.004-15.054c1.583,8.516,26.021-6.196,30.353-12.694c6.811,22.704,30.423,27.185,42.532,10.535
		c0.757,0,24.477,6.529,33.559-10.121c17.715,5.792,19.052-20.17,23.593-29.252c1.514,10.595,11.314,13.786,28.035,15.148
		c11.619,0.946,31.183-2.984,31.94-12.822c3.027,2.27,7.423,1.471,10.638-2.023C233.519,270.654,227.973,261.681,227.973,261.681z"
		/>
</g>
<g opacity="0.2">
	<linearGradient id="SVGID_40_" gradientUnits="userSpaceOnUse" x1="250.5036" y1="342.2943" x2="250.5036" y2="227.7943">
		<stop  offset="0" style="stop-color:#A93B23"/>
		<stop  offset="0.0268" style="stop-color:#BA4A24"/>
		<stop  offset="0.0856" style="stop-color:#DD6822"/>
		<stop  offset="0.1186" style="stop-color:#ED7420"/>
		<stop  offset="0.7539" style="stop-color:#AA5175"/>
		<stop  offset="1" style="stop-color:#5A1C39"/>
	</linearGradient>
	<path fill="url(#SVGID_40_)" d="M233.814,243.497c0,3.452,3.434,21.485,7.872,22.718c-1.973,1.479-6.59,14.827,3.212,20.251
		c-5.178,1.479-10.714,2.89-12.194,8.314c-1.479,5.424,3.945,10.849,9.123,7.644c-4.438,4.192,4.192,5.918,6.657,5.671
		c-4.438,3.452,2.792,18.05,2.792,18.05s-6.251,2.676-5.516,8.188c0.285,2.135,3.29,7.961,3.29,7.961c-1.5-5,2.5-16,9-14
		c-1.5-4-1.5-9.5,4-10.5c-7-4-0.5-13.5,6.5-14l-11.5-0.5c-2.5-1-4-1.5-2.5-4c-4.5-4.5-0.5-9.5,5-10c-4.5-0.5-7.5-3-7-7.5
		c-9,3-15-11.5-4.5-12c-2.5-2.5-2.5-6-0.5-8.5c-6.5-10,9-14,16-10.5c-2-2.5-3-3.5-3-7c-8,3-21-8.5-22-16L233.814,243.497z"/>
</g>
<path opacity="0.02" fill="#CFDEF2" d="M407.408,48.468c-31.585-2.791-92.17-10.101-123.487-15.065
	c-31.141-4.936-94.128-9.732-125.627-11.124C123.99,20.763,61.605,7.977,4.088-4.439h-4.465V76.92
	c41.703,0.458,95.55,1.237,126.087-0.256c31.632-1.547,94.411-12.94,126.075-12.36c23.071,0.422,68.444,10.812,91.466,12.36
	c17.631,1.186,50.634,0.317,72.403,0.064V49.034C412.741,48.88,409.98,48.695,407.408,48.468z"/>
<path opacity="0.02" fill="#CFDEF2" d="M415.654-4.439H291.881c13.228,11.279,33.402,19.433,41.773,22.698
	c16.782,6.545,50.117,2.129,82,1.227V-4.439z"/>
</svg>
