<?xml version="1.0" encoding="utf-8"?>
<!-- Generator: Adobe Illustrator 17.0.0, SVG Export Plug-In . SVG Version: 6.00 Build 0)  -->
<!DOCTYPE svg PUBLIC "-//W3C//DTD SVG 1.1//EN" "http://www.w3.org/Graphics/SVG/1.1/DTD/svg11.dtd">
<svg version="1.1" id="volcanic" xmlns="http://www.w3.org/2000/svg" xmlns:xlink="http://www.w3.org/1999/xlink" x="0px" y="0px"
	 width="2100px" height="1080px" viewBox="0 0 2100 1080" enable-background="new 0 0 2100 1080" xml:space="preserve">
<linearGradient id="SVGID_1_" gradientUnits="userSpaceOnUse" x1="1322.5" y1="-1685.3831" x2="1322.5" y2="1343.3792" gradientTransform="matrix(1 0 0 -1 -272.5 685)">
	<stop  offset="0" style="stop-color:#A93B23"/>
	<stop  offset="0.0516" style="stop-color:#A94124"/>
	<stop  offset="0.1568" style="stop-color:#A94924"/>
	<stop  offset="0.4852" style="stop-color:#ED7420"/>
	<stop  offset="0.7417" style="stop-color:#AA202C"/>
	<stop  offset="0.8408" style="stop-color:#5A1C39"/>
	<stop  offset="0.9827" style="stop-color:#260025"/>
</linearGradient>
<rect fill="url(#SVGID_1_)" width="2100" height="1080"/>
<path opacity="0.02" fill="#CFDEF2" enable-background="new    " d="M2100,240.07c-83.588-2.825-317.182-9.637-404.593-5.154
	c-70.822,3.632-208.562,29.011-279.311,33.176c-95.906,5.646-289.062-2.681-385.291,0c-51.579,1.437-154.721,6.388-205.714,11.484
	c-51.281,5.124-150.489,12.671-202.208,15.552c-60.746,3.384-184.176-1.876-243.819,6.14
	c-13.115,1.763-218.896,18.357-218.854,26.812c0.021,4.28,188.708-4.827,195.315-3.844c58.11,8.648,179.123,0,238.831,0
	c33.396,0,100.263,1.413,133.583,0c37.699-1.599,111.997-12.324,149.775-12.76c51.851-0.598,154.65,11.163,206.447,12.76
	c65.701,2.026,197.339,0,263.119,0c95.127,0,285.531,3.346,380.51,0c64.69-2.279,193.496-12.058,257.55-18.201
	c23.389-2.243,80.36-9.196,114.658-13.56V240.07H2100z"/>
<path opacity="0.02" fill="#CFDEF2" enable-background="new    " d="M797.913,213.801c-0.663-6.454-86.188-3.479-92.337-3.882
	c-40.164-2.635-152.29-13.062-192.503-14.689c-33.184-1.343-181.855-4.241-217.418-9.959C225.427,173.979,26.12,133.932,0,128.672
	v84.873c18.137,2.286,117.652,15.142,136.12,24.231c34.273,16.868,93.328,22.306,131.122,23.968
	c39.189,1.723,150.921,17.051,231.493,3.381c63.396-10.756,168.562,5.314,210.526-5.004
	C730.835,254.816,800.296,237.012,797.913,213.801z"/>
<g opacity="0.4">
	
		<linearGradient id="SVGID_2_" gradientUnits="userSpaceOnUse" x1="1230.2639" y1="316.2949" x2="1230.264" y2="922.2104" gradientTransform="matrix(1 0 0 -1 -272.5 685)">
		<stop  offset="0.2448" style="stop-color:#2B0010"/>
		<stop  offset="0.3266" style="stop-color:#330016"/>
		<stop  offset="0.4385" style="stop-color:#421127"/>
		<stop  offset="0.5678" style="stop-color:#542D3E"/>
		<stop  offset="0.71" style="stop-color:#684E5E"/>
		<stop  offset="0.861" style="stop-color:#7C7B8A"/>
		<stop  offset="1" style="stop-color:#8BB2C5"/>
	</linearGradient>
	<path fill="url(#SVGID_2_)" d="M974.923,9.393c1.289-2.9,2.448-6.181,2.784-9.393h-39.886c1.198,2.283,3.254,3.973,6.808,4.481
		c0,9.006,4.912,19.65,10.644,26.2c2.456,2.456,9.825,9.006,13.919,9.006c9.006,0,4.094-2.456,4.094-7.369
		c0-4.094-4.912-9.006-4.912-13.1C969.192,12.668,973.286,15.124,974.923,9.393z"/>
</g>
<g opacity="0.4">
	
		<linearGradient id="SVGID_3_" gradientUnits="userSpaceOnUse" x1="1051.4742" y1="316.299" x2="1051.4742" y2="922.2147" gradientTransform="matrix(1 0 0 -1 -272.5 685)">
		<stop  offset="0.2448" style="stop-color:#2B0010"/>
		<stop  offset="0.3266" style="stop-color:#330016"/>
		<stop  offset="0.4385" style="stop-color:#421127"/>
		<stop  offset="0.5678" style="stop-color:#542D3E"/>
		<stop  offset="0.71" style="stop-color:#684E5E"/>
		<stop  offset="0.861" style="stop-color:#7C7B8A"/>
		<stop  offset="1" style="stop-color:#8BB2C5"/>
	</linearGradient>
	<path fill="url(#SVGID_3_)" d="M1480.534,186.541c4.693-11.732-10.168-16.425-18.772-10.168c7.822-6.257,15.057-25.866,1.76-24.302
		c0.782-12.515-20.532-10.113-28.354-5.42c4.693-4.693,5.475-12.515,3.129-18.772c-18.763-11.22-61.99,12.801-65.081,14.009
		c-4.031,1.576-11.026,3.417-11.026,3.417c0-13.919-14.738-10.644-21.287-17.194c-6.55-5.731-3.275-16.375-14.738-18.831
		c1.637-4.912,0.819-4.912,0.819-10.644c5.731,0.819,13.1,0,18.012-4.094c7.369,8.187,14.737,20.469,27.019,14.737
		c0,23.744,27.837,22.106,41.756,13.1c2.456-1.638,4.094-6.55,5.731-7.369c2.456-1.638,4.094,0.819,5.731,0.819
		c4.913-2.456,9.825-0.819,14.738-6.55c10.644-10.644,2.456-21.287-11.462-22.106c14.737-10.644-23.744-14.737-28.656-14.737
		c-10.644,0-22.106-0.819-33.568,1.637c-2.456-8.187-11.463-12.281-18.012-5.731c-0.819-8.187-4.094-17.194-13.919-17.194
		c7.369-6.55,23.744-18.831,24.562-28.656c11.319,1.617,23.427-11.136,22.94-22.493h-369.001c2.052,7.424,14.59,5.89,18.563,11.849
		c-9.006,3.275-13.1,12.281-4.913,19.65c-4.094,4.912,0,10.644,2.456,15.556c-9.006-0.819-49.125,9.825-32.75,24.562
		c-13.1-10.644-20.469,9.825-22.925,19.65c-4.912-13.1-17.194-10.644-27.837-9.006c-0.819-9.825-10.644-14.737-18.831-13.919
		c1.638-2.456,1.638-6.55,3.275-9.006c-17.194-0.819-21.287,16.375-29.475,25.381c1.638-7.369,2.456-17.194-4.912-22.106
		c18.831-11.462-2.456-24.562-16.375-18.831c9.006-20.469-13.1-19.65-24.562-15.556c0-17.194,14.737-22.106,27.837-27.019
		c-0.522-0.427-1.104-0.827-1.73-1.206h-58c-3.253,2.023-6.225,4.585-9.044,7.756c-2.456,2.456-6.55,7.369-7.369,9.006
		c-2.456,3.275-6.55,4.912-7.369,9.825c-13.919-33.569-63.043,11.462-38.481,22.925c-2.456,3.275-3.275,7.369,0.819,11.462
		c-9.825-7.369-23.744,7.369-21.287,17.194c-6.55-9.006-18.831-7.369-22.106,3.275c-3.275-13.1-12.281-4.094-14.737,3.275
		c0,0-15.679-4.436-20.677-2.928c-15.574,4.698-70.249,17.562-91.864,27.019c-47.283-49.985-174.272-36.475-235.064-28.37
		c13.509-8.106,47.283-27.019,45.932-47.283c0-13.509-28.37-27.019-39.177-22.966c3.673-2.296,6.718-6.152,8.4-10.189H162.305
		c-8.912,5.439-18.401,10.464-29.057,14.422c13.296-10.878-16.11-8.922-34.061,1.286c8.436-6.803,6.853-12.174,0.881-15.709H59.063
		c-0.276,0.236-0.539,0.478-0.776,0.733c-21.375,22.985,6.431,52.296,39.046,68.195c17.199,8.384,48.732,15.632,68.026,9.295
		c16.513-5.423,38.803-10.095,42.257-26.594c-0.074,14.116,27.512,22.05,27.319,18.596c0.911,16.259,12.159,17.124,26.583,14.975
		c9.212-1.372,27.133-3.453,29.401-14.811c-1.581,14.405,9.799,14.15,16.902,6.446c-6.198,10.016-1.096,27.336,8.593,32.258
		c9.802,4.979,29.265,3.7,35.187-6.705c4.34,4.239,14.62,15,19.211,5.601c-6.18,17.668-3.42,28.172,9.882,40.547
		c14.053,13.073,23.134,5.496,36.529-3.742c-5.309,4.461-4.88,16.565,1.236,20.54c8.1,5.264,28.909-0.37,36.88-4.001
		c6.63-3.02,12.769-7.01,19.133-10.527c2.967-1.64,16.185-5.812,17.467-8.223c-33.772,63.493,78.355,60.791,108.076,48.633
		c-16.211,9.457-10.807,20.264,4.053,22.966c9.457,1.351,29.721-5.404,37.826-8.106c17.562-4.053,38.83-20.921,53.691-30.378
		l10.79,15.456c8.187,10.644,27.837,16.375,40.937,19.65c4.706,0.784,22.916,1.562,15.806-7.01
		c3.491,3.486,9.241,5.787,13.669,2.097c11.462,21.287,67.137-1.638,50.762-28.656c4.094,0.819,3.275,0,7.369-0.819
		c15.556,13.1,46.668,7.369,47.487-16.375c24.562,14.737,76.143,5.731,84.331-23.744c1.638,5.731,6.55,9.006,10.644,4.094
		c4.912,12.281,49.125,24.562,54.037,6.55c31.931,8.187,87.606-14.737,74.506-54.856c4.094,7.369,17.194,15.556,22.106,4.912
		c7.369,10.644,34.387,13.1,45.031,15.556c17.194,4.912,41.701,4.567,48.25-20.814c15.556,4.094,23.799-7.024,23.799-16.848
		l17.194-55.675c1.637,12.281,22.925,31.112,36.025,26.2c0,5.731,1.637,7.369,4.912,11.462c-11.462-5.731-36.844,0.819-26.2,17.194
		c-3.275,4.094-3.275,9.825,0.819,13.919c-17.194,0.819-7.369,24.562,7.369,19.65c-0.819,7.369,4.094,11.462,11.462,12.281
		c-9.006,0.819-15.556,9.006-8.187,16.375c-2.456,4.094,0,4.912,4.094,6.55l18.831,0.819c-11.462,0.819-22.106,16.375-10.644,22.925
		c-9.006,1.637-9.006,10.644-6.55,17.194c-10.644-3.275-17.194,14.737-14.738,22.925c-7.369-3.275-40.118-1.637-31.112,13.1
		c5.731-1.637,4.913,0,9.006,1.638c-6.55,0.819-10.644,4.094-9.006,10.644c-27.837,0.819-11.462,28.656,1.637,14.737
		c0.679,14.939,22.11,3.639,24.231-8.544c0.264-1.517-0.98-6.082-0.98-6.082s4.219,2.122,8.607,1.664
		c5.534-0.578,10.254-3.855,15.629-5.05c-5.731,5.731-16.375,10.644-12.281,19.65c-7.369,1.638-19.65,13.1-9.006,18.012
		c-8.188,9.825,4.912,14.737,12.281,8.187c1.552,8.537,11.929,8.243,17.19,4.005c-0.035,7.331-0.55,17.448-8.184,19.738
		c4.094,0.819,2.456,2.456,8.188,1.637c0,10.644-2.456,15.556,4.912,25.381s33.477-15.641,28.924-29.681
		c-2.96-9.126,13.318-14.058,8.879-16.278c-9.751-4.876-7.527-5.459-9.372-18.991c-0.762-5.586,8.801-24.927,8.111-23.077
		c-1.98,5.307-3.607,16.753-3.332,22.411c0.365,7.483,16.16,38.035,37.104,18.45c4.992-4.669,12.163-12.264,12.163-12.264
		c-3.536,9.598,13.266,22.763,12.448,16.213l5.052,4.041c3.275,3.275,6.7,14.497,9.975,18.591
		c-6.55-2.456-13.919,4.094-15.556,10.644c-8.188-4.094-22.106,3.275-13.919,11.462c-5.731,1.638-6.55,7.369-0.819,10.644
		c-2.456,3.275-1.638,5.731-2.456,9.825c8.188-1.637,22.106,1.638,10.644,11.462c7.369,3.275,6.55,4.094,15.556,4.912
		c6.55,0,13.919-4.912,17.194,4.912c4.912-1.637,18.741-10.222,21.197-15.134c2.456-4.912,6.604-18.608,15.611-24.339
		c9.006-6.55,17.539-4.515,20.814,2.854c-1.007-10.575-2.854-16.618,6.882-13.764c0-16.375-25.205-10.203-31.754-13.478
		c6.55-4.912,23.743-19.65,14.737-27.019c1.637-8.187-5.731-18.012-13.919-18.012c9.006-6.55,17.194-0.819,25.381-5.731
		c4.913,4.912,7.369,3.275,6.55-3.275c0,0-1.211-11-3.795-16.492l11.874-9.448C1514.949,212.352,1489.92,192.016,1480.534,186.541z"
		/>
</g>
<path opacity="0.1" fill="#CFDEF2" enable-background="new    " d="M482.439,356.156c125.114,25.846,378.71,59.6,505.701,73.557
	c19.189,2.109,57.883,3.093,77.004,5.747c42.699,5.926,126.06,30.148,168.95,34.48c6.861,0.693,25.999,6.711,27.584,0
	c6.938-29.389-78.517-47.657-108.036-54.018c-28.672-6.178-88.377-0.667-117.231,4.597c-1.788,0.326-6.896,2.299-6.896,2.299
	s-19.906-19.968-28.733-21.837c-10.977-2.324-33.638,5.326-43.674,10.344c-2.007,1.004-6.896,5.747-6.896,5.747
	s-54.864-15.248-73.556-18.389c-19.343-3.251-58.66-4.723-78.154-6.896c-66.273-7.386-198.3-26.412-264.344-35.629
	c-27.89-3.892-111.484-16.09-111.484-16.09S467.286,353.025,482.439,356.156z"/>
<linearGradient id="SVGID_4_" gradientUnits="userSpaceOnUse" x1="1645.9362" y1="214.8856" x2="1931.332" y2="214.8856" gradientTransform="matrix(1 0 0 -1 -272.5 685)">
	<stop  offset="0" style="stop-color:#822034"/>
	<stop  offset="0.081" style="stop-color:#7C1D36"/>
	<stop  offset="0.2422" style="stop-color:#721737"/>
	<stop  offset="0.3923" style="stop-color:#6C1338"/>
	<stop  offset="0.5192" style="stop-color:#6A1138"/>
	<stop  offset="0.5383" style="stop-color:#6C1338"/>
	<stop  offset="0.6945" style="stop-color:#7E1E37"/>
	<stop  offset="0.8204" style="stop-color:#8A2435"/>
	<stop  offset="0.8995" style="stop-color:#8E2634"/>
</linearGradient>
<path fill="url(#SVGID_4_)" d="M1373.758,342.259c-4.396-3.889,37.694,51.948,37.694,51.948s31.548,72.475,43.492,81.62
	c5.622,4.305,13.437,8.382,21.807,12.008c7.465,3.234,15.363,5.896,22.668,11.379c12.522,9.399,8.41,26.063,20.57,36.597
	c18.027,15.616,26.525,19.002,40.477,26.935c5.967,3.393,17.238,8.987,32.144,14.733c29.838,11.502,66.222,20.685,66.222,20.685
	s-45.942-47.612-64.678-61.492c-20.611-15.268-71.291-33.489-91.684-50.779c-18.189-15.421-45.211-55.476-59.242-74.758
	c-9.052-12.439-31.127-45.189-47.929-57.79C1392.763,351.445,1380.276,348.025,1373.758,342.259z"/>
<g>
	
		<linearGradient id="SVGID_5_" gradientUnits="userSpaceOnUse" x1="1322.5" y1="-1032.5485" x2="1322.5" y2="228.929" gradientTransform="matrix(1 0 0 -1 -272.5 685)">
		<stop  offset="0" style="stop-color:#A93B23"/>
		<stop  offset="0.1547" style="stop-color:#792C34"/>
		<stop  offset="0.4094" style="stop-color:#3D133E"/>
		<stop  offset="0.5239" style="stop-color:#27043E"/>
		<stop  offset="0.572" style="stop-color:#451342"/>
		<stop  offset="0.6387" style="stop-color:#6E1D42"/>
		<stop  offset="0.689" style="stop-color:#8B223F"/>
		<stop  offset="0.7167" style="stop-color:#96233C"/>
		<stop  offset="1" style="stop-color:#AB302D"/>
	</linearGradient>
	<path opacity="0.8" fill="url(#SVGID_5_)" enable-background="new    " d="M2100,567.197c-6.901-6.049-27.573-19.351-54.822-29.703
		c-12.339-4.687-37.473-5.867-48.796-12.651c-9.52-5.704-31.675-1.918-42.772-1.807c-6.768,0.068-44.72,10.136-47.591,16.265
		c-3.308,7.063-24.097,21.085-24.097,21.085s-42.334-11.2-47.591-5.422c-4.809,5.286-22.456-2.469-22.058,4.666
		c1.105,19.849-24.328,92.324-24.328,92.324s-84.484-8.034-124.726,11.668c-13.77,6.742-29.975,38.874-45.063,41.596
		c-20.271,3.658-57.725-22.212-76.26-31.197c-41.204-19.974-114.62-80.814-159.453-90.126c-16.21-3.367-49.318,7.599-65.861,6.933
		c-14.096-0.567-41.444-8.813-55.462-10.399c-10.772-1.219-37.073-10.587-43.33-1.733c-5.386,7.623,14.898,25.388,13.865,34.664
		c-1.862,16.723-25.209,44.683-38.13,55.462c-17.871,14.908-61.723,36.319-84.926,38.13c-68.955,5.381-198.433-63.07-266.911-72.794
		c-27.03-3.838-82.544,4.208-109.191-1.733c-18.55-4.136-53.212-21.121-69.327-31.197c-5.763-3.604-14.496-15.092-20.888-17.406
		c-5.183-1.876-22.048,0-22.048,0s2.051-9.553,0-11.604s-8.962-1.199-11.604,0c-2.808,1.274-8.123,9.283-8.123,9.283
		s-4.934-12.912-4.642-17.406c0.346-5.322,5.093-15.338,8.123-19.727c3.614-5.236,18.464-11.045,18.567-17.406
		c0.053-3.282-6.026-8.882-9.283-9.283c-3.358-0.413-8.344,6.06-11.604,6.963c-8.667,2.401-27.08-1.337-35.973,0
		c-3.902,0.587-15.086,4.642-15.086,4.642l5.802-27.85c0,0-1.03-17.035-3.481-22.048c-2.795-5.716-11.1-17.723-17.406-18.567
		c-4.389-0.587-10.68,8.835-15.086,9.283c-10.134,1.032-28.226-15.476-38.294-13.925c-4.017,0.619-9.251,8.107-12.9,9.896
		c-15.639,7.667-50.728,12.611-67.376,17.73c-7.638,2.349-22.535,8.189-30.142,10.638c-31.644,10.19-97.028,24.315-127.659,37.234
		c-10.79,4.551-31.192,16.326-40.78,23.05c-13.384,9.385-35.328,34.665-49.645,42.553c-5.281,2.909-23.05,7.092-23.05,7.092
		s-23.57-11.685-31.915-10.638c-14.64,1.837-37.53,23.494-49.645,31.915C38.112,633.234,0,657.468,0,657.468V1080h2100V567.197z"/>
	
		<linearGradient id="SVGID_6_" gradientUnits="userSpaceOnUse" x1="661.749" y1="159.188" x2="661.749" y2="221.4477" gradientTransform="matrix(1 0 0 -1 -272.5 685)">
		<stop  offset="0" style="stop-color:#A93B23"/>
		<stop  offset="0.2504" style="stop-color:#A2332D"/>
		<stop  offset="0.7167" style="stop-color:#96233C"/>
		<stop  offset="1" style="stop-color:#AB302D"/>
	</linearGradient>
	<path opacity="0.8" fill="url(#SVGID_6_)" enable-background="new    " d="M259.066,525.812c0,0,52.055,0.018,68.264-2.697
		c16.468-2.757,49.565-7.71,65.699-12.01c23.533-6.272,91.837-32.496,91.837-32.496l34.566-8.511c0,0-11.355-3.723-12.931-4.789
		c-2.486-1.683-4.05-2.007-7.024-1.596c-12.905,1.783-15.316,5.716-28.034,8.538c-9.609,2.132-29.056,5.421-38.854,6.358
		c-6.156,0.589-18.751-0.891-24.725,0.706c-7.557,2.021-21.527,8.856-28.752,11.855c-10.734,4.455-34.121,9.192-45.177,12.771
		C315.443,509.928,259.066,525.812,259.066,525.812z"/>
	
		<linearGradient id="SVGID_7_" gradientUnits="userSpaceOnUse" x1="689.4573" y1="60.6267" x2="689.4573" y2="176.7481" gradientTransform="matrix(1 0 0 -1 -272.5 685)">
		<stop  offset="0" style="stop-color:#A93B23"/>
		<stop  offset="0.2504" style="stop-color:#A2332D"/>
		<stop  offset="0.7167" style="stop-color:#96233C"/>
		<stop  offset="1" style="stop-color:#AB302D"/>
	</linearGradient>
	<path opacity="0.8" fill="url(#SVGID_7_)" enable-background="new    " d="M546.14,519.834
		c-13.388,4.345-40.337,12.5-53.689,16.955c-25.751,8.592-77.216,25.979-102.434,36.029c-16.891,6.731-49.602,22.722-66.405,29.67
		c-11.003,4.55-47.939,5.554-44.506,16.955c4.646,15.426,47.33-9.891,62.873-14.129c20.584-5.612,61.198-18.824,81.241-26.138
		c26.712-9.748,78.24-34.235,105.26-43.093c6.228-2.042,23.839-8.994,23.839-8.994l2.714-18.837
		C555.032,508.252,547.733,519.317,546.14,519.834z"/>
	
		<linearGradient id="SVGID_8_" gradientUnits="userSpaceOnUse" x1="877.4612" y1="110.339" x2="877.4612" y2="164.063" gradientTransform="matrix(1 0 0 -1 -272.5 685)">
		<stop  offset="0" style="stop-color:#A93B23"/>
		<stop  offset="0.2504" style="stop-color:#A2332D"/>
		<stop  offset="0.7167" style="stop-color:#96233C"/>
		<stop  offset="1" style="stop-color:#AB302D"/>
	</linearGradient>
	<path opacity="0.8" fill="url(#SVGID_8_)" enable-background="new    " d="M607.787,520.996c3.408-0.781,9.837,6.394,9.89,9.89
		c0.062,4.123-8.826,8.713-11.303,12.01c-2.711,3.608-7.657,11.295-9.184,15.542c-1.149,3.197,1.103,16.223,1.103,16.223
		s-6.054-12.794-6.048-16.223c0.009-5.057,0.724-16.144,4.239-19.78c1.012-1.047,4.577-0.43,5.651-1.413
		C605.31,534.342,603.595,521.957,607.787,520.996z"/>
	
		<linearGradient id="SVGID_9_" gradientUnits="userSpaceOnUse" x1="857.6381" y1="117.9876" x2="857.6381" y2="156.1535" gradientTransform="matrix(1 0 0 -1 -272.5 685)">
		<stop  offset="0" style="stop-color:#A93B23"/>
		<stop  offset="0.2504" style="stop-color:#A2332D"/>
		<stop  offset="0.7167" style="stop-color:#96233C"/>
		<stop  offset="1" style="stop-color:#AB302D"/>
	</linearGradient>
	<path opacity="0.8" fill="url(#SVGID_9_)" enable-background="new    " d="M579.529,538.657c1.429-1.565,9.603-11.151,11.101-9.652
		c2.123,2.123-2.303,18.677-2.624,21.662c-0.444,4.133,0.217,14.453-3.532,16.248c-1.069,0.512-3.616-1.112-4.239-2.119
		c-1.3-2.103,0-7.418,0-9.89c0-2.119,0.096-6.36,0-8.477C580.147,544.479,578.214,540.097,579.529,538.657z"/>
	
		<linearGradient id="SVGID_10_" gradientUnits="userSpaceOnUse" x1="445.2271" y1="56.5427" x2="445.2271" y2="143.3494" gradientTransform="matrix(1 0 0 -1 -272.5 685)">
		<stop  offset="0" style="stop-color:#A93B23"/>
		<stop  offset="0.2504" style="stop-color:#A2332D"/>
		<stop  offset="0.7167" style="stop-color:#96233C"/>
		<stop  offset="1" style="stop-color:#AB302D"/>
	</linearGradient>
	<path opacity="0.8" fill="url(#SVGID_10_)" enable-background="new    " d="M122.684,618.195
		c4.362,3.399,17.133,12.019,19.049,9.944c6.355-6.885,31.56-26.104,36.871-33.209c4.949-6.622,12.858-21.373,18.528-27.389
		c5.221-5.54,24.26-18.9,27.453-25.605c0.87-1.827-9.403,5.69-11.342,6.272c-7.954,2.385-19.612,15.383-25.778,20.945
		c-6.556,5.913-23.824,18.474-29.609,25.144c-2.639,3.043-7.153,3.84-10.855,5.428c-3.168,1.359-12.364,3.132-15.804,3.352
		c-4.972,0.318-6.565-2.41-10.182-3.523C120.221,599.309,122.029,617.685,122.684,618.195z"/>
</g>
<linearGradient id="SVGID_11_" gradientUnits="userSpaceOnUse" x1="1322.5" y1="-773.4031" x2="1322.5" y2="113.396" gradientTransform="matrix(1 0 0 -1 -272.5 685)">
	<stop  offset="0" style="stop-color:#210008"/>
	<stop  offset="0.513" style="stop-color:#391022"/>
	<stop  offset="0.562" style="stop-color:#3D1023"/>
	<stop  offset="0.6265" style="stop-color:#4A0D28"/>
	<stop  offset="0.6742" style="stop-color:#57042C"/>
	<stop  offset="0.7116" style="stop-color:#661030"/>
	<stop  offset="0.7638" style="stop-color:#771B33"/>
	<stop  offset="0.8139" style="stop-color:#842134"/>
	<stop  offset="0.8603" style="stop-color:#8B2534"/>
	<stop  offset="0.8995" style="stop-color:#8E2634"/>
</linearGradient>
<path fill="url(#SVGID_11_)" d="M2070.031,737.235c-5.255,4.132-14.611-11.67-14.611-11.67s-20.145-17.855-28.505-20.555
	c-9.494-3.066-39.907,0-39.907,0s-23.61,8.772-39.331,3.436c-20.256-6.875-11.241,15.971-32.388,19.193
	c-36.54,5.568-104.706-1.754-137.188,15.883c-5.861,3.182-19.954,17.705-19.954,17.705s-141.376-62.352-152.834-61.483
	c-26.301,1.995-79.336-0.726-105.469,2.851c-23.289,3.187-68.11,18.488-91.217,22.804c-16.943,3.165-51.278,6.678-68.412,8.552
	c-22.769,2.49-68.538,5.347-91.217,8.552c-28.727,4.059-114.021,21.601-114.021,21.601s-35.002-25.408-48.459-30.152
	c-27.759-9.788-264.872,1.445-294.109-1.962c-12.82-1.494-55.84,27.727-68.615,25.892c-12.177-1.749-38.358,10.911-50.49,12.946
	c-14.472,2.428-34.507,20.778-34.507,20.778s-13.802,10.377-47.978,5.187c-13.552-2.058-33.976-20.292-44.54-28.164
	c-11.025-8.215-31.424-20.617-43.067-34.201c-8.526-9.947-63.264-27.942-69.677-27.942c-10.689,0-23.893-31.978-23.893-31.978
	s-32.72-22.6-38.155-32.364c-4.5-8.084-30.755-58.067-37.95-63.883c-16.673-13.477-17.683,0.662-37.95-6.325
	c-8.758-3.019-7.954,15.734-17.137,16.964c-8.053,1.078-20.89,21.608-24.46,28.907c-2.818,5.761-23.793,11.842-28.328,16.378
	s-32.525,14.607-38.867,13.653c-9.585-1.441-23.966,4.704-33.523,6.325c-14.831,2.516-14.771,13.339-24.668,24.668
	c-5.869,6.718-31.216,10.939-31.216,10.939s-25.516,8.008-34.206,7.126c-14.936-1.52-53.006,8.627-63.182,11.443V1080h2100
	l-3.431-343.426C2091.243,735.128,2076.81,731.904,2070.031,737.235z"/>
<linearGradient id="SVGID_12_" gradientUnits="userSpaceOnUse" x1="1536.3059" y1="-325.5215" x2="1563.0875" y2="-325.5215" gradientTransform="matrix(1 0 0 -1 -272.5 685)">
	<stop  offset="0" style="stop-color:#210008"/>
	<stop  offset="0.513" style="stop-color:#391022"/>
	<stop  offset="0.562" style="stop-color:#3D1023"/>
	<stop  offset="0.6265" style="stop-color:#4A0D28"/>
	<stop  offset="0.6742" style="stop-color:#57042C"/>
	<stop  offset="0.7116" style="stop-color:#661030"/>
	<stop  offset="0.7638" style="stop-color:#771B33"/>
	<stop  offset="0.8139" style="stop-color:#842134"/>
	<stop  offset="0.8603" style="stop-color:#8B2534"/>
	<stop  offset="0.8995" style="stop-color:#8E2634"/>
</linearGradient>
<path opacity="0.05" fill="url(#SVGID_12_)" enable-background="new    " d="M1263.895,1006.313
	c0.384-0.601,2.092-0.467,2.802-0.534c1.029-0.097,3.156,0.332,4.136,0c1.352-0.458,3.102-1.156,3.734-2.435
	c0.325-0.658,3.671-0.152,4.346,0.136c1.819,0.775,2.421,0.775,11.53,7.636c0.584,0.44-0.762,2.083-1.201,2.668
	c-1.079,1.438-2.02,2.129-3.707,2.751c-2.722,1.004-7.088,2.509-9.167,0.484c-0.908-0.885-6.735-2.5-7.304-3.633
	c-1.017-2.025-3.319-3.093-4.635-4.938C1264.109,1008,1263.599,1006.777,1263.895,1006.313z"/>
<linearGradient id="SVGID_13_" gradientUnits="userSpaceOnUse" x1="1572.6965" y1="-244.6949" x2="1581.8777" y2="-244.6949" gradientTransform="matrix(1 0 0 -1 -272.5 685)">
	<stop  offset="0" style="stop-color:#210008"/>
	<stop  offset="0.513" style="stop-color:#391022"/>
	<stop  offset="0.562" style="stop-color:#3D1023"/>
	<stop  offset="0.6265" style="stop-color:#4A0D28"/>
	<stop  offset="0.6742" style="stop-color:#57042C"/>
	<stop  offset="0.7116" style="stop-color:#661030"/>
	<stop  offset="0.7638" style="stop-color:#771B33"/>
	<stop  offset="0.8139" style="stop-color:#842134"/>
	<stop  offset="0.8603" style="stop-color:#8B2534"/>
	<stop  offset="0.8995" style="stop-color:#8E2634"/>
</linearGradient>
<path opacity="0.05" fill="url(#SVGID_13_)" enable-background="new    " d="M1300.894,921.928c-1.453-0.438-0.22,4.568,0,6.069
	c0.199,1.358,0.668,4.232,1.578,5.259c0.761,0.859,3.278,1.166,4.207,1.841c0.64,0.465,1.364,2.648,2.104,2.367
	c1.231-0.468,0.201-3.968,0-5.27c-0.2-1.292-0.85-3.9-1.578-4.986C1306.06,925.5,1303.261,922.642,1300.894,921.928z"/>
<linearGradient id="SVGID_14_" gradientUnits="userSpaceOnUse" x1="966.7574" y1="-199.6237" x2="982.7426" y2="-199.6237" gradientTransform="matrix(1 0 0 -1 -272.5 685)">
	<stop  offset="0" style="stop-color:#210008"/>
	<stop  offset="0.513" style="stop-color:#391022"/>
	<stop  offset="0.562" style="stop-color:#3D1023"/>
	<stop  offset="0.6265" style="stop-color:#4A0D28"/>
	<stop  offset="0.6742" style="stop-color:#57042C"/>
	<stop  offset="0.7116" style="stop-color:#661030"/>
	<stop  offset="0.7638" style="stop-color:#771B33"/>
	<stop  offset="0.8139" style="stop-color:#842134"/>
	<stop  offset="0.8603" style="stop-color:#8B2534"/>
	<stop  offset="0.8995" style="stop-color:#8E2634"/>
</linearGradient>
<path opacity="0.1" fill="url(#SVGID_14_)" enable-background="new    " d="M695.002,879.708c-1.211,1.211-0.748,5.308,0,6.848
	c0.533,1.097,2.884,2.251,3.835,3.013c0.759,0.609,5.439,0.415,5.823-0.48c0.736-1.718-1.625-2.566-0.07-3.218
	c0.809-0.339,4.389,1.317,5.211,1.009c0.947-0.355,0.091-2.331-0.006-3.337c-0.119-1.234-1.946-3.519-3.145-3.835
	c-1.102-0.29-3.481,0.661-4.62,0.667c-0.919,0.005-2.024-0.456-2.918-0.667C698.111,879.472,695.729,878.982,695.002,879.708z"/>
<linearGradient id="SVGID_15_" gradientUnits="userSpaceOnUse" x1="942.9957" y1="-191.5049" x2="952.5595" y2="-191.5049" gradientTransform="matrix(1 0 0 -1 -272.5 685)">
	<stop  offset="0" style="stop-color:#210008"/>
	<stop  offset="0.513" style="stop-color:#391022"/>
	<stop  offset="0.562" style="stop-color:#3D1023"/>
	<stop  offset="0.6265" style="stop-color:#4A0D28"/>
	<stop  offset="0.6742" style="stop-color:#57042C"/>
	<stop  offset="0.7116" style="stop-color:#661030"/>
	<stop  offset="0.7638" style="stop-color:#771B33"/>
	<stop  offset="0.8139" style="stop-color:#842134"/>
	<stop  offset="0.8603" style="stop-color:#8B2534"/>
	<stop  offset="0.8995" style="stop-color:#8E2634"/>
</linearGradient>
<path opacity="0.1" fill="url(#SVGID_15_)" enable-background="new    " d="M671.222,868.414c-1.513-0.457-0.229,4.759,0,6.322
	c0.208,1.415,0.695,4.408,1.644,5.479c0.793,0.895,3.415,1.215,4.383,1.918c0.667,0.485,1.421,2.758,2.191,2.465
	c1.283-0.488,0.209-4.133,0-5.489c-0.208-1.346-0.886-4.062-1.644-5.194C676.604,872.134,673.687,869.158,671.222,868.414z"/>
<linearGradient id="SVGID_16_" gradientUnits="userSpaceOnUse" x1="2031.1777" y1="-61.1919" x2="2040.7427" y2="-61.1919" gradientTransform="matrix(1 0 0 -1 -272.5 685)">
	<stop  offset="0" style="stop-color:#210008"/>
	<stop  offset="0.513" style="stop-color:#391022"/>
	<stop  offset="0.562" style="stop-color:#3D1023"/>
	<stop  offset="0.6265" style="stop-color:#4A0D28"/>
	<stop  offset="0.6742" style="stop-color:#57042C"/>
	<stop  offset="0.7116" style="stop-color:#661030"/>
	<stop  offset="0.7638" style="stop-color:#771B33"/>
	<stop  offset="0.8139" style="stop-color:#842134"/>
	<stop  offset="0.8603" style="stop-color:#8B2534"/>
	<stop  offset="0.8995" style="stop-color:#8E2634"/>
</linearGradient>
<path opacity="0.1" fill="url(#SVGID_16_)" enable-background="new    " d="M1759.404,738.101c-1.513-0.457-0.229,4.759,0,6.323
	c0.208,1.415,0.695,4.408,1.644,5.479c0.793,0.895,3.415,1.215,4.383,1.917c0.667,0.485,1.421,2.758,2.192,2.465
	c1.283-0.488,0.209-4.133,0-5.489c-0.208-1.346-0.886-4.062-1.644-5.194C1764.786,741.821,1761.869,738.845,1759.404,738.101z"/>
<linearGradient id="SVGID_17_" gradientUnits="userSpaceOnUse" x1="2088.7922" y1="-96.4577" x2="2104.7776" y2="-96.4577" gradientTransform="matrix(1 0 0 -1 -272.5 685)">
	<stop  offset="0" style="stop-color:#210008"/>
	<stop  offset="0.513" style="stop-color:#391022"/>
	<stop  offset="0.562" style="stop-color:#3D1023"/>
	<stop  offset="0.6265" style="stop-color:#4A0D28"/>
	<stop  offset="0.6742" style="stop-color:#57042C"/>
	<stop  offset="0.7116" style="stop-color:#661030"/>
	<stop  offset="0.7638" style="stop-color:#771B33"/>
	<stop  offset="0.8139" style="stop-color:#842134"/>
	<stop  offset="0.8603" style="stop-color:#8B2534"/>
	<stop  offset="0.8995" style="stop-color:#8E2634"/>
</linearGradient>
<path opacity="0.05" fill="url(#SVGID_17_)" enable-background="new    " d="M1817.037,776.542c-1.211,1.211-0.748,5.308,0,6.848
	c0.533,1.097,2.884,2.251,3.835,3.013c0.759,0.609,5.439,0.415,5.823-0.48c0.736-1.718-1.625-2.566-0.07-3.218
	c0.809-0.339,4.389,1.317,5.211,1.009c0.947-0.355,0.091-2.331-0.006-3.337c-0.12-1.234-1.946-3.519-3.145-3.835
	c-1.102-0.29-3.481,0.661-4.62,0.667c-0.919,0.005-2.024-0.456-2.918-0.667C1820.146,776.306,1817.764,775.816,1817.037,776.542z"/>
<linearGradient id="SVGID_18_" gradientUnits="userSpaceOnUse" x1="2175.531" y1="-193.7555" x2="2202.3125" y2="-193.7555" gradientTransform="matrix(1 0 0 -1 -272.5 685)">
	<stop  offset="0" style="stop-color:#210008"/>
	<stop  offset="0.513" style="stop-color:#391022"/>
	<stop  offset="0.562" style="stop-color:#3D1023"/>
	<stop  offset="0.6265" style="stop-color:#4A0D28"/>
	<stop  offset="0.6742" style="stop-color:#57042C"/>
	<stop  offset="0.7116" style="stop-color:#661030"/>
	<stop  offset="0.7638" style="stop-color:#771B33"/>
	<stop  offset="0.8139" style="stop-color:#842134"/>
	<stop  offset="0.8603" style="stop-color:#8B2534"/>
	<stop  offset="0.8995" style="stop-color:#8E2634"/>
</linearGradient>
<path opacity="0.05" fill="url(#SVGID_18_)" enable-background="new    " d="M1903.12,874.547c0.384-0.601,2.092-0.467,2.802-0.534
	c1.029-0.097,3.156,0.332,4.136,0c1.352-0.458,3.102-1.156,3.734-2.435c0.325-0.658,3.671-0.152,4.346,0.136
	c1.819,0.775,2.421,0.775,11.53,7.636c0.584,0.44-0.762,2.083-1.201,2.668c-1.079,1.438-2.02,2.129-3.707,2.751
	c-2.722,1.004-7.088,2.509-9.167,0.484c-0.908-0.885-6.736-2.5-7.304-3.633c-1.017-2.025-3.319-3.093-4.635-4.938
	C1903.334,876.234,1902.824,875.011,1903.12,874.547z"/>
<linearGradient id="SVGID_19_" gradientUnits="userSpaceOnUse" x1="2272.7881" y1="-140.1843" x2="2290.6455" y2="-140.1843" gradientTransform="matrix(1 0 0 -1 -272.5 685)">
	<stop  offset="0" style="stop-color:#210008"/>
	<stop  offset="0.513" style="stop-color:#391022"/>
	<stop  offset="0.562" style="stop-color:#3D1023"/>
	<stop  offset="0.6265" style="stop-color:#4A0D28"/>
	<stop  offset="0.6742" style="stop-color:#57042C"/>
	<stop  offset="0.7116" style="stop-color:#661030"/>
	<stop  offset="0.7638" style="stop-color:#771B33"/>
	<stop  offset="0.8139" style="stop-color:#842134"/>
	<stop  offset="0.8603" style="stop-color:#8B2534"/>
	<stop  offset="0.8995" style="stop-color:#8E2634"/>
</linearGradient>
<path opacity="0.1" fill="url(#SVGID_19_)" enable-background="new    " d="M2013.932,816.328c-1.054,0.314-2.856,1.049-3.954,1.003
	c-0.992-0.041-1.942-0.685-2.882-1.003c-0.747-0.253-2.444-0.341-3.156,0c-1.23,0.589-2.965,2.964-3.418,4.25
	c-0.284,0.806-0.339,2.634,0,3.418c0.913,2.113,4.828,4.98,6.705,6.311c0.816,0.578,5.059,4.122,6.05,3.99
	c1.061-0.141,0.841-4.366,1.532-5.184c1.212-1.435,2.83-4.327,3.2-6.169c0.331-1.647,0.105-5.538-1.183-6.616
	C2016.27,815.864,2014.625,816.122,2013.932,816.328z"/>
<linearGradient id="SVGID_20_" gradientUnits="userSpaceOnUse" x1="2288.4495" y1="-157.7786" x2="2329.5007" y2="-157.7786" gradientTransform="matrix(1 0 0 -1 -272.5 685)">
	<stop  offset="0" style="stop-color:#210008"/>
	<stop  offset="0.513" style="stop-color:#391022"/>
	<stop  offset="0.562" style="stop-color:#3D1023"/>
	<stop  offset="0.6265" style="stop-color:#4A0D28"/>
	<stop  offset="0.6742" style="stop-color:#57042C"/>
	<stop  offset="0.7116" style="stop-color:#661030"/>
	<stop  offset="0.7638" style="stop-color:#771B33"/>
	<stop  offset="0.8139" style="stop-color:#842134"/>
	<stop  offset="0.8603" style="stop-color:#8B2534"/>
	<stop  offset="0.8995" style="stop-color:#8E2634"/>
</linearGradient>
<path opacity="0.05" fill="url(#SVGID_20_)" enable-background="new    " d="M2016.086,836.328c0.589-0.921,3.206-0.715,4.294-0.818
	c1.578-0.149,4.838,0.508,6.339,0c2.073-0.702,4.755-1.771,5.724-3.733c0.498-1.008,5.627-0.232,6.662,0.208
	c2.789,1.188,3.711,1.188,17.674,11.704c0.896,0.675-1.168,3.193-1.84,4.09c-1.654,2.205-3.097,3.263-5.683,4.216
	c-4.173,1.539-10.865,3.846-14.051,0.743c-1.392-1.356-10.324-3.833-11.197-5.569c-1.559-3.105-5.087-4.742-7.105-7.569
	C2016.414,838.914,2015.632,837.039,2016.086,836.328z"/>
<linearGradient id="SVGID_21_" gradientUnits="userSpaceOnUse" x1="1250.3091" y1="-167.8602" x2="1555.5859" y2="8.3916" gradientTransform="matrix(1 0 0 -1 -272.5 685)">
	<stop  offset="0" style="stop-color:#210008"/>
	<stop  offset="0.513" style="stop-color:#391022"/>
	<stop  offset="0.562" style="stop-color:#3D1023"/>
	<stop  offset="0.6265" style="stop-color:#4A0D28"/>
	<stop  offset="0.6742" style="stop-color:#57042C"/>
	<stop  offset="0.7116" style="stop-color:#661030"/>
	<stop  offset="0.7638" style="stop-color:#771B33"/>
	<stop  offset="0.8139" style="stop-color:#842134"/>
	<stop  offset="0.8603" style="stop-color:#8B2534"/>
	<stop  offset="0.8995" style="stop-color:#8E2634"/>
</linearGradient>
<path fill="url(#SVGID_21_)" d="M887.427,695.76c1.708-5.486,35.13,5.813,48.459,8.552c6.546,1.345,141.12,9.977,149.514,10.32
	c29.077,1.187,41.28,26.41,67.125,39.786c30.5,15.784,45.513-10.867,76.326,4.296c7.961,3.917,38.241-15.539,46.161-11.54
	c6.557,3.31,32.749,10.729,37.698,16.156c17.652,19.355,17,41,21.542,44.622c7,5.582,21.278,12.871,34.621,20.003
	c18.71,10.002-43.043,24.066-51.129,22.779c-26.839-4.27-46.134-17.524-70.428-29.704c-15.301-7.671-47.029,5.165-61.808-3.469
	c-20.084-11.734-60.235-35.621-78.257-50.327c-7.164-5.846-9.453-22.417-17.56-26.865c-6.448-3.537-29.72-5.773-37.072-5.62
	c-11.83,0.246-36.014-10.706-39.284-10.681C1005.151,724.131,884.995,703.572,887.427,695.76z"/>
<linearGradient id="SVGID_22_" gradientUnits="userSpaceOnUse" x1="1322.5" y1="-1686.6694" x2="1322.5" y2="387.1479" gradientTransform="matrix(1 0 0 -1 -272.5 685)">
	<stop  offset="0" style="stop-color:#210008"/>
	<stop  offset="0.513" style="stop-color:#391022"/>
	<stop  offset="0.5653" style="stop-color:#3D1023"/>
	<stop  offset="0.6343" style="stop-color:#4A0D28"/>
	<stop  offset="0.6852" style="stop-color:#57042C"/>
	<stop  offset="0.7208" style="stop-color:#661030"/>
	<stop  offset="0.7705" style="stop-color:#771B33"/>
	<stop  offset="0.8181" style="stop-color:#842134"/>
	<stop  offset="0.8622" style="stop-color:#8B2534"/>
	<stop  offset="0.8995" style="stop-color:#8E2634"/>
</linearGradient>
<path fill="url(#SVGID_22_)" d="M1972.157,734.718c-17.491,8.746-124.218,5.951-159.2-31.218
	c-10.941-11.625-124.936-90.811-161.794-109.32c-23.532-11.817-41.116-52.372-65.373-62.618
	c-21.788-9.203-64.977-30.09-82.995-45.412c-24.125-20.515-57.472-75.689-77.872-99.911c-7.035-8.353-20.867-25.491-29.386-32.324
	c-4.62-3.706-17.597-6.632-20.57-11.754c-3.687-6.354,5.605-24.637,0-29.386c-6.819-5.777-26.338,5.402-35.263,5.877
	c-12.493,0.665-37.929,0.507-49.956-2.939c-8.849-2.535-23.442-20.047-32.324-17.631c-3.647,0.992-5.834,9.723-7.778,12.964
	c-2.463,4.105-8.575,11.808-9.853,16.422c-2.745,9.912,4.285,25.487,1.86,35.482c-3.118,12.852-44.166,48.68-52.815,58.684
	c-18.167,21.012-17.287,72.522-42.057,85.091c-36.556,18.55-275.206,179.309-313.958,192.678
	c-23.626,8.151-45.171,74.971-96.246,91.703c-38.706,12.68-41.804,40.632-88.993,54.602c-46.28,13.701-64.1,74.711-107.612,85.833
	c-41.564,10.624-153.371-2.819-182.757,2.079c-88.412,14.735-197.652-145.515-225.617-145.515C72.6,788.104,6.847,760.77,0,757.853
	V1080h2100l-3.431-323.733C2073.851,750.551,1984.348,728.622,1972.157,734.718z"/>
<linearGradient id="SVGID_23_" gradientUnits="userSpaceOnUse" x1="1096.166" y1="175.3245" x2="1545.3695" y2="175.3245" gradientTransform="matrix(1 0 0 -1 -272.5 685)">
	<stop  offset="0.2462" style="stop-color:#57042C"/>
	<stop  offset="0.3713" style="stop-color:#661030"/>
	<stop  offset="0.5462" style="stop-color:#771B33"/>
	<stop  offset="0.7136" style="stop-color:#842134"/>
	<stop  offset="0.8688" style="stop-color:#8B2534"/>
	<stop  offset="1" style="stop-color:#8E2634"/>
</linearGradient>
<path fill="url(#SVGID_23_)" d="M823.666,706.505c0,0,222.952-146.982,325.701-201.004c6.303-3.314,24.202-60.321,35.715-78.568
	c11.322-17.944,47.67-44.913,54.614-64.962c2.482-7.166-2.69-22.932-0.978-30.32c1.201-5.184,9.97-18.805,9.97-18.805
	s-2.5,25.115-0.017,32.976c1.193,3.776,3.594,13.674,6.207,16.65c2.711,3.087,15.559,18.031,17.315,21.745
	c3.945,8.341-10.601,17.414-11.678,26.577c-2.354,20.036,1.665,80.99-6.443,99.463c-7.798,17.768-66.022,23.639-95.839,49.933
	c-34.312,30.259-46.208,54.697-62.013,70.47c-14.177,14.148-37.113,17.484-40.671,20.94c-4.118,4-31.824-15.69-36.405-15.56
	C973.273,637.347,823.666,706.505,823.666,706.505z"/>
<linearGradient id="SVGID_24_" gradientUnits="userSpaceOnUse" x1="1564.4999" y1="-347.9919" x2="1564.4999" y2="161.4601" gradientTransform="matrix(1 0 0 -1 -272.5 685)">
	<stop  offset="0" style="stop-color:#660F32"/>
	<stop  offset="0.2473" style="stop-color:#671133"/>
	<stop  offset="0.4682" style="stop-color:#6D1434"/>
	<stop  offset="0.6791" style="stop-color:#771A35"/>
	<stop  offset="0.8826" style="stop-color:#842135"/>
	<stop  offset="1" style="stop-color:#8E2634"/>
</linearGradient>
<path fill="url(#SVGID_24_)" d="M1091.63,929.731c5.019-16.197,45.117-23.666,60.904-29.855c8.706-3.413,29.1-4.251,35.826-10.748
	c15.415-14.889,25.743-59.844,27.467-81.205c1.168-14.481-4.279-43.785-9.554-57.321c-3.06-7.852-17.807-19.829-18.417-28.234
	c-0.794-10.943,13.056-30.263,18.417-39.835c9.468-16.905,28.343-51.804,42.991-64.487c5.25-4.545,18.996-15.292,25.078-11.942
	c6.584,3.627,3.583,29.855,3.583,29.855s18.091-13.207,23.884-17.913c10.18-8.27,32.303-23.607,39.409-34.632
	c8.476-13.151,18.207-59.874,18.207-59.874l12.567,27.779c0,0-15.934,47.822-15.249,64.338c0.638,15.376,13.563,44.16,19.107,58.516
	c3.418,8.851,10.896,26.349,15.525,34.632c8.281,14.819,29.453,41.588,38.214,56.127c5.928,9.837,20.243,29.186,21.496,40.603
	c1.351,12.311,52.985,58.542,40.623,59.293c-18.041,1.096-67.959-66.126-81.226-78.4c-7.138-6.604-37.02-11.942-37.02-11.942
	s-3.063,9.772-3.583,13.136c-2.278,14.765,0.803,45.115-2.388,59.71c-4.69,21.448-18.839,64.807-33.438,81.205
	c-35.19,39.526-134.17,117.076-185.1,102.701C1120.904,1023.321,1083.004,957.569,1091.63,929.731z"/>
<linearGradient id="SVGID_25_" gradientUnits="userSpaceOnUse" x1="1688.2048" y1="110.532" x2="1688.2048" y2="243.7539" gradientTransform="matrix(1 0 0 -1 -272.5 685)">
	<stop  offset="0" style="stop-color:#741933"/>
	<stop  offset="0.0374" style="stop-color:#771B33"/>
	<stop  offset="0.2182" style="stop-color:#842134"/>
	<stop  offset="0.3863" style="stop-color:#8B2534"/>
	<stop  offset="0.5285" style="stop-color:#8E2634"/>
</linearGradient>
<path fill="url(#SVGID_25_)" d="M1380.589,448.8c0,0-3.231,26.749-3.307,35.716c-0.075,8.788,0.345,26.573,2.646,35.055
	c2.071,7.637,8.808,22.375,13.89,28.441c4.864,5.806,19.184,12.436,24.472,17.858c1.826,1.872,5.953,8.598,5.953,8.598
	s-5.35-28.82-3.969-38.362c0.871-6.017,3.833-19.747,9.26-22.488c5.477-2.766,20.346,11.017,23.811,5.953
	c4.689-6.853-12.74-21.876-19.181-27.118c-5.456-4.44-20.664-6.431-25.795-11.244c-4.746-4.452-9.3-17.186-11.905-23.149
	c-1.738-3.977-5.291-14.551-5.291-16.535C1391.172,439.54,1380.589,448.8,1380.589,448.8z"/>
<linearGradient id="SVGID_26_" gradientUnits="userSpaceOnUse" x1="1749.6519" y1="72.4429" x2="1749.6519" y2="136.1102" gradientTransform="matrix(1 0 0 -1 -272.5 685)">
	<stop  offset="0" style="stop-color:#822034"/>
	<stop  offset="0.1447" style="stop-color:#811F36"/>
	<stop  offset="0.3648" style="stop-color:#7D1D3B"/>
	<stop  offset="0.5192" style="stop-color:#7A1A3F"/>
	<stop  offset="0.6483" style="stop-color:#7B1B3F"/>
	<stop  offset="0.7637" style="stop-color:#7E1D3D"/>
	<stop  offset="0.8739" style="stop-color:#84213A"/>
	<stop  offset="0.9802" style="stop-color:#8C2535"/>
	<stop  offset="1" style="stop-color:#8E2634"/>
</linearGradient>
<path fill="url(#SVGID_26_)" d="M1460.533,548.944c-1.737,0.494-4.484,3.748-4.624,5.548c-0.156,2.016,2.708,5.53,4.161,6.936
	c0.855,0.827,3.931,1.144,4.161,2.312c0.286,1.452-3.6,3.147-3.699,4.624c-0.226,3.362,5.19,8.677,6.936,11.559
	c2.526,4.172,7.155,12.814,10.172,16.645c1.416,1.798,5.01,4.714,6.473,6.473c1.435,1.725,3.188,6.201,5.086,7.398
	c1.881,1.186,7.516,3.213,8.785,1.387c2.422-3.485-6.418-11.003-8.323-14.796c-3.065-6.104-7.863-18.951-11.097-24.968
	c-3.051-5.677-8.788-17.768-13.871-21.731C1463.83,549.657,1461.588,548.644,1460.533,548.944z"/>
<linearGradient id="SVGID_27_" gradientUnits="userSpaceOnUse" x1="1854.0317" y1="-77.984" x2="1854.0317" y2="205.4437" gradientTransform="matrix(1 0 0 -1 -272.5 685)">
	<stop  offset="0" style="stop-color:#822034"/>
	<stop  offset="0.1713" style="stop-color:#801F35"/>
	<stop  offset="0.4319" style="stop-color:#791B39"/>
	<stop  offset="0.5192" style="stop-color:#771A3A"/>
	<stop  offset="0.659" style="stop-color:#781B3A"/>
	<stop  offset="0.7839" style="stop-color:#7D1D39"/>
	<stop  offset="0.9028" style="stop-color:#852137"/>
	<stop  offset="1" style="stop-color:#8E2634"/>
</linearGradient>
<path fill="url(#SVGID_27_)" d="M1467.133,482.822c3.36,2.745,8.655,9.723,11.559,12.946c2.3,2.553,6.104,8.782,9.247,10.172
	c2.431,1.076,8.445-1.509,10.635,0c2.139,1.474,4.368,7.2,3.699,9.71c-0.423,1.587-4.6,2.592-5.086,4.161
	c-0.856,2.76,1.988,8.491,3.237,11.097c11.947,24.927,41.817,69.384,61.815,88.468c1.879,1.793,7.802,7.048,10.315,7.705
	c4.367,1.143,13.88-2.696,18.032-0.925c17.714,7.556,37.479,43.977,50.398,58.259c9.819,10.855,30.675,31.448,40.226,42.538
	c5.749,6.676,18.858,19.414,21.731,27.742c0.641,1.858,1.562,6.668,0,7.86c-2.095,1.6-7.759-1.714-10.172-2.774
	c-3.376-1.484-8.94-6.838-12.484-7.86c-1.666-0.481-5.208,0.143-6.936,0c-2.803-0.232-8.647-0.469-11.097-1.849
	c-22.567-12.717-48.874-60.609-67.506-78.603c-2.662-2.571-7.968-8.354-11.559-9.247c-4.224-1.051-13.068,4.858-17.108,3.237
	c-1.845-0.741-3.498-4.834-4.624-6.473c-3.684-5.365-7.928-22.885-14.333-21.731c-1.518,0.273-1.255,4.474-1.387,6.011
	c-0.178,2.076,1.727,6.666,0.462,8.323c-1.004,1.315-4.864,1.775-6.473,1.387c-3.914-0.943-10.051-6.965-12.484-10.172
	c-14.171-18.684-27.523-64.756-37.452-86.001c-3.83-8.196-14.104-23.561-16.183-32.366c-0.93-3.938,1.069-12.281,0-16.183
	c-0.959-3.499-5.616-9.324-7.398-12.484c-1.803-3.198-7.171-9.282-6.936-12.946c0.064-0.992,1.34-3.028,2.312-3.237
	C1463.154,479.248,1465.889,481.806,1467.133,482.822z"/>
<linearGradient id="SVGID_28_" gradientUnits="userSpaceOnUse" x1="1492.9147" y1="213.7654" x2="1492.9147" y2="337.0754" gradientTransform="matrix(1 0 0 -1 -272.5 685)">
	<stop  offset="0" style="stop-color:#822034"/>
	<stop  offset="0.4671" style="stop-color:#862234"/>
	<stop  offset="1" style="stop-color:#8E2634"/>
</linearGradient>
<path fill="url(#SVGID_28_)" d="M1239.41,363.757c-1.471,5.336-8.067,14.516-10.635,19.42c-2.158,4.122-6.524,12.355-8.323,16.645
	c-3.307,7.889-10.432,23.838-11.097,32.366c-0.155,1.989,2.047,5.977,1.387,7.86c-1.274,3.633-9.708,6.797-11.559,10.172
	c-2.532,4.615-7.725,18.056-3.237,20.807c2.188,1.341,6.522-4.182,8.323-6.011c5.241-5.325,13.984-17.718,17.108-24.506
	c4.244-9.219,6.422-29.871,10.172-39.302c2.389-6.009,10.529-16.492,12.484-22.656c1.266-3.991,1.757-12.459,1.849-16.645
	c0.077-3.475,2.176-12.301-0.925-13.871c-1.344-0.681-4.336,1.929-5.086,3.237C1238.319,353.983,1240.24,360.746,1239.41,363.757z"
	/>
<linearGradient id="SVGID_29_" gradientUnits="userSpaceOnUse" x1="1815.3453" y1="-187.3223" x2="1815.3453" y2="-29.4695" gradientTransform="matrix(1 0 0 -1 -272.5 685)">
	<stop  offset="0" style="stop-color:#6C1628"/>
	<stop  offset="0.1713" style="stop-color:#6D162B"/>
	<stop  offset="0.4319" style="stop-color:#6E1532"/>
	<stop  offset="0.5192" style="stop-color:#6F1535"/>
	<stop  offset="0.659" style="stop-color:#6F1635"/>
	<stop  offset="0.7839" style="stop-color:#711733"/>
	<stop  offset="0.9028" style="stop-color:#751A2E"/>
	<stop  offset="1" style="stop-color:#791C29"/>
</linearGradient>
<path fill="url(#SVGID_29_)" d="M1506.078,729.331c-1.203,9.99,0.525,30.201,1.387,40.226c0.58,6.743,0.687,20.757,3.699,26.818
	c2.765,5.563,12.549,13.912,17.57,17.57c4.095,2.983,14.954,5.223,18.032,9.247c2.369,3.097,1.463,11.786,3.237,15.258
	c2.978,5.831,13.418,14.357,17.57,19.42c2.829,3.45,6.418,15.792,10.635,14.333c3.934-1.361,0.381-12.569-0.462-16.645
	c-2.019-9.753-9.029-28.87-14.796-36.99c-4.792-6.747-20.094-15.044-24.968-21.731c-4.148-5.692-9.632-19.004-11.097-25.893
	c-1.684-7.915,1.955-24.643-0.462-32.366c-2.164-6.915-9.055-25.343-16.183-24.043
	C1506.46,715.224,1506.538,725.516,1506.078,729.331z"/>
<linearGradient id="SVGID_30_" gradientUnits="userSpaceOnUse" x1="2146.425" y1="72.251" x2="2146.425" y2="124.613" gradientTransform="matrix(1 0 0 -1 -272.5 685)">
	<stop  offset="0" style="stop-color:#A93B23"/>
	<stop  offset="0.2504" style="stop-color:#A2332D"/>
	<stop  offset="0.7167" style="stop-color:#96233C"/>
	<stop  offset="1" style="stop-color:#AB302D"/>
</linearGradient>
<polygon opacity="0.8" fill="url(#SVGID_30_)" enable-background="new    " points="1881.922,560.387 1880.108,571.979 
	1879.222,591.478 1878.336,612.749 1872.132,594.58 1872.132,577.74 1865.928,565.332 1868.587,562.23 1874.347,565.332 
	1877.449,562.673 "/>
<linearGradient id="SVGID_31_" gradientUnits="userSpaceOnUse" x1="2078.3813" y1="54.969" x2="2078.3816" y2="114.793" gradientTransform="matrix(1 0 0 -1 -272.5 685)">
	<stop  offset="0" style="stop-color:#A93B23"/>
	<stop  offset="0.2504" style="stop-color:#A2332D"/>
	<stop  offset="0.7167" style="stop-color:#96233C"/>
	<stop  offset="1" style="stop-color:#AB302D"/>
</linearGradient>
<polygon opacity="0.8" fill="url(#SVGID_31_)" enable-background="new    " points="1811.864,570.207 1813.637,587.046 
	1806.989,603.443 1798.126,630.031 1800.785,612.306 1807.876,586.603 "/>
<path opacity="0.1" fill="#CFDEF2" enable-background="new    " d="M1600.492,462.813c9.573,5.965,33.776,2.329,44.952,3.847
	c15.461,2.101,45.884,9.402,61.35,11.466c18.001,2.402,54.245,5.899,72.406,5.848c10.872-0.031,53.763-0.693,43.328-3.747
	c-13.677-4.003-25.592-1.268-34.09-2.102c-11.399-1.118-34.031-4.757-45.403-6.121c-4.277-0.513-17.135-1.801-17.135-1.801
	s4.862-4.959,4.967-7.129c0.149-3.075-3.385-9.16-6.028-10.738c-4.352-2.599-29.08-12.071-32.098,2.584
	c-0.374,1.817,3.217,6.688,3.217,6.688s-3.111-0.59-3.907-1.234c-4.989-4.031-7.932-17.997-12.692-22.296
	c-7.38-6.664-26.663-13.979-36.386-16.062c-9.746-2.087-30.943-4.686-39.867-0.248c-5.658,2.814-22.437,2.253-26.383,11.072
	C1567.752,452.886,1595.342,459.604,1600.492,462.813z"/>
<g>
	
		<linearGradient id="SVGID_32_" gradientUnits="userSpaceOnUse" x1="428.9881" y1="-98.0042" x2="450.8636" y2="48.1002" gradientTransform="matrix(1 0 0 -1 -272.5 685)">
		<stop  offset="0" style="stop-color:#57042C"/>
		<stop  offset="0.166" style="stop-color:#661030"/>
		<stop  offset="0.3979" style="stop-color:#771B33"/>
		<stop  offset="0.62" style="stop-color:#842134"/>
		<stop  offset="0.826" style="stop-color:#8B2534"/>
		<stop  offset="1" style="stop-color:#8E2634"/>
	</linearGradient>
	<path fill="url(#SVGID_32_)" d="M109.831,689.535c6.535-4.263,15.537-7.501,23.802-10.195c11.021-3.591,26.013-11.83,37.194-12.121
		c-0.833,1.186-1.025,2.467-1.216,3.749c4.39,1.312,9.547-2.502,13.392-1.926c-2.947,2.18-6.631,4.904-8.488,8.557
		c17.333-1.991,33.284-16.637,47.732-25.612c-6.405,12.145-17.264,19.036-27.034,27.401c2.659-0.257,6.696-0.963,9.451-1.861
		c-0.929,1.826-0.576,3.845-1.408,5.031c2.659-0.257,4.582,0.031,6.792-1.604c-0.192,1.282-0.48,3.204-0.576,3.845
		c8.779,2.625,22.456-14.328,29.727-19.135c-9.478,19.547-27.418,29.964-46.704,36.249c4.198,2.594,2.245,6.888-1.984,8.875
		c4.869-1.892,9.098-3.879,13.968-5.771c-2.786,5.479-7.59,11.312-12.107,15.222c25.533-8.625,42.667-35.543,56.374-57.077
		c7.049,1.055,17.555-7.854,25.917-11.189c-3.972,4.647-7.302,9.389-11.819,13.299c1.059,6.055-10.088,14.869-14.06,19.516
		c13.392-1.926,21.719-13.783,30.303-22.98c-3.074,7.402-7.429,14.612-14.156,20.157c1.378-0.449,2.659-0.257,3.396-0.802
		c-1.182,12.271-17.103,22.336-26.04,29.515c1.378-0.449,4.037-0.706,6.055-1.059c-2.049,4.935-6.213,10.863-10.088,14.869
		c14.482-0.452,24.217-17.34,31.615-27.37c8.968-11.761,14.828-24.642,22.514-36.595c0.161,3.3,1.604,6.792,1.124,9.996
		c5.157-3.814,7.494-10.671,12.652-14.485c-2.111,14.098-9.862,22.11-6.206,37.071c2.855,11.565,7.824,22.137,13.529,32.164
		c2.594-4.198,1.343-8.971,1.374-13.553c6.761,2.978,8.622,12.429,15.287,16.048c-8.135,10.575-11.401,19.259-12.775,32.812
		c-0.894,10.349,2.827,29.251-4.187,36.718c-4.263-6.535-8.238-14.992-13.265-3.297c-0.387-10.541-2.697-21.37-7.217-30.564
		c-5.541,6.377-6.339,16.086-14.444,22.079c-6.823,6.185-15.825,9.424-24.731,12.021c-0.802-3.396-2.598-8.906-4.232-11.117
		c-2.628-4.325-0.675-8.618-8.557-8.488c2.049-4.935,9.16-13.043,8.742-19.002c-1.638-15.314-12.977-5.219-18.967-0.219
		c0.188-14.386-14.773-10.729-18.775-1.501c-6.285-19.286-27.106-2.748-38.031,0.203c-1.607-19.896-57.094,0.624-66.737,3.767
		c5.925-8.941,18.066-15.64,23.446-25.317c6.021-9.581-2.663-12.847-12.498-8.423c0.838-5.598-3.232-7.275-8.054-6.654
		c2.147-14.746-4.696-19.647-18.854-15.38c-15.505,4.673-29.941,11.093-44.58,17.96c-13.95,6.543-29.971,4.281-44.682,7.213
		c-0.309-6.109-0.315-12.553,0.002-18.654c7.048-1.373,13.915-4.5,20.984-5.782c7.449-1.351,15.038-2.733,22.265-4.563
		c11.798-2.987,23.641-5.948,35.788-7.491c6.367-0.809,16.681-0.547,21.886-4.228c-0.442,0.281,2.551,1.052,2.173,1.418
		L109.831,689.535z"/>
</g>
<g>
	
		<linearGradient id="SVGID_33_" gradientUnits="userSpaceOnUse" x1="1600.074" y1="332.908" x2="1631.0996" y2="332.908" gradientTransform="matrix(1 0 0 -1 -272.5 685)">
		<stop  offset="0" style="stop-color:#822034"/>
		<stop  offset="0.1713" style="stop-color:#801F35"/>
		<stop  offset="0.4319" style="stop-color:#791B39"/>
		<stop  offset="0.5192" style="stop-color:#771A3A"/>
		<stop  offset="0.659" style="stop-color:#781B3A"/>
		<stop  offset="0.7839" style="stop-color:#7D1D39"/>
		<stop  offset="0.9028" style="stop-color:#852137"/>
		<stop  offset="1" style="stop-color:#8E2634"/>
	</linearGradient>
	<path fill="url(#SVGID_33_)" d="M1327.574,330.314c1.651,0.515,2.375,1.517,1.624,3.095c0.634,0.457,1.121,1.385,1.52,1.768
		c10.439,2.219,12.804,11.24,14.152,20.202c7.74,0.083,5.616,19.353,8.922,24.526c1.339-3.465,0.907-9.554,1.612-13.476
		c0.469-3.996,3.34-9.054,3.19-12.725c-0.135-2.889-2.54-5.969-4.001-8.754c-1.477-3.567-2.497-7.768-4.357-10.936
		c-2.185-3.787-8.616-8.899-13.791-9.735c-0.205,1.489-1.281,2.448-2.917,2.715L1327.574,330.314z"/>
</g>
<g>
	
		<linearGradient id="SVGID_34_" gradientUnits="userSpaceOnUse" x1="1633.543" y1="291.1402" x2="1728.2516" y2="291.1402" gradientTransform="matrix(1 0 0 -1 -272.5 685)">
		<stop  offset="0" style="stop-color:#822034"/>
		<stop  offset="0.1713" style="stop-color:#801F35"/>
		<stop  offset="0.4319" style="stop-color:#791B39"/>
		<stop  offset="0.5192" style="stop-color:#771A3A"/>
		<stop  offset="0.659" style="stop-color:#781B3A"/>
		<stop  offset="0.7839" style="stop-color:#7D1D39"/>
		<stop  offset="0.9028" style="stop-color:#852137"/>
		<stop  offset="1" style="stop-color:#8E2634"/>
	</linearGradient>
	<path fill="url(#SVGID_34_)" d="M1452.637,427.609c-1.649-5.284-5.585-9.335-7.681-12.577c-2.908-4.789-6.198-9.18-9.415-13.807
		c-5.533-7.161-10.831-14.249-16.511-20.938c-6.241-7.382-13.868-13.642-20.035-21.26c-4.884-5.923-11.018-7.835-18.421-10.661
		c-3.229-1.266-5.221-3.181-7.476-2.59c-3.508,0.459-4.789,2.908-8.742,0.64c-0.221,0.708-1.149,1.195-1.606,1.829l-1.707,4.645
		c8.331,2.338,12.305,13.673,12.767,21.324c4.777,0.454,3.085,5.88,6.021,8.09c1.431,1.223,3.539,1.103,5.264,1.382
		c2.433,0.5,3.067,0.956,5.662,1.765c4.955,1.545,7.884-4.531,11.573,0.243c2.73,3.699,4.253,9.609,3.563,14.313
		c6.723,0.025,9.376-0.183,14.009,4.885c4.308,4.449,6.67,9.327,11.744,12.98c6.814,4.713,12.317,10.311,18.292,16.057
		c4.057,3.594,3.766,3.15,5.347,8.044c1.032,0.933,0.043-6.492-0.046-7.038L1452.637,427.609z"/>
</g>
<g>
	
		<linearGradient id="SVGID_35_" gradientUnits="userSpaceOnUse" x1="603.404" y1="-2.8109" x2="617.4041" y2="90.6945" gradientTransform="matrix(1 0 0 -1 -272.5 685)">
		<stop  offset="0" style="stop-color:#751A33"/>
		<stop  offset="0.0236" style="stop-color:#771B33"/>
		<stop  offset="0.2126" style="stop-color:#842134"/>
		<stop  offset="0.3886" style="stop-color:#8B2534"/>
		<stop  offset="0.5373" style="stop-color:#8E2634"/>
	</linearGradient>
	<path fill="url(#SVGID_35_)" d="M303.251,588.069c0.322,6.6,3.752,14.321,5.805,22.49c3.495,11.661,3.307,26.047,12.313,35.913
		c0.833-1.186,1.569-1.731,2.402-2.916c1.796,5.51,5,5.99,8.461,9.129c4.006,3.876,5.737,5.445,9.551,10.602
		c4.904,6.631,16.569,16.24,17.885,24.954c5.127,0.768,7.371,7.655,13.073,4.578c-4.232-11.116-14.807-19.252-21.154-29.374
		c-4.167-7.176-10.997-27.198-21.473-22.87c-5.161-9.29-8.399-18.292-12.278-27.39c-1.988-4.229-4.808-7.272-6.155-11.404
		c-0.994-2.114,2.786-5.479-2.694-8.265"/>
</g>
<g>
	
		<linearGradient id="SVGID_36_" gradientUnits="userSpaceOnUse" x1="658.0109" y1="-88.3438" x2="668.3654" y2="-19.1866" gradientTransform="matrix(1 0 0 -1 -272.5 685)">
		<stop  offset="0" style="stop-color:#57042C"/>
		<stop  offset="0.166" style="stop-color:#661030"/>
		<stop  offset="0.3979" style="stop-color:#771B33"/>
		<stop  offset="0.62" style="stop-color:#842134"/>
		<stop  offset="0.826" style="stop-color:#8B2534"/>
		<stop  offset="1" style="stop-color:#8E2634"/>
	</linearGradient>
	<path fill="url(#SVGID_36_)" d="M364.576,709.985c-7.786-0.511-0.158,9.804,2.663,12.847c1.316,8.714,5.164,22.394,14.201,27.678
		c3.074-7.402-4.393-14.417-3.979-21.561c8.749,7.206,45.653,59.696,40.351,47.435c-8.096-18.722-33.271-50.961-34.011-63.52
		c-4.198-2.594-7.563-6.374-11.12-8.872c0.449,1.378-0.672,4.486-0.223,5.863c-2.82-3.043-5.545-6.727-8.269-10.411
		c-0.192,1.282,0.353,2.018,0.257,2.659"/>
</g>
<g>
	
		<linearGradient id="SVGID_37_" gradientUnits="userSpaceOnUse" x1="682.7412" y1="-60.028" x2="692.9273" y2="8.0042" gradientTransform="matrix(1 0 0 -1 -272.5 685)">
		<stop  offset="0" style="stop-color:#57042C"/>
		<stop  offset="0.166" style="stop-color:#661030"/>
		<stop  offset="0.3979" style="stop-color:#771B33"/>
		<stop  offset="0.62" style="stop-color:#842134"/>
		<stop  offset="0.826" style="stop-color:#8B2534"/>
		<stop  offset="1" style="stop-color:#8E2634"/>
	</linearGradient>
	<path fill="url(#SVGID_37_)" d="M388.304,673.018c8.204,6.47,8.785,7.146,15.611,14.065c-0.257-2.659,2.595-8.895,1.152-12.387
		c5.479,2.786,5.052,13.665,9.794,16.996c4.102,3.235,12.827,11.465,15.647,14.508c5.096,5.349,2.248,27.381,13.896,42.232
		c8.241,10.508-33.885-26.88-41.064-35.817c-5.994-8.104-18.203-18.45-19.872-29.182c3.749,1.216,5.737,5.445,9.198,8.584
		c-0.802-3.396-3.526-7.08-4.873-11.212"/>
</g>
<g opacity="0.4">
	
		<linearGradient id="SVGID_38_" gradientUnits="userSpaceOnUse" x1="1732.2152" y1="650.2565" x2="2272.2751" y2="650.2565" gradientTransform="matrix(1 0 0 -1 -272.5 685)">
		<stop  offset="0" style="stop-color:#2B0010"/>
		<stop  offset="0.1722" style="stop-color:#2E0013"/>
		<stop  offset="0.2658" style="stop-color:#39001A"/>
		<stop  offset="0.3154" style="stop-color:#3F0922"/>
		<stop  offset="0.5587" style="stop-color:#400D24"/>
		<stop  offset="0.7076" style="stop-color:#46172C"/>
		<stop  offset="0.8312" style="stop-color:#4F2537"/>
		<stop  offset="0.9403" style="stop-color:#5A3647"/>
		<stop  offset="1" style="stop-color:#614253"/>
	</linearGradient>
	<path fill="url(#SVGID_38_)" d="M1981.521,6.751c-29.008-7.712-54.883,4.745-54.883,4.745s-0.54-5.653-1.843-11.495h-262.394
		c-21.523,25.188,29.244,31.284,45.985,29.522c0,1.779-0.889,3.558-0.889,4.447c19.569,5.337,26.685,3.558,45.364-6.226
		c-7.116,15.121,12.453,20.458,24.906,22.237c-20.458,13.342,52.851,23.56,67.265,17.92c21.743-8.508,52.595-4.653,77.198-19.576
		c17.746-10.764,24.665-20.181,25.006-19.359c0.481,1.162,6.856,9.276,30.892,6.266C2012.084,21.58,2000.452,11.784,1981.521,6.751z
		"/>
</g>
<g opacity="0.2">
	
		<linearGradient id="SVGID_39_" gradientUnits="userSpaceOnUse" x1="2106.0908" y1="-638.0867" x2="2106.0908" y2="-589.6652" gradientTransform="matrix(0.8581 0.5135 0.5135 -0.8581 12.5139 -1272.8994)">
		<stop  offset="0.0386" style="stop-color:#FEC673"/>
		<stop  offset="0.2424" style="stop-color:#FFC40C"/>
		<stop  offset="0.2636" style="stop-color:#FDB818"/>
		<stop  offset="0.3095" style="stop-color:#FAA425"/>
		<stop  offset="0.3593" style="stop-color:#F8952C"/>
		<stop  offset="0.4141" style="stop-color:#F68B2F"/>
		<stop  offset="0.4777" style="stop-color:#F58431"/>
		<stop  offset="0.5708" style="stop-color:#F58231"/>
		<stop  offset="0.6417" style="stop-color:#F38731"/>
		<stop  offset="0.7517" style="stop-color:#F0952E"/>
		<stop  offset="0.8863" style="stop-color:#ECAC27"/>
		<stop  offset="1" style="stop-color:#E7C21F"/>
	</linearGradient>
	<path fill="url(#SVGID_39_)" d="M1486.302,352.655c-1.276-5.08,3.976-21.793,6.146-13.156c0.565-5.273-2.18-17.276,6.141-17.476
		c0.438-5.781,5.385-11.885,11.612-10.749c3.621,0.44,14.365,7.733,6.492,10.791c2.923,0.886,6.867,5.836,6.617,9.139
		c-0.375,4.955-3.173,2.418-7.365,2.931c-5.208,0.768-17.899,12.599-19.488,11.648L1486.302,352.655z"/>
</g>
<g opacity="0.3">
	
		<linearGradient id="SVGID_40_" gradientUnits="userSpaceOnUse" x1="1693.1539" y1="610.742" x2="1693.1539" y2="749.9673" gradientTransform="matrix(1 0 0 -1 -272.5 685)">
		<stop  offset="0" style="stop-color:#2D0012"/>
		<stop  offset="0.2738" style="stop-color:#310014"/>
		<stop  offset="0.4459" style="stop-color:#3A011C"/>
		<stop  offset="0.5899" style="stop-color:#45152A"/>
		<stop  offset="0.7185" style="stop-color:#51293B"/>
		<stop  offset="0.8368" style="stop-color:#5F3F50"/>
		<stop  offset="0.9461" style="stop-color:#6E5A6A"/>
		<stop  offset="1" style="stop-color:#756B7B"/>
	</linearGradient>
	<path fill="url(#SVGID_40_)" d="M1486.882,0h-92.31c-1.703,10.762-2.439,19.58-12.772,27.329c-5.475,3.911-7.039,2.346-10.95,7.039
		s-3.911,10.168-8.604,14.861c0,1.564-9.206,8.477-7.641,10.041c7.039-3.129,25.631,0.909,31.106,1.691s11.732-0.782,17.208-0.782
		c13.297,0.782,39.108-1.564,45.366,14.079c5.475-8.604,3.911-17.99-2.346-26.594c11.732,15.643,43.801,0,30.504-11.732
		c7.039-7.039,7.039-17.208,0.782-24.247C1483.108,10.005,1486.728,4.937,1486.882,0z"/>
</g>
<g opacity="0.2">
	
		<linearGradient id="SVGID_41_" gradientUnits="userSpaceOnUse" x1="1700.4291" y1="316.295" x2="1700.4291" y2="475.0867" gradientTransform="matrix(1 0 0 -1 -272.5 685)">
		<stop  offset="0.0386" style="stop-color:#FEC673"/>
		<stop  offset="0.2424" style="stop-color:#FFC40C"/>
		<stop  offset="0.2636" style="stop-color:#FDB818"/>
		<stop  offset="0.3095" style="stop-color:#FAA425"/>
		<stop  offset="0.3593" style="stop-color:#F8952C"/>
		<stop  offset="0.4141" style="stop-color:#F68B2F"/>
		<stop  offset="0.4777" style="stop-color:#F58431"/>
		<stop  offset="0.5708" style="stop-color:#F58231"/>
		<stop  offset="0.6417" style="stop-color:#F38731"/>
		<stop  offset="0.7517" style="stop-color:#F0952E"/>
		<stop  offset="0.8863" style="stop-color:#ECAC27"/>
		<stop  offset="1" style="stop-color:#E7C21F"/>
	</linearGradient>
	<path fill="url(#SVGID_41_)" d="M1496.698,250.806c0.819,6.55-1.637,8.187-6.55,3.275c-8.187,4.912-16.375-0.819-25.381,5.731
		c8.188,0,15.556,9.825,13.919,18.012c9.006,7.369-8.188,22.106-14.737,27.019c6.55,3.275,31.755-2.897,31.755,13.478
		c-9.736-2.854-7.889,3.189-6.882,13.764c-3.275-7.369-11.808-9.404-20.814-2.854c-9.006,5.731-13.155,19.427-15.611,24.339
		c-2.456,4.912-16.285,13.497-21.197,15.135c-3.275-9.825-10.644-4.912-17.194-4.912c-9.006-0.819-8.187-1.637-15.556-4.912
		c11.463-9.825-2.456-13.1-10.644-11.462c0.819-4.094,0-6.55,2.456-9.825c-5.731-3.275-4.912-9.006,0.819-10.644
		c-8.188-8.187,5.731-15.556,13.919-11.462c1.637-6.55,9.006-13.1,15.556-10.644c-3.275-4.094-5.453-12.985-7.887-16.258
		c0.819-5.731-3.082-10.134-6.355-11.896c-14.737,0-5.408-16.058-20.145-14.421c1.637-13.1-18.012-4.912-24.562-11.462
		c-6.55-6.55,0-20.469,11.463-16.375c5.731-12.281,20.469-10.644,25.381,1.637c7.369-4.094,12.281,4.094,13.1,10.644
		c9.006-4.094,22.925,1.637,18.012,13.1c0.819-0.819,5.731-2.456,5.731-2.456c1.637-4.912,4.094-6.55,8.187-9.006
		c-3.275-12.281-26.2-24.562-38.481-21.287c1.637-0.819,2.456-3.275,4.912-4.094c-5.731-11.462,22.925-19.65,28.656-5.731
		c7.369-8.187,18.012-4.094,22.106,4.912c9.825-3.275,28.311,4.297,32.75,13.1C1495.212,238.799,1496.698,250.806,1496.698,250.806z
		"/>
</g>
<g opacity="0.2">
	
		<linearGradient id="SVGID_42_" gradientUnits="userSpaceOnUse" x1="1712.679" y1="460.22" x2="1712.679" y2="559.9043" gradientTransform="matrix(1 0 0 -1 -272.5 685)">
		<stop  offset="0.0386" style="stop-color:#FEC673"/>
		<stop  offset="0.2424" style="stop-color:#FFC40C"/>
		<stop  offset="0.2636" style="stop-color:#FDB818"/>
		<stop  offset="0.3095" style="stop-color:#FAA425"/>
		<stop  offset="0.3593" style="stop-color:#F8952C"/>
		<stop  offset="0.4141" style="stop-color:#F68B2F"/>
		<stop  offset="0.4777" style="stop-color:#F58431"/>
		<stop  offset="0.5708" style="stop-color:#F58231"/>
		<stop  offset="0.6417" style="stop-color:#F38731"/>
		<stop  offset="0.7517" style="stop-color:#F0952E"/>
		<stop  offset="0.8863" style="stop-color:#ECAC27"/>
		<stop  offset="1" style="stop-color:#E7C21F"/>
	</linearGradient>
	<path fill="url(#SVGID_42_)" d="M1373.244,141.801c-2.346,2.346,46.318-25.229,65.081-14.009
		c2.347,6.257,1.564,14.079-3.129,18.772c7.822-4.693,29.136-7.094,28.354,5.42c13.297-1.564,6.061,18.045-1.76,24.302
		c8.604-6.257,23.465-1.564,18.772,10.168c9.386,5.475,34.415,25.811,24.247,38.326c-7.822-8.604-16.425-6.257-26.594-10.95
		c-8.604-3.911-16.425-17.99-28.94-10.168c-7.039-5.475-19.554-7.822-27.376-3.911c-7.822,3.129-21.408-22.848-28.447-22.848
		c-7.822-0.782-1.334-4.798-20.106-10.274c8.021-5.426,21.015-16.539,12.813-22.75
		C1382.653,141.225,1373.244,141.801,1373.244,141.801z"/>
</g>
<g opacity="0.3">
	
		<linearGradient id="SVGID_43_" gradientUnits="userSpaceOnUse" x1="1823.2704" y1="533.6299" x2="1769.9701" y2="625.9487" gradientTransform="matrix(1 0 0 -1 -272.5 685)">
		<stop  offset="0" style="stop-color:#2D0012"/>
		<stop  offset="0.2738" style="stop-color:#310014"/>
		<stop  offset="0.4459" style="stop-color:#3A011C"/>
		<stop  offset="0.5899" style="stop-color:#45152A"/>
		<stop  offset="0.7185" style="stop-color:#51293B"/>
		<stop  offset="0.8368" style="stop-color:#5F3F50"/>
		<stop  offset="0.9461" style="stop-color:#6E5A6A"/>
		<stop  offset="1" style="stop-color:#756B7B"/>
	</linearGradient>
	<path fill="url(#SVGID_43_)" d="M1454.164,88.447c5.933-8.899,14.832-16.315,23.731-8.899c7.416-11.866,31.147-26.698,34.114-4.45
		c20.765-10.382,75.644,0,40.047,22.248c5.933-5.933,19.282-7.416,20.765-5.933l12.277,1.384c5.525-3.683,12.277-0.614,9.208,6.139
		c17.188-8.594,5.525,17.188,1.228,22.099c-11.663,14.119-29.466,20.872-45.426,28.238c-13.505,5.525-34.991,19.03-50.337,14.733
		c-12.891-3.683-14.733-19.644-30.08-18.416c6.139-17.188,0.614-19.644-15.347-18.416c1.228-6.139,4.297-12.891,1.228-19.03
		L1454.164,88.447z"/>
</g>
<g opacity="0.2">
	
		<linearGradient id="SVGID_44_" gradientUnits="userSpaceOnUse" x1="1797.5079" y1="440.477" x2="1797.5079" y2="501.5849" gradientTransform="matrix(1 0 0 -1 -272.5 685)">
		<stop  offset="0.0386" style="stop-color:#FEC673"/>
		<stop  offset="0.2424" style="stop-color:#FFC40C"/>
		<stop  offset="0.2636" style="stop-color:#FDB818"/>
		<stop  offset="0.3095" style="stop-color:#FAA425"/>
		<stop  offset="0.3593" style="stop-color:#F8952C"/>
		<stop  offset="0.4141" style="stop-color:#F68B2F"/>
		<stop  offset="0.4777" style="stop-color:#F58431"/>
		<stop  offset="0.5708" style="stop-color:#F58231"/>
		<stop  offset="0.6417" style="stop-color:#F38731"/>
		<stop  offset="0.7517" style="stop-color:#F0952E"/>
		<stop  offset="0.8863" style="stop-color:#ECAC27"/>
		<stop  offset="1" style="stop-color:#E7C21F"/>
	</linearGradient>
	<path fill="url(#SVGID_44_)" d="M1540.347,241.125c5.275-2.198,6.594-8.791,1.758-12.748c14.066,18.462,27.253-26.374,4.835-17.143
		c0-10.55-10.989-15.825-20.22-13.187c5.275-9.671-12.748-12.748-18.902-10.11c0-6.154-11.95-4.667-16.785-3.348
		c0,0,17.092,11.533,20.259,17.164c5.065,9.004,5.991,12.063,5.346,16.883c-0.493,3.684-3.971,12.788-3.971,12.788
		s7.348-0.126,12.694-7.441c1.488-2.036,2.965-11.587,2.965-11.587s4.603,5.293,4.913,16.089c0.126,4.401-2.814,16.038-2.814,16.038
		L1540.347,241.125z"/>
</g>
<g opacity="0.3">
	
		<linearGradient id="SVGID_45_" gradientUnits="userSpaceOnUse" x1="1157.7924" y1="2050.3657" x2="1157.7924" y2="2071.021" gradientTransform="matrix(0.7725 -0.635 -0.635 -0.7725 820.9592 2450.1067)">
		<stop  offset="0" style="stop-color:#A93B23"/>
		<stop  offset="0.0268" style="stop-color:#BA4A24"/>
		<stop  offset="0.0856" style="stop-color:#DD6822"/>
		<stop  offset="0.1186" style="stop-color:#ED7420"/>
		<stop  offset="0.7539" style="stop-color:#AA5175"/>
		<stop  offset="1" style="stop-color:#5A1C39"/>
	</linearGradient>
	<path fill="url(#SVGID_45_)" d="M386.91,129.232c-0.739,5.755,9.462,7.988,9.535,1.815c1.634,3.162,4.706,0.636,6.152-1.518
		c2.917,6.289,12.313,0.497,15.419-2.379c3.874-3.507,4.805-9.42,10.224-10.656c-5.563-0.897-8.738,2.678-13.507-2.732
		c-3.627,4.59-10.492,7.981-15.193,1.871c-1.899,3.17-2.94,6.6-6.576,7.657"/>
</g>
<g opacity="0.3">
	
		<linearGradient id="SVGID_46_" gradientUnits="userSpaceOnUse" x1="5069.1743" y1="1711.2389" x2="5069.1743" y2="1742.8296" gradientTransform="matrix(-0.8646 0.5024 -0.5024 -0.8646 5710.7891 -918.2566)">
		<stop  offset="0" style="stop-color:#A93B23"/>
		<stop  offset="0.0268" style="stop-color:#BA4A24"/>
		<stop  offset="0.0856" style="stop-color:#DD6822"/>
		<stop  offset="0.1186" style="stop-color:#ED7420"/>
		<stop  offset="0.7539" style="stop-color:#AA5175"/>
		<stop  offset="1" style="stop-color:#5A1C39"/>
	</linearGradient>
	<path fill="url(#SVGID_46_)" d="M490.366,117.039c3.744,1.939,4.594,8.551-1.107,7.75c-0.594,6.703-6.137,22.266-15.81,15.918
		c2.381-3.627,3.975-10.538,1.584-14.011c-1.704,2.86-8.846,13.742-13.312,11.849c-3.363,6.442-15.965,11.146-21.587,4.688
		c-6.801,2.456-12.684-1.232-18.919-3.594c3.59-2.834,12.088-3.657,16.463-3.207c-0.551-4.168,3.435-7.606,7.459-5.83
		c-2.335,4.349,6.208,4.247,8.77,3.507c3.121-1.065,7.432-3.944,9.904-6.128c3.427-3.113,8.944-16.791,10.271-16.44"/>
</g>
<g opacity="0.2">
	
		<linearGradient id="SVGID_47_" gradientUnits="userSpaceOnUse" x1="962.8246" y1="487.818" x2="962.8246" y2="567.866" gradientTransform="matrix(1 0 0 -1 -272.5 685)">
		<stop  offset="0" style="stop-color:#A93B23"/>
		<stop  offset="0.0268" style="stop-color:#BA4A24"/>
		<stop  offset="0.0856" style="stop-color:#DD6822"/>
		<stop  offset="0.1186" style="stop-color:#ED7420"/>
		<stop  offset="0.7539" style="stop-color:#AA5175"/>
		<stop  offset="1" style="stop-color:#5A1C39"/>
	</linearGradient>
	<path fill="url(#SVGID_47_)" d="M695.185,146.38c2.587,5.821,14.29,6.96,18.494,0.816c3.234,1.294,28.588-7.748,31.176-9.042
		c0.647,6.144,9.378,1.294,12.612,0.323c0.97,6.144,0.647,8.731,8.085,9.702c4.204,0.647,11.642,0,15.199-2.587
		c7.761,3.881,26.194,0.323,22.314-11.965c8.408,2.264,17.463-10.025,21.02-16.493c-1.94,8.731-2.587,17.786-5.174,26.518
		c-3.234,11.319-10.025,17.786-19.727,24.254c-14.229,9.378-39.453,22.637-55.622,10.672c8.731,0.323,18.756-8.731,20.05-16.816
		c-9.378,3.234-16.169,8.408-26.518,9.702c-3.234,0.647-32.662-0.647-23.607-9.378c-7.438,0.97-21.175,2.648-20.205-6.73
		c0,0-6.651,12.849-32.662,30.507c-10.328,7.011-22.637,11.319-34.602,11.319c-4.527,0-11.642,0-15.199-2.587
		c-6.144-4.851-0.97-5.498,2.587-7.761c2.587-1.617,4.204-4.527,5.174-7.115c-3.557,0.97-7.761,2.264-11.965,1.94
		c-4.204-0.647-11.319-4.851-7.761-10.025c-6.791,0.323-23.498,4.314-36.866-10.672c-4.262-4.778-6.144-10.025-5.174-15.846
		c0.97-4.527,6.643-15.743,11.642-12.289c2.963,2.048,1.427,15.845,24.901,20.05c6.181,1.107,11.319-1.294,15.199-5.821
		c-2.91,4.204,0.97,10.995,6.144,9.055c-2.264,7.438,10.348,4.527,13.259,0.97c-3.881,9.702,10.348,8.085,14.876,2.91
		c-0.97,3.881,15.496-1.711,18.084-3.004c-2.587,4.527,6.75,6.429,11.423,4.352C695.279,151.141,695.185,146.38,695.185,146.38z"/>
</g>
<g opacity="0.3">
	
		<linearGradient id="SVGID_48_" gradientUnits="userSpaceOnUse" x1="1876.9589" y1="817.0554" x2="2000.0251" y2="603.8984" gradientTransform="matrix(1 0 0 -1 -272.5 685)">
		<stop  offset="0" style="stop-color:#ED7420"/>
		<stop  offset="0.0142" style="stop-color:#E36F30"/>
		<stop  offset="0.0414" style="stop-color:#D56847"/>
		<stop  offset="0.0716" style="stop-color:#C96256"/>
		<stop  offset="0.1046" style="stop-color:#BF5D61"/>
		<stop  offset="0.1413" style="stop-color:#B75868"/>
		<stop  offset="0.1834" style="stop-color:#B1556E"/>
		<stop  offset="0.2341" style="stop-color:#AD5372"/>
		<stop  offset="0.3022" style="stop-color:#AB5174"/>
		<stop  offset="0.4617" style="stop-color:#AA5175"/>
		<stop  offset="1" style="stop-color:#803756"/>
	</linearGradient>
	<path fill="url(#SVGID_48_)" d="M1752.862,27.789c-18.679,9.784-25.795,11.563-45.364,6.226c0-0.89,0.889-2.668,0.889-4.447
		c-16.751,1.763-67.57-4.342-45.945-29.568h-44.855c2.307,8.577,10.143,12.833,21.874,3.373c-5.013,3.76-20.054,32.588-3.134,25.694
		c-1.253,10.027,16.921,13.16,23.188,7.52c8.147,10.027,30.081,20.054,40.735,5.014c1.88,5.64,7.52,7.52,13.787,5.64
		c-0.627,13.16,23.814,3.133,29.454-1.88c-1.88,5.013,1.88,7.52,6.894,6.267c-1.253,5.013,0,11.907,6.894,10.654
		c11.411-3.533,7.344-3.032,20.488-12.255C1765.315,48.247,1745.746,42.91,1752.862,27.789z"/>
</g>
<g opacity="0.2">
	
		<linearGradient id="SVGID_49_" gradientUnits="userSpaceOnUse" x1="1556.8381" y1="359.746" x2="1556.8381" y2="456.356" gradientTransform="matrix(1 0 0 -1 -272.5 685)">
		<stop  offset="0" style="stop-color:#A93B23"/>
		<stop  offset="0.0268" style="stop-color:#BA4A24"/>
		<stop  offset="0.0856" style="stop-color:#DD6822"/>
		<stop  offset="0.1186" style="stop-color:#ED7420"/>
		<stop  offset="0.7539" style="stop-color:#AA5175"/>
		<stop  offset="1" style="stop-color:#5A1C39"/>
	</linearGradient>
	<path fill="url(#SVGID_49_)" d="M1310.578,325.254c-7.369-9.825-4.912-14.737-4.912-25.381c-5.731,0.819-4.094-0.819-8.187-1.637
		c8.187-2.456,8.187-13.919,8.187-21.287l0.819,0.819c-4.912,4.912-16.375,5.731-18.012-3.275
		c-7.369,6.55-20.469,1.637-12.281-8.187c-10.644-4.912,1.638-16.375,9.006-18.012c-4.094-9.006,6.55-13.919,12.281-19.65
		c-5.375,1.194-10.094,4.472-15.629,5.05c-4.388,0.458-8.607-1.664-8.607-1.664s1.244,4.565,0.98,6.082l-2.443,6.207
		c-3.026,3.699-8.07,5.044-11.096,8.07c-3.699,4.035-4.371,17.148,4.371,11.768c-5.716,3.699-7.397,13.45-6.052,19.502
		c1.345,5.716,13.113,17.148,15.803,6.725c-2.354,8.742,4.707,15.131,13.113,12.441c-0.672,5.716,10.087,18.829,15.467,20.847
		L1310.578,325.254z"/>
</g>
<g opacity="0.2">
	
		<linearGradient id="SVGID_50_" gradientUnits="userSpaceOnUse" x1="1181.335" y1="448.1376" x2="1181.335" y2="610.384" gradientTransform="matrix(1 0 0 -1 -272.5 685)">
		<stop  offset="0" style="stop-color:#A93B23"/>
		<stop  offset="0.0268" style="stop-color:#BA4A24"/>
		<stop  offset="0.0856" style="stop-color:#DD6822"/>
		<stop  offset="0.1186" style="stop-color:#ED7420"/>
		<stop  offset="0.7539" style="stop-color:#AA5175"/>
		<stop  offset="1" style="stop-color:#5A1C39"/>
	</linearGradient>
	<path fill="url(#SVGID_50_)" d="M1245.018,74.73c0,9.825-8.443,21.397-24,17.303c-6.55,25.381-30.798,25.537-47.992,20.625
		c-10.644-2.456-37.662-4.912-45.031-15.556c-4.912,10.644-18.012,2.456-22.106-4.912c13.1,40.118-42.575,63.043-74.506,54.856
		c-4.912,18.012-49.125,5.731-54.037-6.55c-4.094,4.912-9.006,1.637-10.644-4.094c-8.187,29.475-59.768,38.481-84.331,23.744
		c-0.819,23.744-31.931,29.475-47.487,16.375c-4.094,0.819-3.275,1.637-7.369,0.819c16.375,27.019-39.3,49.943-50.762,28.656
		c-4.912,4.094-9.564,0.79-14.737-3.275c9.825,9.825-9.825,9.006-14.737,8.187c-13.1-3.275-32.75-9.006-40.937-19.65l-10.79-15.456
		c-14.86,9.457-36.128,26.325-53.691,30.378c-8.106,2.702-28.37,9.457-37.826,8.106c-14.86-2.702-20.264-13.509-4.053-22.966
		c-29.721,12.158-38.01,31.415-25.617,26.458c17.349,27.263,91.505,22.666,105.137,2.839l14.871,3.718
		c7.435,16.11,47.391,17.704,61.023-4.603c34.699,12.392,85.972,9.74,77.297-33.634c9.914-1.239,38.892,17.169,48.806,12.213
		c13.632,17.349,36.736,1.594,34.258-26.908c-1.239,18.589,42.403-7.376,49.838-18.53c11.153,37.177,49.818,44.515,69.646,17.252
		c1.239,0,40.081,10.691,54.952-16.573c29.007,9.484,31.197-33.028,38.633-47.899c2.478,17.349,18.526,22.574,45.906,24.804
		c19.026,1.55,51.062-4.886,52.301-20.996c4.957,3.718,12.156,2.409,17.42-3.313c9.594-16.84,0.512-31.532,0.512-31.532
		L1245.018,74.73z"/>
</g>
<g opacity="0.2">
	
		<linearGradient id="SVGID_51_" gradientUnits="userSpaceOnUse" x1="1554.3569" y1="478.384" x2="1554.3569" y2="665.878" gradientTransform="matrix(1 0 0 -1 -272.5 685)">
		<stop  offset="0" style="stop-color:#A93B23"/>
		<stop  offset="0.0268" style="stop-color:#BA4A24"/>
		<stop  offset="0.0856" style="stop-color:#DD6822"/>
		<stop  offset="0.1186" style="stop-color:#ED7420"/>
		<stop  offset="0.7539" style="stop-color:#AA5175"/>
		<stop  offset="1" style="stop-color:#5A1C39"/>
	</linearGradient>
	<path fill="url(#SVGID_51_)" d="M1254.528,44.837c0,5.653,5.623,35.182,12.89,37.2c-3.23,2.423-10.791,24.28,5.26,33.161
		c-8.479,2.423-17.544,4.732-19.967,13.615s6.46,17.765,14.939,12.516c-7.268,6.864,6.864,9.69,10.901,9.286
		c-7.267,5.653,4.572,29.557,4.572,29.557s-10.236,4.382-9.033,13.407c0.466,3.496,5.387,13.037,5.387,13.037
		c-2.456-8.187,4.094-26.2,14.737-22.925c-2.456-6.55-2.456-15.556,6.55-17.194c-11.462-6.55-0.819-22.106,10.644-22.925
		l-18.831-0.819c-4.094-1.637-6.55-2.456-4.094-6.55c-7.369-7.369-0.819-15.556,8.187-16.375
		c-7.369-0.819-12.281-4.912-11.462-12.281c-14.737,4.912-24.562-18.831-7.369-19.65c-4.094-4.094-4.094-9.825-0.819-13.919
		c-10.644-16.375,14.737-22.925,26.2-17.194c-3.275-4.094-4.912-5.731-4.912-11.462c-13.1,4.912-34.387-13.919-36.025-26.2
		L1254.528,44.837z"/>
</g>
<linearGradient id="SVGID_52_" gradientUnits="userSpaceOnUse" x1="1322.5" y1="-938.6726" x2="1322.5" y2="-57.6355" gradientTransform="matrix(1 0 0 -1 -272.5 685)">
	<stop  offset="0" style="stop-color:#000E1E"/>
	<stop  offset="0.553" style="stop-color:#000000"/>
	<stop  offset="1" style="stop-color:#50142F"/>
</linearGradient>
<path fill="url(#SVGID_52_)" d="M2096.569,750.507c-7.465-1.55-18.017-3.795-32.842-7.038
	c-25.209-5.515-34.663,18.119-37.814,18.907c-37.777,9.444-64.612-27.914-91.227-8.242c-18.119,13.392-56.928,13.781-72.424,25.627
	c-23.63,18.063-79.727,81.226-86.03,82.178c-28.426,4.294-60.12-26.143-66.635-25.368c-21.115,2.514-73.267-14.898-88.089-20.549
	c-28.027-10.687-51.186-46.297-81.181-46.384c-11.717-0.034-37.465-7.128-46.867-0.136c-12.276,9.129-41.972,67.668-44.909,69.204
	c-21.545,11.268-36.074-45.694-60.153-42.325c-20.991,2.937-63.19,8.167-84.385,8.192c-23.062,0.026-98.415,47.821-121.162,44.027
	c-19.006-3.17-43.472-11.615-62.603-13.912c-7.445-0.894-22.524-0.729-29.995-0.087c-25.143,2.162-58.042,43.795-83.185,45.957
	c-13.075,1.124-39.537-2.251-52.491-0.152c-13.679,2.217-40.835-18.666-55.502-19.08c-20.577-0.58-62.891,27.677-78.406,25.149
	c-43.896-7.153-138.953,34.434-183.314,31.251c-15.894-1.14-47.918-2.086-63.739-0.185c-24.942,2.997-70.062,34.064-92.017,46.273
	c-64.457,35.843-131.021-4.586-167.059-4.345c-81.603,0.545-167.095-113.818-196.154-125.926
	c-20.461-8.525-43.513-43.539-60.542-43.59c-34.321-0.103-55.982,11.408-55.982,11.408L0,1080h2100L2096.569,750.507z"/>
<linearGradient id="SVGID_53_" gradientUnits="userSpaceOnUse" x1="1322.5" y1="-772.3928" x2="1322.5" y2="-58.6034" gradientTransform="matrix(1 0 0 -1 -272.5 685)">
	<stop  offset="0.1773" style="stop-color:#000E1E"/>
	<stop  offset="0.5273" style="stop-color:#0B142A"/>
	<stop  offset="0.7" style="stop-color:#26172C"/>
	<stop  offset="1" style="stop-color:#50142F"/>
</linearGradient>
<path fill="url(#SVGID_53_)" d="M2100,749.005c-8.081-1.994-21.416-4.592-30.975-5.366c-11.463-0.928-18.105,16.084-39.164,58.746
	c-17.53,35.513-51.809,55.194-60.705,68.537c-12.615,18.923-52.66,78.148-99.39,93.49c-56.535,18.56-119.989,33.078-146.689,40.113
	c-12.174,3.207-34.567,16.332-46.849,19.035c-9.778,2.152-30.485,5.338-39.909,1.838c-7.066-2.625-15.561-18.046-22.557-20.873
	c-23.506-9.497-46.374-10.644-62.428-10.561c-26.898,0.139-79.18,54.809-105.924,51.766c-32.385-3.685-165.35,24.54-165.35,24.54
	s-46.505,10.567-66.067-0.622c-17.033-9.743-48.878-33.308-65.936-43.003c-12.212-6.941-37.871-18.189-50.32-24.642
	c-10.966-5.684-31.186-23.109-43.379-23.755c-7.922-0.42-23.281,7.161-29.498,12.378c-6.152,5.163-10.107,27.959-17.932,27.297
	c-6.648-0.562-7.164-20.153-11.566-25.459c-11.175-13.471-42.528-29.412-56.739-39.159c-9.885-6.78-27.99-25.001-39.615-26.998
	c-25.4-4.362-75.885,45.256-99.942,54.925c-57.012,22.915-113.9,46.548-169.324,73.48c-15.741,7.649-73.366-86.118-90.365-82.607
	c-9.367,1.934-30.444,1.954-39.948,2.868c-13.809,1.328-41.083-2.573-54.196,2.199c-9.086,3.306-24.857,15.948-34.073,18.824
	c-25.041,7.813-82.303-5.232-103.975,10.18c-6.235,4.434-143.418,46.93-150.838,48.16c-6.029,0.999-83.494-276.685-89.138-279.141
	C7.389,749.153,0,772.371,0,772.371V1080h2100V749.005z"/>
</svg>
