<?xml version="1.0" encoding="utf-8"?>
<!-- Generator: Adobe Illustrator 17.0.0, SVG Export Plug-In . SVG Version: 6.00 Build 0)  -->
<!DOCTYPE svg PUBLIC "-//W3C//DTD SVG 1.1//EN" "http://www.w3.org/Graphics/SVG/1.1/DTD/svg11.dtd">
<svg version="1.1" id="Layer_1" xmlns="http://www.w3.org/2000/svg" xmlns:xlink="http://www.w3.org/1999/xlink" x="0px" y="0px"
	 width="24px" height="24px" viewBox="0 0 24 24" enable-background="new 0 0 24 24" xml:space="preserve">
<linearGradient id="SVGID_1_" gradientUnits="userSpaceOnUse" x1="18.6011" y1="11.4465" x2="23.034" y2="11.4465">
	<stop  offset="3.702965e-02" style="stop-color:#FFF200"/>
	<stop  offset="5.050464e-02" style="stop-color:#FFEF00"/>
	<stop  offset="0.1877" style="stop-color:#CFD928"/>
	<stop  offset="0.3266" style="stop-color:#A4C939"/>
	<stop  offset="0.4646" style="stop-color:#7FBD41"/>
	<stop  offset="0.6015" style="stop-color:#5EB446"/>
	<stop  offset="0.7371" style="stop-color:#3EAE49"/>
	<stop  offset="0.8706" style="stop-color:#1FAB4A"/>
	<stop  offset="1" style="stop-color:#0BAA4B"/>
</linearGradient>
<path opacity="0.3" fill="url(#SVGID_1_)" d="M23,2.2C23,1,22,0,20.8,0s-2.2,1-2.2,2.2c0,0,0,0.1,0,0.1h0v18.5h0
	c0.1,1.2,1,2.1,2.2,2.1c1.2,0,2.2-0.9,2.2-2.1h0L23,2.2L23,2.2C23,2.3,23,2.2,23,2.2z"/>
<linearGradient id="SVGID_2_" gradientUnits="userSpaceOnUse" x1="12.3181" y1="13.3714" x2="16.7508" y2="13.3714">
	<stop  offset="3.702965e-02" style="stop-color:#FFF200"/>
	<stop  offset="5.050464e-02" style="stop-color:#FFEF00"/>
	<stop  offset="0.1877" style="stop-color:#CFD928"/>
	<stop  offset="0.3266" style="stop-color:#A4C939"/>
	<stop  offset="0.4646" style="stop-color:#7FBD41"/>
	<stop  offset="0.6015" style="stop-color:#5EB446"/>
	<stop  offset="0.7371" style="stop-color:#3EAE49"/>
	<stop  offset="0.8706" style="stop-color:#1FAB4A"/>
	<stop  offset="1" style="stop-color:#0BAA4B"/>
</linearGradient>
<path fill="url(#SVGID_2_)" d="M16.7,5.9C16.7,5.9,16.8,5.9,16.7,5.9L16.7,5.9L16.7,5.9L16.7,5.9c0-1.3-1-2.2-2.2-2.2
	s-2.2,0.9-2.2,2.1h0v0c0,0,0,0,0,0c0,0,0,0,0,0v15h0c0.1,1.2,1,2.1,2.2,2.1c1.2,0,2.1-0.9,2.2-2.1h0V5.9z"/>
<linearGradient id="SVGID_3_" gradientUnits="userSpaceOnUse" x1="6.1365" y1="15.2762" x2="10.5692" y2="15.2762">
	<stop  offset="3.702965e-02" style="stop-color:#FFF200"/>
	<stop  offset="5.050464e-02" style="stop-color:#FFEF00"/>
	<stop  offset="0.1877" style="stop-color:#CFD928"/>
	<stop  offset="0.3266" style="stop-color:#A4C939"/>
	<stop  offset="0.4646" style="stop-color:#7FBD41"/>
	<stop  offset="0.6015" style="stop-color:#5EB446"/>
	<stop  offset="0.7371" style="stop-color:#3EAE49"/>
	<stop  offset="0.8706" style="stop-color:#1FAB4A"/>
	<stop  offset="1" style="stop-color:#0BAA4B"/>
</linearGradient>
<path fill="url(#SVGID_3_)" d="M10.6,9.7L10.6,9.7L10.6,9.7V9.5h0c-0.1-1.2-1-2.1-2.2-2.1c-1.2,0-2.1,0.9-2.2,2.1h0v0.1c0,0,0,0,0,0
	s0,0,0,0V21h0c0.1,1.2,1,2.1,2.2,2.1c1.2,0,2.1-0.9,2.2-2.1h0V9.7z"/>
<linearGradient id="SVGID_4_" gradientUnits="userSpaceOnUse" x1="-5.359871e-07" y1="17.2275" x2="4.4328" y2="17.2275">
	<stop  offset="3.702965e-02" style="stop-color:#FFF200"/>
	<stop  offset="5.050464e-02" style="stop-color:#FFEF00"/>
	<stop  offset="0.1877" style="stop-color:#CFD928"/>
	<stop  offset="0.3266" style="stop-color:#A4C939"/>
	<stop  offset="0.4646" style="stop-color:#7FBD41"/>
	<stop  offset="0.6015" style="stop-color:#5EB446"/>
	<stop  offset="0.7371" style="stop-color:#3EAE49"/>
	<stop  offset="0.8706" style="stop-color:#1FAB4A"/>
	<stop  offset="1" style="stop-color:#0BAA4B"/>
</linearGradient>
<path fill="url(#SVGID_4_)" d="M4.4,13.5c0-1.2-1-2.2-2.2-2.2c-1.2,0-2.2,1-2.2,2.2c0,0,0,0.1,0,0.1h0v7.5h0c0,1.2,1,2.1,2.2,2.1
	s2.2-0.9,2.2-2.1h0v-7.5h0C4.4,13.6,4.4,13.5,4.4,13.5z"/>
</svg>
