<?xml version="1.0" encoding="utf-8"?>
<!-- Generator: Adobe Illustrator 17.0.0, SVG Export Plug-In . SVG Version: 6.00 Build 0)  -->
<!DOCTYPE svg PUBLIC "-//W3C//DTD SVG 1.1//EN" "http://www.w3.org/Graphics/SVG/1.1/DTD/svg11.dtd">
<svg version="1.1" id="Layer_1" xmlns="http://www.w3.org/2000/svg" xmlns:xlink="http://www.w3.org/1999/xlink" x="0px" y="0px"
	 width="24px" height="24px" viewBox="0 0 24 24" enable-background="new 0 0 24 24" xml:space="preserve">
<path fill="#FEFEFE" d="M23.7,13.3C23.7,6.8,18.4,1.6,11.9,1.6C5.4,1.6,0.1,6.8,0.1,13.3h0c0,0,0,0,0,0c0,1.8,1.4,3.2,3.2,3.2
	s3.2-1.4,3.2-3.2c0,0,0,0,0,0c0-3,2.5-5.4,5.5-5.4c3,0,5.5,2.4,5.5,5.4c0,0,0,0,0,0c0,1.8,1.4,3.2,3.2,3.2
	C22.3,16.5,23.7,15.1,23.7,13.3C23.7,13.3,23.7,13.3,23.7,13.3z"/>
<path fill="#FDFDFE" d="M13.2,14.9L13.2,14.9l-1.3-3.8c0,0,0-0.1-0.1-0.1c0,0,0,0.1,0,0.1l-1.2,3.6c-0.1,0.2-0.1,0.3-0.1,0.5
	c0,0.7,0.6,1.3,1.3,1.3c0.7,0,1.3-0.6,1.3-1.3C13.2,15.1,13.2,15,13.2,14.9z M11.9,15.8c-0.3,0-0.6-0.3-0.6-0.6
	c0-0.3,0.3-0.6,0.6-0.6c0.3,0,0.6,0.3,0.6,0.6C12.5,15.6,12.2,15.8,11.9,15.8z"/>
<linearGradient id="SVGID_1_" gradientUnits="userSpaceOnUse" x1="-4.764261e-07" y1="9.116" x2="12.0077" y2="9.116">
	<stop  offset="6.138393e-03" style="stop-color:#63B58C"/>
	<stop  offset="2.171200e-02" style="stop-color:#65B57F"/>
	<stop  offset="5.364654e-02" style="stop-color:#6AB464"/>
	<stop  offset="8.316608e-02" style="stop-color:#6CB351"/>
	<stop  offset="0.1091" style="stop-color:#6DB347"/>
	<stop  offset="0.1287" style="stop-color:#6EB344"/>
	<stop  offset="0.2023" style="stop-color:#7FB641"/>
	<stop  offset="0.5883" style="stop-color:#C6C62E"/>
	<stop  offset="0.8636" style="stop-color:#F0D015"/>
	<stop  offset="1" style="stop-color:#FFD400"/>
</linearGradient>
<path fill="url(#SVGID_1_)" d="M0,13.3L0,13.3C0,13.4,0,13.4,0,13.3c0,1.8,1.5,3.3,3.2,3.3s3.2-1.5,3.2-3.3c0,0,0,0,0,0
	c0-3,2.5-5.4,5.5-5.4l0-6.4C5.4,1.6,0,6.8,0,13.3z"/>
</svg>
