<?xml version="1.0" encoding="utf-8"?>
<!-- Generator: Adobe Illustrator 17.0.0, SVG Export Plug-In . SVG Version: 6.00 Build 0)  -->
<!DOCTYPE svg PUBLIC "-//W3C//DTD SVG 1.1//EN" "http://www.w3.org/Graphics/SVG/1.1/DTD/svg11.dtd">
<svg version="1.1" id="Layer_1" xmlns="http://www.w3.org/2000/svg" xmlns:xlink="http://www.w3.org/1999/xlink" x="0px" y="0px"
	 width="24px" height="24px" viewBox="0 0 24 24" enable-background="new 0 0 24 24" xml:space="preserve">
<path fill="#FEFEFE" d="M23.7,13.3C23.7,6.8,18.4,1.6,11.9,1.6C5.4,1.6,0.1,6.9,0,13.3h0c0,0,0,0,0,0c0,1.8,1.4,3.2,3.2,3.2
	s3.2-1.4,3.2-3.2c0,0,0,0,0,0c0-3,2.5-5.4,5.5-5.4c3,0,5.5,2.4,5.5,5.4c0,0,0,0,0,0c0,1.8,1.4,3.2,3.2,3.2
	C22.3,16.6,23.7,15.1,23.7,13.3C23.7,13.3,23.7,13.3,23.7,13.3z"/>
<path fill="#FDFDFE" d="M12.9,16.1L12.9,16.1l2.4-3.3c0,0,0,0,0-0.1c0,0-0.1,0-0.1,0L11.6,14c-0.2,0-0.3,0.1-0.5,0.2
	c-0.6,0.4-0.7,1.3-0.3,1.9c0.4,0.6,1.3,0.7,1.8,0.3C12.8,16.3,12.8,16.2,12.9,16.1z M11.4,15.6c-0.2-0.3-0.1-0.6,0.1-0.8
	c0.3-0.2,0.6-0.1,0.8,0.1c0.2,0.3,0.1,0.6-0.1,0.8C12,15.9,11.6,15.9,11.4,15.6z"/>
<linearGradient id="SVGID_1_" gradientUnits="userSpaceOnUse" x1="2.538308e-02" y1="9.1014" x2="22.4695" y2="9.1014">
	<stop  offset="0" style="stop-color:#BAB136"/>
	<stop  offset="0.2422" style="stop-color:#CEA331"/>
	<stop  offset="0.5672" style="stop-color:#E3912C"/>
	<stop  offset="0.8314" style="stop-color:#EF852A"/>
	<stop  offset="1" style="stop-color:#F58029"/>
</linearGradient>
<path fill="url(#SVGID_1_)" d="M11.9,1.6C5.4,1.6,0.1,6.9,0,13.4h0c0,0,0,0,0,0c0,1.8,1.4,3.2,3.2,3.2c1.8,0,3.2-1.4,3.2-3.2
	c0,0,0,0,0,0c0-3,2.4-5.4,5.5-5.4c2.4,0,4.4,1.5,5.2,3.7l5.4-3.6C20.5,4.3,16.5,1.6,11.9,1.6z"/>
</svg>
