<?xml version="1.0" encoding="utf-8"?>
<!-- Generator: Adobe Illustrator 17.0.0, SVG Export Plug-In . SVG Version: 6.00 Build 0)  -->
<!DOCTYPE svg PUBLIC "-//W3C//DTD SVG 1.1//EN" "http://www.w3.org/Graphics/SVG/1.1/DTD/svg11.dtd">
<svg version="1.1" id="Layer_1" xmlns="http://www.w3.org/2000/svg" xmlns:xlink="http://www.w3.org/1999/xlink" x="0px" y="0px"
	 width="24px" height="24px" viewBox="0 0 24 24" enable-background="new 0 0 24 24" xml:space="preserve">
<path fill="#FEFEFE" d="M23.7,13.3C23.7,6.8,18.4,1.6,11.9,1.6C5.4,1.6,0.1,6.9,0,13.4h0c0,0,0,0,0,0c0,1.8,1.4,3.2,3.2,3.2
	s3.2-1.4,3.2-3.2c0,0,0,0,0,0c0-3,2.5-5.4,5.5-5.4c3,0,5.5,2.4,5.5,5.4c0,0,0,0,0,0c0,1.8,1.4,3.2,3.2,3.2
	C22.3,16.6,23.7,15.1,23.7,13.3C23.7,13.3,23.7,13.3,23.7,13.3z"/>
<path fill="#FDFDFE" d="M12.2,16.6L12.2,16.6l3.8-1.3c0,0,0.1,0,0.1-0.1c0,0-0.1,0-0.1,0L12.4,14c-0.2-0.1-0.3-0.1-0.5-0.1
	c-0.7,0-1.3,0.6-1.3,1.3c0,0.7,0.6,1.3,1.3,1.3C12,16.6,12.1,16.6,12.2,16.6z M11.3,15.3c0-0.3,0.3-0.6,0.6-0.6
	c0.3,0,0.6,0.3,0.6,0.6s-0.3,0.6-0.6,0.6C11.6,15.9,11.3,15.6,11.3,15.3z"/>
<linearGradient id="SVGID_1_" gradientUnits="userSpaceOnUse" x1="9.096220e-08" y1="9.0945" x2="23.7938" y2="9.0945">
	<stop  offset="0" style="stop-color:#F47722"/>
	<stop  offset="1" style="stop-color:#EF3B24"/>
</linearGradient>
<path fill="url(#SVGID_1_)" d="M23.8,13.3C23.7,6.8,18.4,1.5,11.9,1.5C5.3,1.5,0,6.9,0,13.4h0c0,0,0,0,0,0c0,1.8,1.4,3.3,3.2,3.3
	s3.2-1.5,3.2-3.3c0,0,0,0,0,0c0-3,2.5-5.4,5.5-5.4c3,0,5.4,2.5,5.4,5.5c0,0,0,0,0,0c0,1.8,1.5,3.2,3.3,3.2
	C22.4,16.6,23.8,15.1,23.8,13.3C23.8,13.4,23.8,13.3,23.8,13.3z"/>
</svg>
