<?xml version="1.0" encoding="utf-8"?>
<!-- Generator: Adobe Illustrator 17.0.0, SVG Export Plug-In . SVG Version: 6.00 Build 0)  -->
<!DOCTYPE svg PUBLIC "-//W3C//DTD SVG 1.1//EN" "http://www.w3.org/Graphics/SVG/1.1/DTD/svg11.dtd">
<svg version="1.1" id="Layer_1" xmlns="http://www.w3.org/2000/svg" xmlns:xlink="http://www.w3.org/1999/xlink" x="0px" y="0px"
	 width="24px" height="24px" viewBox="0 0 24 24" enable-background="new 0 0 24 24" xml:space="preserve">
<linearGradient id="SVGID_1_" gradientUnits="userSpaceOnUse" x1="5.291932e-02" y1="12.0261" x2="23.7123" y2="12.0261">
	<stop  offset="0" style="stop-color:#F1C119"/>
	<stop  offset="0.1582" style="stop-color:#F2BE19"/>
	<stop  offset="0.3147" style="stop-color:#F2B619"/>
	<stop  offset="0.4701" style="stop-color:#F5A819"/>
	<stop  offset="0.487" style="stop-color:#F6A719"/>
	<stop  offset="0.6068" style="stop-color:#F8B017"/>
	<stop  offset="0.8194" style="stop-color:#FABB14"/>
	<stop  offset="1" style="stop-color:#FBBF13"/>
</linearGradient>
<path fill="url(#SVGID_1_)" d="M23.7,11.6c0,6.1-5.7,7.6-9,5.4c-1-0.7-1.8-1.8-2.7-2.6c-0.8,0.7-1.7,1.7-2.7,2.3
	c-3.5,2.6-9.3,1.1-9.3-4.7c0-5.4,5.8-7.4,9.3-4.7c0.9,0.7,1.7,1.5,2.5,2.2c0.8-0.7,1.6-1.6,2.5-2.3C17.5,4.9,23,6.1,23.7,11.6z
	 M13.7,12c1,0.9,1.8,1.8,2.7,2.5c0.5,0.4,1.1,0.6,1.8,0.4c1.7-0.3,2.5-1.3,2.5-3.1c0-1-0.4-1.9-1.3-2.4c-0.9-0.5-1.9-0.6-2.8,0.1
	C15.5,10.3,14.7,11.1,13.7,12z M10.1,12c-1-0.9-1.8-1.7-2.6-2.4C6.9,9.2,6.2,9,5.4,9.1C3.9,9.4,3,10.5,3.1,12.2
	c0,1.1,0.4,1.9,1.4,2.4c1,0.5,2,0.6,2.9-0.1C8.2,13.8,9.1,12.9,10.1,12z"/>
<linearGradient id="SVGID_2_" gradientUnits="userSpaceOnUse" x1="1.5356" y1="12.0261" x2="23.7123" y2="12.0261">
	<stop  offset="1.781728e-02" style="stop-color:#EC9B22"/>
	<stop  offset="0.1464" style="stop-color:#F1C119"/>
	<stop  offset="0.1775" style="stop-color:#F1C31E"/>
	<stop  offset="0.3733" style="stop-color:#ECD03F"/>
	<stop  offset="0.487" style="stop-color:#EBD54A"/>
	<stop  offset="0.6072" style="stop-color:#EDD142"/>
	<stop  offset="0.7882" style="stop-color:#F5C728"/>
	<stop  offset="0.893" style="stop-color:#FBBF13"/>
	<stop  offset="0.9739" style="stop-color:#F59A1E"/>
</linearGradient>
<path fill="url(#SVGID_2_)" d="M12.8,10.7l-0.9-1.2c0.8-0.7,1.6-1.6,2.5-2.3c3.1-2.5,8.6-1.2,9.3,4.3c0,6.1-5.7,7.6-9,5.4
	c-1-0.7-0.2-0.1-1.1-0.9c0,0-2.3-2.7-3.6-4c-1-1-2.2-2.1-2.5-2.4C6.9,9.2,5.9,9,5.3,9.2c-1.6,0.4-2.3,1.5-2.3,3
	c0,1.1,0.4,1.9,1.4,2.4c1,0.5,2,0.6,2.8-0.1C8.2,13.7,9,12.9,10,12l1.1,1.1c-0.6,0.5-1.9,1.9-2.6,2.4c-2.6,2-7,0.8-7-3.5
	c0-4,4.3-5.5,6.9-3.5c0.7,0.5,1.3,1.1,1.9,1.7l3,3.5c0.6,0.5,1.2,1.3,1.9,1.9c2.6,2,7,0.8,7-3.5c0-4-4.3-5.5-6.9-3.5
	C14.5,9,13.4,10.2,12.8,10.7"/>
</svg>
