<?xml version="1.0" encoding="utf-8"?>
<!-- Generator: Adobe Illustrator 17.0.0, SVG Export Plug-In . SVG Version: 6.00 Build 0)  -->
<!DOCTYPE svg PUBLIC "-//W3C//DTD SVG 1.1//EN" "http://www.w3.org/Graphics/SVG/1.1/DTD/svg11.dtd">
<svg version="1.1" id="Layer_1" xmlns="http://www.w3.org/2000/svg" xmlns:xlink="http://www.w3.org/1999/xlink" x="0px" y="0px"
	 width="24px" height="24px" viewBox="0 0 24 24" enable-background="new 0 0 24 24" xml:space="preserve">
<g>
	<g>
		<linearGradient id="SVGID_1_" gradientUnits="userSpaceOnUse" x1="4.5874" y1="12.0979" x2="20.4804" y2="12.0979">
			<stop  offset="0" style="stop-color:#EF3B24"/>
			<stop  offset="0.4668" style="stop-color:#D42D46"/>
			<stop  offset="0.8234" style="stop-color:#C52357"/>
			<stop  offset="1" style="stop-color:#BF1E5D"/>
		</linearGradient>
		<path fill="url(#SVGID_1_)" d="M20.5,6c0-0.1,0-0.2,0-0.3C20.3,5,19.9,4,19.6,3.4c-1.5-2.4-5.4-3.4-8.2-3.1c0,0-0.1,0.1-0.1,0.1
			c0,4.8,0,13.4,0,13.4s-0.9-0.2-1.4-0.2c-2.9,0-5.3,2.3-5.3,5.2S6.9,24,9.8,24c2.1,0,3.9-1.2,4.8-3c0.2-0.4,0.3-0.8,0.4-1.3
			c0,0,0-0.1,0-0.1c0-0.1,0-0.2,0-0.2c0,0,0,0,0,0c0-0.3,0-0.5,0-0.8c0-5.1,0-13.8,0-14.2c1.7,0.3,1.8,1.3,2,2.1
			c0.2,0.8,0.8,1.4,1.7,1.4c0.9,0,1.7-0.8,1.7-1.7C20.5,6.1,20.5,6.1,20.5,6C20.5,6.1,20.5,6,20.5,6z M9.9,20.5
			c-0.9,0-1.6-0.7-1.6-1.6c0-0.9,0.7-1.6,1.6-1.6c0.9,0,1.6,0.7,1.6,1.6C11.5,19.7,10.8,20.5,9.9,20.5z"/>
	</g>
</g>
</svg>
