<?xml version="1.0" encoding="utf-8"?>
<!-- Generator: Adobe Illustrator 17.0.0, SVG Export Plug-In . SVG Version: 6.00 Build 0)  -->
<!DOCTYPE svg PUBLIC "-//W3C//DTD SVG 1.1//EN" "http://www.w3.org/Graphics/SVG/1.1/DTD/svg11.dtd">
<svg version="1.1" id="Layer_1" xmlns="http://www.w3.org/2000/svg" xmlns:xlink="http://www.w3.org/1999/xlink" x="0px" y="0px"
	 width="120.057px" height="119.74px" viewBox="0 0 120.057 119.74" enable-background="new 0 0 120.057 119.74"
	 xml:space="preserve">
<linearGradient id="SVGID_WIG_1_" gradientUnits="userSpaceOnUse" x1="60.0248" y1="719.8296" x2="60.0248" y2="-117.3597">
	<stop  offset="0" style="stop-color:#FDE8ED"/>
	<stop  offset="0.2694" style="stop-color:#F5EFF3"/>
	<stop  offset="0.3128" style="stop-color:#EAEBF3"/>
	<stop  offset="0.381" style="stop-color:#E1E7F3"/>
	<stop  offset="0.4913" style="stop-color:#DFE7F3"/>
	<stop  offset="0.688" style="stop-color:#E9DADC"/>
	<stop  offset="0.6945" style="stop-color:#E8DBDE"/>
	<stop  offset="0.7488" style="stop-color:#E2E1EB"/>
	<stop  offset="0.802" style="stop-color:#E0E3F0"/>
	<stop  offset="0.9267" style="stop-color:#9DDCF9"/>
	<stop  offset="0.9617" style="stop-color:#8BD7F6"/>
	<stop  offset="1" style="stop-color:#19C3F0"/>
</linearGradient>
<rect x="0" y="0" fill="url(#SVGID_WIG_1_)" width="120.05" height="119.74"/>
<path opacity="0.3" fill="#FDFDFE" d="M29.433,0c-0.323,0.295-0.566,0.583-0.671,0.847c-0.563,1.41,1.147,5.963,1.147,5.963h-1.147
	c0,0-5.142-1.083-6.881-1.032c-1.815,0.053-7.11,1.491-7.11,1.491l-0.816-2.4c0,0-1.593-2.416-5.377-2.416
	C5.432,2.453,2.466,3.33,0,4.451v8.492c1.094-0.083,2.119-0.18,2.845-0.169c0.754,0.011,2.981,0.458,2.981,0.458
	s3.02,5.346,4.358,6.88c2.86,3.282,9.437,8.079,13.608,9.327c7.422,2.221,69.878-0.169,93.117,0.347
	c0.789,0.018,2.129,0.286,3.137,0.307L120.049,0H29.433z"/>
<radialGradient id="SVGID_WIG_2_" cx="101.0852" cy="64.6807" r="0.4869" gradientUnits="userSpaceOnUse">
	<stop  offset="0.1174" style="stop-color:#DEDBC0"/>
	<stop  offset="1" style="stop-color:#FFFFFF;stop-opacity:0"/>
</radialGradient>
<path fill="url(#SVGID_WIG_2_)" d="M101.073,64.149c0,0-0.064,0.32-0.122,0.376c-0.075,0.072-0.304,0.14-0.304,0.14
	s0.237,0.078,0.311,0.162c0.062,0.071,0.143,0.385,0.143,0.385s0.071-0.319,0.132-0.393c0.061-0.074,0.29-0.18,0.29-0.18
	s-0.236-0.055-0.305-0.121C101.156,64.459,101.073,64.149,101.073,64.149z"/>
<radialGradient id="SVGID_WIG_3_" cx="88.4318" cy="55.2511" r="0.6487" gradientUnits="userSpaceOnUse">
	<stop  offset="0.1174" style="stop-color:#DEDBC0"/>
	<stop  offset="1" style="stop-color:#FFFFFF;stop-opacity:0"/>
</radialGradient>
<path fill="url(#SVGID_WIG_3_)" d="M88.416,54.543c0,0-0.085,0.426-0.163,0.501c-0.1,0.096-0.404,0.187-0.404,0.187
	s0.316,0.104,0.415,0.216c0.083,0.094,0.19,0.513,0.19,0.513s0.095-0.425,0.176-0.524c0.081-0.099,0.386-0.239,0.386-0.239
	s-0.314-0.073-0.406-0.161C88.527,54.956,88.416,54.543,88.416,54.543z"/>
<radialGradient id="SVGID_WIG_4_" cx="18.6441" cy="35.177" r="0.7133" gradientUnits="userSpaceOnUse">
	<stop  offset="0.1174" style="stop-color:#DEDBC0"/>
	<stop  offset="1" style="stop-color:#FFFFFF;stop-opacity:0"/>
</radialGradient>
<path fill="url(#SVGID_WIG_4_)" d="M18.627,34.398c0,0-0.093,0.469-0.179,0.551c-0.11,0.106-0.445,0.205-0.445,0.205
	s0.347,0.114,0.456,0.237c0.091,0.103,0.209,0.564,0.209,0.564s0.104-0.468,0.193-0.576c0.09-0.109,0.424-0.263,0.424-0.263
	s-0.345-0.08-0.446-0.177C18.749,34.853,18.627,34.398,18.627,34.398z"/>
<radialGradient id="SVGID_WIG_5_" cx="99.0392" cy="52.6495" r="0.9843" gradientUnits="userSpaceOnUse">
	<stop  offset="0.1174" style="stop-color:#DEDBC0"/>
	<stop  offset="1" style="stop-color:#FFFFFF;stop-opacity:0"/>
</radialGradient>
<path fill="url(#SVGID_WIG_5_)" d="M99.015,51.575c0,0-0.129,0.647-0.247,0.761c-0.151,0.146-0.614,0.283-0.614,0.283
	s0.479,0.157,0.629,0.328c0.126,0.143,0.288,0.778,0.288,0.778s0.144-0.645,0.267-0.795c0.124-0.15,0.585-0.363,0.585-0.363
	s-0.477-0.111-0.616-0.245C99.183,52.202,99.015,51.575,99.015,51.575z"/>
<path opacity="0.9" fill="#F4EFED" d="M52.501,79.648c-4.26-1.814-14.087-2.608-18.483-1.155c-1.435,0.474-4.621,3.898-4.621,3.898
	s-4.438-2.393-6.065-2.743c-1.023-0.221-4.188,0-4.188,0s-2.059-8.299-4.188-9.964C12.292,67.599,2.793,67.285,0,67.238V96.76
	c17.873-2.638,33.253-5.906,41.96-6.715c5.503-0.512,19.747-0.128,21.226-4.621C64.121,82.584,55.251,80.819,52.501,79.648z"/>
<path opacity="0.3" fill="#FDFDFE" d="M38.141,119.74c0.088-2.042-0.193-4.408-1.248-4.944c-6.496-3.301-11.645-1.796-13.942,0.897
	c-0.394,0.462-2.135-4.96-3.565-6.021c-1.531-1.135-4.307-2.021-6.021-1.188c-0.804,0.391-3.406,2.086-3.406,2.086
	s-3.169-2.086-5.228-2.403c-1.999-0.308-3.502-0.334-4.731-0.197v11.769H38.141z"/>
<path opacity="0.9" fill="#E1DBE1" d="M29.419,82.391c0,0-4.46-2.393-6.086-2.743c-1.023-0.221-4.166,0-4.166,0
	s-2.059-8.299-4.188-9.964C12.306,67.593,2.764,67.284,0,67.238v4.329c2.137-0.921,8.712,1.692,8.712,1.692l0.433,1.841
	c0,0-4.167-0.831-9.146,1.812v4.135c2.966-0.107,8.551,0.432,11.2,1.345c2.34,0.807,8.451,5.162,8.451,5.162l1.083,1.191
	l0.325-2.166l-0.975-3.121c0,0,4.25-0.158,5.632,0.115c1.083,0.214,5.09,1.706,5.09,1.706s0.416-2.912,0.975-3.791
	c0.504-0.792,2.26-2.996,2.26-2.996C32.605,78.967,29.419,82.391,29.419,82.391z"/>
<path opacity="0.15" fill="#FDFDFE" d="M22.951,115.694c-0.394,0.462-2.135-4.96-3.565-6.021c-1.531-1.135-4.307-2.021-6.021-1.188
	c-0.804,0.391-3.406,2.086-3.406,2.086s-3.169-2.086-5.228-2.403c-1.999-0.308-3.502-0.334-4.731-0.197v1.572
	c0.23-0.056,0.454-0.104,0.665-0.134c2.137-0.309,6.692,0.541,8.45,1.795c0.376,0.268,0.951,1.584,0.951,1.584
	s1.934-2.244,2.852-2.43c1.113-0.225,3.574,0.526,4.331,1.373c1.183,1.325,1.373,6.971,1.373,6.971s3.196-1.451,4.225-2.007
	c1.115-0.603,3.098-2.344,4.331-2.64c2.369-0.569,8.6,0.213,8.6,0.213C30.345,111.575,25.249,113,22.951,115.694z"/>
<radialGradient id="SVGID_WIG_6_" cx="86.773" cy="33.5253" r="2.3828" gradientUnits="userSpaceOnUse">
	<stop  offset="0.1174" style="stop-color:#DEDBC0"/>
	<stop  offset="1" style="stop-color:#FFFFFF;stop-opacity:0"/>
</radialGradient>
<path fill="url(#SVGID_WIG_6_)" d="M86.715,30.924c0,0-0.312,1.565-0.598,1.842c-0.366,0.354-1.486,0.686-1.486,0.686
	s1.16,0.381,1.523,0.793c0.304,0.346,0.698,1.883,0.698,1.883s0.347-1.562,0.645-1.924c0.299-0.363,1.417-0.879,1.417-0.879
	s-1.154-0.268-1.491-0.592C87.122,32.442,86.715,30.924,86.715,30.924z"/>
<radialGradient id="SVGID_WIG_7_" cx="74.1673" cy="84.6573" r="0.7909" gradientUnits="userSpaceOnUse">
	<stop  offset="0.1174" style="stop-color:#DEDBC0"/>
	<stop  offset="1" style="stop-color:#FFFFFF;stop-opacity:0"/>
</radialGradient>
<path fill="url(#SVGID_WIG_7_)" d="M74.148,83.794c0,0-0.103,0.52-0.198,0.611c-0.122,0.117-0.493,0.228-0.493,0.228
	s0.385,0.126,0.505,0.263c0.101,0.115,0.232,0.625,0.232,0.625s0.115-0.518,0.214-0.638c0.099-0.121,0.47-0.292,0.47-0.292
	s-0.383-0.089-0.495-0.197C74.283,84.298,74.148,83.794,74.148,83.794z"/>
<linearGradient id="SVGID_WIG_8_" gradientUnits="userSpaceOnUse" x1="95.6362" y1="671.5522" x2="95.6362" y2="112.3126">
	<stop  offset="0.5134" style="stop-color:#43BEAD"/>
	<stop  offset="0.7009" style="stop-color:#53C2B8"/>
	<stop  offset="0.7869" style="stop-color:#5BC4BF"/>
	<stop  offset="0.9152" style="stop-color:#9BD9E2"/>
	<stop  offset="0.9842" style="stop-color:#D4ECE4"/>
</linearGradient>
<path fill="url(#SVGID_WIG_8_)" d="M102.625,119.74c-1.092-3.151-2.338-5.329-4.477-5.422c-1.607-0.07-5.136,2.875-6.402,3.867
	c-0.697,0.547-1.865,1.058-3.099,1.555H102.625z"/>
<linearGradient id="SVGID_WIG_9_" gradientUnits="userSpaceOnUse" x1="40.3243" y1="671.5522" x2="40.3243" y2="112.3126">
	<stop  offset="0.5134" style="stop-color:#43BEAD"/>
	<stop  offset="0.7009" style="stop-color:#53C2B8"/>
	<stop  offset="0.7869" style="stop-color:#5BC4BF"/>
	<stop  offset="0.9152" style="stop-color:#9BD9E2"/>
	<stop  offset="0.9842" style="stop-color:#D4ECE4"/>
</linearGradient>
<path fill="url(#SVGID_WIG_9_)" d="M44.596,119.74c-1.034-0.653-2.098-1.361-2.883-1.555c-0.625-0.155-1.953-0.165-2.575,0
	c-0.818,0.216-2.023,0.881-3.085,1.555H44.596z"/>
<g>
	<linearGradient id="SVGID_WIG_10_" gradientUnits="userSpaceOnUse" x1="60.0287" y1="653.1177" x2="60.0287" y2="22.4855">
		<stop  offset="0.5134" style="stop-color:#43BEAD"/>
		<stop  offset="0.651" style="stop-color:#53C2B8"/>
		<stop  offset="0.714" style="stop-color:#5BC4BF"/>
		<stop  offset="0.9881" style="stop-color:#9BD9E2"/>
	</linearGradient>
	<path fill="url(#SVGID_WIG_10_)" d="M120.009,119.74l0.049-66.303c0,0-3.079-0.835-5.841-2.591
		c-4.716-2.999-9.209-10.962-14.182-10.827c-2.587,0.07-32.038-19.335-33.753-17.397c-0.952,1.077-2.499,3.717-3.81,4.308
		c-1.737,0.782-5.825-0.64-7.62,0c-4.17,1.486-10.679,7.978-13.716,11.199c-2.733,2.9-6.766,9.875-9.334,12.922
		c-1.36,1.614-1.404,10.185-2.687,11.86c-1.369,1.786-6.503,0.078-7.79,1.923c-2.067,2.965-9.144,11.199-9.144,11.199
		s0.609-2.837,0-3.446c-1.212-1.212-5.31-0.738-6.858,0c-1.741,0.83-3.659,3.24-5.324,5.659v41.495H120.009z"/>
	<linearGradient id="SVGID_WIG_11_" gradientUnits="userSpaceOnUse" x1="-8.892" y1="131.7866" x2="54.3907" y2="22.1779">
		<stop  offset="0" style="stop-color:#5BC4BF"/>
		<stop  offset="0.9881" style="stop-color:#9BD9E2"/>
	</linearGradient>
	<path fill="url(#SVGID_WIG_11_)" d="M62.321,26.756c-1.737,0.783-5.825-0.639-7.62,0c-4.17,1.486-10.679,7.978-13.716,11.199
		c-2.733,2.9-6.766,9.875-9.334,12.922c-1.36,1.613-1.404,10.185-2.687,11.86c-1.369,1.786-6.503,0.078-7.79,1.923
		c-2.067,2.965-9.144,11.199-9.144,11.199s0.609-2.837,0-3.446c-1.212-1.212-5.31-0.738-6.858,0C3.485,73.218,1.629,75.508,0,77.852
		v38.902l1.109-0.508L14.482,97.44c0,0,3.643-7.083,5.851-8.359c3.087-1.784,13.402-0.364,14.209-1.253
		c0.674-0.743,9.006-12.386,11.702-16.717c2.131-3.424,9.136-11.836,9.612-12.956c0.243-0.571-2.508-9.194-2.508-9.194l2.925-15.045
		L62.321,26.756z"/>
	<linearGradient id="SVGID_WIG_12_" gradientUnits="userSpaceOnUse" x1="61.2471" y1="94.7048" x2="94.6237" y2="36.8949">
		<stop  offset="0" style="stop-color:#5BC4BF"/>
		<stop  offset="0.9881" style="stop-color:#9BD9E2"/>
	</linearGradient>
	<path fill="url(#SVGID_WIG_12_)" d="M100.035,40.019l-13.213,1.203l-8.684,13.793L65.366,71.873c0,0,2.068,12.131,1.533,13.282
		c-0.548,1.178-7.152,8.684-7.152,8.684s1.876-0.055,3.644-1.239c4.356-2.916,11.587-9.098,14.235-12.043
		c3.866-4.3,9.275-14.696,11.749-19.923c1.746-3.688,3.464-11.86,5.619-15.325C95.96,43.758,100.035,40.019,100.035,40.019z"/>
	<linearGradient id="SVGID_WIG_13_" gradientUnits="userSpaceOnUse" x1="105.0582" y1="71.9422" x2="116.0021" y2="52.9869">
		<stop  offset="0" style="stop-color:#5BC4BF"/>
		<stop  offset="0.9881" style="stop-color:#9BD9E2"/>
	</linearGradient>
	<path fill="url(#SVGID_WIG_13_)" d="M119.515,55.015c0,0-12.836,6.09-13.793,7.152c-1.514,1.682-2.554,8.684-2.554,8.684
		s11.418-8.132,14.303-11.749C118.184,58.209,119.515,55.015,119.515,55.015z"/>
	<linearGradient id="SVGID_WIG_14_" gradientUnits="userSpaceOnUse" x1="46.9181" y1="189.1331" x2="46.9181" y2="102.8993">
		<stop  offset="0.3574" style="stop-color:#5DC5BF"/>
		<stop  offset="1" style="stop-color:#7DCECF"/>
	</linearGradient>
	<path fill="url(#SVGID_WIG_14_)" d="M42.909,119.74c0.045-0.128,0.09-0.256,0.137-0.374c1.839-4.603,11.572-16.467,11.572-16.467
		l-9.956,7.477c0,0-4.196,6.281-5.127,8.489c-0.11,0.262-0.215,0.557-0.316,0.875H42.909z"/>
</g>
<path opacity="0.9" fill="#F4EFED" d="M51.07,59.249c0,0-1.463-4.33-2.693-5.07c-1.256-0.755-4.497-0.534-5.862,0
	c-2.662,1.042-10.114,3.199-10.25,6.055c-0.182,3.824,2.409,5.178,3.035,5.644c2.242,1.67,6.877,1.649,9.589,0.971
	c1.699-0.425,3.488-1.738,3.488-1.738s1.263,0.918,1.743,1.109c6.604,2.632,11.277-0.099,11.277-0.099s1.814,1.232,5.341,0.728
	c1.275-0.182,2.546-1.35,2.711-1.897c0.241-0.8-1.021-2.431-1.743-2.852c-1.062-0.618-4.911-0.158-4.911-0.158
	s-1.729-3.482-2.852-3.961C56.116,56.349,51.07,59.249,51.07,59.249z"/>
<path fill="#E1DBE1" d="M69.448,64.879c0.368-0.75-1.021-2.431-1.743-2.852c-1.062-0.618-4.911-0.158-4.911-0.158
	s-1.729-3.483-2.852-3.961c-2.062-0.878-8.872,1.267-8.872,1.267s-1.463-4.33-2.693-5.07c-1.256-0.755-5.39-0.146-6.755,0.388
	c0,0,5.255,0.719,6.068,1.481c0.708,0.663,1.563,2.071,1.32,3.01c-0.301,1.166-0.475,2.271-0.475,2.271s1.826-0.93,2.482-1.105
	c1.013-0.27,3.143-0.628,4.172-0.426c0.91,0.178,2.599,1.107,3.274,1.743c0.496,0.467,0.845,2.112,0.845,2.112
	s2.058-0.541,2.588-0.687c0.449-0.123,1.384-0.242,1.848-0.211c0.652,0.043,2.815,0.095,3.38,0.422
	c0.38,0.22,0.958,0.681,1.056,1.109c0.087,0.378-0.207,1.848-0.207,1.848S68.867,66.061,69.448,64.879z"/>
<path opacity="0.87" fill="#F4EFED" d="M105.986,29.908c0,0,5.554-1.69,8.613,2.495c1.23,1.683,1.851,8.13,1.851,8.13
	s2.515,0.87,3.059,1.529c0.239,0.29,0.573,1.114,0.402,1.449c-0.234,0.46-6.289,4.809-15.719,5.289
	c-20.093,1.024-42.623-4.756-51.82-5.611c-3.068-0.285-11.009-0.071-11.833-2.576c-0.521-1.583,4.424-2.567,5.957-3.22
	c2.375-1.011,7.853-1.454,10.304-0.644c0.8,0.264,2.576,2.173,2.576,2.173s2.474-1.334,3.381-1.529c0.57-0.123,2.334,0,2.334,0
	s1.148-4.626,2.334-5.554c1.749-1.368,8.774-1.368,8.774-1.368s0.791-2.921,1.529-3.542c0.594-0.5,3.019-0.724,3.019-0.724
	l1.167-0.563c0,0-2.737-4.427,1.046-6.52c1.039-0.575,3.622-0.322,3.622-0.322s2.817-2.266,5.232-2.898
	c3.622-0.947,10.787-0.691,13.604,7.325C107.044,27.84,105.986,29.908,105.986,29.908z"/>
<path opacity="0.9" fill="#E1DBE1" d="M56.65,36.751c0.8,0.264,2.576,2.173,2.576,2.173s2.486-1.334,3.393-1.529
	c0.57-0.123,2.322,0,2.322,0s1.148-4.626,2.334-5.554c1.749-1.368,8.774-1.368,8.774-1.368s0.791-2.921,1.529-3.542
	c0.594-0.5,3.019-0.724,3.019-0.724l1.167-0.563c0,0-2.737-4.427,1.046-6.52c1.039-0.575,3.622-0.322,3.622-0.322
	s2.817-2.266,5.232-2.898c3.622-0.947,10.884-0.763,13.742,7.239c1.678,4.698,0.58,6.76,0.58,6.76s-0.635-4.062-1.168-5.305
	c-0.49-1.143-1.849-3.376-2.898-4.045c-1.722-1.098-6.068-2.079-8.03-1.509c-2.677,0.777-7.456,4.908-8.151,7.607
	c-0.088,0.341,0.241,1.389,0.241,1.389s2.053-0.966,4.287-0.423c3.43,0.834,4.347,2.958,4.347,2.958s-3.683-0.724-6.822,0.241
	c-4.083,1.256-4.045,5.313-4.045,5.313s-1.302-1.434-3.139-1.811c-2.355-0.483-4.045,1.026-4.045,1.026s-0.292-2.093-0.845-2.415
	c-1.088-0.632-4.951,0.906-4.951,0.906l-0.242,1.026c0,0,2.342-0.468,5.132,1.026c1.69,0.906,2.113,2.596,2.113,2.596
	s-1.489-0.275-1.992-0.302c-1.608-0.085-4.876,0.22-6.398,0.745c-1.305,0.45-4.711,2.878-4.711,2.878l-0.604,0.664l-0.181-1.207
	l0.543-1.74c0,0-2.369-0.088-3.139,0.064c-0.604,0.119-2.838,0.951-2.838,0.951s-0.232-1.623-0.543-2.113
	C57.629,37.98,56.65,36.751,56.65,36.751z"/>
</svg>
