<?xml version="1.0" encoding="utf-8"?>
<!-- Generator: Adobe Illustrator 17.0.0, SVG Export Plug-In . SVG Version: 6.00 Build 0)  -->
<!DOCTYPE svg PUBLIC "-//W3C//DTD SVG 1.1//EN" "http://www.w3.org/Graphics/SVG/1.1/DTD/svg11.dtd">
<svg version="1.1" id="Layer_1" xmlns="http://www.w3.org/2000/svg" xmlns:xlink="http://www.w3.org/1999/xlink" x="0px" y="0px"
	 width="120.309px" height="120.027px" viewBox="0 0 120.309 120.027" enable-background="new 0 0 120.309 120.027"
	 xml:space="preserve">
<linearGradient id="SVGID_WIV_1_" gradientUnits="userSpaceOnUse" x1="60.1544" y1="423.1143" x2="60.1544" y2="-107.243">
	<stop  offset="0" style="stop-color:#A93B23"/>
	<stop  offset="0.0516" style="stop-color:#A94124"/>
	<stop  offset="0.1568" style="stop-color:#A94924"/>
	<stop  offset="0.4852" style="stop-color:#ED7420"/>
	<stop  offset="0.7417" style="stop-color:#AA202C"/>
	<stop  offset="0.8408" style="stop-color:#5A1C39"/>
	<stop  offset="0.9827" style="stop-color:#260025"/>
</linearGradient>
<rect x="0" fill="url(#SVGID_WIV_1_)" width="120.309" height="120.027"/>
<path opacity="0.02" fill="#CFDEF2" d="M92.168,54.498c-16.784,0.988-50.588-0.469-67.429,0C18.712,54.666,8.67,55.108,0,55.649
	v6.453c9.521,0.167,25.65,1.962,34.077,2.222c11.498,0.354,34.536,0,46.048,0c9.858,0,25.562,0.205,40.184,0.251V48.029
	C107.22,51.542,96.331,54.253,92.168,54.498z"/>
<g opacity="0.4">
	<linearGradient id="SVGID_WIV_2_" gradientUnits="userSpaceOnUse" x1="54.0532" y1="72.106" x2="54.0532" y2="-33.9346">
		<stop  offset="0.2448" style="stop-color:#2B0010"/>
		<stop  offset="0.3266" style="stop-color:#330016"/>
		<stop  offset="0.4385" style="stop-color:#421127"/>
		<stop  offset="0.5678" style="stop-color:#542D3E"/>
		<stop  offset="0.71" style="stop-color:#684E5E"/>
		<stop  offset="0.861" style="stop-color:#7C7B8A"/>
		<stop  offset="1" style="stop-color:#8BB2C5"/>
	</linearGradient>
	<path fill="url(#SVGID_WIV_2_)" d="M103.445,40.226c0.821-2.053-1.78-2.875-3.285-1.779c1.369-1.095,2.635-4.527,0.308-4.253
		c0.137-2.19-3.594-1.77-4.962-0.949c0.821-0.821,0.958-2.19,0.548-3.285c-3.284-1.963-10.849,2.24-11.39,2.452
		c-0.706,0.276-1.93,0.598-1.93,0.598c0-2.436-2.579-1.863-3.725-3.009c-1.146-1.003-0.573-2.866-2.579-3.296
		c0.286-0.859,0.143-0.859,0.143-1.862c1.003,0.143,2.292,0,3.152-0.717c1.29,1.433,2.579,3.582,4.729,2.579
		c0,4.155,4.872,3.869,7.308,2.293c0.43-0.287,0.716-1.146,1.003-1.29c0.43-0.286,0.716,0.144,1.003,0.144
		c0.86-0.43,1.719-0.144,2.579-1.146c1.863-1.862,0.43-3.726-2.006-3.869c2.579-1.863-4.155-2.579-5.015-2.579
		c-1.863,0-3.869-0.143-5.875,0.287c-0.43-1.433-2.006-2.149-3.152-1.003c-0.143-1.433-0.716-3.009-2.436-3.009
		c1.29-1.146,4.155-3.295,4.299-5.015c2.006,0.287,4.155-2.006,4.012-4.012l0.143-2.723c1.146-0.86,1.003-2.292-0.143-3.009
		C86.557,1.34,86.889,0.683,87.08,0H7.53c0.039,0.066,0.077,0.133,0.121,0.196c-2.722,0.286,0,3.152,0.43,4.298
		c0.287,1.146-0.43,3.583,1.576,3.869c0,1.576,0.86,3.439,1.863,4.585c0.43,0.43,1.719,1.576,2.436,1.576
		c1.576,0,0.716-0.43,0.716-1.29c0-0.717-0.86-1.576-0.86-2.293c0.143-1.146,0.86-0.716,1.146-1.719
		c0.573-1.29,1.003-3.009-0.716-3.869c1.29,0.143,1.576-0.86,1.719-1.863c1.146,0.43,2.579,0,3.582,0.573
		c0.86,0.716,0.717,2.006,2.149,2.292c-0.86,2.723,2.292,2.006,3.152,3.295c-1.576,0.573-2.292,2.149-0.86,3.439
		c-0.716,0.86,0,1.863,0.43,2.723c-1.576-0.144-8.597,1.719-5.731,4.299c-2.293-1.863-3.582,1.719-4.012,3.438
		c-0.86-2.292-3.009-1.862-4.872-1.576c-0.144-1.719-1.863-2.579-3.296-2.436c0.286-0.43,0.286-1.146,0.573-1.576
		C4.069,17.82,3.353,20.83,1.92,22.406c0.287-1.29,0.43-3.009-0.86-3.869c2.528-1.539,0.924-3.24-1.06-3.5v21.119
		c4.591,1.698,12.218-0.014,13.526-4.724c0.287,1.003,1.146,1.576,1.863,0.717c0.86,2.149,8.597,4.298,9.457,1.146
		c5.588,1.433,15.332-2.579,13.039-9.6c0.717,1.29,3.009,2.722,3.869,0.859c1.29,1.863,6.018,2.293,7.881,2.723
		c3.009,0.86,7.298,0.799,8.444-3.643c2.722,0.716,4.165-1.229,4.165-2.949l3.009-9.744c0.287,2.149,4.012,5.445,6.305,4.585
		c0,1.003,0.287,1.29,0.86,2.006c-2.006-1.003-6.448,0.144-4.585,3.009c-0.573,0.716-0.573,1.719,0.143,2.436
		c-3.009,0.144-1.29,4.299,1.29,3.439c-0.144,1.29,0.716,2.006,2.006,2.149c-1.576,0.144-2.722,1.576-1.433,2.866
		c-0.43,0.717,0,0.86,0.717,1.146l3.295,0.143c-2.006,0.144-3.869,2.866-1.863,4.012c-1.576,0.287-1.576,1.863-1.146,3.009
		c-1.863-0.573-3.009,2.58-2.579,4.012c-1.29-0.573-7.021-0.287-5.445,2.292c1.003-0.286,0.86,0,1.576,0.287
		c-1.146,0.144-1.863,0.717-1.576,1.863c-4.872,0.144-2.006,5.015,0.286,2.579c0.119,2.615,3.87,0.637,4.241-1.495
		c0.046-0.266-0.171-1.064-0.171-1.064s0.738,0.371,1.506,0.291c0.969-0.101,1.794-0.675,2.735-0.884
		c-1.003,1.003-2.866,1.863-2.149,3.439c-1.29,0.287-3.439,2.293-1.576,3.152c-1.433,1.72,0.86,2.58,2.149,1.433
		c0.273,1.499,2.09,1.434,3.008,0.685c-0.005,1.285-0.088,3.067-1.431,3.47c0.717,0.143,0.43,0.43,1.433,0.287
		c0,1.863-0.43,2.722,0.86,4.442c1.29,1.719,5.859-2.737,5.062-5.194c-0.518-1.597,2.331-2.46,1.554-2.849
		c-1.707-0.853-1.317-0.955-1.64-3.323c-0.133-0.978,1.54-4.363,1.419-4.039c-0.347,0.929-0.631,2.932-0.583,3.922
		c0.064,1.31,2.828,6.656,6.493,3.229c0.874-0.817,2.129-2.146,2.129-2.146c-0.619,1.68,2.322,3.984,2.178,2.837l0.884,0.707
		c0.573,0.573,1.172,2.537,1.746,3.254c-1.146-0.43-2.436,0.716-2.723,1.862c-1.433-0.716-3.869,0.573-2.436,2.006
		c-1.003,0.287-1.146,1.29-0.143,1.863c-0.43,0.573-0.287,1.003-0.43,1.719c1.433-0.287,3.869,0.287,1.863,2.006
		c1.29,0.573,1.146,0.716,2.722,0.859c1.146,0,2.436-0.859,3.009,0.86c0.86-0.287,3.28-1.789,3.709-2.649
		c0.43-0.859,1.156-3.256,2.732-4.259c1.576-1.146,3.07-0.79,3.643,0.5c-0.176-1.851-0.499-2.908,1.204-2.409
		c0-2.866-4.411-1.785-5.557-2.358c1.146-0.86,4.155-3.439,2.579-4.729c0.287-1.433-1.003-3.152-2.436-3.152
		c1.576-1.146,3.009-0.144,4.442-1.003c0.86,0.859,1.29,0.573,1.146-0.573c0,0-0.212-1.925-0.664-2.886l2.078-1.653
		C109.468,44.743,105.088,41.184,103.445,40.226z"/>
</g>
<path opacity="0.1" fill="#CFDEF2" d="M46.236,80.369c-5.018-1.082-15.467-0.117-20.516,0.805c-0.313,0.057-1.207,0.402-1.207,0.402
	s-3.484-3.495-5.029-3.822c-1.921-0.406-5.887,0.933-7.643,1.811c-0.351,0.176-1.207,1.006-1.207,1.006S4.125,78.762,0,77.816v2.92
	c6.504,0.814,12.417,1.513,17.272,2.046c3.358,0.369,10.13,0.542,13.477,1.006c7.473,1.037,22.062,5.276,29.568,6.034
	c1.201,0.121,4.55,1.174,4.827,0C66.358,84.679,51.403,81.482,46.236,80.369z"/>
<linearGradient id="SVGID_WIV_3_" gradientUnits="userSpaceOnUse" x1="84.7022" y1="87.4701" x2="134.649" y2="87.4701">
	<stop  offset="0" style="stop-color:#822034"/>
	<stop  offset="0.081" style="stop-color:#7C1D36"/>
	<stop  offset="0.2422" style="stop-color:#721737"/>
	<stop  offset="0.3923" style="stop-color:#6C1338"/>
	<stop  offset="0.5192" style="stop-color:#6A1138"/>
	<stop  offset="0.5383" style="stop-color:#6C1338"/>
	<stop  offset="0.6945" style="stop-color:#7E1E37"/>
	<stop  offset="0.8204" style="stop-color:#8A2435"/>
	<stop  offset="0.8995" style="stop-color:#8E2634"/>
</linearGradient>
<path fill="url(#SVGID_WIV_3_)" d="M120.309,99.68c-4.222-2.239-10.237-4.701-13.025-7.065c-3.183-2.699-7.913-9.709-10.368-13.083
	c-1.584-2.177-5.448-7.909-8.388-10.114c-0.443-0.333-2.629-0.931-3.77-1.94c-0.769-0.681,6.597,9.091,6.597,9.091
	s5.521,12.684,7.611,14.285c0.984,0.753,2.352,1.467,3.816,2.102c1.307,0.566,2.689,1.032,3.967,1.991
	c2.191,1.645,1.472,4.561,3.6,6.405c3.155,2.733,4.642,3.326,7.084,4.714c0.635,0.361,1.618,0.866,2.875,1.432V99.68z"/>
<g>
	<linearGradient id="SVGID_WIV_4_" gradientUnits="userSpaceOnUse" x1="81.2217" y1="308.793" x2="81.2217" y2="87.3956">
		<stop  offset="0" style="stop-color:#A93B23"/>
		<stop  offset="0.1547" style="stop-color:#792C34"/>
		<stop  offset="0.4094" style="stop-color:#3D133E"/>
		<stop  offset="0.5239" style="stop-color:#27043E"/>
		<stop  offset="0.572" style="stop-color:#451342"/>
		<stop  offset="0.6387" style="stop-color:#6E1D42"/>
		<stop  offset="0.689" style="stop-color:#8B223F"/>
		<stop  offset="0.7167" style="stop-color:#96233C"/>
		<stop  offset="1" style="stop-color:#AB302D"/>
	</linearGradient>
	<path opacity="0.8" fill="url(#SVGID_WIV_4_)" d="M57.377,120.027h47.763c-6.442-4.261-13.722-9.193-18.862-10.261
		c-2.837-0.589-8.631,1.33-11.526,1.213c-2.467-0.099-7.253-1.542-9.706-1.82c-1.885-0.213-6.488-1.853-7.583-0.303
		c-0.943,1.334,2.607,4.443,2.427,6.066C59.73,116.349,58.676,118.242,57.377,120.027z"/>
</g>
<linearGradient id="SVGID_WIV_5_" gradientUnits="userSpaceOnUse" x1="63.8304" y1="423.1001" x2="63.8304" y2="59.7062">
	<stop  offset="0" style="stop-color:#210008"/>
	<stop  offset="0.3982" style="stop-color:#391022"/>
	<stop  offset="0.5156" style="stop-color:#4B0C28"/>
	<stop  offset="0.6225" style="stop-color:#57042C"/>
	<stop  offset="0.656" style="stop-color:#610D2F"/>
	<stop  offset="0.7274" style="stop-color:#741933"/>
	<stop  offset="0.794" style="stop-color:#832134"/>
	<stop  offset="0.8534" style="stop-color:#8B2434"/>
	<stop  offset="0.8995" style="stop-color:#8E2634"/>
</linearGradient>
<path fill="url(#SVGID_WIV_5_)" d="M120.309,120.027v-20.1c-4.044-1.813-10.201-4.916-12.968-7.268
	c-4.222-3.59-10.058-13.246-13.628-17.485c-1.231-1.462-3.652-4.461-5.143-5.657c-0.808-0.648-3.08-1.161-3.6-2.057
	c-0.645-1.112,0.981-4.312,0-5.143c-1.193-1.011-4.609,0.945-6.171,1.028c-2.186,0.117-6.638,0.089-8.743-0.514
	c-1.549-0.444-4.103-3.508-5.657-3.085c-0.638,0.173-1.021,1.701-1.361,2.269c-0.431,0.719-1.501,2.066-1.724,2.874
	c-0.48,1.735,0.75,4.46,0.325,6.21c-0.546,2.249-7.729,8.519-9.243,10.27c-3.18,3.677-3.025,12.692-7.36,14.892
	c-4.132,2.097-23.002,14.564-37.684,23.767H120.309z"/>
<linearGradient id="SVGID_WIV_6_" gradientUnits="userSpaceOnUse" x1="-11.5123" y1="91.1787" x2="67.1024" y2="91.1787">
	<stop  offset="0.2462" style="stop-color:#57042C"/>
	<stop  offset="0.3713" style="stop-color:#661030"/>
	<stop  offset="0.5462" style="stop-color:#771B33"/>
	<stop  offset="0.7136" style="stop-color:#842134"/>
	<stop  offset="0.8688" style="stop-color:#8B2534"/>
	<stop  offset="1" style="stop-color:#8E2634"/>
</linearGradient>
<path fill="url(#SVGID_WIV_6_)" d="M16.873,120.027c2.354-0.667,4.385-1.095,5.826-1.136c0.318-0.009,1.274,0.529,2.355,1.136h7.978
	c1.095-0.496,2.231-1.155,3.155-2.077c2.766-2.76,4.848-7.037,10.853-12.333c5.218-4.602,15.408-5.629,16.773-8.738
	c1.419-3.233,0.716-13.9,1.128-17.407c0.188-1.604,2.734-3.191,2.043-4.651c-0.307-0.65-2.556-3.265-3.03-3.805
	c-0.457-0.521-0.877-2.253-1.086-2.914c-0.435-1.376,0.003-5.771,0.003-5.771s-1.535,2.384-1.745,3.291
	c-0.3,1.293,0.605,4.052,0.171,5.306c-1.215,3.509-7.576,8.229-9.558,11.369c-2.015,3.193-5.147,13.17-6.25,13.75
	c-10.142,5.332-26.964,15.833-39.714,23.981H16.873z"/>
<linearGradient id="SVGID_WIV_7_" gradientUnits="userSpaceOnUse" x1="72.0046" y1="217.795" x2="72.0046" y2="99.2033">
	<stop  offset="0" style="stop-color:#430024"/>
	<stop  offset="0.4227" style="stop-color:#660F32"/>
	<stop  offset="0.5455" style="stop-color:#6B1333"/>
	<stop  offset="0.7547" style="stop-color:#791C35"/>
	<stop  offset="1" style="stop-color:#8E2634"/>
</linearGradient>
<path fill="url(#SVGID_WIV_7_)" d="M82.957,120.027c-0.622-1.748-1.125-3.471-1.176-4.703c-0.12-2.89,2.669-11.26,2.669-11.26
	l-2.199-4.862c0,0-1.703,8.177-3.186,10.479c-1.244,1.93-5.115,4.614-6.897,6.061c-1.014,0.824-4.18,3.135-4.18,3.135
	s0.525-4.59-0.627-5.225c-1.064-0.586-3.47,1.294-4.389,2.09c-1.067,0.923-2.26,2.522-3.411,4.285H82.957z"/>
<linearGradient id="SVGID_WIV_8_" gradientUnits="userSpaceOnUse" x1="92.0996" y1="108.1163" x2="92.0996" y2="84.8012">
	<stop  offset="0" style="stop-color:#741933"/>
	<stop  offset="0.0374" style="stop-color:#771B33"/>
	<stop  offset="0.2182" style="stop-color:#842134"/>
	<stop  offset="0.3863" style="stop-color:#8B2534"/>
	<stop  offset="0.5285" style="stop-color:#8E2634"/>
</linearGradient>
<path fill="url(#SVGID_WIV_8_)" d="M85.954,86.123c0,0-0.565,4.681-0.579,6.251c-0.013,1.538,0.06,4.65,0.463,6.135
	c0.362,1.337,1.542,3.916,2.431,4.977c0.851,1.016,3.357,2.176,4.283,3.125c0.319,0.328,1.042,1.505,1.042,1.505
	s-0.936-5.044-0.695-6.714c0.152-1.053,0.671-3.456,1.621-3.936c0.959-0.484,3.561,1.928,4.167,1.042
	c0.821-1.199-2.23-3.829-3.357-4.746c-0.955-0.777-3.616-1.126-4.514-1.968c-0.831-0.779-1.628-3.008-2.084-4.051
	c-0.304-0.696-0.926-2.547-0.926-2.894S85.954,86.123,85.954,86.123z"/>
<linearGradient id="SVGID_WIV_9_" gradientUnits="userSpaceOnUse" x1="102.8537" y1="114.7822" x2="102.8537" y2="103.6398">
	<stop  offset="0" style="stop-color:#822034"/>
	<stop  offset="0.1447" style="stop-color:#811F36"/>
	<stop  offset="0.3648" style="stop-color:#7D1D3B"/>
	<stop  offset="0.5192" style="stop-color:#7A1A3F"/>
	<stop  offset="0.6483" style="stop-color:#7B1B3F"/>
	<stop  offset="0.7637" style="stop-color:#7E1D3D"/>
	<stop  offset="0.8739" style="stop-color:#84213A"/>
	<stop  offset="0.9802" style="stop-color:#8C2535"/>
	<stop  offset="1" style="stop-color:#8E2634"/>
</linearGradient>
<path fill="url(#SVGID_WIV_9_)" d="M99.945,103.649c-0.304,0.086-0.785,0.656-0.809,0.971c-0.027,0.353,0.474,0.968,0.728,1.214
	c0.15,0.145,0.688,0.2,0.728,0.405c0.05,0.254-0.63,0.551-0.647,0.809c-0.04,0.588,0.908,1.518,1.214,2.023
	c0.442,0.73,1.252,2.243,1.78,2.913c0.248,0.315,0.877,0.825,1.133,1.133c0.251,0.302,0.558,1.085,0.89,1.295
	c0.329,0.208,1.315,0.562,1.537,0.243c0.424-0.61-1.123-1.926-1.457-2.589c-0.536-1.068-1.376-3.317-1.942-4.37
	c-0.534-0.994-1.538-3.11-2.428-3.803C100.522,103.774,100.13,103.597,99.945,103.649z"/>
<linearGradient id="SVGID_WIV_10_" gradientUnits="userSpaceOnUse" x1="110.0159" y1="141.1085" x2="110.0159" y2="91.5056">
	<stop  offset="0" style="stop-color:#822034"/>
	<stop  offset="0.1713" style="stop-color:#801F35"/>
	<stop  offset="0.4319" style="stop-color:#791B39"/>
	<stop  offset="0.5192" style="stop-color:#771A3A"/>
	<stop  offset="0.659" style="stop-color:#781B3A"/>
	<stop  offset="0.7839" style="stop-color:#7D1D39"/>
	<stop  offset="0.9028" style="stop-color:#852137"/>
	<stop  offset="1" style="stop-color:#8E2634"/>
</linearGradient>
<path fill="url(#SVGID_WIV_10_)" d="M102.233,96.528c0.187,0.683-0.163,2.143,0,2.832c0.364,1.541,2.162,4.23,2.832,5.665
	c1.73,3.701,4.054,11.706,6.521,15.003h3.276c0.01-0.323,0.006-0.881,0.236-0.923c0.434-0.078,0.811,0.335,1.147,0.923h4.062v-2.694
	c-0.293,0.035-0.558,0.044-0.759-0.009c-0.44-0.115-1.476-1.035-1.805-1.349c-3.5-3.34-8.727-11.12-10.818-15.482
	c-0.219-0.456-0.716-1.459-0.566-1.942c0.085-0.274,0.816-0.45,0.89-0.728c0.117-0.439-0.273-1.441-0.647-1.7
	c-0.383-0.264-1.436,0.188-1.861,0c-0.55-0.243-1.216-1.333-1.618-1.78c-0.508-0.564-1.435-1.786-2.023-2.266
	c-0.218-0.178-0.696-0.625-0.971-0.566c-0.17,0.037-0.393,0.393-0.405,0.566c-0.041,0.642,0.898,1.706,1.214,2.266
	C101.25,94.896,102.065,95.916,102.233,96.528z"/>
<linearGradient id="SVGID_WIV_11_" gradientUnits="userSpaceOnUse" x1="57.9223" y1="90.0496" x2="57.9223" y2="68.4693">
	<stop  offset="0" style="stop-color:#822034"/>
	<stop  offset="0.4671" style="stop-color:#862234"/>
	<stop  offset="1" style="stop-color:#8E2634"/>
</linearGradient>
<path fill="url(#SVGID_WIV_11_)" d="M61.246,71.24c-0.257,0.934-1.412,2.54-1.861,3.399c-0.378,0.721-1.142,2.162-1.457,2.913
	c-0.579,1.381-1.826,4.172-1.942,5.664c-0.027,0.348,0.358,1.046,0.243,1.376c-0.223,0.636-1.699,1.19-2.023,1.78
	c-0.443,0.808-1.352,3.16-0.566,3.641c0.383,0.235,1.141-0.732,1.457-1.052c0.917-0.932,2.447-3.101,2.994-4.289
	c0.743-1.613,1.124-5.228,1.78-6.878c0.418-1.052,1.843-2.886,2.185-3.965c0.222-0.698,0.308-2.181,0.324-2.913
	c0.013-0.608,0.381-2.153-0.162-2.428c-0.235-0.119-0.759,0.338-0.89,0.566C61.056,69.529,61.392,70.713,61.246,71.24z"/>
<g>
	<linearGradient id="SVGID_WIV_12_" gradientUnits="userSpaceOnUse" x1="76.6761" y1="69.1984" x2="82.1059" y2="69.1984">
		<stop  offset="0" style="stop-color:#822034"/>
		<stop  offset="0.1713" style="stop-color:#801F35"/>
		<stop  offset="0.4319" style="stop-color:#791B39"/>
		<stop  offset="0.5192" style="stop-color:#771A3A"/>
		<stop  offset="0.659" style="stop-color:#781B3A"/>
		<stop  offset="0.7839" style="stop-color:#7D1D39"/>
		<stop  offset="0.9028" style="stop-color:#852137"/>
		<stop  offset="1" style="stop-color:#8E2634"/>
	</linearGradient>
	<path fill="url(#SVGID_WIV_12_)" d="M76.676,65.387c0.289,0.09,0.416,0.265,0.284,0.542c0.111,0.08,0.196,0.242,0.266,0.309
		c1.827,0.388,2.241,1.967,2.477,3.536c1.355,0.015,0.983,3.387,1.561,4.292c0.234-0.606,0.159-1.672,0.282-2.358
		c0.082-0.699,0.585-1.585,0.558-2.227c-0.024-0.506-0.445-1.045-0.7-1.532c-0.258-0.624-0.437-1.359-0.762-1.914
		c-0.382-0.663-1.508-1.557-2.414-1.704c-0.036,0.261-0.224,0.428-0.511,0.475L76.676,65.387z"/>
</g>
<g>
	<linearGradient id="SVGID_WIV_13_" gradientUnits="userSpaceOnUse" x1="82.5333" y1="76.5083" x2="99.1083" y2="76.5083">
		<stop  offset="0" style="stop-color:#822034"/>
		<stop  offset="0.1713" style="stop-color:#801F35"/>
		<stop  offset="0.4319" style="stop-color:#791B39"/>
		<stop  offset="0.5192" style="stop-color:#771A3A"/>
		<stop  offset="0.659" style="stop-color:#781B3A"/>
		<stop  offset="0.7839" style="stop-color:#7D1D39"/>
		<stop  offset="0.9028" style="stop-color:#852137"/>
		<stop  offset="1" style="stop-color:#8E2634"/>
	</linearGradient>
	<path fill="url(#SVGID_WIV_13_)" d="M98.563,82.415c-0.289-0.925-0.977-1.634-1.344-2.201c-0.509-0.838-1.085-1.607-1.648-2.416
		c-0.968-1.253-1.896-2.494-2.89-3.664c-1.092-1.292-2.427-2.387-3.506-3.721c-0.855-1.037-1.928-1.371-3.224-1.866
		c-0.565-0.221-0.914-0.557-1.308-0.453c-0.614,0.08-0.838,0.509-1.53,0.112c-0.039,0.124-0.201,0.209-0.281,0.32l-0.299,0.813
		c1.458,0.409,2.153,2.393,2.234,3.732c0.836,0.079,0.54,1.029,1.054,1.416c0.25,0.214,0.619,0.193,0.921,0.242
		c0.426,0.087,0.537,0.167,0.991,0.309c0.867,0.27,1.38-0.793,2.025,0.042c0.478,0.647,0.744,1.682,0.624,2.505
		c1.177,0.004,1.641-0.032,2.452,0.855c0.754,0.779,1.167,1.632,2.055,2.272c1.193,0.825,2.156,1.805,3.201,2.81
		c0.71,0.629,0.659,0.551,0.936,1.408c0.181,0.163,0.008-1.136-0.008-1.232L98.563,82.415z"/>
</g>
<g opacity="0.4">
	<linearGradient id="SVGID_WIV_14_" gradientUnits="userSpaceOnUse" x1="99.8019" y1="2.0986" x2="194.3171" y2="2.0986">
		<stop  offset="0" style="stop-color:#2B0010"/>
		<stop  offset="0.1722" style="stop-color:#2E0013"/>
		<stop  offset="0.2658" style="stop-color:#39001A"/>
		<stop  offset="0.3154" style="stop-color:#3F0922"/>
		<stop  offset="0.5587" style="stop-color:#400D24"/>
		<stop  offset="0.7076" style="stop-color:#46172C"/>
		<stop  offset="0.8312" style="stop-color:#4F2537"/>
		<stop  offset="0.9403" style="stop-color:#5A3647"/>
		<stop  offset="1" style="stop-color:#614253"/>
	</linearGradient>
	<path fill="url(#SVGID_WIV_14_)" d="M120.309,0h-18.402c1.949,0.732,4.501,1.268,5.591,0.613c0.238-1.346,3.879,3.879,7.025,3.571
		c2.051-0.201,4.231-0.292,5.786-1.587V0z"/>
</g>
<g opacity="0.2">
	
		<linearGradient id="SVGID_WIV_15_" gradientUnits="userSpaceOnUse" x1="557.1939" y1="810.0778" x2="557.1939" y2="801.6035" gradientTransform="matrix(0.8581 0.5135 -0.5135 0.8581 43.3027 -911.3338)">
		<stop  offset="0.0386" style="stop-color:#FEC673"/>
		<stop  offset="0.2424" style="stop-color:#FFC40C"/>
		<stop  offset="0.2636" style="stop-color:#FDB818"/>
		<stop  offset="0.3095" style="stop-color:#FAA425"/>
		<stop  offset="0.3593" style="stop-color:#F8952C"/>
		<stop  offset="0.4141" style="stop-color:#F68B2F"/>
		<stop  offset="0.4777" style="stop-color:#F58431"/>
		<stop  offset="0.5708" style="stop-color:#F58231"/>
		<stop  offset="0.6417" style="stop-color:#F38731"/>
		<stop  offset="0.7517" style="stop-color:#F0952E"/>
		<stop  offset="0.8863" style="stop-color:#ECAC27"/>
		<stop  offset="1" style="stop-color:#E7C21F"/>
	</linearGradient>
	<path fill="url(#SVGID_WIV_15_)" d="M104.455,69.297c-0.223-0.889,0.696-3.814,1.076-2.302c0.099-0.923-0.382-3.023,1.075-3.058
		c0.077-1.012,0.942-2.08,2.032-1.881c0.634,0.077,2.514,1.353,1.136,1.889c0.512,0.155,1.202,1.021,1.158,1.599
		c-0.066,0.867-0.555,0.423-1.289,0.513c-0.911,0.134-3.132,2.205-3.411,2.038L104.455,69.297z"/>
</g>
<g opacity="0.3">
	<linearGradient id="SVGID_WIV_16_" gradientUnits="userSpaceOnUse" x1="92.9668" y1="20.5752" x2="92.9668" y2="-3.7905">
		<stop  offset="0" style="stop-color:#2D0012"/>
		<stop  offset="0.2738" style="stop-color:#310014"/>
		<stop  offset="0.4459" style="stop-color:#3A011C"/>
		<stop  offset="0.5899" style="stop-color:#45152A"/>
		<stop  offset="0.7185" style="stop-color:#51293B"/>
		<stop  offset="0.8368" style="stop-color:#5F3F50"/>
		<stop  offset="0.9461" style="stop-color:#6E5A6A"/>
		<stop  offset="1" style="stop-color:#756B7B"/>
	</linearGradient>
	<path fill="url(#SVGID_WIV_16_)" d="M103.14,5.792c1.232-1.369,0-2.464-1.232-3.148c0.548-2.738-3.833-0.958-4.38,0.548
		c0.548-1.232,0-3.148-1.506-3.012C96.079,0.122,96.118,0.06,96.166,0h-5.802c-0.362,0.471-0.644,0.979-0.775,1.548
		c-0.137,0.821,0.137,1.779-0.274,2.738c-0.137,0.684-0.548,1.231-0.684,2.053c-0.548,2.464-0.274,4.38-2.464,6.023
		c-0.958,0.684-1.232,0.411-1.916,1.232c-0.685,0.821-0.685,1.779-1.506,2.601c0,0.274-1.611,1.483-1.337,1.757
		c1.232-0.547,4.486,0.159,5.444,0.296c0.958,0.137,2.053-0.137,3.011-0.137c2.327,0.137,6.844-0.274,7.939,2.464
		c0.958-1.506,0.685-3.148-0.411-4.654c2.053,2.738,7.666,0,5.339-2.053c1.232-1.232,1.232-3.011,0.137-4.243
		C104.782,9.077,105.33,6.476,103.14,5.792z"/>
</g>
<g opacity="0.2">
	<linearGradient id="SVGID_WIV_17_" gradientUnits="userSpaceOnUse" x1="94.2388" y1="72.106" x2="94.2388" y2="44.3158">
		<stop  offset="0.0386" style="stop-color:#FEC673"/>
		<stop  offset="0.2424" style="stop-color:#FFC40C"/>
		<stop  offset="0.2636" style="stop-color:#FDB818"/>
		<stop  offset="0.3095" style="stop-color:#FAA425"/>
		<stop  offset="0.3593" style="stop-color:#F8952C"/>
		<stop  offset="0.4141" style="stop-color:#F68B2F"/>
		<stop  offset="0.4777" style="stop-color:#F58431"/>
		<stop  offset="0.5708" style="stop-color:#F58231"/>
		<stop  offset="0.6417" style="stop-color:#F38731"/>
		<stop  offset="0.7517" style="stop-color:#F0952E"/>
		<stop  offset="0.8863" style="stop-color:#ECAC27"/>
		<stop  offset="1" style="stop-color:#E7C21F"/>
	</linearGradient>
	<path fill="url(#SVGID_WIV_17_)" d="M106.274,51.473c0.143,1.146-0.287,1.433-1.146,0.573c-1.433,0.86-2.866-0.143-4.442,1.003
		c1.433,0,2.722,1.719,2.436,3.152c1.576,1.29-1.433,3.869-2.579,4.728c1.146,0.573,5.557-0.507,5.557,2.359
		c-1.704-0.499-1.381,0.558-1.204,2.409c-0.573-1.29-2.067-1.646-3.643-0.499c-1.576,1.003-2.302,3.4-2.732,4.26
		c-0.43,0.86-2.85,2.362-3.71,2.649c-0.573-1.719-1.863-0.86-3.009-0.86c-1.576-0.143-1.433-0.287-2.722-0.86
		c2.006-1.719-0.43-2.293-1.863-2.006c0.143-0.716,0-1.146,0.43-1.719c-1.003-0.573-0.86-1.576,0.143-1.863
		c-1.433-1.433,1.003-2.722,2.436-2.006c0.287-1.146,1.576-2.293,2.722-1.863c-0.573-0.716-0.954-2.272-1.38-2.845
		c0.143-1.003-0.539-1.773-1.112-2.082c-2.579,0-0.946-2.81-3.526-2.524c0.287-2.293-3.152-0.86-4.299-2.006s0-3.582,2.006-2.866
		c1.003-2.149,3.582-1.863,4.442,0.287c1.29-0.716,2.149,0.716,2.293,1.863c1.576-0.716,4.012,0.287,3.152,2.293
		c0.143-0.143,1.003-0.43,1.003-0.43c0.287-0.86,0.716-1.146,1.433-1.576c-0.573-2.149-4.585-4.299-6.735-3.725
		c0.287-0.143,0.43-0.573,0.86-0.716c-1.003-2.006,4.012-3.439,5.015-1.003c1.29-1.433,3.152-0.716,3.869,0.86
		c1.719-0.573,4.955,0.752,5.731,2.293C106.014,49.371,106.274,51.473,106.274,51.473z"/>
</g>
<g opacity="0.2">
	<linearGradient id="SVGID_WIV_18_" gradientUnits="userSpaceOnUse" x1="96.3829" y1="46.9178" x2="96.3829" y2="29.4721">
		<stop  offset="0.0386" style="stop-color:#FEC673"/>
		<stop  offset="0.2424" style="stop-color:#FFC40C"/>
		<stop  offset="0.2636" style="stop-color:#FDB818"/>
		<stop  offset="0.3095" style="stop-color:#FAA425"/>
		<stop  offset="0.3593" style="stop-color:#F8952C"/>
		<stop  offset="0.4141" style="stop-color:#F68B2F"/>
		<stop  offset="0.4777" style="stop-color:#F58431"/>
		<stop  offset="0.5708" style="stop-color:#F58231"/>
		<stop  offset="0.6417" style="stop-color:#F38731"/>
		<stop  offset="0.7517" style="stop-color:#F0952E"/>
		<stop  offset="0.8863" style="stop-color:#ECAC27"/>
		<stop  offset="1" style="stop-color:#E7C21F"/>
	</linearGradient>
	<path fill="url(#SVGID_WIV_18_)" d="M84.669,32.396c-0.411,0.411,8.106-4.415,11.39-2.452c0.411,1.095,0.274,2.464-0.548,3.285
		c1.369-0.821,5.099-1.242,4.962,0.949c2.327-0.274,1.061,3.158-0.308,4.253c1.506-1.095,4.107-0.274,3.285,1.78
		c1.643,0.958,6.023,4.517,4.243,6.707c-1.369-1.506-2.875-1.095-4.654-1.916c-1.506-0.684-2.875-3.148-5.065-1.78
		c-1.232-0.958-3.422-1.369-4.791-0.684c-1.369,0.548-3.747-3.999-4.979-3.999c-1.369-0.137-0.234-0.84-3.519-1.798
		c1.404-0.95,3.678-2.894,2.242-3.981C86.315,32.295,84.669,32.396,84.669,32.396z"/>
</g>
<g opacity="0.3">
	<linearGradient id="SVGID_WIV_19_" gradientUnits="userSpaceOnUse" x1="114.2899" y1="34.8955" x2="104.9665" y2="18.7468">
		<stop  offset="0" style="stop-color:#2D0012"/>
		<stop  offset="0.2738" style="stop-color:#310014"/>
		<stop  offset="0.4459" style="stop-color:#3A011C"/>
		<stop  offset="0.5899" style="stop-color:#45152A"/>
		<stop  offset="0.7185" style="stop-color:#51293B"/>
		<stop  offset="0.8368" style="stop-color:#5F3F50"/>
		<stop  offset="0.9461" style="stop-color:#6E5A6A"/>
		<stop  offset="1" style="stop-color:#756B7B"/>
	</linearGradient>
	<path fill="url(#SVGID_WIV_19_)" d="M120.309,23.658l-0.713-0.08c-0.209-0.209-1.759-0.073-2.899,0.528
		c4.633-3.538-4.273-5.119-7.743-3.383c-0.519-3.894-4.672-1.298-5.97,0.779c-1.558-1.298-3.115,0-4.153,1.557l0.246,3.447
		c0.537,1.075,0,2.256-0.215,3.331c2.793-0.215,3.76,0.215,2.686,3.223c2.686-0.215,3.008,2.578,5.264,3.223
		c2.686,0.752,6.446-1.611,8.81-2.578c1.544-0.713,3.182-1.401,4.688-2.284V23.658z"/>
</g>
<g opacity="0.2">
	<linearGradient id="SVGID_WIV_20_" gradientUnits="userSpaceOnUse" x1="111.2287" y1="50.3727" x2="111.2287" y2="39.6784">
		<stop  offset="0.0386" style="stop-color:#FEC673"/>
		<stop  offset="0.2424" style="stop-color:#FFC40C"/>
		<stop  offset="0.2636" style="stop-color:#FDB818"/>
		<stop  offset="0.3095" style="stop-color:#FAA425"/>
		<stop  offset="0.3593" style="stop-color:#F8952C"/>
		<stop  offset="0.4141" style="stop-color:#F68B2F"/>
		<stop  offset="0.4777" style="stop-color:#F58431"/>
		<stop  offset="0.5708" style="stop-color:#F58231"/>
		<stop  offset="0.6417" style="stop-color:#F38731"/>
		<stop  offset="0.7517" style="stop-color:#F0952E"/>
		<stop  offset="0.8863" style="stop-color:#ECAC27"/>
		<stop  offset="1" style="stop-color:#E7C21F"/>
	</linearGradient>
	<path fill="url(#SVGID_WIV_20_)" d="M113.913,49.778c0.923-0.385,1.154-1.539,0.308-2.231c2.462,3.231,4.77-4.616,0.846-3
		c0-1.846-1.923-2.769-3.539-2.308c0.923-1.692-2.231-2.231-3.308-1.769c0-1.077-2.091-0.817-2.938-0.586
		c0,0,2.991,2.018,3.546,3.004c0.886,1.576,1.048,2.111,0.936,2.955c-0.086,0.645-0.695,2.238-0.695,2.238s1.286-0.022,2.222-1.302
		c0.26-0.356,0.519-2.028,0.519-2.028s0.806,0.926,0.86,2.816c0.022,0.77-0.492,2.807-0.492,2.807L113.913,49.778z"/>
</g>
<g opacity="0.3">
	<linearGradient id="SVGID_WIV_21_" gradientUnits="userSpaceOnUse" x1="107.2729" y1="-5.2199" x2="128.8106" y2="32.0845">
		<stop  offset="0" style="stop-color:#ED7420"/>
		<stop  offset="0.0142" style="stop-color:#E36F30"/>
		<stop  offset="0.0414" style="stop-color:#D56847"/>
		<stop  offset="0.0716" style="stop-color:#C96256"/>
		<stop  offset="0.1046" style="stop-color:#BF5D61"/>
		<stop  offset="0.1413" style="stop-color:#B75868"/>
		<stop  offset="0.1834" style="stop-color:#B1556E"/>
		<stop  offset="0.2341" style="stop-color:#AD5372"/>
		<stop  offset="0.3022" style="stop-color:#AB5174"/>
		<stop  offset="0.4617" style="stop-color:#AA5175"/>
		<stop  offset="1" style="stop-color:#803756"/>
	</linearGradient>
	<path fill="url(#SVGID_WIV_21_)" d="M120.309,2.605c-1.554,1.294-3.734,1.386-5.785,1.587c-3.146,0.308-6.788-4.917-7.025-3.571
		c-1.094,0.657-3.66,0.115-5.612-0.621h-0.118l4.156,2.137c1.974,0.329,2.413,0.987,3.839,2.523
		c1.207,1.316,5.155,4.058,6.581,1.535c0.438,0.548,0.987,0.548,1.535,0c0,1.652,1.49,1.401,2.43,0.516V2.605z"/>
</g>
<g opacity="0.2">
	<linearGradient id="SVGID_WIV_22_" gradientUnits="userSpaceOnUse" x1="69.1092" y1="64.5017" x2="69.1092" y2="47.5937">
		<stop  offset="0" style="stop-color:#A93B23"/>
		<stop  offset="0.0268" style="stop-color:#BA4A24"/>
		<stop  offset="0.0856" style="stop-color:#DD6822"/>
		<stop  offset="0.1186" style="stop-color:#ED7420"/>
		<stop  offset="0.7539" style="stop-color:#AA5175"/>
		<stop  offset="1" style="stop-color:#5A1C39"/>
	</linearGradient>
	<path fill="url(#SVGID_WIV_22_)" d="M73.701,64.502c-1.29-1.719-0.86-2.579-0.86-4.442c-1.003,0.143-0.716-0.143-1.433-0.287
		c1.433-0.43,1.433-2.436,1.433-3.725l0.143,0.143c-0.86,0.86-2.866,1.003-3.152-0.573c-1.29,1.146-3.582,0.287-2.149-1.433
		c-1.863-0.86,0.287-2.866,1.576-3.152c-0.716-1.576,1.146-2.436,2.149-3.439c-0.941,0.209-1.767,0.783-2.735,0.884
		c-0.768,0.08-1.506-0.291-1.506-0.291s0.218,0.799,0.172,1.064l-0.428,1.086c-0.53,0.647-1.412,0.883-1.942,1.412
		c-0.647,0.706-0.765,3.001,0.765,2.06c-1,0.647-1.295,2.354-1.059,3.413c0.235,1,2.295,3.001,2.766,1.177
		c-0.412,1.53,0.824,2.648,2.295,2.177c-0.118,1,1.765,3.295,2.707,3.648L73.701,64.502z"/>
</g>
<g opacity="0.2">
	<linearGradient id="SVGID_WIV_23_" gradientUnits="userSpaceOnUse" x1="31.4496" y1="49.0321" x2="31.4496" y2="20.6373">
		<stop  offset="0" style="stop-color:#A93B23"/>
		<stop  offset="0.0268" style="stop-color:#BA4A24"/>
		<stop  offset="0.0856" style="stop-color:#DD6822"/>
		<stop  offset="0.1186" style="stop-color:#ED7420"/>
		<stop  offset="0.7539" style="stop-color:#AA5175"/>
		<stop  offset="1" style="stop-color:#5A1C39"/>
	</linearGradient>
	<path fill="url(#SVGID_WIV_23_)" d="M62.219,20.637l0.01,0.021c0,1.719-1.478,3.745-4.2,3.028c-1.146,4.442-5.39,4.469-8.399,3.609
		c-1.863-0.43-6.591-0.86-7.881-2.723c-0.86,1.863-3.152,0.43-3.869-0.859c2.293,7.021-7.451,11.033-13.039,9.6
		c-0.86,3.152-8.597,1.003-9.457-1.146c-0.717,0.86-1.576,0.287-1.863-0.716c-1.307,4.707-8.929,6.42-13.52,4.726v7.188
		c2.288,0.901,4.961-1.685,4.604-5.789c-0.217,3.253,7.421-1.291,8.722-3.243c1.952,6.506,8.719,7.791,12.189,3.019
		c0.217,0,7.014,1.871,9.617-2.9c5.077,1.66,5.46-5.78,6.761-8.382c0.434,3.036,3.242,3.95,8.034,4.341
		c3.33,0.271,8.936-0.855,9.153-3.675c0.867,0.651,2.127,0.422,3.049-0.58C63.808,23.208,62.219,20.637,62.219,20.637z"/>
</g>
<g opacity="0.2">
	<linearGradient id="SVGID_WIV_24_" gradientUnits="userSpaceOnUse" x1="68.6753" y1="43.739" x2="68.6753" y2="10.9262">
		<stop  offset="0" style="stop-color:#A93B23"/>
		<stop  offset="0.0268" style="stop-color:#BA4A24"/>
		<stop  offset="0.0856" style="stop-color:#DD6822"/>
		<stop  offset="0.1186" style="stop-color:#ED7420"/>
		<stop  offset="0.7539" style="stop-color:#AA5175"/>
		<stop  offset="1" style="stop-color:#5A1C39"/>
	</linearGradient>
	<path fill="url(#SVGID_WIV_24_)" d="M63.892,15.426c0,0.989,0.984,6.157,2.256,6.51c-0.565,0.424-1.889,4.249,0.921,5.803
		c-1.484,0.424-3.07,0.828-3.494,2.383c-0.424,1.555,1.131,3.109,2.614,2.19c-1.272,1.201,1.201,1.696,1.908,1.625
		c-1.272,0.989,0.8,5.173,0.8,5.173s-1.791,0.767-1.581,2.346c0.082,0.612,0.943,2.282,0.943,2.282
		c-0.43-1.433,0.716-4.585,2.579-4.012c-0.43-1.146-0.43-2.722,1.146-3.009c-2.006-1.146-0.143-3.869,1.863-4.012l-3.296-0.143
		c-0.716-0.287-1.146-0.43-0.716-1.146c-1.29-1.29-0.143-2.722,1.433-2.866c-1.29-0.143-2.149-0.86-2.006-2.149
		c-2.579,0.86-4.299-3.296-1.29-3.439c-0.716-0.716-0.716-1.719-0.143-2.436c-1.863-2.866,2.579-4.012,4.585-3.009
		c-0.573-0.716-0.86-1.003-0.86-2.006c-2.293,0.86-6.018-2.436-6.305-4.585L63.892,15.426z"/>
</g>
</svg>
