<?xml version="1.0" encoding="utf-8"?>
<!-- Generator: Adobe Illustrator 17.0.0, SVG Export Plug-In . SVG Version: 6.00 Build 0)  -->
<!DOCTYPE svg PUBLIC "-//W3C//DTD SVG 1.1//EN" "http://www.w3.org/Graphics/SVG/1.1/DTD/svg11.dtd">
<svg version="1.1" id="Layer_1" xmlns="http://www.w3.org/2000/svg" xmlns:xlink="http://www.w3.org/1999/xlink" x="0px" y="0px"
	 width="50px" height="50px" viewBox="0 0 50 50" enable-background="new 0 0 50 50" xml:space="preserve">
<path opacity="0.2" fill="#FFFFFF" d="M42.458,19.715l2.969-8.344c0,0-4.05-2.018-9.936-1.748c-1.433,0.042-2.484,0.176-3.439,0.327
	L30.74,3.355c0,0-6.136-2.119-12.125-1.797C14.255,1.793,9.99,3.699,9.99,3.699s-0.125-1-0.8-1.454
	C8.63,1.87,7.958,1.777,7.958,1.777H7.542c0,0-0.708,0.141-1.203,0.464C5.615,2.715,5.55,3.864,5.55,3.864v37.203
	c-0.329,0.125-0.713,0.373-1.012,0.882c-0.203,0.347-0.29,0.741-0.325,1.086l-0.641,0c0,0-0.918,0.154-1.441,1.251
	c-0.635,1.33-0.02,3.144-0.02,3.144s2.502,0.627,5.591,0.563c3.048-0.064,5.645-0.579,5.645-0.579s0.531-1.798-0.103-3.128
	c-0.523-1.096-1.352-1.245-1.352-1.245l-0.632,0c-0.035-0.344-0.121-0.738-0.325-1.086c-0.285-0.486-0.642-0.735-0.956-0.87V28.956
	c2.49-1.268,6.749-3.252,10.473-4.057c1.943-0.42,3.372-0.378,5.261-0.342l0.206,9.403c0,0,5.262-3.93,11.123-5.33
	C41.58,27.546,50,30.12,50,30.12L42.458,19.715z"/>
<g>
	
		<linearGradient id="SVGID_1_" gradientUnits="userSpaceOnUse" x1="1777.4089" y1="-380.433" x2="1779.5667" y2="-380.433" gradientTransform="matrix(-1 0 0 -1 1786.2352 -358)">
		<stop  offset="0" style="stop-color:#404041"/>
		<stop  offset="0.1713" style="stop-color:#474748"/>
		<stop  offset="0.4287" style="stop-color:#5A5B5D"/>
		<stop  offset="0.4998" style="stop-color:#616264"/>
		<stop  offset="0.6819" style="stop-color:#59595B"/>
		<stop  offset="0.9766" style="stop-color:#424243"/>
		<stop  offset="1" style="stop-color:#404041"/>
	</linearGradient>
	<path fill="url(#SVGID_1_)" stroke="#000000" stroke-miterlimit="10" d="M7.85,2.927c0,0,0.315-0.008,0.591,0.21
		c0.333,0.263,0.384,0.67,0.384,0.67v38.133l-2.158-0.004V3.802c0,0,0.052-0.407,0.384-0.67C7.33,2.914,7.651,2.931,7.651,2.931
		L7.85,2.927z"/>
	
		<linearGradient id="SVGID_2_" gradientUnits="userSpaceOnUse" x1="294.3456" y1="-373.4742" x2="319.2057" y2="-373.4742" gradientTransform="matrix(1 0 0 -1 -285.5 -358)">
		<stop  offset="0" style="stop-color:#F0C119"/>
		<stop  offset="0.0842" style="stop-color:#EFC924"/>
		<stop  offset="0.339" style="stop-color:#EDDE40"/>
		<stop  offset="0.487" style="stop-color:#ECE64A"/>
		<stop  offset="0.6141" style="stop-color:#EEE142"/>
		<stop  offset="0.8061" style="stop-color:#F4D22E"/>
		<stop  offset="1" style="stop-color:#FBBE12"/>
	</linearGradient>
	<path fill="url(#SVGID_2_)" stroke="#000000" stroke-miterlimit="10" d="M8.846,5.409c0,0,4.495-2.244,9.96-2.637
		c5.408-0.388,10.585,1.439,10.585,1.439l4.315,20.026c0,0-7.116-2.099-13.462-0.72C15.124,24.63,8.858,28.23,8.858,28.23
		L8.846,5.409z"/>
	
		<linearGradient id="SVGID_3_" gradientUnits="userSpaceOnUse" x1="312.7638" y1="-385.052" x2="319.2067" y2="-385.052" gradientTransform="matrix(1 0 0 -1 -285.5 -358)">
		<stop  offset="0" style="stop-color:#E88624"/>
		<stop  offset="0.487" style="stop-color:#F5A619"/>
		<stop  offset="0.7528" style="stop-color:#F4A41A"/>
		<stop  offset="0.8705" style="stop-color:#F19D1C"/>
		<stop  offset="0.9586" style="stop-color:#ED9020"/>
		<stop  offset="1" style="stop-color:#E98723"/>
	</linearGradient>
	<path fill="url(#SVGID_3_)" stroke="#000000" stroke-miterlimit="10" d="M27.436,30.978l6.271-6.741c0,0-2.441-0.76-3.27-0.901
		c-0.785-0.134-3.173-0.211-3.173-0.211L27.436,30.978z"/>
	
		<linearGradient id="SVGID_4_" gradientUnits="userSpaceOnUse" x1="314.4046" y1="-378.7321" x2="332.2838" y2="-378.7321" gradientTransform="matrix(1 0 0 -1 -285.5 -358)">
		<stop  offset="0" style="stop-color:#F0C119"/>
		<stop  offset="0.188" style="stop-color:#F1BD19"/>
		<stop  offset="0.3737" style="stop-color:#F3B119"/>
		<stop  offset="0.487" style="stop-color:#F5A619"/>
		<stop  offset="0.5482" style="stop-color:#F6AB18"/>
		<stop  offset="0.7925" style="stop-color:#FAB913"/>
		<stop  offset="1" style="stop-color:#FBBE12"/>
	</linearGradient>
	<path fill="url(#SVGID_4_)" stroke="#000000" stroke-miterlimit="10" d="M31.018,11.954c0,0,1.769-0.76,5.373-0.868
		c4.319-0.13,7.091,1.204,7.091,1.204l-2.71,7.678l6.011,7.959c0,0-5.302-1.516-9.108-0.835c-4.893,0.876-8.771,3.295-8.771,3.295
		l4.774-6.104L31.018,11.954z"/>
	
		<linearGradient id="SVGID_5_" gradientUnits="userSpaceOnUse" x1="288.2731" y1="-403.4091" x2="298.1857" y2="-403.4091" gradientTransform="matrix(1 0 0 -1 -285.5 -358)">
		<stop  offset="0" style="stop-color:#404041"/>
		<stop  offset="0.1713" style="stop-color:#474748"/>
		<stop  offset="0.4287" style="stop-color:#5A5B5D"/>
		<stop  offset="0.4998" style="stop-color:#616264"/>
		<stop  offset="0.6819" style="stop-color:#59595B"/>
		<stop  offset="0.9766" style="stop-color:#424243"/>
		<stop  offset="1" style="stop-color:#404041"/>
	</linearGradient>
	<path fill="url(#SVGID_5_)" stroke="#000000" stroke-miterlimit="10" d="M11.365,43.848c0,0,0.496,0.044,0.953,0.736
		c0.554,0.839,0.318,2.023,0.318,2.023s-2.268,0.325-4.931,0.365c-2.699,0.04-4.884-0.355-4.884-0.355s-0.232-1.198,0.323-2.036
		c0.457-0.692,0.953-0.736,0.953-0.736L11.365,43.848z"/>
	
		<linearGradient id="SVGID_6_" gradientUnits="userSpaceOnUse" x1="1775.9215" y1="-400.9106" x2="1781.0542" y2="-400.9106" gradientTransform="matrix(-1 0 0 -1 1786.2352 -358)">
		<stop  offset="0" style="stop-color:#353435"/>
		<stop  offset="0.5606" style="stop-color:#404041"/>
		<stop  offset="0.9466" style="stop-color:#39393A"/>
		<stop  offset="1" style="stop-color:#383738"/>
	</linearGradient>
	<path fill="url(#SVGID_6_)" stroke="#000000" stroke-miterlimit="10" d="M8.847,41.71c0,0,0.748-0.056,1.215,0.741
		c0.352,0.601,0.233,1.405,0.233,1.405s-1.351,0.239-2.448,0.254C6.474,44.13,5.201,43.86,5.201,43.86s-0.12-0.811,0.233-1.412
		c0.467-0.797,1.231-0.728,1.231-0.728s0.633,0.097,1.099,0.086C8.184,41.794,8.847,41.71,8.847,41.71z"/>
</g>
</svg>
