<?xml version="1.0" encoding="utf-8"?>
<!-- Generator: Adobe Illustrator 17.0.0, SVG Export Plug-In . SVG Version: 6.00 Build 0)  -->
<!DOCTYPE svg PUBLIC "-//W3C//DTD SVG 1.1//EN" "http://www.w3.org/Graphics/SVG/1.1/DTD/svg11.dtd">
<svg version="1.1" id="Layer_1" xmlns="http://www.w3.org/2000/svg" xmlns:xlink="http://www.w3.org/1999/xlink" x="0px" y="0px"
	 width="50px" height="50px" viewBox="0 0 50 50" enable-background="new 0 0 50 50" xml:space="preserve">
<path fill="#FFFFFF" stroke="#AFAFAF" stroke-miterlimit="10" d="M48.765,36.897c0,6.69-5.489,12.114-12.26,12.114H13.269
	c-6.771,0-12.26-5.423-12.26-12.114V13.175c0-6.69,5.489-12.114,12.26-12.114h23.236c6.771,0,12.26,5.423,12.26,12.114V36.897z"/>
<path fill="#020404" d="M43.536,26.114c-0.122,0.494-0.423,0.938-0.72,1.346c-0.819,1.125-2.008,1.368-3.325,1.367
	c-12.718-0.012-6.964-0.005-19.682-0.005c-0.273,0-0.546,0-0.991,0c0.319,0.338,0.481,0.518,0.652,0.69
	c1.216,1.219,2.453,2.418,3.646,3.659c1.458,1.517,1.453,3.652,0.029,5.003c-1.438,1.366-3.504,1.257-5.064-0.296
	c-3.26-3.246-6.509-6.502-9.76-9.757c-1.772-1.774-1.771-3.713,0.002-5.488c3.216-3.22,6.434-6.438,9.655-9.653
	c0.243-0.243,0.497-0.48,0.773-0.683c0.863-0.634,1.832-0.823,2.862-0.55c2.542,0.674,3.463,3.649,1.692,5.61
	c-1.219,1.349-2.553,2.594-3.835,3.886c-0.178,0.179-0.35,0.365-0.661,0.691c0.448,0,0.686,0,0.925,0c2.632,0,5.264,0,7.896,0
	c10.135,0,1.799,0.004,11.934-0.01c1.328-0.002,2.494,0.299,3.3,1.423c0.279,0.39,0.558,0.818,0.672,1.29
	C43.651,25.116,43.654,25.636,43.536,26.114z"/>
</svg>
