<?xml version="1.0" encoding="utf-8"?>
<!-- Generator: Adobe Illustrator 17.0.0, SVG Export Plug-In . SVG Version: 6.00 Build 0)  -->
<!DOCTYPE svg PUBLIC "-//W3C//DTD SVG 1.1//EN" "http://www.w3.org/Graphics/SVG/1.1/DTD/svg11.dtd">
<svg version="1.1" id="Layer_1" xmlns="http://www.w3.org/2000/svg" xmlns:xlink="http://www.w3.org/1999/xlink" x="0px" y="0px"
	 width="50px" height="50px" viewBox="0 0 50 50" enable-background="new 0 0 50 50" xml:space="preserve">
<path fill="#FFFFFF" stroke="#B0AFB0" stroke-miterlimit="10" d="M13.093,1.217c-6.69,0-12.114,5.489-12.114,12.26v23.236
	c0,6.771,5.423,12.26,12.114,12.26h23.722c6.69,0,12.114-5.489,12.114-12.26V13.478c0-6.771-5.423-12.26-12.114-12.26L13.093,1.217
	L13.093,1.217z"/>
<path fill="#020404" d="M25.565,6.551c0.472,0.114,0.9,0.393,1.29,0.672c1.124,0.806,1.425,1.972,1.423,3.3
	c-0.014,10.135-0.01,1.799-0.01,11.934c0,2.632,0,5.264,0,7.896c0,0.239,0,0.477,0,0.925c0.326-0.311,0.512-0.483,0.691-0.661
	c1.292-1.282,2.537-2.616,3.886-3.835c1.961-1.771,4.936-0.85,5.61,1.692c0.273,1.03,0.084,1.999-0.55,2.862
	c-0.203,0.276-0.44,0.53-0.683,0.773c-3.215,3.221-6.433,6.439-9.653,9.655c-1.775,1.773-3.714,1.774-5.488,0.002
	c-3.255-3.251-6.511-6.5-9.757-9.76c-1.553-1.56-1.662-3.626-0.296-5.064c1.351-1.424,3.486-1.429,5.003,0.029
	c1.241,1.193,2.44,2.43,3.659,3.646c0.172,0.171,0.352,0.333,0.69,0.652c0-0.445,0-0.718,0-0.991c0-12.718,0.007-6.964-0.005-19.682
	c-0.001-1.318,0.241-2.507,1.366-3.326c0.408-0.297,0.852-0.598,1.346-0.72C24.567,6.434,25.087,6.436,25.565,6.551z"/>
</svg>
