<?xml version="1.0" encoding="utf-8"?>
<!-- Generator: Adobe Illustrator 17.0.0, SVG Export Plug-In . SVG Version: 6.00 Build 0)  -->
<!DOCTYPE svg PUBLIC "-//W3C//DTD SVG 1.1//EN" "http://www.w3.org/Graphics/SVG/1.1/DTD/svg11.dtd">
<svg version="1.1" id="Layer_1" xmlns="http://www.w3.org/2000/svg" xmlns:xlink="http://www.w3.org/1999/xlink" x="0px" y="0px"
	 width="50px" height="50px" viewBox="0 0 50 50" enable-background="new 0 0 50 50" xml:space="preserve">
<polygon fill="#F5DFBA" points="50,0.006 49.859,0 0,0 0,7.514 49.859,7.325 50,7.331 "/>
<polygon fill="#EBCF9F" points="0,0 0,7.685 8.662,7.579 "/>
<polygon fill="#EBCF9F" points="12.474,7.387 3.193,0 20.99,0 "/>
<polygon fill="#EBCF9F" points="24.951,7.686 16.45,7.579 25,0 33.92,7.579 "/>
<polygon fill="#EBCF9F" points="50,0 41.4,7.833 50,7.902 "/>
<polygon fill="#EBCF9F" points="37.282,7.293 28.318,0 46.037,0 "/>
<polygon fill="#F5DFBA" points="50,13.812 0,13.998 0,21.703 50,21.531 "/>
<polygon fill="#EBCF9F" points="0,14.274 0,21.32 8.935,21.39 "/>
<polygon fill="#EBCF9F" points="12.48,21.39 3.691,14.065 12.222,14.065 21.269,14.065 "/>
<polygon fill="#EBCF9F" points="25.224,21.497 16.723,21.39 25,14.161 33.707,21.459 "/>
<polygon fill="#EBCF9F" points="50,14.29 41.673,21.644 50,21.75 "/>
<polygon fill="#EBCF9F" points="37.282,21.381 28.844,14.065 37.611,14.065 46.283,14.065 "/>
<polygon fill="#F5DFBA" points="50,28.007 0,28.139 0,35.404 50,35.203 "/>
<polygon fill="#EBCF9F" points="0,28.579 0,35.592 8.935,35.564 "/>
<polygon fill="#EBCF9F" points="12.48,35.564 3.615,28.154 21.303,28.045 "/>
<polygon fill="#EBCF9F" points="25.224,35.671 16.723,35.564 25.16,28.436 33.937,35.612 "/>
<polygon fill="#EBCF9F" points="50,28.571 41.673,35.817 50,35.924 "/>
<polygon fill="#EBCF9F" points="37.282,35.554 28.35,28.014 46.334,27.998 "/>
<path fill="#F5DFBA" d="M50,42.164l-50,0.1V50c0,0,49.955,0.002,50,0V42.164z"/>
<polygon fill="#EBCF9F" points="0,42.852 0,50 8.709,50 "/>
<polygon fill="#EBCF9F" points="12.474,50 3.418,42.412 21.219,42.205 "/>
<polygon fill="#EBCF9F" points="16.443,50 25.043,42.836 33.527,50 "/>
<polygon fill="#EBCF9F" points="50,42.852 41.4,49.991 50,50 "/>
<polygon fill="#EBCF9F" points="37.282,50 28.406,42.205 46.151,42.141 "/>
<path fill="#855431" d="M50,35.254l-50,0v7.604c0,0,49.953,0.001,50,0V35.254z"/>
<rect y="7.142" fill="#855431" width="50" height="7.144"/>
<polygon fill="#855431" points="50,21.326 0,21.32 0,28.571 50,28.571 "/>
</svg>
