<?xml version="1.0" encoding="utf-8"?>
<!-- Generator: Adobe Illustrator 17.0.0, SVG Export Plug-In . SVG Version: 6.00 Build 0)  -->
<!DOCTYPE svg PUBLIC "-//W3C//DTD SVG 1.1//EN" "http://www.w3.org/Graphics/SVG/1.1/DTD/svg11.dtd">
<svg version="1.1" id="Layer_1" xmlns="http://www.w3.org/2000/svg" xmlns:xlink="http://www.w3.org/1999/xlink" x="0px" y="0px"
	 width="24px" height="24px" viewBox="0 0 24 24" enable-background="new 0 0 24 24" xml:space="preserve">
<polygon fill="#629ED5" points="20.333,12.959 23.411,11.349 20.695,10.087 22.837,7.949 19.672,7.527 21.039,4.819 18.138,5.366 
	18.628,2.421 15.677,3.991 15.072,0.42 12.979,2.67 11.621,0 10.166,3.038 7.897,0.786 7.503,3.849 4.881,2.487 5.406,5.461 
	2.1,4.973 3.635,7.733 0.595,8.211 2.997,10.498 0,12.039 2.901,13.411 0.695,15.581 3.764,16.012 2.422,18.717 5.495,18.115 
	4.997,21.235 7.732,19.756 8.262,23.026 10.421,20.737 11.856,23.609 13.377,20.488 15.593,22.657 15.958,19.65 18.744,21.073 
	18.196,18.09 21.265,18.564 19.831,15.942 22.939,15.475 "/>
<path fill="#ECECED" d="M8.728,16.404l-3.052-3.191c0,0-0.998-0.978-0.092-1.751C6.486,10.692,7.4,11.786,7.4,11.786l2.346,2.304
	c0,0,0.119,0.085,0.173,0.082c0.054-0.003,0.149-0.102,0.149-0.102l5.72-5.663c0,0,1.118-1.186,1.984-0.406
	c0.853,0.769-0.334,1.982-0.334,1.982l-6.57,6.6c0,0-0.463,0.484-0.979,0.493C9.325,17.085,8.728,16.404,8.728,16.404z"/>
</svg>
