<?xml version="1.0" encoding="utf-8"?>
<!-- Generator: Adobe Illustrator 17.0.0, SVG Export Plug-In . SVG Version: 6.00 Build 0)  -->
<!DOCTYPE svg PUBLIC "-//W3C//DTD SVG 1.1//EN" "http://www.w3.org/Graphics/SVG/1.1/DTD/svg11.dtd">
<svg version="1.1" id="Layer_1" xmlns="http://www.w3.org/2000/svg" xmlns:xlink="http://www.w3.org/1999/xlink" x="0px" y="0px"
	 width="77.164px" height="77.987px" viewBox="0 0 77.164 77.987" xml:space="preserve">
<path fill="#FFFFFF" d="M57.462,0H20.122h-0.42C8.821,0,0,8.821,0,19.702v38.583c0,10.881,8.821,19.702,19.702,19.702h37.76
	c10.881,0,19.702-8.821,19.702-19.702V19.702C77.164,8.821,68.343,0,57.462,0z M72.092,55.658c0,9.399-7.62,17.019-17.019,17.019
	H22.454c-9.399,0-17.019-7.62-17.019-17.019V22.329c0-9.399,7.62-17.019,17.019-17.019h0.362h32.256
	c9.399,0,17.019,7.62,17.019,17.019V55.658z"/>
</svg>
