<?xml version="1.0" encoding="utf-8"?>
<!-- Generator: Adobe Illustrator 17.0.0, SVG Export Plug-In . SVG Version: 6.00 Build 0)  -->
<!DOCTYPE svg PUBLIC "-//W3C//DTD SVG 1.1//EN" "http://www.w3.org/Graphics/SVG/1.1/DTD/svg11.dtd">
<svg version="1.1" id="Layer_1" xmlns="http://www.w3.org/2000/svg" xmlns:xlink="http://www.w3.org/1999/xlink" x="0px" y="0px"
	 width="67.112px" height="22.137px" viewBox="0 0 67.112 22.137" enable-background="new 0 0 67.112 22.137" xml:space="preserve">
<g>
	
		<image overflow="visible" opacity="0.2" width="49" height="38" xlink:href="64AF25CFD2220B2C.png"  transform="matrix(0.48 0 0 0.48 43.5916 0)">
	</image>
	<g>
		<path fill="#985627" d="M60.861,8.635c-0.887-1.688-6.137-2.919-7.78-2.578c-1.667,0.346-4.464,3.327-3.147,4.933
			c1.364,1.663,6.161,0.915,7.802,0.43C58.852,11.09,61.494,9.84,60.861,8.635z"/>
	</g>
</g>
<g>
	
		<image overflow="visible" opacity="0.2" width="49" height="39" xlink:href="64AF25CFD2220B2D.png"  transform="matrix(0.48 0 0 0.48 0 3.4174)">
	</image>
	<g>
		<path fill="#985627" d="M6.032,11.505c0.51,1.837,5.38,4.151,7.059,4.165c1.702,0.014,5.067-2.308,4.119-4.156
			c-0.981-1.914-5.828-2.198-7.535-2.071C8.514,9.53,5.668,10.193,6.032,11.505z"/>
	</g>
</g>
</svg>
