<?xml version="1.0" encoding="utf-8"?>
<!-- Generator: Adobe Illustrator 17.0.0, SVG Export Plug-In . SVG Version: 6.00 Build 0)  -->
<!DOCTYPE svg PUBLIC "-//W3C//DTD SVG 1.1//EN" "http://www.w3.org/Graphics/SVG/1.1/DTD/svg11.dtd">
<svg version="1.1" id="Layer_1" xmlns="http://www.w3.org/2000/svg" xmlns:xlink="http://www.w3.org/1999/xlink" x="0px" y="0px"
	 width="63.57px" height="20.579px" viewBox="0 0 63.57 20.579" enable-background="new 0 0 63.57 20.579" xml:space="preserve">
<g>
	
		<image overflow="visible" opacity="0.2" width="54" height="42" xlink:href="62D1F66E650A990B.png"  transform="matrix(0.48 0 0 0.48 37.6503 0.419)">
	</image>
	<g>
		<path fill="#B35F4B" d="M46.126,6.906c4.241-1.823,14.291,1.792,10.194,5.598c-3.097,2.878-12.844,2.744-12.668-1.723
			C43.673,10.262,44.416,7.641,46.126,6.906z"/>
	</g>
</g>
<g>
	
		<image overflow="visible" opacity="0.2" width="54" height="42" xlink:href="62D1F66E650A9909.png"  transform="matrix(0.48 0 0 0.48 0 0)">
	</image>
	<g>
		<path fill="#B35F4B" d="M17.157,6.487C12.915,4.664,2.866,8.279,6.962,12.085c3.097,2.878,12.844,2.744,12.668-1.723
			C19.609,9.843,18.867,7.222,17.157,6.487z"/>
	</g>
</g>
<path fill="#542619" d="M11.066,9.251c0.257,0.007,0.402,0.109,0.428,0.263c0.061,0.353-0.113,0.533-0.228,0.585
	c-0.16,0.072-0.39,0.007-0.502-0.376C10.694,9.485,10.877,9.245,11.066,9.251z"/>
<path fill="#542619" d="M14.346,12.382c0.071-0.247,0.205-0.362,0.361-0.35c0.357,0.029,0.489,0.242,0.51,0.366
	c0.03,0.172-0.09,0.379-0.488,0.393C14.48,12.8,14.294,12.564,14.346,12.382z"/>
<path fill="#542619" d="M8.996,11.313c-0.043-0.147-0.011-0.248,0.071-0.292c0.189-0.099,0.324-0.033,0.374,0.023
	c0.07,0.078,0.075,0.22-0.122,0.354C9.197,11.482,9.027,11.421,8.996,11.313z"/>
<path fill="#542619" d="M12.938,9.384c0.078-0.132,0.173-0.178,0.261-0.148c0.202,0.07,0.246,0.214,0.24,0.289
	c-0.009,0.104-0.109,0.206-0.342,0.154C12.953,9.646,12.881,9.482,12.938,9.384z"/>
<path fill="#542619" d="M12.474,11.943c-0.147,0.046-0.248,0.016-0.293-0.066c-0.103-0.188-0.039-0.323,0.016-0.375
	c0.076-0.071,0.219-0.079,0.357,0.115C12.639,11.739,12.582,11.909,12.474,11.943z"/>
<path fill="#542619" d="M10.554,8.965c-0.111,0.106-0.215,0.125-0.292,0.071c-0.175-0.123-0.179-0.273-0.152-0.343
	c0.037-0.098,0.161-0.168,0.371-0.055C10.612,8.709,10.636,8.887,10.554,8.965z"/>
<path fill="#542619" d="M15.9,9.911c-0.111,0.106-0.215,0.125-0.292,0.071c-0.175-0.123-0.179-0.273-0.152-0.343
	c0.037-0.098,0.161-0.168,0.371-0.055C15.957,9.655,15.982,9.833,15.9,9.911z"/>
<path fill="#542619" d="M7.527,9.603C7.416,9.709,7.312,9.727,7.236,9.674C7.061,9.551,7.057,9.401,7.083,9.331
	C7.12,9.233,7.245,9.163,7.454,9.276C7.585,9.346,7.609,9.525,7.527,9.603z"/>
<path fill="#542619" d="M12.817,7.602c0.052,0.145,0.027,0.247-0.053,0.295c-0.183,0.11-0.322,0.053-0.375,0
	c-0.075-0.073-0.088-0.215,0.1-0.361C12.606,7.446,12.779,7.496,12.817,7.602z"/>
<path fill="#542619" d="M9.231,10.331c-0.014,0.214-0.103,0.331-0.232,0.348c-0.295,0.039-0.44-0.111-0.48-0.208
	c-0.055-0.135,0.007-0.324,0.328-0.406C9.048,10.014,9.241,10.174,9.231,10.331z"/>
<path fill="#542619" d="M15.326,10.331c-0.014,0.214-0.103,0.331-0.232,0.348c-0.295,0.039-0.44-0.111-0.48-0.208
	c-0.055-0.135,0.007-0.324,0.328-0.406C15.143,10.014,15.336,10.174,15.326,10.331z"/>
<path fill="#542619" d="M9.646,13.008c-0.011,0.171-0.083,0.265-0.186,0.279c-0.236,0.032-0.352-0.089-0.384-0.166
	c-0.044-0.108,0.005-0.26,0.263-0.325C9.5,12.754,9.655,12.882,9.646,13.008z"/>
<path fill="#542619" d="M11.419,11.424c-0.011,0.171-0.083,0.265-0.186,0.279c-0.236,0.032-0.352-0.089-0.384-0.166
	c-0.044-0.108,0.005-0.26,0.263-0.325C11.273,11.171,11.428,11.298,11.419,11.424z"/>
<path fill="#542619" d="M6.165,10.339c-0.011,0.171-0.083,0.265-0.186,0.279c-0.236,0.032-0.352-0.089-0.384-0.166
	c-0.044-0.108,0.005-0.26,0.263-0.325C6.019,10.085,6.173,10.213,6.165,10.339z"/>
<path fill="#542619" d="M9.646,7.929C9.635,8.1,9.564,8.194,9.461,8.208C9.224,8.24,9.108,8.119,9.077,8.041
	c-0.044-0.108,0.005-0.26,0.263-0.325C9.5,7.676,9.655,7.803,9.646,7.929z"/>
<path fill="#542619" d="M14.491,6.718c0.106-0.059,0.189-0.052,0.236,0.004c0.109,0.128,0.082,0.243,0.048,0.291
	c-0.047,0.067-0.156,0.096-0.293-0.032C14.396,6.901,14.413,6.761,14.491,6.718z"/>
<path fill="#542619" d="M10.481,6.518c0.083,0.088,0.097,0.17,0.054,0.23c-0.097,0.137-0.215,0.139-0.271,0.118
	c-0.077-0.029-0.131-0.128-0.041-0.292C10.279,6.471,10.42,6.453,10.481,6.518z"/>
<path fill="#542619" d="M9.468,9.091c0.083,0.088,0.097,0.17,0.054,0.23C9.425,9.458,9.307,9.46,9.252,9.439
	C9.175,9.409,9.12,9.311,9.21,9.147C9.267,9.044,9.407,9.026,9.468,9.091z"/>
<path fill="#542619" d="M19.536,7.565c0.083,0.088,0.097,0.17,0.054,0.23c-0.097,0.137-0.215,0.139-0.271,0.118
	c-0.077-0.029-0.131-0.128-0.041-0.292C19.335,7.519,19.475,7.5,19.536,7.565z"/>
<path fill="#542619" d="M22.81,8.613c0.121-0.003,0.191,0.041,0.208,0.113c0.037,0.164-0.04,0.253-0.093,0.28
	c-0.073,0.038-0.183,0.013-0.245-0.164C22.641,8.732,22.721,8.615,22.81,8.613z"/>
<path fill="#542619" d="M18.447,11.277c0.083,0.088,0.097,0.17,0.054,0.23c-0.097,0.137-0.215,0.139-0.271,0.118
	c-0.077-0.029-0.131-0.128-0.041-0.292C18.246,11.231,18.386,11.213,18.447,11.277z"/>
<path fill="#542619" d="M17.807,10.054c-0.111,0.106-0.215,0.125-0.292,0.071c-0.175-0.123-0.179-0.273-0.152-0.343
	c0.037-0.098,0.161-0.168,0.371-0.055C17.864,9.798,17.889,9.976,17.807,10.054z"/>
<path fill="#542619" d="M19.294,8.7c0.052,0.145,0.027,0.247-0.053,0.295c-0.183,0.11-0.322,0.053-0.375,0
	c-0.075-0.073-0.088-0.215,0.1-0.361C19.083,8.544,19.256,8.593,19.294,8.7z"/>
<path fill="#542619" d="M16.147,8.581c-0.011,0.171-0.083,0.265-0.186,0.279c-0.236,0.032-0.352-0.089-0.384-0.166
	c-0.044-0.108,0.005-0.26,0.263-0.325C16,8.327,16.155,8.455,16.147,8.581z"/>
<path fill="#542619" d="M17.464,7.606c0.083,0.088,0.097,0.17,0.054,0.23c-0.097,0.137-0.215,0.139-0.271,0.118
	c-0.077-0.029-0.131-0.128-0.041-0.292C17.263,7.56,17.403,7.542,17.464,7.606z"/>
<path fill="#542619" d="M16.451,10.18c0.083,0.088,0.097,0.17,0.054,0.23c-0.097,0.137-0.215,0.139-0.271,0.118
	c-0.077-0.029-0.131-0.128-0.041-0.292C16.25,10.133,16.39,10.115,16.451,10.18z"/>
<path fill="#542619" d="M8.297,12.227c-0.111,0.106-0.215,0.125-0.292,0.071c-0.175-0.123-0.179-0.273-0.152-0.343
	c0.037-0.098,0.161-0.168,0.371-0.055C8.354,11.97,8.379,12.148,8.297,12.227z"/>
<path fill="#542619" d="M7.389,11.191c-0.011,0.171-0.083,0.265-0.186,0.279c-0.236,0.032-0.352-0.089-0.384-0.166
	c-0.044-0.108,0.005-0.26,0.263-0.325C7.243,10.937,7.397,11.065,7.389,11.191z"/>
<path fill="#542619" d="M7.21,12.352c0.083,0.088,0.097,0.17,0.054,0.23C7.167,12.719,7.05,12.721,6.994,12.7
	c-0.077-0.029-0.131-0.128-0.041-0.292C7.009,12.306,7.149,12.287,7.21,12.352z"/>
<path fill="#542619" d="M22.439,10.184c-0.111,0.106-0.215,0.125-0.292,0.071c-0.175-0.123-0.179-0.273-0.152-0.343
	c0.037-0.098,0.161-0.168,0.371-0.055C22.496,9.928,22.521,10.106,22.439,10.184z"/>
<path fill="#542619" d="M21.531,9.148c-0.011,0.171-0.083,0.265-0.186,0.279c-0.236,0.032-0.352-0.089-0.384-0.166
	c-0.044-0.108,0.005-0.26,0.263-0.325C21.385,8.895,21.539,9.022,21.531,9.148z"/>
<path fill="#542619" d="M21.352,10.31c0.083,0.088,0.097,0.17,0.054,0.23c-0.097,0.137-0.215,0.139-0.271,0.118
	c-0.077-0.029-0.131-0.128-0.041-0.292C21.151,10.263,21.291,10.245,21.352,10.31z"/>
<path fill="#542619" d="M51.738,9.144c-0.257,0.007-0.402,0.109-0.428,0.263c-0.061,0.353,0.113,0.533,0.228,0.585
	c0.16,0.072,0.39,0.007,0.502-0.376C52.11,9.377,51.927,9.138,51.738,9.144z"/>
<path fill="#542619" d="M48.458,12.274c-0.071-0.247-0.205-0.362-0.361-0.35c-0.357,0.029-0.489,0.242-0.51,0.366
	c-0.03,0.172,0.09,0.379,0.488,0.393C48.323,12.693,48.51,12.457,48.458,12.274z"/>
<path fill="#542619" d="M53.808,11.205c0.043-0.147,0.011-0.248-0.071-0.292c-0.189-0.099-0.324-0.033-0.374,0.023
	c-0.07,0.078-0.075,0.22,0.122,0.354C53.607,11.374,53.776,11.314,53.808,11.205z"/>
<path fill="#542619" d="M49.865,9.277c-0.078-0.132-0.173-0.178-0.261-0.148c-0.202,0.07-0.246,0.214-0.24,0.289
	c0.009,0.104,0.109,0.206,0.342,0.154C49.851,9.539,49.923,9.374,49.865,9.277z"/>
<path fill="#542619" d="M50.33,11.835c0.147,0.046,0.248,0.016,0.293-0.066c0.103-0.188,0.039-0.323-0.016-0.375
	c-0.076-0.071-0.219-0.079-0.357,0.115C50.165,11.631,50.222,11.802,50.33,11.835z"/>
<path fill="#542619" d="M52.25,8.858c0.111,0.106,0.215,0.125,0.292,0.071c0.175-0.123,0.179-0.273,0.152-0.343
	c-0.037-0.098-0.161-0.168-0.371-0.055C52.192,8.602,52.168,8.78,52.25,8.858z"/>
<path fill="#542619" d="M46.904,9.804c0.111,0.106,0.215,0.125,0.292,0.071c0.175-0.123,0.179-0.273,0.152-0.343
	c-0.037-0.098-0.161-0.168-0.371-0.055C46.846,9.547,46.822,9.726,46.904,9.804z"/>
<path fill="#542619" d="M55.276,9.495c0.111,0.106,0.215,0.125,0.292,0.071c0.175-0.123,0.179-0.273,0.152-0.343
	c-0.037-0.098-0.161-0.168-0.371-0.055C55.219,9.239,55.195,9.417,55.276,9.495z"/>
<path fill="#542619" d="M49.986,7.495C49.935,7.64,49.96,7.743,50.04,7.791c0.183,0.11,0.322,0.053,0.375,0
	c0.075-0.073,0.088-0.215-0.1-0.361C50.197,7.339,50.025,7.389,49.986,7.495z"/>
<path fill="#542619" d="M53.573,10.224c0.014,0.214,0.103,0.331,0.232,0.348c0.295,0.039,0.44-0.111,0.48-0.208
	c0.055-0.135-0.007-0.324-0.328-0.406C53.756,9.907,53.563,10.066,53.573,10.224z"/>
<path fill="#542619" d="M47.478,10.224c0.014,0.214,0.103,0.331,0.232,0.348c0.295,0.039,0.44-0.111,0.48-0.208
	c0.055-0.135-0.007-0.324-0.328-0.406C47.661,9.907,47.468,10.066,47.478,10.224z"/>
<path fill="#542619" d="M53.158,12.901c0.011,0.171,0.083,0.265,0.186,0.279c0.236,0.032,0.352-0.089,0.384-0.166
	c0.044-0.108-0.005-0.26-0.263-0.325C53.304,12.647,53.149,12.775,53.158,12.901z"/>
<path fill="#542619" d="M51.384,11.317c0.011,0.171,0.083,0.265,0.186,0.279c0.236,0.032,0.352-0.089,0.384-0.166
	c0.044-0.108-0.005-0.26-0.263-0.325C51.531,11.063,51.376,11.191,51.384,11.317z"/>
<path fill="#542619" d="M56.639,10.232c0.011,0.171,0.083,0.265,0.186,0.279c0.236,0.032,0.352-0.089,0.384-0.166
	c0.044-0.108-0.005-0.26-0.263-0.325C56.785,9.978,56.631,10.106,56.639,10.232z"/>
<path fill="#542619" d="M53.158,7.822c0.011,0.171,0.083,0.265,0.186,0.279c0.236,0.032,0.352-0.089,0.384-0.166
	c0.044-0.108-0.005-0.26-0.263-0.325C53.304,7.568,53.149,7.696,53.158,7.822z"/>
<path fill="#542619" d="M48.313,6.611c-0.106-0.059-0.189-0.052-0.236,0.004c-0.109,0.128-0.082,0.243-0.048,0.291
	c0.047,0.067,0.156,0.096,0.293-0.032C48.407,6.794,48.391,6.654,48.313,6.611z"/>
<path fill="#542619" d="M52.323,6.41c-0.083,0.088-0.097,0.17-0.054,0.23c0.097,0.137,0.215,0.139,0.271,0.118
	c0.077-0.029,0.131-0.128,0.041-0.292C52.524,6.364,52.384,6.345,52.323,6.41z"/>
<path fill="#542619" d="M53.336,8.983c-0.083,0.088-0.097,0.17-0.054,0.23c0.097,0.137,0.215,0.139,0.271,0.118
	c0.077-0.029,0.131-0.128,0.041-0.292C53.537,8.937,53.397,8.919,53.336,8.983z"/>
<path fill="#542619" d="M43.267,7.458c-0.083,0.088-0.097,0.17-0.054,0.23c0.097,0.137,0.215,0.139,0.271,0.118
	c0.077-0.029,0.131-0.128,0.041-0.292C43.469,7.412,43.328,7.393,43.267,7.458z"/>
<path fill="#542619" d="M39.994,8.505c-0.121-0.003-0.191,0.041-0.208,0.113c-0.037,0.164,0.04,0.253,0.093,0.28
	c0.073,0.038,0.183,0.013,0.245-0.164C40.163,8.624,40.083,8.508,39.994,8.505z"/>
<path fill="#542619" d="M44.357,11.17c-0.083,0.088-0.097,0.17-0.054,0.23c0.097,0.137,0.215,0.139,0.271,0.118
	c0.077-0.029,0.131-0.128,0.041-0.292C44.558,11.124,44.418,11.105,44.357,11.17z"/>
<path fill="#542619" d="M44.997,9.947c0.111,0.106,0.215,0.125,0.292,0.071c0.175-0.123,0.179-0.273,0.152-0.343
	C45.404,9.577,45.28,9.507,45.07,9.62C44.939,9.691,44.915,9.869,44.997,9.947z"/>
<path fill="#542619" d="M43.51,8.593c-0.052,0.145-0.027,0.247,0.053,0.295c0.183,0.11,0.322,0.053,0.375,0
	c0.075-0.073,0.088-0.215-0.1-0.361C43.721,8.436,43.548,8.486,43.51,8.593z"/>
<path fill="#542619" d="M46.657,8.474c0.011,0.171,0.083,0.265,0.186,0.279c0.236,0.032,0.352-0.089,0.384-0.166
	c0.044-0.108-0.005-0.26-0.263-0.325C46.803,8.22,46.649,8.348,46.657,8.474z"/>
<path fill="#542619" d="M45.34,7.499c-0.083,0.088-0.097,0.17-0.054,0.23c0.097,0.137,0.215,0.139,0.271,0.118
	c0.077-0.029,0.131-0.128,0.041-0.292C45.541,7.453,45.401,7.434,45.34,7.499z"/>
<path fill="#542619" d="M46.353,10.072c-0.083,0.088-0.097,0.17-0.054,0.23c0.097,0.137,0.215,0.139,0.271,0.118
	c0.077-0.029,0.131-0.128,0.041-0.292C46.554,10.026,46.414,10.007,46.353,10.072z"/>
<path fill="#542619" d="M54.507,12.119c0.111,0.106,0.215,0.125,0.292,0.071c0.175-0.123,0.179-0.273,0.152-0.343
	c-0.037-0.098-0.161-0.168-0.371-0.055C54.449,11.863,54.425,12.041,54.507,12.119z"/>
<path fill="#542619" d="M55.415,11.083c0.011,0.171,0.083,0.265,0.186,0.279c0.236,0.032,0.352-0.089,0.384-0.166
	c0.044-0.108-0.005-0.26-0.263-0.325C55.561,10.83,55.407,10.957,55.415,11.083z"/>
<path fill="#542619" d="M55.593,12.245c-0.083,0.088-0.097,0.17-0.054,0.23c0.097,0.137,0.215,0.139,0.271,0.118
	c0.077-0.029,0.131-0.128,0.041-0.292C55.795,12.198,55.654,12.18,55.593,12.245z"/>
<path fill="#542619" d="M40.365,10.077c0.111,0.106,0.215,0.125,0.292,0.071c0.175-0.123,0.179-0.273,0.152-0.343
	c-0.037-0.098-0.161-0.168-0.371-0.055C40.307,9.821,40.283,9.999,40.365,10.077z"/>
<path fill="#542619" d="M41.273,9.041c0.011,0.171,0.083,0.265,0.186,0.279c0.236,0.032,0.352-0.089,0.384-0.166
	c0.044-0.108-0.005-0.26-0.263-0.325C41.419,8.787,41.265,8.915,41.273,9.041z"/>
<path fill="#542619" d="M41.451,10.202c-0.083,0.088-0.097,0.17-0.054,0.23c0.097,0.137,0.215,0.139,0.271,0.118
	c0.077-0.029,0.131-0.128,0.041-0.292C41.653,10.156,41.512,10.138,41.451,10.202z"/>
</svg>
