<?xml version="1.0" encoding="utf-8"?>
<!-- Generator: Adobe Illustrator 17.0.0, SVG Export Plug-In . SVG Version: 6.00 Build 0)  -->
<!DOCTYPE svg PUBLIC "-//W3C//DTD SVG 1.1//EN" "http://www.w3.org/Graphics/SVG/1.1/DTD/svg11.dtd">
<svg version="1.1" id="Layer_1" xmlns="http://www.w3.org/2000/svg" xmlns:xlink="http://www.w3.org/1999/xlink" x="0px" y="0px"
	 width="86.834px" height="36.701px" viewBox="0 0 86.834 36.701" enable-background="new 0 0 86.834 36.701" xml:space="preserve">
<g>
	
		<image overflow="visible" opacity="0.25" width="85" height="74" xlink:href="986C846437175A50.png"  transform="matrix(0.48 0 0 0.48 46.0336 0)">
	</image>
	<g>
		<path fill="#CECCCC" d="M71.462,16.997c-0.905-1.722-4.691-2.243-6.368-1.895c-1.7,0.353-5.097,2.17-3.753,3.808
			c1.392,1.696,5.258,1.424,6.932,0.929C69.413,19.502,72.108,18.227,71.462,16.997z"/>
	</g>
</g>
<g>
	
		<image overflow="visible" opacity="0.25" width="86" height="74" xlink:href="986C846437175A51.png"  transform="matrix(0.48 0 0 0.48 0 1.1814)">
	</image>
	<g>
		<path fill="#CECCCC" d="M15.028,18.47c0.52,1.874,3.96,2.832,5.673,2.846c1.737,0.014,6.236-1.086,5.269-2.971
			c-1.001-1.952-4.978-2.268-6.719-2.138C18.065,16.295,14.657,17.132,15.028,18.47z"/>
	</g>
</g>
</svg>
