<?xml version="1.0" encoding="utf-8"?>
<!-- Generator: Adobe Illustrator 17.0.0, SVG Export Plug-In . SVG Version: 6.00 Build 0)  -->
<!DOCTYPE svg PUBLIC "-//W3C//DTD SVG 1.1//EN" "http://www.w3.org/Graphics/SVG/1.1/DTD/svg11.dtd">
<svg version="1.1" id="Layer_1" xmlns="http://www.w3.org/2000/svg" xmlns:xlink="http://www.w3.org/1999/xlink" x="0px" y="0px"
	 width="103.67px" height="23.791px" viewBox="0 0 103.67 23.791" enable-background="new 0 0 103.67 23.791" xml:space="preserve">
<path fill="#E1E31A" d="M86.526,2.208c0,0,4.202-3.314,8.638-1.127c3.515,1.733,8.505,5.2,8.505,10.467
	c0,6.299-6.159,10.154-9.2,11.575c-2.808,1.312-6.156,0.486-7.81-0.7L86.526,2.208z"/>
<path fill="#E1E31A" d="M17.143,1.874c0,0-4.202-3.314-8.638-1.127C4.99,2.479,0,5.947,0,11.213c0,6.299,6.159,10.154,9.2,11.575
	c2.808,1.312,6.156,0.486,7.81-0.7L17.143,1.874z"/>
</svg>
