<?xml version="1.0" encoding="utf-8"?>
<!-- Generator: Adobe Illustrator 17.0.0, SVG Export Plug-In . SVG Version: 6.00 Build 0)  -->
<!DOCTYPE svg PUBLIC "-//W3C//DTD SVG 1.1//EN" "http://www.w3.org/Graphics/SVG/1.1/DTD/svg11.dtd">
<svg version="1.1" id="Layer_1" xmlns="http://www.w3.org/2000/svg" xmlns:xlink="http://www.w3.org/1999/xlink" x="0px" y="0px"
	 width="96.094px" height="41.353px" viewBox="0 0 96.094 41.353" enable-background="new 0 0 96.094 41.353" xml:space="preserve">
<linearGradient id="SVGID_1_" gradientUnits="userSpaceOnUse" x1="-1318.1809" y1="907.8622" x2="-1314.4333" y2="907.9232" gradientTransform="matrix(0.9819 -0.1896 0.1896 0.9819 1209.9032 -1131.7266)">
	<stop  offset="0.0361" style="stop-color:#270000"/>
	<stop  offset="0.1236" style="stop-color:#300000"/>
	<stop  offset="0.2749" style="stop-color:#3F0300"/>
	<stop  offset="0.4718" style="stop-color:#501706"/>
	<stop  offset="0.7068" style="stop-color:#5D281F"/>
	<stop  offset="0.9714" style="stop-color:#5E3935"/>
	<stop  offset="1" style="stop-color:#5D3B38"/>
</linearGradient>
<path fill="url(#SVGID_1_)" d="M86.688,3.155c0.602,0.744,0.99,2.564,1.291,2.999c0.377,0.545,1.357,1.03,1.886,2.127
	c0.603,1.253,0.882,4.136,1.282,5.635c0.097,0.363,1.134,1.999,1.104,1.625c-0.231-2.873-0.415-6.776-1.644-8.748
	C90.18,6.11,86.181,2.528,86.688,3.155z"/>
<linearGradient id="SVGID_2_" gradientUnits="userSpaceOnUse" x1="-1318.6923" y1="906.7228" x2="-1313.1818" y2="906.7228" gradientTransform="matrix(0.9819 -0.1896 0.1896 0.9819 1209.9032 -1131.7266)">
	<stop  offset="0.0361" style="stop-color:#173F1D"/>
	<stop  offset="0.1647" style="stop-color:#194621"/>
	<stop  offset="0.387" style="stop-color:#1E582B"/>
	<stop  offset="0.6761" style="stop-color:#217A3A"/>
	<stop  offset="1" style="stop-color:#0BAA4B"/>
</linearGradient>
<path fill="url(#SVGID_2_)" d="M85.601,0.328c0.929-0.439,4.127,2.179,4.777,2.975c0.924,1.129,1.387,2.115,1.873,3.491
	c0.654,1.852,0.948,5.875,0.888,8.935c-0.012,0.587-0.535,0.281-0.889-0.187c-1.058-1.399-1.557-5.523-1.995-7.121
	c-0.259-0.945-2.188-2.956-2.572-3.565C87.378,4.374,85.086,0.572,85.601,0.328z"/>
<linearGradient id="SVGID_3_" gradientUnits="userSpaceOnUse" x1="1042.8484" y1="-777.1385" x2="1050.9087" y2="-777.1385" gradientTransform="matrix(0.9868 0.1617 -0.1567 0.9566 -1150.465 602.1886)">
	<stop  offset="0.0361" style="stop-color:#270000"/>
	<stop  offset="0.1236" style="stop-color:#300000"/>
	<stop  offset="0.2749" style="stop-color:#3F0300"/>
	<stop  offset="0.4718" style="stop-color:#501706"/>
	<stop  offset="0.7068" style="stop-color:#5D281F"/>
	<stop  offset="0.9714" style="stop-color:#5E3935"/>
	<stop  offset="1" style="stop-color:#5D3B38"/>
</linearGradient>
<path fill="url(#SVGID_3_)" d="M6.394,37.611C5.692,37.746,4.458,36.568,4.039,36c-0.576-0.782-0.981-2.733-1.112-3.683
	c-0.472-3.421-3.258-13.442,0.272-13.783c2.013-0.195,1.413,5.751,1.905,7.664c0.542,2.108,2.051,6.255,2.233,8.417
	c0.043,0.517-0.149,1.561-0.335,2.046C6.9,36.922,6.677,37.556,6.394,37.611z"/>
<linearGradient id="SVGID_4_" gradientUnits="userSpaceOnUse" x1="1042.5378" y1="-962.1241" x2="1047.5801" y2="-963.8901" gradientTransform="matrix(0.9868 0.1617 -0.1617 0.9868 -1184.2993 808.736)">
	<stop  offset="0.0361" style="stop-color:#173F1D"/>
	<stop  offset="0.1647" style="stop-color:#194621"/>
	<stop  offset="0.387" style="stop-color:#1E582B"/>
	<stop  offset="0.6761" style="stop-color:#217A3A"/>
	<stop  offset="1" style="stop-color:#0BAA4B"/>
</linearGradient>
<path fill="url(#SVGID_4_)" d="M1.437,19.561c-0.386,0.63-0.985,2.524-1.182,3.236c-0.705,2.55,0.199,8.063,0.934,10.605
	c0.41,1.417,1.115,3.322,2.569,3.071c0.483-0.084,0.69-0.388,0.515-0.846c-0.933-2.448-1.158-3.311-1.581-5.08
	c-0.821-3.435-0.717-6.249-0.407-8.437c0.336-2.375,1.571-3.315,1.484-4.029C3.672,17.282,1.857,18.876,1.437,19.561z"/>
<linearGradient id="SVGID_5_" gradientUnits="userSpaceOnUse" x1="-1328.6603" y1="923.092" x2="-1315.811" y2="923.092" gradientTransform="matrix(0.9819 -0.1896 0.1896 0.9819 1209.9032 -1131.7266)">
	<stop  offset="0.0361" style="stop-color:#173F1D"/>
	<stop  offset="0.1647" style="stop-color:#194621"/>
	<stop  offset="0.387" style="stop-color:#1E582B"/>
	<stop  offset="0.6761" style="stop-color:#217A3A"/>
	<stop  offset="1" style="stop-color:#0BAA4B"/>
</linearGradient>
<path fill="url(#SVGID_5_)" d="M90.663,13.626c-0.908-0.587-4.273-1.514-4.781-1.367c-0.647,0.187-2.772,2.193-3.185,3.253
	c-0.838,2.151-1.057,14.241-1.063,15.957c-0.007,1.831,0.795,6.266,1.389,7.193c0.44,0.685,4.372,0.079,4.314-0.733
	c-0.009-0.128-1.228-9.611-0.966-12.839C86.587,22.42,92.913,15.08,90.663,13.626z"/>
<linearGradient id="SVGID_6_" gradientUnits="userSpaceOnUse" x1="-1324.9834" y1="923.0538" x2="-1314.2389" y2="923.0538" gradientTransform="matrix(0.9819 -0.1896 0.1896 0.9819 1209.9032 -1131.7266)">
	<stop  offset="0.0361" style="stop-color:#173F1D"/>
	<stop  offset="0.1647" style="stop-color:#194621"/>
	<stop  offset="0.387" style="stop-color:#1E582B"/>
	<stop  offset="0.6761" style="stop-color:#217A3A"/>
	<stop  offset="1" style="stop-color:#0BAA4B"/>
</linearGradient>
<path fill="url(#SVGID_6_)" d="M91.839,13.912c-0.739-0.64-3.022-1.807-3.706-1.504c-1,0.443-2.539,9.734-2.727,12.224
	c-0.246,3.271,0.261,12.354,1.04,12.871c0.485,0.323,1.76,0.168,2.33,0.047c0.657-0.138,2.021-0.604,2.434-1.133
	c0.404-0.518,0.496-1.925,0.496-2.583c-0.001-1.384-0.995-4.052-1.05-5.435c-0.103-2.598,2.336-8.789,2.489-11.385
	C93.208,15.979,92.623,14.592,91.839,13.912z"/>
<linearGradient id="SVGID_7_" gradientUnits="userSpaceOnUse" x1="-1319.7699" y1="924.0052" x2="-1314.1661" y2="924.0052" gradientTransform="matrix(0.9819 -0.1896 0.1896 0.9819 1209.9032 -1131.7266)">
	<stop  offset="0.0361" style="stop-color:#270000"/>
	<stop  offset="0.1236" style="stop-color:#300000"/>
	<stop  offset="0.2749" style="stop-color:#3F0300"/>
	<stop  offset="0.4718" style="stop-color:#501706"/>
	<stop  offset="0.7068" style="stop-color:#5D281F"/>
	<stop  offset="0.9714" style="stop-color:#5E3935"/>
	<stop  offset="1" style="stop-color:#5D3B38"/>
</linearGradient>
<path fill="url(#SVGID_7_)" d="M93.75,34.325c-0.239,0.329-1.757,0.718-2.094,0.49c-1.113-0.752-1.289-3.97-1.457-5.303
	c-0.195-1.548-0.168-5.162-0.037-6.716c0.134-1.598,0.502-7.027,2.089-7.255c0.382-0.055,0.827,0.236,0.896,0.616
	c0.266,1.445-0.462,6.455-0.43,7.923c0.03,1.382,0.21,4.022,0.427,5.387C93.335,30.677,94.468,33.335,93.75,34.325z"/>
<linearGradient id="SVGID_8_" gradientUnits="userSpaceOnUse" x1="-1317.6526" y1="923.8245" x2="-1312.5603" y2="923.8245" gradientTransform="matrix(0.9819 -0.1896 0.1896 0.9819 1209.9032 -1131.7266)">
	<stop  offset="0.0361" style="stop-color:#173F1D"/>
	<stop  offset="0.1647" style="stop-color:#194621"/>
	<stop  offset="0.387" style="stop-color:#1E582B"/>
	<stop  offset="0.6761" style="stop-color:#217A3A"/>
	<stop  offset="1" style="stop-color:#0BAA4B"/>
</linearGradient>
<path fill="url(#SVGID_8_)" d="M93.449,34.535c0.588,0.165,1.647-1.291,1.898-1.847c0.562-1.244,0.737-4.449,0.746-5.813
	c0.018-2.657-0.407-8.016-1.563-10.408c-0.216-0.447-0.956-1.537-1.428-1.382c0,0-0.654,3.072-0.698,4.114
	c-0.08,1.922-0.114,5.331-0.077,7.254c0.024,1.214,0.417,4.053,0.505,5.264C92.881,32.366,92.822,34.359,93.449,34.535z"/>
<linearGradient id="SVGID_9_" gradientUnits="userSpaceOnUse" x1="-12255.4688" y1="-1202.5341" x2="-12250.8379" y2="-1202.4587" gradientTransform="matrix(-0.9819 -0.1896 -0.1896 0.9819 -12250.1543 -1131.7266)">
	<stop  offset="0.0361" style="stop-color:#270000"/>
	<stop  offset="0.1236" style="stop-color:#300000"/>
	<stop  offset="0.2749" style="stop-color:#3F0300"/>
	<stop  offset="0.4718" style="stop-color:#501706"/>
	<stop  offset="0.7068" style="stop-color:#5D281F"/>
	<stop  offset="0.9714" style="stop-color:#5E3935"/>
	<stop  offset="1" style="stop-color:#5D3B38"/>
</linearGradient>
<path fill="url(#SVGID_9_)" d="M12.355,3.553c-0.744,0.92-1.224,3.168-1.596,3.706c-0.466,0.673-1.677,1.273-2.33,2.628
	c-0.746,1.548-1.089,5.111-1.583,6.963c-0.12,0.448-1.401,2.47-1.364,2.008c0.286-3.55,0.513-8.373,2.031-10.809
	C8.04,7.204,12.981,2.779,12.355,3.553z"/>
<linearGradient id="SVGID_10_" gradientUnits="userSpaceOnUse" x1="-12256.1006" y1="-1203.9419" x2="-12249.292" y2="-1203.9419" gradientTransform="matrix(-0.9819 -0.1896 -0.1896 0.9819 -12250.1543 -1131.7266)">
	<stop  offset="0.0361" style="stop-color:#173F1D"/>
	<stop  offset="0.1647" style="stop-color:#194621"/>
	<stop  offset="0.387" style="stop-color:#1E582B"/>
	<stop  offset="0.6761" style="stop-color:#217A3A"/>
	<stop  offset="1" style="stop-color:#0BAA4B"/>
</linearGradient>
<path fill="url(#SVGID_10_)" d="M13.697,0.061C12.55-0.481,8.598,2.754,7.795,3.736C6.654,5.132,6.081,6.35,5.48,8.049
	c-0.808,2.288-1.171,7.259-1.097,11.04c0.014,0.725,0.661,0.347,1.098-0.231c1.307-1.729,1.923-6.825,2.465-8.799
	c0.321-1.168,2.703-3.653,3.178-4.405C11.501,5.06,14.334,0.361,13.697,0.061z"/>
<linearGradient id="SVGID_11_" gradientUnits="userSpaceOnUse" x1="1049.9019" y1="-964.0602" x2="1057.4382" y2="-966.6998" gradientTransform="matrix(0.9868 0.1617 -0.1617 0.9868 -1184.2993 808.736)">
	<stop  offset="0.0361" style="stop-color:#173F1D"/>
	<stop  offset="0.1647" style="stop-color:#194621"/>
	<stop  offset="0.387" style="stop-color:#1E582B"/>
	<stop  offset="0.6761" style="stop-color:#217A3A"/>
	<stop  offset="1" style="stop-color:#0BAA4B"/>
</linearGradient>
<path fill="url(#SVGID_11_)" d="M13.099,38.964c0.792-0.218,1.849-1.634,2.514-2.116c0.383-0.278,1.436-0.56,1.608-1.001
	c0.183-0.467-0.991-4.064-1.394-5.459c-0.546-1.887-1.688-5.586-2.226-7.476c-0.652-2.29-0.969-9.591-1.744-9.433
	c-0.711,0.144-1.776,0.902-2.446,1.178c-0.463,0.191-1.595,0.451-1.942,0.811c-0.463,0.482-0.409,1.97-0.432,2.638
	c-0.099,2.9,0.435,8.727,1.087,11.554c0.542,2.353,1.527,7.511,3.394,9.043C11.826,38.959,12.712,39.07,13.099,38.964z"/>
<linearGradient id="SVGID_12_" gradientUnits="userSpaceOnUse" x1="1047.3414" y1="-960.9721" x2="1053.7341" y2="-963.2112" gradientTransform="matrix(0.9868 0.1617 -0.1617 0.9868 -1184.2993 808.736)">
	<stop  offset="0.0361" style="stop-color:#173F1D"/>
	<stop  offset="0.1647" style="stop-color:#194621"/>
	<stop  offset="0.387" style="stop-color:#1E582B"/>
	<stop  offset="0.6761" style="stop-color:#217A3A"/>
	<stop  offset="1" style="stop-color:#0BAA4B"/>
</linearGradient>
<path fill="url(#SVGID_12_)" d="M5.509,16.955c-0.945,0.112-1.476,0.236-1.727,0.62c-0.219,0.336-0.241,1.182-0.259,1.583
	c-0.008,0.173,0.036,0.519,0.049,0.692c0.11,1.562,0.206,4.701,0.439,6.25c0.453,3.002,1.503,9.063,2.757,11.828
	c0.208,0.459,0.954,2.839,1.35,3.15c0.79,0.622,2.546-0.004,3.551,0c0.52,0.002,1.357-0.825,1.507-1.322
	c0.193-0.64-0.512-1.218-0.813-1.814c-1.247-2.471-3.636-7.456-4.348-10.182c-0.671-2.568,0.511-8.361-0.993-10.539
	C6.805,16.903,6.207,16.872,5.509,16.955z"/>
</svg>
