<?xml version="1.0" encoding="utf-8"?>
<!-- Generator: Adobe Illustrator 17.0.0, SVG Export Plug-In . SVG Version: 6.00 Build 0)  -->
<!DOCTYPE svg PUBLIC "-//W3C//DTD SVG 1.1//EN" "http://www.w3.org/Graphics/SVG/1.1/DTD/svg11.dtd">
<svg version="1.1" id="Layer_1" xmlns="http://www.w3.org/2000/svg" xmlns:xlink="http://www.w3.org/1999/xlink" x="0px" y="0px"
	 width="99.147px" height="12.571px" viewBox="0 0 99.147 12.571" enable-background="new 0 0 99.147 12.571" xml:space="preserve">
<path fill="#E1E31A" d="M14.949,0.986c0,0-3.059-0.986-7.475-0.986C4.239,0,0,2.545,0,6.26c0,4.442,4.454,6.221,8.065,6.259
	c3.097,0.033,4.441-0.519,6.928-2.176L14.949,0.986z"/>
<path fill="#E1E31A" d="M84.198,1.037c0,0,3.059-0.986,7.475-0.986c3.236,0,7.475,2.545,7.475,6.26c0,4.442-4.454,6.221-8.065,6.259
	c-3.097,0.033-4.441-0.519-6.928-2.176L84.198,1.037z"/>
<g>
	<path fill="#6FBF44" d="M8.111,4.131c1.008,0.783,2.616,2.504,2.194,3.922c-0.422-0.038-1.253,0.15-1.304,0.652
		c-0.057,0.567,0.951,0.254,1.373,0.139c0.153,0.958-1.871,1.127-2.293,0.513C7.468,8.513,8.196,7.401,9.155,7.325
		c0.077-1.419-2.454-4.601-4.064-4.294C5.091,3.031,5.827,2.357,8.111,4.131z"/>
</g>
<g>
	<path fill="#6FBF44" d="M91.18,4.182c-1.008,0.783-2.616,2.504-2.194,3.922c0.422-0.038,1.253,0.15,1.304,0.652
		c0.057,0.567-0.951,0.254-1.373,0.139c-0.153,0.958,1.871,1.127,2.293,0.513c0.613-0.843-0.115-1.955-1.074-2.032
		C90.06,5.957,92.59,2.775,94.2,3.082C94.2,3.082,93.464,2.408,91.18,4.182z"/>
</g>
</svg>
