<?xml version="1.0" encoding="utf-8"?>
<!-- Generator: Adobe Illustrator 17.0.0, SVG Export Plug-In . SVG Version: 6.00 Build 0)  -->
<!DOCTYPE svg PUBLIC "-//W3C//DTD SVG 1.1//EN" "http://www.w3.org/Graphics/SVG/1.1/DTD/svg11.dtd">
<svg version="1.1" id="Layer_1" xmlns="http://www.w3.org/2000/svg" xmlns:xlink="http://www.w3.org/1999/xlink" x="0px" y="0px"
	 width="108.756px" height="30.162px" viewBox="0 0 108.756 30.162" enable-background="new 0 0 108.756 30.162"
	 xml:space="preserve">
<g>
	
		<image overflow="visible" opacity="0.1" width="58" height="62" xlink:href="2F8F9A64F785DFCF.png"  transform="matrix(0.48 0 0 0.48 0 0.4018)">
	</image>
	<g>
		<path fill="#B1DDCE" d="M21.494,9.875c0,0-5.729-3.888-7.815-3.437C10.868,7.046,6.034,12.129,6,15.005
			c-0.035,2.981,4.879,8.252,7.747,9.066c1.957,0.556,7.747-2.485,7.747-2.485V9.875z"/>
	</g>
</g>
<g>
	
		<image overflow="visible" opacity="0.1" width="58" height="62" xlink:href="2F8F9A64F785DFCD.png"  transform="matrix(0.48 0 0 0.48 80.9164 0)">
	</image>
	<g>
		<path fill="#B1DDCE" d="M86.916,9.474c0,0,5.729-3.888,7.815-3.437c2.811,0.607,7.645,5.691,7.679,8.567
			c0.035,2.981-4.879,8.252-7.747,9.066c-1.957,0.556-7.747-2.485-7.747-2.485V9.474z"/>
	</g>
</g>
<linearGradient id="SVGID_1_" gradientUnits="userSpaceOnUse" x1="10.1097" y1="14.8685" x2="18.9206" y2="14.8685">
	<stop  offset="0.0597" style="stop-color:#DFD4C2"/>
	<stop  offset="0.2058" style="stop-color:#DCCABB"/>
	<stop  offset="0.493" style="stop-color:#D9B0AA"/>
	<stop  offset="0.8901" style="stop-color:#D5858F"/>
	<stop  offset="1" style="stop-color:#D47988"/>
</linearGradient>
<path fill="url(#SVGID_1_)" d="M18.038,12.44c-0.584-1.105-3.065-2.808-4.291-2.565c-1.542,0.306-3.692,3.558-3.636,5.129
	c0.055,1.56,2.448,4.451,3.964,4.825c1.275,0.315,4.554-0.758,4.84-2.04c0.079-0.352-0.67-0.867-0.966-1.074
	c-0.356-0.248-1.348-0.299-1.611-0.644c-0.294-0.387-0.517-1.552-0.215-1.933c0.286-0.36,1.51,0.119,1.825-0.215
	C18.204,13.654,18.212,12.769,18.038,12.44z"/>
<linearGradient id="SVGID_2_" gradientUnits="userSpaceOnUse" x1="-5218.2842" y1="14.4667" x2="-5209.4736" y2="14.4667" gradientTransform="matrix(-1 0 0 1 -5119.9834 0)">
	<stop  offset="0.0597" style="stop-color:#DFD4C2"/>
	<stop  offset="0.2058" style="stop-color:#DCCABB"/>
	<stop  offset="0.493" style="stop-color:#D9B0AA"/>
	<stop  offset="0.8901" style="stop-color:#D5858F"/>
	<stop  offset="1" style="stop-color:#D47988"/>
</linearGradient>
<path fill="url(#SVGID_2_)" d="M90.372,12.038c0.584-1.105,3.065-2.808,4.291-2.565c1.542,0.306,3.692,3.558,3.636,5.129
	c-0.055,1.56-2.448,4.451-3.964,4.825c-1.275,0.315-4.554-0.758-4.84-2.04c-0.079-0.352,0.67-0.867,0.966-1.074
	c0.356-0.248,1.348-0.299,1.611-0.644c0.294-0.387,0.517-1.552,0.215-1.933c-0.286-0.36-1.51,0.119-1.825-0.215
	C90.207,13.252,90.199,12.367,90.372,12.038z"/>
</svg>
