<?xml version="1.0" encoding="utf-8"?>
<!-- Generator: Adobe Illustrator 17.0.0, SVG Export Plug-In . SVG Version: 6.00 Build 0)  -->
<!DOCTYPE svg PUBLIC "-//W3C//DTD SVG 1.1//EN" "http://www.w3.org/Graphics/SVG/1.1/DTD/svg11.dtd">
<svg version="1.1" id="Layer_1" xmlns="http://www.w3.org/2000/svg" xmlns:xlink="http://www.w3.org/1999/xlink" x="0px" y="0px"
	 width="108.154px" height="53.396px" viewBox="0 0 108.154 53.396" enable-background="new 0 0 108.154 53.396"
	 xml:space="preserve">
<g>
	
		<image overflow="visible" opacity="0.1" width="37" height="52" xlink:href="ED92A8EDBFB20669.png"  transform="matrix(0.48 0 0 0.48 86.6433 3.0816)">
	</image>
	<g>
		
			<linearGradient id="SVGID_1_" gradientUnits="userSpaceOnUse" x1="-1307.2933" y1="903.7575" x2="-1303.5457" y2="903.8184" gradientTransform="matrix(0.9819 -0.1896 0.1896 0.9819 1205.9916 -1119.6316)">
			<stop  offset="0.0361" style="stop-color:#270000"/>
			<stop  offset="0.1236" style="stop-color:#300000"/>
			<stop  offset="0.2749" style="stop-color:#3F0300"/>
			<stop  offset="0.4718" style="stop-color:#501706"/>
			<stop  offset="0.7068" style="stop-color:#5D281F"/>
			<stop  offset="0.9714" style="stop-color:#5E3935"/>
			<stop  offset="1" style="stop-color:#5D3B38"/>
		</linearGradient>
		<path fill="url(#SVGID_1_)" d="M92.688,9.155c0.602,0.744,0.99,2.564,1.291,2.999c0.377,0.545,1.357,1.03,1.886,2.127
			c0.603,1.253,0.882,4.136,1.282,5.635c0.097,0.363,1.134,1.999,1.104,1.625c-0.231-2.873-0.415-6.776-1.644-8.748
			C96.18,12.11,92.181,8.528,92.688,9.155z"/>
	</g>
</g>
<g>
	
		<image overflow="visible" opacity="0.1" width="41" height="58" xlink:href="ED92A8EDBFB2066B.png"  transform="matrix(0.48 0 0 0.48 85.5262 0.279)">
	</image>
	<g>
		
			<linearGradient id="SVGID_2_" gradientUnits="userSpaceOnUse" x1="-1307.8047" y1="902.618" x2="-1302.2942" y2="902.618" gradientTransform="matrix(0.9819 -0.1896 0.1896 0.9819 1205.9916 -1119.6316)">
			<stop  offset="0.0361" style="stop-color:#173F1D"/>
			<stop  offset="0.1647" style="stop-color:#194621"/>
			<stop  offset="0.387" style="stop-color:#1E582B"/>
			<stop  offset="0.6761" style="stop-color:#217A3A"/>
			<stop  offset="1" style="stop-color:#0BAA4B"/>
		</linearGradient>
		<path fill="url(#SVGID_2_)" d="M91.601,6.328c0.929-0.439,4.127,2.179,4.777,2.975c0.924,1.129,1.387,2.115,1.873,3.491
			c0.654,1.852,0.948,5.875,0.888,8.935c-0.012,0.587-0.535,0.281-0.889-0.187c-1.058-1.399-1.557-5.523-1.995-7.121
			c-0.259-0.945-2.188-2.956-2.572-3.565C93.378,10.374,91.086,6.572,91.601,6.328z"/>
	</g>
</g>
<g>
	
		<image overflow="visible" opacity="0.1" width="38" height="65" xlink:href="ED92A8EDBFB2066E.png"  transform="matrix(0.48 0 0 0.48 1.437 18.5286)">
	</image>
	<g>
		
			<linearGradient id="SVGID_3_" gradientUnits="userSpaceOnUse" x1="1046.2629" y1="-762.295" x2="1054.3234" y2="-762.295" gradientTransform="matrix(0.9868 0.1617 -0.1567 0.9566 -1145.5088 593.4374)">
			<stop  offset="0.0361" style="stop-color:#270000"/>
			<stop  offset="0.1236" style="stop-color:#300000"/>
			<stop  offset="0.2749" style="stop-color:#3F0300"/>
			<stop  offset="0.4718" style="stop-color:#501706"/>
			<stop  offset="0.7068" style="stop-color:#5D281F"/>
			<stop  offset="0.9714" style="stop-color:#5E3935"/>
			<stop  offset="1" style="stop-color:#5D3B38"/>
		</linearGradient>
		<path fill="url(#SVGID_3_)" d="M12.394,43.611c-0.702,0.135-1.935-1.042-2.354-1.611c-0.576-0.782-0.981-2.733-1.112-3.683
			c-0.472-3.421-3.258-13.442,0.272-13.783c2.013-0.195,1.413,5.751,1.905,7.664c0.542,2.108,2.051,6.255,2.233,8.417
			c0.043,0.517-0.149,1.561-0.335,2.046C12.9,42.922,12.677,43.556,12.394,43.611z"/>
	</g>
</g>
<g>
	
		<image overflow="visible" opacity="0.1" width="35" height="64" xlink:href="ED92A8EDBFB2066F.png"  transform="matrix(0.48 0 0 0.48 0 17.8615)">
	</image>
	<g>
		
			<linearGradient id="SVGID_4_" gradientUnits="userSpaceOnUse" x1="1045.9525" y1="-946.9236" x2="1050.9948" y2="-948.6896" gradientTransform="matrix(0.9868 0.1617 -0.1617 0.9868 -1179.2118 799.1835)">
			<stop  offset="0.0361" style="stop-color:#173F1D"/>
			<stop  offset="0.1647" style="stop-color:#194621"/>
			<stop  offset="0.387" style="stop-color:#1E582B"/>
			<stop  offset="0.6761" style="stop-color:#217A3A"/>
			<stop  offset="1" style="stop-color:#0BAA4B"/>
		</linearGradient>
		<path fill="url(#SVGID_4_)" d="M7.437,25.561c-0.386,0.63-0.985,2.524-1.182,3.236c-0.705,2.55,0.199,8.063,0.934,10.605
			c0.41,1.417,1.115,3.322,2.569,3.071c0.483-0.084,0.69-0.388,0.515-0.846c-0.933-2.448-1.158-3.311-1.581-5.08
			c-0.821-3.435-0.717-6.249-0.407-8.437c0.336-2.375,1.571-3.315,1.484-4.029C9.672,23.282,7.857,24.876,7.437,25.561z"/>
	</g>
</g>
<g>
	
		<image overflow="visible" opacity="0.1" width="45" height="81" xlink:href="ED92A8EDBFB2066A.png"  transform="matrix(0.48 0 0 0.48 81.6335 12.2436)">
	</image>
	<g>
		
			<linearGradient id="SVGID_5_" gradientUnits="userSpaceOnUse" x1="-1317.7726" y1="918.9872" x2="-1304.9233" y2="918.9872" gradientTransform="matrix(0.9819 -0.1896 0.1896 0.9819 1205.9916 -1119.6316)">
			<stop  offset="0.0361" style="stop-color:#173F1D"/>
			<stop  offset="0.1647" style="stop-color:#194621"/>
			<stop  offset="0.387" style="stop-color:#1E582B"/>
			<stop  offset="0.6761" style="stop-color:#217A3A"/>
			<stop  offset="1" style="stop-color:#0BAA4B"/>
		</linearGradient>
		<path fill="url(#SVGID_5_)" d="M96.663,19.626c-0.908-0.587-4.273-1.514-4.781-1.367c-0.647,0.187-2.772,2.193-3.185,3.253
			c-0.838,2.151-1.057,14.241-1.063,15.957c-0.007,1.831,0.795,6.266,1.389,7.193c0.44,0.685,4.372,0.079,4.314-0.733
			c-0.009-0.128-1.228-9.611-0.966-12.839C92.587,28.42,98.913,21.08,96.663,19.626z"/>
	</g>
</g>
<g>
	
		<image overflow="visible" opacity="0.1" width="42" height="78" xlink:href="ED92A8EDBFB20665.png"  transform="matrix(0.48 0 0 0.48 85.3441 12.3593)">
	</image>
	<g>
		
			<linearGradient id="SVGID_6_" gradientUnits="userSpaceOnUse" x1="-1314.0957" y1="918.949" x2="-1303.3513" y2="918.949" gradientTransform="matrix(0.9819 -0.1896 0.1896 0.9819 1205.9916 -1119.6316)">
			<stop  offset="0.0361" style="stop-color:#173F1D"/>
			<stop  offset="0.1647" style="stop-color:#194621"/>
			<stop  offset="0.387" style="stop-color:#1E582B"/>
			<stop  offset="0.6761" style="stop-color:#217A3A"/>
			<stop  offset="1" style="stop-color:#0BAA4B"/>
		</linearGradient>
		<path fill="url(#SVGID_6_)" d="M97.839,19.912c-0.739-0.64-3.022-1.807-3.706-1.504c-1,0.443-2.539,9.734-2.727,12.224
			c-0.246,3.271,0.261,12.354,1.04,12.871c0.485,0.323,1.76,0.168,2.33,0.047c0.657-0.138,2.021-0.604,2.434-1.133
			c0.404-0.518,0.496-1.925,0.496-2.583c-0.001-1.384-0.995-4.052-1.05-5.435c-0.103-2.598,2.336-8.789,2.489-11.385
			C99.208,21.979,98.623,20.592,97.839,19.912z"/>
	</g>
</g>
<g>
	
		<image overflow="visible" opacity="0.1" width="34" height="66" xlink:href="ED92A8EDBFB20666.png"  transform="matrix(0.48 0 0 0.48 90.0576 15.5351)">
	</image>
	<g>
		
			<linearGradient id="SVGID_7_" gradientUnits="userSpaceOnUse" x1="-1308.8822" y1="919.9005" x2="-1303.2786" y2="919.9005" gradientTransform="matrix(0.9819 -0.1896 0.1896 0.9819 1205.9916 -1119.6316)">
			<stop  offset="0.0361" style="stop-color:#270000"/>
			<stop  offset="0.1236" style="stop-color:#300000"/>
			<stop  offset="0.2749" style="stop-color:#3F0300"/>
			<stop  offset="0.4718" style="stop-color:#501706"/>
			<stop  offset="0.7068" style="stop-color:#5D281F"/>
			<stop  offset="0.9714" style="stop-color:#5E3935"/>
			<stop  offset="1" style="stop-color:#5D3B38"/>
		</linearGradient>
		<path fill="url(#SVGID_7_)" d="M99.75,40.325c-0.239,0.329-1.757,0.718-2.094,0.49c-1.113-0.752-1.289-3.97-1.457-5.303
			c-0.195-1.548-0.168-5.162-0.037-6.716c0.134-1.598,0.502-7.027,2.089-7.255c0.382-0.055,0.827,0.236,0.896,0.616
			c0.266,1.445-0.462,6.455-0.43,7.923c0.03,1.382,0.21,4.022,0.427,5.387C99.335,36.677,100.468,39.335,99.75,40.325z"/>
	</g>
</g>
<g>
	
		<image overflow="visible" opacity="0.1" width="33" height="66" xlink:href="ED92A8EDBFB20667.png"  transform="matrix(0.48 0 0 0.48 92.3139 15.0683)">
	</image>
	<g>
		
			<linearGradient id="SVGID_8_" gradientUnits="userSpaceOnUse" x1="-1306.765" y1="919.7197" x2="-1301.6727" y2="919.7197" gradientTransform="matrix(0.9819 -0.1896 0.1896 0.9819 1205.9916 -1119.6316)">
			<stop  offset="0.0361" style="stop-color:#173F1D"/>
			<stop  offset="0.1647" style="stop-color:#194621"/>
			<stop  offset="0.387" style="stop-color:#1E582B"/>
			<stop  offset="0.6761" style="stop-color:#217A3A"/>
			<stop  offset="1" style="stop-color:#0BAA4B"/>
		</linearGradient>
		<path fill="url(#SVGID_8_)" d="M99.449,40.535c0.588,0.165,1.647-1.291,1.898-1.847c0.562-1.244,0.737-4.449,0.746-5.813
			c0.018-2.657-0.407-8.016-1.563-10.408c-0.216-0.447-0.956-1.537-1.428-1.382c0,0-0.654,3.072-0.698,4.114
			c-0.08,1.922-0.114,5.331-0.077,7.254c0.024,1.214,0.417,4.053,0.505,5.264C98.881,38.366,98.822,40.359,99.449,40.535z"/>
	</g>
</g>
<g>
	
		<image overflow="visible" opacity="0.1" width="40" height="58" xlink:href="ED92A8EDBFB20679.png"  transform="matrix(0.48 0 0 0.48 5.4811 3.4628)">
	</image>
	<g>
		
			<linearGradient id="SVGID_9_" gradientUnits="userSpaceOnUse" x1="-12136.0908" y1="-1185.6857" x2="-12131.4609" y2="-1185.6105" gradientTransform="matrix(-0.9819 -0.1896 -0.1896 0.9819 -12123.7471 -1119.6316)">
			<stop  offset="0.0361" style="stop-color:#270000"/>
			<stop  offset="0.1236" style="stop-color:#300000"/>
			<stop  offset="0.2749" style="stop-color:#3F0300"/>
			<stop  offset="0.4718" style="stop-color:#501706"/>
			<stop  offset="0.7068" style="stop-color:#5D281F"/>
			<stop  offset="0.9714" style="stop-color:#5E3935"/>
			<stop  offset="1" style="stop-color:#5D3B38"/>
		</linearGradient>
		<path fill="url(#SVGID_9_)" d="M18.355,9.553c-0.744,0.92-1.224,3.168-1.596,3.706c-0.466,0.673-1.677,1.273-2.33,2.628
			c-0.746,1.548-1.089,5.111-1.583,6.963c-0.12,0.448-1.401,2.47-1.364,2.008c0.286-3.55,0.513-8.373,2.031-10.809
			C14.04,13.204,18.981,8.779,18.355,9.553z"/>
	</g>
</g>
<g>
	
		<image overflow="visible" opacity="0.1" width="45" height="66" xlink:href="56326A5CB4BAED32.png"  transform="matrix(0.48 0 0 0.48 4.3742 0)">
	</image>
	<g>
		
			<linearGradient id="SVGID_10_" gradientUnits="userSpaceOnUse" x1="-12136.7227" y1="-1187.0936" x2="-12129.9141" y2="-1187.0936" gradientTransform="matrix(-0.9819 -0.1896 -0.1896 0.9819 -12123.7471 -1119.6316)">
			<stop  offset="0.0361" style="stop-color:#173F1D"/>
			<stop  offset="0.1647" style="stop-color:#194621"/>
			<stop  offset="0.387" style="stop-color:#1E582B"/>
			<stop  offset="0.6761" style="stop-color:#217A3A"/>
			<stop  offset="1" style="stop-color:#0BAA4B"/>
		</linearGradient>
		<path fill="url(#SVGID_10_)" d="M19.697,6.061c-1.148-0.542-5.099,2.693-5.902,3.675c-1.141,1.396-1.714,2.613-2.315,4.313
			c-0.808,2.288-1.171,7.259-1.097,11.04c0.014,0.725,0.661,0.347,1.098-0.231c1.307-1.729,1.923-6.825,2.465-8.799
			c0.321-1.168,2.703-3.653,3.178-4.405C17.501,11.06,20.334,6.361,19.697,6.061z"/>
	</g>
</g>
<g>
	
		<image overflow="visible" opacity="0.1" width="47" height="79" xlink:href="56326A5CB4BAED35.png"  transform="matrix(0.48 0 0 0.48 7.0234 13.4775)">
	</image>
	<g>
		
			<linearGradient id="SVGID_11_" gradientUnits="userSpaceOnUse" x1="1053.3165" y1="-948.8597" x2="1060.8528" y2="-951.4993" gradientTransform="matrix(0.9868 0.1617 -0.1617 0.9868 -1179.2118 799.1835)">
			<stop  offset="0.0361" style="stop-color:#173F1D"/>
			<stop  offset="0.1647" style="stop-color:#194621"/>
			<stop  offset="0.387" style="stop-color:#1E582B"/>
			<stop  offset="0.6761" style="stop-color:#217A3A"/>
			<stop  offset="1" style="stop-color:#0BAA4B"/>
		</linearGradient>
		<path fill="url(#SVGID_11_)" d="M19.099,44.964c0.792-0.218,1.849-1.634,2.514-2.116c0.383-0.278,1.436-0.56,1.608-1.001
			c0.183-0.467-0.991-4.064-1.394-5.459c-0.546-1.887-1.688-5.586-2.226-7.476c-0.652-2.29-0.969-9.591-1.744-9.433
			c-0.711,0.144-1.776,0.902-2.446,1.178c-0.463,0.191-1.595,0.451-1.942,0.811c-0.463,0.482-0.409,1.97-0.432,2.638
			c-0.099,2.9,0.435,8.727,1.087,11.554c0.542,2.353,1.527,7.511,3.394,9.043C17.826,44.959,18.712,45.07,19.099,44.964z"/>
	</g>
</g>
<g>
	
		<image overflow="visible" opacity="0.1" width="46" height="76" xlink:href="56326A5CB4BAED36.png"  transform="matrix(0.48 0 0 0.48 3.5218 16.9157)">
	</image>
	<g>
		
			<linearGradient id="SVGID_12_" gradientUnits="userSpaceOnUse" x1="1050.756" y1="-945.7717" x2="1057.1488" y2="-948.0107" gradientTransform="matrix(0.9868 0.1617 -0.1617 0.9868 -1179.2118 799.1835)">
			<stop  offset="0.0361" style="stop-color:#173F1D"/>
			<stop  offset="0.1647" style="stop-color:#194621"/>
			<stop  offset="0.387" style="stop-color:#1E582B"/>
			<stop  offset="0.6761" style="stop-color:#217A3A"/>
			<stop  offset="1" style="stop-color:#0BAA4B"/>
		</linearGradient>
		<path fill="url(#SVGID_12_)" d="M11.509,22.955c-0.945,0.112-1.476,0.236-1.727,0.62c-0.219,0.336-0.241,1.182-0.259,1.583
			c-0.008,0.173,0.036,0.519,0.049,0.692c0.11,1.562,0.206,4.701,0.439,6.25c0.453,3.002,1.503,9.063,2.757,11.828
			c0.208,0.459,0.954,2.839,1.35,3.15c0.79,0.622,2.546-0.004,3.551,0c0.52,0.002,1.357-0.825,1.507-1.322
			c0.193-0.64-0.512-1.218-0.813-1.814c-1.247-2.471-3.636-7.456-4.348-10.182c-0.671-2.568,0.511-8.361-0.993-10.539
			C12.805,22.903,12.207,22.872,11.509,22.955z"/>
	</g>
</g>
</svg>
