<?xml version="1.0" encoding="utf-8"?>
<!-- Generator: Adobe Illustrator 17.0.0, SVG Export Plug-In . SVG Version: 6.00 Build 0)  -->
<!DOCTYPE svg PUBLIC "-//W3C//DTD SVG 1.1//EN" "http://www.w3.org/Graphics/SVG/1.1/DTD/svg11.dtd">
<svg version="1.1" id="Layer_1" xmlns="http://www.w3.org/2000/svg" xmlns:xlink="http://www.w3.org/1999/xlink" x="0px" y="0px"
	 width="100.315px" height="18.139px" viewBox="0 0 100.315 18.139" enable-background="new 0 0 100.315 18.139"
	 xml:space="preserve">
<path fill="#E1E31A" d="M15.494,3.875c0,0-5.729-3.888-7.815-3.437C4.868,1.046,0.034,6.129,0,9.005
	c-0.035,2.981,4.879,8.252,7.747,9.066c1.957,0.556,7.747-2.485,7.747-2.485V3.875z"/>
<path fill="#E1E31A" d="M84.82,3.474c0,0,5.729-3.888,7.815-3.437c2.811,0.607,7.645,5.691,7.679,8.567
	c0.035,2.981-4.879,8.252-7.747,9.066c-1.957,0.556-7.747-2.485-7.747-2.485V3.474z"/>
<path fill="#6FBF44" d="M12.038,6.44c-0.584-1.105-3.065-2.808-4.291-2.565C6.205,4.182,4.055,7.434,4.111,9.005
	c0.055,1.56,2.448,4.451,3.964,4.825c1.275,0.315,4.554-0.758,4.84-2.04c0.079-0.352-0.67-0.867-0.966-1.074
	c-0.356-0.248-1.348-0.299-1.61-0.644c-0.294-0.387-0.517-1.552-0.215-1.933c0.286-0.36,1.51,0.119,1.825-0.215
	C12.204,7.654,12.212,6.769,12.038,6.44z"/>
<path fill="#6FBF44" d="M88.276,6.038c0.584-1.105,3.065-2.808,4.291-2.565c1.542,0.306,3.692,3.558,3.636,5.129
	c-0.055,1.56-2.448,4.451-3.964,4.825c-1.275,0.315-4.554-0.758-4.84-2.04c-0.079-0.352,0.67-0.867,0.966-1.074
	c0.356-0.248,1.348-0.299,1.611-0.644c0.294-0.387,0.517-1.552,0.215-1.933c-0.286-0.36-1.51,0.119-1.825-0.215
	C88.111,7.252,88.103,6.367,88.276,6.038z"/>
</svg>
