<?xml version="1.0" encoding="utf-8"?>
<!-- Generator: Adobe Illustrator 17.0.0, SVG Export Plug-In . SVG Version: 6.00 Build 0)  -->
<!DOCTYPE svg PUBLIC "-//W3C//DTD SVG 1.1//EN" "http://www.w3.org/Graphics/SVG/1.1/DTD/svg11.dtd">
<svg version="1.1" id="Layer_1" xmlns="http://www.w3.org/2000/svg" xmlns:xlink="http://www.w3.org/1999/xlink" x="0px" y="0px"
	 width="89.878px" height="19.37px" viewBox="0 0 89.878 19.37" enable-background="new 0 0 89.878 19.37" xml:space="preserve">
<g>
	<path fill="#E1E31A" d="M89.873,7.638c-0.171,4.065-4.25,7.773-9.46,8.892l0.684-16.246C86.249,0.529,90.044,3.573,89.873,7.638z"
		/>
</g>
<g>
	<path fill="#E1E31A" d="M0.028,6.803c0.386,4.083,4.667,8.059,9.945,9.516L8.431,0.002C3.283-0.084-0.358,2.72,0.028,6.803z"/>
</g>
<g>
	<path fill="#6FBF44" d="M87.053,7.756c-0.081,1.924-2.012,3.68-4.479,4.21l0.324-7.691C85.337,4.39,87.134,5.831,87.053,7.756z"/>
</g>
<g>
	<path fill="#6FBF44" d="M2.342,7.696c0.202,2.138,2.444,4.221,5.208,4.984L6.743,4.135C4.047,4.089,2.141,5.558,2.342,7.696z"/>
</g>
<linearGradient id="SVGID_1_" gradientUnits="userSpaceOnUse" x1="3.2001" y1="16.1028" x2="7.274" y2="16.1028">
	<stop  offset="0" style="stop-color:#975A16"/>
	<stop  offset="0.1377" style="stop-color:#A76E1A"/>
	<stop  offset="0.4011" style="stop-color:#C2931D"/>
	<stop  offset="0.6417" style="stop-color:#D7B21B"/>
	<stop  offset="0.8493" style="stop-color:#E4C616"/>
	<stop  offset="1" style="stop-color:#EACE14"/>
</linearGradient>
<path fill="url(#SVGID_1_)" d="M6.896,13.19c-0.105-0.181-0.552-0.326-0.759-0.351c-0.233-0.028-0.583,0.114-0.891,0.301
	c-0.874,0.53-1.753,1.493-1.928,2.247c-0.511,2.206,0.724,3.947,1.937,3.982c0.588,0.017,1.258-0.149,1.743-1.064
	c0.577-1.088,0.068-3.085,0.068-3.085l-1.211-0.654c0,0,0.373,2.034,0.094,2.821c-0.138,0.389-0.335,0.5-0.564,0.498
	c-0.78-0.006-0.8-1.314-0.446-2.335c0.135-0.388,0.715-1.23,1.495-1.759C6.871,13.495,6.992,13.354,6.896,13.19z"/>
<linearGradient id="SVGID_2_" gradientUnits="userSpaceOnUse" x1="5.8257" y1="16.2417" x2="8.8516" y2="16.2417">
	<stop  offset="0" style="stop-color:#67686B"/>
	<stop  offset="0.5759" style="stop-color:#424143"/>
	<stop  offset="1" style="stop-color:#000000"/>
</linearGradient>
<path fill="url(#SVGID_2_)" d="M8.55,14.094c-0.078-0.133-0.407-0.24-0.56-0.259c-0.172-0.021-0.43,0.084-0.657,0.222
	c-0.644,0.391-1.292,1.101-1.421,1.657c-0.376,1.626,0.533,2.91,1.428,2.935c0.433,0.012,0.927-0.11,1.285-0.784
	c0.425-0.802,0.119-1.936,0.119-1.936l-0.891-0.35c0,0,0.203,1.029-0.002,1.609c-0.101,0.286-0.247,0.369-0.416,0.367
	c-0.575-0.004-0.59-0.969-0.329-1.721c0.099-0.286,0.527-0.907,1.102-1.297C8.532,14.319,8.621,14.215,8.55,14.094z"/>
</svg>
