<?xml version="1.0" encoding="utf-8"?>
<!-- Generator: Adobe Illustrator 17.0.0, SVG Export Plug-In . SVG Version: 6.00 Build 0)  -->
<!DOCTYPE svg PUBLIC "-//W3C//DTD SVG 1.1//EN" "http://www.w3.org/Graphics/SVG/1.1/DTD/svg11.dtd">
<svg version="1.1" id="Layer_1" xmlns="http://www.w3.org/2000/svg" xmlns:xlink="http://www.w3.org/1999/xlink" x="0px" y="0px"
	 width="102.199px" height="19.947px" viewBox="0 0 102.199 19.947" enable-background="new 0 0 102.199 19.947"
	 xml:space="preserve">
<path fill="#282828" d="M85.728,5.057c0,0,2.169-1.526,7.357-1.375c4.061,0.119,7.593,2.934,7.593,6.648
	c0,4.442-4.454,6.221-8.065,6.259c-3.097,0.033-4.441-0.747-6.928-2.404L85.728,5.057z"/>
<path fill="#282828" d="M15.859,4.321c0,0-2.722-1.484-7.538-1.484c-3.236,0-7.411,3.043-7.411,6.757
	c0,4.442,4.454,6.221,8.065,6.259c3.097,0.033,4.35-0.698,6.836-2.356L15.859,4.321z"/>
<path fill="#0C1332" d="M15.859,4.081c0,0-3.059-0.986-7.475-0.986c-3.236,0-7.475,2.545-7.475,6.26
	c0,4.442,4.454,6.221,8.065,6.259c3.097,0.033,4.441-0.519,6.928-2.176L15.859,4.081z"/>
<path fill="#0C1332" d="M85.728,4.828c0,0,3.059-0.986,7.475-0.986c3.236,0,7.475,2.545,7.475,6.26c0,4.442-4.454,6.221-8.065,6.259
	c-3.097,0.033-4.441-0.519-6.928-2.176L85.728,4.828z"/>
<g>
	
		<image overflow="visible" opacity="0.3" width="37" height="40" xlink:href="A9AA371F18322DD8.png"  transform="matrix(0.48 0 0 0.48 0 0)">
	</image>
	<g>
		<path fill="#F5F6FB" d="M9.02,7.226c1.008,0.783,2.616,2.504,2.194,3.922c-0.422-0.038-1.253,0.15-1.304,0.652
			c-0.057,0.567,0.951,0.254,1.373,0.139c0.153,0.958-1.871,1.127-2.293,0.513c-0.613-0.843,0.115-1.955,1.074-2.032
			C10.141,9.001,7.61,5.819,6,6.126C6,6.126,6.736,5.452,9.02,7.226z"/>
	</g>
</g>
<g>
	
		<image overflow="visible" opacity="0.3" width="37" height="40" xlink:href="A9AA371F18322DD9.png"  transform="matrix(0.48 0 0 0.48 84.4389 0.7475)">
	</image>
	<g>
		<path fill="#F5F6FB" d="M92.71,7.973c-1.008,0.783-2.616,2.504-2.194,3.922c0.422-0.038,1.253,0.15,1.304,0.652
			c0.057,0.567-0.951,0.254-1.373,0.139c-0.153,0.958,1.871,1.127,2.293,0.513c0.613-0.843-0.115-1.955-1.074-2.032
			C91.59,9.748,94.12,6.566,95.73,6.873C95.73,6.873,94.994,6.199,92.71,7.973z"/>
	</g>
</g>
</svg>
