<?xml version="1.0" encoding="utf-8"?>
<!-- Generator: Adobe Illustrator 17.0.0, SVG Export Plug-In . SVG Version: 6.00 Build 0)  -->
<!DOCTYPE svg PUBLIC "-//W3C//DTD SVG 1.1//EN" "http://www.w3.org/Graphics/SVG/1.1/DTD/svg11.dtd">
<svg version="1.1" id="Layer_1" xmlns="http://www.w3.org/2000/svg" xmlns:xlink="http://www.w3.org/1999/xlink" x="0px" y="0px"
	 width="122.62px" height="48.344px" viewBox="0 0 122.62 48.344" enable-background="new 0 0 122.62 48.344" xml:space="preserve">
<g>
	
		<image overflow="visible" opacity="0.1" width="84" height="90" xlink:href="7912EAE2A11A4584.png"  transform="matrix(0.48 0 0 0.48 82.2995 0)">
	</image>
	<g>
		<path fill="#E1E31A" d="M94.346,13.5c0,0,3.256-1.5,7.956-1.5c3.444,0,7.956,3.873,7.956,9.524c0,6.759-4.741,9.465-8.584,9.524
			c-3.297,0.05-4.727-0.789-7.374-3.311L94.346,13.5z"/>
	</g>
</g>
<g>
	
		<image overflow="visible" opacity="0.2" width="34" height="53" xlink:href="7912EAE2A11A4585.png"  transform="matrix(0.48 0 0 0.48 94.5238 22.3877)">
	</image>
	<g>
		
			<linearGradient id="SVGID_1_" gradientUnits="userSpaceOnUse" x1="-9720.5684" y1="385.6978" x2="-9720.5684" y2="372.6722" gradientTransform="matrix(-0.9973 0.074 0.074 0.9973 -9619.3955 376.2097)">
			<stop  offset="0" style="stop-color:#8D6219"/>
			<stop  offset="0.3673" style="stop-color:#D3AC85"/>
			<stop  offset="0.4302" style="stop-color:#D1A980"/>
			<stop  offset="0.5067" style="stop-color:#CBA274"/>
			<stop  offset="0.5904" style="stop-color:#C39760"/>
			<stop  offset="0.6786" style="stop-color:#B68944"/>
			<stop  offset="0.7606" style="stop-color:#A87925"/>
			<stop  offset="1" style="stop-color:#6C4A04"/>
		</linearGradient>
		<path fill="url(#SVGID_1_)" d="M102.429,28.388c-0.098,0.035-0.754,0.452-0.906,0.694c-0.123,0.194-0.191,0.898-0.191,0.898
			s-0.102-0.024-0.291,0.048c-0.195,0.074-0.324,0.343-0.361,0.476c-0.399,1.424,0.055,4.43,0.389,5.87
			c0.301,1.296,0.841,4.262,1.987,4.937c0.174,0.102,0.662,0.082,0.806-0.06c1.082-1.065,0.69-4.566,0.603-6.081
			c-0.065-1.128-0.961-4.345-0.961-4.345s-0.285,0.066-0.38,0.078c-0.1,0.013-0.39,0.066-0.39,0.066s0.869,3.161,0.939,4.259
			c0.071,1.128,0.408,3.967-0.4,4.556c-0.049,0.036-0.194,0.019-0.241-0.019c-0.772-0.613-1.112-2.556-1.272-3.524
			c-0.204-1.234-0.594-3.765-0.454-4.995c0.056-0.496,0.315-1.031,0.16-1.199c0,0,0.067-0.675,0.161-0.877
			c0.115-0.248,0.846-0.736,0.846-0.736S102.444,28.383,102.429,28.388z"/>
	</g>
</g>
<g>
	
		<image overflow="visible" opacity="0.1" width="84" height="90" xlink:href="7912EAE2A11A4583.png"  transform="matrix(0.48 0 0 0.48 0 0.5165)">
	</image>
	<g>
		<path fill="#E1E31A" d="M27.913,14.017c0,0-3.256-1.5-7.956-1.5c-3.444,0-7.956,3.873-7.956,9.524
			c0,6.759,4.741,9.465,8.584,9.524c3.297,0.05,4.727-0.789,7.374-3.311L27.913,14.017z"/>
	</g>
</g>
<g>
	
		<image overflow="visible" opacity="0.2" width="34" height="53" xlink:href="7912EAE2A11A458C.png"  transform="matrix(0.48 0 0 0.48 11.6517 22.9042)">
	</image>
	<g>
		
			<linearGradient id="SVGID_2_" gradientUnits="userSpaceOnUse" x1="3119.8711" y1="-566.7556" x2="3119.8711" y2="-579.7812" gradientTransform="matrix(0.9973 0.074 -0.074 0.9973 -3134.0613 376.2097)">
			<stop  offset="0" style="stop-color:#8D6219"/>
			<stop  offset="0.3673" style="stop-color:#D3AC85"/>
			<stop  offset="0.4302" style="stop-color:#D1A980"/>
			<stop  offset="0.5067" style="stop-color:#CBA274"/>
			<stop  offset="0.5904" style="stop-color:#C39760"/>
			<stop  offset="0.6786" style="stop-color:#B68944"/>
			<stop  offset="0.7606" style="stop-color:#A87925"/>
			<stop  offset="1" style="stop-color:#6C4A04"/>
		</linearGradient>
		<path fill="url(#SVGID_2_)" d="M19.829,28.905c0.098,0.035,0.754,0.452,0.906,0.694c0.123,0.194,0.191,0.898,0.191,0.898
			s0.102-0.024,0.291,0.048c0.195,0.074,0.324,0.343,0.361,0.476c0.399,1.424-0.055,4.43-0.389,5.87
			c-0.301,1.296-0.841,4.262-1.987,4.937c-0.174,0.102-0.662,0.082-0.806-0.06c-1.082-1.065-0.69-4.566-0.603-6.081
			c0.065-1.128,0.961-4.345,0.961-4.345s0.285,0.066,0.38,0.078c0.1,0.013,0.39,0.066,0.39,0.066s-0.869,3.161-0.939,4.259
			c-0.071,1.128-0.408,3.967,0.4,4.556c0.049,0.036,0.194,0.019,0.241-0.019c0.772-0.613,1.112-2.556,1.272-3.524
			c0.204-1.234,0.594-3.765,0.454-4.995c-0.056-0.496-0.315-1.031-0.16-1.199c0,0-0.067-0.675-0.161-0.877
			c-0.115-0.248-0.846-0.736-0.846-0.736S19.814,28.899,19.829,28.905z"/>
	</g>
</g>
</svg>
