<?xml version="1.0" encoding="utf-8"?>
<!-- Generator: Adobe Illustrator 17.0.0, SVG Export Plug-In . SVG Version: 6.00 Build 0)  -->
<!DOCTYPE svg PUBLIC "-//W3C//DTD SVG 1.1//EN" "http://www.w3.org/Graphics/SVG/1.1/DTD/svg11.dtd">
<svg version="1.1" id="Layer_1" xmlns="http://www.w3.org/2000/svg" xmlns:xlink="http://www.w3.org/1999/xlink" x="0px" y="0px"
	 width="91.063px" height="20.741px" viewBox="0 0 91.063 20.741" enable-background="new 0 0 91.063 20.741" xml:space="preserve">
<g>
	<linearGradient id="SVGID_1_" gradientUnits="userSpaceOnUse" x1="81.5976" y1="8.1228" x2="91.0632" y2="8.1228">
		<stop  offset="0" style="stop-color:#009D47"/>
		<stop  offset="0.3142" style="stop-color:#009C47"/>
		<stop  offset="0.5793" style="stop-color:#009849"/>
		<stop  offset="0.8258" style="stop-color:#00914D"/>
		<stop  offset="1" style="stop-color:#008A51"/>
	</linearGradient>
	<path fill="url(#SVGID_1_)" d="M91.058,7.354c-0.171,4.065-4.25,7.773-9.46,8.892L82.281,0C87.434,0.245,91.229,3.289,91.058,7.354
		z"/>
</g>
<g>
	<linearGradient id="SVGID_2_" gradientUnits="userSpaceOnUse" x1="-2.692778e-06" y1="9.5307" x2="9.9726" y2="9.5307">
		<stop  offset="0" style="stop-color:#009D47"/>
		<stop  offset="0.3142" style="stop-color:#009C47"/>
		<stop  offset="0.5793" style="stop-color:#009849"/>
		<stop  offset="0.8258" style="stop-color:#00914D"/>
		<stop  offset="1" style="stop-color:#008A51"/>
	</linearGradient>
	<path fill="url(#SVGID_2_)" d="M0.028,8.174c0.386,4.083,4.667,8.059,9.945,9.516L8.431,1.373C3.283,1.287-0.358,4.092,0.028,8.174
		z"/>
</g>
<g>
	<linearGradient id="SVGID_3_" gradientUnits="userSpaceOnUse" x1="83.7587" y1="7.836" x2="88.2401" y2="7.836">
		<stop  offset="0" style="stop-color:#35AA67"/>
		<stop  offset="0.3073" style="stop-color:#31AA6A"/>
		<stop  offset="0.5666" style="stop-color:#25AC73"/>
		<stop  offset="0.8077" style="stop-color:#00AF81"/>
		<stop  offset="1" style="stop-color:#00B392"/>
	</linearGradient>
	<path fill="url(#SVGID_3_)" d="M88.237,7.472c-0.081,1.924-2.012,3.68-4.479,4.21l0.324-7.691
		C86.522,4.106,88.318,5.548,88.237,7.472z"/>
</g>
<g>
	<linearGradient id="SVGID_4_" gradientUnits="userSpaceOnUse" x1="2.3278" y1="9.7777" x2="7.5504" y2="9.7777">
		<stop  offset="0" style="stop-color:#35AA67"/>
		<stop  offset="0.3073" style="stop-color:#31AA6A"/>
		<stop  offset="0.5666" style="stop-color:#25AC73"/>
		<stop  offset="0.8077" style="stop-color:#00AF81"/>
		<stop  offset="1" style="stop-color:#00B392"/>
	</linearGradient>
	<path fill="url(#SVGID_4_)" d="M2.342,9.067c0.202,2.138,2.444,4.221,5.208,4.984L6.743,5.506C4.047,5.461,2.141,6.929,2.342,9.067
		z"/>
</g>
<linearGradient id="SVGID_5_" gradientUnits="userSpaceOnUse" x1="3.2001" y1="17.4739" x2="7.274" y2="17.4739">
	<stop  offset="0" style="stop-color:#975A16"/>
	<stop  offset="0.1377" style="stop-color:#A76E1A"/>
	<stop  offset="0.4011" style="stop-color:#C2931D"/>
	<stop  offset="0.6417" style="stop-color:#D7B21B"/>
	<stop  offset="0.8493" style="stop-color:#E4C616"/>
	<stop  offset="1" style="stop-color:#EACE14"/>
</linearGradient>
<path fill="url(#SVGID_5_)" d="M6.896,14.561c-0.105-0.181-0.552-0.326-0.759-0.351c-0.233-0.028-0.583,0.114-0.891,0.301
	c-0.874,0.53-1.753,1.493-1.928,2.247c-0.511,2.206,0.724,3.947,1.937,3.982c0.588,0.017,1.258-0.149,1.743-1.064
	c0.577-1.088,0.068-3.085,0.068-3.085l-1.211-0.654c0,0,0.373,2.034,0.094,2.821c-0.138,0.389-0.335,0.5-0.564,0.498
	c-0.78-0.006-0.8-1.314-0.446-2.335c0.135-0.388,0.715-1.23,1.495-1.759C6.871,14.866,6.992,14.725,6.896,14.561z"/>
<linearGradient id="SVGID_6_" gradientUnits="userSpaceOnUse" x1="5.8257" y1="17.6128" x2="8.8516" y2="17.6128">
	<stop  offset="0" style="stop-color:#67686B"/>
	<stop  offset="0.5759" style="stop-color:#424143"/>
	<stop  offset="1" style="stop-color:#000000"/>
</linearGradient>
<path fill="url(#SVGID_6_)" d="M8.55,15.465c-0.078-0.133-0.407-0.24-0.56-0.259c-0.172-0.021-0.43,0.084-0.657,0.222
	c-0.644,0.391-1.292,1.101-1.421,1.657c-0.376,1.626,0.533,2.91,1.428,2.935c0.433,0.012,0.927-0.11,1.285-0.784
	C9.051,18.435,8.745,17.3,8.745,17.3l-0.891-0.35c0,0,0.203,1.029-0.002,1.609c-0.101,0.286-0.247,0.369-0.416,0.367
	c-0.575-0.004-0.59-0.969-0.329-1.721c0.099-0.286,0.527-0.907,1.102-1.297C8.532,15.69,8.621,15.586,8.55,15.465z"/>
</svg>
