<?xml version="1.0" encoding="utf-8"?>
<!-- Generator: Adobe Illustrator 17.0.0, SVG Export Plug-In . SVG Version: 6.00 Build 0)  -->
<!DOCTYPE svg PUBLIC "-//W3C//DTD SVG 1.1//EN" "http://www.w3.org/Graphics/SVG/1.1/DTD/svg11.dtd">
<svg version="1.1" id="Layer_1" xmlns="http://www.w3.org/2000/svg" xmlns:xlink="http://www.w3.org/1999/xlink" x="0px" y="0px"
	 width="91.361px" height="20.809px" viewBox="0 0 91.361 20.809" enable-background="new 0 0 91.361 20.809" xml:space="preserve">
<g>
	
		<image overflow="visible" opacity="0.2" width="45" height="59" xlink:href="1FE9D7116E4F2149.png"  transform="matrix(0.48 0 0 0.48 75.8644 -6)">
	</image>
	<g>
		<g>
			<linearGradient id="SVGID_1_" gradientUnits="userSpaceOnUse" x1="81.8644" y1="8.1494" x2="91.3609" y2="8.1494">
				<stop  offset="0" style="stop-color:#009D47"/>
				<stop  offset="0.3142" style="stop-color:#009C47"/>
				<stop  offset="0.5793" style="stop-color:#009849"/>
				<stop  offset="0.8258" style="stop-color:#00914D"/>
				<stop  offset="1" style="stop-color:#008A51"/>
			</linearGradient>
			<path fill="url(#SVGID_1_)" d="M91.355,7.378c-0.172,4.078-4.264,7.798-9.491,8.921L82.551,0
				C87.72,0.246,91.527,3.3,91.355,7.378z"/>
		</g>
	</g>
</g>
<g>
	
		<image overflow="visible" opacity="0.2" width="46" height="60" xlink:href="1FE9D7116E4F214B.png"  transform="matrix(0.48 0 0 0.48 -6 -4.6244)">
	</image>
	<g>
		<g>
			<linearGradient id="SVGID_2_" gradientUnits="userSpaceOnUse" x1="0" y1="9.5619" x2="10.0052" y2="9.5619">
				<stop  offset="0" style="stop-color:#009D47"/>
				<stop  offset="0.3142" style="stop-color:#009C47"/>
				<stop  offset="0.5793" style="stop-color:#009849"/>
				<stop  offset="0.8258" style="stop-color:#00914D"/>
				<stop  offset="1" style="stop-color:#008A51"/>
			</linearGradient>
			<path fill="url(#SVGID_2_)" d="M0.028,8.201c0.387,4.096,4.682,8.086,9.977,9.547L8.459,1.378
				C3.294,1.291-0.359,4.105,0.028,8.201z"/>
		</g>
	</g>
</g>
<g>
	
		<image overflow="visible" opacity="0.2" width="35" height="42" xlink:href="1FE9D7116E4F214E.png"  transform="matrix(0.48 0 0 0.48 78.0326 -1.9967)">
	</image>
	<g>
		<g>
			<linearGradient id="SVGID_3_" gradientUnits="userSpaceOnUse" x1="84.0326" y1="7.8616" x2="88.5286" y2="7.8616">
				<stop  offset="0" style="stop-color:#35AA67"/>
				<stop  offset="0.3073" style="stop-color:#31AA6A"/>
				<stop  offset="0.5666" style="stop-color:#25AC73"/>
				<stop  offset="0.8077" style="stop-color:#00AF81"/>
				<stop  offset="1" style="stop-color:#00B392"/>
			</linearGradient>
			<path fill="url(#SVGID_3_)" d="M88.526,7.496c-0.081,1.931-2.019,3.692-4.493,4.223l0.325-7.717
				C86.805,4.12,88.607,5.566,88.526,7.496z"/>
		</g>
	</g>
</g>
<g>
	
		<image overflow="visible" opacity="0.2" width="36" height="43" xlink:href="1FE9D7116E4F214F.png"  transform="matrix(0.48 0 0 0.48 -3.6646 -0.4774)">
	</image>
	<g>
		<g>
			<linearGradient id="SVGID_4_" gradientUnits="userSpaceOnUse" x1="2.3354" y1="9.8097" x2="7.5751" y2="9.8097">
				<stop  offset="0" style="stop-color:#35AA67"/>
				<stop  offset="0.3073" style="stop-color:#31AA6A"/>
				<stop  offset="0.5666" style="stop-color:#25AC73"/>
				<stop  offset="0.8077" style="stop-color:#00AF81"/>
				<stop  offset="1" style="stop-color:#00B392"/>
			</linearGradient>
			<path fill="url(#SVGID_4_)" d="M2.35,9.097c0.203,2.145,2.452,4.235,5.225,5l-0.81-8.573C4.061,5.478,2.148,6.952,2.35,9.097z"/>
		</g>
	</g>
</g>
<linearGradient id="SVGID_5_" gradientUnits="userSpaceOnUse" x1="3.2106" y1="17.5311" x2="7.2978" y2="17.5311">
	<stop  offset="0" style="stop-color:#975A16"/>
	<stop  offset="0.1377" style="stop-color:#A76E1A"/>
	<stop  offset="0.4011" style="stop-color:#C2931D"/>
	<stop  offset="0.6417" style="stop-color:#D7B21B"/>
	<stop  offset="0.8493" style="stop-color:#E4C616"/>
	<stop  offset="1" style="stop-color:#EACE14"/>
</linearGradient>
<path fill="url(#SVGID_5_)" d="M6.919,14.609c-0.106-0.181-0.554-0.327-0.762-0.352c-0.234-0.028-0.585,0.114-0.894,0.302
	c-0.877,0.532-1.759,1.498-1.934,2.255c-0.512,2.213,0.726,3.96,1.943,3.995c0.59,0.017,1.262-0.15,1.749-1.067
	c0.579-1.091,0.068-3.096,0.068-3.096L5.874,15.99c0,0,0.374,2.04,0.094,2.83c-0.138,0.39-0.337,0.502-0.566,0.5
	c-0.783-0.006-0.803-1.318-0.447-2.343c0.135-0.39,0.718-1.234,1.5-1.765C6.894,14.915,7.015,14.773,6.919,14.609z"/>
<linearGradient id="SVGID_6_" gradientUnits="userSpaceOnUse" x1="5.8447" y1="17.6703" x2="8.8806" y2="17.6703">
	<stop  offset="0" style="stop-color:#67686B"/>
	<stop  offset="0.5759" style="stop-color:#424143"/>
	<stop  offset="1" style="stop-color:#000000"/>
</linearGradient>
<path fill="url(#SVGID_6_)" d="M8.578,15.516c-0.078-0.134-0.408-0.241-0.562-0.259c-0.173-0.021-0.431,0.084-0.659,0.222
	c-0.646,0.392-1.297,1.104-1.426,1.662c-0.378,1.631,0.535,2.919,1.433,2.945c0.435,0.012,0.93-0.11,1.289-0.787
	c0.427-0.804,0.12-1.943,0.12-1.943L7.88,17.006c0,0,0.204,1.032-0.002,1.614c-0.102,0.287-0.248,0.37-0.417,0.369
	c-0.577-0.004-0.592-0.972-0.33-1.727c0.1-0.287,0.529-0.91,1.106-1.301C8.56,15.742,8.649,15.637,8.578,15.516z"/>
</svg>
