<?xml version="1.0" encoding="utf-8"?>
<!-- Generator: Adobe Illustrator 17.0.0, SVG Export Plug-In . SVG Version: 6.00 Build 0)  -->
<!DOCTYPE svg PUBLIC "-//W3C//DTD SVG 1.1//EN" "http://www.w3.org/Graphics/SVG/1.1/DTD/svg11.dtd">
<svg version="1.1" id="Layer_1" xmlns="http://www.w3.org/2000/svg" xmlns:xlink="http://www.w3.org/1999/xlink" x="0px" y="0px"
	 width="91.329px" height="20.719px" viewBox="0 0 91.329 20.719" enable-background="new 0 0 91.329 20.719" xml:space="preserve">
<g>
	
		<image overflow="visible" opacity="0.2" width="58" height="72" xlink:href="59FB978210481D55.png"  transform="matrix(0.48 0 0 0.48 72.8636 -9)">
	</image>
	<g>
		<g>
			<path fill="#E1E31A" d="M91.324,7.354c-0.171,4.065-4.25,7.773-9.46,8.892L82.547,0C87.7,0.245,91.495,3.289,91.324,7.354z"/>
		</g>
	</g>
</g>
<g>
	
		<image overflow="visible" opacity="0.2" width="59" height="72" xlink:href="59FB978210481D57.png"  transform="matrix(0.48 0 0 0.48 -9 -7.651)">
	</image>
	<g>
		<g>
			<path fill="#E1E31A" d="M0.028,8.152c0.386,4.083,4.667,8.059,9.945,9.516L8.431,1.351C3.283,1.265-0.358,4.069,0.028,8.152z"/>
		</g>
	</g>
</g>
<g>
	<path fill="#6FBF44" d="M88.503,7.472c-0.081,1.924-2.012,3.68-4.479,4.21l0.324-7.691C86.788,4.106,88.584,5.548,88.503,7.472z"/>
</g>
<g>
	<path fill="#6FBF44" d="M2.342,9.045c0.202,2.138,2.444,4.221,5.208,4.984L6.743,5.484C4.047,5.438,2.141,6.907,2.342,9.045z"/>
</g>
<linearGradient id="SVGID_1_" gradientUnits="userSpaceOnUse" x1="3.2001" y1="17.4519" x2="7.274" y2="17.4519">
	<stop  offset="0" style="stop-color:#975A16"/>
	<stop  offset="0.1377" style="stop-color:#A76E1A"/>
	<stop  offset="0.4011" style="stop-color:#C2931D"/>
	<stop  offset="0.6417" style="stop-color:#D7B21B"/>
	<stop  offset="0.8493" style="stop-color:#E4C616"/>
	<stop  offset="1" style="stop-color:#EACE14"/>
</linearGradient>
<path fill="url(#SVGID_1_)" d="M6.896,14.539c-0.105-0.181-0.552-0.326-0.759-0.351c-0.233-0.028-0.583,0.114-0.891,0.301
	c-0.874,0.53-1.753,1.493-1.928,2.247c-0.511,2.206,0.724,3.947,1.937,3.982c0.588,0.017,1.258-0.149,1.743-1.064
	c0.577-1.088,0.068-3.085,0.068-3.085l-1.211-0.654c0,0,0.373,2.034,0.094,2.821c-0.138,0.389-0.335,0.5-0.564,0.498
	c-0.78-0.006-0.8-1.314-0.446-2.335c0.135-0.388,0.715-1.23,1.495-1.759C6.871,14.844,6.992,14.703,6.896,14.539z"/>
<linearGradient id="SVGID_2_" gradientUnits="userSpaceOnUse" x1="5.8257" y1="17.5907" x2="8.8516" y2="17.5907">
	<stop  offset="0" style="stop-color:#67686B"/>
	<stop  offset="0.5759" style="stop-color:#424143"/>
	<stop  offset="1" style="stop-color:#000000"/>
</linearGradient>
<path fill="url(#SVGID_2_)" d="M8.55,15.443c-0.078-0.133-0.407-0.24-0.56-0.259c-0.172-0.021-0.43,0.084-0.657,0.222
	c-0.644,0.391-1.292,1.101-1.421,1.657c-0.376,1.626,0.533,2.91,1.428,2.935c0.433,0.012,0.927-0.11,1.285-0.784
	c0.425-0.802,0.119-1.936,0.119-1.936l-0.891-0.35c0,0,0.203,1.029-0.002,1.609c-0.101,0.286-0.247,0.369-0.416,0.367
	c-0.575-0.004-0.59-0.969-0.329-1.721c0.099-0.286,0.527-0.907,1.102-1.297C8.532,15.668,8.621,15.564,8.55,15.443z"/>
</svg>
