<?xml version="1.0" encoding="utf-8"?>
<!-- Generator: Adobe Illustrator 17.0.0, SVG Export Plug-In . SVG Version: 6.00 Build 0)  -->
<!DOCTYPE svg PUBLIC "-//W3C//DTD SVG 1.1//EN" "http://www.w3.org/Graphics/SVG/1.1/DTD/svg11.dtd">
<svg version="1.1" id="Layer_1" xmlns="http://www.w3.org/2000/svg" xmlns:xlink="http://www.w3.org/1999/xlink" x="0px" y="0px"
	 width="124.135px" height="37.707px" viewBox="0 0 124.135 37.707" enable-background="new 0 0 124.135 37.707"
	 xml:space="preserve">
<g>
	
		<image overflow="visible" opacity="0.1" width="82" height="77" xlink:href="2F5E4E57FE681D8B.png"  transform="matrix(0.48 0 0 0.48 0 0)">
	</image>
	<g>
		<path fill="#E1E31A" d="M26.949,12.986c0,0-3.059-0.986-7.475-0.986C16.239,12,12,14.545,12,18.26
			c0,4.442,4.454,6.221,8.065,6.259c3.097,0.033,4.441-0.519,6.928-2.176L26.949,12.986z"/>
	</g>
</g>
<g>
	
		<image overflow="visible" opacity="0.1" width="82" height="77" xlink:href="2F5E4E57FE681D8E.png"  transform="matrix(0.48 0 0 0.48 84.7754 0.7475)">
	</image>
	<g>
		<path fill="#E1E31A" d="M96.819,13.734c0,0,3.059-0.986,7.475-0.986c3.236,0,7.475,2.545,7.475,6.26
			c0,4.442-4.454,6.221-8.065,6.259c-3.097,0.033-4.441-0.519-6.928-2.176L96.819,13.734z"/>
	</g>
</g>
<g>
	<path fill="#6FBF44" d="M20.111,16.131c1.008,0.783,2.616,2.504,2.194,3.922c-0.422-0.038-1.253,0.15-1.304,0.652
		c-0.057,0.567,0.951,0.254,1.373,0.139c0.153,0.958-1.871,1.127-2.293,0.513c-0.613-0.843,0.115-1.955,1.074-2.032
		c0.077-1.419-2.454-4.601-4.064-4.294C17.091,15.031,17.827,14.357,20.111,16.131z"/>
</g>
<g>
	<path fill="#6FBF44" d="M103.801,16.878c-1.008,0.783-2.616,2.504-2.194,3.922c0.422-0.038,1.253,0.15,1.304,0.652
		c0.057,0.566-0.951,0.254-1.373,0.139c-0.153,0.958,1.871,1.127,2.293,0.513c0.613-0.843-0.115-1.955-1.074-2.032
		c-0.077-1.419,2.454-4.601,4.064-4.294C106.821,15.778,106.085,15.105,103.801,16.878z"/>
</g>
</svg>
