<?xml version="1.0" encoding="utf-8"?>
<!-- Generator: Adobe Illustrator 17.0.0, SVG Export Plug-In . SVG Version: 6.00 Build 0)  -->
<!DOCTYPE svg PUBLIC "-//W3C//DTD SVG 1.1//EN" "http://www.w3.org/Graphics/SVG/1.1/DTD/svg11.dtd">
<svg version="1.1" id="Layer_1" xmlns="http://www.w3.org/2000/svg" xmlns:xlink="http://www.w3.org/1999/xlink" x="0px" y="0px"
	 width="39.067px" height="24.63px" viewBox="0 0 39.067 24.63" enable-background="new 0 0 39.067 24.63" xml:space="preserve">
<ellipse fill="#E6E8EE" cx="29.668" cy="15.687" rx="8.42" ry="8.182"/>
<g>
	<path fill="#282828" d="M29.156,24.61c4.548,0.293,8.532-2.66,9.566-6.818l-18.178-1.171C21.037,20.877,24.608,24.317,29.156,24.61
		z"/>
</g>
<g>
	<linearGradient id="SVGID_1_" gradientUnits="userSpaceOnUse" x1="20.5388" y1="20.3994" x2="38.717" y2="20.3994">
		<stop  offset="0" style="stop-color:#7FC1C9"/>
		<stop  offset="0.1078" style="stop-color:#8FBDBC"/>
		<stop  offset="0.524" style="stop-color:#BDB193"/>
		<stop  offset="0.8336" style="stop-color:#D6A87A"/>
		<stop  offset="1" style="stop-color:#E1A571"/>
	</linearGradient>
	<path fill="url(#SVGID_1_)" d="M29.151,24.384c4.548,0.293,8.532-2.66,9.566-6.818l-18.178-1.171
		C21.031,20.651,24.603,24.091,29.151,24.384z"/>
</g>
<ellipse fill="#E6E8EE" cx="9.13" cy="14.985" rx="8.42" ry="8.182"/>
<g>
	<path fill="#282828" d="M8.618,23.908c4.548,0.293,8.532-2.66,9.566-6.818L0.005,15.919C0.498,20.175,4.069,23.615,8.618,23.908z"
		/>
</g>
<ellipse fill="#121212" cx="9.11" cy="13.365" rx="2.403" ry="2.335"/>
<path fill="#282828" d="M0.414,4.088c0.874-1.372,3.801-2.282,5.154-2.718c1.664-0.537,5.121-1.094,6.832-0.906
	c1.247,0.137,3.81,1.125,4.675,2.265c0.458,0.604,1.132,2.422,0.839,3.171c-0.364,0.932-2.292,1.396-3.116,1.359
	c-0.912-0.041-2.457-1.613-3.356-1.812C9.904,5.107,6.756,5.643,5.209,5.9c-0.88,0.146-2.591,0.984-3.476,0.906
	C1.288,6.767,0.251,6.555,0.055,6.051C-0.121,5.599,0.164,4.48,0.414,4.088z"/>
<ellipse fill="#121212" cx="28.593" cy="12.71" rx="2.403" ry="2.335"/>
<path fill="#282828" d="M39.044,7.316c-0.256-1.509-2.168-3.032-3.048-3.751c-1.082-0.884-3.49-2.187-4.814-2.389
	c-0.966-0.147-3.152,0.229-4.122,1.129c-0.514,0.477-1.536,2.068-1.534,2.851c0.003,0.974,1.302,1.848,1.924,1.996
	c0.689,0.164,2.288-0.999,3.013-0.989c1.239,0.017,3.423,1.231,4.499,1.821c0.612,0.336,1.642,1.519,2.322,1.642
	c0.341,0.062,1.173,0.089,1.463-0.35C39.009,8.882,39.118,7.748,39.044,7.316z"/>
<g>
	<linearGradient id="SVGID_2_" gradientUnits="userSpaceOnUse" x1="-1.793305e-06" y1="19.6969" x2="18.1782" y2="19.6969">
		<stop  offset="0" style="stop-color:#7FC1C9"/>
		<stop  offset="0.1078" style="stop-color:#8FBDBC"/>
		<stop  offset="0.524" style="stop-color:#BDB193"/>
		<stop  offset="0.8336" style="stop-color:#D6A87A"/>
		<stop  offset="1" style="stop-color:#E1A571"/>
	</linearGradient>
	<path fill="url(#SVGID_2_)" d="M8.612,23.681c4.548,0.293,8.532-2.66,9.566-6.818L0,15.692C0.493,19.948,4.064,23.388,8.612,23.681
		z"/>
</g>
<linearGradient id="SVGID_3_" gradientUnits="userSpaceOnUse" x1="-1.522018e-06" y1="3.4174" x2="17.9851" y2="3.4174">
	<stop  offset="0" style="stop-color:#D45426"/>
	<stop  offset="0.5897" style="stop-color:#CE3721"/>
	<stop  offset="1" style="stop-color:#CB251E"/>
</linearGradient>
<path fill="url(#SVGID_3_)" d="M0.414,3.661C1.289,2.289,4.215,1.38,5.568,0.943C7.232,0.406,10.689-0.15,12.4,0.037
	c1.247,0.137,3.81,1.125,4.675,2.265c0.458,0.604,1.132,2.422,0.839,3.171c-0.364,0.932-2.292,1.396-3.116,1.359
	c-0.912-0.041-2.457-1.613-3.356-1.812c-1.537-0.34-4.685,0.197-6.233,0.453C4.329,5.619,2.618,6.457,1.733,6.38
	C1.288,6.341,0.251,6.128,0.055,5.625C-0.122,5.172,0.164,4.054,0.414,3.661z"/>
<linearGradient id="SVGID_4_" gradientUnits="userSpaceOnUse" x1="25.5267" y1="4.9767" x2="39.0665" y2="4.9767">
	<stop  offset="0" style="stop-color:#D45426"/>
	<stop  offset="0.5897" style="stop-color:#CE3721"/>
	<stop  offset="1" style="stop-color:#CB251E"/>
</linearGradient>
<path fill="url(#SVGID_4_)" d="M39.044,6.889c-0.256-1.509-2.168-3.032-3.048-3.751c-1.082-0.884-3.49-2.187-4.814-2.389
	c-0.966-0.147-3.152,0.229-4.122,1.129c-0.514,0.477-1.536,2.068-1.534,2.851c0.003,0.974,1.302,1.848,1.924,1.996
	c0.689,0.164,2.288-0.999,3.013-0.989c1.239,0.017,3.423,1.231,4.499,1.821c0.612,0.336,1.642,1.519,2.322,1.642
	c0.341,0.062,1.173,0.089,1.463-0.35C39.008,8.456,39.117,7.321,39.044,6.889z"/>
</svg>
