<?xml version="1.0" encoding="utf-8"?>
<!-- Generator: Adobe Illustrator 17.0.0, SVG Export Plug-In . SVG Version: 6.00 Build 0)  -->
<!DOCTYPE svg PUBLIC "-//W3C//DTD SVG 1.1//EN" "http://www.w3.org/Graphics/SVG/1.1/DTD/svg11.dtd">
<svg version="1.1" id="Layer_1" xmlns="http://www.w3.org/2000/svg" xmlns:xlink="http://www.w3.org/1999/xlink" x="0px" y="0px"
	 width="68.594px" height="43.2px" viewBox="0 0 68.594 43.2" enable-background="new 0 0 68.594 43.2" xml:space="preserve">
<g>
	<g>
		
			<image overflow="visible" opacity="0.1" width="36" height="36" xlink:href="D8628D072613A72D.png"  transform="matrix(0.48 0 0 0.48 47.6044 9.9315)">
		</image>
		<g>
			
				<ellipse transform="matrix(0.9224 -0.3863 0.3863 0.9224 -2.7789 23.1047)" fill="#171517" cx="56.094" cy="18.466" rx="2.479" ry="2.544"/>
		</g>
	</g>
	<g>
		
			<image overflow="visible" opacity="0.1" width="36" height="36" xlink:href="D8628D072613A72F.png"  transform="matrix(0.48 0 0 0.48 4.2499 11.0729)">
		</image>
		<g>
			
				<ellipse transform="matrix(0.9224 -0.3863 0.3863 0.9224 -6.586 6.444)" fill="#171517" cx="12.739" cy="19.608" rx="2.479" ry="2.544"/>
		</g>
	</g>
	<g>
		
			<image overflow="visible" opacity="0.1" width="47" height="36" xlink:href="D8628D072613A72A.png"  transform="matrix(0.48 0 0 0.48 46.0336 17.3897)">
		</image>
		<g>
			<path fill="#CECCCC" d="M62.462,25.387c-0.905-1.722-4.691-2.243-6.368-1.895c-1.7,0.353-5.096,2.17-3.753,3.808
				c1.392,1.696,5.258,1.424,6.932,0.929C60.413,27.892,63.108,26.616,62.462,25.387z"/>
		</g>
	</g>
	<g>
		
			<image overflow="visible" opacity="0.1" width="49" height="36" xlink:href="D8628D072613A72B.png"  transform="matrix(0.48 0 0 0.48 0 18.5712)">
		</image>
		<g>
			<path fill="#CECCCC" d="M6.028,26.86c0.52,1.874,3.96,2.832,5.673,2.846c1.737,0.014,6.236-1.086,5.269-2.971
				c-1.001-1.952-4.978-2.268-6.719-2.138C9.065,24.685,5.657,25.522,6.028,26.86z"/>
		</g>
	</g>
	<g>
		
			<image overflow="visible" opacity="0.1" width="98" height="90" xlink:href="D8628D072613A735.png"  transform="matrix(0.48 0 0 0.48 9.6815 0)">
		</image>
		<g>
			
				<image overflow="visible" opacity="0.25" width="85" height="79" xlink:href="D8628D072613A737.png"  transform="matrix(0.48 0 0 0.48 12.3216 2.16)">
			</image>
			<g>
				<path fill="#171517" d="M27.909,17.278c-0.997,0.824-0.636,3.325,0.418,5.155c2.167,3.762,7.199,2.647,8.979-0.138
					c0.684-1.07,0.947-4.212-0.015-5.017c-0.178-0.149-0.767-0.167-0.929,0c-0.716,0.738-0.006,1.968-1.183,4.034
					c-0.668,1.174-2.59,2.184-4.402,0.727c-1.952-1.569-1.306-3.651-2.079-4.761C28.586,17.116,28.061,17.153,27.909,17.278z"/>
			</g>
		</g>
	</g>
</g>
</svg>
