<?xml version="1.0" encoding="utf-8"?>
<!-- Generator: Adobe Illustrator 17.0.0, SVG Export Plug-In . SVG Version: 6.00 Build 0)  -->
<!DOCTYPE svg PUBLIC "-//W3C//DTD SVG 1.1//EN" "http://www.w3.org/Graphics/SVG/1.1/DTD/svg11.dtd">
<svg version="1.1" id="Layer_1" xmlns="http://www.w3.org/2000/svg" xmlns:xlink="http://www.w3.org/1999/xlink" x="0px" y="0px"
	 width="83.816px" height="34.602px" viewBox="0 0 83.816 34.602" enable-background="new 0 0 83.816 34.602" xml:space="preserve">
<ellipse transform="matrix(0.9933 -0.1152 0.1152 0.9933 -2.216 7.0218)" fill="#D0E5F7" cx="59.659" cy="22.688" rx="10.834" ry="10.528"/>
<ellipse transform="matrix(0.9933 -0.1152 0.1152 0.9933 -1.9796 6.9774)" fill="#121212" cx="59.394" cy="20.621" rx="3.092" ry="3.004"/>
<ellipse fill="#D0E5F7" cx="29.031" cy="21.771" rx="10.834" ry="10.528"/>
<ellipse fill="#121212" cx="29.005" cy="19.686" rx="3.092" ry="3.004"/>
<g>
	<path fill="#C1A7B3" d="M60.352,34.584c5.857-0.3,10.532-4.164,11.3-8.426l-23.407,1.197
		C49.443,31.516,54.495,34.883,60.352,34.584z"/>
</g>
<g>
	<path fill="#C1A7B3" d="M28.397,33.707c5.852,0.377,10.885-2.822,12.126-6.781l-23.389-1.507
		C17.857,29.505,22.545,33.33,28.397,33.707z"/>
</g>
<g>
	<path fill="#ECCDDB" d="M60.327,34.168c5.857-0.3,10.557-3.749,11.324-8.011l-23.407,1.197
		C49.443,31.516,54.471,34.468,60.327,34.168z"/>
</g>
<g>
	<path fill="#ECCDDB" d="M28.372,33.251c5.852,0.377,10.909-2.366,12.151-6.325l-23.389-1.507
		C17.857,29.505,22.52,32.874,28.372,33.251z"/>
</g>
<linearGradient id="SVGID_1_" gradientUnits="userSpaceOnUse" x1="-529.7101" y1="-290.5111" x2="-491.5396" y2="-290.5111" gradientTransform="matrix(0.9865 -0.1638 0.1638 0.9865 570.4627 219.3717)">
	<stop  offset="0" style="stop-color:#5B8D94"/>
	<stop  offset="0.1376" style="stop-color:#5F8794"/>
	<stop  offset="0.5398" style="stop-color:#697996"/>
	<stop  offset="0.8392" style="stop-color:#6E6D97"/>
	<stop  offset="1" style="stop-color:#706998"/>
</linearGradient>
<path fill="url(#SVGID_1_)" d="M37.304,11.51c0.181,0.643,1.052,2.473,0.688,3.033c-0.823,1.265-4.351,1.292-5.844,1.512
	c-2.131,0.315-6.468,0.126-8.611,0.347c-2.027,0.208-6.031,1.002-8.041,1.336c-1.087,0.181-3.262,0.542-4.35,0.722
	c-1.055,0.175-3.149,0.683-4.218,0.701c-0.803,0.014-2.382-0.433-3.185-0.419c-0.534,0.009-1.588,0.471-2.109,0.35
	C1.219,18.995,0,17.706,0,17.706s1.436,0.199,1.832,0.134L37.304,11.51z"/>
<linearGradient id="SVGID_2_" gradientUnits="userSpaceOnUse" x1="-529.7101" y1="-297.5797" x2="-491.6776" y2="-297.5797" gradientTransform="matrix(0.9865 -0.1638 0.1638 0.9865 570.4627 219.3717)">
	<stop  offset="0" style="stop-color:#7FC1C9"/>
	<stop  offset="0.1376" style="stop-color:#82B6C7"/>
	<stop  offset="0.5398" style="stop-color:#889BC1"/>
	<stop  offset="0.8392" style="stop-color:#8C8ABE"/>
	<stop  offset="1" style="stop-color:#8E84BF"/>
</linearGradient>
<path fill="url(#SVGID_2_)" d="M37.304,11.51c-0.5-1.779-1.548-5.464-2.764-6.855c-1.501-1.716-5.693-4.056-7.928-4.508
	c-2.819-0.57-8.634,0.658-11.424,1.356c-0.629,0.157-1.792,0.771-2.417,0.943c-0.644,0.177-2.636,0.438-2.636,0.438
	s1.287,0.541,1.735,0.66c0.306,0.082,0.936,0.216,1.252,0.198c0.637-0.036,2.461-0.68,2.461-0.68s-0.822,0.991-1.143,1.273
	c-0.471,0.415-1.602,1.004-2.066,1.427C11.691,6.384,10.442,7.783,10,8.595C9.786,8.988,9.71,9.928,9.472,10.308
	c-0.383,0.613-1.426,1.743-2.11,1.976c-0.491,0.167-1.607,0.044-2.065-0.199c-0.529-0.281-1.526-1.846-1.526-1.846
	s0.129,1.36,0.296,1.78c0.149,0.375,0.549,1.141,0.9,1.341c0.536,0.304,2.46,0.133,2.46,0.133s-0.345,0.99-0.616,1.186
	c-0.459,0.334-1.673,0.379-2.241,0.372c-0.676-0.008-2.098-0.128-2.658-0.507c-0.421-0.285-1.097-1.714-1.097-1.714
	s0.086,1.117,0.241,1.45c0.164,0.353,0.692,0.962,1.01,1.187c0.379,0.268,1.281,0.562,1.735,0.66
	c0.436,0.094,1.779,0.111,1.779,0.111s-0.487,0.552-0.703,0.659c-0.449,0.222-1.483,0.246-1.977,0.328
	c-0.33,0.055-0.989,0.164-1.318,0.219C1.186,17.509,0,17.706,0,17.706s0.969,0.893,1.383,0.989c0.521,0.121,1.575-0.341,2.109-0.35
	c0.803-0.014,2.382,0.433,3.185,0.419c1.069-0.018,3.164-0.525,4.218-0.701c1.087-0.181,3.262-0.542,4.35-0.722
	c2.01-0.334,6.014-1.127,8.041-1.336c2.143-0.22,6.48-0.032,8.611-0.347c1.493-0.221,5.022-0.247,5.844-1.512
	C38.106,13.586,37.485,12.153,37.304,11.51z"/>
<linearGradient id="SVGID_3_" gradientUnits="userSpaceOnUse" x1="849.1149" y1="292.1158" x2="844.39" y2="307.3181" gradientTransform="matrix(0.9754 0.2204 -0.2204 0.9754 -695.7419 -464.0255)">
	<stop  offset="0" style="stop-color:#5B8D94"/>
	<stop  offset="0.1376" style="stop-color:#5F8794"/>
	<stop  offset="0.5398" style="stop-color:#697996"/>
	<stop  offset="0.8392" style="stop-color:#6E6D97"/>
	<stop  offset="1" style="stop-color:#706998"/>
</linearGradient>
<path fill="url(#SVGID_3_)" d="M82.11,17.785c0.258-0.042,1.133-0.955,1.133-0.955s-0.048,0.911-0.175,1.107
	c-0.336,0.516-1.659,1.482-2.211,1.756c-1.128,0.56-3.582,1.5-4.837,1.4c-0.955-0.076-2.628-1.17-3.467-1.633
	c-1.119-0.618-3.105-1.323-4.364-1.542c-0.839-0.146-2.45-0.392-3.581-0.41c-0.911-0.015-2.407,0.32-3.316,0.256
	c-3.466-0.241-10.458-1.489-13.555-3.063c-0.576-0.293-1.842-1.062-1.945-1.7c-0.452-2.806,3.541-8.034,5.775-9.791l18.924,12.007
	L82.11,17.785z"/>
<linearGradient id="SVGID_4_" gradientUnits="userSpaceOnUse" x1="851.6849" y1="283.5303" x2="844.4539" y2="306.7961" gradientTransform="matrix(0.9754 0.2204 -0.2204 0.9754 -695.7419 -464.0255)">
	<stop  offset="0" style="stop-color:#7FC1C9"/>
	<stop  offset="0.1376" style="stop-color:#82B6C7"/>
	<stop  offset="0.5398" style="stop-color:#889BC1"/>
	<stop  offset="0.8392" style="stop-color:#8C8ABE"/>
	<stop  offset="1" style="stop-color:#8E84BF"/>
</linearGradient>
<path fill="url(#SVGID_4_)" d="M45.996,12.522c-0.452-2.806,3.541-8.034,5.775-9.791c1.752-1.378,6.308-2.435,8.531-2.593
	c2.204-0.157,6.565,0.936,8.737,1.349c0.886,0.168,2.628,0.935,3.519,0.795c0.454-0.071,1.581-0.935,1.581-0.935
	S73.98,2.26,73.839,2.572c-0.267,0.594-1.682,1.479-1.682,1.479s0.484,0.488,0.694,0.568c0.698,0.266,2.256,0.287,2.985,0.127
	c0.638-0.14,2.325-1.196,2.325-1.196s-0.128,1.295-0.37,1.638c-0.3,0.424-0.909,1.544-1.413,1.671
	c-0.426,0.107-2.422,0.75-2.422,0.75s1.249,1.118,1.749,1.354c0.665,0.313,2.133,0.62,2.867,0.648
	c0.465,0.018,2.661-0.913,2.661-0.913s-0.866,1.61-1.084,1.817c-0.446,0.422-1.808,0.428-2.422,0.412
	c-0.868-0.023-3.389-0.766-3.389-0.766s0.175,1.072,0.377,1.362c0.228,0.328,0.915,0.812,1.296,0.934
	c2.134,0.684,3.713,0.537,4.264,0.322c0.753-0.294,1.913-0.889,2.551-1.385c0.243-0.189,0.988-0.736,0.988-0.736
	s-0.265,1.173-0.353,1.564c-0.133,0.587-0.246,1.816-0.53,2.346c-0.276,0.515-1.1,1.055-1.628,1.305
	c-0.411,0.194-2.422,0.208-2.422,0.208s1.254,1.051,1.52,1.153c0.438,0.168,1.448,0.146,1.911,0.071
	c0.258-0.042,0.929-0.475,0.929-0.475s-0.079,0.716-0.206,0.912c-0.336,0.516-1.425,1.197-1.976,1.471
	c-1.128,0.56-3.582,1.5-4.837,1.4c-0.955-0.076-2.628-1.17-3.467-1.633c-1.119-0.618-3.105-1.323-4.364-1.542
	c-0.839-0.146-2.45-0.392-3.581-0.41c-0.911-0.015-2.407,0.32-3.316,0.256c-3.466-0.241-10.458-1.489-13.555-3.063
	C47.365,13.929,46.098,13.159,45.996,12.522z"/>
</svg>
