<?xml version="1.0" encoding="utf-8"?>
<!-- Generator: Adobe Illustrator 17.0.0, SVG Export Plug-In . SVG Version: 6.00 Build 0)  -->
<!DOCTYPE svg PUBLIC "-//W3C//DTD SVG 1.1//EN" "http://www.w3.org/Graphics/SVG/1.1/DTD/svg11.dtd">
<svg version="1.1" id="Layer_1" xmlns="http://www.w3.org/2000/svg" xmlns:xlink="http://www.w3.org/1999/xlink" x="0px" y="0px"
	 width="40.202px" height="16.407px" viewBox="0 0 40.202 16.407" enable-background="new 0 0 40.202 16.407" xml:space="preserve">
<ellipse fill="#E6E8EE" cx="7.749" cy="8.204" rx="7.749" ry="7.951"/>
<ellipse fill="#3A3A3A" cx="7.777" cy="7.652" rx="5.326" ry="5.465"/>
<path fill="#929393" d="M6.407,8.234C6.156,8.122,5.518,8.281,5.336,8.488C5.213,8.629,5.135,9.093,5.259,9.233
	c0.14,0.159,0.654,0.108,0.847,0.022C6.29,9.173,6.603,8.841,6.628,8.641C6.643,8.526,6.513,8.281,6.407,8.234z"/>
<ellipse fill="#E6E8EE" cx="32.207" cy="8.204" rx="7.995" ry="8.204"/>
<ellipse fill="#3A3A3A" cx="32.237" cy="7.634" rx="5.496" ry="5.639"/>
<path fill="#929393" d="M29.88,7.561c-0.281-0.076-0.92,0.195-1.076,0.441c-0.106,0.167-0.11,0.664,0.042,0.791
	c0.172,0.143,0.7,0.006,0.888-0.116c0.179-0.116,0.45-0.514,0.444-0.727C30.174,7.826,29.998,7.592,29.88,7.561z"/>
</svg>
