<?xml version="1.0" encoding="utf-8"?>
<!-- Generator: Adobe Illustrator 17.0.0, SVG Export Plug-In . SVG Version: 6.00 Build 0)  -->
<!DOCTYPE svg PUBLIC "-//W3C//DTD SVG 1.1//EN" "http://www.w3.org/Graphics/SVG/1.1/DTD/svg11.dtd">
<svg version="1.1" id="Layer_1" xmlns="http://www.w3.org/2000/svg" xmlns:xlink="http://www.w3.org/1999/xlink" x="0px" y="0px"
	 width="42.376px" height="19.268px" viewBox="0 0 42.376 19.268" enable-background="new 0 0 42.376 19.268" xml:space="preserve">
<ellipse fill="#E6E8EE" cx="34.828" cy="11.278" rx="7.415" ry="7.608"/>
<ellipse fill="#080907" cx="34.853" cy="10.791" rx="4.144" ry="4.253"/>
<path fill="#E4E9F0" d="M34.251,8.523c0.033-0.246-0.268-0.758-0.493-0.863c-0.154-0.071-0.575-0.02-0.666,0.123
	c-0.102,0.162,0.073,0.594,0.197,0.739c0.118,0.138,0.486,0.325,0.666,0.296C34.059,8.803,34.238,8.627,34.251,8.523z"/>
<path fill="#282828" d="M28.562,15.184c0,0,3.12,2.121,6.466,2.071c4.119-0.061,6.309-2.329,6.309-2.329s-1.27,3.881-6.18,4.066
	C30.229,19.177,28.562,15.184,28.562,15.184z"/>
<linearGradient id="SVGID_1_" gradientUnits="userSpaceOnUse" x1="28.5616" y1="16.8235" x2="41.337" y2="16.8235">
	<stop  offset="0" style="stop-color:#7FC1C9"/>
	<stop  offset="0.0352" style="stop-color:#C4DBCC"/>
	<stop  offset="0.3218" style="stop-color:#8EA2BE"/>
	<stop  offset="0.6289" style="stop-color:#6076B0"/>
	<stop  offset="0.8547" style="stop-color:#425FA8"/>
	<stop  offset="0.9727" style="stop-color:#3657A7"/>
</linearGradient>
<path fill="url(#SVGID_1_)" d="M28.562,15.184c0,0,3.12,1.845,6.466,1.795c4.119-0.061,6.309-2.053,6.309-2.053
	s-1.487,3.644-6.18,3.79C30.427,18.864,28.562,15.184,28.562,15.184z"/>
<path fill="#282828" d="M41.236,7.106c0,0-3.166-1.845-6.561-1.795c-4.179,0.061-6.401,2.053-6.401,2.053s1.509-3.644,6.27-3.79
	C39.344,3.427,41.236,7.106,41.236,7.106z"/>
<linearGradient id="SVGID_2_" gradientUnits="userSpaceOnUse" x1="-10512.002" y1="-12225.4453" x2="-10499.04" y2="-12225.4453" gradientTransform="matrix(-1 0 0 -1 -10470.7656 -12219.7031)">
	<stop  offset="0" style="stop-color:#7FC1C9"/>
	<stop  offset="0.0352" style="stop-color:#C4DBCC"/>
	<stop  offset="0.3218" style="stop-color:#8EA2BE"/>
	<stop  offset="0.6289" style="stop-color:#6076B0"/>
	<stop  offset="0.8547" style="stop-color:#425FA8"/>
	<stop  offset="0.9727" style="stop-color:#3657A7"/>
</linearGradient>
<path fill="url(#SVGID_2_)" d="M41.236,7.382c0,0-3.166-1.845-6.561-1.795c-4.179,0.061-6.401,2.053-6.401,2.053
	s1.509-3.644,6.27-3.79C39.344,3.702,41.236,7.382,41.236,7.382z"/>
<path fill="#282828" d="M40.456,2.772c-1.462-0.705-9.787-2.289-13.262,0.281c-1.703,1.259-2.342,2.457-2.411,3.859
	c-0.215,4.364,2.591,4.569,3.615,3.677C29.808,9.36,29.216,9.421,31.031,8c2.933-2.296,11.079-1.072,11.29-3.245
	C42.43,3.635,41.679,3.363,40.456,2.772z"/>
<linearGradient id="SVGID_3_" gradientUnits="userSpaceOnUse" x1="642.2573" y1="-514.7587" x2="642.2573" y2="-504.7305" gradientTransform="matrix(0.9953 0.0966 -0.0966 0.9953 -654.9767 451.4599)">
	<stop  offset="0" style="stop-color:#F6B1CF"/>
	<stop  offset="0.1382" style="stop-color:#EEA3C2"/>
	<stop  offset="0.4018" style="stop-color:#DF84A6"/>
	<stop  offset="0.7603" style="stop-color:#CB5082"/>
	<stop  offset="1" style="stop-color:#BE1E6C"/>
</linearGradient>
<path fill="url(#SVGID_3_)" d="M40.5,2.317c-1.462-0.705-9.787-2.289-13.262,0.281c-1.703,1.259-2.342,2.457-2.411,3.859
	c-0.215,4.364,2.591,4.569,3.615,3.677c1.411-1.23,0.819-1.168,2.634-2.589c2.933-2.296,11.079-1.072,11.29-3.245
	C42.474,3.18,41.723,2.908,40.5,2.317z"/>
<ellipse fill="#E6E8EE" cx="10.312" cy="11.548" rx="7.415" ry="7.608"/>
<ellipse fill="#080907" cx="10.337" cy="11.061" rx="4.144" ry="4.253"/>
<path fill="#E4E9F0" d="M9.736,8.793c0.033-0.246-0.268-0.758-0.493-0.863c-0.154-0.071-0.575-0.02-0.666,0.123
	C8.475,8.216,8.65,8.648,8.774,8.793C8.892,8.932,9.26,9.118,9.44,9.089C9.543,9.073,9.722,8.897,9.736,8.793z"/>
<path fill="#282828" d="M4.046,15.454c0,0,3.12,2.121,6.466,2.071c4.119-0.061,6.309-2.329,6.309-2.329s-1.27,3.881-6.18,4.066
	C5.713,19.447,4.046,15.454,4.046,15.454z"/>
<linearGradient id="SVGID_4_" gradientUnits="userSpaceOnUse" x1="4.0458" y1="17.0933" x2="16.8213" y2="17.0933">
	<stop  offset="0" style="stop-color:#7FC1C9"/>
	<stop  offset="0.0352" style="stop-color:#C4DBCC"/>
	<stop  offset="0.3218" style="stop-color:#8EA2BE"/>
	<stop  offset="0.6289" style="stop-color:#6076B0"/>
	<stop  offset="0.8547" style="stop-color:#425FA8"/>
	<stop  offset="0.9727" style="stop-color:#3657A7"/>
</linearGradient>
<path fill="url(#SVGID_4_)" d="M4.046,15.454c0,0,3.12,1.845,6.466,1.795c4.119-0.061,6.309-2.053,6.309-2.053
	s-1.487,3.644-6.18,3.79C5.911,19.133,4.046,15.454,4.046,15.454z"/>
<path fill="#282828" d="M16.721,7.376c0,0-3.166-1.845-6.561-1.795C5.981,5.642,3.758,7.634,3.758,7.634s1.509-3.644,6.27-3.79
	C14.828,3.696,16.721,7.376,16.721,7.376z"/>
<linearGradient id="SVGID_5_" gradientUnits="userSpaceOnUse" x1="-10487.4863" y1="-12225.7148" x2="-10474.5244" y2="-12225.7148" gradientTransform="matrix(-1 0 0 -1 -10470.7656 -12219.7031)">
	<stop  offset="0" style="stop-color:#7FC1C9"/>
	<stop  offset="0.0352" style="stop-color:#C4DBCC"/>
	<stop  offset="0.3218" style="stop-color:#8EA2BE"/>
	<stop  offset="0.6289" style="stop-color:#6076B0"/>
	<stop  offset="0.8547" style="stop-color:#425FA8"/>
	<stop  offset="0.9727" style="stop-color:#3657A7"/>
</linearGradient>
<path fill="url(#SVGID_5_)" d="M16.721,7.652c0,0-3.166-1.845-6.561-1.795C5.981,5.918,3.758,7.909,3.758,7.909
	s1.509-3.644,6.27-3.79C14.828,3.972,16.721,7.652,16.721,7.652z"/>
<path fill="#282828" d="M15.665,1.819c2.488,1.315,4.23,2.947,4.603,4.722c0.301,1.433,0.411,2.636-0.578,3.59
	c-2.646,2.555-4.386-1.704-7.017-2.856C7.782,5.133,2.542,5.239,1.599,4.825C1.125,4.618-0.239,3.937,0.036,3.374
	C1.844-0.314,12.201-0.012,15.665,1.819z"/>
<linearGradient id="SVGID_6_" gradientUnits="userSpaceOnUse" x1="10.2395" y1="5.281454e-07" x2="10.2395" y2="10.4335">
	<stop  offset="0" style="stop-color:#F6B1CF"/>
	<stop  offset="0.1382" style="stop-color:#EEA3C2"/>
	<stop  offset="0.4018" style="stop-color:#DF84A6"/>
	<stop  offset="0.7603" style="stop-color:#CB5082"/>
	<stop  offset="1" style="stop-color:#BE1E6C"/>
</linearGradient>
<path fill="url(#SVGID_6_)" d="M15.665,1.319c2.488,1.315,4.23,2.947,4.603,4.722c0.301,1.433,0.411,2.636-0.578,3.59
	c-2.646,2.555-4.386-1.704-7.017-2.856C7.782,4.634,2.542,4.739,1.599,4.326C1.125,4.118-0.239,3.437,0.036,2.874
	C1.844-0.814,12.201-0.512,15.665,1.319z"/>
</svg>
