<?xml version="1.0" encoding="utf-8"?>
<!-- Generator: Adobe Illustrator 17.0.0, SVG Export Plug-In . SVG Version: 6.00 Build 0)  -->
<!DOCTYPE svg PUBLIC "-//W3C//DTD SVG 1.1//EN" "http://www.w3.org/Graphics/SVG/1.1/DTD/svg11.dtd">
<svg version="1.1" id="Layer_1" xmlns="http://www.w3.org/2000/svg" xmlns:xlink="http://www.w3.org/1999/xlink" x="0px" y="0px"
	 width="44.228px" height="7.883px" viewBox="0 0 44.228 7.883" enable-background="new 0 0 44.228 7.883" xml:space="preserve">
<ellipse fill="#121212" cx="3.712" cy="5.374" rx="2.582" ry="2.509"/>
<ellipse fill="#121212" cx="41.501" cy="4.028" rx="2.582" ry="2.509"/>
<path fill="#121212" d="M0.464,1.671C1.07,1.183,2.535,1.219,3.215,1.228C4.051,1.24,5.702,1.517,6.449,1.864
	C6.993,2.117,8.003,2.956,8.22,3.606c0.115,0.344,0.142,1.27-0.105,1.565C7.807,5.537,6.862,5.453,6.495,5.31
	C6.088,5.151,5.629,4.202,5.252,3.975C4.607,3.586,3.099,3.347,2.358,3.226C1.938,3.157,1.034,3.275,0.645,3.104
	C0.45,3.019,0.012,2.764,0,2.505C-0.01,2.274,0.29,1.811,0.464,1.671z"/>
<path fill="#121212" d="M43.653,0.29c-0.6-0.419-1.76-0.278-2.301-0.22c-0.664,0.072-1.916,0.455-2.429,0.839
	c-0.374,0.28-0.979,1.151-0.998,1.784c-0.01,0.335,0.189,1.217,0.457,1.479c0.333,0.326,1.066,0.176,1.326,0.014
	c0.287-0.18,0.427-1.115,0.674-1.358c0.422-0.417,1.568-0.754,2.13-0.922c0.32-0.096,1.068-0.05,1.338-0.24
	c0.135-0.096,0.424-0.37,0.372-0.616C44.175,0.828,43.824,0.41,43.653,0.29z"/>
</svg>
