<?xml version="1.0" encoding="utf-8"?>
<!-- Generator: Adobe Illustrator 17.0.0, SVG Export Plug-In . SVG Version: 6.00 Build 0)  -->
<!DOCTYPE svg PUBLIC "-//W3C//DTD SVG 1.1//EN" "http://www.w3.org/Graphics/SVG/1.1/DTD/svg11.dtd">
<svg version="1.1" id="Layer_1" xmlns="http://www.w3.org/2000/svg" xmlns:xlink="http://www.w3.org/1999/xlink" x="0px" y="0px"
	 width="79.882px" height="18.02px" viewBox="0 0 79.882 18.02" enable-background="new 0 0 79.882 18.02" xml:space="preserve">
<g>
	<linearGradient id="SVGID_1_" gradientUnits="userSpaceOnUse" x1="-6.713472e-07" y1="9.0099" x2="79.8817" y2="9.0099">
		<stop  offset="0" style="stop-color:#191E17"/>
		<stop  offset="0.6466" style="stop-color:#1B2120"/>
		<stop  offset="0.9955" style="stop-color:#122630"/>
	</linearGradient>
	<path fill="url(#SVGID_1_)" d="M0,0l79.882,0c0,0-15.401,13.007-22.247,16.744C51.89,19.879,43.445,7.672,40.671,5.198
		c-0.48-0.428-1.508-1.387-2.151-1.411c-0.66-0.024-1.808,0.853-2.309,1.283c-3.018,2.59-11.039,15.855-16.303,12.371
		C13.802,13.4,0,0,0,0z"/>
	<linearGradient id="SVGID_2_" gradientUnits="userSpaceOnUse" x1="13.6107" y1="6.2323" x2="24.4257" y2="6.2323">
		<stop  offset="0" style="stop-color:#191E17"/>
		<stop  offset="0.0356" style="stop-color:#1B2120"/>
		<stop  offset="0.7743" style="stop-color:#320D2E"/>
		<stop  offset="0.9955" style="stop-color:#122630"/>
	</linearGradient>
	<polygon fill="url(#SVGID_2_)" points="13.611,7.67 19.087,2.468 24.426,2.468 17.033,9.997 	"/>
	<linearGradient id="SVGID_3_" gradientUnits="userSpaceOnUse" x1="19.908" y1="8.0804" x2="33.5978" y2="8.0804">
		<stop  offset="0" style="stop-color:#191E17"/>
		<stop  offset="0.0356" style="stop-color:#1B2120"/>
		<stop  offset="0.7743" style="stop-color:#320D2E"/>
		<stop  offset="0.9955" style="stop-color:#122630"/>
	</linearGradient>
	<polygon fill="url(#SVGID_3_)" points="19.908,11.366 29.08,2.468 33.598,2.468 23.33,13.693 	"/>
	<linearGradient id="SVGID_4_" gradientUnits="userSpaceOnUse" x1="46.4663" y1="5.7733" x2="54.8171" y2="5.7733">
		<stop  offset="0" style="stop-color:#191E17"/>
		<stop  offset="0.0356" style="stop-color:#1B2120"/>
		<stop  offset="0.7743" style="stop-color:#320D2E"/>
		<stop  offset="0.9955" style="stop-color:#122630"/>
	</linearGradient>
	<polygon fill="url(#SVGID_4_)" points="46.466,6.232 50.847,2.468 54.817,2.468 48.657,9.079 	"/>
	<linearGradient id="SVGID_5_" gradientUnits="userSpaceOnUse" x1="50.6417" y1="8.9702" x2="64.9475" y2="8.9702">
		<stop  offset="0" style="stop-color:#191E17"/>
		<stop  offset="0.0356" style="stop-color:#1B2120"/>
		<stop  offset="0.7743" style="stop-color:#320D2E"/>
		<stop  offset="0.9955" style="stop-color:#122630"/>
	</linearGradient>
	<polygon fill="url(#SVGID_5_)" points="50.642,11.64 59.609,3.289 64.948,3.289 53.311,14.652 	"/>
	<radialGradient id="SVGID_6_" cx="66.3462" cy="4.5878" r="1.329" gradientUnits="userSpaceOnUse">
		<stop  offset="0.1174" style="stop-color:#DEDBC0"/>
		<stop  offset="1" style="stop-color:#FFFFFF;stop-opacity:0"/>
	</radialGradient>
	<path fill="url(#SVGID_6_)" d="M66.314,3.137c0,0-0.174,0.873-0.333,1.027c-0.204,0.197-0.829,0.382-0.829,0.382
		s0.647,0.212,0.849,0.442c0.17,0.193,0.389,1.05,0.389,1.05s0.194-0.871,0.36-1.073c0.167-0.203,0.79-0.49,0.79-0.49
		s-0.643-0.149-0.832-0.33C66.541,3.984,66.314,3.137,66.314,3.137z"/>
	<radialGradient id="SVGID_7_" cx="15.5713" cy="7.5046" r="1.3424" gradientUnits="userSpaceOnUse">
		<stop  offset="0.1174" style="stop-color:#DEDBC0"/>
		<stop  offset="1" style="stop-color:#FFFFFF;stop-opacity:0"/>
	</radialGradient>
	<path fill="url(#SVGID_7_)" d="M15.539,6.039c0,0-0.175,0.882-0.337,1.038c-0.206,0.199-0.837,0.386-0.837,0.386
		s0.653,0.215,0.858,0.447c0.171,0.195,0.393,1.061,0.393,1.061s0.196-0.88,0.364-1.084c0.169-0.205,0.798-0.495,0.798-0.495
		s-0.65-0.151-0.84-0.334C15.768,6.894,15.539,6.039,15.539,6.039z"/>
	<radialGradient id="SVGID_8_" cx="11.7169" cy="3.289" r="2.107" gradientUnits="userSpaceOnUse">
		<stop  offset="0.1174" style="stop-color:#DEDBC0"/>
		<stop  offset="1" style="stop-color:#FFFFFF;stop-opacity:0"/>
	</radialGradient>
	<path fill="url(#SVGID_8_)" d="M11.665,0.988c0,0-0.275,1.384-0.529,1.629C10.813,2.93,9.823,3.223,9.823,3.223
		s1.026,0.337,1.347,0.701c0.269,0.306,0.617,1.665,0.617,1.665s0.307-1.381,0.571-1.701c0.265-0.321,1.253-0.777,1.253-0.777
		s-1.02-0.237-1.319-0.524C12.025,2.331,11.665,0.988,11.665,0.988z"/>
</g>
</svg>
