<?xml version="1.0" encoding="utf-8"?>
<!-- Generator: Adobe Illustrator 17.0.0, SVG Export Plug-In . SVG Version: 6.00 Build 0)  -->
<!DOCTYPE svg PUBLIC "-//W3C//DTD SVG 1.1//EN" "http://www.w3.org/Graphics/SVG/1.1/DTD/svg11.dtd">
<svg version="1.1" id="Layer_1" xmlns="http://www.w3.org/2000/svg" xmlns:xlink="http://www.w3.org/1999/xlink" x="0px" y="0px"
	 width="69.376px" height="50.88px" viewBox="0 0 69.376 50.88" enable-background="new 0 0 69.376 50.88" xml:space="preserve">
<g>
	<g>
		
			<image overflow="visible" opacity="0.5" width="70" height="61" xlink:href="A732C1B23EF1EC61.png"  transform="matrix(0.48 0 0 0.48 0 13.2593)">
		</image>
		<g>
			<path fill="#0A8E6F" d="M9.858,22.432c-1.456,1.204-0.93,4.86,0.611,7.534c3.168,5.498,10.521,3.869,13.123-0.202
				c1-1.564,1.384-6.157-0.023-7.332c-0.26-0.218-1.121-0.244-1.358,0c-1.047,1.079,1.018,2.953-0.701,5.973
				c-0.977,1.715-4.6,4.929-8.326,1.629c-3.258-2.885-1.043-5.98-2.172-7.602C10.847,22.196,10.081,22.249,9.858,22.432z"/>
		</g>
	</g>
	<g>
		
			<image overflow="visible" opacity="0.5" width="66" height="61" xlink:href="A732C1B23EF1EC63.png"  transform="matrix(0.48 0 0 0.48 37.6956 12.2348)">
		</image>
		<g>
			<path fill="#0A8E6F" d="M58.948,21.292c1.454,0.803,1.594,4.046,0.698,6.606c-1.841,5.264-8.457,5.053-11.366,1.96
				c-1.118-1.188-2.197-5.092-1.173-6.336c0.189-0.23,0.929-0.393,1.172-0.221c1.08,0.762-0.399,2.716,1.577,5.045
				c1.122,1.323,4.774,3.508,7.456,0.052c2.345-3.021-0.072-5.334,0.639-6.919C58.055,21.249,58.726,21.17,58.948,21.292z"/>
		</g>
	</g>
	<g>
		
			<image overflow="visible" opacity="0.4" width="68" height="106" xlink:href="A732C1B23EF1EC66.png"  transform="matrix(0.48 0 0 0.48 19.2822 0)">
		</image>
		<g>
			<linearGradient id="SVGID_1_" gradientUnits="userSpaceOnUse" x1="25.2822" y1="25.4049" x2="45.611" y2="25.4049">
				<stop  offset="0.1846" style="stop-color:#58C1AA"/>
				<stop  offset="0.349" style="stop-color:#5CC2AB"/>
				<stop  offset="0.4774" style="stop-color:#69C5B0"/>
				<stop  offset="0.5936" style="stop-color:#7BCBB8"/>
				<stop  offset="0.7026" style="stop-color:#94D3C3"/>
				<stop  offset="0.8066" style="stop-color:#B2DED2"/>
				<stop  offset="0.9055" style="stop-color:#D5EDE6"/>
				<stop  offset="0.9935" style="stop-color:#FFFFFF"/>
			</linearGradient>
			<path fill="url(#SVGID_1_)" d="M28.117,7.357C26.801,8.274,24.75,23.1,25.41,28.351c0.549,4.367,2.006,15.839,6.509,16.429
				c5.552,0.728,11.86-12.218,13.304-17.459c1.346-4.883-1.141-19.605-2.379-20.085C39.411,5.904,31.138,5.252,28.117,7.357z"/>
		</g>
	</g>
</g>
</svg>
