<?xml version="1.0" encoding="utf-8"?>
<!-- Generator: Adobe Illustrator 17.0.0, SVG Export Plug-In . SVG Version: 6.00 Build 0)  -->
<!DOCTYPE svg PUBLIC "-//W3C//DTD SVG 1.1//EN" "http://www.w3.org/Graphics/SVG/1.1/DTD/svg11.dtd">
<svg version="1.1" id="Layer_1" xmlns="http://www.w3.org/2000/svg" xmlns:xlink="http://www.w3.org/1999/xlink" x="0px" y="0px"
	 width="54.531px" height="30.8px" viewBox="0 0 54.531 30.8" enable-background="new 0 0 54.531 30.8" xml:space="preserve">
<g>
	
		<image overflow="visible" opacity="0.2" width="56" height="57" xlink:href="D93B6BCEA96CA539.png"  transform="matrix(0.48 0 0 0.48 27.4131 3.1699)">
	</image>
	<g>
		<ellipse fill="#E6E8EE" cx="40.828" cy="16.778" rx="7.415" ry="7.608"/>
	</g>
</g>
<ellipse fill="#080907" cx="40.853" cy="16.291" rx="4.144" ry="4.253"/>
<path fill="#E4E9F0" d="M40.251,14.024c0.033-0.246-0.268-0.758-0.493-0.863c-0.154-0.071-0.575-0.02-0.666,0.123
	c-0.102,0.162,0.073,0.594,0.197,0.739c0.118,0.138,0.486,0.325,0.666,0.296C40.059,14.303,40.238,14.127,40.251,14.024z"/>
<path fill="#282828" d="M34.562,20.684c0,0,3.12,2.121,6.466,2.071c4.119-0.061,6.309-2.329,6.309-2.329s-1.27,3.881-6.18,4.066
	C36.229,24.677,34.562,20.684,34.562,20.684z"/>
<linearGradient id="SVGID_1_" gradientUnits="userSpaceOnUse" x1="34.5616" y1="22.3238" x2="47.337" y2="22.3238">
	<stop  offset="0" style="stop-color:#7FC1C9"/>
	<stop  offset="0.0352" style="stop-color:#C4DBCC"/>
	<stop  offset="0.3218" style="stop-color:#8EA2BE"/>
	<stop  offset="0.6289" style="stop-color:#6076B0"/>
	<stop  offset="0.8547" style="stop-color:#425FA8"/>
	<stop  offset="0.9727" style="stop-color:#3657A7"/>
</linearGradient>
<path fill="url(#SVGID_1_)" d="M34.562,20.684c0,0,3.12,1.845,6.466,1.795c4.119-0.061,6.309-2.053,6.309-2.053
	s-1.487,3.644-6.18,3.79C36.427,24.364,34.562,20.684,34.562,20.684z"/>
<path fill="#282828" d="M47.236,12.606c0,0-3.166-1.845-6.561-1.795c-4.179,0.061-6.401,2.053-6.401,2.053s1.509-3.644,6.27-3.79
	C45.344,8.927,47.236,12.606,47.236,12.606z"/>
<linearGradient id="SVGID_2_" gradientUnits="userSpaceOnUse" x1="-10419.7197" y1="-12186.8174" x2="-10406.7578" y2="-12186.8174" gradientTransform="matrix(-1 0 0 -1 -10372.4834 -12175.5742)">
	<stop  offset="0" style="stop-color:#7FC1C9"/>
	<stop  offset="0.0352" style="stop-color:#C4DBCC"/>
	<stop  offset="0.3218" style="stop-color:#8EA2BE"/>
	<stop  offset="0.6289" style="stop-color:#6076B0"/>
	<stop  offset="0.8547" style="stop-color:#425FA8"/>
	<stop  offset="0.9727" style="stop-color:#3657A7"/>
</linearGradient>
<path fill="url(#SVGID_2_)" d="M47.236,12.882c0,0-3.166-1.845-6.561-1.795c-4.179,0.061-6.401,2.053-6.401,2.053
	s1.509-3.644,6.27-3.79C45.344,9.203,47.236,12.882,47.236,12.882z"/>
<g>
	
		<image overflow="visible" opacity="0.2" width="62" height="45" xlink:href="D93B6BCEA96CA53B.png"  transform="matrix(0.48 0 0 0.48 24.7708 1.1408)">
	</image>
	<g>
		<path fill="#282828" d="M46.456,8.273c-1.462-0.705-9.787-2.289-13.262,0.281c-1.703,1.259-2.342,2.457-2.411,3.859
			c-0.215,4.364,2.591,4.569,3.615,3.677c1.411-1.23,0.819-1.168,2.634-2.589c2.933-2.296,11.079-1.072,11.29-3.245
			C48.43,9.135,47.679,8.863,46.456,8.273z"/>
	</g>
</g>
<linearGradient id="SVGID_3_" gradientUnits="userSpaceOnUse" x1="646.8589" y1="-505.0134" x2="646.8589" y2="-494.9852" gradientTransform="matrix(0.9953 0.0966 -0.0966 0.9953 -652.6154 446.816)">
	<stop  offset="0" style="stop-color:#F6B1CF"/>
	<stop  offset="0.1382" style="stop-color:#EEA3C2"/>
	<stop  offset="0.4018" style="stop-color:#DF84A6"/>
	<stop  offset="0.7603" style="stop-color:#CB5082"/>
	<stop  offset="1" style="stop-color:#BE1E6C"/>
</linearGradient>
<path fill="url(#SVGID_3_)" d="M46.5,7.818c-1.462-0.705-9.787-2.289-13.262,0.281c-1.703,1.259-2.342,2.457-2.411,3.859
	c-0.215,4.364,2.591,4.569,3.615,3.677c1.411-1.23,0.819-1.168,2.634-2.589c2.933-2.296,11.079-1.072,11.29-3.245
	C48.474,8.68,47.723,8.408,46.5,7.818z"/>
<g>
	
		<image overflow="visible" opacity="0.2" width="56" height="57" xlink:href="D93B6BCEA96CA53E.png"  transform="matrix(0.48 0 0 0.48 2.8974 3.4398)">
	</image>
	<g>
		<ellipse fill="#E6E8EE" cx="16.312" cy="17.048" rx="7.415" ry="7.608"/>
	</g>
</g>
<ellipse fill="#080907" cx="16.337" cy="16.561" rx="4.144" ry="4.253"/>
<path fill="#E4E9F0" d="M15.736,14.294c0.033-0.246-0.268-0.758-0.493-0.863c-0.154-0.071-0.575-0.02-0.666,0.123
	c-0.102,0.162,0.073,0.594,0.197,0.739c0.118,0.138,0.486,0.325,0.666,0.296C15.543,14.573,15.722,14.397,15.736,14.294z"/>
<path fill="#282828" d="M10.046,20.954c0,0,3.12,2.121,6.466,2.071c4.119-0.061,6.309-2.329,6.309-2.329s-1.27,3.881-6.18,4.066
	C11.713,24.947,10.046,20.954,10.046,20.954z"/>
<linearGradient id="SVGID_4_" gradientUnits="userSpaceOnUse" x1="10.0458" y1="22.5937" x2="22.8213" y2="22.5937">
	<stop  offset="0" style="stop-color:#7FC1C9"/>
	<stop  offset="0.0352" style="stop-color:#C4DBCC"/>
	<stop  offset="0.3218" style="stop-color:#8EA2BE"/>
	<stop  offset="0.6289" style="stop-color:#6076B0"/>
	<stop  offset="0.8547" style="stop-color:#425FA8"/>
	<stop  offset="0.9727" style="stop-color:#3657A7"/>
</linearGradient>
<path fill="url(#SVGID_4_)" d="M10.046,20.954c0,0,3.12,1.845,6.466,1.795c4.119-0.061,6.309-2.053,6.309-2.053
	s-1.487,3.644-6.18,3.79C11.911,24.634,10.046,20.954,10.046,20.954z"/>
<path fill="#282828" d="M22.721,12.876c0,0-3.166-1.845-6.561-1.795c-4.179,0.061-6.401,2.053-6.401,2.053s1.509-3.644,6.27-3.79
	C20.828,9.197,22.721,12.876,22.721,12.876z"/>
<linearGradient id="SVGID_5_" gradientUnits="userSpaceOnUse" x1="-10395.2041" y1="-12187.0869" x2="-10382.2422" y2="-12187.0869" gradientTransform="matrix(-1 0 0 -1 -10372.4834 -12175.5742)">
	<stop  offset="0" style="stop-color:#7FC1C9"/>
	<stop  offset="0.0352" style="stop-color:#C4DBCC"/>
	<stop  offset="0.3218" style="stop-color:#8EA2BE"/>
	<stop  offset="0.6289" style="stop-color:#6076B0"/>
	<stop  offset="0.8547" style="stop-color:#425FA8"/>
	<stop  offset="0.9727" style="stop-color:#3657A7"/>
</linearGradient>
<path fill="url(#SVGID_5_)" d="M22.721,13.152c0,0-3.166-1.845-6.561-1.795c-4.179,0.061-6.401,2.053-6.401,2.053
	s1.509-3.644,6.27-3.79C20.828,9.473,22.721,13.152,22.721,13.152z"/>
<g>
	
		<image overflow="visible" opacity="0.2" width="68" height="47" xlink:href="D93B6BCEA96CA53F.png"  transform="matrix(0.48 0 0 0.48 0 0)">
	</image>
	<g>
		<path fill="#282828" d="M21.665,7.319c2.488,1.315,4.23,2.947,4.603,4.722c0.301,1.433,0.411,2.636-0.578,3.59
			c-2.646,2.555-4.386-1.704-7.017-2.856c-4.89-2.141-10.13-2.035-11.073-2.449c-0.473-0.208-1.838-0.889-1.562-1.452
			C7.844,5.186,18.201,5.488,21.665,7.319z"/>
	</g>
</g>
<linearGradient id="SVGID_6_" gradientUnits="userSpaceOnUse" x1="16.2395" y1="5.5003" x2="16.2395" y2="15.9338">
	<stop  offset="0" style="stop-color:#F6B1CF"/>
	<stop  offset="0.1382" style="stop-color:#EEA3C2"/>
	<stop  offset="0.4018" style="stop-color:#DF84A6"/>
	<stop  offset="0.7603" style="stop-color:#CB5082"/>
	<stop  offset="1" style="stop-color:#BE1E6C"/>
</linearGradient>
<path fill="url(#SVGID_6_)" d="M21.665,6.819c2.488,1.315,4.23,2.947,4.603,4.722c0.301,1.433,0.411,2.636-0.578,3.59
	c-2.646,2.555-4.386-1.704-7.017-2.856c-4.89-2.141-10.13-2.035-11.073-2.449C7.125,9.618,5.761,8.937,6.036,8.374
	C7.844,4.687,18.201,4.989,21.665,6.819z"/>
</svg>
