<?xml version="1.0" encoding="utf-8"?>
<!-- Generator: Adobe Illustrator 17.0.0, SVG Export Plug-In . SVG Version: 6.00 Build 0)  -->
<!DOCTYPE svg PUBLIC "-//W3C//DTD SVG 1.1//EN" "http://www.w3.org/Graphics/SVG/1.1/DTD/svg11.dtd">
<svg version="1.1" id="Layer_1" xmlns="http://www.w3.org/2000/svg" xmlns:xlink="http://www.w3.org/1999/xlink" x="0px" y="0px"
	 width="42.658px" height="18.502px" viewBox="0 0 42.658 18.502" enable-background="new 0 0 42.658 18.502" xml:space="preserve">
<g>
	<linearGradient id="SVGID_1_" gradientUnits="userSpaceOnUse" x1="6.282971e-07" y1="9.2512" x2="18.0316" y2="9.2512">
		<stop  offset="0" style="stop-color:#802D28"/>
		<stop  offset="0.5145" style="stop-color:#D35527"/>
		<stop  offset="0.9853" style="stop-color:#7E1416"/>
	</linearGradient>
	<ellipse fill="url(#SVGID_1_)" cx="9.016" cy="9.251" rx="9.016" ry="9.251"/>
	<ellipse fill="#E6E8EE" cx="8.985" cy="9.244" rx="8.42" ry="8.639"/>
	<linearGradient id="SVGID_2_" gradientUnits="userSpaceOnUse" x1="1.9475" y1="8.7557" x2="16.0841" y2="8.7557">
		<stop  offset="0" style="stop-color:#4688BD"/>
		<stop  offset="0.0243" style="stop-color:#6E9CC9"/>
		<stop  offset="0.0508" style="stop-color:#90B0D5"/>
		<stop  offset="0.0799" style="stop-color:#AEC4E0"/>
		<stop  offset="0.1118" style="stop-color:#C8D6EA"/>
		<stop  offset="0.1474" style="stop-color:#DEE5F1"/>
		<stop  offset="0.189" style="stop-color:#EEF2F8"/>
		<stop  offset="0.242" style="stop-color:#FAFBFD"/>
		<stop  offset="0.3454" style="stop-color:#FFFFFF"/>
		<stop  offset="0.808" style="stop-color:#4D97D2"/>
		<stop  offset="0.9853" style="stop-color:#366D98"/>
	</linearGradient>
	<ellipse fill="url(#SVGID_2_)" cx="9.016" cy="8.756" rx="7.068" ry="7.253"/>
	<ellipse fill="#080907" cx="9.016" cy="8.644" rx="5.788" ry="5.939"/>
	<path fill="#E4E9F0" d="M6.806,5.116c0.041-0.303-0.33-0.934-0.607-1.063C6.01,3.965,5.49,4.028,5.379,4.205
		c-0.126,0.199,0.09,0.732,0.243,0.911c0.146,0.171,0.598,0.4,0.82,0.364C6.569,5.46,6.789,5.243,6.806,5.116z"/>
	<linearGradient id="SVGID_3_" gradientUnits="userSpaceOnUse" x1="28.0096" y1="9.2512" x2="42.6578" y2="9.2512">
		<stop  offset="0" style="stop-color:#802D28"/>
		<stop  offset="0.5145" style="stop-color:#D35527"/>
		<stop  offset="0.9853" style="stop-color:#7E1416"/>
	</linearGradient>
	<ellipse fill="url(#SVGID_3_)" cx="35.334" cy="9.251" rx="7.324" ry="7.515"/>
	<ellipse fill="#E6E8EE" cx="35.308" cy="9.245" rx="6.84" ry="7.018"/>
	<linearGradient id="SVGID_4_" gradientUnits="userSpaceOnUse" x1="29.5917" y1="8.8486" x2="41.0757" y2="8.8486">
		<stop  offset="0" style="stop-color:#4688BD"/>
		<stop  offset="0.0243" style="stop-color:#6E9CC9"/>
		<stop  offset="0.0508" style="stop-color:#90B0D5"/>
		<stop  offset="0.0799" style="stop-color:#AEC4E0"/>
		<stop  offset="0.1118" style="stop-color:#C8D6EA"/>
		<stop  offset="0.1474" style="stop-color:#DEE5F1"/>
		<stop  offset="0.189" style="stop-color:#EEF2F8"/>
		<stop  offset="0.242" style="stop-color:#FAFBFD"/>
		<stop  offset="0.3454" style="stop-color:#FFFFFF"/>
		<stop  offset="0.808" style="stop-color:#4D97D2"/>
		<stop  offset="0.9853" style="stop-color:#366D98"/>
	</linearGradient>
	<ellipse fill="url(#SVGID_4_)" cx="35.334" cy="8.849" rx="5.742" ry="5.892"/>
	<ellipse fill="#080907" cx="35.334" cy="8.758" rx="4.702" ry="4.824"/>
	<path fill="#E4E9F0" d="M34.732,6.489c0.033-0.246-0.268-0.759-0.493-0.863c-0.154-0.071-0.576-0.02-0.666,0.123
		c-0.102,0.162,0.073,0.594,0.197,0.74c0.118,0.139,0.486,0.325,0.666,0.296C34.539,6.768,34.718,6.592,34.732,6.489z"/>
	<linearGradient id="SVGID_5_" gradientUnits="userSpaceOnUse" x1="18.0316" y1="16.1875" x2="22.0085" y2="16.1875">
		<stop  offset="0" style="stop-color:#4688BD"/>
		<stop  offset="0.0088" style="stop-color:#4486BC"/>
		<stop  offset="0.0488" style="stop-color:#3E7BB8"/>
		<stop  offset="0.094" style="stop-color:#3874B6"/>
		<stop  offset="0.1468" style="stop-color:#356FB4"/>
		<stop  offset="0.2141" style="stop-color:#326CB4"/>
		<stop  offset="0.3454" style="stop-color:#326CB5"/>
		<stop  offset="0.808" style="stop-color:#4D97D2"/>
	</linearGradient>
	<path fill="url(#SVGID_5_)" stroke="#ED9377" stroke-miterlimit="10" d="M18.277,15.959c-0.396,0.431-0.239,0.888-0.04,1.087
		c0.298,0.298,1.289,0.142,1.687,0c0.627-0.224,2.304-1.067,2.061-1.687C21.814,14.923,18.942,15.235,18.277,15.959z"/>
	
		<linearGradient id="SVGID_6_" gradientUnits="userSpaceOnUse" x1="-1119.9214" y1="-1575.111" x2="-1115.9446" y2="-1575.111" gradientTransform="matrix(-0.3172 -0.5142 0.8511 -0.525 1012.4152 -1385.6244)">
		<stop  offset="0" style="stop-color:#4688BD"/>
		<stop  offset="0.0088" style="stop-color:#4486BC"/>
		<stop  offset="0.0488" style="stop-color:#3E7BB8"/>
		<stop  offset="0.094" style="stop-color:#3874B6"/>
		<stop  offset="0.1468" style="stop-color:#356FB4"/>
		<stop  offset="0.2141" style="stop-color:#326CB4"/>
		<stop  offset="0.3454" style="stop-color:#326CB5"/>
		<stop  offset="0.808" style="stop-color:#4D97D2"/>
	</linearGradient>
	<path fill="url(#SVGID_6_)" stroke="#ED9377" stroke-miterlimit="10" d="M26.818,17.19c0.492-0.023,0.831-0.343,0.938-0.55
		c0.159-0.31-0.288-0.737-0.535-0.867c-0.389-0.205-1.639-0.625-2.089-0.174C24.814,15.916,25.991,17.228,26.818,17.19z"/>
</g>
</svg>
