<?xml version="1.0" encoding="utf-8"?>
<!-- Generator: Adobe Illustrator 17.0.0, SVG Export Plug-In . SVG Version: 6.00 Build 0)  -->
<!DOCTYPE svg PUBLIC "-//W3C//DTD SVG 1.1//EN" "http://www.w3.org/Graphics/SVG/1.1/DTD/svg11.dtd">
<svg version="1.1" id="Layer_1" xmlns="http://www.w3.org/2000/svg" xmlns:xlink="http://www.w3.org/1999/xlink" x="0px" y="0px"
	 width="51.532px" height="12.33px" viewBox="0 0 51.532 12.33" enable-background="new 0 0 51.532 12.33" xml:space="preserve">
<path fill="#0A8E6F" d="M0.864,1.205c-1.466,1.212-0.936,4.891,0.615,7.583c3.188,5.533,10.588,3.894,13.207-0.204
	c1.006-1.574,1.393-6.196-0.023-7.379c-0.262-0.219-1.128-0.245-1.366,0c-1.053,1.086,1.025,2.972-0.706,6.011
	c-0.983,1.726-4.629,4.96-8.379,1.639c-3.279-2.903-1.05-6.018-2.186-7.651C1.859,0.967,1.087,1.02,0.864,1.205z"/>
<path fill="#0A8E6F" d="M50.266,0.058c1.463,0.808,1.604,4.072,0.703,6.648c-1.853,5.297-8.511,5.085-11.439,1.973
	c-1.125-1.196-2.211-5.124-1.181-6.376c0.191-0.232,0.935-0.395,1.18-0.222c1.087,0.767-0.402,2.733,1.588,5.077
	c1.13,1.331,4.805,3.531,7.503,0.053c2.359-3.041-0.072-5.368,0.643-6.963C49.368,0.014,50.043-0.066,50.266,0.058z"/>
</svg>
