<?xml version="1.0" encoding="utf-8"?>
<!-- Generator: Adobe Illustrator 17.0.0, SVG Export Plug-In . SVG Version: 6.00 Build 0)  -->
<!DOCTYPE svg PUBLIC "-//W3C//DTD SVG 1.1//EN" "http://www.w3.org/Graphics/SVG/1.1/DTD/svg11.dtd">
<svg version="1.1" id="Layer_1" xmlns="http://www.w3.org/2000/svg" xmlns:xlink="http://www.w3.org/1999/xlink" x="0px" y="0px"
	 width="52.091px" height="27.223px" viewBox="0 0 52.091 27.223" enable-background="new 0 0 52.091 27.223" xml:space="preserve">
<ellipse fill="#E6E8EE" cx="10.547" cy="16.401" rx="10.547" ry="10.823"/>
<linearGradient id="SVGID_1_" gradientUnits="userSpaceOnUse" x1="2.991" y1="15.789" x2="18.1815" y2="15.789">
	<stop  offset="0.0597" style="stop-color:#DBA797"/>
	<stop  offset="0.2188" style="stop-color:#AF8389"/>
	<stop  offset="0.4323" style="stop-color:#80607B"/>
	<stop  offset="0.625" style="stop-color:#5E4771"/>
	<stop  offset="0.7898" style="stop-color:#44376B"/>
	<stop  offset="0.9202" style="stop-color:#332E68"/>
	<stop  offset="1" style="stop-color:#2D2B67"/>
</linearGradient>
<ellipse fill="url(#SVGID_1_)" cx="10.586" cy="15.789" rx="7.595" ry="7.794"/>
<ellipse fill="#080907" cx="10.586" cy="15.669" rx="6.219" ry="6.382"/>
<path fill="#E4E9F0" d="M8.212,11.878c0.044-0.326-0.354-1.004-0.653-1.142c-0.203-0.094-0.761-0.026-0.881,0.163
	c-0.135,0.214,0.097,0.786,0.261,0.979c0.157,0.183,0.643,0.43,0.881,0.392C7.957,12.247,8.193,12.015,8.212,11.878z"/>
<ellipse fill="#E6E8EE" cx="43.523" cy="16.402" rx="8.568" ry="8.792"/>
<linearGradient id="SVGID_2_" gradientUnits="userSpaceOnUse" x1="37.7466" y1="15.9055" x2="49.3622" y2="15.9055">
	<stop  offset="0.0597" style="stop-color:#DBA797"/>
	<stop  offset="0.2188" style="stop-color:#AF8389"/>
	<stop  offset="0.4323" style="stop-color:#80607B"/>
	<stop  offset="0.625" style="stop-color:#5E4771"/>
	<stop  offset="0.7898" style="stop-color:#44376B"/>
	<stop  offset="0.9202" style="stop-color:#332E68"/>
	<stop  offset="1" style="stop-color:#2D2B67"/>
</linearGradient>
<ellipse fill="url(#SVGID_2_)" cx="43.554" cy="15.905" rx="5.808" ry="5.959"/>
<ellipse fill="#080907" cx="43.554" cy="15.814" rx="4.756" ry="4.88"/>
<path fill="#E4E9F0" d="M42.945,13.519c0.033-0.249-0.271-0.767-0.499-0.873c-0.155-0.072-0.582-0.02-0.674,0.125
	c-0.103,0.164,0.074,0.601,0.2,0.749c0.12,0.14,0.492,0.329,0.674,0.299C42.75,13.801,42.931,13.623,42.945,13.519z"/>
<linearGradient id="SVGID_3_" gradientUnits="userSpaceOnUse" x1="32.9091" y1="6.3805" x2="51.8132" y2="6.3805">
	<stop  offset="0" style="stop-color:#DBA797"/>
	<stop  offset="0.0404" style="stop-color:#D69D8A"/>
	<stop  offset="0.1548" style="stop-color:#CF866B"/>
	<stop  offset="0.2745" style="stop-color:#CA7454"/>
	<stop  offset="0.3982" style="stop-color:#C56541"/>
	<stop  offset="0.5273" style="stop-color:#C25933"/>
	<stop  offset="0.664" style="stop-color:#C04F2B"/>
	<stop  offset="0.8135" style="stop-color:#BF4A27"/>
	<stop  offset="1" style="stop-color:#BE4827"/>
</linearGradient>
<path fill="url(#SVGID_3_)" d="M33.059,2.646c-0.761,1.666,1.555,5.656,3.1,6.64c1.282,0.816,4.578-0.243,6.078,0
	c1.344,0.218,3.806,1.76,5.166,1.721c1.161-0.034,3.738-0.713,4.315-1.721c0.2-0.35,0.068-1.339-0.243-1.595
	c-0.857-0.706-3.07-0.335-4.157-0.56c-1.264-0.262-2.745-1.162-3.909-1.721c-1.849-0.887-4.522-3.248-6.535-3.644
	C36.384,1.669,33.266,2.192,33.059,2.646z"/>
<linearGradient id="SVGID_4_" gradientUnits="userSpaceOnUse" x1="0.5494" y1="4.2957" x2="20.5208" y2="4.2957">
	<stop  offset="0" style="stop-color:#DBA797"/>
	<stop  offset="0.0404" style="stop-color:#D69D8A"/>
	<stop  offset="0.1548" style="stop-color:#CF866B"/>
	<stop  offset="0.2745" style="stop-color:#CA7454"/>
	<stop  offset="0.3982" style="stop-color:#C56541"/>
	<stop  offset="0.5273" style="stop-color:#C25933"/>
	<stop  offset="0.664" style="stop-color:#C04F2B"/>
	<stop  offset="0.8135" style="stop-color:#BF4A27"/>
	<stop  offset="1" style="stop-color:#BE4827"/>
</linearGradient>
<path fill="url(#SVGID_4_)" d="M20.389,0.511c0.748,1.393-1.88,4.559-3.171,5.471c-2.694,1.904-9.737,3.08-12.971,2.429
	c-1.083-0.218-3.469-1.347-3.69-2.429c-0.091-0.447,0.6-1.32,1.01-1.521c0.81-0.398,2.701,0.309,3.602,0.258
	c2.093-0.117,3.428-0.901,5.365-1.7c1.194-0.492,3.017-2.585,4.266-2.913C15.459-0.067,20.068-0.088,20.389,0.511z"/>
</svg>
