<?xml version="1.0" encoding="utf-8"?>
<!-- Generator: Adobe Illustrator 17.0.0, SVG Export Plug-In . SVG Version: 6.00 Build 0)  -->
<!DOCTYPE svg PUBLIC "-//W3C//DTD SVG 1.1//EN" "http://www.w3.org/Graphics/SVG/1.1/DTD/svg11.dtd">
<svg version="1.1" id="Layer_1" xmlns="http://www.w3.org/2000/svg" xmlns:xlink="http://www.w3.org/1999/xlink" x="0px" y="0px"
	 width="90.63px" height="45.374px" viewBox="0 0 90.63 45.374" enable-background="new 0 0 90.63 45.374" xml:space="preserve">
<path fill="#282828" d="M37.816,15.581c0,0-0.035-1.002-0.104-1.327c-0.082-0.386-0.681-1.126-0.526-1.489
	c0.548-1.279,3.72-1.469,5.104-1.62c1.835-0.2,5.769,0.21,7.356,1.154c0.282,0.167,0.822,0.34,0.822,0.34l-0.329,1.022
	c0,0-0.52-0.26-0.964-0.517c-1.492-0.865-5.16-1.247-6.876-1.076c-1.138,0.114-3.77,0.104-4.228,1.153
	c-0.098,0.225,0.287,0.683,0.327,0.925c0.106,0.639-0.186,2.728-0.186,2.728l-0.2,0.178L37.816,15.581z"/>
<path fill="#282828" d="M70.23,14.951c0,0,6.529-0.432,6.917-0.422c0.889,0.022,6.081-1.125,6.886-0.748
	c0.122,0.057,0.358,0.226,0.406,0.352c0.101,0.262,0.088,0.861-0.148,1.014c-0.156,0.101-0.588,0.084-0.977,0.148
	c-1.169,0.192-5.372,0.615-6.275,0.681c-0.586,0.043-6.376,0.369-6.376,0.369L70.23,14.951z"/>
<path fill="#282828" d="M37.852,14.242c-1.955-5.532-7.972-8.45-13.439-6.518c-5.467,1.932-8.314,7.983-6.359,13.514
	c1.955,5.532,7.972,8.45,13.439,6.518C36.96,25.824,39.807,19.774,37.852,14.242z M31.258,27.092
	c-5.105,1.804-10.722-0.921-12.548-6.086c-1.825-5.165,0.833-10.814,5.938-12.618s10.722,0.921,12.548,6.086
	C39.021,19.639,36.362,25.288,31.258,27.092z"/>
<ellipse transform="matrix(0.9429 -0.3332 0.3332 0.9429 -4.3138 10.328)" fill="#0F1010" cx="27.953" cy="17.74" rx="9.803" ry="9.919"/>
<ellipse transform="matrix(0.9429 -0.3332 0.3332 0.9429 -2.1588 21.0298)" fill="#0F1010" cx="60.23" cy="16.808" rx="9.984" ry="10.102"/>
<path fill="#282828" d="M70.312,13.491c-1.991-5.634-8.119-8.606-13.687-6.638c-5.568,1.968-8.468,8.13-6.477,13.764
	c1.991,5.634,8.119,8.606,13.687,6.638C69.403,25.287,72.303,19.125,70.312,13.491z M63.596,26.579
	c-5.199,1.837-10.921-0.938-12.78-6.198c-1.859-5.26,0.848-11.014,6.047-12.852s10.921,0.938,12.78,6.198
	C71.503,18.987,68.795,24.741,63.596,26.579z"/>
<linearGradient id="SVGID_1_" gradientUnits="userSpaceOnUse" x1="32.5998" y1="15.1935" x2="37.7731" y2="15.1935">
	<stop  offset="0.2674" style="stop-color:#D3B396"/>
	<stop  offset="0.4324" style="stop-color:#D3AE82"/>
	<stop  offset="0.7893" style="stop-color:#D2A14C"/>
	<stop  offset="1" style="stop-color:#D19A2A"/>
</linearGradient>
<path opacity="0.8" fill="url(#SVGID_1_)" d="M32.6,8.804c0,0,2.637,3.548,3.129,5.804c0.647,2.965-0.183,4.585,0,6.098
	c0.026,0.212,0.103,0.683,0.277,0.807c0.214,0.153,1.05,0,1.05,0s1.61-3.878,0.007-7.641C35.321,9.787,32.6,8.804,32.6,8.804z"/>
<g>
	
		<image overflow="visible" opacity="0.2" width="53" height="38" xlink:href="4A30723A3DDCBC65.png"  transform="matrix(0.48 0 0 0.48 31.1605 4.9384)">
	</image>
	<g>
		<linearGradient id="SVGID_2_" gradientUnits="userSpaceOnUse" x1="37.1605" y1="13.8734" x2="50.4683" y2="13.8734">
			<stop  offset="0" style="stop-color:#D8B524"/>
			<stop  offset="0.038" style="stop-color:#D8B431"/>
			<stop  offset="0.1104" style="stop-color:#D7B452"/>
			<stop  offset="0.2089" style="stop-color:#D4B37E"/>
			<stop  offset="0.2674" style="stop-color:#D3B396"/>
			<stop  offset="0.4324" style="stop-color:#D3AE82"/>
			<stop  offset="0.7893" style="stop-color:#D2A14C"/>
			<stop  offset="1" style="stop-color:#D19A2A"/>
		</linearGradient>
		<path fill="url(#SVGID_2_)" d="M37.816,15.336c0,0-0.035-1.002-0.104-1.327c-0.082-0.386-0.681-1.126-0.526-1.489
			c0.548-1.279,3.72-1.396,5.104-1.546c1.835-0.2,6.133,0.48,7.434,1.161c0.247,0.129,0.744,0.321,0.744,0.321l-0.348,1.042
			c0,0-0.51-0.231-0.945-0.463c-1.521-0.813-5.16-1.309-6.876-1.138c-1.138,0.114-3.77,0.031-4.228,1.079
			c-0.098,0.225,0.287,0.683,0.327,0.925c0.106,0.639-0.186,2.728-0.186,2.728l-0.2,0.178L37.816,15.336z"/>
	</g>
</g>
<g>
	
		<image overflow="visible" opacity="0.2" width="55" height="31" xlink:href="4A30723A3DDCBC67.png"  transform="matrix(0.48 0 0 0.48 64.23 7.548)">
	</image>
	<g>
		<linearGradient id="SVGID_3_" gradientUnits="userSpaceOnUse" x1="70.23" y1="14.8238" x2="84.3746" y2="14.8238">
			<stop  offset="0" style="stop-color:#D8B524"/>
			<stop  offset="0.038" style="stop-color:#D8B431"/>
			<stop  offset="0.1104" style="stop-color:#D7B452"/>
			<stop  offset="0.2089" style="stop-color:#D4B37E"/>
			<stop  offset="0.2674" style="stop-color:#D3B396"/>
			<stop  offset="0.4324" style="stop-color:#D3AE82"/>
			<stop  offset="0.7893" style="stop-color:#D2A14C"/>
			<stop  offset="1" style="stop-color:#D19A2A"/>
		</linearGradient>
		<path fill="url(#SVGID_3_)" d="M70.23,14.706c0,0,6.969-0.279,7.357-0.27c0.889,0.022,5.515-1.193,6.32-0.816
			c0.122,0.057,0.357,0.226,0.406,0.352c0.101,0.262,0.096,0.963-0.14,1.116c-0.156,0.101-0.72,0.049-1.109,0.113
			c-1.062,0.176-4.978,0.562-5.881,0.628c-0.586,0.043-6.519,0.271-6.519,0.271L70.23,14.706z"/>
	</g>
</g>
<g>
	
		<image overflow="visible" opacity="0.2" width="69" height="70" xlink:href="4A30723A3DDCBC62.png"  transform="matrix(0.48 0 0 0.48 11.4372 0.8827)">
	</image>
	<g>
		<linearGradient id="SVGID_4_" gradientUnits="userSpaceOnUse" x1="17.4372" y1="17.4951" x2="38.4685" y2="17.4951">
			<stop  offset="0" style="stop-color:#D8B524"/>
			<stop  offset="0.038" style="stop-color:#D8B431"/>
			<stop  offset="0.1104" style="stop-color:#D7B452"/>
			<stop  offset="0.2089" style="stop-color:#D4B37E"/>
			<stop  offset="0.2674" style="stop-color:#D3B396"/>
			<stop  offset="0.4324" style="stop-color:#D3AE82"/>
			<stop  offset="0.7893" style="stop-color:#D2A14C"/>
			<stop  offset="1" style="stop-color:#D19A2A"/>
		</linearGradient>
		<path fill="url(#SVGID_4_)" d="M37.852,13.997c-1.955-5.532-7.972-8.45-13.439-6.518c-5.467,1.932-8.314,7.983-6.359,13.514
			c1.955,5.532,7.972,8.45,13.439,6.518C36.96,25.579,39.807,19.528,37.852,13.997z M31.258,26.847
			c-5.105,1.804-10.722-0.921-12.548-6.086c-1.825-5.165,0.833-10.814,5.938-12.618s10.722,0.921,12.548,6.086
			C39.021,19.394,36.362,25.043,31.258,26.847z"/>
	</g>
</g>
<g>
	
		<image overflow="visible" opacity="0.2" width="70" height="71" xlink:href="4A30723A3DDCBC63.png"  transform="matrix(0.48 0 0 0.48 43.5201 0)">
	</image>
	<g>
		<linearGradient id="SVGID_5_" gradientUnits="userSpaceOnUse" x1="49.5201" y1="16.8085" x2="70.9401" y2="16.8085">
			<stop  offset="0" style="stop-color:#D8B524"/>
			<stop  offset="0.038" style="stop-color:#D8B431"/>
			<stop  offset="0.1104" style="stop-color:#D7B452"/>
			<stop  offset="0.2089" style="stop-color:#D4B37E"/>
			<stop  offset="0.2674" style="stop-color:#D3B396"/>
			<stop  offset="0.4324" style="stop-color:#D3AE82"/>
			<stop  offset="0.7893" style="stop-color:#D2A14C"/>
			<stop  offset="1" style="stop-color:#D19A2A"/>
		</linearGradient>
		<path fill="url(#SVGID_5_)" d="M70.312,13.245c-1.991-5.634-8.119-8.606-13.687-6.638c-5.568,1.968-8.468,8.13-6.477,13.764
			c1.991,5.634,8.119,8.606,13.687,6.638C69.403,25.042,72.303,18.879,70.312,13.245z M63.596,26.333
			c-5.199,1.837-10.921-0.938-12.78-6.198c-1.859-5.26,0.848-11.014,6.047-12.852s10.921,0.938,12.78,6.198
			C71.503,18.742,68.795,24.496,63.596,26.333z"/>
	</g>
</g>
<path fill="#282828" d="M17.914,15.353c0,0-5.856-0.974-7.975-0.706c-1.422,0.18-3.73-0.693-3.877-0.47
	c-0.104,0.157-0.059,0.576,0.002,0.754c0.053,0.156,0.25,0.458,0.403,0.521c0.293,0.12,1.943,0.722,4.128,0.689
	c2.415-0.036,7.096,0.71,7.096,0.71s0.074-0.568,0.084-0.751C17.786,15.908,17.914,15.353,17.914,15.353z"/>
<g>
	
		<image overflow="visible" opacity="0.2" width="50" height="31" xlink:href="4A30723A3DDCBC6D.png"  transform="matrix(0.48 0 0 0.48 0 8.1186)">
	</image>
	<g>
		<linearGradient id="SVGID_6_" gradientUnits="userSpaceOnUse" x1="6" y1="15.3835" x2="17.914" y2="15.3835">
			<stop  offset="0" style="stop-color:#D8B524"/>
			<stop  offset="0.038" style="stop-color:#D8B431"/>
			<stop  offset="0.1104" style="stop-color:#D7B452"/>
			<stop  offset="0.2089" style="stop-color:#D4B37E"/>
			<stop  offset="0.2674" style="stop-color:#D3B396"/>
			<stop  offset="0.4324" style="stop-color:#D3AE82"/>
			<stop  offset="0.7893" style="stop-color:#D2A14C"/>
			<stop  offset="1" style="stop-color:#D19A2A"/>
		</linearGradient>
		<path fill="url(#SVGID_6_)" d="M17.914,15.15c0,0-5.839-0.733-7.975-0.706c-1.501,0.02-3.73-0.493-3.877-0.27
			c-0.104,0.157-0.059,0.576,0.002,0.754c0.053,0.156,0.25,0.46,0.403,0.523c0.293,0.12,1.943,0.53,4.128,0.487
			c1.405-0.028,7.096,0.71,7.096,0.71s0.074-0.568,0.084-0.751C17.786,15.706,17.914,15.15,17.914,15.15z"/>
	</g>
</g>
<linearGradient id="SVGID_7_" gradientUnits="userSpaceOnUse" x1="65.0566" y1="14.4575" x2="70.23" y2="14.4575">
	<stop  offset="0.2674" style="stop-color:#D3B396"/>
	<stop  offset="0.4324" style="stop-color:#D3AE82"/>
	<stop  offset="0.7893" style="stop-color:#D2A14C"/>
	<stop  offset="1" style="stop-color:#D19A2A"/>
</linearGradient>
<path opacity="0.8" fill="url(#SVGID_7_)" d="M65.057,8.069c0,0,2.637,3.548,3.129,5.804c0.647,2.965-0.183,4.585,0,6.098
	c0.026,0.212,0.103,0.683,0.277,0.807c0.214,0.153,1.05,0,1.05,0s1.61-3.878,0.007-7.641C67.778,9.051,65.057,8.069,65.057,8.069z"
	/>
<g>
	
		<image overflow="visible" opacity="0.2" width="54" height="42" xlink:href="4A30723A3DDCBC6F.png"  transform="matrix(0.48 0 0 0.48 51.1253 25.2143)">
	</image>
	<g>
		<path fill="#B35F4B" d="M59.601,31.701c4.241-1.823,14.291,1.792,10.194,5.598c-3.097,2.878-12.844,2.744-12.668-1.723
			C57.148,35.057,57.891,32.436,59.601,31.701z"/>
	</g>
</g>
<g>
	
		<image overflow="visible" opacity="0.2" width="54" height="42" xlink:href="4A30723A3DDCBC60.png"  transform="matrix(0.48 0 0 0.48 13.475 24.7953)">
	</image>
	<g>
		<path fill="#B35F4B" d="M30.632,31.282c-4.241-1.823-14.291,1.792-10.194,5.598c3.097,2.878,12.844,2.744,12.668-1.723
			C33.084,34.638,32.342,32.017,30.632,31.282z"/>
	</g>
</g>
<path fill="#542619" d="M24.541,34.046c0.257,0.007,0.402,0.109,0.428,0.263c0.061,0.353-0.113,0.533-0.228,0.585
	c-0.16,0.072-0.39,0.007-0.502-0.376C24.169,34.28,24.352,34.041,24.541,34.046z"/>
<path fill="#542619" d="M27.821,37.177c0.071-0.247,0.205-0.362,0.361-0.35c0.357,0.029,0.489,0.242,0.51,0.366
	c0.03,0.172-0.09,0.379-0.488,0.393C27.955,37.595,27.769,37.359,27.821,37.177z"/>
<path fill="#542619" d="M22.471,36.108c-0.043-0.147-0.011-0.248,0.071-0.292c0.189-0.099,0.324-0.033,0.374,0.023
	c0.07,0.078,0.075,0.22-0.122,0.354C22.672,36.277,22.502,36.217,22.471,36.108z"/>
<path fill="#542619" d="M26.413,34.179c0.078-0.132,0.173-0.178,0.261-0.148c0.202,0.07,0.246,0.214,0.24,0.289
	c-0.009,0.104-0.109,0.206-0.342,0.154C26.428,34.442,26.356,34.277,26.413,34.179z"/>
<path fill="#542619" d="M25.949,36.738c-0.147,0.046-0.248,0.016-0.293-0.066c-0.103-0.188-0.039-0.323,0.016-0.375
	c0.076-0.071,0.219-0.079,0.357,0.115C26.114,36.534,26.057,36.704,25.949,36.738z"/>
<path fill="#542619" d="M24.029,33.761c-0.111,0.106-0.215,0.125-0.292,0.071c-0.175-0.123-0.179-0.273-0.152-0.343
	c0.037-0.098,0.161-0.168,0.371-0.055C24.087,33.504,24.111,33.682,24.029,33.761z"/>
<path fill="#542619" d="M29.375,34.706c-0.111,0.106-0.215,0.125-0.292,0.071c-0.175-0.123-0.179-0.273-0.152-0.343
	c0.037-0.098,0.161-0.168,0.371-0.055C29.432,34.45,29.457,34.628,29.375,34.706z"/>
<path fill="#542619" d="M21.002,34.398c-0.111,0.106-0.215,0.125-0.292,0.071c-0.175-0.123-0.179-0.273-0.152-0.343
	c0.037-0.098,0.161-0.168,0.371-0.055C21.06,34.142,21.084,34.32,21.002,34.398z"/>
<path fill="#542619" d="M26.292,32.398c0.052,0.145,0.027,0.247-0.053,0.295c-0.183,0.11-0.322,0.053-0.375,0
	c-0.075-0.073-0.088-0.215,0.1-0.361C26.081,32.241,26.254,32.291,26.292,32.398z"/>
<path fill="#542619" d="M22.706,35.126c-0.014,0.214-0.103,0.331-0.232,0.348c-0.295,0.039-0.44-0.111-0.48-0.208
	c-0.055-0.135,0.007-0.324,0.328-0.406C22.523,34.809,22.716,34.969,22.706,35.126z"/>
<path fill="#542619" d="M28.801,35.126c-0.014,0.214-0.103,0.331-0.232,0.348c-0.295,0.039-0.44-0.111-0.48-0.208
	c-0.055-0.135,0.007-0.324,0.328-0.406C28.618,34.809,28.811,34.969,28.801,35.126z"/>
<path fill="#542619" d="M23.121,37.803c-0.011,0.171-0.083,0.265-0.186,0.279c-0.236,0.032-0.352-0.089-0.384-0.166
	c-0.044-0.108,0.005-0.26,0.263-0.325C22.975,37.549,23.13,37.677,23.121,37.803z"/>
<path fill="#542619" d="M24.894,36.22c-0.011,0.171-0.083,0.265-0.186,0.279c-0.236,0.032-0.352-0.089-0.384-0.166
	c-0.044-0.108,0.005-0.26,0.263-0.325C24.748,35.966,24.903,36.094,24.894,36.22z"/>
<path fill="#542619" d="M19.64,35.134c-0.011,0.171-0.083,0.265-0.186,0.279c-0.236,0.032-0.352-0.089-0.384-0.166
	c-0.044-0.108,0.005-0.26,0.263-0.325C19.494,34.881,19.648,35.008,19.64,35.134z"/>
<path fill="#542619" d="M23.121,32.725c-0.011,0.171-0.083,0.265-0.186,0.279c-0.236,0.032-0.352-0.089-0.384-0.166
	c-0.044-0.108,0.005-0.26,0.263-0.325C22.975,32.471,23.13,32.599,23.121,32.725z"/>
<path fill="#542619" d="M27.966,31.513c0.106-0.059,0.189-0.052,0.236,0.004c0.109,0.128,0.082,0.243,0.048,0.291
	c-0.047,0.067-0.156,0.096-0.293-0.032C27.871,31.697,27.888,31.556,27.966,31.513z"/>
<path fill="#542619" d="M23.956,31.313c0.083,0.088,0.097,0.17,0.054,0.23c-0.097,0.137-0.215,0.139-0.271,0.118
	c-0.077-0.029-0.131-0.128-0.041-0.292C23.754,31.266,23.895,31.248,23.956,31.313z"/>
<path fill="#542619" d="M22.943,33.886c0.083,0.088,0.097,0.17,0.054,0.23c-0.097,0.137-0.215,0.139-0.271,0.118
	c-0.077-0.029-0.131-0.128-0.041-0.292C22.742,33.84,22.882,33.821,22.943,33.886z"/>
<path fill="#542619" d="M33.011,32.361c0.083,0.088,0.097,0.17,0.054,0.23c-0.097,0.137-0.215,0.139-0.271,0.118
	c-0.077-0.029-0.131-0.128-0.041-0.292C32.81,32.314,32.95,32.296,33.011,32.361z"/>
<path fill="#542619" d="M36.285,33.408c0.121-0.003,0.191,0.041,0.208,0.113c0.037,0.164-0.04,0.253-0.093,0.28
	c-0.073,0.038-0.183,0.013-0.245-0.164C36.116,33.527,36.196,33.41,36.285,33.408z"/>
<path fill="#542619" d="M31.922,36.073c0.083,0.088,0.097,0.17,0.054,0.23c-0.097,0.137-0.215,0.139-0.271,0.118
	c-0.077-0.029-0.131-0.128-0.041-0.292C31.721,36.026,31.861,36.008,31.922,36.073z"/>
<path fill="#542619" d="M31.282,34.849c-0.111,0.106-0.215,0.125-0.292,0.071c-0.175-0.123-0.179-0.273-0.152-0.343
	c0.037-0.098,0.161-0.168,0.371-0.055C31.339,34.593,31.364,34.771,31.282,34.849z"/>
<path fill="#542619" d="M32.769,33.495c0.052,0.145,0.027,0.247-0.053,0.295c-0.183,0.11-0.322,0.053-0.375,0
	c-0.075-0.073-0.088-0.215,0.1-0.361C32.558,33.339,32.731,33.389,32.769,33.495z"/>
<path fill="#542619" d="M29.622,33.376c-0.011,0.171-0.083,0.265-0.186,0.279c-0.236,0.032-0.352-0.089-0.384-0.166
	c-0.044-0.108,0.005-0.26,0.263-0.325C29.475,33.123,29.63,33.25,29.622,33.376z"/>
<path fill="#542619" d="M30.939,32.402c0.083,0.088,0.097,0.17,0.054,0.23c-0.097,0.137-0.215,0.139-0.271,0.118
	c-0.077-0.029-0.131-0.128-0.041-0.292C30.738,32.355,30.878,32.337,30.939,32.402z"/>
<path fill="#542619" d="M29.926,34.975c0.083,0.088,0.097,0.17,0.054,0.23c-0.097,0.137-0.215,0.139-0.271,0.118
	c-0.077-0.029-0.131-0.128-0.041-0.292C29.725,34.928,29.865,34.91,29.926,34.975z"/>
<path fill="#542619" d="M21.772,37.022c-0.111,0.106-0.215,0.125-0.292,0.071c-0.175-0.123-0.179-0.273-0.152-0.343
	c0.037-0.098,0.161-0.168,0.371-0.055C21.829,36.766,21.854,36.944,21.772,37.022z"/>
<path fill="#542619" d="M20.864,35.986c-0.011,0.171-0.083,0.265-0.186,0.279c-0.236,0.032-0.352-0.089-0.384-0.166
	c-0.044-0.108,0.005-0.26,0.263-0.325C20.718,35.732,20.872,35.86,20.864,35.986z"/>
<path fill="#542619" d="M20.685,37.147c0.083,0.088,0.097,0.17,0.054,0.23c-0.097,0.137-0.215,0.139-0.271,0.118
	c-0.077-0.029-0.131-0.128-0.041-0.292C20.484,37.101,20.624,37.082,20.685,37.147z"/>
<path fill="#542619" d="M35.914,34.979c-0.111,0.106-0.215,0.125-0.292,0.071c-0.175-0.123-0.179-0.273-0.152-0.343
	c0.037-0.098,0.161-0.168,0.371-0.055C35.971,34.723,35.996,34.901,35.914,34.979z"/>
<path fill="#542619" d="M35.006,33.944c-0.011,0.171-0.083,0.265-0.186,0.279c-0.236,0.032-0.352-0.089-0.384-0.166
	c-0.044-0.108,0.005-0.26,0.263-0.325C34.86,33.69,35.014,33.818,35.006,33.944z"/>
<path fill="#542619" d="M34.827,35.105c0.083,0.088,0.097,0.17,0.054,0.23c-0.097,0.137-0.215,0.139-0.271,0.118
	c-0.077-0.029-0.131-0.128-0.041-0.292C34.626,35.058,34.766,35.04,34.827,35.105z"/>
<path fill="#542619" d="M65.213,33.939c-0.257,0.007-0.402,0.109-0.428,0.263c-0.061,0.353,0.113,0.533,0.228,0.585
	c0.16,0.072,0.39,0.007,0.502-0.376C65.585,34.173,65.402,33.933,65.213,33.939z"/>
<path fill="#542619" d="M61.933,37.07c-0.071-0.247-0.205-0.362-0.361-0.35c-0.357,0.029-0.489,0.242-0.51,0.366
	c-0.03,0.172,0.09,0.379,0.488,0.393C61.798,37.488,61.985,37.252,61.933,37.07z"/>
<path fill="#542619" d="M67.283,36.001c0.043-0.147,0.011-0.248-0.071-0.292c-0.189-0.099-0.324-0.033-0.374,0.023
	c-0.07,0.078-0.075,0.22,0.122,0.354C67.082,36.17,67.251,36.109,67.283,36.001z"/>
<path fill="#542619" d="M63.34,34.072c-0.078-0.132-0.173-0.178-0.261-0.148c-0.202,0.07-0.246,0.214-0.24,0.289
	c0.009,0.104,0.109,0.206,0.342,0.154C63.326,34.334,63.398,34.17,63.34,34.072z"/>
<path fill="#542619" d="M63.805,36.631c0.147,0.046,0.248,0.016,0.293-0.066c0.103-0.188,0.039-0.323-0.016-0.375
	c-0.076-0.071-0.219-0.079-0.357,0.115C63.64,36.427,63.697,36.597,63.805,36.631z"/>
<path fill="#542619" d="M65.725,33.653c0.111,0.106,0.215,0.125,0.292,0.071c0.175-0.123,0.179-0.273,0.152-0.343
	c-0.037-0.098-0.161-0.168-0.371-0.055C65.667,33.397,65.643,33.575,65.725,33.653z"/>
<path fill="#542619" d="M60.379,34.599c0.111,0.106,0.215,0.125,0.292,0.071c0.175-0.123,0.179-0.273,0.152-0.343
	c-0.037-0.098-0.161-0.168-0.371-0.055C60.321,34.343,60.297,34.521,60.379,34.599z"/>
<path fill="#542619" d="M68.751,34.291c0.111,0.106,0.215,0.125,0.292,0.071c0.175-0.123,0.179-0.273,0.152-0.343
	c-0.037-0.098-0.161-0.168-0.371-0.055C68.694,34.034,68.67,34.213,68.751,34.291z"/>
<path fill="#542619" d="M63.461,32.29c-0.052,0.145-0.027,0.247,0.053,0.295c0.183,0.11,0.322,0.053,0.375,0
	c0.075-0.073,0.088-0.215-0.1-0.361C63.672,32.134,63.5,32.184,63.461,32.29z"/>
<path fill="#542619" d="M67.048,35.019c0.014,0.214,0.103,0.331,0.232,0.348c0.295,0.039,0.44-0.111,0.48-0.208
	c0.055-0.135-0.007-0.324-0.328-0.406C67.231,34.702,67.038,34.862,67.048,35.019z"/>
<path fill="#542619" d="M60.953,35.019c0.014,0.214,0.103,0.331,0.232,0.348c0.295,0.039,0.44-0.111,0.48-0.208
	c0.055-0.135-0.007-0.324-0.328-0.406C61.136,34.702,60.943,34.862,60.953,35.019z"/>
<path fill="#542619" d="M66.633,37.696c0.011,0.171,0.083,0.265,0.186,0.279c0.236,0.032,0.352-0.089,0.384-0.166
	c0.044-0.108-0.005-0.26-0.263-0.325C66.779,37.442,66.624,37.57,66.633,37.696z"/>
<path fill="#542619" d="M64.859,36.112c0.011,0.171,0.083,0.265,0.186,0.279c0.236,0.032,0.352-0.089,0.384-0.166
	c0.044-0.108-0.005-0.26-0.263-0.325C65.006,35.859,64.851,35.986,64.859,36.112z"/>
<path fill="#542619" d="M70.114,35.027c0.011,0.171,0.083,0.265,0.186,0.279c0.236,0.032,0.352-0.089,0.384-0.166
	c0.044-0.108-0.005-0.26-0.263-0.325C70.26,34.773,70.106,34.901,70.114,35.027z"/>
<path fill="#542619" d="M66.633,32.617c0.011,0.171,0.083,0.265,0.186,0.279c0.236,0.032,0.352-0.089,0.384-0.166
	c0.044-0.108-0.005-0.26-0.263-0.325C66.779,32.364,66.624,32.491,66.633,32.617z"/>
<path fill="#542619" d="M61.788,31.406c-0.106-0.059-0.189-0.052-0.236,0.004c-0.109,0.128-0.082,0.243-0.048,0.291
	c0.047,0.067,0.156,0.096,0.293-0.032C61.882,31.589,61.866,31.449,61.788,31.406z"/>
<path fill="#542619" d="M65.798,31.206c-0.083,0.088-0.097,0.17-0.054,0.23c0.097,0.137,0.215,0.139,0.271,0.118
	c0.077-0.029,0.131-0.128,0.041-0.292C65.999,31.159,65.859,31.141,65.798,31.206z"/>
<path fill="#542619" d="M66.811,33.779c-0.083,0.088-0.097,0.17-0.054,0.23c0.097,0.137,0.215,0.139,0.271,0.118
	c0.077-0.029,0.131-0.128,0.041-0.292C67.012,33.732,66.872,33.714,66.811,33.779z"/>
<path fill="#542619" d="M56.742,32.253c-0.083,0.088-0.097,0.17-0.054,0.23c0.097,0.137,0.215,0.139,0.271,0.118
	c0.077-0.029,0.131-0.128,0.041-0.292C56.944,32.207,56.803,32.188,56.742,32.253z"/>
<path fill="#542619" d="M53.469,33.301c-0.121-0.003-0.191,0.041-0.208,0.113c-0.037,0.164,0.04,0.253,0.093,0.28
	c0.073,0.038,0.183,0.013,0.245-0.164C53.638,33.42,53.558,33.303,53.469,33.301z"/>
<path fill="#542619" d="M57.832,35.965c-0.083,0.088-0.097,0.17-0.054,0.23c0.097,0.137,0.215,0.139,0.271,0.118
	c0.077-0.029,0.131-0.128,0.041-0.292C58.033,35.919,57.893,35.901,57.832,35.965z"/>
<path fill="#542619" d="M58.472,34.742c0.111,0.106,0.215,0.125,0.292,0.071c0.175-0.123,0.179-0.273,0.152-0.343
	c-0.037-0.098-0.161-0.168-0.371-0.055C58.415,34.486,58.39,34.664,58.472,34.742z"/>
<path fill="#542619" d="M56.985,33.388c-0.052,0.145-0.027,0.247,0.053,0.295c0.183,0.11,0.322,0.053,0.375,0
	c0.075-0.073,0.088-0.215-0.1-0.361C57.196,33.232,57.023,33.281,56.985,33.388z"/>
<path fill="#542619" d="M60.132,33.269c0.011,0.171,0.083,0.265,0.186,0.279c0.236,0.032,0.352-0.089,0.384-0.166
	c0.044-0.108-0.005-0.26-0.263-0.325C60.278,33.015,60.124,33.143,60.132,33.269z"/>
<path fill="#542619" d="M58.815,32.294c-0.083,0.088-0.097,0.17-0.054,0.23c0.097,0.137,0.215,0.139,0.271,0.118
	c0.077-0.029,0.131-0.128,0.041-0.292C59.016,32.248,58.876,32.23,58.815,32.294z"/>
<path fill="#542619" d="M59.828,34.868c-0.083,0.088-0.097,0.17-0.054,0.23c0.097,0.137,0.215,0.139,0.271,0.118
	c0.077-0.029,0.131-0.128,0.041-0.292C60.029,34.821,59.889,34.803,59.828,34.868z"/>
<path fill="#542619" d="M67.982,36.915c0.111,0.106,0.215,0.125,0.292,0.071c0.175-0.123,0.179-0.273,0.152-0.343
	c-0.037-0.098-0.161-0.168-0.371-0.055C67.924,36.658,67.9,36.836,67.982,36.915z"/>
<path fill="#542619" d="M68.89,35.879c0.011,0.171,0.083,0.265,0.186,0.279c0.236,0.032,0.352-0.089,0.384-0.166
	c0.044-0.108-0.005-0.26-0.263-0.325C69.036,35.625,68.882,35.753,68.89,35.879z"/>
<path fill="#542619" d="M69.068,37.04c-0.083,0.088-0.097,0.17-0.054,0.23c0.097,0.137,0.215,0.139,0.271,0.118
	c0.077-0.029,0.131-0.128,0.041-0.292C69.27,36.994,69.129,36.975,69.068,37.04z"/>
<path fill="#542619" d="M53.84,34.872c0.111,0.106,0.215,0.125,0.292,0.071c0.175-0.123,0.179-0.273,0.152-0.343
	c-0.037-0.098-0.161-0.168-0.371-0.055C53.782,34.616,53.758,34.794,53.84,34.872z"/>
<path fill="#542619" d="M54.748,33.836c0.011,0.171,0.083,0.265,0.186,0.279c0.236,0.032,0.352-0.089,0.384-0.166
	c0.044-0.108-0.005-0.26-0.263-0.325C54.894,33.583,54.74,33.71,54.748,33.836z"/>
<path fill="#542619" d="M54.926,34.998c-0.083,0.088-0.097,0.17-0.054,0.23c0.097,0.137,0.215,0.139,0.271,0.118
	c0.077-0.029,0.131-0.128,0.041-0.292C55.128,34.951,54.987,34.933,54.926,34.998z"/>
</svg>
