<?xml version="1.0" encoding="utf-8"?>
<!-- Generator: Adobe Illustrator 17.0.0, SVG Export Plug-In . SVG Version: 6.00 Build 0)  -->
<!DOCTYPE svg PUBLIC "-//W3C//DTD SVG 1.1//EN" "http://www.w3.org/Graphics/SVG/1.1/DTD/svg11.dtd">
<svg version="1.1" id="Layer_1" xmlns="http://www.w3.org/2000/svg" xmlns:xlink="http://www.w3.org/1999/xlink" x="0px" y="0px"
	 width="33.37px" height="34.241px" viewBox="0 0 33.37 34.241" enable-background="new 0 0 33.37 34.241" xml:space="preserve">
<ellipse fill="#4C5966" cx="16.685" cy="17.12" rx="16.685" ry="17.12"/>
<ellipse fill="#D3E0F3" cx="16.627" cy="17.107" rx="15.581" ry="15.988"/>
<ellipse fill="#90767A" cx="16.423" cy="14.195" rx="8.582" ry="8.806"/>
<path fill="#E4E9F0" d="M13.538,9.827c0.044-0.326-0.355-1.005-0.653-1.144c-0.203-0.094-0.762-0.026-0.882,0.163
	c-0.135,0.214,0.097,0.787,0.261,0.98c0.157,0.184,0.644,0.43,0.882,0.392C13.283,10.197,13.519,9.964,13.538,9.827z"/>
<path fill="#786065" d="M12.416,14.195c0,0-1.96,1.007-2.091,1.662c-0.258,1.294,1.419,3.948,2.556,4.618
	c1.213,0.715,4.392,0.665,5.634,0c1.039-0.556,2.474-2.751,2.614-3.921c0.074-0.624-0.349-1.999-0.863-2.359
	C18.656,13.071,12.416,14.195,12.416,14.195z"/>
<ellipse fill="#080907" cx="16.627" cy="13.276" rx="3.746" ry="3.844"/>
</svg>
