<?xml version="1.0" encoding="utf-8"?>
<!-- Generator: Adobe Illustrator 17.0.0, SVG Export Plug-In . SVG Version: 6.00 Build 0)  -->
<!DOCTYPE svg PUBLIC "-//W3C//DTD SVG 1.1//EN" "http://www.w3.org/Graphics/SVG/1.1/DTD/svg11.dtd">
<svg version="1.1" id="Layer_1" xmlns="http://www.w3.org/2000/svg" xmlns:xlink="http://www.w3.org/1999/xlink" x="0px" y="0px"
	 width="60.019px" height="40.486px" viewBox="0 0 60.019 40.486" enable-background="new 0 0 60.019 40.486" xml:space="preserve">
<g>
	
		<image overflow="visible" opacity="0.4" width="63" height="62" xlink:href="414ECE6E1337009C.png"  transform="matrix(0.48 0 0 0.48 15.5585 0)">
	</image>
	<g>
		<ellipse fill="#E6E8EE" cx="30.469" cy="14.659" rx="8.911" ry="8.659"/>
	</g>
</g>
<linearGradient id="SVGID_1_" gradientUnits="userSpaceOnUse" x1="26.1401" y1="14.6587" x2="34.4756" y2="14.6587">
	<stop  offset="0" style="stop-color:#394F8A"/>
	<stop  offset="0.0587" style="stop-color:#3C548E"/>
	<stop  offset="0.4978" style="stop-color:#5376AD"/>
	<stop  offset="0.8244" style="stop-color:#628FC5"/>
	<stop  offset="1" style="stop-color:#689BD2"/>
</linearGradient>
<ellipse fill="url(#SVGID_1_)" cx="30.308" cy="14.659" rx="4.168" ry="4.277"/>
<path fill="#E4E9F0" d="M28.907,12.537c0.021-0.158-0.172-0.488-0.317-0.555c-0.099-0.046-0.37-0.013-0.428,0.079
	c-0.066,0.104,0.047,0.382,0.127,0.476c0.076,0.089,0.313,0.209,0.428,0.19C28.783,12.717,28.898,12.604,28.907,12.537z"/>
<path fill="#5B6EB4" d="M29.562,17.572c0.746,0.436,1.831-0.146,2.15-0.988c0.515-1.358,0.01-2.218-0.372-2.785
	c-0.32-0.474-0.941-0.849-1.502-0.962c-0.534-0.107-1.25-0.25-1.618,0.426C27.593,14.416,27.364,16.287,29.562,17.572z"/>
<ellipse fill="#080907" cx="30.407" cy="14.212" rx="2.049" ry="2.103"/>
<path fill="#282828" d="M23.004,19.335c0,0,3.703,2.517,7.673,2.458c4.887-0.073,7.487-2.763,7.487-2.763s-1.507,4.606-7.334,4.825
	C24.982,24.073,23.004,19.335,23.004,19.335z"/>
<linearGradient id="SVGID_2_" gradientUnits="userSpaceOnUse" x1="23.0037" y1="21.2801" x2="38.1634" y2="21.2801">
	<stop  offset="0" style="stop-color:#7FC1C9"/>
	<stop  offset="0.0352" style="stop-color:#C4DBCC"/>
	<stop  offset="0.1764" style="stop-color:#C3BCAB"/>
	<stop  offset="0.4685" style="stop-color:#BE8275"/>
	<stop  offset="0.7077" style="stop-color:#B95857"/>
	<stop  offset="0.8818" style="stop-color:#B73847"/>
	<stop  offset="0.9727" style="stop-color:#B62841"/>
</linearGradient>
<path fill="url(#SVGID_2_)" d="M23.004,19.335c0,0,3.703,2.189,7.673,2.13c4.887-0.073,7.487-2.436,7.487-2.436
	s-1.764,4.324-7.334,4.497C25.217,23.701,23.004,19.335,23.004,19.335z"/>
<path fill="#282828" d="M38.044,9.749c0,0-3.757-2.189-7.785-2.13c-4.959,0.073-7.596,2.436-7.596,2.436s1.79-4.324,7.441-4.497
	C35.798,5.383,38.044,9.749,38.044,9.749z"/>
<linearGradient id="SVGID_3_" gradientUnits="userSpaceOnUse" x1="-10406.9707" y1="-12171.2373" x2="-10391.5889" y2="-12171.2373" gradientTransform="matrix(-1 0 0 -1 -10368.9268 -12163.1064)">
	<stop  offset="0" style="stop-color:#7FC1C9"/>
	<stop  offset="0.0352" style="stop-color:#C4DBCC"/>
	<stop  offset="0.1764" style="stop-color:#C3BCAB"/>
	<stop  offset="0.4685" style="stop-color:#BE8275"/>
	<stop  offset="0.7077" style="stop-color:#B95857"/>
	<stop  offset="0.8818" style="stop-color:#B73847"/>
	<stop  offset="0.9727" style="stop-color:#B62841"/>
</linearGradient>
<path fill="url(#SVGID_3_)" d="M38.044,10.076c0,0-3.757-2.189-7.785-2.13c-4.959,0.073-7.596,2.436-7.596,2.436
	s1.79-4.324,7.441-4.497C35.798,5.71,38.044,10.076,38.044,10.076z"/>
<g>
	
		<image overflow="visible" opacity="0.4" width="58" height="57" xlink:href="414ECE6E1337009D.png"  transform="matrix(0.48 0 0 0.48 0 13.1258)">
	</image>
	<g>
		
			<ellipse transform="matrix(-0.987 0.1607 -0.1607 -0.987 31.6563 50.8196)" fill="#E6E8EE" cx="13.773" cy="26.69" rx="7.777" ry="7.557"/>
	</g>
</g>
<linearGradient id="SVGID_4_" gradientUnits="userSpaceOnUse" x1="12.1024" y1="26.3558" x2="19.3836" y2="26.3558">
	<stop  offset="0" style="stop-color:#394F8A"/>
	<stop  offset="0.0587" style="stop-color:#3C548E"/>
	<stop  offset="0.4978" style="stop-color:#5376AD"/>
	<stop  offset="0.8244" style="stop-color:#628FC5"/>
	<stop  offset="1" style="stop-color:#689BD2"/>
</linearGradient>
<path fill="url(#SVGID_4_)" d="M19.333,25.771c0.331,2.035-1.008,3.946-2.99,4.269s-3.859-1.065-4.19-3.099
	c-0.331-2.035,1.008-3.946,2.99-4.269S19.002,23.737,19.333,25.771z"/>
<path fill="#E4E9F0" d="M14.238,24.725c-0.004-0.14-0.217-0.396-0.351-0.434c-0.092-0.026-0.321,0.041-0.358,0.128
	c-0.042,0.099,0.094,0.323,0.176,0.392c0.078,0.066,0.299,0.136,0.396,0.104C14.157,24.897,14.24,24.783,14.238,24.725z"/>
<path fill="#5B6EB4" d="M15.509,28.971c0.704,0.271,1.557-0.383,1.714-1.153c0.253-1.242-0.302-1.912-0.711-2.347
	c-0.342-0.364-0.93-0.6-1.429-0.618c-0.475-0.018-1.112-0.04-1.334,0.594C13.37,26.527,13.435,28.171,15.509,28.971z"/>
<ellipse transform="matrix(0.987 -0.1607 0.1607 0.987 -3.9668 2.8712)" fill="#080907" cx="15.766" cy="25.957" rx="2.085" ry="2.139"/>
<path fill="#282828" d="M8.043,32.047c0,0,3.497,1.367,6.909,0.759c4.2-0.748,6.108-3.149,6.108-3.149s-0.913,3.972-5.687,4.903
	C10.563,35.498,8.043,32.047,8.043,32.047z"/>
<linearGradient id="SVGID_5_" gradientUnits="userSpaceOnUse" x1="-1033.4777" y1="763.7992" x2="-1020.2464" y2="763.7992" gradientTransform="matrix(0.987 -0.1607 0.1607 0.987 905.5588 -886.5256)">
	<stop  offset="0" style="stop-color:#7FC1C9"/>
	<stop  offset="0.0352" style="stop-color:#C4DBCC"/>
	<stop  offset="0.1764" style="stop-color:#C3BCAB"/>
	<stop  offset="0.4685" style="stop-color:#BE8275"/>
	<stop  offset="0.7077" style="stop-color:#B95857"/>
	<stop  offset="0.8818" style="stop-color:#B73847"/>
	<stop  offset="0.9727" style="stop-color:#B62841"/>
</linearGradient>
<path fill="url(#SVGID_5_)" d="M7.998,31.765c0,0,3.497,1.367,6.909,0.759c4.2-0.748,6.108-3.149,6.108-3.149
	s-0.913,3.972-5.687,4.903C10.517,35.216,7.998,31.765,7.998,31.765z"/>
<path fill="#282828" d="M19.609,21.398c0,0-3.543-1.359-7.005-0.743c-4.261,0.758-6.202,3.164-6.202,3.164s0.936-3.976,5.779-4.918
	C17.062,17.952,19.609,21.398,19.609,21.398z"/>
<linearGradient id="SVGID_6_" gradientUnits="userSpaceOnUse" x1="-9348.5762" y1="-12915.4287" x2="-9335.1514" y2="-12915.4287" gradientTransform="matrix(-0.987 0.1607 -0.1607 -0.987 -11283.3838 -11225.0674)">
	<stop  offset="0" style="stop-color:#7FC1C9"/>
	<stop  offset="0.0352" style="stop-color:#C4DBCC"/>
	<stop  offset="0.1764" style="stop-color:#C3BCAB"/>
	<stop  offset="0.4685" style="stop-color:#BE8275"/>
	<stop  offset="0.7077" style="stop-color:#B95857"/>
	<stop  offset="0.8818" style="stop-color:#B73847"/>
	<stop  offset="0.9727" style="stop-color:#B62841"/>
</linearGradient>
<path fill="url(#SVGID_6_)" d="M19.655,21.68c0,0-3.543-1.359-7.005-0.743c-4.261,0.758-6.202,3.164-6.202,3.164
	s0.936-3.976,5.779-4.918C17.108,18.234,19.655,21.68,19.655,21.68z"/>
<g>
	
		<image overflow="visible" opacity="0.4" width="52" height="51" xlink:href="414ECE6E1337009B.png"  transform="matrix(0.48 0 0 0.48 35.0593 14.4418)">
	</image>
	<g>
		
			<ellipse transform="matrix(-0.9989 -0.0463 0.0463 -0.9989 93.6686 55.5285)" fill="#E6E8EE" cx="47.478" cy="26.679" rx="6.418" ry="6.237"/>
	</g>
</g>
<linearGradient id="SVGID_7_" gradientUnits="userSpaceOnUse" x1="42.8835" y1="26.3558" x2="48.888" y2="26.3558">
	<stop  offset="0" style="stop-color:#394F8A"/>
	<stop  offset="0.0587" style="stop-color:#3C548E"/>
	<stop  offset="0.4978" style="stop-color:#5376AD"/>
	<stop  offset="0.8244" style="stop-color:#628FC5"/>
	<stop  offset="1" style="stop-color:#689BD2"/>
</linearGradient>
<path fill="url(#SVGID_7_)" d="M48.885,26.495c-0.079,1.699-1.485,3.015-3.141,2.938c-1.656-0.077-2.935-1.517-2.856-3.216
	c0.079-1.699,1.485-3.015,3.141-2.938C47.685,23.356,48.963,24.795,48.885,26.495z"/>
<path fill="#E4E9F0" d="M44.948,24.783c0.021-0.113-0.108-0.357-0.21-0.41c-0.07-0.036-0.266-0.022-0.311,0.043
	c-0.051,0.073,0.021,0.277,0.075,0.347c0.052,0.067,0.218,0.161,0.302,0.151C44.853,24.908,44.94,24.83,44.948,24.783z"/>
<path fill="#5B6EB4" d="M45.252,28.427c0.522,0.339,1.322-0.044,1.58-0.639c0.416-0.96,0.082-1.596-0.175-2.016
	c-0.214-0.352-0.649-0.643-1.049-0.743c-0.38-0.095-0.891-0.221-1.178,0.252C43.94,26.09,43.713,27.429,45.252,28.427z"/>
<ellipse transform="matrix(0.9989 0.0463 -0.0463 0.9989 1.2552 -2.1012)" fill="#080907" cx="45.972" cy="26.038" rx="1.579" ry="1.62"/>
<path fill="#282828" d="M41.939,30.03c0,0,2.591,1.699,5.45,1.789c3.519,0.111,5.468-1.503,5.468-1.503s-1.414,3.052-5.427,2.991
	C43.386,33.245,41.939,30.03,41.939,30.03z"/>
<linearGradient id="SVGID_8_" gradientUnits="userSpaceOnUse" x1="316.1379" y1="-202.8751" x2="327.0573" y2="-202.8751" gradientTransform="matrix(0.9989 0.0463 -0.0463 0.9989 -283.3095 219.2104)">
	<stop  offset="0" style="stop-color:#7FC1C9"/>
	<stop  offset="0.0352" style="stop-color:#C4DBCC"/>
	<stop  offset="0.1764" style="stop-color:#C3BCAB"/>
	<stop  offset="0.4685" style="stop-color:#BE8275"/>
	<stop  offset="0.7077" style="stop-color:#B95857"/>
	<stop  offset="0.8818" style="stop-color:#B73847"/>
	<stop  offset="0.9727" style="stop-color:#B62841"/>
</linearGradient>
<path fill="url(#SVGID_8_)" d="M41.95,29.795c0,0,2.591,1.699,5.45,1.789c3.519,0.111,5.468-1.503,5.468-1.503
	s-1.414,3.052-5.427,2.991C43.397,33.01,41.95,29.795,41.95,29.795z"/>
<path fill="#282828" d="M53.091,23.399c0,0-2.63-1.701-5.531-1.793c-3.57-0.113-5.547,1.499-5.547,1.499s1.432-3.051,5.504-2.988
	C51.621,20.183,53.091,23.399,53.091,23.399z"/>
<linearGradient id="SVGID_9_" gradientUnits="userSpaceOnUse" x1="-10695.8975" y1="-11950.7598" x2="-10684.8184" y2="-11950.7598" gradientTransform="matrix(-0.9989 -0.0463 0.0463 -0.9989 -10077.7979 -12411.0615)">
	<stop  offset="0" style="stop-color:#7FC1C9"/>
	<stop  offset="0.0352" style="stop-color:#C4DBCC"/>
	<stop  offset="0.1764" style="stop-color:#C3BCAB"/>
	<stop  offset="0.4685" style="stop-color:#BE8275"/>
	<stop  offset="0.7077" style="stop-color:#B95857"/>
	<stop  offset="0.8818" style="stop-color:#B73847"/>
	<stop  offset="0.9727" style="stop-color:#B62841"/>
</linearGradient>
<path fill="url(#SVGID_9_)" d="M53.08,23.635c0,0-2.63-1.701-5.531-1.793c-3.57-0.113-5.547,1.499-5.547,1.499
	s1.432-3.051,5.504-2.988C51.61,20.418,53.08,23.635,53.08,23.635z"/>
</svg>
