<?xml version="1.0" encoding="utf-8"?>
<!-- Generator: Adobe Illustrator 17.0.0, SVG Export Plug-In . SVG Version: 6.00 Build 0)  -->
<!DOCTYPE svg PUBLIC "-//W3C//DTD SVG 1.1//EN" "http://www.w3.org/Graphics/SVG/1.1/DTD/svg11.dtd">
<svg version="1.1" id="Layer_1" xmlns="http://www.w3.org/2000/svg" xmlns:xlink="http://www.w3.org/1999/xlink" x="0px" y="0px"
	 width="42.911px" height="48.668px" viewBox="0 0 42.911 48.668" enable-background="new 0 0 42.911 48.668" xml:space="preserve">
<ellipse transform="matrix(0.9224 -0.3863 0.3863 0.9224 -5.7175 4.3841)" fill="#E6E8EE" cx="8.049" cy="16.417" rx="8.015" ry="8.224"/>
<ellipse transform="matrix(0.9224 -0.3863 0.3863 0.9224 -5.803 4.4012)" fill="#14332E" cx="8.049" cy="16.638" rx="4.443" ry="4.559"/>
<path fill="#AABFBC" d="M6.119,13.539c-0.165,0.022-0.444,0.308-0.472,0.473c-0.019,0.112,0.089,0.376,0.198,0.41
	c0.123,0.038,0.372-0.153,0.444-0.259c0.069-0.101,0.124-0.372,0.074-0.484C6.334,13.614,6.189,13.53,6.119,13.539z"/>
<path fill="#87A09D" d="M6.756,16.658c0,0-0.293,0.16-0.404,0.797c-0.091,0.523,0.619,1.257,1.551,1.46
	c1.417,0.308,2.98-1.61,2.45-2.735c-0.108-0.228-0.638-0.58-1.213-0.691C8.366,15.339,6.756,16.658,6.756,16.658z"/>
<ellipse transform="matrix(0.9224 -0.3863 0.3863 0.9224 -5.6244 4.3305)" fill="#080907" cx="7.962" cy="16.158" rx="1.94" ry="1.99"/>
<ellipse transform="matrix(0.9224 -0.3863 0.3863 0.9224 -3.6268 14.6178)" fill="#E6E8EE" cx="34.555" cy="16.332" rx="8.321" ry="8.538"/>
<ellipse transform="matrix(0.9224 -0.3863 0.3863 0.9224 -3.7155 14.6356)" fill="#14332E" cx="34.555" cy="16.562" rx="4.613" ry="4.733"/>
<path fill="#AABFBC" d="M32.552,13.344c-0.172,0.023-0.461,0.32-0.49,0.491c-0.02,0.116,0.093,0.391,0.205,0.425
	c0.128,0.039,0.386-0.158,0.461-0.269c0.071-0.105,0.129-0.387,0.077-0.502C32.775,13.422,32.624,13.334,32.552,13.344z"/>
<path fill="#87A09D" d="M33.212,16.583c0,0-0.304,0.167-0.419,0.827c-0.094,0.543,0.643,1.305,1.611,1.515
	c1.471,0.319,3.094-1.671,2.543-2.84c-0.112-0.237-0.663-0.602-1.259-0.718C34.884,15.213,33.212,16.583,33.212,16.583z"/>
<ellipse transform="matrix(0.9224 -0.3863 0.3863 0.9224 -3.5301 14.5622)" fill="#080907" cx="34.465" cy="16.064" rx="2.014" ry="2.066"/>
<linearGradient id="SVGID_1_" gradientUnits="userSpaceOnUse" x1="17.433" y1="24.3341" x2="25.5171" y2="24.3341">
	<stop  offset="0" style="stop-color:#DFBE79"/>
	<stop  offset="0.2382" style="stop-color:#E0BD78"/>
	<stop  offset="0.4393" style="stop-color:#E2B877"/>
	<stop  offset="0.6269" style="stop-color:#E6B174"/>
	<stop  offset="0.8063" style="stop-color:#ECA56F"/>
	<stop  offset="0.9784" style="stop-color:#F4966B"/>
	<stop  offset="1" style="stop-color:#F7946A"/>
</linearGradient>
<path fill="url(#SVGID_1_)" stroke="#63BC46" stroke-width="0.25" stroke-miterlimit="10" d="M17.744,0.125c0,0-0.701,31.965,0,42.4
	c0.515,7.665,7.773,9.228,7.773-2.571c0-9.957,0-39.828,0-39.828H17.744z"/>
</svg>
