<?xml version="1.0" encoding="utf-8"?>
<!-- Generator: Adobe Illustrator 17.0.0, SVG Export Plug-In . SVG Version: 6.00 Build 0)  -->
<!DOCTYPE svg PUBLIC "-//W3C//DTD SVG 1.1//EN" "http://www.w3.org/Graphics/SVG/1.1/DTD/svg11.dtd">
<svg version="1.1" id="Layer_1" xmlns="http://www.w3.org/2000/svg" xmlns:xlink="http://www.w3.org/1999/xlink" x="0px" y="0px"
	 width="51.916px" height="16.307px" viewBox="0 0 51.916 16.307" enable-background="new 0 0 51.916 16.307" xml:space="preserve">
<ellipse transform="matrix(0.9224 -0.3863 0.3863 0.9224 -2.5707 3.5324)" fill="#282828" cx="7.503" cy="8.162" rx="7.472" ry="7.667"/>
<ellipse transform="matrix(0.9224 -0.3863 0.3863 0.9224 0.0998 17.8313)" fill="#282828" cx="44.413" cy="8.667" rx="7.472" ry="7.667"/>
<linearGradient id="SVGID_1_" gradientUnits="userSpaceOnUse" x1="0.1457" y1="7.6399" x2="15.1517" y2="7.6399">
	<stop  offset="0" style="stop-color:#D4DDCC"/>
	<stop  offset="0.1878" style="stop-color:#CADCD1"/>
	<stop  offset="0.4459" style="stop-color:#B7D9DA"/>
	<stop  offset="0.6527" style="stop-color:#A7BBD1"/>
	<stop  offset="1" style="stop-color:#8C8BC4"/>
</linearGradient>
<path fill="url(#SVGID_1_)" d="M14.54,4.753c1.636,3.905-0.124,8.364-3.93,9.958s-8.218-0.279-9.853-4.185s0.124-8.364,3.93-9.958
	S12.904,0.848,14.54,4.753z"/>
<path fill="#87A09D" d="M5.474,7.674c0,0-0.493,0.27-0.679,1.34c-0.153,0.879,1.041,2.114,2.609,2.454
	c2.382,0.517,5.012-2.707,4.119-4.6c-0.181-0.384-1.073-0.976-2.04-1.162C8.182,5.455,5.474,7.674,5.474,7.674z"/>
<ellipse transform="matrix(0.9224 -0.3863 0.3863 0.9224 -2.0574 3.4292)" fill="#080907" cx="7.503" cy="6.833" rx="3.262" ry="3.347"/>
<linearGradient id="SVGID_2_" gradientUnits="userSpaceOnUse" x1="36.91" y1="8.1453" x2="51.916" y2="8.1453">
	<stop  offset="0" style="stop-color:#D4DDCC"/>
	<stop  offset="0.1878" style="stop-color:#CADCD1"/>
	<stop  offset="0.4459" style="stop-color:#B7D9DA"/>
	<stop  offset="0.6527" style="stop-color:#A7BBD1"/>
	<stop  offset="1" style="stop-color:#8C8BC4"/>
</linearGradient>
<path fill="url(#SVGID_2_)" d="M51.305,5.259c1.636,3.905-0.124,8.364-3.93,9.958c-3.806,1.594-8.218-0.279-9.853-4.185
	c-1.636-3.905,0.124-8.364,3.93-9.958C45.257-0.52,49.669,1.353,51.305,5.259z"/>
<path fill="#87A09D" d="M42.239,8.179c0,0-0.493,0.27-0.679,1.34c-0.153,0.879,1.041,2.114,2.609,2.454
	c2.382,0.517,5.012-2.707,4.119-4.6c-0.181-0.384-1.073-0.976-2.04-1.162C44.946,5.96,42.239,8.179,42.239,8.179z"/>
<ellipse transform="matrix(0.9224 -0.3863 0.3863 0.9224 0.6018 17.6718)" fill="#080907" cx="44.267" cy="7.339" rx="3.262" ry="3.347"/>
<path fill="#FDFDFE" d="M6.324,4.195C6.045,4.233,5.577,4.713,5.53,4.99C5.498,5.178,5.68,5.623,5.863,5.679
	C6.07,5.742,6.489,5.422,6.61,5.243c0.116-0.17,0.209-0.626,0.124-0.814C6.685,4.322,6.441,4.179,6.324,4.195z"/>
<path fill="#FDFDFE" d="M43.088,4.7c-0.278,0.037-0.747,0.518-0.794,0.795c-0.032,0.189,0.15,0.633,0.333,0.689
	c0.207,0.063,0.626-0.257,0.747-0.435c0.116-0.17,0.209-0.626,0.124-0.814C43.45,4.827,43.205,4.685,43.088,4.7z"/>
</svg>
