<?xml version="1.0" encoding="utf-8"?>
<!-- Generator: Adobe Illustrator 17.0.0, SVG Export Plug-In . SVG Version: 6.00 Build 0)  -->
<!DOCTYPE svg PUBLIC "-//W3C//DTD SVG 1.1//EN" "http://www.w3.org/Graphics/SVG/1.1/DTD/svg11.dtd">
<svg version="1.1" id="Layer_1" xmlns="http://www.w3.org/2000/svg" xmlns:xlink="http://www.w3.org/1999/xlink" x="0px" y="0px"
	 width="49.526px" height="24.185px" viewBox="0 0 49.526 24.185" enable-background="new 0 0 49.526 24.185" xml:space="preserve">
<g>
	
		<image overflow="visible" opacity="0.4" width="49" height="50" xlink:href="C13ADEB37D032157.png"  transform="matrix(0.48 0 0 0.48 0 0.1848)">
	</image>
	<g>
		
			<ellipse transform="matrix(0.9224 -0.3863 0.3863 0.9224 -3.741 5.477)" fill="#E6E8EE" cx="11.756" cy="12.046" rx="5.732" ry="5.881"/>
	</g>
</g>
<g>
	
		<image overflow="visible" opacity="0.4" width="39" height="39" xlink:href="C13ADEB37D032155.png"  transform="matrix(0.48 0 0 0.48 2.565 2.9549)">
	</image>
	<g>
		
			<ellipse transform="matrix(0.9224 -0.3863 0.3863 0.9224 -3.8021 5.4893)" fill="#14332E" cx="11.756" cy="12.204" rx="3.178" ry="3.26"/>
	</g>
</g>
<g>
	
		<image overflow="visible" opacity="0.4" width="27" height="27" xlink:href="C13ADEB37D03215B.png"  transform="matrix(0.48 0 0 0.48 4.0371 3.9871)">
	</image>
	<g>
		<path fill="#AABFBC" d="M10.376,9.988c-0.118,0.016-0.318,0.22-0.337,0.338c-0.014,0.08,0.064,0.269,0.142,0.293
			c0.088,0.027,0.266-0.109,0.318-0.185c0.049-0.072,0.089-0.266,0.053-0.346C10.53,10.041,10.426,9.981,10.376,9.988z"/>
	</g>
</g>
<g>
	
		<image overflow="visible" opacity="0.4" width="32" height="31" xlink:href="C13ADEB37D03215D.png"  transform="matrix(0.48 0 0 0.48 4.537 5.3733)">
	</image>
	<g>
		<path fill="#87A09D" d="M10.831,12.218c0,0-0.21,0.115-0.289,0.57c-0.065,0.374,0.443,0.899,1.11,1.044
			c1.013,0.22,2.131-1.151,1.752-1.956c-0.077-0.163-0.456-0.415-0.867-0.494C11.983,11.275,10.831,12.218,10.831,12.218z"/>
	</g>
</g>
<g>
	
		<image overflow="visible" opacity="0.4" width="31" height="31" xlink:href="C13ADEB37D03215F.png"  transform="matrix(0.48 0 0 0.48 4.301 4.4426)">
	</image>
	<g>
		
			<ellipse transform="matrix(0.9224 -0.3863 0.3863 0.9224 -3.6744 5.4387)" fill="#080907" cx="11.694" cy="11.861" rx="1.387" ry="1.423"/>
	</g>
</g>
<g>
	
		<image overflow="visible" opacity="0.4" width="49" height="50" xlink:href="C13ADEB37D03215C.png"  transform="matrix(0.48 0 0 0.48 26.0061 0)">
	</image>
	<g>
		
			<ellipse transform="matrix(0.9224 -0.3863 0.3863 0.9224 -1.6504 15.5097)" fill="#E6E8EE" cx="37.762" cy="11.861" rx="5.732" ry="5.881"/>
	</g>
</g>
<g>
	
		<image overflow="visible" opacity="0.4" width="39" height="39" xlink:href="C13ADEB37D032154.png"  transform="matrix(0.48 0 0 0.48 28.5712 2.7701)">
	</image>
	<g>
		
			<ellipse transform="matrix(0.9224 -0.3863 0.3863 0.9224 -1.7115 15.522)" fill="#14332E" cx="37.762" cy="12.019" rx="3.178" ry="3.26"/>
	</g>
</g>
<g>
	
		<image overflow="visible" opacity="0.4" width="27" height="27" xlink:href="C13ADEB37D032156.png"  transform="matrix(0.48 0 0 0.48 30.0432 3.8023)">
	</image>
	<g>
		<path fill="#AABFBC" d="M36.382,9.803c-0.118,0.016-0.318,0.22-0.337,0.338c-0.014,0.08,0.064,0.269,0.142,0.293
			c0.088,0.027,0.266-0.109,0.318-0.185c0.049-0.072,0.089-0.266,0.053-0.346C36.536,9.857,36.432,9.796,36.382,9.803z"/>
	</g>
</g>
<g>
	
		<image overflow="visible" opacity="0.4" width="32" height="31" xlink:href="C13ADEB37D032152.png"  transform="matrix(0.48 0 0 0.48 30.5431 5.1885)">
	</image>
	<g>
		<path fill="#87A09D" d="M36.837,12.034c0,0-0.21,0.115-0.289,0.57c-0.065,0.374,0.443,0.899,1.11,1.044
			c1.013,0.22,2.131-1.151,1.752-1.956c-0.077-0.163-0.456-0.415-0.867-0.494C37.989,11.09,36.837,12.034,36.837,12.034z"/>
	</g>
</g>
<g>
	
		<image overflow="visible" opacity="0.4" width="31" height="31" xlink:href="ED822FF11173D194.png"  transform="matrix(0.48 0 0 0.48 30.3071 4.2577)">
	</image>
	<g>
		
			<ellipse transform="matrix(0.9224 -0.3863 0.3863 0.9224 -1.5838 15.4714)" fill="#080907" cx="37.7" cy="11.676" rx="1.387" ry="1.423"/>
	</g>
</g>
</svg>
