<?xml version="1.0" encoding="utf-8"?>
<!-- Generator: Adobe Illustrator 17.0.0, SVG Export Plug-In . SVG Version: 6.00 Build 0)  -->
<!DOCTYPE svg PUBLIC "-//W3C//DTD SVG 1.1//EN" "http://www.w3.org/Graphics/SVG/1.1/DTD/svg11.dtd">
<svg version="1.1" id="Layer_1" xmlns="http://www.w3.org/2000/svg" xmlns:xlink="http://www.w3.org/1999/xlink" x="0px" y="0px"
	 width="58.246px" height="36.688px" viewBox="0 0 58.246 36.688" enable-background="new 0 0 58.246 36.688" xml:space="preserve">
<g>
	
		<image overflow="visible" opacity="0.1" width="75" height="76" xlink:href="CB65853BD7FB438.png"  transform="matrix(0.48 0 0 0.48 0 0.2081)">
	</image>
	<g>
		
			<ellipse transform="matrix(0.9224 -0.3863 0.3863 0.9224 -5.6798 8.3502)" fill="#EB9DC4" cx="17.935" cy="18.306" rx="8.898" ry="9.13"/>
	</g>
</g>
<path fill="#FFFFFF" d="M25.385,15.732c0,0-1.305,10.377-8.488,9.211c-6.032-0.979-6.597-9.158-6.597-9.158s1.917-1.255,7.065-1.255
	C23.723,14.53,25.385,15.732,25.385,15.732z"/>
<path fill="#87A09D" d="M16.199,17.942c0,0-0.42,0.23-0.578,1.142c-0.13,0.749,0.888,1.802,2.224,2.092
	c2.031,0.441,4.272-2.308,3.511-3.921c-0.154-0.327-0.915-0.832-1.738-0.991C18.507,16.051,16.199,17.942,16.199,17.942z"/>
<ellipse transform="matrix(0.9224 -0.3863 0.3863 0.9224 -5.5087 8.3132)" fill="#080907" cx="17.928" cy="17.862" rx="2.78" ry="2.853"/>
<path fill="#AABFBC" d="M16.538,16.249c-0.237,0.032-0.637,0.441-0.676,0.677c-0.027,0.161,0.128,0.539,0.284,0.587
	c0.176,0.054,0.533-0.219,0.637-0.371c0.099-0.145,0.178-0.534,0.106-0.694C16.847,16.357,16.638,16.236,16.538,16.249z"/>
<path fill="#080907" d="M7.411,10.934c0,0-0.237,2.896,0.181,3.731c0.393,0.786,2.707,1.12,2.707,1.12s3.85-1.29,7.542-1.252
	c4.041,0.041,7.542,1.2,7.542,1.2s1.781-1.245,1.951-2.19c0.117-0.652-0.466-2.608-0.466-2.608s0.187,1.984,0,2.608
	c-0.237,0.79-0.915,1.241-1.676,1.56c-0.361,0.151-1.173-0.021-1.528-0.194c-0.292-0.142,0.818-0.707,0.934-1.413
	c0.222-1.35-0.381-5.459-0.381-5.459s-0.188,3.884-0.471,5.144c-0.156,0.696-0.709,1.35-0.978,1.561
	c-0.082,0.064-2.469-0.42-2.5-0.471c-0.191-0.312,1.151-1.577,1.237-2.539c0.119-1.332-0.788-5.289-0.788-5.289
	s0.006,3.684-0.195,4.891c-0.166,0.998-0.892,2.443-1.159,2.756c-0.089,0.104-1.431-0.065-1.524-0.145
	c-0.152-0.13-0.453-1.415-0.469-2.271c-0.022-1.169,0.469-4.652,0.469-4.652s-1.382,3.203-1.455,4.347
	c-0.057,0.894,0.657,2.108,0.696,2.394c0.027,0.194-2.065,0.559-2.391,0.507c-0.218-0.035-0.96-1.851-1.089-2.879
	c-0.137-1.093,0.074-4.406,0.074-4.406s-1.148,3.362-1.123,4.528c0.022,1.029,1.003,2.436,1.159,2.829
	c0.12,0.302-2.658,0.698-2.934,0.677c-0.813-0.062-2.093-0.249-2.536-0.933C7.802,13.401,7.411,10.934,7.411,10.934z"/>
<g>
	
		<image overflow="visible" opacity="0.1" width="75" height="76" xlink:href="CB65853BD7FB439.png"  transform="matrix(0.48 0 0 0.48 22.2462 0)">
	</image>
	<g>
		
			<ellipse transform="matrix(0.9224 -0.3863 0.3863 0.9224 -3.8722 16.9286)" fill="#EB9DC4" cx="40.181" cy="18.098" rx="8.898" ry="9.13"/>
	</g>
</g>
<path fill="#FFFFFF" d="M47.631,15.524c0,0-1.305,10.377-8.488,9.211c-6.032-0.979-6.597-9.158-6.597-9.158s1.917-1.255,7.065-1.255
	C45.969,14.322,47.631,15.524,47.631,15.524z"/>
<path fill="#87A09D" d="M38.445,17.734c0,0-0.42,0.23-0.578,1.142c-0.13,0.749,0.888,1.802,2.224,2.092
	c2.031,0.441,4.272-2.308,3.511-3.921c-0.154-0.327-0.915-0.832-1.738-0.991C40.753,15.843,38.445,17.734,38.445,17.734z"/>
<ellipse transform="matrix(0.9224 -0.3863 0.3863 0.9224 -3.701 16.8916)" fill="#080907" cx="40.175" cy="17.654" rx="2.78" ry="2.853"/>
<path fill="#AABFBC" d="M38.784,16.041c-0.237,0.032-0.637,0.441-0.676,0.677c-0.027,0.161,0.128,0.539,0.284,0.587
	c0.176,0.054,0.533-0.219,0.637-0.371c0.099-0.145,0.178-0.534,0.106-0.694C39.093,16.149,38.884,16.028,38.784,16.041z"/>
<path fill="#080907" d="M29.657,10.726c0,0-0.237,2.896,0.181,3.731c0.393,0.786,2.707,1.12,2.707,1.12s3.85-1.29,7.542-1.252
	c4.041,0.041,7.542,1.2,7.542,1.2s1.781-1.245,1.951-2.19c0.117-0.652-0.466-2.608-0.466-2.608s0.187,1.984,0,2.608
	c-0.237,0.79-0.915,1.241-1.676,1.56c-0.361,0.151-1.173-0.021-1.528-0.194c-0.292-0.142,0.818-0.707,0.934-1.413
	c0.222-1.35-0.381-5.459-0.381-5.459s-0.188,3.884-0.471,5.144c-0.156,0.696-0.709,1.35-0.978,1.561
	c-0.082,0.064-2.469-0.42-2.5-0.471c-0.191-0.312,1.151-1.577,1.237-2.539c0.119-1.332-0.788-5.289-0.788-5.289
	s0.006,3.684-0.195,4.891c-0.166,0.998-0.892,2.443-1.159,2.756c-0.089,0.104-1.431-0.065-1.524-0.145
	c-0.152-0.13-0.453-1.415-0.469-2.271c-0.022-1.169,0.469-4.652,0.469-4.652s-1.382,3.203-1.455,4.347
	c-0.057,0.894,0.657,2.108,0.696,2.394c0.027,0.194-2.065,0.559-2.391,0.507c-0.218-0.035-0.96-1.851-1.089-2.879
	c-0.137-1.093,0.074-4.406,0.074-4.406s-1.148,3.362-1.123,4.528c0.022,1.029,1.003,2.436,1.159,2.829
	c0.12,0.302-2.658,0.698-2.934,0.677c-0.813-0.062-2.093-0.249-2.536-0.933C30.048,13.193,29.657,10.726,29.657,10.726z"/>
</svg>
