<?xml version="1.0" encoding="utf-8"?>
<!-- Generator: Adobe Illustrator 17.0.0, SVG Export Plug-In . SVG Version: 6.00 Build 0)  -->
<!DOCTYPE svg PUBLIC "-//W3C//DTD SVG 1.1//EN" "http://www.w3.org/Graphics/SVG/1.1/DTD/svg11.dtd">
<svg version="1.1" id="Layer_1" xmlns="http://www.w3.org/2000/svg" xmlns:xlink="http://www.w3.org/1999/xlink" x="0px" y="0px"
	 width="74.067px" height="36.206px" viewBox="0 0 74.067 36.206" enable-background="new 0 0 74.067 36.206" xml:space="preserve">
<g>
	<g>
		
			<image overflow="visible" opacity="0.2" width="48" height="49" xlink:href="D36C6AAD2DE836F7.png"  transform="matrix(0.48 0 0 0.48 17.344 0.2574)">
		</image>
		<g>
			
				<ellipse transform="matrix(0.9224 -0.3863 0.3863 0.9224 -2.3422 12.0651)" fill="#E6E8EE" cx="28.846" cy="11.86" rx="5.479" ry="5.622"/>
		</g>
	</g>
	<g>
		
			<image overflow="visible" opacity="0.2" width="49" height="50" xlink:href="D36C6AAD2DE836F5.png"  transform="matrix(0.48 0 0 0.48 33.451 0)">
		</image>
		<g>
			
				<ellipse transform="matrix(0.9224 -0.3863 0.3863 0.9224 -1.044 18.3441)" fill="#E6E8EE" cx="45.117" cy="11.769" rx="5.642" ry="5.79"/>
		</g>
	</g>
	<g>
		
			<image overflow="visible" opacity="0.2" width="43" height="43" xlink:href="D36C6AAD2DE836FB.png"  transform="matrix(0.48 0 0 0.48 33.2929 3.2765)">
		</image>
		<g>
			<linearGradient id="SVGID_1_" gradientUnits="userSpaceOnUse" x1="39.2929" y1="13.5347" x2="47.7147" y2="13.5347">
				<stop  offset="0" style="stop-color:#7CC3E2"/>
				<stop  offset="0.2342" style="stop-color:#7891B2"/>
				<stop  offset="0.7646" style="stop-color:#5A365C"/>
				<stop  offset="1" style="stop-color:#4A0D3F"/>
			</linearGradient>
			<path fill="url(#SVGID_1_)" d="M40.026,9.277c0,0-2.221,4.022,1.069,6.932c3.488,3.086,6.62,0.714,6.62,0.714
				s-0.03-3.799-1.992-5.586C43.433,9.251,40.026,9.277,40.026,9.277z"/>
		</g>
	</g>
	<g>
		
			<image overflow="visible" opacity="0.2" width="43" height="43" xlink:href="D36C6AAD2DE836FD.png"  transform="matrix(0.48 0 0 0.48 17.344 2.946)">
		</image>
		<g>
			<linearGradient id="SVGID_2_" gradientUnits="userSpaceOnUse" x1="23.344" y1="13.2042" x2="31.7658" y2="13.2042">
				<stop  offset="0" style="stop-color:#7CC3E2"/>
				<stop  offset="0.2342" style="stop-color:#7891B2"/>
				<stop  offset="0.7646" style="stop-color:#5A365C"/>
				<stop  offset="1" style="stop-color:#4A0D3F"/>
			</linearGradient>
			<path fill="url(#SVGID_2_)" d="M24.077,8.946c0,0-2.221,4.022,1.069,6.932c3.488,3.086,6.62,0.714,6.62,0.714
				s-0.03-3.799-1.992-5.586C27.484,8.921,24.077,8.946,24.077,8.946z"/>
		</g>
	</g>
	<g>
		
			<image overflow="visible" opacity="0.1" width="59" height="60" xlink:href="D36C6AAD2DE836FF.png"  transform="matrix(0.48 0 0 0.48 45.7467 7.2042)">
		</image>
		<g>
			
				<ellipse transform="matrix(0.9224 -0.3863 0.3863 0.9224 -3.6488 24.798)" fill="#C7DCF2" cx="59.871" cy="21.477" rx="8.091" ry="8.302"/>
		</g>
	</g>
	<g>
		
			<image overflow="visible" opacity="0.1" width="59" height="60" xlink:href="D36C6AAD2DE836FC.png"  transform="matrix(0.48 0 0 0.48 0 7.4065)">
		</image>
		<g>
			
				<ellipse transform="matrix(0.9224 -0.3863 0.3863 0.9224 -7.2516 7.0999)" fill="#C7DCF2" cx="14.038" cy="21.591" rx="8.005" ry="8.214"/>
		</g>
	</g>
</g>
</svg>
