<?xml version="1.0" encoding="utf-8"?>
<!-- Generator: Adobe Illustrator 17.0.0, SVG Export Plug-In . SVG Version: 6.00 Build 0)  -->
<!DOCTYPE svg PUBLIC "-//W3C//DTD SVG 1.1//EN" "http://www.w3.org/Graphics/SVG/1.1/DTD/svg11.dtd">
<svg version="1.1" id="Layer_1" xmlns="http://www.w3.org/2000/svg" xmlns:xlink="http://www.w3.org/1999/xlink" x="0px" y="0px"
	 width="61.866px" height="28.387px" viewBox="0 0 61.866 28.387" enable-background="new 0 0 61.866 28.387" xml:space="preserve">
<path fill="#282828" d="M22.617,19.558c-1.767,2.759-5.38,3.599-8.068,1.876c-2.689-1.722-4.389-4.024-1.732-5.942
	c3.251-2.348,5.554-2.516,8.242-0.793C23.747,16.422,24.385,16.799,22.617,19.558z"/>
<path fill="#282828" d="M37.979,19.536c1.767,2.759,5.38,3.599,8.068,1.876c2.689-1.722,4.389-4.024,1.732-5.942
	c-3.251-2.348-5.554-2.516-8.242-0.793S36.212,16.777,37.979,19.536z"/>
<g>
	
		<image overflow="visible" opacity="0.3" width="51" height="44" xlink:href="656331DF080E57D5.png"  transform="matrix(0.48 0 0 0.48 5.484 7.2672)">
	</image>
	<g>
		<path fill="#E388B8" d="M22.617,19.277c-1.767,2.759-5.38,3.599-8.068,1.876s-4.389-4.024-1.732-5.942
			c3.251-2.348,5.554-2.516,8.242-0.793S24.385,16.518,22.617,19.277z"/>
	</g>
</g>
<ellipse transform="matrix(0.9967 0.0806 -0.0806 0.9967 1.4772 -1.3479)" fill="#E6E8EE" cx="17.431" cy="17.62" rx="5.605" ry="3.91"/>
<linearGradient id="SVGID_1_" gradientUnits="userSpaceOnUse" x1="14.2423" y1="17.587" x2="20.2361" y2="17.587">
	<stop  offset="0" style="stop-color:#097172"/>
	<stop  offset="0.0263" style="stop-color:#006F70"/>
	<stop  offset="0.2021" style="stop-color:#006063"/>
	<stop  offset="0.3763" style="stop-color:#005156"/>
	<stop  offset="0.5458" style="stop-color:#00464B"/>
	<stop  offset="0.7091" style="stop-color:#003C42"/>
	<stop  offset="0.8636" style="stop-color:#00363C"/>
	<stop  offset="1" style="stop-color:#00343A"/>
</linearGradient>
<path fill="url(#SVGID_1_)" d="M19.743,19.191c-0.909,1.419-2.767,1.851-4.15,0.965s-1.767-2.755-0.858-4.174
	s2.767-1.851,4.15-0.965C20.268,15.904,20.652,17.772,19.743,19.191z"/>
<ellipse transform="matrix(0.9743 -0.2253 0.2253 0.9743 -3.4939 4.3139)" fill="#080907" cx="17.158" cy="17.468" rx="1.298" ry="1.332"/>
<path fill="#FAFDFD" d="M16.688,16.549c-0.112-0.004-0.328,0.153-0.365,0.259c-0.025,0.072,0.016,0.258,0.084,0.293
	c0.077,0.039,0.263-0.059,0.322-0.121c0.057-0.059,0.124-0.232,0.103-0.311C16.821,16.623,16.735,16.551,16.688,16.549z"/>
<path fill="#AABFBC" d="M17.723,18.164c0,0,0.411,0.176,0.572,0.196c0.12,0.015,0.499-0.013,0.499-0.013s-0.134,0.357-0.109,0.511
	c0.02,0.119,0.062,0.403,0.062,0.403s-0.317-0.092-0.505-0.105c-0.127-0.009-0.515,0.068-0.515,0.068s0.126-0.372,0.139-0.506
	C17.881,18.552,17.723,18.164,17.723,18.164z"/>
<g>
	
		<image overflow="visible" opacity="0.3" width="51" height="44" xlink:href="656331DF080E57D7.png"  transform="matrix(0.48 0 0 0.48 30.987 7.2672)">
	</image>
	<g>
		<path fill="#E388B8" d="M37.979,19.277c1.767,2.759,5.38,3.599,8.068,1.876s4.389-4.024,1.732-5.942
			c-3.251-2.348-5.554-2.516-8.242-0.793S36.212,16.518,37.979,19.277z"/>
	</g>
</g>
<ellipse transform="matrix(-0.9967 0.0806 -0.0806 -0.9967 87.6126 31.7022)" fill="#E6E8EE" cx="43.166" cy="17.62" rx="5.605" ry="3.91"/>
<linearGradient id="SVGID_2_" gradientUnits="userSpaceOnUse" x1="40.3608" y1="17.587" x2="46.3546" y2="17.587">
	<stop  offset="0" style="stop-color:#097172"/>
	<stop  offset="0.0263" style="stop-color:#006F70"/>
	<stop  offset="0.2021" style="stop-color:#006063"/>
	<stop  offset="0.3763" style="stop-color:#005156"/>
	<stop  offset="0.5458" style="stop-color:#00464B"/>
	<stop  offset="0.7091" style="stop-color:#003C42"/>
	<stop  offset="0.8636" style="stop-color:#00363C"/>
	<stop  offset="1" style="stop-color:#00343A"/>
</linearGradient>
<path fill="url(#SVGID_2_)" d="M40.854,19.191c0.909,1.419,2.767,1.851,4.15,0.965c1.383-0.886,1.767-2.755,0.858-4.174
	c-0.909-1.419-2.767-1.851-4.15-0.965S39.945,17.772,40.854,19.191z"/>
<ellipse transform="matrix(-0.9743 -0.2253 0.2253 -0.9743 81.8267 44.2726)" fill="#080907" cx="43.439" cy="17.468" rx="1.298" ry="1.332"/>
<path fill="#FAFDFD" d="M42.767,16.746c-0.112-0.004-0.328,0.153-0.365,0.259c-0.025,0.072,0.016,0.258,0.084,0.293
	c0.077,0.039,0.263-0.059,0.322-0.121c0.057-0.059,0.124-0.232,0.103-0.311C42.901,16.82,42.814,16.748,42.767,16.746z"/>
<path fill="#AABFBC" d="M43.654,18.164c0,0,0.411,0.176,0.572,0.196c0.12,0.015,0.499-0.013,0.499-0.013s-0.134,0.357-0.109,0.511
	c0.02,0.119,0.062,0.403,0.062,0.403s-0.317-0.092-0.505-0.105c-0.127-0.009-0.515,0.068-0.515,0.068s0.126-0.372,0.139-0.506
	C43.812,18.552,43.654,18.164,43.654,18.164z"/>
<g>
	
		<image overflow="visible" opacity="0.3" width="59" height="49" xlink:href="656331DF080E57D2.png"  transform="matrix(0.48 0 0 0.48 0 0.4616)">
	</image>
	<g>
		<linearGradient id="SVGID_3_" gradientUnits="userSpaceOnUse" x1="6" y1="12.079" x2="22.1241" y2="12.079">
			<stop  offset="0" style="stop-color:#001E1E"/>
			<stop  offset="0.0297" style="stop-color:#001F1F"/>
			<stop  offset="0.3777" style="stop-color:#002B2E"/>
			<stop  offset="0.708" style="stop-color:#003237"/>
			<stop  offset="1" style="stop-color:#00343A"/>
		</linearGradient>
		<path fill="url(#SVGID_3_)" d="M6.213,16.392c0.123,0.254,0.662,0.536,0.912,0.666c0.434,0.226,1.371,0.71,1.854,0.629
			c0.372-0.063,0.532-2.371,1.887-5.131c1.382-2.814,5.01-2.845,5.793-2.814c1.262,0.051,4.866,1.357,4.866,1.357
			s0.649-0.744,0.596-2.086c-0.038-0.965-0.153-1.249-0.429-1.537c-0.229-0.24-0.998-0.62-1.259-0.416
			c-0.261,0.204,0.282,1.043,0.101,1.321c-0.159,0.244-0.843,0.527-1.099,0.388c-0.249-0.135-0.504-0.692-0.524-1.158
			c-0.014-0.328,0.228-0.593,0.072-0.716c-0.103-0.081-0.432-0.093-0.525,0c-0.188,0.188,0.145,0.468,0.067,0.723
			c-0.219,0.715-0.605,0.706-0.802,0.666c-0.316-0.064-0.634-0.593-0.657-0.914c-0.01-0.138,0.065-0.527,0.025-0.66
			c-0.045-0.149-0.385-0.129-0.514-0.041c-0.153,0.105,0.058,0.567,0,0.743c-0.095,0.286-0.418,0.946-0.719,0.969
			c-0.298,0.023-0.721-0.57-0.848-0.84c-0.111-0.235,0.095-0.859-0.097-1.034c-0.066-0.06-0.294-0.064-0.355,0
			c-0.157,0.163,0.059,0.68,0.032,0.905c-0.038,0.317-0.077,1.058-0.347,1.228c-0.196,0.123-0.723-0.028-0.913-0.162
			c-0.252-0.177-0.438-0.784-0.546-1.072c-0.058-0.154-0.051-0.564-0.197-0.641c-0.109-0.057-0.407,0.079-0.452,0.194
			c-0.052,0.131,0.221,0.497,0.262,0.632c0.079,0.259,0.229,0.689,0.158,0.951c-0.072,0.267-0.443,0.825-0.719,0.84
			c-0.295,0.016-0.705-0.635-0.868-0.882c-0.156-0.237-0.11-0.915-0.383-0.992c-0.1-0.028-0.298,0.158-0.323,0.258
			c-0.06,0.239,0.328,0.666,0.388,0.905c0.067,0.267,0.283,0.895,0.097,1.099c-0.153,0.167-0.703,0.102-0.905,0
			C9.525,9.613,9.351,8.616,9,8.64C8.899,8.647,8.803,8.895,8.806,8.996c0.011,0.316,0.539,0.783,0.678,1.066
			c0.125,0.254,0.526,0.819,0.388,1.066c-0.117,0.209-0.704,0.248-0.937,0.194c-0.309-0.071-0.689-0.722-1.002-0.775
			c-0.076-0.013-0.268,0.024-0.291,0.097c-0.087,0.281,0.549,0.692,0.711,0.937c0.144,0.217,0.542,0.645,0.517,0.905
			c-0.014,0.148-0.244,0.414-0.388,0.452c-0.299,0.079-0.899-0.259-1.163-0.42c-0.132-0.08-0.301-0.452-0.452-0.42
			c-0.12,0.025-0.239,0.338-0.194,0.452c0.058,0.148,0.466,0.257,0.594,0.351c0.237,0.175,0.681,0.512,0.763,0.795
			c0.061,0.209,0.045,0.731-0.129,0.862c-0.208,0.157-0.782-0.068-1.034-0.134c-0.21-0.055-0.628-0.445-0.808-0.323
			c-0.095,0.064-0.063,0.362,0,0.457c0.136,0.205,0.682,0.28,0.905,0.383c0.213,0.098,0.733,0.211,0.84,0.42
			c0.089,0.175,0.021,0.65-0.129,0.777c-0.086,0.073-0.34,0.013-0.452,0c-0.253-0.03-0.789-0.393-0.993-0.238
			C6.132,15.974,6.159,16.281,6.213,16.392z"/>
	</g>
</g>
<g>
	
		<image overflow="visible" opacity="0.3" width="59" height="49" xlink:href="656331DF080E57D3.png"  transform="matrix(0.48 0 0 0.48 33.5456 0)">
	</image>
	<g>
		
			<linearGradient id="SVGID_4_" gradientUnits="userSpaceOnUse" x1="-12547.1729" y1="11.6174" x2="-12531.0488" y2="11.6174" gradientTransform="matrix(-1 0 0 1 -12491.5029 0)">
			<stop  offset="0" style="stop-color:#001E1E"/>
			<stop  offset="0.0297" style="stop-color:#001F1F"/>
			<stop  offset="0.3777" style="stop-color:#002B2E"/>
			<stop  offset="0.708" style="stop-color:#003237"/>
			<stop  offset="1" style="stop-color:#00343A"/>
		</linearGradient>
		<path fill="url(#SVGID_4_)" d="M55.457,15.93c-0.123,0.254-0.662,0.536-0.912,0.666c-0.434,0.226-1.371,0.71-1.854,0.629
			c-0.372-0.063-0.532-2.371-1.887-5.131c-1.382-2.814-5.01-2.845-5.793-2.814c-1.262,0.051-4.866,1.357-4.866,1.357
			s-0.649-0.744-0.596-2.086c0.038-0.965,0.153-1.249,0.429-1.537c0.229-0.24,0.998-0.62,1.259-0.416
			c0.261,0.204-0.282,1.043-0.101,1.321c0.159,0.244,0.843,0.527,1.099,0.388c0.249-0.135,0.504-0.692,0.524-1.158
			c0.014-0.328-0.228-0.593-0.072-0.716c0.103-0.081,0.432-0.093,0.525,0c0.188,0.188-0.145,0.468-0.067,0.723
			c0.219,0.715,0.605,0.706,0.802,0.666c0.316-0.064,0.634-0.593,0.657-0.914c0.01-0.138-0.065-0.527-0.025-0.66
			c0.045-0.149,0.385-0.129,0.514-0.041c0.153,0.105-0.058,0.567,0,0.743c0.095,0.286,0.418,0.946,0.719,0.969
			c0.298,0.023,0.721-0.57,0.848-0.84c0.111-0.235-0.095-0.859,0.097-1.034c0.066-0.06,0.294-0.064,0.355,0
			c0.157,0.163-0.059,0.68-0.032,0.905c0.038,0.317,0.077,1.058,0.347,1.228c0.196,0.123,0.723-0.028,0.913-0.162
			c0.252-0.177,0.438-0.784,0.546-1.072c0.058-0.154,0.051-0.564,0.197-0.641c0.109-0.057,0.407,0.079,0.452,0.194
			c0.052,0.131-0.221,0.497-0.262,0.632c-0.079,0.259-0.229,0.689-0.158,0.951c0.072,0.267,0.443,0.825,0.719,0.84
			c0.295,0.016,0.705-0.635,0.868-0.882c0.156-0.237,0.11-0.915,0.383-0.992c0.1-0.028,0.298,0.158,0.323,0.258
			c0.06,0.239-0.328,0.666-0.388,0.905c-0.067,0.267-0.283,0.895-0.097,1.099c0.153,0.167,0.703,0.102,0.905,0
			c0.315-0.158,0.489-1.155,0.84-1.131c0.101,0.007,0.197,0.254,0.194,0.355C52.853,8.85,52.325,9.317,52.185,9.6
			c-0.125,0.254-0.526,0.819-0.388,1.066c0.117,0.209,0.704,0.248,0.937,0.194c0.309-0.071,0.689-0.722,1.002-0.775
			c0.076-0.013,0.268,0.024,0.291,0.097c0.087,0.281-0.549,0.692-0.711,0.937c-0.144,0.217-0.542,0.645-0.517,0.905
			c0.014,0.148,0.244,0.414,0.388,0.452c0.299,0.079,0.899-0.259,1.163-0.42c0.132-0.08,0.301-0.452,0.452-0.42
			c0.12,0.025,0.239,0.338,0.194,0.452c-0.058,0.148-0.466,0.257-0.594,0.351c-0.237,0.175-0.681,0.512-0.763,0.795
			c-0.061,0.209-0.045,0.731,0.129,0.862c0.208,0.157,0.782-0.068,1.034-0.134c0.21-0.055,0.628-0.445,0.808-0.323
			c0.095,0.064,0.063,0.362,0,0.457c-0.136,0.205-0.682,0.28-0.905,0.383c-0.213,0.098-0.733,0.211-0.84,0.42
			c-0.089,0.175-0.021,0.65,0.129,0.777c0.086,0.073,0.34,0.013,0.452,0c0.253-0.03,0.789-0.393,0.993-0.238
			C55.537,15.512,55.511,15.82,55.457,15.93z"/>
	</g>
</g>
</svg>
