<?xml version="1.0" encoding="utf-8"?>
<!-- Generator: Adobe Illustrator 17.0.0, SVG Export Plug-In . SVG Version: 6.00 Build 0)  -->
<!DOCTYPE svg PUBLIC "-//W3C//DTD SVG 1.1//EN" "http://www.w3.org/Graphics/SVG/1.1/DTD/svg11.dtd">
<svg version="1.1" id="Layer_1" xmlns="http://www.w3.org/2000/svg" xmlns:xlink="http://www.w3.org/1999/xlink" x="0px" y="0px"
	 width="90.63px" height="34.483px" viewBox="0 0 90.63 34.483" enable-background="new 0 0 90.63 34.483" xml:space="preserve">
<path fill="#282828" d="M37.816,15.581c0,0-0.035-1.002-0.104-1.327c-0.082-0.386-0.681-1.126-0.526-1.489
	c0.548-1.279,3.72-1.469,5.104-1.62c1.835-0.2,5.769,0.21,7.356,1.154c0.282,0.167,0.822,0.34,0.822,0.34l-0.329,1.022
	c0,0-0.52-0.26-0.964-0.517c-1.492-0.865-5.16-1.247-6.876-1.076c-1.138,0.114-3.77,0.104-4.228,1.153
	c-0.098,0.225,0.287,0.683,0.327,0.925c0.106,0.639-0.186,2.728-0.186,2.728l-0.2,0.178L37.816,15.581z"/>
<path fill="#282828" d="M70.23,14.951c0,0,6.529-0.432,6.917-0.422c0.889,0.022,6.081-1.125,6.886-0.748
	c0.122,0.057,0.358,0.226,0.406,0.352c0.101,0.262,0.088,0.861-0.148,1.014c-0.156,0.101-0.588,0.084-0.977,0.148
	c-1.169,0.192-5.372,0.615-6.275,0.681c-0.586,0.043-6.376,0.369-6.376,0.369L70.23,14.951z"/>
<path fill="#282828" d="M37.852,14.242c-1.955-5.532-7.972-8.45-13.439-6.518c-5.467,1.932-8.314,7.983-6.359,13.514
	c1.955,5.532,7.972,8.45,13.439,6.518C36.96,25.824,39.807,19.774,37.852,14.242z M31.258,27.092
	c-5.105,1.804-10.722-0.921-12.548-6.086c-1.825-5.165,0.833-10.814,5.938-12.618s10.722,0.921,12.548,6.086
	C39.021,19.639,36.362,25.288,31.258,27.092z"/>
<ellipse transform="matrix(0.9429 -0.3332 0.3332 0.9429 -4.3138 10.328)" fill="#0F1010" cx="27.953" cy="17.74" rx="9.803" ry="9.919"/>
<ellipse transform="matrix(0.9429 -0.3332 0.3332 0.9429 -2.1588 21.0298)" fill="#0F1010" cx="60.23" cy="16.808" rx="9.984" ry="10.102"/>
<path fill="#282828" d="M70.312,13.491c-1.991-5.634-8.119-8.606-13.687-6.638c-5.568,1.968-8.468,8.13-6.477,13.764
	c1.991,5.634,8.119,8.606,13.687,6.638C69.403,25.287,72.303,19.125,70.312,13.491z M63.596,26.579
	c-5.199,1.837-10.921-0.938-12.78-6.198c-1.859-5.26,0.848-11.014,6.047-12.852s10.921,0.938,12.78,6.198
	C71.503,18.987,68.795,24.741,63.596,26.579z"/>
<linearGradient id="SVGID_1_" gradientUnits="userSpaceOnUse" x1="32.5998" y1="15.1935" x2="37.7731" y2="15.1935">
	<stop  offset="0.2674" style="stop-color:#D3B396"/>
	<stop  offset="0.4324" style="stop-color:#D3AE82"/>
	<stop  offset="0.7893" style="stop-color:#D2A14C"/>
	<stop  offset="1" style="stop-color:#D19A2A"/>
</linearGradient>
<path opacity="0.8" fill="url(#SVGID_1_)" d="M32.6,8.804c0,0,2.637,3.548,3.129,5.804c0.647,2.965-0.183,4.585,0,6.098
	c0.026,0.212,0.103,0.683,0.277,0.807c0.214,0.153,1.05,0,1.05,0s1.61-3.878,0.007-7.641C35.321,9.787,32.6,8.804,32.6,8.804z"/>
<g>
	
		<image overflow="visible" opacity="0.2" width="53" height="38" xlink:href="4A30723A3DDCBC65.png"  transform="matrix(0.48 0 0 0.48 31.1605 4.9384)">
	</image>
	<g>
		<linearGradient id="SVGID_2_" gradientUnits="userSpaceOnUse" x1="37.1605" y1="13.8734" x2="50.4683" y2="13.8734">
			<stop  offset="0" style="stop-color:#D8B524"/>
			<stop  offset="0.038" style="stop-color:#D8B431"/>
			<stop  offset="0.1104" style="stop-color:#D7B452"/>
			<stop  offset="0.2089" style="stop-color:#D4B37E"/>
			<stop  offset="0.2674" style="stop-color:#D3B396"/>
			<stop  offset="0.4324" style="stop-color:#D3AE82"/>
			<stop  offset="0.7893" style="stop-color:#D2A14C"/>
			<stop  offset="1" style="stop-color:#D19A2A"/>
		</linearGradient>
		<path fill="url(#SVGID_2_)" d="M37.816,15.336c0,0-0.035-1.002-0.104-1.327c-0.082-0.386-0.681-1.126-0.526-1.489
			c0.548-1.279,3.72-1.396,5.104-1.546c1.835-0.2,6.133,0.48,7.434,1.161c0.247,0.129,0.744,0.321,0.744,0.321l-0.348,1.042
			c0,0-0.51-0.231-0.945-0.463c-1.521-0.813-5.16-1.309-6.876-1.138c-1.138,0.114-3.77,0.031-4.228,1.079
			c-0.098,0.225,0.287,0.683,0.327,0.925c0.106,0.639-0.186,2.728-0.186,2.728l-0.2,0.178L37.816,15.336z"/>
	</g>
</g>
<g>
	
		<image overflow="visible" opacity="0.2" width="55" height="31" xlink:href="4A30723A3DDCBC67.png"  transform="matrix(0.48 0 0 0.48 64.23 7.548)">
	</image>
	<g>
		<linearGradient id="SVGID_3_" gradientUnits="userSpaceOnUse" x1="70.23" y1="14.8238" x2="84.3746" y2="14.8238">
			<stop  offset="0" style="stop-color:#D8B524"/>
			<stop  offset="0.038" style="stop-color:#D8B431"/>
			<stop  offset="0.1104" style="stop-color:#D7B452"/>
			<stop  offset="0.2089" style="stop-color:#D4B37E"/>
			<stop  offset="0.2674" style="stop-color:#D3B396"/>
			<stop  offset="0.4324" style="stop-color:#D3AE82"/>
			<stop  offset="0.7893" style="stop-color:#D2A14C"/>
			<stop  offset="1" style="stop-color:#D19A2A"/>
		</linearGradient>
		<path fill="url(#SVGID_3_)" d="M70.23,14.706c0,0,6.969-0.279,7.357-0.27c0.889,0.022,5.515-1.193,6.32-0.816
			c0.122,0.057,0.357,0.226,0.406,0.352c0.101,0.262,0.096,0.963-0.14,1.116c-0.156,0.101-0.72,0.049-1.109,0.113
			c-1.062,0.176-4.978,0.562-5.881,0.628c-0.586,0.043-6.519,0.271-6.519,0.271L70.23,14.706z"/>
	</g>
</g>
<g>
	
		<image overflow="visible" opacity="0.2" width="69" height="70" xlink:href="4A30723A3DDCBC62.png"  transform="matrix(0.48 0 0 0.48 11.4372 0.8827)">
	</image>
	<g>
		<linearGradient id="SVGID_4_" gradientUnits="userSpaceOnUse" x1="17.4372" y1="17.4951" x2="38.4685" y2="17.4951">
			<stop  offset="0" style="stop-color:#D8B524"/>
			<stop  offset="0.038" style="stop-color:#D8B431"/>
			<stop  offset="0.1104" style="stop-color:#D7B452"/>
			<stop  offset="0.2089" style="stop-color:#D4B37E"/>
			<stop  offset="0.2674" style="stop-color:#D3B396"/>
			<stop  offset="0.4324" style="stop-color:#D3AE82"/>
			<stop  offset="0.7893" style="stop-color:#D2A14C"/>
			<stop  offset="1" style="stop-color:#D19A2A"/>
		</linearGradient>
		<path fill="url(#SVGID_4_)" d="M37.852,13.997c-1.955-5.532-7.972-8.45-13.439-6.518c-5.467,1.932-8.314,7.983-6.359,13.514
			c1.955,5.532,7.972,8.45,13.439,6.518C36.96,25.579,39.807,19.528,37.852,13.997z M31.258,26.847
			c-5.105,1.804-10.722-0.921-12.548-6.086c-1.825-5.165,0.833-10.814,5.938-12.618s10.722,0.921,12.548,6.086
			C39.021,19.394,36.362,25.043,31.258,26.847z"/>
	</g>
</g>
<g>
	
		<image overflow="visible" opacity="0.2" width="70" height="71" xlink:href="4A30723A3DDCBC63.png"  transform="matrix(0.48 0 0 0.48 43.5201 0)">
	</image>
	<g>
		<linearGradient id="SVGID_5_" gradientUnits="userSpaceOnUse" x1="49.5201" y1="16.8085" x2="70.9401" y2="16.8085">
			<stop  offset="0" style="stop-color:#D8B524"/>
			<stop  offset="0.038" style="stop-color:#D8B431"/>
			<stop  offset="0.1104" style="stop-color:#D7B452"/>
			<stop  offset="0.2089" style="stop-color:#D4B37E"/>
			<stop  offset="0.2674" style="stop-color:#D3B396"/>
			<stop  offset="0.4324" style="stop-color:#D3AE82"/>
			<stop  offset="0.7893" style="stop-color:#D2A14C"/>
			<stop  offset="1" style="stop-color:#D19A2A"/>
		</linearGradient>
		<path fill="url(#SVGID_5_)" d="M70.312,13.245c-1.991-5.634-8.119-8.606-13.687-6.638c-5.568,1.968-8.468,8.13-6.477,13.764
			c1.991,5.634,8.119,8.606,13.687,6.638C69.403,25.042,72.303,18.879,70.312,13.245z M63.596,26.333
			c-5.199,1.837-10.921-0.938-12.78-6.198c-1.859-5.26,0.848-11.014,6.047-12.852s10.921,0.938,12.78,6.198
			C71.503,18.742,68.795,24.496,63.596,26.333z"/>
	</g>
</g>
<path fill="#282828" d="M17.914,15.353c0,0-5.856-0.974-7.975-0.706c-1.422,0.18-3.73-0.693-3.877-0.47
	c-0.104,0.157-0.059,0.576,0.002,0.754c0.053,0.156,0.25,0.458,0.403,0.521c0.293,0.12,1.943,0.722,4.128,0.689
	c2.415-0.036,7.096,0.71,7.096,0.71s0.074-0.568,0.084-0.751C17.786,15.908,17.914,15.353,17.914,15.353z"/>
<g>
	
		<image overflow="visible" opacity="0.2" width="50" height="31" xlink:href="4A30723A3DDCBC6D.png"  transform="matrix(0.48 0 0 0.48 0 8.1186)">
	</image>
	<g>
		<linearGradient id="SVGID_6_" gradientUnits="userSpaceOnUse" x1="6" y1="15.3835" x2="17.914" y2="15.3835">
			<stop  offset="0" style="stop-color:#D8B524"/>
			<stop  offset="0.038" style="stop-color:#D8B431"/>
			<stop  offset="0.1104" style="stop-color:#D7B452"/>
			<stop  offset="0.2089" style="stop-color:#D4B37E"/>
			<stop  offset="0.2674" style="stop-color:#D3B396"/>
			<stop  offset="0.4324" style="stop-color:#D3AE82"/>
			<stop  offset="0.7893" style="stop-color:#D2A14C"/>
			<stop  offset="1" style="stop-color:#D19A2A"/>
		</linearGradient>
		<path fill="url(#SVGID_6_)" d="M17.914,15.15c0,0-5.839-0.733-7.975-0.706c-1.501,0.02-3.73-0.493-3.877-0.27
			c-0.104,0.157-0.059,0.576,0.002,0.754c0.053,0.156,0.25,0.46,0.403,0.523c0.293,0.12,1.943,0.53,4.128,0.487
			c1.405-0.028,7.096,0.71,7.096,0.71s0.074-0.568,0.084-0.751C17.786,15.706,17.914,15.15,17.914,15.15z"/>
	</g>
</g>
<linearGradient id="SVGID_7_" gradientUnits="userSpaceOnUse" x1="65.0566" y1="14.4575" x2="70.23" y2="14.4575">
	<stop  offset="0.2674" style="stop-color:#D3B396"/>
	<stop  offset="0.4324" style="stop-color:#D3AE82"/>
	<stop  offset="0.7893" style="stop-color:#D2A14C"/>
	<stop  offset="1" style="stop-color:#D19A2A"/>
</linearGradient>
<path opacity="0.8" fill="url(#SVGID_7_)" d="M65.057,8.069c0,0,2.637,3.548,3.129,5.804c0.647,2.965-0.183,4.585,0,6.098
	c0.026,0.212,0.103,0.683,0.277,0.807c0.214,0.153,1.05,0,1.05,0s1.61-3.878,0.007-7.641C67.778,9.051,65.057,8.069,65.057,8.069z"
	/>
</svg>
