<?xml version="1.0" encoding="utf-8"?>
<!-- Generator: Adobe Illustrator 17.0.0, SVG Export Plug-In . SVG Version: 6.00 Build 0)  -->
<!DOCTYPE svg PUBLIC "-//W3C//DTD SVG 1.1//EN" "http://www.w3.org/Graphics/SVG/1.1/DTD/svg11.dtd">
<svg version="1.1" id="Layer_1" xmlns="http://www.w3.org/2000/svg" xmlns:xlink="http://www.w3.org/1999/xlink" x="0px" y="0px"
	 width="56.822px" height="39.209px" viewBox="0 0 56.822 39.209" enable-background="new 0 0 56.822 39.209" xml:space="preserve">
<g>
	<linearGradient id="SVGID_1_" gradientUnits="userSpaceOnUse" x1="0.125" y1="21.8633" x2="16.9135" y2="21.8633">
		<stop  offset="0" style="stop-color:#6FC7B3"/>
		<stop  offset="0.1109" style="stop-color:#98D4C5"/>
		<stop  offset="0.2227" style="stop-color:#B6E0D5"/>
		<stop  offset="0.3321" style="stop-color:#CCE9E0"/>
		<stop  offset="0.4369" style="stop-color:#D8EEE7"/>
		<stop  offset="0.5321" style="stop-color:#DDF0EA"/>
		<stop  offset="0.6479" style="stop-color:#DAEFE8"/>
		<stop  offset="0.7286" style="stop-color:#D1EBE3"/>
		<stop  offset="0.7987" style="stop-color:#C2E5DB"/>
		<stop  offset="0.8626" style="stop-color:#ADDCD0"/>
		<stop  offset="0.9225" style="stop-color:#90D2C2"/>
		<stop  offset="0.9785" style="stop-color:#6BC6B1"/>
		<stop  offset="1" style="stop-color:#58C1AA"/>
	</linearGradient>
	<path fill="url(#SVGID_1_)" stroke="#5B5C5C" stroke-width="0.25" stroke-miterlimit="10" d="M1.055,15.966
		c-1.579,1.305-1.008,5.268,0.662,8.167c3.434,5.96,11.404,4.194,14.225-0.219c1.083-1.695,1.5-6.673-0.025-7.948
		c-0.282-0.236-1.215-0.264-1.472,0c-1.135,1.17,1.104,3.201-0.76,6.475C12.627,24.3,8.7,27.783,4.661,24.207
		c-3.532-3.127-1.131-6.482-2.354-8.241C2.128,15.709,1.296,15.767,1.055,15.966z"/>
	<path fill="#353535" d="M21.894,1.756c-1.316,0.917-3.367,15.744-2.708,20.994c0.549,4.367,2.006,15.839,6.509,16.429
		C31.247,39.908,37.555,26.961,39,21.721c1.346-4.883-1.141-19.605-2.379-20.085C33.188,0.304,24.915-0.349,21.894,1.756z"/>
</g>
<linearGradient id="SVGID_2_" gradientUnits="userSpaceOnUse" x1="40.9223" y1="20.0156" x2="56.6967" y2="20.0156">
	<stop  offset="0" style="stop-color:#6FC7B3"/>
	<stop  offset="0.1109" style="stop-color:#98D4C5"/>
	<stop  offset="0.2227" style="stop-color:#B6E0D5"/>
	<stop  offset="0.3321" style="stop-color:#CCE9E0"/>
	<stop  offset="0.4369" style="stop-color:#D8EEE7"/>
	<stop  offset="0.5321" style="stop-color:#DDF0EA"/>
	<stop  offset="0.6479" style="stop-color:#DAEFE8"/>
	<stop  offset="0.7286" style="stop-color:#D1EBE3"/>
	<stop  offset="0.7987" style="stop-color:#C2E5DB"/>
	<stop  offset="0.8626" style="stop-color:#ADDCD0"/>
	<stop  offset="0.9225" style="stop-color:#90D2C2"/>
	<stop  offset="0.9785" style="stop-color:#6BC6B1"/>
	<stop  offset="1" style="stop-color:#58C1AA"/>
</linearGradient>
<path fill="url(#SVGID_2_)" stroke="#5B5C5C" stroke-width="0.25" stroke-miterlimit="10" d="M55.228,13.771
	c1.697,0.938,1.861,4.724,0.815,7.713c-2.15,6.146-9.874,5.9-13.271,2.289c-1.305-1.387-2.565-5.945-1.37-7.398
	c0.221-0.269,1.084-0.459,1.369-0.258c1.261,0.89-0.466,3.171,1.842,5.89c1.31,1.544,5.574,4.096,8.705,0.061
	c2.737-3.528-0.084-6.228,0.746-8.078C54.185,13.72,54.968,13.627,55.228,13.771z"/>
<linearGradient id="SVGID_3_" gradientUnits="userSpaceOnUse" x1="18.7531" y1="19.5124" x2="39.6936" y2="19.5124">
	<stop  offset="0" style="stop-color:#6FC7B3"/>
	<stop  offset="0.1109" style="stop-color:#98D4C5"/>
	<stop  offset="0.2227" style="stop-color:#B6E0D5"/>
	<stop  offset="0.3321" style="stop-color:#CCE9E0"/>
	<stop  offset="0.4369" style="stop-color:#D8EEE7"/>
	<stop  offset="0.5321" style="stop-color:#DDF0EA"/>
	<stop  offset="0.6479" style="stop-color:#DAEFE8"/>
	<stop  offset="0.7286" style="stop-color:#D1EBE3"/>
	<stop  offset="0.7987" style="stop-color:#C2E5DB"/>
	<stop  offset="0.8626" style="stop-color:#ADDCD0"/>
	<stop  offset="0.9225" style="stop-color:#90D2C2"/>
	<stop  offset="0.9785" style="stop-color:#6BC6B1"/>
	<stop  offset="1" style="stop-color:#58C1AA"/>
</linearGradient>
<path fill="url(#SVGID_3_)" stroke="#6D6C6C" stroke-width="0.25" stroke-miterlimit="10" d="M21.674,1.48
	c-1.356,0.917-3.469,15.729-2.789,20.975c0.565,4.363,2.067,15.824,6.705,16.415c5.719,0.728,12.217-12.207,13.704-17.443
	C40.68,16.548,38.118,1.84,36.843,1.36C33.307,0.03,24.785-0.623,21.674,1.48z"/>
</svg>
