<?xml version="1.0" encoding="utf-8"?>
<!-- Generator: Adobe Illustrator 17.0.0, SVG Export Plug-In . SVG Version: 6.00 Build 0)  -->
<!DOCTYPE svg PUBLIC "-//W3C//DTD SVG 1.1//EN" "http://www.w3.org/Graphics/SVG/1.1/DTD/svg11.dtd">
<svg version="1.1" id="Layer_1" xmlns="http://www.w3.org/2000/svg" xmlns:xlink="http://www.w3.org/1999/xlink" x="0px" y="0px"
	 width="67.112px" height="32.927px" viewBox="0 0 67.112 32.927" enable-background="new 0 0 67.112 32.927" xml:space="preserve">
<g>
	
		<image overflow="visible" opacity="0.4" width="37" height="37" xlink:href="4F86B5881915B7A8.png"  transform="matrix(0.48 0 0 0.48 4.0916 3.1208)">
	</image>
	<g>
		<ellipse fill="#121212" cx="12.905" cy="11.854" rx="2.813" ry="2.733"/>
	</g>
</g>
<g>
	
		<image overflow="visible" opacity="0.4" width="37" height="37" xlink:href="4F86B5881915B7A9.png"  transform="matrix(0.48 0 0 0.48 45.2562 1.6539)">
	</image>
	<g>
		<ellipse fill="#121212" cx="54.069" cy="10.387" rx="2.813" ry="2.733"/>
	</g>
</g>
<g>
	
		<image overflow="visible" opacity="0.4" width="44" height="35" xlink:href="4F86B5881915B7AF.png"  transform="matrix(0.48 0 0 0.48 2.8613 1.3334)">
	</image>
	<g>
		<path fill="#121212" d="M9.366,7.82c0.66-0.531,2.256-0.492,2.997-0.482c0.911,0.013,2.71,0.314,3.523,0.692
			c0.593,0.275,1.693,1.19,1.929,1.897c0.125,0.375,0.155,1.384-0.115,1.705c-0.335,0.399-1.364,0.307-1.765,0.151
			c-0.443-0.172-0.944-1.206-1.354-1.454c-0.702-0.424-2.345-0.684-3.152-0.816c-0.459-0.075-1.443,0.054-1.867-0.132
			C9.351,9.288,8.874,9.011,8.862,8.729C8.85,8.477,9.177,7.972,9.366,7.82z"/>
	</g>
</g>
<g>
	
		<image overflow="visible" opacity="0.4" width="40" height="35" xlink:href="4F86B5881915B7AA.png"  transform="matrix(0.48 0 0 0.48 44.1727 0)">
	</image>
	<g>
		<path fill="#121212" d="M56.413,6.316c-0.654-0.457-1.918-0.303-2.506-0.24c-0.724,0.078-2.087,0.496-2.646,0.914
			c-0.407,0.305-1.067,1.254-1.087,1.943c-0.011,0.365,0.206,1.326,0.498,1.611c0.363,0.355,1.162,0.192,1.444,0.015
			c0.313-0.196,0.466-1.214,0.734-1.48c0.459-0.454,1.708-0.821,2.32-1.004c0.348-0.104,1.164-0.054,1.458-0.262
			c0.148-0.104,0.462-0.403,0.405-0.671C56.981,6.902,56.6,6.447,56.413,6.316z"/>
	</g>
</g>
<g>
	
		<image overflow="visible" opacity="0.2" width="49" height="38" xlink:href="4F86B5881915B7AB.png"  transform="matrix(0.48 0 0 0.48 43.5916 10.7896)">
	</image>
	<g>
		<path fill="#985627" d="M60.861,19.424c-0.887-1.688-6.137-2.919-7.78-2.578c-1.667,0.346-4.464,3.327-3.147,4.933
			c1.364,1.663,6.161,0.915,7.802,0.43C58.852,21.88,61.494,20.63,60.861,19.424z"/>
	</g>
</g>
<g>
	
		<image overflow="visible" opacity="0.2" width="49" height="39" xlink:href="4F86B5881915B7A6.png"  transform="matrix(0.48 0 0 0.48 0 14.207)">
	</image>
	<g>
		<path fill="#985627" d="M6.032,22.295c0.51,1.837,5.38,4.151,7.059,4.165c1.702,0.014,5.067-2.308,4.119-4.156
			c-0.981-1.914-5.828-2.198-7.535-2.071C8.514,20.32,5.668,20.983,6.032,22.295z"/>
	</g>
</g>
</svg>
