<?xml version="1.0" encoding="utf-8"?>
<!-- Generator: Adobe Illustrator 17.0.0, SVG Export Plug-In . SVG Version: 6.00 Build 0)  -->
<!DOCTYPE svg PUBLIC "-//W3C//DTD SVG 1.1//EN" "http://www.w3.org/Graphics/SVG/1.1/DTD/svg11.dtd">
<svg version="1.1" id="Layer_1" xmlns="http://www.w3.org/2000/svg" xmlns:xlink="http://www.w3.org/1999/xlink" x="0px" y="0px"
	 width="61.397px" height="30.379px" viewBox="0 0 61.397 30.379" enable-background="new 0 0 61.397 30.379" xml:space="preserve">
<g>
	
		<ellipse transform="matrix(0.9224 -0.3863 0.3863 0.9224 -2.1904 7.4652)" fill="#E6E8EE" cx="17.478" cy="9.182" rx="8.586" ry="8.81"/>
	
		<ellipse transform="matrix(0.9224 -0.3863 0.3863 0.9224 -0.1561 17.3041)" fill="#E6E8EE" cx="42.974" cy="9.04" rx="8.841" ry="9.072"/>
	<linearGradient id="SVGID_1_" gradientUnits="userSpaceOnUse" x1="33.8473" y1="11.8066" x2="47.0441" y2="11.8066">
		<stop  offset="0" style="stop-color:#7CC3E2"/>
		<stop  offset="0.2342" style="stop-color:#7891B2"/>
		<stop  offset="0.7646" style="stop-color:#5A365C"/>
		<stop  offset="1" style="stop-color:#4A0D3F"/>
	</linearGradient>
	<path fill="url(#SVGID_1_)" d="M34.996,5.134c0,0-3.48,6.302,1.675,10.862c5.466,4.835,10.373,1.118,10.373,1.118
		s-0.047-5.953-3.122-8.753C40.335,5.095,34.996,5.134,34.996,5.134z"/>
	<linearGradient id="SVGID_2_" gradientUnits="userSpaceOnUse" x1="8.856" y1="11.2887" x2="22.0528" y2="11.2887">
		<stop  offset="0" style="stop-color:#7CC3E2"/>
		<stop  offset="0.2342" style="stop-color:#7891B2"/>
		<stop  offset="0.7646" style="stop-color:#5A365C"/>
		<stop  offset="1" style="stop-color:#4A0D3F"/>
	</linearGradient>
	<path fill="url(#SVGID_2_)" d="M10.004,4.616c0,0-3.48,6.302,1.675,10.862c5.466,4.835,10.373,1.118,10.373,1.118
		s-0.047-5.953-3.122-8.753C15.344,4.577,10.004,4.616,10.004,4.616z"/>
	
		<ellipse transform="matrix(0.9224 -0.3863 0.3863 0.9224 -4.653 22.8641)" fill="#C7DCF2" cx="54.558" cy="23.009" rx="6.81" ry="6.988"/>
	
		<ellipse transform="matrix(0.9224 -0.3863 0.3863 0.9224 -8.4722 4.4881)" fill="#C7DCF2" cx="6.93" cy="23.322" rx="6.901" ry="7.081"/>
</g>
</svg>
