<?xml version="1.0" encoding="utf-8"?>
<!-- Generator: Adobe Illustrator 17.0.0, SVG Export Plug-In . SVG Version: 6.00 Build 0)  -->
<!DOCTYPE svg PUBLIC "-//W3C//DTD SVG 1.1//EN" "http://www.w3.org/Graphics/SVG/1.1/DTD/svg11.dtd">
<svg version="1.1" id="Layer_1" xmlns="http://www.w3.org/2000/svg" xmlns:xlink="http://www.w3.org/1999/xlink" x="0px" y="0px"
	 width="45.6px" height="46.56px" viewBox="0 0 45.6 46.56" enable-background="new 0 0 45.6 46.56" xml:space="preserve">
<g>
	
		<image overflow="visible" opacity="0.3" width="95" height="97" xlink:href="F67444C9C5C34BCC.png"  transform="matrix(0.48 0 0 0.48 0 0)">
	</image>
	<g>
		<ellipse fill="#4C5966" cx="22.685" cy="23.12" rx="16.685" ry="17.12"/>
	</g>
</g>
<ellipse fill="#D3E0F3" cx="22.627" cy="23.107" rx="15.581" ry="15.988"/>
<ellipse fill="#90767A" cx="22.423" cy="20.195" rx="8.582" ry="8.806"/>
<path fill="#E4E9F0" d="M19.538,15.827c0.044-0.326-0.355-1.005-0.653-1.144c-0.203-0.094-0.762-0.026-0.882,0.163
	c-0.135,0.214,0.097,0.787,0.261,0.98c0.157,0.184,0.644,0.43,0.882,0.392C19.283,16.197,19.519,15.964,19.538,15.827z"/>
<path fill="#786065" d="M18.416,20.195c0,0-1.96,1.007-2.091,1.662c-0.258,1.294,1.419,3.948,2.556,4.618
	c1.213,0.715,4.392,0.665,5.634,0c1.039-0.556,2.474-2.751,2.614-3.921c0.074-0.624-0.349-1.999-0.863-2.359
	C24.656,19.071,18.416,20.195,18.416,20.195z"/>
<ellipse fill="#080907" cx="22.627" cy="19.276" rx="3.746" ry="3.844"/>
</svg>
