<?xml version="1.0" encoding="utf-8"?>
<!-- Generator: Adobe Illustrator 17.0.0, SVG Export Plug-In . SVG Version: 6.00 Build 0)  -->
<!DOCTYPE svg PUBLIC "-//W3C//DTD SVG 1.1//EN" "http://www.w3.org/Graphics/SVG/1.1/DTD/svg11.dtd">
<svg version="1.1" id="Layer_1" xmlns="http://www.w3.org/2000/svg" xmlns:xlink="http://www.w3.org/1999/xlink" x="0px" y="0px"
	 width="72.851px" height="28.051px" viewBox="0 0 72.851 28.051" enable-background="new 0 0 72.851 28.051" xml:space="preserve">
<path opacity="0.6" fill="#181A1C" d="M29.216,12.583c0,0-0.035-1.011-0.105-1.339c-0.083-0.39-0.688-1.136-0.531-1.502
	c0.553-1.291,3.729-2.149,5.125-2.301c1.852-0.201,5.695,0.567,7.297,1.519c0.284,0.169,0.856,1.009,0.856,1.009l-0.347,1.247
	c0,0-0.627-1.167-0.984-1.403c-1.452-0.959-5.08-1.613-6.812-1.44c-1.149,0.115-3.779,0.771-4.241,1.829
	c-0.099,0.227,0.29,0.69,0.33,0.934c0.107,0.645-0.187,2.754-0.187,2.754l-0.202,0.18L29.216,12.583z"/>
<path opacity="0.6" fill="#181A1C" d="M3.652,11.735c0,0-1.935-0.191-2.571-0.094c-0.267,0.041-0.87,0.135-1.018,0.36
	c-0.105,0.159-0.06,0.581,0.002,0.761c0.054,0.158,0.253,0.465,0.407,0.528c0.296,0.121,0.952-0.133,1.272-0.141
	c0.419-0.011,1.675,0.098,1.675,0.098L3.652,11.735z"/>
<path opacity="0.6" fill="#181A1C" d="M67.257,9.979c0,0,1.17-0.13,1.561-0.12c0.897,0.023,2.748,0.075,3.561,0.456
	c0.123,0.057,0.361,0.228,0.409,0.355c0.101,0.265,0.097,0.972-0.141,1.126c-0.157,0.102-0.514-0.095-0.903-0.18
	c-0.89-0.194-2.403-0.415-3.316-0.439c-0.196-0.005-0.89,0.064-0.89,0.064L67.257,9.979z"/>
<ellipse fill="#410C33" cx="52.51" cy="8.39" rx="6.983" ry="7.165"/>
<ellipse fill="#E6E8EE" cx="52.486" cy="8.384" rx="6.521" ry="6.691"/>
<ellipse fill="#EBB4D3" cx="52.401" cy="7.165" rx="3.592" ry="3.685"/>
<path fill="#E4E9F0" d="M51.193,5.337c0.018-0.137-0.148-0.421-0.273-0.479c-0.085-0.039-0.319-0.011-0.369,0.068
	c-0.057,0.09,0.04,0.329,0.109,0.41c0.066,0.077,0.269,0.18,0.369,0.164C51.086,5.492,51.186,5.395,51.193,5.337z"/>
<path fill="#DEA1C8" d="M50.724,7.165c0,0-0.82,0.421-0.875,0.695c-0.108,0.542,0.594,1.652,1.07,1.933
	c0.508,0.299,1.838,0.278,2.358,0c0.435-0.233,1.036-1.151,1.094-1.641c0.031-0.261-0.146-0.837-0.361-0.987
	C53.335,6.695,50.724,7.165,50.724,7.165z"/>
<ellipse fill="#080907" cx="52.486" cy="6.781" rx="1.568" ry="1.609"/>
<ellipse fill="#410C33" cx="18.188" cy="12.574" rx="9.905" ry="10.164"/>
<ellipse fill="#E6E8EE" cx="18.154" cy="12.565" rx="9.25" ry="9.492"/>
<ellipse fill="#EBB4D3" cx="18.033" cy="10.837" rx="5.095" ry="5.228"/>
<path fill="#E4E9F0" d="M16.32,8.244c0.026-0.194-0.211-0.597-0.388-0.679c-0.121-0.056-0.453-0.016-0.524,0.097
	c-0.08,0.127,0.057,0.467,0.155,0.582c0.093,0.109,0.382,0.255,0.524,0.233C16.169,8.463,16.309,8.325,16.32,8.244z"/>
<path fill="#DEA1C8" d="M15.654,10.837c0,0-1.164,0.598-1.241,0.986c-0.153,0.768,0.843,2.344,1.517,2.741
	c0.72,0.425,2.607,0.395,3.345,0c0.617-0.33,1.469-1.633,1.552-2.328c0.044-0.37-0.207-1.187-0.513-1.4
	C19.359,10.17,15.654,10.837,15.654,10.837z"/>
<ellipse fill="#080907" cx="18.154" cy="10.291" rx="2.224" ry="2.282"/>
<g>
	<path fill="#C1A7B3" d="M51.731,0.015c4.827,0.247,8.68,3.432,9.313,6.945L41.753,5.973C42.741,2.543,46.904-0.232,51.731,0.015z"
		/>
</g>
<g>
	<path fill="#C1A7B3" d="M17.133,1.985c5.902-0.38,10.977,2.846,12.23,6.839L5.773,10.343C6.503,6.223,11.231,2.365,17.133,1.985z"
		/>
</g>
<g>
	<path fill="#ECCDDB" d="M51.711,0.358c4.827,0.247,8.701,3.09,9.333,6.602L41.753,5.973C42.741,2.543,46.884,0.111,51.711,0.358z"
		/>
</g>
<g>
	<path fill="#ECCDDB" d="M17.108,2.445c5.902-0.38,11.002,2.387,12.254,6.379L5.773,10.343C6.503,6.223,11.206,2.825,17.108,2.445z"
		/>
</g>
<path opacity="0.6" fill="#181A1C" d="M28.88,10.381C26.432,3.454,18.897-0.2,12.051,2.219C5.205,4.639,1.64,12.216,4.088,19.143
	c2.448,6.927,9.982,10.581,16.829,8.162C27.763,24.885,31.328,17.308,28.88,10.381z M20.623,26.473
	C14.23,28.732,7.196,25.32,4.91,18.852C2.624,12.385,5.953,5.31,12.345,3.051s13.427,1.153,15.713,7.621
	C30.344,17.14,27.015,24.214,20.623,26.473z"/>
<ellipse transform="matrix(0.9429 -0.3332 0.3332 0.9429 -3.9768 6.3362)" opacity="0.5" fill="#434A56" cx="16.484" cy="14.762" rx="12.276" ry="12.421"/>
<ellipse transform="matrix(0.9429 -0.3332 0.3332 0.9429 -1.3105 18.9372)" opacity="0.5" fill="#434A56" cx="54.553" cy="13.289" rx="12.276" ry="12.421"/>
<path opacity="0.6" fill="#181A1C" d="M66.949,8.908c-2.448-6.927-9.982-10.581-16.829-8.162
	c-6.846,2.419-10.411,9.996-7.963,16.923c2.448,6.927,9.982,10.581,16.829,8.162C65.832,23.412,69.397,15.836,66.949,8.908z
	 M58.692,25c-6.392,2.259-13.427-1.153-15.713-7.621c-2.286-6.468,1.043-13.542,7.435-15.801s13.427,1.153,15.713,7.621
	C68.413,15.667,65.084,22.741,58.692,25z"/>
</svg>
