<?xml version="1.0" encoding="utf-8"?>
<!-- Generator: Adobe Illustrator 17.0.0, SVG Export Plug-In . SVG Version: 6.00 Build 0)  -->
<!DOCTYPE svg PUBLIC "-//W3C//DTD SVG 1.1//EN" "http://www.w3.org/Graphics/SVG/1.1/DTD/svg11.dtd">
<svg version="1.1" id="Layer_1" xmlns="http://www.w3.org/2000/svg" xmlns:xlink="http://www.w3.org/1999/xlink" x="0px" y="0px"
	 width="54.89px" height="30.72px" viewBox="0 0 54.89 30.72" enable-background="new 0 0 54.89 30.72" xml:space="preserve">
<g>
	
		<image overflow="visible" opacity="0.2" width="63" height="64" xlink:href="5ABB7D75B4A03A80.png"  transform="matrix(0.48 0 0 0.48 0 0)">
	</image>
	<g>
		<linearGradient id="SVGID_1_" gradientUnits="userSpaceOnUse" x1="6" y1="15.2512" x2="24.0316" y2="15.2512">
			<stop  offset="0" style="stop-color:#802D28"/>
			<stop  offset="0.5145" style="stop-color:#D35527"/>
			<stop  offset="0.9853" style="stop-color:#7E1416"/>
		</linearGradient>
		<ellipse fill="url(#SVGID_1_)" cx="15.016" cy="15.251" rx="9.016" ry="9.251"/>
	</g>
</g>
<ellipse fill="#E6E8EE" cx="14.985" cy="15.244" rx="8.42" ry="8.639"/>
<linearGradient id="SVGID_2_" gradientUnits="userSpaceOnUse" x1="7.9475" y1="14.7557" x2="22.0841" y2="14.7557">
	<stop  offset="0" style="stop-color:#4688BD"/>
	<stop  offset="0.0243" style="stop-color:#6E9CC9"/>
	<stop  offset="0.0508" style="stop-color:#90B0D5"/>
	<stop  offset="0.0799" style="stop-color:#AEC4E0"/>
	<stop  offset="0.1118" style="stop-color:#C8D6EA"/>
	<stop  offset="0.1474" style="stop-color:#DEE5F1"/>
	<stop  offset="0.189" style="stop-color:#EEF2F8"/>
	<stop  offset="0.242" style="stop-color:#FAFBFD"/>
	<stop  offset="0.3454" style="stop-color:#FFFFFF"/>
	<stop  offset="0.808" style="stop-color:#4D97D2"/>
	<stop  offset="0.9853" style="stop-color:#366D98"/>
</linearGradient>
<ellipse fill="url(#SVGID_2_)" cx="15.016" cy="14.756" rx="7.068" ry="7.253"/>
<ellipse fill="#080907" cx="15.016" cy="14.644" rx="5.788" ry="5.939"/>
<path fill="#E4E9F0" d="M12.806,11.116c0.041-0.303-0.33-0.934-0.607-1.063c-0.189-0.088-0.709-0.024-0.82,0.152
	c-0.126,0.199,0.09,0.732,0.243,0.911c0.146,0.171,0.598,0.4,0.82,0.364C12.569,11.46,12.789,11.243,12.806,11.116z"/>
<g>
	
		<image overflow="visible" opacity="0.2" width="56" height="57" xlink:href="5ABB7D75B4A03A81.png"  transform="matrix(0.48 0 0 0.48 28.0096 1.7359)">
	</image>
	<g>
		<linearGradient id="SVGID_3_" gradientUnits="userSpaceOnUse" x1="34.0096" y1="15.2512" x2="48.6578" y2="15.2512">
			<stop  offset="0" style="stop-color:#802D28"/>
			<stop  offset="0.5145" style="stop-color:#D35527"/>
			<stop  offset="0.9853" style="stop-color:#7E1416"/>
		</linearGradient>
		<ellipse fill="url(#SVGID_3_)" cx="41.334" cy="15.251" rx="7.324" ry="7.515"/>
	</g>
</g>
<ellipse fill="#E6E8EE" cx="41.308" cy="15.245" rx="6.84" ry="7.018"/>
<linearGradient id="SVGID_4_" gradientUnits="userSpaceOnUse" x1="35.5917" y1="14.8486" x2="47.0757" y2="14.8486">
	<stop  offset="0" style="stop-color:#4688BD"/>
	<stop  offset="0.0243" style="stop-color:#6E9CC9"/>
	<stop  offset="0.0508" style="stop-color:#90B0D5"/>
	<stop  offset="0.0799" style="stop-color:#AEC4E0"/>
	<stop  offset="0.1118" style="stop-color:#C8D6EA"/>
	<stop  offset="0.1474" style="stop-color:#DEE5F1"/>
	<stop  offset="0.189" style="stop-color:#EEF2F8"/>
	<stop  offset="0.242" style="stop-color:#FAFBFD"/>
	<stop  offset="0.3454" style="stop-color:#FFFFFF"/>
	<stop  offset="0.808" style="stop-color:#4D97D2"/>
	<stop  offset="0.9853" style="stop-color:#366D98"/>
</linearGradient>
<ellipse fill="url(#SVGID_4_)" cx="41.334" cy="14.849" rx="5.742" ry="5.892"/>
<ellipse fill="#080907" cx="41.334" cy="14.758" rx="4.702" ry="4.824"/>
<path fill="#E4E9F0" d="M40.732,12.489c0.033-0.246-0.268-0.759-0.493-0.863c-0.154-0.071-0.576-0.02-0.666,0.123
	c-0.102,0.162,0.073,0.594,0.197,0.74c0.118,0.139,0.486,0.325,0.666,0.296C40.539,12.768,40.718,12.592,40.732,12.489z"/>
</svg>
