<?xml version="1.0" encoding="utf-8"?>
<!-- Generator: Adobe Illustrator 17.0.0, SVG Export Plug-In . SVG Version: 6.00 Build 0)  -->
<!DOCTYPE svg PUBLIC "-//W3C//DTD SVG 1.1//EN" "http://www.w3.org/Graphics/SVG/1.1/DTD/svg11.dtd">
<svg version="1.1" id="Layer_1" xmlns="http://www.w3.org/2000/svg" xmlns:xlink="http://www.w3.org/1999/xlink" x="0px" y="0px"
	 width="42.35px" height="18.369px" viewBox="0 0 42.35 18.369" enable-background="new 0 0 42.35 18.369" xml:space="preserve">
<linearGradient id="SVGID_1_" gradientUnits="userSpaceOnUse" x1="-1.073931e-07" y1="9.1845" x2="17.9017" y2="9.1845">
	<stop  offset="0" style="stop-color:#802D28"/>
	<stop  offset="0.5145" style="stop-color:#D35527"/>
	<stop  offset="0.9853" style="stop-color:#7E1416"/>
</linearGradient>
<ellipse fill="url(#SVGID_1_)" cx="8.951" cy="9.185" rx="8.951" ry="9.185"/>
<ellipse fill="#E6E8EE" cx="8.92" cy="9.177" rx="8.359" ry="8.577"/>
<linearGradient id="SVGID_2_" gradientUnits="userSpaceOnUse" x1="1.9335" y1="8.6926" x2="15.9682" y2="8.6926">
	<stop  offset="0" style="stop-color:#4688BD"/>
	<stop  offset="0.0243" style="stop-color:#6E9CC9"/>
	<stop  offset="0.0508" style="stop-color:#90B0D5"/>
	<stop  offset="0.0799" style="stop-color:#AEC4E0"/>
	<stop  offset="0.1118" style="stop-color:#C8D6EA"/>
	<stop  offset="0.1474" style="stop-color:#DEE5F1"/>
	<stop  offset="0.189" style="stop-color:#EEF2F8"/>
	<stop  offset="0.242" style="stop-color:#FAFBFD"/>
	<stop  offset="0.3454" style="stop-color:#FFFFFF"/>
	<stop  offset="0.808" style="stop-color:#4D97D2"/>
	<stop  offset="0.9853" style="stop-color:#366D98"/>
</linearGradient>
<ellipse fill="url(#SVGID_2_)" cx="8.951" cy="8.693" rx="7.017" ry="7.201"/>
<ellipse fill="#080907" cx="8.951" cy="8.582" rx="5.746" ry="5.896"/>
<path fill="#E4E9F0" d="M6.757,5.079c0.04-0.301-0.327-0.927-0.603-1.055C5.966,3.937,5.451,3.999,5.34,4.174
	C5.215,4.372,5.429,4.901,5.581,5.079c0.145,0.169,0.594,0.397,0.814,0.362C6.522,5.42,6.74,5.206,6.757,5.079z"/>
<linearGradient id="SVGID_3_" gradientUnits="userSpaceOnUse" x1="27.8078" y1="9.1845" x2="42.3504" y2="9.1845">
	<stop  offset="0" style="stop-color:#802D28"/>
	<stop  offset="0.5145" style="stop-color:#D35527"/>
	<stop  offset="0.9853" style="stop-color:#7E1416"/>
</linearGradient>
<ellipse fill="url(#SVGID_3_)" cx="35.079" cy="9.185" rx="7.271" ry="7.461"/>
<ellipse fill="#E6E8EE" cx="35.054" cy="9.179" rx="6.79" ry="6.968"/>
<linearGradient id="SVGID_4_" gradientUnits="userSpaceOnUse" x1="29.3785" y1="8.7849" x2="40.7797" y2="8.7849">
	<stop  offset="0" style="stop-color:#4688BD"/>
	<stop  offset="0.0243" style="stop-color:#6E9CC9"/>
	<stop  offset="0.0508" style="stop-color:#90B0D5"/>
	<stop  offset="0.0799" style="stop-color:#AEC4E0"/>
	<stop  offset="0.1118" style="stop-color:#C8D6EA"/>
	<stop  offset="0.1474" style="stop-color:#DEE5F1"/>
	<stop  offset="0.189" style="stop-color:#EEF2F8"/>
	<stop  offset="0.242" style="stop-color:#FAFBFD"/>
	<stop  offset="0.3454" style="stop-color:#FFFFFF"/>
	<stop  offset="0.808" style="stop-color:#4D97D2"/>
	<stop  offset="0.9853" style="stop-color:#366D98"/>
</linearGradient>
<ellipse fill="url(#SVGID_4_)" cx="35.079" cy="8.785" rx="5.701" ry="5.849"/>
<ellipse fill="#080907" cx="35.079" cy="8.695" rx="4.668" ry="4.79"/>
<path fill="#E4E9F0" d="M34.481,6.442c0.033-0.245-0.266-0.753-0.49-0.857c-0.153-0.071-0.572-0.02-0.661,0.122
	c-0.102,0.161,0.073,0.59,0.196,0.735c0.117,0.138,0.483,0.323,0.661,0.294C34.29,6.719,34.467,6.545,34.481,6.442z"/>
</svg>
