<?xml version="1.0" encoding="utf-8"?>
<!-- Generator: Adobe Illustrator 17.0.0, SVG Export Plug-In . SVG Version: 6.00 Build 0)  -->
<!DOCTYPE svg PUBLIC "-//W3C//DTD SVG 1.1//EN" "http://www.w3.org/Graphics/SVG/1.1/DTD/svg11.dtd">
<svg version="1.1" id="Layer_1" xmlns="http://www.w3.org/2000/svg" xmlns:xlink="http://www.w3.org/1999/xlink" x="0px" y="0px"
	 width="78.498px" height="33.236px" viewBox="0 0 78.498 33.236" enable-background="new 0 0 78.498 33.236" xml:space="preserve">
<g>
	<path fill="#282828" d="M31.816,9.581c0,0-0.035-1.002-0.104-1.327c-0.082-0.386-0.681-1.126-0.526-1.489
		c0.548-1.279,3.72-1.469,5.104-1.62c1.835-0.2,5.769,0.21,7.356,1.154c0.282,0.167,0.822,0.34,0.822,0.34L44.14,7.662
		c0,0-0.52-0.26-0.964-0.517c-1.492-0.865-5.16-1.247-6.876-1.076c-1.138,0.114-3.77,0.104-4.228,1.153
		c-0.098,0.225,0.287,0.683,0.327,0.925c0.106,0.639-0.186,2.728-0.186,2.728l-0.2,0.178L31.816,9.581z"/>
	<path fill="#282828" d="M64.23,8.951c0,0,6.529-0.432,6.917-0.422c0.889,0.022,6.081-1.125,6.886-0.748
		c0.122,0.057,0.358,0.226,0.406,0.352c0.101,0.262,0.088,0.861-0.148,1.014c-0.156,0.101-0.588,0.084-0.977,0.148
		c-1.169,0.192-5.372,0.615-6.275,0.681c-0.586,0.043-6.376,0.369-6.376,0.369L64.23,8.951z"/>
	<path fill="#282828" d="M31.852,8.242c-1.955-5.532-7.972-8.45-13.439-6.518c-5.467,1.932-8.314,7.983-6.359,13.514
		c1.955,5.532,7.972,8.45,13.439,6.518C30.96,19.824,33.807,13.774,31.852,8.242z M25.258,21.092
		c-5.105,1.804-10.722-0.921-12.548-6.086c-1.825-5.165,0.833-10.814,5.938-12.618S29.37,3.309,31.195,8.474
		C33.021,13.639,30.362,19.288,25.258,21.092z"/>
	
		<ellipse transform="matrix(0.9429 -0.3332 0.3332 0.9429 -2.6575 7.9858)" fill="#0F1010" cx="21.953" cy="11.74" rx="9.803" ry="9.919"/>
	
		<ellipse transform="matrix(0.9429 -0.3332 0.3332 0.9429 -0.5024 18.6877)" fill="#0F1010" cx="54.23" cy="10.808" rx="9.984" ry="10.102"/>
	<path fill="#282828" d="M64.312,7.491c-1.991-5.634-8.119-8.606-13.687-6.638c-5.568,1.968-8.468,8.13-6.477,13.764
		c1.991,5.634,8.119,8.606,13.687,6.638C63.403,19.287,66.303,13.125,64.312,7.491z M57.596,20.579
		c-5.199,1.837-10.921-0.938-12.78-6.198c-1.859-5.26,0.848-11.014,6.047-12.852s10.921,0.938,12.78,6.198
		C65.503,12.987,62.795,18.741,57.596,20.579z"/>
	<linearGradient id="SVGID_1_" gradientUnits="userSpaceOnUse" x1="26.5998" y1="9.1935" x2="31.7731" y2="9.1935">
		<stop  offset="0.2674" style="stop-color:#D3B396"/>
		<stop  offset="0.4324" style="stop-color:#D3AE82"/>
		<stop  offset="0.7893" style="stop-color:#D2A14C"/>
		<stop  offset="1" style="stop-color:#D19A2A"/>
	</linearGradient>
	<path opacity="0.8" fill="url(#SVGID_1_)" d="M26.6,2.804c0,0,2.637,3.548,3.129,5.804c0.647,2.965-0.183,4.585,0,6.098
		c0.026,0.212,0.103,0.683,0.277,0.807c0.214,0.153,1.05,0,1.05,0s1.61-3.878,0.007-7.641C29.321,3.787,26.6,2.804,26.6,2.804z"/>
	<linearGradient id="SVGID_2_" gradientUnits="userSpaceOnUse" x1="31.1605" y1="7.8734" x2="44.4683" y2="7.8734">
		<stop  offset="0" style="stop-color:#D8B524"/>
		<stop  offset="0.038" style="stop-color:#D8B431"/>
		<stop  offset="0.1104" style="stop-color:#D7B452"/>
		<stop  offset="0.2089" style="stop-color:#D4B37E"/>
		<stop  offset="0.2674" style="stop-color:#D3B396"/>
		<stop  offset="0.4324" style="stop-color:#D3AE82"/>
		<stop  offset="0.7893" style="stop-color:#D2A14C"/>
		<stop  offset="1" style="stop-color:#D19A2A"/>
	</linearGradient>
	<path fill="url(#SVGID_2_)" d="M31.816,9.336c0,0-0.035-1.002-0.104-1.327c-0.082-0.386-0.681-1.126-0.526-1.489
		c0.548-1.279,3.72-1.396,5.104-1.546c1.835-0.2,6.133,0.48,7.434,1.161c0.247,0.129,0.744,0.321,0.744,0.321l-0.348,1.042
		c0,0-0.51-0.231-0.945-0.463c-1.521-0.813-5.16-1.309-6.876-1.138c-1.138,0.114-3.77,0.031-4.228,1.079
		c-0.098,0.225,0.287,0.683,0.327,0.925c0.106,0.639-0.186,2.728-0.186,2.728l-0.2,0.178L31.816,9.336z"/>
	<linearGradient id="SVGID_3_" gradientUnits="userSpaceOnUse" x1="64.23" y1="8.8238" x2="78.3746" y2="8.8238">
		<stop  offset="0" style="stop-color:#D8B524"/>
		<stop  offset="0.038" style="stop-color:#D8B431"/>
		<stop  offset="0.1104" style="stop-color:#D7B452"/>
		<stop  offset="0.2089" style="stop-color:#D4B37E"/>
		<stop  offset="0.2674" style="stop-color:#D3B396"/>
		<stop  offset="0.4324" style="stop-color:#D3AE82"/>
		<stop  offset="0.7893" style="stop-color:#D2A14C"/>
		<stop  offset="1" style="stop-color:#D19A2A"/>
	</linearGradient>
	<path fill="url(#SVGID_3_)" d="M64.23,8.706c0,0,6.969-0.279,7.357-0.27c0.889,0.022,5.515-1.193,6.32-0.816
		c0.122,0.057,0.357,0.226,0.406,0.352c0.101,0.262,0.096,0.963-0.14,1.116c-0.156,0.101-0.72,0.049-1.109,0.113
		c-1.062,0.176-4.978,0.562-5.881,0.628c-0.586,0.043-6.519,0.271-6.519,0.271L64.23,8.706z"/>
	<linearGradient id="SVGID_4_" gradientUnits="userSpaceOnUse" x1="11.4372" y1="11.4951" x2="32.4685" y2="11.4951">
		<stop  offset="0" style="stop-color:#D8B524"/>
		<stop  offset="0.038" style="stop-color:#D8B431"/>
		<stop  offset="0.1104" style="stop-color:#D7B452"/>
		<stop  offset="0.2089" style="stop-color:#D4B37E"/>
		<stop  offset="0.2674" style="stop-color:#D3B396"/>
		<stop  offset="0.4324" style="stop-color:#D3AE82"/>
		<stop  offset="0.7893" style="stop-color:#D2A14C"/>
		<stop  offset="1" style="stop-color:#D19A2A"/>
	</linearGradient>
	<path fill="url(#SVGID_4_)" d="M31.852,7.997c-1.955-5.532-7.972-8.45-13.439-6.518c-5.467,1.932-8.314,7.983-6.359,13.514
		c1.955,5.532,7.972,8.45,13.439,6.518C30.96,19.579,33.807,13.528,31.852,7.997z M25.258,20.847
		c-5.105,1.804-10.722-0.921-12.548-6.086c-1.825-5.165,0.833-10.814,5.938-12.618S29.37,3.064,31.195,8.229
		C33.021,13.394,30.362,19.043,25.258,20.847z"/>
	<linearGradient id="SVGID_5_" gradientUnits="userSpaceOnUse" x1="43.5201" y1="10.8085" x2="64.9401" y2="10.8085">
		<stop  offset="0" style="stop-color:#D8B524"/>
		<stop  offset="0.038" style="stop-color:#D8B431"/>
		<stop  offset="0.1104" style="stop-color:#D7B452"/>
		<stop  offset="0.2089" style="stop-color:#D4B37E"/>
		<stop  offset="0.2674" style="stop-color:#D3B396"/>
		<stop  offset="0.4324" style="stop-color:#D3AE82"/>
		<stop  offset="0.7893" style="stop-color:#D2A14C"/>
		<stop  offset="1" style="stop-color:#D19A2A"/>
	</linearGradient>
	<path fill="url(#SVGID_5_)" d="M64.312,7.245c-1.991-5.634-8.119-8.606-13.687-6.638c-5.568,1.968-8.468,8.13-6.477,13.764
		c1.991,5.634,8.119,8.606,13.687,6.638C63.403,19.042,66.303,12.879,64.312,7.245z M57.596,20.333
		c-5.199,1.837-10.921-0.938-12.78-6.198c-1.859-5.26,0.848-11.014,6.047-12.852s10.921,0.938,12.78,6.198
		C65.503,12.742,62.795,18.496,57.596,20.333z"/>
	<path fill="#282828" d="M11.914,9.353c0,0-5.856-0.974-7.975-0.706c-1.422,0.18-3.73-0.693-3.877-0.47
		c-0.104,0.157-0.059,0.576,0.002,0.754c0.053,0.156,0.25,0.458,0.403,0.521c0.293,0.12,1.943,0.722,4.128,0.689
		c2.415-0.036,7.096,0.71,7.096,0.71s0.074-0.568,0.084-0.751C11.786,9.908,11.914,9.353,11.914,9.353z"/>
	<linearGradient id="SVGID_6_" gradientUnits="userSpaceOnUse" x1="3.095920e-08" y1="9.3835" x2="11.914" y2="9.3835">
		<stop  offset="0" style="stop-color:#D8B524"/>
		<stop  offset="0.038" style="stop-color:#D8B431"/>
		<stop  offset="0.1104" style="stop-color:#D7B452"/>
		<stop  offset="0.2089" style="stop-color:#D4B37E"/>
		<stop  offset="0.2674" style="stop-color:#D3B396"/>
		<stop  offset="0.4324" style="stop-color:#D3AE82"/>
		<stop  offset="0.7893" style="stop-color:#D2A14C"/>
		<stop  offset="1" style="stop-color:#D19A2A"/>
	</linearGradient>
	<path fill="url(#SVGID_6_)" d="M11.914,9.15c0,0-5.839-0.733-7.975-0.706c-1.501,0.02-3.73-0.493-3.877-0.27
		c-0.104,0.157-0.059,0.576,0.002,0.754c0.053,0.156,0.25,0.46,0.403,0.523c0.293,0.12,1.943,0.53,4.128,0.487
		c1.405-0.028,7.096,0.71,7.096,0.71s0.074-0.568,0.084-0.751C11.786,9.706,11.914,9.15,11.914,9.15z"/>
	<linearGradient id="SVGID_7_" gradientUnits="userSpaceOnUse" x1="59.0566" y1="8.4575" x2="64.23" y2="8.4575">
		<stop  offset="0.2674" style="stop-color:#D3B396"/>
		<stop  offset="0.4324" style="stop-color:#D3AE82"/>
		<stop  offset="0.7893" style="stop-color:#D2A14C"/>
		<stop  offset="1" style="stop-color:#D19A2A"/>
	</linearGradient>
	<path opacity="0.8" fill="url(#SVGID_7_)" d="M59.057,2.069c0,0,2.637,3.548,3.129,5.804c0.647,2.965-0.183,4.585,0,6.098
		c0.026,0.212,0.103,0.683,0.277,0.807c0.214,0.153,1.05,0,1.05,0s1.61-3.878,0.007-7.641C61.778,3.051,59.057,2.069,59.057,2.069z"
		/>
	<g>
		<path fill="#B35F4B" d="M53.601,25.701c4.241-1.823,14.291,1.792,10.194,5.598c-3.097,2.878-12.844,2.744-12.668-1.723
			C51.148,29.057,51.891,26.436,53.601,25.701z"/>
	</g>
	<g>
		<path fill="#B35F4B" d="M24.632,25.282c-4.241-1.823-14.291,1.792-10.194,5.598c3.097,2.878,12.844,2.744,12.668-1.723
			C27.084,28.638,26.342,26.017,24.632,25.282z"/>
	</g>
	<path fill="#542619" d="M18.541,28.046c0.257,0.007,0.402,0.109,0.428,0.263c0.061,0.353-0.113,0.533-0.228,0.585
		c-0.16,0.072-0.39,0.007-0.502-0.376C18.169,28.28,18.352,28.041,18.541,28.046z"/>
	<path fill="#542619" d="M21.821,31.177c0.071-0.247,0.205-0.362,0.361-0.35c0.357,0.029,0.489,0.242,0.51,0.366
		c0.03,0.172-0.09,0.379-0.488,0.393C21.955,31.595,21.769,31.359,21.821,31.177z"/>
	<path fill="#542619" d="M16.471,30.108c-0.043-0.147-0.011-0.248,0.071-0.292c0.189-0.099,0.324-0.033,0.374,0.023
		c0.07,0.078,0.075,0.22-0.122,0.354C16.672,30.277,16.502,30.217,16.471,30.108z"/>
	<path fill="#542619" d="M20.413,28.179c0.078-0.132,0.173-0.178,0.261-0.148c0.202,0.07,0.246,0.214,0.24,0.289
		c-0.009,0.104-0.109,0.206-0.342,0.154C20.428,28.442,20.356,28.277,20.413,28.179z"/>
	<path fill="#542619" d="M19.949,30.738c-0.147,0.046-0.248,0.016-0.293-0.066c-0.103-0.188-0.039-0.323,0.016-0.375
		c0.076-0.071,0.219-0.079,0.357,0.115C20.114,30.534,20.057,30.704,19.949,30.738z"/>
	<path fill="#542619" d="M18.029,27.761c-0.111,0.106-0.215,0.125-0.292,0.071c-0.175-0.123-0.179-0.273-0.152-0.343
		c0.037-0.098,0.161-0.168,0.371-0.055C18.087,27.504,18.111,27.682,18.029,27.761z"/>
	<path fill="#542619" d="M23.375,28.706c-0.111,0.106-0.215,0.125-0.292,0.071c-0.175-0.123-0.179-0.273-0.152-0.343
		c0.037-0.098,0.161-0.168,0.371-0.055C23.432,28.45,23.457,28.628,23.375,28.706z"/>
	<path fill="#542619" d="M15.002,28.398c-0.111,0.106-0.215,0.125-0.292,0.071c-0.175-0.123-0.179-0.273-0.152-0.343
		c0.037-0.098,0.161-0.168,0.371-0.055C15.06,28.142,15.084,28.32,15.002,28.398z"/>
	<path fill="#542619" d="M20.292,26.398c0.052,0.145,0.027,0.247-0.053,0.295c-0.183,0.11-0.322,0.053-0.375,0
		c-0.075-0.073-0.088-0.215,0.1-0.361C20.081,26.241,20.254,26.291,20.292,26.398z"/>
	<path fill="#542619" d="M16.706,29.126c-0.014,0.214-0.103,0.331-0.232,0.348c-0.295,0.039-0.44-0.111-0.48-0.208
		c-0.055-0.135,0.007-0.324,0.328-0.406C16.523,28.809,16.716,28.969,16.706,29.126z"/>
	<path fill="#542619" d="M22.801,29.126c-0.014,0.214-0.103,0.331-0.232,0.348c-0.295,0.039-0.44-0.111-0.48-0.208
		c-0.055-0.135,0.007-0.324,0.328-0.406C22.618,28.809,22.811,28.969,22.801,29.126z"/>
	<path fill="#542619" d="M17.121,31.803c-0.011,0.171-0.083,0.265-0.186,0.279c-0.236,0.032-0.352-0.089-0.384-0.166
		c-0.044-0.108,0.005-0.26,0.263-0.325C16.975,31.549,17.13,31.677,17.121,31.803z"/>
	<path fill="#542619" d="M18.894,30.22c-0.011,0.171-0.083,0.265-0.186,0.279c-0.236,0.032-0.352-0.089-0.384-0.166
		c-0.044-0.108,0.005-0.26,0.263-0.325C18.748,29.966,18.903,30.094,18.894,30.22z"/>
	<path fill="#542619" d="M13.64,29.134c-0.011,0.171-0.083,0.265-0.186,0.279c-0.236,0.032-0.352-0.089-0.384-0.166
		c-0.044-0.108,0.005-0.26,0.263-0.325C13.494,28.881,13.648,29.008,13.64,29.134z"/>
	<path fill="#542619" d="M17.121,26.725c-0.011,0.171-0.083,0.265-0.186,0.279c-0.236,0.032-0.352-0.089-0.384-0.166
		c-0.044-0.108,0.005-0.26,0.263-0.325C16.975,26.471,17.13,26.599,17.121,26.725z"/>
	<path fill="#542619" d="M21.966,25.513c0.106-0.059,0.189-0.052,0.236,0.004c0.109,0.128,0.082,0.243,0.048,0.291
		c-0.047,0.067-0.156,0.096-0.293-0.032C21.871,25.697,21.888,25.556,21.966,25.513z"/>
	<path fill="#542619" d="M17.956,25.313c0.083,0.088,0.097,0.17,0.054,0.23c-0.097,0.137-0.215,0.139-0.271,0.118
		c-0.077-0.029-0.131-0.128-0.041-0.292C17.754,25.266,17.895,25.248,17.956,25.313z"/>
	<path fill="#542619" d="M16.943,27.886c0.083,0.088,0.097,0.17,0.054,0.23c-0.097,0.137-0.215,0.139-0.271,0.118
		c-0.077-0.029-0.131-0.128-0.041-0.292C16.742,27.84,16.882,27.821,16.943,27.886z"/>
	<path fill="#542619" d="M27.011,26.361c0.083,0.088,0.097,0.17,0.054,0.23c-0.097,0.137-0.215,0.139-0.271,0.118
		c-0.077-0.029-0.131-0.128-0.041-0.292C26.81,26.314,26.95,26.296,27.011,26.361z"/>
	<path fill="#542619" d="M30.285,27.408c0.121-0.003,0.191,0.041,0.208,0.113c0.037,0.164-0.04,0.253-0.093,0.28
		c-0.073,0.038-0.183,0.013-0.245-0.164C30.116,27.527,30.196,27.41,30.285,27.408z"/>
	<path fill="#542619" d="M25.922,30.073c0.083,0.088,0.097,0.17,0.054,0.23c-0.097,0.137-0.215,0.139-0.271,0.118
		c-0.077-0.029-0.131-0.128-0.041-0.292C25.721,30.026,25.861,30.008,25.922,30.073z"/>
	<path fill="#542619" d="M25.282,28.849c-0.111,0.106-0.215,0.125-0.292,0.071c-0.175-0.123-0.179-0.273-0.152-0.343
		c0.037-0.098,0.161-0.168,0.371-0.055C25.339,28.593,25.364,28.771,25.282,28.849z"/>
	<path fill="#542619" d="M26.769,27.495c0.052,0.145,0.027,0.247-0.053,0.295c-0.183,0.11-0.322,0.053-0.375,0
		c-0.075-0.073-0.088-0.215,0.1-0.361C26.558,27.339,26.731,27.389,26.769,27.495z"/>
	<path fill="#542619" d="M23.622,27.376c-0.011,0.171-0.083,0.265-0.186,0.279c-0.236,0.032-0.352-0.089-0.384-0.166
		c-0.044-0.108,0.005-0.26,0.263-0.325C23.475,27.123,23.63,27.25,23.622,27.376z"/>
	<path fill="#542619" d="M24.939,26.402c0.083,0.088,0.097,0.17,0.054,0.23c-0.097,0.137-0.215,0.139-0.271,0.118
		c-0.077-0.029-0.131-0.128-0.041-0.292C24.738,26.355,24.878,26.337,24.939,26.402z"/>
	<path fill="#542619" d="M23.926,28.975c0.083,0.088,0.097,0.17,0.054,0.23c-0.097,0.137-0.215,0.139-0.271,0.118
		c-0.077-0.029-0.131-0.128-0.041-0.292C23.725,28.928,23.865,28.91,23.926,28.975z"/>
	<path fill="#542619" d="M15.772,31.022c-0.111,0.106-0.215,0.125-0.292,0.071c-0.175-0.123-0.179-0.273-0.152-0.343
		c0.037-0.098,0.161-0.168,0.371-0.055C15.829,30.766,15.854,30.944,15.772,31.022z"/>
	<path fill="#542619" d="M14.864,29.986c-0.011,0.171-0.083,0.265-0.186,0.279c-0.236,0.032-0.352-0.089-0.384-0.166
		c-0.044-0.108,0.005-0.26,0.263-0.325C14.718,29.732,14.872,29.86,14.864,29.986z"/>
	<path fill="#542619" d="M14.685,31.147c0.083,0.088,0.097,0.17,0.054,0.23c-0.097,0.137-0.215,0.139-0.271,0.118
		c-0.077-0.029-0.131-0.128-0.041-0.292C14.484,31.101,14.624,31.082,14.685,31.147z"/>
	<path fill="#542619" d="M29.914,28.979c-0.111,0.106-0.215,0.125-0.292,0.071c-0.175-0.123-0.179-0.273-0.152-0.343
		c0.037-0.098,0.161-0.168,0.371-0.055C29.971,28.723,29.996,28.901,29.914,28.979z"/>
	<path fill="#542619" d="M29.006,27.944c-0.011,0.171-0.083,0.265-0.186,0.279c-0.236,0.032-0.352-0.089-0.384-0.166
		c-0.044-0.108,0.005-0.26,0.263-0.325C28.86,27.69,29.014,27.818,29.006,27.944z"/>
	<path fill="#542619" d="M28.827,29.105c0.083,0.088,0.097,0.17,0.054,0.23c-0.097,0.137-0.215,0.139-0.271,0.118
		c-0.077-0.029-0.131-0.128-0.041-0.292C28.626,29.058,28.766,29.04,28.827,29.105z"/>
	<path fill="#542619" d="M59.213,27.939c-0.257,0.007-0.402,0.109-0.428,0.263c-0.061,0.353,0.113,0.533,0.228,0.585
		c0.16,0.072,0.39,0.007,0.502-0.376C59.585,28.173,59.402,27.934,59.213,27.939z"/>
	<path fill="#542619" d="M55.933,31.07c-0.071-0.247-0.205-0.362-0.361-0.35c-0.357,0.029-0.489,0.242-0.51,0.366
		c-0.03,0.172,0.09,0.379,0.488,0.393C55.798,31.488,55.985,31.252,55.933,31.07z"/>
	<path fill="#542619" d="M61.283,30.001c0.043-0.147,0.011-0.248-0.071-0.292c-0.189-0.099-0.324-0.033-0.374,0.023
		c-0.07,0.078-0.075,0.22,0.122,0.354C61.082,30.17,61.251,30.109,61.283,30.001z"/>
	<path fill="#542619" d="M57.34,28.072c-0.078-0.132-0.173-0.178-0.261-0.148c-0.202,0.07-0.246,0.214-0.24,0.289
		c0.009,0.104,0.109,0.206,0.342,0.154C57.326,28.334,57.398,28.17,57.34,28.072z"/>
	<path fill="#542619" d="M57.805,30.631c0.147,0.046,0.248,0.016,0.293-0.066c0.103-0.188,0.039-0.323-0.016-0.375
		c-0.076-0.071-0.219-0.079-0.357,0.115C57.64,30.427,57.697,30.597,57.805,30.631z"/>
	<path fill="#542619" d="M59.725,27.653c0.111,0.106,0.215,0.125,0.292,0.071c0.175-0.123,0.179-0.273,0.152-0.343
		c-0.037-0.098-0.161-0.168-0.371-0.055C59.667,27.397,59.643,27.575,59.725,27.653z"/>
	<path fill="#542619" d="M54.379,28.599c0.111,0.106,0.215,0.125,0.292,0.071c0.175-0.123,0.179-0.273,0.152-0.343
		c-0.037-0.098-0.161-0.168-0.371-0.055C54.321,28.343,54.297,28.521,54.379,28.599z"/>
	<path fill="#542619" d="M62.751,28.291c0.111,0.106,0.215,0.125,0.292,0.071c0.175-0.123,0.179-0.273,0.152-0.343
		c-0.037-0.098-0.161-0.168-0.371-0.055C62.694,28.034,62.67,28.213,62.751,28.291z"/>
	<path fill="#542619" d="M57.461,26.29c-0.052,0.145-0.027,0.247,0.053,0.295c0.183,0.11,0.322,0.053,0.375,0
		c0.075-0.073,0.088-0.215-0.1-0.361C57.672,26.134,57.5,26.184,57.461,26.29z"/>
	<path fill="#542619" d="M61.048,29.019c0.014,0.214,0.103,0.331,0.232,0.348c0.295,0.039,0.44-0.111,0.48-0.208
		c0.055-0.135-0.007-0.324-0.328-0.406C61.231,28.702,61.038,28.862,61.048,29.019z"/>
	<path fill="#542619" d="M54.953,29.019c0.014,0.214,0.103,0.331,0.232,0.348c0.295,0.039,0.44-0.111,0.48-0.208
		c0.055-0.135-0.007-0.324-0.328-0.406C55.136,28.702,54.943,28.862,54.953,29.019z"/>
	<path fill="#542619" d="M60.633,31.696c0.011,0.171,0.083,0.265,0.186,0.279c0.236,0.032,0.352-0.089,0.384-0.166
		c0.044-0.108-0.005-0.26-0.263-0.325C60.779,31.442,60.624,31.57,60.633,31.696z"/>
	<path fill="#542619" d="M58.859,30.112c0.011,0.171,0.083,0.265,0.186,0.279c0.236,0.032,0.352-0.089,0.384-0.166
		c0.044-0.108-0.005-0.26-0.263-0.325C59.006,29.859,58.851,29.986,58.859,30.112z"/>
	<path fill="#542619" d="M64.114,29.027c0.011,0.171,0.083,0.265,0.186,0.279c0.236,0.032,0.352-0.089,0.384-0.166
		c0.044-0.108-0.005-0.26-0.263-0.325C64.26,28.773,64.106,28.901,64.114,29.027z"/>
	<path fill="#542619" d="M60.633,26.617c0.011,0.171,0.083,0.265,0.186,0.279c0.236,0.032,0.352-0.089,0.384-0.166
		c0.044-0.108-0.005-0.26-0.263-0.325C60.779,26.364,60.624,26.491,60.633,26.617z"/>
	<path fill="#542619" d="M55.788,25.406c-0.106-0.059-0.189-0.052-0.236,0.004c-0.109,0.128-0.082,0.243-0.048,0.291
		c0.047,0.067,0.156,0.096,0.293-0.032C55.882,25.589,55.866,25.449,55.788,25.406z"/>
	<path fill="#542619" d="M59.798,25.206c-0.083,0.088-0.097,0.17-0.054,0.23c0.097,0.137,0.215,0.139,0.271,0.118
		c0.077-0.029,0.131-0.128,0.041-0.292C59.999,25.159,59.859,25.141,59.798,25.206z"/>
	<path fill="#542619" d="M60.811,27.779c-0.083,0.088-0.097,0.17-0.054,0.23c0.097,0.137,0.215,0.139,0.271,0.118
		c0.077-0.029,0.131-0.128,0.041-0.292C61.012,27.732,60.872,27.714,60.811,27.779z"/>
	<path fill="#542619" d="M50.742,26.253c-0.083,0.088-0.097,0.17-0.054,0.23c0.097,0.137,0.215,0.139,0.271,0.118
		c0.077-0.029,0.131-0.128,0.041-0.292C50.944,26.207,50.803,26.188,50.742,26.253z"/>
	<path fill="#542619" d="M47.469,27.301c-0.121-0.003-0.191,0.041-0.208,0.113c-0.037,0.164,0.04,0.253,0.093,0.28
		c0.073,0.038,0.183,0.013,0.245-0.164C47.638,27.42,47.558,27.303,47.469,27.301z"/>
	<path fill="#542619" d="M51.832,29.965c-0.083,0.088-0.097,0.17-0.054,0.23c0.097,0.137,0.215,0.139,0.271,0.118
		c0.077-0.029,0.131-0.128,0.041-0.292C52.033,29.919,51.893,29.901,51.832,29.965z"/>
	<path fill="#542619" d="M52.472,28.742c0.111,0.106,0.215,0.125,0.292,0.071c0.175-0.123,0.179-0.273,0.152-0.343
		c-0.037-0.098-0.161-0.168-0.371-0.055C52.415,28.486,52.39,28.664,52.472,28.742z"/>
	<path fill="#542619" d="M50.985,27.388c-0.052,0.145-0.027,0.247,0.053,0.295c0.183,0.11,0.322,0.053,0.375,0
		c0.075-0.073,0.088-0.215-0.1-0.361C51.196,27.232,51.023,27.281,50.985,27.388z"/>
	<path fill="#542619" d="M54.132,27.269c0.011,0.171,0.083,0.265,0.186,0.279c0.236,0.032,0.352-0.089,0.384-0.166
		c0.044-0.108-0.005-0.26-0.263-0.325C54.278,27.015,54.124,27.143,54.132,27.269z"/>
	<path fill="#542619" d="M52.815,26.294c-0.083,0.088-0.097,0.17-0.054,0.23c0.097,0.137,0.215,0.139,0.271,0.118
		c0.077-0.029,0.131-0.128,0.041-0.292C53.016,26.248,52.876,26.23,52.815,26.294z"/>
	<path fill="#542619" d="M53.828,28.868c-0.083,0.088-0.097,0.17-0.054,0.23c0.097,0.137,0.215,0.139,0.271,0.118
		c0.077-0.029,0.131-0.128,0.041-0.292C54.029,28.821,53.889,28.803,53.828,28.868z"/>
	<path fill="#542619" d="M61.982,30.915c0.111,0.106,0.215,0.125,0.292,0.071c0.175-0.123,0.179-0.273,0.152-0.343
		c-0.037-0.098-0.161-0.168-0.371-0.055C61.924,30.658,61.9,30.836,61.982,30.915z"/>
	<path fill="#542619" d="M62.89,29.879c0.011,0.171,0.083,0.265,0.186,0.279c0.236,0.032,0.352-0.089,0.384-0.166
		c0.044-0.108-0.005-0.26-0.263-0.325C63.036,29.625,62.882,29.753,62.89,29.879z"/>
	<path fill="#542619" d="M63.068,31.04c-0.083,0.088-0.097,0.17-0.054,0.23c0.097,0.137,0.215,0.139,0.271,0.118
		c0.077-0.029,0.131-0.128,0.041-0.292C63.27,30.994,63.129,30.975,63.068,31.04z"/>
	<path fill="#542619" d="M47.84,28.872c0.111,0.106,0.215,0.125,0.292,0.071c0.175-0.123,0.179-0.273,0.152-0.343
		c-0.037-0.098-0.161-0.168-0.371-0.055C47.782,28.616,47.758,28.794,47.84,28.872z"/>
	<path fill="#542619" d="M48.748,27.836c0.011,0.171,0.083,0.265,0.186,0.279c0.236,0.032,0.352-0.089,0.384-0.166
		c0.044-0.108-0.005-0.26-0.263-0.325C48.894,27.583,48.74,27.71,48.748,27.836z"/>
	<path fill="#542619" d="M48.926,28.998c-0.083,0.088-0.097,0.17-0.054,0.23c0.097,0.137,0.215,0.139,0.271,0.118
		c0.077-0.029,0.131-0.128,0.041-0.292C49.128,28.951,48.987,28.933,48.926,28.998z"/>
</g>
</svg>
