<?xml version="1.0" encoding="utf-8"?>
<!-- Generator: Adobe Illustrator 17.0.0, SVG Export Plug-In . SVG Version: 6.00 Build 0)  -->
<!DOCTYPE svg PUBLIC "-//W3C//DTD SVG 1.1//EN" "http://www.w3.org/Graphics/SVG/1.1/DTD/svg11.dtd">
<svg version="1.1" id="Layer_1" xmlns="http://www.w3.org/2000/svg" xmlns:xlink="http://www.w3.org/1999/xlink" x="0px" y="0px"
	 width="53.06px" height="28.179px" viewBox="0 0 53.06 28.179" enable-background="new 0 0 53.06 28.179" xml:space="preserve">
<g>
	<ellipse fill="#E6E8EE" cx="27.455" cy="13.751" rx="14.152" ry="13.751"/>
	<ellipse fill="#121212" cx="27.422" cy="11.029" rx="4.039" ry="3.924"/>
	<g>
		<path fill="#282828" d="M26.231,28.029c6.717,0.433,12.667-3.874,14.503-9.512h-27.43C14.134,23.206,19.514,27.597,26.231,28.029z
			"/>
	</g>
	<g>
		<linearGradient id="SVGID_1_" gradientUnits="userSpaceOnUse" x1="13.3036" y1="23.0252" x2="40.7335" y2="23.0252">
			<stop  offset="0" style="stop-color:#7FC1C9"/>
			<stop  offset="0.1091" style="stop-color:#8BB2B3"/>
			<stop  offset="0.4316" style="stop-color:#A18C7E"/>
			<stop  offset="0.6978" style="stop-color:#AD6F5E"/>
			<stop  offset="0.8944" style="stop-color:#B45B4C"/>
			<stop  offset="1" style="stop-color:#B75245"/>
		</linearGradient>
		<path fill="url(#SVGID_1_)" d="M13.304,18.517c0.83,4.689,6.182,8.556,12.899,8.989c6.717,0.433,13.106-4.445,14.531-8.989H13.304
			z"/>
	</g>
	<linearGradient id="SVGID_2_" gradientUnits="userSpaceOnUse" x1="42.5527" y1="24.5419" x2="53.0596" y2="24.5419">
		<stop  offset="0" style="stop-color:#7FC1C9"/>
		<stop  offset="0.1376" style="stop-color:#75B1B7"/>
		<stop  offset="0.5398" style="stop-color:#598E8E"/>
		<stop  offset="0.8392" style="stop-color:#447B79"/>
		<stop  offset="1" style="stop-color:#3C7573"/>
	</linearGradient>
	<path fill="url(#SVGID_2_)" d="M52.961,23.932c-0.903-1.718-4.682-2.239-6.356-1.891c-1.697,0.353-5.087,2.165-3.745,3.8
		c1.389,1.693,5.248,1.422,6.919,0.927C50.916,26.433,53.606,25.16,52.961,23.932z"/>
	<linearGradient id="SVGID_3_" gradientUnits="userSpaceOnUse" x1="-1.314849e-06" y1="25.6186" x2="11.0707" y2="25.6186">
		<stop  offset="0" style="stop-color:#7FC1C9"/>
		<stop  offset="0.1376" style="stop-color:#75B1B7"/>
		<stop  offset="0.5398" style="stop-color:#598E8E"/>
		<stop  offset="0.8392" style="stop-color:#447B79"/>
		<stop  offset="1" style="stop-color:#3C7573"/>
	</linearGradient>
	<path fill="url(#SVGID_3_)" d="M0.028,25.341c0.519,1.868,3.948,2.824,5.656,2.838c1.731,0.014,6.217-1.083,5.253-2.962
		c-0.998-1.946-4.963-2.261-6.699-2.132C3.056,23.172-0.342,24.006,0.028,25.341z"/>
</g>
</svg>
