<?xml version="1.0" encoding="utf-8"?>
<!-- Generator: Adobe Illustrator 17.0.0, SVG Export Plug-In . SVG Version: 6.00 Build 0)  -->
<!DOCTYPE svg PUBLIC "-//W3C//DTD SVG 1.1//EN" "http://www.w3.org/Graphics/SVG/1.1/DTD/svg11.dtd">
<svg version="1.1" id="Layer_1" xmlns="http://www.w3.org/2000/svg" xmlns:xlink="http://www.w3.org/1999/xlink" x="0px" y="0px"
	 width="78.471px" height="35.846px" viewBox="0 0 78.471 35.846" enable-background="new 0 0 78.471 35.846" xml:space="preserve">
<g>
	
		<image overflow="visible" opacity="0.25" width="73" height="74" xlink:href="9A27AE1210DF241F.png"  transform="matrix(0.48 0 0 0.48 36.527 0)">
	</image>
	<g>
		
			<ellipse transform="matrix(0.9224 -0.3863 0.3863 0.9224 -2.5811 22.2309)" fill="#171517" cx="54.019" cy="17.537" rx="2.481" ry="2.546"/>
	</g>
</g>
<g>
	
		<image overflow="visible" opacity="0.25" width="73" height="74" xlink:href="9A27AE1210DF241D.png"  transform="matrix(0.48 0 0 0.48 3.5134 0.3256)">
	</image>
	<g>
		
			<ellipse transform="matrix(0.9224 -0.3863 0.3863 0.9224 -5.2701 9.5018)" fill="#171517" cx="21.005" cy="17.863" rx="2.481" ry="2.546"/>
	</g>
</g>
<path fill="#282828" d="M12.002,21.832c0,0-5.732-0.64-7.967-0.509c-1.499,0.088-3.632-0.451-3.84-0.322
	c-0.147,0.091-0.209,0.336-0.193,0.441c0.014,0.092,0.137,0.271,0.277,0.309c0.269,0.074,1.799,0.445,4.04,0.453
	c2.477,0.008,7.067,0.501,7.067,0.501s0.222-0.331,0.28-0.438C11.728,22.155,12.002,21.832,12.002,21.832z"/>
<linearGradient id="SVGID_1_" gradientUnits="userSpaceOnUse" x1="2823.8167" y1="4747.2324" x2="2835.7478" y2="4747.2324" gradientTransform="matrix(1.0203 0.0121 -0.2578 0.5839 -1657.728 -2785.2112)">
	<stop  offset="0" style="stop-color:#D8B524"/>
	<stop  offset="0.038" style="stop-color:#D8B431"/>
	<stop  offset="0.1104" style="stop-color:#D7B452"/>
	<stop  offset="0.2089" style="stop-color:#D4B37E"/>
	<stop  offset="0.2674" style="stop-color:#D3B396"/>
	<stop  offset="0.4324" style="stop-color:#D3AE82"/>
	<stop  offset="0.7893" style="stop-color:#D2A14C"/>
	<stop  offset="1" style="stop-color:#D19A2A"/>
</linearGradient>
<path fill="url(#SVGID_1_)" d="M12.054,20.917c0,0-5.777-0.499-7.967-0.509c-1.539-0.007-3.683-0.333-3.892-0.205
	c-0.147,0.091-0.209,0.336-0.193,0.441c0.014,0.092,0.137,0.272,0.277,0.311c0.269,0.074,1.848,0.334,4.093,0.334
	c1.443,0.001,7.067,0.501,7.067,0.501s0.222-0.331,0.28-0.438C11.781,21.24,12.054,20.917,12.054,20.917z"/>
<path fill="#282828" d="M32.064,22.664c0,0,0.212,0.046,0.258,0c0.101-0.101-0.071-0.448,0-0.571
	c0.053-0.092,0.266-0.186,0.368-0.215l10.264-0.202c0.11,0.077,0.102,0.42,0.215,0.494c0.084,0.055,0.403,0,0.403,0l-0.127,0.637
	c0,0-0.453,0.196-0.598,0.144c-0.126-0.045-0.172-0.488-0.286-0.559l-9.621-0.078c-0.1,0.062-0.164,0.314-0.204,0.424
	c-0.034,0.093-0.027,0.312-0.096,0.383c-0.077,0.08-0.425,0.122-0.425,0.122L32.064,22.664z"/>
<linearGradient id="SVGID_2_" gradientUnits="userSpaceOnUse" x1="32.0355" y1="21.651" x2="43.5428" y2="21.651">
	<stop  offset="0" style="stop-color:#D8B524"/>
	<stop  offset="0.038" style="stop-color:#D8B431"/>
	<stop  offset="0.1104" style="stop-color:#D7B452"/>
	<stop  offset="0.2089" style="stop-color:#D4B37E"/>
	<stop  offset="0.2674" style="stop-color:#D3B396"/>
	<stop  offset="0.4324" style="stop-color:#D3AE82"/>
	<stop  offset="0.7893" style="stop-color:#D2A14C"/>
	<stop  offset="1" style="stop-color:#D19A2A"/>
</linearGradient>
<path fill="url(#SVGID_2_)" d="M32.035,21.856c0,0,0.212,0.046,0.258,0c0.101-0.101-0.071-0.448,0-0.571
	c0.053-0.092,0.266-0.186,0.368-0.215l10.264-0.202c0.11,0.077,0.102,0.42,0.215,0.494c0.084,0.055,0.403,0,0.403,0l-0.127,0.637
	c0,0-0.453,0.196-0.598,0.144c-0.126-0.045-0.172-0.488-0.286-0.559l-9.621-0.078c-0.1,0.062-0.164,0.314-0.204,0.424
	c-0.034,0.093-0.027,0.312-0.096,0.383c-0.077,0.08-0.425,0.122-0.425,0.122L32.035,21.856z"/>
<ellipse transform="matrix(0.9224 -0.3863 0.3863 0.9224 -5.1136 9.5381)" fill="#E6E8EE" cx="21.173" cy="17.491" rx="2.816" ry="2.89"/>
<ellipse transform="matrix(0.9224 -0.3863 0.3863 0.9224 -2.7069 22.2562)" fill="#E6E8EE" cx="54.019" cy="17.863" rx="3.009" ry="3.088"/>
<linearGradient id="SVGID_3_" gradientUnits="userSpaceOnUse" x1="19.1584" y1="17.3257" x2="23.1882" y2="17.3257">
	<stop  offset="0" style="stop-color:#714C8B"/>
	<stop  offset="0.1849" style="stop-color:#6B578A"/>
	<stop  offset="1" style="stop-color:#4B7B7E"/>
</linearGradient>
<path fill="url(#SVGID_3_)" d="M23.024,16.55c0.439,1.049-0.033,2.246-1.055,2.674c-1.022,0.428-2.207-0.075-2.646-1.124
	c-0.439-1.049,0.033-2.246,1.055-2.674C21.4,14.999,22.585,15.502,23.024,16.55z"/>
<path fill="#87A09D" d="M20.589,17.335c0,0-0.132,0.072-0.182,0.36c-0.041,0.236,0.28,0.568,0.701,0.659
	c0.64,0.139,1.346-0.727,1.106-1.235c-0.049-0.103-0.288-0.262-0.548-0.312C21.316,16.739,20.589,17.335,20.589,17.335z"/>
<ellipse transform="matrix(0.9224 -0.3863 0.3863 0.9224 -4.9689 9.4933)" fill="#080907" cx="21.134" cy="17.109" rx="0.876" ry="0.899"/>
<linearGradient id="SVGID_4_" gradientUnits="userSpaceOnUse" x1="51.8654" y1="17.6685" x2="56.1716" y2="17.6685">
	<stop  offset="0" style="stop-color:#714C8B"/>
	<stop  offset="0.1849" style="stop-color:#6B578A"/>
	<stop  offset="1" style="stop-color:#4B7B7E"/>
</linearGradient>
<path fill="url(#SVGID_4_)" d="M55.996,16.84c0.469,1.121-0.035,2.4-1.128,2.858c-1.092,0.457-2.358-0.08-2.828-1.201
	s0.035-2.4,1.128-2.858C54.261,15.182,55.527,15.719,55.996,16.84z"/>
<path fill="#87A09D" d="M53.395,17.678c0,0-0.141,0.077-0.195,0.385c-0.044,0.252,0.299,0.607,0.749,0.704
	c0.684,0.148,1.438-0.777,1.182-1.32c-0.052-0.11-0.308-0.28-0.585-0.334C54.172,17.041,53.395,17.678,53.395,17.678z"/>
<ellipse transform="matrix(0.9224 -0.3863 0.3863 0.9224 -2.5457 22.207)" fill="#080907" cx="53.977" cy="17.437" rx="0.936" ry="0.96"/>
<path fill="#282828" d="M64.519,22.001c0,0,6.416-0.521,6.791-0.532c0.859-0.025,6.103-0.892,6.818-0.714
	c0.108,0.027,0.307,0.112,0.332,0.18c0.051,0.143-0.066,0.481-0.323,0.576c-0.169,0.063-0.585,0.072-0.975,0.125
	c-1.169,0.158-5.325,0.575-6.213,0.651c-0.577,0.049-6.256,0.48-6.256,0.48L64.519,22.001z"/>
<path fill="#282828" d="M31.704,21.283c-1.958-5.54-7.983-8.462-13.458-6.527c-5.475,1.935-8.326,7.994-6.368,13.534
	c1.958,5.54,7.983,8.462,13.458,6.527C30.811,32.882,33.662,26.822,31.704,21.283z M25.101,34.152
	c-5.112,1.807-10.738-0.922-12.566-6.094c-1.828-5.172,0.834-10.83,5.946-12.637s10.738,0.922,12.566,6.094
	C32.875,26.687,30.213,32.345,25.101,34.152z"/>
<linearGradient id="SVGID_5_" gradientUnits="userSpaceOnUse" x1="11.9584" y1="24.1758" x2="31.6235" y2="24.1758">
	<stop  offset="0" style="stop-color:#B91519"/>
	<stop  offset="0.2189" style="stop-color:#BB1C1E"/>
	<stop  offset="0.5816" style="stop-color:#C32D2E"/>
	<stop  offset="1" style="stop-color:#CE444B"/>
</linearGradient>
<path opacity="0.8" fill="url(#SVGID_5_)" d="M31.047,20.905c1.828,5.172-0.834,10.83-5.946,12.637
	c-5.112,1.807-10.738-0.922-12.566-6.094s0.834-10.83,5.946-12.637S29.219,15.732,31.047,20.905z"/>
<linearGradient id="SVGID_6_" gradientUnits="userSpaceOnUse" x1="44.1003" y1="23.2426" x2="64.1288" y2="23.2426">
	<stop  offset="0" style="stop-color:#B91519"/>
	<stop  offset="0.2189" style="stop-color:#BB1C1E"/>
	<stop  offset="0.5816" style="stop-color:#C32D2E"/>
	<stop  offset="1" style="stop-color:#CE444B"/>
</linearGradient>
<path opacity="0.8" fill="url(#SVGID_6_)" d="M63.541,19.911c1.862,5.268-0.85,11.03-6.056,12.87
	c-5.206,1.84-10.936-0.939-12.798-6.207c-1.862-5.268,0.85-11.03,6.056-12.87S61.68,14.643,63.541,19.911z"/>
<path fill="#282828" d="M64.211,20.53c-1.994-5.642-8.131-8.618-13.707-6.648c-5.576,1.971-8.48,8.142-6.486,13.784
	c1.994,5.642,8.131,8.618,13.707,6.648C63.301,32.344,66.205,26.172,64.211,20.53z M57.485,33.637
	c-5.206,1.84-10.936-0.939-12.798-6.207c-1.862-5.268,0.85-11.03,6.056-12.87s10.936,0.939,12.798,6.207
	C65.403,26.035,62.692,31.797,57.485,33.637z"/>
<linearGradient id="SVGID_7_" gradientUnits="userSpaceOnUse" x1="2568.3679" y1="5987.2852" x2="2582.5327" y2="5987.2852" gradientTransform="matrix(0.9696 -0.0426 -0.1763 0.5617 -1370.3044 -3232.2805)">
	<stop  offset="0" style="stop-color:#D8B524"/>
	<stop  offset="0.038" style="stop-color:#D8B431"/>
	<stop  offset="0.1104" style="stop-color:#D7B452"/>
	<stop  offset="0.2089" style="stop-color:#D4B37E"/>
	<stop  offset="0.2674" style="stop-color:#D3B396"/>
	<stop  offset="0.4324" style="stop-color:#D3AE82"/>
	<stop  offset="0.7893" style="stop-color:#D2A14C"/>
	<stop  offset="1" style="stop-color:#D19A2A"/>
</linearGradient>
<path fill="url(#SVGID_7_)" d="M64.564,21.097c0,0,6.816-0.454,7.191-0.466c0.859-0.025,5.565-0.906,6.281-0.729
	c0.108,0.027,0.307,0.112,0.332,0.18c0.051,0.143-0.077,0.538-0.333,0.633c-0.169,0.063-0.707,0.058-1.096,0.111
	c-1.063,0.145-4.933,0.529-5.821,0.604c-0.577,0.049-6.378,0.43-6.378,0.43L64.564,21.097z"/>
<linearGradient id="SVGID_8_" gradientUnits="userSpaceOnUse" x1="11.2602" y1="23.9302" x2="32.3217" y2="23.9302">
	<stop  offset="0" style="stop-color:#D8B524"/>
	<stop  offset="0.038" style="stop-color:#D8B431"/>
	<stop  offset="0.1104" style="stop-color:#D7B452"/>
	<stop  offset="0.2089" style="stop-color:#D4B37E"/>
	<stop  offset="0.2674" style="stop-color:#D3B396"/>
	<stop  offset="0.4324" style="stop-color:#D3AE82"/>
	<stop  offset="0.7893" style="stop-color:#D2A14C"/>
	<stop  offset="1" style="stop-color:#D19A2A"/>
</linearGradient>
<path fill="url(#SVGID_8_)" d="M31.704,20.427c-1.958-5.54-7.983-8.462-13.458-6.527c-5.475,1.935-8.326,7.994-6.368,13.534
	c1.958,5.54,7.983,8.462,13.458,6.527C30.811,32.026,33.662,25.967,31.704,20.427z M25.101,33.296
	c-5.112,1.807-10.738-0.922-12.566-6.094c-1.828-5.172,0.834-10.83,5.946-12.637s10.738,0.922,12.566,6.094
	C32.875,25.832,30.213,31.489,25.101,33.296z"/>
<linearGradient id="SVGID_9_" gradientUnits="userSpaceOnUse" x1="43.3892" y1="23.2426" x2="64.8398" y2="23.2426">
	<stop  offset="0" style="stop-color:#D8B524"/>
	<stop  offset="0.038" style="stop-color:#D8B431"/>
	<stop  offset="0.1104" style="stop-color:#D7B452"/>
	<stop  offset="0.2089" style="stop-color:#D4B37E"/>
	<stop  offset="0.2674" style="stop-color:#D3B396"/>
	<stop  offset="0.4324" style="stop-color:#D3AE82"/>
	<stop  offset="0.7893" style="stop-color:#D2A14C"/>
	<stop  offset="1" style="stop-color:#D19A2A"/>
</linearGradient>
<path fill="url(#SVGID_9_)" d="M64.211,19.674c-1.994-5.642-8.131-8.618-13.707-6.648c-5.576,1.971-8.48,8.142-6.486,13.784
	c1.994,5.642,8.131,8.618,13.707,6.648C63.301,31.488,66.205,25.317,64.211,19.674z M57.485,32.781
	c-5.206,1.84-10.936-0.939-12.798-6.207c-1.862-5.268,0.85-11.03,6.056-12.87s10.936,0.939,12.798,6.207
	C65.403,25.179,62.692,30.941,57.485,32.781z"/>
<path fill="#FAD7E7" d="M48.613,16.659c0.049-0.495-1.382-0.065-1.929,0.69c-0.329,0.454-0.933,1.632-0.682,1.938
	c0.219,0.268,1.053-0.677,1.416-1.043C47.777,17.883,48.551,17.289,48.613,16.659z"/>
<path fill="#FAD7E7" d="M17.265,16.721c-0.158-0.565-2.747,0.889-3.435,2.078c-0.414,0.715-0.995,2.396-0.346,2.55
	c0.568,0.135,1.72-1.456,2.247-2.1C16.25,18.613,17.466,17.439,17.265,16.721z"/>
<path opacity="0.1" fill="#FAD7E7" d="M20.255,20.265c-5.112,1.807-8.296,2.557-8.2,2.02c0.344-1.926,1.486-5.934,6.427-7.72
	c5.099-1.843,10.833,1.481,12.566,6.094c0.205,0.547-5.682-1.767-9.714-0.682L20.255,20.265z"/>
<path opacity="0.1" fill="#FAD7E7" d="M52.44,19.551c-5.112,1.807-8.296,2.557-8.2,2.02c0.344-1.926,1.486-5.934,6.427-7.72
	c5.099-1.843,10.833,1.481,12.566,6.094c0.205,0.547-5.682-1.767-9.714-0.682L52.44,19.551z"/>
</svg>
