<?xml version="1.0" encoding="utf-8"?>
<!-- Generator: Adobe Illustrator 17.0.0, SVG Export Plug-In . SVG Version: 6.00 Build 0)  -->
<!DOCTYPE svg PUBLIC "-//W3C//DTD SVG 1.1//EN" "http://www.w3.org/Graphics/SVG/1.1/DTD/svg11.dtd">
<svg version="1.1" id="Layer_1" xmlns="http://www.w3.org/2000/svg" xmlns:xlink="http://www.w3.org/1999/xlink" x="0px" y="0px"
	 width="52.829px" height="18.843px" viewBox="0 0 52.829 18.843" enable-background="new 0 0 52.829 18.843" xml:space="preserve">
<radialGradient id="SVGID_1_" cx="9.1965" cy="10.7154" r="8.6783" gradientUnits="userSpaceOnUse">
	<stop  offset="0.5391" style="stop-color:#94685A"/>
	<stop  offset="0.5983" style="stop-color:#936659"/>
	<stop  offset="0.6616" style="stop-color:#905F54"/>
	<stop  offset="0.727" style="stop-color:#8A544D"/>
	<stop  offset="0.7937" style="stop-color:#814442"/>
	<stop  offset="0.8615" style="stop-color:#722E34"/>
	<stop  offset="0.9302" style="stop-color:#5E1221"/>
	<stop  offset="0.9984" style="stop-color:#400000"/>
	<stop  offset="1" style="stop-color:#3F0000"/>
</radialGradient>
<ellipse fill="url(#SVGID_1_)" cx="9.197" cy="10.715" rx="9.197" ry="8.127"/>
<ellipse fill="#D0E5F7" cx="9.722" cy="10.557" rx="6.814" ry="6.74"/>
<ellipse fill="#341811" cx="10.556" cy="10.26" rx="4.364" ry="4.209"/>
<radialGradient id="SVGID_2_" cx="-10897.749" cy="10.7154" r="8.6783" gradientTransform="matrix(-1 0 0 1 -10854.1172 0)" gradientUnits="userSpaceOnUse">
	<stop  offset="0.5391" style="stop-color:#94685A"/>
	<stop  offset="0.5983" style="stop-color:#936659"/>
	<stop  offset="0.6616" style="stop-color:#905F54"/>
	<stop  offset="0.727" style="stop-color:#8A544D"/>
	<stop  offset="0.7937" style="stop-color:#814442"/>
	<stop  offset="0.8615" style="stop-color:#722E34"/>
	<stop  offset="0.9302" style="stop-color:#5E1221"/>
	<stop  offset="0.9984" style="stop-color:#400000"/>
	<stop  offset="1" style="stop-color:#3F0000"/>
</radialGradient>
<ellipse fill="url(#SVGID_2_)" cx="43.632" cy="10.715" rx="9.197" ry="8.127"/>
<ellipse fill="#D0E5F7" cx="43.106" cy="10.557" rx="6.544" ry="6.473"/>
<ellipse fill="#341811" cx="43.106" cy="10.557" rx="4.364" ry="4.209"/>
<path fill="#282828" d="M0.491,8.091c0,0,3.912-2.096,7.892-2.384c4.755-0.344,8.727,0.865,8.727,0.865S13.963,1.4,8.324,1.921
	C2.637,2.445,0.491,8.091,0.491,8.091z"/>
<ellipse fill="#FFFFFF" cx="9.366" cy="8.459" rx="1.353" ry="1.305"/>
<path fill="#282828" d="M34.495,8.616c0,0,4.137-2.096,8.345-2.384c5.028-0.344,9.228,0.865,9.228,0.865s-3.326-5.172-9.29-4.652
	C36.765,2.97,34.495,8.616,34.495,8.616z"/>
<circle fill="#FFFFFF" cx="41.548" cy="8.984" r="1.304"/>
<linearGradient id="SVGID_3_" gradientUnits="userSpaceOnUse" x1="0.4905" y1="3.9141" x2="18.0512" y2="3.9141">
	<stop  offset="0" style="stop-color:#FAAB4F"/>
	<stop  offset="0.0389" style="stop-color:#F0A85E"/>
	<stop  offset="0.1657" style="stop-color:#D7A47E"/>
	<stop  offset="0.2963" style="stop-color:#C1A097"/>
	<stop  offset="0.4286" style="stop-color:#AE9CAA"/>
	<stop  offset="0.5632" style="stop-color:#9E99B8"/>
	<stop  offset="0.7009" style="stop-color:#9297C1"/>
	<stop  offset="0.8438" style="stop-color:#8B96C8"/>
	<stop  offset="1" style="stop-color:#8896CB"/>
</linearGradient>
<path fill="url(#SVGID_3_)" d="M0.491,7.828c0,0,3.912-2.096,7.892-2.384C13.138,5.1,17.109,6.31,17.109,6.31
	s1.956-4.634,0.232-5.938C15.865-0.744,9.924,0.983,7.323,1.224C1.636,1.748,0.491,7.828,0.491,7.828z"/>
<linearGradient id="SVGID_4_" gradientUnits="userSpaceOnUse" x1="33.9146" y1="4.7884" x2="52.0675" y2="4.7884">
	<stop  offset="0" style="stop-color:#FAAB4F"/>
	<stop  offset="0.0389" style="stop-color:#F0A85E"/>
	<stop  offset="0.1657" style="stop-color:#D7A47E"/>
	<stop  offset="0.2963" style="stop-color:#C1A097"/>
	<stop  offset="0.4286" style="stop-color:#AE9CAA"/>
	<stop  offset="0.5632" style="stop-color:#9E99B8"/>
	<stop  offset="0.7009" style="stop-color:#9297C1"/>
	<stop  offset="0.8438" style="stop-color:#8B96C8"/>
	<stop  offset="1" style="stop-color:#8896CB"/>
</linearGradient>
<path fill="url(#SVGID_4_)" d="M34.495,8.353c0,0,4.137-2.096,8.345-2.384c5.028-0.344,9.228,0.865,9.228,0.865
	s-3.581-5.942-9.545-5.421c-2.651,0.231-6.477-0.829-7.799,0.47C33.047,3.532,34.495,8.353,34.495,8.353z"/>
</svg>
