<?xml version="1.0" encoding="utf-8"?>
<!-- Generator: Adobe Illustrator 17.0.0, SVG Export Plug-In . SVG Version: 6.00 Build 0)  -->
<!DOCTYPE svg PUBLIC "-//W3C//DTD SVG 1.1//EN" "http://www.w3.org/Graphics/SVG/1.1/DTD/svg11.dtd">
<svg version="1.1" id="Layer_1" xmlns="http://www.w3.org/2000/svg" xmlns:xlink="http://www.w3.org/1999/xlink" x="0px" y="0px"
	 width="69.214px" height="48.046px" viewBox="0 0 69.214 48.046" enable-background="new 0 0 69.214 48.046" xml:space="preserve">
<g>
	<g>
		
			<image overflow="visible" opacity="0.3" width="33" height="70" xlink:href="656331DF080E57D5.png"  transform="matrix(0.48 0 0 0.48 26.8307 4.3561)">
		</image>
		<g>
			<linearGradient id="SVGID_1_" gradientUnits="userSpaceOnUse" x1="32.8307" y1="21.1121" x2="36.5562" y2="21.1121">
				<stop  offset="0" style="stop-color:#001E1E"/>
				<stop  offset="0.0297" style="stop-color:#001F1F"/>
				<stop  offset="0.3777" style="stop-color:#002B2E"/>
				<stop  offset="0.708" style="stop-color:#003237"/>
				<stop  offset="1" style="stop-color:#00343A"/>
			</linearGradient>
			<path fill="url(#SVGID_1_)" d="M33.877,10.478c-0.013-0.163,0.645-0.163,0.653,0c0.182,3.77,2.665,15.249,1.871,20.277
				c-0.042,0.266-0.343,0.778-0.579,0.908c-0.499,0.273-1.777,0.274-2.275,0c-0.203-0.112-0.457-0.555-0.496-0.784
				C32.182,25.849,34.197,14.558,33.877,10.478z"/>
		</g>
	</g>
	<path fill="#282828" d="M26.292,19.558c-1.767,2.759-5.38,3.599-8.068,1.876c-2.689-1.722-4.389-4.024-1.732-5.942
		c3.251-2.348,5.554-2.516,8.242-0.793C27.421,16.422,28.059,16.799,26.292,19.558z"/>
	<path fill="#282828" d="M41.654,19.536c1.767,2.759,5.38,3.599,8.068,1.876c2.689-1.722,4.389-4.024,1.732-5.942
		c-3.251-2.348-5.554-2.516-8.242-0.793S39.886,16.777,41.654,19.536z"/>
	<g>
		
			<image overflow="visible" opacity="0.3" width="51" height="44" xlink:href="656331DF080E57D7.png"  transform="matrix(0.48 0 0 0.48 9.1581 7.2672)">
		</image>
		<g>
			<path fill="#E388B8" d="M26.292,19.277c-1.767,2.759-5.38,3.599-8.068,1.876s-4.389-4.024-1.732-5.942
				c3.251-2.348,5.554-2.516,8.242-0.793S28.059,16.518,26.292,19.277z"/>
		</g>
	</g>
	
		<ellipse transform="matrix(0.9967 0.0806 -0.0806 0.9967 1.4892 -1.6441)" fill="#E6E8EE" cx="21.105" cy="17.62" rx="5.605" ry="3.91"/>
	<linearGradient id="SVGID_2_" gradientUnits="userSpaceOnUse" x1="17.9164" y1="17.587" x2="23.9102" y2="17.587">
		<stop  offset="0" style="stop-color:#097172"/>
		<stop  offset="0.0263" style="stop-color:#006F70"/>
		<stop  offset="0.2021" style="stop-color:#006063"/>
		<stop  offset="0.3763" style="stop-color:#005156"/>
		<stop  offset="0.5458" style="stop-color:#00464B"/>
		<stop  offset="0.7091" style="stop-color:#003C42"/>
		<stop  offset="0.8636" style="stop-color:#00363C"/>
		<stop  offset="1" style="stop-color:#00343A"/>
	</linearGradient>
	<path fill="url(#SVGID_2_)" d="M23.417,19.191c-0.909,1.419-2.767,1.851-4.15,0.965c-1.383-0.886-1.767-2.755-0.858-4.174
		c0.909-1.419,2.767-1.851,4.15-0.965S24.326,17.772,23.417,19.191z"/>
	
		<ellipse transform="matrix(0.9743 -0.2253 0.2253 0.9743 -3.3995 5.1415)" fill="#080907" cx="20.832" cy="17.468" rx="1.298" ry="1.332"/>
	<path fill="#FAFDFD" d="M20.362,16.549c-0.112-0.004-0.328,0.153-0.365,0.259c-0.025,0.072,0.016,0.258,0.084,0.293
		c0.077,0.039,0.263-0.059,0.322-0.121c0.057-0.059,0.124-0.232,0.103-0.311C20.495,16.623,20.409,16.551,20.362,16.549z"/>
	<path fill="#AABFBC" d="M21.397,18.164c0,0,0.411,0.176,0.572,0.196c0.12,0.015,0.499-0.013,0.499-0.013s-0.134,0.357-0.109,0.511
		c0.02,0.119,0.062,0.403,0.062,0.403s-0.317-0.092-0.505-0.105c-0.127-0.009-0.515,0.068-0.515,0.068s0.126-0.372,0.139-0.506
		C21.555,18.552,21.397,18.164,21.397,18.164z"/>
	<g>
		
			<image overflow="visible" opacity="0.3" width="51" height="44" xlink:href="656331DF080E57D2.png"  transform="matrix(0.48 0 0 0.48 34.6611 7.2672)">
		</image>
		<g>
			<path fill="#E388B8" d="M41.654,19.277c1.767,2.759,5.38,3.599,8.068,1.876s4.389-4.024,1.732-5.942
				c-3.251-2.348-5.554-2.516-8.242-0.793S39.886,16.518,41.654,19.277z"/>
		</g>
	</g>
	
		<ellipse transform="matrix(-0.9967 0.0806 -0.0806 -0.9967 94.9489 31.406)" fill="#E6E8EE" cx="46.84" cy="17.62" rx="5.605" ry="3.91"/>
	<linearGradient id="SVGID_3_" gradientUnits="userSpaceOnUse" x1="44.0349" y1="17.587" x2="50.0288" y2="17.587">
		<stop  offset="0" style="stop-color:#097172"/>
		<stop  offset="0.0263" style="stop-color:#006F70"/>
		<stop  offset="0.2021" style="stop-color:#006063"/>
		<stop  offset="0.3763" style="stop-color:#005156"/>
		<stop  offset="0.5458" style="stop-color:#00464B"/>
		<stop  offset="0.7091" style="stop-color:#003C42"/>
		<stop  offset="0.8636" style="stop-color:#00363C"/>
		<stop  offset="1" style="stop-color:#00343A"/>
	</linearGradient>
	<path fill="url(#SVGID_3_)" d="M44.528,19.191c0.909,1.419,2.767,1.851,4.15,0.965s1.767-2.755,0.858-4.174
		c-0.909-1.419-2.767-1.851-4.15-0.965C44.003,15.904,43.619,17.772,44.528,19.191z"/>
	
		<ellipse transform="matrix(-0.9743 -0.2253 0.2253 -0.9743 89.0805 45.1002)" fill="#080907" cx="47.113" cy="17.468" rx="1.298" ry="1.332"/>
	<path fill="#FAFDFD" d="M46.441,16.746c-0.112-0.004-0.328,0.153-0.365,0.259c-0.025,0.072,0.016,0.258,0.084,0.293
		c0.077,0.039,0.263-0.059,0.322-0.121c0.057-0.059,0.124-0.232,0.103-0.311C46.575,16.82,46.488,16.748,46.441,16.746z"/>
	<path fill="#AABFBC" d="M47.328,18.164c0,0,0.411,0.176,0.572,0.196c0.12,0.015,0.499-0.013,0.499-0.013s-0.134,0.357-0.109,0.511
		c0.02,0.119,0.062,0.403,0.062,0.403s-0.317-0.092-0.505-0.105c-0.127-0.009-0.515,0.068-0.515,0.068s0.126-0.372,0.139-0.506
		C47.486,18.552,47.328,18.164,47.328,18.164z"/>
	<g>
		
			<image overflow="visible" opacity="0.3" width="59" height="49" xlink:href="656331DF080E57D3.png"  transform="matrix(0.48 0 0 0.48 3.6741 0.4616)">
		</image>
		<g>
			<linearGradient id="SVGID_4_" gradientUnits="userSpaceOnUse" x1="9.6741" y1="12.079" x2="25.7982" y2="12.079">
				<stop  offset="0" style="stop-color:#001E1E"/>
				<stop  offset="0.0297" style="stop-color:#001F1F"/>
				<stop  offset="0.3777" style="stop-color:#002B2E"/>
				<stop  offset="0.708" style="stop-color:#003237"/>
				<stop  offset="1" style="stop-color:#00343A"/>
			</linearGradient>
			<path fill="url(#SVGID_4_)" d="M9.887,16.392c0.123,0.254,0.662,0.536,0.912,0.666c0.434,0.226,1.371,0.71,1.854,0.629
				c0.372-0.063,0.532-2.371,1.887-5.131c1.382-2.814,5.01-2.845,5.793-2.814c1.262,0.051,4.866,1.357,4.866,1.357
				s0.649-0.744,0.596-2.086c-0.038-0.965-0.153-1.249-0.429-1.537c-0.229-0.24-0.998-0.62-1.259-0.416
				c-0.261,0.204,0.282,1.043,0.101,1.321c-0.159,0.244-0.843,0.527-1.099,0.388c-0.249-0.135-0.504-0.692-0.524-1.158
				c-0.014-0.328,0.228-0.593,0.072-0.716c-0.103-0.081-0.432-0.093-0.525,0c-0.188,0.188,0.145,0.468,0.067,0.723
				c-0.219,0.715-0.605,0.706-0.802,0.666c-0.316-0.064-0.634-0.593-0.657-0.914c-0.01-0.138,0.065-0.527,0.025-0.66
				C20.72,6.561,20.379,6.581,20.25,6.67c-0.153,0.105,0.058,0.567,0,0.743c-0.095,0.286-0.418,0.946-0.719,0.969
				c-0.298,0.023-0.721-0.57-0.848-0.84c-0.111-0.235,0.095-0.859-0.097-1.034c-0.066-0.06-0.294-0.064-0.355,0
				c-0.157,0.163,0.059,0.68,0.032,0.905c-0.038,0.317-0.077,1.058-0.347,1.228c-0.196,0.123-0.723-0.028-0.913-0.162
				c-0.252-0.177-0.438-0.784-0.546-1.072c-0.058-0.154-0.051-0.564-0.197-0.641c-0.109-0.057-0.407,0.079-0.452,0.194
				c-0.052,0.131,0.221,0.497,0.262,0.632c0.079,0.259,0.229,0.689,0.158,0.951c-0.072,0.267-0.443,0.825-0.719,0.84
				C15.213,9.4,14.803,8.748,14.64,8.502c-0.156-0.237-0.11-0.915-0.383-0.992c-0.1-0.028-0.298,0.158-0.323,0.258
				c-0.06,0.239,0.328,0.666,0.388,0.905c0.067,0.267,0.283,0.895,0.097,1.099c-0.153,0.167-0.703,0.102-0.905,0
				c-0.315-0.158-0.489-1.155-0.84-1.131c-0.101,0.007-0.197,0.254-0.194,0.355c0.011,0.316,0.539,0.783,0.678,1.066
				c0.125,0.254,0.526,0.819,0.388,1.066c-0.117,0.209-0.704,0.248-0.937,0.194c-0.309-0.071-0.689-0.722-1.002-0.775
				c-0.076-0.013-0.268,0.024-0.291,0.097c-0.087,0.281,0.549,0.692,0.711,0.937c0.144,0.217,0.542,0.645,0.517,0.905
				c-0.014,0.148-0.244,0.414-0.388,0.452c-0.299,0.079-0.899-0.259-1.163-0.42c-0.132-0.08-0.301-0.452-0.452-0.42
				c-0.12,0.025-0.239,0.338-0.194,0.452c0.058,0.148,0.466,0.257,0.594,0.351c0.237,0.175,0.681,0.512,0.763,0.795
				c0.061,0.209,0.045,0.731-0.129,0.862c-0.208,0.157-0.782-0.068-1.034-0.134c-0.21-0.055-0.628-0.445-0.808-0.323
				c-0.095,0.064-0.063,0.362,0,0.457c0.136,0.205,0.682,0.28,0.905,0.383c0.213,0.098,0.733,0.211,0.84,0.42
				c0.089,0.175,0.021,0.65-0.129,0.777c-0.086,0.073-0.34,0.013-0.452,0c-0.253-0.03-0.789-0.393-0.993-0.238
				C9.806,15.974,9.833,16.281,9.887,16.392z"/>
		</g>
	</g>
	<g>
		
			<image overflow="visible" opacity="0.3" width="59" height="49" xlink:href="656331DF080E57DD.png"  transform="matrix(0.48 0 0 0.48 37.2197 0)">
		</image>
		<g>
			
				<linearGradient id="SVGID_5_" gradientUnits="userSpaceOnUse" x1="-12541.498" y1="11.6174" x2="-12525.374" y2="11.6174" gradientTransform="matrix(-1 0 0 1 -12482.1543 0)">
				<stop  offset="0" style="stop-color:#001E1E"/>
				<stop  offset="0.0297" style="stop-color:#001F1F"/>
				<stop  offset="0.3777" style="stop-color:#002B2E"/>
				<stop  offset="0.708" style="stop-color:#003237"/>
				<stop  offset="1" style="stop-color:#00343A"/>
			</linearGradient>
			<path fill="url(#SVGID_5_)" d="M59.131,15.93c-0.123,0.254-0.662,0.536-0.912,0.666c-0.434,0.226-1.371,0.71-1.854,0.629
				c-0.372-0.063-0.532-2.371-1.887-5.131c-1.382-2.814-5.01-2.845-5.793-2.814c-1.262,0.051-4.866,1.357-4.866,1.357
				s-0.649-0.744-0.596-2.086c0.038-0.965,0.153-1.249,0.429-1.537c0.229-0.24,0.998-0.62,1.259-0.416
				c0.261,0.204-0.282,1.043-0.101,1.321c0.159,0.244,0.843,0.527,1.099,0.388c0.249-0.135,0.504-0.692,0.524-1.158
				c0.014-0.328-0.228-0.593-0.072-0.716c0.103-0.081,0.432-0.093,0.525,0c0.188,0.188-0.145,0.468-0.067,0.723
				c0.219,0.715,0.605,0.706,0.802,0.666c0.316-0.064,0.634-0.593,0.657-0.914c0.01-0.138-0.065-0.527-0.025-0.66
				c0.045-0.149,0.385-0.129,0.514-0.041c0.153,0.105-0.058,0.567,0,0.743c0.095,0.286,0.418,0.946,0.719,0.969
				c0.298,0.023,0.721-0.57,0.848-0.84c0.111-0.235-0.095-0.859,0.097-1.034c0.066-0.06,0.294-0.064,0.355,0
				c0.157,0.163-0.059,0.68-0.032,0.905c0.038,0.317,0.077,1.058,0.347,1.228c0.196,0.123,0.723-0.028,0.913-0.162
				c0.252-0.177,0.438-0.784,0.546-1.072c0.058-0.154,0.051-0.564,0.197-0.641c0.109-0.057,0.407,0.079,0.452,0.194
				c0.052,0.131-0.221,0.497-0.262,0.632C52.869,7.39,52.719,7.82,52.79,8.082c0.072,0.267,0.443,0.825,0.719,0.84
				c0.295,0.016,0.705-0.635,0.868-0.882c0.156-0.237,0.11-0.915,0.383-0.992c0.1-0.028,0.298,0.158,0.323,0.258
				c0.06,0.239-0.328,0.666-0.388,0.905c-0.067,0.267-0.283,0.895-0.097,1.099c0.153,0.167,0.703,0.102,0.905,0
				c0.315-0.158,0.489-1.155,0.84-1.131c0.101,0.007,0.197,0.254,0.194,0.355C56.527,8.85,55.999,9.317,55.859,9.6
				c-0.125,0.254-0.526,0.819-0.388,1.066c0.117,0.209,0.704,0.248,0.937,0.194c0.309-0.071,0.689-0.722,1.002-0.775
				c0.076-0.013,0.268,0.024,0.291,0.097c0.087,0.281-0.549,0.692-0.711,0.937c-0.144,0.217-0.542,0.645-0.517,0.905
				c0.014,0.148,0.244,0.414,0.388,0.452c0.299,0.079,0.899-0.259,1.163-0.42c0.132-0.08,0.301-0.452,0.452-0.42
				c0.12,0.025,0.239,0.338,0.194,0.452c-0.058,0.148-0.466,0.257-0.594,0.351c-0.237,0.175-0.681,0.512-0.763,0.795
				c-0.061,0.209-0.045,0.731,0.129,0.862c0.208,0.157,0.782-0.068,1.034-0.134c0.21-0.055,0.628-0.445,0.808-0.323
				c0.095,0.064,0.063,0.362,0,0.457c-0.136,0.205-0.682,0.28-0.905,0.383c-0.213,0.098-0.733,0.211-0.84,0.42
				c-0.089,0.175-0.021,0.65,0.129,0.777c0.086,0.073,0.34,0.013,0.452,0c0.253-0.03,0.789-0.393,0.993-0.238
				C59.212,15.512,59.185,15.82,59.131,15.93z"/>
		</g>
	</g>
	<g>
		
			<image overflow="visible" opacity="0.5" width="58" height="57" xlink:href="656331DF080E57DF.png"  transform="matrix(0.48 0 0 0.48 0 20.6857)">
		</image>
		<g>
			<linearGradient id="SVGID_6_" gradientUnits="userSpaceOnUse" x1="3" y1="34.3085" x2="24.6249" y2="34.3085">
				<stop  offset="0" style="stop-color:#F3E23C"/>
				<stop  offset="0.2508" style="stop-color:#EACD30"/>
				<stop  offset="0.5194" style="stop-color:#E6C026"/>
				<stop  offset="0.7745" style="stop-color:#E4B823"/>
				<stop  offset="1" style="stop-color:#E4B623"/>
			</linearGradient>
			<path fill="url(#SVGID_6_)" d="M11.118,41.168c-0.051,0.553-0.402,0.919-0.744,1.317c-0.249,0.29-0.362,0.698-0.524,1.059
				c-0.068,0.15-0.108,0.313-0.188,0.459c0.092-0.642,0.257-1.25,0.615-1.81c0.189-0.296,0.285-0.656,0.39-0.998
				c0.114-0.37-0.088-0.547-0.469-0.618c-0.044,0.14-0.062,0.287-0.133,0.401c-0.173,0.278-0.323,0.602-0.57,0.794
				c-0.371,0.289-0.601,0.618-0.701,1.071c-0.06,0.275-0.183,0.536-0.355,0.772c0.096-0.434,0.167-0.876,0.298-1.3
				c0.057-0.183,0.206-0.37,0.364-0.484c0.436-0.311,0.634-0.747,0.704-1.245c0.017-0.121-0.125-0.264-0.193-0.397
				c-0.079,0.081-0.162,0.158-0.235,0.244c-0.256,0.301-0.465,0.661-0.771,0.896c-0.482,0.37-1.032,0.648-1.21,1.299
				c-0.026,0.094-0.141,0.164-0.288,0.325c0.233-0.73,0.513-1.277,1.048-1.706c0.342-0.274,0.585-0.676,0.852-1.035
				c0.139-0.188,0.069-0.353-0.123-0.492c-0.228-0.165-0.283,0.047-0.398,0.148c-0.174,0.152-0.336,0.333-0.537,0.438
				c-0.559,0.293-1.059,0.64-1.4,1.188c-0.085,0.136-0.221,0.239-0.353,0.341c0.245-0.555,0.531-1.066,1.044-1.437
				c0.362-0.262,0.681-0.589,1-0.906c0.214-0.212,0.092-0.421-0.11-0.542c-0.066-0.039-0.24,0.073-0.35,0.141
				c-0.393,0.243-0.753,0.564-1.176,0.727c-0.384,0.148-0.686,0.331-0.912,0.666c-0.133,0.198-0.291,0.38-0.437,0.569
				c-0.045-0.045-0.09-0.089-0.135-0.134c0.356-0.554,0.704-1.1,1.34-1.42c0.374-0.189,0.705-0.469,1.041-0.726
				c0.25-0.192,0.252-0.402,0.057-0.532c-0.631,0.26-1.226,0.456-1.774,0.743c-0.551,0.289-1.056,0.667-1.61,0.962
				c0.585-0.5,1.045-1.146,1.851-1.372c0.34-0.096,0.628-0.384,0.932-0.594c0.221-0.152,0.215-0.33,0.078-0.462
				c-0.646,0.164-1.271,0.266-1.85,0.487c-0.563,0.215-1.078,0.554-1.637,0.798c0.673-0.467,1.229-1.115,2.103-1.261
				c0.284-0.047,0.563-0.188,0.816-0.335c0.369-0.213,0.384-0.36,0.111-0.824c-0.539,0.642-1.303,0.492-2.004,0.612
				c-0.387,0.066-0.751,0.266-1.127,0.401c-0.143,0.051-0.291,0.089-0.443,0.11c0.677-0.539,1.424-0.874,2.294-0.978
				c0.394-0.047,0.771-0.266,1.145-0.433c0.07-0.031,0.141-0.203,0.115-0.271c-0.029-0.074-0.173-0.143-0.266-0.141
				c-0.151,0.002-0.3,0.078-0.452,0.097c-0.419,0.053-0.84,0.108-1.261,0.132c-0.39,0.022-0.782,0.005-1.108,0.005
				c0.241-0.195,0.614-0.288,1.029-0.336c0.573-0.067,1.138-0.203,1.706-0.312c0.226-0.043,0.291-0.19,0.242-0.402
				c-0.066-0.284-0.25-0.117-0.399-0.11c-0.321,0.013-0.642,0.015-0.963,0.016c-0.653,0.002-1.306,0.001-1.853,0.001
				c0.437-0.34,1.095-0.231,1.718-0.298c0.368-0.04,0.742-0.076,1.096-0.174c0.305-0.084,0.415-0.323,0.255-0.687
				c-0.686,0.306-1.256-0.116-1.877-0.291c-0.304-0.085-0.634-0.083-0.953-0.11C3.319,33.197,3.159,33.208,3,33.163
				c0.607-0.232,1.203-0.25,1.835-0.059c0.378,0.114,0.805,0.087,1.21,0.087c0.227,0,0.273-0.182,0.262-0.391
				c-0.012-0.233-0.166-0.186-0.317-0.227c-0.393-0.106-0.781-0.242-1.159-0.395c-0.507-0.205-1.003-0.436-1.391-0.607
				c0.526-0.065,1.148,0.117,1.762,0.37c0.236,0.097,0.492,0.166,0.745,0.193c0.435,0.046,0.519-0.042,0.59-0.468
				c-0.852-0.453-1.693-0.901-2.535-1.349c-0.006-0.016-0.012-0.031-0.017-0.047c0.293,0.063,0.598,0.093,0.877,0.197
				c0.422,0.157,0.822,0.374,1.24,0.546c0.165,0.068,0.354,0.124,0.526,0.111c0.122-0.009,0.235-0.144,0.351-0.223
				c-0.075-0.094-0.131-0.235-0.228-0.273c-0.432-0.171-0.801-0.397-1.053-0.811c-0.213-0.35-0.544-0.538-0.97-0.551
				c-0.143-0.004-0.284-0.062-0.508-0.115c0.833-0.133,1.409,0.128,1.92,0.67c0.223,0.237,0.595,0.338,0.905,0.489
				c0.284,0.137,0.471-0.038,0.536-0.269c0.028-0.1-0.134-0.28-0.244-0.388c-0.301-0.295-0.61-0.583-0.935-0.851
				c-0.341-0.282-0.704-0.538-1.008-0.767c0.579,0.001,1.052,0.353,1.494,0.795c0.205,0.205,0.458,0.369,0.707,0.523
				c0.341,0.211,0.581,0.087,0.713-0.249C7.754,28.449,7.213,27.808,6.7,27.2c0.311-0.033,0.645,0.145,0.911,0.477
				c0.249,0.31,0.526,0.599,0.803,0.885c0.163,0.168,0.374,0.163,0.501-0.021c0.054-0.078-0.008-0.266-0.062-0.384
				c-0.122-0.27-0.26-0.534-0.414-0.787c-0.265-0.437-0.548-0.863-0.853-1.341c0.267,0.233,0.54,0.421,0.75,0.665
				c0.311,0.362,0.558,0.778,0.866,1.143c0.297,0.352,0.385,0.335,0.775-0.041c-0.07-0.094-0.158-0.186-0.215-0.294
				c-0.166-0.316-0.329-0.634-0.477-0.959c-0.112-0.245-0.17-0.518-0.304-0.748c-0.127-0.218-0.322-0.396-0.505-0.613
				c0.5,0.09,0.923,0.591,1.075,1.146c0.09,0.33,0.226,0.664,0.417,0.945c0.274,0.402,0.399,0.394,0.832,0.116
				c-0.359-1.002-0.718-2.005-1.06-2.961c0.282,0.572,0.901,1.004,1.003,1.762c0.035,0.256,0.206,0.499,0.336,0.736
				c0.218,0.399,0.304,0.413,0.776,0.13c-0.46-0.444-0.308-1.017-0.349-1.562c-0.02-0.274-0.145-0.542-0.237-0.807
				c-0.069-0.199-0.163-0.389-0.206-0.598c0.361,0.52,0.695,1.04,0.75,1.703c0.029,0.35,0.167,0.698,0.301,1.029
				c0.093,0.23,0.298,0.311,0.612,0.142c-0.373-0.642-0.08-1.313-0.077-1.985c0.002-0.357-0.151-0.715-0.211-1.077
				c0.308,0.488,0.632,0.953,0.388,1.6c-0.158,0.419-0.016,0.848,0.218,1.221c0.05,0.08,0.207,0.092,0.314,0.136
				c0.034-0.086,0.108-0.179,0.096-0.258c-0.077-0.497,0.071-0.935,0.261-1.387c0.101-0.24,0.073-0.546,0.06-0.819
				c-0.01-0.211-0.09-0.418-0.096-0.634c0.369,0.512,0.402,1.066,0.266,1.667c-0.079,0.347-0.079,0.714-0.089,1.072
				c-0.008,0.282,0.154,0.391,0.374,0.341c0.188-0.55,0.405-1.058,0.53-1.588c0.121-0.512,0.149-1.046,0.258-1.566
				c0.008,0.7,0.157,1.398-0.108,2.093c-0.116,0.305-0.116,0.658-0.137,0.992c-0.005,0.077,0.119,0.162,0.183,0.244
				c0.064-0.059,0.188-0.124,0.183-0.177c-0.06-0.622,0.311-1.073,0.579-1.572c0.168-0.313,0.282-0.655,0.424-0.994
				c0.085,0.362-0.045,0.687-0.178,1.029c-0.181,0.464-0.318,0.948-0.443,1.431c-0.025,0.096,0.091,0.229,0.142,0.344
				c0.068-0.091,0.148-0.176,0.2-0.275c0.19-0.358,0.365-0.724,0.556-1.082c0.233-0.436,0.476-0.867,0.734-1.334
				c-0.035,0.208-0.037,0.417-0.109,0.598c-0.142,0.36-0.339,0.698-0.48,1.058c-0.121,0.309-0.216,0.631-0.287,0.955
				c-0.066,0.298,0.086,0.458,0.433,0.47c0.015-0.116,0.007-0.235,0.048-0.334c0.129-0.314,0.257-0.632,0.421-0.929
				c0.229-0.414,0.493-0.809,0.736-1.216c0.097-0.163,0.174-0.337,0.26-0.505c0.04,0.017,0.08,0.035,0.12,0.052
				c-0.188,0.444-0.376,0.887-0.564,1.331c-0.219,0.519-0.442,1.037-0.655,1.559c-0.089,0.219,0.022,0.376,0.229,0.393
				c0.103,0.009,0.241-0.108,0.325-0.202c0.236-0.265,0.407-0.612,0.687-0.809c0.513-0.361,0.893-0.803,1.139-1.376
				c-0.064,0.613-0.378,1.073-0.812,1.479c-0.241,0.226-0.459,0.483-0.652,0.751c-0.204,0.284-0.146,0.509,0.224,0.578
				c0.725-0.648,1.446-1.293,2.112-1.888c-0.024,0.339-0.354,0.775-0.951,1.24c-0.24,0.187-0.455,0.42-0.631,0.667
				c-0.068,0.095,0.001,0.289,0.007,0.437c0.122-0.055,0.256-0.092,0.364-0.167c0.334-0.233,0.651-0.49,0.986-0.72
				c0.397-0.273,0.806-0.53,1.21-0.793c-0.215,0.478-0.642,0.758-1.084,1.044c-0.319,0.207-0.596,0.48-0.88,0.738
				c-0.162,0.147-0.146,0.305,0.017,0.465c0.176,0.173,0.28,0.073,0.418-0.053c0.131-0.12,0.29-0.213,0.447-0.3
				c0.602-0.335,1.209-0.663,1.868-1.023c-0.247,0.235-0.455,0.466-0.696,0.656c-0.445,0.35-0.912,0.671-1.362,1.014
				c-0.277,0.211-0.234,0.427-0.054,0.57c0.649-0.248,1.259-0.445,1.835-0.714c0.339-0.159,0.625-0.432,0.958-0.638
				c-0.191,0.344-0.426,0.655-0.8,0.843c-0.473,0.238-0.951,0.467-1.421,0.712c-0.27,0.141-0.334,0.343-0.082,0.633
				c0.123-0.067,0.247-0.155,0.384-0.206c0.3-0.112,0.602-0.274,0.91-0.291c0.618-0.035,1.176-0.161,1.621-0.619
				c0.035-0.036,0.085-0.059,0.132-0.081c0.034-0.016,0.072-0.022,0.128,0.001c-0.421,0.528-0.967,0.836-1.636,0.986
				c-0.392,0.088-0.777,0.247-1.137,0.43c-0.26,0.132-0.239,0.173-0.074,0.562c0.59-0.528,1.32-0.391,2.015-0.469
				c0.347-0.039,0.678-0.218,1.027-0.307c-0.379,0.369-0.864,0.484-1.363,0.586c-0.427,0.088-0.85,0.207-1.262,0.348
				c-0.11,0.038-0.175,0.206-0.261,0.314c0.126,0.01,0.253,0.038,0.377,0.025c0.192-0.02,0.383-0.109,0.57-0.097
				c0.79,0.052,1.575,0.097,2.397-0.321c-0.363,0.426-1.02,0.679-1.59,0.614c-0.514-0.058-0.978,0.06-1.417,0.298
				c-0.093,0.05-0.125,0.211-0.185,0.321c0.107,0.033,0.212,0.09,0.321,0.096c0.42,0.023,0.841,0.042,1.262,0.039
				c0.392-0.003,0.786-0.022,1.176-0.062c0.219-0.022,0.433-0.101,0.656-0.118c-0.615,0.452-1.305,0.55-2.037,0.509
				c-0.265-0.015-0.542,0.029-0.802,0.094c-0.478,0.119-0.55,0.263-0.46,0.836c0.689-0.192,1.302,0.072,1.935,0.305
				c0.247,0.091,0.558,0.019,0.839,0.008c0.207-0.008,0.413-0.037,0.623-0.003c-0.647,0.293-1.311,0.318-1.992,0.162
				c-0.251-0.058-0.508-0.117-0.763-0.121c-0.604-0.009-0.707,0.123-0.654,0.705c0.419,0.128,0.822,0.251,1.226,0.373
				c0.405,0.123,0.811,0.246,1.226,0.446c-0.335-0.017-0.673-0.007-1.003-0.057c-0.391-0.06-0.771-0.185-1.16-0.256
				c-0.356-0.065-0.534,0.11-0.532,0.522c0.128,0.016,0.265,0.018,0.394,0.052c0.197,0.051,0.425,0.078,0.575,0.196
				c0.653,0.515,1.326,0.954,2.226,0.927c-0.068,0.026-0.135,0.072-0.205,0.076c-0.678,0.037-1.29-0.143-1.877-0.494
				c-0.307-0.183-0.683-0.26-1.038-0.346c-0.222-0.054-0.372,0.066-0.368,0.361c0.181,0.057,0.385,0.094,0.563,0.184
				c0.205,0.103,0.434,0.215,0.572,0.387c0.439,0.546,0.953,0.974,1.619,1.216c-0.612-0.006-1.093-0.292-1.483-0.726
				c-0.356-0.397-0.788-0.578-1.305-0.558c-0.114,0.004-0.223,0.114-0.335,0.175c0.074,0.086,0.139,0.184,0.225,0.256
				c0.167,0.141,0.374,0.243,0.516,0.404c0.479,0.545,0.955,1.085,1.67,1.345c-0.588-0.032-1.054-0.283-1.472-0.683
				c-0.293-0.281-0.638-0.513-0.984-0.729c-0.086-0.054-0.262,0.035-0.396,0.058c0.049,0.116,0.078,0.248,0.152,0.345
				c0.297,0.388,0.652,0.739,0.9,1.154c0.225,0.378,0.507,0.638,0.894,0.817c0.16,0.074,0.305,0.181,0.434,0.308
				c-0.702-0.268-1.37-0.574-1.791-1.262c-0.157-0.257-0.401-0.464-0.619-0.681c-0.238-0.237-0.447-0.208-0.631,0.151
				c0.717,0.328,0.849,1.069,1.178,1.683c0.124,0.231,0.314,0.425,0.474,0.636c-0.03,0.024-0.06,0.048-0.089,0.071
				c-0.207-0.264-0.437-0.515-0.616-0.797c-0.296-0.466-0.494-1.013-1.05-1.253c-0.131-0.057-0.294-0.04-0.485,0.017
				c0.646,0.583,0.806,1.377,1.144,2.079c0.134,0.278,0.415,0.485,0.64,0.738c-0.524-0.216-0.827-0.624-1.154-1.269
				c-0.203-0.402-0.541-0.739-0.84-1.086c-0.054-0.062-0.215-0.031-0.327-0.043c0.015,0.102,0.01,0.212,0.049,0.304
				c0.22,0.519,0.442,1.037,0.681,1.547c0.156,0.331,0.343,0.646,0.533,0.998c-0.514-0.303-0.651-0.818-0.873-1.289
				c-0.172-0.366-0.387-0.722-0.643-1.034c-0.203-0.248-0.293-0.211-0.595,0.065c0.453,0.433,0.511,1.034,0.685,1.596
				c0.107,0.348,0.343,0.656,0.528,0.979c0.075,0.131,0.169,0.251,0.221,0.398c-0.541-0.378-0.818-0.929-1.045-1.53
				c-0.144-0.38-0.364-0.735-0.574-1.086c-0.145-0.242-0.357-0.269-0.633-0.044c0.428,0.494,0.399,1.107,0.472,1.707
				c0.038,0.313,0.252,0.606,0.396,0.904c0.065,0.135,0.154,0.258,0.203,0.403c-0.453-0.425-0.831-0.874-0.869-1.551
				c-0.02-0.348-0.14-0.71-0.297-1.025c-0.223-0.447-0.329-0.445-0.813-0.132c0.498,0.737,0.41,1.555,0.209,2.389
				c-0.033-0.283-0.105-0.567-0.091-0.847c0.023-0.487-0.101-0.907-0.364-1.318c-0.157-0.247-0.298-0.227-0.536-0.117
				c0.032,0.115,0.082,0.221,0.089,0.33c0.022,0.37,0.108,0.761,0.022,1.107c-0.132,0.533-0.2,1.035,0.012,1.554
				c0.032,0.079,0.03,0.172,0.048,0.288c-0.364-0.379-0.496-1.064-0.321-1.786c0.105-0.437,0.091-0.827-0.145-1.227
				c-0.186-0.316-0.418-0.424-0.792-0.345c0.009,0.086,0.023,0.169,0.024,0.252c0.005,0.408,0.075,0.83-0.006,1.22
				c-0.137,0.656-0.388,1.29-0.197,1.982c-0.247-0.507-0.324-1.017-0.212-1.578c0.09-0.449,0.127-0.922,0.099-1.379
				c-0.034-0.55-0.086-0.557-0.714-0.491c0.166,0.758-0.271,1.381-0.469,2.068c-0.105,0.362-0.113,0.753-0.238,1.133
				c0-0.386-0.04-0.778,0.012-1.158c0.045-0.328,0.225-0.635,0.292-0.962c0.064-0.31,0.071-0.634,0.075-0.952
				c0.001-0.064-0.116-0.162-0.194-0.183c-0.051-0.014-0.16,0.067-0.195,0.132c-0.232,0.427-0.487,0.848-0.664,1.299
				c-0.134,0.34-0.165,0.72-0.237,1.083c-0.026,0.134-0.037,0.271-0.08,0.403c-0.148-0.782-0.065-1.521,0.364-2.209
				c0.1-0.161,0.148-0.356,0.212-0.539C11.635,41.261,11.472,41.157,11.118,41.168z"/>
		</g>
	</g>
	<g>
		
			<image overflow="visible" opacity="0.5" width="58" height="57" xlink:href="656331DF080E57D0.png"  transform="matrix(0.48 0 0 0.48 41.3742 19.9934)">
		</image>
		<g>
			<linearGradient id="SVGID_7_" gradientUnits="userSpaceOnUse" x1="44.3742" y1="33.6163" x2="65.9991" y2="33.6163">
				<stop  offset="0" style="stop-color:#F3E23C"/>
				<stop  offset="0.2508" style="stop-color:#EACD30"/>
				<stop  offset="0.5194" style="stop-color:#E6C026"/>
				<stop  offset="0.7745" style="stop-color:#E4B823"/>
				<stop  offset="1" style="stop-color:#E4B623"/>
			</linearGradient>
			<path fill="url(#SVGID_7_)" d="M52.492,40.476c-0.051,0.553-0.402,0.919-0.744,1.317c-0.249,0.29-0.362,0.698-0.524,1.059
				c-0.068,0.15-0.108,0.313-0.188,0.459c0.092-0.642,0.257-1.25,0.615-1.81c0.189-0.296,0.285-0.656,0.39-0.998
				c0.114-0.37-0.088-0.547-0.469-0.618c-0.044,0.14-0.062,0.287-0.133,0.401c-0.173,0.278-0.323,0.602-0.57,0.794
				c-0.371,0.289-0.601,0.618-0.701,1.071c-0.06,0.275-0.183,0.536-0.355,0.772c0.096-0.434,0.167-0.876,0.298-1.3
				c0.057-0.183,0.206-0.37,0.364-0.484c0.436-0.311,0.634-0.747,0.704-1.245c0.017-0.121-0.125-0.264-0.193-0.397
				c-0.079,0.081-0.162,0.158-0.235,0.244c-0.256,0.301-0.465,0.661-0.771,0.896c-0.482,0.37-1.032,0.648-1.21,1.299
				c-0.026,0.094-0.141,0.164-0.288,0.325c0.233-0.73,0.513-1.277,1.048-1.706c0.342-0.274,0.585-0.676,0.852-1.035
				c0.139-0.188,0.069-0.353-0.123-0.492c-0.228-0.165-0.283,0.047-0.398,0.148c-0.174,0.152-0.336,0.333-0.537,0.438
				c-0.559,0.293-1.059,0.64-1.4,1.188c-0.084,0.136-0.221,0.239-0.353,0.341c0.245-0.555,0.531-1.066,1.044-1.437
				c0.362-0.262,0.681-0.589,1-0.906c0.214-0.212,0.092-0.421-0.11-0.542c-0.066-0.039-0.24,0.073-0.35,0.141
				c-0.393,0.243-0.753,0.564-1.176,0.727c-0.384,0.148-0.686,0.331-0.912,0.666c-0.133,0.198-0.291,0.38-0.437,0.569
				c-0.045-0.045-0.09-0.089-0.135-0.134c0.356-0.554,0.704-1.1,1.34-1.42c0.374-0.189,0.705-0.469,1.041-0.726
				c0.25-0.192,0.251-0.402,0.057-0.532c-0.631,0.26-1.226,0.456-1.774,0.743c-0.551,0.289-1.056,0.667-1.61,0.962
				c0.585-0.5,1.045-1.146,1.851-1.372c0.34-0.096,0.628-0.384,0.932-0.594c0.221-0.152,0.215-0.33,0.078-0.462
				c-0.646,0.164-1.271,0.266-1.85,0.487c-0.563,0.215-1.078,0.554-1.637,0.798c0.673-0.467,1.229-1.115,2.103-1.261
				c0.284-0.047,0.563-0.188,0.816-0.335c0.369-0.213,0.384-0.36,0.111-0.824c-0.539,0.642-1.303,0.492-2.004,0.612
				c-0.387,0.066-0.751,0.266-1.127,0.401c-0.143,0.051-0.291,0.089-0.443,0.11c0.677-0.539,1.424-0.874,2.294-0.978
				c0.394-0.047,0.771-0.266,1.145-0.433c0.07-0.031,0.141-0.203,0.115-0.271c-0.029-0.074-0.173-0.143-0.266-0.141
				c-0.151,0.002-0.3,0.078-0.452,0.097c-0.419,0.053-0.84,0.108-1.261,0.132c-0.39,0.022-0.782,0.005-1.108,0.005
				c0.241-0.195,0.614-0.288,1.029-0.336c0.573-0.067,1.138-0.203,1.706-0.312c0.226-0.043,0.291-0.19,0.242-0.402
				c-0.066-0.284-0.25-0.117-0.399-0.11c-0.321,0.013-0.642,0.015-0.963,0.016c-0.653,0.002-1.306,0.001-1.853,0.001
				c0.437-0.34,1.095-0.231,1.718-0.298c0.368-0.04,0.742-0.076,1.096-0.174c0.305-0.084,0.415-0.323,0.255-0.687
				c-0.686,0.306-1.256-0.116-1.877-0.291c-0.304-0.085-0.634-0.083-0.953-0.11c-0.158-0.013-0.318-0.002-0.476-0.047
				c0.607-0.232,1.203-0.25,1.835-0.059c0.378,0.114,0.805,0.087,1.21,0.087c0.227,0,0.273-0.182,0.262-0.391
				c-0.012-0.233-0.166-0.186-0.317-0.227c-0.393-0.106-0.781-0.242-1.159-0.395c-0.507-0.205-1.003-0.436-1.391-0.607
				c0.526-0.065,1.148,0.117,1.762,0.37c0.236,0.097,0.492,0.166,0.745,0.193c0.435,0.046,0.519-0.042,0.59-0.468
				c-0.852-0.453-1.693-0.901-2.535-1.349c-0.006-0.016-0.012-0.031-0.017-0.047c0.293,0.063,0.598,0.093,0.877,0.197
				c0.422,0.157,0.822,0.374,1.24,0.546c0.165,0.068,0.354,0.124,0.526,0.111c0.122-0.009,0.235-0.144,0.351-0.223
				c-0.075-0.094-0.131-0.235-0.228-0.273c-0.432-0.171-0.801-0.397-1.053-0.811c-0.213-0.35-0.544-0.538-0.97-0.551
				c-0.143-0.004-0.284-0.062-0.508-0.115c0.833-0.133,1.409,0.128,1.92,0.67c0.223,0.237,0.595,0.338,0.905,0.489
				c0.284,0.137,0.471-0.038,0.536-0.269c0.028-0.1-0.134-0.28-0.244-0.388c-0.301-0.295-0.61-0.583-0.935-0.851
				c-0.341-0.282-0.704-0.538-1.008-0.767c0.579,0.001,1.052,0.353,1.494,0.795c0.205,0.205,0.458,0.369,0.707,0.523
				c0.341,0.211,0.581,0.087,0.713-0.249c-0.553-0.655-1.095-1.297-1.608-1.905c0.311-0.033,0.645,0.145,0.911,0.477
				c0.249,0.31,0.526,0.599,0.803,0.885c0.163,0.168,0.374,0.163,0.501-0.021c0.054-0.078-0.008-0.266-0.062-0.384
				c-0.122-0.27-0.26-0.534-0.414-0.787c-0.265-0.437-0.548-0.863-0.853-1.341c0.267,0.233,0.54,0.421,0.75,0.665
				c0.311,0.362,0.558,0.778,0.866,1.143c0.297,0.352,0.385,0.335,0.775-0.041c-0.07-0.094-0.158-0.186-0.215-0.294
				c-0.166-0.316-0.329-0.634-0.477-0.959c-0.112-0.245-0.17-0.518-0.304-0.748c-0.127-0.218-0.322-0.396-0.505-0.613
				c0.5,0.09,0.923,0.591,1.075,1.146c0.09,0.33,0.226,0.664,0.417,0.945c0.274,0.402,0.399,0.394,0.832,0.116
				c-0.359-1.002-0.718-2.005-1.06-2.961c0.282,0.572,0.901,1.004,1.003,1.762c0.035,0.256,0.206,0.499,0.336,0.736
				c0.218,0.399,0.304,0.413,0.776,0.13c-0.46-0.444-0.308-1.017-0.349-1.562c-0.02-0.274-0.145-0.542-0.237-0.807
				c-0.069-0.199-0.163-0.389-0.206-0.598c0.361,0.52,0.695,1.04,0.75,1.703c0.029,0.35,0.167,0.698,0.301,1.029
				c0.093,0.23,0.298,0.311,0.612,0.142c-0.373-0.642-0.08-1.313-0.077-1.985c0.002-0.357-0.151-0.715-0.211-1.077
				c0.308,0.488,0.632,0.953,0.388,1.6c-0.158,0.419-0.016,0.848,0.218,1.221c0.05,0.08,0.207,0.092,0.314,0.136
				c0.034-0.086,0.108-0.179,0.096-0.258c-0.077-0.497,0.071-0.935,0.261-1.387c0.101-0.24,0.073-0.546,0.06-0.819
				c-0.01-0.211-0.09-0.418-0.096-0.634c0.369,0.512,0.402,1.066,0.266,1.667c-0.079,0.347-0.079,0.714-0.089,1.072
				c-0.008,0.282,0.154,0.391,0.374,0.341c0.188-0.55,0.405-1.058,0.53-1.588c0.121-0.512,0.149-1.046,0.258-1.566
				c0.008,0.7,0.157,1.398-0.108,2.093c-0.116,0.305-0.116,0.658-0.137,0.992c-0.005,0.077,0.119,0.162,0.183,0.244
				c0.064-0.059,0.188-0.124,0.183-0.177c-0.06-0.622,0.311-1.073,0.579-1.572c0.168-0.313,0.282-0.655,0.424-0.994
				c0.085,0.362-0.045,0.687-0.178,1.029c-0.181,0.464-0.318,0.948-0.443,1.431c-0.025,0.096,0.091,0.229,0.142,0.344
				c0.068-0.091,0.148-0.176,0.2-0.275c0.19-0.358,0.365-0.724,0.556-1.082c0.233-0.436,0.476-0.867,0.734-1.334
				c-0.035,0.208-0.037,0.417-0.109,0.598c-0.142,0.36-0.339,0.698-0.48,1.058c-0.121,0.309-0.216,0.631-0.287,0.955
				c-0.066,0.298,0.086,0.458,0.433,0.47c0.015-0.116,0.007-0.235,0.048-0.334c0.129-0.314,0.257-0.632,0.421-0.929
				c0.229-0.414,0.493-0.809,0.736-1.216c0.097-0.163,0.174-0.337,0.26-0.505c0.04,0.017,0.08,0.035,0.12,0.052
				c-0.188,0.444-0.376,0.887-0.564,1.331c-0.219,0.519-0.442,1.037-0.655,1.559c-0.089,0.219,0.022,0.376,0.229,0.393
				c0.103,0.009,0.241-0.108,0.325-0.202c0.236-0.265,0.407-0.612,0.687-0.809c0.513-0.361,0.893-0.803,1.139-1.376
				c-0.064,0.613-0.378,1.073-0.812,1.479c-0.241,0.226-0.459,0.483-0.652,0.751c-0.204,0.284-0.146,0.509,0.224,0.578
				c0.725-0.648,1.446-1.293,2.112-1.888c-0.024,0.339-0.354,0.775-0.951,1.24c-0.24,0.187-0.455,0.42-0.631,0.667
				c-0.068,0.095,0.001,0.289,0.007,0.437c0.122-0.055,0.256-0.092,0.364-0.167c0.334-0.233,0.651-0.49,0.986-0.72
				c0.397-0.273,0.806-0.53,1.21-0.793c-0.215,0.478-0.642,0.758-1.084,1.044c-0.319,0.207-0.596,0.48-0.88,0.738
				c-0.162,0.147-0.146,0.305,0.017,0.465c0.176,0.173,0.28,0.073,0.418-0.053c0.131-0.12,0.29-0.213,0.447-0.3
				c0.602-0.335,1.209-0.663,1.868-1.023c-0.247,0.235-0.455,0.466-0.696,0.656c-0.445,0.35-0.912,0.671-1.362,1.014
				c-0.277,0.211-0.234,0.427-0.054,0.57c0.649-0.248,1.259-0.445,1.835-0.714c0.339-0.159,0.625-0.432,0.958-0.638
				c-0.191,0.344-0.426,0.655-0.8,0.843c-0.473,0.238-0.951,0.467-1.421,0.712c-0.27,0.141-0.334,0.343-0.082,0.633
				c0.123-0.067,0.247-0.155,0.384-0.206c0.3-0.112,0.602-0.274,0.91-0.291c0.618-0.035,1.176-0.161,1.621-0.619
				c0.035-0.036,0.085-0.059,0.132-0.081c0.034-0.016,0.072-0.022,0.128,0.001c-0.421,0.528-0.967,0.836-1.636,0.986
				c-0.392,0.088-0.777,0.247-1.137,0.43c-0.26,0.132-0.239,0.173-0.074,0.562c0.59-0.528,1.32-0.391,2.015-0.469
				c0.347-0.039,0.678-0.218,1.027-0.307c-0.379,0.369-0.864,0.484-1.363,0.586c-0.427,0.088-0.85,0.207-1.262,0.348
				c-0.11,0.038-0.175,0.206-0.261,0.314c0.126,0.01,0.253,0.038,0.377,0.025c0.192-0.02,0.383-0.109,0.57-0.097
				c0.79,0.052,1.575,0.097,2.397-0.321c-0.363,0.426-1.02,0.679-1.59,0.614c-0.514-0.058-0.978,0.06-1.417,0.298
				c-0.093,0.05-0.125,0.211-0.185,0.321c0.107,0.033,0.212,0.09,0.321,0.096c0.42,0.023,0.841,0.042,1.262,0.039
				c0.392-0.003,0.786-0.022,1.176-0.062c0.219-0.022,0.433-0.101,0.656-0.118c-0.615,0.452-1.305,0.55-2.037,0.509
				c-0.265-0.015-0.542,0.029-0.802,0.094c-0.478,0.119-0.55,0.263-0.46,0.836c0.689-0.192,1.302,0.072,1.935,0.305
				c0.247,0.091,0.558,0.019,0.839,0.008c0.207-0.008,0.413-0.037,0.623-0.003c-0.647,0.293-1.311,0.318-1.992,0.162
				c-0.251-0.058-0.508-0.117-0.763-0.121c-0.604-0.009-0.707,0.123-0.654,0.705c0.419,0.128,0.822,0.251,1.226,0.373
				c0.405,0.123,0.811,0.246,1.226,0.446c-0.335-0.017-0.673-0.007-1.003-0.057c-0.391-0.06-0.771-0.185-1.16-0.256
				c-0.356-0.065-0.534,0.11-0.532,0.522c0.128,0.016,0.265,0.018,0.394,0.052c0.197,0.051,0.425,0.078,0.575,0.196
				c0.653,0.515,1.326,0.954,2.226,0.927c-0.068,0.026-0.135,0.072-0.205,0.076c-0.678,0.037-1.29-0.143-1.877-0.494
				c-0.307-0.183-0.683-0.26-1.038-0.346c-0.222-0.054-0.372,0.066-0.368,0.361c0.181,0.057,0.385,0.094,0.563,0.184
				c0.205,0.103,0.434,0.215,0.572,0.387c0.439,0.546,0.953,0.974,1.619,1.216c-0.612-0.006-1.093-0.292-1.483-0.726
				c-0.356-0.397-0.788-0.578-1.305-0.558c-0.114,0.004-0.223,0.114-0.335,0.175c0.074,0.086,0.139,0.184,0.225,0.256
				c0.167,0.141,0.374,0.243,0.516,0.404c0.479,0.545,0.955,1.085,1.67,1.345c-0.588-0.032-1.054-0.283-1.472-0.683
				c-0.293-0.281-0.638-0.513-0.984-0.729c-0.086-0.054-0.262,0.035-0.396,0.058c0.049,0.116,0.078,0.248,0.152,0.345
				c0.297,0.388,0.652,0.739,0.9,1.154c0.225,0.378,0.507,0.638,0.894,0.817c0.16,0.074,0.305,0.181,0.434,0.308
				c-0.702-0.268-1.37-0.574-1.791-1.262c-0.157-0.257-0.401-0.464-0.619-0.681c-0.238-0.237-0.447-0.208-0.631,0.151
				c0.717,0.328,0.849,1.069,1.178,1.683c0.124,0.231,0.314,0.425,0.474,0.636c-0.03,0.024-0.06,0.048-0.089,0.071
				c-0.207-0.264-0.437-0.515-0.616-0.797c-0.296-0.466-0.494-1.013-1.05-1.253c-0.131-0.057-0.294-0.04-0.485,0.017
				c0.646,0.583,0.806,1.377,1.144,2.079c0.134,0.278,0.415,0.485,0.64,0.738c-0.524-0.216-0.827-0.624-1.154-1.269
				c-0.203-0.402-0.541-0.739-0.84-1.086c-0.054-0.062-0.215-0.031-0.327-0.043c0.015,0.102,0.01,0.212,0.049,0.304
				c0.22,0.519,0.442,1.037,0.681,1.547c0.156,0.331,0.343,0.646,0.533,0.998c-0.514-0.303-0.651-0.818-0.873-1.289
				c-0.172-0.366-0.387-0.722-0.643-1.034c-0.203-0.248-0.293-0.211-0.595,0.065c0.453,0.433,0.511,1.034,0.685,1.596
				c0.107,0.348,0.343,0.656,0.528,0.979c0.075,0.131,0.169,0.251,0.221,0.398c-0.541-0.378-0.818-0.929-1.045-1.53
				c-0.144-0.38-0.364-0.735-0.574-1.086c-0.145-0.242-0.357-0.269-0.633-0.044c0.428,0.494,0.399,1.107,0.472,1.707
				c0.038,0.313,0.252,0.606,0.396,0.904c0.065,0.135,0.154,0.258,0.203,0.403c-0.453-0.425-0.831-0.874-0.869-1.551
				c-0.02-0.348-0.14-0.71-0.297-1.025c-0.223-0.447-0.329-0.445-0.813-0.132c0.498,0.737,0.41,1.555,0.209,2.389
				c-0.033-0.283-0.105-0.567-0.091-0.847c0.023-0.487-0.101-0.907-0.364-1.318c-0.157-0.247-0.298-0.227-0.536-0.117
				c0.032,0.115,0.082,0.221,0.089,0.33c0.022,0.37,0.108,0.761,0.022,1.107c-0.132,0.533-0.2,1.035,0.012,1.554
				c0.032,0.079,0.03,0.172,0.048,0.288c-0.364-0.379-0.496-1.064-0.321-1.786c0.105-0.437,0.091-0.827-0.145-1.227
				c-0.186-0.316-0.418-0.424-0.792-0.345c0.009,0.086,0.023,0.169,0.024,0.252c0.005,0.408,0.075,0.83-0.006,1.22
				c-0.137,0.656-0.388,1.29-0.197,1.982c-0.247-0.507-0.324-1.017-0.212-1.578c0.09-0.449,0.127-0.922,0.099-1.379
				c-0.034-0.55-0.086-0.557-0.714-0.491c0.166,0.758-0.271,1.381-0.469,2.068c-0.105,0.362-0.113,0.753-0.238,1.133
				c0-0.386-0.04-0.778,0.012-1.158c0.045-0.328,0.225-0.635,0.292-0.962c0.064-0.31,0.071-0.634,0.075-0.952
				c0.001-0.064-0.116-0.162-0.194-0.183c-0.051-0.014-0.16,0.067-0.195,0.132c-0.232,0.427-0.487,0.848-0.664,1.299
				c-0.134,0.34-0.165,0.72-0.237,1.083c-0.026,0.134-0.037,0.271-0.08,0.403c-0.148-0.782-0.065-1.521,0.364-2.209
				c0.1-0.161,0.148-0.356,0.212-0.539C53.009,40.569,52.846,40.464,52.492,40.476z"/>
		</g>
	</g>
</g>
</svg>
