<?xml version="1.0" encoding="utf-8"?>
<!-- Generator: Adobe Illustrator 17.0.0, SVG Export Plug-In . SVG Version: 6.00 Build 0)  -->
<!DOCTYPE svg PUBLIC "-//W3C//DTD SVG 1.1//EN" "http://www.w3.org/Graphics/SVG/1.1/DTD/svg11.dtd">
<svg version="1.1" id="Layer_1" xmlns="http://www.w3.org/2000/svg" xmlns:xlink="http://www.w3.org/1999/xlink" x="0px" y="0px"
	 width="51.447px" height="36.305px" viewBox="0 0 51.447 36.305" enable-background="new 0 0 51.447 36.305" xml:space="preserve">
<g>
	
		<image overflow="visible" opacity="0.3" width="61" height="60" xlink:href="AF90FD0888B55D80.png"  transform="matrix(0.48 0 0 0.48 21.2478 7.5052)">
	</image>
	<g>
		<ellipse fill="#E6E8EE" cx="35.668" cy="21.687" rx="8.42" ry="8.182"/>
	</g>
</g>
<g>
	<path fill="#282828" d="M35.156,30.61c4.548,0.293,8.532-2.66,9.566-6.818l-18.178-1.171C27.037,26.877,30.608,30.317,35.156,30.61
		z"/>
</g>
<g>
	<linearGradient id="SVGID_1_" gradientUnits="userSpaceOnUse" x1="26.5388" y1="26.3994" x2="44.717" y2="26.3994">
		<stop  offset="0" style="stop-color:#7FC1C9"/>
		<stop  offset="0.1078" style="stop-color:#8FBDBC"/>
		<stop  offset="0.524" style="stop-color:#BDB193"/>
		<stop  offset="0.8336" style="stop-color:#D6A87A"/>
		<stop  offset="1" style="stop-color:#E1A571"/>
	</linearGradient>
	<path fill="url(#SVGID_1_)" d="M35.151,30.384c4.548,0.293,8.532-2.66,9.566-6.818l-18.178-1.171
		C27.031,26.651,30.603,30.091,35.151,30.384z"/>
</g>
<g>
	
		<image overflow="visible" opacity="0.3" width="61" height="60" xlink:href="AF90FD0888B55D81.png"  transform="matrix(0.48 0 0 0.48 0.709 6.8026)">
	</image>
	<g>
		<ellipse fill="#E6E8EE" cx="15.13" cy="20.985" rx="8.42" ry="8.182"/>
	</g>
</g>
<g>
	<path fill="#282828" d="M14.618,29.908c4.548,0.293,8.532-2.66,9.566-6.818L6.005,21.919C6.498,26.175,10.069,29.615,14.618,29.908
		z"/>
</g>
<ellipse fill="#121212" cx="15.11" cy="19.365" rx="2.403" ry="2.335"/>
<path fill="#282828" d="M6.414,10.088c0.874-1.372,3.801-2.282,5.154-2.718c1.664-0.537,5.121-1.094,6.832-0.906
	c1.247,0.137,3.81,1.125,4.675,2.265c0.458,0.604,1.132,2.422,0.839,3.171c-0.364,0.932-2.292,1.396-3.116,1.359
	c-0.912-0.041-2.457-1.613-3.356-1.812c-1.537-0.34-4.685,0.197-6.233,0.453c-0.88,0.146-2.591,0.984-3.476,0.906
	c-0.444-0.039-1.482-0.251-1.678-0.755C5.879,11.599,6.164,10.48,6.414,10.088z"/>
<ellipse fill="#121212" cx="34.593" cy="18.71" rx="2.403" ry="2.335"/>
<path fill="#282828" d="M45.044,13.316c-0.256-1.509-2.168-3.032-3.048-3.751c-1.082-0.884-3.49-2.187-4.814-2.389
	c-0.966-0.147-3.152,0.229-4.122,1.129c-0.514,0.477-1.536,2.068-1.534,2.851c0.003,0.974,1.302,1.848,1.924,1.996
	c0.689,0.164,2.288-0.999,3.013-0.989c1.239,0.017,3.423,1.231,4.499,1.821c0.612,0.336,1.642,1.519,2.322,1.642
	c0.341,0.062,1.173,0.089,1.463-0.35C45.009,14.882,45.118,13.748,45.044,13.316z"/>
<g>
	<linearGradient id="SVGID_2_" gradientUnits="userSpaceOnUse" x1="6" y1="25.6969" x2="24.1782" y2="25.6969">
		<stop  offset="0" style="stop-color:#7FC1C9"/>
		<stop  offset="0.1078" style="stop-color:#8FBDBC"/>
		<stop  offset="0.524" style="stop-color:#BDB193"/>
		<stop  offset="0.8336" style="stop-color:#D6A87A"/>
		<stop  offset="1" style="stop-color:#E1A571"/>
	</linearGradient>
	<path fill="url(#SVGID_2_)" d="M14.612,29.681c4.548,0.293,8.532-2.66,9.566-6.818L6,21.692
		C6.493,25.948,10.064,29.388,14.612,29.681z"/>
</g>
<g>
	
		<image overflow="visible" opacity="0.3" width="63" height="40" xlink:href="AF90FD0888B55D87.png"  transform="matrix(0.48 0 0 0.48 0 0)">
	</image>
	<g>
		<linearGradient id="SVGID_3_" gradientUnits="userSpaceOnUse" x1="6" y1="9.4174" x2="23.9851" y2="9.4174">
			<stop  offset="0" style="stop-color:#D45426"/>
			<stop  offset="0.5897" style="stop-color:#CE3721"/>
			<stop  offset="1" style="stop-color:#CB251E"/>
		</linearGradient>
		<path fill="url(#SVGID_3_)" d="M6.414,9.661c0.874-1.372,3.801-2.282,5.154-2.718c1.664-0.537,5.121-1.094,6.832-0.906
			c1.247,0.137,3.81,1.125,4.675,2.265c0.458,0.604,1.132,2.422,0.839,3.171c-0.364,0.932-2.292,1.396-3.116,1.359
			c-0.912-0.041-2.457-1.613-3.356-1.812c-1.537-0.34-4.685,0.197-6.233,0.453c-0.88,0.146-2.591,0.984-3.476,0.906
			c-0.444-0.039-1.482-0.251-1.678-0.755C5.878,11.172,6.164,10.054,6.414,9.661z"/>
	</g>
</g>
<g>
	
		<image overflow="visible" opacity="0.3" width="54" height="43" xlink:href="AF90FD0888B55D82.png"  transform="matrix(0.48 0 0 0.48 25.5267 0.719)">
	</image>
	<g>
		<linearGradient id="SVGID_4_" gradientUnits="userSpaceOnUse" x1="31.5267" y1="10.9767" x2="45.0666" y2="10.9767">
			<stop  offset="0" style="stop-color:#D45426"/>
			<stop  offset="0.5897" style="stop-color:#CE3721"/>
			<stop  offset="1" style="stop-color:#CB251E"/>
		</linearGradient>
		<path fill="url(#SVGID_4_)" d="M45.044,12.889c-0.256-1.509-2.168-3.032-3.048-3.751c-1.082-0.884-3.49-2.187-4.814-2.389
			c-0.966-0.147-3.152,0.229-4.122,1.129c-0.514,0.477-1.536,2.068-1.534,2.851c0.003,0.974,1.302,1.848,1.924,1.996
			c0.689,0.164,2.288-0.999,3.013-0.989c1.239,0.017,3.423,1.231,4.499,1.821c0.612,0.336,1.642,1.519,2.322,1.642
			c0.341,0.062,1.173,0.089,1.463-0.35C45.008,14.456,45.117,13.321,45.044,12.889z"/>
	</g>
</g>
</svg>
