<?xml version="1.0" encoding="utf-8"?>
<!-- Generator: Adobe Illustrator 17.0.0, SVG Export Plug-In . SVG Version: 6.00 Build 0)  -->
<!DOCTYPE svg PUBLIC "-//W3C//DTD SVG 1.1//EN" "http://www.w3.org/Graphics/SVG/1.1/DTD/svg11.dtd">
<svg version="1.1" id="Layer_1" xmlns="http://www.w3.org/2000/svg" xmlns:xlink="http://www.w3.org/1999/xlink" x="0px" y="0px"
	 width="48.557px" height="28.532px" viewBox="0 0 48.557 28.532" enable-background="new 0 0 48.557 28.532" xml:space="preserve">
<g>
	
		<image overflow="visible" opacity="0.5" width="49" height="50" xlink:href="D01D36EBE2AF961E.png"  transform="matrix(0.48 0 0 0.48 0 4.5316)">
	</image>
	<g>
		<ellipse fill="#E6E8EE" cx="11.569" cy="16.324" rx="8.569" ry="8.792"/>
	</g>
</g>
<linearGradient id="SVGID_1_" gradientUnits="userSpaceOnUse" x1="5.4299" y1="15.8271" x2="17.7708" y2="15.8271">
	<stop  offset="0.0597" style="stop-color:#DBA797"/>
	<stop  offset="0.2188" style="stop-color:#AF8389"/>
	<stop  offset="0.4323" style="stop-color:#80607B"/>
	<stop  offset="0.625" style="stop-color:#5E4771"/>
	<stop  offset="0.7898" style="stop-color:#44376B"/>
	<stop  offset="0.9202" style="stop-color:#332E68"/>
	<stop  offset="1" style="stop-color:#2D2B67"/>
</linearGradient>
<ellipse fill="url(#SVGID_1_)" cx="11.6" cy="15.827" rx="6.17" ry="6.332"/>
<ellipse fill="#080907" cx="11.6" cy="15.73" rx="5.053" ry="5.184"/>
<path fill="#E4E9F0" d="M9.671,12.649c0.035-0.265-0.288-0.815-0.53-0.928c-0.165-0.077-0.619-0.021-0.716,0.133
	c-0.11,0.174,0.078,0.639,0.212,0.795c0.127,0.149,0.522,0.349,0.716,0.318C9.464,12.95,9.656,12.761,9.671,12.649z"/>
<g>
	
		<image overflow="visible" opacity="0.5" width="42" height="43" xlink:href="D01D36EBE2AF9622.png"  transform="matrix(0.48 0 0 0.48 28.3973 6.1828)">
	</image>
	<g>
		<ellipse fill="#E6E8EE" cx="38.358" cy="16.325" rx="6.961" ry="7.143"/>
	</g>
</g>
<linearGradient id="SVGID_2_" gradientUnits="userSpaceOnUse" x1="33.6656" y1="15.9217" x2="43.1022" y2="15.9217">
	<stop  offset="0.0597" style="stop-color:#DBA797"/>
	<stop  offset="0.2188" style="stop-color:#AF8389"/>
	<stop  offset="0.4323" style="stop-color:#80607B"/>
	<stop  offset="0.625" style="stop-color:#5E4771"/>
	<stop  offset="0.7898" style="stop-color:#44376B"/>
	<stop  offset="0.9202" style="stop-color:#332E68"/>
	<stop  offset="1" style="stop-color:#2D2B67"/>
</linearGradient>
<ellipse fill="url(#SVGID_2_)" cx="38.384" cy="15.922" rx="4.718" ry="4.841"/>
<ellipse fill="#080907" cx="38.384" cy="15.847" rx="3.863" ry="3.964"/>
<path fill="#E4E9F0" d="M37.889,13.983c0.027-0.202-0.22-0.624-0.405-0.709c-0.126-0.059-0.473-0.016-0.547,0.101
	c-0.084,0.133,0.06,0.488,0.162,0.608c0.097,0.114,0.4,0.267,0.547,0.243C37.731,14.212,37.878,14.068,37.889,13.983z"/>
<g>
	
		<image overflow="visible" opacity="0.5" width="45" height="29" xlink:href="D01D36EBE2AF9625.png"  transform="matrix(0.48 0 0 0.48 26.7356 1.4246)">
	</image>
	<g>
		<linearGradient id="SVGID_3_" gradientUnits="userSpaceOnUse" x1="29.7356" y1="8.1835" x2="45.0934" y2="8.1835">
			<stop  offset="0" style="stop-color:#DBA797"/>
			<stop  offset="0.0404" style="stop-color:#D69D8A"/>
			<stop  offset="0.1548" style="stop-color:#CF866B"/>
			<stop  offset="0.2745" style="stop-color:#CA7454"/>
			<stop  offset="0.3982" style="stop-color:#C56541"/>
			<stop  offset="0.5273" style="stop-color:#C25933"/>
			<stop  offset="0.664" style="stop-color:#C04F2B"/>
			<stop  offset="0.8135" style="stop-color:#BF4A27"/>
			<stop  offset="1" style="stop-color:#BE4827"/>
		</linearGradient>
		<path fill="url(#SVGID_3_)" d="M29.857,5.15c-0.618,1.354,1.263,4.595,2.518,5.394c1.041,0.663,3.719-0.198,4.938,0
			c1.092,0.177,3.092,1.43,4.197,1.398c0.943-0.027,3.037-0.579,3.506-1.398c0.163-0.284,0.055-1.087-0.198-1.296
			c-0.696-0.574-2.494-0.272-3.377-0.455c-1.027-0.213-2.23-0.944-3.176-1.398c-1.502-0.721-3.674-2.639-5.309-2.961
			C32.559,4.356,30.026,4.781,29.857,5.15z"/>
	</g>
</g>
<g>
	
		<image overflow="visible" opacity="0.5" width="47" height="28" xlink:href="D01D36EBE2AF9626.png"  transform="matrix(0.48 0 0 0.48 0.4464 0)">
	</image>
	<g>
		<linearGradient id="SVGID_4_" gradientUnits="userSpaceOnUse" x1="3.4464" y1="6.4899" x2="19.6712" y2="6.4899">
			<stop  offset="0" style="stop-color:#DBA797"/>
			<stop  offset="0.0404" style="stop-color:#D69D8A"/>
			<stop  offset="0.1548" style="stop-color:#CF866B"/>
			<stop  offset="0.2745" style="stop-color:#CA7454"/>
			<stop  offset="0.3982" style="stop-color:#C56541"/>
			<stop  offset="0.5273" style="stop-color:#C25933"/>
			<stop  offset="0.664" style="stop-color:#C04F2B"/>
			<stop  offset="0.8135" style="stop-color:#BF4A27"/>
			<stop  offset="1" style="stop-color:#BE4827"/>
		</linearGradient>
		<path fill="url(#SVGID_4_)" d="M19.564,3.415c0.608,1.132-1.527,3.703-2.576,4.445C14.8,9.407,9.078,10.362,6.45,9.833
			C5.571,9.656,3.632,8.739,3.453,7.86C3.379,7.496,3.94,6.787,4.273,6.624C4.932,6.301,6.467,6.875,7.2,6.834
			c1.7-0.095,2.785-0.732,4.359-1.381c0.97-0.4,2.451-2.1,3.466-2.367C15.559,2.946,19.303,2.928,19.564,3.415z"/>
	</g>
</g>
</svg>
