<?xml version="1.0" encoding="utf-8"?>
<!-- Generator: Adobe Illustrator 17.0.0, SVG Export Plug-In . SVG Version: 6.00 Build 0)  -->
<!DOCTYPE svg PUBLIC "-//W3C//DTD SVG 1.1//EN" "http://www.w3.org/Graphics/SVG/1.1/DTD/svg11.dtd">
<svg version="1.1" id="Layer_1" xmlns="http://www.w3.org/2000/svg" xmlns:xlink="http://www.w3.org/1999/xlink" x="0px" y="0px"
	 width="53.274px" height="24.921px" viewBox="0 0 53.274 24.921" enable-background="new 0 0 53.274 24.921" xml:space="preserve">
<g>
	<ellipse fill="#121212" cx="9.03" cy="10.371" rx="5.463" ry="5.308"/>
	<ellipse fill="#121212" cx="43.428" cy="8.757" rx="5.615" ry="5.456"/>
	<path fill="#121212" d="M2.159,2.538c1.283-1.032,4.382-0.956,5.82-0.936c1.768,0.024,5.262,0.61,6.841,1.344
		c1.151,0.535,3.287,2.312,3.747,3.685c0.244,0.727,0.301,2.688-0.223,3.311c-0.651,0.775-2.649,0.596-3.427,0.293
		c-0.861-0.335-1.832-2.342-2.63-2.824c-1.363-0.823-4.554-1.329-6.12-1.584C5.277,5.682,3.366,5.931,2.542,5.57
		C2.129,5.388,1.203,4.849,1.178,4.303C1.156,3.812,1.792,2.833,2.159,2.538z"/>
	<path fill="#121212" d="M48.106,0.631c-1.305-0.912-3.828-0.605-5.002-0.478c-1.444,0.156-4.166,0.99-5.282,1.824
		c-0.813,0.608-2.13,2.503-2.17,3.878c-0.022,0.728,0.411,2.647,0.994,3.216c0.724,0.708,2.319,0.383,2.882,0.03
		c0.624-0.391,0.929-2.424,1.465-2.954c0.917-0.906,3.41-1.638,4.632-2.005c0.695-0.208,2.323-0.108,2.91-0.523
		c0.295-0.208,0.922-0.804,0.808-1.339C49.24,1.801,48.479,0.892,48.106,0.631z"/>
	<path fill="#985627" d="M53.177,20.516c-0.887-1.688-6.137-2.919-7.78-2.578c-1.667,0.346-4.464,3.327-3.147,4.933
		c1.364,1.663,6.161,0.915,7.802,0.43C51.169,22.972,53.811,21.722,53.177,20.516z"/>
	<path fill="#985627" d="M0.032,20.756c0.51,1.837,5.38,4.151,7.059,4.165c1.702,0.014,5.067-2.308,4.119-4.156
		c-0.981-1.914-5.828-2.198-7.535-2.071C2.514,18.781-0.332,19.444,0.032,20.756z"/>
</g>
</svg>
