<?xml version="1.0" encoding="utf-8"?>
<!-- Generator: Adobe Illustrator 17.0.0, SVG Export Plug-In . SVG Version: 6.00 Build 0)  -->
<!DOCTYPE svg PUBLIC "-//W3C//DTD SVG 1.1//EN" "http://www.w3.org/Graphics/SVG/1.1/DTD/svg11.dtd">
<svg version="1.1" id="Layer_1" xmlns="http://www.w3.org/2000/svg" xmlns:xlink="http://www.w3.org/1999/xlink" x="0px" y="0px"
	 width="52.607px" height="32.039px" viewBox="0 0 52.607 32.039" enable-background="new 0 0 52.607 32.039" xml:space="preserve">
<ellipse fill="#E6E8EE" cx="26.877" cy="10.002" rx="9.788" ry="9.511"/>
<linearGradient id="SVGID_1_" gradientUnits="userSpaceOnUse" x1="22.1214" y1="10.002" x2="31.2769" y2="10.002">
	<stop  offset="0" style="stop-color:#394F8A"/>
	<stop  offset="0.0587" style="stop-color:#3C548E"/>
	<stop  offset="0.4978" style="stop-color:#5376AD"/>
	<stop  offset="0.8244" style="stop-color:#628FC5"/>
	<stop  offset="1" style="stop-color:#689BD2"/>
</linearGradient>
<ellipse fill="url(#SVGID_1_)" cx="26.699" cy="10.002" rx="4.578" ry="4.697"/>
<path fill="#E4E9F0" d="M25.16,7.672c0.023-0.174-0.189-0.536-0.349-0.61c-0.109-0.05-0.407-0.014-0.471,0.087
	c-0.072,0.114,0.052,0.42,0.139,0.523c0.084,0.098,0.343,0.23,0.471,0.209C25.024,7.869,25.15,7.745,25.16,7.672z"/>
<path fill="#5B6EB4" d="M25.879,13.202c0.82,0.479,2.011-0.16,2.362-1.085c0.565-1.491,0.011-2.436-0.408-3.059
	c-0.351-0.521-1.034-0.933-1.65-1.057c-0.586-0.118-1.373-0.274-1.777,0.468C23.717,9.735,23.465,11.79,25.879,13.202z"/>
<ellipse fill="#080907" cx="26.808" cy="9.512" rx="2.251" ry="2.31"/>
<path fill="#282828" d="M18.676,15.138c0,0,4.067,2.764,8.428,2.699c5.368-0.08,8.223-3.035,8.223-3.035s-1.655,5.059-8.055,5.299
	C20.849,20.342,18.676,15.138,18.676,15.138z"/>
<linearGradient id="SVGID_2_" gradientUnits="userSpaceOnUse" x1="18.6765" y1="17.2747" x2="35.3275" y2="17.2747">
	<stop  offset="0" style="stop-color:#7FC1C9"/>
	<stop  offset="0.0352" style="stop-color:#C4DBCC"/>
	<stop  offset="0.1764" style="stop-color:#C3BCAB"/>
	<stop  offset="0.4685" style="stop-color:#BE8275"/>
	<stop  offset="0.7077" style="stop-color:#B95857"/>
	<stop  offset="0.8818" style="stop-color:#B73847"/>
	<stop  offset="0.9727" style="stop-color:#B62841"/>
</linearGradient>
<path fill="url(#SVGID_2_)" d="M18.676,15.138c0,0,4.067,2.405,8.428,2.34c5.368-0.08,8.223-2.676,8.223-2.676
	s-1.938,4.749-8.055,4.94C21.108,19.934,18.676,15.138,18.676,15.138z"/>
<path fill="#282828" d="M35.196,4.609c0,0-4.126-2.405-8.551-2.34c-5.446,0.08-8.343,2.676-8.343,2.676s1.966-4.749,8.173-4.94
	C32.729-0.186,35.196,4.609,35.196,4.609z"/>
<linearGradient id="SVGID_3_" gradientUnits="userSpaceOnUse" x1="-10495.7568" y1="-12206.8398" x2="-10478.8623" y2="-12206.8398" gradientTransform="matrix(-1 0 0 -1 -10460.5605 -12204.0078)">
	<stop  offset="0" style="stop-color:#7FC1C9"/>
	<stop  offset="0.0352" style="stop-color:#C4DBCC"/>
	<stop  offset="0.1764" style="stop-color:#C3BCAB"/>
	<stop  offset="0.4685" style="stop-color:#BE8275"/>
	<stop  offset="0.7077" style="stop-color:#B95857"/>
	<stop  offset="0.8818" style="stop-color:#B73847"/>
	<stop  offset="0.9727" style="stop-color:#B62841"/>
</linearGradient>
<path fill="url(#SVGID_3_)" d="M35.196,4.969c0,0-4.126-2.405-8.551-2.34c-5.446,0.08-8.343,2.676-8.343,2.676
	s1.966-4.749,8.173-4.94C32.729,0.173,35.196,4.969,35.196,4.969z"/>
<ellipse transform="matrix(-0.987 0.1607 -0.1607 -0.987 20.6954 44.7598)" fill="#E6E8EE" cx="8.538" cy="23.217" rx="8.542" ry="8.301"/>
<linearGradient id="SVGID_4_" gradientUnits="userSpaceOnUse" x1="6.7027" y1="22.8498" x2="14.7002" y2="22.8498">
	<stop  offset="0" style="stop-color:#394F8A"/>
	<stop  offset="0.0587" style="stop-color:#3C548E"/>
	<stop  offset="0.4978" style="stop-color:#5376AD"/>
	<stop  offset="0.8244" style="stop-color:#628FC5"/>
	<stop  offset="1" style="stop-color:#689BD2"/>
</linearGradient>
<path fill="url(#SVGID_4_)" d="M14.645,22.208c0.364,2.235-1.107,4.334-3.285,4.689c-2.178,0.355-4.238-1.17-4.602-3.404
	s1.107-4.334,3.285-4.689C12.22,18.449,14.281,19.973,14.645,22.208z"/>
<path fill="#E4E9F0" d="M9.049,21.058c-0.004-0.153-0.238-0.435-0.386-0.477c-0.101-0.028-0.352,0.045-0.393,0.141
	c-0.046,0.109,0.103,0.355,0.193,0.431c0.086,0.073,0.328,0.15,0.435,0.114C8.959,21.247,9.05,21.123,9.049,21.058z"/>
<path fill="#5B6EB4" d="M10.444,25.722c0.773,0.298,1.71-0.42,1.882-1.266c0.278-1.364-0.332-2.1-0.781-2.578
	c-0.376-0.4-1.021-0.659-1.569-0.679c-0.522-0.019-1.222-0.044-1.465,0.652C8.095,23.038,8.167,24.844,10.444,25.722z"/>
<ellipse transform="matrix(0.987 -0.1607 0.1607 0.987 -3.4626 2.0152)" fill="#080907" cx="10.726" cy="22.412" rx="2.29" ry="2.35"/>
<path fill="#282828" d="M2.244,29.101c0,0,3.841,1.501,7.588,0.834c4.613-0.822,6.708-3.458,6.708-3.458s-1.003,4.363-6.246,5.385
	C5.011,32.891,2.244,29.101,2.244,29.101z"/>
<linearGradient id="SVGID_5_" gradientUnits="userSpaceOnUse" x1="-1042.6101" y1="767.196" x2="-1028.0773" y2="767.196" gradientTransform="matrix(0.987 -0.1607 0.1607 0.987 908.25 -894.155)">
	<stop  offset="0" style="stop-color:#7FC1C9"/>
	<stop  offset="0.0352" style="stop-color:#C4DBCC"/>
	<stop  offset="0.1764" style="stop-color:#C3BCAB"/>
	<stop  offset="0.4685" style="stop-color:#BE8275"/>
	<stop  offset="0.7077" style="stop-color:#B95857"/>
	<stop  offset="0.8818" style="stop-color:#B73847"/>
	<stop  offset="0.9727" style="stop-color:#B62841"/>
</linearGradient>
<path fill="url(#SVGID_5_)" d="M2.194,28.791c0,0,3.841,1.501,7.588,0.834c4.613-0.822,6.708-3.458,6.708-3.458
	s-1.003,4.363-6.246,5.385C4.961,32.582,2.194,28.791,2.194,28.791z"/>
<path fill="#282828" d="M14.948,17.404c0,0-3.892-1.493-7.694-0.816c-4.681,0.833-6.812,3.475-6.812,3.475s1.028-4.367,6.347-5.402
	C12.15,13.619,14.948,17.404,14.948,17.404z"/>
<linearGradient id="SVGID_6_" gradientUnits="userSpaceOnUse" x1="-9432.3691" y1="-12958.5986" x2="-9417.624" y2="-12958.5986" gradientTransform="matrix(-0.987 0.1607 -0.1607 -0.987 -11377.71 -11258.3398)">
	<stop  offset="0" style="stop-color:#7FC1C9"/>
	<stop  offset="0.0352" style="stop-color:#C4DBCC"/>
	<stop  offset="0.1764" style="stop-color:#C3BCAB"/>
	<stop  offset="0.4685" style="stop-color:#BE8275"/>
	<stop  offset="0.7077" style="stop-color:#B95857"/>
	<stop  offset="0.8818" style="stop-color:#B73847"/>
	<stop  offset="0.9727" style="stop-color:#B62841"/>
</linearGradient>
<path fill="url(#SVGID_6_)" d="M14.998,17.714c0,0-3.892-1.493-7.694-0.816c-4.681,0.833-6.812,3.475-6.812,3.475
	s1.028-4.367,6.347-5.402C12.201,13.929,14.998,17.714,14.998,17.714z"/>
<ellipse transform="matrix(-0.9989 -0.0463 0.0463 -0.9989 89.9921 48.4948)" fill="#E6E8EE" cx="45.558" cy="23.205" rx="7.05" ry="6.85"/>
<linearGradient id="SVGID_7_" gradientUnits="userSpaceOnUse" x1="40.5119" y1="22.8498" x2="47.1071" y2="22.8498">
	<stop  offset="0" style="stop-color:#394F8A"/>
	<stop  offset="0.0587" style="stop-color:#3C548E"/>
	<stop  offset="0.4978" style="stop-color:#5376AD"/>
	<stop  offset="0.8244" style="stop-color:#628FC5"/>
	<stop  offset="1" style="stop-color:#689BD2"/>
</linearGradient>
<path fill="url(#SVGID_7_)" d="M47.103,23.003c-0.087,1.867-1.631,3.311-3.45,3.227s-3.224-1.666-3.137-3.532
	s1.631-3.311,3.45-3.227S47.19,21.136,47.103,23.003z"/>
<path fill="#E4E9F0" d="M42.78,21.122c0.023-0.124-0.118-0.392-0.23-0.451c-0.076-0.04-0.292-0.024-0.341,0.047
	c-0.056,0.08,0.023,0.304,0.083,0.381c0.057,0.073,0.239,0.177,0.332,0.166C42.675,21.259,42.77,21.174,42.78,21.122z"/>
<path fill="#5B6EB4" d="M43.113,25.125c0.574,0.372,1.452-0.048,1.735-0.702c0.456-1.054,0.09-1.753-0.192-2.215
	c-0.235-0.387-0.713-0.706-1.152-0.816c-0.418-0.104-0.979-0.243-1.294,0.277C41.673,22.558,41.423,24.029,43.113,25.125z"/>
<ellipse transform="matrix(0.9989 0.0463 -0.0463 0.9989 1.0892 -2.0092)" fill="#080907" cx="43.904" cy="22.501" rx="1.734" ry="1.78"/>
<path fill="#282828" d="M39.474,26.885c0,0,2.846,1.866,5.986,1.965c3.865,0.122,6.006-1.651,6.006-1.651s-1.553,3.352-5.96,3.285
	C41.064,30.417,39.474,26.885,39.474,26.885z"/>
<linearGradient id="SVGID_8_" gradientUnits="userSpaceOnUse" x1="314.4283" y1="-207.9314" x2="326.4219" y2="-207.9314" gradientTransform="matrix(0.9989 0.0463 -0.0463 0.9989 -284.3058 221.3104)">
	<stop  offset="0" style="stop-color:#7FC1C9"/>
	<stop  offset="0.0352" style="stop-color:#C4DBCC"/>
	<stop  offset="0.1764" style="stop-color:#C3BCAB"/>
	<stop  offset="0.4685" style="stop-color:#BE8275"/>
	<stop  offset="0.7077" style="stop-color:#B95857"/>
	<stop  offset="0.8818" style="stop-color:#B73847"/>
	<stop  offset="0.9727" style="stop-color:#B62841"/>
</linearGradient>
<path fill="url(#SVGID_8_)" d="M39.486,26.627c0,0,2.846,1.866,5.986,1.965c3.865,0.122,6.006-1.651,6.006-1.651
	s-1.553,3.352-5.96,3.285C41.076,30.158,39.486,26.627,39.486,26.627z"/>
<path fill="#282828" d="M51.724,19.602c0,0-2.889-1.868-6.075-1.969c-3.922-0.124-6.092,1.647-6.092,1.647s1.573-3.352,6.045-3.282
	C50.109,16.069,51.724,19.602,51.724,19.602z"/>
<linearGradient id="SVGID_9_" gradientUnits="userSpaceOnUse" x1="-10786.8877" y1="-11985.6738" x2="-10774.7188" y2="-11985.6738" gradientTransform="matrix(-0.9989 -0.0463 0.0463 -0.9989 -10168.4365 -12454.0635)">
	<stop  offset="0" style="stop-color:#7FC1C9"/>
	<stop  offset="0.0352" style="stop-color:#C4DBCC"/>
	<stop  offset="0.1764" style="stop-color:#C3BCAB"/>
	<stop  offset="0.4685" style="stop-color:#BE8275"/>
	<stop  offset="0.7077" style="stop-color:#B95857"/>
	<stop  offset="0.8818" style="stop-color:#B73847"/>
	<stop  offset="0.9727" style="stop-color:#B62841"/>
</linearGradient>
<path fill="url(#SVGID_9_)" d="M51.712,19.861c0,0-2.889-1.868-6.075-1.969c-3.922-0.124-6.092,1.647-6.092,1.647
	s1.573-3.352,6.045-3.282C50.097,16.328,51.712,19.861,51.712,19.861z"/>
</svg>
