<?xml version="1.0" encoding="utf-8"?>
<!-- Generator: Adobe Illustrator 17.0.0, SVG Export Plug-In . SVG Version: 6.00 Build 0)  -->
<!DOCTYPE svg PUBLIC "-//W3C//DTD SVG 1.1//EN" "http://www.w3.org/Graphics/SVG/1.1/DTD/svg11.dtd">
<svg version="1.1" id="Layer_1" xmlns="http://www.w3.org/2000/svg" xmlns:xlink="http://www.w3.org/1999/xlink" x="0px" y="0px"
	 width="69.376px" height="30.305px" viewBox="0 0 69.376 30.305" enable-background="new 0 0 69.376 30.305" xml:space="preserve">
<g>
	
		<image overflow="visible" opacity="0.5" width="70" height="61" xlink:href="A732C1B23EF1EC61.png"  transform="matrix(0.48 0 0 0.48 0 1.0245)">
	</image>
	<g>
		<path fill="#0A8E6F" d="M9.858,10.198c-1.456,1.204-0.93,4.86,0.611,7.534c3.168,5.498,10.521,3.869,13.123-0.202
			c1-1.564,1.384-6.157-0.023-7.332c-0.26-0.218-1.121-0.244-1.358,0c-1.047,1.079,1.018,2.953-0.701,5.973
			c-0.977,1.715-4.6,4.929-8.326,1.629c-3.258-2.885-1.043-5.98-2.172-7.602C10.847,9.961,10.081,10.014,9.858,10.198z"/>
	</g>
</g>
<g>
	
		<image overflow="visible" opacity="0.5" width="66" height="61" xlink:href="A732C1B23EF1EC63.png"  transform="matrix(0.48 0 0 0.48 37.6956 0)">
	</image>
	<g>
		<path fill="#0A8E6F" d="M58.948,9.057c1.454,0.803,1.594,4.046,0.698,6.606c-1.841,5.264-8.457,5.053-11.366,1.96
			c-1.118-1.188-2.197-5.092-1.173-6.336c0.189-0.23,0.929-0.393,1.172-0.221c1.08,0.762-0.399,2.716,1.577,5.045
			c1.122,1.323,4.774,3.508,7.456,0.052c2.345-3.021-0.072-5.334,0.639-6.919C58.055,9.014,58.726,8.935,58.948,9.057z"/>
	</g>
</g>
</svg>
