<?xml version="1.0" encoding="utf-8"?>
<!-- Generator: Adobe Illustrator 17.0.0, SVG Export Plug-In . SVG Version: 6.00 Build 0)  -->
<!DOCTYPE svg PUBLIC "-//W3C//DTD SVG 1.1//EN" "http://www.w3.org/Graphics/SVG/1.1/DTD/svg11.dtd">
<svg version="1.1" id="Layer_1" xmlns="http://www.w3.org/2000/svg" xmlns:xlink="http://www.w3.org/1999/xlink" x="0px" y="0px"
	 width="78.253px" height="24.76px" viewBox="0 0 78.253 24.76" enable-background="new 0 0 78.253 24.76" xml:space="preserve">
<linearGradient id="SVGID_1_" gradientUnits="userSpaceOnUse" x1="-11021.5361" y1="12.3799" x2="-10943.2832" y2="12.3799" gradientTransform="matrix(-1 0 0 1 -10943.2832 0)">
	<stop  offset="0" style="stop-color:#126C80"/>
	<stop  offset="0.6466" style="stop-color:#00663F"/>
	<stop  offset="0.9955" style="stop-color:#00745C"/>
</linearGradient>
<path fill="url(#SVGID_1_)" d="M36.42,13.734c-0.632,1.089-3.518,7.659-8.75,9.671c-2.288,0.88-8.01,1.448-10.413,0.958
	C10.86,23.06,7.254,18.105,4.478,15.072C2.509,12.92-0.099,7.211,0.003,4.295C0.028,3.581,0.705,2.16,1.282,1.738
	c2.238-1.639,8.186-1.69,10.96-1.735c3.313-0.054,9.957,0.766,13.152,1.644c2.475,0.68,8.564,3.51,10.797,4.777l5.874,0.215
	c2.232-1.266,8.322-4.097,10.797-4.777c3.195-0.878,9.839-1.698,13.152-1.644c2.774,0.045,8.722,0.096,10.96,1.735
	c0.577,0.422,1.254,1.843,1.279,2.557c0.102,2.916-2.506,8.625-4.475,10.777c-2.776,3.033-6.382,7.988-12.779,9.292
	c-2.402,0.49-8.124-0.078-10.413-0.958c-5.232-2.013-8.118-8.582-8.75-9.671c0,0-0.903-1.434-1.314-1.677
	c-0.768-0.455-2.392-0.431-3.174,0C36.965,12.481,36.42,13.734,36.42,13.734z"/>
<linearGradient id="SVGID_2_" gradientUnits="userSpaceOnUse" x1="71.7763" y1="13.5456" x2="44.0566" y2="13.5456">
	<stop  offset="0.1104" style="stop-color:#132912"/>
	<stop  offset="0.9955" style="stop-color:#22444D"/>
</linearGradient>
<path fill="url(#SVGID_2_)" d="M44.057,10.854c-0.012-0.66,0.664-1.933,1.155-2.374c2.157-1.935,8.226-4.066,11.101-4.427
	c3.647-0.458,10.651-0.137,14.373,2.502c0.654,0.464,1.091,2.214,1.091,3.016c0,2.701-1.608,5.735-2.759,7.315
	c-1.243,1.707-4.646,4.484-6.609,5.262c-6.304,2.497-10.587,0.071-13.346-1.861C46.875,18.756,44.104,13.523,44.057,10.854z"/>
<linearGradient id="SVGID_3_" gradientUnits="userSpaceOnUse" x1="-10997.5264" y1="13.5456" x2="-11025.2461" y2="13.5456" gradientTransform="matrix(-1 0 0 1 -10991.8623 0)">
	<stop  offset="0.1104" style="stop-color:#132912"/>
	<stop  offset="0.9955" style="stop-color:#22444D"/>
</linearGradient>
<path fill="url(#SVGID_3_)" d="M33.383,10.854c0.012-0.66-0.664-1.933-1.155-2.374c-2.157-1.935-8.226-4.066-11.101-4.427
	C17.481,3.595,10.476,3.915,6.755,6.555C6.101,7.019,5.664,8.769,5.664,9.571c0,2.701,1.608,5.735,2.759,7.315
	c1.243,1.707,4.646,4.484,6.609,5.262c6.304,2.497,10.587,0.071,13.346-1.861C30.565,18.756,33.337,13.523,33.383,10.854z"/>
</svg>
