<?xml version="1.0" encoding="utf-8"?>
<!-- Generator: Adobe Illustrator 17.0.0, SVG Export Plug-In . SVG Version: 6.00 Build 0)  -->
<!DOCTYPE svg PUBLIC "-//W3C//DTD SVG 1.1//EN" "http://www.w3.org/Graphics/SVG/1.1/DTD/svg11.dtd">
<svg version="1.1" id="Layer_1" xmlns="http://www.w3.org/2000/svg" xmlns:xlink="http://www.w3.org/1999/xlink" x="0px" y="0px"
	 width="56.56px" height="24.187px" viewBox="0 0 56.56 24.187" enable-background="new 0 0 56.56 24.187" xml:space="preserve">
<g>
	
		<ellipse transform="matrix(0.9224 -0.3863 0.3863 0.9224 0.2889 18.9542)" fill="#171517" cx="47.301" cy="8.758" rx="7.696" ry="7.897"/>
	
		<ellipse transform="matrix(0.9224 -0.3863 0.3863 0.9224 -2.2685 4.2463)" fill="#171517" cx="9.43" cy="7.767" rx="7.596" ry="7.794"/>
	<path fill="#CECCCC" d="M56.462,19.867c-0.905-1.722-4.691-2.243-6.368-1.895c-1.7,0.353-5.096,2.17-3.753,3.808
		c1.392,1.696,5.258,1.424,6.932,0.929C54.413,22.372,57.108,21.097,56.462,19.867z"/>
	<path fill="#CECCCC" d="M0.028,21.341c0.52,1.874,3.96,2.832,5.673,2.846c1.737,0.014,6.236-1.086,5.269-2.971
		c-1.001-1.952-4.978-2.268-6.719-2.138C3.065,19.165-0.343,20.002,0.028,21.341z"/>
	<path fill="#171517" d="M21.909,11.759c-0.997,0.824-0.636,3.325,0.418,5.155c2.167,3.762,7.199,2.647,8.979-0.138
		c0.684-1.07,0.947-4.212-0.015-5.017c-0.178-0.149-0.767-0.167-0.929,0c-0.716,0.738-0.006,1.968-1.183,4.034
		c-0.668,1.174-2.59,2.184-4.402,0.727c-1.952-1.569-1.306-3.651-2.079-4.761C22.586,11.597,22.061,11.633,21.909,11.759z"/>
</g>
</svg>
