<?xml version="1.0" encoding="utf-8"?>
<!-- Generator: Adobe Illustrator 17.0.0, SVG Export Plug-In . SVG Version: 6.00 Build 0)  -->
<!DOCTYPE svg PUBLIC "-//W3C//DTD SVG 1.1//EN" "http://www.w3.org/Graphics/SVG/1.1/DTD/svg11.dtd">
<svg version="1.1" id="Layer_1" xmlns="http://www.w3.org/2000/svg" xmlns:xlink="http://www.w3.org/1999/xlink" x="0px" y="0px"
	 width="60.511px" height="20.881px" viewBox="0 0 60.511 20.881" enable-background="new 0 0 60.511 20.881" xml:space="preserve">
<g>
	
		<image overflow="visible" opacity="0.4" width="37" height="37" xlink:href="4F86B5881915B7A8.png"  transform="matrix(0.48 0 0 0.48 1.2303 3.1208)">
	</image>
	<g>
		<ellipse fill="#121212" cx="10.043" cy="11.854" rx="2.813" ry="2.733"/>
	</g>
</g>
<g>
	
		<image overflow="visible" opacity="0.4" width="37" height="37" xlink:href="4F86B5881915B7A9.png"  transform="matrix(0.48 0 0 0.48 42.395 1.6539)">
	</image>
	<g>
		<ellipse fill="#121212" cx="51.208" cy="10.387" rx="2.813" ry="2.733"/>
	</g>
</g>
<g>
	
		<image overflow="visible" opacity="0.4" width="44" height="35" xlink:href="4F86B5881915B7AF.png"  transform="matrix(0.48 0 0 0.48 0 1.3334)">
	</image>
	<g>
		<path fill="#121212" d="M6.505,7.82c0.66-0.531,2.256-0.492,2.997-0.482c0.911,0.013,2.71,0.314,3.523,0.692
			c0.593,0.275,1.693,1.19,1.929,1.897c0.125,0.375,0.155,1.384-0.115,1.705c-0.335,0.399-1.364,0.307-1.765,0.151
			c-0.443-0.172-0.944-1.206-1.354-1.454c-0.702-0.424-2.345-0.684-3.152-0.816C8.111,9.439,7.127,9.568,6.703,9.382
			C6.49,9.288,6.013,9.011,6,8.729C5.989,8.477,6.316,7.972,6.505,7.82z"/>
	</g>
</g>
<g>
	
		<image overflow="visible" opacity="0.4" width="40" height="35" xlink:href="4F86B5881915B7AA.png"  transform="matrix(0.48 0 0 0.48 41.3114 0)">
	</image>
	<g>
		<path fill="#121212" d="M53.552,6.316c-0.654-0.457-1.918-0.303-2.506-0.24c-0.724,0.078-2.087,0.496-2.646,0.914
			c-0.407,0.305-1.067,1.254-1.087,1.943c-0.011,0.365,0.206,1.326,0.498,1.611c0.363,0.355,1.162,0.192,1.444,0.015
			c0.313-0.196,0.466-1.214,0.734-1.48c0.459-0.454,1.708-0.821,2.32-1.004c0.348-0.104,1.164-0.054,1.458-0.262
			c0.148-0.104,0.462-0.403,0.405-0.671C54.12,6.902,53.739,6.447,53.552,6.316z"/>
	</g>
</g>
</svg>
