<?xml version="1.0" encoding="utf-8"?>
<!-- Generator: Adobe Illustrator 17.0.0, SVG Export Plug-In . SVG Version: 6.00 Build 0)  -->
<!DOCTYPE svg PUBLIC "-//W3C//DTD SVG 1.1//EN" "http://www.w3.org/Graphics/SVG/1.1/DTD/svg11.dtd">
<svg version="1.1" id="Layer_1" xmlns="http://www.w3.org/2000/svg" xmlns:xlink="http://www.w3.org/1999/xlink" x="0px" y="0px"
	 width="37.396px" height="11.868px" viewBox="0 0 37.396 11.868" enable-background="new 0 0 37.396 11.868" xml:space="preserve">
<ellipse transform="matrix(0.9224 -0.3863 0.3863 0.9224 -1.8826 2.6843)" fill="#E6E8EE" cx="5.737" cy="6.026" rx="5.713" ry="5.862"/>
<ellipse transform="matrix(0.9224 -0.3863 0.3863 0.9224 -1.9436 2.6966)" fill="#14332E" cx="5.737" cy="6.184" rx="3.167" ry="3.25"/>
<path fill="#AABFBC" d="M4.362,3.975C4.244,3.99,4.045,4.194,4.026,4.311C4.012,4.391,4.089,4.58,4.167,4.603
	C4.254,4.63,4.432,4.495,4.483,4.419c0.049-0.072,0.089-0.266,0.053-0.345C4.515,4.028,4.412,3.968,4.362,3.975z"/>
<path fill="#87A09D" d="M4.815,6.198c0,0-0.209,0.114-0.288,0.568c-0.065,0.373,0.441,0.896,1.106,1.04
	c1.01,0.219,2.125-1.148,1.746-1.95C7.303,5.694,6.925,5.443,6.515,5.364C5.963,5.258,4.815,6.198,4.815,6.198z"/>
<ellipse transform="matrix(0.9224 -0.3863 0.3863 0.9224 -1.8163 2.6462)" fill="#080907" cx="5.675" cy="5.842" rx="1.383" ry="1.419"/>
<ellipse transform="matrix(0.9224 -0.3863 0.3863 0.9224 0.2011 12.6844)" fill="#E6E8EE" cx="31.658" cy="5.842" rx="5.713" ry="5.862"/>
<ellipse transform="matrix(0.9224 -0.3863 0.3863 0.9224 0.1402 12.6966)" fill="#14332E" cx="31.658" cy="6" rx="3.167" ry="3.25"/>
<path fill="#AABFBC" d="M30.283,3.79c-0.118,0.016-0.317,0.22-0.336,0.337c-0.013,0.08,0.064,0.268,0.141,0.292
	c0.088,0.027,0.265-0.109,0.317-0.185c0.049-0.072,0.089-0.266,0.053-0.345C30.437,3.844,30.333,3.784,30.283,3.79z"/>
<path fill="#87A09D" d="M30.737,6.014c0,0-0.209,0.114-0.288,0.568c-0.065,0.373,0.441,0.896,1.106,1.04
	c1.01,0.219,2.125-1.148,1.746-1.95c-0.077-0.163-0.455-0.414-0.865-0.493C31.885,5.073,30.737,6.014,30.737,6.014z"/>
<ellipse transform="matrix(0.9224 -0.3863 0.3863 0.9224 0.2675 12.6462)" fill="#080907" cx="31.597" cy="5.658" rx="1.383" ry="1.419"/>
</svg>
