<?xml version="1.0" encoding="utf-8"?>
<!-- Generator: Adobe Illustrator 17.0.0, SVG Export Plug-In . SVG Version: 6.00 Build 0)  -->
<!DOCTYPE svg PUBLIC "-//W3C//DTD SVG 1.1//EN" "http://www.w3.org/Graphics/SVG/1.1/DTD/svg11.dtd">
<svg version="1.1" id="Layer_1" xmlns="http://www.w3.org/2000/svg" xmlns:xlink="http://www.w3.org/1999/xlink" x="0px" y="0px"
	 width="95.452px" height="44.541px" viewBox="0 0 95.452 44.541" enable-background="new 0 0 95.452 44.541" xml:space="preserve">
<g>
	
		<image overflow="visible" opacity="0.2" width="70" height="68" xlink:href="89D27A63A51909B5.png"  transform="matrix(0.48 0 0 0.48 48.373 11.9011)">
	</image>
	<g>
		<path fill="#D0E5F7" d="M75.765,26.992c0.663,5.655-3.572,10.786-9.461,11.46c-5.888,0.675-11.2-3.362-11.863-9.017
			s3.572-10.786,9.461-11.46S75.102,21.337,75.765,26.992z"/>
	</g>
</g>
<g>
	
		<image overflow="visible" opacity="0.2" width="38" height="38" xlink:href="89D27A63A51909B7.png"  transform="matrix(0.48 0 0 0.48 55.7782 17.2462)">
	</image>
	<g>
		<path fill="#121212" d="M67.883,25.84c0.189,1.614-1.019,3.078-2.7,3.271c-1.68,0.193-3.196-0.96-3.385-2.573
			c-0.189-1.614,1.019-3.078,2.7-3.271C66.178,23.075,67.694,24.227,67.883,25.84z"/>
	</g>
</g>
<g>
	
		<image overflow="visible" opacity="0.2" width="70" height="68" xlink:href="89D27A63A51909B2.png"  transform="matrix(0.48 0 0 0.48 18.0268 11.0074)">
	</image>
	<g>
		<ellipse fill="#D0E5F7" cx="34.76" cy="27.315" rx="10.733" ry="10.307"/>
	</g>
</g>
<g>
	
		<image overflow="visible" opacity="0.2" width="38" height="38" xlink:href="89D27A63A51909B3.png"  transform="matrix(0.48 0 0 0.48 25.6718 16.3324)">
	</image>
	<g>
		<ellipse fill="#121212" cx="34.735" cy="25.274" rx="3.063" ry="2.941"/>
	</g>
</g>
<g>
	
		<image overflow="visible" opacity="0.2" width="74" height="43" xlink:href="89D27A63A51909BD.png"  transform="matrix(0.48 0 0 0.48 47.795 25.6099)">
	</image>
	<g>
		<g>
			<path fill="#C1A7B3" d="M65.789,39.86c5.802-0.293,10.434-4.077,11.195-8.25l-23.189,1.172
				C54.982,36.856,59.987,40.153,65.789,39.86z"/>
		</g>
	</g>
</g>
<g>
	
		<image overflow="visible" opacity="0.2" width="74" height="42" xlink:href="89D27A63A51909BF.png"  transform="matrix(0.48 0 0 0.48 16.9737 24.8871)">
	</image>
	<g>
		<g>
			<path fill="#C1A7B3" d="M34.132,39.001c5.798,0.369,10.783-2.763,12.013-6.639l-23.171-1.475
				C23.69,34.887,28.334,38.632,34.132,39.001z"/>
		</g>
	</g>
</g>
<g>
	<path fill="#ECCDDB" d="M65.765,39.453c5.802-0.293,10.458-3.67,11.219-7.843l-23.189,1.172
		C54.982,36.856,59.963,39.746,65.765,39.453z"/>
</g>
<g>
	<path fill="#ECCDDB" d="M34.108,38.555c5.798,0.369,10.807-2.317,12.037-6.193l-23.171-1.475
		C23.69,34.887,28.31,38.186,34.108,38.555z"/>
</g>
<g>
	
		<image overflow="visible" opacity="0.1" width="104" height="41" xlink:href="89D27A63A51909B0.png"  transform="matrix(0.48 0 0 0.48 0 11.2686)">
	</image>
	<g>
		
			<linearGradient id="SVGID_1_" gradientUnits="userSpaceOnUse" x1="-523.6893" y1="-285.0201" x2="-485.8818" y2="-285.0201" gradientTransform="matrix(0.9865 -0.1638 0.1638 0.9865 569.6225 220.5648)">
			<stop  offset="0" style="stop-color:#5B8D94"/>
			<stop  offset="0.1376" style="stop-color:#5F8794"/>
			<stop  offset="0.5398" style="stop-color:#697996"/>
			<stop  offset="0.8392" style="stop-color:#6E6D97"/>
			<stop  offset="1" style="stop-color:#706998"/>
		</linearGradient>
		<path fill="url(#SVGID_1_)" d="M42.956,17.269c0.179,0.63,1.042,2.421,0.682,2.969c-0.815,1.239-4.311,1.265-5.79,1.481
			c-2.112,0.308-6.408,0.124-8.531,0.339c-2.008,0.204-5.974,0.981-7.966,1.308c-1.077,0.177-3.232,0.531-4.309,0.707
			c-1.045,0.171-3.12,0.668-4.179,0.686c-0.796,0.013-2.36-0.424-3.155-0.41c-0.529,0.009-1.574,0.461-2.089,0.343
			C7.208,24.597,6,23.335,6,23.335s1.423,0.195,1.815,0.131L42.956,17.269z"/>
	</g>
</g>
<g>
	
		<image overflow="visible" opacity="0.1" width="104" height="64" xlink:href="89D27A63A51909B1.png"  transform="matrix(0.48 0 0 0.48 0 0)">
	</image>
	<g>
		
			<linearGradient id="SVGID_2_" gradientUnits="userSpaceOnUse" x1="-523.6893" y1="-291.9219" x2="-486.0196" y2="-291.9219" gradientTransform="matrix(0.9865 -0.1638 0.1638 0.9865 569.6225 220.5648)">
			<stop  offset="0" style="stop-color:#7FC1C9"/>
			<stop  offset="0.1376" style="stop-color:#82B6C7"/>
			<stop  offset="0.5398" style="stop-color:#889BC1"/>
			<stop  offset="0.8392" style="stop-color:#8C8ABE"/>
			<stop  offset="1" style="stop-color:#8E84BF"/>
		</linearGradient>
		<path fill="url(#SVGID_2_)" d="M42.956,17.269c-0.495-1.742-1.533-5.35-2.738-6.712c-1.487-1.68-5.64-3.971-7.854-4.413
			c-2.793-0.558-8.553,0.644-11.317,1.327c-0.623,0.154-1.775,0.755-2.394,0.923c-0.638,0.173-2.612,0.429-2.612,0.429
			s1.275,0.529,1.719,0.646c0.303,0.08,0.927,0.212,1.24,0.194c0.631-0.035,2.438-0.665,2.438-0.665s-0.814,0.97-1.132,1.247
			c-0.467,0.406-1.587,0.983-2.046,1.397c-0.677,0.609-1.914,1.979-2.352,2.773c-0.212,0.385-0.288,1.305-0.523,1.677
			c-0.379,0.6-1.413,1.706-2.09,1.935c-0.486,0.164-1.592,0.043-2.046-0.195c-0.524-0.275-1.511-1.807-1.511-1.807
			s0.128,1.332,0.293,1.742c0.148,0.367,0.544,1.117,0.892,1.312c0.531,0.298,2.437,0.13,2.437,0.13s-0.342,0.969-0.61,1.161
			c-0.455,0.327-1.657,0.371-2.22,0.364c-0.67-0.008-2.078-0.125-2.633-0.496c-0.417-0.279-1.087-1.678-1.087-1.678
			s0.085,1.093,0.239,1.42c0.163,0.346,0.685,0.942,1,1.162c0.376,0.262,1.269,0.55,1.719,0.646
			c0.432,0.092,1.763,0.109,1.763,0.109s-0.483,0.54-0.697,0.645c-0.445,0.217-1.469,0.241-1.959,0.322
			c-0.326,0.054-0.979,0.161-1.306,0.214C7.175,23.142,6,23.335,6,23.335s0.96,0.874,1.37,0.969c0.516,0.118,1.56-0.334,2.089-0.343
			c0.796-0.013,2.36,0.424,3.155,0.41c1.059-0.018,3.134-0.514,4.179-0.686c1.077-0.177,3.232-0.531,4.309-0.707
			c1.991-0.327,5.958-1.104,7.966-1.308c2.123-0.216,6.42-0.031,8.531-0.339c1.479-0.216,4.975-0.242,5.79-1.481
			C43.751,19.301,43.135,17.898,42.956,17.269z"/>
	</g>
</g>
<g>
	
		<image overflow="visible" opacity="0.1" width="103" height="62" xlink:href="89D27A63A51909B6.png"  transform="matrix(0.48 0 0 0.48 45.3302 3.1433)">
	</image>
	<g>
		
			<linearGradient id="SVGID_3_" gradientUnits="userSpaceOnUse" x1="854.5443" y1="298.169" x2="849.8565" y2="313.252" gradientTransform="matrix(0.9754 0.2204 -0.2204 0.9754 -694.3201 -465.3872)">
			<stop  offset="0" style="stop-color:#5B8D94"/>
			<stop  offset="0.1376" style="stop-color:#5F8794"/>
			<stop  offset="0.5398" style="stop-color:#697996"/>
			<stop  offset="0.8392" style="stop-color:#6E6D97"/>
			<stop  offset="1" style="stop-color:#706998"/>
		</linearGradient>
		<path fill="url(#SVGID_3_)" d="M87.344,23.412c0.255-0.041,1.122-0.935,1.122-0.935s-0.047,0.892-0.174,1.084
			c-0.333,0.506-1.644,1.451-2.191,1.719c-1.117,0.548-3.549,1.468-4.792,1.371c-0.946-0.074-2.604-1.145-3.434-1.599
			c-1.109-0.605-3.076-1.295-4.324-1.51c-0.831-0.143-2.427-0.384-3.548-0.401c-0.902-0.014-2.385,0.313-3.285,0.251
			c-3.433-0.236-10.36-1.458-13.428-2.999c-0.57-0.286-1.825-1.04-1.927-1.664c-0.448-2.747,3.508-7.866,5.721-9.586l18.748,11.756
			L87.344,23.412z"/>
	</g>
</g>
<g>
	
		<image overflow="visible" opacity="0.1" width="104" height="67" xlink:href="EB6BB066DC9E673E.png"  transform="matrix(0.48 0 0 0.48 45.532 0.1201)">
	</image>
	<g>
		
			<linearGradient id="SVGID_4_" gradientUnits="userSpaceOnUse" x1="857.0526" y1="289.7917" x2="849.9203" y2="312.74" gradientTransform="matrix(0.9754 0.2204 -0.2204 0.9754 -694.3201 -465.3872)">
			<stop  offset="0" style="stop-color:#7FC1C9"/>
			<stop  offset="0.1376" style="stop-color:#82B6C7"/>
			<stop  offset="0.5398" style="stop-color:#889BC1"/>
			<stop  offset="0.8392" style="stop-color:#8C8ABE"/>
			<stop  offset="1" style="stop-color:#8E84BF"/>
		</linearGradient>
		<path fill="url(#SVGID_4_)" d="M51.567,18.26c-0.448-2.747,3.508-7.866,5.721-9.586c1.736-1.349,6.249-2.384,8.452-2.538
			c2.184-0.153,6.504,0.917,8.655,1.321c0.878,0.165,2.604,0.916,3.486,0.779c0.449-0.07,1.566-0.915,1.566-0.915
			s-0.157,0.893-0.296,1.199c-0.264,0.582-1.666,1.448-1.666,1.448s0.48,0.478,0.687,0.556c0.691,0.26,2.235,0.281,2.957,0.124
			c0.633-0.137,2.304-1.171,2.304-1.171s-0.127,1.268-0.367,1.604c-0.297,0.416-0.9,1.512-1.4,1.636
			c-0.422,0.105-2.4,0.734-2.4,0.734s1.237,1.095,1.733,1.326c0.659,0.307,2.113,0.607,2.841,0.634
			c0.461,0.018,2.636-0.894,2.636-0.894s-0.858,1.576-1.074,1.779c-0.442,0.414-1.791,0.419-2.399,0.403
			c-0.86-0.023-3.357-0.75-3.357-0.75s0.174,1.049,0.374,1.333c0.226,0.321,0.907,0.795,1.284,0.915
			c2.114,0.67,3.678,0.526,4.224,0.315c0.746-0.288,1.895-0.87,2.528-1.356c0.241-0.185,0.979-0.72,0.979-0.72
			s-0.263,1.148-0.35,1.531c-0.131,0.574-0.244,1.778-0.525,2.297c-0.274,0.504-1.09,1.033-1.613,1.278
			c-0.407,0.19-2.399,0.204-2.399,0.204s1.242,1.029,1.506,1.129c0.434,0.164,1.435,0.143,1.893,0.069
			c0.255-0.041,0.921-0.465,0.921-0.465s-0.078,0.701-0.204,0.893c-0.333,0.506-1.411,1.172-1.958,1.44
			c-1.117,0.548-3.549,1.468-4.792,1.371c-0.946-0.074-2.604-1.145-3.434-1.599c-1.109-0.605-3.076-1.295-4.324-1.51
			c-0.831-0.143-2.427-0.384-3.548-0.401c-0.902-0.014-2.385,0.313-3.285,0.251c-3.433-0.236-10.36-1.458-13.428-2.999
			C52.923,19.637,51.669,18.884,51.567,18.26z"/>
	</g>
</g>
</svg>
