<?xml version="1.0" encoding="utf-8"?>
<!-- Generator: Adobe Illustrator 17.0.0, SVG Export Plug-In . SVG Version: 6.00 Build 0)  -->
<!DOCTYPE svg PUBLIC "-//W3C//DTD SVG 1.1//EN" "http://www.w3.org/Graphics/SVG/1.1/DTD/svg11.dtd">
<svg version="1.1" id="Layer_1" xmlns="http://www.w3.org/2000/svg" xmlns:xlink="http://www.w3.org/1999/xlink" x="0px" y="0px"
	 width="59.647px" height="39.357px" viewBox="0 0 59.647 39.357" enable-background="new 0 0 59.647 39.357" xml:space="preserve">
<path fill="#282828" d="M19.476,33.025c0,0-3.189-4.681-3.751-6.463c-0.429-1.36-0.485-5.685-0.485-5.685h-2.227
	c0,0,0.054,4.651,0.604,6.074c0.682,1.764,3.278,6.074,3.278,6.074H19.476z"/>
<path fill="#282828" d="M37.969,33.025h1.242c0,0,1.063-1.426,1.272-1.974c0.412-1.083,0.718-4.578,0.718-4.578l-2.473-0.539
	c0,0,0.151,3.31,0,4.399C38.633,31.025,37.969,33.025,37.969,33.025z"/>
<g>
	
		<image overflow="visible" opacity="0.2" width="39" height="51" xlink:href="8C80CF2C4EA85110.png"  transform="matrix(0.48 0 0 0.48 7.3466 14.8772)">
	</image>
	<g>
		<linearGradient id="SVGID_1_" gradientUnits="userSpaceOnUse" x1="19.8186" y1="26.9511" x2="13.3466" y2="26.9511">
			<stop  offset="0" style="stop-color:#A0D9D5"/>
			<stop  offset="0.2954" style="stop-color:#7ECAC7"/>
			<stop  offset="1" style="stop-color:#00AFAA"/>
		</linearGradient>
		<path fill="url(#SVGID_1_)" d="M19.819,33.025c0,0-2.629-4.629-3.232-6.398c-0.838-2.461-1.005-5.75-1.005-5.75h-2.227
			c0,0-0.126,3.992,0.604,6.074c0.627,1.785,3.28,6.074,3.28,6.074H19.819z"/>
	</g>
</g>
<g>
	
		<image overflow="visible" opacity="0.2" width="32" height="40" xlink:href="8C80CF2C4EA85111.png"  transform="matrix(0.48 0 0 0.48 32.3118 19.9334)">
	</image>
	<g>
		<linearGradient id="SVGID_2_" gradientUnits="userSpaceOnUse" x1="41.5524" y1="29.4792" x2="38.3118" y2="29.4792">
			<stop  offset="0" style="stop-color:#A0D9D5"/>
			<stop  offset="0.2954" style="stop-color:#7ECAC7"/>
			<stop  offset="1" style="stop-color:#00AFAA"/>
		</linearGradient>
		<path fill="url(#SVGID_2_)" d="M38.312,33.025h2.044c0,0,0.439-0.488,0.94-2.185c0.328-1.111,0.247-4.367,0.247-4.367
			l-2.473-0.539c0,0,0.151,3.31,0,4.399C38.975,31.025,38.312,33.025,38.312,33.025z"/>
	</g>
</g>
<ellipse fill="#282828" cx="13.617" cy="14.627" rx="7.812" ry="8.016"/>
<g>
	
		<image overflow="visible" opacity="0.2" width="57" height="58" xlink:href="8C80CF2C4EA85117.png"  transform="matrix(0.48 0 0 0.48 0 0.8109)">
	</image>
	<g>
		<ellipse fill="#53C2B6" cx="13.617" cy="14.627" rx="7.617" ry="7.816"/>
	</g>
</g>
<ellipse transform="matrix(0.9224 -0.3863 0.3863 0.9224 -4.5871 6.3869)" fill="#E6E8EE" cx="13.597" cy="14.606" rx="7.076" ry="7.261"/>
<linearGradient id="SVGID_3_" gradientUnits="userSpaceOnUse" x1="9.6573" y1="14.8011" x2="17.5359" y2="14.8011">
	<stop  offset="0" style="stop-color:#1D0029"/>
	<stop  offset="0.6162" style="stop-color:#316B7A"/>
	<stop  offset="1" style="stop-color:#00AFAA"/>
</linearGradient>
<path fill="url(#SVGID_3_)" d="M17.215,13.286c0.859,2.05-0.065,4.391-2.063,5.228c-1.998,0.837-4.314-0.147-5.173-2.197
	c-0.859-2.05,0.065-4.391,2.063-5.228S16.356,11.235,17.215,13.286z"/>
<path fill="#AABFBC" d="M11.893,12.065c-0.146,0.02-0.392,0.272-0.417,0.417c-0.017,0.099,0.079,0.332,0.175,0.362
	c0.109,0.033,0.329-0.135,0.392-0.229c0.061-0.089,0.11-0.329,0.065-0.427C12.083,12.131,11.955,12.057,11.893,12.065z"/>
<path fill="#87A09D" d="M12.455,14.819c0,0-0.259,0.142-0.356,0.704c-0.08,0.462,0.547,1.11,1.37,1.289
	c1.251,0.272,2.631-1.421,2.163-2.415c-0.095-0.202-0.563-0.512-1.071-0.61C13.877,13.654,12.455,14.819,12.455,14.819z"/>
<ellipse transform="matrix(0.9224 -0.3863 0.3863 0.9224 -4.5049 6.3396)" fill="#080907" cx="13.52" cy="14.378" rx="1.713" ry="1.757"/>
<ellipse fill="#282828" cx="41.906" cy="17.594" rx="11.588" ry="11.89"/>
<g>
	
		<image overflow="visible" opacity="0.2" width="73" height="74" xlink:href="8C80CF2C4EA85112.png"  transform="matrix(0.48 0 0 0.48 24.6075 0)">
	</image>
	<g>
		<ellipse fill="#53C2B6" cx="41.906" cy="17.594" rx="11.298" ry="11.593"/>
	</g>
</g>
<ellipse transform="matrix(0.9224 -0.3863 0.3863 0.9224 -3.5337 17.5417)" fill="#E6E8EE" cx="41.876" cy="17.563" rx="10.497" ry="10.771"/>
<linearGradient id="SVGID_4_" gradientUnits="userSpaceOnUse" x1="36.0325" y1="17.8523" x2="47.7191" y2="17.8523">
	<stop  offset="0" style="stop-color:#1D0029"/>
	<stop  offset="0.6162" style="stop-color:#316B7A"/>
	<stop  offset="1" style="stop-color:#00AFAA"/>
</linearGradient>
<path fill="url(#SVGID_4_)" d="M47.243,15.604c1.274,3.042-0.096,6.514-3.06,7.755c-2.964,1.242-6.4-0.218-7.674-3.259
	s0.096-6.514,3.06-7.755S45.969,12.563,47.243,15.604z"/>
<path fill="#AABFBC" d="M39.349,13.794c-0.217,0.029-0.582,0.403-0.618,0.619c-0.025,0.147,0.117,0.493,0.259,0.536
	c0.161,0.049,0.487-0.2,0.582-0.339c0.09-0.133,0.163-0.488,0.097-0.634C39.631,13.892,39.44,13.781,39.349,13.794z"/>
<path fill="#87A09D" d="M40.182,17.879c0,0-0.384,0.21-0.529,1.044c-0.119,0.685,0.811,1.646,2.032,1.911
	c1.855,0.403,3.903-2.108,3.208-3.582c-0.141-0.299-0.836-0.76-1.588-0.905C42.291,16.151,40.182,17.879,40.182,17.879z"/>
<ellipse transform="matrix(0.9224 -0.3863 0.3863 0.9224 -3.4118 17.4716)" fill="#080907" cx="41.762" cy="17.224" rx="2.54" ry="2.607"/>
</svg>
