<?xml version="1.0" encoding="utf-8"?>
<!-- Generator: Adobe Illustrator 17.0.0, SVG Export Plug-In . SVG Version: 6.00 Build 0)  -->
<!DOCTYPE svg PUBLIC "-//W3C//DTD SVG 1.1//EN" "http://www.w3.org/Graphics/SVG/1.1/DTD/svg11.dtd">
<svg version="1.1" id="Layer_1" xmlns="http://www.w3.org/2000/svg" xmlns:xlink="http://www.w3.org/1999/xlink" x="0px" y="0px"
	 width="71.734px" height="27.621px" viewBox="0 0 71.734 27.621" enable-background="new 0 0 71.734 27.621" xml:space="preserve">
<path opacity="0.6" fill="#181A1C" d="M28.768,12.39c0,0-0.035-0.995-0.103-1.319c-0.081-0.384-0.677-1.119-0.523-1.479
	c0.544-1.271,3.672-2.116,5.046-2.265c1.824-0.198,5.608,0.558,7.185,1.496c0.28,0.166,0.842,0.993,0.842,0.993l-0.341,1.228
	c0,0-0.617-1.149-0.969-1.382c-1.43-0.945-5.002-1.588-6.708-1.418c-1.131,0.113-3.721,0.759-4.176,1.801
	c-0.098,0.223,0.285,0.679,0.325,0.92c0.105,0.635-0.184,2.711-0.184,2.711l-0.199,0.177L28.768,12.39z"/>
<path opacity="0.6" fill="#181A1C" d="M3.596,11.555c0,0-1.905-0.188-2.532-0.093c-0.263,0.04-0.856,0.132-1.003,0.354
	c-0.103,0.156-0.059,0.572,0.002,0.75c0.053,0.155,0.249,0.458,0.401,0.52c0.292,0.119,0.938-0.131,1.252-0.139
	c0.413-0.011,1.649,0.097,1.649,0.097L3.596,11.555z"/>
<path opacity="0.6" fill="#181A1C" d="M66.226,9.826c0,0,1.152-0.128,1.537-0.118c0.883,0.022,2.706,0.074,3.506,0.449
	c0.121,0.057,0.355,0.225,0.403,0.349c0.1,0.261,0.096,0.957-0.139,1.109c-0.155,0.1-0.506-0.094-0.889-0.177
	c-0.876-0.191-2.366-0.409-3.265-0.432c-0.193-0.005-0.877,0.063-0.877,0.063L66.226,9.826z"/>
<ellipse fill="#410C33" cx="51.705" cy="8.261" rx="6.876" ry="7.055"/>
<ellipse fill="#E6E8EE" cx="51.681" cy="8.255" rx="6.421" ry="6.589"/>
<ellipse fill="#EBB4D3" cx="51.597" cy="7.056" rx="3.537" ry="3.629"/>
<path fill="#E4E9F0" d="M50.408,5.255c0.018-0.134-0.146-0.414-0.269-0.471c-0.084-0.039-0.314-0.011-0.364,0.067
	c-0.056,0.088,0.04,0.324,0.108,0.404c0.065,0.076,0.265,0.177,0.364,0.162C50.303,5.408,50.401,5.312,50.408,5.255z"/>
<path fill="#DEA1C8" d="M49.946,7.056c0,0-0.808,0.415-0.862,0.685c-0.106,0.533,0.585,1.627,1.053,1.903
	c0.5,0.295,1.81,0.274,2.322,0c0.428-0.229,1.02-1.134,1.077-1.616c0.031-0.257-0.144-0.824-0.356-0.972
	C52.518,6.592,49.946,7.056,49.946,7.056z"/>
<ellipse fill="#080907" cx="51.681" cy="6.677" rx="1.544" ry="1.584"/>
<ellipse fill="#410C33" cx="17.91" cy="12.381" rx="9.753" ry="10.008"/>
<ellipse fill="#E6E8EE" cx="17.876" cy="12.373" rx="9.108" ry="9.346"/>
<ellipse fill="#EBB4D3" cx="17.757" cy="10.671" rx="5.017" ry="5.148"/>
<path fill="#E4E9F0" d="M16.07,8.117c0.026-0.191-0.207-0.587-0.382-0.668c-0.119-0.055-0.446-0.015-0.516,0.095
	c-0.079,0.125,0.057,0.46,0.153,0.573c0.092,0.107,0.376,0.252,0.516,0.229C15.921,8.334,16.059,8.197,16.07,8.117z"/>
<path fill="#DEA1C8" d="M15.414,10.671c0,0-1.146,0.589-1.222,0.971c-0.151,0.756,0.83,2.308,1.494,2.699
	c0.709,0.418,2.567,0.389,3.293,0c0.607-0.325,1.446-1.608,1.528-2.292c0.043-0.364-0.204-1.169-0.505-1.379
	C19.062,10.014,15.414,10.671,15.414,10.671z"/>
<ellipse fill="#080907" cx="17.876" cy="10.134" rx="2.19" ry="2.247"/>
<g>
	
		<image overflow="visible" opacity="0.1" width="65" height="40" xlink:href="3795A7984323516A.png"  transform="matrix(0.48 0 0 0.48 35.1126 -6)">
	</image>
	<g>
		<g>
			<path fill="#C1A7B3" d="M50.938,0.015c4.753,0.243,8.547,3.379,9.17,6.838L41.113,5.882C42.085,2.504,46.185-0.228,50.938,0.015z
				"/>
		</g>
	</g>
</g>
<g>
	
		<image overflow="visible" opacity="0.1" width="74" height="43" xlink:href="3795A7984323516E.png"  transform="matrix(0.48 0 0 0.48 -0.3152 -4.0755)">
	</image>
	<g>
		<g>
			<path fill="#C1A7B3" d="M16.87,1.954c5.812-0.374,10.809,2.803,12.042,6.734L5.685,10.185C6.403,6.128,11.059,2.329,16.87,1.954z
				"/>
		</g>
	</g>
</g>
<g>
	
		<image overflow="visible" opacity="0.1" width="65" height="39" xlink:href="3795A79843235169.png"  transform="matrix(0.48 0 0 0.48 35.1126 -5.6649)">
	</image>
	<g>
		<g>
			<path fill="#ECCDDB" d="M50.918,0.352c4.753,0.243,8.567,3.042,9.19,6.501L41.113,5.882C42.085,2.504,46.165,0.109,50.918,0.352z
				"/>
		</g>
	</g>
</g>
<g>
	
		<image overflow="visible" opacity="0.1" width="74" height="42" xlink:href="3795A7984323516B.png"  transform="matrix(0.48 0 0 0.48 -0.3152 -3.6271)">
	</image>
	<g>
		<g>
			<path fill="#ECCDDB" d="M16.846,2.407c5.812-0.374,10.834,2.35,12.066,6.281L5.685,10.185C6.403,6.128,11.034,2.782,16.846,2.407
				z"/>
		</g>
	</g>
</g>
<path opacity="0.6" fill="#181A1C" d="M28.437,10.222c-2.411-6.821-9.829-10.419-16.571-8.037
	C5.125,4.568,1.615,12.028,4.025,18.849c2.411,6.821,9.829,10.419,16.571,8.037C27.337,24.504,30.848,17.043,28.437,10.222z
	 M20.306,26.067c-6.294,2.224-13.221-1.135-15.472-7.504C2.584,12.195,5.862,5.229,12.156,3.004s13.221,1.135,15.472,7.504
	C29.878,16.877,26.601,23.843,20.306,26.067z"/>
<ellipse transform="matrix(0.9429 -0.3332 0.3332 0.9429 -3.9159 6.239)" opacity="0.5" fill="#434A56" cx="16.231" cy="14.536" rx="12.087" ry="12.23"/>
<ellipse transform="matrix(0.9429 -0.3332 0.3332 0.9429 -1.2904 18.6468)" opacity="0.5" fill="#434A56" cx="53.717" cy="13.086" rx="12.087" ry="12.23"/>
<path opacity="0.6" fill="#181A1C" d="M65.923,8.772c-2.411-6.821-9.829-10.419-16.571-8.037
	c-6.741,2.382-10.252,9.843-7.841,16.664c2.411,6.821,9.829,10.419,16.571,8.037C64.823,23.053,68.333,15.593,65.923,8.772z
	 M57.792,24.617c-6.294,2.224-13.221-1.135-15.472-7.504c-2.251-6.369,1.027-13.335,7.321-15.559s13.221,1.135,15.472,7.504
	C67.364,15.427,64.086,22.393,57.792,24.617z"/>
</svg>
