<?xml version="1.0" encoding="utf-8"?>
<!-- Generator: Adobe Illustrator 17.0.0, SVG Export Plug-In . SVG Version: 6.00 Build 0)  -->
<!DOCTYPE svg PUBLIC "-//W3C//DTD SVG 1.1//EN" "http://www.w3.org/Graphics/SVG/1.1/DTD/svg11.dtd">
<svg version="1.1" id="Layer_1" xmlns="http://www.w3.org/2000/svg" xmlns:xlink="http://www.w3.org/1999/xlink" x="0px" y="0px"
	 width="50.134px" height="28.924px" viewBox="0 0 50.134 28.924" enable-background="new 0 0 50.134 28.924" xml:space="preserve">
<path fill="#282828" d="M16.117,28.924c0,0-3.189-4.681-3.751-6.463c-0.429-1.36-0.485-5.685-0.485-5.685H9.653
	c0,0,0.054,4.651,0.604,6.074c0.682,1.764,3.278,6.074,3.278,6.074H16.117z"/>
<path fill="#282828" d="M34.61,28.924h1.242c0,0,1.063-1.426,1.272-1.974c0.412-1.083,0.718-4.578,0.718-4.578l-2.473-0.539
	c0,0,0.151,3.31,0,4.399C35.273,26.924,34.61,28.924,34.61,28.924z"/>
<linearGradient id="SVGID_1_" gradientUnits="userSpaceOnUse" x1="16.4592" y1="22.8498" x2="9.9872" y2="22.8498">
	<stop  offset="0" style="stop-color:#A0D9D5"/>
	<stop  offset="0.2954" style="stop-color:#7ECAC7"/>
	<stop  offset="1" style="stop-color:#00AFAA"/>
</linearGradient>
<path fill="url(#SVGID_1_)" d="M16.459,28.924c0,0-2.629-4.629-3.232-6.398c-0.838-2.461-1.005-5.75-1.005-5.75H9.996
	c0,0-0.126,3.992,0.604,6.074c0.627,1.785,3.28,6.074,3.28,6.074H16.459z"/>
<linearGradient id="SVGID_2_" gradientUnits="userSpaceOnUse" x1="38.193" y1="25.3779" x2="34.9524" y2="25.3779">
	<stop  offset="0" style="stop-color:#A0D9D5"/>
	<stop  offset="0.2954" style="stop-color:#7ECAC7"/>
	<stop  offset="1" style="stop-color:#00AFAA"/>
</linearGradient>
<path fill="url(#SVGID_2_)" d="M34.952,28.924h2.044c0,0,0.439-0.488,0.94-2.185c0.328-1.111,0.247-4.367,0.247-4.367l-2.473-0.539
	c0,0,0.151,3.31,0,4.399C35.616,26.924,34.952,28.924,34.952,28.924z"/>
<ellipse fill="#282828" cx="10.257" cy="10.525" rx="10.258" ry="10.525"/>
<ellipse fill="#53C2B6" cx="10.257" cy="10.525" rx="10.002" ry="10.263"/>
<ellipse transform="matrix(0.9224 -0.3863 0.3863 0.9224 -3.2614 4.7676)" fill="#E6E8EE" cx="10.231" cy="10.498" rx="9.292" ry="9.534"/>
<linearGradient id="SVGID_3_" gradientUnits="userSpaceOnUse" x1="5.0583" y1="10.7544" x2="15.4034" y2="10.7544">
	<stop  offset="0" style="stop-color:#1D0029"/>
	<stop  offset="0.6162" style="stop-color:#316B7A"/>
	<stop  offset="1" style="stop-color:#00AFAA"/>
</linearGradient>
<path fill="url(#SVGID_3_)" d="M14.982,8.764c1.128,2.692-0.085,5.766-2.709,6.865s-5.665-0.193-6.793-2.885
	s0.085-5.766,2.709-6.865S13.854,6.072,14.982,8.764z"/>
<path fill="#AABFBC" d="M7.994,7.162C7.802,7.187,7.479,7.519,7.447,7.709C7.425,7.839,7.55,8.146,7.677,8.184
	c0.143,0.044,0.431-0.177,0.515-0.3c0.08-0.117,0.144-0.432,0.085-0.561C8.244,7.249,8.075,7.151,7.994,7.162z"/>
<path fill="#87A09D" d="M8.732,10.778c0,0-0.34,0.186-0.468,0.924c-0.105,0.606,0.718,1.457,1.799,1.692
	c1.642,0.357,3.455-1.866,2.84-3.171c-0.125-0.265-0.74-0.673-1.406-0.801C10.598,9.248,8.732,10.778,8.732,10.778z"/>
<ellipse transform="matrix(0.9224 -0.3863 0.3863 0.9224 -3.1534 4.7055)" fill="#080907" cx="10.13" cy="10.198" rx="2.249" ry="2.307"/>
<ellipse fill="#282828" cx="38.547" cy="13.492" rx="11.588" ry="11.89"/>
<ellipse fill="#53C2B6" cx="38.547" cy="13.492" rx="11.298" ry="11.593"/>
<ellipse transform="matrix(0.9224 -0.3863 0.3863 0.9224 -2.2101 15.9254)" fill="#E6E8EE" cx="38.516" cy="13.461" rx="10.497" ry="10.771"/>
<linearGradient id="SVGID_4_" gradientUnits="userSpaceOnUse" x1="32.6731" y1="13.751" x2="44.3597" y2="13.751">
	<stop  offset="0" style="stop-color:#1D0029"/>
	<stop  offset="0.6162" style="stop-color:#316B7A"/>
	<stop  offset="1" style="stop-color:#00AFAA"/>
</linearGradient>
<path fill="url(#SVGID_4_)" d="M43.883,11.503c1.274,3.042-0.096,6.514-3.06,7.755c-2.964,1.242-6.4-0.218-7.674-3.259
	c-1.274-3.042,0.096-6.514,3.06-7.755S42.61,8.461,43.883,11.503z"/>
<path fill="#AABFBC" d="M35.99,9.692c-0.217,0.029-0.582,0.403-0.618,0.619c-0.025,0.147,0.117,0.493,0.259,0.536
	c0.161,0.049,0.487-0.2,0.582-0.339c0.09-0.133,0.163-0.488,0.097-0.634C36.271,9.791,36.081,9.68,35.99,9.692z"/>
<path fill="#87A09D" d="M36.823,13.777c0,0-0.384,0.21-0.529,1.044c-0.119,0.685,0.811,1.646,2.032,1.911
	c1.855,0.403,3.903-2.108,3.208-3.582c-0.141-0.299-0.836-0.76-1.588-0.905C38.932,12.049,36.823,13.777,36.823,13.777z"/>
<ellipse transform="matrix(0.9224 -0.3863 0.3863 0.9224 -2.0881 15.8553)" fill="#080907" cx="38.403" cy="13.123" rx="2.54" ry="2.607"/>
</svg>
