<?xml version="1.0" encoding="utf-8"?>
<!-- Generator: Adobe Illustrator 17.0.0, SVG Export Plug-In . SVG Version: 6.00 Build 0)  -->
<!DOCTYPE svg PUBLIC "-//W3C//DTD SVG 1.1//EN" "http://www.w3.org/Graphics/SVG/1.1/DTD/svg11.dtd">
<svg version="1.1" id="Layer_1" xmlns="http://www.w3.org/2000/svg" xmlns:xlink="http://www.w3.org/1999/xlink" x="0px" y="0px"
	 width="63.337px" height="39.048px" viewBox="0 0 63.337 39.048" enable-background="new 0 0 63.337 39.048" xml:space="preserve">
<linearGradient id="SVGID_1_" gradientUnits="userSpaceOnUse" x1="-12561.5527" y1="6.4963" x2="-12545.5254" y2="6.4963" gradientTransform="matrix(1 0 0 1 12568.6211 0)">
	<stop  offset="0" style="stop-color:#92C4DC"/>
	<stop  offset="0.0638" style="stop-color:#9DC8DE"/>
	<stop  offset="0.3169" style="stop-color:#C3D8E8"/>
	<stop  offset="0.5624" style="stop-color:#E0E4EF"/>
	<stop  offset="0.7947" style="stop-color:#F3EDF4"/>
	<stop  offset="1" style="stop-color:#FEF3F7"/>
</linearGradient>
<path fill="url(#SVGID_1_)" d="M7.28,10.783c0.123,0.253,0.658,0.533,0.907,0.662c0.432,0.224,1.363,0.706,1.843,0.625
	c0.37-0.062,0.529-2.357,1.876-5.1c1.373-2.798,4.98-2.828,5.758-2.797C18.917,4.225,22.5,5.523,22.5,5.523s0.645-0.739,0.592-2.073
	c-0.038-0.959-0.152-1.241-0.426-1.528c-0.228-0.238-0.992-0.616-1.252-0.413c-0.259,0.203,0.281,1.037,0.101,1.313
	c-0.158,0.243-0.837,0.523-1.092,0.385c-0.247-0.134-0.501-0.687-0.521-1.151c-0.014-0.326,0.226-0.589,0.071-0.712
	c-0.103-0.081-0.43-0.092-0.522,0c-0.187,0.187,0.144,0.465,0.066,0.719c-0.218,0.711-0.602,0.702-0.797,0.662
	c-0.314-0.064-0.631-0.589-0.653-0.909c-0.01-0.137,0.064-0.524,0.025-0.656c-0.045-0.149-0.383-0.128-0.511-0.041
	c-0.152,0.104,0.058,0.563,0,0.739c-0.094,0.285-0.415,0.941-0.714,0.963c-0.296,0.023-0.716-0.567-0.843-0.835
	c-0.11-0.233,0.094-0.854-0.096-1.028c-0.065-0.059-0.292-0.064-0.353,0c-0.156,0.162,0.059,0.676,0.032,0.899
	c-0.038,0.315-0.076,1.052-0.345,1.22c-0.195,0.122-0.719-0.028-0.908-0.161c-0.25-0.176-0.435-0.779-0.543-1.065
	c-0.058-0.153-0.051-0.561-0.196-0.637c-0.108-0.057-0.405,0.079-0.45,0.193c-0.052,0.13,0.219,0.494,0.26,0.628
	c0.079,0.258,0.227,0.685,0.157,0.945c-0.072,0.265-0.441,0.82-0.715,0.835c-0.293,0.016-0.701-0.631-0.863-0.877
	c-0.155-0.235-0.11-0.91-0.381-0.986c-0.099-0.028-0.296,0.157-0.321,0.257c-0.059,0.237,0.326,0.662,0.385,0.899
	c0.067,0.266,0.281,0.89,0.096,1.092c-0.152,0.166-0.698,0.101-0.899,0c-0.313-0.157-0.486-1.148-0.835-1.124
	c-0.1,0.007-0.196,0.253-0.193,0.353c0.011,0.314,0.536,0.778,0.674,1.06c0.125,0.253,0.523,0.814,0.385,1.06
	c-0.116,0.208-0.7,0.246-0.931,0.193C9.679,5.673,9.3,5.026,8.99,4.973C8.915,4.96,8.724,4.997,8.701,5.069
	C8.615,5.349,9.247,5.757,9.408,6.001C9.55,6.217,9.946,6.642,9.921,6.9C9.907,7.047,9.679,7.312,9.536,7.35
	C9.239,7.428,8.642,7.092,8.38,6.932c-0.131-0.08-0.3-0.449-0.45-0.417C7.811,6.54,7.693,6.85,7.738,6.964
	C7.795,7.111,8.2,7.22,8.328,7.314c0.236,0.174,0.677,0.509,0.759,0.79C9.147,8.311,9.131,8.83,8.958,8.96
	C8.751,9.116,8.181,8.892,7.93,8.827C7.721,8.772,7.307,8.385,7.128,8.506c-0.094,0.064-0.063,0.36,0,0.454
	c0.135,0.204,0.678,0.279,0.899,0.381c0.212,0.098,0.729,0.21,0.835,0.417c0.089,0.174,0.021,0.646-0.128,0.772
	c-0.086,0.073-0.338,0.013-0.45,0c-0.252-0.03-0.785-0.39-0.987-0.237C7.2,10.368,7.226,10.673,7.28,10.783z"/>
<linearGradient id="SVGID_2_" gradientUnits="userSpaceOnUse" x1="-12747.0635" y1="5.9559" x2="-12731.0361" y2="5.9559" gradientTransform="matrix(-1 0 0 1 -12690.6514 0)">
	<stop  offset="0" style="stop-color:#92C4DC"/>
	<stop  offset="0.0638" style="stop-color:#9DC8DE"/>
	<stop  offset="0.3169" style="stop-color:#C3D8E8"/>
	<stop  offset="0.5624" style="stop-color:#E0E4EF"/>
	<stop  offset="0.7947" style="stop-color:#F3EDF4"/>
	<stop  offset="1" style="stop-color:#FEF3F7"/>
</linearGradient>
<path fill="url(#SVGID_2_)" d="M56.201,10.243c-0.123,0.253-0.658,0.533-0.907,0.662c-0.432,0.224-1.363,0.706-1.843,0.625
	c-0.37-0.062-0.529-2.357-1.876-5.1c-1.373-2.798-4.98-2.828-5.758-2.797c-1.254,0.051-4.837,1.349-4.837,1.349
	s-0.645-0.739-0.592-2.073c0.038-0.959,0.152-1.241,0.426-1.528c0.228-0.238,0.992-0.616,1.252-0.413
	c0.259,0.203-0.281,1.037-0.101,1.313c0.158,0.243,0.837,0.523,1.092,0.385c0.247-0.134,0.501-0.687,0.521-1.151
	c0.014-0.326-0.226-0.589-0.071-0.712c0.103-0.081,0.43-0.092,0.522,0c0.187,0.187-0.144,0.465-0.066,0.719
	c0.218,0.711,0.602,0.702,0.797,0.662c0.314-0.064,0.631-0.589,0.653-0.909c0.01-0.137-0.064-0.524-0.025-0.656
	c0.045-0.149,0.383-0.128,0.511-0.041c0.152,0.104-0.058,0.563,0,0.739c0.094,0.285,0.415,0.941,0.714,0.963
	c0.296,0.023,0.716-0.567,0.843-0.835c0.11-0.233-0.094-0.854,0.096-1.028c0.065-0.059,0.292-0.064,0.353,0
	c0.156,0.162-0.059,0.676-0.032,0.899c0.038,0.315,0.076,1.052,0.345,1.22c0.195,0.122,0.719-0.028,0.908-0.161
	c0.25-0.176,0.435-0.779,0.543-1.065c0.058-0.153,0.051-0.561,0.196-0.637c0.108-0.057,0.405,0.079,0.45,0.193
	c0.052,0.13-0.219,0.494-0.26,0.628c-0.079,0.258-0.227,0.685-0.157,0.945c0.072,0.265,0.441,0.82,0.715,0.835
	c0.293,0.016,0.701-0.631,0.863-0.877c0.155-0.235,0.11-0.91,0.381-0.986c0.099-0.028,0.296,0.157,0.321,0.257
	c0.059,0.237-0.326,0.662-0.385,0.899c-0.067,0.266-0.281,0.89-0.096,1.092c0.152,0.166,0.698,0.101,0.899,0
	c0.313-0.157,0.486-1.148,0.835-1.124c0.1,0.007,0.196,0.253,0.193,0.353c-0.011,0.314-0.536,0.778-0.674,1.06
	c-0.125,0.253-0.523,0.814-0.385,1.06c0.116,0.208,0.7,0.246,0.931,0.193c0.307-0.071,0.685-0.718,0.996-0.771
	c0.075-0.013,0.267,0.024,0.289,0.096c0.086,0.279-0.545,0.688-0.707,0.931c-0.143,0.216-0.538,0.641-0.514,0.899
	c0.014,0.147,0.242,0.412,0.385,0.45c0.297,0.078,0.894-0.258,1.156-0.417c0.131-0.08,0.3-0.449,0.45-0.417
	C55.67,6,55.787,6.31,55.743,6.424c-0.058,0.147-0.463,0.255-0.59,0.349c-0.236,0.174-0.677,0.509-0.759,0.79
	c-0.061,0.208-0.044,0.726,0.128,0.857c0.207,0.156,0.777-0.068,1.028-0.133c0.209-0.054,0.624-0.442,0.803-0.321
	c0.094,0.064,0.063,0.36,0,0.454c-0.135,0.204-0.678,0.279-0.899,0.381c-0.212,0.098-0.729,0.21-0.835,0.417
	c-0.089,0.174-0.021,0.646,0.128,0.772c0.086,0.073,0.338,0.013,0.45,0c0.252-0.03,0.785-0.39,0.987-0.237
	C56.281,9.827,56.254,10.133,56.201,10.243z"/>
<g>
	<linearGradient id="SVGID_3_" gradientUnits="userSpaceOnUse" x1="29.996" y1="15.2654" x2="33.7215" y2="15.2654">
		<stop  offset="0" style="stop-color:#001E1E"/>
		<stop  offset="0.0297" style="stop-color:#001F1F"/>
		<stop  offset="0.3777" style="stop-color:#002B2E"/>
		<stop  offset="0.708" style="stop-color:#003237"/>
		<stop  offset="1" style="stop-color:#00343A"/>
	</linearGradient>
	<path fill="url(#SVGID_3_)" stroke="#C4DDE8" stroke-width="0.25" stroke-miterlimit="10" d="M31.042,4.632
		c-0.013-0.163,0.645-0.163,0.653,0c0.182,3.77,2.665,15.249,1.871,20.277c-0.042,0.266-0.343,0.778-0.579,0.908
		c-0.499,0.273-1.777,0.274-2.275,0c-0.203-0.112-0.457-0.555-0.496-0.784C29.347,20.002,31.362,8.711,31.042,4.632z"/>
	<path fill="#282828" d="M23.904,13.509c-1.923,3.002-5.854,3.916-8.78,2.042s-4.776-4.379-1.885-6.466
		c3.538-2.555,6.043-2.738,8.969-0.863S25.827,10.507,23.904,13.509z"/>
	<path fill="#282828" d="M38.372,13.509c1.923,3.002,5.854,3.916,8.78,2.042c2.926-1.874,4.776-4.379,1.885-6.466
		C45.5,6.53,42.994,6.347,40.068,8.221C37.142,10.096,36.448,10.507,38.372,13.509z"/>
	<path fill="#E388B8" d="M23.457,13.327c-1.767,2.759-5.38,3.599-8.068,1.876S11,11.18,13.656,9.262
		c3.251-2.348,5.554-2.516,8.242-0.793S25.224,10.568,23.457,13.327z"/>
	
		<ellipse transform="matrix(0.9967 0.0806 -0.0806 0.9967 1.0003 -1.4349)" fill="#E6E8EE" cx="18.27" cy="11.67" rx="5.384" ry="3.756"/>
	<linearGradient id="SVGID_4_" gradientUnits="userSpaceOnUse" x1="15.0818" y1="11.637" x2="21.0756" y2="11.637">
		<stop  offset="0" style="stop-color:#097172"/>
		<stop  offset="0.0263" style="stop-color:#006F70"/>
		<stop  offset="0.2021" style="stop-color:#006063"/>
		<stop  offset="0.3763" style="stop-color:#005156"/>
		<stop  offset="0.5458" style="stop-color:#00464B"/>
		<stop  offset="0.7091" style="stop-color:#003C42"/>
		<stop  offset="0.8636" style="stop-color:#00363C"/>
		<stop  offset="1" style="stop-color:#00343A"/>
	</linearGradient>
	<path fill="url(#SVGID_4_)" d="M20.583,13.241c-0.909,1.419-2.767,1.851-4.15,0.965s-1.767-2.755-0.858-4.174
		c0.909-1.419,2.767-1.851,4.15-0.965C21.108,9.954,21.492,11.822,20.583,13.241z"/>
	
		<ellipse transform="matrix(0.9743 -0.2253 0.2253 0.9743 -2.132 4.3501)" fill="#080907" cx="17.997" cy="11.518" rx="1.298" ry="1.332"/>
	<path fill="#FAFDFD" d="M17.527,10.599c-0.112-0.004-0.328,0.153-0.365,0.259c-0.025,0.072,0.016,0.258,0.084,0.293
		c0.077,0.039,0.263-0.059,0.322-0.121c0.057-0.059,0.124-0.232,0.103-0.311C17.661,10.673,17.574,10.601,17.527,10.599z"/>
	<path fill="#AABFBC" d="M18.562,12.214c0,0,0.411,0.176,0.572,0.196c0.12,0.015,0.499-0.013,0.499-0.013s-0.134,0.357-0.109,0.511
		c0.02,0.119,0.062,0.403,0.062,0.403s-0.317-0.092-0.505-0.105c-0.127-0.009-0.515,0.068-0.515,0.068s0.126-0.372,0.139-0.506
		C18.72,12.602,18.562,12.214,18.562,12.214z"/>
	<path fill="#E388B8" d="M38.819,13.327c1.767,2.759,5.38,3.599,8.068,1.876s4.389-4.024,1.732-5.942
		c-3.251-2.348-5.554-2.516-8.242-0.793S37.052,10.568,38.819,13.327z"/>
	
		<ellipse transform="matrix(-0.9967 0.0806 -0.0806 -0.9967 88.8092 19.7539)" fill="#E6E8EE" cx="44.006" cy="11.67" rx="5.339" ry="3.725"/>
	<linearGradient id="SVGID_5_" gradientUnits="userSpaceOnUse" x1="41.2003" y1="11.637" x2="47.1941" y2="11.637">
		<stop  offset="0" style="stop-color:#097172"/>
		<stop  offset="0.0263" style="stop-color:#006F70"/>
		<stop  offset="0.2021" style="stop-color:#006063"/>
		<stop  offset="0.3763" style="stop-color:#005156"/>
		<stop  offset="0.5458" style="stop-color:#00464B"/>
		<stop  offset="0.7091" style="stop-color:#003C42"/>
		<stop  offset="0.8636" style="stop-color:#00363C"/>
		<stop  offset="1" style="stop-color:#00343A"/>
	</linearGradient>
	<path fill="url(#SVGID_5_)" d="M41.693,13.241c0.909,1.419,2.767,1.851,4.15,0.965c1.383-0.886,1.767-2.755,0.858-4.174
		c-0.909-1.419-2.767-1.851-4.15-0.965S40.784,11.822,41.693,13.241z"/>
	
		<ellipse transform="matrix(-0.9743 -0.2253 0.2253 -0.9743 84.8243 32.7146)" fill="#080907" cx="44.278" cy="11.518" rx="1.298" ry="1.332"/>
	<path fill="#FAFDFD" d="M43.607,10.796c-0.112-0.004-0.328,0.153-0.365,0.259c-0.025,0.072,0.016,0.258,0.084,0.293
		c0.077,0.039,0.263-0.059,0.322-0.121c0.057-0.059,0.124-0.232,0.103-0.311C43.74,10.87,43.654,10.798,43.607,10.796z"/>
	<path fill="#AABFBC" d="M44.494,12.214c0,0,0.411,0.176,0.572,0.196c0.12,0.015,0.499-0.013,0.499-0.013s-0.134,0.357-0.109,0.511
		c0.02,0.119,0.062,0.403,0.062,0.403s-0.317-0.092-0.505-0.105c-0.127-0.009-0.515,0.068-0.515,0.068s0.126-0.372,0.139-0.506
		C44.652,12.602,44.494,12.214,44.494,12.214z"/>
	<linearGradient id="SVGID_6_" gradientUnits="userSpaceOnUse" x1="6.8395" y1="6.129" x2="22.9636" y2="6.129">
		<stop  offset="0" style="stop-color:#001E1E"/>
		<stop  offset="0.0297" style="stop-color:#001F1F"/>
		<stop  offset="0.3777" style="stop-color:#002B2E"/>
		<stop  offset="0.708" style="stop-color:#003237"/>
		<stop  offset="1" style="stop-color:#00343A"/>
	</linearGradient>
	<path fill="url(#SVGID_6_)" stroke="#FDFDFE" stroke-width="0.1" stroke-miterlimit="10" d="M7.052,10.442
		c0.123,0.254,0.662,0.536,0.912,0.666c0.434,0.226,1.371,0.71,1.854,0.629c0.372-0.063,0.532-2.371,1.887-5.131
		c1.382-2.814,5.01-2.845,5.793-2.814c1.262,0.051,4.866,1.357,4.866,1.357s0.649-0.744,0.596-2.086
		c-0.038-0.965-0.153-1.249-0.429-1.537c-0.229-0.24-0.998-0.62-1.259-0.416c-0.261,0.204,0.282,1.043,0.101,1.321
		c-0.159,0.244-0.843,0.527-1.099,0.388c-0.249-0.135-0.504-0.692-0.524-1.158c-0.014-0.328,0.228-0.593,0.072-0.716
		c-0.103-0.081-0.432-0.093-0.525,0c-0.188,0.188,0.145,0.468,0.067,0.723c-0.219,0.715-0.605,0.706-0.802,0.666
		c-0.316-0.064-0.634-0.593-0.657-0.914c-0.01-0.138,0.065-0.527,0.025-0.66c-0.045-0.149-0.385-0.129-0.514-0.041
		c-0.153,0.105,0.058,0.567,0,0.743c-0.095,0.286-0.418,0.946-0.719,0.969c-0.298,0.023-0.721-0.57-0.848-0.84
		c-0.111-0.235,0.095-0.859-0.097-1.034c-0.066-0.06-0.294-0.064-0.355,0c-0.157,0.163,0.059,0.68,0.032,0.905
		c-0.038,0.317-0.077,1.058-0.347,1.228c-0.196,0.123-0.723-0.028-0.913-0.162c-0.252-0.177-0.438-0.784-0.546-1.072
		c-0.058-0.154-0.051-0.564-0.197-0.641c-0.109-0.057-0.407,0.079-0.452,0.194c-0.052,0.131,0.221,0.497,0.262,0.632
		c0.079,0.259,0.229,0.689,0.158,0.951c-0.072,0.267-0.443,0.825-0.719,0.84c-0.295,0.016-0.705-0.635-0.868-0.882
		c-0.156-0.237-0.11-0.915-0.383-0.992c-0.1-0.028-0.298,0.158-0.323,0.258c-0.06,0.239,0.328,0.666,0.388,0.905
		c0.067,0.267,0.283,0.895,0.097,1.099c-0.153,0.167-0.703,0.102-0.905,0c-0.315-0.158-0.489-1.155-0.84-1.131
		C9.738,2.697,9.642,2.945,9.645,3.046c0.011,0.316,0.539,0.783,0.678,1.066c0.125,0.254,0.526,0.819,0.388,1.066
		c-0.117,0.209-0.704,0.248-0.937,0.194C9.466,5.301,9.085,4.65,8.773,4.597C8.698,4.584,8.505,4.62,8.482,4.694
		C8.395,4.974,9.031,5.385,9.193,5.631C9.337,5.848,9.735,6.276,9.71,6.535C9.696,6.683,9.466,6.95,9.322,6.987
		c-0.299,0.079-0.899-0.259-1.163-0.42c-0.132-0.08-0.301-0.452-0.452-0.42C7.587,6.173,7.468,6.485,7.513,6.6
		c0.058,0.148,0.466,0.257,0.594,0.351C8.344,7.126,8.787,7.463,8.87,7.746c0.061,0.209,0.045,0.731-0.129,0.862
		C8.533,8.765,7.959,8.539,7.707,8.474c-0.21-0.055-0.628-0.445-0.808-0.323c-0.095,0.064-0.063,0.362,0,0.457
		c0.136,0.205,0.682,0.28,0.905,0.383c0.213,0.098,0.733,0.211,0.84,0.42c0.089,0.175,0.021,0.65-0.129,0.777
		c-0.086,0.073-0.34,0.013-0.452,0c-0.253-0.03-0.789-0.393-0.993-0.238C6.972,10.024,6.998,10.331,7.052,10.442z"/>
	
		<linearGradient id="SVGID_7_" gradientUnits="userSpaceOnUse" x1="-12747.1602" y1="5.6674" x2="-12731.0361" y2="5.6674" gradientTransform="matrix(-1 0 0 1 -12690.6514 0)">
		<stop  offset="0" style="stop-color:#001E1E"/>
		<stop  offset="0.0297" style="stop-color:#001F1F"/>
		<stop  offset="0.3777" style="stop-color:#002B2E"/>
		<stop  offset="0.708" style="stop-color:#003237"/>
		<stop  offset="1" style="stop-color:#00343A"/>
	</linearGradient>
	<path fill="url(#SVGID_7_)" stroke="#FDFDFE" stroke-width="0.1" stroke-miterlimit="10" d="M56.296,9.98
		c-0.123,0.254-0.662,0.536-0.912,0.666c-0.434,0.226-1.371,0.71-1.854,0.629c-0.372-0.063-0.532-2.371-1.887-5.131
		c-1.382-2.814-5.01-2.845-5.793-2.814c-1.262,0.051-4.866,1.357-4.866,1.357s-0.649-0.744-0.596-2.086
		c0.038-0.965,0.153-1.249,0.429-1.537c0.229-0.24,0.998-0.62,1.259-0.416c0.261,0.204-0.282,1.043-0.101,1.321
		c0.159,0.244,0.843,0.527,1.099,0.388c0.249-0.135,0.504-0.692,0.524-1.158c0.014-0.328-0.228-0.593-0.072-0.716
		c0.103-0.081,0.432-0.093,0.525,0c0.188,0.188-0.145,0.468-0.067,0.723c0.219,0.715,0.605,0.706,0.802,0.666
		c0.316-0.064,0.634-0.593,0.657-0.914c0.01-0.138-0.065-0.527-0.025-0.66c0.045-0.149,0.385-0.129,0.514-0.041
		c0.153,0.105-0.058,0.567,0,0.743c0.095,0.286,0.418,0.946,0.719,0.969c0.298,0.023,0.721-0.57,0.848-0.84
		c0.111-0.235-0.095-0.859,0.097-1.034c0.066-0.06,0.294-0.064,0.355,0c0.157,0.163-0.059,0.68-0.032,0.905
		c0.038,0.317,0.077,1.058,0.347,1.228C48.463,2.352,48.99,2.2,49.18,2.067c0.252-0.177,0.438-0.784,0.546-1.072
		c0.058-0.154,0.051-0.564,0.197-0.641c0.109-0.057,0.407,0.079,0.452,0.194c0.052,0.131-0.221,0.497-0.262,0.632
		c-0.079,0.259-0.229,0.689-0.158,0.951c0.072,0.267,0.443,0.825,0.719,0.84c0.295,0.016,0.705-0.635,0.868-0.882
		c0.156-0.237,0.11-0.915,0.383-0.992c0.1-0.028,0.298,0.158,0.323,0.258c0.06,0.239-0.328,0.666-0.388,0.905
		c-0.067,0.267-0.283,0.895-0.097,1.099c0.153,0.167,0.703,0.102,0.905,0c0.315-0.158,0.489-1.155,0.84-1.131
		c0.101,0.007,0.197,0.254,0.194,0.355C53.692,2.9,53.164,3.367,53.025,3.65c-0.125,0.254-0.526,0.819-0.388,1.066
		c0.117,0.209,0.704,0.248,0.937,0.194c0.309-0.071,0.689-0.722,1.002-0.775c0.076-0.013,0.268,0.024,0.291,0.097
		c0.087,0.281-0.549,0.692-0.711,0.937c-0.144,0.217-0.542,0.645-0.517,0.905c0.014,0.148,0.244,0.414,0.388,0.452
		c0.299,0.079,0.899-0.259,1.163-0.42c0.132-0.08,0.301-0.452,0.452-0.42c0.12,0.025,0.239,0.338,0.194,0.452
		c-0.058,0.148-0.466,0.257-0.594,0.351c-0.237,0.175-0.681,0.512-0.763,0.795c-0.061,0.209-0.045,0.731,0.129,0.862
		c0.208,0.157,0.782-0.068,1.034-0.134c0.21-0.055,0.628-0.445,0.808-0.323c0.095,0.064,0.063,0.362,0,0.457
		c-0.136,0.205-0.682,0.28-0.905,0.383c-0.213,0.098-0.733,0.211-0.84,0.42c-0.089,0.175-0.021,0.65,0.129,0.777
		c0.086,0.073,0.34,0.013,0.452,0c0.253-0.03,0.789-0.393,0.993-0.238C56.377,9.562,56.35,9.87,56.296,9.98z"/>
	<linearGradient id="SVGID_8_" gradientUnits="userSpaceOnUse" x1="0.1654" y1="28.3585" x2="21.7903" y2="28.3585">
		<stop  offset="0" style="stop-color:#F3E23C"/>
		<stop  offset="0.2508" style="stop-color:#EACD30"/>
		<stop  offset="0.5194" style="stop-color:#E6C026"/>
		<stop  offset="0.7745" style="stop-color:#E4B823"/>
		<stop  offset="1" style="stop-color:#E4B623"/>
	</linearGradient>
	<path fill="url(#SVGID_8_)" stroke="#0D0D0D" stroke-width="0.1" stroke-miterlimit="10" d="M8.283,35.218
		c-0.051,0.553-0.402,0.919-0.744,1.317c-0.249,0.29-0.362,0.698-0.524,1.059c-0.068,0.15-0.108,0.313-0.188,0.459
		c0.092-0.642,0.257-1.25,0.615-1.81c0.189-0.296,0.285-0.656,0.39-0.998c0.114-0.37-0.088-0.547-0.469-0.618
		c-0.044,0.14-0.062,0.287-0.133,0.401c-0.173,0.278-0.323,0.602-0.57,0.794C6.29,36.111,6.06,36.44,5.96,36.894
		c-0.06,0.275-0.183,0.536-0.355,0.772c0.096-0.434,0.167-0.876,0.298-1.3c0.057-0.183,0.206-0.37,0.364-0.484
		c0.436-0.311,0.634-0.747,0.704-1.245c0.017-0.121-0.125-0.264-0.193-0.397c-0.079,0.081-0.162,0.158-0.235,0.244
		c-0.256,0.301-0.465,0.661-0.771,0.896c-0.482,0.37-1.032,0.648-1.21,1.299c-0.026,0.094-0.141,0.164-0.288,0.325
		c0.233-0.73,0.513-1.277,1.048-1.706c0.342-0.274,0.585-0.676,0.852-1.035c0.139-0.188,0.069-0.353-0.123-0.492
		c-0.228-0.165-0.283,0.047-0.398,0.148c-0.174,0.152-0.336,0.333-0.537,0.438c-0.559,0.293-1.059,0.64-1.4,1.188
		c-0.085,0.136-0.221,0.239-0.353,0.341c0.245-0.555,0.531-1.066,1.044-1.437c0.362-0.262,0.681-0.589,1-0.906
		c0.214-0.212,0.092-0.421-0.11-0.542c-0.066-0.039-0.24,0.073-0.35,0.141c-0.393,0.243-0.753,0.564-1.176,0.727
		c-0.384,0.148-0.686,0.331-0.912,0.666c-0.133,0.198-0.291,0.38-0.437,0.569c-0.045-0.045-0.09-0.089-0.135-0.134
		c0.356-0.554,0.704-1.1,1.34-1.42c0.374-0.189,0.705-0.469,1.041-0.726c0.25-0.192,0.252-0.402,0.057-0.532
		c-0.631,0.26-1.226,0.456-1.774,0.743c-0.551,0.289-1.056,0.667-1.61,0.962c0.585-0.5,1.045-1.146,1.851-1.372
		c0.34-0.096,0.628-0.384,0.932-0.594c0.221-0.152,0.215-0.33,0.078-0.462c-0.646,0.164-1.271,0.266-1.85,0.487
		c-0.563,0.215-1.078,0.554-1.637,0.798c0.673-0.467,1.229-1.115,2.103-1.261c0.284-0.047,0.563-0.188,0.816-0.335
		c0.369-0.213,0.384-0.36,0.111-0.824c-0.539,0.642-1.303,0.492-2.004,0.612c-0.387,0.066-0.751,0.266-1.127,0.401
		c-0.143,0.051-0.291,0.089-0.443,0.11c0.677-0.539,1.424-0.874,2.294-0.978c0.394-0.047,0.771-0.266,1.145-0.433
		c0.07-0.031,0.141-0.203,0.115-0.271c-0.029-0.074-0.173-0.143-0.266-0.141c-0.151,0.002-0.3,0.078-0.452,0.097
		c-0.419,0.053-0.84,0.108-1.261,0.132c-0.39,0.022-0.782,0.005-1.108,0.005c0.241-0.195,0.614-0.288,1.029-0.336
		c0.573-0.067,1.138-0.203,1.706-0.312c0.226-0.043,0.291-0.19,0.242-0.402c-0.066-0.284-0.25-0.117-0.399-0.11
		c-0.321,0.013-0.642,0.015-0.963,0.016c-0.653,0.002-1.306,0.001-1.853,0.001c0.437-0.34,1.095-0.231,1.718-0.298
		c0.368-0.04,0.742-0.076,1.096-0.174c0.305-0.084,0.415-0.323,0.255-0.687c-0.686,0.306-1.256-0.116-1.877-0.291
		c-0.304-0.085-0.634-0.083-0.953-0.11c-0.158-0.013-0.318-0.002-0.476-0.047c0.607-0.232,1.203-0.25,1.835-0.059
		c0.378,0.114,0.805,0.087,1.21,0.087c0.227,0,0.273-0.182,0.262-0.391c-0.012-0.233-0.166-0.186-0.317-0.227
		c-0.393-0.106-0.781-0.242-1.159-0.395c-0.507-0.205-1.003-0.436-1.391-0.607c0.526-0.065,1.148,0.117,1.762,0.37
		c0.236,0.097,0.492,0.166,0.745,0.193c0.435,0.046,0.519-0.042,0.59-0.468c-0.852-0.453-1.693-0.901-2.535-1.349
		c-0.006-0.016-0.012-0.031-0.017-0.047c0.293,0.063,0.598,0.093,0.877,0.197c0.422,0.157,0.822,0.374,1.24,0.546
		c0.165,0.068,0.354,0.124,0.526,0.111c0.122-0.009,0.235-0.144,0.351-0.223c-0.075-0.094-0.131-0.235-0.228-0.273
		c-0.432-0.171-0.801-0.397-1.053-0.811c-0.213-0.35-0.544-0.538-0.97-0.551c-0.143-0.004-0.284-0.062-0.508-0.115
		c0.833-0.133,1.409,0.128,1.92,0.67c0.223,0.237,0.595,0.338,0.905,0.489c0.284,0.137,0.471-0.038,0.536-0.269
		c0.028-0.1-0.134-0.28-0.244-0.388C4.2,23.408,3.89,23.12,3.566,22.852c-0.341-0.282-0.704-0.538-1.008-0.767
		c0.579,0.001,1.052,0.353,1.494,0.795c0.205,0.205,0.458,0.369,0.707,0.523C5.1,23.614,5.34,23.49,5.473,23.154
		c-0.553-0.655-1.095-1.297-1.608-1.905c0.311-0.033,0.645,0.145,0.911,0.477c0.249,0.31,0.526,0.599,0.803,0.885
		c0.163,0.168,0.374,0.163,0.501-0.021c0.054-0.078-0.008-0.266-0.062-0.384c-0.122-0.27-0.26-0.534-0.414-0.787
		c-0.265-0.437-0.548-0.863-0.853-1.341c0.267,0.233,0.54,0.421,0.75,0.665c0.311,0.362,0.558,0.778,0.866,1.143
		c0.297,0.352,0.385,0.335,0.775-0.041c-0.07-0.094-0.158-0.186-0.215-0.294c-0.166-0.316-0.329-0.634-0.477-0.959
		c-0.112-0.245-0.17-0.518-0.304-0.748c-0.127-0.218-0.322-0.396-0.505-0.613c0.5,0.09,0.923,0.591,1.075,1.146
		c0.09,0.33,0.226,0.664,0.417,0.945c0.274,0.402,0.399,0.394,0.832,0.116c-0.359-1.002-0.718-2.005-1.06-2.961
		c0.282,0.572,0.901,1.004,1.003,1.762c0.035,0.256,0.206,0.499,0.336,0.736c0.218,0.399,0.304,0.413,0.776,0.13
		c-0.46-0.444-0.308-1.017-0.349-1.562c-0.02-0.274-0.145-0.542-0.237-0.807c-0.069-0.199-0.163-0.389-0.206-0.598
		c0.361,0.52,0.695,1.04,0.75,1.703c0.029,0.35,0.167,0.698,0.301,1.029c0.093,0.23,0.298,0.311,0.612,0.142
		c-0.373-0.642-0.08-1.313-0.077-1.985c0.002-0.357-0.151-0.715-0.211-1.077c0.308,0.488,0.632,0.953,0.388,1.6
		c-0.158,0.419-0.016,0.848,0.218,1.221c0.05,0.08,0.207,0.092,0.314,0.136c0.034-0.086,0.108-0.179,0.096-0.258
		c-0.077-0.497,0.071-0.935,0.261-1.387c0.101-0.24,0.073-0.546,0.06-0.819c-0.01-0.211-0.09-0.418-0.096-0.634
		c0.369,0.512,0.402,1.066,0.266,1.667c-0.079,0.347-0.079,0.714-0.089,1.072c-0.008,0.282,0.154,0.391,0.374,0.341
		c0.188-0.55,0.405-1.058,0.53-1.588c0.121-0.512,0.149-1.046,0.258-1.566c0.008,0.7,0.157,1.398-0.108,2.093
		c-0.116,0.305-0.116,0.658-0.137,0.992c-0.005,0.077,0.119,0.162,0.183,0.244c0.064-0.059,0.188-0.124,0.183-0.177
		c-0.06-0.622,0.311-1.073,0.579-1.572c0.168-0.313,0.282-0.655,0.424-0.994c0.085,0.362-0.045,0.687-0.178,1.029
		c-0.181,0.464-0.318,0.948-0.443,1.431c-0.025,0.096,0.091,0.229,0.142,0.344c0.068-0.091,0.148-0.176,0.2-0.275
		c0.19-0.358,0.365-0.724,0.556-1.082c0.233-0.436,0.476-0.867,0.734-1.334c-0.035,0.208-0.037,0.417-0.109,0.598
		c-0.142,0.36-0.339,0.698-0.48,1.058c-0.121,0.309-0.216,0.631-0.287,0.955c-0.066,0.298,0.086,0.458,0.433,0.47
		c0.015-0.116,0.007-0.235,0.048-0.334c0.129-0.314,0.257-0.632,0.421-0.929c0.229-0.414,0.494-0.809,0.736-1.216
		c0.097-0.163,0.174-0.337,0.26-0.505c0.04,0.017,0.08,0.035,0.12,0.052c-0.188,0.444-0.376,0.887-0.564,1.331
		c-0.219,0.519-0.442,1.037-0.655,1.559c-0.089,0.219,0.022,0.376,0.229,0.393c0.103,0.009,0.241-0.108,0.325-0.202
		c0.236-0.265,0.407-0.612,0.687-0.809c0.513-0.361,0.893-0.803,1.139-1.376c-0.064,0.613-0.378,1.073-0.812,1.479
		c-0.241,0.226-0.459,0.483-0.652,0.751c-0.204,0.284-0.146,0.509,0.224,0.578c0.725-0.648,1.446-1.293,2.112-1.888
		c-0.024,0.339-0.354,0.775-0.951,1.24c-0.24,0.187-0.455,0.42-0.631,0.667c-0.068,0.095,0.001,0.289,0.007,0.437
		c0.122-0.055,0.256-0.092,0.364-0.167c0.334-0.233,0.651-0.49,0.986-0.72c0.397-0.273,0.806-0.53,1.21-0.793
		c-0.215,0.478-0.642,0.758-1.084,1.044c-0.319,0.207-0.596,0.48-0.88,0.738c-0.162,0.147-0.146,0.305,0.017,0.465
		c0.176,0.173,0.28,0.073,0.418-0.053c0.131-0.12,0.29-0.213,0.447-0.3c0.602-0.335,1.209-0.663,1.868-1.023
		c-0.247,0.235-0.455,0.466-0.696,0.656c-0.445,0.35-0.912,0.671-1.362,1.014c-0.277,0.211-0.234,0.427-0.054,0.57
		c0.649-0.248,1.259-0.445,1.835-0.714c0.339-0.159,0.625-0.432,0.958-0.638c-0.191,0.344-0.426,0.655-0.8,0.843
		c-0.473,0.238-0.951,0.467-1.421,0.712c-0.27,0.141-0.334,0.343-0.082,0.633c0.123-0.067,0.247-0.155,0.384-0.206
		c0.3-0.112,0.602-0.274,0.91-0.291c0.618-0.035,1.176-0.161,1.621-0.619c0.035-0.036,0.085-0.059,0.132-0.081
		c0.034-0.016,0.072-0.022,0.128,0.001c-0.421,0.528-0.967,0.836-1.636,0.986c-0.392,0.088-0.777,0.247-1.137,0.43
		c-0.26,0.132-0.239,0.173-0.074,0.562c0.59-0.528,1.32-0.391,2.015-0.469c0.347-0.039,0.678-0.218,1.027-0.307
		c-0.379,0.369-0.864,0.484-1.363,0.586c-0.427,0.088-0.85,0.207-1.262,0.348c-0.11,0.038-0.175,0.206-0.261,0.314
		c0.126,0.01,0.253,0.038,0.377,0.025c0.192-0.02,0.383-0.109,0.57-0.097c0.79,0.052,1.575,0.097,2.397-0.321
		c-0.363,0.426-1.02,0.679-1.59,0.614c-0.514-0.058-0.978,0.06-1.417,0.298c-0.093,0.05-0.125,0.211-0.185,0.321
		c0.107,0.033,0.212,0.09,0.321,0.096c0.42,0.023,0.841,0.042,1.262,0.039c0.392-0.003,0.786-0.022,1.176-0.062
		c0.219-0.022,0.433-0.101,0.656-0.118c-0.615,0.452-1.305,0.55-2.037,0.509c-0.265-0.015-0.542,0.029-0.802,0.094
		c-0.478,0.119-0.55,0.263-0.46,0.836c0.689-0.192,1.302,0.072,1.935,0.305c0.247,0.091,0.558,0.019,0.839,0.008
		c0.207-0.008,0.413-0.037,0.623-0.003c-0.647,0.293-1.311,0.318-1.992,0.162c-0.251-0.058-0.508-0.117-0.763-0.121
		c-0.604-0.009-0.707,0.123-0.654,0.705c0.419,0.128,0.822,0.251,1.226,0.373c0.405,0.123,0.811,0.246,1.226,0.446
		c-0.335-0.017-0.673-0.007-1.003-0.057c-0.391-0.06-0.771-0.185-1.16-0.256c-0.356-0.065-0.534,0.11-0.532,0.522
		c0.128,0.016,0.265,0.018,0.394,0.052c0.197,0.051,0.425,0.078,0.575,0.196c0.653,0.515,1.326,0.954,2.226,0.927
		c-0.068,0.026-0.135,0.072-0.205,0.076c-0.678,0.037-1.29-0.143-1.877-0.494c-0.307-0.183-0.683-0.26-1.038-0.346
		c-0.222-0.054-0.372,0.066-0.368,0.361c0.181,0.057,0.385,0.094,0.563,0.184c0.205,0.103,0.434,0.215,0.572,0.387
		c0.439,0.546,0.953,0.974,1.619,1.216c-0.612-0.006-1.093-0.292-1.483-0.726c-0.356-0.397-0.788-0.578-1.305-0.558
		c-0.114,0.004-0.223,0.114-0.335,0.175c0.074,0.086,0.139,0.184,0.225,0.256c0.167,0.141,0.374,0.243,0.516,0.404
		c0.479,0.545,0.955,1.085,1.67,1.345c-0.588-0.032-1.054-0.283-1.472-0.683c-0.293-0.281-0.638-0.513-0.984-0.729
		c-0.086-0.054-0.262,0.035-0.396,0.058c0.049,0.116,0.078,0.248,0.152,0.345c0.297,0.388,0.652,0.739,0.9,1.154
		c0.225,0.378,0.507,0.638,0.894,0.817c0.16,0.074,0.305,0.181,0.434,0.308c-0.702-0.268-1.37-0.574-1.791-1.262
		c-0.157-0.257-0.401-0.464-0.619-0.681c-0.238-0.237-0.447-0.208-0.631,0.151c0.717,0.328,0.849,1.069,1.178,1.683
		c0.124,0.231,0.314,0.425,0.474,0.636c-0.03,0.024-0.06,0.048-0.089,0.071c-0.207-0.264-0.437-0.515-0.616-0.797
		c-0.296-0.466-0.494-1.013-1.05-1.253c-0.131-0.057-0.294-0.04-0.485,0.017c0.646,0.583,0.806,1.377,1.144,2.079
		c0.134,0.278,0.415,0.485,0.64,0.738c-0.524-0.216-0.827-0.624-1.154-1.269c-0.203-0.402-0.541-0.739-0.84-1.086
		c-0.054-0.062-0.215-0.031-0.327-0.043c0.015,0.102,0.01,0.212,0.049,0.304c0.22,0.519,0.442,1.037,0.681,1.547
		c0.156,0.331,0.343,0.646,0.533,0.998c-0.514-0.303-0.651-0.818-0.873-1.289c-0.172-0.366-0.387-0.722-0.643-1.034
		c-0.203-0.248-0.293-0.211-0.595,0.065c0.453,0.433,0.511,1.034,0.685,1.596c0.107,0.348,0.343,0.656,0.528,0.979
		c0.075,0.131,0.169,0.251,0.221,0.398c-0.541-0.378-0.818-0.929-1.045-1.53c-0.144-0.38-0.364-0.735-0.574-1.086
		c-0.145-0.242-0.357-0.269-0.633-0.044c0.428,0.494,0.399,1.107,0.472,1.707c0.038,0.313,0.252,0.606,0.396,0.904
		c0.065,0.135,0.154,0.258,0.203,0.403c-0.453-0.425-0.831-0.874-0.869-1.551c-0.02-0.348-0.14-0.71-0.297-1.025
		c-0.223-0.447-0.329-0.445-0.813-0.132c0.498,0.737,0.41,1.555,0.209,2.389c-0.033-0.283-0.105-0.567-0.091-0.847
		c0.023-0.487-0.101-0.907-0.364-1.318c-0.157-0.247-0.298-0.227-0.536-0.117c0.032,0.115,0.082,0.221,0.089,0.33
		c0.022,0.37,0.108,0.761,0.022,1.107c-0.132,0.533-0.2,1.035,0.012,1.554c0.032,0.079,0.03,0.172,0.048,0.288
		c-0.364-0.379-0.496-1.064-0.321-1.786c0.105-0.437,0.091-0.827-0.145-1.227c-0.186-0.316-0.418-0.424-0.792-0.345
		c0.009,0.086,0.023,0.169,0.024,0.252c0.005,0.408,0.075,0.83-0.006,1.22c-0.137,0.656-0.388,1.29-0.197,1.982
		c-0.247-0.507-0.324-1.017-0.212-1.578c0.09-0.449,0.127-0.922,0.099-1.379c-0.034-0.55-0.086-0.557-0.714-0.491
		c0.166,0.758-0.271,1.381-0.469,2.068c-0.105,0.362-0.113,0.753-0.238,1.133c0-0.386-0.04-0.778,0.012-1.158
		c0.045-0.328,0.225-0.635,0.292-0.962c0.064-0.31,0.071-0.634,0.075-0.952c0.001-0.064-0.116-0.162-0.194-0.183
		c-0.051-0.014-0.16,0.067-0.195,0.132c-0.232,0.427-0.487,0.848-0.664,1.299c-0.134,0.34-0.165,0.72-0.237,1.083
		c-0.026,0.134-0.037,0.271-0.08,0.403c-0.148-0.782-0.065-1.521,0.364-2.209c0.1-0.161,0.148-0.356,0.212-0.539
		C8.801,35.311,8.637,35.207,8.283,35.218z"/>
	<linearGradient id="SVGID_9_" gradientUnits="userSpaceOnUse" x1="41.5395" y1="27.6663" x2="63.1644" y2="27.6663">
		<stop  offset="0" style="stop-color:#F3E23C"/>
		<stop  offset="0.2508" style="stop-color:#EACD30"/>
		<stop  offset="0.5194" style="stop-color:#E6C026"/>
		<stop  offset="0.7745" style="stop-color:#E4B823"/>
		<stop  offset="1" style="stop-color:#E4B623"/>
	</linearGradient>
	<path fill="url(#SVGID_9_)" stroke="#0D0D0D" stroke-width="0.1" stroke-miterlimit="10" d="M49.658,34.526
		c-0.051,0.553-0.402,0.919-0.744,1.317c-0.249,0.29-0.362,0.698-0.524,1.059c-0.068,0.15-0.108,0.313-0.188,0.459
		c0.092-0.642,0.257-1.25,0.615-1.81c0.189-0.296,0.285-0.656,0.39-0.998c0.114-0.37-0.088-0.547-0.469-0.618
		c-0.044,0.14-0.062,0.287-0.133,0.401c-0.173,0.278-0.323,0.602-0.57,0.794c-0.371,0.289-0.601,0.618-0.701,1.071
		c-0.06,0.275-0.183,0.536-0.355,0.772c0.096-0.434,0.167-0.876,0.298-1.3c0.057-0.183,0.206-0.37,0.364-0.484
		c0.436-0.311,0.634-0.747,0.704-1.245c0.017-0.121-0.125-0.264-0.193-0.397c-0.079,0.081-0.162,0.158-0.235,0.244
		c-0.256,0.301-0.465,0.661-0.771,0.896c-0.482,0.37-1.032,0.648-1.21,1.299c-0.026,0.094-0.141,0.164-0.288,0.325
		c0.233-0.73,0.513-1.277,1.048-1.706c0.342-0.274,0.585-0.676,0.852-1.035c0.139-0.188,0.069-0.353-0.123-0.492
		c-0.228-0.165-0.283,0.047-0.398,0.148c-0.174,0.152-0.336,0.333-0.537,0.438c-0.559,0.293-1.059,0.64-1.4,1.188
		c-0.085,0.136-0.221,0.239-0.353,0.341c0.245-0.555,0.531-1.066,1.044-1.437c0.362-0.262,0.681-0.589,1-0.906
		c0.214-0.212,0.092-0.421-0.11-0.542c-0.066-0.039-0.24,0.073-0.35,0.141c-0.393,0.243-0.753,0.564-1.176,0.727
		c-0.384,0.148-0.686,0.331-0.912,0.666c-0.133,0.198-0.291,0.38-0.437,0.569c-0.045-0.045-0.09-0.089-0.135-0.134
		c0.356-0.554,0.704-1.1,1.34-1.42c0.374-0.189,0.705-0.469,1.041-0.726c0.25-0.192,0.252-0.402,0.057-0.532
		c-0.631,0.26-1.226,0.456-1.774,0.743c-0.551,0.289-1.056,0.667-1.61,0.962c0.585-0.5,1.045-1.146,1.851-1.372
		c0.34-0.096,0.628-0.384,0.932-0.594c0.221-0.152,0.215-0.33,0.078-0.462c-0.646,0.164-1.271,0.266-1.85,0.487
		c-0.563,0.215-1.078,0.554-1.637,0.798c0.673-0.467,1.229-1.115,2.103-1.261c0.284-0.047,0.563-0.188,0.816-0.335
		c0.369-0.213,0.384-0.36,0.111-0.824c-0.539,0.642-1.303,0.492-2.004,0.612c-0.387,0.066-0.751,0.266-1.127,0.401
		c-0.143,0.051-0.291,0.089-0.443,0.11c0.677-0.539,1.424-0.874,2.294-0.978c0.394-0.047,0.771-0.266,1.145-0.433
		c0.07-0.031,0.141-0.203,0.115-0.271c-0.029-0.074-0.173-0.143-0.266-0.141c-0.151,0.002-0.3,0.078-0.452,0.097
		c-0.419,0.053-0.84,0.108-1.261,0.132c-0.39,0.022-0.782,0.005-1.108,0.005c0.241-0.195,0.614-0.288,1.029-0.336
		c0.573-0.067,1.138-0.203,1.706-0.312c0.226-0.043,0.291-0.19,0.242-0.402c-0.066-0.284-0.25-0.117-0.399-0.11
		c-0.321,0.013-0.642,0.015-0.963,0.016c-0.653,0.002-1.306,0.001-1.853,0.001c0.437-0.34,1.095-0.231,1.718-0.298
		c0.368-0.04,0.742-0.076,1.096-0.174c0.305-0.084,0.415-0.323,0.255-0.687c-0.686,0.306-1.256-0.116-1.877-0.291
		c-0.304-0.085-0.634-0.083-0.953-0.11c-0.158-0.013-0.318-0.002-0.476-0.047c0.607-0.232,1.203-0.25,1.835-0.059
		c0.378,0.114,0.805,0.087,1.21,0.087c0.227,0,0.273-0.182,0.262-0.391c-0.012-0.233-0.166-0.186-0.317-0.227
		c-0.393-0.106-0.781-0.242-1.159-0.395c-0.507-0.205-1.003-0.436-1.391-0.607c0.526-0.065,1.148,0.117,1.762,0.37
		c0.236,0.097,0.492,0.166,0.745,0.193c0.435,0.046,0.519-0.042,0.59-0.468c-0.852-0.453-1.693-0.901-2.535-1.349
		c-0.006-0.016-0.012-0.031-0.017-0.047c0.293,0.063,0.598,0.093,0.877,0.197c0.422,0.157,0.822,0.374,1.24,0.546
		c0.165,0.068,0.354,0.124,0.526,0.111c0.122-0.009,0.235-0.144,0.351-0.223c-0.075-0.094-0.131-0.235-0.228-0.273
		c-0.432-0.171-0.801-0.397-1.053-0.811c-0.213-0.35-0.544-0.538-0.97-0.551c-0.143-0.004-0.284-0.062-0.508-0.115
		c0.833-0.133,1.409,0.128,1.92,0.67c0.223,0.237,0.595,0.338,0.905,0.489c0.284,0.137,0.471-0.038,0.536-0.269
		c0.028-0.1-0.134-0.28-0.244-0.388c-0.301-0.295-0.61-0.583-0.935-0.851c-0.341-0.282-0.704-0.538-1.008-0.767
		c0.579,0.001,1.052,0.353,1.494,0.795c0.205,0.205,0.458,0.369,0.707,0.523c0.341,0.211,0.581,0.087,0.713-0.249
		c-0.553-0.655-1.095-1.297-1.608-1.905c0.311-0.033,0.645,0.145,0.911,0.477c0.249,0.31,0.526,0.599,0.803,0.885
		c0.163,0.168,0.374,0.163,0.501-0.021c0.054-0.078-0.008-0.266-0.062-0.384c-0.122-0.27-0.26-0.534-0.414-0.787
		c-0.265-0.437-0.548-0.863-0.853-1.341c0.267,0.233,0.54,0.421,0.75,0.665c0.311,0.362,0.558,0.778,0.866,1.143
		c0.297,0.352,0.385,0.335,0.775-0.041c-0.07-0.094-0.158-0.186-0.215-0.294c-0.166-0.316-0.329-0.634-0.477-0.959
		c-0.112-0.245-0.17-0.518-0.304-0.748c-0.127-0.218-0.322-0.396-0.505-0.613c0.5,0.09,0.923,0.591,1.075,1.146
		c0.09,0.33,0.226,0.664,0.417,0.945c0.274,0.402,0.399,0.394,0.832,0.116c-0.359-1.002-0.718-2.005-1.06-2.961
		c0.282,0.572,0.901,1.004,1.003,1.762c0.035,0.256,0.206,0.499,0.336,0.736c0.218,0.399,0.304,0.413,0.776,0.13
		c-0.46-0.444-0.308-1.017-0.349-1.562c-0.02-0.274-0.145-0.542-0.237-0.807c-0.069-0.199-0.163-0.389-0.206-0.598
		c0.361,0.52,0.695,1.04,0.75,1.703c0.029,0.35,0.167,0.698,0.301,1.029c0.093,0.23,0.298,0.311,0.612,0.142
		c-0.373-0.642-0.08-1.313-0.077-1.985c0.002-0.357-0.151-0.715-0.211-1.077c0.308,0.488,0.632,0.953,0.388,1.6
		c-0.158,0.419-0.016,0.848,0.218,1.221c0.05,0.08,0.207,0.092,0.314,0.136c0.034-0.086,0.108-0.179,0.096-0.258
		c-0.077-0.497,0.071-0.935,0.261-1.387c0.101-0.24,0.073-0.546,0.06-0.819c-0.01-0.211-0.09-0.418-0.096-0.634
		c0.369,0.512,0.402,1.066,0.266,1.667c-0.079,0.347-0.079,0.714-0.089,1.072c-0.008,0.282,0.154,0.391,0.374,0.341
		c0.188-0.55,0.405-1.058,0.53-1.588c0.121-0.512,0.149-1.046,0.258-1.566c0.008,0.7,0.157,1.398-0.108,2.093
		c-0.116,0.305-0.116,0.658-0.137,0.992c-0.005,0.077,0.119,0.162,0.183,0.244c0.064-0.059,0.188-0.124,0.183-0.177
		c-0.06-0.622,0.311-1.073,0.579-1.572c0.168-0.313,0.282-0.655,0.424-0.994c0.085,0.362-0.045,0.687-0.178,1.029
		c-0.181,0.464-0.318,0.948-0.443,1.431c-0.025,0.096,0.091,0.229,0.142,0.344c0.068-0.091,0.148-0.176,0.2-0.275
		c0.19-0.358,0.365-0.724,0.556-1.082c0.233-0.436,0.476-0.867,0.734-1.334c-0.035,0.208-0.037,0.417-0.109,0.598
		c-0.142,0.36-0.339,0.698-0.48,1.058c-0.121,0.309-0.216,0.631-0.287,0.955c-0.066,0.298,0.086,0.458,0.433,0.47
		c0.015-0.116,0.007-0.235,0.048-0.334c0.129-0.314,0.257-0.632,0.421-0.929c0.229-0.414,0.494-0.809,0.736-1.216
		c0.097-0.163,0.174-0.337,0.26-0.505c0.04,0.017,0.08,0.035,0.12,0.052c-0.188,0.444-0.376,0.887-0.564,1.331
		c-0.219,0.519-0.442,1.037-0.655,1.559c-0.089,0.219,0.022,0.376,0.229,0.393c0.103,0.009,0.241-0.108,0.325-0.202
		c0.236-0.265,0.407-0.612,0.687-0.809c0.513-0.361,0.893-0.803,1.139-1.376c-0.064,0.613-0.378,1.073-0.812,1.479
		c-0.241,0.226-0.459,0.483-0.652,0.751c-0.204,0.284-0.146,0.509,0.224,0.578c0.725-0.648,1.446-1.293,2.112-1.888
		c-0.024,0.339-0.354,0.775-0.951,1.24c-0.24,0.187-0.455,0.42-0.631,0.667c-0.068,0.095,0.001,0.289,0.007,0.437
		c0.122-0.055,0.256-0.092,0.364-0.167c0.334-0.233,0.651-0.49,0.986-0.72c0.397-0.273,0.806-0.53,1.21-0.793
		c-0.215,0.478-0.642,0.758-1.084,1.044c-0.319,0.207-0.596,0.48-0.88,0.738c-0.162,0.147-0.146,0.305,0.017,0.465
		c0.176,0.173,0.28,0.073,0.418-0.053c0.131-0.12,0.29-0.213,0.447-0.3c0.602-0.335,1.209-0.663,1.868-1.023
		c-0.247,0.235-0.455,0.466-0.696,0.656c-0.445,0.35-0.912,0.671-1.362,1.014c-0.277,0.211-0.234,0.427-0.054,0.57
		c0.649-0.248,1.259-0.445,1.835-0.714c0.339-0.159,0.625-0.432,0.958-0.638c-0.191,0.344-0.426,0.655-0.8,0.843
		c-0.473,0.238-0.951,0.467-1.421,0.712c-0.27,0.141-0.334,0.343-0.082,0.633c0.123-0.067,0.247-0.155,0.384-0.206
		c0.3-0.112,0.602-0.274,0.91-0.291c0.618-0.035,1.176-0.161,1.621-0.619c0.035-0.036,0.085-0.059,0.132-0.081
		c0.034-0.016,0.072-0.022,0.128,0.001c-0.421,0.528-0.967,0.836-1.636,0.986c-0.392,0.088-0.777,0.247-1.137,0.43
		c-0.26,0.132-0.239,0.173-0.074,0.562c0.59-0.528,1.32-0.391,2.015-0.469c0.347-0.039,0.678-0.218,1.027-0.307
		c-0.379,0.369-0.864,0.484-1.363,0.586c-0.427,0.088-0.85,0.207-1.262,0.348c-0.11,0.038-0.175,0.206-0.261,0.314
		c0.126,0.01,0.253,0.038,0.377,0.025c0.192-0.02,0.383-0.109,0.57-0.097c0.79,0.052,1.575,0.097,2.397-0.321
		c-0.363,0.426-1.02,0.679-1.59,0.614c-0.514-0.058-0.978,0.06-1.417,0.298c-0.093,0.05-0.125,0.211-0.185,0.321
		c0.107,0.033,0.212,0.09,0.321,0.096c0.42,0.023,0.841,0.042,1.262,0.039c0.392-0.003,0.786-0.022,1.176-0.062
		c0.219-0.022,0.433-0.101,0.656-0.118c-0.615,0.452-1.305,0.55-2.037,0.509c-0.265-0.015-0.542,0.029-0.802,0.094
		c-0.478,0.119-0.55,0.263-0.46,0.836c0.689-0.192,1.302,0.072,1.935,0.305c0.247,0.091,0.558,0.019,0.839,0.008
		c0.207-0.008,0.413-0.037,0.623-0.003c-0.647,0.293-1.311,0.318-1.992,0.162c-0.251-0.058-0.508-0.117-0.763-0.121
		c-0.604-0.009-0.707,0.123-0.654,0.705c0.419,0.128,0.822,0.251,1.226,0.373c0.405,0.123,0.811,0.246,1.226,0.446
		c-0.335-0.017-0.673-0.007-1.003-0.057c-0.391-0.06-0.771-0.185-1.16-0.256c-0.356-0.065-0.534,0.11-0.532,0.522
		c0.128,0.016,0.265,0.018,0.394,0.052c0.197,0.051,0.425,0.078,0.575,0.196c0.653,0.515,1.326,0.954,2.226,0.927
		c-0.068,0.026-0.135,0.072-0.205,0.076c-0.678,0.037-1.29-0.143-1.877-0.494c-0.307-0.183-0.683-0.26-1.038-0.346
		c-0.222-0.054-0.372,0.066-0.368,0.361c0.181,0.057,0.385,0.094,0.563,0.184c0.205,0.103,0.434,0.215,0.572,0.387
		c0.439,0.546,0.953,0.974,1.619,1.216c-0.612-0.006-1.093-0.292-1.483-0.726c-0.356-0.397-0.788-0.578-1.305-0.558
		c-0.114,0.004-0.223,0.114-0.335,0.175c0.074,0.086,0.139,0.184,0.225,0.256c0.167,0.141,0.374,0.243,0.516,0.404
		c0.479,0.545,0.955,1.085,1.67,1.345c-0.588-0.032-1.054-0.283-1.472-0.683c-0.293-0.281-0.638-0.513-0.984-0.729
		c-0.086-0.054-0.262,0.035-0.396,0.058c0.049,0.116,0.078,0.248,0.152,0.345c0.297,0.388,0.652,0.739,0.9,1.154
		c0.225,0.378,0.507,0.638,0.894,0.817c0.16,0.074,0.305,0.181,0.434,0.308c-0.702-0.268-1.37-0.574-1.791-1.262
		c-0.157-0.257-0.401-0.464-0.619-0.681c-0.238-0.237-0.447-0.208-0.631,0.151c0.717,0.328,0.849,1.069,1.178,1.683
		c0.124,0.231,0.314,0.425,0.474,0.636c-0.03,0.024-0.06,0.048-0.089,0.071c-0.207-0.264-0.437-0.515-0.616-0.797
		c-0.296-0.466-0.494-1.013-1.05-1.253c-0.131-0.057-0.294-0.04-0.485,0.017c0.646,0.583,0.806,1.377,1.144,2.079
		c0.134,0.278,0.415,0.485,0.64,0.738c-0.524-0.216-0.827-0.624-1.154-1.269c-0.203-0.402-0.541-0.739-0.84-1.086
		c-0.054-0.062-0.215-0.031-0.327-0.043c0.015,0.102,0.01,0.212,0.049,0.304c0.22,0.519,0.442,1.037,0.681,1.547
		c0.156,0.331,0.343,0.646,0.533,0.998c-0.514-0.303-0.651-0.818-0.873-1.289c-0.172-0.366-0.387-0.722-0.643-1.034
		c-0.203-0.248-0.293-0.211-0.595,0.065c0.453,0.433,0.511,1.034,0.685,1.596c0.107,0.348,0.343,0.656,0.528,0.979
		c0.075,0.131,0.169,0.251,0.221,0.398c-0.541-0.378-0.818-0.929-1.045-1.53c-0.144-0.38-0.364-0.735-0.574-1.086
		c-0.145-0.242-0.357-0.269-0.633-0.044c0.428,0.494,0.399,1.107,0.472,1.707c0.038,0.313,0.252,0.606,0.396,0.904
		c0.065,0.135,0.154,0.258,0.203,0.403c-0.453-0.425-0.831-0.874-0.869-1.551c-0.02-0.348-0.14-0.71-0.297-1.025
		c-0.223-0.447-0.329-0.445-0.813-0.132c0.498,0.737,0.41,1.555,0.209,2.389c-0.033-0.283-0.105-0.567-0.091-0.847
		c0.023-0.487-0.101-0.907-0.364-1.318c-0.157-0.247-0.298-0.227-0.536-0.117c0.032,0.115,0.082,0.221,0.089,0.33
		c0.022,0.37,0.108,0.761,0.022,1.107c-0.132,0.533-0.2,1.035,0.012,1.554c0.032,0.079,0.03,0.172,0.048,0.288
		c-0.364-0.379-0.496-1.064-0.321-1.786c0.105-0.437,0.091-0.827-0.145-1.227c-0.186-0.316-0.418-0.424-0.792-0.345
		c0.009,0.086,0.023,0.169,0.024,0.252c0.005,0.408,0.075,0.83-0.006,1.22c-0.137,0.656-0.388,1.29-0.197,1.982
		c-0.247-0.507-0.324-1.017-0.212-1.578c0.09-0.449,0.127-0.922,0.099-1.379c-0.034-0.55-0.086-0.557-0.714-0.491
		c0.166,0.758-0.271,1.381-0.469,2.068c-0.105,0.362-0.113,0.753-0.238,1.133c0-0.386-0.04-0.778,0.012-1.158
		c0.045-0.328,0.225-0.635,0.292-0.962c0.064-0.31,0.071-0.634,0.075-0.952c0.001-0.064-0.116-0.162-0.194-0.183
		c-0.051-0.014-0.16,0.067-0.195,0.132c-0.232,0.427-0.487,0.848-0.664,1.299c-0.134,0.34-0.165,0.72-0.237,1.083
		c-0.026,0.134-0.037,0.271-0.08,0.403c-0.148-0.782-0.065-1.521,0.364-2.209c0.1-0.161,0.148-0.356,0.212-0.539
		C50.175,34.619,50.011,34.514,49.658,34.526z"/>
</g>
</svg>
