<?xml version="1.0" encoding="utf-8"?>
<!-- Generator: Adobe Illustrator 17.0.0, SVG Export Plug-In . SVG Version: 6.00 Build 0)  -->
<!DOCTYPE svg PUBLIC "-//W3C//DTD SVG 1.1//EN" "http://www.w3.org/Graphics/SVG/1.1/DTD/svg11.dtd">
<svg version="1.1" id="Layer_1" xmlns="http://www.w3.org/2000/svg" xmlns:xlink="http://www.w3.org/1999/xlink" x="0px" y="0px"
	 width="2100px" height="1080px" viewBox="0 0 2100 1080" enable-background="new 0 0 2100 1080" xml:space="preserve">
<linearGradient id="SVGID_1_" gradientUnits="userSpaceOnUse" x1="1050" y1="1080" x2="1050" y2="488.9577">
	<stop  offset="0" style="stop-color:#6FBF44"/>
	<stop  offset="1" style="stop-color:#E1E31A"/>
</linearGradient>
<path fill="url(#SVGID_1_)" d="M0,516.773l92.157-3.275c0,0,15.215,10.765,19.576,7.809c1.616-1.095-1.381-6.429,0-7.809
	c2.004-2.004,9.33-2.004,11.334,0c0.69,0.69-0.69,3.214,0,3.905c0.729,0.729,3.393,0.729,4.121,0c1.678-1.678-1.678-7.812,0-9.49
	c1.639-1.639,7.634-1.639,9.273,0c1.184,1.184-1.184,5.513,0,6.697c1.639,1.639,7.634,1.639,9.273,0c1.184-1.184-0.641-5.15,0-6.697
	c0.836-2.019,4.163-5.346,6.182-6.182c1.904-0.789,6.786-1.457,8.243,0c1.73,1.73-1.443,7.812,0,9.788
	c0.957,1.311,4.871,2.936,6.182,1.979c1.544-1.127,0-5.734,0-7.646c0-2.576-2.453-9.517,0-10.303c2.11-0.676,3.76,5.488,5.152,7.212
	c1.202,1.49,3.401,4.892,5.152,5.667c1.413,0.625,5.089-1.093,6.182,0c0.896,0.896,0,3.802,0,5.07c0,1.952-1.895,7.34,0,7.809
	c2.143,0.531,3.591-5.667,4.121-7.809c0.893-3.606-2.286-11.93,0-14.858c1.961-2.511,9.853-5.052,12.364-3.091
	c1.827,1.427,0,6.955,0,9.273c0,2.169-0.624,6.599,0,8.676c0.672,2.24,2.912,8.482,5.152,7.809c1.87-0.561-0.754-6.009,0-7.809
	c0.698-1.667,3.479-4.385,5.152-5.07c1.669-0.683,5.937-1.275,7.212,0c2.277,2.277,0,9.659,0,12.879c0,1.288-0.911,4.241,0,5.152
	c0.911,0.911,4.112,0.76,5.152,0c2.744-2.007,1.377-10.954,4.121-12.961c1.455-1.064,5.937-1.275,7.212,0
	c1.016,1.016-0.439,4.38,0,5.749c0.676,2.11,4.475,5.102,5.152,7.212c0.55,1.717,0.765,5.579,0,7.212
	c-0.853,1.822-6.867,3.26-6.182,5.152c0.526,1.453,4.819,0.729,6.182,0c2.456-1.315,3.812-7.808,6.182-9.273
	c1.767-1.092,6.686-2.405,8.243-1.03c0.579,0.511-0.198,2.344,0,3.091c0.533,2.007,3.588,5.205,4.121,7.212
	c0.529,1.992-1.961,7.61,0,8.243c1.679,0.541,3.58-4.047,4.121-5.726c0.43-1.334-0.88-4.517,0-5.608
	c1.062-1.317,5.027-2.024,6.612-1.433c1.81,0.675,3.536,4.594,4.637,6.182c1.113,1.606,2.767,5.264,4.206,6.584
	c2.161,1.981,7.642,4.414,10.39,5.436c3.946,1.467,12.226,4.403,16.399,3.837c3.198-0.434,8.483-4.668,11.334-6.182
	c7.427-3.946,23.277-10.246,29.88-15.455c5.493-4.333,11.663-18.937,18.289-21.181c1.994-0.675,6.683,0.303,8.243,1.717
	c2.077,1.884,2.924,7.934,3.348,10.706c0.175,1.146-1.145,4.456,0,4.636c2.555,0.402,2.44-7.368,3.178-9.847
	c0.535-1.797,1.595-5.399,1.974-7.235c0.402-1.948,0.046-6.201,1.117-7.876c0.936-1.465,4.151-3.358,5.839-3.778
	c1.924-0.478,6.326-0.52,7.899,0.687c1.595,1.223,2.341,5.587,2.748,7.556c0.296,1.432-0.22,4.489,0.343,5.839
	c0.623,1.493,2.829,5.434,4.324,4.816c1.952-0.808-0.539-6.326-0.448-8.436c0.072-1.685,0.285-5.125,0.932-6.683
	c1.199-2.886,4.764-8.554,7.556-9.96c2.205-1.11,8.118-1.848,9.873-0.113c1.282,1.268-0.322,5.438,0,7.212
	c0.186,1.022,1.09,2.92,1.461,3.891c0.655,1.715,2.322,5.041,2.661,6.846c0.36,1.919,0,5.857,0,7.809c0,2.318-2.213,8.582,0,9.273
	c2.16,0.675,4.477-5.283,5.152-7.443c0.718-2.3-1.027-7.459,0-9.639c1.72-3.652,8.432-9.903,12.451-10.281
	c1.951-0.183,5.582,2.3,6.869,3.778c2.053,2.357,3.707,8.645,4.465,11.677c0.671,2.686-0.326,8.805,1.374,10.99
	c1.302,1.674,5.806,3.431,7.899,3.091c3.615-0.588,9.695-6.069,11.247-9.386c1.046-2.235-1.323-7.787,0-9.87
	c1.221-1.921,6.056-3.235,8.243-3.868c0.665-0.192,2.139-0.673,2.748-0.343c1.031,0.557,1.56,3.151,2.061,4.211
	c0.796,1.684,2.696,4.959,3.091,6.779c0.301,1.384,0.421,4.314,0,5.667c-0.45,1.444-3.4,3.468-3.434,4.98
	c-0.037,1.62,2.369,4.274,3.434,5.495c0.441,0.505,1.401,1.836,2.061,1.717c1.362-0.246,2.392-3.47,2.748-4.808
	c0.474-1.784-0.89-5.767,0-7.384c0.735-1.336,4.19-2.08,5.152-3.263c0.925-1.138,1.266-4.261,2.061-5.495
	c1.052-1.633,4.359-3.919,5.495-5.495c1.684-2.336,3.435-7.991,5.152-10.303c1.267-1.707,4.207-5.053,6.182-5.839
	c1.037-0.412,3.363,0.179,4.465,0c4.288-0.696,5.694-2.255,7.556-3.091c2.109-0.947,6.339-3.98,8.586-3.434
	c1.656,0.402,3.316,3.893,4.465,5.152c2.088,2.287,6.8,6.4,8.586,8.93c1.107,1.568,2.747,5.076,3.434,6.869
	c0.925,2.411,1.221,7.876,2.748,9.96c1.709,2.333,7.115,5.006,9.703,6.295c3.598,1.792,11.41,3.928,15.112,5.495
	c6.153,2.605,18.186,8.458,24.041,11.677c6.013,3.306,16.851,12.234,23.354,14.425c5.068,1.707,16.164,0.546,21.294,2.061
	c9.435,2.785,25.387,15.763,34.945,18.09c8.009,1.95,24.739,0.43,32.971,0c22.243-1.161,66.387-7.754,88.609-9.273
	c23.912-1.635,72.331-7.855,95.821-3.091c7.229,1.466,20.338,8.788,26.789,12.364c7.81,4.33,22.003,15.369,29.88,19.576
	c16.289,8.701,50.982,21.683,68.002,28.849c17.239,7.259,51.581,22.118,69.032,28.849c12.238,4.72,37.052,13.252,49.456,17.516
	c12.325,4.236,36.591,14.398,49.456,16.485c11.696,1.898,35.547,0,47.395,0c8.243,0,24.746,0.543,32.971,0
	c21.52-1.42,65.233-4.01,85.518-11.334c20.031-7.232,56.106-31.298,72.123-45.335c10.616-9.303,29.26-31.077,36.062-43.446
	c3.631-6.602,5.724-22.031,9.273-28.678c2.937-5.5,9.973-16.606,15.455-19.576c2.501-1.355,9.233-2.949,11.334-1.03
	c1.522,1.39-0.473,6.237,0,8.243c0.596,2.523,2.1,8.742,4.636,9.273c0.985,0.206,2.664-1.665,3.091-2.576
	c0.601-1.283,0-4.25,0-5.667c0-0.901-0.416-2.806,0-3.606c0.726-1.394,3.616-3.27,5.152-3.606c1.407-0.308,4.744-0.075,5.667,1.03
	c1.238,1.483-0.611,5.895,0,7.727c0.407,1.222,1.869,4.529,3.091,4.121c1.588-0.529,0-5.023,0-6.697c0-1.546-0.438-4.7,0-6.182
	c0.739-2.501,3.642-7.114,5.667-8.758c1.393-1.131,4.933-2.248,6.697-2.576c1.013-0.188,3.393-0.729,4.121,0
	c0.637,0.638,0,2.705,0,3.606c0,0.386,0,1.159,0,1.546c0,1.932-0.59,5.888,0,7.727c0.338,1.055,1.521,3.944,2.576,3.606
	c1.104-0.354-0.594-3.641,0-4.637c0.975-1.633,4.796-3.611,6.697-3.606c1.614,0.004,4.843,1.703,5.667,3.091
	c0.789,1.329,0.448,4.703,0,6.182c-0.538,1.778-3.583,4.404-4.121,6.182c-0.299,0.986-0.772,3.439,0,4.121
	c0.778,0.687,3.251,0.052,4.121-0.515c1.259-0.82,1.762-4.453,3.091-5.152c1.828-0.961,6.249-0.022,8.243,0.515
	c0.834,0.225,2.637,0.811,3.091,1.546c0.745,1.205,0,4.25,0,5.667c0,0.773,0.202,2.345,0,3.091
	c-0.467,1.727-3.422,4.402-3.606,6.182c-0.084,0.81,0.238,2.904,1.03,3.091c0.886,0.209,1.734-2.227,2.576-2.576
	c1.428-0.591,4.778-0.646,6.182,0c1.079,0.496,2.679,2.493,3.091,3.606c0.492,1.329-1.002,4.665,0,5.667
	c1.184,1.184,5.026,0.109,6.697,0c11.924-0.774,35.86-3.063,47.395-6.182c2.563-0.693,7.827-2.332,9.788-4.121
	c1.617-1.476,2.378-6.403,4.121-7.727c0.945-0.718,3.609-1.625,4.636-1.03c1.869,1.081,0.418,8.173,2.576,8.243
	c3.586,0.115,2.194-11.363,5.152-13.394c0.637-0.437,2.339-0.178,3.091,0c1.121,0.265,3.516,1.081,4.121,2.061
	c0.677,1.096-1.114,4.505,0,5.152c0.898,0.521,3.085-1.163,3.606-2.061c0.453-0.78-0.617-2.949,0-3.606
	c1.414-1.505,6.265-1.107,8.243-0.515c1.234,0.369,2.865,2.806,4.121,3.091c0.64,0.145,2.159-0.007,2.576-0.515
	c0.735-0.896,0-3.477,0-4.637s0-3.477,0-4.636c0-1.803-1.19-5.857,0-7.212c1.971-2.245,8.862-1.598,11.849-1.545
	c1.567,0.028,5.169-0.165,6.182,1.03c0.749,0.884-0.518,3.6,0,4.636c0.576,1.152,2.969,3.667,4.121,3.091
	c0.691-0.346,0-2.318,0-3.091c0-0.644-0.455-2.12,0-2.576c1.366-1.366,6.361-1.366,7.728,0c0.729,0.729-0.594,3.279,0,4.121
	c1.103,1.565,5.647,3.679,7.212,2.576c0.948-0.668-0.366-3.537,0-4.636c0.407-1.222,1.906-3.618,3.091-4.121
	c0.956-0.406,3.434-0.263,4.121,0.515c0.852,0.966-0.911,4.241,0,5.152c0.911,0.911,3.905,0.323,5.152,0
	c1.284-0.333,3.964-1.433,4.636-2.576c0.457-0.777-0.144-2.716,0-3.606c0.326-2.01,2.25-5.717,2.576-7.727
	c0.248-1.526,0-4.636,0-6.182c0-0.902-0.488-2.848,0-3.606c0.842-1.308,4.124-2.373,5.667-2.576c1.553-0.204,5.169-0.165,6.182,1.03
	c0.833,0.983-1.114,4.505,0,5.152c0.898,0.521,3.085-1.163,3.606-2.061c0.646-1.114-0.911-4.241,0-5.152
	c1.184-1.184,5.023,0,6.697,0c1.03,0,3.393-0.729,4.121,0c0.82,0.82-0.492,3.587,0,4.637c0.427,0.911,2.086,2.538,3.091,2.576
	c1.107,0.041,2.571-2.18,3.606-2.576c1.089-0.417,3.514-0.832,4.636-0.515c1.413,0.399,3.192,3.341,4.636,3.606
	c1.723,0.316,5.288-3.101,6.697-2.061c0.414,0.306-0.223,1.596,0,2.061c0.357,0.743,1.798,1.788,2.576,2.061
	c0.972,0.341,3.091,0,4.121,0c1.159,0,3.817-0.82,4.636,0c0.546,0.546-0.714,2.795,0,3.091c1.514,0.627,3.656-3.323,4.636-4.637
	c2.102-2.818,3.904-10.23,6.697-12.364c2.313-1.767,8.443-2.323,11.334-2.658c1.919-0.222,5.969-0.799,7.728,0
	c1.426,0.648,3.571,3.252,4.121,4.718c0.498,1.326,0,4.25,0,5.667c0,1.03-0.729,3.393,0,4.121c1.275,1.275,5.418,0.178,7.212,0
	c1.961-0.194,6.479-0.022,7.728-1.546c1.143-1.394-1.153-5.826,0-7.212c2.262-2.719,10.38-2.79,13.909-2.576
	c4.716,0.287,15.235,1.858,18.031,5.667c0.838,1.142-0.668,4.418,0,5.667c1.534,2.866,8.018,5.563,10.818,7.212
	c3.871,2.28,11.662,6.966,15.97,8.243c11.169,3.31,34.827,3.033,46.365,4.637c23.99,3.333,138.82,23.545,138.82,23.545V1080H0
	V516.773z"/>
</svg>
