<?xml version="1.0" encoding="utf-8"?>
<!-- Generator: Adobe Illustrator 17.0.0, SVG Export Plug-In . SVG Version: 6.00 Build 0)  -->
<!DOCTYPE svg PUBLIC "-//W3C//DTD SVG 1.1//EN" "http://www.w3.org/Graphics/SVG/1.1/DTD/svg11.dtd">
<svg version="1.1" id="Layer_1" xmlns="http://www.w3.org/2000/svg" xmlns:xlink="http://www.w3.org/1999/xlink" x="0px" y="0px"
	 width="34.804px" height="8.371px" viewBox="0 0 34.804 8.371" enable-background="new 0 0 34.804 8.371" xml:space="preserve">
<linearGradient id="SVGID_1_" gradientUnits="userSpaceOnUse" x1="-0.4391" y1="6.439" x2="3.6278" y2="2.3721">
	<stop  offset="0" style="stop-color:#354FA2"/>
	<stop  offset="1" style="stop-color:#95469B"/>
</linearGradient>
<path fill="url(#SVGID_1_)" d="M0.252,0.302c0.009-0.117,0.279-0.361,0.37-0.288c1.441,1.153,4.018,2.9,4.651,4.363
	c0.168,0.387,0.178,1.305,0,1.688C4.99,6.674,3.871,7.646,3.216,7.793c-0.748,0.167-2.818-0.03-2.964-0.782
	C-0.202,4.665,0.059,2.73,0.252,0.302z"/>
<linearGradient id="SVGID_2_" gradientUnits="userSpaceOnUse" x1="-11120.334" y1="6.9613" x2="-11116.2666" y2="2.8944" gradientTransform="matrix(-1 0 0 1 -11085.0908 0)">
	<stop  offset="0" style="stop-color:#354FA2"/>
	<stop  offset="1" style="stop-color:#95469B"/>
</linearGradient>
<path fill="url(#SVGID_2_)" d="M34.552,0.824c-0.009-0.117-0.279-0.361-0.37-0.288c-1.441,1.153-4.018,2.9-4.651,4.363
	c-0.168,0.387-0.178,1.305,0,1.688c0.284,0.609,1.402,1.582,2.058,1.729c0.748,0.167,2.818-0.03,2.964-0.782
	C35.006,5.187,34.745,3.253,34.552,0.824z"/>
</svg>
