<?xml version="1.0" encoding="utf-8"?>
<!-- Generator: Adobe Illustrator 17.0.0, SVG Export Plug-In . SVG Version: 6.00 Build 0)  -->
<!DOCTYPE svg PUBLIC "-//W3C//DTD SVG 1.1//EN" "http://www.w3.org/Graphics/SVG/1.1/DTD/svg11.dtd">
<svg version="1.1" id="Layer_1" xmlns="http://www.w3.org/2000/svg" xmlns:xlink="http://www.w3.org/1999/xlink" x="0px" y="0px"
	 width="38.44px" height="19.002px" viewBox="0 0 38.44 19.002" enable-background="new 0 0 38.44 19.002" xml:space="preserve">
<linearGradient id="SVGID_1_" gradientUnits="userSpaceOnUse" x1="4.5642" y1="6.1853" x2="24.5932" y2="6.1853">
	<stop  offset="0.0539" style="stop-color:#2F2527"/>
	<stop  offset="0.2269" style="stop-color:#241715"/>
	<stop  offset="0.3247" style="stop-color:#231613"/>
	<stop  offset="0.4695" style="stop-color:#180C07"/>
	<stop  offset="1" style="stop-color:#332B2F"/>
</linearGradient>
<path fill="url(#SVGID_1_)" d="M4.633,8.881c0.802-2.588,5.678-7.709,6.858-8.393c1.693-0.982,7.268-0.212,7.83,0
	c1.367,0.516,4.453,3.787,4.453,3.787l0.819,6.496l-8.921,0.048L4.927,12.371C4.927,12.371,4.374,9.717,4.633,8.881z"/>
<linearGradient id="SVGID_2_" gradientUnits="userSpaceOnUse" x1="10.7237" y1="7.9438" x2="31.093" y2="7.9438">
	<stop  offset="0.0539" style="stop-color:#2F2527"/>
	<stop  offset="0.2269" style="stop-color:#241715"/>
	<stop  offset="0.3247" style="stop-color:#231613"/>
	<stop  offset="0.4695" style="stop-color:#180C07"/>
	<stop  offset="1" style="stop-color:#332B2F"/>
</linearGradient>
<path fill="url(#SVGID_2_)" d="M31.093,10.771l-1.638-4.342c0,0-1.749-2.042-2.559-2.359c-0.882-0.344-2.849-0.128-3.787,0
	c-2.184,0.298-6.726,1.045-8.496,2.359c-1.364,1.013-3.89,5.574-3.89,5.574l10.389-0.921L31.093,10.771"/>
<linearGradient id="SVGID_3_" gradientUnits="userSpaceOnUse" x1="16.8727" y1="9.0391" x2="34.522" y2="9.0391">
	<stop  offset="0.0539" style="stop-color:#2F2527"/>
	<stop  offset="0.2269" style="stop-color:#241715"/>
	<stop  offset="0.3247" style="stop-color:#231613"/>
	<stop  offset="0.4695" style="stop-color:#180C07"/>
	<stop  offset="0.5146" style="stop-color:#1F120E"/>
	<stop  offset="0.5894" style="stop-color:#271B19"/>
	<stop  offset="0.6698" style="stop-color:#2C2222"/>
	<stop  offset="0.7576" style="stop-color:#302729"/>
	<stop  offset="0.8581" style="stop-color:#332A2D"/>
	<stop  offset="1" style="stop-color:#332B2F"/>
</linearGradient>
<path fill="url(#SVGID_3_)" d="M34.522,11.132c0,0-1.24-3.078-1.996-3.683c-0.631-0.506-3.071-1.019-3.071-1.019l-12.583,5.22
	l14.681-0.209L34.522,11.132z"/>
<linearGradient id="SVGID_4_" gradientUnits="userSpaceOnUse" x1="3.739951e-07" y1="14.4971" x2="38.4403" y2="14.4971">
	<stop  offset="0" style="stop-color:#332B2F"/>
	<stop  offset="0.0485" style="stop-color:#322A2D"/>
	<stop  offset="0.0661" style="stop-color:#32282B"/>
	<stop  offset="0.1111" style="stop-color:#302729"/>
	<stop  offset="0.1316" style="stop-color:#2F2527"/>
	<stop  offset="0.1907" style="stop-color:#2E2425"/>
	<stop  offset="0.2421" style="stop-color:#2D2223"/>
	<stop  offset="0.3491" style="stop-color:#2A1E1E"/>
	<stop  offset="0.5016" style="stop-color:#241715"/>
	<stop  offset="0.5611" style="stop-color:#221613"/>
	<stop  offset="0.6693" style="stop-color:#1E120E"/>
	<stop  offset="0.8214" style="stop-color:#180C07"/>
	<stop  offset="0.8643" style="stop-color:#130804"/>
	<stop  offset="1" style="stop-color:#000000"/>
</linearGradient>
<path fill="url(#SVGID_4_)" d="M1.08,12.926c-0.351,0.259-0.65,1.15-0.746,1.575c-0.405,1.8-0.494,2.55,0.026,4.319
	c0.097,0.331,14.773,0.17,18.792-0.175c3.49-0.299,15.826,0.005,16.915,0.068c0.213,0.012,1.381-0.012,1.594-0.02
	c0.525-0.02,0.849-0.269,0.767-0.605c-0.235-0.96-1.287-1.681-1.287-1.681s0.395-2.366,0.083-3.067
	c-0.402-0.904-2.082-2.227-3.01-2.57c-4.272-1.575-13.671-0.326-18.212,0C12.242,11.041,4.113,10.688,1.08,12.926z"/>
</svg>
