<?xml version="1.0" encoding="utf-8"?>
<!-- Generator: Adobe Illustrator 17.0.0, SVG Export Plug-In . SVG Version: 6.00 Build 0)  -->
<!DOCTYPE svg PUBLIC "-//W3C//DTD SVG 1.1//EN" "http://www.w3.org/Graphics/SVG/1.1/DTD/svg11.dtd">
<svg version="1.1" id="Layer_1" xmlns="http://www.w3.org/2000/svg" xmlns:xlink="http://www.w3.org/1999/xlink" x="0px" y="0px"
	 width="107.04px" height="47.268px" viewBox="0 0 107.04 47.268" enable-background="new 0 0 107.04 47.268" xml:space="preserve">
<g>
	
		<image overflow="visible" opacity="0.4" width="142" height="93" xlink:href="4A136ED2B8B4A556.png"  transform="matrix(0.48 0 0 0.48 19.0707 0)">
	</image>
	<g>
		<linearGradient id="SVGID_1_" gradientUnits="userSpaceOnUse" x1="36.6097" y1="33.2942" x2="69.0458" y2="14.5672">
			<stop  offset="0" style="stop-color:#7FC1C9"/>
			<stop  offset="0.2001" style="stop-color:#7093A4"/>
			<stop  offset="0.3675" style="stop-color:#65748C"/>
			<stop  offset="0.4911" style="stop-color:#5F6381"/>
			<stop  offset="0.5575" style="stop-color:#5D5D7D"/>
			<stop  offset="0.6019" style="stop-color:#65566B"/>
			<stop  offset="0.8797" style="stop-color:#502102"/>
			<stop  offset="1" style="stop-color:#000000"/>
		</linearGradient>
		<path fill="url(#SVGID_1_)" d="M37.056,17.022c0.216-0.412,0.766-1.3,1.368-1.504c0.604-0.205,2.077-0.276,2.762-0.276
			c6.219,0,18.823-0.698,24.851,0.276c1.2,0.194,3.575,0.891,4.353,1.504c0.346,0.273,0.543,0.999,0.622,1.346
			c0.505,2.233,0.334,6.331,0.516,8.44c0.061,0.703,0.479,2.801,0.479,2.801s-15.291-0.704-20.399-0.792
			c-4.383-0.075-17.538,0.079-17.538,0.079c0.196-0.234,0.837-0.866,0.995-1.187C36.331,25.142,35.721,19.575,37.056,17.022z"/>
	</g>
</g>
<g>
	
		<image overflow="visible" opacity="0.4" width="223" height="72" xlink:href="4A136ED2B8B4A55A.png"  transform="matrix(0.48 0 0 0.48 0 12.7079)">
	</image>
	<g>
		<linearGradient id="SVGID_2_" gradientUnits="userSpaceOnUse" x1="25.1614" y1="45.9729" x2="81.666" y2="13.35">
			<stop  offset="0" style="stop-color:#7FC1C9"/>
			<stop  offset="0.2001" style="stop-color:#7093A4"/>
			<stop  offset="0.3675" style="stop-color:#65748C"/>
			<stop  offset="0.4911" style="stop-color:#5F6381"/>
			<stop  offset="0.5575" style="stop-color:#5D5D7D"/>
			<stop  offset="0.6019" style="stop-color:#65566B"/>
			<stop  offset="0.8797" style="stop-color:#502102"/>
			<stop  offset="1" style="stop-color:#000000"/>
		</linearGradient>
		<path fill="url(#SVGID_2_)" d="M15.074,28.244c2.933-1.213,7.631-0.028,10.157,0.239c2.198,0.233,6.751,0.085,8.84,0.005
			c4.599-0.175,13.81-0.226,18.411-0.095c4.889,0.139,14.672,0.613,19.525,1.215c2.617,0.325,7.748,0.508,10.369,0.803
			c2.421,0.273,6.497-0.217,8.813,0.125c0.973,0.144,0.564,0.682-0.346,1.01c-1.18,0.425-5.245,0.689-9.133,0.684
			c-2.678-0.003-7.936-0.143-10.608-0.332c-4.618-0.327-13.889-0.185-18.515-0.354c-4.643-0.169-14.215-0.515-18.862-0.503
			c-2.331,0.006-5.518,0-9.25-0.308c-1.385-0.114-6.682-1.054-8.025-1.412C16.027,29.21,14.671,28.411,15.074,28.244z"/>
	</g>
</g>
</svg>
