<?xml version="1.0" encoding="utf-8"?>
<!-- Generator: Adobe Illustrator 17.0.0, SVG Export Plug-In . SVG Version: 6.00 Build 0)  -->
<!DOCTYPE svg PUBLIC "-//W3C//DTD SVG 1.1//EN" "http://www.w3.org/Graphics/SVG/1.1/DTD/svg11.dtd">
<svg version="1.1" id="Layer_1" xmlns="http://www.w3.org/2000/svg" xmlns:xlink="http://www.w3.org/1999/xlink" x="0px" y="0px"
	 width="91.2px" height="28.8px" viewBox="0 0 91.2 28.8" enable-background="new 0 0 91.2 28.8" xml:space="preserve">
<g>
	
		<image overflow="visible" opacity="0.3" width="190" height="60" xlink:href="9EA53D6022E91F70.png"  transform="matrix(0.48 0 0 0.48 0 0)">
	</image>
	<g>
		<path fill="#EBE6E5" d="M6.086,22.589c0,0,17.985-4.936,37.502-4.785c24.484,0.19,41.18,4.215,41.18,4.215s1.052-4.321-0.71-8.872
			C81.837,7.407,79.45,6,79.45,6H11.405c0,0-3.393,3.759-4.275,6.314C5.555,16.876,6.086,22.589,6.086,22.589z"/>
	</g>
</g>
<path fill="#A7DDE3" d="M6,19.257c0,0,28.535-4.879,38.143-4.962c10.179-0.088,40.931,4.998,40.931,4.998l-0.115-2.978
	c0,0-30.544-4.828-40.598-4.649c-9.699,0.172-38.249,5.84-38.249,5.84L6,19.257z"/>
<path fill="#EB9971" d="M6.582,14.295c0,0,28.195-3.869,37.803-3.93c10.179-0.064,39.939,3.529,39.939,3.529l-0.893-2.251
	c-27.812-3.224-27.662-3.35-38.827-3.205C34.904,8.565,7.13,12.314,7.13,12.314L6.582,14.295z"/>
</svg>
