<?xml version="1.0" encoding="utf-8"?>
<!-- Generator: Adobe Illustrator 17.0.0, SVG Export Plug-In . SVG Version: 6.00 Build 0)  -->
<!DOCTYPE svg PUBLIC "-//W3C//DTD SVG 1.1//EN" "http://www.w3.org/Graphics/SVG/1.1/DTD/svg11.dtd">
<svg version="1.1" id="Layer_1" xmlns="http://www.w3.org/2000/svg" xmlns:xlink="http://www.w3.org/1999/xlink" x="0px" y="0px"
	 width="22.334px" height="22.041px" viewBox="0 0 22.334 22.041" enable-background="new 0 0 22.334 22.041" xml:space="preserve">
<linearGradient id="SVGID_1_" gradientUnits="userSpaceOnUse" x1="13.4008" y1="2.5322" x2="8.9917" y2="18.859">
	<stop  offset="0" style="stop-color:#DBC3DF"/>
	<stop  offset="0.2438" style="stop-color:#DAC9DF"/>
	<stop  offset="0.6427" style="stop-color:#D6D8E3"/>
	<stop  offset="1" style="stop-color:#D1ECEA"/>
</linearGradient>
<polygon fill="url(#SVGID_1_)" points="6.856,4.749 6.653,2.416 8.884,1.554 12.636,2.873 11.876,8.45 15.121,3.583 18.417,3.887 
	19.025,6.067 16.642,8.045 13.245,9.972 20.09,10.631 20.242,13.927 16.946,14.079 13.448,12.406 15.577,14.941 15.983,20.062 
	13.448,20.062 12.586,17.831 12.028,13.369 5.639,14.332 2.546,15.752 0.771,13.47 2.951,11.949 8.732,11.341 7.566,9.414 
	2.089,7.69 3.712,5.104 8.428,7.943 9.492,8.653 10.304,8.248 9.466,8.011 8.073,5.864 "/>
<linearGradient id="SVGID_2_" gradientUnits="userSpaceOnUse" x1="6.2403" y1="4.0056" x2="13.1954" y2="4.0056">
	<stop  offset="0" style="stop-color:#DBC3DF"/>
	<stop  offset="0.1584" style="stop-color:#DABCD8"/>
	<stop  offset="0.4184" style="stop-color:#D7A9C9"/>
	<stop  offset="0.7456" style="stop-color:#D28CB3"/>
	<stop  offset="1" style="stop-color:#CE72A2"/>
</linearGradient>
<path fill="url(#SVGID_2_)" d="M9.466,8.011c0.049-0.027,0.099-0.05,0.149-0.074C9.456,7.705,9.31,7.481,9.195,7.316
	C8.849,6.822,7.983,5.663,8.112,5.478C8.258,5.267,9.226,6.22,9.623,6.697c0.223,0.267,0.445,0.638,0.63,1.007
	c0.274-0.07,0.558-0.112,0.853-0.112c0.387,0,0.758,0.067,1.106,0.186c0.215-0.885,0.527-2.082,0.872-3.118
	c0.092-0.641,0.136-1.225,0.097-1.661c-0.037-0.419-0.818-3.65-4.197-2.88C6.331,0.722,6.19,2.825,6.25,3.48
	C6.293,3.95,6.67,4.638,7.172,5.366C7.967,6.164,8.827,7.179,9.466,8.011z M7.838,2.504c0.209,0.211,0.045,0.64,0.001,0.865
	C7.795,3.597,7.735,4.152,7.522,4.141C7.278,4.129,7.134,3.578,7.127,3.334C7.115,2.929,7.674,2.339,7.838,2.504z"/>
<linearGradient id="SVGID_3_" gradientUnits="userSpaceOnUse" x1="2883.718" y1="288.2806" x2="2890.7207" y2="288.2806" gradientTransform="matrix(0.6716 0.741 -0.741 0.6716 -1709.4595 -2327.2739)">
	<stop  offset="0" style="stop-color:#DBC3DF"/>
	<stop  offset="0.1584" style="stop-color:#DABCD8"/>
	<stop  offset="0.4184" style="stop-color:#D7A9C9"/>
	<stop  offset="0.7456" style="stop-color:#D28CB3"/>
	<stop  offset="1" style="stop-color:#CE72A2"/>
</linearGradient>
<path fill="url(#SVGID_3_)" d="M14.328,9.774c0.826-0.474,2.153-1.132,3.6-1.458c0.434-0.266,0.799-0.533,1.035-0.789
	c0.286-0.308,1.596-2.088,0.139-4.311c-1.868-2.851-4.074-1.892-5.151-0.501c-0.287,0.371-0.588,1.105-0.868,1.945
	c-0.149,1.038-0.425,2.225-0.692,3.185C13.261,8.198,13.961,8.894,14.328,9.774z M17.675,4.941c0.218-0.108,0.613,0.302,0.738,0.512
	c0.208,0.348,0.008,1.136-0.216,1.071c-0.285-0.082-0.351-0.537-0.423-0.754C17.702,5.549,17.484,5.036,17.675,4.941z"/>
<linearGradient id="SVGID_4_" gradientUnits="userSpaceOnUse" x1="-1767.4518" y1="-2592.7644" x2="-1760.3784" y2="-2592.7644" gradientTransform="matrix(0.6094 -0.7929 0.7929 0.6094 3135.0881 189.0592)">
	<stop  offset="0" style="stop-color:#DBC3DF"/>
	<stop  offset="0.1584" style="stop-color:#DABCD8"/>
	<stop  offset="0.4184" style="stop-color:#D7A9C9"/>
	<stop  offset="0.7456" style="stop-color:#D28CB3"/>
	<stop  offset="1" style="stop-color:#CE72A2"/>
</linearGradient>
<path fill="url(#SVGID_4_)" d="M7.676,10.453C7.882,9.435,8.509,8.577,9.36,8.074C8.74,7.383,7.845,6.339,7.172,5.366
	C6.694,4.885,6.239,4.482,5.871,4.247C5.516,4.021,2.892,2.923,1.137,4.886C-1.198,7.5,0.555,9.43,2.029,10.036
	c0.381,0.157,1.057,0.272,1.842,0.356C4.958,10.278,6.448,10.332,7.676,10.453z"/>
<linearGradient id="SVGID_5_" gradientUnits="userSpaceOnUse" x1="-1046.4293" y1="-5274.9585" x2="-1039.4602" y2="-5274.9585" gradientTransform="matrix(-0.1478 -0.989 0.989 -0.1478 5067.1436 -1797.3595)">
	<stop  offset="0" style="stop-color:#DBC3DF"/>
	<stop  offset="0.1584" style="stop-color:#DABCD8"/>
	<stop  offset="0.4184" style="stop-color:#D7A9C9"/>
	<stop  offset="0.7456" style="stop-color:#D28CB3"/>
	<stop  offset="1" style="stop-color:#CE72A2"/>
</linearGradient>
<path fill="url(#SVGID_5_)" d="M7.602,11.189c0-0.199,0.02-0.393,0.05-0.583c-1.057-0.024-2.553-0.081-3.782-0.213
	c-0.269,0.028-0.517,0.065-0.726,0.116c-0.409,0.098-2.664,0.451-2.946,3.358c-0.431,4.445,3.808,3.582,4.447,3.426
	c0.546-0.133,1.324-0.778,2.093-1.543c0.543-0.72,1.198-1.482,1.794-2.125C7.957,12.983,7.602,12.129,7.602,11.189z M2.941,13.927
	c-0.044,0.228-0.104,0.782-0.318,0.772c-0.243-0.012-0.388-0.563-0.395-0.807c-0.011-0.405,0.547-0.996,0.712-0.83
	C3.149,13.273,2.984,13.702,2.941,13.927z"/>
<linearGradient id="SVGID_6_" gradientUnits="userSpaceOnUse" x1="1826.7312" y1="-6628.7676" x2="1833.4487" y2="-6628.7676" gradientTransform="matrix(-0.8815 -0.4722 0.4722 -0.8815 4752.519 -4960.9473)">
	<stop  offset="0" style="stop-color:#DBC3DF"/>
	<stop  offset="0.1584" style="stop-color:#DABCD8"/>
	<stop  offset="0.4184" style="stop-color:#D7A9C9"/>
	<stop  offset="0.7456" style="stop-color:#D28CB3"/>
	<stop  offset="1" style="stop-color:#CE72A2"/>
</linearGradient>
<path fill="url(#SVGID_6_)" d="M11.106,14.786c-0.985,0-1.873-0.418-2.509-1.089c-0.499,0.598-1.175,1.373-1.859,2.052
	c-0.451,0.599-0.825,1.169-1.015,1.614c-0.165,0.386-0.881,2.879,1.384,4.101c2.553,1.376,4.216,0.06,4.787-1.502
	c0.233-0.638,0.172-1.938,0.02-3.241c-0.165-0.665-0.311-1.346-0.426-1.957C11.362,14.777,11.235,14.786,11.106,14.786z"/>
<linearGradient id="SVGID_7_" gradientUnits="userSpaceOnUse" x1="4639.6978" y1="-5113.0459" x2="4646.5391" y2="-5113.0459" gradientTransform="matrix(-0.9049 0.4257 -0.4257 -0.9049 2040.2205 -6586.248)">
	<stop  offset="0" style="stop-color:#DBC3DF"/>
	<stop  offset="0.1584" style="stop-color:#DABCD8"/>
	<stop  offset="0.4184" style="stop-color:#D7A9C9"/>
	<stop  offset="0.7456" style="stop-color:#D28CB3"/>
	<stop  offset="1" style="stop-color:#CE72A2"/>
</linearGradient>
<path fill="url(#SVGID_7_)" d="M11.626,14.742c0.101,0.595,0.207,1.287,0.288,1.979c0.27,1.09,0.587,2.134,0.891,2.742
	c0.577,1.155,2.311,2.072,4.456,1.04c2.667-1.282,2.146-3.618,1.24-4.817c-0.235-0.311-0.69-0.678-1.238-1.053
	c-1.021-0.373-2.22-1-3.173-1.565C13.559,13.953,12.669,14.582,11.626,14.742z M14.919,19.329c-0.08,0.23-0.649,0.215-0.885,0.153
	c-0.392-0.102-0.802-0.804-0.597-0.916c0.261-0.142,0.627,0.137,0.83,0.241C14.474,18.914,14.989,19.127,14.919,19.329z"/>
<linearGradient id="SVGID_8_" gradientUnits="userSpaceOnUse" x1="5167.2036" y1="-2171.4634" x2="5174.2192" y2="-2171.4634" gradientTransform="matrix(-0.2607 0.9654 -0.9654 -0.2607 -729.978 -5546.6958)">
	<stop  offset="0" style="stop-color:#DBC3DF"/>
	<stop  offset="0.1584" style="stop-color:#DABCD8"/>
	<stop  offset="0.4184" style="stop-color:#D7A9C9"/>
	<stop  offset="0.7456" style="stop-color:#D28CB3"/>
	<stop  offset="1" style="stop-color:#CE72A2"/>
</linearGradient>
<path fill="url(#SVGID_8_)" d="M21.746,9.761c-0.605-1.12-1.02-1.692-2.4-1.641c-0.476,0.018-0.952,0.091-1.418,0.196
	c-1.017,0.624-2.424,1.246-3.507,1.714c0.121,0.364,0.189,0.753,0.189,1.158c0,0.438-0.08,0.857-0.22,1.245
	c0.541-0.036,1.489,0.253,2.005,0.375c0.587,0.139,2.004,0.428,2.031,0.652c0.031,0.255-1.326,0.187-1.939,0.096
	c-0.747-0.111-1.819-0.587-2.195-0.878c-0.027,0.06-0.053,0.119-0.083,0.177c0.859,0.447,2.098,1.125,3.053,1.778
	c0.401,0.146,0.776,0.255,1.095,0.303C20.711,15.289,23.592,13.177,21.746,9.761z"/>
<linearGradient id="SVGID_9_" gradientUnits="userSpaceOnUse" x1="7.2741" y1="11.1838" x2="14.7119" y2="11.1838">
	<stop  offset="0" style="stop-color:#F3E23C"/>
	<stop  offset="0.2508" style="stop-color:#EACD30"/>
	<stop  offset="0.5194" style="stop-color:#E6C026"/>
	<stop  offset="0.7745" style="stop-color:#E4B823"/>
	<stop  offset="1" style="stop-color:#E4B623"/>
</linearGradient>
<ellipse fill="url(#SVGID_9_)" cx="10.993" cy="11.184" rx="3.719" ry="3.701"/>
</svg>
