<?xml version="1.0" encoding="utf-8"?>
<!-- Generator: Adobe Illustrator 17.0.0, SVG Export Plug-In . SVG Version: 6.00 Build 0)  -->
<!DOCTYPE svg PUBLIC "-//W3C//DTD SVG 1.1//EN" "http://www.w3.org/Graphics/SVG/1.1/DTD/svg11.dtd">
<svg version="1.1" id="Layer_1" xmlns="http://www.w3.org/2000/svg" xmlns:xlink="http://www.w3.org/1999/xlink" x="0px" y="0px"
	 width="65.205px" height="11.055px" viewBox="0 0 65.205 11.055" enable-background="new 0 0 65.205 11.055" xml:space="preserve">
<g>
	<path fill="#282828" d="M0,9.977c7.311-2.225,14.217-2.984,21.846-4.097C30.27,4.45,38.98,3.882,47.563,4.836
		c2.702,0.318,5.404,0.795,8.106,1.272c3.02,0.477,6.835,0.215,9.537,1.486c-1.907-0.795-5.086-0.215-7.311-0.532
		c-2.384-0.318-4.768-0.636-7.152-0.954c-4.927-0.795-9.695-1.272-14.464-0.954c-5.086,0.318-9.854,1.748-14.782,2.543
		c-4.291,0.636-8.879,0.111-13.329,1.065C5.306,9.238,0,9.977,0,9.977z"/>
</g>
<g>
	<g>
		<linearGradient id="SVGID_1_" gradientUnits="userSpaceOnUse" x1="16.6027" y1="1.6465" x2="16.6027" y2="1.6465">
			<stop  offset="0" style="stop-color:#FAAB4F"/>
			<stop  offset="0.0389" style="stop-color:#F0A85E"/>
			<stop  offset="0.1657" style="stop-color:#D7A47E"/>
			<stop  offset="0.2963" style="stop-color:#C1A097"/>
			<stop  offset="0.4286" style="stop-color:#AE9CAA"/>
			<stop  offset="0.5632" style="stop-color:#9E99B8"/>
			<stop  offset="0.7009" style="stop-color:#9297C1"/>
			<stop  offset="0.8438" style="stop-color:#8B96C8"/>
			<stop  offset="1" style="stop-color:#8896CB"/>
		</linearGradient>
		<path fill="none" stroke="url(#SVGID_1_)" stroke-miterlimit="10" d="M16.603,1.646"/>
	</g>
</g>
<g>
	<g>
		<linearGradient id="SVGID_2_" gradientUnits="userSpaceOnUse" x1="16.7431" y1="1.5903" x2="16.7431" y2="1.5903">
			<stop  offset="0" style="stop-color:#FAAB4F"/>
			<stop  offset="0.0389" style="stop-color:#F0A85E"/>
			<stop  offset="0.1657" style="stop-color:#D7A47E"/>
			<stop  offset="0.2963" style="stop-color:#C1A097"/>
			<stop  offset="0.4286" style="stop-color:#AE9CAA"/>
			<stop  offset="0.5632" style="stop-color:#9E99B8"/>
			<stop  offset="0.7009" style="stop-color:#9297C1"/>
			<stop  offset="0.8438" style="stop-color:#8B96C8"/>
			<stop  offset="1" style="stop-color:#8896CB"/>
		</linearGradient>
		<path fill="none" stroke="url(#SVGID_2_)" stroke-miterlimit="10" d="M16.743,1.59"/>
	</g>
</g>
<g>
	<linearGradient id="SVGID_3_" gradientUnits="userSpaceOnUse" x1="0" y1="7.0711" x2="65.2055" y2="7.0711">
		<stop  offset="0" style="stop-color:#001E36"/>
		<stop  offset="0.1132" style="stop-color:#264865"/>
		<stop  offset="0.262" style="stop-color:#4F7497"/>
		<stop  offset="0.3862" style="stop-color:#7096BD"/>
		<stop  offset="0.4791" style="stop-color:#85ACD4"/>
		<stop  offset="0.5303" style="stop-color:#8DB5DE"/>
		<stop  offset="0.9853" style="stop-color:#282B73"/>
	</linearGradient>
	<path fill="url(#SVGID_3_)" d="M0,9.977c7.311-2.225,13.859-2.984,21.488-4.097C29.912,4.45,38.98,3.62,47.563,4.573
		c2.702,0.318,5.404,0.795,8.106,1.272c3.02,0.477,6.835,0.477,9.537,1.748c-1.907-0.795-5.086-0.477-7.311-0.795
		c-2.384-0.318-4.768-0.636-7.152-0.954c-4.927-0.795-9.695-1.272-14.464-0.954c-5.086,0.318-9.854,1.748-14.782,2.543
		C17.205,8.07,12.618,7.545,8.167,8.499C5.306,8.976,0,9.977,0,9.977z"/>
</g>
<g>
	<linearGradient id="SVGID_4_" gradientUnits="userSpaceOnUse" x1="7.368" y1="6.9128" x2="9.7125" y2="6.9128">
		<stop  offset="0" style="stop-color:#F9C7DD"/>
		<stop  offset="0.1049" style="stop-color:#F3BFB9"/>
		<stop  offset="0.223" style="stop-color:#EFB799"/>
		<stop  offset="0.3446" style="stop-color:#ECB27E"/>
		<stop  offset="0.4678" style="stop-color:#E9AD67"/>
		<stop  offset="0.5932" style="stop-color:#E7AA53"/>
		<stop  offset="0.7215" style="stop-color:#E6A743"/>
		<stop  offset="0.8546" style="stop-color:#E5A63A"/>
		<stop  offset="1" style="stop-color:#E4A637"/>
	</linearGradient>
	<path fill="url(#SVGID_4_)" d="M7.559,7.364C6.947,5.489,7.995,3.586,8.104,3.776C8.181,3.908,7.411,5.503,7.86,7.071
		C8.444,9.108,9.93,9.99,9.686,10.06C9.482,10.118,8.23,9.421,7.559,7.364z"/>
</g>
<g>
	<linearGradient id="SVGID_5_" gradientUnits="userSpaceOnUse" x1="15.3835" y1="6.1363" x2="16.8818" y2="6.1363">
		<stop  offset="0" style="stop-color:#F9C7DD"/>
		<stop  offset="0.1049" style="stop-color:#F3BFB9"/>
		<stop  offset="0.223" style="stop-color:#EFB799"/>
		<stop  offset="0.3446" style="stop-color:#ECB27E"/>
		<stop  offset="0.4678" style="stop-color:#E9AD67"/>
		<stop  offset="0.5932" style="stop-color:#E7AA53"/>
		<stop  offset="0.7215" style="stop-color:#E6A743"/>
		<stop  offset="0.8546" style="stop-color:#E5A63A"/>
		<stop  offset="1" style="stop-color:#E4A637"/>
	</linearGradient>
	<path fill="url(#SVGID_5_)" d="M16.028,5.574c-0.108-2.706,0.911-4.104,0.852-4.354c-0.42-0.073-1.368,1.448-1.482,3.374
		c-0.139,2.366,0.774,6.525,1.319,6.461C16.945,11.028,16.148,8.587,16.028,5.574z"/>
</g>
<g>
	<path fill="#282828" d="M32.393,10.063c0.005,0.029-0.288-0.317-0.428-0.63c-0.201-0.449-0.492-0.862-0.773-1.271
		C30.6,7.3,30.01,6.454,29.408,5.606c-0.69-0.971-1.362-1.97-2.049-2.948c-0.327-0.464-0.664-0.978-0.963-1.464
		c-0.189-0.307-0.554-0.582-0.629-0.932c0.394,0.003,0.982,0.892,1.23,1.16c1.535,1.662,3.178,3.274,4.512,5.104
		C31.913,7.081,33.892,9.619,32.393,10.063L32.393,10.063z"/>
</g>
<g>
	<path fill="#282828" d="M32.843,2.945c-0.494,0.353-0.849,0.755-1.306,1.158c-0.465,0.411-0.825,0.875-1.199,1.372
		c-0.469,0.624-0.89,0.834-1.428,1.389c-0.445,0.458-0.993,0.844-1.374,1.347c-0.184,0.243-0.351,0.293-0.563,0.524
		c-0.095,0.103-0.911,0.205-1.048,0.152c0.242-0.751,1.123-1.29,1.659-1.867c0.624-0.672,1.155-1.401,1.783-2.068
		c1.302-1.402,2.97-2.757,4.909-3.158C34.437,1.76,33.383,2.559,32.843,2.945z"/>
</g>
<g>
	<linearGradient id="SVGID_6_" gradientUnits="userSpaceOnUse" x1="25.767" y1="5.0319" x2="32.9459" y2="5.0319">
		<stop  offset="0" style="stop-color:#F9C7DD"/>
		<stop  offset="0.1049" style="stop-color:#F3BFB9"/>
		<stop  offset="0.223" style="stop-color:#EFB799"/>
		<stop  offset="0.3446" style="stop-color:#ECB27E"/>
		<stop  offset="0.4678" style="stop-color:#E9AD67"/>
		<stop  offset="0.5932" style="stop-color:#E7AA53"/>
		<stop  offset="0.7215" style="stop-color:#E6A743"/>
		<stop  offset="0.8546" style="stop-color:#E5A63A"/>
		<stop  offset="1" style="stop-color:#E4A637"/>
	</linearGradient>
	<path fill="url(#SVGID_6_)" d="M32.393,10.063c0.005,0.029-0.288-0.579-0.428-0.893c-0.201-0.449-0.492-0.862-0.773-1.271
		C30.6,7.038,30.01,6.191,29.408,5.344c-0.69-0.971-1.362-1.97-2.049-2.948c-0.327-0.464-0.598-0.883-0.897-1.369
		C26.272,0.72,25.842,0.35,25.767,0c0.394,0.003,0.982,0.892,1.23,1.16c1.535,1.662,3.178,3.274,4.512,5.104
		C31.913,6.819,33.892,9.619,32.393,10.063L32.393,10.063z"/>
</g>
<g>
	
		<linearGradient id="SVGID_7_" gradientUnits="userSpaceOnUse" x1="-594.9238" y1="469.2492" x2="-585.9203" y2="469.2492" gradientTransform="matrix(0.9958 -0.0912 0.0912 0.9958 575.2718 -515.9274)">
		<stop  offset="0" style="stop-color:#F9C7DD"/>
		<stop  offset="0.1049" style="stop-color:#F3BFB9"/>
		<stop  offset="0.223" style="stop-color:#EFB799"/>
		<stop  offset="0.3446" style="stop-color:#ECB27E"/>
		<stop  offset="0.4678" style="stop-color:#E9AD67"/>
		<stop  offset="0.5932" style="stop-color:#E7AA53"/>
		<stop  offset="0.7215" style="stop-color:#E6A743"/>
		<stop  offset="0.8546" style="stop-color:#E5A63A"/>
		<stop  offset="1" style="stop-color:#E4A637"/>
	</linearGradient>
	<path fill="url(#SVGID_7_)" d="M32.843,2.683c-0.494,0.353-0.849,0.755-1.306,1.158c-0.465,0.411-0.825,0.875-1.199,1.372
		c-0.469,0.624-0.89,0.834-1.428,1.389c-0.445,0.458-0.993,0.844-1.374,1.347c-0.184,0.243-0.5,0.474-0.712,0.705
		c-0.095,0.103-0.762,0.287-0.899,0.233c0.242-0.751,1.123-1.552,1.659-2.129c0.624-0.672,1.155-1.401,1.783-2.068
		c1.302-1.402,2.97-2.757,4.909-3.158C34.437,1.498,33.383,2.297,32.843,2.683z"/>
</g>
<g>
	<linearGradient id="SVGID_8_" gradientUnits="userSpaceOnUse" x1="43.5116" y1="5.0584" x2="45.2478" y2="5.0584">
		<stop  offset="0" style="stop-color:#F9C7DD"/>
		<stop  offset="0.1049" style="stop-color:#F3BFB9"/>
		<stop  offset="0.223" style="stop-color:#EFB799"/>
		<stop  offset="0.3446" style="stop-color:#ECB27E"/>
		<stop  offset="0.4678" style="stop-color:#E9AD67"/>
		<stop  offset="0.5932" style="stop-color:#E7AA53"/>
		<stop  offset="0.7215" style="stop-color:#E6A743"/>
		<stop  offset="0.8546" style="stop-color:#E5A63A"/>
		<stop  offset="1" style="stop-color:#E4A637"/>
	</linearGradient>
	<path fill="url(#SVGID_8_)" d="M44.047,9.025c-0.027-0.707,0.452-1.556,0.562-2.36c0.157-1.147,0.06-2.29-0.119-3.427
		c-0.069-0.438-0.206-0.915-0.41-1.309c-0.131-0.254-0.339-0.545-0.569-0.837c0.047,0,0.091,0.001,0.131,0.022
		c0.561,0.291,1.055,1.185,1.219,1.608c0.267,0.69,0.376,1.437,0.385,2.175c0.017,1.396-0.297,2.941-1.129,4.09L44.047,9.025z"/>
</g>
<g>
	<linearGradient id="SVGID_9_" gradientUnits="userSpaceOnUse" x1="50.7983" y1="5.766" x2="53.4691" y2="5.766">
		<stop  offset="0" style="stop-color:#F9C7DD"/>
		<stop  offset="0.1049" style="stop-color:#F3BFB9"/>
		<stop  offset="0.223" style="stop-color:#EFB799"/>
		<stop  offset="0.3446" style="stop-color:#ECB27E"/>
		<stop  offset="0.4678" style="stop-color:#E9AD67"/>
		<stop  offset="0.5932" style="stop-color:#E7AA53"/>
		<stop  offset="0.7215" style="stop-color:#E6A743"/>
		<stop  offset="0.8546" style="stop-color:#E5A63A"/>
		<stop  offset="1" style="stop-color:#E4A637"/>
	</linearGradient>
	<path fill="url(#SVGID_9_)" d="M53.463,5.916c-0.127,1.597-2.711,3.679-2.664,3.445c0.147-0.734,2.182-1.865,2.131-4.303
		c-0.011-0.506-0.453-3.131-0.29-2.89C53.008,2.714,53.53,5.075,53.463,5.916z"/>
</g>
</svg>
