<?xml version="1.0" encoding="utf-8"?>
<!-- Generator: Adobe Illustrator 17.0.0, SVG Export Plug-In . SVG Version: 6.00 Build 0)  -->
<!DOCTYPE svg PUBLIC "-//W3C//DTD SVG 1.1//EN" "http://www.w3.org/Graphics/SVG/1.1/DTD/svg11.dtd">
<svg version="1.1" id="Layer_1" xmlns="http://www.w3.org/2000/svg" xmlns:xlink="http://www.w3.org/1999/xlink" x="0px" y="0px"
	 width="44.451px" height="23.598px" viewBox="0 0 44.451 23.598" enable-background="new 0 0 44.451 23.598" xml:space="preserve">
<g>
	<path fill="#6CC4B9" d="M9.317,2.445c0.085-0.058-7.591,5.948-8.552,9.102C0.062,13.85-0.3,19.401,0.311,23.573
		c0.061,0.416,8.232-4.488,8.232-4.488S5.114,5.303,9.317,2.445z"/>
	<path fill="#9BD7D1" d="M9.317,2.445C11.938,0.467,20.969-0.36,23.89,0.144c5.602,0.967,9.797,6.711,10.495,8.208
		c0.582,1.25,0.339,4.201,0.339,4.201L23.51,13.231l-9.485,2.067L7.423,19.65c0,0-0.191-7.46-0.333-10.755
		C6.875,3.88,9.317,2.445,9.317,2.445z"/>
	<path fill="#EF462B" d="M36.18,21.667c0,0,5.181-0.961,6.539-1.999c0.644-0.492,1.772-1.935,1.728-2.744
		c-0.041-0.74-1.224-1.917-1.846-2.321c-1.706-1.11-5.854-1.831-7.878-2.05c-2.966-0.32-8.974,0.033-11.925,0.469
		c-2.242,0.331-6.711,1.337-8.773,2.275c-2.507,1.14-9.811,6.293-9.693,6.234c2.558-1.29,11.286-3.684,18.737-3.93
		c4.949-0.163,8.271,0.279,10.57,1.645C34.394,19.694,36.18,21.667,36.18,21.667z"/>
	<path fill="#D7B891" d="M18.914,10.771c0.18,2.178,0.967,3.219,2.931,4.071c0,0,2.464-0.953,3.579-1.122
		c1.541-0.232,4.342,0.458,4.342,0.458c1.129-1.169,1.765-2.752,1.625-4.439c-0.267-3.232-3.277-5.621-6.722-5.336
		C21.224,4.688,18.647,7.539,18.914,10.771z"/>
	<path fill="#F26B5D" d="M4.333,21.531c0,0,7.183-5.1,9.693-6.234c2.149-0.97,6.812-1.969,9.146-2.304
		c2.861-0.41,8.679-0.753,11.553-0.44c2.023,0.22,6.172,0.94,7.878,2.05c0.621,0.404,1.78,1.582,1.846,2.321
		c0.107,1.207-1.728,2.744-1.728,2.744s0.939-1.177-0.857-2.793c-1.426-1.283-5.98-2.122-7.883-2.356
		c-3.75-0.461-11.411,0.03-15.083,0.915C15.195,16.324,4.333,21.531,4.333,21.531z"/>
</g>
</svg>
