<?xml version="1.0" encoding="utf-8"?>
<!-- Generator: Adobe Illustrator 17.0.0, SVG Export Plug-In . SVG Version: 6.00 Build 0)  -->
<!DOCTYPE svg PUBLIC "-//W3C//DTD SVG 1.1//EN" "http://www.w3.org/Graphics/SVG/1.1/DTD/svg11.dtd">
<svg version="1.1" id="Layer_1" xmlns="http://www.w3.org/2000/svg" xmlns:xlink="http://www.w3.org/1999/xlink" x="0px" y="0px"
	 width="45.83px" height="40.508px" viewBox="0 0 45.83 40.508" enable-background="new 0 0 45.83 40.508" xml:space="preserve">
<g>
	
		<image overflow="visible" opacity="0.3" width="56" height="72" xlink:href="AA7BBC907E4D176A.png"  transform="matrix(0.48 0 0 0.48 0 3.668)">
	</image>
	<g>
		<linearGradient id="SVGID_1_" gradientUnits="userSpaceOnUse" x1="7.4435" y1="8.9186" x2="20.2806" y2="31.1531">
			<stop  offset="0.0436" style="stop-color:#5D3D1F"/>
			<stop  offset="0.0466" style="stop-color:#624122"/>
			<stop  offset="0.0732" style="stop-color:#855E3E"/>
			<stop  offset="0.0998" style="stop-color:#A37654"/>
			<stop  offset="0.126" style="stop-color:#BB8A66"/>
			<stop  offset="0.1516" style="stop-color:#CD9974"/>
			<stop  offset="0.1763" style="stop-color:#D8A17C"/>
			<stop  offset="0.1992" style="stop-color:#DBA47F"/>
			<stop  offset="0.2886" style="stop-color:#DF886F"/>
			<stop  offset="0.3844" style="stop-color:#E36D62"/>
			<stop  offset="0.4765" style="stop-color:#E65259"/>
			<stop  offset="0.5626" style="stop-color:#E93952"/>
			<stop  offset="0.6404" style="stop-color:#EC224F"/>
			<stop  offset="0.7027" style="stop-color:#ED174E"/>
			<stop  offset="0.7651" style="stop-color:#CD0B4F"/>
			<stop  offset="0.8303" style="stop-color:#B3004E"/>
			<stop  offset="0.8656" style="stop-color:#A9004D"/>
		</linearGradient>
		<path fill="url(#SVGID_1_)" d="M14.271,26.653c-0.642-1.493-1.343-4.724-2.158-6.129c-0.514-0.886-2.189-2.199-2.681-3.097
			C8.996,16.63,8.85,14.732,8.4,13.943c-0.393-0.689-1.869-1.585-2.159-2.323c-0.177-0.45-0.44-2.137,0-1.936
			c4.048,1.856,6.452,3.53,8.03,5.355c0.855,0.988,2.037,3.296,2.859,4.311c0.389,0.48,1.161,1.386,1.528,1.882
			c0.91,1.231,1.266,4.218,2.129,5.742c0.344,0.607-1.617,1.457-1.807,2.129c-0.173,0.612,0.768,2.006,0.387,2.516
			c-0.361,0.482-1.853,0.602-2.387,0.323C15.664,31.255,14.858,28.018,14.271,26.653z"/>
	</g>
</g>
<g>
	
		<image overflow="visible" opacity="0.3" width="53" height="80" xlink:href="AA7BBC907E4D176E.png"  transform="matrix(0.48 0 0 0.48 20.3897 2.1075)">
	</image>
	<g>
		<linearGradient id="SVGID_2_" gradientUnits="userSpaceOnUse" x1="32.9082" y1="8.1075" x2="32.9082" y2="34.1781">
			<stop  offset="0" style="stop-color:#5D3D1F"/>
			<stop  offset="0.0038" style="stop-color:#624122"/>
			<stop  offset="0.0379" style="stop-color:#855E3E"/>
			<stop  offset="0.072" style="stop-color:#A37654"/>
			<stop  offset="0.1055" style="stop-color:#BB8A66"/>
			<stop  offset="0.1382" style="stop-color:#CD9974"/>
			<stop  offset="0.1699" style="stop-color:#D8A17C"/>
			<stop  offset="0.1992" style="stop-color:#DBA47F"/>
			<stop  offset="0.2886" style="stop-color:#DF886F"/>
			<stop  offset="0.3844" style="stop-color:#E36D62"/>
			<stop  offset="0.4765" style="stop-color:#E65259"/>
			<stop  offset="0.5626" style="stop-color:#E93952"/>
			<stop  offset="0.6404" style="stop-color:#EC224F"/>
			<stop  offset="0.7027" style="stop-color:#ED174E"/>
			<stop  offset="0.7704" style="stop-color:#CD0B4F"/>
			<stop  offset="0.8412" style="stop-color:#B3004E"/>
			<stop  offset="0.8795" style="stop-color:#A9004D"/>
		</linearGradient>
		<path fill="url(#SVGID_2_)" d="M39.305,8.136c0.392,0.112-0.282,1.403-0.337,1.808c-0.113,0.829-0.6,1.79-1.017,2.515
			c-0.554,0.963-1.286,3.099-1.936,4c-0.553,0.768-2.71,2.644-2.71,2.644s-2.016,4.216-2.129,5.744
			c-0.069,0.937,0.254,2.895,0.774,3.678c0.282,0.425,1.705,0.652,1.677,1.161c-0.043,0.807-2.189,1.068-2.839,1.548
			c-0.834,0.617-2.011,3.306-2.968,2.903c-1.056-0.444,0.176-3.449,0-4.581c-0.18-1.154-1.569-3.293-1.419-4.452
			c0.1-0.777,1.943-2.143,1.371-2.677c-0.72-0.672-0.987-1.537-0.919-2.162c0.042-0.386,0.651-1.09,1.032-1.163
			c0.177-0.034,0.475,0.385,0.645,0.324c1.184-0.42,1.272-3.606,2.065-4.581c0.969-1.191,3.755-2.671,4.968-3.613
			C36.522,10.488,38.137,7.802,39.305,8.136z"/>
	</g>
</g>
<g>
	
		<image overflow="visible" opacity="0.3" width="45" height="66" xlink:href="AA7BBC907E4D1769.png"  transform="matrix(0.48 0 0 0.48 16.7773 0.249)">
	</image>
	<g>
		<linearGradient id="SVGID_3_" gradientUnits="userSpaceOnUse" x1="27.358" y1="6.249" x2="27.358" y2="25.7792">
			<stop  offset="0.0281" style="stop-color:#5D3D1F"/>
			<stop  offset="0.0315" style="stop-color:#624122"/>
			<stop  offset="0.0614" style="stop-color:#855E3E"/>
			<stop  offset="0.0913" style="stop-color:#A37654"/>
			<stop  offset="0.1207" style="stop-color:#BB8A66"/>
			<stop  offset="0.1495" style="stop-color:#CD9974"/>
			<stop  offset="0.1772" style="stop-color:#D8A17C"/>
			<stop  offset="0.203" style="stop-color:#DBA47F"/>
			<stop  offset="0.2917" style="stop-color:#DF886F"/>
			<stop  offset="0.3868" style="stop-color:#E36D62"/>
			<stop  offset="0.4782" style="stop-color:#E65259"/>
			<stop  offset="0.5636" style="stop-color:#E93952"/>
			<stop  offset="0.6409" style="stop-color:#EC224F"/>
			<stop  offset="0.7027" style="stop-color:#ED174E"/>
			<stop  offset="0.8165" style="stop-color:#CD0B4F"/>
			<stop  offset="0.9356" style="stop-color:#B3004E"/>
			<stop  offset="1" style="stop-color:#A9004D"/>
		</linearGradient>
		<path fill="url(#SVGID_3_)" d="M31.562,6.33c-2.292-0.733-6.488,3.715-7.678,5.807c-0.505,0.888-1.047,2.915-1.097,3.936
			c-0.054,1.112,0.107,3.318,0.272,4.419c0.195,1.302,0.056,4.456,1.147,5.194c0.47,0.318,1.736-0.245,2.194-0.581
			c0.632-0.463,1.682-1.862,1.677-2.645c-0.003-0.49-1.042-1.156-1.068-1.645c-0.025-0.48,0.418-1.562,0.874-1.711
			c0.172-0.056,0.475,0.385,0.645,0.324c1.184-0.42,1.272-3.606,2.065-4.581c0.24-0.295,1.059-0.556,1.231-0.896
			c0.22-0.433,0.06-1.461,0-1.943c-0.074-0.594-0.705-1.736-0.586-2.323c0.048-0.238,0.01-0.594,0.088-0.824
			c0.139-0.413,0.565-1.262,0.499-1.692C31.793,6.951,31.772,6.397,31.562,6.33z"/>
	</g>
</g>
<g>
	
		<image overflow="visible" opacity="0.3" width="48" height="70" xlink:href="AA7BBC907E4D176B.png"  transform="matrix(0.48 0 0 0.48 7.4597 0)">
	</image>
	<g>
		<linearGradient id="SVGID_4_" gradientUnits="userSpaceOnUse" x1="18.8845" y1="6" x2="18.8845" y2="27.1525">
			<stop  offset="0.0281" style="stop-color:#5D3D1F"/>
			<stop  offset="0.0315" style="stop-color:#624122"/>
			<stop  offset="0.0614" style="stop-color:#855E3E"/>
			<stop  offset="0.0913" style="stop-color:#A37654"/>
			<stop  offset="0.1207" style="stop-color:#BB8A66"/>
			<stop  offset="0.1495" style="stop-color:#CD9974"/>
			<stop  offset="0.1772" style="stop-color:#D8A17C"/>
			<stop  offset="0.203" style="stop-color:#DBA47F"/>
			<stop  offset="0.2917" style="stop-color:#DF886F"/>
			<stop  offset="0.3868" style="stop-color:#E36D62"/>
			<stop  offset="0.4782" style="stop-color:#E65259"/>
			<stop  offset="0.5636" style="stop-color:#E93952"/>
			<stop  offset="0.6409" style="stop-color:#EC224F"/>
			<stop  offset="0.7027" style="stop-color:#ED174E"/>
			<stop  offset="0.8165" style="stop-color:#CD0B4F"/>
			<stop  offset="0.9356" style="stop-color:#B3004E"/>
			<stop  offset="1" style="stop-color:#A9004D"/>
		</linearGradient>
		<path fill="url(#SVGID_4_)" d="M22.788,15.04c-0.274-1.126-0.959-3.413-1.677-4.323c-0.884-1.119-3.415-2.579-4.516-3.484
			c-0.265-0.218-0.737-0.73-1.033-0.903c-0.207-0.121-0.669-0.375-0.903-0.323c-0.245,0.055-0.647,0.467-0.71,0.71
			c-0.059,0.227,0.25,0.669,0.258,0.903c0.028,0.824-0.605,2.406-0.692,3.226c-0.07,0.658,0,1.984,0,2.645
			c0,0.261-0.123,0.814,0,1.044c0.107,0.201,0.602,0.338,0.757,0.505c0.933,1,1.843,3.695,2.713,4.75
			c0.351,0.427,1.359,0.99,1.674,1.444c0.874,1.257,0.872,4.868,2.129,5.742c0.41,0.286,1.534,0.18,2,0
			c0.447-0.173,1.261-0.838,1.419-1.29c0.437-1.249-0.663-3.914-0.839-5.226C23.188,19.109,23.11,16.364,22.788,15.04z"/>
	</g>
</g>
</svg>
