<?xml version="1.0" encoding="utf-8"?>
<!-- Generator: Adobe Illustrator 17.0.0, SVG Export Plug-In . SVG Version: 6.00 Build 0)  -->
<!DOCTYPE svg PUBLIC "-//W3C//DTD SVG 1.1//EN" "http://www.w3.org/Graphics/SVG/1.1/DTD/svg11.dtd">
<svg version="1.1" id="Layer_1" xmlns="http://www.w3.org/2000/svg" xmlns:xlink="http://www.w3.org/1999/xlink" x="0px" y="0px"
	 width="30.472px" height="44.761px" viewBox="0 0 30.472 44.761" enable-background="new 0 0 30.472 44.761" xml:space="preserve">
<g>
	
		<image overflow="visible" opacity="0.1" width="57" height="81" xlink:href="6832220573538060.png"  transform="matrix(0.48 0 0 0.48 0 0)">
	</image>
	<g>
		<path fill="#DFAD8D" d="M6,6l15.283,16.758c0,0-3.12,6.287-4.977,7.59c-1.898,1.332-9.022,2.143-9.022,2.143L6,6z"/>
	</g>
</g>
<path fill="#CC9E7F" d="M10.775,26.866c0,1.034-0.838,1.873-1.873,1.873l0,0c-1.034,0-1.873-0.838-1.873-1.873v-0.878
	c0-1.034,0.838-1.873,1.873-1.873l0,0c1.034,0,1.873,0.838,1.873,1.873V26.866z"/>
<path fill="#CC9E7F" d="M13.641,25.964c0,0.792-0.642,1.433-1.433,1.433l0,0c-0.792,0-1.433-0.642-1.433-1.433v-1.156
	c0-0.792,0.642-1.433,1.433-1.433l0,0c0.792,0,1.433,0.642,1.433,1.433V25.964z"/>
<path fill="#CC9E7F" d="M16.475,23.904c0,0.651-0.634,1.179-1.417,1.179l0,0c-0.783,0-1.417-0.528-1.417-1.179v-1.739
	c0-0.651,0.634-1.179,1.417-1.179l0,0c0.783,0,1.417,0.528,1.417,1.179V23.904z"/>
<path fill="#CC9E7F" d="M19.434,22.473c0,0.702-0.714,1.271-1.595,1.271l0,0c-0.881,0-1.595-0.569-1.595-1.271v-1.387
	c0-0.702,0.714-1.271,1.595-1.271l0,0c0.881,0,1.595,0.569,1.595,1.271V22.473z"/>
<path fill="#CC9E7F" d="M10.729,22.404c0,1.034-0.838,1.873-1.873,1.873l0,0c-1.034,0-1.873-0.838-1.873-1.873v-0.878
	c0-1.034,0.838-1.873,1.873-1.873l0,0c1.034,0,1.873,0.838,1.873,1.873V22.404z"/>
<path fill="#CC9E7F" d="M13.595,21.502c0,0.792-0.642,1.433-1.433,1.433l0,0c-0.792,0-1.433-0.642-1.433-1.433v-1.156
	c0-0.792,0.642-1.433,1.433-1.433l0,0c0.792,0,1.433,0.642,1.433,1.433V21.502z"/>
<path fill="#CC9E7F" d="M16.152,19.72c0,0.651-0.634,1.179-1.417,1.179l0,0c-0.783,0-1.417-0.528-1.417-1.179v-1.739
	c0-0.651,0.634-1.179,1.417-1.179l0,0c0.783,0,1.417,0.528,1.417,1.179V19.72z"/>
<path fill="#CC9E7F" d="M11.006,17.472c0,1.034-0.838,1.873-1.873,1.873l0,0c-1.034,0-1.873-0.838-1.873-1.873v-0.878
	c0-1.034,0.838-1.873,1.873-1.873l0,0c1.034,0,1.873,0.838,1.873,1.873V17.472z"/>
<path fill="#CC9E7F" d="M13.873,16.571c0,0.792-0.642,1.433-1.433,1.433l0,0c-0.792,0-1.433-0.642-1.433-1.433v-1.156
	c0-0.792,0.642-1.433,1.433-1.433l0,0c0.792,0,1.433,0.642,1.433,1.433V16.571z"/>
<path fill="#CC9E7F" d="M10.775,13.382c0,0.702-0.714,1.271-1.595,1.271l0,0c-0.881,0-1.595-0.569-1.595-1.271v-1.387
	c0-0.702,0.714-1.271,1.595-1.271l0,0c0.881,0,1.595,0.569,1.595,1.271V13.382z"/>
<g>
	
		<image overflow="visible" opacity="0.1" width="55" height="47" xlink:href="6832220573538061.png"  transform="matrix(0.48 0 0 0.48 1.2608 15.9648)">
	</image>
	<g>
		<path fill="#CC9E7F" d="M7.261,31.628c0,0,0.369-0.578,0.568-0.671c0.388-0.18,1.288,0.063,1.711,0
			c0.749-0.111,2.191-0.61,2.899-0.878c0.674-0.255,2.019-0.804,2.619-1.202c0.7-0.464,1.937-1.625,2.48-2.266
			c0.896-1.057,3.021-4.647,3.021-4.647l0.723,0.793c0,0-3.12,6.287-4.977,7.59c-1.898,1.332-9.022,2.143-9.022,2.143L7.261,31.628z
			"/>
	</g>
</g>
<g>
	
		<image overflow="visible" opacity="0.1" width="63" height="60" xlink:href="6832220573538067.png"  transform="matrix(0.48 0 0 0.48 0.2317 15.9613)">
	</image>
	<g>
		<path fill="#341811" d="M7.283,32.491c-0.371,0.207-1.004,0.912-1.049,1.334c-0.032,0.297,0.271,0.917,0.525,1.075
			c0.308,0.192,1.094,0.061,1.452,0C8.7,34.816,9.6,34.129,10.083,34.24c0.32,0.074,0.798,0.632,0.923,0.936
			c0.148,0.361-0.041,1.173,0,1.56c0.041,0.388,0.058,1.242,0.326,1.526c0.247,0.262,1.053,0.515,1.387,0.381
			c0.414-0.165,0.85-1.086,0.923-1.526c0.141-0.851-0.078-2.671,0.326-3.433c0.166-0.313,0.738-0.877,1.091-0.902
			c0.414-0.029,1.019,0.748,1.417,0.867c0.246,0.074,0.773,0.066,1.029,0.035c0.438-0.054,1.362-0.2,1.699-0.485
			c0.432-0.366,0.937-1.481,0.971-2.046c0.017-0.274-0.364-0.767-0.347-1.04c0.024-0.381,0.336-1.172,0.659-1.376
			c0.315-0.199,1.14-0.124,1.491,0c0.515,0.182,1.153,1.389,1.699,1.376c0.221-0.005,0.569-0.388,0.659-0.59
			c0.195-0.435,0.034-1.432,0-1.907c-0.061-0.842-0.413-2.5-0.485-3.341c-0.027-0.309,0.111-0.967-0.035-1.242
			c-0.215-0.405-1.036-1.015-1.491-1.07c-0.278-0.034-0.884,0.184-1.041,0.416c-0.053,0.078,0.021,0.285,0,0.377
			c-0.518,2.209-3.505,4.834-5.039,6.998C14.904,31.647,9.308,31.361,7.283,32.491z"/>
	</g>
</g>
</svg>
