<?xml version="1.0" encoding="utf-8"?>
<!-- Generator: Adobe Illustrator 17.0.0, SVG Export Plug-In . SVG Version: 6.00 Build 0)  -->
<!DOCTYPE svg PUBLIC "-//W3C//DTD SVG 1.1//EN" "http://www.w3.org/Graphics/SVG/1.1/DTD/svg11.dtd">
<svg version="1.1" id="Layer_1" xmlns="http://www.w3.org/2000/svg" xmlns:xlink="http://www.w3.org/1999/xlink" x="0px" y="0px"
	 width="72.48px" height="38.948px" viewBox="0 0 72.48 38.948" enable-background="new 0 0 72.48 38.948" xml:space="preserve">
<g>
	
		<image overflow="visible" opacity="0.1" width="90" height="51" xlink:href="1D568335FDB119FC.png"  transform="matrix(0.48 0 0 0.48 8.3103 0)">
	</image>
	<g>
		<linearGradient id="SVGID_1_" gradientUnits="userSpaceOnUse" x1="14.3103" y1="12.2035" x2="45.32" y2="12.2035">
			<stop  offset="0" style="stop-color:#008ED1"/>
			<stop  offset="0.1422" style="stop-color:#0089CB"/>
			<stop  offset="0.3778" style="stop-color:#0079BC"/>
			<stop  offset="0.6776" style="stop-color:#0062A6"/>
			<stop  offset="1" style="stop-color:#00478D"/>
		</linearGradient>
		<path fill="url(#SVGID_1_)" d="M14.417,14.907c1.242-2.596,8.792-7.732,10.618-8.418c2.622-0.985,11.252-0.213,12.123,0
			c2.117,0.517,6.894,3.798,6.894,3.798l1.268,6.515L31.508,16.85l-16.636,1.557C14.872,18.407,14.016,15.746,14.417,14.907z"/>
	</g>
</g>
<g>
	
		<image overflow="visible" opacity="0.1" width="33" height="37" xlink:href="1D568335FDB119FD.png"  transform="matrix(0.48 0 0 0.48 2.702 18.1141)">
	</image>
	<g>
		<linearGradient id="SVGID_2_" gradientUnits="userSpaceOnUse" x1="8.8679" y1="28.5308" x2="12.8426" y2="24.7443">
			<stop  offset="0" style="stop-color:#2B0000"/>
			<stop  offset="0.0933" style="stop-color:#320000"/>
			<stop  offset="0.2481" style="stop-color:#410E12"/>
			<stop  offset="0.4452" style="stop-color:#562831"/>
			<stop  offset="0.6769" style="stop-color:#70485D"/>
			<stop  offset="0.935" style="stop-color:#8B73A2"/>
			<stop  offset="1" style="stop-color:#9080BC"/>
		</linearGradient>
		<path fill="url(#SVGID_2_)" d="M9.002,27.409c0.186,0.547,0.382,1.823,0.861,2.147c0.19,0.129,0.699,0.069,0.918,0
			c0.444-0.141,1.311-0.658,1.523-1.073c0.496-0.973-0.061-4.368-0.061-4.368s-2.928,0.43-3.42,1.19
			C8.535,25.747,8.832,26.909,9.002,27.409z"/>
	</g>
</g>
<g>
	
		<image overflow="visible" opacity="0.1" width="41" height="44" xlink:href="1D568335FDB119FB.png"  transform="matrix(0.48 0 0 0.48 13.6862 16.2336)">
	</image>
	<g>
		<linearGradient id="SVGID_3_" gradientUnits="userSpaceOnUse" x1="20.7233" y1="28.8495" x2="26.9325" y2="22.9342">
			<stop  offset="0" style="stop-color:#2B0000"/>
			<stop  offset="0.0933" style="stop-color:#320000"/>
			<stop  offset="0.2481" style="stop-color:#410E12"/>
			<stop  offset="0.4452" style="stop-color:#562831"/>
			<stop  offset="0.6769" style="stop-color:#70485D"/>
			<stop  offset="0.935" style="stop-color:#8B73A2"/>
			<stop  offset="1" style="stop-color:#9080BC"/>
		</linearGradient>
		<path fill="url(#SVGID_3_)" d="M19.821,24.502c-0.477,0.972,0.419,3.466,0.992,4.358c0.53,0.825,2.14,2.143,3.002,2.07
			c0.697-0.059,1.804-1.382,2.211-2.07c0.554-0.936,1.271-3.207,1.236-4.358c-0.016-0.52-0.295-1.678-0.679-1.913
			C25.033,21.641,20.708,22.695,19.821,24.502z"/>
	</g>
</g>
<g>
	
		<image overflow="visible" opacity="0.1" width="41" height="44" xlink:href="1D568335FDB11A04.png"  transform="matrix(0.48 0 0 0.48 22.1703 15.9379)">
	</image>
	<g>
		<linearGradient id="SVGID_4_" gradientUnits="userSpaceOnUse" x1="27.8563" y1="29.1302" x2="34.8757" y2="22.443">
			<stop  offset="0" style="stop-color:#2B0000"/>
			<stop  offset="0.0933" style="stop-color:#320000"/>
			<stop  offset="0.2481" style="stop-color:#410E12"/>
			<stop  offset="0.4452" style="stop-color:#562831"/>
			<stop  offset="0.6769" style="stop-color:#70485D"/>
			<stop  offset="0.935" style="stop-color:#8B73A2"/>
			<stop  offset="1" style="stop-color:#9080BC"/>
		</linearGradient>
		<path fill="url(#SVGID_4_)" d="M28.752,23.086c-0.685,0.668-0.619,2.84-0.52,3.792c0.111,1.073,0.463,3.626,1.449,4.066
			c0.739,0.33,2.368-0.716,2.995-1.228c0.941-0.77,2.446-2.857,2.702-4.046c0.174-0.807,0.116-2.759-0.542-3.257
			C33.614,21.49,29.848,22.018,28.752,23.086z"/>
	</g>
</g>
<g>
	
		<image overflow="visible" opacity="0.1" width="41" height="51" xlink:href="1D568335FDB11A07.png"  transform="matrix(0.48 0 0 0.48 29.8136 14.4676)">
	</image>
	<g>
		<linearGradient id="SVGID_5_" gradientUnits="userSpaceOnUse" x1="36.777" y1="28.8274" x2="43.4239" y2="22.495">
			<stop  offset="0" style="stop-color:#2B0000"/>
			<stop  offset="0.0933" style="stop-color:#320000"/>
			<stop  offset="0.2481" style="stop-color:#410E12"/>
			<stop  offset="0.4452" style="stop-color:#562831"/>
			<stop  offset="0.6769" style="stop-color:#70485D"/>
			<stop  offset="0.935" style="stop-color:#8B73A2"/>
			<stop  offset="1" style="stop-color:#9080BC"/>
		</linearGradient>
		<path fill="url(#SVGID_5_)" d="M36.361,21.103c-1.024,0.975-0.365,4.29,0,5.656c0.265,0.991,1.412,2.75,2.045,3.558
			c0.481,0.614,1.479,2.088,2.256,2.157c0.696,0.062,1.96-0.952,2.33-1.545c0.432-0.694,0.435-2.426,0.421-3.244
			c-0.028-1.594,0.149-5.229-1.042-6.289C41.248,20.396,37.45,20.065,36.361,21.103z"/>
	</g>
</g>
<g>
	
		<image overflow="visible" opacity="0.1" width="41" height="46" xlink:href="1D568335FDB11A05.png"  transform="matrix(0.48 0 0 0.48 38.4866 15.204)">
	</image>
	<g>
		<linearGradient id="SVGID_6_" gradientUnits="userSpaceOnUse" x1="45.0695" y1="28.3265" x2="51.1679" y2="22.5167">
			<stop  offset="0" style="stop-color:#2B0000"/>
			<stop  offset="0.0933" style="stop-color:#320000"/>
			<stop  offset="0.2481" style="stop-color:#410E12"/>
			<stop  offset="0.4452" style="stop-color:#562831"/>
			<stop  offset="0.6769" style="stop-color:#70485D"/>
			<stop  offset="0.935" style="stop-color:#8B73A2"/>
			<stop  offset="1" style="stop-color:#9080BC"/>
		</linearGradient>
		<path fill="url(#SVGID_6_)" d="M45.188,21.634c-1.209,1.033-0.615,4.894,0,6.361c0.404,0.965,1.948,2.786,2.983,2.935
			c0.686,0.099,1.964-0.808,2.445-1.307c0.6-0.624,1.418-2.253,1.517-3.113c0.114-0.999-0.163-3.234-0.898-3.921
			C50.115,21.544,46.351,20.639,45.188,21.634z"/>
	</g>
</g>
<g>
	
		<image overflow="visible" opacity="0.1" width="38" height="40" xlink:href="1D568335FDB11A0B.png"  transform="matrix(0.48 0 0 0.48 47.2804 16.7291)">
	</image>
	<g>
		<linearGradient id="SVGID_7_" gradientUnits="userSpaceOnUse" x1="53.4877" y1="27.8348" x2="58.2122" y2="23.334">
			<stop  offset="0" style="stop-color:#2B0000"/>
			<stop  offset="0.0933" style="stop-color:#320000"/>
			<stop  offset="0.2481" style="stop-color:#410E12"/>
			<stop  offset="0.4452" style="stop-color:#562831"/>
			<stop  offset="0.6769" style="stop-color:#70485D"/>
			<stop  offset="0.935" style="stop-color:#8B73A2"/>
			<stop  offset="1" style="stop-color:#9080BC"/>
		</linearGradient>
		<path fill="url(#SVGID_7_)" d="M53.951,22.997c-0.701,0.455-0.725,2.454-0.631,3.285c0.057,0.507,0.554,1.433,0.822,1.868
			c0.25,0.406,0.742,1.408,1.215,1.473c0.84,0.116,2.308-1.235,2.785-1.937c0.508-0.747,1.306-2.748,0.831-3.515
			C58.294,23.074,55.032,22.295,53.951,22.997z"/>
	</g>
</g>
<g>
	
		<image overflow="visible" opacity="0.1" width="34" height="36" xlink:href="1D568335FDB11A0C.png"  transform="matrix(0.48 0 0 0.48 54.0678 18.1989)">
	</image>
	<g>
		
			<linearGradient id="SVGID_8_" gradientUnits="userSpaceOnUse" x1="-3356.5073" y1="425.276" x2="-3353.4668" y2="422.3792" gradientTransform="matrix(1.1256 -0.4694 0.4352 1.0434 3653.6235 -1990.4408)">
			<stop  offset="0" style="stop-color:#2B0000"/>
			<stop  offset="0.0933" style="stop-color:#320000"/>
			<stop  offset="0.2481" style="stop-color:#410E12"/>
			<stop  offset="0.4452" style="stop-color:#562831"/>
			<stop  offset="0.6769" style="stop-color:#70485D"/>
			<stop  offset="0.935" style="stop-color:#8B73A2"/>
			<stop  offset="1" style="stop-color:#9080BC"/>
		</linearGradient>
		<path fill="url(#SVGID_8_)" d="M61.149,24.298c-0.999,0.518-1.345,3.252-0.872,4.183c0.196,0.385,1.17,0.865,1.622,0.751
			c0.658-0.167,1.278-1.549,1.632-2.108c0.23-0.362,0.912-1.135,0.772-1.518C64.021,24.832,61.937,23.889,61.149,24.298z"/>
	</g>
</g>
<g>
	
		<image overflow="visible" opacity="0.1" width="91" height="42" xlink:href="1D568335FDB11A0F.png"  transform="matrix(0.48 0 0 0.48 17.8466 3.8961)">
	</image>
	<g>
		<linearGradient id="SVGID_9_" gradientUnits="userSpaceOnUse" x1="23.8466" y1="13.9672" x2="55.3831" y2="13.9672">
			<stop  offset="0" style="stop-color:#008ED1"/>
			<stop  offset="0.1422" style="stop-color:#0089CB"/>
			<stop  offset="0.3778" style="stop-color:#0079BC"/>
			<stop  offset="0.6776" style="stop-color:#0062A6"/>
			<stop  offset="1" style="stop-color:#00478D"/>
		</linearGradient>
		<path fill="url(#SVGID_9_)" d="M55.383,16.803l-2.536-4.355c0,0-2.707-2.048-3.962-2.366c-1.365-0.345-4.411-0.128-5.864,0
			c-3.382,0.298-10.413,1.048-13.153,2.366c-2.112,1.016-6.022,5.59-6.022,5.59l16.085-0.924L55.383,16.803"/>
	</g>
</g>
<g>
	
		<image overflow="visible" opacity="0.1" width="38" height="40" xlink:href="3D80F6CDAA98C1CB.png"  transform="matrix(0.48 0 0 0.48 6.9973 17.4381)">
	</image>
	<g>
		
			<linearGradient id="SVGID_10_" gradientUnits="userSpaceOnUse" x1="-1563.9504" y1="928.89" x2="-1559.1501" y2="924.317" gradientTransform="matrix(0.9779 -0.2089 0.2089 0.9779 1349.2136 -1206.0983)">
			<stop  offset="0" style="stop-color:#2B0000"/>
			<stop  offset="0.0933" style="stop-color:#320000"/>
			<stop  offset="0.2481" style="stop-color:#410E12"/>
			<stop  offset="0.4452" style="stop-color:#562831"/>
			<stop  offset="0.6769" style="stop-color:#70485D"/>
			<stop  offset="0.935" style="stop-color:#8B73A2"/>
			<stop  offset="1" style="stop-color:#9080BC"/>
		</linearGradient>
		<path fill="url(#SVGID_10_)" d="M13.305,24.082c-0.591,0.592-0.196,2.551,0.069,3.344c0.162,0.484,0.584,1.455,0.936,1.823
			c0.33,0.345,1.278,1.053,1.754,1.018c0.846-0.062,1.999-1.69,2.319-2.476c0.341-0.836,0.703-2.96,0.078-3.611
			C17.569,23.25,14.216,23.169,13.305,24.082z"/>
	</g>
</g>
<g>
	
		<image overflow="visible" opacity="0.1" width="151" height="49" xlink:href="3D80F6CDAA98C1C9.png"  transform="matrix(0.48 0 0 0.48 0 10.0218)">
	</image>
	<g>
		<linearGradient id="SVGID_11_" gradientUnits="userSpaceOnUse" x1="6" y1="21.6954" x2="66.0883" y2="21.6954">
			<stop  offset="0" style="stop-color:#008ED1"/>
			<stop  offset="0.1422" style="stop-color:#0089CB"/>
			<stop  offset="0.3778" style="stop-color:#0079BC"/>
			<stop  offset="0.6776" style="stop-color:#0062A6"/>
			<stop  offset="1" style="stop-color:#00478D"/>
		</linearGradient>
		<path fill="url(#SVGID_11_)" d="M8.916,18.964c-0.543,0.26-2.448,2.965-2.596,3.392c-0.627,1.805-0.227,5.395,0.291,4.98
			c0.619-0.496,18.21-2.318,30.284-2.635c8.424-0.221,26.375,1.289,26.705,1.281c0.812-0.02,2.484,0.569,2.488,0.209
			c0.02-2-1.341-3.735-1.341-3.735s0.611-2.373,0.128-3.076c-0.623-0.907-3.223-2.234-4.66-2.577c-6.614-1.58-21.165-0.327-28.196,0
			C26.198,17.074,13.611,16.719,8.916,18.964z"/>
	</g>
</g>
</svg>
