<?xml version="1.0" encoding="utf-8"?>
<!-- Generator: Adobe Illustrator 17.0.0, SVG Export Plug-In . SVG Version: 6.00 Build 0)  -->
<!DOCTYPE svg PUBLIC "-//W3C//DTD SVG 1.1//EN" "http://www.w3.org/Graphics/SVG/1.1/DTD/svg11.dtd">
<svg version="1.1" id="Layer_1" xmlns="http://www.w3.org/2000/svg" xmlns:xlink="http://www.w3.org/1999/xlink" x="0px" y="0px"
	 width="60.088px" height="26.477px" viewBox="0 0 60.088 26.477" enable-background="new 0 0 60.088 26.477" xml:space="preserve">
<linearGradient id="SVGID_1_" gradientUnits="userSpaceOnUse" x1="8.3103" y1="6.2035" x2="39.32" y2="6.2035">
	<stop  offset="0" style="stop-color:#008ED1"/>
	<stop  offset="0.1422" style="stop-color:#0089CB"/>
	<stop  offset="0.3778" style="stop-color:#0079BC"/>
	<stop  offset="0.6776" style="stop-color:#0062A6"/>
	<stop  offset="1" style="stop-color:#00478D"/>
</linearGradient>
<path fill="url(#SVGID_1_)" d="M8.417,8.907c1.242-2.596,8.792-7.732,10.618-8.418c2.622-0.985,11.252-0.213,12.123,0
	c2.117,0.517,6.894,3.798,6.894,3.798l1.268,6.515L25.508,10.85L8.872,12.407C8.872,12.407,8.016,9.746,8.417,8.907z"/>
<linearGradient id="SVGID_2_" gradientUnits="userSpaceOnUse" x1="2.8679" y1="22.5308" x2="6.8426" y2="18.7443">
	<stop  offset="0" style="stop-color:#2B0000"/>
	<stop  offset="0.0933" style="stop-color:#320000"/>
	<stop  offset="0.2481" style="stop-color:#410E12"/>
	<stop  offset="0.4452" style="stop-color:#562831"/>
	<stop  offset="0.6769" style="stop-color:#70485D"/>
	<stop  offset="0.935" style="stop-color:#8B73A2"/>
	<stop  offset="1" style="stop-color:#9080BC"/>
</linearGradient>
<path fill="url(#SVGID_2_)" d="M3.002,21.409c0.186,0.547,0.382,1.823,0.861,2.147c0.19,0.129,0.699,0.069,0.918,0
	c0.444-0.141,1.311-0.658,1.523-1.073c0.496-0.973-0.061-4.368-0.061-4.368s-2.928,0.43-3.42,1.19
	C2.535,19.747,2.832,20.909,3.002,21.409z"/>
<linearGradient id="SVGID_3_" gradientUnits="userSpaceOnUse" x1="14.7233" y1="22.8495" x2="20.9325" y2="16.9342">
	<stop  offset="0" style="stop-color:#2B0000"/>
	<stop  offset="0.0933" style="stop-color:#320000"/>
	<stop  offset="0.2481" style="stop-color:#410E12"/>
	<stop  offset="0.4452" style="stop-color:#562831"/>
	<stop  offset="0.6769" style="stop-color:#70485D"/>
	<stop  offset="0.935" style="stop-color:#8B73A2"/>
	<stop  offset="1" style="stop-color:#9080BC"/>
</linearGradient>
<path fill="url(#SVGID_3_)" d="M13.821,18.502c-0.477,0.972,0.419,3.466,0.992,4.358c0.53,0.825,2.14,2.143,3.002,2.07
	c0.697-0.059,1.804-1.382,2.211-2.07c0.554-0.936,1.271-3.207,1.236-4.358c-0.016-0.52-0.295-1.678-0.679-1.913
	C19.033,15.641,14.708,16.695,13.821,18.502z"/>
<linearGradient id="SVGID_4_" gradientUnits="userSpaceOnUse" x1="21.8563" y1="23.1302" x2="28.8757" y2="16.443">
	<stop  offset="0" style="stop-color:#2B0000"/>
	<stop  offset="0.0933" style="stop-color:#320000"/>
	<stop  offset="0.2481" style="stop-color:#410E12"/>
	<stop  offset="0.4452" style="stop-color:#562831"/>
	<stop  offset="0.6769" style="stop-color:#70485D"/>
	<stop  offset="0.935" style="stop-color:#8B73A2"/>
	<stop  offset="1" style="stop-color:#9080BC"/>
</linearGradient>
<path fill="url(#SVGID_4_)" d="M22.752,17.086c-0.685,0.668-0.619,2.84-0.52,3.792c0.111,1.073,0.463,3.626,1.449,4.066
	c0.739,0.33,2.368-0.716,2.995-1.228c0.941-0.77,2.446-2.857,2.702-4.046c0.174-0.807,0.116-2.759-0.542-3.257
	C27.614,15.49,23.848,16.018,22.752,17.086z"/>
<linearGradient id="SVGID_5_" gradientUnits="userSpaceOnUse" x1="30.777" y1="22.8274" x2="37.4239" y2="16.495">
	<stop  offset="0" style="stop-color:#2B0000"/>
	<stop  offset="0.0933" style="stop-color:#320000"/>
	<stop  offset="0.2481" style="stop-color:#410E12"/>
	<stop  offset="0.4452" style="stop-color:#562831"/>
	<stop  offset="0.6769" style="stop-color:#70485D"/>
	<stop  offset="0.935" style="stop-color:#8B73A2"/>
	<stop  offset="1" style="stop-color:#9080BC"/>
</linearGradient>
<path fill="url(#SVGID_5_)" d="M30.361,15.103c-1.024,0.975-0.365,4.29,0,5.656c0.265,0.991,1.412,2.75,2.045,3.558
	c0.481,0.614,1.479,2.088,2.256,2.157c0.696,0.062,1.96-0.952,2.33-1.545c0.432-0.694,0.435-2.426,0.421-3.244
	c-0.028-1.594,0.149-5.229-1.042-6.289C35.248,14.396,31.45,14.065,30.361,15.103z"/>
<linearGradient id="SVGID_6_" gradientUnits="userSpaceOnUse" x1="39.0695" y1="22.3265" x2="45.1679" y2="16.5167">
	<stop  offset="0" style="stop-color:#2B0000"/>
	<stop  offset="0.0933" style="stop-color:#320000"/>
	<stop  offset="0.2481" style="stop-color:#410E12"/>
	<stop  offset="0.4452" style="stop-color:#562831"/>
	<stop  offset="0.6769" style="stop-color:#70485D"/>
	<stop  offset="0.935" style="stop-color:#8B73A2"/>
	<stop  offset="1" style="stop-color:#9080BC"/>
</linearGradient>
<path fill="url(#SVGID_6_)" d="M39.188,15.634c-1.209,1.033-0.615,4.894,0,6.361c0.404,0.965,1.948,2.786,2.983,2.935
	c0.686,0.099,1.964-0.808,2.445-1.307c0.6-0.624,1.418-2.253,1.517-3.113c0.114-0.999-0.163-3.234-0.898-3.921
	C44.115,15.544,40.351,14.639,39.188,15.634z"/>
<linearGradient id="SVGID_7_" gradientUnits="userSpaceOnUse" x1="47.4877" y1="21.8348" x2="52.2122" y2="17.334">
	<stop  offset="0" style="stop-color:#2B0000"/>
	<stop  offset="0.0933" style="stop-color:#320000"/>
	<stop  offset="0.2481" style="stop-color:#410E12"/>
	<stop  offset="0.4452" style="stop-color:#562831"/>
	<stop  offset="0.6769" style="stop-color:#70485D"/>
	<stop  offset="0.935" style="stop-color:#8B73A2"/>
	<stop  offset="1" style="stop-color:#9080BC"/>
</linearGradient>
<path fill="url(#SVGID_7_)" d="M47.951,16.997c-0.701,0.455-0.725,2.454-0.631,3.285c0.057,0.507,0.554,1.433,0.822,1.868
	c0.25,0.406,0.742,1.408,1.215,1.473c0.84,0.116,2.308-1.235,2.785-1.937c0.508-0.747,1.306-2.748,0.831-3.515
	C52.294,17.074,49.032,16.295,47.951,16.997z"/>
<linearGradient id="SVGID_8_" gradientUnits="userSpaceOnUse" x1="-3378.3728" y1="430.5868" x2="-3375.3323" y2="427.6901" gradientTransform="matrix(1.1256 -0.4694 0.4352 1.0434 3669.9236 -2012.2465)">
	<stop  offset="0" style="stop-color:#2B0000"/>
	<stop  offset="0.0933" style="stop-color:#320000"/>
	<stop  offset="0.2481" style="stop-color:#410E12"/>
	<stop  offset="0.4452" style="stop-color:#562831"/>
	<stop  offset="0.6769" style="stop-color:#70485D"/>
	<stop  offset="0.935" style="stop-color:#8B73A2"/>
	<stop  offset="1" style="stop-color:#9080BC"/>
</linearGradient>
<path fill="url(#SVGID_8_)" d="M55.149,18.298c-0.999,0.518-1.345,3.252-0.872,4.183c0.196,0.385,1.17,0.865,1.622,0.751
	c0.658-0.167,1.278-1.549,1.632-2.108c0.23-0.362,0.912-1.135,0.772-1.518C58.021,18.832,55.937,17.889,55.149,18.298z"/>
<linearGradient id="SVGID_9_" gradientUnits="userSpaceOnUse" x1="17.8466" y1="7.9672" x2="49.3831" y2="7.9672">
	<stop  offset="0" style="stop-color:#008ED1"/>
	<stop  offset="0.1422" style="stop-color:#0089CB"/>
	<stop  offset="0.3778" style="stop-color:#0079BC"/>
	<stop  offset="0.6776" style="stop-color:#0062A6"/>
	<stop  offset="1" style="stop-color:#00478D"/>
</linearGradient>
<path fill="url(#SVGID_9_)" d="M49.383,10.803l-2.536-4.355c0,0-2.707-2.048-3.962-2.366c-1.365-0.345-4.411-0.128-5.864,0
	C33.641,4.381,26.609,5.13,23.869,6.448c-2.112,1.016-6.022,5.59-6.022,5.59l16.085-0.924L49.383,10.803"/>
<linearGradient id="SVGID_10_" gradientUnits="userSpaceOnUse" x1="-1574.5316" y1="931.4072" x2="-1569.7313" y2="926.8342" gradientTransform="matrix(0.9779 -0.2089 0.2089 0.9779 1353.0355 -1216.7703)">
	<stop  offset="0" style="stop-color:#2B0000"/>
	<stop  offset="0.0933" style="stop-color:#320000"/>
	<stop  offset="0.2481" style="stop-color:#410E12"/>
	<stop  offset="0.4452" style="stop-color:#562831"/>
	<stop  offset="0.6769" style="stop-color:#70485D"/>
	<stop  offset="0.935" style="stop-color:#8B73A2"/>
	<stop  offset="1" style="stop-color:#9080BC"/>
</linearGradient>
<path fill="url(#SVGID_10_)" d="M7.305,18.082c-0.591,0.592-0.196,2.551,0.069,3.344c0.162,0.484,0.584,1.455,0.936,1.823
	c0.33,0.345,1.278,1.053,1.754,1.018c0.846-0.062,1.999-1.69,2.319-2.476c0.341-0.836,0.703-2.96,0.078-3.611
	C11.569,17.25,8.216,17.169,7.305,18.082z"/>
<linearGradient id="SVGID_11_" gradientUnits="userSpaceOnUse" x1="-2.403467e-07" y1="15.6954" x2="60.0883" y2="15.6954">
	<stop  offset="0" style="stop-color:#008ED1"/>
	<stop  offset="0.1422" style="stop-color:#0089CB"/>
	<stop  offset="0.3778" style="stop-color:#0079BC"/>
	<stop  offset="0.6776" style="stop-color:#0062A6"/>
	<stop  offset="1" style="stop-color:#00478D"/>
</linearGradient>
<path fill="url(#SVGID_11_)" d="M2.916,12.964c-0.543,0.26-2.448,2.965-2.596,3.392c-0.627,1.805-0.227,5.395,0.291,4.98
	c0.619-0.496,18.21-2.318,30.284-2.635c8.424-0.221,26.375,1.289,26.705,1.281c0.812-0.02,2.484,0.569,2.488,0.209
	c0.02-2-1.341-3.735-1.341-3.735s0.611-2.373,0.128-3.076c-0.623-0.907-3.223-2.234-4.66-2.577c-6.614-1.58-21.165-0.327-28.196,0
	C20.198,11.074,7.611,10.719,2.916,12.964z"/>
</svg>
