<?xml version="1.0" encoding="utf-8"?>
<!-- Generator: Adobe Illustrator 17.0.0, SVG Export Plug-In . SVG Version: 6.00 Build 0)  -->
<!DOCTYPE svg PUBLIC "-//W3C//DTD SVG 1.1//EN" "http://www.w3.org/Graphics/SVG/1.1/DTD/svg11.dtd">
<svg version="1.1" id="Layer_1" xmlns="http://www.w3.org/2000/svg" xmlns:xlink="http://www.w3.org/1999/xlink" x="0px" y="0px"
	 width="79.211px" height="14.168px" viewBox="0 0 79.211 14.168" enable-background="new 0 0 79.211 14.168" xml:space="preserve">
<linearGradient id="SVGID_1_" gradientUnits="userSpaceOnUse" x1="2.747391e-06" y1="6.7305" x2="7.9658" y2="6.7305">
	<stop  offset="0" style="stop-color:#C5DBE6"/>
	<stop  offset="0.2501" style="stop-color:#BAD9E9"/>
	<stop  offset="0.7342" style="stop-color:#97D4F0"/>
	<stop  offset="1" style="stop-color:#7ED3F7"/>
</linearGradient>
<path fill="url(#SVGID_1_)" d="M0,6.926c0.03,2.263,1.176,5.613,1.823,6.426c0.608,0.764,6.142-2.769,6.142-2.769L6.709,8.73
	c0,0-1.438-1.703-1.813-2.723c-0.412-1.121-0.698-5.067-1.213-5.72C3.1-0.454,1.589,0.321,1.041,1.683
	C0.653,2.648-0.019,5.479,0,6.926z"/>
<linearGradient id="SVGID_2_" gradientUnits="userSpaceOnUse" x1="72.6792" y1="7.549" x2="79.2115" y2="7.549">
	<stop  offset="0" style="stop-color:#C5DBE6"/>
	<stop  offset="0.2501" style="stop-color:#BAD9E9"/>
	<stop  offset="0.7342" style="stop-color:#97D4F0"/>
	<stop  offset="1" style="stop-color:#7ED3F7"/>
</linearGradient>
<path fill="url(#SVGID_2_)" d="M79.211,7.674c-0.03,2.203-1.145,5.465-1.775,6.257c-0.592,0.744-4.38-0.497-4.38-0.497l-0.377-4.004
	c0,0,1.4-1.658,1.766-2.652c0.401-1.091,0.68-4.934,1.181-5.569c0.568-0.721,2.039,0.033,2.572,1.359
	C78.575,3.508,79.23,6.264,79.211,7.674z"/>
<path fill="#0F262D" d="M75.613,4.568C76,3.542,76.97,3.817,77.278,4.058c0.363,0.284,1.231,1.317,1.096,1.942
	c-0.149,0.686-1.333,0.629-1.749,0.389C76.302,6.201,75.184,5.707,75.613,4.568z"/>
<path fill="#0F262D" d="M77.269,8.386c-0.346-0.163-1.17-0.131-1.529,0c-0.217,0.079-0.723,0.365-0.705,0.594
	c0.034,0.433,1.485,0.899,1.485,0.899s1.493-0.044,1.619-0.444C78.241,9.111,77.577,8.531,77.269,8.386z"/>
<path fill="#0F262D" d="M1.574,2.67C1.85,1.935,2.546,2.132,2.766,2.304c0.26,0.203,0.882,0.944,0.785,1.391
	C3.445,4.187,2.596,4.146,2.298,3.974C2.067,3.84,1.266,3.486,1.574,2.67z"/>
<path fill="#0F262D" d="M0.513,5.099C0.33,5.528,1.221,6.422,1.665,6.566c0.45,0.146,1.747-0.06,1.816-0.527
	c0.072-0.484-1.166-0.95-1.642-1.066C1.516,4.893,0.645,4.793,0.513,5.099z"/>
</svg>
