<?xml version="1.0" encoding="utf-8"?>
<!-- Generator: Adobe Illustrator 17.0.0, SVG Export Plug-In . SVG Version: 6.00 Build 0)  -->
<!DOCTYPE svg PUBLIC "-//W3C//DTD SVG 1.1//EN" "http://www.w3.org/Graphics/SVG/1.1/DTD/svg11.dtd">
<svg version="1.1" id="Layer_1" xmlns="http://www.w3.org/2000/svg" xmlns:xlink="http://www.w3.org/1999/xlink" x="0px" y="0px"
	 width="71.72px" height="39.36px" viewBox="0 0 71.72 39.36" enable-background="new 0 0 71.72 39.36" xml:space="preserve">
<g>
	
		<image overflow="visible" opacity="0.2" width="66" height="82" xlink:href="89DF99EB67358D74.png"  transform="matrix(0.48 0 0 0.48 0 0)">
	</image>
	<g>
		<path fill="#287C62" d="M25.122,32.129c1.63-4.512-2.515-14.384-4.879-18.558c-1.275-2.252-4.769-6.61-7.232-7.406
			C11.56,5.697,8.208,6.28,6.999,7.211c-0.455,0.351-1.18,1.56-0.958,2.091c0.268,0.642,1.918,0.948,2.614,0.958
			c1.033,0.015,2.914-1.54,3.921-1.307c1.906,0.442,4.589,3.8,5.576,5.489c2.312,3.955,4.792,17.687,4.792,17.687
			s0.635,0.852,0.958,0.871C24.276,33.023,24.994,32.482,25.122,32.129z"/>
	</g>
</g>
<g>
	
		<image overflow="visible" opacity="0.2" width="86" height="62" xlink:href="89DF99EB67358D75.png"  transform="matrix(0.48 0 0 0.48 30.44 7.413)">
	</image>
	<g>
		<path fill="#287C62" d="M36.597,29.963c-0.588-1.628,0.644-10.189,0.981-10.43c0.777-0.556,12.833,3.676,14.254,1.166
			c1.227-2.167,4.589-6.36,6.958-7.126c1.397-0.451,4.622,0.11,5.784,1.006c0.438,0.338,1.135,1.501,0.922,2.012
			c-0.258,0.618-1.845,0.912-2.515,0.922c-0.994,0.015-2.804-1.482-3.772-1.257c-1.833,0.425-4.416,3.657-5.365,5.281
			c-1.252,2.142-13.14-0.52-13.531-0.204c-0.422,0.341-1.62,8.63-1.62,8.63s-0.611,0.82-0.922,0.838
			C37.41,30.822,36.719,30.302,36.597,29.963z"/>
	</g>
</g>
</svg>
