<?xml version="1.0" encoding="utf-8"?>
<!-- Generator: Adobe Illustrator 17.0.0, SVG Export Plug-In . SVG Version: 6.00 Build 0)  -->
<!DOCTYPE svg PUBLIC "-//W3C//DTD SVG 1.1//EN" "http://www.w3.org/Graphics/SVG/1.1/DTD/svg11.dtd">
<svg version="1.1" id="Layer_1" xmlns="http://www.w3.org/2000/svg" xmlns:xlink="http://www.w3.org/1999/xlink" x="0px" y="0px"
	 width="77.192px" height="29.076px" viewBox="0 0 77.192 29.076" enable-background="new 0 0 77.192 29.076" xml:space="preserve">
<path fill="#DDB2D3" d="M76.771,19.004C76.324,15,69.597,5.103,58.585,5.103h-37.79c-11.012,0-18.937,10.376-18.937,16.282
	c0,0,0.069,3.96,2.406,5.485c1.196,0.78,2.667,0.853,3.571-0.451c0.795-1.147,1.798-3.967,2.695-5.005
	c0.583-0.675,1.973-1.968,2.789-2.002c0.745-0.031,2.027,1.13,2.652,1.611c0.59,0.454,1.496,1.958,2.191,2.093
	c1.029,0.201,3.151-0.863,3.915-1.703c0.628-0.69,0.827-2.957,1.417-3.693c1.17-1.46,4.384-3.236,6.037-3.714
	c1.188-0.344,3.691-0.26,4.894,0c1.032,0.223,3.014,1.142,3.926,1.756c1.127,0.759,3.054,2.851,4.055,3.827
	c0.459,0.447,1.278,1.512,1.811,1.824c0.362,0.211,1.174,0.407,1.577,0.401c0.645-0.009,1.925-0.389,2.51-0.711
	c0.743-0.409,2.034-1.645,2.635-2.304c0.387-0.424,1.085-1.371,1.38-1.888c0.284-0.496,0.529-1.762,0.929-2.128
	c0.319-0.292,1.176-0.496,1.575-0.422c0.536,0.1,1.598,0.754,1.866,1.312c0.336,0.698,0,2.411,0,3.214c0,1.461-0.222,4.404,0,5.843
	c1.02,6.605,6.513,4.737,6.831,0.614c0.073-0.948-0.377-3.076-0.025-3.932c0.375-0.914,1.394-3.043,2.253-3.07
	c0.811-0.025,1.749,2.008,2.253,2.76c0.83,1.239,1.474,4.902,2.897,5.315C74.567,27.484,76.771,19.004,76.771,19.004z"/>
<linearGradient id="SVGID_1_" gradientUnits="userSpaceOnUse" x1="31.4999" y1="5.1444" x2="33.4597" y2="5.1444">
	<stop  offset="0.0597" style="stop-color:#005F2C"/>
	<stop  offset="0.1979" style="stop-color:#036330"/>
	<stop  offset="0.4073" style="stop-color:#0E6834"/>
	<stop  offset="0.6499" style="stop-color:#136A36"/>
	<stop  offset="1" style="stop-color:#156B36"/>
</linearGradient>
<path fill="url(#SVGID_1_)" d="M32.12,7.838c0,0-0.332-1.964-0.533-2.653c-0.195-0.666,0-2.699,0-2.699s0.101-0.451,0.595-0.451
	c0.596,0,0.545,0.327,0.545,0.327s-0.127,2.019,0.033,2.708c0.168,0.727,0.701,2.767,0.701,2.767s-0.081,0.415-0.645,0.415
	C32.337,8.253,32.12,7.838,32.12,7.838z"/>
<linearGradient id="SVGID_2_" gradientUnits="userSpaceOnUse" x1="49.2778" y1="3.3573" x2="51.2375" y2="3.3573">
	<stop  offset="0.0597" style="stop-color:#FDB72A"/>
	<stop  offset="0.2492" style="stop-color:#F2B025"/>
	<stop  offset="0.5563" style="stop-color:#EAAB23"/>
	<stop  offset="1" style="stop-color:#E8A922"/>
</linearGradient>
<path fill="url(#SVGID_2_)" d="M49.898,6.051c0,0-0.332-1.964-0.533-2.653c-0.195-0.666,0-2.699,0-2.699s0.101-0.451,0.595-0.451
	c0.596,0,0.545,0.327,0.545,0.327s-0.127,2.019,0.033,2.708c0.168,0.727,0.701,2.767,0.701,2.767s-0.081,0.415-0.645,0.415
	C50.115,6.466,49.898,6.051,49.898,6.051z"/>
<linearGradient id="SVGID_3_" gradientUnits="userSpaceOnUse" x1="-468.7821" y1="-1903.1871" x2="-466.8224" y2="-1903.1871" gradientTransform="matrix(0.7463 0.6656 -0.6656 0.7463 -849.2054 1737.9156)">
	<stop  offset="0.0597" style="stop-color:#FDB72A"/>
	<stop  offset="0.2492" style="stop-color:#F2B025"/>
	<stop  offset="0.5563" style="stop-color:#EAAB23"/>
	<stop  offset="1" style="stop-color:#E8A922"/>
</linearGradient>
<path fill="url(#SVGID_3_)" d="M66.349,7.941c0,0,1.059-1.687,1.368-2.335c0.298-0.627,1.796-2.014,1.796-2.014
	s0.375-0.269,0.744,0.06c0.445,0.397,0.189,0.607,0.189,0.607s-1.438,1.422-1.778,2.043c-0.358,0.654-1.319,2.532-1.319,2.532
	s-0.336,0.256-0.758-0.12C66.235,8.396,66.349,7.941,66.349,7.941z"/>
<linearGradient id="SVGID_4_" gradientUnits="userSpaceOnUse" x1="-1440.962" y1="-4359.7476" x2="-1439.0024" y2="-4359.7476" gradientTransform="matrix(0.3654 0.9309 -0.5593 0.2196 -1836.9222 2316.0042)">
	<stop  offset="0.0597" style="stop-color:#0099A9"/>
	<stop  offset="0.1463" style="stop-color:#008FA9"/>
	<stop  offset="0.31" style="stop-color:#0081A8"/>
	<stop  offset="0.4905" style="stop-color:#0078A7"/>
	<stop  offset="0.6991" style="stop-color:#0072A6"/>
	<stop  offset="1" style="stop-color:#0071A7"/>
</linearGradient>
<path fill="url(#SVGID_4_)" d="M73.823,18.619c0,0,0.977-0.74,1.289-1.079c0.302-0.328,1.51-0.593,1.51-0.593
	s0.289-0.005,0.469,0.455c0.218,0.555,0.016,0.579,0.016,0.579s-1.176,0.325-1.503,0.625c-0.345,0.316-1.292,1.26-1.292,1.26
	s-0.262,0.016-0.468-0.509C73.67,18.912,73.823,18.619,73.823,18.619z"/>
<linearGradient id="SVGID_5_" gradientUnits="userSpaceOnUse" x1="-537.1284" y1="3033.5415" x2="-535.1686" y2="3033.5415" gradientTransform="matrix(0.8126 -0.5828 0.3502 0.4883 -608.0266 -1788.5333)">
	<stop  offset="0.0597" style="stop-color:#005F2C"/>
	<stop  offset="0.1979" style="stop-color:#036330"/>
	<stop  offset="0.4073" style="stop-color:#0E6834"/>
	<stop  offset="0.6499" style="stop-color:#136A36"/>
	<stop  offset="1" style="stop-color:#156B36"/>
</linearGradient>
<path fill="url(#SVGID_5_)" d="M19.326,6.679c0,0-0.958-0.765-1.363-0.985c-0.392-0.212-0.945-1.318-0.945-1.318
	s-0.076-0.279,0.326-0.567c0.485-0.348,0.557-0.158,0.557-0.158s0.604,1.06,0.975,1.303c0.391,0.257,1.539,0.943,1.539,0.943
	s0.08,0.25-0.379,0.579C19.648,6.755,19.326,6.679,19.326,6.679z"/>
<linearGradient id="SVGID_6_" gradientUnits="userSpaceOnUse" x1="-2348.5457" y1="4744.731" x2="-2346.5859" y2="4744.731" gradientTransform="matrix(0.2359 -0.9718 0.5839 0.1418 -2214.7129 -2934.1011)">
	<stop  offset="0.0597" style="stop-color:#0099A9"/>
	<stop  offset="0.1463" style="stop-color:#008FA9"/>
	<stop  offset="0.31" style="stop-color:#0081A8"/>
	<stop  offset="0.4905" style="stop-color:#0078A7"/>
	<stop  offset="0.6991" style="stop-color:#0072A6"/>
	<stop  offset="1" style="stop-color:#0071A7"/>
</linearGradient>
<path fill="url(#SVGID_6_)" d="M3.406,20.607c0,0-1.225,0.044-1.675,0.142c-0.435,0.095-1.576-0.383-1.576-0.383
	s-0.239-0.162-0.123-0.642c0.141-0.58,0.32-0.483,0.32-0.483s1.149,0.409,1.589,0.352c0.464-0.06,1.781-0.289,1.781-0.289
	s0.223,0.137,0.09,0.686C3.699,20.455,3.406,20.607,3.406,20.607z"/>
<linearGradient id="SVGID_7_" gradientUnits="userSpaceOnUse" x1="-2250.1809" y1="2576.6372" x2="-2248.2212" y2="2576.6372" gradientTransform="matrix(0.2516 -0.9678 0.9678 0.2516 -1924.1763 -2811.6792)">
	<stop  offset="0.0597" style="stop-color:#FDB72A"/>
	<stop  offset="0.2492" style="stop-color:#F2B025"/>
	<stop  offset="0.5563" style="stop-color:#EAAB23"/>
	<stop  offset="1" style="stop-color:#E8A922"/>
</linearGradient>
<path fill="url(#SVGID_7_)" d="M6.17,14.49c0,0-1.984-0.173-2.702-0.151C2.775,14.36,0.856,13.66,0.856,13.66
	s-0.411-0.211-0.286-0.689c0.15-0.577,0.454-0.445,0.454-0.445s1.922,0.631,2.629,0.65c0.746,0.02,2.855,0.018,2.855,0.018
	s0.381,0.183,0.239,0.729C6.627,14.384,6.17,14.49,6.17,14.49z"/>
<linearGradient id="SVGID_8_" gradientUnits="userSpaceOnUse" x1="-547.7476" y1="3033.8247" x2="-545.7879" y2="3033.8247" gradientTransform="matrix(0.8126 -0.5828 0.3502 0.4883 -608.0266 -1788.5333)">
	<stop  offset="0.0597" style="stop-color:#005F2C"/>
	<stop  offset="0.1979" style="stop-color:#036330"/>
	<stop  offset="0.4073" style="stop-color:#0E6834"/>
	<stop  offset="0.6499" style="stop-color:#136A36"/>
	<stop  offset="1" style="stop-color:#156B36"/>
</linearGradient>
<path fill="url(#SVGID_8_)" d="M10.796,13.006c0,0-0.958-0.765-1.363-0.985c-0.392-0.212-0.945-1.318-0.945-1.318
	s-0.076-0.279,0.326-0.567C9.298,9.79,9.371,9.98,9.371,9.98s0.604,1.06,0.975,1.303c0.391,0.257,1.539,0.943,1.539,0.943
	s0.08,0.25-0.379,0.579C11.118,13.082,10.796,13.006,10.796,13.006z"/>
<linearGradient id="SVGID_9_" gradientUnits="userSpaceOnUse" x1="92.5864" y1="-486.7406" x2="94.5461" y2="-486.7406" gradientTransform="matrix(0.9829 0.1841 -0.1106 0.5906 -102.8417 283.7463)">
	<stop  offset="0.0597" style="stop-color:#0099A9"/>
	<stop  offset="0.1463" style="stop-color:#008FA9"/>
	<stop  offset="0.31" style="stop-color:#0081A8"/>
	<stop  offset="0.4905" style="stop-color:#0078A7"/>
	<stop  offset="0.6991" style="stop-color:#0072A6"/>
	<stop  offset="1" style="stop-color:#0071A7"/>
</linearGradient>
<path fill="url(#SVGID_9_)" d="M42.315,15.02c0,0-0.109-1.221-0.231-1.665c-0.118-0.429,0.299-1.594,0.299-1.594
	s0.149-0.248,0.635-0.157c0.586,0.11,0.499,0.294,0.499,0.294s-0.348,1.169-0.267,1.605c0.085,0.46,0.383,1.764,0.383,1.764
	s-0.125,0.23-0.68,0.126C42.483,15.305,42.315,15.02,42.315,15.02z"/>
<linearGradient id="SVGID_10_" gradientUnits="userSpaceOnUse" x1="75.7751" y1="-853.5834" x2="77.7348" y2="-853.5834" gradientTransform="matrix(0.9664 0.2572 -0.1546 0.5807 -150.6463 480.4445)">
	<stop  offset="0.0597" style="stop-color:#0099A9"/>
	<stop  offset="0.1463" style="stop-color:#008FA9"/>
	<stop  offset="0.31" style="stop-color:#0081A8"/>
	<stop  offset="0.4905" style="stop-color:#0078A7"/>
	<stop  offset="0.6991" style="stop-color:#0072A6"/>
	<stop  offset="1" style="stop-color:#0071A7"/>
</linearGradient>
<path fill="url(#SVGID_10_)" d="M54.691,6.013c0,0-0.017-1.226-0.105-1.678c-0.085-0.437,0.417-1.567,0.417-1.567
	s0.167-0.236,0.644-0.109c0.576,0.153,0.476,0.33,0.476,0.33s-0.434,1.14-0.387,1.581c0.05,0.465,0.25,1.787,0.25,1.787
	s-0.142,0.22-0.687,0.075C54.837,6.31,54.691,6.013,54.691,6.013z"/>
<linearGradient id="SVGID_11_" gradientUnits="userSpaceOnUse" x1="-389.3565" y1="2550.9475" x2="-387.3968" y2="2550.9475" gradientTransform="matrix(0.8897 -0.4565 0.2743 0.5346 -339.6572 -1534.2164)">
	<stop  offset="0.0597" style="stop-color:#0099A9"/>
	<stop  offset="0.1463" style="stop-color:#008FA9"/>
	<stop  offset="0.31" style="stop-color:#0081A8"/>
	<stop  offset="0.4905" style="stop-color:#0078A7"/>
	<stop  offset="0.6991" style="stop-color:#0072A6"/>
	<stop  offset="1" style="stop-color:#0071A7"/>
</linearGradient>
<path fill="url(#SVGID_11_)" d="M14.89,8.482c0,0-0.834-0.898-1.202-1.175c-0.356-0.267-0.74-1.443-0.74-1.443
	s-0.034-0.287,0.406-0.512c0.531-0.272,0.574-0.074,0.574-0.074S14.369,6.415,14.7,6.71c0.349,0.312,1.383,1.16,1.383,1.16
	s0.042,0.259-0.46,0.516C15.198,8.604,14.89,8.482,14.89,8.482z"/>
<linearGradient id="SVGID_12_" gradientUnits="userSpaceOnUse" x1="-312.8593" y1="1227.4387" x2="-310.8996" y2="1227.4387" gradientTransform="matrix(0.897 -0.442 0.442 0.897 -242.4513 -1234.3004)">
	<stop  offset="0.0597" style="stop-color:#FDB72A"/>
	<stop  offset="0.2492" style="stop-color:#F2B025"/>
	<stop  offset="0.5563" style="stop-color:#EAAB23"/>
	<stop  offset="1" style="stop-color:#E8A922"/>
</linearGradient>
<path fill="url(#SVGID_12_)" d="M21.242,7.144c0,0-1.166-1.615-1.651-2.144c-0.469-0.512-1.193-2.421-1.193-2.421
	s-0.109-0.449,0.334-0.667c0.535-0.264,0.633,0.053,0.633,0.053s0.779,1.867,1.226,2.414c0.472,0.577,1.852,2.173,1.852,2.173
	s0.111,0.408-0.395,0.657C21.62,7.42,21.242,7.144,21.242,7.144z"/>
<linearGradient id="SVGID_13_" gradientUnits="userSpaceOnUse" x1="79.058" y1="-753.1268" x2="81.0177" y2="-753.1268" gradientTransform="matrix(0.9722 0.2342 -0.1407 0.5842 -156.7688 430.5528)">
	<stop  offset="0.0597" style="stop-color:#E63825"/>
	<stop  offset="0.0677" style="stop-color:#E43725"/>
	<stop  offset="0.2467" style="stop-color:#C82B25"/>
	<stop  offset="0.4433" style="stop-color:#B62424"/>
	<stop  offset="0.6712" style="stop-color:#AC2023"/>
	<stop  offset="1" style="stop-color:#A81E23"/>
</linearGradient>
<path fill="url(#SVGID_13_)" d="M26.293,10.829c0,0-0.046-1.225-0.145-1.675c-0.096-0.435,0.38-1.577,0.38-1.577
	s0.161-0.24,0.642-0.124c0.58,0.14,0.483,0.319,0.483,0.319s-0.407,1.15-0.349,1.589c0.061,0.464,0.292,1.781,0.292,1.781
	s-0.137,0.223-0.685,0.091C26.447,11.123,26.293,10.829,26.293,10.829z"/>
<linearGradient id="SVGID_14_" gradientUnits="userSpaceOnUse" x1="-366.4761" y1="2568.3762" x2="-364.5164" y2="2568.3762" gradientTransform="matrix(0.8897 -0.4565 0.2743 0.5346 -339.6572 -1534.2164)">
	<stop  offset="0.0597" style="stop-color:#005F2C"/>
	<stop  offset="0.1979" style="stop-color:#036330"/>
	<stop  offset="0.4073" style="stop-color:#0E6834"/>
	<stop  offset="0.6499" style="stop-color:#136A36"/>
	<stop  offset="1" style="stop-color:#156B36"/>
</linearGradient>
<path fill="url(#SVGID_14_)" d="M40.028,7.355c0,0-0.834-0.898-1.202-1.175c-0.356-0.267-0.74-1.443-0.74-1.443
	s-0.034-0.287,0.406-0.512c0.531-0.272,0.574-0.074,0.574-0.074s0.441,1.137,0.772,1.433c0.349,0.312,1.383,1.16,1.383,1.16
	s0.042,0.259-0.46,0.516C40.336,7.478,40.028,7.355,40.028,7.355z"/>
<linearGradient id="SVGID_15_" gradientUnits="userSpaceOnUse" x1="78.908" y1="296.6241" x2="80.8677" y2="296.6241" gradientTransform="matrix(0.995 -0.1002 0.1002 0.995 -62.8556 -282.7177)">
	<stop  offset="0.0597" style="stop-color:#E63825"/>
	<stop  offset="0.0677" style="stop-color:#E43725"/>
	<stop  offset="0.2467" style="stop-color:#C82B25"/>
	<stop  offset="0.4433" style="stop-color:#B62424"/>
	<stop  offset="0.6712" style="stop-color:#AC2023"/>
	<stop  offset="1" style="stop-color:#A81E23"/>
</linearGradient>
<path fill="url(#SVGID_15_)" d="M46.277,7.12c0,0-0.527-1.921-0.797-2.586C45.22,3.89,45.21,1.849,45.21,1.849
	s0.055-0.458,0.547-0.508c0.593-0.06,0.575,0.271,0.575,0.271s0.076,2.021,0.304,2.691c0.24,0.706,0.975,2.683,0.975,2.683
	s-0.039,0.421-0.6,0.477C46.535,7.511,46.277,7.12,46.277,7.12z"/>
<linearGradient id="SVGID_16_" gradientUnits="userSpaceOnUse" x1="95.7318" y1="-764.2007" x2="97.6915" y2="-764.2007" gradientTransform="matrix(0.9722 0.2342 -0.1407 0.5842 -156.7688 430.5528)">
	<stop  offset="0.0597" style="stop-color:#FDB72A"/>
	<stop  offset="0.2492" style="stop-color:#F2B025"/>
	<stop  offset="0.5563" style="stop-color:#EAAB23"/>
	<stop  offset="1" style="stop-color:#E8A922"/>
</linearGradient>
<path fill="url(#SVGID_16_)" d="M44.062,8.265c0,0-0.046-1.225-0.145-1.675c-0.096-0.435,0.38-1.577,0.38-1.577
	s0.161-0.24,0.642-0.124c0.58,0.14,0.483,0.319,0.483,0.319s-0.407,1.15-0.349,1.589c0.061,0.464,0.292,1.781,0.292,1.781
	s-0.137,0.223-0.685,0.091C44.215,8.558,44.062,8.265,44.062,8.265z"/>
<linearGradient id="SVGID_17_" gradientUnits="userSpaceOnUse" x1="-296.442" y1="-1646.9142" x2="-294.4823" y2="-1646.9142" gradientTransform="matrix(0.8107 0.5855 -0.5855 0.8107 -666.7665 1519.3488)">
	<stop  offset="0.0597" style="stop-color:#FDB72A"/>
	<stop  offset="0.2492" style="stop-color:#F2B025"/>
	<stop  offset="0.5563" style="stop-color:#EAAB23"/>
	<stop  offset="1" style="stop-color:#E8A922"/>
</linearGradient>
<path fill="url(#SVGID_17_)" d="M56.111,13.222c0,0,0.881-1.786,1.121-2.463c0.232-0.654,1.58-2.188,1.58-2.188
	s0.345-0.306,0.746-0.017c0.484,0.349,0.25,0.584,0.25,0.584s-1.285,1.563-1.559,2.214c-0.289,0.688-1.052,2.654-1.052,2.654
	s-0.308,0.289-0.766-0.041C56.045,13.685,56.111,13.222,56.111,13.222z"/>
<linearGradient id="SVGID_18_" gradientUnits="userSpaceOnUse" x1="-418.4849" y1="-2727.0447" x2="-416.5252" y2="-2727.0447" gradientTransform="matrix(0.763 0.6463 -0.3884 0.4585 -675.8354 1526.7355)">
	<stop  offset="0.0597" style="stop-color:#005F2C"/>
	<stop  offset="0.1979" style="stop-color:#036330"/>
	<stop  offset="0.4073" style="stop-color:#0E6834"/>
	<stop  offset="0.6499" style="stop-color:#136A36"/>
	<stop  offset="1" style="stop-color:#156B36"/>
</linearGradient>
<path fill="url(#SVGID_18_)" d="M63.384,7.529c0,0,0.509-1.115,0.623-1.561c0.11-0.431,1.048-1.237,1.048-1.237
	s0.252-0.142,0.629,0.178c0.455,0.386,0.288,0.502,0.288,0.502s-0.881,0.844-1.027,1.263c-0.154,0.442-0.54,1.722-0.54,1.722
	s-0.223,0.138-0.653-0.227C63.389,7.86,63.384,7.529,63.384,7.529z"/>
<linearGradient id="SVGID_19_" gradientUnits="userSpaceOnUse" x1="-1825.1031" y1="-4291.96" x2="-1823.1434" y2="-4291.96" gradientTransform="matrix(0.2348 0.972 -0.5841 0.1411 -2008.7594 2387.53)">
	<stop  offset="0.0597" style="stop-color:#E63825"/>
	<stop  offset="0.0677" style="stop-color:#E43725"/>
	<stop  offset="0.2467" style="stop-color:#C82B25"/>
	<stop  offset="0.4433" style="stop-color:#B62424"/>
	<stop  offset="0.6712" style="stop-color:#AC2023"/>
	<stop  offset="1" style="stop-color:#A81E23"/>
</linearGradient>
<path fill="url(#SVGID_19_)" d="M68.16,8.904c0,0,1.069-0.6,1.424-0.893c0.343-0.283,1.576-0.381,1.576-0.381
	s0.287,0.034,0.403,0.515C71.704,8.725,71.5,8.72,71.5,8.72s-1.209,0.162-1.574,0.414c-0.385,0.266-1.452,1.072-1.452,1.072
	s-0.261-0.02-0.394-0.568C67.969,9.174,68.16,8.904,68.16,8.904z"/>
<linearGradient id="SVGID_20_" gradientUnits="userSpaceOnUse" x1="-26.8065" y1="-1129.2152" x2="-24.8468" y2="-1129.2152" gradientTransform="matrix(0.9142 0.4052 -0.4052 0.9142 -360.7859 1054.2695)">
	<stop  offset="0.0597" style="stop-color:#FDB72A"/>
	<stop  offset="0.2492" style="stop-color:#F2B025"/>
	<stop  offset="0.5563" style="stop-color:#EAAB23"/>
	<stop  offset="1" style="stop-color:#E8A922"/>
</linearGradient>
<path fill="url(#SVGID_20_)" d="M71.766,13.772c0,0,0.492-1.93,0.588-2.642c0.092-0.688,1.094-2.467,1.094-2.467
	s0.275-0.371,0.726-0.171c0.545,0.242,0.365,0.52,0.365,0.52s-0.934,1.794-1.067,2.489c-0.141,0.732-0.481,2.814-0.481,2.814
	s-0.242,0.347-0.758,0.118C71.797,14.239,71.766,13.772,71.766,13.772z"/>
<linearGradient id="SVGID_21_" gradientUnits="userSpaceOnUse" x1="65.098" y1="-1037.02" x2="67.0577" y2="-1037.02" gradientTransform="matrix(0.9574 0.2887 -0.1735 0.5753 -172.6035 591.9989)">
	<stop  offset="0.0597" style="stop-color:#005F2C"/>
	<stop  offset="0.1979" style="stop-color:#036330"/>
	<stop  offset="0.4073" style="stop-color:#0E6834"/>
	<stop  offset="0.6499" style="stop-color:#136A36"/>
	<stop  offset="1" style="stop-color:#156B36"/>
</linearGradient>
<path fill="url(#SVGID_21_)" d="M69.733,15.921c0,0,0.023-1.226-0.05-1.68c-0.071-0.44,0.468-1.553,0.468-1.553
	s0.175-0.23,0.648-0.087c0.571,0.172,0.465,0.346,0.465,0.346s-0.472,1.125-0.438,1.567c0.035,0.467,0.191,1.794,0.191,1.794
	s-0.149,0.215-0.69,0.052C69.869,16.223,69.733,15.921,69.733,15.921z"/>
<linearGradient id="SVGID_22_" gradientUnits="userSpaceOnUse" x1="4653.4888" y1="1819.8173" x2="4655.4482" y2="1819.8173" gradientTransform="matrix(0.9648 0.2628 -0.1579 0.5798 -4169.25 -2267.4678)">
	<stop  offset="0.0597" style="stop-color:#FDB72A"/>
	<stop  offset="0.2492" style="stop-color:#F2B025"/>
	<stop  offset="0.5563" style="stop-color:#EAAB23"/>
	<stop  offset="1" style="stop-color:#E8A922"/>
</linearGradient>
<path fill="url(#SVGID_22_)" d="M33.361,12.46c0,0-0.01-1.226-0.096-1.678c-0.083-0.437,0.426-1.565,0.426-1.565
	s0.168-0.235,0.645-0.105c0.576,0.157,0.474,0.333,0.474,0.333s-0.441,1.137-0.396,1.578c0.048,0.465,0.239,1.789,0.239,1.789
	s-0.143,0.219-0.688,0.071C33.505,12.757,33.361,12.46,33.361,12.46z"/>
<linearGradient id="SVGID_23_" gradientUnits="userSpaceOnUse" x1="40.2415" y1="3.1867" x2="42.2012" y2="3.1867">
	<stop  offset="0.0597" style="stop-color:#B457A1"/>
	<stop  offset="0.093" style="stop-color:#B5579E"/>
	<stop  offset="0.267" style="stop-color:#BA5593"/>
	<stop  offset="0.4588" style="stop-color:#BD558C"/>
	<stop  offset="0.6803" style="stop-color:#BE5488"/>
	<stop  offset="1" style="stop-color:#BF5486"/>
</linearGradient>
<path fill="url(#SVGID_23_)" d="M40.861,5.88c0,0-0.332-1.964-0.533-2.653c-0.195-0.666,0-2.699,0-2.699s0.101-0.451,0.595-0.451
	c0.596,0,0.545,0.327,0.545,0.327S41.341,2.424,41.5,3.113c0.168,0.727,0.701,2.767,0.701,2.767s-0.081,0.415-0.645,0.415
	C41.079,6.295,40.861,5.88,40.861,5.88z"/>
<linearGradient id="SVGID_24_" gradientUnits="userSpaceOnUse" x1="-477.1554" y1="-3037.4004" x2="-475.1957" y2="-3037.4004" gradientTransform="matrix(0.7463 0.6656 -0.396 0.4441 -789.3202 1670.7675)">
	<stop  offset="0.0597" style="stop-color:#B457A1"/>
	<stop  offset="0.093" style="stop-color:#B5579E"/>
	<stop  offset="0.267" style="stop-color:#BA5593"/>
	<stop  offset="0.4588" style="stop-color:#BD558C"/>
	<stop  offset="0.6803" style="stop-color:#BE5488"/>
	<stop  offset="1" style="stop-color:#BF5486"/>
</linearGradient>
<path fill="url(#SVGID_24_)" d="M56.909,5.945c0,0,0.53-1.093,0.653-1.533c0.119-0.425,1.069-1.199,1.069-1.199
	s0.254-0.133,0.622,0.196c0.445,0.397,0.277,0.508,0.277,0.508s-0.894,0.812-1.048,1.224c-0.162,0.435-0.573,1.695-0.573,1.695
	s-0.225,0.13-0.646-0.245C56.907,6.274,56.909,5.945,56.909,5.945z"/>
<linearGradient id="SVGID_25_" gradientUnits="userSpaceOnUse" x1="-870.525" y1="1953.3048" x2="-868.5653" y2="1953.3048" gradientTransform="matrix(0.6979 -0.7162 0.7162 0.6979 -782.8173 -1977.8556)">
	<stop  offset="0.0597" style="stop-color:#B457A1"/>
	<stop  offset="0.093" style="stop-color:#B5579E"/>
	<stop  offset="0.267" style="stop-color:#BA5593"/>
	<stop  offset="0.4588" style="stop-color:#BD558C"/>
	<stop  offset="0.6803" style="stop-color:#BE5488"/>
	<stop  offset="1" style="stop-color:#BF5486"/>
</linearGradient>
<path fill="url(#SVGID_25_)" d="M11.022,10.23c0,0-1.638-1.133-2.272-1.47C8.136,8.435,6.816,6.877,6.816,6.877
	s-0.252-0.387,0.092-0.74C7.325,5.71,7.523,5.975,7.523,5.975s1.358,1.5,1.962,1.866c0.638,0.387,2.471,1.429,2.471,1.429
	s0.241,0.347-0.153,0.752C11.471,10.364,11.022,10.23,11.022,10.23z"/>
<linearGradient id="SVGID_26_" gradientUnits="userSpaceOnUse" x1="-333.199" y1="1871.3131" x2="-331.2393" y2="1871.3131" gradientTransform="matrix(0.897 -0.442 0.3096 0.6283 -277.1963 -1304.8052)">
	<stop  offset="0.0597" style="stop-color:#B457A1"/>
	<stop  offset="0.093" style="stop-color:#B5579E"/>
	<stop  offset="0.267" style="stop-color:#BA5593"/>
	<stop  offset="0.4588" style="stop-color:#BD558C"/>
	<stop  offset="0.6803" style="stop-color:#BE5488"/>
	<stop  offset="1" style="stop-color:#BF5486"/>
</linearGradient>
<path fill="url(#SVGID_26_)" d="M4.731,19.655c0,0-0.906-1.087-1.3-1.431c-0.381-0.333-0.836-1.696-0.836-1.696
	S2.546,16.2,2.99,15.982c0.535-0.264,0.59-0.035,0.59-0.035s0.511,1.325,0.868,1.687c0.376,0.382,1.486,1.429,1.486,1.429
	s0.056,0.296-0.45,0.546C5.055,19.819,4.731,19.655,4.731,19.655z"/>
<linearGradient id="SVGID_27_" gradientUnits="userSpaceOnUse" x1="75.833" y1="-748.5355" x2="77.7927" y2="-748.5355" gradientTransform="matrix(0.9722 0.2342 -0.1407 0.5842 -156.7688 430.5528)">
	<stop  offset="0.0597" style="stop-color:#B457A1"/>
	<stop  offset="0.093" style="stop-color:#B5579E"/>
	<stop  offset="0.267" style="stop-color:#BA5593"/>
	<stop  offset="0.4588" style="stop-color:#BD558C"/>
	<stop  offset="0.6803" style="stop-color:#BE5488"/>
	<stop  offset="1" style="stop-color:#BF5486"/>
</linearGradient>
<path fill="url(#SVGID_27_)" d="M22.512,12.756c0,0-0.046-1.225-0.145-1.675c-0.096-0.435,0.38-1.577,0.38-1.577
	s0.161-0.24,0.642-0.124c0.58,0.14,0.483,0.319,0.483,0.319s-0.407,1.15-0.349,1.589c0.061,0.464,0.292,1.781,0.292,1.781
	s-0.137,0.223-0.685,0.091C22.665,13.05,22.512,12.756,22.512,12.756z"/>
<linearGradient id="SVGID_28_" gradientUnits="userSpaceOnUse" x1="68.004" y1="-594.7311" x2="69.9637" y2="-594.7311" gradientTransform="matrix(0.9741 0.226 -0.226 0.9741 -148.8824 572.2454)">
	<stop  offset="0.0597" style="stop-color:#B457A1"/>
	<stop  offset="0.093" style="stop-color:#B5579E"/>
	<stop  offset="0.267" style="stop-color:#BA5593"/>
	<stop  offset="0.4588" style="stop-color:#BD558C"/>
	<stop  offset="0.6803" style="stop-color:#BE5488"/>
	<stop  offset="1" style="stop-color:#BF5486"/>
</linearGradient>
<path fill="url(#SVGID_28_)" d="M51.756,11.031c0,0,0.12-1.988,0.08-2.705c-0.039-0.693,0.61-2.629,0.61-2.629
	s0.2-0.416,0.681-0.304c0.581,0.135,0.457,0.442,0.457,0.442s-0.58,1.938-0.58,2.645c0,0.746,0.057,2.854,0.057,2.854
	s-0.172,0.386-0.722,0.258C51.875,11.484,51.756,11.031,51.756,11.031z"/>
<linearGradient id="SVGID_29_" gradientUnits="userSpaceOnUse" x1="-33.2582" y1="-1553.7606" x2="-31.2985" y2="-1553.7606" gradientTransform="matrix(0.9142 0.4052 -0.2716 0.6129 -331.2725 987.6846)">
	<stop  offset="0.0597" style="stop-color:#B457A1"/>
	<stop  offset="0.093" style="stop-color:#B5579E"/>
	<stop  offset="0.267" style="stop-color:#BA5593"/>
	<stop  offset="0.4588" style="stop-color:#BD558C"/>
	<stop  offset="0.6803" style="stop-color:#BE5488"/>
	<stop  offset="1" style="stop-color:#BF5486"/>
</linearGradient>
<path fill="url(#SVGID_29_)" d="M60.235,23.867c0,0,0.23-1.338,0.233-1.842c0.003-0.487,0.733-1.654,0.733-1.654
	s0.214-0.235,0.666-0.035c0.545,0.242,0.409,0.421,0.409,0.421s-0.664,1.186-0.706,1.673c-0.044,0.513-0.111,1.98-0.111,1.98
	s-0.187,0.222-0.702-0.007C60.321,24.209,60.235,23.867,60.235,23.867z"/>
<linearGradient id="SVGID_30_" gradientUnits="userSpaceOnUse" x1="-3417.1692" y1="-4325.9819" x2="-3415.2095" y2="-4325.9819" gradientTransform="matrix(-0.3482 0.9374 -0.5633 -0.2093 -3556.5039 2317.0491)">
	<stop  offset="0.0597" style="stop-color:#B457A1"/>
	<stop  offset="0.093" style="stop-color:#B5579E"/>
	<stop  offset="0.267" style="stop-color:#BA5593"/>
	<stop  offset="0.4588" style="stop-color:#BD558C"/>
	<stop  offset="0.6803" style="stop-color:#BE5488"/>
	<stop  offset="1" style="stop-color:#BF5486"/>
</linearGradient>
<path fill="url(#SVGID_30_)" d="M68.453,19.004c0,0,1.222,0.1,1.68,0.055c0.443-0.043,1.52,0.565,1.52,0.565
	s0.219,0.189,0.047,0.652c-0.208,0.559-0.374,0.442-0.374,0.442s-1.093-0.541-1.537-0.536c-0.468,0.006-1.803,0.078-1.803,0.078
	s-0.206-0.163-0.009-0.691C68.143,19.121,68.453,19.004,68.453,19.004z"/>
<linearGradient id="SVGID_31_" gradientUnits="userSpaceOnUse" x1="23.116" y1="6.5603" x2="25.0757" y2="6.5603">
	<stop  offset="0.0597" style="stop-color:#E8773A"/>
	<stop  offset="0.0902" style="stop-color:#E97739"/>
	<stop  offset="0.4624" style="stop-color:#F07338"/>
	<stop  offset="1" style="stop-color:#F37237"/>
</linearGradient>
<path fill="url(#SVGID_31_)" d="M23.736,8.539c0,0-0.332-1.443-0.533-1.949c-0.195-0.49,0-1.983,0-1.983s0.101-0.331,0.595-0.331
	c0.596,0,0.545,0.241,0.545,0.241S24.215,6,24.375,6.506c0.168,0.534,0.701,2.033,0.701,2.033s-0.081,0.305-0.645,0.305
	C23.953,8.844,23.736,8.539,23.736,8.539z"/>
<linearGradient id="SVGID_32_" gradientUnits="userSpaceOnUse" x1="-541.9185" y1="3039.7913" x2="-539.9588" y2="3039.7913" gradientTransform="matrix(0.8126 -0.5828 0.3502 0.4883 -608.0266 -1788.5333)">
	<stop  offset="0.0597" style="stop-color:#E8773A"/>
	<stop  offset="0.0902" style="stop-color:#E97739"/>
	<stop  offset="0.4624" style="stop-color:#F07338"/>
	<stop  offset="1" style="stop-color:#F37237"/>
</linearGradient>
<path fill="url(#SVGID_32_)" d="M17.622,12.522c0,0-0.958-0.765-1.363-0.985c-0.392-0.212-0.945-1.318-0.945-1.318
	s-0.076-0.279,0.326-0.567c0.485-0.348,0.557-0.158,0.557-0.158s0.604,1.06,0.975,1.303c0.391,0.257,1.539,0.943,1.539,0.943
	s0.08,0.25-0.379,0.579C17.944,12.598,17.622,12.522,17.622,12.522z"/>
<linearGradient id="SVGID_33_" gradientUnits="userSpaceOnUse" x1="-551.1343" y1="3031.9531" x2="-549.1746" y2="3031.9531" gradientTransform="matrix(0.8126 -0.5828 0.3502 0.4883 -608.0266 -1788.5333)">
	<stop  offset="0.0597" style="stop-color:#E8773A"/>
	<stop  offset="0.0902" style="stop-color:#E97739"/>
	<stop  offset="0.4624" style="stop-color:#F07338"/>
	<stop  offset="1" style="stop-color:#F37237"/>
</linearGradient>
<path fill="url(#SVGID_33_)" d="M7.388,14.066c0,0-0.958-0.765-1.363-0.985c-0.392-0.212-0.945-1.318-0.945-1.318
	s-0.076-0.279,0.326-0.567c0.485-0.348,0.557-0.158,0.557-0.158s0.604,1.06,0.975,1.303c0.391,0.257,1.539,0.943,1.539,0.943
	s0.08,0.25-0.379,0.579C7.71,14.142,7.388,14.066,7.388,14.066z"/>
<linearGradient id="SVGID_34_" gradientUnits="userSpaceOnUse" x1="-369.7333" y1="2572.3545" x2="-367.7736" y2="2572.3545" gradientTransform="matrix(0.8897 -0.4565 0.2743 0.5346 -339.6572 -1534.2164)">
	<stop  offset="0.0597" style="stop-color:#E8773A"/>
	<stop  offset="0.0902" style="stop-color:#E97739"/>
	<stop  offset="0.4624" style="stop-color:#F07338"/>
	<stop  offset="1" style="stop-color:#F37237"/>
</linearGradient>
<path fill="url(#SVGID_34_)" d="M38.222,10.969c0,0-0.834-0.898-1.202-1.175c-0.356-0.267-0.74-1.443-0.74-1.443
	s-0.034-0.287,0.406-0.512c0.531-0.272,0.574-0.074,0.574-0.074s0.441,1.137,0.772,1.433c0.349,0.312,1.383,1.16,1.383,1.16
	s0.042,0.259-0.46,0.516C38.529,11.092,38.222,10.969,38.222,10.969z"/>
<linearGradient id="SVGID_35_" gradientUnits="userSpaceOnUse" x1="-417.0881" y1="-2715.4666" x2="-415.1284" y2="-2715.4666" gradientTransform="matrix(0.763 0.6463 -0.3884 0.4585 -675.8354 1526.7355)">
	<stop  offset="0.0597" style="stop-color:#E8773A"/>
	<stop  offset="0.0902" style="stop-color:#E97739"/>
	<stop  offset="0.4624" style="stop-color:#F07338"/>
	<stop  offset="1" style="stop-color:#F37237"/>
</linearGradient>
<path fill="url(#SVGID_35_)" d="M59.954,13.741c0,0,0.509-1.115,0.623-1.561c0.11-0.431,1.048-1.237,1.048-1.237
	s0.252-0.142,0.629,0.178c0.455,0.386,0.288,0.502,0.288,0.502s-0.881,0.844-1.027,1.263c-0.154,0.442-0.54,1.722-0.54,1.722
	s-0.223,0.138-0.653-0.227C59.958,14.072,59.954,13.741,59.954,13.741z"/>
<linearGradient id="SVGID_36_" gradientUnits="userSpaceOnUse" x1="-477.6872" y1="-2938.7354" x2="-475.7275" y2="-2938.7354" gradientTransform="matrix(0.7289 0.6846 -0.4113 0.438 -795.3415 1627.6245)">
	<stop  offset="0.0597" style="stop-color:#E8773A"/>
	<stop  offset="0.0902" style="stop-color:#E97739"/>
	<stop  offset="0.4624" style="stop-color:#F07338"/>
	<stop  offset="1" style="stop-color:#F37237"/>
</linearGradient>
<path fill="url(#SVGID_36_)" d="M64.639,15.021c0,0,0.566-1.087,0.703-1.527c0.132-0.425,1.11-1.182,1.11-1.182
	s0.259-0.128,0.619,0.21c0.435,0.408,0.262,0.516,0.262,0.516s-0.923,0.798-1.09,1.208c-0.176,0.433-0.628,1.692-0.628,1.692
	s-0.23,0.126-0.641-0.26C64.627,15.352,64.639,15.021,64.639,15.021z"/>
<linearGradient id="SVGID_37_" gradientUnits="userSpaceOnUse" x1="64.4686" y1="-735.868" x2="66.4283" y2="-735.868" gradientTransform="matrix(0.9722 0.2342 -0.1407 0.5842 -156.7688 430.5528)">
	<stop  offset="0.0597" style="stop-color:#E63825"/>
	<stop  offset="0.0677" style="stop-color:#E43725"/>
	<stop  offset="0.2467" style="stop-color:#C82B25"/>
	<stop  offset="0.4433" style="stop-color:#B62424"/>
	<stop  offset="0.6712" style="stop-color:#AC2023"/>
	<stop  offset="1" style="stop-color:#A81E23"/>
</linearGradient>
<path fill="url(#SVGID_37_)" d="M9.681,17.495c0,0-0.046-1.225-0.145-1.675c-0.096-0.435,0.38-1.577,0.38-1.577
	s0.161-0.24,0.642-0.124c0.58,0.14,0.483,0.319,0.483,0.319s-0.407,1.15-0.349,1.589c0.061,0.464,0.292,1.781,0.292,1.781
	s-0.137,0.223-0.685,0.091C9.834,17.788,9.681,17.495,9.681,17.495z"/>
<linearGradient id="SVGID_38_" gradientUnits="userSpaceOnUse" x1="60.6781" y1="296.5853" x2="62.6378" y2="296.5853" gradientTransform="matrix(0.995 -0.1002 0.1002 0.995 -62.8556 -282.7177)">
	<stop  offset="0.0597" style="stop-color:#E63825"/>
	<stop  offset="0.0677" style="stop-color:#E43725"/>
	<stop  offset="0.2467" style="stop-color:#C82B25"/>
	<stop  offset="0.4433" style="stop-color:#B62424"/>
	<stop  offset="0.6712" style="stop-color:#AC2023"/>
	<stop  offset="1" style="stop-color:#A81E23"/>
</linearGradient>
<path fill="url(#SVGID_38_)" d="M28.135,8.909c0,0-0.527-1.921-0.797-2.586c-0.261-0.643-0.271-2.685-0.271-2.685
	s0.055-0.458,0.547-0.508c0.593-0.06,0.575,0.271,0.575,0.271s0.076,2.021,0.304,2.691c0.24,0.706,0.975,2.683,0.975,2.683
	s-0.039,0.421-0.6,0.477C28.393,9.3,28.135,8.909,28.135,8.909z"/>
<linearGradient id="SVGID_39_" gradientUnits="userSpaceOnUse" x1="-1823.9587" y1="-4253.3403" x2="-1821.999" y2="-4253.3403" gradientTransform="matrix(0.2348 0.972 -0.5841 0.1411 -2008.7594 2387.53)">
	<stop  offset="0.0597" style="stop-color:#E63825"/>
	<stop  offset="0.0677" style="stop-color:#E43725"/>
	<stop  offset="0.2467" style="stop-color:#C82B25"/>
	<stop  offset="0.4433" style="stop-color:#B62424"/>
	<stop  offset="0.6712" style="stop-color:#AC2023"/>
	<stop  offset="1" style="stop-color:#A81E23"/>
</linearGradient>
<path fill="url(#SVGID_39_)" d="M45.871,15.465c0,0,1.069-0.6,1.424-0.893c0.343-0.283,1.576-0.381,1.576-0.381
	s0.287,0.034,0.403,0.515c0.14,0.58-0.063,0.576-0.063,0.576s-1.209,0.162-1.574,0.414c-0.385,0.266-1.452,1.072-1.452,1.072
	s-0.261-0.02-0.394-0.568C45.68,15.735,45.871,15.465,45.871,15.465z"/>
<linearGradient id="SVGID_40_" gradientUnits="userSpaceOnUse" x1="33.1379" y1="3.1223" x2="35.0976" y2="3.1223">
	<stop  offset="0.0597" style="stop-color:#FFFFFF"/>
	<stop  offset="0.1427" style="stop-color:#EDEFED"/>
	<stop  offset="0.3071" style="stop-color:#D8DDD9"/>
	<stop  offset="0.4883" style="stop-color:#CAD1CB"/>
	<stop  offset="0.6978" style="stop-color:#C2CAC4"/>
	<stop  offset="1" style="stop-color:#BFC8C2"/>
</linearGradient>
<path fill="url(#SVGID_40_)" d="M33.758,5.816c0,0-0.332-1.964-0.533-2.653c-0.195-0.666,0-2.699,0-2.699s0.101-0.451,0.595-0.451
	c0.596,0,0.545,0.327,0.545,0.327s-0.127,2.019,0.033,2.708c0.168,0.727,0.701,2.767,0.701,2.767s-0.081,0.415-0.645,0.415
	C33.975,6.231,33.758,5.816,33.758,5.816z"/>
<linearGradient id="SVGID_41_" gradientUnits="userSpaceOnUse" x1="-467.4434" y1="-3021.8181" x2="-465.4837" y2="-3021.8181" gradientTransform="matrix(0.7463 0.6656 -0.396 0.4441 -789.3202 1670.7675)">
	<stop  offset="0.0597" style="stop-color:#FFFFFF"/>
	<stop  offset="0.1427" style="stop-color:#EDEFED"/>
	<stop  offset="0.3071" style="stop-color:#D8DDD9"/>
	<stop  offset="0.4883" style="stop-color:#CAD1CB"/>
	<stop  offset="0.6978" style="stop-color:#C2CAC4"/>
	<stop  offset="1" style="stop-color:#BFC8C2"/>
</linearGradient>
<path fill="url(#SVGID_41_)" d="M57.986,19.329c0,0,0.53-1.093,0.653-1.533c0.119-0.425,1.069-1.198,1.069-1.198
	s0.254-0.133,0.622,0.196c0.445,0.397,0.277,0.508,0.277,0.508s-0.894,0.812-1.048,1.224c-0.162,0.435-0.573,1.695-0.573,1.695
	s-0.225,0.13-0.646-0.245C57.984,19.658,57.986,19.329,57.986,19.329z"/>
<linearGradient id="SVGID_42_" gradientUnits="userSpaceOnUse" x1="-2247.3503" y1="2591.4551" x2="-2245.3906" y2="2591.4551" gradientTransform="matrix(0.2516 -0.9678 0.9678 0.2516 -1924.1763 -2811.6792)">
	<stop  offset="0.0597" style="stop-color:#FFFFFF"/>
	<stop  offset="0.1427" style="stop-color:#EDEFED"/>
	<stop  offset="0.3071" style="stop-color:#D8DDD9"/>
	<stop  offset="0.4883" style="stop-color:#CAD1CB"/>
	<stop  offset="0.6978" style="stop-color:#C2CAC4"/>
	<stop  offset="1" style="stop-color:#BFC8C2"/>
</linearGradient>
<path fill="url(#SVGID_42_)" d="M21.224,15.479c0,0-1.984-0.173-2.702-0.151c-0.694,0.021-2.612-0.679-2.612-0.679
	s-0.411-0.211-0.286-0.689c0.15-0.577,0.454-0.445,0.454-0.445s1.922,0.631,2.629,0.65c0.746,0.02,2.855,0.018,2.855,0.018
	s0.381,0.183,0.239,0.729C21.68,15.373,21.224,15.479,21.224,15.479z"/>
<linearGradient id="SVGID_43_" gradientUnits="userSpaceOnUse" x1="99.3727" y1="-758.7104" x2="101.3324" y2="-758.7104" gradientTransform="matrix(0.9722 0.2342 -0.1407 0.5842 -156.7688 430.5528)">
	<stop  offset="0.0597" style="stop-color:#FFFFFF"/>
	<stop  offset="0.1427" style="stop-color:#EDEFED"/>
	<stop  offset="0.3071" style="stop-color:#D8DDD9"/>
	<stop  offset="0.4883" style="stop-color:#CAD1CB"/>
	<stop  offset="0.6978" style="stop-color:#C2CAC4"/>
	<stop  offset="1" style="stop-color:#BFC8C2"/>
</linearGradient>
<path fill="url(#SVGID_43_)" d="M46.829,12.325c0,0-0.046-1.225-0.145-1.675c-0.096-0.435,0.38-1.577,0.38-1.577
	s0.161-0.24,0.642-0.124c0.58,0.14,0.483,0.319,0.483,0.319s-0.407,1.15-0.349,1.589c0.061,0.464,0.292,1.781,0.292,1.781
	s-0.137,0.223-0.685,0.091C46.982,12.618,46.829,12.325,46.829,12.325z"/>
<linearGradient id="SVGID_44_" gradientUnits="userSpaceOnUse" x1="40.9359" y1="-593.968" x2="42.8956" y2="-593.968" gradientTransform="matrix(0.9741 0.226 -0.226 0.9741 -148.8824 572.2454)">
	<stop  offset="0.0597" style="stop-color:#FFFFFF"/>
	<stop  offset="0.1427" style="stop-color:#EDEFED"/>
	<stop  offset="0.3071" style="stop-color:#D8DDD9"/>
	<stop  offset="0.4883" style="stop-color:#CAD1CB"/>
	<stop  offset="0.6978" style="stop-color:#C2CAC4"/>
	<stop  offset="1" style="stop-color:#BFC8C2"/>
</linearGradient>
<path fill="url(#SVGID_44_)" d="M25.216,5.658c0,0,0.12-1.988,0.08-2.705c-0.039-0.693,0.61-2.629,0.61-2.629s0.2-0.416,0.681-0.304
	c0.581,0.135,0.457,0.442,0.457,0.442s-0.58,1.938-0.58,2.645c0,0.746,0.057,2.854,0.057,2.854s-0.172,0.386-0.722,0.258
	C25.334,6.111,25.216,5.658,25.216,5.658z"/>
<linearGradient id="SVGID_45_" gradientUnits="userSpaceOnUse" x1="-40.8829" y1="-1150.8003" x2="-38.9232" y2="-1150.8003" gradientTransform="matrix(0.9142 0.4052 -0.3997 0.9018 -362.2086 1057.4792)">
	<stop  offset="0.0597" style="stop-color:#FFFFFF"/>
	<stop  offset="0.1427" style="stop-color:#EDEFED"/>
	<stop  offset="0.3071" style="stop-color:#D8DDD9"/>
	<stop  offset="0.4883" style="stop-color:#CAD1CB"/>
	<stop  offset="0.6978" style="stop-color:#C2CAC4"/>
	<stop  offset="1" style="stop-color:#BFC8C2"/>
</linearGradient>
<path fill="url(#SVGID_45_)" d="M59.878,5.855c0,0,0.481-1.905,0.573-2.609c0.088-0.68,1.079-2.434,1.079-2.434
	s0.272-0.365,0.724-0.165c0.545,0.242,0.367,0.516,0.367,0.516s-0.923,1.769-1.052,2.455c-0.137,0.723-0.465,2.78-0.465,2.78
	s-0.24,0.341-0.756,0.113C59.911,6.317,59.878,5.855,59.878,5.855z"/>
</svg>
