<?xml version="1.0" encoding="utf-8"?>
<!-- Generator: Adobe Illustrator 17.0.0, SVG Export Plug-In . SVG Version: 6.00 Build 0)  -->
<!DOCTYPE svg PUBLIC "-//W3C//DTD SVG 1.1//EN" "http://www.w3.org/Graphics/SVG/1.1/DTD/svg11.dtd">
<svg version="1.1" id="Layer_1" xmlns="http://www.w3.org/2000/svg" xmlns:xlink="http://www.w3.org/1999/xlink" x="0px" y="0px"
	 width="18.24px" height="32.344px" viewBox="0 0 18.24 32.344" enable-background="new 0 0 18.24 32.344" xml:space="preserve">
<path fill="#DFAD8D" d="M0,0l15.125,16.585c0,0-3.087,6.222-4.926,7.512c-1.878,1.318-8.929,2.121-8.929,2.121L0,0z"/>
<path fill="#CC9E7F" d="M4.726,20.651c0,1.024-0.83,1.853-1.853,1.853l0,0c-1.024,0-1.853-0.83-1.853-1.853v-0.869
	c0-1.024,0.83-1.853,1.853-1.853l0,0c1.024,0,1.853,0.83,1.853,1.853V20.651z"/>
<path fill="#CC9E7F" d="M7.563,19.758c0,0.783-0.635,1.419-1.419,1.419l0,0c-0.783,0-1.419-0.635-1.419-1.419v-1.144
	c0-0.783,0.635-1.419,1.419-1.419l0,0c0.783,0,1.419,0.635,1.419,1.419V19.758z"/>
<path fill="#CC9E7F" d="M10.367,17.72c0,0.644-0.628,1.167-1.402,1.167l0,0c-0.774,0-1.402-0.522-1.402-1.167v-1.721
	c0-0.644,0.628-1.167,1.402-1.167l0,0c0.774,0,1.402,0.522,1.402,1.167V17.72z"/>
<path fill="#CC9E7F" d="M13.296,16.304c0,0.695-0.707,1.258-1.579,1.258l0,0c-0.872,0-1.579-0.563-1.579-1.258v-1.373
	c0-0.695,0.707-1.258,1.579-1.258l0,0c0.872,0,1.579,0.563,1.579,1.258V16.304z"/>
<path fill="#CC9E7F" d="M4.68,16.235c0,1.024-0.83,1.853-1.853,1.853l0,0c-1.024,0-1.853-0.83-1.853-1.853v-0.869
	c0-1.024,0.83-1.853,1.853-1.853l0,0c1.024,0,1.853,0.83,1.853,1.853V16.235z"/>
<path fill="#CC9E7F" d="M7.517,15.343c0,0.783-0.635,1.419-1.419,1.419l0,0c-0.783,0-1.419-0.635-1.419-1.419v-1.144
	c0-0.783,0.635-1.419,1.419-1.419l0,0c0.783,0,1.419,0.635,1.419,1.419V15.343z"/>
<path fill="#CC9E7F" d="M10.047,13.579c0,0.644-0.628,1.167-1.402,1.167l0,0c-0.774,0-1.402-0.522-1.402-1.167v-1.721
	c0-0.644,0.628-1.167,1.402-1.167l0,0c0.774,0,1.402,0.522,1.402,1.167V13.579z"/>
<path fill="#CC9E7F" d="M4.954,11.354c0,1.024-0.83,1.853-1.853,1.853l0,0c-1.024,0-1.853-0.83-1.853-1.853v-0.869
	c0-1.024,0.83-1.853,1.853-1.853l0,0c1.024,0,1.853,0.83,1.853,1.853V11.354z"/>
<path fill="#CC9E7F" d="M7.791,10.462c0,0.783-0.635,1.419-1.419,1.419l0,0c-0.783,0-1.419-0.635-1.419-1.419V9.318
	c0-0.783,0.635-1.419,1.419-1.419l0,0c0.783,0,1.419,0.635,1.419,1.419V10.462z"/>
<path fill="#CC9E7F" d="M4.726,7.306c0,0.695-0.707,1.258-1.579,1.258l0,0c-0.872,0-1.579-0.563-1.579-1.258V5.934
	c0-0.695,0.707-1.258,1.579-1.258l0,0c0.872,0,1.579,0.563,1.579,1.258V7.306z"/>
<path fill="#CC9E7F" d="M1.248,25.364c0,0,0.365-0.572,0.562-0.664c0.384-0.178,1.274,0.062,1.693,0
	c0.741-0.11,2.169-0.604,2.869-0.869c0.667-0.253,1.998-0.796,2.592-1.19c0.693-0.459,1.917-1.608,2.455-2.242
	c0.887-1.046,2.99-4.599,2.99-4.599l0.716,0.785c0,0-3.087,6.222-4.926,7.512c-1.878,1.318-8.929,2.121-8.929,2.121L1.248,25.364z"
	/>
<path fill="#341811" d="M1.27,26.218c-0.367,0.205-0.994,0.902-1.039,1.32C0.2,27.832,0.5,28.445,0.751,28.602
	c0.305,0.19,1.083,0.06,1.437,0c0.484-0.083,1.375-0.763,1.853-0.652c0.317,0.073,0.79,0.626,0.913,0.927
	c0.146,0.357-0.041,1.16,0,1.544c0.041,0.384,0.057,1.229,0.322,1.51c0.244,0.259,1.042,0.509,1.373,0.378
	c0.41-0.163,0.841-1.075,0.913-1.51c0.14-0.842-0.077-2.644,0.322-3.398c0.164-0.309,0.731-0.868,1.08-0.892
	c0.41-0.029,1.009,0.74,1.402,0.858c0.244,0.073,0.765,0.065,1.018,0.034c0.434-0.053,1.348-0.198,1.682-0.48
	c0.427-0.362,0.927-1.466,0.961-2.025c0.016-0.271-0.36-0.759-0.343-1.03c0.024-0.377,0.333-1.16,0.652-1.361
	c0.312-0.197,1.128-0.123,1.476,0c0.51,0.181,1.141,1.375,1.682,1.361c0.219-0.005,0.563-0.384,0.652-0.583
	c0.193-0.431,0.034-1.417,0-1.888c-0.06-0.833-0.409-2.474-0.48-3.306c-0.026-0.306,0.11-0.958-0.034-1.229
	c-0.213-0.401-1.025-1.004-1.476-1.059c-0.275-0.034-0.875,0.182-1.031,0.412c-0.052,0.077,0.021,0.282,0,0.373
	c-0.513,2.186-3.469,4.784-4.987,6.926C8.812,25.383,3.274,25.1,1.27,26.218z"/>
</svg>
