<?xml version="1.0" encoding="utf-8"?>
<!-- Generator: Adobe Illustrator 17.0.0, SVG Export Plug-In . SVG Version: 6.00 Build 0)  -->
<!DOCTYPE svg PUBLIC "-//W3C//DTD SVG 1.1//EN" "http://www.w3.org/Graphics/SVG/1.1/DTD/svg11.dtd">
<svg version="1.1" id="Layer_1" xmlns="http://www.w3.org/2000/svg" xmlns:xlink="http://www.w3.org/1999/xlink" x="0px" y="0px"
	 width="79.116px" height="17.221px" viewBox="0 0 79.116 17.221" enable-background="new 0 0 79.116 17.221" xml:space="preserve">
<path fill="#AEADAE" d="M0.086,17.222c0,0,17.985-4.936,37.502-4.785c24.484,0.19,41.18,4.215,41.18,4.215s1.052-4.321-0.71-8.872
	c-2.222-5.74-4.609-7.147-4.609-7.147H5.405c0,0-3.393,3.759-4.275,6.314C-0.445,11.508,0.086,17.222,0.086,17.222z"/>
<path fill="#EBE6E5" d="M0.122,16.589c0,0,17.985-4.936,37.502-4.785c24.484,0.19,41.18,4.215,41.18,4.215s1.052-4.321-0.71-8.872
	C75.873,1.407,73.486,0,73.486,0H5.441c0,0-3.393,3.759-4.275,6.314C-0.41,10.876,0.122,16.589,0.122,16.589z"/>
<path fill="#A7DDE3" d="M0.036,13.257c0,0,28.535-4.879,38.143-4.962c10.179-0.088,40.931,4.998,40.931,4.998l-0.115-2.978
	c0,0-30.544-4.828-40.598-4.649c-9.699,0.172-38.249,5.84-38.249,5.84L0.036,13.257z"/>
<path fill="#EB9971" d="M0.618,8.295c0,0,28.195-3.869,37.803-3.93C48.6,4.3,78.36,7.894,78.36,7.894l-0.893-2.251
	C49.655,2.419,49.805,2.293,38.64,2.438C28.94,2.565,1.166,6.314,1.166,6.314L0.618,8.295z"/>
</svg>
