<?xml version="1.0" encoding="utf-8"?>
<!-- Generator: Adobe Illustrator 17.0.0, SVG Export Plug-In . SVG Version: 6.00 Build 0)  -->
<!DOCTYPE svg PUBLIC "-//W3C//DTD SVG 1.1//EN" "http://www.w3.org/Graphics/SVG/1.1/DTD/svg11.dtd">
<svg version="1.1" id="Layer_1" xmlns="http://www.w3.org/2000/svg" xmlns:xlink="http://www.w3.org/1999/xlink" x="0px" y="0px"
	 width="20.899px" height="15.759px" viewBox="0 0 20.899 15.759" enable-background="new 0 0 20.899 15.759" xml:space="preserve">
<path fill="#D4B22A" d="M2.631,13.567L0,7.655l3.027,1.57L2.204,3.06l4.008,4.453l1.079-6.776l3.531,5.687L13.716,0l0.907,4.958
	l2.851-3.788l0.693,5.01l2.733-2.036l-1.533,7.286c0,0-7.854-0.797-9.879-0.461C6.903,11.397,2.631,13.567,2.631,13.567z"/>
<linearGradient id="SVGID_1_" gradientUnits="userSpaceOnUse" x1="3.479801e-06" y1="7.8796" x2="20.8986" y2="7.8796">
	<stop  offset="0" style="stop-color:#B5C174"/>
	<stop  offset="0.7606" style="stop-color:#C8931C"/>
	<stop  offset="1" style="stop-color:#BD9523"/>
</linearGradient>
<path fill="url(#SVGID_1_)" d="M3.607,15.759L0,7.655l2.163,2.628L0.439,4.737l3.439,3.581L3.722,2.094l3.96,4.343l2.332-6.417
	l3.751,5.174L16.442,0l1.125,6.153l2.379-4.954l-0.441,5.758l1.393-2.93l-1.913,9.236c0,0-5.279-0.068-7.792,0.349
	C7.987,14.144,3.607,15.759,3.607,15.759z"/>
</svg>
