<?xml version="1.0" encoding="utf-8"?>
<!-- Generator: Adobe Illustrator 17.0.0, SVG Export Plug-In . SVG Version: 6.00 Build 0)  -->
<!DOCTYPE svg PUBLIC "-//W3C//DTD SVG 1.1//EN" "http://www.w3.org/Graphics/SVG/1.1/DTD/svg11.dtd">
<svg version="1.1" id="Layer_1" xmlns="http://www.w3.org/2000/svg" xmlns:xlink="http://www.w3.org/1999/xlink" x="0px" y="0px"
	 width="19.737px" height="29.787px" viewBox="0 0 19.737 29.787" enable-background="new 0 0 19.737 29.787" xml:space="preserve">
<linearGradient id="SVGID_1_" gradientUnits="userSpaceOnUse" x1="0.2516" y1="14.5061" x2="19.3582" y2="14.5061">
	<stop  offset="0" style="stop-color:#7FC1C9"/>
	<stop  offset="0.0749" style="stop-color:#8CB0B2"/>
	<stop  offset="0.1962" style="stop-color:#999895"/>
	<stop  offset="0.3213" style="stop-color:#A2827E"/>
	<stop  offset="0.4482" style="stop-color:#A8716E"/>
	<stop  offset="0.5774" style="stop-color:#AD6362"/>
	<stop  offset="0.71" style="stop-color:#B0575A"/>
	<stop  offset="0.848" style="stop-color:#B24F56"/>
	<stop  offset="1" style="stop-color:#B24C54"/>
</linearGradient>
<path fill="url(#SVGID_1_)" d="M9.116,0L0.252,25.844c0,0,3.179,2.382,4.432,2.738c2.392,0.679,7.503,0.458,9.947,0
	c1.246-0.234,4.727-2.921,4.727-2.921L9.116,0z"/>
<linearGradient id="SVGID_2_" gradientUnits="userSpaceOnUse" x1="2848.168" y1="-1319.903" x2="2849.4575" y2="-1319.903" gradientTransform="matrix(0.7066 -0.0324 0.0291 0.6358 -1968.66 944.5506)">
	<stop  offset="0" style="stop-color:#191E17"/>
	<stop  offset="0.6466" style="stop-color:#1B2120"/>
	<stop  offset="0.9955" style="stop-color:#122630"/>
</linearGradient>
<path fill="url(#SVGID_2_)" d="M5.682,12.45c0,0-0.367,0.527-0.336,0.885c0.013,0.145,0.123,0.408,0.477,0.392
	c0.508-0.024,0.459-0.448,0.396-0.615C6.098,12.788,5.682,12.45,5.682,12.45z"/>
<linearGradient id="SVGID_3_" gradientUnits="userSpaceOnUse" x1="2208.1296" y1="-2707.5303" x2="2209.4192" y2="-2707.5303" gradientTransform="matrix(0.7043 0.0657 -0.0591 0.6338 -1704.7891 1577.7775)">
	<stop  offset="0" style="stop-color:#191E17"/>
	<stop  offset="0.6466" style="stop-color:#1B2120"/>
	<stop  offset="0.9955" style="stop-color:#122630"/>
</linearGradient>
<path fill="url(#SVGID_3_)" d="M10.712,6.239c0,0-0.437,0.472-0.455,0.83c-0.007,0.146,0.065,0.421,0.418,0.454
	c0.507,0.046,0.517-0.38,0.478-0.554C11.078,6.631,10.712,6.239,10.712,6.239z"/>
<linearGradient id="SVGID_4_" gradientUnits="userSpaceOnUse" x1="2211.2593" y1="-2701.1482" x2="2212.5488" y2="-2701.1482" gradientTransform="matrix(0.7043 0.0657 -0.0591 0.6338 -1704.7891 1577.7775)">
	<stop  offset="0" style="stop-color:#191E17"/>
	<stop  offset="0.6466" style="stop-color:#1B2120"/>
	<stop  offset="0.9955" style="stop-color:#122630"/>
</linearGradient>
<path fill="url(#SVGID_4_)" d="M12.539,10.489c0,0-0.437,0.472-0.455,0.83c-0.007,0.146,0.065,0.421,0.418,0.454
	c0.507,0.046,0.517-0.38,0.478-0.554C12.905,10.881,12.539,10.489,12.539,10.489z"/>
<linearGradient id="SVGID_5_" gradientUnits="userSpaceOnUse" x1="2212.4431" y1="-2694.7407" x2="2213.7327" y2="-2694.7407" gradientTransform="matrix(0.7043 0.0657 -0.0591 0.6338 -1704.7891 1577.7775)">
	<stop  offset="0" style="stop-color:#191E17"/>
	<stop  offset="0.6466" style="stop-color:#1B2120"/>
	<stop  offset="0.9955" style="stop-color:#122630"/>
</linearGradient>
<path fill="url(#SVGID_5_)" d="M12.995,14.628c0,0-0.437,0.472-0.455,0.83c-0.007,0.146,0.065,0.421,0.418,0.454
	c0.507,0.046,0.517-0.38,0.478-0.554C13.36,15.02,12.995,14.628,12.995,14.628z"/>
<linearGradient id="SVGID_6_" gradientUnits="userSpaceOnUse" x1="2207.6624" y1="-2697.6892" x2="2208.9521" y2="-2697.6892" gradientTransform="matrix(0.7043 0.0657 -0.0591 0.6338 -1704.7891 1577.7775)">
	<stop  offset="0" style="stop-color:#191E17"/>
	<stop  offset="0.6466" style="stop-color:#1B2120"/>
	<stop  offset="0.9955" style="stop-color:#122630"/>
</linearGradient>
<path fill="url(#SVGID_6_)" d="M9.802,12.445c0,0-0.437,0.472-0.455,0.83c-0.007,0.146,0.065,0.421,0.418,0.454
	c0.507,0.046,0.517-0.38,0.478-0.554C10.167,12.837,9.802,12.445,9.802,12.445z"/>
<linearGradient id="SVGID_7_" gradientUnits="userSpaceOnUse" x1="2212.906" y1="-2681.5186" x2="2214.1956" y2="-2681.5186" gradientTransform="matrix(0.7043 0.0657 -0.0591 0.6338 -1704.7891 1577.7775)">
	<stop  offset="0" style="stop-color:#191E17"/>
	<stop  offset="0.6466" style="stop-color:#1B2120"/>
	<stop  offset="0.9955" style="stop-color:#122630"/>
</linearGradient>
<path fill="url(#SVGID_7_)" d="M12.539,23.038c0,0-0.437,0.472-0.455,0.83c-0.007,0.146,0.065,0.421,0.418,0.454
	c0.507,0.046,0.517-0.38,0.478-0.554C12.905,23.43,12.539,23.038,12.539,23.038z"/>
<linearGradient id="SVGID_8_" gradientUnits="userSpaceOnUse" x1="3185.6616" y1="-330.5689" x2="3186.9514" y2="-330.5689" gradientTransform="matrix(0.7005 -0.0981 0.0883 0.6303 -2196.5183 539.7386)">
	<stop  offset="0" style="stop-color:#191E17"/>
	<stop  offset="0.6466" style="stop-color:#1B2120"/>
	<stop  offset="0.9955" style="stop-color:#122630"/>
</linearGradient>
<path fill="url(#SVGID_8_)" d="M6.059,18.082c0,0-0.317,0.559-0.251,0.913c0.026,0.144,0.16,0.395,0.511,0.345
	c0.504-0.072,0.416-0.489,0.337-0.65C6.505,18.379,6.059,18.082,6.059,18.082z"/>
<linearGradient id="SVGID_9_" gradientUnits="userSpaceOnUse" x1="3698.5076" y1="2993.291" x2="3699.7971" y2="2993.291" gradientTransform="matrix(0.6398 -0.3016 0.2714 0.5757 -3170.7534 -586.224)">
	<stop  offset="0" style="stop-color:#191E17"/>
	<stop  offset="0.6466" style="stop-color:#1B2120"/>
	<stop  offset="0.9955" style="stop-color:#122630"/>
</linearGradient>
<path fill="url(#SVGID_9_)" d="M8.01,20.782c0,0-0.136,0.628,0.031,0.946c0.068,0.129,0.27,0.33,0.591,0.178
	c0.46-0.218,0.252-0.59,0.129-0.72C8.524,20.934,8.01,20.782,8.01,20.782z"/>
<linearGradient id="SVGID_10_" gradientUnits="userSpaceOnUse" x1="3200.333" y1="6602.8643" x2="3201.6228" y2="6602.8643" gradientTransform="matrix(0.5056 -0.4946 0.4451 0.455 -4553.6284 -1398.6917)">
	<stop  offset="0" style="stop-color:#191E17"/>
	<stop  offset="0.6466" style="stop-color:#1B2120"/>
	<stop  offset="0.9955" style="stop-color:#122630"/>
</linearGradient>
<path fill="url(#SVGID_10_)" d="M3.304,21.789c0,0,0.077,0.638,0.339,0.884c0.106,0.1,0.364,0.223,0.616-0.025
	c0.363-0.356,0.044-0.64-0.114-0.723C3.839,21.764,3.304,21.789,3.304,21.789z"/>
<linearGradient id="SVGID_11_" gradientUnits="userSpaceOnUse" x1="2217.1538" y1="-2686.8687" x2="2218.4434" y2="-2686.8687" gradientTransform="matrix(0.7043 0.0657 -0.0591 0.6338 -1704.7891 1577.7775)">
	<stop  offset="0" style="stop-color:#191E17"/>
	<stop  offset="0.6466" style="stop-color:#1B2120"/>
	<stop  offset="0.9955" style="stop-color:#122630"/>
</linearGradient>
<path fill="url(#SVGID_11_)" d="M15.847,19.926c0,0-0.437,0.472-0.455,0.83c-0.007,0.146,0.065,0.421,0.418,0.454
	c0.507,0.046,0.517-0.38,0.478-0.554C16.212,20.318,15.847,19.926,15.847,19.926z"/>
<linearGradient id="SVGID_12_" gradientUnits="userSpaceOnUse" x1="2205.792" y1="-2712.2803" x2="2207.0815" y2="-2712.2803" gradientTransform="matrix(0.7043 0.0657 -0.0591 0.6338 -1704.7891 1577.7775)">
	<stop  offset="0" style="stop-color:#191E17"/>
	<stop  offset="0.6466" style="stop-color:#1B2120"/>
	<stop  offset="0.9955" style="stop-color:#122630"/>
</linearGradient>
<path fill="url(#SVGID_12_)" d="M9.347,3.075c0,0-0.437,0.472-0.455,0.83C8.885,4.051,8.957,4.327,9.31,4.359
	c0.507,0.046,0.517-0.38,0.478-0.554C9.712,3.467,9.347,3.075,9.347,3.075z"/>
<linearGradient id="SVGID_13_" gradientUnits="userSpaceOnUse" x1="2205.2397" y1="-2703.4529" x2="2206.5295" y2="-2703.4529" gradientTransform="matrix(0.7043 0.0657 -0.0591 0.6338 -1704.7891 1577.7775)">
	<stop  offset="0" style="stop-color:#191E17"/>
	<stop  offset="0.6466" style="stop-color:#1B2120"/>
	<stop  offset="0.9955" style="stop-color:#122630"/>
</linearGradient>
<path fill="url(#SVGID_13_)" d="M8.436,8.633c0,0-0.437,0.472-0.455,0.83C7.974,9.609,8.047,9.885,8.4,9.917
	c0.507,0.046,0.517-0.38,0.478-0.554C8.802,9.026,8.436,8.633,8.436,8.633z"/>
<linearGradient id="SVGID_14_" gradientUnits="userSpaceOnUse" x1="2207.1304" y1="-2692.606" x2="2208.4199" y2="-2692.606" gradientTransform="matrix(0.7043 0.0657 -0.0591 0.6338 -1704.7891 1577.7775)">
	<stop  offset="0" style="stop-color:#191E17"/>
	<stop  offset="0.6466" style="stop-color:#1B2120"/>
	<stop  offset="0.9955" style="stop-color:#122630"/>
</linearGradient>
<path fill="url(#SVGID_14_)" d="M9.127,15.632c0,0-0.437,0.472-0.455,0.83c-0.007,0.146,0.065,0.421,0.418,0.454
	c0.507,0.046,0.517-0.38,0.478-0.554C9.492,16.024,9.127,15.632,9.127,15.632z"/>
<linearGradient id="SVGID_15_" gradientUnits="userSpaceOnUse" x1="2211.6963" y1="-2688.2336" x2="2212.9858" y2="-2688.2336" gradientTransform="matrix(0.7043 0.0657 -0.0591 0.6338 -1704.7891 1577.7775)">
	<stop  offset="0" style="stop-color:#191E17"/>
	<stop  offset="0.6466" style="stop-color:#1B2120"/>
	<stop  offset="0.9955" style="stop-color:#122630"/>
</linearGradient>
<path fill="url(#SVGID_15_)" d="M12.084,18.702c0,0-0.437,0.472-0.455,0.83c-0.007,0.146,0.065,0.421,0.418,0.454
	c0.507,0.046,0.517-0.38,0.478-0.554C12.449,19.095,12.084,18.702,12.084,18.702z"/>
<linearGradient id="SVGID_16_" gradientUnits="userSpaceOnUse" x1="0.2516" y1="26.6685" x2="19.3582" y2="26.6685">
	<stop  offset="0" style="stop-color:#7FC1C9"/>
	<stop  offset="0.072" style="stop-color:#91C9CF"/>
	<stop  offset="0.2441" style="stop-color:#B5D9DD"/>
	<stop  offset="0.421" style="stop-color:#D2E7E9"/>
	<stop  offset="0.6026" style="stop-color:#E7F2F2"/>
	<stop  offset="0.7916" style="stop-color:#F6FAFA"/>
	<stop  offset="1" style="stop-color:#FDFDFE"/>
</linearGradient>
<path fill="url(#SVGID_16_)" d="M5.801,26.303c-2.517-0.64-5.029-1.978-5.029-1.978l-0.521,1.519c0,0,3.324,2.382,4.577,2.737
	c2.392,0.679,7.503,0.458,9.947,0c1.246-0.234,4.583-2.921,4.583-2.921l-0.533-1.335c0,0-2.459,1.335-5.002,1.978
	C12.227,26.706,7.439,26.719,5.801,26.303z"/>
<linearGradient id="SVGID_17_" gradientUnits="userSpaceOnUse" x1="-1.844270e-06" y1="27.4218" x2="19.7369" y2="27.4218">
	<stop  offset="0" style="stop-color:#009271"/>
	<stop  offset="0.0379" style="stop-color:#00906F"/>
	<stop  offset="0.2622" style="stop-color:#008966"/>
	<stop  offset="0.4936" style="stop-color:#008560"/>
	<stop  offset="0.7345" style="stop-color:#00825C"/>
	<stop  offset="1" style="stop-color:#0C815B"/>
</linearGradient>
<path fill="url(#SVGID_17_)" d="M4.868,27.082c-0.902-0.199-4.346-2.025-4.346-2.025L0,26.467c0,0,2.716,2.17,4.681,2.751
	c2.385,0.705,7.596,0.811,9.947,0c2.485-0.858,5.109-2.921,5.109-2.921l-0.62-1.24c0,0-3.309,1.714-5.128,2.153
	C12.168,27.65,7.302,27.62,4.868,27.082z"/>
</svg>
