<?xml version="1.0" encoding="utf-8"?>
<!-- Generator: Adobe Illustrator 17.0.0, SVG Export Plug-In . SVG Version: 6.00 Build 0)  -->
<!DOCTYPE svg PUBLIC "-//W3C//DTD SVG 1.1//EN" "http://www.w3.org/Graphics/SVG/1.1/DTD/svg11.dtd">
<svg version="1.1" id="Layer_1" xmlns="http://www.w3.org/2000/svg" xmlns:xlink="http://www.w3.org/1999/xlink" x="0px" y="0px"
	 width="34.5px" height="27.942px" viewBox="0 0 34.5 27.942" enable-background="new 0 0 34.5 27.942" xml:space="preserve">
<linearGradient id="SVGID_1_" gradientUnits="userSpaceOnUse" x1="0.6881" y1="3.4751" x2="13.9391" y2="26.4265">
	<stop  offset="0" style="stop-color:#5D3D1F"/>
	<stop  offset="0.0067" style="stop-color:#624122"/>
	<stop  offset="0.0662" style="stop-color:#855E3E"/>
	<stop  offset="0.1256" style="stop-color:#A37654"/>
	<stop  offset="0.184" style="stop-color:#BB8A66"/>
	<stop  offset="0.2411" style="stop-color:#CD9974"/>
	<stop  offset="0.2963" style="stop-color:#D8A17C"/>
	<stop  offset="0.3475" style="stop-color:#DBA47F"/>
	<stop  offset="0.4106" style="stop-color:#DF886F"/>
	<stop  offset="0.4781" style="stop-color:#E36D62"/>
	<stop  offset="0.5431" style="stop-color:#E65259"/>
	<stop  offset="0.6038" style="stop-color:#E93952"/>
	<stop  offset="0.6588" style="stop-color:#EC224F"/>
	<stop  offset="0.7027" style="stop-color:#ED174E"/>
	<stop  offset="0.7704" style="stop-color:#CD0B4F"/>
	<stop  offset="0.8412" style="stop-color:#B3004E"/>
	<stop  offset="0.8795" style="stop-color:#A9004D"/>
</linearGradient>
<path fill="url(#SVGID_1_)" d="M8.537,21.316c-0.662-1.54-1.386-4.876-2.228-6.326c-0.531-0.914-2.259-2.269-2.767-3.196
	c-0.45-0.822-0.601-2.781-1.065-3.596C2.072,7.487,0.548,6.562,0.249,5.801c-0.183-0.465-0.454-2.206,0-1.998
	C4.427,5.718,6.908,7.446,8.537,9.33c0.882,1.02,2.102,3.402,2.951,4.45c0.401,0.495,1.198,1.43,1.577,1.943
	c0.939,1.271,1.307,4.354,2.197,5.926c0.355,0.627-1.669,1.504-1.865,2.197c-0.179,0.632,0.793,2.071,0.4,2.597
	c-0.372,0.498-3.831,1.8-4.334,1.436C9.09,27.609,9.143,22.725,8.537,21.316z"/>
<linearGradient id="SVGID_2_" gradientUnits="userSpaceOnUse" x1="27.7684" y1="2.1752" x2="27.7684" y2="27.1507">
	<stop  offset="0" style="stop-color:#5D3D1F"/>
	<stop  offset="0.0067" style="stop-color:#624122"/>
	<stop  offset="0.0662" style="stop-color:#855E3E"/>
	<stop  offset="0.1256" style="stop-color:#A37654"/>
	<stop  offset="0.184" style="stop-color:#BB8A66"/>
	<stop  offset="0.2411" style="stop-color:#CD9974"/>
	<stop  offset="0.2963" style="stop-color:#D8A17C"/>
	<stop  offset="0.3475" style="stop-color:#DBA47F"/>
	<stop  offset="0.4106" style="stop-color:#DF886F"/>
	<stop  offset="0.4781" style="stop-color:#E36D62"/>
	<stop  offset="0.5431" style="stop-color:#E65259"/>
	<stop  offset="0.6038" style="stop-color:#E93952"/>
	<stop  offset="0.6588" style="stop-color:#EC224F"/>
	<stop  offset="0.7027" style="stop-color:#ED174E"/>
	<stop  offset="0.7704" style="stop-color:#CD0B4F"/>
	<stop  offset="0.8412" style="stop-color:#B3004E"/>
	<stop  offset="0.8795" style="stop-color:#A9004D"/>
</linearGradient>
<path fill="url(#SVGID_2_)" d="M34.374,2.205c0.405,0.116-0.291,1.448-0.348,1.866c-0.117,0.855-0.62,1.847-1.05,2.596
	c-0.572,0.994-1.328,3.198-1.998,4.129c-0.571,0.793-2.797,2.729-2.797,2.729s-2.081,4.352-2.197,5.928
	c-0.071,0.967,0.5,6.793,1.036,7.601c0.291,0.438-4.894-0.66-5.076-1.828c-0.185-1.191-1.043-4.311-0.888-5.506
	c0.103-0.802,2.006-2.211,1.415-2.763c-0.744-0.694-1.019-1.587-0.949-2.231c0.043-0.399,0.671-1.125,1.065-1.2
	c0.183-0.035,0.49,0.397,0.666,0.335c1.222-0.433,1.313-3.722,2.131-4.728c1-1.23,3.875-2.757,5.127-3.729
	C31.502,4.633,33.169,1.86,34.374,2.205z"/>
<linearGradient id="SVGID_3_" gradientUnits="userSpaceOnUse" x1="21.9442" y1="0.257" x2="21.9442" y2="25.9833">
	<stop  offset="0.0281" style="stop-color:#5D3D1F"/>
	<stop  offset="0.0315" style="stop-color:#624122"/>
	<stop  offset="0.0614" style="stop-color:#855E3E"/>
	<stop  offset="0.0913" style="stop-color:#A37654"/>
	<stop  offset="0.1207" style="stop-color:#BB8A66"/>
	<stop  offset="0.1495" style="stop-color:#CD9974"/>
	<stop  offset="0.1772" style="stop-color:#D8A17C"/>
	<stop  offset="0.203" style="stop-color:#DBA47F"/>
	<stop  offset="0.2917" style="stop-color:#DF886F"/>
	<stop  offset="0.3868" style="stop-color:#E36D62"/>
	<stop  offset="0.4782" style="stop-color:#E65259"/>
	<stop  offset="0.5636" style="stop-color:#E93952"/>
	<stop  offset="0.6409" style="stop-color:#EC224F"/>
	<stop  offset="0.7027" style="stop-color:#ED174E"/>
	<stop  offset="0.8165" style="stop-color:#CD0B4F"/>
	<stop  offset="0.9356" style="stop-color:#B3004E"/>
	<stop  offset="1" style="stop-color:#A9004D"/>
</linearGradient>
<path fill="url(#SVGID_3_)" d="M26.383,0.34c-2.366-0.756-6.697,3.834-7.924,5.993c-0.521,0.916-1.081,3.009-1.132,4.062
	c-0.056,1.148,0.111,3.424,0.281,4.561c0.201,1.344-1.167,10.013-0.042,10.774c0.485,0.328,4.28,0.346,4.752,0
	c0.652-0.478,0.473-7.935,0.469-8.743c-0.003-0.506-1.076-1.193-1.102-1.698c-0.026-0.495,0.431-1.612,0.902-1.766
	c0.177-0.058,0.49,0.397,0.666,0.335c1.222-0.433,1.313-3.722,2.131-4.728c0.248-0.305,1.093-0.574,1.271-0.924
	c0.228-0.447,0.062-1.508,0-2.006c-0.076-0.613-0.728-1.791-0.605-2.397c0.05-0.246,0.011-0.613,0.09-0.851
	c0.143-0.426,0.583-1.302,0.515-1.746C26.621,0.982,26.599,0.409,26.383,0.34z"/>
<linearGradient id="SVGID_4_" gradientUnits="userSpaceOnUse" x1="13.2981" y1="-1.248083e-06" x2="13.2981" y2="26.5065">
	<stop  offset="0.0281" style="stop-color:#5D3D1F"/>
	<stop  offset="0.0315" style="stop-color:#624122"/>
	<stop  offset="0.0614" style="stop-color:#855E3E"/>
	<stop  offset="0.0913" style="stop-color:#A37654"/>
	<stop  offset="0.1207" style="stop-color:#BB8A66"/>
	<stop  offset="0.1495" style="stop-color:#CD9974"/>
	<stop  offset="0.1772" style="stop-color:#D8A17C"/>
	<stop  offset="0.203" style="stop-color:#DBA47F"/>
	<stop  offset="0.2917" style="stop-color:#DF886F"/>
	<stop  offset="0.3868" style="stop-color:#E36D62"/>
	<stop  offset="0.4782" style="stop-color:#E65259"/>
	<stop  offset="0.5636" style="stop-color:#E93952"/>
	<stop  offset="0.6409" style="stop-color:#EC224F"/>
	<stop  offset="0.7027" style="stop-color:#ED174E"/>
	<stop  offset="0.8165" style="stop-color:#CD0B4F"/>
	<stop  offset="0.9356" style="stop-color:#B3004E"/>
	<stop  offset="1" style="stop-color:#A9004D"/>
</linearGradient>
<path fill="url(#SVGID_4_)" d="M17.327,9.33c-0.283-1.163-0.989-3.523-1.731-4.461c-0.913-1.155-3.524-2.661-4.661-3.596
	c-0.274-0.225-0.761-0.753-1.066-0.932c-0.213-0.125-0.69-0.387-0.932-0.333C8.684,0.064,8.269,0.489,8.204,0.74
	C8.143,0.974,8.462,1.43,8.47,1.672c0.028,0.851-0.625,2.483-0.715,3.329c-0.072,0.679,0,2.048,0,2.73c0,0.269-0.127,0.84,0,1.077
	C7.866,9.016,8.377,9.158,8.537,9.33c0.963,1.032,1.902,3.813,2.8,4.903c0.363,0.44,1.403,1.021,1.728,1.49
	c0.902,1.298-0.565,9.818,0.732,10.721c0.424,0.295,3.81-0.527,4.291-0.713c0.462-0.178,0.54-4.946,0.703-5.413
	c0.451-1.289-0.685-4.04-0.866-5.394C17.74,13.529,17.659,10.696,17.327,9.33z"/>
</svg>
