<?xml version="1.0" encoding="utf-8"?>
<!-- Generator: Adobe Illustrator 17.0.0, SVG Export Plug-In . SVG Version: 6.00 Build 0)  -->
<!DOCTYPE svg PUBLIC "-//W3C//DTD SVG 1.1//EN" "http://www.w3.org/Graphics/SVG/1.1/DTD/svg11.dtd">
<svg version="1.1" id="Layer_1" xmlns="http://www.w3.org/2000/svg" xmlns:xlink="http://www.w3.org/1999/xlink" x="0px" y="0px"
	 width="87.36px" height="36px" viewBox="0 0 87.36 36" enable-background="new 0 0 87.36 36" xml:space="preserve">
<g>
	
		<image overflow="visible" opacity="0.3" width="182" height="75" xlink:href="4009972D45B1366E.png"  transform="matrix(0.48 0 0 0.48 0 0)">
	</image>
	<g>
		<path fill="#DDB2D3" d="M80.913,19.901C80.466,15.897,73.739,6,62.727,6h-37.79C13.925,6,6,16.376,6,22.282
			c0,0,0.069,3.96,2.406,5.485c1.196,0.78,2.667,0.853,3.571-0.451c0.795-1.147,1.798-3.967,2.695-5.005
			c0.583-0.675,1.973-1.968,2.789-2.002c0.745-0.031,2.027,1.13,2.652,1.611c0.59,0.454,1.496,1.958,2.191,2.093
			c1.029,0.201,3.151-0.863,3.915-1.703c0.628-0.69,0.827-2.957,1.417-3.693c1.17-1.46,4.384-3.236,6.037-3.714
			c1.188-0.344,3.691-0.26,4.894,0c1.032,0.223,3.014,1.142,3.926,1.756c1.127,0.759,3.054,2.851,4.055,3.827
			c0.459,0.447,1.278,1.512,1.811,1.824c0.362,0.211,1.174,0.407,1.577,0.401c0.645-0.009,1.925-0.389,2.51-0.711
			c0.743-0.409,2.034-1.645,2.635-2.304c0.387-0.424,1.085-1.371,1.38-1.888c0.284-0.496,0.529-1.762,0.929-2.128
			c0.319-0.292,1.176-0.496,1.575-0.422c0.536,0.1,1.598,0.754,1.866,1.312c0.336,0.698,0,2.411,0,3.214
			c0,1.461-0.222,4.404,0,5.843c1.02,6.605,6.513,4.737,6.831,0.614c0.073-0.948-0.377-3.076-0.025-3.932
			c0.375-0.914,1.394-3.043,2.253-3.07c0.811-0.025,1.749,2.008,2.253,2.76c0.83,1.239,1.474,4.902,2.897,5.315
			C78.709,28.38,80.913,19.901,80.913,19.901z"/>
	</g>
</g>
<linearGradient id="SVGID_1_" gradientUnits="userSpaceOnUse" x1="35.642" y1="6.0411" x2="37.6017" y2="6.0411">
	<stop  offset="0.0597" style="stop-color:#005F2C"/>
	<stop  offset="0.1979" style="stop-color:#036330"/>
	<stop  offset="0.4073" style="stop-color:#0E6834"/>
	<stop  offset="0.6499" style="stop-color:#136A36"/>
	<stop  offset="1" style="stop-color:#156B36"/>
</linearGradient>
<path fill="url(#SVGID_1_)" d="M36.262,8.735c0,0-0.332-1.964-0.533-2.653c-0.195-0.666,0-2.699,0-2.699s0.101-0.451,0.595-0.451
	c0.596,0,0.545,0.327,0.545,0.327s-0.127,2.019,0.033,2.708c0.168,0.727,0.701,2.767,0.701,2.767S37.521,9.15,36.957,9.15
	C36.479,9.15,36.262,8.735,36.262,8.735z"/>
<linearGradient id="SVGID_2_" gradientUnits="userSpaceOnUse" x1="53.4198" y1="4.2541" x2="55.3795" y2="4.2541">
	<stop  offset="0.0597" style="stop-color:#FDB72A"/>
	<stop  offset="0.2492" style="stop-color:#F2B025"/>
	<stop  offset="0.5563" style="stop-color:#EAAB23"/>
	<stop  offset="1" style="stop-color:#E8A922"/>
</linearGradient>
<path fill="url(#SVGID_2_)" d="M54.04,6.948c0,0-0.332-1.964-0.533-2.653c-0.195-0.666,0-2.699,0-2.699s0.101-0.451,0.595-0.451
	c0.596,0,0.545,0.327,0.545,0.327s-0.127,2.019,0.033,2.708c0.168,0.727,0.701,2.767,0.701,2.767s-0.081,0.415-0.645,0.415
	C54.257,7.363,54.04,6.948,54.04,6.948z"/>
<linearGradient id="SVGID_3_" gradientUnits="userSpaceOnUse" x1="-462.722" y1="-1826.0079" x2="-460.7623" y2="-1826.0079" gradientTransform="matrix(0.7463 0.6656 -0.6656 0.7463 -798.2163 1677.1786)">
	<stop  offset="0.0597" style="stop-color:#FDB72A"/>
	<stop  offset="0.2492" style="stop-color:#F2B025"/>
	<stop  offset="0.5563" style="stop-color:#EAAB23"/>
	<stop  offset="1" style="stop-color:#E8A922"/>
</linearGradient>
<path fill="url(#SVGID_3_)" d="M70.491,8.838c0,0,1.059-1.687,1.368-2.335c0.298-0.627,1.796-2.014,1.796-2.014
	s0.375-0.269,0.744,0.06c0.445,0.397,0.189,0.607,0.189,0.607s-1.438,1.422-1.778,2.043c-0.358,0.654-1.319,2.532-1.319,2.532
	s-0.336,0.256-0.758-0.12C70.377,9.292,70.491,8.838,70.491,8.838z"/>
<linearGradient id="SVGID_4_" gradientUnits="userSpaceOnUse" x1="-1405.8674" y1="-4188.3789" x2="-1403.9077" y2="-4188.3789" gradientTransform="matrix(0.3654 0.9309 -0.5593 0.2196 -1749.7517 2246.6072)">
	<stop  offset="0.0597" style="stop-color:#0099A9"/>
	<stop  offset="0.1463" style="stop-color:#008FA9"/>
	<stop  offset="0.31" style="stop-color:#0081A8"/>
	<stop  offset="0.4905" style="stop-color:#0078A7"/>
	<stop  offset="0.6991" style="stop-color:#0072A6"/>
	<stop  offset="1" style="stop-color:#0071A7"/>
</linearGradient>
<path fill="url(#SVGID_4_)" d="M77.965,19.515c0,0,0.977-0.74,1.289-1.079c0.302-0.328,1.51-0.593,1.51-0.593
	s0.289-0.005,0.469,0.455c0.218,0.555,0.016,0.579,0.016,0.579s-1.176,0.325-1.503,0.625c-0.345,0.316-1.292,1.26-1.292,1.26
	s-0.262,0.016-0.468-0.509C77.812,19.809,77.965,19.515,77.965,19.515z"/>
<linearGradient id="SVGID_5_" gradientUnits="userSpaceOnUse" x1="-493.2899" y1="2923.8918" x2="-491.3302" y2="2923.8918" gradientTransform="matrix(0.8126 -0.5828 0.3502 0.4883 -601.1072 -1708.5471)">
	<stop  offset="0.0597" style="stop-color:#005F2C"/>
	<stop  offset="0.1979" style="stop-color:#036330"/>
	<stop  offset="0.4073" style="stop-color:#0E6834"/>
	<stop  offset="0.6499" style="stop-color:#136A36"/>
	<stop  offset="1" style="stop-color:#156B36"/>
</linearGradient>
<path fill="url(#SVGID_5_)" d="M23.468,7.576c0,0-0.958-0.765-1.363-0.985c-0.392-0.212-0.945-1.318-0.945-1.318
	s-0.076-0.279,0.326-0.567c0.485-0.348,0.557-0.158,0.557-0.158s0.604,1.06,0.975,1.303c0.391,0.257,1.539,0.943,1.539,0.943
	s0.08,0.25-0.379,0.579C23.79,7.651,23.468,7.576,23.468,7.576z"/>
<linearGradient id="SVGID_6_" gradientUnits="userSpaceOnUse" x1="-2232.5918" y1="4603.8745" x2="-2230.6321" y2="4603.8745" gradientTransform="matrix(0.2359 -0.9718 0.5839 0.1418 -2155.6812 -2800.554)">
	<stop  offset="0.0597" style="stop-color:#0099A9"/>
	<stop  offset="0.1463" style="stop-color:#008FA9"/>
	<stop  offset="0.31" style="stop-color:#0081A8"/>
	<stop  offset="0.4905" style="stop-color:#0078A7"/>
	<stop  offset="0.6991" style="stop-color:#0072A6"/>
	<stop  offset="1" style="stop-color:#0071A7"/>
</linearGradient>
<path fill="url(#SVGID_6_)" d="M7.548,21.504c0,0-1.225,0.044-1.675,0.142c-0.435,0.095-1.576-0.383-1.576-0.383
	s-0.239-0.162-0.123-0.642c0.141-0.58,0.32-0.483,0.32-0.483s1.149,0.409,1.589,0.352c0.464-0.06,1.781-0.289,1.781-0.289
	s0.223,0.137,0.09,0.686C7.841,21.351,7.548,21.504,7.548,21.504z"/>
<linearGradient id="SVGID_7_" gradientUnits="userSpaceOnUse" x1="-2135.9495" y1="2506.415" x2="-2133.9897" y2="2506.415" gradientTransform="matrix(0.2516 -0.9678 0.9678 0.2516 -1880.8126 -2682.5576)">
	<stop  offset="0.0597" style="stop-color:#FDB72A"/>
	<stop  offset="0.2492" style="stop-color:#F2B025"/>
	<stop  offset="0.5563" style="stop-color:#EAAB23"/>
	<stop  offset="1" style="stop-color:#E8A922"/>
</linearGradient>
<path fill="url(#SVGID_7_)" d="M10.312,15.387c0,0-1.984-0.173-2.702-0.151c-0.694,0.021-2.612-0.679-2.612-0.679
	s-0.411-0.211-0.286-0.689c0.15-0.577,0.454-0.445,0.454-0.445s1.922,0.631,2.629,0.65c0.746,0.02,2.855,0.018,2.855,0.018
	s0.381,0.183,0.239,0.729C10.769,15.281,10.312,15.387,10.312,15.387z"/>
<linearGradient id="SVGID_8_" gradientUnits="userSpaceOnUse" x1="-503.9092" y1="2924.1748" x2="-501.9495" y2="2924.1748" gradientTransform="matrix(0.8126 -0.5828 0.3502 0.4883 -601.1072 -1708.5471)">
	<stop  offset="0.0597" style="stop-color:#005F2C"/>
	<stop  offset="0.1979" style="stop-color:#036330"/>
	<stop  offset="0.4073" style="stop-color:#0E6834"/>
	<stop  offset="0.6499" style="stop-color:#136A36"/>
	<stop  offset="1" style="stop-color:#156B36"/>
</linearGradient>
<path fill="url(#SVGID_8_)" d="M14.938,13.903c0,0-0.958-0.765-1.363-0.985c-0.392-0.212-0.945-1.318-0.945-1.318
	s-0.076-0.279,0.326-0.567c0.485-0.348,0.557-0.158,0.557-0.158s0.604,1.06,0.975,1.303c0.391,0.257,1.539,0.943,1.539,0.943
	s0.08,0.25-0.379,0.579C15.26,13.979,14.938,13.903,14.938,13.903z"/>
<linearGradient id="SVGID_9_" gradientUnits="userSpaceOnUse" x1="91.897" y1="-477.5415" x2="93.8567" y2="-477.5415" gradientTransform="matrix(0.9829 0.1841 -0.1106 0.5906 -97.0044 279.3368)">
	<stop  offset="0.0597" style="stop-color:#0099A9"/>
	<stop  offset="0.1463" style="stop-color:#008FA9"/>
	<stop  offset="0.31" style="stop-color:#0081A8"/>
	<stop  offset="0.4905" style="stop-color:#0078A7"/>
	<stop  offset="0.6991" style="stop-color:#0072A6"/>
	<stop  offset="1" style="stop-color:#0071A7"/>
</linearGradient>
<path fill="url(#SVGID_9_)" d="M46.457,15.916c0,0-0.109-1.221-0.231-1.665c-0.118-0.429,0.299-1.594,0.299-1.594
	s0.149-0.248,0.635-0.157c0.586,0.11,0.499,0.294,0.499,0.294s-0.348,1.169-0.267,1.605c0.085,0.46,0.383,1.764,0.383,1.764
	s-0.125,0.23-0.68,0.126C46.625,16.201,46.457,15.916,46.457,15.916z"/>
<linearGradient id="SVGID_10_" gradientUnits="userSpaceOnUse" x1="74.153" y1="-831.1063" x2="76.1127" y2="-831.1063" gradientTransform="matrix(0.9664 0.2572 -0.1546 0.5807 -141.4628 468.7068)">
	<stop  offset="0.0597" style="stop-color:#0099A9"/>
	<stop  offset="0.1463" style="stop-color:#008FA9"/>
	<stop  offset="0.31" style="stop-color:#0081A8"/>
	<stop  offset="0.4905" style="stop-color:#0078A7"/>
	<stop  offset="0.6991" style="stop-color:#0072A6"/>
	<stop  offset="1" style="stop-color:#0071A7"/>
</linearGradient>
<path fill="url(#SVGID_10_)" d="M58.833,6.91c0,0-0.017-1.226-0.105-1.678c-0.085-0.437,0.417-1.567,0.417-1.567
	s0.167-0.236,0.644-0.109c0.576,0.153,0.476,0.33,0.476,0.33s-0.434,1.14-0.387,1.581c0.05,0.465,0.25,1.787,0.25,1.787
	s-0.142,0.22-0.687,0.075C58.979,7.207,58.833,6.91,58.833,6.91z"/>
<linearGradient id="SVGID_11_" gradientUnits="userSpaceOnUse" x1="-357.8132" y1="2457.9697" x2="-355.8535" y2="2457.9697" gradientTransform="matrix(0.8897 -0.4565 0.2743 0.5346 -338.0781 -1469.2125)">
	<stop  offset="0.0597" style="stop-color:#0099A9"/>
	<stop  offset="0.1463" style="stop-color:#008FA9"/>
	<stop  offset="0.31" style="stop-color:#0081A8"/>
	<stop  offset="0.4905" style="stop-color:#0078A7"/>
	<stop  offset="0.6991" style="stop-color:#0072A6"/>
	<stop  offset="1" style="stop-color:#0071A7"/>
</linearGradient>
<path fill="url(#SVGID_11_)" d="M19.032,9.378c0,0-0.834-0.898-1.202-1.175c-0.356-0.267-0.74-1.443-0.74-1.443
	s-0.034-0.287,0.406-0.512c0.531-0.272,0.574-0.074,0.574-0.074s0.441,1.137,0.772,1.433c0.349,0.312,1.383,1.16,1.383,1.16
	s0.042,0.259-0.46,0.516C19.34,9.501,19.032,9.378,19.032,9.378z"/>
<linearGradient id="SVGID_12_" gradientUnits="userSpaceOnUse" x1="-282.5628" y1="1187.3452" x2="-280.6031" y2="1187.3452" gradientTransform="matrix(0.897 -0.442 0.442 0.897 -247.762 -1184.0479)">
	<stop  offset="0.0597" style="stop-color:#FDB72A"/>
	<stop  offset="0.2492" style="stop-color:#F2B025"/>
	<stop  offset="0.5563" style="stop-color:#EAAB23"/>
	<stop  offset="1" style="stop-color:#E8A922"/>
</linearGradient>
<path fill="url(#SVGID_12_)" d="M25.384,8.041c0,0-1.166-1.615-1.651-2.144c-0.469-0.512-1.193-2.421-1.193-2.421
	s-0.109-0.449,0.334-0.667c0.535-0.264,0.633,0.053,0.633,0.053s0.779,1.867,1.226,2.414c0.472,0.577,1.852,2.173,1.852,2.173
	s0.111,0.408-0.395,0.657C25.762,8.317,25.384,8.041,25.384,8.041z"/>
<linearGradient id="SVGID_13_" gradientUnits="userSpaceOnUse" x1="77.6666" y1="-734.8687" x2="79.6263" y2="-734.8687" gradientTransform="matrix(0.9722 0.2342 -0.1407 0.5842 -148.7048 421.1095)">
	<stop  offset="0.0597" style="stop-color:#E63825"/>
	<stop  offset="0.0677" style="stop-color:#E43725"/>
	<stop  offset="0.2467" style="stop-color:#C82B25"/>
	<stop  offset="0.4433" style="stop-color:#B62424"/>
	<stop  offset="0.6712" style="stop-color:#AC2023"/>
	<stop  offset="1" style="stop-color:#A81E23"/>
</linearGradient>
<path fill="url(#SVGID_13_)" d="M30.435,11.726c0,0-0.046-1.225-0.145-1.675c-0.096-0.435,0.38-1.577,0.38-1.577
	s0.161-0.24,0.642-0.124c0.58,0.14,0.483,0.319,0.483,0.319s-0.407,1.15-0.349,1.589c0.061,0.464,0.292,1.781,0.292,1.781
	s-0.137,0.223-0.685,0.091C30.589,12.019,30.435,11.726,30.435,11.726z"/>
<linearGradient id="SVGID_14_" gradientUnits="userSpaceOnUse" x1="-334.9328" y1="2475.3982" x2="-332.9731" y2="2475.3982" gradientTransform="matrix(0.8897 -0.4565 0.2743 0.5346 -338.0781 -1469.2125)">
	<stop  offset="0.0597" style="stop-color:#005F2C"/>
	<stop  offset="0.1979" style="stop-color:#036330"/>
	<stop  offset="0.4073" style="stop-color:#0E6834"/>
	<stop  offset="0.6499" style="stop-color:#136A36"/>
	<stop  offset="1" style="stop-color:#156B36"/>
</linearGradient>
<path fill="url(#SVGID_14_)" d="M44.17,8.252c0,0-0.834-0.898-1.202-1.175c-0.356-0.267-0.74-1.443-0.74-1.443
	s-0.034-0.287,0.406-0.512c0.531-0.272,0.574-0.074,0.574-0.074s0.441,1.137,0.772,1.433c0.349,0.312,1.383,1.16,1.383,1.16
	s0.042,0.259-0.46,0.516C44.478,8.375,44.17,8.252,44.17,8.252z"/>
<linearGradient id="SVGID_15_" gradientUnits="userSpaceOnUse" x1="87.1302" y1="287.5724" x2="89.0899" y2="287.5724" gradientTransform="matrix(0.995 -0.1002 0.1002 0.995 -65.9869 -271.9907)">
	<stop  offset="0.0597" style="stop-color:#E63825"/>
	<stop  offset="0.0677" style="stop-color:#E43725"/>
	<stop  offset="0.2467" style="stop-color:#C82B25"/>
	<stop  offset="0.4433" style="stop-color:#B62424"/>
	<stop  offset="0.6712" style="stop-color:#AC2023"/>
	<stop  offset="1" style="stop-color:#A81E23"/>
</linearGradient>
<path fill="url(#SVGID_15_)" d="M50.419,8.017c0,0-0.527-1.921-0.797-2.586c-0.261-0.643-0.271-2.685-0.271-2.685
	s0.055-0.458,0.547-0.508c0.593-0.06,0.575,0.271,0.575,0.271s0.076,2.021,0.304,2.691c0.24,0.706,0.975,2.683,0.975,2.683
	s-0.039,0.421-0.6,0.477C50.677,8.408,50.419,8.017,50.419,8.017z"/>
<linearGradient id="SVGID_16_" gradientUnits="userSpaceOnUse" x1="94.3404" y1="-745.9426" x2="96.3001" y2="-745.9426" gradientTransform="matrix(0.9722 0.2342 -0.1407 0.5842 -148.7048 421.1095)">
	<stop  offset="0.0597" style="stop-color:#FDB72A"/>
	<stop  offset="0.2492" style="stop-color:#F2B025"/>
	<stop  offset="0.5563" style="stop-color:#EAAB23"/>
	<stop  offset="1" style="stop-color:#E8A922"/>
</linearGradient>
<path fill="url(#SVGID_16_)" d="M48.204,9.162c0,0-0.046-1.225-0.145-1.675c-0.096-0.435,0.38-1.577,0.38-1.577
	s0.161-0.24,0.642-0.124c0.58,0.14,0.483,0.319,0.483,0.319s-0.407,1.15-0.349,1.589c0.061,0.464,0.292,1.781,0.292,1.781
	s-0.137,0.223-0.685,0.091C48.357,9.455,48.204,9.162,48.204,9.162z"/>
<linearGradient id="SVGID_17_" gradientUnits="userSpaceOnUse" x1="-294.0305" y1="-1580.1191" x2="-292.0707" y2="-1580.1191" gradientTransform="matrix(0.8107 0.5855 -0.5855 0.8107 -625.4709 1464.6846)">
	<stop  offset="0.0597" style="stop-color:#FDB72A"/>
	<stop  offset="0.2492" style="stop-color:#F2B025"/>
	<stop  offset="0.5563" style="stop-color:#EAAB23"/>
	<stop  offset="1" style="stop-color:#E8A922"/>
</linearGradient>
<path fill="url(#SVGID_17_)" d="M60.253,14.118c0,0,0.881-1.786,1.121-2.463c0.232-0.654,1.58-2.188,1.58-2.188
	S63.3,9.161,63.701,9.45c0.484,0.349,0.25,0.584,0.25,0.584s-1.285,1.563-1.559,2.214c-0.289,0.688-1.052,2.654-1.052,2.654
	s-0.308,0.289-0.766-0.041C60.187,14.582,60.253,14.118,60.253,14.118z"/>
<linearGradient id="SVGID_18_" gradientUnits="userSpaceOnUse" x1="-413.4294" y1="-2627.0886" x2="-411.4697" y2="-2627.0886" gradientTransform="matrix(0.763 0.6463 -0.3884 0.4585 -636.7305 1478.5345)">
	<stop  offset="0.0597" style="stop-color:#005F2C"/>
	<stop  offset="0.1979" style="stop-color:#036330"/>
	<stop  offset="0.4073" style="stop-color:#0E6834"/>
	<stop  offset="0.6499" style="stop-color:#136A36"/>
	<stop  offset="1" style="stop-color:#156B36"/>
</linearGradient>
<path fill="url(#SVGID_18_)" d="M67.526,8.426c0,0,0.509-1.115,0.623-1.561c0.11-0.431,1.048-1.237,1.048-1.237
	s0.252-0.142,0.629,0.178c0.455,0.386,0.288,0.502,0.288,0.502s-0.881,0.844-1.027,1.263c-0.154,0.442-0.54,1.722-0.54,1.722
	s-0.223,0.138-0.653-0.227C67.531,8.757,67.526,8.426,67.526,8.426z"/>
<linearGradient id="SVGID_19_" gradientUnits="userSpaceOnUse" x1="-1778.281" y1="-4105.9219" x2="-1776.3213" y2="-4105.9219" gradientTransform="matrix(0.2348 0.972 -0.5841 0.1411 -1906.949 2316.6665)">
	<stop  offset="0.0597" style="stop-color:#E63825"/>
	<stop  offset="0.0677" style="stop-color:#E43725"/>
	<stop  offset="0.2467" style="stop-color:#C82B25"/>
	<stop  offset="0.4433" style="stop-color:#B62424"/>
	<stop  offset="0.6712" style="stop-color:#AC2023"/>
	<stop  offset="1" style="stop-color:#A81E23"/>
</linearGradient>
<path fill="url(#SVGID_19_)" d="M72.302,9.8c0,0,1.069-0.6,1.424-0.893c0.343-0.283,1.576-0.381,1.576-0.381
	s0.287,0.034,0.403,0.515c0.14,0.58-0.063,0.576-0.063,0.576s-1.209,0.162-1.574,0.414c-0.385,0.266-1.452,1.072-1.452,1.072
	s-0.261-0.02-0.394-0.568C72.111,10.07,72.302,9.8,72.302,9.8z"/>
<linearGradient id="SVGID_20_" gradientUnits="userSpaceOnUse" x1="-28.4339" y1="-1084.3226" x2="-26.4742" y2="-1084.3226" gradientTransform="matrix(0.9142 0.4052 -0.4052 0.9142 -336.9645 1014.7841)">
	<stop  offset="0.0597" style="stop-color:#FDB72A"/>
	<stop  offset="0.2492" style="stop-color:#F2B025"/>
	<stop  offset="0.5563" style="stop-color:#EAAB23"/>
	<stop  offset="1" style="stop-color:#E8A922"/>
</linearGradient>
<path fill="url(#SVGID_20_)" d="M75.908,14.669c0,0,0.492-1.93,0.588-2.642c0.092-0.688,1.094-2.467,1.094-2.467
	s0.275-0.371,0.726-0.171c0.545,0.242,0.365,0.52,0.365,0.52s-0.934,1.794-1.067,2.489c-0.141,0.732-0.481,2.814-0.481,2.814
	s-0.242,0.347-0.758,0.118C75.939,15.136,75.908,14.669,75.908,14.669z"/>
<linearGradient id="SVGID_21_" gradientUnits="userSpaceOnUse" x1="63.2571" y1="-1008.7244" x2="65.2168" y2="-1008.7244" gradientTransform="matrix(0.9574 0.2887 -0.1735 0.5753 -161.7908 577.1486)">
	<stop  offset="0.0597" style="stop-color:#005F2C"/>
	<stop  offset="0.1979" style="stop-color:#036330"/>
	<stop  offset="0.4073" style="stop-color:#0E6834"/>
	<stop  offset="0.6499" style="stop-color:#136A36"/>
	<stop  offset="1" style="stop-color:#156B36"/>
</linearGradient>
<path fill="url(#SVGID_21_)" d="M73.875,16.818c0,0,0.023-1.226-0.05-1.68c-0.071-0.44,0.468-1.553,0.468-1.553
	s0.175-0.23,0.648-0.087c0.571,0.172,0.465,0.346,0.465,0.346s-0.472,1.125-0.438,1.567c0.035,0.467,0.191,1.794,0.191,1.794
	s-0.149,0.215-0.69,0.052C74.011,17.119,73.875,16.818,73.875,16.818z"/>
<linearGradient id="SVGID_22_" gradientUnits="userSpaceOnUse" x1="4651.8193" y1="1843.3302" x2="4653.7788" y2="1843.3302" gradientTransform="matrix(0.9648 0.2628 -0.1579 0.5798 -4159.7837 -2279.7639)">
	<stop  offset="0.0597" style="stop-color:#FDB72A"/>
	<stop  offset="0.2492" style="stop-color:#F2B025"/>
	<stop  offset="0.5563" style="stop-color:#EAAB23"/>
	<stop  offset="1" style="stop-color:#E8A922"/>
</linearGradient>
<path fill="url(#SVGID_22_)" d="M37.503,13.356c0,0-0.01-1.226-0.096-1.678c-0.083-0.437,0.426-1.565,0.426-1.565
	s0.168-0.235,0.645-0.105c0.576,0.157,0.474,0.333,0.474,0.333s-0.441,1.137-0.396,1.578c0.048,0.465,0.239,1.789,0.239,1.789
	s-0.143,0.219-0.688,0.071C37.647,13.654,37.503,13.356,37.503,13.356z"/>
<linearGradient id="SVGID_23_" gradientUnits="userSpaceOnUse" x1="44.3835" y1="4.0834" x2="46.3432" y2="4.0834">
	<stop  offset="0.0597" style="stop-color:#B457A1"/>
	<stop  offset="0.093" style="stop-color:#B5579E"/>
	<stop  offset="0.267" style="stop-color:#BA5593"/>
	<stop  offset="0.4588" style="stop-color:#BD558C"/>
	<stop  offset="0.6803" style="stop-color:#BE5488"/>
	<stop  offset="1" style="stop-color:#BF5486"/>
</linearGradient>
<path fill="url(#SVGID_23_)" d="M45.003,6.777c0,0-0.332-1.964-0.533-2.653c-0.195-0.666,0-2.699,0-2.699s0.101-0.451,0.595-0.451
	c0.596,0,0.545,0.327,0.545,0.327s-0.127,2.019,0.033,2.708c0.168,0.727,0.701,2.767,0.701,2.767s-0.081,0.415-0.645,0.415
	C45.221,7.192,45.003,6.777,45.003,6.777z"/>
<linearGradient id="SVGID_24_" gradientUnits="userSpaceOnUse" x1="-471.0952" y1="-2932.5496" x2="-469.1356" y2="-2932.5496" gradientTransform="matrix(0.7463 0.6656 -0.396 0.4441 -748.1755 1621.0686)">
	<stop  offset="0.0597" style="stop-color:#B457A1"/>
	<stop  offset="0.093" style="stop-color:#B5579E"/>
	<stop  offset="0.267" style="stop-color:#BA5593"/>
	<stop  offset="0.4588" style="stop-color:#BD558C"/>
	<stop  offset="0.6803" style="stop-color:#BE5488"/>
	<stop  offset="1" style="stop-color:#BF5486"/>
</linearGradient>
<path fill="url(#SVGID_24_)" d="M61.051,6.842c0,0,0.53-1.093,0.653-1.533c0.119-0.425,1.069-1.199,1.069-1.199
	s0.254-0.133,0.622,0.196c0.445,0.397,0.277,0.508,0.277,0.508s-0.894,0.812-1.048,1.224c-0.162,0.435-0.573,1.695-0.573,1.695
	s-0.225,0.13-0.646-0.245C61.049,7.171,61.051,6.842,61.051,6.842z"/>
<linearGradient id="SVGID_25_" gradientUnits="userSpaceOnUse" x1="-810.3439" y1="1892.6047" x2="-808.3842" y2="1892.6047" gradientTransform="matrix(0.6979 -0.7162 0.7162 0.6979 -777.1996 -1891.4949)">
	<stop  offset="0.0597" style="stop-color:#B457A1"/>
	<stop  offset="0.093" style="stop-color:#B5579E"/>
	<stop  offset="0.267" style="stop-color:#BA5593"/>
	<stop  offset="0.4588" style="stop-color:#BD558C"/>
	<stop  offset="0.6803" style="stop-color:#BE5488"/>
	<stop  offset="1" style="stop-color:#BF5486"/>
</linearGradient>
<path fill="url(#SVGID_25_)" d="M15.164,11.127c0,0-1.638-1.133-2.272-1.47c-0.613-0.326-1.933-1.883-1.933-1.883
	s-0.252-0.387,0.092-0.74c0.416-0.427,0.615-0.162,0.615-0.162s1.358,1.5,1.962,1.866c0.638,0.387,2.471,1.429,2.471,1.429
	s0.241,0.347-0.153,0.752C15.613,11.261,15.164,11.127,15.164,11.127z"/>
<linearGradient id="SVGID_26_" gradientUnits="userSpaceOnUse" x1="-302.9025" y1="1798.4556" x2="-300.9428" y2="1798.4556" gradientTransform="matrix(0.897 -0.442 0.3096 0.6283 -277.6711 -1244.7395)">
	<stop  offset="0.0597" style="stop-color:#B457A1"/>
	<stop  offset="0.093" style="stop-color:#B5579E"/>
	<stop  offset="0.267" style="stop-color:#BA5593"/>
	<stop  offset="0.4588" style="stop-color:#BD558C"/>
	<stop  offset="0.6803" style="stop-color:#BE5488"/>
	<stop  offset="1" style="stop-color:#BF5486"/>
</linearGradient>
<path fill="url(#SVGID_26_)" d="M8.873,20.552c0,0-0.906-1.087-1.3-1.431c-0.381-0.333-0.836-1.696-0.836-1.696
	s-0.049-0.328,0.394-0.546c0.535-0.264,0.59-0.035,0.59-0.035s0.511,1.325,0.868,1.687c0.376,0.382,1.486,1.429,1.486,1.429
	s0.056,0.296-0.45,0.546C9.197,20.716,8.873,20.552,8.873,20.552z"/>
<linearGradient id="SVGID_27_" gradientUnits="userSpaceOnUse" x1="74.4417" y1="-730.2774" x2="76.4014" y2="-730.2774" gradientTransform="matrix(0.9722 0.2342 -0.1407 0.5842 -148.7048 421.1095)">
	<stop  offset="0.0597" style="stop-color:#B457A1"/>
	<stop  offset="0.093" style="stop-color:#B5579E"/>
	<stop  offset="0.267" style="stop-color:#BA5593"/>
	<stop  offset="0.4588" style="stop-color:#BD558C"/>
	<stop  offset="0.6803" style="stop-color:#BE5488"/>
	<stop  offset="1" style="stop-color:#BF5486"/>
</linearGradient>
<path fill="url(#SVGID_27_)" d="M26.654,13.653c0,0-0.046-1.225-0.145-1.675c-0.096-0.435,0.38-1.577,0.38-1.577
	s0.161-0.24,0.642-0.124c0.58,0.14,0.483,0.319,0.483,0.319s-0.407,1.15-0.349,1.589c0.061,0.464,0.292,1.781,0.292,1.781
	s-0.137,0.223-0.685,0.091C26.807,13.946,26.654,13.653,26.654,13.653z"/>
<linearGradient id="SVGID_28_" gradientUnits="userSpaceOnUse" x1="66.7089" y1="-570.0817" x2="68.6686" y2="-570.0817" gradientTransform="matrix(0.9741 0.226 -0.226 0.9741 -137.9084 549.4229)">
	<stop  offset="0.0597" style="stop-color:#B457A1"/>
	<stop  offset="0.093" style="stop-color:#B5579E"/>
	<stop  offset="0.267" style="stop-color:#BA5593"/>
	<stop  offset="0.4588" style="stop-color:#BD558C"/>
	<stop  offset="0.6803" style="stop-color:#BE5488"/>
	<stop  offset="1" style="stop-color:#BF5486"/>
</linearGradient>
<path fill="url(#SVGID_28_)" d="M55.898,11.928c0,0,0.12-1.988,0.08-2.705c-0.039-0.693,0.61-2.629,0.61-2.629
	s0.2-0.416,0.681-0.304c0.581,0.135,0.457,0.442,0.457,0.442s-0.58,1.938-0.58,2.645c0,0.746,0.057,2.854,0.057,2.854
	s-0.172,0.386-0.722,0.258C56.017,12.381,55.898,11.928,55.898,11.928z"/>
<linearGradient id="SVGID_29_" gradientUnits="userSpaceOnUse" x1="-34.8856" y1="-1504.7521" x2="-32.9259" y2="-1504.7521" gradientTransform="matrix(0.9142 0.4052 -0.2716 0.6129 -312.3295 959.2052)">
	<stop  offset="0.0597" style="stop-color:#B457A1"/>
	<stop  offset="0.093" style="stop-color:#B5579E"/>
	<stop  offset="0.267" style="stop-color:#BA5593"/>
	<stop  offset="0.4588" style="stop-color:#BD558C"/>
	<stop  offset="0.6803" style="stop-color:#BE5488"/>
	<stop  offset="1" style="stop-color:#BF5486"/>
</linearGradient>
<path fill="url(#SVGID_29_)" d="M64.377,24.763c0,0,0.23-1.338,0.233-1.842c0.003-0.487,0.733-1.654,0.733-1.654
	s0.214-0.235,0.666-0.035c0.545,0.242,0.409,0.421,0.409,0.421s-0.664,1.186-0.706,1.673c-0.044,0.513-0.111,1.98-0.111,1.98
	s-0.187,0.222-0.702-0.007C64.463,25.106,64.377,24.763,64.377,24.763z"/>
<linearGradient id="SVGID_30_" gradientUnits="userSpaceOnUse" x1="-3310.209" y1="-4111.2012" x2="-3308.2493" y2="-4111.2012" gradientTransform="matrix(-0.3482 0.9374 -0.5633 -0.2093 -3394.1345 2262.6233)">
	<stop  offset="0.0597" style="stop-color:#B457A1"/>
	<stop  offset="0.093" style="stop-color:#B5579E"/>
	<stop  offset="0.267" style="stop-color:#BA5593"/>
	<stop  offset="0.4588" style="stop-color:#BD558C"/>
	<stop  offset="0.6803" style="stop-color:#BE5488"/>
	<stop  offset="1" style="stop-color:#BF5486"/>
</linearGradient>
<path fill="url(#SVGID_30_)" d="M72.595,19.901c0,0,1.222,0.1,1.68,0.055c0.443-0.043,1.52,0.565,1.52,0.565
	s0.219,0.189,0.047,0.652c-0.208,0.559-0.374,0.442-0.374,0.442s-1.093-0.541-1.537-0.536c-0.468,0.006-1.803,0.078-1.803,0.078
	s-0.206-0.163-0.009-0.691C72.285,20.018,72.595,19.901,72.595,19.901z"/>
<linearGradient id="SVGID_31_" gradientUnits="userSpaceOnUse" x1="27.258" y1="7.457" x2="29.2177" y2="7.457">
	<stop  offset="0.0597" style="stop-color:#E8773A"/>
	<stop  offset="0.0902" style="stop-color:#E97739"/>
	<stop  offset="0.4624" style="stop-color:#F07338"/>
	<stop  offset="1" style="stop-color:#F37237"/>
</linearGradient>
<path fill="url(#SVGID_31_)" d="M27.878,9.436c0,0-0.332-1.443-0.533-1.949c-0.195-0.49,0-1.983,0-1.983s0.101-0.331,0.595-0.331
	c0.596,0,0.545,0.241,0.545,0.241s-0.127,1.483,0.033,1.989c0.168,0.534,0.701,2.033,0.701,2.033s-0.081,0.305-0.645,0.305
	C28.095,9.741,27.878,9.436,27.878,9.436z"/>
<linearGradient id="SVGID_32_" gradientUnits="userSpaceOnUse" x1="-498.08" y1="2930.1416" x2="-496.1203" y2="2930.1416" gradientTransform="matrix(0.8126 -0.5828 0.3502 0.4883 -601.1072 -1708.5471)">
	<stop  offset="0.0597" style="stop-color:#E8773A"/>
	<stop  offset="0.0902" style="stop-color:#E97739"/>
	<stop  offset="0.4624" style="stop-color:#F07338"/>
	<stop  offset="1" style="stop-color:#F37237"/>
</linearGradient>
<path fill="url(#SVGID_32_)" d="M21.764,13.419c0,0-0.958-0.765-1.363-0.985c-0.392-0.212-0.945-1.318-0.945-1.318
	s-0.076-0.279,0.326-0.567c0.485-0.348,0.557-0.158,0.557-0.158s0.604,1.06,0.975,1.303c0.391,0.257,1.539,0.943,1.539,0.943
	s0.08,0.25-0.379,0.579C22.086,13.495,21.764,13.419,21.764,13.419z"/>
<linearGradient id="SVGID_33_" gradientUnits="userSpaceOnUse" x1="-507.2959" y1="2922.3035" x2="-505.3362" y2="2922.3035" gradientTransform="matrix(0.8126 -0.5828 0.3502 0.4883 -601.1072 -1708.5471)">
	<stop  offset="0.0597" style="stop-color:#E8773A"/>
	<stop  offset="0.0902" style="stop-color:#E97739"/>
	<stop  offset="0.4624" style="stop-color:#F07338"/>
	<stop  offset="1" style="stop-color:#F37237"/>
</linearGradient>
<path fill="url(#SVGID_33_)" d="M11.53,14.963c0,0-0.958-0.765-1.363-0.985c-0.392-0.212-0.945-1.318-0.945-1.318
	s-0.076-0.279,0.326-0.567c0.485-0.348,0.557-0.158,0.557-0.158s0.604,1.06,0.975,1.303c0.391,0.257,1.539,0.943,1.539,0.943
	s0.08,0.25-0.379,0.579C11.852,15.039,11.53,14.963,11.53,14.963z"/>
<linearGradient id="SVGID_34_" gradientUnits="userSpaceOnUse" x1="-338.19" y1="2479.3765" x2="-336.2303" y2="2479.3765" gradientTransform="matrix(0.8897 -0.4565 0.2743 0.5346 -338.0781 -1469.2125)">
	<stop  offset="0.0597" style="stop-color:#E8773A"/>
	<stop  offset="0.0902" style="stop-color:#E97739"/>
	<stop  offset="0.4624" style="stop-color:#F07338"/>
	<stop  offset="1" style="stop-color:#F37237"/>
</linearGradient>
<path fill="url(#SVGID_34_)" d="M42.364,11.866c0,0-0.834-0.898-1.202-1.175c-0.356-0.267-0.74-1.443-0.74-1.443
	s-0.034-0.287,0.406-0.512c0.531-0.272,0.574-0.074,0.574-0.074s0.441,1.137,0.772,1.433c0.349,0.312,1.383,1.16,1.383,1.16
	s0.042,0.259-0.46,0.516C42.671,11.988,42.364,11.866,42.364,11.866z"/>
<linearGradient id="SVGID_35_" gradientUnits="userSpaceOnUse" x1="-412.0326" y1="-2615.5105" x2="-410.0729" y2="-2615.5105" gradientTransform="matrix(0.763 0.6463 -0.3884 0.4585 -636.7305 1478.5345)">
	<stop  offset="0.0597" style="stop-color:#E8773A"/>
	<stop  offset="0.0902" style="stop-color:#E97739"/>
	<stop  offset="0.4624" style="stop-color:#F07338"/>
	<stop  offset="1" style="stop-color:#F37237"/>
</linearGradient>
<path fill="url(#SVGID_35_)" d="M64.096,14.638c0,0,0.509-1.115,0.623-1.561c0.11-0.431,1.048-1.237,1.048-1.237
	s0.252-0.142,0.629,0.178c0.455,0.386,0.288,0.502,0.288,0.502s-0.881,0.844-1.027,1.263c-0.154,0.442-0.54,1.722-0.54,1.722
	s-0.223,0.138-0.653-0.227C64.101,14.968,64.096,14.638,64.096,14.638z"/>
<linearGradient id="SVGID_36_" gradientUnits="userSpaceOnUse" x1="-470.5481" y1="-2830.3289" x2="-468.5884" y2="-2830.3289" gradientTransform="matrix(0.7289 0.6846 -0.4113 0.438 -751.8107 1576.1509)">
	<stop  offset="0.0597" style="stop-color:#E8773A"/>
	<stop  offset="0.0902" style="stop-color:#E97739"/>
	<stop  offset="0.4624" style="stop-color:#F07338"/>
	<stop  offset="1" style="stop-color:#F37237"/>
</linearGradient>
<path fill="url(#SVGID_36_)" d="M68.781,15.918c0,0,0.566-1.087,0.703-1.527c0.132-0.425,1.11-1.182,1.11-1.182
	s0.259-0.128,0.619,0.21c0.435,0.408,0.262,0.516,0.262,0.516s-0.923,0.798-1.09,1.208c-0.176,0.433-0.628,1.692-0.628,1.692
	s-0.23,0.126-0.641-0.26C68.769,16.249,68.781,15.918,68.781,15.918z"/>
<linearGradient id="SVGID_37_" gradientUnits="userSpaceOnUse" x1="63.0772" y1="-717.6099" x2="65.0369" y2="-717.6099" gradientTransform="matrix(0.9722 0.2342 -0.1407 0.5842 -148.7048 421.1095)">
	<stop  offset="0.0597" style="stop-color:#E63825"/>
	<stop  offset="0.0677" style="stop-color:#E43725"/>
	<stop  offset="0.2467" style="stop-color:#C82B25"/>
	<stop  offset="0.4433" style="stop-color:#B62424"/>
	<stop  offset="0.6712" style="stop-color:#AC2023"/>
	<stop  offset="1" style="stop-color:#A81E23"/>
</linearGradient>
<path fill="url(#SVGID_37_)" d="M13.823,18.391c0,0-0.046-1.225-0.145-1.675c-0.096-0.435,0.38-1.577,0.38-1.577
	s0.161-0.24,0.642-0.124c0.58,0.14,0.483,0.319,0.483,0.319s-0.407,1.15-0.349,1.589c0.061,0.464,0.292,1.781,0.292,1.781
	s-0.137,0.223-0.685,0.091C13.976,18.685,13.823,18.391,13.823,18.391z"/>
<linearGradient id="SVGID_38_" gradientUnits="userSpaceOnUse" x1="68.9002" y1="287.5336" x2="70.8599" y2="287.5336" gradientTransform="matrix(0.995 -0.1002 0.1002 0.995 -65.9869 -271.9907)">
	<stop  offset="0.0597" style="stop-color:#E63825"/>
	<stop  offset="0.0677" style="stop-color:#E43725"/>
	<stop  offset="0.2467" style="stop-color:#C82B25"/>
	<stop  offset="0.4433" style="stop-color:#B62424"/>
	<stop  offset="0.6712" style="stop-color:#AC2023"/>
	<stop  offset="1" style="stop-color:#A81E23"/>
</linearGradient>
<path fill="url(#SVGID_38_)" d="M32.277,9.806c0,0-0.527-1.921-0.797-2.586c-0.26-0.643-0.271-2.685-0.271-2.685
	s0.055-0.458,0.547-0.508c0.593-0.06,0.575,0.271,0.575,0.271s0.076,2.021,0.304,2.691c0.24,0.706,0.975,2.683,0.975,2.683
	s-0.039,0.421-0.6,0.477C32.535,10.197,32.277,9.806,32.277,9.806z"/>
<linearGradient id="SVGID_39_" gradientUnits="userSpaceOnUse" x1="-1777.1366" y1="-4067.3025" x2="-1775.1769" y2="-4067.3025" gradientTransform="matrix(0.2348 0.972 -0.5841 0.1411 -1906.949 2316.6665)">
	<stop  offset="0.0597" style="stop-color:#E63825"/>
	<stop  offset="0.0677" style="stop-color:#E43725"/>
	<stop  offset="0.2467" style="stop-color:#C82B25"/>
	<stop  offset="0.4433" style="stop-color:#B62424"/>
	<stop  offset="0.6712" style="stop-color:#AC2023"/>
	<stop  offset="1" style="stop-color:#A81E23"/>
</linearGradient>
<path fill="url(#SVGID_39_)" d="M50.013,16.361c0,0,1.069-0.6,1.424-0.893c0.343-0.283,1.576-0.381,1.576-0.381
	s0.287,0.034,0.403,0.515c0.14,0.58-0.063,0.576-0.063,0.576s-1.209,0.162-1.574,0.414c-0.385,0.266-1.452,1.072-1.452,1.072
	s-0.261-0.02-0.394-0.568C49.822,16.631,50.013,16.361,50.013,16.361z"/>
<linearGradient id="SVGID_40_" gradientUnits="userSpaceOnUse" x1="37.2799" y1="4.019" x2="39.2396" y2="4.019">
	<stop  offset="0.0597" style="stop-color:#FFFFFF"/>
	<stop  offset="0.1427" style="stop-color:#EDEFED"/>
	<stop  offset="0.3071" style="stop-color:#D8DDD9"/>
	<stop  offset="0.4883" style="stop-color:#CAD1CB"/>
	<stop  offset="0.6978" style="stop-color:#C2CAC4"/>
	<stop  offset="1" style="stop-color:#BFC8C2"/>
</linearGradient>
<path fill="url(#SVGID_40_)" d="M37.9,6.713c0,0-0.332-1.964-0.533-2.653c-0.195-0.666,0-2.699,0-2.699s0.101-0.451,0.595-0.451
	c0.596,0,0.545,0.327,0.545,0.327s-0.127,2.019,0.033,2.708c0.168,0.727,0.701,2.767,0.701,2.767s-0.081,0.415-0.645,0.415
	C38.117,7.128,37.9,6.713,37.9,6.713z"/>
<linearGradient id="SVGID_41_" gradientUnits="userSpaceOnUse" x1="-461.3832" y1="-2916.9673" x2="-459.4235" y2="-2916.9673" gradientTransform="matrix(0.7463 0.6656 -0.396 0.4441 -748.1755 1621.0686)">
	<stop  offset="0.0597" style="stop-color:#FFFFFF"/>
	<stop  offset="0.1427" style="stop-color:#EDEFED"/>
	<stop  offset="0.3071" style="stop-color:#D8DDD9"/>
	<stop  offset="0.4883" style="stop-color:#CAD1CB"/>
	<stop  offset="0.6978" style="stop-color:#C2CAC4"/>
	<stop  offset="1" style="stop-color:#BFC8C2"/>
</linearGradient>
<path fill="url(#SVGID_41_)" d="M62.128,20.226c0,0,0.53-1.093,0.653-1.533c0.119-0.425,1.069-1.198,1.069-1.198
	s0.254-0.133,0.622,0.196c0.445,0.397,0.277,0.508,0.277,0.508s-0.894,0.812-1.048,1.224c-0.162,0.435-0.573,1.695-0.573,1.695
	s-0.225,0.13-0.646-0.245C62.126,20.555,62.128,20.226,62.128,20.226z"/>
<linearGradient id="SVGID_42_" gradientUnits="userSpaceOnUse" x1="-2133.1189" y1="2521.2329" x2="-2131.1592" y2="2521.2329" gradientTransform="matrix(0.2516 -0.9678 0.9678 0.2516 -1880.8126 -2682.5576)">
	<stop  offset="0.0597" style="stop-color:#FFFFFF"/>
	<stop  offset="0.1427" style="stop-color:#EDEFED"/>
	<stop  offset="0.3071" style="stop-color:#D8DDD9"/>
	<stop  offset="0.4883" style="stop-color:#CAD1CB"/>
	<stop  offset="0.6978" style="stop-color:#C2CAC4"/>
	<stop  offset="1" style="stop-color:#BFC8C2"/>
</linearGradient>
<path fill="url(#SVGID_42_)" d="M25.366,16.376c0,0-1.984-0.173-2.702-0.151c-0.694,0.021-2.612-0.679-2.612-0.679
	s-0.411-0.211-0.286-0.689c0.15-0.577,0.454-0.445,0.454-0.445s1.922,0.631,2.629,0.65c0.746,0.02,2.855,0.018,2.855,0.018
	s0.381,0.183,0.239,0.729C25.822,16.27,25.366,16.376,25.366,16.376z"/>
<linearGradient id="SVGID_43_" gradientUnits="userSpaceOnUse" x1="97.9814" y1="-740.4524" x2="99.9411" y2="-740.4524" gradientTransform="matrix(0.9722 0.2342 -0.1407 0.5842 -148.7048 421.1095)">
	<stop  offset="0.0597" style="stop-color:#FFFFFF"/>
	<stop  offset="0.1427" style="stop-color:#EDEFED"/>
	<stop  offset="0.3071" style="stop-color:#D8DDD9"/>
	<stop  offset="0.4883" style="stop-color:#CAD1CB"/>
	<stop  offset="0.6978" style="stop-color:#C2CAC4"/>
	<stop  offset="1" style="stop-color:#BFC8C2"/>
</linearGradient>
<path fill="url(#SVGID_43_)" d="M50.971,13.222c0,0-0.046-1.225-0.145-1.675c-0.096-0.435,0.38-1.577,0.38-1.577
	s0.161-0.24,0.642-0.124c0.58,0.14,0.483,0.319,0.483,0.319s-0.407,1.15-0.349,1.589c0.061,0.464,0.292,1.781,0.292,1.781
	s-0.137,0.223-0.685,0.091C51.124,13.515,50.971,13.222,50.971,13.222z"/>
<linearGradient id="SVGID_44_" gradientUnits="userSpaceOnUse" x1="39.6408" y1="-569.3185" x2="41.6005" y2="-569.3185" gradientTransform="matrix(0.9741 0.226 -0.226 0.9741 -137.9084 549.4229)">
	<stop  offset="0.0597" style="stop-color:#FFFFFF"/>
	<stop  offset="0.1427" style="stop-color:#EDEFED"/>
	<stop  offset="0.3071" style="stop-color:#D8DDD9"/>
	<stop  offset="0.4883" style="stop-color:#CAD1CB"/>
	<stop  offset="0.6978" style="stop-color:#C2CAC4"/>
	<stop  offset="1" style="stop-color:#BFC8C2"/>
</linearGradient>
<path fill="url(#SVGID_44_)" d="M29.358,6.554c0,0,0.12-1.988,0.08-2.705c-0.039-0.693,0.61-2.629,0.61-2.629s0.2-0.416,0.681-0.304
	c0.581,0.135,0.457,0.442,0.457,0.442s-0.58,1.938-0.58,2.645c0,0.746,0.057,2.854,0.057,2.854s-0.172,0.386-0.722,0.258
	C29.476,7.008,29.358,6.554,29.358,6.554z"/>
<linearGradient id="SVGID_45_" gradientUnits="userSpaceOnUse" x1="-42.5104" y1="-1105.792" x2="-40.5507" y2="-1105.792" gradientTransform="matrix(0.9142 0.4052 -0.3997 0.9018 -338.589 1018.4491)">
	<stop  offset="0.0597" style="stop-color:#FFFFFF"/>
	<stop  offset="0.1427" style="stop-color:#EDEFED"/>
	<stop  offset="0.3071" style="stop-color:#D8DDD9"/>
	<stop  offset="0.4883" style="stop-color:#CAD1CB"/>
	<stop  offset="0.6978" style="stop-color:#C2CAC4"/>
	<stop  offset="1" style="stop-color:#BFC8C2"/>
</linearGradient>
<path fill="url(#SVGID_45_)" d="M64.02,6.752c0,0,0.481-1.905,0.573-2.609c0.088-0.68,1.079-2.434,1.079-2.434
	s0.272-0.365,0.724-0.165c0.545,0.242,0.367,0.516,0.367,0.516S65.84,3.829,65.71,4.515c-0.137,0.723-0.465,2.78-0.465,2.78
	s-0.24,0.341-0.756,0.113C64.053,7.214,64.02,6.752,64.02,6.752z"/>
</svg>
