<?xml version="1.0" encoding="utf-8"?>
<!-- Generator: Adobe Illustrator 17.0.0, SVG Export Plug-In . SVG Version: 6.00 Build 0)  -->
<!DOCTYPE svg PUBLIC "-//W3C//DTD SVG 1.1//EN" "http://www.w3.org/Graphics/SVG/1.1/DTD/svg11.dtd">
<svg version="1.1" id="Layer_1" xmlns="http://www.w3.org/2000/svg" xmlns:xlink="http://www.w3.org/1999/xlink" x="0px" y="0px"
	 width="99.36px" height="48px" viewBox="0 0 99.36 48" enable-background="new 0 0 99.36 48" xml:space="preserve">
<g>
	
		<image overflow="visible" opacity="0.2" width="207" height="100" xlink:href="4009972D45B1366E.png"  transform="matrix(0.48 0 0 0.48 0 0)">
	</image>
	<g>
		<path fill="#DDB2D3" d="M86.913,25.901C86.466,21.897,79.739,12,68.727,12h-37.79C19.925,12,12,22.376,12,28.282
			c0,0,0.069,3.96,2.406,5.485c1.196,0.78,2.667,0.853,3.571-0.451c0.795-1.147,1.798-3.967,2.695-5.005
			c0.583-0.675,1.973-1.968,2.789-2.002c0.745-0.031,2.027,1.13,2.652,1.611c0.59,0.454,1.496,1.958,2.191,2.093
			c1.029,0.201,3.151-0.863,3.915-1.703c0.628-0.69,0.827-2.957,1.417-3.693c1.17-1.46,4.384-3.236,6.037-3.714
			c1.188-0.344,3.691-0.26,4.894,0c1.032,0.223,3.014,1.142,3.926,1.756c1.127,0.759,3.054,2.851,4.055,3.827
			c0.459,0.447,1.278,1.512,1.811,1.824c0.362,0.211,1.174,0.407,1.577,0.401c0.645-0.009,1.925-0.389,2.51-0.711
			c0.743-0.409,2.034-1.645,2.635-2.304c0.387-0.424,1.085-1.371,1.38-1.888c0.284-0.496,0.529-1.762,0.929-2.128
			c0.319-0.292,1.176-0.496,1.575-0.422c0.536,0.1,1.598,0.754,1.866,1.312c0.336,0.698,0,2.411,0,3.214
			c0,1.461-0.222,4.404,0,5.843c1.02,6.605,6.513,4.737,6.831,0.614c0.073-0.948-0.377-3.076-0.025-3.932
			c0.375-0.914,1.394-3.043,2.253-3.07c0.811-0.025,1.749,2.008,2.253,2.76c0.83,1.239,1.474,4.902,2.897,5.315
			C84.709,34.38,86.913,25.901,86.913,25.901z"/>
	</g>
</g>
<linearGradient id="SVGID_1_" gradientUnits="userSpaceOnUse" x1="41.642" y1="12.0411" x2="43.6017" y2="12.0411">
	<stop  offset="0.0597" style="stop-color:#005F2C"/>
	<stop  offset="0.1979" style="stop-color:#036330"/>
	<stop  offset="0.4073" style="stop-color:#0E6834"/>
	<stop  offset="0.6499" style="stop-color:#136A36"/>
	<stop  offset="1" style="stop-color:#156B36"/>
</linearGradient>
<path fill="url(#SVGID_1_)" d="M42.262,14.735c0,0-0.332-1.964-0.533-2.653c-0.195-0.666,0-2.699,0-2.699s0.101-0.451,0.595-0.451
	c0.596,0,0.545,0.327,0.545,0.327s-0.127,2.019,0.033,2.708c0.168,0.727,0.701,2.767,0.701,2.767s-0.081,0.415-0.645,0.415
	C42.479,15.15,42.262,14.735,42.262,14.735z"/>
<linearGradient id="SVGID_2_" gradientUnits="userSpaceOnUse" x1="59.4198" y1="10.2541" x2="61.3795" y2="10.2541">
	<stop  offset="0.0597" style="stop-color:#FDB72A"/>
	<stop  offset="0.2492" style="stop-color:#F2B025"/>
	<stop  offset="0.5563" style="stop-color:#EAAB23"/>
	<stop  offset="1" style="stop-color:#E8A922"/>
</linearGradient>
<path fill="url(#SVGID_2_)" d="M60.04,12.948c0,0-0.332-1.964-0.533-2.653c-0.195-0.666,0-2.699,0-2.699s0.101-0.451,0.595-0.451
	c0.596,0,0.545,0.327,0.545,0.327s-0.127,2.019,0.033,2.708c0.168,0.727,0.701,2.767,0.701,2.767s-0.081,0.415-0.645,0.415
	C60.257,13.363,60.04,12.948,60.04,12.948z"/>
<linearGradient id="SVGID_3_" gradientUnits="userSpaceOnUse" x1="-456.0564" y1="-1820.2616" x2="-454.0967" y2="-1820.2616" gradientTransform="matrix(0.7463 0.6656 -0.6656 0.7463 -793.3663 1674.4535)">
	<stop  offset="0.0597" style="stop-color:#FDB72A"/>
	<stop  offset="0.2492" style="stop-color:#F2B025"/>
	<stop  offset="0.5563" style="stop-color:#EAAB23"/>
	<stop  offset="1" style="stop-color:#E8A922"/>
</linearGradient>
<path fill="url(#SVGID_3_)" d="M76.491,14.838c0,0,1.059-1.687,1.368-2.335c0.298-0.627,1.796-2.014,1.796-2.014
	s0.375-0.269,0.744,0.06c0.445,0.397,0.189,0.607,0.189,0.607s-1.438,1.422-1.778,2.043c-0.358,0.654-1.319,2.532-1.319,2.532
	s-0.336,0.256-0.758-0.12C76.377,15.292,76.491,14.838,76.491,14.838z"/>
<linearGradient id="SVGID_4_" gradientUnits="userSpaceOnUse" x1="-1398.9365" y1="-4182.771" x2="-1396.9768" y2="-4182.771" gradientTransform="matrix(0.3654 0.9309 -0.5593 0.2196 -1743.1475 2244.9241)">
	<stop  offset="0.0597" style="stop-color:#0099A9"/>
	<stop  offset="0.1463" style="stop-color:#008FA9"/>
	<stop  offset="0.31" style="stop-color:#0081A8"/>
	<stop  offset="0.4905" style="stop-color:#0078A7"/>
	<stop  offset="0.6991" style="stop-color:#0072A6"/>
	<stop  offset="1" style="stop-color:#0071A7"/>
</linearGradient>
<path fill="url(#SVGID_4_)" d="M83.965,25.515c0,0,0.977-0.74,1.289-1.079c0.302-0.328,1.51-0.593,1.51-0.593
	s0.289-0.005,0.469,0.455c0.218,0.555,0.016,0.579,0.016,0.579s-1.176,0.325-1.503,0.625c-0.345,0.316-1.292,1.26-1.292,1.26
	s-0.262,0.016-0.468-0.509C83.812,25.809,83.965,25.515,83.965,25.515z"/>
<linearGradient id="SVGID_5_" gradientUnits="userSpaceOnUse" x1="-487.8727" y1="2930.2441" x2="-485.913" y2="2930.2441" gradientTransform="matrix(0.8126 -0.5828 0.3502 0.4883 -601.7338 -1702.4916)">
	<stop  offset="0.0597" style="stop-color:#005F2C"/>
	<stop  offset="0.1979" style="stop-color:#036330"/>
	<stop  offset="0.4073" style="stop-color:#0E6834"/>
	<stop  offset="0.6499" style="stop-color:#136A36"/>
	<stop  offset="1" style="stop-color:#156B36"/>
</linearGradient>
<path fill="url(#SVGID_5_)" d="M29.468,13.576c0,0-0.958-0.765-1.363-0.985c-0.392-0.212-0.945-1.318-0.945-1.318
	s-0.076-0.279,0.326-0.567c0.485-0.348,0.557-0.158,0.557-0.158s0.604,1.06,0.975,1.303c0.391,0.257,1.539,0.943,1.539,0.943
	s0.08,0.25-0.379,0.579C29.79,13.651,29.468,13.576,29.468,13.576z"/>
<linearGradient id="SVGID_6_" gradientUnits="userSpaceOnUse" x1="-2227.5635" y1="4609.2671" x2="-2225.6038" y2="4609.2671" gradientTransform="matrix(0.2359 -0.9718 0.5839 0.1418 -2154.0164 -2790.4324)">
	<stop  offset="0.0597" style="stop-color:#0099A9"/>
	<stop  offset="0.1463" style="stop-color:#008FA9"/>
	<stop  offset="0.31" style="stop-color:#0081A8"/>
	<stop  offset="0.4905" style="stop-color:#0078A7"/>
	<stop  offset="0.6991" style="stop-color:#0072A6"/>
	<stop  offset="1" style="stop-color:#0071A7"/>
</linearGradient>
<path fill="url(#SVGID_6_)" d="M13.548,27.504c0,0-1.225,0.044-1.675,0.142c-0.435,0.095-1.576-0.383-1.576-0.383
	s-0.239-0.162-0.123-0.642c0.141-0.58,0.32-0.483,0.32-0.483s1.149,0.409,1.589,0.352c0.464-0.06,1.781-0.289,1.781-0.289
	s0.223,0.137,0.09,0.686C13.841,27.351,13.548,27.504,13.548,27.504z"/>
<linearGradient id="SVGID_7_" gradientUnits="userSpaceOnUse" x1="-2130.9172" y1="2511.6665" x2="-2128.9578" y2="2511.6665" gradientTransform="matrix(0.2516 -0.9678 0.9678 0.2516 -1881.1614 -2673.0085)">
	<stop  offset="0.0597" style="stop-color:#FDB72A"/>
	<stop  offset="0.2492" style="stop-color:#F2B025"/>
	<stop  offset="0.5563" style="stop-color:#EAAB23"/>
	<stop  offset="1" style="stop-color:#E8A922"/>
</linearGradient>
<path fill="url(#SVGID_7_)" d="M16.312,21.387c0,0-1.984-0.173-2.702-0.151c-0.694,0.021-2.612-0.679-2.612-0.679
	s-0.411-0.211-0.286-0.689c0.15-0.577,0.454-0.445,0.454-0.445s1.922,0.631,2.629,0.65c0.746,0.02,2.855,0.018,2.855,0.018
	s0.381,0.183,0.239,0.729C16.769,21.281,16.312,21.387,16.312,21.387z"/>
<linearGradient id="SVGID_8_" gradientUnits="userSpaceOnUse" x1="-498.492" y1="2930.5273" x2="-496.5323" y2="2930.5273" gradientTransform="matrix(0.8126 -0.5828 0.3502 0.4883 -601.7338 -1702.4916)">
	<stop  offset="0.0597" style="stop-color:#005F2C"/>
	<stop  offset="0.1979" style="stop-color:#036330"/>
	<stop  offset="0.4073" style="stop-color:#0E6834"/>
	<stop  offset="0.6499" style="stop-color:#136A36"/>
	<stop  offset="1" style="stop-color:#156B36"/>
</linearGradient>
<path fill="url(#SVGID_8_)" d="M20.938,19.903c0,0-0.958-0.765-1.363-0.985c-0.392-0.212-0.945-1.318-0.945-1.318
	s-0.076-0.279,0.326-0.567c0.485-0.348,0.557-0.158,0.557-0.158s0.604,1.06,0.975,1.303c0.391,0.257,1.539,0.943,1.539,0.943
	s0.08,0.25-0.379,0.579C21.26,19.979,20.938,19.903,20.938,19.903z"/>
<linearGradient id="SVGID_9_" gradientUnits="userSpaceOnUse" x1="98.0811" y1="-470.9058" x2="100.0408" y2="-470.9058" gradientTransform="matrix(0.9829 0.1841 -0.1106 0.5906 -96.3488 280.2792)">
	<stop  offset="0.0597" style="stop-color:#0099A9"/>
	<stop  offset="0.1463" style="stop-color:#008FA9"/>
	<stop  offset="0.31" style="stop-color:#0081A8"/>
	<stop  offset="0.4905" style="stop-color:#0078A7"/>
	<stop  offset="0.6991" style="stop-color:#0072A6"/>
	<stop  offset="1" style="stop-color:#0071A7"/>
</linearGradient>
<path fill="url(#SVGID_9_)" d="M52.457,21.916c0,0-0.109-1.221-0.231-1.665c-0.118-0.429,0.299-1.594,0.299-1.594
	s0.149-0.248,0.635-0.157c0.586,0.11,0.499,0.294,0.499,0.294s-0.348,1.169-0.267,1.605c0.085,0.46,0.383,1.764,0.383,1.764
	s-0.125,0.23-0.68,0.126C52.625,22.201,52.457,21.916,52.457,21.916z"/>
<linearGradient id="SVGID_10_" gradientUnits="userSpaceOnUse" x1="80.4102" y1="-824.4981" x2="82.3699" y2="-824.4981" gradientTransform="matrix(0.9664 0.2572 -0.1546 0.5807 -140.4881 469.2602)">
	<stop  offset="0.0597" style="stop-color:#0099A9"/>
	<stop  offset="0.1463" style="stop-color:#008FA9"/>
	<stop  offset="0.31" style="stop-color:#0081A8"/>
	<stop  offset="0.4905" style="stop-color:#0078A7"/>
	<stop  offset="0.6991" style="stop-color:#0072A6"/>
	<stop  offset="1" style="stop-color:#0071A7"/>
</linearGradient>
<path fill="url(#SVGID_10_)" d="M64.833,12.91c0,0-0.017-1.226-0.105-1.678c-0.085-0.437,0.417-1.567,0.417-1.567
	s0.167-0.236,0.644-0.109c0.576,0.153,0.476,0.33,0.476,0.33s-0.434,1.14-0.387,1.581c0.05,0.465,0.25,1.787,0.25,1.787
	s-0.142,0.22-0.687,0.075C64.979,13.207,64.833,12.91,64.833,12.91z"/>
<linearGradient id="SVGID_11_" gradientUnits="userSpaceOnUse" x1="-352.2697" y1="2464.4504" x2="-350.3099" y2="2464.4504" gradientTransform="matrix(0.8897 -0.4565 0.2743 0.5346 -338.788 -1464.1469)">
	<stop  offset="0.0597" style="stop-color:#0099A9"/>
	<stop  offset="0.1463" style="stop-color:#008FA9"/>
	<stop  offset="0.31" style="stop-color:#0081A8"/>
	<stop  offset="0.4905" style="stop-color:#0078A7"/>
	<stop  offset="0.6991" style="stop-color:#0072A6"/>
	<stop  offset="1" style="stop-color:#0071A7"/>
</linearGradient>
<path fill="url(#SVGID_11_)" d="M25.032,15.378c0,0-0.834-0.898-1.202-1.175c-0.356-0.267-0.74-1.443-0.74-1.443
	s-0.034-0.287,0.406-0.512c0.531-0.272,0.574-0.074,0.574-0.074s0.441,1.137,0.772,1.433c0.349,0.312,1.383,1.16,1.383,1.16
	s0.042,0.259-0.46,0.516C25.34,15.501,25.032,15.378,25.032,15.378z"/>
<linearGradient id="SVGID_12_" gradientUnits="userSpaceOnUse" x1="-277.0049" y1="1193.2422" x2="-275.0452" y2="1193.2422" gradientTransform="matrix(0.897 -0.442 0.442 0.897 -249.3542 -1180.8805)">
	<stop  offset="0.0597" style="stop-color:#FDB72A"/>
	<stop  offset="0.2492" style="stop-color:#F2B025"/>
	<stop  offset="0.5563" style="stop-color:#EAAB23"/>
	<stop  offset="1" style="stop-color:#E8A922"/>
</linearGradient>
<path fill="url(#SVGID_12_)" d="M31.384,14.041c0,0-1.166-1.615-1.651-2.144c-0.469-0.512-1.193-2.421-1.193-2.421
	s-0.109-0.449,0.334-0.667c0.535-0.264,0.633,0.053,0.633,0.053s0.779,1.867,1.226,2.414c0.472,0.577,1.852,2.173,1.852,2.173
	s0.111,0.408-0.395,0.657C31.762,14.317,31.384,14.041,31.384,14.041z"/>
<linearGradient id="SVGID_13_" gradientUnits="userSpaceOnUse" x1="83.9008" y1="-728.2507" x2="85.8605" y2="-728.2507" gradientTransform="matrix(0.9722 0.2342 -0.1407 0.5842 -147.8344 421.7835)">
	<stop  offset="0.0597" style="stop-color:#E63825"/>
	<stop  offset="0.0677" style="stop-color:#E43725"/>
	<stop  offset="0.2467" style="stop-color:#C82B25"/>
	<stop  offset="0.4433" style="stop-color:#B62424"/>
	<stop  offset="0.6712" style="stop-color:#AC2023"/>
	<stop  offset="1" style="stop-color:#A81E23"/>
</linearGradient>
<path fill="url(#SVGID_13_)" d="M36.435,17.726c0,0-0.046-1.225-0.145-1.675c-0.096-0.435,0.38-1.577,0.38-1.577
	s0.161-0.24,0.642-0.124c0.58,0.14,0.483,0.319,0.483,0.319s-0.407,1.15-0.349,1.589c0.061,0.464,0.292,1.781,0.292,1.781
	s-0.137,0.223-0.685,0.091C36.589,18.019,36.435,17.726,36.435,17.726z"/>
<linearGradient id="SVGID_14_" gradientUnits="userSpaceOnUse" x1="-329.3893" y1="2481.8789" x2="-327.4296" y2="2481.8789" gradientTransform="matrix(0.8897 -0.4565 0.2743 0.5346 -338.788 -1464.1469)">
	<stop  offset="0.0597" style="stop-color:#005F2C"/>
	<stop  offset="0.1979" style="stop-color:#036330"/>
	<stop  offset="0.4073" style="stop-color:#0E6834"/>
	<stop  offset="0.6499" style="stop-color:#136A36"/>
	<stop  offset="1" style="stop-color:#156B36"/>
</linearGradient>
<path fill="url(#SVGID_14_)" d="M50.17,14.252c0,0-0.834-0.898-1.202-1.175c-0.356-0.267-0.74-1.443-0.74-1.443
	s-0.034-0.287,0.406-0.512c0.531-0.272,0.574-0.074,0.574-0.074s0.441,1.137,0.772,1.433c0.349,0.312,1.383,1.16,1.383,1.16
	s0.042,0.259-0.46,0.516C50.478,14.375,50.17,14.252,50.17,14.252z"/>
<linearGradient id="SVGID_15_" gradientUnits="userSpaceOnUse" x1="93.0299" y1="293.5674" x2="94.9896" y2="293.5674" gradientTransform="matrix(0.995 -0.1002 0.1002 0.995 -66.4579 -271.364)">
	<stop  offset="0.0597" style="stop-color:#E63825"/>
	<stop  offset="0.0677" style="stop-color:#E43725"/>
	<stop  offset="0.2467" style="stop-color:#C82B25"/>
	<stop  offset="0.4433" style="stop-color:#B62424"/>
	<stop  offset="0.6712" style="stop-color:#AC2023"/>
	<stop  offset="1" style="stop-color:#A81E23"/>
</linearGradient>
<path fill="url(#SVGID_15_)" d="M56.419,14.017c0,0-0.527-1.921-0.797-2.586c-0.261-0.643-0.271-2.685-0.271-2.685
	s0.055-0.458,0.547-0.508c0.593-0.06,0.575,0.271,0.575,0.271s0.076,2.021,0.304,2.691c0.24,0.706,0.975,2.683,0.975,2.683
	s-0.039,0.421-0.6,0.477C56.677,14.408,56.419,14.017,56.419,14.017z"/>
<linearGradient id="SVGID_16_" gradientUnits="userSpaceOnUse" x1="100.5746" y1="-739.3247" x2="102.5343" y2="-739.3247" gradientTransform="matrix(0.9722 0.2342 -0.1407 0.5842 -147.8344 421.7835)">
	<stop  offset="0.0597" style="stop-color:#FDB72A"/>
	<stop  offset="0.2492" style="stop-color:#F2B025"/>
	<stop  offset="0.5563" style="stop-color:#EAAB23"/>
	<stop  offset="1" style="stop-color:#E8A922"/>
</linearGradient>
<path fill="url(#SVGID_16_)" d="M54.204,15.162c0,0-0.046-1.225-0.145-1.675c-0.096-0.435,0.38-1.577,0.38-1.577
	s0.161-0.24,0.642-0.124c0.58,0.14,0.483,0.319,0.483,0.319s-0.407,1.15-0.349,1.589c0.061,0.464,0.292,1.781,0.292,1.781
	s-0.137,0.223-0.685,0.091C54.357,15.455,54.204,15.162,54.204,15.162z"/>
<linearGradient id="SVGID_17_" gradientUnits="userSpaceOnUse" x1="-287.4449" y1="-1574.3085" x2="-285.4853" y2="-1574.3085" gradientTransform="matrix(0.8107 0.5855 -0.5855 0.8107 -621.4074 1462.1183)">
	<stop  offset="0.0597" style="stop-color:#FDB72A"/>
	<stop  offset="0.2492" style="stop-color:#F2B025"/>
	<stop  offset="0.5563" style="stop-color:#EAAB23"/>
	<stop  offset="1" style="stop-color:#E8A922"/>
</linearGradient>
<path fill="url(#SVGID_17_)" d="M66.253,20.118c0,0,0.881-1.786,1.121-2.463c0.232-0.654,1.58-2.188,1.58-2.188
	s0.345-0.306,0.746-0.017c0.484,0.349,0.25,0.584,0.25,0.584s-1.285,1.563-1.559,2.214c-0.289,0.688-1.052,2.654-1.052,2.654
	s-0.308,0.289-0.766-0.041C66.187,20.582,66.253,20.118,66.253,20.118z"/>
<linearGradient id="SVGID_18_" gradientUnits="userSpaceOnUse" x1="-406.7831" y1="-2620.8188" x2="-404.8234" y2="-2620.8188" gradientTransform="matrix(0.763 0.6463 -0.3884 0.4585 -633.3669 1477.3639)">
	<stop  offset="0.0597" style="stop-color:#005F2C"/>
	<stop  offset="0.1979" style="stop-color:#036330"/>
	<stop  offset="0.4073" style="stop-color:#0E6834"/>
	<stop  offset="0.6499" style="stop-color:#136A36"/>
	<stop  offset="1" style="stop-color:#156B36"/>
</linearGradient>
<path fill="url(#SVGID_18_)" d="M73.526,14.426c0,0,0.509-1.115,0.623-1.561c0.11-0.431,1.048-1.237,1.048-1.237
	s0.252-0.142,0.629,0.178c0.455,0.386,0.288,0.502,0.288,0.502s-0.881,0.844-1.027,1.263c-0.154,0.442-0.54,1.722-0.54,1.722
	s-0.223,0.138-0.653-0.227C73.531,14.757,73.526,14.426,73.526,14.426z"/>
<linearGradient id="SVGID_19_" gradientUnits="userSpaceOnUse" x1="-1771.309" y1="-4100.5312" x2="-1769.3492" y2="-4100.5312" gradientTransform="matrix(0.2348 0.972 -0.5841 0.1411 -1899.4373 2315.1289)">
	<stop  offset="0.0597" style="stop-color:#E63825"/>
	<stop  offset="0.0677" style="stop-color:#E43725"/>
	<stop  offset="0.2467" style="stop-color:#C82B25"/>
	<stop  offset="0.4433" style="stop-color:#B62424"/>
	<stop  offset="0.6712" style="stop-color:#AC2023"/>
	<stop  offset="1" style="stop-color:#A81E23"/>
</linearGradient>
<path fill="url(#SVGID_19_)" d="M78.302,15.8c0,0,1.069-0.6,1.424-0.893c0.343-0.283,1.576-0.381,1.576-0.381
	s0.287,0.034,0.403,0.515c0.14,0.58-0.063,0.576-0.063,0.576s-1.209,0.162-1.574,0.414c-0.385,0.266-1.452,1.072-1.452,1.072
	s-0.261-0.02-0.394-0.568C78.111,16.07,78.302,15.8,78.302,15.8z"/>
<linearGradient id="SVGID_20_" gradientUnits="userSpaceOnUse" x1="-22.0286" y1="-1078.4084" x2="-20.0689" y2="-1078.4084" gradientTransform="matrix(0.9142 0.4052 -0.4052 0.9142 -334.4237 1012.7816)">
	<stop  offset="0.0597" style="stop-color:#FDB72A"/>
	<stop  offset="0.2492" style="stop-color:#F2B025"/>
	<stop  offset="0.5563" style="stop-color:#EAAB23"/>
	<stop  offset="1" style="stop-color:#E8A922"/>
</linearGradient>
<path fill="url(#SVGID_20_)" d="M81.908,20.669c0,0,0.492-1.93,0.588-2.642c0.092-0.688,1.094-2.467,1.094-2.467
	s0.275-0.371,0.726-0.171c0.545,0.242,0.365,0.52,0.365,0.52s-0.934,1.794-1.067,2.489c-0.141,0.732-0.481,2.814-0.481,2.814
	s-0.242,0.347-0.758,0.118C81.939,21.136,81.908,20.669,81.908,20.669z"/>
<linearGradient id="SVGID_21_" gradientUnits="userSpaceOnUse" x1="69.5458" y1="-1002.131" x2="71.5055" y2="-1002.131" gradientTransform="matrix(0.9574 0.2887 -0.1735 0.5753 -160.6681 577.54)">
	<stop  offset="0.0597" style="stop-color:#005F2C"/>
	<stop  offset="0.1979" style="stop-color:#036330"/>
	<stop  offset="0.4073" style="stop-color:#0E6834"/>
	<stop  offset="0.6499" style="stop-color:#136A36"/>
	<stop  offset="1" style="stop-color:#156B36"/>
</linearGradient>
<path fill="url(#SVGID_21_)" d="M79.875,22.818c0,0,0.023-1.226-0.05-1.68c-0.071-0.44,0.468-1.553,0.468-1.553
	s0.175-0.23,0.648-0.087c0.571,0.172,0.465,0.346,0.465,0.346s-0.472,1.125-0.438,1.567c0.035,0.467,0.191,1.794,0.191,1.794
	s-0.149,0.215-0.69,0.052C80.011,23.119,79.875,22.818,79.875,22.818z"/>
<linearGradient id="SVGID_22_" gradientUnits="userSpaceOnUse" x1="4658.082" y1="1849.9359" x2="4660.042" y2="1849.9359" gradientTransform="matrix(0.9648 0.2628 -0.1579 0.5798 -4158.7827 -2279.2397)">
	<stop  offset="0.0597" style="stop-color:#FDB72A"/>
	<stop  offset="0.2492" style="stop-color:#F2B025"/>
	<stop  offset="0.5563" style="stop-color:#EAAB23"/>
	<stop  offset="1" style="stop-color:#E8A922"/>
</linearGradient>
<path fill="url(#SVGID_22_)" d="M43.503,19.356c0,0-0.01-1.226-0.096-1.678c-0.083-0.437,0.426-1.565,0.426-1.565
	s0.168-0.235,0.645-0.105c0.576,0.157,0.474,0.333,0.474,0.333s-0.441,1.137-0.396,1.578c0.048,0.465,0.239,1.789,0.239,1.789
	s-0.143,0.219-0.688,0.071C43.647,19.654,43.503,19.356,43.503,19.356z"/>
<linearGradient id="SVGID_23_" gradientUnits="userSpaceOnUse" x1="50.3835" y1="10.0834" x2="52.3432" y2="10.0834">
	<stop  offset="0.0597" style="stop-color:#B457A1"/>
	<stop  offset="0.093" style="stop-color:#B5579E"/>
	<stop  offset="0.267" style="stop-color:#BA5593"/>
	<stop  offset="0.4588" style="stop-color:#BD558C"/>
	<stop  offset="0.6803" style="stop-color:#BE5488"/>
	<stop  offset="1" style="stop-color:#BF5486"/>
</linearGradient>
<path fill="url(#SVGID_23_)" d="M51.003,12.777c0,0-0.332-1.964-0.533-2.653c-0.195-0.666,0-2.699,0-2.699s0.101-0.451,0.595-0.451
	c0.596,0,0.545,0.327,0.545,0.327s-0.127,2.019,0.033,2.708c0.168,0.727,0.701,2.767,0.701,2.767s-0.081,0.415-0.645,0.415
	C51.221,13.192,51.003,12.777,51.003,12.777z"/>
<linearGradient id="SVGID_24_" gradientUnits="userSpaceOnUse" x1="-464.4297" y1="-2926.2952" x2="-462.47" y2="-2926.2952" gradientTransform="matrix(0.7463 0.6656 -0.396 0.4441 -744.6732 1619.8547)">
	<stop  offset="0.0597" style="stop-color:#B457A1"/>
	<stop  offset="0.093" style="stop-color:#B5579E"/>
	<stop  offset="0.267" style="stop-color:#BA5593"/>
	<stop  offset="0.4588" style="stop-color:#BD558C"/>
	<stop  offset="0.6803" style="stop-color:#BE5488"/>
	<stop  offset="1" style="stop-color:#BF5486"/>
</linearGradient>
<path fill="url(#SVGID_24_)" d="M67.051,12.842c0,0,0.53-1.093,0.653-1.533c0.119-0.425,1.069-1.199,1.069-1.199
	s0.254-0.133,0.622,0.196c0.445,0.397,0.277,0.508,0.277,0.508s-0.894,0.812-1.048,1.224c-0.162,0.435-0.573,1.695-0.573,1.695
	s-0.225,0.13-0.646-0.245C67.049,13.171,67.051,12.842,67.051,12.842z"/>
<linearGradient id="SVGID_25_" gradientUnits="userSpaceOnUse" x1="-805.0601" y1="1898.3026" x2="-803.1003" y2="1898.3026" gradientTransform="matrix(0.6979 -0.7162 0.7162 0.6979 -778.968 -1885.6869)">
	<stop  offset="0.0597" style="stop-color:#B457A1"/>
	<stop  offset="0.093" style="stop-color:#B5579E"/>
	<stop  offset="0.267" style="stop-color:#BA5593"/>
	<stop  offset="0.4588" style="stop-color:#BD558C"/>
	<stop  offset="0.6803" style="stop-color:#BE5488"/>
	<stop  offset="1" style="stop-color:#BF5486"/>
</linearGradient>
<path fill="url(#SVGID_25_)" d="M21.164,17.127c0,0-1.638-1.133-2.272-1.47c-0.613-0.326-1.933-1.883-1.933-1.883
	s-0.252-0.387,0.092-0.74c0.416-0.427,0.615-0.162,0.615-0.162s1.358,1.5,1.962,1.866c0.638,0.387,2.471,1.429,2.471,1.429
	s0.241,0.347-0.153,0.752C21.613,17.261,21.164,17.127,21.164,17.127z"/>
<linearGradient id="SVGID_26_" gradientUnits="userSpaceOnUse" x1="-297.3446" y1="1804.7362" x2="-295.3849" y2="1804.7362" gradientTransform="matrix(0.897 -0.442 0.3096 0.6283 -278.6012 -1240.2288)">
	<stop  offset="0.0597" style="stop-color:#B457A1"/>
	<stop  offset="0.093" style="stop-color:#B5579E"/>
	<stop  offset="0.267" style="stop-color:#BA5593"/>
	<stop  offset="0.4588" style="stop-color:#BD558C"/>
	<stop  offset="0.6803" style="stop-color:#BE5488"/>
	<stop  offset="1" style="stop-color:#BF5486"/>
</linearGradient>
<path fill="url(#SVGID_26_)" d="M14.873,26.552c0,0-0.906-1.087-1.3-1.431c-0.381-0.333-0.836-1.696-0.836-1.696
	s-0.049-0.328,0.394-0.546c0.535-0.264,0.59-0.035,0.59-0.035s0.511,1.325,0.868,1.687c0.376,0.382,1.486,1.429,1.486,1.429
	s0.056,0.296-0.45,0.546C15.197,26.716,14.873,26.552,14.873,26.552z"/>
<linearGradient id="SVGID_27_" gradientUnits="userSpaceOnUse" x1="80.6758" y1="-723.6594" x2="82.6355" y2="-723.6594" gradientTransform="matrix(0.9722 0.2342 -0.1407 0.5842 -147.8344 421.7835)">
	<stop  offset="0.0597" style="stop-color:#B457A1"/>
	<stop  offset="0.093" style="stop-color:#B5579E"/>
	<stop  offset="0.267" style="stop-color:#BA5593"/>
	<stop  offset="0.4588" style="stop-color:#BD558C"/>
	<stop  offset="0.6803" style="stop-color:#BE5488"/>
	<stop  offset="1" style="stop-color:#BF5486"/>
</linearGradient>
<path fill="url(#SVGID_27_)" d="M32.654,19.653c0,0-0.046-1.225-0.145-1.675c-0.096-0.435,0.38-1.577,0.38-1.577
	s0.161-0.24,0.642-0.124c0.58,0.14,0.483,0.319,0.483,0.319s-0.407,1.15-0.349,1.589c0.061,0.464,0.292,1.781,0.292,1.781
	s-0.137,0.223-0.685,0.091C32.807,19.946,32.654,19.653,32.654,19.653z"/>
<linearGradient id="SVGID_28_" gradientUnits="userSpaceOnUse" x1="72.9349" y1="-564.1075" x2="74.8946" y2="-564.1075" gradientTransform="matrix(0.9741 0.226 -0.226 0.9741 -136.6233 548.1964)">
	<stop  offset="0.0597" style="stop-color:#B457A1"/>
	<stop  offset="0.093" style="stop-color:#B5579E"/>
	<stop  offset="0.267" style="stop-color:#BA5593"/>
	<stop  offset="0.4588" style="stop-color:#BD558C"/>
	<stop  offset="0.6803" style="stop-color:#BE5488"/>
	<stop  offset="1" style="stop-color:#BF5486"/>
</linearGradient>
<path fill="url(#SVGID_28_)" d="M61.898,17.928c0,0,0.12-1.988,0.08-2.705c-0.039-0.693,0.61-2.629,0.61-2.629
	s0.2-0.416,0.681-0.304c0.581,0.135,0.457,0.442,0.457,0.442s-0.58,1.938-0.58,2.645c0,0.746,0.057,2.854,0.057,2.854
	s-0.172,0.386-0.722,0.258C62.017,18.381,61.898,17.928,61.898,17.928z"/>
<linearGradient id="SVGID_29_" gradientUnits="userSpaceOnUse" x1="-28.4804" y1="-1498.3883" x2="-26.5206" y2="-1498.3883" gradientTransform="matrix(0.9142 0.4052 -0.2716 0.6129 -310.4566 958.7096)">
	<stop  offset="0.0597" style="stop-color:#B457A1"/>
	<stop  offset="0.093" style="stop-color:#B5579E"/>
	<stop  offset="0.267" style="stop-color:#BA5593"/>
	<stop  offset="0.4588" style="stop-color:#BD558C"/>
	<stop  offset="0.6803" style="stop-color:#BE5488"/>
	<stop  offset="1" style="stop-color:#BF5486"/>
</linearGradient>
<path fill="url(#SVGID_29_)" d="M70.377,30.763c0,0,0.23-1.338,0.233-1.842c0.003-0.487,0.733-1.654,0.733-1.654
	s0.214-0.235,0.666-0.035c0.545,0.242,0.409,0.421,0.409,0.421s-0.664,1.186-0.706,1.673c-0.044,0.513-0.111,1.98-0.111,1.98
	s-0.187,0.222-0.702-0.007C70.463,31.106,70.377,30.763,70.377,30.763z"/>
<linearGradient id="SVGID_30_" gradientUnits="userSpaceOnUse" x1="-3303.2715" y1="-4106.7808" x2="-3301.3118" y2="-4106.7808" gradientTransform="matrix(-0.3482 0.9374 -0.5633 -0.2093 -3383.2288 2263.0452)">
	<stop  offset="0.0597" style="stop-color:#B457A1"/>
	<stop  offset="0.093" style="stop-color:#B5579E"/>
	<stop  offset="0.267" style="stop-color:#BA5593"/>
	<stop  offset="0.4588" style="stop-color:#BD558C"/>
	<stop  offset="0.6803" style="stop-color:#BE5488"/>
	<stop  offset="1" style="stop-color:#BF5486"/>
</linearGradient>
<path fill="url(#SVGID_30_)" d="M78.595,25.901c0,0,1.222,0.1,1.68,0.055c0.443-0.043,1.52,0.565,1.52,0.565
	s0.219,0.189,0.047,0.652c-0.208,0.559-0.374,0.442-0.374,0.442s-1.093-0.541-1.537-0.536c-0.468,0.006-1.803,0.078-1.803,0.078
	s-0.206-0.163-0.009-0.691C78.285,26.018,78.595,25.901,78.595,25.901z"/>
<linearGradient id="SVGID_31_" gradientUnits="userSpaceOnUse" x1="33.258" y1="13.457" x2="35.2177" y2="13.457">
	<stop  offset="0.0597" style="stop-color:#E8773A"/>
	<stop  offset="0.0902" style="stop-color:#E97739"/>
	<stop  offset="0.4624" style="stop-color:#F07338"/>
	<stop  offset="1" style="stop-color:#F37237"/>
</linearGradient>
<path fill="url(#SVGID_31_)" d="M33.878,15.436c0,0-0.332-1.443-0.533-1.949c-0.195-0.49,0-1.983,0-1.983s0.101-0.331,0.595-0.331
	c0.596,0,0.545,0.241,0.545,0.241s-0.127,1.483,0.033,1.989c0.168,0.534,0.701,2.033,0.701,2.033s-0.081,0.305-0.645,0.305
	C34.095,15.741,33.878,15.436,33.878,15.436z"/>
<linearGradient id="SVGID_32_" gradientUnits="userSpaceOnUse" x1="-492.6629" y1="2936.4939" x2="-490.7032" y2="2936.4939" gradientTransform="matrix(0.8126 -0.5828 0.3502 0.4883 -601.7338 -1702.4916)">
	<stop  offset="0.0597" style="stop-color:#E8773A"/>
	<stop  offset="0.0902" style="stop-color:#E97739"/>
	<stop  offset="0.4624" style="stop-color:#F07338"/>
	<stop  offset="1" style="stop-color:#F37237"/>
</linearGradient>
<path fill="url(#SVGID_32_)" d="M27.764,19.419c0,0-0.958-0.765-1.363-0.985c-0.392-0.212-0.945-1.318-0.945-1.318
	s-0.076-0.279,0.326-0.567c0.485-0.348,0.557-0.158,0.557-0.158s0.604,1.06,0.975,1.303c0.391,0.257,1.539,0.943,1.539,0.943
	s0.08,0.25-0.379,0.579C28.086,19.495,27.764,19.419,27.764,19.419z"/>
<linearGradient id="SVGID_33_" gradientUnits="userSpaceOnUse" x1="-501.8787" y1="2928.6558" x2="-499.919" y2="2928.6558" gradientTransform="matrix(0.8126 -0.5828 0.3502 0.4883 -601.7338 -1702.4916)">
	<stop  offset="0.0597" style="stop-color:#E8773A"/>
	<stop  offset="0.0902" style="stop-color:#E97739"/>
	<stop  offset="0.4624" style="stop-color:#F07338"/>
	<stop  offset="1" style="stop-color:#F37237"/>
</linearGradient>
<path fill="url(#SVGID_33_)" d="M17.53,20.963c0,0-0.958-0.765-1.363-0.985c-0.392-0.212-0.945-1.318-0.945-1.318
	s-0.076-0.279,0.326-0.567c0.485-0.348,0.557-0.158,0.557-0.158s0.604,1.06,0.975,1.303c0.391,0.257,1.539,0.943,1.539,0.943
	s0.08,0.25-0.379,0.579C17.852,21.039,17.53,20.963,17.53,20.963z"/>
<linearGradient id="SVGID_34_" gradientUnits="userSpaceOnUse" x1="-332.6465" y1="2485.8574" x2="-330.6868" y2="2485.8574" gradientTransform="matrix(0.8897 -0.4565 0.2743 0.5346 -338.788 -1464.1469)">
	<stop  offset="0.0597" style="stop-color:#E8773A"/>
	<stop  offset="0.0902" style="stop-color:#E97739"/>
	<stop  offset="0.4624" style="stop-color:#F07338"/>
	<stop  offset="1" style="stop-color:#F37237"/>
</linearGradient>
<path fill="url(#SVGID_34_)" d="M48.364,17.866c0,0-0.834-0.898-1.202-1.175c-0.356-0.267-0.74-1.443-0.74-1.443
	s-0.034-0.287,0.406-0.512c0.531-0.272,0.574-0.074,0.574-0.074s0.441,1.137,0.772,1.433c0.349,0.312,1.383,1.16,1.383,1.16
	s0.042,0.259-0.46,0.516C48.671,17.988,48.364,17.866,48.364,17.866z"/>
<linearGradient id="SVGID_35_" gradientUnits="userSpaceOnUse" x1="-405.3862" y1="-2609.2405" x2="-403.4265" y2="-2609.2405" gradientTransform="matrix(0.763 0.6463 -0.3884 0.4585 -633.3669 1477.3639)">
	<stop  offset="0.0597" style="stop-color:#E8773A"/>
	<stop  offset="0.0902" style="stop-color:#E97739"/>
	<stop  offset="0.4624" style="stop-color:#F07338"/>
	<stop  offset="1" style="stop-color:#F37237"/>
</linearGradient>
<path fill="url(#SVGID_35_)" d="M70.096,20.638c0,0,0.509-1.115,0.623-1.561c0.11-0.431,1.048-1.237,1.048-1.237
	s0.252-0.142,0.629,0.178c0.455,0.386,0.288,0.502,0.288,0.502s-0.881,0.844-1.027,1.263c-0.154,0.442-0.54,1.722-0.54,1.722
	s-0.223,0.138-0.653-0.227C70.101,20.968,70.096,20.638,70.096,20.638z"/>
<linearGradient id="SVGID_36_" gradientUnits="userSpaceOnUse" x1="-463.8636" y1="-2824.116" x2="-461.9039" y2="-2824.116" gradientTransform="matrix(0.7289 0.6846 -0.4113 0.438 -748.1276 1574.8534)">
	<stop  offset="0.0597" style="stop-color:#E8773A"/>
	<stop  offset="0.0902" style="stop-color:#E97739"/>
	<stop  offset="0.4624" style="stop-color:#F07338"/>
	<stop  offset="1" style="stop-color:#F37237"/>
</linearGradient>
<path fill="url(#SVGID_36_)" d="M74.781,21.918c0,0,0.566-1.087,0.703-1.527c0.132-0.425,1.11-1.182,1.11-1.182
	s0.259-0.128,0.619,0.21c0.435,0.408,0.262,0.516,0.262,0.516s-0.923,0.798-1.09,1.208c-0.176,0.433-0.628,1.692-0.628,1.692
	s-0.23,0.126-0.641-0.26C74.769,22.249,74.781,21.918,74.781,21.918z"/>
<linearGradient id="SVGID_37_" gradientUnits="userSpaceOnUse" x1="69.3114" y1="-710.992" x2="71.2711" y2="-710.992" gradientTransform="matrix(0.9722 0.2342 -0.1407 0.5842 -147.8344 421.7835)">
	<stop  offset="0.0597" style="stop-color:#E63825"/>
	<stop  offset="0.0677" style="stop-color:#E43725"/>
	<stop  offset="0.2467" style="stop-color:#C82B25"/>
	<stop  offset="0.4433" style="stop-color:#B62424"/>
	<stop  offset="0.6712" style="stop-color:#AC2023"/>
	<stop  offset="1" style="stop-color:#A81E23"/>
</linearGradient>
<path fill="url(#SVGID_37_)" d="M19.823,24.391c0,0-0.046-1.225-0.145-1.675c-0.096-0.435,0.38-1.577,0.38-1.577
	s0.161-0.24,0.642-0.124c0.58,0.14,0.483,0.319,0.483,0.319s-0.407,1.15-0.349,1.589c0.061,0.464,0.292,1.781,0.292,1.781
	s-0.137,0.223-0.685,0.091C19.976,24.685,19.823,24.391,19.823,24.391z"/>
<linearGradient id="SVGID_38_" gradientUnits="userSpaceOnUse" x1="74.8" y1="293.5285" x2="76.7597" y2="293.5285" gradientTransform="matrix(0.995 -0.1002 0.1002 0.995 -66.4579 -271.364)">
	<stop  offset="0.0597" style="stop-color:#E63825"/>
	<stop  offset="0.0677" style="stop-color:#E43725"/>
	<stop  offset="0.2467" style="stop-color:#C82B25"/>
	<stop  offset="0.4433" style="stop-color:#B62424"/>
	<stop  offset="0.6712" style="stop-color:#AC2023"/>
	<stop  offset="1" style="stop-color:#A81E23"/>
</linearGradient>
<path fill="url(#SVGID_38_)" d="M38.277,15.806c0,0-0.527-1.921-0.797-2.586c-0.26-0.643-0.271-2.685-0.271-2.685
	s0.055-0.458,0.547-0.508c0.593-0.06,0.575,0.271,0.575,0.271s0.076,2.021,0.304,2.691c0.24,0.706,0.975,2.683,0.975,2.683
	s-0.039,0.421-0.6,0.477C38.535,16.197,38.277,15.806,38.277,15.806z"/>
<linearGradient id="SVGID_39_" gradientUnits="userSpaceOnUse" x1="-1770.1646" y1="-4061.9116" x2="-1768.2048" y2="-4061.9116" gradientTransform="matrix(0.2348 0.972 -0.5841 0.1411 -1899.4373 2315.1289)">
	<stop  offset="0.0597" style="stop-color:#E63825"/>
	<stop  offset="0.0677" style="stop-color:#E43725"/>
	<stop  offset="0.2467" style="stop-color:#C82B25"/>
	<stop  offset="0.4433" style="stop-color:#B62424"/>
	<stop  offset="0.6712" style="stop-color:#AC2023"/>
	<stop  offset="1" style="stop-color:#A81E23"/>
</linearGradient>
<path fill="url(#SVGID_39_)" d="M56.013,22.361c0,0,1.069-0.6,1.424-0.893c0.343-0.283,1.576-0.381,1.576-0.381
	s0.287,0.034,0.403,0.515c0.14,0.58-0.063,0.576-0.063,0.576s-1.209,0.162-1.574,0.414c-0.385,0.266-1.452,1.072-1.452,1.072
	s-0.261-0.02-0.394-0.568C55.822,22.631,56.013,22.361,56.013,22.361z"/>
<linearGradient id="SVGID_40_" gradientUnits="userSpaceOnUse" x1="43.2799" y1="10.019" x2="45.2396" y2="10.019">
	<stop  offset="0.0597" style="stop-color:#FFFFFF"/>
	<stop  offset="0.1427" style="stop-color:#EDEFED"/>
	<stop  offset="0.3071" style="stop-color:#D8DDD9"/>
	<stop  offset="0.4883" style="stop-color:#CAD1CB"/>
	<stop  offset="0.6978" style="stop-color:#C2CAC4"/>
	<stop  offset="1" style="stop-color:#BFC8C2"/>
</linearGradient>
<path fill="url(#SVGID_40_)" d="M43.9,12.713c0,0-0.332-1.964-0.533-2.653c-0.195-0.666,0-2.699,0-2.699s0.101-0.451,0.595-0.451
	c0.596,0,0.545,0.327,0.545,0.327s-0.127,2.019,0.033,2.708c0.168,0.727,0.701,2.767,0.701,2.767s-0.081,0.415-0.645,0.415
	C44.117,13.128,43.9,12.713,43.9,12.713z"/>
<linearGradient id="SVGID_41_" gradientUnits="userSpaceOnUse" x1="-454.7177" y1="-2910.7131" x2="-452.7579" y2="-2910.7131" gradientTransform="matrix(0.7463 0.6656 -0.396 0.4441 -744.6732 1619.8547)">
	<stop  offset="0.0597" style="stop-color:#FFFFFF"/>
	<stop  offset="0.1427" style="stop-color:#EDEFED"/>
	<stop  offset="0.3071" style="stop-color:#D8DDD9"/>
	<stop  offset="0.4883" style="stop-color:#CAD1CB"/>
	<stop  offset="0.6978" style="stop-color:#C2CAC4"/>
	<stop  offset="1" style="stop-color:#BFC8C2"/>
</linearGradient>
<path fill="url(#SVGID_41_)" d="M68.128,26.226c0,0,0.53-1.093,0.653-1.533c0.119-0.425,1.069-1.198,1.069-1.198
	s0.254-0.133,0.622,0.196c0.445,0.397,0.277,0.508,0.277,0.508s-0.894,0.812-1.048,1.224c-0.162,0.435-0.573,1.695-0.573,1.695
	s-0.225,0.13-0.646-0.245C68.126,26.555,68.128,26.226,68.128,26.226z"/>
<linearGradient id="SVGID_42_" gradientUnits="userSpaceOnUse" x1="-2128.0867" y1="2526.4844" x2="-2126.127" y2="2526.4844" gradientTransform="matrix(0.2516 -0.9678 0.9678 0.2516 -1881.1614 -2673.0085)">
	<stop  offset="0.0597" style="stop-color:#FFFFFF"/>
	<stop  offset="0.1427" style="stop-color:#EDEFED"/>
	<stop  offset="0.3071" style="stop-color:#D8DDD9"/>
	<stop  offset="0.4883" style="stop-color:#CAD1CB"/>
	<stop  offset="0.6978" style="stop-color:#C2CAC4"/>
	<stop  offset="1" style="stop-color:#BFC8C2"/>
</linearGradient>
<path fill="url(#SVGID_42_)" d="M31.366,22.376c0,0-1.984-0.173-2.702-0.151c-0.694,0.021-2.612-0.679-2.612-0.679
	s-0.411-0.211-0.286-0.689c0.15-0.577,0.454-0.445,0.454-0.445s1.922,0.631,2.629,0.65c0.746,0.02,2.855,0.018,2.855,0.018
	s0.381,0.183,0.239,0.729C31.822,22.27,31.366,22.376,31.366,22.376z"/>
<linearGradient id="SVGID_43_" gradientUnits="userSpaceOnUse" x1="104.2155" y1="-733.8345" x2="106.1752" y2="-733.8345" gradientTransform="matrix(0.9722 0.2342 -0.1407 0.5842 -147.8344 421.7835)">
	<stop  offset="0.0597" style="stop-color:#FFFFFF"/>
	<stop  offset="0.1427" style="stop-color:#EDEFED"/>
	<stop  offset="0.3071" style="stop-color:#D8DDD9"/>
	<stop  offset="0.4883" style="stop-color:#CAD1CB"/>
	<stop  offset="0.6978" style="stop-color:#C2CAC4"/>
	<stop  offset="1" style="stop-color:#BFC8C2"/>
</linearGradient>
<path fill="url(#SVGID_43_)" d="M56.971,19.222c0,0-0.046-1.225-0.145-1.675c-0.096-0.435,0.38-1.577,0.38-1.577
	s0.161-0.24,0.642-0.124c0.58,0.14,0.483,0.319,0.483,0.319s-0.407,1.15-0.349,1.589c0.061,0.464,0.292,1.781,0.292,1.781
	s-0.137,0.223-0.685,0.091C57.124,19.515,56.971,19.222,56.971,19.222z"/>
<linearGradient id="SVGID_44_" gradientUnits="userSpaceOnUse" x1="45.8668" y1="-563.3444" x2="47.8265" y2="-563.3444" gradientTransform="matrix(0.9741 0.226 -0.226 0.9741 -136.6233 548.1964)">
	<stop  offset="0.0597" style="stop-color:#FFFFFF"/>
	<stop  offset="0.1427" style="stop-color:#EDEFED"/>
	<stop  offset="0.3071" style="stop-color:#D8DDD9"/>
	<stop  offset="0.4883" style="stop-color:#CAD1CB"/>
	<stop  offset="0.6978" style="stop-color:#C2CAC4"/>
	<stop  offset="1" style="stop-color:#BFC8C2"/>
</linearGradient>
<path fill="url(#SVGID_44_)" d="M35.358,12.554c0,0,0.12-1.988,0.08-2.705c-0.039-0.693,0.61-2.629,0.61-2.629
	s0.2-0.416,0.681-0.304c0.581,0.135,0.457,0.442,0.457,0.442s-0.58,1.938-0.58,2.645c0,0.746,0.057,2.854,0.057,2.854
	s-0.172,0.386-0.722,0.258C35.476,13.008,35.358,12.554,35.358,12.554z"/>
<linearGradient id="SVGID_45_" gradientUnits="userSpaceOnUse" x1="-36.1051" y1="-1099.8651" x2="-34.1454" y2="-1099.8651" gradientTransform="matrix(0.9142 0.4052 -0.3997 0.9018 -336.0759 1016.509)">
	<stop  offset="0.0597" style="stop-color:#FFFFFF"/>
	<stop  offset="0.1427" style="stop-color:#EDEFED"/>
	<stop  offset="0.3071" style="stop-color:#D8DDD9"/>
	<stop  offset="0.4883" style="stop-color:#CAD1CB"/>
	<stop  offset="0.6978" style="stop-color:#C2CAC4"/>
	<stop  offset="1" style="stop-color:#BFC8C2"/>
</linearGradient>
<path fill="url(#SVGID_45_)" d="M70.02,12.752c0,0,0.481-1.905,0.573-2.609c0.088-0.68,1.079-2.434,1.079-2.434
	s0.272-0.365,0.724-0.165c0.545,0.242,0.367,0.516,0.367,0.516s-0.923,1.769-1.052,2.455c-0.137,0.723-0.465,2.78-0.465,2.78
	s-0.24,0.341-0.756,0.113C70.053,13.214,70.02,12.752,70.02,12.752z"/>
</svg>
