<?xml version="1.0" encoding="utf-8"?>
<!-- Generator: Adobe Illustrator 17.0.0, SVG Export Plug-In . SVG Version: 6.00 Build 0)  -->
<!DOCTYPE svg PUBLIC "-//W3C//DTD SVG 1.1//EN" "http://www.w3.org/Graphics/SVG/1.1/DTD/svg11.dtd">
<svg version="1.1" id="Layer_1" xmlns="http://www.w3.org/2000/svg" xmlns:xlink="http://www.w3.org/1999/xlink" x="0px" y="0px"
	 width="36.676px" height="10.604px" viewBox="0 0 36.676 10.604" enable-background="new 0 0 36.676 10.604" xml:space="preserve">
<g>
	<g>
		<g>
			<g>
				<g>
					<path fill="#777676" d="M36.457,0.86c-0.049-0.045-0.281-0.258-0.335-0.307C36.197,0.599,36.534,0.938,36.457,0.86z"/>
					<path fill="#777676" d="M36.621,1.929l-0.089-0.148c0,0,0.039,0.103,0.077,0.206c0.033,0.102,0.066,0.205,0.066,0.205
						L36.621,1.929z"/>
					<path fill="#777676" d="M35.956,2.33c0.433,0.572,0.184-0.248,0.436-0.104l0.109,0.124l-0.263-0.512
						C36.151,1.997,36.161,2.437,35.956,2.33z"/>
					<path fill="#777676" d="M34.865,1.191c0.15,0.232,0.048,0.251,0.112,0.032c-0.021-0.024-0.032-0.036-0.047-0.054
						C34.921,1.181,34.903,1.191,34.865,1.191z"/>
					<path fill="#777676" d="M34.93,1.169C34.98,1.115,34.779,0.989,34.93,1.169L34.93,1.169z"/>
					<path fill="#777676" d="M34.689,1.465l-0.021-0.263c-0.096-0.136-0.194-0.132-0.218-0.252
						C34.419,1.113,34.51,1.251,34.689,1.465z"/>
					<path fill="#777676" d="M34.836,1.971l0.002-0.117C34.798,1.797,34.774,1.781,34.836,1.971z"/>
					<path fill="#777676" d="M34.842,1.608l-0.003,0.245c0.066,0.096,0.174,0.301,0.012-0.094
						C34.938,1.952,34.867,1.762,34.842,1.608z"/>
					<path fill="#777676" d="M34.952,1.677c0.126,0.113,0.244,0.166,0.261,0.429C35.356,1.932,35.085,1.505,34.952,1.677z"/>
					<path fill="#777676" d="M36.297,2.986l0.182,0.134L36.42,2.876C36.448,2.997,36.178,2.797,36.297,2.986z"/>
					<path fill="#777676" d="M33.951,1.401c0.058,0.141,0.2,0.353,0.29,0.526l-0.004-0.191C34.156,1.659,34.049,1.603,33.951,1.401z
						"/>
					<path fill="#777676" d="M34.24,1.927l0.003,0.287C34.352,2.197,34.317,2.076,34.24,1.927z"/>
					<polygon fill="#777676" points="35.176,2.686 35.108,2.114 35.144,2.709 					"/>
					<polygon fill="#777676" points="33.56,1.566 33.478,1.216 33.585,1.753 					"/>
					<path fill="#777676" d="M33.319,1.737c-0.062-0.286-0.247-0.436-0.265-0.619c-0.055,0.073-0.027,0.328-0.005,0.557
						C33.066,1.537,33.143,1.545,33.319,1.737z"/>
					<path fill="#777676" d="M33.067,2.014c0.007-0.076-0.005-0.204-0.018-0.339C33.04,1.749,33.042,1.85,33.067,2.014z"/>
					<path fill="#777676" d="M34.031,2.231c-0.045-0.08-0.157-0.293-0.255-0.359l0.211,0.373L34.031,2.231z"/>
					<path fill="#777676" d="M33.994,2.257l-0.007-0.012c-0.05,0.01-0.084,0.018-0.1,0.021C33.901,2.265,33.933,2.262,33.994,2.257z
						"/>
					<path fill="#777676" d="M34.043,2.228l-0.011,0.003C34.052,2.268,34.06,2.279,34.043,2.228z"/>
					<path fill="#777676" d="M34.713,2.475c0.04,0.245,0.007,0.544,0.299,0.809C34.934,2.998,34.77,2.846,34.713,2.475z"/>
					<path fill="#777676" d="M34.311,2.691l0.157,0.034c-0.049-0.102-0.138-0.242-0.155-0.365L34.311,2.691z"/>
					<polygon fill="#777676" points="34.308,2.843 34.311,2.691 34.253,2.679 					"/>
					<path fill="#777676" d="M33.42,2.316c0.015,0.191-0.038,0.226-0.093,0.276c0.101,0.054,0.192,0.071,0.261,0.047
						C33.549,2.511,33.49,2.277,33.42,2.316z"/>
					<path fill="#777676" d="M33.722,2.333l-0.001,0.028C33.741,2.391,33.751,2.399,33.722,2.333z"/>
					<path fill="#777676" d="M32.675,2.813c0.011,0.021,0.024,0.047,0.036,0.07l-0.022-0.071L32.675,2.813z"/>
					<path fill="#777676" d="M33.63,2.709c0.084,0.058,0.078-0.05,0.059-0.182c-0.024,0.053-0.056,0.094-0.1,0.112
						C33.606,2.697,33.62,2.734,33.63,2.709z"/>
					<path fill="#777676" d="M32.96,2.262c0.058,0.074,0.116,0.135,0.174,0.189C33.059,2.333,32.931,2.154,32.96,2.262z"/>
					<path fill="#777676" d="M33.659,2.259l0-0.021C33.609,2.161,33.628,2.202,33.659,2.259z"/>
					<path fill="#777676" d="M33.659,2.259c-0.001,0.069,0.015,0.172,0.029,0.267c0.02-0.042,0.033-0.095,0.032-0.165
						C33.705,2.334,33.681,2.295,33.659,2.259z"/>
					<path fill="#777676" d="M33.356,5.48c-0.114-0.379-0.082-0.778,0.193-0.424c0.034-0.326-0.495-1.521-0.838-2.174
						c0.053,0.165,0.107,0.315,0.057,0.58c0.113,0.19,0.45,0.38,0.46,0.755c-0.107,0.253-0.189-0.083-0.339-0.253
						c0.232,0.442,0.009,0.757,0.273,1.433l0.078-0.297C33.279,5.207,33.279,5.398,33.356,5.48z"/>
					<path fill="#777676" d="M32.959,2.84l0.034-0.063c-0.081-0.045-0.177-0.18-0.355-0.446c-0.017,0.21,0.013,0.355,0.051,0.482
						l0.267-0.034L32.959,2.84z"/>
					<path fill="#777676" d="M33.219,2.697c0.114,0.416,0.051,0.632,0.291,1.042c0.145-0.081-0.018-0.374,0.006-0.58
						C33.31,3.343,33.5,2.911,33.238,2.743c0.021-0.085,0.055-0.12,0.089-0.151c-0.062-0.034-0.126-0.081-0.193-0.142l0.015,0.023
						l0.001-0.002l0.002,0.006c0.029,0.047,0.044,0.076,0.022,0.051c0.001,0.005-0.002,0.01-0.002,0.01
						c0.017,0.057,0.032,0.107,0.047,0.156c-0.101-0.059-0.05-0.101-0.047-0.156l-0.02-0.061l-0.003-0.005l-0.156,0.303
						C33.064,2.815,33.124,2.782,33.219,2.697z"/>
					<path fill="#777676" d="M35.274,4.185c-0.024-0.031-0.036-0.059-0.05-0.087C35.23,4.153,35.239,4.189,35.274,4.185z"/>
					<path fill="#777676" d="M35.063,3.997c-0.007-0.063-0.064-0.227,0.013-0.214c0.105,0.094,0.087,0.187,0.149,0.315
						c-0.012-0.121-0.008-0.338-0.205-0.477l0.007,0.061c-0.162-0.088-0.503-0.521-0.51-0.583
						C34.702,3.441,34.839,3.682,35.063,3.997z"/>
					<path fill="#777676" d="M34.165,3.491l-0.13,0.27l0.247,0.309l-0.089-0.206C34.348,3.905,34.216,3.656,34.165,3.491z"/>
					<polygon fill="#777676" points="32.582,2.619 32.458,2.18 32.555,2.826 					"/>
					<polygon fill="#777676" points="32.344,2.759 32.228,2.38 32.236,2.63 					"/>
					<path fill="#777676" d="M15.997,9.188l-0.08,0.11C15.953,9.264,15.978,9.228,15.997,9.188z"/>
					<path fill="#777676" d="M16.515,9.231l0.025-0.194C16.509,9.144,16.494,9.222,16.515,9.231z"/>
					<path fill="#777676" d="M25.585,4.178c-0.133-0.354-0.292-0.91-0.236-0.469l0.072,0.427C25.478,4.05,25.533,4.091,25.585,4.178
						z"/>
					<path fill="#777676" d="M20.747,7.055c0.01,0.042,0.021,0.088,0.031,0.133c0.022-0.148,0.042-0.285,0.062-0.413
						C20.811,6.862,20.78,6.956,20.747,7.055z"/>
					<path fill="#777676" d="M20.698,8.848l-0.139-0.284C20.59,8.663,20.635,8.757,20.698,8.848z"/>
					<path fill="#777676" d="M13.096,9.31l-0.145,0.427C13.085,9.751,13.056,9.523,13.096,9.31z"/>
					<path fill="#777676" d="M29.636,3.647c-0.114-0.147-0.19-0.202-0.248-0.21C29.532,3.659,29.688,4.006,29.636,3.647z"/>
					<path fill="#777676" d="M16.527,4.602c-0.046,0.077-0.069,0.165-0.075,0.261C16.499,4.791,16.528,4.709,16.527,4.602z"/>
					<path fill="#777676" d="M29.166,3.492c0.025,0.037,0.039,0.058,0.061,0.09c0.042-0.085,0.087-0.156,0.161-0.145
						C29.281,3.272,29.181,3.179,29.166,3.492z"/>
					<path fill="#777676" d="M2.991,6.269c0.001-0.021-0.004-0.033-0.002-0.057C2.963,6.265,2.972,6.272,2.991,6.269z"/>
					<path fill="#777676" d="M2.419,1.083c0.035-0.01,0.07,0.01,0.105,0.024C2.523,1.073,2.496,1.06,2.419,1.083z"/>
					<path fill="#777676" d="M31.244,2.909C31.294,2.869,31.24,2.861,31.244,2.909L31.244,2.909z"/>
					<path fill="#777676" d="M32.003,4.492c0.001,0.05,0.008,0.112,0.035,0.208C32.014,4.599,32.004,4.533,32.003,4.492z"/>
					<path fill="#777676" d="M29.072,6.267l-0.006-0.001C29.101,6.348,29.094,6.332,29.072,6.267z"/>
					<path fill="#777676" d="M31.385,3.079c-0.036-0.046-0.073-0.083-0.109-0.107C31.297,3.002,31.331,3.037,31.385,3.079z"/>
					<path fill="#777676" d="M31.317,2.884c0.026,0.012,0.044,0.02,0.062,0.029C31.366,2.842,31.347,2.8,31.317,2.884z"/>
					<path fill="#777676" d="M31.171,2.95c0.031-0.014,0.067-0.002,0.105,0.022c-0.019-0.026-0.031-0.048-0.031-0.063
						C31.229,2.92,31.208,2.934,31.171,2.95z"/>
					<path fill="#777676" d="M8.661,6.947C8.66,6.933,8.659,6.923,8.657,6.904C8.547,7.064,8.583,7.043,8.661,6.947z"/>
					<path fill="#777676" d="M24.324,8.787c0.001-0.005,0.004-0.016,0.006-0.021l-0.011-0.015L24.324,8.787z"/>
					<path fill="#777676" d="M24.107,9.122c0.064-0.544,0.126-0.481,0.212-0.372l-0.17-1.243L24.107,9.122z"/>
					<path fill="#777676" d="M14.739,9.173l0.133,0.409c-0.27,0.613-0.403,0.375-0.294,0.94c0.16-1.349,0.692-0.057,0.835-1.406
						l0.088,0.298c-0.031-0.017-0.043,0.062-0.074,0.045c0.166,0.674,0.245-0.957,0.506-0.735c0.089,0.107,0.143,0.306,0.064,0.464
						l0.242-0.328c0.061,0.028,0.029,0.263-0.032,0.235l0.339-0.098l-0.005,0.04c0.061-0.211,0.188-0.537,0.248-0.675
						c0.071,0.197-0.051,0.143-0.04,0.312l0.201-0.323c0.054,0.354-0.117,0.69-0.241,0.636c0.091,1.359,0.172-0.337,0.498,0.466
						L17.023,9.62c0.071,0.773,0.224,0.498,0.402,0.984c-0.038-0.252-0.338-1.221-0.12-1.553c0.051,0.104,0.123,0.155,0.243-0.115
						c-0.021,0.482,0.09,0.367,0.223,0.344l-0.036,0.639c0.152-0.18,0.153-0.506,0.248-0.791c0.156,0.068,0.172,0.564,0.195,0.982
						c0.254,0.109-0.15-0.799,0.156-0.911c0.204,0.251,0.362-0.006,0.62-0.381c0.143,0.225-0.034,0.39,0.016,0.575l0.14-0.506
						c0.032,0.013,0.019,0.17,0.012,0.249c0.113-0.195,0.02-0.639,0.193-0.808c0.052-0.703,0.342,1.04,0.561,0.246
						c0.052,0.183-0.027,0.391-0.011,0.639c0.294-0.517,0.253-0.374,0.488-1.074l0.206,0.426c-0.153-0.485,0.033-1.048,0.188-1.51
						c-0.055-0.233-0.101-0.438-0.131-0.535l0.251-0.338c0.032,0.103,0.011,0.325-0.028,0.593c0.016-0.054,0.031-0.107,0.045-0.155
						c0.096,0.231,0.055,0.603-0.006,0.964c-0.032-0.127-0.066-0.262-0.1-0.396c-0.059,0.387-0.115,0.815-0.097,1.19
						c0.016-0.073,0.049-0.136,0.085-0.17c-0.016,0.105-0.025,0.199-0.017,0.263c0.01,0.068,0.036-0.073,0.077-0.235l0.072,0.713
						l0.01-0.284l0.358,0.428c0.236-0.731,0.42-1.799,0.793-2.114c-0.077,0.528,0.01,0.855,0.028,1.474
						c-0.13-0.65-0.296,0.295-0.506,0.173c0.109,0.063,0.094,0.36,0.07,0.464l0.348-0.616c0.009,0.507,0.091,0.376,0.195,0.58
						c-0.11-0.997,0.247-0.681,0.381-0.996c0.024,0.336,0.004,0.68-0.182,0.609c0.235,0.742,0.206-1.189,0.43-0.56
						c-0.044,0.011-0.07-0.04-0.079,0.132c0.088-0.304,0.351-0.081,0.308,0.215l-0.044,0.009c0.3,0.103,0.898-0.042,0.881-0.892
						c0.011,0.109,0.031,1.025,0.025,1.198l0.31-2.883c0.009,0.731,0.319,2.456,0.106,2.881c0.078,0.1,0.175,0.216,0.304-0.049
						C24.577,8.615,24.432,7.67,24.492,7.6c0.242,0.801,0.157,0.427,0.435,1.106c-0.085-0.152-0.101-1.298,0.013-1.268
						c-0.003,0.172,0.107,1.126,0.076,1.247l0.181-1.136c-0.051,0.206,0.073,0.95,0.166,1.263c-0.05-0.218,0.247,0.007,0.312-0.109
						L25.53,8.451c0.337,0.144,0.157-1.612,0.467-1.592c-0.011,0.236,0.06,1.434,0.237,1.553c0.014-0.583,0.01-2.798,0.211-3.274
						l0.091,0.32l0.153-0.4c-0.007,0.876-0.147,2.737-0.277,3.471c0.15,0.242,0.078,0.381,0.255,0.326
						c0.101,0.297-0.044,0.479-0.096,0.504l0.451,0.138c-0.102-0.665,0.239-0.714,0.149-1.267l-0.368,0.755
						c-0.097-0.664,0.027-1.93,0.326-1.852c0.11,0.255,0.104,1.194,0.139,1.415c0.008-0.235,0.221-0.477,0.271-0.319l-0.076,0.374
						c0.202,0.227,0.143-0.92,0.433-0.313c0.074,0.033,0.335,0.827,0.287,0.432c-0.23-0.742-0.6-3.087-0.618-3.666
						c0.029,0.048,0.446,0.678,0.583,1.041c0.206,0.578,0.064,1.438,0.239,1.935c-0.025-0.182,0.001-0.414,0.014-0.49
						c0.096,0.145,0.062,0.566,0.204,0.462c-0.086-0.676,0.323,0.012-0.022-0.579c0.117-0.213,0.183,0.116,0.354,0.061
						c-0.131-0.426-0.103-1.499,0.005-1.71c0.023,0.172,0.096,0.389,0.13,0.488c0.312,0.028,0.526,0.269,0.807,0.216
						c0.058,0.156,0.235,0.319,0.238,0.62c0.016-0.128,0.006-0.362,0.089-0.399c0.293,0.536-0.175,0.136,0.101,0.798
						c-0.071-0.39,0.113-0.588,0.182-0.859c-0.171-0.588-0.307-0.048-0.382,0.224c-0.173-0.826-0.146-1.74,0.04-2.186
						c0.172-0.256,0.218,0.509,0.229,0.383c0.455,0.044,0.004-1.515,0.487-1.004c0.269,0.489,0.273,1.035,0.399,1.403
						C31.128,5.705,30.897,5.2,30.779,5.25l0.214,0.211c-0.015,0.187-0.107,0.348-0.211,0.213c0.233,0.441,0.743-0.08,1.192,0.271
						c0.012-0.188,0.062-0.391-0.044-0.588l-0.084,0.097c-0.21-0.396,0.033-0.623-0.151-0.788c0.053-0.332,0.077-0.808,0.322-0.643
						l0.21,0.576c-0.056-0.17-0.223-0.308-0.223-0.112c-0.003-0.285,0.523,0.696,0.373-0.1l-0.252-0.362
						c0.041-0.34-0.003-1.014,0.209-0.883c-0.256-0.552-0.016,0.079-0.339-0.559c0.36,0.807-0.398,0.1,0.025,0.933
						c-0.353-0.751-0.291-0.257-0.64-0.896c0.061,0.193,0.161,0.359-0.001,0.295c0.01,0.058,0.016,0.134,0.019,0.178l-0.013-0.012
						L31.399,3.1c0.002,0.031,0.004,0.037,0.005,0.007c0.056,0.078,0.112,0.174,0.154,0.28c0.06,0.462-0.166,0.5-0.177,0.749
						c-0.108-0.073-0.027-0.232-0.129-0.429L31.234,4.08c-0.129-0.431-0.408-0.67-0.286-0.969l-0.175,0.02
						c-0.164-0.22-0.323-0.286-0.361-0.083c-0.102-0.076-0.083,0.53-0.097,0.172l-0.202,0.334l-0.028-0.109
						c-0.271,0.006-0.389,0.857-0.858,0.136c-0.066,0.132-0.132,0.29-0.305,0.201L28.82,3.409c-0.087,0.163-0.421-0.33-0.398,0.078
						c-0.309-1.012-0.605-0.147-0.843-0.301l0.072,0.502c-0.147-0.009-0.261,0.153-0.41,0.379l0.077,0.442
						c-0.103,0.386-0.445-0.26-0.682-0.18c-0.006-0.172,0.062-0.136,0.119-0.04c-0.419-0.964-0.525,0.818-0.88,0.123
						c-0.048,0.171-0.102,0.123-0.161,0.017c0.006-0.002,0.011-0.011,0.014-0.026c-0.007-0.004-0.017-0.004-0.028-0.002
						c-0.038-0.072-0.081-0.155-0.117-0.224c0.039,0.104,0.075,0.19,0.102,0.228c-0.05,0.016-0.121,0.083-0.185,0.205l-0.081-0.474
						c-0.005,0.007-0.01,0.007-0.016,0.016c-0.091-0.166-0.037,0.235,0.039,0.59c-0.03,0.084-0.056,0.184-0.072,0.303
						c-0.135-0.76-0.18,0.274-0.341-0.545c-0.015,0.405-0.362,0.324-0.332,1.173c-0.012-0.11-0.04-0.162,0.002-0.171
						c-0.096-0.092-0.191-0.184-0.25,0.059l-0.086-0.608l-0.127,0.831c-0.145-0.366-0.208-0.579-0.129-1.055
						c-0.223,0.737-0.203,0.284-0.39,1.013l-0.015-0.396c-0.083,0.02-0.185,0.556-0.257,0.232c-0.233-0.741-0.945-0.053-1.455-0.725
						c0.136,1.16-0.242-0.51-0.23,0.394c-0.037-0.274-0.109-0.426-0.039-0.67c-0.237,0.284-0.376-0.417-0.527,0.354
						c-0.034-0.275,0.043-0.407,0.015-0.569c-0.018,0.061-0.072,0.244-0.101,0.081c-0.028-0.163,0.031-0.233,0.066-0.356
						c-0.245,0.06-0.256,0.911-0.261,1.709c-0.135-0.367-0.196-0.326-0.284,0.197c-0.048-0.262-0.125-0.537,0.031-0.626
						c-0.09-0.041-0.538-0.399-0.546,0.24c-0.028-0.163-0.123-0.051-0.147,0.022c-0.199-0.044-0.215-0.102-0.411-0.048l0.053,0.106
						c-0.084,0.769-0.165,0.167-0.324,0.255l0.006-0.079c-0.351-0.567-0.163,0.262-0.505-0.383l0.008,0.48
						c-0.061,1.03-0.301-0.618-0.518-0.229l0.066,0.276c-0.128,0.349-0.265-1.411-0.368-1.543c-0.02-0.09,0.044-0.143,0.08-0.208
						c-0.263-0.616-0.063,0.627-0.288,0.766c-0.024-0.34,0.09-0.859-0.051-0.927c-0.055-0.276-0.479,1.087-0.643,0.432
						c0.028,0.262,0.057,0.523-0.056,0.717c-0.165,0.088-0.355-0.997-0.552-0.18c-0.015-0.072-0.017-0.14-0.013-0.205
						c-0.135,0.216-0.412,0.334-0.52,0.764c0.034-1.664-0.813,0.711-0.668-0.81l-0.37,0.037L14.921,4.7
						c-0.219-0.129-0.341,0.225-0.466,0.579c-0.042-0.11,0.014-0.247,0.028-0.326c-0.303-0.348-0.338-0.286-0.725,0.433l0.035-0.495
						c-0.119,0.276-0.38-0.829-0.793-0.297c0.012-0.055,0.033-0.149,0.07-0.215c-0.469,0.527-0.655-1.455-1.093,0.278l-0.322,0.385
						c0.293,0.207-0.188,0.76-0.111,1.084c-0.148,0.076-0.229-0.607-0.057-0.664l0.008,0.094c0.228-0.913-0.334-0.414-0.202-1.04
						c-0.628-0.089-1.113-0.727-1.668-0.887L9.517,4.354L9.325,4.269c-0.012-0.177,0.07-0.57,0.204-0.51
						c0.027-0.418-0.323,0.285-0.368,0.438C8.955,3.851,9.483,3.395,9.4,3.359L9.272,3.388l0.005,0.088
						c-0.168,0.268-0.259,0.577-0.42,0.499C8.789,3.8,8.92,3.522,8.886,3.482c0.014-0.05,0.006-0.078-0.057-0.04L8.604,3.306
						L8.546,3.892C8.36,4.133,8.322,3.791,8.259,4.456C8.366,3.433,7.437,3.82,7.425,3.488C7.144,3.842,6.992,3.787,6.82,3.68
						c0.008,0.128-0.168,0.753-0.309,0.626c0.49-1.25-0.113-0.644,0.078-1.593C6.488,3.36,6.088,2.711,5.957,3.624
						C5.863,3.469,6.121,3.15,6.132,2.814c-0.49,0.36-0.547-0.589-0.981-0.576C5.077,2.397,5.037,2.672,4.854,2.88L5,1.99
						C4.893,2.04,4.527,2.893,4.636,2.278c-0.041,0.143-0.101,0.359-0.174,0.39C4.252,2.138,3.839,2.104,3.436,1.995
						C3.045,1.886,2.649,1.689,2.76,0.798c-0.089,0.344-0.163,0.339-0.236,0.31c0.001,0.096-0.225,0.372-0.34,0.581L2.256,0.96
						C2.054,1.224,1.973,1.189,1.897,1.152C1.836,1.119,1.784,1.088,1.588,1.337l0.137-0.044C1.184,1.83,0.959,2.778,0.437,3.575
						c0.602-0.627-0.234,1.327,0.658,0.446C1.055,4.225,0.89,4.258,0.809,4.469c0.275-0.316,0.394-0.336,0.456-0.096l-0.066,0.08
						c0.474,0.129,0.464,0.578,0.839,1.068L2.21,5.079c0.076,0.109,0.033,0.254,0.031,0.386c0.431-0.587-0.275-0.184,0.182-0.84
						c-0.285,0.939,0.713,0.377,0.36,1.398c0.163,0.073,0.176-0.52,0.337-0.447L3.043,5.864l0.195-0.333
						c0.081,0.101-0.012,0.464-0.107,0.696c-0.015-0.038-0.103,0.034-0.14,0.042c0.004,0.379,0.448,0.055,0.451,0.179L3.353,6.214
						c0.556-0.072,0.97,0.516,1.613,0.127l0.044-0.223c0.468-0.265,0.183,0.32,0.613,0.26L5.592,6.423
						C5.738,6.236,5.871,6.16,5.962,6.215C5.786,6.434,5.976,6.752,5.762,6.989c0.505-0.307,0.293-0.274,0.785-0.99l-0.058,0.37
						c0.182-0.294,0.242-0.461,0.45-0.497C6.695,6.129,6.886,6.447,6.594,6.797C6.748,7.694,7.398,6.19,7.243,7.383
						c0.459-0.932-0.174-0.651-0.014-0.831c0.014-0.347,0.359-0.692,0.447-0.556c0.112,0.059-0.153,1.327,0.167,1.405
						C7.813,7.387,7.79,7.461,7.76,7.447C7.81,7.738,8.08,7.177,8.117,7.616c0.237-0.583,0.18,0.076,0.4-0.686L8.185,7.045
						c0.217-0.164,0.595-1.03,0.748-0.537C8.874,6.658,8.744,6.845,8.661,6.947C8.683,7.19,8.849,6.829,8.872,7.08
						c-0.213,0.764-0.39,0.091-0.717,0.638C8.158,8.06,8.631,7.235,8.332,8.047c0.393-1.03,0.283,0.203,0.694-0.56L8.902,7.945
						C8.953,7.88,9.075,7.677,9.135,7.703L8.88,8.277c0.295-0.473,0.236,0.521,0.471,0.28C8.992,8.494,9.397,7.982,9.327,7.612
						c0.567-0.527-0.026,1.265,0.517,1.149c-0.081,0.051-0.189-0.333-0.04-0.525c0.072,0.116,0.157,0.32,0.164,0.576
						c0.345-0.026,0.049-0.489,0.246-0.745c-0.007,0.59,0.205-0.197,0.379-0.348L10.5,8.193c0.307,0.383,0.288-0.966,0.542-0.529
						L10.78,8.292l0.203-0.133l-0.136,0.532c0.263-0.36,0.3-0.244,0.457-0.053C11.321,8.294,11.48,7.78,11.642,7.8
						c0.061,0.303-0.14,0.446,0.102,0.409c-0.101,0.29-0.224,0.662-0.248,0.2c-0.037,0.153-0.103,0.287-0.14,0.438
						c0.064,0.356,0.291,0.125,0.376,0.131c-0.03-0.022-0.064-0.052-0.073-0.123l0.444-0.618c0.024,0.185-0.04,0.324-0.105,0.46
						c0.077-0.043,0.158-0.256,0.264-0.285c-0.086,0.384-0.142,0.785-0.315,0.949l0.391-0.39c-0.005,0.171,0.096,0.484,0.033,0.621
						c0.149,0.251,0.551-0.698,0.745-0.368c0.023-0.074,0.057-0.143,0.115-0.192c0.209,0.115,0.351,0.617,0.68,0.116l0.069,0.717
						c0.226-0.133-0.101-0.905,0.272-1.126c0.266-0.193,0.025,0.607,0.089,0.812c0.162-0.337,0.442-1.03,0.608-0.433
						C14.861,9.24,14.813,9.129,14.739,9.173z M17.301,9.042c-0.054,0.099-0.169,0.409-0.19,0.123
						C17.197,8.615,17.225,8.881,17.301,9.042z M21.124,7.971c-0.032,0.161-0.089,0.085-0.154-0.094
						C21.014,7.835,21.065,7.85,21.124,7.971z M30.713,3.437c0,0.008,0.001,0.014,0.001,0.024
						C30.573,3.301,30.625,3.365,30.713,3.437z M30.963,3.593c0.003-0.07-0.016-0.134-0.041-0.197
						c0.018,0.121-0.025,0.14-0.084,0.119C30.883,3.633,30.931,3.712,30.963,3.593z M8.818,3.646L8.823,3.78
						C8.7,3.887,8.757,3.774,8.818,3.646z"/>
					<path fill="#777676" d="M20.706,8.64c-0.015-0.082-0.02-0.172-0.024-0.263C20.664,8.458,20.664,8.552,20.706,8.64z"/>
					<polygon fill="#777676" points="13.122,9.231 13.115,9.224 13.096,9.31 					"/>
					<path fill="#777676" d="M28.515,8.267c-0.058-0.062-0.097-0.145-0.129-0.233C28.402,8.151,28.439,8.246,28.515,8.267z"/>
					<path fill="#777676" d="M31.756,2.533l-0.079,0.161c0.049-0.043,0.1,0.051,0.151,0.114C31.792,2.701,31.722,2.553,31.756,2.533
						z"/>
					<path fill="#777676" d="M33.78,4.99c-0.001-0.062,0.039-0.02,0.037-0.083l-0.083-0.209C33.659,4.74,33.663,4.93,33.78,4.99z"/>
					<path fill="#777676" d="M32.342,4.025c0.131,0.384,0.17,0.225,0.234,0.123c-0.005,0.003-0.009,0.008-0.016,0.005
						C32.412,3.604,32.378,3.815,32.342,4.025z"/>
					<path fill="#777676" d="M32.592,4.128C32.613,4.1,32.638,4.081,32.67,4.09C32.61,3.87,32.623,4.056,32.592,4.128z"/>
					<path fill="#777676" d="M31.143,3.274c0.069,0.091-0.111-0.507-0.044-0.352C31.01,2.413,30.987,3.59,31.143,3.274z"/>
					<polygon fill="#777676" points="32.816,5.275 32.632,4.809 32.702,5.212 					"/>
					<path fill="#777676" d="M31.979,5.153l0.189,0.098c-0.026-0.08-0.02-0.132-0.007-0.174C32.064,5.083,31.935,5.011,31.979,5.153
						z"/>
					<path fill="#777676" d="M32.161,5.077c0.051-0.003,0.091-0.031,0.094-0.118C32.231,4.972,32.183,5.009,32.161,5.077z"/>
					<polygon fill="#777676" points="32.658,5.489 32.584,5.404 32.469,5.405 					"/>
					<path fill="#777676" d="M30.341,5.441L30.209,5.62c0.02,0.172,0.088,0.263,0.135,0.182C30.357,5.676,30.403,5.597,30.341,5.441
						z"/>
					<path fill="#777676" d="M31.163,6.657c-0.071-0.09-0.1-0.198-0.165-0.352l0.141,0.605L31.163,6.657z"/>
					<path fill="#777676" d="M30.697,6.916c0.022,0.172-0.142,0.542,0.07,0.452C30.747,7.197,30.887,7.016,30.697,6.916z"/>
					<polygon fill="#777676" points="27.979,6.623 28.021,6.609 27.857,5.604 					"/>
					<path fill="#777676" d="M25.969,9.364c0.238,0.213-0.015-0.632,0.208-0.356c0.024-0.246-0.182-0.226-0.153-0.439
						C25.924,8.839,25.842,8.705,25.969,9.364z"/>
					<path fill="#777676" d="M26.024,8.569c0.016-0.043,0.032-0.094,0.048-0.163C26.042,8.474,26.03,8.525,26.024,8.569z"/>
					<polygon fill="#777676" points="2.367,0.415 2.43,0.2 2.274,0.508 					"/>
					<path fill="#777676" d="M1.809,0.947l0.368-0.534L1.784,0.857C1.818,0.845,1.883,0.82,1.809,0.947z"/>
					<path fill="#777676" d="M17.62,10.36l0.017-0.156c-0.014-0.169-0.046-0.183-0.109-0.211L17.62,10.36z"/>
					<polygon fill="#777676" points="15.776,9.812 15.807,9.829 15.793,9.236 					"/>
					<path fill="#777676" d="M14.126,10.366c0.062,0.032,0.153-0.089,0.215-0.056C14.188,10.399,14.189,9.637,14.126,10.366z"/>
				</g>
			</g>
		</g>
	</g>
</g>
<g>
	<g>
		<g>
			<g>
				<g>
					<path fill="#FAA21B" d="M36.02,0.66c-0.049-0.045-0.281-0.258-0.335-0.307C35.76,0.4,36.097,0.738,36.02,0.66z"/>
					<path fill="#FAA21B" d="M36.184,1.729l-0.089-0.148c0,0,0.039,0.103,0.077,0.206c0.033,0.102,0.066,0.204,0.066,0.204
						L36.184,1.729z"/>
					<path fill="#FAA21B" d="M35.519,2.13c0.433,0.572,0.184-0.248,0.436-0.104l0.109,0.124l-0.263-0.512
						C35.714,1.797,35.725,2.237,35.519,2.13z"/>
					<path fill="#FAA21B" d="M34.429,0.991c0.15,0.232,0.048,0.251,0.112,0.032C34.52,1,34.509,0.987,34.494,0.969
						C34.484,0.981,34.467,0.991,34.429,0.991z"/>
					<path fill="#FAA21B" d="M34.494,0.969C34.543,0.915,34.342,0.789,34.494,0.969L34.494,0.969z"/>
					<path fill="#FAA21B" d="M34.252,1.265l-0.021-0.263c-0.096-0.136-0.194-0.132-0.218-0.252
						C33.982,0.914,34.074,1.051,34.252,1.265z"/>
					<path fill="#FAA21B" d="M34.399,1.771l0.002-0.117C34.361,1.597,34.338,1.581,34.399,1.771z"/>
					<path fill="#FAA21B" d="M34.405,1.409l-0.003,0.245c0.066,0.096,0.174,0.301,0.012-0.094
						C34.502,1.752,34.43,1.562,34.405,1.409z"/>
					<path fill="#FAA21B" d="M34.515,1.478c0.126,0.113,0.244,0.166,0.262,0.429C34.919,1.732,34.649,1.305,34.515,1.478z"/>
					<path fill="#FAA21B" d="M35.86,2.786l0.182,0.134l-0.059-0.244C36.012,2.797,35.741,2.597,35.86,2.786z"/>
					<path fill="#FAA21B" d="M33.514,1.201c0.058,0.141,0.2,0.353,0.29,0.526L33.8,1.536C33.72,1.459,33.613,1.404,33.514,1.201z"/>
					<path fill="#FAA21B" d="M33.804,1.727l0.003,0.287C33.915,1.997,33.88,1.876,33.804,1.727z"/>
					<polygon fill="#FAA21B" points="34.74,2.486 34.672,1.914 34.707,2.509 					"/>
					<polygon fill="#FAA21B" points="33.123,1.366 33.041,1.016 33.148,1.553 					"/>
					<path fill="#FAA21B" d="M32.882,1.537c-0.062-0.286-0.247-0.436-0.265-0.619c-0.055,0.073-0.027,0.328-0.005,0.557
						C32.629,1.337,32.706,1.345,32.882,1.537z"/>
					<path fill="#FAA21B" d="M32.63,1.815c0.007-0.076-0.005-0.204-0.018-0.339C32.603,1.549,32.605,1.651,32.63,1.815z"/>
					<path fill="#FAA21B" d="M33.595,2.031c-0.045-0.08-0.157-0.293-0.255-0.359l0.211,0.373L33.595,2.031z"/>
					<path fill="#FAA21B" d="M33.557,2.057L33.55,2.045c-0.05,0.01-0.084,0.018-0.099,0.021C33.464,2.065,33.496,2.062,33.557,2.057
						z"/>
					<path fill="#FAA21B" d="M33.606,2.028l-0.011,0.003C33.616,2.068,33.624,2.079,33.606,2.028z"/>
					<path fill="#FAA21B" d="M34.276,2.276c0.04,0.245,0.007,0.544,0.299,0.809C34.498,2.798,34.333,2.646,34.276,2.276z"/>
					<path fill="#FAA21B" d="M33.874,2.492l0.157,0.034c-0.049-0.102-0.138-0.242-0.155-0.365L33.874,2.492z"/>
					<polygon fill="#FAA21B" points="33.872,2.643 33.874,2.492 33.817,2.479 					"/>
					<path fill="#FAA21B" d="M32.983,2.117c0.015,0.191-0.038,0.226-0.093,0.276c0.101,0.054,0.192,0.071,0.261,0.046
						C33.112,2.311,33.053,2.077,32.983,2.117z"/>
					<path fill="#FAA21B" d="M33.285,2.133l-0.002,0.028C33.304,2.191,33.314,2.2,33.285,2.133z"/>
					<path fill="#FAA21B" d="M32.238,2.613c0.011,0.021,0.024,0.047,0.036,0.07l-0.022-0.071L32.238,2.613z"/>
					<path fill="#FAA21B" d="M33.193,2.509c0.085,0.058,0.078-0.05,0.059-0.182c-0.024,0.053-0.056,0.094-0.1,0.112
						C33.17,2.497,33.184,2.534,33.193,2.509z"/>
					<path fill="#FAA21B" d="M32.524,2.062c0.058,0.074,0.116,0.135,0.174,0.189C32.622,2.133,32.494,1.954,32.524,2.062z"/>
					<path fill="#FAA21B" d="M33.223,2.06l0-0.021C33.172,1.961,33.191,2.002,33.223,2.06z"/>
					<path fill="#FAA21B" d="M33.223,2.06c-0.001,0.069,0.015,0.172,0.029,0.267c0.02-0.042,0.033-0.095,0.032-0.165
						C33.268,2.135,33.244,2.095,33.223,2.06z"/>
					<path fill="#FAA21B" d="M32.919,5.28c-0.114-0.379-0.082-0.778,0.193-0.424c0.034-0.326-0.495-1.521-0.838-2.174
						c0.053,0.165,0.107,0.315,0.057,0.58c0.113,0.19,0.45,0.38,0.46,0.755c-0.107,0.253-0.189-0.083-0.339-0.253
						c0.232,0.442,0.009,0.757,0.273,1.433l0.078-0.297C32.842,5.007,32.842,5.198,32.919,5.28z"/>
					<path fill="#FAA21B" d="M32.522,2.64l0.034-0.063c-0.081-0.045-0.177-0.18-0.355-0.446c-0.017,0.21,0.013,0.355,0.051,0.482
						l0.267-0.034L32.522,2.64z"/>
					<path fill="#FAA21B" d="M32.782,2.497c0.114,0.416,0.051,0.632,0.291,1.042c0.145-0.082-0.018-0.374,0.006-0.58
						c-0.207,0.184-0.016-0.248-0.278-0.416c0.021-0.085,0.055-0.12,0.089-0.151c-0.062-0.034-0.126-0.081-0.193-0.142l0.015,0.023
						l0.001-0.002l0.002,0.006c0.029,0.047,0.044,0.076,0.022,0.051c0.001,0.005-0.002,0.01-0.002,0.01
						c0.017,0.057,0.032,0.107,0.047,0.156c-0.101-0.059-0.05-0.101-0.047-0.156l-0.02-0.061l-0.003-0.005l-0.156,0.303
						C32.627,2.616,32.687,2.582,32.782,2.497z"/>
					<path fill="#FAA21B" d="M34.837,3.985c-0.024-0.031-0.036-0.059-0.05-0.087C34.793,3.954,34.802,3.989,34.837,3.985z"/>
					<path fill="#FAA21B" d="M34.626,3.797c-0.007-0.063-0.064-0.227,0.013-0.214c0.105,0.094,0.087,0.187,0.149,0.315
						c-0.012-0.121-0.008-0.338-0.205-0.477l0.007,0.061c-0.162-0.088-0.503-0.521-0.51-0.583
						C34.265,3.241,34.402,3.482,34.626,3.797z"/>
					<path fill="#FAA21B" d="M33.729,3.291l-0.13,0.27l0.247,0.309l-0.089-0.206C33.911,3.705,33.78,3.457,33.729,3.291z"/>
					<polygon fill="#FAA21B" points="32.145,2.419 32.021,1.98 32.119,2.626 					"/>
					<polygon fill="#FAA21B" points="31.907,2.559 31.791,2.18 31.799,2.43 					"/>
					<path fill="#FAA21B" d="M15.56,8.988l-0.08,0.11C15.516,9.065,15.541,9.028,15.56,8.988z"/>
					<path fill="#FAA21B" d="M16.078,9.032l0.025-0.194C16.073,8.944,16.058,9.023,16.078,9.032z"/>
					<path fill="#FAA21B" d="M25.148,3.978c-0.133-0.354-0.292-0.91-0.236-0.468l0.072,0.427
						C25.041,3.851,25.096,3.891,25.148,3.978z"/>
					<path fill="#FAA21B" d="M20.311,6.855c0.01,0.042,0.021,0.088,0.031,0.133c0.022-0.148,0.042-0.285,0.062-0.413
						C20.374,6.662,20.343,6.756,20.311,6.855z"/>
					<path fill="#FAA21B" d="M20.262,8.648l-0.139-0.284C20.154,8.463,20.199,8.558,20.262,8.648z"/>
					<path fill="#FAA21B" d="M12.659,9.11l-0.145,0.427C12.648,9.551,12.619,9.323,12.659,9.11z"/>
					<path fill="#FAA21B" d="M29.199,3.447c-0.114-0.147-0.19-0.202-0.248-0.21C29.095,3.459,29.251,3.806,29.199,3.447z"/>
					<path fill="#FAA21B" d="M16.09,4.402c-0.046,0.077-0.069,0.165-0.075,0.261C16.062,4.591,16.092,4.509,16.09,4.402z"/>
					<path fill="#FAA21B" d="M28.729,3.292c0.025,0.037,0.039,0.058,0.061,0.09c0.042-0.085,0.087-0.156,0.161-0.145
						C28.844,3.072,28.744,2.979,28.729,3.292z"/>
					<path fill="#FAA21B" d="M2.554,6.069C2.555,6.048,2.55,6.036,2.552,6.012C2.527,6.065,2.535,6.072,2.554,6.069z"/>
					<path fill="#FAA21B" d="M1.982,0.884c0.035-0.01,0.07,0.01,0.105,0.024C2.087,0.873,2.059,0.86,1.982,0.884z"/>
					<path fill="#FAA21B" d="M30.808,2.709C30.857,2.669,30.804,2.661,30.808,2.709L30.808,2.709z"/>
					<path fill="#FAA21B" d="M31.567,4.292c0.001,0.05,0.008,0.112,0.035,0.208C31.577,4.399,31.567,4.333,31.567,4.292z"/>
					<path fill="#FAA21B" d="M28.635,6.068l-0.006-0.001C28.664,6.148,28.658,6.132,28.635,6.068z"/>
					<path fill="#FAA21B" d="M30.948,2.879c-0.036-0.046-0.073-0.083-0.109-0.107C30.86,2.802,30.894,2.837,30.948,2.879z"/>
					<path fill="#FAA21B" d="M30.88,2.685c0.026,0.012,0.044,0.02,0.062,0.029C30.929,2.642,30.911,2.6,30.88,2.685z"/>
					<path fill="#FAA21B" d="M30.734,2.751c0.031-0.014,0.067-0.002,0.105,0.022c-0.019-0.026-0.031-0.048-0.031-0.063
						C30.793,2.72,30.771,2.734,30.734,2.751z"/>
					<path fill="#FAA21B" d="M8.224,6.747C8.223,6.733,8.222,6.723,8.22,6.704C8.111,6.865,8.147,6.843,8.224,6.747z"/>
					<path fill="#FAA21B" d="M23.888,8.587c0.001-0.005,0.004-0.016,0.006-0.021l-0.011-0.015L23.888,8.587z"/>
					<path fill="#FAA21B" d="M23.671,8.922c0.064-0.544,0.126-0.481,0.212-0.372l-0.17-1.243L23.671,8.922z"/>
					<path fill="#FAA21B" d="M14.303,8.973l0.133,0.409c-0.27,0.613-0.403,0.375-0.294,0.94c0.16-1.349,0.692-0.057,0.835-1.406
						l0.088,0.298c-0.031-0.017-0.043,0.062-0.074,0.045c0.166,0.674,0.245-0.957,0.506-0.735c0.089,0.107,0.143,0.306,0.064,0.464
						l0.242-0.328c0.061,0.028,0.029,0.263-0.032,0.235l0.339-0.098l-0.005,0.04c0.061-0.211,0.188-0.537,0.248-0.675
						c0.071,0.197-0.051,0.143-0.04,0.312l0.201-0.323c0.054,0.354-0.117,0.69-0.241,0.636c0.091,1.359,0.172-0.337,0.498,0.466
						L16.587,9.42c0.071,0.773,0.224,0.498,0.402,0.984c-0.038-0.252-0.338-1.221-0.12-1.553c0.051,0.104,0.123,0.155,0.243-0.115
						c-0.021,0.482,0.09,0.367,0.223,0.344l-0.036,0.639c0.152-0.18,0.153-0.506,0.248-0.791c0.156,0.068,0.172,0.564,0.195,0.982
						c0.254,0.109-0.15-0.799,0.156-0.911c0.204,0.251,0.362-0.006,0.62-0.381c0.143,0.225-0.034,0.39,0.016,0.575l0.14-0.506
						c0.032,0.013,0.019,0.17,0.012,0.249c0.113-0.195,0.02-0.639,0.193-0.808c0.052-0.703,0.342,1.04,0.561,0.246
						c0.052,0.183-0.027,0.391-0.011,0.639c0.294-0.517,0.253-0.374,0.488-1.074l0.206,0.426c-0.153-0.485,0.033-1.048,0.188-1.51
						C20.256,6.621,20.21,6.417,20.18,6.32l0.251-0.338c0.032,0.103,0.011,0.325-0.028,0.593c0.016-0.054,0.031-0.107,0.045-0.155
						c0.096,0.231,0.055,0.603-0.006,0.964c-0.032-0.127-0.066-0.262-0.1-0.396c-0.059,0.387-0.115,0.815-0.097,1.19
						c0.016-0.073,0.049-0.136,0.085-0.17c-0.016,0.105-0.025,0.199-0.017,0.263c0.01,0.068,0.036-0.073,0.077-0.235l0.071,0.713
						l0.01-0.284l0.358,0.428c0.236-0.731,0.42-1.799,0.793-2.114c-0.077,0.528,0.01,0.855,0.028,1.474
						c-0.13-0.65-0.296,0.295-0.506,0.173c0.109,0.063,0.094,0.36,0.07,0.464l0.348-0.616c0.009,0.507,0.091,0.375,0.195,0.58
						c-0.11-0.997,0.247-0.681,0.381-0.996c0.024,0.336,0.004,0.68-0.182,0.609c0.235,0.742,0.206-1.189,0.43-0.56
						c-0.044,0.011-0.07-0.04-0.079,0.132c0.088-0.304,0.351-0.081,0.308,0.215l-0.044,0.009c0.3,0.103,0.898-0.042,0.881-0.892
						c0.011,0.109,0.031,1.025,0.025,1.198l0.31-2.883c0.009,0.731,0.319,2.456,0.106,2.881c0.078,0.1,0.175,0.216,0.304-0.049
						C24.14,8.415,23.996,7.47,24.055,7.4c0.242,0.801,0.157,0.427,0.435,1.106c-0.085-0.152-0.101-1.298,0.013-1.268
						C24.5,7.41,24.61,8.364,24.579,8.485L24.76,7.35c-0.051,0.206,0.073,0.95,0.166,1.263c-0.05-0.218,0.247,0.007,0.312-0.109
						l-0.145-0.252c0.337,0.144,0.157-1.612,0.467-1.592c-0.011,0.236,0.06,1.435,0.237,1.553c0.014-0.583,0.01-2.798,0.211-3.274
						l0.091,0.32l0.153-0.4c-0.007,0.876-0.147,2.737-0.277,3.471c0.15,0.242,0.078,0.381,0.255,0.326
						c0.101,0.297-0.044,0.479-0.096,0.504l0.451,0.138c-0.102-0.665,0.239-0.714,0.149-1.267l-0.368,0.755
						c-0.097-0.664,0.027-1.93,0.326-1.852c0.11,0.255,0.104,1.194,0.139,1.415c0.008-0.235,0.221-0.477,0.271-0.319l-0.076,0.374
						c0.202,0.227,0.143-0.92,0.433-0.313c0.074,0.033,0.335,0.827,0.287,0.432c-0.23-0.742-0.6-3.087-0.618-3.666
						c0.029,0.048,0.446,0.678,0.583,1.041c0.206,0.578,0.064,1.438,0.239,1.935c-0.025-0.182,0.001-0.414,0.014-0.49
						c0.096,0.145,0.062,0.566,0.204,0.462c-0.086-0.676,0.323,0.012-0.022-0.579c0.117-0.213,0.183,0.116,0.354,0.061
						c-0.131-0.426-0.103-1.499,0.005-1.71c0.022,0.172,0.096,0.389,0.13,0.488c0.312,0.028,0.526,0.269,0.807,0.216
						c0.058,0.156,0.235,0.319,0.238,0.62c0.016-0.128,0.006-0.362,0.089-0.399c0.293,0.536-0.175,0.136,0.101,0.798
						c-0.071-0.39,0.113-0.588,0.182-0.859c-0.171-0.588-0.307-0.048-0.382,0.224c-0.173-0.826-0.146-1.74,0.04-2.186
						c0.172-0.256,0.218,0.509,0.229,0.383c0.455,0.044,0.004-1.515,0.487-1.004c0.269,0.489,0.273,1.035,0.399,1.403
						C30.691,5.505,30.46,5,30.342,5.05l0.214,0.211c-0.015,0.187-0.107,0.348-0.211,0.213c0.233,0.441,0.743-0.08,1.192,0.271
						c0.012-0.188,0.062-0.391-0.044-0.588L31.41,5.253c-0.21-0.396,0.033-0.623-0.151-0.788c0.053-0.332,0.077-0.808,0.322-0.643
						l0.21,0.576c-0.056-0.17-0.223-0.308-0.223-0.112c-0.003-0.285,0.523,0.696,0.373-0.1l-0.252-0.362
						c0.041-0.34-0.003-1.014,0.209-0.883c-0.256-0.552-0.016,0.079-0.339-0.559c0.36,0.807-0.398,0.1,0.025,0.933
						c-0.353-0.751-0.291-0.257-0.64-0.896c0.061,0.193,0.161,0.359-0.001,0.295c0.01,0.058,0.016,0.134,0.019,0.178l-0.013-0.012
						L30.962,2.9c0.002,0.031,0.004,0.037,0.005,0.007c0.056,0.078,0.112,0.174,0.154,0.28c0.06,0.462-0.166,0.5-0.177,0.749
						c-0.108-0.073-0.027-0.232-0.129-0.429L30.798,3.88c-0.129-0.431-0.408-0.67-0.286-0.969l-0.175,0.02
						c-0.164-0.22-0.323-0.286-0.361-0.083c-0.102-0.076-0.083,0.53-0.097,0.172l-0.202,0.334l-0.028-0.109
						c-0.271,0.006-0.389,0.857-0.858,0.136c-0.066,0.132-0.132,0.29-0.305,0.201l-0.102-0.375c-0.087,0.163-0.421-0.33-0.398,0.078
						c-0.309-1.012-0.605-0.147-0.843-0.301l0.072,0.502c-0.147-0.009-0.261,0.153-0.41,0.379l0.077,0.442
						c-0.103,0.386-0.445-0.26-0.682-0.18c-0.006-0.172,0.062-0.136,0.119-0.04c-0.419-0.964-0.525,0.818-0.88,0.123
						c-0.048,0.171-0.102,0.123-0.161,0.017c0.006-0.002,0.011-0.011,0.014-0.026C25.285,4.2,25.275,4.2,25.265,4.203
						c-0.038-0.072-0.081-0.155-0.117-0.224c0.039,0.104,0.075,0.19,0.102,0.228c-0.05,0.016-0.121,0.083-0.185,0.205l-0.081-0.474
						c-0.005,0.007-0.01,0.007-0.016,0.016c-0.091-0.166-0.037,0.235,0.039,0.59c-0.03,0.084-0.056,0.184-0.072,0.303
						c-0.135-0.76-0.18,0.274-0.341-0.545c-0.015,0.405-0.362,0.324-0.332,1.173c-0.012-0.11-0.04-0.162,0.002-0.171
						c-0.096-0.092-0.191-0.184-0.25,0.059l-0.086-0.608l-0.127,0.831c-0.145-0.366-0.208-0.579-0.129-1.055
						c-0.223,0.737-0.203,0.284-0.39,1.013l-0.015-0.396c-0.083,0.02-0.185,0.556-0.257,0.232c-0.233-0.741-0.945-0.053-1.455-0.725
						c0.136,1.16-0.242-0.51-0.23,0.394c-0.037-0.274-0.109-0.426-0.039-0.67c-0.237,0.284-0.376-0.417-0.527,0.354
						c-0.034-0.275,0.043-0.407,0.015-0.569c-0.018,0.061-0.072,0.244-0.101,0.081c-0.028-0.163,0.031-0.233,0.066-0.356
						c-0.245,0.06-0.256,0.911-0.261,1.709c-0.135-0.367-0.196-0.326-0.284,0.197c-0.048-0.262-0.125-0.537,0.031-0.626
						c-0.09-0.041-0.538-0.399-0.546,0.24c-0.028-0.163-0.123-0.051-0.147,0.022c-0.199-0.044-0.215-0.102-0.411-0.048l0.053,0.106
						c-0.084,0.769-0.165,0.167-0.324,0.255l0.006-0.079c-0.351-0.567-0.163,0.262-0.505-0.383l0.008,0.48
						c-0.061,1.03-0.301-0.618-0.518-0.229l0.066,0.276c-0.128,0.349-0.265-1.411-0.368-1.543c-0.02-0.09,0.044-0.143,0.08-0.208
						c-0.263-0.616-0.063,0.627-0.288,0.766c-0.024-0.34,0.09-0.859-0.051-0.927c-0.055-0.276-0.479,1.087-0.643,0.432
						c0.028,0.262,0.057,0.523-0.056,0.717c-0.165,0.088-0.355-0.997-0.552-0.18c-0.015-0.072-0.017-0.14-0.013-0.205
						c-0.135,0.216-0.412,0.334-0.52,0.763c0.034-1.664-0.813,0.711-0.668-0.81l-0.37,0.037l0.026-0.154
						c-0.219-0.129-0.341,0.225-0.466,0.579c-0.042-0.11,0.014-0.247,0.028-0.326c-0.303-0.348-0.338-0.286-0.725,0.433l0.035-0.495
						c-0.119,0.276-0.38-0.829-0.793-0.297c0.012-0.055,0.033-0.149,0.07-0.215c-0.469,0.527-0.655-1.455-1.093,0.278L11.22,4.843
						c0.293,0.207-0.188,0.76-0.111,1.084c-0.148,0.076-0.229-0.607-0.057-0.664l0.008,0.094c0.228-0.913-0.334-0.414-0.202-1.04
						C10.23,4.227,9.745,3.59,9.19,3.429L9.08,4.154L8.888,4.07c-0.012-0.177,0.07-0.57,0.204-0.51
						c0.027-0.418-0.323,0.285-0.368,0.438C8.518,3.651,9.046,3.195,8.964,3.16L8.835,3.188L8.84,3.276
						C8.672,3.544,8.581,3.854,8.42,3.775C8.352,3.6,8.483,3.322,8.449,3.282c0.014-0.05,0.006-0.078-0.057-0.04L8.167,3.106
						L8.109,3.693c-0.185,0.24-0.224-0.102-0.287,0.564C7.929,3.233,7.001,3.62,6.988,3.289C6.708,3.642,6.555,3.587,6.383,3.48
						c0.008,0.128-0.168,0.753-0.309,0.626c0.49-1.25-0.113-0.644,0.078-1.593C6.051,3.16,5.651,2.511,5.52,3.425
						C5.426,3.269,5.684,2.95,5.696,2.614c-0.49,0.36-0.547-0.589-0.981-0.576C4.641,2.198,4.601,2.472,4.418,2.68l0.146-0.89
						C4.457,1.84,4.09,2.693,4.199,2.079c-0.041,0.143-0.101,0.359-0.174,0.39C3.815,1.938,3.402,1.904,3,1.796
						C2.609,1.686,2.213,1.489,2.323,0.598c-0.09,0.344-0.163,0.339-0.236,0.31c0.001,0.096-0.225,0.372-0.34,0.581L1.82,0.76
						C1.617,1.024,1.536,0.989,1.461,0.952C1.399,0.919,1.347,0.888,1.151,1.137l0.137-0.044C0.747,1.63,0.522,2.578,0,3.375
						c0.602-0.627-0.234,1.327,0.658,0.446C0.618,4.026,0.453,4.059,0.373,4.269c0.275-0.316,0.394-0.336,0.456-0.096l-0.066,0.08
						c0.474,0.129,0.464,0.578,0.839,1.068l0.173-0.443c0.076,0.109,0.033,0.254,0.031,0.386c0.431-0.587-0.275-0.184,0.182-0.84
						c-0.285,0.939,0.713,0.377,0.36,1.399c0.163,0.073,0.176-0.52,0.337-0.447L2.606,5.664l0.195-0.333
						C2.883,5.433,2.79,5.795,2.694,6.027C2.68,5.989,2.591,6.061,2.554,6.069c0.004,0.379,0.448,0.055,0.451,0.179L2.916,6.014
						c0.556-0.072,0.97,0.516,1.613,0.127l0.044-0.223c0.468-0.265,0.183,0.32,0.613,0.26L5.155,6.224
						C5.301,6.036,5.434,5.96,5.526,6.015C5.349,6.234,5.539,6.552,5.325,6.789C5.83,6.482,5.618,6.515,6.11,5.799l-0.058,0.37
						c0.182-0.294,0.242-0.461,0.45-0.497C6.259,5.929,6.45,6.247,6.158,6.597C6.311,7.494,6.961,5.99,6.806,7.183
						c0.459-0.932-0.174-0.651-0.014-0.831c0.014-0.347,0.359-0.692,0.447-0.556c0.112,0.059-0.153,1.327,0.167,1.405
						c-0.03-0.014-0.052,0.06-0.082,0.046c0.049,0.291,0.32-0.271,0.357,0.168c0.237-0.583,0.18,0.076,0.4-0.686L7.748,6.845
						c0.217-0.164,0.595-1.03,0.748-0.537C8.437,6.459,8.308,6.645,8.224,6.747C8.246,6.991,8.412,6.629,8.435,6.88
						c-0.213,0.764-0.39,0.091-0.717,0.638c0.003,0.343,0.476-0.483,0.177,0.329c0.393-1.03,0.283,0.203,0.694-0.56L8.465,7.746
						C8.517,7.68,8.639,7.478,8.698,7.503L8.443,8.077c0.295-0.473,0.236,0.521,0.471,0.28C8.555,8.294,8.961,7.782,8.89,7.412
						c0.567-0.527-0.026,1.265,0.517,1.149c-0.081,0.051-0.19-0.333-0.04-0.525c0.072,0.116,0.157,0.32,0.164,0.576
						C9.876,8.586,9.58,8.124,9.777,7.868C9.77,8.458,9.982,7.672,10.156,7.52l-0.093,0.474c0.306,0.383,0.288-0.966,0.542-0.529
						l-0.262,0.628l0.203-0.133L10.41,8.491c0.263-0.36,0.3-0.244,0.457-0.053c0.017-0.344,0.176-0.857,0.338-0.838
						c0.061,0.303-0.14,0.446,0.102,0.409c-0.101,0.29-0.224,0.662-0.248,0.2c-0.037,0.153-0.103,0.287-0.14,0.438
						c0.064,0.356,0.291,0.125,0.376,0.131c-0.03-0.022-0.064-0.052-0.073-0.123l0.444-0.618c0.024,0.185-0.04,0.324-0.105,0.459
						c0.077-0.043,0.158-0.256,0.264-0.285c-0.086,0.384-0.142,0.785-0.315,0.949l0.391-0.39c-0.005,0.171,0.096,0.484,0.033,0.621
						c0.149,0.251,0.551-0.698,0.745-0.368c0.023-0.074,0.057-0.143,0.115-0.192c0.209,0.115,0.351,0.617,0.68,0.116l0.069,0.717
						c0.226-0.133-0.101-0.905,0.272-1.126c0.266-0.193,0.025,0.607,0.089,0.812c0.162-0.337,0.442-1.03,0.608-0.433
						C14.425,9.04,14.377,8.93,14.303,8.973z M16.864,8.842c-0.054,0.1-0.169,0.409-0.19,0.123
						C16.76,8.415,16.788,8.681,16.864,8.842z M20.687,7.771c-0.032,0.161-0.089,0.085-0.154-0.094
						C20.577,7.635,20.628,7.651,20.687,7.771z M30.276,3.237c0,0.008,0.001,0.014,0.001,0.024
						C30.136,3.101,30.188,3.165,30.276,3.237z M30.526,3.393c0.003-0.07-0.016-0.134-0.041-0.197
						c0.018,0.121-0.025,0.14-0.084,0.119C30.447,3.433,30.495,3.512,30.526,3.393z M8.381,3.447l0.005,0.134
						C8.264,3.687,8.321,3.574,8.381,3.447z"/>
					<path fill="#FAA21B" d="M20.269,8.44c-0.015-0.082-0.02-0.172-0.024-0.263C20.227,8.258,20.228,8.352,20.269,8.44z"/>
					<polygon fill="#FAA21B" points="12.685,9.031 12.678,9.025 12.659,9.11 					"/>
					<path fill="#FAA21B" d="M28.078,8.067c-0.058-0.062-0.098-0.145-0.129-0.233C27.965,7.951,28.002,8.046,28.078,8.067z"/>
					<path fill="#FAA21B" d="M31.319,2.333L31.24,2.494c0.049-0.043,0.1,0.051,0.151,0.114C31.355,2.502,31.285,2.353,31.319,2.333z
						"/>
					<path fill="#FAA21B" d="M33.344,4.79c-0.001-0.062,0.039-0.02,0.037-0.083l-0.083-0.209C33.222,4.54,33.226,4.73,33.344,4.79z"
						/>
					<path fill="#FAA21B" d="M31.905,3.826c0.131,0.384,0.17,0.225,0.234,0.123c-0.005,0.003-0.009,0.008-0.016,0.005
						C31.975,3.404,31.942,3.615,31.905,3.826z"/>
					<path fill="#FAA21B" d="M32.155,3.928c0.021-0.027,0.046-0.047,0.078-0.038C32.173,3.671,32.186,3.857,32.155,3.928z"/>
					<path fill="#FAA21B" d="M30.707,3.075c0.069,0.091-0.111-0.507-0.044-0.352C30.574,2.213,30.55,3.39,30.707,3.075z"/>
					<polygon fill="#FAA21B" points="32.379,5.075 32.196,4.609 32.265,5.012 					"/>
					<path fill="#FAA21B" d="M31.543,4.953l0.189,0.098c-0.026-0.08-0.02-0.132-0.007-0.174C31.627,4.883,31.499,4.811,31.543,4.953
						z"/>
					<path fill="#FAA21B" d="M31.724,4.877c0.051-0.003,0.091-0.031,0.094-0.118C31.795,4.772,31.746,4.81,31.724,4.877z"/>
					<polygon fill="#FAA21B" points="32.222,5.289 32.147,5.204 32.032,5.205 					"/>
					<path fill="#FAA21B" d="M29.905,5.241L29.772,5.42c0.02,0.172,0.088,0.264,0.135,0.182C29.921,5.476,29.967,5.397,29.905,5.241
						z"/>
					<path fill="#FAA21B" d="M30.726,6.457c-0.071-0.09-0.1-0.198-0.165-0.352l0.141,0.605L30.726,6.457z"/>
					<path fill="#FAA21B" d="M30.26,6.716c0.022,0.172-0.142,0.542,0.07,0.452C30.31,6.997,30.45,6.817,30.26,6.716z"/>
					<polygon fill="#FAA21B" points="27.542,6.423 27.584,6.409 27.42,5.404 					"/>
					<path fill="#FAA21B" d="M25.532,9.164c0.238,0.213-0.015-0.632,0.208-0.356c0.024-0.246-0.182-0.226-0.153-0.439
						C25.487,8.639,25.405,8.505,25.532,9.164z"/>
					<path fill="#FAA21B" d="M25.587,8.369c0.016-0.043,0.032-0.094,0.048-0.163C25.605,8.274,25.593,8.325,25.587,8.369z"/>
					<polygon fill="#FAA21B" points="1.931,0.216 1.993,0 1.837,0.309 					"/>
					<path fill="#FAA21B" d="M1.372,0.748L1.74,0.214L1.347,0.657C1.381,0.645,1.446,0.621,1.372,0.748z"/>
					<path fill="#FAA21B" d="M17.183,10.16l0.017-0.156c-0.014-0.169-0.046-0.183-0.109-0.211L17.183,10.16z"/>
					<polygon fill="#FAA21B" points="15.339,9.612 15.371,9.629 15.356,9.036 					"/>
					<path fill="#FAA21B" d="M13.689,10.167c0.062,0.032,0.153-0.089,0.215-0.056C13.751,10.199,13.752,9.437,13.689,10.167z"/>
				</g>
			</g>
		</g>
	</g>
</g>
</svg>
