<?xml version="1.0" encoding="utf-8"?>
<!-- Generator: Adobe Illustrator 17.0.0, SVG Export Plug-In . SVG Version: 6.00 Build 0)  -->
<!DOCTYPE svg PUBLIC "-//W3C//DTD SVG 1.1//EN" "http://www.w3.org/Graphics/SVG/1.1/DTD/svg11.dtd">
<svg version="1.1" id="Layer_1" xmlns="http://www.w3.org/2000/svg" xmlns:xlink="http://www.w3.org/1999/xlink" x="0px" y="0px"
	 width="71.04px" height="38.88px" viewBox="0 0 71.04 38.88" enable-background="new 0 0 71.04 38.88" xml:space="preserve">
<g>
	<g>
		<linearGradient id="SVGID_1_" gradientUnits="userSpaceOnUse" x1="17.2282" y1="21.3977" x2="53.4172" y2="21.3977">
			<stop  offset="0" style="stop-color:#DFD4C2"/>
			<stop  offset="0.0901" style="stop-color:#D7BEB2"/>
			<stop  offset="0.2101" style="stop-color:#D1A6A2"/>
			<stop  offset="0.3372" style="stop-color:#CD9294"/>
			<stop  offset="0.4716" style="stop-color:#CA838A"/>
			<stop  offset="0.6167" style="stop-color:#C77984"/>
			<stop  offset="0.78" style="stop-color:#C67380"/>
			<stop  offset="1" style="stop-color:#C6717F"/>
		</linearGradient>
		<path fill="url(#SVGID_1_)" d="M15.487,22.49c5.779,4.245,14.248,4.993,21.118,5.006c5.956,0.011,14.779-0.702,19.279-5.351
			c3.364-3.475-1.934-8.783-5.303-5.303c-0.001,0.001-1.177,0.822-2.191,1.235c-3.718,1.517-7.821,1.799-11.785,1.918
			c-5.579,0.168-12.637-0.532-17.333-3.982C15.368,13.145,11.633,19.659,15.487,22.49L15.487,22.49z"/>
	</g>
</g>
<g>
	
		<image overflow="visible" opacity="0.25" width="148" height="81" xlink:href="2518A5B75F8AA4F4.png"  transform="matrix(0.48 0 0 0.48 0 0)">
	</image>
	<g>
		<path fill="#E2F3FD" d="M54.876,16.088c-1.258-0.885-4.756-0.268-6.483,0.893c-2.158-1.047-7.071-0.489-8.655,1.066
			c-0.102-0.183-0.233-0.361-0.405-0.533c-1.453-1.446-6.366-1.343-8.635-0.086c-1.329-1.727-6.266-2.967-7.922-1.87
			c-0.357,0.236-0.589,0.523-0.722,0.84c-1.664-1.174-5.048-1.864-6.298-1.035c-2.099,1.391,0.641,4.725,2.424,5.203
			c1.223,0.328,3.51-0.283,4.462-1.428c0.751,1.122,1.943,2.092,2.895,2.348c1.086,0.291,2.907-0.068,4.171-0.857
			c0.958,1.65,3.631,2.958,5.235,2.855c1.39-0.089,3.438-1.331,4.443-2.804c0.942,1.685,3.77,2.972,5.416,2.809
			c1.32-0.131,3.203-1.33,4.202-2.747c1.065,0.549,2.396,0.797,3.245,0.594C54.087,20.899,56.982,17.569,54.876,16.088z"/>
	</g>
</g>
</svg>
