<?xml version="1.0" encoding="utf-8"?>
<!-- Generator: Adobe Illustrator 17.0.0, SVG Export Plug-In . SVG Version: 6.00 Build 0)  -->
<!DOCTYPE svg PUBLIC "-//W3C//DTD SVG 1.1//EN" "http://www.w3.org/Graphics/SVG/1.1/DTD/svg11.dtd">
<svg version="1.1" id="Layer_1" xmlns="http://www.w3.org/2000/svg" xmlns:xlink="http://www.w3.org/1999/xlink" x="0px" y="0px"
	 width="50.055px" height="32.171px" viewBox="0 0 50.055 32.171" enable-background="new 0 0 50.055 32.171" xml:space="preserve">
<path fill="#E6ABCE" d="M49.658,12.546c-0.653,2.057-7.382,7.525-18.707,8.938c-5.189,0.647-19.963,0.951-28.093-8.034
	c-2.7-2.984-4.563-7.68-0.488-11.995c2.254-2.387,6.516-1.273,8.033-0.598c1.048,0.466,8.325,5.646,14.573,5.408
	c7.957-0.303,12.453-5.419,18.379-4.94c1.295,0.105,5.167,1.82,5.945,3.228C50.231,6.241,50.24,10.712,49.658,12.546z"/>
<path fill="#FAD7E7" d="M47.665,8.163c0.449,0.2,0.491-1.275-0.047-2.023c-0.323-0.45-1.239-1.382-1.604-1.243
	c-0.319,0.122,0.307,1.197,0.537,1.652C46.778,6.998,47.094,7.909,47.665,8.163z"/>
<path fill="#FAD7E7" d="M2.045,9.741c-0.63,0.194,1.077,3.06,2.433,3.799c0.815,0.444,2.72,1.049,2.875,0.316
	c0.135-0.642-1.685-1.891-2.424-2.464C4.2,10.827,2.846,9.494,2.045,9.741z"/>
<path opacity="0.5" fill="#282828" d="M3.591,5.218c1.384-0.295,4.17,1.323,5.46,1.905c2.144,0.968,6.578,2.81,8.854,3.405
	c2.389,0.625,7.372,1.048,9.838,0.904c3.288-0.193,8.903-1.433,11.903-2.79c2.198-0.994,4.458-1.507,5.706-1.605
	c0.659-0.052,1.794,0.245,1.794,1.715c0,1.455-0.889,2.234-1.429,2.76c-2.365,2.304-8.987,4.338-12.171,5.213
	c-1.721,0.473-5.312,0.667-7.083,0.885c-1.008,0.124-3.102,0.085-4.033,0.492c-0.384,0.168-1.024,0.75-1.279,1.082
	c-0.475,0.619-1.117,2.073-1.329,2.824c-0.271,0.96-0.159,3.008-0.442,3.964c-0.156,0.527-0.465,1.785-0.984,1.968
	c-0.332,0.117-1.059-0.316-1.279-0.59c-0.362-0.451-0.403-1.691-0.492-2.263c-0.121-0.781-0.184-2.365-0.295-3.148
	c-0.074-0.521-0.166-1.592-0.394-2.066c-0.197-0.409-0.829-1.218-1.281-1.258c-0.54-0.047-1.12,0.814-1.405,1.274
	c-0.345,0.557-0.488,1.918-0.618,2.56c-0.143,0.711-0.375,2.132-0.463,2.852c-0.081,0.661-0.089,2.048-0.195,2.705
	c-0.113,0.701-0.254,2.082-0.634,2.681c-0.312,0.492-1.447,1.494-2.03,1.483c-0.482-0.01-1.173-0.879-1.441-1.279
	c-0.333-0.498-0.755-1.665-0.787-2.263c-0.04-0.757,0.745-2.187,0.846-2.938c0.085-0.634,0.122-1.822,0.146-2.462
	c0.025-0.639,0.06-2.067,0.097-2.705c0.055-0.936,0.239-2.767,0.244-3.705c0.004-0.715-0.118-1.711-0.371-2.38
	c-0.219-0.58-1.216-1.573-1.603-2.056c-0.497-0.619-1.694-2.056-2.194-2.673c-0.329-0.407-0.92-1.302-1.17-1.763
	c-0.21-0.387-0.388-0.902-0.39-1.731C2.688,5.579,3.236,5.294,3.591,5.218z"/>
<path fill="#FADBE9" d="M3.859,5.371c1.37-0.292,3.914,1.158,5.191,1.734c2.123,0.958,6.512,2.781,8.765,3.371
	c2.365,0.619,7.298,1.038,9.738,0.895c3.254-0.191,8.813-1.419,11.783-2.762c2.176-0.984,4.413-1.491,5.649-1.589
	c0.653-0.051,1.985,0.24,1.985,1.695c0,1.441-1.089,2.215-1.623,2.736c-2.341,2.281-8.896,4.294-12.048,5.161
	c-1.703,0.468-5.258,0.66-7.012,0.876c-0.998,0.123-3.071,0.084-3.993,0.487c-0.38,0.166-1.014,0.742-1.266,1.071
	c-0.47,0.613-1.106,2.052-1.316,2.795c-0.268,0.95-0.158,2.978-0.437,3.924c-0.154,0.522-0.46,1.767-0.974,1.948
	c-0.329,0.115-1.048-0.312-1.266-0.584c-0.359-0.447-0.399-1.674-0.487-2.24c-0.12-0.773-0.182-2.342-0.292-3.116
	c-0.073-0.515-0.164-1.576-0.39-2.045c-0.195-0.405-0.721-1.325-1.169-1.363c-0.534-0.046-1.373,0.908-1.656,1.363
	c-0.341,0.551-0.984,4.644-1.071,5.356c-0.08,0.654-0.401,4.839-0.876,5.356c-1.013,1.103-1.21,1.472-1.787,1.461
	c-0.477-0.01-1.162-0.87-1.427-1.266c-0.33-0.493-0.748-1.648-0.779-2.24c-0.04-0.749,0.582-2.178,0.682-2.922
	c0.085-0.628,0.073-1.899,0.097-2.532c0.024-0.633,0.06-1.9,0.097-2.532c0.054-0.926,0.288-2.773,0.292-3.701
	c0.004-0.708,0.034-1.698-0.216-2.36c-0.217-0.574-1.131-1.681-1.515-2.16c-0.492-0.613-1.587-1.931-2.081-2.542
	C4.133,9.243,3.535,8.349,3.288,7.893C3.08,7.51,2.88,7.029,2.879,6.209C2.877,5.577,3.508,5.445,3.859,5.371z"/>
<path fill="#C48AAE" d="M43.208,11.434c-2.709,1.584-11.163,4.074-16.146,4.237C16.414,16.02,8.727,12.366,6.624,10.774
	c-0.897-0.678-2.969-2.157-3.268-3.981c-0.367-2.24,3.023-0.259,4.33,0.487c1.781,1.017,7.633,5.009,19.33,4.763
	c9.489-0.2,17.743-4.779,18.744-3.407C46.437,9.563,45.043,10.36,43.208,11.434z"/>
</svg>
