<?xml version="1.0" encoding="utf-8"?>
<!-- Generator: Adobe Illustrator 17.0.0, SVG Export Plug-In . SVG Version: 6.00 Build 0)  -->
<!DOCTYPE svg PUBLIC "-//W3C//DTD SVG 1.1//EN" "http://www.w3.org/Graphics/SVG/1.1/DTD/svg11.dtd">
<svg version="1.1" id="Layer_1" xmlns="http://www.w3.org/2000/svg" xmlns:xlink="http://www.w3.org/1999/xlink" x="0px" y="0px"
	 width="65.28px" height="23.178px" viewBox="0 0 65.28 23.178" enable-background="new 0 0 65.28 23.178" xml:space="preserve">
<g>
	
		<image overflow="visible" opacity="0.4" width="113" height="41" xlink:href="721B19AC44927B7A.png"  transform="matrix(0.48 0 0 0.48 3.8913 3.4979)">
	</image>
	<g>
		<path fill="#282828" d="M9.891,11.96c0,0,2.921-1.691,4.705-2.09c2.536-0.567,7.861-0.323,9.766-0.303
			c3.207,0.035,12.058,0.618,13.387,0.618c8.07,0,14.017,0.897,14.017,0.897s-3.041,3.602-11.739,5.06
			c-3.954,0.663-12.675,1.031-16.409,0c-2.005-0.554-2.495-2.03-6.191-3.741C15.971,11.728,9.891,11.96,9.891,11.96z"/>
	</g>
</g>
<path fill="#282828" d="M6,14.378c0,0,0.865-0.522,2.374-1.552c0.205-0.14,1.714-1.509,1.906-1.659
	c1.228-0.961,2.273-1.434,3.741-2.174c1.716-0.866,5.647-1.987,7.669-2.276c3.455-0.495,10.555-0.2,14.06,0
	c2.148,0.122,6.426,0.592,8.521,0.976c2.184,0.4,6.56,1.334,8.521,2.168c0.727,0.309,2.011,1.147,2.556,1.626
	c0.575,0.505,1.46,1.676,1.846,2.276c0.535,0.831,1.704,3.023,1.704,3.023s-2.102-2.232-2.982-3.023
	c-0.562-0.504-1.722-1.168-2.497-1.466c-2.261-0.868-7.436-1.187-9.941-1.463c-2.189-0.241-6.601-0.514-8.805-0.65
	c-3.263-0.202-9.793-0.671-13.066-0.65c-1.745,0.011-5.354-0.09-6.959,0.434c-1.056,0.345-2.025,1.377-2.888,1.956
	c-1.131,0.758-1.466,0.879-2.801,1.409C7.478,13.921,6,14.378,6,14.378z"/>
<g>
	<path fill="#D0E5F7" d="M28.732,10.279c-0.846-0.033-2.397-0.973-1.589-1.603c0.592-0.462,2.853-0.375,3.381,0.13
		C31.245,9.495,29.578,10.311,28.732,10.279z"/>
</g>
<g>
	<path fill="#D0E5F7" d="M32.984,10.551c-0.874,0.021-2.573-0.848-1.811-1.548c0.558-0.513,2.894-0.568,3.493-0.082
		C35.483,9.583,33.858,10.53,32.984,10.551z"/>
</g>
<g>
	<path fill="#D0E5F7" d="M36.914,10.402c-0.807,0.041-2.414-0.72-1.74-1.386c0.494-0.488,2.652-0.597,3.226-0.163
		C39.183,9.446,37.721,10.361,36.914,10.402z"/>
</g>
<g>
	<path fill="#D0E5F7" d="M40.523,10.59c-0.909-0.014-2.614-0.984-1.774-1.681c0.615-0.511,3.045-0.474,3.634,0.055
		C43.185,9.685,41.432,10.603,40.523,10.59z"/>
</g>
<g>
	<path fill="#D0E5F7" d="M24.585,9.967c-0.828-0.116-2.194-1.197-1.291-1.738c0.662-0.396,2.874-0.085,3.308,0.465
		C27.194,9.445,25.412,10.083,24.585,9.967z"/>
</g>
<g>
	<path fill="#D0E5F7" d="M20.572,9.912c-0.846-0.035-2.393-0.98-1.582-1.609c0.594-0.46,2.856-0.367,3.382,0.14
		C23.089,9.135,21.418,9.947,20.572,9.912z"/>
</g>
<g>
	<path fill="#D0E5F7" d="M16.705,9.932c-0.776-0.038-2.182-0.917-1.43-1.488c0.551-0.418,2.625-0.315,3.1,0.154
		C19.025,9.239,17.481,9.971,16.705,9.932z"/>
</g>
<g>
	<path fill="#D0E5F7" d="M14.175,10.46c-0.567,0.219-2.035,0.048-1.817-0.592c0.16-0.469,1.674-1.055,2.264-0.877
		C15.428,9.235,14.741,10.241,14.175,10.46z"/>
</g>
<g>
	<path fill="#D0E5F7" d="M44.008,10.628c0.796,0.027,2.356-0.748,1.674-1.393c-0.5-0.472-2.627-0.544-3.179-0.108
		C41.748,9.724,43.213,10.601,44.008,10.628z"/>
</g>
<g>
	<path fill="#D0E5F7" d="M47.003,10.921c0.772,0.026,2.287-0.726,1.625-1.352c-0.485-0.459-2.55-0.528-3.087-0.104
		C44.809,10.044,46.231,10.895,47.003,10.921z"/>
</g>
<g>
	<path fill="#D0E5F7" d="M50.07,11.429c0.767,0.095,2.396-0.52,1.831-1.205c-0.414-0.502-2.465-0.757-3.066-0.381
		C48.013,10.355,49.302,11.333,50.07,11.429z"/>
</g>
<g>
	
		<image overflow="visible" opacity="0.4" width="136" height="48" xlink:href="721B19AC44927B7E.png"  transform="matrix(0.48 0 0 0.48 0 0)">
	</image>
	<g>
		<linearGradient id="SVGID_1_" gradientUnits="userSpaceOnUse" x1="6" y1="11.3928" x2="58.9" y2="11.3928">
			<stop  offset="0" style="stop-color:#0D1031"/>
			<stop  offset="0.043" style="stop-color:#1C2645"/>
			<stop  offset="0.1334" style="stop-color:#355072"/>
			<stop  offset="0.2624" style="stop-color:#5597BF"/>
			<stop  offset="0.329" style="stop-color:#65C5F0"/>
			<stop  offset="0.361" style="stop-color:#76C2E1"/>
			<stop  offset="0.4222" style="stop-color:#96BCC2"/>
			<stop  offset="0.5061" style="stop-color:#BDB192"/>
			<stop  offset="0.6085" style="stop-color:#E79D51"/>
			<stop  offset="0.6492" style="stop-color:#F79430"/>
			<stop  offset="0.7722" style="stop-color:#7E5C51"/>
			<stop  offset="0.9225" style="stop-color:#0D1031"/>
		</linearGradient>
		<path fill="url(#SVGID_1_)" d="M6,14.378c0,0,1.399-1.034,2.804-2.259c1.159-1.01,3.745-2.988,5.213-3.729
			c1.716-0.866,5.652-1.83,7.674-2.12c3.455-0.495,10.555-0.2,14.06,0c2.148,0.122,6.426,0.592,8.521,0.976
			c2.184,0.4,6.56,1.334,8.521,2.168c0.727,0.309,2.011,1.147,2.556,1.626c0.575,0.505,1.46,1.676,1.846,2.276
			c0.535,0.831,1.704,3.469,1.704,3.469s-2.102-2.679-2.982-3.469c-0.562-0.504-1.782-1.491-2.556-1.789
			c-2.261-0.868-7.436-1.187-9.941-1.463c-2.189-0.241-6.601-0.514-8.805-0.65c-3.263-0.202-9.793-0.671-13.066-0.65
			c-1.745,0.011-4.809,0.337-6.414,0.861c-1.056,0.345-3.326,1.976-4.534,2.661C9.495,12.913,6,14.378,6,14.378z"/>
	</g>
</g>
<g>
	<path fill="#D0E5F7" d="M30.624,12.027c-0.846,0.033-2.397,0.973-1.589,1.603c0.592,0.462,2.853,0.375,3.381-0.13
		C33.137,12.811,31.47,11.994,30.624,12.027z"/>
</g>
<g>
	<path fill="#D0E5F7" d="M34.776,11.996c-0.872,0.048-2.445,1.044-1.594,1.681c0.624,0.467,2.955,0.339,3.486-0.191
		C37.392,12.762,35.649,11.948,34.776,11.996z"/>
</g>
<g>
	<path fill="#D0E5F7" d="M38.874,11.754c-0.807,0.046-2.258,0.972-1.467,1.559c0.579,0.43,2.735,0.306,3.223-0.185
		C41.297,12.457,39.681,11.708,38.874,11.754z"/>
</g>
<g>
	<path fill="#D0E5F7" d="M42.466,11.676c-0.691,0.052-1.915,0.867-1.221,1.36c0.508,0.361,2.357,0.223,2.764-0.206
		C44.564,12.244,43.158,11.624,42.466,11.676z"/>
</g>
<g>
	<path fill="#D0E5F7" d="M26.708,11.877c-0.833-0.093-2.581,0.596-1.953,1.329c0.46,0.537,2.686,0.785,3.328,0.37
		C28.959,13.011,27.541,11.97,26.708,11.877z"/>
</g>
<g>
	<path fill="#D0E5F7" d="M23.069,11.278c-0.795-0.223-2.706,0.178-2.286,1c0.307,0.602,2.434,1.199,3.179,0.892
		C24.979,12.751,23.865,11.501,23.069,11.278z"/>
</g>
<g>
	<path fill="#D0E5F7" d="M19.416,10.393c-0.737-0.189-2.475,0.216-2.063,0.961c0.302,0.546,2.271,1.052,2.945,0.757
		C21.217,11.707,20.153,10.582,19.416,10.393z"/>
</g>
<g>
	<path fill="#D0E5F7" d="M45.563,11.086c-0.691,0.052-1.915,0.867-1.221,1.36c0.508,0.361,2.357,0.223,2.764-0.206
		C47.661,11.655,46.254,11.035,45.563,11.086z"/>
</g>
<linearGradient id="SVGID_2_" gradientUnits="userSpaceOnUse" x1="11.517" y1="13.3223" x2="51.7664" y2="13.3223">
	<stop  offset="0" style="stop-color:#0D1031"/>
	<stop  offset="0.043" style="stop-color:#1C2645"/>
	<stop  offset="0.1334" style="stop-color:#355072"/>
	<stop  offset="0.2624" style="stop-color:#5597BF"/>
	<stop  offset="0.329" style="stop-color:#65C5F0"/>
	<stop  offset="0.361" style="stop-color:#76C2E1"/>
	<stop  offset="0.4222" style="stop-color:#96BCC2"/>
	<stop  offset="0.5061" style="stop-color:#BDB192"/>
	<stop  offset="0.6085" style="stop-color:#E79D51"/>
	<stop  offset="0.6492" style="stop-color:#F79430"/>
	<stop  offset="0.7722" style="stop-color:#7E5C51"/>
	<stop  offset="0.9225" style="stop-color:#0D1031"/>
</linearGradient>
<path fill="url(#SVGID_2_)" d="M11.517,11.727l1.302-0.822c1.547-0.397,3.87-0.5,5.175-0.224c1.837,0.387,4.83,1.74,6.666,2.127
	c3.628,0.765,11.592,0.435,15.366,0c7.979-0.92,11.739-1.724,11.739-1.724s-3.041,2.935-11.739,4.393
	c-3.954,0.663-12.675,1.031-16.409,0c-2.005-0.554-2.494-1.926-6.328-3.45C15.698,11.393,11.517,11.727,11.517,11.727z"/>
</svg>
