<?xml version="1.0" encoding="utf-8"?>
<!-- Generator: Adobe Illustrator 17.0.0, SVG Export Plug-In . SVG Version: 6.00 Build 0)  -->
<!DOCTYPE svg PUBLIC "-//W3C//DTD SVG 1.1//EN" "http://www.w3.org/Graphics/SVG/1.1/DTD/svg11.dtd">
<svg version="1.1" id="Layer_1" xmlns="http://www.w3.org/2000/svg" xmlns:xlink="http://www.w3.org/1999/xlink" x="0px" y="0px"
	 width="36px" height="37.689px" viewBox="0 0 36 37.689" enable-background="new 0 0 36 37.689" xml:space="preserve">
<g>
	
		<image overflow="visible" opacity="0.2" width="75" height="56" xlink:href="19B61731E9DD2290.png"  transform="matrix(0.48 0 0 0.48 0 0)">
	</image>
	<g>
		
			<linearGradient id="SVGID_1_" gradientUnits="userSpaceOnUse" x1="6" y1="-5593.3965" x2="29.843" y2="-5593.3965" gradientTransform="matrix(1 0 0 -1 0 -5580.0366)">
			<stop  offset="0" style="stop-color:#1C0300"/>
			<stop  offset="0.5991" style="stop-color:#2E3B43"/>
			<stop  offset="1" style="stop-color:#05576B"/>
		</linearGradient>
		<path fill="url(#SVGID_1_)" d="M6.524,11.894c0.711-1.355,1.499-3.001,2.249-3.611c1.476-1.202,4.677-1.985,6.262-2.197
			c1.72-0.231,5.184,0.021,6.888,0.549c1.282,0.397,3.854,1.542,5.01,2.746c0.797,0.831,2.563,2.669,2.863,4.394
			c0.185,1.067-0.206,3.487-0.537,4.394c-0.342,0.938-1.413,2.106-1.968,2.38c-0.719,0.355-2.251,0.114-2.952-0.366
			c-0.484-0.331-1.824-1.098-2.326-1.343c-2.24-1.092-4.119-1.331-6.978-1.221c-3.33,0.128-5.874,2.556-6.53,2.38
			c-0.595-0.159-1.808-1.184-2.147-2.197C5.951,16.59,5.755,13.36,6.524,11.894z"/>
	</g>
</g>
<g>
	
		<image overflow="visible" opacity="0.2" width="54" height="65" xlink:href="19B61731E9DD2291.png"  transform="matrix(0.48 0 0 0.48 4.0731 6.4894)">
	</image>
	<g>
		<linearGradient id="SVGID_2_" gradientUnits="userSpaceOnUse" x1="17.031" y1="31.5179" x2="17.031" y2="12.4894">
			<stop  offset="0" style="stop-color:#7FC1C9"/>
			<stop  offset="0.1107" style="stop-color:#94A299"/>
			<stop  offset="0.2644" style="stop-color:#A67A64"/>
			<stop  offset="0.3915" style="stop-color:#B05B43"/>
			<stop  offset="0.4854" style="stop-color:#B64233"/>
			<stop  offset="0.5358" style="stop-color:#B8362F"/>
		</linearGradient>
		<path fill="url(#SVGID_2_)" d="M23.868,15.185c-0.791-1.505-5.335-3.537-6.691-2.327c-0.825,0.736-0.887,0.485-1.958-0.033
			c-1.787-0.866-5.176,2.492-4.261,4.736c0.24,0.589-0.507,2.702-0.639,5.056c-0.153,2.736-1.255,8.902,2.853,8.902
			C22.062,31.518,24.607,16.591,23.868,15.185z"/>
	</g>
</g>
<g>
	
		<image overflow="visible" opacity="0.2" width="38" height="36" xlink:href="19B61731E9DD2297.png"  transform="matrix(0.48 0 0 0.48 2.036 0.2275)">
	</image>
	<g>
		<g>
			<path fill="#D0E5F7" d="M12.56,10.939c-1.255,0.84-4.784,0.731-4.509-1.31c0.201-1.495,3.555-3.742,5.014-3.358
				C15.058,6.794,13.815,10.099,12.56,10.939z"/>
		</g>
	</g>
</g>
<g>
	
		<image overflow="visible" opacity="0.2" width="41" height="36" xlink:href="19B61731E9DD2292.png"  transform="matrix(0.48 0 0 0.48 6.7575 -0.5928)">
	</image>
	<g>
		<g>
			<path fill="#D0E5F7" d="M16.89,10.468c-1.702,0.179-5.181-1.796-3.826-3.697c0.992-1.392,5.541-1.871,6.801-0.715
				C21.584,7.634,18.591,10.289,16.89,10.468z"/>
		</g>
	</g>
</g>
<g>
	
		<image overflow="visible" opacity="0.2" width="41" height="37" xlink:href="19B61731E9DD2293.png"  transform="matrix(0.48 0 0 0.48 13.2896 0.1982)">
	</image>
	<g>
		<g>
			<path fill="#D0E5F7" d="M22.06,11.395c-1.628-0.525-4.01-3.739-2.003-4.929c1.471-0.872,5.824,0.532,6.508,2.099
				C27.499,10.704,23.688,11.92,22.06,11.395z"/>
		</g>
	</g>
</g>
</svg>
