<?xml version="1.0" encoding="utf-8"?>
<!-- Generator: Adobe Illustrator 17.0.0, SVG Export Plug-In . SVG Version: 6.00 Build 0)  -->
<!DOCTYPE svg PUBLIC "-//W3C//DTD SVG 1.1//EN" "http://www.w3.org/Graphics/SVG/1.1/DTD/svg11.dtd">
<svg version="1.1" id="Layer_1" xmlns="http://www.w3.org/2000/svg" xmlns:xlink="http://www.w3.org/1999/xlink" x="0px" y="0px"
	 width="34.273px" height="16.311px" viewBox="0 0 34.273 16.311" enable-background="new 0 0 34.273 16.311" xml:space="preserve">
<path fill="#121212" d="M34.03,10.143c-0.509,1.524-2.796,3.107-3.875,3.725c-2.124,1.217-6.719,1.985-8.993,2.186
	c-2.467,0.218-7.431-0.077-9.869-0.636c-1.835-0.421-5.513-1.622-7.16-2.869c-1.136-0.86-3.654-2.763-4.07-4.535
	c-0.257-1.096,0.322-3.572,0.803-4.499c0.497-0.957,2.041-2.144,2.839-2.419c1.033-0.356,3.227-0.093,4.229,0.407
	c0.691,0.345,2.617,1.129,3.324,1.401c1.146,0.44,2.786,0.619,3.97,0.718c1.544,0.129,4.477,0.712,6.023,0.608
	c1.407-0.095,4.27-0.862,5.652-1.272c0.932-0.276,3.078-0.146,4.018,0.041c0.852,0.169,2.292,0.093,2.77,1.135
	C34.263,5.383,34.483,8.785,34.03,10.143z"/>
<g>
	<path fill="#D0E5F7" d="M10.778,6.41C9.297,5.96,7.094,3.089,8.892,1.982c1.317-0.811,5.276,0.393,5.919,1.799
		C15.688,5.702,12.259,6.86,10.778,6.41z"/>
</g>
<g>
	<path fill="#D0E5F7" d="M24.904,7.275c-1.75,0.116-5.235-2.045-3.773-3.939c1.071-1.387,5.75-1.696,6.994-0.462
		C29.825,4.559,26.654,7.159,24.904,7.275z"/>
</g>
<g>
	<path fill="#D0E5F7" d="M30.435,5.873c-1.361,0.277-4.327-1.047-3.381-2.689c0.693-1.203,4.332-1.944,5.44-1.108
		C34.007,3.217,31.796,5.596,30.435,5.873z"/>
</g>
<g>
	<path fill="#D0E5F7" d="M5.388,4.117c-1.3-0.395-3.235-2.915-1.656-3.887c1.156-0.712,4.632,0.345,5.196,1.58
		C9.698,3.496,6.688,4.513,5.388,4.117z"/>
</g>
<path fill="#C78593" d="M30.086,14.053c-2.124,1.217-6.719,1.985-8.993,2.186c-2.467,0.218-7.431-0.077-9.869-0.636
	c-1.835-0.421-6.348-1.737-7.16-2.869c-0.976-1.359,4.612-2.041,6.245-2.406c2.731-0.612,8.367-0.805,11.166-0.815
	C24.603,9.501,31.164,13.436,30.086,14.053z"/>
<g>
	<path fill="#D0E5F7" d="M17.3,8.199c-1.753,0.054-5.16-2.228-3.632-4.069c1.119-1.348,5.806-1.493,7.006-0.216
		C22.313,5.657,19.053,8.145,17.3,8.199z"/>
</g>
</svg>
