<?xml version="1.0" encoding="utf-8"?>
<!-- Generator: Adobe Illustrator 17.0.0, SVG Export Plug-In . SVG Version: 6.00 Build 0)  -->
<!DOCTYPE svg PUBLIC "-//W3C//DTD SVG 1.1//EN" "http://www.w3.org/Graphics/SVG/1.1/DTD/svg11.dtd">
<svg version="1.1" id="Layer_1" xmlns="http://www.w3.org/2000/svg" xmlns:xlink="http://www.w3.org/1999/xlink" x="0px" y="0px"
	 width="22.687px" height="8.14px" viewBox="0 0 22.687 8.14" enable-background="new 0 0 22.687 8.14" xml:space="preserve">
<linearGradient id="SVGID_1_" gradientUnits="userSpaceOnUse" x1="1.212498e-06" y1="3.6398" x2="22.6869" y2="3.6398">
	<stop  offset="0" style="stop-color:#1C0300"/>
	<stop  offset="0.5427" style="stop-color:#5B1A20"/>
	<stop  offset="1" style="stop-color:#952136"/>
</linearGradient>
<path fill="url(#SVGID_1_)" d="M1.723,4.941C3.8,6.966,7.715,7.135,9.138,7.238c1.544,0.111,4.654-0.01,6.183-0.266
	c1.151-0.192,3.46-0.745,4.497-1.328c0.716-0.402,3.542-2.994,2.721-4.34c-0.537-0.881-2.322-1.289-2.837-1.302
	c-3.838-0.097-4.856,1.788-10.564,1.659C6.149,1.594,5.189,0.86,3.276,0.512C2.55,0.38,0.353,0.181,0.05,1.435
	C-0.212,2.517,0.594,3.842,1.723,4.941z"/>
<linearGradient id="SVGID_2_" gradientUnits="userSpaceOnUse" x1="161.1856" y1="-177.0886" x2="170.4056" y2="-177.0886" gradientTransform="matrix(0.95 0.0503 -0.0656 0.9549 -157.512 166.3358)">
	<stop  offset="0" style="stop-color:#7FC1C9"/>
	<stop  offset="0.1376" style="stop-color:#77B3C6"/>
	<stop  offset="0.5398" style="stop-color:#6294C0"/>
	<stop  offset="0.8392" style="stop-color:#5681BD"/>
	<stop  offset="1" style="stop-color:#527BBD"/>
</linearGradient>
<path fill="url(#SVGID_2_)" d="M15.943,5.439c-0.455-1.03-3.374-2.544-4.328-1.785c-0.58,0.462-0.61,0.292-1.296-0.091
	C9.173,2.923,6.434,5.52,7.367,6.822C8.333,8.17,12.067,7.59,13.363,7.28C14.244,7.069,16.368,6.402,15.943,5.439z"/>
<g>
	<path fill="#D0E5F7" d="M14.86,5.005c0.71-0.261,2.608,0.29,2.38,1.311c-0.167,0.748-2.064,1.445-2.836,1.042
		C13.351,6.808,14.151,5.266,14.86,5.005z"/>
</g>
<g>
	<path fill="#D0E5F7" d="M12.172,5.425c0.891-0.104,2.719,0.937,2.013,1.963c-0.517,0.751-2.9,1.03-3.563,0.417
		C9.718,6.967,11.281,5.529,12.172,5.425z"/>
</g>
<g>
	<path fill="#D0E5F7" d="M9.35,5.223c1.005,0.23,2.414,1.888,1.128,2.598c-0.942,0.52-3.094,0-3.482-0.824
		C6.465,5.872,8.344,4.993,9.35,5.223z"/>
</g>
<g>
	<path fill="#D0E5F7" d="M17.47,4.821c0.544-0.228,2.042,0.134,1.898,0.939c-0.106,0.589-1.561,1.199-2.176,0.912
		C16.353,6.28,16.926,5.05,17.47,4.821z"/>
</g>
<g>
	<path fill="#D0E5F7" d="M6.494,5.235c0.681,0.175,1.652,1.37,0.793,1.858C6.658,7.451,4.836,6.982,4.564,6.392
		C4.193,5.586,5.813,5.059,6.494,5.235z"/>
</g>
</svg>
