<?xml version="1.0" encoding="utf-8"?>
<!-- Generator: Adobe Illustrator 17.0.0, SVG Export Plug-In . SVG Version: 6.00 Build 0)  -->
<!DOCTYPE svg PUBLIC "-//W3C//DTD SVG 1.1//EN" "http://www.w3.org/Graphics/SVG/1.1/DTD/svg11.dtd">
<svg version="1.1" id="Layer_1" xmlns="http://www.w3.org/2000/svg" xmlns:xlink="http://www.w3.org/1999/xlink" x="0px" y="0px"
	 width="48.48px" height="38.4px" viewBox="0 0 48.48 38.4" enable-background="new 0 0 48.48 38.4" xml:space="preserve">
<g>
	
		<image overflow="visible" opacity="0.4" width="101" height="80" xlink:href="856469E2A3F3B930.png"  transform="matrix(0.48 0 0 0.48 0 0)">
	</image>
	<g>
		
			<image overflow="visible" opacity="0.4" width="80" height="59" xlink:href="856469E2A3F3B931.png"  transform="matrix(0.48 0 0 0.48 5.275 5.52)">
		</image>
		<g>
			<path fill="#121212" d="M11.447,17.982c0.377-1.62,2.103-3.317,2.917-3.981c1.604-1.307,5.084-2.157,6.807-2.388
				c1.869-0.251,5.636,0.023,7.488,0.597c1.394,0.432,4.19,1.676,5.446,2.986c0.867,0.903,2.787,2.901,3.112,4.777
				c0.201,1.16-0.224,3.79-0.583,4.777c-0.372,1.019-1.535,2.289-2.139,2.587c-0.781,0.386-2.447,0.124-3.209-0.398
				c-0.526-0.36-1.991-1.177-2.528-1.46c-0.871-0.458-2.116-0.634-3.015-0.73c-1.172-0.125-3.399-0.72-4.571-0.597
				c-1.067,0.112-3.233,0.948-4.279,1.393c-0.705,0.3-2.106,1.385-2.82,1.194c-0.647-0.173-1.965-1.287-2.334-2.388
				C11.298,23.032,11.111,19.426,11.447,17.982z"/>
		</g>
	</g>
</g>
<g>
	
		<image overflow="visible" opacity="0.4" width="61" height="59" xlink:href="856469E2A3F3B937.png"  transform="matrix(0.48 0 0 0.48 16.0875 1.5606)">
	</image>
	<g>
		
			<image overflow="visible" opacity="0.4" width="39" height="37" xlink:href="856469E2A3F3B932.png"  transform="matrix(0.48 0 0 0.48 21.2187 6.6006)">
		</image>
		<g>
			<g>
				<path fill="#D0E5F7" d="M28.883,17.724c1.358,0.922,5.195,0.83,4.911-1.391c-0.208-1.627-3.837-4.093-5.426-3.687
					C26.198,13.2,27.525,16.801,28.883,17.724z"/>
			</g>
		</g>
	</g>
</g>
<g>
	
		<image overflow="visible" opacity="0.4" width="64" height="58" xlink:href="856469E2A3F3B933.png"  transform="matrix(0.48 0 0 0.48 9.2963 0.6352)">
	</image>
	<g>
		
			<image overflow="visible" opacity="0.4" width="43" height="37" xlink:href="856469E2A3F3B93E.png"  transform="matrix(0.48 0 0 0.48 14.4103 5.6752)">
		</image>
		<g>
			<g>
				<path fill="#D0E5F7" d="M24.18,17.18c1.848,0.207,5.645-1.914,4.186-3.991c-1.068-1.521-6.009-2.074-7.387-0.826
					C19.098,14.065,22.332,16.973,24.18,17.18z"/>
			</g>
		</g>
	</g>
</g>
<g>
	
		<image overflow="visible" opacity="0.4" width="64" height="59" xlink:href="856469E2A3F3B93F.png"  transform="matrix(0.48 0 0 0.48 2.4367 1.4662)">
	</image>
	<g>
		
			<image overflow="visible" opacity="0.4" width="42" height="38" xlink:href="856469E2A3F3B934.png"  transform="matrix(0.48 0 0 0.48 7.5138 6.5062)">
		</image>
		<g>
			<g>
				<path fill="#D0E5F7" d="M18.553,18.15c1.774-0.559,4.387-4.035,2.213-5.343c-1.592-0.958-6.334,0.536-7.09,2.234
					C12.646,17.359,16.779,18.709,18.553,18.15z"/>
			</g>
		</g>
	</g>
</g>
<g>
	
		<image overflow="visible" opacity="0.4" width="72" height="60" xlink:href="856469E2A3F3B935.png"  transform="matrix(0.48 0 0 0.48 6.8218 9.5662)">
	</image>
	<g>
		
			<image overflow="visible" opacity="0.4" width="51" height="39" xlink:href="47834DC1B239C44F.png"  transform="matrix(0.48 0 0 0.48 11.9564 14.6062)">
		</image>
		<g>
			<path fill="#9DC4CB" d="M30.014,23.425c-0.949-1.806-6.566-3.124-8.325-2.758c-1.783,0.371-4.777,3.56-3.367,5.278
				c1.46,1.779,6.592,0.979,8.348,0.46C27.865,26.053,30.692,24.715,30.014,23.425z"/>
		</g>
	</g>
</g>
</svg>
