<?xml version="1.0" encoding="utf-8"?>
<!-- Generator: Adobe Illustrator 17.0.0, SVG Export Plug-In . SVG Version: 6.00 Build 0)  -->
<!DOCTYPE svg PUBLIC "-//W3C//DTD SVG 1.1//EN" "http://www.w3.org/Graphics/SVG/1.1/DTD/svg11.dtd">
<svg version="1.1" id="Layer_1" xmlns="http://www.w3.org/2000/svg" xmlns:xlink="http://www.w3.org/1999/xlink" x="0px" y="0px"
	 width="23.843px" height="26.111px" viewBox="0 0 23.843 26.111" enable-background="new 0 0 23.843 26.111" xml:space="preserve">
<linearGradient id="SVGID_1_" gradientUnits="userSpaceOnUse" x1="-7.129565e-07" y1="-5631.6592" x2="23.843" y2="-5631.6592" gradientTransform="matrix(1 0 0 -1 0 -5623.7065)">
	<stop  offset="0" style="stop-color:#1C0300"/>
	<stop  offset="0.5991" style="stop-color:#2E3B43"/>
	<stop  offset="1" style="stop-color:#05576B"/>
</linearGradient>
<path fill="url(#SVGID_1_)" d="M0.524,6.487c0.711-1.355,1.499-3.001,2.249-3.611C4.248,1.673,7.45,0.891,9.035,0.679
	c1.72-0.231,5.184,0.021,6.888,0.549c1.282,0.397,3.854,1.542,5.01,2.746c0.797,0.831,2.563,2.669,2.863,4.394
	c0.185,1.067-0.206,3.487-0.537,4.394c-0.342,0.938-1.413,2.106-1.968,2.38c-0.719,0.355-2.251,0.114-2.952-0.366
	c-0.484-0.331-1.824-1.098-2.326-1.343c-2.24-1.092-4.119-1.331-6.978-1.221c-3.33,0.128-5.874,2.556-6.53,2.38
	c-0.595-0.159-1.808-1.184-2.147-2.197C-0.049,11.183-0.245,7.953,0.524,6.487z"/>
<linearGradient id="SVGID_2_" gradientUnits="userSpaceOnUse" x1="11.031" y1="26.1107" x2="11.031" y2="7.0823">
	<stop  offset="0" style="stop-color:#7FC1C9"/>
	<stop  offset="0.1107" style="stop-color:#94A299"/>
	<stop  offset="0.2644" style="stop-color:#A67A64"/>
	<stop  offset="0.3915" style="stop-color:#B05B43"/>
	<stop  offset="0.4854" style="stop-color:#B64233"/>
	<stop  offset="0.5358" style="stop-color:#B8362F"/>
</linearGradient>
<path fill="url(#SVGID_2_)" d="M17.868,9.778c-0.791-1.505-5.335-3.537-6.691-2.327c-0.825,0.736-0.887,0.485-1.958-0.033
	c-1.787-0.866-5.176,2.492-4.261,4.736c0.24,0.589-0.507,2.702-0.639,5.056c-0.153,2.736-1.255,8.902,2.853,8.902
	C16.062,26.111,18.607,11.184,17.868,9.778z"/>
<g>
	<path fill="#D0E5F7" d="M6.56,5.278c-1.255,0.84-4.784,0.731-4.509-1.31C2.252,2.473,5.606,0.226,7.066,0.61
		C9.058,1.133,7.815,4.438,6.56,5.278z"/>
</g>
<g>
	<path fill="#D0E5F7" d="M10.89,5.061C9.188,5.24,5.709,3.265,7.063,1.364c0.992-1.392,5.541-1.871,6.801-0.715
		C15.584,2.227,12.591,4.882,10.89,5.061z"/>
</g>
<g>
	<path fill="#D0E5F7" d="M16.06,5.683c-1.628-0.525-4.01-3.739-2.003-4.929c1.471-0.872,5.824,0.532,6.508,2.099
		C21.499,4.992,17.688,6.208,16.06,5.683z"/>
</g>
</svg>
