<?xml version="1.0" encoding="utf-8"?>
<!-- Generator: Adobe Illustrator 17.0.0, SVG Export Plug-In . SVG Version: 6.00 Build 0)  -->
<!DOCTYPE svg PUBLIC "-//W3C//DTD SVG 1.1//EN" "http://www.w3.org/Graphics/SVG/1.1/DTD/svg11.dtd">
<svg version="1.1" id="Layer_1" xmlns="http://www.w3.org/2000/svg" xmlns:xlink="http://www.w3.org/1999/xlink" x="0px" y="0px"
	 width="33.92px" height="16.471px" viewBox="0 0 33.92 16.471" enable-background="new 0 0 33.92 16.471" xml:space="preserve">
<path fill="#121212" d="M33.679,10.366c-0.503,1.508-2.767,3.075-3.835,3.687c-2.103,1.204-6.65,1.964-8.9,2.163
	c-2.441,0.216-7.354-0.076-9.768-0.63c-1.816-0.417-5.456-1.605-7.086-2.839c-1.125-0.851-3.616-2.735-4.028-4.488
	c-0.255-1.085,0.318-3.535,0.794-4.453c0.492-0.948,2.02-2.122,2.81-2.394C4.689,1.06,6.861,1.321,7.852,1.815
	c0.684,0.341,2.59,1.118,3.29,1.387c1.134,0.436,2.757,0.612,3.929,0.71c1.528,0.128,4.431,0.705,5.961,0.601
	c1.393-0.094,4.226-0.853,5.594-1.259c0.922-0.273,3.046-0.144,3.976,0.041c0.843,0.168,2.268,0.092,2.741,1.123
	C33.91,5.655,34.128,9.022,33.679,10.366z"/>
<g>
	<path fill="#D0E5F7" d="M10.673,6.563C9.208,6.117,7.026,3.276,8.806,2.18c1.303-0.803,5.222,0.389,5.858,1.781
		C15.533,5.862,12.139,7.008,10.673,6.563z"/>
</g>
<g>
	<path fill="#D0E5F7" d="M17.122,8.442c-1.735,0.054-5.107-2.205-3.595-4.027c1.108-1.334,5.746-1.478,6.934-0.214
		C22.083,5.926,18.857,8.388,17.122,8.442z"/>
</g>
<g>
	<path fill="#D0E5F7" d="M24.647,7.527c-1.732,0.114-5.181-2.024-3.734-3.898c1.06-1.373,5.691-1.678,6.922-0.457
		C29.517,4.839,26.379,7.413,24.647,7.527z"/>
</g>
<g>
	<path fill="#D0E5F7" d="M30.122,6.14c-1.347,0.274-4.282-1.036-3.346-2.661c0.686-1.19,4.287-1.924,5.384-1.097
		C33.657,3.511,31.469,5.866,30.122,6.14z"/>
</g>
<g>
	<path fill="#D0E5F7" d="M5.339,4.075C4.052,3.684,2.137,1.19,3.699,0.228c1.144-0.705,4.584,0.341,5.142,1.563
		C9.604,3.46,6.625,4.466,5.339,4.075z"/>
</g>
<path fill="#C78593" d="M29.776,14.236c-2.103,1.204-6.65,1.964-8.9,2.163c-2.441,0.216-7.354-0.076-9.768-0.63
	c-1.816-0.417-6.282-1.72-7.086-2.839c-0.966-1.345,4.565-2.02,6.181-2.381c2.703-0.605,8.281-0.796,11.051-0.807
	C24.349,9.73,30.843,13.625,29.776,14.236z"/>
</svg>
