<?xml version="1.0" encoding="utf-8"?>
<!-- Generator: Adobe Illustrator 17.0.0, SVG Export Plug-In . SVG Version: 6.00 Build 0)  -->
<!DOCTYPE svg PUBLIC "-//W3C//DTD SVG 1.1//EN" "http://www.w3.org/Graphics/SVG/1.1/DTD/svg11.dtd">
<svg version="1.1" id="Layer_1" xmlns="http://www.w3.org/2000/svg" xmlns:xlink="http://www.w3.org/1999/xlink" x="0px" y="0px"
	 width="42.245px" height="4.779px" viewBox="0 0 42.245 4.779" enable-background="new 0 0 42.245 4.779" xml:space="preserve">
<linearGradient id="SVGID_1_" gradientUnits="userSpaceOnUse" x1="-347.0307" y1="-186.8466" x2="-309.208" y2="-186.8466" gradientTransform="matrix(0.8987 -0.4386 0.4386 0.8987 398.2809 25.0783)">
	<stop  offset="0" style="stop-color:#4688BD"/>
	<stop  offset="0.0134" style="stop-color:#587C9E"/>
	<stop  offset="0.0343" style="stop-color:#646B7B"/>
	<stop  offset="0.0571" style="stop-color:#695C5E"/>
	<stop  offset="0.0813" style="stop-color:#6B4F48"/>
	<stop  offset="0.1074" style="stop-color:#6B4537"/>
	<stop  offset="0.136" style="stop-color:#6A3C28"/>
	<stop  offset="0.1679" style="stop-color:#6A351E"/>
	<stop  offset="0.2052" style="stop-color:#693116"/>
	<stop  offset="0.2527" style="stop-color:#682E13"/>
	<stop  offset="0.3454" style="stop-color:#682D11"/>
	<stop  offset="0.808" style="stop-color:#A9ABD5"/>
	<stop  offset="0.9853" style="stop-color:#A94024"/>
</linearGradient>
<path fill="url(#SVGID_1_)" d="M0.032,0.081c0.402-0.385,1.53,0.705,1.958,1.061c0.498,0.414,1.034,1.76,1.63,2.013
	c3.126,1.324,10.135-1.038,13.526-1.201c1.684-0.081,5.06-0.139,6.743-0.051c2.832,0.148,8.443,1.089,11.274,1.266
	c0.723,0.045,2.222,0.297,2.898,0.038c0.851-0.326,1.859-2.08,2.681-2.473c0.337-0.161,1.19-0.455,1.478-0.217
	c0.125,0.103-0.278,0.291-0.47,0.364c-0.281,0.108-0.558,0.243-0.828,0.391C40.129,1.706,39.5,3.65,38.714,4.1
	c-0.821,0.47-2.789,0.57-3.734,0.61c-2.718,0.116-8.13-0.753-10.849-0.838c-1.787-0.056-5.362,0.075-7.149,0.105
	C13.646,4.033,6.688,5.579,3.638,4.225C2.898,3.897,2.081,2.356,1.51,1.782C1.242,1.513,0.602,1.081,0.372,0.779
	C0.255,0.625-0.108,0.216,0.032,0.081z"/>
</svg>
