<?xml version="1.0" encoding="utf-8"?>
<!-- Generator: Adobe Illustrator 17.0.0, SVG Export Plug-In . SVG Version: 6.00 Build 0)  -->
<!DOCTYPE svg PUBLIC "-//W3C//DTD SVG 1.1//EN" "http://www.w3.org/Graphics/SVG/1.1/DTD/svg11.dtd">
<svg version="1.1" id="Layer_1" xmlns="http://www.w3.org/2000/svg" xmlns:xlink="http://www.w3.org/1999/xlink" x="0px" y="0px"
	 width="52.867px" height="10.849px" viewBox="0 0 52.867 10.849" enable-background="new 0 0 52.867 10.849" xml:space="preserve">
<path fill="#E64B5F" d="M52.202,5.156c-0.762,0.899-8.059,4.658-9.693,5.017c-3.219,0.706-6.214,0.542-9.667,0.646
	c-3.746,0.112-11.29-0.096-14.998-0.444c-2.79-0.262-5.997-0.871-8.507-1.62C7.605,8.237,5.931,7.466,3.466,6.184
	C2.789,5.833-0.526,2.497,0.072,1.816c0.882-1.006,2.987,0.829,5.43,1.44c4.728,1.182,15.917,2.173,17.716,2.24
	c2.347,0.087,7.358,0.709,9.707,0.709c13.644,0,18.679-4.112,19.413-3.492C53.217,3.456,52.882,4.355,52.202,5.156z"/>
<g>
	<path fill="#D0E5F7" d="M49.256,5.877c-1.332,0.271-4.235-1.025-3.309-2.632c0.678-1.177,4.24-1.903,5.324-1.085
		C52.753,3.277,50.589,5.605,49.256,5.877z"/>
</g>
<g>
	<path fill="#D0E5F7" d="M3.79,4.03C2.517,3.643,0.624,1.176,2.169,0.225C3.3-0.472,6.702,0.563,7.254,1.771
		C8.008,3.421,5.062,4.417,3.79,4.03z"/>
</g>
<g>
	<path fill="#D0E5F7" d="M7.85,6.875C6.4,6.434,4.243,3.625,6.003,2.541c1.289-0.794,5.164,0.384,5.793,1.761
		C12.655,6.182,9.299,7.316,7.85,6.875z"/>
</g>
<g>
	<path fill="#D0E5F7" d="M42.456,8.443c-1.713,0.113-5.124-2.002-3.692-3.855c1.049-1.357,5.628-1.66,6.846-0.452
		C47.272,5.784,44.168,8.329,42.456,8.443z"/>
</g>
<g>
	<path fill="#D0E5F7" d="M37.221,8.693c-1.332,0.271-4.235-1.025-3.309-2.632c0.678-1.177,4.24-1.903,5.324-1.085
		C40.717,6.093,38.553,8.421,37.221,8.693z"/>
</g>
<g>
	<path fill="#D0E5F7" d="M12.707,7.322c-1.272-0.387-3.166-2.853-1.621-3.805c1.131-0.697,4.533,0.337,5.085,1.546
		C16.925,6.714,13.979,7.709,12.707,7.322z"/>
</g>
<g>
	<path fill="#D0E5F7" d="M17.982,8.161c-1.449-0.441-3.607-3.25-1.847-4.334c1.289-0.794,5.164,0.384,5.793,1.761
		C22.788,7.468,19.432,8.602,17.982,8.161z"/>
</g>
<g>
	<path fill="#D0E5F7" d="M31.807,10.064c-1.713,0.113-5.124-2.002-3.692-3.855c1.049-1.357,5.628-1.66,6.846-0.452
		C36.623,7.406,33.52,9.951,31.807,10.064z"/>
</g>
<g>
	<path fill="#D0E5F7" d="M25.247,9.498c-1.716,0.053-5.051-2.18-3.555-3.982c1.096-1.32,5.682-1.461,6.857-0.212
		C30.154,7.01,26.963,9.445,25.247,9.498z"/>
</g>
</svg>
