<?xml version="1.0" encoding="utf-8"?>
<!-- Generator: Adobe Illustrator 17.0.0, SVG Export Plug-In . SVG Version: 6.00 Build 0)  -->
<!DOCTYPE svg PUBLIC "-//W3C//DTD SVG 1.1//EN" "http://www.w3.org/Graphics/SVG/1.1/DTD/svg11.dtd">
<svg version="1.1" id="Layer_1" xmlns="http://www.w3.org/2000/svg" xmlns:xlink="http://www.w3.org/1999/xlink" x="0px" y="0px"
	 width="35.04px" height="19.769px" viewBox="0 0 35.04 19.769" enable-background="new 0 0 35.04 19.769" xml:space="preserve">
<g>
	
		<image overflow="visible" opacity="0.2" width="73" height="41" xlink:href="6337FAFB200F9DF5.png"  transform="matrix(0.48 0 0 0.48 0 0)">
	</image>
	<g>
		<linearGradient id="SVGID_1_" gradientUnits="userSpaceOnUse" x1="6" y1="9.6398" x2="28.6869" y2="9.6398">
			<stop  offset="0" style="stop-color:#1C0300"/>
			<stop  offset="0.5427" style="stop-color:#5B1A20"/>
			<stop  offset="1" style="stop-color:#952136"/>
		</linearGradient>
		<path fill="url(#SVGID_1_)" d="M7.723,10.941c2.078,2.025,5.992,2.194,7.415,2.297c1.544,0.111,4.654-0.01,6.183-0.266
			c1.151-0.192,3.46-0.745,4.497-1.328c0.716-0.402,3.542-2.994,2.721-4.34c-0.537-0.881-2.322-1.289-2.837-1.302
			c-3.838-0.097-4.856,1.788-10.564,1.659c-2.989-0.068-3.948-0.803-5.862-1.151C8.55,6.38,6.353,6.181,6.05,7.435
			C5.788,8.517,6.594,9.842,7.723,10.941z"/>
	</g>
</g>
<g>
	
		<image overflow="visible" opacity="0.2" width="44" height="34" xlink:href="6337FAFB200F9DF7.png"  transform="matrix(0.48 0 0 0.48 7.1762 3.4487)">
	</image>
	<g>
		
			<linearGradient id="SVGID_2_" gradientUnits="userSpaceOnUse" x1="163.9434" y1="-169.4583" x2="173.1634" y2="-169.4583" gradientTransform="matrix(0.95 0.0503 -0.0656 0.9549 -153.6317 164.9111)">
			<stop  offset="0" style="stop-color:#7FC1C9"/>
			<stop  offset="0.1376" style="stop-color:#77B3C6"/>
			<stop  offset="0.5398" style="stop-color:#6294C0"/>
			<stop  offset="0.8392" style="stop-color:#5681BD"/>
			<stop  offset="1" style="stop-color:#527BBD"/>
		</linearGradient>
		<path fill="url(#SVGID_2_)" d="M21.943,11.439c-0.455-1.03-3.374-2.544-4.328-1.785c-0.58,0.462-0.61,0.292-1.296-0.091
			c-1.145-0.64-3.885,1.957-2.952,3.259c0.966,1.348,4.701,0.767,5.996,0.457C20.244,13.069,22.368,12.402,21.943,11.439z"/>
	</g>
</g>
<g>
	
		<image overflow="visible" opacity="0.2" width="33" height="31" xlink:href="6337FAFB200F9DF2.png"  transform="matrix(0.48 0 0 0.48 13.8958 4.9412)">
	</image>
	<g>
		<g>
			<path fill="#D0E5F7" d="M20.86,11.005c0.71-0.261,2.608,0.29,2.38,1.311c-0.167,0.748-2.064,1.445-2.836,1.042
				C19.351,12.808,20.151,11.266,20.86,11.005z"/>
		</g>
	</g>
</g>
<g>
	
		<image overflow="visible" opacity="0.2" width="34" height="31" xlink:href="6337FAFB200F9DF3.png"  transform="matrix(0.48 0 0 0.48 10.3501 5.4173)">
	</image>
	<g>
		<g>
			<path fill="#D0E5F7" d="M18.172,11.425c0.891-0.104,2.719,0.937,2.013,1.963c-0.517,0.751-2.9,1.03-3.563,0.417
				C15.718,12.967,17.281,11.529,18.172,11.425z"/>
		</g>
	</g>
</g>
<g>
	
		<image overflow="visible" opacity="0.2" width="34" height="31" xlink:href="6337FAFB200F9DFD.png"  transform="matrix(0.48 0 0 0.48 6.9025 5.1866)">
	</image>
	<g>
		<g>
			<path fill="#D0E5F7" d="M15.35,11.223c1.005,0.23,2.414,1.888,1.128,2.598c-0.942,0.52-3.094,0-3.482-0.824
				C12.465,11.872,14.344,10.993,15.35,11.223z"/>
		</g>
	</g>
</g>
<g>
	
		<image overflow="visible" opacity="0.2" width="31" height="30" xlink:href="6337FAFB200F9DFF.png"  transform="matrix(0.48 0 0 0.48 16.7675 4.7542)">
	</image>
	<g>
		<g>
			<path fill="#D0E5F7" d="M23.47,10.821c0.544-0.228,2.042,0.134,1.898,0.939c-0.106,0.589-1.561,1.199-2.176,0.912
				C22.353,12.28,22.926,11.05,23.47,10.821z"/>
		</g>
	</g>
</g>
<g>
	
		<image overflow="visible" opacity="0.2" width="32" height="30" xlink:href="6337FAFB200F9DF0.png"  transform="matrix(0.48 0 0 0.48 4.5097 5.201)">
	</image>
	<g>
		<g>
			<path fill="#D0E5F7" d="M12.494,11.235c0.681,0.175,1.652,1.37,0.793,1.858c-0.629,0.358-2.451-0.111-2.723-0.701
				C10.193,11.586,11.813,11.059,12.494,11.235z"/>
		</g>
	</g>
</g>
</svg>
