<?xml version="1.0" encoding="utf-8"?>
<!-- Generator: Adobe Illustrator 17.0.0, SVG Export Plug-In . SVG Version: 6.00 Build 0)  -->
<!DOCTYPE svg PUBLIC "-//W3C//DTD SVG 1.1//EN" "http://www.w3.org/Graphics/SVG/1.1/DTD/svg11.dtd">
<svg version="1.1" id="Layer_1" xmlns="http://www.w3.org/2000/svg" xmlns:xlink="http://www.w3.org/1999/xlink" x="0px" y="0px"
	 width="6.096px" height="7.041px" viewBox="0 0 6.096 7.041" enable-background="new 0 0 6.096 7.041" xml:space="preserve">
<linearGradient id="SVGID_1_" gradientUnits="userSpaceOnUse" x1="-1.704286e-06" y1="3.3841" x2="6.0964" y2="3.3841">
	<stop  offset="0" style="stop-color:#1C0300"/>
	<stop  offset="0.527" style="stop-color:#581826"/>
	<stop  offset="1" style="stop-color:#921D42"/>
</linearGradient>
<path fill="url(#SVGID_1_)" d="M0.003,4.201C-0.033,3.057,0.249,1.366,1.7,0.308c0.578-0.421,1.986-0.401,2.568,0
	c1.482,1.021,1.82,2.478,1.828,3.584c0.005,0.733-0.718,2.07-1.175,2.41c-0.848,0.631-2.976,0.614-3.83,0
	c-0.102-0.074-0.22-0.201-0.34-0.361C0.392,5.461,0.018,4.689,0.003,4.201z"/>
<path fill="#E392B3" d="M1.927,2.755c0.747-0.199,1.774,0.15,2.205,0.652c0.34,0.395,1.101,1.783,0.924,2.457
	C4.547,7.794,0.58,7.21,0.275,5.132C0.141,4.217,1.407,2.893,1.927,2.755z"/>
</svg>
