<?xml version="1.0" encoding="utf-8"?>
<!-- Generator: Adobe Illustrator 17.0.0, SVG Export Plug-In . SVG Version: 6.00 Build 0)  -->
<!DOCTYPE svg PUBLIC "-//W3C//DTD SVG 1.1//EN" "http://www.w3.org/Graphics/SVG/1.1/DTD/svg11.dtd">
<svg version="1.1" id="Layer_1" xmlns="http://www.w3.org/2000/svg" xmlns:xlink="http://www.w3.org/1999/xlink" x="0px" y="0px"
	 width="53.204px" height="10.918px" viewBox="0 0 53.204 10.918" enable-background="new 0 0 53.204 10.918" xml:space="preserve">
<path fill="#E64B5F" d="M52.535,5.189c-0.767,0.904-8.11,4.688-9.755,5.049c-3.24,0.71-6.254,0.546-9.728,0.65
	c-3.77,0.113-11.362-0.097-15.094-0.447c-2.808-0.264-6.035-0.876-8.562-1.631c-1.743-0.52-3.427-1.296-5.909-2.586
	C2.807,5.87-0.529,2.513,0.072,1.827C0.96,0.814,3.078,2.662,5.537,3.277c4.759,1.19,16.019,2.187,17.829,2.254
	c2.362,0.087,7.405,0.713,9.768,0.713c13.731,0,18.799-4.139,19.537-3.514C53.556,3.478,53.219,4.383,52.535,5.189z"/>
<g>
	<path fill="#D0E5F7" d="M18.097,8.213c-1.459-0.443-3.63-3.271-1.858-4.362c1.297-0.799,5.197,0.387,5.83,1.772
		C22.933,7.515,19.556,8.656,18.097,8.213z"/>
</g>
<g>
	<path fill="#D0E5F7" d="M25.408,9.558c-1.727,0.053-5.083-2.194-3.578-4.007c1.103-1.328,5.719-1.471,6.901-0.213
		C30.346,7.055,27.135,9.505,25.408,9.558z"/>
</g>
<g>
	<path fill="#D0E5F7" d="M32.01,10.128c-1.724,0.114-5.157-2.014-3.716-3.879c1.055-1.366,5.664-1.67,6.889-0.455
		C36.857,7.453,33.734,10.015,32.01,10.128z"/>
</g>
<g>
	<path fill="#D0E5F7" d="M37.458,8.748c-1.341,0.273-4.262-1.031-3.33-2.648c0.683-1.185,4.267-1.915,5.358-1.092
		C40.977,6.132,38.799,8.475,37.458,8.748z"/>
</g>
<g>
	<path fill="#D0E5F7" d="M12.788,7.369c-1.28-0.389-3.186-2.871-1.631-3.829c1.139-0.701,4.562,0.34,5.118,1.556
		C17.033,6.757,14.068,7.758,12.788,7.369z"/>
</g>
<g>
	<path fill="#D0E5F7" d="M7.9,6.919C6.441,6.476,4.27,3.648,6.041,2.557c1.297-0.799,5.197,0.387,5.83,1.772
		C12.736,6.221,9.359,7.362,7.9,6.919z"/>
</g>
<g>
	<path fill="#D0E5F7" d="M42.726,8.496C41.003,8.61,37.57,6.482,39.01,4.617c1.055-1.366,5.664-1.67,6.889-0.455
		C47.573,5.821,44.45,8.382,42.726,8.496z"/>
</g>
<g>
	<path fill="#D0E5F7" d="M49.571,5.914c-1.341,0.273-4.262-1.031-3.33-2.648c0.683-1.185,4.267-1.915,5.358-1.092
		C53.089,3.298,50.911,5.641,49.571,5.914z"/>
</g>
<g>
	<path fill="#D0E5F7" d="M3.814,4.055c-1.28-0.389-3.186-2.871-1.631-3.829C3.321-0.475,6.744,0.566,7.3,1.782
		C8.059,3.443,5.094,4.445,3.814,4.055z"/>
</g>
</svg>
