<?xml version="1.0" encoding="utf-8"?>
<!-- Generator: Adobe Illustrator 17.0.0, SVG Export Plug-In . SVG Version: 6.00 Build 0)  -->
<!DOCTYPE svg PUBLIC "-//W3C//DTD SVG 1.1//EN" "http://www.w3.org/Graphics/SVG/1.1/DTD/svg11.dtd">
<svg version="1.1" id="Layer_1" xmlns="http://www.w3.org/2000/svg" xmlns:xlink="http://www.w3.org/1999/xlink" x="0px" y="0px"
	 width="49.92px" height="22.56px" viewBox="0 0 49.92 22.56" enable-background="new 0 0 49.92 22.56" xml:space="preserve">
<g>
	
		<image overflow="visible" opacity="0.1" width="104" height="47" xlink:href="81D8CD30A2286447.png"  transform="matrix(0.48 0 0 0.48 0 0)">
	</image>
	<g>
		<g>
			<g>
				<g>
					<g>
						<path fill="#FAA21B" d="M42.02,6.66c-0.049-0.045-0.281-0.258-0.335-0.307C41.76,6.4,42.097,6.738,42.02,6.66z"/>
						<path fill="#FAA21B" d="M42.184,7.729l-0.089-0.148c0,0,0.039,0.103,0.077,0.206c0.033,0.102,0.066,0.205,0.066,0.205
							L42.184,7.729z"/>
						<path fill="#FAA21B" d="M41.519,8.13c0.433,0.572,0.184-0.248,0.436-0.104l0.109,0.124l-0.263-0.512
							C41.714,7.797,41.725,8.237,41.519,8.13z"/>
						<path fill="#FAA21B" d="M40.429,6.991c0.15,0.232,0.048,0.251,0.112,0.032c-0.021-0.024-0.032-0.036-0.047-0.054
							C40.484,6.981,40.467,6.991,40.429,6.991z"/>
						<path fill="#FAA21B" d="M40.494,6.969C40.543,6.915,40.342,6.789,40.494,6.969L40.494,6.969z"/>
						<path fill="#FAA21B" d="M40.252,7.265l-0.021-0.263c-0.096-0.136-0.194-0.132-0.218-0.252
							C39.982,6.914,40.074,7.051,40.252,7.265z"/>
						<path fill="#FAA21B" d="M40.399,7.771l0.002-0.117C40.361,7.597,40.338,7.581,40.399,7.771z"/>
						<path fill="#FAA21B" d="M40.405,7.409l-0.003,0.245c0.066,0.096,0.174,0.301,0.012-0.094
							C40.502,7.752,40.43,7.562,40.405,7.409z"/>
						<path fill="#FAA21B" d="M40.515,7.478c0.126,0.113,0.244,0.166,0.261,0.429C40.919,7.732,40.649,7.305,40.515,7.478z"/>
						<path fill="#FAA21B" d="M41.86,8.786l0.182,0.134l-0.059-0.244C42.012,8.797,41.741,8.597,41.86,8.786z"/>
						<path fill="#FAA21B" d="M39.514,7.201c0.058,0.141,0.2,0.353,0.29,0.526L39.8,7.536C39.72,7.459,39.613,7.404,39.514,7.201z"
							/>
						<path fill="#FAA21B" d="M39.804,7.727l0.003,0.287C39.915,7.997,39.88,7.876,39.804,7.727z"/>
						<polygon fill="#FAA21B" points="40.74,8.486 40.672,7.914 40.707,8.509 						"/>
						<polygon fill="#FAA21B" points="39.123,7.366 39.041,7.016 39.148,7.553 						"/>
						<path fill="#FAA21B" d="M38.882,7.537c-0.062-0.286-0.247-0.436-0.265-0.619c-0.055,0.073-0.027,0.328-0.005,0.557
							C38.629,7.337,38.706,7.345,38.882,7.537z"/>
						<path fill="#FAA21B" d="M38.63,7.815c0.007-0.076-0.005-0.204-0.018-0.339C38.603,7.549,38.605,7.651,38.63,7.815z"/>
						<path fill="#FAA21B" d="M39.595,8.031c-0.045-0.08-0.157-0.293-0.255-0.359l0.211,0.373L39.595,8.031z"/>
						<path fill="#FAA21B" d="M39.557,8.057L39.55,8.045c-0.05,0.01-0.084,0.018-0.1,0.021C39.464,8.065,39.496,8.062,39.557,8.057z
							"/>
						<path fill="#FAA21B" d="M39.606,8.028l-0.011,0.003C39.616,8.068,39.624,8.079,39.606,8.028z"/>
						<path fill="#FAA21B" d="M40.276,8.276c0.04,0.245,0.007,0.544,0.299,0.809C40.498,8.798,40.333,8.646,40.276,8.276z"/>
						<path fill="#FAA21B" d="M39.874,8.492l0.157,0.034c-0.049-0.102-0.138-0.242-0.155-0.365L39.874,8.492z"/>
						<polygon fill="#FAA21B" points="39.872,8.643 39.874,8.492 39.817,8.479 						"/>
						<path fill="#FAA21B" d="M38.983,8.117c0.015,0.191-0.038,0.226-0.093,0.276c0.101,0.054,0.192,0.071,0.261,0.047
							C39.112,8.311,39.053,8.077,38.983,8.117z"/>
						<path fill="#FAA21B" d="M39.285,8.133l-0.001,0.028C39.304,8.191,39.314,8.2,39.285,8.133z"/>
						<path fill="#FAA21B" d="M38.238,8.613c0.011,0.021,0.024,0.047,0.036,0.07l-0.022-0.071L38.238,8.613z"/>
						<path fill="#FAA21B" d="M39.193,8.509c0.084,0.058,0.078-0.05,0.059-0.182c-0.024,0.053-0.056,0.094-0.1,0.112
							C39.17,8.497,39.184,8.534,39.193,8.509z"/>
						<path fill="#FAA21B" d="M38.524,8.062c0.058,0.074,0.116,0.135,0.174,0.189C38.622,8.133,38.494,7.954,38.524,8.062z"/>
						<path fill="#FAA21B" d="M39.223,8.06l0-0.021C39.172,7.961,39.191,8.002,39.223,8.06z"/>
						<path fill="#FAA21B" d="M39.223,8.06c-0.001,0.069,0.015,0.172,0.029,0.267c0.02-0.042,0.033-0.095,0.032-0.165
							C39.268,8.135,39.244,8.095,39.223,8.06z"/>
						<path fill="#FAA21B" d="M38.919,11.28c-0.114-0.379-0.082-0.778,0.193-0.424c0.034-0.326-0.495-1.521-0.838-2.174
							c0.053,0.165,0.107,0.315,0.057,0.58c0.113,0.19,0.45,0.38,0.46,0.755c-0.107,0.253-0.189-0.083-0.339-0.253
							c0.232,0.442,0.009,0.757,0.273,1.433l0.078-0.297C38.842,11.007,38.842,11.198,38.919,11.28z"/>
						<path fill="#FAA21B" d="M38.522,8.64l0.034-0.063c-0.081-0.045-0.177-0.18-0.355-0.446c-0.017,0.21,0.013,0.355,0.051,0.482
							l0.267-0.034L38.522,8.64z"/>
						<path fill="#FAA21B" d="M38.782,8.497c0.114,0.416,0.051,0.632,0.291,1.042c0.145-0.082-0.018-0.374,0.006-0.58
							c-0.207,0.184-0.016-0.248-0.278-0.416c0.021-0.085,0.055-0.12,0.089-0.151c-0.062-0.034-0.126-0.081-0.193-0.142l0.015,0.023
							l0.001-0.002l0.002,0.006c0.029,0.047,0.044,0.076,0.022,0.051c0.001,0.005-0.002,0.01-0.002,0.01
							c0.017,0.057,0.032,0.107,0.047,0.156c-0.101-0.059-0.05-0.101-0.047-0.156l-0.02-0.061l-0.003-0.005l-0.156,0.303
							C38.627,8.616,38.687,8.582,38.782,8.497z"/>
						<path fill="#FAA21B" d="M40.837,9.985c-0.024-0.031-0.036-0.059-0.05-0.087C40.793,9.954,40.802,9.989,40.837,9.985z"/>
						<path fill="#FAA21B" d="M40.626,9.797c-0.007-0.063-0.064-0.227,0.013-0.214c0.105,0.094,0.087,0.187,0.149,0.315
							c-0.012-0.121-0.008-0.338-0.205-0.477l0.007,0.061c-0.162-0.088-0.503-0.521-0.51-0.583
							C40.265,9.241,40.402,9.482,40.626,9.797z"/>
						<path fill="#FAA21B" d="M39.729,9.291l-0.13,0.27l0.247,0.309l-0.089-0.206C39.911,9.705,39.78,9.457,39.729,9.291z"/>
						<polygon fill="#FAA21B" points="38.145,8.419 38.021,7.98 38.119,8.626 						"/>
						<polygon fill="#FAA21B" points="37.907,8.559 37.791,8.18 37.799,8.43 						"/>
						<path fill="#FAA21B" d="M21.56,14.988l-0.08,0.11C21.516,15.065,21.541,15.028,21.56,14.988z"/>
						<path fill="#FAA21B" d="M22.078,15.032l0.025-0.194C22.073,14.944,22.058,15.023,22.078,15.032z"/>
						<path fill="#FAA21B" d="M31.148,9.978c-0.133-0.354-0.292-0.91-0.236-0.468l0.072,0.427
							C31.041,9.85,31.096,9.891,31.148,9.978z"/>
						<path fill="#FAA21B" d="M26.311,12.855c0.01,0.042,0.021,0.088,0.031,0.133c0.022-0.148,0.042-0.285,0.062-0.413
							C26.374,12.662,26.343,12.756,26.311,12.855z"/>
						<path fill="#FAA21B" d="M26.262,14.648l-0.139-0.284C26.154,14.463,26.199,14.557,26.262,14.648z"/>
						<path fill="#FAA21B" d="M18.659,15.11l-0.145,0.427C18.648,15.551,18.619,15.323,18.659,15.11z"/>
						<path fill="#FAA21B" d="M35.199,9.447c-0.114-0.147-0.19-0.202-0.248-0.21C35.095,9.459,35.251,9.806,35.199,9.447z"/>
						<path fill="#FAA21B" d="M22.09,10.402c-0.046,0.077-0.069,0.165-0.075,0.261C22.062,10.591,22.092,10.509,22.09,10.402z"/>
						<path fill="#FAA21B" d="M34.729,9.292c0.025,0.037,0.039,0.058,0.061,0.09c0.042-0.085,0.087-0.156,0.161-0.145
							C34.844,9.072,34.744,8.979,34.729,9.292z"/>
						<path fill="#FAA21B" d="M8.554,12.069c0.001-0.021-0.004-0.033-0.002-0.057C8.527,12.065,8.535,12.072,8.554,12.069z"/>
						<path fill="#FAA21B" d="M7.982,6.884c0.035-0.01,0.07,0.01,0.105,0.024C8.087,6.873,8.059,6.86,7.982,6.884z"/>
						<path fill="#FAA21B" d="M36.808,8.709C36.857,8.669,36.804,8.661,36.808,8.709L36.808,8.709z"/>
						<path fill="#FAA21B" d="M37.567,10.292c0.001,0.05,0.008,0.112,0.035,0.208C37.577,10.399,37.567,10.333,37.567,10.292z"/>
						<path fill="#FAA21B" d="M34.635,12.068l-0.006-0.001C34.664,12.148,34.658,12.132,34.635,12.068z"/>
						<path fill="#FAA21B" d="M36.948,8.879c-0.036-0.046-0.073-0.083-0.109-0.107C36.86,8.802,36.894,8.837,36.948,8.879z"/>
						<path fill="#FAA21B" d="M36.88,8.685c0.026,0.012,0.044,0.02,0.062,0.029C36.929,8.642,36.911,8.6,36.88,8.685z"/>
						<path fill="#FAA21B" d="M36.734,8.751c0.031-0.014,0.067-0.002,0.105,0.022c-0.019-0.026-0.031-0.048-0.031-0.063
							C36.793,8.72,36.771,8.734,36.734,8.751z"/>
						<path fill="#FAA21B" d="M14.224,12.747c-0.001-0.014-0.002-0.024-0.004-0.043C14.111,12.865,14.147,12.843,14.224,12.747z"/>
						<path fill="#FAA21B" d="M29.888,14.587c0.001-0.005,0.004-0.016,0.006-0.021l-0.011-0.015L29.888,14.587z"/>
						<path fill="#FAA21B" d="M29.671,14.922c0.064-0.544,0.126-0.481,0.212-0.372l-0.17-1.243L29.671,14.922z"/>
						<path fill="#FAA21B" d="M20.303,14.973l0.133,0.409c-0.27,0.613-0.403,0.375-0.294,0.94c0.16-1.349,0.692-0.057,0.835-1.406
							l0.088,0.298c-0.031-0.017-0.043,0.062-0.074,0.045c0.166,0.674,0.245-0.957,0.506-0.735c0.089,0.107,0.143,0.306,0.064,0.464
							l0.242-0.328c0.061,0.028,0.029,0.263-0.032,0.235l0.339-0.098l-0.005,0.04c0.061-0.211,0.188-0.537,0.248-0.675
							c0.071,0.197-0.051,0.143-0.04,0.312l0.201-0.323c0.054,0.354-0.117,0.69-0.241,0.636c0.091,1.359,0.172-0.337,0.498,0.466
							l-0.184,0.167c0.071,0.773,0.224,0.498,0.402,0.984c-0.038-0.252-0.338-1.221-0.12-1.553c0.051,0.104,0.123,0.155,0.243-0.115
							c-0.021,0.482,0.09,0.367,0.223,0.344l-0.036,0.639c0.152-0.18,0.153-0.506,0.248-0.791c0.156,0.068,0.172,0.564,0.195,0.982
							c0.254,0.109-0.15-0.799,0.156-0.911c0.204,0.251,0.362-0.006,0.62-0.381c0.143,0.225-0.034,0.39,0.016,0.575l0.14-0.506
							c0.032,0.013,0.019,0.17,0.012,0.249c0.113-0.195,0.02-0.639,0.193-0.808c0.052-0.703,0.342,1.04,0.561,0.246
							c0.052,0.183-0.027,0.391-0.011,0.639c0.294-0.517,0.253-0.374,0.488-1.074l0.206,0.426c-0.153-0.485,0.033-1.048,0.188-1.51
							c-0.055-0.233-0.101-0.438-0.131-0.535l0.251-0.338c0.032,0.103,0.011,0.325-0.028,0.593c0.016-0.054,0.031-0.107,0.045-0.155
							c0.096,0.231,0.055,0.603-0.006,0.964c-0.032-0.127-0.066-0.262-0.1-0.396c-0.059,0.387-0.115,0.815-0.097,1.19
							c0.016-0.073,0.049-0.136,0.085-0.17c-0.016,0.105-0.025,0.199-0.017,0.263c0.01,0.068,0.036-0.073,0.077-0.235l0.072,0.713
							l0.01-0.284l0.358,0.428c0.236-0.731,0.42-1.799,0.793-2.114c-0.077,0.528,0.01,0.855,0.028,1.474
							c-0.13-0.65-0.296,0.295-0.506,0.173c0.109,0.063,0.094,0.36,0.07,0.464l0.348-0.616c0.009,0.507,0.091,0.376,0.195,0.58
							c-0.11-0.997,0.247-0.681,0.381-0.996c0.024,0.336,0.004,0.68-0.182,0.609c0.235,0.742,0.206-1.189,0.43-0.56
							c-0.044,0.011-0.07-0.04-0.079,0.132c0.088-0.304,0.351-0.081,0.308,0.215l-0.044,0.009c0.3,0.103,0.898-0.042,0.881-0.892
							c0.011,0.109,0.031,1.025,0.025,1.198l0.31-2.883c0.009,0.731,0.319,2.456,0.106,2.881c0.078,0.1,0.175,0.216,0.304-0.049
							c-0.057-0.101-0.201-1.046-0.142-1.117c0.242,0.801,0.157,0.427,0.435,1.106c-0.085-0.152-0.101-1.298,0.013-1.268
							c-0.003,0.172,0.107,1.126,0.076,1.247l0.181-1.136c-0.051,0.206,0.073,0.95,0.166,1.263c-0.05-0.218,0.247,0.007,0.312-0.109
							l-0.145-0.252c0.337,0.144,0.157-1.612,0.467-1.592c-0.011,0.236,0.06,1.434,0.237,1.553c0.014-0.583,0.01-2.798,0.211-3.274
							l0.091,0.32l0.153-0.4c-0.007,0.876-0.147,2.737-0.277,3.471c0.15,0.242,0.078,0.381,0.255,0.326
							c0.101,0.297-0.044,0.479-0.096,0.504l0.451,0.138c-0.102-0.665,0.239-0.714,0.149-1.267l-0.368,0.755
							c-0.097-0.664,0.027-1.93,0.326-1.852c0.11,0.255,0.104,1.194,0.139,1.415c0.008-0.235,0.221-0.477,0.271-0.319l-0.076,0.374
							c0.202,0.227,0.143-0.92,0.433-0.313c0.074,0.033,0.335,0.827,0.287,0.432c-0.23-0.742-0.6-3.087-0.618-3.666
							c0.029,0.048,0.446,0.678,0.583,1.041c0.206,0.578,0.064,1.438,0.239,1.935c-0.025-0.182,0.001-0.414,0.014-0.49
							c0.096,0.145,0.062,0.566,0.204,0.462c-0.086-0.676,0.323,0.012-0.022-0.579c0.117-0.213,0.183,0.116,0.354,0.061
							c-0.131-0.426-0.103-1.499,0.005-1.71c0.023,0.172,0.096,0.389,0.13,0.488c0.312,0.028,0.526,0.269,0.807,0.216
							c0.058,0.156,0.235,0.319,0.238,0.62c0.016-0.128,0.006-0.362,0.089-0.399c0.293,0.536-0.175,0.136,0.101,0.798
							c-0.071-0.39,0.113-0.588,0.182-0.859c-0.171-0.588-0.307-0.048-0.382,0.224c-0.173-0.826-0.146-1.74,0.04-2.186
							c0.172-0.256,0.218,0.509,0.229,0.383c0.455,0.044,0.004-1.515,0.487-1.004c0.269,0.489,0.273,1.035,0.399,1.403
							C36.691,11.505,36.46,11,36.342,11.05l0.214,0.211c-0.015,0.187-0.107,0.348-0.211,0.213c0.233,0.441,0.743-0.08,1.192,0.271
							c0.012-0.188,0.062-0.391-0.044-0.588l-0.084,0.097c-0.21-0.396,0.033-0.623-0.151-0.788c0.053-0.332,0.077-0.808,0.322-0.643
							l0.21,0.576c-0.056-0.17-0.223-0.308-0.223-0.112c-0.003-0.285,0.523,0.696,0.373-0.1l-0.252-0.362
							c0.041-0.34-0.003-1.014,0.209-0.883c-0.256-0.552-0.016,0.079-0.339-0.559c0.36,0.807-0.398,0.1,0.025,0.933
							c-0.353-0.751-0.291-0.257-0.64-0.896c0.061,0.193,0.161,0.359-0.001,0.295c0.01,0.058,0.016,0.134,0.019,0.178l-0.013-0.012
							L36.962,8.9c0.002,0.031,0.004,0.037,0.005,0.007c0.056,0.078,0.112,0.174,0.154,0.28c0.06,0.462-0.166,0.5-0.177,0.749
							c-0.108-0.073-0.027-0.232-0.129-0.429L36.798,9.88c-0.129-0.431-0.408-0.67-0.286-0.969l-0.175,0.02
							c-0.164-0.22-0.323-0.286-0.361-0.083c-0.102-0.076-0.083,0.53-0.097,0.172l-0.202,0.334l-0.028-0.109
							c-0.271,0.006-0.389,0.857-0.858,0.136c-0.066,0.132-0.132,0.29-0.305,0.201l-0.102-0.375
							c-0.087,0.163-0.421-0.33-0.398,0.078c-0.309-1.012-0.605-0.147-0.843-0.301l0.072,0.502c-0.147-0.009-0.261,0.153-0.41,0.379
							l0.077,0.442c-0.103,0.386-0.445-0.26-0.682-0.18c-0.006-0.172,0.062-0.136,0.119-0.04c-0.419-0.964-0.525,0.818-0.88,0.123
							c-0.048,0.171-0.102,0.123-0.161,0.017c0.006-0.002,0.011-0.011,0.014-0.026c-0.007-0.004-0.017-0.004-0.028-0.002
							c-0.038-0.072-0.081-0.155-0.117-0.224c0.039,0.104,0.075,0.19,0.102,0.228c-0.05,0.016-0.121,0.083-0.185,0.205l-0.081-0.474
							c-0.005,0.007-0.01,0.007-0.016,0.016c-0.091-0.166-0.037,0.235,0.039,0.59c-0.03,0.084-0.056,0.184-0.072,0.303
							c-0.135-0.76-0.18,0.274-0.341-0.545c-0.015,0.405-0.362,0.324-0.332,1.173c-0.012-0.11-0.04-0.162,0.002-0.171
							c-0.096-0.092-0.191-0.184-0.25,0.059l-0.086-0.608l-0.127,0.831c-0.145-0.366-0.208-0.579-0.129-1.055
							c-0.223,0.737-0.203,0.284-0.39,1.013l-0.015-0.396c-0.083,0.02-0.185,0.556-0.257,0.232
							c-0.233-0.741-0.945-0.053-1.455-0.725c0.136,1.16-0.242-0.51-0.23,0.394c-0.037-0.274-0.109-0.426-0.039-0.67
							c-0.237,0.284-0.376-0.417-0.527,0.354c-0.034-0.275,0.043-0.407,0.015-0.569c-0.018,0.061-0.072,0.244-0.101,0.081
							c-0.028-0.163,0.031-0.233,0.066-0.356c-0.245,0.06-0.256,0.911-0.261,1.709c-0.135-0.367-0.196-0.326-0.284,0.197
							c-0.048-0.262-0.125-0.537,0.031-0.626c-0.09-0.041-0.538-0.399-0.546,0.24c-0.028-0.163-0.123-0.051-0.147,0.022
							c-0.199-0.044-0.215-0.102-0.411-0.048l0.053,0.106c-0.084,0.769-0.165,0.167-0.324,0.255l0.006-0.079
							c-0.351-0.567-0.163,0.262-0.505-0.383l0.008,0.48c-0.061,1.03-0.301-0.618-0.518-0.229l0.066,0.276
							c-0.128,0.349-0.265-1.411-0.368-1.543c-0.02-0.09,0.044-0.143,0.08-0.208c-0.263-0.616-0.063,0.627-0.288,0.766
							c-0.024-0.34,0.09-0.859-0.051-0.927c-0.055-0.276-0.479,1.087-0.643,0.432c0.028,0.262,0.057,0.523-0.056,0.717
							c-0.165,0.088-0.355-0.997-0.552-0.18c-0.015-0.072-0.017-0.14-0.013-0.205c-0.135,0.216-0.412,0.334-0.52,0.764
							c0.034-1.664-0.813,0.711-0.668-0.81l-0.37,0.037l0.026-0.154c-0.219-0.129-0.341,0.225-0.466,0.579
							c-0.042-0.11,0.014-0.247,0.028-0.326c-0.303-0.348-0.338-0.286-0.725,0.433l0.035-0.495c-0.119,0.276-0.38-0.829-0.793-0.297
							c0.012-0.055,0.033-0.149,0.07-0.215c-0.469,0.527-0.655-1.455-1.093,0.278l-0.322,0.385c0.293,0.207-0.188,0.76-0.111,1.084
							c-0.148,0.076-0.229-0.607-0.057-0.664l0.008,0.094c0.228-0.913-0.334-0.414-0.202-1.04c-0.628-0.089-1.113-0.727-1.668-0.887
							l-0.109,0.724l-0.192-0.084c-0.012-0.177,0.07-0.57,0.204-0.51c0.027-0.418-0.323,0.285-0.368,0.438
							c-0.206-0.347,0.322-0.803,0.24-0.838l-0.129,0.028l0.005,0.088c-0.168,0.268-0.259,0.577-0.42,0.499
							c-0.068-0.175,0.063-0.453,0.029-0.493c0.014-0.05,0.006-0.078-0.057-0.04l-0.225-0.136l-0.058,0.587
							c-0.185,0.24-0.224-0.102-0.287,0.564c0.107-1.023-0.822-0.636-0.834-0.968c-0.28,0.354-0.433,0.298-0.605,0.192
							c0.008,0.128-0.168,0.753-0.309,0.626c0.49-1.25-0.113-0.644,0.078-1.593c-0.102,0.646-0.502-0.003-0.633,0.911
							c-0.093-0.155,0.164-0.474,0.176-0.81c-0.49,0.36-0.547-0.589-0.981-0.576c-0.074,0.16-0.114,0.434-0.297,0.642l0.146-0.89
							c-0.106,0.05-0.473,0.903-0.364,0.289c-0.041,0.143-0.101,0.359-0.174,0.39C9.815,7.938,9.402,7.904,9,7.795
							C8.609,7.686,8.213,7.489,8.323,6.598c-0.09,0.344-0.163,0.339-0.236,0.31c0.001,0.096-0.225,0.372-0.34,0.581L7.82,6.76
							C7.617,7.024,7.536,6.989,7.461,6.952C7.399,6.919,7.347,6.888,7.151,7.137l0.137-0.044C6.747,7.63,6.522,8.578,6,9.375
							c0.602-0.627-0.234,1.327,0.658,0.446c-0.039,0.204-0.205,0.237-0.285,0.448c0.275-0.316,0.394-0.336,0.456-0.096l-0.066,0.08
							c0.474,0.129,0.464,0.578,0.839,1.068l0.173-0.443c0.076,0.109,0.033,0.254,0.031,0.386c0.431-0.587-0.275-0.184,0.182-0.84
							c-0.285,0.939,0.713,0.377,0.36,1.399c0.163,0.073,0.176-0.52,0.337-0.447l-0.076,0.289l0.195-0.333
							c0.081,0.101-0.012,0.464-0.107,0.696c-0.015-0.038-0.103,0.034-0.14,0.042c0.004,0.379,0.448,0.055,0.451,0.179l-0.089-0.234
							c0.556-0.072,0.97,0.516,1.613,0.127l0.044-0.223c0.468-0.265,0.183,0.32,0.613,0.26l-0.031,0.046
							c0.146-0.187,0.279-0.263,0.371-0.208c-0.176,0.219,0.013,0.537-0.201,0.773c0.505-0.307,0.293-0.274,0.785-0.99l-0.058,0.37
							c0.182-0.294,0.242-0.461,0.45-0.497c-0.242,0.258-0.051,0.576-0.343,0.926c0.154,0.897,0.804-0.607,0.648,0.586
							c0.459-0.932-0.174-0.651-0.014-0.831c0.014-0.347,0.359-0.692,0.447-0.556c0.112,0.059-0.153,1.327,0.167,1.405
							c-0.03-0.014-0.052,0.06-0.082,0.046c0.049,0.291,0.32-0.271,0.357,0.168c0.237-0.583,0.18,0.076,0.4-0.686l-0.333,0.115
							c0.217-0.164,0.595-1.03,0.748-0.537c-0.059,0.151-0.188,0.337-0.272,0.439c0.022,0.243,0.188-0.118,0.211,0.133
							c-0.213,0.764-0.39,0.091-0.717,0.638c0.003,0.343,0.476-0.483,0.177,0.329c0.393-1.03,0.283,0.203,0.694-0.56l-0.124,0.459
							c0.052-0.065,0.174-0.268,0.233-0.243l-0.255,0.574c0.295-0.473,0.236,0.521,0.471,0.28c-0.358-0.063,0.047-0.575-0.024-0.945
							c0.567-0.527-0.026,1.265,0.517,1.149c-0.081,0.051-0.19-0.333-0.04-0.525c0.072,0.116,0.157,0.32,0.164,0.576
							c0.345-0.026,0.049-0.489,0.246-0.745c-0.007,0.59,0.205-0.197,0.379-0.348l-0.093,0.474c0.306,0.383,0.288-0.966,0.542-0.529
							l-0.262,0.628l0.203-0.133l-0.136,0.532c0.263-0.36,0.3-0.244,0.457-0.053c0.017-0.344,0.176-0.857,0.338-0.838
							c0.061,0.303-0.14,0.446,0.102,0.409c-0.101,0.29-0.224,0.662-0.248,0.2c-0.037,0.153-0.103,0.287-0.14,0.438
							c0.064,0.356,0.291,0.125,0.376,0.131c-0.03-0.022-0.064-0.052-0.073-0.123l0.444-0.618c0.024,0.185-0.04,0.324-0.105,0.46
							c0.077-0.043,0.158-0.256,0.264-0.285c-0.086,0.384-0.142,0.785-0.315,0.949l0.391-0.39c-0.005,0.171,0.096,0.484,0.033,0.621
							c0.149,0.251,0.551-0.698,0.745-0.368c0.023-0.074,0.057-0.143,0.115-0.192c0.209,0.115,0.351,0.617,0.68,0.116l0.069,0.717
							c0.226-0.133-0.101-0.905,0.272-1.126c0.266-0.193,0.025,0.607,0.089,0.812c0.162-0.337,0.442-1.03,0.608-0.433
							C20.425,15.04,20.377,14.93,20.303,14.973z M22.864,14.842c-0.054,0.099-0.169,0.409-0.19,0.123
							C22.76,14.415,22.788,14.681,22.864,14.842z M26.687,13.771c-0.032,0.161-0.089,0.085-0.154-0.094
							C26.577,13.635,26.628,13.651,26.687,13.771z M36.276,9.237c0,0.008,0.001,0.014,0.001,0.024
							C36.136,9.101,36.188,9.165,36.276,9.237z M36.526,9.393c0.003-0.07-0.016-0.134-0.041-0.197
							c0.018,0.121-0.025,0.14-0.084,0.119C36.447,9.433,36.495,9.512,36.526,9.393z M14.381,9.447l0.005,0.134
							C14.264,9.687,14.321,9.574,14.381,9.447z"/>
						<path fill="#FAA21B" d="M26.269,14.44c-0.015-0.082-0.02-0.172-0.024-0.263C26.227,14.258,26.228,14.352,26.269,14.44z"/>
						<polygon fill="#FAA21B" points="18.685,15.031 18.678,15.025 18.659,15.11 						"/>
						<path fill="#FAA21B" d="M34.078,14.067c-0.058-0.062-0.097-0.145-0.129-0.233C33.965,13.951,34.002,14.046,34.078,14.067z"/>
						<path fill="#FAA21B" d="M37.319,8.333L37.24,8.494c0.049-0.043,0.1,0.051,0.151,0.114C37.355,8.502,37.285,8.353,37.319,8.333
							z"/>
						<path fill="#FAA21B" d="M39.344,10.79c-0.001-0.062,0.039-0.02,0.037-0.083l-0.083-0.209
							C39.222,10.54,39.226,10.73,39.344,10.79z"/>
						<path fill="#FAA21B" d="M37.905,9.825c0.131,0.384,0.17,0.225,0.234,0.123c-0.005,0.003-0.009,0.008-0.016,0.005
							C37.975,9.404,37.942,9.615,37.905,9.825z"/>
						<path fill="#FAA21B" d="M38.155,9.928c0.021-0.027,0.046-0.047,0.078-0.038C38.173,9.671,38.186,9.857,38.155,9.928z"/>
						<path fill="#FAA21B" d="M36.707,9.075c0.069,0.091-0.111-0.507-0.044-0.352C36.574,8.213,36.55,9.39,36.707,9.075z"/>
						<polygon fill="#FAA21B" points="38.379,11.075 38.196,10.609 38.266,11.012 						"/>
						<path fill="#FAA21B" d="M37.543,10.953l0.189,0.098c-0.026-0.08-0.02-0.132-0.007-0.174
							C37.627,10.883,37.499,10.811,37.543,10.953z"/>
						<path fill="#FAA21B" d="M37.724,10.877c0.051-0.003,0.091-0.031,0.094-0.118C37.795,10.772,37.746,10.81,37.724,10.877z"/>
						<polygon fill="#FAA21B" points="38.222,11.289 38.147,11.204 38.032,11.205 						"/>
						<path fill="#FAA21B" d="M35.905,11.241l-0.132,0.179c0.02,0.172,0.088,0.264,0.135,0.182
							C35.921,11.476,35.967,11.397,35.905,11.241z"/>
						<path fill="#FAA21B" d="M36.726,12.457c-0.071-0.09-0.1-0.198-0.165-0.352l0.141,0.605L36.726,12.457z"/>
						<path fill="#FAA21B" d="M36.26,12.716c0.022,0.172-0.142,0.542,0.07,0.452C36.31,12.997,36.45,12.817,36.26,12.716z"/>
						<polygon fill="#FAA21B" points="33.542,12.423 33.584,12.409 33.42,11.404 						"/>
						<path fill="#FAA21B" d="M31.532,15.164c0.238,0.213-0.015-0.632,0.208-0.356c0.024-0.246-0.182-0.226-0.153-0.439
							C31.487,14.639,31.405,14.505,31.532,15.164z"/>
						<path fill="#FAA21B" d="M31.587,14.369c0.016-0.043,0.032-0.094,0.048-0.163C31.605,14.274,31.593,14.325,31.587,14.369z"/>
						<polygon fill="#FAA21B" points="7.931,6.216 7.993,6 7.837,6.309 						"/>
						<path fill="#FAA21B" d="M7.372,6.748L7.74,6.214L7.347,6.657C7.381,6.645,7.446,6.621,7.372,6.748z"/>
						<path fill="#FAA21B" d="M23.183,16.16l0.017-0.156c-0.014-0.169-0.046-0.183-0.109-0.211L23.183,16.16z"/>
						<polygon fill="#FAA21B" points="21.339,15.612 21.371,15.629 21.356,15.036 						"/>
						<path fill="#FAA21B" d="M19.689,16.167c0.062,0.032,0.153-0.089,0.215-0.056C19.751,16.199,19.752,15.437,19.689,16.167z"/>
					</g>
				</g>
			</g>
		</g>
	</g>
</g>
</svg>
