<?xml version="1.0" encoding="utf-8"?>
<!-- Generator: Adobe Illustrator 17.0.0, SVG Export Plug-In . SVG Version: 6.00 Build 0)  -->
<!DOCTYPE svg PUBLIC "-//W3C//DTD SVG 1.1//EN" "http://www.w3.org/Graphics/SVG/1.1/DTD/svg11.dtd">
<svg version="1.1" id="Layer_1" xmlns="http://www.w3.org/2000/svg" xmlns:xlink="http://www.w3.org/1999/xlink" x="0px" y="0px"
	 width="25.994px" height="16.001px" viewBox="0 0 25.994 16.001" enable-background="new 0 0 25.994 16.001" xml:space="preserve">
<path fill="#121212" d="M0.172,6.462c0.377-1.62,2.103-3.317,2.917-3.981c1.604-1.307,5.084-2.157,6.807-2.388
	c1.869-0.251,5.636,0.023,7.488,0.597c1.394,0.432,4.19,1.676,5.446,2.986c0.867,0.903,2.787,2.901,3.112,4.777
	c0.201,1.16-0.224,3.79-0.583,4.777c-0.372,1.019-1.535,2.289-2.139,2.587c-0.781,0.386-2.447,0.124-3.209-0.398
	c-0.526-0.36-1.991-1.177-2.528-1.46c-0.871-0.458-2.116-0.634-3.015-0.73c-1.172-0.125-3.399-0.72-4.571-0.597
	c-1.067,0.112-3.233,0.948-4.279,1.393c-0.705,0.3-2.106,1.385-2.82,1.194c-0.647-0.173-1.965-1.287-2.334-2.388
	C0.023,11.512-0.164,7.906,0.172,6.462z"/>
<g>
	<path fill="#D0E5F7" d="M17.608,6.204c1.358,0.922,5.195,0.83,4.911-1.391c-0.208-1.627-3.837-4.093-5.426-3.687
		C14.923,1.68,16.25,5.281,17.608,6.204z"/>
</g>
<g>
	<path fill="#D0E5F7" d="M12.905,5.66c1.848,0.207,5.645-1.914,4.186-3.991c-1.068-1.521-6.009-2.074-7.387-0.826
		C7.823,2.545,11.056,5.453,12.905,5.66z"/>
</g>
<g>
	<path fill="#D0E5F7" d="M7.278,6.63c1.774-0.559,4.387-4.035,2.213-5.343c-1.592-0.958-6.334,0.536-7.09,2.234
		C1.371,5.839,5.504,7.189,7.278,6.63z"/>
</g>
<path fill="#9DC4CB" d="M18.739,11.905c-0.949-1.806-6.566-3.124-8.325-2.758c-1.783,0.371-4.777,3.56-3.367,5.278
	c1.46,1.779,6.592,0.979,8.348,0.46C16.59,14.533,19.417,13.195,18.739,11.905z"/>
</svg>
