<?xml version="1.0" encoding="utf-8"?>
<!-- Generator: Adobe Illustrator 17.0.0, SVG Export Plug-In . SVG Version: 6.00 Build 0)  -->
<!DOCTYPE svg PUBLIC "-//W3C//DTD SVG 1.1//EN" "http://www.w3.org/Graphics/SVG/1.1/DTD/svg11.dtd">
<svg version="1.1" id="Layer_1" xmlns="http://www.w3.org/2000/svg" xmlns:xlink="http://www.w3.org/1999/xlink" x="0px" y="0px"
	 width="36.029px" height="7.45px" viewBox="0 0 36.029 7.45" enable-background="new 0 0 36.029 7.45" xml:space="preserve">
<g>
	<path fill="#E6E8EE" d="M8.153,0.004C7.847-0.081,2.633,1.05,3.721,3.179c0.797,1.56,5.337,2.725,6.787,1.742
		C12.487,3.579,8.499,0.101,8.153,0.004z"/>
</g>
<linearGradient id="SVGID_1_" gradientUnits="userSpaceOnUse" x1="-9.190007e-07" y1="4.0221" x2="36.0294" y2="4.0221">
	<stop  offset="0" style="stop-color:#1C0300"/>
	<stop  offset="1" style="stop-color:#481518"/>
</linearGradient>
<path fill="url(#SVGID_1_)" d="M1.29,1.096c-2.864-1.686-0.541,1.28,2.881,2.971c7.036,3.476,17.241,4.771,24.963,1.488
	c2.237-0.951,8.912-4.328,6.297-4.328c-0.595,0-3.31,2.068-7.296,3.601c-3.952,1.52-10.534,1.954-16.415,0.608
	C5.383,3.986,3.204,2.222,1.29,1.096z"/>
</svg>
