<?xml version="1.0" encoding="utf-8"?>
<!-- Generator: Adobe Illustrator 17.0.0, SVG Export Plug-In . SVG Version: 6.00 Build 0)  -->
<!DOCTYPE svg PUBLIC "-//W3C//DTD SVG 1.1//EN" "http://www.w3.org/Graphics/SVG/1.1/DTD/svg11.dtd">
<svg version="1.1" id="Layer_1" xmlns="http://www.w3.org/2000/svg" xmlns:xlink="http://www.w3.org/1999/xlink" x="0px" y="0px"
	 width="51.073px" height="18.998px" viewBox="0 0 51.073 18.998" enable-background="new 0 0 51.073 18.998" xml:space="preserve">
<linearGradient id="SVGID_1_" gradientUnits="userSpaceOnUse" x1="-8552.5596" y1="-12976.8379" x2="-8503.2676" y2="-12976.8379" gradientTransform="matrix(-0.9978 0.067 -0.0702 -1.0601 -9394.6592 -13175.9043)">
	<stop  offset="0" style="stop-color:#1C0300"/>
	<stop  offset="0.5427" style="stop-color:#5B1A20"/>
	<stop  offset="1" style="stop-color:#952136"/>
</linearGradient>
<path fill="url(#SVGID_1_)" d="M0.611,8.989C1.19,7.207,4.317,5.23,5.804,4.445C8.734,2.9,15.256,1.693,18.501,1.301
	c3.521-0.425,10.679-0.44,14.237,0.028c2.677,0.352,8.079,1.466,10.568,2.778c1.718,0.905,5.523,2.906,6.297,4.907
	c0.479,1.237-0.106,4.116-0.704,5.212c-0.618,1.132-2.717,2.602-3.836,2.974c-1.448,0.481-4.625,0.335-6.113-0.166
	c-1.027-0.346-3.871-1.108-4.913-1.369c-1.689-0.423-4.063-0.511-5.773-0.54c-2.23-0.038-6.5-0.498-8.71-0.268
	c-2.011,0.209-6.046,1.291-7.99,1.859c-1.31,0.383-4.406,0.385-5.774,0.238c-1.24-0.133-3.3,0.057-4.091-1.104
	C0.752,14.46,0.096,10.577,0.611,8.989z"/>
<path fill="#C78593" d="M2.465,15.12c0.231,4.217,6.284,3.293,17.948,1.012c3.479-0.68,20.427,3.502,24.997,0.776
	c3.026-1.805-7.445-7.992-12.06-8.291c-6.175-0.4-7.788,0.706-9.364,0.786c-1.19,0.06-5.66-0.967-7.416-0.758
	C8.654,9.59,2.375,13.474,2.465,15.12z"/>
<g>
	<path fill="#D0E5F7" d="M33.717,10.598c0.875,0.147,4.718,4.727,2.689,5.856c-1.486,0.827-6.334-0.214-7.248-1.555
		C27.911,13.067,32.965,10.472,33.717,10.598z"/>
</g>
<g>
	<path fill="#D0E5F7" d="M23.835,10.076c0.601,0,5.702,3.226,4.054,4.821c-1.207,1.168-6.398,1.258-7.76,0.135
		C18.27,13.498,23.185,10.076,23.835,10.076z"/>
</g>
<g>
	<path fill="#D0E5F7" d="M14.766,11.833c0.825-0.049,5.638,2.555,4.267,4.089c-1.004,1.123-5.782,1.601-7.143,0.715
		C10.033,15.426,14.133,11.87,14.766,11.833z"/>
</g>
<g>
	<path fill="#D0E5F7" d="M6.85,12.524c1.104,0,4.904,3.125,3.675,4.408c-0.9,0.94-5.159,1.017-6.366,0.115
		C2.51,15.816,5.985,12.524,6.85,12.524z"/>
</g>
<g>
	<path fill="#D0E5F7" d="M41.83,12.681c0.609-0.01,3.759,4.166,2.009,5.121c-1.282,0.7-5.423-0.111-6.192-1.212
		C36.599,15.087,41.262,12.69,41.83,12.681z"/>
</g>
<g>
	<path fill="#D0E5F7" d="M35.56,6.602c0.881-0.012,6.125-2.357,4.246-3.908c-1.376-1.136-6.116-2.544-7.056-1.166
		C31.466,3.41,34.617,6.615,35.56,6.602z"/>
</g>
<g>
	<path fill="#D0E5F7" d="M26.584,5.95c0.554,0,5.632-2.514,3.693-4.411c-1.42-1.389-6.839-1.275-8.101,0.171
		C20.453,3.685,25.415,5.95,26.584,5.95z"/>
</g>
<g>
	<path fill="#D0E5F7" d="M16.701,6.197c0.846,0,5.457-3.113,3.589-5.07c-1.368-1.434-6.559-0.776-7.876,0.626
		C10.617,3.667,15.726,6.197,16.701,6.197z"/>
</g>
<g>
	<path fill="#D0E5F7" d="M9.001,8.659c0.761-0.304,3.955-3.564,1.495-5.008C8.694,2.593,5.208,3.859,4.5,5.349
		C3.532,7.384,8.184,8.986,9.001,8.659z"/>
</g>
<g>
	<path fill="#D0E5F7" d="M42.71,8.475c0.504,0.352,5.887-0.15,5.435-1.975c-0.331-1.337-4.228-3.138-5.827-2.692
		C40.136,4.416,42.19,8.111,42.71,8.475z"/>
</g>
<path fill="#282828" d="M1.227,10.298c0.335-2.186,7.768-8.291,17.295-8.291c3.558,0,10.741-0.118,14.274,0.304
	c2.698,0.322,13.483,2.293,16.4,7.441c0.611,1.079,0.129,3.865-0.755,4.735c-4.174,4.109-7.975,2.799-9.489,2.589
	c-1.255-0.174-6.431-1.792-11.015-2.03c-8.201-0.426-14.368,1.37-16.364,1.825c-7.003,1.598-8.703-0.488-9.486-1.192
	C0.464,14.22,1.136,10.812,1.227,10.298l-1.035,0.013c-0.06,0.28-0.769,3.972,0.987,6.328c1.362,1.828,3.189,3.1,10.729,1.872
	c2.06-0.335,8.886-1.686,16.03-1.603c3.684,0.043,9.312,1.451,10.538,1.627c1.669,0.24,8.646,1.585,11.328-3.681
	c0.639-1.254,1.23-4.302,0.664-5.591c-2.991-6.807-14.654-8.024-17.405-8.34C29.439,0.507,21.916,0.59,18.276,0.56
	C6.211,0.46,0.217,8.979,0.192,10.311L1.227,10.298z"/>
<linearGradient id="SVGID_2_" gradientUnits="userSpaceOnUse" x1="-8550.9414" y1="-13370.1289" x2="-8499.9004" y2="-13370.1289" gradientTransform="matrix(-0.9978 0.0665 -0.0665 -0.9978 -9370.2725 -12764.0645)">
	<stop  offset="0" style="stop-color:#B42D44"/>
	<stop  offset="0.9004" style="stop-color:#E96261"/>
</linearGradient>
<path fill="url(#SVGID_2_)" d="M1.153,9.753C1.488,7.567,9.373,1.448,18.9,1.448c3.558,0,10.741-0.118,14.274,0.304
	c2.698,0.322,13.483,2.293,16.4,7.441c0.611,1.079,0.129,3.865-0.755,4.735c-4.174,4.109-7.975,2.799-9.489,2.589
	c-1.255-0.174-6.431-1.792-11.015-2.03c-8.201-0.426-14.368,1.37-16.364,1.825c-7.003,1.598-8.703-0.488-9.486-1.192
	C0.842,13.662,1.062,10.267,1.153,9.753H0.226c-0.06,0.28-0.662,4.703,1.084,6.597c1.253,1.36,1.803,3.06,10.975,1.603
	c2.061-0.327,8.886-1.686,16.03-1.603c3.684,0.043,9.312,1.451,10.538,1.627c1.669,0.24,8.646,1.585,11.328-3.681
	c0.639-1.254,1.23-4.302,0.664-5.591c-2.991-6.807-14.654-8.024-17.405-8.34c-3.623-0.417-11.146-0.334-14.786-0.365
	C6.589-0.099,0.251,8.42,0.226,9.753H1.153z"/>
</svg>
