<?xml version="1.0" encoding="utf-8"?>
<!-- Generator: Adobe Illustrator 17.0.0, SVG Export Plug-In . SVG Version: 6.00 Build 0)  -->
<!DOCTYPE svg PUBLIC "-//W3C//DTD SVG 1.1//EN" "http://www.w3.org/Graphics/SVG/1.1/DTD/svg11.dtd">
<svg version="1.1" id="Layer_1" xmlns="http://www.w3.org/2000/svg" xmlns:xlink="http://www.w3.org/1999/xlink" x="0px" y="0px"
	 width="24px" height="21.6px" viewBox="0 0 24 21.6" enable-background="new 0 0 24 21.6" xml:space="preserve">
<g>
	
		<image overflow="visible" opacity="0.3" width="50" height="45" xlink:href="3014D62BCEC59E82.png"  transform="matrix(0.48 0 0 0.48 0 0)">
	</image>
	<g>
		<linearGradient id="SVGID_1_" gradientUnits="userSpaceOnUse" x1="6" y1="10.5622" x2="17.64" y2="10.5622">
			<stop  offset="0" style="stop-color:#1C0300"/>
			<stop  offset="0.527" style="stop-color:#581826"/>
			<stop  offset="1" style="stop-color:#921D42"/>
		</linearGradient>
		<path fill="url(#SVGID_1_)" d="M6.002,11.67c-0.069-1.538,1.897-4.488,3.242-5.237c1.071-0.597,3.813-0.558,4.905,0
			c1.325,0.677,3.476,3.333,3.491,4.822c0.01,0.986-1.371,2.785-2.244,3.242c-1.62,0.849-5.684,0.826-7.315,0
			c-0.196-0.099-0.421-0.27-0.649-0.485C6.745,13.366,6.031,12.327,6.002,11.67z"/>
	</g>
</g>
<path fill="#E392B3" d="M10.063,11.139c0.939-0.23,3.001,0.074,3.824,0.582c0.649,0.4,2.103,1.805,1.764,2.488
	c-0.97,1.955-8.111,1.302-8.692-0.801C6.703,12.481,9.13,11.367,10.063,11.139z"/>
<g>
	<path fill="#FDFDFE" d="M14.594,9.563c-1.071-0.453-2.597-3.646-1.029-3.343c0.891,0.172,2.782,1.235,3.139,2.331
		C17.193,10.047,15.665,10.016,14.594,9.563z"/>
</g>
<g>
	<path fill="#FDFDFE" d="M9.498,9.477c-1.075,0.332-2.97,0.907-2.558-0.516C7.243,7.918,8.964,6.101,10.108,6.2
		C11.839,6.348,10.574,9.144,9.498,9.477z"/>
</g>
<g>
	<path fill="#FDFDFE" d="M13.566,13.233c-0.683,0.289-1.575,1.761-0.653,2.193c0.676,0.317,2.501-0.455,2.729-1.154
		C15.954,13.318,14.249,12.944,13.566,13.233z"/>
</g>
<g>
	<path fill="#FDFDFE" d="M10.193,12.83c-0.648-0.359-2.808-0.105-2.921,0.923c-0.083,0.753,1.649,1.713,2.589,1.435
		C11.144,14.809,10.841,13.189,10.193,12.83z"/>
</g>
</svg>
