<?xml version="1.0" encoding="utf-8"?>
<!-- Generator: Adobe Illustrator 17.0.0, SVG Export Plug-In . SVG Version: 6.00 Build 0)  -->
<!DOCTYPE svg PUBLIC "-//W3C//DTD SVG 1.1//EN" "http://www.w3.org/Graphics/SVG/1.1/DTD/svg11.dtd">
<svg version="1.1" id="Layer_1" xmlns="http://www.w3.org/2000/svg" xmlns:xlink="http://www.w3.org/1999/xlink" x="0px" y="0px"
	 width="46.542px" height="5.376px" viewBox="0 0 46.542 5.376" enable-background="new 0 0 46.542 5.376" xml:space="preserve">
<g>
	<path fill="#282828" d="M34.944,0.001c-0.22,0.027-3.274,2.14-2.007,3.221c0.928,0.792,4.158,0.334,4.83-0.684
		C38.683,1.148,35.192-0.029,34.944,0.001z"/>
</g>
<g>
	<path fill="#282828" d="M10.471,0.105C10.254,0.059,6.683,1.079,7.534,2.51c0.624,1.048,3.83,1.653,4.793,0.905
		C13.642,2.394,10.715,0.156,10.471,0.105z"/>
</g>
<g>
	<path fill="#F5F6FB" d="M34.987,0.104c-0.22,0.027-3.274,2.14-2.007,3.221c0.928,0.792,4.158,0.334,4.83-0.684
		C38.726,1.251,35.235,0.074,34.987,0.104z"/>
</g>
<g>
	<path fill="#F5F6FB" d="M10.428,0.195C10.212,0.15,6.64,1.17,7.492,2.6c0.624,1.048,3.83,1.653,4.793,0.905
		C13.6,2.484,10.673,0.247,10.428,0.195z"/>
</g>
<path fill="#282828" d="M1.007,1.537C4.288,2.98,15.314,3.41,18.895,3.238c1.778-0.086,5.343-0.146,7.12-0.054
	c2.991,0.156,8.157,0.693,11.071,0c1.186-0.282,7.526-0.975,8.28-1.106c1.045-0.181,1.799-0.11,0.45,0.715
	c-0.852,0.521-7.488,1.707-8.924,2.018c-2.807,0.61-7.751,0.542-10.622,0.453c-1.886-0.059-5.662,0.079-7.549,0.111
	C15.199,5.433,4.287,3.594,1.07,2.159C-0.716,1.362,0.07,1.125,1.007,1.537z"/>
<linearGradient id="SVGID_1_" gradientUnits="userSpaceOnUse" x1="-372.3124" y1="-145.3827" x2="-330.7746" y2="-145.3827" gradientTransform="matrix(0.8987 -0.4386 0.4386 0.8987 403.0103 -21.9367)">
	<stop  offset="0" style="stop-color:#4688BD"/>
	<stop  offset="0.0134" style="stop-color:#3884A6"/>
	<stop  offset="0.0343" style="stop-color:#1D7E8A"/>
	<stop  offset="0.0571" style="stop-color:#007771"/>
	<stop  offset="0.0813" style="stop-color:#00715E"/>
	<stop  offset="0.1074" style="stop-color:#006C4D"/>
	<stop  offset="0.136" style="stop-color:#006940"/>
	<stop  offset="0.1679" style="stop-color:#006637"/>
	<stop  offset="0.2052" style="stop-color:#006431"/>
	<stop  offset="0.2527" style="stop-color:#00632F"/>
	<stop  offset="0.3454" style="stop-color:#00622E"/>
	<stop  offset="0.808" style="stop-color:#A9ABD5"/>
	<stop  offset="0.9853" style="stop-color:#AFAB24"/>
</linearGradient>
<path fill="url(#SVGID_1_)" d="M1.007,1.233c3.281,1.443,14.307,1.873,17.888,1.701c1.778-0.086,5.343-0.146,7.12-0.054
	c2.991,0.156,8.157,0.693,11.071,0c1.186-0.282,7.526-0.975,8.28-1.106c1.045-0.181,1.799-0.11,0.45,0.715
	c-0.852,0.521-7.488,1.707-8.924,2.018C34.085,5.118,29.141,5.05,26.27,4.96c-1.886-0.059-5.662,0.079-7.549,0.111
	C15.199,5.13,4.287,3.29,1.07,1.855C-0.716,1.058,0.07,0.821,1.007,1.233z"/>
</svg>
