<?xml version="1.0" encoding="utf-8"?>
<!-- Generator: Adobe Illustrator 17.0.0, SVG Export Plug-In . SVG Version: 6.00 Build 0)  -->
<!DOCTYPE svg PUBLIC "-//W3C//DTD SVG 1.1//EN" "http://www.w3.org/Graphics/SVG/1.1/DTD/svg11.dtd">
<svg version="1.1" id="Layer_1" xmlns="http://www.w3.org/2000/svg" xmlns:xlink="http://www.w3.org/1999/xlink" x="0px" y="0px"
	 width="28.32px" height="24.96px" viewBox="0 0 28.32 24.96" enable-background="new 0 0 28.32 24.96" xml:space="preserve">
<g>
	
		<image overflow="visible" opacity="0.5" width="59" height="52" xlink:href="EEDA3204040D416A.png"  transform="matrix(0.48 0 0 0.48 0 0)">
	</image>
	<g>
		<linearGradient id="SVGID_1_" gradientUnits="userSpaceOnUse" x1="3" y1="12.4239" x2="24.9623" y2="12.4239">
			<stop  offset="0" style="stop-color:#DBC3DF"/>
			<stop  offset="0.1584" style="stop-color:#DABCD8"/>
			<stop  offset="0.4184" style="stop-color:#D7A9C9"/>
			<stop  offset="0.7456" style="stop-color:#D28CB3"/>
			<stop  offset="1" style="stop-color:#CE72A2"/>
		</linearGradient>
		<path fill="url(#SVGID_1_)" d="M13.779,5.542c0,0-0.541-0.208-0.658-0.354c-0.237-0.298-0.068-1.29-0.405-1.468
			c-1.418-0.75-4.874,1.009-6.073,2.075c-1.226,1.09-1.686,4.746-2.834,5.917C3.651,11.875,3,12.121,3,12.121h1.316
			c0,0,1.601,2.12,2.125,2.834c0.757,1.03,2.032,3.299,2.986,4.15c0.93,0.829,3.179,2.01,4.352,2.429
			c0.407,0.145,1.273,0.366,1.701,0.304c0.666-0.098,1.828-0.862,2.402-1.215c1.056-0.649,3.267-1.932,3.994-2.935
			c1-1.38,1.856-4.794,2.125-6.477c0.046-0.287,0-1.164,0-1.164l0.961-0.253c0,0-0.722-0.368-0.911-0.557
			c-0.924-0.923-1.743-3.601-2.733-4.453c-0.833-0.718-2.958-1.578-4.048-1.721c-0.71-0.093-2.398-0.163-2.834,0.405
			c-0.194,0.253,0.256,0.964,0.152,1.265C14.495,5.003,13.779,5.542,13.779,5.542z"/>
	</g>
</g>
<path fill="#F9E1E5" d="M13.678,6.858c0,0-0.977-1.01-1.417-1.063c-0.985-0.117-2.896,0.917-3.644,1.569
	c-0.959,0.835-2.631,4.352-2.631,4.352s2.208,4.191,3.34,5.263c1.127,1.067,3.863,3.066,5.415,3.036
	c1.913-0.037,5.389-2.46,6.528-3.998c0.902-1.218,1.518-5.87,1.518-5.87s-2.5-2.847-3.593-3.441
	c-0.868-0.472-2.872-1.075-3.846-0.911C14.859,5.878,13.678,6.858,13.678,6.858z"/>
<linearGradient id="SVGID_2_" gradientUnits="userSpaceOnUse" x1="17.9403" y1="17.9233" x2="11.3666" y2="6.5375">
	<stop  offset="0" style="stop-color:#001E1E"/>
	<stop  offset="0.0297" style="stop-color:#001F1F"/>
	<stop  offset="0.3777" style="stop-color:#002B2E"/>
	<stop  offset="0.708" style="stop-color:#003237"/>
	<stop  offset="1" style="stop-color:#00343A"/>
</linearGradient>
<path fill="url(#SVGID_2_)" d="M13.764,8.367c0,0-0.182,0.035-0.226,0c-0.23-0.179-0.092-0.911-0.283-1.131
	c-0.185-0.213-0.765-0.452-1.046-0.424c-0.244,0.024-0.704,0.322-0.82,0.537c-0.121,0.224,0,1.018,0,1.018s-0.089,0.014-0.113,0
	c-0.195-0.112-0.257-0.666-0.452-0.778c-0.276-0.159-1.017-0.19-1.273,0C9.352,7.737,9.233,8.291,9.268,8.536
	C9.297,8.744,9.735,9.034,9.72,9.243C9.715,9.308,9.55,9.441,9.55,9.441S9.19,9.138,9.041,9.13c-0.18-0.009-0.571,0.149-0.65,0.311
	C8.289,9.65,8.47,10.15,8.589,10.349c0.072,0.12,0.424,0.365,0.424,0.365s-0.12,0.234-0.198,0.255
	c-0.23,0.06-0.649-0.435-0.877-0.368C7.602,10.7,7.164,11.409,7.147,11.76c-0.028,0.572,0.61,1.716,1.103,2.008
	c0.116,0.068,0.537,0,0.537,0s0.06,0.296,0.057,0.396c-0.006,0.166-0.158,0.485-0.141,0.65c0.022,0.23,0.164,0.738,0.368,0.848
	c0.221,0.119,0.742-0.131,0.99-0.17c0.099-0.016,0.396-0.057,0.396-0.057s-0.386,0.593-0.396,0.82
	c-0.012,0.279,0.157,0.901,0.396,1.046c0.261,0.159,0.94-0.008,1.216-0.141c0.108-0.052,0.22-0.331,0.339-0.339
	c0.071-0.005,0.226,0.17,0.226,0.17s-0.127,1.112,0.057,1.414c0.118,0.195,0.564,0.462,0.792,0.452
	c0.274-0.011,0.799-0.369,0.905-0.622c0.094-0.225-0.32-0.769-0.17-0.961c0.066-0.084,0.424-0.028,0.424-0.028s-0.105,0.725,0,0.933
	c0.154,0.307,0.76,0.795,1.103,0.82c0.416,0.03,1.318-0.403,1.47-0.792c0.072-0.184-0.188-0.562-0.255-0.749
	c-0.054-0.153-0.305-0.467-0.226-0.609c0.035-0.063,0.283-0.057,0.283-0.057s0.258,0.689,0.452,0.82
	c0.242,0.163,0.906,0.287,1.159,0.141c0.28-0.161,0.548-0.867,0.509-1.188c-0.033-0.273-0.675-0.602-0.662-0.877
	c0.004-0.077,0.209-0.226,0.209-0.226s0.311,0.346,0.452,0.396c0.34,0.12,1.171,0.181,1.442-0.057
	c0.216-0.189,0.284-0.857,0.198-1.131c-0.06-0.191-0.566-0.566-0.566-0.566s0.25-0.366,0.368-0.452
	c0.276-0.203,1.068-0.234,1.273-0.509c0.288-0.387,0.304-1.46,0.17-1.923c-0.117-0.402-0.607-1.25-1.018-1.329
	c-0.218-0.042-0.764,0.455-0.764,0.455s-0.414-0.3-0.424-0.455c-0.018-0.278,0.623-0.628,0.65-0.905
	c0.024-0.239-0.187-0.757-0.396-0.877c-0.173-0.099-0.61,0.004-0.792,0.085c-0.156,0.069-0.34,0.429-0.509,0.452
	c-0.081,0.011-0.294-0.141-0.294-0.141s0.336-0.68,0.266-0.905c-0.073-0.235-0.518-0.602-0.764-0.622
	c-0.227-0.019-0.656,0.27-0.792,0.452c-0.13,0.175-0.198,0.848-0.198,0.848s-0.337-0.176-0.396-0.283
	c-0.113-0.204,0.095-0.755-0.057-0.933c-0.188-0.221-0.846-0.307-1.131-0.255c-0.251,0.046-0.724,0.343-0.848,0.566
	C14.063,7.55,14.236,8,14.131,8.169C14.076,8.257,13.764,8.367,13.764,8.367z"/>
</svg>
