<?xml version="1.0" encoding="utf-8"?>
<!-- Generator: Adobe Illustrator 17.0.0, SVG Export Plug-In . SVG Version: 6.00 Build 0)  -->
<!DOCTYPE svg PUBLIC "-//W3C//DTD SVG 1.1//EN" "http://www.w3.org/Graphics/SVG/1.1/DTD/svg11.dtd">
<svg version="1.1" id="Layer_1" xmlns="http://www.w3.org/2000/svg" xmlns:xlink="http://www.w3.org/1999/xlink" x="0px" y="0px"
	 width="48.48px" height="19.2px" viewBox="0 0 48.48 19.2" enable-background="new 0 0 48.48 19.2" xml:space="preserve">
<g>
	
		<image overflow="visible" opacity="0.3" width="41" height="37" xlink:href="EA74FBFF23635141.png"  transform="matrix(0.48 0 0 0.48 3.5719 -0.5939)">
	</image>
	<g>
		<g>
			<path fill="#E6E8EE" d="M14.153,5.411c-0.306-0.085-5.52,1.045-4.432,3.175c0.797,1.56,5.337,2.725,6.787,1.742
				C18.487,8.985,14.499,5.507,14.153,5.411z"/>
		</g>
	</g>
</g>
<g>
	
		<image overflow="visible" opacity="0.3" width="101" height="40" xlink:href="EA74FBFF23635143.png"  transform="matrix(0.48 0 0 0.48 0 0)">
	</image>
	<g>
		<linearGradient id="SVGID_1_" gradientUnits="userSpaceOnUse" x1="6" y1="9.4282" x2="42.0294" y2="9.4282">
			<stop  offset="0" style="stop-color:#1C0300"/>
			<stop  offset="1" style="stop-color:#481518"/>
		</linearGradient>
		<path fill="url(#SVGID_1_)" d="M7.29,6.502c-2.864-1.686-0.541,1.28,2.881,2.971c7.036,3.476,17.241,4.771,24.963,1.488
			c2.237-0.951,8.912-4.328,6.297-4.328c-0.595,0-3.31,2.068-7.296,3.601c-3.952,1.52-10.534,1.954-16.415,0.608
			C11.383,9.392,9.204,7.628,7.29,6.502z"/>
	</g>
</g>
</svg>
