<?xml version="1.0" encoding="utf-8"?>
<!-- Generator: Adobe Illustrator 17.0.0, SVG Export Plug-In . SVG Version: 6.00 Build 0)  -->
<!DOCTYPE svg PUBLIC "-//W3C//DTD SVG 1.1//EN" "http://www.w3.org/Graphics/SVG/1.1/DTD/svg11.dtd">
<svg version="1.1" id="Layer_1" xmlns="http://www.w3.org/2000/svg" xmlns:xlink="http://www.w3.org/1999/xlink" x="0px" y="0px"
	 width="62.4px" height="18.24px" viewBox="0 0 62.4 18.24" enable-background="new 0 0 62.4 18.24" xml:space="preserve">
<g>
	
		<image overflow="visible" opacity="0.3" width="44" height="38" xlink:href="F3C4E42CA9A2AB18.png"  transform="matrix(0.48 0 0 0.48 32.7925 -3.7958)">
	</image>
	<g>
		<g>
			<path fill="#D0E5F7" d="M43.944,2.234c2.22,0.3,3.754,2.833,3.72,5.889l-8.872-1.2C39.572,3.967,41.724,1.933,43.944,2.234z"/>
		</g>
	</g>
</g>
<g>
	
		<image overflow="visible" opacity="0.3" width="44" height="37" xlink:href="F3C4E42CA9A2AB19.png"  transform="matrix(0.48 0 0 0.48 10.3678 -3.9988)">
	</image>
	<g>
		<g>
			<path fill="#D0E5F7" d="M20.644,2.003c2.238-0.082,4.182,2.152,4.67,5.168l-8.947,0.33C16.632,4.457,18.406,2.086,20.644,2.003z"
				/>
		</g>
	</g>
</g>
<g>
	
		<image overflow="visible" opacity="0.3" width="130" height="38" xlink:href="F3C4E42CA9A2AB1F.png"  transform="matrix(0.48 0 0 0.48 0 0)">
	</image>
	<g>
		<path fill="#D45B27" d="M56.107,6c0,0-7.945,5.851-25.436,5.851C15.982,11.851,6,7.676,6,7.676L56.107,6z"/>
	</g>
</g>
</svg>
