<?xml version="1.0" encoding="utf-8"?>
<!-- Generator: Adobe Illustrator 17.0.0, SVG Export Plug-In . SVG Version: 6.00 Build 0)  -->
<!DOCTYPE svg PUBLIC "-//W3C//DTD SVG 1.1//EN" "http://www.w3.org/Graphics/SVG/1.1/DTD/svg11.dtd">
<svg version="1.1" id="Layer_1" xmlns="http://www.w3.org/2000/svg" xmlns:xlink="http://www.w3.org/1999/xlink" x="0px" y="0px"
	 width="11.64px" height="9.499px" viewBox="0 0 11.64 9.499" enable-background="new 0 0 11.64 9.499" xml:space="preserve">
<linearGradient id="SVGID_1_" gradientUnits="userSpaceOnUse" x1="-1.818989e-12" y1="4.5622" x2="11.64" y2="4.5622">
	<stop  offset="0" style="stop-color:#1C0300"/>
	<stop  offset="0.527" style="stop-color:#581826"/>
	<stop  offset="1" style="stop-color:#921D42"/>
</linearGradient>
<path fill="url(#SVGID_1_)" d="M0.002,5.67c-0.069-1.538,1.897-4.488,3.242-5.237c1.071-0.597,3.813-0.558,4.905,0
	c1.325,0.677,3.476,3.333,3.491,4.822c0.01,0.986-1.371,2.785-2.244,3.242c-1.62,0.849-5.684,0.826-7.315,0
	c-0.196-0.099-0.421-0.27-0.649-0.485C0.745,7.366,0.031,6.327,0.002,5.67z"/>
<path fill="#E392B3" d="M4.063,5.139c0.939-0.23,3.001,0.074,3.824,0.582c0.649,0.4,2.103,1.805,1.764,2.488
	c-0.97,1.955-8.111,1.302-8.692-0.801C0.703,6.481,3.13,5.367,4.063,5.139z"/>
<g>
	<path fill="#FDFDFE" d="M8.594,3.563C7.523,3.11,5.997-0.083,7.565,0.22c0.891,0.172,2.782,1.235,3.139,2.331
		C11.193,4.047,9.665,4.016,8.594,3.563z"/>
</g>
<g>
	<path fill="#FDFDFE" d="M3.498,3.477C2.423,3.809,0.528,4.384,0.941,2.96C1.243,1.918,2.964,0.101,4.108,0.2
		C5.839,0.348,4.574,3.144,3.498,3.477z"/>
</g>
<g>
	<path fill="#FDFDFE" d="M7.566,7.233C6.883,7.522,5.991,8.994,6.914,9.426c0.676,0.317,2.501-0.455,2.729-1.154
		C9.954,7.318,8.249,6.944,7.566,7.233z"/>
</g>
<g>
	<path fill="#FDFDFE" d="M4.193,6.83C3.546,6.471,1.385,6.724,1.272,7.753C1.19,8.506,2.921,9.466,3.861,9.188
		C5.144,8.809,4.841,7.189,4.193,6.83z"/>
</g>
</svg>
