<?xml version="1.0" encoding="utf-8"?>
<!-- Generator: Adobe Illustrator 17.0.0, SVG Export Plug-In . SVG Version: 6.00 Build 0)  -->
<!DOCTYPE svg PUBLIC "-//W3C//DTD SVG 1.1//EN" "http://www.w3.org/Graphics/SVG/1.1/DTD/svg11.dtd">
<svg version="1.1" id="Layer_1" xmlns="http://www.w3.org/2000/svg" xmlns:xlink="http://www.w3.org/1999/xlink" x="0px" y="0px"
	 width="33.868px" height="21.797px" viewBox="0 0 33.868 21.797" enable-background="new 0 0 33.868 21.797" xml:space="preserve">
<linearGradient id="SVGID_1_" gradientUnits="userSpaceOnUse" x1="-3.550540e-07" y1="10.332" x2="33.8684" y2="10.332">
	<stop  offset="0" style="stop-color:#1C0300"/>
	<stop  offset="0.5427" style="stop-color:#5B1A20"/>
	<stop  offset="1" style="stop-color:#952136"/>
</linearGradient>
<path fill="url(#SVGID_1_)" d="M0.744,12.39c1.009,1.902,2.13,4.212,3.194,5.069c2.096,1.688,6.644,2.786,8.895,3.084
	c2.443,0.324,7.364-0.03,9.785-0.771c1.821-0.558,5.475-2.165,7.116-3.856c1.132-1.167,3.641-3.747,4.066-6.169
	c0.263-1.498-0.292-4.895-0.762-6.169c-0.485-1.316-2.006-2.957-2.796-3.341c-1.021-0.498-3.197-0.16-4.193,0.514
	c-0.688,0.465-2.591,1.541-3.304,1.885c-3.182,1.533-5.851,1.868-9.912,1.714C8.104,4.17,4.49,0.762,3.557,1.009
	C2.712,1.232,0.989,2.67,0.507,4.093C-0.069,5.797-0.348,10.332,0.744,12.39z"/>
<linearGradient id="SVGID_2_" gradientUnits="userSpaceOnUse" x1="6.7687" y1="13.7701" x2="25.5419" y2="13.7701">
	<stop  offset="0" style="stop-color:#7FC1C9"/>
	<stop  offset="0.1376" style="stop-color:#77B3C6"/>
	<stop  offset="0.5398" style="stop-color:#6294C0"/>
	<stop  offset="0.8392" style="stop-color:#5681BD"/>
	<stop  offset="1" style="stop-color:#527BBD"/>
</linearGradient>
<path fill="url(#SVGID_2_)" d="M25.382,12.894c-1.123-2.112-7.578-4.966-9.504-3.266c-1.172,1.034-1.26,0.681-2.781-0.047
	c-2.539-1.215-8.008,4.542-5.824,7.171c2.261,2.723,10.21,1.499,12.93,0.705C22.053,16.916,26.431,14.868,25.382,12.894z"/>
<g>
	<path fill="#D0E5F7" d="M22.909,13.986c1.774-1.191,6.788-1.072,6.417,1.797c-0.271,2.101-5.014,5.286-7.091,4.761
		C19.401,19.828,21.135,15.177,22.909,13.986z"/>
</g>
<g>
	<path fill="#D0E5F7" d="M16.764,14.688c2.415-0.267,7.376,2.472,5.47,5.153c-1.396,1.964-7.853,2.678-9.653,1.067
		C10.123,18.71,14.349,14.955,16.764,14.688z"/>
</g>
<g>
	<path fill="#D0E5F7" d="M9.412,13.435c2.318,0.722,5.732,5.211,2.892,6.9c-2.081,1.237-8.277-0.693-9.264-2.885
		C1.692,14.457,7.094,12.713,9.412,13.435z"/>
</g>
</svg>
