<?xml version="1.0" encoding="utf-8"?>
<!-- Generator: Adobe Illustrator 17.0.0, SVG Export Plug-In . SVG Version: 6.00 Build 0)  -->
<!DOCTYPE svg PUBLIC "-//W3C//DTD SVG 1.1//EN" "http://www.w3.org/Graphics/SVG/1.1/DTD/svg11.dtd">
<svg version="1.1" id="Layer_1" xmlns="http://www.w3.org/2000/svg" xmlns:xlink="http://www.w3.org/1999/xlink" x="0px" y="0px"
	 width="73.44px" height="30.72px" viewBox="0 0 73.44 30.72" enable-background="new 0 0 73.44 30.72" xml:space="preserve">
<path fill="#282828" d="M6.407,13.94c0.89-1.867,4.962-3.824,6.884-4.589c3.785-1.507,11.997-2.487,16.063-2.754
	c4.411-0.289,13.298,0.026,17.669,0.688c3.288,0.498,9.887,1.933,12.85,3.442c2.045,1.041,6.575,3.345,7.343,5.507
	c0.475,1.337-0.528,4.37-1.377,5.507c-0.877,1.175-3.623,2.64-5.048,2.983c-1.844,0.445-5.774,0.142-7.572-0.459
	c-1.242-0.415-4.698-1.357-5.966-1.683c-2.056-0.528-4.994-0.731-7.114-0.841c-2.765-0.144-8.02-0.83-10.785-0.688
	c-2.517,0.129-7.629,1.093-10.097,1.606c-1.663,0.346-4.97,1.597-6.655,1.377c-1.526-0.199-4.638-1.483-5.507-2.754
	C6.054,19.761,5.614,15.604,6.407,13.94z"/>
<path fill="#D0E5F7" d="M51.54,17.342c-0.151,0.141-0.399,0.12-0.554-0.047l-0.77-0.825c-0.155-0.167-0.159-0.416-0.009-0.556
	l0.804-0.75c0.151-0.141,0.399-0.12,0.554,0.047l0.77,0.825c0.155,0.167,0.159,0.416,0.009,0.556L51.54,17.342z"/>
<path fill="#E7F1F6" d="M60.384,18.981c0.13,0.16,0.092,0.406-0.085,0.55l-0.876,0.711c-0.177,0.144-0.426,0.13-0.556-0.03
	l-0.693-0.854c-0.13-0.16-0.092-0.406,0.085-0.55l0.876-0.711c0.177-0.144,0.426-0.13,0.556,0.03L60.384,18.981z"/>
<path fill="#D2D1DD" d="M56.937,15.043c0.118,0.146,0.084,0.37-0.078,0.5l-0.798,0.647c-0.161,0.131-0.387,0.118-0.506-0.027
	l-0.631-0.778c-0.118-0.146-0.084-0.37,0.078-0.5l0.798-0.647c0.161-0.131,0.387-0.118,0.506,0.027L56.937,15.043z"/>
<path fill="#D2D1DD" d="M15.112,14.135c0.126,0.155,0.089,0.394-0.083,0.533l-0.849,0.689c-0.171,0.139-0.413,0.126-0.538-0.029
	L12.971,14.5c-0.126-0.155-0.089-0.394,0.083-0.533l0.849-0.689c0.171-0.139,0.413-0.126,0.538,0.029L15.112,14.135z"/>
<g>
	
		<image overflow="visible" opacity="0.3" width="153" height="64" xlink:href="511EF22741CA2F58.png"  transform="matrix(0.48 0 0 0.48 0 0)">
	</image>
	<g>
		<linearGradient id="SVGID_1_" gradientUnits="userSpaceOnUse" x1="6" y1="15.2239" x2="67.3384" y2="15.2239">
			<stop  offset="0" style="stop-color:#EDDE65"/>
			<stop  offset="0.3516" style="stop-color:#F2CC45"/>
			<stop  offset="0.7727" style="stop-color:#F8BA22"/>
			<stop  offset="1" style="stop-color:#FDB515"/>
		</linearGradient>
		<path fill="url(#SVGID_1_)" d="M6.407,13.45c0.89-1.867,4.962-3.824,6.884-4.589c3.785-1.507,11.997-2.487,16.063-2.754
			c4.411-0.289,13.298,0.026,17.669,0.688c3.288,0.498,9.887,1.933,12.85,3.442c2.045,1.041,6.575,3.345,7.343,5.507
			c0.475,1.337-0.528,4.37-1.377,5.507c-0.877,1.175-3.623,2.64-5.048,2.983c-1.844,0.445-5.774,0.142-7.572-0.459
			c-1.242-0.415-4.698-1.357-5.966-1.683c-2.056-0.528-4.994-0.731-7.114-0.841c-2.765-0.144-8.02-0.83-10.785-0.688
			c-2.517,0.129-7.629,1.093-10.097,1.606c-1.663,0.346-4.97,1.597-6.655,1.377c-1.526-0.199-4.638-1.483-5.507-2.754
			C6.054,19.272,5.614,15.115,6.407,13.45z"/>
	</g>
</g>
<linearGradient id="SVGID_2_" gradientUnits="userSpaceOnUse" x1="10.8785" y1="14.6667" x2="60.5265" y2="14.6667">
	<stop  offset="0" style="stop-color:#1C0300"/>
	<stop  offset="0.5427" style="stop-color:#5B1A20"/>
	<stop  offset="1" style="stop-color:#952136"/>
</linearGradient>
<path fill="url(#SVGID_2_)" d="M12.449,15.274c1.564-1.168,5.143-2.91,7.037-3.382c3.083-0.767,9.521-0.532,12.697-0.507
	c3.83,0.029,11.52,0.212,15.298,0.845c2.745,0.46,8.372,1.531,10.709,3.043c0.718,0.465,2.642,1.755,2.295,2.536
	c-0.171,0.385-1.27,0.082-1.683,0c-2.434-0.482-7.291-1.991-9.714-2.524c-3.861-0.85-11.421-1.455-15.374-1.53
	c-3.522-0.066-10.194,0.077-13.615,0.918c-1.269,0.312-3.97,0.838-5.201,1.276c-0.967,0.344-3.448,1.893-3.977,1.014
	C10.625,16.477,11.993,15.615,12.449,15.274z"/>
<g>
	<path fill="#D0E5F7" d="M14.579,13.047c-1.487,0.456-2.253,2.364-1.885,4.454l5.943-1.823
		C17.77,13.742,16.066,12.591,14.579,13.047z"/>
</g>
<g>
	<path fill="#D0E5F7" d="M21.571,11.355c-1.746,0.236-2.953,2.229-2.927,4.633l6.979-0.944
		C25.011,12.719,23.317,11.119,21.571,11.355z"/>
</g>
<g>
	<path fill="#D0E5F7" d="M28.929,11.02c-1.761-0.065-3.29,1.693-3.674,4.066l7.038,0.259C32.086,12.95,30.69,11.085,28.929,11.02z"
		/>
</g>
<g>
	<path fill="#D0E5F7" d="M34.928,10.587c-1.75-0.207-3.416,1.422-3.99,3.756l6.994,0.827C37.919,12.766,36.678,10.794,34.928,10.587
		z"/>
</g>
<g>
	<path fill="#D0E5F7" d="M42.044,10.545c-1.742-0.264-3.461,1.309-4.111,3.623l6.963,1.056
		C44.961,12.821,43.786,10.809,42.044,10.545z"/>
</g>
<g>
	<path fill="#D0E5F7" d="M49.463,12.006c-1.566-0.296-3.171,1.069-3.834,3.14l6.258,1.183
		C52.025,14.159,51.029,12.302,49.463,12.006z"/>
</g>
<g>
	<path fill="#D0E5F7" d="M56.58,14.052c-1.49-0.481-3.223,0.652-4.125,2.588l5.956,1.924C58.812,16.466,58.07,14.533,56.58,14.052z"
		/>
</g>
<linearGradient id="SVGID_3_" gradientUnits="userSpaceOnUse" x1="10.3206" y1="17.2284" x2="61.0844" y2="17.2284">
	<stop  offset="0" style="stop-color:#EDDE65"/>
	<stop  offset="0.3516" style="stop-color:#F2CC45"/>
	<stop  offset="0.7727" style="stop-color:#F8BA22"/>
	<stop  offset="1" style="stop-color:#FDB515"/>
</linearGradient>
<path fill="url(#SVGID_3_)" d="M11.917,17.285c1.269-1.061,4.547-2.016,6.138-2.467c1.554-0.44,4.764-0.903,6.368-1.09
	c1.599-0.186,4.816-0.405,6.425-0.402c1.926,0.004,5.765,0.388,7.687,0.516c1.506,0.101,4.532,0.173,6.024,0.402
	c1.444,0.222,4.257,1.045,5.679,1.377c1.532,0.357,4.612,0.999,6.138,1.377c0.895,0.222,2.765,0.502,3.557,0.975
	c0.357,0.213,1.218,0.795,1.147,1.205c-0.166,0.967-2.536,1.592-3.499,1.778c-3.674,0.712-11.184-0.98-14.916-1.262
	c-4.314-0.326-12.961-1.558-17.268-1.147c-2.081,0.199-6.002,1.992-8.089,2.123c-1.747,0.109-6.197,0.666-6.941-0.918
	C10.058,19.093,11.358,17.752,11.917,17.285z"/>
</svg>
