<?xml version="1.0" encoding="utf-8"?>
<!-- Generator: Adobe Illustrator 17.0.0, SVG Export Plug-In . SVG Version: 6.00 Build 0)  -->
<!DOCTYPE svg PUBLIC "-//W3C//DTD SVG 1.1//EN" "http://www.w3.org/Graphics/SVG/1.1/DTD/svg11.dtd">
<svg version="1.1" id="Layer_1" xmlns="http://www.w3.org/2000/svg" xmlns:xlink="http://www.w3.org/1999/xlink" x="0px" y="0px"
	 width="43.093px" height="12.496px" viewBox="0 0 43.093 12.496" enable-background="new 0 0 43.093 12.496" xml:space="preserve">
<g>
	<g>
		<linearGradient id="SVGID_1_" gradientUnits="userSpaceOnUse" x1="3.3612" y1="6.3977" x2="39.5503" y2="6.3977">
			<stop  offset="0" style="stop-color:#DFD4C2"/>
			<stop  offset="0.0901" style="stop-color:#D7BEB2"/>
			<stop  offset="0.2101" style="stop-color:#D1A6A2"/>
			<stop  offset="0.3372" style="stop-color:#CD9294"/>
			<stop  offset="0.4716" style="stop-color:#CA838A"/>
			<stop  offset="0.6167" style="stop-color:#C77984"/>
			<stop  offset="0.78" style="stop-color:#C67380"/>
			<stop  offset="1" style="stop-color:#C6717F"/>
		</linearGradient>
		<path fill="url(#SVGID_1_)" d="M1.62,7.49c5.779,4.245,14.248,4.993,21.118,5.006c5.956,0.011,14.779-0.702,19.279-5.351
			c3.364-3.475-1.934-8.783-5.303-5.303c-0.001,0.001-1.177,0.822-2.191,1.235c-3.718,1.517-7.821,1.799-11.785,1.918
			C17.159,5.164,10.101,4.463,5.405,1.014C1.501-1.855-2.234,4.659,1.62,7.49L1.62,7.49z"/>
	</g>
</g>
<path fill="#E2F3FD" d="M41.009,1.088c-1.258-0.885-4.756-0.268-6.483,0.893c-2.158-1.047-7.071-0.489-8.655,1.066
	c-0.102-0.183-0.233-0.361-0.405-0.533c-1.453-1.446-6.366-1.343-8.635-0.086c-1.329-1.727-6.266-2.967-7.922-1.87
	c-0.357,0.236-0.589,0.523-0.722,0.84C6.525,0.225,3.141-0.465,1.891,0.364c-2.099,1.391,0.641,4.725,2.424,5.203
	c1.223,0.328,3.51-0.283,4.462-1.428c0.751,1.122,1.943,2.092,2.895,2.348c1.086,0.291,2.907-0.068,4.171-0.857
	c0.958,1.65,3.631,2.958,5.235,2.855c1.39-0.089,3.438-1.331,4.443-2.804c0.942,1.685,3.77,2.972,5.416,2.809
	c1.32-0.131,3.203-1.33,4.202-2.747c1.065,0.549,2.396,0.797,3.245,0.594C40.22,5.899,43.115,2.569,41.009,1.088z"/>
</svg>
