<?xml version="1.0" encoding="utf-8"?>
<!-- Generator: Adobe Illustrator 17.0.0, SVG Export Plug-In . SVG Version: 6.00 Build 0)  -->
<!DOCTYPE svg PUBLIC "-//W3C//DTD SVG 1.1//EN" "http://www.w3.org/Graphics/SVG/1.1/DTD/svg11.dtd">
<svg version="1.1" id="Layer_1" xmlns="http://www.w3.org/2000/svg" xmlns:xlink="http://www.w3.org/1999/xlink" x="0px" y="0px"
	 width="71.04px" height="27.36px" viewBox="0 0 71.04 27.36" enable-background="new 0 0 71.04 27.36" xml:space="preserve">
<g>
	
		<image overflow="visible" opacity="0.5" width="148" height="57" xlink:href="2063AE300825E3DF.png"  transform="matrix(0.48 0 0 0.48 0 0)">
	</image>
	<g>
		<path fill="#E64B5F" d="M61.202,12.637c-0.762,0.899-8.059,4.658-9.693,5.017c-3.219,0.706-6.214,0.542-9.667,0.646
			c-3.746,0.112-11.29-0.096-14.998-0.444c-2.79-0.262-5.997-0.871-8.507-1.62c-1.732-0.517-3.406-1.288-5.871-2.569
			c-0.677-0.352-3.992-3.687-3.394-4.369c0.882-1.006,2.987,0.829,5.43,1.44c4.728,1.182,15.917,2.173,17.716,2.24
			c2.347,0.087,7.358,0.709,9.707,0.709c13.644,0,18.679-4.112,19.413-3.492C62.217,10.936,61.882,11.836,61.202,12.637z"/>
	</g>
</g>
<g>
	
		<image overflow="visible" opacity="0.5" width="51" height="47" xlink:href="2063AE300825E3DD.png"  transform="matrix(0.48 0 0 0.48 45.7685 0.2917)">
	</image>
	<g>
		<g>
			<path fill="#D0E5F7" d="M58.256,13.357c-1.332,0.271-4.235-1.025-3.309-2.632c0.678-1.177,4.24-1.903,5.324-1.085
				C61.753,10.757,59.589,13.086,58.256,13.357z"/>
		</g>
	</g>
</g>
<g>
	
		<image overflow="visible" opacity="0.5" width="50" height="47" xlink:href="2063AE300825E3E3.png"  transform="matrix(0.48 0 0 0.48 1.5893 -1.5198)">
	</image>
	<g>
		<g>
			<path fill="#D0E5F7" d="M12.79,11.51c-1.272-0.387-3.166-2.853-1.621-3.805c1.131-0.697,4.533,0.337,5.085,1.546
				C17.008,10.901,14.062,11.897,12.79,11.51z"/>
		</g>
	</g>
</g>
<g>
	
		<image overflow="visible" opacity="0.5" width="52" height="48" xlink:href="2063AE300825E3E5.png"  transform="matrix(0.48 0 0 0.48 5.3431 0.7647)">
	</image>
	<g>
		<g>
			<path fill="#D0E5F7" d="M16.85,14.355c-1.449-0.441-3.607-3.25-1.847-4.334c1.289-0.794,5.164,0.384,5.793,1.761
				C21.655,13.662,18.299,14.796,16.85,14.355z"/>
		</g>
	</g>
</g>
<g>
	
		<image overflow="visible" opacity="0.5" width="54" height="49" xlink:href="2063AE300825E3E7.png"  transform="matrix(0.48 0 0 0.48 38.4207 1.8593)">
	</image>
	<g>
		<g>
			<path fill="#D0E5F7" d="M51.456,15.923c-1.713,0.113-5.124-2.002-3.692-3.855c1.049-1.357,5.628-1.66,6.846-0.452
				C56.272,13.264,53.168,15.81,51.456,15.923z"/>
		</g>
	</g>
</g>
<g>
	
		<image overflow="visible" opacity="0.5" width="51" height="47" xlink:href="2063AE300825E3E4.png"  transform="matrix(0.48 0 0 0.48 33.7329 3.1075)">
	</image>
	<g>
		<g>
			<path fill="#D0E5F7" d="M46.221,16.173c-1.332,0.271-4.235-1.025-3.309-2.632c0.678-1.177,4.24-1.903,5.324-1.085
				C49.717,13.573,47.553,15.901,46.221,16.173z"/>
		</g>
	</g>
</g>
<g>
	
		<image overflow="visible" opacity="0.5" width="50" height="47" xlink:href="2063AE300825E3EC.png"  transform="matrix(0.48 0 0 0.48 10.5066 1.7727)">
	</image>
	<g>
		<g>
			<path fill="#D0E5F7" d="M21.707,14.802c-1.272-0.387-3.166-2.853-1.621-3.805c1.131-0.697,4.533,0.337,5.085,1.546
				C25.925,14.194,22.979,15.189,21.707,14.802z"/>
		</g>
	</g>
</g>
<g>
	
		<image overflow="visible" opacity="0.5" width="52" height="48" xlink:href="2063AE300825E3ED.png"  transform="matrix(0.48 0 0 0.48 15.4758 2.0504)">
	</image>
	<g>
		<g>
			<path fill="#D0E5F7" d="M26.982,15.641c-1.449-0.441-3.607-3.25-1.847-4.334c1.289-0.794,5.164,0.384,5.793,1.761
				C31.788,14.948,28.432,16.082,26.982,15.641z"/>
		</g>
	</g>
</g>
<g>
	
		<image overflow="visible" opacity="0.5" width="54" height="49" xlink:href="2063AE300825E3EF.png"  transform="matrix(0.48 0 0 0.48 27.7723 3.4811)">
	</image>
	<g>
		<g>
			<path fill="#D0E5F7" d="M40.807,17.544c-1.713,0.113-5.124-2.002-3.692-3.855c1.049-1.357,5.628-1.66,6.846-0.452
				C45.623,14.886,42.52,17.431,40.807,17.544z"/>
		</g>
	</g>
</g>
<g>
	
		<image overflow="visible" opacity="0.5" width="54" height="49" xlink:href="AE682CF12D79EF4C.png"  transform="matrix(0.48 0 0 0.48 21.3165 2.9218)">
	</image>
	<g>
		<g>
			<path fill="#D0E5F7" d="M34.247,16.978c-1.716,0.053-5.051-2.18-3.555-3.982c1.096-1.32,5.682-1.461,6.857-0.212
				C39.154,14.49,35.963,16.925,34.247,16.978z"/>
		</g>
	</g>
</g>
</svg>
