<?xml version="1.0" encoding="utf-8"?>
<!-- Generator: Adobe Illustrator 17.0.0, SVG Export Plug-In . SVG Version: 6.00 Build 0)  -->
<!DOCTYPE svg PUBLIC "-//W3C//DTD SVG 1.1//EN" "http://www.w3.org/Graphics/SVG/1.1/DTD/svg11.dtd">
<svg version="1.1" id="Layer_1" xmlns="http://www.w3.org/2000/svg" xmlns:xlink="http://www.w3.org/1999/xlink" x="0px" y="0px"
	 width="39.381px" height="12.166px" viewBox="0 0 39.381 12.166" enable-background="new 0 0 39.381 12.166" xml:space="preserve">
<linearGradient id="SVGID_1_" gradientUnits="userSpaceOnUse" x1="8.8632" y1="7.7436" x2="30.2847" y2="7.7436">
	<stop  offset="0" style="stop-color:#1C0300"/>
	<stop  offset="0.5427" style="stop-color:#5B1A20"/>
	<stop  offset="1" style="stop-color:#952136"/>
</linearGradient>
<path fill="url(#SVGID_1_)" d="M9.334,8.453c0.638,0.655,1.347,1.452,2.02,1.747c1.326,0.582,4.202,0.96,5.626,1.063
	c1.545,0.112,4.658-0.01,6.189-0.266c1.152-0.192,3.463-0.746,4.501-1.329c0.716-0.402,2.303-1.291,2.572-2.126
	c0.166-0.516-0.185-1.687-0.482-2.126c-0.307-0.454-1.269-1.019-1.768-1.152c-0.646-0.172-2.022-0.055-2.652,0.177
	c-0.435,0.16-1.639,0.531-2.09,0.65c-2.013,0.529-3.701,0.644-6.269,0.591c-2.992-0.062-5.277-1.237-5.867-1.152
	c-0.535,0.077-1.624,0.573-1.929,1.063C8.819,6.181,8.643,7.744,9.334,8.453z"/>
<linearGradient id="SVGID_2_" gradientUnits="userSpaceOnUse" x1="171.0494" y1="-175.3132" x2="184.2538" y2="-175.3132" gradientTransform="matrix(0.95 0.0503 -0.0656 0.9549 -161.0125 168.1564)">
	<stop  offset="0" style="stop-color:#7FC1C9"/>
	<stop  offset="0.1376" style="stop-color:#77B3C6"/>
	<stop  offset="0.5398" style="stop-color:#6294C0"/>
	<stop  offset="0.8392" style="stop-color:#5681BD"/>
	<stop  offset="1" style="stop-color:#527BBD"/>
</linearGradient>
<path fill="url(#SVGID_2_)" d="M25.509,9.684c-0.456-1.031-4.325-2.036-5.28-1.276c-0.581,0.462-0.739-0.144-1.526-0.144
	c-1.492,0-6.567,0.553-5.633,1.856c0.967,1.349,7.015,1.339,8.312,1.029C22.264,10.938,25.935,10.648,25.509,9.684z"/>
<g>
	<path fill="#D0E5F7" d="M22.708,9.028c0.71-0.261,2.611,0.29,2.382,1.313c-0.167,0.749-2.066,1.446-2.838,1.043
		C21.197,10.833,21.998,9.289,22.708,9.028z"/>
</g>
<g>
	<path fill="#D0E5F7" d="M20.018,9.448c0.892-0.104,2.722,0.938,2.015,1.965c-0.517,0.752-2.903,1.031-3.566,0.417
		C17.561,10.992,19.125,9.552,20.018,9.448z"/>
</g>
<g>
	<path fill="#D0E5F7" d="M17.192,9.246c1.006,0.23,2.416,1.89,1.129,2.601c-0.943,0.521-3.633-0.094-4.022-0.919
		C13.769,9.801,16.186,9.016,17.192,9.246z"/>
</g>
<linearGradient id="SVGID_3_" gradientUnits="userSpaceOnUse" x1="-536.1714" y1="-287.5585" x2="-522.0153" y2="-287.5585" gradientTransform="matrix(0.9865 -0.1638 0.1638 0.9865 576.0513 198.6943)">
	<stop  offset="0" style="stop-color:#7FC1C9"/>
	<stop  offset="0.2323" style="stop-color:#94C5C0"/>
	<stop  offset="0.7309" style="stop-color:#BACFAE"/>
	<stop  offset="1" style="stop-color:#CAD5A8"/>
</linearGradient>
<path fill="url(#SVGID_3_)" d="M13.517,0.553c-0.564-0.273-2.668-0.458-3.509-0.53c-1.06-0.091-3.247,0.105-4.296,0.216
	c-0.237,0.025-0.674,0.123-0.909,0.15c-0.242,0.028-0.991,0.07-0.991,0.07s0.484,0.086,0.653,0.105
	c0.115,0.013,0.352,0.034,0.471,0.032c0.24-0.006,0.925-0.108,0.925-0.108s-0.309,0.158-0.43,0.202
	c-0.177,0.066-0.602,0.16-0.777,0.227c-0.257,0.099-0.727,0.321-0.893,0.45C3.68,1.429,3.652,1.578,3.562,1.639
	C3.418,1.736,3.026,1.916,2.769,1.953C2.584,1.98,2.165,1.96,1.992,1.921C1.793,1.877,1.418,1.628,1.418,1.628
	S1.467,1.844,1.53,1.911c0.056,0.06,0.206,0.181,0.338,0.213c0.201,0.048,0.925,0.021,0.925,0.021s-0.13,0.157-0.232,0.189
	c-0.173,0.053-0.629,0.06-0.843,0.059c-0.254-0.001-0.789-0.02-1-0.081C0.561,2.267,0.307,2.04,0.307,2.04S0.339,2.217,0.397,2.27
	c0.062,0.056,0.26,0.153,0.38,0.189C0.92,2.502,1.259,2.548,1.43,2.564c0.164,0.015,0.669,0.018,0.669,0.018
	S1.915,2.669,1.834,2.686C1.665,2.722,1.277,2.725,1.091,2.739C0.967,2.747,0.719,2.765,0.595,2.773C0.446,2.784,0,2.815,0,2.815
	s0.365,0.142,0.52,0.157c0.196,0.019,0.592-0.054,0.793-0.056c0.302-0.002,0.896,0.069,1.198,0.067
	C2.913,2.981,3.701,2.9,4.098,2.872c0.409-0.029,1.301-0.191,1.691-0.317c0.8-0.258,2.624-0.394,3.387-0.427
	c0.806-0.035,2.019,0.411,2.821,0.361c0.561-0.035,1.889-0.039,2.198-0.24C14.331,2.16,13.975,0.774,13.517,0.553z"/>
<linearGradient id="SVGID_4_" gradientUnits="userSpaceOnUse" x1="820.6374" y1="262.5612" x2="818.4448" y2="269.616" gradientTransform="matrix(0.9754 0.2204 -0.2204 0.9754 -708.5037 -438.0983)">
	<stop  offset="0" style="stop-color:#7FC1C9"/>
	<stop  offset="0.2323" style="stop-color:#94C5C0"/>
	<stop  offset="0.7309" style="stop-color:#BACFAE"/>
	<stop  offset="1" style="stop-color:#CAD5A8"/>
</linearGradient>
<path fill="url(#SVGID_4_)" d="M25.158,2.269c-0.17-0.446,0.1-1.533,0.94-1.813c0.659-0.219,3.031-0.253,3.868-0.253
	c1.354-0.001,2.281,0.485,3.097,0.551c0.333,0.027,1.761-0.023,2.084-0.113c0.185-0.051,0.761-0.31,0.761-0.31
	s-0.135,0.376-0.323,0.529c-0.215,0.176-0.641,0.284-0.641,0.284s0.191,0.033,0.396,0.02c0.34-0.022,0.766-0.105,1.04-0.131
	c0.24-0.022,0.874-0.19,0.874-0.19s-0.048,0.206-0.139,0.26c-0.113,0.067-0.342,0.246-0.531,0.266
	c-0.16,0.017-0.911,0.119-0.911,0.119s0.47,0.178,0.658,0.215c0.25,0.05,0.802,0.099,1.078,0.103
	C37.584,1.808,38.41,1.66,38.41,1.66s-0.326,0.256-0.408,0.289c-0.168,0.067-0.68,0.068-0.911,0.065
	c-0.327-0.004-1.274-0.122-1.274-0.122s0.066,0.17,0.142,0.216c0.086,0.052,0.344,0.129,0.487,0.149
	c0.803,0.109,1.396,0.085,1.604,0.051c0.283-0.047,0.719-0.141,0.96-0.22c0.091-0.03,0.372-0.117,0.372-0.117
	s-0.1,0.187-0.133,0.249c-0.05,0.093-0.092,0.289-0.199,0.373c-0.104,0.082-0.414,0.168-0.612,0.207
	c-0.154,0.031-0.911,0.033-0.911,0.033s0.472,0.167,0.572,0.183c0.165,0.027,0.545,0.023,0.719,0.011
	c0.097-0.007,0.349-0.076,0.349-0.076s-0.03,0.114-0.078,0.145c-0.126,0.082-0.536,0.19-0.743,0.234
	c-0.424,0.089-0.979,0.047-1.451,0.031c-0.359-0.012-3.226-0.703-5.068-0.703c-0.841,0-2.302,0.221-2.644,0.211
	c-1.303-0.038-2.129-0.083-3.293-0.333C25.673,2.492,25.196,2.37,25.158,2.269z"/>
<g>
	<path fill="#D0E5F7" d="M25.009,8.669c0.635-0.45,2.665-0.413,2.71,0.663c0.033,0.788-1.665,1.99-2.538,1.797
		C23.989,10.865,24.374,9.118,25.009,8.669z"/>
</g>
<g>
	<path fill="#D0E5F7" d="M13.599,8.566c0.844,0.217,2.046,1.697,0.982,2.302c-0.78,0.443-3.036-0.138-3.373-0.869
		C10.748,9.002,12.755,8.349,13.599,8.566z"/>
</g>
<g>
	<path fill="#D0E5F7" d="M16.28,7.8c-0.784-0.132-2.053-1.98-1.181-2.521c0.639-0.396,2.736-0.043,3.135,0.528
		C18.779,6.586,17.065,7.932,16.28,7.8z"/>
</g>
<g>
	<path fill="#D0E5F7" d="M19.567,7.846c-0.901,0.088-2.771-1.185-2.067-1.939c0.516-0.552,2.924-0.786,3.599-0.35
		C22.021,6.152,20.467,7.758,19.567,7.846z"/>
</g>
<g>
	<path fill="#D0E5F7" d="M23.53,7.538c-0.896,0.119-2.882-1.347-2.22-2.208c0.485-0.631,2.879-0.948,3.58-0.474
		C25.845,5.503,24.425,7.419,23.53,7.538z"/>
</g>
<g>
	<path fill="#D0E5F7" d="M26.374,6.767c-0.688,0.172-2.43-1.003-2.022-1.737c0.299-0.538,2.137-0.997,2.748-0.687
		C27.934,4.767,27.062,6.595,26.374,6.767z"/>
</g>
<g>
	<path fill="#D0E5F7" d="M13.314,7.049c-0.689-0.116-1.702-1.883-0.936-2.358c0.561-0.348,2.402-0.038,2.752,0.463
		C15.608,5.839,14.003,7.165,13.314,7.049z"/>
</g>
</svg>
