<?xml version="1.0" encoding="utf-8"?>
<!-- Generator: Adobe Illustrator 17.0.0, SVG Export Plug-In . SVG Version: 6.00 Build 0)  -->
<!DOCTYPE svg PUBLIC "-//W3C//DTD SVG 1.1//EN" "http://www.w3.org/Graphics/SVG/1.1/DTD/svg11.dtd">
<svg version="1.1" id="Layer_1" xmlns="http://www.w3.org/2000/svg" xmlns:xlink="http://www.w3.org/1999/xlink" x="0px" y="0px"
	 width="17.938px" height="8.981px" viewBox="0 0 17.938 8.981" enable-background="new 0 0 17.938 8.981" xml:space="preserve">
<path fill="#787878" d="M11.055,8.866C9.236,9.128,4.058,9.252,1.208,5.607C0.261,4.396-0.727,2.325,0.766,0.628
	c1.026-1.165,2.555-0.405,3.087-0.131C4.22,0.687,6.77,2.788,8.96,2.692c2.789-0.123,4.365-2.198,6.442-2.004
	c0.454,0.042,1.272,0.309,2.084,1.31C19.367,4.316,15.024,8.293,11.055,8.866z"/>
<path fill="#3A3A3A" d="M14.866,4.748c-0.949,0.643-3.428,1.693-5.174,1.759C5.959,6.649,3.265,5.167,2.528,4.521
	C2.214,4.246,1.487,3.646,1.382,2.906C1.254,1.997,2.442,2.801,2.9,3.104c0.624,0.412,2.675,2.032,6.775,1.932
	c3.326-0.081,5.792-2.237,6.143-1.681C16.056,3.731,15.509,4.313,14.866,4.748z"/>
<path fill="#AFADAD" d="M16.913,3.462c0.157,0.081,0.172-0.517-0.016-0.821c-0.113-0.182-0.434-0.561-0.562-0.504
	c-0.112,0.05,0.108,0.486,0.188,0.67C16.602,2.989,16.713,3.359,16.913,3.462z"/>
<path fill="#AFADAD" d="M1.632,4.502C1.488,4.553,1.879,5.314,2.19,5.51c0.187,0.118,0.624,0.278,0.659,0.084
	C2.88,5.424,2.463,5.092,2.293,4.94C2.126,4.79,1.816,4.437,1.632,4.502z"/>
</svg>
