<?xml version="1.0" encoding="utf-8"?>
<!-- Generator: Adobe Illustrator 17.0.0, SVG Export Plug-In . SVG Version: 6.00 Build 0)  -->
<!DOCTYPE svg PUBLIC "-//W3C//DTD SVG 1.1//EN" "http://www.w3.org/Graphics/SVG/1.1/DTD/svg11.dtd">
<svg version="1.1" id="Layer_1" xmlns="http://www.w3.org/2000/svg" xmlns:xlink="http://www.w3.org/1999/xlink" x="0px" y="0px"
	 width="43.2px" height="43.2px" viewBox="0 0 43.2 43.2" enable-background="new 0 0 43.2 43.2" xml:space="preserve">
<g>
	
		<image overflow="visible" opacity="0.5" width="90" height="90" xlink:href="61CB70F40BF8EB75.png"  transform="matrix(0.48 0 0 0.48 0 0)">
	</image>
	<g>
		<linearGradient id="SVGID_1_" gradientUnits="userSpaceOnUse" x1="15" y1="21.5839" x2="27.9318" y2="21.5839">
			<stop  offset="0" style="stop-color:#FCDFEB"/>
			<stop  offset="0.3167" style="stop-color:#F9C9DE"/>
			<stop  offset="0.7604" style="stop-color:#F6AECD"/>
			<stop  offset="1" style="stop-color:#F5A4C7"/>
		</linearGradient>
		<path fill="url(#SVGID_1_)" d="M27.405,19.096c-1.41-3.366-5.211-4.98-8.491-3.606c-3.28,1.374-4.796,5.216-3.386,8.582
			c1.41,3.366,5.212,4.98,8.492,3.606C27.298,26.304,28.815,22.462,27.405,19.096z M22.783,24.728
			c-1.693,0.709-3.654-0.124-4.382-1.861c-0.727-1.737,0.055-3.719,1.747-4.428c1.692-0.709,3.654,0.124,4.382,1.861
			S24.476,24.02,22.783,24.728z"/>
	</g>
</g>
</svg>
