<?xml version="1.0" encoding="utf-8"?>
<!-- Generator: Adobe Illustrator 17.0.0, SVG Export Plug-In . SVG Version: 6.00 Build 0)  -->
<!DOCTYPE svg PUBLIC "-//W3C//DTD SVG 1.1//EN" "http://www.w3.org/Graphics/SVG/1.1/DTD/svg11.dtd">
<svg version="1.1" id="Layer_1" xmlns="http://www.w3.org/2000/svg" xmlns:xlink="http://www.w3.org/1999/xlink" x="0px" y="0px"
	 width="34.187px" height="22.263px" viewBox="0 0 34.187 22.263" enable-background="new 0 0 34.187 22.263" xml:space="preserve">
<linearGradient id="SVGID_1_" gradientUnits="userSpaceOnUse" x1="0" y1="10.5529" x2="34.187" y2="10.5529">
	<stop  offset="0" style="stop-color:#1C0300"/>
	<stop  offset="0.5427" style="stop-color:#5B1A20"/>
	<stop  offset="1" style="stop-color:#952136"/>
</linearGradient>
<path fill="url(#SVGID_1_)" d="M0.751,12.655c1.019,1.942,2.15,4.302,3.224,5.178c2.116,1.724,6.706,2.846,8.979,3.15
	c2.466,0.331,7.434-0.03,9.877-0.788c1.838-0.57,5.526-2.211,7.183-3.938c1.143-1.192,3.675-3.827,4.105-6.301
	c0.265-1.53-0.295-4.999-0.77-6.301c-0.49-1.344-2.025-3.02-2.822-3.413C29.497-0.266,27.3,0.08,26.294,0.768
	c-0.694,0.475-2.615,1.574-3.335,1.925c-3.212,1.566-5.906,1.908-10.005,1.75C8.18,4.259,4.532,0.779,3.591,1.03
	c-0.853,0.228-2.592,1.697-3.078,3.15C-0.07,5.921-0.351,10.553,0.751,12.655z"/>
<linearGradient id="SVGID_2_" gradientUnits="userSpaceOnUse" x1="6.8324" y1="14.0645" x2="25.7822" y2="14.0645">
	<stop  offset="0" style="stop-color:#7FC1C9"/>
	<stop  offset="0.1376" style="stop-color:#77B3C6"/>
	<stop  offset="0.5398" style="stop-color:#6294C0"/>
	<stop  offset="0.8392" style="stop-color:#5681BD"/>
	<stop  offset="1" style="stop-color:#527BBD"/>
</linearGradient>
<path fill="url(#SVGID_2_)" d="M25.62,13.17c-1.134-2.157-7.649-5.072-9.593-3.336c-1.183,1.056-1.272,0.696-2.807-0.048
	c-2.563-1.241-8.083,4.639-5.879,7.325c2.282,2.781,10.306,1.531,13.052,0.72C22.26,17.277,26.68,15.186,25.62,13.17z"/>
<g>
	<path fill="#D0E5F7" d="M23.125,14.285c1.791-1.217,6.852-1.095,6.478,1.835c-0.274,2.146-5.062,5.399-7.158,4.863
		C19.584,20.252,21.334,15.502,23.125,14.285z"/>
</g>
<g>
	<path fill="#D0E5F7" d="M16.922,15.002c2.438-0.273,7.445,2.525,5.522,5.264c-1.409,2.006-7.927,2.735-9.744,1.09
		C10.219,19.11,14.484,15.275,16.922,15.002z"/>
</g>
<g>
	<path fill="#D0E5F7" d="M9.5,13.723c2.34,0.737,5.786,5.322,2.919,7.048c-2.1,1.264-8.355-0.707-9.351-2.947
		C1.708,14.766,7.16,12.985,9.5,13.723z"/>
</g>
</svg>
