<?xml version="1.0" encoding="utf-8"?>
<!-- Generator: Adobe Illustrator 17.0.0, SVG Export Plug-In . SVG Version: 6.00 Build 0)  -->
<!DOCTYPE svg PUBLIC "-//W3C//DTD SVG 1.1//EN" "http://www.w3.org/Graphics/SVG/1.1/DTD/svg11.dtd">
<svg version="1.1" id="Layer_1" xmlns="http://www.w3.org/2000/svg" xmlns:xlink="http://www.w3.org/1999/xlink" x="0px" y="0px"
	 width="25.491px" height="11.338px" viewBox="0 0 25.491 11.338" enable-background="new 0 0 25.491 11.338" xml:space="preserve">
<linearGradient id="SVGID_1_" gradientUnits="userSpaceOnUse" x1="27.6083" y1="638.0114" x2="53.083" y2="638.0114" gradientTransform="matrix(0.9817 -0.1906 0.1906 0.9817 -148.2206 -613.1572)">
	<stop  offset="0" style="stop-color:#001E1E"/>
	<stop  offset="0.0297" style="stop-color:#001F1F"/>
	<stop  offset="0.3777" style="stop-color:#002B2E"/>
	<stop  offset="0.708" style="stop-color:#003237"/>
	<stop  offset="1" style="stop-color:#00343A"/>
</linearGradient>
<path fill="url(#SVGID_1_)" d="M23.444,7.467c-1.3,1.182-4.462,2.317-6.036,2.77c-1.708,0.491-5.245,0.963-7.04,0.902
	c-1.35-0.046-4.106-0.388-5.436-1.041C4.014,9.647-1.117,7.363,0.221,3.765c1.007-2.709,5.103-2.184,5.877-1.969
	c0.534,0.148,1.998,0.438,2.533,0.532c0.867,0.154,2.047,0.055,2.895-0.038c1.105-0.12,7.121-1.854,8.133-2.065
	C26.503-1.203,26.705,4.502,23.444,7.467z"/>
<g>
	<path fill="#D0E5F7" d="M9.868,6.107C8.763,5.992,6.705,3.068,7.82,2.042c0.817-0.751,4.261-0.901,4.907,0.002
		C13.608,3.276,10.973,6.221,9.868,6.107z"/>
</g>
<g>
	<path fill="#D0E5F7" d="M16.706,5.371c-1.217,0.321-4.75-1.794-3.979-3.328c0.565-1.124,4.367-2.053,5.413-1.354
		C19.567,1.644,17.923,5.05,16.706,5.371z"/>
</g>
<path fill="#C78593" d="M23.195,7.866c-1.341,1.089-4.24,2.172-5.816,2.615c-1.71,0.48-5.388,0.89-7.178,0.855
	c-1.346-0.026-4.397-0.272-5.114-0.904c-0.861-0.76,2.795-1.723,3.898-2.186c1.846-0.775,5.792-1.67,7.762-2.059
	C18.951,5.751,23.876,7.312,23.195,7.866z"/>
</svg>
