<?xml version="1.0" encoding="utf-8"?>
<!-- Generator: Adobe Illustrator 17.0.0, SVG Export Plug-In . SVG Version: 6.00 Build 0)  -->
<!DOCTYPE svg PUBLIC "-//W3C//DTD SVG 1.1//EN" "http://www.w3.org/Graphics/SVG/1.1/DTD/svg11.dtd">
<svg version="1.1" id="Layer_1" xmlns="http://www.w3.org/2000/svg" xmlns:xlink="http://www.w3.org/1999/xlink" x="0px" y="0px"
	 width="81.6px" height="33.12px" viewBox="0 0 81.6 33.12" enable-background="new 0 0 81.6 33.12" xml:space="preserve">
<path fill="#282828" d="M6.461,15.007c1.009-2.118,5.629-4.338,7.809-5.206c4.294-1.71,13.61-2.822,18.222-3.124
	c5.004-0.328,15.086,0.03,20.044,0.781c3.73,0.565,11.215,2.192,14.577,3.905c2.32,1.181,7.459,3.794,8.33,6.247
	c0.539,1.517-0.599,4.957-1.562,6.247c-0.994,1.333-4.11,2.994-5.727,3.384c-2.092,0.504-6.55,0.162-8.59-0.521
	c-1.409-0.471-5.329-1.539-6.768-1.909c-2.332-0.599-5.665-0.83-8.07-0.954c-3.136-0.163-9.098-0.942-12.235-0.781
	c-2.855,0.147-8.655,1.24-11.454,1.822c-1.887,0.393-5.638,1.811-7.549,1.562c-1.732-0.226-5.261-1.683-6.247-3.124
	C6.061,21.611,5.562,16.895,6.461,15.007z"/>
<path fill="#D0E5F7" d="M57.661,18.866c-0.171,0.16-0.453,0.136-0.629-0.053l-0.873-0.936c-0.176-0.189-0.181-0.472-0.01-0.631
	l0.912-0.851c0.171-0.16,0.453-0.136,0.629,0.053l0.873,0.936c0.176,0.189,0.181,0.472,0.01,0.631L57.661,18.866z"/>
<path fill="#E7F1F6" d="M67.693,20.726c0.147,0.182,0.104,0.461-0.097,0.624l-0.994,0.806c-0.201,0.163-0.483,0.148-0.63-0.034
	l-0.786-0.969c-0.147-0.182-0.104-0.461,0.097-0.624l0.994-0.806c0.201-0.163,0.483-0.148,0.63,0.034L67.693,20.726z"/>
<path fill="#D2D1DD" d="M63.783,16.258c0.134,0.165,0.095,0.42-0.088,0.568L62.79,17.56c-0.183,0.148-0.44,0.134-0.574-0.031
	l-0.716-0.882c-0.134-0.165-0.095-0.42,0.088-0.568l0.905-0.734c0.183-0.148,0.44-0.134,0.574,0.031L63.783,16.258z"/>
<path fill="#D2D1DD" d="M16.337,15.228c0.143,0.176,0.101,0.447-0.094,0.604l-0.963,0.781c-0.195,0.158-0.468,0.143-0.611-0.033
	l-0.762-0.939c-0.143-0.176-0.101-0.447,0.094-0.604l0.963-0.781c0.195-0.158,0.468-0.143,0.611,0.033L16.337,15.228z"/>
<g>
	
		<image overflow="visible" opacity="0.3" width="170" height="69" xlink:href="511EF22741CA2F58.png"  transform="matrix(0.48 0 0 0.48 0 0)">
	</image>
	<g>
		<linearGradient id="SVGID_1_" gradientUnits="userSpaceOnUse" x1="6" y1="16.4636" x2="75.5822" y2="16.4636">
			<stop  offset="0" style="stop-color:#EDDE65"/>
			<stop  offset="0.3516" style="stop-color:#F2CC45"/>
			<stop  offset="0.7727" style="stop-color:#F8BA22"/>
			<stop  offset="1" style="stop-color:#FDB515"/>
		</linearGradient>
		<path fill="url(#SVGID_1_)" d="M6.461,14.452c1.009-2.118,5.629-4.338,7.809-5.206c4.294-1.71,13.61-2.822,18.222-3.124
			c5.004-0.328,15.086,0.03,20.044,0.781c3.73,0.565,11.215,2.192,14.577,3.905c2.32,1.181,7.459,3.794,8.33,6.247
			c0.539,1.517-0.599,4.957-1.562,6.247c-0.994,1.333-4.11,2.994-5.727,3.384c-2.092,0.504-6.55,0.162-8.59-0.521
			c-1.409-0.471-5.329-1.539-6.768-1.909c-2.332-0.599-5.665-0.83-8.07-0.954c-3.136-0.163-9.098-0.942-12.235-0.781
			c-2.855,0.147-8.655,1.24-11.454,1.822c-1.887,0.393-5.638,1.811-7.549,1.562c-1.732-0.226-5.261-1.683-6.247-3.124
			C6.061,21.056,5.562,16.34,6.461,14.452z"/>
	</g>
</g>
<linearGradient id="SVGID_2_" gradientUnits="userSpaceOnUse" x1="11.5342" y1="15.8314" x2="67.8547" y2="15.8314">
	<stop  offset="0" style="stop-color:#1C0300"/>
	<stop  offset="0.5427" style="stop-color:#5B1A20"/>
	<stop  offset="1" style="stop-color:#952136"/>
</linearGradient>
<path fill="url(#SVGID_2_)" d="M13.316,16.521c1.774-1.325,5.834-3.301,7.983-3.836c3.497-0.87,10.8-0.603,14.404-0.575
	c4.345,0.033,13.069,0.241,17.354,0.959c3.114,0.522,9.497,1.737,12.148,3.453c0.814,0.527,2.997,1.991,2.603,2.877
	c-0.194,0.436-1.441,0.093-1.909,0c-2.761-0.547-8.271-2.258-11.02-2.863c-4.38-0.964-12.956-1.651-17.441-1.735
	c-3.995-0.075-11.565,0.087-15.445,1.041c-1.44,0.354-4.504,0.951-5.9,1.448c-1.097,0.39-3.911,2.148-4.512,1.151
	C11.247,17.885,12.798,16.908,13.316,16.521z"/>
<g>
	<path fill="#D0E5F7" d="M15.732,13.994c-1.687,0.517-2.555,2.682-2.138,5.052l6.741-2.068
		C19.352,14.782,17.419,13.476,15.732,13.994z"/>
</g>
<g>
	<path fill="#D0E5F7" d="M23.664,12.075c-1.981,0.268-3.35,2.529-3.32,5.255l7.917-1.071C27.566,13.622,25.645,11.807,23.664,12.075
		z"/>
</g>
<g>
	<path fill="#D0E5F7" d="M32.011,11.695c-1.998-0.074-3.732,1.92-4.167,4.612l7.984,0.294
		C35.592,13.885,34.008,11.768,32.011,11.695z"/>
</g>
<g>
	<path fill="#D0E5F7" d="M38.816,11.204c-1.985-0.235-3.875,1.613-4.526,4.261l7.934,0.938
		C42.208,13.676,40.801,11.439,38.816,11.204z"/>
</g>
<g>
	<path fill="#D0E5F7" d="M46.888,11.156c-1.976-0.3-3.926,1.484-4.664,4.11l7.899,1.198C50.197,13.738,48.864,11.455,46.888,11.156z
		"/>
</g>
<g>
	<path fill="#D0E5F7" d="M55.304,12.813c-1.776-0.336-3.597,1.213-4.35,3.561l7.1,1.342C58.21,15.255,57.08,13.149,55.304,12.813z"
		/>
</g>
<g>
	<path fill="#D0E5F7" d="M63.378,15.134c-1.69-0.546-3.656,0.739-4.679,2.936l6.756,2.183C65.91,17.873,65.068,15.68,63.378,15.134z
		"/>
</g>
<linearGradient id="SVGID_3_" gradientUnits="userSpaceOnUse" x1="10.9012" y1="18.7375" x2="68.4877" y2="18.7375">
	<stop  offset="0" style="stop-color:#EDDE65"/>
	<stop  offset="0.3516" style="stop-color:#F2CC45"/>
	<stop  offset="0.7727" style="stop-color:#F8BA22"/>
	<stop  offset="1" style="stop-color:#FDB515"/>
</linearGradient>
<path fill="url(#SVGID_3_)" d="M12.712,18.802c1.44-1.203,5.158-2.287,6.963-2.798c1.763-0.499,5.404-1.024,7.224-1.236
	c1.813-0.211,5.463-0.46,7.289-0.456c2.185,0.005,6.54,0.44,8.72,0.586c1.708,0.114,5.141,0.196,6.833,0.456
	c1.638,0.251,4.829,1.185,6.443,1.562c1.737,0.405,5.231,1.133,6.963,1.562c1.015,0.251,3.137,0.57,4.035,1.106
	c0.405,0.242,1.381,0.902,1.302,1.367c-0.188,1.097-2.877,1.806-3.97,2.017c-4.168,0.807-12.687-1.112-16.92-1.432
	c-4.894-0.37-14.703-1.768-19.588-1.302c-2.361,0.225-6.809,2.26-9.176,2.408c-1.982,0.124-7.03,0.756-7.874-1.041
	C10.603,20.853,12.078,19.332,12.712,18.802z"/>
</svg>
