<?xml version="1.0" encoding="utf-8"?>
<!-- Generator: Adobe Illustrator 17.0.0, SVG Export Plug-In . SVG Version: 6.00 Build 0)  -->
<!DOCTYPE svg PUBLIC "-//W3C//DTD SVG 1.1//EN" "http://www.w3.org/Graphics/SVG/1.1/DTD/svg11.dtd">
<svg version="1.1" id="Layer_1" xmlns="http://www.w3.org/2000/svg" xmlns:xlink="http://www.w3.org/1999/xlink" x="0px" y="0px"
	 width="46.56px" height="27.36px" viewBox="0 0 46.56 27.36" enable-background="new 0 0 46.56 27.36" xml:space="preserve">
<g>
	
		<image overflow="visible" opacity="0.3" width="97" height="57" xlink:href="12E90C3CD7D873DF.png"  transform="matrix(0.48 0 0 0.48 0 0)">
	</image>
	<g>
		<path fill="#121212" d="M40.03,15.211c-0.509,1.524-2.796,3.107-3.875,3.725c-2.124,1.217-6.719,1.985-8.993,2.186
			c-2.467,0.218-7.431-0.077-9.869-0.636c-1.835-0.421-5.513-1.622-7.16-2.869c-1.136-0.86-3.654-2.763-4.07-4.535
			C5.806,11.986,6.385,9.51,6.866,8.583c0.497-0.957,2.041-2.144,2.839-2.419c1.033-0.356,3.227-0.093,4.229,0.407
			c0.691,0.345,2.617,1.129,3.324,1.401c1.146,0.44,2.786,0.619,3.97,0.718c1.544,0.129,4.477,0.712,6.023,0.608
			c1.407-0.095,4.27-0.862,5.652-1.272c0.932-0.276,3.078-0.146,4.018,0.041c0.852,0.169,2.292,0.093,2.77,1.135
			C40.263,10.45,40.483,13.853,40.03,15.211z"/>
	</g>
</g>
<g>
	
		<image overflow="visible" opacity="0.3" width="40" height="35" xlink:href="12E90C3CD7D873DD.png"  transform="matrix(0.48 0 0 0.48 8.2173 1.364)">
	</image>
	<g>
		<g>
			<path fill="#D0E5F7" d="M16.778,12.054c-1.481-0.45-3.685-3.321-1.887-4.428c1.317-0.811,5.276,0.393,5.919,1.799
				C21.688,11.346,18.259,12.505,16.778,12.054z"/>
		</g>
	</g>
</g>
<g>
	
		<image overflow="visible" opacity="0.3" width="42" height="36" xlink:href="12E90C3CD7D873E3.png"  transform="matrix(0.48 0 0 0.48 20.7812 1.1688)">
	</image>
	<g>
		<g>
			<path fill="#D0E5F7" d="M30.904,12.342c-1.75,0.116-5.235-2.045-3.773-3.939c1.071-1.387,5.75-1.696,6.994-0.462
				C35.825,9.626,32.654,12.227,30.904,12.342z"/>
		</g>
	</g>
</g>
<g>
	
		<image overflow="visible" opacity="0.3" width="38" height="34" xlink:href="12E90C3CD7D873E5.png"  transform="matrix(0.48 0 0 0.48 26.8713 0.7871)">
	</image>
	<g>
		<g>
			<path fill="#D0E5F7" d="M36.435,10.941c-1.361,0.277-4.327-1.047-3.381-2.689c0.693-1.203,4.332-1.944,5.44-1.108
				C40.007,8.284,37.796,10.663,36.435,10.941z"/>
		</g>
	</g>
</g>
<g>
	
		<image overflow="visible" opacity="0.3" width="38" height="34" xlink:href="12E90C3CD7D873E7.png"  transform="matrix(0.48 0 0 0.48 3.1401 -0.5767)">
	</image>
	<g>
		<g>
			<path fill="#D0E5F7" d="M11.388,9.541c-1.3-0.395-3.235-2.915-1.656-3.887c1.156-0.712,4.632,0.345,5.196,1.58
				C15.698,8.919,12.688,9.936,11.388,9.541z"/>
		</g>
	</g>
</g>
<path fill="#C78593" d="M36.086,19.121c-2.124,1.217-6.719,1.985-8.993,2.186c-2.467,0.218-7.431-0.077-9.869-0.636
	c-1.835-0.421-6.348-1.737-7.16-2.869c-0.976-1.359,4.612-2.041,6.245-2.406c2.731-0.612,8.367-0.805,11.166-0.815
	C30.603,14.568,37.164,18.503,36.086,19.121z"/>
<g>
	
		<image overflow="visible" opacity="0.3" width="42" height="36" xlink:href="12E90C3CD7D873E4.png"  transform="matrix(0.48 0 0 0.48 13.2838 2.1008)">
	</image>
	<g>
		<g>
			<path fill="#D0E5F7" d="M23.3,13.267c-1.753,0.054-5.16-2.228-3.632-4.069c1.119-1.348,5.806-1.493,7.006-0.216
				C28.313,10.725,25.053,13.212,23.3,13.267z"/>
		</g>
	</g>
</g>
</svg>
