<?xml version="1.0" encoding="utf-8"?>
<!-- Generator: Adobe Illustrator 17.0.0, SVG Export Plug-In . SVG Version: 6.00 Build 0)  -->
<!DOCTYPE svg PUBLIC "-//W3C//DTD SVG 1.1//EN" "http://www.w3.org/Graphics/SVG/1.1/DTD/svg11.dtd">
<svg version="1.1" id="Layer_1" xmlns="http://www.w3.org/2000/svg" xmlns:xlink="http://www.w3.org/1999/xlink" x="0px" y="0px"
	 width="46.08px" height="33.12px" viewBox="0 0 46.08 33.12" enable-background="new 0 0 46.08 33.12" xml:space="preserve">
<g>
	
		<image overflow="visible" opacity="0.4" width="96" height="69" xlink:href="CFBF3A76753C945C.png"  transform="matrix(0.48 0 0 0.48 0 0)">
	</image>
	<g>
		<linearGradient id="SVGID_1_" gradientUnits="userSpaceOnUse" x1="6" y1="16.332" x2="39.8684" y2="16.332">
			<stop  offset="0" style="stop-color:#1C0300"/>
			<stop  offset="0.5427" style="stop-color:#5B1A20"/>
			<stop  offset="1" style="stop-color:#952136"/>
		</linearGradient>
		<path fill="url(#SVGID_1_)" d="M6.744,18.39c1.009,1.902,2.13,4.212,3.194,5.069c2.096,1.688,6.644,2.786,8.895,3.084
			c2.443,0.324,7.364-0.03,9.785-0.771c1.821-0.558,5.475-2.165,7.116-3.856c1.132-1.167,3.641-3.747,4.066-6.169
			c0.263-1.498-0.292-4.895-0.762-6.169c-0.485-1.316-2.006-2.957-2.796-3.341c-1.021-0.498-3.197-0.16-4.193,0.514
			c-0.688,0.465-2.591,1.541-3.304,1.885c-3.182,1.533-5.851,1.868-9.912,1.714c-4.73-0.18-8.343-3.588-9.276-3.341
			c-0.845,0.223-2.568,1.662-3.05,3.084C5.931,11.797,5.652,16.332,6.744,18.39z"/>
	</g>
</g>
<g>
	
		<image overflow="visible" opacity="0.4" width="65" height="45" xlink:href="CFBF3A76753C945D.png"  transform="matrix(0.48 0 0 0.48 6.7687 9.11)">
	</image>
	<g>
		<linearGradient id="SVGID_2_" gradientUnits="userSpaceOnUse" x1="12.7687" y1="19.7701" x2="31.5419" y2="19.7701">
			<stop  offset="0" style="stop-color:#7FC1C9"/>
			<stop  offset="0.1376" style="stop-color:#77B3C6"/>
			<stop  offset="0.5398" style="stop-color:#6294C0"/>
			<stop  offset="0.8392" style="stop-color:#5681BD"/>
			<stop  offset="1" style="stop-color:#527BBD"/>
		</linearGradient>
		<path fill="url(#SVGID_2_)" d="M31.382,18.894c-1.123-2.112-7.578-4.966-9.504-3.266c-1.172,1.034-1.26,0.681-2.781-0.047
			c-2.539-1.215-8.008,4.542-5.824,7.171c2.261,2.723,10.21,1.499,12.93,0.705C28.053,22.916,32.431,20.868,31.382,18.894z"/>
	</g>
</g>
<g>
	
		<image overflow="visible" opacity="0.4" width="43" height="41" xlink:href="CFBF3A76753C945B.png"  transform="matrix(0.48 0 0 0.48 20.7349 13.2747)">
	</image>
	<g>
		<g>
			<path fill="#D0E5F7" d="M28.909,19.986c1.774-1.191,6.788-1.072,6.417,1.797c-0.271,2.101-5.014,5.286-7.091,4.761
				C25.401,25.828,27.135,21.177,28.909,19.986z"/>
		</g>
	</g>
</g>
<g>
	
		<image overflow="visible" opacity="0.4" width="48" height="40" xlink:href="CFBF3A76753C9464.png"  transform="matrix(0.48 0 0 0.48 11.8382 14.67)">
	</image>
	<g>
		<g>
			<path fill="#D0E5F7" d="M22.764,20.688c2.415-0.267,7.376,2.472,5.47,5.153c-1.396,1.964-7.853,2.678-9.653,1.067
				C16.123,24.71,20.349,20.955,22.764,20.688z"/>
		</g>
	</g>
</g>
<g>
	
		<image overflow="visible" opacity="0.4" width="47" height="41" xlink:href="CFBF3A76753C9467.png"  transform="matrix(0.48 0 0 0.48 2.8265 13.2726)">
	</image>
	<g>
		<g>
			<path fill="#D0E5F7" d="M15.412,19.435c2.318,0.722,5.732,5.211,2.892,6.9c-2.081,1.237-8.277-0.693-9.264-2.885
				C7.692,20.457,13.094,18.713,15.412,19.435z"/>
		</g>
	</g>
</g>
</svg>
