<?xml version="1.0" encoding="utf-8"?>
<!-- Generator: Adobe Illustrator 17.0.0, SVG Export Plug-In . SVG Version: 6.00 Build 0)  -->
<!DOCTYPE svg PUBLIC "-//W3C//DTD SVG 1.1//EN" "http://www.w3.org/Graphics/SVG/1.1/DTD/svg11.dtd">
<svg version="1.1" id="Layer_1" xmlns="http://www.w3.org/2000/svg" xmlns:xlink="http://www.w3.org/1999/xlink" x="0px" y="0px"
	 width="22.887px" height="15.36px" viewBox="0 0 22.887 15.36" enable-background="new 0 0 22.887 15.36" xml:space="preserve">
<g>
	
		<image overflow="visible" opacity="0.2" width="36" height="32" xlink:href="93A0A3B7E3A087BC.png"  transform="matrix(0.48 0 0 0.48 0 0)">
	</image>
	<g>
		<linearGradient id="SVGID_1_" gradientUnits="userSpaceOnUse" x1="6.5" y1="7.5282" x2="10.4769" y2="7.5282">
			<stop  offset="0" style="stop-color:#4688BD"/>
			<stop  offset="0.0088" style="stop-color:#4486BC"/>
			<stop  offset="0.0488" style="stop-color:#3E7BB8"/>
			<stop  offset="0.094" style="stop-color:#3874B6"/>
			<stop  offset="0.1468" style="stop-color:#356FB4"/>
			<stop  offset="0.2141" style="stop-color:#326CB4"/>
			<stop  offset="0.3454" style="stop-color:#326CB5"/>
			<stop  offset="0.808" style="stop-color:#4D97D2"/>
		</linearGradient>
		<path fill="url(#SVGID_1_)" d="M6.745,7.3c-0.396,0.431-0.239,0.888-0.04,1.087c0.298,0.298,1.289,0.142,1.687,0
			C9.019,8.163,10.696,7.32,10.453,6.7C10.282,6.264,7.411,6.576,6.745,7.3z"/>
		<path fill="none" stroke="#ED9377" stroke-miterlimit="10" d="M6.745,7.3c-0.396,0.431-0.239,0.888-0.04,1.087
			c0.298,0.298,1.289,0.142,1.687,0C9.019,8.163,10.696,7.32,10.453,6.7C10.282,6.264,7.411,6.576,6.745,7.3z"/>
	</g>
</g>
<g>
	
		<image overflow="visible" opacity="0.2" width="33" height="31" xlink:href="93A0A3B7E3A087BD.png"  transform="matrix(0.48 0 0 0.48 7.0466 0.2388)">
	</image>
	<g>
		
			<linearGradient id="SVGID_2_" gradientUnits="userSpaceOnUse" x1="-1063.627" y1="-1565.4104" x2="-1059.6501" y2="-1565.4104" gradientTransform="matrix(-0.3172 -0.5142 0.8511 -0.525 1010.4839 -1360.2446)">
			<stop  offset="0" style="stop-color:#4688BD"/>
			<stop  offset="0.0088" style="stop-color:#4486BC"/>
			<stop  offset="0.0488" style="stop-color:#3E7BB8"/>
			<stop  offset="0.094" style="stop-color:#3874B6"/>
			<stop  offset="0.1468" style="stop-color:#356FB4"/>
			<stop  offset="0.2141" style="stop-color:#326CB4"/>
			<stop  offset="0.3454" style="stop-color:#326CB5"/>
			<stop  offset="0.808" style="stop-color:#4D97D2"/>
		</linearGradient>
		<path fill="url(#SVGID_2_)" d="M15.286,8.531c0.492-0.023,0.831-0.343,0.938-0.55c0.159-0.31-0.288-0.737-0.535-0.867
			C15.299,6.909,14.05,6.489,13.6,6.939C13.282,7.256,14.459,8.569,15.286,8.531z"/>
		<path fill="none" stroke="#ED9377" stroke-miterlimit="10" d="M15.286,8.531c0.492-0.023,0.831-0.343,0.938-0.55
			c0.159-0.31-0.288-0.737-0.535-0.867C15.299,6.909,14.05,6.489,13.6,6.939C13.282,7.256,14.459,8.569,15.286,8.531z"/>
	</g>
</g>
</svg>
