<?xml version="1.0" encoding="utf-8"?>
<!-- Generator: Adobe Illustrator 17.0.0, SVG Export Plug-In . SVG Version: 6.00 Build 0)  -->
<!DOCTYPE svg PUBLIC "-//W3C//DTD SVG 1.1//EN" "http://www.w3.org/Graphics/SVG/1.1/DTD/svg11.dtd">
<svg version="1.1" id="Layer_1" xmlns="http://www.w3.org/2000/svg" xmlns:xlink="http://www.w3.org/1999/xlink" x="0px" y="0px"
	 width="47.04px" height="43.68px" viewBox="0 0 47.04 43.68" enable-background="new 0 0 47.04 43.68" xml:space="preserve">
<g>
	
		<image overflow="visible" opacity="0.3" width="98" height="91" xlink:href="2D9CA10BB28F2B29.png"  transform="matrix(0.48 0 0 0.48 0 0)">
	</image>
	<g>
		
			<image overflow="visible" opacity="0.25" width="85" height="79" xlink:href="2D9CA10BB28F2B2B.png"  transform="matrix(0.48 0 0 0.48 2.64 2.16)">
		</image>
		<g>
			<path fill="#171517" d="M18.227,17.278c-0.997,0.824-0.636,3.325,0.418,5.155c2.167,3.762,7.199,2.647,8.979-0.138
				c0.684-1.07,0.947-4.212-0.015-5.017c-0.178-0.149-0.767-0.167-0.929,0c-0.716,0.738-0.006,1.968-1.183,4.034
				c-0.668,1.174-2.59,2.184-4.402,0.727c-1.952-1.569-1.306-3.651-2.079-4.761C18.904,17.116,18.379,17.153,18.227,17.278z"/>
		</g>
	</g>
</g>
</svg>
