<?xml version="1.0" encoding="utf-8"?>
<!-- Generator: Adobe Illustrator 17.0.0, SVG Export Plug-In . SVG Version: 6.00 Build 0)  -->
<!DOCTYPE svg PUBLIC "-//W3C//DTD SVG 1.1//EN" "http://www.w3.org/Graphics/SVG/1.1/DTD/svg11.dtd">
<svg version="1.1" id="Layer_1" xmlns="http://www.w3.org/2000/svg" xmlns:xlink="http://www.w3.org/1999/xlink" x="0px" y="0px"
	 width="256px" height="256px" viewBox="0 0 256 256" enable-background="new 0 0 256 256" xml:space="preserve">
<path opacity="0.15" fill="#FFFFFF" d="M184.893,199.392c-5.781,15.352-20.303,11.234-24.902,7.638
	c-5.433-4.249-18.416-19.703-16.391-29.048c2.223-10.257,19.935-9.416,26.163-5.813
	C174.583,174.957,191.309,182.351,184.893,199.392z"/>
<path opacity="0.15" fill="#FFFFFF" d="M156.047,39.386c4.502,3.589,15.228,2.893,19.902,0c2.819-1.745,9.414-8.044,9.18-13.116
	c-0.439-9.546-13.733-18.497-19.326-19.843c-5.408-1.301-19.428,0.961-21.073,9.79C143.394,23.388,152.032,36.186,156.047,39.386z"
	/>
<path opacity="0.15" fill="#FFFFFF" d="M49.148,93.693c5.368-6.99,0.474-20.298-6.835-25.116c-7.411-4.885-24.287-4.56-27.779,3.71
	c-3.616,8.563,8.971,20.312,16.987,24.785C36.973,100.114,45.314,98.685,49.148,93.693z"/>
<path opacity="0.15" fill="#FFFFFF" d="M106.767,140.138c5.368-6.99,0.474-20.298-6.835-25.116
	c-7.411-4.885-24.287-4.56-27.779,3.71c-3.616,8.563,8.971,20.312,16.987,24.785C94.592,146.559,102.933,145.13,106.767,140.138z"/>
<path opacity="0.15" fill="#FFFFFF" d="M113.785,81.864c8.738,1.152,17.813-9.742,18.329-18.482
	c0.523-8.861-8.201-23.311-17.108-22.198c-9.223,1.152-13.101,17.928-12.964,27.106C102.135,74.533,107.544,81.041,113.785,81.864z"
	/>
<path opacity="0.15" fill="#FFFFFF" d="M84.445,27.652c5.368-6.99,0.474-20.298-6.835-25.116c-7.411-4.885-24.287-4.56-27.779,3.71
	c-3.616,8.563,8.971,20.312,16.987,24.785C72.27,34.073,80.611,32.644,84.445,27.652z"/>
<path opacity="0.15" fill="#FFFFFF" d="M212.591,131.961c4.502,3.589,15.228,2.893,19.902,0c2.819-1.745,9.414-8.044,9.18-13.116
	c-0.439-9.546-13.733-18.497-19.326-19.843c-5.408-1.301-19.428,0.961-21.073,9.79C199.939,115.962,208.577,128.76,212.591,131.961z
	"/>
<path opacity="0.15" fill="#FFFFFF" d="M241.51,238.028c4.871-3.07,7.745-13.427,6.551-18.793
	c-0.72-3.237-4.497-11.537-9.363-12.986c-9.158-2.727-21.987,6.879-25.099,11.717c-3.009,4.678-5.488,18.661,2.308,23.121
	C222.238,244.71,237.166,240.765,241.51,238.028z"/>
<path opacity="0.15" fill="#FFFFFF" d="M11.456,159.187c4.502,3.589,15.228,2.893,19.902,0c2.819-1.745,9.414-8.044,9.18-13.116
	c-0.439-9.546-13.733-18.497-19.326-19.843c-5.408-1.301-19.428,0.961-21.073,9.79C-1.197,143.188,7.441,155.986,11.456,159.187z"/>
<path opacity="0.15" fill="#FFFFFF" d="M43.544,87.639c3.544-4.615,0.313-13.4-4.512-16.581c-4.893-3.225-16.033-3.01-18.339,2.449
	c-2.387,5.653,5.922,13.409,11.214,16.362C35.506,91.878,41.013,90.934,43.544,87.639z"/>
<path opacity="0.15" fill="#FFFFFF" d="M81.135,25.309c4.291-5.587,0.379-16.223-5.463-20.075
	C69.748,1.329,56.259,1.59,53.468,8.199c-2.89,6.844,7.17,16.235,13.577,19.81C71.404,30.441,78.071,29.299,81.135,25.309z"/>
<path opacity="0.15" fill="#FFFFFF" d="M114.631,76.654c6.499,0.857,13.248-7.245,13.632-13.746
	c0.389-6.59-6.099-17.337-12.723-16.509c-6.859,0.857-9.743,13.333-9.642,20.16C105.967,71.202,109.99,76.042,114.631,76.654z"/>
<path opacity="0.15" fill="#FFFFFF" d="M158.225,34.564c3.39,2.702,11.465,2.178,14.983,0c2.123-1.314,7.087-6.056,6.911-9.874
	c-0.331-7.187-10.339-13.926-14.55-14.939c-4.072-0.98-14.626,0.723-15.865,7.371C148.7,22.519,155.203,32.154,158.225,34.564z"/>
<path opacity="0.15" fill="#FFFFFF" d="M103.35,137.582c4.193-5.459,0.371-15.853-5.339-19.617
	c-5.788-3.816-18.969-3.561-21.696,2.897c-2.824,6.688,7.007,15.864,13.267,19.358C93.841,142.597,100.356,141.481,103.35,137.582z"
	/>
<path opacity="0.15" fill="#FFFFFF" d="M217.163,127.788c3.125,2.491,10.57,2.008,13.814,0c1.957-1.212,6.534-5.583,6.372-9.104
	c-0.305-6.626-9.533-12.84-13.415-13.774c-3.754-0.903-13.485,0.667-14.627,6.796C208.381,116.683,214.377,125.566,217.163,127.788z
	"/>
<path opacity="0.15" fill="#FFFFFF" d="M178.663,196.483c-3.983,10.577-13.988,7.74-17.157,5.262
	c-3.743-2.927-12.688-13.575-11.293-20.013c1.532-7.067,13.734-6.487,18.025-4.005C171.559,179.649,183.083,184.743,178.663,196.483
	z"/>
<path opacity="0.15" fill="#FFFFFF" d="M238.635,234.725c3.671-2.314,5.836-10.119,4.937-14.162
	c-0.543-2.439-3.389-8.694-7.056-9.786c-6.902-2.055-16.57,5.184-18.915,8.83c-2.268,3.526-4.135,14.063,1.739,17.424
	C224.112,239.761,235.361,236.788,238.635,234.725z"/>
<path opacity="0.15" fill="#FFFFFF" d="M13.841,155.011c3.284,2.618,11.108,2.11,14.516,0c2.056-1.273,6.866-5.867,6.696-9.567
	c-0.32-6.963-10.017-13.492-14.096-14.474c-3.945-0.949-14.17,0.701-15.37,7.141C4.613,143.342,10.913,152.677,13.841,155.011z"/>
<path opacity="0.15" fill="#FFFFFF" d="M67.709,190.018c-5.625-6.785-19.686-4.966-26.007,1.092
	c-6.408,6.143-9.835,22.67-2.546,27.91c7.547,5.426,21.796-4.24,27.936-11.064C71.269,203.314,71.726,194.864,67.709,190.018z"/>
<path opacity="0.15" fill="#FFFFFF" d="M63.547,193.263c-4.183-5.046-14.641-3.694-19.342,0.812
	c-4.766,4.568-7.314,16.86-1.894,20.757c5.613,4.035,16.21-3.154,20.776-8.229C66.194,203.152,66.534,196.867,63.547,193.263z"/>
<path opacity="0.15" fill="#FFFFFF" d="M168.54,93.515c-7.771-4.158-20.104,2.837-23.668,10.834
	c-3.613,8.108-0.544,24.706,8.184,26.804c9.037,2.173,18.58-12.159,21.688-20.796C176.858,104.482,174.09,96.485,168.54,93.515z"/>
<path opacity="0.15" fill="#FFFFFF" d="M166.768,97.162c-6.211-3.324-16.069,2.268-18.917,8.66
	c-2.888,6.481-0.434,19.747,6.541,21.424c7.223,1.737,14.85-9.718,17.334-16.622C173.416,105.928,171.204,99.536,166.768,97.162z"/>
<path opacity="0.15" fill="#FFFFFF" d="M130.999,235.143c0.979-5.674-4.794-14.741-9.58-17.445
	c-2.887-1.631-11.582-4.379-15.915-1.733c-8.156,4.98-9.603,20.941-8.091,26.491c1.463,5.367,10.194,16.566,18.725,13.758
	C123.067,253.935,130.127,240.203,130.999,235.143z"/>
<path opacity="0.15" fill="#FFFFFF" d="M125.724,235.555c0.737-4.272-3.609-11.098-7.212-13.133
	c-2.174-1.228-8.719-3.297-11.982-1.305c-6.14,3.749-7.23,15.766-6.091,19.944c1.101,4.041,7.675,12.472,14.097,10.358
	C119.751,249.702,125.066,239.364,125.724,235.555z"/>
<path opacity="0.15" fill="#FFFFFF" d="M247.576,22.557c-8.202-3.226-19.637,5.157-22.247,13.514
	c-2.646,8.473,2.334,24.601,11.246,25.67c9.229,1.107,17.039-14.238,19.121-23.178C257.113,32.482,253.433,24.861,247.576,22.557z"
	/>
<path opacity="0.15" fill="#FFFFFF" d="M246.064,26.548c-6.406-2.52-15.337,4.028-17.376,10.555
	c-2.066,6.618,1.823,19.214,8.784,20.049c7.208,0.865,13.308-11.12,14.934-18.103C253.513,34.299,250.639,28.347,246.064,26.548z"/>
</svg>
