<?xml version="1.0" encoding="utf-8"?>
<!-- Generator: Adobe Illustrator 17.0.0, SVG Export Plug-In . SVG Version: 6.00 Build 0)  -->
<!DOCTYPE svg PUBLIC "-//W3C//DTD SVG 1.1//EN" "http://www.w3.org/Graphics/SVG/1.1/DTD/svg11.dtd">
<svg version="1.1" id="Layer_1" xmlns="http://www.w3.org/2000/svg" xmlns:xlink="http://www.w3.org/1999/xlink" x="0px" y="0px"
	 width="256px" height="256px" viewBox="0 0 256 256" enable-background="new 0 0 256 256" xml:space="preserve">
<circle opacity="0.3" fill="#FFFFFF" cx="22.233" cy="236.375" r="5.998"/>
<circle opacity="0.3" fill="#FFFFFF" cx="28.231" cy="221.815" r="5.998"/>
<circle opacity="0.3" fill="#FFFFFF" cx="40.226" cy="233.811" r="5.998"/>
<circle opacity="0.3" fill="#FFFFFF" cx="41.369" cy="220.102" r="5.998"/>
<circle opacity="0.3" fill="#FFFFFF" cx="74.213" cy="203.822" r="5.998"/>
<circle opacity="0.3" fill="#FFFFFF" cx="47.366" cy="208.106" r="5.998"/>
<circle opacity="0.3" fill="#FFFFFF" cx="41.369" cy="196.111" r="5.998"/>
<circle opacity="0.3" fill="#FFFFFF" cx="8.931" cy="209.82" r="5.998"/>
<circle opacity="0.3" fill="#FFFFFF" cx="21.76" cy="209.82" r="5.998"/>
<circle opacity="0.3" fill="#FFFFFF" cx="25.946" cy="196.111" r="5.998"/>
<circle opacity="0.3" fill="#FFFFFF" cx="31.944" cy="245.806" r="5.998"/>
<circle opacity="0.3" fill="#FFFFFF" cx="53.364" cy="226.099" r="5.998"/>
<circle opacity="0.3" fill="#FFFFFF" cx="55.078" cy="196.111" r="5.998"/>
<circle opacity="0.3" fill="#FFFFFF" cx="31.944" cy="184.115" r="5.998"/>
<circle opacity="0.3" fill="#FFFFFF" cx="43.082" cy="174.261" r="5.998"/>
<circle opacity="0.3" fill="#FFFFFF" cx="55.078" cy="180.259" r="5.998"/>
<circle opacity="0.3" fill="#FFFFFF" cx="55.078" cy="166.693" r="5.998"/>
<circle opacity="0.3" fill="#FFFFFF" cx="63.36" cy="211.251" r="5.998"/>
<circle opacity="0.3" fill="#FFFFFF" cx="67.073" cy="226.099" r="5.998"/>
<circle opacity="0.3" fill="#FFFFFF" cx="59.362" cy="238.095" r="5.998"/>
<circle opacity="0.3" fill="#FFFFFF" cx="46.224" cy="248.371" r="5.998"/>
<circle opacity="0.3" fill="#FFFFFF" cx="93.339" cy="247.879" r="5.998"/>
<circle opacity="0.3" fill="#FFFFFF" cx="99.337" cy="233.319" r="5.998"/>
<circle opacity="0.3" fill="#FFFFFF" cx="111.332" cy="245.315" r="5.998"/>
<circle opacity="0.3" fill="#FFFFFF" cx="112.475" cy="231.606" r="5.998"/>
<circle opacity="0.3" fill="#FFFFFF" cx="106.042" cy="219.036" r="5.998"/>
<circle opacity="0.3" fill="#FFFFFF" cx="118.472" cy="219.61" r="5.998"/>
<circle opacity="0.3" fill="#FFFFFF" cx="112.475" cy="207.615" r="5.998"/>
<circle opacity="0.3" fill="#FFFFFF" cx="74.213" cy="238.669" r="5.998"/>
<circle opacity="0.3" fill="#FFFFFF" cx="80.037" cy="221.324" r="5.998"/>
<circle opacity="0.3" fill="#FFFFFF" cx="93.746" cy="221.324" r="5.998"/>
<circle opacity="0.3" fill="#FFFFFF" cx="97.052" cy="207.615" r="5.998"/>
<circle opacity="0.3" fill="#FFFFFF" cx="124.47" cy="237.604" r="5.998"/>
<circle opacity="0.3" fill="#FFFFFF" cx="126.184" cy="207.615" r="5.998"/>
<circle opacity="0.3" fill="#FFFFFF" cx="103.05" cy="195.619" r="5.998"/>
<circle opacity="0.3" fill="#FFFFFF" cx="114.188" cy="185.765" r="5.998"/>
<circle opacity="0.3" fill="#FFFFFF" cx="126.184" cy="191.763" r="5.998"/>
<circle opacity="0.3" fill="#FFFFFF" cx="124.47" cy="176.703" r="5.998"/>
<circle opacity="0.3" fill="#FFFFFF" cx="138.179" cy="201.617" r="5.998"/>
<circle opacity="0.3" fill="#FFFFFF" cx="138.179" cy="237.604" r="5.998"/>
<circle opacity="0.3" fill="#FFFFFF" cx="67.073" cy="250.09" r="5.998"/>
<circle opacity="0.3" fill="#FFFFFF" cx="78.384" cy="174.061" r="5.998"/>
<circle opacity="0.3" fill="#FFFFFF" cx="151.031" cy="248.887" r="5.998"/>
<circle opacity="0.3" fill="#FFFFFF" cx="167.035" cy="248.383" r="5.998"/>
<circle opacity="0.3" fill="#FFFFFF" cx="8.931" cy="195.107" r="5.998"/>
<circle opacity="0.3" fill="#FFFFFF" cx="156.895" cy="93.297" r="5.998"/>
<circle opacity="0.3" fill="#FFFFFF" cx="168.89" cy="105.293" r="5.998"/>
<circle opacity="0.3" fill="#FFFFFF" cx="170.033" cy="91.584" r="5.998"/>
<circle opacity="0.3" fill="#FFFFFF" cx="162.893" cy="79.588" r="5.998"/>
<circle opacity="0.3" fill="#FFFFFF" cx="176.03" cy="79.588" r="5.998"/>
<circle opacity="0.3" fill="#FFFFFF" cx="170.033" cy="67.593" r="5.998"/>
<circle opacity="0.3" fill="#FFFFFF" cx="160.608" cy="117.288" r="5.998"/>
<circle opacity="0.3" fill="#FFFFFF" cx="182.028" cy="97.581" r="5.998"/>
<circle opacity="0.3" fill="#FFFFFF" cx="183.742" cy="67.593" r="5.998"/>
<circle opacity="0.3" fill="#FFFFFF" cx="160.608" cy="55.597" r="5.998"/>
<circle opacity="0.3" fill="#FFFFFF" cx="171.746" cy="45.743" r="5.998"/>
<circle opacity="0.3" fill="#FFFFFF" cx="183.742" cy="51.741" r="5.998"/>
<circle opacity="0.3" fill="#FFFFFF" cx="183.742" cy="38.175" r="5.998"/>
<circle opacity="0.3" fill="#FFFFFF" cx="195.737" cy="61.595" r="5.998"/>
<circle opacity="0.3" fill="#FFFFFF" cx="195.737" cy="97.581" r="5.998"/>
<circle opacity="0.3" fill="#FFFFFF" cx="188.026" cy="109.577" r="5.998"/>
<circle opacity="0.3" fill="#FFFFFF" cx="174.888" cy="119.853" r="5.998"/>
<circle opacity="0.3" fill="#FFFFFF" cx="226.011" cy="126.425" r="5.998"/>
<circle opacity="0.3" fill="#FFFFFF" cx="232.009" cy="111.865" r="5.998"/>
<circle opacity="0.3" fill="#FFFFFF" cx="237.518" cy="96.582" r="5.998"/>
<circle opacity="0.3" fill="#FFFFFF" cx="245.147" cy="85.586" r="5.998"/>
<circle opacity="0.3" fill="#FFFFFF" cx="202.877" cy="110.151" r="5.998"/>
<circle opacity="0.3" fill="#FFFFFF" cx="201.164" cy="83.885" r="5.998"/>
<circle opacity="0.3" fill="#FFFFFF" cx="225.276" cy="99.869" r="5.998"/>
<circle opacity="0.3" fill="#FFFFFF" cx="229.724" cy="86.16" r="5.998"/>
<circle opacity="0.3" fill="#FFFFFF" cx="235.722" cy="135.856" r="5.998"/>
<circle opacity="0.3" fill="#FFFFFF" cx="235.722" cy="74.165" r="5.998"/>
<circle opacity="0.3" fill="#FFFFFF" cx="214.302" cy="76.174" r="5.998"/>
<circle opacity="0.3" fill="#FFFFFF" cx="177.173" cy="187.259" r="5.998"/>
<circle opacity="0.3" fill="#FFFFFF" cx="183.171" cy="172.699" r="5.998"/>
<circle opacity="0.3" fill="#FFFFFF" cx="195.166" cy="184.694" r="5.998"/>
<circle opacity="0.3" fill="#FFFFFF" cx="196.308" cy="170.985" r="5.998"/>
<circle opacity="0.3" fill="#FFFFFF" cx="150.221" cy="152.289" r="5.998"/>
<circle opacity="0.3" fill="#FFFFFF" cx="202.306" cy="158.99" r="5.998"/>
<circle opacity="0.3" fill="#FFFFFF" cx="196.308" cy="146.994" r="5.998"/>
<circle opacity="0.3" fill="#FFFFFF" cx="163.014" cy="160.703" r="5.998"/>
<circle opacity="0.3" fill="#FFFFFF" cx="176.723" cy="160.703" r="5.998"/>
<circle opacity="0.3" fill="#FFFFFF" cx="180.886" cy="146.994" r="5.998"/>
<circle opacity="0.3" fill="#FFFFFF" cx="186.883" cy="196.69" r="5.998"/>
<circle opacity="0.3" fill="#FFFFFF" cx="208.304" cy="176.983" r="5.998"/>
<circle opacity="0.3" fill="#FFFFFF" cx="210.017" cy="146.994" r="5.998"/>
<circle opacity="0.3" fill="#FFFFFF" cx="186.883" cy="134.999" r="5.998"/>
<circle opacity="0.3" fill="#FFFFFF" cx="198.022" cy="125.144" r="5.998"/>
<circle opacity="0.3" fill="#FFFFFF" cx="210.017" cy="131.142" r="5.998"/>
<circle opacity="0.3" fill="#FFFFFF" cx="214.016" cy="61.324" r="5.998"/>
<circle opacity="0.3" fill="#FFFFFF" cx="222.013" cy="140.997" r="5.998"/>
<circle opacity="0.3" fill="#FFFFFF" cx="222.013" cy="176.983" r="5.998"/>
<circle opacity="0.3" fill="#FFFFFF" cx="214.302" cy="188.978" r="5.998"/>
<circle opacity="0.3" fill="#FFFFFF" cx="201.164" cy="199.254" r="5.998"/>
<circle opacity="0.3" fill="#FFFFFF" cx="239.72" cy="173.273" r="5.998"/>
<circle opacity="0.3" fill="#FFFFFF" cx="153.294" cy="198.769" r="5.998"/>
<circle opacity="0.3" fill="#FFFFFF" cx="169.297" cy="217.828" r="5.998"/>
<circle opacity="0.3" fill="#FFFFFF" cx="170.44" cy="204.119" r="5.998"/>
<circle opacity="0.3" fill="#FFFFFF" cx="228.643" cy="222.537" r="5.998"/>
<circle opacity="0.3" fill="#FFFFFF" cx="241.781" cy="222.537" r="5.998"/>
<circle opacity="0.3" fill="#FFFFFF" cx="235.783" cy="210.542" r="5.998"/>
<circle opacity="0.3" fill="#FFFFFF" cx="206.712" cy="210.542" r="5.998"/>
<circle opacity="0.3" fill="#FFFFFF" cx="203.345" cy="224.251" r="5.998"/>
<circle opacity="0.3" fill="#FFFFFF" cx="216.015" cy="228.109" r="5.998"/>
<circle opacity="0.3" fill="#FFFFFF" cx="220.36" cy="210.542" r="5.998"/>
<circle opacity="0.3" fill="#FFFFFF" cx="157.006" cy="222.76" r="5.998"/>
<circle opacity="0.3" fill="#FFFFFF" cx="182.435" cy="210.116" r="5.998"/>
<circle opacity="0.3" fill="#FFFFFF" cx="250.002" cy="204.544" r="5.998"/>
<circle opacity="0.3" fill="#FFFFFF" cx="226.358" cy="198.546" r="5.998"/>
<circle opacity="0.3" fill="#FFFFFF" cx="234.64" cy="185.744" r="5.998"/>
<circle opacity="0.3" fill="#FFFFFF" cx="245.153" cy="193.256" r="5.998"/>
<circle opacity="0.3" fill="#FFFFFF" cx="249.492" cy="181.124" r="5.998"/>
<circle opacity="0.3" fill="#FFFFFF" cx="188.433" cy="222.112" r="5.998"/>
<circle opacity="0.3" fill="#FFFFFF" cx="175.295" cy="232.387" r="5.998"/>
<circle opacity="0.3" fill="#FFFFFF" cx="228.398" cy="152.289" r="5.998"/>
<circle opacity="0.3" fill="#FFFFFF" cx="228.905" cy="165.691" r="5.998"/>
<circle opacity="0.3" fill="#FFFFFF" cx="8.453" cy="24.052" r="5.998"/>
<circle opacity="0.3" fill="#FFFFFF" cx="20.448" cy="33.906" r="5.998"/>
<circle opacity="0.3" fill="#FFFFFF" cx="20.448" cy="69.892" r="5.998"/>
<circle opacity="0.3" fill="#FFFFFF" cx="12.737" cy="81.888" r="5.998"/>
<circle opacity="0.3" fill="#FFFFFF" cx="14.736" cy="56.179" r="5.998"/>
<circle opacity="0.3" fill="#FFFFFF" cx="59.719" cy="86.45" r="5.998"/>
<circle opacity="0.3" fill="#FFFFFF" cx="65.717" cy="71.89" r="5.998"/>
<circle opacity="0.3" fill="#FFFFFF" cx="77.712" cy="83.885" r="5.998"/>
<circle opacity="0.3" fill="#FFFFFF" cx="78.855" cy="70.176" r="5.998"/>
<circle opacity="0.3" fill="#FFFFFF" cx="53.721" cy="70.176" r="5.998"/>
<circle opacity="0.3" fill="#FFFFFF" cx="70.144" cy="56.753" r="5.998"/>
<circle opacity="0.3" fill="#FFFFFF" cx="34.871" cy="65.892" r="5.998"/>
<circle opacity="0.3" fill="#FFFFFF" cx="30.587" cy="54.101" r="5.998"/>
<circle opacity="0.3" fill="#FFFFFF" cx="45.417" cy="59.61" r="5.998"/>
<circle opacity="0.3" fill="#FFFFFF" cx="147.937" cy="77.602" r="5.998"/>
<circle opacity="0.3" fill="#FFFFFF" cx="90.85" cy="76.174" r="5.998"/>
<circle opacity="0.3" fill="#FFFFFF" cx="104.559" cy="76.174" r="5.998"/>
<circle opacity="0.3" fill="#FFFFFF" cx="96.848" cy="88.17" r="5.998"/>
<circle opacity="0.3" fill="#FFFFFF" cx="83.71" cy="98.445" r="5.998"/>
<circle opacity="0.3" fill="#FFFFFF" cx="10.88" cy="147.284" r="5.998"/>
<circle opacity="0.3" fill="#FFFFFF" cx="28.874" cy="144.719" r="5.998"/>
<circle opacity="0.3" fill="#FFFFFF" cx="30.64" cy="131.01" r="5.998"/>
<circle opacity="0.3" fill="#FFFFFF" cx="36.014" cy="119.015" r="5.998"/>
<circle opacity="0.3" fill="#FFFFFF" cx="30.016" cy="107.019" r="5.998"/>
<circle opacity="0.3" fill="#FFFFFF" cx="65.227" cy="121.013" r="5.998"/>
<circle opacity="0.3" fill="#FFFFFF" cx="75.06" cy="110.731" r="5.998"/>
<circle opacity="0.3" fill="#FFFFFF" cx="20.591" cy="156.715" r="5.998"/>
<circle opacity="0.3" fill="#FFFFFF" cx="42.011" cy="137.008" r="5.998"/>
<circle opacity="0.3" fill="#FFFFFF" cx="43.725" cy="107.019" r="5.998"/>
<circle opacity="0.3" fill="#FFFFFF" cx="17.285" cy="104.733" r="5.998"/>
<circle opacity="0.3" fill="#FFFFFF" cx="31.73" cy="85.17" r="5.998"/>
<circle opacity="0.3" fill="#FFFFFF" cx="43.725" cy="91.167" r="5.998"/>
<circle opacity="0.3" fill="#FFFFFF" cx="43.725" cy="77.602" r="5.998"/>
<circle opacity="0.3" fill="#FFFFFF" cx="55.72" cy="101.022" r="5.998"/>
<circle opacity="0.3" fill="#FFFFFF" cx="55.72" cy="137.008" r="5.998"/>
<circle opacity="0.3" fill="#FFFFFF" cx="48.009" cy="149.004" r="5.998"/>
<circle opacity="0.3" fill="#FFFFFF" cx="34.871" cy="159.279" r="5.998"/>
<circle opacity="0.3" fill="#FFFFFF" cx="96.562" cy="149.572" r="5.998"/>
<circle opacity="0.3" fill="#FFFFFF" cx="102.56" cy="135.012" r="5.998"/>
<circle opacity="0.3" fill="#FFFFFF" cx="114.555" cy="147.007" r="5.998"/>
<circle opacity="0.3" fill="#FFFFFF" cx="115.698" cy="133.298" r="5.998"/>
<circle opacity="0.3" fill="#FFFFFF" cx="108.558" cy="121.303" r="5.998"/>
<circle opacity="0.3" fill="#FFFFFF" cx="121.695" cy="121.303" r="5.998"/>
<circle opacity="0.3" fill="#FFFFFF" cx="115.698" cy="109.307" r="5.998"/>
<circle opacity="0.3" fill="#FFFFFF" cx="73.428" cy="133.298" r="5.998"/>
<circle opacity="0.3" fill="#FFFFFF" cx="83.26" cy="123.016" r="5.998"/>
<circle opacity="0.3" fill="#FFFFFF" cx="96.562" cy="123.86" r="5.998"/>
<circle opacity="0.3" fill="#FFFFFF" cx="100.275" cy="109.307" r="5.998"/>
<circle opacity="0.3" fill="#FFFFFF" cx="106.273" cy="159.003" r="5.998"/>
<circle opacity="0.3" fill="#FFFFFF" cx="127.693" cy="139.296" r="5.998"/>
<circle opacity="0.3" fill="#FFFFFF" cx="129.407" cy="109.307" r="5.998"/>
<circle opacity="0.3" fill="#FFFFFF" cx="106.273" cy="97.312" r="5.998"/>
<circle opacity="0.3" fill="#FFFFFF" cx="117.411" cy="87.458" r="5.998"/>
<circle opacity="0.3" fill="#FFFFFF" cx="129.407" cy="93.455" r="5.998"/>
<circle opacity="0.3" fill="#FFFFFF" cx="129.407" cy="79.89" r="5.998"/>
<circle opacity="0.3" fill="#FFFFFF" cx="141.402" cy="103.31" r="5.998"/>
<circle opacity="0.3" fill="#FFFFFF" cx="141.402" cy="139.296" r="5.998"/>
<circle opacity="0.3" fill="#FFFFFF" cx="133.691" cy="151.291" r="5.998"/>
<circle opacity="0.3" fill="#FFFFFF" cx="120.553" cy="161.567" r="5.998"/>
<circle opacity="0.3" fill="#FFFFFF" cx="49.723" cy="123.016" r="5.998"/>
<circle opacity="0.3" fill="#FFFFFF" cx="201.571" cy="39.745" r="5.998"/>
<circle opacity="0.3" fill="#FFFFFF" cx="189.536" cy="25.044" r="5.998"/>
<circle opacity="0.3" fill="#FFFFFF" cx="202.588" cy="15.252" r="5.998"/>
<circle opacity="0.3" fill="#FFFFFF" cx="179.23" cy="5.91" r="5.998"/>
<circle opacity="0.3" fill="#FFFFFF" cx="232.866" cy="25.334" r="5.998"/>
<circle opacity="0.3" fill="#FFFFFF" cx="250.002" cy="21.895" r="5.998"/>
<circle opacity="0.3" fill="#FFFFFF" cx="240.006" cy="13.339" r="5.998"/>
<circle opacity="0.3" fill="#FFFFFF" cx="207.569" cy="27.048" r="5.998"/>
<circle opacity="0.3" fill="#FFFFFF" cx="220.421" cy="32.178" r="5.998"/>
<circle opacity="0.3" fill="#FFFFFF" cx="224.583" cy="13.339" r="5.998"/>
<circle opacity="0.3" fill="#FFFFFF" cx="174.031" cy="27.048" r="5.998"/>
<circle opacity="0.3" fill="#FFFFFF" cx="132.228" cy="29.812" r="5.998"/>
<circle opacity="0.3" fill="#FFFFFF" cx="138.226" cy="15.252" r="5.998"/>
<circle opacity="0.3" fill="#FFFFFF" cx="150.221" cy="27.248" r="5.998"/>
<circle opacity="0.3" fill="#FFFFFF" cx="151.364" cy="13.539" r="5.998"/>
<circle opacity="0.3" fill="#FFFFFF" cx="102.845" cy="27.248" r="5.998"/>
<circle opacity="0.3" fill="#FFFFFF" cx="110.557" cy="52.67" r="5.998"/>
<circle opacity="0.3" fill="#FFFFFF" cx="127.693" cy="5.91" r="5.998"/>
<circle opacity="0.3" fill="#FFFFFF" cx="141.939" cy="39.243" r="5.998"/>
<circle opacity="0.3" fill="#FFFFFF" cx="156.219" cy="41.807" r="5.998"/>
<circle opacity="0.3" fill="#FFFFFF" cx="6.739" cy="93.297" r="5.998"/>
<circle opacity="0.3" fill="#FFFFFF" cx="43.118" cy="22.681" r="5.998"/>
<circle opacity="0.3" fill="#FFFFFF" cx="55.113" cy="34.677" r="5.998"/>
<circle opacity="0.3" fill="#FFFFFF" cx="56.256" cy="20.967" r="5.998"/>
<circle opacity="0.3" fill="#FFFFFF" cx="29.826" cy="20.967" r="5.998"/>
<circle opacity="0.3" fill="#FFFFFF" cx="47.723" cy="10.686" r="5.998"/>
<circle opacity="0.3" fill="#FFFFFF" cx="46.831" cy="46.672" r="5.998"/>
<circle opacity="0.3" fill="#FFFFFF" cx="68.251" cy="26.965" r="5.998"/>
<circle opacity="0.3" fill="#FFFFFF" cx="81.96" cy="26.965" r="5.998"/>
<circle opacity="0.3" fill="#FFFFFF" cx="74.249" cy="38.961" r="5.998"/>
<circle opacity="0.3" fill="#FFFFFF" cx="83.674" cy="48.103" r="5.998"/>
<circle opacity="0.3" fill="#FFFFFF" cx="94.812" cy="38.249" r="5.998"/>
<circle opacity="0.3" fill="#FFFFFF" cx="81.96" cy="10.686" r="5.998"/>
<circle opacity="0.3" fill="#FFFFFF" cx="94.812" cy="7.341" r="5.998"/>
<circle opacity="0.3" fill="#FFFFFF" cx="21.733" cy="10.686" r="5.998"/>
<circle opacity="0.3" fill="#FFFFFF" cx="5.998" cy="161.567" r="5.998"/>
<circle opacity="0.3" fill="#FFFFFF" cx="242.886" cy="38.175" r="5.998"/>
<circle opacity="0.3" fill="#FFFFFF" cx="238.007" cy="50.84" r="5.998"/>
<circle opacity="0.3" fill="#FFFFFF" cx="223.727" cy="45.743" r="5.998"/>
<circle opacity="0.3" fill="#FFFFFF" cx="20.85" cy="92.733" r="5.998"/>
<circle opacity="0.3" fill="#FFFFFF" cx="200.246" cy="249.233" r="5.998"/>
<circle opacity="0.3" fill="#FFFFFF" cx="206.244" cy="237.238" r="5.998"/>
<circle opacity="0.3" fill="#FFFFFF" cx="249.717" cy="249.24" r="5.998"/>
<circle opacity="0.3" fill="#FFFFFF" cx="244.989" cy="236.246" r="5.998"/>
<circle opacity="0.3" fill="#FFFFFF" cx="34.871" cy="6.086" r="5.998"/>
<circle opacity="0.3" fill="#FFFFFF" cx="192.376" cy="6.692" r="5.998"/>
<circle opacity="0.3" fill="#FFFFFF" cx="211.731" cy="6.692" r="5.998"/>
<circle opacity="0.3" fill="#FFFFFF" cx="121.695" cy="45.743" r="5.998"/>
<circle opacity="0.3" fill="#FFFFFF" cx="84.382" cy="161.567" r="5.998"/>
<circle opacity="0.3" fill="#FFFFFF" cx="136.723" cy="176.703" r="5.998"/>
<circle opacity="0.3" fill="#FFFFFF" cx="150.897" cy="167.565" r="5.998"/>
<circle opacity="0.3" fill="#FFFFFF" cx="93.339" cy="172.699" r="5.998"/>
<circle opacity="0.3" fill="#FFFFFF" cx="250.002" cy="61.595" r="5.998"/>
<circle opacity="0.3" fill="#FFFFFF" cx="250.002" cy="129.858" r="5.998"/>
<circle opacity="0.3" fill="#FFFFFF" cx="247.717" cy="143.138" r="5.998"/>
<circle opacity="0.3" fill="#FFFFFF" cx="5.998" cy="134.999" r="5.998"/>
<circle opacity="0.3" fill="#FFFFFF" cx="22.876" cy="119.147" r="5.998"/>
<circle opacity="0.3" fill="#FFFFFF" cx="236.274" cy="245.681" r="5.998"/>
<circle opacity="0.3" fill="#FFFFFF" cx="5.998" cy="239.317" r="5.998"/>
</svg>
