<?xml version="1.0" encoding="utf-8"?>
<!-- Generator: Adobe Illustrator 17.0.0, SVG Export Plug-In . SVG Version: 6.00 Build 0)  -->
<!DOCTYPE svg PUBLIC "-//W3C//DTD SVG 1.1//EN" "http://www.w3.org/Graphics/SVG/1.1/DTD/svg11.dtd">
<svg version="1.1" id="Layer_1" xmlns="http://www.w3.org/2000/svg" xmlns:xlink="http://www.w3.org/1999/xlink" x="0px" y="0px"
	 width="256px" height="256px" viewBox="0 0 256 256" enable-background="new 0 0 256 256" xml:space="preserve">
<polygon opacity="0.15" fill="#FFFFFF" points="47.979,7.681 80.095,7.681 96.812,32.234 80.388,56.87 47.979,56.87 30.968,32.276 
	"/>
<polygon opacity="0.15" fill="#FFFFFF" points="0.006,24.599 16.449,24.461 32.829,0.024 0.006,0.024 "/>
<polygon opacity="0.15" fill="#FFFFFF" points="0.006,39.566 16.303,39.566 32.874,64.056 16.523,88.693 0.006,88.536 "/>
<polygon opacity="0.15" fill="#FFFFFF" points="0.025,103.504 16.44,103.504 32.874,128.024 16.449,152.485 0.006,152.614 "/>
<polygon opacity="0.15" fill="#FFFFFF" points="0.025,167.209 15.716,167.209 32.874,192.08 16.784,216.215 0.006,216.27 "/>
<polygon opacity="0.15" fill="#FFFFFF" points="0.006,231.658 16.44,231.381 32.874,256.024 0.006,256.023 "/>
<polygon opacity="0.15" fill="#FFFFFF" points="47.685,248.686 31.114,224.049 47.685,199.705 80.535,199.705 97.133,224.196 
	80.681,248.686 "/>
<polygon opacity="0.15" fill="#FFFFFF" points="31.114,160.404 47.539,184.601 80.241,184.601 97.133,160.404 80.535,135.62 
	47.245,135.62 "/>
<polygon opacity="0.15" fill="#FFFFFF" points="31.114,96.025 47.685,120.662 80.681,120.662 96.812,96.025 80.535,71.682 
	47.392,71.682 "/>
<polygon opacity="0.15" fill="#FFFFFF" points="95.493,0.024 111.477,24.608 144.473,24.608 160.751,0.025 "/>
<polygon opacity="0.15" fill="#FFFFFF" points="111.624,39.548 144.326,39.548 160.751,64.203 144.62,88.546 111.624,89.133 
	95.493,64.34 "/>
<polygon opacity="0.15" fill="#FFFFFF" points="111.624,103.504 144.326,103.504 160.751,128.024 144.62,152.631 111.624,152.631 
	95.493,128.024 "/>
<polygon opacity="0.15" fill="#FFFFFF" points="111.477,167.209 144.18,167.209 160.751,192.08 144.766,216.947 111.477,216.947 
	95.493,192.078 "/>
<polygon opacity="0.15" fill="#FFFFFF" points="95.493,256.023 111.624,231.675 144.326,231.675 160.751,256.023 "/>
<polygon opacity="0.15" fill="#FFFFFF" points="158.855,223.756 175.709,248.686 208.558,248.686 225.276,223.756 208.411,199.119 
	175.416,199.119 "/>
<polygon opacity="0.15" fill="#FFFFFF" points="158.855,159.964 175.709,135.767 208.411,135.767 225.276,159.964 208.411,184.601 
	175.416,184.601 "/>
<polygon opacity="0.15" fill="#FFFFFF" points="175.562,71.535 208.411,71.535 225.276,96.025 208.411,120.809 175.562,120.809 
	158.855,96.172 "/>
<polygon opacity="0.15" fill="#FFFFFF" points="175.709,7.597 208.118,7.597 225.276,31.94 208.558,56.724 175.709,56.724 
	158.855,32.16 "/>
<polygon opacity="0.15" fill="#FFFFFF" points="223.094,0.024 239.501,24.608 256,24.581 256.006,0.024 "/>
<polygon opacity="0.15" fill="#FFFFFF" points="256.006,39.548 239.061,39.548 223.076,64.34 239.541,88.546 256,88.502 "/>
<polygon opacity="0.15" fill="#FFFFFF" points="256.006,103.504 239.644,103.504 223.076,128.068 239.644,152.631 256.006,152.631 
	"/>
<polygon opacity="0.15" fill="#FFFFFF" points="256.006,167.736 239.541,167.209 223.076,192.078 239.541,216.947 256.006,216.277 
	"/>
<polygon opacity="0.15" fill="#FFFFFF" points="256.006,231.675 239.541,231.675 223.076,256.024 256.006,256.023 "/>
</svg>
