<?xml version="1.0" encoding="utf-8"?>
<!-- Generator: Adobe Illustrator 17.0.0, SVG Export Plug-In . SVG Version: 6.00 Build 0)  -->
<!DOCTYPE svg PUBLIC "-//W3C//DTD SVG 1.1//EN" "http://www.w3.org/Graphics/SVG/1.1/DTD/svg11.dtd">
<svg version="1.1" id="Layer_1" xmlns="http://www.w3.org/2000/svg" xmlns:xlink="http://www.w3.org/1999/xlink" x="0px" y="0px"
	 width="256px" height="256px" viewBox="0 0 256 256" enable-background="new 0 0 256 256" xml:space="preserve">
<g opacity="0.3">
	<path fill="#FFFFFF" d="M22.811,256.009c16.035-10.026,46.923-10.446,60.987-11.768c5.548-0.521,10.493,1.966,16.449,1.054
		c27.489-3.646,55.237-2.378,82.51-2.422c14.773-0.024,28.405,0,43.065,2.734c8.705,1.367,22.505-2.065,30.179-2.829v0.547
		c-9.135,1.122-21.644,4.356-30.349,2.988c-14.661-2.734-28.292-2.775-43.065-2.734c-26.864,0.074-54.772-1.076-82.26,2.57
		c-5.956,0.911-11.15-1.724-16.699-1.203c-14.064,1.322-44.462,1.036-60.497,11.062H22.811z"/>
</g>
<g opacity="0.3">
	<path fill="#FFFFFF" d="M0,248.953c16.035-1.823,37.983-5.624,54.018-8.358c6.872-0.911,13.744-0.456,21.075-0.456
		c8.247,0,15.577-2.734,23.365-4.102c27.489-4.102,53.603-1.367,80.633-0.456c15.577,0.456,28.405,0.911,43.523,5.013
		c9.621,2.734,23.765,0.393,33.386-2.798v0.638c-9.621,3.19-23.935,5.6-33.556,2.866c-15.119-4.102-27.947-4.557-43.523-5.013
		c-27.03-0.911-53.144-3.646-80.633,0.456c-7.788,1.367-15.119,4.102-23.365,4.102c-7.33,0-14.202-0.456-21.075,0.456
		c-16.035,2.734-37.813,6.422-53.848,8.245V248.953z"/>
</g>
<g opacity="0.3">
	<path fill="#FFFFFF" d="M0,242.83c32.986-3.19,68.679-9.527,101.665-14.084c24.74-3.646,51.312-3.19,76.052-0.911
		c7.33,0.456,14.202,0.911,21.075,1.823s12.37,4.102,18.784,5.924c12.828,4.102,28.798-3.626,35.554-6.609l1.589-0.293
		c-7.253,3.664-24.485,11.71-37.313,7.608c-6.414-1.823-11.912-5.013-18.784-5.924s-13.744-1.367-21.075-1.823
		c-24.74-2.279-51.312-2.734-76.052,0.911C68.508,234.009,32.986,240.158,0,243.348V242.83z"/>
</g>
<g opacity="0.3">
	<path fill="#FFFFFF" d="M0,237.818c13.286-3.646,31.111-7.705,44.397-8.616c12.828-0.911,25.696-1.627,38.484-2.734
		c5.665-0.491,16.493-2.279,22.449-3.646c26.114-4.102,54.061-3.646,79.717,0c6.414,0.911,13.744,0,20.158,1.823
		c5.956,1.823,10.537,5.924,16.951,6.836c10.995,1.367,23.362-1.73,33.844-3.639v0.613c-9.466,1.621-23.019,5.1-34.014,3.733
		c-6.414-0.911-10.995-5.013-16.951-6.836c-6.414-1.823-13.744-0.911-20.158-1.823c-25.656-3.646-53.603-4.102-79.717,0
		c-5.956,1.367-16.784,3.155-22.449,3.646c-12.788,1.108-25.656,1.823-38.484,2.734c-13.286,0.911-30.941,4.882-44.227,8.528
		V237.818z"/>
</g>
<g opacity="0.3">
	<path fill="#FFFFFF" d="M0,227.844c29.779-12.76,109.911-11.402,112.202-11.402c26.572-2.279,52.228-3.646,77.884,1.823
		c12.37,2.279,26.114,7.292,38.026,7.747c9.163,0.456,20.875-1.402,27.888-3.95v0.608c-6.731,2.597-18.895,4.504-28.058,4.048
		c-11.912-0.456-25.656-5.469-38.026-7.747c-25.656-5.469-51.312-4.102-77.884-1.823c-2.291,0-82.253-1.471-112.032,11.289V227.844z
		"/>
</g>
<g opacity="0.3">
	<path fill="#FFFFFF" d="M0,222.067c10.995-7.292,33.402-4.714,46.23-4.714c16.035,0,58.642-4.557,62.307-5.469
		c11.912-2.734,25.198-3.19,37.568-3.646c14.202-0.911,28.405-0.456,41.691,2.734c11.912,2.734,24.282,8.203,36.193,9.57
		c10.995,1.823,22.773-1.929,32.011-4.514v0.641c-6.41,1.992-21.186,6.402-32.182,4.58c-11.912-1.367-24.282-6.836-36.193-9.57
		c-13.286-3.19-27.489-3.646-41.691-2.734c-12.37,0.456-25.656,0.911-37.568,3.646c-3.665,0.911-46.272,5.469-62.307,5.469
		c-12.828,0-35.064-2.691-46.059,4.6L0,222.067z"/>
</g>
<g opacity="0.3">
	<path fill="#FFFFFF" d="M0,216.042c13.366-2.938,29.737-5.07,42.106-5.526s60.933-5.924,71.47-7.292
		c13.744-1.367,26.572,0.911,39.858-1.367c12.37-2.279,23.823-0.456,35.735,2.279c11.454,2.734,22.907,8.203,34.819,10.482
		c10.079,1.823,21.932-2.488,32.011-3.855v0.594c-10.079,1.367-22.102,5.791-32.182,3.968c-11.912-2.279-23.365-7.747-34.819-10.482
		c-11.912-2.734-23.365-4.557-35.735-2.279c-13.286,2.279-26.114,0-39.858,1.367c-10.537,1.367-59.1,6.836-71.47,7.292
		c-12.37,0.456-28.324,2.622-41.936,5.462V216.042z"/>
</g>
<g opacity="0.3">
	<path fill="#FFFFFF" d="M0,210.734c28.405-4.102,57.164-11.046,88.05-9.908c13.555,0.499,67.676-3.525,81.42-3.981
		c6.414,0,21.393,2.959,28.405,4.557c9.206,2.098,20.616,6.836,30.237,6.836c9.163,0,19.011-0.962,27.888-2.803v0.625
		c-8.129,1.398-18.895,2.884-28.058,2.884c-9.621,0-21.031-4.738-30.237-6.836c-7.012-1.598-21.991-4.557-28.405-4.557
		c-13.744,0.456-67.693,4.545-81.249,4.081c-31.778-1.088-59.645,5.618-88.05,9.72L0,210.734z"/>
</g>
<g opacity="0.3">
	<path fill="#FFFFFF" d="M0,205.451c28.099-17.341,84.714-9.973,97.083-10.884c8.247-0.911,50.396-4.557,58.642-5.013
		c13.286-0.911,26.114,1.823,38.942,4.102c11.454,2.279,21.533,7.747,33.444,8.203c8.705,0,19.025-1.182,27.888-1.923l0,0.609
		c-8.879,0.617-19.354,2.02-28.058,2.02c-11.912-0.456-21.991-5.924-33.444-8.203c-12.828-2.279-25.656-5.013-38.942-4.102
		c-8.247,0.456-50.396,4.102-58.642,5.013c-12.37,0.911-71.046-5.899-96.913,10.771"/>
</g>
<g opacity="0.3">
	<path fill="#FFFFFF" d="M0,188.588c9.163-1.823,24.239-0.858,33.402-1.314c10.537-0.456,21.075-0.911,31.154-1.367
		c12.37-0.456,22.449-2.734,34.361-0.911c10.079,1.367,81.549-13.216,103.082-2.734c10.079,4.557,14.202,14.583,27.489,15.039
		c8.705,0,17.963-1.046,26.513-2.741v0.578c-9.035,1.413-17.979,2.869-26.684,2.869c-13.286-0.456-17.409-10.482-27.489-15.039
		c-21.533-10.482-93.003,4.102-103.082,2.734c-11.912-1.823-21.991,0.456-34.361,0.911c-10.079,0.456-20.616,0.911-31.154,1.367
		C24.068,188.436,9.163,187.457,0,189.28L0,188.588z"/>
</g>
<g opacity="0.3">
	<path fill="#FFFFFF" d="M0,178.342c18.784-7.747,41.19,1.641,60.432,0.274c11.454-0.456,21.991-3.19,32.986-0.911
		c10.079,2.279,58.184-5.013,68.721-6.38c12.37-1.367,23.365-1.367,35.277,1.823c10.079,3.19,13.744,13.672,25.198,16.406
		c11.454,3.19,22.397,1.107,33.386-0.974l0,0.731c-11.207,1.851-22.102,4.14-33.556,0.949
		c-11.454-2.734-15.119-13.216-25.198-16.406c-11.912-3.19-22.907-3.19-35.277-1.823c-10.537,1.367-58.642,8.659-68.721,6.38
		c-10.995-2.279-21.533,0.456-32.986,0.911C41.02,180.689,18.784,171.163,0,178.91"/>
</g>
<g opacity="0.3">
	<path fill="#FFFFFF" d="M-0.001,94.054c1.816-0.133,4.037,0.43,5.333,0.325c3.115-0.254,6.273-0.34,9.407-0.307
		c2.508,0.026,5.08,0.342,7.506,1.084c1.831,0.56,4.206,0.984,5.64,2.343c0.519,0.492,5.451,2.133,6.582,2.535
		c1.736,0.618,3.423,1.31,5.134,1.99c4.062,1.615,8.272,2.538,12.52,3.435c6.189,1.307,12.398,2.561,18.678,3.352
		c3.121,0.393,6.258,0.672,9.402,0.789c1.372,0.051,2.601-0.118,3.912-0.219c1.102-0.085,2.195,0.342,3.291,0.389
		c0.94,0.04,1.864-0.022,2.789,0.098c3.441,0.445,6.802,0.929,10.32,0.929c5.756,0,10.904-2.194,16.109-4.672
		c3.578-1.703,7.293-3.538,10.506-5.88c6.318-4.605,11.887-9.575,19.333-12.269c4.142-1.499,8.036-2.788,12.031-4.362
		c1.434-0.564,11.625-0.248,13.464-0.613c2.605-0.517,19.075-4.384,25.137-5.746c5.745-1.099,11.71-3.077,17.455-3.297
		c3.977-0.22,7.954,0.22,11.931,0.44c5.082,0.22,10.605,0.44,15.687,1.319c4.198,0.879,9.637,3.318,13.835,2.219l0,0.705
		c-4.198,1.099-9.808-1.339-14.006-2.218c-5.082-0.879-10.605-1.099-15.687-1.319c-3.977-0.22-7.954-0.659-11.931-0.44
		c-5.745,0.22-11.71,2.198-17.455,3.297c-6.062,1.362-22.532,5.229-25.137,5.746c-1.839,0.365-12.031,0.048-13.464,0.613
		c-3.995,1.573-7.889,2.863-12.031,4.362c-7.446,2.694-13.015,7.663-19.333,12.269c-3.213,2.342-6.928,4.177-10.506,5.88
		c-5.205,2.478-10.352,4.672-16.109,4.672c-3.518,0-6.878-0.484-10.32-0.929c-0.924-0.12-1.849-0.058-2.789-0.098
		c-1.095-0.047-2.189-0.473-3.291-0.389c-1.311,0.101-2.54,0.27-3.912,0.219c-3.144-0.116-6.281-0.395-9.402-0.789
		c-6.279-0.791-12.489-2.045-18.678-3.352c-4.249-0.897-8.458-1.82-12.52-3.435c-1.711-0.68-3.398-1.372-5.134-1.99
		c-1.131-0.403-6.063-2.044-6.582-2.535c-1.435-1.359-3.809-1.783-5.64-2.343c-2.426-0.742-4.998-1.058-7.506-1.084
		c-3.134-0.033-6.292,0.052-9.407,0.307c-1.296,0.106-3.098-0.339-5.162-0.413V94.054z"/>
</g>
<g opacity="0.3">
	<path fill="#FFFFFF" d="M0,75.264c8.598-3.337,21.005-3.761,29.299-0.009c2.652,1.199,5.252,2.654,7.986,3.657
		c2.97,1.09,6.219,1.467,9.384,1.985c8.026,1.314,16.468,1.479,24.498,2.78c6.876,1.114,13.891,2.632,20.818,3.891
		c4.452,0.809,9.112,0.899,13.554,1.578c3.795,0.581,7.583,0.828,11.383,0.42c3.786-0.407,8.204,0.253,11.678-1.585
		c20.769-10.989,43.649-12.087,65.744-19.34c10.163-3.077,20.106-5.495,30.49-3.077c5.524,1.319,10.482-2.858,16.006-2.638
		c4.861,0.44,9.813,6.53,15.161,5.258v0.734c-5.02,1.116-10.471-4.847-15.331-5.287c-5.524-0.22-10.482,3.957-16.006,2.638
		c-10.384-2.418-20.327,0-30.49,3.077c-22.094,7.253-44.975,8.351-65.744,19.34c-3.474,1.838-7.892,1.178-11.678,1.585
		c-3.8,0.408-7.587,0.161-11.383-0.42c-4.441-0.68-9.101-0.769-13.554-1.578c-6.927-1.259-13.942-2.777-20.818-3.891
		c-8.03-1.301-16.472-1.466-24.498-2.78c-3.165-0.518-6.413-0.896-9.384-1.985c-2.734-1.003-5.334-2.458-7.986-3.657
		C20.834,72.209,7.797,71.923,0,75.684V75.264z"/>
</g>
<g opacity="0.3">
	<path fill="#FFFFFF" d="M182.137,141.578c-0.744,11.108-2.481,21.722-7.196,31.842c-2.73,6.171-7.444,13.082-8.685,19.747
		c-0.496,3.949,0.248,7.899-0.496,11.601c-0.496,3.703-2.978,6.418-4.218,9.627c-3.226,7.405-0.744,14.81-1.985,22.462
		c-0.744,5.677-1.848,13.475-0.607,19.152h-0.469c-1.241-5.677,0.161-12.769,0.906-18.446c1.241-7.652-1.241-15.057,1.985-22.462
		c1.241-3.209,3.722-5.924,4.218-9.627c0.744-3.703-0.624-7.737-0.128-11.686c1.241-6.665,6.579-13.491,9.309-19.662
		c4.715-10.12,6.452-20.734,7.196-31.842"/>
</g>
<g opacity="0.3">
	<path fill="#FFFFFF" d="M146.792,256.009c-0.744-12.342-3.366-25.323-0.14-37.418c1.737-6.171,4.219-11.818,6.204-17.989
		c1.241-3.456,2.233-7.188,3.97-10.644c1.489-3.209,3.97-5.677,5.955-8.639c4.467-6.665,6.204-13.576,4.963-21.475
		c-0.744-4.937-2.481-9.38-2.233-14.316c0.248-4.443-0.237-14.074,1.311-18.424c2.335-6.559-6.628-18.022-10.163-22.198
		c-3.314-3.956-8.231-43.385-9.187-46.703c-1.112-3.859-2.275-7.778-3.225-11.747c-0.522-2.182-1.389-4.554-1.972-6.732
		c-2.361-8.827,0.275-15.846,2.559-24.535c0.763-2.902,2.119-5.676,3.662-8.246c1.081-1.8,2.058-5.3,2.761-6.934l0.531,0
		c-0.641,1.821-3.356,5.73-4.437,7.53c-1.543,2.57-2.387,5.18-3.15,8.082c-2.284,8.69-4.457,15.98-2.096,24.808
		c0.583,2.178,1.449,4.549,1.972,6.732c0.95,3.969,2.113,7.888,3.225,11.747c0.956,3.318,5.873,42.747,9.187,46.703
		c3.535,4.176,12.498,15.639,10.163,22.198c-1.548,4.35-1.063,13.981-1.311,18.424c-0.248,4.937,1.489,9.38,2.233,14.316
		c1.241,7.899-0.496,14.81-4.963,21.475c-1.985,2.962-4.467,5.43-5.955,8.639c-1.737,3.456-2.481,7.158-3.722,10.614
		c-1.985,6.171-4.715,11.848-6.452,18.019c-3.226,12.095-1.059,24.37-0.315,36.712H146.792z"/>
</g>
<g opacity="0.3">
	<path fill="#FFFFFF" d="M89.246,147.255c3.722,12.095,0.83,27.892-1.155,40.481c-0.993,6.418,0.993,14.07,3.226,20.241
		c0.993,2.962,2.73,4.69,2.978,8.146c0.248,1.975-0.248,4.196-0.248,6.171c-0.248,10.614-2.87,23.595-0.141,33.716h-0.564
		c-2.73-10.12,0.286-22.396,0.534-33.01c0-1.975,0.496-4.196,0.248-6.171c-0.248-3.456-1.985-5.184-2.978-8.146
		c-2.233-6.171-4.218-13.823-3.226-20.241c1.985-12.589,4.877-28.386,1.155-40.481"/>
</g>
<g opacity="0.3">
	<path fill="#FFFFFF" d="M81.391,153.426c2.978,6.665,2.978,17.525,2.233,25.177c-0.744,7.158-0.248,12.589,0.744,19.5
		s2.481,14.316,2.233,21.228c-0.248,10.614-3.555,26.31,0.415,36.678l-0.531,0c-3.97-10.367-0.302-25.358-0.054-35.972
		c0.248-6.911-1.241-14.316-2.233-21.228c-0.993-6.911-1.489-12.342-0.744-19.5c0.744-7.652,0.744-18.513-2.233-25.177"/>
</g>
<g opacity="0.3">
	<path fill="#FFFFFF" d="M0,171.281c4.996,0.049,23.574,0.164,28.04,0.164c7.444,0,15.137,0.494,22.581,0.987
		c20.596,1.975,74.001-2.252,77.978-3.131c3.314-0.879,6.628-1.538,10.163-2.198c9.501-2.198,19.222-3.956,29.165-3.736
		c8.838,0.22,19.001,0.22,27.618,2.418c11.268,3.297,18.559,13.187,29.828,15.165c7.07,1.319,12.815,1.758,19.885,0.22
		c3.535-0.879,6.935-1.473,10.742-2.792l0,0.558c-3.785,1.32-7.377,2.061-10.912,2.94c-7.07,1.538-12.815,1.099-19.885-0.22
		c-11.268-1.978-18.559-11.868-29.828-15.165c-8.617-2.198-18.78-2.198-27.618-2.418c-9.943-0.22-19.664,1.538-29.165,3.736
		c-3.535,0.659-6.849,1.319-10.163,2.198c-3.977,0.879-57.382,5.106-77.978,3.131c-7.444-0.494-15.137-0.987-22.581-0.987
		c-4.467,0-23.574-0.104-27.87-0.228"/>
</g>
<g opacity="0.3">
	<path fill="#FFFFFF" d="M0,166.887c6.7-2.962,20.348-3.341,27.792-3.094c8.685,0.494,17.618,0.987,26.551,1.481
		c12.407,0.741,25.311,0,37.718,1.975c12.407,1.975,51.12-7.398,56.423-8.717c4.64-0.879,9.28-1.758,13.92-2.857
		c5.965-1.319,12.152-0.22,17.897,0c4.861,0.22,9.059,0.44,13.699,1.978c6.407,2.418,11.931,5.055,17.013,9.451
		c4.419,3.736,7.733,4.615,13.257,5.275c5.745,0.659,10.826,5.055,16.792,5.055c5.303,0,9.416-3.573,14.94-2.474v0.57
		c-5.524-1.099-9.808,2.61-15.11,2.61c-5.966,0-11.047-4.396-16.792-5.055c-5.524-0.659-8.838-1.538-13.257-5.275
		c-5.082-4.396-10.605-7.033-17.013-9.451c-4.64-1.538-8.838-1.758-13.699-1.978c-5.745-0.22-11.931-1.319-17.897,0
		c-4.64,1.099-9.28,1.978-13.92,2.857c-5.303,1.319-44.016,10.692-56.423,8.717s-25.311-1.234-37.718-1.975
		c-8.933-0.494-17.866-0.987-26.551-1.481C20.177,164.252,6.7,164.542,0,167.504L0,166.887z"/>
</g>
<g opacity="0.3">
	<path fill="#FFFFFF" d="M0,163.825c16.699-4.666,61.432-3.755,62.316-3.755c11.047,0.44,21.874-1.758,33.142-0.879
		c6.849,0.659,13.257,3.077,20.327,2.198c4.861-0.659,9.722-2.198,14.361-3.516c20.548-5.714,42.2-13.626,63.411-6.593
		c11.047,3.516,19.443,12.747,30.048,16.264c5.745,1.978,11.489,5.495,17.455,6.154c5.524,0.659,9.858-2.182,14.94-2.402v0.617
		c-5.082,0.22-9.587,3.151-15.11,2.491c-5.966-0.659-11.71-4.176-17.455-6.154c-10.605-3.516-19.001-12.747-30.048-16.264
		c-21.211-7.033-42.863,0.879-63.411,6.593c-4.64,1.319-9.501,2.857-14.361,3.516c-7.07,0.879-13.478-1.538-20.327-2.198
		c-11.268-0.879-22.094,1.319-33.142,0.879c-0.884,0-45.842-1.493-62.145,3.568V163.825z"/>
</g>
<g opacity="0.3">
	<path fill="#FFFFFF" d="M0,158.196c8.409-1.907,22.829-5.264,31.266-6.251c3.722-0.494,7.444-0.987,11.166-0.987
		c4.467-0.247,13.068,0.446,17.011,0.541c9.781,0.236,19.443,0.659,29.165,2.857c13.478,3.077,24.967,5.055,38.002-1.099
		c4.861-2.198,9.501-5.055,15.024-6.374c6.628-1.758,13.478-2.198,20.327-3.516c10.826-1.758,22.536-3.297,33.142,0.879
		c5.745,2.198,11.931,7.033,17.234,10.33c5.303,3.516,10.826,5.714,16.792,7.912c9.059,3.297,17.586,6.704,26.871,4.385v0.641
		c-8.66,2.304-17.983-1.023-27.041-4.319c-5.965-2.198-11.489-4.396-16.792-7.912c-5.303-3.297-11.489-8.132-17.234-10.33
		c-10.605-4.176-22.315-2.637-33.142-0.879c-6.849,1.319-13.699,1.758-20.327,3.516c-5.524,1.319-10.163,4.176-15.024,6.374
		c-13.036,6.154-24.525,4.176-38.002,1.099c-9.722-2.198-19.384-2.622-29.165-2.857c-3.943-0.095-12.544-0.788-17.011-0.541
		c-3.722,0-7.444,0.494-11.166,0.987C22.659,153.638,8.057,156.69,0,158.828V158.196z"/>
</g>
<g opacity="0.3">
	<path fill="#FFFFFF" d="M0,146.42c10.082-0.346,25.807-0.646,35.484-1.139c10.918-0.741,31.433-0.494,34.785,0.064
		c10.266,1.709,20.106,3.297,30.048,5.934c11.047,2.637,20.769,1.099,30.269-5.055c9.501-5.934,19.885-7.473,30.711-9.231
		c9.722-1.538,20.327-2.857,30.048-1.538c12.152,1.538,17.676,12.747,28.723,17.363c7.291,3.077,14.803,5.055,22.315,8.132
		c4.419,1.538,8.298,4.243,13.614,2.861l0,0.578c-4.879,1.32-9.366-1.194-13.785-2.733c-7.512-3.077-15.024-5.055-22.315-8.132
		c-11.047-4.615-16.571-15.824-28.723-17.363c-9.722-1.319-20.327,0-30.048,1.538c-10.826,1.758-21.211,3.297-30.711,9.231
		c-9.501,6.154-19.222,7.692-30.269,5.055c-9.943-2.637-19.782-4.225-30.048-5.934c-3.352-0.558-23.867-0.805-34.785-0.064
		c-9.678,0.494-25.8,0.433-35.314,0.917"/>
</g>
<g opacity="0.3">
	<path fill="#FFFFFF" d="M0,137.378c10.422-1.728,25.311,0.991,36.229,1.485c9.678,0.247,40.006,4.944,44.425,6.043
		c3.977,1.099,8.838,0.659,12.815,0.659c8.175-0.22,16.571-0.44,24.746,0c12.152,0.659,19.001-10.989,29.828-14.286
		c7.07-2.198,14.803-1.319,22.315-1.978c5.303-0.44,10.605-1.099,15.908-1.099c11.268,0.22,22.315,6.374,31.595,11.868
		c7.07,4.396,14.803,8.132,21.653,12.527c5.082,3.516,10.079,5.807,16.487,5.587v0.628c-6.407,0.22-11.575-1.993-16.657-5.51
		c-6.849-4.396-14.582-8.132-21.653-12.527c-9.28-5.495-20.327-11.648-31.595-11.868c-5.303,0-10.605,0.659-15.908,1.099
		c-7.512,0.659-15.245-0.22-22.315,1.978c-10.826,3.297-17.676,14.945-29.828,14.286c-8.175-0.44-16.571-0.22-24.746,0
		c-3.977,0-8.838,0.44-12.815-0.659c-4.419-1.099-34.748-5.796-44.425-6.043C25.14,139.075,10.422,136.157,0,137.885L0,137.378z"/>
</g>
<g opacity="0.3">
	<path fill="#FFFFFF" d="M0,127.557c3.97-0.741,10.174,2.216,14.144,2.957c13.4,2.468,27.048,4.443,40.447,6.665
		c13.896,2.222,31.351,1.674,45.727,2.012c5.027,0.118,11.931,1.319,16.571,0.879c5.524-0.659,9.722-1.099,14.361-4.396
		c18.559-12.527,43.305-18.462,64.958-11.209c10.605,3.516,23.199,7.912,32.7,13.626c8.396,5.275,17.916,14.459,27.092,14.945v0.398
		c-9.504-0.712-18.866-9.362-27.262-14.637c-9.501-5.714-22.094-10.11-32.7-13.626c-21.653-7.253-46.398-1.319-64.958,11.209
		c-4.64,3.297-8.838,3.736-14.361,4.396c-4.64,0.44-11.544-0.761-16.571-0.879c-14.376-0.339-31.831,0.209-45.727-2.012
		c-13.4-2.222-27.048-4.196-40.447-6.665c-3.97-0.74-10.003-3.952-13.974-3.211L0,127.557z"/>
</g>
<g opacity="0.3">
	<path fill="#FFFFFF" d="M0,120.374c5.268-0.936,20.1,1.21,24.814,2.197c12.159,2.222,24.07,4.196,36.229,5.924
		c7.444,1.234,14.64,2.715,22.085,3.703c5.707,0.987,13.4,1.234,18.611,3.456l2.115,1.559c6.628,4.835,20.106-3.736,25.851-6.813
		c10.826-5.714,20.99-9.231,32.921-12.308c11.489-3.077,22.757-0.22,34.025,1.978c4.419,0.879,8.396,0.879,12.594,1.978
		c5.745,1.538,11.489,4.396,16.792,7.253c5.745,3.077,11.268,6.593,16.792,10.33c3.535,2.198,8.754,6.548,13.172,6.768v0.505
		c-4.419-0.22-9.808-4.369-13.343-6.567c-5.524-3.736-11.047-7.253-16.792-10.33c-5.303-2.857-11.047-5.714-16.792-7.253
		c-4.198-1.099-8.175-1.099-12.594-1.978c-11.268-2.198-22.536-5.055-34.025-1.978c-11.931,3.077-22.094,6.593-32.921,12.308
		c-5.745,3.077-19.222,11.648-25.851,6.813l-2.115-1.559c-5.211-2.222-12.903-2.468-18.611-3.456
		c-7.444-0.987-14.64-2.468-22.085-3.703c-12.159-1.728-24.07-3.703-36.229-5.924C19.929,122.29,4.873,119.706,0,120.769V120.374z"
		/>
</g>
<g opacity="0.3">
	<path fill="#FFFFFF" d="M205.527,256.009c1.374-9.115,7.467-19.059,9.757-28.174c3.665-11.849,3.207-24.154-1.374-36.003
		c-4.123-11.393-10.079-21.875-3.665-33.724c5.04-10.026,18.784-16.406,21.075-27.799c1.374-8.203-2.749-10.937-6.872-16.406
		c-3.665-5.924-4.123-10.937-2.749-17.773l0.39-3.672c-0.248-6.665,1.489-13.329,0.744-19.994
		c-0.993-7.158-3.474-13.576-3.722-20.734c-0.496-15.057-4.467-30.361-17.122-39.741c-3.474-2.715-10.918-9.019-11.663-11.981
		l-0.678,0c0.744,2.962,8.696,9.971,12.17,12.687c12.655,9.38,16.626,24.684,17.122,39.741c0.248,7.158,2.73,13.576,3.722,20.734
		c0.744,6.665-0.993,13.329-0.744,19.994l-0.39,3.672c-1.374,6.836-0.916,11.849,2.749,17.773c4.123,5.469,8.247,8.203,6.872,16.406
		c-2.291,11.393-16.035,17.773-21.075,27.799c-6.414,11.849-0.458,22.331,3.665,33.724c4.581,11.849,5.04,24.154,1.374,36.003
		c-2.291,9.115-8.764,18.354-10.138,27.468H205.527z"/>
</g>
<g opacity="0.3">
	<path fill="#FFFFFF" d="M212.554,256.009c1.374-10.026,10.061-19.059,10.061-29.541c0-11.849-1.374-22.786-5.498-34.635
		c-3.665-11.393-9.163-25.521-0.458-35.547c7.33-9.115,17.868-16.862,19.242-29.622c0.916-9.115-6.414-15.039-9.163-23.242
		s2.291-15.039,2.291-22.331l0.008-3.936c-1.985-22.956-5.955-49.12-21.837-66.892c-2.73-3.209-8.307-4.954-8.982-10.253
		l-0.561,0.006c1.016,6.301,6.643,7.744,9.373,10.953c15.881,17.772,19.851,43.937,21.837,66.892l-0.008,3.936
		c0,7.292-5.04,14.128-2.291,22.331s10.079,14.128,9.163,23.242c-1.374,12.76-11.912,20.508-19.242,29.622
		c-8.705,10.026-3.207,24.154,0.458,35.547c4.123,11.849,5.498,22.786,5.498,34.635c0,10.482-7.871,18.809-9.245,28.835H212.554z"/>
</g>
<g opacity="0.3">
	<path fill="#FFFFFF" d="M219.772,256.009c3.665-6.38,7.881-14.046,9.256-21.338c0.916-5.469-2.291-12.76-2.749-18.229
		c-0.458-7.292-1.374-12.305-4.123-18.685c-9.163-22.786,4.581-46.94,17.409-65.625c3.665-5.469,7.113-9.275,2.749-14.128
		c-11.617-12.919-4.123-36.914-6.872-50.13c-3.207-13.672-14.595-46.011-14.595-46.011c-3.97-7.652-14.485-17.391-15.296-21.854
		h-0.575c2.87,7.613,11.731,14.908,15.701,22.56c0,0,11.388,32.34,14.595,46.011c2.749,13.216-4.745,37.211,6.872,50.13
		c4.364,4.853,0.916,8.659-2.749,14.128c-12.828,18.685-26.572,42.838-17.409,65.625c2.749,6.38,3.665,11.393,4.123,18.685
		c0.458,5.469,3.665,12.76,2.749,18.229c-1.374,7.292-4.916,14.252-8.581,20.632H219.772z"/>
</g>
<g opacity="0.3">
	<path fill="#FFFFFF" d="M224.757,256.009c6.872-10.026,12.06-18.604,10.227-31.364c-1.374-12.305-7.788-23.698-10.079-36.003
		c-2.291-13.672-1.374-24.154,6.872-35.091c6.872-9.115,11.454-20.963,14.202-31.901c2.749-11.393-4.123-15.95-5.956-26.432
		c-1.374-10.937,5.498-18.685,0-30.078c-4.581-9.115-7.33-15.039-9.163-25.065c-1.374-7.292-8.525-23.642-8.525-23.642
		c-2.73-6.418-9.025-9.227-9.152-16.424l-0.63,0.008c0.68,8.333,6.882,10.703,9.612,17.121c0,0,7.15,16.351,8.525,23.642
		c1.833,10.026,4.581,15.95,9.163,25.065c5.498,11.393-1.374,19.141,0,30.078c1.833,10.482,8.705,15.039,5.956,26.432
		c-2.749,10.937-7.33,22.786-14.202,31.901c-8.247,10.937-9.163,21.419-6.872,35.091c2.291,12.305,8.705,23.698,10.079,36.003
		c1.833,12.76-2.665,20.632-9.537,30.658H224.757z"/>
</g>
<g opacity="0.3">
	<path fill="#FFFFFF" d="M198.23,256.009c0.458-21.875,22.552-45.947,12.473-66.455c-5.956-11.849-8.247-21.875-2.749-34.635
		c4.581-9.57,25.648-22.532,15.119-31.901c-10.16-9.04-8.429-26.363-7.684-32.041c0.496-4.69,0.993-9.873,0.496-14.563
		c-0.248-4.937-1.737-9.873-2.481-15.057c-0.744-5.43,0.248-10.861-0.248-16.291c-0.496-6.171-2.73-13.082-5.955-18.513
		c-4.218-7.158-18.363-18.019-18.363-18.019c-2.233-2.222-2.233-5.563-3.474-8.525h-0.543c1.241,2.962,1.614,7.009,3.847,9.231
		c0,0,14.144,10.861,18.363,18.019c3.226,5.43,5.459,12.342,5.955,18.513c0.496,5.43-0.496,10.861,0.248,16.291
		c0.744,5.184,2.233,10.12,2.481,15.057c0.496,4.69,0,9.873-0.496,14.563c-0.744,5.677-2.475,23.001,7.684,32.041
		c10.529,9.368-10.537,22.331-15.119,31.901c-5.498,12.76-3.207,22.786,2.749,34.635c10.079,20.508-12.469,43.874-12.928,65.749
		H198.23z"/>
</g>
<g opacity="0.3">
	<path fill="#FFFFFF" d="M190.292,256.009c-2.233-11.848,3.756-26.311,7.974-37.171c5.707-14.316,7.692-25.918,4.218-41.222
		c-1.489-7.405-1.489-17.525,1.737-24.684c3.226-7.405,21.312-21.338,4.963-37.025c-4.545-4.361-1.737-13.082-1.489-19.006
		c0.248-9.133,1.241-17.772-1.241-26.905c-1.737-6.665-1.52-17.654-1.489-18.759c0.022-0.781,2.233-18.513-4.715-25.177
		c-4.963-4.443-13.729-11.259-17.122-16.044c-3.134-4.42-2.498-4.576-2.498-10.006h-0.419c0,5.43-0.388,6.292,2.747,10.712
		c3.393,4.785,12.159,11.601,17.122,16.044c6.948,6.665,4.737,24.397,4.715,25.177c-0.031,1.105-0.248,12.095,1.489,18.759
		c2.481,9.133,1.489,17.772,1.241,26.905c-0.248,5.924-3.057,14.645,1.489,19.006c16.35,15.687-1.737,29.62-4.963,37.025
		c-3.226,7.158-3.226,17.278-1.737,24.684c3.474,15.304,1.489,26.905-4.218,41.222c-4.218,10.861-10.682,24.617-8.448,36.465
		H190.292z"/>
</g>
<g opacity="0.3">
	<path fill="#FFFFFF" d="M176.527,256.009c-0.993-10.367,1.392-22.855,2.136-33.222c0.993-13.576,10.67-25.671,15.881-38.013
		c3.474-8.639,2.481-17.525,3.722-26.411c0.744-5.677,0.248-11.601,2.481-17.032c1.737-4.443,5.707-9.38,4.963-13.576l-0.496-2.468
		c-0.744-1.975-2.233-3.456-3.226-5.677c-1.241-2.962-1.241-6.418-1.737-9.627c-0.744-6.665-0.993-13.576-0.744-20.241
		c0.248-5.677,1.737-11.108,1.985-16.785c0.248-3.703-1.241-6.665-1.737-10.367c-0.248-2.962-0.248-5.924-0.744-8.886
		c-0.993-6.911-3.226-13.576-5.459-20.241c-1.489-4.443-3.474-7.405-6.948-10.367c-2.978-2.468-7.097-4.499-8.933-7.652
		c-2.3-3.949-1.38-11.487-1.132-15.436l-0.531,0c-0.248,3.949-0.807,12.193,1.493,16.142c1.836,3.153,5.955,5.184,8.933,7.652
		c3.474,2.962,5.459,5.924,6.948,10.367c2.233,6.665,4.467,13.329,5.459,20.241c0.496,2.962,0.496,5.924,0.744,8.886
		c0.496,3.703,1.985,6.665,1.737,10.367c-0.248,5.677-1.737,11.108-1.985,16.785c-0.248,6.665,0,13.576,0.744,20.241
		c0.496,3.209,0.496,6.665,1.737,9.627c0.993,2.222,2.481,3.703,3.226,5.677l0.496,2.468c0.744,4.196-3.226,9.133-4.963,13.576
		c-2.233,5.43-1.737,11.354-2.481,17.032c-1.241,8.886-0.248,17.772-3.722,26.411c-5.211,12.342-14.889,24.437-15.881,38.013
		c-0.744,10.367-3.49,22.149-2.497,32.516H176.527z"/>
</g>
<g opacity="0.3">
	<path fill="#FFFFFF" d="M185.355,256.009c-2.233-8.392-3.962-22.114-0.985-30.26c4.467-12.342,13.152-23.943,16.377-36.778
		c2.73-10.367-2.481-21.228,0-31.842c1.241-4.69,1.985-10.367,3.97-14.81c1.489-3.949-2.481-19.994-8.437-20.734
		c-2.978-0.494-6.452-0.741-9.181-2.715c-1.241-0.987-1.737-2.715-2.978-3.703c-1.489-1.234-3.97-1.728-5.211-3.703
		c-2.73-3.703-1.737-12.835-0.993-17.278c1.241-6.911,1.737-13.329,0.248-19.994c-2.233-8.886-4.911-16.62-4.663-25.506
		c0.248-6.418-1.737-9.873-6.948-13.576c-4.715-3.456-4.704-29.917-2.471-35.101l-0.729,0c-2.233,5.184-1.685,31.019,3.029,34.475
		c5.211,3.703,7.196,7.158,6.948,13.576c-0.248,8.886,2.43,16.62,4.663,25.506c1.489,6.665,0.993,13.082-0.248,19.994
		c-0.744,4.443-1.737,13.576,0.993,17.278c1.241,1.975,3.722,2.468,5.211,3.703c1.241,0.987,1.737,2.715,2.978,3.703
		c2.73,1.975,6.204,2.222,9.181,2.715c5.955,0.741,9.926,16.785,8.437,20.734c-1.985,4.443-2.73,10.12-3.97,14.81
		c-2.481,10.614,2.73,21.475,0,31.842c-3.226,12.835-11.911,24.437-16.377,36.778c-2.978,8.146-1.614,22.494,0.62,30.886H185.355z"
		/>
</g>
<g opacity="0.3">
	<path fill="#FFFFFF" d="M151.277,256.009c0.836-5.224,0.635-15.436,0.098-21.406c-0.61-6.784,2.245-14.097,4.344-20.378
		c3.001-8.979,5.342-18.052,8.604-26.953c3.191-8.707,8.112-16.174,9.012-25.402c0.5-5.13-0.168-10.473,0.071-15.605
		c0.221-4.745,1.457-9.85,1.505-14.484c0.05-4.863-5.228-18.418-6.424-20.777c-1.001-1.975-1.252-3.728-2.757-5.425
		c-0.841-0.949-2.674-1.61-3.211-2.772c-0.88-1.904,0.726-3.172,0.635-4.96c-0.001-0.013-0.124-2.427-0.124-2.427
		c-0.248-5.677,2.233-10.367,1.489-16.044c-0.496-5.43-0.496-10.614-0.744-16.044c-0.248-5.677-11.415-28.386-13.152-35.544
		c-1.737-8.392,8.237-21.581,7.85-27.778l0.487,0c-0.332,8.767-9.678,19.5-7.941,27.892c1.737,7.158,12.903,29.867,13.152,35.544
		c0.248,5.43,0.248,10.614,0.744,16.044c0.744,5.677-1.737,10.367-1.489,16.044c0,0,0.123,2.414,0.124,2.427
		c0.091,1.787-1.515,3.055-0.635,4.96c0.537,1.161,2.37,1.823,3.211,2.772c1.505,1.697,1.756,3.45,2.757,5.425
		c1.196,2.359,6.474,15.915,6.424,20.777c-0.048,4.634-1.284,9.738-1.505,14.484c-0.239,5.132,0.43,10.476-0.071,15.605
		c-0.9,9.229-5.822,16.695-9.012,25.402c-3.262,8.901-5.603,17.974-8.604,26.953c-2.099,6.28-4.954,13.594-4.344,20.378
		c0.537,5.97,0.857,16.068,0.021,21.292H151.277z"/>
</g>
<g opacity="0.3">
	<path fill="#FFFFFF" d="M-0.001,22.914c2.481-0.494,7.424-2.566,9.678-3.026c5.157-1.053,10.918,0,16.129-0.494
		c5.211-0.247,10.174-1.234,15.385-1.728c10.174-0.987,21.34,0.494,31.514,1.481c5.955,0.741,11.911,1.234,17.618,1.728
		c6.948,0.494,12.903-1.234,19.603-1.975c10.422-1.481,20.458,1.28,31.018-0.247c4.655-0.673,13.063-3.859,18.365-4.078
		c3.977-0.22,7.954,0.22,11.71,0c9.28-0.22,17.897-2.857,27.176-2.857c10.384-0.22,20.548,2.637,30.711,1.319
		c5.082-0.879,9.722-0.659,14.361,1.099c4.64,1.978,8.264,5.135,12.731,4.13v0.595c-5.045,0.691-8.261-2.041-12.901-4.019
		c-4.64-1.758-9.28-1.978-14.361-1.099c-10.163,1.319-20.327-1.538-30.711-1.319c-9.28,0-17.897,2.637-27.176,2.857
		c-3.756,0.22-7.733-0.22-11.71,0c-5.303,0.22-13.711,3.405-18.365,4.078c-10.56,1.527-20.596-1.234-31.018,0.247
		c-6.7,0.741-12.655,2.468-19.603,1.975c-5.707-0.494-11.663-0.987-17.618-1.728c-10.174-0.987-21.34-2.468-31.514-1.481
		c-5.211,0.494-10.174,1.481-15.385,1.728c-5.211,0.494-10.972-0.559-16.129,0.494C7.252,21.054,2.481,22.905,0,23.398
		L-0.001,22.914z"/>
</g>
<g opacity="0.3">
	<path fill="#FFFFFF" d="M0,30.18c2.233-0.987,8.051-2.81,10.174-3.627c9.105-3.503,22.829,0.987,32.507,0.247
		c10.918-0.987,21.092,2.468,32.01,2.715c12.407,0.494,24.07-2.222,36.229-2.962c5.955-0.247,12.159-0.247,18.363-1.234
		c4.715-0.741,12.037-2.582,16.108-3.051c7.466-0.86,15.466,1.978,22.978-0.22c6.849-1.978,12.815-5.055,19.885-5.934
		c12.594-1.758,23.199-1.978,35.793,0.44c6.628,1.319,12.815,0.44,19.443,2.857c3.977,1.538,8.177,4.406,12.51,3.499l0,0.498
		c-4.613,1.034-8.703-1.753-12.68-3.291c-6.628-2.418-12.815-1.538-19.443-2.857c-12.594-2.418-23.199-2.198-35.793-0.44
		c-7.07,0.879-13.036,3.956-19.885,5.934c-7.512,2.198-15.512-0.64-22.978,0.22c-4.072,0.469-11.394,2.31-16.108,3.051
		c-6.204,0.987-12.407,0.987-18.363,1.234c-12.159,0.741-23.822,3.456-36.229,2.962c-10.918-0.247-21.092-3.703-32.01-2.715
		c-9.678,0.741-23.402-3.75-32.507-0.247C7.88,28.075,2.233,29.755,0,30.742V30.18z"/>
</g>
<g opacity="0.3">
	<path fill="#FFFFFF" d="M-0.001,18.273c10.918-2.715,24.567-5.791,35.733-6.284c12.655-0.741,25.062,1.481,37.718,2.222
		c20.596,1.234,41.192,0,61.788-1.481c0,0,42.853-4.967,64.064-5.407c9.059-0.22,17.897-1.758,26.955-1.978
		c5.303,0,10.163,1.538,15.245,3.077c4.419,1.538,11.234,3.881,14.498,2.908v0.641c-4.186,0.816-10.25-1.304-14.669-2.843
		c-5.082-1.538-9.943-3.077-15.245-3.077c-9.059,0.22-17.897,1.758-26.955,1.978c-21.211,0.44-64.064,5.407-64.064,5.407
		c-20.596,1.481-41.192,2.715-61.788,1.481c-12.655-0.741-25.062-2.962-37.718-2.222c-11.166,0.494-24.645,3.426-35.563,6.141
		V18.273z"/>
</g>
<g opacity="0.3">
	<path fill="#FFFFFF" d="M0,11.336c18.656-2.824,40.95-6.027,60.795-5.518c12.197,0.313,33.558,1.724,48.803-0.254
		c13.478-1.758,26.071-3.077,39.77-2.418c16.129,0.879,31.595,0.659,47.503-1.099c11.489-1.099,21.874-2.637,33.363-0.659
		c8.617,1.538,24.768,2.711,25.766,4.8v0.714c-0.436-2.256-17.32-3.269-25.937-4.808c-11.489-1.978-21.874-0.44-33.363,0.659
		c-15.908,1.758-31.374,1.978-47.503,1.099c-13.699-0.659-26.292,0.659-39.77,2.418C94.182,8.248,72.821,6.837,60.625,6.524
		C40.78,6.015,19.391,8.928,0,11.977V11.336z"/>
</g>
<g opacity="0.3">
	<path fill="#FFFFFF" d="M136.105,256.009c-0.047-0.923-1.253-3.402-1.303-4.406c-0.05-0.999-0.083-2.315-0.083-3.316
		c0-2.004,0.153-3.923,0.354-5.88c0.47-4.573,1.318-8.966,2.44-13.471c1.1-4.419,2.845-8.671,3.712-13.012
		c0.437-2.189,0.864-4.512,1.314-6.756c0.559-2.791,1.753-5.73,2.586-8.466c1.07-3.516,1.436-7.13,2.029-10.757
		c1.171-7.161,1.553-14.462,1.236-21.709c-0.496-11.601,0.744-24.437-3.474-35.297c-1.737-4.443-1.241-9.133-2.73-14.07
		c-1.241-4.196-7.444-16.044-7.444-16.044c-2.73-4.69-2.978-28.386-5.955-35.791c-5.211-13.576-7.196-25.177-0.248-38.506
		c2.978-5.43,4.309-8.78,4.557-14.951c0.248-4.443,3.1-9.245,2.661-13.568l0.392,0c0.046,5.127-2.58,9.565-2.828,14.009
		c-0.248,6.171-1.976,9.786-4.954,15.216c-6.948,13.329-4.963,24.93,0.248,38.506c2.978,7.405,3.226,31.101,5.955,35.791
		c0,0,6.204,11.848,7.444,16.044c1.489,4.937,0.993,9.627,2.73,14.07c4.218,10.861,2.978,23.696,3.474,35.297
		c0.317,7.247-0.065,14.548-1.236,21.709c-0.593,3.626-1.395,7.222-2.465,10.738c-0.833,2.736-2.116,5.598-2.675,8.389
		c-0.45,2.244-0.733,4.636-1.17,6.825c-0.867,4.341-2.676,8.532-3.776,12.951c-1.122,4.505-1.788,8.96-2.258,13.534
		c-0.201,1.958-0.262,3.896-0.262,5.9c0,1.001-0.05,2.016,0,3.016c0.05,1.004,1.323,3.082,1.37,4.006H136.105z"/>
</g>
<g opacity="0.3">
	<path fill="#FFFFFF" d="M113.292,256.009c0-5.924-1.075-12.285-0.827-18.209c0.248-6.418,0.744-13.082,0.248-19.747
		c-0.248-5.677-1.489-11.108-1.241-16.785s1.737-11.108,2.73-16.538c1.489-10.12,0.496-21.228-0.496-31.101
		c-0.496-4.69-0.248-9.133-1.489-13.823c-0.744-3.456-1.985-6.911-3.474-10.12c-0.496-1.481-0.993-2.962-1.737-4.196l-1.241-4.69
		c0.248-5.184-1.241-10.861-0.744-16.291c0.248-6.418,1.737-12.342-0.496-18.759c-1.737-4.937-2.73-8.886-2.73-14.316
		c0-5.924-3.226-10.614-4.467-16.538c-2.233-10.861,2.233-21.722,6.204-31.842c2.481-6.171,2.803-18.033,2.74-23.044l-0.547,0
		c0.063,5.012-0.187,17.13-2.669,23.3c-3.97,10.12-8.437,20.981-6.204,31.842c1.241,5.924,4.467,10.614,4.467,16.538
		c0,5.43,0.993,9.38,2.73,14.316c2.233,6.418,0.744,12.342,0.496,18.759c-0.496,5.43,0.993,11.108,0.744,16.291l1.241,4.69
		c0.744,1.234,1.241,2.715,1.737,4.196c1.489,3.209,2.73,6.665,3.474,10.12c1.241,4.69,0.993,9.133,1.489,13.823
		c0.993,9.873,1.985,20.981,0.496,31.101c-0.993,5.43-2.481,10.861-2.73,16.538c-0.248,5.677,0.993,11.108,1.241,16.785
		c0.496,6.665,0,13.329-0.248,19.747c-0.248,5.924,0.724,12.029,0.724,17.953H113.292z"/>
</g>
<g opacity="0.3">
	<path fill="#FFFFFF" d="M106.277,256.009c0.248-4.443-1.312-10.266-2.057-14.462c-0.744-5.924,0.993-12.342,1.489-18.266
		c0.496-8.146-0.993-58.006-1.737-68.127c-0.993-11.601-3.97-22.215-5.955-33.57c-0.993-5.677-1.489-10.861-0.744-16.538
		c0.496-4.443,1.985-8.392,2.73-12.589c0.744-4.69-0.744-8.639-0.993-13.329c0,0-5.211-14.316-8.189-19.5
		c-4.218-7.652-0.064-13.933,1.985-22.215c2.329-9.411,9.429-28.072,8.061-37.405l0.624,0c1.463,10.874-6.527,28.7-8.855,38.111
		c-2.05,8.282-6.204,14.563-1.985,22.215c2.978,5.184,8.189,19.5,8.189,19.5c0.248,4.69,1.737,8.639,0.993,13.329
		c-0.744,4.196-2.233,8.146-2.73,12.589c-0.744,5.677-0.248,10.861,0.744,16.538c1.985,11.354,4.963,21.968,5.955,33.57
		c0.744,10.12,2.233,59.981,1.737,68.127c-0.496,5.924-2.233,12.342-1.489,18.266c0.744,4.196,1.944,9.313,1.696,13.757H106.277z"/>
</g>
<g opacity="0.3">
	<path fill="#FFFFFF" d="M79.091,256.009c0-10.614,0.811-22.361,1.307-32.975c0.248-6.171,0.496-10.861-1.985-16.538
		c-1.737-3.949-1.985-17.032-2.481-20.487c-1.489-9.133,0.496-18.019-0.744-26.905c-0.496-4.443-1.737-8.886-2.481-13.329
		c-0.744-4.443-2.73-25.424-2.73-31.595c0-6.418,1.737-12.835,2.978-19.253c1.985-11.848,1.241-22.215-3.97-33.076
		c-3.226-6.171-7.619-12.291-5.882-19.45c1.241-4.196,4.562-13.117,2.656-17.823c-2.34-5.778,0.093-18.705,0.874-24.569l-0.547,0
		c-0.781,5.864-2.837,19.497-0.498,25.275c1.905,4.706-1.445,12.805-2.233,18.266c-1.052,7.29,2.233,12.835,5.459,19.006
		c5.211,10.861,5.955,21.228,3.97,33.076c-1.241,6.418-2.978,12.835-2.978,19.253c0,6.171,1.985,27.152,2.73,31.595
		s1.985,8.886,2.481,13.329c1.241,8.886-0.744,17.772,0.744,26.905c0.496,3.456,0.744,16.538,2.481,20.487
		c2.481,5.677,2.233,10.367,1.985,16.538c-0.496,10.614-1.675,21.655-1.675,32.269H79.091z"/>
</g>
<g opacity="0.3">
	<path fill="#FFFFFF" d="M46.224,256.009c-2.233-4.69-2.055-12.488-3.047-17.671c-0.993-5.924-1.489-12.095-1.985-18.019
		c-0.993-10.12-0.744-19.994-0.993-29.867c-0.496-9.873-3.722-18.513-5.707-27.892c-2.481-10.614-1.737-23.449-0.496-34.063
		c0-0.987-0.993-16.359-0.248-22.037c0.744-6.418,2.233-13.329,3.474-19.253c1.489-7.158,2.481-12.342,0.744-19.253
		c-1.489-5.677-1.241-11.601-3.474-16.785c-3.97-9.627-5.211-18.759-6.948-28.88C26.303,14.389,23.4,6.122,23.17,0.008h-0.359
		c0.09,5.879,3.322,15.087,4.563,22.985c1.737,10.12,2.978,19.253,6.948,28.88c2.233,5.184,1.985,11.108,3.474,16.785
		c1.737,6.911,0.744,12.095-0.744,19.253c-1.241,5.924-2.73,12.835-3.474,19.253c-0.744,5.677,0.248,21.049,0.248,22.037
		c-1.241,10.614-1.985,23.449,0.496,34.063c1.985,9.38,5.211,18.019,5.707,27.892c0.248,9.873,0,19.747,0.993,29.867
		c0.496,5.924,0.993,12.095,1.985,18.019c0.993,5.184,0.667,12.275,2.9,16.965H46.224z"/>
</g>
<g opacity="0.3">
	<path fill="#FFFFFF" d="M38.923,256.009c-4.467-22.462-5.424-45.317-7.409-68.026c-0.993-11.601-3.474-23.203-4.963-34.804
		c-1.241-11.848,0.248-46.405,1.241-52.576c1.489-7.158,2.233-13.823,3.97-20.734c1.489-6.911-1.489-11.354-2.233-18.019
		c-0.496-5.924-1.241-9.627-3.97-15.057c-1.241-3.209-1.985-6.171-2.481-9.38c-0.248-1.975,0.029-4.836-0.248-6.418
		c-1.763-10.081-6.132-23.03-6.586-30.987h-0.402c0.543,7.832,5.054,21.612,6.817,31.693c0.277,1.582,0,4.443,0.248,6.418
		c0.496,3.209,1.241,6.171,2.481,9.38c2.73,5.43,3.474,9.133,3.97,15.057c0.744,6.665,3.722,11.108,2.233,18.019
		c-1.737,6.911-2.481,13.576-3.97,20.734c-0.993,6.171-2.481,40.728-1.241,52.576c1.489,11.601,3.97,23.203,4.963,34.804
		c1.985,22.709,2.774,44.858,7.24,67.32H38.923z"/>
</g>
<g opacity="0.3">
	<path fill="#FFFFFF" d="M23.13,256.009c-2.73-23.943-4.271-49.513-8.986-73.456c-2.233-11.354-3.722-22.462-4.218-34.31
		c-0.496-9.873,4.49-45.413,6.452-55.044c1.256-6.168,2.978-12.342,2.978-18.513c0-6.418-2.181-11.866-4.218-17.772
		c-1.452-4.209-1.756-8.145-1.985-12.342c-0.27-4.936-2.233-9.38-3.226-14.316C7.444,17.913,6.524,12.103,2.554,0.008l-0.404,0
		c3.97,12.095,5.124,18.611,7.606,30.952c0.993,4.937,2.956,9.381,3.226,14.316c0.23,4.197,0.533,8.133,1.985,12.342
		c2.037,5.906,4.218,11.354,4.218,17.772c0,6.171-1.722,12.345-2.978,18.513c-1.961,9.631-6.948,45.171-6.452,55.044
		c0.496,11.848,1.985,22.956,4.218,34.31c4.715,23.943,6.108,48.807,8.837,72.75H23.13z"/>
</g>
<g opacity="0.3">
	<path fill="#FFFFFF" d="M101.49,256.009c-1.203-8.836-2.73-22.114-1.241-33.716c0.744-6.171-1.737-11.354-3.226-17.032
		c-1.737-5.924-1.737-12.342-0.744-18.266c2.233-14.563,1.853-35.755-0.154-47.446c-1.429-8.324-6.126-15.915-5.629-24.307
		l0.077-0.561c0.744-3.703,0.248-8.392,0.993-12.342c0.993-3.703,2.481-7.158,2.73-10.861c0.496-6.418-0.248-13.823-1.985-19.747
		c-1.985-7.158-7.444-12.095-9.926-18.759c-2.233-5.924,3.722-13.329,4.715-19.5c1.737-12.342,8.686-23.618,6.83-33.464h-0.609
		c2.183,3.5-2.936,22.284-6.623,34.189c-1.704,5.5-6.715,13.557-4.482,19.481c2.481,6.665,7.941,11.601,9.926,18.759
		c1.737,5.924,2.481,13.329,1.985,19.747c-0.248,3.703-1.737,7.158-2.73,10.861c-0.744,3.949-0.248,8.639-0.993,12.342l-0.077,0.561
		c-0.496,8.392,4.2,15.983,5.629,24.307c2.007,11.69,2.388,32.883,0.154,47.446c-0.993,5.924-0.993,12.342,0.744,18.266
		c1.489,5.677,3.97,10.861,3.226,17.032c-1.489,11.601-0.945,23.379,0.775,33.01H101.49z"/>
</g>
<g opacity="0.3">
	<path fill="#FFFFFF" d="M89.331,149.23c-0.248-5.677-0.496-12.095-1.241-17.525c0,0-4.715-24.684-1.241-36.285
		c2.73-8.392,2.233-13.823-0.248-21.968c-1.985-7.405-8.189-12.835-10.174-19.994c-2.481-9.873,1.745-40.119,2.669-53.449l-0.526,0
		c-0.57,7.11-4.796,44.281-2.314,54.155c1.985,7.158,8.189,12.589,10.174,19.994c2.481,8.146,2.978,13.576,0.248,21.968
		c-3.474,11.601,1.241,36.285,1.241,36.285c0.744,5.43,0.993,11.848,1.241,17.525"/>
</g>
<g opacity="0.3">
	<path fill="#FFFFFF" d="M81.887,153.673c-1.737-6.911,0.248-13.823-1.489-20.734l-0.744-3.456
		c-1.489-5.184-3.474-9.627-3.474-14.81c0-5.43,1.985-10.861,2.73-16.044c1.489-7.899,5.211-23.449-0.496-30.608
		c0,0-9.926-13.329-9.926-19.747c0-6.171,5.707-11.108,5.707-17.278c0-9.133-2.397-22.321-1.676-30.987l-0.653,0
		c-0.681,8.702,2.158,22.56,2.158,31.693c0,6.171-5.707,11.108-5.707,17.278c0,6.418,9.926,19.747,9.926,19.747
		c5.707,7.158,1.985,22.709,0.496,30.608c-0.744,5.184-2.73,10.614-2.73,16.044c0,5.184,1.985,9.627,3.474,14.81l0.744,3.456
		c1.737,6.911-0.248,13.823,1.489,20.734"/>
</g>
<g opacity="0.3">
	<path fill="#FFFFFF" d="M71.87,256.009c-0.744-11.601,0.457-25.076,0.457-36.678c0-5.677-1.985-10.861-2.233-16.291
		c0-3.949,0.993-7.899,0.248-11.848c-0.496-3.456-2.481-6.418-3.226-10.12c-1.737-9.38-1.737-54.057-1.985-56.032
		c-0.248-2.715-1.737-3.456-2.73-5.924c-1.737-4.443,0.248-10.367,1.241-15.057c1.489-7.899,0.744-16.785,2.233-24.437
		c0,0-0.744-8.146-0.993-9.38c-1.489-6.665-6.204-12.589-8.685-18.759c-2.73-6.665-1.985-30.608-1.489-37.519
		c0.248-2.715-1.276-13.211-1.371-13.955h0.649c0.095,0.745,1.536,10.643,1.24,14.167c-0.58,6.905-1.054,31.348,1.676,38.013
		c2.481,6.171,7.196,12.095,8.685,18.759c0.248,1.234,0.993,9.38,0.993,9.38c-1.489,7.652-0.744,16.538-2.233,24.437
		c-0.993,4.69-2.978,10.614-1.241,15.057c0.993,2.468,2.481,3.209,2.73,5.924c0.248,1.975,0.248,46.652,1.985,56.032
		c0.744,3.703,2.73,6.665,3.226,10.12c0.744,3.949-0.248,7.899-0.248,11.848c0.248,5.43,2.233,10.614,2.233,16.291
		c0,11.601-1.24,24.37-0.495,35.972H71.87z"/>
</g>
<g opacity="0.3">
	<path fill="#FFFFFF" d="M66.637,256.009c0-12.589-0.382-26.311-2.368-38.405c-1.489-9.133,0-18.266-0.744-27.152
		c-0.744-7.158-4.218-13.329-4.963-20.734c-0.496-6.665-3.97-48.38-3.474-54.304c0.496-6.171,2.73-12.342,3.474-18.759
		c0.993-11.848,2.73-22.462-1.985-33.816c-2.233-5.184-4.715-8.639-5.459-14.07c-0.496-4.443-0.344-8.876-0.744-13.329
		c-0.812-9.037-2.783-32.871-4.14-35.43l-0.326,0c1.301,1.551,3.484,27.099,4.296,36.136c0.4,4.453,0.248,8.886,0.744,13.329
		c0.744,5.43,3.226,8.886,5.459,14.07c4.715,11.354,2.978,21.968,1.985,33.816c-0.744,6.418-2.978,12.589-3.474,18.759
		c-0.496,5.924,2.978,47.639,3.474,54.304c0.744,7.405,4.218,13.576,4.963,20.734c0.744,8.886-0.744,18.019,0.744,27.152
		c1.985,12.095,1.998,25.111,1.998,37.7H66.637z"/>
</g>
<g opacity="0.3">
	<path fill="#FFFFFF" d="M53.481,249.832c-3.871-4.089-2.612-6.805-3.356-12.235c-0.993-5.677-1.489-10.861-1.489-16.538
		c0-11.108,0.248-22.956-1.489-33.816c-0.993-6.418-2.978-12.835-3.474-19.253c-0.248-4.69-1.489-41.222-1.489-42.949
		c0-4.69-0.993-5.924-2.233-10.12c-1.737-5.43,3.722-11.108,4.715-16.538c1.737-10.12,0.744-21.722-0.248-31.842
		c-0.248-2.468,0-6.171-0.993-8.639c-0.993-2.715-5.955-20.241-7.196-25.918c-0.993-5.184-4.467-10.12-3.474-15.304
		c0.496-3.703,2.233-6.418,0.744-10.367c-0.496-1.975-2.324-5.878-2.321-6.303l-0.336,0c0,0.426,1.99,5.035,2.486,7.009
		c1.489,3.949-0.654,6.161-1.15,9.864c-0.993,5.184,2.887,10.624,3.88,15.807c1.241,5.677,6.204,23.203,7.196,25.918
		c0.993,2.468,0.744,6.171,0.993,8.639c0.993,10.12,1.985,21.722,0.248,31.842c-0.993,5.43-6.452,11.108-4.715,16.538
		c1.241,4.196,2.233,5.43,2.233,10.12c0,1.728,1.241,38.259,1.489,42.949c0.496,6.418,2.481,12.835,3.474,19.253
		c1.737,10.861,1.489,22.709,1.489,33.816c0,5.677,0.496,10.861,1.489,16.538c0.744,5.43-0.699,8.147,3.324,12.087
		c1.279,1.253,5.159,1.622,6.945,1.749c4.436,0.317,12.788,2.213,17.205,1.701c1.545-0.179,4.623-0.635,6.171-0.784
		c6.855-0.662,14.594,1.183,21.925-0.184c13.286-1.823,26.709-0.036,39.601-0.76c11.579-0.65,23.259-3.063,35.17-3.063
		c23.823,0,52.798,6.422,75.705,0.497v-0.581c-22.907,5.924-51.711-0.622-75.535-0.622c-11.912,0-23.642,1.799-35.17,3.063
		c-14.171,1.553-26.315-1.063-39.601,0.76c-7.33,1.367-15.066-0.441-21.925,0.184c-1.615,0.147-4.832,0.564-6.443,0.747
		c-4.384,0.499-12.666-1.127-17.053-1.592C58.523,251.319,54.691,251.11,53.481,249.832z"/>
</g>
<g opacity="0.3">
	<path fill="#FFFFFF" d="M59.058,256.009c-2.73-11.601,0.248-27.051-1.241-39.146c-1.241-11.601-3.97-22.956-5.211-34.557
		c-0.744-6.171-1.241-12.342-1.489-18.513c-0.248-6.418-0.248-40.234-0.993-41.715c-1.489-2.962-2.978-5.184-2.978-8.392
		c-0.248-4.937,2.233-9.873,2.978-14.81c1.737-10.861,2.318-21.757,0.993-32.582c-0.579-4.731-4.467-12.835-5.459-18.266
		c-1.241-5.677,0-11.354-1.241-17.032c-0.993-5.43-3.474-9.873-3.722-15.551c-0.496-5.184-0.285-10.253-1.774-15.436l-0.338,0
		c1.489,5.184,1.445,10.959,1.941,16.142c0.248,5.677,2.73,10.12,3.722,15.551c1.241,5.677,0,11.354,1.241,17.032
		c0.993,5.43,4.88,13.535,5.459,18.266c1.326,10.825,0.744,21.722-0.993,32.582c-0.744,4.937-3.226,9.873-2.978,14.81
		c0,3.209,1.489,5.43,2.978,8.392c0.744,1.481,0.744,35.297,0.993,41.715c0.248,6.171,0.744,12.342,1.489,18.513
		c1.241,11.601,3.97,22.956,5.211,34.557c1.489,12.095-1.73,26.839,1,38.44H59.058z"/>
</g>
<g opacity="0.3">
	<path fill="#FFFFFF" d="M31.176,256.009c-2.978-10.861-2.639-23.595-3.632-34.703c-0.993-9.873-2.73-19.747-3.97-29.62
		c-0.993-10.614-3.97-71.582-2.73-77.506c0.744-3.949-1.985-5.924-2.233-9.627c-0.248-3.209,1.737-6.911,2.978-9.873
		c1.737-5.43,4.963-12.589,5.211-18.266c0.248-3.703-1.737-6.665-2.978-10.12c-1.489-3.456-1.489-6.665-1.985-10.367
		c-0.248-1.975-1.199-4.603-1.737-6.171c-1.732-5.05-2.73-13.823-3.97-20.981C14.64,20.875,8.244,5.419,9.179,0.008H8.741
		C8.057,6.205,14.47,21.581,15.959,29.48c1.241,7.158,2.239,15.931,3.97,20.981c0.538,1.568,1.489,4.196,1.737,6.171
		c0.496,3.703,0.496,6.911,1.985,10.367c1.241,3.456,3.226,6.418,2.978,10.12c-0.248,5.677-3.474,12.835-5.211,18.266
		c-1.241,2.962-3.226,6.665-2.978,9.873c0.248,3.703,2.978,5.677,2.233,9.627c-1.241,5.924,1.737,66.892,2.73,77.506
		c1.241,9.873,2.978,19.747,3.97,29.62c0.993,11.108,0.492,23.136,3.47,33.997H31.176z"/>
</g>
<g opacity="0.3">
	<path fill="#FFFFFF" d="M0,111.217c1.737-2.222,12.655-1.234,16.377-0.494c6.204,0.987,12.159,3.209,18.114,5.43
		c13.648,5.184,27.544,5.924,41.192,9.38c6.948,1.728,14.392,4.443,21.34,5.184c5.459,0.494,11.34-1.856,16.551-1.856l0,0
		c6.407-1.099,13.699-6.154,19.001-9.451c9.722-5.495,22.315-11.209,33.584-12.088c4.419-0.44,9.722,0,13.92,1.099
		c5.966,1.538,11.489,5.055,17.455,5.714c9.722,1.099,19.443-0.659,29.165,1.538c5.745,1.319,11.047,4.176,16.35,6.374
		c3.756,1.538,8.448,6.753,12.951,5.496v0.464c-4.832,1.027-9.366-3.716-13.122-5.255c-5.303-2.198-10.605-5.055-16.35-6.374
		c-9.722-2.198-19.443-0.44-29.165-1.538c-5.965-0.659-11.489-4.176-17.455-5.714c-4.198-1.099-9.501-1.538-13.92-1.099
		c-11.268,0.879-23.862,6.593-33.584,12.088c-5.303,3.297-12.594,8.352-19.001,9.451l0,0c-5.211,0-11.092,2.349-16.551,1.856
		c-6.948-0.74-14.392-3.456-21.34-5.184c-13.648-3.456-27.544-4.196-41.192-9.38c-5.955-2.222-11.911-4.443-18.114-5.43
		c-3.722-0.741-14.64-1.728-16.377,0.494"/>
</g>
<g opacity="0.3">
	<path fill="#FFFFFF" d="M0,117.237c4.008,0.321,28.288,1.632,30.77,2.125c10.67,2.715,21.837,4.443,32.755,6.171
		c10.918,1.975,21.332,4.723,32.25,5.958c0,0,6.489,1.497,8.473,2.486c4.934,2.46,10.874-1.819,14.851-3.577
		c3.977-1.538,8.175-2.637,12.152-4.615c10.384-5.055,20.769-11.209,32.7-12.747c3.756-0.659,7.733-0.879,11.71-0.879
		c6.628,0,12.373,2.637,18.78,4.176c10.826,2.857,21.874,1.538,32.479,5.055c6.849,2.418,11.489,5.714,17.234,9.89
		c3.535,2.418,7.562,7.085,11.847,6.149l0,0.457c-4.363,0.592-8.482-3.482-12.017-5.9c-5.745-4.176-10.384-7.473-17.234-9.89
		c-10.605-3.516-21.653-2.198-32.479-5.055c-6.407-1.538-12.152-4.176-18.78-4.176c-3.977,0-7.954,0.22-11.71,0.879
		c-11.931,1.538-22.315,7.692-32.7,12.747c-3.977,1.978-8.175,3.077-12.152,4.615c-3.977,1.758-9.869,5.757-14.803,3.297
		c-1.984-0.989-8.512-2.486-8.512-2.486c-10.918-1.234-21.34-3.703-32.259-5.677c-10.918-1.728-22.085-3.456-32.755-6.171
		c-2.481-0.494-25.875-2.14-30.599-2.239L0,117.237z"/>
</g>
<g opacity="0.3">
	<path fill="#FFFFFF" d="M0,106.794c-0.102-0.064,8.767,0.489,10.554,0.67c2.182,0.22,4.419,0.147,6.575,0.389
		c1.736,0.195,3.286,0.735,4.996,1.082c3.897,0.791,7.776,1.878,11.552,3.055c3.485,1.085,6.895,1.854,10.358,3.182
		c4.005,1.537,8.211,3.032,12.374,3.547c4.53,0.56,8.958,1.792,13.485,2.416c10.201,1.406,20.491,2.885,30.817,2.439
		c9.238-0.398,19.812-2.436,25.678-10.318c4.021-5.403,11.268-5.934,17.455-7.912c5.524-1.758,10.384-5.055,15.908-6.154
		c9.501-1.978,20.548,2.637,29.386,5.714c6.186,1.978,11.268,2.857,17.676,1.978c4.198-0.659,8.617-0.879,13.036-0.659
		c5.965,0.44,11.931-0.44,18.338-0.44c4.861,0,12.078,1.013,17.812,1.015l0,0.594c-4.379,0.221-13.122-0.903-17.983-0.903
		c-6.407,0-12.373,0.879-18.338,0.44c-4.419-0.22-8.838,0-13.036,0.659c-6.407,0.879-11.489,0-17.676-1.978
		c-8.838-3.077-19.885-7.692-29.386-5.714c-5.524,1.099-10.384,4.396-15.908,6.154c-6.186,1.978-13.433,2.509-17.455,7.912
		c-5.866,7.882-16.441,9.92-25.678,10.318c-10.326,0.445-20.616-1.033-30.817-2.439c-4.527-0.624-8.955-1.856-13.485-2.416
		c-4.163-0.515-8.369-2.011-12.374-3.547c-3.463-1.329-6.873-2.097-10.358-3.182c-3.777-1.176-7.656-2.264-11.552-3.055
		c-1.71-0.347-3.26-0.887-4.996-1.082c-2.157-0.242-4.393-0.169-6.575-0.389c-1.787-0.18-10.485-0.847-10.383-0.783L0,106.794z"/>
</g>
<g opacity="0.3">
	<path fill="#FFFFFF" d="M0.993,105.293c14.64-3.456,34.492,4.937,49.629,8.639c11.911,3.209,22.333,5.43,34.988,5.43
		c9.926,0,17.301,1.986,27.227-0.729l0.96-0.102c6.628-3.516,12.152-8.791,18.78-12.308c5.082-2.418,9.943-4.615,15.024-6.593
		c5.966-2.198,11.71-1.758,17.676-2.637c4.64-0.879,8.617-1.099,13.478-0.44c5.745,0.659,11.268,2.857,17.013,3.297
		c10.163,0.659,21.874,3.297,31.595,0.22c5.745-1.978,10.163-0.22,16.129,0.22c3.756,0.22,8.754-0.207,12.51-0.647v0.562
		c-3.756,0.44-8.924,1.01-12.68,0.79c-5.966-0.44-10.384-2.198-16.129-0.22c-9.722,3.077-21.432,0.44-31.595-0.22
		c-5.745-0.44-11.268-2.637-17.013-3.297c-4.861-0.659-8.838-0.44-13.478,0.44c-5.965,0.879-11.71,0.44-17.676,2.637
		c-5.082,1.978-9.943,4.176-15.024,6.593c-6.628,3.516-12.152,8.791-18.78,12.308l-0.96,0.102
		c-9.926,2.715-17.301,0.729-27.227,0.729c-12.655,0-23.077-2.222-34.988-5.43c-15.137-3.703-34.988-12.095-49.629-8.639"/>
</g>
<g opacity="0.3">
	<path fill="#FFFFFF" d="M0,99.659c8.685-2.468,19.603,3.166,28.04,5.141c10.174,2.468,19.851,5.43,30.025,7.405
		c16.874,3.209,50.356,6.777,57.569,1.234c0,0,2.58-2.38,4.569-4.358c8.617-7.912,22.315-13.407,33.584-16.044
		c10.384-2.418,21.653-1.099,32.479-1.099c10.826,0,21.653,2.418,32.479,2.418c7.733,0,15.466,0.44,23.199,0.22
		c4.419-0.22,9.637,0.369,14.056-0.511v0.643c-4.419,0.879-9.808,0.354-14.227,0.574c-7.733,0.22-15.466-0.22-23.199-0.22
		c-10.826,0-21.653-2.418-32.479-2.418s-22.094-1.319-32.479,1.099c-11.268,2.637-24.967,8.132-33.584,16.044
		c-1.989,1.978-4.569,4.358-4.569,4.358c-7.213,5.543-40.695,1.975-57.569-1.234c-10.174-1.975-19.851-4.937-30.025-7.405
		c-8.437-1.975-19.186-7.772-27.871-5.303L0,99.659z"/>
</g>
<g opacity="0.3">
	<path fill="#FFFFFF" d="M0,89.511c9.687-1.037,27.792,3.687,40.199,6.402c9.926,2.468,20.348,2.962,30.273,5.184
		c22.581,5.184,44.98,4.479,78.189-10.546c4.057-1.835,13.3-4.107,17.277-4.326c9.501-0.22,19.443,1.758,29.165,1.319
		c4.861-0.22,8.617-1.978,13.478-1.319c5.745,0.879,11.268,0.659,17.013,1.099c10.163,0.659,20.09,2.916,30.406,2.196l0,0.749
		c-10.582,0.659-20.413-1.58-30.577-2.239c-5.745-0.44-11.268-0.22-17.013-1.099c-4.861-0.659-8.617,1.099-13.478,1.319
		c-9.722,0.44-19.664-1.538-29.165-1.319c-3.977,0.22-13.22,2.491-17.277,4.326c-33.209,15.026-55.608,15.73-78.189,10.546
		c-9.926-2.222-20.348-2.715-30.273-5.184C27.622,93.904,11.412,89.287,0,90.252V89.511z"/>
</g>
<g opacity="0.3">
	<path fill="#FFFFFF" d="M0.757,78.276C3.735,76.548,9.526,79.377,13,79.13c7.196-0.247,12.807,5.922,19.259,8.884
		c5.459,2.715,10.174,3.209,16.129,3.456s11.663,1.728,17.37,2.715c6.452,0.987,12.903,1.975,19.355,3.209
		c9.926,2.222,23.822,6.418,33.996,2.468c11.166-4.443,40.069-18.908,38.958-31.348c-0.637-7.134,0.586-14.217-3.722-19.994
		c-2.247-3.013-10.795-21.78-9.306-26.47c2.481-8.146,6.825-15.624,12.036-22.042l-0.686,0c-5.211,6.418-9.658,14.168-12.14,22.313
		c-1.489,4.69,7.678,23.892,9.926,26.905c4.308,5.777,3.085,12.86,3.722,19.994c1.111,12.441-27.792,26.905-38.958,31.348
		c-10.174,3.949-24.07-0.247-33.996-2.468c-6.452-1.234-12.903-2.222-19.355-3.209c-5.707-0.987-11.415-2.468-17.37-2.715
		s-10.67-0.741-16.129-3.456c-6.452-2.962-12.063-9.131-19.259-8.884c-3.474,0.247-9.852-2.94-12.83-1.212L0.757,78.276z"/>
</g>
<g opacity="0.3">
	<path fill="#FFFFFF" d="M-0.001,68.18c2.233-0.987,6.949,0.334,9.43,0.087c5.707-0.247,11.415-0.247,16.874,1.728
		c5.955,2.222,11.415,5.924,17.618,7.652c10.67,3.209,22.829-0.247,33.996,0c12.903,0.494,25.311,4.196,37.966,5.184
		c12.159,1.234,23.65-4.488,31.276-6.937c7.756-2.491,13.699-9.67,21.874-11.209c4.419-1.099,8.838,0.44,13.257-1.099
		c2.43-0.879,5.082-1.978,7.733-3.077c6.186-2.418,12.373-3.736,19.001-5.275c5.303-1.099,11.047-3.077,16.129-1.319
		c5.745,2.198,11.268,4.835,17.234,6.154c4.198,1.099,9.454,1.778,13.614,1.463l0,0.518c-4.285,0.081-9.587-0.176-13.785-1.275
		c-5.966-1.319-11.489-3.956-17.234-6.154c-5.082-1.758-10.826,0.22-16.129,1.319c-6.628,1.538-12.815,2.857-19.001,5.275
		c-2.651,1.099-5.303,2.198-7.733,3.077c-4.419,1.538-8.838,0-13.257,1.099c-8.175,1.538-14.118,8.718-21.874,11.209
		c-7.625,2.449-19.117,8.171-31.276,6.937c-12.655-0.987-25.062-4.69-37.966-5.184c-11.166-0.247-23.325,3.209-33.996,0
		c-6.204-1.728-11.663-5.43-17.618-7.652c-5.459-1.975-11.166-1.975-16.874-1.728C6.778,69.22,2.233,67.909,0,68.896L-0.001,68.18z"
		/>
</g>
<g opacity="0.3">
	<path fill="#FFFFFF" d="M0,64.097c0.496-0.494,2.978-0.766,3.722-1.26c3.474-1.234,6.7,0.247,10.174,0.987
		c3.97,0.987,8.189,1.234,12.159,2.468c6.7,1.975,12.903,5.43,19.851,6.911c9.926,2.222,20.596-0.987,31.018-0.987
		c11.663,0,22.581,2.962,34.244,3.949c10.174,0.741,22.006-2.228,29.141-4.009c5.302-1.323,8.617-4.615,13.257-7.033
		c3.977-1.978,8.617-3.736,13.036-4.835c7.512-2.198,15.024-2.198,22.757-4.396c12.152-3.516,22.536-11.429,35.572-5.934
		c9.059,3.956,20.284,6.091,31.069,6.807v0.612c-10.163,0-22.181-2.757-31.239-6.713c-13.036-5.495-23.42,2.418-35.572,5.934
		c-7.733,2.198-15.245,2.198-22.757,4.396c-4.419,1.099-9.059,2.857-13.036,4.835c-4.64,2.418-7.955,5.71-13.257,7.033
		c-7.135,1.78-18.967,4.749-29.141,4.009c-11.663-0.987-22.581-3.949-34.244-3.949c-10.422,0-21.092,3.209-31.018,0.987
		c-6.948-1.481-13.152-4.937-19.851-6.911c-3.97-1.234-8.189-1.481-12.159-2.468c-3.474-0.741-6.7-2.222-10.174-0.987
		c-0.744,0.494-3.056,1.168-3.553,1.661L0,64.097z"/>
</g>
<g opacity="0.3">
	<path fill="#FFFFFF" d="M-0.001,61.489c0.993-0.247,13.401-0.38,17.867,0.114c8.189,0.987,14.889,3.209,22.581,4.937
		c5.955,1.481,12.655-0.494,18.859-0.494c4.963,0,10.174,0.247,15.385,0.494c9.181,0.247,18.859,0,28.288,0.987
		c12.407,0.987,23.822,2.715,35.733-2.222c0,0,20.157-8.752,29.215-11.17s17.234-6.154,26.292-8.132
		c5.965-1.099,10.826-4.176,16.792-4.835c6.849-0.879,11.931,0.22,17.455,4.176c4.64,3.297,9.28,6.374,15.245,7.253
		c3.977,0.659,9.253,0.344,12.289-0.224v0.69c-3.104,0.534-8.482,0.899-12.459,0.239c-5.966-0.879-10.605-3.956-15.245-7.253
		c-5.524-3.956-10.605-5.055-17.455-4.176c-5.966,0.659-10.826,3.736-16.792,4.835c-9.059,1.978-17.234,5.714-26.292,8.132
		c-9.059,2.418-29.215,11.17-29.215,11.17c-11.911,4.937-23.325,3.209-35.733,2.222c-9.429-0.987-19.107-0.741-28.288-0.987
		c-5.211-0.247-10.422-0.494-15.385-0.494c-6.204,0-12.903,1.975-18.859,0.494c-7.692-1.728-14.392-3.949-22.581-4.937
		c-4.467-0.494-16.704-0.449-17.697-0.202V61.489z"/>
</g>
<g opacity="0.3">
	<path fill="#FFFFFF" d="M-0.001,56.773c1.567,0.266,3.421,0.105,4.91,0.105c10.422-1.234,21.891,2.256,32.313,3.49
		c10.67,1.234,21.34,1.728,32.259,1.728c11.415,0,22.581-0.494,34.244,0.247c10.174,0.494,20.596,0.494,30.522-2.962
		c0,0,21.53-8.762,31.031-11.839c8.617-2.857,17.234-5.055,25.63-8.571c11.71-4.396,24.304-5.934,35.351,0.22
		c9.501,5.275,18.696,10.795,29.743,7.498v0.672c-11.047,3.297-20.413-2.189-29.914-7.464c-11.047-6.154-23.641-4.615-35.351-0.22
		c-8.396,3.516-17.013,5.714-25.63,8.571c-9.501,3.077-31.031,11.839-31.031,11.839c-9.926,3.456-20.348,3.456-30.522,2.962
		c-11.663-0.741-22.829-0.247-34.244-0.247c-10.918,0-21.588-0.494-32.259-1.728c-10.422-1.234-21.891-4.724-32.313-3.49
		c-1.489,0-2.806-0.244-4.739-0.164V56.773z"/>
</g>
<g opacity="0.3">
	<path fill="#FFFFFF" d="M-0.001,52.367c10.476-1.865,24.319-1.131,34.989,0.103c12.903,1.728,25.807,1.728,38.71,2.715
		c12.407,0.987,23.574,1.234,36.229,0.741c5.955-0.247,11.663-0.987,17.618-1.975c3.226-0.494,12.543-3.552,12.543-3.552
		c7.954-2.418,15.024-7.253,22.978-9.89c8.396-2.637,17.013-4.615,25.409-7.253c12.594-3.956,24.525-5.495,36.898,0.659
		c5.303,2.637,10.605,6.374,16.571,7.692c4.861,0.879,9.833,0.896,14.056,0.222v0.705c-4.848,0.62-9.366,0.658-14.227-0.221
		c-5.965-1.319-11.268-5.055-16.571-7.692c-12.373-6.154-24.304-4.615-36.898-0.659c-8.396,2.637-17.013,4.615-25.409,7.253
		c-7.954,2.637-15.024,7.473-22.978,9.89c0,0-9.317,3.058-12.543,3.552c-5.955,0.987-11.663,1.728-17.618,1.975
		c-12.655,0.494-23.822,0.247-36.229-0.741c-12.903-0.987-25.807-0.987-38.71-2.715c-10.67-1.234-24.345-2.457-34.819-0.121V52.367z
		"/>
</g>
<g opacity="0.3">
	<path fill="#FFFFFF" d="M-0.001,46.68c8.189-1.728,19.852,0.36,28.289,1.101c5.707,0.494,11.415,0.741,17.122,1.234
		c10.174,0.987,20.348-0.741,30.77-0.494c10.422,0.247,20.844,2.468,31.514,0.987c11.415-1.481,24.376-1.548,35.236-5.677
		c4.163-1.583,11.519-5.519,16.159-7.497c4.419-1.758,8.838-3.077,13.478-4.615c9.28-2.857,17.676-5.714,27.618-6.813
		c9.059-1.099,19.222,0.879,27.618,4.615c5.303,2.198,10.163,5.275,15.908,6.374c4.198,0.659,8.16,0.626,12.289,0.003v0.704
		c-3.973,0.527-8.261,0.658-12.459-0.002c-5.745-1.099-10.605-4.176-15.908-6.374c-8.396-3.736-18.559-5.714-27.618-4.615
		c-9.943,1.099-18.338,3.956-27.618,6.813c-4.64,1.538-9.059,2.857-13.478,4.615c-4.64,1.978-11.996,5.915-16.159,7.497
		c-10.86,4.129-23.822,4.196-35.236,5.677c-10.67,1.481-21.092-0.741-31.514-0.987c-10.422-0.247-20.596,1.481-30.77,0.494
		c-5.707-0.494-11.415-0.741-17.122-1.234c-8.437-0.741-19.93-2.878-28.119-1.15V46.68z"/>
</g>
<g opacity="0.3">
	<path fill="#FFFFFF" d="M0,41.836c10.422-1.481,23.574-1.214,34.244-0.967c12.655,0.494,25.559,1.975,38.214,1.481
		c21.837-0.741,68.22-2.648,68.956-2.72c9.601-0.939,17.676-7.253,27.176-9.89c8.838-2.418,17.676-5.714,26.513-7.912
		c11.047-2.857,19.664-1.319,30.269,1.538c11.047,3.077,18.475,9.884,30.627,6.807l0,0.58c-12.152,3.077-19.75-3.604-30.798-6.681
		c-10.605-2.857-19.222-4.396-30.269-1.538c-8.838,2.198-17.676,5.495-26.513,7.912c-9.501,2.637-17.575,8.951-27.176,9.89
		c-0.737,0.072-47.12,1.979-68.956,2.72c-12.655,0.494-25.559-0.987-38.214-1.481c-10.67-0.247-23.652-0.532-34.074,0.949L0,41.836z
		"/>
</g>
<g opacity="0.3">
	<path fill="#FFFFFF" d="M0.004,35.898c19.603-5.677,41.932-3.669,62.032-1.941c5.707,0.494,11.415,1.728,17.122,1.975
		c6.452,0.494,11.911-0.987,18.114-2.222c14.392-2.962,28.821-1.165,43.177-2.962c7.731-0.968,21.734-3.206,30.572-6.063
		c9.943-3.077,19.885-5.714,30.269-7.033c8.396-0.879,17.234,0.44,25.63,1.978c9.501,1.978,18.917,8.098,29.08,6.34v0.73
		c-10.163,1.758-19.75-4.386-29.251-6.364c-8.396-1.538-17.234-2.857-25.63-1.978c-10.384,1.319-20.327,3.956-30.269,7.033
		c-8.838,2.857-22.84,5.096-30.572,6.063c-14.356,1.797-28.785,0-43.177,2.962c-6.204,1.234-11.663,2.715-18.114,2.222
		c-5.707-0.247-11.415-1.481-17.122-1.975c-20.1-1.728-42.263-3.751-61.866,1.926L0.004,35.898z"/>
</g>
<g opacity="0.3">
	<path fill="#FFFFFF" d="M182.063,142.9c0.632-4.402,0-8.804,0.211-12.997c0.211-6.079,0.158-11.312-0.843-17.399
		c-0.614-3.733-0.152-11.307,0.231-15.131c0.439-4.392,0.446-9.352,0.001-13.738c-0.449-4.433,0.608-8.727,0.56-13.176
		c-0.047-4.33-1.199-9.101-1.682-13.457c-0.509-4.592-9.289-26.632-13.534-33.3c-3.804-5.976-3.429-17.329-0.781-23.693l0.422,0
		c-2.648,6.364-3.616,18.423,0.189,24.399c4.245,6.667,13.025,28.708,13.534,33.3c0.483,4.356,1.635,9.127,1.682,13.457
		c0.049,4.449-1.009,8.743-0.56,13.176c0.445,4.387,0.438,9.346-0.001,13.738c-0.382,3.824-0.844,11.398-0.231,15.131
		c1.001,6.087,1.054,11.32,0.843,17.399c-0.211,4.193,0.421,8.595-0.211,12.997"/>
</g>
<g opacity="0.3">
	<path fill="#FFFFFF" d="M172.058,256.009c0-12.095-3.321-24.336-1.336-36.184c1.985-13.082,11.166-24.684,16.874-36.285
		c6.7-14.07,10.273-57.62,8.376-61.603l-1.18-5.042c-1.489-5.677-2.481-10.367-1.985-16.044c0.993-6.911,2.73-15.057,1.985-22.215
		c-0.496-3.456-1.985-6.911-2.481-10.614c-0.496-3.456,0.248-6.665,0-10.367c-0.496-5.184-2.233-10.861-3.474-16.044
		c-1.241-5.43-2.978-10.367-6.948-14.316c-3.474-3.456-11.415-7.899-11.166-12.589c0,0,1.446-10.193,0.738-14.696h0.625
		c0.623,4.425-1.533,15.402-1.533,15.402c-0.248,4.69,7.692,9.133,11.166,12.589c3.97,3.949,5.707,8.886,6.948,14.316
		c1.241,5.184,2.978,10.861,3.474,16.044c0.248,3.703-0.496,6.911,0,10.367c0.496,3.703,1.985,7.158,2.481,10.614
		c0.744,7.158-0.993,15.304-1.985,22.215c-0.496,5.677,0.496,10.367,1.985,16.044l1.18,5.042c1.897,3.983-1.676,47.533-8.376,61.603
		c-5.707,11.601-14.889,23.203-16.874,36.285c-1.985,11.848,0.912,23.383,0.912,35.478H172.058z"/>
</g>
<g opacity="0.3">
	<path fill="#FFFFFF" d="M122.909,256.009c-0.993-13.329,7.02-23.745,10.014-36.095c3.889-16.044,4.052-54.887,2.812-62.292
		c-0.744-4.937-1.737-8.392-0.744-13.576c0.496-2.715-2.239-9.951-2.239-9.951c-1.475-3.354-3.583-5.45-4.426-9.433
		c-0.843-5.031-3.509-28.255-1.772-36.894c1.985-8.392,0-17.032-3.474-24.93c-2.233-5.184-4.715-10.367-4.963-16.044
		c-0.248-5.677,0.658-10.669,2.093-16.051c2.7-10.125,7.666-23.071,8.471-30.734h0.33c-0.654,8.408-6.35,21.079-8.335,31.199
		c-1.241,5.43-2.978,10.614-2.73,16.291c0.248,5.677,2.73,10.861,4.963,16.044c3.474,7.899,5.459,16.538,3.474,24.93
		c-1.737,8.639,0.929,31.863,1.772,36.894c0.843,3.983,2.95,6.079,4.426,9.433c0,0,2.736,7.236,2.239,9.951
		c-0.993,5.184,0,8.639,0.744,13.576c1.241,7.405,0.664,46.158-3.226,62.203c-2.994,12.35-10.788,22.149-9.796,35.478H122.909z"/>
</g>
<g opacity="0.3">
	<path fill="#FFFFFF" d="M0,77.957c9.181-4.443,19.851-1.544,28.785,1.665c6.7,2.468,13.152,7.405,20.596,7.405
		c10.422,0,19.851,0.741,30.025,2.468c6.452,1.234,12.407,3.456,18.611,4.69c7.196,1.481,13.896,0.247,20.844-1.975
		c0,0,6.755-2.478,8.69-0.311c4.108,4.602,3.093,4.253,3.725,10.541c0.211,2.725,3.793,13.416,4.215,16.351
		c0.632,2.935,0,5.45,1.054,8.385c1.054,2.516,1.897,4.193,2.107,6.708c0.632,4.193,3.783,36.819,4.775,42.743
		c1.241,6.911-12.407,53.81-13.152,61.215c-0.496,5.184-0.655,15.472-0.905,18.165h-0.688c0.266-4.771,0.636-12.214,1.132-17.398
		c0.744-7.405,14.682-54.365,13.441-61.276c-0.993-5.924-4.143-38.55-4.775-42.743c-0.211-2.516-1.054-4.193-2.107-6.708
		c-1.054-2.935-0.421-5.45-1.054-8.385c-0.421-2.935-4.004-13.626-4.215-16.351c-0.632-6.289,0.383-5.94-3.725-10.541
		c-1.935-2.168-8.69,0.311-8.69,0.311c-6.948,2.222-13.648,3.456-20.844,1.975c-6.204-1.234-12.159-3.456-18.611-4.69
		c-10.174-1.728-19.603-2.468-30.025-2.468c-7.444,0-13.896-4.937-20.596-7.405c-8.933-3.209-19.434-6.147-28.615-1.704L0,77.957z"
		/>
</g>
<g opacity="0.3">
	<path fill="#FFFFFF" d="M117.328,256.008c-0.14-10.226,1.859-26.839,1.611-39.921c-0.248-11.848-1.489-21.722,0.993-33.57
		c1.241-5.677,3.226-11.108,2.73-17.032c-0.496-5.677-14.154-41.185-11.415-56.278l0,0c0-6.418-0.744-13.082-1.241-19.747
		c-0.496-6.911,0.496-13.823-1.737-20.734c-3.722-11.601-6.7-20.734-3.97-32.582c1.489-6.665,4.218-13.082,4.715-19.747
		c0.248-4.69,3.424-12.638,3.698-16.389l0.609,0c-0.273,3.751-3.253,11.039-3.501,15.729c-0.496,6.665-3.861,13.037-5.35,19.701
		c-2.73,11.848,0.248,20.981,3.97,32.582c2.233,6.911,1.241,13.823,1.737,20.734c0.496,6.665,1.241,13.329,1.241,19.747l0,0
		c-2.74,15.093,10.918,50.601,11.415,56.278c0.496,5.924-1.489,11.354-2.73,17.032c-2.481,11.848-1.241,21.722-0.993,33.57"/>
</g>
<g opacity="0.3">
	<path fill="#FFFFFF" d="M122.514,251.758c-2.045-4.855,3.372-19.627,4.116-24.07c0.744-3.949,0.496-8.146,0-12.342
		c-1.489-12.342-1.489-24.93,0.744-37.272c0.744-5.184,1.985-10.367,2.233-15.551c0.496-5.43-4.193-23.531-5.669-28.771
		c-1.897-6.289-3.265-15.906-3.265-15.906c-1.241-5.677-2.978-10.614-3.474-16.291c-0.496-5.43-0.248-10.614,0-15.797
		c0.248-11.354-5.211-20.734-6.452-31.595c-0.744-8.392,1.489-17.525,3.474-25.671c2.481-9.133,7.871-19.28,8.685-28.484l-0.371,0
		c-0.881,8.151-6.118,18.881-8.6,28.014c-1.985,8.146-3.763,17.043-3.018,25.435c1.241,10.861,6.7,20.241,6.452,31.595
		c-0.248,5.184-0.496,10.367,0,15.797c0.496,5.677,2.233,10.614,3.474,16.291c0,0,1.368,9.617,3.265,15.906
		c1.475,5.241,6.165,23.341,5.669,28.771c-0.248,5.184-1.489,10.367-2.233,15.551c-2.233,12.342-2.233,24.93-0.744,37.272
		c0.496,4.196,0.744,8.392,0,12.342c-0.744,4.443-4.762,19.92-4.196,23.613"/>
</g>
<g opacity="0.3">
	<path fill="#FFFFFF" d="M145.923,252.498c-2.978-10.367-6.335-23.693-2.861-33.566c1.985-6.418,1.335-12.747,3.817-18.918
		c2.978-7.405,7.218-11.783,11.933-17.954c5.459-6.911,0.993-18.266,0.744-26.411c-0.248-7.652-0.674-22.181-0.674-22.181
		c1.054-7.337,0.421-15.303-4.004-21.172c0,0-4.847-7.389-7.72-10.905c-9.501-12.308-6.966-25.679-7.952-28.575
		c-1.449-4.257-5.761-21.509-6.148-26.211c-0.386-4.695,6.822-25.086,7.177-31.206c0.206-3.544,1.935-4.751,3.721-7.635
		c0.806-1.301,2.542-4.724,2.222-7.753l-0.657,0c0.17,3.295-1.465,6.696-2.271,7.997c-1.786,2.884-3.336,4.427-3.542,7.971
		c-0.355,6.12-7.819,26.378-7.433,31.073c0.387,4.702,4.6,22.009,6.049,26.265c0.986,2.896-0.838,16.472,8.662,28.78
		c2.872,3.516,7.72,10.905,7.72,10.905c4.426,5.87,5.058,13.835,4.004,21.172c0,0,0.426,14.529,0.674,22.181
		c0.248,8.146,4.715,19.5-0.744,26.411c-4.715,6.171-8.685,10.614-11.663,18.019c-2.481,6.171-2.102,12.436-4.087,18.854
		c-3.474,9.873,0.138,23.62,3.116,33.988"/>
</g>
<g opacity="0.3">
	<path fill="#FFFFFF" d="M256,75.223c-2.775,0.784-4.814-20.997-9.872-30.011c-3.161-5.87-4.004-11.32-4.215-17.818
		c-0.211-5.66-2.74-8.595-4.636-13.835c-1.475-4.821-3.04-6.016-0.27-13.542h-0.585c-2.888,8.125-0.79,9.426,0.685,14.248
		c1.897,5.241,4.426,8.176,4.636,13.835c0.211,6.498,1.054,11.949,4.215,17.818c5.058,9.014,6.525,30.064,10.042,29.788L256,75.223z
		"/>
</g>
<g opacity="0.3">
	<path fill="#FFFFFF" d="M256,60.033c-2.318-7.547-1.831-13.359-2.051-21.138c-0.391-13.844-0.093-25.042,0.75-38.878l-0.63-0.008
		c-0.843,13.835-1.579,25.786-0.736,39.621c0.632,7.756,0.348,13.703,2.666,21.249V60.033z"/>
</g>
<g opacity="0.3">
	<path fill="#FFFFFF" d="M236.433,256.009c3.665-10.026,8.172-19.515,5.882-30.908c-1.833-10.026-8.705-18.685-10.995-28.711
		c-2.291-9.57-2.749-21.419,1.833-30.078s13.861-14.253,17.409-22.786c1.201-2.887,1.889-8.801,1.889-12.365
		c0.211-6.289-0.632-12.158-2.107-18.238c-2.529-9.643-2.529-36.056-2.74-39.41c-0.211-6.708-3.793-10.691-6.954-16.141
		c-5.058-8.385-8.008-19.286-8.851-28.929c-0.632-6.498-2.529-10.062-5.69-15.722c-1.264-2.306-7.825-7.65-5.864-12.712l-0.472,0
		c-2.219,5.166,4.901,11.112,6.165,13.418c3.161,5.66,5.058,9.224,5.69,15.722c0.843,9.643,3.793,20.544,8.851,28.929
		c3.161,5.45,6.744,9.433,6.954,16.141c0.211,3.354,0.211,29.767,2.74,39.41c1.475,6.079,2.066,11.907,1.855,18.196
		c0,3.564-0.436,9.519-1.637,12.407c-3.549,8.534-12.828,14.128-17.409,22.786s-4.123,20.508-1.833,30.078
		c2.291,10.026,9.163,18.685,10.995,28.711c2.291,11.393-1.468,20.176-5.133,30.202H236.433z"/>
</g>
<g opacity="0.3">
	<path fill="#FFFFFF" d="M242.902,256.009c9.029-18.728,0.666-47.877-5.289-66.883c-4.467-14.316,17.513-47.713,17.724-54.211
		c0.211-8.385-1.411-16.541-1.832-24.716c-0.421-7.547-1.054-40.249-2.318-47.586c-0.421-3.564-2.107-3.773-5.058-5.87
		c-2.107-1.677-3.793-3.773-5.058-6.498c-2.107-4.193-3.372-9.853-3.793-14.464c-0.421-3.983,0.632-8.176-0.211-12.158
		c-0.632-2.516-2.318-3.354-4.004-5.45s-2.318-4.193-3.161-6.708c-1.475-3.983-7.116-5.257-4.629-11.445h-0.516
		c-2.544,6.459,3.499,8.168,4.974,12.151c0.843,2.516,1.475,4.612,3.161,6.708s3.372,2.935,4.004,5.45
		c0.843,3.983-0.211,8.176,0.211,12.158c0.421,4.612,1.686,10.272,3.793,14.464c1.264,2.725,2.95,4.821,5.058,6.498
		c2.95,2.096,4.636,2.306,5.058,5.87c1.264,7.337,1.897,40.039,2.318,47.586c0.421,8.176,1.686,16.341,1.475,24.726
		c-0.211,6.498-22.221,39.977-17.754,54.293c5.955,19.006,15.689,47.561,6.425,66.086H242.902z"/>
</g>
<g opacity="0.3">
	<path fill="#FFFFFF" d="M248.381,256.009c1.607-9.432,5.333-18.567,3.858-28.629c-1.475-9.853-5.479-19.286-6.111-29.138
		c-0.632-7.337,0-14.884,0.211-22.43c0.211-4.402,0.843-8.804,2.107-12.997c1.264-5.45,7.132-14.101,7.554-19.551v-1.094
		c-0.421,5.45-6.052,15.869-7.316,21.32c-1.264,4.193-2.304,8.626-2.515,13.028c-0.211,7.547-0.843,15.093-0.211,22.43
		c0.632,9.853,4.347,19.29,5.822,29.142c1.475,10.062-1.256,18.541-2.827,27.919"/>
</g>
<g opacity="0.3">
	<path fill="#FFFFFF" d="M3.212,35.311c2.693,8.498,4.806,23.296,6.792,31.935c1.985,9.627,1.985,19.253,0.496,28.88
		c-1.489,9.873-6.681,69.91-6.681,76.409c0,8.595,0.632,17.19,1.264,25.575c0.632,9.433,1.897,18.657,2.95,27.881
		c1.054,9.014,1.501,21.877,0.708,30.019H9.18c0.466-10.172,0.077-21.711-0.976-30.725c-1.054-9.224-2.318-18.447-2.95-27.881
		c-0.632-8.385-1.264-16.98-1.264-25.575c0-6.498,5.192-66.535,6.681-76.409c1.489-9.627,1.489-19.253-0.496-28.88
		c-1.985-8.639-3.787-23.103-6.38-31.632C3.186,32.91,2.088,13.975,1.175,9.742C1.004,8.951-0.001,6.205-0.001,6.205L0,6.875
		c0,0,0.564,2.667,0.646,3.237C1.257,14.371,2.559,33.25,3.212,35.311z"/>
</g>
<g opacity="0.3">
	<path fill="#FFFFFF" d="M164.074,256.009c3.27-7.942,1.301-35.523,3.17-44.4c2.336-9.811,7.008-17.286,11.213-26.163
		c8.877-19.155,8.41-35.974,9.811-56.064c0.467-8.41,0.467-15.885-0.467-24.294c-0.934-14.483,0-28.966-2.336-43.449
		c-1.869-14.016-5.139-24.294-12.147-36.441c-4.672-8.41-7.519-16.312-4.716-25.189l0.641,0c-2.803,8.877-0.767,17.485,3.905,25.894
		c7.008,12.147,10.278,22.425,12.147,36.441c2.336,14.483,1.402,28.966,2.336,43.449c0.934,8.41,0.934,15.885,0.467,24.294
		c-1.402,20.089-0.934,36.909-9.811,56.064c-4.205,8.877-8.877,16.352-11.213,26.163c-1.869,8.877-0.463,35.751-3.734,43.694
		H164.074z"/>
</g>
<g opacity="0.3">
	<path fill="#FFFFFF" d="M86.484,0.008c0.215,4.626-0.605,9.967-1.035,14.593c-0.43,4.518-0.968,9.144-1.936,13.555
		c-1.183,5.702-1.207,9.189,0.084,14.998c-0.476-4.375-1.328-8.532-0.191-13.17c1.379-5.631,2.335-9.741,2.55-15.335
		c0.108-2.152,0.447-5.134,0.662-7.178c0.215-2.152,0.477-5.456,0.424-7.465L86.484,0.008z"/>
</g>
<path opacity="0.3" fill="#FFFFFF" d="M0,199.955c0,0,7.008-0.531,8.741,0.366c1.499,0.776,2.711,3.735,3.331,5.305
	c2.16,5.471,2.549,16.964,3.202,22.81c0.476,4.258,0.92,12.686,0.924,16.97c0.002,2.403,0.016,10.602,0.016,10.602h-0.373
	c0,0,0.067-8.288,0-10.66c-0.12-4.233-0.542-12.697-0.957-16.912c-0.554-5.626-1.32-17.045-3.153-22.393
	c-0.487-1.422-1.689-4.464-2.99-5.217c-1.688-0.978-8.742-0.282-8.742-0.282L0,199.955z"/>
<path opacity="0.3" fill="#FFFFFF" d="M2.559,134.914c0.232,4.624,0.258,13.893,0.109,18.521c-0.159,4.924,0.931,16.861-0.959,21.41
	c-0.312,0.75-1.709,0.69-1.709,0.69v-0.569c0,0,1.212,0.234,1.418-0.326c1.701-4.618,0.66-16.294,0.732-21.214
	c0.067-4.628,0.151-13.89-0.087-18.512c-0.163-3.156,0.419-32.583,1.163-41.222C4.218,82.831-0.744,70.378,0,60.011v0.799
	c0.594,10.303,4.048,22.727,3.055,33.587C2.311,103.037,2.4,131.757,2.559,134.914z"/>
<path opacity="0.3" fill="#FFFFFF" d="M0,149.911c0,0,1.086-1.99,1.316-2.706c0.411-1.281,0.899-5.305,0.899-5.305l0.004,0.976
	c0,0-0.196,3.432-0.51,4.527C1.436,148.355,0,150.976,0,150.976V149.911z"/>
<path opacity="0.3" fill="#FFFFFF" d="M0,153.018v0.417c0,0,6.23-0.759,8.306-1.016c3.396-0.421,10.179-1.346,13.582-1.709
	c2.603-0.277,7.815-0.796,10.43-0.91c1.485-0.065,4.47-0.168,5.948,0c1.25,0.142,4.903,1.126,4.903,1.126l0.644-0.015
	c0,0-4.059-1.262-5.459-1.444c-1.535-0.2-4.645-0.063-6.192,0c-2.603,0.105-7.795,0.572-10.386,0.843
	c-3.388,0.354-10.134,1.315-13.515,1.731C6.198,152.296,0,153.018,0,153.018z"/>
<path opacity="0.3" fill="#FFFFFF" d="M31.434,1.724c0,0-3.067,5.778-2.719,8.273c0.51,3.655,1.159,11.045,2.128,14.606
	c0.744,2.736,3.189,7.887,4.275,10.507c0.854,2.06,3.466,8.219,3.466,8.219l0.621,1.473c0,0-2.664-7.649-3.661-10.157
	c-1.011-2.544-3.654-7.399-4.369-10.042c-0.952-3.524-1.689-11.062-2.17-14.68c-0.336-2.529,2.583-7.796,2.583-7.796L31.434,1.724z"
	/>
<path opacity="0.3" fill="#FFFFFF" d="M58.66,0.008l1.393,21.573c0,0,0.356,18.35,1.629,24.305c0.293,1.372,1.947,5.264,1.947,5.264
	l0.764,2.065c0,0-1.936-5.578-2.251-7.501c-0.975-5.958-1.437-24.134-1.437-24.134S59.058,1.196,59.058,0.008L58.66,0.008z"/>
<path opacity="0.3" fill="#FFFFFF" d="M248.379,0.017l-0.363,6.188c0,0-0.161,6.427,0,8.561c0.255,3.374,2.035,13.382,2.035,13.382
	l2.846,15.006l0.914,4.078l-0.109-1.743l-3.215-18.437c0,0-1.691-9.185-1.889-12.286c-0.236-3.681,0.363-14.75,0.363-14.75H248.379z
	"/>
<path opacity="0.3" fill="#FFFFFF" d="M242.937,0.008c0,0-1.598,5.418-1.679,7.285c-0.185,4.289,1.812,12.751,2.398,17.004
	c0.326,2.364,0.484,7.143,0.7,9.519c0.244,2.675,1.386,10.655,1.386,10.655l0.386,0.74c0,0-1.038-8.537-1.237-11.396
	c-0.168-2.414-0.223-7.265-0.535-9.664c-0.548-4.211-2.593-12.564-2.45-16.808c0.063-1.873,1.578-7.327,1.578-7.327L242.937,0.008z"
	/>
<path opacity="0.3" fill="#FFFFFF" d="M2.507,241.694c0,0,0.942-4.786,1.126-6.4c0.471-4.123,0.813-12.428,0.882-16.577
	c0.02-1.194,0.069-3.584,0-4.775c-0.177-3.038-1.103-9.064-1.347-12.097c-0.293-3.651-0.177-10.992-0.465-14.643
	c-0.232-2.937-1.781-11.775-1.781-11.775l0.445-0.194c0,0,1.605,8.818,1.857,11.792c0.315,3.709,0.153,11.156,0.409,14.87
	c0.207,3.011,1.075,8.991,1.322,11.999c0.099,1.203,0.196,3.617,0.196,4.824c0.001,4.225-0.506,12.673-0.979,16.871
	c-0.182,1.616-1.077,6.416-1.077,6.416S1.6,252.945,2.556,256.009H2.149C1.225,251.867,2.507,241.694,2.507,241.694z"/>
<path opacity="0.3" fill="#FFFFFF" d="M22.162,0.434c-2.019,0.793-6.447,0.941-8.555,1.452C10.138,2.727-0.001,6.205-0.001,6.205
	L0.224,6.83c0,0,10.117-3.661,13.594-4.52c2.164-0.535,6.93-0.233,8.797-1.451c0.212-0.139,0.554-0.85,0.554-0.85h-0.359
	C22.811,0.008,22.342,0.363,22.162,0.434z"/>
<path opacity="0.3" fill="#FFFFFF" d="M52.332,249.367c0,0,0.911,3.096,1.006,4.162c0.055,0.619-0.148,2.48-0.148,2.48l0.408,0
	c0,0,0.329-1.879,0.272-2.507c-0.086-0.94-1.082-3.618-1.082-3.618L52.332,249.367z"/>
</svg>
