<?xml version="1.0" encoding="utf-8"?>
<!-- Generator: Adobe Illustrator 17.0.0, SVG Export Plug-In . SVG Version: 6.00 Build 0)  -->
<!DOCTYPE svg PUBLIC "-//W3C//DTD SVG 1.1//EN" "http://www.w3.org/Graphics/SVG/1.1/DTD/svg11.dtd">
<svg version="1.1" id="Layer_1" xmlns="http://www.w3.org/2000/svg" xmlns:xlink="http://www.w3.org/1999/xlink" x="0px" y="0px"
	 width="256.307px" height="256.299px" viewBox="0 0 256.307 256.299" enable-background="new 0 0 256.307 256.299"
	 xml:space="preserve">
<path opacity="0.4" fill="none" stroke="#FFFFFF" stroke-miterlimit="10" d="M256.307,199.045
	c-32.746,0-59.293-31.814-59.293-71.059s26.546-71.059,59.293-71.059"/>
<path opacity="0.4" fill="none" stroke="#FFFFFF" stroke-miterlimit="10" d="M256.307,184.376c-25.986,0-47.053-25.247-47.053-56.39
	s21.066-56.39,47.053-56.39"/>
<path opacity="0.4" fill="none" stroke="#FFFFFF" stroke-miterlimit="10" d="M256.307,168.36c-18.605,0-33.688-18.076-33.688-40.373
	s15.083-40.373,33.688-40.373"/>
<path opacity="0.4" fill="none" stroke="#FFFFFF" stroke-miterlimit="10" d="M256.307,148.838c-9.609,0-17.398-9.335-17.398-20.851
	s7.79-20.851,17.398-20.851"/>
<path opacity="0.4" fill="none" stroke="#FFFFFF" stroke-miterlimit="10" d="M122.186,0.022c0,36.666-26.546,66.389-59.293,66.389
	S3.601,36.687,3.601,0.022"/>
<path opacity="0.4" fill="none" stroke="#FFFFFF" stroke-miterlimit="10" d="M109.946,0.022c0,29.097-21.066,52.684-47.053,52.684
	S15.841,29.118,15.841,0.022"/>
<path opacity="0.4" fill="none" stroke="#FFFFFF" stroke-miterlimit="10" d="M96.582,0.022c0,20.832-15.083,37.72-33.688,37.72
	S29.205,20.854,29.205,0.022"/>
<path opacity="0.4" fill="none" stroke="#FFFFFF" stroke-miterlimit="10" d="M80.292,0.022c0,10.759-7.79,19.481-17.398,19.481
	S45.495,10.781,45.495,0.022"/>
<path opacity="0.4" fill="none" stroke="#FFFFFF" stroke-miterlimit="10" d="M252.426,0.022c0,36.666-26.546,66.389-59.293,66.389
	s-59.293-29.723-59.293-66.389"/>
<path opacity="0.4" fill="none" stroke="#FFFFFF" stroke-miterlimit="10" d="M240.186,0.022c0,29.097-21.066,52.684-47.053,52.684
	s-47.053-23.588-47.053-52.684"/>
<path opacity="0.4" fill="none" stroke="#FFFFFF" stroke-miterlimit="10" d="M226.822,0.022c0,20.832-15.083,37.72-33.688,37.72
	s-33.688-16.888-33.688-37.72"/>
<path opacity="0.4" fill="none" stroke="#FFFFFF" stroke-miterlimit="10" d="M210.532,0.022c0,10.759-7.79,19.481-17.398,19.481
	c-9.609,0-17.398-8.722-17.398-19.481"/>
<ellipse opacity="0.4" fill="none" stroke="#FFFFFF" stroke-miterlimit="10" cx="128.307" cy="128" rx="59.293" ry="71.059"/>
<ellipse opacity="0.4" fill="none" stroke="#FFFFFF" stroke-miterlimit="10" cx="128.307" cy="128" rx="47.053" ry="56.39"/>
<ellipse opacity="0.4" fill="none" stroke="#FFFFFF" stroke-miterlimit="10" cx="128.307" cy="128" rx="33.688" ry="40.373"/>
<ellipse opacity="0.4" fill="none" stroke="#FFFFFF" stroke-miterlimit="10" cx="128.307" cy="128" rx="17.398" ry="20.851"/>
<path opacity="0.4" fill="none" stroke="#FFFFFF" stroke-miterlimit="10" d="M0.307,56.941C33.053,56.941,59.6,88.755,59.6,128
	s-26.546,71.059-59.293,71.059"/>
<path opacity="0.4" fill="none" stroke="#FFFFFF" stroke-miterlimit="10" d="M0.307,71.61c25.986,0,47.053,25.247,47.053,56.39
	s-21.066,56.39-47.053,56.39"/>
<path opacity="0.4" fill="none" stroke="#FFFFFF" stroke-miterlimit="10" d="M0.307,87.627c18.605,0,33.688,18.076,33.688,40.373
	s-15.083,40.373-33.688,40.373"/>
<path opacity="0.4" fill="none" stroke="#FFFFFF" stroke-miterlimit="10" d="M0.307,107.149c9.609,0,17.398,9.335,17.398,20.851
	s-7.79,20.851-17.398,20.851"/>
<path opacity="0.4" fill="none" stroke="#FFFFFF" stroke-miterlimit="10" d="M3.894,256.022c0-36.626,26.546-66.317,59.293-66.317
	s59.293,29.691,59.293,66.317"/>
<path opacity="0.4" fill="none" stroke="#FFFFFF" stroke-miterlimit="10" d="M16.134,256.022c0-29.065,21.066-52.627,47.053-52.627
	s47.053,23.562,47.053,52.627"/>
<path opacity="0.4" fill="none" stroke="#FFFFFF" stroke-miterlimit="10" d="M29.499,256.022c0-20.81,15.083-37.679,33.688-37.679
	s33.688,16.87,33.688,37.679"/>
<path opacity="0.4" fill="none" stroke="#FFFFFF" stroke-miterlimit="10" d="M45.788,256.022c0-10.747,7.79-19.46,17.398-19.46
	s17.398,8.712,17.398,19.46"/>
<path opacity="0.4" fill="none" stroke="#FFFFFF" stroke-miterlimit="10" d="M134.134,256.022c0-36.626,26.546-66.317,59.293-66.317
	s59.293,29.691,59.293,66.317"/>
<path opacity="0.4" fill="none" stroke="#FFFFFF" stroke-miterlimit="10" d="M146.374,256.022c0-29.065,21.066-52.627,47.053-52.627
	s47.053,23.562,47.053,52.627"/>
<path opacity="0.4" fill="none" stroke="#FFFFFF" stroke-miterlimit="10" d="M159.739,256.022c0-20.81,15.083-37.679,33.688-37.679
	s33.688,16.87,33.688,37.679"/>
<path opacity="0.4" fill="none" stroke="#FFFFFF" stroke-miterlimit="10" d="M176.029,256.022c0-10.747,7.79-19.46,17.398-19.46
	c9.609,0,17.398,8.712,17.398,19.46"/>
</svg>
