<?xml version="1.0" encoding="utf-8"?>
<!-- Generator: Adobe Illustrator 17.0.0, SVG Export Plug-In . SVG Version: 6.00 Build 0)  -->
<!DOCTYPE svg PUBLIC "-//W3C//DTD SVG 1.1//EN" "http://www.w3.org/Graphics/SVG/1.1/DTD/svg11.dtd">
<svg version="1.1" id="Layer_1" xmlns="http://www.w3.org/2000/svg" xmlns:xlink="http://www.w3.org/1999/xlink" x="0px" y="0px"
	 width="256px" height="256px" viewBox="0 0 256 256" enable-background="new 0 0 256 256" xml:space="preserve">
<polygon opacity="0.15" fill="#FFFFFF" points="34.768,60.568 6.043,66.325 0.228,37.891 28.952,32.135 "/>
<polygon opacity="0.15" fill="#FFFFFF" points="37.08,0.128 31.265,28.562 59.989,34.318 65.804,5.885 "/>
<polygon opacity="0.15" fill="#FFFFFF" points="34.768,123.27 6.043,129.027 0.228,100.593 28.952,94.837 "/>
<polygon opacity="0.15" fill="#FFFFFF" points="37.08,62.83 31.265,91.264 59.989,97.02 65.804,68.587 "/>
<polygon opacity="0.15" fill="#FFFFFF" points="34.574,186.489 5.849,192.245 0.034,163.812 28.759,158.055 "/>
<polygon opacity="0.15" fill="#FFFFFF" points="36.886,126.049 31.071,154.482 59.795,160.238 65.61,131.805 "/>
<polygon opacity="0.15" fill="#FFFFFF" points="34.574,249.692 5.849,255.449 0.034,227.015 28.759,221.259 "/>
<polygon opacity="0.15" fill="#FFFFFF" points="36.886,189.252 31.071,217.686 59.795,223.442 65.61,195.009 "/>
<polygon opacity="0.15" fill="#FFFFFF" points="97.825,60.568 69.101,66.325 63.285,37.891 92.01,32.135 "/>
<polygon opacity="0.15" fill="#FFFFFF" points="100.137,0.128 94.322,28.562 123.046,34.318 128.861,5.885 "/>
<polygon opacity="0.15" fill="#FFFFFF" points="97.825,123.27 69.101,129.027 63.285,100.593 92.01,94.837 "/>
<polygon opacity="0.15" fill="#FFFFFF" points="100.137,62.83 94.322,91.264 123.046,97.02 128.861,68.587 "/>
<polygon opacity="0.15" fill="#FFFFFF" points="97.631,186.489 68.907,192.245 63.092,163.812 91.816,158.055 "/>
<polygon opacity="0.15" fill="#FFFFFF" points="99.943,126.049 94.128,154.482 122.852,160.238 128.668,131.805 "/>
<polygon opacity="0.15" fill="#FFFFFF" points="97.631,249.692 68.907,255.449 63.092,227.015 91.816,221.259 "/>
<polygon opacity="0.15" fill="#FFFFFF" points="99.943,189.252 94.128,217.686 122.852,223.442 128.668,195.009 "/>
<polygon opacity="0.15" fill="#FFFFFF" points="161.8,60.723 133.075,66.479 127.26,38.046 155.985,32.29 "/>
<polygon opacity="0.15" fill="#FFFFFF" points="164.112,0.283 158.297,28.716 187.021,34.473 192.836,6.039 "/>
<polygon opacity="0.15" fill="#FFFFFF" points="161.8,123.425 133.075,129.181 127.26,100.748 155.985,94.992 "/>
<polygon opacity="0.15" fill="#FFFFFF" points="164.112,62.985 158.297,91.418 187.021,97.175 192.836,68.741 "/>
<polygon opacity="0.15" fill="#FFFFFF" points="161.606,186.643 132.882,192.4 127.066,163.966 155.791,158.21 "/>
<polygon opacity="0.15" fill="#FFFFFF" points="163.918,126.203 158.103,154.637 186.827,160.393 192.642,131.96 "/>
<polygon opacity="0.15" fill="#FFFFFF" points="161.606,249.847 132.882,255.603 127.066,227.17 155.791,221.414 "/>
<polygon opacity="0.15" fill="#FFFFFF" points="163.918,189.407 158.103,217.84 186.827,223.597 192.642,195.163 "/>
<polygon opacity="0.15" fill="#FFFFFF" points="224.857,60.723 196.133,66.479 190.318,38.046 219.042,32.29 "/>
<polygon opacity="0.15" fill="#FFFFFF" points="227.169,0.283 221.354,28.716 250.078,34.473 255.894,6.039 "/>
<polygon opacity="0.15" fill="#FFFFFF" points="224.857,123.425 196.133,129.181 190.318,100.748 219.042,94.992 "/>
<polygon opacity="0.15" fill="#FFFFFF" points="227.169,62.985 221.354,91.418 250.078,97.175 255.894,68.741 "/>
<polygon opacity="0.15" fill="#FFFFFF" points="224.663,186.643 195.939,192.4 190.124,163.966 218.848,158.21 "/>
<polygon opacity="0.15" fill="#FFFFFF" points="226.975,126.203 221.16,154.637 249.885,160.393 255.7,131.96 "/>
<polygon opacity="0.15" fill="#FFFFFF" points="224.663,249.847 195.939,255.603 190.124,227.17 218.848,221.414 "/>
<polygon opacity="0.15" fill="#FFFFFF" points="226.975,189.407 221.16,217.84 249.885,223.597 255.7,195.163 "/>
</svg>
