<?xml version="1.0" encoding="utf-8"?>
<!-- Generator: Adobe Illustrator 17.0.0, SVG Export Plug-In . SVG Version: 6.00 Build 0)  -->
<!DOCTYPE svg PUBLIC "-//W3C//DTD SVG 1.1//EN" "http://www.w3.org/Graphics/SVG/1.1/DTD/svg11.dtd">
<svg version="1.1" id="Layer_1" xmlns="http://www.w3.org/2000/svg" xmlns:xlink="http://www.w3.org/1999/xlink" x="0px" y="0px"
	 width="256px" height="256px" viewBox="0 0 256 256" enable-background="new 0 0 256 256" xml:space="preserve">
<path opacity="0.15" fill="#FFFFFF" d="M167.55,7.092l22.65,32.529c-9.43,5.904-22.145,3.409-28.4-5.574S158.12,12.996,167.55,7.092
	z"/>
<path opacity="0.15" fill="#FFFFFF" d="M193.685,37.386L171.367,4.652c9.49-5.818,22.179-3.206,28.342,5.833
	S203.175,31.569,193.685,37.386z"/>
<path opacity="0.15" fill="#FFFFFF" d="M218.286,9.104l27.478,28.992c-8.405,7.162-21.369,6.479-28.957-1.527
	S209.881,16.266,218.286,9.104z"/>
<path opacity="0.15" fill="#FFFFFF" d="M248.861,35.397L221.68,6.155c8.477-7.085,21.434-6.283,28.94,1.792
	C258.126,16.021,257.338,28.311,248.861,35.397z"/>
<path opacity="0.15" fill="#FFFFFF" d="M118.413,4.02l18.19,34.955c-10.134,4.742-22.421,0.76-27.444-8.892
	C104.136,20.431,108.279,8.762,118.413,4.02z"/>
<path opacity="0.15" fill="#FFFFFF" d="M140.355,37.171l-17.834-35.12c10.181-4.649,22.427-0.555,27.352,9.143
	S150.536,32.522,140.355,37.171z"/>
<path opacity="0.15" fill="#FFFFFF" d="M59.024,15.366l37.308,16.368c-4.745,9.725-16.943,13.944-27.245,9.424
	S54.279,25.091,59.024,15.366z"/>
<path opacity="0.15" fill="#FFFFFF" d="M98.056,28.095L60.917,11.387c4.844-9.681,17.084-13.789,27.34-9.175
	S102.9,18.414,98.056,28.095z"/>
<path opacity="0.15" fill="#FFFFFF" d="M6.332,23.386l41.03,2.395C46.667,36.476,36.919,44.61,25.589,43.948
	S5.637,34.081,6.332,23.386z"/>
<path opacity="0.15" fill="#FFFFFF" d="M47.574,21.797L6.57,19.027C7.373,8.339,17.203,0.294,28.526,1.059
	S48.377,11.109,47.574,21.797z"/>
<path opacity="0.15" fill="#FFFFFF" d="M219.464,57.814l22.65,32.529c-9.43,5.904-22.145,3.409-28.4-5.574
	S210.034,63.718,219.464,57.814z"/>
<path opacity="0.15" fill="#FFFFFF" d="M245.599,88.109l-22.318-32.734c9.49-5.818,22.179-3.206,28.342,5.833
	C257.785,70.247,255.089,82.291,245.599,88.109z"/>
<path opacity="0.15" fill="#FFFFFF" d="M170.327,54.743l18.19,34.955c-10.134,4.742-22.421,0.76-27.444-8.892
	S160.193,59.484,170.327,54.743z"/>
<path opacity="0.15" fill="#FFFFFF" d="M192.269,87.894l-17.834-35.12c10.181-4.649,22.427-0.555,27.352,9.143
	S202.45,83.245,192.269,87.894z"/>
<path opacity="0.15" fill="#FFFFFF" d="M110.938,66.089l37.308,16.368c-4.745,9.725-16.943,13.944-27.245,9.424
	S106.193,75.813,110.938,66.089z"/>
<path opacity="0.15" fill="#FFFFFF" d="M149.971,78.818L112.831,62.11c4.844-9.681,17.084-13.789,27.34-9.175
	S154.814,69.137,149.971,78.818z"/>
<path opacity="0.15" fill="#FFFFFF" d="M58.246,74.108l41.03,2.395c-0.694,10.695-10.442,18.829-21.772,18.168
	C66.173,94.01,57.551,84.803,58.246,74.108z"/>
<path opacity="0.15" fill="#FFFFFF" d="M99.488,72.519l-41.003-2.77c0.803-10.688,10.633-18.733,21.956-17.968
	C91.763,52.547,100.291,61.831,99.488,72.519z"/>
<path opacity="0.15" fill="#FFFFFF" d="M221.658,105.604l18.19,34.955c-10.134,4.742-22.421,0.76-27.444-8.892
	S211.525,110.345,221.658,105.604z"/>
<path opacity="0.15" fill="#FFFFFF" d="M243.6,138.755l-17.834-35.12c10.181-4.649,22.427-0.555,27.352,9.143
	C258.043,122.476,253.782,134.106,243.6,138.755z"/>
<path opacity="0.15" fill="#FFFFFF" d="M162.27,116.95l37.308,16.368c-4.745,9.725-16.943,13.944-27.245,9.424
	C162.03,138.222,157.525,126.675,162.27,116.95z"/>
<path opacity="0.15" fill="#FFFFFF" d="M201.302,129.679l-37.139-16.708c4.844-9.681,17.084-13.789,27.34-9.175
	S206.146,119.998,201.302,129.679z"/>
<path opacity="0.15" fill="#FFFFFF" d="M109.577,124.969l41.03,2.395c-0.694,10.695-10.442,18.829-21.772,18.168
	C117.505,144.871,108.883,135.665,109.577,124.969z"/>
<path opacity="0.15" fill="#FFFFFF" d="M150.819,123.381l-41.003-2.77c0.803-10.688,10.633-18.733,21.956-17.968
	S151.622,112.692,150.819,123.381z"/>
<path opacity="0.15" fill="#FFFFFF" d="M214.184,167.672l37.308,16.368c-4.745,9.725-16.943,13.944-27.245,9.424
	C213.944,188.945,209.439,177.397,214.184,167.672z"/>
<path opacity="0.15" fill="#FFFFFF" d="M253.216,180.402l-37.139-16.708c4.844-9.681,17.084-13.789,27.34-9.175
	C253.672,159.132,258.06,170.721,253.216,180.402z"/>
<path opacity="0.15" fill="#FFFFFF" d="M161.491,175.692l41.03,2.395c-0.694,10.695-10.442,18.829-21.772,18.168
	C169.419,195.593,160.797,186.387,161.491,175.692z"/>
<path opacity="0.15" fill="#FFFFFF" d="M202.733,174.103l-41.003-2.77c0.803-10.688,10.633-18.733,21.956-17.968
	S203.536,163.415,202.733,174.103z"/>
<path opacity="0.15" fill="#FFFFFF" d="M212.585,226.632l41.03,2.395c-0.694,10.695-10.442,18.829-21.772,18.168
	C220.513,246.534,211.891,237.328,212.585,226.632z"/>
<path opacity="0.15" fill="#FFFFFF" d="M253.827,225.044l-41.003-2.77c0.803-10.688,10.633-18.733,21.956-17.968
	C246.103,205.071,254.631,214.355,253.827,225.044z"/>
<path opacity="0.15" fill="#FFFFFF" d="M6.986,76.928L48.089,77.5c-0.166,10.714-9.501,19.272-20.852,19.114
	S6.82,87.642,6.986,76.928z"/>
<path opacity="0.15" fill="#FFFFFF" d="M48.105,73.511L7.01,72.563c0.275-10.712,9.697-19.184,21.045-18.922
	S48.379,62.799,48.105,73.511z"/>
<path opacity="0.15" fill="#FFFFFF" d="M8.022,120.76l37.308,16.368c-4.745,9.725-16.943,13.944-27.245,9.424
	S3.276,130.485,8.022,120.76z"/>
<path opacity="0.15" fill="#FFFFFF" d="M47.054,133.49L9.914,116.782c4.844-9.681,17.084-13.789,27.34-9.175
	C47.51,112.22,51.897,123.809,47.054,133.49z"/>
<path opacity="0.15" fill="#FFFFFF" d="M58.9,127.651l41.103,0.572c-0.166,10.714-9.501,19.272-20.852,19.114
	C67.801,147.178,58.735,138.365,58.9,127.651z"/>
<path opacity="0.15" fill="#FFFFFF" d="M100.019,124.233l-41.095-0.948c0.275-10.712,9.697-19.184,21.045-18.922
	S100.294,113.521,100.019,124.233z"/>
<path opacity="0.15" fill="#FFFFFF" d="M13.779,164.318l27.478,28.992c-8.405,7.162-21.369,6.479-28.957-1.527
	C4.712,183.777,5.375,171.48,13.779,164.318z"/>
<path opacity="0.15" fill="#FFFFFF" d="M44.355,190.611l-27.181-29.242c8.477-7.085,21.434-6.283,28.94,1.792
	C53.619,171.236,52.832,183.525,44.355,190.611z"/>
<path opacity="0.15" fill="#FFFFFF" d="M59.353,171.622L96.66,187.99c-4.745,9.725-16.943,13.944-27.245,9.424
	S54.608,181.347,59.353,171.622z"/>
<path opacity="0.15" fill="#FFFFFF" d="M98.385,184.351l-37.139-16.708c4.844-9.681,17.084-13.789,27.34-9.175
	S103.229,174.67,98.385,184.351z"/>
<path opacity="0.15" fill="#FFFFFF" d="M110.232,178.512l41.103,0.572c-0.166,10.714-9.501,19.272-20.852,19.114
	C119.133,198.039,110.066,189.226,110.232,178.512z"/>
<path opacity="0.15" fill="#FFFFFF" d="M151.35,175.095l-41.095-0.948c0.275-10.712,9.697-19.184,21.045-18.922
	C142.648,155.486,151.625,164.382,151.35,175.095z"/>
<path opacity="0.15" fill="#FFFFFF" d="M14.958,213.029l22.65,32.529c-9.43,5.904-22.145,3.409-28.4-5.574
	S5.528,218.933,14.958,213.029z"/>
<path opacity="0.15" fill="#FFFFFF" d="M41.093,243.323l-22.318-32.734c9.49-5.818,22.179-3.206,28.342,5.833
	S50.582,237.505,41.093,243.323z"/>
<path opacity="0.15" fill="#FFFFFF" d="M65.694,215.04l27.478,28.992c-8.405,7.162-21.369,6.479-28.957-1.527
	C56.626,234.499,57.289,222.203,65.694,215.04z"/>
<path opacity="0.15" fill="#FFFFFF" d="M96.269,241.333l-27.181-29.242c8.477-7.085,21.434-6.283,28.94,1.792
	S104.746,234.248,96.269,241.333z"/>
<path opacity="0.15" fill="#FFFFFF" d="M111.267,222.344l37.308,16.368c-4.745,9.725-16.943,13.944-27.245,9.424
	C111.027,243.617,106.522,232.069,111.267,222.344z"/>
<path opacity="0.15" fill="#FFFFFF" d="M150.299,235.073l-37.139-16.708c4.844-9.681,17.084-13.789,27.34-9.175
	C150.755,213.804,155.143,225.392,150.299,235.073z"/>
<path opacity="0.15" fill="#FFFFFF" d="M162.146,229.234l41.103,0.572c-0.166,10.714-9.501,19.272-20.852,19.114
	S161.98,239.948,162.146,229.234z"/>
<path opacity="0.15" fill="#FFFFFF" d="M203.264,225.817l-41.095-0.948c0.275-10.712,9.697-19.184,21.045-18.922
	S203.539,215.105,203.264,225.817z"/>
</svg>
