<?xml version="1.0" encoding="utf-8"?>
<!-- Generator: Adobe Illustrator 17.0.0, SVG Export Plug-In . SVG Version: 6.00 Build 0)  -->
<!DOCTYPE svg PUBLIC "-//W3C//DTD SVG 1.1//EN" "http://www.w3.org/Graphics/SVG/1.1/DTD/svg11.dtd">
<svg version="1.1" id="Layer_1" xmlns="http://www.w3.org/2000/svg" xmlns:xlink="http://www.w3.org/1999/xlink" x="0px" y="0px"
	 width="256px" height="256px" viewBox="0 0 256 256" enable-background="new 0 0 256 256" xml:space="preserve">
<path opacity="0.15" fill="#FFFFFF" d="M11.878,256.014c-2.33-0.993-4.634-2.039-6.951-3.056c-1.869-0.821-3.439-2.003-4.842-3.356
	c-0.029-0.028,0-9.774,0-9.774c1.052-0.818,1.681-1.968,2.124-3.257c0.138-0.402-0.05-0.936-0.213-1.371
	c-0.392-1.047-0.311-1.222,0.849-1.618c1.191-0.406,2.401-0.787,3.54-1.294c0.846-0.377,1.667-0.862,2.366-1.432
	c1.2-0.979,2.542-1.334,4.11-1.109c0.07,0.01,0.141,0.01,0.212,0.017c2.715,0.272,2.73,0.261,4.397,2.175
	c0.237,0.272,0.284,0.695,0.363,1.058c0.105,0.486-0.11,1.022,0.347,1.578c0.619-0.372,1.278-0.682,1.819-1.113
	c0.942-0.749,1.928-0.854,3.128-0.584c2.23,0.502,3.026,1.287,3.059,3.374c0.006,0.404-0.086,0.83-0.241,1.21
	c-0.247,0.607-0.231,1.173,0.039,1.764c1.319,2.886,1.398,5.817,0.282,8.761c-0.279,0.736-0.284,1.422-0.031,2.145
	c0.288,0.82,0.597,1.639,0.801,2.477c0.101,0.415,0.093,0.901-0.046,1.305c-0.248,0.717-0.604,1.404-0.924,2.101"/>
<path opacity="0.15" fill="#FFFFFF" d="M91.192,166.143c0.096-0.422,0.16-0.933,0.33-1.415c0.689-1.959,1.703-3.78,2.979-5.481
	c0.177-0.236,0.394-0.452,0.615-0.658c0.325-0.303,0.71-0.409,1.158-0.219c0.064,0.027,0.141,0.032,0.199,0.065
	c1.039,0.594,2.079,0.442,3.242,0.24c1.65-0.286,3.25,0.016,4.357,1.364c0.168,0.205,0.346,0.407,0.541,0.59
	c0.925,0.867,2.27,0.578,2.623-0.574c0.15-0.49,0.251-0.995,0.339-1.498c0.101-0.573,0.42-1.005,0.937-1.334
	c1.232-0.784,2.579-1.345,4.063-1.586c1.859-0.302,3.562,0.632,4.048,2.295c0.431,1.474,1.199,2.781,2.039,4.081
	c1.354,2.095,2.608,4.242,3.981,6.326c1.395,2.117,1.034,4.156-0.197,6.166c-0.279,0.455-0.718,0.917-1.213,1.162
	c-1.327,0.658-2.717,1.216-4.098,1.784c-0.717,0.295-1.459,0.256-2.15-0.096c-0.992-0.506-1.964-0.423-2.943,0.021
	c-0.886,0.401-1.796,0.762-2.659,1.2c-1.239,0.628-2.555,0.784-3.908,0.53c-2.39-0.449-4.764-0.968-7.145-1.455
	c-1.511-0.309-2.594-1.098-3.327-2.325c-1.551-2.596-2.694-5.336-3.628-8.153C91.276,166.873,91.262,166.548,91.192,166.143z"/>
<path opacity="0.15" fill="#FFFFFF" d="M0.084,98.186c1.145,0.502,1.865,1.314,2.216,2.529c0.897,3.1,1.429,6.242,1.343,9.458
	c-0.025,0.936-0.374,1.745-1.012,2.464c-0.778,0.877-1.613,1.694-2.547,2.406"/>
<path opacity="0.15" fill="#FFFFFF" d="M51.357,121.031c-1.803,0.088-3.608,0.151-5.408,0.271c-1.214,0.082-2.212-0.274-3.113-0.977
	c-1.295-1.01-2.445-2.138-3.329-3.457c-0.378-0.564-0.667-1.2-0.863-1.836c-0.803-2.604-0.797-5.173,0.649-7.624
	c0.296-0.501,0.61-1.039,1.064-1.412c2.463-2.026,5.247-3.617,8.498-4.359c3.035-0.692,6.161-0.882,9.285-0.677
	c1.848,0.122,3.611,0.659,5.237,1.468c0.543,0.27,1.042,0.682,1.426,1.125c0.959,1.104,1.952,2.204,2.718,3.416
	c0.62,0.982,1.011,2.105,1.337,3.205c0.14,0.474-0.031,1.089-0.252,1.569c-0.405,0.88-0.885,1.745-1.454,2.547
	c-1.268,1.787-2.305,3.649-2.858,5.727c-0.162,0.607-0.518,1.18-0.846,1.739c-0.287,0.49-0.789,0.744-1.417,0.663
	c-1.153-0.149-2.328-0.237-3.445-0.512C56.214,121.321,53.842,120.847,51.357,121.031z"/>
<path opacity="0.15" fill="#FFFFFF" d="M60.773,134.193c-0.153,0.845-0.252,1.964-0.569,3.031c-1.121,3.772-3.07,7.188-5.668,10.311
	c-0.914,1.099-1.992,1.967-3.496,2.374c-0.829,0.225-1.631,0.415-2.494,0.192c-0.2-0.051-0.423-0.056-0.633-0.044
	c-0.535,0.029-0.685,0.189-0.643,0.668c0.014,0.157,0.07,0.312,0.107,0.468c0.086,0.37-0.098,0.598-0.451,0.774
	c-1.135,0.567-2.282,0.414-3.156-0.476c-0.61-0.621-1.186-1.27-1.767-1.913c-0.307-0.339-0.655-0.614-1.173-0.51
	c-1.067,0.213-1.797-0.285-2.365-0.966c-1.062-1.273-2.073-2.582-3.067-3.9c-0.376-0.499-0.618-1.077-0.971-1.592
	c-0.722-1.056-1.433-2.122-2.236-3.127c-0.518-0.649-0.837-1.32-0.884-2.107c-0.05-0.829,0.154-1.579,0.808-2.203
	c1.127-1.074,2.352-2.025,3.87-2.639c3.365-1.361,3.919-1.026,8.062-4.485c1.005-0.839,2.379-1.387,3.679-1.854
	c1.487-0.534,3.066-0.409,4.564,0.141c0.655,0.24,1.281,0.543,1.925,0.809c0.686,0.283,1.387,0.464,2.16,0.309
	c0.744-0.149,1.378,0.08,1.974,0.492c1.153,0.797,1.881,1.811,2.059,3.117C60.536,132.012,60.631,132.964,60.773,134.193z"/>
<path opacity="0.15" fill="#FFFFFF" d="M0.083,171.561c0.566-0.005,1.863-0.176,2.472-0.156c0.766-0.066,2.949,0.675,3.756,1.78
	c2.129,2.916,3.933,5.986,5.323,9.246c0.447,1.049,0.442,2.115,0.079,3.193c-0.985,2.925-2.431,5.653-4.328,8.18
	c-1.042,1.388-2.557,2.288-4.219,2.979c-0.991,0.412-2.053,0.304-3.083,0.175"/>
<path opacity="0.15" fill="#FFFFFF" d="M48.984,194.305c-2.712,0.201-5.471-0.505-8.108-1.724c-1.141-0.528-1.995-1.281-2.663-2.265
	c-1.146-1.687-1.718-3.477-1.539-5.466c0.137-1.526,0.193-3.059,0.282-4.589c0.053-0.911-0.13-1.76-0.635-2.577
	c-0.582-0.942-0.532-1.307,0.355-2.014c0.736-0.586,1.532-1.175,2.417-1.533c4.115-1.666,8.393-2.713,12.967-2.502
	c1.055,0.049,2.017,0.278,2.917,0.776c2.249,1.243,4.279,2.73,6.117,4.43c1.117,1.033,1.713,2.314,1.646,3.727
	c-0.108,2.255,0.181,4.456,0.725,6.642c0.276,1.107-0.044,2.064-0.738,2.983c-0.992,1.313-2.253,2.259-3.955,2.751
	C55.677,193.839,52.523,194.359,48.984,194.305z"/>
<path opacity="0.15" fill="#FFFFFF" d="M52.111,89.383c-0.278,1.604-0.542,3.21-0.846,4.81c-0.083,0.435-0.271,0.858-0.444,1.274
	c-0.166,0.398-0.5,0.608-0.991,0.572c-0.247-0.018-0.498-0.018-0.741-0.055c-0.672-0.102-1.272,0.025-1.769,0.449
	c-0.845,0.721-1.9,0.781-2.973,0.807c-0.805,0.019-1.401-0.373-1.996-0.789c-0.388-0.271-0.781-0.564-1.344-0.431
	c-0.775,0.184-1.194,0.667-1.154,1.407c0.023,0.413,0.075,0.829,0.162,1.235c0.204,0.959-0.109,1.776-0.841,2.456
	c-0.663,0.616-1.339,1.232-2.084,1.762c-0.397,0.282-0.935,0.464-1.44,0.552c-1.427,0.248-2.585-0.101-3.269-1.367
	c-0.727-1.347-1.916-2.357-3.08-3.389c-1.49-1.32-2.953-2.666-4.421-4.007c-0.348-0.318-0.658-0.67-1.007-0.986
	c-1.954-1.77-1.987-3.92-1.485-6.161c0.081-0.36,0.298-0.738,0.57-1.014c0.938-0.952,1.911-1.876,2.904-2.782
	c0.583-0.532,1.329-0.742,2.148-0.563c0.912,0.198,1.591-0.137,2.19-0.689c0.594-0.548,1.217-1.078,1.743-1.676
	c1.075-1.225,2.451-1.896,4.166-2.032c2.011-0.159,4.021-0.317,6.031-0.484c1.409-0.117,2.564,0.322,3.527,1.237
	c2.203,2.094,4.069,4.417,5.745,6.867C52.042,87.304,51.981,88.342,52.111,89.383z"/>
<path opacity="0.15" fill="#FFFFFF" d="M77.77,104.343c-4.22,0.277-7.55-1.565-10.724-3.719c-0.51-0.346-0.932-0.907-1.169-1.449
	c-1.369-3.133-2.041-6.362-1.446-9.741c0.163-0.925,0.563-1.724,1.415-2.273c1.814-1.169,3.587-2.404,5.497-3.431
	c1.799-0.967,3.886-1.138,5.959-1.149c0.662-0.004,1.243,0.225,1.701,0.676c0.191,0.188,0.42,0.348,0.597,0.545
	c0.649,0.722,1.501,0.897,2.478,0.808c0.845-0.077,1.694-0.138,2.542-0.166c0.345-0.011,0.723,0.022,1.038,0.138
	c1.562,0.578,3.024,1.366,4.02,2.59c1.42,1.745,2.312,3.726,2.485,5.921c0.022,0.285,0.003,0.574-0.018,0.86
	c-0.028,0.389-0.235,0.629-0.679,0.75c-0.505,0.137-0.989,0.343-1.475,0.533c-0.609,0.239-0.894,0.697-1.013,1.262
	c-0.191,0.907-0.042,1.163,0.916,1.562c1.303,0.543,1.596,1.347,0.632,2.306c-1.281,1.274-2.693,2.444-4.09,3.619
	c-0.563,0.473-1.334,0.6-2.087,0.604c-1.239,0.006-2.479-0.029-3.718-0.075C79.678,104.479,78.725,104.402,77.77,104.343z"/>
<path opacity="0.15" fill="#FFFFFF" d="M69.604,145.738c1.433,0,2.994,0.057,4.548-0.018c1.238-0.06,2.188,0.244,2.95,1.152
	c1.457,1.736,2.805,3.532,3.779,5.527c0.337,0.69,0.577,1.446,0.687,2.193c0.374,2.54,0.243,5.033-1.151,7.357
	c-0.303,0.505-0.596,1.015-0.875,1.531c-0.996,1.839-2.627,3.031-4.666,3.868c-1.275,0.524-2.606,0.576-3.948,0.596
	c-3.157,0.049-6.184-0.543-9.123-1.563c-1.403-0.487-2.541-1.244-3.373-2.372c-0.02-0.027-0.04-0.053-0.063-0.077
	c-1.881-2.105-2.474-4.48-1.775-7.099c0.652-2.446,1.334-4.886,2.04-7.32c0.16-0.55,0.473-1.063,0.719-1.592
	c0.58-1.247,1.628-1.888,3.121-1.941C64.808,145.899,67.142,145.822,69.604,145.738z"/>
<path opacity="0.15" fill="#FFFFFF" d="M13.614,172.91c-2.429,0.364-4.145-0.704-5.74-2.162c-1.38-1.261-2.564-2.636-3.544-4.165
	c-0.526-0.821-0.836-1.686-0.776-2.643c0.146-2.358,0.11-4.702-0.159-7.062c-0.281-2.47,0.232-3.043,2.803-3.957
	c1.419-0.505,2.849-0.97,4.434-0.655c0.991,0.197,1.768-0.189,2.472-0.816c0.778-0.693,1.615-1.333,2.452-1.969
	c0.599-0.455,1.34-0.554,2.1-0.543c0.592,0.009,1.125,0.152,1.468,0.631c0.442,0.618,1.086,0.767,1.847,0.673
	c0.245-0.03,0.503-0.003,0.741-0.055c1.461-0.318,2.634,0.194,3.707,1.013c0.135,0.103,0.267,0.211,0.409,0.306
	c1.716,1.159,2.393,2.689,2.12,4.605c-0.347,2.435-0.596,4.882-0.978,7.312c-0.132,0.839-0.455,1.676-0.838,2.455
	c-0.821,1.667-1.917,3.192-3.154,4.642c-0.993,1.164-2.26,1.801-3.865,1.933C17.279,172.606,15.447,172.758,13.614,172.91z"/>
<path opacity="0.15" fill="#FFFFFF" d="M41.67,218.209c0.062,1.954-0.309,3.784-1.322,5.491c-0.675,1.137-1.119,2.342-1.242,3.635
	c-0.018,0.189-0.088,0.374-0.13,0.562c-0.437,1.968-2.071,3.025-4.29,2.769c-0.211-0.024-0.424-0.051-0.627-0.104
	c-2.514-0.655-5.128-0.516-7.688-0.799c-0.772-0.085-1.534-0.242-2.301-0.366c-1.198-0.194-2.047-0.804-2.653-1.744
	c-1.023-1.585-1.841-3.257-2.242-5.046c-0.363-1.621-0.538-3.279-0.733-4.926c-0.172-1.452,0.107-2.864,0.693-4.224
	c0.269-0.624,0.552-1.244,0.84-1.862c1.638-3.514,4.721-5.177,8.794-5.616c4.512-0.486,7.696,1.406,10.163,4.564
	c0.567,0.726,0.98,1.552,1.438,2.345C41.338,214.567,41.792,216.353,41.67,218.209z"/>
<path opacity="0.15" fill="#FFFFFF" d="M0.084,199.938c0.98-0.081,5.404-0.043,6.632,0.088c1.244,0.133,2.258,0.664,3.124,1.486
	c1.495,1.418,2.569,3.034,3.095,4.94c1.002,3.631,1.587,7.315,1.817,11.051c0.098,1.599-0.456,2.93-1.644,4.099
	c-0.715,0.703-1.55,1.06-2.609,1.086c-1.893,0.046-3.741-0.214-5.577-0.579c-1.635-0.325-3.247-0.712-4.838-1.164"/>
<path opacity="0.15" fill="#FFFFFF" d="M107.945,119.988c0.229,2.446-0.687,4.512-2.76,6.045c-1.246,0.921-2.706,1.623-4.128,2.327
	c-0.765,0.379-1.654,0.558-2.488,0.823c-1.529,0.487-3.065,0.374-4.609,0.057c-0.874-0.179-1.573-0.582-2.067-1.247
	c-0.473-0.636-0.916-1.289-1.354-1.945c-0.712-1.066-1.357-2.172-2.128-3.202c-0.71-0.948-1.476-1.879-2.348-2.706
	c-1.342-1.274-2.345-2.727-3.095-4.32c-0.724-1.538-0.797-3.168-0.453-4.795c0.275-1.3,1.484-2.165,2.935-2.184
	c0.53-0.007,1.069-0.007,1.59,0.066c1.097,0.154,2.017-0.156,2.877-0.736c0.524-0.354,0.849-0.763,0.691-1.38
	c-0.178-0.694,0.215-1.121,0.873-1.336c0.488-0.16,1.035-0.309,1.538-0.272c1.869,0.137,3.736,0.317,5.591,0.561
	c0.609,0.08,1.235,0.328,1.755,0.634c1.464,0.862,2.796,1.9,3.748,3.221c1.808,2.507,3.155,5.208,3.669,8.192
	C107.907,118.515,107.894,119.256,107.945,119.988z"/>
<path opacity="0.15" fill="#FFFFFF" d="M20.669,6.713c0.463,0.103,1.277,0.2,2.019,0.462c4.139,1.462,6.363,4.438,7.647,8.085
	c0.382,1.085,0.073,2.221-0.178,3.317c-0.28,1.228-0.752,2.393-1.488,3.464c-0.635,0.923-1.289,1.835-1.907,2.766
	c-0.545,0.821-1.192,1.617-1.546,2.504c-0.838,2.1-2.624,2.845-4.87,3.154c-1.401,0.193-2.608-0.058-3.663-0.879
	c-3.085-2.398-6.159-4.807-9.236-7.214c-1.201-0.94-5.486-5.774-5.586-7.076c-0.861-1.238-2.473-6.971-1.778-7.749
	c1.564-1.751,4.879-2.885,8.397-2.852C12.748,4.734,17.367,6.994,20.669,6.713z"/>
<path opacity="0.15" fill="#FFFFFF" d="M110.204,141.16c-0.01,1.606-0.193,2.933-0.747,4.195c-0.533,1.215-1.122,2.41-1.669,3.62
	c-0.439,0.971-1.184,1.555-2.375,1.655c-0.385,0.032-0.762,0.143-1.142,0.22c-0.748,0.152-1.252,0.529-1.512,1.203
	c-0.243,0.631-0.577,1.234-0.848,1.857c-0.317,0.727-0.894,1.027-1.748,0.947c-0.634-0.06-1.275-0.069-1.905-0.151
	c-0.604-0.079-1.046,0.03-1.262,0.594c-0.228,0.594-0.76,0.81-1.401,0.856c-0.423,0.031-0.849,0.029-1.274,0.048
	c-1.361,0.062-2.415-0.432-3.148-1.452c-0.731-1.017-1.491-2.023-2.125-3.089c-1.396-2.344-2.399-4.826-3-7.437
	c-0.237-1.03-0.188-2.023,0.303-2.993c1.119-2.209,2.306-4.386,3.871-6.37c0.55-0.698,1.21-1.332,1.867-1.954
	c0.588-0.558,1.342-0.833,2.212-0.742c2.636,0.275,5.321,0.363,7.894,0.892c3.259,0.67,5.888,2.29,7.312,5.197
	C110.007,139.276,110.228,140.316,110.204,141.16z"/>
<path opacity="0.15" fill="#FFFFFF" d="M76.649,175.576c1.405,0.091,2.641,0.173,3.877,0.249c0.738,0.045,0.905-0.115,0.888-0.819
	c-0.036-1.512,1.227-3.384,2.746-3.924c1.079-0.383,2.21-0.346,3.118,0.356c1.071,0.828,2.161,1.678,3.027,2.67
	c1.775,2.032,3.054,4.342,3.397,6.925c0.433,3.261,0.272,6.496-1.22,9.593c-0.625,1.298-1.549,2.264-2.958,2.874
	c-1.473,0.638-2.929,1.285-4.642,1.208c-0.734-0.033-1.43-0.126-1.985-0.562c-1.205-0.948-2.647-1.15-4.164-1.169
	c-0.532-0.007-1.064-0.028-1.595-0.051c-1.279-0.055-2.398-0.449-3.415-1.169c-1.074-0.76-1.772-1.666-2.123-2.879
	c-0.561-1.943-1.264-3.852-1.926-5.77c-0.444-1.289-0.672-2.607-0.754-3.951c-0.06-0.986,0.364-1.707,1.287-2.254
	c1.464-0.868,3.04-1.35,4.799-1.33C75.61,175.582,76.213,175.576,76.649,175.576z"/>
<path opacity="0.15" fill="#FFFFFF" d="M0.084,74.3c0.542-0.191,1.094-0.365,1.654-0.522c1.181-0.331,2.401-0.162,3.591-0.019
	c3.954,0.477,7.07,2.171,9.486,5.076c2.019,2.428,2.685,5.039,2.31,8.006c-0.271,2.143-0.746,4.224-1.643,6.212
	c-0.795,1.761-1.989,3.209-4.099,3.912c-1.255,0.418-2.262,0.329-3.124-0.641c-0.892-1.004-1.981-1.814-3.135-2.569
	c-1.106-0.723-2.252-1.201-3.657-0.916c-0.239,0.049-0.494,0.033-0.742,0.048c0,0.021-0.427,0.06-0.641,0.058"/>
<path opacity="0.15" fill="#FFFFFF" d="M85.201,211.46c-0.23,2.301-0.71,4.547-1.889,6.63c-0.193,0.34-0.405,0.677-0.654,0.985
	c-0.727,0.899-1.63,1.166-2.798,0.851c-0.237-0.064-0.47-0.145-0.698-0.232c-2.543-0.974-5.117-1.888-7.618-2.943
	c-3.113-1.313-5.478-3.366-6.966-6.192c-1.047-1.989-2.07-3.988-3.159-5.958c-0.625-1.131-0.43-2.231-0.052-3.347
	c0.113-0.333,0.3-0.647,0.476-0.96c0.464-0.829,0.903-1.66,0.981-2.61c0.058-0.7,0.443-1.136,1.233-1.38
	c0.727-0.225,1.401-0.611,2.065-0.975c1.05-0.575,2.147-0.797,3.358-0.546c0.552,0.114,1.117,0.173,1.671,0.279
	c2.65,0.504,4.839,1.647,6.644,3.52c2.867,2.975,5.124,6.262,6.794,9.89C85.029,209.425,85.292,210.412,85.201,211.46z"/>
<path opacity="0.15" fill="#FFFFFF" d="M14.603,37.055c-0.186,1.423-0.352,2.849-0.565,4.269c-0.233,1.554-1.156,2.752-2.61,3.552
	c-1.56,0.858-2.899,1.914-4.155,3.099c-1.802,1.701-4.416,1.966-6.666,0.718c-0.177-0.098-0.333-0.153-0.505-0.257L0.084,26.869
	c0.366-0.32,0.675-0.694,0.886-1.155c0.268-0.586,0.808-0.838,1.462-0.675c0.947,0.237,1.952,0.436,2.78,0.88
	c2.788,1.496,5.248,3.357,7.277,5.664C13.904,33.192,14.897,34.905,14.603,37.055z"/>
<path opacity="0.15" fill="#FFFFFF" d="M31.575,111.988c0.094,1.008-0.09,1.962-0.614,2.871c-0.876,1.519-1.947,2.892-3.464,3.952
	c-0.532,0.372-1.067,0.741-1.582,1.132c-1.245,0.945-2.531,1.854-3.702,2.87c-1.032,0.895-2.189,1.251-3.576,1.107
	c-0.458-0.048-0.914-0.106-1.369-0.171c-1.184-0.168-2.125-0.679-2.763-1.61c-0.074-0.109-0.165-0.209-0.234-0.32
	c-1.772-2.836-3.531-5.679-5.316-8.508c-0.979-1.552-1.195-3.19-0.747-4.902c0.267-1.021,0.571-2.038,0.926-3.037
	c0.29-0.817,0.912-1.428,1.729-1.878c2.002-1.102,4.115-1.849,6.518-1.748c2.481,0.104,4.949,0.301,7.387,0.745
	c1.404,0.256,2.531,0.881,3.526,1.822c1.979,1.869,2.939,4.1,3.191,6.626C31.521,111.287,31.546,111.637,31.575,111.988z"/>
<path opacity="0.15" fill="#FFFFFF" d="M0.083,121.008c0.886,0.083,1.771,0.173,2.656,0.269c1.015,0.11,1.867,0.558,2.572,1.241
	c1.069,1.036,1.984,2.167,2.695,3.429c0.524,0.931,0.784,1.913,0.698,2.964c-0.153,2.167-0.42,4.321-1.011,6.434
	c-0.928,3.314-2.099,6.558-3.437,9.756c-0.553,1.322-1.546,2.271-2.872,2.97c-0.393,0.207-0.668,0.402-1.296,0.318"/>
<path opacity="0.15" fill="#FFFFFF" d="M23.119,181.795c1.925-0.147,3.751,0.418,5.374,1.586c0.631,0.454,1.128,0.974,1.315,1.687
	c0.373,1.425,1.209,2.63,2.1,3.832c1.913,2.58,2.284,5.419,1.638,8.425c-0.621,2.889-2.535,4.937-5.144,6.526
	c-1.384,0.843-2.937,1.068-4.57,0.653c-1.756-0.446-3.384-1.092-4.742-2.248c-0.584-0.497-1.316-0.858-1.997-1.258
	c-1.098-0.644-2.216-1.26-3.314-1.904c-1.396-0.818-1.875-2.043-1.746-3.467c0.154-1.702,0.753-3.321,1.526-4.857
	c0.963-1.912,2.043-3.781,3.181-5.614c0.475-0.766,1.207-1.408,1.859-2.077c0.868-0.891,1.989-1.3,3.303-1.285
	C22.257,181.798,22.61,181.795,23.119,181.795z"/>
<path opacity="0.15" fill="#FFFFFF" d="M65.001,131.525c-0.061-1.992,0.356-3.85,1.102-5.666c0.488-1.187,1.327-1.997,2.643-2.442
	c2.648-0.896,5.363-1.434,8.205-1.231c0.695,0.05,1.42,0.161,2.055,0.404c2.391,0.916,4.627,2.06,6.438,3.794
	c0.876,0.838,1.294,1.785,1.24,2.94c-0.118,2.522-0.409,5.026-1,7.492c-0.384,1.603-1.16,3.072-2.146,4.45
	c-0.48,0.672-1.125,1.157-1.992,1.34c-0.927,0.196-1.863,0.37-2.805,0.494c-0.973,0.129-1.902-0.058-2.761-0.501
	c-0.829-0.428-1.666-0.844-2.484-1.288c-0.893-0.484-1.831-0.83-2.883-0.89c-0.175-0.01-0.348-0.074-0.523-0.079
	c-1.753-0.045-2.756-0.96-3.423-2.321C65.645,135.932,64.873,133.794,65.001,131.525z"/>
<path opacity="0.15" fill="#FFFFFF" d="M40.834,64.463c-0.298,1.02-0.566,2.074-0.926,3.102c-0.144,0.412-0.42,0.83-0.757,1.137
	c-1.565,1.42-3.316,2.637-5.517,3.105c-2.251,0.479-4.428,1.11-6.524,1.989c-0.571,0.24-1.194,0.426-1.815,0.518
	c-3.021,0.446-5.303-0.616-7.002-3.258c-0.84-1.307-1.401-2.723-1.722-4.202c-0.41-1.891,0.246-3.644,1.242-5.231
	c2.156-3.436,5.235-5.911,9.594-6.924c1.129-0.263,2.232-0.317,3.348-0.01c0.542,0.149,1.081,0.305,1.62,0.459
	c4.08,1.167,6.546,3.772,7.952,7.294C40.576,63.061,40.657,63.735,40.834,64.463z"/>
<path opacity="0.15" fill="#FFFFFF" d="M94.628,71.232c-0.127,0.721-0.167,1.465-0.396,2.158c-0.693,2.094-1.73,4.054-3.177,5.812
	c-1.842,2.237-4.422,2.822-7.349,2.506c-0.523-0.056-1.049-0.187-1.541-0.358c-3.204-1.112-6.401-2.242-9.596-3.377
	c-0.36-0.128-0.685-0.335-1.037-0.484c-1.428-0.603-2.029-1.632-1.888-3.017c0.11-1.079,0.201-2.165,0.419-3.229
	c0.458-2.237,1.923-3.94,3.741-5.431c0.156-0.128,0.328-0.25,0.514-0.337c3.139-1.477,6.388-2.369,10.008-1.847
	c2.697,0.388,5.031,1.442,7.295,2.737C93.62,67.508,94.724,69.034,94.628,71.232z"/>
<path opacity="0.15" fill="#FFFFFF" d="M135.888,149.619c0.183,2.04-0.572,3.662-2.133,5.061c-1.367,1.225-2.869,2.187-4.772,2.534
	c-2.009,0.367-4.03,0.681-6.049,0.998c-0.344,0.054-0.707,0.025-1.06,0.008c-0.764-0.037-1.354-0.32-1.676-0.984
	c-0.17-0.35-0.389-0.68-0.565-1.028c-0.771-1.519-1.751-2.908-3.023-4.135c-1.169-1.127-1.716-2.543-2.172-3.997
	c-0.212-0.677-0.111-1.336,0.065-1.984c0.643-2.373,1.785-4.482,3.91-6.106c1.1-0.841,2.297-1.475,3.65-1.901
	c0.801-0.252,1.594-0.278,2.396-0.047c2.904,0.84,5.599,2.096,7.797,3.976C134.64,144.055,136.066,146.603,135.888,149.619z"/>
<path opacity="0.15" fill="#FFFFFF" d="M130.388,120.265c-0.167,0.71-0.255,1.349-0.47,1.951c-1.018,2.852-2.076,5.693-3.11,8.54
	c-0.537,1.477-1.517,2.65-2.912,3.557c-0.67,0.436-1.378,0.635-2.197,0.424c-2.386-0.615-4.726-1.344-6.914-2.406
	c-0.479-0.232-0.908-0.623-1.232-1.025c-1.073-1.33-1.784-2.819-2.193-4.425c-0.214-0.841-0.109-1.671,0.228-2.446
	c0.747-1.718,1.39-3.503,2.403-5.091c1.567-2.457,3.4-4.776,5.134-7.146c0.915-1.251,2.25-1.909,3.869-2.124
	c1.328-0.176,2.322,0.385,3.16,1.231c0.29,0.292,0.268,0.614,0.057,0.971c-0.721,1.22-0.729,1.414,0.413,2.225
	c1.563,1.11,2.464,2.614,3.276,4.176C130.163,119.184,130.241,119.768,130.388,120.265z"/>
<path opacity="0.15" fill="#FFFFFF" d="M46.218,70.447c0.184-1.166,0.364-2.332,0.554-3.498c0.168-1.03,0.806-1.749,1.841-2.187
	c0.48-0.203,0.959-0.417,1.459-0.571c2.327-0.716,4.727-1.133,7.18-1.185c1.011-0.021,2.032,0.185,3.041,0.333
	c0.874,0.128,1.576,0.566,2.133,1.173c2.173,2.367,3.821,4.974,4.495,8.026c0.188,0.853,0.086,1.647-0.4,2.399
	c-0.178,0.275-0.344,0.56-0.55,0.818c-1.304,1.631-2.574,3.28-3.524,5.11c-0.644,1.241-1.742,1.685-3.225,1.432
	c-1.007-0.172-2.023-0.307-3.032-0.468c-0.968-0.154-1.805-0.552-2.522-1.153c-2.61-2.184-4.814-4.669-6.74-7.363
	C46.295,72.431,46.244,71.458,46.218,70.447z"/>
<path opacity="0.15" fill="#FFFFFF" d="M0.084,52.956c0.502-0.146,1.016-0.268,1.543-0.364c0.448-0.081,0.9-0.225,1.591-0.207
	c0.989,0.025,2.151,0.379,3.324,0.603c0.725,0.139,1.333,0.491,1.7,1.064c0.633,0.989,1.334,1.969,1.762,3.032
	c0.613,1.523,0.983,3.124,1.501,4.679c0.294,0.884,0.083,1.631-0.552,2.315c-0.159,0.171-0.308,0.351-0.479,0.512
	c-1.692,1.598-3.554,3.018-5.558,4.289c-0.966,0.613-2.026,0.858-3.206,0.802c-0.557-0.026-1.098-0.085-1.625-0.173L0.084,52.956z"
	/>
<path opacity="0.15" fill="#FFFFFF" d="M37.414,37.363c-0.078,3.125-0.732,6.167-2.172,9.003c-1.396,2.749-2.059,2.744-4.632,2.607
	c-2.048-0.109-4.089-0.329-6.132-0.505c-0.962-0.083-1.751-0.474-2.392-1.119c-0.189-0.19-0.382-0.377-0.57-0.567
	c-1.16-1.174-1.787-2.502-1.563-4.113c0.237-1.707,0.412-3.42,0.639-5.128c0.11-0.824,0.566-1.47,1.271-2.028
	c0.93-0.735,1.797-1.538,2.664-2.336c1.29-1.188,2.918-1.778,4.654-2.168c0.884-0.198,1.781-0.167,2.56,0.314
	c1.604,0.991,3.192,2.005,4.771,3.028c0.621,0.402,0.831,1.023,0.894,1.673C37.45,36.467,37.414,36.916,37.414,37.363z"/>
<path opacity="0.15" fill="#FFFFFF" d="M28.011,134.021c-0.166,2.708-0.813,5.318-1.871,7.836c-0.371,0.883-0.95,1.702-1.498,2.515
	c-0.411,0.609-1.072,0.91-1.88,0.913c-0.177,0.001-0.355,0.032-0.53,0.021c-2.401-0.158-4.802-0.302-7.2-0.491
	c-0.986-0.078-1.828-0.485-2.478-1.175c-0.366-0.389-0.727-0.783-1.077-1.183c-0.804-0.919-1.157-1.97-1.036-3.131
	c0.178-1.714,0.373-3.427,0.588-5.137c0.124-0.986,0.591-1.791,1.471-2.451c0.922-0.692,1.738-1.499,2.587-2.269
	c1.408-1.278,3.192-1.852,5.085-2.22c0.65-0.126,1.302-0.027,1.84,0.302c1.725,1.055,3.431,2.137,5.123,3.235
	c0.48,0.311,0.688,0.805,0.737,1.334C27.931,132.751,27.966,133.386,28.011,134.021z"/>
<path opacity="0.15" fill="#FFFFFF" d="M49.504,160.324c0.061,0.826,0.13,1.652,0.182,2.479c0.035,0.573,0.064,1.146,0.064,1.72
	c0,0.656-0.233,1.251-0.668,1.781c-1.645,2.008-3.781,3.352-6.535,3.772c-0.823,0.125-1.697,0.057-2.539-0.008
	c-0.958-0.074-1.82,0.091-2.64,0.535c-0.667,0.361-1.351,0.698-2.04,1.022c-0.644,0.303-1.281,0.247-1.93-0.047
	c-1.34-0.605-2.206-1.494-2.598-2.843c-0.666-2.29-0.301-4.356,1.338-6.213c0.384-0.435,0.448-0.909,0.442-1.432
	c-0.027-2.269,1.829-4.331,4.305-4.767c2.529-0.446,5.059-0.522,7.579,0.075c1.172,0.277,2.348,0.422,3.571,0.288
	c0.873-0.096,1.139,0.1,1.348,0.879c0.123,0.46,0.157,0.943,0.189,1.418c0.031,0.445,0.007,0.893,0.007,1.339
	C49.554,160.321,49.529,160.322,49.504,160.324z"/>
<path opacity="0.15" fill="#FFFFFF" d="M59.129,44.222c0.083,1.272,0.131,2.546,0.259,3.814c0.132,1.309-0.385,2.347-1.366,3.282
	c-1.339,1.277-2.839,2.269-4.75,2.762c-1.12,0.289-2.232,0.367-3.358,0.238c-1.189-0.137-2.235,0.108-3.228,0.681
	c-0.535,0.309-1.106,0.569-1.669,0.835c-0.68,0.321-1.341,0.268-2.026-0.046c-1.302-0.598-2.164-1.466-2.538-2.775
	c-0.648-2.274-0.352-4.361,1.295-6.228c0.401-0.454,0.529-0.946,0.516-1.511c-0.054-2.219,1.79-4.289,4.212-4.715
	c2.564-0.45,5.126-0.533,7.682,0.08c1.134,0.272,2.279,0.41,3.466,0.28c0.938-0.102,1.303,0.149,1.452,1.009
	c0.13,0.751,0.112,1.523,0.159,2.286C59.199,44.218,59.164,44.22,59.129,44.222z"/>
<path opacity="0.15" fill="#FFFFFF" d="M37.81,202.933c0.163-1.107,0.319-2.214,0.49-3.319c0.165-1.063,0.925-1.684,1.959-2.091
	c2.239-0.883,4.591-1.302,7.024-1.33c0.665-0.008,1.337,0.113,1.996,0.223c0.833,0.139,1.513,0.538,2.028,1.144
	c1.787,2.105,3.149,4.386,3.67,7.033c0.144,0.731,0.038,1.395-0.334,2.037c-0.164,0.283-0.329,0.568-0.53,0.829
	c-1.047,1.368-2.048,2.759-2.788,4.289c-0.521,1.077-1.401,1.557-2.712,1.338c-0.905-0.152-1.841-0.212-2.707-0.467
	c-0.684-0.201-1.385-0.54-1.904-0.983c-2.173-1.856-3.94-4.014-5.503-6.309C38,204.595,37.817,203.791,37.81,202.933z"/>
<path opacity="0.15" fill="#FFFFFF" d="M88.443,204.742c0.114-0.693,0.204-1.39,0.349-2.078c0.204-0.965,0.69-1.767,1.54-2.439
	c1.037-0.82,2.001-1.72,2.93-2.641c0.614-0.608,1.19-1.272,1.64-1.984c0.538-0.851,1.208-1.329,2.333-1.4
	c1.588-0.099,3.166-0.319,4.748-0.497c0.28-0.031,0.552-0.117,0.83-0.161c0.678-0.109,1.076-0.49,1.198-1.073
	c0.296-1.407,0.289-2.781-0.524-4.09c-0.552-0.888-1.1-1.792-1.501-2.74c-0.697-1.65,0.419-3.182,2.368-3.191
	c1.152-0.006,2.324,0.188,3.449,0.433c0.547,0.119,1.1,0.483,1.492,0.867c1.1,1.079,2.233,2.156,3.142,3.362
	c1.669,2.218,3.197,4.522,4.763,6.801c1.182,1.72,1.676,3.646,1.926,5.624c0.067,0.527-0.043,1.082-0.137,1.615
	c-0.319,1.803-0.877,3.547-1.696,5.219c-0.142,0.291-0.318,0.571-0.503,0.841c-0.265,0.387-0.642,0.586-1.166,0.478
	c-0.138-0.028-0.278-0.052-0.418-0.07c-1.457-0.183-2.826-0.011-4.045,0.797c-0.542,0.359-1.103,0.695-1.64,1.06
	c-0.671,0.456-1.1,1.026-1.259,1.81c-0.225,1.111-0.496,1.202-1.761,1.124c-2.332-0.143-4.669-0.311-6.946,0.41
	c-1.045,0.331-2.096,0.227-3.115-0.141c-1.55-0.561-3.072-1.164-4.293-2.24c-0.469-0.413-0.833-0.861-0.894-1.475
	c-0.064-0.638-0.4-1.144-0.986-1.517c-0.202-0.129-0.37-0.303-0.578-0.421C88.751,206.494,88.337,205.747,88.443,204.742z"/>
<path opacity="0.15" fill="#FFFFFF" d="M95.865,256.014c0.909-3.562,3.245-5.734,6.316-7.533c0.836-0.49,1.756-0.662,2.724-0.686
	c2.242-0.055,4.456,0.113,6.623,0.679c2.277,0.594,4.549,1.212,6.85,1.722c1.78,0.395,2.836,1.349,3.287,2.906
	c0.279,0.966,0.523,1.936,0.724,2.912"/>
<path opacity="0.15" fill="#FFFFFF" d="M171.102,256.014c1.562-0.883,3.215-1.571,5.047-1.989c3.035-0.692,6.161-0.882,9.285-0.677
	c1.848,0.122,3.611,0.659,5.237,1.468c0.543,0.27,1.172,0.757,1.556,1.199"/>
<path opacity="0.15" fill="#FFFFFF" d="M179.405,241.77c-0.278,1.604-0.542,3.21-0.846,4.81c-0.083,0.435-0.271,0.858-0.444,1.274
	c-0.166,0.398-0.5,0.608-0.991,0.572c-0.247-0.018-0.498-0.018-0.741-0.055c-0.672-0.102-1.272,0.025-1.769,0.449
	c-0.845,0.721-1.9,0.781-2.973,0.807c-0.805,0.019-1.401-0.373-1.996-0.789c-0.388-0.271-0.781-0.564-1.344-0.431
	c-0.775,0.184-1.194,0.667-1.154,1.407c0.023,0.413,0.075,0.829,0.162,1.235c0.204,0.959-0.109,1.776-0.841,2.456
	c-0.663,0.616-1.339,1.232-2.084,1.762c-0.397,0.283-0.935,0.464-1.44,0.552c-1.427,0.248-2.585-0.101-3.269-1.367
	c-0.727-1.347-1.916-2.357-3.08-3.389c-1.49-1.32-2.953-2.666-4.421-4.007c-0.348-0.318-0.658-0.67-1.007-0.986
	c-1.954-1.77-1.987-3.92-1.485-6.161c0.081-0.36,0.298-0.738,0.57-1.014c0.938-0.952,1.911-1.876,2.904-2.782
	c0.583-0.532,1.329-0.742,2.148-0.563c0.912,0.198,1.591-0.137,2.19-0.689c0.594-0.548,1.217-1.078,1.743-1.676
	c1.075-1.225,2.451-1.896,4.166-2.032c2.011-0.159,4.021-0.317,6.031-0.484c1.409-0.117,2.564,0.322,3.527,1.237
	c2.203,2.094,4.069,4.417,5.745,6.867C179.335,239.691,179.274,240.729,179.405,241.77z"/>
<path opacity="0.15" fill="#FFFFFF" d="M199.868,256.014c-2-0.694-3.754-1.8-5.528-3.004c-0.51-0.346-0.932-0.907-1.169-1.449
	c-1.369-3.133-2.041-6.362-1.446-9.741c0.163-0.925,0.563-1.724,1.415-2.273c1.814-1.169,3.587-2.404,5.497-3.431
	c1.799-0.967,3.886-1.138,5.959-1.149c0.662-0.004,1.243,0.225,1.701,0.676c0.191,0.188,0.42,0.348,0.597,0.545
	c0.649,0.722,1.501,0.897,2.478,0.808c0.845-0.077,1.694-0.138,2.542-0.166c0.345-0.011,0.723,0.022,1.038,0.138
	c1.562,0.578,3.024,1.366,4.02,2.59c1.42,1.745,2.312,3.726,2.485,5.921c0.022,0.285,0.003,0.574-0.018,0.86
	c-0.028,0.389-0.235,0.629-0.679,0.75c-0.505,0.137-0.989,0.343-1.475,0.533c-0.609,0.239-0.894,0.697-1.013,1.262
	c-0.191,0.907-0.042,1.163,0.916,1.562c1.303,0.543,1.596,1.347,0.632,2.306c-1.151,1.144-2.407,2.205-3.663,3.26L199.868,256.014z"
	/>
<path opacity="0.15" fill="#FFFFFF" d="M76.591,230.857c2.406,0.13,4.386,0.504,6.312,1.05c1.956,0.555,3.877,1.215,5.795,1.873
	c1.286,0.441,2.301,1.229,3.174,2.186c1.543,1.691,2.809,3.519,3.636,5.588c0.453,1.133,0.533,2.219-0.107,3.331
	c-0.217,0.377-0.28,0.856-0.29,1.29c-0.017,0.7,0.02,1.408,0.118,2.103c0.201,1.418-0.554,2.385-1.873,2.917
	c-1.22,0.491-2.24,1.142-3.236,1.937c-1.171,0.933-2.617,1.287-4.133,0.567c-0.97-0.461-1.962-0.912-2.845-1.489
	c-2.082-1.361-4.34-2.207-6.917-2.483c-2.276-0.243-4.172-1.357-5.974-2.569c-0.587-0.395-0.914-0.957-1.146-1.577
	c-0.667-1.778-0.972-3.599-0.727-5.467c0.14-1.07-0.001-1.996-0.888-2.819c-0.672-0.624-0.647-0.968-0.041-1.692
	c0.445-0.53,0.944-1.046,1.514-1.465c1.743-1.281,3.68-2.277,5.826-2.908C75.485,231.025,76.223,230.931,76.591,230.857z"/>
<path opacity="0.15" fill="#FFFFFF" d="M147.962,159.1c0.463,0.103,1.277,0.2,2.019,0.462c4.139,1.462,6.363,4.438,7.647,8.085
	c0.382,1.085,0.073,2.221-0.178,3.317c-0.28,1.228-0.752,2.393-1.488,3.464c-0.635,0.923-1.289,1.835-1.907,2.766
	c-0.545,0.821-1.192,1.617-1.546,2.504c-0.838,2.1-2.624,2.845-4.87,3.154c-1.401,0.193-2.608-0.058-3.663-0.879
	c-3.085-2.398-6.16-4.807-9.236-7.214c-1.201-0.94-1.916-2.139-2.144-3.54c-0.21-1.29-0.345-2.593-0.445-3.894
	c-0.076-0.995,0.328-1.872,1.023-2.651c1.564-1.751,3.393-3.139,5.84-3.819C141.831,160.073,144.66,159.381,147.962,159.1z"/>
<path opacity="0.15" fill="#FFFFFF" d="M31.508,256.014c0.098-0.525,0.23-1.047,0.408-1.553c0.557-1.586,0.736-3.166,0.184-4.789
	c-0.408-1.199-0.174-2.406,0.077-3.601c0.118-0.563,0.299-1.116,0.437-1.676c0.961-3.924,3.629-6.764,7.073-9.138
	c1.326-0.914,2.78-1.22,4.393-1.039c0.984,0.11,1.964,0.247,2.944,0.385c1.218,0.171,2.308,0.602,3.23,1.352
	c0.788,0.641,1.621,1.246,2.343,1.942c0.944,0.91,1.474,2.012,1.512,3.315c-0.286,2.041-0.687,4.078-2.014,5.855
	c-1.645,2.203-3.519,4.239-5.533,6.177c-0.696,0.669-1.283,1.431-1.901,2.164c-0.156,0.185-0.284,0.393-0.396,0.605"/>
<path opacity="0.15" fill="#FFFFFF" d="M128.018,245.339c-0.531,0-1.063-0.02-1.593,0.005c-0.73,0.034-1.292-0.197-1.756-0.713
	c-2.122-2.36-3.801-4.918-4.508-7.931c-0.434-1.849-0.291-3.678,0.184-5.499c0.169-0.648,0.574-1.165,1.159-1.56
	c2.288-1.546,4.798-2.711,7.527-3.476c1.181-0.331,2.401-0.162,3.591-0.019c3.954,0.477,7.07,2.171,9.486,5.076
	c2.019,2.428,2.685,5.039,2.31,8.006c-0.271,2.143-0.746,4.224-1.643,6.212c-0.795,1.761-1.989,3.209-4.099,3.912
	c-1.255,0.418-2.262,0.329-3.124-0.641c-0.892-1.004-1.981-1.814-3.135-2.569c-1.106-0.723-2.252-1.201-3.657-0.916
	c-0.239,0.049-0.494,0.033-0.742,0.048C128.018,245.297,128.018,245.318,128.018,245.339z"/>
<path opacity="0.15" fill="#FFFFFF" d="M102.736,215.701c2.361,0.116,4.633,0.557,6.822,1.358c0.95,0.347,1.692,0.908,2.3,1.643
	c1.471,1.779,2.43,3.735,2.642,5.966c0.106,1.113,0.229,2.225,0.359,3.336c0.132,1.13-0.178,2.126-0.909,3.066
	c-1.835,2.358-4.309,3.942-7.246,4.98c-1.195,0.423-2.464,0.36-3.68,0.177c-3.118-0.47-6.135-1.274-9.054-2.389
	c-1.951-0.746-3.35-1.999-4.406-3.603c-0.983-1.494-0.843-3.02,0.363-4.353c0.202-0.223,0.388-0.462,0.619-0.657
	c1.06-0.896,1.138-1.997,0.851-3.18c-0.136-0.561-0.287-1.119-0.413-1.681c-0.123-0.553,0.078-1.014,0.572-1.354
	c0.337-0.232,0.683-0.462,1.058-0.638c2.725-1.278,5.623-2.099,8.642-2.578C101.74,215.714,102.244,215.729,102.736,215.701z"/>
<path opacity="0.15" fill="#FFFFFF" d="M141.897,189.442c-0.186,1.423-0.352,2.849-0.565,4.269c-0.233,1.554-1.156,2.752-2.61,3.552
	c-1.56,0.858-2.899,1.914-4.155,3.099c-1.802,1.701-4.416,1.966-6.666,0.718c-1.825-1.012-3.392-2.317-4.765-3.786
	c-0.956-1.022-1.801-2.132-2.654-3.228c-1.384-1.78-1.881-3.831-2.119-5.945c-0.042-0.372-0.011-0.777,0.107-1.134
	c0.622-1.878,1.615-3.542,3.534-4.616c1.324-0.741,2.662-1.46,3.991-2.193c0.946-0.522,1.823-1.103,2.269-2.076
	c0.268-0.586,0.808-0.838,1.462-0.675c0.947,0.237,1.952,0.436,2.78,0.88c2.788,1.496,5.248,3.357,7.277,5.664
	C141.197,185.579,142.19,187.292,141.897,189.442z"/>
<path opacity="0.15" fill="#FFFFFF" d="M137.962,256.014c2.002-1.102,4.31-1.984,6.713-1.883c2.481,0.104,4.949,0.301,7.387,0.745
	c1.029,0.188,1.892,0.574,2.681,1.138"/>
<path opacity="0.15" fill="#FFFFFF" d="M45.952,224.167c-0.262-3.177,1.645-5.142,4.377-6.542c1.274-0.653,2.743-1.02,4.156-1.427
	c1.309-0.376,2.667-0.236,4.01-0.073c3.673,0.446,7.252,1.199,10.565,2.749c0.938,0.439,1.824,0.982,2.682,1.541
	c0.756,0.493,1.123,1.202,1.126,2.068c0.009,2.236-0.452,4.337-2.232,6.016c-1.639,1.547-3.279,3.099-5.022,4.549
	c-1.922,1.599-4.628,1.447-6.457-0.234c-0.89-0.818-2.467-0.714-3.364,0.221c-0.97,1.011-1.094,1.035-2.524,0.602
	c-1.827-0.554-3.107-1.751-4.319-3.009c-0.555-0.576-1.01-1.232-1.494-1.861C46.372,227.359,45.769,225.822,45.952,224.167z"/>
<path opacity="0.15" fill="#FFFFFF" d="M168.127,216.85c-0.298,1.02-0.566,2.074-0.926,3.102c-0.144,0.412-0.42,0.83-0.757,1.137
	c-1.565,1.42-3.316,2.637-5.517,3.105c-2.251,0.479-4.428,1.11-6.524,1.989c-0.571,0.24-1.194,0.426-1.815,0.518
	c-3.021,0.446-5.303-0.616-7.002-3.258c-0.84-1.307-1.401-2.723-1.722-4.202c-0.41-1.891,0.246-3.644,1.242-5.231
	c2.156-3.436,5.235-5.911,9.594-6.924c1.129-0.263,2.232-0.317,3.348-0.01c0.542,0.149,1.081,0.305,1.62,0.459
	c4.08,1.167,6.546,3.772,7.952,7.294C167.87,215.449,167.95,216.122,168.127,216.85z"/>
<path opacity="0.15" fill="#FFFFFF" d="M221.921,223.619c-0.127,0.721-0.167,1.465-0.396,2.158c-0.693,2.094-1.73,4.054-3.177,5.812
	c-1.842,2.237-4.422,2.822-7.349,2.506c-0.523-0.056-1.049-0.187-1.541-0.358c-3.204-1.112-6.401-2.242-9.596-3.377
	c-0.36-0.128-0.685-0.335-1.037-0.484c-1.428-0.603-2.029-1.632-1.888-3.017c0.11-1.079,0.201-2.165,0.419-3.229
	c0.458-2.237,1.923-3.94,3.741-5.431c0.156-0.128,0.328-0.25,0.514-0.337c3.139-1.477,6.388-2.369,10.008-1.847
	c2.697,0.388,5.031,1.442,7.294,2.737C220.913,219.895,222.017,221.422,221.921,223.619z"/>
<path opacity="0.15" fill="#FFFFFF" d="M48.511,256.014c0.066-0.124,0.148-0.245,0.248-0.363c0.302-0.354,0.633-0.687,0.938-1.039
	c0.479-0.551,0.945-1.112,1.42-1.666c0.969-1.131,2.142-2.117,3.603-2.611c3.058-1.035,6.243-1.655,9.52-1.841
	c1.206-0.068,2.304,0.174,3.355,0.715c1.905,0.981,3.82,1.949,5.762,2.87c1.18,0.56,1.895,1.382,2.229,2.533
	c0.135,0.465,0.249,0.932,0.34,1.401"/>
<path opacity="0.15" fill="#FFFFFF" d="M173.512,222.835c0.184-1.166,0.364-2.332,0.554-3.498c0.168-1.03,0.806-1.749,1.841-2.187
	c0.48-0.203,0.959-0.417,1.459-0.571c2.327-0.716,4.727-1.133,7.18-1.185c1.011-0.021,2.032,0.185,3.041,0.333
	c0.874,0.128,1.576,0.566,2.133,1.173c2.173,2.367,3.821,4.974,4.495,8.026c0.188,0.853,0.086,1.647-0.4,2.399
	c-0.178,0.275-0.344,0.56-0.55,0.818c-1.304,1.631-2.574,3.28-3.524,5.11c-0.644,1.241-1.742,1.685-3.225,1.432
	c-1.007-0.172-2.023-0.307-3.032-0.468c-0.968-0.154-1.805-0.552-2.522-1.153c-2.61-2.184-4.814-4.669-6.74-7.363
	C173.588,224.818,173.538,223.845,173.512,222.835z"/>
<path opacity="0.15" fill="#FFFFFF" d="M130.511,204.772c0.974,0.176,2.151,0.379,3.324,0.603c0.725,0.139,1.333,0.491,1.7,1.064
	c0.633,0.989,1.334,1.969,1.762,3.032c0.613,1.523,0.983,3.124,1.501,4.679c0.294,0.884,0.083,1.63-0.552,2.315
	c-0.159,0.171-0.308,0.351-0.479,0.512c-1.692,1.598-3.554,3.018-5.558,4.289c-0.966,0.613-2.026,0.858-3.206,0.802
	c-3.308-0.157-6.078-1.446-8.443-3.415c-0.915-0.761-1.524-1.827-2.229-2.781c-0.161-0.218-0.203-0.549-0.189-0.823
	c0.029-0.539,0.027-1.11,0.228-1.605c0.962-2.36,2.215-4.556,4.585-6.063c1.815-1.154,3.777-2.006,5.964-2.403
	C129.368,204.898,129.826,204.86,130.511,204.772z"/>
<path opacity="0.15" fill="#FFFFFF" d="M164.708,189.75c-0.078,3.125-0.732,6.167-2.172,9.003c-1.396,2.749-2.059,2.744-4.632,2.607
	c-2.048-0.109-4.089-0.329-6.132-0.505c-0.962-0.083-1.751-0.474-2.392-1.119c-0.189-0.19-0.382-0.377-0.57-0.567
	c-1.16-1.174-1.787-2.502-1.563-4.113c0.237-1.707,0.412-3.42,0.639-5.128c0.11-0.824,0.566-1.47,1.271-2.028
	c0.93-0.735,1.797-1.538,2.664-2.336c1.29-1.188,2.918-1.778,4.654-2.168c0.884-0.198,1.781-0.167,2.56,0.314
	c1.604,0.991,3.192,2.005,4.771,3.028c0.621,0.402,0.831,1.023,0.894,1.673C164.743,188.854,164.708,189.304,164.708,189.75z"/>
<path opacity="0.15" fill="#FFFFFF" d="M185.097,196.609c0.083,1.272,0.131,2.546,0.259,3.814c0.132,1.309-0.385,2.347-1.366,3.282
	c-1.339,1.277-2.839,2.269-4.75,2.762c-1.12,0.289-2.232,0.367-3.358,0.238c-1.189-0.137-2.235,0.108-3.228,0.681
	c-0.535,0.309-1.106,0.569-1.669,0.835c-0.68,0.321-1.341,0.268-2.026-0.046c-1.302-0.598-2.164-1.466-2.538-2.775
	c-0.648-2.274-0.352-4.361,1.295-6.228c0.401-0.454,0.529-0.946,0.516-1.511c-0.054-2.219,1.79-4.289,4.212-4.715
	c2.564-0.45,5.126-0.533,7.682,0.08c1.134,0.272,2.279,0.41,3.466,0.28c0.938-0.102,1.303,0.149,1.452,1.009
	c0.13,0.751,0.112,1.523,0.159,2.286C185.167,196.606,185.132,196.608,185.097,196.609z"/>
<path opacity="0.15" fill="#FFFFFF" d="M142.935,82.563c0.619-0.372,1.278-0.682,1.819-1.113c0.942-0.749,1.928-0.854,3.128-0.584
	c2.23,0.502,3.026,1.287,3.059,3.374c0.006,0.404-0.086,0.83-0.241,1.21c-0.247,0.607-0.231,1.173,0.039,1.764
	c1.319,2.886,1.398,5.817,0.282,8.761c-0.279,0.736-0.284,1.422-0.031,2.145c0.288,0.82,0.597,1.639,0.801,2.477
	c0.101,0.415,0.093,0.901-0.046,1.305c-0.272,0.787-0.674,1.538-1.016,2.306c-0.307,0.69-0.865,1.156-1.597,1.466
	c-2.052,0.87-4.151,1.281-6.37,0.532c-1.557-0.525-3.156-0.968-4.663-1.59c-2.832-1.169-5.613-2.44-8.414-3.67
	c-1.908-0.838-3.504-2.052-4.93-3.441c-0.544-0.53-0.993-1.165-1.365-1.808c-0.855-1.477-1.413-3.058-1.796-4.688
	c-0.044-0.187-0.069-0.378-0.087-0.568c-0.113-1.174-0.095-1.285,1.198-1.612c2.446-0.618,3.577-2.277,4.261-4.27
	c0.138-0.402-0.05-0.936-0.213-1.371c-0.392-1.047-0.311-1.222,0.849-1.618c1.191-0.406,2.401-0.787,3.54-1.294
	c0.846-0.377,1.667-0.862,2.366-1.432c1.2-0.979,2.542-1.334,4.11-1.109c0.07,0.01,0.141,0.01,0.212,0.017
	c2.715,0.272,2.73,0.261,4.397,2.175c0.237,0.272,0.284,0.695,0.363,1.058C142.693,81.471,142.479,82.007,142.935,82.563z"/>
<path opacity="0.15" fill="#FFFFFF" d="M122.384,0.015c0.15,1.077,0.108,2.162-0.03,3.241c-0.057,0.446-0.341,0.912-0.653,1.278
	c-0.515,0.602-0.815,1.252-0.974,1.988c-0.31,1.44-0.668,2.872-0.989,4.31c-0.462,2.066-1.479,3.92-2.694,5.693
	c-0.313,0.457-0.697,0.894-1.132,1.261c-1.666,1.406-3.535,2.556-5.603,3.436c-0.287,0.122-0.586,0.234-0.891,0.308
	c-0.696,0.17-0.922,0.077-1.318-0.477c-0.211-0.295-0.435-0.582-0.635-0.883c-1.295-1.946-4.121-0.992-6.365-1.113
	c-2.679-0.353-7.549-1.585-10.81-3.349c-3.171-1.407-3.389-6.965-2.188-8.509c1.563-2.01,7.798-7.055,7.781-7.185L122.384,0.015z"/>
<path opacity="0.15" fill="#FFFFFF" d="M215.949,14.805c0.091-0.4,0.152-0.885,0.313-1.342c0.654-1.858,1.615-3.585,2.825-5.199
	c0.168-0.224,0.374-0.428,0.583-0.624c0.308-0.287,0.673-0.388,1.098-0.207c0.06,0.026,0.134,0.03,0.189,0.061
	c0.985,0.564,1.972,0.419,3.075,0.228c1.565-0.271,3.082,0.015,4.133,1.294c0.16,0.194,0.328,0.386,0.513,0.56
	c0.877,0.823,2.153,0.548,2.488-0.545c0.142-0.465,0.238-0.943,0.322-1.42c0.096-0.543,0.398-0.953,0.889-1.265
	c1.168-0.743,2.446-1.276,3.853-1.504c1.763-0.286,3.378,0.6,3.839,2.177c0.409,1.398,1.137,2.638,1.934,3.871
	c1.284,1.987,2.473,4.023,3.775,6c1.323,2.008,0.981,3.942-0.186,5.848c-0.264,0.432-0.681,0.869-1.15,1.102
	c-1.259,0.624-2.577,1.153-3.886,1.692c-0.68,0.28-1.384,0.243-2.039-0.091c-0.941-0.479-1.862-0.401-2.791,0.02
	c-0.84,0.381-1.703,0.723-2.522,1.138c-1.175,0.595-2.423,0.743-3.706,0.502c-2.267-0.426-4.518-0.918-6.777-1.38
	c-1.433-0.293-2.46-1.042-3.155-2.205c-1.471-2.462-2.555-5.061-3.441-7.732C216.03,15.498,216.016,15.19,215.949,14.805z"/>
<path opacity="0.15" fill="#FFFFFF" d="M111.219,90.437c-1.84,0-3.679,0.013-5.519-0.01c-0.415-0.005-0.863-0.069-1.236-0.224
	c-3.062-1.274-5.829-2.894-7.772-5.469c-1.028-1.362-1.476-2.88-1.626-4.495c-0.059-0.637,0.139-1.221,0.534-1.719
	c0.995-1.254,1.118-2.625,0.928-4.106c-0.282-2.197,0.645-4.121,2.179-5.722c1.618-1.69,3.71-2.845,6.142-3.447
	c0.774-0.192,1.543-0.261,2.307-0.073c2.103,0.517,4.24,0.707,6.414,0.682c1.372-0.016,2.553,0.379,3.447,1.4
	c2.14,2.441,3.611,5.173,4.532,8.161c0.297,0.962,0.131,1.911-0.084,2.843c-0.306,1.325-0.458,2.643-0.237,3.991
	c0.152,0.927-0.146,1.734-1.031,2.261c-2.098,1.25-3.742,2.913-5.347,4.621C113.908,90.134,112.753,90.751,111.219,90.437z"/>
<path opacity="0.15" fill="#FFFFFF" d="M108.758,31.22c-0.208-1.326,0.377-2.454,1.302-3.488c1.857-2.073,3.959-3.917,6.285-5.561
	c1.148-0.811,2.47-1.235,3.859-1.529c1.964-0.415,3.946-0.756,5.833-1.443c0.487-0.177,1.142-0.182,1.657-0.057
	c1.358,0.328,2.567,0.924,3.373,2.029c2.129,2.916,3.933,5.986,5.323,9.246c0.447,1.049,0.442,2.115,0.079,3.193
	c-0.985,2.925-2.431,5.653-4.328,8.18c-1.042,1.388-2.557,2.288-4.219,2.979c-1.045,0.435-2.169,0.291-3.251,0.153
	c-2.972-0.378-5.628-1.361-7.959-3.146c-2.59-1.985-4.831-4.214-6.738-6.739C109.106,33.888,108.603,32.665,108.758,31.22z"/>
<path opacity="0.15" fill="#FFFFFF" d="M171.639,42.292c-2.712,0.201-5.471-0.505-8.108-1.724c-1.141-0.528-1.995-1.281-2.663-2.265
	c-1.146-1.687-1.718-3.477-1.539-5.466c0.137-1.527,0.193-3.059,0.282-4.589c0.053-0.911-0.13-1.76-0.635-2.577
	c-0.582-0.942-0.532-1.307,0.355-2.014c0.736-0.586,1.532-1.175,2.417-1.533c4.115-1.666,8.393-2.713,12.967-2.502
	c1.055,0.049,2.017,0.278,2.917,0.776c2.249,1.243,4.279,2.73,6.117,4.43c1.117,1.033,1.713,2.314,1.646,3.727
	c-0.108,2.255,0.181,4.456,0.725,6.642c0.276,1.107-0.044,2.064-0.738,2.983c-0.992,1.313-2.253,2.259-3.955,2.751
	C178.331,41.826,175.178,42.347,171.639,42.292z"/>
<path opacity="0.15" fill="#FFFFFF" d="M70.749,62.922c-1.965,0.179-3.741-0.266-5.326-1.297c-1.06-0.69-2.09-1.422-3.096-2.175
	c-0.986-0.739-1.541-1.728-1.86-2.838c-0.641-2.231-0.749-4.446-0.089-6.709c0.836-2.864,1.976-5.576,3.913-8.006
	c1.153-1.446,2.592-2.42,4.516-2.81c0.725-0.147,1.447-0.322,2.181-0.418c1.278-0.167,2.525-0.066,3.766,0.327
	c4.208,1.332,7.559,3.704,10.368,6.766c0.71,0.774,1.04,1.661,1.064,2.645c0.017,0.702-0.008,1.404-0.022,2.106
	c-0.036,1.72-0.113,3.441-0.102,5.161c0.006,0.862-0.115,1.638-0.763,2.316c-1.403,1.468-2.993,2.759-4.945,3.563
	c-1.104,0.455-2.364,0.668-3.58,0.823C74.777,62.629,72.758,62.747,70.749,62.922z"/>
<path opacity="0.15" fill="#FFFFFF" d="M50.739,36.824c-1.931,0.169-3.502-0.508-4.834-1.66c-1.788-1.545-3.512-3.149-5.272-4.721
	c-1.318-1.177-1.675-2.601-1.434-4.216c0.482-3.224,1.547-6.276,3.218-9.16c0.54-0.932,1.254-1.69,2.319-2.16
	c0.949-0.419,1.719-0.987,2.072-1.942c0.215-0.581,0.71-0.828,1.406-0.799c1.401,0.058,2.769,0.296,3.969,0.935
	c2.437,1.297,4.879,2.599,7.209,4.044c2.047,1.27,3.449,3.11,4.577,5.082c0.811,1.417,1.451,2.919,1.647,4.52
	c0.071,0.581,0.07,1.257-0.191,1.768c-0.914,1.792-1.932,3.542-2.96,5.284c-0.43,0.728-1.157,1.226-2.043,1.442
	c-1.568,0.383-3.138,0.781-4.734,1.039C54.056,36.546,52.39,36.65,50.739,36.824z"/>
<path opacity="0.15" fill="#FFFFFF" d="M192.164,0.014c0.049,0.123,0.403,0.638,0.45,0.763c0.259,0.69,0.192,1.056,0.276,1.803
	c0.287,2.54,0.187,5.033-0.884,7.357c-0.232,0.505-0.457,1.015-0.672,1.531c-0.765,1.839-2.017,3.031-3.582,3.868
	c-0.979,0.524-2.001,0.576-3.031,0.596c-2.424,0.049-4.747-0.543-7.004-1.563c-1.077-0.487-1.951-1.244-2.59-2.372
	c-0.015-0.027-0.031-0.053-0.048-0.077c-1.444-2.105-0.566-3.722-1.738-6.722c-0.515-1.547-4.077-3.412-2.287-5.213L192.164,0.014z"
	/>
<path opacity="0.15" fill="#FFFFFF" d="M138.371,20.898c-2.429,0.364-4.145-0.704-5.74-2.162c-1.38-1.261-2.564-2.636-3.544-4.165
	c-0.526-0.821-0.836-1.686-0.776-2.643c0.146-2.358,0.11-4.702-0.159-7.062c-0.281-2.47,0.232-3.043,2.803-3.957
	c1.419-0.505,2.849-0.97,4.434-0.655c0.619,0.123,2.085-0.02,2.571-0.269l16.812,0.029c1.218,1.084-0.819,2.487-1.542,4.341
	c-0.893,2.292-1.123,4.626-1.505,7.056c-0.132,0.839-0.455,1.676-0.838,2.455c-0.821,1.667-1.917,3.192-3.154,4.642
	c-0.993,1.164-2.26,1.801-3.865,1.933C142.037,20.593,140.204,20.746,138.371,20.898z"/>
<path opacity="0.15" fill="#FFFFFF" d="M166.428,66.197c0.062,1.954-0.309,3.784-1.322,5.491c-0.675,1.137-1.119,2.342-1.242,3.635
	c-0.018,0.189-0.088,0.374-0.13,0.562c-0.437,1.968-2.071,3.025-4.29,2.769c-0.211-0.024-0.424-0.051-0.627-0.104
	c-2.514-0.655-5.128-0.516-7.688-0.799c-0.772-0.085-1.534-0.242-2.301-0.366c-1.198-0.194-2.047-0.804-2.653-1.744
	c-1.023-1.585-1.841-3.257-2.242-5.046c-0.363-1.621-0.538-3.279-0.733-4.926c-0.172-1.452,0.107-2.864,0.693-4.224
	c0.269-0.624,0.552-1.244,0.84-1.862c1.638-3.514,4.721-5.177,8.794-5.616c4.512-0.486,7.696,1.406,10.163,4.564
	c0.567,0.726,0.98,1.552,1.438,2.345C166.095,62.554,166.549,64.34,166.428,66.197z"/>
<path opacity="0.15" fill="#FFFFFF" d="M127.842,47.697c1.169,0.1,2.403,0.184,3.632,0.315c1.244,0.133,2.258,0.664,3.124,1.486
	c1.495,1.418,2.569,3.034,3.095,4.94c1.002,3.631,1.587,7.315,1.817,11.051c0.098,1.599-0.456,2.93-1.644,4.099
	c-0.715,0.703-1.55,1.06-2.609,1.086c-1.893,0.046-3.741-0.214-5.577-0.579c-3.082-0.612-6.083-1.445-9.01-2.521
	c-2.494-0.917-4.209-2.527-5.478-4.599c-0.454-0.741-0.706-1.525-0.682-2.378c0.059-2.103,0.064-4.209,0.187-6.309
	c0.069-1.182,0.668-2.242,1.632-3.031c2.052-1.681,4.385-2.921,7.209-3.213C124.943,47.899,126.357,47.815,127.842,47.697z"/>
<path opacity="0.15" fill="#FFFFFF" d="M75.918,0.014c-0.103,0.605,3.364,4.783,5.875,10.975c1.155,2.849,0.659,5.968-2.615,7.213
	c-4.315,1.896-10.207-0.453-11.113-0.458c-2.352-0.011-6.995-6.755-10.644-8.367c-0.89,0.003-1.673-0.188-2.386-0.596
	c-0.852-0.489-1.704-0.978-2.57-1.451c-0.575-0.314-1.188-0.483-1.932-0.453c-1.297,0.053-3.478-1.307-3.478-2.365
	c-0.002-1.755,0.574-2.97,1.458-4.498H75.918z"/>
<path opacity="0.15" fill="#FFFFFF" d="M253.774,0.014c-0.365,0.604-0.834,1.284-1.23,1.882c-0.481,0.727-1.359,1.027-2.658,0.947
	c-0.964-0.06-1.939-0.069-2.897-0.151c-0.918-0.079-1.59,0.03-1.919,0.594c-0.346,0.594-1.156,0.81-2.13,0.856
	c-0.644,0.031-1.292,0.029-1.937,0.048c-2.07,0.062-3.672-0.432-4.788-1.452c-0.985-0.9-2.066-1.793-2.957-2.725
	C233.258,0.014,253.788-0.01,253.774,0.014z"/>
<path opacity="0.15" fill="#FFFFFF" d="M197.886,17.011c1.405,0.122,2.641,0.233,3.877,0.334c0.738,0.06,0.905-0.154,0.888-1.099
	c-0.036-2.03,1.227-4.543,2.746-5.267c1.079-0.514,2.21-0.464,3.118,0.479c1.071,1.112,2.161,2.252,3.027,3.584
	c1.775,2.728,3.054,5.828,3.397,9.296c0.433,4.377,0.272,8.72-1.22,12.877c-0.625,1.742-1.549,3.039-2.958,3.858
	c-1.473,0.857-2.929,1.725-4.642,1.622c-0.734-0.044-1.43-0.169-1.985-0.754c-1.205-1.272-2.647-1.543-4.164-1.569
	c-0.532-0.009-1.064-0.038-1.595-0.069c-1.279-0.074-2.398-0.603-3.415-1.569c-1.074-1.02-1.772-2.236-2.123-3.865
	c-0.561-2.608-1.264-5.171-1.926-7.746c-0.444-1.73-0.672-3.499-0.754-5.304c-0.06-1.323,0.364-2.291,1.287-3.025
	c1.464-1.165,3.04-1.813,4.799-1.785C196.847,17.019,197.449,17.011,197.886,17.011z"/>
<path opacity="0.15" fill="#FFFFFF" d="M209.959,59.447c-0.23,2.301-0.71,4.547-1.889,6.63c-0.193,0.34-0.405,0.677-0.654,0.985
	c-0.727,0.899-1.63,1.166-2.798,0.851c-0.237-0.064-0.47-0.145-0.698-0.232c-2.543-0.974-5.117-1.888-7.618-2.943
	c-3.113-1.313-5.478-3.366-6.966-6.192c-1.047-1.989-2.07-3.988-3.159-5.958c-0.625-1.131-0.43-2.231-0.052-3.347
	c0.113-0.333,0.3-0.647,0.476-0.96c0.464-0.829,0.903-1.66,0.981-2.61c0.058-0.7,0.443-1.136,1.233-1.38
	c0.727-0.225,1.401-0.611,2.065-0.975c1.05-0.575,2.147-0.797,3.358-0.546c0.552,0.114,1.117,0.173,1.671,0.279
	c2.65,0.504,4.839,1.647,6.644,3.52c2.867,2.975,5.124,6.263,6.794,9.89C209.787,57.413,210.05,58.4,209.959,59.447z"/>
<path opacity="0.15" fill="#FFFFFF" d="M100.237,62.436c-1.731,0.128-3.426-0.475-4.993-1.53c-2.155-1.45-4.012-3.124-5.425-5.203
	c-0.859-1.264-1.269-2.59-1.322-4.073c-0.08-2.215,0.489-4.232,1.808-6.096c0.526-0.744,1.169-1.363,2.039-1.775
	c0.564-0.267,1.126-0.543,1.708-0.774c1.881-0.745,3.762-1.49,5.66-2.199c2.922-1.091,5.617-0.541,7.653,1.616
	c1.101,1.166,2.103,2.408,3.118,3.638c1.408,1.705,1.866,3.697,2.026,5.761c0.056,0.722-0.176,1.405-0.659,1.982
	c-1.002,1.198-1.983,2.415-3.075,3.544c-1.233,1.275-2.603,2.442-3.868,3.693c-1.002,0.991-2.219,1.441-3.682,1.418
	C100.977,62.433,100.729,62.436,100.237,62.436z"/>
<path opacity="0.15" fill="#FFFFFF" d="M147.877,29.782c1.925-0.147,3.751,0.418,5.374,1.586c0.631,0.454,1.128,0.974,1.315,1.687
	c0.373,1.425,1.209,2.63,2.1,3.832c1.913,2.58,2.284,5.419,1.638,8.425c-0.621,2.889-2.536,4.937-5.144,6.526
	c-1.384,0.843-2.937,1.068-4.57,0.653c-1.756-0.446-3.384-1.092-4.742-2.248c-0.584-0.497-1.316-0.858-1.997-1.258
	c-1.098-0.644-2.216-1.26-3.314-1.904c-1.396-0.818-1.875-2.043-1.746-3.467c0.154-1.702,0.753-3.321,1.526-4.857
	c0.963-1.912,2.043-3.781,3.181-5.614c0.475-0.766,1.207-1.408,1.859-2.077c0.868-0.891,1.989-1.3,3.303-1.285
	C147.014,29.785,147.368,29.782,147.877,29.782z"/>
<path opacity="0.15" fill="#FFFFFF" d="M107.868,92.431c0.808,0.112,1.637,0.139,2.406,0.347c3.872,1.047,7.467,2.596,10.577,4.965
	c2.355,1.793,2.612,2.746,1.552,5.357c-0.4,0.984-0.966,1.867-1.912,2.481c-1.753,1.137-3.498,2.291-5.33,3.318
	c-1.624,0.91-4.082,0.317-5.177-1.104c-0.959-1.245-2.077-1.391-3.342-0.39c-0.409,0.324-0.809,0.423-1.246,0.171
	c-0.739-0.427-1.546-0.812-2.148-1.369c-1.712-1.585-2.847-3.51-3.487-5.631c-0.51-1.688-0.271-3.419,0.628-4.935
	c0.823-1.389,2.309-2.249,4.01-2.656C105.523,92.719,106.694,92.614,107.868,92.431z"/>
<path opacity="0.15" fill="#FFFFFF" d="M80.804,35.206c0.229-1.772,0.45-3.545,0.689-5.317c0.106-0.782,0.592-1.342,1.322-1.759
	c0.972-0.554,1.944-0.994,3.175-0.843c1.126,0.138,2.067-0.714,2.122-1.777c0.059-1.15,0.129-1.242,1.31-1.631
	c1.766-0.581,3.56-0.406,5.352-0.134c0.522,0.079,1.03,0.233,1.55,0.33c2.21,0.411,3.812,1.593,5.112,3.193
	c0.543,0.668,0.849,1.395,0.899,2.21c0.083,1.36-0.147,2.656-0.846,3.893c-1.09,1.927-2.577,3.476-4.705,4.544
	c-2.922,1.467-5.91,2.756-9.228,3.316c-0.313,0.053-0.633,0.071-0.943,0.132c-1.966,0.387-3.322-0.327-4.375-1.81
	C81.285,38.213,80.753,36.811,80.804,35.206z"/>
<path opacity="0.15" fill="#FFFFFF" d="M169.885,6.162c0.273,0.505,0.54,1.013,0.781,1.534c0.276,0.596,0.314,1.233,0.143,1.897
	c-0.649,2.513-2.023,4.631-4.345,6.168c-0.695,0.46-1.516,0.765-2.307,1.059c-0.901,0.336-1.613,0.847-2.171,1.594
	c-0.453,0.608-0.933,1.201-1.422,1.785c-0.457,0.546-1.059,0.762-1.771,0.769c-1.47,0.014-2.629-0.429-3.552-1.488
	c-1.567-1.798-2.103-3.826-1.397-6.2c0.166-0.556,0.025-1.014-0.201-1.486c-0.978-2.047-0.16-4.699,1.904-6.135
	c2.108-1.467,4.372-2.599,6.909-3.117c1.18-0.241,2.308-0.604,3.362-1.239c0.752-0.454,1.076-0.388,1.592,0.231
	c0.305,0.366,0.538,0.79,0.768,1.207c0.215,0.391,0.381,0.807,0.569,1.213C168.723,3.966,169.492,5.434,169.885,6.162z"/>
<path opacity="0.15" fill="#FFFFFF" d="M162.567,50.92c0.163-1.107,0.319-2.214,0.49-3.319c0.165-1.063,0.925-1.684,1.959-2.091
	c2.239-0.883,4.591-1.302,7.024-1.33c0.665-0.008,1.337,0.113,1.996,0.223c0.833,0.139,1.513,0.538,2.028,1.144
	c1.787,2.105,3.149,4.386,3.67,7.033c0.144,0.731,0.038,1.395-0.334,2.037c-0.164,0.283-0.329,0.568-0.53,0.829
	c-1.047,1.368-2.048,2.759-2.788,4.289c-0.521,1.077-1.401,1.557-2.712,1.338c-0.905-0.152-1.841-0.212-2.707-0.467
	c-0.684-0.201-1.385-0.54-1.904-0.983c-2.173-1.856-3.94-4.014-5.503-6.309C162.757,52.583,162.575,51.779,162.567,50.92z"/>
<path opacity="0.15" fill="#FFFFFF" d="M44.277,0.014c-0.669,2.366-1.293,4.791-1.836,7.318c-0.501,2.329-1.36,3.42-2.571,2.987
	c-1.202-0.43-4.169,1.836-6.169-3.003c-0.932-1.923-2.484-2.103-2.195-7.302L44.277,0.014z"/>
<path opacity="0.15" fill="#FFFFFF" d="M256.085,249.577c0,0-1.112-1.208-1.484-1.851c-0.855-1.477-1.413-3.058-1.796-4.688
	c-0.044-0.187-0.069-0.378-0.087-0.568c-0.113-1.174-0.095-1.285,1.198-1.611c0.88-0.222,1.249-0.578,2.168-1.016L256.085,249.577z"
	/>
<path opacity="0.15" fill="#FFFFFF" d="M224.152,145.595c1.701,0.032,3.398,0.115,5.035-0.481c0.765-0.279,1.441-0.043,2.002,0.516
	c0.855,0.853,1.728,1.692,2.621,2.514c0.545,0.501,1.121,0.978,1.718,1.428c0.801,0.602,1.17,0.624,1.946-0.017
	c0.621-0.513,1.16-1.116,1.68-1.718c0.614-0.711,0.824-0.839,1.788-0.578c0.811,0.22,1.601,0.512,2.381,0.813
	c0.762,0.294,1.51,0.476,2.366,0.379c1.08-0.121,1.498,0.18,1.738,1.124c0.352,1.385,0.335,2.795,0.156,4.192
	c-0.057,0.446-0.341,0.912-0.653,1.278c-0.515,0.602-0.815,1.252-0.974,1.988c-0.31,1.44-0.668,2.872-0.989,4.31
	c-0.462,2.066-1.479,3.92-2.694,5.693c-0.313,0.457-0.697,0.894-1.132,1.261c-1.666,1.406-3.535,2.556-5.603,3.436
	c-0.287,0.122-0.586,0.234-0.891,0.308c-0.696,0.17-0.922,0.077-1.318-0.477c-0.211-0.295-0.435-0.582-0.635-0.883
	c-1.295-1.946-3.438-2.306-5.683-2.427c-0.348-0.019-0.726,0.196-1.065,0.348c-0.25,0.112-0.449,0.312-0.689,0.446
	c-0.615,0.344-0.89,0.298-1.356-0.222c-0.155-0.173-0.271-0.374-0.415-0.556c-0.824-1.039-1.597-2.116-2.496-3.099
	c-0.555-0.607-1.257-1.129-1.975-1.584c-1.28-0.809-2.083-1.87-2.521-3.211c-0.552-1.688-1.113-3.374-0.985-5.157
	c0.038-0.525,0.139-1.115,0.444-1.54c0.629-0.876,0.765-1.809,0.536-2.753c-0.364-1.502,0.26-2.614,1.44-3.574
	c0.447-0.364,0.904-0.717,1.362-1.069c0.886-0.683,1.887-0.954,3.058-0.775C222.938,145.599,223.55,145.57,224.152,145.595z"/>
<path opacity="0.15" fill="#FFFFFF" d="M212.88,50.855c0.114-0.693,0.204-1.39,0.349-2.078c0.204-0.965,0.69-1.767,1.54-2.439
	c1.037-0.82,2.001-1.72,2.93-2.641c0.614-0.608,1.19-1.272,1.64-1.984c0.538-0.851,1.208-1.329,2.333-1.4
	c1.588-0.099,3.166-0.319,4.748-0.497c0.28-0.031,0.552-0.117,0.83-0.161c0.678-0.109,1.076-0.49,1.198-1.073
	c0.296-1.407,0.289-2.781-0.524-4.09c-0.552-0.888-1.1-1.792-1.501-2.74c-0.697-1.65,0.419-3.182,2.368-3.191
	c1.152-0.006,2.324,0.188,3.449,0.433c0.547,0.119,1.1,0.483,1.492,0.867c1.1,1.079,2.233,2.156,3.142,3.362
	c1.669,2.218,3.197,4.522,4.763,6.801c1.182,1.72,1.676,3.646,1.926,5.624c0.067,0.527-0.043,1.082-0.137,1.615
	c-0.319,1.803-0.877,3.547-1.696,5.219c-0.142,0.291-0.318,0.571-0.503,0.841c-0.265,0.387-0.642,0.586-1.166,0.478
	c-0.138-0.028-0.278-0.052-0.418-0.07c-1.457-0.183-2.826-0.011-4.045,0.797c-0.542,0.359-1.103,0.695-1.64,1.06
	c-0.671,0.456-1.1,1.026-1.259,1.81c-0.225,1.111-0.496,1.202-1.761,1.124c-2.332-0.143-4.669-0.311-6.946,0.41
	c-1.045,0.331-2.096,0.227-3.115-0.141c-1.55-0.561-3.072-1.164-4.293-2.24c-0.469-0.413-0.833-0.861-0.894-1.475
	c-0.064-0.638-0.4-1.144-0.986-1.517c-0.202-0.129-0.37-0.303-0.578-0.421C213.188,52.607,212.773,51.86,212.88,50.855z"/>
<path opacity="0.15" fill="#FFFFFF" d="M158.861,120.78c-0.106,2.087-0.221,4.479-0.35,6.869c-0.069,1.286-0.664,2.318-1.829,3.099
	c-1.831,1.227-3.779,2.255-5.925,2.969c-0.855,0.284-1.737,0.417-2.604,0.146c-1.956-0.612-3.955-0.739-5.974-0.436
	c-2.4,0.361-4.264-0.47-5.961-1.895c-1.122-0.943-1.913-2.019-2.346-3.349c-1.472-4.526-0.973-8.841,1.687-12.913
	c1.06-1.622,2.224-3.19,3.355-4.774c0.248-0.348,0.565-0.656,0.833-0.994c0.793-1.002,1.813-1.428,3.21-1.228
	c0.794,0.114,1.626,0.004,2.44,0.013c2.688,0.032,5.184,0.612,7.346,2.123c0.28,0.196,0.577,0.372,0.855,0.569
	c0.685,0.484,1.434,0.615,2.296,0.472c1.423-0.235,1.732-0.07,2.341,1.069c0.405,0.758,0.636,1.548,0.629,2.399
	C158.851,116.771,158.861,118.622,158.861,120.78z"/>
<path opacity="0.15" fill="#FFFFFF" d="M237.47,242.514c-1.84,0-3.679,0.013-5.519-0.01c-0.415-0.005-0.863-0.069-1.236-0.224
	c-3.062-1.274-5.829-2.894-7.772-5.469c-1.028-1.362-1.476-2.88-1.626-4.495c-0.059-0.637,0.139-1.221,0.534-1.719
	c0.995-1.254,1.118-2.625,0.928-4.106c-0.282-2.197,0.645-4.121,2.179-5.722c1.618-1.69,3.71-2.845,6.142-3.447
	c0.774-0.192,1.543-0.261,2.307-0.073c2.103,0.517,4.24,0.707,6.414,0.682c1.372-0.016,2.553,0.379,3.447,1.4
	c2.14,2.441,3.611,5.173,4.533,8.161c0.297,0.962,0.131,1.911-0.085,2.843c-0.306,1.325-0.458,2.643-0.237,3.991
	c0.152,0.927-0.146,1.734-1.031,2.261c-2.098,1.25-3.742,2.913-5.347,4.621C240.159,242.21,239.004,242.828,237.47,242.514z"/>
<path opacity="0.15" fill="#FFFFFF" d="M238.515,117.724c-0.567,0-1.142-0.057-1.699,0.012c-1.087,0.134-2.017-0.14-2.901-0.686
	c-1.153-0.711-2.194-1.521-2.937-2.597c-0.691-1.002-1.358-2.018-2.003-3.043c-1.023-1.626-1.413-3.383-1.323-5.247
	c0.067-1.406,0.245-2.787,0.61-4.162c0.881-3.321,3.212-5.607,6.283-7.406c0.836-0.49,1.756-0.662,2.724-0.686
	c2.242-0.055,4.456,0.113,6.623,0.679c2.277,0.594,4.549,1.212,6.85,1.722c1.78,0.395,4.862,1.217,5.318,1.895v16.893
	c0,0.288-4.789,0.042-6.908,0.974c-2.262,0.995-4.54,1.065-7.045,1.451c-1.177,0.181-2.391,0.169-3.589,0.245
	C238.518,117.753,238.517,117.739,238.515,117.724z"/>
<path opacity="0.15" fill="#FFFFFF" d="M256.084,196.936c-0.934-0.231-4.914-0.851-5.996-0.988
	c-2.972-0.378-4.071-1.872-6.402-3.658c-2.59-1.985-4.831-4.214-6.738-6.739c-0.869-1.15-1.372-2.373-1.217-3.818
	c-0.208-1.326,0.377-2.454,1.302-3.488c1.857-2.073,3.959-3.917,6.285-5.561c1.148-0.811,2.47-1.235,3.859-1.529
	c1.964-0.415,3.506,0.952,5.394,0.265c0.487-0.177,1.142-0.182,1.657-0.057c0.496,0.12,1.186,0.291,1.855,0.241"/>
<path opacity="0.15" fill="#FFFFFF" d="M197.721,213.435c-1.965,0.179-3.741-0.266-5.326-1.297c-1.06-0.69-2.09-1.422-3.096-2.175
	c-0.986-0.739-1.541-1.728-1.86-2.839c-0.641-2.231-0.749-4.446-0.089-6.709c0.836-2.864,1.976-5.576,3.913-8.006
	c1.153-1.446,2.592-2.42,4.516-2.81c0.725-0.147,1.447-0.322,2.181-0.418c1.278-0.167,2.525-0.066,3.766,0.327
	c4.208,1.332,7.559,3.704,10.368,6.766c0.71,0.774,1.04,1.661,1.064,2.645c0.017,0.701-0.008,1.404-0.022,2.106
	c-0.036,1.72-0.113,3.441-0.102,5.161c0.006,0.862-0.115,1.638-0.763,2.316c-1.403,1.468-2.993,2.759-4.945,3.563
	c-1.104,0.455-2.364,0.668-3.58,0.823C201.749,213.141,199.731,213.259,197.721,213.435z"/>
<path opacity="0.15" fill="#FFFFFF" d="M227.537,113.031c-0.196,0.74-0.371,1.484-0.598,2.216c-0.104,0.334-0.282,0.657-0.473,0.961
	c-1.305,2.085-2.621,4.163-3.934,6.243c-0.603,0.956-1.442,1.463-2.718,1.194c-1.246-0.263-2.324,0.077-3.218,0.856
	c-1.446,1.26-3.119,1.433-5.018,1.08c-4.166-0.774-8.12-2.02-11.771-4.003c-1.749-0.95-1.875-1.422-0.801-2.999
	c0.613-0.9,1.293-1.737,2.379-2.264c0.805-0.391,0.759-0.511,0.391-1.307c-0.185-0.399-0.32-0.85-0.323-1.278
	c-0.021-2.497,0.889-4.769,2.262-6.89c0.362-0.559,0.956-1.035,1.545-1.426c1.11-0.738,2.308-1.367,3.442-2.077
	c1.735-1.087,3.619-1.344,5.671-1.001c1.342,0.225,2.607,0.565,3.747,1.265c0.819,0.503,1.662,0.98,2.528,1.415
	c2.589,1.299,4.414,3.272,5.999,5.456C227.326,111.406,227.438,111.9,227.537,113.031z"/>
<path opacity="0.15" fill="#FFFFFF" d="M201.028,76.97c2.406,0.13,4.386,0.504,6.312,1.05c1.956,0.555,3.877,1.215,5.795,1.873
	c1.286,0.441,2.301,1.229,3.174,2.186c1.543,1.691,2.809,3.519,3.636,5.588c0.453,1.133,0.533,2.219-0.107,3.331
	c-0.217,0.377-0.28,0.856-0.29,1.29c-0.017,0.7,0.02,1.408,0.118,2.103c0.201,1.418-0.554,2.385-1.873,2.917
	c-1.22,0.491-2.24,1.142-3.236,1.937c-1.171,0.933-2.617,1.287-4.133,0.567c-0.97-0.461-1.962-0.912-2.845-1.489
	c-2.082-1.361-4.34-2.207-6.917-2.483c-2.276-0.243-4.172-1.357-5.974-2.569c-0.587-0.395-0.914-0.957-1.146-1.577
	c-0.667-1.778-0.972-3.599-0.727-5.467c0.14-1.07-0.001-1.996-0.888-2.819c-0.672-0.624-0.647-0.968-0.041-1.692
	c0.445-0.53,0.944-1.046,1.514-1.465c1.743-1.281,3.68-2.277,5.826-2.908C199.922,77.138,200.659,77.044,201.028,76.97z"/>
<path opacity="0.15" fill="#FFFFFF" d="M177.712,187.337c-1.931,0.169-3.502-0.508-4.834-1.66c-1.788-1.545-3.512-3.149-5.272-4.721
	c-1.318-1.177-1.675-2.601-1.434-4.216c0.482-3.224,1.547-6.276,3.218-9.16c0.54-0.932,1.254-1.69,2.319-2.16
	c0.949-0.419,1.719-0.987,2.072-1.942c0.215-0.581,0.71-0.828,1.406-0.799c1.401,0.058,2.769,0.296,3.969,0.935
	c2.437,1.297,4.879,2.599,7.209,4.044c2.047,1.27,3.449,3.11,4.577,5.082c0.811,1.417,1.451,2.919,1.647,4.52
	c0.071,0.581,0.07,1.257-0.191,1.768c-0.914,1.792-1.932,3.542-2.96,5.284c-0.43,0.728-1.157,1.226-2.043,1.442
	c-1.568,0.383-3.138,0.781-4.734,1.039C181.028,187.059,179.363,187.163,177.712,187.337z"/>
<path opacity="0.15" fill="#FFFFFF" d="M256.084,220.979c-2.883-0.6-5.695-1.882-8.441-2.892c-2.494-0.917-4.209-2.527-5.478-4.599
	c-0.454-0.741-0.706-1.525-0.682-2.378c0.059-2.103,0.374-3.437,0.496-5.538c0.069-1.182,0.13-1.835,1.094-2.625
	c2.052-1.681,3.166-2.124,5.99-2.416c1.406-0.145,6.592-0.65,7.022-0.615"/>
<path opacity="0.15" fill="#FFFFFF" d="M159.724,149.954c0-1.596,0.089-3.196-0.023-4.785c-0.139-1.985,0.83-3.455,2.406-4.664
	c2.31-1.773,5.002-2.869,7.949-3.485c1.731-0.362,3.475-0.595,5.258-0.6c1.12-0.003,2.004,0.323,2.58,1.222
	c0.407,0.635,0.818,1.267,1.236,1.895c0.746,1.119,1.482,2.244,2.257,3.347c0.624,0.889,1.318,1.739,1.944,2.628
	c0.526,0.747,0.776,1.581,0.661,2.468c-0.19,1.456-0.375,2.914-0.647,4.359c-0.104,0.552-0.351,1.119-0.687,1.592
	c-1.693,2.386-3.89,4.29-6.75,5.534c-0.722,0.314-1.468,0.45-2.259,0.445c-2.055-0.011-4.109-0.029-6.164-0.019
	c-0.778,0.003-1.462-0.188-2.085-0.596c-0.744-0.489-1.489-0.978-2.245-1.451c-0.502-0.314-1.038-0.483-1.688-0.453
	c-1.134,0.053-1.731-0.538-1.732-1.596c-0.002-1.947,0-3.893,0-5.839C159.731,149.954,159.727,149.954,159.724,149.954z"/>
<path opacity="0.15" fill="#FFFFFF" d="M178.544,87.325c-0.286,2.041-0.687,4.078-2.014,5.855c-1.645,2.203-3.519,4.239-5.533,6.177
	c-0.696,0.669-1.283,1.431-1.9,2.164c-0.191,0.227-0.341,0.488-0.469,0.749c-1.208,2.462-3.164,4.449-5.073,6.462
	c-1.199,1.264-1.649,1.325-3.292,0.575c-0.535-0.244-1.048-0.533-1.551-0.83c-2.446-1.44-3.231-3.522-2.821-6.04
	c0.102-0.629,0.25-1.259,0.462-1.864c0.557-1.586,0.736-3.166,0.184-4.789c-0.408-1.199-0.174-2.406,0.077-3.601
	c0.118-0.563,0.299-1.116,0.437-1.676c0.961-3.924,3.629-6.764,7.073-9.138c1.326-0.914,2.78-1.22,4.393-1.039
	c0.984,0.11,1.964,0.247,2.944,0.385c1.218,0.171,2.308,0.602,3.23,1.352c0.788,0.641,1.621,1.246,2.343,1.942
	C177.976,84.92,178.507,86.023,178.544,87.325z"/>
<path opacity="0.15" fill="#FFFFFF" d="M256.084,92.961c-1.101,0.125-1.335-0.172-2.672-0.116c-0.239,0.049-0.494,0.033-0.742,0.048
	c0,0.021-1.063,0.043-1.593,0.068c-0.73,0.034-2.005-1.562-2.469-2.078c-2.122-2.36-3.303-5.058-4.01-8.07
	c-0.434-1.849-0.291-3.678,0.184-5.499c0.169-0.648,0.574-1.165,1.159-1.56c2.288-1.546,2.699-1.376,5.495-1.84
	c2.239-0.371,3.773,0.289,4.648,0.375"/>
<path opacity="0.15" fill="#FFFFFF" d="M227.173,61.814c2.361,0.116,4.633,0.557,6.822,1.358c0.95,0.347,1.692,0.908,2.3,1.643
	c1.471,1.779,2.43,3.735,2.642,5.966c0.106,1.113,0.229,2.225,0.359,3.336c0.132,1.13-0.178,2.126-0.909,3.066
	c-1.835,2.358-4.309,3.942-7.246,4.98c-1.195,0.423-2.464,0.36-3.68,0.177c-3.118-0.47-6.135-1.274-9.054-2.389
	c-1.951-0.746-3.35-1.999-4.406-3.603c-0.983-1.494-0.843-3.02,0.363-4.353c0.202-0.223,0.388-0.462,0.619-0.657
	c1.06-0.896,1.138-1.997,0.851-3.18c-0.136-0.561-0.287-1.119-0.413-1.681c-0.123-0.553,0.078-1.014,0.572-1.354
	c0.337-0.232,0.683-0.462,1.057-0.638c2.725-1.278,5.623-2.099,8.642-2.578C226.177,61.827,226.681,61.842,227.173,61.814z"/>
<path opacity="0.15" fill="#FFFFFF" d="M211.79,170.161c0.078,1.375-0.219,2.672-0.905,3.899c-0.694,1.242-1.933,1.583-3.254,0.857
	c-0.42-0.231-0.792-0.537-1.163-0.833c-0.744-0.592-1.475-1.197-2.205-1.804c-0.466-0.387-0.982-0.549-1.639-0.532
	c-2.142,0.056-4.154-0.35-5.903-1.544c-0.452-0.309-0.906-0.615-1.37-0.909c-4.067-2.573-6.116-6.285-7.227-10.496
	c-0.541-2.052,0.419-3.796,1.845-5.279c1.826-1.898,4.201-3.127,6.848-3.886c1.275-0.365,2.58-0.325,3.853,0.129
	c3.462,1.232,5.876,3.448,7.208,6.53c1.635,3.78,2.873,7.679,3.675,11.678C211.698,168.691,211.715,169.431,211.79,170.161z"/>
<path opacity="0.15" fill="#FFFFFF" d="M164.279,125.462c0.262-2.123,0.511-4.247,0.79-6.368c0.169-1.283,0.774-2.326,1.921-3.182
	c1.113-0.831,2.083-1.822,3.089-2.765c1.8-1.686,4.086-2.486,6.564-2.899c0.528-0.088,1.133,0.018,1.66,0.162
	c0.532,0.145,1.049,0.4,1.508,0.691c1.68,1.065,3.336,2.16,4.993,3.253c0.879,0.579,1.419,1.356,1.421,2.349
	c0.002,1.431,0.034,2.871-0.116,4.293c-0.293,2.774-1.088,5.456-2.128,8.077c-0.444,1.119-1.063,2.154-1.874,3.096
	c-0.549,0.638-1.22,1.082-2.144,1.079c-1.236-0.004-2.474-0.017-3.708-0.083c-1.59-0.085-3.178-0.215-4.765-0.348
	c-0.668-0.056-1.336-0.148-1.994-0.267c-0.377-0.068-0.798-0.15-1.092-0.352c-2.134-1.468-3.905-3.159-4.04-5.768
	c-0.016-0.318-0.002-0.638-0.002-0.957C164.333,125.469,164.306,125.466,164.279,125.462z"/>
<path opacity="0.15" fill="#FFFFFF" d="M256.084,48.446c-1.233,0.187-2.542-0.585-3.747-1.252c-1.825-1.012-3.392-2.317-4.765-3.786
	c-0.956-1.022-1.801-2.132-2.654-3.228c-1.384-1.78-1.881-3.831-2.119-5.945c-0.042-0.372-0.011-0.777,0.107-1.134
	c0.622-1.878,1.615-3.542,3.534-4.616c1.324-0.741,2.662-1.46,3.991-2.193c0.946-0.522,1.823-1.103,2.269-2.076
	c0.268-0.586,0.808-0.838,1.462-0.675c0.638,0.16,1.303,3.131,1.922,3.343"/>
<path opacity="0.15" fill="#FFFFFF" d="M198.445,147.371c-2.327,0.07-4.474-0.355-6.528-1.248c-1.303-0.567-2.657-1.042-4.003-1.525
	c-0.508-0.182-0.848-0.455-0.961-0.93c-0.089-0.372-0.205-0.75-0.207-1.126c-0.016-2.805-0.021-5.61,0.001-8.415
	c0.012-1.527,0.735-2.705,2.279-3.413c2.112-0.97,4.222-1.944,6.349-2.887c1.716-0.761,3.53-0.491,5.326-0.327
	c1.908,0.174,3.645,0.786,5.226,1.741c1.234,0.745,2.446,1.521,3.632,2.327c0.445,0.302,0.83,0.698,1.172,1.099
	c1.056,1.239,1.338,2.574,0.511,4.019c-0.243,0.425-0.433,0.875-0.686,1.294c-0.861,1.432-1.65,2.892-2.145,4.466
	c-0.367,1.163-1.161,2.029-2.303,2.641c-0.76,0.407-1.523,0.811-2.302,1.188C202.117,147.091,200.322,147.517,198.445,147.371z"/>
<path opacity="0.15" fill="#FFFFFF" d="M227.209,212.949c-1.731,0.128-3.426-0.475-4.993-1.53c-2.155-1.45-4.012-3.124-5.425-5.203
	c-0.859-1.264-1.269-2.59-1.322-4.073c-0.08-2.215,0.489-4.232,1.808-6.096c0.526-0.744,1.169-1.363,2.039-1.775
	c0.564-0.267,1.126-0.543,1.708-0.774c1.881-0.745,3.762-1.49,5.66-2.199c2.922-1.091,5.617-0.541,7.653,1.616
	c1.101,1.166,2.103,2.408,3.118,3.638c1.408,1.705,1.866,3.697,2.026,5.761c0.056,0.722-0.176,1.405-0.659,1.982
	c-1.002,1.198-1.983,2.415-3.075,3.544c-1.233,1.275-2.603,2.442-3.868,3.693c-1.002,0.991-2.219,1.441-3.682,1.418
	C227.95,212.945,227.702,212.949,227.209,212.949z"/>
<path opacity="0.15" fill="#FFFFFF" d="M170.388,70.28c-0.262-3.177,1.645-5.142,4.377-6.542c1.274-0.653,2.743-1.02,4.156-1.427
	c1.309-0.376,2.667-0.236,4.01-0.073c3.673,0.446,7.252,1.199,10.565,2.749c0.938,0.439,1.824,0.982,2.682,1.541
	c0.756,0.493,1.123,1.202,1.126,2.068c0.009,2.236-0.452,4.337-2.232,6.016c-1.639,1.547-3.279,3.099-5.022,4.549
	c-1.922,1.599-4.628,1.447-6.457-0.234c-0.89-0.818-2.467-0.714-3.364,0.221c-0.97,1.011-1.094,1.035-2.524,0.602
	c-1.827-0.554-3.107-1.751-4.319-3.009c-0.555-0.576-1.01-1.232-1.494-1.861C170.808,73.472,170.205,71.935,170.388,70.28z"/>
<path opacity="0.15" fill="#FFFFFF" d="M256.084,148.419c-0.033,0.079-5.495-1.376-6.481-2.033
	c-0.483-0.322-0.728-0.736-0.468-1.244c0.646-1.265,0.168-1.77-1.216-2.389c-2.089-0.934-3.491-2.495-4.599-4.255
	c-0.395-0.626-0.502-1.473-0.493-2.217c0.018-1.497,0.207-2.993,0.322-4.489c0.154-2.007,0.302-4.014,0.456-6.02
	c0.139-1.807,0.594-3.509,1.732-5.06c0.794-1.082,1.825-1.585,3.211-1.48c1.977,0.149,2.821,0.832,4.79,1.046
	c1.112,0.221,2.261,0.479,2.745,0.753"/>
<path opacity="0.15" fill="#FFFFFF" d="M189.624,112.799c-2.54-1.095-4.558-2.58-6.582-4.046c-0.532-0.385-0.982-0.892-1.426-1.38
	c-1.314-1.449-2.549-2.97-3.922-4.363c-1.442-1.463-1.584-3.067-1.103-4.841c0.169-0.624,0.492-1.103,1.082-1.39
	c0.409-0.198,0.834-0.366,1.244-0.561c0.644-0.305,1.281-0.624,1.923-0.933c1.31-0.632,2.731-1.049,4.188-0.907
	c3.049,0.298,6.03,1.021,8.902,2.175c1.057,0.424,1.89,1.086,2.554,1.999c1.204,1.655,2.423,3.302,3.684,4.918
	c0.766,0.982,1.025,2.013,0.817,3.188c-0.253,1.428-0.671,2.793-1.311,4.089c-0.359,0.729-0.909,1.221-1.748,1.386
	c-0.484,0.095-0.957,0.232-1.444,0.313c-1.146,0.19-2.244,0.48-3.195,1.147c-0.747,0.524-1.49,0.516-2.286-0.05
	C190.516,113.198,189.946,112.969,189.624,112.799z"/>
<path opacity="0.15" fill="#FFFFFF" d="M230.735,123.344c1.31-0.088,2.541,0.156,3.672,0.756c1.036,0.55,2.064,1.113,3.075,1.7
	c1.417,0.822,2.335,2.008,3.033,3.371c0.668,1.305,0.699,2.668,0.483,4.031c-0.079,0.501-0.447,1.006-0.807,1.422
	c-1.503,1.733-3.027,3.453-4.6,5.134c-0.727,0.777-1.572,1.467-2.388,2.172c-0.72,0.622-1.601,0.777-2.564,0.605
	c-0.243-0.043-0.488-0.083-0.727-0.139c-2.294-0.535-4.588-1.073-6.881-1.611c-0.034-0.008-0.066-0.022-0.1-0.031
	c-2.394-0.666-3.173-1.497-3.399-3.739c-0.06-0.597-0.052-1.222,0.073-1.809c0.762-3.572,2.406-6.784,4.936-9.628
	c1.269-1.426,3.037-1.908,4.923-2.175C229.88,123.344,230.311,123.362,230.735,123.344z"/>
<path opacity="0.15" fill="#FFFFFF" d="M233.352,255.999c-0.726-1.075-1.365-2.23-1.739-3.467c-0.51-1.688-0.271-3.419,0.628-4.935
	c0.823-1.389,2.309-2.249,4.01-2.656c1.123-0.269,2.294-0.374,3.468-0.556c0.808,0.112,1.637,0.139,2.406,0.347
	c3.872,1.047,7.467,2.596,10.577,4.965c2.355,1.793,2.612,2.746,1.552,5.357c-0.135,0.333-0.29,0.655-0.472,0.959"/>
<path opacity="0.15" fill="#FFFFFF" d="M207.777,185.719c0.229-1.772,0.45-3.545,0.689-5.317c0.106-0.782,0.592-1.342,1.322-1.759
	c0.972-0.554,1.944-0.994,3.175-0.843c1.126,0.138,2.067-0.714,2.122-1.777c0.059-1.15,0.129-1.242,1.31-1.631
	c1.766-0.581,3.56-0.406,5.352-0.134c0.522,0.079,1.03,0.233,1.55,0.33c2.21,0.411,3.812,1.593,5.112,3.193
	c0.543,0.668,0.849,1.395,0.899,2.21c0.083,1.36-0.147,2.656-0.846,3.893c-1.09,1.927-2.577,3.476-4.705,4.544
	c-2.922,1.467-5.91,2.756-9.228,3.316c-0.313,0.053-0.633,0.071-0.943,0.132c-1.966,0.387-3.322-0.327-4.375-1.81
	C208.257,188.726,207.725,187.323,207.777,185.719z"/>
<path opacity="0.15" fill="#FFFFFF" d="M256.084,69.524c-1.898-0.297-2.443-0.486-3.398-0.531c-3.308-0.157-5.324-2.258-7.689-4.226
	c-0.915-0.761-1.524-1.827-2.229-2.781c-0.161-0.218-0.203-0.549-0.189-0.823c0.029-0.539,0.027-1.11,0.228-1.605
	c0.962-2.36,2.215-4.556,4.585-6.063c1.815-1.154,8.292-0.604,8.691-0.533"/>
<path opacity="0.15" fill="#FFFFFF" d="M138.599,144.012c0.165-1.073,0.327-2.146,0.497-3.219c0.142-0.891,0.688-1.504,1.575-1.915
	c1.567-0.725,3.25-1.07,4.971-1.32c1.445-0.21,2.881-0.298,4.327,0.014c0.863,0.186,1.58,0.552,2.125,1.182
	c1.698,1.963,2.965,4.12,3.579,6.561c0.259,1.031,0.179,2.023-0.506,2.939c-1.188,1.588-2.333,3.198-3.229,4.943
	c-0.436,0.85-1.184,1.248-2.238,1.09c-1.046-0.157-2.119-0.243-3.125-0.521c-0.682-0.189-1.363-0.568-1.88-1.015
	c-2.107-1.823-3.828-3.931-5.37-6.161C138.779,145.798,138.588,144.939,138.599,144.012z"/>
<path opacity="0.15" fill="#FFFFFF" d="M214.157,0.032c-0.582,0.863-0.77,1.625-1.243,2.547c-0.436,0.85-3.303,1.353-4.357,1.195
	c-1.046-0.157-2.119-0.243-3.125-0.521c-0.682-0.189-1.363-0.568-1.88-1.015c-0.811-0.702-2.216-1.573-3.528-2.223L214.157,0.032z"
	/>
<path opacity="0.15" fill="#FFFFFF" d="M26.071,0.022c-0.565,0.863-1.092,1.748-1.551,2.67c-0.423,0.85-2.862,1.259-3.885,1.101
	c-1.016-0.157-2.057-0.243-3.033-0.521c-0.662-0.189-1.323-0.568-1.825-1.015c-0.788-0.702-2.647-1.584-3.92-2.234H26.071z"/>
</svg>
