<?xml version="1.0" encoding="utf-8"?>
<!-- Generator: Adobe Illustrator 17.0.0, SVG Export Plug-In . SVG Version: 6.00 Build 0)  -->
<!DOCTYPE svg PUBLIC "-//W3C//DTD SVG 1.1//EN" "http://www.w3.org/Graphics/SVG/1.1/DTD/svg11.dtd">
<svg version="1.1" id="Layer_1" xmlns="http://www.w3.org/2000/svg" xmlns:xlink="http://www.w3.org/1999/xlink" x="0px" y="0px"
	 width="256px" height="256px" viewBox="0 0 256 256" enable-background="new 0 0 256 256" xml:space="preserve">
<polygon opacity="0.3" fill="#FFFFFF" points="0,112.474 0,103.178 44.502,25.542 48.601,27.891 "/>
<polygon opacity="0.3" fill="#FFFFFF" points="6.068,73.085 0,84.129 0,93.25 30.674,39.664 26.575,37.315 23.038,43.486 0,40.434 
	0,45.615 19.844,49.057 8.717,68.635 0,61.074 0,67.615 "/>
<polygon opacity="0.3" fill="#FFFFFF" points="0,132.389 0,123.743 75.006,-0.102 80.68,-0.102 "/>
<polygon opacity="0.3" fill="#FFFFFF" points="0,148.784 0,139.327 88.115,-0.102 93.711,-0.102 "/>
<polygon opacity="0.3" fill="#FFFFFF" points="0,165.684 0,156.208 106.386,1.709 110.513,4.009 "/>
<polygon opacity="0.3" fill="#FFFFFF" points="215.677,144.397 216.929,139.842 256,143.76 256,148.513 "/>
<polygon opacity="0.3" fill="#FFFFFF" points="189.798,152.48 190.653,147.834 256,155.469 256,160.222 "/>
<polygon opacity="0.3" fill="#FFFFFF" points="166.716,161.29 167.571,156.644 256,164.99 256,170.001 "/>
<polygon opacity="0.3" fill="#FFFFFF" points="130.237,168.228 131.092,163.582 256,179.262 256,184.358 "/>
<polygon opacity="0.3" fill="#FFFFFF" points="96.824,174.647 97.679,170.001 228.439,194.069 256,190.195 256,195.313 
	227.584,198.715 "/>
<polygon opacity="0.3" fill="#FFFFFF" points="65.692,181.362 66.547,176.716 227.79,206.395 256,204.717 256,209.656 
	226.935,211.041 "/>
<polygon opacity="0.3" fill="#FFFFFF" points="37.972,188.265 38.827,183.619 228.035,218.445 256,215.639 256,220.199 
	227.18,223.091 "/>
<polygon opacity="0.3" fill="#FFFFFF" points="0,195.367 0,190.195 225.356,230.997 256,225.511 256,230.457 224.501,235.643 "/>
<polygon opacity="0.3" fill="#FFFFFF" points="0,209.63 0,204.717 233.707,241.641 233.558,242.582 233.141,245.198 
	232.965,246.306 "/>
<polygon opacity="0.3" fill="#FFFFFF" points="0,220.202 0,215.55 161.179,240.862 161.179,255.898 156.392,255.898 
	156.208,244.889 "/>
<polygon opacity="0.3" fill="#FFFFFF" points="0,230.461 0,225.511 147.936,248.042 147.537,255.898 142.75,255.898 
	143.045,252.228 "/>
<polygon opacity="0.3" fill="#FFFFFF" points="153.681,124.418 148.965,124.13 156.367,-0.102 161.164,-0.102 "/>
<polygon opacity="0.3" fill="#FFFFFF" points="140.102,124.418 135.387,124.13 142.713,-0.102 147.499,-0.102 "/>
<rect x="125.638" y="6.182" transform="matrix(0.9981 0.0609 -0.0609 0.9981 4.211 -7.6701)" opacity="0.3" fill="#FFFFFF" width="4.724" height="118.202"/>
<rect x="177.491" y="47.104" transform="matrix(0.9981 0.0609 -0.0609 0.9981 5.6733 -10.7847)" opacity="0.3" fill="#FFFFFF" width="4.724" height="81.246"/>
<rect x="188.41" y="77.316" transform="matrix(0.9981 0.0609 -0.0609 0.9981 6.6122 -11.4213)" opacity="0.3" fill="#FFFFFF" width="4.724" height="51.005"/>
<rect x="200.789" y="104.668" transform="matrix(0.9981 0.0609 -0.0609 0.9981 7.5241 -12.1477)" opacity="0.3" fill="#FFFFFF" width="4.724" height="25.511"/>
<rect x="208.993" y="119.607" transform="matrix(0.9981 0.0609 -0.0609 0.9981 8.0447 -12.6317)" opacity="0.3" fill="#FFFFFF" width="4.724" height="12.241"/>
<polygon opacity="0.3" fill="#FFFFFF" points="222.594,128.418 256,105.97 256,112.502 223.811,133.672 217.356,132.883 
	218.177,124.202 222.899,124.404 "/>
<polygon opacity="0.3" fill="#FFFFFF" points="109.429,24.055 100.629,122.043 95.924,121.62 103.966,32.065 0,184.367 0,174.186 
	117.353,4.106 117.608,-0.102 122.451,-0.102 114.863,123.425 110.148,123.138 116.812,13.247 "/>
<rect x="87.004" y="60.268" transform="matrix(0.996 0.0894 -0.0894 0.996 8.5076 -7.6281)" opacity="0.3" fill="#FFFFFF" width="4.724" height="61.687"/>
<polygon opacity="0.3" fill="#FFFFFF" points="166.77,125.728 162.055,125.44 169.721,-0.102 178.556,-0.102 256,15.421 256,20.645 
	197.791,8.774 207.466,17.591 256,28.625 256,33.776 214.636,24.116 256,61.188 256,67.729 188.814,6.965 174.785,4.255 "/>
<polygon opacity="0.3" fill="#FFFFFF" points="256,40.378 256,45.674 240.5,42.089 241.574,37.489 "/>
<rect x="212.064" y="-5.939" transform="matrix(-0.6515 0.7587 -0.7587 -0.6515 384.5243 -96.4896)" opacity="0.3" fill="#FFFFFF" width="4.724" height="92.038"/>
<rect x="199.649" y="11.78" transform="matrix(-0.6515 0.7587 -0.7587 -0.6515 365.8934 -82.9948)" opacity="0.3" fill="#FFFFFF" width="4.724" height="61.538"/>
<rect x="203.923" y="50.913" transform="matrix(-0.6515 0.7587 -0.7587 -0.6515 383.9416 -62.3157)" opacity="0.3" fill="#FFFFFF" width="4.724" height="12.241"/>
</svg>
