<?xml version="1.0" encoding="utf-8"?>
<!-- Generator: Adobe Illustrator 17.0.0, SVG Export Plug-In . SVG Version: 6.00 Build 0)  -->
<!DOCTYPE svg PUBLIC "-//W3C//DTD SVG 1.1//EN" "http://www.w3.org/Graphics/SVG/1.1/DTD/svg11.dtd">
<svg version="1.1" id="Layer_1" xmlns="http://www.w3.org/2000/svg" xmlns:xlink="http://www.w3.org/1999/xlink" x="0px" y="0px"
	 width="256px" height="256px" viewBox="0 0 256 256" enable-background="new 0 0 256 256" xml:space="preserve">
<g opacity="0.2">
	<path fill="#FFFFFF" d="M6.376,58.989c4.787-4.452,16.143-2.529,21.632,0.443c9.288,4.834-2.17,18.889-6.656,20.916
		c-2.438,0.999-10.092-2.478-12.834-2.684C5.174,77.61,0,79.562,0,79.562V67.107c4.309,0.324,23.439-1.912,17.108-4.16
		C13.28,61.477,6.14,66.098,4.814,61.432C4.616,60.735,5.845,59.483,6.376,58.989z"/>
</g>
<g opacity="0.2">
	<path fill="#FFFFFF" d="M71.488,30.173c6.272,0.882-5.809-10.13-6.382-11.645c-1.055-2.249-4.282-9.691-0.599-10.321
		c4.636-0.94,2.385,6.839,4.782,8.733C74.474,20.682,78.058,0,78.058,0L64.915-0.007c0,0-4.291,0.007-6.339,3.175
		c-3.402,5.262-3.671,14.974-1.424,20.642c0,0-0.639,6.946,0.593,8.764c1.052,1.552,5.012,3.908,6.765,3.241
		c1.278-0.486,1.028-4.217,2.118-5.042C67.604,30.034,70.275,30.003,71.488,30.173z"/>
</g>
<g opacity="0.2">
	<path fill="#FFFFFF" d="M256,0.919c-2.824-0.302-9.402,9.487-12.179,9.487c-3.889,0.383-4.217-2.178-8.939-1.03
		c-3.333,1.148-7.499,4.591-10.277,7.269c-4.166,4.591-3.333,6.121-8.61,3.443c-4.166-2.295-7.222-4.208-11.388,0.383
		c-3.333,3.443-2.778,9.947,1.111,13.008c3.611,2.295,6.944-4.208,10.832-5.356c3.333-1.148,9.999,0.765,13.61,1.913
		c3.611,1.148,5.833,3.826,9.444,4.974c3.889,1.148,6.666,3.443,10.555,1.53c2.222-1.148,6.944-5.739,4.166-9.565
		c-1.944-2.295-8.333,1.148-9.999,1.148c-3.611,0.765-6.944,1.148-9.999-1.53c-5.277-4.974-2.222-8.034,2.5-8.034
		c6.666,0,12.462,6.946,19.174,1.775"/>
</g>
<g opacity="0.2">
	<path fill="#FFFFFF" d="M74.818,52.257c4.166-1.944,5.633-3.851,8.132-8.572c1.389-3.055,3.611-7.777,3.055-11.388
		c-0.833-4.444-5.833-3.889-8.61,0c-3.055,4.722,2.222,3.611,1.389,7.777c-0.556,3.889-5.277,6.111-7.777,7.777
		c-1.389-2.222,2.898-4.213,1.667-6.388c-0.399-0.705-2.014-1.396-2.778-1.667c-3.628-1.288-4.109,1.523-7.923,1.816
		c-3.491,0.269-8.041-3.367-8.792-3.367c-4.315,0-3.304,3.16-5.248,4.549c-1.389,1.389-3.427,6.336-3.149,8.281
		c0.278,4.722,10.825-3.078,8.047,3.032c-2.778,5.833,0.991,15.78-2.878,14.337c-4.353-1.624-1.993-8.36-5.286-10.371
		c-4.199-2.564-7.546,1.445-8.101,2.556c-1.111,3.055,1.123,6.07,0.29,9.125c-1.111,5-8.9,12.262-4.178,16.706
		c1.667,1.389,2.458,2.02,5.277,2.5c3.297,0.561,8.626-4.23,8.61-7.222c-0.032-6.054-5.936-0.188-5.936-6.731
		c0-13.88,10.658,4.231,10.658,4.231c-0.556,3.889,6.638,8.045,8.661,4.854c1.578-2.488,0.13-11.586,2.963-12.393
		c4.666-1.327,8.411-6.06,10.04-5.516c5.432,1.811,11.943,10.832,11.666,17.499c-0.278,2.222-3.611,7.499-6.666,7.222
		c-5.277-0.278,1.111-5.555,0.556-8.055c-1.389-6.666-15.687,8.058-29.2,12.553c-2.713,0.903-5.52-0.887-9.686-0.887
		c-1.667,4.166-2.5,7.499,0.556,11.388c3.055,3.889,5.833,2.222,10.277,1.667c6.666-0.833,13.61-1.389,19.443-5.277
		c3.889-2.222,5.277-4.722,9.721-5.833c1.944-0.556,5.833-0.278,7.499-1.667c5.277-4.444,4.722-17.776,4.166-23.609
		c-0.278-1.944,1.111-5.555,0-7.222c-2.778-4.166-4.263-2.899-6.666-7.222c-0.395-0.71-0.536-2.481-1.111-3.055
		c-4.598-4.598-11.597,8.774-16.11,8.333C61.184,61.409,70.929,53.924,74.818,52.257z"/>
</g>
<g opacity="0.2">
	<path fill="#FFFFFF" d="M117.484,43.721c-9.166,3.333-34.257,21.907-14.814,30.795c5.555,2.5,5,0.833,3.333,6.388
		c-0.833,2.5-1.667,6.944,0,9.444c4.722,9.166,8.888-9.166,8.888-12.777c0-6.388-0.556-12.777-8.61-11.388
		c-1.111,0.278-3.333,1.944-4.166,1.389c-1.944-1.111-1.111-3.333,0-4.722c1.667-2.222,3.055-1.111,4.722-1.944
		c2.778-0.833,5.277,1.389,9.721,4.166c1.989,1.326,1.347,2.646,2.668,4.419c2.323,3.118-3.557,17.277,0.387,20.856
		c0.742,0.673,3.889,0,5,0.278c2.5,0.556,2.778,2.778,4.722,3.889c4.722,3.055,6.449,2.379,10.337-1.787
		c2.5-2.5,1.111-1.944,4.166-2.5c1.944-0.278,3.889,0.278,6.111-0.556c3.611-1.111,7.777-2.5,9.166-6.388
		c1.389-4.166-0.556-8.055-3.889-9.999c-1.111-0.833-3.333-1.667-4.722-2.5c-1.389-0.556-3.055-1.944-4.444-2.222
		c-6.388-0.833-13.888,9.999-6.111,11.11c2.5,0.556,9.999-5,10.832,0.833c0.833,5-6.666,3.333-8.61,3.889
		c-1.389,0.556-2.5,3.055-4.444,3.055c-0.833,0-2.778-2.222-4.444-2.5c-3.333-0.556-4.53-1.857-2.03-7.968
		c0.278-0.833,2.538-6.682,3.371-8.626c1.667-3.889,2.311-2.335,7.032-3.168c5.277-1.111,6.711-10.709,10.321-11.542
		c6.111-1.667-1.997,7.988-2.553,10.21c-0.833,3.611,6.931,6.72,11.653,1.998c2.5-2.5,2.665-20.473,1.554-23.528
		c-1.944-3.889-13.3-1.974-16.911,1.082c-3.889,3.333-3.774,8.545-8.615,10.35c-2.13,0.794-7.49,0.607-8.324,3.662
		c-0.556,1.667,1.107,6.82,0.274,8.486c-1.111,1.389-4.689-3.021-5.112-4.907c-1.138-5.072,0.974-10.445-2.665-13.147
		C120.451,47.236,117.484,43.721,117.484,43.721z"/>
</g>
<g opacity="0.2">
	<path fill="#FFFFFF" d="M184.608,56.184c-6.388,0.278-14.721-1.389-18.332,4.444c-1.667,2.5-2.5,7.777-1.389,10.555
		c1.944,5.277,5.555,3.333,9.721,5s6.388,5,11.11,5.555c3.611,0.278,6.388-1.111,9.721-1.667c8.61-1.111,11.388-3.889,11.11-13.332
		c0-6.944-4.166-14.443-11.388-14.443c-4.444,0-6.111,0.278-4.722,5.277c1.389,5.833,4.444,3.055,7.777,6.388
		c2.5,2.778,0.833,6.666-2.222,8.333c-5.277,2.778-4.722-1.944-8.055-3.333c-2.778-1.389-5,2.5-9.444,1.667
		c-2.5-0.556-8.055-2.222-7.222-5.555c1.389-5.277,5.833,0.278,8.055,0.556c3.889,0.278,4.444-3.889,5-6.944"/>
</g>
<g opacity="0.2">
	<path fill="#FFFFFF" d="M217.661,38.13c-3.611,3.333-12.777,3.889-13.054,9.444c0,3.333,4.722,6.944,6.111,9.999
		c1.667,3.611,2.5,7.499,7.777,6.944c4.166-0.556,6.388-4.166,5.277-8.055c-1.667-5.555-7.499-2.222-9.166-4.722
		c-3.055-4.166,5.833-5.277,8.055-4.444c3.055,1.389,9.019,2.03,12.352,3.141c2.222,0.556,19.043,7.405,20.988,7.127V42.027
		c-1.339,0.881-4.846,4.361-8.414,4.813c-6.927,0.877-8.9-3.859-13.813-8.766c-2.673-2.67-7.574-5.55-12.573-4.162"/>
</g>
<g opacity="0.2">
	<path fill="#FFFFFF" d="M256,67.034c-5.34-1.389-15.615-13.172-23.921-11.228c-10.679,2.778-2.766,16.438,4.353,18.104
		c11.272,3.055,17.195,11.329,19.568,5.774"/>
</g>
<g opacity="0.2">
	<path fill="#FFFFFF" d="M228.771,74.516c-4.74-4.459-11.943-6.388-18.054-3.055c-6.666,3.333-4.444,12.221-2.222,17.499
		c2.778,6.944,9.166,15.832,16.943,17.221c6.111,1.111,12.777-0.556,17.499,5c1.944,2.5,4.444,9.444-0.556,9.999
		c-4.166,0.278-4.722-5.833-8.055-6.666c-3.611-0.833-6.388,1.944-5.277,5.277c1.667,3.889,8.61,5.555,9.444,9.721
		c1.667,5.833-3.333,3.611-6.111,3.611c-4.444-0.278-9.166,2.5-13.888,0.278c-5.833-2.5-0.278-3.611,3.055-5
		c5-2.778,3.333-4.444,1.944-9.444c-1.667-5-2.778-6.388-7.499-9.166c-3.055-1.944-6.944-4.722-9.721-0.278
		c-3.611,5.833,3.611,5.833,6.666,7.499c3.333,1.944,5.833,7.222,0,8.055c-6.944,0.556-14.721-11.11-13.054-17.499
		c1.667-5,11.943-15.276,1.389-18.61c-9.166-3.055-8.888,8.333-9.166,13.61c0,4.166-1.389,8.61-1.389,12.777
		c-0.278,5,1.667,5.833,5,8.888c6.388,5.277,13.61,9.721,19.998,14.999c6.388,5,10.277,12.777,19.443,6.944
		c5.833-3.611,8.333-13.332,11.943-19.165c2.222-3.333,6.388-5.555,6.944-9.444c0.278-2.778-1.111-7.222-1.944-9.721
		c-1.389-4.166-5-7.499-9.166-8.333c-3.889-1.111-8.888,0.833-12.777-0.556c-4.444-1.667-5.555-5.555-7.777-8.888
		c-1.389-2.5-7.499-6.666-6.388-9.721c1.944-6.111,9.166-1.667,11.11,1.111c2.778,3.333,3.333,9.721,6.944,12.221
		c9.166,6.388,22.606-2.31,19.124-5.822c-1.307-1.318-5.35-4.732-7-5.581c-1.881-0.967-7.299,1.785-9.225,0.912
		C234.234,81.959,230.942,76.557,228.771,74.516z"/>
</g>
<g opacity="0.2">
	<path fill="#FFFFFF" d="M162.287,104.081c2.989,0.11,5.934,3.487,9.267,1.265c2.5-1.667,2.222-6.944,1.111-9.166
		c-1.111-2.778-6.111-7.499,0.555-5.277c3.055,1.111,5.277,5.555,6.111,8.333c1.389,3.889,0.833,6.944-0.833,10.555
		c-2.5,6.111-3.333,3.055-8.61,2.778c-7.222-0.278-12.777,12.221-3.333,13.332c1.667,0,2.778-0.278,4.444-0.556
		c0.556,0,1.389-1.389,1.944-1.389c1.111,0,1.944,1.389,2.5,1.667c3.889,0.556,5.833,0,7.222-4.444
		c1.944-6.666,2.222-14.721,3.055-21.665c0.278-2.5,1.168-5.025,0.833-7.222c-0.176-1.151-0.609-3.58-1.389-4.444
		c-4.253-4.71-12.499-6.666-19.165-5c-6.111,1.667-2.337,7.645-5.821,12.642c-1.435,2.058-7.581-1.321-10.011-0.698
		c-4.478,1.147-13.61,5.555-15.277,9.999c-1.111,3.333,1.389,8.61,5.277,8.888c5.277,0.278,3.055-7.222,6.944-7.777
		c4.444-0.833,1.389,5,2.222,6.944c1.667,3.889,5.174,1.771,6.944-1.389C157.901,108.558,158.966,103.959,162.287,104.081z"/>
</g>
<g opacity="0.2">
	<path fill="#FFFFFF" d="M123.502,100.902c-2.222-8.888-13.61-3.055-15.554,3.055c-3.611,11.943,10.555,5.555,13.888,8.61
		c2.222,1.944,1.111,6.944,1.389,9.444c0.556,4.444,2.5,6.944,6.666,8.61c1.667,0.556,3.333,0.556,4.722,1.111
		c1.667,1.111,1.667,2.778,3.889,3.611c3.611,1.389,6.944-0.833,10.555,1.389c3.889,2.5,5.277,6.666,9.444,8.61
		c4.166,1.944,8.61,3.333,12.499,0.556c5.555-4.166,7.499-18.054-2.222-13.888c-4.444,1.944-5,5.555-8.61,1.389
		c-2.222-2.5-2.5-6.388-5-8.61c-6.388-5.555-14.721-1.667-21.387-5.555c-5.555-3.333-4.722-8.888-5.555-14.443"/>
</g>
<g opacity="0.2">
	<path fill="#FFFFFF" d="M98.227,80.348c-3.889,3.333-1.944,9.721-2.222,14.165c-0.278,4.722-1.667,6.944,1.389,11.11
		c3.055,4.444,3.889,6.111,4.444,11.388c0.556,5.277,4.444,19.721,12.499,12.777c7.777-6.388-3.055-12.777-6.944-15.832
		c-6.111-4.722-3.611-8.333-4.444-14.999c-0.278-2.5-2.5-4.444-2.778-6.944c-0.556-2.5,0.556-5.555,0.556-8.055"/>
</g>
<g opacity="0.2">
	<path fill="#FFFFFF" d="M117.944,23.858c2.222-0.044,9.724,1.773,6.114,6.772c-2.778,3.889-4.166,5-1.667,9.444
		c4.166,6.944,10.555,13.054,15.832,4.166c2.222-3.889,3.333-6.111,2.5-10.555c-0.555-4.722,0-5.833,2.5-9.721
		c1.111-1.667,5.5,0.539,2.925,5.27c-1.782,3.273,0.408,7.229,6.241,5.007c6.111-2.222,6.944-1.944,9.444,0.833
		c1.111,1.667,2.899-0.08,4.288-0.913c2.222,3.611,0.99,6.469,1.268,10.357c0.556,6.111,5,5,9.166,4.444
		c3.611-0.556,4.722,0.833,8.61,0.833c2.222,0,3.333-1.667,5-1.944c2.5-0.556,4.166,0.278,6.388-1.111
		c3.055-2.222,4.166-6.111,2.222-8.888c-0.555-1.111-3.055-2.778-3.889-2.5c-3.055,1.111,0,3.055-1.111,4.722
		c-1.944,3.333-5.277,2.222-7.777,0.833c-1.667-0.833-1.555-3.911-4.611-3.633c-1.944,0-1.804,2.039-3.471,2.872
		c-1.111,0.278-2.446,1.889-3.557,0.778c-2.5-2.222-0.833-3.47,0-4.859c3.055-5-4.487-8.704-5.598-10.926
		c-0.833-1.667-2.139-4.5-5.472-5.611c-1.944-0.556-6.261,0.801-8.76-1.699c-2.5-2.778-6.944-3.333-10.277-2.222
		c-7.499,2.222-8.25,6.968-8.806,13.912c-0.278,2.222,1.667,11.666-3.333,10.832c-5-0.833-1.389-8.61-1.111-10.832
		c0.556-4.444-0.278-7.777,1.944-11.943c1.111-2.5,2.778-8.055,5-9.999c1.667-1.667,8.055-3.889,10.277-4.444
		c4.444-0.556,7.499,1.389,10.555,4.166c4.166,3.611,2.065,7.727,7.342,6.616c5.555-1.389,5.512,0.179,6.901,5.179
		c1.389,4.722,2.718,4.638,5.218,9.082c1.111,1.667,5.537,2.177,7.203,3.288c1.667,1.667,1.884,1.351,4.444,1.389
		c4.129,0.06,8.055-4.166,5.555-9.444c-2.222-4.722-8.888-6.944-11.666-11.388c-3.055-4.166-1.111-9.721-8.888-9.166
		c-5,0.278-10.09,0.471-14.534-2.862l-32.353,0c0,0-1.533,3.024-4.001,6.417c-1.507,2.072-2.398,2.514-7.346,4.114
		c-5.285,1.71-9.136,0-13.562,2.897c-1.487,0.973-3.194,4.822-2.086,6.377c2.423,3.401,0.278,5.555-4.722,9.999
		c-5.277,5-7.777,13.332-7.499,20.276c0.278,2.778,0.278,7.222,3.611,6.111c1.667-0.556,6.111-6.666,7.777-8.055
		c5-4.166,16.11-8.055,15.277-15.554c-0.833-6.111-12.237,5.978-9.183-2.179C108.392,24.71,113.033,23.956,117.944,23.858z"/>
</g>
<g opacity="0.2">
	<path fill="#FFFFFF" d="M3.79,86.459c3.889-3.889,4.722-1.944,8.61-1.389c4.444,0.556,6.944-0.556,11.11,2.5
		c3.333,2.222,6.666,6.111,7.777,9.999c0.556,1.944,0,3.889,0.278,5.833c0.556,2.5,1.944,2.778,3.055,4.722
		c1.667,4.166,0.556,7.777,0.278,11.943c-0.278,5.277,1.111,14.165-3.611,17.776c-4.444,3.333-7.499-1.389-11.666-1.667
		C14.622,135.899,0,134.718,0,128c0-4.039,3.151-10.753,8.429-11.309c4.961-0.509,11.74,0.179,12.831,5.216
		c1.291,5.961-3.572,9.629-1.916,10.382c2.222,0.833,9.166-3.055,9.444-5c0.278-1.944-1.944-2.5-2.222-4.166
		c-0.833-2.5,0.278-3.889,0.833-6.388c1.667-5.833,0-7.499-1.944-12.777c-1.111-2.778-0.833-10.832-5.833-10.555
		c-1.944,0.278-2.5,3.055-4.166,3.333c-2.222,0.556-3.333-1.667-5.555-1.944C5.456,94.514,1.29,89.237,3.79,86.459z"/>
</g>
<g opacity="0.2">
	<path fill="#FFFFFF" d="M3.24,95.49c-3.471-1.298-1.354,12.044,0.789,13.811c18.675,15.393,19.345-7.811,15.343-7.987
		C6.919,100.767,9.249,97.738,3.24,95.49z"/>
</g>
<g opacity="0.2">
	<path fill="#FFFFFF" d="M0,140.247c4.018,3.366,9.621,25.203,14.342,26.87c2.778,0.833,15.001,2.391,15.834,0.446
		c1.111-2.222-14.537-6.341-15.141-9.066c-0.743-3.349-4.27-11.309-3.714-13.531c1.944-10.555,33.299,2.321,35.521,7.876
		c0.833,2.5,1.111,9.444-1.389,11.11c-5,2.778-5.555-5-6.944-7.499c-2.778-4.722-5.277-0.278-4.722,4.166
		c0.278,3.333,2.778,6.944,5,9.444c2.5,2.778,7.499,5,8.888,8.61c1.667,3.611,0,9.444-3.333,11.388
		c-5.833,3.611-14.443,1.667-20.832,2.222C19.344,192.561,7.907,195.91,0,192.345l0-14.512c4.655-0.438,15.456,11.395,21.289,9.729
		c3.333-1.111,7.777-2.778,11.388-2.222c3.611,0.833,6.388,3.611,7.777-1.944c1.667-6.111-3.611-5.277-6.666-5.555
		c-2.222-0.278-2.778-1.944-5.277-1.111c-2.222,0.833-3.055,3.055-5,4.166c-6.111,2.778-13.296,0.997-18.018-4.836
		c-1.667-2.222-3.444-5.796-5.492-7.985"/>
</g>
<g opacity="0.2">
	<path fill="#FFFFFF" d="M108.226,230.336c1.687,0.09,4.166,1.389,5.833,1.944c3.611,1.667,6.388,4.722,10.277,5
		c4.722,0,6.666-3.889,11.388-1.111c1.667,1.111,12.499,18.887,14.165,10.277c0.556-1.667-3.611-7.777-3.889-10.277
		c-0.556-5,1.389-5.555,5.277-8.61c2.5-1.944,1.667-1.944,4.166-1.944c0.556,0,1.111,1.389,1.944,1.667
		c1.111,0,1.667-1.389,2.5-1.389c3.889,0,7.777,1.389,11.666,0.556c4.722-1.111,7.222-4.166,8.333-8.61
		c0.555-2.5-0.278-7.222,2.778-8.333c3.611-1.389,7.499,4.166,9.166,6.666c2.778,4.166,3.055,6.111,1.389,10.832
		c-1.667,4.722-9.999,14.443-3.055,18.054c4.444,2.5,6.388-0.556,7.777-3.889c1.111-2.778,3.889-5,4.444-7.777
		c1.111-4.722-5.277-17.221,5.277-12.777c6.666,3.055,11.666,4.722,18.887,5.833c2.778,0.556,13.058,8.504,9.743,10.158
		c-2.448,1.222-7.882-5.337-16.687-5.159c-3.378,0.068-3.792,3.695-7.125,6.472c-5.555,4.722,15.939,9.021,12.328,13.465
		c-1.389,1.667-3.915,1.259-5.555,1.667c-0.852,0.212-8.987,2.949-8.987,2.949h-16.822c0,0-6.059-3.166-7.448-6.777
		c-2.222-5-3.055-16.388-9.444-18.332c-10.832-3.333,0.833,15.832,1.667,18.887c2.5,6.666-2.222,4.166-5,0
		c-1.944-2.778-3.055-6.111-4.722-8.888c-1.944-3.889-4.444-6.111-8.61-7.222c-5.277-1.389-4.722,0.556-3.333,5
		c1.111,4.444,1.944,6.111,5,9.166c1.52,1.737-2.91,3.189-3.801,5.407c-0.249,0.619,1.429,2.039,2.631,2.752H128
		c2.603-3.306,6.612-11.214,2.168-12.88c-1.111-0.556-3.611,1.389-5,1.389c-2.5,0.556-2.742,7.434-3.585,11.499h-12.205
		c0,0,1.02-3.638,0.347-4.563c-4.875-6.7-8.166,3.342-11.222,3.064c-3.055-0.278-2.222-1.944-1.944-3.889
		C97.116,246.168,97.073,229.741,108.226,230.336z"/>
</g>
<g opacity="0.2">
	<path fill="#FFFFFF" d="M2.642,199.554c2.242-2.752,4.261,2.239,11.091-1.32c6.395-3.332,23.11,7.103,29.221,2.104
		c3.055-2.222,2.778-6.388,7.499-6.666c4.444,0,10.179,4.04,12.679,7.095c1.944,2.5-2.679,4.015-1.568,6.793
		c0.556,1.389,1.488,1.932,2.877,3.043c3.055,2.778,4.819-9.774,8.43-7.552c3.399,2.008,9.569,12.673,7.39,19.209
		c-3.165,9.494,1.679,10.17,3.578,11.867c1.389,1.242,3.704-10.842,5.229-10.842c13.347,0,1.544,33.946-1.789,31.724
		c-3.333-2.222-6.903-17.884-11.272-11.619c-1.965,2.818-4.166,6.111-6.666,2.5c-0.556-1.111,0.278-4.444,0-5.555
		c-0.556-2.222-1.667-3.055-2.222-4.722c-1.944-5,1.111-6.111,2.5-10.555c1.667-6.944-3.333-3.055-7.222-4.166
		c-4.166-0.833-2.5-6.388-4.444-9.444c-1.944-3.333-6.666-5.833-10.277-5.833c-5,0-9.444,1.667-14.165,1.389
		c-1.944,0-6.111-0.556-7.499,0.833c-1.667,1.667,0.159,3.787-1.667,5.277c-6.868,5.605-18.617,10.272-21.48,3.106
		C2.863,216.221,0.327,202.396,2.642,199.554z"/>
</g>
<g opacity="0.2">
	<path fill="#FFFFFF" d="M27.399,217.559c1.932-1.562,1.667-3.611,3.611-4.722c1.667-0.833,7.222,0.833,9.166,1.111
		c5.277,0.556,18.61,1.389,16.11,10.277c-5.555-1.667-11.11-1.667-16.665-3.333c-4.722-1.389-11.166,2.562-13.332-1.944
		C26.095,218.547,27.053,217.839,27.399,217.559z"/>
</g>
<g opacity="0.2">
	<path fill="#FFFFFF" d="M17.122,223.392c5.909-1.016,11.11,5.555,16.943,5.833c3.611,0.278,6.944-1.944,10.277-1.667
		c1.944,0.278,2.5,1.389,4.444,1.944c0.556,0.278,0.833,1.389,1.667,1.667c1.111,0.278,2.5-1.111,3.611-0.556
		c4.444,1.667,12.777,14.721,7.222,16.665c-0.556,0.278-4.722,0.278-5.555,0.278c-2.222,0.278-3.333,0.278-5.833-0.833
		c-1.667-0.556-10.832-4.166-7.499-6.666c2.5-1.944,8.333,4.166,11.11,2.222c3.889-2.5-3.333-5.833-5.277-6.944
		c-5-2.5-5.555,0.556-10.277,1.111c-3.889,0.556-8.333-2.222-11.666-3.611c-6.111-2.5-17.438,3.099-18.61-3.333
		C7.175,226.736,14.351,223.868,17.122,223.392z"/>
</g>
<g opacity="0.2">
	<path fill="#FFFFFF" d="M0,234.354c6.518-1.298,9.623,3.36,14.9,4.748c2.778,0.555,5.277,1.389,8.055,2.222
		c3.333,0.833,6.666,0.278,9.721,1.389c2.778,0.833,8.888,4.166,10.555,6.388c3.333,5.277-3.333,1.389-6.111,1.389
		c-3.889,0-5.833,3.889-10.555,3.055c-2.222-0.278-2.778-1.944-4.444-2.778c-2.222-0.833-4.444,0-6.666-0.555
		c-3.333-1.389-4.215-1.131-6.992-3.076c-5-3.889-5.875,3.867-8.463-0.192"/>
</g>
<g opacity="0.2">
	<path fill="#FFFFFF" d="M256,140.287c-6.735-2.484-5.803,9.422-12.93,10.373c-3.054,0.634-3.563-0.634-7.127,0.317
		c-1.527,0.634-6.109,3.802-6.618,4.752c-3.563,4.118-2.158,7.413-5.09,12.672c-6.21,11.138,3.289,9.031,12.961,13.149
		c8.906,3.959,8.839,8.591,18.802,10.793L256,177.842c-3.846-0.845-5.188-6.671-10.4-8.023c-3.668-0.952-6.067,4.675-10.205,2.276
		c-1.667-0.967,0.39-8.927,3.641-12.246c3.605-3.68,9.049-3.172,10.757-2.482c4.717,1.903,2.137,7.197,6.202,10.614L256,140.287z"/>
</g>
<g opacity="0.2">
	<path fill="#FFFFFF" d="M256,246.706c-2.035-3.488-10.889-6.493-12.426-9.676c-1.614-3.343-8.582-14.716-13.304-16.105
		c-4.166-1.111-6.776-3.922-11.498-6.144c-6.388-3.055-12.777-4.166-19.721-5.555c-8.888-1.944-11.666-4.444-15.554-12.777
		c-2.778-5.833-6.111-12.221-7.499-18.887c-0.556-3.055-0.833-6.388-0.556-9.721c0-1.111,0.833-3.611,0.556-4.722
		c-0.556-2.222-2.778-3.055-3.055-5c-0.278-2.778,5.555-6.666,6.944-9.444c1.667-2.778,2.222-5,2.222-8.333
		c0-6.111-0.278-15.277,9.444-12.221c7.499,2.5,12.221,11.11,18.332,15.554c4.166,3.055,6.388,3.333,8.055,8.333
		c0.833,3.055,1.667,5.833,2.222,8.888l-1.667,5.833c-3.055,4.722-5.277,8.61-11.943,5.277c-3.055-1.389-8.61-9.166-7.777-12.777
		c2.5-10.555,10.832,11.388,13.888,0c0.555-2.778-1.389-6.111-3.333-7.777c-3.611-2.778-9.721,0.555-12.499-1.111
		c-2.778-1.944,1.389-9.999-5-9.999c-4.166-0.278-4.722,5-3.611,7.777c0.556,2.5,5.833,8.888,0.556,10.277
		c-4.166,0.833-4.722-7.222-7.777-0.833c-1.389,2.778,1.111,8.055,1.667,11.388c0.278,2.778,0.556,10.555,2.222,12.499
		c7.222,9.999-0.402-13.19,3.611-14.721c2.778-4.722,10.549,3.084,10.827,5.584c0.278,3.333-4.161,11.081-5.828,13.859
		c-1.944,3.333-6.388,4.722-2.778,8.888c2.778,2.778,6.944,3.333,10.277,5c4.722,1.944,5.555,2.5,10.555,2.5
		c6.111,0,4.722,3.333,9.166,6.111c7.499,4.722,9.721-8.61,0-11.943c-2.5-0.833-6.388-2.222-9.166-2.5
		c-3.611-0.278-8.888,3.333-11.666,0.278c0.556,0.555-0.556-4.722-0.556-4.444c0-2.778-0.556-2.778,1.389-5.555
		c2.5-3.333,5-3.889,9.166-3.889c8.61-0.278,14.721,5.277,20.554,11.388c2.5,2.778,5,5.555,5.277,9.444
		c0,3.611-4.166,7.499-1.667,10.277c2.778,2.778,9.166,0.833,9.444-2.778c0.278-4.166-5.908-7.304,1.111-9.444
		c3.13-0.954,6.886,3.688,8.229,5.82c1.002,1.59,2.603,5.012,2.048,7.234c-0.278,1.111-3.993,9.689-2.67,12.956
		c0,0,2.704,8.524,3.79,8.687"/>
</g>
<g opacity="0.2">
	<path fill="#FFFFFF" d="M79.061,171.73c-3.889-4.444-8.055-13.888-13.61-14.443c-5.833-0.278-16.665,5.555-16.11,12.777
		c0.278,2.778,3.611,8.333,4.722,11.11c1.111,2.5,3.055,7.499,5,9.444c3.889,3.889,4.444-1.111,8.61-1.111
		c3.055,0,6.111,3.889,8.055,5.833c5,5.555,8.61,12.499,13.61,17.221c2.222,2.222,6.111,5.277,9.166,5.833
		c6.388,1.389,6.111-1.389,5.833-5.833c-0.556-3.889,3.055-8.333,5.555-2.778c1.667,3.333-1.667,8.055,0.833,11.388
		c1.667,1.667,6.666,4.444,9.166,5.277c4.166,1.111,5-1.667,3.055-5.833c-2.222-4.166-5.555-4.444-6.666-9.444
		c-0.833-4.166-1.111-8.61-5.277-11.666c-2.5-2.222-7.777-3.333-10.277-0.556c-3.611,3.611,0.278,7.777-6.944,5.277
		c-7.499-2.222-12.221-9.721-16.943-15.832c-3.055-4.166-4.444-4.444-9.444-6.111c-4.444-1.389-6.388-3.055-8.61-6.944
		c-2.5-4.444-2.5-8.61,2.778-4.166c3.333,2.5,4.444,7.499,8.888,8.333c4.722,0.833,6.666-1.944,9.999,3.055
		c2.5,3.611,4.166,7.499,6.944,10.832c6.388,8.055,11.11-0.833,9.444-8.333c-0.556-3.055-3.333-7.499-6.111-9.444
		c-0.833-0.556-4.722-2.5-5.833-1.111c-0.833,1.389,1.944,2.778,2.778,3.889c2.778,4.166,1.667,8.888-3.055,4.166
		c-3.055-3.055-1.667-6.666-6.944-8.055"/>
</g>
<g opacity="0.2">
	<path fill="#FFFFFF" d="M71.84,118.401c-2.098,3.378-1.944,6.388-4.444,9.444c-3.611,4.722-3.625,15.691-9.444,14.999
		c-1.17-0.139-1.111-2.5-1.944-3.611c-0.278-0.556,0.278-1.667-0.278-2.222c-0.833-0.833-1.675-2.805-2.508-3.36
		c-2.5-1.944-6.935-1.361-4.713-5.528c1.944-3.611,3.611-0.278,6.666-1.389c3.055-0.833,5.395-3.281,8.055-5
		c4.765-3.078,12.807-10.551,8.786-14.553c-4.613-4.591-3.709,6.843-10.931,7.121c-5.277,0.278-8.966-0.9-14.243,0.488
		c-13.61,3.889-5.833,25.553,0.278,32.22c3.889,4.444,15.277,6.388,20.276,2.222c3.333-2.5,1.111-7.777,3.055-11.11
		c1.667-3.611,6.111-5.277,8.055-8.61c2.778-4.444-1.389-18.332,5-19.998c6.666-1.667,4.166,5.555,2.778,8.333
		c-2.5,4.166-3.055,6.388-0.278,10.832c2.222,3.333,8.333,4.722,7.777,9.166c-0.278,1.111-2.222,1.944-2.5,3.611
		c-0.556,1.667,1.111,4.166,1.111,5.833c0,3.055-1.389,7.777-4.444,9.444c-2.222,1.389-3.611,0.556-5.277-1.389
		c-1.944-2.5-1.389-2.222-0.556-4.166c1.667-3.611,5.555-4.722,5-9.999c-0.278-3.611-2.5-7.777-6.666-5.555
		c-4.444,2.5-6.111,14.721-5,19.443c1.667,7.777,12.499,14.999,19.998,10.832c6.666-3.611,6.388-12.777,7.499-19.721
		c1.667-9.166,0.556-11.943-4.166-19.443c-4.166-6.388-4.166-15.277-8.61-20.832c-1.389-1.667-3.1-4.661-5.555-3.333
		C80.143,104.988,74.523,114.08,71.84,118.401z"/>
</g>
<g opacity="0.2">
	<path fill="#FFFFFF" d="M111.003,142.288c-4.444,1.667-1.111,13.332-2.5,17.221c-2.5,6.666-12.221,11.666-8.055,19.721
		c0.556,1.667,2.778,2.222,3.333,3.611c1.111,1.944,0,4.444,1.389,6.111c1.389,2.5,2.778,1.667,5.277,2.5
		c1.667,0.556,2.222,1.667,3.889,2.778c8.888,5.277,6.666-9.444,10.555-13.332c2.222-2.5,7.499-6.111,10.555-7.499
		c3.055-1.111,7.499,0.556,9.721-0.278c3.611-1.667,3.611-8.055,7.499-8.888c4.444-0.833,6.666,3.055,8.055,6.111
		c1.944,3.611,9.444,14.721,4.444,18.61c-6.666,5.277-2.222-14.721-9.999-13.888c-6.944,0.833,0.556,16.11,2.778,19.443
		c2.5,4.166,6.944,3.889,10.277,6.944c2.5,2.222,4.166,7.777-0.278,8.055c-2.778,0.278-9.166-4.722-10.832-6.666
		c-3.055-3.055-5-6.666-6.111-10.832c-1.944-6.388-2.778-13.888-11.388-10.277c-6.388,2.778-9.444,7.777-10.555,13.888
		c-0.833,4.444-0.833,2.778-4.444,5.277c-2.222,1.667-4.444,3.889-2.778,7.499c3.333,7.499,11.388-1.111,14.443-4.444
		c4.166-4.444,3.333-6.666,4.722-11.943c2.778,1.389,4.166,6.111,4.722,9.166c0.833,4.166-0.278,5-3.333,7.777
		c-2.5,2.5-5.555,6.388-8.888,7.499c-3.889,1.389-6.666,0-3.611,5.555c0.833,1.944,4.444,5.833,6.666,5.555
		c2.222-0.555,5.555-5.277,8.055-6.388c1.944-1.111,4.166-1.944,5.555-3.611c1.111-1.667,0.278-3.333,1.111-4.722
		c2.778-5.277,2.778,1.389,5.277,3.611c2.5,2.222,8.055,2.222,11.388,1.944c4.444-0.556,4.722-2.222,6.944-5.555
		c2.222-3.611,4.444-4.722,4.166-9.166c-0.278-5.277-3.333-4.722-5.277-8.61c-1.944-3.333-0.556-7.777-1.111-11.388
		c-0.278-3.333-1.667-6.666-2.5-9.999c-0.556-3.333-1.667-6.111-2.222-9.166s0.278-6.111-1.389-8.61
		c-5.833-9.166-12.499-3.055-18.054,1.667c-6.944,6.388-13.332,0.833-21.387,3.611c-7.222,2.222-8.333,11.388-10.277,17.499
		c-1.389,3.611-2.778,9.166-5.833,4.444c-2.5-3.333-2.222-8.61,0.278-11.943c2.5-3.889,5-5.277,5-10.277
		c0-3.889-1.111-8.055,0.278-12.221c1.111-3.889,4.166-7.222,8.61-5c1.667,0.833,1.111,2.5,3.055,3.055
		c1.111,0.556,3.889-0.278,5.555,0c1.111,0.556,3.611,0.833,3.889,2.222c1.111,3.611-2.778,0.833-4.166,0.833
		c-2.222,0.278-10.832,2.778-9.166,5.833c0.833,1.389,8.888,1.667,10.555,1.667c4.444,0,6.388-0.278,9.721-3.055
		c9.166-7.777,0.278-10.555-7.222-13.054c-3.889-1.111-6.111-3.889-9.444-5.555c-3.889-1.667-8.055,0.278-11.666,1.389"/>
</g>
<g opacity="0.2">
	<path fill="#FFFFFF" d="M0,57.574c2.977,0.349,9.894-2.922,14.301-4.336c2.595-0.979,4.547-4.457,6.518-6.436
		c2.322-2.358,5.105-4.148,3.123-8.095c-1.656-3.081-5.12-3.751-7.821-1.744c-3.836,2.929,0.472,6.492-0.985,8.523
		c-2.347,3.602-5.822-2.992-5.825-4.967c0.184-2.787,2.074-4.982,1.96-7.903c-0.22-1.893,0.054-3.086-0.733-4.519
		c-1.709-2.567-7.744-3.503-8.736,1.071c-0.401,2.868,2.896,3.703,2.846,6.192c0.195,3.138-2.896,5.87-4.648,6.659V57.574z"/>
</g>
<g opacity="0.2">
	<path fill="#FFFFFF" d="M44.665,29.674c0.368-0.685,4.537-8.588,4.321-9.451c-0.532-1.917,0.89-2.919,0.942-4.657
		C50.298,11.213,52.582,0,48.155,0c-2.484,0-6.634,3.054-11.808,2.813c-2.932-0.137-4.573-2.513-7.747-2.045
		c-3.364,0.569-5.32,3.322-5.436,6.318c-0.166,1.066,0.075,2.894,0.01,4.15c0.126,1.155-0.217,2.805,0.099,3.858
		c1.762,4.684,11.927,5.87,9.849,0.132c-0.532-1.917-7.079-5.03-3.385-7.731c3.124-2.397,4.72,3.353,5.811,4.484
		c0.888,0.749,3.008,0.598,3.718,1.931c0.304,0.571-0.509,2.716-0.091,3.96c0.836,2.488,4.287,5.295-0.816,5.813
		c-0.673,0.114-2.919-0.89-3.883-0.865c-1.358-0.255-3.084,0.176-4.722,0.315c-3.275,0.277-4.734-0.168-7.03-3.101
		c-2.689-3.213-1.559-4.304-5.659-2.364c-1.904,1.014-4.56,2.431-6.45,0.259c-3.374-3.581,1.921-3.714,3.648-4.145
		c2.78-0.747,4.961-14.678,0.028-13.074C9.928,2.126,2.215,1.7,0,0.921l0,19.394c4.116-4.513,10.351,1.671,13.219,4.478
		c1.044,1.022,2.635,3.75,2.647,5.211c0.026,2.935,7.382,3.811,9.11,2.059c1.964-1.99,11.641,5.054,8.921,8.936
		c-2.705,3.86-9.538,3.492-5.385,12.902c1.682,3.812,7.485,2.323,9.985-1.01c1.667-2.222,1.456-10.166,3.702-12.587
		c1.102-1.187,4.628-4.53,4.35-5.919C45.716,32.164,44.029,31.235,44.665,29.674z"/>
</g>
<path opacity="0.2" fill="#FFFFFF" d="M109.235-0.007c0.671,2.108-6.517,2.469-9.62,2.584c-1.419,0.053-4.267-0.927-5.649-0.599
	c-4.498,1.067-4.35,6.154-8.516,7.543c-2.5,0.833-5.833,0.556-6.944,3.889c-0.278,0.833,0.833,7.499,1.389,8.333
	c1.667,2.5,11.388,4.444,13.332,0.556c4.166-7.777-7.777-4.444-9.444-6.111c1.389-1.667,4.166-3.333,6.666-3.889
	c1.944-0.278,7.777,1.389,8.888,0.833c4.166-1.944-1.111-3.611,0-6.111c1.667-3.611,4.99,0.983,7.212,1.538
	c6.944,2.5,9.31-1.268,12.127-2.56c2.383-1.093,2.019-4.231,2.913-6.007"/>
<path opacity="0.2" fill="#FFFFFF" d="M193.399,0c0,0,0.215,4.67,0,6.206c-0.165,1.18-1.556,3.417-1.309,4.583
	c0.44,2.085,3.442,5.853,5.456,6.547c4.327,1.491,13.62-2.224,17.896-3.856c4.163-1.588,11.178-7.703,15.495-8.803
	c2.983-0.76,9.383,1.173,12.309,0.218C245.173,4.268,249.422,0,249.422,0h-27.034c0,0-9.167,7.589-12.013,5.841
	c-1.246-0.765-0.1-5.849-0.1-5.849L193.399,0z"/>
<path opacity="0.2" fill="#FFFFFF" d="M249.42,256c0,0,1.661-2.796,1.499-3.805c-0.433-2.692-4.777-6.773-6.978-8.383
	c-1.704-1.247-5.801-2.571-7.821-3.185c-2.608-0.792-8.163-1.151-10.678-2.201c-0.779-0.325-1.966-1.845-2.81-1.873
	c-0.729-0.024-2.366,0.741-2.529,1.452c-0.428,1.864,2.742,5.225,4.309,6.322c1.613,1.13,6.552,0.304,7.634,1.95
	c0.901,1.371,0.016,5.217-1.03,6.48c-1.532,1.849-9.039,3.243-9.039,3.243H249.42z"/>
<path opacity="0.2" fill="#FFFFFF" d="M61.919,256c0,0,7.477-2.937,10.115-3.25c7.458-0.884,5.927,3.25,5.927,3.25"/>
</svg>
