<?xml version="1.0" encoding="utf-8"?>
<!-- Generator: Adobe Illustrator 17.0.0, SVG Export Plug-In . SVG Version: 6.00 Build 0)  -->
<!DOCTYPE svg PUBLIC "-//W3C//DTD SVG 1.1//EN" "http://www.w3.org/Graphics/SVG/1.1/DTD/svg11.dtd">
<svg version="1.1" id="Layer_1" xmlns="http://www.w3.org/2000/svg" xmlns:xlink="http://www.w3.org/1999/xlink" x="0px" y="0px"
	 width="256.307px" height="256.299px" viewBox="0 0 256.307 256.299" enable-background="new 0 0 256.307 256.299"
	 xml:space="preserve">
<path opacity="0.3" fill="#FDFDFE" d="M70.973,6.208c0.164-0.799,1.755-2.12,2.435-2.569c2.323-1.532,8.619-1.196,11.132,0
	c2.989,1.423,7.256,6.32,8.67,9.313c1.261,2.667,0.026,10.363,2.034,12.524c2.422,2.606,10.941,1.609,13.702,3.854
	c1.17,0.951,2.425,3.887,2.783,5.352c0.648,2.652-1.764,8.836,0,10.918c1.052,1.242,3.347,1.799,4.973,1.873
	c1.766,0.08,3.565-1.257,4.019-0.803c0.568,0.568,0.505,2.587,0,3.211c-0.646,0.798-2.992,0.892-4.019,0.856
	c-2.128-0.075-6.438-1.192-7.756-2.863c-3.292-4.175-0.273-9.689-1.26-12.481c-0.297-0.84-0.777-1.971-1.469-2.532
	c-2.802-2.274-11.981-1.709-14.397-4.389c-2.226-2.468-1.531-10.827-2.944-13.835c-1.061-2.258-4.095-5.91-6.262-7.145
	c-1.68-0.957-5.876-1.264-7.707-0.642c-0.706,0.24-2.047,1.19-2.783,1.07C70.97,7.733,70.908,6.522,70.973,6.208z"/>
<path opacity="0.3" fill="#FDFDFE" d="M133.88,17.235c0.164-0.799,1.755-2.12,2.435-2.569c2.323-1.532,8.619-1.196,11.132,0
	c2.989,1.423,7.256,6.32,8.67,9.313c1.261,2.667,0.026,10.363,2.034,12.524c2.422,2.606,10.941,1.609,13.702,3.854
	c1.17,0.951,2.425,3.887,2.783,5.352c0.648,2.652-1.764,8.836,0,10.918c1.052,1.242,3.347,1.799,4.973,1.873
	c1.766,0.08,3.565-1.257,4.019-0.803c0.568,0.568,0.505,2.587,0,3.211c-0.646,0.798-2.992,0.892-4.019,0.856
	c-2.128-0.075-6.438-1.192-7.756-2.863c-3.292-4.175-0.273-9.689-1.26-12.481c-0.297-0.84-0.777-1.971-1.469-2.532
	c-2.802-2.274-11.981-1.709-14.397-4.389c-2.226-2.468-1.531-10.827-2.944-13.835c-1.061-2.258-4.095-5.91-6.262-7.145
	c-1.68-0.957-5.876-1.264-7.707-0.642c-0.706,0.24-2.047,1.19-2.783,1.07C133.877,18.761,133.816,17.55,133.88,17.235z"/>
<path opacity="0.3" fill="#FDFDFE" d="M199.237,7.093c0.164-0.799,1.755-2.12,2.435-2.569c2.323-1.532,8.619-1.196,11.132,0
	c2.989,1.423,7.256,6.32,8.671,9.313c1.261,2.667,0.026,10.363,2.034,12.524c2.422,2.606,10.941,1.609,13.702,3.854
	c1.17,0.951,2.425,3.887,2.783,5.352c0.648,2.652-1.764,8.836,0,10.918c1.052,1.242,3.347,1.799,4.973,1.873
	c1.766,0.08,3.565-1.257,4.019-0.803c0.568,0.568,0.505,2.587,0,3.211c-0.646,0.798-2.992,0.892-4.019,0.856
	c-2.128-0.075-6.438-1.192-7.756-2.863c-3.292-4.175-0.273-9.689-1.26-12.481c-0.297-0.84-0.777-1.971-1.469-2.532
	c-2.802-2.274-11.981-1.709-14.397-4.389c-2.226-2.468-1.531-10.827-2.944-13.835c-1.061-2.258-4.095-5.91-6.262-7.145
	c-1.68-0.957-5.876-1.264-7.707-0.642c-0.706,0.24-2.047,1.19-2.783,1.07C199.233,8.618,199.172,7.407,199.237,7.093z"/>
<path opacity="0.3" fill="#FDFDFE" d="M6.287,17.372c0.164-0.799,1.755-2.12,2.435-2.569c2.323-1.532,8.619-1.196,11.132,0
	c2.989,1.423,7.256,6.32,8.67,9.313c1.261,2.667,0.026,10.363,2.034,12.524c2.422,2.606,10.941,1.609,13.702,3.854
	c1.17,0.951,2.425,3.887,2.783,5.352c0.648,2.652-1.764,8.836,0,10.918c1.052,1.242,3.347,1.799,4.973,1.873
	c1.766,0.08,3.565-1.257,4.019-0.803c0.568,0.568,0.505,2.587,0,3.211c-0.646,0.798-2.992,0.892-4.019,0.856
	c-2.128-0.075-6.438-1.192-7.756-2.863c-3.292-4.175-0.273-9.689-1.26-12.481c-0.297-0.84-0.777-1.971-1.469-2.532
	c-2.802-2.274-11.981-1.709-14.397-4.389c-2.226-2.468-1.531-10.827-2.944-13.835c-1.061-2.258-4.095-5.91-6.262-7.145
	c-1.68-0.957-5.876-1.264-7.707-0.642c-0.706,0.24-2.047,1.19-2.783,1.07C6.284,18.897,6.223,17.686,6.287,17.372z"/>
<path opacity="0.3" fill="#FDFDFE" d="M75.973,67.208c0.164-0.799,1.755-2.12,2.435-2.569c2.323-1.532,8.619-1.196,11.132,0
	c2.989,1.423,7.256,6.32,8.67,9.313c1.261,2.667,0.026,10.363,2.034,12.524c2.422,2.606,10.941,1.609,13.702,3.854
	c1.17,0.951,2.425,3.887,2.783,5.352c0.648,2.652-1.764,8.836,0,10.918c1.052,1.242,3.347,1.799,4.973,1.873
	c1.766,0.08,3.565-1.257,4.019-0.803c0.568,0.568,0.505,2.587,0,3.211c-0.646,0.798-2.992,0.892-4.019,0.856
	c-2.128-0.075-6.438-1.192-7.756-2.863c-3.292-4.175-0.273-9.689-1.26-12.481c-0.297-0.84-0.777-1.971-1.469-2.532
	c-2.802-2.274-11.981-1.709-14.397-4.389c-2.226-2.468-1.531-10.827-2.944-13.835c-1.061-2.258-4.095-5.91-6.262-7.145
	c-1.68-0.957-5.876-1.264-7.707-0.642c-0.706,0.24-2.047,1.19-2.783,1.07C75.97,68.733,75.908,67.522,75.973,67.208z"/>
<path opacity="0.3" fill="#FDFDFE" d="M138.88,82.235c0.164-0.799,1.755-2.12,2.435-2.569c2.323-1.532,8.619-1.196,11.132,0
	c2.989,1.423,7.256,6.32,8.67,9.313c1.261,2.667,0.026,10.363,2.034,12.524c2.422,2.606,10.941,1.609,13.702,3.854
	c1.17,0.951,2.425,3.887,2.783,5.352c0.648,2.652-1.764,8.836,0,10.918c1.052,1.242,3.347,1.799,4.973,1.873
	c1.766,0.08,3.565-1.257,4.019-0.803c0.568,0.568,0.505,2.587,0,3.211c-0.646,0.798-2.992,0.892-4.019,0.856
	c-2.128-0.075-6.438-1.192-7.756-2.863c-3.292-4.175-0.273-9.689-1.26-12.481c-0.297-0.84-0.777-1.971-1.469-2.532
	c-2.802-2.274-11.981-1.709-14.397-4.389c-2.226-2.468-1.531-10.827-2.944-13.835c-1.061-2.258-4.095-5.91-6.262-7.145
	c-1.68-0.957-5.876-1.264-7.707-0.642c-0.706,0.24-2.047,1.19-2.783,1.07C138.877,83.761,138.816,82.55,138.88,82.235z"/>
<path opacity="0.3" fill="#FDFDFE" d="M204.237,68.093c0.164-0.799,1.755-2.12,2.435-2.569c2.323-1.532,8.619-1.196,11.132,0
	c2.989,1.423,7.256,6.32,8.671,9.313c1.261,2.667,0.026,10.363,2.034,12.524c2.422,2.606,10.941,1.609,13.702,3.854
	c1.17,0.951,2.425,3.887,2.783,5.352c0.648,2.652-1.764,8.836,0,10.918c1.052,1.242,3.347,1.799,4.973,1.873
	c1.766,0.08,3.565-1.257,4.019-0.803c0.568,0.568,0.505,2.587,0,3.211c-0.646,0.798-2.992,0.892-4.019,0.856
	c-2.128-0.075-6.438-1.192-7.756-2.863c-3.292-4.175-0.273-9.689-1.26-12.481c-0.297-0.84-0.777-1.971-1.469-2.532
	c-2.802-2.274-11.981-1.709-14.397-4.389c-2.226-2.468-1.531-10.827-2.944-13.835c-1.061-2.258-4.095-5.91-6.262-7.145
	c-1.68-0.957-5.876-1.264-7.707-0.642c-0.706,0.24-2.047,1.19-2.783,1.07C204.233,69.618,204.172,68.407,204.237,68.093z"/>
<path opacity="0.3" fill="#FDFDFE" d="M11.287,78.372c0.164-0.799,1.755-2.12,2.435-2.569c2.323-1.532,8.619-1.196,11.132,0
	c2.989,1.423,7.256,6.32,8.67,9.313c1.261,2.667,0.026,10.363,2.034,12.524c2.422,2.606,10.941,1.609,13.702,3.854
	c1.17,0.951,2.425,3.887,2.783,5.352c0.648,2.652-1.764,8.836,0,10.918c1.052,1.242,3.347,1.799,4.973,1.873
	c1.766,0.08,3.565-1.257,4.019-0.803c0.568,0.568,0.505,2.587,0,3.211c-0.646,0.798-2.992,0.892-4.019,0.856
	c-2.128-0.075-6.438-1.192-7.756-2.863c-3.292-4.175-0.273-9.689-1.26-12.481c-0.297-0.84-0.777-1.971-1.469-2.532
	c-2.802-2.274-11.981-1.709-14.397-4.389c-2.226-2.468-1.531-10.827-2.944-13.835c-1.061-2.258-4.095-5.91-6.262-7.145
	c-1.68-0.957-5.876-1.264-7.707-0.642c-0.706,0.24-2.047,1.19-2.783,1.07C11.284,79.897,11.223,78.686,11.287,78.372z"/>
<path opacity="0.3" fill="#FDFDFE" d="M70.781,132.596c0.164-0.799,1.755-2.12,2.435-2.569c2.323-1.532,8.619-1.196,11.132,0
	c2.989,1.423,7.256,6.32,8.67,9.313c1.261,2.667,0.026,10.363,2.034,12.524c2.422,2.606,10.941,1.609,13.702,3.854
	c1.17,0.951,2.425,3.887,2.783,5.352c0.648,2.652-1.764,8.836,0,10.918c1.052,1.242,3.347,1.799,4.973,1.873
	c1.766,0.08,3.565-1.257,4.019-0.803c0.568,0.568,0.505,2.587,0,3.211c-0.646,0.799-2.992,0.892-4.019,0.856
	c-2.128-0.075-6.438-1.192-7.756-2.863c-3.292-4.175-0.273-9.689-1.26-12.481c-0.297-0.84-0.777-1.971-1.469-2.532
	c-2.802-2.274-11.981-1.709-14.397-4.389c-2.226-2.468-1.531-10.827-2.944-13.835c-1.061-2.258-4.095-5.91-6.262-7.145
	c-1.68-0.957-5.876-1.264-7.707-0.642c-0.706,0.24-2.047,1.19-2.783,1.07C70.778,134.121,70.717,132.911,70.781,132.596z"/>
<path opacity="0.3" fill="#FDFDFE" d="M133.689,143.623c0.164-0.799,1.755-2.12,2.435-2.569c2.323-1.532,8.62-1.196,11.132,0
	c2.989,1.423,7.256,6.32,8.67,9.313c1.261,2.667,0.026,10.363,2.034,12.524c2.422,2.606,10.941,1.609,13.702,3.854
	c1.17,0.951,2.425,3.887,2.783,5.352c0.648,2.652-1.764,8.836,0,10.918c1.052,1.242,3.347,1.799,4.973,1.873
	c1.766,0.08,3.565-1.257,4.019-0.803c0.568,0.568,0.505,2.587,0,3.211c-0.646,0.798-2.992,0.892-4.019,0.856
	c-2.128-0.075-6.438-1.192-7.756-2.863c-3.292-4.175-0.273-9.689-1.26-12.481c-0.297-0.84-0.777-1.971-1.469-2.532
	c-2.802-2.274-11.981-1.709-14.397-4.389c-2.226-2.468-1.531-10.827-2.944-13.835c-1.061-2.258-4.094-5.91-6.262-7.145
	c-1.68-0.957-5.876-1.264-7.707-0.642c-0.706,0.24-2.047,1.19-2.783,1.07C133.685,145.149,133.624,143.938,133.689,143.623z"/>
<path opacity="0.3" fill="#FDFDFE" d="M199.045,133.481c0.164-0.799,1.755-2.12,2.435-2.569c2.323-1.532,8.619-1.196,11.132,0
	c2.989,1.423,7.256,6.32,8.67,9.313c1.261,2.667,0.026,10.363,2.034,12.524c2.422,2.606,10.941,1.609,13.702,3.854
	c1.17,0.951,2.425,3.887,2.783,5.352c0.648,2.652-1.764,8.836,0,10.918c1.052,1.242,3.347,1.799,4.973,1.873
	c1.766,0.08,3.565-1.257,4.019-0.803c0.568,0.568,0.505,2.587,0,3.211c-0.646,0.798-2.992,0.892-4.019,0.856
	c-2.128-0.075-6.438-1.192-7.756-2.863c-3.292-4.175-0.273-9.689-1.26-12.481c-0.297-0.84-0.777-1.971-1.469-2.532
	c-2.802-2.274-11.981-1.709-14.397-4.389c-2.226-2.468-1.531-10.827-2.944-13.835c-1.061-2.258-4.095-5.91-6.262-7.145
	c-1.68-0.957-5.876-1.264-7.707-0.642c-0.706,0.24-2.047,1.19-2.783,1.07C199.042,135.006,198.98,133.795,199.045,133.481z"/>
<path opacity="0.3" fill="#FDFDFE" d="M6.096,143.76c0.164-0.799,1.755-2.12,2.435-2.569c2.323-1.532,8.619-1.196,11.132,0
	c2.989,1.423,7.256,6.32,8.67,9.313c1.261,2.667,0.026,10.363,2.034,12.524c2.422,2.606,10.941,1.609,13.702,3.854
	c1.17,0.951,2.425,3.887,2.783,5.352c0.648,2.652-1.764,8.836,0,10.918c1.052,1.242,3.347,1.799,4.973,1.873
	c1.766,0.08,3.565-1.257,4.019-0.803c0.568,0.568,0.505,2.587,0,3.211c-0.646,0.798-2.992,0.892-4.019,0.856
	c-2.128-0.075-6.438-1.192-7.756-2.863c-3.292-4.175-0.273-9.689-1.26-12.481c-0.297-0.84-0.777-1.971-1.469-2.532
	c-2.802-2.274-11.981-1.709-14.397-4.389c-2.226-2.468-1.531-10.827-2.944-13.835c-1.061-2.258-4.095-5.91-6.262-7.145
	c-1.68-0.957-5.876-1.264-7.707-0.642c-0.706,0.24-2.047,1.19-2.783,1.07C6.093,145.285,6.031,144.074,6.096,143.76z"/>
<path opacity="0.3" fill="#FDFDFE" d="M75.781,193.596c0.164-0.799,1.755-2.12,2.435-2.569c2.323-1.532,8.619-1.196,11.132,0
	c2.989,1.423,7.256,6.32,8.67,9.313c1.261,2.667,0.026,10.363,2.034,12.524c2.422,2.606,10.941,1.609,13.702,3.854
	c1.17,0.951,2.425,3.887,2.783,5.352c0.648,2.652-1.764,8.836,0,10.918c1.052,1.242,3.347,1.799,4.973,1.873
	c1.766,0.08,3.565-1.257,4.019-0.803c0.568,0.568,0.505,2.587,0,3.211c-0.646,0.799-2.992,0.892-4.019,0.856
	c-2.128-0.075-6.438-1.192-7.756-2.863c-3.292-4.175-0.273-9.689-1.26-12.481c-0.297-0.84-0.777-1.971-1.469-2.532
	c-2.802-2.274-11.981-1.709-14.397-4.389c-2.226-2.468-1.531-10.827-2.944-13.835c-1.061-2.258-4.095-5.91-6.262-7.145
	c-1.68-0.957-5.876-1.264-7.707-0.642c-0.706,0.24-2.047,1.19-2.783,1.07C75.778,195.121,75.717,193.911,75.781,193.596z"/>
<path opacity="0.3" fill="#FDFDFE" d="M138.689,208.623c0.164-0.799,1.755-2.12,2.435-2.569c2.323-1.532,8.62-1.196,11.132,0
	c2.989,1.423,7.256,6.32,8.67,9.313c1.261,2.667,0.026,10.363,2.034,12.524c2.422,2.606,10.941,1.609,13.702,3.854
	c1.17,0.951,2.425,3.887,2.783,5.352c0.648,2.652-1.764,8.836,0,10.918c1.052,1.242,3.347,1.799,4.973,1.873
	c1.766,0.08,3.565-1.257,4.019-0.803c0.568,0.568,0.505,2.587,0,3.211c-0.646,0.798-2.992,0.892-4.019,0.856
	c-2.128-0.075-6.438-1.192-7.756-2.863c-3.292-4.175-0.273-9.689-1.26-12.481c-0.297-0.84-0.777-1.971-1.469-2.532
	c-2.802-2.274-11.981-1.709-14.397-4.389c-2.226-2.468-1.531-10.827-2.944-13.835c-1.061-2.258-4.094-5.91-6.262-7.145
	c-1.68-0.957-5.876-1.264-7.707-0.642c-0.706,0.24-2.047,1.19-2.783,1.07C138.685,210.149,138.624,208.938,138.689,208.623z"/>
<path opacity="0.3" fill="#FDFDFE" d="M204.045,194.481c0.164-0.799,1.755-2.12,2.435-2.569c2.323-1.532,8.619-1.196,11.132,0
	c2.989,1.423,7.256,6.32,8.67,9.313c1.261,2.667,0.026,10.363,2.034,12.524c2.422,2.606,10.941,1.609,13.702,3.854
	c1.17,0.951,2.425,3.887,2.783,5.352c0.648,2.652-1.764,8.836,0,10.918c1.052,1.242,3.347,1.799,4.973,1.873
	c1.766,0.08,3.565-1.257,4.019-0.803c0.568,0.568,0.505,2.587,0,3.211c-0.646,0.798-2.992,0.892-4.019,0.856
	c-2.128-0.075-6.438-1.192-7.756-2.863c-3.292-4.175-0.273-9.689-1.26-12.481c-0.297-0.84-0.777-1.971-1.469-2.532
	c-2.802-2.274-11.981-1.709-14.397-4.389c-2.226-2.468-1.531-10.827-2.944-13.835c-1.061-2.258-4.095-5.91-6.262-7.145
	c-1.68-0.957-5.876-1.264-7.707-0.642c-0.706,0.24-2.047,1.19-2.783,1.07C204.042,196.006,203.98,194.795,204.045,194.481z"/>
<path opacity="0.3" fill="#FDFDFE" d="M11.096,204.76c0.164-0.799,1.755-2.12,2.435-2.569c2.323-1.532,8.619-1.196,11.132,0
	c2.989,1.423,7.256,6.32,8.67,9.313c1.261,2.667,0.026,10.363,2.034,12.524c2.422,2.606,10.941,1.609,13.702,3.854
	c1.17,0.951,2.425,3.887,2.783,5.352c0.648,2.652-1.764,8.836,0,10.918c1.052,1.242,3.347,1.799,4.973,1.873
	c1.766,0.08,3.565-1.257,4.019-0.803c0.568,0.568,0.505,2.587,0,3.211c-0.646,0.798-2.992,0.892-4.019,0.856
	c-2.128-0.075-6.438-1.192-7.756-2.863c-3.292-4.175-0.273-9.689-1.26-12.481c-0.297-0.84-0.777-1.971-1.469-2.532
	c-2.802-2.274-11.981-1.709-14.397-4.389c-2.226-2.468-1.531-10.827-2.944-13.835c-1.061-2.258-4.095-5.91-6.262-7.145
	c-1.68-0.957-5.876-1.264-7.707-0.642c-0.706,0.24-2.047,1.19-2.783,1.07C11.093,206.285,11.031,205.074,11.096,204.76z"/>
</svg>
