<?xml version="1.0" encoding="utf-8"?>
<!-- Generator: Adobe Illustrator 17.0.0, SVG Export Plug-In . SVG Version: 6.00 Build 0)  -->
<!DOCTYPE svg PUBLIC "-//W3C//DTD SVG 1.1//EN" "http://www.w3.org/Graphics/SVG/1.1/DTD/svg11.dtd">
<svg version="1.1" id="Layer_1" xmlns="http://www.w3.org/2000/svg" xmlns:xlink="http://www.w3.org/1999/xlink" x="0px" y="0px"
	 width="256.307px" height="256.299px" viewBox="0 0 256.307 256.299" enable-background="new 0 0 256.307 256.299"
	 xml:space="preserve">
<circle opacity="0.3" fill="#FFFFFF" cx="22.926" cy="236.859" r="5.998"/>
<circle opacity="0.3" fill="#FFFFFF" cx="28.924" cy="222.299" r="5.998"/>
<circle opacity="0.3" fill="#FFFFFF" cx="40.919" cy="234.295" r="5.998"/>
<circle opacity="0.3" fill="#FFFFFF" cx="42.062" cy="220.586" r="5.998"/>
<circle opacity="0.3" fill="#FFFFFF" cx="74.907" cy="204.306" r="5.998"/>
<circle opacity="0.3" fill="#FFFFFF" cx="48.06" cy="208.59" r="5.998"/>
<circle opacity="0.3" fill="#FFFFFF" cx="42.062" cy="196.595" r="5.998"/>
<circle opacity="0.3" fill="#FFFFFF" cx="9.624" cy="210.304" r="5.998"/>
<circle opacity="0.3" fill="#FFFFFF" cx="22.453" cy="210.304" r="5.998"/>
<circle opacity="0.3" fill="#FFFFFF" cx="26.639" cy="196.595" r="5.998"/>
<circle opacity="0.3" fill="#FFFFFF" cx="32.637" cy="246.29" r="5.998"/>
<circle opacity="0.3" fill="#FFFFFF" cx="54.057" cy="226.583" r="5.998"/>
<circle opacity="0.3" fill="#FFFFFF" cx="55.771" cy="196.595" r="5.998"/>
<circle opacity="0.3" fill="#FFFFFF" cx="32.637" cy="184.599" r="5.998"/>
<circle opacity="0.3" fill="#FFFFFF" cx="43.775" cy="174.745" r="5.998"/>
<circle opacity="0.3" fill="#FFFFFF" cx="55.771" cy="180.743" r="5.998"/>
<circle opacity="0.3" fill="#FFFFFF" cx="55.771" cy="167.177" r="5.998"/>
<circle opacity="0.3" fill="#FFFFFF" cx="64.053" cy="211.735" r="5.998"/>
<circle opacity="0.3" fill="#FFFFFF" cx="67.766" cy="226.583" r="5.998"/>
<circle opacity="0.3" fill="#FFFFFF" cx="60.055" cy="238.579" r="5.998"/>
<circle opacity="0.3" fill="#FFFFFF" cx="46.917" cy="248.854" r="5.998"/>
<circle opacity="0.3" fill="#FFFFFF" cx="94.032" cy="248.363" r="5.998"/>
<circle opacity="0.3" fill="#FFFFFF" cx="100.03" cy="233.803" r="5.998"/>
<circle opacity="0.3" fill="#FFFFFF" cx="112.025" cy="245.799" r="5.998"/>
<circle opacity="0.3" fill="#FFFFFF" cx="113.168" cy="232.09" r="5.998"/>
<circle opacity="0.3" fill="#FFFFFF" cx="106.735" cy="219.52" r="5.998"/>
<circle opacity="0.3" fill="#FFFFFF" cx="119.165" cy="220.094" r="5.998"/>
<circle opacity="0.3" fill="#FFFFFF" cx="113.168" cy="208.099" r="5.998"/>
<circle opacity="0.3" fill="#FFFFFF" cx="74.907" cy="239.153" r="5.998"/>
<circle opacity="0.3" fill="#FFFFFF" cx="80.73" cy="221.808" r="5.998"/>
<circle opacity="0.3" fill="#FFFFFF" cx="94.439" cy="221.808" r="5.998"/>
<circle opacity="0.3" fill="#FFFFFF" cx="97.745" cy="208.099" r="5.998"/>
<circle opacity="0.3" fill="#FFFFFF" cx="125.163" cy="238.087" r="5.998"/>
<circle opacity="0.3" fill="#FFFFFF" cx="126.877" cy="208.099" r="5.998"/>
<circle opacity="0.3" fill="#FFFFFF" cx="103.743" cy="196.103" r="5.998"/>
<circle opacity="0.3" fill="#FFFFFF" cx="114.881" cy="186.249" r="5.998"/>
<circle opacity="0.3" fill="#FFFFFF" cx="126.877" cy="192.247" r="5.998"/>
<circle opacity="0.3" fill="#FFFFFF" cx="125.163" cy="177.187" r="5.998"/>
<circle opacity="0.3" fill="#FFFFFF" cx="138.872" cy="202.101" r="5.998"/>
<circle opacity="0.3" fill="#FFFFFF" cx="138.872" cy="238.087" r="5.998"/>
<circle opacity="0.3" fill="#FFFFFF" cx="67.766" cy="250.574" r="5.998"/>
<circle opacity="0.3" fill="#FFFFFF" cx="79.077" cy="174.545" r="5.998"/>
<circle opacity="0.3" fill="#FFFFFF" cx="151.724" cy="249.371" r="5.998"/>
<circle opacity="0.3" fill="#FFFFFF" cx="167.728" cy="248.867" r="5.998"/>
<circle opacity="0.3" fill="#FFFFFF" cx="9.624" cy="195.591" r="5.998"/>
<circle opacity="0.3" fill="#FFFFFF" cx="157.588" cy="93.781" r="5.998"/>
<circle opacity="0.3" fill="#FFFFFF" cx="169.583" cy="105.777" r="5.998"/>
<circle opacity="0.3" fill="#FFFFFF" cx="170.726" cy="92.068" r="5.998"/>
<circle opacity="0.3" fill="#FFFFFF" cx="163.586" cy="80.072" r="5.998"/>
<circle opacity="0.3" fill="#FFFFFF" cx="176.723" cy="80.072" r="5.998"/>
<circle opacity="0.3" fill="#FFFFFF" cx="170.726" cy="68.077" r="5.998"/>
<circle opacity="0.3" fill="#FFFFFF" cx="161.301" cy="117.772" r="5.998"/>
<circle opacity="0.3" fill="#FFFFFF" cx="182.721" cy="98.065" r="5.998"/>
<circle opacity="0.3" fill="#FFFFFF" cx="184.435" cy="68.077" r="5.998"/>
<circle opacity="0.3" fill="#FFFFFF" cx="161.301" cy="56.081" r="5.998"/>
<circle opacity="0.3" fill="#FFFFFF" cx="172.439" cy="46.227" r="5.998"/>
<circle opacity="0.3" fill="#FFFFFF" cx="184.435" cy="52.225" r="5.998"/>
<circle opacity="0.3" fill="#FFFFFF" cx="184.435" cy="38.659" r="5.998"/>
<circle opacity="0.3" fill="#FFFFFF" cx="196.43" cy="62.079" r="5.998"/>
<circle opacity="0.3" fill="#FFFFFF" cx="196.43" cy="98.065" r="5.998"/>
<circle opacity="0.3" fill="#FFFFFF" cx="188.719" cy="110.061" r="5.998"/>
<circle opacity="0.3" fill="#FFFFFF" cx="175.581" cy="120.337" r="5.998"/>
<circle opacity="0.3" fill="#FFFFFF" cx="226.704" cy="126.909" r="5.998"/>
<circle opacity="0.3" fill="#FFFFFF" cx="232.702" cy="112.349" r="5.998"/>
<circle opacity="0.3" fill="#FFFFFF" cx="238.211" cy="97.066" r="5.998"/>
<circle opacity="0.3" fill="#FFFFFF" cx="245.84" cy="86.07" r="5.998"/>
<circle opacity="0.3" fill="#FFFFFF" cx="203.57" cy="110.635" r="5.998"/>
<circle opacity="0.3" fill="#FFFFFF" cx="201.857" cy="84.369" r="5.998"/>
<circle opacity="0.3" fill="#FFFFFF" cx="225.969" cy="100.353" r="5.998"/>
<circle opacity="0.3" fill="#FFFFFF" cx="230.417" cy="86.644" r="5.998"/>
<circle opacity="0.3" fill="#FFFFFF" cx="236.415" cy="136.34" r="5.998"/>
<circle opacity="0.3" fill="#FFFFFF" cx="236.415" cy="74.649" r="5.998"/>
<circle opacity="0.3" fill="#FFFFFF" cx="214.995" cy="76.658" r="5.998"/>
<circle opacity="0.3" fill="#FFFFFF" cx="177.866" cy="187.743" r="5.998"/>
<circle opacity="0.3" fill="#FFFFFF" cx="183.864" cy="173.183" r="5.998"/>
<circle opacity="0.3" fill="#FFFFFF" cx="195.859" cy="185.178" r="5.998"/>
<circle opacity="0.3" fill="#FFFFFF" cx="197.001" cy="171.469" r="5.998"/>
<circle opacity="0.3" fill="#FFFFFF" cx="150.914" cy="152.773" r="5.998"/>
<circle opacity="0.3" fill="#FFFFFF" cx="202.999" cy="159.474" r="5.998"/>
<circle opacity="0.3" fill="#FFFFFF" cx="197.001" cy="147.478" r="5.998"/>
<circle opacity="0.3" fill="#FFFFFF" cx="163.707" cy="161.187" r="5.998"/>
<circle opacity="0.3" fill="#FFFFFF" cx="177.416" cy="161.187" r="5.998"/>
<circle opacity="0.3" fill="#FFFFFF" cx="181.579" cy="147.478" r="5.998"/>
<circle opacity="0.3" fill="#FFFFFF" cx="187.576" cy="197.174" r="5.998"/>
<circle opacity="0.3" fill="#FFFFFF" cx="208.997" cy="177.467" r="5.998"/>
<circle opacity="0.3" fill="#FFFFFF" cx="210.711" cy="147.478" r="5.998"/>
<circle opacity="0.3" fill="#FFFFFF" cx="187.576" cy="135.483" r="5.998"/>
<circle opacity="0.3" fill="#FFFFFF" cx="198.715" cy="125.628" r="5.998"/>
<circle opacity="0.3" fill="#FFFFFF" cx="210.711" cy="131.626" r="5.998"/>
<circle opacity="0.3" fill="#FFFFFF" cx="214.709" cy="61.808" r="5.998"/>
<circle opacity="0.3" fill="#FFFFFF" cx="222.706" cy="141.481" r="5.998"/>
<circle opacity="0.3" fill="#FFFFFF" cx="222.706" cy="177.467" r="5.998"/>
<circle opacity="0.3" fill="#FFFFFF" cx="214.995" cy="189.462" r="5.998"/>
<circle opacity="0.3" fill="#FFFFFF" cx="201.857" cy="199.738" r="5.998"/>
<circle opacity="0.3" fill="#FFFFFF" cx="240.414" cy="173.757" r="5.998"/>
<circle opacity="0.3" fill="#FFFFFF" cx="153.987" cy="199.253" r="5.998"/>
<circle opacity="0.3" fill="#FFFFFF" cx="169.99" cy="218.312" r="5.998"/>
<circle opacity="0.3" fill="#FFFFFF" cx="171.133" cy="204.602" r="5.998"/>
<circle opacity="0.3" fill="#FFFFFF" cx="229.336" cy="223.021" r="5.998"/>
<circle opacity="0.3" fill="#FFFFFF" cx="242.474" cy="223.021" r="5.998"/>
<circle opacity="0.3" fill="#FFFFFF" cx="236.476" cy="211.026" r="5.998"/>
<circle opacity="0.3" fill="#FFFFFF" cx="207.405" cy="211.026" r="5.998"/>
<circle opacity="0.3" fill="#FFFFFF" cx="204.038" cy="224.735" r="5.998"/>
<circle opacity="0.3" fill="#FFFFFF" cx="216.708" cy="228.593" r="5.998"/>
<circle opacity="0.3" fill="#FFFFFF" cx="221.053" cy="211.026" r="5.998"/>
<circle opacity="0.3" fill="#FFFFFF" cx="157.699" cy="223.244" r="5.998"/>
<circle opacity="0.3" fill="#FFFFFF" cx="183.128" cy="210.6" r="5.998"/>
<circle opacity="0.3" fill="#FFFFFF" cx="250.695" cy="205.028" r="5.998"/>
<circle opacity="0.3" fill="#FFFFFF" cx="227.051" cy="199.03" r="5.998"/>
<circle opacity="0.3" fill="#FFFFFF" cx="235.333" cy="186.228" r="5.998"/>
<circle opacity="0.3" fill="#FFFFFF" cx="245.846" cy="193.74" r="5.998"/>
<circle opacity="0.3" fill="#FFFFFF" cx="250.185" cy="181.608" r="5.998"/>
<circle opacity="0.3" fill="#FFFFFF" cx="189.126" cy="222.596" r="5.998"/>
<circle opacity="0.3" fill="#FFFFFF" cx="175.988" cy="232.871" r="5.998"/>
<circle opacity="0.3" fill="#FFFFFF" cx="229.091" cy="152.773" r="5.998"/>
<circle opacity="0.3" fill="#FFFFFF" cx="229.598" cy="166.175" r="5.998"/>
<circle opacity="0.3" fill="#FFFFFF" cx="9.146" cy="24.535" r="5.998"/>
<circle opacity="0.3" fill="#FFFFFF" cx="21.141" cy="34.39" r="5.998"/>
<circle opacity="0.3" fill="#FFFFFF" cx="21.141" cy="70.376" r="5.998"/>
<circle opacity="0.3" fill="#FFFFFF" cx="13.43" cy="82.372" r="5.998"/>
<circle opacity="0.3" fill="#FFFFFF" cx="15.429" cy="56.663" r="5.998"/>
<circle opacity="0.3" fill="#FFFFFF" cx="60.412" cy="86.934" r="5.998"/>
<circle opacity="0.3" fill="#FFFFFF" cx="66.41" cy="72.374" r="5.998"/>
<circle opacity="0.3" fill="#FFFFFF" cx="78.405" cy="84.369" r="5.998"/>
<circle opacity="0.3" fill="#FFFFFF" cx="79.548" cy="70.66" r="5.998"/>
<circle opacity="0.3" fill="#FFFFFF" cx="54.414" cy="70.66" r="5.998"/>
<circle opacity="0.3" fill="#FFFFFF" cx="70.837" cy="57.237" r="5.998"/>
<circle opacity="0.3" fill="#FFFFFF" cx="35.564" cy="66.376" r="5.998"/>
<circle opacity="0.3" fill="#FFFFFF" cx="31.28" cy="54.585" r="5.998"/>
<circle opacity="0.3" fill="#FFFFFF" cx="46.11" cy="60.094" r="5.998"/>
<circle opacity="0.3" fill="#FFFFFF" cx="148.63" cy="78.086" r="5.998"/>
<circle opacity="0.3" fill="#FFFFFF" cx="91.543" cy="76.658" r="5.998"/>
<circle opacity="0.3" fill="#FFFFFF" cx="105.252" cy="76.658" r="5.998"/>
<circle opacity="0.3" fill="#FFFFFF" cx="97.541" cy="88.653" r="5.998"/>
<circle opacity="0.3" fill="#FFFFFF" cx="84.403" cy="98.929" r="5.998"/>
<circle opacity="0.3" fill="#FFFFFF" cx="11.573" cy="147.768" r="5.998"/>
<circle opacity="0.3" fill="#FFFFFF" cx="29.567" cy="145.203" r="5.998"/>
<circle opacity="0.3" fill="#FFFFFF" cx="31.333" cy="131.494" r="5.998"/>
<circle opacity="0.3" fill="#FFFFFF" cx="36.707" cy="119.499" r="5.998"/>
<circle opacity="0.3" fill="#FFFFFF" cx="30.709" cy="107.503" r="5.998"/>
<circle opacity="0.3" fill="#FFFFFF" cx="65.921" cy="121.497" r="5.998"/>
<circle opacity="0.3" fill="#FFFFFF" cx="75.753" cy="111.215" r="5.998"/>
<circle opacity="0.3" fill="#FFFFFF" cx="21.284" cy="157.199" r="5.998"/>
<circle opacity="0.3" fill="#FFFFFF" cx="42.704" cy="137.492" r="5.998"/>
<circle opacity="0.3" fill="#FFFFFF" cx="44.418" cy="107.503" r="5.998"/>
<circle opacity="0.3" fill="#FFFFFF" cx="17.978" cy="105.217" r="5.998"/>
<circle opacity="0.3" fill="#FFFFFF" cx="32.423" cy="85.654" r="5.998"/>
<circle opacity="0.3" fill="#FFFFFF" cx="44.418" cy="91.651" r="5.998"/>
<circle opacity="0.3" fill="#FFFFFF" cx="44.418" cy="78.086" r="5.998"/>
<circle opacity="0.3" fill="#FFFFFF" cx="56.414" cy="101.506" r="5.998"/>
<circle opacity="0.3" fill="#FFFFFF" cx="56.414" cy="137.492" r="5.998"/>
<circle opacity="0.3" fill="#FFFFFF" cx="48.702" cy="149.487" r="5.998"/>
<circle opacity="0.3" fill="#FFFFFF" cx="35.564" cy="159.763" r="5.998"/>
<circle opacity="0.3" fill="#FFFFFF" cx="97.255" cy="150.056" r="5.998"/>
<circle opacity="0.3" fill="#FFFFFF" cx="103.253" cy="135.496" r="5.998"/>
<circle opacity="0.3" fill="#FFFFFF" cx="115.248" cy="147.491" r="5.998"/>
<circle opacity="0.3" fill="#FFFFFF" cx="116.391" cy="133.782" r="5.998"/>
<circle opacity="0.3" fill="#FFFFFF" cx="109.251" cy="121.787" r="5.998"/>
<circle opacity="0.3" fill="#FFFFFF" cx="122.388" cy="121.787" r="5.998"/>
<circle opacity="0.3" fill="#FFFFFF" cx="116.391" cy="109.791" r="5.998"/>
<circle opacity="0.3" fill="#FFFFFF" cx="74.121" cy="133.782" r="5.998"/>
<circle opacity="0.3" fill="#FFFFFF" cx="83.953" cy="123.5" r="5.998"/>
<circle opacity="0.3" fill="#FFFFFF" cx="97.255" cy="124.344" r="5.998"/>
<circle opacity="0.3" fill="#FFFFFF" cx="100.968" cy="109.791" r="5.998"/>
<circle opacity="0.3" fill="#FFFFFF" cx="106.966" cy="159.487" r="5.998"/>
<circle opacity="0.3" fill="#FFFFFF" cx="128.386" cy="139.78" r="5.998"/>
<circle opacity="0.3" fill="#FFFFFF" cx="130.1" cy="109.791" r="5.998"/>
<circle opacity="0.3" fill="#FFFFFF" cx="106.966" cy="97.796" r="5.998"/>
<circle opacity="0.3" fill="#FFFFFF" cx="118.104" cy="87.941" r="5.998"/>
<circle opacity="0.3" fill="#FFFFFF" cx="130.1" cy="93.939" r="5.998"/>
<circle opacity="0.3" fill="#FFFFFF" cx="130.1" cy="80.374" r="5.998"/>
<circle opacity="0.3" fill="#FFFFFF" cx="142.095" cy="103.794" r="5.998"/>
<circle opacity="0.3" fill="#FFFFFF" cx="142.095" cy="139.78" r="5.998"/>
<circle opacity="0.3" fill="#FFFFFF" cx="134.384" cy="151.775" r="5.998"/>
<circle opacity="0.3" fill="#FFFFFF" cx="121.246" cy="162.051" r="5.998"/>
<circle opacity="0.3" fill="#FFFFFF" cx="50.416" cy="123.5" r="5.998"/>
<circle opacity="0.3" fill="#FFFFFF" cx="202.264" cy="40.229" r="5.998"/>
<circle opacity="0.3" fill="#FFFFFF" cx="190.229" cy="25.528" r="5.998"/>
<circle opacity="0.3" fill="#FFFFFF" cx="203.282" cy="15.736" r="5.998"/>
<circle opacity="0.3" fill="#FFFFFF" cx="179.923" cy="6.394" r="5.998"/>
<circle opacity="0.3" fill="#FFFFFF" cx="233.559" cy="25.818" r="5.998"/>
<circle opacity="0.3" fill="#FFFFFF" cx="250.695" cy="22.379" r="5.998"/>
<circle opacity="0.3" fill="#FFFFFF" cx="240.699" cy="13.822" r="5.998"/>
<circle opacity="0.3" fill="#FFFFFF" cx="208.262" cy="27.532" r="5.998"/>
<circle opacity="0.3" fill="#FFFFFF" cx="221.114" cy="32.662" r="5.998"/>
<circle opacity="0.3" fill="#FFFFFF" cx="225.276" cy="13.822" r="5.998"/>
<circle opacity="0.3" fill="#FFFFFF" cx="174.724" cy="27.532" r="5.998"/>
<circle opacity="0.3" fill="#FFFFFF" cx="132.921" cy="30.296" r="5.998"/>
<circle opacity="0.3" fill="#FFFFFF" cx="138.919" cy="15.736" r="5.998"/>
<circle opacity="0.3" fill="#FFFFFF" cx="150.914" cy="27.732" r="5.998"/>
<circle opacity="0.3" fill="#FFFFFF" cx="152.057" cy="14.023" r="5.998"/>
<circle opacity="0.3" fill="#FFFFFF" cx="103.538" cy="27.732" r="5.998"/>
<circle opacity="0.3" fill="#FFFFFF" cx="111.25" cy="53.154" r="5.998"/>
<circle opacity="0.3" fill="#FFFFFF" cx="128.386" cy="6.394" r="5.998"/>
<circle opacity="0.3" fill="#FFFFFF" cx="142.632" cy="39.727" r="5.998"/>
<circle opacity="0.3" fill="#FFFFFF" cx="156.912" cy="42.291" r="5.998"/>
<circle opacity="0.3" fill="#FFFFFF" cx="7.432" cy="93.781" r="5.998"/>
<circle opacity="0.3" fill="#FFFFFF" cx="43.811" cy="23.165" r="5.998"/>
<circle opacity="0.3" fill="#FFFFFF" cx="55.806" cy="35.161" r="5.998"/>
<circle opacity="0.3" fill="#FFFFFF" cx="56.949" cy="21.451" r="5.998"/>
<circle opacity="0.3" fill="#FFFFFF" cx="30.519" cy="21.451" r="5.998"/>
<circle opacity="0.3" fill="#FFFFFF" cx="48.417" cy="11.17" r="5.998"/>
<circle opacity="0.3" fill="#FFFFFF" cx="47.524" cy="47.156" r="5.998"/>
<circle opacity="0.3" fill="#FFFFFF" cx="68.944" cy="27.449" r="5.998"/>
<circle opacity="0.3" fill="#FFFFFF" cx="82.653" cy="27.449" r="5.998"/>
<circle opacity="0.3" fill="#FFFFFF" cx="74.942" cy="39.445" r="5.998"/>
<circle opacity="0.3" fill="#FFFFFF" cx="84.367" cy="48.587" r="5.998"/>
<circle opacity="0.3" fill="#FFFFFF" cx="95.505" cy="38.733" r="5.998"/>
<circle opacity="0.3" fill="#FFFFFF" cx="82.653" cy="11.17" r="5.998"/>
<circle opacity="0.3" fill="#FFFFFF" cx="95.505" cy="7.825" r="5.998"/>
<circle opacity="0.3" fill="#FFFFFF" cx="22.426" cy="11.17" r="5.998"/>
<circle opacity="0.3" fill="#FFFFFF" cx="6.691" cy="162.051" r="5.998"/>
<circle opacity="0.3" fill="#FFFFFF" cx="243.579" cy="38.659" r="5.998"/>
<circle opacity="0.3" fill="#FFFFFF" cx="238.7" cy="51.324" r="5.998"/>
<circle opacity="0.3" fill="#FFFFFF" cx="224.42" cy="46.227" r="5.998"/>
<circle opacity="0.3" fill="#FFFFFF" cx="21.543" cy="93.217" r="5.998"/>
<circle opacity="0.3" fill="#FFFFFF" cx="200.939" cy="249.717" r="5.998"/>
<circle opacity="0.3" fill="#FFFFFF" cx="206.937" cy="237.722" r="5.998"/>
<circle opacity="0.3" fill="#FFFFFF" cx="250.41" cy="249.724" r="5.998"/>
<circle opacity="0.3" fill="#FFFFFF" cx="245.682" cy="236.73" r="5.998"/>
<circle opacity="0.3" fill="#FFFFFF" cx="35.564" cy="6.57" r="5.998"/>
<circle opacity="0.3" fill="#FFFFFF" cx="193.069" cy="7.176" r="5.998"/>
<circle opacity="0.3" fill="#FFFFFF" cx="212.424" cy="7.176" r="5.998"/>
<circle opacity="0.3" fill="#FFFFFF" cx="122.388" cy="46.227" r="5.998"/>
<circle opacity="0.3" fill="#FFFFFF" cx="85.075" cy="162.051" r="5.998"/>
<circle opacity="0.3" fill="#FFFFFF" cx="137.416" cy="177.187" r="5.998"/>
<circle opacity="0.3" fill="#FFFFFF" cx="151.59" cy="168.049" r="5.998"/>
<circle opacity="0.3" fill="#FFFFFF" cx="94.032" cy="173.183" r="5.998"/>
<circle opacity="0.3" fill="#FFFFFF" cx="250.695" cy="62.079" r="5.998"/>
<circle opacity="0.3" fill="#FFFFFF" cx="250.695" cy="130.342" r="5.998"/>
<circle opacity="0.3" fill="#FFFFFF" cx="248.411" cy="143.622" r="5.998"/>
<circle opacity="0.3" fill="#FFFFFF" cx="6.691" cy="135.483" r="5.998"/>
<circle opacity="0.3" fill="#FFFFFF" cx="23.569" cy="119.631" r="5.998"/>
<circle opacity="0.3" fill="#FFFFFF" cx="236.967" cy="246.165" r="5.998"/>
<circle opacity="0.3" fill="#FFFFFF" cx="6.691" cy="239.801" r="5.998"/>
</svg>
