<?xml version="1.0" encoding="utf-8"?>
<!-- Generator: Adobe Illustrator 17.0.0, SVG Export Plug-In . SVG Version: 6.00 Build 0)  -->
<!DOCTYPE svg PUBLIC "-//W3C//DTD SVG 1.1//EN" "http://www.w3.org/Graphics/SVG/1.1/DTD/svg11.dtd">
<svg version="1.1" id="Layer_1" xmlns="http://www.w3.org/2000/svg" xmlns:xlink="http://www.w3.org/1999/xlink" x="0px" y="0px"
	 width="256px" height="256px" viewBox="0 0 256 256" enable-background="new 0 0 256 256" xml:space="preserve">
<g opacity="0.3">
	<path fill="#FFFFFF" d="M0.036,236.114c0,0,49.069,0.892,57.252,0.508c10.424-0.489,17.458-5.149,26.79-9.266
		c19.287-8.51,27.125,9.979,42.789,14.946c19.304,6.12,37.948,2.663,57.3,0c21.948-3.02,71.873-6.204,71.873-6.204v-1.951
		c0,0-20.044-0.111-26.704,0.356c-11.419,0.802-33.995,5.068-45.418,5.82c-14.12,0.93-42.988,4.09-56.601,0.228
		c-8.244-2.338-20.687-16.484-29.099-18.114c-3.839-0.744-11.62,1.726-15.406,2.709c-6.576,1.707-18.954,7.916-25.676,8.904
		c-14.144,2.079-57.099,0.097-57.099,0.097V236.114z"/>
</g>
<g opacity="0.3">
	<path fill="#FFFFFF" d="M256.036,226.786c0,0-36.642,4.293-53.248,7.884c-20.785,4.494-36.625,7.124-56.673-1.549
		c-10.024-4.336-19.971-5.634-26.216-13.628c-6.095-7.801-11.156-15.41-24.674-11.15c-10.006,3.154-16.903,9.713-25.445,14.247
		c-9.572,5.081-21.204,2.478-31.999,2.478c-11.566,0-37.746,1.733-37.746,1.733v-3.453c0,0,28.012,0.335,37.357-0.409
		c7.727-0.615,23.5-0.021,30.925-2.246c7.17-2.148,19.075-12.114,26.132-14.607c6.644-2.347,12.247-3.497,26.246,10.955
		c4.98,5.141,18.524,11.307,25.448,13.123c13.42,3.521,41.613,2.922,55.46,2.054c13.75-0.862,45.342-8.773,54.431-8.871V226.786z"/>
</g>
<g opacity="0.3">
	<path fill="#FFFFFF" d="M0.036,216.598c0,0,29.65-0.193,41.601,0.108c12.722,0.32,21.995-0.577,32.77-5.575
		c9.27-4.3,18.871-10.627,29.3-12.699c13.084-2.599,16.006,6.357,21.975,13.008c5.987,6.672,13.107,5.598,21.975,5.885
		c10.408,0.337,14.996,5.044,23.903,8.982c10.748,4.753,21.585,1.223,32.77-1.858c16.956-4.671,51.708-7.85,51.708-7.85
		l-0.003-3.297c-5.593-0.116-39.741,6.307-53.062,7.849c-7.479,0.866-22.565,3.615-30.012,2.511
		c-6.346-0.941-17.7-7.646-23.85-9.472c-5.257-1.56-16.753-1.593-21.502-4.336c-3.983-2.301-7.97-11.914-12.162-13.808
		c-2.912-1.316-9.657-0.672-12.781,0c-7.864,1.693-21.615,10.951-29.328,13.237c-7.748,2.297-23.893,4.303-31.952,4.907
		c-10.309,0.773-41.351-0.873-41.351-0.873V216.598z"/>
</g>
<g opacity="0.3">
	<path fill="#FFFFFF" d="M256.038,205.099c0,0-26.351-1.114-53.185,9.093c-12.222,4.649-17.847,0.447-28.594-4.61
		c-7.745-3.644-18.512-6.899-27.373-6.194c-6.945,0.553-7.576,2.03-12.337-2.478c-3.377-3.198-6.119-6.892-10.024-9.292
		c-9.903-6.086-22.063-1.753-31.613,2.478c-9.343,4.138-17.343,9.345-28.144,10.531c-8.862,0.973-18.125,0.044-26.987-0.929
		C26.981,202.512,0,205.083,0,205.083v-1.766c0,0,28.218-1.493,37.621-1.463c6.682,0.021,20.109,2.232,26.703,1.152
		c7.362-1.205,20.701-8.578,27.844-10.727c6.098-1.835,18.51-5.621,24.877-5.478c2.539,0.057,7.55,1.478,9.814,2.629
		c2.875,1.461,7.153,6.665,10.042,8.098c2.238,1.11,7.253,1.892,9.7,2.396c7.506,1.548,22.689,3.717,30.241,5.021
		c6.369,1.1,18.986,4.733,25.448,4.565c8.406-0.219,24.373-6.946,32.751-7.657c5.228-0.444,15.258,1.27,20.998,1.479V205.099z"/>
</g>
<g opacity="0.3">
	<path fill="#FFFFFF" d="M0.036,196.114c0,0,25.411-2.055,32.349-1.708c22.367,1.119,40.817,3.617,60.913-6.194
		c7.692-3.755,15.019-7.841,23.903-9.292c14.24-2.325,18.079,5.947,27.373,12.079c8.061,5.319,16.954,3.888,26.601,4.336
		c10.788,0.501,19.655,6.027,30.457,6.504c10.019,0.442,20.434-4.328,30.842-5.575c7.711-0.924,15.925,0.997,23.562-0.15
		l0.003-1.979c-4.794-0.219-17.832-0.028-23.737,0.426c-7.749,0.597-22.929,5.145-30.697,4.907
		c-7.714-0.237-22.538-5.33-30.126-6.733c-6.408-1.185-19.743-1.356-25.79-3.785c-4.515-1.813-11.265-9.682-15.862-11.278
		c-3.13-1.087-9.964-1.18-13.237-0.666c-6.358,0.998-17.862,7.442-24.078,9.11c-10.22,2.742-31.21,6.118-41.766,6.847
		c-4.612,0.318-13.864-0.514-18.487-0.456C24.193,192.608,0,194.161,0,194.161L0.036,196.114z"/>
</g>
<g opacity="0.3">
	<path fill="#FFFFFF" d="M256.038,186.337c0,0-35.518,3.17-52.865,2.493c-14.652-0.571-38.058,0.129-49.733-6.814
		c-8.023-4.771-13.884-13.371-25.059-12.389c-10.028,0.881-20.032,6.855-28.915,10.221c-16.549,6.271-35.085,6.879-52.817,6.194
		C31.997,185.478,0,186.364,0,186.364v-1.609c0,0,34.911,0.67,46.522-0.007c13.305-0.775,39.98-3.12,52.949-6.189
		c7.333-1.735,20.801-10.571,28.331-10.291c7.119,0.264,9.211-1.635,25.988,11.687c9.722,7.72,36.775,6.455,49.184,6.847
		c13.296,0.42,53.062-2.038,53.062-2.038L256.038,186.337z"/>
</g>
<g opacity="0.3">
	<path fill="#FFFFFF" d="M0,175.833c0,0,5.387-1.845,8.095-2.064c26.16-2.117,55.575,8.136,80.962,0.506
		c10.047-3.02,20.11-6.256,30.457-8.982c9.702-2.556,23.94-7.185,33.155-1.549c8.516,5.209,13.484,10.297,25.059,11.769
		c7.704,0.98,15.81,0.077,23.903-0.31c16.2-0.775,51.427,1.938,54.404,0.63l0.003-2.297c-3.955,1.189-41.179-0.339-54.89-0.314
		c-5.735,0.011-17.335,1.455-22.937,0.228c-6.595-1.444-17.981-9.498-24.421-11.526c-3.395-1.069-10.477-2.451-14.036-2.396
		c-5.326,0.081-15.701,2.992-20.883,4.222c-7.798,1.851-22.972,7.453-30.925,8.445c-19.82,2.47-59.946-1.664-79.882-0.441
		c-2.024,0.124-8.044,1.796-8.044,1.796L0,175.833z"/>
</g>
<g opacity="0.3">
	<path fill="#FFFFFF" d="M256.038,165.303c-7.334-0.281-41.282,2.231-61.347,0.919c-11.558-0.756-20.661-2.351-28.529-8.982
		c-7.563-6.374-15.782-7.647-26.601-4.956c-18.08,4.497-38.177,14.18-57.444,13.318c-16.203-0.725-32.77,0-48.962,0
		c-9.638,0-33.12-0.3-33.12-0.3l0-2.556c0,0,24.582,0.695,32.792,1.005c12.231,0.461,36.788,1.786,48.955,0.456
		c14.641-1.6,42.767-11.589,57.4-13.257c4.734-0.54,14.461-1.253,19.057,0c2.396,0.653,6.284,4.045,8.559,5.041
		c6.606,2.892,20.469,7.37,27.616,8.33c15.273,2.052,52.544-3.008,61.62-1.565L256.038,165.303z"/>
</g>
<g opacity="0.3">
	<path fill="#FFFFFF" d="M0.049,155.817c0,0,16.53-0.753,22.698-0.436c23.519,1.21,46.263,0,69.395,0
		c8.867,0,17.754,0.065,26.216-2.478c10.047-3.02,19.642-6.889,30.071-9.601c13.469-3.504,19.351-1.334,28.915,6.194
		c7.383,5.812,15.039,8.576,25.059,8.982c18.513,0.751,45.141-2.478,53.633-2.682l0-2.978c-10.255-0.55-40.261,4.893-53.518,2.944
		c-6.304-0.926-20.897-11.371-26.926-13.432c-5.984-2.046-14.793-2.921-21.117-3c-9.785-0.123-27.935,9.217-37.544,11.069
		c-5.965,1.15-18.124,1.992-24.192,2.282c-17.554,0.84-52.728-0.391-70.295,0.114c-5.617,0.162-22.408,0.021-22.408,0.021
		L0.049,155.817z"/>
</g>
<g opacity="0.3">
	<path fill="#FFFFFF" d="M256.036,143.029c-8.055-1.878-35.888,6.391-50.935,4.299c-4.623-0.643-9.616-1.898-13.493-4.026
		c-4.601-2.525-6.959-7.704-11.951-10.221c-9.677-4.879-19.643-0.563-28.915,2.478c-17.315,5.68-34.316,10.712-53.588,10.221
		c-8.87-0.226-17.371-1.39-26.216,0c-8.892,1.397-18.117,3.979-26.601,3.407C29.306,148.173,0,143.051,0,143.051l0.032-2.953
		c0,0,11.581,2.114,15.451,2.274c7.448,0.308,21.987,4.702,29.442,4.718c6.67,0.014,19.704-3.696,26.361-4.108
		c6.438-0.399,19.362,1.334,25.79,0.799c13.51-1.124,39.747-8.77,53.178-10.613c7.653-1.05,23.518-4.883,30.811-2.336
		c3.783,1.321,8.228,8.995,11.754,10.899c2.819,1.522,9.244,2.838,12.439,3.076c12.715,0.95,39.865-7.16,50.78-4.729V143.029z"/>
</g>
<g opacity="0.3">
	<path fill="#FFFFFF" d="M0.032,133.051c0,0,25.04,7.675,35.051,9.011c10.809,1.443,21.152-3.319,31.228-5.575
		c9.209-2.062,18.504-2.459,27.758-1.549c9.636,0.948,18.863,2.327,28.529,0.619c9.613-1.699,18.954-4.446,28.144-7.433
		c8.932-2.904,18.51-9.049,28.529-8.363c12.343,0.846,14.685,10.744,25.059,14.557c13.153,4.834,45.188-2.669,51.706-1.223l0-2.851
		c-6.077-1.972-38.53,5.292-50.894,2.237c-7.187-1.775-18.223-13.976-25.562-14.949c-7.65-1.014-22.334,6.092-29.784,8.102
		c-6.929,1.869-20.602,6.584-27.73,7.417c-6.945,0.812-20.967-0.944-27.958-0.799c-7.12,0.148-21.345,1.14-28.415,1.994
		c-7.616,0.919-22.572,5.394-30.241,5.196c-9.074-0.235-35.404-9.221-35.404-9.221L0.032,133.051z"/>
</g>
<g opacity="0.3">
	<path fill="#FFFFFF" d="M256.036,124.069c-3.255-1.237-20.477,1.611-28.96,1.888c-10.793,0.352-15.855-2.421-22.746-8.363
		c-8.542-7.364-15.809-9.607-27.373-5.575c-8.869,3.093-16.974,6.769-26.216,8.982c-8.878,2.125-17.734,3.097-26.601,3.097
		c-11.566,0-25.051-1.817-35.854,0.31c-19.262,3.791-38.571,13.998-58.215,8.053c-8.104-2.453-30.023-8.348-30.023-8.348
		l-0.013-3.578c0,0,33.869,10.353,41.782,10.936c14.211,1.048,31.236-7.582,45.443-8.689c9.193-0.716,27.662-0.711,36.859-1.369
		c6.467-0.463,19.455-1.357,25.79-2.739c6.644-1.449,19.111-7.372,25.79-8.651c4.686-0.898,14.439-2.248,19.057-1.048
		c3.103,0.806,7.942,5.479,10.841,6.847c5.107,2.41,15.846,6.407,21.454,7.075c7.219,0.86,24.695-4.873,28.984-2.361
		L256.036,124.069z"/>
</g>
<g opacity="0.3">
	<path fill="#FFFFFF" d="M0.032,116.625c0,0,14.673-1.683,22.714,1.28c6.024,2.219,12.741,9.177,18.891,10.221
		c6.576,1.116,18.883-4.371,25.445-5.885c9.626-2.22,19.662-4.956,29.3-6.814s20.048-2.499,29.686-2.168
		c8.482,0.291,18.144,2.58,26.216,0.619c18.177-4.416,39.769-25.149,56.673-8.672c6.964,6.789,10.811,11.713,22.746,10.84
		c6.566-0.48,22.584,1.258,24.334,0.586l-0.001-4.783c-3.815-0.166-18.813,2.876-24.99,1.767
		c-5.736-1.03-15.697-7.703-20.997-10.126c-3.788-1.731-11.131-6.427-15.291-6.612c-11.347-0.504-31.918,12.484-43.136,14.264
		c-6.119,0.971-18.591-0.34-24.783-0.114c-7.744,0.282-23.249,1.197-30.905,2.396c-7.59,1.189-22.412,5.38-29.898,7.108
		c-6.068,1.401-18.159,6.437-24.307,5.444c-5.091-0.822-12.832-8.877-17.688-10.613c-5.721-2.045-24.009-3.533-24.009-3.533V116.625
		z"/>
</g>
<g opacity="0.3">
	<path fill="#FFFFFF" d="M256.036,104.661c0,0-17.779,0.545-25.875,0.545c-11.951,0-14.652-9.909-21.59-15.796
		c-13.498-11.455-40.485,13.886-55.516,15.176c-10.412,0.894-21.204,0.31-31.613,0.31c-12.722,0-25.445,2.168-37.782,4.646
		c-10.795,2.168-20.427,7.143-30.457,10.221c-11.174,3.429-18.839-5.349-27.373-10.531c-8.815-5.352-25.799-4.571-25.799-4.571
		v-2.854c0,0,20.132,2.973,26.634,4.886c6.75,1.986,18.986,10.503,26.018,10.727c7.98,0.254,22.456-8.494,30.241-10.27
		c9.19-2.097,28.022-3.959,37.43-4.565c7.943-0.511,23.949,0.829,31.838-0.228c14.773-1.981,37.309-22.381,57.628-15.291
		c6.145,2.144,13.998,14.446,20.198,16.426c6.209,1.982,23.427-2.516,26.017-1.684V104.661z"/>
</g>
<g opacity="0.3">
	<path fill="#FFFFFF" d="M0.032,93.817c0,0,10.377-1.62,16.16-0.69c7.711,1.239,15.325,4.459,21.204,8.982
		c4.554,3.503,7.683,7.839,13.879,9.601c10.365,2.948,18.555-4.211,27.373-7.743c20.164-8.077,42.419-12.161,65.154-8.982
		c10.8,1.51,18.977,1.115,28.529-3.407c8.173-3.869,15.807-13.008,25.059-14.867c13.879-2.788,19.561,7.837,26.216,14.867
		c6.837,7.222,32.429,2.22,32.429,2.22v-2.276c0,0-25.4,4.66-30.467-1.033C209.14,72.03,205.27,73.963,197.04,74.056
		c-7.373,0.083-18.248,12.89-25.219,15.291c-6.628,2.283-20.863,3.941-27.844,3.309c-33.112-2.997-50.784,3.407-65.73,9.148
		c-6.156,2.365-18.943,8.023-25.448,6.942c-4.012-0.667-9.872-7.225-13.466-9.129c-5.453-2.89-16.842-8.159-22.937-9.129
		c-4.047-0.644-16.36,1.033-16.36,1.033L0.032,93.817z"/>
</g>
<g opacity="0.3">
	<path fill="#FFFFFF" d="M256.036,84.989c0,0-20.522,2.343-28.189-1.464c-8.532-4.236-10.776-17.783-21.204-19.203
		c-10.008-1.363-19.656,9.301-26.216,13.318c-9.63,5.898-18.865,9.126-30.457,7.433c-21.162-3.09-35.844,2.205-55.516,7.743
		c-8.862,2.495-21.203,8.699-30.457,8.982c-11.179,0.342-18.13-10.813-27.373-14.247c-5.789-2.151-11.18-1.558-16.963-1.858
		c-6.168-0.32-19.63-0.704-19.63-0.704v-2.957c0,0,14.843,0.656,19.787,0.982c4.451,0.293,13.431,1.007,17.688,2.34
		c7.074,2.216,18.979,12.902,26.361,13.576c7.657,0.699,21.918-7.31,29.442-8.897c14.062-2.967,33.647-11.148,57.058-7.019
		c7.41,1.307,22.158-4.63,29.213-7.246c7.01-2.599,19.277-14.329,26.703-13.466c7.402,0.861,15.849,16.546,22.823,19.171
		c6.302,2.373,26.929,0.558,26.929,0.558L256.036,84.989z"/>
</g>
<g opacity="0.3">
	<path fill="#FFFFFF" d="M0,74.223c0,0,40.789-2.065,52.432,7.444c3.447,2.815,6.958,8.584,11.566,9.601
		c3.872,0.855,9.656-0.86,13.493-1.858c8.91-2.318,17.734-6.194,26.601-8.982c8.867-2.787,17.35-4.685,26.987-4.336
		c7.712,0.279,15.04,2.529,23.132,1.858c10.415-0.863,18.82-3.828,26.987-8.982c8.028-5.066,13.871-12.751,24.288-14.247
		c11.172-1.605,17.34,10.542,24.674,16.106c6.546,4.966,25.875,3.397,25.875,3.397l0.014-2.437c0,0-19.074,0.365-24.661-2.296
		c-4.936-2.35-10.354-13.285-15.291-15.634c-2.535-1.206-8.44-1.627-11.183-1.027c-7.042,1.54-18.397,11.467-24.991,14.379
		c-6.083,2.686-18.721,7.407-25.334,8.102c-5.675,0.596-17.009-2.536-22.709-2.282c-7.429,0.331-21.99,3.828-29.213,5.592
		c-6.652,1.624-19.547,6.414-26.246,7.827c-2.757,0.582-8.477,2.204-11.183,1.416c-3.346-0.974-7.603-7.356-10.727-8.901
		c-8.213-4.063-26.581-7.53-35.718-8.216c-4.689-0.352-18.76,1.039-18.76,1.039L0,74.223z"/>
</g>
<g opacity="0.3">
	<path fill="#FFFFFF" d="M256.036,64.442c0,0-16.644,2.708-23.177-0.739c-9.283-4.898-12.726-15.461-24.674-17.035
		c-11.569-1.524-21.74,10.007-29.3,15.486c-9.055,6.563-19.279,2.083-30.842,2.478c-22.367,0.764-39.256,9.587-60.142,14.247
		c-10.377,2.315-14.949,1.145-21.975-5.265c-7.237-6.602-16.975-10.088-28.144-11.15c-11.58-1.101-37.75,1.978-37.75,1.978
		l0.004-2.899c0,0,16.073-2.127,21.495-2.818c11.129-1.417,33.004,0.986,46.105,8.438c6.57,3.737,13.96,8.937,18.941,9.089
		c15.605,0.478,45.262-12.37,60.709-14.635c7.237-1.061,22.158,0.331,29.213-1.598c8.838-2.415,23.385-17.552,32.523-16.889
		c7.853,0.57,18.068,15.983,25.562,18.399c5.104,1.646,21.452,0.013,21.452,0.013V64.442z"/>
</g>
<g opacity="0.3">
	<path fill="#FFFFFF" d="M0.036,53.004c0,0,50.433,1.319,59.336,2.646c4.995,0.744,10.476,1.128,14.65,3.717
		c4.313,2.675,6.168,7.433,11.951,8.982c9.253,2.478,23.539-4.23,32.77-6.194c9.663-2.057,19.662-4.956,30.071-6.194
		s19.911,1.09,27.373-5.885c8.097-7.569,21.172-12.283,25.051-11.277c10.971,2.844,17.709,6.077,26.609,10.658
		c11.099,5.712,26.742,3.249,28.189,3.551l0-2.204c0,0-20.934-1.407-27.614-3.335c-7.311-2.111-19.893-13.126-27.502-13.043
		c-7.658,0.083-20.163,11.185-27.388,13.728c-6.001,2.113-18.652,4.051-24.877,5.363c-7.61,1.604-22.829,4.821-30.469,6.276
		c-7.796,1.485-23.531,7.243-31.268,5.478c-3.388-0.773-8.127-6.679-11.297-8.102c-3.789-1.701-12.089-3.093-16.204-3.652
		C44.69,51.517,0.032,50.801,0.032,50.801L0.036,53.004z"/>
</g>
<g opacity="0.3">
	<path fill="#FFFFFF" d="M256.036,43.556c-1.274,0.215-20.561,0.196-30.887-4.631c-8.942-4.18-16.586-10.889-27.373-8.982
		c-11.961,2.114-18.492,7.453-27.373,13.318c-8.469,5.594-22.735,7.531-33.541,8.672c-9.629,1.017-19.186,0.595-28.529,3.407
		c-4.586,1.38-9.612,4.225-14.65,3.097c-4.605-1.031-8.15-5.473-12.337-7.743c-19.147-10.38-43.187-13.665-65.154-9.292
		C13.107,42.017,0,43.551,0,43.551l0.036-4.297c0,0,11.788,0.433,15.789-0.118c8.267-1.139,25.049-3.108,33.322-2.008
		c8.743,1.163,25.323,7.791,33.436,11.251c3.08,1.314,8.55,5.757,11.868,6.205c3.385,0.457,9.978-2.362,13.351-2.896
		c7.052-1.115,21.383-1.618,28.415-2.853c8.144-1.43,24.322-5.205,32.066-8.102c7.457-2.789,20.483-13.691,28.415-14.379
		c7.903-0.685,22.597,7.586,30.355,9.243c7.142,1.526,28.984,3.652,28.984,3.652L256.036,43.556z"/>
</g>
<g opacity="0.3">
	<path fill="#FFFFFF" d="M0.049,32.973c0,0,7.808,0.616,11.789,0.067c20.602-2.842,40.51-0.112,61.152,1.239
		c13.109,0.858,22.206,8.499,34.15,11.15c10.299,2.286,20.277-2.351,29.782-4.336c5.575-1.165,11.51-2.186,16.678-3.717
		c6.347-1.88,9.466-5.665,14.692-9.292c8.241-5.719,17.471-5.564,28.194-4.956c11.118,0.631,21.064,4.89,31.37,7.743
		c8.752,2.422,28.181,2.102,28.181,2.102l0-2.297c0,0-20.692-0.069-27.5-1.06c-8.275-1.205-24.054-7.911-32.409-8.282
		c-7.277-0.324-21.875,2.293-28.757,4.679c-4.099,1.421-11.149,6.802-15.177,8.41c-3.832,1.53-11.925,3.36-15.976,4.142
		c-6.806,1.315-20.594,4.115-27.502,3.538c-9.299-0.777-26.499-9.393-35.718-10.841c-15.052-2.364-45.74-2.113-60.938-1.027
		C9.013,30.453,0,30.661,0,30.661L0.049,32.973z"/>
</g>
<g opacity="0.3">
	<path fill="#FFFFFF" d="M201.118,17.864c-9.799-1.584-19.609-2.168-29.022,0.31c-11.766,3.097-19.607,10.227-30.983,14.247
		c-18.43,6.514-35.29-4.687-53.73-7.743c-11.369-1.884-22.357-1.836-33.728-3.097c-13.73-1.522-24.705,2.013-38.042,2.168
		c-5.098,0.059-15.548-0.885-15.548-0.885l-0.028-2.406c0,0,11.759,0.742,15.675,0.535c9.624-0.509,28.82-2.801,38.457-2.67
		c8.397,0.115,25.094,2.267,33.436,3.24c12.984,1.515,38.847,8.773,51.808,7.075c8.647-1.133,23.614-11.83,32.18-13.466
		c7.343-1.402,22.439,0.068,29.898,0.571c13.104,0.882,54.545,4.747,54.545,4.747l0,2.368
		C256.036,22.858,217.992,20.591,201.118,17.864z"/>
</g>
<g opacity="0.3">
	<path fill="#FFFFFF" d="M0.036,13.239c0,0,14.997-0.306,26.566,1.218c11.948,1.574,18.512,0.048,30.457-1.549
		c13.501-1.804,29.233,2.933,43.11,3.598c18.123,0.869,36.685,3.793,55.2-0.501c18.881-4.379,35.503-8.869,55.516-5.265
		c14.677,2.643,41.187,3.575,45.152,2.492V10.95c-1.895,0.226-9.655,1.319-12.893,1.255c-8.177-0.161-24.281-3.541-32.409-4.45
		c-4.269-0.478-12.824-1.624-17.117-1.483c-9.952,0.326-29.466,4.996-39.37,6.026c-5.741,0.597-17.28,1.282-23.051,1.278
		c-8.03-0.006-24.05-1.374-32.066-1.826c-10.727-0.605-32.17-2.76-42.907-2.396c-4.396,0.149-13.067,1.937-17.46,2.168
		c-3.077,0.162-9.244-0.146-12.324-0.228c-6.602-0.175-26.412-0.335-26.412-0.335L0.036,13.239z"/>
</g>
<g opacity="0.3">
	<path fill="#FFFFFF" d="M253.678,4.679c-5.691-0.057-15.035,1.232-22.746,0.929c-8.096-0.317-16.178-1.336-24.288-2.478
		c-9.623-1.354-17.278-0.994-26.601,1.549c-8.807,2.401-49.335,6.345-58.594,4.837c-20.788-3.384-17.006-6.469-38.444-6.271
		C65.277,3.409,54.306,6.397,36.639,7.229C23.403,7.852,0.036,4.908,0.036,4.908l0.013-3.763c0,0,6.524,1.131,8.701,1.192
		c6.369,0.178,19.076,1.454,25.448,1.424c12.208-0.059,36.52-3.053,48.727-3.195c4.74-0.055,14.237,0.237,18.943,0.799
		c4.909,0.586,14.487,3.284,19.4,3.843c3.914,0.446,11.811,0.605,15.748,0.493c10.392-0.294,31.102-2.409,41.424-3.652
		c3.381-0.407,10.064-1.905,13.466-2.06c3.769-0.171,11.3,0.656,15.063,0.919c5.795,0.405,17.356,1.776,23.165,1.826
		c6.488,0.055,24.297-2.577,25.902-1.598V4.92C256.036,4.92,254.27,4.685,253.678,4.679z"/>
</g>
<g opacity="0.3">
	<path fill="#FFFFFF" d="M256.036,245.627c-3.488-0.507-31.004,0.624-45.843,0.893c-14.839,0-27.521,4.317-41.82,6.206
		c-15.109,2.158-32.933-0.216-47.486-4.587c-12.425-3.731-24.821-1.351-37.801,1.203c-7.269,1.43-24.333,5.108-32.158,4.838
		c-5.666-0.27-15.083-0.996-21.059-2.134c-13.805-2.63-26.835-6.332-29.832-6.416v-1.844c0,0,12.986,1.099,22.433,1.928
		c5.101,0.447,15.652,3.913,28.743,2.914c20.107-1.535,46.207-8.617,70.512-2.966c11.263,2.619,34.428,5.196,45.988,4.931
		c10.697-0.245,31.678-5.344,42.337-6.276c11.457-1.002,42.536-1.466,45.989-0.531L256.036,245.627z"/>
</g>
</svg>
