<?xml version="1.0" encoding="utf-8"?>
<!-- Generator: Adobe Illustrator 17.0.0, SVG Export Plug-In . SVG Version: 6.00 Build 0)  -->
<!DOCTYPE svg PUBLIC "-//W3C//DTD SVG 1.1//EN" "http://www.w3.org/Graphics/SVG/1.1/DTD/svg11.dtd">
<svg version="1.1" id="Layer_1" xmlns="http://www.w3.org/2000/svg" xmlns:xlink="http://www.w3.org/1999/xlink" x="0px" y="0px"
	 width="256px" height="256px" viewBox="0 0 256 256" enable-background="new 0 0 256 256" xml:space="preserve">
<path opacity="0.15" fill="#FFFFFF" d="M1.136,15.545c-5.563,13.67,15.518,23.65,18.227,26.746c1.343,1.535,1.041,3.295,1.022,4.25
	c-0.018,0.875-1.022,3.362-1.022,3.362s19.852-5.366,23.058-17.689c1.492-5.735-0.224-8.372-1.562-10.828
	c-3.063-5.623-15.93-9.922-18.548-15.724c-1.094-2.423,1.384-5.708,1.384-5.708S5.086,5.84,1.136,15.545z"/>
<path opacity="0.15" fill="#FFFFFF" d="M1.139,67.033c-5.563,13.67,15.518,23.65,18.227,26.746c1.343,1.535,1.041,3.295,1.022,4.25
	c-0.018,0.875-1.022,3.362-1.022,3.362s19.852-5.366,23.058-17.689c1.492-5.735-0.224-8.372-1.562-10.828
	c-3.063-5.623-15.93-9.922-18.548-15.724c-1.094-2.423,1.384-5.708,1.384-5.708S5.088,57.328,1.139,67.033z"/>
<path opacity="0.15" fill="#FFFFFF" d="M1.142,118.499c-5.563,13.67,15.518,23.65,18.227,26.746c1.343,1.535,1.041,3.295,1.022,4.25
	c-0.018,0.875-1.022,3.362-1.022,3.362s19.852-5.366,23.058-17.689c1.492-5.735-0.224-8.372-1.562-10.828
	c-3.063-5.623-15.93-9.922-18.548-15.724c-1.094-2.423,1.384-5.708,1.384-5.708S5.091,108.794,1.142,118.499z"/>
<path opacity="0.15" fill="#FFFFFF" d="M1.145,169.988c-5.563,13.67,15.518,23.65,18.227,26.746c1.343,1.535,1.041,3.295,1.022,4.25
	c-0.018,0.875-1.022,3.362-1.022,3.362s19.852-5.366,23.058-17.689c1.492-5.735-0.224-8.372-1.562-10.828
	c-3.063-5.623-15.93-9.922-18.548-15.724c-1.094-2.423,1.384-5.708,1.384-5.708S5.094,160.283,1.145,169.988z"/>
<path opacity="0.15" fill="#FFFFFF" d="M1.148,221.038c-5.563,13.67,15.518,23.65,18.227,26.746c1.343,1.535,1.041,3.295,1.022,4.25
	c-0.018,0.875-1.022,3.362-1.022,3.362s19.852-5.366,23.058-17.689c1.492-5.735-0.224-8.372-1.562-10.828
	c-3.063-5.623-15.93-9.922-18.548-15.724c-1.094-2.423,1.384-5.708,1.384-5.708S5.097,211.333,1.148,221.038z"/>
<path opacity="0.15" fill="#FFFFFF" d="M44.656,0.038c4.292,8.051,15.567,13.76,17.499,15.968c1.343,1.535,1.041,3.295,1.022,4.25
	c-0.018,0.875-1.022,3.362-1.022,3.362s19.852-5.366,23.058-17.689c0.639-2.456,0.69-4.344,0.434-5.892L44.656,0.038z"/>
<path opacity="0.15" fill="#FFFFFF" d="M43.932,40.748c-5.563,13.67,15.518,23.65,18.227,26.746c1.343,1.535,1.041,3.295,1.022,4.25
	c-0.018,0.875-1.022,3.362-1.022,3.362S82.01,69.74,85.216,57.417c1.492-5.735-0.224-8.372-1.562-10.828
	c-3.063-5.623-15.93-9.922-18.548-15.724c-1.094-2.423,1.384-5.708,1.384-5.708S47.881,31.043,43.932,40.748z"/>
<path opacity="0.15" fill="#FFFFFF" d="M43.934,92.215c-5.563,13.67,15.518,23.65,18.227,26.746c1.343,1.535,1.041,3.295,1.022,4.25
	c-0.018,0.875-1.022,3.362-1.022,3.362s19.852-5.366,23.058-17.689c1.492-5.735-0.224-8.372-1.562-10.828
	c-3.063-5.623-15.93-9.922-18.548-15.724c-1.094-2.423,1.384-5.708,1.384-5.708S47.884,82.51,43.934,92.215z"/>
<path opacity="0.15" fill="#FFFFFF" d="M43.937,143.703c-5.563,13.67,15.518,23.65,18.227,26.746
	c1.343,1.535,1.041,3.295,1.022,4.25c-0.018,0.875-1.022,3.362-1.022,3.362s19.852-5.366,23.058-17.689
	c1.492-5.735-0.224-8.372-1.562-10.828c-3.063-5.623-15.93-9.922-18.548-15.724c-1.094-2.423,1.384-5.708,1.384-5.708
	S47.886,133.998,43.937,143.703z"/>
<path opacity="0.15" fill="#FFFFFF" d="M43.94,194.754c-5.563,13.67,15.518,23.65,18.227,26.746c1.343,1.535,1.041,3.295,1.022,4.25
	c-0.018,0.875-1.022,3.362-1.022,3.362s19.852-5.366,23.058-17.689c1.492-5.735-0.224-8.372-1.562-10.828
	c-3.063-5.623-15.93-9.922-18.548-15.724c-1.094-2.423,1.384-5.708,1.384-5.708S47.889,185.049,43.94,194.754z"/>
<path opacity="0.15" fill="#FFFFFF" d="M86.538,15.545c-5.563,13.67,15.518,23.65,18.227,26.746c1.343,1.535,1.041,3.295,1.022,4.25
	c-0.018,0.875-1.022,3.362-1.022,3.362s19.852-5.366,23.058-17.689c1.492-5.735-0.224-8.372-1.562-10.828
	c-3.063-5.623-15.93-9.922-18.548-15.724c-1.094-2.423,1.384-5.708,1.384-5.708S90.487,5.84,86.538,15.545z"/>
<path opacity="0.15" fill="#FFFFFF" d="M86.541,67.033c-5.563,13.67,15.518,23.65,18.227,26.746c1.343,1.535,1.041,3.295,1.022,4.25
	c-0.018,0.875-1.022,3.362-1.022,3.362s19.852-5.366,23.058-17.689c1.492-5.735-0.224-8.372-1.562-10.828
	c-3.063-5.623-15.93-9.922-18.548-15.724c-1.094-2.423,1.384-5.708,1.384-5.708S90.49,57.328,86.541,67.033z"/>
<path opacity="0.15" fill="#FFFFFF" d="M86.544,118.499c-5.563,13.67,15.518,23.65,18.227,26.746
	c1.343,1.535,1.041,3.295,1.022,4.25c-0.018,0.875-1.022,3.362-1.022,3.362s19.852-5.366,23.058-17.689
	c1.492-5.735-0.224-8.372-1.562-10.828c-3.063-5.623-15.93-9.922-18.548-15.724c-1.094-2.423,1.384-5.708,1.384-5.708
	S90.493,108.794,86.544,118.499z"/>
<path opacity="0.15" fill="#FFFFFF" d="M86.547,169.988c-5.563,13.67,15.518,23.65,18.227,26.746
	c1.343,1.535,1.041,3.295,1.022,4.25c-0.018,0.875-1.022,3.362-1.022,3.362s19.852-5.366,23.058-17.689
	c1.492-5.735-0.224-8.372-1.562-10.828c-3.063-5.623-15.93-9.922-18.548-15.724c-1.094-2.423,1.384-5.708,1.384-5.708
	S90.496,160.283,86.547,169.988z"/>
<path opacity="0.15" fill="#FFFFFF" d="M86.549,221.038c-5.563,13.67,15.518,23.65,18.227,26.746
	c1.343,1.535,1.041,3.295,1.022,4.25c-0.018,0.875-1.022,3.362-1.022,3.362s19.852-5.366,23.058-17.689
	c1.492-5.735-0.224-8.372-1.562-10.828c-3.063-5.623-15.93-9.922-18.548-15.724c-1.094-2.423,1.384-5.708,1.384-5.708
	S90.499,211.333,86.549,221.038z"/>
<path opacity="0.15" fill="#FFFFFF" d="M130.058,0.038c4.292,8.051,15.567,13.76,17.499,15.968c1.343,1.535,1.041,3.295,1.022,4.25
	c-0.018,0.875-1.022,3.362-1.022,3.362s19.852-5.366,23.058-17.689c0.638-2.453,0.689-4.339,0.434-5.887L130.058,0.038z"/>
<path opacity="0.15" fill="#FFFFFF" d="M129.333,40.748c-5.563,13.67,15.518,23.65,18.227,26.746
	c1.343,1.535,1.041,3.295,1.022,4.25c-0.018,0.875-1.022,3.362-1.022,3.362s19.852-5.366,23.058-17.689
	c1.492-5.735-0.224-8.372-1.562-10.828c-3.063-5.623-15.93-9.922-18.548-15.724c-1.094-2.423,1.384-5.708,1.384-5.708
	S133.283,31.043,129.333,40.748z"/>
<path opacity="0.15" fill="#FFFFFF" d="M129.336,92.215c-5.563,13.67,15.518,23.65,18.227,26.746
	c1.343,1.535,1.041,3.295,1.022,4.25c-0.018,0.875-1.022,3.362-1.022,3.362s19.852-5.366,23.058-17.689
	c1.492-5.735-0.224-8.372-1.562-10.828c-3.063-5.623-15.93-9.922-18.548-15.724c-1.094-2.423,1.384-5.708,1.384-5.708
	S133.285,82.51,129.336,92.215z"/>
<path opacity="0.15" fill="#FFFFFF" d="M129.339,143.703c-5.563,13.67,15.518,23.65,18.227,26.746
	c1.343,1.535,1.041,3.295,1.022,4.25c-0.018,0.875-1.022,3.362-1.022,3.362s19.852-5.366,23.058-17.689
	c1.492-5.735-0.224-8.372-1.562-10.828c-3.063-5.623-15.93-9.922-18.548-15.724c-1.094-2.423,1.384-5.708,1.384-5.708
	S133.288,133.998,129.339,143.703z"/>
<path opacity="0.15" fill="#FFFFFF" d="M129.342,194.754c-5.563,13.67,15.518,23.65,18.227,26.746
	c1.343,1.535,1.041,3.295,1.022,4.25c-0.018,0.875-1.022,3.362-1.022,3.362s19.852-5.366,23.058-17.689
	c1.492-5.735-0.224-8.372-1.562-10.828c-3.063-5.623-15.93-9.922-18.548-15.724c-1.094-2.423,1.384-5.708,1.384-5.708
	S133.291,185.049,129.342,194.754z"/>
<path opacity="0.15" fill="#FFFFFF" d="M171.129,16.189c-5.563,13.67,15.518,23.65,18.227,26.746
	c1.343,1.535,1.041,3.295,1.022,4.25c-0.018,0.875-1.022,3.362-1.022,3.362s19.852-5.366,23.058-17.689
	c1.492-5.735-0.224-8.372-1.562-10.828c-3.063-5.623-15.93-9.922-18.548-15.724c-1.094-2.423,1.384-5.708,1.384-5.708
	S175.078,6.484,171.129,16.189z"/>
<path opacity="0.15" fill="#FFFFFF" d="M171.131,67.677c-5.563,13.67,15.518,23.65,18.227,26.746
	c1.343,1.535,1.041,3.295,1.022,4.25c-0.018,0.875-1.022,3.362-1.022,3.362s19.852-5.366,23.058-17.689
	c1.492-5.735-0.224-8.372-1.562-10.828c-3.063-5.623-15.93-9.922-18.548-15.724c-1.094-2.423,1.384-5.708,1.384-5.708
	S175.081,57.972,171.131,67.677z"/>
<path opacity="0.15" fill="#FFFFFF" d="M171.134,119.143c-5.563,13.67,15.518,23.65,18.227,26.746
	c1.343,1.535,1.041,3.295,1.022,4.25c-0.018,0.875-1.022,3.362-1.022,3.362s19.852-5.366,23.058-17.689
	c1.492-5.735-0.224-8.372-1.562-10.828c-3.063-5.623-15.93-9.922-18.548-15.724c-1.094-2.423,1.384-5.708,1.384-5.708
	S175.083,109.438,171.134,119.143z"/>
<path opacity="0.15" fill="#FFFFFF" d="M171.137,170.632c-5.563,13.67,15.518,23.65,18.227,26.746
	c1.343,1.535,1.041,3.295,1.022,4.25c-0.018,0.875-1.022,3.362-1.022,3.362s19.852-5.366,23.058-17.689
	c1.492-5.735-0.224-8.372-1.562-10.828c-3.063-5.623-15.93-9.922-18.548-15.724c-1.094-2.423,1.384-5.708,1.384-5.708
	S175.086,160.927,171.137,170.632z"/>
<path opacity="0.15" fill="#FFFFFF" d="M171.14,221.682c-5.563,13.67,15.518,23.65,18.227,26.746
	c1.343,1.535,1.041,3.295,1.022,4.25c-0.018,0.875-1.022,3.362-1.022,3.362s19.852-5.366,23.058-17.689
	c1.492-5.735-0.224-8.372-1.562-10.828c-3.063-5.623-15.93-9.922-18.548-15.724c-1.094-2.423,1.384-5.708,1.384-5.708
	S175.089,211.977,171.14,221.682z"/>
<path opacity="0.15" fill="#FFFFFF" d="M214.324,0.041c4.016,8.389,15.841,14.343,17.823,16.609c1.343,1.535,1.041,3.295,1.022,4.25
	c-0.018,0.875-1.022,3.362-1.022,3.362s19.852-5.366,23.058-17.689c0.73-2.806,0.692-4.87,0.306-6.535L214.324,0.041z"/>
<path opacity="0.15" fill="#FFFFFF" d="M213.924,41.392c-5.563,13.67,15.518,23.65,18.227,26.746
	c1.343,1.535,1.041,3.295,1.022,4.25c-0.018,0.875-1.022,3.362-1.022,3.362s19.852-5.366,23.058-17.689
	c1.492-5.735-0.224-8.372-1.562-10.828c-3.063-5.623-15.93-9.922-18.548-15.724c-1.094-2.423,1.384-5.708,1.384-5.708
	S217.873,31.687,213.924,41.392z"/>
<path opacity="0.15" fill="#FFFFFF" d="M213.927,92.859c-5.563,13.67,15.518,23.65,18.227,26.746
	c1.343,1.535,1.041,3.295,1.022,4.25c-0.018,0.875-1.022,3.362-1.022,3.362s19.852-5.366,23.058-17.689
	c1.492-5.735-0.224-8.372-1.562-10.828c-3.063-5.623-15.93-9.922-18.548-15.724c-1.094-2.423,1.384-5.708,1.384-5.708
	S217.876,83.154,213.927,92.859z"/>
<path opacity="0.15" fill="#FFFFFF" d="M213.93,144.347c-5.563,13.67,15.518,23.65,18.227,26.746
	c1.343,1.535,1.041,3.295,1.022,4.25c-0.018,0.875-1.022,3.362-1.022,3.362s19.852-5.366,23.058-17.689
	c1.492-5.735-0.224-8.372-1.562-10.828c-3.063-5.623-15.93-9.922-18.548-15.724c-1.094-2.423,1.384-5.708,1.384-5.708
	S217.879,134.642,213.93,144.347z"/>
<path opacity="0.15" fill="#FFFFFF" d="M213.932,195.398c-5.563,13.67,15.518,23.65,18.227,26.746
	c1.343,1.535,1.041,3.295,1.022,4.25c-0.018,0.875-1.022,3.362-1.022,3.362s19.852-5.366,23.058-17.689
	c1.492-5.735-0.224-8.372-1.562-10.828c-3.063-5.623-15.93-9.922-18.548-15.724c-1.094-2.423,1.384-5.708,1.384-5.708
	S217.882,185.693,213.932,195.398z"/>
<path opacity="0.15" fill="#FFFFFF" d="M43.942,245.285c-1.592,3.913-1.002,7.524,0.717,10.757l40.998,0.003
	c-0.344-2.06-1.23-3.519-1.993-4.919c-3.063-5.623-15.93-9.922-18.548-15.724c-1.094-2.423,1.384-5.708,1.384-5.708
	S47.891,235.58,43.942,245.285z"/>
<path opacity="0.15" fill="#FFFFFF" d="M129.344,245.285c-1.592,3.913-1.002,7.524,0.717,10.757l40.998,0.003
	c-0.344-2.06-1.23-3.519-1.993-4.919c-3.063-5.623-15.93-9.922-18.548-15.724c-1.094-2.423,1.384-5.708,1.384-5.708
	S133.293,235.58,129.344,245.285z"/>
<path opacity="0.15" fill="#FFFFFF" d="M213.934,245.929c-1.487,3.654-1.07,7.045,0.391,10.111l41.192-0.007
	c-0.405-1.723-1.182-3.016-1.861-4.263c-3.063-5.623-15.93-9.922-18.548-15.724c-1.094-2.423,1.384-5.708,1.384-5.708
	S217.883,236.224,213.934,245.929z"/>
</svg>
