<?xml version="1.0" encoding="utf-8"?>
<!-- Generator: Adobe Illustrator 17.0.0, SVG Export Plug-In . SVG Version: 6.00 Build 0)  -->
<!DOCTYPE svg PUBLIC "-//W3C//DTD SVG 1.1//EN" "http://www.w3.org/Graphics/SVG/1.1/DTD/svg11.dtd">
<svg version="1.1" id="Layer_1" xmlns="http://www.w3.org/2000/svg" xmlns:xlink="http://www.w3.org/1999/xlink" x="0px" y="0px"
	 width="256.307px" height="256.299px" viewBox="0 0 256.307 256.299" enable-background="new 0 0 256.307 256.299"
	 xml:space="preserve">
<rect x="5.981" y="5.315" opacity="0.15" fill="#FFFFFF" width="13.19" height="13.19"/>
<rect x="31.817" y="30.851" opacity="0.15" fill="#FFFFFF" width="13.19" height="13.19"/>
<rect x="57.125" y="56.489" opacity="0.15" fill="#FFFFFF" width="13.19" height="13.19"/>
<rect x="83.175" y="82.539" opacity="0.15" fill="#FFFFFF" width="13.19" height="13.19"/>
<rect x="108.73" y="108.424" opacity="0.15" fill="#FFFFFF" width="13.19" height="13.19"/>
<rect x="134.533" y="133.897" opacity="0.15" fill="#FFFFFF" width="13.19" height="13.19"/>
<rect x="160.171" y="160.111" opacity="0.15" fill="#FFFFFF" width="13.19" height="13.19"/>
<rect x="185.973" y="186.079" opacity="0.15" fill="#FFFFFF" width="13.19" height="13.19"/>
<rect x="211.611" y="211.799" opacity="0.15" fill="#FFFFFF" width="13.19" height="13.19"/>
<rect x="238.073" y="237.684" opacity="0.15" fill="#FFFFFF" width="13.19" height="13.19"/>
<rect x="31.825" y="4.944" transform="matrix(0.9848 0.1736 -0.1736 0.9848 2.586 -6.4933)" opacity="0.15" fill="#FFFFFF" width="13.19" height="13.19"/>
<rect x="31.949" y="56.385" transform="matrix(0.9848 0.1736 -0.1736 0.9848 11.5162 -5.734)" opacity="0.15" fill="#FFFFFF" width="13.19" height="13.19"/>
<rect x="83.265" y="56.756" transform="matrix(0.9848 0.1736 -0.1736 0.9848 12.3595 -14.6353)" opacity="0.15" fill="#FFFFFF" width="13.19" height="13.19"/>
<rect x="57.793" y="5.027" transform="matrix(0.9493 0.3142 -0.3142 0.9493 6.9135 -19.6441)" opacity="0.15" fill="#FFFFFF" width="13.19" height="13.19"/>
<rect x="83.183" y="30.665" transform="matrix(0.9493 0.3142 -0.3142 0.9493 16.2559 -26.324)" opacity="0.15" fill="#FFFFFF" width="13.19" height="13.19"/>
<rect x="83.018" y="4.944" transform="matrix(0.8685 0.4957 -0.4957 0.8685 17.5066 -42.9062)" opacity="0.15" fill="#FFFFFF" width="13.19" height="13.19"/>
<rect x="109.15" y="56.55" transform="matrix(0.9493 0.3142 -0.3142 0.9493 25.7053 -33.1726)" opacity="0.15" fill="#FFFFFF" width="13.19" height="13.19"/>
<rect x="108.986" y="30.665" transform="matrix(0.858 0.5137 -0.5137 0.858 35.5562 -54.0818)" opacity="0.15" fill="#FFFFFF" width="13.19" height="13.19"/>
<rect x="108.986" y="4.944" transform="matrix(0.7852 0.6192 -0.6192 0.7852 31.9725 -69.0938)" opacity="0.15" fill="#FFFFFF" width="13.19" height="13.19"/>
<rect x="134.706" y="5.027" transform="matrix(0.6255 0.7803 -0.7803 0.6255 61.9919 -105.8986)" opacity="0.15" fill="#FFFFFF" width="13.19" height="13.19"/>
<rect x="160.343" y="5.192" transform="matrix(0.5041 0.8637 -0.8637 0.5041 92.9659 -138.3313)" opacity="0.15" fill="#FFFFFF" width="13.19" height="13.19"/>
<rect x="185.816" y="5.109" transform="matrix(0.2533 0.9674 -0.9674 0.2533 155.0053 -177.3985)" opacity="0.15" fill="#FFFFFF" width="13.19" height="13.19"/>
<rect x="211.866" y="4.944" transform="matrix(0.1729 0.9849 -0.9849 0.1729 192.0617 -205.6275)" opacity="0.15" fill="#FFFFFF" width="13.19" height="13.19"/>
<rect x="108.491" y="82.229" transform="matrix(0.9848 0.1736 -0.1736 0.9848 17.1636 -18.6269)" opacity="0.15" fill="#FFFFFF" width="13.19" height="13.19"/>
<rect x="134.376" y="82.27" transform="matrix(0.9493 0.3142 -0.3142 0.9493 35.0652 -39.7965)" opacity="0.15" fill="#FFFFFF" width="13.19" height="13.19"/>
<rect x="134.458" y="30.912" transform="matrix(0.7852 0.6192 -0.6192 0.7852 53.5243 -79.2899)" opacity="0.15" fill="#FFFFFF" width="13.19" height="13.19"/>
<rect x="186.064" y="30.912" transform="matrix(0.5041 0.8637 -0.8637 0.5041 127.934 -147.7897)" opacity="0.15" fill="#FFFFFF" width="13.19" height="13.19"/>
<rect x="212.031" y="56.879" transform="matrix(0.5041 0.8637 -0.8637 0.5041 163.2384 -157.339)" opacity="0.15" fill="#FFFFFF" width="13.19" height="13.19"/>
<rect x="237.751" y="82.6" transform="matrix(0.5041 0.8637 -0.8637 0.5041 198.2065 -166.7973)" opacity="0.15" fill="#FFFFFF" width="13.19" height="13.19"/>
<rect x="57.422" y="31.159" transform="matrix(0.9848 0.1736 -0.1736 0.9848 7.5245 -10.5381)" opacity="0.15" fill="#FFFFFF" width="13.19" height="13.19"/>
<rect x="5.734" y="30.665" transform="matrix(0.9848 0.1736 -0.1736 0.9848 6.6542 -1.5744)" opacity="0.15" fill="#FFFFFF" width="13.19" height="13.19"/>
<rect x="57.422" y="82.352" transform="matrix(0.9848 0.1736 -0.1736 0.9848 16.4099 -9.7611)" opacity="0.15" fill="#FFFFFF" width="13.19" height="13.19"/>
<rect x="31.825" y="82.435" transform="matrix(0.9493 0.3142 -0.3142 0.9493 29.9223 -7.5631)" opacity="0.15" fill="#FFFFFF" width="13.19" height="13.19"/>
<rect x="32.072" y="108.32" transform="matrix(0.8685 0.4957 -0.4957 0.8685 62.0523 -4.0546)" opacity="0.15" fill="#FFFFFF" width="13.19" height="13.19"/>
<rect x="82.647" y="108.814" transform="matrix(0.9848 0.1736 -0.1736 0.9848 21.3857 -13.7378)" opacity="0.15" fill="#FFFFFF" width="13.19" height="13.19"/>
<rect x="6.105" y="82.352" transform="matrix(0.8685 0.4957 -0.4957 0.8685 45.7641 5.4029)" opacity="0.15" fill="#FFFFFF" width="13.19" height="13.19"/>
<rect x="108.615" y="134.287" transform="matrix(0.9848 0.1736 -0.1736 0.9848 26.2011 -17.8583)" opacity="0.15" fill="#FFFFFF" width="13.19" height="13.19"/>
<rect x="134.335" y="160.502" transform="matrix(0.9848 0.1736 -0.1736 0.9848 31.1415 -21.9246)" opacity="0.15" fill="#FFFFFF" width="13.19" height="13.19"/>
<rect x="160.302" y="185.975" transform="matrix(0.9848 0.1736 -0.1736 0.9848 35.9569 -26.045)" opacity="0.15" fill="#FFFFFF" width="13.19" height="13.19"/>
<rect x="57.545" y="108.402" transform="matrix(0.9493 0.3142 -0.3142 0.9493 39.3851 -14.3299)" opacity="0.15" fill="#FFFFFF" width="13.19" height="13.19"/>
<rect x="83.265" y="134.122" transform="matrix(0.9493 0.3142 -0.3142 0.9493 48.7701 -21.1092)" opacity="0.15" fill="#FFFFFF" width="13.19" height="13.19"/>
<rect x="108.986" y="160.09" transform="matrix(0.9493 0.3142 -0.3142 0.9493 58.2328 -27.876)" opacity="0.15" fill="#FFFFFF" width="13.19" height="13.19"/>
<rect x="134.706" y="185.81" transform="matrix(0.9493 0.3142 -0.3142 0.9493 67.6178 -34.6554)" opacity="0.15" fill="#FFFFFF" width="13.19" height="13.19"/>
<rect x="160.426" y="211.777" transform="matrix(0.9493 0.3142 -0.3142 0.9493 77.0805 -41.4221)" opacity="0.15" fill="#FFFFFF" width="13.19" height="13.19"/>
<rect x="185.651" y="237.25" transform="matrix(0.9493 0.3142 -0.3142 0.9493 86.3628 -48.0586)" opacity="0.15" fill="#FFFFFF" width="13.19" height="13.19"/>
<rect x="6.023" y="56.385" transform="matrix(0.9493 0.3142 -0.3142 0.9493 20.4295 -0.7746)" opacity="0.15" fill="#FFFFFF" width="13.19" height="13.19"/>
<rect x="160.179" y="30.994" transform="matrix(0.6255 0.7803 -0.7803 0.6255 91.7941 -116.048)" opacity="0.15" fill="#FFFFFF" width="13.19" height="13.19"/>
<rect x="186.393" y="56.467" transform="matrix(0.6255 0.7803 -0.7803 0.6255 121.4883 -126.9617)" opacity="0.15" fill="#FFFFFF" width="13.19" height="13.19"/>
<rect x="211.866" y="82.435" transform="matrix(0.6255 0.7803 -0.7803 0.6255 151.2905 -137.1111)" opacity="0.15" fill="#FFFFFF" width="13.19" height="13.19"/>
<rect x="237.586" y="108.155" transform="matrix(0.6255 0.7803 -0.7803 0.6255 180.9924 -147.5462)" opacity="0.15" fill="#FFFFFF" width="13.19" height="13.19"/>
<rect x="237.419" y="30.955" transform="matrix(0.132 0.9913 -0.9913 0.132 249.03 -209.2853)" opacity="0.15" fill="#FFFFFF" width="13.19" height="13.19"/>
<rect x="211.699" y="30.79" transform="matrix(0.3917 0.9201 -0.9201 0.3917 167.1766 -178.107)" opacity="0.15" fill="#FFFFFF" width="13.19" height="13.19"/>
<rect x="237.584" y="56.428" transform="matrix(0.3276 0.9448 -0.9448 0.3276 223.7284 -188.3275)" opacity="0.15" fill="#FFFFFF" width="13.19" height="13.19"/>
<rect x="160.468" y="56.961" transform="matrix(0.7852 0.6192 -0.6192 0.7852 75.242 -89.801)" opacity="0.15" fill="#FFFFFF" width="13.19" height="13.19"/>
<rect x="185.941" y="82.928" transform="matrix(0.7852 0.6192 -0.6192 0.7852 96.7937 -99.9971)" opacity="0.15" fill="#FFFFFF" width="13.19" height="13.19"/>
<rect x="212.196" y="108.32" transform="matrix(0.7852 0.6192 -0.6192 0.7852 118.1567 -110.801)" opacity="0.15" fill="#FFFFFF" width="13.19" height="13.19"/>
<rect x="237.669" y="134.287" transform="matrix(0.7852 0.6192 -0.6192 0.7852 139.7085 -120.9971)" opacity="0.15" fill="#FFFFFF" width="13.19" height="13.19"/>
<rect x="134.706" y="56.632" transform="matrix(0.8685 0.4957 -0.4957 0.8685 49.9279 -61.7311)" opacity="0.15" fill="#FFFFFF" width="13.19" height="13.19"/>
<rect x="160.673" y="82.352" transform="matrix(0.858 0.5137 -0.5137 0.858 69.4494 -73.2925)" opacity="0.15" fill="#FFFFFF" width="13.19" height="13.19"/>
<rect x="186.146" y="108.32" transform="matrix(0.8685 0.4957 -0.4957 0.8685 82.3166 -80.4335)" opacity="0.15" fill="#FFFFFF" width="13.19" height="13.19"/>
<rect x="212.113" y="134.04" transform="matrix(0.858 0.5137 -0.5137 0.858 103.3075 -92.3762)" opacity="0.15" fill="#FFFFFF" width="13.19" height="13.19"/>
<rect x="237.834" y="160.007" transform="matrix(0.8685 0.4957 -0.4957 0.8685 114.7378 -99.2585)" opacity="0.15" fill="#FFFFFF" width="13.19" height="13.19"/>
<rect x="159.931" y="108.649" transform="matrix(0.9493 0.3142 -0.3142 0.9493 44.6491 -46.4906)" opacity="0.15" fill="#FFFFFF" width="13.19" height="13.19"/>
<rect x="185.322" y="134.287" transform="matrix(0.9493 0.3142 -0.3142 0.9493 53.9915 -53.1705)" opacity="0.15" fill="#FFFFFF" width="13.19" height="13.19"/>
<rect x="211.289" y="160.172" transform="matrix(0.9493 0.3142 -0.3142 0.9493 63.4409 -60.0192)" opacity="0.15" fill="#FFFFFF" width="13.19" height="13.19"/>
<rect x="236.515" y="185.892" transform="matrix(0.9493 0.3142 -0.3142 0.9493 72.8008 -66.6431)" opacity="0.15" fill="#FFFFFF" width="13.19" height="13.19"/>
<rect x="134.458" y="108.567" transform="matrix(0.9848 0.1736 -0.1736 0.9848 22.1292 -22.7343)" opacity="0.15" fill="#FFFFFF" width="13.19" height="13.19"/>
<rect x="185.899" y="160.378" transform="matrix(0.9848 0.1736 -0.1736 0.9848 31.9027 -30.8762)" opacity="0.15" fill="#FFFFFF" width="13.19" height="13.19"/>
<rect x="211.124" y="185.851" transform="matrix(0.9848 0.1736 -0.1736 0.9848 36.7068 -34.8679)" opacity="0.15" fill="#FFFFFF" width="13.19" height="13.19"/>
<rect x="160.055" y="134.782" transform="matrix(0.9848 0.1736 -0.1736 0.9848 27.0677 -26.7791)" opacity="0.15" fill="#FFFFFF" width="13.19" height="13.19"/>
<rect x="237.834" y="211.571" transform="matrix(0.9848 0.1736 -0.1736 0.9848 41.5764 -39.1134)" opacity="0.15" fill="#FFFFFF" width="13.19" height="13.19"/>
<rect x="186.022" y="211.942" transform="matrix(0.9848 0.1736 -0.1736 0.9848 40.8544 -30.1151)" opacity="0.15" fill="#FFFFFF" width="13.19" height="13.19"/>
<rect x="211.99" y="237.415" transform="matrix(0.9848 0.1736 -0.1736 0.9848 45.6698 -34.2355)" opacity="0.15" fill="#FFFFFF" width="13.19" height="13.19"/>
<rect x="82.899" y="160.131" transform="matrix(0.8685 0.4957 -0.4957 0.8685 94.4218 -22.4366)" opacity="0.15" fill="#FFFFFF" width="13.19" height="13.19"/>
<rect x="56.932" y="134.164" transform="matrix(0.8685 0.4957 -0.4957 0.8685 78.1336 -12.9791)" opacity="0.15" fill="#FFFFFF" width="13.19" height="13.19"/>
<rect x="134.709" y="211.941" transform="matrix(0.8685 0.4957 -0.4957 0.8685 126.9195 -41.3059)" opacity="0.15" fill="#FFFFFF" width="13.19" height="13.19"/>
<rect x="108.741" y="185.973" transform="matrix(0.8685 0.4957 -0.4957 0.8685 110.6313 -31.8484)" opacity="0.15" fill="#FFFFFF" width="13.19" height="13.19"/>
<rect x="159.934" y="237.166" transform="matrix(0.8685 0.4957 -0.4957 0.8685 142.742 -50.4929)" opacity="0.15" fill="#FFFFFF" width="13.19" height="13.19"/>
<rect x="5.981" y="108.072" transform="matrix(0.7852 0.6192 -0.6192 0.7852 73.7084 16.8429)" opacity="0.15" fill="#FFFFFF" width="13.19" height="13.19"/>
<rect x="31.454" y="134.04" transform="matrix(0.7852 0.6192 -0.6192 0.7852 95.2602 6.6469)" opacity="0.15" fill="#FFFFFF" width="13.19" height="13.19"/>
<rect x="57.464" y="160.089" transform="matrix(0.7852 0.6192 -0.6192 0.7852 116.9778 -3.8643)" opacity="0.15" fill="#FFFFFF" width="13.19" height="13.19"/>
<rect x="82.937" y="186.056" transform="matrix(0.7852 0.6192 -0.6192 0.7852 138.5296 -14.0603)" opacity="0.15" fill="#FFFFFF" width="13.19" height="13.19"/>
<rect x="109.192" y="211.448" transform="matrix(0.7852 0.6192 -0.6192 0.7852 159.8926 -24.8643)" opacity="0.15" fill="#FFFFFF" width="13.19" height="13.19"/>
<rect x="134.664" y="237.415" transform="matrix(0.7852 0.6192 -0.6192 0.7852 181.4444 -35.0604)" opacity="0.15" fill="#FFFFFF" width="13.19" height="13.19"/>
<rect x="6.146" y="159.966" transform="matrix(0.5041 0.8637 -0.8637 0.5041 150.169 71.5954)" opacity="0.15" fill="#FFFFFF" width="13.19" height="13.19"/>
<rect x="31.866" y="185.686" transform="matrix(0.5041 0.8637 -0.8637 0.5041 185.1371 62.137)" opacity="0.15" fill="#FFFFFF" width="13.19" height="13.19"/>
<rect x="57.834" y="211.654" transform="matrix(0.5041 0.8637 -0.8637 0.5041 220.4414 52.5877)" opacity="0.15" fill="#FFFFFF" width="13.19" height="13.19"/>
<rect x="83.554" y="237.374" transform="matrix(0.5041 0.8637 -0.8637 0.5041 255.4095 43.1293)" opacity="0.15" fill="#FFFFFF" width="13.19" height="13.19"/>
<rect x="5.858" y="134.864" transform="matrix(0.6255 0.7803 -0.7803 0.6255 115.0393 43.2669)" opacity="0.15" fill="#FFFFFF" width="13.19" height="13.19"/>
<rect x="31.33" y="160.832" transform="matrix(0.6255 0.7803 -0.7803 0.6255 144.8415 33.1175)" opacity="0.15" fill="#FFFFFF" width="13.19" height="13.19"/>
<rect x="57.545" y="186.304" transform="matrix(0.6255 0.7803 -0.7803 0.6255 174.5357 22.2039)" opacity="0.15" fill="#FFFFFF" width="13.19" height="13.19"/>
<rect x="83.018" y="212.272" transform="matrix(0.6255 0.7803 -0.7803 0.6255 204.3379 12.0544)" opacity="0.15" fill="#FFFFFF" width="13.19" height="13.19"/>
<rect x="108.738" y="237.992" transform="matrix(0.6255 0.7803 -0.7803 0.6255 234.0398 1.6194)" opacity="0.15" fill="#FFFFFF" width="13.19" height="13.19"/>
<rect x="5.852" y="186.366" transform="matrix(0.3368 0.9416 -0.9416 0.3368 189.9378 116.2427)" opacity="0.15" fill="#FFFFFF" width="13.19" height="13.19"/>
<rect x="31.85" y="211.922" transform="matrix(0.3368 0.9416 -0.9416 0.3368 231.2408 108.7114)" opacity="0.15" fill="#FFFFFF" width="13.19" height="13.19"/>
<rect x="57.551" y="237.931" transform="matrix(0.3368 0.9416 -0.9416 0.3368 272.7739 101.7603)" opacity="0.15" fill="#FFFFFF" width="13.19" height="13.19"/>
<rect x="6.6" y="212.19" transform="matrix(0.1729 0.9849 -0.9849 0.1729 226.4042 167.9677)" opacity="0.15" fill="#FFFFFF" width="13.19" height="13.19"/>
<rect x="32.153" y="238.2" transform="matrix(0.132 0.9913 -0.9913 0.132 276.2873 174.0778)" opacity="0.15" fill="#FFFFFF" width="13.19" height="13.19"/>
<rect x="5.981" y="237.786" opacity="0.15" fill="#FFFFFF" width="13.19" height="13.19"/>
<rect x="237.627" y="5.151" opacity="0.15" fill="#FFFFFF" width="13.19" height="13.19"/>
</svg>
