<?xml version="1.0" encoding="utf-8"?>
<!-- Generator: Adobe Illustrator 17.0.0, SVG Export Plug-In . SVG Version: 6.00 Build 0)  -->
<!DOCTYPE svg PUBLIC "-//W3C//DTD SVG 1.1//EN" "http://www.w3.org/Graphics/SVG/1.1/DTD/svg11.dtd">
<svg version="1.1" id="Layer_1" xmlns="http://www.w3.org/2000/svg" xmlns:xlink="http://www.w3.org/1999/xlink" x="0px" y="0px"
	 width="256px" height="256px" viewBox="0 0 256 256" enable-background="new 0 0 256 256" xml:space="preserve">
<path opacity="0.5" fill="#FDFDFE" d="M68.74,6.322c0.164-0.799,1.755-2.12,2.435-2.569c2.323-1.532,8.619-1.196,11.132,0
	c2.989,1.423,7.256,6.32,8.67,9.313c1.261,2.667,0.026,10.363,2.034,12.524c2.422,2.606,10.941,1.609,13.702,3.854
	c1.17,0.951,2.425,3.887,2.783,5.352c0.648,2.652-1.764,8.836,0,10.918c1.052,1.242,3.347,1.799,4.973,1.873
	c1.766,0.08,3.565-1.257,4.019-0.803c0.568,0.568,0.505,2.587,0,3.211c-0.646,0.798-2.992,0.892-4.019,0.856
	c-2.128-0.075-6.438-1.192-7.756-2.863c-3.292-4.175-0.273-9.689-1.26-12.481c-0.297-0.84-0.777-1.971-1.469-2.532
	c-2.802-2.274-11.981-1.709-14.397-4.389c-2.226-2.468-1.531-10.827-2.944-13.835c-1.061-2.258-4.095-5.91-6.262-7.145
	c-1.68-0.957-5.876-1.264-7.707-0.642c-0.706,0.24-2.047,1.19-2.783,1.07C68.737,7.847,68.675,6.637,68.74,6.322z"/>
<path opacity="0.5" fill="#FDFDFE" d="M131.647,17.349c0.164-0.799,1.755-2.12,2.435-2.569c2.323-1.532,8.62-1.196,11.132,0
	c2.989,1.423,7.256,6.32,8.67,9.313c1.261,2.667,0.026,10.363,2.034,12.524c2.422,2.606,10.941,1.609,13.702,3.854
	c1.17,0.951,2.425,3.887,2.783,5.352c0.648,2.652-1.764,8.836,0,10.918c1.052,1.242,3.347,1.799,4.973,1.873
	c1.766,0.08,3.565-1.257,4.019-0.803c0.568,0.568,0.505,2.587,0,3.211c-0.646,0.798-2.992,0.892-4.019,0.856
	c-2.128-0.075-6.438-1.192-7.756-2.863c-3.292-4.175-0.273-9.689-1.26-12.481c-0.297-0.84-0.777-1.971-1.469-2.532
	c-2.802-2.274-11.981-1.709-14.397-4.389c-2.226-2.468-1.531-10.827-2.944-13.835c-1.061-2.258-4.095-5.91-6.262-7.145
	c-1.68-0.957-5.876-1.264-7.707-0.642c-0.706,0.24-2.047,1.19-2.783,1.07C131.644,18.875,131.583,17.664,131.647,17.349z"/>
<path opacity="0.5" fill="#FDFDFE" d="M197.004,7.207c0.164-0.799,1.755-2.12,2.435-2.569c2.323-1.532,8.62-1.196,11.132,0
	c2.989,1.423,7.256,6.32,8.67,9.313c1.261,2.667,0.026,10.363,2.034,12.524c2.422,2.606,10.941,1.609,13.702,3.854
	c1.17,0.951,2.425,3.887,2.783,5.352c0.648,2.652-1.764,8.836,0,10.918c1.052,1.242,3.347,1.799,4.973,1.873
	c1.766,0.08,3.565-1.257,4.019-0.803c0.568,0.568,0.505,2.587,0,3.211c-0.646,0.798-2.992,0.892-4.019,0.856
	c-2.128-0.075-6.438-1.192-7.756-2.863c-3.292-4.175-0.273-9.689-1.26-12.481c-0.297-0.84-0.777-1.971-1.469-2.532
	c-2.802-2.274-11.981-1.709-14.397-4.389c-2.226-2.468-1.531-10.827-2.944-13.835c-1.061-2.258-4.094-5.91-6.262-7.145
	c-1.68-0.957-5.876-1.264-7.707-0.642c-0.706,0.24-2.047,1.19-2.783,1.07C197.001,8.732,196.939,7.522,197.004,7.207z"/>
<path opacity="0.5" fill="#FDFDFE" d="M4.054,17.486c0.164-0.799,1.755-2.12,2.435-2.569c2.323-1.532,8.619-1.196,11.132,0
	c2.989,1.423,7.256,6.32,8.67,9.313c1.261,2.667,0.026,10.363,2.034,12.524c2.422,2.606,10.941,1.609,13.702,3.854
	c1.17,0.951,2.425,3.887,2.783,5.352c0.648,2.652-1.764,8.836,0,10.918c1.052,1.242,3.347,1.799,4.973,1.873
	c1.766,0.08,3.565-1.257,4.019-0.803c0.568,0.568,0.505,2.587,0,3.211c-0.646,0.798-2.992,0.892-4.019,0.856
	c-2.128-0.075-6.438-1.192-7.756-2.863c-3.292-4.175-0.273-9.689-1.26-12.481c-0.297-0.84-0.777-1.971-1.469-2.532
	c-2.802-2.274-11.981-1.709-14.397-4.389c-2.226-2.468-1.531-10.827-2.944-13.835c-1.061-2.258-4.095-5.91-6.262-7.145
	c-1.68-0.957-5.876-1.264-7.707-0.642c-0.706,0.24-2.047,1.19-2.783,1.07C4.051,19.011,3.99,17.8,4.054,17.486z"/>
<path opacity="0.5" fill="#FDFDFE" d="M73.74,67.322c0.164-0.799,1.755-2.12,2.435-2.569c2.323-1.532,8.619-1.196,11.132,0
	c2.989,1.423,7.256,6.32,8.67,9.313c1.261,2.667,0.026,10.363,2.034,12.524c2.422,2.606,10.941,1.609,13.702,3.854
	c1.17,0.951,2.425,3.887,2.783,5.352c0.648,2.652-1.764,8.836,0,10.918c1.052,1.242,3.347,1.799,4.973,1.873
	c1.766,0.08,3.565-1.257,4.019-0.803c0.568,0.568,0.505,2.587,0,3.211c-0.646,0.798-2.992,0.892-4.019,0.856
	c-2.128-0.075-6.438-1.192-7.756-2.863c-3.292-4.175-0.273-9.689-1.26-12.481c-0.297-0.84-0.777-1.971-1.469-2.532
	c-2.802-2.274-11.981-1.709-14.397-4.389c-2.226-2.468-1.531-10.827-2.944-13.835c-1.061-2.258-4.095-5.91-6.262-7.145
	c-1.68-0.957-5.876-1.264-7.707-0.642c-0.706,0.24-2.047,1.19-2.783,1.07C73.737,68.847,73.675,67.637,73.74,67.322z"/>
<path opacity="0.5" fill="#FDFDFE" d="M136.647,82.349c0.164-0.799,1.755-2.12,2.435-2.569c2.323-1.532,8.62-1.196,11.132,0
	c2.989,1.423,7.256,6.32,8.67,9.313c1.261,2.667,0.026,10.363,2.034,12.524c2.422,2.606,10.941,1.609,13.702,3.854
	c1.17,0.951,2.425,3.887,2.783,5.352c0.648,2.652-1.764,8.836,0,10.918c1.052,1.242,3.347,1.799,4.973,1.873
	c1.766,0.08,3.565-1.257,4.019-0.803c0.568,0.568,0.505,2.587,0,3.211c-0.646,0.798-2.992,0.892-4.019,0.856
	c-2.128-0.075-6.438-1.192-7.756-2.863c-3.292-4.175-0.273-9.689-1.26-12.481c-0.297-0.84-0.777-1.971-1.469-2.532
	c-2.802-2.274-11.981-1.709-14.397-4.389c-2.226-2.468-1.531-10.827-2.944-13.835c-1.061-2.258-4.095-5.91-6.262-7.145
	c-1.68-0.957-5.876-1.264-7.707-0.642c-0.706,0.24-2.047,1.19-2.783,1.07C136.644,83.875,136.583,82.664,136.647,82.349z"/>
<path opacity="0.5" fill="#FDFDFE" d="M202.004,68.207c0.164-0.799,1.755-2.12,2.435-2.569c2.323-1.532,8.62-1.196,11.132,0
	c2.989,1.423,7.256,6.32,8.67,9.313c1.261,2.667,0.026,10.363,2.034,12.524c2.422,2.606,10.941,1.609,13.702,3.854
	c1.17,0.951,2.425,3.887,2.783,5.352c0.648,2.652-1.764,8.836,0,10.918c1.052,1.242,3.347,1.799,4.973,1.873
	c1.766,0.08,3.565-1.257,4.019-0.803c0.568,0.568,0.505,2.587,0,3.211c-0.646,0.798-2.992,0.892-4.019,0.856
	c-2.128-0.075-6.438-1.192-7.756-2.863c-3.292-4.175-0.273-9.689-1.26-12.481c-0.297-0.84-0.777-1.971-1.469-2.532
	c-2.802-2.274-11.981-1.709-14.397-4.389c-2.226-2.468-1.531-10.827-2.944-13.835c-1.061-2.258-4.094-5.91-6.262-7.145
	c-1.68-0.957-5.876-1.264-7.707-0.642c-0.706,0.24-2.047,1.19-2.783,1.07C202.001,69.732,201.939,68.522,202.004,68.207z"/>
<path opacity="0.5" fill="#FDFDFE" d="M9.054,78.486c0.164-0.799,1.755-2.12,2.435-2.569c2.323-1.532,8.619-1.196,11.132,0
	c2.989,1.423,7.256,6.32,8.67,9.313c1.261,2.667,0.026,10.363,2.034,12.524c2.422,2.606,10.941,1.609,13.702,3.854
	c1.17,0.951,2.425,3.887,2.783,5.352c0.648,2.652-1.764,8.836,0,10.918c1.052,1.242,3.347,1.799,4.973,1.873
	c1.766,0.08,3.565-1.257,4.019-0.803c0.568,0.568,0.505,2.587,0,3.211c-0.646,0.798-2.992,0.892-4.019,0.856
	c-2.128-0.075-6.438-1.192-7.756-2.863c-3.292-4.175-0.273-9.689-1.26-12.481c-0.297-0.84-0.777-1.971-1.469-2.532
	c-2.802-2.274-11.981-1.709-14.397-4.389c-2.226-2.468-1.531-10.827-2.944-13.835c-1.061-2.258-4.095-5.91-6.262-7.145
	c-1.68-0.957-5.876-1.264-7.707-0.642c-0.706,0.24-2.047,1.19-2.783,1.07C9.051,80.011,8.99,78.8,9.054,78.486z"/>
<path opacity="0.5" fill="#FDFDFE" d="M68.548,132.71c0.164-0.799,1.755-2.12,2.435-2.569c2.323-1.532,8.619-1.196,11.132,0
	c2.989,1.423,7.256,6.32,8.67,9.313c1.261,2.667,0.026,10.363,2.034,12.524c2.422,2.606,10.941,1.609,13.702,3.854
	c1.17,0.951,2.425,3.887,2.783,5.352c0.648,2.652-1.764,8.836,0,10.918c1.052,1.242,3.347,1.799,4.973,1.873
	c1.766,0.08,3.565-1.257,4.019-0.803c0.568,0.568,0.505,2.587,0,3.211c-0.646,0.798-2.992,0.892-4.019,0.856
	c-2.128-0.075-6.438-1.192-7.756-2.863c-3.292-4.175-0.273-9.689-1.26-12.481c-0.297-0.84-0.777-1.971-1.469-2.532
	c-2.802-2.274-11.981-1.709-14.397-4.389c-2.226-2.468-1.531-10.827-2.944-13.835c-1.061-2.258-4.095-5.91-6.262-7.145
	c-1.68-0.957-5.876-1.264-7.707-0.642c-0.706,0.24-2.047,1.19-2.783,1.07C68.545,134.236,68.484,133.025,68.548,132.71z"/>
<path opacity="0.5" fill="#FDFDFE" d="M131.456,143.738c0.164-0.799,1.755-2.12,2.435-2.569c2.323-1.532,8.619-1.196,11.132,0
	c2.989,1.423,7.256,6.32,8.67,9.313c1.261,2.667,0.026,10.363,2.034,12.524c2.422,2.606,10.941,1.609,13.702,3.854
	c1.17,0.951,2.425,3.887,2.783,5.352c0.648,2.652-1.764,8.836,0,10.918c1.052,1.242,3.347,1.799,4.973,1.873
	c1.766,0.08,3.565-1.257,4.019-0.803c0.568,0.568,0.505,2.587,0,3.211c-0.646,0.798-2.992,0.892-4.019,0.856
	c-2.128-0.075-6.438-1.192-7.756-2.863c-3.292-4.175-0.273-9.689-1.26-12.481c-0.297-0.84-0.777-1.971-1.469-2.532
	c-2.802-2.274-11.981-1.709-14.397-4.389c-2.226-2.468-1.531-10.827-2.944-13.835c-1.061-2.258-4.095-5.91-6.262-7.145
	c-1.68-0.957-5.876-1.264-7.707-0.642c-0.706,0.24-2.047,1.19-2.783,1.07C131.452,145.263,131.391,144.052,131.456,143.738z"/>
<path opacity="0.5" fill="#FDFDFE" d="M196.812,133.595c0.164-0.799,1.755-2.12,2.435-2.569c2.323-1.532,8.62-1.196,11.132,0
	c2.989,1.423,7.256,6.32,8.671,9.313c1.261,2.667,0.026,10.363,2.034,12.524c2.422,2.606,10.941,1.609,13.702,3.854
	c1.17,0.951,2.425,3.887,2.783,5.352c0.648,2.652-1.764,8.836,0,10.918c1.052,1.242,3.347,1.799,4.973,1.873
	c1.766,0.08,3.565-1.257,4.019-0.803c0.568,0.568,0.505,2.587,0,3.211c-0.646,0.798-2.992,0.892-4.019,0.856
	c-2.128-0.075-6.438-1.192-7.756-2.863c-3.292-4.175-0.273-9.689-1.26-12.481c-0.297-0.84-0.777-1.971-1.469-2.532
	c-2.802-2.274-11.981-1.709-14.397-4.389c-2.226-2.468-1.531-10.827-2.944-13.835c-1.061-2.258-4.095-5.91-6.262-7.145
	c-1.68-0.957-5.876-1.264-7.707-0.642c-0.706,0.24-2.047,1.19-2.783,1.07C196.809,135.12,196.748,133.91,196.812,133.595z"/>
<path opacity="0.5" fill="#FDFDFE" d="M3.863,143.874c0.164-0.799,1.755-2.12,2.435-2.569c2.323-1.532,8.619-1.196,11.132,0
	c2.989,1.423,7.256,6.32,8.67,9.313c1.261,2.667,0.026,10.363,2.034,12.524c2.422,2.606,10.941,1.609,13.702,3.854
	c1.17,0.951,2.425,3.887,2.783,5.352c0.648,2.652-1.764,8.836,0,10.918c1.052,1.242,3.347,1.799,4.973,1.873
	c1.766,0.08,3.565-1.257,4.019-0.803c0.568,0.568,0.505,2.587,0,3.211c-0.646,0.798-2.992,0.892-4.019,0.856
	c-2.128-0.075-6.438-1.192-7.756-2.863c-3.292-4.175-0.273-9.689-1.26-12.481c-0.297-0.84-0.777-1.971-1.469-2.532
	c-2.802-2.274-11.981-1.709-14.397-4.389c-2.226-2.468-1.531-10.827-2.944-13.835c-1.061-2.258-4.095-5.91-6.262-7.145
	c-1.68-0.957-5.876-1.264-7.707-0.642c-0.706,0.24-2.047,1.19-2.783,1.07C3.86,145.399,3.798,144.189,3.863,143.874z"/>
<path opacity="0.5" fill="#FDFDFE" d="M73.548,193.71c0.164-0.799,1.755-2.12,2.435-2.569c2.323-1.532,8.619-1.196,11.132,0
	c2.989,1.423,7.256,6.32,8.67,9.313c1.261,2.667,0.026,10.363,2.034,12.524c2.422,2.606,10.941,1.609,13.702,3.854
	c1.17,0.951,2.425,3.887,2.783,5.352c0.648,2.652-1.764,8.836,0,10.918c1.052,1.242,3.347,1.799,4.973,1.873
	c1.766,0.08,3.565-1.257,4.019-0.803c0.568,0.568,0.505,2.587,0,3.211c-0.646,0.798-2.992,0.892-4.019,0.856
	c-2.128-0.075-6.438-1.192-7.756-2.863c-3.292-4.175-0.273-9.689-1.26-12.481c-0.297-0.84-0.777-1.971-1.469-2.532
	c-2.802-2.274-11.981-1.709-14.397-4.389c-2.226-2.468-1.531-10.827-2.944-13.835c-1.061-2.258-4.095-5.91-6.262-7.145
	c-1.68-0.957-5.876-1.264-7.707-0.642c-0.706,0.24-2.047,1.19-2.783,1.07C73.545,195.236,73.484,194.025,73.548,193.71z"/>
<path opacity="0.5" fill="#FDFDFE" d="M136.456,208.738c0.164-0.799,1.755-2.12,2.435-2.569c2.323-1.532,8.619-1.196,11.132,0
	c2.989,1.423,7.256,6.32,8.67,9.313c1.261,2.667,0.026,10.363,2.034,12.524c2.422,2.606,10.941,1.609,13.702,3.854
	c1.17,0.951,2.425,3.887,2.783,5.352c0.648,2.652-1.764,8.836,0,10.918c1.052,1.242,3.347,1.799,4.973,1.873
	c1.766,0.08,3.565-1.257,4.019-0.803c0.568,0.568,0.505,2.587,0,3.211c-0.646,0.798-2.992,0.892-4.019,0.856
	c-2.128-0.075-6.438-1.192-7.756-2.863c-3.292-4.175-0.273-9.689-1.26-12.481c-0.297-0.84-0.777-1.971-1.469-2.532
	c-2.802-2.274-11.981-1.709-14.397-4.389c-2.226-2.468-1.531-10.827-2.944-13.835c-1.061-2.258-4.095-5.91-6.262-7.145
	c-1.68-0.957-5.876-1.264-7.707-0.642c-0.706,0.24-2.047,1.19-2.783,1.07C136.452,210.263,136.391,209.052,136.456,208.738z"/>
<path opacity="0.5" fill="#FDFDFE" d="M201.812,194.595c0.164-0.799,1.755-2.12,2.435-2.569c2.323-1.532,8.62-1.196,11.132,0
	c2.989,1.423,7.256,6.32,8.671,9.313c1.261,2.667,0.026,10.363,2.034,12.524c2.422,2.606,10.941,1.609,13.702,3.854
	c1.17,0.951,2.425,3.887,2.783,5.352c0.648,2.652-1.764,8.836,0,10.918c1.052,1.242,3.347,1.799,4.973,1.873
	c1.766,0.08,3.565-1.257,4.019-0.803c0.568,0.568,0.505,2.587,0,3.211c-0.646,0.798-2.992,0.892-4.019,0.856
	c-2.128-0.075-6.438-1.192-7.756-2.863c-3.292-4.175-0.273-9.689-1.26-12.481c-0.297-0.84-0.777-1.971-1.469-2.532
	c-2.802-2.274-11.981-1.709-14.397-4.389c-2.226-2.468-1.531-10.827-2.944-13.835c-1.061-2.258-4.095-5.91-6.262-7.145
	c-1.68-0.957-5.876-1.264-7.707-0.642c-0.706,0.24-2.047,1.19-2.783,1.07C201.809,196.12,201.748,194.91,201.812,194.595z"/>
<path opacity="0.5" fill="#FDFDFE" d="M8.863,204.874c0.164-0.799,1.755-2.12,2.435-2.569c2.323-1.532,8.619-1.196,11.132,0
	c2.989,1.423,7.256,6.32,8.67,9.313c1.261,2.667,0.026,10.363,2.034,12.524c2.422,2.606,10.941,1.609,13.702,3.854
	c1.17,0.951,2.425,3.887,2.783,5.352c0.648,2.652-1.764,8.836,0,10.918c1.052,1.242,3.347,1.799,4.973,1.873
	c1.766,0.08,3.565-1.257,4.019-0.803c0.568,0.568,0.505,2.587,0,3.211c-0.646,0.798-2.992,0.892-4.019,0.856
	c-2.128-0.075-6.438-1.192-7.756-2.863c-3.292-4.175-0.273-9.689-1.26-12.481c-0.297-0.84-0.777-1.971-1.469-2.532
	c-2.802-2.274-11.981-1.709-14.397-4.389c-2.226-2.468-1.531-10.827-2.944-13.835c-1.061-2.258-4.095-5.91-6.262-7.145
	c-1.68-0.957-5.876-1.264-7.707-0.642c-0.706,0.24-2.047,1.19-2.783,1.07C8.86,206.399,8.798,205.189,8.863,204.874z"/>
</svg>
