<?xml version="1.0" encoding="utf-8"?>
<!-- Generator: Adobe Illustrator 17.0.0, SVG Export Plug-In . SVG Version: 6.00 Build 0)  -->
<!DOCTYPE svg PUBLIC "-//W3C//DTD SVG 1.1//EN" "http://www.w3.org/Graphics/SVG/1.1/DTD/svg11.dtd">
<svg version="1.1" id="Layer_1" xmlns="http://www.w3.org/2000/svg" xmlns:xlink="http://www.w3.org/1999/xlink" x="0px" y="0px"
	 width="256px" height="256px" viewBox="0 0 256 256" enable-background="new 0 0 256 256" xml:space="preserve">
<polygon opacity="0.2" fill="#FFFFFF" points="203.633,54.274 84.284,54.274 84.284,66.982 191.662,66.982 192.227,254.893 
	203.633,254.893 "/>
<polygon opacity="0.2" fill="#FFFFFF" points="220.75,38.457 84.284,38.457 84.284,50.117 208.429,50.117 209.64,254.893 
	220.75,254.893 "/>
<polygon opacity="0.2" fill="#FFFFFF" points="237.651,21.773 84.284,21.773 84.284,33.854 225.842,33.854 225.482,254.893 
	237.651,254.893 "/>
<polygon opacity="0.2" fill="#FFFFFF" points="252.817,3.79 84.284,3.79 84.284,17.289 243.254,17.289 241.984,254.893 
	252.817,254.893 "/>
<polygon opacity="0.2" fill="#FFFFFF" points="49.877,1.107 61.596,1.107 61.771,197.562 186.503,197.45 186.503,208.429 
	49.877,208.429 "/>
<polygon opacity="0.2" fill="#FFFFFF" points="33.308,1.107 44.479,1.107 45.178,214.155 186.659,213.714 186.659,224.892 
	33.308,224.892 "/>
<polygon opacity="0.2" fill="#FFFFFF" points="18.676,1.107 28.5,1.107 30.157,228.128 186.503,228.302 186.659,238.974 
	18.676,238.974 "/>
<polygon opacity="0.2" fill="#FFFFFF" points="3.183,1.107 13.942,1.107 15.17,242.846 186.503,242.743 186.503,252.462 
	3.183,252.462 "/>
<polygon opacity="0.2" fill="#FFFFFF" points="67.092,1.107 79.848,1.107 80.013,180.585 186.659,180.585 186.659,191.967 
	67.092,191.967 "/>
<polygon opacity="0.2" fill="#FFFFFF" points="86.648,117.757 86.648,105.437 120.068,104.918 120.068,73.505 130.897,73.505 
	130.897,117.757 "/>
<polygon opacity="0.2" fill="#FFFFFF" points="86.648,136.706 86.648,122.713 137.327,122.869 137.207,73.35 148.632,73.35 
	148.756,136.706 "/>
<polygon opacity="0.2" fill="#FFFFFF" points="86.648,156.009 86.648,142.804 155.744,142.878 155.744,73.505 167.79,73.505 
	167.79,155.459 "/>
<polygon opacity="0.2" fill="#FFFFFF" points="86.648,173.007 86.648,161.629 172.687,161.613 172.687,73.505 184.4,73.505 
	184.4,173.007 "/>
<polygon opacity="0.2" fill="#FFFFFF" points="86.648,100.189 86.648,88.481 102.761,88.318 102.761,73.35 114.191,73.35 
	114.191,100.189 "/>
</svg>
