<?xml version="1.0" encoding="utf-8"?>
<!-- Generator: Adobe Illustrator 17.0.0, SVG Export Plug-In . SVG Version: 6.00 Build 0)  -->
<!DOCTYPE svg PUBLIC "-//W3C//DTD SVG 1.1//EN" "http://www.w3.org/Graphics/SVG/1.1/DTD/svg11.dtd">
<svg version="1.1" id="Layer_1" xmlns="http://www.w3.org/2000/svg" xmlns:xlink="http://www.w3.org/1999/xlink" x="0px" y="0px"
	 width="256px" height="256px" viewBox="0 0 256 256" enable-background="new 0 0 256 256" xml:space="preserve">
<polygon opacity="0.15" fill="#FFFFFF" points="-0.004,8.853 -0.004,26.56 12.231,38.78 29.429,38.78 "/>
<polygon opacity="0.15" fill="#FFFFFF" points="23.528,15.643 31.042,22.656 48.778,22.656 24.648,0.265 "/>
<polygon opacity="0.15" fill="#FFFFFF" points="48.778,7.338 48.778,22.656 60.333,34.749 76.726,34.749 "/>
<polygon opacity="0.15" fill="#FFFFFF" points="31.042,22.656 29.429,38.78 43.672,51.947 60.333,50.604 "/>
<polygon opacity="0.15" fill="#FFFFFF" points="43.354,68.172 12.231,38.78 13.4,56.227 26.08,69.642 "/>
<polygon opacity="0.15" fill="#FFFFFF" points="65.038,0.179 65.038,7.338 76.726,17.637 76.726,0.179 "/>
<polygon opacity="0.15" fill="#FFFFFF" points="56.794,0.179 65.038,7.338 48.778,7.338 40.762,0.265 "/>
<polygon opacity="0.15" fill="#FFFFFF" points="88.744,4.957 76.726,17.637 76.726,34.749 88.744,45.569 "/>
<polygon opacity="0.15" fill="#FFFFFF" points="88.744,0.265 101.424,0.179 101.424,16.718 88.744,4.957 "/>
<polygon opacity="0.15" fill="#FFFFFF" points="112.266,0.265 123.292,0.265 123.292,17.637 112.266,7.338 "/>
<polygon opacity="0.15" fill="#FFFFFF" points="135.604,0.179 135.604,7.338 148.284,16.718 148.284,0.265 "/>
<polygon opacity="0.15" fill="#FFFFFF" points="135.604,45.569 135.604,7.338 123.292,17.954 123.347,37.302 "/>
<polygon opacity="0.15" fill="#FFFFFF" points="112.266,7.338 112.266,45.569 101.424,36.013 101.424,16.718 "/>
<polygon opacity="0.15" fill="#FFFFFF" points="159.677,4.957 148.284,16.718 148.284,34.749 160.596,45.569 "/>
<polygon opacity="0.15" fill="#FFFFFF" points="159.677,0.265 172.54,0.265 172.54,17.637 159.677,4.957 "/>
<polygon opacity="0.15" fill="#FFFFFF" points="184.669,4.957 172.54,17.637 172.54,33.808 201.391,4.957 "/>
<polygon opacity="0.15" fill="#FFFFFF" points="201.391,20.21 201.391,4.957 205.904,0.265 223.994,0.265 "/>
<polygon opacity="0.15" fill="#FFFFFF" points="244.974,10.725 227.263,12.263 219.768,19.383 219.768,37.302 "/>
<polygon opacity="0.15" fill="#FFFFFF" points="189.814,49.612 219.768,19.383 201.391,20.21 189.814,33.073 "/>
<polygon opacity="0.15" fill="#FFFFFF" points="160.596,61.74 189.814,33.073 172.54,33.808 160.596,45.569 "/>
<polygon opacity="0.15" fill="#FFFFFF" points="207.639,49.612 219.768,37.302 236.858,37.302 207.639,65.783 "/>
<polygon opacity="0.15" fill="#FFFFFF" points="177.87,61.74 178.788,77.912 207.639,49.612 189.814,49.612 "/>
<polygon opacity="0.15" fill="#FFFFFF" points="239.614,51.542 236.858,37.302 244.974,29.122 255.996,29.512 255.996,31.487 "/>
<polygon opacity="0.15" fill="#FFFFFF" points="255.996,53.287 239.614,51.542 225.832,65.783 226.567,82.506 "/>
<polygon opacity="0.15" fill="#FFFFFF" points="196.246,95.921 225.832,65.783 207.639,65.783 195.327,77.912 "/>
<polygon opacity="0.15" fill="#FFFFFF" points="123.347,37.302 112.266,45.569 112.266,62.475 123.292,72.582 "/>
<polygon opacity="0.15" fill="#FFFFFF" points="148.284,34.749 135.604,45.569 136.706,61.74 148.284,73.318 "/>
<polygon opacity="0.15" fill="#FFFFFF" points="137.625,102.169 136.706,61.74 123.292,72.582 124.21,89.856 "/>
<polygon opacity="0.15" fill="#FFFFFF" points="112.266,100.698 112.266,62.475 101.424,73.318 101.424,90.224 "/>
<polygon opacity="0.15" fill="#FFFFFF" points="101.424,36.013 88.744,45.569 88.744,62.475 101.424,73.318 "/>
<polygon opacity="0.15" fill="#FFFFFF" points="60.333,34.749 60.333,50.604 74.043,63.762 88.744,62.475 "/>
<polygon opacity="0.15" fill="#FFFFFF" points="43.672,51.947 73.124,80.852 56.034,81.587 43.354,68.172 "/>
<polygon opacity="0.15" fill="#FFFFFF" points="74.043,63.762 73.124,80.852 85.069,93.164 101.424,90.224 "/>
<polygon opacity="0.15" fill="#FFFFFF" points="-0.004,56.227 25.713,83.792 8.439,85.63 -0.004,76.993 "/>
<polygon opacity="0.15" fill="#FFFFFF" points="-0.004,41.061 13.4,56.227 -0.004,56.227 "/>
<polygon opacity="0.15" fill="#FFFFFF" points="-0.004,84.543 8.439,85.63 -0.004,95.949 "/>
<polygon opacity="0.15" fill="#FFFFFF" points="26.08,69.642 25.713,83.057 37.841,96.656 55.483,96.656 "/>
<polygon opacity="0.15" fill="#FFFFFF" points="29.298,107.682 37.841,96.656 -0.004,95.949 8.259,107.682 "/>
<polygon opacity="0.15" fill="#FFFFFF" points="-0.004,107.682 8.259,107.682 0.169,119.81 "/>
<polygon opacity="0.15" fill="#FFFFFF" points="8.439,132.673 28.837,132.673 37.841,119.81 0.169,119.81 "/>
<polygon opacity="0.15" fill="#FFFFFF" points="-0.004,143.516 8.439,132.673 -0.004,132.673 "/>
<polygon opacity="0.15" fill="#FFFFFF" points="28.837,132.673 38.76,145.353 56.585,145.353 68.162,132.673 "/>
<polygon opacity="0.15" fill="#FFFFFF" points="58.632,119.574 37.841,119.81 29.298,107.682 66.353,107.682 "/>
<polygon opacity="0.15" fill="#FFFFFF" points="95.543,120.545 86.171,132.673 68.162,132.673 58.632,119.574 "/>
<polygon opacity="0.15" fill="#FFFFFF" points="56.034,81.587 55.483,96.656 66.353,107.682 83.782,109.152 "/>
<polygon opacity="0.15" fill="#FFFFFF" points="85.069,93.164 83.782,109.152 95.543,120.545 112.266,120.545 "/>
<polygon opacity="0.15" fill="#FFFFFF" points="124.21,89.856 112.266,100.698 112.266,120.545 124.21,131.938 "/>
<polygon opacity="0.15" fill="#FFFFFF" points="166.109,91.143 150.121,91.143 137.625,102.169 137.625,119.81 "/>
<polygon opacity="0.15" fill="#FFFFFF" points="177.87,61.74 150.121,91.143 148.284,73.318 160.596,61.74 "/>
<polygon opacity="0.15" fill="#FFFFFF" points="178.788,77.912 166.109,91.143 167.395,106.855 195.327,77.912 "/>
<polygon opacity="0.15" fill="#FFFFFF" points="196.246,95.921 185.404,107.681 224.913,107.681 213.704,95.369 "/>
<polygon opacity="0.15" fill="#FFFFFF" points="195.327,120.545 185.404,107.681 167.395,106.855 154.44,119.81 "/>
<polygon opacity="0.15" fill="#FFFFFF" points="124.21,131.938 137.625,119.81 154.44,119.81 166.109,132.673 "/>
<polygon opacity="0.15" fill="#FFFFFF" points="195.327,120.545 183.75,132.673 223.994,132.673 213.152,120.545 "/>
<polygon opacity="0.15" fill="#FFFFFF" points="213.704,95.369 226.567,82.506 243.841,83.241 253.764,95.921 "/>
<polygon opacity="0.15" fill="#FFFFFF" points="255.996,71.664 253.764,71.664 243.841,83.241 255.996,84.531 "/>
<polygon opacity="0.15" fill="#FFFFFF" points="255.996,95.921 253.764,95.921 243.841,107.681 255.996,107.681 "/>
<polygon opacity="0.15" fill="#FFFFFF" points="253.764,119.81 243.841,107.681 224.913,107.681 213.152,120.545 "/>
<polygon opacity="0.15" fill="#FFFFFF" points="255.996,119.81 253.764,119.81 243.841,131.938 255.996,132.673 "/>
<polygon opacity="0.15" fill="#FFFFFF" points="253.764,142.78 243.841,131.938 223.994,132.673 213.152,143.883 "/>
<polygon opacity="0.15" fill="#FFFFFF" points="255.996,142.964 253.764,142.78 243.841,155.276 255.996,156.012 "/>
<polygon opacity="0.15" fill="#FFFFFF" points="225.832,156.012 213.152,143.883 195.327,143.883 185.404,157.298 "/>
<polygon opacity="0.15" fill="#FFFFFF" points="183.75,132.673 166.109,132.673 155.45,144.986 195.327,143.883 "/>
<polygon opacity="0.15" fill="#FFFFFF" points="253.764,168.14 243.841,155.276 225.832,156.012 215.541,168.14 "/>
<polygon opacity="0.15" fill="#FFFFFF" points="255.996,168.14 253.764,168.14 245.311,179.35 255.996,180.268 "/>
<polygon opacity="0.15" fill="#FFFFFF" points="227.302,180.268 215.541,168.14 197.716,168.14 227.302,197.175 "/>
<polygon opacity="0.15" fill="#FFFFFF" points="185.404,157.298 168.498,157.298 197.716,185.414 197.716,168.14 "/>
<polygon opacity="0.15" fill="#FFFFFF" points="155.45,144.986 138.544,144.986 168.498,174.204 168.498,157.298 "/>
<polygon opacity="0.15" fill="#FFFFFF" points="124.21,131.938 138.544,144.986 138.544,163.73 124.21,176.226 "/>
<polygon opacity="0.15" fill="#FFFFFF" points="138.544,203.423 151.867,192.213 151.04,174.204 138.544,163.73 "/>
<polygon opacity="0.15" fill="#FFFFFF" points="181.729,186.333 168.498,174.204 151.04,174.204 180.81,203.423 "/>
<polygon opacity="0.15" fill="#FFFFFF" points="210.947,214.816 181.729,186.333 197.716,185.414 210.947,197.175 "/>
<polygon opacity="0.15" fill="#FFFFFF" points="240.901,227.128 210.947,197.175 227.302,197.175 240.901,209.854 "/>
<polygon opacity="0.15" fill="#FFFFFF" points="193.673,215.551 223.259,244.035 223.259,227.128 210.947,214.816 "/>
<polygon opacity="0.15" fill="#FFFFFF" points="164.087,203.423 192.019,231.722 193.673,215.551 180.81,203.423 "/>
<polygon opacity="0.15" fill="#FFFFFF" points="151.867,192.213 149.836,229.977 164.087,219.594 164.087,203.423 "/>
<polygon opacity="0.15" fill="#FFFFFF" points="139.463,221.064 135.467,256.265 148.374,250.152 149.836,229.977 "/>
<polygon opacity="0.15" fill="#FFFFFF" points="227.302,180.268 255.996,207.649 256.153,190.743 245.311,179.35 "/>
<polygon opacity="0.15" fill="#FFFFFF" points="255.996,209.487 240.901,209.854 256.153,224.739 "/>
<polygon opacity="0.15" fill="#FFFFFF" points="240.901,227.128 255.996,241.946 255.996,256.265 223.259,227.128 "/>
<polygon opacity="0.15" fill="#FFFFFF" points="238.929,256.265 223.259,244.035 206.353,244.035 223.886,256.265 "/>
<polygon opacity="0.15" fill="#FFFFFF" points="192.019,231.722 206.353,244.035 205.842,256.265 174.942,229.977 "/>
<polygon opacity="0.15" fill="#FFFFFF" points="160.479,256.265 172.985,248.629 174.942,229.977 164.087,219.594 "/>
<polygon opacity="0.15" fill="#FFFFFF" points="124.21,190.375 138.544,203.423 139.463,221.064 125.129,232.825 "/>
<polygon opacity="0.15" fill="#FFFFFF" points="113.92,219.594 125.129,232.825 123.656,245.505 112.139,256.265 "/>
<polygon opacity="0.15" fill="#FFFFFF" points="102.159,192.213 113.92,201.585 113.92,219.594 102.159,229.425 "/>
<polygon opacity="0.15" fill="#FFFFFF" points="90.949,221.064 102.159,229.425 101.334,247.253 88.656,256.265 "/>
<polygon opacity="0.15" fill="#FFFFFF" points="90.03,203.423 90.949,221.064 78.637,231.722 61.914,231.722 "/>
<polygon opacity="0.15" fill="#FFFFFF" points="73.491,203.423 90.03,203.423 102.159,192.213 102.159,174.204 "/>
<polygon opacity="0.15" fill="#FFFFFF" points="112.266,162.627 124.21,176.226 124.21,190.375 113.92,201.585 "/>
<polygon opacity="0.15" fill="#FFFFFF" points="113.92,146.088 112.266,162.627 102.159,174.204 85.069,174.204 "/>
<polygon opacity="0.15" fill="#FFFFFF" points="124.21,131.938 113.92,146.088 95.543,144.986 86.171,132.673 "/>
<polygon opacity="0.15" fill="#FFFFFF" points="67.427,157.298 86.171,157.298 95.543,144.986 56.585,145.353 "/>
<polygon opacity="0.15" fill="#FFFFFF" points="38.76,145.353 26.815,156.379 8.439,157.298 0.169,146.088 "/>
<polygon opacity="0.15" fill="#FFFFFF" points="37.841,169.059 54.564,169.059 67.427,157.298 26.815,156.379 "/>
<polygon opacity="0.15" fill="#FFFFFF" points="86.171,157.298 85.069,174.204 73.491,186.884 55.666,185.414 "/>
<polygon opacity="0.15" fill="#FFFFFF" points="73.491,203.423 73.491,186.884 43.538,214.816 61.914,216.286 "/>
<polygon opacity="0.15" fill="#FFFFFF" points="54.564,169.059 55.666,185.414 43.538,198.461 26.815,197.175 "/>
<polygon opacity="0.15" fill="#FFFFFF" points="-0.004,169.978 37.841,169.059 26.815,181.187 6.785,181.187 "/>
<polygon opacity="0.15" fill="#FFFFFF" points="-0.004,208.936 26.815,181.187 26.815,197.175 13.406,211.6 "/>
<polygon opacity="0.15" fill="#FFFFFF" points="14.687,227.863 43.538,198.461 43.538,214.816 31.777,227.863 "/>
<polygon opacity="0.15" fill="#FFFFFF" points="61.914,216.286 61.914,231.722 49.235,244.218 31.409,244.218 "/>
<polygon opacity="0.15" fill="#FFFFFF" points="31.777,227.863 31.409,244.218 18.861,256.265 -0.004,256.265 "/>
<polygon opacity="0.15" fill="#FFFFFF" points="13.406,211.6 14.687,227.863 -0.004,242.013 -0.004,225.474 "/>
<polygon opacity="0.15" fill="#FFFFFF" points="49.235,244.218 34.402,256.265 51.174,256.265 "/>
<polygon opacity="0.15" fill="#FFFFFF" points="78.637,231.722 78.637,249.364 70.894,256.265 51.174,256.265 "/>
<polygon opacity="0.15" fill="#FFFFFF" points="88.656,256.265 78.637,249.364 78.637,256.265 "/>
<polygon opacity="0.15" fill="#FFFFFF" points="101.334,247.253 112.139,256.265 101.334,256.265 "/>
<polygon opacity="0.15" fill="#FFFFFF" points="135.467,256.265 123.656,245.505 123.229,256.265 "/>
<polygon opacity="0.15" fill="#FFFFFF" points="148.374,250.152 160.479,256.265 148.214,256.265 "/>
<polygon opacity="0.15" fill="#FFFFFF" points="172.985,248.629 187.058,256.265 172.477,256.265 "/>
<line opacity="0.15" fill="#FFFFFF" x1="24.648" y1="0.265" x2="18.949" y2="0.265"/>
<polygon opacity="0.15" fill="#FFFFFF" points="8.78,0.265 23.528,15.643 -0.004,8.853 -0.004,0.265 "/>
<polygon opacity="0.15" fill="#FFFFFF" points="184.669,4.957 189.01,0.265 184.596,0.265 "/>
<polygon opacity="0.15" fill="#FFFFFF" points="244.974,29.122 244.974,10.725 255.996,0.265 255.996,16.177 "/>
<polygon opacity="0.15" fill="#FFFFFF" points="227.263,12.263 223.994,0.265 238.96,0.265 "/>
</svg>
