<?xml version="1.0" encoding="utf-8"?>
<!-- Generator: Adobe Illustrator 17.0.0, SVG Export Plug-In . SVG Version: 6.00 Build 0)  -->
<!DOCTYPE svg PUBLIC "-//W3C//DTD SVG 1.1//EN" "http://www.w3.org/Graphics/SVG/1.1/DTD/svg11.dtd">
<svg version="1.1" id="Layer_1" xmlns="http://www.w3.org/2000/svg" xmlns:xlink="http://www.w3.org/1999/xlink" x="0px" y="0px"
	 width="256px" height="256px" viewBox="0 0 256 256" enable-background="new 0 0 256 256" xml:space="preserve">
<path fill="#00A651" d="M0,200.223"/>
<polygon opacity="0.1" fill="#FFFFFF" points="0,171.715 11.392,171.708 134.851,49.169 11.392,42.677 0,53.936 0,30.046 
	12.446,17.924 188.57,24.943 8.855,200.45 0,200.293 "/>
<polygon opacity="0.1" fill="#FFFFFF" points="0,224.981 6.04,225.075 232.109,0 256,0 256,0.575 0.535,256 0,256 "/>
<polygon opacity="0.1" fill="#FFFFFF" points="256.001,147.575 233.988,147.644 256.001,127.668 "/>
<polygon opacity="0.1" fill="#FFFFFF" points="256,171.731 256.001,200.309 129.183,197.15 256.001,78.121 256.001,102.262 
	181.322,171.343 "/>
<polygon opacity="0.1" fill="#FFFFFF" points="87.557,220.252 256.004,224.981 256,256 232.191,256 34.891,245.268 256.004,30.091 
	256.004,53.951 "/>
<path fill="#2E3192" d="M0,171.715"/>
<polygon opacity="0.1" fill="#FFFFFF" points="0,127.637 39.809,91.1 11.919,91.13 0,102.246 0,78.09 12.446,66.377 92.059,71.402 
	11.392,147.482 0,147.559 "/>
<polygon opacity="0.1" fill="#FFFFFF" points="0.511,0 0,0.559 0,0 "/>
</svg>
