<?xml version="1.0" encoding="utf-8"?>
<!-- Generator: Adobe Illustrator 17.0.0, SVG Export Plug-In . SVG Version: 6.00 Build 0)  -->
<!DOCTYPE svg PUBLIC "-//W3C//DTD SVG 1.1//EN" "http://www.w3.org/Graphics/SVG/1.1/DTD/svg11.dtd">
<svg version="1.1" id="Layer_1" xmlns="http://www.w3.org/2000/svg" xmlns:xlink="http://www.w3.org/1999/xlink" x="0px" y="0px"
	 width="256px" height="256px" viewBox="0 0 256 256" enable-background="new 0 0 256 256" xml:space="preserve">
<polygon opacity="0.15" fill="#FFFFFF" points="47.979,7.954 80.095,7.954 96.812,32.507 80.388,57.143 47.979,57.143 
	30.968,32.549 "/>
<polygon opacity="0.15" fill="#FFFFFF" points="0.006,24.872 16.449,24.734 32.829,0.297 0.006,0.297 "/>
<polygon opacity="0.15" fill="#FFFFFF" points="0.006,39.839 16.303,39.839 32.874,64.329 16.523,88.966 0.006,88.809 "/>
<polygon opacity="0.15" fill="#FFFFFF" points="0.025,103.777 16.44,103.777 32.874,128.297 16.449,152.758 0.006,152.887 "/>
<polygon opacity="0.15" fill="#FFFFFF" points="0.025,167.482 15.716,167.482 32.874,192.353 16.784,216.488 0.006,216.543 "/>
<polygon opacity="0.15" fill="#FFFFFF" points="0.006,231.931 16.44,231.654 32.874,256.297 0.006,256.296 "/>
<polygon opacity="0.15" fill="#FFFFFF" points="47.685,248.959 31.114,224.322 47.685,199.978 80.535,199.978 97.133,224.469 
	80.681,248.959 "/>
<polygon opacity="0.15" fill="#FFFFFF" points="31.114,160.677 47.539,184.874 80.241,184.874 97.133,160.677 80.535,135.893 
	47.245,135.893 "/>
<polygon opacity="0.15" fill="#FFFFFF" points="31.114,96.298 47.685,120.935 80.681,120.935 96.812,96.298 80.535,71.955 
	47.392,71.955 "/>
<polygon opacity="0.15" fill="#FFFFFF" points="95.493,0.297 111.477,24.881 144.473,24.881 160.751,0.298 "/>
<polygon opacity="0.15" fill="#FFFFFF" points="111.624,39.821 144.326,39.821 160.751,64.476 144.62,88.819 111.624,89.406 
	95.493,64.613 "/>
<polygon opacity="0.15" fill="#FFFFFF" points="111.624,103.777 144.326,103.777 160.751,128.297 144.62,152.904 111.624,152.904 
	95.493,128.297 "/>
<polygon opacity="0.15" fill="#FFFFFF" points="111.477,167.482 144.18,167.482 160.751,192.353 144.766,217.22 111.477,217.22 
	95.493,192.351 "/>
<polygon opacity="0.15" fill="#FFFFFF" points="95.493,256.296 111.624,231.948 144.326,231.948 160.751,256.296 "/>
<polygon opacity="0.15" fill="#FFFFFF" points="158.855,224.029 175.709,248.959 208.558,248.959 225.276,224.029 208.411,199.392 
	175.416,199.392 "/>
<polygon opacity="0.15" fill="#FFFFFF" points="158.855,160.237 175.709,136.04 208.411,136.04 225.276,160.237 208.411,184.874 
	175.416,184.874 "/>
<polygon opacity="0.15" fill="#FFFFFF" points="175.562,71.808 208.411,71.808 225.276,96.298 208.411,121.082 175.562,121.082 
	158.855,96.445 "/>
<polygon opacity="0.15" fill="#FFFFFF" points="175.709,7.87 208.118,7.87 225.276,32.213 208.558,56.997 175.709,56.997 
	158.855,32.433 "/>
<polygon opacity="0.15" fill="#FFFFFF" points="223.094,0.297 239.501,24.881 256.213,24.881 256.006,0.297 "/>
<polygon opacity="0.15" fill="#FFFFFF" points="256.006,39.821 239.061,39.821 223.076,64.613 239.541,88.819 256.213,88.819 "/>
<polygon opacity="0.15" fill="#FFFFFF" points="256.006,103.777 239.644,103.777 223.076,128.341 239.644,152.904 256.006,152.904 
	"/>
<polygon opacity="0.15" fill="#FFFFFF" points="256.006,168.009 239.541,167.482 223.076,192.351 239.541,217.22 256.006,216.55 "/>
<polygon opacity="0.15" fill="#FFFFFF" points="256.006,231.948 239.541,231.948 223.076,256.297 256.006,256.296 "/>
</svg>
