<?xml version="1.0" encoding="utf-8"?>
<!-- Generator: Adobe Illustrator 17.0.0, SVG Export Plug-In . SVG Version: 6.00 Build 0)  -->
<!DOCTYPE svg PUBLIC "-//W3C//DTD SVG 1.1//EN" "http://www.w3.org/Graphics/SVG/1.1/DTD/svg11.dtd">
<svg version="1.1" id="Layer_1" xmlns="http://www.w3.org/2000/svg" xmlns:xlink="http://www.w3.org/1999/xlink" x="0px" y="0px"
	 width="256px" height="256px" viewBox="0 0 256 256" enable-background="new 0 0 256 256" xml:space="preserve">
<circle opacity="0.3" fill="#FFFFFF" cx="22.804" cy="235.742" r="5.998"/>
<circle opacity="0.3" fill="#FFFFFF" cx="28.802" cy="221.182" r="5.998"/>
<circle opacity="0.3" fill="#FFFFFF" cx="40.797" cy="233.178" r="5.998"/>
<circle opacity="0.3" fill="#FFFFFF" cx="41.94" cy="219.469" r="5.998"/>
<circle opacity="0.3" fill="#FFFFFF" cx="74.785" cy="203.189" r="5.998"/>
<circle opacity="0.3" fill="#FFFFFF" cx="47.938" cy="207.473" r="5.998"/>
<circle opacity="0.3" fill="#FFFFFF" cx="41.94" cy="195.478" r="5.998"/>
<circle opacity="0.3" fill="#FFFFFF" cx="9.502" cy="209.187" r="5.998"/>
<circle opacity="0.3" fill="#FFFFFF" cx="22.331" cy="209.187" r="5.998"/>
<circle opacity="0.3" fill="#FFFFFF" cx="26.517" cy="195.478" r="5.998"/>
<circle opacity="0.3" fill="#FFFFFF" cx="32.515" cy="245.173" r="5.998"/>
<circle opacity="0.3" fill="#FFFFFF" cx="53.935" cy="225.467" r="5.998"/>
<circle opacity="0.3" fill="#FFFFFF" cx="55.649" cy="195.478" r="5.998"/>
<circle opacity="0.3" fill="#FFFFFF" cx="32.515" cy="183.482" r="5.998"/>
<circle opacity="0.3" fill="#FFFFFF" cx="43.654" cy="173.628" r="5.998"/>
<circle opacity="0.3" fill="#FFFFFF" cx="55.649" cy="179.626" r="5.998"/>
<circle opacity="0.3" fill="#FFFFFF" cx="55.649" cy="166.061" r="5.998"/>
<circle opacity="0.3" fill="#FFFFFF" cx="63.932" cy="210.618" r="5.998"/>
<circle opacity="0.3" fill="#FFFFFF" cx="67.644" cy="225.467" r="5.998"/>
<circle opacity="0.3" fill="#FFFFFF" cx="59.933" cy="237.462" r="5.998"/>
<circle opacity="0.3" fill="#FFFFFF" cx="46.795" cy="247.738" r="5.998"/>
<circle opacity="0.3" fill="#FFFFFF" cx="93.91" cy="247.246" r="5.998"/>
<circle opacity="0.3" fill="#FFFFFF" cx="99.908" cy="232.687" r="5.998"/>
<circle opacity="0.3" fill="#FFFFFF" cx="111.903" cy="244.682" r="5.998"/>
<circle opacity="0.3" fill="#FFFFFF" cx="113.046" cy="230.973" r="5.998"/>
<circle opacity="0.3" fill="#FFFFFF" cx="106.614" cy="218.403" r="5.998"/>
<circle opacity="0.3" fill="#FFFFFF" cx="119.044" cy="218.977" r="5.998"/>
<circle opacity="0.3" fill="#FFFFFF" cx="113.046" cy="206.982" r="5.998"/>
<circle opacity="0.3" fill="#FFFFFF" cx="74.785" cy="238.036" r="5.998"/>
<circle opacity="0.3" fill="#FFFFFF" cx="80.608" cy="220.691" r="5.998"/>
<circle opacity="0.3" fill="#FFFFFF" cx="94.317" cy="220.691" r="5.998"/>
<circle opacity="0.3" fill="#FFFFFF" cx="97.623" cy="206.982" r="5.998"/>
<circle opacity="0.3" fill="#FFFFFF" cx="125.041" cy="236.971" r="5.998"/>
<circle opacity="0.3" fill="#FFFFFF" cx="126.755" cy="206.982" r="5.998"/>
<circle opacity="0.3" fill="#FFFFFF" cx="103.621" cy="194.987" r="5.998"/>
<circle opacity="0.3" fill="#FFFFFF" cx="114.759" cy="185.132" r="5.998"/>
<circle opacity="0.3" fill="#FFFFFF" cx="126.755" cy="191.13" r="5.998"/>
<circle opacity="0.3" fill="#FFFFFF" cx="125.041" cy="176.071" r="5.998"/>
<circle opacity="0.3" fill="#FFFFFF" cx="138.75" cy="200.984" r="5.998"/>
<circle opacity="0.3" fill="#FFFFFF" cx="138.75" cy="236.971" r="5.998"/>
<circle opacity="0.3" fill="#FFFFFF" cx="67.644" cy="249.457" r="5.998"/>
<circle opacity="0.3" fill="#FFFFFF" cx="78.955" cy="173.428" r="5.998"/>
<circle opacity="0.3" fill="#FFFFFF" cx="151.603" cy="248.254" r="5.998"/>
<circle opacity="0.3" fill="#FFFFFF" cx="167.606" cy="247.75" r="5.998"/>
<circle opacity="0.3" fill="#FFFFFF" cx="9.502" cy="194.474" r="5.998"/>
<circle opacity="0.3" fill="#FFFFFF" cx="157.466" cy="92.664" r="5.998"/>
<circle opacity="0.3" fill="#FFFFFF" cx="169.461" cy="104.66" r="5.998"/>
<circle opacity="0.3" fill="#FFFFFF" cx="170.604" cy="90.951" r="5.998"/>
<circle opacity="0.3" fill="#FFFFFF" cx="163.464" cy="78.955" r="5.998"/>
<circle opacity="0.3" fill="#FFFFFF" cx="176.602" cy="78.955" r="5.998"/>
<circle opacity="0.3" fill="#FFFFFF" cx="170.604" cy="66.96" r="5.998"/>
<circle opacity="0.3" fill="#FFFFFF" cx="161.179" cy="116.655" r="5.998"/>
<circle opacity="0.3" fill="#FFFFFF" cx="182.599" cy="96.949" r="5.998"/>
<circle opacity="0.3" fill="#FFFFFF" cx="184.313" cy="66.96" r="5.998"/>
<circle opacity="0.3" fill="#FFFFFF" cx="161.179" cy="54.965" r="5.998"/>
<circle opacity="0.3" fill="#FFFFFF" cx="172.317" cy="45.11" r="5.998"/>
<circle opacity="0.3" fill="#FFFFFF" cx="184.313" cy="51.108" r="5.998"/>
<circle opacity="0.3" fill="#FFFFFF" cx="184.313" cy="37.543" r="5.998"/>
<circle opacity="0.3" fill="#FFFFFF" cx="196.308" cy="60.962" r="5.998"/>
<circle opacity="0.3" fill="#FFFFFF" cx="196.308" cy="96.949" r="5.998"/>
<circle opacity="0.3" fill="#FFFFFF" cx="188.597" cy="108.944" r="5.998"/>
<circle opacity="0.3" fill="#FFFFFF" cx="175.459" cy="119.22" r="5.998"/>
<circle opacity="0.3" fill="#FFFFFF" cx="226.583" cy="125.792" r="5.998"/>
<circle opacity="0.3" fill="#FFFFFF" cx="232.58" cy="111.232" r="5.998"/>
<circle opacity="0.3" fill="#FFFFFF" cx="238.09" cy="95.949" r="5.998"/>
<circle opacity="0.3" fill="#FFFFFF" cx="245.718" cy="84.953" r="5.998"/>
<circle opacity="0.3" fill="#FFFFFF" cx="203.448" cy="109.518" r="5.998"/>
<circle opacity="0.3" fill="#FFFFFF" cx="201.735" cy="83.253" r="5.998"/>
<circle opacity="0.3" fill="#FFFFFF" cx="225.847" cy="99.236" r="5.998"/>
<circle opacity="0.3" fill="#FFFFFF" cx="230.295" cy="85.527" r="5.998"/>
<circle opacity="0.3" fill="#FFFFFF" cx="236.293" cy="135.223" r="5.998"/>
<circle opacity="0.3" fill="#FFFFFF" cx="236.293" cy="73.532" r="5.998"/>
<circle opacity="0.3" fill="#FFFFFF" cx="214.873" cy="75.541" r="5.998"/>
<circle opacity="0.3" fill="#FFFFFF" cx="177.744" cy="186.626" r="5.998"/>
<circle opacity="0.3" fill="#FFFFFF" cx="183.742" cy="172.066" r="5.998"/>
<circle opacity="0.3" fill="#FFFFFF" cx="195.737" cy="184.061" r="5.998"/>
<circle opacity="0.3" fill="#FFFFFF" cx="196.88" cy="170.352" r="5.998"/>
<circle opacity="0.3" fill="#FFFFFF" cx="150.792" cy="151.656" r="5.998"/>
<circle opacity="0.3" fill="#FFFFFF" cx="202.877" cy="158.357" r="5.998"/>
<circle opacity="0.3" fill="#FFFFFF" cx="196.88" cy="146.361" r="5.998"/>
<circle opacity="0.3" fill="#FFFFFF" cx="163.585" cy="160.071" r="5.998"/>
<circle opacity="0.3" fill="#FFFFFF" cx="177.294" cy="160.071" r="5.998"/>
<circle opacity="0.3" fill="#FFFFFF" cx="181.457" cy="146.361" r="5.998"/>
<circle opacity="0.3" fill="#FFFFFF" cx="187.455" cy="196.057" r="5.998"/>
<circle opacity="0.3" fill="#FFFFFF" cx="208.875" cy="176.35" r="5.998"/>
<circle opacity="0.3" fill="#FFFFFF" cx="210.589" cy="146.361" r="5.998"/>
<circle opacity="0.3" fill="#FFFFFF" cx="187.455" cy="134.366" r="5.998"/>
<circle opacity="0.3" fill="#FFFFFF" cx="198.593" cy="124.512" r="5.998"/>
<circle opacity="0.3" fill="#FFFFFF" cx="210.589" cy="130.509" r="5.998"/>
<circle opacity="0.3" fill="#FFFFFF" cx="214.587" cy="60.691" r="5.998"/>
<circle opacity="0.3" fill="#FFFFFF" cx="222.584" cy="140.364" r="5.998"/>
<circle opacity="0.3" fill="#FFFFFF" cx="222.584" cy="176.35" r="5.998"/>
<circle opacity="0.3" fill="#FFFFFF" cx="214.873" cy="188.345" r="5.998"/>
<circle opacity="0.3" fill="#FFFFFF" cx="201.735" cy="198.621" r="5.998"/>
<circle opacity="0.3" fill="#FFFFFF" cx="240.292" cy="172.64" r="5.998"/>
<circle opacity="0.3" fill="#FFFFFF" cx="153.865" cy="198.136" r="5.998"/>
<circle opacity="0.3" fill="#FFFFFF" cx="169.869" cy="217.195" r="5.998"/>
<circle opacity="0.3" fill="#FFFFFF" cx="171.011" cy="203.486" r="5.998"/>
<circle opacity="0.3" fill="#FFFFFF" cx="229.214" cy="221.904" r="5.998"/>
<circle opacity="0.3" fill="#FFFFFF" cx="242.352" cy="221.904" r="5.998"/>
<circle opacity="0.3" fill="#FFFFFF" cx="236.354" cy="209.909" r="5.998"/>
<circle opacity="0.3" fill="#FFFFFF" cx="207.283" cy="209.909" r="5.998"/>
<circle opacity="0.3" fill="#FFFFFF" cx="203.916" cy="223.618" r="5.998"/>
<circle opacity="0.3" fill="#FFFFFF" cx="216.586" cy="227.477" r="5.998"/>
<circle opacity="0.3" fill="#FFFFFF" cx="220.931" cy="209.909" r="5.998"/>
<circle opacity="0.3" fill="#FFFFFF" cx="157.578" cy="222.127" r="5.998"/>
<circle opacity="0.3" fill="#FFFFFF" cx="183.006" cy="209.483" r="5.998"/>
<circle opacity="0.3" fill="#FFFFFF" cx="250.573" cy="203.911" r="5.998"/>
<circle opacity="0.3" fill="#FFFFFF" cx="226.929" cy="197.913" r="5.998"/>
<circle opacity="0.3" fill="#FFFFFF" cx="235.212" cy="185.112" r="5.998"/>
<circle opacity="0.3" fill="#FFFFFF" cx="245.724" cy="192.623" r="5.998"/>
<circle opacity="0.3" fill="#FFFFFF" cx="250.063" cy="180.491" r="5.998"/>
<circle opacity="0.3" fill="#FFFFFF" cx="189.004" cy="221.479" r="5.998"/>
<circle opacity="0.3" fill="#FFFFFF" cx="175.866" cy="231.754" r="5.998"/>
<circle opacity="0.3" fill="#FFFFFF" cx="228.969" cy="151.656" r="5.998"/>
<circle opacity="0.3" fill="#FFFFFF" cx="229.476" cy="165.058" r="5.998"/>
<circle opacity="0.3" fill="#FFFFFF" cx="9.024" cy="23.419" r="5.998"/>
<circle opacity="0.3" fill="#FFFFFF" cx="21.019" cy="33.273" r="5.998"/>
<circle opacity="0.3" fill="#FFFFFF" cx="21.019" cy="69.259" r="5.998"/>
<circle opacity="0.3" fill="#FFFFFF" cx="13.308" cy="81.255" r="5.998"/>
<circle opacity="0.3" fill="#FFFFFF" cx="15.307" cy="55.546" r="5.998"/>
<circle opacity="0.3" fill="#FFFFFF" cx="60.29" cy="85.817" r="5.998"/>
<circle opacity="0.3" fill="#FFFFFF" cx="66.288" cy="71.257" r="5.998"/>
<circle opacity="0.3" fill="#FFFFFF" cx="78.283" cy="83.253" r="5.998"/>
<circle opacity="0.3" fill="#FFFFFF" cx="79.426" cy="69.543" r="5.998"/>
<circle opacity="0.3" fill="#FFFFFF" cx="54.292" cy="69.543" r="5.998"/>
<circle opacity="0.3" fill="#FFFFFF" cx="70.715" cy="56.12" r="5.998"/>
<circle opacity="0.3" fill="#FFFFFF" cx="35.442" cy="65.259" r="5.998"/>
<circle opacity="0.3" fill="#FFFFFF" cx="31.158" cy="53.468" r="5.998"/>
<circle opacity="0.3" fill="#FFFFFF" cx="45.989" cy="58.978" r="5.998"/>
<circle opacity="0.3" fill="#FFFFFF" cx="148.508" cy="76.969" r="5.998"/>
<circle opacity="0.3" fill="#FFFFFF" cx="91.421" cy="75.541" r="5.998"/>
<circle opacity="0.3" fill="#FFFFFF" cx="105.13" cy="75.541" r="5.998"/>
<circle opacity="0.3" fill="#FFFFFF" cx="97.419" cy="87.537" r="5.998"/>
<circle opacity="0.3" fill="#FFFFFF" cx="84.281" cy="97.812" r="5.998"/>
<circle opacity="0.3" fill="#FFFFFF" cx="11.451" cy="146.651" r="5.998"/>
<circle opacity="0.3" fill="#FFFFFF" cx="29.445" cy="144.087" r="5.998"/>
<circle opacity="0.3" fill="#FFFFFF" cx="31.211" cy="130.377" r="5.998"/>
<circle opacity="0.3" fill="#FFFFFF" cx="36.585" cy="118.382" r="5.998"/>
<circle opacity="0.3" fill="#FFFFFF" cx="30.587" cy="106.387" r="5.998"/>
<circle opacity="0.3" fill="#FFFFFF" cx="65.799" cy="120.38" r="5.998"/>
<circle opacity="0.3" fill="#FFFFFF" cx="75.631" cy="110.098" r="5.998"/>
<circle opacity="0.3" fill="#FFFFFF" cx="21.162" cy="156.082" r="5.998"/>
<circle opacity="0.3" fill="#FFFFFF" cx="42.583" cy="136.375" r="5.998"/>
<circle opacity="0.3" fill="#FFFFFF" cx="44.296" cy="106.387" r="5.998"/>
<circle opacity="0.3" fill="#FFFFFF" cx="17.856" cy="104.1" r="5.998"/>
<circle opacity="0.3" fill="#FFFFFF" cx="32.301" cy="84.537" r="5.998"/>
<circle opacity="0.3" fill="#FFFFFF" cx="44.296" cy="90.534" r="5.998"/>
<circle opacity="0.3" fill="#FFFFFF" cx="44.296" cy="76.969" r="5.998"/>
<circle opacity="0.3" fill="#FFFFFF" cx="56.292" cy="100.389" r="5.998"/>
<circle opacity="0.3" fill="#FFFFFF" cx="56.292" cy="136.375" r="5.998"/>
<circle opacity="0.3" fill="#FFFFFF" cx="48.58" cy="148.371" r="5.998"/>
<circle opacity="0.3" fill="#FFFFFF" cx="35.442" cy="158.646" r="5.998"/>
<circle opacity="0.3" fill="#FFFFFF" cx="97.133" cy="148.939" r="5.998"/>
<circle opacity="0.3" fill="#FFFFFF" cx="103.131" cy="134.379" r="5.998"/>
<circle opacity="0.3" fill="#FFFFFF" cx="115.126" cy="146.374" r="5.998"/>
<circle opacity="0.3" fill="#FFFFFF" cx="116.269" cy="132.665" r="5.998"/>
<circle opacity="0.3" fill="#FFFFFF" cx="109.129" cy="120.67" r="5.998"/>
<circle opacity="0.3" fill="#FFFFFF" cx="122.267" cy="120.67" r="5.998"/>
<circle opacity="0.3" fill="#FFFFFF" cx="116.269" cy="108.675" r="5.998"/>
<circle opacity="0.3" fill="#FFFFFF" cx="73.999" cy="132.665" r="5.998"/>
<circle opacity="0.3" fill="#FFFFFF" cx="83.831" cy="122.384" r="5.998"/>
<circle opacity="0.3" fill="#FFFFFF" cx="97.133" cy="123.227" r="5.998"/>
<circle opacity="0.3" fill="#FFFFFF" cx="100.846" cy="108.675" r="5.998"/>
<circle opacity="0.3" fill="#FFFFFF" cx="106.844" cy="158.37" r="5.998"/>
<circle opacity="0.3" fill="#FFFFFF" cx="128.264" cy="138.663" r="5.998"/>
<circle opacity="0.3" fill="#FFFFFF" cx="129.978" cy="108.675" r="5.998"/>
<circle opacity="0.3" fill="#FFFFFF" cx="106.844" cy="96.679" r="5.998"/>
<circle opacity="0.3" fill="#FFFFFF" cx="117.982" cy="86.825" r="5.998"/>
<circle opacity="0.3" fill="#FFFFFF" cx="129.978" cy="92.822" r="5.998"/>
<circle opacity="0.3" fill="#FFFFFF" cx="129.978" cy="79.257" r="5.998"/>
<circle opacity="0.3" fill="#FFFFFF" cx="141.973" cy="102.677" r="5.998"/>
<circle opacity="0.3" fill="#FFFFFF" cx="141.973" cy="138.663" r="5.998"/>
<circle opacity="0.3" fill="#FFFFFF" cx="134.262" cy="150.659" r="5.998"/>
<circle opacity="0.3" fill="#FFFFFF" cx="121.124" cy="160.934" r="5.998"/>
<circle opacity="0.3" fill="#FFFFFF" cx="50.294" cy="122.384" r="5.998"/>
<circle opacity="0.3" fill="#FFFFFF" cx="202.142" cy="39.112" r="5.998"/>
<circle opacity="0.3" fill="#FFFFFF" cx="190.107" cy="24.411" r="5.998"/>
<circle opacity="0.3" fill="#FFFFFF" cx="203.16" cy="14.619" r="5.998"/>
<circle opacity="0.3" fill="#FFFFFF" cx="179.801" cy="5.277" r="5.998"/>
<circle opacity="0.3" fill="#FFFFFF" cx="233.437" cy="24.701" r="5.998"/>
<circle opacity="0.3" fill="#FFFFFF" cx="250.573" cy="21.263" r="5.998"/>
<circle opacity="0.3" fill="#FFFFFF" cx="240.577" cy="12.706" r="5.998"/>
<circle opacity="0.3" fill="#FFFFFF" cx="208.14" cy="26.415" r="5.998"/>
<circle opacity="0.3" fill="#FFFFFF" cx="220.992" cy="31.545" r="5.998"/>
<circle opacity="0.3" fill="#FFFFFF" cx="225.155" cy="12.706" r="5.998"/>
<circle opacity="0.3" fill="#FFFFFF" cx="174.602" cy="26.415" r="5.998"/>
<circle opacity="0.3" fill="#FFFFFF" cx="132.799" cy="29.179" r="5.998"/>
<circle opacity="0.3" fill="#FFFFFF" cx="138.797" cy="14.619" r="5.998"/>
<circle opacity="0.3" fill="#FFFFFF" cx="150.792" cy="26.615" r="5.998"/>
<circle opacity="0.3" fill="#FFFFFF" cx="151.935" cy="12.906" r="5.998"/>
<circle opacity="0.3" fill="#FFFFFF" cx="103.417" cy="26.615" r="5.998"/>
<circle opacity="0.3" fill="#FFFFFF" cx="111.128" cy="52.037" r="5.998"/>
<circle opacity="0.3" fill="#FFFFFF" cx="128.264" cy="5.277" r="5.998"/>
<circle opacity="0.3" fill="#FFFFFF" cx="142.51" cy="38.61" r="5.998"/>
<circle opacity="0.3" fill="#FFFFFF" cx="156.79" cy="41.175" r="5.998"/>
<circle opacity="0.3" fill="#FFFFFF" cx="7.31" cy="92.664" r="5.998"/>
<circle opacity="0.3" fill="#FFFFFF" cx="43.689" cy="22.048" r="5.998"/>
<circle opacity="0.3" fill="#FFFFFF" cx="55.684" cy="34.044" r="5.998"/>
<circle opacity="0.3" fill="#FFFFFF" cx="56.827" cy="20.335" r="5.998"/>
<circle opacity="0.3" fill="#FFFFFF" cx="30.397" cy="20.335" r="5.998"/>
<circle opacity="0.3" fill="#FFFFFF" cx="48.295" cy="10.053" r="5.998"/>
<circle opacity="0.3" fill="#FFFFFF" cx="47.402" cy="46.039" r="5.998"/>
<circle opacity="0.3" fill="#FFFFFF" cx="68.822" cy="26.332" r="5.998"/>
<circle opacity="0.3" fill="#FFFFFF" cx="82.531" cy="26.332" r="5.998"/>
<circle opacity="0.3" fill="#FFFFFF" cx="74.82" cy="38.328" r="5.998"/>
<circle opacity="0.3" fill="#FFFFFF" cx="84.245" cy="47.47" r="5.998"/>
<circle opacity="0.3" fill="#FFFFFF" cx="95.384" cy="37.616" r="5.998"/>
<circle opacity="0.3" fill="#FFFFFF" cx="82.531" cy="10.053" r="5.998"/>
<circle opacity="0.3" fill="#FFFFFF" cx="95.384" cy="6.708" r="5.998"/>
<circle opacity="0.3" fill="#FFFFFF" cx="22.305" cy="10.053" r="5.998"/>
<circle opacity="0.3" fill="#FFFFFF" cx="6.569" cy="160.934" r="5.998"/>
<circle opacity="0.3" fill="#FFFFFF" cx="243.457" cy="37.543" r="5.998"/>
<circle opacity="0.3" fill="#FFFFFF" cx="238.578" cy="50.207" r="5.998"/>
<circle opacity="0.3" fill="#FFFFFF" cx="224.298" cy="45.11" r="5.998"/>
<circle opacity="0.3" fill="#FFFFFF" cx="21.421" cy="92.1" r="5.998"/>
<circle opacity="0.3" fill="#FFFFFF" cx="200.817" cy="248.601" r="5.998"/>
<circle opacity="0.3" fill="#FFFFFF" cx="206.815" cy="236.605" r="5.998"/>
<circle opacity="0.3" fill="#FFFFFF" cx="250.288" cy="248.607" r="5.998"/>
<circle opacity="0.3" fill="#FFFFFF" cx="245.56" cy="235.613" r="5.998"/>
<circle opacity="0.3" fill="#FFFFFF" cx="35.442" cy="5.453" r="5.998"/>
<circle opacity="0.3" fill="#FFFFFF" cx="192.947" cy="6.059" r="5.998"/>
<circle opacity="0.3" fill="#FFFFFF" cx="212.302" cy="6.059" r="5.998"/>
<circle opacity="0.3" fill="#FFFFFF" cx="122.267" cy="45.11" r="5.998"/>
<circle opacity="0.3" fill="#FFFFFF" cx="84.953" cy="160.934" r="5.998"/>
<circle opacity="0.3" fill="#FFFFFF" cx="137.294" cy="176.071" r="5.998"/>
<circle opacity="0.3" fill="#FFFFFF" cx="151.468" cy="166.932" r="5.998"/>
<circle opacity="0.3" fill="#FFFFFF" cx="93.91" cy="172.066" r="5.998"/>
<circle opacity="0.3" fill="#FFFFFF" cx="250.573" cy="60.962" r="5.998"/>
<circle opacity="0.3" fill="#FFFFFF" cx="250.573" cy="129.225" r="5.998"/>
<circle opacity="0.3" fill="#FFFFFF" cx="248.289" cy="142.505" r="5.998"/>
<circle opacity="0.3" fill="#FFFFFF" cx="6.569" cy="134.366" r="5.998"/>
<circle opacity="0.3" fill="#FFFFFF" cx="23.447" cy="118.514" r="5.998"/>
<circle opacity="0.3" fill="#FFFFFF" cx="236.845" cy="245.048" r="5.998"/>
<circle opacity="0.3" fill="#FFFFFF" cx="6.569" cy="238.684" r="5.998"/>
</svg>
