<?xml version="1.0" encoding="utf-8"?>
<!-- Generator: Adobe Illustrator 17.0.0, SVG Export Plug-In . SVG Version: 6.00 Build 0)  -->
<!DOCTYPE svg PUBLIC "-//W3C//DTD SVG 1.1//EN" "http://www.w3.org/Graphics/SVG/1.1/DTD/svg11.dtd">
<svg version="1.1" id="Layer_1" xmlns="http://www.w3.org/2000/svg" xmlns:xlink="http://www.w3.org/1999/xlink" x="0px" y="0px"
	 width="256px" height="256px" viewBox="0 0 256 256" enable-background="new 0 0 256 256" xml:space="preserve">
<path fill="#00A651" d="M-0.002,200.224"/>
<polygon opacity="0.1" fill="#FFFFFF" points="-0.002,171.715 11.391,171.708 143.67,47.176 11.391,42.677 -0.002,53.936 
	-0.002,30.046 12.444,17.924 197.389,22.949 8.853,200.45 -0.002,200.293 "/>
<polygon opacity="0.1" fill="#FFFFFF" points="-0.002,224.981 6.039,225.075 232.107,0 255.998,0 255.998,0.575 0.533,256 
	-0.002,256 "/>
<polygon opacity="0.1" fill="#FFFFFF" points="255.999,147.575 233.986,147.644 255.999,127.668 "/>
<polygon opacity="0.1" fill="#FFFFFF" points="255.998,171.731 255.999,200.309 129.181,197.15 255.999,78.121 255.999,102.262 
	181.32,171.343 "/>
<polygon opacity="0.1" fill="#FFFFFF" points="87.555,220.252 256.002,224.981 255.998,256 232.189,256 34.889,245.268 
	256.002,30.091 256.002,53.951 "/>
<path fill="#2E3192" d="M-0.002,171.715"/>
<polygon opacity="0.1" fill="#FFFFFF" points="-0.002,127.637 39.808,91.1 11.917,91.13 -0.002,102.246 -0.002,78.09 12.444,66.377 
	92.057,71.402 11.391,147.482 -0.002,147.559 "/>
<polygon opacity="0.1" fill="#FFFFFF" points="0.509,0 -0.002,0.559 -0.002,0 "/>
</svg>
