<?xml version="1.0" encoding="utf-8"?>
<!-- Generator: Adobe Illustrator 17.0.0, SVG Export Plug-In . SVG Version: 6.00 Build 0)  -->
<!DOCTYPE svg PUBLIC "-//W3C//DTD SVG 1.1//EN" "http://www.w3.org/Graphics/SVG/1.1/DTD/svg11.dtd">
<svg version="1.1" id="Layer_1" xmlns="http://www.w3.org/2000/svg" xmlns:xlink="http://www.w3.org/1999/xlink" x="0px" y="0px"
	 width="256px" height="256px" viewBox="0 0 256 256" enable-background="new 0 0 256 256" xml:space="preserve">
<polygon opacity="0.3" fill="#FFFFFF" points="0,112.436 0,103.28 49.562,18.477 26.576,10.401 28.022,0 33.271,0 32.641,6.791 
	57.192,16.057 "/>
<polygon opacity="0.3" fill="#FFFFFF" points="6.145,73.496 0,83.815 0,93.352 40.291,23.98 0,15.432 0,20.682 32.955,27.413 
	8.675,69.279 0,61.245 0,67.723 "/>
<polygon opacity="0.3" fill="#FFFFFF" points="65.908,72.768 32.826,128.786 0,163.748 0,170.028 36.779,133.258 110.513,4.111 
	106.386,1.811 69.359,66.719 60.712,61.689 93.711,0 88.115,0 21.667,121.289 0,148.349 0,156.151 25.068,126.236 57.289,67.417 "/>
<polygon opacity="0.3" fill="#FFFFFF" points="0,209.732 0,204.819 176.296,231.892 175.031,256 169.684,256 170.124,236.373 "/>
<polygon opacity="0.3" fill="#FFFFFF" points="0,220.304 0,215.652 162.691,240.807 161.183,256 156.392,256 157.346,244.535 "/>
<polygon opacity="0.3" fill="#FFFFFF" points="0,230.563 0,225.613 147.936,248.144 147.537,256 142.75,256 143.045,252.33 
	50.834,238.512 49.105,256 42.329,256 45.594,237.501 36.113,235.826 33.268,256 27.945,256 30.705,235.235 21.517,233.936 
	19.29,256 14.011,256 16.268,233.038 "/>
<polygon opacity="0.3" fill="#FFFFFF" points="152.89,135.261 148.175,134.974 156.367,0 161.164,0 "/>
<polygon opacity="0.3" fill="#FFFFFF" points="139.161,138.756 134.446,138.469 142.713,0 147.499,0 "/>
<polygon opacity="0.3" fill="#FFFFFF" points="121.03,147.977 129.24,6.25 133.955,6.537 126.948,143.018 256,150.166 256,156.171 
	"/>
<rect x="177.491" y="47.206" transform="matrix(0.9981 0.0609 -0.0609 0.9981 5.6795 -10.7845)" opacity="0.3" fill="#FFFFFF" width="4.724" height="81.246"/>
<polygon opacity="0.3" fill="#FFFFFF" points="122.947,192.504 15.345,171.57 0,184.237 0,179.019 36.206,146.72 117.608,0 
	117.608,0 122.451,0 114.148,150.935 256,163.684 256,170.103 108.205,155.552 115.825,12.491 109.429,24.157 99.896,158.721 
	256,179.048 256,184.278 93.711,163.419 102.861,34.443 95.79,49.014 86.437,167.166 228.439,194.171 256,190.297 256,195.415 
	227.584,198.817 79.874,171.881 88.833,62.947 44.806,141.644 70.461,148.671 74.703,102.529 80.301,102.733 75.142,156.151 
	41.554,147.457 38.977,152.063 20.125,167.625 227.79,206.497 256,204.819 256,209.758 253.157,210.47 252.332,215.009 256,215.679 
	256,220.276 251.489,219.653 250.575,224.684 256,225.624 256,230.549 249.707,229.466 244.888,256 238.983,256 247.691,211.532 
	242.696,212.025 231.896,256 224.956,256 237.082,212.206 232.045,212.833 217.722,256 211.964,256 226.436,212.637 
	130.108,193.897 124.794,209.064 192.64,220.094 191.98,227.069 218.057,225.613 215.651,231.92 191.359,233.648 189.392,256 
	182.854,256 185.252,225.613 15.337,196.052 17.214,189.895 117.833,207.764 "/>
<polygon opacity="0.3" fill="#FFFFFF" points="166.77,131.652 162.055,131.365 169.721,0 175.112,0 182.66,0.502 182.789,0 
	189.314,0 189.319,1.015 210.188,5.315 212.046,0 217.672,0 215.569,6.527 222.869,8.127 224.945,0 231.82,0 229.717,9.311 
	236.706,11.072 238.922,0 244.831,0 243.127,12.095 256,15.523 256,20.747 197.791,8.876 207.465,17.693 256,28.727 256,33.878 
	214.636,24.218 256,61.29 256,67.831 188.814,7.067 174.784,4.357 "/>
<polygon opacity="0.3" fill="#FFFFFF" points="225.358,127.09 256,124.438 256,130.848 221.696,134.211 217.984,133.162 
	234.926,60.72 177.973,11.995 181.051,8.411 240.675,59.07 "/>
<polygon opacity="0.3" fill="#FFFFFF" points="208.453,144.875 209.541,118.261 223.815,64.487 177.128,24.398 180.206,20.814 
	229.107,62.26 214.086,118.684 213.052,139.819 256,136.268 256,141.946 "/>
<polygon opacity="0.3" fill="#FFFFFF" points="192.689,107.315 191.047,123.9 186.862,123.613 189.966,77.322 194.682,77.61 
	192.951,103.411 201.627,103.72 211.355,67.262 199.277,56.876 202.553,52.755 217.356,65.724 205.506,105.727 203.469,120.221 
	199.277,119.966 201.083,107.444 "/>
<polygon opacity="0.3" fill="#FFFFFF" points="70.513,11.369 19.115,112.576 0,131.564 0,124.484 15.219,108.654 64.076,13.126 
	42.361,0 49.459,0 "/>
<polygon opacity="0.3" fill="#FFFFFF" points="0,28.733 21.075,33.882 20.146,38.486 0,33.943 "/>
<polygon opacity="0.3" fill="#FFFFFF" points="256,83.839 241.048,70.367 239.264,78.095 256,93.452 "/>
<polygon opacity="0.3" fill="#FFFFFF" points="256,103.458 246.696,95.731 244.163,102.955 256,112.517 "/>
</svg>
