<?xml version="1.0" encoding="utf-8"?>
<!-- Generator: Adobe Illustrator 17.0.0, SVG Export Plug-In . SVG Version: 6.00 Build 0)  -->
<!DOCTYPE svg PUBLIC "-//W3C//DTD SVG 1.1//EN" "http://www.w3.org/Graphics/SVG/1.1/DTD/svg11.dtd">
<svg version="1.1" id="Layer_1" xmlns="http://www.w3.org/2000/svg" xmlns:xlink="http://www.w3.org/1999/xlink" x="0px" y="0px"
	 width="256px" height="256px" viewBox="0 0 256 256" enable-background="new 0 0 256 256" xml:space="preserve">
<ellipse opacity="0.4" fill="#FFFFFF" cx="7.562" cy="120.22" rx="6.665" ry="6.929"/>
<ellipse opacity="0.4" fill="#FFFFFF" cx="7.562" cy="103.29" rx="6.257" ry="6.505"/>
<ellipse opacity="0.4" fill="#FFFFFF" cx="22.624" cy="103.29" rx="6.257" ry="6.505"/>
<ellipse opacity="0.4" fill="#FFFFFF" cx="37.686" cy="103.29" rx="6.257" ry="6.505"/>
<ellipse opacity="0.4" fill="#FFFFFF" cx="52.747" cy="103.29" rx="6.257" ry="6.505"/>
<ellipse opacity="0.4" fill="#FFFFFF" cx="67.809" cy="103.29" rx="6.257" ry="6.505"/>
<ellipse opacity="0.4" fill="#FFFFFF" cx="82.871" cy="103.29" rx="6.257" ry="6.505"/>
<ellipse opacity="0.4" fill="#FFFFFF" cx="97.932" cy="103.29" rx="6.257" ry="6.505"/>
<ellipse opacity="0.4" fill="#FFFFFF" cx="112.994" cy="103.29" rx="6.257" ry="6.505"/>
<ellipse opacity="0.4" fill="#FFFFFF" cx="128.056" cy="103.29" rx="6.257" ry="6.505"/>
<ellipse opacity="0.4" fill="#FFFFFF" cx="143.117" cy="103.29" rx="6.257" ry="6.505"/>
<ellipse opacity="0.4" fill="#FFFFFF" cx="158.179" cy="103.29" rx="6.257" ry="6.505"/>
<ellipse opacity="0.4" fill="#FFFFFF" cx="173.241" cy="103.29" rx="6.257" ry="6.505"/>
<ellipse opacity="0.4" fill="#FFFFFF" cx="188.302" cy="103.29" rx="6.257" ry="6.505"/>
<ellipse opacity="0.4" fill="#FFFFFF" cx="203.364" cy="103.29" rx="6.257" ry="6.505"/>
<ellipse opacity="0.4" fill="#FFFFFF" cx="218.426" cy="103.29" rx="6.257" ry="6.505"/>
<ellipse opacity="0.4" fill="#FFFFFF" cx="233.487" cy="103.29" rx="6.257" ry="6.505"/>
<ellipse opacity="0.4" fill="#FFFFFF" cx="248.549" cy="103.29" rx="6.257" ry="6.505"/>
<ellipse opacity="0.4" fill="#FFFFFF" cx="7.562" cy="86.391" rx="4.84" ry="5.032"/>
<ellipse opacity="0.4" fill="#FFFFFF" cx="22.624" cy="86.391" rx="4.84" ry="5.032"/>
<ellipse opacity="0.4" fill="#FFFFFF" cx="37.686" cy="86.391" rx="4.84" ry="5.032"/>
<ellipse opacity="0.4" fill="#FFFFFF" cx="52.747" cy="86.391" rx="4.84" ry="5.032"/>
<ellipse opacity="0.4" fill="#FFFFFF" cx="67.809" cy="86.391" rx="4.84" ry="5.032"/>
<ellipse opacity="0.4" fill="#FFFFFF" cx="82.871" cy="86.391" rx="4.84" ry="5.032"/>
<ellipse opacity="0.4" fill="#FFFFFF" cx="97.932" cy="86.391" rx="4.84" ry="5.032"/>
<ellipse opacity="0.4" fill="#FFFFFF" cx="112.994" cy="86.391" rx="4.84" ry="5.032"/>
<ellipse opacity="0.4" fill="#FFFFFF" cx="128.056" cy="86.391" rx="4.84" ry="5.032"/>
<ellipse opacity="0.4" fill="#FFFFFF" cx="143.117" cy="86.391" rx="4.84" ry="5.032"/>
<ellipse opacity="0.4" fill="#FFFFFF" cx="158.179" cy="86.391" rx="4.84" ry="5.032"/>
<ellipse opacity="0.4" fill="#FFFFFF" cx="173.241" cy="86.391" rx="4.84" ry="5.032"/>
<ellipse opacity="0.4" fill="#FFFFFF" cx="188.302" cy="86.391" rx="4.84" ry="5.032"/>
<ellipse opacity="0.4" fill="#FFFFFF" cx="203.364" cy="86.391" rx="4.84" ry="5.032"/>
<ellipse opacity="0.4" fill="#FFFFFF" cx="218.426" cy="86.391" rx="4.84" ry="5.032"/>
<ellipse opacity="0.4" fill="#FFFFFF" cx="233.487" cy="86.391" rx="4.84" ry="5.032"/>
<ellipse opacity="0.4" fill="#FFFFFF" cx="248.549" cy="86.391" rx="4.84" ry="5.032"/>
<ellipse opacity="0.4" fill="#FFFFFF" cx="7.452" cy="69.668" rx="3.269" ry="3.399"/>
<ellipse opacity="0.4" fill="#FFFFFF" cx="22.679" cy="69.668" rx="3.269" ry="3.399"/>
<ellipse opacity="0.4" fill="#FFFFFF" cx="37.741" cy="69.668" rx="3.269" ry="3.399"/>
<ellipse opacity="0.4" fill="#FFFFFF" cx="52.582" cy="69.668" rx="3.269" ry="3.399"/>
<ellipse opacity="0.4" fill="#FFFFFF" cx="67.644" cy="69.668" rx="3.269" ry="3.399"/>
<ellipse opacity="0.4" fill="#FFFFFF" cx="83.036" cy="69.668" rx="3.269" ry="3.399"/>
<ellipse opacity="0.4" fill="#FFFFFF" cx="98.097" cy="69.668" rx="3.269" ry="3.399"/>
<ellipse opacity="0.4" fill="#FFFFFF" cx="112.939" cy="69.668" rx="3.269" ry="3.399"/>
<ellipse opacity="0.4" fill="#FFFFFF" cx="128.001" cy="69.668" rx="3.269" ry="3.399"/>
<ellipse opacity="0.4" fill="#FFFFFF" cx="143.145" cy="69.668" rx="3.269" ry="3.399"/>
<ellipse opacity="0.4" fill="#FFFFFF" cx="158.206" cy="69.668" rx="3.269" ry="3.399"/>
<ellipse opacity="0.4" fill="#FFFFFF" cx="173.048" cy="69.668" rx="3.269" ry="3.399"/>
<ellipse opacity="0.4" fill="#FFFFFF" cx="188.11" cy="69.668" rx="3.269" ry="3.399"/>
<ellipse opacity="0.4" fill="#FFFFFF" cx="203.501" cy="69.668" rx="3.269" ry="3.399"/>
<ellipse opacity="0.4" fill="#FFFFFF" cx="218.563" cy="69.668" rx="3.269" ry="3.399"/>
<ellipse opacity="0.4" fill="#FFFFFF" cx="233.405" cy="69.668" rx="3.269" ry="3.399"/>
<ellipse opacity="0.4" fill="#FFFFFF" cx="248.466" cy="69.668" rx="3.269" ry="3.399"/>
<ellipse opacity="0.4" fill="#FFFFFF" cx="7.192" cy="54.214" rx="2.216" ry="2.304"/>
<ellipse opacity="0.4" fill="#FFFFFF" cx="22.568" cy="54.214" rx="2.216" ry="2.304"/>
<ellipse opacity="0.4" fill="#FFFFFF" cx="37.63" cy="54.214" rx="2.216" ry="2.304"/>
<ellipse opacity="0.4" fill="#FFFFFF" cx="52.358" cy="54.214" rx="2.216" ry="2.304"/>
<ellipse opacity="0.4" fill="#FFFFFF" cx="67.419" cy="54.214" rx="2.216" ry="2.304"/>
<ellipse opacity="0.4" fill="#FFFFFF" cx="82.778" cy="54.214" rx="2.216" ry="2.304"/>
<ellipse opacity="0.4" fill="#FFFFFF" cx="97.84" cy="54.214" rx="2.216" ry="2.304"/>
<ellipse opacity="0.4" fill="#FFFFFF" cx="112.568" cy="54.214" rx="2.216" ry="2.304"/>
<ellipse opacity="0.4" fill="#FFFFFF" cx="127.629" cy="54.214" rx="2.216" ry="2.304"/>
<ellipse opacity="0.4" fill="#FFFFFF" cx="143.33" cy="54.214" rx="2.216" ry="2.304"/>
<ellipse opacity="0.4" fill="#FFFFFF" cx="158.392" cy="54.214" rx="2.216" ry="2.304"/>
<ellipse opacity="0.4" fill="#FFFFFF" cx="173.12" cy="54.214" rx="2.216" ry="2.304"/>
<ellipse opacity="0.4" fill="#FFFFFF" cx="188.182" cy="54.214" rx="2.216" ry="2.304"/>
<ellipse opacity="0.4" fill="#FFFFFF" cx="203.54" cy="54.214" rx="2.216" ry="2.304"/>
<ellipse opacity="0.4" fill="#FFFFFF" cx="218.602" cy="54.214" rx="2.216" ry="2.304"/>
<ellipse opacity="0.4" fill="#FFFFFF" cx="233.33" cy="54.214" rx="2.216" ry="2.304"/>
<ellipse opacity="0.4" fill="#FFFFFF" cx="248.392" cy="54.214" rx="2.216" ry="2.304"/>
<ellipse opacity="0.4" fill="#FFFFFF" cx="6.958" cy="38.663" rx="1.547" ry="1.608"/>
<ellipse opacity="0.4" fill="#FFFFFF" cx="22.589" cy="38.663" rx="1.547" ry="1.608"/>
<ellipse opacity="0.4" fill="#FFFFFF" cx="37.65" cy="38.663" rx="1.547" ry="1.608"/>
<ellipse opacity="0.4" fill="#FFFFFF" cx="52.318" cy="38.663" rx="1.547" ry="1.608"/>
<ellipse opacity="0.4" fill="#FFFFFF" cx="67.38" cy="38.663" rx="1.547" ry="1.608"/>
<ellipse opacity="0.4" fill="#FFFFFF" cx="82.625" cy="38.663" rx="1.547" ry="1.608"/>
<ellipse opacity="0.4" fill="#FFFFFF" cx="97.686" cy="38.663" rx="1.547" ry="1.608"/>
<ellipse opacity="0.4" fill="#FFFFFF" cx="112.354" cy="38.663" rx="1.547" ry="1.608"/>
<ellipse opacity="0.4" fill="#FFFFFF" cx="127.415" cy="38.663" rx="1.547" ry="1.608"/>
<ellipse opacity="0.4" fill="#FFFFFF" cx="143.711" cy="38.663" rx="1.547" ry="1.608"/>
<ellipse opacity="0.4" fill="#FFFFFF" cx="158.772" cy="38.663" rx="1.547" ry="1.608"/>
<ellipse opacity="0.4" fill="#FFFFFF" cx="173.44" cy="38.663" rx="1.547" ry="1.608"/>
<ellipse opacity="0.4" fill="#FFFFFF" cx="188.502" cy="38.663" rx="1.547" ry="1.608"/>
<ellipse opacity="0.4" fill="#FFFFFF" cx="203.747" cy="38.663" rx="1.547" ry="1.608"/>
<ellipse opacity="0.4" fill="#FFFFFF" cx="218.808" cy="38.663" rx="1.547" ry="1.608"/>
<ellipse opacity="0.4" fill="#FFFFFF" cx="233.476" cy="38.663" rx="1.547" ry="1.608"/>
<ellipse opacity="0.4" fill="#FFFFFF" cx="248.538" cy="38.663" rx="1.547" ry="1.608"/>
<ellipse opacity="0.4" fill="#FFFFFF" cx="6.52" cy="21.184" rx="0.949" ry="0.987"/>
<ellipse opacity="0.4" fill="#FFFFFF" cx="22.638" cy="21.184" rx="0.949" ry="0.987"/>
<ellipse opacity="0.4" fill="#FFFFFF" cx="37.699" cy="21.184" rx="0.949" ry="0.987"/>
<ellipse opacity="0.4" fill="#FFFFFF" cx="52.205" cy="21.184" rx="0.949" ry="0.987"/>
<ellipse opacity="0.4" fill="#FFFFFF" cx="67.267" cy="21.184" rx="0.949" ry="0.987"/>
<ellipse opacity="0.4" fill="#FFFFFF" cx="82.398" cy="21.184" rx="0.949" ry="0.987"/>
<ellipse opacity="0.4" fill="#FFFFFF" cx="97.46" cy="21.184" rx="0.949" ry="0.987"/>
<ellipse opacity="0.4" fill="#FFFFFF" cx="111.966" cy="21.184" rx="0.949" ry="0.987"/>
<ellipse opacity="0.4" fill="#FFFFFF" cx="127.027" cy="21.184" rx="0.949" ry="0.987"/>
<ellipse opacity="0.4" fill="#FFFFFF" cx="144.062" cy="21.184" rx="0.949" ry="0.987"/>
<ellipse opacity="0.4" fill="#FFFFFF" cx="159.124" cy="21.184" rx="0.949" ry="0.987"/>
<ellipse opacity="0.4" fill="#FFFFFF" cx="173.63" cy="21.184" rx="0.949" ry="0.987"/>
<ellipse opacity="0.4" fill="#FFFFFF" cx="188.692" cy="21.184" rx="0.949" ry="0.987"/>
<ellipse opacity="0.4" fill="#FFFFFF" cx="203.823" cy="21.184" rx="0.949" ry="0.987"/>
<ellipse opacity="0.4" fill="#FFFFFF" cx="218.884" cy="21.184" rx="0.949" ry="0.987"/>
<ellipse opacity="0.4" fill="#FFFFFF" cx="233.39" cy="21.184" rx="0.949" ry="0.987"/>
<ellipse opacity="0.4" fill="#FFFFFF" cx="248.452" cy="21.184" rx="0.949" ry="0.987"/>
<ellipse opacity="0.4" fill="#FFFFFF" cx="7.562" cy="139.347" rx="6.257" ry="6.505"/>
<ellipse opacity="0.4" fill="#FFFFFF" cx="22.624" cy="139.347" rx="6.257" ry="6.505"/>
<ellipse opacity="0.4" fill="#FFFFFF" cx="37.686" cy="139.347" rx="6.257" ry="6.505"/>
<ellipse opacity="0.4" fill="#FFFFFF" cx="52.747" cy="139.347" rx="6.257" ry="6.505"/>
<ellipse opacity="0.4" fill="#FFFFFF" cx="67.809" cy="139.347" rx="6.257" ry="6.505"/>
<ellipse opacity="0.4" fill="#FFFFFF" cx="82.871" cy="139.347" rx="6.257" ry="6.505"/>
<ellipse opacity="0.4" fill="#FFFFFF" cx="97.932" cy="139.347" rx="6.257" ry="6.505"/>
<ellipse opacity="0.4" fill="#FFFFFF" cx="112.994" cy="139.347" rx="6.257" ry="6.505"/>
<ellipse opacity="0.4" fill="#FFFFFF" cx="128.056" cy="139.347" rx="6.257" ry="6.505"/>
<ellipse opacity="0.4" fill="#FFFFFF" cx="143.117" cy="139.347" rx="6.257" ry="6.505"/>
<ellipse opacity="0.4" fill="#FFFFFF" cx="158.179" cy="139.347" rx="6.257" ry="6.505"/>
<ellipse opacity="0.4" fill="#FFFFFF" cx="173.241" cy="139.347" rx="6.257" ry="6.505"/>
<ellipse opacity="0.4" fill="#FFFFFF" cx="188.302" cy="139.347" rx="6.257" ry="6.505"/>
<ellipse opacity="0.4" fill="#FFFFFF" cx="203.364" cy="139.347" rx="6.257" ry="6.505"/>
<ellipse opacity="0.4" fill="#FFFFFF" cx="218.426" cy="139.347" rx="6.257" ry="6.505"/>
<ellipse opacity="0.4" fill="#FFFFFF" cx="233.487" cy="139.347" rx="6.257" ry="6.505"/>
<ellipse opacity="0.4" fill="#FFFFFF" cx="248.549" cy="139.347" rx="6.257" ry="6.505"/>
<ellipse opacity="0.4" fill="#FFFFFF" cx="7.562" cy="156.246" rx="4.84" ry="5.032"/>
<ellipse opacity="0.4" fill="#FFFFFF" cx="22.624" cy="156.246" rx="4.84" ry="5.032"/>
<ellipse opacity="0.4" fill="#FFFFFF" cx="37.686" cy="156.246" rx="4.84" ry="5.032"/>
<ellipse opacity="0.4" fill="#FFFFFF" cx="52.747" cy="156.246" rx="4.84" ry="5.032"/>
<ellipse opacity="0.4" fill="#FFFFFF" cx="67.809" cy="156.246" rx="4.84" ry="5.032"/>
<ellipse opacity="0.4" fill="#FFFFFF" cx="82.871" cy="156.246" rx="4.84" ry="5.032"/>
<ellipse opacity="0.4" fill="#FFFFFF" cx="97.932" cy="156.246" rx="4.84" ry="5.032"/>
<ellipse opacity="0.4" fill="#FFFFFF" cx="112.994" cy="156.246" rx="4.84" ry="5.032"/>
<ellipse opacity="0.4" fill="#FFFFFF" cx="128.056" cy="156.246" rx="4.84" ry="5.032"/>
<ellipse opacity="0.4" fill="#FFFFFF" cx="143.117" cy="156.246" rx="4.84" ry="5.032"/>
<ellipse opacity="0.4" fill="#FFFFFF" cx="158.179" cy="156.246" rx="4.84" ry="5.032"/>
<ellipse opacity="0.4" fill="#FFFFFF" cx="173.241" cy="156.246" rx="4.84" ry="5.032"/>
<ellipse opacity="0.4" fill="#FFFFFF" cx="188.302" cy="156.246" rx="4.84" ry="5.032"/>
<ellipse opacity="0.4" fill="#FFFFFF" cx="203.364" cy="156.246" rx="4.84" ry="5.032"/>
<ellipse opacity="0.4" fill="#FFFFFF" cx="218.426" cy="156.246" rx="4.84" ry="5.032"/>
<ellipse opacity="0.4" fill="#FFFFFF" cx="233.487" cy="156.246" rx="4.84" ry="5.032"/>
<ellipse opacity="0.4" fill="#FFFFFF" cx="248.549" cy="156.246" rx="4.84" ry="5.032"/>
<ellipse opacity="0.4" fill="#FFFFFF" cx="7.452" cy="172.969" rx="3.269" ry="3.399"/>
<ellipse opacity="0.4" fill="#FFFFFF" cx="22.679" cy="172.969" rx="3.269" ry="3.399"/>
<ellipse opacity="0.4" fill="#FFFFFF" cx="37.741" cy="172.969" rx="3.269" ry="3.399"/>
<ellipse opacity="0.4" fill="#FFFFFF" cx="52.582" cy="172.969" rx="3.269" ry="3.399"/>
<ellipse opacity="0.4" fill="#FFFFFF" cx="67.644" cy="172.969" rx="3.269" ry="3.399"/>
<ellipse opacity="0.4" fill="#FFFFFF" cx="83.036" cy="172.969" rx="3.269" ry="3.399"/>
<ellipse opacity="0.4" fill="#FFFFFF" cx="98.097" cy="172.969" rx="3.269" ry="3.399"/>
<ellipse opacity="0.4" fill="#FFFFFF" cx="112.939" cy="172.969" rx="3.269" ry="3.399"/>
<ellipse opacity="0.4" fill="#FFFFFF" cx="128.001" cy="172.969" rx="3.269" ry="3.399"/>
<ellipse opacity="0.4" fill="#FFFFFF" cx="143.145" cy="172.969" rx="3.269" ry="3.399"/>
<ellipse opacity="0.4" fill="#FFFFFF" cx="158.206" cy="172.969" rx="3.269" ry="3.399"/>
<ellipse opacity="0.4" fill="#FFFFFF" cx="173.048" cy="172.969" rx="3.269" ry="3.399"/>
<ellipse opacity="0.4" fill="#FFFFFF" cx="188.11" cy="172.969" rx="3.269" ry="3.399"/>
<ellipse opacity="0.4" fill="#FFFFFF" cx="203.501" cy="172.969" rx="3.269" ry="3.399"/>
<ellipse opacity="0.4" fill="#FFFFFF" cx="218.563" cy="172.969" rx="3.269" ry="3.399"/>
<ellipse opacity="0.4" fill="#FFFFFF" cx="233.405" cy="172.969" rx="3.269" ry="3.399"/>
<ellipse opacity="0.4" fill="#FFFFFF" cx="248.466" cy="172.969" rx="3.269" ry="3.399"/>
<ellipse opacity="0.4" fill="#FFFFFF" cx="7.192" cy="188.423" rx="2.216" ry="2.304"/>
<ellipse opacity="0.4" fill="#FFFFFF" cx="22.568" cy="188.423" rx="2.216" ry="2.304"/>
<ellipse opacity="0.4" fill="#FFFFFF" cx="37.63" cy="188.423" rx="2.216" ry="2.304"/>
<ellipse opacity="0.4" fill="#FFFFFF" cx="52.358" cy="188.423" rx="2.216" ry="2.304"/>
<ellipse opacity="0.4" fill="#FFFFFF" cx="67.419" cy="188.423" rx="2.216" ry="2.304"/>
<ellipse opacity="0.4" fill="#FFFFFF" cx="82.778" cy="188.423" rx="2.216" ry="2.304"/>
<ellipse opacity="0.4" fill="#FFFFFF" cx="97.84" cy="188.423" rx="2.216" ry="2.304"/>
<ellipse opacity="0.4" fill="#FFFFFF" cx="112.568" cy="188.423" rx="2.216" ry="2.304"/>
<ellipse opacity="0.4" fill="#FFFFFF" cx="127.629" cy="188.423" rx="2.216" ry="2.304"/>
<ellipse opacity="0.4" fill="#FFFFFF" cx="143.33" cy="188.423" rx="2.216" ry="2.304"/>
<ellipse opacity="0.4" fill="#FFFFFF" cx="158.392" cy="188.423" rx="2.216" ry="2.304"/>
<ellipse opacity="0.4" fill="#FFFFFF" cx="173.12" cy="188.423" rx="2.216" ry="2.304"/>
<ellipse opacity="0.4" fill="#FFFFFF" cx="188.182" cy="188.423" rx="2.216" ry="2.304"/>
<ellipse opacity="0.4" fill="#FFFFFF" cx="203.54" cy="188.423" rx="2.216" ry="2.304"/>
<ellipse opacity="0.4" fill="#FFFFFF" cx="218.602" cy="188.423" rx="2.216" ry="2.304"/>
<ellipse opacity="0.4" fill="#FFFFFF" cx="233.33" cy="188.423" rx="2.216" ry="2.304"/>
<ellipse opacity="0.4" fill="#FFFFFF" cx="248.392" cy="188.423" rx="2.216" ry="2.304"/>
<ellipse opacity="0.4" fill="#FFFFFF" cx="6.958" cy="203.974" rx="1.547" ry="1.608"/>
<ellipse opacity="0.4" fill="#FFFFFF" cx="22.589" cy="203.974" rx="1.547" ry="1.608"/>
<ellipse opacity="0.4" fill="#FFFFFF" cx="37.65" cy="203.974" rx="1.547" ry="1.608"/>
<ellipse opacity="0.4" fill="#FFFFFF" cx="52.318" cy="203.974" rx="1.547" ry="1.608"/>
<ellipse opacity="0.4" fill="#FFFFFF" cx="67.38" cy="203.974" rx="1.547" ry="1.608"/>
<ellipse opacity="0.4" fill="#FFFFFF" cx="82.625" cy="203.974" rx="1.547" ry="1.608"/>
<ellipse opacity="0.4" fill="#FFFFFF" cx="97.686" cy="203.974" rx="1.547" ry="1.608"/>
<ellipse opacity="0.4" fill="#FFFFFF" cx="112.354" cy="203.974" rx="1.547" ry="1.608"/>
<ellipse opacity="0.4" fill="#FFFFFF" cx="127.415" cy="203.974" rx="1.547" ry="1.608"/>
<ellipse opacity="0.4" fill="#FFFFFF" cx="143.711" cy="203.974" rx="1.547" ry="1.608"/>
<ellipse opacity="0.4" fill="#FFFFFF" cx="158.772" cy="203.974" rx="1.547" ry="1.608"/>
<ellipse opacity="0.4" fill="#FFFFFF" cx="173.44" cy="203.974" rx="1.547" ry="1.608"/>
<ellipse opacity="0.4" fill="#FFFFFF" cx="188.502" cy="203.974" rx="1.547" ry="1.608"/>
<ellipse opacity="0.4" fill="#FFFFFF" cx="203.747" cy="203.974" rx="1.547" ry="1.608"/>
<ellipse opacity="0.4" fill="#FFFFFF" cx="218.808" cy="203.974" rx="1.547" ry="1.608"/>
<ellipse opacity="0.4" fill="#FFFFFF" cx="233.476" cy="203.974" rx="1.547" ry="1.608"/>
<ellipse opacity="0.4" fill="#FFFFFF" cx="248.538" cy="203.974" rx="1.547" ry="1.608"/>
<ellipse opacity="0.4" fill="#FFFFFF" cx="6.52" cy="219.453" rx="0.949" ry="0.987"/>
<ellipse opacity="0.4" fill="#FFFFFF" cx="22.638" cy="219.453" rx="0.949" ry="0.987"/>
<ellipse opacity="0.4" fill="#FFFFFF" cx="37.699" cy="219.453" rx="0.949" ry="0.987"/>
<ellipse opacity="0.4" fill="#FFFFFF" cx="52.205" cy="219.453" rx="0.949" ry="0.987"/>
<ellipse opacity="0.4" fill="#FFFFFF" cx="67.267" cy="219.453" rx="0.949" ry="0.987"/>
<ellipse opacity="0.4" fill="#FFFFFF" cx="82.398" cy="219.453" rx="0.949" ry="0.987"/>
<ellipse opacity="0.4" fill="#FFFFFF" cx="97.46" cy="219.453" rx="0.949" ry="0.987"/>
<ellipse opacity="0.4" fill="#FFFFFF" cx="111.966" cy="219.453" rx="0.949" ry="0.987"/>
<ellipse opacity="0.4" fill="#FFFFFF" cx="127.027" cy="219.453" rx="0.949" ry="0.987"/>
<ellipse opacity="0.4" fill="#FFFFFF" cx="144.062" cy="219.453" rx="0.949" ry="0.987"/>
<ellipse opacity="0.4" fill="#FFFFFF" cx="159.124" cy="219.453" rx="0.949" ry="0.987"/>
<ellipse opacity="0.4" fill="#FFFFFF" cx="173.63" cy="219.453" rx="0.949" ry="0.987"/>
<ellipse opacity="0.4" fill="#FFFFFF" cx="188.692" cy="219.453" rx="0.949" ry="0.987"/>
<ellipse opacity="0.4" fill="#FFFFFF" cx="203.823" cy="219.453" rx="0.949" ry="0.987"/>
<ellipse opacity="0.4" fill="#FFFFFF" cx="218.884" cy="219.453" rx="0.949" ry="0.987"/>
<ellipse opacity="0.4" fill="#FFFFFF" cx="233.39" cy="219.453" rx="0.949" ry="0.987"/>
<ellipse opacity="0.4" fill="#FFFFFF" cx="248.452" cy="219.453" rx="0.949" ry="0.987"/>
<ellipse opacity="0.4" fill="#FFFFFF" cx="6.542" cy="234.081" rx="0.949" ry="0.987"/>
<ellipse opacity="0.4" fill="#FFFFFF" cx="22.659" cy="234.081" rx="0.949" ry="0.987"/>
<ellipse opacity="0.4" fill="#FFFFFF" cx="37.721" cy="234.081" rx="0.949" ry="0.987"/>
<ellipse opacity="0.4" fill="#FFFFFF" cx="52.227" cy="234.081" rx="0.949" ry="0.987"/>
<ellipse opacity="0.4" fill="#FFFFFF" cx="67.289" cy="234.081" rx="0.949" ry="0.987"/>
<ellipse opacity="0.4" fill="#FFFFFF" cx="82.42" cy="234.081" rx="0.949" ry="0.987"/>
<ellipse opacity="0.4" fill="#FFFFFF" cx="97.481" cy="234.081" rx="0.949" ry="0.987"/>
<ellipse opacity="0.4" fill="#FFFFFF" cx="111.987" cy="234.081" rx="0.949" ry="0.987"/>
<ellipse opacity="0.4" fill="#FFFFFF" cx="127.049" cy="234.081" rx="0.949" ry="0.987"/>
<ellipse opacity="0.4" fill="#FFFFFF" cx="144.084" cy="234.081" rx="0.949" ry="0.987"/>
<ellipse opacity="0.4" fill="#FFFFFF" cx="159.146" cy="234.081" rx="0.949" ry="0.987"/>
<ellipse opacity="0.4" fill="#FFFFFF" cx="173.652" cy="234.081" rx="0.949" ry="0.987"/>
<ellipse opacity="0.4" fill="#FFFFFF" cx="188.713" cy="234.081" rx="0.949" ry="0.987"/>
<ellipse opacity="0.4" fill="#FFFFFF" cx="203.844" cy="234.081" rx="0.949" ry="0.987"/>
<ellipse opacity="0.4" fill="#FFFFFF" cx="218.906" cy="234.081" rx="0.949" ry="0.987"/>
<ellipse opacity="0.4" fill="#FFFFFF" cx="233.412" cy="234.081" rx="0.949" ry="0.987"/>
<ellipse opacity="0.4" fill="#FFFFFF" cx="248.474" cy="234.081" rx="0.949" ry="0.987"/>
<ellipse opacity="0.4" fill="#FFFFFF" cx="6.542" cy="248.75" rx="0.949" ry="0.987"/>
<ellipse opacity="0.4" fill="#FFFFFF" cx="22.659" cy="248.75" rx="0.949" ry="0.987"/>
<ellipse opacity="0.4" fill="#FFFFFF" cx="37.721" cy="248.75" rx="0.949" ry="0.987"/>
<ellipse opacity="0.4" fill="#FFFFFF" cx="52.227" cy="248.75" rx="0.949" ry="0.987"/>
<ellipse opacity="0.4" fill="#FFFFFF" cx="67.289" cy="248.75" rx="0.949" ry="0.987"/>
<ellipse opacity="0.4" fill="#FFFFFF" cx="82.42" cy="248.75" rx="0.949" ry="0.987"/>
<ellipse opacity="0.4" fill="#FFFFFF" cx="97.481" cy="248.75" rx="0.949" ry="0.987"/>
<ellipse opacity="0.4" fill="#FFFFFF" cx="111.987" cy="248.75" rx="0.949" ry="0.987"/>
<ellipse opacity="0.4" fill="#FFFFFF" cx="127.049" cy="248.75" rx="0.949" ry="0.987"/>
<ellipse opacity="0.4" fill="#FFFFFF" cx="144.084" cy="248.75" rx="0.949" ry="0.987"/>
<ellipse opacity="0.4" fill="#FFFFFF" cx="159.146" cy="248.75" rx="0.949" ry="0.987"/>
<ellipse opacity="0.4" fill="#FFFFFF" cx="173.652" cy="248.75" rx="0.949" ry="0.987"/>
<ellipse opacity="0.4" fill="#FFFFFF" cx="188.713" cy="248.75" rx="0.949" ry="0.987"/>
<ellipse opacity="0.4" fill="#FFFFFF" cx="203.844" cy="248.75" rx="0.949" ry="0.987"/>
<ellipse opacity="0.4" fill="#FFFFFF" cx="218.906" cy="248.75" rx="0.949" ry="0.987"/>
<ellipse opacity="0.4" fill="#FFFFFF" cx="233.412" cy="248.75" rx="0.949" ry="0.987"/>
<ellipse opacity="0.4" fill="#FFFFFF" cx="248.474" cy="248.75" rx="0.949" ry="0.987"/>
<ellipse opacity="0.4" fill="#FFFFFF" cx="6.52" cy="4.886" rx="0.949" ry="0.987"/>
<ellipse opacity="0.4" fill="#FFFFFF" cx="22.638" cy="4.886" rx="0.949" ry="0.987"/>
<ellipse opacity="0.4" fill="#FFFFFF" cx="37.699" cy="4.886" rx="0.949" ry="0.987"/>
<ellipse opacity="0.4" fill="#FFFFFF" cx="52.205" cy="4.886" rx="0.949" ry="0.987"/>
<ellipse opacity="0.4" fill="#FFFFFF" cx="67.267" cy="4.886" rx="0.949" ry="0.987"/>
<ellipse opacity="0.4" fill="#FFFFFF" cx="82.398" cy="4.886" rx="0.949" ry="0.987"/>
<ellipse opacity="0.4" fill="#FFFFFF" cx="97.46" cy="4.886" rx="0.949" ry="0.987"/>
<ellipse opacity="0.4" fill="#FFFFFF" cx="111.966" cy="4.886" rx="0.949" ry="0.987"/>
<ellipse opacity="0.4" fill="#FFFFFF" cx="127.027" cy="4.886" rx="0.949" ry="0.987"/>
<ellipse opacity="0.4" fill="#FFFFFF" cx="144.062" cy="4.886" rx="0.949" ry="0.987"/>
<ellipse opacity="0.4" fill="#FFFFFF" cx="159.124" cy="4.886" rx="0.949" ry="0.987"/>
<ellipse opacity="0.4" fill="#FFFFFF" cx="173.63" cy="4.886" rx="0.949" ry="0.987"/>
<ellipse opacity="0.4" fill="#FFFFFF" cx="188.692" cy="4.886" rx="0.949" ry="0.987"/>
<ellipse opacity="0.4" fill="#FFFFFF" cx="203.823" cy="4.886" rx="0.949" ry="0.987"/>
<ellipse opacity="0.4" fill="#FFFFFF" cx="218.884" cy="4.886" rx="0.949" ry="0.987"/>
<ellipse opacity="0.4" fill="#FFFFFF" cx="233.39" cy="4.886" rx="0.949" ry="0.987"/>
<ellipse opacity="0.4" fill="#FFFFFF" cx="248.452" cy="4.886" rx="0.949" ry="0.987"/>
<ellipse opacity="0.4" fill="#FFFFFF" cx="22.624" cy="120.012" rx="6.665" ry="6.929"/>
<ellipse opacity="0.4" fill="#FFFFFF" cx="37.686" cy="120.012" rx="6.665" ry="6.929"/>
<ellipse opacity="0.4" fill="#FFFFFF" cx="52.747" cy="120.012" rx="6.665" ry="6.929"/>
<ellipse opacity="0.4" fill="#FFFFFF" cx="67.809" cy="120.428" rx="6.665" ry="6.929"/>
<ellipse opacity="0.4" fill="#FFFFFF" cx="82.911" cy="120.428" rx="6.665" ry="6.929"/>
<ellipse opacity="0.4" fill="#FFFFFF" cx="97.973" cy="120.428" rx="6.665" ry="6.929"/>
<ellipse opacity="0.4" fill="#FFFFFF" cx="113.034" cy="120.428" rx="6.665" ry="6.929"/>
<ellipse opacity="0.4" fill="#FFFFFF" cx="128.096" cy="120.428" rx="6.665" ry="6.929"/>
<ellipse opacity="0.4" fill="#FFFFFF" cx="143.089" cy="120.428" rx="6.665" ry="6.929"/>
<ellipse opacity="0.4" fill="#FFFFFF" cx="158.151" cy="120.428" rx="6.665" ry="6.929"/>
<ellipse opacity="0.4" fill="#FFFFFF" cx="173.212" cy="120.428" rx="6.665" ry="6.929"/>
<ellipse opacity="0.4" fill="#FFFFFF" cx="188.274" cy="120.428" rx="6.665" ry="6.929"/>
<ellipse opacity="0.4" fill="#FFFFFF" cx="203.264" cy="120.844" rx="6.665" ry="6.929"/>
<ellipse opacity="0.4" fill="#FFFFFF" cx="218.326" cy="120.844" rx="6.665" ry="6.929"/>
<ellipse opacity="0.4" fill="#FFFFFF" cx="233.388" cy="120.844" rx="6.665" ry="6.929"/>
<ellipse opacity="0.4" fill="#FFFFFF" cx="248.549" cy="120.844" rx="6.665" ry="6.929"/>
</svg>
