<?xml version="1.0" encoding="utf-8"?>
<!-- Generator: Adobe Illustrator 17.0.0, SVG Export Plug-In . SVG Version: 6.00 Build 0)  -->
<!DOCTYPE svg PUBLIC "-//W3C//DTD SVG 1.1//EN" "http://www.w3.org/Graphics/SVG/1.1/DTD/svg11.dtd">
<svg version="1.1" id="Layer_1" xmlns="http://www.w3.org/2000/svg" xmlns:xlink="http://www.w3.org/1999/xlink" x="0px" y="0px"
	 width="256px" height="256px" viewBox="0 0 256 256" enable-background="new 0 0 256 256" xml:space="preserve">
<path opacity="0.15" fill="#FFFFFF" d="M0.938,15.591c-5.563,13.67,15.518,23.65,18.227,26.746c1.343,1.535,1.041,3.295,1.022,4.25
	c-0.018,0.875-1.022,3.362-1.022,3.362s19.852-5.366,23.058-17.689c1.492-5.735-0.224-8.372-1.562-10.828
	c-3.063-5.623-15.93-9.922-18.548-15.724C21.019,3.285,23.497,0,23.497,0S4.887,5.886,0.938,15.591z"/>
<path opacity="0.15" fill="#FFFFFF" d="M0.941,67.079c-5.563,13.67,15.518,23.65,18.227,26.746c1.343,1.535,1.041,3.295,1.022,4.25
	c-0.018,0.875-1.022,3.362-1.022,3.362s19.852-5.366,23.058-17.689c1.492-5.735-0.224-8.372-1.562-10.828
	c-3.063-5.623-15.93-9.922-18.548-15.724c-1.094-2.423,1.384-5.708,1.384-5.708S4.89,57.374,0.941,67.079z"/>
<path opacity="0.15" fill="#FFFFFF" d="M0.944,118.545c-5.563,13.67,15.518,23.65,18.227,26.746c1.343,1.535,1.041,3.295,1.022,4.25
	c-0.018,0.875-1.022,3.362-1.022,3.362s19.852-5.366,23.058-17.689c1.492-5.735-0.224-8.372-1.562-10.828
	c-3.063-5.623-15.93-9.922-18.548-15.724c-1.094-2.423,1.384-5.708,1.384-5.708S4.893,108.84,0.944,118.545z"/>
<path opacity="0.15" fill="#FFFFFF" d="M0.947,170.034c-5.563,13.67,15.518,23.65,18.227,26.746c1.343,1.535,1.041,3.295,1.022,4.25
	c-0.018,0.875-1.022,3.362-1.022,3.362s19.852-5.366,23.058-17.689c1.492-5.735-0.224-8.372-1.562-10.828
	c-3.063-5.623-15.93-9.922-18.548-15.724c-1.094-2.423,1.384-5.708,1.384-5.708S4.896,160.328,0.947,170.034z"/>
<path opacity="0.15" fill="#FFFFFF" d="M0.949,221.084c-5.563,13.67,15.518,23.65,18.227,26.746c1.343,1.535,1.041,3.295,1.022,4.25
	c-0.018,0.875-1.022,3.362-1.022,3.362s19.852-5.366,23.058-17.689c1.492-5.735-0.224-8.372-1.562-10.828
	c-3.063-5.623-15.93-9.922-18.548-15.724c-1.094-2.423,1.384-5.708,1.384-5.708S4.899,211.379,0.949,221.084z"/>
<path opacity="0.15" fill="#FFFFFF" d="M44.458,0.084c4.292,8.051,15.567,13.76,17.499,15.968c1.343,1.535,1.041,3.295,1.022,4.25
	c-0.018,0.875-1.022,3.362-1.022,3.362s19.852-5.366,23.058-17.689c0.639-2.456,0.69-4.344,0.434-5.892L44.458,0.084z"/>
<path opacity="0.15" fill="#FFFFFF" d="M43.733,40.794c-5.563,13.67,15.518,23.65,18.227,26.746c1.343,1.535,1.041,3.295,1.022,4.25
	c-0.018,0.875-1.022,3.362-1.022,3.362s19.852-5.366,23.058-17.689c1.492-5.735-0.224-8.372-1.562-10.828
	c-3.063-5.623-15.93-9.922-18.548-15.724c-1.094-2.423,1.384-5.708,1.384-5.708S47.683,31.089,43.733,40.794z"/>
<path opacity="0.15" fill="#FFFFFF" d="M43.736,92.261c-5.563,13.67,15.518,23.65,18.227,26.746c1.343,1.535,1.041,3.295,1.022,4.25
	c-0.018,0.875-1.022,3.362-1.022,3.362s19.852-5.366,23.058-17.689c1.492-5.735-0.224-8.372-1.562-10.828
	c-3.063-5.623-15.93-9.922-18.548-15.724c-1.094-2.423,1.384-5.708,1.384-5.708S47.685,82.556,43.736,92.261z"/>
<path opacity="0.15" fill="#FFFFFF" d="M43.739,143.749c-5.563,13.67,15.518,23.65,18.227,26.746
	c1.343,1.535,1.041,3.295,1.022,4.25c-0.018,0.875-1.022,3.362-1.022,3.362s19.852-5.366,23.058-17.689
	c1.492-5.735-0.224-8.372-1.562-10.828c-3.063-5.623-15.93-9.922-18.548-15.724c-1.094-2.423,1.384-5.708,1.384-5.708
	S47.688,134.044,43.739,143.749z"/>
<path opacity="0.15" fill="#FFFFFF" d="M43.742,194.8c-5.563,13.67,15.518,23.65,18.227,26.746c1.343,1.535,1.041,3.295,1.022,4.25
	c-0.018,0.875-1.022,3.362-1.022,3.362s19.852-5.366,23.058-17.689c1.492-5.735-0.224-8.372-1.562-10.828
	c-3.063-5.623-15.93-9.922-18.548-15.724c-1.094-2.423,1.384-5.708,1.384-5.708S47.691,185.095,43.742,194.8z"/>
<path opacity="0.15" fill="#FFFFFF" d="M86.34,15.591c-5.563,13.67,15.518,23.65,18.227,26.746c1.343,1.535,1.041,3.295,1.022,4.25
	c-0.018,0.875-1.022,3.362-1.022,3.362s19.852-5.366,23.058-17.689c1.492-5.735-0.224-8.372-1.562-10.828
	c-3.063-5.623-15.93-9.922-18.548-15.724C106.42,3.285,108.899,0,108.899,0S90.289,5.886,86.34,15.591z"/>
<path opacity="0.15" fill="#FFFFFF" d="M86.343,67.079c-5.563,13.67,15.518,23.65,18.227,26.746c1.343,1.535,1.041,3.295,1.022,4.25
	c-0.018,0.875-1.022,3.362-1.022,3.362s19.852-5.366,23.058-17.689c1.492-5.735-0.224-8.372-1.562-10.828
	c-3.063-5.623-15.93-9.922-18.548-15.724c-1.094-2.423,1.384-5.708,1.384-5.708S90.292,57.374,86.343,67.079z"/>
<path opacity="0.15" fill="#FFFFFF" d="M86.346,118.545c-5.563,13.67,15.518,23.65,18.227,26.746
	c1.343,1.535,1.041,3.295,1.022,4.25c-0.018,0.875-1.022,3.362-1.022,3.362s19.852-5.366,23.058-17.689
	c1.492-5.735-0.224-8.372-1.562-10.828c-3.063-5.623-15.93-9.922-18.548-15.724c-1.094-2.423,1.384-5.708,1.384-5.708
	S90.295,108.84,86.346,118.545z"/>
<path opacity="0.15" fill="#FFFFFF" d="M86.348,170.034c-5.563,13.67,15.518,23.65,18.227,26.746
	c1.343,1.535,1.041,3.295,1.022,4.25c-0.018,0.875-1.022,3.362-1.022,3.362s19.852-5.366,23.058-17.689
	c1.492-5.735-0.224-8.372-1.562-10.828c-3.063-5.623-15.93-9.922-18.548-15.724c-1.094-2.423,1.384-5.708,1.384-5.708
	S90.298,160.328,86.348,170.034z"/>
<path opacity="0.15" fill="#FFFFFF" d="M86.351,221.084c-5.563,13.67,15.518,23.65,18.227,26.746
	c1.343,1.535,1.041,3.295,1.022,4.25c-0.018,0.875-1.022,3.362-1.022,3.362s19.852-5.366,23.058-17.689
	c1.492-5.735-0.224-8.372-1.562-10.828c-3.063-5.623-15.93-9.922-18.548-15.724c-1.094-2.423,1.384-5.708,1.384-5.708
	S90.3,211.379,86.351,221.084z"/>
<path opacity="0.15" fill="#FFFFFF" d="M129.86,0.084c4.292,8.051,15.567,13.76,17.499,15.968c1.343,1.535,1.041,3.295,1.022,4.25
	c-0.018,0.875-1.022,3.362-1.022,3.362s19.852-5.366,23.058-17.689c0.638-2.453,0.689-4.339,0.434-5.887L129.86,0.084z"/>
<path opacity="0.15" fill="#FFFFFF" d="M129.135,40.794c-5.563,13.67,15.518,23.65,18.227,26.746
	c1.343,1.535,1.041,3.295,1.022,4.25c-0.018,0.875-1.022,3.362-1.022,3.362s19.852-5.366,23.058-17.689
	c1.492-5.735-0.224-8.372-1.562-10.828c-3.063-5.623-15.93-9.922-18.548-15.724c-1.094-2.423,1.384-5.708,1.384-5.708
	S133.084,31.089,129.135,40.794z"/>
<path opacity="0.15" fill="#FFFFFF" d="M129.138,92.261c-5.563,13.67,15.518,23.65,18.227,26.746
	c1.343,1.535,1.041,3.295,1.022,4.25c-0.018,0.875-1.022,3.362-1.022,3.362s19.852-5.366,23.058-17.689
	c1.492-5.735-0.224-8.372-1.562-10.828c-3.063-5.623-15.93-9.922-18.548-15.724c-1.094-2.423,1.384-5.708,1.384-5.708
	S133.087,82.556,129.138,92.261z"/>
<path opacity="0.15" fill="#FFFFFF" d="M129.141,143.749c-5.563,13.67,15.518,23.65,18.227,26.746
	c1.343,1.535,1.041,3.295,1.022,4.25c-0.018,0.875-1.022,3.362-1.022,3.362s19.852-5.366,23.058-17.689
	c1.492-5.735-0.224-8.372-1.562-10.828c-3.063-5.623-15.93-9.922-18.548-15.724c-1.094-2.423,1.384-5.708,1.384-5.708
	S133.09,134.044,129.141,143.749z"/>
<path opacity="0.15" fill="#FFFFFF" d="M129.144,194.8c-5.563,13.67,15.518,23.65,18.227,26.746c1.343,1.535,1.041,3.295,1.022,4.25
	c-0.018,0.875-1.022,3.362-1.022,3.362s19.852-5.366,23.058-17.689c1.492-5.735-0.224-8.372-1.562-10.828
	c-3.063-5.623-15.93-9.922-18.548-15.724c-1.094-2.423,1.384-5.708,1.384-5.708S133.093,185.095,129.144,194.8z"/>
<path opacity="0.15" fill="#FFFFFF" d="M170.93,16.235c-5.563,13.67,15.518,23.65,18.227,26.746c1.343,1.535,1.041,3.295,1.022,4.25
	c-0.018,0.875-1.022,3.362-1.022,3.362s19.852-5.366,23.058-17.689c1.492-5.735-0.224-8.372-1.562-10.828
	c-3.063-5.623-15.93-9.922-18.548-15.724c-1.094-2.423,1.384-5.708,1.384-5.708S174.88,6.529,170.93,16.235z"/>
<path opacity="0.15" fill="#FFFFFF" d="M170.933,67.723c-5.563,13.67,15.518,23.65,18.227,26.746
	c1.343,1.535,1.041,3.295,1.022,4.25c-0.018,0.875-1.022,3.362-1.022,3.362s19.852-5.366,23.058-17.689
	c1.492-5.735-0.224-8.372-1.562-10.828c-3.063-5.623-15.93-9.922-18.548-15.724c-1.094-2.423,1.384-5.708,1.384-5.708
	S174.882,58.018,170.933,67.723z"/>
<path opacity="0.15" fill="#FFFFFF" d="M170.936,119.189c-5.563,13.67,15.518,23.65,18.227,26.746
	c1.343,1.535,1.041,3.295,1.022,4.25c-0.018,0.875-1.022,3.362-1.022,3.362s19.852-5.366,23.058-17.689
	c1.492-5.735-0.224-8.372-1.562-10.828c-3.063-5.623-15.93-9.922-18.548-15.724c-1.094-2.423,1.384-5.708,1.384-5.708
	S174.885,109.484,170.936,119.189z"/>
<path opacity="0.15" fill="#FFFFFF" d="M170.939,170.677c-5.563,13.67,15.518,23.65,18.227,26.746
	c1.343,1.535,1.041,3.295,1.022,4.25c-0.018,0.875-1.022,3.362-1.022,3.362s19.852-5.366,23.058-17.689
	c1.492-5.735-0.224-8.372-1.562-10.828c-3.063-5.623-15.93-9.922-18.548-15.724c-1.094-2.423,1.384-5.708,1.384-5.708
	S174.888,160.972,170.939,170.677z"/>
<path opacity="0.15" fill="#FFFFFF" d="M170.942,221.728c-5.563,13.67,15.518,23.65,18.227,26.746
	c1.343,1.535,1.041,3.295,1.022,4.25c-0.018,0.875-1.022,3.362-1.022,3.362s19.852-5.366,23.058-17.689
	c1.492-5.735-0.224-8.372-1.562-10.828c-3.063-5.623-15.93-9.922-18.548-15.724c-1.094-2.423,1.384-5.708,1.384-5.708
	S174.891,212.023,170.942,221.728z"/>
<path opacity="0.15" fill="#FFFFFF" d="M214.126,0.086c4.016,8.389,15.841,14.343,17.824,16.609c1.343,1.535,1.041,3.295,1.022,4.25
	c-0.018,0.875-1.022,3.362-1.022,3.362s19.852-5.366,23.058-17.689c0.73-2.806,0.692-4.87,0.306-6.535L214.126,0.086z"/>
<path opacity="0.15" fill="#FFFFFF" d="M213.726,41.438c-5.563,13.67,15.518,23.65,18.227,26.746
	c1.343,1.535,1.041,3.295,1.022,4.25c-0.018,0.875-1.022,3.362-1.022,3.362s19.852-5.366,23.058-17.689
	c1.492-5.735-0.224-8.372-1.562-10.828c-3.063-5.623-15.93-9.922-18.548-15.724c-1.094-2.423,1.384-5.708,1.384-5.708
	S217.675,31.733,213.726,41.438z"/>
<path opacity="0.15" fill="#FFFFFF" d="M213.728,92.905c-5.563,13.67,15.518,23.65,18.227,26.746
	c1.343,1.535,1.041,3.295,1.022,4.25c-0.018,0.875-1.022,3.362-1.022,3.362s19.852-5.366,23.058-17.689
	c1.492-5.735-0.224-8.372-1.562-10.828c-3.063-5.623-15.93-9.922-18.548-15.724c-1.094-2.423,1.384-5.708,1.384-5.708
	S217.678,83.2,213.728,92.905z"/>
<path opacity="0.15" fill="#FFFFFF" d="M213.731,144.393c-5.563,13.67,15.518,23.65,18.227,26.746
	c1.343,1.535,1.041,3.295,1.022,4.25c-0.018,0.875-1.022,3.362-1.022,3.362s19.852-5.366,23.058-17.689
	c1.492-5.735-0.224-8.372-1.562-10.828c-3.063-5.623-15.93-9.922-18.548-15.724c-1.094-2.423,1.384-5.708,1.384-5.708
	S217.68,134.688,213.731,144.393z"/>
<path opacity="0.15" fill="#FFFFFF" d="M213.734,195.444c-5.563,13.67,15.518,23.65,18.227,26.746
	c1.343,1.535,1.041,3.295,1.022,4.25c-0.018,0.875-1.022,3.362-1.022,3.362s19.852-5.366,23.058-17.689
	c1.492-5.735-0.224-8.372-1.562-10.828c-3.063-5.623-15.93-9.922-18.548-15.724c-1.094-2.423,1.384-5.708,1.384-5.708
	S217.683,185.739,213.734,195.444z"/>
<path opacity="0.15" fill="#FFFFFF" d="M43.744,245.331c-1.592,3.913-1.002,7.524,0.717,10.757l40.998,0.003
	c-0.344-2.06-1.23-3.519-1.993-4.919c-3.063-5.623-15.93-9.922-18.548-15.724c-1.094-2.423,1.384-5.708,1.384-5.708
	S47.693,235.626,43.744,245.331z"/>
<path opacity="0.15" fill="#FFFFFF" d="M129.145,245.331c-1.592,3.913-1.002,7.524,0.717,10.757l40.998,0.003
	c-0.344-2.06-1.23-3.519-1.993-4.919c-3.063-5.623-15.93-9.922-18.548-15.724c-1.094-2.423,1.384-5.708,1.384-5.708
	S133.095,235.626,129.145,245.331z"/>
<path opacity="0.15" fill="#FFFFFF" d="M213.736,245.975c-1.487,3.654-1.07,7.045,0.391,10.111l41.192-0.007
	c-0.405-1.723-1.182-3.016-1.861-4.263c-3.063-5.623-15.93-9.922-18.548-15.724c-1.094-2.423,1.384-5.708,1.384-5.708
	S217.685,236.27,213.736,245.975z"/>
</svg>
