<?xml version="1.0" encoding="utf-8"?>
<!-- Generator: Adobe Illustrator 17.0.0, SVG Export Plug-In . SVG Version: 6.00 Build 0)  -->
<!DOCTYPE svg PUBLIC "-//W3C//DTD SVG 1.1//EN" "http://www.w3.org/Graphics/SVG/1.1/DTD/svg11.dtd">
<svg version="1.1" id="Layer_1" xmlns="http://www.w3.org/2000/svg" xmlns:xlink="http://www.w3.org/1999/xlink" x="0px" y="0px"
	 width="256px" height="256px" viewBox="0 0 256 256" enable-background="new 0 0 256 256" xml:space="preserve">
<g opacity="0.2">
	<path fill="#FFFFFF" d="M45.817,0c-1.111,0.833-2.361,4.256-1.755,5.188c1.491,2.294,6.715-2.41,6.993-5.188"/>
</g>
<g opacity="0.2">
	<path fill="#FFFFFF" d="M53.506,0c-2.807,2.807,0.525,6.437-1.079,10.047c-3.609,10.026,7.219,6.016,12.433,4.011
		c2.406-0.802,16.28-4.415,10.666-8.024c-2.406-1.604-10.66,5.103-13.072,3.612C60.66,8.538,68.392,3.077,71.447,3.4
		C78.039,4.095,85.531,0.407,85.803,0"/>
</g>
<g opacity="0.2">
	<path fill="#FFFFFF" d="M-0.002,2.9c0.833-2.5,1.612-1.84,4.39-2.118c1.389-0.278,3.221-0.285,4.332-0.007
		c2.222,0.556,2.222-1.667,3.611,1.389c0.833,1.944-1.111,8.61-3.055,9.721c-5.277,2.778-1.667-4.722-3.333-6.944
		C4.275,6.33,2.498,8.488-0.002,7.932"/>
</g>
<g opacity="0.2">
	<path fill="#FFFFFF" d="M-0.002,63.294c2.778-0.278,4.068,8.253,4.346,10.753c0.278,3.611-2.161,4.365-4.346,8.244"/>
</g>
<g opacity="0.2">
	<path fill="#FFFFFF" d="M8.787,66.19c-0.253-6.533,8.61-13.888,14.443-16.11c9.721-3.889,6.111,11.943,4.722,16.665
		c-0.833,2.5-1.667,8.055-3.611,9.999c-2.222,2.5-6.944,1.667-9.999,0.833c-12.499-3.055,3.611-8.333,6.388-11.11
		c3.055-3.055,3.889-9.166-1.944-5.833c-3.611,1.944-4.764,10.37-9.166,8.333C8.963,68.663,8.815,66.915,8.787,66.19z"/>
</g>
<g opacity="0.2">
	<path fill="#FFFFFF" d="M36.285,35.915c-4.611-0.979-6.388,8.61-1.667,11.943c3.333,2.5,3.333,0.833,5.833-2.5
		c1.667-2.222,3.055-4.722,4.444-7.222c0.833-1.389,4.166-5.833,3.889-7.222c-0.833-2.222-5.277,0-6.666,1.389
		c-2.222,2.5-0.278,3.611-1.389,6.388c-0.833,2.778-3.085,5.32-3.055,0.833C37.68,38.559,37.231,36.116,36.285,35.915z"/>
</g>
<g opacity="0.2">
	<path fill="#FFFFFF" d="M54.061,28.416c3.055-5.277,8.61-11.666,14.721-13.054c4.444-0.833,3.889,0.278,4.444,3.889
		c0.556,3.889,1.111,6.666-1.111,10.277c-1.111,2.222-7.222,9.166-7.499,2.778c0-3.055,7.499-6.111,3.889-9.166
		c-2.778-2.5-6.944,4.166-8.055,6.388c-0.833,1.389-5.277,10.277-6.944,4.166"/>
</g>
<g opacity="0.2">
	<path fill="#FFFFFF" d="M58.783,37.026c-0.831-0.285-1.667,1.111-2.222,1.667c-0.278,0.556,0,2.222,0,2.5
		c-0.833,0.556-1.667,0.278-2.222,0.556c-1.111,0.556-2.5-0.278-4.444,1.111c-1.389,1.389-2.778,3.333-2.5,5.277
		c0.278,4.722,6.666,5.277,3.889,11.388c-2.778,5.833-6.111,0.833-8.888-2.222c-1.389-1.667,0.278-3.611-3.055-1.667
		c-1.111,0.556-2.222,3.889-2.778,5c-1.111,3.055-1.389,5.833-2.222,8.888c-1.111,5-6.388,12.499-1.667,16.943
		c1.667,1.389,2.458,2.02,5.277,2.5c3.297,0.561,7.499-4.444,8.61-7.222c2.222-5.555-4.444,0.278-7.499-2.222
		c-2.5-1.944-3.055-8.61-1.944-11.388c3.333-8.055,4.444,2.5,7.222,3.889c4.722,2.5,6.666-5.277,8.333-7.777
		c1.667-3.055,8.055-6.388,6.944-10.277c-0.833-3.333-8.055-2.5-6.111-6.388c0.278-0.833,3.333-1.111,4.444-2.222
		s1.111-3.055,1.667-4.444c0.278-0.556,0.795-0.998,0.833-1.389C60.524,38.778,59.494,37.27,58.783,37.026z"/>
</g>
<g opacity="0.2">
	<path fill="#FFFFFF" d="M69.893,39.804c-5.833-0.833-5.833,9.166-3.889,12.499c2.778,4.722,4.722,0,8.61-1.667
		c4.166-1.944,5.833-2.222,8.333-6.944c1.389-3.055,3.611-7.777,3.055-11.388c-0.833-4.444-5.833-3.889-8.61,0
		c-3.055,4.722,2.222,3.611,1.389,7.777c-0.556,3.889-5.277,6.111-7.777,7.777c-1.389-2.222,1.667-3.889,1.667-6.388"/>
</g>
<g opacity="0.2">
	<path fill="#FFFFFF" d="M134.367,1.473c-0.625,0.131-7.902,1.55-10.37,4.944c-1.507,2.072-2.398,2.514-7.346,4.114
		c-5.285,1.71-9.136,0-13.562,2.897c-1.487,0.973-3.194,4.822-2.086,6.377c2.423,3.401,8.61-4.166,12.499-4.444
		c2.222,0,3.333,2.222,5.555,1.944c2.778-0.278,2.222-3.333,3.611-5c3.055-3.611,8.333-1.667,5.833,3.889
		c-1.667,3.889-7.222,6.111-7.777,10.832c5-1.111,6.944-1.389,3.333,3.611c-2.778,3.889-4.166,5-1.667,9.444
		c4.166,6.944,10.555,13.054,15.832,4.166c2.222-3.889,3.333-6.111,2.5-10.555c-0.556-4.722,0-5.833,2.5-9.721
		c1.111-1.667,4.722-8.888,6.944-8.61c5.277,1.111-0.833,8.888-1.389,9.999c-1.667,3.333-2.222,11.11,3.611,8.888
		c6.111-2.222-0.556-7.222,3.333-10.555c3.611-3.055,8.61,2.778,8.055,6.111c-0.278,2.778-4.444,2.5-1.944,5.277
		c1.111,1.667,4.444,0.833,5.833,0c2.222,3.611-0.556,5.555-0.278,9.444c0.556,6.111,5,5,9.166,4.444
		c3.611-0.556,4.722,0.833,8.61,0.833c2.222,0,3.333-1.667,5-1.944c2.5-0.556,4.166,0.278,6.388-1.111
		c3.055-2.222,4.166-6.111,2.222-8.888c-0.556-1.111-3.055-2.778-3.889-2.5c-3.055,1.111,0,3.055-1.111,4.722
		c-1.944,3.333-5.277,2.222-7.777,0.833c-1.667-0.833-0.556-2.778-3.611-2.5c-1.944,0-3.055,2.5-4.722,3.333
		c-1.111,0.278-3.055,1.389-4.166,0.278c-2.5-2.222,0.556-2.5,1.389-3.889c3.055-5,1.389-3.333-1.111-7.499
		c-1.389-1.944-0.278-3.333-1.389-5.555c-0.833-1.667-2.778-3.055-3.611-4.444c-0.833-1.944,1.389-2.778-1.944-3.889
		c-1.944-0.556-3.611,1.389-5.555,1.111c-4.166-0.833-4.166-5-6.666-7.499c-2.5-2.778-6.944-3.333-10.277-2.222
		c-7.499,2.222-8.333,14.443-8.888,21.387c-0.278,2.222,1.667,11.666-3.333,10.832c-5-0.833-1.389-8.61-1.111-10.832
		c0.556-4.444-0.278-7.777,1.944-11.943c1.111-2.5,2.778-8.055,5-9.999c1.667-1.667,8.055-3.889,10.277-4.444
		c4.444-0.556,7.499,1.389,10.555,4.166c4.166,3.611,3.889,3.611,9.166,2.5c5.555-1.389,6.666,0.278,8.055,5.277
		c1.389,4.722,4.166,6.388,6.666,10.832c1.111,1.667,1.111,4.444,2.778,5.555c1.667,1.667,2.778-0.556,4.444,1.389
		c2.778-3.055,8.055-4.166,5.555-9.444c-2.222-4.722-8.888-6.944-11.666-11.388c-3.055-4.166-1.111-9.721-8.888-9.166
		c-5,0.278-10.09,0.471-14.534-2.862h-16.992C143.358,0,139.049,0.489,134.367,1.473z"/>
</g>
<g opacity="0.2">
	<path fill="#FFFFFF" d="M185.494,0c2.222,2.778,1.611,7.306,3.833,10.084c1.111,1.389,3.055,2.222,4.166,3.333
		c1.389,1.389,2.5,4.444,3.889,5.277c3.889,2.778,5-1.667,8.888-3.055c5.277-1.944,6.944,1.944,11.666,2.222
		c5.555,0.556,5.833-4.722,9.721-6.666c3.333-1.389,9.988,2.914,13.321,3.469c4.166,0.556,6.488-3.112,10.376-5.335
		c1.748-0.953,4.643-1.4,4.643-1.4V2.963c0,0-2.344,1.044-3.369,1.225c-2.009,0.355-3.439,0.673-5.83,1.225
		c-3.611,0.833-5.294,3.588-8.627,2.754c-6.944-2.222-12.181,1.361-19.681,1.083c-2.5-0.278-5-2.222-7.777-2.5
		c-4.444-0.556-5,0.556-8.055,3.333c-3.333,2.778-5.555,3.055-4.166-2.222c0.556-2.222,3.055-1.111,1.389-4.166
		c-0.556-1.111-3.11-2.823-3.929-3.695"/>
</g>
<g opacity="0.2">
	<path fill="#FFFFFF" d="M253.382,13.799c-2.477-1.677-6.786,3.976-9.564,3.976c-3.889,0.278-4.217-1.581-8.939-0.748
		c-3.333,0.833-7.499,3.333-10.277,5.277c-4.166,3.333-3.333,4.444-8.61,2.5c-4.166-1.667-7.222-3.055-11.388,0.278
		c-3.333,2.5-2.778,7.222,1.111,9.444c3.611,1.667,6.944-3.055,10.832-3.889c3.333-0.833,9.999,0.556,13.61,1.389
		c3.611,0.833,5.833,2.778,9.444,3.611c3.889,0.833,6.666,2.5,10.555,1.111c2.222-0.833,6.944-4.166,4.166-6.944
		c-1.944-1.667-8.333,0.833-9.999,0.833c-3.611,0.556-6.944,0.833-9.999-1.111c-5.277-3.611-2.222-5.833,2.5-5.833
		c6.666,0,14.553,5.466,16.558-2.487C253.835,19.411,254.916,14.838,253.382,13.799z"/>
</g>
<g opacity="0.2">
	<path fill="#FFFFFF" d="M67.394,62.024c-3.333-5.277-11.388,5.555-12.221,8.888c-1.111,5.555,5,13.054,10.832,9.999
		c4.444-1.944,9.444-14.165,0.833-9.999c-1.111,0.556-4.166,6.388-5.833,1.111c-0.833-2.778,3.055-6.111,5.277-4.166
		c0.556-0.556,0.833-1.111,1.111-1.667"/>
</g>
<g opacity="0.2">
	<path fill="#FFFFFF" d="M83.503,53.691c-6.111-2.222-14.721,6.944-10.555,12.499c3.611,4.444,11.943,10.832,11.666,17.499
		c-0.278,2.222-3.611,7.499-6.666,7.222c-5.277-0.278,1.111-5.555,0.556-8.055c-1.389-6.666-13.332,3.611-12.499,7.499
		c4.444-1.111,3.611,3.611,1.667,5.555c-2.5,2.5-6.666,3.055-9.721,3.611c-2.778,0.278-10.277,3.055-12.777,1.389
		c-2.5-1.389-1.389-6.388-5.555-6.388c-1.667,4.166-2.5,7.499,0.556,11.388c3.055,3.889,5.833,2.222,10.277,1.667
		c6.666-0.833,13.61-1.389,19.443-5.277c3.889-2.222,5.277-4.722,9.721-5.833c1.944-0.556,5.833-0.278,7.499-1.667
		c5.277-4.444,4.722-17.776,4.166-23.609c-0.278-1.944,1.111-5.555,0-7.222c-2.778-4.166-3.889,1.111-5.833,2.778
		c-2.222,2.222-4.444,2.222-3.333-1.944c0.556-3.055,5.555-4.166,2.5-8.055"/>
</g>
<g opacity="0.2">
	<path fill="#FFFFFF" d="M51.284,79.245c-0.556,3.889-1.111,7.499-4.166,9.999c2.5,2.222,11.11,9.166,13.888,4.166
		c0.278-0.278-0.278-6.388-0.278-6.388c-1.667-2.5-5.277-0.833-6.388-4.444"/>
</g>
<g opacity="0.2">
	<path fill="#FFFFFF" d="M118.5,44.803c-9.166,3.333-35.275,20.832-15.832,29.72c5.555,2.5,5,0.833,3.333,6.388
		c-0.833,2.5-1.667,6.944,0,9.444c4.722,9.166,8.888-9.166,8.888-12.777c0-6.388-0.556-12.777-8.61-11.388
		c-1.111,0.278-3.333,1.944-4.166,1.389c-1.944-1.111-1.111-3.333,0-4.722c1.667-2.222,3.055-1.111,4.722-1.944
		c2.778-0.833,2.778-0.833,4.722-3.055c1.389-1.389,6.666-8.333,6.666-1.944c0,2.222-6.111,6.388-1.667,9.166
		c6.666,4.444,10.555-14.443,4.722-17.221"/>
</g>
<g opacity="0.2">
	<path fill="#FFFFFF" d="M135.721,57.858c-2.222-3.055-5.833-0.556-6.666,2.5c-0.555,1.667,0.833,3.889,0,5.555
		c-1.111,1.389-3.611,1.389-4.722,2.778c-1.944,2.222-6.111,19.998-4.722,21.665c0.556,0.833,3.889,0,5,0.278
		c2.5,0.556,2.778,2.778,4.722,3.889c4.722,3.055,6.388-1.667,10.277-5.833c2.5-2.5,1.111-1.944,4.166-2.5
		c1.944-0.278,3.889,0.278,6.111-0.556c3.611-1.111,7.777-2.5,9.166-6.388c1.389-4.166-0.556-8.055-3.889-9.999
		c-1.111-0.833-3.333-1.667-4.722-2.5c-1.389-0.556-3.055-1.944-4.444-2.222c-6.388-0.833-13.888,9.999-6.111,11.11
		c2.5,0.556,9.999-5,10.832,0.833c0.833,5-6.666,3.333-8.61,3.889c-1.389,0.556-2.5,3.055-4.444,3.055
		c-0.833,0-2.778-2.222-4.444-2.5c-3.333-0.556-8.61,1.667-6.111-4.444c0.278-0.833,2.778-2.778,3.333-3.889
		c1.111-1.389,1.667-3.611,2.5-5.555c1.667-3.889,3.055-5.277,7.777-6.111c5.277-1.111,5.833,0.833,6.111-5
		c0-2.778,0.278-8.888,3.889-9.721c6.111-1.667,2.778,6.666,2.222,8.888c-0.833,3.611,1.111,11.388,5.833,6.666
		c2.5-2.5,1.111-16.11,0-19.165c-1.944-3.889-9.444-2.222-13.054,0.833c-3.889,3.333-3.611,9.166-7.777,12.221"/>
</g>
<g opacity="0.2">
	<path fill="#FFFFFF" d="M184.606,56.191c-6.388,0.278-14.721-1.389-18.332,4.444c-1.667,2.5-2.5,7.777-1.389,10.555
		c1.944,5.277,5.555,3.333,9.721,5s6.388,5,11.11,5.555c3.611,0.278,6.388-1.111,9.721-1.667c8.61-1.111,11.388-3.889,11.11-13.332
		c0-6.944-4.166-14.443-11.388-14.443c-4.444,0-6.111,0.278-4.722,5.277c1.389,5.833,4.444,3.055,7.777,6.388
		c2.5,2.778,0.833,6.666-2.222,8.333c-5.277,2.778-4.722-1.944-8.055-3.333c-2.778-1.389-5,2.5-9.444,1.667
		c-2.5-0.556-8.055-2.222-7.222-5.555c1.389-5.277,5.833,0.278,8.055,0.556c3.889,0.278,4.444-3.889,5-6.944"/>
</g>
<g opacity="0.2">
	<path fill="#FFFFFF" d="M217.659,38.137c-3.611,3.333-12.777,3.889-13.054,9.444c0,3.333,4.722,6.944,6.111,9.999
		c1.667,3.611,2.5,7.499,7.777,6.944c4.166-0.556,6.388-4.166,5.277-8.055c-1.667-5.555-7.499-2.222-9.166-4.722
		c-3.055-4.166,5.833-5.277,8.055-4.444c3.055,1.389,4.722,4.444,8.055,5.555c2.222,0.556,5.833,0.556,7.777,0.278
		c3.611-0.833,7.222-7.222,2.5-10.277c-3.055-1.667-7.777,2.5-10.555,1.389c-3.611-1.111-3.889-9.166-8.888-7.777"/>
</g>
<g opacity="0.2">
	<path fill="#FFFFFF" d="M235.558,60.258c-2.5-1.389-2.222-6.388-6.111-4.444c-5,2.778-0.833,11.11,2.5,12.777
		c5.277,3.055,9.166,0.278,10.277-5.277c0.833-2.222-0.278-9.999-3.611-5.277"/>
</g>
<g opacity="0.2">
	<path fill="#FFFFFF" d="M228.769,74.523c-5-4.166-11.943-6.388-18.054-3.055c-6.666,3.333-4.444,12.221-2.222,17.499
		c2.778,6.944,9.166,15.832,16.943,17.221c6.111,1.111,12.777-0.556,17.499,5c1.944,2.5,4.444,9.444-0.556,9.999
		c-4.166,0.278-4.722-5.833-8.055-6.666c-3.611-0.833-6.388,1.944-5.277,5.277c1.667,3.889,8.61,5.555,9.444,9.721
		c1.667,5.833-3.333,3.611-6.111,3.611c-4.444-0.278-9.166,2.5-13.888,0.278c-5.833-2.5-0.278-3.611,3.055-5
		c5-2.778,3.333-4.444,1.944-9.444c-1.667-5-2.778-6.388-7.499-9.166c-3.055-1.944-6.944-4.722-9.721-0.278
		c-3.611,5.833,3.611,5.833,6.666,7.499c3.333,1.944,5.833,7.222,0,8.055c-6.944,0.556-14.721-11.11-13.054-17.499
		c1.667-5,11.943-15.276,1.389-18.61c-9.166-3.055-8.888,8.333-9.166,13.61c0,4.166-1.389,8.61-1.389,12.777
		c-0.278,5,1.667,5.833,5,8.888c6.388,5.277,13.61,9.721,19.998,14.999c6.388,5,10.277,12.777,19.443,6.944
		c5.833-3.611,8.333-13.332,11.943-19.165c2.222-3.333,6.388-5.555,6.944-9.444c0.278-2.778-1.111-7.222-1.944-9.721
		c-1.389-4.166-5-7.499-9.166-8.333c-3.889-1.111-8.888,0.833-12.777-0.556c-4.444-1.667-5.555-5.555-7.777-8.888
		c-1.389-2.5-7.499-6.666-6.388-9.721c1.944-6.111,9.166-1.667,11.11,1.111c2.778,3.333,3.333,9.721,6.944,12.221
		c9.166,6.388,1.667-13.61-2.222-16.665"/>
</g>
<g opacity="0.2">
	<path fill="#FFFFFF" d="M185.162,87.855c-5.833-2.5-12.499-6.666-19.165-5c-6.111,1.667-6.388,11.11-3.889,16.665
		c1.111,2.778,6.111,8.055,9.444,5.833c2.5-1.667,2.222-6.944,1.111-9.166c-1.111-2.778-6.111-7.499,0.556-5.277
		c3.055,1.111,5.277,5.555,6.111,8.333c1.389,3.889,0.833,6.944-0.833,10.555c-2.5,6.111-3.333,3.055-8.61,2.778
		c-7.222-0.278-12.777,12.221-3.333,13.332c1.667,0,2.778-0.278,4.444-0.556c0.556,0,1.389-1.389,1.944-1.389
		c1.111,0,1.944,1.389,2.5,1.667c3.889,0.556,5.833,0,7.222-4.444c1.944-6.666,2.222-14.721,3.055-21.665
		c0.278-2.5,0.833-5,0.833-7.222"/>
</g>
<g opacity="0.2">
	<path fill="#FFFFFF" d="M150.165,94.799c-3.889,2.5-13.61,5.555-15.277,9.999c-1.111,3.333,1.389,8.61,5.277,8.888
		c5.277,0.278,3.055-7.222,6.944-7.777c4.444-0.833,1.389,5,2.222,6.944c1.667,3.889,5,1.667,6.944-1.389
		c1.389-2.5,3.889-17.221-1.944-15.554"/>
</g>
<g opacity="0.2">
	<path fill="#FFFFFF" d="M123.5,100.91c-2.222-8.888-13.61-3.055-15.554,3.055c-3.611,11.943,10.555,5.555,13.888,8.61
		c2.222,1.944,1.111,6.944,1.389,9.444c0.556,4.444,2.5,6.944,6.666,8.61c1.667,0.556,3.333,0.556,4.722,1.111
		c1.667,1.111,1.667,2.778,3.889,3.611c3.611,1.389,6.944-0.833,10.555,1.389c3.889,2.5,5.277,6.666,9.444,8.61
		c4.166,1.944,8.61,3.333,12.499,0.556c5.555-4.166,7.499-18.054-2.222-13.888c-4.444,1.944-5,5.555-8.61,1.389
		c-2.222-2.5-2.5-6.388-5-8.61c-6.388-5.555-14.721-1.667-21.387-5.555c-5.555-3.333-4.722-8.888-5.555-14.443"/>
</g>
<g opacity="0.2">
	<path fill="#FFFFFF" d="M98.224,80.356c-3.889,3.333-1.944,9.721-2.222,14.165c-0.278,4.722-1.667,6.944,1.389,11.11
		c3.055,4.444,3.889,6.111,4.444,11.388c0.556,5.277,4.444,19.721,12.499,12.777c7.777-6.388-3.055-12.777-6.944-15.832
		c-6.111-4.722-3.611-8.333-4.444-14.999c-0.278-2.5-2.5-4.444-2.778-6.944c-0.556-2.5,0.556-5.555,0.556-8.055"/>
</g>
<g opacity="0.2">
	<path fill="#FFFFFF" d="M115.167,22.861c-3.99-5.26-13.888,2.5-18.887,6.944c-5.277,5-7.777,13.332-7.499,20.276
		c0.278,2.778,0.278,7.222,3.611,6.111c1.667-0.556,6.111-6.666,7.777-8.055c5-4.166,16.11-8.055,15.276-15.554
		c-0.833-6.111-5.277-0.278-8.055,2.5c-3.611,3.611-6.388,8.61-11.388,10.555c-2.778-8.333,12.466-15.07,17.221-19.443
		C113.933,25.541,115.75,23.629,115.167,22.861z"/>
</g>
<g opacity="0.2">
	<path fill="#FFFFFF" d="M3.788,86.466c3.889-3.889,4.722-1.944,8.61-1.389c4.444,0.556,6.944-0.556,11.11,2.5
		c3.333,2.222,6.666,6.111,7.777,9.999c0.556,1.944,0,3.889,0.278,5.833c0.556,2.5,1.944,2.778,3.055,4.722
		c1.667,4.166,0.556,7.777,0.278,11.943c-0.278,5.277,1.111,14.165-3.611,17.776c-4.444,3.333-7.499-1.389-11.666-1.667
		c-5-0.278-8.055,2.222-8.888-4.444c-0.556-4.166,0.833-17.221,6.111-17.776c10.832-1.111-0.556,16.943,2.5,18.332
		c2.222,0.833,9.166-3.055,9.444-5c0.278-1.944-1.944-2.5-2.222-4.166c-0.833-2.5,0.278-3.889,0.833-6.388
		c1.667-5.833,0-7.499-1.944-12.777c-1.111-2.778-0.833-10.832-5.833-10.555c-1.944,0.278-2.5,3.055-4.166,3.333
		c-2.222,0.556-3.333-1.667-5.555-1.944C5.454,94.521,1.288,89.244,3.788,86.466z"/>
</g>
<g opacity="0.2">
	<path fill="#FFFFFF" d="M19.342,101.187c-3.66-0.579-3.055,4.444-1.389,6.666c4.444,5.833,5.677-3.068,2.778-5.833
		C20.438,101.741,19.742,101.251,19.342,101.187z"/>
</g>
<g opacity="0.2">
	<path fill="#FFFFFF" d="M2.727,98.82c-6.049-1.919-0.051,11.811-0.328,16.81c-0.278,4.722-1.893,30.945,1.052,35.503
		c0.811,1.255,4.182-4.141,5.556-10.494c1.138-5.266-1.983-12.818-0.926-18.416c1.527-8.088,4.231-16.098,3.652-17.878
		C9.365,97.062,3.738,99.141,2.727,98.82z"/>
</g>
<g opacity="0.2">
	<path fill="#FFFFFF" d="M13.649,143.125c-4.351-1.229-8.472,12.78-7.639,17.224c0.278,1.944,4.166,8.888,5.555,9.721
		c2.222,1.111,9.999-2.222,11.11-3.611c2.5-3.333,1.667-16.11-0.278-19.721c-2.222-5-5.277-3.055-5.555,1.944
		c0,2.778,3.333,6.944,1.667,10.277c-1.944,4.444-5.555,1.944-6.111-1.944c-0.556-2.222,1.159-7.803,1.389-10.277
		C13.881,145.732,14.622,143.4,13.649,143.125z"/>
</g>
<g opacity="0.2">
	<path fill="#FFFFFF" d="M-0.002,161.307c4.018,3.366,6.798,9.924,11.52,11.59c2.778,0.833,17.823-3.382,18.657-5.327
		c1.111-2.222-1.111-7.499-0.833-10.277c0-3.055-1.389-6.944-0.833-9.166c1.944-10.555,16.11-0.833,18.332,4.722
		c0.833,2.5,1.111,9.444-1.389,11.11c-5,2.778-5.555-5-6.944-7.499c-2.778-4.722-5.277-0.278-4.722,4.166
		c0.278,3.333,2.778,6.944,5,9.444c2.5,2.778,7.499,5,8.888,8.61c1.667,3.611,0,9.444-3.333,11.388
		c-5.833,3.611-14.443,1.667-20.832,2.222c-4.166,0.278-29.903,2.63-19.721-3.333c5.039-2.951,11.666,0.278,17.499-1.389
		c3.333-1.111,7.777-2.778,11.388-2.222c3.611,0.833,6.388,3.611,7.777-1.944c1.667-6.111-3.611-5.277-6.666-5.555
		c-2.222-0.278-2.778-1.944-5.277-1.111c-2.222,0.833-3.055,3.055-5,4.166c-6.111,2.778-13.296,0.997-18.018-4.836
		c-1.667-2.222-3.444,0.606-5.492-1.583"/>
</g>
<g opacity="0.2">
	<path fill="#FFFFFF" d="M-0.002,201.849c0,0,6.903-0.048,13.732-3.607c6.395-3.332,23.11,7.103,29.221,2.104
		c3.055-2.222,2.778-6.388,7.499-6.666c4.444,0,5.277,5,7.777,8.055c1.944,2.5,2.222,3.055,3.333,5.833
		c0.556,1.389,0.833,4.166,2.222,5.277c3.055,2.778,8.888,0.556,12.499,2.778c6.111,3.611,8.61,9.721,16.665,10.832
		c4.166,0.556,5.833,3.333,9.444,4.166c1.944,0.556,3.889-0.556,5.833-0.278c1.667,0.278,4.166,1.389,5.833,1.944
		c3.611,1.667,6.388,4.722,10.277,5c4.722,0,6.666-3.889,11.388-1.111c1.667,1.111,12.499,18.887,14.165,10.277
		c0.555-1.667-3.611-7.777-3.889-10.277c-0.556-5,1.389-5.555,5.277-8.61c2.5-1.944,1.667-1.944,4.166-1.944
		c0.556,0,1.111,1.389,1.944,1.667c1.111,0,1.667-1.389,2.5-1.389c3.889,0,7.777,1.389,11.666,0.556
		c4.722-1.111,7.222-4.166,8.333-8.61c0.556-2.5-0.278-7.222,2.778-8.333c3.611-1.389,7.499,4.166,9.166,6.666
		c2.778,4.166,3.055,6.111,1.389,10.832c-1.667,4.722-9.999,14.443-3.055,18.054c4.444,2.5,6.388-0.556,7.777-3.889
		c1.111-2.778,3.889-5,4.444-7.777c1.111-4.722-5.277-17.221,5.277-12.777c6.666,3.055,11.666,4.722,18.887,5.833
		c2.778,0.556,5.277,0.556,4.444,4.166c-2.5-1.111-8.055,1.389-11.388,0.833s-6.111-3.611-9.444-0.833
		c-5.555,4.722-3.055,13.888-6.666,18.332c-1.389,1.667-3.889,1.389-5.555,1.667c-0.833,0.278-1.667-0.556-2.5,0
		c-0.833,0.278-1.098,1.971-1.667,2.222c-3.54,1.561-6.388,0-7.777-3.611c-2.222-5-3.055-16.388-9.444-18.332
		c-10.832-3.333,0.833,15.832,1.667,18.887c2.5,6.666-2.222,4.166-5,0c-1.944-2.778-3.055-6.111-4.722-8.888
		c-1.944-3.889-4.444-6.111-8.61-7.222c-5.277-1.389-4.722,0.556-3.333,5c1.111,4.444,1.944,6.111,5,9.166
		c1.944,2.222,7.666,2.151,6.857,4.764c-1.255,4.05-7.135,0.236-10.19-0.598c-2.5-0.556-3.889,0.556-5.833,1.111
		c-1.944,0.278-2.5,0.833-5,0.556c-1.111,0-3.055,0.556-3.889,0c-1.944-0.833-2.222-2.778-4.166-3.611
		c-4.444-2.222-6.823,6.713-9.721,3.333c-1.997-2.329,5-8.61,0.556-10.277c-1.111-0.556-3.611,1.389-5,1.389
		c-2.5,0.556-2.222,0.556-5,0c-8.055-1.944-15.832-3.611-18.61,6.111c-0.833,2.222,0,4.166-3.055,3.889
		c-3.055-0.278-2.222-1.944-1.944-3.889c0.556-4.444,4.722-6.944,1.111-11.666c-2.222-2.778-6.111-2.222-9.444-4.444
		s-4.722-5.555-7.777-7.777c-10.277-8.61-3.889,13.888-4.444,16.665c-0.833,3.333-4.166,6.111-6.666,2.5
		c-0.556-1.111,0.278-4.444,0-5.555c-0.556-2.222-1.667-3.055-2.222-4.722c-1.944-5,1.111-6.111,2.5-10.555
		c1.667-6.944-3.333-3.055-7.222-4.166c-4.166-0.833-2.5-6.388-4.444-9.444c-1.944-3.333-6.666-5.833-10.277-5.833
		c-5,0-9.444,1.667-14.165,1.389c-1.944,0-6.111-0.556-7.499,0.833c-1.667,1.667,0.159,3.787-1.667,5.277
		c-6.868,5.605-21.48,3.106-24.344-4.06"/>
</g>
<g opacity="0.2">
	<path fill="#FFFFFF" d="M27.397,217.567c1.932-1.562,1.667-3.611,3.611-4.722c1.667-0.833,7.222,0.833,9.166,1.111
		c5.277,0.556,18.61,1.389,16.11,10.277c-5.555-1.667-11.11-1.667-16.665-3.333c-4.722-1.389-11.166,2.562-13.332-1.944
		C26.093,218.555,27.051,217.846,27.397,217.567z"/>
</g>
<g opacity="0.2">
	<path fill="#FFFFFF" d="M17.12,223.399c5.909-1.016,11.11,5.555,16.943,5.833c3.611,0.278,6.944-1.944,10.277-1.667
		c1.944,0.278,2.5,1.389,4.444,1.944c0.556,0.278,0.833,1.389,1.667,1.667c1.111,0.278,2.5-1.111,3.611-0.556
		c4.444,1.667,12.777,14.721,7.222,16.665c-0.556,0.278-4.722,0.278-5.555,0.278c-2.222,0.278-3.333,0.278-5.833-0.833
		c-1.667-0.556-10.832-4.166-7.499-6.666c2.5-1.944,8.333,4.166,11.11,2.222c3.889-2.5-3.333-5.833-5.277-6.944
		c-5-2.5-5.555,0.556-10.277,1.111c-3.889,0.555-8.333-2.222-11.666-3.611c-6.111-2.5-17.438,3.099-18.61-3.333
		C7.173,226.743,14.349,223.876,17.12,223.399z"/>
</g>
<g opacity="0.2">
	<path fill="#FFFFFF" d="M-0.002,236.427c6.518-1.298,9.623,3.36,14.9,4.748c2.778,0.556,5.277,1.389,8.055,2.222
		c3.333,0.833,6.666,0.278,9.721,1.389c2.778,0.833,8.888,4.166,10.555,6.388c3.333,5.277-3.333,1.389-6.111,1.389
		c-3.889,0-5.833,3.889-10.555,3.055c-2.222-0.278-2.778-1.944-4.444-2.778c-2.222-0.833-4.444,0-6.666-0.556
		c-3.333-1.389-4.215-1.131-6.992-3.076c-5-3.889-5.875,3.867-8.463-0.192"/>
</g>
<g opacity="0.2">
	<path fill="#FFFFFF" d="M55.111,252.721c5.963-8.05,20.079,4.029,25.079-5.692c1.111-2.5,1.647-2.52,1.647-5.02
		c0-1.389-2.222-3.889,0-4.722c1.389-0.556,3.333,3.055,3.889,3.889c1.389,1.667,4.444,5.277,4.166,7.777
		c0,1.667-1.604,6.599-4.05,7.035c0,0-32.607,0.012-32.318,0.012C53.846,256,54.149,254.02,55.111,252.721z"/>
</g>
<g opacity="0.2">
	<path fill="#FFFFFF" d="M109.226,255.988c-1.281-2.77,0.674-4.887,1.372-5.589c3.202-3.221,12.215,2.789,10.949,5.589
		L109.226,255.988z"/>
</g>
<g opacity="0.2">
	<path fill="#FFFFFF" d="M207.187,250.62c-0.692-0.807-0.184-2.743,0.761-4.357c0.506-0.864,3.236-0.882,3.791-1.993
		c0.555-1.111,0.555-2.5,1.389-3.611s2.5-0.556,3.333-1.667c1.944-2.5,0.278-5,5.277-4.444c1.389,0.278,7.222,2.5,7.499,4.166
		c0.833,3.889-5,2.5-6.388,3.611c-2.778,1.667-1.667,3.889-2.778,6.388c-1.111,1.944-1.773,2.325-3.894,2.782
		C214.137,251.937,208.546,252.206,207.187,250.62z"/>
</g>
<g opacity="0.2">
	<path fill="#FFFFFF" d="M227.812,255.994c-7.237-4.358,5.956-6.208,7.623-10.374c1.111-3.055-2.5-5-2.5-7.499
		c-0.278-2.778,2.222-5.277,2.5-8.055c4.722,2.5,10.555,8.055,11.666,13.054c0.278,1.944-0.278,4.166,0.278,6.111
		c0.555,3.055,3.059,4.06,3.949,6.764H227.812z"/>
</g>
<g opacity="0.2">
	<path fill="#FFFFFF" d="M255.998,248.951c-2.035-3.488-5.324-5.958-6.861-9.141c-1.614-3.343-1.437-7.044,2.733-6.612
		c2.266,0.234,3.042,3.087,4.128,3.25"/>
</g>
<g opacity="0.2">
	<path fill="#FFFFFF" d="M252.277,131.254c-3.651-2.611-7.676,14.374-7.12,17.429c0.556,5.277,9.526,20.153,10.841,25.822
		L256,161.333c-4.594-3.688-5.614-16.311-3.723-19.843C253.484,139.234,254.358,132.742,252.277,131.254z"/>
</g>
<g opacity="0.2">
	<path fill="#FFFFFF" d="M253.489,177.292c-0.062-3.48-3.889-5.277-5.555-8.333c-1.944-3.333-3.055-7.777-5.277-10.832
		c-2.778-4.166-5.555-3.055-9.444-2.222c-1.667,0.556-1.944-0.556-3.889,0.278c-0.833,0.556-3.333,3.333-3.611,4.166
		c-1.944,3.611-0.556,7.222-2.778,11.11c-2.778,5.277-1.944,6.388,3.333,9.999c5.833,4.166,9.999,11.388,17.499,11.666
		c3.333,0.278,8.333-0.833,10.277-3.611c4.166-5.833-5-3.611-8.333-3.889s-12.221-3.333-13.888-6.666
		c-1.389-2.778,0.278-9.444,1.389-11.943c6.388,4.444,11.206,16.867,18.61,13.61C252.675,180.25,253.506,178.224,253.489,177.292z"
		/>
</g>
<g opacity="0.2">
	<path fill="#FFFFFF" d="M220.159,160.905c-0.556-3.055-1.389-5.833-2.222-8.888c-1.667-5-3.889-5.277-8.055-8.333
		c-6.111-4.444-10.832-13.054-18.332-15.554c-9.721-3.055-9.444,6.111-9.444,12.221c0,3.333-0.556,5.555-2.222,8.333
		c-1.389,2.778-7.222,6.666-6.944,9.444c0.278,1.944,2.5,2.778,3.055,5c0.278,1.111-0.555,3.611-0.555,4.722
		c-0.278,3.333,0,6.666,0.555,9.721c1.389,6.666,4.722,13.054,7.499,18.887c3.889,8.333,6.666,10.832,15.554,12.777
		c6.944,1.389,13.332,2.5,19.721,5.555c4.722,2.222,8.333,2.222,12.499,3.333c4.722,1.389,6.111,6.111,11.388,6.111
		c5,0,6.388-2.778,8.888-6.666c0.833-1.111,3.055-3.889,3.333-5c0.555-2.222-1.046-5.644-2.048-7.234
		c-1.343-2.132-5.1-6.775-8.229-5.82c-7.019,2.14-0.833,5.277-1.111,9.444c-0.278,3.611-6.666,5.555-9.444,2.778
		c-2.5-2.778,1.667-6.666,1.667-10.277c-0.278-3.889-2.778-6.666-5.277-9.444c-5.833-6.111-11.943-11.666-20.554-11.388
		c-4.166,0-6.666,0.556-9.166,3.889c-1.944,2.778-1.389,2.778-1.389,5.555c0-0.278,1.111,5,0.556,4.444
		c2.778,3.055,8.055-0.556,11.666-0.278c2.778,0.278,6.666,1.667,9.166,2.5c9.721,3.333,7.499,16.665,0,11.943
		c-4.444-2.778-3.055-6.111-9.166-6.111c-5,0-5.833-0.556-10.555-2.5c-3.333-1.667-7.499-2.222-10.277-5
		c-3.611-4.166,0.833-5.555,2.778-8.888c1.667-2.778,2.778-8.333,2.5-11.666c-0.278-2.5-4.722-12.499-7.499-7.777
		c0.278-0.833,3.611,24.72-3.611,14.721c-1.667-1.944-1.944-9.721-2.222-12.499c-0.556-3.333-3.055-8.61-1.667-11.388
		c3.055-6.388,3.611,1.667,7.777,0.833c5.277-1.389,0-7.777-0.556-10.277c-1.111-2.778-0.556-8.055,3.611-7.777
		c6.388,0,2.222,8.055,5,9.999c2.778,1.667,8.888-1.667,12.499,1.111c1.944,1.667,3.889,5,3.333,7.777
		c-3.055,11.388-11.388-10.555-13.888,0c-0.833,3.611,4.722,11.388,7.777,12.777c6.666,3.333,8.888-0.555,11.943-5.277"/>
</g>
<g opacity="0.2">
	<path fill="#FFFFFF" d="M79.059,171.737c-3.889-4.444-8.055-13.888-13.61-14.443c-5.833-0.278-16.665,5.555-16.11,12.777
		c0.278,2.778,3.611,8.333,4.722,11.11c1.111,2.5,3.055,7.499,5,9.444c3.889,3.889,4.444-1.111,8.61-1.111
		c3.055,0,6.111,3.889,8.055,5.833c5,5.555,8.61,12.499,13.61,17.221c2.222,2.222,6.111,5.277,9.166,5.833
		c6.388,1.389,6.111-1.389,5.833-5.833c-0.556-3.889,3.055-8.333,5.555-2.778c1.667,3.333-1.667,8.055,0.833,11.388
		c1.667,1.667,6.666,4.444,9.166,5.277c4.166,1.111,5-1.667,3.055-5.833c-2.222-4.166-5.555-4.444-6.666-9.444
		c-0.833-4.166-1.111-8.61-5.277-11.666c-2.5-2.222-7.777-3.333-10.277-0.556c-3.611,3.611,0.278,7.777-6.944,5.277
		c-7.499-2.222-12.221-9.721-16.943-15.832c-3.055-4.166-4.444-4.444-9.444-6.111c-4.444-1.389-6.388-3.055-8.61-6.944
		c-2.5-4.444-2.5-8.61,2.778-4.166c3.333,2.5,4.444,7.499,8.888,8.333c4.722,0.833,6.666-1.944,9.999,3.055
		c2.5,3.611,4.166,7.499,6.944,10.832c6.388,8.055,11.11-0.833,9.444-8.333c-0.556-3.055-3.333-7.499-6.111-9.444
		c-0.833-0.555-4.722-2.5-5.833-1.111c-0.833,1.389,1.944,2.778,2.778,3.889c2.778,4.166,1.667,8.888-3.055,4.166
		c-3.055-3.055-1.667-6.666-6.944-8.055"/>
</g>
<g opacity="0.2">
	<path fill="#FFFFFF" d="M66.838,197.013c-5,0.278,7.499,11.11,10.832,11.388c1.389-3.055-2.778-7.777-5.833-9.166"/>
</g>
<g opacity="0.2">
	<path fill="#FFFFFF" d="M71.838,118.408c-2.098,3.378-1.944,6.388-4.444,9.444c-3.611,4.722-3.625,15.691-9.444,14.999
		c-1.17-0.139-1.111-2.5-1.944-3.611c-0.278-0.555,0.278-1.667-0.278-2.222c-0.833-0.833-1.675-2.805-2.508-3.36
		c-2.5-1.944-6.935-1.361-4.713-5.528c1.944-3.611,3.611-0.278,6.666-1.389c3.055-0.833,5.395-3.281,8.055-5
		c4.765-3.078,12.807-10.551,8.786-14.553c-4.613-4.591-3.709,6.843-10.931,7.121c-5.277,0.278-8.966-0.9-14.243,0.488
		c-13.61,3.889-5.833,25.553,0.278,32.22c3.889,4.444,15.277,6.388,20.276,2.222c3.333-2.5,1.111-7.777,3.055-11.11
		c1.667-3.611,6.111-5.277,8.055-8.61c2.778-4.444-1.389-18.332,5-19.998c6.666-1.667,4.166,5.555,2.778,8.333
		c-2.5,4.166-3.055,6.388-0.278,10.832c2.222,3.333,8.333,4.722,7.777,9.166c-0.278,1.111-2.222,1.944-2.5,3.611
		c-0.556,1.667,1.111,4.166,1.111,5.833c0,3.055-1.389,7.777-4.444,9.444c-2.222,1.389-3.611,0.555-5.277-1.389
		c-1.944-2.5-1.389-2.222-0.556-4.166c1.667-3.611,5.555-4.722,5-9.999c-0.278-3.611-2.5-7.777-6.666-5.555
		c-4.444,2.5-6.111,14.721-5,19.443c1.667,7.777,12.499,14.999,19.998,10.832c6.666-3.611,6.388-12.777,7.499-19.721
		c1.667-9.166,0.556-11.943-4.166-19.443c-4.166-6.388-4.166-15.277-8.61-20.832c-1.389-1.667-3.1-4.661-5.555-3.333
		C80.141,104.995,74.521,114.087,71.838,118.408z"/>
</g>
<g opacity="0.2">
	<path fill="#FFFFFF" d="M111.001,142.295c-4.444,1.667-1.111,13.332-2.5,17.221c-2.5,6.666-12.221,11.666-8.055,19.721
		c0.556,1.667,2.778,2.222,3.333,3.611c1.111,1.944,0,4.444,1.389,6.111c1.389,2.5,2.778,1.667,5.277,2.5
		c1.667,0.556,2.222,1.667,3.889,2.778c8.888,5.277,6.666-9.444,10.555-13.332c2.222-2.5,7.499-6.111,10.555-7.499
		c3.055-1.111,7.499,0.556,9.721-0.278c3.611-1.667,3.611-8.055,7.499-8.888c4.444-0.833,6.666,3.055,8.055,6.111
		c1.944,3.611,9.444,14.721,4.444,18.61c-6.666,5.277-2.222-14.721-9.999-13.888c-6.944,0.833,0.556,16.11,2.778,19.443
		c2.5,4.166,6.944,3.889,10.277,6.944c2.5,2.222,4.166,7.777-0.278,8.055c-2.778,0.278-9.166-4.722-10.832-6.666
		c-3.055-3.055-5-6.666-6.111-10.832c-1.944-6.388-2.778-13.888-11.388-10.277c-6.388,2.778-9.444,7.777-10.555,13.888
		c-0.833,4.444-0.833,2.778-4.444,5.277c-2.222,1.667-4.444,3.889-2.778,7.499c3.333,7.499,11.388-1.111,14.443-4.444
		c4.166-4.444,3.333-6.666,4.722-11.943c2.778,1.389,4.166,6.111,4.722,9.166c0.833,4.166-0.278,5-3.333,7.777
		c-2.5,2.5-5.555,6.388-8.888,7.499c-3.889,1.389-6.666,0-3.611,5.555c0.833,1.944,4.444,5.833,6.666,5.555
		c2.222-0.556,5.555-5.277,8.055-6.388c1.944-1.111,4.166-1.944,5.555-3.611c1.111-1.667,0.278-3.333,1.111-4.722
		c2.778-5.277,2.778,1.389,5.277,3.611c2.5,2.222,8.055,2.222,11.388,1.944c4.444-0.556,4.722-2.222,6.944-5.555
		c2.222-3.611,4.444-4.722,4.166-9.166c-0.278-5.277-3.333-4.722-5.277-8.61c-1.944-3.333-0.556-7.777-1.111-11.388
		c-0.278-3.333-1.667-6.666-2.5-9.999c-0.556-3.333-1.667-6.111-2.222-9.166c-0.556-3.055,0.278-6.111-1.389-8.61
		c-5.833-9.166-12.499-3.055-18.054,1.667c-6.944,6.388-13.332,0.833-21.387,3.611c-7.222,2.222-8.333,11.388-10.277,17.499
		c-1.389,3.611-2.778,9.166-5.833,4.444c-2.5-3.333-2.222-8.61,0.278-11.943c2.5-3.889,5-5.277,5-10.277
		c0-3.889-1.111-8.055,0.278-12.221c1.111-3.889,4.166-7.222,8.61-5c1.667,0.833,1.111,2.5,3.055,3.055
		c1.111,0.556,3.889-0.278,5.555,0c1.111,0.556,3.611,0.833,3.889,2.222c1.111,3.611-2.778,0.833-4.166,0.833
		c-2.222,0.278-10.832,2.778-9.166,5.833c0.833,1.389,8.888,1.667,10.555,1.667c4.444,0,6.388-0.278,9.721-3.055
		c9.166-7.777,0.278-10.555-7.222-13.054c-3.889-1.111-6.111-3.889-9.444-5.555c-3.889-1.667-8.055,0.278-11.666,1.389"/>
</g>
<g opacity="0.2">
	<path fill="#FFFFFF" d="M3.639,47.111c3.292,2.426,6.779,8.807,11.186,7.392c2.595-0.979,4.02-5.716,5.992-7.694
		c2.322-2.358,5.105-4.148,3.123-8.095c-1.656-3.081-5.12-3.751-7.821-1.744c-3.836,2.929,0.472,6.492-0.985,8.523
		c-2.347,3.602-5.822-2.992-5.825-4.967c0.184-2.787,2.074-4.982,1.96-7.903c-0.22-1.893-1.28-4.705-2.067-6.137
		c-1.709-2.567-7.744-3.503-8.736,1.071c-0.401,2.868,4.23,5.322,4.18,7.811c0.195,3.138-6.223,5.898-3.446,9.204
		C1.766,45.246,2.93,46.589,3.639,47.111z"/>
</g>
<g opacity="0.2">
	<path fill="#FFFFFF" d="M23.807,26.343c-1.283,2.639,1.749,4.202,4.148,3.658c1.345-0.228,2.362-1.991,3.809-2.029
		c1.358,0.255,2.271,1.969,3.629,2.223c2.234,0.522,15.943-3.113,16.579-4.674c0.368-0.685-1.42-2.666-1.635-3.529
		c-0.532-1.917,0.89-2.919,0.942-4.657c0.37-4.353-3.476-3.772-7.752-4.916c-2.627-0.801-1.739-0.052-3.235-1.944
		c-0.9-1.232-1.23-2.768-2.612-3.987c-2.08-2.07-4.554-4.419-7.727-3.952c-3.364,0.569-5.32,3.322-5.436,6.318
		c-0.166,1.066,0.075,2.894,0.01,4.15c0.126,1.155-0.217,2.805,0.099,3.858c1.762,4.684,11.927,5.87,9.849,0.132
		c-0.532-1.917-7.079-5.03-3.385-7.731c3.124-2.397,4.72,3.353,5.811,4.484c0.888,0.749,3.008,0.598,3.718,1.931
		c0.304,0.571-0.509,2.716-0.091,3.96c0.836,2.488,4.287,5.295-0.816,5.813c-0.673,0.114-2.919-0.89-3.883-0.865
		c-1.358-0.255-3.084,0.176-4.722,0.315c-3.275,0.277-4.734-0.168-7.03-3.101c-2.689-3.213-1.559-4.304-5.659-2.364
		c-1.904,1.014-6.195,3.055-8.085,0.884c-3.374-3.581,3.556-4.339,5.283-4.769c2.78-0.747,7.402-4.92,2.44-6.434
		c-2.627-0.801-11.451,5.121-13.14,6.999c-1.956,2.753,1.925,7.286,5.339,8.646c3.705,1.449,7.603-0.872,11.219,0.869"/>
</g>
<path opacity="0.2" fill="#FFFFFF" d="M227.761,0c0,0,2.294,2.576,8.4,2.638C252.793,2.807,251.306,0,251.306,0"/>
<path opacity="0.2" fill="#FFFFFF" d="M206.337,0c0,1.215-2.31,4.532,1.562,4.745c3.159,0.173,10.666,2.44,15.448,2.304
	c4.03-0.114,4.988-2.067,3.46-3.28C222.784,0.573,215.542,2.97,215.542,0"/>
<path opacity="0.2" fill="#FFFFFF" d="M109.233,0c0.671,2.108-6.517,2.469-9.62,2.584c-1.419,0.053-4.267-0.927-5.649-0.599
	c-4.498,1.067-4.35,6.154-8.516,7.543c-2.5,0.833-5.833,0.556-6.944,3.889c-0.278,0.833,0.833,7.499,1.389,8.333
	c1.667,2.5,11.388,4.444,13.332,0.556c4.166-7.777-7.777-4.444-9.444-6.111c1.389-1.667,4.166-3.333,6.666-3.889
	c1.944-0.278,7.777,1.389,8.888,0.833c4.166-1.944-1.111-3.611,0-6.111c1.667-3.611,4.99,0.983,7.212,1.538
	c6.944,2.5,9.31-1.268,12.127-2.56c2.383-1.093,2.019-4.231,2.913-6.007"/>
<path opacity="0.2" fill="#FFFFFF" d="M45.8,256c0,0,1.051-1.466,2.825-1.619c2.21-0.191,2.453,1.619,2.453,1.619"/>
<path opacity="0.2" fill="#FFFFFF" d="M143.286,256c0,0,8.919-1.569,11.87-1.466c3.828,0.134,5.234,1.447,5.234,1.447"/>
<path opacity="0.2" fill="#FFFFFF" d="M196.021,256c-2.052-0.89-4.665-1.306-6.363-1.789c-1.034-0.294-2.63-1.627-3.596-2.098
	c-0.385-0.188-1.475-0.923-2.49-0.922c-1.778,0.001-4.449,0.807-2.352,3.712c0.658,0.911,3.276,0.501,4.357,1.097"/>
<path opacity="0.2" fill="#FFFFFF" d="M255.998,201.816c0,0-1.105,0-1.411,1.856c-0.231,1.401,1.411,5.502,1.411,5.502"/>
<path opacity="0.2" fill="#FFFFFF" d="M206.322,256.015c0,0-0.311-1.35,1.22-2.492c1.291-0.963,4.975-1.352,6.41-0.623
	c3.218,1.634,1.609,3.114,1.609,3.114"/>
<path opacity="0.2" fill="#FFFFFF" d="M255.993,63.315v18.922c0,0-0.479,8.785-1.913,10.657c-1.421,1.855-6.552,4.429-8.681,3.465
	c-3.353-1.52-4.286-10.256-4.909-13.885c-0.329-1.917-0.831-6.022,0-7.781c0.814-1.723,4.739-3.321,5.891-4.84
	c1.196-1.576,2.686-5.328,3.191-7.241c0.311-1.18,0.76-3.665,0.491-4.855c-0.237-1.05-1.839-2.68-2.231-3.682
	c-0.548-1.4-1.31-4.391-1.205-5.891c0.063-0.895,0.657-2.67,1.205-3.381c0.413-0.536,1.555-1.525,2.231-1.528
	c0.685-0.003,1.901,0.954,2.275,1.528c0.616,0.945,0.942,3.325,0.789,4.443c-0.115,0.84-1.398,2.212-1.466,3.057
	c-0.064,0.797,0.751,2.283,0.902,3.068c0.224,1.159,0.477,3.521,0.451,4.701c-0.059,2.619-0.639,7.89-1.466,10.375
	c-0.61,1.831-2.656,5.154-3.717,6.766c-0.61,0.926-2.534,2.404-2.728,3.496c-0.387,2.188,0.55,8.017,2.728,8.458
	c1.021,0.207,2.357-2.181,2.72-3.158c0.491-1.321-0.087-4.232,0-5.639c0.083-1.333,0.365-3.998,0.659-5.3
	C251.873,72.136,253.15,64.752,255.993,63.315z"/>
</svg>
