<?xml version="1.0" encoding="utf-8"?>
<!-- Generator: Adobe Illustrator 17.0.0, SVG Export Plug-In . SVG Version: 6.00 Build 0)  -->
<!DOCTYPE svg PUBLIC "-//W3C//DTD SVG 1.1//EN" "http://www.w3.org/Graphics/SVG/1.1/DTD/svg11.dtd">
<svg version="1.1" id="Layer_1" xmlns="http://www.w3.org/2000/svg" xmlns:xlink="http://www.w3.org/1999/xlink" x="0px" y="0px"
	 width="256px" height="256px" viewBox="0 0 256 256" enable-background="new 0 0 256 256" xml:space="preserve">
<path fill="#C61E5A" d="M221.511,256.034c-6.92-3.715-10.603-7.227-12.857-14.75c-2.151-7.178,0.256-23.423,4.436-29.642
	c3.14-4.671,13.74-11.162,19.358-11.494c7.893-0.466,18.256,3.053,23.504,8.967l0,46.919"/>
<linearGradient id="SVGID_1_" gradientUnits="userSpaceOnUse" x1="160.6511" y1="235.7757" x2="194.3263" y2="235.7757">
	<stop  offset="0" style="stop-color:#ED174E"/>
	<stop  offset="0.3828" style="stop-color:#CD0B4F"/>
	<stop  offset="0.7835" style="stop-color:#B3004E"/>
	<stop  offset="1" style="stop-color:#A9004D"/>
</linearGradient>
<path fill="url(#SVGID_1_)" d="M187.695,255.186c4.051-2.011,6.99-12.341,6.596-16.847c-0.49-5.607-7.026-16.116-11.72-19.221
	c-3.534-2.338-13.212-4.755-16.771-2.456c-3.899,2.519-5.451,13.224-5.101,17.853c0.31,4.103,3.726,12.288,6.85,14.966
	C171.523,252.889,183.006,257.514,187.695,255.186"/>
<path fill="#C61E5A" d="M219.81,152.713c7.893-0.466,23.657,6.923,28.905,12.838c3.7,4.171,6.969,26.698,7.188,32.269
	c0.351,8.918-1.065,18.826-8.418,23.886c-6.348,4.368-23.709-0.822-30.498-4.466c-6.92-3.715-18.717-15.868-20.971-23.391
	c-2.151-7.178,0.256-23.423,4.436-29.642C203.591,159.536,214.191,153.045,219.81,152.713z"/>
<linearGradient id="SVGID_2_" gradientUnits="userSpaceOnUse" x1="16.4942" y1="195.5763" x2="68.958" y2="195.5763">
	<stop  offset="0" style="stop-color:#ED174E"/>
	<stop  offset="0.3828" style="stop-color:#CD0B4F"/>
	<stop  offset="0.7835" style="stop-color:#B3004E"/>
	<stop  offset="1" style="stop-color:#A9004D"/>
</linearGradient>
<path fill="url(#SVGID_2_)" d="M23.778,165.41c-6.372,4.045-6.159,13.815-6.871,17.067c-1.477,6.753,1.31,20.877,3.529,27.424
	c1.403,4.14,4.984,12.942,8.772,15.124c5.635,3.246,20.433,3.341,26.013,0c6.23-3.731,14.246-18.367,13.712-25.609
	c-0.647-8.768-10.378-28.875-18.232-32.825C45.341,163.895,28.843,162.195,23.778,165.41z"/>
<path fill="#C61E5A" d="M80.947,256.036c-1.588-3.673-3.216-7.273-3.285-10.143c-0.268-11.129,13.936-18.643,20.949-24.367
	c13.19-10.766,30.835-7.857,43.147,4.691c8.9,9.071,10.434,11.409,16.437,29.82"/>
<path fill="#DF1B53" d="M-0.098,128.534c8.338-1.274,17.58,0.054,22.272,2.356c10.878,5.338,30.418,31.891,25.156,42.806
	c-5.045,10.466-36.4,32.511-47.428,26.933L-0.098,128.534z"/>
<path fill="#C61E5A" d="M-0.098,132.814c2.529-1.475,10.607-4.3,12.51-6.525c3.186-3.724,6.241-13.501,6.863-18.362
	c0.627-4.902-0.778-14.883-2.04-19.66c-0.737-2.79-4.374-7.698-4.637-10.572c-0.147-1.613,2.994-5.72,1.484-6.306
	c-4.258-1.652-5.69,12.705-8.903,15.951c-1.231,1.243-3.088,2.356-5.276,3.412L-0.098,132.814z"/>
<path fill="#C61E5A" d="M174.361,256.034c7.149-7.847,6.193-15.747,10.506-18.879c8.112-5.889,18.963-4.298,26.535,2.566
	c5.474,4.962,6.417,6.241,10.109,16.313"/>
<path fill="#E92B6B" d="M48.972,256.034c-1.183-2.009-2.011-3.979-2.063-5.549c-0.2-6.088,10.382-10.199,15.607-13.33
	c9.827-5.889,22.973-4.298,32.145,2.566c6.631,4.962,7.57,6.241,12.042,16.313"/>
<linearGradient id="SVGID_3_" gradientUnits="userSpaceOnUse" x1="-3030.3018" y1="-3716.5911" x2="-2984.5068" y2="-3716.5911" gradientTransform="matrix(0.2921 1.0528 -1.0159 0.2818 -2692.9092 4269.5762)">
	<stop  offset="0" style="stop-color:#ED174E"/>
	<stop  offset="0.3828" style="stop-color:#CD0B4F"/>
	<stop  offset="0.7835" style="stop-color:#B3004E"/>
	<stop  offset="1" style="stop-color:#A9004D"/>
</linearGradient>
<path fill="url(#SVGID_3_)" d="M216.194,30.298c-3.679-2.16-15.239,2.725-19.402,3.22c-4.36,0.518-19.989,2.199-21.121,6.56
	c-0.334,1.286-0.847,4.88,0.161,5.742c6.733,5.755,23.922,13.994,28.351,21.759c2.071,3.632,9.284,10.406,13.338,10.438
	c3.695,0.029,10.773-5.719,13.242-9.94c1.089-1.861,0.898-6.658,0.247-8.757C228.803,52.206,222.506,34.004,216.194,30.298z"/>
<path fill="#C61E5A" d="M204.01,0.034c7.227,9.707,12.698,21.821,9.51,28.435c-5.187,10.761-37.012,13.65-47.203,7.418
	c-6.374-3.898-5.024-26.562,8.217-35.852L204.01,0.034z"/>
<path fill="#C61E5A" d="M102.996,0.034c-0.321,3.729-1.891,20.261,0.946,22.703c3.382,2.912,13.872,0.818,17.533,3.372
	c5.489,3.829,7.16,23.553,13.824,22.927c6.11-0.574,4.276-18.745,8.766-22.927c2.291-2.134,10.438-0.91,11.985-3.632
	c2.227-3.917-5.079-12.589-5.587-17.137c-0.243-2.172-0.247-3.895-0.123-5.306L102.996,0.034z"/>
<linearGradient id="SVGID_4_" gradientUnits="userSpaceOnUse" x1="75.033" y1="55.8739" x2="142.6678" y2="55.8739">
	<stop  offset="0" style="stop-color:#ED174E"/>
	<stop  offset="0.3828" style="stop-color:#CD0B4F"/>
	<stop  offset="0.7835" style="stop-color:#B3004E"/>
	<stop  offset="1" style="stop-color:#A9004D"/>
</linearGradient>
<path fill="url(#SVGID_4_)" d="M102.838,22.623C94.687,24.36,78.354,33.78,75.414,41.578c-1.393,3.695,1.293,12.3,3.831,15.325
	c2.626,3.129,11.501,4.422,14.922,6.654c8.039,5.247,18.881,24.846,28.432,25.811c5.6,0.566,17.146-6.319,19.358-11.494
	c2.909-6.804-3.883-21.98-6.66-28.839c-2.512-6.204-8.325-19.112-13.824-22.927C117.58,23.407,107.474,21.636,102.838,22.623z"/>
<linearGradient id="SVGID_5_" gradientUnits="userSpaceOnUse" x1="42.0428" y1="88.8922" x2="123.8436" y2="88.8922">
	<stop  offset="0" style="stop-color:#ED174E"/>
	<stop  offset="0.3828" style="stop-color:#CD0B4F"/>
	<stop  offset="0.7835" style="stop-color:#B3004E"/>
	<stop  offset="1" style="stop-color:#A9004D"/>
</linearGradient>
<path fill="url(#SVGID_5_)" d="M65.13,54.887c-7.932,2.079-20.834,15.629-22.786,23.593c-1.652,6.739,3.842,20.964,7.864,26.617
	c3.163,4.446,12.571,10.974,17.745,12.704c11.908,3.982,40.599,9.29,50.21,1.21c5.735-4.822,6.953-22.584,4.436-29.642
	c-3.225-9.042-20.071-21.094-28.432-25.811C87.569,59.835,72.459,52.966,65.13,54.887z"/>
<linearGradient id="SVGID_6_" gradientUnits="userSpaceOnUse" x1="7.6848" y1="119.2471" x2="72.2632" y2="119.2471">
	<stop  offset="0" style="stop-color:#ED174E"/>
	<stop  offset="0.3828" style="stop-color:#CD0B4F"/>
	<stop  offset="0.7835" style="stop-color:#B3004E"/>
	<stop  offset="1" style="stop-color:#A9004D"/>
</linearGradient>
<path fill="url(#SVGID_6_)" d="M42.344,86.142c-2.842-2.092-10.859-1.359-14.115,0C22.077,88.71,12.01,98.932,9.476,105.097
	c-2.147,5.222-2.617,17.582,0,22.585c4.836,9.244,24.324,20.678,34.28,23.794c5.725,1.792,19.4,3.856,23.996,0
	c4.667-3.915,4.904-17.941,4.235-23.996c-0.288-2.606-2.374-7.65-4.033-9.679c-3.814-4.666-14.353-9.742-17.946-14.581
	C47.175,99.405,46.171,88.959,42.344,86.142z"/>
<path fill="#DF1B53" d="M88.723,179.707c9.507,4.103,33.248,1.869,41.136-4.84c6.43-5.469,11.17-24.239,9.276-32.465
	c-1.762-7.654-13.839-20.103-20.971-23.391c-11.403-5.257-40.257-8.775-50.616-1.679c-3.418,2.341-6.16,11.341-6.137,14.771
	c0.04,6.092,4.94,13.445,6.341,19.374C69.774,160.032,80.651,176.223,88.723,179.707z"/>
<linearGradient id="SVGID_7_" gradientUnits="userSpaceOnUse" x1="36.2846" y1="175.8681" x2="88.7484" y2="175.8681">
	<stop  offset="0" style="stop-color:#ED174E"/>
	<stop  offset="0.3828" style="stop-color:#CD0B4F"/>
	<stop  offset="0.7835" style="stop-color:#B3004E"/>
	<stop  offset="1" style="stop-color:#A9004D"/>
</linearGradient>
<path fill="url(#SVGID_7_)" d="M43.569,145.701c-6.372,4.045-6.159,13.815-6.871,17.067c-1.477,6.753,1.31,20.877,3.529,27.424
	c1.403,4.14,4.984,12.942,8.772,15.124c5.635,3.246,20.433,3.341,26.013,0c6.23-3.731,14.246-18.367,13.712-25.609
	c-0.647-8.768-10.378-28.875-18.232-32.825C65.131,144.186,48.633,142.486,43.569,145.701z"/>
<path fill="#DF1B53" d="M33.068,205.316c-1.606,6.757,3.013,20.987,6.453,27.021c3.231,5.668,12.705,15.701,18.753,18.148
	c4.907,1.985,16.62,2.699,21.173,0c5.24-3.106,11.985-15.29,11.696-21.375c-0.342-7.179-9.782-20.428-16.132-23.794
	c-5.746-3.046-20.377,3.246-26.013,0c-2.802-1.614-3.268-10.904-6.488-11.187C38.865,193.808,33.914,201.755,33.068,205.316z"/>
<path fill="#E92B6B" d="M75.452,0.034c-8.5,6.414-17.868,16.957-19.513,24.25c-0.965,4.277,2.309,13.589,5.418,16.682
	c1.804,1.795,7.178,3.458,9.697,3.096c10.596-1.523,30.846-14.334,35.472-23.988c2.04-4.258,2.307-14.068,0.208-20.041L75.452,0.034
	z"/>
<linearGradient id="SVGID_8_" gradientUnits="userSpaceOnUse" x1="35.3046" y1="62.1202" x2="81.0995" y2="62.1202">
	<stop  offset="0" style="stop-color:#ED174E"/>
	<stop  offset="0.3828" style="stop-color:#CD0B4F"/>
	<stop  offset="0.7835" style="stop-color:#B3004E"/>
	<stop  offset="1" style="stop-color:#A9004D"/>
</linearGradient>
<path fill="url(#SVGID_8_)" d="M42.344,49.036c-2.805,2.815-5.139,10.898-5.721,14.829c-0.61,4.117-2.951,18.828,0.618,20.969
	c1.053,0.632,4.097,2.011,5.104,1.308c6.723-4.694,14.352-25.528,22.284-27.607c3.71-0.972,15.294,1.364,16.313-2.333
	c0.929-3.37-2.408-11.297-5.527-14.624c-1.375-1.467-6.583-3.736-8.593-3.673C60.007,38.118,47.156,44.207,42.344,49.036z"/>
<path fill="#C61E5A" d="M141.958,77.875c7.893-0.466,23.657,6.923,28.905,12.838c3.7,4.171,6.339,15.744,6.558,21.314
	c0.351,8.918-0.436,29.781-7.788,34.841c-6.348,4.368-23.709-0.822-30.498-4.466c-6.92-3.715-18.717-15.868-20.971-23.391
	c-2.151-7.178,0.256-23.423,4.436-29.642C125.739,84.697,136.339,78.206,141.958,77.875z"/>
<path fill="#DF1B53" d="M197.301,54.887c-10.01,5.147-24.387,25.508-26.194,36.618c-0.862,5.298,2.552,16.693,6.315,20.522
	c6.007,6.114,24.427,13.283,32.586,10.657c9.248-2.977,20.346-21.998,22.954-31.357c1.091-3.914,0.358-12.544-1.435-16.191
	c-3.291-6.697-14.98-17.532-21.929-20.25C206.734,53.767,200.035,53.481,197.301,54.887z"/>
<path fill="#E92B6B" d="M232.819,42.742c-5.635,0.129-18.179,3.637-20.837,8.608c-2.222,4.156,0.045,15.497,3.689,18.485
	c2.377,1.949,7.909,6.587,10.772,7.706c6.95,2.718,26.954,14.112,29.459,14.879l-0.063-42.114
	C250.368,46.161,238.729,42.606,232.819,42.742z"/>
<linearGradient id="SVGID_9_" gradientUnits="userSpaceOnUse" x1="135.2435" y1="56.2023" x2="197.5782" y2="56.2023">
	<stop  offset="0" style="stop-color:#ED174E"/>
	<stop  offset="0.3828" style="stop-color:#CD0B4F"/>
	<stop  offset="0.7835" style="stop-color:#B3004E"/>
	<stop  offset="1" style="stop-color:#A9004D"/>
</linearGradient>
<path fill="url(#SVGID_9_)" d="M159.591,20.621c-4.325-0.147-13.124,3.117-16.16,6.201c-4.149,4.214-7.766,16.311-8.133,22.214
	c-0.458,7.385,2.006,23.086,6.66,28.839c5.059,6.254,21.367,15.669,29.148,13.63c10.888-2.852,23.826-25.614,26.194-36.618
	c0.991-4.607-0.775-14.782-3.689-18.485C187.814,29.034,168.961,20.94,159.591,20.621z"/>
<linearGradient id="SVGID_10_" gradientUnits="userSpaceOnUse" x1="169.1349" y1="147.5228" x2="227.1197" y2="147.5228">
	<stop  offset="0" style="stop-color:#ED174E"/>
	<stop  offset="0.3828" style="stop-color:#CD0B4F"/>
	<stop  offset="0.7835" style="stop-color:#B3004E"/>
	<stop  offset="1" style="stop-color:#A9004D"/>
</linearGradient>
<path fill="url(#SVGID_10_)" d="M177.421,112.027c-7.757,4.415-9.244,26.035-7.788,34.841c1.669,10.098,12.503,29.744,21.313,34.953
	c3.911,2.312,13.877,2.339,18.155,0.81c5.432-1.94,15.676-9.831,17.183-15.399c3.181-11.758-2.912-44.435-14.937-46.378
	c-0.56-0.09-0.8,1.656-1.34,1.83C201.848,125.311,184.87,107.788,177.421,112.027z"/>
<linearGradient id="SVGID_11_" gradientUnits="userSpaceOnUse" x1="129.7719" y1="177.159" x2="191.0103" y2="177.159">
	<stop  offset="0" style="stop-color:#ED174E"/>
	<stop  offset="0.3828" style="stop-color:#CD0B4F"/>
	<stop  offset="0.7835" style="stop-color:#B3004E"/>
	<stop  offset="1" style="stop-color:#A9004D"/>
</linearGradient>
<path fill="url(#SVGID_11_)" d="M139.135,142.402c-7.09,4.58-9.912,24.048-9.276,32.465c0.564,7.462,6.776,22.346,12.457,27.216
	c7.226,6.196,28.109,14.607,36.634,10.374c7.367-3.658,12.712-22.443,11.995-30.637c-0.891-10.196-12.776-29.307-21.313-34.953
	C163.206,142.617,145.608,138.221,139.135,142.402z"/>
<linearGradient id="SVGID_12_" gradientUnits="userSpaceOnUse" x1="74.9982" y1="203.0976" x2="142.561" y2="203.0976">
	<stop  offset="0" style="stop-color:#ED174E"/>
	<stop  offset="0.3828" style="stop-color:#CD0B4F"/>
	<stop  offset="0.7835" style="stop-color:#B3004E"/>
	<stop  offset="1" style="stop-color:#A9004D"/>
</linearGradient>
<path fill="url(#SVGID_12_)" d="M136.967,228.667c5.224-4.32,6.129-19.85,5.349-26.584c-0.861-7.433-5.935-23.549-12.457-27.216
	c-9.026-5.075-32.579-0.992-41.136,4.84c-6.001,4.09-14.09,18.357-13.712,25.609c0.374,7.177,9.766,20.459,16.132,23.794
	C101.291,234.428,128.138,235.968,136.967,228.667z"/>
<linearGradient id="SVGID_13_" gradientUnits="userSpaceOnUse" x1="178.9403" y1="207.5524" x2="237.9146" y2="207.5524">
	<stop  offset="0" style="stop-color:#ED174E"/>
	<stop  offset="0.3828" style="stop-color:#CD0B4F"/>
	<stop  offset="0.7835" style="stop-color:#B3004E"/>
	<stop  offset="1" style="stop-color:#A9004D"/>
</linearGradient>
<path fill="url(#SVGID_13_)" d="M206.913,182.514c3.268-0.298,10.922-8.219,13.954-6.963c6.61,2.74,16.726,21.251,17.036,28.4
	c0.371,8.536-8.551,25.561-15.58,30.418c-6.494,4.487-24.485,7.372-31.377,3.524c-6.139-3.427-11.758-18.41-11.995-25.436
	c-0.277-8.221,5.104-26.147,11.995-30.637C194.919,179.232,202.191,182.945,206.913,182.514z"/>
<linearGradient id="SVGID_14_" gradientUnits="userSpaceOnUse" x1="136.3389" y1="223.8246" x2="191.4431" y2="223.8246">
	<stop  offset="0" style="stop-color:#ED174E"/>
	<stop  offset="0.3828" style="stop-color:#CD0B4F"/>
	<stop  offset="0.7835" style="stop-color:#B3004E"/>
	<stop  offset="1" style="stop-color:#A9004D"/>
</linearGradient>
<path fill="url(#SVGID_14_)" d="M165.011,246.982c4.972-0.047,14.034-5.053,18.733-6.677c1.794-0.62,6.456-0.665,7.202-2.411
	c2.761-6.466-6.632-20.891-11.995-25.436c-7.262-6.154-28.51-15.335-36.634-10.374c-5.786,3.533-6.886,19.981-5.349,26.584
	c0.859,3.689,6.155,9.81,9.24,12.008C150.244,243.554,160.053,247.029,165.011,246.982z"/>
<path fill="#DF1B53" d="M255.871,256.083c-3.044-2.597-13.164-11.615-12.774-14.665c0.627-4.902-0.778-14.883-2.04-19.66
	c-0.737-2.79,3.854-10.401,3.592-13.275c-0.147-1.613-5.235-3.018-6.745-3.603c-4.258-1.652-14.38-1.646-22.356,5.688
	c-9.618,8.844-13.039,17.944-14.393,26.18c-0.932,5.666,1.732,7.083,1.694,9.493c-0.038,2.421-1.899,6.489-2.625,9.794"/>
<linearGradient id="SVGID_15_" gradientUnits="userSpaceOnUse" x1="42.7261" y1="200.6666" x2="62.1473" y2="200.6666">
	<stop  offset="0" style="stop-color:#FFFFFF"/>
	<stop  offset="0.098" style="stop-color:#FAEEED"/>
	<stop  offset="0.2908" style="stop-color:#F1CACD"/>
	<stop  offset="0.5596" style="stop-color:#E5939F"/>
	<stop  offset="0.8909" style="stop-color:#D7466E"/>
	<stop  offset="1" style="stop-color:#D31B60"/>
</linearGradient>
<path fill="url(#SVGID_15_)" d="M61.675,199.367c-1.519-2.2-7.328-3.865-10-3.788c-2.322,0.067-7.221,1.839-8.485,3.788
	c-0.536,0.826-0.696,3.243,0,3.939c3.268,3.268,15.217,3.268,18.485,0C62.371,202.61,62.235,200.177,61.675,199.367z"/>
<linearGradient id="SVGID_16_" gradientUnits="userSpaceOnUse" x1="110.686" y1="12.6219" x2="134.0343" y2="12.6219">
	<stop  offset="0" style="stop-color:#FFFFFF"/>
	<stop  offset="0.098" style="stop-color:#FAEEED"/>
	<stop  offset="0.2908" style="stop-color:#F1CACD"/>
	<stop  offset="0.5596" style="stop-color:#E5939F"/>
	<stop  offset="0.8909" style="stop-color:#D7466E"/>
	<stop  offset="1" style="stop-color:#D31B60"/>
</linearGradient>
<path fill="url(#SVGID_16_)" d="M129.635,3.679c-2.166-1.089-7.487-0.996-9.697,0c-3.18,1.433-9.536,6.978-9.242,10.455
	c0.274,3.248,6.928,7.698,10.151,8.182c2.017,0.303,6.034-1.695,7.576-3.03c2.117-1.833,5.767-6.901,5.606-9.697
	C133.923,7.751,131.28,4.506,129.635,3.679z"/>
<linearGradient id="SVGID_17_" gradientUnits="userSpaceOnUse" x1="86.7902" y1="8.7967" x2="102.2565" y2="8.7967">
	<stop  offset="0" style="stop-color:#FFFFFF"/>
	<stop  offset="0.098" style="stop-color:#FAEEED"/>
	<stop  offset="0.2908" style="stop-color:#F1CACD"/>
	<stop  offset="0.5596" style="stop-color:#E5939F"/>
	<stop  offset="0.8909" style="stop-color:#D7466E"/>
	<stop  offset="1" style="stop-color:#D31B60"/>
</linearGradient>
<path fill="url(#SVGID_17_)" d="M95.182,4.05c1.239-1.294,6.213,0.043,6.97,1.667c0.573,1.228-1.343,4.032-2.424,4.848
	c-2.615,1.974-11.115,5.185-12.879,2.424c-0.351-0.549,0.963-1.775,1.515-2.121c1.14-0.715,4.204-0.133,5.303-0.909
	c0.886-0.626,1.995-2.71,2.121-3.788C95.852,5.624,94.801,4.449,95.182,4.05z"/>
<linearGradient id="SVGID_18_" gradientUnits="userSpaceOnUse" x1="69.0106" y1="29.7924" x2="94.6107" y2="29.7924">
	<stop  offset="0" style="stop-color:#FFFFFF"/>
	<stop  offset="0.098" style="stop-color:#FAEEED"/>
	<stop  offset="0.2908" style="stop-color:#F1CACD"/>
	<stop  offset="0.5596" style="stop-color:#E5939F"/>
	<stop  offset="0.8909" style="stop-color:#D7466E"/>
	<stop  offset="1" style="stop-color:#D31B60"/>
</linearGradient>
<path fill="url(#SVGID_18_)" d="M94.321,21.589c-2.129-2.621-10.21-1.582-13.485-0.758c-2.885,0.726-8.3,3.883-10.151,6.212
	c-0.82,1.031-1.765,3.686-1.667,5c0.156,2.078,1.803,6.79,3.788,7.424c4.801,1.534,13.978-6.127,17.879-9.318
	c0.886-0.725,2.417-2.513,2.879-3.561C94.073,25.432,95.118,22.57,94.321,21.589z"/>
<linearGradient id="SVGID_19_" gradientUnits="userSpaceOnUse" x1="153.8624" y1="30.2983" x2="166.9198" y2="30.2983">
	<stop  offset="0" style="stop-color:#FFFFFF"/>
	<stop  offset="0.098" style="stop-color:#FAEEED"/>
	<stop  offset="0.2908" style="stop-color:#F1CACD"/>
	<stop  offset="0.5596" style="stop-color:#E5939F"/>
	<stop  offset="0.8909" style="stop-color:#D7466E"/>
	<stop  offset="1" style="stop-color:#D31B60"/>
</linearGradient>
<path fill="url(#SVGID_19_)" d="M165.548,29.013c-2.299-1.016-7.731-2.144-10-1.061c-0.692,0.33-1.85,1.831-1.667,2.576
	c0.239,0.972,2.517,1.715,3.485,1.97c1.978,0.52,6.402,1.008,8.182,0c0.577-0.326,1.464-1.618,1.364-2.273
	C166.843,29.775,165.966,29.198,165.548,29.013z"/>
<linearGradient id="SVGID_20_" gradientUnits="userSpaceOnUse" x1="194.1639" y1="64.2328" x2="213.2708" y2="64.2328">
	<stop  offset="0" style="stop-color:#FFFFFF"/>
	<stop  offset="0.098" style="stop-color:#FAEEED"/>
	<stop  offset="0.2908" style="stop-color:#F1CACD"/>
	<stop  offset="0.5596" style="stop-color:#E5939F"/>
	<stop  offset="0.8909" style="stop-color:#D7466E"/>
	<stop  offset="1" style="stop-color:#D31B60"/>
</linearGradient>
<path fill="url(#SVGID_20_)" d="M211.29,62.195c-1.925-1.151-6.417-2.743-8.636-2.424c-2.476,0.355-8.227,2.815-8.485,5.303
	c-0.135,1.306,2.497,3.396,3.788,3.636c1.736,0.324,4.769-2.466,6.515-2.727c1.882-0.281,5.914,1.686,7.576,0.758
	c0.606-0.339,1.321-1.814,1.212-2.5C213.148,63.539,211.899,62.559,211.29,62.195z"/>
<linearGradient id="SVGID_21_" gradientUnits="userSpaceOnUse" x1="183.5208" y1="84.8337" x2="204.8069" y2="84.8337">
	<stop  offset="0" style="stop-color:#FFFFFF"/>
	<stop  offset="0.098" style="stop-color:#FAEEED"/>
	<stop  offset="0.2908" style="stop-color:#F1CACD"/>
	<stop  offset="0.5596" style="stop-color:#E5939F"/>
	<stop  offset="0.8909" style="stop-color:#D7466E"/>
	<stop  offset="1" style="stop-color:#D31B60"/>
</linearGradient>
<path fill="url(#SVGID_21_)" d="M204.694,77.146c-1.398-2.912-9.937-2.395-12.879-1.061c-3.132,1.421-7.479,7.694-8.182,11.061
	c-0.381,1.826,0.208,6.11,1.667,7.273c0.563,0.448,2.171,0.131,2.879,0c2.075-0.385,6.289-1.642,7.879-3.03
	c1.66-1.45,3.095-5.846,4.242-7.727C201.324,81.984,205.545,78.917,204.694,77.146z"/>
<linearGradient id="SVGID_22_" gradientUnits="userSpaceOnUse" x1="128.7047" y1="780.8239" x2="157.0436" y2="780.8239" gradientTransform="matrix(0.982 -0.1887 0.1887 0.982 -155.2462 -636.8049)">
	<stop  offset="0" style="stop-color:#FFFFFF"/>
	<stop  offset="0.098" style="stop-color:#FAEEED"/>
	<stop  offset="0.2908" style="stop-color:#F1CACD"/>
	<stop  offset="0.5596" style="stop-color:#E5939F"/>
	<stop  offset="0.8909" style="stop-color:#D7466E"/>
	<stop  offset="1" style="stop-color:#D31B60"/>
</linearGradient>
<path fill="url(#SVGID_22_)" d="M142.202,85.322c-2.671-1.673-9.683,1.339-12.178,3.265c-2.998,2.315-6.469,9.521-7.499,13.166
	c-1.257,4.448-3.619,14.965-0.616,18.478c0.879,1.029,4.068,1.022,5.373,0.665c4.542-1.242,12.426-7.508,14.915-11.505
	c1.58-2.538,2.362-8.73,2.377-11.719C144.591,94.528,144.866,86.99,142.202,85.322z"/>
<linearGradient id="SVGID_23_" gradientUnits="userSpaceOnUse" x1="178.631" y1="127.4922" x2="203.3895" y2="127.4922">
	<stop  offset="0" style="stop-color:#FFFFFF"/>
	<stop  offset="0.098" style="stop-color:#FAEEED"/>
	<stop  offset="0.2908" style="stop-color:#F1CACD"/>
	<stop  offset="0.5596" style="stop-color:#E5939F"/>
	<stop  offset="0.8909" style="stop-color:#D7466E"/>
	<stop  offset="1" style="stop-color:#D31B60"/>
</linearGradient>
<path fill="url(#SVGID_23_)" d="M188.773,115.07c-2.181,1.91-2.136,8.494-3.485,11.061c-1.117,2.126-5.128,5.304-5.909,7.576
	c-0.554,1.612-1.362,5.794,0,6.818c2.616,1.967,9.74-2.002,12.576-3.636c3.319-1.913,9.722-7.017,11.061-10.606
	c0.718-1.925,0.368-6.463-0.758-8.182c-1.161-1.773-5.334-3.742-7.424-4.091C193.317,113.757,189.93,114.057,188.773,115.07z"/>
<linearGradient id="SVGID_24_" gradientUnits="userSpaceOnUse" x1="71.0164" y1="137.4672" x2="92.4365" y2="137.4672">
	<stop  offset="0" style="stop-color:#FFFFFF"/>
	<stop  offset="0.098" style="stop-color:#FAEEED"/>
	<stop  offset="0.2908" style="stop-color:#F1CACD"/>
	<stop  offset="0.5596" style="stop-color:#E5939F"/>
	<stop  offset="0.8909" style="stop-color:#D7466E"/>
	<stop  offset="1" style="stop-color:#D31B60"/>
</linearGradient>
<path fill="url(#SVGID_24_)" d="M92.23,128.816c1.318,2.173-4.092,6.547-4.697,9.015c-0.383,1.564,0.969,5.154,0,6.439
	c-1.328,1.761-6.392,3.123-8.485,2.424c-3.155-1.053-8.143-7.282-8.03-10.606c0.039-1.154,2.074-2.838,3.03-3.485
	c2.391-1.617,8.062-3.308,10.909-3.788C86.751,128.514,91.287,127.262,92.23,128.816z"/>
<linearGradient id="SVGID_25_" gradientUnits="userSpaceOnUse" x1="107.3608" y1="148.5346" x2="132.5193" y2="148.5346">
	<stop  offset="0" style="stop-color:#FFFFFF"/>
	<stop  offset="0.098" style="stop-color:#FAEEED"/>
	<stop  offset="0.2908" style="stop-color:#F1CACD"/>
	<stop  offset="0.5596" style="stop-color:#E5939F"/>
	<stop  offset="0.8909" style="stop-color:#D7466E"/>
	<stop  offset="1" style="stop-color:#D31B60"/>
</linearGradient>
<path fill="url(#SVGID_25_)" d="M121.467,137.904c-4.449,1.253-13.594,7.374-14.091,11.97c-0.312,2.889,4.256,8.431,7.045,9.242
	c2.733,0.795,8.528-2.079,10.682-3.939c2.874-2.482,8.373-9.699,7.273-13.333c-0.496-1.638-4.436-2.645-6.061-3.182
	C125.15,138.277,122.648,137.571,121.467,137.904z"/>
<linearGradient id="SVGID_26_" gradientUnits="userSpaceOnUse" x1="58.8392" y1="91.7883" x2="86.882" y2="91.7883">
	<stop  offset="0" style="stop-color:#FFFFFF"/>
	<stop  offset="0.098" style="stop-color:#FAEEED"/>
	<stop  offset="0.2908" style="stop-color:#F1CACD"/>
	<stop  offset="0.5596" style="stop-color:#E5939F"/>
	<stop  offset="0.8909" style="stop-color:#D7466E"/>
	<stop  offset="1" style="stop-color:#D31B60"/>
</linearGradient>
<path fill="url(#SVGID_26_)" d="M86.596,76.378c-0.953-1.445-4.634-2.66-6.364-2.727c-4.118-0.159-12.528,2.563-15.606,5.303
	c-2.506,2.231-5.487,8.777-5.758,12.121c-0.318,3.931,2.005,12.013,4.394,15.151c1.051,1.38,4.264,4.187,5.909,3.636
	c2.315-0.775,3.179-6.68,3.561-9.091c0.451-2.848-2.436-9.226-0.682-11.515c1.365-1.781,6.754-0.87,8.788-1.818
	c1.662-0.775,4.958-2.895,5.758-4.545c0.644-1.329,0-4.432,0-5.909C86.596,76.832,86.679,76.504,86.596,76.378z"/>
<linearGradient id="SVGID_27_" gradientUnits="userSpaceOnUse" x1="67.1993" y1="64.3139" x2="79.8718" y2="64.3139">
	<stop  offset="0" style="stop-color:#FFFFFF"/>
	<stop  offset="0.098" style="stop-color:#FAEEED"/>
	<stop  offset="0.2908" style="stop-color:#F1CACD"/>
	<stop  offset="0.5596" style="stop-color:#E5939F"/>
	<stop  offset="0.8909" style="stop-color:#D7466E"/>
	<stop  offset="1" style="stop-color:#D31B60"/>
</linearGradient>
<path fill="url(#SVGID_27_)" d="M67.2,62.65c0.035-1.575,4.034-2.979,5.606-2.879c1.971,0.125,5.595,2.722,6.515,4.47
	c0.521,0.989,0.922,3.838,0,4.47c-1.039,0.712-3.56-1.277-4.697-1.818C72.694,65.973,67.152,64.787,67.2,62.65z"/>
<linearGradient id="SVGID_28_" gradientUnits="userSpaceOnUse" x1="138.0973" y1="49.5058" x2="159.0779" y2="49.5058">
	<stop  offset="0" style="stop-color:#FFFFFF"/>
	<stop  offset="0.098" style="stop-color:#FAEEED"/>
	<stop  offset="0.2908" style="stop-color:#F1CACD"/>
	<stop  offset="0.5596" style="stop-color:#E5939F"/>
	<stop  offset="0.8909" style="stop-color:#D7466E"/>
	<stop  offset="1" style="stop-color:#D31B60"/>
</linearGradient>
<path fill="url(#SVGID_28_)" d="M159.017,37.953c-0.694-2.082-5.993-3.339-8.182-3.182c-3.341,0.24-9.978,3.698-11.667,6.591
	c-1.709,2.928-1.119,10.36,0,13.561c0.983,2.812,4.459,9.032,7.424,9.318c3.517,0.339,9.68-5.802,10.758-9.167
	c0.81-2.528-2.988-7.68-2.576-10.303C155.087,42.788,159.652,39.857,159.017,37.953z"/>
<linearGradient id="SVGID_29_" gradientUnits="userSpaceOnUse" x1="168.2676" y1="62.7329" x2="186.7097" y2="62.7329">
	<stop  offset="0" style="stop-color:#FFFFFF"/>
	<stop  offset="0.098" style="stop-color:#FAEEED"/>
	<stop  offset="0.2908" style="stop-color:#F1CACD"/>
	<stop  offset="0.5596" style="stop-color:#E5939F"/>
	<stop  offset="0.8909" style="stop-color:#D7466E"/>
	<stop  offset="1" style="stop-color:#D31B60"/>
</linearGradient>
<path fill="url(#SVGID_29_)" d="M186.669,58.192c-0.39-2.028-4.3-5.197-6.364-5.265c-2.895-0.096-7.908,4.294-9.394,6.78
	c-1.627,2.722-4.001,10.429-1.667,12.576c0.913,0.84,3.693-0.609,4.848-1.061c2.166-0.846,6.41-3.028,8.03-4.697
	C183.776,64.823,187.117,60.523,186.669,58.192z"/>
<linearGradient id="SVGID_30_" gradientUnits="userSpaceOnUse" x1="185.093" y1="20.6164" x2="211.1616" y2="20.6164">
	<stop  offset="0" style="stop-color:#FFFFFF"/>
	<stop  offset="0.098" style="stop-color:#FAEEED"/>
	<stop  offset="0.2908" style="stop-color:#F1CACD"/>
	<stop  offset="0.5596" style="stop-color:#E5939F"/>
	<stop  offset="0.8909" style="stop-color:#D7466E"/>
	<stop  offset="1" style="stop-color:#D31B60"/>
</linearGradient>
<path fill="url(#SVGID_30_)" d="M211.158,22.61c0.219-4.739-9.219-12.401-13.939-12.879c-3.348-0.339-9.863,4.038-11.515,6.97
	c-0.874,1.551-0.751,5.507,0,7.121c1.253,2.693,6.165,7.14,9.091,7.651c2.426,0.424,7.085-2.221,9.242-3.409
	C206.001,26.983,211.054,24.851,211.158,22.61z"/>
<linearGradient id="SVGID_31_" gradientUnits="userSpaceOnUse" x1="109.0096" y1="55.6531" x2="130.8705" y2="55.6531">
	<stop  offset="0" style="stop-color:#FFFFFF"/>
	<stop  offset="0.098" style="stop-color:#FAEEED"/>
	<stop  offset="0.2908" style="stop-color:#F1CACD"/>
	<stop  offset="0.5596" style="stop-color:#E5939F"/>
	<stop  offset="0.8909" style="stop-color:#D7466E"/>
	<stop  offset="1" style="stop-color:#D31B60"/>
</linearGradient>
<path fill="url(#SVGID_31_)" d="M130.836,59.184c0.369-3.206-2.261-10.401-5.152-11.837c-2.374-1.179-8.087,1.046-10.303,2.5
	c-2.204,1.446-6.583,5.782-6.364,8.409c0.152,1.816,3.61,4.328,5.303,5c3.133,1.244,10.472,1.513,13.485,0
	C128.939,62.686,130.691,60.444,130.836,59.184z"/>
<linearGradient id="SVGID_32_" gradientUnits="userSpaceOnUse" x1="57.6435" y1="49.5354" x2="70.3302" y2="49.5354">
	<stop  offset="0" style="stop-color:#FFFFFF"/>
	<stop  offset="0.098" style="stop-color:#FAEEED"/>
	<stop  offset="0.2908" style="stop-color:#F1CACD"/>
	<stop  offset="0.5596" style="stop-color:#E5939F"/>
	<stop  offset="0.8909" style="stop-color:#D7466E"/>
	<stop  offset="1" style="stop-color:#D31B60"/>
</linearGradient>
<path fill="url(#SVGID_32_)" d="M69.927,53.104c0.947-1.108,0.055-4.665-0.909-5.758c-1.357-1.537-5.872-2.69-7.879-2.273
	c-1.106,0.23-3.346,1.757-3.485,2.879c-0.196,1.586,2.361,4.43,3.788,5.151C63.335,54.062,68.549,54.717,69.927,53.104z"/>
<linearGradient id="SVGID_33_" gradientUnits="userSpaceOnUse" x1="30.0294" y1="101.6941" x2="41.4727" y2="101.6941">
	<stop  offset="0" style="stop-color:#FFFFFF"/>
	<stop  offset="0.098" style="stop-color:#FAEEED"/>
	<stop  offset="0.2908" style="stop-color:#F1CACD"/>
	<stop  offset="0.5596" style="stop-color:#E5939F"/>
	<stop  offset="0.8909" style="stop-color:#D7466E"/>
	<stop  offset="1" style="stop-color:#D31B60"/>
</linearGradient>
<path fill="url(#SVGID_33_)" d="M41.473,101.799c0.016-1.502-3.518-3.085-5-3.333c-1.622-0.272-5.623,0.198-6.364,1.667
	c-0.367,0.729,0.623,2.465,1.212,3.03c0.985,0.946,3.795,1.973,5.152,1.818C37.945,104.812,41.457,103.28,41.473,101.799z"/>
<linearGradient id="SVGID_34_" gradientUnits="userSpaceOnUse" x1="38.2331" y1="171.7455" x2="63.904" y2="171.7455">
	<stop  offset="0" style="stop-color:#FFFFFF"/>
	<stop  offset="0.098" style="stop-color:#FAEEED"/>
	<stop  offset="0.2908" style="stop-color:#F1CACD"/>
	<stop  offset="0.5596" style="stop-color:#E5939F"/>
	<stop  offset="0.8909" style="stop-color:#D7466E"/>
	<stop  offset="1" style="stop-color:#D31B60"/>
</linearGradient>
<path fill="url(#SVGID_34_)" d="M59.018,158.861c-1.61-1.289-6.126-1.231-8.182-1.061c-2.603,0.216-8.259,1.082-10,3.03
	c-2.233,2.499-2.987,9.879-2.424,13.182c0.564,3.312,3.378,10.984,6.667,11.667c5.697,1.183,16.976-8.363,18.636-13.939
	C64.693,168.456,61.693,161.003,59.018,158.861z"/>
<linearGradient id="SVGID_35_" gradientUnits="userSpaceOnUse" x1="91.1518" y1="189.2996" x2="122.6585" y2="189.2996">
	<stop  offset="0" style="stop-color:#FFFFFF"/>
	<stop  offset="0.098" style="stop-color:#FAEEED"/>
	<stop  offset="0.2908" style="stop-color:#F1CACD"/>
	<stop  offset="0.5596" style="stop-color:#E5939F"/>
	<stop  offset="0.8909" style="stop-color:#D7466E"/>
	<stop  offset="1" style="stop-color:#D31B60"/>
</linearGradient>
<path fill="url(#SVGID_35_)" d="M121.625,179.11c-4.414-2.573-14.604,5.047-19.697,5.455c-1.71,0.137-5.291-1.539-6.818-0.758
	c-1.782,0.912-4.193,4.984-3.939,6.97c0.408,3.189,5.725,9.181,8.939,9.242c3.777,0.072,7.9-8.17,10.909-10.455
	c2.665-2.023,10.226-3.731,11.515-6.818C122.895,181.881,122.434,179.582,121.625,179.11z"/>
<linearGradient id="SVGID_36_" gradientUnits="userSpaceOnUse" x1="-1014.7755" y1="3117.5247" x2="-992.2354" y2="3117.5247" gradientTransform="matrix(0.7136 -0.7005 0.7005 0.7136 -1320.6576 -2765.7104)">
	<stop  offset="0" style="stop-color:#FFFFFF"/>
	<stop  offset="0.098" style="stop-color:#FAEEED"/>
	<stop  offset="0.2908" style="stop-color:#F1CACD"/>
	<stop  offset="0.5596" style="stop-color:#E5939F"/>
	<stop  offset="0.8909" style="stop-color:#D7466E"/>
	<stop  offset="1" style="stop-color:#D31B60"/>
</linearGradient>
<path fill="url(#SVGID_36_)" d="M143.946,145.799c-3.968,1.642-7.363,11.312-7.526,15.487c-0.085,2.165,2.211,5.942,3.285,7.732
	c0.999,1.665,3.1,5.196,4.872,6.015c2.112,0.976,7.582,1.424,9.594-0.05c0.93-0.681,1.27-3.191,1.465-4.296
	c0.562-3.182,0.913-9.705,0.218-12.758c-0.395-1.732-2.175-4.82-3.193-6.234c-0.796-1.105-2.678-3.121-3.81-3.881
	C147.759,147.081,145.242,145.262,143.946,145.799z"/>
<linearGradient id="SVGID_37_" gradientUnits="userSpaceOnUse" x1="188.716" y1="192.6488" x2="205.4566" y2="192.6488">
	<stop  offset="0" style="stop-color:#FFFFFF"/>
	<stop  offset="0.098" style="stop-color:#FAEEED"/>
	<stop  offset="0.2908" style="stop-color:#F1CACD"/>
	<stop  offset="0.5596" style="stop-color:#E5939F"/>
	<stop  offset="0.8909" style="stop-color:#D7466E"/>
	<stop  offset="1" style="stop-color:#D31B60"/>
</linearGradient>
<path fill="url(#SVGID_37_)" d="M191.77,187.756c1.495-1.39,5.576-3.512,7.568-3.064c2.195,0.493,5.814,4.389,6.096,6.622
	c0.307,2.426-2.526,7.363-4.625,8.619c-1.714,1.025-6.222,0.932-7.988,0c-1.605-0.847-3.97-4.181-4.099-5.991
	C188.599,192.222,190.507,188.93,191.77,187.756z"/>
<linearGradient id="SVGID_38_" gradientUnits="userSpaceOnUse" x1="183.9107" y1="210.567" x2="195.2128" y2="210.567">
	<stop  offset="0" style="stop-color:#FFFFFF"/>
	<stop  offset="0.098" style="stop-color:#FAEEED"/>
	<stop  offset="0.2908" style="stop-color:#F1CACD"/>
	<stop  offset="0.5596" style="stop-color:#E5939F"/>
	<stop  offset="0.8909" style="stop-color:#D7466E"/>
	<stop  offset="1" style="stop-color:#D31B60"/>
</linearGradient>
<path fill="url(#SVGID_38_)" d="M194.605,203.986c-3.088-1.86-10.735,6.069-10.694,9.673c0.017,1.439,2.922,3.87,4.357,3.763
	c1.593-0.12,3.423-3.434,4.159-4.852C193.446,210.605,196.502,205.129,194.605,203.986z"/>
<linearGradient id="SVGID_39_" gradientUnits="userSpaceOnUse" x1="158.1796" y1="216.97" x2="170.1856" y2="216.97">
	<stop  offset="0" style="stop-color:#FFFFFF"/>
	<stop  offset="0.098" style="stop-color:#FAEEED"/>
	<stop  offset="0.2908" style="stop-color:#F1CACD"/>
	<stop  offset="0.5596" style="stop-color:#E5939F"/>
	<stop  offset="0.8909" style="stop-color:#D7466E"/>
	<stop  offset="1" style="stop-color:#D31B60"/>
</linearGradient>
<path fill="url(#SVGID_39_)" d="M166.377,210.567c-2.574-0.048-7.452,3.85-8.117,6.337c-0.442,1.652,1.011,5.638,2.572,6.337
	c1.343,0.602,4.443-1.004,5.545-1.98c1.574-1.395,4.188-5.465,3.763-7.525C169.891,212.532,167.606,210.59,166.377,210.567z"/>
<linearGradient id="SVGID_40_" gradientUnits="userSpaceOnUse" x1="142.2278" y1="216.1557" x2="158.0183" y2="216.1557">
	<stop  offset="0" style="stop-color:#FFFFFF"/>
	<stop  offset="0.098" style="stop-color:#FAEEED"/>
	<stop  offset="0.2908" style="stop-color:#F1CACD"/>
	<stop  offset="0.5596" style="stop-color:#E5939F"/>
	<stop  offset="0.8909" style="stop-color:#D7466E"/>
	<stop  offset="1" style="stop-color:#D31B60"/>
</linearGradient>
<path fill="url(#SVGID_40_)" d="M149.345,204.428c-0.455-0.382-5.38-1.155-6.535,0c-1.085,1.085-0.394,4.656,0,6.139
	c0.235,0.882,1.69,2.264,1.813,3.169c0.248,1.822-1.802,5.29-1.813,7.129c-0.012,1.935,0.046,6.736,1.813,7.525
	c1.43,0.639,4.371-1.9,5.514-2.971c2.517-2.356,6.374-8.371,7.327-11.684c0.383-1.332,1.025-4.612,0-5.545
	c-1.361-1.238-5.863,1.807-7.327,0.693C149.237,208.199,150.213,205.155,149.345,204.428z"/>
<path fill="#DF1B53" d="M244.679,0.034c-0.824,1.267-7.914,13.89-2.676,21.871c4.124,6.285,9.061,9.28,13.9,15.733V0.034
	L244.679,0.034z"/>
<linearGradient id="SVGID_41_" gradientUnits="userSpaceOnUse" x1="216.6142" y1="-0.0621" x2="216.6142" y2="-0.0621">
	<stop  offset="0" style="stop-color:#FFFFFF"/>
	<stop  offset="0.098" style="stop-color:#FAEEED"/>
	<stop  offset="0.2908" style="stop-color:#F1CACD"/>
	<stop  offset="0.5596" style="stop-color:#E5939F"/>
	<stop  offset="0.8909" style="stop-color:#D7466E"/>
	<stop  offset="1" style="stop-color:#D31B60"/>
</linearGradient>
<path fill="url(#SVGID_41_)" d="M216.614-0.062"/>
<path fill="#C61E5A" d="M221.939,74.149c-4.635,2.025-12.174,15.222-13.314,22.979c-0.965,6.564,2.245,20.419,4.595,25.925
	c1.848,4.33,7.345,10.688,10.369,12.373c6.958,3.878,28.64,0.992,32.314-2.791l0-40.848c-0.104-0.9-1.139-4.839-1.428-5.5
	c-3.617-8.288-9.505-1.627-14.391-6.221C236.228,76.441,226.221,72.279,221.939,74.149z"/>
<linearGradient id="SVGID_42_" gradientUnits="userSpaceOnUse" x1="225.8796" y1="84.8337" x2="236.7115" y2="84.8337">
	<stop  offset="0" style="stop-color:#FFFFFF"/>
	<stop  offset="0.098" style="stop-color:#FAEEED"/>
	<stop  offset="0.2908" style="stop-color:#F1CACD"/>
	<stop  offset="0.5596" style="stop-color:#E5939F"/>
	<stop  offset="0.8909" style="stop-color:#D7466E"/>
	<stop  offset="1" style="stop-color:#D31B60"/>
</linearGradient>
<path fill="url(#SVGID_42_)" d="M225.88,83.411c0.03-1.346,3.448-2.546,4.792-2.461c1.685,0.107,4.782,2.327,5.569,3.82
	c0.445,0.845,0.788,3.281,0,3.82c-0.888,0.608-3.043-1.092-4.015-1.554C230.576,86.252,225.839,85.238,225.88,83.411z"/>
<path fill="#DF1B53" d="M215.577,133.99c4.502-5.064,32.774,4.691,40.374-1.17l-0.049,65.001
	c-3.541,2.788-32.411-17.07-37.424-25.255C213.92,165.12,209.776,140.515,215.577,133.99z"/>
<linearGradient id="SVGID_43_" gradientUnits="userSpaceOnUse" x1="218.4791" y1="142.3736" x2="244.1121" y2="142.3736">
	<stop  offset="0" style="stop-color:#FFFFFF"/>
	<stop  offset="0.098" style="stop-color:#FAEEED"/>
	<stop  offset="0.2908" style="stop-color:#F1CACD"/>
	<stop  offset="0.5596" style="stop-color:#E5939F"/>
	<stop  offset="0.8909" style="stop-color:#D7466E"/>
	<stop  offset="1" style="stop-color:#D31B60"/>
</linearGradient>
<path fill="url(#SVGID_43_)" d="M219.736,135.703c1.971-1.525,9.498-0.215,12.278,0.638c3.949,1.212,11.314,5.381,12.08,8.157
	c0.152,0.552-0.755,1.671-1.386,2.056c-1.342,0.819-5.151,1.339-6.931,1.66c-2.525,0.455-8.076,2.173-10.298,1.277
	C220.787,147.597,216.193,138.446,219.736,135.703z"/>
<path fill="#E92B6B" d="M-0.097,36.622c8.338-1.274,17.69,0.038,22.381,2.34C33.162,44.3,57.52,73.243,52.258,84.158
	C47.213,94.624,10.93,97.924-0.098,92.347L-0.097,36.622z"/>
<linearGradient id="SVGID_44_" gradientUnits="userSpaceOnUse" x1="17.7954" y1="73.2548" x2="43.8639" y2="73.2548">
	<stop  offset="0" style="stop-color:#FFFFFF"/>
	<stop  offset="0.098" style="stop-color:#FAEEED"/>
	<stop  offset="0.2908" style="stop-color:#F1CACD"/>
	<stop  offset="0.5596" style="stop-color:#E5939F"/>
	<stop  offset="0.8909" style="stop-color:#D7466E"/>
	<stop  offset="1" style="stop-color:#D31B60"/>
</linearGradient>
<path fill="url(#SVGID_44_)" d="M43.86,75.249c0.219-4.739-9.219-12.401-13.939-12.879c-3.348-0.339-9.863,4.038-11.515,6.97
	c-0.874,1.551-0.751,5.507,0,7.121c1.253,2.693,6.165,7.14,9.091,7.651c2.426,0.424,7.085-2.221,9.242-3.409
	C38.703,79.621,43.757,77.489,43.86,75.249z"/>
<path fill="#DF1B53" d="M38.987,56.199c5.508-1.533,13.799-10.904,18.444-14.464c1.774-1.36,6.938-2.798,7.146-5.352
	c0.768-9.459-14.8-25.962-22.377-30.452c-3.747-2.22-9.712-4.429-16.128-5.897l-26.168,0l0,36.588
	c0.465,1.284,0.938,2.429,1.404,3.39c2.266,4.677,10.329,11.292,14.539,13.319C21.356,55.984,33.493,57.728,38.987,56.199z"/>
<linearGradient id="SVGID_45_" gradientUnits="userSpaceOnUse" x1="-102.2748" y1="941.296" x2="-88.468" y2="941.296" gradientTransform="matrix(0.9664 -0.2571 0.3093 1.1623 -172.6061 -1084.7947)">
	<stop  offset="0" style="stop-color:#FFFFFF"/>
	<stop  offset="0.098" style="stop-color:#FAEEED"/>
	<stop  offset="0.2908" style="stop-color:#F1CACD"/>
	<stop  offset="0.5596" style="stop-color:#E5939F"/>
	<stop  offset="0.8909" style="stop-color:#D7466E"/>
	<stop  offset="1" style="stop-color:#D31B60"/>
</linearGradient>
<path fill="url(#SVGID_45_)" d="M26.494,24.58c-2.877,0.697-6.912,7.35-6.767,10.871c0.097,2.338,3.129,7.237,5.112,7.71
	c1.707,0.407,4.581-2.656,5.458-4.287c1.253-2.33,2.711-8.544,1.505-11.171C31.098,26.166,27.868,24.247,26.494,24.58z"/>
<linearGradient id="SVGID_46_" gradientUnits="userSpaceOnUse" x1="-112.7234" y1="925.5849" x2="-94.5644" y2="925.5849" gradientTransform="matrix(0.9664 -0.2571 0.3093 1.1623 -172.6061 -1084.7947)">
	<stop  offset="0" style="stop-color:#FFFFFF"/>
	<stop  offset="0.098" style="stop-color:#FAEEED"/>
	<stop  offset="0.2908" style="stop-color:#F1CACD"/>
	<stop  offset="0.5596" style="stop-color:#E5939F"/>
	<stop  offset="0.8909" style="stop-color:#D7466E"/>
	<stop  offset="1" style="stop-color:#D31B60"/>
</linearGradient>
<path fill="url(#SVGID_46_)" d="M8.444,2.208C7.803,1.832,2.055,2.254,1.182,4.14c-0.82,1.771,1.218,6.34,2.183,8.206
	c0.574,1.11,2.684,2.527,3.142,3.699c0.924,2.362-0.121,7.604,0.52,10.065c0.675,2.59,2.447,8.99,4.692,9.522
	c1.816,0.431,4.182-3.833,5.071-5.601c1.959-3.894,4.107-13.073,3.988-17.784c-0.048-1.894-0.501-6.468-1.972-7.412
	c-1.953-1.253-5.873,4.149-7.897,3.093C9.665,7.28,9.667,2.923,8.444,2.208z"/>
<linearGradient id="SVGID_47_" gradientUnits="userSpaceOnUse" x1="20.1866" y1="119.2471" x2="41.4727" y2="119.2471">
	<stop  offset="0" style="stop-color:#FFFFFF"/>
	<stop  offset="0.098" style="stop-color:#FAEEED"/>
	<stop  offset="0.2908" style="stop-color:#F1CACD"/>
	<stop  offset="0.5596" style="stop-color:#E5939F"/>
	<stop  offset="0.8909" style="stop-color:#D7466E"/>
	<stop  offset="1" style="stop-color:#D31B60"/>
</linearGradient>
<path fill="url(#SVGID_47_)" d="M41.36,111.56c-1.398-2.912-9.937-2.395-12.879-1.061c-3.132,1.421-7.479,7.694-8.182,11.061
	c-0.381,1.826,0.208,6.11,1.667,7.273c0.563,0.448,2.171,0.131,2.879,0c2.075-0.385,6.289-1.642,7.879-3.03
	c1.66-1.45,3.095-5.846,4.242-7.727C37.989,116.398,42.211,113.331,41.36,111.56z"/>
<path fill="#D51C58" d="M49.853,256.034c3.71-7.256,5.924-17.419,5.447-22.88c-0.891-10.196-12.776-29.307-21.313-34.953
	c-6.427-4.251-24.025-8.647-30.498-4.466c-1.348,0.871-2.541,2.279-3.586,4.048l0.001,45.92l-0.001,12.331"/>
<linearGradient id="SVGID_48_" gradientUnits="userSpaceOnUse" x1="-8215.3076" y1="1360.6212" x2="-8193.416" y2="1360.6212" gradientTransform="matrix(-0.9638 -0.2668 0.2668 -0.9638 -8249.3057 -662.6514)">
	<stop  offset="0" style="stop-color:#FFFFFF"/>
	<stop  offset="0.098" style="stop-color:#FAEEED"/>
	<stop  offset="0.2908" style="stop-color:#F1CACD"/>
	<stop  offset="0.5596" style="stop-color:#E5939F"/>
	<stop  offset="0.8909" style="stop-color:#D7466E"/>
	<stop  offset="1" style="stop-color:#D31B60"/>
</linearGradient>
<path fill="url(#SVGID_48_)" d="M24.916,225.446c1.916-1.011,4.036-4.889,5.047-6.716c0.94-1.699,2.945-5.285,2.766-7.229
	c-0.213-2.317-2.565-7.275-4.848-8.279c-1.055-0.464-3.398,0.499-4.452,0.884c-3.035,1.107-9.364,3.631-11.152,6.202
	c-3.686,5.3-4.762,9.461-3.929,12.879C9.464,227.767,21.447,227.275,24.916,225.446z"/>
<path fill="#D21C5C" d="M24.956-0.209c1.141,5.567,2.92,10.931,5.247,13.807c5.059,6.254,21.367,15.669,29.148,13.63
	c8.297-2.174,17.785-15.909,22.879-27.193L24.956-0.209z"/>
<path fill="#DF1B53" d="M181.564,0.034c0.224,5.696-6.645,21.772-11.341,25.003c-4.054,2.79-15.142-0.525-19.478-2.852
	c-4.419-2.372-15.271-17.346-16.711-22.151H181.564z"/>
<path fill="#D21C5C" d="M25.046,256.034c-1.183-2.009-2.011-3.978-2.063-5.549c-0.2-6.088,6.471-18.243,11.696-21.375
	c9.827-5.889,31.678-7.216,40.85-0.352c6.631,4.962,8.109,19.481,6.55,27.276"/>
<linearGradient id="SVGID_49_" gradientUnits="userSpaceOnUse" x1="58.075" y1="6.3175" x2="71.1325" y2="6.3175">
	<stop  offset="0" style="stop-color:#FFFFFF"/>
	<stop  offset="0.098" style="stop-color:#FAEEED"/>
	<stop  offset="0.2908" style="stop-color:#F1CACD"/>
	<stop  offset="0.5596" style="stop-color:#E5939F"/>
	<stop  offset="0.8909" style="stop-color:#D7466E"/>
	<stop  offset="1" style="stop-color:#D31B60"/>
</linearGradient>
<path fill="url(#SVGID_49_)" d="M69.761,5.032c-2.299-1.016-7.731-2.144-10-1.061c-0.692,0.33-1.85,1.831-1.667,2.576
	c0.239,0.972,2.517,1.715,3.485,1.97c1.978,0.52,6.402,1.008,8.182,0c0.577-0.326,1.464-1.618,1.364-2.273
	C71.056,5.794,70.178,5.217,69.761,5.032z"/>
<path fill="#DF1B53" d="M134.004,256.034c-0.976-2.009-1.978-3.979-2.02-5.549c-0.165-6.088,8.57-10.199,12.883-13.33
	c8.112-5.889,18.963-4.298,26.535,2.566c5.474,4.962,6.417,6.241,10.109,16.313"/>
<linearGradient id="SVGID_50_" gradientUnits="userSpaceOnUse" x1="143.907" y1="244.7821" x2="163.0681" y2="244.7821">
	<stop  offset="0" style="stop-color:#FFFFFF"/>
	<stop  offset="0.098" style="stop-color:#FAEEED"/>
	<stop  offset="0.2908" style="stop-color:#F1CACD"/>
	<stop  offset="0.5596" style="stop-color:#E5939F"/>
	<stop  offset="0.8909" style="stop-color:#D7466E"/>
	<stop  offset="1" style="stop-color:#D31B60"/>
</linearGradient>
<path fill="url(#SVGID_50_)" d="M161.842,236.995c-0.861-0.683-3.299,0-4.398,0c-1.776,0-5.542-0.844-7.105,0
	c-2.58,1.394-6.213,6.887-6.428,9.811c-0.089,1.208,1.174,3.544,2.033,4.398c0.724,0.72,2.746,2.004,3.718,1.692
	c1.533-0.492,1.811-4.792,3.214-5.582c1.585-0.892,5.704,1.088,7.274,0.169c1.322-0.774,2.678-3.894,2.876-5.413
	C163.195,240.778,162.863,237.805,161.842,236.995z"/>
<path fill="#D51C58" d="M255.903,254.245v-56.424c-1.639,1.835-11.325,7.825-15.042,9.732c-3.146,1.613-8.046,6.248-9.686,9.38
	c-3.355,6.411,0.229,17.361,2.345,20.593c2.563,3.916,15.136,12.307,18.653,15.395c0.503,0.442,1.387,1.719,2.057,1.717"/>
<linearGradient id="SVGID_51_" gradientUnits="userSpaceOnUse" x1="199.285" y1="12.9716" x2="238.6807" y2="12.9716">
	<stop  offset="0" style="stop-color:#ED174E"/>
	<stop  offset="0.3828" style="stop-color:#CD0B4F"/>
	<stop  offset="0.7835" style="stop-color:#B3004E"/>
	<stop  offset="1" style="stop-color:#A9004D"/>
</linearGradient>
<path fill="url(#SVGID_51_)" d="M238.681-0.062c-2.791,5.894-6.645,21.772-11.341,25.003c-4.054,2.79-15.142-0.525-19.478-2.852
	c-4.419-2.372-11.021-13.356-7.654-22.055L238.681-0.062z"/>
<path fill="#DF1B53" d="M246.94,0.034c-2.791,5.894-6.645,21.535-11.341,24.766c-4.054,2.79-15.142-0.525-19.478-2.852
	c-4.419-2.372-13.265-15.744-7.758-21.935L246.94,0.034z"/>
<path fill="#EC1656" d="M224.173,59.032c6.51,2.809,22.038,2.302,31.675-3.379l0.055-32.418c-4.362-2.838-8.18-4.2-11.571-5.764
	c-7.808-3.6-29.526-7.924-34.381-0.828c-1.014,1.481,2.564,4.844,2.762,6.628c0.458,4.146-3.859,12.372-2.9,16.431
	C211.198,45.56,218.645,56.646,224.173,59.032z"/>
<path fill="#EC1656" d="M-0.237,56.414C4.988,52.094,11.38,45.977,10.6,39.243C9.739,31.81,6.425,26.674-0.097,23.006L-0.237,56.414
	z"/>
<linearGradient id="SVGID_52_" gradientUnits="userSpaceOnUse" x1="234.8448" y1="46.1616" x2="247.5316" y2="46.1616">
	<stop  offset="0" style="stop-color:#FFFFFF"/>
	<stop  offset="0.098" style="stop-color:#FAEEED"/>
	<stop  offset="0.2908" style="stop-color:#F1CACD"/>
	<stop  offset="0.5596" style="stop-color:#E5939F"/>
	<stop  offset="0.8909" style="stop-color:#D7466E"/>
	<stop  offset="1" style="stop-color:#D31B60"/>
</linearGradient>
<path fill="url(#SVGID_52_)" d="M247.128,49.73c0.947-1.108,0.055-4.665-0.909-5.758c-1.357-1.537-5.872-2.69-7.879-2.273
	c-1.106,0.23-3.346,1.757-3.485,2.879c-0.196,1.586,2.361,4.43,3.788,5.152C240.536,50.688,245.75,51.343,247.128,49.73z"/>
<linearGradient id="SVGID_53_" gradientUnits="userSpaceOnUse" x1="-68.0897" y1="688.5952" x2="-56.5411" y2="688.5952" gradientTransform="matrix(0.9146 -0.4044 0.4044 0.9146 -209.4584 -550.4653)">
	<stop  offset="0" style="stop-color:#FFFFFF"/>
	<stop  offset="0.098" style="stop-color:#FAEEED"/>
	<stop  offset="0.2908" style="stop-color:#F1CACD"/>
	<stop  offset="0.5596" style="stop-color:#E5939F"/>
	<stop  offset="0.8909" style="stop-color:#D7466E"/>
	<stop  offset="1" style="stop-color:#D31B60"/>
</linearGradient>
<path fill="url(#SVGID_53_)" d="M10.689,99.764c-1.635,1.352-4.338,5.619-3.694,7.641c0.405,1.271,3.352,2.749,4.674,2.572
	c1.295-0.174,3.194-2.456,3.753-3.637c0.746-1.575,1.715-5.626,0.578-6.948c-0.512-0.596-2.353-0.287-3.135-0.211
	C12.304,99.237,11.123,99.405,10.689,99.764z"/>
<linearGradient id="SVGID_54_" gradientUnits="userSpaceOnUse" x1="-641.3748" y1="1601.3347" x2="-629.3688" y2="1601.3347" gradientTransform="matrix(0.4013 -0.9159 0.9159 0.4013 -1100.5061 -979.5931)">
	<stop  offset="0" style="stop-color:#FFFFFF"/>
	<stop  offset="0.098" style="stop-color:#FAEEED"/>
	<stop  offset="0.2908" style="stop-color:#F1CACD"/>
	<stop  offset="0.5596" style="stop-color:#E5939F"/>
	<stop  offset="0.8909" style="stop-color:#D7466E"/>
	<stop  offset="1" style="stop-color:#D31B60"/>
</linearGradient>
<path fill="url(#SVGID_54_)" d="M106.252,240.43c-1.077,2.339,0.536,8.371,2.547,9.978c1.336,1.067,5.57,1.336,6.837,0.188
	c1.09-0.989,0.863-4.473,0.411-5.874c-0.646-2.002-3.325-6.029-5.383-6.466C109.462,238,106.767,239.313,106.252,240.43z"/>
<linearGradient id="SVGID_55_" gradientUnits="userSpaceOnUse" x1="45.6534" y1="235.7757" x2="71.9296" y2="235.7757">
	<stop  offset="0" style="stop-color:#FFFFFF"/>
	<stop  offset="0.098" style="stop-color:#FAEEED"/>
	<stop  offset="0.2908" style="stop-color:#F1CACD"/>
	<stop  offset="0.5596" style="stop-color:#E5939F"/>
	<stop  offset="0.8909" style="stop-color:#D7466E"/>
	<stop  offset="1" style="stop-color:#D31B60"/>
</linearGradient>
<path fill="url(#SVGID_55_)" d="M71.291,233.475c-2.055-3.893-9.914-6.84-13.53-6.704c-3.142,0.119-9.769,3.255-11.48,6.704
	c-0.725,1.462-0.942,5.739,0,6.972c4.421,5.783,20.588,5.783,25.009,0C72.233,239.215,72.048,234.909,71.291,233.475z"/>
<linearGradient id="SVGID_56_" gradientUnits="userSpaceOnUse" x1="17.6628" y1="145.7013" x2="31.827" y2="145.7013">
	<stop  offset="0" style="stop-color:#FFFFFF"/>
	<stop  offset="0.098" style="stop-color:#FAEEED"/>
	<stop  offset="0.2908" style="stop-color:#F1CACD"/>
	<stop  offset="0.5596" style="stop-color:#E5939F"/>
	<stop  offset="0.8909" style="stop-color:#D7466E"/>
	<stop  offset="1" style="stop-color:#D31B60"/>
</linearGradient>
<path fill="url(#SVGID_56_)" d="M20.836,136.159c3.174,0.076,8.98,4.538,10.303,7.424c1.093,2.385,0.949,8.603-0.909,10.455
	c-1.292,1.288-5.763,1.63-7.273,0.606c-1.507-1.023-1.58-5.23-2.121-6.97c-0.743-2.391-3.874-7.188-3.03-9.545
	C18.11,137.278,19.933,136.137,20.836,136.159z"/>
<linearGradient id="SVGID_57_" gradientUnits="userSpaceOnUse" x1="234.361" y1="226.8223" x2="250.9825" y2="226.8223">
	<stop  offset="0" style="stop-color:#FFFFFF"/>
	<stop  offset="0.098" style="stop-color:#FAEEED"/>
	<stop  offset="0.2908" style="stop-color:#F1CACD"/>
	<stop  offset="0.5596" style="stop-color:#E5939F"/>
	<stop  offset="0.8909" style="stop-color:#D7466E"/>
	<stop  offset="1" style="stop-color:#D31B60"/>
</linearGradient>
<path fill="url(#SVGID_57_)" d="M243.68,219.799c-2.939,0.828-8.981,4.872-9.309,7.908c-0.206,1.908,2.812,5.57,4.655,6.106
	c1.806,0.525,5.634-1.373,7.057-2.603c1.898-1.64,5.532-6.408,4.805-8.809c-0.328-1.082-2.931-1.747-4.004-2.102
	C246.114,220.045,244.461,219.579,243.68,219.799z"/>
<linearGradient id="SVGID_58_" gradientUnits="userSpaceOnUse" x1="103.8533" y1="621.6935" x2="123.2746" y2="621.6935" gradientTransform="matrix(0.5044 -0.8635 0.8635 0.5044 -383.4885 16.4946)">
	<stop  offset="0" style="stop-color:#FFFFFF"/>
	<stop  offset="0.098" style="stop-color:#FAEEED"/>
	<stop  offset="0.2908" style="stop-color:#F1CACD"/>
	<stop  offset="0.5596" style="stop-color:#E5939F"/>
	<stop  offset="0.8909" style="stop-color:#D7466E"/>
	<stop  offset="1" style="stop-color:#D31B60"/>
</linearGradient>
<path fill="url(#SVGID_58_)" d="M214.147,223.377c-2.666,0.202-7.033,4.378-8.315,6.724c-1.113,2.039-2.054,7.162-1.009,9.237
	c0.443,0.88,2.449,2.237,3.402,1.987c4.47-1.173,10.497-11.491,9.324-15.961C217.299,224.411,215.129,223.302,214.147,223.377z"/>
</svg>
