<?xml version="1.0" encoding="utf-8"?>
<!-- Generator: Adobe Illustrator 17.0.0, SVG Export Plug-In . SVG Version: 6.00 Build 0)  -->
<!DOCTYPE svg PUBLIC "-//W3C//DTD SVG 1.1//EN" "http://www.w3.org/Graphics/SVG/1.1/DTD/svg11.dtd">
<svg version="1.1" id="Layer_1" xmlns="http://www.w3.org/2000/svg" xmlns:xlink="http://www.w3.org/1999/xlink" x="0px" y="0px"
	 width="256px" height="256px" viewBox="0 0 256 256" enable-background="new 0 0 256 256" xml:space="preserve">
<polygon opacity="0.15" fill="#E9E6DE" points="189.936,66.179 79.877,66.179 79.877,78.159 178.727,78.158 179.245,251.244 
	189.936,251.244 "/>
<polygon opacity="0.15" fill="#E9E6DE" points="209.389,46.557 79.877,46.557 79.877,57.548 197.853,57.548 199.053,251.244 
	209.389,251.244 "/>
<polygon opacity="0.15" fill="#E9E6DE" points="230.84,25.804 79.877,25.804 79.877,37.191 219.784,37.191 219.357,251.244 
	230.84,251.244 "/>
<polygon opacity="0.15" fill="#E9E6DE" points="44.011,4.509 54.983,4.509 55.146,203.352 170.287,203.247 170.287,213.596 
	44.011,213.596 "/>
<polygon opacity="0.15" fill="#E9E6DE" points="23.63,4.509 34.089,4.509 34.743,222.625 170.287,222.21 170.287,232.746 
	23.63,232.746 "/>
<polygon opacity="0.15" fill="#E9E6DE" points="4.689,4.509 15.043,4.509 15.438,241.02 170.215,241.185 170.36,251.244 
	4.689,251.244 "/>
<polygon opacity="0.15" fill="#E9E6DE" points="62.098,4.509 74.041,4.509 74.195,185.241 170.287,185.241 170.287,195.97 
	62.098,195.97 "/>
<polygon opacity="0.15" fill="#E9E6DE" points="80.407,176.417 80.407,166.076 159.714,166.061 159.714,84.71 170.287,84.71 
	170.287,176.417 "/>
<polygon opacity="0.15" fill="#E9E6DE" points="80.407,155.879 80.407,145.539 139.764,145.524 139.764,84.71 150.337,84.71 
	150.337,155.879 "/>
<polygon opacity="0.15" fill="#E9E6DE" points="80.407,135.733 80.407,125.393 119.699,125.319 119.526,84.71 130.099,84.71 
	130.272,135.674 "/>
<polygon opacity="0.15" fill="#E9E6DE" points="80.407,115.392 80.407,105.051 99.26,104.75 99.2,84.71 109.773,84.71 
	109.833,115.105 "/>
<polygon opacity="0.15" fill="#E9E6DE" points="80.425,96.344 80.389,84.71 90.45,84.71 90.45,96.344 "/>
<polygon opacity="0.15" fill="#E9E6DE" points="251.281,4.509 79.877,4.509 79.877,15.896 240.225,15.896 239.798,251.244 
	251.281,251.244 "/>
</svg>
