<?xml version="1.0" encoding="utf-8"?>
<!-- Generator: Adobe Illustrator 17.0.0, SVG Export Plug-In . SVG Version: 6.00 Build 0)  -->
<!DOCTYPE svg PUBLIC "-//W3C//DTD SVG 1.1//EN" "http://www.w3.org/Graphics/SVG/1.1/DTD/svg11.dtd">
<svg version="1.1" id="Layer_1" xmlns="http://www.w3.org/2000/svg" xmlns:xlink="http://www.w3.org/1999/xlink" x="0px" y="0px"
	 width="256px" height="256px" viewBox="0 0 256 256" enable-background="new 0 0 256 256" xml:space="preserve">
<g opacity="0.1">
	<path fill="#FFFFFF" d="M63.51,22.372c11.8,0,21.366-9.818,21.366-21.93c0-0.21-0.019-0.206-0.025-0.413h-4.308
		c0.007,0.208,0.023,0.204,0.023,0.413c0,9.669-7.636,17.507-17.057,17.507S46.453,10.112,46.453,0.443
		c0-0.21,0.016-0.206,0.023-0.413L42.144-0.01c-0.006,0.208,0,0.243,0,0.453C42.144,12.555,51.71,22.372,63.51,22.372z"/>
	<path fill="#FFFFFF" d="M63.51,9.161c5.026,0,9.097-3.966,9.097-9.124l-5.084-0.017c0,2.277-1.794,3.925-4.013,3.925
		c-2.219,0-4.014-1.663-4.014-3.941L54.41-0.01C54.41,5.148,58.485,9.161,63.51,9.161z"/>
	<path fill="#FFFFFF" d="M246.48,67.252c0,5.175,4.22,9.37,9.531,9.37V71.39c-2.345,0-4.16-1.853-4.16-4.137
		c0-2.285,1.815-4.137,4.16-4.137v-5.233C250.701,57.882,246.48,62.078,246.48,67.252z"/>
	<path fill="#FFFFFF" d="M232.877,67.252c0,12.151,10.109,22,22.58,22c0.216,0,0.34,0.006,0.554,0l-0.017-4.464
		c-0.214,0.007-0.321,0.027-0.537,0.027c-9.956,0-18.026-7.863-18.026-17.563s8.071-17.563,18.026-17.563
		c0.216,0,0.34-0.01,0.554-0.003v-4.437c-0.214-0.006-0.338,0.003-0.554,0.003C242.986,45.252,232.877,55.102,232.877,67.252z"/>
	<path fill="#FFFFFF" d="M232.892,194.249c0,12.151,10.109,22,22.58,22c0.216,0,0.34,0.008,0.554,0.003v-4.437
		c-0.214,0.007-0.338-0.003-0.554-0.003c-9.956,0-18.026-7.863-18.026-17.563s8.071-17.563,18.026-17.563
		c0.216,0,0.34-0.007,0.554,0v-4.437c-0.214-0.006-0.338,0-0.554,0C243.002,172.248,232.892,182.098,232.892,194.249z"/>
	<path fill="#FFFFFF" d="M246.496,194.249c0,5.175,4.189,9.37,9.5,9.37v-5.233c-2.345,0-4.129-1.853-4.129-4.137
		c0-2.285,1.784-4.137,4.129-4.137v-5.233C250.685,184.879,246.496,189.074,246.496,194.249z"/>
	<path fill="#FFFFFF" d="M255.473,134.394c-3.065,0-6.075,0.226-9.02,0.648c0.324-2.527,0.509-5.098,0.509-7.714
		c0-0.271-0.017-0.537-0.02-0.806c2.785,0.376,5.625,0.585,8.515,0.585c0.215,0,0.34-0.021,0.554-0.023v-4.754
		c-0.214,0.002-0.339,0.023-0.554,0.023c-2.982,0-5.909-0.228-8.766-0.662c-0.252-2.71-0.691-5.364-1.29-7.958
		c3.246,0.663,6.608,1.017,10.056,1.017c0.215,0,0.325-0.008,0.539-0.011v-5.305c-0.214,0.003-0.324,0.01-0.539,0.01
		c-4.068,0-7.999-0.558-11.731-1.58c-1.282-3.75-2.922-7.329-4.884-10.699c4.941,2.61,10.6,4.094,16.615,4.094
		c0.215,0,0.325-0.015,0.539-0.019v-5.113c-0.214,0.004-0.324,0.02-0.539,0.02c-16.378,0-29.656-12.937-29.656-28.894
		c0-15.958,13.278-28.895,29.656-28.895c0.215,0,0.341,0.009,0.555,0.014l0-5.113c-0.214-0.004-0.34-0.014-0.555-0.014
		c-19.277,0-34.904,15.226-34.904,34.008c0,4.198,0.786,8.217,2.214,11.93c-3.171-2.352-6.583-4.388-10.191-6.075
		c-0.273-1.915-0.425-3.867-0.425-5.854c0-4.888,0.863-9.577,2.432-13.944c10.454-5.623,19.031-14.41,24.526-25.13
		c5.045-2.006,10.562-3.12,16.347-3.12c0.215,0,0.341,0.011,0.555,0.014l0.015-5.305c-0.214-0.003-0.355-0.015-0.57-0.015
		c-4.67,0-9.181,0.653-13.457,1.848c1.002-2.709,1.815-5.512,2.427-8.394c3.568-0.688,7.254-1.055,11.03-1.055
		c0.215,0,0.341,0.011,0.555,0.014l0.015-4.754c-0.214-0.002-0.355-0.015-0.57-0.015c-3.474,0-6.875,0.295-10.191,0.835
		c0.324-2.551,0.509-5.148,0.509-7.79c0-0.208-0.011-0.206-0.013-0.413l-4.617,0c0.002,0.207,0.013,0.205,0.013,0.414
		c0,30.333-23.958,54.923-53.512,54.923c-0.305,0-0.606-0.018-0.91-0.024c-0.528-2.624-1.24-5.178-2.098-7.665
		c0.996,0.066,1.996,0.111,3.008,0.111c25.477,0,46.129-21.197,46.129-47.345c0-0.208-0.01-0.207-0.013-0.414h-5.152
		c0.003,0.207,0.012,0.205,0.012,0.414c0,23.228-18.346,42.058-40.977,42.058c-1.772,0-3.515-0.128-5.229-0.353
		c-1.577-3.419-3.466-6.66-5.629-9.691c3.401,1.215,7.052,1.884,10.857,1.884c18.24,0,33.027-15.177,33.027-33.898
		c0-0.208-0.008-0.207-0.011-0.414h-4.965c0.004,0.207,0.011,0.205,0.011,0.414c0,15.906-12.564,28.802-28.062,28.802
		s-28.062-12.895-28.062-28.802c0-0.208-0.015-0.23-0.011-0.437h-4.944c-0.004,0.207-0.01,0.228-0.01,0.437
		c0,5.368,1.22,10.441,3.384,14.952c-3.188-1.837-6.559-3.385-10.082-4.609c-0.815-3.309-1.252-6.773-1.252-10.343
		c0-0.208,0.009-0.207,0.012-0.414h-5.152c-0.003,0.207-0.013,0.205-0.013,0.414c0,2.975,0.28,5.88,0.791,8.703
		c-2.504-0.598-5.063-1.053-7.679-1.32c-0.316-2.416-0.495-4.877-0.495-7.382c0-0.208,0.009-0.259,0.012-0.466l-4.616-0.017
		c-0.002,0.208-0.013,0.275-0.013,0.484c0,2.407,0.155,4.776,0.425,7.109c-0.461-0.011-0.919-0.035-1.383-0.035
		c-2.508,0-4.973,0.175-7.399,0.479c0.305-2.475,0.48-4.992,0.48-7.552c0-0.208-0.011-0.206-0.013-0.413l-4.617,0
		c0.002,0.207,0.013,0.205,0.013,0.414c0,2.832-0.209,5.614-0.612,8.331c-2.721,0.57-5.373,1.33-7.944,2.261
		c0.759-3.407,1.173-6.948,1.173-10.592c0-0.208-0.01-0.207-0.013-0.414h-5.152c0.003,0.207,0.012,0.205,0.012,0.414
		c0,4.602-0.73,9.027-2.062,13.171c-11.702,5.787-21.229,15.337-27.035,27.084C71.63,41.866,67.643,42.5,63.51,42.5
		c-2.478,0-4.899-0.238-7.255-0.671c-1.816-3.763-4.017-7.314-6.563-10.6c4.205,1.992,8.883,3.111,13.819,3.111
		c18.24,0,33.027-15.177,33.027-33.898c0-0.208-0.008-0.207-0.011-0.414h-4.965c0.004,0.207,0.011,0.205,0.011,0.414
		c0,15.906-12.564,28.802-28.061,28.802c-15.498,0-28.062-12.895-28.062-28.802c0-0.208,0.006-0.245,0.011-0.453l-4.965,0.039
		c-0.004,0.207-0.012,0.205-0.012,0.414c0,6.301,1.681,12.197,4.599,17.251c-3.43-2.267-7.11-4.198-10.987-5.76
		c-1.009-3.654-1.561-7.505-1.561-11.491c0-0.208,0.01-0.207,0.012-0.414h-5.152c-0.003,0.207-0.013,0.205-0.013,0.414
		c0,3.25,0.32,6.423,0.928,9.488c-2.526-0.738-5.119-1.323-7.771-1.741c-0.348-2.532-0.54-5.116-0.54-7.747
		c0-0.208,0.01-0.207,0.013-0.414l-4.617,0C5.392,0.237,5.381,0.234,5.381,0.443c0,2.436,0.159,4.832,0.435,7.19
		C4.108,7.494,2.385,7.406,0.64,7.406c-0.215,0-0.426,0.013-0.64,0.016v4.754c0.213-0.002,0.425-0.016,0.64-0.016
		c31.211,0,56.515,24.634,56.552,55.036c-2.671,0.335-5.29,0.84-7.839,1.521c0.015-0.485,0.038-0.968,0.038-1.456
		c0-26.233-21.826-47.499-48.751-47.499c-0.215,0-0.426,0.013-0.64,0.016v5.305c0.213-0.003,0.425-0.016,0.64-0.016
		c23.917,0,43.306,18.891,43.306,42.194c0,1.09-0.056,2.167-0.139,3.236c-3.193,1.203-6.25,2.68-9.155,4.394
		c0.578-2.454,0.893-5.005,0.893-7.63c0-18.782-15.627-34.008-34.904-34.008c-0.215,0-0.426,0.012-0.64,0.016v5.114
		c0.213-0.005,0.425-0.016,0.64-0.016c16.378,0,29.656,12.937,29.656,28.895c0,4.599-1.108,8.944-3.07,12.803
		c-4.158,3.399-7.844,7.355-10.959,11.752c-4.538,2.748-9.891,4.339-15.627,4.339c-0.215,0-0.426-0.011-0.64-0.016v5.113
		c0.213,0.004,0.425,0.015,0.64,0.015c3.839,0,7.529-0.613,10.984-1.728c-1.495,2.974-2.761,6.083-3.751,9.317
		c-2.354,0.386-4.767,0.597-7.233,0.597c-0.215,0-0.426-0.013-0.64-0.016v5.305c0.213,0.003,0.425,0.016,0.64,0.016
		c1.97,0,3.909-0.127,5.818-0.348c-0.514,2.524-0.853,5.111-1.04,7.74c-1.577,0.129-3.167,0.21-4.778,0.21
		c-0.215,0-0.426-0.014-0.64-0.016v4.754c0.214,0.002,0.425,0.016,0.64,0.016c1.555,0,3.091-0.075,4.616-0.186
		c0.019,2.606,0.21,5.17,0.551,7.687c-1.705-0.139-3.425-0.227-5.167-0.227c-0.215,0-0.426,0.014-0.64,0.016v4.754
		c0.213-0.002,0.425-0.016,0.64-0.016c31.234,0,56.553,24.669,56.553,55.101c0,30.431-25.32,55.101-56.553,55.101
		c-0.215,0-0.426-0.014-0.64-0.016v4.754c0.214,0.002,0.425,0.016,0.64,0.016c1.603,0,3.186-0.079,4.757-0.196
		c-0.011,0.491-0.036,0.978-0.036,1.472c0,0.208,0.013,0.413,0.016,0.621h4.617c-0.002-0.207-0.015-0.413-0.015-0.621
		c0-0.661,0.026-1.316,0.049-1.971c2.55-0.381,5.042-0.931,7.479-1.608c-0.086,1.183-0.145,2.373-0.145,3.579
		c0,0.208,0.013,0.414,0.016,0.621h5.152c-0.003-0.207-0.015-0.413-0.015-0.621c0-1.806,0.124-3.581,0.339-5.326
		c3.115-1.178,6.106-2.592,8.95-4.227c-0.866,3.031-1.339,6.235-1.339,9.553c0,0.208,0.012,0.414,0.015,0.621h4.966
		c-0.005-0.207-0.016-0.413-0.016-0.621c0-5.35,1.426-10.356,3.902-14.649c3.855-3.05,7.324-6.543,10.323-10.405
		c4.084-2.381,8.803-3.748,13.836-3.748c15.498,0,28.061,12.895,28.061,28.802c0,0.208-0.011,0.414-0.015,0.621h4.966
		c0.004-0.207,0.015-0.413,0.015-0.621c0-18.721-14.787-33.898-33.027-33.898c-3.046,0-5.993,0.432-8.794,1.224
		c1.609-2.895,2.965-5.94,4.072-9.097c1.55-0.183,3.124-0.287,4.722-0.287c22.631,0,40.977,18.83,40.977,42.058
		c0,0.208-0.012,0.414-0.015,0.621h5.152c0.003-0.207,0.015-0.413,0.015-0.621c0-26.148-20.653-47.345-46.129-47.345
		c-1.044,0-2.076,0.048-3.102,0.118c0.61-2.495,1.072-5.045,1.35-7.651c0.583-0.019,1.165-0.045,1.752-0.045
		c29.554,0,53.512,24.59,53.512,54.923c0,0.208-0.013,0.414-0.016,0.621h4.617c0.002-0.208,0.015-0.413,0.015-0.621
		c0-0.49-0.024-0.974-0.036-1.46c1.906,0.186,3.837,0.287,5.791,0.287c0.724,0,1.44-0.029,2.158-0.055
		c-0.008,0.41-0.03,0.816-0.03,1.228c0,0.208,0.013,0.413,0.016,0.621h4.617c-0.002-0.207-0.015-0.413-0.015-0.621
		c0-0.528,0.024-1.049,0.039-1.573c2.531-0.29,5.014-0.739,7.439-1.339c-0.057,0.964-0.095,1.933-0.095,2.912
		c0,0.208,0.013,0.414,0.016,0.621h5.152c-0.003-0.207-0.015-0.413-0.015-0.621c0-1.519,0.083-3.018,0.236-4.495
		c3.027-1.061,5.948-2.348,8.729-3.865c-0.661,2.674-1.015,5.474-1.015,8.36c0,0.208,0.012,0.414,0.015,0.621h4.966
		c-0.004-0.207-0.016-0.413-0.016-0.621c0-4.575,1.044-8.898,2.893-12.739c5.007-3.701,9.41-8.174,13.048-13.244
		c3.669-1.806,7.779-2.819,12.12-2.819c15.498,0,28.061,12.895,28.061,28.802c0,0.208-0.011,0.414-0.015,0.621h4.966
		c0.004-0.207,0.015-0.413,0.015-0.621c0-18.721-14.787-33.898-33.027-33.898c-2.692,0-5.306,0.339-7.811,0.962
		c1.501-2.844,2.774-5.826,3.809-8.919c1.317-0.131,2.651-0.203,4.002-0.203c22.631,0,40.977,18.83,40.977,42.058
		c0,0.208-0.012,0.414-0.015,0.621h5.152c0.003-0.207,0.015-0.413,0.015-0.621c0-26.148-20.653-47.345-46.129-47.345
		c-0.829,0-1.651,0.025-2.469,0.069c0.577-2.485,1.017-5.023,1.276-7.616c0.398-0.009,0.793-0.031,1.194-0.031
		c29.554,0,53.512,24.59,53.512,54.923c0,0.208-0.013,0.414-0.016,0.621h4.617c0.002-0.208,0.015-0.413,0.015-0.621
		c0-0.682-0.028-1.356-0.05-2.032c3.18,0.495,6.439,0.76,9.762,0.76c0.215,0,0.309-0.017,0.523-0.019v-4.754
		c-0.214,0.002-0.308,0.02-0.523,0.02c-3.454,0-6.83-0.318-10.114-0.896c-0.31-2.747-0.788-5.441-1.448-8.062
		c3.708,0.879,7.577,1.356,11.562,1.356c0.215,0,0.325-0.02,0.539-0.023v-5.305c-0.214,0.003-0.324,0.023-0.539,0.023
		c-4.69,0-9.201-0.736-13.431-2.079c-1.528-4.165-3.497-8.105-5.847-11.767c5.524,3.574,12.15,5.66,19.278,5.66
		c0.215,0,0.341-0.012,0.554-0.016v-5.113c-0.214,0.004-0.339,0.016-0.554,0.016c-16.378,0-29.656-12.937-29.656-28.894
		c0-15.958,13.278-28.895,29.656-28.895c0.215,0,0.325-0.009,0.539-0.005v-5.113c-0.214-0.004-0.324,0.005-0.539,0.005
		c-19.277,0-34.904,15.226-34.904,34.008c0,5.198,1.201,10.12,3.341,14.526c-3.403-2.794-7.109-5.215-11.074-7.177
		c-0.431-2.388-0.668-4.841-0.668-7.349c0-4.777,0.827-9.363,2.328-13.644c11.091-5.688,20.164-14.775,25.871-25.906
		c4.704-1.707,9.792-2.644,15.107-2.644c0.215,0,0.325-0.006,0.539-0.003v-5.305c-0.214-0.003-0.324,0.002-0.539,0.002
		c-4.237,0-8.346,0.528-12.266,1.518c0.992-2.67,1.797-5.432,2.405-8.268c3.204-0.549,6.495-0.852,9.861-0.852
		c0.215,0,0.341-0.004,0.554-0.002v-4.754C255.813,134.39,255.688,134.394,255.473,134.394z M199.558,58.846
		c2.906-0.621,5.729-1.469,8.458-2.517c-0.848,3.509-1.311,7.162-1.311,10.923c0,1.192,0.061,2.37,0.149,3.54
		c-2.564-0.885-5.205-1.603-7.915-2.131c-0.012-0.469-0.037-0.936-0.037-1.408C198.904,64.394,199.128,61.587,199.558,58.846z
		 M187.646,60.105c2.332,0,4.626-0.157,6.886-0.431c-0.323,2.484-0.508,5.01-0.508,7.579c0,0.222,0.015,0.441,0.017,0.662
		c-2.014-0.219-4.056-0.337-6.125-0.348c0-0.094,0.007-0.186,0.007-0.28c0-2.434-0.161-4.828-0.442-7.186
		C187.537,60.1,187.591,60.105,187.646,60.105z M128.559,12.264c30.182,0,54.65,24.635,54.65,55.023c0,0.152-0.01,0.301-0.011,0.452
		c-2.569,0.19-5.098,0.525-7.566,1.034c0.015-0.495,0.037-0.988,0.037-1.486c0-26.196-21.092-47.431-47.11-47.431
		s-47.11,21.236-47.11,47.431s21.092,47.431,47.11,47.431c0.34,0,0.676-0.019,1.014-0.026c-0.531,2.484-0.903,5.026-1.117,7.615
		c-30.135-0.056-54.547-24.667-54.547-55.02C73.909,36.898,98.376,12.264,128.559,12.264z M128.559,33.327
		c-18.628,0-33.729,15.204-33.729,33.959s15.101,33.959,33.729,33.959c2.007,0,3.97-0.187,5.88-0.525
		c-1.366,2.762-2.534,5.64-3.468,8.625c-0.799,0.046-1.602,0.075-2.412,0.075c-23.112,0-41.848-18.864-41.848-42.134
		s18.736-42.134,41.848-42.134s41.848,18.864,41.848,42.134c0,0.961-0.044,1.912-0.106,2.857c-2.969,0.909-5.84,2.042-8.591,3.386
		c0.374-2.025,0.579-4.109,0.579-6.243C162.288,48.531,147.187,33.327,128.559,33.327z M157.217,67.286
		c0,3.423-0.595,6.704-1.682,9.75c-7.001,4.534-12.994,10.503-17.566,17.503c-2.948,1.032-6.113,1.6-9.41,1.6
		c-15.827,0-28.658-12.918-28.658-28.853s12.831-28.853,28.658-28.853S157.217,51.351,157.217,67.286z M128.697,134.696
		c-0.441-0.01-0.879-0.033-1.322-0.033c-1.341,0-2.667,0.061-3.985,0.149c0.36-2.601,0.56-5.254,0.577-7.951
		c1.412,0.109,2.835,0.18,4.273,0.187c0,0.094-0.007,0.186-0.007,0.28C128.232,129.824,128.401,132.28,128.697,134.696z
		 M111.673,124.588c2.466,0.736,4.995,1.322,7.583,1.732c0,0.055,0.004,0.109,0.004,0.164c0,3.01-0.249,5.96-0.711,8.839
		c-2.745,0.412-5.424,1.022-8.033,1.799c0.779-3.421,1.204-6.979,1.204-10.638C111.72,125.849,111.697,125.218,111.673,124.588z
		 M97.3,118.096c2.842,1.776,5.845,3.313,8.981,4.593c0.111,1.251,0.177,2.515,0.177,3.796c0,4.459-0.693,8.753-1.968,12.786
		c-4.548,1.915-8.81,4.379-12.7,7.317c4.114-5.629,6.549-12.579,6.549-20.104C98.34,123.589,97.977,120.779,97.3,118.096z
		 M63.51,47.788c3.169,0,6.263-0.329,9.252-0.954c-0.942,2.604-1.704,5.294-2.282,8.052c-2.283,0.305-4.606,0.479-6.97,0.479
		c-0.895,0-1.784-0.025-2.668-0.069c-0.554-2.661-1.302-5.253-2.205-7.773C60.239,47.696,61.864,47.788,63.51,47.788z
		 M69.678,59.767c-0.292,2.343-0.46,4.724-0.475,7.143c-1.517-0.117-3.045-0.196-4.593-0.196c-0.855,0-1.704,0.029-2.55,0.065
		c-0.019-2.275-0.174-4.516-0.446-6.724c0.631,0.021,1.261,0.049,1.897,0.049C65.594,60.105,67.651,59.987,69.678,59.767z
		 M10.648,135.193c-0.448-2.837-0.688-5.745-0.688-8.709c0-30.388,24.468-55.022,54.65-55.022c1.605,0,3.19,0.084,4.76,0.221
		c0.19,2.63,0.533,5.218,1.051,7.743c-1.906-0.236-3.842-0.372-5.811-0.372c-26.018,0-47.11,21.236-47.11,47.431
		c0,3.622,0.417,7.144,1.18,10.534C16.073,136.239,13.39,135.631,10.648,135.193z M24.691,139.155
		c-1.251-3.999-1.929-8.255-1.929-12.67c0-23.27,18.736-42.133,41.848-42.133c2.468,0,4.882,0.228,7.233,0.64
		c1.005,3.267,2.294,6.406,3.815,9.407c-3.462-1.208-7.177-1.873-11.048-1.873c-18.628,0-33.729,15.204-33.729,33.959
		c0,7.281,2.283,14.02,6.157,19.549C33.232,143.301,29.095,140.983,24.691,139.155z M35.952,126.484
		c0-15.935,12.831-28.853,28.658-28.853c5.943,0,11.464,1.822,16.041,4.941c2.614,3.591,5.619,6.872,8.948,9.791
		c2.333,4.175,3.669,8.99,3.669,14.122c0,15.935-12.831,28.854-28.658,28.854S35.952,142.42,35.952,126.484z M55.673,167.645
		c-2.144-4.203-4.774-8.128-7.829-11.699c4.94,2.856,10.661,4.498,16.766,4.498c6.621,0,12.791-1.928,18.001-5.247
		c-3.21,3.709-5.97,7.818-8.201,12.247c-3.145,0.76-6.424,1.174-9.8,1.174C61.541,168.618,58.553,168.276,55.673,167.645z
		 M68.047,195.913c-1.505-0.12-3.021-0.2-4.556-0.2c-0.489,0-0.971,0.026-1.457,0.038c0.013-0.502,0.039-1.001,0.039-1.506
		c0-2.74-0.206-5.431-0.572-8.073c1.03,0.054,2.066,0.082,3.11,0.082c1.341,0,2.667-0.061,3.985-0.149
		c-0.377,2.723-0.586,5.5-0.586,8.327C68.01,194.929,68.035,195.419,68.047,195.913z M69.469,181.279
		c-1.602,0.142-3.22,0.228-4.859,0.228c-1.341,0-2.667-0.066-3.984-0.161c-0.608-2.695-1.392-5.325-2.358-7.87
		c2.076,0.281,4.19,0.44,6.342,0.44c2.45,0,4.855-0.189,7.204-0.552C70.857,175.923,70.075,178.567,69.469,181.279z M98.717,194.432
		c0-15.935,12.831-28.853,28.658-28.853s28.658,12.918,28.658,28.853s-12.831,28.853-28.658,28.853S98.717,210.368,98.717,194.432z
		 M113.813,225.526c4.151,1.838,8.736,2.865,13.561,2.865c18.628,0,33.729-15.204,33.729-33.959s-15.101-33.959-33.729-33.959
		s-33.729,15.204-33.729,33.959c0,3.911,0.665,7.663,1.873,11.16c-3.009-2.043-6.209-3.812-9.575-5.26
		c-0.269-1.929-0.417-3.896-0.417-5.9c0-23.27,18.736-42.134,41.848-42.134s41.848,18.864,41.848,42.134
		s-18.736,42.134-41.848,42.134c-3.109,0-6.135-0.352-9.05-0.999C117.121,232.057,115.604,228.701,113.813,225.526z
		 M127.375,249.455c-2.055,0-4.08-0.124-6.076-0.347c-0.271-2.668-0.724-5.28-1.327-7.832c2.412,0.384,4.883,0.588,7.403,0.588
		c26.018,0,47.11-21.236,47.11-47.431s-21.092-47.431-47.11-47.431s-47.11,21.236-47.11,47.431c0,1.302,0.066,2.588,0.169,3.864
		c-2.486-0.776-5.042-1.384-7.657-1.815c-0.025-0.681-0.052-1.361-0.052-2.048c0-30.388,24.468-55.023,54.65-55.023
		s54.65,24.635,54.65,55.023S157.557,249.455,127.375,249.455z M187.597,161.287c18.628,0,33.729-15.204,33.729-33.959
		s-15.101-33.959-33.729-33.959s-33.729,15.204-33.729,33.959c0,5.676,1.39,11.022,3.835,15.725
		c-3.33-1.997-6.87-3.671-10.579-4.989c-0.895-3.428-1.375-7.025-1.375-10.736c0-23.27,18.736-42.134,41.848-42.134
		s41.848,18.864,41.848,42.134s-18.736,42.134-41.848,42.134c-2.218,0-4.394-0.177-6.518-0.512
		c-1.674-3.57-3.685-6.948-5.998-10.088C178.952,160.421,183.173,161.287,187.597,161.287z M158.939,127.328
		c0-15.935,12.831-28.853,28.658-28.853s28.658,12.918,28.658,28.853s-12.831,28.853-28.658,28.853S158.939,143.263,158.939,127.328
		z M194.088,196.088c-2.121-0.24-4.273-0.375-6.456-0.375c-0.31,0-0.615,0.019-0.925,0.024c0.009-0.436,0.033-0.867,0.033-1.305
		c0-2.497-0.17-4.952-0.465-7.368c0.441,0.01,0.879,0.033,1.322,0.033c2.353,0,4.669-0.153,6.95-0.421
		c-0.322,2.482-0.507,5.006-0.507,7.573C194.04,194.866,194.069,195.476,194.088,196.088z M206.974,199.11
		c-2.584-0.936-5.25-1.694-7.987-2.25c-0.041-0.866-0.068-1.735-0.068-2.611c0-2.845,0.222-5.639,0.648-8.367
		c2.892-0.596,5.707-1.404,8.429-2.407c-0.825,3.463-1.275,7.066-1.275,10.774C206.722,195.89,206.808,197.512,206.974,199.11z
		 M187.597,182.35c-0.699,0-1.391-0.027-2.083-0.053c-0.543-2.649-1.27-5.23-2.148-7.738c1.395,0.125,2.804,0.2,4.231,0.2
		c26.018,0,47.11-21.236,47.11-47.431s-21.092-47.431-47.11-47.431s-47.11,21.236-47.11,47.431c0,3.084,0.302,6.096,0.861,9.016
		c-2.562-0.623-5.184-1.092-7.863-1.367c-0.346-2.501-0.537-5.052-0.537-7.648c0-30.388,24.468-55.023,54.65-55.023
		s54.65,24.635,54.65,55.023S217.779,182.35,187.597,182.35z"/>
	<path fill="#FFFFFF" d="M9.616,67.261c0-5.175-4.306-9.37-9.616-9.37v5.233c2.345,0,4.246,1.852,4.246,4.137
		c0,2.285-1.901,4.137-4.246,4.137v5.233C5.311,76.631,9.616,72.436,9.616,67.261z"/>
	<path fill="#FFFFFF" d="M23.22,67.261C23.22,55.11,13.111,45.26,0.64,45.26c-0.216,0-0.426,0.026-0.64,0.031v4.437
		c0.214-0.007,0.424-0.031,0.64-0.031c9.956,0,18.027,7.864,18.027,17.563S10.595,84.824,0.64,84.824
		c-0.216,0-0.426-0.024-0.64-0.031v4.437c0.214,0.006,0.424,0.031,0.64,0.031C13.111,89.261,23.22,79.412,23.22,67.261z"/>
	<path fill="#FFFFFF" d="M86.431,126.484c0-12.133-9.769-21.969-21.821-21.969s-21.821,9.836-21.821,21.969
		s9.769,21.969,21.821,21.969S86.431,138.618,86.431,126.484z M47.19,126.484c0-9.686,7.799-17.538,17.42-17.538
		s17.42,7.852,17.42,17.538c0,9.686-7.799,17.539-17.42,17.539S47.19,136.171,47.19,126.484z"/>
	<path fill="#FFFFFF" d="M73.904,125.861c0-5.167-4.161-9.357-9.293-9.357s-9.293,4.189-9.293,9.357
		c0,5.168,4.161,9.357,9.293,9.357S73.904,131.029,73.904,125.861z M60.507,125.861c0-2.282,1.837-4.131,4.104-4.131
		s4.104,1.85,4.104,4.131c0,2.282-1.837,4.132-4.104,4.132S60.507,128.143,60.507,125.861z"/>
	<path fill="#FFFFFF" d="M187.646,22.372c11.801,0,21.366-9.818,21.366-21.93c0-0.21-0.019-0.206-0.025-0.413h-4.308
		c0.007,0.208,0.023,0.204,0.023,0.413c0,9.669-7.637,17.507-17.057,17.507c-9.42,0-17.057-7.838-17.057-17.507
		c0-0.21,0.016-0.206,0.023-0.413l-4.311-0.024c-0.006,0.208-0.021,0.227-0.021,0.437C166.28,12.554,175.845,22.372,187.646,22.372z
		"/>
	<path fill="#FFFFFF" d="M187.646,9.161c5.026,0,9.1-3.997,9.1-9.155l-5.088,0.031c0,2.277-1.793,3.909-4.012,3.909
		s-4.012-1.631-4.012-3.909l-5.088-0.015C178.546,5.179,182.62,9.161,187.646,9.161z"/>
	<path fill="#FFFFFF" d="M128.559,45.317c-12.051,0-21.821,9.836-21.821,21.969s9.77,21.969,21.821,21.969
		c12.051,0,21.821-9.836,21.821-21.969S140.61,45.317,128.559,45.317z M128.559,84.825c-9.621,0-17.42-7.852-17.42-17.538
		s7.799-17.539,17.42-17.539s17.42,7.852,17.42,17.539S138.179,84.825,128.559,84.825z"/>
	<path fill="#FFFFFF" d="M128.559,57.307c-5.133,0-9.293,4.189-9.293,9.357c0,5.167,4.161,9.357,9.293,9.357
		s9.293-4.189,9.293-9.357C137.852,61.496,133.691,57.307,128.559,57.307z M128.559,70.795c-2.266,0-4.104-1.85-4.104-4.131
		s1.837-4.132,4.104-4.132s4.104,1.85,4.104,4.132S130.825,70.795,128.559,70.795z"/>
	<path fill="#FFFFFF" d="M209.417,127.328c0-12.133-9.769-21.969-21.821-21.969c-12.051,0-21.821,9.836-21.821,21.969
		s9.77,21.969,21.821,21.969C199.648,149.297,209.417,139.461,209.417,127.328z M170.177,127.328c0-9.686,7.799-17.539,17.42-17.539
		s17.42,7.852,17.42,17.539s-7.799,17.538-17.42,17.538S170.177,137.014,170.177,127.328z"/>
	<path fill="#FFFFFF" d="M196.89,126.705c0-5.168-4.161-9.357-9.293-9.357s-9.293,4.189-9.293,9.357
		c0,5.167,4.161,9.357,9.293,9.357S196.89,131.872,196.89,126.705z M183.493,126.705c0-2.282,1.837-4.132,4.104-4.132
		s4.104,1.85,4.104,4.132c0,2.282-1.837,4.131-4.104,4.131S183.493,128.987,183.493,126.705z"/>
	<path fill="#FFFFFF" d="M187.631,233.446c-11.8,0-21.366,9.818-21.366,21.93c0,0.21,0.025,0.413,0.031,0.621h4.309
		c-0.007-0.208-0.031-0.411-0.031-0.621c0-9.669,7.637-17.507,17.057-17.507c9.42,0,17.057,7.838,17.057,17.507
		c0,0.21-0.023,0.413-0.031,0.621h4.309c0.006-0.208,0.031-0.411,0.031-0.621C208.998,243.264,199.432,233.446,187.631,233.446z"/>
	<path fill="#FFFFFF" d="M187.631,246.657c-5.026,0-9.1,4.181-9.1,9.339h5.082c0-2.277,1.799-4.124,4.018-4.124
		s4.018,1.846,4.018,4.124h5.082C196.731,250.839,192.657,246.657,187.631,246.657z"/>
	<path fill="#FFFFFF" d="M149.195,194.432c0-12.133-9.769-21.969-21.821-21.969c-12.051,0-21.821,9.836-21.821,21.969
		s9.77,21.969,21.821,21.969C139.426,216.402,149.195,206.566,149.195,194.432z M109.955,194.432c0-9.686,7.799-17.539,17.42-17.539
		s17.42,7.852,17.42,17.539s-7.799,17.538-17.42,17.538S109.955,204.119,109.955,194.432z"/>
	<path fill="#FFFFFF" d="M136.668,193.809c0-5.168-4.161-9.357-9.293-9.357s-9.293,4.189-9.293,9.357
		c0,5.167,4.161,9.357,9.293,9.357S136.668,198.977,136.668,193.809z M123.271,193.809c0-2.282,1.837-4.132,4.104-4.132
		s4.104,1.85,4.104,4.132s-1.837,4.131-4.104,4.131S123.271,196.091,123.271,193.809z"/>
	<path fill="#FFFFFF" d="M63.49,246.657c-5.026,0-9.1,4.182-9.1,9.339h5.082c0-2.277,1.799-4.124,4.018-4.124
		c2.219,0,4.018,1.846,4.018,4.124h5.082C72.59,250.839,68.516,246.657,63.49,246.657z"/>
	<path fill="#FFFFFF" d="M63.49,233.446c-11.8,0-21.366,9.818-21.366,21.93c0,0.21,0.025,0.413,0.031,0.621h4.309
		c-0.007-0.208-0.031-0.411-0.031-0.621c0-9.669,7.637-17.507,17.057-17.507s17.057,7.838,17.057,17.507
		c0,0.21-0.023,0.413-0.031,0.621h4.31c0.006-0.208,0.031-0.411,0.031-0.621C84.856,243.264,75.291,233.446,63.49,233.446z"/>
	<path fill="#FFFFFF" d="M23.22,194.245c0-12.151-10.109-22.001-22.581-22.001c-0.216,0-0.426,0.026-0.64,0.031v4.437
		c0.214-0.008,0.424-0.031,0.64-0.031c9.956,0,18.027,7.864,18.027,17.563c0,9.7-8.071,17.563-18.027,17.563
		c-0.216,0-0.426-0.024-0.64-0.031v4.437c0.214,0.006,0.424,0.031,0.64,0.031C13.111,216.245,23.22,206.395,23.22,194.245z"/>
	<path fill="#FFFFFF" d="M49.39,194.245c0-26.233-21.826-47.499-48.751-47.499c-0.215,0-0.426,0.013-0.64,0.016v5.305
		c0.213-0.003,0.425-0.016,0.64-0.016c23.917,0,43.306,18.891,43.306,42.194S24.557,236.438,0.64,236.438
		c-0.215,0-0.426-0.013-0.64-0.016v5.305c0.213,0.003,0.425,0.016,0.64,0.016C27.564,241.744,49.39,220.478,49.39,194.245z"/>
	<path fill="#FFFFFF" d="M9.616,194.245c0-5.175-4.306-9.37-9.616-9.37v5.232c2.345,0,4.246,1.853,4.246,4.138
		c0,2.285-1.901,4.137-4.246,4.137v5.233C5.311,203.615,9.616,199.42,9.616,194.245z"/>
	<path fill="#FFFFFF" d="M35.544,194.245c0-18.782-15.627-34.008-34.904-34.008c-0.215,0-0.426,0.012-0.64,0.016v5.114
		c0.213-0.005,0.425-0.016,0.64-0.016c16.378,0,29.656,12.937,29.656,28.895c0,15.958-13.278,28.894-29.656,28.894
		c-0.215,0-0.426-0.011-0.64-0.016v5.113c0.213,0.004,0.425,0.016,0.64,0.016C19.917,228.252,35.544,213.027,35.544,194.245z"/>
</g>
</svg>
