<?xml version="1.0" encoding="utf-8"?>
<!-- Generator: Adobe Illustrator 17.0.0, SVG Export Plug-In . SVG Version: 6.00 Build 0)  -->
<!DOCTYPE svg PUBLIC "-//W3C//DTD SVG 1.1//EN" "http://www.w3.org/Graphics/SVG/1.1/DTD/svg11.dtd">
<svg version="1.1" id="Layer_1" xmlns="http://www.w3.org/2000/svg" xmlns:xlink="http://www.w3.org/1999/xlink" x="0px" y="0px"
	 width="256px" height="256px" viewBox="0 0 256 256" enable-background="new 0 0 256 256" xml:space="preserve">
<ellipse opacity="0.4" fill="#FFFFFF" cx="7.459" cy="121.402" rx="7.531" ry="7.829"/>
<ellipse opacity="0.4" fill="#FFFFFF" cx="52.644" cy="121.194" rx="7.531" ry="7.829"/>
<ellipse opacity="0.4" fill="#FFFFFF" cx="67.706" cy="121.194" rx="7.531" ry="7.829"/>
<ellipse opacity="0.4" fill="#FFFFFF" cx="22.521" cy="121.194" rx="7.531" ry="7.829"/>
<ellipse opacity="0.4" fill="#FFFFFF" cx="37.583" cy="121.194" rx="7.531" ry="7.829"/>
<ellipse opacity="0.4" fill="#FFFFFF" cx="112.891" cy="121.61" rx="7.531" ry="7.829"/>
<ellipse opacity="0.4" fill="#FFFFFF" cx="127.952" cy="121.61" rx="7.531" ry="7.829"/>
<ellipse opacity="0.4" fill="#FFFFFF" cx="82.767" cy="121.61" rx="7.531" ry="7.829"/>
<ellipse opacity="0.4" fill="#FFFFFF" cx="97.829" cy="121.61" rx="7.531" ry="7.829"/>
<ellipse opacity="0.4" fill="#FFFFFF" cx="173.137" cy="121.61" rx="7.531" ry="7.829"/>
<ellipse opacity="0.4" fill="#FFFFFF" cx="188.199" cy="121.61" rx="7.531" ry="7.829"/>
<ellipse opacity="0.4" fill="#FFFFFF" cx="143.014" cy="121.61" rx="7.531" ry="7.829"/>
<ellipse opacity="0.4" fill="#FFFFFF" cx="158.076" cy="121.61" rx="7.531" ry="7.829"/>
<ellipse opacity="0.4" fill="#FFFFFF" cx="233.384" cy="122.026" rx="7.531" ry="7.829"/>
<ellipse opacity="0.4" fill="#FFFFFF" cx="248.446" cy="122.026" rx="7.531" ry="7.829"/>
<ellipse opacity="0.4" fill="#FFFFFF" cx="203.261" cy="122.026" rx="7.531" ry="7.829"/>
<ellipse opacity="0.4" fill="#FFFFFF" cx="218.322" cy="122.026" rx="7.531" ry="7.829"/>
<ellipse opacity="0.4" fill="#FFFFFF" cx="7.459" cy="104.472" rx="6.257" ry="6.505"/>
<ellipse opacity="0.4" fill="#FFFFFF" cx="22.521" cy="104.472" rx="6.257" ry="6.505"/>
<ellipse opacity="0.4" fill="#FFFFFF" cx="37.583" cy="104.472" rx="6.257" ry="6.505"/>
<ellipse opacity="0.4" fill="#FFFFFF" cx="52.644" cy="104.472" rx="6.257" ry="6.505"/>
<ellipse opacity="0.4" fill="#FFFFFF" cx="67.706" cy="104.472" rx="6.257" ry="6.505"/>
<ellipse opacity="0.4" fill="#FFFFFF" cx="82.767" cy="104.472" rx="6.257" ry="6.505"/>
<ellipse opacity="0.4" fill="#FFFFFF" cx="97.829" cy="104.472" rx="6.257" ry="6.505"/>
<ellipse opacity="0.4" fill="#FFFFFF" cx="112.891" cy="104.472" rx="6.257" ry="6.505"/>
<ellipse opacity="0.4" fill="#FFFFFF" cx="127.952" cy="104.472" rx="6.257" ry="6.505"/>
<ellipse opacity="0.4" fill="#FFFFFF" cx="143.014" cy="104.472" rx="6.257" ry="6.505"/>
<ellipse opacity="0.4" fill="#FFFFFF" cx="158.076" cy="104.472" rx="6.257" ry="6.505"/>
<ellipse opacity="0.4" fill="#FFFFFF" cx="173.137" cy="104.472" rx="6.257" ry="6.505"/>
<ellipse opacity="0.4" fill="#FFFFFF" cx="188.199" cy="104.472" rx="6.257" ry="6.505"/>
<ellipse opacity="0.4" fill="#FFFFFF" cx="203.261" cy="104.472" rx="6.257" ry="6.505"/>
<ellipse opacity="0.4" fill="#FFFFFF" cx="218.322" cy="104.472" rx="6.257" ry="6.505"/>
<ellipse opacity="0.4" fill="#FFFFFF" cx="233.384" cy="104.472" rx="6.257" ry="6.505"/>
<ellipse opacity="0.4" fill="#FFFFFF" cx="248.446" cy="104.472" rx="6.257" ry="6.505"/>
<ellipse opacity="0.4" fill="#FFFFFF" cx="7.459" cy="87.573" rx="4.84" ry="5.032"/>
<ellipse opacity="0.4" fill="#FFFFFF" cx="22.521" cy="87.573" rx="4.84" ry="5.032"/>
<ellipse opacity="0.4" fill="#FFFFFF" cx="37.583" cy="87.573" rx="4.84" ry="5.032"/>
<ellipse opacity="0.4" fill="#FFFFFF" cx="52.644" cy="87.573" rx="4.84" ry="5.032"/>
<ellipse opacity="0.4" fill="#FFFFFF" cx="67.706" cy="87.573" rx="4.84" ry="5.032"/>
<ellipse opacity="0.4" fill="#FFFFFF" cx="82.767" cy="87.573" rx="4.84" ry="5.032"/>
<ellipse opacity="0.4" fill="#FFFFFF" cx="97.829" cy="87.573" rx="4.84" ry="5.032"/>
<ellipse opacity="0.4" fill="#FFFFFF" cx="112.891" cy="87.573" rx="4.84" ry="5.032"/>
<ellipse opacity="0.4" fill="#FFFFFF" cx="127.952" cy="87.573" rx="4.84" ry="5.032"/>
<ellipse opacity="0.4" fill="#FFFFFF" cx="143.014" cy="87.573" rx="4.84" ry="5.032"/>
<ellipse opacity="0.4" fill="#FFFFFF" cx="158.076" cy="87.573" rx="4.84" ry="5.032"/>
<ellipse opacity="0.4" fill="#FFFFFF" cx="173.137" cy="87.573" rx="4.84" ry="5.032"/>
<ellipse opacity="0.4" fill="#FFFFFF" cx="188.199" cy="87.573" rx="4.84" ry="5.032"/>
<ellipse opacity="0.4" fill="#FFFFFF" cx="203.261" cy="87.573" rx="4.84" ry="5.032"/>
<ellipse opacity="0.4" fill="#FFFFFF" cx="218.322" cy="87.573" rx="4.84" ry="5.032"/>
<ellipse opacity="0.4" fill="#FFFFFF" cx="233.384" cy="87.573" rx="4.84" ry="5.032"/>
<ellipse opacity="0.4" fill="#FFFFFF" cx="248.446" cy="87.573" rx="4.84" ry="5.032"/>
<ellipse opacity="0.4" fill="#FFFFFF" cx="7.349" cy="70.85" rx="3.269" ry="3.399"/>
<ellipse opacity="0.4" fill="#FFFFFF" cx="22.576" cy="70.85" rx="3.269" ry="3.399"/>
<ellipse opacity="0.4" fill="#FFFFFF" cx="37.638" cy="70.85" rx="3.269" ry="3.399"/>
<ellipse opacity="0.4" fill="#FFFFFF" cx="52.479" cy="70.85" rx="3.269" ry="3.399"/>
<ellipse opacity="0.4" fill="#FFFFFF" cx="67.541" cy="70.85" rx="3.269" ry="3.399"/>
<ellipse opacity="0.4" fill="#FFFFFF" cx="82.933" cy="70.85" rx="3.269" ry="3.399"/>
<ellipse opacity="0.4" fill="#FFFFFF" cx="97.994" cy="70.85" rx="3.269" ry="3.399"/>
<ellipse opacity="0.4" fill="#FFFFFF" cx="112.836" cy="70.85" rx="3.269" ry="3.399"/>
<ellipse opacity="0.4" fill="#FFFFFF" cx="127.897" cy="70.85" rx="3.269" ry="3.399"/>
<ellipse opacity="0.4" fill="#FFFFFF" cx="143.042" cy="70.85" rx="3.269" ry="3.399"/>
<ellipse opacity="0.4" fill="#FFFFFF" cx="158.103" cy="70.85" rx="3.269" ry="3.399"/>
<ellipse opacity="0.4" fill="#FFFFFF" cx="172.945" cy="70.85" rx="3.269" ry="3.399"/>
<ellipse opacity="0.4" fill="#FFFFFF" cx="188.007" cy="70.85" rx="3.269" ry="3.399"/>
<ellipse opacity="0.4" fill="#FFFFFF" cx="203.398" cy="70.85" rx="3.269" ry="3.399"/>
<ellipse opacity="0.4" fill="#FFFFFF" cx="218.46" cy="70.85" rx="3.269" ry="3.399"/>
<ellipse opacity="0.4" fill="#FFFFFF" cx="233.302" cy="70.85" rx="3.269" ry="3.399"/>
<ellipse opacity="0.4" fill="#FFFFFF" cx="248.363" cy="70.85" rx="3.269" ry="3.399"/>
<ellipse opacity="0.4" fill="#FFFFFF" cx="7.089" cy="55.396" rx="2.216" ry="2.304"/>
<ellipse opacity="0.4" fill="#FFFFFF" cx="22.465" cy="55.396" rx="2.216" ry="2.304"/>
<ellipse opacity="0.4" fill="#FFFFFF" cx="37.527" cy="55.396" rx="2.216" ry="2.304"/>
<ellipse opacity="0.4" fill="#FFFFFF" cx="52.254" cy="55.396" rx="2.216" ry="2.304"/>
<ellipse opacity="0.4" fill="#FFFFFF" cx="67.316" cy="55.396" rx="2.216" ry="2.304"/>
<ellipse opacity="0.4" fill="#FFFFFF" cx="82.675" cy="55.396" rx="2.216" ry="2.304"/>
<ellipse opacity="0.4" fill="#FFFFFF" cx="97.737" cy="55.396" rx="2.216" ry="2.304"/>
<ellipse opacity="0.4" fill="#FFFFFF" cx="112.464" cy="55.396" rx="2.216" ry="2.304"/>
<ellipse opacity="0.4" fill="#FFFFFF" cx="127.526" cy="55.396" rx="2.216" ry="2.304"/>
<ellipse opacity="0.4" fill="#FFFFFF" cx="143.227" cy="55.396" rx="2.216" ry="2.304"/>
<ellipse opacity="0.4" fill="#FFFFFF" cx="158.289" cy="55.396" rx="2.216" ry="2.304"/>
<ellipse opacity="0.4" fill="#FFFFFF" cx="173.017" cy="55.396" rx="2.216" ry="2.304"/>
<ellipse opacity="0.4" fill="#FFFFFF" cx="188.078" cy="55.396" rx="2.216" ry="2.304"/>
<ellipse opacity="0.4" fill="#FFFFFF" cx="203.437" cy="55.396" rx="2.216" ry="2.304"/>
<ellipse opacity="0.4" fill="#FFFFFF" cx="218.499" cy="55.396" rx="2.216" ry="2.304"/>
<ellipse opacity="0.4" fill="#FFFFFF" cx="233.227" cy="55.396" rx="2.216" ry="2.304"/>
<ellipse opacity="0.4" fill="#FFFFFF" cx="248.288" cy="55.396" rx="2.216" ry="2.304"/>
<ellipse opacity="0.4" fill="#FFFFFF" cx="6.855" cy="39.845" rx="1.547" ry="1.608"/>
<ellipse opacity="0.4" fill="#FFFFFF" cx="22.485" cy="39.845" rx="1.547" ry="1.608"/>
<ellipse opacity="0.4" fill="#FFFFFF" cx="37.547" cy="39.845" rx="1.547" ry="1.608"/>
<ellipse opacity="0.4" fill="#FFFFFF" cx="52.215" cy="39.845" rx="1.547" ry="1.608"/>
<ellipse opacity="0.4" fill="#FFFFFF" cx="67.276" cy="39.845" rx="1.547" ry="1.608"/>
<ellipse opacity="0.4" fill="#FFFFFF" cx="82.521" cy="39.845" rx="1.547" ry="1.608"/>
<ellipse opacity="0.4" fill="#FFFFFF" cx="97.583" cy="39.845" rx="1.547" ry="1.608"/>
<ellipse opacity="0.4" fill="#FFFFFF" cx="112.251" cy="39.845" rx="1.547" ry="1.608"/>
<ellipse opacity="0.4" fill="#FFFFFF" cx="127.312" cy="39.845" rx="1.547" ry="1.608"/>
<ellipse opacity="0.4" fill="#FFFFFF" cx="143.607" cy="39.845" rx="1.547" ry="1.608"/>
<ellipse opacity="0.4" fill="#FFFFFF" cx="158.669" cy="39.845" rx="1.547" ry="1.608"/>
<ellipse opacity="0.4" fill="#FFFFFF" cx="173.337" cy="39.845" rx="1.547" ry="1.608"/>
<ellipse opacity="0.4" fill="#FFFFFF" cx="188.398" cy="39.845" rx="1.547" ry="1.608"/>
<ellipse opacity="0.4" fill="#FFFFFF" cx="203.643" cy="39.845" rx="1.547" ry="1.608"/>
<ellipse opacity="0.4" fill="#FFFFFF" cx="218.705" cy="39.845" rx="1.547" ry="1.608"/>
<ellipse opacity="0.4" fill="#FFFFFF" cx="233.373" cy="39.845" rx="1.547" ry="1.608"/>
<ellipse opacity="0.4" fill="#FFFFFF" cx="248.434" cy="39.845" rx="1.547" ry="1.608"/>
<ellipse opacity="0.4" fill="#FFFFFF" cx="6.417" cy="22.366" rx="0.949" ry="0.987"/>
<ellipse opacity="0.4" fill="#FFFFFF" cx="22.535" cy="22.366" rx="0.949" ry="0.987"/>
<ellipse opacity="0.4" fill="#FFFFFF" cx="37.596" cy="22.366" rx="0.949" ry="0.987"/>
<ellipse opacity="0.4" fill="#FFFFFF" cx="52.102" cy="22.366" rx="0.949" ry="0.987"/>
<ellipse opacity="0.4" fill="#FFFFFF" cx="67.164" cy="22.366" rx="0.949" ry="0.987"/>
<ellipse opacity="0.4" fill="#FFFFFF" cx="82.295" cy="22.366" rx="0.949" ry="0.987"/>
<ellipse opacity="0.4" fill="#FFFFFF" cx="97.356" cy="22.366" rx="0.949" ry="0.987"/>
<ellipse opacity="0.4" fill="#FFFFFF" cx="111.862" cy="22.366" rx="0.949" ry="0.987"/>
<ellipse opacity="0.4" fill="#FFFFFF" cx="126.924" cy="22.366" rx="0.949" ry="0.987"/>
<ellipse opacity="0.4" fill="#FFFFFF" cx="143.959" cy="22.366" rx="0.949" ry="0.987"/>
<ellipse opacity="0.4" fill="#FFFFFF" cx="159.021" cy="22.366" rx="0.949" ry="0.987"/>
<ellipse opacity="0.4" fill="#FFFFFF" cx="173.527" cy="22.366" rx="0.949" ry="0.987"/>
<ellipse opacity="0.4" fill="#FFFFFF" cx="188.589" cy="22.366" rx="0.949" ry="0.987"/>
<ellipse opacity="0.4" fill="#FFFFFF" cx="203.719" cy="22.366" rx="0.949" ry="0.987"/>
<ellipse opacity="0.4" fill="#FFFFFF" cx="218.781" cy="22.366" rx="0.949" ry="0.987"/>
<ellipse opacity="0.4" fill="#FFFFFF" cx="233.287" cy="22.366" rx="0.949" ry="0.987"/>
<ellipse opacity="0.4" fill="#FFFFFF" cx="248.349" cy="22.366" rx="0.949" ry="0.987"/>
<ellipse opacity="0.4" fill="#FFFFFF" cx="7.459" cy="140.53" rx="6.257" ry="6.505"/>
<ellipse opacity="0.4" fill="#FFFFFF" cx="22.521" cy="140.53" rx="6.257" ry="6.505"/>
<ellipse opacity="0.4" fill="#FFFFFF" cx="37.583" cy="140.53" rx="6.257" ry="6.505"/>
<ellipse opacity="0.4" fill="#FFFFFF" cx="52.644" cy="140.53" rx="6.257" ry="6.505"/>
<ellipse opacity="0.4" fill="#FFFFFF" cx="67.706" cy="140.53" rx="6.257" ry="6.505"/>
<ellipse opacity="0.4" fill="#FFFFFF" cx="82.767" cy="140.53" rx="6.257" ry="6.505"/>
<ellipse opacity="0.4" fill="#FFFFFF" cx="97.829" cy="140.53" rx="6.257" ry="6.505"/>
<ellipse opacity="0.4" fill="#FFFFFF" cx="112.891" cy="140.53" rx="6.257" ry="6.505"/>
<ellipse opacity="0.4" fill="#FFFFFF" cx="127.952" cy="140.53" rx="6.257" ry="6.505"/>
<ellipse opacity="0.4" fill="#FFFFFF" cx="143.014" cy="140.53" rx="6.257" ry="6.505"/>
<ellipse opacity="0.4" fill="#FFFFFF" cx="158.076" cy="140.53" rx="6.257" ry="6.505"/>
<ellipse opacity="0.4" fill="#FFFFFF" cx="173.137" cy="140.53" rx="6.257" ry="6.505"/>
<ellipse opacity="0.4" fill="#FFFFFF" cx="188.199" cy="140.53" rx="6.257" ry="6.505"/>
<ellipse opacity="0.4" fill="#FFFFFF" cx="203.261" cy="140.53" rx="6.257" ry="6.505"/>
<ellipse opacity="0.4" fill="#FFFFFF" cx="218.322" cy="140.53" rx="6.257" ry="6.505"/>
<ellipse opacity="0.4" fill="#FFFFFF" cx="233.384" cy="140.53" rx="6.257" ry="6.505"/>
<ellipse opacity="0.4" fill="#FFFFFF" cx="248.446" cy="140.53" rx="6.257" ry="6.505"/>
<ellipse opacity="0.4" fill="#FFFFFF" cx="7.459" cy="157.428" rx="4.84" ry="5.032"/>
<ellipse opacity="0.4" fill="#FFFFFF" cx="22.521" cy="157.428" rx="4.84" ry="5.032"/>
<ellipse opacity="0.4" fill="#FFFFFF" cx="37.583" cy="157.428" rx="4.84" ry="5.032"/>
<ellipse opacity="0.4" fill="#FFFFFF" cx="52.644" cy="157.428" rx="4.84" ry="5.032"/>
<ellipse opacity="0.4" fill="#FFFFFF" cx="67.706" cy="157.428" rx="4.84" ry="5.032"/>
<ellipse opacity="0.4" fill="#FFFFFF" cx="82.767" cy="157.428" rx="4.84" ry="5.032"/>
<ellipse opacity="0.4" fill="#FFFFFF" cx="97.829" cy="157.428" rx="4.84" ry="5.032"/>
<ellipse opacity="0.4" fill="#FFFFFF" cx="112.891" cy="157.428" rx="4.84" ry="5.032"/>
<ellipse opacity="0.4" fill="#FFFFFF" cx="127.952" cy="157.428" rx="4.84" ry="5.032"/>
<ellipse opacity="0.4" fill="#FFFFFF" cx="143.014" cy="157.428" rx="4.84" ry="5.032"/>
<ellipse opacity="0.4" fill="#FFFFFF" cx="158.076" cy="157.428" rx="4.84" ry="5.032"/>
<ellipse opacity="0.4" fill="#FFFFFF" cx="173.137" cy="157.428" rx="4.84" ry="5.032"/>
<ellipse opacity="0.4" fill="#FFFFFF" cx="188.199" cy="157.428" rx="4.84" ry="5.032"/>
<ellipse opacity="0.4" fill="#FFFFFF" cx="203.261" cy="157.428" rx="4.84" ry="5.032"/>
<ellipse opacity="0.4" fill="#FFFFFF" cx="218.322" cy="157.428" rx="4.84" ry="5.032"/>
<ellipse opacity="0.4" fill="#FFFFFF" cx="233.384" cy="157.428" rx="4.84" ry="5.032"/>
<ellipse opacity="0.4" fill="#FFFFFF" cx="248.446" cy="157.428" rx="4.84" ry="5.032"/>
<ellipse opacity="0.4" fill="#FFFFFF" cx="7.349" cy="174.152" rx="3.269" ry="3.399"/>
<ellipse opacity="0.4" fill="#FFFFFF" cx="22.576" cy="174.152" rx="3.269" ry="3.399"/>
<ellipse opacity="0.4" fill="#FFFFFF" cx="37.638" cy="174.152" rx="3.269" ry="3.399"/>
<ellipse opacity="0.4" fill="#FFFFFF" cx="52.479" cy="174.152" rx="3.269" ry="3.399"/>
<ellipse opacity="0.4" fill="#FFFFFF" cx="67.541" cy="174.152" rx="3.269" ry="3.399"/>
<ellipse opacity="0.4" fill="#FFFFFF" cx="82.933" cy="174.152" rx="3.269" ry="3.399"/>
<ellipse opacity="0.4" fill="#FFFFFF" cx="97.994" cy="174.152" rx="3.269" ry="3.399"/>
<ellipse opacity="0.4" fill="#FFFFFF" cx="112.836" cy="174.152" rx="3.269" ry="3.399"/>
<ellipse opacity="0.4" fill="#FFFFFF" cx="127.897" cy="174.152" rx="3.269" ry="3.399"/>
<ellipse opacity="0.4" fill="#FFFFFF" cx="143.042" cy="174.152" rx="3.269" ry="3.399"/>
<ellipse opacity="0.4" fill="#FFFFFF" cx="158.103" cy="174.152" rx="3.269" ry="3.399"/>
<ellipse opacity="0.4" fill="#FFFFFF" cx="172.945" cy="174.152" rx="3.269" ry="3.399"/>
<ellipse opacity="0.4" fill="#FFFFFF" cx="188.007" cy="174.152" rx="3.269" ry="3.399"/>
<ellipse opacity="0.4" fill="#FFFFFF" cx="203.398" cy="174.152" rx="3.269" ry="3.399"/>
<ellipse opacity="0.4" fill="#FFFFFF" cx="218.46" cy="174.152" rx="3.269" ry="3.399"/>
<ellipse opacity="0.4" fill="#FFFFFF" cx="233.302" cy="174.152" rx="3.269" ry="3.399"/>
<ellipse opacity="0.4" fill="#FFFFFF" cx="248.363" cy="174.152" rx="3.269" ry="3.399"/>
<ellipse opacity="0.4" fill="#FFFFFF" cx="7.089" cy="189.605" rx="2.216" ry="2.304"/>
<ellipse opacity="0.4" fill="#FFFFFF" cx="22.465" cy="189.605" rx="2.216" ry="2.304"/>
<ellipse opacity="0.4" fill="#FFFFFF" cx="37.527" cy="189.605" rx="2.216" ry="2.304"/>
<ellipse opacity="0.4" fill="#FFFFFF" cx="52.254" cy="189.605" rx="2.216" ry="2.304"/>
<ellipse opacity="0.4" fill="#FFFFFF" cx="67.316" cy="189.605" rx="2.216" ry="2.304"/>
<ellipse opacity="0.4" fill="#FFFFFF" cx="82.675" cy="189.605" rx="2.216" ry="2.304"/>
<ellipse opacity="0.4" fill="#FFFFFF" cx="97.737" cy="189.605" rx="2.216" ry="2.304"/>
<ellipse opacity="0.4" fill="#FFFFFF" cx="112.464" cy="189.605" rx="2.216" ry="2.304"/>
<ellipse opacity="0.4" fill="#FFFFFF" cx="127.526" cy="189.605" rx="2.216" ry="2.304"/>
<ellipse opacity="0.4" fill="#FFFFFF" cx="143.227" cy="189.605" rx="2.216" ry="2.304"/>
<ellipse opacity="0.4" fill="#FFFFFF" cx="158.289" cy="189.605" rx="2.216" ry="2.304"/>
<ellipse opacity="0.4" fill="#FFFFFF" cx="173.017" cy="189.605" rx="2.216" ry="2.304"/>
<ellipse opacity="0.4" fill="#FFFFFF" cx="188.078" cy="189.605" rx="2.216" ry="2.304"/>
<ellipse opacity="0.4" fill="#FFFFFF" cx="203.437" cy="189.605" rx="2.216" ry="2.304"/>
<ellipse opacity="0.4" fill="#FFFFFF" cx="218.499" cy="189.605" rx="2.216" ry="2.304"/>
<ellipse opacity="0.4" fill="#FFFFFF" cx="233.227" cy="189.605" rx="2.216" ry="2.304"/>
<ellipse opacity="0.4" fill="#FFFFFF" cx="248.288" cy="189.605" rx="2.216" ry="2.304"/>
<ellipse opacity="0.4" fill="#FFFFFF" cx="6.855" cy="205.157" rx="1.547" ry="1.608"/>
<ellipse opacity="0.4" fill="#FFFFFF" cx="22.485" cy="205.157" rx="1.547" ry="1.608"/>
<ellipse opacity="0.4" fill="#FFFFFF" cx="37.547" cy="205.157" rx="1.547" ry="1.608"/>
<ellipse opacity="0.4" fill="#FFFFFF" cx="52.215" cy="205.157" rx="1.547" ry="1.608"/>
<ellipse opacity="0.4" fill="#FFFFFF" cx="67.276" cy="205.157" rx="1.547" ry="1.608"/>
<ellipse opacity="0.4" fill="#FFFFFF" cx="82.521" cy="205.157" rx="1.547" ry="1.608"/>
<ellipse opacity="0.4" fill="#FFFFFF" cx="97.583" cy="205.157" rx="1.547" ry="1.608"/>
<ellipse opacity="0.4" fill="#FFFFFF" cx="112.251" cy="205.157" rx="1.547" ry="1.608"/>
<ellipse opacity="0.4" fill="#FFFFFF" cx="127.312" cy="205.157" rx="1.547" ry="1.608"/>
<ellipse opacity="0.4" fill="#FFFFFF" cx="143.607" cy="205.157" rx="1.547" ry="1.608"/>
<ellipse opacity="0.4" fill="#FFFFFF" cx="158.669" cy="205.157" rx="1.547" ry="1.608"/>
<ellipse opacity="0.4" fill="#FFFFFF" cx="173.337" cy="205.157" rx="1.547" ry="1.608"/>
<ellipse opacity="0.4" fill="#FFFFFF" cx="188.398" cy="205.157" rx="1.547" ry="1.608"/>
<ellipse opacity="0.4" fill="#FFFFFF" cx="203.643" cy="205.157" rx="1.547" ry="1.608"/>
<ellipse opacity="0.4" fill="#FFFFFF" cx="218.705" cy="205.157" rx="1.547" ry="1.608"/>
<ellipse opacity="0.4" fill="#FFFFFF" cx="233.373" cy="205.157" rx="1.547" ry="1.608"/>
<ellipse opacity="0.4" fill="#FFFFFF" cx="248.434" cy="205.157" rx="1.547" ry="1.608"/>
<ellipse opacity="0.4" fill="#FFFFFF" cx="6.417" cy="220.635" rx="0.949" ry="0.987"/>
<ellipse opacity="0.4" fill="#FFFFFF" cx="22.535" cy="220.635" rx="0.949" ry="0.987"/>
<ellipse opacity="0.4" fill="#FFFFFF" cx="37.596" cy="220.635" rx="0.949" ry="0.987"/>
<ellipse opacity="0.4" fill="#FFFFFF" cx="52.102" cy="220.635" rx="0.949" ry="0.987"/>
<ellipse opacity="0.4" fill="#FFFFFF" cx="67.164" cy="220.635" rx="0.949" ry="0.987"/>
<ellipse opacity="0.4" fill="#FFFFFF" cx="82.295" cy="220.635" rx="0.949" ry="0.987"/>
<ellipse opacity="0.4" fill="#FFFFFF" cx="97.356" cy="220.635" rx="0.949" ry="0.987"/>
<ellipse opacity="0.4" fill="#FFFFFF" cx="111.862" cy="220.635" rx="0.949" ry="0.987"/>
<ellipse opacity="0.4" fill="#FFFFFF" cx="126.924" cy="220.635" rx="0.949" ry="0.987"/>
<ellipse opacity="0.4" fill="#FFFFFF" cx="143.959" cy="220.635" rx="0.949" ry="0.987"/>
<ellipse opacity="0.4" fill="#FFFFFF" cx="159.021" cy="220.635" rx="0.949" ry="0.987"/>
<ellipse opacity="0.4" fill="#FFFFFF" cx="173.527" cy="220.635" rx="0.949" ry="0.987"/>
<ellipse opacity="0.4" fill="#FFFFFF" cx="188.589" cy="220.635" rx="0.949" ry="0.987"/>
<ellipse opacity="0.4" fill="#FFFFFF" cx="203.719" cy="220.635" rx="0.949" ry="0.987"/>
<ellipse opacity="0.4" fill="#FFFFFF" cx="218.781" cy="220.635" rx="0.949" ry="0.987"/>
<ellipse opacity="0.4" fill="#FFFFFF" cx="233.287" cy="220.635" rx="0.949" ry="0.987"/>
<ellipse opacity="0.4" fill="#FFFFFF" cx="248.349" cy="220.635" rx="0.949" ry="0.987"/>
<ellipse opacity="0.4" fill="#FFFFFF" cx="6.439" cy="235.263" rx="0.949" ry="0.987"/>
<ellipse opacity="0.4" fill="#FFFFFF" cx="22.556" cy="235.263" rx="0.949" ry="0.987"/>
<ellipse opacity="0.4" fill="#FFFFFF" cx="37.618" cy="235.263" rx="0.949" ry="0.987"/>
<ellipse opacity="0.4" fill="#FFFFFF" cx="52.124" cy="235.263" rx="0.949" ry="0.987"/>
<ellipse opacity="0.4" fill="#FFFFFF" cx="67.186" cy="235.263" rx="0.949" ry="0.987"/>
<ellipse opacity="0.4" fill="#FFFFFF" cx="82.316" cy="235.263" rx="0.949" ry="0.987"/>
<ellipse opacity="0.4" fill="#FFFFFF" cx="97.378" cy="235.263" rx="0.949" ry="0.987"/>
<ellipse opacity="0.4" fill="#FFFFFF" cx="111.884" cy="235.263" rx="0.949" ry="0.987"/>
<ellipse opacity="0.4" fill="#FFFFFF" cx="126.946" cy="235.263" rx="0.949" ry="0.987"/>
<ellipse opacity="0.4" fill="#FFFFFF" cx="143.981" cy="235.263" rx="0.949" ry="0.987"/>
<ellipse opacity="0.4" fill="#FFFFFF" cx="159.043" cy="235.263" rx="0.949" ry="0.987"/>
<ellipse opacity="0.4" fill="#FFFFFF" cx="173.549" cy="235.263" rx="0.949" ry="0.987"/>
<ellipse opacity="0.4" fill="#FFFFFF" cx="188.61" cy="235.263" rx="0.949" ry="0.987"/>
<ellipse opacity="0.4" fill="#FFFFFF" cx="203.741" cy="235.263" rx="0.949" ry="0.987"/>
<ellipse opacity="0.4" fill="#FFFFFF" cx="218.803" cy="235.263" rx="0.949" ry="0.987"/>
<ellipse opacity="0.4" fill="#FFFFFF" cx="233.309" cy="235.263" rx="0.949" ry="0.987"/>
<ellipse opacity="0.4" fill="#FFFFFF" cx="248.37" cy="235.263" rx="0.949" ry="0.987"/>
<ellipse opacity="0.4" fill="#FFFFFF" cx="6.439" cy="249.932" rx="0.949" ry="0.987"/>
<ellipse opacity="0.4" fill="#FFFFFF" cx="22.556" cy="249.932" rx="0.949" ry="0.987"/>
<ellipse opacity="0.4" fill="#FFFFFF" cx="37.618" cy="249.932" rx="0.949" ry="0.987"/>
<ellipse opacity="0.4" fill="#FFFFFF" cx="52.124" cy="249.932" rx="0.949" ry="0.987"/>
<ellipse opacity="0.4" fill="#FFFFFF" cx="67.186" cy="249.932" rx="0.949" ry="0.987"/>
<ellipse opacity="0.4" fill="#FFFFFF" cx="82.316" cy="249.932" rx="0.949" ry="0.987"/>
<ellipse opacity="0.4" fill="#FFFFFF" cx="97.378" cy="249.932" rx="0.949" ry="0.987"/>
<ellipse opacity="0.4" fill="#FFFFFF" cx="111.884" cy="249.932" rx="0.949" ry="0.987"/>
<ellipse opacity="0.4" fill="#FFFFFF" cx="126.946" cy="249.932" rx="0.949" ry="0.987"/>
<ellipse opacity="0.4" fill="#FFFFFF" cx="143.981" cy="249.932" rx="0.949" ry="0.987"/>
<ellipse opacity="0.4" fill="#FFFFFF" cx="159.043" cy="249.932" rx="0.949" ry="0.987"/>
<ellipse opacity="0.4" fill="#FFFFFF" cx="173.549" cy="249.932" rx="0.949" ry="0.987"/>
<ellipse opacity="0.4" fill="#FFFFFF" cx="188.61" cy="249.932" rx="0.949" ry="0.987"/>
<ellipse opacity="0.4" fill="#FFFFFF" cx="203.741" cy="249.932" rx="0.949" ry="0.987"/>
<ellipse opacity="0.4" fill="#FFFFFF" cx="218.803" cy="249.932" rx="0.949" ry="0.987"/>
<ellipse opacity="0.4" fill="#FFFFFF" cx="233.309" cy="249.932" rx="0.949" ry="0.987"/>
<ellipse opacity="0.4" fill="#FFFFFF" cx="248.37" cy="249.932" rx="0.949" ry="0.987"/>
<ellipse opacity="0.4" fill="#FFFFFF" cx="6.417" cy="6.068" rx="0.949" ry="0.987"/>
<ellipse opacity="0.4" fill="#FFFFFF" cx="22.535" cy="6.068" rx="0.949" ry="0.987"/>
<ellipse opacity="0.4" fill="#FFFFFF" cx="37.596" cy="6.068" rx="0.949" ry="0.987"/>
<ellipse opacity="0.4" fill="#FFFFFF" cx="52.102" cy="6.068" rx="0.949" ry="0.987"/>
<ellipse opacity="0.4" fill="#FFFFFF" cx="67.164" cy="6.068" rx="0.949" ry="0.987"/>
<ellipse opacity="0.4" fill="#FFFFFF" cx="82.295" cy="6.068" rx="0.949" ry="0.987"/>
<ellipse opacity="0.4" fill="#FFFFFF" cx="97.356" cy="6.068" rx="0.949" ry="0.987"/>
<ellipse opacity="0.4" fill="#FFFFFF" cx="111.862" cy="6.068" rx="0.949" ry="0.987"/>
<ellipse opacity="0.4" fill="#FFFFFF" cx="126.924" cy="6.068" rx="0.949" ry="0.987"/>
<ellipse opacity="0.4" fill="#FFFFFF" cx="143.959" cy="6.068" rx="0.949" ry="0.987"/>
<ellipse opacity="0.4" fill="#FFFFFF" cx="159.021" cy="6.068" rx="0.949" ry="0.987"/>
<ellipse opacity="0.4" fill="#FFFFFF" cx="173.527" cy="6.068" rx="0.949" ry="0.987"/>
<ellipse opacity="0.4" fill="#FFFFFF" cx="188.589" cy="6.068" rx="0.949" ry="0.987"/>
<ellipse opacity="0.4" fill="#FFFFFF" cx="203.719" cy="6.068" rx="0.949" ry="0.987"/>
<ellipse opacity="0.4" fill="#FFFFFF" cx="218.781" cy="6.068" rx="0.949" ry="0.987"/>
<ellipse opacity="0.4" fill="#FFFFFF" cx="233.287" cy="6.068" rx="0.949" ry="0.987"/>
<ellipse opacity="0.4" fill="#FFFFFF" cx="248.349" cy="6.068" rx="0.949" ry="0.987"/>
</svg>
