<?xml version="1.0" encoding="utf-8"?>
<!-- Generator: Adobe Illustrator 17.0.0, SVG Export Plug-In . SVG Version: 6.00 Build 0)  -->
<!DOCTYPE svg PUBLIC "-//W3C//DTD SVG 1.1//EN" "http://www.w3.org/Graphics/SVG/1.1/DTD/svg11.dtd">
<svg version="1.1" id="Layer_1" xmlns="http://www.w3.org/2000/svg" xmlns:xlink="http://www.w3.org/1999/xlink" x="0px" y="0px"
	 width="256px" height="256px" viewBox="0 0 256 256" enable-background="new 0 0 256 256" xml:space="preserve">
<path opacity="0.5" fill="#FDFDFE" d="M64.865,3.596c0.164-0.799,1.755-2.12,2.435-2.569c2.323-1.532,8.619-1.196,11.132,0
	c2.989,1.423,7.256,6.32,8.67,9.313c1.261,2.667,0.026,10.363,2.034,12.524c2.422,2.606,10.941,1.609,13.702,3.854
	c1.17,0.951,2.425,3.887,2.783,5.352c0.648,2.652-1.764,8.836,0,10.918c1.052,1.242,3.347,1.799,4.973,1.873
	c1.766,0.08,3.565-1.257,4.019-0.803c0.568,0.568,0.505,2.587,0,3.211c-0.646,0.798-2.992,0.892-4.019,0.856
	c-2.128-0.075-6.438-1.192-7.756-2.863c-3.292-4.175-0.273-9.689-1.26-12.481c-0.297-0.84-0.777-1.971-1.469-2.532
	c-2.802-2.274-11.981-1.709-14.397-4.389c-2.226-2.468-1.531-10.827-2.944-13.835c-1.061-2.258-4.095-5.91-6.262-7.145
	c-1.68-0.957-5.876-1.264-7.707-0.642c-0.706,0.24-2.047,1.19-2.783,1.07C64.862,5.121,64.801,3.911,64.865,3.596z"/>
<path opacity="0.5" fill="#FDFDFE" d="M127.772,14.623c0.164-0.799,1.755-2.12,2.435-2.569c2.323-1.532,8.619-1.196,11.132,0
	c2.989,1.423,7.256,6.32,8.67,9.313c1.261,2.667,0.026,10.363,2.034,12.524c2.422,2.606,10.941,1.609,13.702,3.854
	c1.17,0.951,2.425,3.887,2.783,5.352c0.648,2.652-1.764,8.836,0,10.918c1.052,1.242,3.347,1.799,4.973,1.873
	c1.766,0.08,3.565-1.257,4.019-0.803c0.568,0.568,0.505,2.587,0,3.211c-0.646,0.798-2.992,0.892-4.019,0.856
	c-2.128-0.075-6.438-1.192-7.756-2.863c-3.292-4.175-0.273-9.689-1.26-12.481c-0.297-0.84-0.777-1.971-1.469-2.532
	c-2.802-2.274-11.981-1.709-14.397-4.389c-2.226-2.468-1.531-10.827-2.944-13.835c-1.061-2.258-4.095-5.91-6.262-7.145
	c-1.68-0.957-5.876-1.264-7.707-0.642c-0.706,0.24-2.047,1.19-2.783,1.07C127.769,16.149,127.708,14.938,127.772,14.623z"/>
<path opacity="0.5" fill="#FDFDFE" d="M193.129,4.481c0.164-0.799,1.755-2.12,2.435-2.569c2.323-1.532,8.619-1.196,11.132,0
	c2.989,1.423,7.256,6.32,8.671,9.313c1.261,2.667,0.026,10.363,2.034,12.524c2.422,2.606,10.941,1.609,13.702,3.854
	c1.17,0.951,2.425,3.887,2.783,5.352c0.648,2.652-1.764,8.836,0,10.918c1.052,1.242,3.347,1.799,4.973,1.873
	c1.766,0.08,3.565-1.257,4.019-0.803c0.568,0.568,0.505,2.587,0,3.211c-0.646,0.798-2.992,0.892-4.019,0.856
	c-2.128-0.075-6.438-1.192-7.756-2.863c-3.292-4.175-0.273-9.689-1.26-12.481c-0.297-0.84-0.777-1.971-1.469-2.532
	c-2.802-2.274-11.981-1.709-14.397-4.389c-2.226-2.468-1.531-10.827-2.944-13.835c-1.061-2.258-4.095-5.91-6.262-7.145
	c-1.68-0.957-5.876-1.264-7.707-0.642c-0.706,0.24-2.047,1.19-2.783,1.07C193.126,6.006,193.064,4.795,193.129,4.481z"/>
<path opacity="0.5" fill="#FDFDFE" d="M0.18,14.76c0.164-0.799,1.755-2.12,2.435-2.569c2.323-1.532,8.619-1.196,11.132,0
	c2.989,1.423,7.256,6.32,8.67,9.313c1.261,2.667,0.026,10.363,2.034,12.524c2.422,2.606,10.941,1.609,13.702,3.854
	c1.17,0.951,2.425,3.887,2.783,5.352c0.648,2.652-1.764,8.836,0,10.918c1.052,1.242,3.347,1.799,4.973,1.873
	c1.766,0.08,3.565-1.257,4.019-0.803c0.568,0.568,0.505,2.587,0,3.211c-0.646,0.798-2.992,0.892-4.019,0.856
	c-2.128-0.075-6.438-1.192-7.756-2.863c-3.292-4.175-0.273-9.689-1.26-12.481c-0.297-0.84-0.777-1.971-1.469-2.532
	c-2.802-2.274-11.981-1.709-14.397-4.389c-2.226-2.468-1.531-10.827-2.944-13.835c-1.061-2.258-4.095-5.91-6.262-7.145
	c-1.68-0.957-5.876-1.264-7.707-0.642c-0.706,0.24-2.047,1.19-2.783,1.07C0.176,16.285,0.115,15.074,0.18,14.76z"/>
<path opacity="0.5" fill="#FDFDFE" d="M69.865,64.596c0.164-0.799,1.755-2.12,2.435-2.569c2.323-1.532,8.619-1.196,11.132,0
	c2.989,1.423,7.256,6.32,8.67,9.313c1.261,2.667,0.026,10.363,2.034,12.524c2.422,2.606,10.941,1.609,13.702,3.854
	c1.17,0.951,2.425,3.887,2.783,5.352c0.648,2.652-1.764,8.836,0,10.918c1.052,1.242,3.347,1.799,4.973,1.873
	c1.766,0.08,3.565-1.257,4.019-0.803c0.568,0.568,0.505,2.587,0,3.211c-0.646,0.798-2.992,0.892-4.019,0.856
	c-2.128-0.075-6.438-1.192-7.756-2.863c-3.292-4.175-0.273-9.689-1.26-12.481c-0.297-0.84-0.777-1.971-1.469-2.532
	c-2.802-2.274-11.981-1.709-14.397-4.389c-2.226-2.468-1.531-10.827-2.944-13.835c-1.061-2.258-4.095-5.91-6.262-7.145
	c-1.68-0.957-5.876-1.264-7.707-0.642c-0.706,0.24-2.047,1.19-2.783,1.07C69.862,66.121,69.801,64.911,69.865,64.596z"/>
<path opacity="0.5" fill="#FDFDFE" d="M132.772,79.623c0.164-0.799,1.755-2.12,2.435-2.569c2.323-1.532,8.619-1.196,11.132,0
	c2.989,1.423,7.256,6.32,8.67,9.313c1.261,2.667,0.026,10.363,2.034,12.524c2.422,2.606,10.941,1.609,13.702,3.854
	c1.17,0.951,2.425,3.887,2.783,5.352c0.648,2.652-1.764,8.836,0,10.918c1.052,1.242,3.347,1.799,4.973,1.873
	c1.766,0.08,3.565-1.257,4.019-0.803c0.568,0.568,0.505,2.587,0,3.211c-0.646,0.798-2.992,0.892-4.019,0.856
	c-2.128-0.075-6.438-1.192-7.756-2.863c-3.292-4.175-0.273-9.689-1.26-12.481c-0.297-0.84-0.777-1.971-1.469-2.532
	c-2.802-2.274-11.981-1.709-14.397-4.389c-2.226-2.468-1.531-10.827-2.944-13.835c-1.061-2.258-4.095-5.91-6.262-7.145
	c-1.68-0.957-5.876-1.264-7.707-0.642c-0.706,0.24-2.047,1.19-2.783,1.07C132.769,81.149,132.708,79.938,132.772,79.623z"/>
<path opacity="0.5" fill="#FDFDFE" d="M198.129,65.481c0.164-0.799,1.755-2.12,2.435-2.569c2.323-1.532,8.619-1.196,11.132,0
	c2.989,1.423,7.256,6.32,8.671,9.313c1.261,2.667,0.026,10.363,2.034,12.524c2.422,2.606,10.941,1.609,13.702,3.854
	c1.17,0.951,2.425,3.887,2.783,5.352c0.648,2.652-1.764,8.836,0,10.918c1.052,1.242,3.347,1.799,4.973,1.873
	c1.766,0.08,3.565-1.257,4.019-0.803c0.568,0.568,0.505,2.587,0,3.211c-0.646,0.798-2.992,0.892-4.019,0.856
	c-2.128-0.075-6.438-1.192-7.756-2.863c-3.292-4.175-0.273-9.689-1.26-12.481c-0.297-0.84-0.777-1.971-1.469-2.532
	c-2.802-2.274-11.981-1.709-14.397-4.389c-2.226-2.468-1.531-10.827-2.944-13.835c-1.061-2.258-4.095-5.91-6.262-7.145
	c-1.68-0.957-5.876-1.264-7.707-0.642c-0.706,0.24-2.047,1.19-2.783,1.07C198.126,67.006,198.064,65.795,198.129,65.481z"/>
<path opacity="0.5" fill="#FDFDFE" d="M5.18,75.76c0.164-0.799,1.755-2.12,2.435-2.569c2.323-1.532,8.619-1.196,11.132,0
	c2.989,1.423,7.256,6.32,8.67,9.313c1.261,2.667,0.026,10.363,2.034,12.524c2.422,2.606,10.941,1.609,13.702,3.854
	c1.17,0.951,2.425,3.887,2.783,5.352c0.648,2.652-1.764,8.836,0,10.918c1.052,1.242,3.347,1.799,4.973,1.873
	c1.766,0.08,3.565-1.257,4.019-0.803c0.568,0.568,0.505,2.587,0,3.211c-0.646,0.798-2.992,0.892-4.019,0.856
	c-2.128-0.075-6.438-1.192-7.756-2.863c-3.292-4.175-0.273-9.689-1.26-12.481c-0.297-0.84-0.777-1.971-1.469-2.532
	c-2.802-2.274-11.981-1.709-14.397-4.389c-2.226-2.468-1.531-10.827-2.944-13.835c-1.061-2.258-4.095-5.91-6.262-7.145
	c-1.68-0.957-5.876-1.264-7.707-0.642c-0.706,0.24-2.047,1.19-2.783,1.07C5.176,77.285,5.115,76.074,5.18,75.76z"/>
<path opacity="0.5" fill="#FDFDFE" d="M64.674,129.984c0.164-0.799,1.755-2.12,2.435-2.569c2.323-1.532,8.619-1.196,11.132,0
	c2.989,1.423,7.256,6.32,8.67,9.313c1.261,2.667,0.026,10.363,2.034,12.524c2.422,2.606,10.941,1.609,13.702,3.854
	c1.17,0.951,2.425,3.887,2.783,5.352c0.648,2.652-1.764,8.836,0,10.918c1.052,1.242,3.347,1.799,4.973,1.873
	c1.766,0.08,3.565-1.257,4.019-0.803c0.568,0.568,0.505,2.587,0,3.211c-0.646,0.798-2.992,0.892-4.019,0.856
	c-2.128-0.075-6.438-1.192-7.756-2.863c-3.292-4.175-0.273-9.689-1.26-12.481c-0.297-0.84-0.777-1.971-1.469-2.532
	c-2.802-2.274-11.981-1.709-14.397-4.389c-2.226-2.468-1.531-10.827-2.944-13.835c-1.061-2.258-4.095-5.91-6.262-7.145
	c-1.68-0.957-5.876-1.264-7.707-0.642c-0.706,0.24-2.047,1.19-2.783,1.07C64.67,131.509,64.609,130.299,64.674,129.984z"/>
<path opacity="0.5" fill="#FDFDFE" d="M127.581,141.012c0.164-0.799,1.755-2.12,2.435-2.569c2.323-1.532,8.62-1.196,11.132,0
	c2.989,1.423,7.256,6.32,8.67,9.313c1.261,2.667,0.026,10.363,2.034,12.524c2.422,2.606,10.941,1.609,13.702,3.854
	c1.17,0.951,2.425,3.887,2.783,5.352c0.648,2.652-1.764,8.836,0,10.918c1.052,1.242,3.347,1.799,4.973,1.873
	c1.766,0.08,3.565-1.257,4.019-0.803c0.568,0.568,0.505,2.587,0,3.211c-0.646,0.798-2.992,0.892-4.019,0.856
	c-2.128-0.075-6.438-1.192-7.756-2.863c-3.292-4.175-0.273-9.689-1.26-12.481c-0.297-0.84-0.777-1.971-1.469-2.532
	c-2.802-2.274-11.981-1.709-14.397-4.389c-2.226-2.468-1.531-10.827-2.944-13.835c-1.061-2.258-4.094-5.91-6.262-7.145
	c-1.68-0.957-5.876-1.264-7.707-0.642c-0.706,0.24-2.047,1.19-2.783,1.07C127.578,142.537,127.516,141.326,127.581,141.012z"/>
<path opacity="0.5" fill="#FDFDFE" d="M192.937,130.869c0.164-0.799,1.755-2.12,2.435-2.569c2.323-1.532,8.619-1.196,11.132,0
	c2.989,1.423,7.256,6.32,8.67,9.313c1.261,2.667,0.026,10.363,2.034,12.524c2.422,2.606,10.941,1.609,13.702,3.854
	c1.17,0.951,2.425,3.887,2.783,5.352c0.648,2.652-1.764,8.836,0,10.918c1.052,1.242,3.347,1.799,4.973,1.873
	c1.766,0.08,3.565-1.257,4.019-0.803c0.568,0.568,0.505,2.587,0,3.211c-0.646,0.798-2.992,0.892-4.019,0.856
	c-2.128-0.075-6.438-1.192-7.756-2.863c-3.292-4.175-0.273-9.689-1.26-12.481c-0.297-0.84-0.777-1.971-1.469-2.532
	c-2.802-2.274-11.981-1.709-14.397-4.389c-2.226-2.468-1.531-10.827-2.944-13.835c-1.061-2.258-4.095-5.91-6.262-7.145
	c-1.68-0.957-5.876-1.264-7.707-0.642c-0.706,0.24-2.047,1.19-2.783,1.07C192.934,132.394,192.873,131.184,192.937,130.869z"/>
<path opacity="0.5" fill="#FDFDFE" d="M-0.012,141.148c0.164-0.799,1.755-2.12,2.435-2.569c2.323-1.532,8.619-1.196,11.132,0
	c2.989,1.423,7.256,6.32,8.67,9.313c1.261,2.667,0.026,10.363,2.034,12.524c2.422,2.606,10.941,1.609,13.702,3.854
	c1.17,0.951,2.425,3.887,2.783,5.352c0.648,2.652-1.764,8.836,0,10.918c1.052,1.242,3.347,1.799,4.973,1.873
	c1.766,0.08,3.565-1.257,4.019-0.803c0.568,0.568,0.505,2.587,0,3.211c-0.646,0.798-2.992,0.892-4.019,0.856
	c-2.128-0.075-6.438-1.192-7.756-2.863c-3.292-4.175-0.273-9.689-1.26-12.481c-0.297-0.84-0.777-1.971-1.469-2.532
	c-2.802-2.274-11.981-1.709-14.397-4.389c-2.226-2.468-1.531-10.827-2.944-13.835c-1.061-2.258-4.095-5.91-6.262-7.145
	c-1.68-0.957-5.876-1.264-7.707-0.642c-0.706,0.24-2.047,1.19-2.783,1.07C-0.015,142.673-0.077,141.462-0.012,141.148z"/>
<path opacity="0.5" fill="#FDFDFE" d="M69.674,190.984c0.164-0.799,1.755-2.12,2.435-2.569c2.323-1.532,8.619-1.196,11.132,0
	c2.989,1.423,7.256,6.32,8.67,9.313c1.261,2.667,0.026,10.363,2.034,12.524c2.422,2.606,10.941,1.609,13.702,3.854
	c1.17,0.951,2.425,3.887,2.783,5.352c0.648,2.652-1.764,8.836,0,10.918c1.052,1.242,3.347,1.799,4.973,1.873
	c1.766,0.08,3.565-1.257,4.019-0.803c0.568,0.568,0.505,2.587,0,3.211c-0.646,0.798-2.992,0.892-4.019,0.856
	c-2.128-0.075-6.438-1.192-7.756-2.863c-3.292-4.175-0.273-9.689-1.26-12.481c-0.297-0.84-0.777-1.971-1.469-2.532
	c-2.802-2.274-11.981-1.709-14.397-4.389c-2.226-2.468-1.531-10.827-2.944-13.835c-1.061-2.258-4.095-5.91-6.262-7.145
	c-1.68-0.957-5.876-1.264-7.707-0.642c-0.706,0.24-2.047,1.19-2.783,1.07C69.67,192.509,69.609,191.299,69.674,190.984z"/>
<path opacity="0.5" fill="#FDFDFE" d="M132.581,206.012c0.164-0.799,1.755-2.12,2.435-2.569c2.323-1.532,8.62-1.196,11.132,0
	c2.989,1.423,7.256,6.32,8.67,9.313c1.261,2.667,0.026,10.363,2.034,12.524c2.422,2.606,10.941,1.609,13.702,3.854
	c1.17,0.951,2.425,3.887,2.783,5.352c0.648,2.652-1.764,8.836,0,10.918c1.052,1.242,3.347,1.799,4.973,1.873
	c1.766,0.08,3.565-1.257,4.019-0.803c0.568,0.568,0.505,2.587,0,3.211c-0.646,0.798-2.992,0.892-4.019,0.856
	c-2.128-0.075-6.438-1.192-7.756-2.863c-3.292-4.175-0.273-9.689-1.26-12.481c-0.297-0.84-0.777-1.971-1.469-2.532
	c-2.802-2.274-11.981-1.709-14.397-4.389c-2.226-2.468-1.531-10.827-2.944-13.835c-1.061-2.258-4.094-5.91-6.262-7.145
	c-1.68-0.957-5.876-1.264-7.707-0.642c-0.706,0.24-2.047,1.19-2.783,1.07C132.578,207.537,132.516,206.326,132.581,206.012z"/>
<path opacity="0.5" fill="#FDFDFE" d="M197.937,191.869c0.164-0.799,1.755-2.12,2.435-2.569c2.323-1.532,8.619-1.196,11.132,0
	c2.989,1.423,7.256,6.32,8.67,9.313c1.261,2.667,0.026,10.363,2.034,12.524c2.422,2.606,10.941,1.609,13.702,3.854
	c1.17,0.951,2.425,3.887,2.783,5.352c0.648,2.652-1.764,8.836,0,10.918c1.052,1.242,3.347,1.799,4.973,1.873
	c1.766,0.08,3.565-1.257,4.019-0.803c0.568,0.568,0.505,2.587,0,3.211c-0.646,0.798-2.992,0.892-4.019,0.856
	c-2.128-0.075-6.438-1.192-7.756-2.863c-3.292-4.175-0.273-9.689-1.26-12.481c-0.297-0.84-0.777-1.971-1.469-2.532
	c-2.802-2.274-11.981-1.709-14.397-4.389c-2.226-2.468-1.531-10.827-2.944-13.835c-1.061-2.258-4.095-5.91-6.262-7.145
	c-1.68-0.957-5.876-1.264-7.707-0.642c-0.706,0.24-2.047,1.19-2.783,1.07C197.934,193.394,197.873,192.184,197.937,191.869z"/>
<path opacity="0.5" fill="#FDFDFE" d="M4.988,202.148c0.164-0.799,1.755-2.12,2.435-2.569c2.323-1.532,8.619-1.196,11.132,0
	c2.989,1.423,7.256,6.32,8.67,9.313c1.261,2.667,0.026,10.363,2.034,12.524c2.422,2.606,10.941,1.609,13.702,3.854
	c1.17,0.951,2.425,3.887,2.783,5.352c0.648,2.652-1.764,8.836,0,10.918c1.052,1.242,3.347,1.799,4.973,1.873
	c1.766,0.08,3.565-1.257,4.019-0.803c0.568,0.568,0.505,2.587,0,3.211c-0.646,0.798-2.992,0.892-4.019,0.856
	c-2.128-0.075-6.438-1.192-7.756-2.863c-3.292-4.175-0.273-9.689-1.26-12.481c-0.297-0.84-0.777-1.971-1.469-2.532
	c-2.802-2.274-11.981-1.709-14.397-4.389c-2.226-2.468-1.531-10.827-2.944-13.835c-1.061-2.258-4.095-5.91-6.262-7.145
	c-1.68-0.957-5.876-1.264-7.707-0.642c-0.706,0.24-2.047,1.19-2.783,1.07C4.985,203.673,4.923,202.462,4.988,202.148z"/>
</svg>
