<?xml version="1.0" encoding="utf-8"?>
<!-- Generator: Adobe Illustrator 17.0.0, SVG Export Plug-In . SVG Version: 6.00 Build 0)  -->
<!DOCTYPE svg PUBLIC "-//W3C//DTD SVG 1.1//EN" "http://www.w3.org/Graphics/SVG/1.1/DTD/svg11.dtd">
<svg version="1.1" id="Layer_1" xmlns="http://www.w3.org/2000/svg" xmlns:xlink="http://www.w3.org/1999/xlink" x="0px" y="0px"
	 width="256px" height="256px" viewBox="0 0 256 256" enable-background="new 0 0 256 256" xml:space="preserve">
<rect x="5.799" y="5.038" opacity="0.15" fill="#FFFFFF" width="13.19" height="13.19"/>
<rect x="31.635" y="30.574" opacity="0.15" fill="#FFFFFF" width="13.19" height="13.19"/>
<rect x="56.943" y="56.212" opacity="0.15" fill="#FFFFFF" width="13.19" height="13.19"/>
<rect x="82.993" y="82.262" opacity="0.15" fill="#FFFFFF" width="13.19" height="13.19"/>
<rect x="108.548" y="108.147" opacity="0.15" fill="#FFFFFF" width="13.19" height="13.19"/>
<rect x="134.351" y="133.619" opacity="0.15" fill="#FFFFFF" width="13.19" height="13.19"/>
<rect x="159.989" y="159.834" opacity="0.15" fill="#FFFFFF" width="13.19" height="13.19"/>
<rect x="185.791" y="185.802" opacity="0.15" fill="#FFFFFF" width="13.19" height="13.19"/>
<rect x="211.429" y="211.522" opacity="0.15" fill="#FFFFFF" width="13.19" height="13.19"/>
<rect x="237.891" y="237.407" opacity="0.15" fill="#FFFFFF" width="13.19" height="13.19"/>
<rect x="31.643" y="4.667" transform="matrix(0.9848 0.1736 -0.1736 0.9848 2.5351 -6.4659)" opacity="0.15" fill="#FFFFFF" width="13.19" height="13.19"/>
<rect x="31.767" y="56.108" transform="matrix(0.9848 0.1736 -0.1736 0.9848 11.4653 -5.7066)" opacity="0.15" fill="#FFFFFF" width="13.19" height="13.19"/>
<rect x="83.083" y="56.479" transform="matrix(0.9848 0.1736 -0.1736 0.9848 12.3086 -14.6079)" opacity="0.15" fill="#FFFFFF" width="13.19" height="13.19"/>
<rect x="57.611" y="4.75" transform="matrix(0.9493 0.3142 -0.3142 0.9493 6.8172 -19.6009)" opacity="0.15" fill="#FFFFFF" width="13.19" height="13.19"/>
<rect x="83.001" y="30.387" transform="matrix(0.9493 0.3142 -0.3142 0.9493 16.1596 -26.2808)" opacity="0.15" fill="#FFFFFF" width="13.19" height="13.19"/>
<rect x="82.836" y="4.667" transform="matrix(0.8685 0.4957 -0.4957 0.8685 17.3453 -42.8524)" opacity="0.15" fill="#FFFFFF" width="13.19" height="13.19"/>
<rect x="108.968" y="56.272" transform="matrix(0.9493 0.3142 -0.3142 0.9493 25.6089 -33.1295)" opacity="0.15" fill="#FFFFFF" width="13.19" height="13.19"/>
<rect x="108.804" y="30.387" transform="matrix(0.858 0.5137 -0.5137 0.858 35.388 -54.0277)" opacity="0.15" fill="#FFFFFF" width="13.19" height="13.19"/>
<rect x="108.804" y="4.667" transform="matrix(0.7852 0.6192 -0.6192 0.7852 31.7618 -69.0407)" opacity="0.15" fill="#FFFFFF" width="13.19" height="13.19"/>
<rect x="134.524" y="4.75" transform="matrix(0.6255 0.7803 -0.7803 0.6255 61.7074 -105.8604)" opacity="0.15" fill="#FFFFFF" width="13.19" height="13.19"/>
<rect x="160.161" y="4.915" transform="matrix(0.5041 0.8637 -0.8637 0.5041 92.6363 -138.3116)" opacity="0.15" fill="#FFFFFF" width="13.19" height="13.19"/>
<rect x="185.634" y="4.832" transform="matrix(0.2533 0.9674 -0.9674 0.2533 154.6012 -177.4294)" opacity="0.15" fill="#FFFFFF" width="13.19" height="13.19"/>
<rect x="211.684" y="4.667" transform="matrix(0.1729 0.9849 -0.9849 0.1729 191.6381 -205.6775)" opacity="0.15" fill="#FFFFFF" width="13.19" height="13.19"/>
<rect x="108.309" y="81.951" transform="matrix(0.9848 0.1736 -0.1736 0.9848 17.1127 -18.5996)" opacity="0.15" fill="#FFFFFF" width="13.19" height="13.19"/>
<rect x="134.194" y="81.993" transform="matrix(0.9493 0.3142 -0.3142 0.9493 34.9689 -39.7534)" opacity="0.15" fill="#FFFFFF" width="13.19" height="13.19"/>
<rect x="134.276" y="30.635" transform="matrix(0.7852 0.6192 -0.6192 0.7852 53.3136 -79.2367)" opacity="0.15" fill="#FFFFFF" width="13.19" height="13.19"/>
<rect x="185.882" y="30.635" transform="matrix(0.5041 0.8637 -0.8637 0.5041 127.6044 -147.7699)" opacity="0.15" fill="#FFFFFF" width="13.19" height="13.19"/>
<rect x="211.849" y="56.602" transform="matrix(0.5041 0.8637 -0.8637 0.5041 162.9087 -157.3193)" opacity="0.15" fill="#FFFFFF" width="13.19" height="13.19"/>
<rect x="237.569" y="82.322" transform="matrix(0.5041 0.8637 -0.8637 0.5041 197.8768 -166.7776)" opacity="0.15" fill="#FFFFFF" width="13.19" height="13.19"/>
<rect x="57.24" y="30.882" transform="matrix(0.9848 0.1736 -0.1736 0.9848 7.4736 -10.5107)" opacity="0.15" fill="#FFFFFF" width="13.19" height="13.19"/>
<rect x="5.552" y="30.387" transform="matrix(0.9848 0.1736 -0.1736 0.9848 6.6033 -1.547)" opacity="0.15" fill="#FFFFFF" width="13.19" height="13.19"/>
<rect x="57.24" y="82.075" transform="matrix(0.9848 0.1736 -0.1736 0.9848 16.3591 -9.7337)" opacity="0.15" fill="#FFFFFF" width="13.19" height="13.19"/>
<rect x="31.643" y="82.157" transform="matrix(0.9493 0.3142 -0.3142 0.9493 29.826 -7.52)" opacity="0.15" fill="#FFFFFF" width="13.19" height="13.19"/>
<rect x="31.89" y="108.042" transform="matrix(0.8685 0.4957 -0.4957 0.8685 61.8909 -4.0008)" opacity="0.15" fill="#FFFFFF" width="13.19" height="13.19"/>
<rect x="82.465" y="108.537" transform="matrix(0.9848 0.1736 -0.1736 0.9848 21.3349 -13.7104)" opacity="0.15" fill="#FFFFFF" width="13.19" height="13.19"/>
<rect x="5.923" y="82.075" transform="matrix(0.8685 0.4957 -0.4957 0.8685 45.6027 5.4567)" opacity="0.15" fill="#FFFFFF" width="13.19" height="13.19"/>
<rect x="108.433" y="134.01" transform="matrix(0.9848 0.1736 -0.1736 0.9848 26.1502 -17.8309)" opacity="0.15" fill="#FFFFFF" width="13.19" height="13.19"/>
<rect x="134.153" y="160.225" transform="matrix(0.9848 0.1736 -0.1736 0.9848 31.0906 -21.8972)" opacity="0.15" fill="#FFFFFF" width="13.19" height="13.19"/>
<rect x="160.12" y="185.698" transform="matrix(0.9848 0.1736 -0.1736 0.9848 35.906 -26.0176)" opacity="0.15" fill="#FFFFFF" width="13.19" height="13.19"/>
<rect x="57.363" y="108.125" transform="matrix(0.9493 0.3142 -0.3142 0.9493 39.2887 -14.2868)" opacity="0.15" fill="#FFFFFF" width="13.19" height="13.19"/>
<rect x="83.083" y="133.845" transform="matrix(0.9493 0.3142 -0.3142 0.9493 48.6737 -21.0661)" opacity="0.15" fill="#FFFFFF" width="13.19" height="13.19"/>
<rect x="108.804" y="159.812" transform="matrix(0.9493 0.3142 -0.3142 0.9493 58.1365 -27.8329)" opacity="0.15" fill="#FFFFFF" width="13.19" height="13.19"/>
<rect x="134.524" y="185.533" transform="matrix(0.9493 0.3142 -0.3142 0.9493 67.5215 -34.6122)" opacity="0.15" fill="#FFFFFF" width="13.19" height="13.19"/>
<rect x="160.244" y="211.5" transform="matrix(0.9493 0.3142 -0.3142 0.9493 76.9842 -41.379)" opacity="0.15" fill="#FFFFFF" width="13.19" height="13.19"/>
<rect x="185.469" y="236.973" transform="matrix(0.9493 0.3142 -0.3142 0.9493 86.2664 -48.0154)" opacity="0.15" fill="#FFFFFF" width="13.19" height="13.19"/>
<rect x="5.841" y="56.108" transform="matrix(0.9493 0.3142 -0.3142 0.9493 20.3332 -0.7315)" opacity="0.15" fill="#FFFFFF" width="13.19" height="13.19"/>
<rect x="159.997" y="30.717" transform="matrix(0.6255 0.7803 -0.7803 0.6255 91.5096 -116.0099)" opacity="0.15" fill="#FFFFFF" width="13.19" height="13.19"/>
<rect x="186.211" y="56.19" transform="matrix(0.6255 0.7803 -0.7803 0.6255 121.2038 -126.9235)" opacity="0.15" fill="#FFFFFF" width="13.19" height="13.19"/>
<rect x="211.684" y="82.157" transform="matrix(0.6255 0.7803 -0.7803 0.6255 151.006 -137.0729)" opacity="0.15" fill="#FFFFFF" width="13.19" height="13.19"/>
<rect x="237.404" y="107.878" transform="matrix(0.6255 0.7803 -0.7803 0.6255 180.7079 -147.508)" opacity="0.15" fill="#FFFFFF" width="13.19" height="13.19"/>
<rect x="237.237" y="30.678" transform="matrix(0.132 0.9913 -0.9913 0.132 248.5973 -209.3455)" opacity="0.15" fill="#FFFFFF" width="13.19" height="13.19"/>
<rect x="211.517" y="30.513" transform="matrix(0.3917 0.9201 -0.9201 0.3917 166.8109 -178.1082)" opacity="0.15" fill="#FFFFFF" width="13.19" height="13.19"/>
<rect x="237.402" y="56.151" transform="matrix(0.3276 0.9448 -0.9448 0.3276 223.3441 -188.3419)" opacity="0.15" fill="#FFFFFF" width="13.19" height="13.19"/>
<rect x="160.286" y="56.684" transform="matrix(0.7852 0.6192 -0.6192 0.7852 75.0312 -89.7479)" opacity="0.15" fill="#FFFFFF" width="13.19" height="13.19"/>
<rect x="185.759" y="82.651" transform="matrix(0.7852 0.6192 -0.6192 0.7852 96.583 -99.944)" opacity="0.15" fill="#FFFFFF" width="13.19" height="13.19"/>
<rect x="212.014" y="108.042" transform="matrix(0.7852 0.6192 -0.6192 0.7852 117.9459 -110.7479)" opacity="0.15" fill="#FFFFFF" width="13.19" height="13.19"/>
<rect x="237.487" y="134.01" transform="matrix(0.7852 0.6192 -0.6192 0.7852 139.4977 -120.944)" opacity="0.15" fill="#FFFFFF" width="13.19" height="13.19"/>
<rect x="134.524" y="56.355" transform="matrix(0.8685 0.4957 -0.4957 0.8685 49.7665 -61.6774)" opacity="0.15" fill="#FFFFFF" width="13.19" height="13.19"/>
<rect x="160.491" y="82.075" transform="matrix(0.858 0.5137 -0.5137 0.858 69.2812 -73.2384)" opacity="0.15" fill="#FFFFFF" width="13.19" height="13.19"/>
<rect x="185.964" y="108.042" transform="matrix(0.8685 0.4957 -0.4957 0.8685 82.1552 -80.3798)" opacity="0.15" fill="#FFFFFF" width="13.19" height="13.19"/>
<rect x="211.931" y="133.763" transform="matrix(0.858 0.5137 -0.5137 0.858 103.1392 -92.3221)" opacity="0.15" fill="#FFFFFF" width="13.19" height="13.19"/>
<rect x="237.652" y="159.73" transform="matrix(0.8685 0.4957 -0.4957 0.8685 114.5764 -99.2047)" opacity="0.15" fill="#FFFFFF" width="13.19" height="13.19"/>
<rect x="159.749" y="108.372" transform="matrix(0.9493 0.3142 -0.3142 0.9493 44.5528 -46.4475)" opacity="0.15" fill="#FFFFFF" width="13.19" height="13.19"/>
<rect x="185.14" y="134.01" transform="matrix(0.9493 0.3142 -0.3142 0.9493 53.8952 -53.1274)" opacity="0.15" fill="#FFFFFF" width="13.19" height="13.19"/>
<rect x="211.107" y="159.895" transform="matrix(0.9493 0.3142 -0.3142 0.9493 63.3445 -59.976)" opacity="0.15" fill="#FFFFFF" width="13.19" height="13.19"/>
<rect x="236.333" y="185.615" transform="matrix(0.9493 0.3142 -0.3142 0.9493 72.7045 -66.5999)" opacity="0.15" fill="#FFFFFF" width="13.19" height="13.19"/>
<rect x="134.276" y="108.29" transform="matrix(0.9848 0.1736 -0.1736 0.9848 22.0783 -22.7069)" opacity="0.15" fill="#FFFFFF" width="13.19" height="13.19"/>
<rect x="185.717" y="160.101" transform="matrix(0.9848 0.1736 -0.1736 0.9848 31.8518 -30.8489)" opacity="0.15" fill="#FFFFFF" width="13.19" height="13.19"/>
<rect x="210.942" y="185.574" transform="matrix(0.9848 0.1736 -0.1736 0.9848 36.6559 -34.8405)" opacity="0.15" fill="#FFFFFF" width="13.19" height="13.19"/>
<rect x="159.873" y="134.505" transform="matrix(0.9848 0.1736 -0.1736 0.9848 27.0169 -26.7517)" opacity="0.15" fill="#FFFFFF" width="13.19" height="13.19"/>
<rect x="237.652" y="211.294" transform="matrix(0.9848 0.1736 -0.1736 0.9848 41.5255 -39.086)" opacity="0.15" fill="#FFFFFF" width="13.19" height="13.19"/>
<rect x="185.84" y="211.665" transform="matrix(0.9848 0.1736 -0.1736 0.9848 40.8035 -30.0877)" opacity="0.15" fill="#FFFFFF" width="13.19" height="13.19"/>
<rect x="211.808" y="237.138" transform="matrix(0.9848 0.1736 -0.1736 0.9848 45.6189 -34.2081)" opacity="0.15" fill="#FFFFFF" width="13.19" height="13.19"/>
<rect x="82.717" y="159.854" transform="matrix(0.8685 0.4957 -0.4957 0.8685 94.2604 -22.3829)" opacity="0.15" fill="#FFFFFF" width="13.19" height="13.19"/>
<rect x="56.75" y="133.887" transform="matrix(0.8685 0.4957 -0.4957 0.8685 77.9723 -12.9254)" opacity="0.15" fill="#FFFFFF" width="13.19" height="13.19"/>
<rect x="134.527" y="211.664" transform="matrix(0.8685 0.4957 -0.4957 0.8685 126.7581 -41.2521)" opacity="0.15" fill="#FFFFFF" width="13.19" height="13.19"/>
<rect x="108.559" y="185.696" transform="matrix(0.8685 0.4957 -0.4957 0.8685 110.4699 -31.7946)" opacity="0.15" fill="#FFFFFF" width="13.19" height="13.19"/>
<rect x="159.752" y="236.889" transform="matrix(0.8685 0.4957 -0.4957 0.8685 142.5806 -50.4392)" opacity="0.15" fill="#FFFFFF" width="13.19" height="13.19"/>
<rect x="5.799" y="107.795" transform="matrix(0.7852 0.6192 -0.6192 0.7852 73.4976 16.8961)" opacity="0.15" fill="#FFFFFF" width="13.19" height="13.19"/>
<rect x="31.272" y="133.763" transform="matrix(0.7852 0.6192 -0.6192 0.7852 95.0494 6.7)" opacity="0.15" fill="#FFFFFF" width="13.19" height="13.19"/>
<rect x="57.282" y="159.812" transform="matrix(0.7852 0.6192 -0.6192 0.7852 116.7671 -3.8111)" opacity="0.15" fill="#FFFFFF" width="13.19" height="13.19"/>
<rect x="82.755" y="185.779" transform="matrix(0.7852 0.6192 -0.6192 0.7852 138.3189 -14.0072)" opacity="0.15" fill="#FFFFFF" width="13.19" height="13.19"/>
<rect x="109.01" y="211.17" transform="matrix(0.7852 0.6192 -0.6192 0.7852 159.6818 -24.8111)" opacity="0.15" fill="#FFFFFF" width="13.19" height="13.19"/>
<rect x="134.482" y="237.138" transform="matrix(0.7852 0.6192 -0.6192 0.7852 181.2336 -35.0072)" opacity="0.15" fill="#FFFFFF" width="13.19" height="13.19"/>
<rect x="5.964" y="159.689" transform="matrix(0.5041 0.8637 -0.8637 0.5041 149.8393 71.6151)" opacity="0.15" fill="#FFFFFF" width="13.19" height="13.19"/>
<rect x="31.684" y="185.409" transform="matrix(0.5041 0.8637 -0.8637 0.5041 184.8074 62.1567)" opacity="0.15" fill="#FFFFFF" width="13.19" height="13.19"/>
<rect x="57.652" y="211.376" transform="matrix(0.5041 0.8637 -0.8637 0.5041 220.1118 52.6074)" opacity="0.15" fill="#FFFFFF" width="13.19" height="13.19"/>
<rect x="83.372" y="237.097" transform="matrix(0.5041 0.8637 -0.8637 0.5041 255.0798 43.1491)" opacity="0.15" fill="#FFFFFF" width="13.19" height="13.19"/>
<rect x="5.676" y="134.587" transform="matrix(0.6255 0.7803 -0.7803 0.6255 114.7548 43.3051)" opacity="0.15" fill="#FFFFFF" width="13.19" height="13.19"/>
<rect x="31.148" y="160.554" transform="matrix(0.6255 0.7803 -0.7803 0.6255 144.557 33.1556)" opacity="0.15" fill="#FFFFFF" width="13.19" height="13.19"/>
<rect x="57.363" y="186.027" transform="matrix(0.6255 0.7803 -0.7803 0.6255 174.2512 22.242)" opacity="0.15" fill="#FFFFFF" width="13.19" height="13.19"/>
<rect x="82.836" y="211.995" transform="matrix(0.6255 0.7803 -0.7803 0.6255 204.0534 12.0926)" opacity="0.15" fill="#FFFFFF" width="13.19" height="13.19"/>
<rect x="108.556" y="237.715" transform="matrix(0.6255 0.7803 -0.7803 0.6255 233.7553 1.6576)" opacity="0.15" fill="#FFFFFF" width="13.19" height="13.19"/>
<rect x="5.67" y="186.088" transform="matrix(0.3368 0.9416 -0.9416 0.3368 189.5561 116.2303)" opacity="0.15" fill="#FFFFFF" width="13.19" height="13.19"/>
<rect x="31.668" y="211.644" transform="matrix(0.3368 0.9416 -0.9416 0.3368 230.8591 108.6989)" opacity="0.15" fill="#FFFFFF" width="13.19" height="13.19"/>
<rect x="57.369" y="237.654" transform="matrix(0.3368 0.9416 -0.9416 0.3368 272.3922 101.7478)" opacity="0.15" fill="#FFFFFF" width="13.19" height="13.19"/>
<rect x="6.418" y="211.912" transform="matrix(0.1729 0.9849 -0.9849 0.1729 225.9806 167.9176)" opacity="0.15" fill="#FFFFFF" width="13.19" height="13.19"/>
<rect x="31.971" y="237.923" transform="matrix(0.132 0.9913 -0.9913 0.132 275.8545 174.0175)" opacity="0.15" fill="#FFFFFF" width="13.19" height="13.19"/>
<rect x="5.799" y="237.509" opacity="0.15" fill="#FFFFFF" width="13.19" height="13.19"/>
<rect x="237.445" y="4.873" opacity="0.15" fill="#FFFFFF" width="13.19" height="13.19"/>
</svg>
