<?xml version="1.0" encoding="utf-8"?>
<!-- Generator: Adobe Illustrator 17.0.0, SVG Export Plug-In . SVG Version: 6.00 Build 0)  -->
<!DOCTYPE svg PUBLIC "-//W3C//DTD SVG 1.1//EN" "http://www.w3.org/Graphics/SVG/1.1/DTD/svg11.dtd">
<svg version="1.1" id="Layer_1" xmlns="http://www.w3.org/2000/svg" xmlns:xlink="http://www.w3.org/1999/xlink" x="0px" y="0px"
	 width="256px" height="256px" viewBox="0 0 256 256" enable-background="new 0 0 256 256" xml:space="preserve">
<path opacity="0.4" fill="none" stroke="#FFFFFF" stroke-miterlimit="10" d="M256,199.024c-32.746,0-59.293-31.814-59.293-71.059
	S223.254,56.906,256,56.906"/>
<path opacity="0.4" fill="none" stroke="#FFFFFF" stroke-miterlimit="10" d="M256,184.355c-25.986,0-47.053-25.247-47.053-56.39
	s21.066-56.39,47.053-56.39"/>
<path opacity="0.4" fill="none" stroke="#FFFFFF" stroke-miterlimit="10" d="M256,168.338c-18.605,0-33.688-18.076-33.688-40.373
	S237.395,87.592,256,87.592"/>
<path opacity="0.4" fill="none" stroke="#FFFFFF" stroke-miterlimit="10" d="M256,148.816c-9.609,0-17.398-9.335-17.398-20.851
	s7.79-20.851,17.398-20.851"/>
<path opacity="0.4" fill="none" stroke="#FFFFFF" stroke-miterlimit="10" d="M121.879,0c0,36.666-26.546,66.389-59.293,66.389
	S3.294,36.666,3.294,0"/>
<path opacity="0.4" fill="none" stroke="#FFFFFF" stroke-miterlimit="10" d="M109.639,0c0,29.097-21.066,52.684-47.053,52.684
	S15.534,29.097,15.534,0"/>
<path opacity="0.4" fill="none" stroke="#FFFFFF" stroke-miterlimit="10" d="M96.275,0c0,20.832-15.083,37.72-33.688,37.72
	S28.898,20.832,28.898,0"/>
<path opacity="0.4" fill="none" stroke="#FFFFFF" stroke-miterlimit="10" d="M79.985,0c0,10.759-7.79,19.481-17.398,19.481
	S45.188,10.759,45.188,0"/>
<path opacity="0.4" fill="none" stroke="#FFFFFF" stroke-miterlimit="10" d="M252.119,0c0,36.666-26.546,66.389-59.293,66.389
	S133.534,36.666,133.534,0"/>
<path opacity="0.4" fill="none" stroke="#FFFFFF" stroke-miterlimit="10" d="M239.879,0c0,29.097-21.066,52.684-47.053,52.684
	S145.774,29.097,145.774,0"/>
<path opacity="0.4" fill="none" stroke="#FFFFFF" stroke-miterlimit="10" d="M226.515,0c0,20.832-15.083,37.72-33.688,37.72
	S159.138,20.832,159.138,0"/>
<path opacity="0.4" fill="none" stroke="#FFFFFF" stroke-miterlimit="10" d="M210.225,0c0,10.759-7.79,19.481-17.398,19.481
	c-9.609,0-17.398-8.722-17.398-19.481"/>
<ellipse opacity="0.4" fill="none" stroke="#FFFFFF" stroke-miterlimit="10" cx="128" cy="127.978" rx="59.293" ry="71.059"/>
<ellipse opacity="0.4" fill="none" stroke="#FFFFFF" stroke-miterlimit="10" cx="128" cy="127.978" rx="47.053" ry="56.39"/>
<ellipse opacity="0.4" fill="none" stroke="#FFFFFF" stroke-miterlimit="10" cx="128" cy="127.978" rx="33.688" ry="40.373"/>
<ellipse opacity="0.4" fill="none" stroke="#FFFFFF" stroke-miterlimit="10" cx="128" cy="127.978" rx="17.398" ry="20.851"/>
<path opacity="0.4" fill="none" stroke="#FFFFFF" stroke-miterlimit="10" d="M0,56.92c32.746,0,59.293,31.814,59.293,71.059
	S32.746,199.037,0,199.037"/>
<path opacity="0.4" fill="none" stroke="#FFFFFF" stroke-miterlimit="10" d="M0,71.589c25.986,0,47.053,25.247,47.053,56.39
	S25.986,184.368,0,184.368"/>
<path opacity="0.4" fill="none" stroke="#FFFFFF" stroke-miterlimit="10" d="M0,87.605c18.605,0,33.688,18.076,33.688,40.373
	S18.605,168.352,0,168.352"/>
<path opacity="0.4" fill="none" stroke="#FFFFFF" stroke-miterlimit="10" d="M0,107.127c9.609,0,17.398,9.335,17.398,20.851
	c0,11.516-7.79,20.851-17.398,20.851"/>
<path opacity="0.4" fill="none" stroke="#FFFFFF" stroke-miterlimit="10" d="M3.587,256c0-36.626,26.546-66.317,59.293-66.317
	s59.293,29.691,59.293,66.317"/>
<path opacity="0.4" fill="none" stroke="#FFFFFF" stroke-miterlimit="10" d="M15.827,256c0-29.065,21.066-52.627,47.053-52.627
	s47.053,23.562,47.053,52.627"/>
<path opacity="0.4" fill="none" stroke="#FFFFFF" stroke-miterlimit="10" d="M29.192,256c0-20.81,15.083-37.679,33.688-37.679
	S96.568,235.19,96.568,256"/>
<path opacity="0.4" fill="none" stroke="#FFFFFF" stroke-miterlimit="10" d="M45.482,256c0-10.747,7.79-19.46,17.398-19.46
	s17.398,8.712,17.398,19.46"/>
<path opacity="0.4" fill="none" stroke="#FFFFFF" stroke-miterlimit="10" d="M133.827,256c0-36.626,26.546-66.317,59.293-66.317
	s59.293,29.691,59.293,66.317"/>
<path opacity="0.4" fill="none" stroke="#FFFFFF" stroke-miterlimit="10" d="M146.067,256c0-29.065,21.066-52.627,47.053-52.627
	s47.053,23.562,47.053,52.627"/>
<path opacity="0.4" fill="none" stroke="#FFFFFF" stroke-miterlimit="10" d="M159.432,256c0-20.81,15.083-37.679,33.688-37.679
	s33.688,16.87,33.688,37.679"/>
<path opacity="0.4" fill="none" stroke="#FFFFFF" stroke-miterlimit="10" d="M175.722,256c0-10.747,7.79-19.46,17.398-19.46
	c9.609,0,17.398,8.712,17.398,19.46"/>
</svg>
