<?xml version="1.0" encoding="utf-8"?>
<!-- Generator: Adobe Illustrator 17.0.0, SVG Export Plug-In . SVG Version: 6.00 Build 0)  -->
<!DOCTYPE svg PUBLIC "-//W3C//DTD SVG 1.1//EN" "http://www.w3.org/Graphics/SVG/1.1/DTD/svg11.dtd">
<svg version="1.1" xmlns="http://www.w3.org/2000/svg" xmlns:xlink="http://www.w3.org/1999/xlink" x="0px" y="0px" width="512px"
	 height="512px" viewBox="0 0 512 512" enable-background="new 0 0 512 512" xml:space="preserve">
<g id="Layer_1" display="none">
	
		<image display="inline" overflow="visible" width="512" height="512" xlink:href="261871327_2109188439244710_3764147092602697111_n.png" >
	</image>
</g>
<g id="Layer_2">
	<path fill="#D1D4DA" d="M330.065,105.107H185.214h-1.628c-42.21,0-76.428,34.218-76.428,76.428v149.671
		c0,42.21,34.218,76.428,76.428,76.428h146.479c42.21,0,76.428-34.218,76.428-76.428V181.535
		C406.493,139.325,372.275,105.107,330.065,105.107z"/>
	<path fill="#EFEFEF" d="M320.795,125.705H195.669h-1.406c-36.462,0-66.02,29.558-66.02,66.02v129.29
		c0,36.462,29.558,66.02,66.02,66.02h126.533c36.462,0,66.02-29.558,66.02-66.02v-129.29
		C386.816,155.264,357.257,125.705,320.795,125.705z"/>
	<linearGradient id="SVGID_1_" gradientUnits="userSpaceOnUse" x1="262.5608" y1="103.8238" x2="262.5608" y2="51.6623">
		<stop  offset="0" style="stop-color:#7A7C7F"/>
		<stop  offset="1" style="stop-color:#C1C3C5"/>
	</linearGradient>
	<path fill="url(#SVGID_1_)" d="M205.493,58.883c0.77-1.472,2.734-4.641,4.885-5.37c2.156-0.731,7.418-0.986,9.86-0.986
		c22.206,0,67.21-2.493,88.732,0.986c4.286,0.693,12.764,3.182,15.544,5.37c1.237,0.974,1.94,3.566,2.221,4.805
		c1.804,7.973,1.194,22.607,1.842,30.135c0.216,2.511,1.711,10.001,1.711,10.001s-54.598-2.514-72.834-2.826
		c-15.65-0.268-62.62,0.283-62.62,0.283c0.698-0.835,2.988-3.094,3.553-4.24C202.904,87.875,200.725,67.997,205.493,58.883z"/>
	<linearGradient id="SVGID_2_" gradientUnits="userSpaceOnUse" x1="263.7598" y1="113.1883" x2="263.7598" y2="97.0367">
		<stop  offset="0" style="stop-color:#656668"/>
		<stop  offset="0.1735" style="stop-color:#757779"/>
		<stop  offset="1" style="stop-color:#C1C3C5"/>
	</linearGradient>
	<path fill="url(#SVGID_2_)" d="M127.006,98.952c10.473-4.33,27.246-0.1,36.264,0.855c7.847,0.831,24.104,0.303,31.564,0.02
		c16.423-0.623,49.309-0.809,65.737-0.341c17.456,0.497,52.387,2.188,69.717,4.338c9.344,1.159,27.665,1.812,37.021,2.866
		c8.643,0.974,23.199-0.776,31.468,0.448c3.474,0.514,2.013,2.436-1.237,3.607c-4.213,1.518-18.727,2.459-32.61,2.443
		c-9.562-0.011-28.338-0.511-37.876-1.186c-16.489-1.167-49.591-0.662-66.11-1.264c-16.579-0.604-50.757-1.84-67.347-1.796
		c-8.322,0.022-19.703,0-33.027-1.101c-4.944-0.408-23.86-3.765-28.654-5.04C130.408,102.4,125.565,99.548,127.006,98.952z"/>
	<linearGradient id="SVGID_3_" gradientUnits="userSpaceOnUse" x1="314.6241" y1="224.601" x2="351.4727" y2="224.601">
		<stop  offset="0.0358" style="stop-color:#5C5D60"/>
		<stop  offset="0.4024" style="stop-color:#7A7C7F"/>
		<stop  offset="1" style="stop-color:#C1C3C5"/>
	</linearGradient>
	<ellipse fill="url(#SVGID_3_)" cx="333.048" cy="224.601" rx="18.424" ry="18.905"/>
	<path fill="#E3E8EF" d="M322.823,224.16c1.368-0.277,1.402-2.373,1.553-3.761c0.177-1.621,1.824-4.042,0.236-4.222
		c-2.392-0.271-3.605,1.241-4.145,2.896c-0.507,1.555-0.243,3.158,0.24,4.06C320.986,223.651,322.247,224.277,322.823,224.16z"/>
	<linearGradient id="SVGID_4_" gradientUnits="userSpaceOnUse" x1="144.5431" y1="222.7508" x2="181.3917" y2="222.7508">
		<stop  offset="0.0358" style="stop-color:#5C5D60"/>
		<stop  offset="0.4024" style="stop-color:#7A7C7F"/>
		<stop  offset="1" style="stop-color:#C1C3C5"/>
	</linearGradient>
	<ellipse fill="url(#SVGID_4_)" cx="162.967" cy="222.751" rx="18.424" ry="18.905"/>
	<path fill="#E3E8EF" d="M151.625,221.093c1.368-0.277,1.402-2.373,1.553-3.761c0.177-1.621,1.824-4.042,0.236-4.222
		c-2.392-0.271-3.605,1.241-4.145,2.896c-0.507,1.555-0.243,3.158,0.24,4.06C149.788,220.584,151.049,221.21,151.625,221.093z"/>
	<path fill="#E3E8EF" d="M166.453,209.071c1.322-1.002,4.467,0.452,5.7,1.289c0.753,0.511,2.227,1.905,2.406,2.954
		c0.111,0.648-0.187,2.37-0.718,2.661c-0.945,0.518-2.583-1.437-3.443-1.931c-1.142-0.657-4.093-1.177-4.587-2.591
		C165.623,210.916,166.007,209.409,166.453,209.071z"/>
	<path fill="#D1D4DA" d="M229.068,176.896c0,0-2.704,76.02,0,100.836c1.986,18.229,29.998,21.947,29.998-6.115
		c0-23.68,0-94.72,0-94.72H229.068z"/>
	<linearGradient id="SVGID_5_" gradientUnits="userSpaceOnUse" x1="105.9198" y1="222.8096" x2="407.2321" y2="222.8096">
		<stop  offset="0" style="stop-color:#67686B"/>
		<stop  offset="1" style="stop-color:#9C9EA1"/>
	</linearGradient>
	<path fill="url(#SVGID_5_)" d="M395.786,179.262c-12.075-7.024-20.08-13.171-25.44-15.98
		c-27.737-14.539-92.927,2.172-123.909,2.203c-26.144,0.026-111.519-16.081-133.924-5.408c-1.874,0.893-2.141,0.655-2.489,1.58
		c-6.986,18.601-2.94,107.717-2.94,107.717c0.525,0.601-1.412-1.366,16.488,9.551c14.806,9.029,42.402,10.149,54.373,7.159
		c12.009-2.999,35.6-17.366,44.745-26.095c7.527-7.185,7.726-26.973,17.877-27.35c11.005-0.409,14.599,14.997,20.322,24.906
		c8.67,15.01,55.209,45.315,105.795,24.685c32.62-13.304,38.107-15.444,40.546-17.764v-81.564
		C405.333,182.053,403.894,183.978,395.786,179.262z M208.756,216.365c-1.949,4.189-9.455,7.453-13.133,10.053
		c-3.859,2.728-12.374,7.087-16.917,8.127c-8.265,1.892-25.729,2.55-33.834,0c-15.119-4.756-30.725-17.672-24.93-32.51
		c2.568-6.577,15.395-14.564,21.814-16.769c6.666-2.29,21.23-1.732,28.047,0c7.537,1.915,20.932,10.728,27.601,14.894
		c2.894,1.808,9.778,7.563,11.352,10.696C209.368,212.073,209.332,215.128,208.756,216.365z M377.591,210.148
		c-3.117,21.342-18.818,26.951-28.47,29.484c-4.582,1.202-8.814,3.095-19.944,2.259c-8.425-0.632-24.906-6.513-32.053-11.254
		c-3.929-2.607-13.426-9.206-12.911-14.067c1.284-12.117,27.616-23.322,38.731-26.727c9.221-2.825,29.214-6.6,38.285-3.282
		C365.397,188.085,379.184,199.245,377.591,210.148z"/>
	<linearGradient id="SVGID_6_" gradientUnits="userSpaceOnUse" x1="105.7837" y1="222.9372" x2="407.2321" y2="222.9372">
		<stop  offset="0" style="stop-color:#7A7C7F"/>
		<stop  offset="1" style="stop-color:#C1C3C5"/>
	</linearGradient>
	<path fill="url(#SVGID_6_)" d="M395.768,181.488c-12.52-5.833-20.08-12.504-25.44-15.171
		c-27.737-13.803-92.926,2.062-123.907,2.091c-26.144,0.025-111.511-15.262-133.922-5.135c-1.512,0.683-2.617,0.424-2.873,1.21
		c-6.763,20.731-2.541,102.565-2.541,102.565c1.204,0.753-1.426-1.304,16.474,9.06c14.805,8.573,42.401,9.635,54.373,6.797
		c12.009-2.847,33.726-16.188,42.871-24.476c7.527-6.821,6.229-28.007,19.489-28.234c11.01-0.188,16.216,13.373,21.905,26.121
		c6.798,15.233,53.885,42.515,104.471,22.929c32.62-12.63,36.777-14.747,40.563-17.233v-77.84
		C405.333,183.366,402.601,184.672,395.768,181.488z M208.741,216.714c-1.949,3.977-9.455,7.076-13.133,9.544
		c-3.859,2.59-12.374,6.729-16.917,7.716c-8.265,1.796-25.729,2.421-33.833,0c-15.119-4.516-30.724-16.778-24.93-30.865
		c2.568-6.244,15.395-13.827,21.813-15.921c6.666-2.174,21.23-1.644,28.046,0c7.537,1.818,20.932,10.185,27.601,14.14
		c2.894,1.716,9.778,7.181,11.352,10.154C209.352,212.638,209.316,215.539,208.741,216.714z M377.574,210.811
		c-3.117,20.262-18.818,25.588-28.469,27.993c-4.582,1.142-8.814,2.938-19.944,2.145c-8.425-0.6-24.905-6.183-32.052-10.684
		c-3.929-2.475-13.426-8.74-12.91-13.355c1.284-11.504,27.615-22.142,38.73-25.375c9.221-2.682,29.214-6.267,38.285-3.116
		C365.379,189.865,379.166,200.459,377.574,210.811z"/>
	<linearGradient id="SVGID_7_" gradientUnits="userSpaceOnUse" x1="114.8841" y1="210.7797" x2="211.0508" y2="210.7797">
		<stop  offset="0" style="stop-color:#67686B"/>
		<stop  offset="1" style="stop-color:#9C9EA1"/>
	</linearGradient>
	<path fill="none" stroke="url(#SVGID_7_)" stroke-width="3" stroke-miterlimit="10" d="M209.092,217.015
		c-2.007,4.094-9.734,7.285-13.521,9.826c-3.973,2.667-12.739,6.927-17.416,7.943c-8.509,1.849-26.488,2.492-34.832,0
		c-15.565-4.649-31.631-17.273-25.666-31.776c2.644-6.428,15.849-14.235,22.457-16.39c6.863-2.238,21.857-1.693,28.874,0
		c7.759,1.872,21.55,10.486,28.415,14.557c2.98,1.767,10.067,7.392,11.687,10.454C209.722,212.82,209.685,215.807,209.092,217.015z"
		/>
	<linearGradient id="SVGID_8_" gradientUnits="userSpaceOnUse" x1="282.7736" y1="214.0194" x2="382.0574" y2="214.0194">
		<stop  offset="0" style="stop-color:#7A7C7F"/>
		<stop  offset="1" style="stop-color:#C1C3C5"/>
	</linearGradient>
	<path fill="none" stroke="url(#SVGID_8_)" stroke-width="3" stroke-miterlimit="10" d="M380.426,210.565
		c-3.209,20.86-19.373,26.343-29.31,28.819c-4.717,1.175-9.074,3.025-20.533,2.208c-8.674-0.618-25.641-6.365-32.999-10.999
		c-4.045-2.548-13.822-8.998-13.291-13.75c1.322-11.844,28.43-22.796,39.874-26.124c9.493-2.761,30.076-6.452,39.415-3.208
		C367.872,189,382.066,199.908,380.426,210.565z"/>
	<linearGradient id="SVGID_9_" gradientUnits="userSpaceOnUse" x1="199.5081" y1="345.158" x2="314.1438" y2="345.158">
		<stop  offset="0" style="stop-color:#7A7C7F"/>
		<stop  offset="1" style="stop-color:#C1C3C5"/>
	</linearGradient>
	<path fill="url(#SVGID_9_)" d="M214.996,362.928c17.324,11.471,70.709,12.425,86.971-3.562c3.285-3.23,26.533-30.065-1.455-39.477
		c-12.15-4.086-22.055,5.137-24.374,5.996c-10.346,3.832-19.021,4.669-32.223,4.283c-15.377-0.45-18.506-9.887-30.158-8.351
		C189.559,325.005,200.459,353.302,214.996,362.928z"/>
	<linearGradient id="SVGID_10_" gradientUnits="userSpaceOnUse" x1="227.5834" y1="359.0486" x2="282.8857" y2="359.0486">
		<stop  offset="0" style="stop-color:#949699"/>
		<stop  offset="0.1674" style="stop-color:#A0A2A5"/>
		<stop  offset="0.7082" style="stop-color:#C3C5C6"/>
		<stop  offset="1" style="stop-color:#D0D2D3"/>
	</linearGradient>
	<path fill="url(#SVGID_10_)" d="M282.413,356.437c-3.309-6.296-22.324-14.802-27.997-9.737c-3.451,3.081-3.711,2.03-8.192-0.14
		c-7.479-3.623-23.589,13.537-17.158,21.376c6.659,8.117,30.077,4.469,38.09,2.1C272.608,368.425,285.506,362.32,282.413,356.437z"
		/>
	<g>
		<path fill="#FFFFFF" d="M275.334,355.177c5.226-3.551,19.996-3.194,18.905,5.356c-0.799,6.263-14.772,15.756-20.888,14.192
			C264.999,372.591,270.107,358.728,275.334,355.177z"/>
	</g>
	<g>
		<path fill="#FFFFFF" d="M257.23,357.27c7.115-0.796,21.728,7.369,16.114,15.361c-4.111,5.854-23.133,7.982-28.436,3.181
			C237.668,369.258,250.116,358.066,257.23,357.27z"/>
	</g>
	<g>
		<path fill="#FFFFFF" d="M235.572,353.535c6.828,2.152,16.886,15.533,8.518,20.569c-6.129,3.689-24.384-2.064-27.29-8.601
			C212.832,356.58,228.744,351.383,235.572,353.535z"/>
	</g>
</g>
</svg>
