<?xml version="1.0" encoding="utf-8"?>
<!-- Generator: Adobe Illustrator 17.0.0, SVG Export Plug-In . SVG Version: 6.00 Build 0)  -->
<!DOCTYPE svg PUBLIC "-//W3C//DTD SVG 1.1//EN" "http://www.w3.org/Graphics/SVG/1.1/DTD/svg11.dtd">
<svg version="1.1" id="Layer_1" xmlns="http://www.w3.org/2000/svg" xmlns:xlink="http://www.w3.org/1999/xlink" x="0px" y="0px"
	 width="512px" height="512px" viewBox="0 0 512 512" enable-background="new 0 0 512 512" xml:space="preserve">
<path fill="#D2D5DB" d="M331.847,105.043H186.545h-1.634c-42.34,0-76.665,34.324-76.665,76.665v150.135
	c0,42.34,34.324,76.665,76.665,76.665h146.932c42.34,0,76.665-34.324,76.665-76.665V181.708
	C408.512,139.367,374.187,105.043,331.847,105.043z"/>
<path fill="#EFEFEF" d="M322.547,125.705H197.032h-1.409c-36.574,0-66.225,29.651-66.225,66.225v129.69
	c0,36.574,29.651,66.225,66.225,66.225h126.924c36.574,0,66.225-29.651,66.225-66.225V191.93
	C388.771,155.356,359.12,125.705,322.547,125.705z"/>
<linearGradient id="SVGID_1_" gradientUnits="userSpaceOnUse" x1="-133.8681" y1="383.2719" x2="-133.8681" y2="330.9501" gradientTransform="matrix(1 0 0 1 398 -276.509)">
	<stop  offset="0" style="stop-color:#7B7C7F"/>
	<stop  offset="0.163" style="stop-color:#86888B"/>
	<stop  offset="1" style="stop-color:#C2C4C6"/>
</linearGradient>
<path fill="url(#SVGID_1_)" d="M206.888,61.683c0.77-1.475,2.743-4.654,4.899-5.385c2.164-0.732,7.44-0.988,9.891-0.988
	c22.273,0,67.419-2.502,89.008,0.988c4.3,0.697,12.802,3.191,15.592,5.385c1.241,0.977,1.946,3.576,2.226,4.821
	c1.809,7.996,1.198,22.678,1.848,30.227c0.218,2.518,1.716,10.032,1.716,10.032s-54.769-2.522-73.061-2.837
	c-15.697-0.268-62.812,0.284-62.812,0.284c0.7-0.837,2.996-3.101,3.564-4.253C204.289,90.766,202.106,70.828,206.888,61.683z"/>
<linearGradient id="SVGID_2_" gradientUnits="userSpaceOnUse" x1="-132.6641" y1="390.5331" x2="-132.6641" y2="374.3346" gradientTransform="matrix(1 0 0 1 398 -276.509)">
	<stop  offset="0" style="stop-color:#656668"/>
	<stop  offset="0.3535" style="stop-color:#86888B"/>
	<stop  offset="1" style="stop-color:#C2C4C6"/>
</linearGradient>
<path fill="url(#SVGID_2_)" d="M128.157,99.747c10.506-4.343,27.332-0.101,36.375,0.856c7.872,0.833,24.18,0.304,31.663,0.019
	c16.475-0.626,49.461-0.809,65.941-0.342c17.51,0.498,52.551,2.195,69.933,4.35c9.374,1.163,27.752,1.817,37.138,2.876
	c8.67,0.977,23.269-0.778,31.566,0.447c3.487,0.514,2.02,2.444-1.241,3.619c-4.226,1.521-18.783,2.467-32.71,2.451
	c-9.592-0.012-28.425-0.514-37.994-1.191c-16.542-1.171-49.745-0.665-66.314-1.269c-16.631-0.607-50.913-1.844-67.555-1.802
	c-8.347,0.023-19.763,0-33.13-1.105c-4.961-0.409-23.935-3.778-28.744-5.055C131.57,103.202,126.71,100.342,128.157,99.747z"/>
<linearGradient id="SVGID_3_" gradientUnits="userSpaceOnUse" x1="-81.6441" y1="501.4169" x2="-44.6776" y2="501.4169" gradientTransform="matrix(1 0 0 1 398 -276.509)">
	<stop  offset="0.0358" style="stop-color:#5C5D60"/>
	<stop  offset="0.4024" style="stop-color:#7B7C7F"/>
	<stop  offset="0.4998" style="stop-color:#86888B"/>
	<stop  offset="1" style="stop-color:#C2C4C6"/>
</linearGradient>
<ellipse fill="url(#SVGID_3_)" cx="334.839" cy="224.908" rx="18.483" ry="18.966"/>
<path fill="#E4E9F0" d="M324.582,224.464c1.374-0.28,1.405-2.381,1.556-3.774c0.179-1.627,1.829-4.055,0.237-4.234
	c-2.401-0.272-3.615,1.245-4.16,2.903c-0.51,1.56-0.245,3.167,0.241,4.074C322.738,223.955,324.002,224.581,324.582,224.464z"/>
<linearGradient id="SVGID_4_" gradientUnits="userSpaceOnUse" x1="-252.2543" y1="499.5608" x2="-215.2878" y2="499.5608" gradientTransform="matrix(1 0 0 1 398 -276.509)">
	<stop  offset="0.0358" style="stop-color:#5C5D60"/>
	<stop  offset="0.4024" style="stop-color:#7B7C7F"/>
	<stop  offset="0.4998" style="stop-color:#86888B"/>
	<stop  offset="1" style="stop-color:#C2C4C6"/>
</linearGradient>
<ellipse fill="url(#SVGID_4_)" cx="164.229" cy="223.052" rx="18.483" ry="18.966"/>
<path fill="#E4E9F0" d="M152.851,221.39c1.374-0.28,1.405-2.381,1.556-3.774c0.179-1.627,1.829-4.055,0.237-4.234
	c-2.401-0.272-3.615,1.245-4.16,2.903c-0.51,1.56-0.245,3.167,0.241,4.07C151.01,220.877,152.275,221.507,152.851,221.39z"/>
<path fill="#E4E9F0" d="M167.727,209.328c1.327-1.004,4.483,0.455,5.716,1.292c0.755,0.514,2.234,1.911,2.413,2.961
	c0.113,0.65-0.187,2.378-0.72,2.669c-0.949,0.521-2.592-1.44-3.455-1.938c-1.144-0.658-4.105-1.179-4.599-2.599
	C166.894,211.18,167.28,209.67,167.727,209.328z"/>
<path fill="#D2D5DB" d="M230.535,177.054c0,0-2.712,76.256,0,101.148c1.992,18.285,30.091,22.016,30.091-6.133
	c0-23.752,0-95.016,0-95.016H230.535z"/>
<linearGradient id="SVGID_5_" gradientUnits="userSpaceOnUse" x1="-290.9951" y1="499.6179" x2="11.2548" y2="499.6179" gradientTransform="matrix(1 0 0 1 398 -276.509)">
	<stop  offset="0" style="stop-color:#67686B"/>
	<stop  offset="1" style="stop-color:#9D9FA2"/>
</linearGradient>
<path fill="url(#SVGID_5_)" d="M397.772,179.427c-12.113-7.047-20.141-13.211-25.519-16.028
	c-27.822-14.584-93.214,2.179-124.293,2.21c-26.227,0.027-111.865-16.133-134.34-5.424c-1.879,0.895-2.148,0.658-2.498,1.584
	c-7.008,18.658-2.946,108.051-2.946,108.051c0.525,0.603-1.416-1.37,16.538,9.58c14.853,9.059,42.535,10.179,54.543,7.179
	c12.047-3.008,35.71-17.421,44.885-26.176c7.549-7.207,7.751-27.056,17.931-27.437c11.039-0.409,14.643,15.043,20.386,24.982
	c8.697,15.055,55.38,45.457,106.125,24.76c32.721-13.343,38.227-15.491,40.671-17.818v-81.813
	C407.348,182.225,405.904,184.159,397.772,179.427z M210.161,216.647c-1.957,4.203-9.483,7.475-13.176,10.086
	c-3.872,2.736-12.413,7.109-16.97,8.152c-8.292,1.899-25.81,2.557-33.939,0c-15.164-4.771-30.818-17.728-25.009-32.612
	c2.576-6.596,15.444-14.608,21.88-16.822c6.685-2.296,21.297-1.735,28.133,0c7.561,1.922,20.997,10.759,27.686,14.938
	c2.903,1.813,9.81,7.588,11.386,10.728C210.776,212.339,210.737,215.406,210.161,216.647z M379.518,210.409
	c-3.129,21.409-18.876,27.036-28.558,29.577c-4.596,1.206-8.841,3.105-20.005,2.265c-8.452-0.634-24.982-6.533-32.153-11.288
	c-3.942-2.615-13.467-9.234-12.95-14.11c1.288-12.156,27.702-23.394,38.85-26.81c9.249-2.833,29.305-6.623,38.402-3.292
	C367.288,188.28,381.117,199.471,379.518,210.409z"/>
<linearGradient id="SVGID_6_" gradientUnits="userSpaceOnUse" x1="-291.1331" y1="499.7466" x2="11.2547" y2="499.7466" gradientTransform="matrix(1 0 0 1 398 -276.509)">
	<stop  offset="0" style="stop-color:#7B7C7F"/>
	<stop  offset="0.163" style="stop-color:#86888B"/>
	<stop  offset="1" style="stop-color:#C2C4C6"/>
</linearGradient>
<path fill="url(#SVGID_6_)" d="M397.752,181.661c-12.557-5.852-20.141-12.541-25.519-15.219
	c-27.822-13.845-93.214,2.07-124.293,2.097c-26.223,0.023-111.857-15.308-134.336-5.152c-1.518,0.685-2.627,0.424-2.883,1.214
	c-6.782,20.795-2.549,102.884-2.549,102.884c1.206,0.755-1.428-1.307,16.526,9.086c14.853,8.6,42.531,9.666,54.543,6.817
	c12.047-2.856,33.83-16.238,43.006-24.554c7.549-6.841,6.249-28.095,19.549-28.32c11.043-0.191,16.265,13.413,21.974,26.203
	c6.817,15.281,54.053,42.648,104.794,23.001c32.721-12.67,36.893-14.794,40.69-17.289v-78.077
	C407.348,183.544,404.605,184.856,397.752,181.661z M210.145,216.997c-1.957,3.988-9.483,7.098-13.172,9.572
	c-3.872,2.599-12.413,6.751-16.97,7.74c-8.292,1.802-25.807,2.428-33.939,0c-15.164-4.529-30.818-16.829-25.009-30.962
	c2.576-6.265,15.444-13.868,21.88-15.97c6.685-2.179,21.297-1.65,28.133,0c7.561,1.825,20.997,10.218,27.686,14.183
	c2.903,1.72,9.81,7.203,11.386,10.187C210.76,212.907,210.721,215.818,210.145,216.997z M379.503,211.075
	c-3.129,20.324-18.876,25.666-28.558,28.079c-4.596,1.144-8.841,2.946-20.005,2.152c-8.452-0.603-24.982-6.203-32.153-10.716
	c-3.942-2.483-13.467-8.767-12.95-13.397c1.288-11.541,27.702-22.211,38.85-25.452c9.249-2.689,29.305-6.284,38.402-3.125
	C367.269,190.062,381.098,200.689,379.503,211.075z"/>
<linearGradient id="SVGID_7_" gradientUnits="userSpaceOnUse" x1="-281.9987" y1="487.5529" x2="-185.5433" y2="487.5529" gradientTransform="matrix(1 0 0 1 398 -276.509)">
	<stop  offset="0" style="stop-color:#67686B"/>
	<stop  offset="1" style="stop-color:#9D9FA2"/>
</linearGradient>
<path fill="none" stroke="url(#SVGID_7_)" stroke-width="3" stroke-miterlimit="10" d="M210.495,217.297
	c-2.012,4.105-9.763,7.308-13.561,9.856c-3.985,2.673-12.779,6.95-17.472,7.969c-8.537,1.856-26.569,2.498-34.939,0
	c-15.612-4.662-31.729-17.328-25.744-31.873c2.654-6.448,15.9-14.281,22.526-16.44c6.884-2.245,21.923-1.697,28.962,0
	c7.782,1.879,21.616,10.518,28.503,14.604c2.988,1.774,10.098,7.417,11.724,10.487C211.13,213.09,211.091,216.087,210.495,217.297z"
	/>
<linearGradient id="SVGID_8_" gradientUnits="userSpaceOnUse" x1="-113.5904" y1="490.8032" x2="-14.0057" y2="490.8032" gradientTransform="matrix(1 0 0 1 398 -276.509)">
	<stop  offset="0" style="stop-color:#7B7C7F"/>
	<stop  offset="0.163" style="stop-color:#86888B"/>
	<stop  offset="1" style="stop-color:#C2C4C6"/>
</linearGradient>
<path fill="none" stroke="url(#SVGID_8_)" stroke-width="3" stroke-miterlimit="10" d="M382.363,210.83
	c-3.218,20.923-19.433,26.425-29.402,28.908c-4.732,1.179-9.102,3.035-20.596,2.214c-8.701-0.619-25.721-6.385-33.103-11.035
	c-4.059-2.557-13.864-9.028-13.331-13.79c1.327-11.88,28.519-22.865,39.998-26.203c9.522-2.771,30.169-6.471,39.539-3.218
	C369.771,189.198,384.009,200.136,382.363,210.83z"/>
<linearGradient id="SVGID_9_" gradientUnits="userSpaceOnUse" x1="-197.1167" y1="622.349" x2="-82.1264" y2="622.349" gradientTransform="matrix(1 0 0 1 398 -276.509)">
	<stop  offset="0" style="stop-color:#7B7C7F"/>
	<stop  offset="0.163" style="stop-color:#86888B"/>
	<stop  offset="1" style="stop-color:#C2C4C6"/>
</linearGradient>
<path fill="url(#SVGID_9_)" d="M216.418,363.665c17.378,11.506,70.929,12.464,87.241-3.572c3.296-3.241,26.616-30.157-1.459-39.601
	c-12.187-4.097-22.125,5.152-24.449,6.016c-10.378,3.845-19.079,4.685-32.324,4.296c-15.425-0.451-18.565-9.919-30.25-8.378
	C190.903,325.624,201.837,354.007,216.418,363.665z"/>
<linearGradient id="SVGID_10_" gradientUnits="userSpaceOnUse" x1="-168.9531" y1="636.2784" x2="-113.4792" y2="636.2784" gradientTransform="matrix(1 0 0 1 398 -276.509)">
	<stop  offset="0" style="stop-color:#95979A"/>
	<stop  offset="0.2976" style="stop-color:#AAACAE"/>
	<stop  offset="0.7538" style="stop-color:#C6C8CA"/>
	<stop  offset="1" style="stop-color:#D1D3D4"/>
</linearGradient>
<path fill="url(#SVGID_10_)" d="M284.047,357.151c-3.319-6.315-22.394-14.849-28.083-9.767c-3.463,3.09-3.724,2.035-8.218-0.14
	c-7.502-3.634-23.662,13.58-17.211,21.441c6.681,8.14,30.172,4.483,38.208,2.105C274.21,369.179,287.148,363.054,284.047,357.151z"
	/>
<g>
	<path fill="#FFFFFF" d="M276.946,355.89c5.241-3.56,20.059-3.202,18.962,5.374c-0.802,6.28-14.818,15.806-20.954,14.238
		C266.576,373.354,271.7,359.451,276.946,355.89z"/>
</g>
<g>
	<path fill="#FFFFFF" d="M258.785,357.987c7.137-0.798,21.795,7.393,16.164,15.409c-4.125,5.872-23.203,8.008-28.523,3.191
		C239.162,370.011,251.649,358.785,258.785,357.987z"/>
</g>
<g>
	<path fill="#FFFFFF" d="M237.061,354.24c6.849,2.16,16.938,15.58,8.545,20.631c-6.148,3.701-24.46-2.07-27.375-8.627
		C214.247,357.295,230.208,352.084,237.061,354.24z"/>
</g>
</svg>
