<?xml version="1.0" encoding="utf-8"?>
<!-- Generator: Adobe Illustrator 17.0.0, SVG Export Plug-In . SVG Version: 6.00 Build 0)  -->
<!DOCTYPE svg PUBLIC "-//W3C//DTD SVG 1.1//EN" "http://www.w3.org/Graphics/SVG/1.1/DTD/svg11.dtd">
<svg version="1.1" id="Layer_1" xmlns="http://www.w3.org/2000/svg" xmlns:xlink="http://www.w3.org/1999/xlink" x="0px" y="0px"
	 width="77.709px" height="90.991px" viewBox="0 0 77.709 90.991" enable-background="new 0 0 77.709 90.991" xml:space="preserve">
<path fill="#D2D5DB" d="M57.817,13.004H20.476h-0.42c-10.881,0-19.702,8.821-19.702,19.702v38.583
	c0,10.881,8.821,19.702,19.702,19.702h37.76c10.881,0,19.702-8.821,19.702-19.702V32.706C77.519,21.825,68.698,13.004,57.817,13.004
	z"/>
<path fill="#EFEFEF" d="M55.427,18.314H23.171h-0.362c-9.399,0-17.019,7.62-17.019,17.019v33.329c0,9.399,7.62,17.019,17.019,17.019
	h32.618c9.399,0,17.019-7.62,17.019-17.019V35.333C72.446,25.934,64.826,18.314,55.427,18.314z"/>
<linearGradient id="SVGID_1_" gradientUnits="userSpaceOnUse" x1="-178.585" y1="321.045" x2="-178.585" y2="334.4911" gradientTransform="matrix(1 0 0 -1 219 334.491)">
	<stop  offset="0" style="stop-color:#7B7C7F"/>
	<stop  offset="0.163" style="stop-color:#86888B"/>
	<stop  offset="1" style="stop-color:#C2C4C6"/>
</linearGradient>
<path fill="url(#SVGID_1_)" d="M25.704,1.861c0.198-0.379,0.705-1.196,1.259-1.384c0.556-0.188,1.912-0.254,2.542-0.254
	c5.724,0,17.326-0.643,22.874,0.254c1.105,0.179,3.29,0.82,4.007,1.384c0.319,0.251,0.5,0.919,0.572,1.239
	c0.465,2.055,0.308,5.828,0.475,7.768c0.056,0.647,0.441,2.578,0.441,2.578s-14.075-0.648-18.776-0.729
	c-4.034-0.069-16.142,0.073-16.142,0.073c0.18-0.215,0.77-0.797,0.916-1.093C25.036,9.335,24.475,4.211,25.704,1.861z"/>
<linearGradient id="SVGID_2_" gradientUnits="userSpaceOnUse" x1="-178.2756" y1="319.1794" x2="-178.2756" y2="323.3422" gradientTransform="matrix(1 0 0 -1 219 334.491)">
	<stop  offset="0" style="stop-color:#656668"/>
	<stop  offset="0.3535" style="stop-color:#86888B"/>
	<stop  offset="1" style="stop-color:#C2C4C6"/>
</linearGradient>
<path fill="url(#SVGID_2_)" d="M5.471,11.643c2.7-1.116,7.024-0.026,9.348,0.22c2.023,0.214,6.214,0.078,8.137,0.005
	c4.234-0.161,12.711-0.208,16.946-0.088c4.5,0.128,13.505,0.564,17.972,1.118c2.409,0.299,7.132,0.467,9.544,0.739
	c2.228,0.251,5.98-0.2,8.112,0.115c0.896,0.132,0.519,0.628-0.319,0.93c-1.086,0.391-4.827,0.634-8.406,0.63
	c-2.465-0.003-7.305-0.132-9.764-0.306c-4.251-0.301-12.784-0.171-17.042-0.326c-4.274-0.156-13.084-0.474-17.361-0.463
	c-2.145,0.006-5.079,0-8.514-0.284c-1.275-0.105-6.151-0.971-7.387-1.299C6.348,12.531,5.099,11.796,5.471,11.643z"/>
<linearGradient id="SVGID_3_" gradientUnits="userSpaceOnUse" x1="-165.164" y1="290.683" x2="-155.664" y2="290.683" gradientTransform="matrix(1 0 0 -1 219 334.491)">
	<stop  offset="0.0358" style="stop-color:#5C5D60"/>
	<stop  offset="0.4024" style="stop-color:#7B7C7F"/>
	<stop  offset="0.4998" style="stop-color:#86888B"/>
	<stop  offset="1" style="stop-color:#C2C4C6"/>
</linearGradient>
<ellipse fill="url(#SVGID_3_)" cx="58.586" cy="43.808" rx="4.75" ry="4.874"/>
<path fill="#E4E9F0" d="M55.95,43.694c0.353-0.072,0.361-0.612,0.4-0.97c0.046-0.418,0.47-1.042,0.061-1.088
	c-0.617-0.07-0.929,0.32-1.069,0.746c-0.131,0.401-0.063,0.814,0.062,1.047C55.476,43.563,55.801,43.724,55.95,43.694z"/>
<linearGradient id="SVGID_4_" gradientUnits="userSpaceOnUse" x1="-209.009" y1="291.16" x2="-199.509" y2="291.16" gradientTransform="matrix(1 0 0 -1 219 334.491)">
	<stop  offset="0.0358" style="stop-color:#5C5D60"/>
	<stop  offset="0.4024" style="stop-color:#7B7C7F"/>
	<stop  offset="0.4998" style="stop-color:#86888B"/>
	<stop  offset="1" style="stop-color:#C2C4C6"/>
</linearGradient>
<ellipse fill="url(#SVGID_4_)" cx="14.741" cy="43.331" rx="4.75" ry="4.874"/>
<path fill="#E4E9F0" d="M11.817,42.904c0.353-0.072,0.361-0.612,0.4-0.97c0.046-0.418,0.47-1.042,0.061-1.088
	c-0.617-0.07-0.929,0.32-1.069,0.746c-0.131,0.401-0.063,0.814,0.062,1.046C11.344,42.772,11.669,42.934,11.817,42.904z"/>
<path fill="#E4E9F0" d="M15.64,39.804c0.341-0.258,1.152,0.117,1.469,0.332c0.194,0.132,0.574,0.491,0.62,0.761
	c0.029,0.167-0.048,0.611-0.185,0.686c-0.244,0.134-0.666-0.37-0.888-0.498c-0.294-0.169-1.055-0.303-1.182-0.668
	C15.426,40.28,15.525,39.892,15.64,39.804z"/>
<path fill="#D2D5DB" d="M31.781,31.51c0,0-0.697,19.597,0,25.994c0.512,4.699,7.733,5.658,7.733-1.576c0-6.104,0-24.418,0-24.418
	S31.781,31.51,31.781,31.51z"/>
<linearGradient id="SVGID_5_" gradientUnits="userSpaceOnUse" x1="-218.965" y1="291.1453" x2="-141.29" y2="291.1453" gradientTransform="matrix(1 0 0 -1 219 334.491)">
	<stop  offset="0" style="stop-color:#67686B"/>
	<stop  offset="1" style="stop-color:#9D9FA2"/>
</linearGradient>
<path fill="url(#SVGID_5_)" d="M74.759,32.12c-3.113-1.811-5.176-3.395-6.558-4.119c-7.15-3.748-23.955,0.56-31.942,0.568
	c-6.74,0.007-28.748-4.146-34.524-1.394c-0.483,0.23-0.552,0.169-0.642,0.407C-0.708,32.377,0.336,55.35,0.336,55.35
	c0.135,0.155-0.364-0.352,4.25,2.462c3.817,2.328,10.931,2.616,14.017,1.845c3.096-0.773,9.177-4.477,11.535-6.727
	c1.94-1.852,1.992-6.953,4.608-7.051c2.837-0.105,3.763,3.866,5.239,6.42c2.235,3.869,14.232,11.682,27.273,6.363
	c8.409-3.429,9.824-3.981,10.452-4.579V33.058C77.22,32.839,76.849,33.336,74.759,32.12z M26.545,41.685
	c-0.503,1.08-2.437,1.921-3.386,2.592c-0.995,0.703-3.19,1.827-4.361,2.095c-2.131,0.488-6.633,0.657-8.722,0
	c-3.897-1.226-7.92-4.556-6.427-8.381c0.662-1.695,3.969-3.754,5.623-4.323c1.718-0.59,5.473-0.446,7.23,0
	c1.943,0.494,5.396,2.765,7.115,3.839c0.746,0.466,2.521,1.95,2.926,2.757C26.703,40.578,26.693,41.366,26.545,41.685z
	 M70.068,40.082c-0.804,5.502-4.851,6.948-7.339,7.601c-1.181,0.31-2.272,0.798-5.141,0.582c-2.172-0.163-6.42-1.679-8.263-2.901
	c-1.013-0.672-3.461-2.373-3.328-3.626c0.331-3.124,7.119-6.012,9.984-6.89c2.377-0.728,7.531-1.702,9.869-0.846
	C66.925,34.395,70.479,37.271,70.068,40.082z"/>
<linearGradient id="SVGID_6_" gradientUnits="userSpaceOnUse" x1="-219.0004" y1="291.1122" x2="-141.29" y2="291.1122" gradientTransform="matrix(1 0 0 -1 219 334.491)">
	<stop  offset="0" style="stop-color:#7B7C7F"/>
	<stop  offset="0.163" style="stop-color:#86888B"/>
	<stop  offset="1" style="stop-color:#C2C4C6"/>
</linearGradient>
<path fill="url(#SVGID_6_)" d="M74.754,32.694c-3.227-1.504-5.176-3.223-6.558-3.911c-7.15-3.558-23.955,0.532-31.942,0.539
	c-6.739,0.006-28.746-3.934-34.523-1.324c-0.39,0.176-0.675,0.109-0.741,0.312c-1.743,5.344-0.655,26.44-0.655,26.44
	c0.31,0.194-0.367-0.336,4.247,2.335c3.817,2.21,10.93,2.484,14.017,1.752c3.096-0.734,8.694-4.173,11.052-6.31
	c1.94-1.758,1.606-7.22,5.024-7.278c2.838-0.049,4.18,3.447,5.647,6.734c1.752,3.927,13.891,10.96,26.931,5.911
	c8.409-3.256,9.481-3.802,10.457-4.443V33.386C77.22,33.178,76.515,33.515,74.754,32.694z M26.541,41.775
	c-0.503,1.025-2.437,1.824-3.385,2.46c-0.995,0.668-3.19,1.735-4.361,1.989c-2.131,0.463-6.632,0.624-8.722,0
	c-3.897-1.164-7.92-4.325-6.427-7.957c0.662-1.61,3.969-3.564,5.623-4.104c1.718-0.56,5.473-0.424,7.23,0
	c1.943,0.469,5.396,2.626,7.115,3.645c0.746,0.442,2.521,1.851,2.926,2.618C26.699,40.724,26.689,41.472,26.541,41.775z
	 M70.064,40.253c-0.804,5.223-4.851,6.596-7.339,7.216c-1.181,0.294-2.272,0.757-5.141,0.553c-2.172-0.155-6.42-1.594-8.263-2.754
	c-1.013-0.638-3.461-2.253-3.328-3.443c0.331-2.966,7.119-5.708,9.984-6.541c2.377-0.691,7.531-1.615,9.869-0.803
	C66.92,34.853,70.474,37.584,70.064,40.253z"/>
<linearGradient id="SVGID_7_" gradientUnits="userSpaceOnUse" x1="-217.7675" y1="294.2459" x2="-190.7505" y2="294.2459" gradientTransform="matrix(1 0 0 -1 219 334.491)">
	<stop  offset="0" style="stop-color:#67686B"/>
	<stop  offset="1" style="stop-color:#9D9FA2"/>
</linearGradient>
<path fill="none" stroke="url(#SVGID_7_)" stroke-width="3" stroke-miterlimit="10" d="M26.631,41.852
	c-0.517,1.055-2.509,1.878-3.485,2.533c-1.024,0.687-3.284,1.786-4.49,2.048c-2.194,0.477-6.828,0.642-8.979,0
	c-4.012-1.198-8.154-4.453-6.616-8.191c0.682-1.657,4.086-3.67,5.789-4.225c1.769-0.577,5.634-0.436,7.443,0
	c2,0.483,5.555,2.703,7.325,3.753c0.768,0.456,2.595,1.906,3.013,2.695C26.794,40.771,26.784,41.541,26.631,41.852z"/>
<linearGradient id="SVGID_8_" gradientUnits="userSpaceOnUse" x1="-174.4884" y1="293.4106" x2="-146.6671" y2="293.4106" gradientTransform="matrix(1 0 0 -1 219 334.491)">
	<stop  offset="0" style="stop-color:#7B7C7F"/>
	<stop  offset="0.163" style="stop-color:#86888B"/>
	<stop  offset="1" style="stop-color:#C2C4C6"/>
</linearGradient>
<path fill="none" stroke="url(#SVGID_8_)" stroke-width="3" stroke-miterlimit="10" d="M70.799,40.19
	c-0.827,5.377-4.994,6.791-7.556,7.429c-1.216,0.303-2.339,0.78-5.293,0.569c-2.236-0.159-6.61-1.641-8.507-2.836
	c-1.043-0.657-3.563-2.32-3.426-3.544c0.341-3.053,7.329-5.876,10.279-6.734c2.447-0.712,7.753-1.663,10.161-0.827
	C67.563,34.631,71.222,37.442,70.799,40.19z"/>
<linearGradient id="SVGID_9_" gradientUnits="userSpaceOnUse" x1="-194.8392" y1="259.6047" x2="-165.2879" y2="259.6047" gradientTransform="matrix(1 0 0 -1 219 334.491)">
	<stop  offset="0" style="stop-color:#7B7C7F"/>
	<stop  offset="0.163" style="stop-color:#86888B"/>
	<stop  offset="1" style="stop-color:#C2C4C6"/>
</linearGradient>
<path fill="url(#SVGID_9_)" d="M28.153,79.467c4.466,2.957,18.228,3.203,22.42-0.918c0.847-0.833,6.84-7.75-0.375-10.177
	c-3.132-1.053-5.686,1.324-6.283,1.546c-2.667,0.988-4.903,1.204-8.307,1.104c-3.964-0.116-4.771-2.549-7.774-2.153
	C21.596,69.691,24.406,76.985,28.153,79.467z"/>
<linearGradient id="SVGID_10_" gradientUnits="userSpaceOnUse" x1="-187.6015" y1="256.025" x2="-173.3453" y2="256.025" gradientTransform="matrix(1 0 0 -1 219 334.491)">
	<stop  offset="0" style="stop-color:#95979A"/>
	<stop  offset="0.2976" style="stop-color:#AAACAE"/>
	<stop  offset="0.7538" style="stop-color:#C6C8CA"/>
	<stop  offset="1" style="stop-color:#D1D3D4"/>
</linearGradient>
<path fill="url(#SVGID_10_)" d="M45.533,77.793c-0.853-1.623-5.755-3.816-7.217-2.51c-0.89,0.794-0.957,0.523-2.112-0.036
	c-1.928-0.934-6.081,3.49-4.423,5.51c1.717,2.092,7.754,1.152,9.819,0.541C43.005,80.884,46.33,79.31,45.533,77.793z"/>
<g>
	<path fill="#FFFFFF" d="M43.708,77.469c1.347-0.915,5.155-0.823,4.873,1.381c-0.206,1.614-3.808,4.062-5.385,3.659
		C41.043,81.957,42.36,78.384,43.708,77.469z"/>
</g>
<g>
	<path fill="#FFFFFF" d="M39.041,78.008c1.834-0.205,5.601,1.9,4.154,3.96c-1.06,1.509-5.963,2.058-7.33,0.82
		C33.998,81.098,37.207,78.213,39.041,78.008z"/>
</g>
<g>
	<path fill="#FFFFFF" d="M33.458,77.045c1.76,0.555,4.353,4.004,2.196,5.302c-1.58,0.951-6.286-0.532-7.035-2.217
		C27.595,77.83,31.697,76.491,33.458,77.045z"/>
</g>
</svg>
