<svg width="72" height="21" viewBox="0 0 72 21" fill="none" xmlns="http://www.w3.org/2000/svg" xmlns:xlink="http://www.w3.org/1999/xlink">
<g filter="url(#filter0_d_0_1)">
<rect x="4" width="64" height="13" rx="6.5" fill="#F8F8F6" fill-opacity="0.1" />
</g>
<g filter="url(#filter1_d_0_1)">
<rect x="8" y="4" width="6" height="6" fill="url(#pattern0)" />
</g>
  <path fill="#FFFFFF" transform="translate(0 -3)" d="M7.271,9.179C7.41,8.027,8.445,7.217,9.468,7.46c0.396,0.094,0.73,0.305,1.01,0.632
	c0.031-0.031,0.056-0.056,0.079-0.081c0.885-0.946,2.305-0.733,2.908,0.454c0.123,0.243,0.232,0.519,0.252,0.802
	c0.021,0.3-0.023,0.504-0.027,0.533c-0.06,0.434-0.228,0.811-0.505,1.12c-0.725,0.812-1.454,1.62-2.185,2.427
	c-0.43,0.474-0.608,0.473-1.038,0c-0.694-0.765-1.389-1.527-2.072-2.304c-0.178-0.202-0.334-0.439-0.458-0.686
	C7.335,10.163,7.214,9.649,7.271,9.179z"/>
<defs>

<filter id="filter0_d_0_1" x="0" y="0" width="72" height="21" filterUnits="userSpaceOnUse" color-interpolation-filters="sRGB">
<feFlood flood-opacity="0" result="BackgroundImageFix"/>
<feColorMatrix in="SourceAlpha" type="matrix" values="0 0 0 0 0 0 0 0 0 0 0 0 0 0 0 0 0 0 127 0" result="hardAlpha"/>
<feOffset dy="4"/>
<feGaussianBlur stdDeviation="2"/>
<feComposite in2="hardAlpha" operator="out"/>
<feColorMatrix type="matrix" values="0 0 0 0 0 0 0 0 0 0 0 0 0 0 0 0 0 0 0.25 0"/>
<feBlend mode="normal" in2="BackgroundImageFix" result="effect1_dropShadow_0_1"/>
<feBlend mode="normal" in="SourceGraphic" in2="effect1_dropShadow_0_1" result="shape"/>
</filter>
<filter id="filter1_d_0_1" x="4" y="4" width="14" height="14" filterUnits="userSpaceOnUse" color-interpolation-filters="sRGB">
<feFlood flood-opacity="0" result="BackgroundImageFix"/>
<feColorMatrix in="SourceAlpha" type="matrix" values="0 0 0 0 0 0 0 0 0 0 0 0 0 0 0 0 0 0 127 0" result="hardAlpha"/>
<feOffset dy="4"/>
<feGaussianBlur stdDeviation="2"/>
<feComposite in2="hardAlpha" operator="out"/>
<feColorMatrix type="matrix" values="0 0 0 0 0 0 0 0 0 0 0 0 0 0 0 0 0 0 0.2 0"/>
<feBlend mode="normal" in2="BackgroundImageFix" result="effect1_dropShadow_0_1"/>
<feBlend mode="normal" in="SourceGraphic" in2="effect1_dropShadow_0_1" result="shape"/>
</filter>
<pattern id="pattern0" patternContentUnits="objectBoundingBox" width="1" height="1">
<use xlink:href="#image0_0_1" transform="translate(-0.0144357) scale(0.00262467)"/>
</pattern>
</defs>
</svg>
