<?xml version="1.0" encoding="utf-8"?>
<!-- Generator: Adobe Illustrator 17.0.0, SVG Export Plug-In . SVG Version: 6.00 Build 0)  -->
<!DOCTYPE svg PUBLIC "-//W3C//DTD SVG 1.1//EN" "http://www.w3.org/Graphics/SVG/1.1/DTD/svg11.dtd">
<svg version="1.1" id="Layer_3" xmlns="http://www.w3.org/2000/svg" xmlns:xlink="http://www.w3.org/1999/xlink" x="0px" y="0px"
	 width="24px" height="24px" viewBox="0 0 24 24" enable-background="new 0 0 24 24" xml:space="preserve">
<linearGradient id="SVGID_WPB_1_" gradientUnits="userSpaceOnUse" x1="6.348273e-10" y1="12.1568" x2="23.5958" y2="12.1568">
	<stop  offset="0" style="stop-color:#FFE1BA"/>
	<stop  offset="0.5008" style="stop-color:#F7A561"/>
	<stop  offset="1" style="stop-color:#FED6AE"/>
</linearGradient>
<polygon fill="url(#SVGID_WPB_1_)" points="20.493,13.321 23.596,11.698 20.859,10.426 23.018,8.271 19.827,7.845 21.206,5.116 
	18.281,5.667 18.776,2.699 15.801,4.282 15.191,0.682 13.081,2.951 11.713,0.259 10.246,3.321 7.959,1.051 7.562,4.139 4.92,2.765 
	5.449,5.763 2.117,5.271 3.664,8.053 0.6,8.535 3.021,10.84 0,12.393 2.923,13.776 0.701,15.964 3.794,16.398 2.442,19.124 
	5.538,18.518 5.037,21.662 7.793,20.171 8.327,23.467 10.504,21.16 11.949,24.055 13.483,20.909 15.716,23.096 16.084,20.064 
	18.892,21.498 18.34,18.492 21.433,18.97 19.988,16.327 23.12,15.857 "/>
<radialGradient id="SVGID_2_" cx="12.0163" cy="12.1673" r="7.042" gradientUnits="userSpaceOnUse">
	<stop  offset="0.621" style="stop-color:#130000"/>
	<stop  offset="0.6772" style="stop-color:#180000;stop-opacity:0.8517"/>
	<stop  offset="0.728" style="stop-color:#220000;stop-opacity:0.7176"/>
	<stop  offset="0.7768" style="stop-color:#301000;stop-opacity:0.5889"/>
	<stop  offset="0.8243" style="stop-color:#402317;stop-opacity:0.4635"/>
	<stop  offset="0.871" style="stop-color:#513730;stop-opacity:0.3405"/>
	<stop  offset="0.9169" style="stop-color:#654F4F;stop-opacity:0.2193"/>
	<stop  offset="0.9614" style="stop-color:#7C6E7A;stop-opacity:0.1019"/>
	<stop  offset="1" style="stop-color:#8E8EAB;stop-opacity:0"/>
</radialGradient>
<ellipse fill="url(#SVGID_2_)" cx="12.016" cy="12.167" rx="7.1" ry="6.983"/>
<g>
	<polygon fill="#AE2025" points="15.314,0.409 15.674,2.621 15.031,3.78 14.624,3.78 13.708,2.164 	"/>
	<polygon fill="#9D1F22" points="15.322,0.384 15.555,1.914 14.74,3.367 13.918,1.922 	"/>
	<polygon fill="#921A23" points="13.968,1.872 14.973,3.78 14.624,3.78 13.698,2.166 	"/>
	<path fill="#F9A91A" d="M11.141,6.58V4.916c0,0,0.005-0.144,0.13-0.121s1.443-0.002,1.443-0.002s0.109,0.015,0.099,0.114
		c-0.01,0.099,0.001,1.673,0.001,1.673H11.141z"/>
	<path fill="#F99F3D" d="M12.398,4.793h0.316c0,0,0.109,0.015,0.099,0.114c-0.01,0.099,0.001,1.673,0.001,1.673h-0.415V4.793z"/>
	<ellipse fill="#E9A776" cx="11.986" cy="12.226" rx="6.32" ry="6.216"/>
	<ellipse fill="#AF764A" cx="11.986" cy="12.226" rx="5.486" ry="5.395"/>
	<ellipse fill="#D08D56" cx="11.986" cy="12.226" rx="4.026" ry="3.96"/>
	<path fill="#E09326" d="M8.88,3.78c0,0-0.379,0.204-0.379,0.657c0,0.319,0.153,0.46,0.249,0.523
		c0.096,0.064,2.391,0.919,2.391,0.919V5.382c0,0-2.076-0.654-2.162-0.772C8.788,4.345,9.095,4.163,9.095,4.163L8.88,3.78"/>
	<path fill="#E09326" d="M15.031,3.78c0,0,0.423,0.247,0.423,0.7c0,0.319-0.153,0.46-0.249,0.523
		c-0.096,0.064-2.391,0.919-2.391,0.919V5.425c0,0,2.076-0.654,2.162-0.772c0.191-0.265-0.136-0.49-0.136-0.49L14.624,3.78h0.35
		H15.031z"/>
	<polygon fill="#AE2025" points="7.852,0.819 10.214,3.16 11.718,0.018 13.124,2.757 13.698,2.163 14.839,4.163 9.095,4.163 
		7.727,1.705 	"/>
	<polygon fill="#9D1F22" points="10.197,3.131 11.721,0 13.116,2.757 13.394,2.491 14.239,3.972 9.433,4.015 7.808,1.114 
		7.844,0.794 	"/>
</g>
</svg>
